<?xml version="1.0" encoding="UTF-8"?> <svg xmlns="http://www.w3.org/2000/svg" xmlns:xlink="http://www.w3.org/1999/xlink" version="1.1" id="Layer_1" x="0px" y="0px" viewBox="0 0 1000 1000" style="enable-background:new 0 0 1000 1000;" xml:space="preserve"> <path style="fill:#FFFFFF;" d="M558,116.8c23.7,0.1,44.4,18.3,46.9,41.8c2.3,22.3,4,44.6,6,67c1.9,20.8,3.9,41.7,5.7,62.5 c1.5,17,2.7,34.1,4.2,51.1c1.8,20.8,3.9,41.7,5.7,62.5c1.5,16.9,2.8,33.8,4.3,50.6c1.5,17.2,3.2,34.4,4.7,51.6 c1.5,16.7,2.8,33.4,4.3,50.1c1.5,17.4,3.1,34.7,4.7,52.1c1.1,12.7,2.2,25.5,3.3,38.2c1.6,17.7,3.2,35.4,4.7,53.1 c1.1,12.6,2.6,25.1,3.1,37.7c0.9,23.9-17.8,45.3-41.8,47.8c-22.5,2.3-45,4-67.5,6.1c-20.7,1.9-41.3,3.9-62,5.7 c-17,1.5-34.1,2.8-51.1,4.2c-17,1.5-34.1,3.1-51.1,4.6c-17,1.5-34.1,2.8-51.1,4.3c-17.5,1.5-35.1,3.2-52.6,4.7 c-16.7,1.5-33.4,2.8-50.1,4.2c-9.6,0.8-19.2,1.3-28.8,2.6c-23.9,3.3-49.7-16.3-52-40.3c-2.3-22.8-4-45.6-6.1-68.4 c-2.2-24.6-4.6-49.3-6.8-73.9c-1.8-20.8-3.4-41.7-5.2-62.5c-1.8-20.8-3.9-41.7-5.7-62.5c-1.5-17-2.7-34.1-4.2-51.1 c-1.8-20.8-3.9-41.7-5.7-62.5c-1.5-16.9-2.8-33.8-4.3-50.6c-1.5-17.2-3.2-34.4-4.7-51.6c-1.5-16.9-2.8-33.7-4.3-50.6 c-1.1-12.7-1.8-25.5-3.4-38.2c-3.3-26.5,14.8-50.4,41.7-53.4c18.5-2.1,37-3.3,55.5-5c20.8-1.9,41.7-3.8,62.5-5.7 c16.9-1.5,33.8-2.8,50.6-4.3c17.2-1.5,34.4-3.1,51.6-4.7c12.9-1.1,25.8-2.2,38.7-3.3c17.7-1.5,35.4-3.1,53.1-4.7 c12.9-1.1,25.8-2.2,38.7-3.3c17.5-1.5,35.1-3.1,52.6-4.7C547.4,117.6,552.7,117.2,558,116.8z M361.3,580.5 c-3.6,35-7.2,70.5-10.9,106.8c33.8-2.9,67.1-5.8,100.9-8.8c-9.9-35-19.7-69.4-29.4-103.6c0.7-0.4,0.8-0.6,0.9-0.5 c0.8,0.2,1.6,0.5,2.3,0.8c15.3,6.3,31.1,7.7,47.3,5c44.4-7.4,77.2-49.1,71.1-98.1c-3-24.7-15.7-44.1-34.7-60.1 c-35.6-29.8-70.7-60.1-106-90.2c-11.7-10-23.5-20-35.4-30.1c-1.1,1.2-2,2.2-2.8,3.2c-39,47.2-77.8,94.4-116.9,141.5 c-19.2,23.2-26.4,49.3-20.4,78.9c9.6,47.9,59.6,79,106.7,65.9C343.4,588.6,352.1,584.2,361.3,580.5z"></path> <path style="fill:#FFFFFF;" d="M574,819.3c15.4-1.5,30.7-2.8,46.1-4.5c32.4-3.6,62.9-33.2,66.5-65.5c1.3-11.8,0.4-23.8-0.2-35.7 c-0.7-13.6-2.3-27.1-3.5-40.7c-1.6-17.4-3.1-34.7-4.7-52.1c-1.1-12.9-2.2-25.8-3.3-38.7c-1.5-17.5-3.1-35.1-4.7-52.6 c-1.1-12.7-2.2-25.5-3.3-38.2c-1.6-17.7-3.2-35.4-4.7-53.1c-1.1-12.6-2.2-25.1-3.3-37.7c-1.6-17.9-3.2-35.7-4.7-53.6 c-1.5-16.7-2.8-33.4-4.3-50.1c-1.5-17.4-3.1-34.7-4.7-52.1c-1.1-12.7-2.2-25.5-3.3-38.2c-0.5-6.3-1.2-12.6-1.7-18.8 c-0.2-2.1,0-4.2,0-6.3c0.3-0.2,0.4-0.4,0.5-0.4c26.6,0.2,53.3-0.6,79.8,1.1c19.5,1.2,36.4,20.5,38.3,40.2c0.5,5,0.8,9.9,0.8,14.9 c0.1,177.1,0.1,354.1,0.1,531.2c0,23.8-12,41.7-33,48.6c-5,1.6-10.4,2.7-15.6,2.7c-44.8,0.2-89.5,0.1-134.3,0.1c-1,0-2-0.1-2.9-0.2 C573.9,819.5,573.9,819.4,574,819.3z"></path> <path style="fill:#FFFFFF;" d="M723.3,851.8c36.6-6.3,64.6-35.7,68.3-72.1c0.2-2.1,0.1-4.3,0.1-6.5c0-181.1,0-362.1,0-543.2 c0-3.6,0-7.3,0-11.3c9.2,1.3,18.3,2.6,27.4,3.9c15.7,2.3,31.5,4.2,47.2,7.1c23.3,4.3,39.9,28.5,36.6,51.8 c-4,28.1-7.5,56.2-11.4,84.2c-4.5,32.3-9.2,64.6-13.7,96.9c-4.2,30-8.1,60.1-12.3,90.1c-5.2,37.1-10.5,74.1-15.7,111.2 c-4.2,29.9-8.1,59.8-12.2,89.6c-3.2,22.8-6.1,45.7-10,68.3c-4.2,24.3-27.8,40.5-52.1,37.1C758,856.5,740.6,854.2,723.3,851.8z"></path> </svg> 