<?xml version="1.0" encoding="UTF-8"?> <svg xmlns="http://www.w3.org/2000/svg" xmlns:xlink="http://www.w3.org/1999/xlink" version="1.1" id="Layer_1" x="0px" y="0px" viewBox="0 0 1000 1000" style="enable-background:new 0 0 1000 1000;" xml:space="preserve"> <path style="fill:#FFFFFF;" d="M943.5,240.2c-1,5.2-1.7,10.5-3,15.7C891.7,448.3,842.7,640.7,794,833.2c-6.3,25-26.6,36.8-44.8,35.3 c-8.9-0.8-17.7-3.5-26.4-5.7c-80.9-20.5-161.9-41.1-242.8-61.6c-6.6-1.7-13.1-1.4-19.7,0.6c-57.5,17.6-115,35.1-172.5,52.4 c-22.8,6.9-46.1-4.9-53.4-27.6c-11.4-35.8-22.1-71.9-33-107.8c-32.1-105.3-64.1-210.7-96.2-316c-15.6-51.1-31.1-102.3-46.6-153.4 c-7.3-23.9,4.9-47.5,28.9-55c38.9-12.1,77.9-23.8,116.8-35.6c31.4-9.6,62.9-19.1,94.3-28.7c1.6-0.5,3.6-1.1,4.6-2.3 c10.2-11.8,23.2-15.7,38.4-15.8c49.9-0.3,99.9-1.2,149.8-1.9c38.3-0.5,76.5-0.9,114.8-1.3c16.8-0.2,29.7,6.7,39,20.6 c1,1.5,3,2.8,4.8,3.3c64.5,16.5,129.1,32.8,193.6,49.2c22.8,5.8,45.7,11.2,68.4,17.5C930,204.4,942.6,220.8,943.5,240.2z M457.9,756.4c-0.1,16.1,9.3,28.1,23.5,31.7c86.6,22,173.1,44,259.8,65.9c4.9,1.2,10.4,1.8,15.4,0.9c14.4-2.5,21.6-12.3,25.1-26.1 c34.6-136.5,69.3-272.9,103.9-409.3c14.2-55.9,28.4-111.9,42.6-167.8c5.2-20.4-3.3-35.5-23.5-40.6c-49.8-12.8-99.7-25.4-149.6-38.1 c-36.9-9.4-73.9-18.8-110.8-28.1c-18.2-4.6-33.5,7.9-36.4,20.4c-3.4,14.7-7.4,29.3-11.1,43.9c-7.8,30.4-15.7,60.9-23.4,91.3 c-7.4,29.3-14.7,58.7-22.2,88c-7.7,30.5-15.7,60.9-23.4,91.3c-7.5,29.6-14.9,59.2-22.4,88.8c-7.7,30.5-15.6,60.9-23.4,91.3 c-7,27.4-14,54.9-20.9,82.3C459.7,747.6,458.7,752.9,457.9,756.4z M629.7,131.1c-6.9-6.5-14.1-9.1-22.5-9 c-44.3,0.6-88.6,1.1-133,1.6c-44.6,0.5-89.3,1.4-133.9,1.3c-22.4,0-35.2,16.3-33.8,34.6c0.9,12,0.5,24,0.7,36 c0.8,73.9,1.7,147.9,2.5,221.8c0.9,77.5,1.8,155.1,2.6,232.6c0.4,36,1,72,1.2,108c0.1,15.1,11.7,30.4,30.6,30.3 c27.9-0.1,55.8-0.6,83.8-0.8c8.8-0.1,17.6,0,27.1,0c-0.7-1.5-1-2.2-1.4-2.7c-8.9-11.9-10.7-25-7-39.2c22-86.3,43.9-172.6,65.9-259 c27.3-107.4,54.6-214.9,81.9-322.4c2.1-8.1,5.7-15.3,11.6-21.1C612.3,136.9,620.1,133.1,629.7,131.1z M293.5,145.6 c-0.3,0.1-0.7,0.1-1.1,0.2c-20.8,6.3-41.6,12.6-62.5,18.9c-46,14-92.1,28-138.1,42c-9.9,3-16.7,9.3-20.4,18.9 c-3.3,8.6-1.2,16.8,1.4,25.2c23.8,77.8,47.4,155.7,71.1,233.6c33.9,111.4,67.8,222.8,101.8,334.2c6.1,19.9,21.6,28.3,40.8,22.4 c36.1-11.1,72.3-22,108.4-33c6.5-2,13-4.1,19.6-6.1c-1.5-0.9-2.8-0.9-4.1-0.9c-21.6,0.2-43.2,0.5-64.8,0.7 c-26,0.2-45-18.5-45.3-44.4c-0.5-40.6-1-81.2-1.4-121.8c-1.2-105.1-2.5-210.1-3.6-315.2C294.6,262.2,294.1,204.1,293.5,145.6z"></path> <path style="fill:#FFFFFF;" d="M776.7,519.9c-1.1,1.6-2.3,3.8-3.9,5.5c-14.7,15.3-29.5,30.5-44.2,45.8 c-20.2,20.9-40.4,41.8-60.6,62.7c-0.7,0.7-1.4,1.5-2.2,2.2c-5.1,4.9-10.5,3.5-12.4-3.2c-3.7-13-7.2-26-10.8-38.9 c-10.1-36.5-20.2-73.1-30.5-109.5c-1.3-4.5,0-7.5,3.1-10.7c34-35,67.9-70.2,101.8-105.3c1.6-1.7,3.3-3.4,5-5.1 c5-4.9,10.5-3.5,12.4,3.2c5,17.8,10,35.6,15,53.4c8.6,31.1,17.2,62.2,25.8,93.3C775.6,515.2,776,517.1,776.7,519.9z"></path> <path style="fill:#FFFFFF;" d="M656.7,326.5c-0.8,1.1-1.6,2.9-2.9,4.2c-9.6,10.1-19.3,20.2-29.1,30.1c-5.2,5.3-10.5,3.8-12.5-3.4 c-3.7-13.3-7.2-26.6-11-39.8c-1.1-3.6-0.2-6.4,2.3-8.9c9.7-10,19.4-20.1,29.1-30c4.3-4.3,10.1-3.4,11.7,2c4.2,14.4,8.1,28.8,12,43.2 C656.5,324.6,656.5,325.2,656.7,326.5z"></path> <path style="fill:#FFFFFF;" d="M731.1,673.3c0.7-1.2,1.4-3.1,2.7-4.4c9.6-10.1,19.2-20.2,29-30.1c5.2-5.3,10.7-3.7,12.8,3.6 c3.7,13,7.2,25.9,10.9,38.9c1.1,3.7,0.5,6.8-2.4,9.7c-9.3,9.4-18.3,19-27.6,28.4c-6.4,6.6-11.6,5.3-14-3.4 c-3.5-12.5-6.9-25.1-10.3-37.7C731.7,676.9,731.5,675.5,731.1,673.3z"></path> <path style="fill:#FFFFFF;" d="M702.8,747.3c0-3.8,1.8-6.2,5.6-6.8c3.8-0.6,6.3,1.3,7.2,5c1.1,4.7,2,9.6,2.7,14.4 c0.4,2.4,1.2,3.5,3.7,4.1c9.9,2.4,19.8,5.1,29.8,7.4c1.4,0.3,3.7-0.5,4.8-1.6c2.9-3.1,5.4-6.7,8.1-10c3.4-4.1,7.1-4.9,10.3-2.3 c3.3,2.7,3.3,6.5,0.1,10.6c-15.1,18.8-30.2,37.7-45.3,56.5c-2.2,2.8-4.7,5.2-8.6,4.2c-3.7-1-4.6-4.2-5.2-7.5 c-4.2-23.6-8.5-47.2-12.7-70.7C703,749.4,702.9,748.3,702.8,747.3z M745.3,783.7c-8.3-2.1-15.7-4-23.8-6c1.8,9.9,3.4,19,5.3,29.1 C733.3,798.8,739,791.6,745.3,783.7z"></path> <path style="fill:#FFFFFF;" d="M616.9,244.4c-2.2-1.6-4.9-2.6-5.5-4.4c-0.8-2.1-0.6-5.5,0.6-7.3c4.2-6.1,9.1-11.7,13.7-17.5 c10.9-13.5,21.7-27.1,32.6-40.6c2-2.5,4.1-4.7,7.8-3.9c3.9,0.8,5,3.7,5.6,7.1c4.3,24,8.6,48.1,12.9,72.1c0.9,4.9-0.9,8.1-4.9,9 c-3.8,0.9-7-1.7-7.9-6.4c-0.9-4.5-1.4-9.1-2.7-13.5c-0.4-1.6-2.2-3.5-3.7-3.9c-9.6-2.7-19.2-5.2-28.9-7.4c-1.5-0.4-4,0.6-5.2,1.8 c-3.2,3.3-5.7,7.2-8.8,10.6C621.2,241.7,619.2,242.7,616.9,244.4z M660.9,192.5c-6.5,8.2-12.2,15.3-18.3,23c8.2,2,15.4,3.9,23.1,5.8 c0-1.3,0.1-2.1,0-2.7C664.1,210.3,662.6,202.1,660.9,192.5z"></path> <path style="fill:#FFFFFF;" d="M365.2,255.6c5.4-2.6,9.8-5.7,14.7-6.9c11-2.8,21.4,2.8,25.4,13.4c5.8,15.5,2.6,30-6.5,43.4 c-6.8,10-16.2,17.2-26.8,22.9c-3.5,1.9-6.6,2.1-10.4,0c-13.6-7.6-25.6-16.7-32.3-31.2c-4.5-9.9-6-20.4-3.2-31.1 c4.4-16.8,22.6-23,36.5-12.5C363.7,254.4,364.8,255.3,365.2,255.6z"></path> <path style="fill:#FFFFFF;" d="M380.5,213.5c-5.2,4.2-9.4,8.7-14.5,11.4c-9.9,5.2-21.2,2.8-29.4-5.3c-16-15.7-17.4-47.1-3-64.3 c13.7-16.3,35.6-13.8,46.4,5.5c6.3,11.2,7.9,23.2,5.4,35.7c-0.5,2.6-0.1,4.1,2,5.6c5.9,4.4,11.9,8.9,17.6,13.5 c3,2.4,3.1,5.7,0.9,8.7c-2.1,2.9-5.2,3.3-8.3,1.8c-1.2-0.6-2.2-1.5-3.3-2.3C389.5,220.2,384.7,216.6,380.5,213.5z M368.6,204.6 c-1.8-1.4-3.4-2.7-5-3.9c-4-3-8.2-5.9-12.1-9.1c-2.4-1.9-4.4-4.7-2.4-7.7c1.4-2,4-3.6,6.4-4.3c1.3-0.4,3.5,1.3,5,2.3 c3.9,2.8,7.7,5.7,12.4,9.2c1.1-10.4-0.8-18.8-6.2-26.3c-7.2-9.9-18.3-9.6-24.5,1.1c-7.7,13.3-7.7,26.9,0.4,40 C349.9,217.6,361.5,217,368.6,204.6z"></path> <path style="fill:#FFFFFF;" d="M168.3,386.9c-1.8-6-3.5-11.4-5.1-16.6c-4.3,1.6-8.2,3.6-12.3,4.5c-11.5,2.5-22.1-5.6-24.4-17.8 c-2.1-10.8,1.5-20.2,6.8-29.1c3.4-5.7,7.2-11.2,11-16.7c5-7.1,6-7.8,14-4.6c9.7,3.9,19.4,8.1,28.3,13.5c9.7,6,15.5,15.2,13.9,27.3 c-1.3,10-9.1,16.9-19.3,17.8c-1.6,0.1-3.2,0.2-5.5,0.4c0.9,3.1,1.6,5.8,2.5,8.5c0.8,2.7,1.7,5.3,2.7,8.5c5.3-1.5,10.3-3,15.4-4.4 c4.9-1.4,8.3,0,9.5,3.7c1.2,4.1-0.8,7.4-5.8,8.9c-14.4,4.4-28.9,8.8-43.4,13.1c-4.9,1.4-8.3,0-9.5-3.7c-1.3-4,0.7-7.3,5.7-8.9 C157.8,390,162.8,388.6,168.3,386.9z"></path> <path style="fill:#FFFFFF;" d="M124.9,274.5c1.9,6.2,3.5,11.4,5,16.6c0.4,1.4,0.9,2.8,1.1,4.3c0.6,4.1-1.1,7-4.7,7.8 c-4.1,0.9-6.7-1-7.9-4.7c-2.6-8.2-5.1-16.4-7.6-24.6c-4.1-13.4-8.1-26.9-12.2-40.4c-1.5-5.1,0-8.5,4-9.7c4-1.2,6.9,0.9,8.6,6.1 c1.8,5.9,3.6,11.8,5.7,18.6c2-2.5,3.5-4.4,4.9-6.4c6.3-8.6,12.5-17.3,18.8-25.9c3.1-4.3,6.7-5.2,10.2-2.7c3.3,2.3,3.5,6.3,0.4,10.6 c-7.9,10.9-15.8,21.8-23.7,32.8c-0.7,1-1.4,2.1-2.3,3.6c8.8,3.3,17.2,6.4,25.7,9.5c5.6,2,11.2,3.9,16.7,6c4.6,1.8,6.3,5.1,4.9,9 c-1.3,3.8-4.6,5.1-9.6,3.3C150.7,283.9,138.4,279.4,124.9,274.5z"></path> </svg> 