<?xml version="1.0" encoding="UTF-8"?> <svg xmlns="http://www.w3.org/2000/svg" xmlns:xlink="http://www.w3.org/1999/xlink" version="1.1" id="Layer_1" x="0px" y="0px" viewBox="0 0 1000 1000" style="enable-background:new 0 0 1000 1000;" xml:space="preserve"> <path style="fill:#FFFFFF;" d="M294.1,94.4c122.4,0,244.8,0,367.2,0c13.7,4.7,19.4,14.3,18.7,28.6c-0.6,12.8,0,25.6-0.2,38.4 c-0.1,3.8,1.1,4.6,4.7,4.6c30.7-0.1,61.5-0.2,92.2,0.1c12.5,0.1,22.3,10.6,22.4,23.2c0.1,5.9,0,11.8,0,17.7 c0,24.6,0.1,49.1,0.1,73.7c0,23.7-0.1,47.5,0.1,71.2c0.1,16.6-2.9,32.4-11.6,46.7c-14.7,24.3-36.1,38.4-64.5,40.7 c-12.7,1-25.5,0.5-38.3,0.8c-1.6,0-3.2,0.2-5,0.3c0,2.2,0,3.9,0,5.6c-0.6,17.4,0.6,35-2,52.1c-7.2,47.2-32.9,82.1-74.7,104.8 c-22.4,12.1-46.6,17-72.1,16.2c-9.8-0.3-19.6,0-29.6,0c0,52,0,103.5,0,155.6c1.7,0,3.3,0,5,0c25.4,0,50.8,0.3,76.2-0.1 c39.7-0.5,68.3,28.2,72.2,59.8c2,16.6,1.1,33.6,0.8,50.5c-0.1,7.9-5.1,13.8-12,17.7c-2.4,1.3-5.1,2.1-7.6,3.1 c-105.5,0-211.1,0-316.6,0c-0.3-0.2-0.6-0.6-1-0.7c-12.3-2.9-19.2-11.5-19.3-23.9c0-11.9-0.3-23.9,0.1-35.8c0.2-6.4,1-12.9,2.7-19.1 c7.9-29.2,34.5-50.5,64.7-51.2c27.2-0.7,54.4-0.3,81.7-0.3c1.8,0,3.6,0,5.8,0c0-2.3,0-3.9,0-5.6c0-47.4,0-94.7,0-142.1 c0-8.1,0-7.9-8-8c-15.8-0.3-31.8,0.5-47.5-1.4c-29.1-3.5-54.7-15.7-76.4-35.5c-26-23.8-42-53.2-45.6-88.4c-1.7-16.3-1-32.8-1.4-49.2 c0-1.3,0-2.7,0-4.3c-2.6,0-4.6,0.1-6.5,0c-14.6-0.5-29.3,0.2-43.6-1.7c-38.1-5.1-68.6-40.3-69-78.7c-0.2-26.7,0-53.3-0.1-80 c0-29.3,0-58.7-0.3-88c-0.1-14,10-26,25.4-25.8c23.8,0.4,47.7,0.1,71.6,0.1c7.4,0,14.8,0,22.3,0c0.1-1.6,0.2-2.6,0.2-3.6 c0-14.5,0.1-28.9,0.1-43.4c0-8.1,2.6-15,9.2-19.8C287.3,97.1,290.9,96,294.1,94.4z M476.7,262.1c-0.7-0.6-1.2-1-1.8-1.4 c-17.3-14-36.9-19.2-59-15.4c-20.1,3.4-35.2,14.8-47.4,30.3c-22.6,28.6-20.5,68.3,5.1,94.4c27.7,28.3,55.9,56.1,83.9,84.1 c12.5,12.5,25.6,12.5,38.1,0.1c15.1-15.1,30.2-30.2,45.3-45.3c13.6-13.6,27.6-26.9,40.6-41c16.6-18.1,21.6-39.7,16.8-63.7 c-4-19.7-15.8-34.3-31.3-45.9c-17.8-13.4-37.9-17.2-59.6-12.1C495.8,248.8,485.7,254.2,476.7,262.1z M679.8,213.4c0,1.7,0,2.9,0,4.2 c0,11.5,0,23,0,34.6c0,45.1,0,90.2,0,135.3c0,5.4,0,5.4,5.6,5.4c9.4,0,18.8,0.1,28.2-0.1c3.5-0.1,7-0.4,10.4-1.2 c17.5-4.3,27.9-18.1,27.9-37.1c0-45.5,0-91,0-136.6c0-1.5-0.2-2.9-0.3-4.5C727.6,213.4,704,213.4,679.8,213.4z M203.4,213.4 c-0.1,0.9-0.2,1.3-0.2,1.7c0,47.8-0.2,95.6,0.1,143.3c0.1,16.8,14.1,32.2,30.9,33.5c12.7,1,25.5,0.5,38.3,0.8 c3.1,0.1,2.8-1.9,2.8-3.9c0-16.7,0-33.4,0-50.2c0-34,0-68,0-102c0-7.7,0-15.4,0-23.3C251,213.4,227.3,213.4,203.4,213.4z"></path> </svg> 