<?xml version="1.0" encoding="UTF-8"?> <svg xmlns="http://www.w3.org/2000/svg" xmlns:xlink="http://www.w3.org/1999/xlink" version="1.1" id="Layer_1" x="0px" y="0px" viewBox="0 0 1000 1000" style="enable-background:new 0 0 1000 1000;" xml:space="preserve"> <path style="fill:#FFFFFF;" d="M511.3,101.4c118.4,0,236.8,0,355.3,0c12,4.5,15,13.8,10.7,27.7c-3.9,12.3-6.6,24.7-10.1,37.1 c-1.1,3.7-0.2,4.5,3.4,4.4c29.8-0.1,59.5-0.2,89.2,0.1c12.1,0.1,18.8,10.3,15.6,22.5c-1.5,5.7-3,11.4-4.6,17.1 c-6.3,23.8-12.6,47.5-19,71.3c-6.1,23-12.4,45.9-18.4,68.9c-4.2,16.1-11.2,31.3-23.3,45.2c-20.5,23.5-44.9,37.1-73,39.4 c-12.6,1-24.8,0.5-37.2,0.7c-1.6,0-3.2,0.2-4.9,0.3c-0.6,2.2-1,3.8-1.5,5.4c-5,16.8-8.5,33.9-15.5,50.4 c-19.2,45.6-53.1,79.4-99.4,101.4C653.8,605,629,609.7,604.6,609c-9.4-0.3-18.9,0-28.6,0c-13.5,50.3-26.8,100.2-40.3,150.6 c1.7,0,3.2,0,4.8,0c24.6,0,49.1,0.3,73.7-0.1c38.6-0.5,58.8,27.3,54.3,57.9c-2.4,16.1-7.6,32.6-12.3,48.8 c-2.2,7.7-8.5,13.4-16.2,17.1c-2.6,1.3-5.4,2-8.2,3c-102.1,0-204.2,0-306.4,0c-0.3-0.2-0.5-0.6-0.8-0.6 c-11.2-2.8-15.6-11.1-12.4-23.2c3.1-11.6,5.9-23.1,9.4-34.7c1.9-6.2,4.3-12.5,7.5-18.4c15.2-28.2,46.4-48.8,75.9-49.6 c26.5-0.7,52.7-0.3,79.1-0.3c1.7,0,3.4,0,5.6,0c0.6-2.2,1-3.8,1.4-5.4c12.3-45.8,24.6-91.6,36.8-137.5c2.1-7.8,2-7.7-5.6-7.8 c-15.3-0.2-30.9,0.5-45.6-1.3c-27.2-3.4-48.9-15.2-64.7-34.4c-19-23.1-26.8-51.5-21.2-85.6c2.6-15.8,7.6-31.7,11.5-47.6 c0.3-1.3,0.7-2.6,1.1-4.1c-2.5,0-4.4,0.1-6.3,0c-14-0.5-28.4,0.2-41.8-1.7c-35.6-4.9-55.9-39-46.3-76.2 c6.7-25.8,13.8-51.6,20.7-77.4c7.6-28.4,15.2-56.8,22.6-85.2c3.5-13.6,16.4-25.2,31.3-24.9c23,0.4,46.1,0.1,69.2,0.1 c7.1,0,14.3,0,21.6,0c0.5-1.6,0.8-2.5,1.1-3.4c3.8-14,7.6-28,11.3-42c2.1-7.8,6.4-14.5,14-19.1C504.1,104,507.8,102.9,511.3,101.4z M644.5,263.7c-0.5-0.5-0.9-1-1.3-1.4c-13.2-13.5-30.8-18.6-53-14.9c-20.3,3.3-37.9,14.3-53.7,29.3c-29.3,27.7-37.5,66.1-19.5,91.4 c19.5,27.4,39.5,54.3,59.3,81.4c8.8,12.1,21.5,12.1,36.9,0.1c18.5-14.6,37-29.2,55.5-43.8c16.7-13.2,33.6-26,49.9-39.7 c20.7-17.5,31.2-38.4,32.7-61.6c1.2-19-6.4-33.2-18.3-44.4c-13.8-12.9-32.2-16.6-54.6-11.7C666.5,250.8,655.2,256.1,644.5,263.7z M853.7,216.5c-0.4,1.7-0.8,2.8-1.1,4c-3,11.1-6,22.3-9,33.4c-11.7,43.6-23.4,87.3-35.1,130.9c-1.4,5.2-1.4,5.2,4,5.2 c9.1,0,18.2,0.1,27.3-0.1c3.4-0.1,6.9-0.3,10.4-1.1c18-4.1,31.7-17.6,36.6-35.9c11.8-44,23.6-88.1,35.4-132.1 c0.4-1.4,0.6-2.8,0.9-4.4C899.9,216.5,877.2,216.5,853.7,216.5z M392.8,216.6c-0.4,0.9-0.6,1.3-0.7,1.7 c-12.4,46.2-24.9,92.5-37.1,138.7c-4.3,16.3,5.3,31.1,21.2,32.4c12,1,24.5,0.5,36.8,0.8c3,0.1,3.2-1.9,3.8-3.8 c4.3-16.2,8.7-32.4,13-48.5c8.8-32.9,17.6-65.8,26.4-98.7c2-7.4,4-14.9,6-22.5C438.8,216.6,415.9,216.6,392.8,216.6z"></path> <path style="fill:#FFFFFF;" d="M187.1,487.1c44,0,87.9-0.1,131.9,0c11.6,0,21.3,7.2,24.5,17.7c3.4,11-0.2,23-9.9,29.1 c-4.6,2.9-10.7,5.1-16.1,5.1c-87.2,0.3-174.4,0.3-261.6,0.2c-13.3,0-24.6-9.1-26.6-20.9c-2.4-13.5,4.7-26,17.5-30 c3.8-1.2,8-1.2,12.1-1.2C101.5,487.1,144.3,487.1,187.1,487.1C187.1,487.1,187.1,487.1,187.1,487.1z"></path> <path style="fill:#FFFFFF;" d="M230.2,679.4c-23.6,0-47.1,0-70.7,0c-10.7,0-18.3-5.4-22.8-14.7c-4.5-9.4-3.3-18.7,3-27.1 c5.3-7,12.8-10.2,21.3-10.3c46.4-0.2,92.8-0.2,139.1,0c13.4,0.1,24.5,9.5,26.2,21.2c2.1,13.9-4.3,25.3-17.1,29.5 c-4,1.3-8.5,1.4-12.7,1.4C274.5,679.6,252.3,679.5,230.2,679.4C230.2,679.5,230.2,679.5,230.2,679.4z"></path> <path style="fill:#FFFFFF;" d="M231.1,768.5c11.5,0,23.1-0.1,34.6,0c14.6,0.1,25.8,11,26,25.1c0.2,14.6-10.6,26.6-25.2,26.9 c-23.8,0.4-47.6,0.3-71.4,0c-14.5-0.2-26.3-12.6-26-26.5c0.3-14.3,11.8-25.3,26.7-25.5c6-0.1,12,0,18,0 C219.6,768.5,225.3,768.5,231.1,768.5z"></path> </svg> 