<?xml version="1.0" encoding="UTF-8"?> <svg xmlns="http://www.w3.org/2000/svg" xmlns:xlink="http://www.w3.org/1999/xlink" version="1.1" id="Layer_1" x="0px" y="0px" viewBox="0 0 1000 1000" style="enable-background:new 0 0 1000 1000;" xml:space="preserve"> <path style="fill:#FFFFFF;" d="M117.4,495.7c0-106.8,0-213.7,0-320.5c0-41.1,24.6-65.6,65.9-65.6c158.5,0,317,0,475.5,0 c40.5,0,65.2,24.8,65.2,65.5c0,213.7,0,427.4,0,641.1c0,41.1-24.6,65.7-65.9,65.7c-158.5,0-317,0-475.5,0 c-40.5,0-65.2-24.8-65.2-65.6C117.4,709.3,117.4,602.5,117.4,495.7z M420.8,661.1c10.1,0,20.1,0.2,30.2,0 c14.1-0.3,23.2-11.9,20.5-25.6c-1.3-6.5-2.8-12.9-4-19.3c-1.9-10.2,1.7-13.4,11.6-10.6c15.5,4.4,30.9,5.1,46.7,1.2 c65.9-16.5,83.2-97.3,41.5-142.4c-39.9-43.3-82.5-84-124.3-125.4c-12.8-12.7-31-12.3-44,0.6c-41.8,41.4-83.7,82.8-124.8,125 c-27.2,28-30.8,70.5-10.5,103.3c20.7,33.5,60.1,48.2,98.6,36.8c10.9-3.2,14.2-0.2,12.2,11c-1.4,7.6-3.3,15.2-3.9,22.8 c-1.1,13.4,7.5,22.4,21,22.7C401.3,661.2,411,661.1,420.8,661.1z M255.2,219.9c0-15.4-12.3-27.7-27.7-27.7c-15.1,0-27.3,12-27.4,27 c-0.2,15.5,11.9,28,27.3,28.1C242.8,247.5,255.2,235.3,255.2,219.9z M613.4,799c15.2,0.1,27.6-11.9,27.9-26.9 c0.3-15.6-11.9-28.2-27.3-28.3c-15.6-0.1-27.9,12.1-27.8,27.7C586.2,786.6,598.3,798.9,613.4,799z"></path> <path style="fill:#FFFFFF;" d="M779.7,436.1c0-48.2,0-96.4,0-144.7c0-2.9-0.1-5.8,0.3-8.6c1.4-9.2,8.1-13.6,16.7-10.3 c20,7.7,40.2,15,59.6,24c28.2,13.1,40,45.7,28.3,75.9c-18,46.6-36.4,93.1-54.6,139.7c-10,25.5-20.1,51-30,76.6 c-2.2,5.6-4.6,11.2-11.8,10.1c-7.6-1.2-8.5-7.4-8.5-13.8C779.7,535.4,779.7,485.7,779.7,436.1z"></path> <path style="fill:#FFFFFF;" d="M776.8,760.2c5.1-20.2,8.6-40,15.1-58.7c9.8-28.3,21.6-56,32.7-83.9c6.8-17.1,20.3-20,33.4-7.1 c6.6,6.4,13.2,12.8,19.4,19.5c16.8,18.3,16.5,41.6-1,59.2C850.2,715.7,823.7,742,797,768c-3,3-9.5,6.5-11.8,5.2 C781.4,771.2,779.8,765.3,776.8,760.2z"></path> </svg> 