<?xml version="1.0" encoding="UTF-8"?> <svg xmlns="http://www.w3.org/2000/svg" xmlns:xlink="http://www.w3.org/1999/xlink" version="1.1" id="Layer_1" x="0px" y="0px" viewBox="0 0 100 100" style="enable-background:new 0 0 100 100;" xml:space="preserve"> <g> <path style="fill:#FFFFFF;" d="M4.7,42.2C4.8,42,5,42,5.2,42c1.4,0,2.9,0,4.3,0c0.1,0,0.2,0,0.3,0c-0.1,0.2-0.2,0.5-0.2,0.7 c-0.7,1.9-1.4,3.8-2.1,5.7c-0.1,0.4,0,0.5,0.4,0.5c1,0,2,0,3,0c0.1,0,0.2,0,0.3,0c-0.2,0.4-0.4,0.7-0.6,1.1c-1.1,2-2.1,4-3.2,6 c-0.3,0.6-0.7,1.3-1,1.9C6.3,58,6.2,58.1,6,58c-0.2,0-0.3-0.2-0.3-0.3c-0.1-1.2-0.2-2.4-0.3-3.5c-0.1-1.7-0.2-3.4-0.3-5.1 c-0.1-1.4-0.2-2.9-0.3-4.3c0-0.6-0.1-1.1-0.1-1.7c0,0,0-0.1,0-0.1C4.7,42.6,4.7,42.4,4.7,42.2z"></path> <path style="fill:#FFFFFF;" d="M95.3,51.4c-0.1,0.4-0.3,0.8-0.6,1.1c-0.6,0.6-1.3,0.9-2.1,1.1c-1.1,0.2-2.2,0.1-3.2-0.4 c-1-0.5-1.7-1.3-1.9-2.5c0.9,0,1.8,0,2.7,0c0.3,0.7,1,1,1.9,0.8c0.1,0,0.2-0.1,0.3-0.1c0.4-0.3,0.4-0.9,0-1.1 c-0.5-0.2-1-0.3-1.5-0.5c-0.5-0.2-1-0.3-1.5-0.4c-0.9-0.3-1.5-0.9-1.6-1.9c-0.1-1.1,0.3-2,1.2-2.5c1.5-0.8,3-0.9,4.6-0.1 c1,0.5,1.5,1.4,1.7,2.5c0,0,0,0.1,0,0.1c-0.9,0-1.7,0-2.5,0c-0.3-0.8-0.9-1.2-1.8-0.9c-0.3,0.1-0.5,0.3-0.6,0.5 c0,0.3,0.1,0.6,0.4,0.7c0.6,0.2,1.1,0.3,1.7,0.5c0.5,0.2,1.1,0.4,1.6,0.6c0.6,0.3,1,0.9,1.1,1.6c0,0,0,0,0,0.1 C95.3,50.8,95.3,51.1,95.3,51.4z"></path> <path style="fill:#FFFFFF;" d="M66.3,52.4c0,1.2,0,2.5,0,3.7c-0.9,0-1.8,0-2.8,0c0-3.9,0-7.7,0-11.6c0.9,0,1.8,0,2.8,0 c0,0.4,0,0.8,0,1.2c0.1,0,0.1-0.1,0.1-0.1c0.8-0.9,1.8-1.3,3-1.2c1.6,0.1,3,1.3,3.5,3c0.4,1.6,0.3,3.1-0.5,4.5 c-1.2,2-3.6,2.2-5,1.3C66.9,53,66.6,52.7,66.3,52.4z M70.2,49c0-0.2,0-0.3,0-0.5c-0.1-0.8-0.5-1.4-1.3-1.6 c-0.8-0.3-1.5-0.1-2.1,0.5c-0.6,0.6-0.6,1.4-0.5,2.2c0.1,0.7,0.6,1.3,1.3,1.5c0.7,0.2,1.4,0.1,1.9-0.4C70,50.3,70.2,49.7,70.2,49z"></path> <path style="fill:#FFFFFF;" d="M47.9,49.7c0,0.9,0.6,1.7,1.5,1.7c0.6,0,1.1-0.1,1.5-0.5c0-0.1,0.1-0.1,0.2-0.1c0.9,0,1.9,0,2.8,0 c0,0,0,0,0.1,0c-0.2,0.8-0.7,1.4-1.3,1.9c-0.8,0.6-1.7,0.9-2.7,0.9c-0.8,0-1.6-0.1-2.3-0.4c-1.3-0.6-2.1-1.7-2.3-3.1 c-0.2-1-0.2-2,0.2-3c0.6-1.6,1.8-2.5,3.5-2.8c1-0.1,1.9,0,2.8,0.4c1.3,0.6,2.1,1.7,2.3,3.1c0.1,0.6,0.1,1.2,0,1.8 C52,49.7,49.9,49.7,47.9,49.7z M47.9,48.2c1.1,0,2.3,0,3.4,0c0.1-0.7-0.6-1.4-1.3-1.5C48.7,46.5,48,47.3,47.9,48.2z"></path> <path style="fill:#FFFFFF;" d="M80.4,53.5c-0.9,0-1.8,0-2.7,0c0-3,0-6,0-9c0.9,0,1.8,0,2.7,0c0,0.4,0,0.7,0,1.1c0,0,0,0,0.1,0 c0.1-0.1,0.1-0.2,0.2-0.2C82,44,85,44,86.2,46.1c0.3,0.5,0.4,1.1,0.5,1.7c0,1.9,0,3.7,0,5.6c0,0.1,0,0.1,0,0.2c-0.9,0-1.8,0-2.7,0 c0-0.1,0-0.2,0-0.3c0-1.6,0-3.2,0-4.9c0-1-0.8-1.9-2.1-1.6c-0.7,0.1-1.2,0.7-1.3,1.4c0,0.7,0,1.4,0,2c0,1,0,2.1,0,3.1 C80.4,53.4,80.4,53.5,80.4,53.5z"></path> <path style="fill:#FFFFFF;" d="M54.8,50.8c0.9,0,1.7,0,2.6,0c0.1,0,0.1,0.1,0.2,0.1c0.2,0.4,0.6,0.7,1.1,0.7c0.3,0,0.5,0,0.8-0.1 c0.3-0.1,0.5-0.3,0.5-0.6c0-0.3-0.1-0.5-0.4-0.6c-0.6-0.2-1.1-0.3-1.7-0.5c-0.5-0.1-0.9-0.3-1.4-0.5c-1.9-0.8-1.7-3.2-0.4-4.2 c0.8-0.6,1.6-0.8,2.6-0.8c0.8,0,1.7,0.1,2.4,0.6c0.9,0.6,1.4,1.4,1.5,2.5c-0.9,0-1.7,0-2.5,0c-0.1-0.2-0.2-0.5-0.4-0.6 c-0.4-0.4-1.2-0.5-1.7-0.2c-0.4,0.3-0.4,0.9,0,1.1c0.5,0.2,1,0.3,1.5,0.5c0.6,0.2,1.2,0.3,1.7,0.6c0.8,0.4,1.3,1.1,1.4,2 c0.1,1.1-0.4,1.9-1.3,2.4c-0.7,0.4-1.5,0.5-2.2,0.5c-1.1,0-2.1-0.2-2.9-0.8c-0.6-0.5-1-1.1-1.2-1.8C54.9,51,54.9,50.9,54.8,50.8 C54.8,50.8,54.8,50.8,54.8,50.8z"></path> <path style="fill:#FFFFFF;" d="M35.3,44.6c1,0,2,0,3,0c0.6,2.1,1.3,4.2,1.9,6.3c0,0,0,0,0,0c0-0.1,0.1-0.1,0.1-0.2 c0.6-2,1.2-3.9,1.8-5.9c0-0.2,0.1-0.2,0.3-0.2c0.8,0,1.6,0,2.4,0c0.1,0,0.2,0,0.3,0c-0.1,0.4-0.2,0.7-0.4,1 c-0.9,2.6-1.8,5.2-2.8,7.8c-0.1,0.1-0.1,0.2-0.3,0.2c-1,0-2,0-3,0c-0.2,0-0.2,0-0.3-0.2c-0.9-2.5-1.7-5-2.6-7.4 C35.7,45.5,35.5,45,35.3,44.6z"></path> <path style="fill:#FFFFFF;" d="M12,53.5c0.4-0.8,0.9-1.6,1.3-2.4c0.8-1.5,1.6-3,2.4-4.5c0.2-0.3,0.1-0.6-0.3-0.6 c-0.9,0-1.8,0-2.7,0c-0.1,0-0.2,0-0.3,0c0.1-0.4,0.3-0.8,0.4-1.1c0.3-0.9,0.7-1.8,1-2.7c0-0.1,0.1-0.2,0.3-0.2c1.4,0,2.8,0,4.2,0 c0.1,0,0.2,0,0.3,0c0.2,0.1,0.2,0.2,0.2,0.4c-0.3,1.5-0.7,3-1,4.6c-0.5,2.1-1,4.2-1.5,6.3c0,0.2-0.1,0.3-0.3,0.3 C14.7,53.5,13.4,53.5,12,53.5z"></path> <path style="fill:#FFFFFF;" d="M24.4,53.5c0-3.9,0-7.7,0-11.5c0.9,0,1.8,0,2.7,0c0,2.9,0,5.8,0,8.8c1.2,0,2.4,0,3.6,0 c0,0.9,0,1.9,0,2.8C28.6,53.5,26.5,53.5,24.4,53.5z"></path> <path style="fill:#FFFFFF;" d="M34.4,53.5c-0.9,0-1.8,0-2.8,0c0-3,0-6,0-9c0.9,0,1.8,0,2.8,0C34.4,47.5,34.4,50.5,34.4,53.5z"></path> <path style="fill:#FFFFFF;" d="M73.9,44.5c0.9,0,1.8,0,2.7,0c0,3,0,6,0,9c-0.9,0-1.8,0-2.7,0C73.9,50.5,73.9,47.6,73.9,44.5z"></path> </g> </svg> 