<?xml version="1.0" encoding="UTF-8"?> <svg xmlns="http://www.w3.org/2000/svg" xmlns:xlink="http://www.w3.org/1999/xlink" version="1.1" id="Layer_1" x="0px" y="0px" viewBox="0 0 1000 1000" style="enable-background:new 0 0 1000 1000;" xml:space="preserve"> <path style="fill:#FFFFFF;" d="M150,490.9c0-103.2,0-206.4,0-309.6c0-39.7,23.8-63.4,63.7-63.4c153.1,0,306.3,0,459.4,0 c38.8,0,62.9,24,62.9,62.5c0,207,0,413.9,0,620.9c0,38.6-24.1,62.6-62.9,62.6c-153.4,0-306.8,0-460.2,0c-39.1,0-62.9-24-62.9-63.4 C150,697.3,150,594.1,150,490.9z M634.4,488.3c-2.9-106.4-81.8-182.7-177.8-186.5c-117.5-4.7-192.8,84.9-196.1,177.5 c-4.2,117.1,85,192.3,178,195.8C553.2,679.4,633,589.3,634.4,488.3z M283.1,224.5c0-14.9-11.9-26.7-26.8-26.7 c-14.5,0-26.3,11.7-26.4,26.2c-0.2,15,11.6,27,26.4,27.1C271.2,251.2,283.1,239.3,283.1,224.5z M656.1,757.7 c0.1-14.7-11.4-26.7-25.8-27c-15.1-0.3-27.3,11.3-27.4,26.2c-0.2,14.6,11.4,26.7,25.8,27C643.7,784.2,655.9,772.5,656.1,757.7z"></path> <path style="fill:#FFFFFF;" d="M789.8,433.1c0-46.9,0-93.7,0-140.6c0-17.5,5.9-21.5,22.2-15c15.1,6,30.3,11.9,45.4,18.1 c32.8,13.6,46.3,44.5,33.5,77.3c-27.1,69.4-54.4,138.8-81.5,208.2c-2.1,5.5-4.7,10.7-11.6,9.4c-7.3-1.3-8-7.4-8-13.6 C789.8,529,789.8,481,789.8,433.1z"></path> <path style="fill:#FFFFFF;" d="M787.1,746c4.8-19.1,8.1-37.9,14.3-55.8c9.6-27.6,21.1-54.6,31.9-81.8c6.4-16.1,19.4-18.9,31.7-7 c6.4,6.2,12.8,12.3,18.8,18.8c16.6,18,16.4,40.5-0.8,57.8c-25.2,25.4-50.6,50.6-76.2,75.5c-3.1,3-9.4,6.5-12.1,5.2 C791.3,757.2,789.9,751.1,787.1,746z"></path> <path style="fill:#FFFFFF;" d="M392.3,441.5c-33.5,41.6-18.3,86.7,7.1,108.2c26.8,22.6,68.6,22.7,95.5,0 c25.1-21.2,40.9-65.8,7.2-108.1c25.3,9.4,44.5,56.7,37.6,92.7c-8.4,43.9-48.3,76.6-93,76.1c-45.3-0.5-84.7-33.4-92.2-77 C348.2,496.8,367.3,450.5,392.3,441.5z"></path> <path style="fill:#FFFFFF;" d="M403.5,408.5c8.5-6.3,17.1-12.7,25.8-19.1c-3.3-10.4-6.5-20.5-10.5-33.1c9.1,6.5,16.4,11.2,23.1,16.6 c4.1,3.3,6.8,3,10.7-0.1c6.7-5.3,13.8-10.1,22.9-16.6c-3.9,12.4-7.1,22.4-10.4,33.2c8.4,6.2,17,12.6,25.6,18.9 c-0.1,0.6-0.1,1.3-0.2,1.9c-6.3,0-12.7,0-19,0c-13.2,0-13.2,0-17.4,12.6c-2,6-3.9,12-7.5,18.1c-2.9-8.4-5.3-17-8.8-25.2 c-1-2.5-4.7-5.2-7.3-5.4c-8.7-0.7-17.5-0.3-26.3-0.3C403.8,409.7,403.7,409.1,403.5,408.5z"></path> </svg> 