<?xml version="1.0" encoding="UTF-8"?> <svg xmlns="http://www.w3.org/2000/svg" xmlns:xlink="http://www.w3.org/1999/xlink" version="1.1" id="Layer_1" x="0px" y="0px" viewBox="0 0 1000 1000" style="enable-background:new 0 0 1000 1000;" xml:space="preserve"> <path style="fill:#FFFFFF;" d="M524.5,529.2c0,51.8,0.3,103.5-0.1,155.3c-0.3,52-30.9,82.8-82.8,83.2c-47.6,0.4-95.3,0.5-142.9,0 c-51.8-0.5-82.9-31.1-83.2-83.1c-0.6-103.5-0.7-207.1-0.1-310.6c0.3-53,32-83,85.6-83.3c46.8-0.2,93.7-0.3,140.5,0 c51.6,0.4,82.5,31.4,82.9,83.2C524.8,425.6,524.5,477.4,524.5,529.2z M242,528.9c0,52.6-0.4,105.2,0.1,157.8 c0.3,34.2,19.4,53.6,53.7,54.1c49.3,0.7,98.6,0.6,147.9,0c34.2-0.4,54.5-19.6,54.7-53.3c0.6-105.2,0.6-210.4,0.1-315.6 c-0.2-34-20.3-53.6-54-54c-48.5-0.6-97-0.6-145.5-0.1c-38.6,0.4-56.8,19.1-57,58.3C241.8,426.9,242,477.9,242,528.9z"></path> <path style="fill:#FFFFFF;" d="M520.9,310.5c-5.8-7.4-10.4-13.2-15.4-19.6c13.7-35,51.4-54.8,88.9-40.8 c53.8,20.2,106.9,42.4,159,66.7c34.9,16.3,48.8,58.3,33.6,95.4c-41.3,100.3-83.4,200.3-126.2,299.9c-16.6,38.5-57.3,54.7-96.7,41.1 c-11.5-4-22.6-9.4-35.2-14.8c3.7-8.5,6.8-15.6,9.8-22.5c77,25.1,82.5,22.5,114.2-52.9c35.4-84.1,70.9-168,106.2-252.1 c15.5-36.9,5.6-61.2-31.6-77.2c-40-17.2-80.3-33.7-120.4-50.7C565,265.3,547.5,270.5,520.9,310.5z"></path> <path style="fill:#FFFFFF;" d="M656.6,391.3c-28.7-12.5-53.2-23.3-79-34.6c3.8-8.8,6.6-15.3,10.8-24.9c37.1,15.6,72.8,30.7,113,47.6 c-8.8,12.2-14.3,23-22.5,30.9c-30.1,29.1-61.9,56.4-91.3,86.1c-14.9,15-27.4,14.7-44.9,0.4C579.8,462.4,616.8,428.2,656.6,391.3z"></path> <path style="fill:#FFFFFF;" d="M542.2,545.1c36.9,4.1,60.4,29.8,59.7,63.5c-0.7,33.3-24.6,58.1-59.7,60.5 C542.2,627.8,542.2,586.6,542.2,545.1z"></path> <path style="fill:#FFFFFF;" d="M369.3,579.6c35.8-0.4,64.4,27.2,65.2,62.6c0.7,36.2-28.5,66.1-64.7,66.1 c-35.2,0-63.5-28.7-63.6-64.3C306,607.9,333.4,580,369.3,579.6z"></path> <path style="fill:#FFFFFF;" d="M307,485.2c12.3-7.7,22.5-14.4,32.9,4.9c8.4,15.5,39.6,20.5,52.4,9c6.1-5.5,10.2-17.2,9.1-25.3 c-0.9-6.7-9.8-15.3-16.9-17.5c-11.3-3.5-24.1-2.3-37.1-3.1c-6.2-17.9-2.2-24.8,17.8-26.2c11.4-0.8,23.4-10.3,32.2-18.9 c2.1-2-7.6-23.4-12.6-23.7c-14.1-0.8-35.1-0.1-41.4,8.7c-12.2,16.9-20.9,17.2-36,5.7c4-24.7,19-39.7,42.8-43.7 c25.4-4.4,52.4-6.5,69.8,18c15.8,22.2,11.3,45-6,64.9c21.3,24,26,46,14.7,67.4c-11.2,21.4-39.3,31.2-74.2,25.9 C328.1,527.2,313,513,307,485.2z"></path> </svg> 