<?xml version="1.0" encoding="UTF-8"?> <svg xmlns="http://www.w3.org/2000/svg" xmlns:xlink="http://www.w3.org/1999/xlink" version="1.1" id="Layer_1" x="0px" y="0px" viewBox="0 0 1000 1000" style="enable-background:new 0 0 1000 1000;" xml:space="preserve"> <path style="fill:#FFFFFF;" d="M818.4,206c4,0,7.6,0.1,11.1,0c27.3-1,54.4,18.5,59.5,49.9c0.6,3.9,0.6,8,0.6,11.9 c0,186.9-0.1,373.8,0.1,560.6c0,32-21.5,54.3-45.1,59.5c-5,1.1-10.3,1.7-15.4,1.7c-132.7,0.1-265.5,0.1-398.2,0.1 c-18,0-33.1-6.9-45-20.4c-1.9-2.1-3.8-2.8-6.5-2.8c-46.2,0.1-92.3,0-138.5,0.1c-14.2,0-27-4-38-13c-13.5-11.1-21.1-25.4-21.8-43 c-0.2-5.3,0-10.6,0-16c-6.7-0.3-12.9-0.4-19.1-1c-25.6-2.4-48.1-24.3-51.1-49.8c-0.5-3.9-0.7-7.9-0.7-11.9c0-187.1,0-374.3,0-561.4 c0-29.3,18.8-52.7,47.4-58.9c4-0.9,8.2-1.2,12.3-1.2c133-0.1,266-0.1,399,0c18.3,0,33.5,7.2,45.5,21.1c1.8,2.1,3.5,2.7,6.1,2.7 c45.9-0.1,91.8,0.4,137.7-0.2c27.9-0.3,55.4,19.3,59.8,51.4c0.7,5,0.3,10.1,0.4,15.1C818.4,202.2,818.4,203.9,818.4,206z M126.4,452 c0,93.6,0,187.3,0.1,280.9c0,5.5,0.8,11.3,2.6,16.4c6.4,17.8,22.3,28.5,41.4,28.5c39.1,0,78.2,0,117.3,0c93.1,0,186.2,0,279.3,0 c8,0,15.6-1.3,22.5-5.4c15.2-8.9,22.3-22.4,22.3-39.9c0-130.7,0-261.5,0-392.2c0-56.3,0-112.5,0-168.8c0-16.3-6.4-29.3-20.3-38.3 c-8.1-5.2-17.2-6.6-26.6-6.6c-83.5,0-167.1,0-250.6,0.1c-48,0-96,0-144,0c-13.9,0-25.6,5.2-34.5,16.1c-7.5,9.2-9.7,20-9.6,31.7 C126.5,266.8,126.4,359.4,126.4,452z M629,468.6c2.2-2.6,3.7-4.6,5.3-6.4c4.1-4.7,7.7-9.9,12.4-13.9c17.5-15,38.1-20.6,60.8-17.4 c27.3,3.9,48.9,17.3,63.6,40.7c13.2,21.2,14,44.3,8.6,68c-5.8,25.1-18.5,46.7-34.5,66.5c-24.6,30.5-53.8,55.9-85.8,78.2 c-9.7,6.8-18.1,15.8-30.6,18.3c0,1.4,0,2.7,0,4c-0.3,12.9,0.7,25.9-1.1,38.6c-3.8,27.9-27.5,49.1-56.6,49.4 c-58.3,0.5-116.5,0.1-174.8,0.1c-2.6,0-5.2,0-8.2,0c0,12.9,0,25.4,0,37.8c0,2,0.2,4,0.6,5.9c4.3,21,21.8,34.9,44.2,34.9 c132,0,263.9,0,395.9,0c3.3,0,6.7-0.2,9.9-0.8c21-4.3,34.7-21.7,34.7-43.9c0-169.7,0-339.5,0-509.2c0-19.5,0.2-39.1-0.4-58.6 c-0.7-20.4-20.1-38.5-40.7-38.5c-60.9,0-121.8,0-182.8,0c-6.9,0-13.7,0-20.6,0C629,304.6,629,386.1,629,468.6z M198.2,795.2 c-0.7,13.1-0.8,25.6,7.7,36.5c8.5,11,19.3,17.6,33.3,17.7c43,0.2,85.9,0.1,128.9,0.1c1.6,0,3.1,0,5.1,0c-4.7-18.2-1.5-36.3-2.9-54.2 C312.8,795.2,255.7,795.2,198.2,795.2z M801.6,204.8c0-3.1-0.1-6.1,0-9.2c0.4-14.4-4.7-26.3-16-35.5c-6.8-5.5-14.5-9.1-23.3-9.2 c-38-0.2-76-0.1-114.1-0.1c-7.1,0-14.3,0-21.5,0c4.3,18,1.2,35.8,2.6,53.9C686.7,204.8,743.9,204.8,801.6,204.8z"></path> <path style="fill:#FFFFFF;" d="M388.2,537.1c-0.2,6.6,1,12.8,5.1,18.2c6.9,9.1,13.9,18.1,20.9,27.2c2.5,3.3,3.9,6.6,1.9,10.6 c-1.9,3.9-5.4,4.7-9.3,4.7c-23.5,0-47.1,0-70.6,0c-5.9,0-11.7,0-17.6,0c-3.7,0-7-1.1-8.6-4.6c-1.6-3.5-0.9-6.9,1.5-10.1 c6.2-8.2,12.2-16.4,18.3-24.6c4-5.4,7.2-11.1,8.2-17.8c0.2-1.2,0.2-2.5,0.3-3.4c-8.7,2.4-17.1,5.6-25.7,7 c-23.2,3.8-45.4,1.9-63.1-16.1c-11-11.3-17.4-25.1-20.5-40.5c-4.1-20.4,0.6-39.2,10.3-57.2c10.2-19.1,23.9-35.7,38.3-51.7 c24.3-26.8,51.1-50.7,79.1-73.5c4.7-3.9,8.6-4.3,12.8-0.4c24,22,48.4,43.6,71.7,66.3c17.4,16.8,32.2,36,44.4,57.1 c7.8,13.7,12.6,28.3,12.8,44.1c0.3,23.4-10.7,54.1-38,67.4c-8.2,4-17,5.6-26,6c-15.2,0.7-29.7-2-43.6-8.1c-0.5-0.2-1-0.4-1.5-0.5 C388.9,536.9,388.7,537,388.2,537.1z"></path> <path style="fill:#FFFFFF;" d="M198.2,341.3c0,2.4,0,4.3,0,6.6c2,0,3.8,0,5.6,0c6.7,0.1,10.5,4.1,9.7,10.2c-0.6,4.6-3.5,7.3-8.8,7.4 c-10.2,0.2-20.5,0.2-30.7-0.1c-5.6-0.1-8.6-3.8-8.4-9.4c0.2-4.9,3.2-7.7,8.6-7.8c2.1-0.1,4.2,0,6.5,0c0-2.2,0-4,0-5.2 c-5.8,0-11.6,0.6-17.3-0.1c-12.7-1.7-21.3-14-21.1-28.6c0.2-10.6,5.4-19.3,12.1-26.6c9.1-9.9,19.2-18.9,29.2-28.1 c3.6-3.4,9-3.2,12.7,0.1c11.4,10.1,23.1,20,32.1,32.5c5.7,7.9,9.9,16.5,8.4,26.6C233.8,338,219.8,347,201,342 C200.2,341.8,199.5,341.6,198.2,341.3z"></path> <path style="fill:#FFFFFF;" d="M527.2,557c1.6-6.2,1.2-6.7-4.8-6.9c-5.7-0.2-8-1.7-9.6-6.1c-1.3-3.7-0.1-6.7,2.7-8.8 c1.6-1.2,3.8-2,5.8-2c10.1-0.2,20.2-0.1,30.3-0.1c5.1,0,8.4,3.1,8.6,8c0.2,4.9-2.6,8.2-7.7,8.9c-2.4,0.3-4.7,0.4-7.4,0.6 c0,2.1,0,4,0,5.3c6.3,0,12.9-1.1,19,0.2c12.6,2.7,20.6,16.1,19.4,29.5c-1,11.3-7.3,19.9-14.5,27.6c-8.5,9-17.7,17.2-26.8,25.5 c-3.5,3.2-7.8,3.3-11.2,0.4c-13.1-11.2-26.3-22.4-35.8-37.2c-7.6-11.8-7.9-25.6-0.5-36.2c6.6-9.6,17.4-12.8,30.5-9.2 C525.7,556.7,526.4,556.8,527.2,557z"></path> <path style="fill:#FFFFFF;" d="M225.7,239.6c0,4.7-2.5,8-6,8.9c-3.7,1-7.6-0.7-9.5-4c-0.3-0.6-0.6-1.2-0.8-1.8 c-3.5-8.4-3.5-8.4-12.5-8.4c-6.9,0-13.8,0.1-20.7,0c-2.2,0-3.4,0.6-4.1,2.7c-0.7,2.1-1.6,4.2-2.5,6.3c-2.2,4.6-6.4,6.5-10.8,4.8 c-4.5-1.8-6.5-6.1-4.7-11.2c3-8.2,6.4-16.3,9.6-24.4c6-14.9,12-29.7,18-44.5c2.1-5.1,4.3-6.8,8.7-6.7c4.6,0.1,6.7,2.9,8.2,6.8 c8.5,22.3,17.1,44.5,25.7,66.7C224.9,236.5,225.4,238.5,225.7,239.6z M179.9,217.3c6.7,0,13,0,19.6,0c-3.2-8.3-6.3-16.2-9.7-24.9 C186.3,201.3,183.2,209.2,179.9,217.3z"></path> <path style="fill:#FFFFFF;" d="M536.4,741.1c-5.1,0.1-7.4-2.6-8.8-6.3c-6.2-15.8-12.3-31.5-18.5-47.3c-2.8-7.1-5.7-14.2-8.3-21.5 c-1.7-4.8,0.4-9.3,4.6-10.8c4.4-1.6,8.7,0.3,10.8,4.8c0.4,1,1,1.9,1.2,2.9c0.9,4.9,3.6,6.4,8.6,6c7.7-0.5,15.4-0.2,23.1-0.1 c2.6,0.1,4.2-0.5,4.9-3.3c0.6-2.2,1.6-4.2,2.6-6.2c2.1-4.3,6.4-6.1,10.6-4.4c4.3,1.7,6.5,6.1,4.7,10.8 c-5.7,14.4-11.6,28.7-17.4,43.1c-3.6,8.8-7.1,17.7-10.8,26.5C542.1,739.5,539.7,741.1,536.4,741.1z M526.3,685.7 c3.2,8.3,6.3,16,9.6,24.5c3.5-8.7,6.6-16.4,9.9-24.5C539.2,685.7,533.1,685.7,526.3,685.7z"></path> <path style="fill:#FFFFFF;" d="M797.7,726c-15,13.8-36.4,9.1-46.9-3c-7.4-8.7-8.8-18.7-6.9-29.5c2.3-12.5,9.2-22.5,18-31 c8.4-8.1,18-15.1,27-22.6c6-5,11.7-4.1,17.4-0.1c10.4,7.3,20.4,15.1,28.9,24.7c8.3,9.4,14.8,19.7,16.8,32.5 c2.8,17.7-11.1,35.7-29.1,37.2C813.4,735.1,804.9,733,797.7,726z"></path> <path style="fill:#FFFFFF;" d="M761.6,759.6c-0.1-4.9,2.5-8.3,6.2-9.2c3.4-0.9,7.3,0.8,9.2,4c0.5,0.8,0.8,1.7,1.2,2.5 c3.2,7.7,3.2,7.7,11.7,7.7c7,0,14.1-0.1,21.1,0c2.4,0.1,3.6-0.7,4.3-3c0.6-2.1,1.6-4.2,2.5-6.2c2.2-4.8,6.6-6.6,11.1-4.7 c4.2,1.8,6.2,6.2,4.3,11c-3.6,9.4-7.5,18.6-11.3,28c-5.5,13.5-10.9,27-16.4,40.5c-1.6,3.9-4,6.6-8.4,6.7c-3.8,0.1-6.6-2.2-8.4-6.7 c-8.6-22-17.3-44.1-25.9-66.1C762.3,762.3,761.9,760.5,761.6,759.6z M787.8,781.2c3.2,8.1,6.2,15.9,9.6,24.7 c3.5-8.9,6.7-16.6,9.9-24.7C800.5,781.2,794.4,781.2,787.8,781.2z"></path> </svg> 