<?xml version="1.0" encoding="UTF-8"?> <svg xmlns="http://www.w3.org/2000/svg" xmlns:xlink="http://www.w3.org/1999/xlink" version="1.1" id="Layer_1" x="0px" y="0px" viewBox="0 0 1000 1000" style="enable-background:new 0 0 1000 1000;" xml:space="preserve"> <path style="fill:#FFFFFF;" d="M444.5,824.1c-2.8-0.5-5.6-1.5-8.4-1.5c-71.8-0.1-143.6-0.1-215.4-0.1c-2.8,0-5.6,0-9.3,0 c1.1-2.3,1.9-4.1,2.8-5.7c1.9-3.3,5.2-6.4,5.6-9.8c1.7-15.4,13.7-14.8,24.4-16.5c9.9-1.6,20-2.5,29.7-4.9c4.4-1.1,8.1-5,12.2-7.7 c4.2,0.6,9.4,1.8,14.6,1.9c14.3,0.3,28.5,0.2,42.8-0.1c4.5-0.1,9.3-0.4,13.4-1.9c9.5-3.5,11.1-11.6,9.5-21.7c4.9,2.7,8.9,5,13,7 c32,15.4,61.8,11.4,89.9-9.8c7.5-5.6,14.7-8.5,24.9-3.3c35.5,18.1,71.3,16.1,106.5-1.5c11.5-5.8,20.4-14.7,27.6-28.3 c0.5,5.2,1,8.2,1.2,11.3c0.5,11.4,6.5,17.4,17.9,17.8c15.5,0.5,31,0.8,46.5,1.5c18.8,1,20.7-11,19.4-23.2c-2-18.1-4-36.1-5.8-54.2 c-0.6-5.9-2.6-13.5,0.2-17.3c2.4-3.3,10.7-2.2,16.4-3.1c11.3-1.8,16.1-10.1,13.6-23.3c-0.4-2.1-0.9-4.2-1.9-8.7 c4.1,3.3,6.3,5.1,8,6.5c-0.9,3.8-2.2,6.9-2.3,10c-0.5,14.2-0.6,28.4-1.3,42.5c-0.1,2.9-2.4,5.7-3.5,8.6c-3.7,9.2-8.8,18.2-10.7,27.8 c-2.5,12.8,2.7,24.8,12,33.6c8.6,8.1,12.8,17.4,15.9,28.6c4.1,14.8,11,28.9,17,44.1c-1.4,0-4.3,0-7.1,0c-80.7,0-161.4,0-242.1,0.1 c-2.8,0-5.6,1-8.4,1.5C490.3,824.1,467.4,824.1,444.5,824.1z"></path> <path style="fill:#FFFFFF;" d="M938,714.1c-2.5,12.3-9.3,21.7-19.1,29.3c-14.6,11.3-29.1,10.2-40.9-4c-12.2-14.6-24-29.7-36-44.5 c-0.9-1.2-2-2.3-3.6-4.2c-3.8,5.8-7.4,11.2-11,16.5c-7.3,11-14.1,22.4-22.1,32.9c-10.2,13.5-25,18.3-38.3,13.8 c-23.9-8.1-33.8-33.2-19.5-53.8c10.6-15.4,24-28.9,36.2-43.3c1.8-2.1,3.7-4.1,6-6.8c-13.4-12.5-26.7-24.6-39.7-37 c-11.1-10.5-18.8-22.6-13.6-38.6c4.7-14.5,15-24.3,29.2-29c11.4-3.7,21,1.3,28.4,10.1c12.3,14.6,24.2,29.5,36.3,44.3 c0.9,1.1,1.9,2.2,3.3,3.8c9.4-14.1,18.5-27.9,27.7-41.6c6.5-9.7,14.4-17.8,26.2-20.9c15.4-4,26.6,2.6,36.1,13.8 c9.1,10.8,11.6,22.7,4.3,35.2c-4.2,7.2-9.3,14-14.8,20.2c-9.7,11.1-20.1,21.6-30.5,32.7c11.2,11.1,21.9,22,32.9,32.5 c9.4,9,17.9,18.6,22.5,31C938,709,938,711.6,938,714.1z"></path> <path style="fill:#FFFFFF;" d="M265.5,354.2c4,14.7,7.2,27.8,11,40.6c5,17,11.3,33.4,22.9,47.3c14.6,17.6,33.3,27.5,56,29 c16.4,1.1,32.8-0.2,49-4.1c6.8-1.6,12.4-3.9,18.1-7.8c4.4-3,11.1-3.4,14.5-7.1c17.9-19.6,34.8-40.1,42.7-66.3 c2.3-7.4,4.9-14.8,7.6-22.1c2.6-7.1,7.8-10,15.5-10c7.6,0,11.1,4.8,13.4,10.3c6,14.8,10.9,30.1,16.9,44.9c2.4,6,6,11.9,10.2,16.8 c8.6,9.7,16.6,21.3,27.5,27.2c13.4,7.3,29.2,10.8,44.4,13.9c17,3.4,34.4,1.8,51-3.1c29.8-8.9,44.8-32,54.8-59.3 c4.2-11.6,7.7-23.5,11.5-35.2c0.9-0.1,1.8-0.2,2.7-0.3c1.3,7.9,2.8,15.8,3.9,23.7c0.5,3.2,0,6.6,0.2,9.9c0.9,16.7,2,33.4,2.7,50.2 c0.4,10.4-0.9,20.9,0.9,31c1.3,7.3,2.7,16.7,10.9,18c4.8-2.7,8.1-4.4,11.3-6.3c6.4-3.9,12.5-8.4,19.1-11.7 c18.9-9.4,38.4-17.1,60.2-16.9c9.6,0.1,18.1,4.7,22.7,11.3c5,7.2,7.5,17.5,3.8,27c-5.7,14.7-15,27.1-25.3,38.7 c-6.8,7.7-14.4,14.7-22.4,22.8c-4-4.9-7.7-9.3-11.3-13.7c-8.7-10.8-18.3-19.9-32.9-22.7c-9.9-1.9-18.8,0.1-26.8,4.5 c-16.1,9-28,21.9-31.2,41.1c-0.3,1.7-1.2,3.3-1.6,4.3c-26.7,1.9-53.1,3.8-79.6,5.6c-10.6,0.7-21.3,0.7-31.8,1.9 c-5.7,0.7-11.2,3.5-16.8,5.2c-1.7,0.5-3.5,1-5.2,0.8c-13.5-1.5-27-5-40.3-4.3c-24.5,1.2-47.9,6.9-65,26.9c-3.4,4-13,4.1-18.7,0.5 c-14.8-9.4-30.8-14.6-48.4-14c-19,0.6-35.7,7.3-50.5,19.2c-2.4,1.9-4.5,4.5-7.2,5.5c-1.8,0.7-5.8-0.3-6.6-1.8 c-8.9-15.8-10.7-16.8-28.8-13.7c-11.9,2-23.8,3.7-35.6,6.2c-4.9,1.1-9.3,4-16.1,7c-2.8-0.3-8.5-1-15.1-1.8c0-2.1-0.8-5,0.1-6.9 c3.9-7.6,0.2-12-5.7-15.7c-16-10.2-32.5-19.8-48-30.7c-16.5-11.6-32.5-23.9-47.8-37.1c-4.8-4.2-7.1-11.8-9.5-18.2 c-2.8-7.4-6-15.1-6.6-22.9c-1.5-19.8,9.2-31.8,33.3-25.5c17,4.4,33.2,12.1,49.8,18.3c6.9,2.6,13.7,5.1,20.6,7.5c5.5,1.9,9,0,9.7-5.9 c0.5-4.3,0.9-8.6,0.9-12.9c0-16,0-32.1-0.3-48.1c-0.4-22.6,6.6-43.7,13.3-64.8C264,359,264.4,357.6,265.5,354.2z M434.1,483.1 c1.7,4.9,2.8,10.1,5.1,14.6c9.2,17.9,24.3,29.2,43.1,35.3c17.9,5.9,35.3,5.3,50.3-8.1c3.7-3.3,6.6-7.6,10.4-10.8 c9.6-8,14.9-18.9,19.8-29.8c1.5-3.4,0.7-9.1-1.3-12.2c-1.3-1.9-7-1.5-10.6-1.1c-3.2,0.3-6.1,2.3-9.3,2.9 c-14.3,2.8-28.7,7.9-42.9,7.3c-16-0.7-31.8-6.3-47.6-10.2C438.5,468,435.4,470,434.1,483.1z"></path> <path style="fill:#FFFFFF;" d="M650,199.7c14.7,10.5,27.4,22.9,37.8,37.6c10.2,14.4,20.2,28.8,29.4,44.9 c-10.9-2.6-21.7-6.2-32.8-7.6c-13.9-1.7-28-1.8-42-2.3c-8.6-0.3-17.2,0.8-25.7,0.1c-24.7-1.9-46.8,6.7-68.5,16.6 c-16.3,7.4-32.3,16.6-50.8,13.9c-12.5-1.8-25-5.6-36.7-10.4c-24.7-10.2-50.1-16-76.6-18.5c-30.1-2.9-59.6,0-89.2,4.7 c-0.6,0.1-1.4-0.2-2-0.3c7.1-11.4,13.7-22.9,21.1-33.9c27.7-40.7,63.7-71.2,110.1-89c27-10.4,54.6-17.1,83.3-20.3 c16-1.7,31.2-6.7,44.8-15.5c9.2-6,13.5-5.6,20.5,2.8c2.4,2.9,4.5,6.1,6.8,9.2c18.3-3.7,36.4-7.4,51.6-18.8c3.7-2.8,6.6-2.3,10.1,0.6 c25,21.3,35.1,55.9,9.3,85.1C650.3,199.1,650.1,199.6,650,199.7z"></path> <path style="fill:#FFFFFF;" d="M705.3,331.7c2.9,2.2,4.7,2.8,4.9,3.8c3.8,19.9,6.3,39.8-1.6,59.5c-1.8,4.3-2.3,9.2-3.8,13.7 c-7.6,24.4-25.6,37.7-49.5,42.4c-26.2,5.1-51.5,3-75.4-11.6c-16.7-10.2-27.4-24.3-36-41.3c-3.7-7.3-7-14.1-6.8-22.3 c0.1-3.7,0.4-7.4,0.7-11c0.7-9.2,0.5-18.6,2.5-27.5c5.4-24.3,22.6-36.9,45.7-41.3c13.6-2.6,27.8-3.1,41.7-3.1 c13,0,26.3,0.5,38.8,3.4C686.5,300.9,700.7,313.4,705.3,331.7z M578.7,309.7c-4.8,3.8-9.2,5.9-11.4,9.4c-1.6,2.8-0.7,7.3-0.1,11 c0.2,1,3.2,1.9,5,2.1c3.7,0.3,8.7-1.3,10.9,0.6c2.6,2.3,2.9,7.3,4.1,10.8c5.9-0.6,12.8-1.4,19.4-2.1c1.7-7.5-0.9-14-6.8-19.4 c-10.3,8.7-11.4,8.7-21.1,0.8C578.7,318.7,578.7,315.1,578.7,309.7z"></path> <path style="fill:#FFFFFF;" d="M365.9,453.9c-14.6,4-28.7-2.6-41.2-10.3c-10.3-6.4-19.3-16.1-26.6-26c-3.4-4.6-7.3-10.9-7.5-17.5 c-0.3-13.7-0.4-27.5,0.2-41.2c0.3-6.7,1.9-13.5,3.4-20.1c6.1-26.9,30.8-44.1,60-46.1c13-0.9,26.3-1.3,39.2,0.2 c12.5,1.5,25.2,4.6,37,8.9c23.2,8.5,32.2,27,34,50.9c2.8,35.8-15.6,60.8-40,83C408.4,450.3,388.7,455.5,365.9,453.9z M344.1,304.3 c-0.8-1.3-1.7-2.7-2.5-4c-3.4,0.9-7.5,1-9.9,3c-4.6,3.8-8.9,8.4-12.1,13.5c-1.6,2.5-0.4,6.7-0.5,10.2c3.5-0.4,8.4,0.4,10.1-1.5 C334.9,319,339.3,311.4,344.1,304.3z M340.1,347.5c5.3-2.4,9.2-8.3,14.7-2.2c0.1,0.1,2.9-1.5,2.8-2.2c-0.6-4.5-1.6-8.8-2.3-12.4 c-3.1,1.1-6.3,2.1-10.6,3.6C343.6,337.4,342.1,341.8,340.1,347.5z"></path> <path style="fill:#FFFFFF;" d="M205.8,640c19.1,0,37.6,0,56.7,0c1,14.1,2,28.7,3.1,44.2c7.9-0.9,15-1.8,22.7-2.7 c-1.4-16-2.7-31.6-4.2-48.4c16.2-2.6,32.4-5.2,49.6-8c6.2,46.4,12.4,92.2,18.7,139.3c-19,0-37.2,0-56.7,0c-1.5-15.8-3-32.6-4.6-49.7 c-7.9,0.7-15.4,1.3-23.5,2c1.1,18.5,2.1,36.3,3.2,54.8c-16.7,2.6-32.6,5.1-49.5,7.7C216.2,732.7,211,686.9,205.8,640z"></path> <path style="fill:#FFFFFF;" d="M415.9,757.2c-37.3,0-67.6-31.4-67.5-70c0.1-39,29.9-69.5,67.8-69.5c37.1,0,67.4,31.5,67.6,70.2 C484,726.5,454,757.2,415.9,757.2z M426,672.4c-0.1-11.4-7.9-20.3-17.6-20c-10.4,0.3-18.8,10.7-18.6,23c0.1,11.3,8.1,20.4,17.6,20.2 C417.4,695.3,426.1,684.6,426,672.4z"></path> <path style="fill:#FFFFFF;" d="M506.8,688.8c17.9,4.3,34.4,12.9,52.8,12c0.4-1,0.8-1.9,1.1-2.9c-3.5-1.6-6.9-3.8-10.6-4.8 c-10.8-2.8-21.7-5-32.6-7.8c-4.4-1.1-8.7-2.8-12.8-4.7c-23.6-11.2-28.3-38.7-10-57.5c11.6-11.9,26.7-16,42.5-18.3 c18.1-2.6,47.2,1.7,59.8,9.5c-4.5,14.6-9,29.3-13.6,44.3c-8.6-3.6-16.5-7.6-24.7-10.3c-5.7-1.8-11.9-2.3-17.9-2.5 c-1.7-0.1-3.6,2.8-5.4,4.2c1.4,1.5,2.6,3.9,4.4,4.4c12.2,3.3,24.7,5.7,36.9,9.3c8.7,2.6,17.6,5.5,25.4,9.9c15.6,9,20.4,26.8,11,42.2 c-4.3,7.1-10.6,14.2-17.8,18.2c-31.9,17.5-64.8,19.1-97.4,1.3c-9.6-5.3-9.4-5.7-4.9-15.8C497.6,709.3,502.2,699.1,506.8,688.8z"></path> <path style="fill:#FFFFFF;" d="M208.8,779.8c-9.5,0.6-17.9,1.4-26.2,1.4c-3,0-6-2.1-8.8-4.3c-18.5,10.2-38.3,12.3-58.9,4.7 c-16.8-6.2-28.7-18-36.5-33.9c-16.6-33.9-4.2-75.8,27.3-93.2c30.2-16.6,69.3-7.9,86.3,19.9c-11.1,7-22.2,14.2-33.5,20.9 c-1.3,0.8-4.3-0.1-5.9-1.2c-17.4-11.2-34.9-3.2-36.7,17.4c-0.5,6.1,0.2,12.9,2.4,18.6c6.3,16.5,22.1,18,33.5,3 c-6.7,0.8-12.8,1.6-19.5,2.5c-1.4-8.5-2.8-16.7-4.2-25.4c25.9-2.3,50.9-4.5,77.1-6.8C206.4,729,207.6,754,208.8,779.8z"></path> <path style="fill:#FFFFFF;" d="M723.2,638.3c-12.1,1.5-22.6,2.8-34.3,4.2c3.2,30.9,6.4,61.5,9.6,92.5c-18.1,0-35.5,0-54.1,0 c-1.9-28.9-3.8-57.1-5.7-86.4c-11.7,1.2-22.8,2.4-34.7,3.6c-0.8-16.6-1.7-32.5-2.5-49.4c38.6-2.5,76.8-4.9,115.9-7.5 C719.4,609.7,721.3,623.7,723.2,638.3z"></path> </svg> 