<?xml version="1.0" encoding="UTF-8"?> <svg xmlns="http://www.w3.org/2000/svg" xmlns:xlink="http://www.w3.org/1999/xlink" version="1.1" id="Layer_1" x="0px" y="0px" viewBox="0 0 1000 1000" style="enable-background:new 0 0 1000 1000;" xml:space="preserve"> <path style="fill:#FFFFFF;" d="M609.2,661.1c0.8-0.4,1.3-0.6,1.9-0.9c0.6,2.5,1.2,4.9,1.8,7.3c0.1,0.3-0.1,0.7-0.3,1 c-4.4,4.4-9.5,7.3-16.1,6.2c-4.3-0.8-6.4-4.1-5-8.2c2.1-6.2,4.4-12.3,6.6-18.4c1.6-4.3,3.2-8.7,4.7-13c1.2-3.7,3.6-5.9,7.6-6.5 c-3.9-3.8-3.2-7.8-0.7-12.1c-2.9,0-5.6,0-8.5,0c-7.2,21.9-16.5,43-26.2,64.3c2.4-0.3,4.5-0.5,6.6-0.8c9.2-1,18.4-1.1,27.5,1.3 c3.5,0.9,6.9,2.1,10,4c1.9,1.1,3.6,2.3,4.9,4.1c0.5,0.7,1,1.5,1.3,2.4c1,3-1.1,5.6-4.2,5.2c-1.7-0.2-3.3-0.7-4.9-1.1 c-5.4-1.4-10.8-2.6-16.4-3.1c-5.3-0.5-10.6-0.6-15.8-0.1c-4.6,0.4-9.1,1.3-13.7,2c-1,0.1-1.6,0.6-2.2,1.3c-2.5,3-5.4,5.6-8.8,7.6 c-3.4,2-7,3.2-11,2.7c-0.4,0-0.8-0.1-1.2-0.2c-4.6-1.2-6.5-4.7-5.2-9.2c0.9-3.2,3-5.7,5.5-7.8c3.1-2.5,6.6-4.1,10.4-5.1 c1.1-0.3,1.8-0.8,2.3-1.9c8-17.7,15.2-35.7,20.8-54.3c1-3.2,1.9-6.4,2.8-9.7c0.1-0.4,0.1-0.8,0.2-1.3c-0.5,0-1-0.1-1.5-0.1 c-26.2,0-52.3,0.1-78.5,0.1c-1.6,0-2.5,0.5-3.2,1.9c-6,10.9-12,21.8-18,32.7c-10.3,18.4-20.6,36.9-30.9,55.3 c-0.5,0.9-1.2,1.8-2.1,2.4c-16.1,12.5-32.2,25-48.3,37.5c-0.6,0.4-1.1,0.9-1.8,1.4c-0.3-0.4-0.7-0.7-0.9-1.1 c-7.6-11-15.2-22-22.8-33c-9.9-14.3-19.9-28.7-29.8-43c-1.3-1.9-3.3-3-5.3-4.2c-1.1-0.7-2.3-0.8-3.6-0.8c-11.3-0.3-22.5-0.7-33.8-1 c-4.9-0.1-9.7-0.3-14.7-0.4c-0.3-0.5-0.7-0.9-1-1.4c-9.9-14.8-19.9-29.7-29.8-44.6c-0.7-1.1-1.5-1.6-2.9-1.6c-2.3,0.1-4.7,0-7,0 c-8.8-0.1-15.4-5.8-16.9-14.4c-0.1-0.7-0.1-1.4-0.2-2.1c0-7-0.1-13.9-0.1-20.9c0-0.9,0-1.8-1-2.5c-1.1,2.3-1.2,5-2.5,7.5 c-0.9-0.8-1.6-1.4-2.5-2.1c-1.1,2.9-1.4,5.8-2.3,8.5c-0.6,0-1.1,0.1-1.6,0.1c-7.4,0-14.9,0-22.3,0c-1.2,0-2-0.3-2.8-1.2 c-1.6-1.7-3.4-3.4-5.1-5.1c-0.7-0.7-1-1.2-0.6-2.2c0.7-1.9,1.4-3.9,2-5.9c0.5-1.5,0.9-3.1,1.3-4.7c0.1-0.5,0.3-1,0.7-1.4 c0.3,1.4-0.3,2.6-0.5,3.8c-0.2,1.3-0.6,2.6-0.9,3.8c-0.3,1.3-0.7,2.6-1.1,4.1c7.5,0,14.9,0,22.4,0c0.5-1.8,0.9-3.6,1.4-5.3 c0.7-2.7,1.3-5.3,1.9-8c0.2-1.1,0.7-2,1.6-2.7c0.1,0.3,0.1,0.5,0.2,0.8c0.1-0.1,0.2-0.1,0.2-0.2c0.3-1.2,0.6-2.4,0.8-3.6 c0.7-6.1,2.5-12,3.8-18c0.1-0.3,0.3-0.8,0.2-1c-0.9-2.3,0.7-4.2,1.1-6.5c0.6,1.2,1.7,2.4,1.8,3.6c0.1,2.1,1.2,3.5,2,5.2 c0.9,1.8,1.8,3.5,2.7,5.3c1.4,2.7,3,5.4,4.1,8.2c2.3,6.2,5.8,11.8,8.8,17.6c0.3,0.5,0.6,1,1.2,1.3c-1.4-2.7-2.8-5.5-4.3-8.5 c1.2,0.3,1.4,1,1.7,1.6c1.2,2.1,2.3,4.2,3.6,6.2c1.5,2.3,3.5,4.1,6.3,4.8c5,1.3,9.3,0,12.6-4.5c1.4-2,2.5-4.2,3.7-6.3 c0.9-1.6,1.8-3.2,3-4.7c-0.4,1.1-0.9,2.2-1.3,3.3c0.1,0.1,0.2,0.1,0.3,0.2c0.5-0.8,1.2-1.6,1.6-2.5c1.1-2.2,2.5-4.3,3.2-6.6 c1.1-3.4,3.1-6.4,4.6-9.6c1-2.1,2.1-4.2,3.2-6.2c0.2-0.4,0.7-0.8,0-1.2c-0.1,0-0.1-0.3,0-0.4c1.1-2.2,2.3-4.4,3.8-6.6 c0.3,1.2,1,2.5,0.8,3.5c-0.6,2.7,0.7,5,1.1,7.5c0.5,2.5,1.2,5,1.7,7.5c0.6,2.9,1,5.8,1.6,8.7c1,4.7,2.2,9.3,3.3,14 c0.1,0.3,0.2,0.5,0.6,0.7c-0.6-3-1.3-6.1-1.9-9.1c0.1,0,0.3-0.1,0.4-0.1c0.2,0.4,0.4,0.7,0.5,1.1c0.9,3.5,1.8,7.1,2.7,10.7 c7.5,0,14.9,0,22.5,0c-0.3-1.2-0.5-2.3-0.8-3.5c-0.6-2.3-1.2-4.5-1.7-6.8c-0.1-0.6-0.7-1.2,0.2-1.7c0.1-0.1,0-0.8-0.1-1.2 c-1.7-6.8-3.5-13.7-5.2-20.5c-0.4-1.4-0.6-2.8-1.1-4.2c-0.3-0.9-0.2-2.1-1.4-2.6c-0.2-0.1-0.2-0.5-0.3-0.8 c-1.8-6.9-3.5-13.8-5.3-20.7c-0.1-0.3,0-0.6,0.2-1c1.4,2.9,1.9,6,2.7,8.9c0.9,3,1.6,6,2.6,8.9c-0.1-0.7-0.2-1.3-0.4-2 c-2.1-8.3-4.2-16.6-6.4-24.8c-0.8-2.9-1.9-5.6-2.9-8.4c-0.3-0.8-0.6-1.7-1.7-1.9c-0.3-0.1-0.6-0.6-0.9-0.9c-3.5-4.1-11-4.2-15-0.5 c-0.7,0.6-1.2,1.4-2.3,1.6c-0.4,0.1-0.7,0.7-1,1.2c-1,1.7-1.8,3.4-2.8,5c-4.3,6.8-7.5,14.3-11.4,21.4c-1.2,2.2-2.3,4.5-3.4,6.7 c-0.2,0.4-0.3,0.8-0.3,1.3c3-5.5,5.9-11.1,8.9-16.6c0,0,0.2,0,0.5,0.1c-0.1,0.3-0.2,0.7-0.4,0.9c-3.4,6.8-6.9,13.6-10.3,20.3 c-0.3,0.6-0.7,1-1.2,1.4c-0.7,0.5-1.1,1.5-1.5,2.4c-0.5,0.8-0.9,1.7-1.5,2.8c-0.7-1.4-1.2-2.6-1.8-3.6c-0.4-0.7-0.6-1.6-1.6-1.8 c-0.3-0.1-0.5-0.6-0.7-1c-2.3-4.5-4.6-8.9-6.9-13.4c-1.1-2.2-2.2-4.4-3.3-6.6c-0.2-0.5-0.4-1-0.6-1.5c0.8-0.2,0.9,0.4,1.1,0.8 c1.9,3.6,3.7,7.2,5.6,10.9c0.4,0.7,0.7,1.4,1.3,2c0-0.3,0-0.5-0.1-0.7c-2.6-5.2-5.3-10.4-7.9-15.5c-1-2-2-4-3.1-5.9 c-1.7-3.1-3.5-6.1-5.3-9.1c-0.4-0.8-0.9-1.5-2-1.6c-0.4,0-0.8-0.6-1.2-1c-4.1-4-10.9-3.6-14-1.5c-0.7,0.5-1.3,1.1-2,1.6 c-0.5,0.4-1.1,0.7-1.5,1.1c-0.3,0.3-0.6,0.6-0.8,0.9c-0.4,0.9-0.9,1.7-1.2,2.6c-1.4,4.7-2.9,9.3-4.2,14.1 c-1.6,5.7-2.9,11.5-4.4,17.2c-0.1,0.4-0.1,0.8,0,1.2c1.7-5.6,3-11.3,4.7-17c0.1,0,0.3,0.1,0.4,0.1c0,0.3,0.1,0.6,0,0.9 c-1.7,6.8-3.5,13.7-5.2,20.5c-0.1,0.2,0,0.6-0.2,0.7c-1.7,1.2-1.5,3.3-2,5c-1.3,4.4-2.4,8.9-3.6,13.3c-0.1,0.2-0.1,0.4-0.2,0.6 c-0.1,0-0.2-0.1-0.4-0.1c0.6-2.5,1.2-5,1.8-7.7c-0.6-0.2-1.1-0.4-1.7-0.6c-9-3.1-18-6.2-27-9.3c-0.9-0.3-1.6-0.8-2.2-1.5 c-6.7-8.2-13.5-16.4-20.1-24.7c-1.7-2.1-3.9-2.8-6.3-2.9c-1.6-0.1-3.2,0.3-4.7,0.7c-0.9,0.2-1.7,0.9-2.3,1.6c-8,9.2-16,18.5-24,27.8 c-2.4,2.8-4.8,5.5-7.2,8.3c-0.3,0.3-0.5,0.7-0.8,1.1c-1.4-1.1-2.5-2-3.6-2.8c-6.5-5.2-13-10.4-19.4-15.7c-1.4-1.2-2.7-1.4-4.4-0.7 c-11.7,4.4-23.3,8.7-35,13.1c-3.4,1.3-6.9,2.5-10.3,3.7c-0.5,0.2-1,0.3-1.5,0.4c-0.4-0.7-0.7-1.2-1-1.8c-1.2,0.4-2.4,0.8-3.6,1.2 c-2.4,0.8-4.7,1.7-7.1,2.5c-0.5,0.2-1,0.4-1.5-0.5c1.2-0.6,2.3-1.2,3.5-1.8c-0.1-0.5,0-1.1-0.2-1.3c-1.2-1-0.9-2.5-1.2-3.8 c-0.3-1.1-0.2-2.3-0.4-3.4c-0.3-1.6-0.3-3.2,0.7-5.1c2.4-1,5.2-2.1,8-3.2c5.3-2,10.5-4.1,15.8-6c1.5-0.5,2.2-1.7,3.3-2.7 c0.6-0.5,1.2-1.2,2-1.5c11.8-4.5,23.6-9,35.5-13.5c2.1,1.7,4.2,3.4,6.3,5.1c1.6,1.3,3.3,2.5,4.7,3.9c2.3,2.2,5,2.1,7.8,1.5 c2.4-0.5,4.2-1.8,5.7-3.7c0.6-0.7,1.5-1.1,2.2-1.6c0.1,0.2,0.2,0.8,0.5,1.7c10.6-12.3,21-24.4,31.6-36.6c1.7,2,3.3,3.9,4.9,5.8 c10.9,13,21.8,25.9,32.7,38.9c0.9,1.1,2,1.8,3.3,2.2c2.1,0.6,4.2,1.4,6.3,2.2c0.4-1.3,0.3-1.6-0.7-2c-0.5-0.2-1-0.5-1.5-0.6 c-2.6-0.5-4.2-2.2-5.8-4.1c-12.8-15.1-25.6-30.1-38.4-45.1c-0.2-0.2-0.4-0.4-0.7-0.8c-7.2,8.4-14.3,16.7-21.5,25.1 c-2.6-2.5-4.2-5.4-4.8-8.8c-0.2-1.1-0.3-2.3-0.3-3.4c0-46.8,0-93.6,0-140.4c0-9,6-15.9,14.9-17.2c1-0.1,2-0.1,3.1-0.1 c157.9,0,315.9,0,473.8,0c26.5,0,52.9,0,79.4,0c7,0,13.4,4.5,15.8,11.1c0.6,1.5,0.5,2.8-0.4,4.2c-2.9,4.6-5.6,9.3-8.4,14 c-0.2,0.4-0.4,0.9-0.7,1.4c0.3,0.6,0.7,1.1,1.1,1.9c0.5-0.8,0.9-1.3,1.3-1.9c11.4-18.9,22.7-37.8,34-56.7c0.8-1.4,1.9-2.5,3.2-3.6 c9.6-8.2,19.3-16.3,28.9-24.5c7-5.9,13.9-11.9,20.9-17.8c0.3-0.3,0.6-0.5,1.2-1c3.8,16.5,7.5,32.8,11.2,49 c3.7,16.2,7.4,32.5,11.2,49c8.9-4.5,17.5-8.9,26.5-13.5c0.3,0.4,0.5,0.9,0.9,1.3c10.2,12.4,20.4,24.8,30.5,37.2 c3.5,4.2,6.9,8.4,10.4,12.6c0.7,0.8,0.9,1.7,0.7,2.8c-1.2-0.7-2-1.9-2.8-2.9c-13.2-16.1-26.5-32.2-39.7-48.3 c-0.2-0.2-0.3-0.4-0.5-0.7c-9,4.6-17.9,9-27,13.6c-7.4-32.5-14.8-64.9-22.2-97.3c-0.4,0.2-0.8,0.4-1.1,0.6c-6.5,5.5-13,11-19.4,16.5 c-4.6,4-9.3,8-13.9,11.9c-5,4.3-10,8.6-15,12.8c-1,0.9-1.9,1.8-2.6,3c-5.6,9.5-11.2,19-16.9,28.4c-0.4,0.7-0.7,1.3-0.2,2.1 c1.9,3.4,3.7,6.9,5.5,10.3c0.1,0.1,0.2,0.3,0.5,0.6c0.7-1.1,1.3-2,1.9-3c6.3-10.4,12.6-20.8,18.9-31.2c0.3-0.5,0.7-1,1.1-1.4 c1.8-1.5,3.6-2.9,5.6-4.5c0.2,0.5,0.3,0.8,0.5,1.4c0.6-0.5,1.1-0.9,1.7-1.3c4.3-3.5,8.5-6.9,12.8-10.4c0.7-0.5,1.3-1,1.2-2 c0-0.4,0.3-0.9,0.6-1.2c3.7-3.1,7.5-6.1,11.3-9.2c0.1-0.1,0.2-0.1,0.6-0.2c7,30.5,13.9,61,21,91.8c10.8-5.4,21.4-10.8,32.1-16.3 c0.8,1,1.7,1.9,2.4,2.9c11.9,14.5,23.8,28.9,35.7,43.4c0.7,0.9,1.3,1.9,1.6,2.9c2.1,6.2,4.2,12.5,6.2,18.8c0.4,1.3,0.3,2.7,0.4,4.1 c0.1,0.9,0.1,1.8,0.4,2.6c3.3,10,6.6,20,10,29.9c0.1,0.4,0.3,0.8,0.7,1.2c0-0.7,0.1-1.4,0.1-2c0.1,0,0.2,0,0.3-0.1 c3.6,10.8,7.3,21.6,11,32.6c9.6-0.5,19.2-1.1,29.2-1.6c-0.5-1-0.8-1.7-1.2-2.4c-1.5-2.9-3.1-5.8-4.6-8.7c-0.8-1.6-0.9-1.5-2.7-1.5 c-3.9,0.2-7.9,0.4-11.9,0.6c-0.2-0.5-0.4-1-0.6-1.5c-3.1-9.1-6.2-18.1-9.2-27.2c-3.2-9.6-6.5-19.2-9.7-28.7c-0.6-1.6-0.6-3.2-0.1-5 c6.9,20.3,13.8,40.5,20.7,60.8c2.6-0.1,5.1-0.2,7.6-0.3c2.7-0.1,5.5-0.4,8.2-0.4c1.2,0,2-0.4,2.9-1.1c15-11.3,30.1-22.6,45.1-34 c2.5-1.9,5-3.7,7.5-5.6c0.5-0.4,0.9-0.8,1.5-0.2c0.1,0.1,0.3,0.1,0.3,0.1c1.4-0.8,2.1,0.4,2.9,1.1c1.5,1.4,3.1,2.7,3.8,4.7 c0.5,1.5,0.9,3.1,1.4,4.6c0.3,0.9-0.2,1.5-0.9,2.1c-5,3.9-10,7.8-15,11.7c-1.1,0.9-1.9,1.7-2,3.4c0,0.8-1,1.8-1.8,2.5 c-3.6,2.9-7.3,5.7-10.9,8.5c-8.4,6.5-16.8,12.9-25.2,19.4c-1.6,1.3-3.3,1.9-5.4,1.9c-5.3,0.1-10.7,0.4-16,0.6 c-4.2,0.2-8.4,0.3-12.6,0.4c-0.6,0-1.2,0.1-2,0.1c0,0.9,0,1.6,0,2.4c0,32,0,64,0,95.9c0,7.2-4,13.2-10.6,15.9 c-2.2,0.9-4.5,1.2-6.9,1.2c-15.5,0-31-0.3-46.5,0.1c-19.1,0.5-38.3,0.2-57.4,0.3c-19.2,0.1-38.4,0-57.6,0c-19.1,0-38.3,0-57.4,0 c-0.8,0-1.6,0-2.5,0c-0.1-0.9-0.1-1.8-0.2-2.8c-11.4,0-22.8,0-34.2,0c0.9,2.1,1.1,2.2,3.2,2.2c0.8,0,1.6,0,2.3,0.1c-1.3,0-2.6,0-4,0 c1.2,7.1-1,10.9-7.9,13.3c0.7,0.6,1.4,0.9,1.8,1.5c1.7,2.1,1.9,4.4,1,6.9c-2.5,7-5,14-7.5,20.9C609.7,659.5,609.5,660.1,609.2,661.1 z M362.3,535.3c0.4-0.5,0.8-0.9,1.1-1.4c2.9-4.7,5.7-9.4,8.6-14.1c0.2-0.4,0.3-1,1.2-1c-0.1,0.4-0.2,0.7-0.3,0.9 c-4.2,6.9-8.3,13.9-12.5,20.8c-0.2,0.3-0.5,0.6-0.8,0.9c-0.4,0.4-1,0.7-1.3,1.2c-4.2,6.5-7.9,13.3-12.5,19.7 c-3.5,4.9-6.3,10.3-9.4,15.5c-0.2,0.3-0.2,0.6-0.4,0.9c0.9-0.9,1.5-1.8,2.2-2.8c0.7-1.1,1.3-2.2,2-3.2c0.7-0.9,0.9-2.2,2.1-2.6 c-1.9,4-4.5,7.6-6.5,11.7c8.8,0,17.3,0,25.9,0c3.1-5,5.9-10.1,9.3-14.9c-0.2,0.6-0.4,1.1-0.6,1.7c0.1,0,0.2,0.1,0.2,0.1 c1-1.3,1.9-2.6,2.9-3.9c0.2,0,0.5-0.1,0.8-0.1c12.6,0,25.2,0,37.8,0c1,0,1.5,0.3,2,1.2c2.2,3.9,4.5,7.8,6.8,11.6 c0.4,0.7,0.8,1.3,1.2,2c0.1-0.1,0.2-0.1,0.3-0.2c-1.7-3-3.4-6.1-5.1-9.1c0.2-0.1,0.3-0.2,0.5-0.3c2.5,3.9,4.8,8,7.2,11.8 c9.1,0,18.1,0,27.3,0c-0.9-1.5-1.6-2.7-2.4-4c-0.8-1.3-1.6-2.5-2.3-3.9c-0.7-1.2-1.6-2.3-2-3.7c0.1-0.1,0.3-0.2,0.4-0.2 c2,3.1,3.9,6.2,5.9,9.3c0.1-0.1,0.2-0.1,0.3-0.2c-0.3-0.6-0.5-1.1-0.8-1.7c0.3-0.3,0.5-0.5,0.8-0.8c-1.2-2.1-2.5-4-3.7-6 c-0.6-0.9-0.9-2.1-2.4-2.1c-0.2,0-0.4-0.4-0.6-0.6c-2-3.3-4.3-6.4-6.4-9.7c-3.4-5-6.3-10.3-9.5-15.5c-0.2-0.4-0.4-0.9-0.7-1 c-1.1-0.2-1.4-1.1-1.8-1.8c-3.5-5.7-7-11.5-10.4-17.2c-0.7-1.2-1.4-2.4-2-3.6c0.2-0.1,0.3-0.2,0.5-0.3c1.9,2.7,3.5,5.6,5.2,8.4 c1.7,2.8,3.4,5.6,5.2,8.5c0.1-0.1,0.2-0.1,0.4-0.2c-0.4-0.6-0.7-1.3-1.1-1.9c-5.6-9.3-10.9-18.8-17.2-27.7c-0.9-1.3-1.6-2.7-2.5-4 c-0.5-0.7-1-1.6-1.6-1.8c-0.8-0.3-1.5-0.8-2-1.3c-3.7-3.8-10.5-4-14.6-0.5c-0.6,0.5-1.2,1.3-1.9,1.5c-0.8,0.3-1.3,0.8-1.7,1.4 c-2.2,3.3-4.5,6.6-6.7,9.9c-1.2,1.9-2.4,3.9-3.6,5.8c-3.4,5.6-6.7,11.2-10.1,16.8C362.7,534.1,362.6,534.7,362.3,535.3 c-0.8,0.3-0.7,1-0.9,1.6c0.3-0.2,0.4-0.4,0.6-0.6C362.1,535.9,362.2,535.6,362.3,535.3z M234.3,433.2c0.1,0,0.2,0.1,0.2,0.1 c0.3-0.4,0.8-0.7,1-1.2c1.2-2.4,1.9-5.1,2-7.8c0.1-2.1-0.1-4.3-0.2-6.4c-0.1-3.6-0.7-7-2-10.3c-0.4-0.9-0.5-2-1.8-2.3 c-0.3-0.1-0.5-0.6-0.8-1c-2.4-3.7-5.7-6.2-9.8-7.9c-4.2-1.7-8.5-2.4-13-2.5c-6.4-0.1-12.8,0-19.3,0c-6.5,0-13.1,0-19.6,0 c-3.7,0-5.4-1.3-5.7-4.8c-0.3-3,1.2-5.3,4.1-5.5c0.8-0.1,1.6-0.1,2.3-0.1c19.4,0,38.8,0,58.2,0c0.7,0,1.4,0,2.1,0 c0.1-0.5,0.2-0.8,0.3-1.2c0.2,0.6,0.4,1.1,0.7,2c-0.9,0-1.6,0-2.3,0c-19.5,0-39,0-58.5,0c-0.9,0-1.8,0-2.7,0.2 c-2.2,0.3-3.3,1.6-3.3,3.9c-0.1,2.6,0.9,4.1,3.1,4.5c0.7,0.1,1.4,0.1,2.1,0.1c12,0,24,0,36,0c1.7,0,3.5,0.1,5.2,0.2 c6,0.5,11.7,2,16.5,5.8c0.1,0.1,0.3,0,0.6,0c-1.7-1.5-3.5-2.6-5.4-3.5c-4.7-2.1-9.7-3-14.9-3c-12.7-0.1-25.4,0-38.2,0 c-0.7,0-1.4-0.1-2.1-0.2c-1.3-0.2-2.1-1-2.3-2.2c-0.1-0.9-0.2-1.9,0-2.8c0.3-1.4,1.1-2.2,2.6-2.3c0.7-0.1,1.3,0,2,0 c19.9,0,39.9,0,59.8,0c0.7,0,1.5-0.1,2.2-0.1c0.2-6.7-0.1-13.1-0.7-19.7c-0.3,0.3-0.4,0.4-0.7,0.8c0-2,0-3.6,0-5.3 c-0.7,0-1.3,0-1.9,0c-20,0-40,0-60,0c-2,0-3.9,0.3-5.9,0.5c-4.6,0.3-8.5,2.8-12.8,3.9c-0.2,0-0.3,0.2-0.5,0.3 c-3.8,2.5-6.6,5.9-8.6,9.9c-2.4,4.7-2.5,9.8-2,14.9c0.2,2.3,0.8,4.6,2,6.6c0-0.3,0-0.6-0.1-0.8c-1.1-3.4-1.7-7-1.6-10.6 c0-0.7,0-1.5,1-2.2c0,1.8,0,3.2,0,4.7c0.2,6.7,2.7,12.3,7.7,16.8c0.2,0.2,0.6,0.8,0.5,0.8c-0.6,0.5,0,0.7,0.3,0.9 c0.4,0.3,0.9,0.7,1.3,1c5.2,3.4,11,4.9,17.2,5c12.7,0.1,25.3,0,38,0c1.6,0,3.1,0.1,4.5,0.8c1.8,0.9,2.7,2.6,2.6,4.7 c-0.2,2.1-1.2,3.4-3.3,4c-1,0.3-2,0.4-3,0.4c-21.1,0-42.1,0-63.2,0c-0.7,0-1.4,0-2.2,0c-0.2,1.8-0.5,3.5-0.6,5.1c-0.1,1.7,0,3.4,0,5 c0,1.7,0,3.5,0,5.2c0.1,1.6-0.3,3.3,0.4,4.8c0.2-1,0.2-2,0.2-2.9c0-1.1,0-2.2,0.1-3.2c0.1-0.9-0.3-1.9,0.5-2.8 c0.3,4.1,0.2,8.3,0.3,12.6c0.8,0,1.5,0.1,2.1,0.1c20.8,0,41.5,0,62.3,0c3,0,6.1-0.4,9.1-1c8.2-1.8,14.4-6.2,17.9-14.1 c0.1-0.3,0.3-0.5,0.5-0.8c0.1,0,0.1,0.1,0.2,0.1C234.9,431.3,234.6,432.3,234.3,433.2z M365.7,442.5c0-0.1,0.1-0.2,0.1-0.4 c-4.1-2.3-7.9-5-11.1-8.7c1.1-0.3,1.3,0.4,1.7,0.7c3.4,3.2,7.2,5.9,11.5,7.9c6.1,2.8,12.5,4.1,19.2,4.1c6.7,0.1,13.4,0,20.2,0 c1.8,0,3.6-0.1,5.4-0.3c6.2-0.6,12-2.4,17.4-5.4c3.9-2.2,7.3-4.9,10.3-8.3c0.6-0.7,1.2-1.3,1.9-2c0.1,0.1,0.2,0.2,0.3,0.3 c-1,1.3-2,2.6-3,3.9c1.3-0.6,2.5-1.1,3.2-2.6c0.5-1.3,1.7-2.5,2.6-3.7c1.6-2.1,2.1-4.8,3.1-7.2c1.5-3.5,2.4-7.1,3-10.9 c0.1-0.9,0.1-1.8,0.4-2.6c0.3-0.9-0.7-1-0.7-1.7c0-1.3,0-2.5,0-3.8c0-5.9-1.2-11.5-3.4-17c-0.2-0.5-0.3-1-0.5-1.4 c0.2-0.1,0.4-0.1,0.6-0.2c2.8,5.6,4,11.6,4.4,17.9c0.1-0.6,0-1.3,0-1.9c0.1-3.1-0.4-6.1-1.3-9c-2-7.1-5-13.7-11.1-18.4 c-1.6-1.2-2.9-2.7-4.6-3.8c-2.2-1.5-4.4-3.4-7.4-3.4c-0.3,0-0.6-0.2-0.8-0.3c-5.8-2.5-11.9-3.6-18.2-3.7c-8.5-0.1-16.9,0-25.4,0.2 c-4.8,0.1-9.5,1.2-14,2.8c-1.4,0.5-2.7,1.3-4.3,1.2c-0.4,0-0.8,0.3-1.2,0.5c-1.2,0.7-2.4,1.3-3.6,2.1c-3.6,2.4-6.9,5.1-9.6,8.5 c-4.3,5.4-6.8,11.7-7.9,18.5c-0.1,0.7-0.2,1.4-0.3,2.1c-0.1,0.8-0.2,1.5-0.2,2.3c0,0.6,0.1,1.3,0.1,1.9c1-8.8,2.8-15.4,4.8-17.4 c0,0.1,0.2,0.2,0.1,0.3c-0.2,0.5-0.3,1-0.5,1.5c-2.2,5.4-3.2,11-3.3,16.8c0,1.3,0.5,2.8-0.6,3.9c-0.1,0.1,0,0.4,0,0.5 c0.5,2.8,0.7,5.6,1.5,8.3c1.1,3.8,2.3,7.7,4.1,11.2c2.7,5.5,7.2,9.7,11.7,13.7c0.3,0.3,0.7,0.5,1.1,0.6c0.9,0.4,1.7,0.8,2.6,1.2 C364.5,441.9,365.1,442.2,365.7,442.5z M546.3,556.7c0.1-0.3,0.1-0.3,0.2-0.4c0.3-0.2,0.6-0.4,0.9-0.5c4.3-2.4,7.6-5.8,10.1-10 c0.3-0.5,0.8-1.3,0.6-1.6c-0.4-0.8,0-1.3,0.2-1.8c1.6-4.2,2.4-8.5,2.4-13c0-3.1-0.3-6.2-0.9-9.3c-0.1-0.4,0-0.8,0-1.3 c0.1,0,0.3,0,0.4,0c1.1,2.8,1.3,5.8,1.3,8.8c0,3-0.2,6-0.4,9.4c0.2-0.6,0.3-1,0.4-1.3c0.6-3.6,0.9-7.2,0.5-10.9 c-0.8-6.5-2.2-12.7-7-17.6c-1.1-1.1-2-2.3-3.1-3.2c-2.4-2.1-4.8-4.4-8.3-4.5c-0.3,0-0.5-0.2-0.8-0.3c-4.5-1.7-9.2-2.6-14.1-2.6 c-6.5,0-13,0-19.4,0c-13.8,0-27.6,0-41.4,0c-0.7,0-1.4,0-2.1,0.1c0,1.5-0.5,2.6-0.6,3.8c-0.5,3-0.6,6.2-0.7,9.2 c-0.1,6.5-0.1,12.9-0.1,19.4c0,2.5,0.1,4.9,0.2,7.4c0.3-3,0.2-6,0.3-9c0.1-2.9,0.2-5.8,0.4-8.7c0.1,0,0.3,0,0.4,0 c0.1,0.3,0.2,0.5,0.2,0.8c0,6.9,0,13.8,0,20.7c0,0.3-0.1,0.7-0.2,1c-0.1,0.5-0.5,0.9-0.5,1.4c0,6.3-0.2,12.7-0.6,19 c-0.3,5.3-0.1,10.5-0.2,15.8c0,0.4,0.1,0.8,0.1,1.2c0.3-1,0.4-2,0.5-3c0.1-1,0.1-2,0.1-3c0.1-0.9-0.2-1.9,0.4-2.8 c0.4,3.9,0.2,7.8,0.3,11.7c7.5,0,14.8,0,22.3,0c0-6.9,0-13.6,0-20.4c1-0.1,1.8-0.4,2.6-0.4c8.6,0,17.3,0,25.9,0 c0.7,0,1.2,0.2,1.7,0.8c4.9,5.7,9.9,11.4,14.9,17c0.2,0.2,0.5,0.4,0.7,0.6c-1.1-1.7-2.4-3.2-3.6-4.7c-1.2-1.5-2.7-2.9-3.6-4.7 c0.4,0.1,0.7,0.2,0.9,0.5c3.1,3.4,6.2,6.8,9.2,10.3c0.8,0.9,1.5,1.1,2.6,1.1c9.6,0,19.2,0,28.8,0c0.5,0,1,0,1.9,0 c-3.9-4.2-7.9-7.7-11.5-11.9c1.4,0.2,1.8,1.2,2.5,1.7c0.7,0.6,1.3,1.2,2,1.8c0.7,0.7,1.4,1.3,2,2c0.6,0.6,1.3,1.3,1.9,1.9 c0.6,0.6,1.2,1.3,2.1,1.6c-2.4-2.6-4.8-5.1-7.3-7.6c-2.5-2.5-5-5.1-7.7-7.6C551.5,561.3,548.9,559,546.3,556.7z M770.7,528.8 c0,1.2,0,2,0,2.9c0,1,0,1.9,0,2.9c0,0.8,0.1,1.6,0.1,2.4c0.1,0,0.2,0,0.3,0c0-2.8,0-5.7,0-8.7c-17.6,0-35,0-52.5,0 c0-2.6,0-4.9,0-7.5c18.6,0,37.1,0,55.8,0c0-1.8,0-3.4,0-5c-0.1-5.1-0.3-10.3-0.5-15.4c0-0.2-0.1-0.4-0.4-0.9 c-0.2,0.9-0.3,1.4-0.4,1.8c-0.1,0-0.2,0-0.3,0c0-1.5,0-3,0-4.5c-26.2,0-52.2,0-78.4,0c0,28.3,0,56.6,0,84.9c26.2,0,52.4,0,78.6,0 c0-0.5,0.1-0.9,0.1-1.3c0.1-6,0.3-12.1,0.4-18.1c0-0.8,0-1.4,1-1.5c-0.2-0.9-0.4-1.8-0.5-2.8c-18.7,0-37.4,0-56.1,0 c0-3.3,0-6.5,0-9.8c5.9,0,11.7,0,17.5,0c5.9,0,11.8,0,17.6,0c5.8,0,11.6,0,17.5,0c0-2.1,0-4,0-5.8c0-0.2,0-0.6-0.2-0.7 c-0.6-0.3-0.5-0.9-0.5-1.4c-0.1-2.9-0.2-5.7-0.2-8.6c0-0.6,0-1.1,0-1.9c-17.7,0-35.1,0-52.7,0c0.1-3.5-0.2-6.8,0.2-10.3 c18.7,0,37.2,0,55.7,0c0.1-0.8,0.1-1.6,0.1-2.5c0.4,1.2,0.6,2.1,1,3.3c-18.9,0-37.5,0-56.1,0c0,2.9,0,5.7,0,8.5 C735.5,528.8,752.9,528.8,770.7,528.8z M556,422.3c-0.6,0-1.3,0-1.9,0c-15.5,0-31,0-46.5,0c-1.3,0-2.6-0.1-3.9-0.4 c-6.6-1.4-11.3-5.1-13.6-11.5c-0.5-1.4-0.8-2.9-1.2-4.5c-0.2,0.3-0.3,0.5-0.4,0.7c-0.4-2.2-0.5-4.3-0.1-6.5c1.2-7,4.8-12,11.3-14.9 c2.9-1.3,6-1.7,9.1-1.7c15,0,30,0,45,0c0.7,0,1.4-0.2,2.1-0.3c0.1,0,0.2-0.2,0.3-0.4c0.2,0.4,0.3,0.7,0.6,1.3 c-0.9,0-1.6,0.1-2.3,0.1c-14.2,0-28.4,0-42.7,0c-1.8,0-3.6,0.1-5.4,0.2c-9.6,0.5-16.8,8.3-17.1,16.6c0.2-0.4,0.3-0.8,0.4-1.1 c0.5-2.6,1.4-5.1,3-7.2c3.7-5.1,8.7-7.6,14.9-7.6c15.8-0.1,31.6,0,47.4,0c0.8,0,1.5-0.1,2.4-0.1c-0.1-1.3-0.1-2.5-0.2-3.6 c-0.1-4.4-0.3-8.7-0.4-13.1c0-0.1,0-0.2,0-0.4c0.1-2.1-1.2-4-0.8-6.2c0.1-0.3-0.1-0.6-0.2-1c-0.7,0-1.3,0-2,0c-11.6,0-23.2,0-34.8,0 c-4.7,0-9.4,0.1-14,0.2c-5.4,0.1-10.6,1.3-15.5,3.4c-0.8,0.3-1.6,0.4-2.4,0.6c-0.4,0.1-0.8,0.1-1.2,0.3c-4.8,2.2-8.7,5.7-12.4,9.3 c-3.9,3.9-6.1,8.8-7.7,14c-1.2,4-1.9,8.1-1.8,12.3c0.4-2,0.6-4,0.9-5.9c0.5-3.7,1.6-7.2,3.1-10.6c0.2-0.4,0.3-0.9,1.1-0.8 c-0.4,1.1-0.8,2.1-1.2,3.2c-1.9,5.4-2.9,11-2.7,16.7c0,0.6,0.1,1.4-0.3,1.9c-0.4,0.6-0.5,1.1-0.4,1.7c0.1,1.1,0.2,2.1,0.4,3.2 c0.6,5.3,2.8,10.1,4.6,15c0.5,1.4,1.5,2.6,2.3,3.9c2.6,4,6.2,7.1,9.5,10.5c0.3,0.3,0.8,0.6,1.2,0.8c1,0.5,1.9,0.9,2.9,1.3 c0.8,0.4,1.6,0.7,2.4,1.1c-0.4-0.6-1-0.9-1.5-1.2c-3.4-2-6.6-4.4-9.3-7.3c-0.2-0.2-0.4-0.6-0.6-1c0.4,0,0.5,0,0.6,0 c0.4,0.3,0.7,0.6,1.1,1c4.1,3.9,8.7,6.9,14,8.9c5.4,2.1,11.1,3,16.9,3c13,0,26,0,39.1,0c2.4,0,4.9-0.2,7.3-0.4 c0.2,0,0.3-0.1,0.6-0.3C556,437.9,556,430.2,556,422.3z M302.1,433.1c0.7-2,0.6-25.9,0.1-27.3c-0.1,0.7-0.2,1.3-0.3,1.9 c0,0-0.1,0-0.1,0c0-8,0-15.9,0-24.1c0.8,0,1.5,0,2.2,0c8.4,0,16.8,0,25.2,0c0.9,0,1.9-0.1,2.9-0.2c0.3,0.3,0.3,0.7-0.3,0.8 c-0.5,0.1-1.1,0.1-1.6,0.1c-8.5,0-16.9,0-25.4,0c-0.7,0-1.4,0-2.3,0c0,2.1,0,4,0,5.8c0,1.9,0,3.8,0,5.8c0,1.8-0.2,3.6,0.1,5.4 c0.2,0,0.3,0,0.5,0c0-5.3,0-10.7,0-16.2c10,0,19.7,0,29.4,0c0.1-0.3,0.2-0.4,0.2-0.5c-0.1-3.9,0.3-7.9-0.3-11.8 c-0.5-2.9,0.3-5.8-0.8-8.7c-0.4-1-0.3-2.1-0.4-3.2c-27.4,0-54.8,0-82.3,0c0,1,0,1.8,0,2.6c0,0.4,0,1-0.2,1.2 c-0.7,0.7-0.6,1.5-0.6,2.3c-0.2,2.4-0.3,4.9-0.4,7.3c-0.1,3-0.2,6.1-0.2,9.1c0,0.5,0.1,0.9,0.1,1.6c5,0,9.9,0,14.8,0 c4.9,0,9.9-0.1,14.9,0.1c0,0.9,0,1.6,0,2.2c0,4.3,0,8.5,0,12.8c0,0.4,0.1,0.8,0.2,1.2c0.1,0,0.2,0,0.3-0.1c0-5.5,0-11.1,0-16.9 c-0.8,0-1.5,0-2.2,0c-8.4,0-16.8,0-25.2,0c-0.5,0-1.1,0-1.6,0c-0.2,0-0.4-0.3-0.8-0.6c10.3,0,20.4,0,30.4,0c0.1,0.3,0.2,0.4,0.2,0.5 c0,6.8,0,13.6,0,20.3c0,0.3-0.2,0.7-0.3,1c-0.2,0.5-0.5,0.9-0.5,1.4c-0.3,6.1,0.2,12.2-0.5,18.4c-0.6,5.4-0.1,11-0.1,16.5 c0,0.3,0.1,0.6,0.2,0.9c0.3-0.6,0.4-1.2,0.4-1.7c0-2.2,0-4.3,0-6.5c0-0.3,0.2-0.7,0.3-1c0.1,0,0.3,0,0.4,0.1c0,4.2,0,8.3,0,12.4 c1.9,0.5,21.6,0.4,23.1-0.1c0-5,0-10.1,0-15.1c0.1,0,0.2,0,0.3,0C302.1,431.5,302.1,432.3,302.1,433.1z M840.8,578.9 c0.2-0.6,0.3-1,0.4-1.2c1.2-1.2,0.9-2.7,0.9-4.1c0-0.8,0.1-1.6,0-2.3c-0.1-1,0.5-2.2-0.8-2.9c-0.1-0.1-0.1-0.3-0.1-0.5 c-0.2-3.1-0.5-6.2-0.6-9.3c-0.1-3.8,0-7.6-0.2-11.3c-0.1-2.1,0.6-4.2-0.6-6.3c-0.5-0.9-0.3-2.2-0.3-3.4c0-5.3,0-10.7,0-16 c0-0.7,0.2-1.5,0.3-2.3c9.9,0,19.6,0,29.3,0c0.1-0.9,0.2-1.6,0.2-2.3c0,0,0.1,0,0.1,0c0.1,1,0.3,1.9,0.5,3.1c-10,0-19.7,0-29.4,0 c0,5.6,0,11,0,16.4c0.1,0,0.3,0,0.4,0c0-5.2,0-10.5,0-15.8c2.7,0,5.2,0,7.6,0c2.5,0,4.9,0,7.4,0c2.5,0,4.9,0,7.4,0 c2.4,0,4.9,0.1,7.5-0.1c-0.3-7-0.6-13.7-0.9-20.4c-0.1,0-0.1,0-0.2,0c-0.1,0.3-0.2,0.7-0.2,1c-0.1,0-0.2,0-0.3,0c0-1.5,0-2.9,0-4.5 c-27.5,0-54.8,0-82.2,0c-0.1,1,0.1,2.1-0.3,2.7c-0.6,0.8-0.5,1.7-0.6,2.5c-0.2,2.4-0.3,4.9-0.4,7.3c-0.1,3.3-0.2,6.7-0.2,10 c0,0.4,0.1,0.8,0.1,1.4c3.4,0,6.6,0,9.9,0c3.3,0,6.6,0,9.9,0c3.3,0,6.5,0,9.9,0c0,5.4,0,10.6,0,15.8c1-5.4,0.5-10.8,0.6-16.4 c-10,0-19.8,0-29.8,0c0.1-0.6,0.1-1,0.1-1.1c0.9,0.1,1.6,0.4,2.4,0.4c8.6,0,17.3,0,25.9,0c0.6,0,1.3,0,1.9,0 c0.1,0.4,0.1,0.7,0.1,0.9c0,6.6,0,13.2,0,19.8c0,0.3,0.1,0.7-0.1,0.9c-1,0.9-0.6,2-0.6,3c0,3.9,0,7.8,0,11.7c0,0.6,0,1.2-0.1,1.8 c-0.2,2.1-0.5,4.3-0.5,6.4c-0.1,4.4,0,8.9,0,13.3c0,0.5,0,0.9,0,1.4c0.4-0.9,0.6-1.7,0.6-2.6c0-1.7,0-3.5,0-5.2 c0-0.3,0.1-0.6,0.2-0.9c0.1,0,0.3,0,0.4,0c0.1,3.9,0,7.8,0.1,11.6c7.7,0,15.2,0,22.7,0c0.1-4.1,0.2-8,0.4-11.9c0.2,0,0.3,0,0.5,0 C840.9,572.6,840.2,575.7,840.8,578.9z M632.4,397.9c0.1,0.1,0.2,0.2,0.3,0.3c1.9-1.8,3.8-3.6,5.8-5.4c6.2-5.8,12.5-11.5,18.7-17.3 c1.8-1.6,3.4-3.5,5.1-5.2c1-1,2-1.9,3-2.8c0.1-2.2,2.2-2.7,3.2-4.1c0.4-0.6,1.2-1,1.7-1.6c0.3-0.3,0.4-0.6,0.8-1.1 c-0.9,0-1.6,0-2.2,0c-9.5,0-19,0-28.4,0c-1.9,0-3.3,0.3-4.5,1.8c-0.7,0.9-1.8,1.6-2.7,2.3c-0.7,0.5-1.5,0.7-2.1,1.2 c-3,2.7-5.9,5.5-9.1,8.1c-3.6,2.9-6.8,6.4-10.2,9.6c-2.9,2.8-5.9,5.4-8.8,8.3c-2.1,2.1-4.1,4.3-4.8,7.2c-0.1,0.5-0.2,1.1-0.2,1.7 c0.7-2.9,2.2-5.3,4.3-7.4c3.1-3.1,6.3-6.1,9.5-9.1c0.4-0.4,0.9-1,1.9-1c-0.6,0.6-0.9,1.1-1.4,1.5c-3.2,3.2-6.4,6.3-9.6,9.4 c-2.7,2.7-4.1,6-3.6,9.9c0,0.3,0.2,0.7,0.1,0.9c-0.9,1.1-0.1,2.1,0.5,2.9c0.8,1.2,1.6,2.4,2.6,3.4c2.6,2.7,5.4,5.2,8.1,7.9 c2.1,2.2,4.1,4.5,6.2,6.7c3.4,3.4,7,6.8,10.5,10.1c0.2,0.2,0.5,0.3,0.7,0.4c0.1-0.1,0.2-0.3,0.3-0.4c-0.6-0.4-1.2-0.8-1.7-1.4 c-0.4-0.4-1.3-0.7-0.9-1.8c0.4,0.3,0.6,0.5,0.9,0.7c3.9,3.7,7.8,7.5,11.6,11.3c0.8,0.8,1.7,1.2,2.9,1.2c10,0,20,0,30.1,0 c0.5,0,1-0.1,2-0.1c-4.6-4.3-8.9-8.4-13.3-12.4c0.1-0.1,0.1-0.2,0.2-0.3c0.4,0.2,0.8,0.4,1.1,0.7c2.5,2.2,4.9,4.4,7.3,6.6 c0.7,0.6,1.4,1.3,2.3,1.7c-5-4.8-10.1-9.5-15.2-14.3c-1.4-1.3-2.8-2.5-4.2-3.7c-1.5-1.2-3-2.3-4.4-3.6c-5.2-4.7-10.4-9.5-15.6-14.3 c-0.3-0.3-0.6-0.7-1-0.7c-1.9-0.4-2.8-2-4.2-3.1c2.7-2.5,5.2-4.8,7.8-7.2c2.6-2.4,5.2-4.8,7.8-7.2c2.6-2.3,4.9-4.7,7.8-6.6 C643.9,387.3,638,392.4,632.4,397.9z M622.6,518.9c-0.4,0.4-0.8,0.9-1.2,1.3c-3.3,3.2-6.6,6.3-9.8,9.5c-3,3-4.7,6.5-3.8,10.9 c0,0.2,0.1,0.4,0.1,0.5c-1,1.1,0,2,0.5,2.8c0.6,1.1,1.5,2.2,2.4,3.1c2.9,2.9,5.9,5.8,8.8,8.7c2.1,2.1,4,4.4,6,6.5 c2.2,2.2,4.5,4.4,6.7,6.5c2.8,2.8,5.7,5.5,8.5,8.3c0.3,0.2,0.6,0.4,0.9,0.6c0.1-0.1,0.2-0.2,0.3-0.3c-0.9-0.8-1.7-1.6-2.6-2.5 c-0.9-0.8-1.7-1.7-2.5-2.6c-0.7-0.8-1.9-1.4-2.3-2.9c0.6,0.4,0.9,0.5,1.1,0.8c3.6,3.4,7.2,6.9,10.7,10.4c0.8,0.8,1.5,1.2,2.7,1.2 c10.1,0,20.3,0,30.4,0c0.4,0,0.9-0.1,1.7-0.1c-4.3-4-8.3-7.7-12.3-11.5c0.1-0.1,0.1-0.2,0.2-0.3c0.4,0.2,0.8,0.3,1.1,0.6 c2.1,1.9,4.2,3.8,6.2,5.7c1.2,1,2.4,2,3.5,3.1c0.1-0.1,0.2-0.2,0.2-0.3c-2-1.8-3.9-3.6-5.9-5.5c-5.5-5.1-10.8-10.4-16.7-14.9 c-0.8-0.6-1.5-1.4-2.3-2.1c-4.2-3.9-8.5-7.8-12.7-11.6c-1-0.9-2-1.9-3.1-2.7c-0.7-0.5-1.6-0.7-2.3-1.2c-1-0.7-1.8-1.6-2.5-2.3 c1-1.1,1.8-2.1,2.8-3.1c4.2-3.9,8.5-7.8,12.7-11.7c2.5-2.3,5.1-4.6,7.6-6.9c0.2-0.2,0.5-0.2,0.8-0.3c-5.5,5.9-11.5,11-17.1,16.7 c11.3-10.2,22.9-20.3,33.5-31.4c-0.1-0.1-0.3-0.2-0.5-0.3c1.7-1.6,3.3-3.1,5-4.8c-0.5-0.1-0.7-0.2-0.8-0.2c-10.4,0-20.9,0-31.3,0 c-0.7,0-1.2,0.2-1.8,0.7c-1.2,1-2.2,2.4-3.9,2.7c-0.3,0-0.6,0.4-0.8,0.7c-3.1,2.7-6,5.8-9.3,8.3c-2.7,2.1-5.1,4.6-7.5,6.9 c-3.4,3.2-6.7,6.3-10,9.5c-1.8,1.8-3.7,3.6-5.3,5.7c-1.2,1.6-2.2,3.4-2,5.6c0.6-3.2,2.4-5.7,4.6-7.9c1.7-1.6,3.4-3.3,5-4.9 c1.6-1.5,3.3-3,4.9-4.5C621.6,519,621.9,518.5,622.6,518.9z M286.8,474.5c0,0.1,0,0.2,0,0.3c0.8,0,1.5,0,2.3,0 c5.3,0.3,10.5,0.8,15.8,0.9c8,0.2,16,0.1,23.9,0.2c3.5,0,7.1,0,10.6,0c2.1,0,4.2,0.2,6.3,0.4c1.9,0.2,3.8,0.4,5.7,0.7 c6.9,0.9,13.9,1.5,20.7,3.2c6.2,1.5,12.5,2.2,18.8,2.8c3.6,0.3,7.3,0.4,10.9,0.5c5.4,0.1,10.8,0.3,16.2,0.2 c8.1-0.3,16.3-0.8,24.4-1.2c7.1-0.4,14.1-1.2,21.1-2c5.5-0.7,11-1.3,16.6-1.9c5.8-0.6,11.7-1,17.5-1.5c4.1-0.3,8.1-0.9,12.2-0.9 c14.3-0.2,28.7-0.1,43-0.2c1.1,0,2.3,0,3.4,0c1.9,0,1.9,0,2.6-2c-0.3,0-0.6-0.1-0.9-0.1c-3.6-0.1-7.2-0.1-10.8-0.2 c-5.7-0.1-11.4-0.2-17.1-0.4c-5.8-0.1-11.5-0.2-17.3-0.4c-3.3-0.1-6.6-0.2-9.9-0.5c-5.1-0.4-10.1-0.9-15.2-1.3 c-5.8-0.5-11.7-1-17.5-1.6c-4.6-0.5-9.3-1.2-13.9-1.7c-8.6-0.9-17.3-1.7-25.9-2.4c-4.4-0.4-8.8-0.6-13.3-0.8 c-4.2-0.2-8.5-0.5-12.7-0.4c-4.5,0-9,0.4-13.4,0.7c-6.5,0.4-13,1.4-19.3,3.1c-2.1,0.6-4.1,1.3-6.2,1.7c-4.5,0.8-9,1.6-13.5,2.1 c-5.9,0.6-11.8,1-17.7,1.3c-5.3,0.3-10.5,0.3-15.8,0.4c-2.3,0.1-4.7,0.1-7,0.2c-1.8,0.1-3.7-0.1-5.3,0.4c-2,0.7-3.8,0.4-5.8,0.4 c-2.7,0.1-5.4,0-8.1,0C290.4,474.3,288.6,474.5,286.8,474.5z M580.6,518.8c0.1,0,0.3,0,0.4,0c0.1,0.5,0.2,1,0.2,1.5 c0,6.5,0,13.1,0,19.6c0,0.4,0.1,0.9-0.1,1.1c-1,1.1-0.6,2.3-0.6,3.5c-0.1,3.4,0,6.7,0,10.1c0,1.2-0.2,2.4-0.2,3.6 c-0.1,2.6-0.3,5.1-0.4,7.7c-0.1,3.7,0,7.4,0,11.2c0,0.6,0,1.1,0,1.7c1.1-2.8,0.2-5.8,1-8.7c0.3,3.9,0.2,7.7,0.3,11.7 c7.7,0,15.1,0,22.8,0c0-0.7,0-1.4,0-2c0.1-3,0.3-6.1,0.2-9.1c0-0.9,0.9-0.6,0.9-1.2c0.1-2.1,0.3-4.2,0.3-6.2c0-2.5-0.4-5-0.4-7.5 c-0.1-2.5,0.1-5,0-7.6c-0.1-2.4,0.5-4.8-0.6-7.2c-0.5-1-0.3-2.4-0.3-3.5c0-5,0-10.1,0-15.1c0-1.2,0.2-2.4,0.3-3.6 c1,0.4,0.6,1.2,0.6,1.8c0,4.4,0,8.8,0,13.1c0,1,0.1,2,0.1,3.1c0.2-0.3,0.3-0.6,0.3-0.9c0-5.5,0.1-11,0-16.6 c-0.1-3.9,0.4-7.9-0.3-11.8c-0.5-2.7,0.5-5.5-0.8-8.2c-0.3-0.6-0.2-1.5-0.2-2.3c-1.9-0.4-21.5-0.3-22.8,0.1c-0.3,1,0.3,2.3-0.8,3.2 c-0.1,0.1,0,0.5-0.1,0.7c-0.1,1.9-0.1,3.7-0.2,5.6c-0.1,1.6-0.3,3.2-0.3,4.8c0,7.8,0,15.6,0,23.4c0,0.7,0,1.4,0,2 c0.4-1.3,0.6-2.7,0.6-4c0-4,0-8,0-12.1C580.5,519.9,580.6,519.4,580.6,518.8z M596.5,401.3c0.1,0,0.2,0,0.2,0.1 c0-0.2,0.1-0.4,0.1-0.7c0-4.7,0.1-9.5,0-14.2c-0.1-4.7,0.4-9.4-0.4-14.1c-0.5-2.7,0.4-5.6-0.7-8.3c-0.4-0.9-0.3-2.1-0.4-3.2 c-7.5,0-15,0-22.5,0c0,28.4,0,56.6,0,85.1c0.7,0,1.4,0,2,0c5.1,0,10.2,0,15.3,0c1,0,2,0,3.1,0c1.6-0.1,2.1-0.6,2.1-2.2 c0-1.5,0-3,0-4.5c0-2.3,0-4.5,0-6.9c0.5-0.1,1-0.2,1.5-0.3c0-0.7,0-1.2,0-1.8c-0.2-3.4-0.4-6.9-0.5-10.3c-0.1-2.8,0.1-5.6-0.1-8.5 c-0.1-2,0.6-4-0.6-6c-0.5-0.9-0.3-2.3-0.3-3.5c0-5.1,0-10.2,0-15.3c0-1.1,0.2-2.1,0.3-3.3c0.2,0.1,0.3,0.1,0.3,0.2 C596.2,389.4,596.3,395.3,596.5,401.3z M569.7,682.7c0.2-0.6,0.4-1,0.5-1.3c1.7-3.8,3.5-7.5,5.2-11.3c5.8-13,11.5-26.1,16.5-39.4 c3.5-9.2,6.8-18.4,9-28c0.8-3.6,1.5-7.1,1.4-10.8c-0.1-1.7-0.4-3.2-1.7-4.4c-2.2-1.9-5.2-1.5-7.2,0.8c-2,2.3-2.7,5.1-3.3,7.9 c-1.1,4.8-2,9.6-3.1,14.4c-3.2,13.3-7.4,26.3-12.2,39.1c-4.2,11.2-8.8,22.1-13.7,33c-0.5,1.1-1.2,1.8-2.5,2 c-3.8,0.8-7.4,2.4-10.5,4.9c-1.9,1.6-3.6,3.4-4.4,5.8c-1.5,4.1,0.4,6.7,4.7,6.8c2.9,0.1,5.6-0.7,8.1-2.1c3.6-2,6.6-4.8,9.2-7.9 c0.7-0.8,1.4-1.2,2.4-1.4c5.9-1.3,11.9-2.2,17.9-2.4c6.4-0.3,12.8,0,19.2,1.2c4.1,0.8,8.2,1.9,12.3,2.8c1,0.2,2,0.5,3,0.6 c1.4,0.1,2-0.7,1.4-2c-0.3-0.6-0.7-1.3-1.2-1.8c-1.4-1.2-2.8-2.4-4.4-3.3c-5.8-3.2-12.1-4.5-18.6-5.1c-6.6-0.6-13.2-0.1-19.7,0.8 C575.2,681.9,572.6,682.3,569.7,682.7z M604.3,664.5c0.2-0.6,0.2-1,0.4-1.4c2.2-6.1,4.4-12.2,6.5-18.2c1.1-3.2,2.3-6.3,3.3-9.5 c1.1-3.5-1.8-6.7-5.5-6c-2.7,0.5-4.3,2.1-5.2,4.6c-1.9,5.5-3.9,10.9-5.9,16.4c-1.8,5-3.6,10-5.3,15c-0.3,0.9-0.5,1.9-0.4,2.8 c0.3,1.9,1.7,2.8,3.5,3.1c5.3,0.9,9.6-1.2,13.4-4.7c0.3-0.2,0.4-0.8,0.4-1.1c-0.2-1-0.5-1.9-0.7-3 C607.2,662.9,606.3,664.6,604.3,664.5z M464.2,643.7c-0.1,0-0.2,0-0.3,0c-0.7,1.2-1.4,2.4-2,3.6c-8.3,14.7-16.5,29.4-24.8,44.2 c-0.7,1.2-1.6,2.2-2.7,3.1c-8.8,6.5-17.5,13-26.2,19.5c-1.5,1.1-3.1,2.2-4.7,3.4c-15.5-22.6-31-45.1-46.4-67.6 c-0.1,1.4,0.1,2.6,0.2,3.8c0.1,1.3,0.6,2.3,1.3,3.3c4.7,6.7,9.3,13.5,14,20.3c9,13.1,18,26.3,27.1,39.4c1,1.5,2.1,3,3.2,4.6 c0.3-0.2,0.5-0.3,0.7-0.4c11.2-8.3,22.3-16.5,33.5-24.8c0.6-0.4,1.1-1.1,1.5-1.8c4.8-8.6,9.6-17.1,14.4-25.7 c3.7-6.6,7.4-13.3,11.1-19.9c0.6-1.1,1.1-2.2,0.5-3.6C464.2,644.5,464.2,644.1,464.2,643.7z M582.1,475.6c0.9,0,1.5,0.1,2.1,0.1 c4.5-0.1,9-0.3,13.5-0.3c32-0.1,64.1-0.1,96.1-0.2c8.1,0,16.2-0.1,24.3-0.2c0.2,0,0.4,0,0.5-0.1c-2.7-0.2-5.5-0.4-8.3-0.5 c-4.5-0.2-9.1-0.4-13.6-0.5c-8.3-0.1-16.5-0.2-24.8-0.2c-10.9,0-21.7,0.1-32.6,0.2c-10.7,0.1-21.5,0.1-32.2,0.2c-1.1,0-2.3,0-3.4,0 c-4.4,0-8.7,0-13.1,0c-1.8,0-3.6-0.1-5.4-0.2C583.9,473.9,583,474.3,582.1,475.6z M609.3,621.1c0,0.2,0,0.4,0,0.5 c-0.2,2.4,2.5,4.8,5.4,3.6c2.9-1.2,4.8-4,4.7-7.2c-0.1-3.1-2.6-4.7-5.5-3.6C611.2,615.5,609.4,618.1,609.3,621.1z M523.7,614.5 c0,0.1,0,0.2,0,0.3c1.2,0.1,2.5,0.2,3.7,0.2c7.6,0.1,15.1-0.1,22.7,0.3c6.3,0.4,12.7,0.3,19.1,0.4c4.6,0.1,9.1,0.2,13.7,0.3 c0.3,0,0.7-0.1,1.1-0.1c0.1-0.6,0.3-1.2,0.5-1.9c-0.7,0-1.3-0.1-1.9-0.1c-4.8,0-9.6,0.1-14.4,0.1c-7.7,0.1-15.4,0.1-23,0.2 c-6.9,0.1-13.8,0.1-20.7,0.2C524.2,614.5,523.9,614.5,523.7,614.5z M445.3,614.7c-21.5-0.8-43-0.5-64.6-0.3 C402.3,614.5,423.8,614.6,445.3,614.7z M182.4,504c0,0.1,0,0.2,0.1,0.4c0.6,0.1,1.2,0.1,1.7,0.1c1.9,0,3.7,0,5.6,0 c4.9,0,9.8,0.1,14.7,0.2c1.4,0,2.9,0,4.3,0c0.7,0,1.2-0.1,0.9-1.2C200.6,503.5,191.5,503.6,182.4,504z M601.5,616.1 c2.4,0,4.6-0.1,6.8,0c1.8,0.1,2.7-1,3.9-2.5c-3.1,0.1-5.9,0.2-8.7,0.3C601.7,614,601.7,614.1,601.5,616.1z M641,534.1 c0,0-0.1-0.1-0.1-0.1c-0.8,0.8-1.6,1.5-2.5,2.4C639.4,535.5,640.2,534.8,641,534.1z M629.6,400.9c0.8-0.7,1.6-1.4,2.4-2.2 c-0.1-0.1-0.2-0.2-0.2-0.2C631,399.3,630.3,400.1,629.6,400.9z M217.5,569.1c0.1,0.1,0.2,0.2,0.3,0.2c0.2-0.7,0.4-1.4,0.6-2.2 c-0.1,0-0.2-0.1-0.4-0.1C217.9,567.7,217.7,568.4,217.5,569.1z M231.4,400.9c0.1-0.1,0.1-0.2,0.2-0.2c-0.2-0.2-0.3-0.5-0.5-0.7 c-0.2-0.2-0.5-0.2-0.7-0.3c0,0.1-0.1,0.1-0.1,0.2C230.6,400.2,231,400.6,231.4,400.9z"></path> <path style="fill:#FFFFFF;" d="M547.6,649.2c-0.6-0.2-1.2-0.3-1.8-0.5c-7.4-1.8-12.8-6.1-16-13c-1.4-3-2.9-6.1-4.3-9.2 c0.5-0.3,0.8-0.6,1.2-0.8c4.6-2.6,9.5-4,14.8-3.7c8.3,0.6,14.8,4.3,19.3,11.2c4,6.1,4.9,12.9,4.2,20c-0.4,4.2-1.7,8.2-3.9,11.8 c-5.8,9.4-17.2,13.8-27.8,10.7c-2.7-0.8-5.3-1.9-7.8-3.5c1.6-3.5,3.1-6.9,4.8-10.3c1.6-3.2,3.9-5.9,6.8-8c2.6-1.9,5.4-3.1,8.4-3.9 c0.7-0.2,1.4-0.4,2.1-0.6C547.6,649.4,547.6,649.3,547.6,649.2z M562.5,646.4c-0.8-8.7-4.3-15.6-11.8-20.1 c-7.6-4.5-17.7-3.5-22.9,0.2c1.3,2.7,2.5,5.5,3.9,8.2c2.8,5.1,6.9,8.6,12.5,10.3C550.1,646.8,556.1,647,562.5,646.4z M527.8,670.1 c8,3.9,15.8,4,23.4-0.5c7.4-4.4,10.6-11.3,11.3-19.8c-6.4-0.4-12.6-0.4-18.6,1.6c-3.5,1.2-6.6,3-9,5.7 C531.6,660.8,529.7,665.4,527.8,670.1z"></path> <path style="fill:#FFFFFF;" d="M621.7,674.5c0-1.6,0-3.3,0-5c0.1-5.4,0.2-10.8,0.4-16.2c0.1-6.8,0.3-13.5,0.4-20.3 c0-1,0.3-1.6,1.3-2c2.3-0.9,4.6-1.9,7.1-1.8c1,0,1.9,0.1,2.8,0.4c2.7,0.7,4.5,3,4.5,6c0,2.4-0.2,4.9-0.4,7.3 c-0.3,3.6-0.6,7.2-0.9,10.9c0.4-0.3,0.7-0.5,0.9-0.7c2.5-3.3,4.6-6.8,5.9-10.6c0.4-1.1,0.5-2.3,0.6-3.5c0.1-1,0-2,0-3.1 c0.3-5.8,5.9-9.2,11.3-7.1c2.8,1.1,4,3.5,4.2,6.4c0.2,3.1-0.7,5.9-2.1,8.6c-2.3,4.6-5.4,8.8-8.8,12.6c-4.4,4.9-8.9,9.7-13.4,14.5 c-0.9,1-1.8,2-2.7,2.9c-0.4,0.4-1,0.8-1.5,0.8c-2.9,0.1-5.9,0-8.8,0C622.2,674.8,622,674.6,621.7,674.5z M623.1,671.6 c2.1,0,4.3,0,6.5,0c0.4,0,0.8-0.4,1.1-0.7c1.1-1.1,2.1-2.3,3.2-3.4c4-4.3,8.1-8.6,12.1-13c3.6-4,6.8-8.2,9.1-13.1 c1.1-2.4,1.7-4.8,1.5-7.5c-0.1-1.7-0.9-3.1-2.4-3.9c-2-1-4.9-0.6-6.6,0.8c-2.1,1.8-2.3,4.2-2.3,6.7c0,1.3-0.1,2.7-0.4,4.1 c-0.4,1.4-1,2.7-1.6,4c-2.5,5.2-6.1,9.7-9.7,14.2c0,0.1-0.2,0-0.3,0c0-0.2-0.1-0.4-0.1-0.5c0.3-3.7,0.6-7.5,1-11.2 c0.4-4.1,0.8-8.2,1-12.3c0.2-2.8-1-5-4.3-5.2c-2.6-0.2-4.8,0.4-7,1.5c-0.1,2.4-0.3,4.7-0.4,7c-0.2,6-0.3,12.1-0.4,18.1 C623.1,661.8,623.1,666.6,623.1,671.6z"></path> <path style="fill:#FFFFFF;" d="M685.2,656.2c1.1,2.9,2.2,5.7,3.3,8.6c-0.4,0.4-0.7,1-1.2,1.4c-4.9,5.1-10.8,8.1-17.9,8.6 c-3.3,0.2-6.5-0.2-9.4-1.9c-3.7-2.2-5.6-5.5-6.1-9.6c-0.5-4.5,0.5-8.7,2.1-12.8c3.3-8.1,8.7-14.5,16.5-18.5 c4.5-2.3,9.4-3.3,14.5-2.4c1.4,0.3,2.9,0.8,4.2,1.5c3.3,1.8,4.5,4.8,4.3,8.5c-0.4,5.5-3.6,9.4-7.9,12.5c-4.1,2.9-8.8,4.5-13.7,5.6 c-1.3,0.3-2.6,0.5-4,0.7c-0.2,1.3-0.3,2.5,0.1,3.7c0.3,0.9,0.8,1.4,1.8,1.4c2.2,0,4.3-0.6,6.1-1.8c1.9-1.2,3.6-2.7,5.4-4.1 C684.1,657.1,684.6,656.7,685.2,656.2z M667.3,655.3c0.6-0.1,1.2-0.2,1.7-0.3c5.4-0.6,10.4-2.1,15.1-4.9c3.5-2.1,6.4-4.8,7.8-8.8 c2.1-5.7-0.6-10.3-6.7-11c-4.7-0.5-9.2,0.4-13.3,2.7c-6.9,3.8-11.6,9.5-14.6,16.7c-1.5,3.5-2.4,7.2-2.3,11.2 c0.3,5.4,3.9,9.6,9.1,10.4c3.2,0.5,6.3,0.3,9.4-0.7c4-1.2,7.4-3.3,10.5-6.1c0.5-0.5,1.2-0.9,1-1.8c-0.5-1.4-1.1-2.7-1.6-4.1 c-1.7,1.2-3.2,2.3-4.7,3.3c-2.2,1.5-4.7,2.3-7.4,2.4c-2.3,0.1-3.9-1.1-4.2-3.3C666.8,659.2,666.8,657.3,667.3,655.3z"></path> <path style="fill:#FFFFFF;" d="M232.7,548c7.4,0,14.6,0,21.9,0c0.7,1.3,1.3,2.5,2,3.9c1.4-1,1.5-2.7,2.4-4c6.7,0,13.5,0,20.6,0 c-1.1,2.2-2.2,4.2-3.2,6.1c-0.1,0.3-0.5,0.4-0.9,0.5c-0.4,0.1-0.8,0-1.3,0c-12,0-24.1,0-36.1,0c-1.4,0-2.2-0.3-2.8-1.6 C234.6,551.3,233.6,549.7,232.7,548z"></path> <path style="fill:#FFFFFF;" d="M200.8,554.6c-0.5,1.6-0.9,3.1-1.4,4.6c-0.1,0-0.2-0.1-0.3-0.1c0.9-3.7,1.8-7.4,2.8-11.1 c6.2,0,12.3,0,18.6,0c-0.5,2.2-1.1,4.3-1.6,6.6C212.8,554.6,206.8,554.6,200.8,554.6z"></path> <path style="fill:#FFFFFF;" d="M293.5,554.6c-0.5-2-1-4-1.5-6c0-0.2,0-0.3,0-0.6c6.2,0,12.3,0,18.6,0c0.5,2.1,1,4.2,1.6,6.4 c-1.6,0.5-3.2,0.2-4.7,0.2c-1.6,0.1-3.1,0-4.7,0s-3.1,0-4.7,0C296.7,554.6,295.1,554.6,293.5,554.6z"></path> <path style="fill:#FFFFFF;" d="M877.8,407.4c-1.4-2.7-2.9-5.4-4.5-8.5C876.1,401.4,876.3,401.9,877.8,407.4z"></path> <path style="fill:#FFFFFF;" d="M651.3,616.1c-3.5,0-6.9,0-10.4,0C644.4,616.1,647.8,616.1,651.3,616.1z"></path> <path style="fill:#FFFFFF;" d="M214.3,412c0.9,0,1.5,0,2,0c5.4,0,10.8,0,16.2,0c1.7,0,1.7,0,1.9,1.6c0.2,1.5,0.3,3.1,0.5,4.8 c-3.2,0-6.2,0-9.2,0c-2.9,0-5.9,0-8.8,0c-0.1,0.5-0.2,0.9-0.3,1.2c-0.9,3.5-3.4,5.4-7.1,5.4c-20.8,0-41.6,0-62.4,0c-0.7,0-1.3,0-2,0 c0-0.1,0-0.2,0-0.3c0.6,0,1.2,0,1.8,0c20.5,0,40.9,0,61.4,0c2,0,4-0.4,5.6-1.7c2.7-2.2,3.3-6.5,1.4-9.6 C215.1,413.1,214.8,412.7,214.3,412z"></path> <path style="fill:#FFFFFF;" d="M366.7,405.8c-0.3-3.8,0.1-7.3,1.5-10.7c2.7-6,7.3-9.7,13.7-11c1.8-0.4,3.7-0.5,5.5-0.5 c6.7-0.1,13.4-0.1,20.2,0c5.1,0,9.7,1.4,13.6,4.7c4.1,3.5,6.2,8,6.6,13.3c0.1,0.8,0,1.7,0,2.5c0,0.6,0.1,1.2-0.5,1.6 c-0.3,0.2-0.2,0.8-0.3,1.2c-1,4.9-3.2,9-7.4,11.9c-3.2,2.3-6.9,3.4-10.8,3.4c-7.8,0.1-15.6,0.2-23.4,0c-9-0.2-16.2-5.8-17.8-15.2 C367.6,406.4,367.8,405.6,366.7,405.8z M426.7,400.5c0-0.4,0.1-0.8,0-1.2c-0.9-4-2.7-7.5-5.9-10.3c-3.8-3.3-8.3-4.7-13.3-4.7 c-7.4,0-14.9-0.1-22.3,0.2c-7.1,0.3-12.4,3.7-15.7,10c-1.1,2-1.7,4.2-1.7,6.5c0.2-0.6,0.4-1.2,0.6-1.8c1.8-8.1,8.9-14.1,17.3-14.2 c7.7-0.1,15.5-0.1,23.2,0c5.3,0.1,9.7,2.2,13.3,6.1C424.6,393.9,425.9,397.1,426.7,400.5z"></path> <path style="fill:#FFFFFF;" d="M446.4,418.5c-0.7,0-1.4,0-2,0c-5.9,0-11.8,0-17.6,0c-1,0-1.8,0.2-2.6,1c-3.1,2.9-6.7,4.7-10.9,5.5 c-0.6,0.1-1.3,0.2-2,0.2c-9.1,0-18.1,0-27.2,0c-1.5,0-3-0.4-4.5-0.7c0-0.1,0-0.3,0.1-0.4c0.4,0.1,0.9,0.2,1.3,0.2 c1.7,0.2,3.3,0.5,5,0.5c7.7,0.1,15.5,0.2,23.2,0c8.5-0.2,14.9-4,18.7-11.8c0.2-0.3,0.3-0.6,0.5-0.9c6.6,0,13.2,0,19.9,0 C447.9,414.4,447.1,416.4,446.4,418.5z"></path> <path style="fill:#FFFFFF;" d="M370.2,418.5c-7.4,0-14.6,0-22.1,0c-0.6-2.1-1.3-4.2-1.9-6.4c6.9,0,13.5,0,20,0 C367.5,414.2,368.8,416.3,370.2,418.5z"></path> <path style="fill:#FFFFFF;" d="M375.7,422.4c0.5,0.3,0.9,0.5,1.4,0.8c0,0.1-0.1,0.1-0.1,0.2c-0.5-0.2-1-0.5-1.5-0.7 C375.5,422.5,375.6,422.4,375.7,422.4z"></path> <path style="fill:#FFFFFF;" d="M488.4,539.8c0-6.7,0-13.4,0-20.1c0.5-0.1,0.9-0.2,1.2-0.2c13,0,26,0,39.1,0c4.6,0,8.8,2.9,9.4,8.5 c0.4,3.6-0.2,6.8-2.9,9.4c-1.8,1.7-4,2.6-6.3,2.6c-13.3,0.1-26.5,0-39.8,0C489,540,488.8,539.9,488.4,539.8z M489.2,520.2 c0,0.6-0.1,1.2-0.1,1.8c0.1,3.3,0.2,6.7,0.3,10c0,1.5,0,3,0,4.5c0.1,0,0.2,0,0.3,0c0-1.7,0-3.5,0-5.2c0-1.8,0-3.6,0-5.4 c0-1.7-0.1-3.4,0.1-5.2c0.7,0,1.2,0,1.7,0c11.9,0,23.8,0,35.7,0c0.9,0,1.8,0,2.7,0.2c2.7,0.5,5,1.7,6.2,4.4c1.3,3.2,1.3,6.4-0.3,9.5 c-0.2,0.3-0.3,0.7-0.6,1.3c3-2.6,3.1-9.9,0.4-12.8c-0.6-0.6-1.2-1.2-1.9-1.7c-1.7-1.2-3.7-1.5-5.8-1.5c-12.2,0-24.4,0-36.6,0 C490.6,520.2,490,520.2,489.2,520.2z"></path> <path style="fill:#FFFFFF;" d="M467.5,554.6c0,2.2,0,4.2,0,6.1c-0.1,0-0.1,0-0.2,0c0-4.2,0-8.4,0-12.6c28.5,0,56.8,0,85.4,0 c-1.9,2.4-4.1,4.1-6.6,5.6c-1.3,0.7-2.6,1-4.1,1c-24,0-48,0-72,0C469.3,554.6,468.5,554.6,467.5,554.6z"></path> <path style="fill:#FFFFFF;" d="M696,548c6.4,0,12.7,0,19.3,0c0.1,2.1,0,4.2,0,6.6c-6.4,0-12.6,0-19.1,0c0,2.2,0,4.1,0,6.1 c-0.1,0-0.2,0-0.2,0C696,556.4,696,552.3,696,548z"></path> <path style="fill:#FFFFFF;" d="M771.6,560.6c-1.8,0.6-54,0.6-55.8,0C734.5,560.6,752.9,560.6,771.6,560.6z"></path> <path style="fill:#FFFFFF;" d="M469.6,418.4c-0.6-2.1-1.2-4.1-1.9-6.3c6.8,0,13.4,0,20,0c1.3,2.1,2.6,4.2,3.9,6.3 C484.4,418.4,477.1,418.4,469.6,418.4z"></path> <path style="fill:#FFFFFF;" d="M499.2,423.5c3.6,1.3,7.3,1.4,11,1.4c13.9,0,27.8,0,41.8,0c0.6,0,1.3,0,1.9,0c0,0.1,0,0.2,0,0.3 c-0.6,0-1.2,0-1.8,0c-15.5,0-31,0-46.4,0C503.3,425.1,501.2,424.5,499.2,423.5z"></path> <path style="fill:#FFFFFF;" d="M357.9,547.9c24.3,0,48.2,0,72.3,0c1.3,2.1,2.5,4.2,4,6.7c-1,0-1.7,0.1-2.4,0.1 c-23.3,0-46.6,0-69.9,0c-2,0-4,0.1-5.9,0c-1,0-1.6,0.4-2.2,1.2c-0.9,1.6-2,3.2-3,4.7c-0.2,0.3-0.4,0.5-0.9,0.5 C352.6,556.7,355.3,552.3,357.9,547.9z"></path> <path style="fill:#FFFFFF;" d="M393.4,528c1.8,3.1,3.5,6,5.3,8.9c0.5,0.9,1,1.8,1.5,2.7c0.4,0.7,1.1,1.3,0.6,2.2 c-0.1,0.2,0.3,0.7,0.5,1.1c0.3,0.6,0.6,1.1,1,1.9c-5.9,0-11.6,0-17.4,0c-0.7-0.7-0.6-1.3-0.1-2.2c2.7-4.5,5.3-9.1,8-13.6 C392.8,528.6,393.1,528.4,393.4,528z M396.1,535c0-0.8-0.3-1.5-1.1-1.8c-0.1-1.3-1-2.2-1.7-3.4c-1.4,2.2-2.6,4.2-3.4,6.5 c1.1-1.8,2.2-3.5,3.3-5.4c0.7,0.9,1.3,1.6,1.8,2.3C395.4,533.7,395.8,534.3,396.1,535c0.3,0.5,0.6,1.1,0.8,1.7 c0.1-0.1,0.3-0.2,0.4-0.2C397,535.9,396.5,535.4,396.1,535z"></path> <path style="fill:#FFFFFF;" d="M280.6,412.1c6.5,0,12.9,0,19.3,0c0,2.1,0,4.2,0,6.4c-6.3,0-12.6,0-18.9,0c-0.1,1-0.1,1.7-0.2,2.5 c-0.1,0-0.1,0-0.2,0C280.6,418,280.6,415.1,280.6,412.1z"></path> <path style="fill:#FFFFFF;" d="M837.9,548c0,2.1,0,4.2,0,6.5c-0.7,0-1.3,0.1-1.9,0.1c-5.2,0-10.4,0-15.6,0c-0.7,0-1.5-0.2-1.8,0.9 c0-2.4,0-4.9,0-7.5C824.9,548,831.4,548,837.9,548z"></path> <path style="fill:#FFFFFF;" d="M640.1,418.4c-0.5,0-1.1,0.1-1.6,0.1c-8,0-16,0-23.9,0c-1.1,0-1.9-0.3-2.7-1.1 c-1.7-1.7-3.4-3.3-5.5-5.3c1-0.1,1.5-0.1,2.1-0.1c7.4,0,14.8,0,22.1,0c0.7,0,1.4-0.1,2.2,0c0.4,0,0.9,0.1,1.1,0.3c2,1.9,4,3.8,6,5.7 C640,418,640,418.2,640.1,418.4z"></path> <path style="fill:#FFFFFF;" d="M649.5,554.6c-9,0-17.5,0-26,0c-1.1,0-1.9-0.3-2.7-1.1c-1.4-1.5-2.9-2.8-4.4-4.2 c-0.3-0.3-0.6-0.7-1.1-1.2c0.8,0,1.4-0.1,1.9-0.1c8,0,16,0,23.9,0c0.6,0,1.1,0,1.6,0.5C645,550.4,647.1,552.3,649.5,554.6z"></path> <path style="fill:#FFFFFF;" d="M602.4,547.9c0,2.3,0,4.3,0,6.6c-0.7,0-1.3,0.1-1.9,0.1c-5.2,0-10.4,0-15.6,0c-0.7,0-1.5-0.2-1.8,0.9 c0-2.4,0-4.9,0-7.6C589.3,547.8,595.8,547.9,602.4,547.9z"></path> <path style="fill:#FFFFFF;" d="M574.4,418.5c0,1.7,0,3,0,4.3c-0.1,0-0.1,0-0.2,0c0-3.6,0-7.1,0-10.7c6.3,0,12.6,0,18.9,0 c0.2,0,0.3,0.1,0.6,0.2c0,2,0,4,0,6.2C587.3,418.5,581,418.5,574.4,418.5z"></path> <path style="fill:#FFFFFF;" d="M558.1,689.1c-1.9,3.5-4.5,6.2-7.9,8.1c-1.2,0.7-2.3,0.8-2.6,0.2c-0.7-1,0-1.8,0.5-2.6 c0.6-0.7,1.3-1.4,2-2C552.4,691,555.1,689.7,558.1,689.1z"></path> <path style="fill:#FFFFFF;" d="M552.1,652.2c-3.3,4.4-7.8,6.9-13.3,7.7C543.2,657.3,547.6,654.8,552.1,652.2z"></path> <path style="fill:#FFFFFF;" d="M669.6,649.4c1.7-4.4,3.5-8.5,7.1-11.4c1.2-0.9,2.5-1.7,4.1-1.6c1.1,0.1,1.6,0.5,1.7,1.7 c0.1,1.9-0.4,3.6-1.5,5C678.1,646.8,674.2,648.5,669.6,649.4z M681.2,639.6c-3.6,1.5-5.2,4.4-6.9,7.6 C678.4,645.9,680.9,643.1,681.2,639.6z"></path> </svg> 