<?xml version="1.0" encoding="UTF-8"?> <!-- Generator: Adobe Illustrator 24.1.2, SVG Export Plug-In . SVG Version: 6.00 Build 0) --> <svg xmlns="http://www.w3.org/2000/svg" xmlns:xlink="http://www.w3.org/1999/xlink" version="1.1" id="Capa_1" x="0px" y="0px" viewBox="0 0 309.1 309.1" style="enable-background:new 0 0 309.1 309.1;" xml:space="preserve"> <style type="text/css"> .st0{fill:#FFFFFF;} </style> <g> <path class="st0" d="M53.8,170.6c19.2-29.7,30.5-48.8,38.7-63c-31.6,3-61.9,45.3-61.9,45.3l20.9,22.4 C52.1,173.7,52.8,172.1,53.8,170.6z"></path> <path class="st0" d="M135.3,265.5l20.8,22.4c0,0,39.3-32.6,42.1-66.6c-13.1,8.8-30.9,21-58.5,41.6 C138.3,264,136.8,264.9,135.3,265.5z"></path> <path class="st0" d="M103.6,253.9c-3.6,1.6-7.1,3.2-10.8,4.5c-9.8,3.5-19.9,5.9-30.1,7.4c-4.3,0.6-8.6,1.2-12.9,1.5 c0-0.6,0.1-1.2,0.1-1.7c0.9-11.2,2.5-22.4,5-33.3c1.2-5.3,2.8-10.4,4.5-15.5c1.1-3.2,2.4-6.2,3.7-9.3l-2.3-2.5 c-5.1,3.7-9.5,8.3-13.3,13.6c-5.6,7.8-9.8,16.6-12.7,26c-3.1,10-5,20.6-5.3,31.2c0,1.5-0.1,3,0.1,4.5c0.3,1.9,1.1,3.7,2.2,5.2 c1.2,1.4,2.7,2.5,4.4,3.1c1.4,0.5,2.8,0.5,4.3,0.5c8.9-0.1,18-1.7,26.5-4.5c15.6-5,31.4-14.4,40.6-29.2l-2.2-2.4 C104.7,253.4,104.2,253.6,103.6,253.9z"></path> <path class="st0" d="M277.1,22.7C277.1,22.7,277.1,22.7,277.1,22.7c-1.6-1.7-3.8-2.7-6.1-2.7c-0.1,0-0.1,0-0.2,0 c-27.8,0.6-96.6,6.2-133,45.5c-16.6,17.8-21.9,27.1-33.7,47.4c-8.5,14.6-20.1,34.7-41.4,67.6c-2.4,3.7-2,8.7,1,11.9l55.8,60 c1.7,1.8,3.9,2.7,6.1,2.7c1.7,0,3.4-0.5,4.9-1.7c30.6-22.9,49.2-35.4,62.8-44.5c18.9-12.7,27.5-18.5,44.1-36.3 c36.6-39.3,41.7-113.2,42.3-143.1C279.7,27,278.8,24.5,277.1,22.7z M212.5,136c-11.2,12.1-29.4,12.1-40.7,0 c-11.2-12.1-11.2-31.7,0-43.8c11.2-12.1,29.4-12.1,40.7,0C223.8,104.3,223.8,123.9,212.5,136z"></path> </g> </svg> 