<?xml version="1.0" encoding="UTF-8"?> <!-- Generator: Adobe Illustrator 22.0.0, SVG Export Plug-In . SVG Version: 6.00 Build 0) --> <svg xmlns="http://www.w3.org/2000/svg" xmlns:xlink="http://www.w3.org/1999/xlink" version="1.1" id="Layer_1" x="0px" y="0px" viewBox="0 0 1000 1000" style="enable-background:new 0 0 1000 1000;" xml:space="preserve"> <path style="fill:#FFFFFF;" d="M87.6,265.7v187.6c0,0,11.9,135.5,131,135.5s178.6,0,178.6,0V483H223.1c0,0-35.7-13.4-35.7-40.2 c0-26.8,0-159.3,0-159.3s8.9-35,35-35s222.6,0,222.6,0s32.8,8.2,32.8,42.4s-31.3,37.2-31.3,37.2H239.5v113.1h205.4 c0,0,134-10.4,134-157.8S434.5,140.7,434.5,140.7H205.2C205.2,140.7,87.6,164.5,87.6,265.7z"></path> <path style="fill:#FFFFFF;" d="M805.9,386.8h-212c-18.9,39.4-75.5,96.8-166,106.7c-2.5,11.8-3.9,24.8-3.9,39.3 c0,150.6,136.9,161.3,136.9,161.3h210V578.5H559.4c0,0-31.9-3-31.9-38s33.5-43.4,33.5-43.4s200.8,0,227.4,0s35.8,35.8,35.8,35.8 s0,135.4,0,162.8c0,27.4-36.5,41.1-36.5,41.1H522.5v108c0,0,148,0,269.7,0s133.9-138.4,133.9-138.4V514.6 C926.1,411.2,805.9,386.8,805.9,386.8z"></path> </svg> 