<?xml version="1.0" encoding="UTF-8"?> <!-- Generator: Adobe Illustrator 22.0.0, SVG Export Plug-In . SVG Version: 6.00 Build 0) --> <svg xmlns="http://www.w3.org/2000/svg" xmlns:xlink="http://www.w3.org/1999/xlink" version="1.1" id="Layer_1" x="0px" y="0px" viewBox="0 0 1000 1000" style="enable-background:new 0 0 1000 1000;" xml:space="preserve"> <path style="fill:#FFFFFF;" d="M623,308.1l58.1,32.6c0,0,38.2,45.3,109.1,9.9c56.7-41.1,35.4-68,35.4-68L559.2,122.6 c0,0-26.9-15.6-49.6-15.6c-22.7,0-46.7,14.2-46.7,14.2L183.8,277c0,0-45.3,15.6-45.3,76.5s0,133.2,0,133.2s-14.2,41.1,42.5,73.7 c56.7,32.6,272,133.2,272,133.2s65.2,24.1,99.2-38.2c29.7-68-18.4-93.5-18.4-93.5l-155.8-69.4c0,0-75.1-41.1-32.6-136 S512.5,277,512.5,277S574.7,281.1,623,308.1z"></path> <path style="fill:#FFFFFF;" d="M367.5,717.9l-58.1-32.6c0,0-38.2-45.3-109.1-9.9c-56.7,41.1-35.4,68-35.4,68l266.3,160.1 c0,0,26.9,15.6,49.6,15.6s46.7-14.2,46.7-14.2L806.6,749c0,0,45.3-15.6,45.3-76.5s0-133.2,0-133.2s14.2-41.1-42.5-73.7 c-56.7-32.6-272-133.2-272-133.2s-65.2-24.1-99.2,38.2c-29.7,68,18.4,93.5,18.4,93.5l155.8,69.4c0,0,75.1,41.1,32.6,136 S478,749,478,749S415.7,744.9,367.5,717.9z"></path> </svg> 