<?xml version="1.0" encoding="UTF-8"?> <!-- Generator: Adobe Illustrator 22.0.0, SVG Export Plug-In . SVG Version: 6.00 Build 0) --> <svg xmlns="http://www.w3.org/2000/svg" xmlns:xlink="http://www.w3.org/1999/xlink" version="1.1" id="Layer_1" x="0px" y="0px" viewBox="0 0 1000 1000" style="enable-background:new 0 0 1000 1000;" xml:space="preserve"> <g id="Trophy"> <path style="fill:#FFFFFF;" d="M699.6,794.8H270.9c-22.3,0-40.3,16.8-40.3,37.6v37.7c0,6.3,5.4,11.3,12.1,11.3c0,0,0,0,0,0h485 c6.7,0,12.1-5.1,12.1-11.3v-37.7C739.9,811.7,721.9,794.8,699.6,794.8C699.6,794.8,699.6,794.8,699.6,794.8z"></path> <path style="fill:#FFFFFF;" d="M801.1,183h-67.2v-20.4c0-13.4-11.6-24.2-25.9-24.2H267.1c-14.3,0-25.9,10.8-25.9,24.2c0,0,0,0,0,0 V183h-70.3c-33.1,0-60,25.1-60,56v36.3c-0.8,59.2,32.1,114.3,86.5,144.8c23.2,12.5,49.2,19.9,75.9,21.6c0.6,0,1.1,0.1,1.7,0.1 c0.9,0,1.9-0.1,2.8-0.2c25.7,39,63.3,70.1,108,89.1c33.4,14.8,54.5,46.3,54,80.8v41.6c0,15.5-13.5,28.1-30.1,28.1h-62.2 c-20.2,0-36.5,15.3-36.5,34.1v46.6h353.1v-46.6c0-18.8-16.3-34.1-36.5-34.1h-62.2c-16.6,0-30.1-12.6-30.1-28.1v-41.6 c-0.4-34.5,20.7-66,54-80.8c44.6-19,82.1-49.9,107.8-88.8c0.5,0,1.1,0,1.6-0.1c26.7-1.7,52.7-9.1,75.9-21.6 c54.3-30.5,87.3-85.6,86.5-144.8v-36.3C861,208.2,834.2,183.1,801.1,183z M220.7,382.6c-40-22.7-64-63.5-63.2-107.2v-36.3 c0-6.9,6-12.6,13.5-12.6h70.3v94.6c0,25.1,4.5,50,13.1,73.8C242.5,392.4,231.2,388.2,220.7,382.6z M580.7,332.1l-28.3,19.2 c-6.7,4.5-9.4,12.5-6.9,19.8l10.8,31.1c3.2,9.3-2.2,19.3-12.2,22.4c-5.8,1.8-12.1,0.8-17-2.5l-28.3-19.2c-6.7-4.5-15.7-4.5-22.3,0 L448,422.1c-8.5,5.8-20.4,4-26.5-3.9c-3.6-4.6-4.6-10.5-2.7-15.9l10.8-31.1c2.5-7.3-0.2-15.3-6.9-19.8l-28.3-19.2 c-8.5-5.8-10.4-16.9-4.2-24.8c3.6-4.6,9.3-7.3,15.4-7.3h35c8.2,0,15.5-5,18.1-12.3l10.8-31.1c3.2-9.3,14-14.4,24-11.4 c5.8,1.8,10.3,6,12.2,11.4l10.8,31.1c2.5,7.3,9.8,12.3,18.1,12.3h35c10.5,0,19,8,19,17.8C588.5,323.4,585.6,328.7,580.7,332.1z M814.5,275.4c0.8,43.7-23.3,84.5-63.2,107.2c-9.5,5.1-19.7,9-30.3,11.6c8.5-23.5,12.8-48.2,12.8-73v-94.6h67.2 c7.4,0,13.4,5.6,13.5,12.6V275.4z"></path> </g> </svg> 