<?xml version="1.0" encoding="UTF-8"?> <!-- Generator: Adobe Illustrator 22.0.0, SVG Export Plug-In . SVG Version: 6.00 Build 0) --> <svg xmlns="http://www.w3.org/2000/svg" xmlns:xlink="http://www.w3.org/1999/xlink" version="1.1" id="Layer_1" x="0px" y="0px" viewBox="0 0 1000 1000" style="enable-background:new 0 0 1000 1000;" xml:space="preserve"> <path style="fill:#FFFFFF;" d="M157.5,213.7c6.3-58.7,25.6-90.5,79.7-111.8c13.4-5.3,19.5-2.9,25.5,10.2c11.2,24.4,9.9,43.7-7,61.7 c-21.5,23-44.4,43.6-74.6,54.6c-2.7,1-5.4,2.2-8.2,2.5C162.7,232.1,157.5,226.1,157.5,213.7z"></path> <path style="fill:#FFFFFF;" d="M389.9,130.2c-33.6,1.1-59.1-18.7-65.1-50.5c-2-10.5-0.4-14.1,9.3-18.2c20.3-8.7,41.3-8.5,62-2.4 c18.8,5.5,35.6,14.9,50,28.7c12.5,12,11.1,27.1-5.2,32.5c-16.3,5.5-33.6,8.1-50.5,12C390.2,131.6,390.1,130.9,389.9,130.2z"></path> <path style="fill:#FFFFFF;" d="M658.6,207.5c-25.6-16.8-51.3-27.8-81.2-31.5c17.8-16.1,32.5-33.2,45.1-53.5 c-11.4-1.1-21.1-1-30.3-3.1c-11.7-2.7-21.7-8.9-30-17.9c-3.5-3.8-7.6-7.4-4.6-12.9c2.9-5.3,7.1-9.4,14.3-8.5 c17.8,2.1,35.2,5.8,52.3,11.7c18.7,6.5,23.9,20.4,26.7,37.6C654.9,154.5,659.2,179.5,658.6,207.5z"></path> <path style="fill:#FFFFFF;" d="M904.3,527.3c-9.4-0.1-15.5-3.2-21.3-11.1c-9.9-13.2-21.1-25.4-32.9-36.9c-4.8-4.7-7.5-9.2-9.2-15.4 c-5.5-21.2-9.1-43.2-17.8-63c-22.9-51.9-57.7-93.7-110.5-118.3c-3.9-1.8-7.2-7.2-8.6-11.6c-5.3-17.2-13.7-32.6-24.6-46.8 c-2.3-3-4.1-7-4.7-10.7c-1.2-8.2-1.8-16.5-2.2-24.7c-1-22.6-4-44.8-10.6-66.6c-6.8-22.2-16.9-39.6-41-47.4 c-19.6-6.4-38.5-10-58.5-4.1c-15.3,4.5-23.1,19.6-16.9,34.4c3.4,8.1,8.5,15.5,12.7,23.3c1,1.9,2.7,4.4,2.2,6.1 c-2.5,9.4-5.5,18.7-8.5,28.3c-5.1-2.9-8.7-5.4-12.6-7c-4.3-1.8-5-4.5-4.1-8.8c5.3-24.6-2.5-45.5-20.1-62.4 c-11.9-11.5-25.2-21.4-43.2-21.7c-6.3-0.1-7.3,2.4-7.7,8c-1.3,17-2.9,34.1-5.5,51c-1.7,11.5-7.7,19.1-20.3,23.4 c-14.3,5-27,14.3-40.7,21.4c-5.1,2.7-10.6,5.8-16.2,6.2c-32.6,2.7-59.8,15.6-81.9,40c-3.5,3.8-9.1,6.2-14.2,8 c-10.4,3.7-21.6,5.3-31.5,10c-29.8,14-53.2,34.7-64.6,66.6c-2.9,8.1-8.2,10.8-16.8,10.3c-22.8-1.3-44.7-5.7-65.4-15.9 c-5.4-2.7-11.6-3.6-17.4-5.3c0,6.9,0,13.7,0,20.6c3.6,9.8,6.4,20.1,11.1,29.3c11.4,22.5,27.3,40.3,54.2,44 c8.1,1.1,16.5,0.9,26.4,1.4c0.4,7.3,2.9,15.4,0.8,22c-10.6,33.6-17,67.3-12,102.7c4.4,31.3,16.5,59,39.7,80.6 c9.3,8.6,14.2,17.9,15.5,29.9c0.9,8.4,4,17.2,2.3,25c-2.7,12.7-8.4,24.8-13.2,37c-8.4,21.6-12.4,44-11.3,67.1 c0.9,18,5.8,34.8,17.4,49.1c8,9.9,18,13.7,30.9,12.1c15.7-1.9,27.2-10.7,38.3-20.9c12.9,14.4,24.8,29.2,38.2,42.3 c11.7,11.4,20.2,24.4,27,39c3.8,8.3,8.3,16.3,13.1,24c3.6,5.7,7.4,12.3,12.9,15.8c12.8,8.1,21,19.8,29.9,31.4 c8.8,11.6,17.4,23.9,32.8,27.8c3.4,0,6.9,0,10.3,0c0.6-0.5,1.1-1.4,1.8-1.5c20.9-4,36.4-15.5,44.3-35.1 c6.4-15.8,10.1-32.6,15.7-48.8c2.5-7.1,5.3-14.8,10.3-20c11.6-12.2,23.9-23.9,37-34.4c25-19.9,51.8-37.8,76.1-58.5 c49.2-41.9,97.1-85.2,145.7-127.8c2.1-1.9,5.4-3.6,8.1-3.4c12.5,1,25,2.3,37.5,4.2c21.7,3.3,38.8-2.1,51.5-21.6 c15.3-23.4,28.3-47.7,37.7-74.1c0-4.6,0-9.2,0-13.7C914.7,530.4,909.5,527.3,904.3,527.3z M865.3,620.1c-21.3-10.8-30.3-30.8-40-51 c-1.3,2.2-3,4.9-4.5,7.8c-15.7,31-42.3,52.7-66.5,76.3c-25.1,24.5-51.8,47.5-78.6,70.2c-22.3,18.9-46.1,36.1-68.8,54.5 c-24.8,20-49.8,39.9-73.5,61.2c-13.9,12.4-24.9,28-38.4,41c-17.9,17.2-38.3,31.1-64.7,29.9c-14.5-0.7-29.6-2.5-41.3-12.1 c-6.7-5.5-11.9-13.3-16.7-20.9c-6.7-10.7-12.1-22.1-18.4-33.1c-4.7-8.2-8.8-16.2-16.6-23.1c-13.8-12.2-24.3-28.1-36.7-42 c-3.7-4.1-2.1-6.7,0.2-10.2c10.1-15.2,20.2-30.3,30-45.7c2.5-4,3.9-8.7,5.9-13.1c-31.9,33.6-67,58.5-115.8,55.9 c-6.8-13.5-7-27.3-5.5-40.6c3.5-30.4,14.9-58.4,27.7-85.9c6.1-13.1,6.4-12.5,22.3-11c9.4,0.9,19.1,0.9,28.5-0.1 c29.7-3.1,56.2-14.6,80.1-32.3c5.8-4.3,10.8-9.4,15.7-15c-17.2,9.8-35.1,17.1-54.4,21c-37,7.4-73.1,5.9-105.8-14.8 c-24.7-15.6-38.8-39.1-45-67.6c-7.3-33.7-4.4-66.6,7.3-98.9c0.3-0.9,1.1-1.7,0.9-1.4c9,12.3,17.8,25.2,27.6,37.3 c4.7,5.8,11.4,9.8,17.1,14.8c3.6,3.2,6.9,6.8,10.9,10.8c10.9-15,25.7-29.1,44.5-37.3c18.3-7.9,37.6-13.5,56.2-20.8 c-34.5,6.7-71.8,6.8-95.2,40.4c-1,1.4-5.8,1.7-7.8,0.6c-18.1-9.7-31.7-24.3-41.1-42.3c-10-19.4-13.9-40.6-14.8-62.4 c-1-24.6,4.7-48.1,15.3-69.5c15-30.1,37.1-52.9,73.2-57.9c25.2-3.5,48.6,0.9,71.5,10.5c8.9,3.8,17.7,8,27.3,12.3 c0.2-2.6,0.9-4.8,0.5-6.8c-7.2-32.6,14.6-70.1,42.1-84.9c31.2-16.8,63.1-19.2,95.4-6.3c36.8,14.7,65.6,38.9,79.3,77.8 c3.7,10.5,1.9,12.4-8.6,13.2c-23.4,1.7-41.8,13.3-55.9,31.2c-9.3,11.8-17,24.8-25.4,37.3c0.6,0.5,1.2,1,1.8,1.4 c5.6-6.8,11.4-13.6,16.9-20.6c21.4-27.2,47.7-45.1,83.5-46.1c0.8,0,1.7-0.2,2.4-0.5c0.5-0.2,0.8-0.8,1.3-1.2 c-11.4-21.1-22.8-42.1-35-64.6c7.5,0.9,15.9,0.7,23.5,3.1c23.5,7.3,46,17.3,62.9,35.8c22.5,24.6,37.3,52.9,33.8,87.8 c-2.2,21.5-10.1,40.9-25.1,56.6c-10.4,10.9-22.1,20.5-31.9,29.5c10.7-0.8,29.8-16.8,46.4-40.7c12.9-18.5,20.4-38.7,19-64.6 c14.3,8.4,27.9,14.7,39.5,23.6c31.3,23.8,52.6,55,68.2,91.1c7.8,17.9,14.1,36.2,17.1,55.1c3.2,20.2,7.4,40.8,2.6,61.6 c-0.8,3.4-0.1,7.1-0.1,10.6c1,0.1,2,0.2,2.9,0.4c2.7-15.3,5.5-30.6,8.7-48.3c9.9,11.1,18.8,21.2,27.8,31.1c6.2,6.8,8.4,17.7,19.8,19 c4.7,0.5,9.4,1.4,14,2.1C905.7,553.7,888.5,588.2,865.3,620.1z"></path> <path style="fill:#FFFFFF;" d="M252.2,723.4c2,3.6,3.9,7.2,6,10.7c5.6,9.6,13.3,10.6,21.4,2.7c3.2-3.2,6-6.8,9.9-9.6 c-2.1,8.1-3.5,16.5-11.5,21.1c-6,3.5-12.8,6.4-18.9,1.3c-7.9-6.6-7.3-16.4-8.8-25.3C250.8,724,251.5,723.7,252.2,723.4z"></path> <path style="fill:#FFFFFF;" d="M624.7,598.2c-0.7-12.7-8.1-16.3-18.8-14.5c0.5-11.2,18.4-1.1,14.8-16.2c5.7,7.2,10.1,12.9,13.7,17.4 C631.2,589.1,628.3,593.1,624.7,598.2z"></path> <path style="fill:#FFFFFF;" d="M545.9,462.1c-1.1,24.6-10.6,28.8-34.2,23.1C526.5,480.8,540.1,477,545.9,462.1z"></path> <path style="fill:#FFFFFF;" d="M456.7,351.8c-18.4,4.2-32.9,13.7-40.7,31.8c-2.6,5.9-0.8,9.3,4.8,10.9c6.9,2,14.1,4.9,21,4.6 c7.3-0.4,16.8-0.2,20.4-9c3-7.4,4.4-15.5,5.7-20C468.1,354.1,465.1,349.9,456.7,351.8z M426,380.8c3.2-3.9,6.4-7.9,9.5-11.8 C435.3,375.4,435.9,382.2,426,380.8z"></path> <path style="fill:#FFFFFF;" d="M537.1,320.5c-0.7-0.6-1.4-1.1-2.1-1.7c-5.8,7.2-11.9,14.1-17.3,21.6c-10.4,14.6-19,30.7-30.7,44.1 c-27.5,31.7-64.3,48.1-104.2,58.3c-12.7,3.3-25.1,7.6-37.7,11.4c1.2,2,1.7,2.2,2.3,2.2c1.1-0.1,2.3-0.2,3.3-0.5 c24.3-6.3,48.2-6.9,71.7,3.6c19.9,8.9,40.2,15.6,62.6,14.3c4.2-0.2,8.7-1.3,13.1-3c-7.1-9.5-17-25.7-17.7-30.9 c-1-7.5,24.4-12.5,24.4-12.5l22.1,20.1c1.2-1.9,2.2-3.9,2.9-5.9c7.6-19.7,5.1-39.2,0.8-58.9C526,361.3,521.7,340,537.1,320.5z"></path> <path style="fill:#FFFFFF;stroke:#FFFFFF;stroke-miterlimit:10;" d="M345.2,291.9"></path> <path style="fill:#FFFFFF;" d="M462.8,245.9c-26.8-9.1-55.8-5.3-71.7,21.6c-5.4,9.2-9.6,11.5-20.6,10.9 c-32.7-1.9-54.9,23.7-55.4,57.6c-0.5,14.5,4,23.1,15.6,34c12.2,11.5,26.7,19.2,43.2,17.4c20.7-2.2,36.9-14.1,49.5-30.6 c1.8-2.3,5.1-4.1,8-4.9c19.6-5.8,38.6-12.2,50.6-30.6C500,294,493.5,256.3,462.8,245.9z M358.7,355.6c-31,10.3-44.7-3.1-39.3-22.4 c5.3-19.3,8.3-47.6,51.7-49.6c16.1-0.7,18,17.7,18,19C389,303.9,389.7,345.2,358.7,355.6z M471.7,266.9c-2,15-7.3,29.3-24.3,32 s-36,2.3-42-7s-13.8-14.4-5.6-28.5c8.2-14.1,16.7-13.5,16.7-13.5s19.9-12.7,37.6-4C454,245.9,473.7,251.9,471.7,266.9z"></path> <path style="fill:#FFFFFF;" d="M414.2,267.9c0,10-5.6,18.4-9.5,16.7c-3.2-1.4-7.4-5.8-7.2-8.6c0.4-5.7,1.4-13.4,9-14 C409.5,261.8,412.7,266.7,414.2,267.9"></path> <path style="fill:#FFFFFF;" d="M329.5,341.7c-3.8-0.9-6.6-5.6-8.4-7.2c0.2-11.4,6.7-20.6,12.6-20.9c4.8-0.2,10,5.9,9.7,11.6 C343,332.9,335.2,343,329.5,341.7z"></path> </svg> 