<?xml version="1.0" encoding="UTF-8"?> <svg xmlns="http://www.w3.org/2000/svg" xmlns:xlink="http://www.w3.org/1999/xlink" version="1.1" id="Layer_1" x="0px" y="0px" viewBox="0 0 1000 1000" style="enable-background:new 0 0 1000 1000;" xml:space="preserve"> <path style="fill:#FFFFFF;" d="M583.7,702.6c-7.2-1.6-14.4-2.9-21.4-4.9c-47.8-13.5-78.8-57.8-74.9-106.7 c4.1-50.8,40.7-89.8,90.1-96.3c33.7-4.4,65.5-0.2,93.2,21c36.1,27.7,46.3,65.3,36.9,107.9c-9.1,41.1-37.7,64.9-77.7,75.6 c-5,1.3-10,2.3-15,3.4C604.5,702.6,594.1,702.6,583.7,702.6z M656.4,599.2c-0.8-0.1-1.6-0.2-2.4-0.3c0-6,0.4-12-0.1-18 c-1.4-18.5-4.1-36.8-14-53.2c-9.8-16.1-23.6-25.4-43.1-24.7c-19.3,0.7-32.9,10.4-41.3,27.4c-2.6,5.3-4.9,11-6.4,16.7 c-7.2,27-7.3,54.5-3.7,81.9c1.5,11.7,4.9,23.5,9.3,34.5c5.8,14.2,16.4,24.3,32.1,27.8c28.2,6.3,51.4-7.2,60.2-37.7 C652.1,636.1,653.4,617.4,656.4,599.2z"></path> <path style="fill:#FFFFFF;" d="M950.9,370.5c-4.2,0.6-5.9-1-7.2-5.3c-6.7-23.4-27.7-34.9-51.5-28.2c-2.7,0.8-6.3,5.1-6.4,7.8 c-0.6,15.2-0.3,30.4-0.3,45.5c14.4,3.5,23.6-2.6,28.8-18.2c1.1-3.4,3.4-6.5,5.2-9.7c0.8,3.7,2.2,7.3,2.2,11c0.2,16.3,0.2,32.7,0,49 c0,2.3-1.5,4.6-2.2,6.9c-1.3-2-3.3-3.8-3.8-5.9c-4.9-18-12.3-23.9-29.9-22.8c0,16.8-0.4,33.6,0.2,50.4c0.3,8.9,7.8,10,14.8,11 c2.6,0.4,5.2,1.1,7.7,1.7c-0.2,0.9-0.3,1.8-0.5,2.7c-24.3,0-48.6,0-72.9,0c-0.3-0.5-0.6-1-1-1.5c1.7-1,3.3-2.5,5.1-2.9 c11.2-2.7,13.3-5.1,13.4-16.8c0.1-30.8,0-61.6,0-92.3c0-13.1-1.3-14.6-13.9-18c-1.7-0.4-3.1-2-4.6-3.1c0.3-0.7,0.6-1.4,0.8-2.1 c38.7,0,77.4,0,116,0C950.9,343.2,950.9,356.9,950.9,370.5z"></path> <path style="fill:#FFFFFF;" d="M396.5,601.2c21.1,26.8,42.4,54.1,64.1,81c2.6,3.3,7.7,4.6,12.8,7.4c0.1,0.8,0.2,3.1,0.4,5.6 c-1.4,0.3-2.4,0.8-3.5,0.8c-19.1,0.1-38.2,0.3-57.3-0.2c-3.1-0.1-7-2.7-9-5.3c-20.9-26.2-41.6-52.6-62.3-79 c-1.7-2.1-3.4-4.1-6.2-7.4c-0.4,3.3-0.8,5.2-0.8,7.1c-0.1,15.5,0,31.1,0,46.6c0,23.5,3.5,27.5,27.2,30.2c0.2,2.2,0.4,4.6,0.6,7.4 c-35.3,0-70.1,0-105.7,0c-0.2-2.1-0.4-4.4-0.6-6.6c1.2-0.5,1.9-1,2.6-1.2c3-0.5,5.9-0.8,8.9-1.4c10.6-2.1,14.5-6.1,15.7-16.9 c0.5-4.3,0.4-8.7,0.4-13.1c0-39.5,0-79,0-118.5c0-3,0-6-0.1-9c-0.6-14.7-4.5-19-19-21.6c-4.5-0.8-10.9-0.1-7.7-8.8 c2.1-0.1,4.5-0.4,6.8-0.4c33,0,66.1-0.2,99.1,0.1c20,0.2,39.9,1.9,58.1,11.4c20.3,10.6,28.7,29.2,23.4,51.3 c-2.7,11.2-8.9,20.1-18.7,25.8C416.7,592.1,406.9,596.1,396.5,601.2z M334.8,595.4c10.6-1.3,20.1-2,29.4-3.9 c18.3-3.7,24.7-10.4,27-28.7c1-7.5,1-15.3,0-22.8c-3.4-25-22.9-37.4-47.6-31c-5.6,1.5-8.7,4.8-8.8,10.2 C334.7,544,334.8,568.7,334.8,595.4z"></path> <path style="fill:#FFFFFF;" d="M854.2,597.8c14-22,27.1-42.4,40-62.8c1.9-3,3.2-6.3,4.3-9.7c3.5-10.3,0.2-15.8-10.4-17.4 c-4.3-0.7-8.7-1.2-13.6-1.8c0-2.4,0-4.8,0-7.6c22.5,0,44.8,0,67.8,0c0.1,2.4,0.2,4.7,0.4,7.4c-2,0.7-4,0.9-5.5,1.9 c-5.7,3.7-13,6.5-16.7,11.8c-19.4,27.7-37.9,56-56.4,84.2c-1.8,2.7-2.8,6.5-2.9,9.8c-0.3,15.5-0.2,31.1-0.1,46.6 c0.1,21.1,4.2,25.6,25.4,27.7c1,0.1,2.1,0.3,3.4,0.5c0,2.6,0,4.8,0,7.5c-36.1,0-71.8,0-108.3,0c-0.2-2.2-0.5-4.4-0.8-7.1 c1.8-0.4,3-0.7,4.3-0.9c20.7-2.2,23.4-6.6,25.2-27.3c2.4-28.6-3.7-53.7-20.7-77.2c-13.2-18.3-23.6-38.5-34.9-58.1 c-5.9-10.3-13.7-17.5-26.5-19c-0.2-2.4-0.3-4.8-0.5-7.6c35,0,69.6,0,104.8,0c0.1,2.3,0.3,4.5,0.4,7.3c-3.4,0.4-6.3,0.7-9.2,1 c-18.1,2.1-20,5.5-10.8,21.3C826.1,550.9,839.8,573.5,854.2,597.8z"></path> <path style="fill:#FFFFFF;" d="M238.6,498.7c0,19.6,0,38.5,0,57.9c-2.9,0-5.5,0-8.6,0c-3.1-15.8-7.9-30.8-22.4-40 c-11.5-7.3-24.5-8.2-38.6-8.6c0,3.3,0,5.9,0,8.6c0,47.4,0,94.8,0,142.3c0,2.2,0,4.4,0.1,6.5c0.9,16.4,6,21.5,22.7,22.7 c4.4,0.3,10.3-1,7.9,7.5c-36.6,0-73.3,0-110.1,0c-1.5-6.8-1.5-6.8,5.3-7.4c18.8-1.6,23.6-6.2,23.7-24.9c0.2-49.9,0.1-99.8,0.1-149.6 c0-1.6-0.3-3.2-0.4-4.7c-25.9-1.6-55.1,6.1-60.8,47.7c-2.5,0-5.1,0-7.9,0c-0.2-1.4-0.4-2.4-0.4-3.5c0-18,0-35.9,0-54.5 C112.3,498.7,175,498.7,238.6,498.7z"></path> <path style="fill:#FFFFFF;" d="M363.2,464.3c2-1,3.8-2.4,5.9-2.9c8.1-1.6,11.4-6.6,11.4-14.5c-0.1-32.4-0.1-64.8,0-97.2 c0-8-3.5-12.8-11.5-14.4c-2.1-0.4-3.9-2-6.2-3.3c1.5-1.4,1.9-2.1,2.2-2.1c26.7,0.4,53.6-1,80,1.6c35,3.5,56.1,29.6,56.6,65.6 c0.4,34.7-22.1,64.3-55.8,67.7c-26.9,2.8-54.3,0.6-81.5,0.6C363.9,465.1,363.6,464.7,363.2,464.3z M413.6,396.7 c0,16.6-0.1,33.2,0,49.8c0.1,12,3.7,15,15.6,13.8c16.1-1.6,29.9-11.6,32.5-27.7c2.8-17.3,3.3-35.1,2.5-52.6 c-0.4-9.3-4.8-18.9-9.2-27.5c-5.5-10.6-15.5-15.7-27.6-16.3c-10.8-0.5-13.8,2.3-13.9,13C413.5,365.1,413.6,380.9,413.6,396.7z"></path> <path style="fill:#FFFFFF;" d="M353.2,398c0.2,41.8-29.7,72.1-71.3,72.3c-42.6,0.2-73.4-29.4-73.6-70.8 c-0.2-42.7,29.8-73.1,72.2-73.1C323,326.2,353,355.8,353.2,398z M316.7,399c0.1-16.7-0.9-33.3-9-48.4c-5.9-11.1-14.9-18.1-28.1-17.7 c-13.1,0.4-22.5,7.3-27,19.1c-3.6,9.5-6.5,19.8-7,29.9c-0.7,15.9,0.6,32,2,47.9c0.5,5.7,3.2,11.5,5.8,16.8 c5.6,11.2,14.9,17.1,27.6,17c12.4-0.1,21.2-6.3,26.9-17C315.9,431.8,316.7,415.5,316.7,399z"></path> <path style="fill:#FFFFFF;" d="M823.7,398.7c-0.2,42.5-30.4,71.9-73.5,71.6c-41.5-0.3-71.6-30.7-71.3-72.3 c0.3-42.2,30.8-71.9,73.7-71.7C794,326.5,823.9,356.9,823.7,398.7z M789.4,399.8c-0.7-0.2-1.4-0.3-2.2-0.5c0.1-17-0.9-33.8-9.2-49.2 c-5.9-10.8-14.7-17.5-27.5-17.2c-13.1,0.3-22.7,7-27.1,18.8c-3.8,10-6.2,20.8-7.4,31.5c-2.1,19-1.4,38.1,5,56.5 c3.5,10.1,9.3,18.5,20,22.2c16,5.5,32.6-1.1,38.6-18C784.6,429.9,786.3,414.6,789.4,399.8z"></path> <path style="fill:#FFFFFF;" d="M176.8,325.2c0,17.2,0,32.4,0,50.4c-3.5-2.9-5.9-4.2-7.4-6.3c-5.7-7.9-10.5-16.6-16.9-23.9 c-7.5-8.5-17.6-12.8-29.2-12.6c-12.6,0.2-22.8,5.5-27.7,17c-13.6,32.5-13.2,65.4,1.2,97.4c6.4,14.3,28.6,21.2,42.6,13.9 c3.7-1.9,6.9-7.7,7.6-12.1c1.3-7.4,0.5-15.2,0.3-22.8c-0.3-10.2-3.4-13.3-13.6-14.7c-2.5-0.4-5-1.3-7.5-1.9c0.2-0.9,0.4-1.8,0.6-2.7 c23,0,46,0,69.1,0c0.3,0.5,0.6,1,1,1.6c-1.7,1.1-3.3,2.8-5.2,3.1c-8.1,1.3-11.9,6.2-12.1,14c-0.3,9,0,18-0.6,26.9 c-0.2,2.6-2.3,6.4-4.4,7.4c-23.7,10-48.3,13.9-73.6,7.5c-35.6-9-54.8-40.5-50.2-80.7c3.8-33.3,32.8-60.2,66.8-60.1 c11.9,0,24,4,35.7,7c7.3,1.9,13.8,4.6,17.3-5.3C171.1,327.1,173.9,326.7,176.8,325.2z"></path> <path style="fill:#FFFFFF;" d="M515.4,470.6c0-17.4,0-33.7,0-50c0.6-0.5,1.3-1.1,1.9-1.6c1.8,1.9,4.2,3.5,5.2,5.8 c3.3,7.1,5.3,15,9.4,21.6c8.6,14,24.8,20,39.6,16.4c9.7-2.4,14.8-9,16.4-18.3c1.5-8.5-1.8-15.7-9.3-20.2c-7-4.2-14.4-7.6-21.6-11.6 c-8.1-4.5-16.4-8.7-23.9-14.1c-14.9-10.7-19.9-26.3-14.8-43.2c5.1-17.1,18.6-28.5,36.6-28.7c10.4-0.1,21,2.5,31.4,4.2 c5.5,0.9,11.2,4.4,14.5-3.7c0.4-0.9,3.4-0.7,5.7-1.1c0,14.9,0,29.3,0,43.6c-0.6,0.5-1.2,0.9-1.8,1.4c-1.7-1.9-3.6-3.6-4.9-5.7 c-4.5-7.1-8-14.9-13.2-21.4c-7.1-8.8-17.2-12.2-28.6-11c-9.3,1-16.2,7.1-18,15.4c-1.8,8.1,1.3,16.2,9.3,20.8 c12.8,7.3,26,13.8,39,20.7c14.7,7.8,24.4,19.2,24.8,36.6c0.5,23.4-17.9,42.2-44,43.2c-11.2,0.4-22.6-2.5-33.8-4.4 c-5.4-0.9-10.6-3.7-14,3.5C520.8,470,517.8,469.9,515.4,470.6z"></path> </svg> 