<?xml version="1.0" encoding="UTF-8"?> <svg xmlns="http://www.w3.org/2000/svg" xmlns:xlink="http://www.w3.org/1999/xlink" version="1.1" id="Layer_1" x="0px" y="0px" viewBox="0 0 1000 1000" style="enable-background:new 0 0 1000 1000;" xml:space="preserve"> <path style="fill:#FFFFFF;" d="M54,247.1c17.9-37.1,48.8-45.5,87-41.3c54.3,5.9,106.1,21.9,158.6,35.4c34,8.8,68,18,102.5,24.4 c17.1,3.2,35.4,0.6,54,0.6c-7.3-12.8-5.8-14.9,11.5-19.5c0-7.9-0.3-15.7,0.1-23.4c0.7-13.3,6.7-23.3,18.5-30.1 c3.5-2,5.8-6.2,8.8-9.2c5.9-5.9,12.1-11.5,17.8-17.5c2.5-2.7,5.3-5.7,6.3-9.1c5.4-17.1,10.1-34.6,25.4-47.6 c-21.2-14.6-23.5-34.3-14.8-56.4c5.6-14.2,15.1-24,31.5-24.7c17.7-0.8,31.5,5.8,39.7,22c7.4,14.6,6.5,28.9-3.3,42.3 c-3.4,4.7-10.6,10.1-9.7,13.6c2.4,9.8,7.3,19.3,12.6,28c4.6,7.6,12.8,13.5,5.7,24.2c3.9,1.7,7.4,3,10.5,4.8 c3.8,2.2,10.1,4.5,10.5,7.6c2,12.7,13.4,15.6,20.9,22.4c10.9,9.8,17.3,21.8,15.8,36.7c-0.6,5.7,0.8,8.6,5.8,11.5 c9.4,5.4,17.3,12.1,14.9,25c-0.3,1.5,2.4,4.1,4.2,5.2c9.3,5.5,18.3,13.8,28.4,15.3c16.2,2.5,33.1,0.8,49.7,0 c2.2-0.1,4.4-5.5,6.1-8.7c12.4-23.8,27.2-45.8,48.7-62.4c27.3-21.1,57.1-21.9,85.1-1.8c5.6,4,10.7,9.6,14.2,15.5 c6.1,10.5,2.3,22.9-7.6,29.7c-9.6,6.6-19.5,5-28.7-4.6c0-0.7-0.2-1.7,0.1-2.1c12.8-16.1,3.2-22.7-12.8-23.6 c-2.6-0.1-5.2-0.2-7.9-0.1c-14,0.7-24.7,7.4-27.8,17.3c-3.3,10.4,1.2,21,12.7,30.1c24.9,19.6,36.3,46.4,39,76.8 C891,386,873.4,406,840.6,409c-11.5,1.1-23.1,0.2-34.5,0.2c-25.7,52.8-73.6,71.5-125.7,82.8c-43.1,9.4-86.8,10.5-130.8,8 c-23.1-1.3-46.4,0.1-69.6-1.1c-32-1.7-63-8.3-92.1-22.4c-22.4-10.8-41.3-25.7-55-46.6c-14.4-21.9-28.5-44-42.2-66.3 C247.4,292.4,182,258.9,101.1,251.9c-15.7-1.4-31.4-1.7-47.1-2.5C54,248.6,54,247.9,54,247.1z M852,356c0,0,0.1,0,0.1,0 c0-6.4,0.4-12.7-0.1-19c-0.5-6.3-1.2-12.7-3.2-18.6c-4.3-12.6-18.1-23.2-26-20.7c-9.8,3.1-16.5,17.3-14.6,31.1 c0.1,0.7,0.2,1.5,0.5,2.2c3.5,8.5,6.5,17.4,10.8,25.5c5.2,9.7,5.5,18-2.4,26.5c-2.6,2.9-4.9,9.1-3.5,11.9c2.1,4.3,7.2,9,11.7,9.8 c14.1,2.7,25.1-6.6,26.7-21.8C852.7,374,852,365,852,356z"></path> <path style="fill:#FFFFFF;" d="M693.2,864.1c-7,5.7-12.4,12.1-19.3,15.1c-7.1,3.1-16.2,5.3-23.2,3.4c-5.6-1.5-12.1-8.9-13.6-14.9 c-1.9-7.2-4-16.9,6.4-22.4c2.2-1.1,0.3-8.4,2.1-11.9c4.2-8,9.6-15.4,14.3-23.2c2.9-4.8,5.3-10,6.8-15.7 c-20.1,14.9-35.6,33.6-48.6,54.4c-5.5,8.7-9,18.7-14.4,27.5c-1.8,3-6.7,5.6-10.2,5.7c-3.3,0.1-7.2-3-10-5.5 c-3.5-3.2-6.2-7.3-8.8-10.4c-11.1,7.1-22.4,14.2-33.6,21.6c-1.4,0.9-2.7,2.7-3.3,4.4c-10.5,32-31.6,55.5-58.7,74.2 c-2.3,1.6-5.7,1.7-8.3,3c-7.5,3.5-14.9,2.5-18.9-4.1c-3.1-5.1-5.9-13.9-3.6-18.2c6.9-12.9,16.1-24.6,25.3-36.2c1.9-2.4,9-0.6,10.8-3 c9.6-12.5,26.9-19.5,27.1-39.3c-7.6,10.3-18.5,7.7-28.7,7.8c-14.2,0.2-17.2-10.4-19.7-19.7c-11.2,7-22,15.5-34.2,20.3 c-6.5,2.6-16.8,0.7-22.9-3c-4.2-2.6-7-12.5-5.7-18.1c2.5-10.9,8-21.2,13-31.5c4.4-9.2,8.7-18.6,14.8-26.7 c5.5-7.3,13.3-12.8,20.8-19.8c8.8,17.4-1.2,28.4-5.4,40.6c-5,14.3-9.7,28.6-12.9,43.9c12.4-9.4,27.4-13.9,35.1-29.1 c7.2-14.3,17-27.5,26.8-40.4c12.9-16.9,40.6-18.2,60.4-3.8c0.7-0.3,1.3-0.5,2-0.8c6.1-2.2,12.3-4.3,18.4-6.5 c-0.7,6-0.7,12.3-2.3,18.1c-2.9,10-7.2,19.5-10.1,29.5c-2.9,9.9-4.9,20-7.6,31.5c17.3-8.9,29.6-21.6,37.9-37 c9-16.7,14.3-35.3,23.1-52.1c7.9-15.1,12.4-33.3,29.3-42c3.9-2,11.5-2.7,13.9-0.4c3.1,3.1,5.1,10.7,3.4,14.7 c-4.7,11.1-11.7,21.2-17.4,31.9c-9.6,18-19,36.1-26.9,54.3c12.9-13,25.5-26.3,39-38.7c5-4.6,11.9-8.2,18.5-9.8 c5.2-1.2,14.4-0.3,16.2,2.9c3.4,6,10.4,11.8,5.2,21.6c-8.7,16.4-15.5,33.8-24.3,53.6c18.9-9.2,29.4-22.9,38.2-37.2 c8.4-13.6,14.4-28.7,20.6-43.5c1.7-4.1,6.2-9.6-1.8-14.4c-5-2.9-1.3-12.3,4.7-11.7c9.3,1,11.4-5.8,16.2-10.7 c5.9-6.1,13.6-10.8,21.2-14.6c1.6-0.8,9.6,5.6,9.2,7.2c-2.4,9.4-3.8,18.5,2.3,28.7c-17.3-1.6-21.7,11.7-26.4,20.8 c-9.8,19.1-16.9,39.6-24.3,59.8c-1.7,4.8-0.3,10.7-0.3,16.5c16.7-7.8,29.1-18.7,37.2-34.7c4.5-9,11.8-16.6,15.7-25.8 c7.1-16.6,31.8-22.9,47.3-17.5c3.3,1.2,5.4,5.9,10.1,11.5c-8.3,1.7-13.4,3.7-18.5,3.5c-8-0.3-11.6,2.8-10.2,10.3 c2,10.7,4.9,21.3,7.4,31.9c13.4-2.9,25.4-3.6,30-17.6c0.6-1.8,7-1.7,10.7-2.4c2.5,18.8-4,28.9-23,35.9c-7.3,2.7-11.4,6.1-15.2,13.6 c-3.8,7.4-12.3,14.1-20.3,17.2c-17.1,6.5-34.5,3.7-51.2-3.9c-3.6-1.6-9.6-2.3-12.6-0.4C715.8,896.3,702.2,891.7,693.2,864.1z M547.6,803.8c-0.9-1.3-1.8-2.6-2.7-3.9c-7.3,2.2-16.5,2.4-21.5,7.1c-15,14.2-20.8,33.5-25.6,52.9c1.2,0.8,2.4,1.6,3.6,2.5 C516.9,842.8,532.3,823.3,547.6,803.8z M489.5,918.5c-12.9,9.6-27.8,17.9-31.6,36.8C482.7,953.8,480.1,931.2,489.5,918.5z M793.3,842.4c-2.6-8-5-15.6-7.8-24.3c-6.2,9.1-11.9,17.3-18.9,27.6C777.2,844.4,784.9,843.4,793.3,842.4z"></path> <path style="fill:#FFFFFF;" d="M326.4,791.4c-9.1,22.2-17.4,44.8-27.8,66.5c-4.5,9.4-12.4,17.8-20.5,24.6 c-9.2,7.7-20.3,13.2-30.6,19.4c-12.8,7.7-38-1.8-42.2-16.1c-0.5-1.7,0.9-3.9,1.7-7.3c13.8,12.2,25.8,7.7,37.1-2.1 c38.1-33.1,59.5-75.5,68.5-124.6c0.4-2.1,0-4.4,0-6.7c-20.7,2.4-66.2,41.1-63.4,72.4c-16.5-1.4-24.4-13.6-18.8-29.9 c5.6-16.3,14.8-30.9,28.3-41.4c18-14.1,40.2-18.4,62.5-19.7c9.9-0.5,15.8,7,18.7,16.3c7,22,10.3,44.3,9.2,67.7 c-0.6,12.1,2.7,24.4,4.6,39c7.9-16.4,15.6-30.6,21.8-45.5c9.1-21.6,15.9-44.2,26.2-65.2c3.1-6.3,14.3-9.6,22.4-12.1 c5.6-1.7,11.8,8.7,8.5,15.7c-6.1,13-13.9,25.2-20.4,38c-5.2,10.2-10,20.7-14,31.4c-5.6,14.9-9.8,30.3-15.7,45.1 c-4.9,12.3-11,24.3-17.5,35.9c-4.7,8.4-10.5,2.4-14.4-1.3c-11.4-10.5-14.7-24.3-15.7-39.4c-1.3-20.2-3.8-40.4-5.7-60.5 C328.3,791.5,327.3,791.4,326.4,791.4z"></path> <path style="fill:#FFFFFF;" d="M761.5,655.7c-17.2,5.4-34.8,8.5-52.4,3c-7.5-2.3-14.7-6.4-21.1-10.9c-7.3-5.1-13.7-11.4-20.2-17.4 c-10.1-9.3-10.6-22.4-10.1-34.3c0.6-13.2,1.8-27.7,7.5-39.2c17.8-36,41.8-44.3,80-38.6c13.6,2,27.8,8.1,39.1,16.1 c23.5,16.7,22,42.5,19.9,67.8c-1.5,19.2-10.9,31.6-29.7,36.8c-3.5,1-6.6,3.2-9.8,5.1c-7.2,4.3-12.6,4.4-21.8-0.4 c8.6-7.4,17-14.5,27.4-23.3c0.8-10.5,2.4-24.7,3-38.8c0.6-13.8-3.2-23.6-18.1-30.3c-12.2-5.4-22.5-12.6-36.3-7.5 c-29.9,10.8-40,34.7-26.7,64.3c4.4,9.7,8.6,20,15.3,28.1c11.4,14,28.6,14.2,45.1,15c3.2,0.1,6.3,1,9.5,1.5 C761.8,653.5,761.7,654.6,761.5,655.7z"></path> <path style="fill:#FFFFFF;" d="M595.6,651.5c-15.4,9.7-31.5,10.5-48.2,8.7c-22.6-2.4-36.4-18.6-49.2-33.8 c-12.1-14.2-9.5-33.5-5.9-50.9c2.3-11.3,7.5-21.9,11.5-32.8c0.7-2,1.9-4.1,3.5-5.4c34.3-28.1,86.1-28.7,117.4,3.2 c16.2,16.5,14.7,38,12.9,58.9c-0.7,7.6-2.1,15.7-5.5,22.3c-7,13.4-34,24.3-54.7,22.8c36.6-31.8,40.5-66.2,11.2-102.9 c-4.6,0.4-8.3,1.8-11.2,0.8c-10.5-3.8-20.1-0.4-30.5,0.9c-16.7,2.1-22.4,13.8-24.6,25.7c-2.3,12.2-1.3,26.2,2.6,38 c5.3,15.8,11.2,33.5,30.3,38.8c10.6,3,21.9,3.5,32.9,5C590.4,651,593,651.2,595.6,651.5z"></path> <path style="fill:#FFFFFF;" d="M359,655.4c-21.9,7.4-44,9.3-65.9-0.4c-28.9-12.9-46.1-48.2-38-78.7c3.2-12,7.6-23.9,13.1-35.1 c2.1-4.3,8.6-6.5,13-9.8c30.9-22.9,62.8-18,94.1-1.9c16.7,8.6,27.4,23.1,26.5,43.1c-0.7,14.9-0.5,30.4-5,44.3 c-2.6,8.1-13.2,14.3-21.2,19.8c-9.8,6.7-20.9,10.4-33.9,7.1c27.8-20.2,35.1-47,26.5-76.9c-6-20.6-28.4-37.9-53.3-29.4 c-15.6,5.3-22.5,16-28.1,28.8c-5.7,13.2-3.4,26.9,1.5,40c2.8,7.6,5.7,15.4,9.8,22.4c9.2,15.7,24.8,19.6,41.6,20.7 c6.6,0.4,13.2,1,19.9,1.5C359.4,652.6,359.2,654,359,655.4z"></path> <path style="fill:#FFFFFF;" d="M173,551c-15.8-0.9-29.3-2-37.2-17.4c15.9-2.2,29.8-3.8,43.7-6.3c4.5-0.8,9-3.2,13-5.6 c12-7.2,13.4-7.7,16.5,5.5c3.2,13.5,3.9,27.8,4.3,41.8c0.7,20.6,0.5,41.2,0,61.8c-0.3,11,3,17.2,14.9,18.5c3.8,0.4,8.2,4.8,10.4,8.6 c5.1,8.7,0.3,12.1-8.3,12.1c-22.1,0-44.2-0.1-66.2-0.1c-3,0-6,0.1-9,0.1c-18.7,0.2-19.6-1.1-14.6-20.9c4.4-0.2,9.1-0.3,13.7-0.7 c17.4-1.7,20.6-3.9,20.9-22.7C175.6,601,173.8,576.4,173,551z"></path> <path style="fill:#FFFFFF;" d="M820.7,535.6c19.7-5.8,38.6-10.9,57.1-17c7.7-2.5,12.3-2.7,12.8,6.9c0.7,14.5,1.7,29,2,43.5 c0.3,20.2,0.1,40.5,0.1,60.7c0,14.7,6.2,21,20.9,19.4c5.8-0.6,11.1-2,10.2,6c-0.7,6.4,0.3,14.9-10.7,14.8 c-23.6-0.3-47.2-0.1-70.8-0.2c-6.7,0-13.4,0-19.9,0c-4.4-13.3-0.3-20.3,12.2-22.4c15.6-2.6,19-7.2,20-22.8c1-14.8,4-29.5,4.7-44.3 c0.4-8.7-1.2-17.7-3.2-26.2c-0.6-2.5-5.6-4.3-8.9-5.6c-7.5-2.7-15.3-4.6-22.7-7.5C822.4,540.2,821.4,536.8,820.7,535.6z"></path> <path style="fill:#FFFFFF;" d="M429.7,694.9c6.3-11.1,12-21.2,18.6-32.8c-13.5-3.5-24.3-5.5-23.4-19.9c0.6-9.7,7.5-13.5,14.6-16.1 c7.4-2.7,15.3-2.4,21,5.1c12.5,16.7,11.9,32.8-3.1,47.7C449.9,686.2,441.8,693.5,429.7,694.9z"></path> <path style="fill:#FFFFFF;" d="M479.4,756.5c-3,3.9-7.2,12.4-14,17.3c-4,2.9-12.2,0.3-18.3-0.7c-1.6-0.3-3.8-3.7-4-5.8 c-0.7-7.5,11-24.3,18.7-27.5C473.3,734.9,479.7,739.3,479.4,756.5z"></path> </svg> 