<?xml version="1.0" encoding="UTF-8"?> <svg xmlns="http://www.w3.org/2000/svg" xmlns:xlink="http://www.w3.org/1999/xlink" version="1.1" id="Layer_1" x="0px" y="0px" viewBox="0 0 1000 1000" style="enable-background:new 0 0 1000 1000;" xml:space="preserve"> <path style="fill:#FFFFFF;" d="M818.8,518.6c9.5,3.5,19.6,6,28.4,10.7c38.8,20.6,52.5,38.1,39,82.4c-5.5,18-11.8,35.9-18.7,53.4 c-4.5,11.4-14.2,13-24.8,8.9c-6.6-2.6-13.2-5.5-19.2-9.3c-18.4-11.5-23.6-25.7-17.9-46.6c2.7-9.8,5.3-19.6,8.6-32.1 c-17.6,13.4-29.6,27.3-34.5,46.6c-2.5,9.8-0.5,18.1,7.4,24.6c18.9,15.5,37.9,31,57,46.3c24.2,19.3,26.9,42,8.8,66.8 c-19.1,26.2-44.4,37.8-77,39.4c-41.8,2-72.1-16-97.3-46.4c-1-1.2-2.6-1.7-1.7-1.2c-13.2,12.8-24.4,26.8-38.5,36.6 c-21.8,15.2-47.8,14.4-73.2,11.6c-37-4-60.8-27.7-81.5-55.5c-8.3-11.2-6.5-21.8,4.6-29.3c4.8-3.3,9-3.9,15,1.3 c4.3,3.7,18.1,4.6,19.9,1.9c6.3-9.9,10.9-4.1,16.2-0.7c13.9,8.7,27.2,18.5,41.9,25.5c4.8,2.3,13.1-2.4,19.8-3.9 c0.3-1.1,0.5-2.3,0.8-3.4c-14.9-10.6-30.1-20.8-44.7-31.8c-22.7-17.1-42-36.4-45.7-67c-2.7-22,6.1-40.4,16.7-57.7 c14.8-24.1,35.9-42.5,59.7-58.1c24.2-15.9,48.9-12.9,72.2-0.2c13.5,7.4,25.5,18.4,36.2,29.5c10.6,11,7.7,25.9,6.5,39.7 c-0.2,2.2-0.8,4.4-1.6,8.7c23.1-41.9,52.9-73.6,96.4-90.8C804.4,518.6,811.6,518.6,818.8,518.6z M627.8,590.8 c-1.9-0.9-3.9-1.8-5.8-2.7c-9.3,13.4-19.8,26.2-27.5,40.4c-6.3,11.6-4.7,23.8,7.1,32.8c8.1,6.2,15.9,12.9,23.8,19.4 c18.8,15.6,41.8,26.8,53.5,50.6c11.9-3.7,23.6-7.3,35.3-10.7c1.2-0.4,3.1,0.4,4.4,1.2c16,9.8,31.9,20,48.1,29.5 c3,1.7,7.9,2.2,11.1,1c3.5-1.3,6.2-5.1,9.3-8c-21.1-16.6-42.5-33.1-63.6-50.1c-14-11.3-22.4-26.4-25.9-44 c-1.3-6.5-0.9-13.4-1.3-20.8c-5.7,13.2-10.9,25.4-16.2,37.5c-3.9,8.9-10.3,12.4-20,8.7c-2.9-1.1-6.2-1.5-9.2-2.5 c-27.8-9.1-37.2-26.4-29.6-54.2C624,609.6,625.7,600.1,627.8,590.8z"></path> <path style="fill:#FFFFFF;" d="M717.9,428.2c-46.8,72.3-119.2,72.1-190.1-1.5c-0.6,13.6-1.5,25.5-1.7,37.5 c-0.2,13.5-4.2,18.6-17.4,18.2c-11-0.4-22.1-1.9-32.9-4c-16.7-3.3-19.4-13-18.3-31c0.3-5.5,0.3-11-0.2-16.4 c-0.4-5.4-1.6-10.7-2.7-17.9c-16.9,2.7-33.8,6.4-50.8,8c-19.6,1.8-30.1,12.3-34.7,30.3c-0.4,1.5-1.4,2.8-2.1,4.3 c-16.5,36.9-27.7,30.8-55.7,14.8c-13.2-7.6-15.4-23.1-6.2-41.1c28.2-55.5,56.9-110.8,85.3-166.2c8-15.6,18-30.7,23.2-47.2 c4-12.6,9.8-23.3,21.2-26.6c12.5-3.6,26.5-3.4,39.6-2.4c10.9,0.8,21.5,4.8,32.1,7.9c25.8,7.6,30.6,16.6,28.5,43.2 c-2.7,35.1-3.5,70.4-5.5,105.5c-0.4,6.9,2,15.6-4.7,17.6c1.3,11,2.5,21.4,3.6,31.2c5.9,0.9,12.1,2.5,18.4,2.6 c6.9,0.1,13.8-1.8,20.6-1.8c5.2,0.1,10.8,0.9,15.4,3.1c12.3,6.1,23.7,13.9,36.1,19.3c6.8,3,15.2,2.5,22.9,3.6c0.6-1.5,1.2-3,1.8-4.4 c-9.8-7.4-19.8-14.5-29.4-22.3c-15-12.1-31.8-22.9-44-37.5c-22.5-26.9-20.7-57.2-5.1-87.3c3.6-7,11.8-13.8,11.4-20.3 c-1.1-16.6,10.6-24.6,19.6-33.7c21.6-21.8,46.3-39,79.4-33.3c13.4,2.3,26.5,7.6,38.8,13.4c8.6,4,16.3,10.6,23.4,17 c9.1,8.2,14,18.5,13.4,31.3c-0.2,4,2.6,8,3.9,11.7c17.5-17.5,33.5-34.2,50.4-50.1c20.5-19.3,56.3-23.1,81.4-9.5 c6.6,3.6,13.2,7.2,19.4,11.3c25.4,16.7,33.5,39.9,25,68.8c-5.1,17.4-10.2,34.8-16.4,51.8c-6.8,18.6-18.8,22.4-36.8,13.2 c-14.4-7.4-28.8-14.9-30.4-33.2c-0.6-7.2,0.7-14.8,2.1-22c1.7-8.9,4.4-17.6,6.8-26.9c-17.2,7.7-34.8,33.4-35.4,50.4 c-0.5,14.4,10,21.9,19.6,29.4c15.5,12,33.1,21.8,47.5,34.9c27.1,24.6,25.2,46.9,1.1,75.4c-16.7,19.7-39.4,29-65.6,30.7 c-43.2,2.8-77.3-13-103-47.2C720.4,430.1,719.3,429.4,717.9,428.2z M831.8,414.4c-5.4-4.6-9.1-8-13-11.1 c-16.2-12.6-32.8-24.7-48.7-37.7c-4.2-3.4-6.1-9.4-9.6-13.7c-3.9-4.8-8.4-9.2-12.7-13.7c-2.7-2.8-5.6-7.7-8.2-7.5 c-5.2,0.3-12.6,2-14.8,5.7c-6.4,10.6-14.6,13.1-25.2,8.6c-8.7-3.7-17.6-7.7-24.9-13.4c-11.4-9-17.8-20.7-13.2-36.3 c3.4-11.6,5.6-23.6,8.4-35.4c-1.4-0.7-2.9-1.3-4.3-2c-8.9,12.3-18.8,23.9-26.3,37c-8.1,13.9-5.2,26.3,6.8,37.4 c7.2,6.7,15.4,12.3,23.2,18.4c13.6,10.7,31,16.8,39.2,34.1c2.1,4.4,7.3,9,11.9,10c6.5,1.4,14.1,0.5,20.7-1.2 c14.8-4,28.3-3.7,39.6,8.2c0.5,0.6,1.1,1.3,1.8,1.6C797.2,409.8,810.8,421,831.8,414.4z M456.5,286.4 c-11.7,20.7-23.2,41.1-35.9,63.6c13.3-1.5,23.8-2.6,35.9-3.9C456.5,326.3,456.5,306.8,456.5,286.4z"></path> <path style="fill:#FFFFFF;" d="M282.6,344.5c12.7,14.4,21.9,29.9,19.5,48.7c-1.3,9.8-4,20.9-10,28.3c-16.5,20.4-36.7,36.6-62.7,45 c-13.2,4.3-25.8,10.7-38.3,17.1c-24.7,12.7-45.2,3.4-64.9-11.2c-4-3-7.1-7.1-11-10.2c-24.7-19.9-14.7-45-9.8-68.7 c9.1-44.1,19.7-88,29-132.1c2.3-10.9,0.7-22.7,3.4-33.4c1.5-6,7.4-12.9,13-15.5c39.1-18.2,80.6-26.2,123.7-22.1 c14.6,1.4,30.7,5.2,39.8,18.3c7.3,10.4,12.2,22.8,16.5,34.8c14.8,41-3.1,65.4-33.3,89.7C293.2,336.9,288.3,340.3,282.6,344.5z M204.1,313.3c26-13.3,49.3-24.5,61.6-50.7c-10.2-0.9-19.9-0.7-29,1.8c-7.2,2-16.7,5-19.9,10.6C210.9,285.6,208.8,298.3,204.1,313.3 z M172.5,417.2c1.2,0.8,2.4,1.5,3.5,2.3c13.2-7.7,26.8-14.7,39.2-23.3c5.1-3.5,7.8-10.6,11.5-16.1c-6.6-1.5-13.3-4.9-19.6-4.1 c-8.5,1-20.1,2.9-24.2,8.7C176.7,393.6,175.7,406.2,172.5,417.2z"></path> <path style="fill:#FFFFFF;" d="M249,675.9c10.6,14.8,20.4,30.9,18.3,49.9c-1.2,10.3-5.4,21.8-11.9,29.8c-21.5,26.6-51,42-82.7,53.4 c-13.7,4.9-27.9,10.8-42.1,11.4c-21.9,0.9-37.7-13.8-52.9-27.9c-16.8-15.7-13.3-34.3-8.6-53.3c2.2-9.2,4.6-18.4,6.6-27.6 c5.8-26.3,11.8-52.5,17.1-78.9c4.4-22,7.9-44.2,12.2-66.3c0.7-3.8,2.9-9,5.8-10.3c41.7-19.6,84.9-34.8,131.9-25.3 c56.3,11.5,76.5,75,37.7,116.8C270.9,657.9,259.6,666.5,249,675.9z M170.2,641.8c24.6-4.2,60-34.2,57.8-50.4 c-9.6,1.5-19.3,2.9-28.9,4.6c-12,2.1-19.4,9-22,21.2C175.5,625.2,172.7,633,170.2,641.8z M139.7,746.1c0.9,1.2,1.9,2.5,2.8,3.7 c15-10,30.6-19.1,44.8-30.2c7.2-5.6,4.6-11.4-3.8-12.9c-20.8-3.7-35,5.1-40.1,24.8C142.2,736.4,140.9,741.2,139.7,746.1z"></path> <path style="fill:#FFFFFF;" d="M500.6,622.8c-3.6,35.8-9.3,70.7-22.3,103.4c-7.9,19.8-19.3,39-32.5,55.8c-24,30.7-57,37-94.4,28.8 c-44.3-9.7-64.2-39.5-65.5-84.5c-1.4-50.5,14.6-95.8,40.3-138.3c12.5-20.6,28.8-38.3,49.8-50.2c17.3-9.8,36.5-12,56.4-6.2 c24.7,7.1,48.1,17.1,58.5,41.7C497.4,588.6,497.6,606.3,500.6,622.8z M426.1,615.1c0-2.4,0.4-4.9-0.1-7.1c-1.3-6-3.1-12-4.7-18 c-4.9,4.1-9.9,8.1-14.8,12.2c-0.3,0.2-0.4,0.7-0.6,1c-20.2,29.5-35.3,61.4-40.9,96.7c-2.4,15.4-1.5,31.4-1,47.1 c0.1,3.3,4,7.5,7.3,9.2c1.6,0.8,6.7-2.6,8.6-5.3C408.7,710.3,425.6,665.5,426.1,615.1z"></path> </svg> 