<?xml version="1.0" encoding="UTF-8"?> <svg xmlns="http://www.w3.org/2000/svg" xmlns:xlink="http://www.w3.org/1999/xlink" version="1.1" id="Layer_1" x="0px" y="0px" viewBox="0 0 1000 1000" style="enable-background:new 0 0 1000 1000;" xml:space="preserve"> <path style="fill:#FFFFFF;" d="M666,521.2c-4.7-22.2,7.8-37.5,15.8-53.6c1.4-2.8,11.6-3,17.2-1.7c19,4.3,20.3,3.6,28.2-15.1 c4.4-10.4,9.6-20.7,16.5-29.6c2.8-3.6,10.8-4.3,16.4-4.4c3.8,0,7.4,3.8,11.4,5.2c6.8,2.3,11.9,1.6,15.2-6.5 c11.4-27.6,23.6-54.8,35.4-82.2c3.3-7.7,13.6-13.3,19.8-10.4c13.8,6.6,17,13.3,12,24.2c-11.9,26.2-23.8,52.4-35.3,78.7 c-9.8,22.4-19.5,44.8-28.4,67.6c-1.1,2.9,1.9,9.8,4.8,11.3c6.9,3.6,14.9,5,24.6,7.9c-4.5,13.4-9.1,26.4-13.1,39.6 c-3.6,12,0.9,22.2,12.7,24c13.5,2.2,12.3,8.8,8.4,17.8c-9.8,22.5-19.8,45-29.7,67.5c-11.7,26.8-22.9,53.9-35.1,80.6 c-8.3,18.3-18.5,35.7-26.8,54c-10.4,22.9-20.2,46-29.4,69.4c-4.6,11.8-11,17.2-24.5,17c-48-0.7-96.1-1.4-144,0.1 c-32.3,1-35.9-11.6-48.1-37.3c-8.9-18.8-19.2-37-28.5-55.6c-2.5-5-2.8-11.1-5.2-16.2c-8.5-18.1-17.3-36.2-26.3-54.1 c-12.2-24-24.9-47.7-37-71.7c-8-15.9-15-32.3-23.1-48.1c-9.4-18.5-20-36.4-29.2-55.1c-7.6-15.5-13.6-31.8-20.9-47.5 c-6-12.9-13.4-25.2-18.8-38.3c-2.7-6.6-4.6-15.3-2.4-21.6c1.3-3.7,11.2-6,17.3-6.1c55.3-0.4,110.6-0.1,165.9-0.4 c9.7-0.1,15.3,2.9,19.6,12.1c15.4,32.9,31.9,65.4,47.7,98.2c7.2,15.1,13.1,30.8,20.7,45.7c7.9,15.5,16.5,30.7,25.8,45.3 c4.1,6.5,9.3,6.2,12.9-2.3c8.3-19.9,17.4-39.5,26.2-59.2c6.7-15,12-16.4,26.6-9.3c3.7,1.8,9.8,0.2,14.4-1.2 c8.9-2.7,12.8-10.5,9.4-18C681.1,533.4,687.5,514.5,666,521.2z M754.7,486.9c-2.5,3.4-5.2,6.2-6.7,9.5 c-16.9,37.6-34,75.2-49.9,113.2c-1.9,4.6,0.8,13.7,4.6,17.6c13.3,13.9,25.5,10.6,34.1-8.5c12.9-28.7,25.9-57.3,38.3-86.2 c11.3-26.3,17.1-23.3-11.5-39.5C760.8,491.4,758.2,489.3,754.7,486.9z"></path> <path style="fill:#FFFFFF;" d="M425.7,315.9c4.5,5.1,9.7,9.1,12.5,14.3c11.2,21.1,2.3,51.2-29.6,55.1c-14.3,1.7-28.9,1.2-43.3,1.4 c-10.8,0.2-21.6-0.1-32.3,0.1c-4.2,0.1-5.4-1.4-5.4-5.4c0.1-37.7,0-75.4,0.1-113c0-9.1,3.9-14.9,12.6-15.3 c25.1-1.1,50.4-3.6,75.3,2.5c26,6.4,29.9,38.5,17.9,53.1C431.1,311.5,428.1,313.7,425.7,315.9z M354.1,331.3 c9.5,5.4,7.5,13.1,7.7,20.1c0,1,0,1.9,0,2.9c0.2,5.9,2.7,8.6,8.6,8.7c6.4,0.1,12.9,0.2,19.3,0c10.6-0.4,17.2-6.8,17.1-16.7 c-0.1-9.6-7-16.5-17.3-16.7c-9.6-0.2-19.1-0.1-28.7,0C359.3,329.8,357.7,330.4,354.1,331.3z M355.3,277.4c6.4,4.9,6.9,11,6.5,17.4 c-0.1,1.7-0.6,3.9,0.2,5.2c1.7,2.5,4,6.4,6.2,6.5c8.1,0.6,16.5,0.5,24.6-0.4c6.4-0.7,10.5-6.2,11.3-12.5c0.8-6.6-1.8-13.1-7.6-15.1 C383.1,273.8,369.3,277.2,355.3,277.4z"></path> <path style="fill:#FFFFFF;" d="M486.3,280.8c6.6,4.9,7.5,10.1,7.4,15.8c-0.2,8.1,2.3,10.4,10.3,10.4c12.5,0,25.1,0.2,37.6,0 c4.4-0.1,6,1.8,6,5.9c-0.1,4.3-0.1,8.6,0.1,12.9c0.2,5.1-2.2,6.9-7.1,6.9c-15.7-0.1-31.4,0-47,0.1c-1.8,0-3.6,0.5-6.7,0.9 c6.8,5.1,7,11.2,6.8,17.6s2.2,8.7,8.8,8.8c17.3,0.1,34.5,0,51.8,0c7.1,0,7.7,0.6,7.7,7.6c0,4.1-0.4,8.2,0.1,12.3 c0.7,6-1.9,7.2-7.4,7.1c-21.6-0.3-43.1-0.1-64.7-0.1c-7.4,0-14.9,0-22.3,0c-7.9,0-7.9,0-7.9-7.8c0-30.9-0.1-61.7,0-92.6 c0-7.2-0.1-14.5,0.9-21.6c1.1-7.8,6.2-11.9,14.2-11.9c26.9-0.2,53.7-0.1,80.6-0.2c3.8,0,5.3,1.7,5.3,5.2c0,4.7-0.2,9.4,0.1,14.1 c0.3,5.5-1.8,7.7-7.5,7.6c-19.8-0.2-39.6-0.1-59.4,0C491.9,279.7,490,280.3,486.3,280.8z"></path> <path style="fill:#FFFFFF;" d="M248.7,343.5c0.9-2.2,1.9-4.4,2.6-6.7c7.9-25.7,15.9-51.3,23.4-77c1.7-5.9,4.9-7.7,10.4-7.6 c6.5,0.2,12.9,0,19.4,0.1c5.8,0.1,6.9,1.5,5.1,7.2c-8.2,25.9-16.5,51.9-24.8,77.8c-4.5,14.2-9.1,28.3-13.3,42.6 c-1.5,5.1-4.1,7.3-9.6,7.1c-9.8-0.4-19.6-0.3-29.4,0c-4.6,0.1-6.9-2-8.1-5.9c-12.8-40.5-25.5-81-38.3-121.6c-1.8-5.7-0.9-7,5.1-7.2 c6.7-0.2,13.3,0,20-0.1c5.3,0,8.2,1.9,9.8,7.6c7.5,25.9,15.5,51.7,23.4,77.6c0.6,2.1,1.6,4.1,2.5,6.2 C247.5,343.5,248.1,343.5,248.7,343.5z"></path> <path style="fill:#FFFFFF;" d="M122.1,284.4c6,2.8,6.4,7.9,6.4,13.3c0,27.1,0,54.3,0.1,81.4c0,7.2-0.5,7.7-7.6,7.7 c-6.7,0-13.4-0.3-20,0.1c-5.9,0.4-7.8-1.5-7.8-7.5c0.3-27.5,0.1-55.1,0.1-82.6c0-1.6,0-3.1,0-4.7c-0.2-7.4-2.6-9.9-9.9-10 c-7.6-0.1-15.3-0.1-22.9,0c-4.7,0.1-7-1.3-6.9-6.7c0.1-18.8,4.1-23,22.8-23c27.8,0,55.7,0,83.5-0.1c8,0,8,0,8,7.7 c0,5.3-0.3,10.6,0.1,15.8c0.4,5.1-2,6.4-6.5,6.4c-11-0.1-22-0.1-32.9-0.1c-2,0-4,0.5-6,0.7C122.4,283.3,122.3,283.8,122.1,284.4z"></path> <path style="fill:#FFFFFF;" d="M646,284.1c7.8,3.6,6.6,10.2,6.6,16.3c0,26.4-0.2,52.7,0.2,79.1c0.1,6.1-1.9,7.8-7.7,7.4 c-7-0.5-14.1-0.4-21.1,0c-5.3,0.3-6.7-2.1-6.7-6.9c0.1-29.3,0.1-58.6,0.1-87.8c0-8-1.9-10-10-10c-9.4-0.1-18.7,0-28.7,0 c0-6.9-0.7-12.9,0.2-18.7c1.1-6.9,7.5-10.9,16.6-11c24.7-0.2,49.4,0,74.1-0.1c4.8,0,6.6,2.3,6.5,6.8c-0.1,5.5-0.2,10.9,0,16.4 c0.2,4.7-1.8,6.8-6.6,6.6c-5.7-0.2-11.4-0.1-17,0c-1.8,0-3.5,0.6-5.3,0.9C646.6,283.4,646.3,283.7,646,284.1z"></path> <path style="fill:#FFFFFF;" d="M783.5,250.9c3.8,3.1,6.2,6.8,9.1,7.1c16.8,1.9,12.1,11.9,8.2,21.1c-15.9,37.3-32.2,74.5-48.4,111.7 c-0.7,1.6-2.7,4-3.6,3.8c-8.3-1.5-18-1.5-24.5-5.9c-7.5-5.1-3.2-14.3-0.2-21.5c9.2-22,18.6-43.8,27.8-65.7 c5.5-13.2,10-26.9,16.6-39.6C771,257.1,778.1,254.7,783.5,250.9z"></path> <path style="fill:#FFFFFF;" d="M706.4,282.5c-0.4,0-0.8,0-1.2,0c-15.1,0-15.1,0-15.1-15.4c0-1.9-0.1-3.9,0-5.8 c0.3-7.2,1.8-8.7,8.9-9.3c5.2-0.4,10.4-1,15.6-1.1c6.1-0.1,8.5,2.5,8.4,8.4c-0.2,6-0.9,11.9-1,17.9c-0.1,4.3-2.1,5.8-6.2,5.4 C712.7,282.3,709.6,282.5,706.4,282.5z"></path> <path style="fill:#FFFFFF;" d="M897,437.6c-7.1-2.1-13.1-3.5-18.9-5.7c-9.5-3.5-13.2-12-9.1-20.9c9-19.7,18.3-39.2,27.4-58.9 c5.2-11.1,13.9-14.5,25.6-10c12,4.6,10.4,14.8,7.2,22.9c-7.1,18.2-16,35.7-24.1,53.5C902.3,424.9,899.6,431.4,897,437.6z"></path> <path style="fill:#FFFFFF;" d="M857.9,526.1c-7.5-1-15.9-0.8-23.1-3.6c-8.1-3.2-10.9-10.8-6.9-19.2c5.5-11.7,10.9-23.4,17.4-34.5 c6.2-10.5,14.3-1.6,21-0.1c9.8,2.3,11.9,9.8,8.1,18.8C869.3,499.9,864,512.1,857.9,526.1z"></path> <path style="fill:#FFFFFF;" d="M869,251.3c12.2,0.4,22.1,9.7,19.1,21.5c-1.7,6.6-10,14.5-16.7,16.1c-10.4,2.6-21.5-10.3-21.2-21.4 C850.4,259.5,860.1,251.1,869,251.3z"></path> </svg> 