<?xml version="1.0" encoding="UTF-8"?> <svg xmlns="http://www.w3.org/2000/svg" xmlns:xlink="http://www.w3.org/1999/xlink" version="1.1" id="Layer_1" x="0px" y="0px" viewBox="0 0 1000 1000" style="enable-background:new 0 0 1000 1000;" xml:space="preserve"> <path style="fill:#FFFFFF;" d="M422.9,760c0.1-6.8,0.1-13.6,0.2-20.4c0-0.3,0-0.7,0-1c0.2-1.7,0.4-3.5,0.6-5.2 c-2.2-0.1-4.3-0.3-6.5-0.3c-1.1,0-2.2,0.4-3.9,0.7c0-5.1,0-9.9,0-14.7c0-7.4,0-7.4,7.5-7.4c7.8,0,7.6,0,8.6-7.6 c0.5-3.7,1.6-7.4,2.5-11.4c-4.6,0-9-0.1-13.4,0c-2,0.1-3.3-0.3-3.4-2.7c-0.2-3.1-0.8-6.1-1.1-9.2c-0.3-3.2,1.4-4.6,4.6-4.5 c4.3,0.1,8.6,0,12.9,0c3.3,0,4.9-1.4,5.5-4.8c1-5.9,2.7-11.6,4-17.4c0.7-3,2.4-4.4,5.6-4.3c4.3,0.2,8.6,0.1,12.9,0.1 c2.3,0,3.4,0.8,2.7,3.4c-1.2,5-2.2,10.1-3.2,15.2c-1.1,5.6,0.8,7.7,6.5,7.8c10.2,0.2,9.2-0.9,10.8-8.7c0.9-4.5,2-9,3-13.5 c0.7-3,2.2-4.6,5.6-4.4c4.6,0.2,9.3,0.1,13.9,0.1c0.4,0,0.9,0.2,2.2,0.4c-1.2,6.7-2.4,13.4-3.7,20.7c2.5,0.2,5,0.1,7.4,0.5 c1,0.2,2.6,1.1,2.6,1.8c0.2,6.5,0.1,13.1,0.1,20c-3.8,0-7.3,0.2-10.9-0.1c-2.9-0.2-3.9,1-4.3,3.5c-0.6,3.6-1.2,7.3-2,10.9 c-0.7,2.9,0.5,4.1,3.3,4.1c3.7,0,7.4,0,11.1,0c0.8,0,1.6,0.2,2.6,0.3c0,7.2,0,14.3,0,21.1c-6.4,0-12.7,0.1-19-0.1 c-3-0.1-4,0.6-4.5,3.9c-1.3,7.1-3.5,14-5.5,21c-0.2,0.7-1.6,1.5-2.5,1.6c-3.7,0.2-7.4,0-11.1,0c-1.2,0-2.4,0.4-3.7,0.7 c-0.2,0-0.5,0-0.7,0c0.3-4.6,0.6-9.3,1-13.9c0.3-4.3,0.7-8.5,1.1-13.1c-4.6,0-8.8,0.2-13.1-0.1c-2.9-0.2-3.7,1.1-4.2,3.6 c-1.5,7.9-3.2,15.7-4.9,23.5C434.5,760,428.7,760,422.9,760z M451,711.6c5,0,9.7,0.1,14.3-0.1c0.7,0,1.6-1.5,1.8-2.4 c0.8-3.6,1.3-7.2,1.9-10.8c0.3-1.5,0.7-3.1,1.1-5.1c-4.6,0-8.7,0.2-12.8-0.1c-2.5-0.1-3.3,0.9-3.6,3 C452.9,700.9,452.1,705.7,451,711.6z"></path> <path style="fill:#FFFFFF;" d="M69,626.9c0.5-0.4,1.3-0.6,1.5-1.1c4-9.8,12.4-14.6,21.5-18c13.2-4.9,26.9-7.7,41.1-4.6 c9,2,15.5,7.4,19.1,16.6c-2.4,0.6-4.6,1.1-6.9,1.7c-6.7,1.7-13.4,3.4-20.2,4.9c-1.2,0.3-3.4-0.5-3.9-1.4c-2.9-5.6-13.4-5.2-17.1-2.3 c-2.1,1.7-3.7,3.6-2.8,6.8c1,3.7,3.9,4.9,7,4.9c6.4,0.1,12.7-0.6,19.1-0.2c6.6,0.4,13.4,0.9,19.8,2.6c10.5,2.7,17.4,9.7,18.5,20.7 c0.8,7.8-2.5,15-7.5,21c-7.6,9.2-18.2,12.9-29.3,15.3c-7.5,1.6-15.2,2.6-22.8,2.8c-13.9,0.4-25.1-7.3-30.4-20 c-0.6-1.3-1.5-2.5-2.5-4c0.7-0.3,1.5-0.6,2.3-0.9c9-2.7,18.1-5.3,27.1-8.1c1.8-0.6,2.7-0.2,3.6,1.4c5,9.6,14,9.8,21.5,6.1 c3.6-1.8,6.6-6.8,5.6-10.6c-0.4-1.7-2.2-3.6-3.8-4.3c-2.2-1-4.9-1.4-7.3-1.4c-7.4-0.2-14.8,0.2-22.2-0.1c-7.8-0.4-15.7-1.5-21.9-6.8 c-2.8-2.4-4.7-5.7-6.9-8.7c-0.9-1.2-1.5-2.6-2.3-3.9C69,632.5,69,629.7,69,626.9z"></path> <path style="fill:#FFFFFF;" d="M527.8,697.8c-0.5-0.3-0.8-0.5-1.1-0.7c-10.1-5.7-13.5-14.7-12.3-25.7c0.7-6.8,5.1-11.5,10.5-15.1 c6.8-4.5,14.3-6.5,22.4-7.3c10.1-1,20.2-0.6,29.8,2.5c5.2,1.7,10.3,4.6,14.7,8.1c10,7.9,8.7,22.1,1.3,30.9c-2.2,2.6-4.6,5-6.8,7.4 c2.5,2.1,5.4,4,7.8,6.6c18.6,19.7,4.8,46.4-14.1,51.8c-16.1,4.6-32.6,5.3-48.4-0.4c-23.4-8.3-27.7-38.2-11.2-53.4 C522.3,700.5,525,699.5,527.8,697.8z M556.4,707.8c-6.9,0-13.7,5.8-14.2,12.9c-0.3,4.6,0.2,9.5,1.6,13.9c0.9,3,3.6,5.9,6.1,8 c3.8,3.2,9.2,3,13.2,0.1c4.5-3.2,6.9-7.7,7.3-13.2c0.1-1.4,0.3-2.7,0.5-4.1C572.6,716.2,563.7,707.6,556.4,707.8z M557,689 c3.9,0,7.1-1.3,9.1-4.4c1.1-1.6,0.8-4,1.5-6c1.9-5.7,0-10.8-5.3-13.7c-5.5-3-12.4-1.2-16.2,3.5c-3.8,4.8-1.3,9.2,0,13.7 c0.4,1.4,1.1,2.7,2,3.8c0.5,0.7,1.5,1.2,2.3,1.5C552.5,688,554.7,688.4,557,689z"></path> <path style="fill:#FFFFFF;" d="M631.7,656c-1-31.1,1.2-61.9,3.3-93.2c11,0.8,22.1,1.7,32.9,2.5c-1.4,12.9-2.7,25.4-4,37.7 c4.3-4.1,8.5-8.2,12.8-12.3c7.3-6.9,14.6-13.8,22-20.7c0.8-0.8,2.2-1.5,3.2-1.4c14.2,1.5,28.3,3.1,43.3,4.7 c-2.3,1.5-4.1,2.4-5.6,3.6c-7.4,5.8-14.7,11.7-22,17.6c-3.4,2.8-6.5,5.9-10,8.5c-3.5,2.5-3.2,5.5-1.9,8.6c2.7,6.2,5.5,12.4,8.4,18.6 c3.6,8,7.4,15.8,11,23.8c1.2,2.8,2,5.8,3,8.7c0.7,2.1-0.1,3.1-2.3,2.8c-8.3-1.1-16.7-2.2-25-3.5c-0.9-0.1-2-1.4-2.5-2.4 c-4.6-10.5-9.1-21-13.6-31.4c-1.1-2.6-2.6-2.8-4.8-0.9c-5.7,5.1-11.2,10.4-17,15.3c-2.3,2-3.1,4.3-3.7,7c-0.3,1.5-0.5,3.1-0.7,4.7 c-0.6,3.3-2.4,4.4-5.5,3.6c-3.3-0.8-6.6-1.6-9.9-1.9C639.3,655.8,635.6,656,631.7,656z"></path> <path style="fill:#FFFFFF;" d="M357.2,621c0.7,1.7,1.7,3,1.6,4.3c-0.6,8.3-3.4,15.9-8.7,22.4c-8.3,10.2-19.5,14.7-32.2,16.6 c-8.9,1.3-17.8,1.9-26.6-0.1c-15.3-3.5-26.2-12.3-30.6-27.8c-1.8-6.5-3.7-13-4.6-19.6c-0.5-3.7,0.6-7.6,1.2-11.4 c0.4-3,0.7-6.1,1.8-9c4-10.8,12.4-17.6,22.5-22c15.2-6.6,31.2-7.9,47.2-3.6c14,3.7,23.6,12.9,27.8,26.6c2.1,6.7,3.5,14.1,2.1,21.4 C358.5,619.8,357.5,620.6,357.2,621z M288.1,611.6c0.7,7.3,1.8,16.3,6.6,24.3c3.3,5.5,10.6,8.7,17,7.5c7-1.3,11.9-4.9,14-12.2 c2.1-7.5,2.4-15,0.9-22.5c-1.3-6.6-3.7-12.8-9.7-16.6c-6.5-4.1-13.5-3.6-19.9-0.1C290.3,595.8,287.8,602.3,288.1,611.6z"></path> <path style="fill:#FFFFFF;" d="M580.1,648.1c0.6-10.3,1.3-20.3,1.9-30.9c-0.8-0.2-1.8-0.8-2.8-0.9c-7.4-0.3-14.8-0.5-22.1-0.8 c-2.6-0.1-3.6,0.6-3.5,3.5c0.2,8.3,0.1,16.7,0.1,25c-5.6,0.8-10.2,1.4-14.9,2.2c-1.7,0.3-3.3,1-4.9,1.5c-0.7,0.2-1.3,0.6-1.9,0.7 c-2.6,0.5-5.6-0.7-7.2,3.2c-0.3-0.3-0.5-0.6-0.8-0.9c-0.6-7.1-1.4-14.2-1.6-21.4c-0.4-11.8-0.4-23.7-0.4-35.5 c0-9.4,0.4-18.8,0.5-28.2c0-2.3-0.3-4.5-0.5-6.9c11.1,0,22.3,0,32.9,0c-0.2,8.9-0.4,17.2-0.5,25.5c0,1.6,0.1,3.2,0,4.8 c-0.1,5.1-0.1,5,5.1,5.2c6,0.2,12,0.5,18,0.6c4.9,0.1,6.4-1.4,6.6-5.8c0.3-8.5,0.6-17,0.8-25.4c0-1.1-0.4-2.2-0.6-3.8 c11.4,0.6,22.5,1.1,33.2,1.7c-0.9,13.5-1.8,26.6-2.6,39.7c-1,15.5-1.9,31.1-2.8,46.6c-0.4,6.2-2.7,7.9-9,6.6 c-0.8-0.2-1.5-0.6-2.3-0.6c-3.8-0.2-7.8,0.5-11.3-0.6C585.8,652.5,582.9,649.8,580.1,648.1z"></path> <path style="fill:#FFFFFF;" d="M776.4,578.8c17.5,0.7,31.9,3.3,43.9,12.9c10.7,8.4,15.9,19.4,14.5,33.1c-0.2,1.9-1.9,3.6-2.6,5.4 c-0.8,2.1-1.5,4.3-2,6.4c-1.9,9.4-6.7,17.2-13,24.2c-2.1,2.3-5.1,3.7-7.6,5.7c-5.8,4.9-13.5,4-20,6.6c-1.5,0.6-3.6-0.1-5.3-0.6 c-7.3-1.8-14.5-3.8-21.8-5.7c-15.5-4.1-22.9-15.7-26.9-30c-1.5-5.3-3-10.9-3.1-16.4c-0.6-17.4,12.7-34.8,29.8-39.4 C767.6,579.8,773.3,579.3,776.4,578.8z M803.6,620.6c0-0.5,0.1-0.9,0.1-1.4c-0.5-13.3-9.1-18.5-19.8-19.2c-7-0.5-13.1,4.5-16.3,12.1 c-3.2,7.7-4.2,15.6-3.5,24c1,12.7,9.5,19.8,21.8,17.1c4.1-0.9,7.6-3,10.1-6.6C801.4,638.8,802.4,629.7,803.6,620.6z"></path> <path style="fill:#FFFFFF;" d="M858.6,689.5c-7.1-33.5-9.9-67.8-19.1-101.6c11.6,2.2,23.2,4.3,34.7,6.4c1.6,23.9,3.2,47.3,4.8,70.7 c0.2,0.1,0.5,0.1,0.7,0.2c0.6-0.9,1.2-1.8,1.7-2.7c9.3-18,18.6-36,27.9-54c0.1-0.1,0.1-0.2,0.2-0.3c3.2-6,3.2-5.9,9.8-4.4 c8.6,2,17.1,3.9,25.7,5.9c1,0.2,1.9,0.5,2.1,0.6c-5.1,7.1-10.5,14.2-15.4,21.6c-11,16.5-21.8,33.2-32.7,49.8 c-2.4,3.7-5.3,7.2-7.3,11.1c-1.5,2.8-3.6,3-6,2.5C876.6,693.4,867.6,691.4,858.6,689.5z"></path> <path style="fill:#FFFFFF;" d="M507.6,586.7c-10,1.9-19.8,3.7-29.7,5.5c-2,0.4-2.5-0.9-3-2.4c-1.3-4.1-4.1-7.3-8-9.1 c-6.3-2.9-14.2-0.3-17.6,5.9c-1.4,2.5-1.9,5.5-2.9,8.3c-0.7,2.1-1.8,4.1-2.3,6.2c-0.3,1.1,0.3,2.5,0.6,3.7c0.4,1.5,1.4,2.8,1.5,4.3 c0.3,7,2.5,13.6,5.5,19.8c3.1,6.4,14.2,7,18.2,0.7c2.5-4.1,3.8-8.9,5.9-14.1c10.1,2.4,21,4.9,31.8,7.4c-1.1,3.2-1.8,5.9-3.1,8.4 c-1.7,3.4-3.7,6.7-5.8,10c-1.5,2.3-3.6,3.3-6.5,3c-3-0.3-6.1,0-9.2-0.1c-2.1-0.1-3.3,0.7-3.4,2.9c-0.2,3-2,4-4.8,4.1 c-3.9,0.2-7.7,0.6-11.9,0.9c0-2.8,0-5.2,0-7.9c-6.7,0-13.2-0.1-19.6,0.1c-1,0-2,1.7-2.5,3.1c-0.4,0.1-1,0.3-1.3,0.2 c-3.9-1.9-8.4-2.1-11.6-5.8c-6.9-7.8-11.3-16.7-12.3-27.1c-0.6-6.6-1.7-13.3-1.1-19.8c1.6-17.2,14.7-30.7,32.7-34.5 c10.5-2.2,21.1-2.5,31.7-0.1C494,563.6,502.7,573.3,507.6,586.7z"></path> <path style="fill:#FFFFFF;" d="M235.3,674.9c-9.7,1.6-18.7,3.2-27.8,4.6c-2.2,0.4-3.9,0.4-4.4-3c-1.7-11.6-5.1-23.1-5.7-34.8 c-0.6-11.3-3.7-22-4.6-33.1c-0.2-2.7-1.8-3.5-4.2-3.1c-8.4,1.5-16.7,3-25.1,4.6c-4.6,0.9-4.6,0.8-5.5-3.8 c-0.9-5.1-2.1-10.2-3.4-16.2c32.8-5.2,66.2-10.5,99.9-15.8c0.8,7.6,1.5,14.3,2.2,21c-9.8,1.3-19.2,2.7-28.7,3.9 c-4.5,0.6-4.6,0.5-4,5c0.7,5,1.2,10.1,2,15.1c1.1,6.8,2.6,13.4,3.7,20.2c1.7,10.4,3.3,20.9,4.9,31.3 C234.7,672.1,235,673.5,235.3,674.9z"></path> <path style="fill:#FFFFFF;" d="M368.4,563.2c10.4-0.7,21.6-1.4,32.3-2.1c2,32,4,63.7,6,95.8c-10.8,0.7-20.9,1.4-31.7,2.1 c-1-16.1-1.8-32-2.9-47.9C371,595.4,369.7,579.6,368.4,563.2z"></path> <path style="fill:#FFFFFF;" d="M375.7,545.5c-0.2-3.4-0.5-6.7-0.5-10.1c0-2.4-0.7-3.8-3.3-4.2c-8.4-1.5-16.7-3.1-25-4.9 c-8.1-1.8-16.2-4.2-24.3-6.1c-5.9-1.4-11.9-2.1-17.7-3.6c-11.3-2.8-22.6-5.9-33.9-8.9c-4.4-1.1-8.8-2.2-13.3-3.1 c-2.9-0.6-5.4,0.2-7.1,2.9c-6.3-4.3-8.7-10.3-10.1-17.4c-1.3-6.3-2.2-12.6-2.3-19c0-0.7-0.9-1.6-1.5-1.9c-10.5-4.2-21-8.3-31.5-12.4 c-12-4.7-23.1-11.1-33.5-18.6c-14.9-10.6-29.9-21.1-44.6-32.2c-15.1-11.4-28.9-24.3-41.4-38.4c-6.5-7.3-12.8-14.7-18.9-22.3 c-2.1-2.6-3.1-6.2-5.3-8.8c-3.8-4.4-8.2-8.4-12.2-12.6c-1.7-1.8-3.2-3.9-4.8-5.8c-2.6-3.3-5.5-6.4-7.6-10c-2.5-4.1-1.8-4.7,2.1-6.3 c6.7-2.9,13.4-4.9,20.9-4.5c4.1,0.2,7,2,9.6,4.8c0.5,0.5,0.9,1,1.9,2.1c1.5-2.4,3-4.3,3.8-6.5c0.4-1-0.4-3.1-1.4-3.7 c-3.4-2.5-7.1-4.7-11.5-7.5c1.5-0.1,2.6-0.5,3.2-0.1c3.9,2.5,7.7,5.3,11.5,7.9c0.2,0.2,0.5,0.3,0.3,0.2c1.1-0.8,1.9-1.6,2.8-2.1 c2.1-1.2,3-4.9,1.6-7c-2.4-3.6-2.3-3.7,1.2-6.1c1.7-1.2,2.4-2.7,1.1-4.7c-0.3-0.5-0.5-1.1-0.6-1.9c4,4.7,9.1,5.5,14.8,4.8 c-2.1-0.5-4.1-1-6.2-1.5c0-0.3-0.1-0.5-0.1-0.8c4.6-1.8,9.2-3.7,14.1-5.6c0.7,5.7-4.2,7.3-7.8,10.5c2.5,0.5,4.3,0.8,6,1.1 c0.2-0.3,0.5-0.6,0.7-0.9c-0.7-0.3-1.5-0.6-2.4-1.1c1.4-0.9,2.5-1.6,4.4-2.8c0.3,4.3,1,8,0.8,11.6c-0.3,5-1.5,10-2.1,15 c-0.5,4.1-1.9,7.7-4.9,10.7c-2.6,2.5-2.5,3.6-0.3,6.5c0.4,0.5-0.2,1.6-0.3,2.5c-4.4-1.1-4.7,3.2-6.7,5.2c-1.9,1.9-3.2,4.3-4.9,6.4 c-0.3,0.4-1.1,0.7-1.6,0.6c-3.1-0.3-4.4,0.6-5,3.3c-0.2,0.7-0.4,1.5-1.2,2.8c3.9,2.8,7.9,5.5,11.6,8.6c3.9,3.2,7.4,6.9,11.1,10.3 c5.1,4.7,10.1,9.4,15.3,13.9c5,4.4,10.1,8.7,15.3,12.7c4.6,3.5,9.6,6.6,14.4,9.9c8.1,5.7,16.4,11,24,17.3 c8.8,7.3,19.4,10.3,29.7,14.2c8.4,3.2,16.8,6.2,25.3,9.3c4.6,1.7,9.3,2.6,14.2,1.5c3-0.7,4.8-2.7,5.3-5.8c0.3-1.5,0.7-3.1,0.9-4.6 c0.4-2.4,1.7-2.2,3.5-1.6c3,0.9,6.2,1.5,9.3,2.3c0.3-0.3,0.6-0.5,0.9-0.8c-0.9-4.1-1.9-8.2-2.5-12.4c-0.7-4.6-4.6-6.8-7.4-10.4 c1-0.1,1.8-0.5,2.2-0.2c4.3,2.9,9.7,1.5,14.2,3.3c0.4,0.2,1,0.1,1.4,0c6.5-2,13-1.2,19.5,0.1c6.4,1.2,12.7,2.6,19.1,3.8 c0.1-0.1,0.3-0.2,0.3-0.4c0.4-4.7,0.6-5.1,5.5-5.7c4.9-0.6,9.9-0.7,14.9-1.2c7.8-0.8,15.6-1.8,23.4-2.7c5.3-0.6,10.6-1.4,15.9-2 c-0.4,1.8-0.7,3.6-1.1,5.5c3.3-2.4,4-7.7,9.6-6.8c-1.7,2.1-0.7,3.4,1.4,4.1c4.1,1.5,8.2,1.2,12.3-0.4c2.1-0.8,1.6-2.1,0.2-3 c-1.3-0.8-2.8-1.2-4.9-2.1c1.4-0.2,2.2-0.6,2.9-0.3c1.9,0.7,3.9,1.4,5.5,2.5c1.2,0.9,2.9,2.7,2.6,3.7c-0.3,1.3-2.1,2.7-3.6,3.2 c-5.9,2.1-11.7,1.6-17.4-0.9c-0.6-0.3-1.2-0.4-2-0.7c6.6,6.4,15.3,7.1,22.1,3.3c2.9-1.7,3.4-5.1,1.1-7.6c-1.1-1.2-2.3-2.3-3.5-3.5 c0.1-0.3,0.2-0.5,0.4-0.8c3.6,0.2,7.3,1,10.8,0.6c8.6-0.9,17.1,0.3,25.5,1.4c7.3,1,14.4,3.4,21.6,5.2c0.3,0.1,0.5,0.2,0.8,0.3 c4.8,1.1,4.8,1.1,7.4,5.3c-3.1-13.6,1.9-24.2,9.6-34.1c-0.8,6,0.8,11.1,5,15.6c-3.6-7.8-3.4-14.9,3.8-21.3c-1.9-1.3-3.7-2.5-5.5-3.8 c-3.6-2.6-7.3-5.1-10.8-7.9c-1.6-1.2-3-2.6-4.1-4.2c-5.7-7.8-11.3-15.6-13.6-25.2c-1.1-4.6-2.1-9.2-3.2-13.8c-0.2-0.9-1-1.6-1.4-2.4 c-0.5-1.1-1.3-2.3-1.4-3.5c-0.4-8.1,0-16.2,2.9-23.8c1.2-3.3,3.5-6.3,5.2-9.5c0.9-1.5,2.8-2.8,0.4-4.7c-0.4-0.3,0.2-2.3,0.8-3.2 c2.5-4.3,5.2-8.5,8-13.2c-1,0.4-1.6,0.6-2.6,0.9c1.8-4.5,3.9-9.6,7.6-11.1c5.1-2.1,5.9-7.4,9.9-10c3.3-2.2,6.5-4.6,9.5-6.8 c-0.2-0.1-0.9-0.4-1.9-0.9c4.6-3.1,9.8-4.2,15.1-4.7c4-0.4,8.3,0.9,11.9-0.3c4.3-1.5,7.8,0.4,11.6,1c2.2,0.3,4.2,1.9,6.3,2.9 c-0.1-0.4-0.2-1-0.4-1.7c0.6-0.1,1.1-0.3,1.4-0.1c4.6,2.2,10.6,0.7,14.2,5.9c1.1,1.6,4.3,1.7,6,3.1c2.2,1.7,3.9,4,5.7,6.2 c1.4,1.8,2.7,3.7,4.2,5.7c-5.8-1.4-11.2-2.9-16.7-4.1c-2.3-0.5-4.6-0.8-6.9-0.9c-5.7-0.1-11.5-0.6-17.1,0.1 c-5.1,0.6-10.2,2.1-15,4.1c-7.9,3.2-15.1,7.6-19.5,15.3c-2.1,3.7-3.8,7.7-3.6,12.1c0,0.8,0.1,1.7,0.5,2.4c3.3,5.2,3.7,11.2,4.5,17.1 c0.5,3.9,4.9,7.6,8.8,6.9c4.4-0.8,8.7-2.1,13.1-2.5c5-0.6,10.2-1.4,15.1,1.3c1.6,0.9,3.6,1,5.5,1.2c2.2,0.2,3,1.8,4.5,3 c3.7,3,4.7,7.7,7.8,11.1c1.9,2.1,3.2,4.7,5.2,6.7c1.1,1.1,3,1.2,4.5,1.8c0.5,0.2,1.1,0.2,1.5,0.5c1.3,1.1,3.4,0.9,3.9,2.9 c2.3-1.5,3.8,1.1,5.9,1.3c2.3,0.2,4.4,2,6.6,2c2.1,0,4.2-0.8,6.4-0.6c1.4,0.1,2.9-0.4,4.3-0.2c3.5,0.3,7,0.6,10.5,1.3 c2.9,0.6,3.6-2.1,3.9-3.3c1.2-5.7,3.2-11.4,1.4-17.3c0-0.2-0.2-0.3-0.9-1c-0.9,3.6-1.7,6.8-2.5,10c-0.3,1.3-0.4,2.6-1.1,3.7 c-0.5,0.8-1.8,1.6-2.5,1.5c-3.8-0.7-7.6-1.5-11.3-2.6c-2-0.6-3.8-2.1-5.6-3.2c0.4-5,4.4-3.9,6.9-4.9c3.6-1.4,7.1-0.5,10.5,1.2 c-0.2-2.5-2.5-4.7-4.4-4.7c-2.5,0.1-5,0.3-7.4-0.1c-5.3-0.9-10.4-1-15.8-0.1c-5,0.9-10-0.6-14.4-3.3c-0.9-0.5-1.5-1.6-2.2-2.5 c5-0.9,8.7-3.6,12.6-6.2c4.5-3.1,9.1-5.9,15.2-4.5c2.9,0.7,6.2,0.6,9.1,0c2.8-0.5,4.2,0.9,5.1,2.7c1.5,3.1,3.9,4.6,7,5.9 c0.6-1.3,1.2-2.5,1.8-3.7c0.3,0,0.6,0,0.9,0c0.3,3.5,0.6,7.1,0.9,10.6c0.5,5.2,1.1,10.4,1.8,15.6c1,7.1,0.9,14.1-0.9,21.1 c-1,4.1-2.2,8.2-3.2,12.4c-1.1,4.5-3.4,8-7.8,9.9c-3.5,1.6-5.4,4.5-5.9,8.1c-1,6.8-1.6,13.7-2.8,20.5c-0.6,3.6,1.1,5.9,3,8.6 c5.7,8.4,11.1,17,16.6,25.5c0.1,0.2,0.4,0.4,1,0.4c-1.1-2.3-2.2-4.5-2.9-6.1c1.4-0.8,2.7-1.5,3.9-2.3c1.3-1,2.5-2.2,3.7-3.2 c1.8-1.5,3.7-3,5.5-4.5c3.6-3,8.2-3.3,12.5-4c3.1-0.5,6.3-1.1,9.5-1c3.9,0.1,7.8,0.8,11.6,1.3c0.6,0.1,1.1,0.3,1.6,0.3 c8.8-0.3,17.1,2.3,25.6,4.1c5.6,1.2,11.2,2.8,17,1.1c1.1-0.3,2.5-0.1,3.7-0.1c1.5,0.1,2.5,0.6,2.3,2.4c-0.2,2.6,1.4,2.1,2.9,1.5 c3.2-1.3,6.3-2.7,9.4-4.1c6.6-2.8,13.3-5.7,20-8.3c7.6-2.9,15.2-5.7,23-8.3c5.5-1.8,11.2-3.1,16.8-4.8c2.1-0.6,4.1-1.7,6.2-2.7 c4.7,3.4,13.6,17.4,16,25.3c2.7-1.9,5.4-3.7,7.8-5.7c2.2-1.8,4-1.1,5.7,0.5c1.2,1.1,2.1,2.4,3.1,3.6c1.1,1.3,2.1,1.9,4,1.2 c4.6-1.5,7.6-5.1,11.1-8.1c7.1-6.2,12.5-13.8,18.2-21.2c0.8-1.1,2.1-2.3,3.3-2.5c5.5-0.8,8.3-4.7,11.3-8.7 c3.5-4.6,7.5-8.9,11.1-13.5c4.4-5.6,8.6-11.2,12.9-16.9c5.7-7.4,11.4-14.8,17-22.2c3.8-5,3.6-8.7-0.2-13.3c0.6-2,1.1-3.7,1.6-5.7 c0.7,0.4,1.1,0.6,1.4,0.9c5.3,5.1,10.5,6.3,17.1,2.7c5.3-2.8,10.3-6.3,15-10.1c2.2-1.8,3.1-5.1,4.7-7.7c1.2-1.8,3-3.2,3.8-5.1 c0.7-1.9,0.4-4.2,0.6-6.4c1,1.5,2,2.9,2.9,4.3c1.2-2.4,2.2-4.4,3.4-6.4c2.4-3.8,2.5-4,0-7.4c-2.4,2.4-4.9,4.9-7.5,7.5 c-1.5-2.4-2.6-4.2-3.7-6c-1.3-2.1,0.7-5.3,3.1-5.5c0.9-0.1,2.2-1,2.5-1.8c0.6-2,2-3.9,0.7-6.4c-0.9-1.8,1.8-5.4,3.8-5.9 c0.6-0.1,1.2-0.8,1.5-1.4c1-2,1.7-4.1,2.9-6c0.5-0.8,1.9-1.1,2.9-1.6c0.1,0.9,0.5,1.8,0.3,2.6c-0.6,3-1.3,6-2.1,8.9 c-0.9,2.9-1.9,5.8-2.9,8.5c2.3,1,4.6,2.1,6.7,3c0.9,6.4-3.6,10.5-6.6,15.1c-5.3,7.9-10.6,15.7-16.5,23.2c-4.7,6-11.1,10.3-17.9,13.8 c-2.4,1.2-4.4,2.5-5.8,5.1c-2,3.7-5,6.9-7.6,10.3c-2.1,2.8-4.2,5.7-6.3,8.5c-3.9,5.4-7.9,10.8-11.8,16.3c-7,9.9-13.8,19.9-21,29.6 c-3.9,5.4-8.5,10.3-12.7,15.5c-3.8,4.6-7.4,9.4-11.1,14c-5.1,6.4-11,11.9-18.3,15.6c-5.3,2.7-10.8,4.9-16.4,6.8 c-2.8,1-3.7,3.5-5.8,4.9c-2.5,1.7-2.8,3.9-2.9,6.6c-0.1,9-0.5,18-0.7,27c0,1.6-0.5,2.3-2,2.7c-10.1,2.6-18.8,7.8-27.6,13.2 c-3.7,2.3-7.8,4-11.8,5.7c-11.5,4.9-22.9,9.9-34.6,14.4c-6.2,2.4-13,3.4-19.4,5.4c-11.6,3.7-23.6,6.3-34.3,12.4 c-3,1.7-5.8,3.6-8.6,5.5c-0.6,0.4-1.3,1-1.5,1.6c-0.8,3.3-1.4,6.6-2.1,10c-12.5,0-25.1,0-37.6,0c0-0.9-0.1-1.9,0.1-2.8 c0.8-5.7,2.1-11.5-3.4-15.8c-0.1-0.1-0.1-0.4-0.2-0.5c-3.2-4.6-6.3-9.2-9.7-13.6c-1-1.4-2.9-3-4.4-3c-14.9-0.4-29.7-0.5-44.6-0.6 c-1.1,0-2.6,0.7-3.3,1.5c-4.5,5.1-9,10.3-13.3,15.6c-1.3,1.6-3.3,3.2-3.5,4.9c-0.3,4.8,0.2,9.6,0.3,14.4 C472.9,545.5,424.3,545.5,375.7,545.5z M84.1,310.7c1.4,0.9,2.6,1.5,3.8,2.3c1.8,1.2,3.3,1.1,3.8-1.2c0.6-2.6,3.2-3.8,4.2-6.4 c1.2-3.2,4.2-5.7,6.3-8.5c2.6-3.4,2.9-7.3,0.6-10.5c1,0.4,1.8,0.7,2.3,0.9c-0.3-1.3-0.5-2.6-0.8-3.9c0.2-0.2,0.4-0.5,0.6-0.7 c-3.5-0.9-7-1.8-10.4-2.7c-0.1,0.2-0.2,0.4-0.3,0.6c1.6,1.2,3.3,2.4,4.9,3.7c-2.3-0.2-4.3-0.9-6.3-1.5c-0.7-0.2-1.8-0.2-2.3,0.2 c-2.4,2.2-5,4.3-4.5,8.2c0.6,4.7-0.7,8.9-4.6,12.1c1.8,1.3,3.5,2.6,5.1,3.8c-0.1,0.1-0.2,0.3-0.3,0.4c-1.5-0.7-2.9-1.4-4.4-2.1 c-3,4.2,0,10,5.7,11.2C88.6,313.3,84.5,313.5,84.1,310.7z M492,361.6c-0.2,0.8-0.7,1.6-0.6,2.3c0.4,2.2,0.8,4.3,1.5,6.4 c1.1,3.3,2.7,6.5,3.5,9.8c0.7,3,1.6,5.6,4.1,7.5c0.5,0.4,1,1.2,1.1,1.8c1.5,8.6,6.2,15.8,10.7,22.9c1.5,2.3,3.9,4.1,5.1,6.6 c1.1,2.2,2.1,3.6,5,3.8c-1.7-2.1,0-5.5-2.7-6.3c0.2-1.7,1-3.5,0.5-4.8c-1.6-4.1-3.6-8-5.6-12c-1.5-3.2-3.2-6.3-4.7-9.4 c-2.3-4.8-4.6-9.6-7-14.3c-0.8-1.6-2.2-3-3.3-4.5c-0.2-0.2-0.4-0.4-0.4-0.6C498.5,366.4,496.9,364.4,492,361.6z M526,318.3 c1.8-1,2.3-2.4,0.5-4.4c-0.4-0.4-0.3-1.2-0.5-1.8c-1.4-4.5-6.6-9.1-12.3-6.8c-0.9,0.4-2,0.4-3,0.6c-4,0.6-7.9,1.1-11.9,1.6 c-0.1,0.4-0.2,0.8-0.3,1.3c1.2,1.3,2.2,3.3,3.7,3.8c3.5,1.2,7.2,1.6,10.8,2.5c1.4,0.4,2.9,1,3.8,2c1.7,1.7,3.1,3.8,4.6,5.8 c0,0,0.7-0.4,1.1-0.6c0.1,0.7,0.2,1.5,0.4,2.8c0.9-1.8,1.7-2.8,2.7-1.3c0.4-0.6,0.7-1.1,1-1.6c0.3,0.1,0.6,0.2,0.8,0.2 C527,321.1,526.6,319.8,526,318.3z M467.3,326.8c-0.1-0.1-0.3-0.3-0.4-0.4c-1.3,0.7-2.5,2-3.8,2c-0.9,0-1.9-1.6-3-2.8 c-0.2,0.3-0.9,1-1.2,1.9c-1.1,3.8,0.5,8.1,3.7,10.2c5.6,3.6,13.6,3.5,19.1-0.1c1.2-0.8,1.8-3.2,2-4.9c0.1-0.8-1.2-2.6-1.9-2.7 c-3.9-0.3-5-2.9-5.7-6c-0.1-0.6-0.9-1.1-1.4-1.6c-0.5,0.6-1.5,1.3-1.5,1.9c0.1,2.4,0.6,4.7,0.9,6.7c-1,0.6-2.8,1.2-3.1,2.2 c-0.9,2.8-3.1,2.7-4.7,2c-0.7-0.3-0.9-2.9-0.7-4.4C465.8,329.4,466.7,328.1,467.3,326.8z M557.8,475.7c5.8-9.7,11.6-19.3,17.4-28.9 c-0.2-0.3-0.4-0.6-0.6-0.9c-0.8,0.4-2,0.5-2.5,1.2c-5.4,7.6-10.3,15.5-13.6,24.2c-0.2,0.4-1.6,0.9-1.9,0.7c-2.7-1.7-5.2-3.6-7.8-5.4 c-7.9-5.2-15.9-10.4-23.8-15.5c-1.2-0.8-2.6-1.2-3.3,0.5C533.6,459.5,545.4,467.4,557.8,475.7z M576.3,428.5 c-0.5,1.4-1.3,2.3-1.1,3.1c0.8,3.1-1.1,3.7-3.4,4.2c-3.3,0.6-5.1,2.6-4.9,5.5c3.9-0.5,7.8-1.1,11.7-1.5c5.5-0.6,10.7,1,15.9,2.4 c2.6,0.7,5.2,1.2,8.1,1.9c-0.6-2.7-1.9-4.2-4.2-4.9c-4.5-1.5-9-2.8-13.3-4.6C581.9,433.2,578.2,432.7,576.3,428.5z M75.6,323.9 c0.6-10,0.2-12.2-6-13.9c0.1,0.9,0.2,1.7,0.4,2.6c-1.6-0.8-2.9-1.6-4.3-2.3c-1.4-0.6-3-1-4.4-1.7c-1.6-0.7-2.7-0.3-3.6,1 c-0.6,0.8-1.2,1.6-1.8,2.6C61.6,317.4,68.3,320.8,75.6,323.9z M523.2,442.2c-1.5,0.9-2.6,1.7-3.9,2.3c-10.8,5.3-21.7,10.6-32.4,16 c-0.6,0.3-1.1,1.7-0.9,2.3c0.3,0.6,1.6,1.3,2.2,1.1c2-0.7,3.9-1.7,5.8-2.7c3.2-1.8,6.3-4,9.6-5.6c8.1-3.8,16.2-7.3,24.4-11 C526.4,443.8,524.6,442.9,523.2,442.2z M451.3,328c0.2-1,0.6-1.9,0.7-2.9c0.4-4,1.2-5.3,4.9-5.9c1.9-0.3,4-0.1,6,0.2 c2.9,0.4,5.8,0.9,9.2,1.5c-4.8-5.3-9.5-7.2-16.4-4.2C451.7,318.4,450.5,321.2,451.3,328z M56.8,308c-1.3-3.3-3.2-4.4-6.3-1.8 c-0.4,0.3-1.7-0.6-2.6-0.9c-0.6-0.2-1.4-0.6-1.9-0.4c-0.6,0.2-1.2,0.8-1.4,1.4c-0.2,0.9-0.1,1.8-0.1,2.7 C52.2,312.8,52.4,312.8,56.8,308z M491,413.5c0.8-2.3-9.3-16-13.7-18.7C480.4,402.5,485.4,408.1,491,413.5z M523.5,424.7 c-0.5,0.1-0.9,0.2-1.4,0.3c-2,2.9-1.1,5.9,0.1,8.8c1,2.2,2.5,4.2,5.4,3.9c-0.9-3-1.7-5.9-2.6-8.9C524.5,427.4,524,426,523.5,424.7z M84.5,319.1c0.3-0.1,0.6-0.3,0.9-0.4c-1.8-2.1-3.5-4.1-5.2-6.1c-0.6,0.3-0.8,0.3-0.9,0.4c-1.6,1.6-1.2,8.4,0.6,9.6 c0.5,0.3,1.7,0,2.2-0.4C83.1,321.3,83.7,320.1,84.5,319.1z M560.5,404c-1.1-1-1.6-1.1-3.2,0.4c-0.7,0.7-1,2.1-2.4,0.7 c-0.3-0.3-1.6,0.4-2.4,0.7c0.3,0.7,0.4,1.5,0.8,2c1,1.3,2.2,2.5,3.2,3.5C559.8,410.1,559.8,407,560.5,404z M481.9,390.8 c2.9-5.1,3.6-12.6,1.2-16.9C482.7,379.3,482.3,385,481.9,390.8z M502.7,426.1c0.2-0.2,0.5-0.4,0.7-0.6c-2.4-2.8-4.7-5.7-7.1-8.5 c-0.3,0.2-0.5,0.4-0.8,0.6C497.9,420.4,500.3,423.2,502.7,426.1z M569.8,298.1c-0.3-2.5-1.8-2.7-3.6-2.4c-0.5,0.1-0.9,0.8-1.3,1.2 c0.4,0.3,0.8,0.9,1.2,1C567.2,298,568.3,298,569.8,298.1z M558.4,297.4c0.3,0.5,0.6,1.1,0.9,1.6c1.1-0.5,2.2-1,3.3-1.5 c-0.4-0.5-0.9-1.6-1-1.5C560.4,296.3,559.4,296.9,558.4,297.4z"></path> <path style="fill:#FFFFFF;" d="M550.6,545.5c-0.9-4.7,3.2-6.8,5.2-9.9c0.3-0.4,1.4-0.3,2.1-0.3c3.6,0,7.2,0,10.8,0 c5,0,8.3,4.3,7,9.1c-0.1,0.4,0,0.8,0,1.1C567.3,545.5,559,545.5,550.6,545.5z"></path> <path style="fill:#FFFFFF;" d="M504.6,271.4c2.9-4.7,5.5-9.5,8.7-13.8c5.9-7.8,14.4-9.2,23.5-8.5c3.1,0.2,4.2,2.2,4.1,5.4 c-0.2,3.4-0.4,6.7-0.5,9.1c-2.9,1.3-5.1,2.3-7.4,3.3c0.1,0.3,0.2,0.6,0.3,0.9c0.8-0.3,1.6-0.5,2.3-0.8c0.9,2-0.3,4.9-3,5.2 c-4.2,0.5-8.5,0-12.8-0.1c-0.8,0-1.6-0.3-2.4-0.5c1.4-0.5,2.9-1.1,4.3-1.6c0-0.1-0.1-0.3-0.1-0.4c-1.7,0.4-3.3,0.7-5.2,1.1 c3.4-4.3,8.2-4.7,12.8-5.8c0.9-0.2,2.2-0.4,2.4-0.9c0.2-0.7-0.3-1.8-0.8-2.5c-2.2-3.1-7.1-2.9-10-0.4c-2.3,1.9-4.2,4.6-6,7 C512.2,271.7,509.3,273.3,504.6,271.4z"></path> <path style="fill:#FFFFFF;" d="M574.9,286.6c-1.1-0.2-2.2-0.3-3.3-0.5c-0.6-0.1-1.4-0.3-1.9,0c-3.3,1.2-5.8,0.7-7.1-2.2 c-1.3-2.9-3.3-2.8-5.7-2.2c-1.1,0.2-2.2,0.5-3.1,1c-2.1,1.1-3.3-0.1-4.7-1.5c2.7-5.9,7.6-9.8,13.2-12.5c2.7-1.2,6.3-0.4,9.5-0.3 c0.4,0,1,1,1.1,1.6c0.6,2.3,1.1,4.7,1.6,7c0.1,0.7,0.3,1.6,0,2.2c-1.4,2.5-1.7,4.7,1.1,6.8C575.3,286.2,575.1,286.4,574.9,286.6z"></path> <path style="fill:#FFFFFF;" d="M38,212.8c2.4,5.8,3.7,12.1,8.2,16.9c-1.6,2.4-0.3,5.2,0.4,7.9c0.7,2.6,1.7,5.1,2.9,7.4 c0.5,1,1.8,1.6,2.8,2.4c-1.6,1.2-1.2,3-0.1,5.1c1.2,2.2,1.9,4.6,3,6.9c2.2,4.6,1.8,5.9-3.8,8.4c-1.6-6.2-3.1-12.4-4.7-18.5 c-1.6-6.1-3.5-12.1-5-18.2C40.3,225.1,37.1,219.4,38,212.8z"></path> <path style="fill:#FFFFFF;" d="M938.8,230.3c-0.1,0.7-0.1,1.5-0.4,1.9c-4.2,4.6-4.7,11.1-7.9,16.1c-1.8,2.8-3.7,5.5-5.5,8.3 c-0.5,0.8-0.9,1.8-1.4,2.7c-0.5,0.8-1,2-1.7,2.1c-0.7,0.1-1.8-0.7-2.3-1.4c-1.1-1.5-2-3.3-3.1-5c1.7-1.5,2.8-3.6,5.6-2.3 c0.4,0.2,1.8-0.7,2-1.4c0.4-1.2,0.9-2.7,0.4-3.7c-0.6-1.3-1.2-2.5,0.1-3.4c4.2-2.9,5.7-7.7,8.4-11.6 C934.4,230.4,936.2,229.9,938.8,230.3z"></path> <path style="fill:#FFFFFF;" d="M909.7,254.2c-2-1.6-3.9-3.1-6.2-4.9c0.8-0.2,1.1-0.3,1.4-0.3c4.6,0.1,5.8-0.9,5.1-5.5 c-0.5-3.1,1-5.3,1.7-7.9c0.4-1.4,0-3,0.1-4.5c0.1-1.2,0.1-2.5,0.7-3.4c1.3-1.9,2.9-3.5,4.4-5.2c0.9-1,1.9-1.8,3.1-2.5 C919.3,232.1,914.7,243,909.7,254.2z"></path> <path style="fill:#FFFFFF;" d="M573.7,267.4c-3.1-5.9-9.2-7.4-14.4-10.2c-1.1-0.6-2.2-1.1-3.1-1.9c-0.7-0.6-1.6-2-1.4-2.5 c0.4-0.8,1.8-1.6,2.6-1.5c6.3,1,12,2.9,14.1,9.9C572.2,263.3,572.9,265.4,573.7,267.4C573.6,267.5,573.7,267.4,573.7,267.4z"></path> <path style="fill:#FFFFFF;" d="M881.6,300.3c-3.7,2.3-8.2,1.2-10.1-2.2c-1.5-2.6-3.2-5-4.5-7.6c-0.8-1.5-1.1-3.3-1.4-4.4 c3.2,1.7,6.8,3.3,9.9,5.5c1.4,1,2.5,3.3,2.7,5.1C878.5,299,878.7,300.6,881.6,300.3z"></path> <path style="fill:#FFFFFF;" d="M573.6,267.5c1.4,3.2,2.8,6.4,4.1,9.6C574.8,276.8,573.4,273.5,573.6,267.5 C573.7,267.4,573.6,267.5,573.6,267.5z"></path> </svg> 