<?xml version="1.0" encoding="UTF-8"?> <svg xmlns="http://www.w3.org/2000/svg" xmlns:xlink="http://www.w3.org/1999/xlink" version="1.1" id="Layer_1" x="0px" y="0px" viewBox="0 0 1000 1000" style="enable-background:new 0 0 1000 1000;" xml:space="preserve"> <path style="fill:#FFFFFF;" d="M81.9,483.6c-2,13.8-0.3,26.8,9.3,37.2c4.1,4.5,9.5,7.9,15.1,10.6c-4.5-5.2-9-10.5-13.4-15.7 c23.1,17.4,48.2,16.2,73.8,10.9c14.2-3,26.2-9.7,37.2-19.8c12.1-11.1,10.8-23.9,8.8-37c-2.3-14.6-11.7-24.5-24.7-31.2 c-2.3-1.2-4.2-3.1-6.6-5c10.4-6.1,17.7-13.5,16.9-25.9c-0.9-16.1-14.2-20-25.2-27c4,1.1,7.9,2.5,11.9,3.4c14.9,3.1,28,8.7,36,22.8 c0.7,1.2,5.3,1.9,6.3,1c12.3-11.8,27.4-15.1,43.8-15.3c4.1-0.1,8.7-2.3,12.2-4.8c3.9-2.7,6.8-3,9.5,0.6c3.2,4.2,7.3,5.2,12.4,4.8 c7.2-0.6,14.3-0.4,20.2,5c0.8,0.8,3.6,0.6,4.6-0.2c8.3-7,17.9-8.7,28.1-7.7c2.5-3.8,4.8-7.4,7.2-10.9c4.1-6,11.4-6.7,17.1-10.1 c4.5-2.7,7.9-4.4,6-10.8c-2-6.8,2.7-11.9,7.3-16.1c4.8-4.3,9.4-8.1,10.2-15.4c0.8-6.9,8.7-11.9,15.9-11.6 c5.7,0.3,13.9,6.5,13.9,12.3c0,5.8,3.4,6.7,7.2,8.5c2.8,1.3,6.4,2.8,7.5,5.2c2.7,6,7.1,4.9,11.6,4.1c4-0.7,8-1.5,13-2.4 c-9.8,13.9-18.9,26.6-28,39.4c0.6,0.9,1.1,1.8,1.7,2.7c3.8-0.4,7.7-1.3,11.4-1.1c9,0.4,16.6-1.2,23.7-7.7c6.5-6,14.3-1.7,21.3,1.2 c7.5,3.1,13.4,1.8,18.7-4.2c4.2-4.8,13.4-7,18.4-3.2c8.3,6.4,16.9,8.4,27.5,8.6c17.7,0.4,33.7,7.6,46.4,20.4 c4.3,4.3,7.6,2.6,10.7-0.4c10.8-10.6,22.4-19.5,37.7-23c3-0.7,5.6-5,7.7-8.2c11.2-16.9,24.7-31.1,44.6-37.6c4.2-1.4,8.8-1.9,13.7-2 c-15.6,12.7-27.9,27.6-36.5,45.9c6.2,2.6,11.6,4.7,16.9,6.9c5.6-3.1,11.3-6.2,16.9-9.6c1.2-0.7,2.4-2.2,2.8-3.6 c3.9-15.1,11.1-28.4,21.6-40c7.7-8.5,17.7-9.9,28.4-9.1c5.3,0.4,5.9,3.7,5.1,8.3c-2.1,12.7-4.1,25.5-5.5,38.4 c-0.7,6.5,2.7,7.9,8.6,5c4-2,8.5-3.4,12.9-3.9c9-1,18.2-1.3,27.9-1.9c-3.6-16.2-7.1-31.7-19.8-43.7c12.7-0.7,24.9-3.4,36.2,4.9 c4.7,3.5,11,4.6,17.8,3.4c14.1-2.4,25.8,4.7,36,13c8.3,6.7,16.7,14.4,21.7,23.5c5.6,10.1,8,22.2,10.8,33.6 c1.6,6.6,1.1,13.7,1.8,20.5c0.2,1.7,1.3,4,2.7,4.9c16.1,10.1,16.7,26.2,15.2,42c-1.4,15.2-5.6,30.2-8.3,43.7 c7.1-10.3,18.6-20.3,21.9-35.5c0.2-1.1,2.9-2.8,3.7-2.5c1.6,0.6,3.5,2.4,3.8,3.9c1.5,7.1-0.6,13.6-5,19 c-7.1,8.6-14.9,16.7-22.1,25.3c-8.1,9.5-16.7,18.8-23.5,29.2c-2.7,4.1-3.4,11.9-1.3,16.3c3.5,7.3-1.5,13.6,0.3,20.1 c-5.3,0.8-10.7,1.9-16,2.1c-2.1,0.1-6.2-2-6.1-2.7c0.9-7.4-3.6-15.1,2.1-22.7c2.1-2.9-0.3-9.1-0.6-14.4c5.8-1.9,14.5,2.5,20.4-6.6 c-8.2,0-15.3,0.2-22.3-0.2c-1.8-0.1-3.7-2-5.1-3.6c-4.5-5.1-8.7-10.4-14.2-17c-13.8,14.8-26.3,29.7-40.6,42.8 c-10.5,9.6-14.9,22.2-21.3,33.7c-7.5,13.4-9.1,28.4-2.4,43.2c0.5,1,1.3,2,2.1,2.8c0.7,0.7,1.6,1.1,2.8,1.9 c-4.5,4.2-6.9,8.4-3.3,14.6c1.2,2-1.7,6.3-2.2,9.5c-0.7,4.3-0.8,8.8-1.3,14c-15.6,2.7-31.9,3.2-45.7-1.3c-1.7-6.5-3.4-11.8-4.3-17.2 c-0.5-2.9,0.5-6.1,0.6-9.2c0.1-3.6,0-7.1,0-12.7c5-5.4,9.5-13.5,7.7-24.4c-1.3,0.4-1.9,0.5-2.1,0.7c-5.9,10.1-16,14.6-27.2,11.3 c-6.4-1.9-10.9-2.4-13.2,5.6c-0.7,2.4-4.6,4.6-7.4,5.6c-6.1,2.1-12.5,4.2-18.9,4.6c-7.9,0.5-15.9-0.4-23.1-5 c-2.7-1.7-6.8-1.3-10.5-1.9c-0.2,7.9-4.3,11.1-11.8,9.9c-8.7-1.5-14.2,2-19.6,9.1c-7.8,10.3-19.4,15.1-32,17.6 c-5.1,1-9.7,4.2-14.6,6.4c5.3,12.5,3.1,18.4-7.9,23.7c-3.9,1.9-8.1,3.9-12.3,4.3c-13.4,1.3-16.1-0.4-24.6-13.5 c-3.6,4.4-7,8.8-10.5,13c-6.5,7.7-17.5,7.4-23.8-0.9c-1.9,1.4-3.8,2.8-6.2,4.5c5.1,2.1,10.1,3.6,14.6,6c4.4,2.4,10.1,4.9,7.5,11.6 c-2.5,6.4-8.5,7-14.2,6.1c-15.8-2.6-31.5-2.3-46.8,2.1c-5,1.4-8.7,7.2-13.1,10.8c-6.6,5.4-14.7,4.9-21.9,3c-7.6-2-8.6-13.1-2.3-20.5 c2.8-3.2,6.9-5.2,10.4-7.8c2.2-1.7,4.4-3.5,6-6c-11.2,7.1-22.6,10.7-35.7,6c-5.9-2.1-7.1-5.9-5.4-10.7c2.5-6.7,5.9-13.1,8.5-18.6 c-4.4-5.5-8.4-11.2-13.2-16.4c-2-2.1-5.4-4.3-8.1-4.2c-10.1,0.4-18.8-3.3-27.1-8c-10.3-5.7-13.2-19.9-6.2-27.3 c-5.3-8.3-14-10-27.1-8.1c-13.6,1.9-27.5,2.4-41.3,2.5c-3.6,0-7.3-3.4-10.8-5.6c-3.4-2.2-6-2.7-10.2-0.9c-7.2,3.1-15.2,4.5-22.8,6.9 c-2.7,0.8-6,1.5-7.8,3.4c-8.3,8.7-16.5,17.6-24.1,27c-5.2,6.4-6.1,13.8-3.5,22.1c1.4,4.4,0.5,9.7-0.2,14.4c-0.2,1.3-4.6,3.4-5.5,2.8 c-4.2-2.8-13.2,5.2-13.4-5.4c-0.1-5.3-1.1-10.2,0.7-16.1c2.3-7.3-1.5-15.2-7.3-21.2c-8.9-9.3-18.1-18.4-26.2-28.3 c-7.8-9.6-9.9-21.5-9.3-32.2c-7.7-2.6-14.7-4.6-21.2-7.5c-2.3-1-3.5-4.6-5.2-7c-0.3-0.5-0.7-1.1-1.1-1.2c-6.1-1.8-9.9-6-13.2-11.1 c-0.7-1.1-3.1-1-3.7-1.2c-1-9.8-2-19.2-3.1-29.4c-1.5,0.8-3.6,1.9-4.6,2.4c-4.3-3.7-8.7-7.3-13-11c-0.8-0.7-2.2-1.9-2-2.3 c4.3-9.1-5.7-14.6-5.5-22.6c0.2-8.9,0.8-17.8,1.2-26.7C79.9,483.7,80.9,483.6,81.9,483.6z M391.3,605.9 c-11.5-19.1-21.9-36.4-32.8-54.5c1.4-1.3,4.3-4,7.1-6.8c7.5-7.8,8.2-15.8,2.2-25.1c-7.2-11.1-18.8-14.1-30.4-14.3 c-18-0.2-36,1.4-53.9,2.8c-7.7,0.6-15.6,1.9-22.7,4.7c-3.7,1.5-7.2,6.5-8.2,10.6c-1.2,5.1-1.5,10.8,4.8,14.9 c6.5,4.1,12.4,3.8,18.2,0.4c5.8-3.4,9.7-8.2,8.3-16c-0.4-2.1,1.9-4.7,2.9-7.1c2.4,2,4.8,4,7.1,6.1c0.4,0.4,0.1,1.4,0.1,2.2 c0.5,21.8,1,43.5,1.5,65.3c0.1,5.4-1.9,9.5-7.1,11.8c-1.3,0.6-2.3,1.7-4.9,3.8c19.9,0.5,37.6-0.2,55.1-3.9c-2.4-1.9-5.1-2.6-7.1-4.1 c-2.4-1.8-5.7-4.2-5.9-6.5c-0.7-8.3-0.3-16.7-0.3-27.8c5,3.8,9.2,5.7,11.4,9c4.8,7.2,8.5,15.2,13,22.6c6.6,11.1,13.9,20.7,27.9,17 C382.4,609.7,386.8,607.6,391.3,605.9z M724.9,384c0.4,0.9,0.8,1.8,1.2,2.7c8,1.1,10.8,5.3,10.5,13.2c-0.6,13.4-0.8,26.9,0,40.2 c0.6,10,2.8,19.9-6,27.8c-0.3,0.3,0.1,1.4,0.2,2.7c8.2-0.5,16.3-0.8,24.4-1.6c5-0.5,2.8-3.8,2-6.5c-1.1-3.6-2.5-7.3-2.6-10.9 c-0.2-5.1,0.9-10.2,1.2-15.3c0.6-7.9,1-15.8,1.5-23.7c0.8-0.1,1.7-0.3,2.5-0.4c1.6,3.8,2.5,8.2,5,11.3c6.2,7.9,13.5,15.1,19.6,23 c4,5.2,6.7,11.5,10.3,17.1c1.1,1.7,3.5,3.4,5.3,3.5c4.1,0.2,8.3-0.4,12.4-1c5.1-0.8,10.2-2,13.7-2.7c-1.3-5.9-3.1-10-3-14 c0.7-19.4,2-38.9,2.7-58.3c0.2-4.9,1-8.4,5.8-10.7c2.3-1.2,3.7-4.2,5.5-6.4c-0.5-0.6-1-1.1-1.5-1.7c-13.5,1-27,2.1-41,3.1 c1,3.4,1.5,5.2,1.6,5.6c4.1,2,9.6,3.3,9.8,5.2c0.9,9.4,0.4,19,0.4,29.6c-3.7-2.8-6.4-4.1-8-6.3c-6.7-9.2-13-18.7-19.4-28.1 c-2.2-3.2-4.5-5.1-8.9-4.8c-12.1,0.8-24.2,0.7-36.3,1.9C730.8,378.7,727.9,382,724.9,384z M264.5,431.4c-3.8-1.6-8.6-2.2-9.9-4.7 c-1.3-2.4-0.2-8.3,1.9-9.8c4.4-3,10-4,15.2-5.8c1,2.9,3.1,6,2.7,8.6c-2.4,14.1-4,28.4-11.9,40.9c-6.9,11.2-13.9,11.8-23.4,2.6 c-1.5-1.4-5.3-1.7-7.5-0.9c-4.8,1.8-9.1,12.4-7.8,19.1c1.2,6.3,3,13.2,10.6,14.3c7.2,1,15.2,1.7,21.1-4.1 c5.4-5.4,10.9-11.2,14.7-17.7c3.4-5.9,8-4.8,12.8-5c6.2-0.2,7.1,4.7,7.7,8.7c0.8,4.8,0.2,9.9,0.2,15.8c12.9-0.8,24.9-1.5,37.3-2.3 c-2-5.9-4.2-11.4-5.9-17.1c-4.6-16-9.3-32-13.2-48.1c-1.7-7.1-5.6-15.1,4.2-21.9c-3.5-1-5.4-2-7.3-2c-16.4-0.1-32.9-0.6-49.3,0.1 c-9.2,0.4-18.5,2.9-25,10.5c-5.8,6.7-6.8,14.6-3.8,22.7c2.9,7.8,10.1,9.2,17.1,8.2C252.8,442.5,261.6,442.1,264.5,431.4z M489,509.1 c-3.7-1.5-5.2-2.6-6.7-2.5c-17.8,0.4-35.7,0.5-53.5,1.7c-6.1,0.4-12.3,3-17.9,5.7c-8.1,4-9.9,11.6-9.4,20c0.4,6.2,4,10.6,9.4,12 c8.8,2.2,17.6,1,25.1-4.7c1.4-1.1,3.1-3.7,2.6-4.7c-0.7-1.5-3-2.7-4.8-3.2c-5.5-1.3-7-4.5-4-9.5c3.6-6.1,9.4-8,19.7-6 c-0.2,15-3.4,29.5-10.4,42.6c-8.6,16.2-15.1,16.6-29,4.5c-1.4-1.3-6.1-1.6-6.3-1c-2.2,5.1-5.3,10.5-5.2,15.8 c0,7.1,4.1,12.5,11.8,14.8c8.4,2.5,16.3,2.3,22.6-3.9c5-4.9,9.6-10.6,13.2-16.6c3.7-6.1,8.9-2.9,13.3-3.1c1.6-0.1,4.6,3.4,4.9,5.5 c0.7,5.7,0.2,11.5,0.2,18c12.2-0.8,25.5-1.8,37.8-2.6c-2.6-6.7-5-11.6-6.4-16.8c-4.7-17.3-8.6-34.8-13.6-52 C480.5,516.8,480.5,512.6,489,509.1z M670.9,472.2c-3.7-6.1-8.8-11.5-10.3-17.8c-2.4-9.9-3.9-20.4-2.8-30.4 c1-9.9,3.6-20.2,11.8-27.6c5.5-5,10.9-4.1,15.1,2c6,8.8,8.5,18.3,8.6,28.9c0.2,17.3,0.3,34.2-18,44c1.2,0.6,2,1.4,2.9,1.5 c23.7,1.5,48.9-22,49.2-46.2c0.1-5.5,0.1-11.7-2.1-16.5c-9.1-20-25-28.9-47.3-27.5c-19.7,1.2-35.4,9-46.4,25.1 c-9.3,13.6-10.3,32.8-2,43.3c4.9,6.2,11,12,17.7,16C654.4,471,662.6,474.4,670.9,472.2z M566.3,388.4c-20.2-1.4-51,19.1-51.7,46.8 c-0.4,16.1,6,26.9,17.3,35.2c19.3,14.2,54.4,11,72.4-8.5c12.1-13,14.5-40.1,5.2-53.1C599.6,394.7,585.9,388.5,566.3,388.4z M645,502.8c0,0.5,0.2,1,0,1.4c-3.2,6.8-0.7,12.5,4.9,16c5.5,3.4,12.3,4.6,17.9,0c5.1-4.1,8.2-9.3,6.1-16.5 c-2.3-7.5-7.6-9.6-14.7-9.3c-15.8,0.5-31.7,0.9-47.5,1.6c-5.1,0.2-10.3,0.7-15.4,1.6c-2,0.3-3.7,2.2-5.5,3.4c0,0.7,0,1.4,0.1,2.1 c10.4,0.2,11.5,6.1,11.2,14.3c-0.6,16.9-0.3,33.8-0.1,50.7c0,6.6,0.6,13.2-8.3,14.9c-0.4,0.1-0.5,2.2-0.9,4.4 c7.4-0.7,14.2-1.4,21-1.8c11.8-0.6,23.8-0.5,35.5-1.7c7.4-0.8,14.6-3.2,21.8-5.4c5.7-1.7,6.4-7,5.2-11.5c-0.9-3.5-3.5-7.5-6.5-9.5 c-6.1-3.9-13.3-2.2-17.3,2.8c-3.3,4.1-3.5,10.7-5,16.1c-0.2,1.6-2.4,2.7-4.7,3.1c-8.9,1.4-11.1-0.4-10.9-9.5 c0.2-6.9,0.6-13.8,1.6-20.6c0.8-5.1,4.1-7,9.2-4.6c2.5,1.2,5,2.6,8.6,4.5c0-5.3,0.1-9.2,0-13.1c-0.2-4.3-2.3-4.9-5.8-2.9 c-3.1,1.8-6.4,3.2-10.6,5.3c-0.6-3.2-1.3-5.4-1.4-7.7c-0.2-6.5-0.1-12.9-0.1-19.4C633.4,503,635.8,501.2,645,502.8z M817.5,568.1 c0.3,0.3,0.7,0.6,1,0.9c5.1-5.7,10.5-11.1,15.3-17c14.5-17.8,29.2-35.5,43.1-53.8c21-27.6,35.2-57.7,33.3-93.8 c-0.9-16.9-6.3-31.9-14.2-46.3c-1.8-3.3-5.7-6.9-9.2-7.6c-4.9-1-10.3,0.6-15.7,1.2c0.2,0.7,0.4,1.7,0.7,2.5 c11.4,25.9,14.5,53.1,9.3,80.5c-6.8,36.4-22.2,69.8-41.8,101.1C832.4,546.8,824.8,557.3,817.5,568.1z M572.9,513.2 c-3,0.8-5.6,1.9-8.2,2c-8.4,0.2-12.2,6-13.1,12.5c-0.5,4,2.1,10,5.3,12.6c5.8,4.8,13.8,4.4,19.8,0.5c10-6.6,13.8-26.2,0.6-35.5 c-10.7-7.5-22.3-5.7-33.8-2.5c-19.2,5.3-37.2,27.7-38.6,49c-0.9,13.7,3.6,25.3,15.2,33.8c18,13.1,44.5,8.4,60.4-7.1 c4.1-4,10.9-8.6,6.9-17.3c-2.9,0.7-5.7,1.6-8.6,2.1c-7.4,1.5-14.7,3.3-22.1,4.1c-17,1.7-26.6-16.9-24.9-29.3 c1.3-9.7,6.1-17.3,13.4-23.6C553.7,507.1,564.5,506.5,572.9,513.2z M428.5,397.4c-0.1,0.9-0.2,1.7-0.2,2.6c2.3,1.2,4.7,2.2,6.8,3.6 c1.5,1,3.4,2.3,3.7,3.7c0.9,4.8,1.5,9.7,1.6,14.5c0.2,13.7-0.2,27.5,0.2,41.2c0.2,8.3,0.6,16.3-9.9,20.8c2.8,0.9,3.9,1.6,5,1.6 c14.8-0.4,29.7-0.6,44.5-1.6c7.9-0.6,15.8-2.5,23.6-4.4c4.2-1,8.6-9.9,7.4-13.8c-2.5-8.1-9-11.7-17.9-9.9c-6.7,1.3-11.8,8.2-10.7,16 c0.6,4.3-0.8,6-4.5,6.3c-3.3,0.2-7.5,1.1-7.6-4.4c-0.1-9.9-0.1-19.9,0.1-29.8c0.2-10.3,2-20.8,0.9-31c-0.7-6.5,1.8-9.1,5.9-12.2 c1.8-1.4,3.2-3.4,4.8-5.1c-2.4-0.8-4.9-2.3-7.3-2.2c-10.9,0.2-21.7,0.7-32.6,1.5C437.7,395,433.1,396.5,428.5,397.4z M394.4,401.4 c-0.1-1-0.2-2-0.4-3c-3.4-0.3-6.9-0.9-10.3-0.7c-6.1,0.2-12.2,0.9-18.4,1.4c-6.8,0.5-13.6,0.9-20.4,1.6c-1.7,0.2-3.4,1.5-6.6,3.1 c4,2,6.3,2.8,8.2,4.3c1.7,1.3,3.9,3.1,4,4.9c0.9,10.3,1.3,20.6,1.6,31c0.2,8.4-0.2,16.9,0.1,25.3c0.3,7.5,0.5,14.7-7.3,19 c-0.1,0.1,0.2,0.9,0.3,1.6c9-0.4,18.1-0.9,27.2-1.3c11.1-0.5,22.2-0.7,33.3-1.7c3.9-0.4,8-2.2,11.5-4.3c8.2-4.9,8.4-15.2,0.5-20.2 c-5.7-3.6-11.3-3-17.2,0.9c-7.4,4.9-3.9,12.5-5.4,18.7c-12.8,1.5-13.1,1.3-13.1-10.9c0-11.4,0-22.8,0-34.3c0-7.5,0.1-15,0-22.5 c-0.1-4.7,1.6-7.8,6.3-9.4C390.6,404.2,392.4,402.6,394.4,401.4z M783.6,497.6c2.7,26,5.3,51.4,7.9,76.9c1.6,0,3.7,0,5.1,0 c8-26.3,16-52.4,24.1-79.2C807.8,496.1,795.8,496.9,783.6,497.6z M770.3,575.3c0.4-0.3,0.9-0.5,1.3-0.8c-0.5-2.3-0.7-4.7-1.5-6.9 c-4.1-10.9-8.6-21.7-12.4-32.6c-3.4-9.6-6-19.4-9.3-29.1c-0.7-2-2.5-5.1-3.9-5.2c-8-0.5-16.1-0.2-25.7-0.2 C736.6,526.4,753.4,550.8,770.3,575.3z M202.6,651.4c0.5,0.3,1,0.6,1.5,0.9c1.1-2.5,2.5-5,3.2-7.7c1.1-4,1.7-8.1,2.7-12.1 c3.3-14,4.7-28.1,1.7-42.2c-1.1-5.1-3.4-10.2-5.9-14.8c-1-1.8-4.3-3.2-6.5-3.1c-1.4,0.1-3.3,3.2-3.7,5.3c-0.9,5-1.6,10.1-1.6,15.1 c0.1,17.9,1.3,35.6,7.5,52.7C202.1,647.4,202.2,649.4,202.6,651.4z M463.4,711.3c4.1-12,8.4-22.6,11.3-33.5 c4.1-15.9,7.3-32.1,10.6-48.3c0.9-4.4-0.9-9.2-5.8-9.3c-4.8-0.1-6.9,4.2-7.7,9.1c-3.1,18.9-6.5,37.8-10,56.7 C460.2,694.3,459.2,702.2,463.4,711.3z M931.5,454.2c-2.6,2.1-3.3,2.3-3.6,2.9c-5.6,10.2-11.2,20.3-16.6,30.6 c-1.8,3.4-4,7.1-3.9,10.6c0.3,11.5,1.6,23,2.6,34.4c0.1,1.2,1.2,2.3,1.8,3.4c0.9-0.9,2.2-1.6,2.5-2.7c5-16.7,10.4-33.3,14.4-50.2 C930.8,474.5,930.5,465.2,931.5,454.2z M587,688.8c-3.8,2-6.9,4.4-10.4,5.3c-2.4,0.7-5.8,0.2-7.8-1.2c-1.6-1.1-3-4.8-2.3-6.3 c0.9-1.9,3.9-3,6.2-4.2c5.8-2.9,12.3-5,17.3-8.9c2.5-1.9,3.6-7.3,3.2-10.9c-0.5-4.9-4.9-5.4-9.6-5.8c-10.4-0.9-24.7,11-28.2,24 c-2,7.3-1.1,13.5,5.1,17.4C568,702.9,581.6,697.8,587,688.8z M530.5,691c-0.6-0.4-1.3-0.8-1.9-1.2c0-6.4,0.5-12.9-0.2-19.3 c-0.5-4.9-3-8.8-9.2-7.5c-6.3,1.3-4.1,6.3-3.7,9.6c1.2,10.6,3.2,21.1,5,31.8c2.5-0.5,6.2-0.1,7.4-1.7c8-9.8,15.8-19.8,22.7-30.4 c1.8-2.7,0.5-7.7-0.1-11.5c-0.1-0.7-3.8-1.6-5.5-1.2c-6.1,1.3-3.8,6.4-4.3,10.3C539.5,678.2,535.6,684.9,530.5,691z M183.2,648.9 c1.2-0.4,2.3-0.8,3.5-1.2c-7.1-24.3-21.2-48.3-4-74.8c-2.8,0.9-5.2,0.9-6.7,2.2c-12.3,10.7-20,24.6-12.7,41.2 C168.4,627.9,176.5,638.1,183.2,648.9z M786.4,597.4c0,0.2,0,0.4,0.1,0.6c6.8-0.6,13.6-1.5,20.5-1.8c7.2-0.3,2.9-6.2,4.6-9.2 c0.4-0.6-2.1-4.1-3.5-4.3c-10.4-1.3-20.9-2.7-31.4-3.1c-13-0.5-14.8,2.8-8.3,14.2c1,1.7,3.5,3.2,5.5,3.4 C777.9,597.8,782.2,597.4,786.4,597.4z M709.9,556.8c7.2,4.2,15.3,6.7,20.1,12.2c7.8,8.9,15.9,15.5,28.3,16.3 c-5.2-14.6-14.9-25.3-26.9-33.8C721.1,544.2,713.2,546.8,709.9,556.8z M447.1,688.4c-1.8-10.9-6.9-16.3-14-20.1 c-7.9-4.2-16.1-5.5-24.3-1c-1.4,0.8-2.5,5.1-1.8,5.9c3.9,3.9,7.9,8.8,12.8,10.4C428.1,686.4,436.9,686.8,447.1,688.4z M412.4,714.7 c24.1,2.5,36.9-7.2,33.1-24.4C429.2,689.1,412,701.5,412.4,714.7z M499.8,703.6c-0.6-4.6-1.7-7.4-1.2-9.9c1.4-7.6,2.8-15.2,5.3-22.5 c2.1-6.4-1.4-7.6-5.6-6.3c-2.7,0.8-5.7,4.2-6.6,7.1c-2.6,8.3-4.3,16.8-6.2,25.3c-1.8,8.2,0.3,10.6,8.4,9 C496.5,705.7,499,704,499.8,703.6z M222.6,577.7c1.9,3.6,4.9,7,5.4,10.8c1.4,10.5,1.8,21.1,2.5,31.7c0.2,3.5,0,7,0,10.4 c9.9-11,14.2-22.8,8.5-36.5C235.9,586.3,231,580.1,222.6,577.7z M681.8,536.7c10.5-3,19.8-5.6,29-8.3c-6.3-7.7-12.7-15.7-19.1-23.7 c-0.6,0.1-1.2,0.3-1.8,0.4C693.5,517.2,691.6,527.9,681.8,536.7z M456,686.4c1.1-5,3.1-11,3.7-17.2c0.7-7.2-6.2-11.2-12.7-7.7 c-2.4,1.3-4.3,3.4-5.8,4.6C446.4,673.2,451.1,679.6,456,686.4z M451.7,727.2c-7.9,0.1-14.2,2.8-17.3,10c-0.7,1.6,1,4.2,1.6,6.3 c4.6-1.7,9.3-2.9,13.6-5.1C454.5,735.9,453.3,731.6,451.7,727.2z M480.8,723.8c13.3,0.7,24.6,1.2,36.7,1.8 C508.3,719.1,490.2,717.8,480.8,723.8z M503.8,646.6c-5,1.7-7.8,4.8-5.8,9.8c0.5,1.2,4.9,2.4,6.1,1.6 C508.5,654.8,508.2,650.8,503.8,646.6z M428.5,614.3c-0.4-0.3-0.7-0.5-1.1-0.8c-5.1,0.3-10.2,0.4-15.1,1.2c-1.4,0.2-2.4,2.6-3.6,4 c1.7,0.8,3.8,2.8,5.1,2.3C418.8,619.1,423.6,616.6,428.5,614.3z M899.7,535.8c0.3-0.1,0.5-0.2,0.8-0.3c-2.8-7.6-5.5-15.3-8.8-24.1 c-2,2-3.4,3.5-4.7,4.8C891.6,523.2,895.7,529.5,899.7,535.8z M770.4,641.6c2.5,0,4.3,0,5.7,0c1.3-5.5,2.4-10.5,3.5-15.4 c-0.8-0.3-1.6-0.5-2.4-0.8C775.1,630.7,772.9,635.9,770.4,641.6z M472.8,715.3c3.4-0.2,5.6-0.3,7.8-0.4c-0.7-0.3-1.5-0.7-2.2-1 c0.5-7,1.1-14,1.7-22.6C477.5,699.8,475.4,706.9,472.8,715.3z M208.4,670.5c-5.2-8-10.7-4.2-16.6-3.9 C196.2,675.1,202.2,668.9,208.4,670.5z M802.7,602.9c-5.7,4.8-6.6,13.9-2.4,20.2C801,616.3,801.8,610.1,802.7,602.9z M792.9,626.6 c-0.6-0.1-1.3-0.2-1.9-0.2c-0.5,5-1.1,10-1.6,15.1c1.7,0.2,3.4,0.3,5.9,0.5C794.3,636.1,793.6,631.4,792.9,626.6z M780,640.9 c0.9,0.5,1.8,1,2.7,1.5c5.3-3.9,1.5-11.2,4.5-16c-0.8-0.3-1.6-0.6-2.5-0.9C783.1,630.7,781.6,635.8,780,640.9z M794.5,603.2 c-5.1,3.7-5.6,13.9-1.7,18.7C793.4,616,793.9,610.1,794.5,603.2z M806.5,626.3c-0.7,0.3-1.5,0.6-2.2,0.8c2,5.4-0.8,12.3,7,15.9 C809.7,637.5,808.1,631.9,806.5,626.3z M804.5,620.8c0.8,0.2,1.5,0.4,2.3,0.6c1.1-6.2,2.2-12.4,3.3-18.6c-0.9-0.2-1.8-0.3-2.7-0.5 C806.5,608.5,805.5,614.7,804.5,620.8z"></path> <path style="fill:#FFFFFF;" d="M595.7,358.7c-5.7-4-11-7.2-15.7-11.1c-1.5-1.2-2.3-4.6-1.7-6.6c5.8-21.1,6.4-42.7,5.6-64.4 c-0.5-15.1-1.1-30.4-12.9-42.3c-0.6-0.6-0.3-1.9-0.5-2.8c11.1-2.6,27.3,4.1,33.9,16.5c5.2,9.8,9.1,21.1,10.5,32.1 c2.8,21.5-1.9,42.3-11.5,61.9C600.8,347.6,598.2,353.3,595.7,358.7z M605.2,310.6c0.8-4.1,2.3-7.5,1.9-10.8 c-0.5-4.6-1.7-9.4-3.9-13.4c-1.1-2-5.2-2.4-8-3.1c-0.4-0.1-2,1.6-2,2.5c-0.2,6-1.1,12.4,0.4,18c0.7,2.7,6.4,4,9.9,5.9 C603.9,309.9,604.2,310.1,605.2,310.6z"></path> <path style="fill:#FFFFFF;" d="M554.2,331.3c-9-1.4-17.1-2.6-25.1-4.1c-1.3-0.2-2.9-1.9-3.3-3.3c-7.1-26.3-11.7-52.8,2.2-78.4 c4.4-8,10.2-16,21.6-15.2c4,0.3,5.4,0.4,4.9,5.9c-1.9,21.1-2.9,42.2-3.2,63.4C551.1,310.3,553.2,320.8,554.2,331.3z M528.5,307.5 c6.5-2.1,13.2-1.2,13.7-8.8c0.3-5.6,0.1-11.3,0.1-17.3c-5.4,0.8-8.6,1.2-11.7,1.7C529.8,291.3,529.2,298.9,528.5,307.5z"></path> <path style="fill:#FFFFFF;" d="M157.3,491.3c8.5-10.1,3.9-20.9-6-27.5c-4.1-2.8-4.9-5.9-2.8-9c0.9-1.4,5.8-1.3,8.3-0.3 c22.1,9.3,27.5,31,17.7,47.1c-11.3,18.6-31.9,23.5-51.5,18.3c-8.1-2.1-10.8-21.7-5.3-27.7c9.5-10.6,21.4-12.7,33.3-5 C153.1,488.5,155.2,489.9,157.3,491.3z"></path> <path style="fill:#FFFFFF;" d="M610.5,237.2c3.3,1.6,7,2.7,9.8,4.9c11.3,8.7,22.8,17.4,23.3,33.5c0,1.5-1.8,3.1-3,4.5 c-0.7,0.8-2.5,1.2-2.7,2c-2.6,10.1-3.1,20.2,0.6,30.9c2.3-1.5,3.9-2.6,5.4-3.6c0.6,0.6,1.2,1,1.2,1.3c-4.8,29.1-27.6,45.2-46.2,65.5 c-4.6-10.9,3.4-16.2,7.5-22.4c10.8-16.5,22.1-32.4,25.9-52.5c2.9-15.5,0.1-29.7-7.7-42.9c-4.1-7-9.8-13-14.8-19.5 C610,238.4,610.2,237.8,610.5,237.2z"></path> <path style="fill:#FFFFFF;" d="M480.2,304.5c0.4,0.9,0.8,1.8,1.4,3c4.6-4.3,11.4-6.3,10-15.2c-1-6.5-0.6-12.8-9.4-14.9 c-1.3,6.1-2.5,12.1-3.5,17c-5.5-26.7,19.5-56.1,43.7-58.7c-4.2,4.3-7.7,7.8-11,11.5c-20,22.2-19.5,47.3-9.3,73.2 c4.6,11.7,5.3,11.5-6.7,17.1C483.2,329.7,478.7,318.6,480.2,304.5z"></path> <path style="fill:#FFFFFF;" d="M953.8,313.9c-3.6,2-7,4.8-10.9,5.7c-12.1,2.8-24.2,6-36.5,7.1c-13.9,1.2-27.9,0.4-41.9-0.1 c-1.9-0.1-4.9-3.1-5-5c-0.2-1.9,2.2-5.5,4-5.9c12.7-3.3,25.5-6.7,38.5-8.4c5.8-0.8,12.2,2,18.1,3.8c8,2.5,15.6,1.2,23.5-0.1 c3.1-0.5,6.3-0.1,9.4-0.1C953.3,312,953.5,312.9,953.8,313.9z"></path> <path style="fill:#FFFFFF;" d="M64.4,391.2c-1,2.7-1.8,5.4-3.1,7.9c-6,12.1,4,28.5,17.5,30c7.2,0.8,13.8,0.4,20.6-1.6 c1.6-0.5,5.7,1.6,5.8,2.7c0.3,8.4,0,16.8-0.3,25.2c0,0.7-1.3,1.3-2.8,2.7c-0.7-6-4-7-8.5-9c-15.7-6.9-33.4-12.4-39.3-31.9 C51.4,407.7,54.1,393.9,64.4,391.2z"></path> <path style="fill:#FFFFFF;" d="M25.9,464c1.4,1,1.6,1.1,1.8,1.3c4.7,4.8,3.1,15.3,12.4,15.4c6.2,0,12.5-2.5,18.7-4.2 c9.9-2.7,15.1,1.5,14.6,12.1c-0.2,3,0.1,6.2-0.9,9c-0.8,2.2-2.9,4.8-4.9,5.5c-1.6,0.5-5.1-1.3-5.9-3c-2.2-4.5-5.5-3.7-9.5-4.7 c-9.6-2.3-19.1-4.4-26.3-13.9C20.2,474.2,22.8,470.3,25.9,464z"></path> <path style="fill:#FFFFFF;" d="M62.6,408.8c4.5,3.5,8.4,7.6,13.2,10.2c10.2,5.6,20.8,2.8,26.3-7.3c1.8-3.3,0.2-8.3,0.7-12.4 c0.2-1.6,1.7-3,2.6-4.5c1.4,1.2,3.9,2.5,3.9,3.7c-0.1,11.6-4.3,24.4-17.7,27.8C78.6,429.4,63.4,421.6,62.6,408.8z"></path> <path style="fill:#FFFFFF;" d="M77.3,382.2c21.8-6.8,44.1-3.6,66.3-3.7c0,0.7,0.1,1.4,0.1,2.1c-22.1,1.3-44.3,2.6-66.4,3.9 C77.3,383.7,77.3,383,77.3,382.2z"></path> <path style="fill:#FFFFFF;" d="M954.1,429.2c6.7-0.7,17.4,10,19.7,23.2c0.5,3-1.6,6.5-2.6,10.1C964.8,450.1,959.3,439.4,954.1,429.2 z"></path> <path style="fill:#FFFFFF;" d="M147.9,428c0-9.5,0-19,0-28.5c7.7-2.1,10.3,4.5,11.8,8.7c1.4,3.9-1.1,9.2-2,14.4 c-8.9-5.2,1-14.9-8.3-20.5c0,9.7,0,17.8,0,25.9C148.9,428,148.4,428,147.9,428z"></path> <path style="fill:#FFFFFF;" d="M325.4,552.3c0-11.1-0.1-22.2,0.2-33.3c0-1,2.9-3,4.2-2.8c8.4,1.3,13.6,10.5,12.2,20.9 C340.8,547.2,335,552.7,325.4,552.3z"></path> <path style="fill:#FFFFFF;" d="M279.1,448.7c0.8,4.1,2.1,8.3,2.1,12.4c0,0.9-4.7,1.8-9,3.3c2.1-6.6,3.6-11.2,5-15.7 C277.8,448.7,278.5,448.7,279.1,448.7z"></path> <path style="fill:#FFFFFF;" d="M451.9,562.7c1.6-4.8,2.9-8.8,4.3-12.9c0.5,0,1-0.1,1.5-0.1c0.9,4.1,1.7,8.3,2.7,13 C457.4,562.7,455.3,562.7,451.9,562.7z"></path> <path style="fill:#FFFFFF;" d="M584.2,437c-2.9,9.6-5.4,20.2-9.4,30.2c-1.6,3.8-6.9,8.9-10.2,8.6c-4.2-0.3-9.9-4.5-11.7-8.5 c-9.6-20.7-9-41.6,3-61.3c7.3-12,17.4-8,21.7,1.9C581.3,416.3,581.9,426.1,584.2,437z"></path> <path style="fill:#FFFFFF;" d="M582,663.2c0.6,8.5-1.4,11-10.3,13.1C570.2,669.7,573.8,664.9,582,663.2z"></path> </svg> 