<?xml version="1.0" encoding="UTF-8"?> <svg xmlns="http://www.w3.org/2000/svg" xmlns:xlink="http://www.w3.org/1999/xlink" version="1.1" id="Layer_1" x="0px" y="0px" viewBox="0 0 1000 1000" style="enable-background:new 0 0 1000 1000;" xml:space="preserve"> <g> <g> <g> <path style="fill:#FFFFFF;" d="M300.6,286.8L129.8,168.2c-5.1-3.2-9.7-4.6-12.9-3.2c-2.3,0.9-4.2,3.7-5.5,6.9 c-0.5,1.4-0.9,2.8-0.9,4.6l-36,236.3c-2.3,15.7,6.9,37.4,19.8,46.2l170.8,118.6l0,0c4.6,3.2,9.7,4.6,12.9,3.2 c3.2-1.4,5.5-5.5,6.5-11.5l36-236.3C322.8,317.3,313.5,295.6,300.6,286.8z M152,427.6c-1.8,12.5-9.2,20.3-18.9,20.3 c-4.2,0-8.8-1.4-12.9-4.6c-13.8-9.7-23.1-31.4-20.3-49.4c1.8-12.5,9.2-20.3,18.9-20.3c4.2,0,8.8,1.4,12.9,4.6 C145.5,387.9,154.7,410,152,427.6z M221.2,387.9c-1.8,12.5-9.2,19.8-18.9,19.8c-4.2,0-8.8-1.4-12.9-4.6 c-13.8-9.7-23.1-31.4-20.3-49.4c1.8-12.5,9.2-19.8,18.9-19.8c4.2,0,8.8,1.4,12.9,4.6C214.7,347.7,224,369.9,221.2,387.9z M290.4,347.7c-1.8,12.5-9.2,20.3-18.9,20.3c-4.2,0-8.8-1.4-12.9-4.6c-13.8-9.7-23.1-31.4-20.3-49.4c1.8-12.5,9.2-19.8,18.9-19.8 c4.2,0,8.8,1.4,12.9,4.6C284,308,293.2,330.2,290.4,347.7z"></path> <path style="fill:#FFFFFF;" d="M470.5,465L470.5,465L470.5,465c9.7-19.4,31.8-34.6,53.5-37.4c0.5,0,0.9,0,1.4,0 c1.8,0,3.7-0.5,5.5-0.5h29.5l27.2-177.7c0-1.4,0.5-2.8,0.5-4.6c0-3.7-1.4-6.5-3.2-8.3c-2.8-2.3-7.4-2.8-12.9-0.9l-198.5,62.3 c-15.2,4.6-30.5,22.6-32.8,38.3l-36.5,236.3c-0.9,6,0,10.6,2.8,12.9s6.9,2.8,12.5,0.9h0.5l108-33.7L470.5,465z M487.1,328.3 c2.8-18,18.5-36.5,34.6-41.5c8.8-2.8,17.1-0.9,21.7,4.6c4.2,4.6,5.5,12,4.2,19.8c-2.8,18-18.5,36.5-34.6,41.5 c-2.8,0.9-5.5,1.4-7.8,1.4c-5.5,0-10.6-1.8-13.8-6C487.5,343.6,485.7,336.6,487.1,328.3z M410,494.5c-2.8,18-18.5,36.5-34.6,41.5 c-2.8,0.9-5.5,1.4-7.8,1.4c-5.5,0-10.6-1.8-13.8-6c-4.2-4.6-5.5-12-4.2-19.8c2.8-18,18.5-36.5,34.6-41.5 c8.8-2.8,17.1-0.9,21.7,4.6C409.5,479.3,411.4,486.2,410,494.5z"></path> <path style="fill:#FFFFFF;" d="M140.9,151.5l170.8,118.6c13.4,9.2,39.2,13.4,54.9,8.3l198.5-62.3c6-1.8,8.3-4.6,8.8-5.5 c0-0.9-0.9-2.8-2.8-4.6c-1.4-0.9-2.3-2.3-3.7-3.2L396.6,84.6c-9.2-6.5-24.5-10.6-38.8-10.6c-6,0-11.5,0.9-16.2,2.3l-198.5,61.9 l0,0l0,0c-1.4,0.5-2.8,0.9-4.2,1.8c-2.8,1.4-4.2,2.8-4.2,3.7C134.4,145.1,135.8,147.9,140.9,151.5z M312.6,163.5 c0.9-6,6.5-11.1,14.8-13.8c5.1-1.4,10.6-2.3,16.6-2.3c13.8,0,28.6,4.2,37.8,10.6c7.4,5.1,11.1,11.5,10.2,17.5 c-0.9,6-6.5,11.1-14.8,13.8c-5.1,1.4-10.6,2.3-16.6,2.3l0,0c-13.8,0-28.6-4.2-37.8-10.6C315.4,176,311.7,169.5,312.6,163.5z"></path> <path style="fill:#FFFFFF;" d="M638,635.3l-85.9-109.9l-6.5-7.8l-6.5-7.8l-30-38.3c-3.7-4.6-7.8-6.9-11.5-6.9 c-2.8,0.5-5.1,2.3-7.4,5.1c-0.9,1.4-1.8,2.8-2.3,3.7l-34.2,70.2l-6,12.5l-6,12.5l-58.2,120c-6.9,14.3-4.6,37.8,5.5,50.3 l128.3,163.9l0,0c0.5,0.5,0.9,1.4,1.8,1.8c0.5,0.5,0.9,0.9,1.4,1.4c2.8,2.8,6,3.7,8.3,3.7c3.7-0.5,6.9-3.7,9.7-8.8l104.3-215.1 C650,671.3,647.7,647.7,638,635.3z M453.4,726.2c-4.2,8.8-11.1,13.8-18,13.8c-5.5,0-11.1-3.2-15.2-8.3 c-10.2-12.9-12.5-36.5-5.1-52.2c4.2-8.8,11.1-13.8,18-13.8c5.5,0,11.1,3.2,15.2,8.3C458.9,686.5,461.2,710.1,453.4,726.2z M481.1,546.2c0.9-3.7,1.8-7.4,3.2-10.6c0-0.5,0.5-0.9,0.5-1.4c4.2-8.3,10.6-12.9,17.5-12.9c3.7,0,7.4,1.4,10.6,4.2 c1.8,1.4,3.2,2.8,4.6,4.6c0.9,0.9,1.8,2.3,2.3,3.7c1.8,2.8,3.2,6,4.2,9.2c4.2,12.5,3.7,28.2-1.8,39.7c-4.2,8.8-11.1,13.8-18,13.8 c-5.5,0-11.1-3.2-15.2-8.3c-6.5-7.8-9.2-19.4-9.2-30.9C480.2,553.6,480.2,549.9,481.1,546.2z M493.1,661.1 c4.2-8.8,11.1-13.8,18-13.8c5.5,0,11.1,3.2,15.2,8.3c10.2,12.9,12.5,36.5,5.1,52.2c-4.2,8.8-11.1,13.8-18,13.8 c-5.5,0-11.1-3.2-15.2-8.3C487.5,700.8,485.2,677.3,493.1,661.1z M539.7,833.8c-4.2,8.8-11.1,13.8-18,13.8 c-5.5,0-11.1-3.2-15.2-8.3c-10.2-12.9-12.5-36.5-5.1-52.2c4.2-8.8,11.1-13.8,18-13.8c5.5,0,11.1,3.2,15.2,8.3 C545.2,794.5,547.5,818.1,539.7,833.8z M609.4,690.2c-4.2,8.8-11.1,13.8-18,13.8c-5.5,0-11.1-3.2-15.2-8.8 c-10.2-12.9-12.5-36.5-5.1-52.2c4.2-8.8,11.1-13.8,18-13.8c5.5,0,11.1,3.2,15.2,8.3C614.9,651,616.8,674.5,609.4,690.2z"></path> <path style="fill:#FFFFFF;" d="M924.2,671.3c-1.8-3.2-6.5-4.6-12-4.6l0,0L704,667.6c-15.7,0-35.5,12.5-42.5,26.8L557.2,909.5 c-2.8,5.1-2.8,10.2-0.9,12.9c1.8,3.2,6.5,4.6,12,4.6l0,0l208.2-0.5c15.7,0,35.5-12.5,42.5-26.8l104.3-215.1 c0.5-1.4,0.9-2.8,1.4-4.2C925.6,676.8,925.6,673.6,924.2,671.3z M671.2,870.7c-7.8,15.7-27.2,28.6-43.9,28.6 c-16.6,0-24-12.9-16.2-29.1c7.8-15.7,27.2-28.6,43.9-28.6C671.7,841.6,678.6,854.5,671.2,870.7z M706.3,797.8 c-7.8,15.7-27.2,28.6-43.9,28.6c-16.6,0-24-12.9-16.2-29.1c7.8-15.7,27.2-28.6,43.9-28.2C706.8,769.1,713.7,782.1,706.3,797.8z M697.6,753.9c-16.6,0-24-12.9-16.2-29.1c7.8-15.7,27.2-28.6,43.9-28.2c16.6,0,24,12.9,16.2,29.1 C733.6,741.4,714.2,753.9,697.6,753.9z M803.3,871.6c-7.8,15.7-27.2,28.6-43.9,28.2c-16.6,0-24-12.9-16.2-29.1 c7.8-15.7,27.2-28.6,43.9-28.6C803.7,843,810.6,855.9,803.3,871.6z M838.3,799.1c-7.8,15.7-27.2,28.6-43.9,28.6 c-16.6,0-24-12.9-16.2-29.1c7.8-15.7,27.2-28.6,43.9-28.2C838.8,770.5,846.2,783.4,838.3,799.1z M873.4,726.7 c-7.8,15.7-27.2,28.6-43.9,28.2c-16.6,0-24-12.9-16.2-29.1c7.8-15.7,27.2-28.6,43.9-28.2C873.9,697.6,881.3,710.5,873.4,726.7z"></path> <path style="fill:#FFFFFF;" d="M716,617.3L716,617.3L716,617.3z"></path> <path style="fill:#FFFFFF;" d="M567.9,447h-10.2h-26.3c-1.4,0-3.2,0-5.1,0.5c-2.8,0.5-4.6,1.4-5.1,2.3c-0.5,0.9,0,4.6,4.2,9.7 l24.9,31.8l6.9,9.2l6.9,8.8l89.5,114c10.2,12.9,33.7,24.5,50.3,24.5l0,0l208.2-0.9c6.5,0,9.2-1.8,9.7-2.8c0.5-0.9,0-2.8-1.4-5.5 c-0.9-1.4-1.8-2.8-2.8-4.2L789.4,470.5c-10.2-13.4-33.2-24.5-50.3-24.5l-161.6,0.5L567.9,447z M797.7,580.8 c2.3-4.6,7.8-7.4,16.2-7.4c16.6,0,37.8,10.2,47.5,23.1c5.1,6.5,6.5,12.5,4.2,17.1c-2.3,4.6-7.8,7.4-16.2,7.4l0,0 c-16.2,0-37.4-10.2-47.5-23.1C796.8,591.4,795.4,585.4,797.7,580.8z M712.8,477.9c2.3-4.6,7.8-7.4,16.2-7.4 c16.6,0,37.8,10.2,47.5,23.1c5.1,6.5,6.5,12.5,4.2,17.1c-2.3,4.6-7.8,7.4-16.2,7.4l0,0c-16.2,0-37.4-10.2-47.5-23.1 C712.3,488.5,710.9,482.5,712.8,477.9z M664.3,578c2.3-4.6,7.8-7.4,16.2-7.4c16.6,0,37.8,10.2,47.5,23.1 c5.1,6.5,6.5,12.5,4.2,17.1c-2.3,4.6-7.8,7.4-16.2,7.4l0,0c-16.2,0-37.4-10.2-47.5-23.1C663.9,588.7,662,582.7,664.3,578z M579.9,475.1c2.3-4.6,7.8-7.4,16.2-7.4l0,0c16.2,0,37.4,10.2,47.5,23.1c5.1,6.5,6.5,12.5,4.2,17.1c-2.3,4.6-7.8,7.4-16.2,7.4 l0,0c-16.2,0-37.4-10.2-47.5-23.1C578.9,485.7,577.5,479.7,579.9,475.1z"></path> </g> </g> </g> </svg> 