<?xml version="1.0" encoding="UTF-8"?> <svg xmlns="http://www.w3.org/2000/svg" xmlns:xlink="http://www.w3.org/1999/xlink" version="1.1" id="Layer_1" x="0px" y="0px" viewBox="0 0 1000 1000" style="enable-background:new 0 0 1000 1000;" xml:space="preserve"> <path style="fill:#FFFFFF;" d="M321.3,290.5c11,2.1,22.1,3.5,32.9,6.4c13.7,3.7,26.5,9.8,35.4,21.7c13.6,18.1,12,37.7,4.5,57.5 c-12.1,31.5-34.2,55.7-58.6,78c-11.1,10.1-23,19.2-34.9,28.2c9.5-12.2,19.7-23.9,28.3-36.7c13.4-19.7,23.4-41,26.9-65.1 c3.9-26.1-7.1-45.5-26.9-60.5c-23.6-17.9-50.9-21.3-79.6-17.3c-35.8,5-68.2,18-96.5,40.5c-19.1,15.2-35.4,33.4-41.4,57.7 c-7.5,30.7,2.3,59.9,32.2,80.7c22.1,15.4,47.3,22.9,73.3,28c49.3,9.8,99.2,9.3,149.1,7.6c13.3-0.5,26.6-2.1,40.2-1.7 c-11.5,2.6-23,5.4-34.6,7.7c-43.9,8.6-88.1,15.1-133,14c-40-1-80.1-2.3-118.3-16.6c-28.7-10.7-54.4-25.8-71-52.3 c-6.4-10.3-9.4-22.7-13.9-34.2c0-4.1,0-8.2,0-12.3c1.5-5.6,2.7-11.2,4.7-16.7c7.6-21.1,22.5-36.4,40.7-48.5 c53.7-35.8,114.5-51.5,177.2-61.3c11.8-1.9,23.8-3.1,35.6-4.7C302.7,290.5,312,290.5,321.3,290.5z"></path> <path style="fill:#FFFFFF;" d="M35.2,676.3c5.1-10.5,10.4-20.8,15.1-31.4c10.5-23.5,20.6-47.1,30.9-70.6c2.4-5.6,5.8-9.4,12.7-8 c1.2,0.3,2.6,0,3.9,0c20.8,0,20.3,0.2,28.2,19.4c8.7,21.2,18.5,41.9,27.8,62.9c4.3,9.7,8.5,19.4,13.2,30.1 c-10.8,0-20.8,0.3-30.7-0.3c-2.1-0.1-4.8-3.5-5.7-5.9c-6.2-15.6-6.1-15.7-22.2-15.7c-9.8,0-19.6,0-29.4,0.1c-0.5,0-1,0.3-2.7,0.7 c-0.7,20.8-14.4,23.6-31.8,21.1c-3-0.4-6.1,0.4-9.2,0.6C35.2,678.3,35.2,677.3,35.2,676.3z M87.2,632.7c9.6,0,18.2,0,27.5,0 c-4.5-11.3-8.7-22-13.8-34.8C95.8,610.7,91.6,621.4,87.2,632.7z"></path> <path style="fill:#FFFFFF;" d="M973.8,591.4c-11.2,0-22.5,0-34.4,0c0,29.8,0,58,0,86.7c-10.9,0-21.1,0-32,0c0-28.3,0-56.4,0-85.8 c-11.8,0-23,0-34.6,0c0-9,0-16.9,0-25.6c33.8,0,67.4,0,101,0C973.8,574.9,973.8,583.2,973.8,591.4z"></path> <path style="fill:#FFFFFF;" d="M807.2,411.2c-2.1,15.2-7.5,28.8-14.4,41.8c-15.5,29.2-39.3,49.5-70.7,58.8c-27.6,8.2-56,8.4-82-6.4 c-26.4-15-39.8-48.9-35.2-81.1c7.3-51,37.6-85,82.4-104.9c35.8-15.9,73.2-14.7,106.1,11.1c6.8,5.4,12.2,12.6,19.2,20 c-12.2,7.2-23.1,13.6-33.5,19.8c-7.1-6.2-13.5-12.9-20.9-18.2c-12.3-8.7-26.6-9.9-41-7.6c-34.2,5.7-56.2,26.9-69.3,57.4 c-10.5,24.3-9.2,47.8,8,65.7c10.9,11.4,24.7,14.5,40.2,14.3c27.7-0.5,46.8-14.9,64.1-36.8c-21.4,0-41.2,0-61.9,0 c3.6-12.2,6.7-23.1,9.9-34C741.2,411.2,773.9,411.2,807.2,411.2z"></path> <path style="fill:#FFFFFF;" d="M442.5,511.7c4.5-15.4,8.8-29.7,13-44c7.9-27.1,15.7-54.2,23.6-81.3c6.4-21.9,12.9-43.9,19.7-65.7 c0.7-2.2,3.8-5.3,5.8-5.3c33.5-0.3,67-0.2,100.4-0.1c0.5,0,0.9,0.4,2,0.7c-2.8,9.7-5.3,19.5-8.6,29.1c-0.7,1.9-4.4,3.8-6.7,3.8 c-19.3,0.3-38.6,0.4-57.9,0.1c-5.4-0.1-7.4,1.5-8.5,7c-1.7,8.7-5,17-7.5,25.6c-0.8,2.6-1.2,5.4-2.1,9.1c23.1,0,45.3,0,69,0 c-1.6,6.6-2.7,12.2-4.4,17.5c-5.4,16.7-5.5,16.6-23.2,16.5c-15.2-0.1-30.4,0.1-45.6,0.1c-4.4,0-6.6,1.2-7.9,6.1 c-4,15.4-9,30.6-13.9,47.1c23.6,0,46.1,0,69.3,0c0,2.3,0.3,3.7,0,4.9c-0.8,3.2-1.8,6.4-2.7,9.6c-5.3,19.6-5.3,19.7-25.5,19.8 c-27,0.1-54.1,0-81.1,0C447.7,512.2,445.9,511.9,442.5,511.7z"></path> <path style="fill:#FFFFFF;" d="M279.5,406.6c0,34.1-29.1,62.9-63.5,62.9c-34.2,0-63.3-29-63.3-63.2c0-34.2,29-63.2,63.1-63.3 C250.3,342.9,279.5,372.1,279.5,406.6z"></path> <path style="fill:#FFFFFF;" d="M190.6,566.3c8,0,15.5-0.6,22.8,0.3c2.7,0.4,5.6,4,7.3,6.7c11.5,18.4,22.6,36.9,34.8,56.9 c5.9-9.4,11.1-17.7,16.1-26c6.7-11.1,13.2-22.4,20-33.5c1.2-1.9,3.6-4.1,5.6-4.2c7.9-0.5,15.9-0.2,24.3-0.2c0,37.5,0,74.4,0,111.8 c-9.8,0-19.2,0-29.4,0c0-18.3,0-36.4,0-57c-2.7,3-4.1,4.2-4.9,5.7c-7.5,12.2-14.8,24.5-22.3,36.6c-3.6,5.8-15.4,6.2-19,0.5 c-7.7-12-15.2-24.1-22.7-36.2c-0.6-1-1.2-1.9-3-2.6c0,17.3,0,34.6,0,52.7c-10.2,0-19.7,0-29.7,0C190.6,641,190.6,604.3,190.6,566.3z "></path> <path style="fill:#FFFFFF;" d="M837.1,512.1c16-54.8,31.6-108.3,47.5-162.7c-14.1,0-27.4,0-42,0c3.2-11.1,6-21.2,9.3-31.3 c0.4-1.3,2.9-2.8,4.5-2.8c38.4-0.2,76.7-0.1,115.8-0.1c-2.8,10.8-5.1,20.9-8.1,30.8c-0.5,1.5-3.9,2.9-6,3c-10,0.3-20.1,0.4-30.1,0 c-4.5-0.2-7,1.2-8.3,5.6c-6.6,23-13.2,46-20,68.9c-6.5,21.9-13.2,43.8-19.7,65.7c-1.7,5.9-3,11.9-5.1,17.6c-0.8,2.1-3.4,4.9-5.3,5 C859.1,512.4,848.9,512.1,837.1,512.1z"></path> <path style="fill:#FFFFFF;" d="M724.8,566.9c0,15.5,0,30.1,0,44.7c0,20-0.2,40.1,0.1,60.1c0.1,5.5-1.9,6.5-7,7.1 c-14.3,1.8-24.3-2.7-32.7-15.1c-9.7-14.4-21.9-27-33-40.4c-0.6-0.7-1.5-1.2-3.7-2.8c0,10.5,0,19.9,0,29.2c0,9.2,0,18.4,0,28.3 c-10.4,0-20.3,0-30.7,0c0-37,0-73.8,0-111.6c8.2,0,16.5-1.5,23.8,0.5c5.1,1.4,9.1,7.6,13,12.1c12.5,14.8,24.8,29.9,38.6,46.7 c0-20.9,0-39.6,0-58.9C703.9,566.9,713.8,566.9,724.8,566.9z"></path> <path style="fill:#FFFFFF;" d="M760.7,678.2c0-37.4,0-74.1,0-111.3c29.7,0,59.2,0,89.6,0c0,6.6,0.5,13-0.3,19.2 c-0.3,1.9-4.3,4.6-6.6,4.7c-13.9,0.4-27.8,0.7-41.7,0c-7.8-0.4-10.1,2.4-9.1,9.5c0.4,2.5,0.1,5.1,0.1,9c6.8,0,13.1,0,19.4,0 c4.4,0,8.8,0,13.1,0c18,0,17.8,0,17.9,17.7c0,5.1-1.6,6.7-6.6,6.6c-14.1-0.3-28.2-0.1-43.1-0.1c0,7.1,0,13.5,0,20.9 c16.1,0,32,0,47.9,0c12.1,0,11-1.1,10.9,10.6c-0.1,15.3,2.7,13.5-13.3,13.6c-22.9,0.1-45.8,0-68.8,0 C767,678.6,764,678.4,760.7,678.2z"></path> <path style="fill:#FFFFFF;" d="M356.8,566.8c11.2,0,21.3,0,32.3,0c0,22-0.3,43.5,0.1,65c0.2,12.5,6.1,19.1,13.8,21.7 c12.6,4.2,25.8-2.6,26.8-15.9c1.5-19.9,1.5-39.9,2.1-59.8c0.1-3.5,0-7,0-11c10.5,0,20.1,0,30.7,0c0,9.2,0,18.1,0,27 c0,13.1-0.3,26.2,0,39.3c0.7,27.8-21.4,47.2-45.6,47.7c-16.8,0.4-32.8-0.3-45.9-12.8c-8.6-8.2-13.6-18.5-14.1-29.8 C356.2,614.6,356.8,591,356.8,566.8z"></path> <path style="fill:#FFFFFF;" d="M574.2,595.9c-9.5-2.3-18-4.6-26.7-6.2c-3.9-0.7-8.2,0-12.3,0.2c-5.4,0.2-9.5,2.4-10.2,8.2 c-0.8,6.4,4.6,7.5,8.8,8.8c9,2.6,18.3,4.4,27.4,6.8c16.7,4.4,25.9,14.2,27,28.3c1.2,15.3-6.2,28-22.2,33.9 c-25.9,9.7-51.1,5.9-75.9-6.8c3.3-7.4,6-14.2,9.5-20.6c0.6-1.2,4.8-1.5,6.6-0.7c13.6,5.8,27.2,11.2,42.2,6.6c3.4-1,5.9-4.7,8.8-7.2 c-2.5-2.6-4.6-6.5-7.7-7.6c-10.1-3.5-20.6-5.7-30.8-8.7c-18-5.3-25.6-14.9-26.3-30.3c-0.7-14.4,9.9-29.1,27.1-33.9 c19.8-5.5,39.5-4,58.7,3.8c5,2,6,4.5,3.2,9.4C578.5,585.2,576.4,591,574.2,595.9z"></path> </svg> 