<?xml version="1.0" encoding="UTF-8"?> <svg xmlns="http://www.w3.org/2000/svg" xmlns:xlink="http://www.w3.org/1999/xlink" version="1.1" id="Layer_1" x="0px" y="0px" viewBox="0 0 1000 1000" style="enable-background:new 0 0 1000 1000;" xml:space="preserve"> <path style="fill:#FFFFFF;" d="M62,494.8c-4.7-12.4-2.8-22.2,11.1-26.6c0.6-5.2-4.2-6.4-7.1-8.4c-8-5.6-16.1-11.1-24.6-15.8 c-6.7-3.7-12.7-7.9-17.1-14.1c-1.4-1.9-2.1-4.9-1.8-7.3c0.6-5.4,12.1-16,17.1-15c5.3,1,10.3,3.8,15.1,6.6 c8.4,4.9,16.5,10.3,24.7,15.5c6.3,4,12.6,8.2,19,12.1c6.1,3.7,12.4,7.2,18.6,10.8c6.7,3.9,13.4,7.6,19.9,11.8 c3.8,2.5,5.6,1.8,7.5-2.2c2.6-5.7,5.8-11.1,9.1-16.5c3.5-5.8,6.8-11.8,11-17.1c6.1-7.9,12.6-15.3,23.8-16.6 c11.4-1.3,20.4,8.2,18.8,17.2c-0.9,4.8-4.6,9.6-8.1,13.3c-9.1,9.4-13.4,20.8-14.5,33.3c-0.9,10.1-1.1,20.4-0.7,30.6 c0.3,6.9-4.1,10.8-7.6,15.2c-11.3,14.1-23,27.9-34.5,41.8c-4.1,5-7.8,10.3-12,15.2c-3.5,4-8.2,2.8-12.6,1.8 c-10.6-2.5-20.4-7-29.7-12.5c-11.3-6.7-22.9-13-33.6-20.6c-4.3-3-9.3-7.6-8.3-14.1c0.5-3.7,1.9-8.1,4.4-10.4c3.2-2.9,2.5-5.3,1.2-8 C47.2,506.6,51.9,497,62,494.8z"></path> <path style="fill:#FFFFFF;" d="M922.3,533.2c-3.7-3.2-5.5-0.2-8.1,1.2c-4.7,2.6-9.8,6-14.9,6.2c-11.1,0.6-22.3-0.1-33.4-1.1 c-3.9-0.3-7.7-2.5-11.3-4.3c-10.1-5-18.3-11.8-25-21.3c-12.4-17.5-14.5-36.9-11.9-57c1.3-10,5.9-19.3,11.4-28.3 c5.5-9.1,13-15.8,21.5-21.2c12-7.7,25.8-9.9,39.9-8.3c2,0.2,4.6,2.6,5.4,4.5c1.8,4.7,2.5,9.8,4,14.6c1.7,5.8,4,11.5,5.6,17.3 c0.8,3,0.8,6.2,1.3,10.8c-7.2-5.5-14-3.9-20.4-3.3c-8.6,0.8-17.8,11.9-20.2,20.3c-1.7,6-1,11.3,0.8,16.4c2.4,6.9,6.7,12.9,13.8,15.5 c4.8,1.8,10,3.1,15,3.1c12.6,0.2,23.7-10.3,24-22.9c0.6-21.9,0.6-43.7,0.8-65.6c0.1-6.6,0.6-7.4,7-7.4c11.5,0,23.1,0,34.6,0 c4.5,0,6.7,1.2,6.7,6.6c-0.2,40.9-0.2,81.7,0,122.6c0,5.4-1.9,6.9-7,6.8c-11.5-0.3-23-0.2-34.6-0.1 C923.3,538.6,919.9,538.5,922.3,533.2z"></path> <path style="fill:#FFFFFF;" d="M518.9,403.3c1.9-0.2,3.5-0.6,5.1-0.6c12.3,0,24.5,0.1,36.8-0.1c3.5,0,4.8,1.1,4.8,4.7 c-0.1,42.1-0.1,84.3-0.1,126.4c0,1.4-0.3,2.8-0.5,4.5c-15.2,0-30.2,0-45.5,0c-0.3-2.2-0.6-4.3-1.1-7.6c-3.5,2-6.4,4-9.6,5.3 c-5,2.1-10.1,4.7-15.4,5.4c-7.4,0.9-15.1,1.4-22.4,0.1c-7.5-1.3-14.9-4.4-21.9-7.7c-8.7-4.1-15.4-11-20.9-18.6 c-3.5-4.9-5.7-10.7-8.6-16.1c-5-9.5-4.2-20.1-4.8-30.2c-0.4-7,1.7-14.3,3.7-21.1c1.6-5.6,4.7-10.9,7.3-16.2 c5-10.3,13.4-17.4,22.7-23.5c12.3-8.1,26.1-9.8,40.4-8.6c1.1,0.1,2.1,0.5,2.5,0.7c2.4,6.4,4.8,12.3,6.9,18.4 c1.5,4.3,2.5,8.8,3.8,13.2c0.9,3,2.3,5.8,3,8.8c0.4,1.7,0.1,3.5,0.1,4c-5.9-0.5-11.4-0.9-16.9-1.4c-7.6-0.7-20.5,8.2-22.7,16.8 c-0.9,3.7-2.6,7.4-2.8,11.1c-0.5,9.2,4.5,16.1,11.3,21.6c5.4,4.4,11.8,7.4,18.9,6.3c9.7-1.6,18.2-4.7,23.1-15 c2.3-4.8,2.7-9.2,2.7-13.8c0.2-20.2,0.1-40.5,0.1-60.8C518.9,407.3,518.9,405.5,518.9,403.3z"></path> <path style="fill:#FFFFFF;" d="M681.3,538.1c-1.8-8.3-1.2-37.1,1-42.3c7.6,0,15.5,0,23.3,0c11-0.1,18.5-6.5,25.3-14 c10-11,10.5-24.7,10.5-38.4c0-6.4,0.5-13-1-19.1c-3.4-13.7-9.7-25.2-23.8-31.6c-9.9-4.4-19.9-3.2-29.9-3.3c-5.1,0-6.4-2-6.4-6.3 c0-10,0.1-20.1,0-30.1c-0.1-5,1.8-7.1,7.1-6.7c7.1,0.6,14.3-0.3,21.4,0.5c26.4,3.2,50.4,11.8,66.9,34c5.2,7,8.5,15.5,11.9,23.7 c7,16.7,7.5,34.4,5.7,51.9c-1.2,11.2-3.8,22.3-8.8,33c-5.8,12.6-14,23-24.7,31c-6.9,5.2-15.6,8.1-23.7,11.7 c-17.1,7.5-35.3,6.4-53.4,6.4C682.4,538.5,682.1,538.3,681.3,538.1z"></path> <path style="fill:#FFFFFF;" d="M621.9,442.4c0-29.7,0.1-59.5-0.1-89.2c0-4.9,1.6-6.9,6.6-6.8c13.2,0.2,26.3,0.1,39.5,0 c4.8,0,6.6,1.7,6.6,6.8c-0.2,59.6-0.2,119.3,0,179c0,5.2-1.7,6.5-6.6,6.4c-13.2-0.2-26.3-0.3-39.5,0c-4.9,0.1-6.7-1.3-6.6-6.4 C622,502.3,621.9,472.3,621.9,442.4z"></path> <path style="fill:#FFFFFF;" d="M306.7,538.5c0-2.8,0-4.9,0-7.1c0-43,0.1-86.1-0.1-129.1c0-5.3,1.6-6.9,6.8-6.8 c12.8,0.3,25.6,0.1,38.4,0.1c6,0,6.7,1,5.9,6.9c-0.2,1.8-0.2,3.6-0.2,5.5c0,38.8,0,77.7,0,116.5c0,0.7,0,1.5,0,2.2 c0.2,11.8,0.2,11.8-12,11.8C332.9,538.5,320.3,538.5,306.7,538.5z"></path> <path style="fill:#FFFFFF;" d="M332,346.5c22.7,0,45.4,0.2,68.1-0.1c5.5-0.1,7,1.9,6.8,7c-0.2,9.8-0.1,19.7,0,29.6 c0,4.4-1.2,6.5-6.3,6.5c-45.7-0.2-91.5-0.2-137.2,0c-4.9,0-6.4-1.6-6.3-6.3c0.2-10.2,0.3-20.4,0-30.7c-0.2-5,1.7-6.1,6.3-6.1 C286.3,346.6,309.1,346.5,332,346.5z"></path> <path style="fill:#FFFFFF;" d="M134.1,593.1c9.5-12,18.5-23.5,27.5-35c9.4-11.8,18.6-23.8,28.4-35.3c6.7-7.8,6.6-10.7,18.2-3.4 c6.8,4.3,13.1,9.2,19.7,13.8c1.6,1.1,3.6,1.7,5.1,3c5.5,4.5,5.5,8.9,0.3,15.1c-8.7,10.4-17.3,20.8-25.8,31.3 c-9.1,11.3-17.9,22.7-26.9,34c-5,6.3-9.4,6.3-16.7,0.8c-7.1-5.4-14.6-10.3-21.7-15.7C139.5,599.5,137.3,596.4,134.1,593.1z"></path> <path style="fill:#FFFFFF;" d="M599,596.3c-2.4,5-5.3,9.8-7.1,15c-1.3,3.8-3.9,4-6.7,4c-3.1,0-5.8-0.1-7.1-4.2 c-1.5-4.8-4.3-9.1-6.6-13.7c-0.7,0.2-1.4,0.4-2.1,0.6c-0.2,1.8-0.5,3.7-0.5,5.5c0,3.8,0.2,7.6,0.3,11.5c0.1,4-0.6,7.1-6,6.6 c-5-0.5-7.7-2.3-7.7-6.9c-0.1-12.8,0.1-25.5-0.1-38.3c0-3.2,1.2-5.1,4.2-4.9c4.8,0.3,10.7-2.8,13.9,3.1c3.1,5.7,5.4,11.8,8.2,17.7 c0.9,1.9,2.6,3.4,3.9,5.1c1-1.7,2.1-3.2,2.9-5c2.6-5.6,4.8-11.5,7.6-17c2-3.9,13.7-5.8,17.1-3c0.8,0.6,1.2,2.2,1.2,3.3 c0.1,13.3,0.1,26.6,0.1,39.9c0,5.3-3.4,5.9-7.7,6.1c-4.9,0.3-5.9-2.1-5.9-6.1c0-6.2,0-12.3,0-18.5 C600.4,596.8,599.7,596.5,599,596.3z"></path> <path style="fill:#FFFFFF;" d="M803.9,594.3c-0.2,1.6-0.5,3.3-0.5,4.9c0,5.5,0,10.9,0.1,16.4c0.1,5.1-3,5.7-7.2,5.9 c-4.3,0.2-6.6-1-6.5-5.6c0.1-13.5,0.1-27,0-40.5c0-3,1.3-4.1,4.3-4.3c5.8-0.2,10.6,0,14,6.4c3.8,7.1,9.3,13.2,14.9,21 c2-9,0.2-17.7,1.3-27.2c3.4,0,6.8-0.3,10.1,0.2c1.1,0.2,2.8,2.3,2.9,3.5c0.2,14,0.1,28.1,0.1,42.1c0,3.1-1.5,4-4.7,4.5 c-8.6,1.4-11.7-4.6-15.4-10.2c-3.9-5.8-7.8-11.5-11.7-17.3C805.1,594.2,804.5,594.3,803.9,594.3z"></path> <path style="fill:#FFFFFF;" d="M348.6,584.6c-6.7-5.3-19.1-4.7-24.3,0.9c-4.2,4.5-4.5,13.4-0.6,19.2c2.9,4.4,12.9,8.4,17.3,6 c1.9-1.1,2.2-5,3.6-8.4c-3.1-0.2-4.5-0.4-6-0.4c-3,0-5.3-0.4-5.3-4.4c0.1-3.8,1.4-5.8,5.4-5.7c4,0.1,8.1,0.4,12.1-0.1 c5.2-0.6,6.3,2,6.2,6.3c-0.1,2.7-0.1,5.5-0.1,8.2c0.1,11.1-3,14.4-14.2,15.5c-11.2,1.1-21.3-0.5-29.7-9.3 c-8.9-9.3-8.7-25.2,0.7-34.2c9.6-9.2,28.2-11.1,40-3.7c3.1,1.9,3.2,2.9,0.7,5C352.6,581.2,350.7,582.8,348.6,584.6z"></path> <path style="fill:#FFFFFF;" d="M951.9,601.8c-1.5,0-2.8-0.1-4.1,0c-3.1,0.2-5.4-0.3-5.1-4.3c0.2-3.4,0.5-6.1,5-5.8 c4.7,0.3,9.5,0.2,14.2,0c3.1-0.1,4.3,1.4,4.3,4.2c0,5.6,0.2,11.3-0.1,16.9c-0.1,1.7-1.4,4-2.8,4.7c-7.5,3.7-15.4,6-24,4.2 c-10.7-2.3-23.9-10.8-23.6-25.7c0.3-13.5,10.3-22.6,21.3-25.1c10.7-2.4,19.5,0,30.3,6.2c-3.3,2.7-6.1,4.9-9.2,7.3 c-5.4-4.4-11.8-4-18.1-2.9c-8.7,1.6-12.4,12.9-8.4,20.7c3.2,6.3,8.1,8.2,14,8.8C952.8,611.7,954,609.7,951.9,601.8z"></path> <path style="fill:#FFFFFF;" d="M470,621.5c-1.5-4-1.9-9.3-4.6-10.9c-3.7-2.2-9-2-13.6-2.3c-1.8-0.1-3.7,1.3-5.4,2.2 c-0.4,0.2-0.3,1.4-0.5,2.1c-1.8,7.3-7.1,10.6-14.2,8.9c-2.6-0.6-3.1-5.4-1.4-8.8c2.2-4.5,4-9.3,6-13.9c2.6-6.1,5.2-12.2,7.8-18.4 c0.2-0.5,0.7-0.9,0.9-1.3c1.1-2.3,1.8-6.3,3.2-6.7c4.7-1,9.7-0.7,14.6-0.7c0.9,0,2.3,0.7,2.6,1.5c2.5,6.3,4.6,12.8,7.1,19 c2.7,6.7,6.1,13.1,8.7,19.8c0.9,2.4,1.2,5.4,0.6,7.9c-0.2,0.9-3.6,1.3-5.6,1.5C474.5,621.7,472.5,621.5,470,621.5z M459.8,598.8 c-0.3-4-0.2-6.9-0.7-9.7c-0.5-2.8-3.4-4.7-4.9-2.2c-1.7,2.8-1.6,6.8-1.6,10.3C452.7,597.7,456.8,598.2,459.8,598.8z"></path> <path style="fill:#FFFFFF;" d="M707.6,571.7c0,16.6,0,32.7,0,49.3c-4.3,0-8.2,0-12.7,0c0-16.3,0-32.6,0-49.3 C698.9,571.7,702.9,571.7,707.6,571.7z"></path> <path style="fill:#FFFFFF;" d="M146.7,404.8c-1.4-2.7-3.8-5-3.4-6.7c1.3-5.8,3.6-11.4,5.6-17.1c1.7-4.6,3.4-9.2,5.4-13.7 c1-2.4,2.1-5,3.9-6.6c1.1-1,4.2-1.2,5.4-0.3c1.4,1,2.9,4,2.4,5.4c-3.5,9.4-7.4,18.7-11.3,28c-1.1,2.7-2.1,5.5-3.5,8 C150.6,402.8,149.1,403.3,146.7,404.8z"></path> <path style="fill:#FFFFFF;" d="M86.4,403.9c-2.9-6.1-5.2-10.7-7.3-15.5c-1.2-2.7-2.2-5.6-2.8-8.5c-1.3-6.5-6.9-12-4.1-19.3 c7-1.7,7.7-0.9,9.8,5.7c1.2,4.1,3.8,7.7,5.4,11.6c1.6,3.8,2.7,7.9,4.1,11.8c0.8,2.1,1.9,4.1,2.4,6.3c0.4,1.7,1,4.6,0.3,5 C91.7,402.6,88.8,403.1,86.4,403.9z"></path> <path style="fill:#FFFFFF;" d="M114.3,350.8c7.9-1.7,9.9-0.1,9.9,6.9c0,10.2,0.2,20.4-0.2,30.6c-0.1,2.4-1.7,5.3-3.5,7.1 c-2.2,2.3-6-0.1-6.1-4c-0.3-6.2-0.1-12.4-0.1-18.6C114.3,365.6,114.3,358.3,114.3,350.8z"></path> </svg> 