<?xml version="1.0" encoding="UTF-8"?> <svg xmlns="http://www.w3.org/2000/svg" xmlns:xlink="http://www.w3.org/1999/xlink" version="1.1" id="Layer_1" x="0px" y="0px" viewBox="0 0 1000 1000" style="enable-background:new 0 0 1000 1000;" xml:space="preserve"> <path style="fill:#FFFFFF;" d="M62.7,402.3c10.4,2.5,21.3,3.9,31.1,7.7c27.6,10.7,47.2,40.3,46.9,69.2c-61,6.5-96.5-7.9-116.2-67.7 c11.5-3.1,22.9-6.1,34.3-9.2C60.1,402.3,61.4,402.3,62.7,402.3z"></path> <path style="fill:#FFFFFF;" d="M186.3,555.5c0-44.7,0-88.9,0-133.5c32.4,0,64.2,0,96.8,0c0,6.2,0,12.4,0,19.6c-23.6,0-47.2,0-71.5,0 c0,11.4,0,22,0,33.8c15.5,0,31.4,0,47.9,0c0,7.6,0,14,0,21.5c-15.8,0-31.7,0-48.1,0c0,13,0,24.8,0,37.8c24.9,0,49.4,0,74.5,0 c0,7.4,0,13.7,0,20.8C252.9,555.5,220.2,555.5,186.3,555.5z"></path> <path style="fill:#FFFFFF;" d="M25,564c18.2-53.3,46.7-72.8,116.5-66.8c-3,28-14.1,51.4-39.6,65.5C76.9,576.6,50.9,576.7,25,564z"></path> <path style="fill:#FFFFFF;" d="M432.7,557.2c-29.6,0.6-49.3-19-49.6-49.4c-0.3-27.8,19.6-48.4,47.4-49c31.1-0.7,51.6,18.9,51.9,49.6 C482.6,535.8,461.6,558.1,432.7,557.2z M408.2,508.3c0,19.7,9.9,30.4,26.8,29.2c11.7-0.8,18.9-8.2,21.9-22.4 c4.5-21-7.9-37.6-27.1-36.5C416.8,479.3,408.2,491,408.2,508.3z"></path> <path style="fill:#FFFFFF;" d="M815.3,557.3c-29.1,0.5-48.9-18.9-49.5-48.6c-0.6-28.3,19.5-49.3,47.7-49.8 c30.9-0.6,50.4,18.5,51.4,48.8C865.9,535.5,844.1,558.3,815.3,557.3z M815.7,478.6c-10.6,0-20.1,5-21.9,14.3 c-1.8,9.2-2,19.2-0.5,28.4c1.8,10.9,10.1,16.1,21.2,16.3c11,0.2,21.3-5.7,23-15.8c1.6-9.2,1.4-19.2-0.5-28.4 C835,483.4,826.3,478.6,815.7,478.6z"></path> <path style="fill:#FFFFFF;" d="M883.1,461c8.2,0,15.7,0,24,0c0.2,3.9,0.4,7.6,0.8,13.3c7.8-11.2,17.1-16.2,29.1-15.9 c17.3,0.5,30.3,10.3,31.3,27.3c1.4,23,0.3,46.1,0.3,69.9c-7.5,0-14.9,0-23.6,0c0-15.9,0-31.8,0-47.6c0-2,0-3.9,0-5.9 c-0.1-15.7-5.7-23.4-17.3-23.4c-11.2-0.1-19.7,9.3-20.1,23.3c-0.4,15.9-0.2,31.9-0.2,47.9c0,1.6-0.2,3.2-0.4,5.6 c-7.8,0-15.5,0-23.8,0C883.1,524.3,883.1,493.2,883.1,461z"></path> <path style="fill:#FFFFFF;" d="M546.2,461.2c8.1,0,15.5,0,23.9,0c0,15,0,29.6,0,44.2c0,3.3-0.1,6.5,0,9.8c0.4,13.5,6.6,21.4,17.2,22 c10.8,0.6,19-7.2,20-20.7c0.9-12.6,0.6-25.4,0.7-38.1c0.1-5.5,0-10.9,0-17c8.6,0,16.2,0,24.2,0c0,31.6,0,62.7,0,94.4 c-7.9,0-15.3,0-23.4,0c-0.5-3.4-1.1-6.7-1.8-11.4c-8.1,10.1-17.7,13.2-29.8,13.1c-14.1-0.1-30.1-11.8-31-31.6 C545.4,504.7,546.2,483.5,546.2,461.2z"></path> <path style="fill:#FFFFFF;" d="M286,461.7c1.8-0.7,2.1-0.8,2.4-0.9c22.4-1.2,22.3-1.1,29.5,19.8c5.1,14.9,10.5,29.7,16.7,47.1 c5.9-18,11.3-33.5,16-49.2c5.9-19.6,7.7-20.8,30-16.6C369.4,492,358.3,522,347.2,552c-0.5,1.4-1.6,3.7-2.5,3.7 c-6.5,0.4-13.2,1.3-19.5,0.1c-2.5-0.5-4.6-5.5-5.9-8.9C308.1,518.7,297.1,490.3,286,461.7z"></path> <path style="fill:#FFFFFF;" d="M703.7,555.3c-8.1,0-15.3,0.3-22.5-0.1c-11.8-0.7-18.1-6.7-18.6-18.4c-0.6-14.3-0.4-28.6-0.5-43 c-0.1-13.7,0-13.7-13-15.5c-0.2-1.1-0.7-2.3-0.8-3.6c-0.1-4.2,0-8.4,0-13.2c4.4-0.6,8.5-1.1,13.8-1.7c-5.4-20,9.6-24.3,24-30.7 c0,10.8,0,20.4,0,30.8c6.5,0,12.3,0,18.8,0c0,6.7,0,12.7,0,19.7c-6.1,0-12.1,0-19,0c0,16.9-0.3,32.8,0.3,48.7 c0.1,2.5,4.2,5.6,7.2,6.8c2.7,1.2,6.3,0.2,10.1,0.2C703.7,542,703.7,548,703.7,555.3z"></path> <path style="fill:#FFFFFF;" d="M501,420c7.9,0,15.1,0,22.9,0c0,45.2,0,90.2,0,135.8c-7.5,0-14.9,0-22.9,0 C501,510.6,501,465.8,501,420z"></path> <path style="fill:#FFFFFF;" d="M747.3,555.8c-7.7,0-14.8,0-22.8,0c0-31.3,0-62.6,0-94.5c7.4,0,14.7,0,22.8,0 C747.3,492.7,747.3,524,747.3,555.8z"></path> <path style="fill:#FFFFFF;" d="M723.2,422.1c8.5,0,16.2,0,24.5,0c0,7.7,0,14.9,0,22.7c-8,0-16,0-24.5,0 C723.2,437.2,723.2,429.7,723.2,422.1z"></path> </svg> 