<?xml version="1.0" encoding="UTF-8"?> <svg xmlns="http://www.w3.org/2000/svg" xmlns:xlink="http://www.w3.org/1999/xlink" version="1.1" id="Layer_1" x="0px" y="0px" viewBox="0 0 1000 1000" style="enable-background:new 0 0 1000 1000;" xml:space="preserve"> <polygon style="fill:#FFCE00;" points="197.1,507.2 215.2,507.2 205.9,483.7 "></polygon> <polygon style="fill:#FFCE00;" points="527,507.2 545.2,507.2 535.9,483.7 "></polygon> <path style="fill:#FFCE00;" d="M662.8,461.3c-4.1-2.2-9.7-3.4-16.6-3.4c-0.8,0-1.4,0-1.9,0v32.8h1.9l0,0c6.5,0,12.1-1.1,16.4-3.1 c3.8-1.8,5.7-6.4,5.7-13.6C668.3,467.4,666.5,463.3,662.8,461.3z"></path> <path style="fill:#FFCE00;" d="M100.8,486.7c6.8,0,11.7-1.4,14.8-4.1c3-2.7,4.5-6.2,4.5-10.9c0-2.8-0.6-5.1-1.9-7.1 s-3.2-3.6-5.8-4.7c-2.7-1.2-6.1-1.8-10.1-1.8h-4.8v28.7L100.8,486.7L100.8,486.7z"></path> <path style="fill:#FFCE00;" d="M106.3,499h-8.8v21.9c0,3.2,0.2,5.7,0.6,7.4c0.3,1.3,0.9,2.2,2,2.9c0.9,0.5,2.7,1.2,6.6,1.2 c4.3,0,8-1.3,11.3-3.8c3.1-2.4,4.7-6.3,4.7-11.9c0-5.7-1.4-10.1-4.3-13.1C115.5,500.5,111.6,499,106.3,499z"></path> <polygon style="fill:#FFCE00;" points="757.9,507.2 776,507.2 766.7,483.7 "></polygon> <g> <path style="fill:#FFCE00;" d="M475.1,290.1L475.1,290.1L475.1,290.1c0.1,0,0.7,0.3,2.8,0.3c5.2,0,8.4-4.5,8.5-11.6 c0-3.9-1-7.1-2.9-9c-1.5-1.5-3.5-2.2-6-2.2h-2.3c-0.1,0-0.2,0-0.3,0c0.1,7.4,0.1,14.8,0.2,22.1C475.1,290,475.1,290.1,475.1,290.1z "></path> <path style="fill:#FFCE00;" d="M326.9,301c0.8-0.1,1.7-0.3,2.5-0.4c5.9-1,8.2-4.5,7.2-11c-0.6-4.2-2.6-9.2-8.4-9.2 c-0.6,0-1.3,0.1-2,0.2l-2.4,0.4c-0.1,0-0.2,0-0.3,0.1C324.6,287.7,325.8,294.3,326.9,301L326.9,301z"></path> <path style="fill:#FFCE00;" d="M387.2,318.8c6.1-0.6,9.2-10.3,7.9-24.5c-1.2-13.4-6.1-22.5-12.2-22.5l0,0c-0.3,0-0.5,0-0.8,0 c-2,0.2-3.6,1.1-4.9,2.8c-3.2,4-4.3,12-3.1,21.9c1.6,13.4,6.6,22.3,12.3,22.3C386.8,318.8,387,318.8,387.2,318.8z"></path> <path style="fill:#FFCE00;" d="M459,361.8c0,0-2.3,0-2.4,0V382h2.3l0,0c3.5,0,8.2-1,8.2-9.7C467.2,367.5,465.8,361.8,459,361.8z"></path> <path style="fill:#FFCE00;" d="M576.7,272.5l-2.4-0.2c-0.1,0-0.3,0-0.3,0c-0.7,6.7-1.3,13.4-2,20.1c0.8,0.1,1.6,0.2,2.5,0.3l0,0 c0.5,0.1,1,0.1,1.5,0.1l0,0c1.8,0,7.2,0,8.2-8.8c0.4-3.7-0.1-6.7-1.7-8.6C581.3,273.8,579.3,272.8,576.7,272.5z"></path> <path style="fill:#FFCE00;" d="M962.6,497.9L962.6,497.9c0-13.9,9.1-46.2,9.1-50.5c0-24.7-19.8-46-44-44.5 c-50.8,3.2-165.8,5-259.3,4.5c-4.4,0-9.3-0.7-11.3-1c11.3-9,36.3-29.8,47.4-30.1c4.1-0.1,15.8,4.2,15.8,4.2l6.3-23.4l-3.7-4 c0,0,5.1-19.4,5.1-19.6c1,3.8,3.1,7.2,6.4,10c0.3,0.3,0.7,0.4,1.1,0.4c0.4,0,0.9-0.2,1.2-0.5c7.4-7.4,11.5-9.2,13.6-9.5 c0.4,0,0.7-0.1,1.1-0.1c2,0,4.4,0.7,5,5.7c0.3,2.4,0,5.1-0.7,8c-0.8,3.1-1.9,5.9-3.1,8.6c-1.3,2.6-3.1,5.8-5.4,9.3 c-2.4,3.6-4.4,6.5-6.2,8.8s-4.1,5.2-6.9,8.8c-0.4,0.5-0.5,1.3-0.1,1.9l2.6,4.6c0.3,0.5,0.9,0.9,1.5,0.9c0.1,0,0.1,0,0.2,0l37.3-4.6 c0.7-0.1,1.3-0.6,1.4-1.3l2.7-10.9l0,0c0.2-0.8-0.2-1.5-0.8-1.9l-2.5-1.3c-0.3-0.1-0.5-0.2-0.8-0.2c-0.4,0-0.9,0.2-1.2,0.5 c-3,2.9-9.4,5.2-19.2,6.7c-0.7,0.1-1.8,0.3-3.2,0.5c2.2-2.9,4.2-5.4,5.8-7.5c2.2-3,4.7-6.6,7.3-10.7c5.4-8.6,7.7-16.2,6.9-22.5 c-0.6-4.8-2.9-8.4-7-10.7c-2.9-1.7-6.5-2.5-10.7-2.5c-1.5,0-3.1,0.1-4.7,0.3c-6.2,0.8-13.1,3.1-20.5,6.9 c5.8-13.3,21.2-21.7,29.9-32.4c25.3-26.2-12.1-61.8-36-37c-7.8-1.9-44.4-9.5-50.4-10.7l-3.8,18c-95.8-19.2-217.9-33.8-366.1-2.1 c-25.9-22-61.2-3.3-90,2.8l6.6,23.7l5.4,1.5c3.8,14.2,9.6,35.6,13.6,50.5l-12.7-1.7c-0.1,0-0.1,0-0.2,0c-0.4,0-0.7,0.1-1,0.4 c-0.4,0.3-0.6,0.7-0.6,1.1l-0.1,1.2c-0.1,0.7-0.6,2.4-3.4,5.7l-1.9,2.3l-1.3-2.3c-2.9-4.8-3-6.4-2.9-6.8l0.1-1.2 c0.1-0.4-0.1-0.9-0.3-1.3c-0.3-0.4-0.7-0.6-1.1-0.6l-15.9-2c-0.1,0-0.1,0-0.2,0c-0.8,0-1.6,0.6-1.7,1.5l-0.2,1.9 c-0.1,0.7,0.4,1.5,1,1.8c0.1,0,0.9,0.4,3.1,3.4c1.7,2.2,3.2,4.6,4.6,7.1l4.7,8.4l-7.7,9.2c-1.4,1.6-3,3-4.8,4.2 c-2.2,1.4-3.5,1.9-4.2,2s-1.3,0.7-1.4,1.5l-0.2,1.9c-0.1,0.9,0.5,1.8,1.5,1.9l14.7,1.8c0.1,0,0.1,0,0.2,0c0.4,0,0.7-0.1,1-0.4 c0.4-0.3,0.6-0.7,0.6-1.1l0.2-1.2c0.1-0.9,0.8-2.5,3.3-5.4l2.9-3.4l1.7,3c1.6,2.8,2.3,5.1,2.1,7l-0.2,1.3c-0.1,0.9,0.5,1.8,1.5,1.9 l17.2,2.2c0.1,0,0.1,0,0.2,0l0,0c0.4,0,0.7-0.1,1-0.4c0.4-0.3,0.6-0.7,0.6-1.1l0.2-1.9c0.1-0.7-0.2-1.3-0.8-1.7 c-0.2-0.1-1-0.7-3.2-3.5c-1.6-2.1-3.2-4.5-4.8-7.2l-5.5-9.5l6.6-7.9c3-3.7,6-5.8,8.8-6.5c0.2,0.9,0.5,1.8,0.7,2.6l-3.8,4.1 l6.3,23.4c0,0,11.9-4.2,16-4.3c11.9-0.2,39.8,22.5,51.1,31c-3.2,0.1-202.4-1.5-253-4.7c-24.2-1.5-44,19.7-44,44.5 c0,4.3,9,36.6,9.1,50.5c0,13.8-9.8,45.4-9.8,49.7v5.1c0,24.6,20,46,44.6,44.6c63.1-3.6,141.7-5.8,209.4-6.1 c23.2-0.1,123.5-2.3,226-2.3c100.5,0,203.2,2.2,226,2.3c67.7,0.3,146.4,2.6,209.5,6.1c24.5,1.4,44.6-20,44.6-44.6v-5.1 C972.4,543.3,962.6,511.7,962.6,497.9z M301.3,303.4c-1.4,4-3.6,7.5-6.5,10.4c-2.8,2.8-6.2,5.2-10,7.1c-3.7,1.8-7.6,3.2-11.4,4.1 c-0.2,0-0.4,0.1-0.6,0.1c-0.5,0-1-0.1-1.4-0.4c-0.6-0.4-1-1-1.2-1.6l-0.7-2.8c-0.2-0.7,0-1.4,0.3-2c0.4-0.6,1-1,1.6-1.2 c2.1-0.5,3.7-1.7,5-3.7c1.5-2.2,2.4-5,2.8-8.3c0.4-3.4,0.3-7-0.5-10.6c-0.8-3.7-2.1-7.1-3.8-10c-1.6-2.8-3.5-4.8-5.8-6.1 c-1.4-0.8-2.8-1.2-4.4-1.2c-0.9,0-1.8,0.1-2.8,0.3c-3.1,0.7-6.3,1.5-9.4,2.3l5.1,20.1c5.1,20.5,11.5,45.9,12.1,48.2 c1.2,3.1,4.4,5.1,8.5,7.7c0.7,0.5,1.5,1,2.3,1.5c5.3,3.5,11.6,7.4,19.4,12c1.2,0.7,1.7,2.3,1,3.6l-1.4,2.5 c-0.3,0.6-0.9,1.1-1.6,1.3c-0.2,0.1-0.5,0.1-0.7,0.1l0,0c-0.4,0-0.9-0.1-1.3-0.3c-1.6-0.9-3.1-1.7-4.7-2.6 c-7.1-4-13.1-6.9-18.1-8.7c-3.3-1.2-6.5-1.8-9.4-1.8c-2.5,0-4.8,0.5-6.5,1.4l-1.8,0.9c-0.4,0.2-0.8,0.3-1.2,0.3 c-1,0-1.9-0.5-2.4-1.4l-0.7-1.3c-0.4-0.8-0.4-1.8,0.1-2.6c0.5-0.9,1.1-1.7,1.6-2.6c0.2-0.4,0.5-0.8,0.7-1.2 c-1.4-5.5-6.1-22.8-19.5-72.3c-1.3-0.4-2.7-0.7-4-1.1c-0.9-0.2-1.6-1-1.9-1.9l-0.4-1.4c-0.4-1.4,0.4-2.9,1.9-3.3 c8.3-2.3,15-3.9,22.8-5.7c2.4-0.6,5-1.2,7.6-1.8c4.1-1,8.4-1.5,12.7-1.5c4.5,0,8.7,0.7,12.6,2.1c4,1.4,7.6,3.7,10.5,6.9 c2.9,3.2,5,7.4,6,12.6C302.9,294.7,302.7,299.3,301.3,303.4z M144,532.1c-2.9,3.6-6.6,6.4-11.1,8.3c-4.3,1.8-8.5,3-12.6,3.6 c-4,0.6-7.9,0.8-11.6,0.8H62l0,0c-1.3,0-2.4-1.1-2.4-2.4v-6.3c0-1.3,1.1-2.4,2.4-2.4c4.5,0,6.8-0.6,7.9-1c1.3-0.6,2.1-1.3,2.4-2.2 c0.5-1.2,0.7-3.1,0.7-5.4v-58.9c0-3.4-0.6-5.8-1.8-6.9c-0.6-0.5-2.6-1.8-9.2-1.8c-1.3,0-2.4-1.1-2.4-2.4v-6.5c0-1.3,1-2.4,2.3-2.4 c6.6-0.1,13-0.3,19-0.4s11-0.2,14.8-0.3c3.9-0.1,6.6-0.1,8.2-0.1h2.5c4.9,0,10.1,0.5,15.4,1.5c5.6,1.1,10.7,3.5,15.3,7.2 c4.9,3.9,7.3,9.6,7.3,16.9c0,5.5-2,10.4-5.9,14.3c-2.5,2.6-6,4.8-10.6,6.7c2.5,0.9,4.9,1.9,7,3.1c4.4,2.5,7.7,5.7,10,9.5 s3.4,8.2,3.4,13C148.5,523.6,147,528.4,144,532.1z M262.1,542.4c0,1.3-1.1,2.4-2.4,2.4h-44l0,0c-1.3,0-2.4-1.1-2.4-2.4v-6.3 c0-1.3,1.1-2.4,2.4-2.4c4.3,0,6.4-0.4,7.4-0.7c0.4-0.1,0.9-0.3,0.9-1.5c0-1.1-0.2-2.2-0.7-3.3l-3.8-9.5h-27l-1.7,4.5 c-1.5,4.1-1.8,5.8-1.8,6.5c0,2.4,1,2.8,1.6,3c1.9,0.6,4.1,1,6.7,1c1.3,0,2.4,1.1,2.4,2.4v6.3c0,1.3-1.1,2.4-2.4,2.4h-32.1 c-1.3,0-2.4-1.1-2.4-2.4v-6.3c0-1.3,1.1-2.4,2.4-2.4c2.2,0,4-0.4,5.4-1.2s2.8-2.3,4.2-4.6c1.5-2.6,3.3-6.3,5.1-11l26.9-70.5 c0.4-0.9,1.2-1.5,2.2-1.5h6.5c1,0,1.9,0.6,2.2,1.5l28.4,72.7c2,5,3.5,8.4,4.4,10.2c0.8,1.4,1.8,2.5,3.1,3.3s3.3,1.2,6,1.2 c1.3,0,2.4,1.1,2.4,2.4v6.2H262.1z M681.1,268.8l0.3-1.4c0.1-0.7,0.6-1.3,1.1-1.7c0.4-0.3,0.9-0.4,1.4-0.4c0.2,0,0.4,0,0.5,0.1 c3.6,0.8,6.8,1.3,9.8,1.9c4.5,0.8,8.8,1.6,14.3,2.9c1.4,0.3,2.3,1.8,2,3.2l-0.3,1.4c-0.2,0.8-0.8,1.5-1.6,1.9 c-0.6,0.2-1.1,0.4-1.7,0.7c3.8,10.9,7.3,21.9,10.7,32.9c4.8-4.8,8.5-8.7,11.2-11.9c3.3-3.8,5.3-7.2,6.1-10c0.5-1.7,0.3-3.1-0.4-4.4 c-0.8-1.3-2.2-2.2-4.3-2.8c-1.4-0.4-2.3-1.8-1.9-3.2l0.7-2.8c0.6-2.1,1.5-4,2.9-5.6c1.5-1.7,3.4-3,5.7-3.7c1.1-0.4,2.3-0.5,3.6-0.5 c1.4,0,2.8,0.2,4.3,0.6c3.6,1,6.4,3,8.2,6s2.1,6.7,0.9,10.9c-0.7,2.5-2.2,5.1-4.4,7.5c-2,2.1-4.4,4.6-7.6,7.5 c-6.5,6.1-13,12.4-19.3,18.7c-3.1,3.1-6.2,11.7-6.7,13.7l-6.9,26.4c0.7,1.3,1.5,2.5,2.2,3.8c0.5,0.8,0.5,1.8,0,2.6l-0.7,1.3 c-0.5,0.9-1.4,1.4-2.3,1.4c-0.4,0-0.8-0.1-1.2-0.3l-1.8-0.9c-1.5-0.8-3.5-1.2-5.7-1.2c-2.8,0-6.1,0.6-9.8,1.9 c-5,1.7-11.1,4.5-18.2,8.4c-1.6,0.9-3.2,1.7-4.8,2.5c-0.4,0.2-0.8,0.3-1.3,0.3c-0.3,0-0.5,0-0.8-0.1c-0.7-0.2-1.2-0.7-1.6-1.3 l-1.3-2.5c-0.7-1.3-0.2-2.8,1-3.5c7.8-4.5,14.2-8.4,19.5-11.8c0.9-0.6,1.8-1.1,2.7-1.7c4-2.5,7.2-4.4,8.3-7.4 c1.2-3.4,2.4-8.8,3.6-14c0.6-2.6,1.2-5.3,1.7-7.7c0.5-2.1,1.8-12.6,0.7-15.1c0-0.1,0-0.1-0.1-0.2c-3.8-11.6-7.8-23.3-12-34.8 c-2-1.5-3.9-3.1-5.9-4.6C681.3,270.9,680.9,269.8,681.1,268.8z M636.3,288.2c1-3.7,2-7.4,3.1-11.1c0.3-1.2,1.4-1.9,2.6-1.9 c0.2,0,0.3,0,0.5,0c13.5,2.4,27.1,5.1,40.5,8c1.3,0.3,2.2,1.6,2.1,2.9c-0.5,3.8-1,7.6-1.5,11.4c-0.1,0.7-0.5,1.4-1.1,1.8 c-0.4,0.3-1,0.5-1.5,0.5c-0.2,0-0.4,0-0.6-0.1l-0.4-0.1c-1-0.2-1.8-1-2-2c-2.1-8.5-3.8-9.8-9.6-11.1c-2.7,12.9-5.3,25.8-7.9,38.8 c-1.3,6.2-0.6,6.4,1.3,6.8c0.7,0.1,1.3,0.6,1.7,1.1c0.4,0.6,0.5,1.3,0.4,2l-0.1,0.4c-0.3,1.2-1.4,2.1-2.6,2.1l0,0 c-0.2,0-0.4,0-0.5-0.1c-6.1-1.3-12.3-2.5-18.3-3.6c-0.7-0.1-1.3-0.5-1.7-1.1s-0.5-1.3-0.4-2l0.1-0.4c0.1-0.7,0.5-1.3,1.1-1.7 c0.4-0.3,1-0.5,1.5-0.5c0.2,0,0.3,0,0.5,0c0.4,0.1,0.7,0.1,1,0.1c1.2,0,1.8-0.6,2.8-5.8c2.5-12.9,5-25.9,7.6-38.8 c-1.4-0.3-2.6-0.4-3.5-0.4c-3,0-5.2,1-9.6,7c-0.5,0.7-1.3,1.1-2.1,1.1c-0.1,0-0.3,0-0.4,0l-0.5-0.1c-0.7-0.1-1.4-0.6-1.8-1.2 C636.2,289.7,636.1,288.9,636.3,288.2z M504.2,316.5c0-1.4,1.2-2.6,2.6-2.6h0.3c1.4,0,2.2,0,2.4-6.3c0.4-11.3,0.8-22.6,1.2-33.9 c0.1-1.9,0.2-5.1-0.6-5.9c-0.3-0.4-1.2-0.5-1.8-0.5c-0.7,0-1.4-0.3-1.9-0.8s-0.7-1.2-0.7-1.9v-0.4c0-1.4,1.2-2.6,2.6-2.6h0.1 c12.2,0.4,24.6,1,36.7,1.8c1.4,0.1,2.5,1.2,2.5,2.6c0,3.8,0.1,7.7,0.1,11.5c0,0.7-0.3,1.5-0.8,2s-1.1,0.7-1.8,0.7 c-0.1,0-0.6,0-0.6,0c-1-0.1-1.9-0.7-2.3-1.7c-3.2-8.2-5.2-9.1-11.8-9.5c-2-0.1-4-0.2-6.1-0.3c-0.3,6.1-0.6,12.2-0.8,18.3 c1.3,0.1,2.6,0.1,3.9,0.2c0.5,0,1,0,1.4,0c3.9,0,4.8-0.7,6.2-4.9c0.4-1.1,1.4-1.8,2.5-1.8c0.1,0,0.6,0,0.6,0c0.7,0,1.4,0.4,1.8,0.9 c0.5,0.5,0.7,1.2,0.7,1.9l-1,16.1c-0.1,1.4-1.3,2.5-2.6,2.5c-0.1,0-0.6,0-0.6,0c-1.2-0.1-2.2-0.9-2.4-2.1c-0.9-4.7-1.8-5.9-6.8-6.2 c-1.3-0.1-2.6-0.1-3.8-0.2c-0.3,6.6-0.6,13.1-0.9,19.7c0,0.4,0,0.6,0,0.8h0.1c2.2,0.1,4.3,0.2,6.5,0.3c0.7,0,1.3,0.1,1.8,0.1 c4.4,0,6.8-0.9,11.4-9.4c0.5-0.9,1.4-1.4,2.3-1.4c0.1,0,0.6,0,0.6,0c0.8,0.1,1.5,0.4,1.9,1c0.5,0.6,0.6,1.4,0.5,2.1 c-0.9,4.2-1.7,8.5-2.6,12.7c-0.3,1.2-1.3,2.1-2.6,2.1c-0.1,0-0.1,0-0.2,0l0,0c-11.7-0.8-23.7-1.4-35.5-1.8c-1.5,0-2.6-1.3-2.6-2.7 L504.2,316.5z M554.4,380c5.1,0,5.8-0.9,6.9-5.2c0.3-1.2,1.4-2,2.6-2h0.4c1.5,0,2.7,1.2,2.7,2.7v16.1c0,1.5-1.2,2.7-2.7,2.7h-0.4 c-1.2,0-2.3-0.8-2.6-2c-1.2-4.6-2-5.8-6.9-5.8h-3.6v19.7c0,0.4,0,0.6,0,0.8h6.5c6,0,8.2-0.8,12.3-10.1c0.4-1,1.4-1.6,2.4-1.6h0.4 c0.8,0,1.5,0.3,2,0.9s0.7,1.3,0.6,2.1l-1.7,12.8c-0.2,1.3-1.3,2.3-2.6,2.3l0,0h-35.4c-1.5,0-2.7-1.2-2.7-2.7v-0.4 c0-1.5,1.2-2.7,2.7-2.7c1.6,0,2.3,0,2.3-6.3v-34c0-6.3-0.7-6.3-2.3-6.3c-1.5,0-2.7-1.2-2.7-2.7V358c0-1.5,1.2-2.7,2.7-2.7h34.3 c1.4,0,2.5,1.1,2.6,2.4l0.9,11.5c0.1,0.7-0.2,1.5-0.7,2s-1.2,0.9-1.9,0.9h-0.4c-1,0-2-0.6-2.4-1.6c-3.5-7.9-5.3-8.7-11.5-8.7h-5.6 V380H554.4z M457.9,261.4c7-0.2,14-0.3,21-0.3c7.5,0,13.4,2.1,17.3,6c3,3,4.5,7,4.4,11.5c-0.3,11.8-7.9,18.8-20.4,18.8 c-1.8,0-3.5-0.2-5-0.5l0.1,10.2c0.1,6.3,1.1,6.3,3,6.3c1.5,0,2.7,1.2,2.7,2.7v0.4c0,1.5-1.2,2.6-2.6,2.7c-6.3,0-12.7,0.1-19,0.3 c0,0,0,0-0.1,0l0,0c-0.7,0-1.3-0.3-1.8-0.7c-0.5-0.5-0.8-1.2-0.8-1.9v-0.4c0-0.7,0.2-1.4,0.7-1.9s1.2-0.8,1.9-0.8 c1.9,0,2.6-0.1,2.5-6.4c-0.2-11.3-0.4-22.6-0.6-34c-0.1-6.3-0.8-6.3-2.8-6.3c0,0-0.2,0-0.3,0c-1.4,0-2.6-1.1-2.6-2.6v-0.4 C455.3,262.7,456.5,261.4,457.9,261.4z M417.7,267.7c3.3-3.7,8.1-5.9,13.6-6.2c0.4,0,0.9,0,1.4,0c4.4,0,10,1,13.8,2.5 c1,0.4,1.7,1.3,1.7,2.4l0.3,9.4c0.1,1.5-1.1,2.7-2.6,2.7c0,0-0.5,0-0.6,0c-1,0-1.9-0.6-2.4-1.5c-4-8.2-8.3-9.2-11.2-9.2 c-0.2,0-0.4,0-0.6,0c-2.4,0.1-4.4,0.9-5.6,2.4c-1.2,1.3-1.7,3.1-1.6,5.2c0.3,4.1,3.3,5.5,8.2,7.5c0,0,2.9,1.2,4.2,1.7 c5.8,2.4,14.7,6.1,15.1,17.3c0.3,10.8-7.5,18.8-19,19.5c-0.5,0-1.1,0-1.6,0l0,0c-3.9,0-9.9-0.7-13.7-2.3c-0.9-0.4-1.5-1.2-1.6-2.2 l-1.3-11.9c-0.1-0.7,0.1-1.4,0.6-2s1.1-0.9,1.8-1h0.4c0.1,0,0.1,0,0.2,0c1,0,2,0.6,2.4,1.6c3.4,7.7,7.6,11.4,12.9,11.4 c0.2,0,0.4,0,0.6,0c4.1-0.2,8.2-2.9,8-8.2c-0.2-4.5-3.4-6.5-10.6-9.4c-1.3-0.5-2.6-1.1-3.9-1.6c-4-1.6-12.3-5-13.1-15.5 C413.2,275.6,414.7,271.2,417.7,267.7z M417.8,335.3c3.5,0.6,7.1,1.1,10.9,1.6c3.7,0.5,7.2,0.7,10.5,0.7c2.2,0,4-0.2,5.3-0.5 c1.7-0.4,2.7-0.8,3.2-1.1c0.9-0.5,1.2-0.7,1.2-0.7c0.5-0.5,1.2-0.7,1.9-0.7c0.4,0,0.7,0.1,1,0.2c1,0.4,1.6,1.3,1.6,2.4v1.6 c0,3.9-1.4,7-4.1,9.2c-2.6,2.1-6.2,3.1-11.1,3.1c-2.8,0-5.9-0.6-9.6-1.8l-0.1,56.7l1.4,0.9c0.7,0.5,1.2,1.3,1.2,2.2v0.9 c0,0.7-0.3,1.4-0.8,1.9s-1.2,0.8-1.9,0.8h-0.1c-0.7,0-5.9,0.1-9.2,2.3l-0.1,0.1c-2.2,1.3-9.3,7-11.9,9.1c-0.5,0.4-1.1,0.6-1.7,0.6 l0,0c-0.1,0-0.2,0-0.3,0c-0.7-0.1-1.4-0.4-1.8-1l-1-1.3c-0.9-1.1-0.7-2.7,0.3-3.6c4-3.6,7.1-6.7,9.4-9.3c1.8-2.1,2.6-4.2,2.6-6.7 v-59.2c-1.4-0.6-2.7-1.1-3.9-1.6c-1.8-0.6-2.9-0.8-3.5-0.8c-1,0-1.7,0.2-2.2,0.7c-0.2,0.1-0.7,0.6-0.7,2.1c0,2.4,0.9,2.6,2.2,2.7 c1.4,0.1,2.5,1.2,2.5,2.6c0,1.5-0.8,2.9-2.4,4.1c-1.4,1.1-3.2,1.6-5.3,1.6c-2.8,0-5.1-0.9-7-2.7c-1.9-1.8-2.8-4.4-2.8-7.5 c0-3.3,1.3-6.1,3.8-8.1c2.4-1.9,5.6-2.9,9.7-2.9c1.6,0,3.5,0.2,5.8,0.5C412.8,334.5,415.2,334.9,417.8,335.3z M307.8,283.2 c-0.3,0-0.7,0-1.1,0.1c-0.2,0-0.3,0-0.5,0c-0.5,0-1.1-0.2-1.5-0.5c-0.6-0.4-1-1-1.1-1.7l-0.1-0.4c-0.3-1.4,0.7-2.9,2.1-3.1 c6.9-1.3,13.9-2.6,20.8-3.7c2.2-0.4,4.2-0.5,6.1-0.5c10.1,0,16.8,5,18,13.4c0.9,6.2-2,11.9-7.9,15.8c1.5,1.4,2.9,3.1,4.1,4.7 l0.2,0.3c8.9,11.9,10.5,13.9,13,14.4c1.1,0.2,2,1.1,2.2,2.2l0.1,0.4c0.2,1.3-0.7,2.6-1.9,2.9c-1.3,0.3-5,1-7.2,1.3 c-0.8,0.1-1.4,0.2-2,0.2c-5.5,0-8-3.6-19.7-20.6c-0.9-1.3-1.4-1.3-1.8-1.3c-0.3,0-0.6,0-1,0.1l-0.4,0.1l2.2,12.7 c1,5.6,1.7,5.9,2.8,5.9c0.3,0,0.6,0,0.9-0.1c0.1,0,0.3,0,0.4,0c0.5,0,1.1,0.2,1.5,0.5c0.6,0.4,1,1,1.1,1.7l0.1,0.4 c0.2,1.4-0.7,2.8-2.2,3.1c-6.2,1-12.4,2.2-18.5,3.3c-0.2,0-0.3,0-0.5,0l0,0l0,0l0,0c-0.5,0-1-0.2-1.5-0.5c-0.6-0.4-1-1-1.1-1.7 l-0.1-0.4c-0.1-0.7,0-1.4,0.4-2s1-1,1.7-1.1c1.9-0.4,2.6-0.5,1.5-6.7c-2-11.1-4.1-22.3-6.1-33.4 C309.7,283.8,309.1,283.2,307.8,283.2z M363.4,541.5c0,1.3-1.1,2.4-2.4,2.4h-6.5c-1.1,0-2.1-0.8-2.3-1.8c-0.6-2.7-1.6-5.1-2.9-7.4 c-3.1,2.9-6.6,5.5-10.3,7.6l0,0c-4.8,2.8-11.4,4.2-19.4,4.2c-8.8,0-17-2.2-24.5-6.4c-7.5-4.3-13.6-10.3-18-18 c-4.5-7.7-6.7-16.4-6.7-25.9c0-6.8,1.2-13.4,3.6-19.5c2.4-6.2,5.9-11.7,10.4-16.4c4.5-4.7,9.9-8.5,16.1-11.1c6.2-2.7,13.1-4,20.5-4 c11,0,20.4,3.3,28,9.7c0.5-1.4,1-3.2,1.5-5.1c0.3-1.1,1.2-1.8,2.3-1.8h6.2c1.3,0,2.3,1,2.4,2.3l1.1,34.3c0,0.6-0.2,1.3-0.7,1.7 c-0.4,0.5-1.1,0.7-1.7,0.7h-6.6c-1.1,0-2.1-0.8-2.3-1.9c-1.1-5.5-3.2-10.4-6.1-14.7c-2.9-4.2-6.4-7.5-10.3-9.7s-8-3.3-12.3-3.3 c-4.8,0-9,1.3-12.8,3.9s-6.8,6.6-8.9,12c-2.2,5.6-3.4,12.6-3.4,21.1c0,8.2,1,15.1,2.8,20.5c1.8,5.3,4.1,9.3,6.8,11.9 c2.6,2.6,5.3,4.4,7.9,5.3c2.7,0.9,5.2,1.4,7.5,1.4c5.1,0,9.8-1.4,13.9-4.1c4.2-2.8,7.7-6.4,10.4-10.7c2.7-4.4,4.6-8.7,5.5-13 c0.2-1.1,1.2-1.9,2.3-1.9h6.6c1.3,0,2.4,1.1,2.4,2.4v35.3H363.4z M361,298.3c-1.3-9.7,0.6-18.4,5.4-24.5c3.7-4.7,9-7.6,15.2-8.3 c0.9-0.1,1.8-0.1,2.7-0.1c13.3,0,22.7,10.8,24,27.6c1.4,17.8-6.9,30.7-20.6,32.1c-0.9,0.1-1.7,0.1-2.6,0.1 C372.5,325.2,363.2,314.9,361,298.3z M476.2,541.5c0,1.3-1.1,2.4-2.4,2.4h-6.5c-1.1,0-2.1-0.8-2.3-1.8c-0.7-2.7-1.6-5.1-2.9-7.4 c-3.1,2.9-6.6,5.5-10.3,7.6l0,0c-4.8,2.8-11.4,4.2-19.4,4.2c-8.8,0-17-2.2-24.5-6.4c-7.5-4.3-13.6-10.3-18-18 c-4.5-7.7-6.7-16.4-6.7-25.9c0-6.8,1.2-13.4,3.6-19.5c2.4-6.2,5.9-11.7,10.4-16.4c4.5-4.7,9.9-8.5,16.1-11.1c6.2-2.7,13.1-4,20.5-4 c11,0,20.4,3.3,28,9.7c0.5-1.4,1-3.2,1.5-5.1c0.3-1.1,1.2-1.8,2.3-1.8h6.2c1.3,0,2.3,1,2.4,2.3l1.1,34.3c0,0.6-0.2,1.3-0.7,1.7 c-0.4,0.5-1.1,0.7-1.7,0.7h-6.6c-1.1,0-2.1-0.8-2.3-1.9c-1.1-5.5-3.2-10.4-6.1-14.7c-2.9-4.2-6.4-7.5-10.3-9.7s-8-3.3-12.3-3.3 c-4.8,0-9,1.3-12.8,3.9s-6.8,6.6-8.9,12c-2.2,5.6-3.4,12.6-3.4,21.1c0,8.2,1,15.1,2.8,20.5c1.8,5.3,4.1,9.3,6.8,11.9 c2.6,2.6,5.3,4.4,7.9,5.3c2.7,0.9,5.2,1.4,7.5,1.4c5.1,0,9.8-1.4,13.9-4.1c4.2-2.8,7.7-6.4,10.4-10.7c2.7-4.3,4.6-8.7,5.5-13 c0.2-1.1,1.2-1.9,2.3-1.9h6.6c1.3,0,2.4,1.1,2.4,2.4v35.3H476.2z M486.9,410.8c0,1.3-1,2.5-2.3,2.6c-1.3,0.2-5.1,0.3-7.3,0.3l0,0 c-7.2,0-9-4.1-17.9-23.6c-0.8-1.6-1.1-1.6-2.4-1.6h-0.3v12.9c0,6.3,0.7,6.3,2.6,6.3c1.5,0,2.7,1.2,2.7,2.7v0.4 c0,1.5-1.2,2.7-2.7,2.7h-18.6c-1.5,0-2.7-1.2-2.7-2.7v-0.4c0-1.5,1.2-2.7,2.7-2.7c1.9,0,2.6,0,2.6-6.3v-34c0-6.3-0.7-6.3-2.6-6.3 c-1.5,0-2.7-1.2-2.7-2.7V358c0-1.5,1.2-2.7,2.7-2.7h19.6c12.7,0,20.6,6.3,20.6,16.4c0,6.4-3.6,11.5-9.7,14.4 c1.2,1.6,2.3,3.4,3.2,5.3c6.8,13.1,8.3,15.5,10.7,16.3c1.1,0.4,1.8,1.4,1.8,2.5L486.9,410.8L486.9,410.8z M491.2,413.4 c-1.5,0-2.7-1.2-2.7-2.7v-0.4c0-1.5,1.2-2.7,2.7-2.7c1.6,0,2.3,0,2.3-6.3v-34c0-6.3-0.7-6.3-2.3-6.3c-1.5,0-2.7-1.2-2.7-2.7V358 c0-1.5,1.2-2.7,2.7-2.7h34.3c1.4,0,2.5,1.1,2.6,2.4l0.9,11.5c0.1,0.7-0.2,1.5-0.7,2s-1.2,0.9-1.9,0.9H526c-1,0-2-0.6-2.4-1.6 c-3.5-7.9-5.3-8.7-11.5-8.7h-5.6V380h3.6c5.1,0,5.8-0.9,6.9-5.2c0.3-1.2,1.4-2,2.6-2h0.4c1.5,0,2.7,1.2,2.7,2.7v16.1 c0,1.5-1.2,2.7-2.7,2.7h-0.4c-1.2,0-2.3-0.8-2.6-2c-1.2-4.6-2-5.8-6.9-5.8h-3.6v19.7c0,0.4,0,0.6,0,0.8h6.5c6,0,8.2-0.8,12.3-10.1 c0.4-1,1.4-1.6,2.4-1.6h0.4c0.8,0,1.5,0.3,2,0.9s0.7,1.3,0.6,2.1l-1.7,12.8c-0.2,1.3-1.3,2.3-2.6,2.3l0,0H491.2z M592.1,542.4 c0,1.3-1.1,2.4-2.4,2.4h-44l0,0c-1.3,0-2.4-1.1-2.4-2.4v-6.3c0-1.3,1.1-2.4,2.4-2.4c4.3,0,6.4-0.4,7.4-0.7c0.4-0.1,0.9-0.3,0.9-1.5 c0-1.1-0.2-2.2-0.7-3.3l-3.8-9.5h-27l-1.7,4.5c-1.5,4.1-1.8,5.8-1.8,6.5c0,2.4,1,2.8,1.6,3c1.9,0.6,4.1,1,6.7,1 c1.3,0,2.4,1.1,2.4,2.4v6.3c0,1.3-1.1,2.4-2.4,2.4h-32.1c-1.3,0-2.4-1.1-2.4-2.4v-6.3c0-1.3,1.1-2.4,2.4-2.4c2.2,0,4-0.4,5.4-1.2 s2.8-2.3,4.2-4.6c1.5-2.5,3.3-6.3,5.1-11l26.9-70.5c0.4-0.9,1.2-1.5,2.2-1.5h6.5c1,0,1.9,0.6,2.2,1.5l28.4,72.7 c2,5,3.5,8.4,4.4,10.2c0.8,1.4,1.8,2.5,3.1,3.3s3.3,1.2,6,1.2c1.3,0,2.4,1.1,2.4,2.4L592.1,542.4L592.1,542.4z M599.5,324.6 c-0.2,1.3-1.3,2.3-2.6,2.3l0,0l0,0c-1.4,0-5.1-0.4-7.3-0.6c-6.9-0.8-8.1-4.1-15.4-25.5c-0.6-1.7-0.9-1.8-2.4-1.9h-0.4l-1.3,12.8 c-0.6,6.3,0.1,6.4,2,6.6c0.7,0.1,1.3,0.4,1.8,1c0.4,0.5,0.7,1.2,0.6,1.9v0.4c-0.1,0.7-0.4,1.3-1,1.8c-0.5,0.4-1.1,0.6-1.7,0.6 c-0.1,0-0.2,0-0.3,0c-6.2-0.6-12.4-1.2-18.6-1.7c-0.7-0.1-1.4-0.4-1.8-0.9s-0.7-1.2-0.6-1.9v-0.4c0.1-0.7,0.4-1.3,0.9-1.8 c0.5-0.4,1.1-0.6,1.7-0.6c0.1,0,0.1,0,0.2,0c0.2,0,0.4,0,0.5,0c1.4,0,2.1,0,2.7-6.1c1-11.3,2-22.5,3-33.8c0.2-1.9,0.4-5-0.3-5.9 c-0.4-0.4-1.3-0.6-2-0.7c-1.5-0.1-2.5-1.4-2.4-2.9v-0.4c0.1-1.4,1.3-2.4,2.6-2.4c0.1,0,0.1,0,0.2,0c7,0.6,14,1.2,20.9,2 c7.7,0.8,13.5,3.5,16.8,7.7c2.5,3.1,3.5,7,2.9,11.2c-0.8,6.2-5.1,10.9-11.8,13.1c1.1,1.7,1.9,3.7,2.7,5.6l0.1,0.3 c5.4,13.9,6.4,16.2,8.7,17.3c1,0.5,1.6,1.6,1.5,2.7L599.5,324.6z M601.8,326.8c-0.4-0.6-0.6-1.3-0.5-2l0.1-0.4 c0.1-0.7,0.5-1.3,1-1.8c0.5-0.3,1-0.5,1.6-0.5c0.1,0,0.2,0,0.4,0c0.3,0,0.5,0.1,0.8,0.1c1.2,0,1.9-0.3,2.7-6 c1.7-11.2,3.3-22.4,5-33.6c0.3-1.8,0.7-4.9,0-5.9c-0.3-0.5-1.3-0.7-2-0.8c-0.7-0.1-1.3-0.5-1.7-1c-0.4-0.6-0.6-1.3-0.5-2l0.1-0.4 c0.2-1.3,1.3-2.3,2.6-2.3c0.1,0,0.2,0,0.4,0c6.5,0.9,13.2,1.9,19.7,3c0.7,0.1,1.3,0.5,1.7,1.1s0.6,1.3,0.5,2l-0.1,0.4 c-0.2,1.3-1.3,2.2-2.6,2.2c-0.1,0-0.3,0-0.4,0c-0.4-0.1-0.7-0.1-1-0.1c-1.3,0-2,0.3-2.9,5.9c-1.8,11.2-3.5,22.4-5.3,33.5 c-1,6.3-0.3,6.4,1.6,6.7c0.7,0.1,1.3,0.5,1.7,1.1s0.6,1.3,0.5,2l-0.1,0.4c-0.2,1.3-1.3,2.2-2.6,2.2l0,0c-0.1,0-0.3,0-0.4,0 c-6.1-1-12.3-1.9-18.5-2.8C602.8,327.8,602.2,327.4,601.8,326.8z M711.7,542.4c0,1.3-1.1,2.4-2.4,2.4h-25l0,0 c-0.7,0-1.3-0.3-1.8-0.8c-1-1.1-2.2-2.6-3.6-4.6c-1.4-2-2.9-4.3-4.5-6.9l-4-6.4l-6.3-10.5c-2.8-4.6-4.9-7.7-6.2-9.3 c-1.1-1.3-2.3-2.2-3.7-2.5c-1.1-0.3-3.6-0.6-8.9-0.6h-1.1v22c0,2.3,0.2,4.1,0.7,5.4c0.1,0.3,0.5,1.3,2.5,2.2c1.7,0.7,4.4,1.1,8,1.1 c1.3,0,2.4,1.1,2.4,2.4v6.3c0,1.3-1.1,2.4-2.4,2.4h-46.8c-1.3,0-2.4-1.1-2.4-2.4v-6.3c0-1.3,1.1-2.4,2.4-2.4c6.8,0,8.7-1.2,9.3-1.8 c1.1-1.2,1.8-3.5,1.8-6.9v-58.9c0-3.3-0.6-5.7-1.7-6.9c-0.5-0.5-2.4-1.8-9.3-1.8c-1.3,0-2.4-1.1-2.4-2.4v-6.5c0-1.3,1-2.3,2.3-2.4 l21.6-0.7c1.6-0.1,3.6-0.2,5.7-0.2c2.2,0,4.2-0.1,6-0.1c1.4,0,3.8,0,7.2,0.1c4.7,0.1,9.1,0.4,13.2,0.8c4.1,0.4,7.5,1,10,1.7 c3.6,0.9,7.2,2.5,10.5,4.6c3.4,2.2,6.2,5.2,8.3,8.8c2.2,3.7,3.3,7.9,3.3,12.7c0,3.5-0.8,6.8-2.2,10.1c-1.5,3.3-4,6.2-7.3,8.7 c-2.2,1.7-4.9,3.1-8,4.3c1.9,1.5,3.6,3.2,5.1,5.1c2.4,3,6.1,8.3,11.2,16.3c2.8,4.3,5.2,7.7,7,9.8c1.7,2,3.2,3.4,4.4,4 c1.3,0.7,3,1.1,5.2,1.3c1.2,0.1,2.2,1.1,2.2,2.4v6.4H711.7z M822.9,542.4c0,1.3-1.1,2.4-2.4,2.4h-44l0,0c-1.3,0-2.4-1.1-2.4-2.4 v-6.3c0-1.3,1.1-2.4,2.4-2.4c4.3,0,6.4-0.4,7.4-0.7c0.4-0.1,0.9-0.3,0.9-1.5c0-1.1-0.2-2.2-0.7-3.3l-3.8-9.5h-27l-1.7,4.5 c-1.5,4.1-1.8,5.8-1.8,6.5c0,2.4,1,2.8,1.6,3c1.9,0.6,4.1,1,6.7,1c1.3,0,2.4,1.1,2.4,2.4v6.3c0,1.3-1.1,2.4-2.4,2.4H726 c-1.3,0-2.4-1.1-2.4-2.4v-6.3c0-1.3,1.1-2.4,2.4-2.4c2.2,0,4-0.4,5.4-1.2s2.8-2.3,4.2-4.6c1.5-2.5,3.3-6.3,5.1-11l26.9-70.5 c0.4-0.9,1.2-1.5,2.2-1.5h6.5c1,0,1.9,0.6,2.2,1.5l28.4,72.7c2,5,3.5,8.4,4.4,10.2c0.8,1.4,1.8,2.5,3.1,3.3s3.3,1.2,6,1.2 c1.3,0,2.4,1.1,2.4,2.4L822.9,542.4L822.9,542.4z M925,475.6c0,1.3-1.1,2.4-2.4,2.4H916c-1.2,0-2.2-0.9-2.4-2.1 c-0.6-5.3-1.7-9.3-3.4-11.7c-1.6-2.3-3.3-3.7-5-4.2c-2-0.6-4.4-0.9-7.1-0.9h-9.4V525c0,2.4,0.2,4.3,0.7,5.5 c0.3,0.8,1.2,1.5,2.5,2.1c1.7,0.7,4.4,1.1,8,1.1c1.3,0,2.4,1.1,2.4,2.4v6.3c0,1.3-1.1,2.4-2.4,2.4h-46.8c-1.3,0-2.4-1.1-2.4-2.4 v-6.3c0-1.3,1.1-2.4,2.4-2.4c6.9,0,8.9-1.2,9.4-1.8c1.2-1.2,1.8-3.5,1.8-6.8v-65.9h-7.5c-3.7,0-6.8,0.3-9.1,0.9 c-2,0.5-3.8,1.8-5.4,4.1c-1.7,2.4-2.7,6.3-2.9,11.6c-0.1,1.3-1.1,2.3-2.4,2.3h-6.5c-1.3,0-2.4-1.1-2.4-2.4v-26.5 c0-1.3,1.1-2.4,2.4-2.4h92.2c1.3,0,2.4,1.1,2.4,2.4L925,475.6L925,475.6z"></path> <path style="fill:#FFCE00;" d="M787.7,344.2c0.1,0,1,0.2,3.8,2.6c2.2,1.8,4.2,3.7,6.2,5.8l6.6,7l-5.2,10.8 c-0.9,1.9-2.1,3.7-3.6,5.2c-1.8,1.9-2.9,2.7-3.6,3c-0.7,0.3-1.1,1-1,1.8l0.2,1.9c0.1,0.9,0.8,1.5,1.7,1.5c0.1,0,0.1,0,0.2,0 l14.7-1.8c0.4-0.1,0.9-0.3,1.1-0.6c0.3-0.4,0.4-0.8,0.3-1.3l-0.1-1.2c-0.1-0.9,0.2-2.6,1.9-6.1l2-4l2.4,2.5 c2.2,2.3,3.5,4.4,3.7,6.3l0.2,1.3c0.1,0.9,0.8,1.5,1.7,1.5c0.1,0,0.1,0,0.2,0l17.3-2.1c0.4-0.1,0.9-0.3,1.1-0.6s0.4-0.8,0.3-1.3 l-0.2-1.9l0,0c-0.1-0.7-0.6-1.2-1.2-1.4c-0.2-0.1-1.2-0.4-3.9-2.6c-2.1-1.6-4.3-3.6-6.4-5.9l-7.7-7.9l4.4-9.3 c2.1-4.4,4.5-7.3,7.2-8.5c0.7-0.3,1.1-1,1-1.7l-0.2-1.9c-0.1-0.9-0.8-1.5-1.7-1.5c-0.1,0-0.1,0-0.2,0l-14.6,1.7 c-0.4,0.1-0.9,0.3-1.1,0.6c-0.3,0.4-0.4,0.8-0.4,1.3l0.1,1.2c0.1,0.7,0,2.5-1.9,6.4l-1.3,2.6l-1.8-1.9c-4-4-4.4-5.5-4.5-5.9 l-0.1-1.2c-0.1-0.9-0.8-1.5-1.7-1.5c-0.1,0-0.1,0-0.2,0l-15.9,1.9c-0.4,0.1-0.9,0.3-1.1,0.6c-0.3,0.4-0.4,0.8-0.3,1.3l0.2,1.9 C786.4,343.4,787,344.1,787.7,344.2z"></path> <path style="fill:#FFCE00;" d="M134.4,373.4c5.8,4,12.5,6.5,19.8,7.4c1.6,0.2,3.2,0.3,4.7,0.3l0,0c5.4,0,10.1-1.3,13.9-4 c4.9-3.4,7.8-8.2,8.5-14.3c1-7.6-2.1-13.4-8.9-16.9c1.4-0.9,2.8-2.1,4-3.5c2.3-2.5,3.7-5.7,4.1-9.4c0.6-4.8-0.6-8.7-3.5-11.5 c-2.8-2.7-7.3-4.5-13.2-5.2c-2.5-0.3-5.2-0.5-7.9-0.5c-3.7,0-7.7,0.3-11.7,0.9c-0.8,0.1-1.4,0.8-1.4,1.7c0,3.8,1,7.5,3,11 c0.2,0.4,0.6,0.7,1,0.8c0.1,0,0.3,0.1,0.4,0.1c0.3,0,0.6-0.1,0.9-0.2c5-3,9.2-4.5,12.5-4.5c0.4,0,0.8,0,1.2,0.1 c1.4,0.2,4.7,0.6,3.8,7.7c-0.3,2.4-1.3,4.5-3.1,6.1c-1.5,1.4-3.1,2-4.9,2c-0.3,0-0.7,0-1.1-0.1l-9.3-1.2c-0.1,0-0.1,0-0.2,0 c-0.5,0-0.9,0.2-1.2,0.5c-0.4,0.4-0.5,0.9-0.4,1.5l1.1,6.7c0.1,0.7,0.7,1.3,1.5,1.4l1.7,0.2c0.1,0,0.1,0,0.2,0h0.3 c1.6,0,4.2,0.2,7.8,0.7c3.4,0.4,5.8,1.4,7.1,2.9c1.2,1.4,1.6,3.9,1.2,7.3c-0.6,4.5-2,7.7-4.3,9.5c-0.9,0.3-2,0.5-3.3,0.5 c-0.8,0-1.7-0.1-2.6-0.2l-0.4-0.1c-4-0.5-8.9-3.3-14.5-8.3c-0.3-0.3-0.7-0.4-1.1-0.4c-0.4,0-0.8,0.1-1.1,0.4 c-3,2.4-4.7,5.3-5.1,8.6l-0.1,0.5C133.6,372.5,133.9,373.1,134.4,373.4z"></path> </g> <path id="Shape_00000040541709403781856770000002505458042668340373_" style="fill:#FFCE00;" d="M364.9,665.2 c2.2-3.1,3.3-6.8,3.3-10.5c0-5.4-1.9-10-5.6-13.7c-3.8-3.8-8.3-5.6-13.7-5.6h-24.1v60.2h9.9v-21.9h11.7l12.7,21.9H370l-13.7-23.4 C359.8,670.8,362.8,668.3,364.9,665.2L364.9,665.2L364.9,665.2z M348.9,664.7h-14.2v-20.1h14.2c2.6,0,5,1,6.7,2.9 c3.7,4.1,3.7,10.2,0,14.3C353.9,663.7,351.5,664.8,348.9,664.7L348.9,664.7z M419,669.6c-1-1.1-2-2.1-3.1-3c-1-0.8-2.4-1.6-4.3-2.4 c-1.9-0.8-3.4-1.4-4.5-1.8c-1.1-0.4-2.7-0.9-5-1.7c-4.6-1.4-7.8-2.8-9.5-4.1c-1.7-1.2-2.7-3.2-2.6-5.3c0-2.3,0.9-4.1,2.6-5.5 s4-2,6.9-2c5.9,0,10.1,2.8,12.6,8.4l8.3-4.8c-1.8-4-4.7-7.3-8.3-9.7c-3.6-2.4-7.8-3.5-12.6-3.5c-5.3,0-9.9,1.6-13.7,4.7 c-3.8,3.1-5.7,7.4-5.7,12.7c0,2.7,0.5,5,1.5,7.1c1,2,2.5,3.8,4.4,5c1.8,1.2,3.7,2.3,5.6,3.1c2.3,0.9,4.6,1.7,7,2.4 c5.1,1.5,8.7,3,10.7,4.3s3,3.2,3,5.6c0.1,2.2-1,4.4-2.8,5.7c-1.9,1.5-4.7,2.2-8.4,2.2c-7.6,0-12.6-3.4-15-10.2l-8.5,5 c1.5,4.5,4.5,8.3,8.5,10.8c4,2.6,9,4,14.8,4c6.4,0,11.5-1.6,15.4-4.8s5.9-7.5,5.9-12.9c0-1.8-0.2-3.5-0.7-5.2 C420.9,672.2,420.1,670.7,419,669.6L419,669.6z M429.4,644.8h17v50.8h9.9v-50.8h16.9v-9.5h-43.9L429.4,644.8L429.4,644.8z M243.2,695.5h12.2v-30.1h30.2v-11.7h-30.2v-20.8h31.3v-11.7h-43.5L243.2,695.5L243.2,695.5z M298.8,695.5h9.9v-60.2h-9.9V695.5z M576.4,669.8h24.1v-9.4h-24.1v-15.7h26.2v-9.5h-36.1v60.2h36.6v-9.5h-26.7V669.8L576.4,669.8z M753.5,634.2c-8.7,0-16.1,3-22.2,9.1 c-6.1,6.1-9.1,13.4-9.1,22.2s3,16.1,9.1,22.2c6.1,6,13.4,9.1,22.2,9.1c8.7,0,16.1-3,22.2-9.1c6.1-6.1,9.1-13.4,9.1-22.2 c0-8.7-3-16.1-9.1-22.2C769.6,637.2,762.2,634.2,753.5,634.2L753.5,634.2L753.5,634.2z M768.7,680.9c-4.1,4.1-9.2,6.2-15.2,6.2 s-11.1-2.1-15.2-6.2c-4.1-4.1-6.2-9.2-6.2-15.4s2.1-11.3,6.2-15.4c4.1-4.1,9.2-6.2,15.2-6.2s11.1,2.1,15.2,6.2 c4.1,4.1,6.2,9.2,6.2,15.4C774.8,671.6,772.8,676.8,768.7,680.9L768.7,680.9z M656.5,665.2c2.2-3.1,3.3-6.8,3.3-10.5 c0-5.4-1.9-10-5.6-13.7c-3.8-3.8-8.3-5.6-13.7-5.6h-24.1v60.2h9.9v-21.9H638l12.7,21.9h10.8l-13.7-23.4 C651.4,670.8,654.4,668.3,656.5,665.2L656.5,665.2z M640.4,664.7h-14.2v-20.1h14.2c2.6,0,5,1,6.7,2.9c3.7,4.1,3.7,10.2,0,14.3 C645.4,663.7,643,664.8,640.4,664.7L640.4,664.7L640.4,664.7z M710.6,669.6c-1-1.1-2-2.1-3.1-3c-1-0.8-2.4-1.6-4.3-2.4 c-1.9-0.8-3.4-1.4-4.5-1.8c-1.1-0.4-2.7-0.9-5-1.7c-4.6-1.4-7.8-2.8-9.5-4.1c-1.7-1.2-2.7-3.2-2.6-5.3c0-2.3,0.9-4.1,2.6-5.5 c1.7-1.3,4-2,6.9-2c5.9,0,10.1,2.8,12.6,8.4l8.3-4.8c-1.8-4-4.7-7.3-8.3-9.7s-7.8-3.5-12.6-3.5c-5.3,0-9.9,1.6-13.7,4.7 c-3.8,3.1-5.7,7.4-5.7,12.7c0,2.7,0.5,5,1.5,7.1c1,2,2.5,3.8,4.4,5c1.8,1.2,3.7,2.3,5.6,3.1c2.3,0.9,4.6,1.7,7,2.4 c5.1,1.5,8.7,3,10.7,4.3s3,3.2,3,5.6c0.1,2.2-1,4.4-2.8,5.7c-1.9,1.5-4.7,2.2-8.4,2.2c-7.6,0-12.6-3.4-15-10.2l-8.5,5 c1.5,4.5,4.5,8.3,8.5,10.8c4,2.6,9,4,14.8,4c6.4,0,11.5-1.6,15.4-4.8s5.9-7.5,5.9-12.9c0-1.8-0.2-3.5-0.7-5.2 C712.5,672.2,711.7,670.7,710.6,669.6L710.6,669.6L710.6,669.6z M531.6,621.3h-27.4v74.3h12.2v-25.5h15.2c7,0,12.9-2.4,17.6-7.1 c4.7-4.7,7.1-10.5,7.1-17.3c0-6.9-2.4-12.7-7.1-17.4S538.7,621.3,531.6,621.3L531.6,621.3z M540.6,655c-2.3,2.4-5.3,3.7-8.9,3.7 h-15.2v-25.9h15.2c3.6,0,6.6,1.2,8.9,3.7c2.3,2.4,3.5,5.5,3.5,9.3C544.1,649.4,542.9,652.5,540.6,655L540.6,655L540.6,655z M833.6,635.3v40.9l-28.4-40.9h-7.7v60.2h9.9v-40.9l28.4,40.9h7.7v-60.2H833.6L833.6,635.3z"></path> <path id="Path-5_00000070797526694466132510000000040002632244785069_" style="fill-rule:evenodd;clip-rule:evenodd;fill:#FFCE00;" d=" M144.8,616c29.6-15.8,67.8,0.9,70.6,41.1C160.6,661.3,154,636.7,144.8,616z"></path> <path id="Path-7_00000149367024305364704460000002479639474513150353_" style="fill-rule:evenodd;clip-rule:evenodd;fill:#FFCE00;" d=" M144.8,705.2c29.6,15.8,67.8-0.9,70.6-41.1C160.6,659.9,154,684.6,144.8,705.2z"></path> </svg> 