<?xml version="1.0" encoding="UTF-8"?> <svg xmlns="http://www.w3.org/2000/svg" xmlns:xlink="http://www.w3.org/1999/xlink" version="1.1" id="Layer_1" x="0px" y="0px" viewBox="0 0 512 512" style="enable-background:new 0 0 512 512;" xml:space="preserve"> <path style="fill:#FFCE00;" d="M18.8,120.1c19.2-5.2,38.3-4,56.7,3.2c6,2.4,11.1,7,14.1,9c-0.7,9.7-1.2,16.7-1.8,23.7 c-0.1,1.6-0.8,3.1-1.4,5.5c1.4,1.5,4.2,3.9,6.2,6.8c3.6,5.3,1.3,9.9-5.3,9.4c-5.1-0.4-10.9-1.3-15.1-4c-7.6-4.8-15-10.6-21.3-17 c-11.1-11.3-21.4-23.5-32.1-35.3C18.8,121.1,18.8,120.6,18.8,120.1z"></path> <path style="fill:#FFCE00;" d="M169.8,252.2c2.2-6.5,4-13.1,6.6-19.3c1.1-2.6,3.6-6.1,5.9-6.4c7-0.8,14.3-0.3,21.6-0.3 c0.8,10.5,1.5,19.4,2,28.4c0.6,9.7,0.8,19.4,1.5,29.1c0.3,4.8-1.4,6.6-6.2,6.7c-13.3,0.4-13.3,0.6-14.8-12.1 c-0.5-4.6-1.2-9.1-2.6-14.1c-1.9,6.7-4,13.4-5.7,20.2c-0.9,3.6-2.1,6.2-6.4,5.7c-4.2-0.5-9.5,2.2-11.2-4.9c-1.7-7.1-4.2-14-7.6-20.9 c0,5.9-0.2,11.7,0.1,17.6c0.3,5.9-2,8.4-8,8.5c-13.1,0.1-13.2,0.3-12.9-12.7c0.3-14.6,0.9-29.2,1.4-43.8c0.2-4.9,2.4-7.7,7.6-7.7 c0.5,0,0.9,0,1.4,0c18.9-0.4,22,2.4,24.2,21.6c0.2,1.5,0.9,2.9,1.4,4.3C168.7,252.2,169.2,252.2,169.8,252.2z"></path> <path style="fill:#FFCE00;" d="M436.8,373.9c-16.2-0.9-30.2-1.7-44.4-2.5c1.8-4.3,4.2-9,5.6-13.9c1-3.4,1.9-7.9,0.5-10.8 c-4.5-9.8-2.4-19.6-0.9-29.4c1.2-8.1-4.6-10-10.3-12.1c13-17,51.2-22.1,72.7-14.3c-7.6,8.7-15.1,17.4-22.8,25.8 c-6.4,6.9-13.1,13.4-19.9,20c-3.9,3.8-0.6,6.2,1.4,8.8c4.1,5.3,8.6,10.2,12.4,15.6C433.4,364.6,434.5,368.8,436.8,373.9z"></path> <path style="fill:#FFCE00;" d="M189.6,173c-1.3,9.8-2.5,19-9.8,25.7c-9.3,8.5-20.7,9-32.1,5.7c-10.9-3.2-16.8-11.6-18-22.5 c-1.5-13.2-1.5-26.2,10.5-35.8c12.2-9.7,33.6-8.8,42.4,3.9C186.9,156.2,187.4,165.2,189.6,173z M167.9,173.6c-0.3-0.1-0.7-0.2-1-0.2 c0-1.9,0.7-4.2-0.1-5.5c-2-3.1-4.3-6.8-7.4-8.1c-1.5-0.6-6.6,3-7.3,5.5c-1.3,4.8-2,10.5-0.6,15.1c2.6,8.4,9,9,14,1.7 C167,179.7,167.1,176.4,167.9,173.6z"></path> <path style="fill:#FFCE00;" d="M296.6,173.3c-0.5,9.5-2.2,18.4-9,25c-9.3,8.9-20.9,9.4-32.6,5.9c-10.9-3.3-17.1-11.8-17.7-22.7 c-0.5-9-0.1-18.7,3-27c3.5-9.2,12.8-13.7,22.6-14.7c11.4-1.2,22.6,1.4,28.7,11.6C295.3,157.6,295.1,165.9,296.6,173.3z M275.5,173.7 c-0.3-0.1-0.6-0.2-1-0.2c0-1.6,0.6-3.6-0.1-4.8c-2.1-3.3-4.4-6.9-7.5-8.9c-1-0.6-6.7,3-7.3,5.5c-1.3,5-2,10.9-0.4,15.6 c2.7,8,9,8.3,13.7,1.3C274.5,179.8,274.7,176.5,275.5,173.7z"></path> <path style="fill:#FFCE00;" d="M221.5,313.3c0,14.3-0.2,27,0.2,39.7c0.1,1.9,3.3,3.7,5.1,5.5c1.9-2,5.4-3.9,5.5-5.9 c0.5-12.7,0.3-25.3,0.3-39.7c5.5,0,11.8-0.2,18.1,0.2c1.1,0.1,3,2.5,3,3.8c-0.3,15.5-0.2,31.1-1.9,46.4c-0.5,4.4-5.6,9.9-10,12 c-9.2,4.5-19.5,4.2-29.1,0.1c-8.2-3.5-12.8-9.6-12.8-18.9c0.1-12.3,0.1-24.6-0.1-36.9c-0.1-4.8,2.2-6.9,6.6-6.9 C211.9,312.7,217.3,313.1,221.5,313.3z"></path> <path style="fill:#FFCE00;" d="M166.9,361.9c0,1.6,0,3.2,0,4.8c-0.2,10.1-0.2,10.1-10.2,10.1c-10.7,0-10.7,0-10.7-10.5 c0-15.3,0-30.6,0-45.9c0-5.6,1.6-9,8.3-8.4c7.8,0.7,15.9-0.2,23.6,0.9c14.2,2,20.1,22,10.3,33.6c-0.9,1.1-1.9,2-3,3.2 c3,4.9,5.5,10.1,9.1,14.5c2.7,3.3,2.1,5.7-0.6,7.5c-3.5,2.4-7.5,5.3-11.5,5.7c-2.9,0.3-6.9-2.5-9.1-5.1c-2.4-2.8-3.4-6.9-5-10.5 C167.7,361.8,167.3,361.9,166.9,361.9z M166,341.6c0.6,0.3,1.1,0.7,1.7,1c1.4-2.4,3.7-4.7,4-7.2c0.2-1.6-2.4-3.5-3.8-5.3 c-0.6,0.4-1.3,0.7-1.9,1.1C166,334.6,166,338.1,166,341.6z"></path> <path style="fill:#FFCE00;" d="M345.5,170.7c2.7,5.2,6.4,9.6,7.1,14.3c1.8,11.4-3.6,18.4-15.2,19.5c-9.2,0.9-18.5,0.6-27.8,0.3 c-1.5-0.1-4.1-3.1-4.2-4.7c-0.3-17.8-0.2-35.7-0.2-53.5c0-4.3,2-6.3,6.4-6.1c7.9,0.3,15.8,0,23.6,0.6c5.8,0.4,12.7,1.5,14,8 C350.7,156.6,352.9,165.3,345.5,170.7z M325.3,155.1c0,5.5,0,8.8,0,12c0.6,0.3,1.2,0.5,1.8,0.8c1.4-2.1,3.8-4.2,3.8-6.4 C330.9,159.9,328,158.1,325.3,155.1z M325,189.1c0.8,0.4,1.6,0.8,2.4,1.2c1-2.4,2.6-4.7,2.7-7.1c0.1-1.1-2.7-2.4-5.2-4.5 C325,183.7,325,186.4,325,189.1z"></path> <path style="fill:#FFCE00;" d="M295.2,271.6c0-2.2-0.3-4.3,0.1-6.3c0.5-2.9,1.1-7.9,2.3-8.1c4.6-0.8,9.5-0.3,14.3,0.3 c0.8,0.1,1.6,3.1,1.7,4.8c0.2,6.3,0,12.5,0.1,18.8c0,4.6-1.8,7.8-6.6,8.2c-7.6,0.7-15.3,2.3-22.7,1.4c-14-1.6-22.9-11-23.5-25.1 c-0.4-8.5,0.2-17.8,3.2-25.6c3.9-10.2,13.9-14.3,24.6-15c5-0.4,10.2,0.5,15.2,1.3c6.5,1.1,8.7,4.9,7,10.8 c-2.1,7.5-6.6,10.4-12.7,8.1c-5-1.9-9.7-1.7-13.3,2.5c-4.5,5.2-4.6,11.3-1.5,16.9C285.4,268.8,288.5,273.6,295.2,271.6z"></path> <path style="fill:#FFCE00;" d="M350.6,353.9c5.6,2,10.4,3.8,15.2,5.5c0.4-0.9,0.8-1.8,1.2-2.7c-2.6-1.6-5.1-3.3-7.8-4.8 c-10.4-5.6-14.5-14.3-11.8-25.4c2.2-9,10.3-15.1,21.2-15.2c4.8-0.1,9.8,0.4,14.4,1.5c5,1.1,7.5,4.4,4.9,9.8c-0.5,1-1.2,2-1.4,3.1 c-1.1,6-4.2,7.5-9.8,4.9c-2.1-0.9-4.7-0.7-7.1-0.9c-0.2,0.8-0.4,1.7-0.7,2.5c2.6,1.4,5.3,2.9,7.9,4.2c11.4,5.8,14.9,14,11.9,28.1 c-1.8,8.3-9.5,13.3-21.1,13.5c-3.2,0.1-6.5-0.4-9.7-0.8c-5.5-0.7-10.6-2.2-12.8-8.1C343.8,364.5,345.8,358.9,350.6,353.9z"></path> <path style="fill:#FFCE00;" d="M252.7,290.3c-10.5,0-21.2-0.1-31.9,0c-4.1,0.1-5.2-1.9-5.1-5.6c0.1-17.2,0.1-34.4,0-51.5 c0-5,1.9-7.6,7.4-7.3c8.8,0.4,17.7,0.2,26.5,0.2c8.3,0,4.5,6.6,5.3,10.2c0.8,3.5,0.3,7.8-5.4,7.6c-2.6-0.1-5.2-0.4-7.6,0.1 c-2.3,0.5-5.9,1.7-6.2,3.1c-0.8,4.3,2.8,4.6,5.9,4.1c6.3-1,7.8,1.9,7.8,7.8c0,5.7-1.6,8-7.5,7.6c-1.7-0.1-3.6,2.1-5.4,3.3 c1.8,0.9,3.5,1.9,5.3,2.8c0.2,0.1,0.5,0,0.7,0C257,272.9,259.1,276.4,252.7,290.3z"></path> <path style="fill:#FFCE00;" d="M397.5,140.9c-0.4,3-0.8,4.3-0.7,5.6c0.8,11.7,0.8,11.9-10.2,11.7c-6.2-0.1-8.3,1.6-5.5,7.8 c3.3,0.2,6.7,0.3,10,0.5c2.1,13.8,2.1,13.8-10.4,15.4c-1,6.4-1,6.4,7.6,6.4c9.1,0,12.3,5.1,8,13.3c-0.8,1.6-3.2,3.2-4.9,3.3 c-9,0.3-18.1,0.1-27.2,0.2c-4.2,0-5.7-1.8-5.7-5.9c0.1-16.5,0-32.9,0.1-49.4c0-5.8,1.6-9.4,8.8-8.9 C377.1,141.3,386.9,140.9,397.5,140.9z"></path> <path style="fill:#FFCE00;" d="M264.6,360.1c0-10.7,0-20.3,0-30c-7.7-1.5-10.8-7.2-7.5-14.3c0.7-1.5,3.4-3,5.2-3 c7.4-0.3,14.9,0,22.3-0.2c4.9-0.1,9.5-0.2,9.5,6.6c0,5.5,1.6,12.1-8,10.6c0,10,0,19.4,0,29.3c4.3,0.6,8.2,0.9,8.8,7 c0.7,8.2-0.6,10.5-8.8,10.6c-7.2,0-14.4-0.4-21.6,0.1c-5.7,0.4-8.4-1.7-8-7.2C256.8,364.8,255.7,358.6,264.6,360.1z"></path> <path style="fill:#FFCE00;" d="M343.7,313.2c0.2,3,0.2,5.1,0.5,7.2c1.2,7.1-1,9.6-8.3,10.5c-2,0.2-5.2,2.7-5.2,4.2 c-0.4,13.3-0.2,26.7-0.2,41.7c-5.3,0-11.6,0.3-17.8-0.3c-1.2-0.1-2.9-3.7-3-5.7c-0.3-10.9-0.1-21.8-0.1-32.7c0-2.3,0-4.5,0-7.1 c-1.7-0.1-2.9-0.5-3.9-0.3c-7.5,1.3-9.1-2.4-8.8-9c0.4-9.4,0.2-9.6,9.9-9.7c10.5,0,20.9,0,31.4,0.2 C339.9,312.3,341.7,312.8,343.7,313.2z"></path> <path style="fill:#FFCE00;" d="M120.8,376.4c-1.8,0.4-3.8,1.1-5.8,1.3c-12.3,1.6-14,0.2-14-12.1c0-15.1,0.3-30.2-0.1-45.3 c-0.2-6.2,2-8.2,8.1-7.8c7.9,0.5,15.8,0.3,23.7,0c4.3-0.1,6.7,1.1,6.3,5.9c-0.2,2.5,0.6,5.3-0.2,7.6c-0.6,1.8-2.7,3.8-4.5,4.3 c-2.6,0.7-5.7-0.3-8.3,0.4c-1.9,0.5-3.4,2.5-5.1,3.9c1.6,1.4,3,3.5,4.9,4.1c2,0.7,4.5,0.2,7.5,0.2c0,3.4-0.3,6.2,0.1,8.8 c0.6,5.3-1.5,7.3-6.7,6.6c-4.6-0.6-6.3,1.4-6,5.9C121.1,365.2,120.8,370.3,120.8,376.4z"></path> <path style="fill:#FFCE00;" d="M197.3,184.4c10.4,4.7,13.2,2.9,13.2-8c0-6,0-11.9,0-18.2c-2.9-0.3-5.1-0.5-8.1-0.8 c-0.4-2.6-0.9-5.3-1-8c-0.2-5.7,1.7-9.3,8.4-8.6c6.8,0.7,15.9-1.5,19.9,2.1c3.5,3.1,1.4,12.5,1.5,19.2c0.1,8.6,0.1,17.1,0,25.7 c0,8.8-4,15.3-12.4,16.9c-6.4,1.2-13.5,1.3-19.9-0.1C189.3,202.5,188.8,194.6,197.3,184.4z"></path> <path style="fill:#FFCE00;" d="M88.3,184.6c10.7,4.6,13.7,2.6,13.6-9c0-5.3-0.1-10.7-0.2-16c0-0.4-0.4-0.8-0.8-1.7 c-6.3,1-8.8-1.8-8.4-8.5c0.3-6.1,2-8.9,8.6-8c5.3,0.7,10.7,0.2,16,0.2c3.7,0,5.3,1.5,5.2,5.5c-0.2,13.7-0.1,27.4,0,41 c0.1,7.9-3.4,14.2-10.8,15.7c-7.2,1.5-15.3,1.8-22.4,0.2C80,202,80,192.6,88.3,184.6z"></path> <path style="fill:#FFCE00;" d="M415.3,159.4c-1.7-0.3-2.6-0.6-3.5-0.7c-9.2-0.5-11.8-4.1-8.9-13.1c0.6-2,3.5-4.5,5.5-4.6 c11.6-0.4,23.2,0,34.8-0.2c7.7-0.1,5.5,5.9,5.9,9.8c0.5,4.1-0.5,8.5-6,7.9c-6.8-0.7-8.2,2.2-7.9,8.4c0.5,11.1,0,22.2,0.3,33.4 c0.1,3.7-1.3,4.8-4.7,5.1c-15.1,1.4-15.4,1.2-15.4-14.1C415.3,180.6,415.3,170,415.3,159.4z"></path> <path style="fill:#FFCE00;" d="M42,204.2c6.1-8.9,11.7-17.6,18-25.9c1.6-2.1,6.3-4.6,7.6-3.8c3.8,2.4,8,5.9,9.4,10 c1.5,4.2,1.1,10.1-0.8,14.2c-1.2,2.7-6.2,4.9-9.8,5.3C59,204.7,51.2,204.2,42,204.2z"></path> <path style="fill:#FFCE00;" d="M375.8,284.3c-3.6-12.5-7-25.1-10.2-37.7c-5.2-20.1-5.1-20.1-25.6-20.1c-0.5,0-1.1-0.2-1.4,0 c-2.2,1.5-5.7,2.7-6.2,4.8c-5,17.4-9.6,34.9-14.1,52.5c-0.5,1.8,0.3,5.2,1.5,5.9c8.5,4.6,18.5-0.7,20.2-10.2 c0.1-0.9,0.2-1.8,0.4-2.9c3.4,0,6.6,0,10.2,0c2.1,4.5,3.1,10.4,6.4,12.5c3.6,2.2,9.4,0.9,14.3,1.1c0.2,0,0.5,0,0.7,0 C375.9,290,377,288.4,375.8,284.3z M351.8,263.4c-2.7,0-5.4,0-10.4,0c2.1-9.2,3.4-19,4.5-18.8c2.4,0.6,4.8,6.3,7.1,9.9 C352.6,257.5,352.2,260.5,351.8,263.4z"></path> </svg> 