<?xml version="1.0" encoding="UTF-8"?> <svg xmlns="http://www.w3.org/2000/svg" xmlns:xlink="http://www.w3.org/1999/xlink" version="1.1" id="Layer_1" x="0px" y="0px" viewBox="0 0 512 512" style="enable-background:new 0 0 512 512;" xml:space="preserve"> <path style="fill:#FFCE00;" d="M496.3,239.9c0.3,5.5,0.5,10.9,0.8,16.9c-0.5,0.2-1.7,0.8-3.1,1.5c-1-1.4-3.2-2.1-1.7-4.6 c0.3-0.4-0.3-1.5-0.6-2.2c-2.2-4.1-6.5-6.1-11.1-5.3c-4.3,0.8-8.9,0.8-12.2,4.3c-0.9,1-1.2,2.6-2.1,3.6c-3,3.7-3.7,8.1-4.2,12.6 c-0.1,0.8,0.3,1.7,0.6,3.3c1.4-3.5,2.5-6.3,3.8-9.7c1.2,4,0.7,6.6-1.3,10c-0.1,0.2-0.1,0.6-0.2,0.8c-1.3,8.4,3.9,17.5,11.9,20.6 c2.1,0.8,4.6,0.9,7.2,1.4c0.3-2.6,0.6-5.1,0.9-7.6c1.4,0.1,2.3,0.2,3.8,0.3c-1.4-1.3-2.3-2.2-3.6-3.5c1.8-0.3,2.8-0.4,4-0.6 c-1.3-1.7-2.4-3.2-3.7-4.8c0.1-0.2,0.5-0.7,1.2-1.7c-4.8,0-8-1.6-7.4-7.4c6.5-2.4,13.6,2.1,20.6-0.7c0,1.6,0,2.5,0,3.7 c3.9-1,1.6,2.7,3.9,3.8c-4.2,0.8-5,3-4.9,6.2c0.1,3.7-0.3,7.4-0.7,11.1c-0.4,3.8-2.7,6.3-6.3,7.3c-7.9,2.1-15.9,2.6-23.6-0.8 c-6.5-2.9-13.2-8.3-16.6-16c-0.8,0.3-1.6,0.5-2.5,0.8c-0.5-1.4-0.9-2.9-1.4-4.3c0.8-0.4,1.6-0.9,2.8-1.5c-1.1-1.6-2.1-3-2.9-4 c1.5-4.3,2.7-8.6,4.4-12.6c1.5-3.4,3.6-6.7,5.6-9.8c1-1.5,1.7-2.7-0.5-3.8c1.6-1.4,2.6-3.5,5.3-2.1c0.5,0.3,1.5-0.3,2.1-0.7 c6.6-3.2,13.6-3.7,20.8-3.5c3.3,0.1,6.6-0.7,9.9-1.1C495.5,239.9,495.9,239.9,496.3,239.9z"></path> <path style="fill:#FFCE00;" d="M139.3,272c1.7,0.5,4-1.5,5.8,1.7c0.9-2.3,1.7-4.6,2.9-7.8c0.6,1.5,1.3,2.5,1.4,3.5 c0.1,4.6,0.1,9.2,0.1,13.8c-1.3,0.4-2.5,0.8-3.9,1.2c0.3-1-1.7-2.5,0.8-3.2c-0.3-0.8-0.5-2.1-1-2.4c-2.1-1-4.3-1.6-6.9-2.6 c0,5.8,0,10.8,0,16c0.5-0.2,1.1-0.8,1.6-0.7c4.3,0.6,8.6,1.3,12.8,2.2c0.9,0.2,1.5,1.7,2.3,2.6c0.3,0.3,0.7,0.5,1.1,0.8 c0.3-0.6,0.6-1.2,1.1-2.1c1.1,0.2,2.5,0.6,4.5,1c-0.2-8.7,3.4-13.9,12.6-13.1c0,2.1,0,4.5,0,7.1c-1.5,0-2.8-0.2-3.8,0.1 c-2.1,0.6-2.7,3.4-1.1,4.8c0.3,0.2,0.6,0.5,0.6,0.9c0.8,4,3.9,4.7,7.3,5c0.9,0.1,1.7,0.7,2.6,1c0.2,0.3,0.4,0.7,0.6,1 c0.5-0.9,1-1.8,1.5-2.8c0.3-0.5,0.5-1.1,1-1.4c2.3-2,3.3-4.5,3.1-7.6c-0.1-1.1,1.1-2.4,0.8-3.4c-0.7-2.9-2.5-5.2-5.2-6.6 c-6.2-3.3-12.4-6.5-15.5-13.4c-0.2-0.4-1.1-0.5-2.1-0.9c-1.1-6,0.8-11.6,4-17.1c1.1-1.9,2.4-0.8,3.6-1c3.6-0.6,7.3-1.2,10.9-1.7 c1.9-0.2,3.9-0.1,5.7-0.5c0.8-0.2,1.4-1.3,2.4-2.4c0.1,0.1,1,0.5,1.1,1.2c1,5.5,2,11.1,2.9,16.6c-3.2,1-4.6-0.6-6.3-3.1 c-1.6-2.4-4.4-4.3-7-5.6c-3.9-1.9-6.7-0.4-8.5,4.3c0.5,0.1,1.3,0.1,1.4,0.3c2.5,6.3,9,8,13.7,11.9c5.5,4.6,7.7,10.8,8.4,17.5 c0.2,2-1.3,4.2-2.1,6.3c-1,2.3-1.9,4.8-3.4,6.7c-1.4,1.9-3.4,3.6-5.4,4.9c-2,1.2-4.5,2.1-6.8,2.5c-3.4,0.6-7-0.1-9.2-2.7 c-2.6-3.1-5.7-3.3-9.2-3.6c-10.5-1.1-21-1-31.6,0.1c-1.3,0.1-2.6,0.6-4.2,1c-0.2-2.5-0.5-4.9,1.9-6.9c0,0.5,0,1.1,0,1.6 c0.4,0,0.7,0,1.1,0c0.9-13.6,1.2-27.2,0.8-40.9c0.3-0.1,0.8-0.4,1.4-0.6c0-0.3,0-0.6,0-0.9c-1.6-0.2-3.3-0.5-5.5-0.8 c0.5-1.5,1.2-3.5,1.6-4.8c1.7,0.3,2.9,0.4,4.1,0.7c7.3,1.6,14.7-0.6,22,0.5c1.1,4.9,2.2,10,3.3,15.2c-2,0.5-2.7,0.6-3.6-1.4 c-1.3-3.3-3.2-6.7-5.7-9.1c-1.3-1.3-4.6-0.6-7-0.5c-0.3,0-0.9,1.4-0.9,2.2c-0.1,3.6-0.2,7.2,0,10.8c0.1,1.2-1.2,3.3,1.5,3.5 C139.7,271.2,139.5,271.7,139.3,272z"></path> <path style="fill:#FFCE00;" d="M370,296.2c1.1-0.6,2.2-1.2,3.4-1.9c0.1-0.3,0.2-0.7,0.3-1c1.8,2,3.5,4.2,5.4,6 c2.4,2.3,4.9,4.5,7.5,6.5c0.6,0.5,1.7,0.8,2.5,0.6c4-0.8,8.1-1.8,12.3-2.8c1.8,3.1,0.6,5.8-3.5,7c-13.9,4.1-24.8-0.9-33.6-11.3 c-6.3-7.4-12-15.3-17.9-23.1c-0.8-1.1-1.3-2.4-1.8-3.5c-0.7,0.2-0.9,0.2-1.1,0.2c-4.2,1.1-5.5,3.7-5,7.9c0.2,1.8-0.4,3.8-1,5.7 c-0.7,2.3,0,3.5,2.6,4.1c-1.4,4.3-0.1,5.5,5.4,4.9c-0.2,1.2-0.3,2.4-0.4,3.1c-9.3,1.4-18.4,2.8-27.4,4.2c-0.3-1.8,2-3.9,4.9-4.9 c0.6-0.5,1.2-1.2,1.8-1.6c2.2-1.5,2.4-5,0.4-6.5c-0.1-0.1-0.3-0.2-0.4-0.3c-1-1.5,0.6-9,2-10.2c0.5-0.4,0.8-1.2,1.4-2.1 c-1.3-0.1-2.1-0.2-3.1-0.3c0-4,0-7.9,0-11.4c1.5-1.5,2.8-2.8,4.5-4.5c-2.2-0.5-3.4-0.7-4.6-1c-0.2-2.6-0.6-5-0.5-7.4 c0.1-1.1,1.2-2.1,2.1-3.6c-1.5-0.5-3.2-1.1-5-1.8c-0.6-2,0.3-2.9,2.4-2.7c4,0.4,8,0.8,12,1.1c1.4,0.1,2.9-0.4,4.3-0.6 c1.8-0.2,3.7-0.4,5.6-0.6c0,2.2-0.5,3.7-2.8,3.7c-2.8,0-3.2,1.7-2.6,4.8c1-4.2,3.8-3.4,6.1-3.7c0.1,0.2,0.2,0.5,0.3,0.7 c-1.3,0.5-2.7,1-4.2,1.6c-0.4,4.8-1.7,9.8,2.1,14.8c2.9-3.3,5.6-6.2,8.8-9.7c3,0.3,3.4-3.3,5.3-5.5c-0.9-1.7-4.7-1.4-2.4-5 c1.9,0.4,4.2,1.1,6.4,1.1c2.8,0.1,5.6-0.3,8.4-0.6c0.7-0.1,1.4-0.4,2-0.2c0.7,0.1,1.3,0.6,1.9,1c-0.4,0.7-0.6,1.7-1.2,2 c-3.5,2.4-7.4,4.4-10.7,7c-3.4,2.7-6.3,6.1-9.2,9.5c3-0.1,4,1.6,5.1,3.5c3.7,6.7,7.6,13.3,11.5,20c-1.1,0.8-2.1,1.5-3.7,2.6 c1.8,0,2.9,0,4.5,0c-0.6,1.3-1,2.2-1.4,3.1C369.7,295.6,369.9,295.9,370,296.2z"></path> <path style="fill:#FFCE00;" d="M40.7,266.1c-2.5,10-5,19.9-7.3,29.9c-0.5,2-1.4,2.2-3,2.2c-1.6,0-2.6-0.1-3.2-2.1 c-0.4-1.4,0.7-4.2-2.6-4.2c-0.2,0-1-3.9-0.5-4.3c2.9-1.8-0.2-3.3-0.2-4.9c-0.1,0.6-0.3,1.2-0.4,1.8c-0.2,0-0.4,0.1-0.6,0.1 c-0.8-3.3-1.6-6.6-2.3-9.9c-0.1,0-0.2,0-0.4,0c0,5.6,0,11.3,0.1,16.9c0,0.6,0.9,1.2,1.5,1.7c1.2,1,2.5,2,3.7,3 c-0.2,0.3-0.3,0.5-0.5,0.8c-0.6,0.1-1.5,0-1.6,0.2c-1.1,2.9-3.2,2.2-5.5,2.1c-3.1-0.2-6.2,0.4-10.3,0.7c1.1-2.5,2.1-4.7,3.1-6.9 c0.5-1,1.1-2.1,1.2-3.2c0.3-3.5,0.5-7,0.7-10.6c0.3-7.9,0.6-15.9,0.9-23.8c0-0.8,0-1.7,0-2.6c0.3,0,0.8,0.1,1.3,0.1 c0.1-0.2,0.2-0.5,0.4-0.7c-0.8-0.6-1.7-1.1-3-2.1c-0.4-1.5-0.1-3.6,1.8-6c0.2,1.4,0.3,2,0.4,2.6c3.1,0,6.1,0,9.4,0 c-0.2-1-0.3-1.6-0.4-2.2c0.2-0.2,0.4-0.3,0.6-0.5c0.8,0.8,2,1.4,2.3,2.4c0.8,3,1.1,6.1,1.8,9.1c1.3,5.9,2.6,11.8,4,17.6 c0,0.1,0.3,0.2,0.4,0.3c2.2-9.4,3.1-19.2,6.4-28.3c0.3,0,0.7,0,1,0c0.3,0.6,0.7,1.1,0.8,1.5c1.5,0.1,2.8,0.4,4.1,0.3 c0.9-0.1,1.9-0.7,2.7-1.3c3,0.4,3.1,0.6,3.7,4.1c-1.3,2-2.1,3.4-3.3,5.3c1.4-0.1,1.9-0.1,2.4-0.1c0.6,11.8,1.1,23.4,1.8,35 c0.1,1.3,1.4,2.5,2.3,3.7c0.7,0.9,1.6,1.7,2.4,2.5c-0.1,0.2-0.3,0.5-0.4,0.7c-0.3,0-0.8-0.1-0.9,0c-1.9,3.8-5.3,2.1-8.3,2.1 c-3.4,0-6.8,0-10.8,0c0.9-1.8,1.8-3.5,2.6-5.2c0.6-1.3,1.4-2.5,1.5-3.9c0.2-2.7,0-5.5,0.1-8.2c0.1-2.2,0.4-4.6,3.9-5.4 C39.9,274.1,42.1,269.8,40.7,266.1z M18.4,273.3c1-1.4,0-3.8,3.1-3.6c-0.8-2.2-1.4-4.1-2.1-5.9c-0.2,0-0.4,0-0.6,0 C18.7,267,18.5,270.2,18.4,273.3z M18.8,290c0.1,0,0.1,0,0.2-0.1c0.2-3.5,0.4-6.9,0.7-10.4c-0.3,0-0.6,0-0.9,0 C18.8,283,18.8,286.5,18.8,290z"></path> <path style="fill:#FFCE00;" d="M95.7,276.4c-0.1-2.1-0.2-4.2-0.3-6.3c-1.5,2.9-1.1,6.6,0.1,9.3c0.3,0.7-0.4,1.8-0.6,2.8 c-0.3,1.4-1,2.9-0.6,4c1,2.7,2.6,5.1,3.7,7.7c0.7,1.6,0.9,3.5,1.5,5.9c-3.6,0-6.5,0-9.3,0c-2.8,0-5.7,0-8.9,0c0.1-1.1,0.1-2.7,0.3-5 c0.9,1.1,1.3,1.6,2.2,2.7c0.6-2.4,1.3-4.3,1.4-6.2c0.2-3-0.1-6.1-0.1-9.1c0-1.2,0.4-2.4,0.7-4.2c-2.5-0.8-5.5-1.7-8.4-2.8 c-2-0.7-2.4,1-3.3,1.9c-0.2,0.2,0,1.3,0.1,1.3c3.4,0.3,0.4,2.8,0.7,3.6c-0.5,1-1.3,2-1.5,3.1c-1.2,8.1-5.7,14.5-11.4,20 c-1.4,1.4-4,1.6-6.1,2.4c-1,0.4-2,0.7-3,1c-0.8-2.5,0.5-5.9,2.9-6c4-0.2,5.2-3.1,6-5.8c1.4-4.3,2.2-8.9,3-13.4 c0.7-3.8,1.2-7.7,1.6-11.5c0.1-0.8-0.8-1.7-1.5-2.9c1-0.6,2.1-1.2,3.5-2.1c-0.5-0.8-1.3-2-1.7-2.7c1.1-1.9,2.2-3.8,3.4-5.6 c1.8-2.8,3.6-5.7,5.6-8.4c0.3-0.5,1.7-0.2,2.5-0.3c1.2-0.2,2.5-0.4,3.8-0.6c-0.1-0.7-0.2-1.3-0.3-1.9c0.3-0.1,0.5-0.2,0.8-0.3 c0.5,0.9,0.9,1.8,1.4,2.8c4.6,0,9.5,0,14.5,0c0,0.9,0,1.8,0,3c-3.7-0.6-4,2-4.5,4.4c-0.2,1.1-0.6,2.1-0.8,2.6c0.8,2.1,1.5,4,2.1,5.3 c-1.2,0.8-1.9,1.3-3.1,2C98.6,269.1,95.1,273.3,95.7,276.4z M84.6,267.5c0-2.9-0.1-5.4,0-7.8c0.1-1.4,0.4-2.8,0.6-4.5 c-3.1-1.3-5.1-0.2-7.3,5.2C76.2,264.3,76.2,264.3,84.6,267.5z"></path> <path style="fill:#FFCE00;" d="M422,257.9c5.5-3.5,17.8-3,21.4,0.7c-0.6,1-1.1,2-1.8,3c-0.9-0.6-1.8-1.2-2.6-1.8 c-0.2,0.1-0.5,0.2-0.7,0.3c0.2,1.3,0.4,2.7,0.6,4.2c-3.5,0.1-3.1,2.6-3.1,5.2c-0.1,6.9-0.4,13.9-0.7,20.8c3.9,0,4.4,3.8,5.9,5.9 c1.8,2.6,1.3,3,3.8,1.1c0.2-0.2,0.5-0.2,0.8-0.3c0.2,0,0.4,0,0.6,0c-0.2,4.7-2,6.2-6.6,5.5c-5.3-0.7-8.4-4.3-11.3-8.2 c-0.6-0.8-0.5-2.1-1.1-2.8c-0.7-0.6-1.5-1-1.9-1.7c-2.6-4.6-5.1-9.3-7.7-14c-0.3,0.2-0.7,0.3-1,0.5c3.1,5.9,6.2,11.8,9.3,17.8 c-0.3,0.2-0.5,0.4-0.8,0.6c-0.8-0.9-1.8-1.6-2.2-2.6c-1.4-3.4-1.3-3.4-4.9-1.8c0.3,0.8,0.5,1.7,0.9,2.9c-3.7,0-7.2,0-11.3,0 c0-8-0.1-16.2,0.1-24.3c0-1.3,0.9-2.5,1.5-4.2c-1.8-1.3-3.1-4.9-7.3-4.1c-0.6,0.1-1.5-1.8-2.2-2.7c3.9-4.7,10.6-3.9,20.1,2.2 c0.1-1.1,0.2-2.4,0.3-3.9C420.7,257,421.3,257.4,422,257.9z M419.5,262.7c-0.4,0.8-0.8,1.5-0.9,1.7c5.4,5.8,8,12.9,12.4,18.8 c0-4.6,0-9.2,0-14.1c-1,0.2-1.9,0.3-2.9,0.5c-0.1-0.5-0.3-1.1-0.5-1.7c0.9-0.4,1.7-0.7,2.4-0.9c-1.6-2.3-3-4.5-4.8-7.2 c-0.7,2-1.4,3.6-2,5.4C421.9,264.4,420.9,263.7,419.5,262.7z"></path> <path style="fill:#FFCE00;" d="M227.8,298.1c-1.1,0-1.8-0.1-1.8,0c-1,3.2-3.6,1.9-5.7,2c-3.6,0.1-7.3,0-11,0.1 c-1.1,0-2.2,0.4-3.8,0.8c0.2-2,0.4-4,0.6-6.4c1.3,1.2,1.9,1.8,2.6,2.4c0.3-0.8,0.7-1.7,0.7-2.5c0.2-7.8,0.5-15.6,0.5-23.4 c0-4.7-0.3-9.4-0.4-14.2c0-0.7,0.9-1.4,1.6-2.2c-3.2-0.6-5.5,0.2-6.8,3.2c-1.1,2.3-2.2,4.6-3.6,6.7c-0.5,0.7-1.7,1-3.2,1.8 c0.8-6.6,1.6-12.8,2.3-18.7c1.4,0.7,2.4,1.7,3.5,1.7c6.7,0.2,13.3,0.1,20,0.1c0.5,0,1.1-0.1,1.6,0c2,0.2,3.9,0.5,6,0.8 c1.1,4.4,2.3,9.2,3.6,14.1c-1,0.3-2,0.5-2.8,0.7c-3.7-4-7.4-8-11.1-12c-0.2,0.2-0.4,0.3-0.6,0.5c0.6,1.6,1.3,3.2,1.6,4.9 c0.1,0.9,1.2,2.9-1.4,2.8c-0.1,0-0.3,1.7-0.2,2.5c0.7,5-0.1,10-0.6,15c0.5-0.1,0.9-0.2,1.6-0.3c0.2,1.1,0.5,2.2,0.7,3.1 c-1,1.1-2,2.2-2.4,2.7c1.3,1.9,2.3,3.2,3.5,4.8c-1.2,0.4-1.9,0.6-2.3,0.7c1.2,2.2,2.3,4.3,3.5,6.3c0.4-0.3,1-0.8,1.6-1.2 C226.1,295.8,226.8,296.7,227.8,298.1z"></path> <path style="fill:#FFCE00;" d="M261.6,295.7c0.9-0.9-1.2-3.2,1.6-3.6c-0.7-0.9-1.5-1.7-2.2-2.6c-0.2,0.1-0.4,0.3-0.5,0.4 c-0.9-1.7-2.2-3.2-2.6-5c-0.5-1.9-0.6-4.1-0.4-6.1c1-8.9,1.5-18,7.8-25.3c0.6-0.7,1.8-0.7,2.7-1.1c0.8-0.3,1.6-0.7,2.4-1 c2.3-0.8,4.6-1.7,6.9-2.4c0.2-0.1,0.5,0.1,0.8,0.2c0.6,0.3,1.1,0.5,1.7,0.8c0.3-0.7,0.6-1.4,1.2-2.7c0.6,1.1,1,2,1.5,3 c3.6,0.1,4.2-0.3,5-2.9c2.4,1.6,2.3,1.6,0.8,3.6c-0.2,0.3-2.4,2.1,0.4,2.7c0.3,0.1,0.6,1.1,0.7,1.8c0.2,2.9,0.3,5.8,0.5,8.7 c-0.7,0.3-1.5,0.6-2.4,1c-0.4-1.5-0.7-2.9-1.2-4.8c-0.6,0.9-1.1,1.5-1.3,1.8c-1.3-1.6-2.3-3.6-3.8-4.7c-6.5-5-12-0.4-12.9,5.6 c-0.6,3.5-0.5,7-0.8,10.5c-0.4,3.5,1.5,6.5,2,9.8c0.5,3.6,1.6,7.1,4.8,9.4c0.5,0.4,0.5,1.5,0.8,2.6c3.7-1,7.5-1.2,9.9-5.2 c1.4-2.4,4.1-4.1,6.6-5.8c-2.1,7.2-5.4,13.3-12.8,16.4c-6.7,2.8-9.6,2.4-14.4-3.5C263.6,296.6,262.7,296.3,261.6,295.7z"></path> <path style="fill:#FFCE00;" d="M108.5,256.5c-1.6-0.6-2.8-1.1-4-1.6c0.1-0.2,0.1-0.4,0.2-0.5c1.6,0.3,3.2,0.5,4.8,0.8 c0.1-0.3,0.1-0.7,0.2-1c-1.8-0.4-3.7-0.7-5.8-1.2c0-0.4,0-1.3,0-2.1c0.1-3.3,0.7-3.8,4.1-3.9c3.5,0,6.9,0,10.4,0 c1.7,0,3.7-0.4,4.4,1.9c0.8,2.4-1.3,3.6-2.6,4.3c-2.1,1.1-2.1,2.5-2.3,4.5c-0.3,3.9-1.1,7.7-1.6,11.6c-0.1,0.8,0.6,1.8,0.9,2.6 c0.7,1.5,1.4,3,2.1,4.5c-0.3,0-0.6,0-0.9,0c-0.4,1-1,2.1-1.1,3.1c-0.3,5.2-0.2,10.4-0.6,15.5c-0.6,6.1-3.2,11.4-8.1,15.4 c-3.5,2.8-5.4,2.7-8.9-0.2c-0.2,0.5-0.4,1-0.7,1.8c-1.9-3.2-0.6-5.7,1-8c2-2.9,4.4-2.1,7.4-0.2C109.3,287.6,108.2,271.9,108.5,256.5 z M120.2,249c0-0.2,0-0.4,0-0.6c-4.8,0-9.6,0-14.4,0c0,0.2,0,0.4,0,0.6C110.6,249,115.4,249,120.2,249z"></path> <path style="fill:#FFCE00;" d="M248,270c1.3,1.8,2.5,3.4,4.1,5.5c-1.3,0-1.7,0-1.8,0c0,5.2-0.2,10.4,0.1,15.6 c0.1,1.2,1.9,2.3,2.9,3.4c0.9,0.9,1.8,1.8,2.8,2.7c-0.2,0.3-0.4,0.5-0.6,0.8c-0.4,0-1.1-0.2-1.1-0.1c-1.3,3.1-3.9,1.3-5.8,1.4 c-3.6,0.3-7.3,0.3-11.4,0.4c0.1-1.4,0.2-3.5,0.3-5.5c0.4,0,0.7,0,1.1,0c0.2,0.7,0.4,1.3,0.6,2c0.2,0,0.3,0,0.5,0c0-13,0-26.1,0-39.2 c0.5,0,1,0,1.7-0.1c-0.5-1.2-0.6-2.7-1.3-3.2c-0.9-0.5-2.3-0.1-4.1-0.1c0.4-2.1,0.7-4.3,1.1-6.5c2,3.6,5.1,1.6,7.4,2 c0.7,0.1,1.5-0.9,2.2-1.6c2.5-0.8,2.8,4.7,6.3,1.5c0-0.1,0-0.7,0-1.5c0.5,0.2,1.2,0.3,1.3,0.5c0.2,0.7,0.5,1.9,0.1,2.2 c-3.8,2.8-4.9,6.6-4.7,11.1C249.8,264.7,250.9,268.3,248,270z"></path> <path style="fill:#FFCE00;" d="M387.4,277.4c0.7-0.1,1.4-0.2,2.3-0.4c0,2.8-0.2,5.6,0.1,8.2c0.3,2.3,1.2,4.4,1.9,7 c1.2-0.8,1.8-1.2,2.4-1.7c0.2,0.1,0.3,0.3,0.5,0.4c-0.6,0.8-1.3,2.4-1.8,2.3c-5.3-0.1-10.7,1.1-15.8-0.9c0-0.3,0-0.7,0-1 c1,0,1.9,0.1,2.9,0.1c0.4,0,0.9-0.1,1.3-0.2c-0.1-0.5-0.2-0.9-0.4-1.4c-0.3-0.8-1-1.6-1.1-2.4c-0.2-5.4-0.3-10.8-0.2-16.2 c0-1.2,1.1-2.4,1.8-3.9c-1-1.7-2.3-4-3.9-6.6c2.8-1,5.1-1.8,7.4-2.4c0.8-0.2,1.9,0.2,2.8,0.5c1.2,0.4,2.3,0.9,3.5,1.5 c0.9,0.4,2.3,1.1,2.3,1.6c0,1.2-0.7,2.4-1.3,3.6c-0.6,1-1.9,1.9-1.9,2.9c-0.1,3.1,0.9,6.4-3.4,8.2 C386.8,277,387.1,277.2,387.4,277.4z"></path> <path style="fill:#FFCE00;" d="M193.5,225.8c-10.1,0.1-16-6.8-14.2-16.7c2.1-11.6,14.2-18.1,25.1-13.4c4.8,2,6.9,5.9,7.3,10.9 C212.4,217.4,204.5,225.7,193.5,225.8z M189.4,212c0.5,3.3,1.8,5.4,4,5.9c2.4,0.5,5.1-0.9,6-3.6c0.8-2.3,1.2-4.7,1.3-7.1 c0.1-2.1-0.9-4.1-3.3-4.7c-2.3-0.6-4.3,0.4-5.4,2.3C190.9,207,190.3,209.5,189.4,212z"></path> <path style="fill:#FFCE00;" d="M260.3,206.5c-0.1,13.7-11,21.9-23.3,18.6c-5.2-1.4-8.4-4.9-9.1-10.1c-1-6.9,1.1-12.9,6.8-17.2 c5.7-4.3,12.1-4.7,18.6-2.1C258.4,198,260.2,202.4,260.3,206.5z M249.8,208.5c-0.4-3.6-1.6-5.6-4-6.1c-2.4-0.5-5.1,1.1-6.1,4 c-0.7,2.1-1,4.4-1.2,6.6c-0.2,2.2,0.8,4.1,3.1,4.8c2.4,0.7,4.5-0.2,5.6-2.2C248.4,213.3,249,210.8,249.8,208.5z"></path> <path style="fill:#FFCE00;" d="M259.8,194.4c7.9,0,15.8-0.1,23.6,0.1c2.9,0.1,5.4,1.6,6.2,4.6c0.8,3.2-0.2,5.9-2.7,8.1 c-0.8,0.7-1.7,1.1-2.4,1.7c1.3,1.2,3,2.1,3.8,3.6c0.7,1.4,0.7,3.3,0.5,4.9c-0.7,4.1-3.9,7.2-8.2,7.9c-2.3,0.4-4.7,0.6-7.1,0.6 c-5.8,0.1-11.5,0-17.5,0c2-2.6,3.8-5,5.7-7.3c0.4-0.5,1.5-0.5,2.3-0.6c4.3-0.1,8.5,0,12.8,0c0.7,0,1.5,0.2,1.9-0.1 c0.8-0.6,1.4-1.5,2.1-2.3c-0.8-0.5-1.5-1.4-2.3-1.5c-3.9-0.2-7.8-0.1-11.7-0.1c-1,0-2.1,0-3.2,0c0.4-2.7,0.7-5.2,1.1-7.9 c3.9,0,7.8,0,11.7,0c0.8,0,1.6,0.2,2.2-0.1c1-0.5,1.8-1.3,2.6-2c-0.9-0.6-1.7-1.7-2.6-1.8c-4.1-0.2-8.2-0.2-12.2,0 c-1.8,0.1-2.7-0.4-3.3-2.1C262.4,198.2,261,196.4,259.8,194.4z"></path> <path style="fill:#FFCE00;" d="M318.1,202.2c-5.5,0-10.7,0-16.1,0c-0.3,1.3-0.5,2.4-0.8,3.9c2.7,0,5.2,0,8.1,0 c-0.3,2.4-0.5,4.5-0.9,6.6c-0.1,0.5-1.1,1.2-1.7,1.2c-2.1,0.2-4.2,0.1-6.4,0.1c-0.3,1.2-0.5,2.4-0.8,3.9c5.4,0,10.5,0,16,0 c-0.3,2.4-0.4,4.5-0.8,6.6c-0.1,0.5-1,1.3-1.5,1.3c-7.6,0.1-15.1,0.1-23,0.1c1.6-10.6,3.2-20.9,4.8-31.3c8,0,15.9,0,24.3,0 C318.8,197,318.5,199.5,318.1,202.2z"></path> <path style="fill:#FFCE00;" d="M334.7,225.7c-2.7,0-5.2,0-7.9,0c1.1-7.8,2.3-15.5,3.4-23.5c-2.7,0-5.3,0-8.1,0 c0.5-2.8,0.9-5.2,1.3-7.8c8,0,15.7,0,24,0c-0.3,2.6-0.5,5-0.8,7.8c-2,0-3.8,0.1-5.5,0c-2-0.2-2.8,0.4-3,2.5 c-0.8,6.2-1.8,12.4-2.8,18.6C335.1,224.1,334.9,224.8,334.7,225.7z"></path> <path style="fill:#FFCE00;" d="M203.2,227.6c3.2-0.9,4.7-4.3,8.5-4.3c0.8,0,2.1-2.3,2.3-3.6c1.1-6.1,2-12.2,2.9-18.3 c0.2-1,0.4-2,0.4-2.4c3.1-1.2,5.8-2.3,8.6-3.3c-0.8,5.2-1.5,10.7-2.4,16.1c-0.5,3.2-0.9,6.5-1.7,9.7 C219.8,229.2,210.2,232.5,203.2,227.6z"></path> <path style="fill:#FFCE00;" d="M154.6,227.6c3.2-0.9,4.7-4.4,8.5-4.2c0.8,0,2.1-2.6,2.4-4.2c1.2-6.4,2-13,3-19.4 c0.1-0.4,0.2-0.7,0.2-0.8c3-1.1,5.7-2.1,8.8-3.3c-1.5,8.9-2.6,18-4.7,26.9C171.2,229.5,160.9,232.2,154.6,227.6z"></path> <path style="fill:#FFCE00;" d="M178.1,190.5c-2.5,3.1-5.2,3.7-8.3,3.9c-0.5-2.7,0.1-4.2,3.1-3.9 C174.3,190.6,175.8,190.5,178.1,190.5z"></path> <path style="fill:#FFCE00;" d="M226.7,190.6c-2.5,2.9-5.2,3.8-8.7,3.5c0.2-1.3,0.4-2.3,0.6-3.5C221.2,190.6,223.6,190.6,226.7,190.6 z"></path> </svg> 