<?xml version="1.0" encoding="UTF-8"?> <svg xmlns="http://www.w3.org/2000/svg" xmlns:xlink="http://www.w3.org/1999/xlink" version="1.1" id="Layer_1" x="0px" y="0px" viewBox="0 0 1000 1000" style="enable-background:new 0 0 1000 1000;" xml:space="preserve"> <path style="fill:#FFCE00;" d="M987.7,443.5c-0.6,2.4-1.1,4.7-1.7,7.1c-6.1,25.4-28.7,46.5-54.8,50.8c-5.4,0.9-11,1.2-16.5,1.2 c-276.1,0.1-552.3,0-828.4,0.1c-19,0-35.6-5.3-50.1-17.6c-12.4-10.6-19.8-23.8-22-39.9c-0.3-1.8-0.7-3.6-1.1-5.3 c0-6.4,0-12.9,0-19.3c0.2-2.7,0.5-5.5,0.5-8.2c0.1-9-0.3-18.1,0.1-27.1c1.4-29.6,16-50.4,43.2-62.1c6.5-2.8,13.8-3.8,20.7-5.6 c281.9,0,563.7,0,845.6,0c1.3,0.3,2.7,0.7,4,0.9c28.6,3.5,52.6,25.2,58.8,53.3c0.6,2.5,1.2,5,1.8,7.5 C987.7,400.6,987.7,422.1,987.7,443.5z M476.5,347.5c-44.4,0.1-77.1,36.8-71.9,81c2.3,20.1,12.5,34.7,31.9,41.8 c49.5,18.3,99.8-16.8,99.6-69.4c-0.1-21-8-38-28.2-47.1C498,349.3,487.4,347.5,476.5,347.5z M263.5,476.2c0.1-0.4,0.2-0.9,0.3-1.3 c41.8,0.1,72.6-31.3,72.7-73.9c0-26.9-13.2-44.8-39.3-51.1c-56.9-13.8-96.8,31-92.3,78.3c1.8,18.7,11.1,33.7,29.3,40.8 C243.5,472.7,253.7,473.9,263.5,476.2z M551.3,426.8c6.4,0,12.1,0,17.7,0c14,0.1,28-0.2,41.9,0.5c3.3,0.2,6.4,3.5,9.7,5.4 c-1.3,2.2-2.4,4.6-4,6.7c-2.4,3.1-5,4.8-9.6,4.7c-19-0.5-38.1-0.2-57.1-0.2c-3.8,0-6.6,1.6-9,4.7c-5.3,7-10.8,13.8-16.1,20.7 c-0.8,1-1.4,2.1-2.3,3.3c1,0.3,1.4,0.6,1.8,0.6c30.4,0,60.8,0.2,91.2-0.3c15.1-0.2,27.2-7.4,33.5-21.3c10.8-23.8,5-33-11.3-42.2 c-1.2-0.7-2.3-1.6-4.1-2.9c1.7-1,2.7-1.7,3.7-2.3c8-4.2,14.2-10,17.7-18.5c6.4-15.7,0-30.9-15.5-36.1c-3.4-1.2-7.2-1.9-10.8-1.9 c-29.6-0.2-59.3-0.2-88.9-0.3c-0.8,0-1.7,0.4-2.7,0.7c4.4,8,8.8,15.7,12.7,23.6c2.3,4.6,5.5,6.9,10.8,6.8c17.2-0.2,34.4-0.1,51.6,0 c2.4,0,5,0.3,7.2,1.1c3.8,1.3,5.1,4.8,2.9,8.1c-3.4,5-7.8,8.5-14.4,8.4c-16.3-0.2-32.6-0.3-48.8-0.3c-1.2,0-3.4,1.4-3.6,2.4 C554,407.3,552.8,416.7,551.3,426.8z M777.8,347.4c-2.2-0.1-3.8-0.3-5.4-0.3c-27,0.1-54.1,0.3-81.1,0.5c-9.9,0.1-12.1,2-13.6,12 c-5.1,32.7-10.1,65.4-15.2,98.1c-0.9,5.5-1.6,11.1-2.4,16.9c1.4,0.2,2.3,0.4,3.2,0.4c21.8,0,43.6,0,65.5-0.1c7.4,0,14.8,0,22.1-0.1 c6.1-0.1,7.7-1.4,8.6-7.2c0.7-4.4,1.2-8.8,1.7-13.2c0.4-3.6,0.7-7.1,1.1-11.2c-22.2,0-43.4,0-65.4,0c0.8-4.6,1.8-8.6,2.1-12.6 c0.3-3,1.4-3.9,4.3-3.9c8.6,0.1,17.2,0,25.8,0.1c2.7,0,3.8-0.9,4.2-3.6c0.8-6.7,1.9-13.3,2.9-20c0.4-2.5,0.7-5,1.1-8.1 c-8.1,0-15.6,0.1-23.1,0c-10-0.2-8.8,2.1-8.7-9.1c0.1-5.4,2.2-7.4,7.5-7.8c2-0.1,4-0.1,6-0.1c16.6,0,33.2,0.1,49.8-0.1 c1.6,0,4.5-1.1,4.7-2.1C775.1,366.7,776.3,357.4,777.8,347.4z M823.9,378.9c0.2,1.1,0.4,1.5,0.3,2c-4.5,29.7-8.9,59.4-13.5,89 c-0.6,3.6,0.2,5,4.1,4.8c7.8-0.3,15.7-0.2,23.5,0c3.2,0.1,4.3-1.1,4.7-4.2c3.5-26.3,7.1-52.5,10.6-78.7c1.3-9.5,4.7-12.8,14.3-13.3 c5.1-0.3,10.1-0.1,15.2-0.1c4.6,0,7-2.4,7.7-6.9c0.6-3.6,1.7-7.2,2.1-10.8c0.5-4.5,0.6-9,0.9-13.5c-24.6,0-48.4,0-72.2,0 c-5.7,0-11.4,0-17,0.4c-3.5,0.2-7.7,1-8.6,4.9c-1.9,8.4-3,17.1-4.5,26.4C803,378.9,813.5,378.9,823.9,378.9z M107.6,485.8 c6,2,11.2,4.9,16.6,5.4c7.9,0.7,15.9,0.4,24-2.1c16.2-5,27.2-14.7,30.4-31.2c4.7-24.8,8.4-49.8,12.4-74.7c1.5-9.2,2.7-18.4,4.1-28.4 c-7.5,2.6-14.2,4.9-20.9,7.2c-12,4.2-11.8,4.2-13.9,16.8c-4,24.6-8,49.2-12.1,73.8c-1.4,8.7-6.7,13.4-15.2,15.3 c-4.2,0.9-8.3,3.2-11.8,5.8C116.6,477,112.6,481.2,107.6,485.8z M306.4,485.5c6.3,2.2,11.7,5.1,17.3,5.7c8.6,0.9,17.2,0.3,25.7-2.6 c15.5-5.3,25.6-15.2,28.6-31.2c4-20.6,7.1-41.3,10.4-62c2.1-13.2,3.9-26.5,5.8-39.9c-0.7-0.2-1.2-0.4-1.6-0.3 c-9.4,3.3-18.8,6.5-28.1,10.1c-1.4,0.6-2.8,2.7-3.2,4.3c-1.2,5.2-1.9,10.5-2.8,15.8c-3.7,22.3-7.3,44.7-11,67.1 c-1.5,9.1-6.1,13.3-15,15c-2.9,0.5-6,1.7-8.4,3.5C318.3,475.3,312.9,480.1,306.4,485.5z M165.7,345.6c14.5-0.1,28.6-5.5,31.3-15.1 c-9.3,0-18.4-0.1-27.5,0.1c-0.7,0-1.9,1.5-2.1,2.4C166.7,337,166.3,341.1,165.7,345.6z M397.3,330.4c-10.1,0-19,0-28,0.1 c-0.8,0-2.1,1-2.2,1.7c-0.8,4.3-1.2,8.6-1.9,13.3C378.1,344.8,389.4,342.7,397.3,330.4z"></path> <path style="fill:#FFCE00;" d="M270.9,602.7c13.1,4.2,17.8,12.5,15.1,25c-2,9.5-3.8,19.1-5.6,28.7c-2.6,13.9-11,20.9-25.3,20.9 c-45.5,0-90.9,0-136.4,0c-1.8,0-3.6,0-6.1,0c1.6-8,3-15.4,4.5-22.8c7.6-37.4,15.2-74.8,22.6-112.2c0.6-3.3,1.8-4.1,5-4.1 c40.4,0.1,80.8,0,121.2,0.1c13.8,0,24.5,12.7,22.2,26.3c-1.3,7.7-2.7,15.4-4.2,23C282.6,594.6,278.3,599.5,270.9,602.7z M163.6,644.5c24.9,0,48.8,0,72.8,0c3,0,4.8-1.6,5.4-4.6c1-5.5,2.1-11,3.2-16.5c0.8-4.1-0.8-6.1-5.1-6.1 c-22.6-0.1-45.2-0.1-67.7,0.1c-1.1,0-3,1.2-3.2,2.1C167,627.5,165.4,635.6,163.6,644.5z M175,588.9c2.1,0,3.8,0,5.4,0 c17,0,34.1,0,51.1,0c10.3,0,10.3,0,12-10.3c1.1-6.4-0.2-7.9-6.8-7.9c-24.9,0-49.7,0-74.6,0c-1.4,0-2.8,0-4.3,0 c0,0.3-0.1,0.6-0.1,0.9c6.4,2,12.9,4,19.3,5.9C176.4,581.3,175.8,584.6,175,588.9z"></path> <path style="fill:#FFCE00;" d="M857.6,538.5c0,10.3,0.2,20.1-0.2,29.9c-0.1,1.6-1.9,3.7-3.4,4.8c-21.2,15.1-42.5,30.1-63.7,45.2 c-4.6,3.3-9.5,6.3-13.7,9.9c-9.6,8.3-20.9,12.3-33.2,13.9c-2.1,0.3-4.1,0.8-6.2,1.9c35.4,0,70.8,0,107,0 c-2.3,11.4-4.4,22.1-6.6,32.8c-49,0-97.6,0-146.8,0c0-10.5-0.1-20.7,0.1-30.9c0-1.2,1.4-2.6,2.6-3.4c30.1-21.3,60.1-42.8,90.5-63.7 c4.6-3.2,11.3-3.4,17-4.8c4.3-1,8.6-1.8,12.8-3.6c-36.2,0-72.4,0-109,0c2.2-11,4.4-21.5,6.5-32.1 C760.1,538.5,808.6,538.5,857.6,538.5z"></path> <path style="fill:#FFCE00;" d="M682.9,538.3c-2.2,11-4.2,21.4-6.4,32c-22.6,0-45,0-67.4,0c-0.1,0.3-0.2,0.7-0.3,1 c6.6,2,13.2,4.1,20.1,6.2c-3.9,19-7.7,37.6-11.5,56.3c-2.7,13.3-5.2,26.7-7.9,40c-0.3,1.3-1.8,3.3-2.7,3.3 c-14.7,0.2-29.4,0.1-44.7,0.1c7.2-35.7,14.2-70.9,21.4-106.7c-16.4,0-32.5,0-48.9,0c2.1-10.4,3.9-20.3,6.2-30.1c0.2-1,3-2.1,4.6-2.1 c23.2-0.1,46.4-0.1,69.6-0.1c20.7,0,41.5,0,62.2,0C679,538.3,680.7,538.3,682.9,538.3z"></path> <path style="fill:#FFCE00;" d="M370.3,538.4c-2.2,11.3-4.1,22-6.2,32.6c-4.2,21-8.5,42.1-12.6,63.1c-0.5,2.6-1.3,3.9-4.1,4.6 c-5.6,1.3-11.1,3.2-16.6,5.5c34.7,0,69.3,0,104.7,0c-0.3,2.2-0.5,3.8-0.8,5.4c-1.6,8.1-3.2,16.2-4.7,24.3c-0.5,2.5-1.4,3.6-4.2,3.6 c-42.4-0.1-84.8-0.1-127.2-0.1c-0.6,0-1.2-0.2-2.3-0.3c0.3-1.9,0.4-3.6,0.7-5.3c4.2-20.1,8.6-40.3,12.7-60.4 c4.7-23.1,9.3-46.3,14.1-69.4c0.3-1.3,1.9-3.4,2.9-3.4C341,538.3,355.3,538.4,370.3,538.4z"></path> <path style="fill:#FFCE00;" d="M478,538.5c14,0,27.6,0,41.7,0c-2.1,10.8-4.2,21.2-6.3,31.9c-7,0-13.9,0-20.7,0 c-0.1,0.3-0.1,0.6-0.2,1c6.4,2,12.8,4,19.6,6.1c-6.6,33.3-13.2,66.3-19.8,99.5c-14,0-27.9,0-42.1,0 C459.5,630.6,468.7,584.6,478,538.5z"></path> <path style="fill:#FFCE00;" d="M445.5,422.1c2-9.1,3.8-18.2,6.1-27.2c0.7-2.8,2.6-5.6,4.5-7.9c5.8-6.9,13.3-10.6,22.4-8.4 c9,2.2,12.4,9.5,14.9,17.6c2.8,9-1.5,16.8-3.6,24.9c-1,4-2.6,7.9-4.5,11.5c-6.8,12.8-23.8,15.8-33.5,6.1 C447.3,434.2,446.2,428.5,445.5,422.1z"></path> <path style="fill:#FFCE00;" d="M294.3,400.6c-1.7,8.8-2.9,17.2-5,25.3c-3,11.7-12.4,18.8-23.3,18.6c-6.5-0.2-11.8-2.7-15.1-8.2 c-4.5-7.7-8-15.8-3.8-25.1c3.5-7.8,5.7-16.3,9.9-23.6c7.7-13.5,27.5-13,34.3,0.6C293.2,391.9,293.4,396.6,294.3,400.6z"></path> </svg> 