<?xml version="1.0" encoding="UTF-8"?> <svg xmlns="http://www.w3.org/2000/svg" xmlns:xlink="http://www.w3.org/1999/xlink" version="1.1" id="Layer_1" x="0px" y="0px" viewBox="0 0 1000 1000" style="enable-background:new 0 0 1000 1000;" xml:space="preserve"> <path style="fill:#FFCE00;" d="M969.3,379.7c-0.6,2.3-1,4.5-1.6,6.8c-5.8,24.2-27.3,44.3-52.2,48.3c-5.1,0.9-10.5,1.1-15.7,1.1 c-262.8,0.1-525.6,0-788.4,0.1c-18.1,0-33.9-5-47.7-16.7c-11.8-10.1-18.8-22.7-20.9-38c-0.3-1.7-0.7-3.4-1-5c0-6.1,0-12.3,0-18.4 c0.2-2.6,0.5-5.2,0.5-7.8c0.1-8.6-0.3-17.2,0.1-25.8c1.3-28.2,15.2-48,41.1-59.1c6.2-2.7,13.1-3.6,19.7-5.3c268.3,0,536.5,0,804.7,0 c1.2,0.3,2.6,0.7,3.8,0.9c27.2,3.3,50.1,24,56,50.7c0.6,2.4,1.1,4.8,1.7,7.1C969.3,338.8,969.3,359.3,969.3,379.7z M482.8,288.3 c-42.3,0.1-73.4,35-68.4,77.1c2.2,19.1,11.9,33,30.4,39.8c47.1,17.4,95-16,94.8-66c-0.1-20-7.6-36.2-26.8-44.8 C503.3,290,493.2,288.3,482.8,288.3z M280.1,410.8c0.1-0.4,0.2-0.9,0.3-1.2c39.8,0.1,69.1-29.8,69.2-70.3 c0-25.6-12.6-42.6-37.4-48.6c-54.2-13.1-92.1,29.5-87.8,74.5c1.7,17.8,10.6,32.1,27.9,38.8C261.1,407.4,270.8,408.6,280.1,410.8z M554,363.8c6.1,0,11.5,0,16.8,0c13.3,0.1,26.6-0.2,39.9,0.5c3.1,0.2,6.1,3.3,9.2,5.1c-1.2,2.1-2.3,4.4-3.8,6.4 c-2.3,3-4.8,4.6-9.1,4.5c-18.1-0.5-36.3-0.2-54.3-0.2c-3.6,0-6.3,1.5-8.6,4.5c-5,6.7-10.3,13.1-15.3,19.7c-0.8,1-1.3,2-2.2,3.1 c1,0.3,1.3,0.6,1.7,0.6c28.9,0,57.9,0.2,86.8-0.3c14.4-0.2,25.9-7,31.9-20.3c10.3-22.7,4.8-31.4-10.8-40.2c-1.1-0.7-2.2-1.5-3.9-2.8 c1.6-1,2.6-1.6,3.5-2.2c7.6-4,13.5-9.5,16.8-17.6c6.1-14.9,0-29.4-14.8-34.4c-3.2-1.1-6.9-1.8-10.3-1.8c-28.2-0.2-56.4-0.2-84.6-0.3 c-0.8,0-1.6,0.4-2.6,0.7c4.2,7.6,8.4,14.9,12.1,22.5c2.2,4.4,5.2,6.6,10.3,6.5c16.4-0.2,32.7-0.1,49.1,0c2.3,0,4.8,0.3,6.9,1 c3.6,1.2,4.9,4.6,2.8,7.7c-3.2,4.8-7.4,8.1-13.7,8c-15.5-0.2-31-0.3-46.4-0.3c-1.1,0-3.2,1.3-3.4,2.3 C556.6,345.2,555.5,354.2,554,363.8z M769.6,288.2c-2.1-0.1-3.6-0.3-5.1-0.3c-25.7,0.1-51.5,0.3-77.2,0.5 c-9.4,0.1-11.5,1.9-12.9,11.4c-4.9,31.1-9.6,62.2-14.5,93.4c-0.9,5.2-1.5,10.6-2.3,16.1c1.3,0.2,2.2,0.4,3,0.4 c20.7,0,41.5,0,62.3-0.1c7,0,14.1,0,21-0.1c5.8-0.1,7.3-1.3,8.2-6.9c0.7-4.2,1.1-8.4,1.6-12.6c0.4-3.4,0.7-6.8,1-10.7 c-21.1,0-41.3,0-62.2,0c0.8-4.4,1.7-8.2,2-12c0.3-2.9,1.3-3.7,4.1-3.7c8.2,0.1,16.4,0,24.6,0.1c2.6,0,3.6-0.9,4-3.4 c0.8-6.4,1.8-12.7,2.8-19c0.4-2.4,0.7-4.8,1-7.7c-7.7,0-14.8,0.1-22,0c-9.5-0.2-8.4,2-8.3-8.7c0.1-5.1,2.1-7,7.1-7.4 c1.9-0.1,3.8-0.1,5.7-0.1c15.8,0,31.6,0.1,47.4-0.1c1.5,0,4.3-1,4.5-2C767,306.6,768.2,297.7,769.6,288.2z M813.5,318.2 c0.2,1,0.4,1.4,0.3,1.9c-4.3,28.3-8.5,56.5-12.8,84.7c-0.6,3.4,0.2,4.8,3.9,4.6c7.4-0.3,14.9-0.2,22.4,0c3,0.1,4.1-1,4.5-4 c3.3-25,6.8-50,10.1-74.9c1.2-9,4.5-12.2,13.6-12.7c4.9-0.3,9.6-0.1,14.5-0.1c4.4,0,6.7-2.3,7.3-6.6c0.6-3.4,1.6-6.9,2-10.3 c0.5-4.3,0.6-8.6,0.9-12.8c-23.4,0-46.1,0-68.7,0c-5.4,0-10.8,0-16.2,0.4c-3.3,0.2-7.3,1-8.2,4.7c-1.8,8-2.9,16.3-4.3,25.1 C793.6,318.2,803.6,318.2,813.5,318.2z M131.8,419.9c5.7,1.9,10.7,4.7,15.8,5.1c7.5,0.7,15.1,0.4,22.8-2c15.4-4.8,25.9-14,28.9-29.7 c4.5-23.6,8-47.4,11.8-71.1c1.4-8.8,2.6-17.5,3.9-27c-7.1,2.5-13.5,4.7-19.9,6.9c-11.4,4-11.2,4-13.2,16 c-3.8,23.4-7.6,46.8-11.5,70.2c-1.3,8.3-6.4,12.8-14.5,14.6c-4,0.9-7.9,3-11.2,5.5C140.3,411.5,136.5,415.5,131.8,419.9z M321,419.6 c6,2.1,11.1,4.9,16.5,5.4c8.2,0.9,16.4,0.3,24.5-2.5c14.8-5,24.4-14.5,27.2-29.7c3.8-19.6,6.8-39.3,9.9-59c2-12.6,3.7-25.2,5.5-38 c-0.7-0.2-1.1-0.4-1.5-0.3c-8.9,3.1-17.9,6.2-26.7,9.6c-1.3,0.6-2.7,2.6-3,4.1c-1.1,4.9-1.8,10-2.7,15c-3.5,21.2-6.9,42.5-10.5,63.9 c-1.4,8.7-5.8,12.7-14.3,14.3c-2.8,0.5-5.7,1.6-8,3.3C332.3,409.9,327.1,414.5,321,419.6z M187.1,286.5c13.8-0.1,27.2-5.2,29.8-14.4 c-8.9,0-17.5-0.1-26.2,0.1c-0.7,0-1.8,1.4-2,2.3C188,278.3,187.6,282.2,187.1,286.5z M407.5,272c-9.6,0-18.1,0-26.6,0.1 c-0.8,0-2,1-2.1,1.6c-0.8,4.1-1.1,8.2-1.8,12.7C389.2,285.7,400,283.7,407.5,272z"></path> <path style="fill:#FFCE00;" d="M453.3,359.3c1.9-8.7,3.6-17.3,5.8-25.9c0.7-2.7,2.5-5.3,4.3-7.5c5.5-6.6,12.7-10.1,21.3-8 c8.6,2.1,11.8,9,14.2,16.7c2.7,8.6-1.4,16-3.4,23.7c-1,3.8-2.5,7.5-4.3,10.9c-6.5,12.2-22.7,15-31.9,5.8 C455.1,370.8,454,365.4,453.3,359.3z"></path> <path style="fill:#FFCE00;" d="M309.4,338.8c-1.6,8.4-2.8,16.4-4.8,24.1c-2.9,11.1-11.8,17.9-22.2,17.7c-6.2-0.2-11.2-2.6-14.4-7.8 c-4.3-7.3-7.6-15-3.6-23.9c3.3-7.4,5.4-15.5,9.4-22.5c7.3-12.8,26.2-12.4,32.6,0.6C308.4,330.6,308.6,335,309.4,338.8z"></path> <g> <path style="fill:#FFCE00;" d="M273,570.3l17.4-50.5c3.8-11.5,15.2-21.1,30.2-21.1h58.7c13.8,0,22.9,8.5,18.7,21.1l-17.5,50.5 c-3.8,11.3-15,21.2-30.2,21.2h-58.6C278.1,591.5,268.4,583,273,570.3z M306.6,569.1h41.2c1.5,0,2.3-0.5,2.5-1.7l15.5-44.5 c0.4-1.2-0.1-1.7-1.5-1.7h-53.9c-1.5,0-2.1,1.7-1.1,2.6l8.2,7.4l-12.5,36.2C304.7,568.6,305.2,569.1,306.6,569.1z M313.6,492.1 l4-12.3c0.9-2.8,2.8-4.1,5.6-4.1H349l-4,12.3c-0.9,2.8-2.8,4.1-5.6,4.1H313.6z M357.7,479.8c0.9-2.8,2.8-4.1,5.6-4.1h25.8l-4,12.3 c-0.9,2.8-2.8,4.1-5.6,4.1h-25.8L357.7,479.8z"></path> <path style="fill:#FFCE00;" d="M390.3,591.5c1.7-5.2,6.4-18,8.2-22.8c0.4-1.5,1.3-2.1,2.4-3l70-44.5h-58.7c0.9-2.3,1.6-4.4,2.3-6.4 c1.1-3.6,2.3-7,2.7-8l-8.1-5.4c-1.2-0.9-0.7-2.7,0.8-2.7h110.5c-1.5,4.2-6.1,16.2-7.8,20.7c-0.7,1.2-1.5,2.1-2.4,2.8l-73.3,46.9 h65.6l-6.4,18.4c-0.9,2.5-3.2,4-5.7,4H390.3z"></path> <path style="fill:#FFCE00;" d="M515,574.7l23.2-67.8c-0.4-0.7-4.4-3.3-7.7-5.4c-1.2-0.9-0.7-2.7,0.8-2.7h105.2l-6.4,18.4 c-0.9,2.5-3,4-5.6,4h-69.3c-1.5,0-2,1.7-0.9,2.6l7.2,6.5l-2,5.4h45.3l-5.2,14.8c-0.9,2.5-3,4-5.6,4h-47.3c-1.5,0-2,1.6-1.1,2.5 l4.9,4.5l-2.6,7.6h64.3l-6.5,18.4c-0.9,2.7-2.8,4-5.6,4H527C518.3,591.5,512.1,582.9,515,574.7z"></path> <path style="fill:#FFCE00;" d="M658,506.8l-8.1-5.4c-1.2-0.9-0.5-2.7,0.9-2.7h41.1c-11.3,32.6-17.4,49.7-21.2,61.2l-1.2,1.1 c-0.9,0.9-2.8,2.4-6.1,5.4c-0.9,0.9-0.4,2.7,1.1,2.7h56.7c-1.5,4-4.8,13.1-6.5,18.4c-0.9,2.7-2.8,4-5.6,4h-80.6 C645.2,543.5,651.3,526.7,658,506.8z"></path> <path style="fill:#FFCE00;" d="M36.9,729.3l17.4-50.5c3.8-11.5,15.2-21.1,30.2-21.1h58.7c13.8,0,22.9,8.5,18.7,21.1l-17.5,50.5 c-3.8,11.3-15,21.2-30.2,21.2H55.6C41.9,750.5,32.3,742,36.9,729.3z M70.4,728.1h41.2c1.5,0,2.3-0.5,2.5-1.7l15.5-44.5 c0.4-1.2-0.1-1.7-1.5-1.7H74.3c-1.5,0-2.1,1.7-1.1,2.7l8.2,7.4L69,726.4C68.6,727.6,69.1,728.1,70.4,728.1z"></path> <path style="fill:#FFCE00;" d="M165.8,657.8H206c1.2,3.3,2.3,6.6,3.4,9.8c2,5.3,4.1,11.4,5.3,15c-1.2,5.7-1.9,10.2-2.8,13.9 c13.4-12.2,26.6-24.5,39.9-37.1c1.1-1.1,2.4-1.6,4-1.6h35.3c-4.6,4.1-12.5,11.1-21.5,19.6l-44.4,40.7l-9.8,28.5 c-0.9,2.5-3.2,4-5.7,4h-27c2.1-6,4.8-13.9,7.3-20.7c1.5-3.8,2.7-7.7,4.1-11.8c-0.7-1.7-1.3-3.7-2.3-5.7l-5.4-13.9 c-2.1-5.7-4.4-11.3-6.6-17.2c-2.4-5.8-4.4-10.9-6-15.1l-8.7-5.7C163.9,659.5,164.4,657.8,165.8,657.8z"></path> <path style="fill:#FFCE00;" d="M285.4,729.5c2.8-8.5,5.6-16.3,8.2-24.3c4.6-13.5,9.7-29.6,13.3-39.4l-8.2-5.4 c-1.5-0.9-0.7-2.6,0.8-2.6h41.7l-8,23.2c-4.6,12.7-9.7,28-12.9,37.1l-8.3,7.4c-1.1,0.9-0.5,2.7,0.9,2.7h47.6c1.5,0,2.3-0.5,2.7-1.7 l22.4-64.7c0.9-2.7,2.8-4,5.6-4h27c-1.1,3.6-7.4,21.9-13.4,38.7c-3.6,10.1-7.3,20.8-11.4,33c-4.4,12.2-14.3,21.1-28.6,21.1h-60.7 C290.3,750.5,280.9,742,285.4,729.5z"></path> <path style="fill:#FFCE00;" d="M411.5,750.5c4.1-12.5,22-62.9,29.4-84.7l-8.1-5.4c-1.5-0.9-0.7-2.6,0.8-2.6h41.2l29,60l2.5-19.5 l14-40.6h31.1l-30.7,88.8c-0.9,2.7-2.8,4-5.6,4H490c-2.8-6-9.8-19.5-16.2-31.9c-3.7-7.4-7.7-14.8-11.9-23.2 c-0.5,1.2-18.8,53.7-17.8,51.2c-0.9,2.7-2.8,4-5.6,4H411.5z"></path> <path style="fill:#FFCE00;" d="M574.4,665.8l-8.1-5.4c-1.2-0.9-0.5-2.6,0.9-2.6h41.1c-11.3,32.6-17.4,49.7-21.2,61.2l-1.2,1.1 c-0.9,0.9-2.8,2.4-6.1,5.4c-0.9,0.9-0.4,2.7,1.1,2.7h56.7c-1.5,4-4.8,13.1-6.5,18.4c-0.9,2.7-2.8,4-5.6,4H545 C561.5,702.6,567.6,685.7,574.4,665.8z"></path> <path style="fill:#FFCE00;" d="M674,666l-8.1-5.6c-1.2-0.9-0.7-2.6,0.8-2.6h116.5c-4.2,12.2-24.6,72.5-29.9,88.8 c-0.9,2.7-2.8,4-5.6,4h-27.4l8.2-22.4h-44.7l-6.4,18.4c-0.9,2.7-2.8,4-5.6,4h-27C650.2,734.2,668.2,684,674,666z M690.3,709.3H735 l8.9-26c0.8-2.1-0.1-3.2-2.8-3.2h-47.6c-1.5,0-2,1.7-0.9,2.7l5.3,4.8L690.3,709.3z"></path> <path style="fill:#FFCE00;" d="M776.6,750.5c6.4-19.1,23.2-66.1,29.6-84.7l-8-5.4c-1.2-0.9-0.7-2.6,0.9-2.6h89.5 c13.8,0,22.9,8.6,18.7,21.1c-7,20.8-7.8,26.9-18.3,35c-9.1,7-20.4,6-22.5,6.4l13.5,21.3c2.5,3.8-0.3,9-4.9,9h-25l-16.3-30.3h-15 l-9.1,26.4c-0.9,2.7-2.8,4-5.6,4H776.6z M821.7,682.8c1.6,1.5,3.6,2.9,5,4.4c0.9,0.9,1.7,1.5,2.6,2.4l-3.2,9.1h41.1 c1.5,0,2.3-0.5,2.6-1.7l0.4-1.2c0.4-0.7,0.5-1.7,0.9-2.9c0.9-2.3,1.6-4.9,2.5-7.2c0.4-1.5,0.9-2.7,1.3-3.8c0.5-1.2,0.1-1.7-1.3-1.7 h-51C821.3,680.2,820.7,681.9,821.7,682.8z"></path> <path style="fill:#FFCE00;" d="M932.9,665.8c-2.7-2-5.2-3.7-8.2-5.3c-1.5-0.9-0.8-2.8,0.7-2.8h41.3l-30.7,88.8 c-0.9,2.7-2.8,4-5.6,4h-26.9C908.7,734.8,926,686.9,932.9,665.8z"></path> </g> </svg> 