<?xml version="1.0" encoding="UTF-8"?> <svg xmlns="http://www.w3.org/2000/svg" xmlns:xlink="http://www.w3.org/1999/xlink" version="1.1" id="Layer_1" x="0px" y="0px" viewBox="0 0 1000 1000" style="enable-background:new 0 0 1000 1000;" xml:space="preserve"> <path style="fill:#FFCE00;" d="M372.8,322.9c4.3,3,8.7,6,13,9c2.7-3,6.2-21.1,4.2-24.1c-1.1-1.6-3.4-2.8-5.3-3.4 c-13.9-4.3-21.7-13.8-24.8-27.6c-4.2-18.5-8.1-37-12.9-55.4c-2-7.8-5.8-15.1-8.8-22.5c-1.4-3.4-3.3-6.7-4.3-10.2 c-1.6-5.9-0.5-12.2,4.9-15c4.3-2.3,10.2-3,15-2.2c4.2,0.7,8,4.6,11.8,7.2c10.8,7.3,17,6.8,25.9-2.4c10.2-10.5,12.7-10.7,25.1-2.5 c15.8,10.4,22.6,10.7,37-1.2c8.4-6.9,16.5-14.9,22.8-23.7c10.3-14.2,22.7-15.8,32.6-1.4c8.4,12.2,20,20.1,31.6,28.4 c9,6.4,17.8,6.2,26.6-0.3c1.2-0.9,2.4-1.7,3.7-2.5c11.5-7.2,14.2-6.9,23.4,2.7c10.2,10.7,17,11.1,28.4,1.7c2.8-2.3,5.6-4.9,8.6-7 c5-3.4,10.5-4.5,16-1.4c5.7,3.2,8.5,8.3,7.5,14.8c-0.6,4-2.4,7.9-3.8,11.8c-3.1,8.7-7.1,17.3-9.4,26.2c-4.8,19.3-8.7,38.9-13.1,58.3 c-1,4.5-2.8,8.9-4.4,13.3c-2.8,7.8-8.1,11.5-16.7,11.8c-7.7,0.3-15.4,2.2-23.2,3.4c0.1,0.7,0.3,1.4,0.4,2.1 c8.4,2.3,16.7,4.9,25.2,6.7c1.7,0.4,4.9-1.9,6-3.8c3.4-5.6,8-8.1,14.4-8.9c12.3-1.6,23.6-0.2,35.1,5.1c6.4,3,14.8,2.1,22.3,1.7 c2-0.1,5-4.2,5.7-6.9c4.3-17.5,16.5-27.5,31.3-36.2c17.4-10.2,31-24.7,42.7-41.3c3.4-4.9,9-8.3,13.6-12.4 c-5.2,14.6-14.8,26.4-25.2,37.2c-12.8,13.2-28,23.4-45,30.9c-2.2,1-5,2.9-5.6,4.9c-2.3,7.7-3.8,15.7-5.7,24.2c1.8,0.6,3.8,2,5.7,1.9 c9.4-0.7,18.8-1.7,28.1-3.1c1.7-0.3,3.4-2.8,4.4-4.6c2.7-5.2,4.4-10.9,7.7-15.7c5.7-8.2,13.1-15.4,18.1-24s8.3-18.4,11.9-27.8 c2.9-7.5,5.3-15.2,7.8-22.9c0,0-1.5-0.5-2.3-0.8c0.6-1.9,1.2-3.8,2-6.1c13.1,12.3,14.2,27.8,15.4,43.1c0.7,9.3,0.5,18.7,1.5,27.9 c0.4,3.7,2.6,9.8,4.9,10.2c3.3,0.6,8.2-1.9,11.1-4.6c10.9-9.9,20.7-21.1,32-30.5c16.1-13.4,26-9.9,31.6,10.4 c4.6,16.7,4.4,33.4,0.3,50.3c-1.6,6.6-3.1,13.5-3,20.3c0.3,14.7-4.4,27.3-12.3,39.4c-4.6,7.1-8.9,14.8-11.2,22.8 c-3.4,11.9,1.3,16.5,13.6,13.3c15.4-4,30.5-9.4,45.9-13.7c6-1.7,12.5-1.7,18.7-2.5c-6.5,2.8-12.8,6.3-19.6,8.4 c-28.9,9-57.9,17.7-87,26.5c1.9,0.9,3.8,1.7,5.7,2.6c-1.9,1.7-3.8,3.3-5.6,4.9c18.5-4.9,36.2-13.1,55.4-4.4 c-3.1,3.7-6.6,7.9-10,12.1c19.7-6.4,52-31.6,61.9-46.1c0.7-1,1.1-2.2,1.6-3.3c-0.9-0.2-1.8-0.4-2.7-0.5c1.2-0.9,2.5-1.9,3.7-2.9 c6.6,18.7,2.3,34.5-9,49.6c-6.5,8.6-10.7,18.7-16.9,27.5c-5.3,7.5-11.8,14.3-18.2,21.1c-6.4,6.8-12.8,13.6-19.8,19.7 c-8.3,7.3-17.3,13.6-25.7,20.8c-3.9,3.3-7.1,7.6-10.6,11.4c4.3,3.2,8.2,7.6,13.1,9.5c8.2,3.2,17.2,4.2,25.5,7.2 c4.7,1.7,11.3,4.8,12.4,8.6c1.9,6.6-2.6,13.1-9,16.1c-15.1,7.1-30.2,14.3-45.9,19.9c-21.5,7.6-43.6,13.8-65.4,20.5 c-5.4,1.7-11,2.9-16.4,4.5c-11.7,3.5-14,7.8-12,19.6c2.2,12.8,5.2,25.7,5.8,38.6c2.6,55-12.7,104.5-47.8,147.4 c-13.1,16-28.6,28.9-49.7,32.1c-21.3,3.2-42.3,2.7-60.2-12.4c-7.9-6.7-16.3-5.6-24.6-0.2c-13.9,9.2-29.1,13.9-45.9,13.9 c-15.7,0-29.7-4-41.9-13.7c-7.9-6.3-15.6-6.4-23.7-0.9c-27.1,18.2-55.4,19.8-84.7,5.9c-8.3-4-16.6-3.3-25.2-0.9 c-7.8,2.1-15.7,4.7-23.7,5.2c-23.4,1.5-41.1-13.6-41.1-37.1c0-19.8,2.6-39.7,5-59.4c1.7-14,0.8-26.8-8-38.5c-3.3-4.4-6-9.8-7.3-15.2 c-2.7-10.8-5.9-21.1-13.6-29.8c-5.8-6.5-1.3-12.5,3.4-17.3c7.7-7.9,11.9-17.4,13.8-28c1.6-9.1-0.9-13.3-10.1-14.2 c-7-0.6-14.2-0.1-21.3,0.5c-14.4,1.2-27-2.6-38.8-11.1c-6.3-4.5-13.8-7.3-21-10.5c-11.4-5.2-23.1-9.9-34.5-15.1 c-3.3-1.5-6.4-3.8-9-6.3c-9.1-8.7-7.9-16.2,3.7-20.6c7.8-3,16.1-4.6,23.9-7.5c3.1-1.2,7.8-4.3,7.7-6.5c-0.1-3.1-3.3-6.7-6.1-9 c-3.3-2.8-7.9-4.2-11.3-6.9c-9.5-7.6-18.9-15.4-28.1-23.4c-6.5-5.6-12.8-11.5-18.7-17.7c-6-6.4-11.7-13.1-16.7-20.3 c-6.1-8.8-10.6-18.8-17.2-27.3c-10.7-13.9-14-29-10.1-45.8c0.2-0.9,1.8-1.5,2.7-2.3c-0.1,1.1-0.8,2.6-0.3,3.3 c12.3,15.9,27.2,29.1,44.2,39.9c6,3.8,12.4,6.9,18.7,10.3c0.3-0.6,0.7-1.1,1-1.7c-4.8-5.6-9.7-11.2-14.5-16.8 c3.1-0.6,5.2,0.2,7.3,0.4c10.6,1.1,21.3,1.6,31.9,3.2c12.8,1.9,12.7,2.3,24.4-1.8c-3.2-0.9-5.4-1.5-7.6-2.1 c-24.4-6.8-48.9-13.2-73.1-20.6c-10.1-3.1-19.6-8.4-29.3-12.8c7,1.2,14.1,1.9,20.9,3.7c15.2,4.1,30.1,9.3,45.4,13.1 c10.2,2.5,14.3-1.4,12.1-11.8c-1.5-7-4.4-14.2-8.5-20.1c-9.7-14-15.5-28.4-15.3-45.9c0.1-11.6-5.3-23.2-5.6-34.8 c-0.3-12.6,0.3-26,4.4-37.7c5.8-16.9,12.6-18.5,27-8.8c9.3,6.2,16.8,15,25,22.8c4.1,3.9,7.5,8.5,11.9,12.1c2.4,1.9,6.7,3.7,9,2.8 c2.4-0.9,4.4-5,5.1-8.1c1-4,0.4-8.3,0.7-12.5c0.7-10.8,1.3-21.6,2.4-32.4c1.1-10.7,4.6-20.5,13.7-28.6c6.2,7.5,12.9,14.8,18.8,22.9 c12.1,16.5,27,29.9,44.7,40.1c9.9,5.6,17.5,13.2,23,23.3c7,13,17.1,19.5,33.1,18c10.2-0.9,20.8,2.1,31.1,4.1c3.3,0.6,6,3.7,9,5.7 c-11.4-3.2-22.9-8.8-34.3-8.8c-12.2,0-25.4,2.3-35.7,11.1c-4,3.4-8.2,6.6-13.3,10.9c0.8-7.9,1-14.7,2.3-21.3 c1.3-6.9-1.5-11.2-8.6-11.3c-7.9-0.1-15.8,0.1-23.6-0.1c-5.4-0.1-8.9,1.8-9.6,7.5c-0.9,6.7-1.7,13.3-2.7,20 c-1.4,8.8-3.1,17.6-4.5,26.4c-2.3,14.5-4.4,29-6.3,41.7c-5.1,2.2-9.2,3.4-12.8,5.6c-4.7,2.8-8.9,6.6-13.6,9.6 c-7.5,4.8-8,13.5-0.2,18c5.3,3,11.3,5.6,17.2,6.5c21.4,3.2,47.5-6.3,51.2-34c0.2-1.2,1.2-2.3,2-3.8c2.6,3.7,4.5,7.1,7.1,9.8 c14.5,15.1,32.3,19.2,52.5,15.6c2.7-0.5,6.1,0.4,8.6,1.7c3.2,1.7,5.5,5.2,8.8,6.9c11.6,5.9,23.9,5.8,36,2.1 c13.7-4.2,23.8-12.5,26.8-27.5c0.6-2.8,1.8-5.4,3-8.9c15.2,24.4,36.7,30.1,62.3,25.3c7.6-1.4,15.1-6.7,22.3,1.1 c0.9,0.9,3.3,0.4,5,0.4c19,0,38,0.7,56.9-0.3c11.2-0.6,22.3-3.9,33.5-6c3,1.7,7.2,5.8,11.4,5.9c22.4,0.7,44.8,0.3,67.2,0.3 c6.9,0,11.5-3.2,12.8-10.2c1.2-6.6,2.6-13.3,2.9-20c0.2-5.1-1-10.4-7.7-11.3c-4.7-0.7-9.4-1.4-14-2.1c0.5-3.8,0.8-7.4,1.4-11 c0.9-5.2,0.2-12.4,3.3-14.9c3.3-2.7,10.3-1.3,15.6-1.3c7.9,0,15.8,0.4,24.1,0.7c-0.9,5.1-1.4,8.2-1.9,11.3 c-2.2,15.1-4.1,30.2-6.5,45.2c-1.2,7.7,2.6,13.3,10.5,13.6c6.6,0.2,13.3,0.4,19.9-0.1c5.8-0.4,10.7-2.4,11.7-9.4 c2.2-15.5,5.3-30.9,7-46.4c1.6-14.6,1.1-14.8,15.7-14.9c0.7,0,1.6,0.2,2.2,0c2.7-1.3,7.2-2.4,7.7-4.3c2.4-9.5,4.8-19.2,4.9-28.9 c0.1-7.3-4.7-9.7-15.1-9.5c-15.9,0.2-31.8,1.1-47.7,1.4c-13,0.2-25.9-0.2-38.9-1.3c-17.6-1.4-35.4-0.2-53.1-0.2 c-9.1,0-17.6,0.9-20.5,12.3c-9.1-11-21.5-11.7-33.4-12.2c-17.7-0.8-35.5-0.5-53.2,0.2c-6.2,0.3-12.2,3.2-19.8,5.3 c-7.9-1.6-18.1-5.7-28-5c-11.7,0.8-23,5.8-34.5,9c5-3.2,10-6.5,16.5-10.7c-6.3-0.7-11.3-1.8-16.2-1.7c-3,0.1-7.6,1.1-8.7,3.2 c-2,3.7-1.8,8.6-2.8,14.4c5.4-2.5,8.4-3.9,11.4-5.3c-4.5,4.1-8.9,8.2-13.4,12.2c-0.7-7.3-0.6-13.9,0.9-20.2c1.4-5.7,0-10.1-5.2-11.1 c-8.2-1.5-16.9-2.6-25.2-1.6c-10.4,1.2-12.1,4.9-12.9,16.1c-0.5,7.3-2.1,14.4-3.3,22.5C382.8,334.4,377.8,328.7,372.8,322.9z M482,200.3c-1.6,2.8-3.2,5.6-4.8,8.3c9.2,0.7,17.7-8.9,15.7-17.9c-2.6,2.1-5.1,4.3-7.7,6.4c3-4,5.9-7.9,8.9-11.9 c3.2,2.9,5.6,5.1,8,7.3c0.3-0.3,0.6-0.6,0.9-0.9c-2.5-3-4.9-6-7.6-9.3c-2.4,2-4.5,3.8-6.7,5.7c-0.6-0.3-1.1-0.7-1.7-1 c10.2-6.6,11.8-15.8,8.9-27.1c-2.9,0.7-6.4,0.7-8.7,2.3c-16.5,12.2-32.5,25.1-49.3,36.8c-7.1,4.9-12.4,17.1-24.2,8.3 c-0.5,1.2-0.9,1.6-0.8,2c2.4,14.7,4.9,29.4,6.9,44.2c0.2,1.7-1.9,4.9-3.7,5.6c-3.6,1.3-7.7,1.4-11.9,2.1c1.3,2.7,2.3,4.8,3.4,6.9 c15.2-1,29.9-2.7,44.7-2.7c33.6,0,67.2,0.7,100.8,1.4c9.4,0.2,18.8,2,28.2,2.7c3.9,0.3,9.2,2,10-5.3c-2-0.6-4.4-0.9-5.9-2.1 c-1.7-1.3-3.8-3.7-3.6-5.4c2.5-16.7,5.4-33.4,8.2-50.1c-1-0.4-1.9-0.7-2.9-1.1c-2,4-4.9,7.8-5.9,12.1c-3.2,13.7-5.7,27.6-8.5,41.6 c-3.8,0-6.2,0.1-8.6,0c-16.3-0.9-32.6-2.6-48.9-2.7c-8.1,0-13.5-1.7-15.8-9.8c-0.1-0.3-0.8-0.5-1.2-0.7c-3,0.7-7.1,1.6-8.5,0.1 c-8.7-9.8-16.8-20.2-25.1-30.3c0.3-0.3,0.6-0.6,0.8-0.9c1.9,1.3,3.8,2.6,4.2,2.9c1.1-3.2,1.4-6.6,3.2-9 C475.5,205.6,479,203.1,482,200.3z M713,491.1c-11.4-13-26.1-15-41.3-14.6c-15.7,0.4-28.8,6.5-38.4,19.9 c-9.6-13.8-23.3-18.7-37.9-19.6c-14.8-0.9-28,4.8-38.2,16.2c-10.8-15.1-26.3-16.1-41.6-14.8c-15.6,1.3-28.7,8.9-37.9,22.6 c-8.9-18.2-23.6-25.8-41.9-20.9c-7,1.9-12.7,2.8-19.1-0.4c-0.8-0.4-2-0.3-2.9-0.1c-7.2,1.8-14.3,3.7-20.5,5.3 c8-20.6,7.8-27.7-3.4-36.1c-9.7-7.2-17.2-8.1-29.1-0.7c-9.3,5.8-11.8,16.5-7.6,31c-0.7,0.2-1.5,0.6-2.1,0.4 c-9.2-2.3-18.2-2.4-26.9,2.1c-1,0.5-2.6-0.1-3.9-0.4c-5.7-1.1-11.3-2.3-16.9-3.5c-1.7-0.4-2.9-2.5-4-4.6 c-9-18.5-24.7-26.4-44.3-27.4c-12-0.6-24.1,0-36.2-0.2c-10.4-0.2-22.3,9-22,22c0.7,33,0.3,65.9,0.2,98.9c0,8.7,2.7,16.1,10.5,19.8 c8.3,4,17.7,4.7,25.6-0.7c3.7-2.5,7.1-7.3,8.1-11.7c1.8-8.4,1.7-17.2,2.5-26.4c15.5,1,29.9-2.8,43.5-11.4c0,11.1-0.2,21.2,0.1,31.3 c0.2,8.7,3.8,16.1,12,19.8c7.1,3.2,23.3,3.3,26.9-4.3c3-6.3,6-13.2,6.6-20c1-12.9,0.3-25.9,0.3-38.7c6.9-0.4,12.7-0.7,19.2-1.1 c0,13.3-0.3,27,0.1,40.7c0.5,17.1,8.1,27,26.1,24.8c5.6-0.7,11-3.8,16.5-5.8c6.2,7,15.2,7.2,23.6,5.6c9.4-1.8,14.7-9,15.9-20.5 c6.4,19.7,14.3,21.1,26.9,20.8c9.4-0.2,15.9-5.7,19.4-16.6c10.7,10.1,22.6,17.5,37.7,18.1c15.3,0.6,28.6-3.8,39.2-15 c20,20.7,56.7,19.6,75.3,1.6c25.2,16.3,50.7,20.3,76.6,0.6c1.1,0.7,2.6,1.5,4,2.4c17.1,11,35.4,13.6,54.8,7.3 c18-5.9,27-22.1,24.5-40.6c-1.5-11-8.1-17.5-16.5-23.7c10.5-4.2,14.8-12.7,14.5-22.5c-0.4-10.4-7.5-17.6-17.3-19.9 c-10.3-2.4-21.1-4.2-31.5-3.6C730.8,477.5,720.1,481.2,713,491.1z M571,787c1.2,2.8,2,4.7,2.8,6.6c5.8,14.7,13.6,28.3,29.3,34 c20.1,7.3,39,3.4,56.2-9.1c19.3-14.1,32-33.6,42.9-54.2c11.6-21.9,17.8-45.5,21.1-70.2c3.3-24.6-0.1-47.7-11.2-69.7 c-7.5-15-29-27.3-43.5-25.3c-23.1,3.2-41.9,13.6-55.9,32.6c-2.8,3.8-6.2,7-9.6,10.9c-1.7-4.9-2.7-8.9-4.3-12.6 c-10-22.5-26.3-32.9-48.5-32.1c-17,0.6-32.1,8.3-44.1,20.9c-7,7.3-13.5,15.1-20.4,22.8c-11.3-39.8-44.8-55.2-79.8-35 c-11.1,6.4-20.3,16.1-30.1,24c0-0.4,0-1.6,0-2.8c-0.1-13.1-6.6-19.2-19.7-16.9c-23.5,4.1-46.8,8.9-70.1,13.7 c-7.4,1.5-11.4,6.9-12.2,14.3c-1.8,15.7-3.4,31.4-4.9,47.2c-0.7,7.4,5,15.4,11.6,16.1c4.5,0.5,9,0.1,14,0.1c0,1.7,0.3,3.9,0,6 c-2.4,16.4-5.1,32.9-7.3,49.3c-2.3,16.7-3.9,33.5-6.3,50.2c-1.5,10.4,6.2,20.7,16.2,18.2c17.5-4.4,35.9-7.1,51.5-18.9 c1.1,1.5,2.4,3.1,3.7,4.8c5.8,7.4,12.9,12.8,21.9,16.1c25.1,9.4,53-6,68.1-23.9c4.6-5.4,8.9-11,13.5-16.8c1.7,3.9,2.9,6.7,4.2,9.6 c15,34.4,45.8,41.4,76.4,24.7C550.9,813.7,561.6,801.7,571,787z M294.4,304.1c-0.5-1.8-1.8-5-2-8.2c-0.5-8.3-5.7-12-12.6-15.5 c-23-11.7-42.3-27.8-56.2-49.8c-3.2-5-6.3-10-9.9-15.7c0.4,6,0.5,11,1.2,16c0.7,4.7,2,9.3,3.4,15.6c0.7-2.9,1-4,1.5-5.6 c0.6,0.8,0.9,1.2,1.2,1.7c0.4,0.8,0.9,1.7,1.1,2.6c4.3,17.7,12,33.5,26.3,45.6c3.1,2.6,5.6,7.2,9.1,8.1c6.7,1.7,14,1.1,21,1.9 C283.8,301.4,288.9,302.9,294.4,304.1z M520.5,277.3c-0.3-0.8-0.5-1.5-0.8-2.3c-7.5-2.3-14.8-5.6-22.4-6.6 c-8.4-1.2-17.1-0.3-25.7-0.3c-8.8,0-17.7,0-26.5,0c-8.1,0-16,0.7-23.2,4.6c9.2,1.3,18.2,1.2,27.2,1.3c7,0,14.5-1.7,20,5.1 c0.6,0.7,2.2,0.8,3.4,0.8c14.2,0.1,28.5,0.1,42.7-0.1C516.9,279.8,518.7,278.2,520.5,277.3z M619.5,280.7 c7.1-32,13.8-61.7,19.5-91.6c-0.8-0.2-1.6-0.3-2.5-0.5c-6.7,26.6-13.4,53.2-20,79.6c-6.8-1.2-12-2.2-18.4-3.3 C601.4,277.2,613.2,272.8,619.5,280.7z M902.4,462c-13.2,8.8-27.1,15.8-42.5,20c-12.5,3.4-12.4,3.9-13,17.4 C868.6,491.1,888.9,481.9,902.4,462z M94.7,464.5c13.4,16.5,32.3,27.5,54.2,34.4c1.6-11.8,1.2-11.9-9.7-16.1 C123.9,476.8,108.8,470.4,94.7,464.5z M387.6,270.2c0.1-6.4-5-5.9-7.8-4.8c-8.6,3.7-8.6-2.5-9.9-7.6c-0.4-1.6-0.6-3.3-1.1-4.9 c-4.3-16-8.5-32-12.9-48c-1.3-4.6-2.8-9.1-4.2-13.7c-0.7,0.2-1.4,0.4-2.1,0.6c6.4,28.3,12.8,56.7,19.2,85.1 C375.5,274.6,381.5,272.4,387.6,270.2z M861.4,505.8c-0.3-0.6-0.5-1.2-0.8-1.8c-7.2,3.1-14.3,6.4-21.6,9.2 c-9.2,3.5-18.6,6.3-27.7,10c-6.4,2.6-8.1,5.9-8.7,12C823.9,528.6,843.8,519.4,861.4,505.8z M133.1,503c15,14.5,42.5,26.7,60.6,32 c1.8-6.4-3.8-8.2-7.2-9.7C168.8,517.5,150.9,510.4,133.1,503z M414.9,203.9c4.1,2.6,7.3,5,12.6,0.6c12.7-10.6,26.5-20,39.7-30 c6.7-5.1,13-10.5,19.5-15.8c-2.1-0.8-3.5-0.6-4.5,0.2c-16.9,12.6-33.7,25.4-50.6,38C426.7,200.4,423.1,207.5,414.9,203.9z M729.5,456.1c0.7,4.1,1.1,7,1.9,11.8c7.1-6,12.9-11,18.8-16c-0.4-0.7-0.9-1.5-1.3-2.2C742.4,451.9,735.9,454,729.5,456.1z M294.7,328.2c3.8-2.6,5.5-3.8,7.9-5.4c-1.8-3.7-3.6-7.3-6.1-12.3C295.8,316.8,295.3,321.5,294.7,328.2z M580.4,274.7 c0.1-0.9,0.1-1.8,0.2-2.6c-5.1-0.3-10.2-0.7-15.2-1c-0.1,0.8-0.1,1.6-0.2,2.5C570,277.2,575.2,275.4,580.4,274.7z M578.1,203.9 c0.4,0.8,0.7,1.6,1.1,2.4c6.1-2.3,12.2-4.7,18.3-7c-0.3-0.9-0.7-1.7-1-2.6C590.3,199.1,584.2,201.5,578.1,203.9z"></path> <path style="fill:#FFCE00;" d="M232.5,536.9c0,10.5,0,20.1,0,29.6c0,8.1-4.6,12.9-12.3,13.1c-8.1,0.3-12.8-4.4-12.8-13.2 c0-32.5,0.1-65-0.1-97.4c0-7.2,3-12.7,9.9-12.8c17.5-0.3,35.6-3.9,52.3,2.8c23.9,9.7,33.4,38.6,17.4,61.2c-8.5,12-20.7,16.6-35,16.7 C245.8,537,239.7,536.9,232.5,536.9z M232.9,510.3c8.1,0,15.9,0.3,23.7-0.1c5.7-0.3,11.1-6.6,11.4-12.3c0.4-7.2-4.3-14.8-10.5-15.3 c-8.2-0.7-16.4-0.2-24.6-0.2C232.9,492.2,232.9,500.9,232.9,510.3z"></path> <path style="fill:#FFCE00;" d="M578.6,540.3c2.1,15.3,17.3,21.9,30.7,13.7c3.4-2.1,7.2-4.6,11-4.9c3.2-0.3,8.6,1.4,9.6,3.7 c1.4,3.4,1.3,9.6-0.9,11.9c-5.7,5.6-12.3,11.7-19.7,14c-19.8,6.2-37.8,1-48.8-17.9c-15.1-25.9-6.9-63.8,22.1-71.2 c31.2-8,51.7,11.7,48.7,42.1c-0.6,5.8-6.1,8.3-12.1,8.3c-11.8,0-23.6,0-35.5,0C581.9,539.9,580.3,540.1,578.6,540.3z M579.9,523.4 c8.9,0,17.4,0,26,0c-1-9.2-5.6-14.5-12.2-14.4C586.1,509,580.4,514.6,579.9,523.4z"></path> <path style="fill:#FFCE00;" d="M423,496.1c7.8-2.2,15.3-5.3,23.1-6.2c13.8-1.6,23.9,11.6,24.2,23.5c0.5,18.2,0.2,36.4,0.1,54.6 c-0.1,7-3.7,11.1-11.3,11.4c-5.4,0.3-10.6-1.9-12.2-8.1c-0.7-2.8-1.4-5.6-1.4-8.5c-0.1-13.3,0-26.6-0.1-39.9 c0-6.8-4.5-12.6-9.6-12.6c-6.4-0.1-11,5.1-11,12.7c-0.1,13.8,0.1,27.6-0.1,41.3c-0.1,11.7-8.6,18-18.4,13.2c-3-1.5-6.3-6-6.3-9.2 c-0.5-22.4-0.3-44.8-0.3-67.2c0-6.3,3.5-10.3,9.3-11.4C415.5,488.6,421.5,490.2,423,496.1z"></path> <path style="fill:#FFCE00;" d="M746.1,581.4c-7.9-2.7-17.2-5.5-26.2-9.2c-5.2-2.2-8.1-10.5-5.4-15.1c3-5,7.4-8.3,13.9-5.5 c5.5,2.3,10.9,4.9,16.5,6.5c3.3,0.9,8.1,1.5,10.3-0.2c3.1-2.5,3.1-6.8-1.8-9.3c-8.8-4.5-17.5-9.1-26.1-13.8 c-10.3-5.7-13.5-15-11.7-25.9c1.5-9.4,8.3-15.1,16.7-18.7c13.6-5.8,27-3.6,40.1,1.5c5.5,2.1,9.1,9.6,7.6,14c-2.3,6.4-9.3,9.2-17,7.1 c-5.3-1.4-10.6-2.9-16-3.7c-1.9-0.3-4.1,1.6-6.1,2.5c1.2,2.5,1.7,5.9,3.7,7.2c4.2,2.7,9.2,4.2,13.7,6.5c9.4,4.7,19.8,8.6,23.8,19.7 c4.4,12.2-2.8,27.4-15.4,31.7C760.8,578.7,754.5,579.5,746.1,581.4z"></path> <path style="fill:#FFCE00;" d="M670.5,581.4c-7.4-2.6-16.3-5.2-24.8-8.7c-6-2.5-8.7-9.6-6.7-15.2c1.6-4.7,8.3-7.7,14.4-5.7 c5.9,1.9,11.3,5.3,17.2,6.8c3.6,0.9,9.4,3.4,10.8-3.2c0.4-2-1.6-5.6-3.5-6.7c-8.7-5.2-17.8-9.5-26.5-14.5 c-17.2-9.9-13.4-34.3,2.2-42.2c14.8-7.5,29.4-5.8,44-0.1c5.6,2.2,8.8,9.7,7.1,14.2c-2.4,6.2-9,8.9-16.5,7c-5.6-1.4-11.1-3-16.8-3.8 c-1.8-0.3-5.5,1.9-5.5,2.8c0.1,2.3,1.2,5.5,3,6.6c4.2,2.7,9.1,4.4,13.6,6.6c9.7,4.8,20.3,8.5,24.3,20.1c4.2,12.4-3,27.1-15.8,31.5 C685.1,578.7,678.9,579.5,670.5,581.4z"></path> <path style="fill:#FFCE00;" d="M521.5,581.2c-21.4,1-41.2-20.3-42.5-41.7c-0.8-12.7,1.3-23.9,8.8-34.5 c12.5-17.5,38.8-22.4,56.8-10.4c2.7,1.8,3.8,7.7,3.8,11.8c0.1,5.2-3.8,8.4-9.1,8.3c-4.8-0.1-9.7-0.7-14.4-1.5 c-8.9-1.6-16,2.8-19.5,11.3c-2.8,7-2.5,13.5,0.4,20c4.4,9.8,13.2,15.6,25.6,9.2c8.7-4.5,16.9-1.3,18.5,6.9 c1.3,7.1-3.2,11.9-8.8,14.5C535.1,578,528.1,579.3,521.5,581.2z"></path> <path style="fill:#FFCE00;" d="M319.7,497.1c8.4-5.7,15.7-12,26.4-7.6c6.9,2.8,10.6,7.7,8.9,14.4c-1.6,6.1-5.2,10.4-12.5,9.5 c-2.7-0.3-5.4-0.1-8.1,0c-7.4,0.1-11.7,4.3-11.7,11.6c-0.1,13.3,0.1,26.5-0.1,39.8c-0.2,11.7-8.8,17.9-18.6,12.9 c-3-1.5-6.1-6-6.2-9.3c-0.5-22.3-0.6-44.7,0.1-67c0.1-3.9,3.9-9.7,7.4-11.1C310.6,488.1,317,489.3,319.7,497.1z"></path> <path style="fill:#FFCE00;" d="M387.6,535c0,10.6,0,21.2,0,31.7c0,7.8-5,12.9-12.5,13c-6,0-12.4-5.3-12.5-11.7 c-0.3-22.1-0.3-44.3,0-66.4c0.1-6.7,6.9-12.3,13-11.8c7.7,0.6,11.9,5,11.9,12.8C387.7,513.4,387.6,524.2,387.6,535z"></path> <path style="fill:#FFCE00;" d="M361.1,468.2c0-8.3,6-14.1,14.3-14c7.6,0.1,13.6,5.8,13.7,13.1c0.1,7.8-7.1,15.3-14.4,15 C366.9,482,361,475.9,361.1,468.2z"></path> <path style="fill:#FFCE00;" d="M543,525.1c0,5.5,0,10.3,0,14.6c-5.5,1.4-10.5,2.2-15.1,4.1c-7,2.9-12.5,1.5-13.9-5.7 c-0.8-3.9,1-8.8,2.9-12.7c2-4.1,6.1-4,10.2-2.3c2.4,1,5.1,1.6,7.7,1.9C537.5,525.3,540.2,525.1,543,525.1z"></path> <path style="fill:#FFCE00;" d="M285.5,381.3c0.7-22.6,8-40,27.1-50.5c19.5-10.8,53.1-8.9,65,12.3c7.4,13.2,6.4,27.2,1.5,40.4 c-9.3,24.9-27.4,35.7-52.8,35c-19-0.5-33.2-7.7-39.4-28.8C285.9,386.4,285.8,383,285.5,381.3z M349.2,367.4c0-1.2-0.1-2.5,0-3.7 c0.4-7.3-2-12.7-9.7-14.8c-7.3-2-11.7,2-15.4,7.2c-6.1,8.3-7.2,18.1-5.4,27.7c2,11,12,13.6,19,9.2 C347.3,386.8,349.2,377.7,349.2,367.4z M362,361.7c-2.9,3.5-6.9,6.4-7.9,10.1c-1.1,4.1,2.7,7.1,7.1,7c4.3-0.1,9-0.1,12.8-1.6 c4.4-1.7,5.9-6.1,1.5-9.4C372.2,365.3,367.7,364.2,362,361.7z M316.8,371.9c-1.7-3.3-2.2-5.3-3.4-6.3c-6.7-5-17.2-1.1-20.9,4.4 c-2.3,3.4,0,8.2,4.3,8.7c3.6,0.4,7.6,0.9,10.9-0.2C311,377.5,313.6,374.3,316.8,371.9z"></path> <path style="fill:#FFCE00;" d="M525.2,364.1c-0.4,22.7-9.3,40.6-30.7,49.9c-21.6,9.3-47.9,5.9-60.6-14.5 c-8.1-13.1-5.7-37.7,3.4-51.7c15.4-23.7,48-29.2,70-17.6C520.9,337.4,525.4,349.5,525.2,364.1z M492.6,367.4 c-0.1-12.9-2.2-16.7-10.5-18.9c-5.1-1.3-12.6,2.8-16.3,9.2c-4.9,8.6-5.3,18.2-3.9,27.5c1.2,7.8,10.6,11.7,17.6,8.3 C490.6,388.2,492.5,378.3,492.6,367.4z M508.8,378.9c5.1-0.4,11.5,1.2,11.7-7c0.1-4.9-6.2-9.4-12.7-9.2c-5.3,0.1-11.4,5.3-10.8,9.8 C498.2,379.2,503.6,379.1,508.8,378.9z M445.6,378.9L445.6,378.9c2,0,4.5,0.8,5.8-0.1c2.7-2,5.5-4.5,6.8-7.4 c0.7-1.5-1.3-5.3-3.1-6.5c-6.3-3.9-16.6,0.2-19.5,5.6c-2.1,3.9,0.1,7.1,4.2,8.3C441.6,379.3,443.7,378.9,445.6,378.9z"></path> <path style="fill:#FFCE00;" d="M535.4,383.3c0.8-8.1,1.4-15.3,2.1-22.2c14.1,0,27.8-0.2,41.4,0.1c5.4,0.1,7.6-3.2,8-7.2 c0.5-5.1-3.5-6.2-7.9-6.2c-12.8,0.1-25.6,0.2-38.4-0.1c-2.2-0.1-5.2-2-6.4-4c-3.8-6.1-6.8-12.5-10.5-19.5c2,0,4.7,0,7.5,0 c19.2,0,38.4-0.3,57.6,0.2c7.8,0.2,15.6,1.5,20.7,9.3c4.7,7.1,3.9,14.1,0.7,20.9c-3.5,7.5-9.7,12.7-18.3,13.4 c-13.5,1-27.1,1.2-40.6,2.2c-2.5,0.2-4.7,2.8-7.1,4.2c2.4,1.5,4.7,4.1,7.1,4.2c11.3,0.5,22.7,0.6,33.9-0.1c3.2-0.2,6.3-3.6,10.7-6.2 c11.6,3.6,15.1,6.8,14.7,15.5c-0.6,11.9-8.5,23.2-19.3,26.4c-7.1,2.1-14.5,4-21.8,4.2c-19.6,0.6-39.2,0.2-58.9,0.2 c6.2-7.6,11.9-14.9,18-21.8c1.3-1.4,4.4-1.7,6.7-1.8c13.3-0.2,26.6,0,39.9-0.1c2.3,0,5.3-0.1,6.8-1.5c1.8-1.7,3-4.7,3.2-7.2 c0.1-0.8-3.5-2.9-5.5-2.9C565.2,383.2,550.7,383.3,535.4,383.3z"></path> <path style="fill:#FFCE00;" d="M612.5,417.2c2.8-15.6,5.9-31.3,8.4-47.1c2-12.7,3.4-25.4,4.5-38.2c0.5-5.3,1.7-7.8,7.7-7.7 c21.8,0.3,43.7,0.1,66.4,0.1c-1.2,8.2-2.4,15.6-3.6,23.6c-16,0-31.7,0-47.4,0c-1.1,4.6-2,8.8-2.9,12.8c7.7,0,15.4,0,24.3,0 c-1.1,7.2-2.2,14.8-3.3,22.8c-5.5,0-10.4,0-15.3,0c-10.1,0-10.3,0.3-8.8,11.8c15.3,0,30.7,0,46.2,0c-0.9,6.6-1.5,12.6-2.8,18.5 c-0.4,2-2.9,5-4.4,5c-22.1,0.3-44.3,0.1-66.4,0C614.4,418.6,613.8,417.9,612.5,417.2z M662.6,375.2c-0.4-0.8-0.7-1.6-1.1-2.3 c-8.9-2.9-17.7-6.5-26.9-8.5c-5.7-1.3-8.6,3.6-9,8.6c-0.4,5.1,3.7,6,8.1,6c6.6-0.1,13.3,0.3,19.9-0.2 C656.7,378.5,659.6,376.5,662.6,375.2z"></path> <path style="fill:#FFCE00;" d="M745.3,418.1c-8.9,0-16.6,0-24.9,0c1.9-12.1,3.8-23.4,5.5-34.8s3.4-22.9,5.2-35.2 c-8.5,0-16.1,0-23.9,0c0.9-6.6,1.4-12.5,2.7-18.3c0.5-2.2,3.2-5.4,5-5.4c21.9-0.3,43.8-0.2,65.7-0.1c0.6,0,1.2,0.6,2.3,1.2 c-0.8,4.8-2.4,9.7-2.1,14.6c0.4,7.2-3.2,8.1-9,7.8c-5.1-0.3-10.3-0.1-16-0.1C752.3,371.5,748.8,394.9,745.3,418.1z M748.2,371.3 c0-4.7-2.2-7.4-7.1-7.2c-5.7,0.3-7.5,4.8-7.3,9c0.1,2,4.2,5.2,6.7,5.4C744.5,378.9,748.2,376.6,748.2,371.3z"></path> <path style="fill:#FFCE00;" d="M213.8,424.7c4.8-3.7,9.3-7.3,14-10.7c1.7-1.2,4-2.7,5.6-2.4c8.5,1.7,11-4,12-10.1 c2.9-17.4,5.2-34.8,7.7-52.3c0.5-3.3,0.8-6.8,1.7-10c0.4-1.3,2.1-2.5,3.5-3c7.5-2.7,15-5.1,22.8-7.7c-0.8,6.5-1.7,14.7-3,22.9 c-2.3,15.5-4.8,31-7.4,46.4c-2.2,13.2-6.9,24.8-20.8,29.8C237.5,432.2,225.2,431.9,213.8,424.7z M254.7,375.2 c4.1,3.3,8.4,6.1,12.8,1.7c2-1.9,3.4-5.7,3-8.2c-0.3-1.8-4.1-4.2-6.3-4.3C257.3,364.3,256.5,370.2,254.7,375.2z"></path> <path style="fill:#FFCE00;" d="M357.5,424.5c4.6-3.5,8.9-7,13.4-10.2c1.9-1.3,4.3-2.9,6.3-2.7c7.7,0.8,10.7-4,11.6-10 c3.5-21.4,6.5-42.9,9.5-63.2c9-3.5,17.5-6.8,26.2-10.1c-0.8,6.6-1.7,14.8-2.9,22.9c-2.3,15.5-5.5,30.9-7.1,46.4 C410.9,431.5,375.9,437.2,357.5,424.5z M414.3,372.1c-0.1-5.6-2.7-9.2-7-7.6c-3.6,1.4-6.1,5.7-9.1,8.8c2.4,1.9,4.5,5,7.1,5.4 C410.2,379.4,414.1,377.2,414.3,372.1z"></path> <path style="fill:#FFCE00;" d="M401.4,323.9c-1-11.2-0.8-11.4,9.6-11.4c4.4,0,8.9,0,13.3,0.1c0.4,0,0.8,0.4,1.2,0.5 C422,320.8,413.5,324.7,401.4,323.9z"></path> <path style="fill:#FFCE00;" d="M258.2,324c-1.2-11.2-0.9-11.5,9.4-11.5c4.9,0,9.7,0,14.8,0C279,320.7,270.5,324.7,258.2,324z"></path> <path style="fill:#FFCE00;" d="M597.6,677c10.6-20.2,23-41.1,43.5-55.9c11.7-8.4,25-11.4,38.7-8.1c16.4,3.9,23.9,17.3,28.2,32.2 c9.8,33.4,3.2,65.7-8.3,97.2c-9,24.7-22,47.4-41.8,65.4c-12,10.9-25.7,18.2-42.8,15c-18.9-3.6-26.5-18.1-30.9-34.4 c-3.1-11.6-4.1-23.6-5.6-32.5c-8.6,12.9-18.5,28.3-29.1,43.4c-11.8,17-37.5,26.7-54.4,21.4c-13.6-4.4-20.3-15-24.9-27.4 c-2.3-6.3-4.3-12.8-5.6-19.3c-1.3-6.6-1.4-13.4-2.1-19.9c-6.3,10.7-12.1,21.7-19.1,32c-10.1,14.9-21.8,28.4-39.6,34.5 c-23.4,8-41.3-4.4-49-24.4c-9.8-25.4-9.3-51.3-4.2-77.4c5-25.5,14.8-49.3,29.4-70.9c9.1-13.5,19.6-25.7,34.9-33 c24.8-11.9,48.4-2.4,56.5,23.5c4,12.7,6.1,25.9,8.8,38.1c5.1-8.7,10.2-18.8,16.5-28.1c10.9-16.1,23.4-30.1,43.4-36.4 c23.1-7.3,42.4,6.3,48,25C592.4,650.4,594.8,664.5,597.6,677z M439.4,707.5c-0.5-3.5-0.9-7.6-1.5-11.6c-0.7-4.8-1.2-10.4-7-11.4 c-3.8-0.6-8.3,0.7-11.9,2.4c-2.6,1.2-4.4,4.4-6.3,6.9c-11.5,15.2-18.6,32.4-21.9,51.1c-1.2,6.9,1.5,19,8.5,22.5 c6.5,3.3,14.5,1.6,21.4-5.9C434.6,746.4,437.7,727.5,439.4,707.5z M543.5,682.7c-2.8,1.7-7.4,3.1-9.9,6.2 c-14.9,17.9-26,37.7-26.3,61.9c-0.1,8.3,4.8,15.8,11.2,17.7c5.6,1.7,15.5-2.6,19.7-8.3c14.6-19.5,19.2-41.6,16.2-65.4 C553.8,689.3,551.9,683.9,543.5,682.7z M671.3,709c0-3.9,0.2-7.9,0-11.8c-0.7-11.4-8.7-15.5-18.3-9.4c-1.2,0.8-2.4,1.8-3.3,2.9 c-14.2,18.4-26.3,37.6-25.7,62.1c0.2,7.3,1.9,13.1,9.5,16.2c7.3,3,12.9,0,17.7-4.6C666.9,749.4,671.2,729.9,671.3,709z M402.4,692.9 c-5.9,5.3-8.7,6.5-16.9,6.5c-3.2,0-6.4,0-9.6,0c-9.3,0-10.4-1.8-7.8-10.9c5.3-18.7,15.1-34.9,27.8-49.3c4-4.5,10.7-8.1,16.5-8.9 c12.5-1.7,25.3-1.9,38-1.5c6.2,0.2,12.1,3.2,14.2,10.5c1.2,4,3.4,7.8,5.1,11.7c-1.4-13.7-5.8-25.8-18.3-33.3 c-15-9-34.7-2.9-48.5,9.8c-23.3,21.2-35.7,48.9-44.7,78.3c-1.8,6-2.5,12.4-4,20.5c8.1-8.5,30.2-10.5,34.7-4.2 C393.4,712.2,397.9,702.5,402.4,692.9z M587.2,651.9c0.3-0.1,0.6-0.2,0.9-0.3c-0.4-2-0.5-4.2-1.1-6.1c-4.3-14.1-10.5-27-26.4-30.7 c-17-4-30.9,3.4-42.7,14.5c-22.5,21.2-34.3,48.6-43,77.6c-1.1,3.5-1.2,7.4-2,12.6c11.7,0,22.2,0,33.5,0c3.4-7.5,7.4-16.3,11.6-25.7 c-12.5,9-24.8,5.6-37.3,3.8c5.8-19.1,14.3-36,25.9-51.3c6.3-8.3,13.3-16.5,24.6-17.1c12.7-0.7,25.4-0.2,38.1,0.1 c7.4,0.2,10.6,5.9,13.3,11.6C584.3,644.5,585.7,648.2,587.2,651.9z M634.5,695.7c-12.5,5.6-24.6,4.5-39.3,1.3 c9.6-16.8,17.7-32.9,27.7-47.8c6.5-9.7,14.6-19.4,28-20.1c11-0.6,22.1-0.5,33.1-0.2c7.9,0.2,12.3,5.7,15.3,12.4 c1.7,3.7,3.3,7.5,5,11.2c0-4.5-0.6-8.8-2.2-12.7c-7.7-19-20.1-25.9-35.9-24.4c-15.1,1.4-27.3,9.7-37.1,20.8 c-18.5,20.9-30.7,45.4-37.7,72.4c-0.8,3.1-1.1,6.3-1.8,10.9c12,0,22.5,0,33.7,0C626.6,712.5,630.4,704.3,634.5,695.7z M706.2,688.8 c-3.4,3.6-6.2,9-10.1,10.1c-6.8,1.8-14.7,1.9-18.4-8.8c-0.6,12.5-1,23-1.5,33.6c6.2-6.4,16.8-7.3,23.5-0.9 C702.1,710.7,704.2,699.2,706.2,688.8z M443.4,721.4c5.2-0.8,11.3-1.7,17.3-2.8c2.2-0.4,5.8-1,6.2-2.3c1.8-5.8,2.7-11.8,4-18.3 c-18.5,3.2-21.8,2.2-27.6-9.3C443.4,701.6,443.4,712.6,443.4,721.4z M560,688.6c0,13,0,23.9,0,34.9c2.4-7.8,8.8-4.2,13.8-5 c3.2-0.5,8.6-0.3,9.3-1.9c2.4-5.7,3.2-12.1,4.7-18.8C569.6,701.2,565.8,700.1,560,688.6z M552.4,749.3c-6.1,6.2-12.3,14.7-20.4,20.1 c-9.5,6.2-19.5,3-27.3-6c4.3,10.3,12.6,13.1,22,11.1C541.1,771.5,547.8,760.1,552.4,749.3z M621.7,765.9c4.5,9,13.3,12.1,22.7,9.9 c9.6-2.2,25.4-20.3,24.8-26.3c-6,6.5-12,14.9-19.9,20.8C639.8,777.3,630.1,773.8,621.7,765.9z M436.7,745.5 c-1.5,2.6-2.9,5.2-4.4,7.7c-9.4,15.6-24.6,28.8-42.6,11.9c3.8,8.5,8.9,10.9,21.3,9.7C420.5,773.8,433.7,759.2,436.7,745.5z"></path> <path style="fill:#FFCE00;" d="M307.7,690.6c-7.1,1.5-13.6,2.9-20.1,4.1c-4.2,0.8-6.7-0.7-6.4-5.4c0.6-9,0.9-18,1.7-27 c0.6-6.7,1.5-13.4,2.9-20c0.5-2.3,2.5-5.7,4.3-6.1c22.1-4.8,44.3-9.2,66.5-13.5c2.1-0.4,4.3-0.1,8.2-0.1 c-2.1,10.8-4.1,20.8-5.9,30.8c-4.3,23-8.9,45.9-12.5,68.9c-3.5,21.9-8.1,44-8.2,66.1c-0.1,16.7-8.3,20.9-21.2,23.8 c-6.1,1.4-12.1,3.1-17.9,5.4c-5.1,2.1-6.3-0.1-6-4.4c0.9-11.1,1.9-22.2,3.2-33.3c1.6-13.4,3.7-26.8,5.6-40.2s3.9-26.7,5.7-40.1 C308.1,696.9,307.7,693.9,307.7,690.6z M313.5,691.5c-1.5,9.9-3.1,20.8-4.8,31.7c6.8-5.6,23.9-6.9,31.4-1.5c1.7-11.2,3.3-22,5-32.8 c-6.3,11-7.3,11.9-21.6,10.2C320.3,698.7,317.5,694.7,313.5,691.5z M290.7,647.3c11.2-9.6,57-17,64.5-10.5c1.3-3.5,2.6-6.8,4.2-10.9 c-20.8,4.3-40.9,8.6-61.2,12.4C292.9,639.3,288.3,639.6,290.7,647.3z"></path> <path style="fill:#FFCE00;" d="M243.1,500c0-2.7,0-4.6,0-7.3c3.7,0,7.3-0.3,10.8,0.2c1.4,0.2,2.5,2.3,3.7,3.5 c-1.2,1.2-2.3,3.3-3.7,3.5C250.6,500.3,247.2,500,243.1,500z"></path> <path style="fill:#FFCE00;" d="M341.5,365.8c-1.7,5.9-2.8,11-4.8,15.8c-0.7,1.6-4,3.3-5.8,2.9c-1.5-0.3-3.7-3.6-3.5-5.2 c1-6.3,2.6-12.6,4.6-18.6c0.4-1.2,4.7-2.7,5.3-2.1C339.1,360.5,340.1,363.3,341.5,365.8z"></path> <path style="fill:#FFCE00;" d="M484.7,365.9c-1.9,5.5-3.4,10.8-5.6,15.7c-0.7,1.5-3.2,2.9-4.9,3c-1.2,0-3.2-2.2-3.5-3.6 c-1.7-7.7,0.9-14.7,5-21.1c0.7-1.1,4.4-1.9,5-1.3C482.5,360.5,483.4,363.1,484.7,365.9z"></path> <path style="fill:#FFCE00;" d="M404,757c-3.5-24.3,8.2-43.2,20.4-62.9C431.7,717.3,420.1,753.3,404,757z"></path> <path style="fill:#FFCE00;" d="M521.7,756.7c-6.6-11.8,4.6-47.1,19.6-61.5C547.1,714.8,538.5,751.6,521.7,756.7z"></path> <path style="fill:#FFCE00;" d="M638.2,758.5c-7.2-12.4,6-51.7,20.3-61.7C662.9,720.6,655,748.8,638.2,758.5z"></path> </svg> 