<?xml version="1.0" encoding="UTF-8"?> <svg xmlns="http://www.w3.org/2000/svg" xmlns:xlink="http://www.w3.org/1999/xlink" version="1.1" id="Layer_1" x="0px" y="0px" viewBox="0 0 1000 1000" style="enable-background:new 0 0 1000 1000;" xml:space="preserve"> <path style="fill:#FFCE00;" d="M970,596.2c-1,4-1.7,8-3,12c-3.6,11.8-12.8,19.6-22.6,19.1c-8-0.3-13.5-5.5-17.8-11.3 c-5.7-7.7-10.5-16.2-15.7-24.4c-1.9-3.1-3.3-7.1-5.9-9.2c-2-1.6-6.7-2.3-8.7-1c-4.7,2.9-8.8,6.9-12.7,10.7 c-5.8,5.9-10.9,12.9-17.2,18.2c-8.5,7.3-18.6,8.7-29.6,5.2c-12.3-3.9-16-15.5-14.4-24.5c6.9-39.1,21.4-75.5,42.9-108.9 c5.4-8.4,11.4-16.9,18.9-23.2c19.6-16.4,42.1-15.3,57.6,7.6c9.2,13.6,14.3,29,17.4,44.8c3.6,18.5,5.9,37.3,8.9,55.9 c0.5,3.4,1.2,6.8,1.9,10.2C970,583.8,970,589.9,970,596.2z M895.4,528.9c0.8,4.5,1.2,9.4,2.8,13.8c0.8,2.6,3.3,5.7,5.5,6.2 c2,0.5,5.8-1.4,7.3-3.5c7.9-11.4,9.8-24,5.7-37.3c-1.4-4.8-4.8-9.3-9.9-9c-4.7,0.2-7.4,5.1-8.4,9.5 C896.8,515.2,896.3,521.9,895.4,528.9z"></path> <path style="fill:#FFCE00;" d="M22.6,536.8c0-11.7-0.3-23.3,0.1-35c0.2-6.6,1.8-13,2.8-19.4c0.6-4.1,1-8.3,2-12.4 c3.2-13.8,13.3-19.4,26.1-20.7c12.3-1.2,24.8-2.3,37.1-1.8c13.7,0.5,26.6,4.3,36.3,15c5.5,6.1,8.4,13.5,9.5,21.7 c1.4,10.9,1.5,21.5-0.8,32.2c-0.2,1,1.1,2.9,2.1,3.5c5.5,3.3,11.7,5.7,16.7,9.5c3.9,2.9,7.1,7.2,9.5,11.4c3.7,6.2,7.6,12.4,6.4,20.6 c-2.3,15.9-10.9,27.4-23.2,36.5c-19.1,14.2-40.7,22.8-64.2,26.9c-10.9,1.9-21.8,2.3-32.7-0.7c-3.5-1-6.1-2.7-7.9-6.3 c-1.2-2.6-3.9-4.5-6.1-6.4c-8.5-7-12.4-16.3-12.8-26.7c-0.5-16-0.1-32-0.1-48.1C23.3,536.8,22.9,536.8,22.6,536.8z M83,577.2 c3,0.4,6.6,1.9,9.4,1c7.2-2.3,14-5.2,20.8-8.5c4.4-2.1,6.3-6,5.7-11.2c-1-8.5-5.6-13.5-14.3-15.5c-0.8,0.9-1.2,2.1-2,2.3 c-1.3,0.3-2.9,0-4.3,0.1c-15.1,1.6-20,5.1-18.2,20.9C80.5,569.9,81.9,573.2,83,577.2z M68.9,500.5c0.9,3.4,1.6,7.8,3.4,11.8 c2,4.9,5.3,6.1,9.1,4.4c5-2.4,9-9.8,8.4-16.1c-0.8-8.4-4.5-13.6-10.9-15.4c-4.4-1.2-7.4,0.3-8.4,4.7C69.8,493,69.6,496.3,68.9,500.5 z"></path> <path style="fill:#FFCE00;" d="M604.3,545.3c1.3,8,2.7,16.1,4.2,24.1c2,10.6,5,21.2,6.3,32c1.1,10-2,20.1-11.9,22.5 c-5.2,1.2-9.6-0.1-13.7-2.9c-7.8-5.4-12-13.4-15.3-21.9c-7.5-19.3-7.4-39.7-7-60.1c0.2-11.4,1.3-22.5,4.7-33.4 c4.5-14,17-19.6,30.3-12.9c11.4,5.6,19.1,15.3,27.2,24.5c2.8,3.2,5.5,6.2,9.5,9c0-1.8,0-3.6,0-5.4c0.2-11,1.8-21.5,8.3-30.6 c2.5-3.6,6.2-6.6,10-8.8c6.2-3.8,14.6-1.4,18.7,4.6c6.9,10.1,9.3,21.7,10.9,33.5c1.6,12.8,2.6,25.6,4,38.4c1.7,15.1,3.1,30.2-1,45.3 c-3.7,13.3-12.6,17.2-24.5,9.9c-11.4-7-20.5-16.3-28.4-26.8c-9.5-12.8-18.8-25.7-28.3-38.6c-0.8-1-1.7-2-2.6-3.1 C605.5,544.8,604.9,545,604.3,545.3z"></path> <path style="fill:#FFCE00;" d="M354.5,539.6c-0.6,5-1.5,10-1.8,15c-0.8,14-1.1,28-2,42.1c-0.4,5.6-2.4,11.1-6.8,14.9 c-7.7,6.7-18.4,4.6-24-5.6c-3.5-6.3-6.1-13.6-6.9-20.8c-1.5-14.8-1.8-29.9,2.7-44.4c4-12.7,7.2-25.7,11.9-38.1 c2.4-6,6.9-11.5,11.3-16.4c4.9-5.6,16.4-5.4,23.4-0.6c7.6,5.1,12.5,12.5,16.7,20.3c3.8,7,6.9,14.2,11,21c2.5,4.1,6.1,7.6,9.3,11.3 c0.5-0.2,1-0.5,1.5-0.7c1-5.1,2.4-10.2,3-15.5c1.1-9.9,4.2-19.1,10.4-27c3.8-4.7,8.8-6.4,14.7-4.6c5.9,1.9,9.1,6.3,10.4,12.3 c4.4,18.2,1.3,36.1-1.8,54c-2.8,15.7-5.3,31.3-9.1,46.7c-1.6,6.4-5.5,12.6-9.4,18.2c-4.2,5.9-11.7,6.8-17.6,2.5 c-8.6-6.1-14.8-14.6-19.1-24.1c-8.4-18.4-15.8-37.3-23.6-55.9c-0.6-1.5-1.4-3.1-2.1-4.6C355.8,539.5,355.2,539.5,354.5,539.6z"></path> <path style="fill:#FFCE00;" d="M241.6,616.8c-29.4-0.2-54.1-21.5-59.3-47.8c-3-15.6-2.5-30.7,3.9-45.2c8.6-19.9,25.1-30,45.4-34.6 c17.9-4,35.2-2.3,50.3,8.7c6.1,4.5,11.4,11,15.5,17.4c8.6,13.5,9.1,28.8,7.7,44.3c-2.9,31.1-22.6,46.8-50.5,54.9 C249.6,615.9,244.3,616.3,241.6,616.8z M261.3,561.1c-0.9-13.8-2.6-25.7-7.9-36.5c-1.6-3.4-5.5-6.8-9-7.6c-2-0.4-5.8,3.8-7.7,6.8 c-6.6,9.7-7.9,20.7-5.7,31.9c2.1,11,8,19.7,17.8,25.2c5.2,3,8.3,1.7,9.6-4.1C259.8,571,260.6,565.2,261.3,561.1z"></path> <path style="fill:#FFCE00;" d="M470.4,501.9c6.4-4.5,12.5-9.1,19-13c13.8-8.2,26.8-5.3,36.4,7.7c9.8,13.2,14.7,28.6,18.5,44.2 c3.7,15.1,6.9,30.4,9.2,45.9c1,7.1-0.3,14.4-1.3,21.6c-0.4,2.8-2.4,5.8-4.3,7.9c-6.8,7.1-14,8.9-20.6,2 c-5.9-6.2-10.6-13.6-15.9-20.5c-1.1-1.5-1.9-3.4-3-4.9c-4.1-5.7-9.3-6.3-14.2-1.2c-4.1,4.3-7.3,9.4-11,14.1 c-7,8.9-15.9,14.6-27.5,14.7c-7.7,0-12.1-4.1-13.5-11.6c-2.6-12.9,0.9-25.1,4-37.4c5.3-20.8,11.7-41.3,22.5-60 C470.5,508.6,473.3,505.9,470.4,501.9z M511.4,543c0.4-5.9-0.9-11.3-5.1-16c-4.3-4.7-7.8-4.2-10.4,2.3c-4.1,10.3-2.5,20.9,1.1,31.1 c0.5,1.4,3.1,3.1,4.7,3.1s3.7-1.4,4.8-2.9C510.7,555.6,511.8,549.5,511.4,543z"></path> <path style="fill:#FFCE00;" d="M751.7,586.9c8.1-0.7,15.5-1.5,22.8-1.9c6.4-0.3,13.1-1,19.3,0.2c9.3,1.8,11.6,11.8,5.3,19.8 c-6.7,8.4-16.1,11.9-26,13.4c-19.6,3.1-39,2-57.8-4.7c-7.8-2.8-15.7-5.8-19.2-14.2c-0.9-2-1.1-4.9-0.4-7c4.8-13.2,15.3-22,25.1-31.4 c10.4-9.9,20.6-20.2,30.3-30.7c4.8-5.2,3.5-8.8-3.4-10.9c-7.8-2.4-16.1-3.4-23.6-6c-5-1.8-9.7-5.2-13.9-8.7 c-4.1-3.3-4.3-9.4-0.1-12.7c3.8-3,8.7-5.9,13.2-6.1c13.5-0.6,27.1-0.5,40.5,0.7c8.9,0.8,17.7,4,26.4,6.6 c11.3,3.4,16.3,13.4,12.1,24.3c-4.8,12.6-12.8,23.2-21.7,33.3c-9.6,10.9-18.7,22.2-28,33.4C752.1,584.4,752.2,585.1,751.7,586.9z"></path> <path style="fill:#FFCE00;" d="M586.3,408.3c-1.1,3-1.9,5.7-3,8.4c-11.1,25.9-31.4,40.9-58.4,46.6c-16.4,3.5-33,3.1-49.2-1.1 c-4.1-1.1-8.2-2.6-11.9-4.8c-10.9-6.2-13.4-9.4-16.8-17.6c-2.3,0.5-4.4,1.1-6.8,1.4c-20.9,3.8-41.8,4.2-62.4-2.2 c-17.8-5.6-32.7-15.5-43.8-30.8c-0.2-0.4-0.6-0.7-1.1-1.2c-1.4,3.9-2.6,7.8-4.2,11.4c-11.4,24.9-31.3,39.3-57.6,44.8 c-17.8,3.7-35.7,3.5-53.3-2.3c-4.8-1.6-9.6-4.2-13.7-7.2c-6.7-4.5-10-11.1-10-19.4c0-6.2,0-12.3,0-18.6c0-9.1,3.7-16,11.5-20.7 c9.2-5.4,17.7-11.7,25.1-19.2c4.3-4.3,10-6.6,16.3-6.4c0.8,0,1.7,0,2.9,0c1.3-8.2,2.5-16.1,3.7-24.3c3.9-26.3,8-52.8,12.1-79.1 c1-6.6,1.2-13.3,4.9-19.2c0.2-0.5,0.1-1.1,0.1-1.7c-0.8-14.7,0.4-29.4,2.9-44c1.8-10.4,10.9-18.8,21.5-18.9 c14.5-0.1,29.1,0.1,43.6,0.5c9,0.2,18.8,8.8,19.5,17.8c0.8,9.2,0.5,18.6,0.1,27.9c-0.1,4.1-1.6,8.1-2.3,12.1c0.4,0.1,0.6,0.2,1,0.5 c0.5-0.4,1.1-0.5,1.6-1c21.6-17.9,46.7-25.5,74.5-25.1c17.3,0.2,33.9,2.9,49.8,10c14.9,6.8,26.9,17.2,35.8,30.9 c0.5,0.6,0.8,1.3,1.3,1.9c0,0.1,0.1,0.1,0.5,0.2c0.7-2.6,1.1-5.3,2.3-7.8c1.6-3,1.8-6.1,1.7-9.3c-0.7-13.6,1.1-27,3.2-40.4 c1.7-10.6,10.8-18.5,21.6-18.4c14.9,0,29.9,0.2,44.8,0.5c9.4,0.2,18.6,8.4,19.6,18.2c0.7,8.2,0.4,16.7,0.1,25c0,2.3-1.3,4.4-1.9,6.8 c-0.6,2.3-1.1,4.5-1.7,6.9c0.4,0.1,0.6,0.2,1,0.4c0.5-0.4,1.1-0.7,1.6-1.1c18.3-14.7,39.4-21.9,62.6-23.5 c16.4-1.2,32.5,0.4,48.3,5.3c35.6,11.2,58.6,39.1,61.6,76.3c1.8,22.7,2,45.6-6,67.5c-15.7,43.4-46.2,69.8-92,77.5 c-19.2,3.2-38.4,2.8-57.1-3.1c-17.2-5.4-31.7-14.9-42.7-29.5C587.3,409.4,586.9,408.9,586.3,408.3z M581.7,370.5c0.1,0,0.4,0,0.5,0 c0.2,1,0.5,2,0.7,3c4.1,15.8,11.6,29.5,24.4,40c14.6,12.1,31.7,17.2,50.2,18.2c9.6,0.5,19.1,0,28.5-1.6c9.9-1.7,19.5-4.4,28.5-8.7 c14.2-6.8,26.2-16.3,35.8-28.8c7-9,12.7-18.5,16.6-29.3c4.1-11.5,6.4-23.4,6.9-35.5c0.4-12.5,1-25.1-1.6-37.5 c-3.1-15.3-9.2-29.1-20.8-40.1c-0.7-0.6-1.2-1.3-2-2.3c3.1-0.6,5.8-1,8.5-1.4c0.1-0.2,0.2-0.6,0.4-0.8c-1.3-0.7-2.6-1.8-4.2-2.2 c-2.2-0.6-4.4-0.6-6.8-1.1c-1.2-0.2-2.9-0.7-3.5-1.7c-1.2-2.2-1.8-4.8-2.9-7.2c-0.2-0.6-1.1-1.1-1.7-1.3c-1-0.5-2.3-0.5-3.1-1.1 c-3-1.9-6-3.9-9.1-6.2c-0.6,0.5-2,1.4-3,2.8c-1.1,1.3-5.3,3.4-7,3c-8.1-1.4-16.3-3.5-24.5-3.9c-8.5-0.5-17.2,0.1-25.7,1.1 c-11.9,1.4-23.4,5.1-34.1,11.1c-11.5,6.4-21.1,14.9-29.3,25.3c-2.3,3-4.4,6.1-7,9.4c2.2-13.6,4.1-26.7,0.6-40.5 c3.6-3.6,5.4-8.6,4.7-14.5c-0.1-0.7-0.1-1.6,0-2.3c0.7-4.5,1.7-9.1,7.2-10.6c0.6-0.2,1.4-1.6,1.3-2.2c-0.2-1-1.1-2.3-1.8-2.4 c-2.4-0.2-3.1-1.8-4.3-3.6c-1.3-2-0.8-5.6-4.9-6c-1.4-0.1-4.3-1.3-5.4-3.9c-0.7-1.8-3.7-2-4.7-0.1c-1.2,2.4-3.4,3-5.3,3.9 c-2.6,1.2-4.9,2.9-8.4,2.8c-9-0.4-17.9-0.1-26.8-0.1c-3.6,0-6.7,1.3-8.1,4.5c-1.2,2.9-1.9,6.2-2.4,9.3c-1,6-1.8,11.8-2.2,17.8 s-0.1,11.7,0,17.7c0,1.6,0.6,3.1,0.7,4.8c0.1,0.6-0.1,1.3-0.5,1.8c-1.2,2.2-3.1,4.1-3.7,6.3c-1.2,5.1-1.8,10.4-2.5,15.7 c-1.2,8.4-2.3,16.8-3.6,25.1c-1.2,8.2-2.8,16.6-3.9,24.7c-1.1,7.3-1.9,14.5-3,21.7s-2.2,14.2-3.5,21.4c-1,4.8-2,9.6-3.5,14.1 c-1.1,3.4-3.5,4.2-6.7,2.5c-4.2-2.3-10.6-1-13.6,2.3c-8,8.8-17.6,15.8-28.1,21.4c-4.4,2.3-6.7,6-6.6,11.1c0.1,5.8,0,11.6,0,17.4 c0,3.4,1.6,6.4,4.1,8.2c3.7,2.6,7.8,5,11.9,6.9c8.5,3.6,17.6,4.3,26.5,4.7c4.3,0.1,8.8-0.4,13.1-0.5c0.6,0,1.2,0,1.8,0 c10-1.7,19.7-4.3,28.7-9.4c11-6.3,19.9-14.6,25.8-25.9c5.4-10.4,7.9-21.7,10-33.2C580.2,379.6,581,375,581.7,370.5z M458.8,237 c-7.3-1-13.7-2.2-20.4-2.5c-5.7-0.4-11.6-0.1-17.3,0.6c-7.2,0.8-14.3,1.9-21.1,3.9c-17.9,5.6-32.1,16.6-43.1,31.4 c-11.8,15.9-17.4,34.4-19.1,54c-1.1,13.3,0.6,26.4,6,39.1c5.3,12.7,13.7,22.7,25.7,29.6c12.1,7,25.5,9.9,39.3,10.3 c6.7,0.2,13.5-0.1,20.1-1.2c12.7-2,24.9-5.8,36-12.3c13.4-7.9,23.8-18.8,31.8-31.9c5.6-9.2,9.6-19,11.6-29.6 c2.3-11.7,3.5-23.4,1.7-35.4c-2.5-16-9.2-29.9-21.4-40.7c-0.5-0.4-0.7-1.9-0.5-2c2-1.3,4.5-3.8,6.3-3.4c3.6,1.1,6.6-0.1,9.8-1.4 c-1-1-1.9-1.7-3.1-1.9c-1.4-0.4-3.1-0.1-4.4-0.7c-2.4-1-6,0.7-7.5-2.6c-1.1-2.3-1.8-4.5-2.9-6.9c-0.4-0.6-1.2-1.1-1.9-1.4 c-0.4-0.1-1.1,0.4-1.2,0.2c-3.2-2.9-8-3.8-9.9-7.8c-1.2,0.4-2.2,0.6-3.2,0.8c0.1,3.2-2.9,3.9-5.7,5.3c1.6,0.7,2.8,1.3,3.9,1.9 c0,0.2,0,0.6-0.1,0.8c-2.8,0-5.6,0-7.9,0C459.9,234.5,459.3,235.9,458.8,237z M283.2,248.6c-1.7,2.9-4.2,5.4-4.8,8.4 c-1.7,7.9-2.5,15.7-3.7,23.7c-0.8,5.7-1.6,11.2-2.4,17c-1.1,6.9-2.4,13.7-3.5,20.8c-1.1,7.3-1.9,14.5-3,21.7 c-1.3,8.5-2.5,17-4.1,25.3c-0.8,4.5-1.9,9.2-3.5,13.5c-1.3,3.7-3.4,4.1-7.2,2.8c-1.7-0.6-3.6-0.8-5.6-0.7c-4.4,0-7.5,2.6-10.4,5.7 c-6.9,7.4-15.1,12.9-23.8,17.9c-3.9,2.3-6.3,5.7-6.3,10.4c0,6.6,0,13.1,0,19.7c0,0.8,0.1,1.7,0.4,2.5c1.7,6.3,7,8.8,12.2,11 c4.5,1.8,9.4,3.1,14.3,4.1c4.2,0.8,8.7,1.1,13,1.3c3,0.1,6.1-0.6,9.1-0.5c7.5,0.2,14.6-1.4,21.6-3.5c9.2-2.8,17.4-7.6,24.9-13.6 c8.7-7,14.8-15.7,18.3-26.2c2.9-9,5.4-18,6.9-27.3c1.3-7.6,2.5-15.2,2.3-23.2c-0.5-15.2-1.6-30.7,1.4-45.9 c1.8-8.8,3.6-17.8,7.9-25.8c3.9-7.9,6.2-16.1,6.9-24.7c0.6-7.2,0.6-14.5,0.6-21.6c0-1.8-0.4-3.6-1-5.3c-0.6-1.8-0.7-3.1,0.6-4.7 c1.1-1.3,1.8-3,2-4.7c0.7-4.3,1-8.7,1.9-13c0.6-2.8,1.7-5.6,4.7-7.2c1-0.5,2.2-1.7,2.2-2.5s-1.2-1.8-2-2.6c-1-1.2-2.2-2.3-3-3.5 c-1.1-1.7-1.7-4.5-3-5c-3.9-1.3-6.9-3.8-9.8-6.7c-2.9,1.6-4.3,4.7-7.8,5.7c-2.8,0.7-5,2.8-8.4,2.6c-8.6-0.4-17.3-0.2-25.9-0.1 c-4.1,0-7.6,1.8-9.3,5.8c-1.2,2.8-1.6,6-2.2,9c-0.8,4.8-1.8,9.7-2,14.6c-0.4,6.4-0.2,12.8,0,19.1 C281.9,244.4,282.7,246.7,283.2,248.6z"></path> <path style="fill:#FFCE00;" d="M545.8,228c1-0.2,1.8-0.6,2.6-0.6c4.4-0.1,9.1-0.4,13.5,0c7,0.6,12.8-2,18.5-5.7 c1.6-1,2.9-2.4,4.4-3.1c0.8-0.4,2.5-0.2,3.1,0.4c1,0.8,1.4,2.2,0,3.4c-7.2,6.4-15.4,10.8-24.9,12.5c-5.1,1-10.5,1.4-15.8,1.8 c-4.3,0.2-5-0.5-4.5-4.8c0.8-6.7,1.8-13.1,2.9-19.7c0.1-1,1-1.8,1.4-2.6c0.4,0.1,0.6,0.2,1,0.4C547.6,216.1,546.6,222.2,545.8,228z"></path> <path style="fill:#FFCE00;" d="M292.6,228c1-0.2,1.8-0.6,2.6-0.6c4.4-0.1,9.1-0.4,13.5,0c7,0.6,12.8-2,18.5-5.7 c1.6-1,2.9-2.4,4.4-3.1c0.8-0.4,2.5-0.2,3.1,0.4c1,0.8,1.4,2.2,0,3.4c-7.2,6.4-15.4,10.8-24.9,12.5c-5.1,1-10.5,1.4-15.8,1.8 c-4.3,0.2-5-0.5-4.5-4.8c0.8-6.7,1.8-13.1,2.9-19.7c0.1-1,1-1.8,1.4-2.6c0.4,0.1,0.6,0.2,1,0.4C294.2,216.1,293.5,222.2,292.6,228z"></path> <path style="fill:#FFCE00;" d="M395.2,330.2c0.1-12.4,2.5-24.4,8.7-35.2c4.8-8.5,11.9-14,21.9-15.8c15.7-2.8,25.9,10,27,22.8 c1,12.9-1.2,25.1-6.1,36.9c-4.2,10.5-11.6,18.2-22.8,20.2c-13.7,2.4-24.3-3-27.9-19C395.5,336.9,395.6,333.5,395.2,330.2z M430.4,319.7c-6.1-1.8-11.9,12.8-11.6,20.5C425,341.4,430,327.9,430.4,319.7z"></path> <path style="fill:#FFCE00;" d="M648.3,330.2c0.1-12.4,2.5-24.4,8.7-35.2c4.8-8.5,11.9-14,21.9-15.8c15.7-2.8,25.9,10,27,22.8 c1,12.9-1.2,25.1-6.1,36.9c-4.2,10.5-11.6,18.2-22.8,20.2c-13.7,2.4-24.3-3-27.9-19C648.5,336.9,648.5,333.5,648.3,330.2z M683.4,319.7c-6.1-1.8-11.9,12.8-11.6,20.5C678.1,341.4,683.1,327.9,683.4,319.7z"></path> <path style="fill:#FFCE00;" d="M229.8,418.2c0,0,73.2,3.7,90.1-28.1c0,0-15.4,28.7-46.2,31.8S229.8,418.2,229.8,418.2z"></path> <path style="fill:#FFCE00;" d="M481.7,418.2c0,0,73.2,3.7,90.1-28.1c0,0-15.4,28.7-46.2,31.8C495,425.1,481.7,418.2,481.7,418.2z"></path> <path style="fill:#FFCE00;" d="M189,717c0.5-2.1,0.9-4.3,1.5-6.4c1-3.4,2.1-6.7,3.4-10c2.4-6.8,6.3-12.7,9.6-18.9 c2.9-5.6,7.2-10.2,10.6-15.5c1.8-2.8,4.5-4.9,6.8-7.4c5.2-5.7,11.2-10.5,17.8-14.4c1.8-1.1,4-1.9,6.1-2.1c3.9-0.3,7.9-0.2,11.9-0.1 c1.8,0,3.1,1.1,4.1,2.7c0.9,1.3,2.4,2.3,3.5,3.5c3.6,4.1,5.8,8.8,6.6,14.1c0.8,5.9,1.5,12,2.1,17.9c0.4,4.1,0.7,8.2,0.8,12.2 c0.1,2.8,0,5.5,0,8.2c0.1,7.2,0.1,14.4,0.2,21.6c0.1,4.5,0.3,8.9,0.3,13.4c0,5.6-0.2,11.3-0.3,16.9c0,3-0.1,5.8,0,8.8 c0.1,2.7,0.4,5.2,0.3,7.9c-0.2,7.3-0.6,14.6-0.9,21.9c-0.2,3.9,0,7.9-0.6,11.7c-1,5.8-1.6,11.9-4.7,17.1c-1.6,2.8-4.2,4.6-6.9,6.2 c-1.2,0.7-3,0.7-4.4,0.8c-4.6,0.1-9.2,0.2-13.9,0.2c-1.1,0-2.4-0.6-3.7-1c-0.4,0-1,0.3-1.6,0.2c-4.7-0.9-8.6-3.4-11-7.6 c-1.2-2.1-1.8-4.8-2-7.3c-0.8-7.2-1.5-14.3-1.8-21.5c-0.3-8.2-0.2-16.5-0.1-24.7c0.1-10.5,0.4-21.2,0.6-31.7c0.1-4.7,0.3-9.3,0.4-14 c0-0.8-0.1-1.5-0.3-2.4c-0.5-2.5-2.8-3.7-4.8-2.4c-2.3,1.4-4.2,3.3-6.1,5c-2.6,2.4-4.8,5-7.5,7.2c-4.5,3.9-13.2,0.6-14.3-4.4 c-0.4-1.6-1.1-3.1-1.6-4.7C189,717.7,189,717.4,189,717z"></path> <path style="fill:#FFCE00;" d="M366.2,643.3c3.3,0,6.7-0.1,9.9,0c1.5,0.1,3.1,0.7,4.6,1c7,1.2,13.7,3,20,6.1 c5.3,2.7,10.2,6.1,14.8,9.8c3.9,3.1,7.5,6.8,10.5,10.5c2.8,3.4,4.8,7.4,7,11.2c3.9,6.8,6.4,13.9,8.5,21.4s3.4,14.9,3.5,22.6 c0.1,4,0.4,7.9,0.3,11.9c-0.1,3.9-0.1,7.8-0.7,11.7c-0.8,5.2-2,10.3-3.4,15.5c-2.8,10.7-7.2,20.8-13.4,30c-1,1.5-2.3,2.9-3.2,4.5 c-0.7,1.2-0.7,3-1.6,4c-2.9,3.4-5.4,7.2-9,9.5c-10.5,7.2-22,13-34.9,14.3c-10,1-20.2,1.3-30-2.1c-0.9-0.3-1.9-0.6-2.7-1.1 c-2.1-1.5-4.7-1.3-7.1-2c-7.5-2.4-14-6.4-20.1-11.3c-3.8-3-7.5-6-10.5-9.6c-3.8-4.6-7-9.8-10.3-14.8c-4.2-6.1-6-13.3-8.5-20.3 c-2.1-6.3-2.8-13-3.7-19.6c-1-7.1-0.8-14.1-0.3-21.2c0.6-8,2-15.8,4.5-23.4c1-3.4,2-6.8,3.5-9.9c1.7-3.9,3.9-7.7,5.9-11.5 c3.1-5.7,7.3-10.5,11.7-15.4c3.9-4.3,8.5-7.7,13.2-10.9c7.7-5.1,15.7-9.8,25.2-10.5c5.3-0.4,10.6-0.6,15.9-0.9 C366.2,643.1,366.2,643.2,366.2,643.3z M340.5,736.1c0.1,1.7,0.4,3.8,0.4,5.8c0.2,6.3,1.3,12.5,4.2,18.1c2.3,4.4,4.8,8.7,7.9,12.6 c7.2,8.9,21.1,9.9,29.4,1c4.5-4.9,7.4-10.7,9.1-17.1c3-10.7,3.7-21.7,2.4-32.9c-1-8.1-3.6-15.5-7.8-22.4c-3.5-5.7-8.5-9.3-14.9-10.7 c-6.8-1.5-12.4,1.2-17.3,5.4c-5.8,4.9-8.6,11.9-10.6,18.9C341.1,721.7,340.9,728.8,340.5,736.1z"></path> <path style="fill:#FFCE00;" d="M732.9,823.3c-0.3,0.2-0.9,0.8-1.6,1.1c-11.9,3.8-24.1,5-36.2,1.7c-8.2-2.3-16.4-4.7-23.9-8.9 c-13.5-7.6-23.3-18.4-30.6-31.7c-2-3.8-4-7.7-5.5-11.7s-2.4-8.3-3.7-12.4c-1.7-5.5-2-11.2-2.6-16.8c-0.3-4.2-0.8-8.5-0.5-12.8 c0.4-6.4,1.2-12.8,2.3-19.1c1.7-10.2,5.3-19.9,10.1-29c4.4-8.3,10.3-15.7,17.3-22c5.4-4.9,11.5-8.7,17.8-12.1 c7.2-3.8,14.7-6.9,23-7.3c1.6-0.1,3.4,0.3,5.1,0.3c3.8,0.2,7.6,0.2,11.4,0.5c2.8,0.2,5.5,0.6,8.3,1.1c3.1,0.5,6.2,0.8,9.1,1.9 c5.1,1.9,10.3,4.1,15.1,6.8c4.2,2.4,8.1,5.2,11.7,8.4c10,8.6,16.6,19.8,21.4,31.9c3.4,8.6,5.2,17.6,6.4,26.7 c0.4,3.2,0.1,6.4,0.1,9.7c0,4.1,0,8.2,0,12.3c0.1,7.1-1.4,13.9-3.1,20.7c-3.1,12.6-8.1,24.5-15.9,34.9c-2.9,3.8-6,7.3-9.1,10.9 c-0.5,0.5-1.2,0.8-1.9,1.2c-0.2,0.1-0.5,0.2-0.6,0.4c-1.6,3.4-5.2,4.4-7.9,6.6c-3.9,3.2-8.6,4.7-13.1,6.4 C734.8,823.4,734,823.3,732.9,823.3z M711.2,779.8c3.9,0.2,7.8-1.5,11.2-4.2c3.3-2.6,5.8-5.8,7.5-9.5c1.5-3.4,2.9-7,3.8-10.5 c1.1-4,1.8-8,2.6-12.1c0.4-2.3,0.2-4.5,0.4-6.9c0.1-1,0.4-2,0.3-3.1c-0.3-4-0.5-8.1-1.1-12.1c-1.2-7.5-3.8-14.5-8.1-20.9 c-1.2-1.8-2.7-3.8-4.4-5.1c-4.7-3.7-9.8-5.8-16.2-4.6c-4.9,0.9-9,2.9-12.4,6.4c-5.5,5.8-8.1,12.9-10,20.6c-2.4,9.5-2.3,19-1.2,28.7 c0.8,8.6,4.3,16.4,9.4,23.4C697.3,775.8,702.8,779.8,711.2,779.8z"></path> <path style="fill:#FFCE00;" d="M526.6,643.3c4.6,0,11.7-0.3,18.6,0.1c3.9,0.2,7.8,1.4,11.7,2.3c7.3,1.5,14,4.5,20.4,8.2 c3.5,2,6.6,4.6,9.7,7.2c5,3.9,8.8,8.9,12.5,13.9c2.4,3.3,4.2,7,5.9,10.5c4.8,9.6,7.8,19.9,9.2,30.4c0.7,5,1.4,10.1,1.4,15.1 c0.1,13.8-1.7,27.4-6.2,40.6c-1.7,5.2-3.8,10.3-6.3,15.1c-2.8,5.1-6.1,9.9-9.7,14.4c-4.4,5.5-9.5,10.2-15.7,14.1 c-3.8,2.4-7.6,4.7-11.7,6.4c-2,0.9-4.5,1.1-6.8,1.7c-1.6,0.5-3.2,1.4-4.8,1.7c-7.5,1.4-15,2.6-22.7,1.3c-4.3-0.7-8.6-1.1-12.9-1.7 c-1.5-0.2-3-0.7-4.4-1.2c-3-1.1-5.9-2.1-8.8-3.5c-2.4-1-4.8-2-7-3.5c-5.1-3.6-10.5-7.2-15-11.5c-4.1-3.9-7.7-8.5-11-13.2 c-6.3-9.1-10.5-19.2-13-30c-1.2-5.2-2.1-10.4-2.8-15.8c-0.9-8.1-0.9-16.3,0.3-24.4c1-7,2.5-13.8,4-20.7c0.6-2.8,1.9-5.4,3.1-8.2 c3.3-8,7.7-15.4,13.1-22.2c6.4-8.1,14.2-14.5,23.3-19.3c3-1.6,5.9-3.3,9-4.7C514.5,644.7,519,642.9,526.6,643.3z M538.2,690.2 c-6,0.2-10.7,2.6-14.7,6.7c-4.1,4.2-6.6,9.1-8.5,14.6c-2.1,6-3.3,12.3-3.6,18.6c-0.3,4.6,0.2,9.3,0.3,13.9c0,5.5,2,10.6,3.9,15.8 c1.8,5.2,5.3,9.6,8.9,13.8c2.9,3.3,6.7,5,11,5.9c6.6,1.4,12-0.5,16.7-4.9c6.2-5.8,9.3-13.4,11.3-21.5c1.8-7.5,2.5-15,1.9-22.7 c-0.3-5.9-0.9-11.7-3-17.3c-1.7-4.9-3.7-9.6-6.8-13.8C551.2,693.2,545.4,690.3,538.2,690.2z"></path> </svg> 