<?xml version="1.0" encoding="UTF-8"?> <svg xmlns="http://www.w3.org/2000/svg" xmlns:xlink="http://www.w3.org/1999/xlink" version="1.1" id="Layer_1" x="0px" y="0px" viewBox="0 0 1000 1000" style="enable-background:new 0 0 1000 1000;" xml:space="preserve"> <path style="fill:#FFCE00;" d="M809.8,411.1c-0.4,1.6-0.7,3.1-1.1,4.7c-4.1,16.9-19.1,31-36.5,33.9c-3.6,0.6-7.3,0.8-11,0.8 c-184,0.1-368.1,0-552.1,0.1c-12.7,0-23.7-3.5-33.4-11.7c-8.3-7.1-13.2-15.9-14.7-26.6c-0.2-1.2-0.5-2.4-0.7-3.5c0-4.3,0-8.6,0-12.9 c0.1-1.8,0.3-3.7,0.3-5.5c0.1-6-0.2-12.1,0.1-18.1c0.9-19.7,10.7-33.6,28.8-41.4c4.3-1.9,9.2-2.5,13.8-3.7c187.9,0,375.7,0,563.5,0 c0.9,0.2,1.8,0.5,2.7,0.6c19.1,2.3,35.1,16.8,39.2,35.5c0.4,1.7,0.8,3.3,1.2,5C809.8,382.5,809.8,396.8,809.8,411.1z M469.2,347.1 c-29.6,0.1-51.4,24.5-47.9,54c1.5,13.4,8.3,23.1,21.3,27.9c33,12.2,66.5-11.2,66.4-46.2c-0.1-14-5.3-25.3-18.8-31.4 C483.5,348.3,476.4,347.1,469.2,347.1z M327.2,432.9c0.1-0.3,0.1-0.6,0.2-0.9c27.9,0.1,48.4-20.9,48.4-49.2 c0-17.9-8.8-29.9-26.2-34.1c-37.9-9.2-64.5,20.7-61.5,52.2c1.2,12.5,7.4,22.5,19.5,27.2C313.9,430.6,320.7,431.4,327.2,432.9z M519,400c4.3,0,8.1,0,11.8,0c9.3,0.1,18.7-0.1,27.9,0.3c2.2,0.1,4.3,2.3,6.5,3.6c-0.9,1.5-1.6,3.1-2.7,4.5 c-1.6,2.1-3.3,3.2-6.4,3.1c-12.7-0.3-25.4-0.1-38.1-0.1c-2.5,0-4.4,1.1-6,3.1c-3.5,4.7-7.2,9.2-10.7,13.8c-0.5,0.7-0.9,1.4-1.5,2.2 c0.7,0.2,0.9,0.4,1.2,0.4c20.3,0,40.5,0.1,60.8-0.2c10.1-0.1,18.1-4.9,22.3-14.2c7.2-15.9,3.3-22-7.5-28.1c-0.8-0.5-1.5-1.1-2.7-1.9 c1.1-0.7,1.8-1.1,2.5-1.5c5.3-2.8,9.5-6.7,11.8-12.3c4.3-10.5,0-20.6-10.3-24.1c-2.3-0.8-4.8-1.3-7.2-1.3 c-19.7-0.1-39.5-0.1-59.2-0.2c-0.5,0-1.1,0.3-1.8,0.5c2.9,5.3,5.9,10.5,8.5,15.7c1.5,3.1,3.7,4.6,7.2,4.5c11.5-0.1,22.9-0.1,34.4,0 c1.6,0,3.3,0.2,4.8,0.7c2.5,0.9,3.4,3.2,1.9,5.4c-2.3,3.3-5.2,5.7-9.6,5.6c-10.9-0.1-21.7-0.2-32.5-0.2c-0.8,0-2.3,0.9-2.4,1.6 C520.8,387,520,393.2,519,400z M670,347.1c-1.5-0.1-2.5-0.2-3.6-0.2c-18,0.1-36.1,0.2-54,0.3c-6.6,0.1-8.1,1.3-9.1,8 c-3.4,21.8-6.7,43.6-10.1,65.4c-0.6,3.7-1.1,7.4-1.6,11.3c0.9,0.1,1.5,0.3,2.1,0.3c14.5,0,29.1,0,43.7-0.1c4.9,0,9.9,0,14.7-0.1 c4.1-0.1,5.1-0.9,5.7-4.8c0.5-2.9,0.8-5.9,1.1-8.8c0.3-2.4,0.5-4.7,0.7-7.5c-14.8,0-28.9,0-43.6,0c0.5-3.1,1.2-5.7,1.4-8.4 c0.2-2,0.9-2.6,2.9-2.6c5.7,0.1,11.5,0,17.2,0.1c1.8,0,2.5-0.6,2.8-2.4c0.5-4.5,1.3-8.9,1.9-13.3c0.3-1.7,0.5-3.3,0.7-5.4 c-5.4,0-10.4,0.1-15.4,0c-6.7-0.1-5.9,1.4-5.8-6.1c0.1-3.6,1.5-4.9,5-5.2c1.3-0.1,2.7-0.1,4-0.1c11.1,0,22.1,0.1,33.2-0.1 c1.1,0,3-0.7,3.1-1.4C668.2,359.9,669,353.7,670,347.1z M700.7,368.1c0.1,0.7,0.3,1,0.2,1.3c-3,19.8-5.9,39.6-9,59.3 c-0.4,2.4,0.1,3.3,2.7,3.2c5.2-0.2,10.5-0.1,15.7,0c2.1,0.1,2.9-0.7,3.1-2.8c2.3-17.5,4.7-35,7.1-52.4c0.9-6.3,3.1-8.5,9.5-8.9 c3.4-0.2,6.7-0.1,10.1-0.1c3.1,0,4.7-1.6,5.1-4.6c0.4-2.4,1.1-4.8,1.4-7.2c0.3-3,0.4-6,0.6-9c-16.4,0-32.3,0-48.1,0 c-3.8,0-7.6,0-11.3,0.3c-2.3,0.1-5.1,0.7-5.7,3.3c-1.3,5.6-2,11.4-3,17.6C686.7,368.1,693.7,368.1,700.7,368.1z M223.3,439.3 c4,1.3,7.5,3.3,11.1,3.6c5.3,0.5,10.6,0.3,16-1.4c10.8-3.3,18.1-9.8,20.3-20.8c3.1-16.5,5.6-33.2,8.3-49.8c1-6.1,1.8-12.3,2.7-18.9 c-5,1.7-9.5,3.3-13.9,4.8c-8,2.8-7.9,2.8-9.3,11.2c-2.7,16.4-5.3,32.8-8.1,49.2c-0.9,5.8-4.5,8.9-10.1,10.2 c-2.8,0.6-5.5,2.1-7.9,3.9C229.3,433.4,226.7,436.2,223.3,439.3z M355.8,439.1c4.2,1.5,7.8,3.4,11.5,3.8c5.7,0.6,11.5,0.2,17.1-1.7 c10.3-3.5,17.1-10.1,19.1-20.8c2.7-13.7,4.7-27.5,6.9-41.3c1.4-8.8,2.6-17.7,3.9-26.6c-0.5-0.1-0.8-0.3-1.1-0.2 c-6.3,2.2-12.5,4.3-18.7,6.7c-0.9,0.4-1.9,1.8-2.1,2.9c-0.8,3.5-1.3,7-1.9,10.5c-2.5,14.9-4.9,29.8-7.3,44.7c-1,6.1-4.1,8.9-10,10 c-1.9,0.3-4,1.1-5.6,2.3C363.7,432.3,360.1,435.5,355.8,439.1z M262,345.9c9.7-0.1,19.1-3.7,20.9-10.1c-6.2,0-12.3-0.1-18.3,0.1 c-0.5,0-1.3,1-1.4,1.6C262.7,340.1,262.4,342.9,262,345.9z M416.4,335.7c-6.7,0-12.7,0-18.7,0.1c-0.5,0-1.4,0.7-1.5,1.1 c-0.5,2.9-0.8,5.7-1.3,8.9C403.6,345.3,411.1,343.9,416.4,335.7z"></path> <path style="fill:#FFCE00;" d="M448.5,396.8c1.3-6.1,2.5-12.1,4.1-18.1c0.5-1.9,1.7-3.7,3-5.3c3.9-4.6,8.9-7.1,14.9-5.6 c6,1.5,8.3,6.3,9.9,11.7c1.9,6-1,11.2-2.4,16.6c-0.7,2.7-1.7,5.3-3,7.7c-4.5,8.5-15.9,10.5-22.3,4.1 C449.7,404.9,449,401.1,448.5,396.8z"></path> <path style="fill:#FFCE00;" d="M347.7,382.5c-1.1,5.9-1.9,11.5-3.3,16.9c-2,7.8-8.3,12.5-15.5,12.4c-4.3-0.1-7.9-1.8-10.1-5.5 c-3-5.1-5.3-10.5-2.5-16.7c2.3-5.2,3.8-10.9,6.6-15.7c5.1-9,18.3-8.7,22.9,0.4C347,376.7,347.1,379.9,347.7,382.5z"></path> <path style="fill:#FFCE00;" d="M783.7,727.8c2.3-8.2,4.6-16.3,7-24.5c14.6-50.8,29.3-101.7,44-152.5c0.9-3.1,0.5-5.1-2-7.4 c-16.6-15.2-33-30.6-49.5-46c-1.4-1.3-2.9-2.7-4.7-4.3c63.9-52.8,127.3-105.2,190.8-157.7c0.3,0.2,0.7,0.4,1,0.6 c-0.3,1.2-0.5,2.4-0.9,3.5c-15.2,45.8-30.4,91.6-45.5,137.4c-1.7,5-3.1,10.2-5.1,15.1c-1.2,3.1-0.7,5.2,1.3,7.8 c13,16.8,25.8,33.9,38.7,50.8c0.2,0.3,0.3,0.6,0.8,1.4c-58.4,58.6-116.8,117.4-175.3,176.1C784.1,728,783.9,727.9,783.7,727.8z"></path> <path style="fill:#FFCE00;" d="M197.9,491.9c-1.2,1.3-2.1,2.3-3.1,3.4c-16.2,16.4-32.4,32.9-48.7,49.2c-2.5,2.5-3.1,4.6-2.1,8.1 c16.5,57.6,32.8,115.2,49.1,172.8c0.3,1.1,0.5,2.2,0.1,3.7C135,669.3,76.8,609.4,18.4,549.5c4.2-5.2,8.2-10.2,12.2-15.2 c9.5-11.8,19-23.7,28.6-35.5c1.6-2,2.1-3.7,1.2-6.3c-17.1-49.6-34.1-99.3-51.1-148.9c-0.5-1.6-1.3-3.1-1.8-4.7 c-0.2-0.8-0.1-1.8-0.1-2.7c0.9,0.2,1.9,0.3,2.6,0.8c7.2,5.9,14.4,11.8,21.6,17.7c54.3,44.7,108.5,89.5,162.8,134.2 C195.6,489.9,196.6,490.8,197.9,491.9z"></path> <path style="fill:#FFCE00;" d="M502.2,567.9c12.3-1.4,24.2-2.8,36.6-4.3c5.5,36,11,71.8,16.5,107.9c7.6-0.6,14.9-1.1,22.6-1.6 c-0.6-35.4-1.2-70.7-1.8-106.4c12.8,1,25.4,2,38.3,3c0.4,45.4,0.7,90.5,1.1,136c-31,1.4-61.7,2.8-92.7,4.2 C516,660.3,509.1,614.3,502.2,567.9z"></path> <path style="fill:#FFCE00;" d="M311.2,660.6c17.2,4,33.9,7.9,50.9,11.8c-0.2,0.8-0.3,1.4-0.5,2c-3.6,9.5-7.3,19-10.9,28.5 c-0.6,1.7-1.3,2.5-3.3,2.1c-36.2-7.4-72.3-14.6-108.5-21.9c-0.4-0.1-0.8-0.4-1.4-0.7c24.8-25.8,49.4-51.4,74.5-77.5 c-16.8-2.7-33-5.2-49.7-7.9c4.5-12.1,9-24.1,13.6-36.2c33.4,6.4,67,12.9,101.3,19.5C355.1,607,333.4,633.5,311.2,660.6z"></path> <path style="fill:#FFCE00;" d="M486.6,559.8c0.9,8.4,1.8,16.5,2.7,24.7c0.1,0.6,0.1,1.1,0.1,1.7c0.2,2.8,1.5,6.6,0.2,8.2 c-1.4,1.7-5.3,1.6-8.1,2.1c-14.3,2.7-28.5,5.4-42.8,8.1c-0.6,0.1-1.2,0.4-2.2,0.7c7.4,10.4,14.6,20.6,21.8,30.7 c-7.9,8-15.6,15.9-23.9,24.2c20,5.1,39.4,10.1,59.1,15.2c-3,10-6,19.8-9,29.9c-37.6-10.8-74.8-21.5-112.7-32.5 c14.1-12.5,27.8-24.6,41.8-37c-10.4-15.4-20.8-30.8-31.5-46.7C417,579.4,451.7,569.7,486.6,559.8z"></path> <path style="fill:#FFCE00;" d="M757.9,665.7c-28.8,14-57.2,27.8-86,41.7c-7.4-11.5-14.7-22.9-22.2-34.6 c14.4-5.4,28.5-10.7,43.1-16.2c-22.2-20.4-44.1-40.5-66.4-60.9c27.1-12.4,53.6-24.6,80.4-36.9c7.1,11.8,14.1,23.6,21.4,35.7 c-14.5,5.2-28.8,10.3-43.6,15.7C709.2,628.8,733.3,647.1,757.9,665.7z"></path> <path style="fill:#FFCE00;" d="M474.2,531.4c-5.6,0-10.8,0-16.2,0c0.7-6.4,1.4-12.5,2.1-19.3c-7.2,5.1-13.9,9.9-20.7,14.7 c-4.5-5.3-9-10.5-13.8-16.3c-2.4,7.6-4.7,14.8-7.1,22.3c-4.7-0.6-9.4-1.2-14.6-1.8c6-14.3,11.9-28.3,18-42.9 c7.3,7.7,14.3,15,21.5,22.6c10.4-7.9,20.6-15.7,31-23.6C474.2,502.1,474.2,516.7,474.2,531.4z"></path> <path style="fill:#FFCE00;" d="M547.2,489.5c4-0.2,7.7-0.4,11.7-0.5c1.5,6.4,2.9,12.6,4.5,19.3c4.3-3.2,8.5-6.1,12.4-9.2 c0.6-0.5,0.7-2,0.6-2.9c-0.5-2.5-1.2-4.9-2-8.2c3.3,0,6.2-0.1,9.1,0.1c0.6,0,1.5,0.9,1.7,1.5c4.5,14.5,8.8,29,13.3,43.7 c-3.5,0.2-6.6,0.5-9.8,0.4c-0.9,0-2.1-1.3-2.4-2.2c-2.1-7-4-14-6-21.5c-4.9,3-9.6,5.7-14.2,8.7c-0.5,0.3-0.6,1.7-0.5,2.6 c0.4,3.3,1,6.5,1.6,10.2c-4.5-0.5-8.7-0.9-13.2-1.4C551.7,516.5,549.5,503.2,547.2,489.5z"></path> <path style="fill:#FFCE00;" d="M347.6,487.8c1.1,15.3,2.2,29.8,3.3,44.5c-18.4,0-36.5,0-55.4,0C313,517.3,330,502.8,347.6,487.8z M319.8,522c6.4,0,12,0,17.9,0c-0.3-4.8-0.6-9.4-1-14.8C330.8,512.4,325.6,516.9,319.8,522z"></path> <path style="fill:#FFCE00;" d="M387.9,487.6c-3.6,10.9-7.1,21.5-10.9,32.8c8.8,0,17.2,0,26,0c-0.9,4.5-1.6,8.2-2.4,12.4 c-14.4-0.3-28.7-0.7-43.4-1c0.4-1.3,0.6-2.2,1-3.1c5.6-13.1,11.2-26.2,16.7-39.4c0.8-2,1.8-2.7,3.9-2.4 C381.7,487.3,384.6,487.4,387.9,487.6z"></path> <path style="fill:#FFCE00;" d="M536.1,486.3c1.7,4,3.2,7.4,4.9,11.1c-6.6,3.5-13,6.9-19.9,10.5c4.1,2.5,8,4.8,12.3,7.3 c-0.4-2.5-0.6-4.3-0.9-6.4c3.7,0,7.1,0,10.8,0c1,8.1,2,15.9,3.1,24.2c-3.9,0.4-7.5,0.7-11.7,1.1c0.5-6.6-4.6-8.5-8.8-11.2 c-7.2-4.6-14.4-9.1-21.6-13.7c-0.9-0.6-1.8-1.2-2.9-2C512.9,500.2,524.3,493.4,536.1,486.3z"></path> <path style="fill:#FFCE00;" d="M631.1,493.5c2.4-2.2,4.5-4.1,6.7-6.1c6.8,4.2,13.6,8.3,20.8,12.7c1.4-4.2,2.6-8.1,4-12.3 c4.6,1.9,8.8,3.7,13.3,5.6c-1.3,4.6-2.3,9.1-3.8,13.5c-1.1,3.3-0.9,6,1,9.1c3.2,5.3,6,10.8,9.2,16.8c-4.4,0.2-8.3,0.5-12.2,0.6 c-0.6,0-1.2-0.7-1.7-1.1c-0.2-0.2-0.3-0.6-0.5-0.9c-3.7-6.7-6.3-14.3-11.3-19.8c-5-5.5-12.3-9-18.6-13.3 C635.8,496.7,633.6,495.2,631.1,493.5z"></path> <path style="fill:#FFCE00;" d="M632.5,532.9c-4.6,0-8.4,0.2-12.1-0.1c-0.9-0.1-2-1.5-2.4-2.5c-3.5-8.5-6.8-17.1-10.2-25.6 c-0.4-1-0.9-2-1.4-3.3c-1.8,1.5-3.4,2.8-5.3,4.2c-2.7-2.4-5.4-4.8-8.4-7.4c5.2-4,10-7.8,15-11.4c0.7-0.5,2.3-0.2,3.3,0.3 c5.8,2.7,11.5,5.6,17.4,8.2c2,0.9,2.9,2.1,2.8,4.3c-0.1,2.1,0,4.2,0,6.6c-3.8-1.5-7.4-3-11.8-4.7C623.8,512,627.9,521.9,632.5,532.9 z"></path> <path style="fill:#FFCE00;" d="M497.2,532c-4.7,0-9.6,0-14.7,0c0-0.7-0.1-1.3-0.1-1.9c0.5-12.9,1.1-25.9,1.6-38.8 c0.1-2.4,0.8-3.4,3.3-3.2c2.5,0.3,5.1,0.1,7.6,0.4c0.8,0.1,2.2,1.1,2.2,1.7C497.2,503.9,497.2,517.8,497.2,532z"></path> </svg> 