<?xml version="1.0" encoding="UTF-8"?> <svg xmlns="http://www.w3.org/2000/svg" xmlns:xlink="http://www.w3.org/1999/xlink" version="1.1" id="Layer_1" x="0px" y="0px" viewBox="0 0 1000 1000" style="enable-background:new 0 0 1000 1000;" xml:space="preserve"> <path id="Shape_00000040541709403781856770000002505458042668340373_" style="fill:#FFCE00;" d="M373.8,677.7 c1.8-2.5,2.8-5.6,2.7-8.7c0-4.5-1.6-8.2-4.7-11.3s-6.9-4.7-11.3-4.7h-19.9v49.7h8.2v-18.1h9.7l10.5,18.1h9l-11.3-19.3 C369.6,682.3,372.1,680.3,373.8,677.7L373.8,677.7L373.8,677.7z M360.6,677.3h-11.7v-16.6h11.7c2.1,0,4.1,0.9,5.5,2.4 c3,3.3,3,8.4,0,11.8C364.7,676.4,362.7,677.3,360.6,677.3L360.6,677.3z M418.5,681.3c-0.8-0.9-1.7-1.7-2.6-2.5c-0.8-0.7-2-1.3-3.6-2 s-2.8-1.1-3.7-1.5c-0.9-0.3-2.3-0.8-4.2-1.4c-3.8-1.2-6.4-2.3-7.8-3.4c-1.4-1-2.2-2.6-2.2-4.4c0-1.9,0.7-3.4,2.1-4.5 s3.3-1.7,5.7-1.7c4.9,0,8.4,2.3,10.4,7l6.9-4c-1.5-3.3-3.9-6.1-6.9-8s-6.5-2.9-10.4-2.9c-4.4,0-8.2,1.3-11.3,3.9 c-3.1,2.6-4.7,6.1-4.7,10.5c0,2.2,0.4,4.2,1.2,5.8c0.8,1.7,2.1,3.1,3.7,4.2c1.5,1,3,1.9,4.7,2.6c1.9,0.8,3.8,1.4,5.8,2 c4.2,1.3,7.2,2.5,8.8,3.5s2.5,2.6,2.5,4.7c0,1.9-0.8,3.6-2.3,4.7c-1.5,1.2-3.8,1.8-6.9,1.8c-6.3,0-10.4-2.8-12.4-8.4l-7,4.1 c1.2,3.7,3.7,6.8,7,9s7.4,3.3,12.2,3.3c5.3,0,9.5-1.3,12.8-3.9c3.2-2.6,4.9-6.2,4.9-10.7c0-1.5-0.2-2.9-0.6-4.3 C420,683.4,419.4,682.2,418.5,681.3L418.5,681.3z M427,660.8h14.1v41.9h8.2v-41.9h14V653H427V660.8L427,660.8z M273.3,702.7h10.1 v-24.9h25v-9.6h-25V651h25.9v-9.6h-35.9L273.3,702.7L273.3,702.7z M319.2,702.7h8.2V653h-8.2V702.7z M548.4,681.5h19.9v-7.7h-19.9 v-12.9h21.7V653h-29.8v49.7h30.2v-7.8h-22L548.4,681.5L548.4,681.5z M694.7,652.1c-7.2,0-13.3,2.5-18.3,7.5s-7.5,11.1-7.5,18.3 s2.5,13.3,7.5,18.3s11.1,7.5,18.3,7.5s13.3-2.5,18.3-7.5s7.5-11.1,7.5-18.3s-2.5-13.3-7.5-18.3S701.9,652.1,694.7,652.1L694.7,652.1 L694.7,652.1z M707.2,690.6c-3.4,3.4-7.6,5.1-12.5,5.1c-5,0-9.2-1.7-12.5-5.1s-5.1-7.6-5.1-12.8c0-5.1,1.7-9.4,5.1-12.8 c3.4-3.4,7.6-5.1,12.5-5.1c5,0,9.2,1.7,12.5,5.1c3.4,3.4,5.1,7.6,5.1,12.8S710.6,687.2,707.2,690.6L707.2,690.6z M614.6,677.7 c1.8-2.5,2.8-5.6,2.7-8.7c0-4.5-1.6-8.2-4.7-11.3c-3.1-3.1-6.9-4.7-11.3-4.7h-19.9v49.7h8.2v-18.1h9.7l10.5,18.1h9l-11.3-19.3 C610.3,682.3,612.8,680.3,614.6,677.7L614.6,677.7z M601.3,677.3h-11.7v-16.6h11.7c2.1,0,4.1,0.9,5.5,2.4c3,3.3,3,8.4,0,11.8 C605.4,676.4,603.4,677.3,601.3,677.3L601.3,677.3L601.3,677.3z M659.2,681.3c-0.8-0.9-1.7-1.7-2.6-2.5c-0.8-0.7-2-1.3-3.6-2 s-2.8-1.1-3.7-1.5c-0.9-0.3-2.3-0.8-4.2-1.4c-3.8-1.2-6.4-2.3-7.8-3.4c-1.4-1-2.2-2.6-2.2-4.4c0-1.9,0.7-3.4,2.1-4.5 c1.4-1.1,3.3-1.7,5.7-1.7c4.9,0,8.4,2.3,10.4,7l6.9-4c-1.5-3.3-3.9-6.1-6.9-8s-6.5-2.9-10.4-2.9c-4.4,0-8.2,1.3-11.3,3.9 c-3.1,2.6-4.7,6.1-4.7,10.5c0,2.2,0.4,4.2,1.2,5.8c0.8,1.7,2.1,3.1,3.7,4.2c1.5,1,3,1.9,4.7,2.6c1.9,0.8,3.8,1.4,5.8,2 c4.2,1.3,7.2,2.5,8.8,3.5c1.7,1.1,2.5,2.6,2.5,4.7c0,1.9-0.8,3.6-2.3,4.7c-1.5,1.2-3.8,1.8-6.9,1.8c-6.3,0-10.4-2.8-12.4-8.4l-7,4.1 c1.2,3.7,3.7,6.8,7,9s7.4,3.3,12.2,3.3c5.3,0,9.5-1.3,12.8-3.9c3.2-2.6,4.9-6.2,4.9-10.7c0-1.5-0.2-2.9-0.6-4.3 C660.8,683.4,660.1,682.2,659.2,681.3L659.2,681.3L659.2,681.3z M511.5,641.4h-22.6v61.3H499v-21h12.5c5.8,0,10.6-1.9,14.5-5.8 c3.9-3.9,5.8-8.7,5.8-14.3c0-5.7-1.9-10.5-5.8-14.4S517.3,641.4,511.5,641.4L511.5,641.4z M518.8,669.2c-1.9,2-4.4,3-7.4,3h-12.5 v-21.4h12.5c3,0,5.4,1,7.4,3c1.9,2,2.9,4.6,2.9,7.7C521.7,664.6,520.8,667.2,518.8,669.2L518.8,669.2L518.8,669.2z M760.8,653v33.7 L737.4,653H731v49.7h8.2V669l23.4,33.7h6.4V653H760.8L760.8,653z"></path> <path id="Path-5_00000070797526694466132510000000040002632244785069_" style="fill-rule:evenodd;clip-rule:evenodd;fill:#FFCE00;" d=" M189.4,628.3c24.4-13,55.9,0.7,58.3,33.9C202.4,665.8,197,645.4,189.4,628.3z"></path> <path id="Path-7_00000149367024305364704460000002479639474513150353_" style="fill-rule:evenodd;clip-rule:evenodd;fill:#FFCE00;" d=" M192,710.7c24.4,13,55.9-0.7,58.3-33.9C205,673.3,199.6,693.7,192,710.7z"></path> <g> <path style="fill:#FFCE00;" d="M84.3,530.5c8.3-6,12.4-14.3,12.4-24.7c0-9.3-3.3-17.2-9.8-23.5s-14.6-9.5-23.9-9.5H15v119.9h51.8 c9.7,0,18.1-3.3,24.8-9.8c6.7-6.5,10.2-14.7,10.2-24.3c0-6.4-1.7-12.2-4.9-17.1C93.6,536.8,89.5,533.1,84.3,530.5z M31.7,488.6H63 c4.7,0,8.8,1.7,12.1,5.2c3.3,3.5,5,7.6,5,12.5s-1.7,9.2-5,12.6s-7.4,5.1-12.2,5.1H31.7V488.6z M79.8,571.5 c-3.5,3.6-7.9,5.5-13.1,5.5h-35v-37.5h35c5,0,9.4,1.8,13,5.5c3.6,3.6,5.4,8.1,5.4,13.2C85.1,563.4,83.3,567.9,79.8,571.5z"></path> <polygon style="fill:#FFCE00;" points="143,472.9 126.2,472.9 126.2,592.7 194.3,592.7 194.3,576.8 143,576.8 "></polygon> <path style="fill:#FFCE00;" d="M252.4,472.9l-44.7,119.9h17.9l9.7-26.7H288l9.7,26.7h17.9l-44.7-119.9H252.4z M241,550.3l20.5-56.6 l20.7,56.6H241z"></path> <path style="fill:#FFCE00;" d="M384.5,486.9c8,0,15.5,1.9,22.1,5.8c6.6,3.8,11.7,9.1,15,15.5l0.2,0.5l14.6-8.5l-0.2-0.4 c-5.1-8.9-12.3-16-21.5-21.2s-19.3-7.9-30.2-7.9c-18.1,0-33.2,6-44.9,18c-11.8,11.9-17.7,26.8-17.7,44.2c0,17.4,6,32.2,17.7,44.2 c11.8,11.9,26.9,18,44.9,18c10.9,0,21.1-2.7,30.3-8c9.2-5.3,16.4-12.5,21.4-21.3l0.2-0.4l-14.6-8.3l-0.2,0.5 c-3.3,6.3-8.4,11.5-15,15.3s-14.1,5.8-22.1,5.8c-13.5,0-24.7-4.4-33.2-13.1c-8.5-8.7-12.8-19.7-12.8-32.6c0-13,4.3-24.1,12.8-32.8 C359.9,491.4,371,486.9,384.5,486.9z"></path> <polygon style="fill:#FFCE00;" points="544.9,472.9 524.2,472.9 475.3,525.8 475.3,472.9 458.6,472.9 458.6,592.7 475.3,592.7 475.3,536.5 525.8,592.6 525.9,592.7 546.6,592.7 492,531.1 "></polygon> <path style="fill:#FFCE00;" d="M616.2,557.4c0,6.9-2.1,12.2-6.3,15.7s-10.1,5.3-17.5,5.3c-6.1,0-11.1-1.1-15-3.3 c-3.8-2.2-6.9-5.2-8.6-9.6l-0.4-0.7l-13.9,8.1l0.2,0.4c3.1,7,8,12.4,14.6,16s14.3,5.5,23,5.5c11.6,0,21.3-3.3,28.9-9.7 c7.6-6.5,11.5-15.8,11.5-27.8v-84.5h-16.6L616.2,557.4L616.2,557.4z"></path> <path style="fill:#FFCE00;" d="M690.8,472.9l-44.7,119.9H664l9.7-26.7h52.8l9.7,26.7H754l-44.7-119.9H690.8z M679.5,550.3 l20.5-56.6l20.7,56.6H679.5z"></path> <path style="fill:#FFCE00;" d="M823,486.9c8,0,15.5,1.9,22.1,5.8c6.6,3.8,11.7,9.1,15,15.5l0.2,0.5l14.6-8.5l-0.2-0.4 c-5.1-8.9-12.3-16-21.5-21.2s-19.3-7.9-30.2-7.9c-18.1,0-33.2,6-44.9,18c-11.8,11.9-17.7,26.8-17.7,44.2c0,17.4,6,32.2,17.7,44.2 c11.8,11.9,26.9,18,44.9,18c10.9,0,21.1-2.7,30.3-8s16.4-12.5,21.4-21.3l0.2-0.4l-14.6-8.3l-0.2,0.5c-3.3,6.3-8.4,11.5-15,15.3 s-14.1,5.8-22.1,5.8c-13.5,0-24.7-4.4-33.2-13.1c-8.5-8.7-12.8-19.7-12.8-32.6c0-13,4.3-24.1,12.8-32.8 C798.3,491.4,809.5,486.9,823,486.9z"></path> <polygon style="fill:#FFCE00;" points="930.5,531.1 983.4,472.9 962.7,472.9 913.8,525.8 913.8,472.9 897,472.9 897,592.7 913.8,592.7 913.8,536.5 964.2,592.6 964.4,592.7 985.1,592.7 "></polygon> </g> <g> <path style="fill:#FFCE00;" d="M618.9,280.9c-1.6-2-3.9-3.5-6.6-4.2L523.7,252c-1-0.3-2-0.4-3.1-0.4c-0.3,0-0.6,0-0.9,0 c-2.4,0.2-4.7,1-6.6,2.5c-2,1.5-3.5,3.5-4.3,5.7l-24,66.1L459,255.8c-0.3-0.8-0.7-1.5-1.3-2.2c-0.5-0.6-1-1.1-1.7-1.4 c-1.1-0.7-2.5-1.1-3.8-1.1c-0.2,0-0.4,0-0.6,0c-0.9,0.1-1.8,0.3-2.7,0.7l-81.8,36.5c-0.7,0.3-1.3,0.7-1.9,1.3c-0.5,0.5-1,1-1.4,1.7 c-0.8,1.3-1.2,2.8-1.2,4.4c0,0.9,0.1,1.7,0.4,2.5l45.6,135.3c0.3,0.8,0.7,1.6,1.2,2.3c0.5,0.6,1,1.2,1.6,1.7c1.2,1,2.7,1.6,4.2,1.7 c0.2,0,0.3,0,0.5,0c0.7,0,1.3-0.1,2-0.3l81.1-25l50.5,21c1.4,0.6,2.8,0.9,4.3,1c0.3,0,0.7,0,1,0c2.1,0,4.2-0.5,6.1-1.6 c2.1-1.2,3.7-3,4.6-5.2l54.9-137.4c0.5-1.4,0.8-2.8,0.8-4.2C621.3,285.2,620.5,282.9,618.9,280.9z M417,354l-2.5-7.3l3.4-1.3 l-6.1-48.3l7.7-3.2l25.7,41.3l3.7-1.4l2.6,7.3l-15.3,5.7l-2.5-7.1l3.6-1.4l-3.3-5.6l-9.4,3.6l0.9,6.4l4.1-1.6l2.5,7.1L417,354z M458.8,390.4c-2.4,0.9-5.9,0.1-7.7-3.1c-0.5-0.8-0.9-0.4-0.9-0.4c-0.1,0-0.1,0.2,0,0.4c2.3,7.1,6,9.8,6.4,10.4c-1,0-3,0.4-4.2,0.7 c-1.2,0.4-3,1.2-3.8,1.8c0-0.7,1.3-5-1.1-12c-0.1-0.2-0.2-0.3-0.3-0.3c0,0-0.6,0-0.5,0.9c0.4,3.6-1.9,6.2-4.3,6.9 c-6.5,1.6-11.8-5.5-9.3-15.7c2.2-8.7,6.5-17.5,6.9-18.3c0.8,0.4,9.6,4.8,16.7,10.5c5.4,4.3,7.3,9.5,6.3,13.4l-0.5,1.5 C461.9,388.5,460.6,389.7,458.8,390.4z M527.6,392c-2.6-0.8-4.9-3.6-4.4-7.1c0.1-0.9-0.5-0.9-0.5-0.9c-0.1,0-0.2,0.1-0.3,0.3 c-2.6,6.6-1.2,10.9-1.3,11.6c-0.8-0.7-2.6-1.6-3.9-2.1c-1.2-0.5-3.2-1-4.2-1.1c0.4-0.6,4.2-2.8,6.7-9.5c0.1-0.2,0.1-0.3,0-0.4 c0,0-0.4-0.4-0.9,0.3c-1.9,2.9-5.5,3.4-7.9,2.3c-6.3-2.9-6.2-11.4,2.3-17.4c7.3-5.1,16.6-9,17.4-9.4c0.4,0.8,4.9,9.8,7,18.5 C540.3,387.7,534.4,394.2,527.6,392z M567,301.9l-3.9-1.2L550.3,334c0,0-5.2,14.6-18.5,10.2c-14.2-4.9-8.1-19-8.1-19l0.7-1.7 l7.2,2.4l-0.7,1.7c0,0-2.3,7.7,3.4,9.7c5.8,2,8.8-5.8,8.8-5.8l12.6-33l-3.7-1.1l2.1-5.6l15,4.6L567,301.9z"></path> <polygon style="fill:#FFCE00;" points="420.8,310.2 423.6,328.8 430.3,326.2 "></polygon> </g> </svg> 