<?xml version="1.0" encoding="UTF-8"?> <svg xmlns="http://www.w3.org/2000/svg" xmlns:xlink="http://www.w3.org/1999/xlink" version="1.1" id="Layer_1" x="0px" y="0px" viewBox="0 0 1000 1000" style="enable-background:new 0 0 1000 1000;" xml:space="preserve"> <path id="Shape_00000040541709403781856770000002505458042668340373_" style="fill:#FFCE00;" d="M330.4,811.9c2.6-3.7,4-8.2,4-12.8 c0-6.5-2.3-12.1-6.8-16.7c-4.6-4.6-10.1-6.8-16.7-6.8h-29.3v73.1h12v-26.6h14.2l15.5,26.6h13.2l-16.6-28.4 C324.2,818.6,327.8,815.7,330.4,811.9L330.4,811.9L330.4,811.9z M310.9,811.3h-17.2v-24.5h17.2c3.1,0,6.1,1.3,8.2,3.6 c4.5,4.9,4.5,12.4,0,17.3C317,810.1,314,811.4,310.9,811.3L310.9,811.3z M396.1,817.2c-1.2-1.3-2.5-2.5-3.8-3.7 c-1.2-1-2.9-1.9-5.3-2.9c-2.3-1-4.1-1.7-5.4-2.1c-1.3-0.5-3.3-1.1-6.1-2c-5.6-1.7-9.4-3.4-11.5-5c-2.1-1.5-3.3-3.9-3.2-6.4 c0-2.8,1-5,3.1-6.6s4.9-2.5,8.4-2.5c7.2,0,12.3,3.4,15.4,10.2l10.1-5.9c-2.2-4.8-5.7-8.9-10.1-11.8c-4.4-2.9-9.5-4.3-15.4-4.3 c-6.5,0-12,1.9-16.6,5.7s-6.9,8.9-6.9,15.4c0,3.3,0.6,6.1,1.8,8.6c1.2,2.5,3.1,4.6,5.4,6.1c2.1,1.5,4.4,2.8,6.8,3.8 c2.8,1.1,5.6,2.1,8.5,2.9c6.2,1.9,10.5,3.6,13,5.2c2.4,1.6,3.7,3.8,3.7,6.8c0.1,2.7-1.2,5.3-3.4,6.9c-2.3,1.8-5.7,2.7-10.2,2.7 c-9.2,0-15.3-4.1-18.2-12.3l-10.3,6.1c1.8,5.4,5.5,10.1,10.3,13.2c4.9,3.2,10.9,4.8,17.9,4.8c7.7,0,14-1.9,18.8-5.8 s7.2-9.1,7.2-15.7c0-2.2-0.3-4.3-0.8-6.4C398.4,820.3,397.4,818.6,396.1,817.2L396.1,817.2z M408.6,787.1h20.7v61.6h12v-61.6h20.6 v-11.5h-53.3L408.6,787.1L408.6,787.1z M182.6,848.7h14.8v-36.6h36.7V798h-36.7v-25.3h38v-14.2h-52.8V848.7L182.6,848.7z M250.1,848.7h12v-73.1h-12V848.7z M587.2,817.5h29.3v-11.4h-29.3v-19h31.9v-11.5h-43.9v73.1h44.4v-11.5h-32.4V817.5L587.2,817.5z M802.3,774.2c-10.6,0-19.6,3.7-26.9,11c-7.3,7.3-11,16.3-11,26.9c0,10.6,3.7,19.6,11,26.9c7.3,7.3,16.3,11,26.9,11 c10.6,0,19.6-3.7,26.9-11c7.3-7.3,11-16.3,11-26.9c0-10.6-3.7-19.6-11-26.9C821.9,777.9,812.9,774.2,802.3,774.2L802.3,774.2 L802.3,774.2z M820.8,830.9c-5,5-11.1,7.5-18.4,7.5c-7.3,0-13.5-2.5-18.4-7.5c-5-5-7.5-11.2-7.5-18.8s2.5-13.8,7.5-18.8 s11.1-7.5,18.4-7.5c7.3,0,13.5,2.5,18.4,7.5c5,5,7.5,11.2,7.5,18.8S825.8,825.9,820.8,830.9L820.8,830.9z M684.5,811.9 c2.6-3.7,4-8.2,4-12.8c0-6.5-2.3-12.1-6.8-16.7c-4.6-4.6-10.1-6.8-16.7-6.8h-29.3v73.1h12v-26.6H662l15.5,26.6h13.2L674,820.3 C678.3,818.6,681.9,815.7,684.5,811.9L684.5,811.9z M665,811.3h-17.2v-24.5H665c3.1,0,6.1,1.3,8.1,3.6c4.5,4.9,4.5,12.4,0,17.3 C671.1,810.1,668.1,811.4,665,811.3L665,811.3L665,811.3z M750.2,817.2c-1.2-1.3-2.5-2.5-3.8-3.7c-1.2-1-2.9-1.9-5.3-2.9 c-2.3-1-4.1-1.7-5.4-2.1c-1.3-0.5-3.3-1.1-6.1-2c-5.6-1.7-9.4-3.4-11.5-5c-2.1-1.5-3.3-3.9-3.2-6.4c0-2.8,1-5,3.1-6.6 s4.9-2.5,8.4-2.5c7.2,0,12.3,3.4,15.4,10.2l10.1-5.9c-2.2-4.8-5.7-8.9-10.1-11.8c-4.4-2.9-9.5-4.3-15.4-4.3c-6.5,0-12,1.9-16.6,5.7 s-6.9,8.9-6.9,15.4c0,3.3,0.6,6.1,1.8,8.6s3.1,4.6,5.4,6.1c2.1,1.5,4.4,2.8,6.8,3.8c2.8,1.1,5.6,2.1,8.5,2.9 c6.2,1.9,10.5,3.6,13,5.2c2.4,1.6,3.7,3.8,3.7,6.8c0.1,2.7-1.2,5.3-3.4,6.9c-2.3,1.8-5.7,2.7-10.2,2.7c-9.2,0-15.3-4.1-18.2-12.3 l-10.3,6.1c1.8,5.4,5.5,10.1,10.3,13.2c4.9,3.2,10.9,4.8,17.9,4.8c7.7,0,14-1.9,18.8-5.8c4.8-3.9,7.2-9.1,7.2-15.7 c0-2.2-0.3-4.3-0.8-6.4C752.5,820.3,751.5,818.6,750.2,817.2L750.2,817.2L750.2,817.2z M532.9,758.5h-33.3v90.2h14.8v-30.9h18.4 c8.5,0,15.6-2.9,21.3-8.6c5.7-5.7,8.6-12.7,8.6-21.1c0-8.4-2.9-15.5-8.6-21.1C548.5,761.4,541.4,758.5,532.9,758.5L532.9,758.5z M543.7,799.4c-2.8,3-6.4,4.4-10.8,4.4h-18.4v-31.4h18.4c4.4,0,8,1.5,10.8,4.4c2.8,3,4.3,6.7,4.3,11.3S546.5,796.5,543.7,799.4 L543.7,799.4L543.7,799.4z M899.6,775.6v49.6l-34.5-49.6h-9.4v73.1h12v-49.6l34.5,49.6h9.4v-73.1H899.6L899.6,775.6z"></path> <path id="Path-5_00000070797526694466132510000000040002632244785069_" style="fill-rule:evenodd;clip-rule:evenodd;fill:#FFCE00;" d=" M59.2,739.3c35.9-19.2,82.3,1,85.8,49.9C78.4,794.4,70.3,764.4,59.2,739.3z"></path> <path id="Path-7_00000149367024305364704460000002479639474513150353_" style="fill-rule:evenodd;clip-rule:evenodd;fill:#FFCE00;" d=" M63,860.5c35.9,19.2,82.3-1.1,85.8-49.9C82.2,805.4,74.2,835.4,63,860.5z"></path> <path style="fill:#FFCE00;" d="M359.7,607.4L359.7,607.4L359.7,607.4z"></path> <path style="fill:#FFCE00;" d="M920.7,219.3L920.7,219.3L920.7,219.3z"></path> <path style="fill:#FFCE00;" d="M920.7,210.8L920.7,210.8L920.7,210.8z"></path> <path style="fill:#FFCE00;" d="M920.7,219.3L920.7,219.3L920.7,219.3z"></path> <path style="fill:#FFCE00;" d="M920.7,210.8L920.7,210.8L920.7,210.8z"></path> <path style="fill:#FFCE00;" d="M268,643.4L268,643.4L268,643.4z"></path> <path style="fill:#FFCE00;" d="M268,610.1L268,610.1L268,610.1z"></path> <path style="fill:#FFCE00;" d="M602.7,289.4c-1.9,0-3.7-1.4-4-3.4l-5-28.1l36.5-6.4l5.7,32.1l-32.5,5.7 C603.1,289.4,602.9,289.4,602.7,289.4z M594.7,258.6l4.8,27.3c0.3,1.8,2,3,3.8,2.6l31.7-5.6l-5.4-30.5L594.7,258.6z"></path> <path style="fill:#FFCE00;" d="M719.9,138.6l-5.7-32.1l32.5-5.7c2.2-0.4,4.3,1.1,4.7,3.3l5,28.1L719.9,138.6z M715.2,107.1l5.4,30.5 l34.9-6.2l-4.8-27.3c-0.3-1.8-2-2.9-3.8-2.6L715.2,107.1z"></path> <path style="fill:#FFCE00;" d="M577.1,163.7l-5-28.1c-0.2-1.1,0-2.2,0.7-3c0.6-0.9,1.6-1.5,2.6-1.7l32.5-5.7l5.7,32.1L577.1,163.7z M607.3,126.1l-31.7,5.6c-0.9,0.2-1.6,0.6-2.1,1.3s-0.7,1.6-0.5,2.4l4.8,27.3l34.9-6.2L607.3,126.1z"></path> <path style="fill:#FFCE00;" d="M588.2,226.9l-5.7-32.1l36.5-6.4l5.7,32.1L588.2,226.9z M583.5,195.4l5.4,30.5l34.9-6.2l-5.4-30.5 L583.5,195.4z"></path> <path style="fill:#FFCE00;" d="M623.9,220.6l-5.7-32.1l36.5-6.4l5.7,32.1L623.9,220.6z M619.2,189.1l5.4,30.5l34.9-6.2l-5.4-30.5 L619.2,189.1z"></path> <path style="fill:#FFCE00;" d="M612.8,157.4l-5.7-32.1l36.5-6.4l5.7,32.1L612.8,157.4z M608.1,126l5.4,30.5l34.9-6.2l-5.4-30.5 L608.1,126z"></path> <path style="fill:#FFCE00;" d="M635.1,283.7l-5.7-32.1l36.5-6.4l5.7,32.1L635.1,283.7z M630.4,252.3l5.4,30.5l34.9-6.2l-5.4-30.5 L630.4,252.3z"></path> <path style="fill:#FFCE00;" d="M618.4,189l-5.7-32.1l36.5-6.4l5.7,32.1L618.4,189z M613.7,157.6l5.4,30.5l34.9-6.2l-5.4-30.5 L613.7,157.6z"></path> <path style="fill:#FFCE00;" d="M629.5,252.2l-5.7-32.1l36.5-6.4l5.7,32.1L629.5,252.2z M624.8,220.7l5.4,30.5l34.9-6.2l-5.4-30.5 L624.8,220.7z"></path> <path style="fill:#FFCE00;" d="M695.3,208l-5.7-32.1l36.5-6.4l5.7,32.1L695.3,208z M690.6,176.5L696,207l34.9-6.2l-5.4-30.5 L690.6,176.5z"></path> <path style="fill:#FFCE00;" d="M684.2,144.9l-5.7-32.1l36.5-6.4l5.7,32.1L684.2,144.9z M679.5,113.4l5.4,30.5l34.9-6.2l-5.4-30.5 L679.5,113.4z"></path> <path style="fill:#FFCE00;" d="M706.5,271.2l-5.7-32.1l36.5-6.4l5.7,32.1L706.5,271.2z M701.8,239.7l5.4,30.5L742,264l-5.4-30.5 L701.8,239.7z"></path> <path style="fill:#FFCE00;" d="M689.8,176.4l-5.7-32.1l36.5-6.4l5.7,32.1L689.8,176.4z M685.1,145l5.4,30.5l34.9-6.2l-5.4-30.5 L685.1,145z"></path> <path style="fill:#FFCE00;" d="M700.9,239.6l-5.7-32.1l36.5-6.4l5.7,32.1L700.9,239.6z M696.2,208.1l5.4,30.5l34.9-6.2l-5.4-30.5 L696.2,208.1z"></path> <path style="fill:#FFCE00;" d="M670.8,277.4l-5.7-32.1l36.5-6.4l5.7,32.1L670.8,277.4z M666.1,246l5.4,30.5l34.9-6.2l-5.4-30.5 L666.1,246z"></path> <path style="fill:#FFCE00;" d="M659.6,214.3l-5.7-32.1l36.5-6.4l5.7,32.1L659.6,214.3z M654.9,182.8l5.4,30.5l34.9-6.2l-5.4-30.5 L654.9,182.8z"></path> <path style="fill:#FFCE00;" d="M742.2,264.9l-5.7-32.1l36.5-6.4l5,28.1c0.2,1.1,0,2.2-0.7,3c-0.6,0.9-1.6,1.5-2.6,1.7L742.2,264.9z M737.5,233.4l5.4,30.5l31.7-5.6c0.9-0.2,1.6-0.6,2.1-1.3s0.7-1.6,0.5-2.4l-4.8-27.3L737.5,233.4z"></path> <path style="fill:#FFCE00;" d="M731,201.7l-5.7-32.1l36.5-6.4l5.7,32.1L731,201.7z M726.3,170.2l5.4,30.5l34.9-6.2l-5.4-30.5 L726.3,170.2z"></path> <path style="fill:#FFCE00;" d="M725.5,170.1l-5.7-32.1l36.5-6.4l5.7,32.1L725.5,170.1z M720.8,138.7l5.4,30.5L761,163l-5.4-30.5 L720.8,138.7z"></path> <path style="fill:#FFCE00;" d="M654.1,182.7l-5.7-32.1l36.5-6.4l5.7,32.1L654.1,182.7z M649.4,151.3l5.4,30.5l34.9-6.2l-5.4-30.5 L649.4,151.3z"></path> <path style="fill:#FFCE00;" d="M582.7,195.3l-5.7-32.1l36.5-6.4l5.7,32.1L582.7,195.3z M578,163.9l5.4,30.5l34.9-6.2l-5.4-30.5 L578,163.9z"></path> <path style="fill:#FFCE00;" d="M593.8,258.5l-5.7-32.1l36.5-6.4l5.7,32.1L593.8,258.5z M589.1,227l5.4,30.5l34.9-6.2l-5.4-30.5 L589.1,227z"></path> <path style="fill:#FFCE00;" d="M665.2,245.9l-5.7-32.1l36.5-6.4l5.7,32.1L665.2,245.9z M660.5,214.4l5.4,30.5l34.9-6.2l-5.4-30.5 L660.5,214.4z"></path> <path style="fill:#FFCE00;" d="M736.6,233.3l-5.7-32.1l36.5-6.4l5.7,32.1L736.6,233.3z M731.9,201.8l5.4,30.5l34.9-6.2l-5.4-30.5 L731.9,201.8z"></path> <path style="fill:#FFCE00;" d="M648.5,151.1l-5.7-32.1l36.5-6.4l5.7,32.1L648.5,151.1z M643.8,119.7l5.4,30.5l34.9-6.2l-5.4-30.5 L643.8,119.7z"></path> <g> <g> <g> <path id="SVGID_159_" style="fill-rule:evenodd;clip-rule:evenodd;fill:#FFCE00;" d="M680.8,193.7c-8.9,2.3-10.7-1.6-12.8-4.7 C672.4,185.5,679.2,187.1,680.8,193.7z M670.5,203.1c0.9-3.7,1.3-7.9,10.4-8.8C681.6,201,675.8,204.8,670.5,203.1z"></path> </g> <g> <defs> <path id="SVGID_1_" d="M680.8,193.7c-8.9,2.3-10.7-1.6-12.8-4.7C672.4,185.5,679.2,187.1,680.8,193.7z M670.5,203.1 c0.9-3.7,1.3-7.9,10.4-8.8C681.6,201,675.8,204.8,670.5,203.1z"></path> </defs> <use xlink:href="#SVGID_1_" style="overflow:visible;fill:#FFCE00;"></use> <clipPath id="SVGID_00000114768178732511486770000010285879304334245821_"> <use xlink:href="#SVGID_1_" style="overflow:visible;"></use> </clipPath> <g style="clip-path:url(#SVGID_00000114768178732511486770000010285879304334245821_);"> <g> <rect id="SVGID_161_" x="603.1" y="131.4" transform="matrix(0.9848 -0.1736 0.1736 0.9848 -25.2402 120.4936)" style="fill:#FFCE00;" width="146.2" height="146.2"></rect> </g> <g> <defs> <rect id="SVGID_00000126311968971440325150000000221716329093660334_" x="604.7" y="131.1" transform="matrix(0.9397 -0.3419 0.3419 0.9397 -28.9755 244.0749)" width="146.2" height="146.2"></rect> </defs> <use xlink:href="#SVGID_00000126311968971440325150000000221716329093660334_" style="overflow:visible;fill:#FFCE00;"></use> <clipPath id="SVGID_00000137097128944986578540000015576168870337487782_"> <use xlink:href="#SVGID_00000126311968971440325150000000221716329093660334_" style="overflow:visible;"></use> </clipPath> <rect x="665.3" y="183" transform="matrix(0.9848 -0.1736 0.1736 0.9848 -23.6084 120.149)" style="opacity:0.4;clip-path:url(#SVGID_00000137097128944986578540000015576168870337487782_);fill:#FFCE00;enable-background:new ;" width="19.5" height="24"></rect> </g> </g> </g> </g> </g> <path style="fill:#FFCE00;" d="M746,327.8L720.4,313c-0.8-0.5-1.4-1.3-1.7-2.2s-0.1-1.9,0.4-2.8l12.8-22.1l28.8,16.6L746,327.8z M732.1,286.9l-12.4,21.5c-0.4,0.7-0.5,1.5-0.3,2.2s0.7,1.4,1.4,1.8l25,14.4l13.9-24L732.1,286.9z"></path> <path style="fill:#FFCE00;" d="M915.9,293.2l-28.8-16.6l14.6-25.3l25.6,14.8c0.8,0.5,1.4,1.3,1.7,2.2s0.1,1.9-0.4,2.8L915.9,293.2z M888.1,276.4l27.5,15.9l12.4-21.5c0.4-0.7,0.5-1.5,0.3-2.2c-0.2-0.8-0.7-1.4-1.4-1.8l-25-14.4L888.1,276.4z"></path> <path style="fill:#FFCE00;" d="M803.4,228.3l-28.8-16.6l12.8-22.1c1-1.7,3.2-2.3,5-1.3L818,203L803.4,228.3z M775.6,211.4l27.5,15.9 l13.9-24l-25-14.4c-1.4-0.8-3.2-0.3-4,1.1L775.6,211.4z"></path> <path style="fill:#FFCE00;" d="M774.7,278l-28.8-16.6l14.6-25.3l28.8,16.6L774.7,278z M746.9,261.2l27.5,15.9l13.9-24l-27.5-15.9 L746.9,261.2z"></path> <path style="fill:#FFCE00;" d="M802.8,294.3L774,277.7l14.6-25.3l28.8,16.6L802.8,294.3z M775,277.4l27.5,15.9l13.9-24l-27.5-15.9 L775,277.4z"></path> <path style="fill:#FFCE00;" d="M831.5,244.5l-28.8-16.6l14.6-25.3l28.8,16.6L831.5,244.5z M803.8,227.7l27.5,15.9l13.9-24 l-27.5-15.9L803.8,227.7z"></path> <path style="fill:#FFCE00;" d="M774.1,344l-28.8-16.6l14.6-25.3l28.8,16.6L774.1,344z M746.3,327.1l27.5,15.9l13.9-24l-27.5-15.9 L746.3,327.1z"></path> <path style="fill:#FFCE00;" d="M817.2,269.4l-28.8-16.6l14.6-25.3l28.8,16.6L817.2,269.4z M789.4,252.5l27.5,15.9l13.9-24 l-27.5-15.9L789.4,252.5z"></path> <path style="fill:#FFCE00;" d="M788.4,319.1l-28.8-16.6l14.6-25.3l28.8,16.6L788.4,319.1z M760.7,302.3l27.5,15.9l13.9-24 l-27.5-15.9L760.7,302.3z"></path> <path style="fill:#FFCE00;" d="M859,326.7l-28.8-16.6l14.6-25.3l28.8,16.6L859,326.7z M831.3,309.9l27.5,15.9l13.9-24l-27.5-15.9 L831.3,309.9z"></path> <path style="fill:#FFCE00;" d="M887.8,277L859,260.4l14.6-25.3l28.8,16.6L887.8,277z M860,260.1l27.5,15.9l13.9-24l-27.5-15.9 L860,260.1z"></path> <path style="fill:#FFCE00;" d="M830.3,376.5l-28.8-16.6l14.6-25.3l28.8,16.6L830.3,376.5z M802.6,359.6l27.5,15.9l13.9-24 l-27.5-15.9L802.6,359.6z"></path> <path style="fill:#FFCE00;" d="M873.4,301.9l-28.8-16.6l14.6-25.3l28.8,16.6L873.4,301.9z M845.6,285l27.5,15.9l13.9-24L859.5,261 L845.6,285z"></path> <path style="fill:#FFCE00;" d="M844.7,351.6L815.9,335l14.6-25.3l28.8,16.6L844.7,351.6z M816.9,334.7l27.5,15.9l13.9-24l-27.5-15.9 L816.9,334.7z"></path> <path style="fill:#FFCE00;" d="M802.2,360.2l-28.8-16.6l14.6-25.3l28.8,16.6L802.2,360.2z M774.5,343.4l27.5,15.9l13.9-24 l-27.5-15.9L774.5,343.4z"></path> <path style="fill:#FFCE00;" d="M830.9,310.5l-28.8-16.6l14.6-25.3l28.8,16.6L830.9,310.5z M803.2,293.6l27.5,15.9l13.9-24L817,269.6 L803.2,293.6z"></path> <path style="fill:#FFCE00;" d="M857.1,391.4c-0.6,0-1.2-0.2-1.8-0.5l-25.6-14.8l14.6-25.3l28.8,16.6l-12.8,22.1 C859.6,390.7,858.4,391.4,857.1,391.4z M830.7,375.8l25,14.4c1.4,0.8,3.2,0.3,4-1.1l12.4-21.5l-27.5-15.9L830.7,375.8z"></path> <path style="fill:#FFCE00;" d="M887.2,343l-28.8-16.6l14.6-25.3l28.8,16.6L887.2,343z M859.4,326.1l27.5,15.9l13.9-24l-27.5-15.9 L859.4,326.1z"></path> <path style="fill:#FFCE00;" d="M901.5,318.1l-28.8-16.6l14.6-25.3l28.8,16.6L901.5,318.1z M873.8,301.2l27.5,15.9l13.9-24 l-27.5-15.9L873.8,301.2z"></path> <path style="fill:#FFCE00;" d="M845.3,285.6L816.5,269l14.6-25.3l28.8,16.6L845.3,285.6z M817.5,268.8l27.5,15.9l13.9-24l-27.5-15.9 L817.5,268.8z"></path> <path style="fill:#FFCE00;" d="M789,253.2l-28.8-16.6l14.6-25.3l28.8,16.6L789,253.2z M761.3,236.3l27.5,15.9l13.9-24l-27.5-15.9 L761.3,236.3z"></path> <path style="fill:#FFCE00;" d="M760.3,302.9l-28.8-16.6l14.6-25.3l28.8,16.6L760.3,302.9z M732.6,286l27.5,15.9l13.9-24L746.4,262 L732.6,286z"></path> <path style="fill:#FFCE00;" d="M816.6,335.4l-28.8-16.6l14.6-25.3l28.8,16.6L816.6,335.4z M788.8,318.5l27.5,15.9l13.9-24 l-27.5-15.9L788.8,318.5z"></path> <path style="fill:#FFCE00;" d="M872.8,367.8L844,351.2l14.6-25.3l28.8,16.6L872.8,367.8z M845.1,351l27.5,15.9l13.9-24L859,327 L845.1,351z"></path> <path style="fill:#FFCE00;" d="M859.6,260.8l-28.8-16.6l14.6-25.3l28.8,16.6L859.6,260.8z M831.9,243.9l27.5,15.9l13.9-24 l-27.5-15.9L831.9,243.9z"></path> <g> <g> <g> <path id="SVGID_192_" style="fill-rule:evenodd;clip-rule:evenodd;fill:#FFCE00;" d="M828.6,291.9c-7.4-3.5-6.4-7.2-6.1-10.6 C827.5,281.5,831.2,286.5,828.6,291.9z M816.1,292.5c2.7-2,5.4-4.7,12.2,0C824.9,297.4,818.7,296.7,816.1,292.5z"></path> </g> <g> <defs> <path id="SVGID_00000116210929446865156460000016095507170142039698_" d="M828.6,291.9c-7.4-3.5-6.4-7.2-6.1-10.6 C827.5,281.5,831.2,286.5,828.6,291.9z M816.1,292.5c2.7-2,5.4-4.7,12.2,0C824.9,297.4,818.7,296.7,816.1,292.5z"></path> </defs> <use xlink:href="#SVGID_00000116210929446865156460000016095507170142039698_" style="overflow:visible;fill:#FFCE00;"></use> <clipPath id="SVGID_00000044135999198473526680000009996105162362279305_"> <use xlink:href="#SVGID_00000116210929446865156460000016095507170142039698_" style="overflow:visible;"></use> </clipPath> <g style="clip-path:url(#SVGID_00000044135999198473526680000009996105162362279305_);"> <g> <rect id="SVGID_194_" x="753.7" y="231.2" transform="matrix(0.5 -0.866 0.866 0.5 152.6167 857.7692)" style="fill:#FFCE00;" width="131" height="131"></rect> </g> <g> <defs> <rect id="SVGID_00000087372267071292746490000013470719108003315110_" x="762.2" y="231.7" transform="matrix(0.866 -0.5 0.5 0.866 -37.7131 453.6464)" width="131" height="131"></rect> </defs> <use xlink:href="#SVGID_00000087372267071292746490000013470719108003315110_" style="overflow:visible;fill:#FFCE00;"></use> <clipPath id="SVGID_00000035507511011807103510000003384648786250151821_"> <use xlink:href="#SVGID_00000087372267071292746490000013470719108003315110_" style="overflow:visible;"></use> </clipPath> <rect x="813" y="280.8" transform="matrix(0.5 -0.866 0.866 0.5 161.1414 858.1904)" style="opacity:0.4;clip-path:url(#SVGID_00000035507511011807103510000003384648786250151821_);fill:#FFCE00;enable-background:new ;" width="21.5" height="17.4"></rect> </g> </g> </g> </g> </g> <g> <path style="fill:#FFCE00;" d="M333.7,414.5c1.1,2.9,2.4,5.6,4,8.2c0.8,1.3,1.6,2.5,2.5,3.8c4.5,6,10.5,11,17.3,14.3 c6.2,3,13.1,4.6,20.4,4.6l0,0l0,0l0,0c4.8,0,9.4-0.7,13.7-2c4.3-1.3,8.4-3.3,12.1-5.7c3.6,3,7.8,5.3,12.4,6.6 c2.8,0.8,5.7,1.2,8.7,1.2v-47.1l0,0v-15.2V363v-26.7h-41.9V363h13v34.4c0,4.8-2.2,9.2-5.7,12c-0.8,0.6-1.6,1.2-2.5,1.7 c-0.4,0.2-0.9,0.5-1.4,0.7c-1.9,0.8-3.9,1.2-6.1,1.2h-5.1c-1.1,0-2.1-0.1-3.1-0.3c-2-0.4-3.9-1.2-5.6-2.3c-1.2-0.8-2.4-1.9-3.3-3 c-0.6-0.8-1.2-1.6-1.7-2.5c-1.2-2.2-1.9-4.7-1.9-7.4v-98.9c0-2.7,0.7-5.2,1.9-7.4c0.5-0.9,1-1.7,1.7-2.5c1-1.2,2.1-2.2,3.3-3 c1.7-1.1,3.5-1.9,5.6-2.3c1-0.2,2.1-0.3,3.1-0.3h5.1c2.2,0,4.2,0.4,6.1,1.2c0.5,0.2,0.9,0.4,1.4,0.7c0.9,0.5,1.7,1,2.5,1.7 c3.5,2.9,5.7,7.2,5.7,12v11h29v-11.9l0,0c0-5.7-1-11.1-2.9-16.2c-1.1-2.9-2.4-5.6-4-8.2c-0.8-1.3-1.6-2.5-2.5-3.8 c-2.7-3.6-5.9-6.8-9.6-9.6c-1.2-0.9-2.5-1.8-3.8-2.5c-2.6-1.6-5.3-2.9-8.2-4c-5-1.8-10.5-2.9-16.2-2.9l0,0l0,0l0,0 c-7.3,0-14.2,1.7-20.4,4.6c-6.9,3.3-12.8,8.2-17.3,14.3c-0.9,1.2-1.8,2.5-2.5,3.8c-1.6,2.6-2.9,5.3-4,8.2c-1.8,5-2.9,10.5-2.9,16.2 l0,0v100.7l0,0C330.8,404,331.8,409.5,333.7,414.5z"></path> <polygon style="fill:#FFCE00;" points="100.6,445.6 100.6,349.7 121,412.1 139.9,412.1 160.6,349.5 160.6,445.6 195,445.6 195,250.4 162.4,250.4 130.6,342.8 98.5,250.4 66.2,250.4 66.2,250.4 66.2,445.6 66.2,445.6 "></polygon> <polygon style="fill:#FFCE00;" points="308,411.2 254.8,411.2 254.8,361.9 301.2,361.9 301.2,361.9 301.2,336 301.2,336 301.2,336 254.8,336 254.8,283.2 308,283.2 308,250.4 220.4,250.4 220.4,445.6 308,445.6 "></polygon> <path style="fill:#FFCE00;" d="M161.2,493.8L161.2,493.8L161.2,493.8c-5-5.4-11.4-9.7-19-12.9c-7.6-3.1-16.8-4.7-27.3-4.7H66.2 h-1.7v1.7v206.8v1.7h1.7h45.6c21.6,0,37.7-5.4,47.9-16.1c10.5-11,15.2-24.1,15.2-42.5v-11.5c0-11.7-1.9-21.2-5.7-28.3 c-2.6-4.8-6.1-8.8-10.6-12.1c4.2-3.2,7.6-6.8,10.1-10.8c2.1-3.3,3.7-7.3,4.7-11.6c1-4.2,1.5-9.3,1.5-15.2v-7.5 c0-7.1-1-11.8-3.1-18.5C169.7,505.3,166.1,499.1,161.2,493.8z M158,493c-1.3-1.2-2.6-2.4-4.1-3.5c-2.7-2-5.6-3.8-8.8-5.4 c3.2,1.6,6.1,3.4,8.8,5.4C155.3,490.6,156.7,491.8,158,493z M114.6,557.6h-8.4v-43.3h7.2c8.5,0,14.2,1.7,17,5 c3,3.5,4.6,6.9,4.6,14.9c0,8.2-1.4,14.4-4.3,18.3C128.3,555.9,122.9,557.6,114.6,557.6z M125.6,557.9c1.5-0.5,2.7-1.1,3.8-1.8 C128.4,556.8,127.1,557.4,125.6,557.9c-2.9,1-6.6,1.4-11.1,1.4l0,0C119,559.3,122.7,558.8,125.6,557.9z M127.1,594.2 c-0.2-0.1-0.4-0.2-0.6-0.3c-0.1,0-0.3-0.1-0.4-0.1c0.1,0,0.3,0.1,0.4,0.1C126.7,594,126.9,594.1,127.1,594.2z M106.2,594.1h8.1 c4.9,0,8.8,0.5,11.6,1.5c2.4,0.9,4.2,2.2,5.5,3.9c1.4,2,2.3,4.6,2.8,7.6c0.6,3.5,0.8,7.8,0.8,12.7c0,4.8-0.2,9.2-0.6,13.3 c-0.2,2.6-0.8,3.4-1.8,5c-0.3,0.4-0.5,0.8-0.8,1.3c-1.3,2.2-3.1,3.8-5.7,5.1c-2.7,1.3-6.8,2-12.1,2h-7.8 C106.2,646.5,106.2,594.1,106.2,594.1z M129.5,595.4c1.3,0.8,2.4,1.8,3.3,3C131.9,597.3,130.8,596.3,129.5,595.4z M133.8,600.2 c0.6,1.3,1.1,2.7,1.5,4.2C135,602.9,134.5,601.5,133.8,600.2z M135.6,545.5c-0.6,2.4-1.4,4.5-2.4,6.3c-0.3,0.6-0.7,1.2-1.1,1.7l0,0 c-0.3,0.5-0.7,0.9-1.2,1.3c0.4-0.4,0.8-0.9,1.2-1.3l0,0c0.4-0.5,0.7-1.1,1.1-1.7C134.2,550.1,135,547.9,135.6,545.5 s0.9-5.2,1.1-8.2C136.5,540.4,136.1,543.1,135.6,545.5z M104.5,559.3L104.5,559.3v-46.7l0,0V559.3z M104.5,592.3v55.9l0,0V592.3 L104.5,592.3z M66.2,477.9h48.6c5.2,0,10,0.4,14.4,1.2c2.2,0.4,4.4,0.9,6.4,1.4c-2-0.6-4.2-1.1-6.4-1.4c-4.5-0.8-9.3-1.2-14.4-1.2 H66.2L66.2,477.9z M173.2,616.3v11.5c0,8.2-0.9,15.2-2.8,21.3c-0.8,2.6-1.8,5.1-2.9,7.4c-0.8,1.6-1.6,3-2.5,4.5 c0.9-1.4,1.8-2.9,2.5-4.5c1.1-2.3,2.1-4.8,2.9-7.4c1.9-6.1,2.8-13.1,2.8-21.3V616.3c0-7.1-0.7-13.4-2.2-18.8 C172.4,602.9,173.2,609.2,173.2,616.3z M160.9,580.1c-1.6-1.5-3.4-2.9-5.4-4.2l0,0C157.5,577.2,159.3,578.6,160.9,580.1z M171.7,553.1c-0.2,1-0.5,2.1-0.8,3.1C171.2,555.1,171.5,554.1,171.7,553.1s0.5-2.1,0.6-3.2C172.2,551,171.9,552.1,171.7,553.1z M173.2,538.2c0,3.6-0.2,6.9-0.6,9.9C173,545.2,173.2,541.8,173.2,538.2v-7.5c0-5.2-0.6-9.1-1.7-13.4c1.1,4.3,1.7,8.2,1.7,13.4 V538.2z"></path> <path style="fill:#FFCE00;" d="M490.8,646.5V477.9v-1.7h-1.7h-38.2h-1.7v1.7v206.8v1.7h1.7H550h1.7v-1.7v-36.4v-1.7H550 L490.8,646.5L490.8,646.5z M450.9,477.9h38.2l0,0H450.9L450.9,477.9z M550,684.7L550,684.7v-36.4l0,0V684.7z"></path> <path style="fill:#FFCE00;" d="M261.7,477.5l-0.3-1.3H260h-31.6H227l-0.3,1.3l-49.6,206.8l-0.5,2.1h2.2h38.5h1.4l0.3-1.4l8.8-42.5 h32.9l8.8,42.5l0.3,1.4h1.4h38.5h2.2l-0.5-2.1L261.7,477.5z M244.1,546.7l-5.4,30.8L244.1,546.7l5.4,30.8L244.1,546.7z M252.8,606.7h-17.5l8.8-49.9L252.8,606.7z M233.3,608.4h21.6l0,0H233.3L233.3,608.4z M309.6,684.7L260,477.9h-31.6l-49.6,206.8 l0,0l49.6-206.8H260L309.6,684.7L309.6,684.7z"></path> <path style="fill:#FFCE00;" d="M370.8,646.5V477.9v-1.7h-1.7h-38.2h-1.7v1.7v206.8v1.7h1.7H430h1.7v-1.7v-36.4v-1.7H430 L370.8,646.5L370.8,646.5z M330.8,477.9H369l0,0H330.8L330.8,477.9z"></path> <path style="fill:#FFCE00;" d="M686.9,448.5c-1.3-1.3-2.9-2.1-4.7-2.3c-0.1,0-0.1,0-0.2,0l-0.5-0.1c-0.4-0.1-0.9-0.2-1.3-0.2 c-0.1,0-0.2,0-0.4,0c-0.3,0-0.6,0-0.9,0c-0.1,0-0.3,0-0.4,0c-0.3,0-0.6,0.1-0.9,0.2c-0.1,0-0.2,0-0.3,0.1c-0.4,0.1-0.8,0.3-1.2,0.5 c-0.1,0-0.2,0.1-0.3,0.2c-0.3,0.2-0.6,0.3-0.9,0.5c-0.1,0.1-0.3,0.2-0.4,0.3c-0.3,0.2-0.5,0.4-0.8,0.6c-0.1,0.1-0.3,0.2-0.4,0.4 c-0.3,0.3-0.5,0.5-0.8,0.8c-0.1,0.1-0.2,0.3-0.3,0.4c-0.4,0.4-0.7,0.9-1,1.4c-3,4.4-5.4,11.8-7.2,22.3l-5.7,32.1 c-0.5,2.6-0.8,5.1-1.1,7.4s-0.4,4.4-0.5,6.4c-0.1,3.9,0.1,7.2,0.8,9.8c1.3,5.2,4,8,8.1,8.3l0.5,0.1c0.4,0.1,0.9,0.2,1.3,0.2 c0.1,0,0.3,0,0.4,0c0.3,0,0.6,0,0.9,0c0.1,0,0.3,0,0.4,0c0.3,0,0.6-0.1,0.9-0.2c0.1,0,0.2,0,0.4-0.1c0.4-0.1,0.8-0.3,1.2-0.5 c0.1,0,0.1-0.1,0.2-0.1c0.3-0.2,0.7-0.4,1-0.6c0.1-0.1,0.3-0.2,0.4-0.3c0.3-0.2,0.5-0.4,0.8-0.6c0.1-0.1,0.3-0.2,0.4-0.4 c0.3-0.3,0.5-0.5,0.8-0.8c0.1-0.1,0.2-0.3,0.3-0.4c0.4-0.4,0.7-0.9,1-1.4c3-4.4,5.4-11.9,7.3-22.5l5.7-32.1 c0.2-1.3,0.4-2.6,0.6-3.8c0.7-4.9,1-9.1,1-12.7c-0.1-2.7-0.3-5-0.8-6.9C689.2,451.9,688.2,449.9,686.9,448.5z"></path> <path style="fill:#FFCE00;" d="M775.8,469.7c-0.7-2.6-1.7-4.6-3-6s-3-2.2-5-2.4l-0.5-0.1c-0.4-0.1-0.9-0.2-1.3-0.2 c-0.1,0-0.2,0-0.4,0c-0.3,0-0.6,0-0.9,0c-0.1,0-0.3,0-0.4,0c-0.3,0-0.6,0.1-0.9,0.2c-0.1,0-0.2,0-0.3,0.1c-0.4,0.1-0.8,0.3-1.2,0.5 c-0.1,0-0.2,0.1-0.3,0.2c-0.3,0.2-0.6,0.3-0.9,0.5c-0.1,0.1-0.3,0.2-0.4,0.3c-0.3,0.2-0.5,0.4-0.8,0.6c-0.1,0.1-0.3,0.2-0.4,0.4 c-0.3,0.3-0.5,0.5-0.8,0.8c-0.1,0.1-0.2,0.3-0.3,0.4c-0.4,0.4-0.7,0.9-1,1.4c-3,4.4-5.4,11.8-7.2,22.3l-5.7,32.1 c-1.9,10.5-2.1,18.4-0.8,23.6c0.2,0.7,0.4,1.3,0.6,1.8c1.5,4,4,6.2,7.5,6.5l0.5,0.1c0.4,0.1,0.9,0.2,1.3,0.2c0.1,0,0.3,0,0.4,0 c0.3,0,0.6,0,0.9,0c0.1,0,0.3,0,0.4,0c0.3,0,0.6-0.1,0.9-0.2c0.1,0,0.2,0,0.4-0.1c0.4-0.1,0.8-0.3,1.2-0.5c0.1,0,0.1-0.1,0.2-0.1 c0.3-0.2,0.7-0.4,1-0.6c0.1-0.1,0.3-0.2,0.4-0.3c0.3-0.2,0.5-0.4,0.8-0.6c0.1-0.1,0.3-0.2,0.4-0.4c0.3-0.3,0.5-0.5,0.8-0.8 c0.1-0.1,0.2-0.3,0.3-0.4c0.4-0.4,0.7-0.9,1-1.4c3-4.4,5.4-11.9,7.3-22.5l5.7-32.1c1.1-6.5,1.7-12,1.6-16.5 C776.6,473.9,776.3,471.6,775.8,469.7z"></path> <path style="fill:#FFCE00;" d="M724.6,295.7c-71.2,0-134.1,35.4-172.1,89.5l-30.1-134.9H494l0,0l-43.6,195.2H485l7.9-40.3h30.5 l5,25.3c-9,23.4-13.9,48.8-13.9,75.4c0,116.1,94.1,210.2,210.2,210.2S934.8,622,934.8,505.9C934.8,389.9,840.7,295.7,724.6,295.7z M508,319.8l8.9,52.7h-17.8L508,319.8z M587.1,543.2l18.2-103l-24.1-3.7l3.2-18.2l50.8-0.1l-22.8,129.5L587.1,543.2z M714,484.6 l-4.9,27.8c-3,17.2-8.8,29.7-17.2,37.4c-0.7,0.7-1.5,1.3-2.3,1.9c-0.2,0.1-0.3,0.3-0.5,0.4c-0.8,0.6-1.5,1.1-2.3,1.6 c-0.1,0.1-0.2,0.1-0.4,0.2c-0.7,0.4-1.4,0.9-2.2,1.2c-0.2,0.1-0.3,0.2-0.5,0.2c-0.8,0.4-1.6,0.8-2.4,1.1c-0.2,0.1-0.4,0.1-0.5,0.2 c-0.8,0.3-1.6,0.6-2.4,0.8c-0.1,0-0.2,0.1-0.2,0.1c-0.9,0.2-1.7,0.5-2.6,0.6c-0.2,0-0.4,0.1-0.6,0.1c-0.9,0.2-1.8,0.3-2.7,0.4 c-0.1,0-0.2,0-0.3,0c-0.9,0.1-1.7,0.1-2.6,0.1c-0.1,0-0.2,0-0.4,0c-0.1,0-0.2,0-0.2,0c-1,0-2-0.1-3-0.1c-0.2,0-0.4,0-0.6-0.1 c-1-0.1-2.1-0.2-3.2-0.4c-11.6-2-20.1-8.1-25.4-18.3c-2.7-5.1-4.3-11-4.8-17.9c-0.2-2.6-0.3-5.3-0.2-8.1c0.1-1.9,0.2-3.8,0.4-5.8 s0.4-4,0.7-6.1c0.2-1,0.3-2.1,0.5-3.2l4.9-27.8c1.7-9.7,4.3-17.8,7.7-24.5c2.7-5.2,5.8-9.5,9.5-12.9c0.7-0.7,1.5-1.3,2.3-1.9 c0.2-0.1,0.3-0.3,0.5-0.4c0.8-0.6,1.5-1.1,2.3-1.6c0.1-0.1,0.2-0.2,0.4-0.2c0.7-0.5,1.4-0.9,2.2-1.3c0.2-0.1,0.3-0.2,0.5-0.2 c0.8-0.4,1.6-0.8,2.5-1.1c0.2-0.1,0.4-0.1,0.5-0.2c0.8-0.3,1.6-0.6,2.4-0.8c0.1,0,0.2-0.1,0.2-0.1c0.9-0.3,1.8-0.5,2.6-0.6 c0.2,0,0.4-0.1,0.6-0.1c0.9-0.2,1.8-0.3,2.7-0.4c0.1,0,0.2,0,0.3,0c0.9-0.1,1.7-0.1,2.6-0.1c0.1,0,0.2,0,0.4,0c0.1,0,0.2,0,0.2,0 c1,0,2,0.1,3,0.1c0.2,0,0.4,0,0.6,0.1c1.1,0.1,2.1,0.2,3.2,0.4c11.6,2,20,8.1,25.3,18.3C715.9,453.7,717,467.4,714,484.6z M777.8,565c-0.7,0.7-1.5,1.3-2.3,1.9c-0.2,0.1-0.3,0.3-0.5,0.4c-0.8,0.6-1.5,1.1-2.3,1.6c-0.1,0.1-0.2,0.1-0.4,0.2 c-0.7,0.4-1.4,0.9-2.2,1.2c-0.2,0.1-0.3,0.2-0.5,0.2c-0.8,0.4-1.6,0.8-2.4,1.1c-0.2,0.1-0.4,0.1-0.5,0.2c-0.8,0.3-1.6,0.6-2.4,0.8 c-0.1,0-0.2,0.1-0.2,0.1c-0.9,0.3-1.7,0.5-2.6,0.6c-0.2,0-0.4,0.1-0.6,0.1c-0.9,0.2-1.8,0.3-2.7,0.4c-0.1,0-0.2,0-0.3,0 c-0.9,0.1-1.7,0.1-2.6,0.1c-0.1,0-0.2,0-0.4,0c-0.1,0-0.2,0-0.2,0c-1,0-2-0.1-3-0.1c-0.2,0-0.4,0-0.6-0.1c-1-0.1-2.1-0.2-3.2-0.4 c-11.6-2-20.1-8.1-25.4-18.3c-5.3-10.1-6.4-23.8-3.4-41l4.9-27.8c0.8-4.3,1.7-8.3,2.8-12s2.4-7.1,3.8-10.2c0.4-0.8,0.7-1.5,1.1-2.3 c1.1-2.2,2.4-4.3,3.7-6.2c0.9-1.3,1.8-2.5,2.8-3.6s2-2.2,3-3.1c0.7-0.7,1.5-1.3,2.3-1.9c0.2-0.1,0.3-0.3,0.5-0.4 c0.8-0.6,1.5-1.1,2.3-1.6c0.1-0.1,0.2-0.2,0.4-0.2c0.7-0.5,1.4-0.9,2.2-1.3c0.2-0.1,0.3-0.2,0.5-0.2c0.8-0.4,1.6-0.8,2.5-1.1 c0.2-0.1,0.4-0.1,0.5-0.2c0.8-0.3,1.6-0.6,2.4-0.8c0.1,0,0.2-0.1,0.2-0.1c0.9-0.3,1.8-0.5,2.6-0.6c0.2,0,0.4-0.1,0.6-0.1 c0.9-0.2,1.8-0.3,2.7-0.4c0.1,0,0.2,0,0.3,0c0.9-0.1,1.7-0.1,2.6-0.1c0.1,0,0.2,0,0.4,0c0.1,0,0.2,0,0.2,0c1,0,2,0.1,3,0.1 c0.2,0,0.4,0,0.6,0.1c1.1,0.1,2.1,0.2,3.2,0.4c2.2,0.4,4.2,0.9,6.2,1.6c1.3,0.4,2.5,1,3.7,1.5c0.6,0.3,1.2,0.6,1.8,0.9 c1.2,0.6,2.3,1.3,3.3,2.1c4.2,3.1,7.6,7.1,10.3,12.2c5.3,10.2,6.4,23.9,3.4,41l-4.9,27.8C792,544.8,786.2,557.3,777.8,565z M873.1,593.7l-28.3-5l-5.1-33.1l-0.5-0.1l-16.1,29.3l-28.4-5l33-44.3l-15.4-51.7l28.3,5l4.3,32l0.5,0.1l15.5-28.5l28.4,5 l-32.2,43.3L873.1,593.7z"></path> </g> <circle style="fill:#FFCE00;" cx="592.8" cy="144.6" r="13.1"></circle> <circle style="fill:#FFCE00;" cx="598.1" cy="176" r="13.1"></circle> <circle style="fill:#FFCE00;" cx="603.3" cy="207.9" r="13.1"></circle> <circle style="fill:#FFCE00;" cx="608.5" cy="239.3" r="13.1"></circle> <circle style="fill:#FFCE00;" cx="715.2" cy="220.3" r="13.1"></circle> <circle style="fill:#FFCE00;" cx="753.2" cy="281.9" r="13.1"></circle> <circle style="fill:#FFCE00;" cx="735.3" cy="119.5" r="13.1"></circle> <circle style="fill:#FFCE00;" cx="796.3" cy="207" r="13.1"></circle> <circle style="fill:#FFCE00;" cx="824.4" cy="223.6" r="13.1"></circle> <circle style="fill:#FFCE00;" cx="852.8" cy="240.2" r="13.1"></circle> <circle style="fill:#FFCE00;" cx="880.9" cy="255.3" r="13.1"></circle> <circle style="fill:#FFCE00;" cx="908.1" cy="272.3" r="13.1"></circle> <circle style="fill:#FFCE00;" cx="852" cy="305.8" r="13.1"></circle> <circle style="fill:#FFCE00;" cx="613.7" cy="270.7" r="13.1"></circle> </svg> 