<?xml version="1.0" encoding="UTF-8"?> <svg xmlns="http://www.w3.org/2000/svg" xmlns:xlink="http://www.w3.org/1999/xlink" version="1.1" id="Layer_1" x="0px" y="0px" viewBox="0 0 1000 1000" style="enable-background:new 0 0 1000 1000;" xml:space="preserve"> <path style="fill:#FFCE00;" d="M956.1,267.5c-0.2,6,0.2,12.2-0.8,18c-4.9,27.9-5.1,27.8-33.6,28.6c-1.7,0-3.4,0.3-7.6,0.7 c-4.1,18.9-9.4,38-12.1,57.6c-2.9,21.4-3.4,43.2-4.9,65c-19.2,2.1-36.5,4.1-56.4,6.3c5.7-42.6,11.1-82.6,16.8-124.7 c-9.2,0.8-17.8,1.5-26.6,2.2c11.3,46.1,0.1,83.5-37.2,110.6c-39.4,28.7-98.3,12.5-110.7-34.7c-1.8-6.9-1.2-14.4-1.9-21.7 c-0.4-3.9-1.1-7.7-1.7-11.6c-1.3,0.1-2.5,0.1-3.8,0.2c-1.9,29.5-3.8,59-5.8,89.2c-16.7,1.5-33.3,2.9-51.5,4.5 c1.1-21.7,2.2-42.9,3.3-66c-10.2,1-19.7,2-31.1,3.2c-2.7,20-5.4,40.4-8.1,60.8c-17.5,1.3-33.7,2.6-52.3,4 c6.4-60.5,12.7-119.4,19-178.6c17.8,0,34.4,0,52.6,0c-2.2,23.8-4.4,46.8-6.7,71.7c5.1,0,9.2,0,13.3,0c16.8-0.2,19.3-3,21.1-19.9 c1.7-16.6,4.9-33,6.3-49.6c0.7-8,4.3-10.5,11.4-10.5c13.3,0,26.7,0,41.8,0c-2.4,23.7-4.7,46.9-7.1,70.4c36.8-67.5,102.5-74.6,138-35 c1.4-7.5,3.8-14.3,3.6-21.1c-0.2-10.1,4.4-11.8,13.4-12.2c33.5-1.2,67-3.3,100.5-5.1c2-0.1,3.8-1.6,5.8-2.4 C947.4,267.5,951.8,267.5,956.1,267.5z M785.8,353.1c0.5-15.3-11.1-27.5-25.6-23c-21.7,6.7-35.7,29.3-32.3,52.2 c2.8,18.5,19.5,26,34.7,15C776.3,387.3,785.3,374.3,785.8,353.1z"></path> <path style="fill:#FFCE00;" d="M56.3,474.5c0.8-2.8,2.2-5.6,2.3-8.5c1.1-31.4,1.7-62.8,3-94.2c1-24.8,2.8-49.5,4.3-75.1 c17.9-1.2,35.7-2.3,55.4-3.6c-1.1,20-2.1,38.2-3.1,57.9c13-2.3,24.2-4.3,36.7-6.5c1.7-16.4,4.1-32.8,5-49.4 c0.5-8.6,2.6-12.6,11.9-12.2c14.6,0.6,29.2,0.2,43.9,0.2c-5.4,65.7-10.7,130.3-16.2,196.5c-15.8,1.7-33,3.6-50.2,5.4 c0-32.6,0-64.7,0-97.5c-1.8,0.4-4.5,1.1-7.3,1.5c-25.5,3.6-25.2,3.6-26.2,29.6c-0.7,18.9-2.2,37.7-3.5,58.5 c-18.5,0.9-37.2,1.8-56,2.7C56.3,478,56.3,476.2,56.3,474.5z"></path> <path style="fill:#FFCE00;" d="M604.2,637.1c-35-1-59.6-7.1-75.3-31.5c-8.9-13.8-12.7-29.6-10.9-46.1c2.4-21.4,8.6-41.4,23-58.2 c15.9-18.5,34.8-30.1,59.9-32.3c20.8-1.8,40.8-1.8,58.7,10.6c19.4,13.4,28.9,31.8,27.7,55.5c-0.5,9.5-0.6,19-1.2,28.5 c-1.5,27.6-20.9,45.2-39.8,59.9C633.6,633.4,613.8,634.3,604.2,637.1z M637.2,547.7c0.1-16.4-14.8-34.4-28.4-33.2 c-26.5,2.4-39.8,22.1-41.4,46.9c-1,16.1,14.6,29.4,31.9,29.3C620.4,590.4,637.1,571.4,637.2,547.7z"></path> <path style="fill:#FFCE00;" d="M673.2,630c4.7-13.1,8-24.2,12.6-34.7c2.5-5.7,6.1-9.3,14.8-7.6c15.2,2.9,31,3.1,46.6,2.9 c4-0.1,11.2-6.2,11.1-9.3c-0.2-4.7-4.6-10.5-8.9-13.6c-12.2-9-25.6-16.4-37.8-25.5c-16.4-12.3-15-50.3,3.5-63 c21.8-14.9,44.9-22.7,71.7-18.5c17.6,2.8,35.5,4,52.8,5.9c3.6,14.8-3.7,38-14.8,42.8c-5.8,2.5-14.1-0.5-21.2-1.4 c-13.5-1.7-27-3.6-39.8-5.3c-4.3,14.2,1.7,19.5,9.9,24.9c15.9,10.4,31.9,20.8,46.3,33c13.5,11.5,9.5,35.7-1,49.5 c-29.2,38.7-69.6,27.3-107.6,26.5C699.8,636.3,688,632.6,673.2,630z"></path> <path style="fill:#FFCE00;" d="M266.9,568.7c0.8-45.8,25.8-80.4,68.3-92.2c24-6.7,48.3-4.8,69.3,7.5c13.8,8.1,21.8,23.7,25,40.3 c9.9,51.1-16.7,96.2-66.8,111.3c-33.4,10.1-76-1.7-87.8-32.2C270.7,592.4,269.5,580.3,266.9,568.7z M352.8,518.6 c-27.5-1.9-45.6,43.7-33.6,60.6c3.3,4.7,8.4,8.7,13.6,11.2c22.7,11.3,51.2-14.9,50.2-42.9C382.4,532.5,367.4,518.4,352.8,518.6z"></path> <path style="fill:#FFCE00;" d="M384.5,351.3c-1.9,31.7-13.5,57.2-37.6,76.9c-29.1,23.8-73.1,26.5-103.9,4.5 c-14.5-10.4-22-25-26-43.4c-5.6-26.1,1.7-47.1,16.6-66.9c17.8-23.5,42.3-36.7,71.2-38C346.4,282.5,380.5,308,384.5,351.3z M333.9,356.6c0.2-20.7-16.2-33-35.2-26.3c-18,6.3-28.9,19.5-34.1,37.2c-5.9,20,8.6,40.3,26.7,36.8 C320.7,398.4,331.4,386.2,333.9,356.6z"></path> <path style="fill:#FFCE00;" d="M492.2,494.3c-9.8,2.5-19.7,5.1-32,8.2c1.6-14.2,2.2-26.2,4.8-37.7c0.8-3.3,7.1-7.1,11.3-7.7 c9.8-1.3,19.8-1,29.7-0.6c4.3,0.2,11.7,1.6,12.1,3.7c0.9,4.2-1.7,9.3-3.3,13.9c-0.7,1.9-2.6,3.3-2,2.7c2.1,6.1,5,10.3,4.5,14.1 c-4.4,37-9.2,74-14.4,110.9c-2.1,15.1-3.3,30.8-8.5,44.9c-9.6,26.2-32.8,46.7-64.8,45.9c-24.3-0.6-44.4-6.1-60.8-23.9 c-9.2-9.9-8.5-11.3,3.5-16.4c12.1-5.2,23.4-12.2,34.8-18.3c5,2,10.2,4.7,15.7,6.3c10.7,3.1,20.1-1.8,21.8-12.6 c3.3-21,5.7-42.2,8.2-63.4c1.9-15.2,3.1-30.6,5.5-45.7c0.5-3,4.5-6.1,7.7-7.8c9.2-4.9,18.7-9.2,28.1-13.7 C493.5,496.2,492.9,495.3,492.2,494.3z"></path> <path style="fill:#FFCE00;" d="M518.3,278.2c-1.3,14-2.3,26.9-4,39.8c-0.2,1.6-4.5,3.3-7.2,3.7c-10.6,1.6-21.2,2.7-34.7,4.4 c-3.8,31.7-7.7,64.3-11.6,97c-0.3,2.1,0,4.4-0.5,6.4c-2.2,10.3-2.1,27.9-7.3,29.6c-15.8,5.3-33.6,4.4-51.9,6.1 c2.8-23.9,5.7-45.8,7.9-67.8c2.2-22,3.6-44.1,5.5-67.9c-10.2,0.5-19.9,1-32,1.7c1.2-14.1,2.3-27.6,3.5-42.4 C429.3,285.3,472.4,281.9,518.3,278.2z"></path> <path style="fill:#FFCE00;" d="M269,486.6c-2.6,20.2-5.1,40.8-7.9,61.4c-4.1,30.5-7.4,61.2-13,91.5c-5.5,29.7-38.7,53-64.9,53 c-26.2,0-47.1-7.3-62.7-28.4c-0.8-1-1.5-2.1-2-3.2c-0.3-0.7-0.1-1.7-0.1-2.4c12.3-7,24.5-14.3,37.2-20.7c2.9-1.5,8-0.6,11.2,1 c17.4,8.5,27.1,4.7,30.5-14.5c4.1-23.1,6.3-46.6,9.3-69.9c1-8,1-16.4,3.4-24c1.8-5.8,5.4-12.3,10.3-15.5 C235.9,504.8,252.4,496.1,269,486.6z"></path> <path style="fill:#FFCE00;" d="M294.8,799.6c-6.7-7.5-11.2-12.5-15.9-17.8c-2.9,2.2-7.5,7.9-13.5,9.9c-5.4,1.9-12.1-0.1-18.4-3 c-4.5,3.1-9,6.3-14.7,10.2c-7.3-7.9-14.5-15.6-21.8-23.4c-7.7,7.1,0.5,31.6-24.5,20.1c5.8-19.4,11.6-38.6,18.1-59.9 c-4.7,2.4-7.9,4.1-11.4,5.9c-1.2-7.6,14.1-22.8,22.8-23.6c11.3-1.1,32.4,16.9,33.4,27.2c7.8-2.2,15.7-5.6,23.9-6.4 c12.2-1.3,15,7.4,15.9,17.8c3.2-10.8,6-21.7,10.1-32.2c1-2.7,6.1-3.8,9.3-5.6c1.6,3.1,5,6.6,4.4,9.2 C307.4,750.4,301.6,772.6,294.8,799.6z M257.4,783c12.4-9.7,17-23.4,12.3-36.6C265.4,758.9,255,767.9,257.4,783z M214.7,756.2 c1.1,1.1,2.2,2.3,3.3,3.4c4.1-3.9,9.8-7.3,11.6-12.1c1.2-3.1-3.2-8.4-5-12.8c-1.2,0.4-2.4,0.7-3.5,1.1 C218.9,742.7,216.8,749.5,214.7,756.2z M228.5,767.1c3.8,4.1,7.1,7.6,12.6,13.5c1.2-9.6,1.9-15.5,2.8-23.1 C238.2,761.1,234.1,763.6,228.5,767.1z"></path> <path style="fill:#FFCE00;" d="M213.6,506c1.7-13.4,2.2-24.5,4.8-35.2c0.8-3.4,6.8-7.4,10.9-7.9c10.7-1.3,21.5-1.1,32.3-0.9 c10.1,0.2,12.7,4.4,7,12.9C256.2,493.6,237.9,502.8,213.6,506z"></path> <path style="fill:#FFCE00;" d="M706.2,711c-8.3,5-12.7,9.1-17.7,10.1c-2.5,0.5-6.1-4.9-9.2-7.6c3.8-3.7,7-9.2,11.5-10.6 C693.7,701.9,698.5,706.7,706.2,711z"></path> <path style="fill:#FFCE00;" d="M477.4,744.7c-3.1,2.4-6.2,4.7-12.6,9.6c2.2-7.1,3.6-10.4,4.2-13.9c0.5-3,0.2-6.2,0.3-9.3 c-3.4,0.5-6.9,0.9-10.3,1.5c-1.8,0.3-4,1.7-5.2,1.1c-9.5-5.1-12.5-0.1-13.8,8.2c-0.8,5.5-1.3,11.2-3,16.4c-0.6,1.8-4.6,2.6-7,3.8 c-1,2.8-1.3,6.3-3.3,8.1c-4,3.6-8.9,6.3-13.5,9.4c-1-4.5-1.9-9-2.6-12c7.4-2.6,12.8-4.6,18.3-6.6c2.5-8.7,10.8-18,1.6-26 c-4.4-3.8-13-2.9-22.2-4.6c-5.4-7.2-9.6-7-14.7,4c-3.3,7.2-5.9,14.8-9.9,25c-0.4-28.3-0.4-28.3-10.7-28.6c-1.1,4.4-2.2,8.8-3.1,12.1 c-4.5-3.3-8.3-7.8-13-9.1c-12-3.4-20.4,3.8-28.2,12.2c1.3-8.5,4-16.2,5.1-24.2c0.3-2.4-3-6.4-5.6-7.7c-1.6-0.8-6.9,1.7-7.4,3.6 c-5.6,20.5-10.8,41.2-15.8,61.9c-2.3,9.6,3.6,11.8,12.3,11.9c1.6-5.6,3.1-10.9,5.2-18.1c5.6,13,13.6,21.2,25.4,13.9 c8.5-5.3,14.3-15,22-23.5c0,6-1.2,12,0.4,17c1.1,3.5,5.9,6.8,9.7,8c1.7,0.6,6.2-3.5,7.6-6.3c2.8-5.9,4.3-12.3,7.2-21.5 c2.4,25.5,13.2,33.8,30.3,26.7c7.4-3.1,15.3-5.2,24.5-8.3c1.9-6,4.4-14.4,6.2-20.1c6.9,0,12.8,1.6,16.6-0.5c3.7-2.1,5.3-8,7.8-12.2 C479.5,746.1,478.5,745.4,477.4,744.7z M344.8,778.9c-1.7-0.6-3.4-1.1-5.1-1.7c-3.8-13.6,8.6-21.9,10.3-33.7 c2.1,0.6,4.2,1.3,6.3,1.9C352.5,756.5,348.6,767.7,344.8,778.9z M408.8,754.2c3.4-3.6,6.7-7.2,10.1-10.8c0.9,0.1,1.7,0.3,2.6,0.4 c-0.1,3.3,1,7.9-0.7,9.5c-2.6,2.4-7.2,2.8-10.9,4C409.5,756.3,409.1,755.2,408.8,754.2z"></path> <path style="fill:#FFCE00;" d="M768.9,730.8c4-1.3,8.2-3.1,11.3-5.8c1.2-1,0.5-6.9-0.9-7.6c-3.2-1.8-7.5-2.6-11.1-2.2 c-5.5,0.7-11,2.3-16.1,4.5c-3.6,1.6-9.2,5-9,7.2c0.4,4.2,4,8.3,6.7,12.2c3.6,5.1,8.2,9.7,11,15.2c1.1,2.1-1.3,6.3-3,9.1 c-0.6,0.9-3.8,0.2-5.8,0.3c0.1-2.8,0.5-5.6,0.1-8.4c-0.5-3.7-1.7-7.4-2.6-11.1c-4,2.3-9.1,3.7-11.6,7c-2.6,3.4-2.7,8.7-3.9,13.2 c-2.7-3.1-3.2-5.9-2.6-8.4c2-8.4,5.3-16.5,6.1-25c0.4-3.7-3.2-9.3-6.6-11.2c-2.1-1.2-7.9,2.4-10.7,5.1c-2.9,2.8-4.1,7.3-6.9,12.6 c-0.2-3.1-0.1-4.3-0.4-5.5c-0.8-3.5-1.8-7-2.7-10.4c-3.2,2.2-7.8,3.8-9.4,6.9c-2.4,4.8-2.6,10.7-4.2,16c-2,6.8-4.5,13.5-6.7,20.2 c-3.3-2.3-4-3.6-3.7-4.8c1.5-6.7,4.3-13.3,4.6-20c0.2-4.4-3.3-9-5.1-13.4c-3.9,2.7-8.5,4.9-11.4,8.4c-2.4,2.8-2.7,7.4-5,14.6 c-2.1-24.5-2.1-24.5-23.7-24c-1.2,0-2.4-0.6-3.5-1.2c-10.6-4.9-13.7,1.3-15.2,10c-1.7,9.7-3.3,19.5-4.9,28.5 c-5.7-8-11-15.5-17.3-24.3c2.9,0,5.6,0.6,7.7-0.1c3.8-1.3,7.6-3,10.6-5.5c1-0.9,0.5-6.1-0.7-6.7c-3.2-1.6-7.1-2.5-10.6-2.2 c-4.6,0.5-9.3,2-13.6,3.9c-4.5,2-8.6,4.9-12.8,7.4c3.3,4,7,7.7,9.9,12c3.2,4.7,6.5,9.7,7.8,15c0.5,2-4.7,5.3-7.3,8 c-1-1-2-1.9-3.1-2.9c1.1-4.8,2.2-9.6,3.4-14.4c-13.8-1.8-13.2-1.5-20.6,10c-2.5,3.9-8.4,5.7-12.7,8.4c-1.1-4.3-2.2-8.6-4-15.4 c14.4,4.7,21.1-2.1,22.8-11.1c1.2-6.3-1-16.8-5.5-20c-9.5-6.7-17.4,0.7-23.5,9.1c-0.9-1.3-1.5-2.6-2.4-3.3 c-10-7.4-19.2-16.6-30.4-21c-4.9-1.9-14,5.8-20.6,10.1c-2.5,1.6-3.2,5.9-4.8,9c3.3,0.6,6.6,1.2,11,1.9c-4.1,17.5-8.3,35.6-12.7,54.3 c23.2,9.3,14.3-14,22.5-19.6c7,7.6,14,15.1,21.7,23.4c4.9-4.3,8.9-7.9,13-11.5c0.2,1.1,0.4,2.2,0.6,3.3c10-1.6,20.1-3.2,30.1-4.6 c2.3-0.3,4.7-0.4,7-0.2c10,0.9,19.9,1.9,30.1,2.9c-0.2,2.1-0.8,7.2-1.5,13c4.9,2,9.7,4,14.5,6c1.4-8.8,2.5-15.8,3.8-23.6 c16,5.5,24.1-4.3,32.1-15.1c3.3,16.9,7.2,19.1,23.4,15.3c2.5-0.6,5.6-0.4,7.9,0.6c8.4,3.8,12-0.1,14-7.7c0.8-2.9,1.8-5.7,2.7-8.6 c1.1,12.9,7.1,17.6,19.3,16.3c5.7-0.6,11.8,1.3,17.5,0.8c7.3-0.7,16.9-0.4,20.9-4.8c3.9-4.4,4.1-14.6,2.1-21.1 c-2-6.7-8.6-12.1-13.9-18.9C763.5,731,766.5,731.7,768.9,730.8z M570.4,734.1c0.9,0.1,1.7,0.3,2.6,0.4c-0.1,3.3,1,7.9-0.7,9.5 c-2.6,2.4-7.2,2.8-10.9,4c-0.3-1-0.7-2.1-1-3.1C563.6,741.3,567,737.7,570.4,734.1z M521.1,750.2c-1.1-0.7-2.1-1.4-3.2-2.1 c1.9-7.3,3.8-14.5,5.7-21.8c1.1-0.3,2.2-0.5,3.3-0.8c1.9,4.7,6.1,10,5.1,13.9C531,743.6,525,746.6,521.1,750.2z M543.6,768.1 c-1,0.7-2,1.3-3,2c-3.2-3.8-6.4-7.7-9.9-12c5.2-3.3,9.5-6,15.3-9.7C545,755.9,544.3,762,543.6,768.1z M646.3,766.9 c-1.5-0.4-3.1-0.9-4.6-1.3c-4.1-13.5,7.5-22.6,9.7-34.3c1.7,0.5,3.4,1,5.1,1.5C653,744.1,649.7,755.5,646.3,766.9z"></path> </svg> 