<?xml version="1.0" encoding="UTF-8"?> <svg xmlns="http://www.w3.org/2000/svg" xmlns:xlink="http://www.w3.org/1999/xlink" version="1.1" id="Layer_1" x="0px" y="0px" viewBox="0 0 1000 1000" style="enable-background:new 0 0 1000 1000;" xml:space="preserve"> <path style="fill:#FFCE00;" d="M924.9,414l-3.1-3.9c-9.5-11.8-15.3-38.9-15.3-57.2c0-20.6-14.4-37.4-32.1-37.4h-0.1h-0.1l-386,23.9 l-383.7-23.9h-0.1h-0.1c-17.7,0-32.1,16.8-32.1,37.4c0,18.3-5.9,45.3-15.3,57.2l-3.1,3.9l-1.5,1.9l1.5,1.9l3.1,3.9 c9.5,11.8,15.3,38.9,15.3,57.2c0,20.6,14.4,37.4,32.1,37.4h0.1h0.1l383.7-23.9l386,23.9h0.1h0.1c17.7,0,32.1-16.8,32.1-37.4 c0-18.3,5.9-45.3,15.3-57.2l3.1-3.9l1.5-1.9L924.9,414L924.9,414z M919.7,419.8c-9.9,12.3-16,40.3-16,59.1c0,19-13.2,34.4-29.3,34.4 l-386.1-23.9l-383.9,23.9c-16.2,0-29.3-15.5-29.3-34.4c0-18.8-6.1-46.7-16-59.1l-3.1-3.9l3.1-3.9c9.9-12.3,16-40.3,16-59.1 c0-19,13.2-34.4,29.3-34.4l383.9,23.9l386.1-23.9c16.2,0,29.3,15.5,29.3,34.4c0,18.8,6.1,46.7,16,59.1l3.1,3.9L919.7,419.8 L919.7,419.8z"></path> <path style="fill:#FFCE00;" d="M874.4,324.5l-386.1,23.9l-383.9-23.9c-13.1,0-23.8,12.8-23.8,28.5c0,19.5-6.4,49.2-17.3,62.9 c11,13.7,17.3,43.4,17.3,62.9c0,15.7,10.7,28.5,23.8,28.5l383.9-23.9l386.1,23.9c13.1,0,23.8-12.8,23.8-28.5 c0-19.5,6.4-49.2,17.3-62.9c-11-13.7-17.3-43.4-17.3-62.9C898.2,337.2,887.5,324.5,874.4,324.5L874.4,324.5z M892.7,478.8 c0,12.4-8.1,22.5-18.1,22.6l-386-23.9h-0.3H488l-383.7,23.9c-10-0.1-18.1-10.2-18.1-22.6c0-19.6-5.9-47.3-15.9-62.9 c10-15.7,15.9-43.3,15.9-62.9c0-12.4,8.1-22.5,18.1-22.6L488,354.2h0.3h0.3l386-23.9c10,0.1,18.1,10.2,18.1,22.6 c0,19.6,5.9,47.3,15.9,62.9C898.6,431.5,892.7,459.2,892.7,478.8L892.7,478.8z"></path> <polygon style="fill:#FFCE00;" points="694.7,248.1 669,279.8 669.7,248.1 637.2,248.1 642.3,251.9 622.1,302 630,302 645.9,263.4 646.4,263.4 645.9,302 660.1,302 690.7,264.6 691.5,265.6 676.8,302 699,302 721.2,248.1 "></polygon> <polygon style="fill:#FFCE00;" points="777.9,253.4 780.3,248.1 730,248.1 735.2,251.9 715,302 758.4,302 760.7,296.6 738.4,296.5 746.4,276.8 765.2,276.7 767.5,271.4 748.7,271.4 756,253.5 "></polygon> <polygon style="fill:#FFCE00;" points="628.8,253.4 631.1,248.1 580.9,248.1 586,251.9 565.8,302 609.2,302 611.6,296.6 589.2,296.5 597.3,276.8 616,276.7 618.3,271.4 599.5,271.4 606.8,253.5 "></polygon> <path style="fill:#FFCE00;" d="M565.1,266c0.9-1.7,3.3-6.1,1.7-10.5c-1.9-5.1-8.5-7.1-16.7-7.4h-39.4l5.2,3.8L495.5,302h21.8 l9.9-24.1h1.5c0,0,4.1,16.5,6,24.1h23l-8.3-25.6C551.2,276,560.6,274.2,565.1,266z M547.1,262.1c-2.9,10.7-10.3,11.7-11.4,11.7 l-6.9-0.1l8.7-20.6c1.9,0,3.8,0,5.8-0.1C545.7,253,549,253.9,547.1,262.1L547.1,262.1z"></path> <polygon style="fill:#FFCE00;" points="436.3,248.1 425.4,248.1 406.1,265.8 399.4,248.1 370.2,248.1 375.1,252 385,277.9 356.9,302 368.1,302 387.5,284.6 394.2,302 419.8,302 408.4,271.9 "></polygon> <polygon style="fill:#FFCE00;" points="361.4,248.1 350.5,248.1 331.1,265.8 324.4,248.1 295.2,248.1 300.1,252 310,277.9 282,302 293.2,302 312.6,284.6 319.2,302 344.9,302 333.4,271.9 "></polygon> <polygon style="fill:#FFCE00;" points="286.4,248.1 275.5,248.1 256.2,265.8 249.5,248.1 220.3,248.1 225.1,252 235.1,277.9 207,302 218.2,302 237.6,284.6 244.3,302 269.9,302 258.5,271.9 "></polygon> <polygon style="fill:#FFCE00;" points="504.5,253.4 506.9,248.1 442.6,248.1 447.9,253.3 465.7,253.4 446,302 467.8,302 487.6,253.4 "></polygon> <path style="fill:#FFCE00;" d="M425.8,371.8h-1.1v16.8h5.8v-1.1c0-3.9,2.3-6.8,6.9-8.5c3.6-1.3,7.3-1.4,7.3-1.4h14.7v66.9 c0,0.1-0.4,13.4-9.9,13.4h-1.1v5.8h36.1v-5.8h-1.1c-8.2,0-9.9-10.5-9.9-13.2v-67h15c1.1,0,4.6,0.3,7.8,1.7c4,1.7,6.1,4.5,6.1,8.2 v1.1h5.8v-16.8L425.8,371.8L425.8,371.8z"></path> <path style="fill:#FFCE00;" d="M179.8,446.9h-1.1v1.1c0,9.6-14.1,9.9-14.2,9.9h-22.3v-66.1c0,0,0.1-3.7,1.4-7.3 c1.7-4.6,4.5-6.9,8.5-6.9h1.1v-5.8h-34.4v5.8h1.1c3.7,0,6.5,2,8.2,6.1c1.4,3.2,1.7,6.7,1.7,7.8v52.2c0,0-0.1,3.7-1.4,7.3 c-1.7,4.6-4.5,6.9-8.5,6.9h-1.1v5.8h65.7v-16.8H179.8L179.8,446.9z"></path> <path style="fill:#FFCE00;" d="M192.9,371.8h-1.1v5.8h1.1c3.7,0,6.5,2,8.2,6c1.4,3.2,1.7,6.7,1.7,7.7v52.8c0,0.1-0.3,13.7-9.9,13.7 h-1.1v5.8h36.1v-5.8h-1.1c-8.2,0-9.9-10.5-9.9-13.2v-53.3c0-0.1,0.4-13.7,9.9-13.7h1.1v-5.8H192.9L192.9,371.8z"></path> <path style="fill:#FFCE00;" d="M294.3,414.8h-1.1v5.8h1.1c9.5,0,9.9,13.4,9.9,13.5v13.4c-7.4,6.6-17,10.3-27,10.3 c-10.8,0-20.8-4.1-28.3-11.6c-1.1-1.1-2.2-2.3-3.4-3.8v-49.1c0.9-1.2,1.9-2.4,3.4-3.9c7.5-7.5,17.6-11.6,28.4-11.6 s20.9,4.1,28.4,11.6l0.3,0.3h4v-21.5h-5.6l-0.1,1c0,0.3-0.9,7-6,7c-1,0-2.1-0.2-3.2-0.7c-5.9-2.3-12-3.5-17.7-3.5 c-12.2,0-23.7,4.8-32.4,13.5c-8.7,8.6-13.5,20.1-13.4,32.4c0,12.2,4.8,23.8,13.4,32.5c8.7,8.6,20.2,13.4,32.5,13.4 c12.2,0,23.7-4.8,32.4-13.4l0.3-0.3v-15.4c0-0.1,0.4-13.8,9.9-13.8h1.1v-5.8L294.3,414.8L294.3,414.8z"></path> <path style="fill:#FFCE00;" d="M863.4,414.8h-26.7v5.8h1.1c9.5,0,9.9,13.4,9.9,13.5v13.4c-7.4,6.6-17,10.3-27,10.3 c-10.8,0-20.8-4.1-28.3-11.6c-1.1-1.1-2.2-2.3-3.4-3.8v-49.1c0.9-1.2,1.9-2.4,3.4-3.9c7.5-7.5,17.6-11.6,28.4-11.6 c10.8,0,20.9,4.1,28.4,11.6l0.3,0.3h4v-21.5h-5.6l-0.1,1c0,0.3-0.9,7-6,7c-1,0-2.1-0.2-3.2-0.7c-5.9-2.3-12-3.5-17.7-3.5 c-12.2,0-23.7,4.8-32.4,13.5c-17.9,17.8-17.9,46.9,0,64.9c8.7,8.6,20.2,13.4,32.5,13.4c12.2,0,23.7-4.8,32.4-13.4l0.3-0.3v-15.4 c0-0.1,0.4-13.8,9.9-13.8h1.1v-5.8L863.4,414.8L863.4,414.8z"></path> <path style="fill:#FFCE00;" d="M736.4,371.8h-1.1v5.8h1.1c8.2,0,9.9,10.5,9.9,13.2v50.4l-52.5-69l-0.3-0.4h-24.6v5.8h1.1 c9.6,0,9.9,13.6,9.9,13.7v53.2c0,0.1-0.4,13.4-9.9,13.4h-1.1v5.8H705v-5.8h-1.1c-8.2,0-9.9-10.5-9.9-13.2V384l60,79.2l0.3,0.4h17 v-5.8h-1.1c-9.5,0-9.9-13.2-9.9-13.4v-53.2c0-0.1,0.3-13.7,9.9-13.7h1.1v-5.8L736.4,371.8L736.4,371.8z"></path> <path style="fill:#FFCE00;" d="M626.5,371.8h-1.1v5.8h1.1c3.7,0,6.5,2,8.2,6c1.4,3.2,1.7,6.7,1.7,7.7v52.8c0,0.1-0.3,13.7-9.9,13.7 h-1.1v5.8h36.1v-5.8h-1.1c-8.2,0-9.9-10.5-9.9-13.2v-53.3c0-0.1,0.4-13.7,9.9-13.7h1.1v-5.8H626.5L626.5,371.8z"></path> <path style="fill:#FFCE00;" d="M382.3,371.8h-1.1v5.8h1.1c9.6,0,9.9,13.7,9.9,13.8v20.5h-44.4v-20.5c0-0.1,0.4-13.8,9.9-13.8h1.1 v-5.8h-36.1v5.8h1.1c9.6,0,9.9,14.1,9.9,14.2v51.9c0,0.1-0.4,13.8-9.9,13.8h-1.1v5.8h36.1v-5.8h-1.1c-9.6,0-9.9-14.1-9.9-14.2v-23.8 h44.4v24.6c0,0.1-0.4,13.7-9.9,13.7h-1.1v5.8h36.1v-5.8h-1.1c-3.9,0-6.8-2.3-8.5-6.9c-1.3-3.6-1.4-7.3-1.4-7.3v-52.2 c0-0.1,0.4-13.8,9.9-13.8h1.1v-5.8L382.3,371.8L382.3,371.8z"></path> <path style="fill:#FFCE00;" d="M583,371.8h-1.1v5.8h1.1c8.2,0,9.9,10.5,9.9,13.2v50.4l-52.5-69l-0.3-0.4h-24.6v5.8h1.1 c9.6,0,9.9,13.6,9.9,13.7v53.2c0,0.1-0.4,13.4-9.9,13.4h-1.1v5.8h36.1v-5.8h-1.1c-8.2,0-9.9-10.5-9.9-13.2V384l60,79.2l0.3,0.4h17 v-5.8h-1.1c-9.5,0-9.9-13.2-9.9-13.4v-53.2c0-0.1,0.3-13.7,9.9-13.7h1.1v-5.8L583,371.8L583,371.8z"></path> <path style="fill:#FFCE00;" d="M758.6,630v-16.1h6.6c0.1,0,0.1,0,0.2,0c0.1,0,0.2,0,0.2,0c0.1,0,0.1,0,0.1,0s0.1,0,0.1-0.1 c0.1-0.1,0.3-0.2,0.5-0.6c0.1-0.2,0.2-0.4,0.3-0.6c0.1-0.2,0.2-0.5,0.3-0.7c0-0.1,0.1-0.2,0.1-0.4c0.1-0.4,0.2-0.9,0.3-1.4l0.1-0.3 c0-0.2,0.1-0.4,0.1-0.6V609c0-0.4,0-1.2,0-2v-54.5h-7.4c-0.4,0-2.6,0.2-4.7,0.9c-0.9,0.3-1.4,0.7-1.7,0.9l-0.1,0.1 c-0.1,0.1-0.2,0.1-0.2,0.2c-0.1,0.1-0.1,0.2-0.2,0.2c-0.1,0.1-0.1,0.2-0.1,0.3s-0.1,0.3-0.1,0.6v6.6h-16v-26.4h85.3v26.4h-16.1v-6.6 c0-0.3,0-0.5-0.1-0.6c0-0.1-0.1-0.2-0.1-0.3s-0.1-0.1-0.2-0.2c-0.1-0.1-0.1-0.1-0.2-0.2c-0.1,0-0.1-0.1-0.1-0.1 c-0.3-0.2-0.8-0.6-1.7-0.9c-2.1-0.8-4.3-0.9-4.7-0.9h-7.4V607c0,0.8,0,1.6,0,2v0.2c0,0.1,0,0.3,0.1,0.5c0,0.1,0,0.2,0.1,0.3 c0.1,0.5,0.2,0.9,0.3,1.4c0,0.1,0.1,0.3,0.1,0.4c0.1,0.2,0.2,0.5,0.3,0.7s0.2,0.4,0.3,0.6c0.2,0.4,0.4,0.6,0.5,0.6s0.1,0.1,0.1,0.1 s0.1,0,0.1,0.1c0,0,0.1,0,0.2,0c0.1,0,0.1,0,0.2,0h6.6V630H758.6L758.6,630z"></path> <path style="fill:#FFCE00;" d="M574.6,630v-16.1h6.6c0.1,0,0.1,0,0.2,0c0.1,0,0.2,0,0.2,0c0.1,0,0.1,0,0.1,0s0.1,0,0.1-0.1 c0.1-0.1,0.3-0.2,0.5-0.6c0.1-0.2,0.2-0.4,0.3-0.6c0.1-0.2,0.2-0.5,0.3-0.7c0-0.1,0.1-0.3,0.1-0.4c0.1-0.4,0.2-0.8,0.3-1.3 c0-0.1,0-0.2,0.1-0.3c0-0.2,0.1-0.4,0.1-0.6v-0.2c0-0.4,0-1.5,0-2.5v-0.4v-48.7c0-0.1,0-0.2,0-0.3v-0.3c0-0.1,0-0.3-0.1-0.5 c0-0.1,0-0.2-0.1-0.3c-0.1-0.5-0.2-0.9-0.3-1.4c0-0.1-0.1-0.3-0.1-0.4c-0.1-0.3-0.2-0.5-0.3-0.7s-0.2-0.4-0.3-0.6 c-0.2-0.4-0.4-0.6-0.5-0.6s-0.1-0.1-0.1-0.1h-0.1c0,0-0.1,0-0.2,0c-0.1,0-0.1,0-0.2,0h-6.6v-16.1h46c17.7,0,32,14.4,32,32.1 c0,11.8-6.3,22.3-16.2,27.9c0.3,0.4,0.8,1.1,0.8,1.1c1.5,2.1,2.7,3.9,3.9,5.5c4.2,5.7,7.2,8.9,9.5,10.2c0.1,0,0.3,0,0.4,0.1 c3.2,0.5,8.7,2.4,8.5,8.7v0.2v0.2c-0.5,4.7-4.3,7.8-9.5,7.8h-0.2c-4.3,0-7.3-0.1-10.3-0.6c-9.3-1.6-15.1-7.3-23.1-18.1 c-1.8-2.5-4-5.5-6.9-9.6l-0.3-0.4c-0.3-0.5-0.6-0.7-0.7-0.9l-1-0.2V630H574.6L574.6,630z M620,582.6c0.3,0,0.5,0,0.8,0h0.2 c0.9,0,1.8-0.2,2.7-0.3c6.5-1.4,11.3-7.3,11.3-14.1c0-7.4-5.5-13.5-12.8-14.3H622c-0.2,0-0.5,0-0.8,0h-0.1h-2.4h-11.1v28.7 L620,582.6L620,582.6z"></path> <path style="fill:#FFCE00;" d="M706,630v-15h5.8c1.2,0,2.3-1.5,2.8-2.2l-3.4-10.5h-21.7l-2,6.1l-0.1,0.4v0.1c-0.8,2.3-1,3.3-1.1,3.7 c0.6,0.9,1.7,2.3,2.9,2.3h0.4l5.2,0.4l0.3,5.3v9.2h-33.6l28.1-72.7V557c0.3-0.7,0.6-1.8,0.4-2.9c-0.1-0.3-0.1-0.4-0.2-0.6 c-0.2-0.3-1.3-1-2.6-1.8l-0.4-0.2c-1.2-0.7-2.1-1.1-2.1-1.1l-3.5-1.5v-13h34.5l34.2,93.9L706,630L706,630z M705.2,584.9l-4.8-13.1 l-4.8,13.1H705.2L705.2,584.9z"></path> <path style="fill:#FFCE00;" d="M529.6,630v-15h5.8c1.2,0,2.3-1.5,2.8-2.2l-3.4-10.5H513l-2,6.1l-0.1,0.4v0.1c-0.8,2.3-1,3.3-1,3.7 c0.6,0.9,1.7,2.3,2.9,2.3h0.4l5.2,0.4l0.3,5.3v9.2h-33.6l28.1-72.7V557c0.3-0.7,0.6-1.8,0.4-2.9c-0.1-0.3-0.1-0.4-0.2-0.6 c-0.2-0.3-1.3-1-2.6-1.8l-0.4-0.2c-1.2-0.7-2.1-1.1-2.1-1.1l-3.5-1.5v-13h34.5l34.2,93.9L529.6,630L529.6,630z M528.7,584.9 l-4.8-13.1l-4.8,13.1H528.7L528.7,584.9z"></path> <path style="fill:#FFCE00;" d="M449.4,632.3c-10.5,0-20.4-3.3-28.8-9.6c-8.1-6.1-14.2-14.7-17.1-24.4c-0.3-0.9-0.5-1.8-0.7-2.7 c-0.9-3.7-1.3-7.5-1.3-11.3c0-13.5,5.8-26.5,15.8-35.6c1.3-1.1,2.6-2.2,4-3.2c1-0.8,2.1-1.5,3.2-2.1c2.1-1.3,4.2-2.4,6.4-3.3 c1.1-0.5,2.3-0.9,3.4-1.3c4.9-1.6,10-2.4,15.1-2.4c13.7,0,26.8,5.9,35.9,16.2l3.5,3.9L476.4,570l-4.3-5.1c-2.8-3.3-6.1-5.8-10-7.7 c-0.8-0.4-1.5-0.7-2.3-1c-0.6-0.2-1.3-0.5-2-0.7c-2.7-0.8-5.5-1.2-8.4-1.2c-2.8,0-5.7,0.4-8.4,1.2c-0.6,0.2-1.2,0.4-1.8,0.6 c-0.6,0.2-1.2,0.5-1.7,0.7c-0.3,0.1-0.6,0.3-1,0.4c-0.6,0.3-1.2,0.6-1.8,0.9c-2.9,1.6-5.4,3.7-7.6,6.1v39.6c5.6,6.3,13.9,10,22.3,10 c8.2,0,16.1-3.4,21.7-9.5l4.3-4.6l12.3,13.5l-3.8,3.9C474.9,626.9,462.3,632.3,449.4,632.3L449.4,632.3z"></path> <path style="fill:#FFCE00;" d="M364.6,632.3c-10.5,0-20.4-3.3-28.8-9.6c-8.1-6.1-14.2-14.7-17.1-24.4c-0.3-0.9-0.5-1.8-0.7-2.7 c-0.9-3.7-1.3-7.5-1.3-11.3c0-13.5,5.8-26.5,15.8-35.6c1.3-1.1,2.6-2.2,4-3.2c1-0.8,2.1-1.5,3.2-2.1c2.1-1.3,4.2-2.4,6.4-3.3 c1.1-0.5,2.3-0.9,3.4-1.3c4.9-1.6,10-2.4,15.1-2.4c13.7,0,26.8,5.9,35.9,16.2l3.5,3.9L391.6,570l-4.3-5.1c-2.8-3.3-6.1-5.8-10-7.7 c-0.8-0.4-1.5-0.7-2.3-1c-0.6-0.2-1.3-0.5-2-0.7c-2.7-0.8-5.6-1.2-8.4-1.2s-5.7,0.4-8.4,1.2c-0.6,0.2-1.2,0.4-1.8,0.6 c-0.6,0.2-1.2,0.5-1.7,0.7c-0.3,0.1-0.6,0.3-1,0.4c-0.6,0.3-1.2,0.6-1.8,0.9c-2.9,1.6-5.4,3.7-7.6,6.1v39.6c5.6,6.3,13.9,10,22.3,10 c8.2,0,16.1-3.4,21.7-9.5l4.3-4.6l12.3,13.5l-3.8,3.9C390.1,626.9,377.5,632.3,364.6,632.3L364.6,632.3z"></path> <path style="fill:#FFCE00;" d="M279.7,630v-15h5.8c1.2,0,2.3-1.5,2.8-2.2l-3.4-10.5h-21.7l-2,6.1l-0.1,0.4v0.1 c-0.8,2.3-1,3.3-1.1,3.7c0.6,0.9,1.7,2.3,2.9,2.3h0.4l5.2,0.4l0.3,5.3v9.2h-33.6l28.1-72.7V557c0.3-0.7,0.6-1.8,0.4-2.9 c-0.1-0.3-0.1-0.4-0.2-0.6c-0.2-0.3-1.3-1-2.6-1.8l-0.4-0.2c-1.2-0.7-2.1-1.1-2.1-1.1l-3.5-1.5v-13h34.5l34.2,93.9L279.7,630 L279.7,630z M278.9,584.9l-4.8-13.1l-4.8,13.1H278.9L278.9,584.9z"></path> <path style="fill:#FFCE00;" d="M183.4,630.1h-2.3H179c-0.3,0-0.5,0-0.8,0h-22.8v-16.2h6.6c0.1,0,0.1,0,0.2,0c0.1,0,0.2,0,0.2,0 c0.1,0,0.1,0,0.1,0s0.1,0,0.1-0.1c0.1-0.1,0.3-0.2,0.5-0.6c0.1-0.2,0.2-0.4,0.3-0.6c0.1-0.2,0.2-0.4,0.3-0.7c0-0.1,0.1-0.3,0.1-0.4 c0.1-0.4,0.2-0.9,0.3-1.3l0.1-0.3c0-0.2,0.1-0.4,0.1-0.6v-0.1c0-0.4,0-1.5,0-2.5v-0.4v-48.7c0-0.1,0-0.2,0-0.3V557 c0-0.1,0-0.3-0.1-0.5c0-0.1,0-0.2-0.1-0.3c-0.1-0.5-0.2-0.9-0.3-1.4c0-0.1-0.1-0.3-0.1-0.4c-0.1-0.3-0.2-0.5-0.3-0.7 s-0.2-0.4-0.3-0.6c-0.2-0.4-0.4-0.6-0.5-0.6s-0.1-0.1-0.1-0.1h-0.1c0,0-0.1,0-0.2,0c-0.1,0-0.1,0-0.2,0h-6.6v-16.1h45.4 c14.4,0,26.2,11.8,26.2,26.2c0,4.7-1.3,9.3-3.6,13.2c9.2,4.9,15.2,14.5,15.2,25.5c0,10.5-5.7,20.1-14.8,25.2 c-1.5,0.8-3.1,1.6-4.8,2.1c-1,0.4-4.4,1.2-7.7,1.5c-1.2,0.1-11.1,0.2-22.2,0.2h-0.9l0,0h-2.1L183.4,630.1L183.4,630.1L183.4,630.1z M205.9,612.9c0.2,0,0.4,0,0.6,0h0.1c0.6,0,1.2-0.1,1.7-0.2c4.4-1.1,7.7-6.1,7.7-11.6c0-6.1-3.7-11.2-8.7-11.8h-0.2 c-0.1,0-0.3,0-0.5,0h-18.2v23.8L205.9,612.9L205.9,612.9z M199.9,572.1c0.6,0,1.2-0.1,1.7-0.2c4.5-1,7.7-5,7.7-9.6 c0-5.1-3.8-9.3-8.8-9.8h-0.2c-0.1,0-0.4,0-0.6,0h-11.5v19.7L199.9,572.1L199.9,572.1z"></path> <path style="fill:#FFCE00;" d="M20.1,304.8c1.1-0.8,2.4-1.4,3.8-1.7c5.7-1.3,11.3,2.2,12.6,7.9c1.3,5.7-2.2,11.3-7.9,12.6 c-2.7,0.6-5.6,0.1-8-1.3c-0.4-0.3-0.8-0.5-1.1-0.8l-0.2,6.1c7.8,3.9,17.2,0.8,21.1-7c3.7-7.3,1.1-16.2-5.8-20.5 c-2.6-1.7-5.5-2.5-8.6-2.5l0.3-7.6l10.2-2.3l-1.3-5.6l-14.4,3.3L20.1,304.8L20.1,304.8z"></path> <path style="fill:#FFCE00;" d="M61.7,275.7c-12.1,2.7-19.8,14.7-17.1,26.8c2.7,12.1,14.7,19.8,26.8,17.1 c12.1-2.7,19.8-14.7,17.1-26.8c-1.3-5.9-4.9-11-10.1-14.2C73.4,275.4,67.4,274.4,61.7,275.7L61.7,275.7z M80.6,306 c-4.8,7.6-14.9,9.8-22.5,5s-9.8-14.9-5-22.5s14.9-9.8,22.5-5c3.6,2.3,6.2,5.9,7.1,10.1C83.8,297.9,83,302.4,80.6,306L80.6,306z"></path> <path style="fill:#FFCE00;" d="M108.4,264.9c-12.1,2.7-19.8,14.7-17.1,26.8s14.7,19.8,26.8,17.1c12.1-2.7,19.8-14.7,17.1-26.8 c-1.3-5.9-4.9-11-10.1-14.2C120.2,264.5,114.2,263.5,108.4,264.9L108.4,264.9z M127.4,295.2c-4.8,7.6-14.9,9.8-22.5,5 s-9.8-14.9-5-22.5s14.9-9.8,22.5-5c3.6,2.3,6.2,5.9,7.1,10.1C130.5,287,129.8,291.5,127.4,295.2L127.4,295.2L127.4,295.2z"></path> <polygon style="fill:#FFCE00;" points="162,282.2 170.3,266 162.4,267.8 157,279.9 146.8,271.4 138.9,273.3 153.5,284.2 144.2,302.6 151.7,300.9 158.5,286.5 170.9,296.4 178.4,294.7 "></polygon> <path style="fill:#FFCE00;" d="M966.8,323.7l14-11l-7.4-1.7l-10,8.5l-5.5-12l-7.9-1.8l8.3,16L942,334.3l7.5,1.7l12.2-10l6.8,14.2 l7.9,1.8L966.8,323.7L966.8,323.7z"></path> <polygon style="fill:#FFCE00;" points="809.5,265.6 815.7,267 807.2,304 813.2,305.3 822.9,262.9 810.7,260.1 "></polygon> <path style="fill:#FFCE00;" d="M892.8,285c-6.6-10.2-20.1-13.1-30.3-6.5s-13.1,20.1-6.5,30.3c6.6,10.2,20.1,13.1,30.3,6.5 c4.8-3.1,8.2-8.2,9.5-13.8C897.2,295.7,896.1,289.9,892.8,285L892.8,285z M882.9,310.7c-7.7,4.7-17.7,2.4-22.4-5.3 c-4.7-7.7-2.4-17.7,5.3-22.4c7.7-4.7,17.7-2.4,22.4,5.3c2.3,3.6,3,8,2,12.2C889.3,304.7,886.7,308.4,882.9,310.7z"></path> <path style="fill:#FFCE00;" d="M939.6,295.8c-6.6-10.2-20.1-13.1-30.3-6.5s-13.1,20.1-6.5,30.3c6.6,10.2,20.1,13.1,30.3,6.5 c4.8-3.1,8.2-8.2,9.5-13.8C944,306.5,942.9,300.7,939.6,295.8L939.6,295.8z M929.7,321.5c-7.7,4.7-17.7,2.4-22.4-5.3 c-4.7-7.7-2.4-17.7,5.3-22.4c7.7-4.7,17.7-2.4,22.4,5.3c2.3,3.6,3,8,2,12.2C936.1,315.5,933.5,319.2,929.7,321.5L929.7,321.5z"></path> <path style="fill:#FFCE00;" d="M830.5,283.5c1.3-0.2,2.7-0.2,4,0.1c5.6,1.3,9,6.8,7.7,12.4s-6.8,9-12.4,7.7c-2.7-0.6-5-2.3-6.5-4.6 c-0.2-0.4-0.5-0.8-0.7-1.2l-2.8,5.2c5.2,6.8,14.8,8.1,21.6,2.9c6.4-4.9,8-13.8,3.7-20.5c-1.5-2.6-3.8-4.6-6.5-5.9l3.5-6.6l10,2.3 l1.3-5.4l-14.1-3.3L830.5,283.5L830.5,283.5z"></path> <path id="Shape_00000040541709403781856770000002505458042668340373_" style="fill:#FFCE00;" d="M364.3,710.7c2-2.8,3-6.1,3-9.5 c0-4.8-1.7-8.9-5.1-12.3c-3.4-3.4-7.5-5.1-12.3-5.1h-21.6v54h8.9v-19.7h10.5l11.4,19.7h9.7l-12.3-21 C359.7,715.7,362.4,713.5,364.3,710.7L364.3,710.7L364.3,710.7z M349.9,710.3h-12.7v-18.1h12.7c2.3,0,4.5,0.9,6,2.6 c3.3,3.6,3.3,9.2,0,12.8C354.4,709.4,352.2,710.4,349.9,710.3L349.9,710.3z M412.8,714.6c-0.9-1-1.8-1.9-2.8-2.7 c-0.9-0.7-2.2-1.4-3.9-2.2c-1.7-0.7-3.1-1.2-4-1.6c-1-0.3-2.5-0.8-4.5-1.5c-4.1-1.3-7-2.5-8.5-3.7c-1.5-1.1-2.4-2.9-2.4-4.7 c0-2.1,0.8-3.7,2.3-4.9s3.6-1.8,6.2-1.8c5.3,0,9.1,2.5,11.3,7.6l7.5-4.3c-1.6-3.6-4.2-6.6-7.5-8.7c-3.2-2.1-7-3.2-11.3-3.2 c-4.8,0-8.9,1.4-12.3,4.2s-5.1,6.6-5.1,11.4c0,2.4,0.4,4.5,1.3,6.3s2.3,3.4,4,4.5c1.6,1.1,3.3,2,5.1,2.8c2,0.8,4.1,1.5,6.3,2.2 c4.6,1.4,7.8,2.7,9.6,3.8s2.7,2.8,2.7,5.1c0,2-0.9,3.9-2.5,5.1c-1.7,1.3-4.2,2-7.5,2c-6.8,0-11.3-3-13.4-9.1l-7.6,4.5 c1.4,4,4,7.4,7.6,9.7c3.6,2.4,8,3.5,13.2,3.5c5.7,0,10.3-1.4,13.9-4.3s5.3-6.7,5.3-11.6c0-1.6-0.2-3.2-0.6-4.7 C414.5,717,413.8,715.7,412.8,714.6L412.8,714.6z M422.1,692.4h15.3V738h8.9v-45.5h15.2V684h-39.4V692.4L422.1,692.4z M255.1,738 H266v-27h27.1v-10.5H266v-18.7h28.1v-10.5h-39V738L255.1,738z M305,738h8.9v-54H305V738z M554,714.9h21.6v-8.4H554v-14h23.5V684 h-32.4v54h32.8v-8.5H554V714.9L554,714.9z M712.9,682.9c-7.8,0-14.4,2.7-19.9,8.1c-5.4,5.4-8.1,12.1-8.1,19.9 c0,7.8,2.7,14.4,8.1,19.9s12.1,8.1,19.9,8.1c7.8,0,14.4-2.7,19.9-8.1s8.1-12.1,8.1-19.9c0-7.8-2.7-14.4-8.1-19.9 C727.3,685.6,720.7,682.9,712.9,682.9L712.9,682.9L712.9,682.9z M726.5,724.8c-3.7,3.7-8.2,5.5-13.6,5.5s-9.9-1.8-13.6-5.5 c-3.7-3.7-5.5-8.3-5.5-13.9s1.8-10.2,5.5-13.9s8.2-5.5,13.6-5.5s9.9,1.8,13.6,5.5c3.7,3.7,5.5,8.3,5.5,13.9S730.2,721.1,726.5,724.8 L726.5,724.8z M625.9,710.7c2-2.8,3-6.1,3-9.5c0-4.8-1.7-8.9-5.1-12.3s-7.5-5.1-12.3-5.1h-21.6v54h8.9v-19.7h10.5l11.4,19.7h9.7 l-12.3-21C621.2,715.7,623.9,713.5,625.9,710.7L625.9,710.7z M611.5,710.3h-12.7v-18.1h12.7c2.3,0,4.5,0.9,6,2.6 c3.3,3.6,3.3,9.2,0,12.8C615.9,709.4,613.7,710.4,611.5,710.3L611.5,710.3L611.5,710.3z M674.4,714.6c-0.9-1-1.8-1.9-2.8-2.7 c-0.9-0.7-2.2-1.4-3.9-2.2c-1.7-0.7-3.1-1.2-4-1.6c-1-0.3-2.5-0.8-4.5-1.5c-4.1-1.3-7-2.5-8.5-3.7c-1.5-1.1-2.4-2.9-2.4-4.7 c0-2.1,0.8-3.7,2.3-4.9s3.6-1.8,6.2-1.8c5.3,0,9.1,2.5,11.3,7.6l7.5-4.3c-1.6-3.6-4.2-6.6-7.5-8.7c-3.2-2.1-7-3.2-11.3-3.2 c-4.8,0-8.9,1.4-12.3,4.2c-3.4,2.8-5.1,6.6-5.1,11.4c0,2.4,0.4,4.5,1.3,6.3c0.9,1.8,2.3,3.4,4,4.5c1.6,1.1,3.3,2,5.1,2.8 c2,0.8,4.1,1.5,6.3,2.2c4.6,1.4,7.8,2.7,9.6,3.8c1.8,1.2,2.7,2.8,2.7,5.1c0,2-0.9,3.9-2.5,5.1c-1.7,1.3-4.2,2-7.5,2 c-6.8,0-11.3-3-13.4-9.1l-7.6,4.5c1.4,4,4,7.4,7.6,9.7c3.6,2.4,8,3.5,13.2,3.5c5.7,0,10.3-1.4,13.9-4.3c3.5-2.9,5.3-6.7,5.3-11.6 c0-1.6-0.2-3.2-0.6-4.7C676.1,717,675.3,715.7,674.4,714.6L674.4,714.6L674.4,714.6z M513.9,671.3h-24.6V738h10.9v-22.8h13.6 c6.3,0,11.5-2.1,15.8-6.3c4.2-4.2,6.3-9.4,6.3-15.6c0-6.2-2.1-11.4-6.3-15.6C525.4,673.4,520.1,671.3,513.9,671.3L513.9,671.3z M521.8,701.5c-2.1,2.2-4.8,3.3-8,3.3h-13.6v-23.2h13.6c3.2,0,5.9,1.1,8,3.3s3.1,5,3.1,8.3C525,696.6,523.9,699.4,521.8,701.5 L521.8,701.5L521.8,701.5z M784.7,683.9v36.7l-25.5-36.7h-6.9v54h8.9v-36.7l25.5,36.7h6.9v-54H784.7L784.7,683.9z"></path> <path id="Path-5_00000070797526694466132510000000040002632244785069_" style="fill-rule:evenodd;clip-rule:evenodd;fill:#FFCE00;" d=" M166.8,666.6c26.5-14.2,60.8,0.8,63.4,36.8C180.9,707.3,175,685.1,166.8,666.6z"></path> <path id="Path-7_00000149367024305364704460000002479639474513150353_" style="fill-rule:evenodd;clip-rule:evenodd;fill:#FFCE00;" d=" M166.8,746.6c26.5,14.2,60.8-0.8,63.4-36.8C180.9,705.9,175,728.1,166.8,746.6z"></path> </svg> 