<?xml version="1.0" encoding="UTF-8"?> <svg xmlns="http://www.w3.org/2000/svg" xmlns:xlink="http://www.w3.org/1999/xlink" version="1.1" id="Layer_1" x="0px" y="0px" viewBox="0 0 1000 1000" style="enable-background:new 0 0 1000 1000;" xml:space="preserve"> <path id="Shape_00000040541709403781856770000002505458042668340373_" style="fill:#FFCE00;" d="M374.6,795.8 c2.1-2.9,3.2-6.4,3.1-10c0-5.1-1.8-9.4-5.3-13s-7.9-5.3-13-5.3h-22.8v57h9.4v-20.8h11l12.1,20.8h10.3l-12.9-22.2 C369.7,801.1,372.5,798.8,374.6,795.8L374.6,795.8L374.6,795.8z M359.4,795.4H346v-19.1h13.4c2.4,0,4.7,1,6.4,2.8 c3.5,3.8,3.5,9.7,0,13.5C364.1,794.4,361.8,795.4,359.4,795.4L359.4,795.4z M425.7,800c-0.9-1-1.9-2-3-2.9c-0.9-0.8-2.3-1.5-4.1-2.3 c-1.8-0.8-3.2-1.3-4.2-1.7s-2.6-0.9-4.8-1.6c-4.3-1.4-7.3-2.6-9-3.9c-1.6-1.1-2.6-3-2.5-5c0-2.2,0.8-3.9,2.4-5.2s3.8-1.9,6.5-1.9 c5.6,0,9.6,2.7,12,8l7.9-4.6c-1.7-3.8-4.4-6.9-7.9-9.2c-3.4-2.2-7.4-3.3-12-3.3c-5,0-9.4,1.5-12.9,4.4c-3.6,3-5.4,7-5.4,12 c0,2.6,0.5,4.8,1.4,6.7s2.4,3.6,4.2,4.8c1.7,1.2,3.5,2.2,5.3,3c2.2,0.9,4.4,1.6,6.6,2.3c4.8,1.5,8.2,2.8,10.1,4s2.8,3,2.9,5.3 c0,2.1-0.9,4.1-2.6,5.4c-1.8,1.4-4.4,2.1-7.9,2.1c-7.2,0-11.9-3.2-14.2-9.6l-8.1,4.7c1.4,4.2,4.3,7.9,8,10.3c3.8,2.5,8.5,3.7,14,3.7 c6,0,10.9-1.5,14.6-4.5s5.6-7.1,5.6-12.3c0-1.7-0.2-3.4-0.7-5C427.5,802.4,426.8,801.1,425.7,800L425.7,800z M435.5,776.5h16.1v48.1 h9.4v-48.1h16v-9h-41.5V776.5L435.5,776.5z M259.3,824.6h11.6V796h28.6v-11h-28.6v-19.7h29.6v-11h-41.2V824.6L259.3,824.6z M311.9,824.6h9.4v-57h-9.4V824.6z M574.7,800.2h22.8v-8.9h-22.8v-14.8h24.8v-9h-34.2v57H600v-9h-25.2L574.7,800.2L574.7,800.2z M742.4,766.5c-8.3,0-15.2,2.9-21,8.6c-5.7,5.7-8.6,12.7-8.6,21s2.9,15.2,8.6,21c5.7,5.7,12.7,8.6,21,8.6s15.2-2.9,21-8.6 s8.6-12.7,8.6-21s-2.9-15.2-8.6-21C757.6,769.3,750.6,766.5,742.4,766.5L742.4,766.5L742.4,766.5z M756.8,810.7 c-3.9,3.9-8.7,5.8-14.4,5.8s-10.5-1.9-14.4-5.8c-3.9-3.9-5.8-8.8-5.8-14.6c0-5.9,1.9-10.7,5.8-14.6c3.9-3.9,8.7-5.8,14.4-5.8 s10.5,1.9,14.4,5.8c3.9,3.9,5.8,8.8,5.8,14.6S760.6,806.8,756.8,810.7L756.8,810.7z M650.5,795.8c2.1-2.9,3.2-6.4,3.1-10 c0-5.1-1.8-9.4-5.3-13c-3.6-3.6-7.9-5.3-13-5.3h-22.8v57h9.4v-20.8H633l12.1,20.8h10.3l-12.9-22.2 C645.7,801.1,648.5,798.8,650.5,795.8L650.5,795.8z M635.4,795.4H622v-19.1h13.4c2.4,0,4.7,1,6.4,2.8c3.5,3.8,3.5,9.7,0,13.5 C640.1,794.4,637.8,795.4,635.4,795.4L635.4,795.4L635.4,795.4z M701.7,800c-0.9-1-1.9-2-3-2.9c-0.9-0.8-2.3-1.5-4.1-2.3 s-3.2-1.3-4.2-1.7s-2.6-0.9-4.8-1.6c-4.3-1.4-7.3-2.6-9-3.9c-1.6-1.1-2.6-3-2.5-5c0-2.2,0.8-3.9,2.4-5.2c1.6-1.3,3.8-1.9,6.5-1.9 c5.6,0,9.6,2.7,12,8l7.9-4.6c-1.7-3.8-4.4-6.9-7.9-9.2c-3.4-2.2-7.4-3.3-12-3.3c-5,0-9.4,1.5-12.9,4.4c-3.6,3-5.4,7-5.4,12 c0,2.6,0.5,4.8,1.4,6.7s2.4,3.6,4.2,4.8c1.7,1.2,3.5,2.2,5.3,3c2.2,0.9,4.4,1.6,6.6,2.3c4.8,1.5,8.2,2.8,10.1,4 c1.9,1.2,2.8,3,2.8,5.3c0,2.1-0.9,4.1-2.6,5.4c-1.8,1.4-4.4,2.1-7.9,2.1c-7.2,0-11.9-3.2-14.2-9.6l-8.1,4.7c1.4,4.2,4.3,7.9,8,10.3 c3.8,2.5,8.5,3.7,14,3.7c6,0,10.9-1.5,14.6-4.5c3.7-3,5.6-7.1,5.6-12.3c0-1.7-0.2-3.4-0.7-5C703.5,802.4,702.8,801.1,701.7,800 L701.7,800L701.7,800z M532.4,754.2h-25.9v70.3H518v-24.1h14.4c6.6,0,12.2-2.2,16.6-6.7c4.5-4.5,6.7-9.9,6.7-16.4 c0-6.6-2.2-12.1-6.7-16.5C544.5,756.4,539,754.2,532.4,754.2L532.4,754.2z M540.8,786.1c-2.2,2.3-5,3.5-8.4,3.5H518v-24.5h14.4 c3.4,0,6.2,1.2,8.4,3.5s3.3,5.2,3.3,8.8C544.1,780.9,543,783.8,540.8,786.1L540.8,786.1L540.8,786.1z M818.2,767.5v38.7l-26.9-38.7 H784v57h9.4v-38.7l26.9,38.7h7.3v-57H818.2L818.2,767.5z"></path> <path id="Path-5_00000070797526694466132510000000040002632244785069_" style="fill-rule:evenodd;clip-rule:evenodd;fill:#FFCE00;" d=" M163.1,739.2c28-14.9,64.1,0.8,66.9,38.9C178.1,782.2,171.8,758.8,163.1,739.2z"></path> <path id="Path-7_00000149367024305364704460000002479639474513150353_" style="fill-rule:evenodd;clip-rule:evenodd;fill:#FFCE00;" d=" M166.1,833.7c28,14.9,64.1-0.8,66.9-38.9C181.1,790.8,174.8,814.1,166.1,833.7z"></path> <path style="fill:#FFCE00;" d="M35,490.1c0.5-0.4,1-0.7,1.4-1.1c8.1-8.1,12.4-18.3,15.4-29.1c3.1-11,4.6-22.1,4.9-33.6 c0.3-13.2,5.8-23.8,16.9-31.2c5.8-3.9,12.3-5.5,19.4-5c9.9,0.6,19.8,1.1,29.7,1.7c11.9,0.7,23.8,1.4,35.6,2.1c0.9,0.1,1.7,0,2.8,0 c0-0.7,0.1-1.3,0.1-2c0-5.4-0.1-10.8,0-16.3c0.2-13.1,1.6-26.1,5.6-38.7c3.9-12.5,9.9-23.8,18.7-33.5c9.9-11,22-18.4,36-22.8 c9.2-2.9,18.7-4.5,28.3-4.6c5.9-0.1,11.8,0.2,17.8,0.3c5.6,0.1,11.2,0.2,16.8,0.3c0.9,0,1.8,0,2.6,0.1c1,0.1,1.6-0.2,2-1.1 c1.9-3.7,3.8-7.4,6-11c11-18.3,25.8-32.5,44.9-42.2c9.8-5,20.1-8.4,30.8-10.5c10-2,20.1-3,30.3-3c0.4,0,0.9,0,1.3-0.1 c1.1-3.1,2-6.2,3.1-9.2c8.2-21.6,22.5-38,42.3-49.7c12.1-7.2,25.2-11.6,39.2-13.2c3.8-0.5,7.7-0.5,11.6-0.8c0.5,0,0.9-0.2,1.4-0.3 c2.1,0,4.2,0,6.4,0c0.7,0.1,1.3,0.3,2,0.3c27.2,0.7,50.8,10.3,70.4,29.3c12.2,11.8,20.4,26,25,42.3c0.1,0.4,0.3,0.8,0.4,1.4 c2.6,0.1,5.2,0.2,7.8,0.3c15.1,0.6,29.8,3.3,44,8.7c21.6,8.3,38.9,22.1,51.9,41.2c3.6,5.3,6.8,10.8,9.5,16.5 c0.5,1.1,1.1,1.5,2.3,1.4c6.1-0.2,12.2-0.3,18.3-0.4c6.9-0.1,13.8-0.5,20.8-0.2c13.2,0.5,25.9,3.3,37.9,9.1 c15.5,7.4,27.2,18.7,35.5,33.7c5.7,10.3,9.2,21.4,11.1,32.9c1.2,7.3,1.9,14.6,1.9,21.9c0,6,0,12.1,0,18.1c0,0.7,0,1.3,0,2.1 c0.7,0,1.1,0.1,1.6,0.1c9.5-0.6,18.9-1.1,28.4-1.7c7.7-0.4,15.3-0.8,23-1.3c5.3-0.3,10.6-0.7,15.9-1c9.3-0.4,17.3,2.7,24,9.1 c8.3,7.9,11.8,17.9,12,29.2c0.2,15,3.2,29.4,8.8,43.3c2.4,6,5.9,11.4,10.2,16.2c2.6,2.9,2.8,2.2,0,5.2c-7.3,7.7-11.2,17.1-14.1,27.1 c-3.2,11.2-4.8,22.6-5.1,34.3c-0.4,13.7-6.2,24.7-18.2,32.1c-6,3.7-12.6,4.8-19.6,4.3c-8.3-0.6-16.7-1-25-1.5 c-11.6-0.7-23.3-1.4-34.9-2.1c-7.4-0.4-14.8-0.8-22.2-1.3c-9.8-0.6-19.5-1.2-29.3-1.7c-8-0.5-16.1-0.9-24.1-1.4 c-8.2-0.5-16.3-0.9-24.5-1.4c-11.7-0.7-23.4-1.4-35.1-2.1c-9.6-0.6-19.3-1.1-28.9-1.6c-9.6-0.6-19.2-1.2-28.7-1.7 c-7.5-0.4-15.1-0.8-22.6-1.3c-9.5-0.6-19-1.1-28.6-1.7c-7.1-0.4-14.2-0.8-21.3-1.2c-8-0.5-15.9-1-23.9-1.4 c-7.3-0.4-14.6-0.8-21.8-1.2c-7.7-0.4-15.4-0.9-23.1-1.4c-4.9-0.3-9.7-0.7-14.6-0.8c-3.7-0.1-7.3,0.2-11,0.4 c-5.6,0.3-11.2,0.7-16.8,1c-7.6,0.4-15.2,0.9-22.8,1.3c-7.7,0.4-15.4,0.9-23.1,1.3c-8.3,0.5-16.5,1-24.8,1.5 c-9.9,0.6-19.8,1.2-29.7,1.7c-7.7,0.4-15.4,0.9-23.1,1.3c-8.2,0.5-16.4,1-24.6,1.5c-10,0.6-19.9,1.2-29.9,1.7 c-7.7,0.4-15.3,0.9-23,1.3c-9.6,0.6-19.2,1.1-28.7,1.7c-7.5,0.4-15.1,0.9-22.6,1.3c-7.5,0.4-15.1,0.9-22.6,1.3 c-7.6,0.4-15.2,0.9-22.8,1.3c-7.4,0.4-14.8,0.9-22.2,1.3c-5.4,0.3-10.8,0.6-16.2,0.9c-7.7,0.4-15.3,0.9-23,1.3 c-8.5,0.5-16.9,1.2-25.4,1.4c-7.2,0.2-13.7-2.2-19.5-6.6c-8.1-6.2-12.9-14.5-14.3-24.5c-0.6-3.8-0.5-7.7-0.7-11.5 c-1-14.4-3.9-28.2-9.8-41.4c-2.6-5.9-6.5-10.9-10.8-15.6c-0.2-0.2-0.5-0.2-0.8-0.3C35,490.6,35,490.3,35,490.1z M54.9,490.5 c1.8,3.4,3.7,6.7,5.3,10.3c7.3,16.5,10.9,33.9,11.2,51.9c0,2.7,0.3,5.5,1.1,8.1c2.2,6.8,6.3,12,13.3,14.4c2.7,0.9,5.4,0.8,8.1,0.6 c9.5-0.6,18.9-1.1,28.4-1.6c7.7-0.4,15.4-0.9,23.1-1.4c9.6-0.6,19.3-1.1,28.9-1.6c7.6-0.4,15.2-0.9,22.8-1.3 c11.5-0.7,23-1.3,34.5-1.9c10.7-0.6,21.4-1.2,32.1-1.9c15.1-0.9,30.2-1.7,45.4-2.6c11.6-0.7,23.3-1.4,34.9-2.1 c12.1-0.7,24.1-1.3,36.2-2c11.6-0.7,23.3-1.4,34.9-2.1c7.8-0.5,15.6-0.8,23.3-1.3c9.6-0.6,19.2-1.1,28.7-1.7 c8.4-0.5,16.8-1,25.2-1.5c3.8-0.2,7.6-0.6,11.4-0.4c9.8,0.4,19.5,1.1,29.3,1.7c11.7,0.7,23.4,1.3,35.1,2c11.8,0.7,23.6,1.4,35.4,2.1 c11.6,0.7,23.1,1.3,34.7,2c12,0.7,24,1.5,36,2.2c13.6,0.8,27.3,1.5,40.9,2.3c12.1,0.7,24.1,1.5,36.2,2.2c14.2,0.8,28.4,1.6,42.6,2.4 c12.8,0.7,25.6,1.5,38.4,2.2c14.4,0.8,28.9,1.7,43.3,2.5c12.9,0.7,25.9,1.5,38.8,2.3c3.2,0.2,6.2-0.5,9-2.1 c7.3-4.3,10.7-11,11.1-19.2c0.3-6.5,0.6-12.9,1.6-19.4c1.6-10.6,4.2-21,8.3-31c1.9-4.8,4.3-9.4,7.1-13.8c-0.3-0.5-0.5-0.9-0.8-1.3 c-2.4-3.8-4.4-7.8-6.1-12c-6.4-16-9.7-32.5-10-49.7c-0.1-6.3-2-11.9-6.3-16.6c-3.8-4.1-8.5-6.3-14.1-6c-2.4,0.1-4.7,0.2-7.1,0.4 c-7.3,0.4-14.7,0.9-22,1.3c-5.7,0.3-11.3,0.6-17,0.9c-9.5,0.6-19,1.2-28.5,1.7c-7.8,0.4-15.6,0.8-23.3,1.3 c-9.5,0.5-18.9,1.1-28.4,1.7c-5.7,0.3-11.4,0.6-17.2,0.9c-9.8,0.6-19.5,1.2-29.3,1.7c-3.7,0.2-7.3,0.4-11,0.7 c-4.8,0.3-9.6,0.6-14.4,0.9c-3.2,0.2-6.3,0.4-9.5,0.6c-2.1,0.2-3.9,2.4-3.9,4.5c0,0.5-0.1,1.2-0.5,1.5c-0.8,0.7-1.7,1.3-2.6,1.7 c-1.4,0.6-3,0.9-4.4,1.6c-1.2,0.5-2.3,1.2-3.2,2.1c-1.7,1.7-2.7,3.9-3.8,6.1c0.9,1,1.7,1.8,2.3,2.6c1.3-0.5,2.2-0.9,3.2-1.2 c1.7-0.6,3.5-1.1,5.2-1.9c2.1-0.9,4.2-1.8,6.6-1.9c2.5-0.1,5.1-0.1,7.7,0.1c2,0.1,4,0.6,6.1,0.2c1.2-0.2,2.5-0.2,3.7,0 c3.1,0.3,5.9,1.2,6.7,4.8c0.6,2.5,2.3,3.9,4.6,4.7c0.8,0.3,1.5,0.5,2.3,0.9c0.7,0.4,1.5,0.7,2,1.3c0.8,0.9,1.7,1.2,2.7,1.4 c3,0.5,6,1.1,8.7,2.6c0.7,0.4,1.5,0.6,2.3,0.9c1.3,0.5,2.5,1,3.1,2.5c0.3,0.6,1,1.1,1.6,1.4c0.9,0.4,1.9,0.7,2.8,0.8 c2.5,0.4,5.1,0.5,7.6,0.9c2.4,0.4,4.7,0.2,6.9-0.9c2.6-1.2,5.1-2.6,7.9-4c-1.2-1.3-2.1-2.5-3.3-3.6c-1.7-1.6-4-1.9-6.3-2.1 c0-1.8,0-3.4,0-5.3c0.8,0,1.5,0,2.1,0c6.9,0,13.7,0,20.6-0.1c0.6,0,1.4,0,1.7-0.4c1.1-1.2,2.1-2.5,3-3.7c0.6-0.8,1-1.7,1.7-2.5 c2.2-2.3,3.5-1.9,4.7,0.2c0.8,1.4,1.4,2.9,1.9,4.4c0.4,1.2,0.8,2.2,2.3,2.1c0,1.8,0,3.4,0,5c-0.4,0.1-0.8,0.2-1.1,0.2 c-4,0.2-6.6,2.3-8.4,5.7c-1.6,3-2.4,6.3-2.4,9.7c0,19.4-0.1,38.8,0,58.2c0,3.9,1.2,7.6,3.6,10.8c1.4,1.9,3.4,3,5.8,3.6 c0.8,0.2,1.6,0.1,2.4,0.2c0,1.8,0,3.4,0,5.2c-0.6,0-1.2,0.1-1.7,0.1c-4.8,0-9.6,0-14.4,0c-1.1,0-2-0.2-2.5-1.2 c-0.2-0.3-0.4-0.6-0.7-0.9c-9.9-13.3-19.8-26.6-29.6-40c-11.2-15.2-22.5-30.4-33.7-45.5c-0.3-0.5-0.8-0.9-1.4-1.7c0,1,0,1.5,0,2.1 c0,22.2,0,44.4,0,66.6c0,3.3,0.8,6.4,2.3,9.3c1.5,2.9,3.7,5,7,5.6c0.8,0.2,1.6,0.2,2.5,0.3c0,1.7,0,3.3,0,5c-12.7,0-25.4,0-38.1,0 c0-1.8-0.2-3.4,0.1-5.1c5.2,0,8.2-3,10.1-7.4c1-2.4,1.6-5,1.6-7.6c0-9.5,0.1-19,0.1-28.4c0-0.8,0-1.6,0-2.5 c-2.3,0.1-4.2-0.3-5.8-1.5c-0.7,0.3-1.2,0.6-1.8,0.8c-2.2,0.8-4.5-0.2-5.1-2.1c-0.3-1.1-0.2-2.1,0.6-3c0.6-0.7,1.2-1.3,1.7-2 c1.1-1.5,0.9-2.3-0.8-3.1c-0.6-0.3-1.3-0.5-1.9-0.7c-2.6-0.9-5.2-1.7-7.8-2.6c-0.9-0.3-1.8-0.3-2.7,0c-1.8,0.7-3.7,1.5-5.6,2.2 c-0.4,0.1-0.8,0.2-1.3,0.2c0-0.5,0.1-0.8,0.3-0.8c2.2-0.9,4.4-1.7,6.6-2.5c1.1-0.4,2.2-0.2,3.3,0.2c2,0.7,4,1.4,6,2.1 c1.1,0.4,2.3,0.7,3.4,1.1c2.3,0.9,2.7,2.4,1.2,4.4c-0.5,0.7-1.2,1.3-1.7,2c-1,1.3-0.8,2.4,0.4,3.4c1.1,1,2.3,0.9,3.5,0.4 c0.6-0.3,1.2-0.6,1.8-1c1.7,1.2,3.4,2.3,5.6,1.8c0-0.5,0.1-1,0.1-1.5c0-7.9,0.1-15.8,0-23.8c0-3.6-0.7-7.1-2.3-10.3 c-1.7-3.6-4.4-5.8-8.6-6c-0.3,0-0.6-0.1-1-0.2c-0.1-1.7-0.2-3.4,0-5.1c0.3-0.1,0.5-0.1,0.6-0.1c8.1,0,16.2,0,24.3-0.1 c1.1,0,1.5,0.6,2.1,1.3c3.6,4.9,7.2,9.9,10.8,14.8c14.9,20.1,29.8,40.2,44.6,60.3c0.4,0.5,0.8,1,1.4,1.7c0-19.1,0-37.9,0-56.8 c-0.8-0.2-1.4-0.4-2.1-0.5c-0.4-1-0.8-2-1.2-2.9c-0.5-1.2-1.5-1.7-2.7-1.6c-1.9,0.2-3.7,0.5-5.6,0.7c-1.7,0.1-3.5,0.3-5.2,0.2 c-2-0.1-4.1-0.4-6.1-0.7c-1.7-0.3-3.4-0.6-5.1-1.1c-0.9-0.3-1.8-1-2.3-1.8c-0.7-1.3-1.7-1.9-3-2.3c-0.6-0.2-1.2-0.3-1.7-0.6 c-2.9-1.6-6-2.3-9.3-2.8c-0.8-0.1-1.7-0.4-2.2-0.9c-1-1.1-2.2-1.8-3.6-2.2c-3.4-1-5.8-3-6.7-6.6c-0.3-1.3-1.2-2.1-2.5-2.5 c-1.5-0.4-2.9-0.7-4.4-0.6c-2,0.1-4.1,0.1-6.2,0.1c-2.5-0.1-5-0.3-7.5-0.3c-1.9,0-3.8,0.4-5.6,1.3c-2.4,1.1-4.8,2.3-7.5,2.8 c-1.7,0.3-2.4,1.5-2.5,3.3c0,1,0,2.1,0,3.2c-0.5,0.1-0.8,0.2-1.1,0.2c-3.7,0.1-6.3,2-8.1,5.1c-1.7,3-2.7,6.3-2.7,9.8 c0,19.5,0,39,0,58.6c0,3.2,0.9,6.2,2.3,9c1.8,3.5,4.7,5.6,8.8,5.7c0.2,0,0.3,0.1,0.5,0.2c0,1.7,0,3.3,0,4.9 c-3.9,0.4-36.8,0.2-38-0.2c0-1.6,0-3.2,0-4.8c0.3-0.1,0.5-0.1,0.6-0.1c4.4-0.1,7.2-2.4,9-6.2c1.4-3,2.1-6.1,2.1-9.4 c0.1-2.9,0-5.7,0-8.6c0-15,0-29.9,0-44.9c0-0.5-0.1-1-0.1-1.5c-0.7,0-1.2,0-1.8,0c-3.3,0.3-5.8-0.9-7.4-4c-0.8-1.6-1.9-3.1-3.1-4.4 c-2.3-2.5-4.7-2.7-7.5-1c-1.5,0.9-2.9,2-4.4,2.9c-1.6,1-3.3,1.4-5.1,1.5c0.1-1.9,0.1-1.8,1.4-2.3c1.1-0.5,2.3-1,3.3-1.7 c1.3-0.8,2.5-1.7,3.8-2.4c3.3-1.7,7.2-1.3,9.9,1.1c1.1,1,2,2.2,2.8,3.4c0.8,1.2,1.5,2.4,2.3,3.6c0.6,0.9,1.5,1.4,2.5,1.4 s2.1-0.1,3.2-0.1c0.1-0.5,0.2-0.8,0.1-1.1c-0.3-3.4-1-6.7-2.7-9.6c-1.8-3.1-4.4-4.9-8-5c-0.4,0-0.7-0.1-1.1-0.2c0-1.7,0-3.3,0-5.1 c0.8,0,1.6,0,2.3,0c9.9,0,19.7,0,29.6-0.1c0.6,0,1.3,0.2,1.9-0.3c-0.4-0.5-0.7-0.9-0.9-1.3c-1.2-1.8-1.3-3.6-0.1-5.4 c0.7-1,1.2-2,1.8-3.1c1.5-2.7,3.7-4.4,6.7-5.3c1.2-0.4,2.5-0.8,3.7-1.3c0.5-0.2,1.1-0.5,1.3-1c0.4-1.1,0.5-2.3,0.8-3.6 c-2.7,0.1-5.3,0.1-7.9,0.3c-7.3,0.4-14.7,0.9-22,1.3c-7.8,0.4-15.6,0.8-23.3,1.3c-9.7,0.6-19.4,1.2-29.1,1.7 c-5.5,0.3-11,0.6-16.4,0.9c-7.5,0.4-14.9,0.9-22.4,1.3c-7.7,0.4-15.4,0.8-23.1,1.3c-9.6,0.6-19.3,1.2-28.9,1.7 c-6.1,0.4-12.2,0.7-18.3,1.1c-2.7,0.1-5.4,0.3-8,0.3s-5.2-0.3-7.8-0.5c-9.4-0.5-18.8-1.1-28.2-1.6c-9.8-0.6-19.5-1.2-29.3-1.8 c-7.3-0.4-14.6-0.8-21.8-1.2c-9.8-0.6-19.5-1.2-29.3-1.8c-7.2-0.4-14.4-0.8-21.6-1.2c-5.8-0.3-11.6-0.7-17.4-1 c-6.2-0.4-12.3-0.7-18.5-1c-0.7,0-1.4,0-2.1,0.1c-0.7,2.3-0.5,3.2,1.1,4.4c1,0.8,2.2,1.4,3.4,1.9c1.4,0.6,2.9,1,4.7,1.6 c0,1.1,0.1,2.4,0,3.6c-0.3,2.6,0.8,4.2,3.2,5.2c1.2,0.5,2.3,1.3,3.2,2.2c0.8,0.8,1.5,1.1,2.6,1.1c5.8,0,11.6,0,17.4,0 c0.7,0,1.3,0,2,0c0,1.9,0,3.5,0,5.2c-5.1,0-8.1,2.8-10,7.1c-1.3,3-1.8,6.1-1.9,9.3c0,7.7,0,15.5,0,23.2c0,0.6,0,1.2,0,1.9 c16.5,0,32.8,0,49.3,0c0-1.5,0-2.9,0-4.4c0-1.4,0-2.8,0-3.9c-2-1.1-3.6-2.1-5.3-3.1c-0.8-0.4-1.5-1-2.2-1.4c-3-1.7-5.8-1.2-7.9,1.6 c-1,1.4-1.8,3.1-2.6,4.8c-0.6,1.3-1,2.7-1.6,4c-1,2.2-1.5,2.4-3.8,1.7c0.5-0.8,1.1-1.5,1.5-2.3c0.6-1.3,1.1-2.8,1.7-4.1 c0.8-1.6,1.5-3.3,2.5-4.8c2.5-3.8,7.4-5.5,12-2.6c1.2,0.8,2.4,1.5,3.6,2.3c0.6,0.4,1.3,0.7,2,1c0.1-0.4,0.2-0.5,0.2-0.7 c0-4.6,0.1-9.2,0-13.8c-0.1-3.3-0.8-6.6-2.3-9.6c-1.8-3.7-4.6-6-8.9-6.1c-0.2,0-0.5-0.1-0.7-0.1c0-1.7,0-3.3,0-4.9 c12.7,0,25.3,0,37.9,0c0,1.7,0,3.4,0,5.1c-5.1,0.1-8.1,2.8-9.9,7.1c-1.3,2.9-1.9,6.1-1.9,9.3c0,18.3,0,36.7,0,55 c0,3.1,0.6,6.1,1.6,9c0.7,2,1.7,3.7,3.1,5.3c0.7,0.7,1.3,0.8,2.2,0.1c0-0.7-0.1-1.5-0.1-2.3c-0.1-1.6-0.2-3.1-0.2-4.7 c-0.1-2.1,1-3.4,2.7-4.3c2.3-1.2,4.6-0.9,6.8,0.2c1.8,0.9,3.4,2,5.4,3.2c2.7-1.3,5.7-2.7,8.7-4.1c1-0.5,1.6-1.3,2-2.3 c1.1-2.9,2.3-5.8,4.2-8.3c1.1-1.6,2.6-2.4,4.5-2.8c0.4-0.1,0.8-0.1,1.3-0.2c-1.2-0.5-2.4-0.6-3.6-0.8c-1.2-0.2-2.5-0.2-3.7-0.6 c-2.7-0.8-4.5-2.7-5-5.5c-0.3-1.6-0.3-3.2-0.3-4.8c0.1-1.8-0.6-3-2.1-3.8s-3-1.6-4.4-2.5c-1.3-0.8-2.5-1.2-4-1 c-1.3,0.2-2.7,0.2-4.1,0.3c-3.6,0.2-6.3-1.5-8.8-3.8c-1-0.9-1.9-1.8-2.9-2.6c-0.5-0.4-0.8-0.9-0.8-1.6s0-1.3,0-2.3 c2.1,1.3,3.9,2.2,5.3,3.7c2.6,2.8,5.5,4.7,9.5,3.8c0.9-0.2,1.9-0.2,2.8-0.2c1.1,0.1,2.3,0,3.3,0.4c2.4,1.2,4.8,2.7,7.1,4.1 c1.3,0.8,1.9,2.1,2,3.6c0,1.1,0,2.2,0.1,3.4c0.1,1.4,0.1,2.7,0.9,3.9c1.2,1.8,3,2.6,5.1,2.6c3.2,0.1,6.3,0.8,9.2,2.2 c0.7,0.3,1.5,0.6,2.3,0.8c2.5,0.7,3.9-0.1,4.8-2.5c0.4-1.2,0.6-2.4,0.9-3.6c0.5-2.1,0.9-4.3,2.2-6.1c0.5-0.8,0.7-1.5,0.7-2.4 c0-10.5,0.1-20.9,0.1-31.4c0-3.7,0-7.5,0-11.2c0-0.7,0-1.3,0-2.1c-0.8,0-1.5,0-2.1,0c-3.8,0-7.6,0-11.4,0c-2,0-4,0.1-6,0.4 c-2.6,0.3-5.1,1-7.4,2.3c-3,1.7-5.2,4-5.5,7.7c0,0.5-0.2,1-0.4,1.4c-1.7,0-3.3,0-5,0c0-5.7,0-11.3,0-17c29.9,0,59.8,0,89.6,0 c0,5.7,0,11.3,0,17c-1.8,0-3.5,0-5.2,0c0-5.2-2.9-8.3-7.4-10.1c-2.9-1.2-6-1.7-9.1-1.7c-4.8-0.1-9.6,0-14.4,0c-0.5,0-1,0.1-1.4,0.1 c-0.4,3-0.2,40,0.3,42.7c0.7-0.1,1.3-0.2,1.9-0.4c4.5-1.9,9-4,12.5-7.7c3.3-3.5,7.4-3.9,11.7-2.7c1.6,0.5,3.1,1.5,4.8,2.3 c0.6-0.3,1.2-0.7,1.9-0.9c2.7-1,4.9-2.6,6.6-5c2.1-3.1,5.4-4.7,8.7-5.7c3.1-1,6.4-1,9.4,0.9c0.2,0.1,0.4,0.1,0.8,0.2 c0-2.7,0.1-5.2,0-7.8c-0.1-3.5-0.8-6.9-2.5-10.1s-4.1-5.3-7.8-5.6c-0.5,0-1.1-0.2-1.6-0.3c0-1.8,0-3.4,0-5c8.7,0,17.3,0,25.9,0 l0.1,0.1c18.5,24.9,36.9,49.8,55.4,74.8c0.7,0.9,1.3,1.8,2,2.7c0,0,0.1,0.1,0.2,0.1c0.1,0,0.1,0,0.2,0c0.1,0,0.1-0.1,0.1,0 c0-8.4,0-16.7,0-25.3c-1,0.4-2,0.6-2.7,1.1c-1.3,0.8-2.6,1.7-3.8,2.7c-0.6,0.5-1.2,0.8-2,0.6c-2.3-0.5-4.6-1.1-6.9-1.6 c-1.1-0.2-1.8-0.9-2.2-2.2c0.6,0.2,1,0.3,1.4,0.4c1.7,0.5,3.5,0.9,5.2,1.5c1.9,0.6,3.6,0.7,5.1-1c0.6-0.6,1.4-1,2.2-1.4 c1.2-0.5,2.5-1,3.8-1.4c0.4-4.5,0.2-24.4-0.3-25.8c-2.4,1.7-5.1,1.8-7.9,1.8c-0.7,0-1.4,0-2,0.2c-0.7,0.1-1.3,0.3-1.9,0.7 c-1.2,0.7-2.3,1.5-3.5,2.1c-2.1,1.1-2.9,2.6-2.4,5c0.4,2,0,4-1.5,5.6c-1.1,1.1-2.5,1.7-3.9,2.1c-2.1,0.6-2.2,0.5-3.1-1.7 c0.8-0.2,1.7-0.4,2.5-0.6c2.3-0.8,3.4-2.4,3.2-4.8c0-0.7-0.1-1.5-0.2-2.2c-0.2-1.6,0.2-2.9,1.7-3.8s3-1.7,4.4-2.8 c1.6-1.2,3.5-1.6,5.4-1.6c0.8,0,1.6-0.1,2.4,0c2.4,0.1,4.3-1,6.1-2.3c0.6-0.5,1-1.1,0.9-1.9c-0.1-3.9-1-7.6-3.1-10.8 c-1.8-2.8-4.3-4.5-7.7-4.5c-0.3,0-0.7-0.1-1.1-0.2c0-0.9,0-1.7,0-2.5c0-0.9,0-1.7,0-2.5c2.9-0.4,36.8-0.3,38.1,0.1c0,1.7,0,3.3,0,5 c-0.4,0-0.7,0.1-1,0.1c-3.5,0.1-6,1.8-7.8,4.7c-2.1,3.4-3,7.2-3,11c-0.1,19.1-0.1,38.3,0,57.4c0,3.4,0.9,6.7,2.6,9.6 c1.5,2.6,3.7,4.5,6.8,5.1c0.8,0.2,1.6,0.2,2.4,0.3c0,1.7,0,3.4,0,5.1c-6,0-11.8,0-17.7,0c-21.9-29.5-43.8-59-65.7-88.6l-0.1-0.1 c-0.1,0-0.1-0.1-0.2-0.1c-0.1,0-0.1,0-0.3,0.1c0,0.3,0,0.7,0,1c0,22.4,0,44.9,0,67.3c0,3.8,1.1,7.4,3.2,10.6 c1.8,2.7,4.3,4.3,7.6,4.5c0.4,0,0.7,0.1,1.2,0.1c0,0.9,0,1.7,0,2.5s0,1.7,0,2.5c-12.8,0-25.4,0-38,0c0-1.8,0-3.4,0-5.1 c0.4,0,0.6-0.1,0.9-0.1c3.2-0.1,5.7-1.6,7.5-4.2c2.2-3.2,3.3-6.9,3.3-10.7c0.1-14.7,0-29.4,0-44.2c0-0.6-0.1-1.2-0.1-1.8 c-0.8-0.5-1.6-1-2.3-1.5c-2.4-1.8-5-1.9-7.6-0.6c-2.5,1.3-5.1,2.7-6.6,5.2c-1.1,1.9-2.8,3.1-4.8,4.1c-1.6,0.8-3.1,1.7-4.7,2.6 c-0.5,0.3-0.9,0.6-1.4,0.8c-0.4-0.2-0.8-0.3-1.1-0.5c-1.8-0.9-3.5-2-5.3-2.7c-2.5-1-4.9-0.6-6.9,1.5c-3.8,4-8.7,6.4-13.7,8.6 c-1.2,0.5-2.6,0.7-4,1.1c0,0.3-0.1,0.7-0.1,1c-0.1,8.7-0.2,17.3-0.2,26c0,3.2,0.8,6.3,2.2,9.2c1.9,3.7,4.8,6,9.1,6.1 c0.2,0,0.3,0.1,0.4,0.2c0,1.7,0,3.3,0,4.9c-12.7,0-25.3,0-37.9,0c0-1.8,0-3.4,0-5.1c4.7,0,7.7-2.4,9.7-6.3c1.3-2.7,2.1-5.6,2.1-8.6 c0-5,0-10,0-15c0-0.4,0-0.8,0-1.2c-0.5,0.5-0.8,1-1,1.6c-0.8,2.1-2.4,3.2-4.6,3.8c-3.1,0.8-6.3,1.1-9.4,0.2 c-2.6-0.7-4.6,0.2-5.9,2.4c-1.3,2.4-2.6,4.8-3.7,7.3c-0.5,1.2-1.2,2.2-2.4,2.7c-2.4,1.1-4.9,2.2-7.3,3.3c-1.1,0.5-2.3,1.2-3.3,1.1 c-1.1-0.2-2.1-1.2-3.1-1.9c-1.5-1.1-3.1-2.1-5-2.5c-2.6-0.5-5,1.4-5.1,4.1c0,0.9,0.1,1.7,0.1,2.6c0.1,1.9,0.4,3.8-0.5,5.7 c0.8,0.2,1.5,0.4,2.2,0.6c0.7,0.2,1.4,0.2,2.2,0.3c0,1.7,0,3.3,0,4.9c-2.2,0.4-36.6,0.3-38-0.1c0-1.6,0-3.2,0-4.8 c0.3-0.1,0.5-0.1,0.6-0.1c0.2,0,0.4,0,0.6,0c3.5-0.4,6.1-2.1,7.8-5.1c1.7-3,2.7-6.3,2.7-9.8c0.1-8.2,0-16.5,0-24.7 c0-0.5-0.1-0.9-0.1-1.4c-4.2-0.4-47.7-0.2-49.1,0.2c0,0.6,0,1.3,0,2c0,6.8,0,13.6,0,20.4c0,1.8,0.1,3.6,0.3,5.4c0.4,3.1,1.3,6,3,8.6 c1.6,2.4,3.8,3.9,6.7,4.3c0.6,0.1,1.2,0.2,1.9,0.3c0.1,1.7,0.1,3.4,0,5c-12.8,0-25.4,0-38,0c0-1.7,0-3.4,0-5.1 c2.6-0.1,4.9-0.8,6.8-2.5c1.7-1.6,3.3-4.4,3.4-6.3c-1.9,0.8-3.7,0.4-5.3-0.7c-1.5,1.6-3.2,2.8-5.3,2.9c-2.1,0.1-4.2,0-6.3,0 c0.3-0.2,0.6-0.3,0.9-0.3c1.4,0,2.9,0,4.3-0.1c2.4-0.1,4.4-0.9,5.9-2.8c0.1-0.2,0.4-0.3,0.6-0.5c0.5,0.3,0.9,0.5,1.3,0.8 c1.7,0.9,3.4,0.6,4.4-0.6c1.2-1.4,1.2-3.5,0-5c-0.5-0.6-1-1.1-1.5-1.6c-2.1-2.1-2.9-4.8,1.1-6.6c1.2-0.6,1.7-1.3,1.7-2.7 c0-14.8,0-29.6,0-44.3c0-0.6,0-1.2,0-1.9c-2.7-1-5.2-2.1-7.8-3c-0.9-0.3-1.8-0.4-2.8-0.4c-4.7-0.1-9.2,1-13.6,2.8c0-0.7,0-1.3,0-1.9 c1.3-0.4,2.5-0.7,3.7-1.1c6-1.7,12-2.3,17.8,0.7c0.6,0.3,1.4,0.5,2.2,0.8c0-0.5,0.1-0.8,0.1-1.1c-0.4-2.9-1.2-5.7-2.8-8.3 c-1.8-3-4.5-4.6-8-4.7c-0.2,0-0.4-0.1-0.7-0.2c0-1.7,0-3.3,0-5.1c4.2,0,8.3,0,12.4,0c-0.8-0.8-1.7-1.3-2.5-1.8c-2-1-2.9-2.6-2.9-4.8 c0-1.1,0-2.2,0-3.4c-0.6-0.2-1.1-0.4-1.5-0.6c-1.7-0.8-3.6-1.6-5.2-2.6c-2.3-1.5-3.5-3.7-2.8-6.6c0-0.1-0.1-0.2-0.1-0.4 c-0.4-0.1-0.9-0.3-1.4-0.3c-2.2-0.2-4.3-0.3-6.5-0.4c-7.2-0.4-14.3-0.8-21.5-1.2c-9.8-0.6-19.7-1.2-29.5-1.8 c-7.3-0.4-14.6-0.8-21.8-1.2c-7.6-0.4-15.2-0.9-22.8-1.4c-7.3-0.4-14.7-0.8-22-1.2c-7.6-0.4-15.2-0.9-22.8-1.4 c-7.3-0.4-14.6-0.8-21.8-1.2c-9.8-0.6-19.5-1.2-29.3-1.8c-9.5-0.6-19-1.1-28.5-1.7c-3.1-0.2-6.2-0.2-9.2,1 c-5.8,2.4-9.5,6.9-11.7,12.6c-1.4,3.6-1.5,7.4-1.6,11.2c-0.1,6.6-0.9,13-2,19.5c-1.8,10.1-4.4,20-8.6,29.3 C59,482.7,56.9,486.5,54.9,490.5z M723.5,371.2c-0.8-0.2-1.4-0.4-2-0.6c-11.7-3.9-19.5-14.7-16.8-28.2c2.1-10.4,12.4-21.2,27.8-18.6 c11.1,1.9,22.5,12.9,19.2,28.8c-1.7,8.6-9.3,17.1-19.6,18.5c-1.9,0.2-3.8,0.4-5.7,0.6c-0.1,1.4-0.2,2.7-0.4,4 c-0.7,4.7-2.8,5.3-6.2,4.6c-1.2-0.2-2.4-0.3-3.5-0.3c-1.6,0.1-2,0.6-1.9,2.1c0,1.1,0.2,2.1,0.3,3.2c0.3,3.1,0.7,6.2,0.2,9.3 c-0.5,2.8-1.7,4.4-4.8,3.7c-0.1,0-0.2,0-0.5,0c-0.4,1.2-1.3,2.2-1.3,3.7c1.4-0.1,2.7-0.1,3.9-0.2c0.3,1.1,0.6,2,0.9,3 c-1.1,0.1-1.9,0.2-3,0.3c1,1.9,1.9,3.6,2.8,5.3c1.5,0.4,2.6,0,3.5-1.1c0.7-0.8,1.3-1.6,1.9-2.5c1.5-2.4,3.5-4.4,6-5.7 c1.2-0.6,2.4-1.1,3.5-1.7c2-1,4.1-1.4,6.2-0.2c0.2,0.1,0.5,0.2,0.7,0.2c0.7,0,1.5,0.3,2.2,0c3.3-1.3,6.9-1.8,10.3-2.6 c0.9-0.2,1.5-0.1,2.3,0.3c1.6,0.9,3.2,1.7,4.8,2.5c0.9-0.6,1.6-1.1,2.4-1.6c2.9-2,5.4-4.6,7.8-7.3c0.7-0.8,1.6-1.3,2.6-1.6 c1.9-0.5,3.7-1.1,5.5-1.7c0.3-0.1,0.6-0.1,0.9-0.2c-1.9,1.4-4,2-6.2,2.5c-0.8,0.2-1.4,0.6-2,1.2c-2.2,2.4-4.4,4.7-6.7,7.1 c-0.1,0.1-0.1,0.3-0.2,0.6c0.5,0,0.9,0,1.4,0c3.2-0.2,6.5-0.4,9.7-0.6c7.4-0.4,14.8-0.8,22.2-1.2c5.8-0.3,11.7-0.7,17.5-1 c5.7-0.3,11.4-0.6,17.2-0.9c1.1-0.1,2.2-0.2,3.3-0.3c0.1-0.4,0.1-0.6,0.1-0.8c-0.1-11,0.4-21.9-0.8-32.9c-1.1-9.5-3.2-18.7-6.9-27.5 c-5-11.9-12.6-21.9-23.2-29.4c-12.9-9-27.5-12.6-43-12.9c-7-0.1-14,0.2-20.9,0.4c-8.2,0.1-16.3,0.2-24.5,0.4c-1.4,0-2.4-0.6-3-1.7 c-0.4-0.8-0.8-1.6-1.2-2.3c-1.4-2.9-2.6-5.8-4.1-8.6c-10.4-20-25.3-35.3-45.9-44.9c-12.4-5.7-25.5-8.8-39.1-10 c-2.8-0.2-5.6-0.4-8.4-0.4c-3.6-0.1-7.2-0.1-10.8-0.1c-2,0-3.9,0.2-6,0.4c-0.3-1.7-0.7-3.2-1-4.7c-3-15.9-9.6-29.9-20.8-41.7 c-14-14.7-31.2-23.4-51.2-26.4c-8.9-1.3-17.9-1.3-26.9-0.5c-12.3,1.1-23.9,4.6-34.6,10.6c-22.3,12.7-36.3,31.5-41.4,56.7 c-0.4,1.9-0.8,3.9-1.3,5.9c-0.5,0-0.8,0-1.2-0.1c-3.5-0.2-7.1-0.5-10.6-0.5c-8.7-0.1-17.3,0.6-25.8,2.2c-12,2.2-23.4,6-34,12 c-8.9,5.1-16.7,11.5-23.6,19.1c-6.7,7.5-12.2,15.9-16.6,25c-1.2,2.5-2.3,5-3.4,7.5c-0.7,1.6-1.9,2.4-3.7,2.3 c-2.9-0.1-5.7-0.2-8.6-0.2c-10.9-0.2-21.8-0.3-32.7-0.6c-8.2-0.2-16.2,0.6-24.1,2.7c-19.8,5.2-34.5,16.7-43.8,35.1 c-6.3,12.5-9.1,25.8-9.7,39.7c-0.4,8.1-0.2,16.2-0.2,24.3c0,0.5,0.1,1.1,0.1,1.8c1.8,0.1,3.6,0.1,5.3,0.2c7.2,0.4,14.4,0.9,21.6,1.3 c5.5,0.3,10.9,0.6,16.4,0.9c7.5,0.4,14.9,0.9,22.4,1.4c5.3,0.3,10.7,0.6,16,0.9c7.4,0.4,14.8,0.9,22.2,1.3c3.7,0.2,7.5,0.3,11.2,0.5 c4.8,0.3,9.7,0.6,14.5,0.9c5,0.3,10.1,0.6,15.1,0.9c1.6,0.1,3.2,0,5,0c-0.3-3.9-2-7.2-3.6-10.4c-2.1,1.7-4,3.4-5.9,4.9 c-1.5,1.2-3.2,1.9-5.1,2.1c-4.6,0.5-9.2,0.5-13.8-0.3c-4.2-0.8-8.2-1.8-10.7-5.7c-0.4-0.7-1.1-0.7-1.8-0.7 c-3.7-0.2-7.3-0.4-10.8-1.8c-0.4-0.2-0.9-0.7-1.1-1.1c-0.5-1.4-0.8-2.9-1.1-4.3c1.4,1.1,1.3,3,2,4.6c0.7,0.1,1.3,0.1,1.9,0.2 c0.9,0.2,1.9,0.7,2.8,0.7c2.1,0.2,4.2,0.3,6.3,0.2c1.5-0.1,2.7,0.4,3.5,1.6c1.3,1.8,3.2,2.7,5.3,3.3c2.9,0.8,5.9,1.2,8.9,1.2 c0.4,0,0.8-0.1,1.4-0.2c-2.6-3.6-5.1-6.9-7.6-10.3c-0.1-0.2-0.3-0.4-0.4-0.6c-0.4-0.7-0.5-1.5-0.2-2.3s0.7-1.8,0.7-2.7 c-0.1-2.2,0.4-4.2,1.7-5.9c-0.4-0.5-0.8-1-1.2-1.4c-1.4-1.4-2.8-2.9-4.2-4.2c-0.8-0.8-1.8-1.2-3.1-0.6c-1,0.4-2,0.5-3.1,0.2 c-0.5-0.2-1.2-0.1-1.8,0.1c-4,1.6-8.2,1.7-12.4,1.2c-12.9-1.7-22.7-14.8-19.9-28.5c2.6-12.6,15.5-22.2,29.8-18.6 c10.8,2.7,19.2,14.4,17.8,25.7c-0.6,5-2.2,9.3-5.4,13.1c-1,1.2-2.2,2.2-3.5,3.4c2.5,0.7,4.2,2.2,5.7,3.8c1,1,1.9,2.2,2.9,3.1 c1.6,1.5,1.8,2.9,0.5,4.9c-0.6,0.9-0.9,2.1-1.2,3.3c-0.3,1.4-0.3,2.8-0.5,4.5c0.9,1.2,2.1,2.5,3.1,4c1.1,1.5,2.1,3.1,3.1,4.7 c0.1,0.1,0.2,0.2,0.2,0.3c1.9,2.1,5.1,3.7,8.6,1.5c0.9-0.6,1.9-1.2,2.7-2c1.7-1.6,3.3-3.4,4.9-5.1c0.4-0.4,0.8-0.9,1.3-1.5 c2.6,5.3,5.2,10.2,5.8,16c3,0.2,5.9,0.5,8.8,0.7c8.5,0.5,16.9,1,25.4,1.5c9.5,0.5,18.9,1.1,28.4,1.6c7.6,0.4,15.2,0.9,22.8,1.4 c9.4,0.5,18.8,1.1,28.2,1.6c7.7,0.4,15.3,0.9,23,1.4c9.5,0.6,18.9,1.1,28.4,1.6c4.2,0.2,8.3,0.4,12.5,0.2c9.5-0.4,18.9-1.1,28.4-1.7 c14.4-0.8,28.7-1.6,43.1-2.4c13-0.7,26-1.5,39-2.2c11.8-0.7,23.5-1.4,35.3-2.1c8.6-0.5,17.3-1,25.9-1.5c5.5-0.3,11.1-0.6,16.6-0.9 c3.1-0.2,6.2-0.5,9.3-0.7c1-2.2,2-4.3,2.8-6.4c0.2-0.5,0.2-1.1,0-1.6c-1.4-4-3.6-7.3-7.9-8.9c-3.5-1.3-6.7-3.2-9.6-5.7 c0.3-1.6,0.5-3.1,0.8-4.8c-0.9,0.4-1.4,0.6-2,0.9c-4.8,2-9.8,2.7-15,1.6c-12.6-2.7-20.9-14.4-18.9-27.1c2.8-17.7,22-25.9,36.3-17 c9.7,6,13.6,17.4,10.7,27.2c-1.5,5.1-4.5,9.1-8.5,12.5c-0.5,0.4-1.1,0.9-1.3,1.5c-0.4,1.5-0.6,3-0.8,4.5c3.2,2.3,6.5,3.8,10,5 c2.3,0.8,4.2,2.1,5.7,4c1.4,1.8,2.4,3.8,3.2,5.9c0.2,0.6,0.2,1.4,1.4,1.5c0.7-1.8,0.8-3.6,0.6-5.6c-0.2-2.8-0.6-5.6-0.6-8.4 c-0.1-2.4,1.2-3.9,3.7-4.1c1.8-0.1,3.7,0,5.6,0.2c1.5,0.1,1.9,0,2.2-1.5C723.1,374.4,723.2,372.9,723.5,371.2z M39.5,490.4 c0.4,0.4,0.6,0.7,0.8,1c4,4.3,7.1,9.2,9.4,14.5c6.5,15.1,9.6,30.9,9.9,47.2c0.2,10.4,3.7,19.4,11.4,26.5c5.9,5.5,12.9,8.3,21.1,7.9 c2.1-0.1,4.2-0.2,6.3-0.3c8.6-0.5,17.3-1,25.9-1.5c5-0.3,10.1-0.6,15.1-0.8c7.6-0.4,15.2-0.9,22.8-1.4c5.3-0.3,10.7-0.6,16-0.9 c7.5-0.4,14.9-0.9,22.4-1.3c5.5-0.3,11.1-0.6,16.6-0.9c9.3-0.5,18.5-1.1,27.8-1.7c6.2-0.4,12.4-0.7,18.7-1.1 c8.8-0.5,17.7-1,26.5-1.5c6.3-0.4,12.6-0.7,18.8-1.1c8.7-0.5,17.4-1,26.1-1.5c6.4-0.4,12.8-0.7,19.2-1.1c8.7-0.5,17.4-1,26.1-1.5 c6.4-0.4,12.8-0.7,19.2-1.1c8.6-0.5,17.3-1,25.9-1.5c6.5-0.4,12.9-0.7,19.4-1.1c8.6-0.5,17.3-1,25.9-1.5c7.3-0.4,14.6-0.8,21.8-1.2 c4.5-0.3,9.1-0.6,13.6-0.3c3.6,0.3,7.2,0.5,10.8,0.7c3.1,0.2,6.2,0.3,9.3,0.5c7.3,0.4,14.5,0.9,21.8,1.3c5.5,0.3,11.1,0.6,16.6,0.9 c7.4,0.4,14.8,0.9,22.2,1.3c5.5,0.3,10.9,0.6,16.4,0.9c7.3,0.4,14.5,0.9,21.8,1.3c3.4,0.2,6.8,0.3,10.3,0.5 c7.5,0.4,14.9,0.9,22.4,1.4c5.4,0.3,10.8,0.6,16.2,0.9c7.4,0.4,14.8,0.9,22.2,1.3c5.4,0.3,10.8,0.6,16.2,0.9 c7.5,0.4,15,0.9,22.6,1.4c5.3,0.3,10.7,0.6,16,0.9c7.4,0.4,14.8,0.9,22.2,1.3c5.5,0.3,10.9,0.6,16.4,0.9c9.4,0.6,18.8,1.2,28.2,1.7 c5.6,0.3,11.2,0.6,16.8,0.9c7.3,0.4,14.5,0.9,21.8,1.3c5.5,0.3,11.1,0.6,16.6,0.9c7.5,0.4,15,0.9,22.6,1.4 c5.8,0.3,11.6,0.7,17.3,1.1c2.5,0.2,5,0,7.4-0.5c6.6-1.4,12.1-4.7,16.6-9.8c5.3-5.9,8.2-12.9,8.9-20.8c0.4-4.8,0.4-9.7,0.9-14.5 c1.1-10.6,3.4-20.9,7.1-30.9c2.7-7.2,6.1-13.9,11.4-19.6c0.4-0.4,0.6-0.9,1-1.3c-0.3-0.4-0.5-0.7-0.8-0.9 c-4.5-4.7-7.7-10.2-10.2-16.2c-6-14.7-8.9-30.1-9.2-45.9c-0.1-5.2-1-10.2-3.2-14.9c-3.7-8.1-9.5-14.1-17.9-17.4 c-4.6-1.9-9.4-2-14.3-1.7c-10,0.7-20,1.2-30,1.8c-9.5,0.5-19,1-28.6,1.6c-12.1,0.7-24.3,1.5-36.4,2.1c-9.5,0.5-19,1-28.6,1.6 c-7.8,0.4-15.7,1-23.5,1.4c-7.5,0.4-15.1,0.8-22.6,1.3c-5,0.3-9.9,0.9-14.9,0.9c-2.6,0-4.1,1.3-5.6,3.1c-0.7,0.8-1.2,1.7-1.6,2.8 c2.5-0.1,4.8-0.1,7.1-0.2c9.6-0.5,19.2-1.1,28.7-1.7c7.9-0.5,15.8-0.9,23.7-1.3c7.9-0.5,15.8-0.9,23.7-1.4c9.5-0.6,19-1.1,28.6-1.6 c7.8-0.5,15.7-0.9,23.5-1.4c7.3-0.4,14.7-0.8,22-1.2c5.7-0.3,11.4-0.7,17.2-1c6.2-0.4,12.3-0.7,18.5-1.1c5.2-0.4,10.1,0.3,14.6,3.1 c9,5.6,13.2,13.9,13.8,24.3c0.2,3,0.2,6,0.4,9c0.9,11.4,3.2,22.4,6.8,33.2c2.3,6.7,5.1,13.3,9.2,19.1c0.7,1,1.4,1.9,2.1,2.9 c-0.3,0.4-0.4,0.7-0.7,1c-2.5,3.2-4.6,6.7-6.3,10.3c-7.4,16.1-11,33.2-11.5,50.9c-0.1,4.3-0.6,8.6-2.3,12.6 c-3.4,7.9-8.9,13.6-17.3,16.1c-3.5,1-7,0.7-10.6,0.5c-7.7-0.4-15.4-1-23.1-1.4c-9.4-0.5-18.8-1-28.2-1.6c-9.9-0.6-19.8-1.2-29.7-1.8 c-9.5-0.6-18.9-1.1-28.4-1.6c-9.8-0.6-19.7-1.2-29.5-1.8c-9.5-0.6-18.9-1.1-28.4-1.6c-9.8-0.6-19.5-1.2-29.3-1.7 c-9.5-0.6-19-1.1-28.6-1.6c-11.9-0.7-23.9-1.4-35.8-2.1c-10.7-0.6-21.4-1.2-32.1-1.9s-21.4-1.3-32.1-1.9c-9.5-0.5-19-1.1-28.6-1.6 c-8.5-0.5-17-1-25.6-1.5c-5.5-0.3-10.9-0.8-16.4-1c-5.3-0.2-10.7-0.9-16-0.6c-7.7,0.5-15.4,0.8-23.1,1.3c-9.5,0.6-19,1.2-28.6,1.7 c-5.5,0.3-11.1,0.6-16.6,0.9c-9.4,0.6-18.8,1.2-28.2,1.7c-7.8,0.5-15.7,0.8-23.5,1.3c-9.6,0.6-19.2,1.2-28.7,1.7 c-7.7,0.4-15.3,0.8-23,1.3c-11.7,0.7-23.4,1.4-35.1,2.1c-7.7,0.4-15.4,0.8-23.1,1.3c-9.6,0.6-19.2,1.2-28.7,1.7 c-9.8,0.6-19.7,1.1-29.5,1.7c-11.5,0.7-23,1.4-34.5,2.1c-10,0.6-19.9,1.1-29.9,1.7c-11.6,0.7-23.1,1.4-34.7,2.1 c-6.4,0.4-12.8,0.8-19.2,1.1c-8.2,0.4-14.8-2.8-20.1-8.9c-4.7-5.5-6.8-12-7-19.1c-0.1-2.9-0.2-5.9-0.4-8.8 c-0.8-10.5-2.9-20.8-6.1-30.9c-2.7-8.3-6.1-16.4-11.6-23.3c-0.1-0.2-0.2-0.4-0.3-0.6c1.3-1.8,2.5-3.5,3.7-5.3 c1.1-1.9,2.2-3.8,3.2-5.7c7.4-16,11-32.9,11.6-50.5c0-1.4,0.1-2.7,0.2-4.1c0.6-7.7,3.6-14.2,9.2-19.5c4.8-4.5,10.5-6.7,17-6.5 c7,0.3,13.9,0.8,20.9,1.2c10,0.6,20,1.1,30,1.7c11.3,0.7,22.5,1.4,33.8,2c12.3,0.7,24.5,1.4,36.8,2.1c11.2,0.7,22.4,1.3,33.6,2 c8.5,0.5,17,1,25.6,1.5c7.3,0.4,14.7,0.9,22,1.3c8.5,0.5,16.9,1,25.4,1.5c1.3,0.1,2.6,0,4,0c0.6-1.7,1.1-3.4,1.7-5.2 c-0.5-0.1-0.8-0.2-1.1-0.2c-5.5-0.3-10.9-0.6-16.4-0.9c-9.5-0.6-19-1.2-28.5-1.7c-7.5-0.4-15.1-0.8-22.6-1.3 c-9.5-0.6-19-1.2-28.6-1.7c-7.5-0.4-15.1-0.8-22.6-1.3c-9.5-0.6-18.9-1.2-28.4-1.7c-7.5-0.4-15.1-0.8-22.6-1.3 c-9.6-0.6-19.3-1.2-28.9-1.7c-5.4-0.3-10.8-0.6-16.2-0.9c-5.9-0.3-11.8-0.8-17.7-1c-8.7-0.4-16,3-22,9c-6.8,6.9-10,15.5-10.2,25.2 c0,2.6-0.2,5.1-0.3,7.7c-0.9,11.7-3.3,23-7.3,34.1c-2.7,7.4-6.2,14.3-11.6,20.1C40.2,489.5,39.9,489.9,39.5,490.4z M596.7,218.1 c0.4,0,0.8,0.1,1.2,0.1c6.8-0.4,13.6-0.1,20.4,0.5c10.2,0.9,20.1,2.8,29.8,6.1c16.7,5.6,31.1,14.8,43,27.9 c8.4,9.3,14.9,19.8,19.9,31.2c0.3,0.7,0.7,1.4,1,2.2c0.7,0,1.3,0,2,0c5-0.1,10-0.2,15-0.3c7.8-0.1,15.6-0.2,23.4-0.4 c10.9-0.2,21.6,1.3,32,4.8c14.6,4.9,26.4,13.6,35.2,26.2c7.2,10.3,11.4,21.9,13.9,34.2c1.8,9,2.4,18,2.4,27.1 c0,4.9-0.1,9.8-0.1,14.8c0,0.7,0,1.3,0.1,2.1c2.2-0.1,4.2-0.2,6.3-0.3c0-0.9,0-1.6,0-2.2c0-4.6,0-9.1,0-13.7 c0.1-7.1-0.3-14.1-1.2-21.1c-1.3-9.9-3.6-19.6-7.6-28.8c-5.6-13.2-13.9-24.4-25.5-33c-9.8-7.2-20.7-11.8-32.6-14.3 c-7.3-1.5-14.8-2.4-22.3-2.2c-4,0.1-8.1,0.2-12.2,0.3c-5.8,0.1-11.6,0.3-17.4,0.4c-2.4,0-4.9,0-7.3,0c-1.2-2.4-2.3-4.7-3.6-7.1 c-6.1-11.6-13.7-22-23.4-30.9c-17.9-16.6-39.4-25.3-63.4-28.6c-7.5-1-15.1-1.5-22.7-1.4c-0.4,0-0.8-0.1-1.3-0.1 c-0.1-0.4-0.3-0.8-0.4-1.1c-4.9-19.2-14.9-35.2-30-48.1c-14.4-12.3-31-19.7-49.7-22.7c-6.8-1.1-13.6-1.2-20.5-1.2 c-7.8,0-15.4,0.7-23,2.4c-19.2,4.3-35.8,13.4-49.6,27.6c-11.5,11.8-19.2,25.8-23.4,41.8c-0.1,0.5-0.3,0.9-0.5,1.4 c-0.6,0-1.1,0-1.6,0c-6.5-0.1-13,0.3-19.4,1.1c-10.5,1.2-20.8,3.5-30.7,7.2c-14.6,5.4-27.6,13.6-38.6,24.6 c-9.7,9.7-17.1,20.9-23,33.2c-0.3,0.6-0.6,1.2-0.9,1.8c-2.4,0-4.7,0-7,0c-7.7-0.1-15.3-0.3-23-0.4c-5.7,0-11.5-0.3-17.2,0.2 c-9.4,0.9-18.6,2.9-27.4,6.5c-10.3,4.2-19.4,10.2-27,18.4c-9.7,10.3-16,22.6-19.9,36.2c-3.5,12.1-4.6,24.5-4.7,37 c-0.1,5.1,0.1,10.2,0.1,15.3c0,0.5,0.1,1,0.2,1.6c2,0.1,4,0.2,6.1,0.3c0-2.4,0-4.6,0-6.8c0-9.3-0.1-18.6,1-27.8 c1.1-9.5,3.2-18.8,6.8-27.7c3.9-9.7,9.5-18.4,17-25.7c8.5-8.4,18.7-14,30.1-17.4c9.4-2.8,19-4.1,28.8-3.8c7.5,0.2,15.1,0.3,22.6,0.4 c5.4,0.1,10.7,0.2,16.1,0.4c1.1,0,1.7-0.3,2.1-1.3c1.2-2.7,2.5-5.5,3.8-8.1c6.8-13.2,15.7-24.8,27.3-34.3 c17.5-14.3,38-21.2,60.2-23.6c7.3-0.8,14.7-0.9,22-0.7c0.5,0,1,0,1.4-0.1c2.2-9.9,4.1-16.1,7.6-22.9c12.4-24.4,32.2-39.8,58.5-47 c12.9-3.5,26.1-3.9,39.3-2.7c12.9,1.1,25.1,4.8,36.4,11.1c20.8,11.5,35.1,28.6,42.3,51.3C595,211.1,595.8,214.6,596.7,218.1z M326.5,412.5c5.8,0.4,11.2,0.7,16.7,1.1c10.6,0.6,21.1,1.2,31.7,1.8c10,0.6,20,1.1,30,1.7c9.1,0.5,18.2,1.1,27.2,1.6 c12.8,0.8,25.5,1.5,38.3,2.2c8.5,0.5,17,1,25.6,1.5c3.8,0.2,7.6,0.3,11.4,0c7.4-0.5,14.8-0.9,22.2-1.3c9.5-0.5,19-1.1,28.6-1.6 c5.7-0.3,11.3-0.7,17-1c7.4-0.4,14.8-0.8,22.2-1.3c7.8-0.4,15.5-0.9,23.3-1.4c7.3-0.4,14.6-0.8,21.8-1.2c7.9-0.5,15.8-0.9,23.7-1.4 c7.3-0.4,14.7-0.8,22-1.2c6-0.4,11.9-0.7,17.9-1.1c1-0.1,1.9-0.2,3.1-0.4c-1-1.7-1.8-3.1-2.8-4.5c-0.3-0.4-0.9-0.6-1.4-0.7 c-1.2-0.1-2.5,0-3.7,0.1c-5.8,0.3-11.6,0.7-17.3,1c-9.3,0.5-18.7,1-28,1.5c-9.4,0.5-18.8,1.1-28.2,1.7c-8,0.5-15.9,0.9-23.9,1.3 c-9.5,0.5-18.9,1.1-28.4,1.7c-7.8,0.5-15.7,0.8-23.5,1.3c-7.3,0.4-14.7,0.9-22,1.3c-7,0.4-14.1,0.8-21.1,1.2 c-2.7,0.2-5.5,0.4-8.2,0.3c-5.5-0.2-11.1-0.6-16.6-1c-7.2-0.4-14.3-0.8-21.5-1.2c-5.7-0.3-11.3-0.7-17-1c-7.2-0.4-14.3-0.8-21.5-1.2 c-5.6-0.3-11.2-0.7-16.8-1c-7.1-0.4-14.3-0.8-21.5-1.2c-5.7-0.3-11.3-0.7-17-1c-7.1-0.4-14.3-0.8-21.5-1.2c-5.6-0.3-11.2-0.7-16.8-1 c-0.8,0-1.6,0-2.5,0C327.7,408.8,327.2,410.5,326.5,412.5z M711.1,347c-0.1,0-0.2,0-0.2,0c0.1,1,0.2,2.1,0.3,3.1 c1.2,8.9,10.6,15.2,18.8,14.3c9.2-1,17.6-11,14.6-21.6c-0.2-0.5-0.5-1.2-0.3-1.6c0.3-1.1-0.2-1.8-0.7-2.6c-3-5.3-9.8-9.9-17.6-9 c-7.4,0.9-13.3,6.5-15.1,13.4c-0.1,0.5-0.3,1-0.2,1.5C710.7,345.4,711,346.2,711.1,347z M661.1,353.4c-0.3,10.8,9.4,17.3,16.9,17.4 c10.7,0.1,17.5-9.1,17.5-17c0.1-10.3-8.8-17.5-17-17.5C668.9,336.3,661.1,344,661.1,353.4z M259.9,347c0,9.4,7.6,17.1,16.9,17.1 s17.3-8,17.2-17.1c-0.1-9.2-7.8-17-17.2-17C268.2,329.9,259.7,337.4,259.9,347z M799.2,438.5c0.1,0.1,0.1,0.2,0.2,0.3 c1.5,0,3,0,4.5,0c1.4,0,2.9,0.2,4.4-0.2c-1.1-2.4-1.4-5.1-3.6-6.8C801.9,433.4,801.5,436.8,799.2,438.5z M335.8,517.2 c0.1,0,0.3-0.1,0.4-0.1c0-1.3,0-2.6,0-3.8c0-1.3,0-2.5-0.1-4.1c-0.9,0.5-1.5,0.8-2.1,1.1c-1.8,1.1-2.1,2.3-0.8,4 C334,515.3,335,516.2,335.8,517.2z M782.9,451.1c-1.6,1.1-3.3,1.6-4.7,2.8c3.7,0.4,3.7,0.4,5,3.7c0.1,0.3,0.1,0.7,0.4,0.8 c0.3,0.3,0.7,0.4,1.3,0.7C784.7,456.2,784,453.7,782.9,451.1z M744.9,399.9c1.3-0.1,2.5-0.2,4.2-0.4 C747.3,398.4,746.1,399.2,744.9,399.9z"></path> <path style="fill:#FFCE00;" d="M179.7,610.6c5.6,0,10.9-0.1,16.2,0c3.4,0.1,6.8,0.3,10.2,0.7c9.4,0.9,16.6,8.9,18,15.7 c1.5,7,0.4,13.5-4.5,19c-1.3,1.4-3,2.4-4.5,3.6c-0.4,0.3-0.9,0.6-1.6,1c1.3,0.5,2.4,1,3.5,1.4c9.3,3.3,13.9,10.3,15.6,19.6 c1.1,6.2,0.6,12.5-2.3,18.2c-3,6-7.3,10.6-13.6,13.3c-2.8,1.2-5.8,1.6-8.7,1.9c-9.3,0.9-18.7,0.3-28.2,0.5c-0.1-0.7-0.1-1.3-0.1-1.9 c0-16.8,0-33.7-0.1-50.5c0-11.3,0-22.7,0-34c0-2.2,0-4.4,0.1-6.5C179.6,612,179.7,611.4,179.7,610.6z M187.5,696.6 c4.1,0,7.9,0,11.8,0c3,0,6-0.1,9-0.4c2.3-0.3,4.7-0.6,6.6-1.7c6.9-3.7,10.9-9.7,11.2-17.6c0.3-5.6-2.2-10.2-5.9-14.3 c-2.5-2.7-5.5-4.6-9.1-5.2c-2.5-0.4-4.9-0.7-7.4-0.8c-4.7-0.1-9.5-0.1-14.2-0.1c-0.6,0-1.2,0.1-1.9,0.1 C187.5,670,187.5,683.2,187.5,696.6z M187.5,646.4c0.3,0.1,0.5,0.2,0.8,0.2c4.8,0,9.6,0,14.4-0.2c6.6-0.3,10.9-4,13.4-9.9 c0.9-2.2,1.1-4.6,0.6-7c-1.4-6.8-6.8-11.8-13.7-12.2c-4.8-0.3-9.6-0.2-14.4-0.3c-0.4,0-0.7,0.1-1.1,0.2 C187.5,627,187.5,636.7,187.5,646.4z"></path> <path style="fill:#FFCE00;" d="M517.2,624c-2,2.3-3.9,4.6-5.8,6.9c-1.9-1.5-3.6-3-5.5-4.4c-5.5-4-11.7-6.2-18.5-7 c-9.1-1-17.6,0.9-25.4,5.6c-0.5,0.3-1,0.7-1.6,1s-0.9,0.8-0.8,1.5c0,0.6,0,1.2,0,1.9c0,20.1,0.1,40.3,0.1,60.4 c0,1.3,0.4,2.1,1.6,2.9c5.9,3.7,12.2,5.8,19.2,6.2c11.1,0.6,20.7-2.8,29.1-10.1c0.5-0.4,0.9-0.8,1.4-1.2c0.1-0.1,0.3-0.2,0.6-0.4 c1.9,2.3,3.8,4.6,5.8,7.1c-1.4,1.2-2.7,2.4-4,3.4c-7.6,5.9-16.1,9.3-25.7,10.2c-13.3,1.2-25.1-2.4-35.6-10.6c-1-0.8-1.4-1.6-1.4-2.8 c0-23.7,0-47.4,0-71.1c0-1.2,0.4-1.9,1.3-2.7c10.1-8,21.6-11.7,34.5-10.9c11.6,0.8,21.7,5.2,30.2,13.3 C516.6,623.4,516.8,623.6,517.2,624z"></path> <path style="fill:#FFCE00;" d="M411.2,687.4c1.9,2.3,3.7,4.5,5.6,6.8c-2,2-4.2,3.7-6.5,5.3c-7.6,5.2-16.1,8.1-25.4,8.5 c-12.2,0.5-23.1-2.9-32.8-10.4c-1.4-1-1.9-2.1-1.9-3.9c0.1-18,0-36,0-54.1c0-5.4,0-10.7,0-16.1c0-1.3,0.4-2.2,1.4-3 c7.6-6,16.2-9.7,25.9-10.6c14.5-1.3,27.2,2.7,38,12.6c0.4,0.4,0.9,0.7,1.5,1.2c-2.1,2.5-4,4.8-5.9,7.1c-1.3-1.1-2.4-2-3.5-3 c-6-5-12.9-7.7-20.6-8.5c-9.4-1-18,1.1-26.1,6c-1.2,0.7-1.5,1.5-1.5,2.9c0,15.6,0,31.3,0,46.9c0,5,0,10-0.1,15 c0,1.1,0.4,1.8,1.3,2.4c7.5,4.8,15.7,7,24.5,6.3c9.3-0.6,17.4-4.1,24.3-10.3c0.4-0.3,0.8-0.6,1.1-1 C410.8,687.6,410.9,687.6,411.2,687.4z"></path> <path style="fill:#FFCE00;" d="M675.1,676.4c5.8,9.7,11.5,19.2,17.3,29c-1,0-1.7,0.1-2.4,0.1c-1.7,0-3.4-0.1-5.1,0 c-1.1,0.1-1.7-0.4-2.2-1.3c-3.6-6.1-7.2-12.1-10.8-18.2c-1.3-2.2-2.6-4.4-3.8-6.3c-4.5,0.6-8.8,1.2-13.3,1.9c0,7.8,0,15.7,0,23.8 c-2.6,0-5,0-7.5,0c0-30.9,0-61.8,0-92.5c0.2-0.1,0.3-0.2,0.4-0.2c5.9-0.1,11.7-0.5,17.5,1c8.2,2.1,15.1,6.1,20.3,12.9 c12.4,16.2,8,37.4-7.7,48.1C676.9,675.2,676.1,675.7,675.1,676.4z M654.9,672.9c8.6,1.6,20.1-4.4,25.2-13.2 c5.6-9.6,4.4-21.3-2.9-29.8c-6-6.9-16.7-10.4-22.3-8.9C654.9,638.3,654.9,655.6,654.9,672.9z"></path> <path style="fill:#FFCE00;" d="M818,705.5c-5.1,0-9.9,0-14.9,0c0-28.6,0-57.1,0-85.8c-5.9,0-11.7,0-17.5,0c0-2.4,0-4.5,0-6.8 c10.7,0,21.4,0,32.4,0C818,643.7,818,674.5,818,705.5z"></path> <path style="fill:#FFCE00;" d="M781.8,705.5c-5.6,0-10.9,0-16.3,0c-0.2-0.5-0.4-0.9-0.6-1.4c-6.1-15.9-12.1-31.7-18.2-47.6 c-3.3-8.8-6.6-17.6-10-26.4c-0.3-0.9-0.5-1.8-0.2-2.7c2.5-7,4.9-14,7.3-21c0-0.1,0.1-0.2,0.4-0.6 C756.8,639.1,769.3,672.1,781.8,705.5z"></path> <path style="fill:#FFCE00;" d="M320.3,705.5c-5.5,0-10.8,0-16.2,0c-0.2-0.4-0.4-0.9-0.6-1.4c-6.6-17.5-13.3-34.9-19.9-52.4 c-2.7-7.2-5.4-14.3-8.2-21.5c-0.5-1.2-0.4-2.2,0-3.4c2.3-6.4,4.5-12.8,6.7-19.2c0.2-0.5,0.3-0.9,0.7-1.8c0.4,0.9,0.7,1.5,0.9,2.1 c4.1,10.8,8.2,21.7,12.3,32.5c7.9,20.9,15.7,41.8,23.5,62.6C319.7,703.7,319.9,704.5,320.3,705.5z"></path> <path style="fill:#FFCE00;" d="M609.8,705.6c-5.3,0-10,0-14.8,0c-0.4,0-0.9,0-1.4-0.1c-1-2.7-2.1-5.3-3.1-8 c-8.5-22.5-17.1-44.9-25.6-67.4c-0.4-1-0.5-2-0.1-3c2.3-6.6,4.6-13.3,6.9-19.9c0.1-0.4,0.3-0.7,0.7-1.4 C584.9,639.1,597.3,672.2,609.8,705.6z"></path> <path style="fill:#FFCE00;" d="M642,705.5c-4.9,0-9.7,0-14.7,0c-0.2-4.1-0.1-8.1-0.1-12.1c0-4.1,0-8.2,0-12.3s0-8.1,0-12.2 c0-4.1,0-8.2,0-12.3s0-8.1,0-12.2c0-4.1,0-8.2,0-12.3c0-4,0-8.1,0-12.3c-1.8,0-3.3,0-5.1,0c0-2.4,0-4.5,0-6.8c6.6,0,13.2,0,19.8,0 C642.4,614.9,642.5,703,642,705.5z"></path> <path style="fill:#FFCE00;" d="M160.8,617.7c-2,0-3.7,0-5.6,0c0-1.2,0-2.3,0-3.4c0-1.1,0-2.2,0-3.5c6.6,0,13.2,0,19.7,0 c0.5,1.7,0.6,92,0.1,94.6c-4.6,0-9.3,0-14.1,0C160.8,676.2,160.8,647,160.8,617.7z"></path> <path style="fill:#FFCE00;" d="M272.8,634.3c8.9,23.7,17.7,47.3,26.7,71.3c-1.8,0-3.3,0-4.8,0c-1.6,0-3.1,0-4.8,0 c-2.1-5.7-4.1-11.4-6.2-17.1c-7.8,0-15.5,0-23.4,0c-2.1,5.6-4.3,11.3-6.5,17c-3.1,0-6.1,0-9.4,0c2.2-5.7,4.4-11.3,6.6-17.1 c-2.4,0-4.6,0-6.9,0c0-2.8,0-5.4,0-8.1c3.4,0,6.7,0,10.1,0c6.1-15.4,12.1-30.7,18.1-46C272.4,634.2,272.6,634.2,272.8,634.3z M272.5,657.4c-0.1,0-0.3,0-0.4,0c-2.9,7.5-5.7,15-8.6,22.6c3.5,0.4,15.6,0.2,17.1-0.2C277.9,672.3,275.2,664.8,272.5,657.4z"></path> <path style="fill:#FFCE00;" d="M721.7,688.4c-2.2,5.7-4.4,11.4-6.5,17.1c-3.1,0-6.2,0-9.4,0c2.2-5.7,4.4-11.3,6.6-17.1 c-2.4,0-4.6,0-6.9,0c0-2.8,0-5.4,0-8.2c3.3,0,6.6,0,10,0c6-15.4,12.1-30.7,18.1-46.1c0.2,0,0.3,0,0.5,0 c9.1,23.7,17.8,47.4,26.8,71.3c-0.5,0.1-0.7,0.1-1,0.1c-2.8,0-5.6,0-8.6,0c-2.1-5.7-4.1-11.4-6.2-17.2 C737.2,688.4,729.5,688.4,721.7,688.4z M724.9,680.1c5.8,0,11.4,0,17,0c0-0.3,0.1-0.5,0-0.6c-2.6-7.3-5.2-14.5-7.9-21.8 c0-0.1-0.1-0.1-0.1-0.1s-0.1,0-0.2-0.1c-0.1,0-0.1,0-0.2,0C730.6,664.9,727.8,672.4,724.9,680.1z"></path> <path style="fill:#FFCE00;" d="M562.2,634c8.9,23.8,17.7,47.5,26.7,71.5c-3.3,0-6.3,0-9.5,0c-2.1-5.6-4.1-11.4-6.2-17.1 c-7.8,0-15.6,0-23.4,0c-2.2,5.7-4.4,11.4-6.6,17.1c-3,0-6,0-9.3,0c2.2-5.7,4.3-11.3,6.6-17.1c-2.4,0-4.6,0-6.9,0c0-2.8,0-5.4,0-8.2 c3.4,0,6.6,0,10.1,0c6-15.4,12-30.8,18-46.1C561.9,634.1,562.1,634,562.2,634z M570.2,680.1c-2.8-7.7-5.5-15.3-8.2-22.8 c-0.1,0-0.2,0-0.4,0c-2.9,7.6-5.8,15.1-8.7,22.8C558.8,680.1,564.4,680.1,570.2,680.1z"></path> <path style="fill:#FFCE00;" d="M848.1,612.8c0,0.5,0.1,0.9,0.1,1.3c0,1.7,0,3.5,0,5.5c-6.2,0.1-12.2,0-18.5,0 c-0.2,14.4,0,28.6,0,42.8c0,14.3,0,28.5,0,42.9c-2.4,0-4.6,0-7,0c0-30.9,0-61.7,0-92.6C831.3,612.8,839.6,612.8,848.1,612.8z"></path> <path style="fill:#FFCE00;" d="M446.6,623.9c0,23.5,0,46.7,0,70C430,679.5,422.7,646.9,446.6,623.9z"></path> <path style="fill:#FFCE00;" d="M346.6,623.8c0,23.6,0.1,46.8-0.1,70.1C329,679,323.1,645.5,346.6,623.8z"></path> <path style="fill:#FFCE00;" d="M232.7,444.1c0.5-0.3,1-0.6,1.4-0.8c0.9,1.9,1.9,3.6,2.6,5.3c0.7,1.7,1.1,3.5,1.7,5.4 c0.4-0.3,0.8-0.6,1.1-0.9c7.7-7.7,17-12.3,27.8-13.9c8.8-1.3,17.4,0,25.7,3.1c1.4,0.5,2.8,1,4.4,0.9c1.9,0,3.5-0.7,4.5-2.3 c0.9-1.4,1.5-3,2.2-4.5c0.2-0.5,0.3-1.1,0.5-1.9c0.8,0,1.6,0,2.3,0c0.8,0,1.6,0,2.4,0c0.4,1.5,0.5,20.5,0.1,22.4 c-0.9,0-1.8,0.1-2.7,0c-0.6-0.1-1.1-0.4-1.6-0.8c-3.5-3.2-7.4-6-11.7-8c-17.5-8.1-39.4-4.3-52.7,11.5c-0.8,1-1.3,2-1.3,3.4 c0,16.7,0,33.4,0,50.1c0,1.2,0.3,2.1,1.1,3c8.1,9.3,18.2,14.7,30.6,15.6c11.9,0.9,22.4-2.6,31.7-9.9c1.2-0.9,1.8-1.9,1.7-3.4 c-0.1-2-0.1-4.1,0-6.2c0.1-1.8,0.3-3.6,0.4-5.4c0.1-2.9-0.3-5.7-1.5-8.4c-0.7-1.8-1.7-3.5-2.8-5c-1.5-1.9-3.6-3.1-6.1-3.3 c-0.2,0-0.5-0.1-0.7-0.1s-0.3-0.1-0.6-0.2c0-1.2,0-2.5,0-3.9c9.2,0,18.4,0,27.8,0c0,1.3,0,2.6,0,3.9c-1.3,0.3-2.6,0.5-3.8,1 c-3.1,1.2-4.8,3.7-6,6.5s-1.7,5.7-2,8.7c-0.1,0.7,0.3,1.4,0.3,2.2c0.1,1,0.2,2.1,0.2,3.2c0,3.1-0.1,6.2,0,9.4c0,1.4-0.4,2.3-1.4,3.2 c-6.9,6.4-14.9,10.6-24.1,12.3c-17.2,3.1-32.2-1.5-44.7-13.7c-3.7-3.6-6.7-7.9-9-12.5c-0.2-0.5-0.5-1-0.9-1.5 c0.1,2.1-1.1,3.1-2.7,3.9c-2.1,1-4.1,2.1-6.2,3.1c-2-2-3.2-5.2-7.1-4.1c1.4-0.8,2.5-0.9,3.7-0.1c0.8,0.5,1.5,1.3,2.2,2 c0.5,0.5,0.9,1,1.4,1.6c2.1-1.1,4.1-2,6-3.2c2.1-1.2,2.3-2.2,1.2-4.3c-0.4-0.8-1-1.5-1.3-2.3c-0.3-0.7-0.5-1.5-0.7-2.3 s0.2-1.3,1-1.4c-1.1-4.3-1.9-8.5-1.8-12.8c0.1-2.9,0.3-5.8,0.6-8.7c0.2-1.9,0-3.4-1.7-4.6c-0.7-0.5-1.1-1.3-1.6-2 c-0.8-1.1-1.4-2.3-2.3-3.4c-0.5-0.7-1.3-1.3-1.9-1.9c-1.1,0.7-1.5,1.6-1.8,2.6c-0.6,2-1.1,4.1-1.5,6.2c-0.5,2.4-1.7,4.4-4.2,5.9 c0.3-0.7,0.3-1.2,0.5-1.4c2-1.6,2.6-3.9,3-6.3c0.2-1.5,0.6-2.9,1-4.4c0.3-0.9,0.8-1.8,1.3-2.7c0.7-1,1.3-1.2,2.4-0.6 c0.7,0.4,1.4,0.9,1.9,1.5c0.8,1,1.4,2,2.1,3.1c0.5,0.7,0.9,1.5,1.5,2.1c0.5,0.6,1.2,1,2,1.7c0.2-0.5,0.4-0.9,0.5-1.4 c2-6.8,5.2-12.9,9.9-18.3c0.8-0.9,1-1.7,0.8-3c-0.5-3.4-2.4-6.1-3.6-9.2C233.5,444,233.1,444.1,232.7,444.1L232.7,444.1z M228.8,507 c-0.3-0.7-0.5-1.5-0.8-2.2s-0.2-1.5-1.2-2.1C226.8,504.7,227.9,505.9,228.8,507z"></path> <path style="fill:#FFCE00;" d="M850.1,441.3c-1.9-4.7-6.7-6.2-10.8-3.3c-2.1,1.5-4.3,3-6.7,4.1c-2.9,1.3-5.9,2-9.1,1.8 c-2.5-0.2-5-0.3-7.4-0.5c-0.9-0.1-1.7-0.5-2.5-0.9c0.6-0.5,1.2-0.1,1.7,0c4.6,0.9,9.3,1.4,13.9,0.1c3.1-0.8,6.1-2.3,8.6-4.4 c2.2-1.8,4.7-2.4,7.5-2c1.9,0.3,3.4,1.1,4.4,2.8c0.4,0.6,0.8,1.3,1.2,2c1.1-0.3,2.3-0.5,3.4-0.8c7-1.6,14.1-1.6,21.1-0.1 c1.1,0.2,1.1,0.2,1.9-0.1c0.5,0.3,0.9,0.7,1.3,0.9c2,0.7,4,1.3,6,2c4.4,1.5,7.8,0.1,9.5-4.3c0.4-1.1,0.7-2.3,1.1-3.6 c1.5,0,3.2,0,4.9,0c0,7.3,0,14.6,0,22c-1.9,0.4-3.4,0.4-5.1-1.1c-5.5-5.2-12-8.6-19.5-10.4c-0.2,0.9-0.3,1.8-0.5,2.6 c-0.7,3.1-1.7,5-5.7,3c-2-1.1-4-2.2-6.2-3.1s-4.4-1.7-6.6-2.4c-0.7-0.2-1.5-0.1-2.2,0.1c-9.2,2.3-16.9,7.2-23.1,14.4 c-0.8,1-1.2,1.9-1.2,3.2c0.1,16.8,0.1,33.7,0.1,50.5c0,1.3,0.5,2.3,1.3,3.1c7.6,8.5,16.9,13.8,28.4,15.1c12.5,1.4,23.7-1.9,33.5-9.7 c1.1-0.9,1.7-1.8,1.6-3.3c-0.1-4.3,0-8.6,0-12.9c0-1.4-0.3-2.8-0.5-4.3s-0.3-3-1-4.5c-1.9-3.9-4.6-6.4-9.1-6.9 c-0.2,0-0.5-0.1-0.8-0.1c0-1.3,0-2.6,0-3.8c1.5-0.4,26.2-0.5,28.1-0.1c0,1.3,0,2.5,0,3.8c-0.6,0.1-1.1,0.3-1.7,0.3 c-5.4,0.8-8.1,5.3-8.9,9c-0.6,2.9-1,5.8-0.9,8.9c0.2,4.4,0,8.7,0.1,13.1c0,1-0.3,1.7-1.1,2.4c-8.5,8-18.6,12.7-30.3,13.4 c-14.8,1-27.7-3.6-38.4-14.1c-8.3-8.1-13.1-18-14.4-29.5c-2.7-23.7,11.3-43.9,31.4-51.8C848.5,441.9,849.3,441.6,850.1,441.3z M875.2,445.7c-4.4-1.6-15.2-1.8-17.1-0.5c2.5,1.2,5.1,2.4,7.8,3.6c1.6,0.8,3.2,1.7,4.8,2.4c1.8,0.8,2.7,0.4,3.4-1.3 C874.6,448.5,874.9,447.1,875.2,445.7z"></path> <path style="fill:#FFCE00;" d="M102.7,537.3c0-1.7,0-3.3,0-4.9c0.3-0.1,0.6-0.1,0.8-0.2c4.8-0.3,7.6-3.2,9.2-7.3 c1.3-3.2,1.9-6.6,1.9-10c0-11.5,0-23.1,0-34.6c0-6.7,0.1-13.5,0-20.2c0-3.7-0.8-7.3-2.6-10.6c-1.4-2.6-3.4-4.6-6.5-5.2 c-0.8-0.2-1.7-0.2-2.7-0.3c0-1.6,0-3.2,0-5c12,0,24,0,36.1,0c0,1.7,0,3.3,0,5c-0.9,0.1-1.7,0.1-2.5,0.3c-3.6,0.7-5.7,3.1-7.2,6.2 s-2.2,6.5-2.2,10c0,23.3,0,46.6,0,69.9c0,0.6,0,1.1,0.1,1.8c0.6,0,1.2,0.1,1.7,0.1c7.4,0,14.7,0,22.1,0c3.2,0,6.3-0.6,9.3-1.7 c0.2-0.1,0.5-0.2,0.7-0.3c4.2-1.9,6.9-4.8,6.9-9.8c1.7,0,3.4,0,5.1,0c0,5.7,0,11.2,0,17C149.6,537.3,126.3,537.3,102.7,537.3z"></path> <path style="fill:#FFCE00;" d="M182.1,444c0-0.7,0-1.3,0-1.8c0-1,0-2.1,0-3.3c12.8,0,25.4,0,38.2,0c0,1.6,0,3.3,0,4.9 c-0.2,0.1-0.3,0.2-0.4,0.2c-4.6,0.1-7.5,2.6-9.4,6.6c-1.4,3-2.1,6.3-2.1,9.6c0,18.9,0,37.8,0,56.7c0,3.3,0.8,6.4,2.2,9.4 c1.8,3.7,4.7,5.9,8.9,6c0.2,0,0.4,0.1,0.7,0.1c0,1.6,0,3.3,0,5.1c-12.7,0-25.3,0-38.1,0c0-0.9,0-1.7,0-2.5s0-1.6,0-2.5 c0.5-0.1,0.9-0.2,1.4-0.2c3.5-0.3,6.1-2.1,7.8-5.1c1.7-2.9,2.6-6.1,2.7-9.4c0.1-10,0.1-20.1,0.1-30.1c0-0.2-0.1-0.4-0.1-0.5 c-1.8-0.6-3.7-1.1-5.5-1.8c-2.4-0.8-4.6-2.1-6.7-3.7c-2.3-1.8-4.8-2.1-7.6-1c-1.4,0.6-2.5,1.4-3.1,2.8s-1.2,2.7-1.7,4.1 c-0.8,2.2-2.3,3.8-4.3,5c-0.9,0.5-1.7,1-2.6,1.4c-3.1,1.3-5.7,3.3-8.3,5.4c-1.7,1.4-3.4,2.7-5.2,3.9c-2.1,1.4-3.5,1-4.6-1.4 c-0.4-0.8-0.7-1.6-0.9-2.5c-0.7-3.8-2.3-7.2-4.2-10.5c-0.3-0.5-0.5-1.1-0.5-1.7c1.6,2.8,3.5,5.4,4.4,8.5c0.4,1.4,0.7,2.8,1.1,4.1 c0.3,0.8,0.6,1.7,1.1,2.4c0.9,1.3,1.6,1.5,2.9,0.6c1.7-1.2,3.4-2.5,5.1-3.8c2.8-2.4,5.8-4.5,9.2-6c0.8-0.3,1.5-0.8,2.3-1.2 c1.7-1,2.9-2.3,3.6-4.1c0.6-1.6,1.3-3.1,1.9-4.7c0.7-1.6,1.9-2.5,3.5-3.1c3.4-1.3,6.3-0.7,9.1,1.5c3,2.3,6.5,3.7,10.2,4.5 c0.2,0,0.4,0,0.7,0c0-0.5,0.1-0.9,0.1-1.4c0-8.1,0-16.2,0-24.3c0-2.9-0.6-5.7-1.6-8.4C190.7,447,187.7,444,182.1,444z"></path> <path style="fill:#FFCE00;" d="M880.1,434.7c0.5-0.5,1-1.1,1.5-1.6c0.1,0.1,0.1,0.1,0.2,0.2c-0.6,0.4-1.3,0.8-1.9,1.2 C880,434.6,880.1,434.6,880.1,434.7z"></path> <path style="fill:#FFCE00;" d="M313.7,531.8c0.2,0.8,0.4,1.6,0.6,2.4c-0.1,0-0.2,0-0.3,0.1C313.9,533.4,313.8,532.5,313.7,531.8 C313.7,531.7,313.7,531.8,313.7,531.8z"></path> <path style="fill:#FFCE00;" d="M314.3,527.9c0.3-0.4,0.6-0.8,1-1.1c0.1,0.1,0.2,0.2,0.3,0.2c-0.3,0.4-0.7,0.7-1,1.1 C314.4,528,314.4,528,314.3,527.9z"></path> <path style="fill:#FFCE00;" d="M313.7,531.7c-0.1-0.7-0.2-1.4-0.3-2.1c0.1,0,0.2,0,0.2,0C313.7,530.3,313.7,531,313.7,531.7 C313.7,531.8,313.7,531.7,313.7,531.7z"></path> <path style="fill:#FFCE00;" d="M232.7,444.1c-0.6,0.2-1.1,0.4-1.7,0.6C231.4,444.1,232,443.9,232.7,444.1L232.7,444.1z"></path> <path style="fill:#FFCE00;" d="M327,377.4c-14.8,0.2-24.6-12.5-24.4-23.8c0.3-15.3,12.6-24.4,24-24.4c14.9,0,24.2,12.6,24.3,24.1 C351,368.6,337.5,377.8,327,377.4z M343.8,353c-0.1-9.4-7.8-16.9-17.3-16.9c-7.7,0-16.6,6.6-16.8,16.3c-0.3,9.6,7.3,18,17.4,17.8 C335.9,370.1,343.8,362.4,343.8,353z"></path> <path style="fill:#FFCE00;" d="M638.3,348.4c8.2,2.2,13.7,6.9,14.7,15.5c0.8,7.2-2.3,12.9-8.4,16.5c-6,3.6-12.2,3.1-18.4-0.5 c0.4-2.8,0.8-5.6,1.3-8.8c2.6,2.7,5.3,4.5,8.7,4.3c2.4-0.1,4.6-1,6.4-2.7c3.5-3.5,4.3-8.2,1.6-12.4c-1.6-2.5-3.8-4-6.7-4.6 c-2.9-0.5-5.4,0.5-8,2c1.1-7.5,2.1-14.8,3.2-22.2c5.5-0.7,10.9-1.3,16.5-2c0.5,2.5,0.8,4.9,0.9,7.5c-3.6,0.5-7.1,0.9-10.8,1.4 C638.9,344.4,638.6,346.4,638.3,348.4z"></path> <path style="fill:#FFCE00;" d="M233.1,340.1c0.3-2.5,0.6-4.6,0.9-6.7c3.7,0.1,5.4-0.8,6.2-3.1c0.6-1.9,0-3.9-1.6-5.1 c-1.8-1.4-3.9-1.2-6.4,0.7c-0.7-0.7-1.3-1.4-2-2c-0.6-0.7-1.3-1.3-1.9-2c2.2-3.4,8.9-5.2,13.8-1.6c5.3,3.8,5.7,10.2,1.1,16.5 c6.1,5.3,7.8,11.9,4.7,19.3c-2.4,5.8-7.1,8.9-13.3,9.4c-6.9,0.5-12-2.4-15.6-8.5c1.8-1.4,3.6-2.7,5.6-3.9c1.4,2.7,3.4,4.7,6.4,5.5 c1.9,0.5,3.7,0.4,5.5-0.2c4-1.4,6.3-5.2,6.1-9.7c-0.1-2.4-1.3-4.4-3.1-6C237.6,341,235.5,340.2,233.1,340.1z"></path> <path style="fill:#FFCE00;" d="M764.8,350.3c-3.8-4.1-7.9-7.6-11.6-12.1c2.8-0.3,5.3-0.7,7.8-0.9c0.5,0,1,0.3,1.4,0.7 c1.6,1.5,3.2,3.1,4.8,4.7c0.4,0.4,0.9,0.9,1.5,1.4c0.4-0.5,0.7-0.9,1-1.4c1.3-2.1,2.6-4.2,4-6.3c0.2-0.4,0.7-0.8,1.1-0.8 c2.5-0.4,5-0.6,7.9-1c-2.6,5.2-5.8,9.7-8.6,14.6c4.7,4.7,9.3,9.3,14.2,14.2c-0.8,0.2-1.3,0.3-1.8,0.4c-1.9,0.2-3.8,0.4-5.7,0.7 c-1,0.1-1.6-0.1-2.3-0.8c-2.6-2.8-5.3-5.5-8.1-8.4c-0.5,0.6-0.8,1-1.1,1.3c-1.8,2.9-3.6,5.8-5.4,8.7c-0.5,0.9-1.1,1.3-2.2,1.4 c-2.5,0.2-4.9,0.6-7.8,0.9C757.4,361.7,761.2,356.2,764.8,350.3z"></path> <path style="fill:#FFCE00;" d="M347.1,378.8c4.8-4.6,9.6-9.2,14.5-13.9c-2.8-4.8-5.5-9.5-8.5-14.6c2.1,0.2,3.8,0.5,5.6,0.6 c2.3,0,3.6,1.1,4.5,3.1c1,2,2.2,3.9,3.5,6c0.6-0.6,1.2-0.9,1.6-1.4c1.4-1.4,2.8-2.9,4.2-4.2c0.4-0.3,0.9-0.6,1.4-0.6 c2.6,0,5.2,0.4,8,1c-3.8,3.8-7.5,7.5-11.3,11.3c3.4,5.7,6.9,11.3,10.5,17.3c-1.3-0.1-2.2-0.2-3-0.3c-1.5-0.2-3.1-0.4-4.6-0.6 c-1-0.1-1.5-0.5-2-1.4c-1.9-3.3-4-6.6-6.1-10.1c-1.3,1.2-2.5,2.3-3.7,3.5c-1.7,1.6-3.3,3.2-4.9,4.9c-0.7,0.7-1.4,0.9-2.3,0.8 c-2.4-0.3-4.9-0.6-7.4-0.9C347.2,379.1,347.2,378.9,347.1,378.8z"></path> </svg> 