<?xml version="1.0" encoding="UTF-8"?> <svg xmlns="http://www.w3.org/2000/svg" xmlns:xlink="http://www.w3.org/1999/xlink" version="1.1" id="Layer_1" x="0px" y="0px" viewBox="0 0 1000 1000" style="enable-background:new 0 0 1000 1000;" xml:space="preserve"> <path id="Shape_00000040541709403781856770000002505458042668340373_" style="fill:#FFCE00;" d="M352.1,763.4 c2.2-3.1,3.3-6.8,3.3-10.6c0-5.4-1.9-10-5.6-13.8s-8.3-5.6-13.8-5.6h-24.1v60.4h9.9v-22h11.7l12.8,22h10.9l-13.7-23.5 C347,769,350,766.5,352.1,763.4L352.1,763.4L352.1,763.4z M336,762.9h-14.2v-20.2H336c2.6,0,5,1,6.7,2.9c3.7,4.1,3.7,10.3,0,14.3 C341,761.9,338.6,763,336,762.9L336,762.9z M406.3,767.8c-1-1.1-2-2.1-3.1-3c-1-0.8-2.4-1.6-4.4-2.4c-1.9-0.8-3.4-1.4-4.5-1.8 c-1.1-0.4-2.7-0.9-5-1.7c-4.6-1.4-7.8-2.8-9.5-4.1c-1.7-1.2-2.7-3.2-2.6-5.3c0-2.3,0.9-4.1,2.6-5.5s4-2,6.9-2 c5.9,0,10.1,2.8,12.7,8.5l8.4-4.8c-1.8-4-4.7-7.4-8.4-9.7c-3.6-2.4-7.8-3.5-12.7-3.5c-5.3,0-9.9,1.6-13.7,4.7 c-3.8,3.1-5.7,7.4-5.7,12.7c0,2.7,0.5,5.1,1.5,7.1s2.5,3.8,4.4,5c1.8,1.2,3.7,2.3,5.6,3.1c2.3,0.9,4.6,1.7,7,2.4 c5.1,1.6,8.7,3,10.7,4.3s3,3.2,3,5.6c0.1,2.3-1,4.4-2.8,5.7c-1.9,1.5-4.7,2.2-8.4,2.2c-7.6,0-12.6-3.4-15-10.2l-8.5,5 c1.5,4.5,4.5,8.3,8.5,10.9c4.1,2.6,9,4,14.8,4c6.4,0,11.5-1.6,15.5-4.8c3.9-3.2,5.9-7.5,5.9-13c0-1.8-0.2-3.5-0.7-5.3 C408.2,770.4,407.4,768.9,406.3,767.8L406.3,767.8z M416.7,742.9h17.1v50.9h9.9v-50.9h17v-9.5h-44V742.9L416.7,742.9z M230.1,793.8 h12.2v-30.2h30.3v-11.7h-30.3v-20.8h31.4v-11.7h-43.6V793.8L230.1,793.8z M285.8,793.8h9.9v-60.4h-9.9V793.8z M564.1,768h24.1v-9.4 h-24.1v-15.7h26.3v-9.5h-36.2v60.4h36.6v-9.5h-26.7L564.1,768L564.1,768z M741.6,732.3c-8.7,0-16.1,3-22.2,9.1 c-6.1,6.1-9.1,13.5-9.1,22.2s3,16.1,9.1,22.2s13.5,9.1,22.2,9.1s16.1-3,22.2-9.1c6.1-6.1,9.1-13.5,9.1-22.2s-3-16.1-9.1-22.2 C757.7,735.4,750.3,732.3,741.6,732.3L741.6,732.3L741.6,732.3z M756.8,779.1c-4.1,4.1-9.2,6.2-15.2,6.2s-11.1-2.1-15.2-6.2 s-6.2-9.3-6.2-15.5s2.1-11.4,6.2-15.5c4.1-4.1,9.2-6.2,15.2-6.2s11.1,2.1,15.2,6.2c4.1,4.1,6.2,9.3,6.2,15.5 C762.9,769.8,760.9,775,756.8,779.1L756.8,779.1z M644.3,763.4c2.2-3.1,3.3-6.8,3.3-10.6c0-5.4-1.9-10-5.6-13.8 c-3.8-3.8-8.3-5.6-13.8-5.6h-24.1v60.4h9.9v-22h11.7l12.8,22h10.9l-13.7-23.5C639.2,769,642.2,766.5,644.3,763.4L644.3,763.4z M628.2,762.9H614v-20.2h14.2c2.6,0,5,1,6.7,2.9c3.7,4.1,3.7,10.3,0,14.3C633.2,761.9,630.8,763,628.2,762.9L628.2,762.9 L628.2,762.9z M698.5,767.8c-1-1.1-2-2.1-3.1-3c-1-0.8-2.4-1.6-4.4-2.4c-1.9-0.8-3.4-1.4-4.5-1.8c-1.1-0.4-2.7-0.9-5-1.7 c-4.6-1.4-7.8-2.8-9.5-4.1c-1.7-1.2-2.7-3.2-2.6-5.3c0-2.3,0.9-4.1,2.6-5.5c1.7-1.4,4-2,6.9-2c5.9,0,10.1,2.8,12.7,8.5l8.4-4.8 c-1.8-4-4.7-7.4-8.4-9.7c-3.6-2.4-7.8-3.5-12.7-3.5c-5.3,0-9.9,1.6-13.7,4.7c-3.8,3.1-5.7,7.4-5.7,12.7c0,2.7,0.5,5.1,1.5,7.1 s2.5,3.8,4.4,5c1.8,1.2,3.7,2.3,5.6,3.1c2.3,0.9,4.6,1.7,7,2.4c5.1,1.6,8.7,3,10.7,4.3s3,3.2,3,5.6c0.1,2.3-1,4.4-2.8,5.7 c-1.9,1.5-4.7,2.2-8.4,2.2c-7.6,0-12.6-3.4-15-10.2l-8.5,5c1.5,4.5,4.5,8.3,8.5,10.9c4.1,2.6,9,4,14.8,4c6.4,0,11.5-1.6,15.5-4.8 c3.9-3.2,5.9-7.5,5.9-13c0-1.8-0.2-3.5-0.7-5.3C700.4,770.4,699.6,768.9,698.5,767.8L698.5,767.8L698.5,767.8z M519.2,719.4h-27.4 v74.5H504v-25.5h15.2c7,0,12.9-2.4,17.6-7.1c4.7-4.7,7.1-10.5,7.1-17.4s-2.4-12.8-7.1-17.4C532.1,721.7,526.2,719.4,519.2,719.4 L519.2,719.4z M528.1,753.1c-2.3,2.4-5.3,3.7-8.9,3.7H504v-26h15.2c3.6,0,6.6,1.2,8.9,3.7c2.3,2.4,3.5,5.5,3.5,9.3 C531.6,747.6,530.5,750.7,528.1,753.1L528.1,753.1L528.1,753.1z M821.8,733.4v41l-28.5-41h-7.8v60.4h9.9v-41l28.5,41h7.8v-60.4 H821.8L821.8,733.4z"></path> <path id="Path-5_00000070797526694466132510000000040002632244785069_" style="fill-rule:evenodd;clip-rule:evenodd;fill:#FFCE00;" d=" M128.3,703.5c29.6-15.8,67.9,0.9,70.8,41.1C144.1,748.9,137.5,724.2,128.3,703.5z"></path> <path id="Path-7_00000149367024305364704460000002479639474513150353_" style="fill-rule:evenodd;clip-rule:evenodd;fill:#FFCE00;" d=" M131.4,803.5c29.6,15.8,67.9-0.9,70.8-41.2C147.3,758,140.6,782.8,131.4,803.5z"></path> <path id="Shape_14_" style="fill:#FFCE00;" d="M358.2,360.8c-114.5-3-225.7-9.7-329.6-19.8v-4.5c103.8,10.1,215.3,16.8,329.6,19.8 V360.8z M40.3,318.4H28.6v11.7h11.7V318.4z M60.1,320.2H48.4V332h11.7C60.1,332,60.1,320.2,60.1,320.2z M80.1,322H68.4v11.7h11.8 V322H80.1z M100.3,323.8H88.6v11.7h11.7C100.3,335.5,100.3,323.8,100.3,323.8z M120.8,325.4h-11.7v11.7h11.7V325.4z M141.5,326.9 h-11.7v11.7h11.7V326.9z M162.3,328.4h-11.7v11.7h11.7V328.4z M183.4,329.8h-11.7v11.7h11.7V329.8z M204.6,331h-11.7v11.7h11.7V331z M226.1,332.3h-11.7V344h11.7V332.3z M247.7,333.4H236v11.7h11.7V333.4z M269.4,334.4h-11.7v11.7h11.7V334.4z M291.4,335.3h-11.7 V347h11.7V335.3z M313.5,336.1h-11.7v11.7h11.7V336.1z M335.8,336.9h-11.7v11.7h11.7V336.9z M358.2,337.5h-11.7v11.7h11.7V337.5z M645.6,360.9c114.5-3.1,225.7-9.8,329.6-19.9v-4.5c-103.8,10.1-215.3,16.8-329.6,19.8V360.9z M963.6,318.4h11.7v11.7h-11.7V318.4z M943.8,320.2h11.7V332h-11.7V320.2z M923.7,322h11.7v11.7h-11.7V322z M903.5,323.8h11.7v11.7h-11.7V323.8z M883.1,325.4h11.7v11.7 h-11.7V325.4z M862.4,326.9h11.7v11.7h-11.7V326.9z M841.5,328.4h11.7v11.7h-11.7V328.4z M820.5,329.8h11.7v11.7h-11.7V329.8z M799.2,331h11.7v11.7h-11.7V331z M777.8,332.3h11.7V344h-11.7V332.3z M756.2,333.4h11.7v11.7h-11.7V333.4z M734.4,334.4h11.7v11.7 h-11.7V334.4z M712.5,335.3h11.7V347h-11.7V335.3z M690.4,336.1h11.7v11.7h-11.7V336.1z M668.1,336.8h11.7v11.7h-11.7V336.8z M645.7,337.5h11.7v11.7h-11.7V337.5z"></path> <path id="Shape_24_" style="fill:#FFCE00;" d="M287.2,403.3c9.4,0.7,18.7,2.7,27.5,6c8.6,3.2,16.6,7.6,23.8,13.2 c6.8,5.3,12.5,11.8,16.8,19.2c4.3,7.5,6.5,15.9,6.4,24.6v15.6c0,11.1-4,21-12.1,30.1c-8.3,9.2-18.8,16.2-30.4,20.4 c14.6,31.6,29.2,62.5,43.9,93c2,3.4,4.6,6.4,7.7,8.8c3.2,2.3,7.1,3.4,11.1,3v5.6c-15.8,0.6-31.5,1.3-47.3,2.2 c-16.8-34.4-33.5-69.5-50.2-105.6l-39.1,0.3v92c0,4,2,7.1,6.1,9.2c4,2.1,8.5,3.1,13,2.7v6c-24.7,1.9-49.3,4.1-73.9,6.6v-6.3 c4.6-0.5,9-2.3,12.7-5c4.2-2.9,6.4-6.4,6.4-10.5V417.9c0-4.1-1.7-8-4.7-10.7c-3.1-3-7.9-4.9-14.4-5.5V395 C222.5,398.3,254.8,401,287.2,403.3z M325.9,447.2c-0.1-3.5-1.1-6.8-3-9.7c-2.1-3.4-4.7-6.5-7.9-9c-3.2-2.6-6.7-4.9-10.4-6.8 c-3.3-1.8-6.9-2.9-10.6-3.2c-16.3-1-32.6-2.1-48.9-3.3v110h45.1c9,0.1,17.7-2.9,24.7-8.6c6.8-5.2,10.9-13.1,11.1-21.7L325.9,447.2z M588.8,626.7c1,2.8,3,5.1,5.6,6.5c3,1.8,6.4,2.8,9.8,3.1l2.6,0.1v5.9c-22.4-0.8-44.9-1.3-67.3-1.5V635h2.6c4,0,6.8-0.8,8.3-2.6 c1.5-1.7,2-4.2,1.1-6.3c-4.8-14.4-9.7-28.8-14.5-43.1c-30.1-0.2-60.3-0.1-90.4,0.1c-4.7,14.1-9.4,28.2-14.1,42.3 c-0.9,2.2-0.8,4.7,0.2,6.8s3,3.2,6.1,3.1l3.8-0.1v5.9c-15.9,0.3-31.8,0.7-47.7,1.2v-5.9h1.2c3.6,0,7.2-1.1,10.2-3.1 c2.6-1.7,4.8-3.9,6.4-6.5c26.3-73.1,52.6-144.4,78.9-215.9h19.6C537.1,482.4,563,553.7,588.8,626.7z M531.7,569.3 c-13.4-36.3-26.7-72.6-40.1-108.8c-13.8,36.2-27.6,72.5-41.4,108.8C477.4,569.2,504.6,569.2,531.7,569.3L531.7,569.3z M716.6,403.3 c9.5-0.7,19.1,0.2,28.2,2.8c8.5,2.4,16.5,6.3,23.6,11.6c6.7,5,12.2,11.4,16.2,18.7c4,7.3,6,15.4,6,23.7v16.2c0,8.5-2.1,17-6.1,24.5 c-4.1,7.6-9.7,14.4-16.4,20c-7,5.8-15,10.4-23.6,13.5c-8.9,3.3-18.3,5.1-27.9,5.2c-14.2-0.1-28.4-0.2-42.6-0.3v87.7 c0,4.3,2.1,7.5,6.1,9.7s8.4,3.5,13,3.8v6.1c-24.8-1.5-49.7-2.8-74.5-3.7v-5.9c4.6,0.2,9.1-0.7,13.2-2.8c4-2,6-4.9,6-8.7V427 c0.2-4.1-2.2-8-6-9.7c-4.1-2.1-8.6-3-13.2-2.8v-5.9C651.3,407.4,684,405.6,716.6,403.3z M674.1,419.1v106.8h42.6 c4.4,0,8.8-0.9,13-2.5c4.4-1.6,8.5-3.8,12.3-6.5c3.7-2.5,6.8-5.7,9.4-9.3c2.3-3.2,3.6-7,3.6-11V443c0-3.9-1.3-7.6-3.6-10.7 c-2.5-3.5-5.7-6.4-9.4-8.7c-3.8-2.4-7.9-4.3-12.3-5.5c-4.2-1.2-8.6-1.7-13-1.4C702.4,417.6,688.2,418.4,674.1,419.1L674.1,419.1z M28.9,446.9c-0.1-9.5,1.6-19,5.1-27.9c3.2-8.3,8.1-15.8,14.6-22c6.5-6.1,14.4-10.5,23-13c9-2.7,19.3-3.2,30.9-1.6 c7.9,1.2,15.7,3.5,22.9,7c7.7,3.6,15,8.1,21.6,13.4c6.2,4.9,11.7,10.8,16.1,17.4c4,5.7,6.3,12.6,6.4,19.6c0.1,4.1-1.6,8-4.7,10.7 c-3.2,3-7.5,4.4-11.9,4c-4.7-0.1-9.2-1.9-12.7-5c-3.3-2.9-5.2-7.1-5.1-11.5c0-10.8-3.1-19.8-9.3-27.2c-6.2-7.5-14.6-11.9-25-13.2 c-10.7-1.2-19.3,0.9-25.6,6.8c-6.2,5.6-9.7,13.6-9.5,22v193.7c0,4.7,1.2,9.3,3.5,13.4c2.2,4.2,5.1,7.9,8.7,11.1 c3.6,3.1,7.6,5.6,12.1,7.2c4.3,1.7,8.9,2.3,13.5,1.8c6.7-0.8,13.1-2.8,19.1-5.9c6.1-3.1,11.8-7,16.7-11.7c4.8-4.5,8.8-9.8,11.9-15.7 c2.9-5.6,4.4-11.8,4.5-18.1v-24.6c5.5-0.2,11-0.5,16.6-0.7v25.7c0,8.1-2,16.1-5.7,23.3c-4,7.6-9.2,14.4-15.5,20.2 c-6.6,6.2-14.1,11.4-22.3,15.5c-8.2,4.2-17,7-26.1,8.2c-18.6,2.7-37.5-2.9-51.6-15.5c-6.9-6.2-12.4-13.8-16.1-22.2 c-4-8.8-6-18.4-5.9-28V446.9H28.9z M896.6,399.2c-15,1.8-27,7.2-36,16.2S847,435.9,847,450.2c0,6.5,1.5,13,4.5,18.8 c3,6.1,8.7,11.8,17.2,17.4c27.8,19.5,55.6,40.4,83.4,63.2c8,7.3,14.2,16.3,18.2,26.4c3.6,9.2,5.1,19,4.6,28.9 c-0.5,9.5-2.9,18.7-6.9,27.3c-3.9,8.3-9.4,15.8-16.3,21.9c-6.9,6.1-15.1,10.6-23.9,13.3c-9.6,2.8-19.6,3.5-29.5,2 c-11.6-1.5-21.2-4-28.8-7.5c-8.2-3.8-15.9-8.6-22.9-14.3c-0.9-0.6-2-1.3-3.4-2.2c-1.3-0.8-2.7-1.4-4.2-1.5c-1.4-0.1-2.8,0.3-3.8,1.3 c-1.1,1-1.7,3.2-1.7,6.7v6.3l-9-0.9v-58.8l7.7,0.5c0.8,13.7,8,25.5,21.4,35.8s26.8,16.5,40.1,18c12.7,1.5,22.9,0,30.5-4.8 s13.2-12.1,15.9-20.7c3-9,3.8-18.5,2.5-27.9c-1.1-9.2-5.4-17.8-12.1-24.2c-13.8-11.5-25.4-20.7-34.7-28.1 c-9.3-7.4-17.1-13.3-23.3-18s-11.1-8.2-14.6-10.7c-3.6-2.5-6.5-4.6-8.9-6.4c-2.4-1.7-4.4-3.1-5.9-4.2s-3.5-2.5-5.7-4.2 c-7.3-5.4-13.2-12.5-17.2-20.7c-3.8-8-5.7-15.3-5.7-22.2c-0.6-9,1-18.1,4.7-26.4c3.7-8.7,9.1-16.6,15.7-23.3 c7-7.1,15.1-13.1,24-17.6c9.2-4.8,19.2-7.9,29.5-9.2c12.1-1.6,22-1.2,29.5,1.1c6.5,1.9,12.7,4.7,18.4,8.3c3.9,2.2,7,2.5,9.1,0.7 c1.9-1.4,3.1-3.6,3.2-6v-9.9l8.5-1.2v64.6l-8.5,0.7c0.1-6.7-1.2-13.4-3.8-19.6c-2.4-5.5-6.2-10.4-10.8-14.2 c-4.8-3.9-10.5-6.7-16.5-8.2C910.4,398.7,903.4,398.3,896.6,399.2z"></path> <path style="fill:#FFCE00;" d="M384.7,303.6c0.3-2.3,0.6-4.6,0.9-6.8c1.1-9.1,2-18.3,3.5-27.3c1.4-8.8,4.1-17.3,8-25.4 c5-10.5,10-21,14.9-31.5c3.9-8.3,13.2-12.4,22-9.6c16.9,5.4,33.7,10.7,50.6,16.2c8.7,2.8,13.9,11.4,12.4,20.5 c-1.6,9.5-3.3,18.9-5.1,28.3c-2.3,12-6,23.5-10.8,34.6c-4,9.2-7.9,18.4-11.8,27.6c-2.3,5.3-5.9,9.1-11.7,10.4 c-3.1,0.7-6.2,0.5-9.2-0.5c-14.1-4.6-28.3-9.3-42.4-13.9c-2.7-0.9-5.3-1.7-8-2.6c-7.5-2.7-11.7-8.3-13.1-16 c-0.1-0.4-0.2-0.7-0.2-1.1C384.7,305.4,384.7,304.5,384.7,303.6z M463.6,327.2c0.2,0.2,0.5,0.7,0.9,0.8c0.9,0.1,1-0.6,1.1-1.3 c1.4-8.2,2.8-16.3,4.1-24.5c2-11.8,5.4-23.2,9.8-34.2c4-9.9,8.5-19.7,12.7-29.5c0.2-0.4,0.4-0.8,0.4-1.2c0-0.3-0.3-0.8-0.5-0.9 c-0.3-0.1-0.8,0-1.1,0.2c-0.3,0.2-0.4,0.6-0.5,1c-4.6,10.6-9.2,21.2-13.8,31.8c-3.2,7.4-10.7,10.7-18.3,8.3 c-17.4-5.7-34.8-11.3-52.1-16.9c-0.7-0.2-1.5-0.5-1.8,0.5c-0.3,0.9,0.5,1.1,1.1,1.4c17.2,5.7,34.4,11.3,51.6,16.9 c7.3,2.4,12.4,10.5,11.2,18.1c-1,6.4-2.1,12.7-3.2,19.1C464.8,320.2,464.2,323.5,463.6,327.2z M458.5,258.3 c-1.5,0.5-3.1,0.7-4.5,1.4c-3.1,1.6-3.6,5.1-1.4,7.8c2.7,3.3,8.3,4.3,12,2.3c3.2-1.7,3.8-5.2,1.5-7.9 C464.1,259.6,461.5,258.7,458.5,258.3z M446.1,247.6c1.4-0.4,2.9-0.6,4.2-1.3c3.3-1.6,3.9-5.2,1.4-7.9c-2.5-2.8-7.3-3.9-10.9-2.5 c-4.2,1.6-5,6-1.6,9C441.2,246.6,443.5,247.4,446.1,247.6z M430.3,212.1c-1.3,0.3-2.6,0.5-3.8,1c-3.9,1.6-4.5,5.6-1.5,8.5 c2.7,2.6,7.4,3.5,10.9,2c3.8-1.6,4.5-5.5,1.6-8.4C435.4,213.2,433,212.4,430.3,212.1z M405.1,318.7c2.4,0,4.3-0.5,5.4-2.5 s0.6-4-0.7-5.7c-2-2.7-4.7-4.1-8-4.3c-2.1-0.1-4,0.6-5.1,2.6s-0.5,3.9,0.7,5.6C399.3,317.1,402,318.4,405.1,318.7z M443.6,319.3 c-2.5,0-4.4,1-5.2,2.5c-1,1.9-0.6,3.7,0.5,5.4c2.1,3.1,5,4.8,8.8,4.6c4.4-0.2,6.3-4,4-7.7C449.7,321,446.8,319.5,443.6,319.3z M428.9,308.3c0.3,0,0.5,0,0.8,0c3.7-0.3,5.6-3.5,4-6.9c-1.5-3.3-5.7-5.7-9.5-5.3c-3.9,0.3-5.8,3.7-3.9,7.2 C422.1,306.6,425.2,308.1,428.9,308.3z M406.9,273c-0.3,0-0.6,0-0.9,0c-3.3,0.3-5.2,2.9-4.3,5.9c1.2,4.3,7.2,7.4,11.4,5.9 c2.6-0.9,3.7-3.3,2.7-6C414.6,275.5,410.7,272.9,406.9,273z M447.8,286c-1.7,0-3.5,0.5-4.6,2.4s-0.6,3.9,0.6,5.5 c2.3,3.2,5.4,4.7,9.4,4.2c3.2-0.4,4.7-3.2,3.7-6.2C455.7,288.7,451.9,286.1,447.8,286z M483.5,276.1c-0.1-0.1-0.3-0.1-0.4-0.2 c-0.4,0.6-1,1.1-1.3,1.8c-2.2,4.2-3.6,8.8-4.2,13.5c-0.1,0.7,0.2,1.4,0.3,2.1c0.5-0.5,1.2-0.9,1.5-1.5c2.3-4.4,3.7-9,4.3-14 C483.8,277.4,483.6,276.8,483.5,276.1z"></path> <path style="fill:#FFCE00;" d="M617,313.6c0,5.2-1.1,10.2-3.5,14.9c-3.8,7.4-7.3,15-11.1,22.5c-5.1,10.2-13.2,16.8-24.2,19.6 c-14.1,3.6-28.2,7-42.3,10.5c-8.5,2.1-18.1-2.4-22.1-10.1c-6.7-13.3-13.4-26.7-20-40.1c-2.9-6-3.5-12.4-3.2-18.9 c0.2-4,1.3-7.9,2.9-11.6c3.2-7.8,6.2-15.7,9.6-23.5c4.4-10,12.1-16.4,22.8-18.8c13-3,26-5.7,38.9-8.5c2.1-0.5,4.2-1,6.3-1.3 c8.4-1,17.2,3.6,21.2,11.1c7,13.2,14.1,26.3,21.1,39.5C615.8,303,617,308.2,617,313.6z M527,368.6c0.2,0.3,0.4,0.7,0.7,0.8 c0.3,0.1,0.8-0.1,1.1-0.3c0.2-0.2,0.3-0.6,0.5-0.9c3.6-8.1,7.1-16.2,10.9-24.2c4.2-8.8,11.1-14.8,20.5-17.5 c10.2-2.9,20.6-5.1,30.9-7.6c4.7-1.1,9.3-2.2,14-3.4c0.4-0.1,0.9-0.7,0.9-1.1c0-0.7-0.7-0.9-1.4-0.7c-0.2,0.1-0.4,0.1-0.7,0.1 c-14.9,3.5-29.8,7.1-44.6,10.6c-7.9,1.8-16.1-2-19.7-9.2c-5.3-10.4-10.6-20.7-15.9-31.1c-1.7-3.2-3.3-6.5-5-9.7 c-0.3-0.6-0.7-1.1-1.4-0.7c-0.8,0.4-0.7,1-0.3,1.6c0.1,0.2,0.2,0.4,0.3,0.6c6.6,13,13.3,26,19.7,39.1c4.5,9.3,4.7,18.9,0.7,28.4 c-3.4,8-7.1,15.9-10.7,23.9C527.4,367.7,527.2,368,527,368.6z M594.6,307.6c2.4-0.1,4.5-0.8,5.5-3.2c1-2.3,0.2-4.4-1.4-6.3 c-1.7-2-4-3-6.6-3.1c-2.4-0.1-4.6,0.7-5.7,3c-1.1,2.3-0.4,4.4,1.2,6.3C589.4,306.5,591.8,307.5,594.6,307.6z M557.6,317.3 c2.4-0.1,4.5-0.8,5.5-3.1c1.1-2.3,0.3-4.4-1.2-6.3c-1.7-2-4-3.1-6.7-3.1c-2.4,0-4.5,0.7-5.6,3.1c-1.1,2.3-0.4,4.4,1.2,6.3 C552.5,316.3,554.9,317.2,557.6,317.3z M573.3,260.6c-2.4,0-4.5,0.8-5.7,3.1c-0.9,2-0.3,4.5,1.6,6.4c2,2,4.4,2.9,7.2,2.6 c2.1-0.2,3.9-1.1,4.8-3.1c0.9-2.1,0.3-4-1.1-5.7C578.5,261.8,576.1,260.7,573.3,260.6z M539.2,282.6c0.4,0,0.8,0,1.3-0.1 c4-0.6,6-4.5,3.9-7.9c-1.9-3.1-4.7-4.4-8.3-4.1c-2.1,0.2-3.9,1.1-4.7,3.2c-0.9,2-0.4,3.9,0.9,5.5C534,281.4,536.4,282.5,539.2,282.6 z M550.5,361.9c-3.8,0.4-7.3,2.1-9.9,5.3c-0.4,0.5-0.7,1-0.9,1.6c-0.5,1.4,0.1,2.4,1.5,2.8c0.5,0.2,1.1,0.3,1.7,0.2 c4.2-0.3,7.7-2,10.4-5.2c0.8-0.9,1.4-2.1,0.8-3.3C553.3,362,552.1,361.9,550.5,361.9z M593.7,335.8c3.8-0.4,7.3-1.9,9.9-5.1 c0.4-0.5,0.7-1.2,1-1.9c0.3-1-0.1-1.9-1.1-2.3c-0.5-0.2-1.2-0.4-1.7-0.4c-4.5,0.2-8.2,1.9-10.9,5.5c-1.5,2-0.7,3.7,1.8,4.1 C593,335.8,593.2,335.8,593.7,335.8z M524,321.7c0.1,2.9,0.3,5,1.5,6.8c1.3,2.1,3.3,2.2,4.3-0.1c1.8-3.7,1.7-7.5-0.3-11.1 c-1.2-2.2-3.3-2.2-4.3,0.2C524.5,319,524.2,320.8,524,321.7z M524.5,337.4c-0.1,0-0.2-0.1-0.3-0.1c0-2.1-0.3-4.1-1.4-5.9 c-1.3-2.1-3.2-2.2-4.3,0.1c-1.8,3.7-1.7,7.5,0.3,11.1c1.2,2.3,3.3,2.2,4.3-0.2C523.8,340.9,524.1,339.1,524.5,337.4z M510.5,350.8 c0.1,0,0.2,0.1,0.3,0.1c0,2.1,0.3,4.1,1.4,6c1.3,2.1,3.2,2.1,4.2-0.1c1.8-3.7,1.7-7.6-0.3-11.2c-1.1-2.2-3.2-2.1-4.2,0.1 C511.2,347.3,511,349.1,510.5,350.8z M516.8,293.6c-0.6-1.9-0.9-3.8-1.7-5.5c-1.1-2.3-3.2-2.2-4.2,0c-1.7,3.6-1.7,7.3,0.2,10.8 c1.2,2.2,3.2,2.2,4.2,0C516,297.2,516.3,295.4,516.8,293.6z M510.2,307.9c-0.2-2.2-0.8-4.5-1.6-5.9c-1.3-2.1-3.2-2.1-4.2,0.1 c-1.7,3.6-1.7,7.3,0.2,10.9c1.1,2.2,3.2,2.1,4.2-0.1C509.4,311.3,509.7,309.6,510.2,307.9z M503.4,322.7c-0.1-2.9-0.3-4.9-1.4-6.7 c-1.2-2.1-3.1-2.1-4.1,0.1c-1.7,3.7-1.7,7.4,0.2,11c1.1,2.1,3.1,2.1,4.1-0.1C502.8,325.4,503.1,323.6,503.4,322.7z"></path> </svg> 