<?xml version="1.0" encoding="UTF-8"?> <svg xmlns="http://www.w3.org/2000/svg" xmlns:xlink="http://www.w3.org/1999/xlink" version="1.1" id="Layer_1" x="0px" y="0px" viewBox="0 0 1000 1000" style="enable-background:new 0 0 1000 1000;" xml:space="preserve"> <path style="fill:#FFCE00;" d="M839.5,233.1c8.8,2.2,17.7,4,26.3,6.6c52.2,16,88.5,66.6,89.6,120.6c1.2,61.3-43.6,116.7-104.3,128.2 c-38.7,7.3-74.3-1.2-105.8-25.9c-26.9-21.1-43.2-48.8-47.2-81.9c-8.9-72.4,36.5-132.6,106-145.8c3.1-0.6,6.2-1.2,9.4-1.8 C822.2,233.1,830.8,233.1,839.5,233.1z M826.7,304.3c-33.6,0.3-58.7,25.9-58.6,59.4c0.1,32.9,25.2,57.2,59.5,57.4 c31.1,0.2,58.2-26.7,57.5-57.9C884.4,329,858.3,304.8,826.7,304.3z"></path> <path style="fill:#FFCE00;" d="M375.4,233.1c8.8,2.1,17.8,3.7,26.4,6.4c34.5,10.5,60.8,31.7,76.6,63.9c23.8,48.5,20.2,96-13.1,138.8 c-29,37.2-69.4,53.2-116.3,48.2c-55.5-5.9-101.7-47.6-112.2-103.7c-13.3-70.3,35.1-140.9,105.7-151.7c3.4-0.5,6.8-1.2,10.2-1.8 C360.2,233.1,367.8,233.1,375.4,233.1z M363.6,304.4c-34.3,1.4-57.4,25.9-57.9,58.8c-0.5,35.3,27.5,57.7,58.2,57.7 c31,0,59.5-23.6,58.5-58.4C421.3,328.3,396,305.4,363.6,304.4z"></path> <path style="fill:#FFCE00;" d="M503.1,539.2c12.8,3.4,18.7,13,23.4,24.5c22,53.3,44.6,106.4,66.9,159.5c7.4,17.6,0,34.7-18.7,41.3 c-16.1,5.7-33.1,2-40.1-18.5c-2.1-6.2-5-12.3-6.8-18.6c-1.2-4.1-2.9-5.7-7.4-5.6c-18.3,0.3-36.6,0.2-54.9,0c-4.2,0-6.1,1.1-7.8,5.3 c-4,9.8-8.3,19.7-13.9,28.6c-6.5,10.3-19.6,13.4-32.4,9.4c-14-4.5-22.8-14.5-22.2-27c0.3-6.2,1.6-12.8,4.2-18.4 c23.7-52.4,48-104.5,71.6-156.9c5.1-11.2,11.3-20.2,23.6-23.6C493.4,539.2,498.2,539.2,503.1,539.2z M479.9,672.6 c9.8,0,18.8,0,28.5,0c-4.3-12.8-8.5-25-13.1-38.7C489.8,647.6,485,659.7,479.9,672.6z"></path> <path style="fill:#FFCE00;" d="M647.3,233.1c9.2,3.8,18.7,7.6,22.6,17.6c2.2,5.6,4,11.8,4.1,17.8c0.3,37.7,1.4,75.6-0.4,113.2 c-1.3,28.2-11.1,54.5-31.2,75.3c-15.6,16.2-35.5,25.8-57.9,28.4c-15.2,1.8-30.7,1.6-46.1,1.8c-15.8,0.2-32.4-15.4-31.6-33.8 c0.8-20.6,13-34.9,31.6-35.8c12.1-0.6,24.4-1,36.2-3.3c17.2-3.4,27.7-15.7,28.8-33.2c1.2-20.1,1.4-40.3,1.7-60.5 c0.3-17.3,0-34.5,0.1-51.8c0-17.9,7.3-28,24.5-34.3c0.6-0.2,1-1,1.4-1.6C636.5,233.1,641.9,233.1,647.3,233.1z"></path> <path style="fill:#FFCE00;" d="M184.8,233.1c8.3,4,17.7,6.8,21.8,16.2c1.9,4.6,4,9.6,4.1,14.4c0.8,34.2,2,68.5,1.3,102.7 c-0.6,27.7-6.1,54.8-22.1,78.4c-16.5,24.3-40.4,37.4-69.2,40.9c-15.2,1.8-30.7,1.8-46.1,1.7c-14.8-0.1-28.2-14.1-29.7-29 c-2.5-25.2,13-42.4,37.7-41.3c8.9,0.4,18,0,26.7-1.7c23.7-4.6,32.5-19.8,33.2-45.5c0.9-31.3,0.9-62.6,0-93.9 c-0.6-21.3,6.3-36.4,27.8-42.9C175,233.1,179.9,233.1,184.8,233.1z"></path> <path style="fill:#FFCE00;" d="M850.2,603.9c0,7,0,13.1,0,20.4c2.8,0,5.3,0,7.9,0c16.6,0,33.2,0,49.9,0 c23.6,0.1,36.4,15.8,31.4,38.4c-2.2,9.9-14,18.7-26.1,18.8c-20.7,0.2-41.4,0.1-62.7,0.1c0,7.2,0,13.9,0,21.5c2.7,0,5.3,0,7.9,0 c22.6,0,45.3-0.1,67.9,0.1c17.1,0.2,29.2,13.2,29.1,30.8c-0.1,17.1-12.6,30.8-29.1,30.9c-37.1,0.2-74.2,0.2-111.3,0 c-16.8-0.1-27.1-11-27.1-27.6c0-55.3,0-110.7,0-166c0-20.2,10.2-30.5,30.3-30.5c35.2,0,70.3,0,105.5,0c16.8,0,28.5,9.3,31.2,26.4 c2,12.3-2.2,28.3-18.6,33.9c-5.1,1.7-10.7,2.7-16.1,2.7C897.3,604,874.2,603.9,850.2,603.9z"></path> <path style="fill:#FFCE00;" d="M112.7,765.2c-12,0-24.1,0.1-36.1,0c-18.1-0.2-29-12.2-29-31.7c-0.1-17,12.2-30.1,28.9-30.3 c21.7-0.2,43.4,0,65-0.2c10.7-0.1,17.3-8.3,12.6-16.5c-1.8-3.1-7-5.8-10.8-6.1c-12.5-0.8-25.1,0.1-37.6-0.4 c-15-0.6-29.1-3.8-41.3-13.5c-10.8-8.6-15.7-20.3-17.9-32.8c-3.7-21.6-2.8-43.2,7.9-63.2c9.1-17.1,24.2-26.7,43-28.1 c24.2-1.8,48.5-2.2,72.7-1.4c17.4,0.5,30.8,15,28,33.9c-2.9,20-14.1,28.6-35.8,28.7c-16.6,0.1-33.2,0-49.9,0.1 c-7.8,0.1-12.8,4.7-12.7,11.3c0.1,6.4,5.6,11.8,12.7,11.9c12.8,0.2,25.5-0.2,38.3,0.1c34.5,0.9,55.6,18.8,58.9,53.8 c1.4,14.7,1.2,28.9-3,43.1c-6.8,23-23,35.9-45.9,39.4c-15.8,2.4-32.1,1.8-48.1,2.6C112.7,765.7,112.7,765.4,112.7,765.2z"></path> <path style="fill:#FFCE00;" d="M232.8,653.1c0-27.8-0.2-55.6,0.1-83.4c0.1-10.7,3-20.6,13.7-25.6c4.4-2.1,9.6-3.2,14.5-3.2 c24.1-0.3,48.2-0.5,72.2,0c14.2,0.3,27.9,3.4,40.5,10.4c16.4,9.1,25.4,23.8,28.9,41.5c4.2,21.9,3,43.5-8.3,63.5 c-10.7,18.9-27.6,28.4-49.1,29.4c-8.3,0.4-17,0.3-25-1.6c-13.8-3.3-17.5-12.3-16.5-28.3c0.9-13.1,9.4-20.1,22.5-20.3 c1.9,0,3.9,0,5.8,0c11.7-0.3,16.4-5.2,17.6-16.3c0.9-8.5-5.2-18.3-14.7-18.5c-12-0.2-23.9-0.9-35.9-1.3c-4.8-0.2-4.4,3.3-4.4,6.5 c-0.5,44.9-1,89.8-1.4,134.7c-0.1,14.6-5,20.9-19.3,24.7c-15,4-31.4-0.8-37.3-12c-2.6-5-3.7-11.3-3.8-17 C232.6,708.6,232.8,680.9,232.8,653.1z"></path> <path style="fill:#FFCE00;" d="M716.9,764.9c-17.1,1-36.1-1.7-54.4-9.8c-19.4-8.6-35-21.4-45.2-39.7c-26-46.6-22.3-92,8.9-134.8 c10.3-14.1,24.8-23.7,41.1-30.5c24.8-10.2,50.7-11.9,76.6-7.7c16.9,2.7,24.9,18.5,22,38.4c-1.7,12.2-15.6,22.8-29.6,23.1 c-12.2,0.2-24.5,0-36.5,1.6c-20,2.6-34.3,18.7-38.2,39.2c-5.2,27.7,13.7,58.5,51.4,58.4c8.2,0,16.4,0,24.6,0.1 c17.6,0.3,28.7,13,28.5,32.6c-0.2,17.3-12,29.1-29.2,29.1C731.1,764.9,725.3,764.9,716.9,764.9z"></path> </svg> 