<?xml version="1.0" encoding="UTF-8"?> <svg xmlns="http://www.w3.org/2000/svg" xmlns:xlink="http://www.w3.org/1999/xlink" version="1.1" id="Layer_1" x="0px" y="0px" viewBox="0 0 1000 1000" style="enable-background:new 0 0 1000 1000;" xml:space="preserve"> <path style="fill:#FFCE00;" d="M21.1,629c0.8-4.1,1.3-8.2,2.4-12.3c3.6-13.9,10.6-26.1,18.7-37.7c12.3-17.4,26.9-32.7,42.7-47 c23-20.9,47.9-39.3,74.2-55.8c0.6-0.4,1.2-0.7,2.2-1.2c-0.5,3.1-0.9,5.8-1.4,8.5c-3,17.9-4.5,36-3.6,54.2 c0.7,15.8,3.3,31.2,9.8,45.7c4.2,9.5,10.5,17.2,19.3,22.6c0,25,0,50,0,75.2c-4.1,0.5-8.2,1.1-12.2,1.5c-12.9,1.2-25.8,2.4-38.7,3.3 c-14.2,0.9-28.4,0.9-42.7-0.1c-12.4-0.9-24.7-2.6-36.6-6.5c-7.4-2.5-14.4-5.7-20.2-11.2c-7.3-6.9-11.1-15.6-13.1-25.3 c-0.3-1.7-0.6-3.3-0.9-5C21.1,635,21.1,632,21.1,629z"></path> <path style="fill:#FFCE00;" d="M495.7,384.3c-1.7-2-3.4-4-5.1-5.9c-11-12.1-25.1-18.4-40.9-20.9c-6.1-1-12.4-1.3-18.7-1.3 c-32.1-0.1-64.2-0.1-96.4-0.1c-1.2,0-2.8-0.5-2.5,2c-16.4-3.6-32.8-4.5-49.7-5.2c2.8-4.1,5.4-7.8,7.9-11.5c-0.1-0.1-0.1-0.1-0.2-0.2 c-1.6,1-3.1,2-5.1,3.3c0.2-1.6,0.4-2.7,0.4-3.8c0.1-2.8,0.2-5.6,0-8.3c-0.1-2-0.2-3.5,1.5-5.2c2.8-2.7,2.2-6.2-0.8-9.5 c-3.4-3.6-6.9-7.2-10.3-10.8c-5.4-5.7-10.6-11.5-16.1-17.1c-1.2-1.3-1.3-2.1-0.2-3.6c3.3-4.7,6-9.7,6.5-15.5c0.1-1,0-2,0-3.5 c0.7,0.8,1.2,1.3,1.6,1.8c8.6,10.3,17.2,20.5,25.7,30.8c1,1.2,2,2.4,3,3.7c6.6,7.9,6.6,16.4,2.4,25.3c-0.5,1.1-1.1,2.1-1.5,3.3 c42.2-52,95.1-88,159.8-105.8c64.7-17.7,128.7-14.8,191.4,9.1c62.8,23.9,112.1,64.7,149.4,121.1c-1.4,0-2.2,0-2.9,0 c-16.7,0-33.5,0.1-50.2,0c-4.1,0-8.1-1-12.2-1.5c-3.8-0.5-7.6-1-11.4-1.2c-6.3-0.4-12.7-1.1-19.1-0.9c-17.5,0.5-34.4,3.3-49.9,12.2 c-10.6,6-19,14.3-25.5,24.6c-0.3,0.4-0.5,0.8-1.1,1.6c-3.1-11.9-6.1-23.4-9.1-35c-0.8,0-1.5,0-2.2,0c-36.2,0-72.5,0-108.7,0 c-2,0-2.6,0.7-3,2.5c-2,8.4-4.3,16.8-6.4,25.2C496.1,383.9,495.9,384,495.7,384.3z"></path> <path style="fill:#FFCE00;" d="M696.5,786.2c5.2-8.7,10.5-17.5,15.9-26.5c-2.5-0.6-4.8-1.3-7.2-1.8c-2-0.4-2.4-1.7-2.1-3.4 c0.2-1,0.3-2,0-3.1c-0.3,1.2-0.8,2.4-1,3.6c-0.2,1.7-1.3,1.8-2.6,1.6c-1.6-0.3-3.1-0.6-4.8-0.4c2,0.5,3.9,1.1,5.9,1.6 c0.2,1.8-1.2,1.8-2.2,1.8c-1.8,0.1-3.6,0.1-5.3,0.1c-3.6,0-7.3,0.2-10.9-0.1c-2.2-0.1-3.3,0.8-4.2,2.6c-0.6,1.2-1.6,2.3-2.5,3.4 c-0.8-1.1-1.9-2.2-2.4-3.5c-0.8-2-2-2.7-4.2-2.6c-5.5,0.2-11.1,0.1-16.7,0.1c-0.7,0-1.4,0-1.8,0c-1.2-6.2-2.1-12.1-3.6-17.9 c-1.3-5.2-3.8-9.9-7.3-14c-6-7.1-13.8-10.5-22.7-12c-3.9-0.7-8-1.2-12-1.2c-8.6,0.1-17.1,1-25.1,4.7c-9.3,4.4-15,11.8-18.1,21.3 c-0.6,1.8-1,3.6-1.8,6.1c-0.5-1-1-1.5-1.1-2.1c-2.1-7.6-5.4-14.4-11.3-19.9c-5-4.6-10.9-7.2-17.3-8.5c-4-0.8-8.1-1-12.1-1.3 c-7-0.6-13.9,0.2-20.6,2c-12.4,3.4-20.6,11.1-24.6,23.2c-0.5,1.5-0.9,3.1-1.4,4.6c-0.1,0.2-0.4,0.4-1.2,1.1c0-10.2,0-19.8,0-29.5 c-26.1,0-51.8,0-77.9,0c-0.6,18.9-0.1,37.8-0.3,56.7c-1.3,0-2.5,0-3.7,0c-0.1-0.4-0.2-0.8-0.2-1.1c0.8-3.7-1.1-5.6-4.2-7.5 c-14.2-9-27.6-19.1-39.9-30.6c-5.9-5.5-11.4-11.3-17-17.1c-0.9-1-1.7-1.2-3-0.9c-19.1,4.2-38.2,8.6-57.4,12.5 c-13.4,2.7-26.9,5-40.5,7.1c-11.5,1.8-23.1,3.3-34.6,4.6c-9.8,1.1-19.6,1.8-29.4,2.3c-11.4,0.5-22.8,0.8-34.1,0.7 c-9.2-0.1-18.4-0.9-27.7-1.8c65-5.2,128.7-17.7,192.5-33.6c-1.2-2-2.1-3.9-3.2-5.6c-4.3-6.3-8.7-12.5-13.3-18.9 c0.8-0.1,1.4-0.2,2-0.2c13.5,0,26.9-0.1,40.4,0.1c3.9,0.1,7.8,1.2,11.7,1.4c5.4,0.2,10.8,0.3,16.2-0.1c4.9-0.4,9.8-1.2,14.5-2.4 c9.4-2.5,17.6-7.2,24.1-14c4.9,3.7,9.6,7.4,14.3,11c-13.7,3.8-27.8,7.7-42,11.7c0,0.2,0.1,0.4,0.1,0.6c2.2-0.4,4.5-0.7,6.7-1.1 c6.9-1.2,13.8-2.5,20.8-3.7c5.3-0.9,10.6-1.8,15.9-2.5c3.7-0.5,7.5-1.2,11.3-1.2c3.6,0,7.1,1.1,10.7,1.4c14.1,1.1,28.1,0.9,41.4-5.1 c1.1-0.5,2.2-1,3.5-1.7c0,1.9,0,3.5,0,5.4c111.1,0,221.9,0,333.3,0c-13.2,21.6-28.5,40.9-46.2,58.4c-17.7,17.5-37.2,32.7-58.6,45.5 C696.8,786.5,696.6,786.4,696.5,786.2z"></path> <path style="fill:#FFCE00;" d="M637.9,533.1c-1,0-1.7,0-2.4,0c-15.5,0-31,0-46.6,0c-1.7,0-2.3-0.5-2.7-2.1 c-1.5-6.7-3.1-13.4-4.6-20.1c-0.3-1.4-0.9-1.7-2.2-1.7c-12,0-23.9,0-35.9,0c-1.3,0-1.8,0.5-2.1,1.8c-1.5,6.9-3,13.7-4.6,20.5 c-0.1,0.6-1,1.5-1.5,1.5c-16.4,0.1-32.8,0-49.1,0c-0.1,0-0.3-0.1-0.6-0.3c0.9-3.6,1.9-7.3,2.8-11c5.2-20.3,10.5-40.7,15.7-61 c6.5-25.3,13.1-50.5,19.6-75.8c0.4-1.6,1-2.2,2.8-2.2c23.4,0.1,46.9,0.1,70.3,0c1.6,0,2.3,0.3,2.7,2c11.1,43.4,22.3,86.7,33.5,130 C634.6,520.8,636.2,526.7,637.9,533.1z M572,470.6c0-0.5,0.1-0.9,0-1.2c-2.9-12.7-5.8-25.3-8.6-38c-0.4-1.8-0.9-2.5-2.8-1.9 c-3.1,13.6-6.3,27.3-9.5,41.2C558.1,470.6,564.9,470.6,572,470.6z"></path> <path style="fill:#FFCE00;" d="M221.3,490.8c6.9,1.2,13.6,2.5,20.3,3.6c10,1.6,20.1,1.9,30.2,1.4c5.2-0.2,10.3-0.7,15.5-1 c1.4-0.1,2-0.5,2-2c-0.1-3.3,0-6.5,0-9.9c-4.8-0.4-9.3-0.8-13.8-1.2c-11.5-0.9-22.9-2-33.8-6c-14.2-5.2-22.3-15.2-24.2-30.3 c-1.5-12.6-1.2-25.1,2.2-37.4c4.2-15,14.5-23.4,29.3-26.7c11.9-2.6,24-2.5,36.1-2.2c11.5,0.2,22.9,1.3,34.3,3.1 c4.2,0.7,8.3,1.7,12.5,2.5c1.3,0.2,1.4,0.8,1.2,1.9c-1.9,11.7-3.7,23.4-5.6,35.1c-0.1,0.6-0.3,1.2-0.6,2.1 c-19.3-3.2-38.6-5-58.2-2.4c0,3.8,0,7.5,0,11.4c4.1,0.4,8.1,0.8,12.1,1.1c12.2,1,24.2,2.7,35.6,7.5c14,5.9,22.3,16.1,24.1,31.4 c1.5,12.4,0.6,24.5-3.7,36.3c-4.8,13.3-14,21.2-27.8,24.3c-11,2.5-22.1,3-33.2,3.2c-20,0.3-39.7-1.5-59.3-5.7 c-1.8-0.4-2.1-1.1-1.8-2.7c2.1-12.1,4.2-24.1,6.3-36.2C221,491.6,221.2,491.2,221.3,490.8z"></path> <path style="fill:#FFCE00;" d="M407.2,496.9c0,12.1,0,24,0,36c-16.2,0-32.1,0-48.3,0c0-49.9,0-99.9,0-150c0.7,0,1.5-0.1,2.2-0.1 c26.1,0,52.1-0.3,78.2,0.1c12.7,0.2,24.5,3.8,33.7,13.4c6.2,6.5,9.7,14.4,11.4,23.1c3.1,15.3,2.8,30.7-1.5,45.7 c-4,14-12.7,24-26.7,29.1c-5.7,2.1-11.6,2.6-17.6,2.7c-9.5,0.1-19.1,0-28.6,0C409.3,496.9,408.4,496.9,407.2,496.9z M407.3,458 c7.1-0.3,14,0.7,20.9-0.9c3.2-0.8,5.7-2.6,5.8-6c0.3-7.5,0.2-14.9,0.1-22.4c-0.1-3.1-1.9-5.2-4.9-5.9c-2-0.5-4.2-1-6.3-1.1 c-5.2-0.2-10.3-0.1-15.6-0.1C407.3,433.8,407.3,445.7,407.3,458z"></path> <path style="fill:#FFCE00;" d="M873.6,494.3c0,13,0,25.7,0,38.6c-35.6,0-71.1,0-106.9,0c0-49.9,0-99.9,0-150.1 c35.2,0,70.4,0,105.9,0c-0.4,2.7-0.8,5.2-1.2,7.8c-1.5,9.6-3.2,19.2-4.6,28.8c-0.3,1.8-0.9,2.2-2.5,2.2c-15.5,0-31,0-46.6,0 c-0.8,0-1.7,0-2.7,0c0,6.6,0,13,0,19.7c15.8,0,31.6,0,47.7,0c0,11.8,0,23.3,0,35.3c-0.8,0-1.6,0-2.4,0c-14.4,0-28.8,0-43.2,0 c-1.9,0-2.4,0.5-2.4,2.4c0.1,5,0,10.1,0,15.4C834.5,494.3,854,494.3,873.6,494.3z"></path> <path style="fill:#FFCE00;" d="M746.6,489.9c0.7,8.7,1.4,17.1,2.2,25.5c0.3,3.8,0.7,7.6,1.2,11.4c0.4,3.6,0.4,3.7-3.1,4.9 c-10.1,3.5-20.6,4.7-31.1,4.9c-11.9,0.2-23.7-0.3-35.3-3.4c-20-5.3-32.3-18.3-37.2-38.3c-3.5-14.1-4-28.5-3.6-42.9 c0.3-9.7,1-19.4,3.2-28.9c2.8-12.4,8.3-23.2,18.4-31.2c7.5-5.9,16.2-9.1,25.5-10.8c10.1-1.9,20.3-2.3,30.6-1.7 c10.2,0.6,20.4,1.9,30.3,4.9c2.2,0.7,2.8,1.5,2.3,3.9c-2.3,10.9-4.5,21.8-6.5,32.7c-0.3,1.6-1,1.6-2.2,1.4 c-11.5-2.5-23.1-3.7-34.9-2.8c-2.9,0.2-5.8,0.8-8.5,1.6c-4,1.2-6.1,4.1-6.1,8.2c-0.1,10,0.1,19.9,0,29.9c0,10.7-0.1,21.4-0.2,32 c0,1.9,0.5,2.6,2.5,3c9.5,1.9,19.1,1.7,28.6,0.8c7.8-0.7,15.4-2.3,22.8-4.8C745.6,490,746,490,746.6,489.9z"></path> <path style="fill:#FFCE00;" d="M885.5,467.6c0-2.4,0.1-4.5,0-6.6c-0.3-10.1,0.4-20.1,2.5-30c0.8-3.6,1.1-7.2,1.8-10.8 c0.2-0.8,0.6-1.7,1.1-2.4c8.8-10.7,16.3-22.3,20.7-35.6c8.7-26.4,3.2-49.8-14.7-71c-16.4-19.4-37.7-29.7-62.1-34.2 c-12.1-2.2-24.3-3.3-36.5-4.8c-7-0.9-13.9-1.6-20.9-2.4c0-0.2,0-0.4,0-0.6c3.4-0.4,6.7-1,10.1-1.3c14.8-1.4,29.7-2.1,44.6-1.7 c23.5,0.7,46.8,3.1,69.4,9.7c13.8,4,27,9.5,38.8,18.1c15,10.9,24.9,25.1,28.4,43.5c2.3,12.1,0.7,24.1-3,35.7 c-4.8,15.1-12.7,28.6-22,41.3c-13.7,18.7-30,34.9-47.1,50.5C893,468.4,889.5,467.2,885.5,467.6z"></path> <path style="fill:#FFCE00;" d="M675.7,772.9c1.5-2.9,2.9-5.4,4-8c0.8-2,2-2.5,4.1-2.5c4.8,0.1,9.5,0,14.3,0c1.4,0,2.5-0.1,2.6-1.9 c0-0.5,0.8-0.9,1.3-1.4c0.2,0.1,0.3,0.3,0.5,0.4c-0.2,1-0.4,1.9-0.6,3.2c1.6,0,3.1,0,4.9,0c-2.4,4.1-4.6,7.7-6.8,11.4 c-2.8,4.6-5.5,9.2-8.3,13.8c-0.7,1.1-0.7,1.9,0,3c4.9,8,9.6,16,14.4,24.1c0.4,0.7,0.8,1.3,1.3,2.2c-0.7,0.1-1.2,0.2-1.8,0.2 c-7.4,0-14.8,0-22.2,0c-1.4,0-2.2-0.5-2.8-1.7c-1.5-2.9-3.2-5.8-5-9c-1.8,3.3-3.4,6.1-5,9c-0.6,1.2-1.4,1.7-2.8,1.7 c-8-0.1-16.1,0-24.5,0c1-1.7,1.8-3,2.6-4.4c4.6-7.4,9.2-14.8,13.7-22.3c0.4-0.6,0.6-1.8,0.2-2.4c-3.9-6.5-8-13-12.2-19.9 c-0.2,3.3-0.2,6.3-0.5,9.2c-1,8.4-2.2,16.7-6.6,24.2c-4.2,7.2-10.5,11.9-18.5,14c-11.8,3.2-23.8,3.2-35.7-0.1 c-12.2-3.5-19.1-12-22.3-23.9c-3.1-11.4-3.1-23-2.4-34.7c0.4-6.4,1.8-12.5,4.1-18.5c3.5-9.2,9.9-15.5,19.4-18.4 c12.2-3.8,24.5-3.8,36.7-0.6c12.7,3.4,20,12.2,22.9,24.7c1.4,5.8,2.1,11.8,3.2,18c0.6,0,1.6,0,2.6,0c5.9,0,11.8,0.1,17.7,0 c1.5,0,2.3,0.5,2.9,1.8C672.6,767.1,674.1,769.8,675.7,772.9z M617.6,768c-0.6-4.9-1-9.7-1.8-14.5c-0.6-3.4-1.9-7-5.9-7.8 c-3-0.6-6.1-0.6-9.2-0.4c-3.9,0.2-6.2,2.7-7.1,6.5c-0.6,2.7-1.4,5.4-1.5,8.1c-0.1,6.5-0.1,13,0.5,19.5c0.2,3,1.2,6.3,2.9,8.6 c2.8,3.8,7.3,3.6,11.6,3.2c5.5-0.5,8-3.9,8.8-8.9C616.5,777.6,617,772.8,617.6,768z"></path> <path style="fill:#FFCE00;" d="M558.2,767.4c0.2,9.4-0.5,18.2-3.1,26.8c-3.4,11-10.4,18.7-21.7,21.8c-12.2,3.4-24.6,3.4-36.8-0.3 c-10.9-3.3-17.6-11-20.8-21.8c-3-9.8-3.3-19.9-3.1-30c0.2-8.2,1-16.3,3.8-24.1c3.7-10.2,10.6-16.9,21.1-19.9 c11.4-3.2,22.9-3.2,34.3-0.4c12.7,3.1,20.3,11.5,23.7,23.9C557.7,751.4,558.4,759.6,558.2,767.4z M502,767.9 c0.8,5.5,1.4,10.9,2.3,16.2c0.6,3.6,2.9,6.1,6.6,6.8c2.1,0.4,4.2,0.7,6.3,0.4c4.1-0.5,7.4-1.1,8.9-6.9c0.8-3,1.2-6,1.6-9.1 c0.9-7.2,0.6-14.3-0.9-21.3c-0.9-4.6-2.8-8.3-8.1-9c-1.7-0.2-3.4-0.1-5.1-0.2c-5.1,0-8.4,2.2-9.4,7.1 C503.3,757.2,502.8,762.5,502,767.9z"></path> <path style="fill:#FFCE00;" d="M395.7,779c0-20,0-39.8,0-59.7c23.8,0,47.5,0,71.4,0c0,8.8,0,17.5,0,26.3c-14.6,0-29.1,0-43.8,0 c0,2.6,0,5.1,0,7.7c4.5,0,9-0.3,13.4,0.1c5,0.4,10,0.9,14.9,2.1c9.3,2.4,15.2,8.6,17.6,18c1.9,7.3,1.9,14.7,0.1,22 c-2.8,11.1-10.4,17.5-21,20.1c-5.8,1.5-11.9,2.3-17.9,2.5c-12.3,0.5-24.6-0.7-36.6-3.6c-1.3-0.3-1.8-0.8-1.8-2.1 c0.1-6.5,0.1-13.1,0.2-19.6c0-2.5,2.3-3.9,4.7-3.5c5.7,0.9,11.4,1.9,17.1,2.4c5.5,0.4,11.1,0.2,16.6,0c2.2-0.1,4.5-0.6,6.7-1 c2.3-0.5,3.2-2.1,3.4-4.3c0.5-6.1-1.2-7.4-6.2-7.4c-12.1-0.1-24.2-0.1-36.3-0.1C397.5,779,396.8,779,395.7,779z"></path> <path style="fill:#FFCE00;" d="M375.3,620c-0.2,6.4-0.5,12.8-2.6,18.9c-3.4,9.8-10.3,15.8-20.4,17.9c-9.6,1.9-19.2,2-28.7-0.4 c-10.8-2.7-17.2-9.9-19.5-20.6c-2.7-12.6-2.7-25.4,0.5-38c2.8-11,10.1-17.5,21.1-19.6c9.3-1.8,18.6-1.8,27.9,0.4 c10.7,2.5,17,9.6,19.7,20.1C375,605.6,375.3,612.8,375.3,620z M348.5,598.4c-4.4,0-8.6-0.3-12.9,0.1c-5.7,0.5-6.5,1.8-6.5,7.5 c0,9.5,0,18.9,0,28.4c0,0.7,0,1.4,0,2.5c5.3-0.2,10.4-0.4,15.5-0.8c2.1-0.2,3.6-1.6,3.7-4c0.1-3,0.2-6.1,0.2-9.2 C348.5,614.9,348.5,606.8,348.5,598.4z"></path> <path style="fill:#FFCE00;" d="M212,579c0.7,0,1.3-0.1,1.9-0.1c13.4,0,26.8-0.3,40.2,0.1c11.5,0.3,20.2,6,22.5,19.1 c1.4,7.9,1.2,15.7-2,23.2c-1.7,4.1-4.7,7-8.6,9.3c2.2,4.3,4.3,8.5,6.5,12.7c2.2,4.2,4.4,8.4,6.7,12.9c-1.7,0-3.1,0-4.5,0 c-7,0-14.1,0-21.1,0c-1.3,0-2-0.3-2.5-1.6c-2.4-5.8-5-11.6-7.5-17.3c-1.8-4.2-1.8-4.1-6.7-3.6c0,7.4,0,14.8,0,22.4 c-8.4,0-16.5,0-24.9,0c-0.1-0.6-0.2-1.2-0.2-1.8c-0.1-7.1-0.1-14.2-0.3-21.4c-0.1-4.7-1.1-9.5-0.7-14.1c1.1-12.8,0.9-25.7,0.9-38.5 C211.8,579.8,211.9,579.4,212,579z M236.9,614.2c3.5-0.2,6.8-0.3,10-0.7c2.4-0.3,3.4-1.5,3.5-4c0.1-2.2,0-4.4,0-6.6 c0-1.9-1-3.2-2.8-3.5c-3.5-0.5-7.1-0.6-10.8-1C236.9,604,236.9,608.9,236.9,614.2z"></path> <path style="fill:#FFCE00;" d="M400,579c8.4,0,16.6,0,24.9,0c0,19.2,0,38.3,0,57.9c4.6-0.3,9.1-0.3,13.5-0.8c2.2-0.3,3-2.2,3-4.3 c0.1-4.2,0.1-8.4,0.1-12.6c0-12.7-0.1-25.3-0.2-38c0-0.6,0-1.3,0-2.1c8.4,0,16.7,0,25.2,0c0,0.8,0,1.6,0,2.3c0,13.5,0,26.9,0,40.4 c0,6.8-0.3,13.6-2.2,20.2c-2.2,7.9-7.5,12.6-15.3,14.4c-10.3,2.3-20.7,2.3-31.1,0.1c-9.7-2.1-15.1-8.3-16.7-18 c-1.1-6.9-1.7-13.8-1.6-20.7c0.1-12.3,0.2-24.7,0.2-37C399.9,580.2,400,579.7,400,579z"></path> <path style="fill:#FFCE00;" d="M594.6,608.8c8.2,0,16.1,0,24.3,0c0,6.1,0,12,0,18.2c-8,0-16,0-24.3,0c0,3.1,0,5.9,0,8.9 c9.8,0,19.7,0,29.7,0c0,6.7,0,13.2,0,19.9c-18.1,0-36.3,0-54.7,0c0-25.6,0-51.2,0-77c18.1,0,36.1,0,54.5,0 c-1.1,6.6-2.1,13.1-3.2,19.9c-8.7,0-17.4,0-26.3,0C594.6,602.2,594.6,605.4,594.6,608.8z"></path> <path style="fill:#FFCE00;" d="M864.4,598.9c-8.8,0-17.5,0-26.3,0c0,3.4,0,6.5,0,9.9c8.1,0,16.1,0,24.3,0c0,6.2,0,12.1,0,18.3 c-8,0-16.1,0-24.3,0c0,3.1,0,5.9,0,9c9.9,0,19.8,0,29.8,0c0,6.7,0,13.2,0,19.9c-18.2,0-36.4,0-54.8,0c0-25.6,0-51.2,0-77 c18,0,36.1,0,54.5,0C866.6,585.6,865.5,592.1,864.4,598.9z"></path> <path style="fill:#FFCE00;" d="M347.3,247.2c0,10.6-4.2,19.5-11.1,27.2c-4.6,5.2-9.8,9.7-16.2,12.7c-16.2,7.5-31.4-1.7-35.3-18 c-2.2-9.4,0.2-18.1,5.1-26.1c5.6-9.2,13.4-16.2,23.2-20.8c13.8-6.5,26.4-1.7,31.9,12.6c1.5,3.9,2,8.2,3,12.3 C347.7,247.1,347.5,247.2,347.3,247.2z M328.3,256.6c-0.8-5.7-3.2-11.1-8.2-15.1c-2.8-2.2-6.1-2.2-9.3-0.5 c-5.6,2.9-8.6,9.7-6.8,15.8c1.3,4.4,3.8,8.1,7.4,11c3.5,2.8,7.7,2.8,11.3,0.2C326.4,265.3,328.1,261.6,328.3,256.6z"></path> <path style="fill:#FFCE00;" d="M439.5,192.2c-0.5,10.6-6.8,20.7-17.9,27.9c-7.4,4.8-15.4,8.3-24.5,8.4c-13,0.2-23.2-8.7-24.8-21.7 c-1.5-11.8,3.1-21.2,11.7-28.8c8.8-7.7,19.2-12,30.9-12.9C429.7,164.1,439.5,173.8,439.5,192.2z M417.2,198c0.2,0,0.3-0.1,0.5-0.1 c-0.9-3.4-1.5-6.9-2.7-10.2c-1.5-4.1-5.5-6.2-9.8-5.4c-3.8,0.7-6.8,2.7-9,6c-3.6,5.6-2.2,16.7,2.7,21.2c2.2,2,4.8,2.9,7.9,2.3 C413.2,210.5,417.2,205.2,417.2,198z"></path> <path style="fill:#FFCE00;" d="M690.4,656c-8.4,0-16.5,0-25,0c0-19,0-37.9,0-57.1c-5.9,0-11.7,0-17.7,0c0-6.7,0-13.3,0-19.9 c20.1,0,40.3,0,60.5,0c0,6.6,0,13,0,19.8c-6,0-11.8,0-17.9,0C690.4,617.9,690.4,636.8,690.4,656z"></path> <path style="fill:#FFCE00;" d="M745.3,598.9c-5.9,0-11.6,0-17.6,0c0-6.7,0-13.2,0-19.9c20.1,0,40.2,0,60.4,0c0,6.5,0,13,0,19.7 c-5.9,0-11.7,0-17.8,0c0,19.2,0,38.1,0,57.2c-8.4,0-16.6,0-25.1,0C745.3,636.9,745.3,618,745.3,598.9z"></path> <path style="fill:#FFCE00;" d="M429.3,158.2c6-1.6,11.6-3.4,17.4-4.6c11.9-2.5,23.8-4.8,35.8-6.7c3.7-0.6,7.7-0.2,11.4,0.7 c8.6,2.2,11.1,10.3,5.9,17.5c-2.1,2.9-4.8,4.8-7.9,6.3c-0.6,0.3-1.2,0.6-2.4,1.1c1.6,0.3,2.7,0.4,3.7,0.6c7.7,1.7,11.1,7.4,8.7,15 c-2.3,7.3-7.5,11.9-14.7,13.9c-8.9,2.4-18,4.2-26.9,6.5c-6.8,1.7-13.5,3.8-20.3,5.7c-0.4,0.1-0.8,0.2-1.7,0.5c1.3-2,2.5-3.5,3.3-5.2 c1.7-3.4,3.2-6.8,4.6-10.2c0.5-1.2,1-2,2.4-2.3c10.5-2.2,21.1-4.5,31.6-6.8c1.3-0.3,2.7-0.9,3.8-1.7c1.3-0.9,1.9-2.4,1.2-4 c-0.8-1.7-2.3-2-4-1.7c-4.8,0.8-9.7,1.6-14.5,2.6c-6.1,1.3-12.2,2.7-18.2,4.1c-0.5-4.6-1-9.2-1.5-14.1c4.2-1,8.6-2.1,13.1-3 c6.1-1.2,12.3-2.3,18.4-3.5c0.3-0.1,0.7-0.2,1-0.3c2.6-0.8,4.1-2.8,3.7-4.8c-0.4-1.7-2.3-2.7-5.2-2.1c-9.5,1.9-19.1,3.6-28.6,5.9 c-3.8,0.9-6.8,1.5-9.3-2.5c-1.1-1.7-3.2-2.8-4.9-3.9C433.7,160.1,431.7,159.3,429.3,158.2z"></path> <path style="fill:#FFCE00;" d="M495.1,579c8.2,0,16.4,0,24.8,0c0,9.5,0,19,0,28.5c0,9.5,0,18.9,0,28.6c8.2,0,16.3,0,24.4,0 c0,6.7,0,13.1,0,19.7c-16.3,0-32.7,0-49.3,0C495.1,630.3,495.1,604.7,495.1,579z"></path> <path style="fill:#FFCE00;" d="M506.3,201.3c0.4-4,0.7-7.8,1.2-11.5c1.3-10.6,2.7-21.1,4.1-31.7c0.5-4.2,1.1-8.4,1.8-12.6 c0.1-0.5,1.1-1.3,1.6-1.3c10.7,0,21.5-0.1,32.2,0.3c8,0.3,16,1.4,24,2.2c0.4,0,0.8,0.2,1.4,0.3c-1.4,4.3-2.8,8.4-4.3,12.5 c-0.2,0.4-1.2,0.8-1.9,0.8c-6.8-0.6-13.6-1.3-20.4-1.8c-4.8-0.4-9.7-0.5-14.5-0.6c-0.5,0-1.4,0.7-1.6,1.3c-0.6,1.8-0.8,3.7-1.3,5.7 c5.2,0.2,10.3,0.4,15.4,0.5c3.3,0.1,3.3,0.1,2.5,3.3c-0.7,2.9-1.5,5.8-2.1,8.7c-0.3,1.6-0.9,2.2-2.7,2.2c-5.1-0.1-10.2,0-15.7,0 c-0.4,2-0.8,4.3-1.3,7.2c6.3,0,12.3-0.1,18.3,0c4.5,0.1,9.1,0.6,13.6,0.9c1.9,0.1,2.7,0.7,2,2.8c-1,2.9-1.9,6-2.5,9 c-0.4,1.9-1.4,2.2-3.2,2.1c-10.9-0.5-21.9-0.9-32.8-1.1C515.7,200.6,511.2,201.1,506.3,201.3z"></path> <path style="fill:#FFCE00;" d="M580.4,205.4c5.5-13.5,10.8-26.6,16.2-40.1c-6.1-1.2-12.1-2.3-18.4-3.5c0.1-0.5,0.1-1,0.2-1.4 c1.3-3.4,2.6-6.9,3.9-10.3c0.4-1.1,0.9-1.6,2.2-1.4c19,3.2,37.6,8.1,55.8,14.4c0.3,0.1,0.6,0.3,1.2,0.6c-1.5,2.5-3,5-4.5,7.5 c-2.9,4.7-2.9,4.7-8.2,3c-4.4-1.4-8.8-2.7-13.3-4.1c-2.9,6-5.9,11.8-8.7,17.7c-3.1,6.5-6.1,13-9.1,19.5c-0.7,1.5-1.4,1.9-3.1,1.4 C590.2,207.5,585.5,206.6,580.4,205.4z"></path> <path style="fill:#FFCE00;" d="M356.7,190.8c2,5.5,3.8,11.1,5.9,16.6c3.1,8.4,6.3,16.9,9.6,25.3c5.4,13.6-0.4,22.9-9.3,29.4 c-3.4,2.5-6.8,4.9-11.1,5.8c-0.5,0.1-1,0.2-1.5,0.2c-0.2,0-0.4-0.1-0.6-0.1c1.3-3.7,2.6-7.3,3.7-11c0.5-1.6,0.8-2.9,2.8-3.7 c3.3-1.2,4.3-4.6,2.7-8.5c-2.1-5.1-4.5-10-6.6-15c-3.1-7-6.1-14.1-9.1-21.1c-0.5-1.2-0.5-2,0.7-2.8c1.8-1.2,3.4-2.6,5-4 C352.4,198.9,355,195.3,356.7,190.8z"></path> <path style="fill:#FFCE00;" d="M853.3,307.5c6.7,0.7,12.4,3.5,17.7,7.3c7.5,5.3,12.8,12.2,14.9,21.3c0.3,1.4,1.3,2.6,1.6,4 c1.1,5.1-0.6,10-1.4,15c-0.1,0.5-0.9,1.2-1.4,1.2c-5.4,0.1-10.8,0.1-16.5,0.1C874.8,336.5,871.4,319.7,853.3,307.5z"></path> <path style="fill:#FFCE00;" d="M262,260.7c0.5,8-3.6,14.2-8,20.7c-1.7-1.9-3.2-3.6-4.9-5.5c4.1-5.2,8.2-10.3,12.3-15.5 C261.6,260.5,261.8,260.6,262,260.7z"></path> <path style="fill:#FFCE00;" d="M339.9,200.1c-1-2.3-1.8-4.4-2.8-6.7c5.5-3.4,11-6.8,16.5-10.1c0.1,0.2,0.3,0.3,0.4,0.5 C351.9,191.3,346.1,195.7,339.9,200.1z"></path> </svg> 