<?xml version="1.0" encoding="UTF-8"?> <svg xmlns="http://www.w3.org/2000/svg" xmlns:xlink="http://www.w3.org/1999/xlink" version="1.1" id="Layer_1" x="0px" y="0px" viewBox="0 0 1000 1000" style="enable-background:new 0 0 1000 1000;" xml:space="preserve"> <path style="fill:#FFCE00;" d="M985.1,488.5c-1.5,6.6-3.6,13.2-4.1,19.8c-0.4,5.6-3,6.2-7.5,6.1c-10.9-0.2-21.8-0.1-33.4-0.1 c-5.9,39-11.8,77.6-17.7,116.5c-12.3,0-24.2,0-37.2,0c5.8-38.8,11.6-77.1,17.5-116.4c-13.2,0-26,0-39.9,0c1.7-11.8,3.1-22.7,5-33.5 c0.2-1.1,3.4-2.2,5.2-2.3c14.6-0.2,29.3,0,44-0.1c22.7-0.1,45.4-0.4,68.2-0.6C985.1,481.5,985.1,485,985.1,488.5z"></path> <path style="fill:#FFCE00;" d="M312.8,542.3c0.7,28.7-10.1,52.3-31.7,70.9c-12.1,10.5-27,15.6-42.7,17.3 c-16.7,1.8-33.4,1.5-49.3-5.6c-21.6-9.7-32.6-27-34.8-49.8c-2.5-26.4,4.7-50.5,22.6-70.2c17.7-19.5,40.8-27.5,67.2-26.8 c14.9,0.4,29.7,2,42.4,10.3C305.7,501,313.7,519.6,312.8,542.3z M261.8,545.4c0-2.2,0.1-4.4,0-6.5c-0.5-9.6-8-20.5-15.7-22.9 c-9.3-3-22,1-28.1,8.7c-10.8,13.6-14,29.5-12.9,46.3c0.8,12.3,7.9,21.2,17.7,23.7c9.9,2.5,20.6-2.2,27.7-11.3 C259.4,572,260.6,558.8,261.8,545.4z"></path> <path style="fill:#FFCE00;" d="M464.1,631.8c-10.2-2-20.9-2.7-30.4-6.3c-24.8-9.3-36.9-28.4-38.6-54.5c-2.3-37.3,19.3-73,52.8-85.9 c21.4-8.3,43.5-8.7,65.3-1.7c24.7,7.9,40,29.6,39.9,57.6c-0.2,28.7-10,53.7-33.2,72.1C503.7,625.9,484.8,630.8,464.1,631.8z M504.8,544.9c-0.6-0.2-1.2-0.3-1.8-0.5c0-14.9-5.6-25.3-15.8-28.9c-10.5-3.7-23.1-0.4-30.8,10.3c-11.7,16.4-15.2,35-9.4,54.5 c3,10.3,11.3,15.3,21.9,15.3c12.3,0.1,21.3-6.4,25.9-16.8C499.5,568.2,501.6,556.3,504.8,544.9z"></path> <path style="fill:#FFCE00;" d="M556.3,478.7c0.8-0.1,2.2-0.3,3.7-0.3c34.8,0.1,69.6,0.1,104.3,0.3c19.2,0.2,31.6,9.2,34.8,24.4 c3.4,16.4-7.1,35.5-23,42.1c-2.8,1.2-5.5,2.3-9.9,4.2c4.1,1.6,6.7,2.7,9.4,3.6c15.4,5.5,21.9,16.5,19.4,32.6 c-4,26.1-21.3,42.2-49.2,43.2c-35.6,1.3-71.2,1.1-106.8,1.5c-0.6,0-1.3-0.3-3-0.7c1.6-1.7,2.8-2.9,3.9-4.3 c6.4-7.6,13.5-14.9,19-23.1c3.6-5.5,7.3-7.2,13.6-7.1c23.2,0.4,46.4,0.1,69.6,0.2c5.6,0,10.9-1.2,13.6-6.1c1.7-3,2.7-7.8,1.3-10.6 c-1.3-2.8-5.9-5.5-9.1-5.6c-22.5-0.5-45.1-0.3-67.6-0.3c-2.3,0-4.7,0-7.1,0c1.6-12.3,3.1-23.7,4.7-35.9c4.3,0,8.8,0,13.3,0 c17.3,0,34.6,0.3,51.8-0.2c4.5-0.1,9.8-1.6,13-4.4c2.6-2.3,4.1-7.8,3.5-11.4c-0.8-4.9-5.7-6.7-10.7-6.7c-12,0-24.1,0-36.1,0 c-11.2,0-22.3,0.1-33.5-0.1c-2,0-5.1-0.9-5.9-2.4C567.6,501,562.1,490,556.3,478.7z"></path> <path style="fill:#FFCE00;" d="M759.2,514.2c-1.2,7.6-2.3,14.6-3.5,22.5c13.6,0,26.3,0,40.3,0c-1.9,12.6-3.6,24.3-5.4,36.6 c-13.7,0-26.9,0-40.4,0c-1.1,7.3-2.1,13.9-3.3,21.5c26.5,0,52.5,0,79.8,0c-1.7,12.6-3.3,24.1-5,36c-39.3,0-78,0-117.6,0 c7.7-50.7,15.3-101.1,23.1-152c38.8,0,77.6,0,117.4,0c-1.3,8.8-2.3,17.3-3.8,25.7c-1.7,9.7-1.9,9.7-11.9,9.7c-20.8,0-41.6,0-62.3,0 C764.3,514.2,761.9,514.2,759.2,514.2z"></path> <path style="fill:#FFCE00;" d="M31.8,643.7c10.1-7.7,19.1-14.7,28.3-21.6c1-0.8,2.7-1.4,4-1.1c12.4,2.2,17.3-0.6,20.1-12.9 c2.3-10.2,3.6-20.6,5.2-30.9c4-25.8,7.8-51.6,12-77.4c0.2-1.5,2.9-3.1,4.7-3.7c8.3-2.4,17-3.7,25-6.9c5-2,8.9-6.6,14.1-10.7 c-1.2,8.6-2.2,16.8-3.4,25c-4.6,30.5-9.2,61.1-14.1,91.6c-1.3,8.1-3.2,16.2-5.8,24c-6.4,18.8-26,32.8-46.8,33.1 c-10.2,0.1-20.4-1.1-30.5-2.7C40.1,648.8,36,645.7,31.8,643.7z"></path> <path style="fill:#FFCE00;" d="M275.5,643.2c9-7.1,16.9-13.4,24.9-19.4c1.3-1,3.7-1.4,5.3-1c9.7,1.9,16.6-1.3,18.9-10.6 c2.9-11.2,4.8-22.7,6.7-34.2c3.6-21.9,6.9-43.9,10.3-65.8c0.7-4.5,1.2-9,1.6-12.1c13.4-4.5,26-8.8,39.5-13.3 c-1,8.7-1.9,17.8-3.3,26.8c-2.9,19.2-5.9,38.4-9,57.5c-2.5,14.9-4.5,29.9-8.2,44.5c-4.7,18.4-18,29.3-36,33.4 c-14.9,3.4-30.2,3.6-44.9-2.1C279.3,646.1,277.5,644.5,275.5,643.2z"></path> <path style="fill:#FFCE00;" d="M362.7,346.4c-11.6,0.6-22.5,1.4-33.3,1.8c-18.3,0.6-22.6,14.4-19.9,29.2c3,16,14,30.1,35.4,32.2 c0-9.8,0-19.6,0-29.6c-3.5-0.2-6.3-0.4-9.5-0.5c0-5.5,0-10.9,0-16.7c9.8,0,19.5,0,29.7,0c0,21.2,0,42.3,0,63.2 c-31.8,3.2-52.9-0.8-68.9-26.4c-11.2-17.9-13.3-37.6-1.6-56.6c5.3-8.6,14-12.8,24.1-13.1c11.4-0.3,22.7,0.1,34.1-0.2 c4.4-0.1,6.9,0.8,7.4,5.7C360.5,339.1,361.8,342.6,362.7,346.4z"></path> <path style="fill:#FFCE00;" d="M640.1,382.6c0.7-4.7,0.9-9.5,2.2-14c2.4-8,8.3-13.2,16.5-13.9c9.5-0.8,19.2-0.9,28.7,0 c10.2,1,17,9,18.2,20.9c1.5,15.4-2,29.8-10.5,42.9c-10.3,16-33.6,15.3-43.8,0.5C644.5,409,640.6,397.1,640.1,382.6z M685.5,388.3 c-0.3-0.2-0.6-0.3-1-0.5c-0.2-2.2-0.2-4.3-0.5-6.5c-0.7-6.5-4.3-10-10.4-10.4c-5.9-0.3-10,2.9-11.4,9.3c-2.2,9.9,0.3,19,5.5,27.4 c3.4,5.4,7.4,5.6,10.4-0.1C681.3,401.4,683.1,394.7,685.5,388.3z"></path> <path style="fill:#FFCE00;" d="M435.8,427.1c-18.1,0.3-36.1,2.7-49.7-12.7c-11.2-12.7-13.9-27.5-10-43.3c2.4-9.8,10.2-15.6,20-16.3 c13-0.9,26.1-0.2,39.7-0.2C435.8,378.6,435.8,402.6,435.8,427.1z M415.5,409.5c0-12.6,0-24.9,0-37.6c-2.9,0-5.3,0-7.7,0 c-5.2-0.1-9.7,1.4-11.6,6.6C391.3,391.9,402,410.6,415.5,409.5z"></path> <path style="fill:#FFCE00;" d="M541.9,412.2c0.2,0.6,0.4,0.9,0.3,1c-4.7,17-1.3,16.3-19.9,14.7c-29.5-2.5-44.1-28.7-36.4-57.2 c2.7-9.9,10.4-15.4,20.7-16.2c6.9-0.5,14-0.6,20.9-0.1c18.6,1.5,23.4,13.5,17.7,30.1c-2.1,6.2-8.8,11-13.8,16 c-2.9,2.8-6.6,4.7-9.9,8.7C528.2,410.2,535,411.2,541.9,412.2z M507.1,395.5c5.1-3.7,10.5-6.7,14.5-11c2.2-2.3,2.1-6.8,3-10.3 c-3.6-0.9-7.4-3-10.8-2.5C504.5,373.3,501.5,383.5,507.1,395.5z"></path> <path style="fill:#FFCE00;" d="M710.3,355.4c5,0.3,5.6-3.1,5.6-7.5c0.1-10.5,6.6-16.6,17.1-16.6c0.9,0,1.7,0,2.6,0 c13.3,0,15.4,2.2,15.5,16.1c-4.7,3.2-13.7-3.2-15.8,7.1c3.3,0.2,6,0.4,9.1,0.7c0,6,0,11.7,0,17.8c-2.9,0.1-5.4,0.3-8.8,0.4 c0,18,0,36,0,54.4c-7.3,0-13.7,0-21,0c0-7.2,0-14.5,0-21.8c0-8.5,0.1-17-0.1-25.5c-0.1-3.2,1.4-7-3.3-8.9c-0.9-0.4-0.8-3.5-0.9-5.4 C710.2,362.6,710.3,359.2,710.3,355.4z"></path> <path style="fill:#FFCE00;" d="M469.2,334.4c0,6.7,0,12.5,0,18.7c4,0.3,7.4,0.6,11.4,0.9c0,5.8,0,11.5,0,17.7 c-3.6,0.2-7.2,0.5-11.7,0.8c0,10.5-0.1,20.6,0,30.8c0,4.1,2.5,6.3,6.6,6.6c2.1,0.1,4.3,0.3,7.6,0.5c-1.6,5.4-2.9,10.4-4.5,15.2 c-0.3,0.8-1.4,1.7-2.3,2c-15.2,5-28.3-4.1-28.6-20c-0.2-10,0-20.1-0.1-30.1c0-2.5,0.9-5.5-3.4-5.7c-0.6,0-1.7-1.8-1.7-2.9 c-0.2-3.9-1.7-9.2,0.2-11.5c4.1-5.1,5.9-10.3,6-16.5c0-0.4,1.4-0.9,2.2-1.2C456.8,338.1,462.5,336.4,469.2,334.4z"></path> <path style="fill:#FFCE00;" d="M593.4,372.2c-4.2,0-7.2-0.2-10.2,0c-6.5,0.6-7.9,3.1-4.4,8.5c3.3,5.1,7.2,9.8,10.5,15 c2.1,3.2,4.2,6.8,5.1,10.4c2.8,12.1-3.7,20.9-16.1,21.7c-7.2,0.5-14.4,0.1-22.4,0.1c-1.4-5.3-2.8-10.7-4.5-17.5 c4.7,0,8.8,0.3,12.7-0.1c2.4-0.3,5.8-1.1,6.7-2.8c0.8-1.5-0.7-4.8-2-6.8c-4.2-6.4-9.2-12.2-13.1-18.7c-6.3-10.5-3.5-22.7,6.6-25.7 c7.7-2.3,16.3-1.4,24.5-1.7c0.7,0,1.9,1.1,2.2,2C590.6,361.5,591.9,366.4,593.4,372.2z"></path> <path style="fill:#FFCE00;" d="M345.2,476.2c1-6.6,2-12.8,3-19.1c13.5,0,26.6,0,39.7,0C384.4,469,363.3,478.7,345.2,476.2z"></path> <path style="fill:#FFCE00;" d="M144.3,458.4c-1.2,9.7-21.1,18.3-37.5,16.4c0.5-4.4,0.7-8.8,1.6-13.1c0.3-1.3,2.5-3.2,3.9-3.2 C122.9,458.2,133.6,458.4,144.3,458.4z"></path> </svg> 