<?xml version="1.0" encoding="UTF-8"?> <svg xmlns="http://www.w3.org/2000/svg" xmlns:xlink="http://www.w3.org/1999/xlink" version="1.1" id="Layer_1" x="0px" y="0px" viewBox="0 0 512 512" style="enable-background:new 0 0 512 512;" xml:space="preserve"> <path style="fill:#FFCE00;" d="M350,163.9c0-8,0-16,0-23.9c0-8.4,2.3-11.3,10.6-11.5c10.2-0.3,20.4-0.1,30.6,0.1 c3.5,0,6.5,1.3,8.8,4.1c1,1.3,2,1.8,3.3,0.2c2.3-3,5.5-4.4,9.2-4.4c14.8,0,29.5,0,44.3,0.1c0.4,0,0.9,0.1,1.3,0.1 c4.3,0.7,6.4,2.8,6.5,6.3c0,3.6-2.2,5.9-6.6,6.4c-2.7,0.3-5.5,0.4-8.2,0.4c-5.8,0.1-7.6,1.8-7.6,7.5c0,12.9,0.1,25.7-0.1,38.6 c0,2.5-0.7,5.1-1.5,7.4c-1,2.8-3.7,3.4-6.4,3.3c-2.6-0.1-5.2-0.6-6.1-3.3c-0.9-2.6-1.6-5.5-1.6-8.2c-0.2-12.6-0.1-25.2-0.1-37.8 c0-5.9-1.6-7.5-7.5-7.5c-2.2,0-4.5-0.1-6.7-0.2c-3.5-0.2-6.5-1.4-8.7-4.3c-1-1.3-2.1-1.5-3.1-0.1c-3.1,4-7.5,4.5-12,4.6 c-5.3,0.1-10.6,0-16,0c-4.8,0-6.5,1.8-6.5,6.6c0,0.9,0,1.7,0,2.6c0.2,3.5,2,5.4,5.6,5.4c4.8,0.1,9.6-0.1,14.4,0.1 c2.8,0.1,5.6,0.6,8.3,1.3c2.7,0.7,3.6,3,3.6,5.6c0,2.5-1,4.7-3.6,5.3c-2.6,0.7-5.4,1.2-8.1,1.3c-4.7,0.2-9.4,0-14.2,0.1 c-4.2,0.1-5.9,1.9-6.1,6c-0.3,8.5,0.8,9.6,9.4,9.7c5.9,0,11.9,0,17.7,0.5c5,0.4,7.4,3.4,6.7,7.5c-0.3,2-1.2,3.6-3.3,4.2 c-1.8,0.5-3.7,1.2-5.5,1.2c-10.4,0.1-20.8,0.3-31.1-0.1c-7-0.2-9.4-3-9.6-10.1c-0.2-5.5-0.1-11-0.1-16.5 C350,169.7,350,166.8,350,163.9z"></path> <path style="fill:#FFCE00;" d="M321.4,233.8c-0.5,1.9-0.7,3.6-1.2,5.1c-6.1,16.5-12.3,32.9-18.5,49.4c-0.7,1.8-1.5,3.7-2.6,5.3 c-3.7,5.7-11.3,5.6-14.7-0.3c-1.7-3-2.9-6.4-4.2-9.7c-2.6-6.9-5.1-13.8-7.7-20.7c-0.7-1.8-1.1-4.4-3.6-4.5c-2.6,0-2.9,2.6-3.6,4.4 c-3.2,8.4-6.3,16.9-9.5,25.3c-0.6,1.7-1.4,3.3-2.3,4.9c-1.7,3-4.2,4.6-7.8,4.5c-3.5,0-6.1-1.6-7.4-4.6c-2.8-6.4-5.3-13-7.8-19.6 c-4.3-11.2-8.4-22.5-12.6-33.7c-0.4-1.1-0.9-2.3-1-3.4c-0.2-2.4-1.2-5.2,1.2-6.8c3.7-2.5,8.1-2.2,10.7,0.4c1.4,1.4,2.7,3.2,3.4,5.1 c3.5,9.3,6.8,18.7,10.3,28c0.5,1.4,1,2.8,1.8,4c1.2,2,2.6,2.1,4,0.2c0.7-0.9,1.2-2.1,1.6-3.2c3.3-8.8,6.6-17.7,9.9-26.5 c0.7-1.8,1.5-3.7,2.5-5.3c3.3-5.6,10.9-5.7,13.8,0.1c2.7,5.4,4.6,11.3,6.8,16.9c1.9,5.1,3.8,10.3,5.7,15.5c0.3,0.8,0.6,1.6,1.1,2.3 c1.4,2.2,3.4,2.2,4.6-0.1c1.1-2.1,1.9-4.4,2.7-6.7c2.8-7.6,5.6-15.3,8.4-23c0.5-1.4,1.1-2.9,1.8-4.2c2.8-5.2,8.1-6.8,13-3.4 C320.9,230.2,320.9,232.4,321.4,233.8z"></path> <path style="fill:#FFCE00;" d="M280.4,163.8c0-7.9,0-15.8,0-23.7c0-8.7,2.4-11.5,11-11.7c9.3-0.2,18.7,0.2,28,0.8 c4.3,0.3,8.3,2.1,11.6,5c7,6.1,8.7,15.4,3.8,23.5c-2.1,3.5-2,6.3,0.5,9.6c8,10.9,3.8,25.1-8.9,29.6c-4.4,1.6-9.4,2.1-14.1,2.3 c-7.7,0.3-15.4,0.2-23.1-0.1c-5.5-0.2-7.6-2.4-8.4-7.9c-0.2-1.3-0.3-2.7-0.3-4.1C280.4,179.4,280.4,171.6,280.4,163.8z M308,170 c0,0.1,0,0.1,0,0.2c-2.1,0-4.1-0.1-6.2,0c-3.7,0.2-5.4,2-5.6,5.9c-0.3,7.3,0.9,9.9,5.1,10c4.9,0.2,9.9,0.1,14.9-0.4 c4.5-0.5,7.4-3.8,7.4-7.5c0-3.6-2.9-6.8-7.2-7.6C313.6,170.2,310.8,170.2,308,170z M306.8,156.9c0-0.1,0-0.1,0-0.2 c2.1,0,4.1,0,6.2,0c0.8,0,1.5-0.2,2.3-0.4c4.2-1.1,6.5-3.7,6.4-7.2c0-3.5-2.4-6.3-6.6-7c-3.1-0.5-6.3-0.6-9.5-0.7 c-8.4-0.1-10.1,1.8-9.4,10.2c0.3,3.3,2.1,5.1,5.5,5.3C303.4,157,305.1,156.9,306.8,156.9z"></path> <path style="fill:#FFCE00;" d="M360.3,262.5c0-7.7,0-15.4,0-23.2c0-1.9,0.2-3.8,0.6-5.6c1.2-5.2,6-7.5,10.7-4.9 c2,1.1,3.9,2.8,5.4,4.6c8,9.7,15.9,19.6,23.8,29.4c0.6,0.7,1.1,1.6,1.9,2.1c1,0.6,2.5,1.6,3.3,1.2c0.8-0.3,1.6-2,1.6-3.1 c0.2-7.7,0.1-15.4,0.2-23.2c0.1-2.5,0.4-5.2,1.1-7.6c1-3.2,3.2-4.5,6.7-4.4c3.4,0.1,5.6,1.5,6.5,4.8c0.5,2,0.9,4,0.9,6.1 c0.1,16,0.1,31.9,0,47.9c0,1.7-0.2,3.4-0.6,5.1c-1.1,4.9-5.8,7.4-10.3,5c-2.4-1.3-4.6-3.3-6.4-5.4c-8-9.6-15.7-19.5-23.7-29.1 c-1.1-1.4-3.2-3.2-4.6-2.9c-2.3,0.4-1.8,3.2-1.8,5c-0.1,7.2,0.1,14.4-0.1,21.6c-0.1,2.7-0.7,5.4-1.5,8c-0.9,2.7-3.3,3.5-6,3.5 c-2.8,0-5.3-0.8-6.3-3.5c-0.8-2.3-1.3-4.8-1.4-7.3C360.2,278.6,360.3,270.6,360.3,262.5z"></path> <path style="fill:#FFCE00;" d="M142.9,361.3c0-7.8,0-15.6,0-23.4c0-8.8,2.4-11.6,11.1-11.8c8.3-0.2,16.7-0.1,25,0.4 c5.8,0.3,11.3,2.2,15.6,6.5c7.2,7,8.1,18.7,1.6,26.5c-3.3,4-3.5,7.4-1.2,11.9c2.5,4.8,4.5,10,6.2,15.2c0.7,2.2,0.5,4.7,0.4,7.1 c0,0.6-1.1,1.3-1.8,1.7c-5.5,2.7-10.2,1.3-12.9-4.1c-2.2-4.4-4-8.9-5.7-13.5c-2.2-6-6.2-8.8-12.7-8.7c-9,0.1-9.9,0.8-9.9,9.8 c0,3.7,0,7.4-0.5,11c-0.6,4.8-3.5,6.9-8.1,6.7c-3.2-0.2-5.3-1.7-6.2-4.8c-0.6-2-0.9-4.2-0.9-6.3 C142.8,377.2,142.9,369.3,142.9,361.3z M169.5,355.7c0,0.1,0,0.1,0,0.2c2.6-0.2,5.3-0.2,7.9-0.7c4.6-0.9,7.2-3.8,7.2-7.8 c0-4-2.4-7-7.2-7.7c-4.6-0.6-9.4-0.6-14.1-0.5c-2.8,0.1-4.4,2.1-4.6,5c-0.2,2.1-0.1,4.3,0,6.4c0.2,3.1,2,4.8,5.1,5 C165.7,355.8,167.6,355.7,169.5,355.7z"></path> <path style="fill:#FFCE00;" d="M126.8,128c9.5,0.2,20.2,4.9,26.8,16.9c7.2,13.1,5.5,32.5-4.2,43.8c-5.4,6.3-12.5,9.6-20.6,10.6 c-12.1,1.4-23.3-0.7-31.7-10.2c-2.9-3.3-5.3-7.5-6.8-11.6c-3.2-8.5-3.1-17.4-0.5-26.1C94.2,136.5,106.5,128,126.8,128z M103.9,163.7 c0.3,2.5,0.4,5,0.9,7.4c1.7,8.8,7.8,14.4,16.2,15.1c9.1,0.8,16.3-3.2,19.2-11.4c2.8-7.6,2.7-15.3-0.4-22.8 c-2.8-6.8-8.3-10.1-15.5-10.4c-7.5-0.4-13.7,2-17.4,9C104.7,154.6,104.1,159.1,103.9,163.7z"></path> <path style="fill:#FFCE00;" d="M238.6,128c9.5,0.2,20.1,4.8,26.8,16.7c7.3,13,5.7,32.5-4,43.9c-5.4,6.4-12.6,9.8-20.8,10.7 c-12.1,1.4-23.3-0.8-31.7-10.2c-2.9-3.3-5.3-7.5-6.8-11.6c-3.2-8.4-3.1-17.2-0.6-25.8C205.9,136.6,218.2,128,238.6,128z M215.7,163.7c0.3,2.5,0.4,5,0.9,7.4c1.7,8.8,7.8,14.4,16.2,15.1c9.1,0.8,16.2-3.2,19.2-11.4c2.8-7.6,2.7-15.3-0.4-22.8 c-2.8-6.8-8.3-10-15.5-10.4c-7.5-0.4-13.7,2-17.4,9C216.5,154.6,215.9,159.1,215.7,163.7z"></path> <path style="fill:#FFCE00;" d="M140.6,261.5c0.1-10.9,3.8-21.3,13.8-28.5c13.7-9.9,41.3-9.1,51.8,10.7c7,13.2,5.5,32.5-4.2,43.9 c-5.4,6.4-12.6,9.7-20.8,10.7c-12.1,1.4-23.1-1-31.8-10.3C142.9,280.8,140.6,272,140.6,261.5z M175.7,240.3 c-9.2,0-15.4,4.5-17.8,13.3c-1.9,6.7-1.8,13.4,0.6,20c3,8,9.5,11.9,18.7,11.5c7.9-0.4,14-5.3,16.2-13.1c1.6-5.6,1.7-11.3,0.4-17 C191.8,245.7,185.1,240.3,175.7,240.3z"></path> <path style="fill:#FFCE00;" d="M77.9,276.4c-0.2,3.5-0.2,7-0.5,10.4c-0.3,3.7-1.7,7-5.3,8.2c-15.4,5.1-30.6,6.1-45-3 c-5.5-3.5-9.2-8.8-11.3-14.9c-3.1-9.1-3.3-18.4-0.4-27.5c3.3-10.3,10.2-17.2,20.4-20.5c11.2-3.6,22.4-3.1,33,2.3 c3.3,1.6,5.9,4,5.4,8.2c-0.4,3.2-3,5.5-6.2,5c-2.1-0.3-4.2-0.8-6.1-1.7c-5.7-2.5-11.6-3.2-17.6-2c-6.1,1.2-10.6,4.6-12.8,10.4 c-2.9,7.7-2.9,15.5,0,23.1c2.2,5.9,6.6,9.5,12.7,10.4c4.2,0.7,8.5,0.6,12.8,0.2c4-0.3,5.9-3.4,5.8-8c-0.1-4.1-1.9-5.9-6.2-6.4 c-1.4-0.2-2.7-0.4-4-0.7c-3.3-0.9-4.6-2.5-4.7-5.5c-0.1-3.3,1-5.2,4.4-6c6.6-1.5,13.3-1.6,19.9,0.1c3.6,0.9,4.8,3.9,5.1,7.3 C77.6,269.3,77.7,272.9,77.9,276.4z"></path> <path style="fill:#FFCE00;" d="M497.8,275.4c0,3.8,0.1,7.5,0,11.3c-0.2,3.7-1.6,7-5.2,8.2c-15.6,5.2-31.1,6.3-45.7-3.4 c-5.2-3.5-8.6-8.6-10.7-14.4c-3.2-9.1-3.4-18.4-0.4-27.5c3.3-10.5,10.4-17.5,20.9-20.7c11.1-3.4,22.1-2.9,32.6,2.3 c3.1,1.5,5.7,3.7,5.5,7.7c-0.1,3.6-2.8,6.1-6.4,5.6c-2.1-0.3-4.2-0.9-6.1-1.7c-5.6-2.4-11.4-3.1-17.4-2c-6.2,1.2-10.7,4.6-12.9,10.6 c-2.8,7.6-2.8,15.3,0,22.9c2.2,5.9,6.6,9.6,12.7,10.5c4.3,0.7,8.7,0.6,13,0.2c4-0.3,5.8-3.5,5.6-8.1c-0.2-3.9-2-5.8-6.1-6.3 c-1.4-0.2-2.9-0.4-4.3-0.8c-3.2-0.9-4.4-2.4-4.5-5.4c-0.1-3.2,0.8-5.1,4.1-5.9c6.7-1.7,13.6-1.7,20.4,0.1c3.5,0.9,4.6,3.9,5,7.1 c0.3,3.2,0.4,6.5,0.5,9.8C498.1,275.4,498,275.4,497.8,275.4z"></path> <path style="fill:#FFCE00;" d="M259.7,352.8c0-6.2-0.2-12.4,0.1-18.5c0.3-5.4,3.3-7.8,8.4-7.5c2.8,0.1,4.8,1.4,5.8,4 c0.5,1.4,1.1,3,1.1,4.5c-0.1,12.9,0.4,25.8-0.6,38.6c-0.8,11.4-7.7,19.1-18.9,22.2c-8,2.3-16.2,2.2-24.1-0.3 c-10.5-3.3-17.5-12.2-18-23.6c-0.5-11.6-0.4-23.3-0.4-35c0-1.2,0.2-2.4,0.4-3.6c0.8-4.6,3.1-6.7,7.3-6.7c4.3,0,6.7,2.1,7.5,6.8 c0.3,1.8,0.4,3.6,0.4,5.4c0,7.5,0,15.1,0,22.6c0,2.2,0,4.5,0.1,6.7c0.3,12.4,9.6,18.8,21.4,14.8c5.5-1.9,8.8-6.3,9-12.8 c0.2-5.8,0-11.7,0-17.5C259.4,352.8,259.6,352.8,259.7,352.8z"></path> <path style="fill:#FFCE00;" d="M401.2,397.4c-6.7,0.1-13.2-0.9-19.3-3.9c-2.4-1.2-4.6-3.2-6.3-5.3c-1.5-1.8-1.1-4.3,0.3-6.3 c1.4-1.9,3.2-3.2,5.7-2.5c1.7,0.4,3.5,0.8,5.1,1.6c5.5,2.5,11.3,3.3,17.3,2.9c3.1-0.2,6.2-0.8,8.5-3.2c2.3-2.2,2.4-4.9,0-7 c-1.4-1.2-3.1-2.3-4.8-2.8c-4.3-1.3-8.8-2.3-13.2-3.5c-5.7-1.6-11.3-3.5-15.6-8c-5.4-5.7-6.5-15-2.2-21.7c3-4.6,7-8,12.3-9.8 c11.5-3.9,22.6-3.1,33.4,2.5c3.3,1.7,5.7,4.2,5.1,8.4c-0.4,3.2-3.1,5.4-6.2,5c-2-0.3-4-0.9-5.9-1.8c-4.8-2.2-9.8-3.3-15-2.8 c-3.3,0.3-6.4,1.3-8.7,3.9c-1.9,2.2-2,5,0.1,6.9c1.5,1.4,3.4,2.6,5.4,3.3c5.1,1.6,10.3,2.7,15.4,4.3c2.7,0.8,5.4,1.8,7.9,3.1 c13.7,7.1,13,23.7,0.9,31.6C415.4,396.4,408.5,397.5,401.2,397.4z"></path> <path style="fill:#FFCE00;" d="M84.6,361.5c0-8,0-16,0-23.9c0.1-8.4,2.3-11.2,10.7-11.5c10.3-0.3,20.6,0,30.9,0.2 c3,0.1,6,1.1,6.9,4.7c0.8,3.1-0.3,6.1-3.3,7.1c-2.6,0.8-5.3,1.2-8,1.3c-4.7,0.2-9.4,0-14.2,0.1c-5.6,0-7.1,1.6-7.1,7.3 c0,0.3,0,0.5,0,0.8c0.1,4.8,1.8,6.5,6.5,6.6c5.6,0.1,11.2,0.2,16.7,0.3c0.4,0,0.9,0.1,1.3,0.1c4.2,0.6,6.4,2.8,6.4,6.3 c0,3.6-2.1,5.8-6.3,6.4c-1.8,0.3-3.6,0.4-5.4,0.4c-1.4,0.1-2.7,0-4.1,0c-16-0.1-15.2-1-15.2,15c0,2.6-0.2,5.2-0.7,7.7 c-0.9,4.2-3.5,6-7.8,5.9c-3.4-0.1-5.5-1.6-6.4-4.9c-0.5-2-0.8-4.2-0.9-6.3C84.6,377.3,84.6,369.4,84.6,361.5z"></path> <path style="fill:#FFCE00;" d="M333,366c0-6.5,0-13,0-19.6c0-5.1-1.7-6.8-6.8-6.9c-3.2-0.1-6.4-0.1-9.5-0.5c-4-0.6-5.8-2.6-6-5.9 c-0.1-3.2,1-5.2,4-6.1c2.4-0.7,4.9-1.1,7.3-1.1c12.5-0.1,25.1-0.1,37.6,0c2.8,0,5.6,0.7,8.3,1.4c2.6,0.7,3.4,3,3.4,5.5 c0,2.4-0.9,4.5-3.4,5.2c-2.5,0.7-5,1.1-7.5,1.4c-1.7,0.2-3.4,0-5.1,0.1c-4.3,0.1-6.2,2.1-6.4,6.4c0,0.9,0,1.7,0,2.6 c0,12.1,0,24.2,0,36.3c0,1.9-0.1,3.8-0.5,5.6c-1.3,5.5-6.5,7.9-11.3,5c-1.6-1-2.7-3.2-3.4-5.1c-0.7-1.7-0.6-3.7-0.6-5.6 C333,378.5,333,372.2,333,366z"></path> <path style="fill:#FFCE00;" d="M89.8,262.7c0-7.9-0.1-15.8,0-23.7c0-2.2,0.4-4.5,1-6.6c0.9-3.1,3-4.5,6.4-4.6 c3.7-0.1,6.2,1.1,7.2,4.1c0.8,2.4,1.2,5,1.2,7.6c0.1,12.5,0,25,0.1,37.6c0,6.1,1.5,7.5,7.6,7.6c6.2,0.1,12.4,0,18.5,0.5 c4.6,0.3,6.6,2.8,6.4,6.8c-0.1,2.4-1.1,4.2-3.4,5c-1.8,0.6-3.7,1.2-5.5,1.2c-10,0.1-19.9,0.3-29.9-0.1c-7-0.3-9.3-3-9.6-10.1 c-0.2-4.9,0-9.8-0.1-14.7C89.8,269.7,89.8,266.2,89.8,262.7z"></path> <path style="fill:#FFCE00;" d="M77.3,167c0,9,0.2,18-0.1,27c-0.1,3.9-0.9,7.8-2,11.6c-1.6,5.1-5.5,8.1-10.6,9.6 c-4.2,1.2-8.5,1.5-12.7,0.3c-3.8-1.1-5.3-3.4-5-7.3c0.2-2.3,1.1-4.1,3.5-4.8c0.6-0.2,1.1-0.4,1.7-0.6c8.4-2.1,9.3-3.1,9.3-11.9 c0-16.7,0-33.4,0.1-50.1c0-2.2,0.3-4.5,0.8-6.6c0.9-3.6,3.2-5.1,7-5.1c3.8,0,6.2,1.5,7.2,5c0.5,2,0.8,4,0.8,6.1 C77.4,149,77.3,158,77.3,167C77.3,167,77.3,167,77.3,167z"></path> <path style="fill:#FFCE00;" d="M188.6,167.5c0,8.8,0.2,17.7-0.1,26.5c-0.1,3.9-0.9,7.8-2,11.6c-1.6,5.1-5.5,8.2-10.6,9.6 c-4.2,1.2-8.5,1.5-12.7,0.3c-3.6-1-5.1-3-5.1-6.5c0-3.5,1.3-5.1,4.9-6.1c9.1-2.5,9.6-3.1,9.6-12.5c0-16.5,0-33.1,0.1-49.6 c0-2.3,0.3-4.6,0.9-6.8c0.9-3.4,3.1-4.8,6.6-4.9c3.9-0.1,6.4,1.3,7.4,4.6c0.6,2,0.9,4.2,0.9,6.3 C188.7,149.1,188.6,158.3,188.6,167.5C188.6,167.5,188.6,167.5,188.6,167.5z"></path> <path style="fill:#FFCE00;" d="M331.4,262.7c0-7.9-0.1-15.8,0-23.7c0-2.3,0.4-4.6,1-6.8c0.9-3,3.3-4.2,6.3-4.4 c3.1-0.1,6,0.6,7.1,3.9c0.8,2.2,1.3,4.7,1.3,7c0.1,16,0.1,31.9,0,47.9c0,1.5-0.2,3.1-0.5,4.6c-0.8,4.2-3.2,6.3-7.1,6.3 c-4.3,0.1-6.7-1.7-7.6-6.1c-0.4-1.7-0.5-3.6-0.5-5.4C331.4,278.3,331.4,270.5,331.4,262.7z"></path> <path style="fill:#FFCE00;" d="M303.5,361.4c0,7.8,0.1,15.6,0,23.4c0,2.1-0.3,4.3-0.8,6.4c-0.9,3.6-3.4,5.2-7.3,5.2 c-3.8,0-6-1.6-7-5.2c-0.5-1.9-0.7-3.9-0.8-5.8c-0.1-15.9-0.1-31.7,0-47.6c0-2.1,0.3-4.3,0.9-6.3c0.9-3.2,3.1-4.6,6.6-4.7 c3.6-0.1,6.1,1.2,7.1,4.3c0.7,2.2,1.1,4.7,1.1,7.1C303.5,345.8,303.5,353.6,303.5,361.4z"></path> </svg> 