<?xml version="1.0" encoding="UTF-8"?> <svg xmlns="http://www.w3.org/2000/svg" xmlns:xlink="http://www.w3.org/1999/xlink" version="1.1" id="Layer_1" x="0px" y="0px" viewBox="0 0 1000 1000" style="enable-background:new 0 0 1000 1000;" xml:space="preserve"> <g> <path style="fill:#FFCE00;" d="M541.4,795.8h-31.3v84.8h13.9v-29h17.3c7.9,0,14.7-2.6,20.1-8c5.4-5.4,8-12,8-19.8 c0-7.9-2.6-14.6-8-19.9C556.1,798.4,549.4,795.8,541.4,795.8z M551.5,834.2c-2.6,2.7-6,4.2-10.2,4.2h-17.3v-29.5h17.3 c4.1,0,7.5,1.4,10.2,4.2c2.6,2.7,4,6.3,4,10.6C555.6,827.8,554.3,831.4,551.5,834.2z"></path> <polygon style="fill:#FFCE00;" points="592.5,851.2 620,851.2 620,840.5 592.5,840.5 592.5,822.7 622.4,822.7 622.4,811.9 581.2,811.9 581.2,880.6 622.9,880.6 622.9,869.8 592.5,869.8 "></polygon> <path style="fill:#FFCE00;" d="M412.9,850.9c-1.1-1.2-2.3-2.3-3.6-3.5c-1.1-0.9-2.7-1.8-5-2.7c-2.2-0.9-3.9-1.6-5.1-2 s-3.2-1-5.7-1.9c-5.2-1.6-8.9-3.2-10.9-4.7c-1.9-1.4-3.1-3.7-3-6c0-2.6,1-4.7,3-6.2c1.9-1.5,4.6-2.3,7.8-2.3 c6.7,0,11.5,3.3,14.5,9.6l9.6-5.5c-2-4.5-5.4-8.3-9.6-11.1c-4.1-2.6-9-4.1-14.5-4.1c-6.1,0-11.3,1.8-15.6,5.4 c-4.3,3.6-6.5,8.3-6.5,14.5c0,3.1,0.5,5.8,1.6,8c1.1,2.3,2.9,4.3,5.1,5.7c2,1.4,4.2,2.6,6.4,3.6c2.6,1,5.3,1.9,7.9,2.7 c5.8,1.7,9.9,3.4,12.2,4.9c2.2,1.4,3.5,3.7,3.5,6.4c0.1,2.5-1.1,5-3.2,6.5c-2.1,1.6-5.3,2.5-9.6,2.5c-8.7,0-14.4-3.9-17.1-11.6 l-9.7,5.7c1.7,5.1,5.1,9.5,9.7,12.4c4.6,3.1,10.2,4.5,16.8,4.5c7.2,0,13.1-1.8,17.6-5.5c4.5-3.7,6.7-8.6,6.7-14.8 c0-2-0.2-4.1-0.8-6C415,853.8,414.1,852.2,412.9,850.9z"></path> <polygon style="fill:#FFCE00;" points="212.3,880.5 226.3,880.5 226.3,846.1 260.8,846.1 260.8,832.7 226.3,832.7 226.3,809 262,809 262,795.7 212.3,795.7 "></polygon> <rect x="275.7" y="811.8" style="fill:#FFCE00;" width="11.3" height="68.7"></rect> <polygon style="fill:#FFCE00;" points="424.7,822.6 444.1,822.6 444.1,880.5 455.4,880.5 455.4,822.6 474.8,822.6 474.8,811.8 424.7,811.8 "></polygon> <path style="fill:#FFCE00;" d="M351.2,845.9c2.4-3.6,3.8-7.7,3.8-12c0-6.1-2.1-11.4-6.4-15.7c-4.3-4.3-9.5-6.4-15.7-6.4h-27.5v68.7 h11.3v-25H330l14.6,25h12.3l-15.6-26.7C345.3,852.2,348.7,849.4,351.2,845.9z M332.9,845.4h-16.2v-23h16.2c3,0,5.7,1.2,7.6,3.4 c4.2,4.6,4.2,11.7,0,16.3C338.6,844.1,335.8,845.4,332.9,845.4z"></path> <path style="fill:#FFCE00;" d="M794.6,810.5c-10,0-18.3,3.5-25.2,10.4c-6.9,6.9-10.4,15.4-10.4,25.2c0,10,3.5,18.4,10.4,25.2 c6.9,6.9,15.4,10.4,25.2,10.4c10,0,18.3-3.5,25.2-10.4c6.9-6.9,10.4-15.4,10.4-25.2c0-10-3.5-18.3-10.4-25.2 C813,813.9,804.5,810.5,794.6,810.5z M811.9,863.8c-4.7,4.7-10.5,7-17.3,7s-12.6-2.3-17.3-7c-4.7-4.7-7-10.6-7-17.6 s2.3-12.9,7-17.6c4.7-4.7,10.5-7,17.3-7c6.9,0,12.6,2.3,17.3,7c4.7,4.7,7,10.6,7,17.6S816.5,859.1,811.9,863.8z"></path> <polygon style="fill:#FFCE00;" points="886,858.4 853.6,811.8 844.7,811.8 844.7,880.5 856,880.5 856,833.9 888.4,880.5 897.3,880.5 897.3,811.8 886,811.8 "></polygon> <path style="fill:#FFCE00;" d="M745.6,850.9c-1.1-1.2-2.3-2.3-3.6-3.5c-1.1-0.9-2.7-1.8-5-2.7c-2.2-0.9-3.9-1.6-5.1-2 c-1.2-0.4-3.2-1-5.7-1.9c-5.2-1.6-8.9-3.2-10.9-4.7c-1.9-1.4-3.1-3.7-3-6c0-2.6,1-4.7,3-6.2c1.9-1.5,4.6-2.3,7.8-2.3 c6.7,0,11.5,3.3,14.5,9.6l9.6-5.5c-2-4.5-5.4-8.3-9.6-11.1c-4.1-2.6-9-4.1-14.5-4.1c-6.1,0-11.3,1.8-15.6,5.4s-6.5,8.3-6.5,14.5 c0,3.1,0.5,5.8,1.6,8c1.1,2.3,2.9,4.3,5.1,5.7c2,1.4,4.2,2.6,6.4,3.6c2.6,1,5.3,1.9,7.9,2.7c5.8,1.7,9.9,3.4,12.2,4.9 c2.2,1.4,3.5,3.7,3.5,6.4c0.1,2.5-1.1,5-3.2,6.5c-2.1,1.6-5.3,2.5-9.6,2.5c-8.7,0-14.4-3.9-17.1-11.6l-9.7,5.7 c1.7,5.1,5.1,9.5,9.7,12.4c4.6,3.1,10.2,4.5,16.8,4.5c7.2,0,13.1-1.8,17.6-5.5c4.5-3.7,6.7-8.6,6.7-14.8c0-2-0.2-4.1-0.8-6 C747.7,853.8,746.8,852.2,745.6,850.9z"></path> <path style="fill:#FFCE00;" d="M683.9,845.9c2.4-3.6,3.8-7.7,3.8-12c0-6.1-2.1-11.4-6.4-15.7s-9.5-6.4-15.7-6.4h-27.5v68.7h11.3 v-25h13.3l14.6,25h12.3L674,853.8C678,852.2,681.4,849.4,683.9,845.9z M665.6,845.4h-16.2v-23h16.2c3,0,5.7,1.2,7.6,3.4 c4.2,4.6,4.2,11.7,0,16.3C671.3,844.1,668.4,845.4,665.6,845.4z"></path> <path style="fill:#FFCE00;" d="M177,824.5c-3.4-45.8-46.9-64.9-80.6-46.8C106.9,801.3,114.4,829.4,177,824.5z"></path> <path style="fill:#FFCE00;" d="M99.9,891.6c33.7,18,77.3-1,80.6-46.8C117.9,839.8,110.4,868,99.9,891.6z"></path> <polygon style="fill:#FFCE00;" points="652.9,188.5 623.5,205 638.8,213.2 655.6,203.3 656.3,222.5 671.8,230.9 669.3,197.3 696,182.2 681.1,174.3 666.7,183 666.1,166.2 650.7,158 "></polygon> <polygon style="fill:#FFCE00;" points="594.3,189.4 655.9,141.9 663.7,127.3 610.9,98.8 602.4,114.5 636.9,133.1 574.2,178.6 "></polygon> <polygon style="fill:#FFCE00;" points="372,217.4 386.6,210.1 388,191.7 403.4,201.7 418.4,194.2 391,177.7 393.9,148.9 379.6,156 378.5,172 365.1,163.3 350.4,170.7 375.2,185.7 "></polygon> <path style="fill:#FFCE00;" d="M308.9,184.1c-1-2-1.5-4.4-1.3-6.6c0.6-2.7,2.3-5.1,4.9-6.3c2.2-1.2,4.9-1.4,7.2-0.5 c2.3,1,4.4,2.9,5.4,5.3c1.1,2.1,1.6,4.5,1.5,6.8c-0.1,2.4-0.5,4.9-1.2,7.2l-12.7,38.9l7.3,14.6l47.6-24l-7.6-15.2l-27,13.4 l7.6-22.8c0.7-2.3,1.4-4.6,2-6.8c0.6-2.2,1-4.6,1.2-6.9c0.2-2.3,0-4.8-0.4-7.1c-0.5-2.6-1.4-5.2-2.6-7.6c-1.6-3.5-4.1-6.5-7-9 c-2.5-2-5.6-3.6-8.9-4.4c-3.2-0.7-6.4-0.8-9.7-0.3c-3.4,0.5-6.6,1.5-9.6,3.1c-3.2,1.5-6,3.7-8.3,6.2c-2.2,2.4-4.1,5.4-5.3,8.6 c-1.2,3.3-1.8,6.8-1.8,10.3c0,3.9,0.8,7.7,2.2,11.4L308.9,184.1z"></path> <path style="fill:#FFCE00;" d="M911.2,543.1c-3.3-6.4-9-11.3-15.8-13.3c-22.2-6.9-61.5-16.9-123.1-25.3 c-74.1-10.2-161.3-15.5-259-15.8c-8.3,0-16.8,0-25,0c-6.6,0-13.1,0.1-19.5,0.2c-5.9-21.6-10.7-45.9-17.5-58.1 c-11.2-20-15.4-19.8-21.3-25.5c10.5-4.8,19.9-11.7,27.4-20.5c7.5-8.4,12.5-17.4,15-26.9l-0.2,124.5h92l0.2-28.5h-58.6V346h58.6 v-28.9h-58.6v-51.6h50v-29l-83.3-0.2l-0.1,91.9c-3.4-12.2-11.1-22.6-23.4-32.5c-15.9-12.8-35.3-17.7-59.4-17.7l-52.8,0.3v215.4 l33.5-2.5v-73.9h19.4c12.9,0,22,7.3,29.4,20.6c6.5,11.4,10.4,25.6,17.2,51.9c-73.6,2.3-141.8,8.3-203.5,17.9 c-62.1,9.7-103.7,20.9-127.8,28.6c-6.8,2.1-12.4,6.9-15.7,13.3c-3.1,6.2-3.3,13.4-0.6,19.8l71.9,167.2c4.2,9.4,13.4,15.3,23.6,15.1 c1.7,0,3.5-0.2,5.2-0.5c42.7-8.8,157.5-29.1,303.7-30.2c157.7-1.2,271,20.4,312.4,29.7c2,0.4,4.1,0.7,6.1,0.6 c10,0,19-5.8,23.2-14.9l76.8-173.2C914.6,556.6,914.4,549.3,911.2,543.1z M426.5,379.5c-10.8,10.2-22.9,16.4-36.9,16.4H370v-94.8 h18.4c16.6,0,29.9,3.2,39.9,12.1c8.8,7.6,13.6,18.8,13.3,30.4C441.9,357.2,436.4,370.2,426.5,379.5z M461.9,544.1 c-4,6-7.2,12.6-9.3,19.5c-2.8,9-4.2,18.3-4.2,27.7c-0.1-9.5,1.3-18.9,4.2-28c2.1-6.8,5.2-13.3,9.2-19.3 C461.8,544,461.9,544,461.9,544.1z M539.3,623.6l-5.8-3c-1.8,13-11.6,30.1-29.3,31.9c-5.8,0.8-11.6-0.9-16.2-4.6 c-4.6-3.9-8.3-8.8-10.9-14.3c-3-6.2-5-12.7-6.2-19.4c-1.3-6.7-2-13.5-2.1-20.4c0-0.3,0-0.7,0-1c0,0.2,0,0.4,0,0.6 c0.1,6.8,0.8,13.6,2.1,20.4c1.1,6.7,3.3,13.2,6.2,19.4c2.5,5.5,6.3,10.3,10.9,14.3c3.8,3.2,8.6,4.9,13.5,4.8c0.8,0,1.6,0,2.5-0.1 c17.8-1.7,27.6-18.8,29.4-31.9l5.9,3.1C539.3,623.4,539.3,623.5,539.3,623.6z M905.7,560.5l-76.7,173.2c-3.1,6.7-9.8,11-17.1,11 c-1.5,0-3.1-0.1-4.6-0.5c-39.9-9-154.5-31.1-314-29.8c-147.9,1.1-264.5,22.1-304.9,30.3c-1.2,0.3-2.5,0.4-3.9,0.4 c-7.5,0.1-14.5-4.3-17.5-11.1l-72-167.3c-1.9-4.8-1.7-10.3,0.6-15c2.2-4.7,6.4-8.1,11.4-9.6c40.9-13.1,147-40.6,330.8-46.2 c0.5,2.1,1.1,4.2,1.7,6.5c4.5,17.4,11.4,31.2,21.5,40.9c-4,6.1-7.2,12.7-9.4,19.7c-3.3,10.4-4.7,21.3-4.2,32.1 c0.2,10.6,2,21.1,5.4,31.2c2.7,8.1,7,15.6,12.4,22.2c4.7,5.7,10.6,10.2,17.2,13.2c5.6,2.5,11.7,4,17.9,4c0.6,0,1.1,0,1.6,0 c5.9-0.1,11.8-1.9,16.7-5.3c4.5-3.1,8.3-7,11.3-11.5c2.9-4.3,5.1-8.9,6.7-13.6c1.5-4.6,2.6-8.4,3.4-11.5l0.1-0.6l-0.6-0.3l-3-1.9 l-2.9-1.4l-1-0.5l-0.2,1.1c-1.6,11.5-10.6,29.3-28.7,31.2c-0.8,0.1-1.6,0.1-2.4,0.1c-4.7,0.1-9.4-1.5-13-4.6 c-4.5-3.9-8.1-8.7-10.7-14c-3-6.1-5-12.6-6.2-19.2c-1.3-6.6-2-13.3-2.1-20.2c-0.3-10.4,0.7-20.7,3.1-30.7c0.7-3.2,1.7-6.3,2.9-9.3 c6.7,3.2,14.4,5.1,23.2,5.8c0.3,1.6,0.8,3.4,1.5,5.3c3.6,9.6,11.2,13.8,16.8,13.8c0.4,0,0.9,0,1.3-0.1c5.5-0.6,10.2-4.7,12.8-10.9 c2-5.1,2.7-10.6,2.1-16c-0.2,0.2-0.5,0.4-0.7,0.6c-2.1,1.7-4.4,3.2-6.8,4.3c0,0,0,0,0,0.1c-0.2,0.1-0.4,0.3-0.7,0.4 c0.1,7.9-3.6,12.3-6.3,13.4c-0.7,0.2-1.3,0.3-2,0.3c-3.1,0-8.7-2.3-10.7-11c24.7-0.2,38.1-16,38.4-35.4c0.1-9.4-3.6-17.2-12.9-23.6 c-11.1-6.7-29.8-4.8-29.8-4.8l-5.9,13.3c0,0,25.7-0.3,26.2,15c0.2,4.6-2.4,12.7-14,13.1c-7.5,0.3-11.9-0.8-16.8-4.5 c0.4-0.2,0.7-0.5,1.1-0.7c2.9-1.6,6.1-2.4,9.5-2.4c2.5,0.1,5.1,0.5,7.5,1.3c0.4,0,0.9-0.1,1.3-0.1c0.2,0.1,0.4,0.1,0.5,0.2 c1.1-0.1,2.2-0.4,3.3-0.8c1.3-0.5,2.5-1.2,3.6-2.2c0.5-0.5,0.9-1.1,1.3-1.7c-5.1-3.7-11.1-5.6-17.3-5.6c-6.5-0.1-12.8,1.4-18.6,4.3 c-0.1-0.1-0.1-0.1-0.2-0.2c5.6-2.9,11.8-4.4,18-4.4c0.2,0,0.5,0,0.7,0c6.2,0,12.3,1.9,17.3,5.6c0.1-0.2,0.3-0.5,0.4-0.7 c-5.2-3.7-11.4-5.7-17.7-5.7c-0.2,0-0.5,0-0.7,0c-6.5,0.1-12.7,1.6-18.5,4.6c-4.6-6.8-8.6-17.2-11.9-28.5 c5.9-0.1,11.8-0.2,17.8-0.2c8.1-0.1,16.5-0.1,25-0.1c224.2,0.7,337.9,27.7,380.1,40.8c5.1,1.4,9.3,4.9,11.6,9.7 C907.6,550.1,907.7,555.6,905.7,560.5z M509.8,575.2c-0.2-0.1-0.5-0.3-0.7-0.4C509.3,574.9,509.6,575,509.8,575.2z M508.5,574.3 c-0.2-0.1-0.4-0.3-0.5-0.4C508.2,574.1,508.4,574.2,508.5,574.3z M507.4,573.4c-0.1-0.1-0.3-0.2-0.4-0.4 C507.1,573.2,507.2,573.3,507.4,573.4z M506.3,572.4c-0.1-0.1-0.2-0.2-0.3-0.3C506,572.2,506.2,572.3,506.3,572.4z M505.2,571.3 c-0.1-0.1-0.2-0.2-0.3-0.3C505,571.1,505.1,571.2,505.2,571.3z M504.2,570c-0.1-0.1-0.1-0.2-0.2-0.3 C504.1,569.8,504.2,569.9,504.2,570z M503.3,568.7c-0.1-0.1-0.1-0.2-0.2-0.3C503.2,568.5,503.3,568.6,503.3,568.7z M502.5,567.3 c-0.1-0.1-0.1-0.2-0.2-0.4C502.4,567.1,502.4,567.2,502.5,567.3z M501.8,565.8c-0.2-0.5-0.4-1-0.6-1.6 C501.3,564.8,501.5,565.3,501.8,565.8z M518.3,577.3C518.3,577.3,518.3,577.3,518.3,577.3C518.3,577.3,518.3,577.3,518.3,577.3 c-0.4,0.1-0.8,0.1-1.2,0.1c-1.8,0-3.8-0.5-5.8-1.4C513.7,577.1,516.2,577.6,518.3,577.3z M511.2,575.9c-0.3-0.2-0.6-0.3-1-0.5 C510.5,575.6,510.8,575.7,511.2,575.9z"></path> <path style="fill:#FFCE00;" d="M292,463.3c25.2-25.7,39.3-60.4,38.9-96.4c0-36.5-13.6-68.3-40.5-93.9c-26.8-25.5-59-36.1-95.9-36.1 l-56.2,0.1v278.6c0,0,23.8-0.2,61.3-7.4C237.1,500.9,266.3,490.2,292,463.3z M178.4,279.8h25.1c22.6-0.3,44.2,9.2,59.4,25.9 c16.3,17.3,23.4,37,23.4,61.8c0,25.9-6.7,49.4-23.4,66.4c-33.3,34.1-84.5,36.4-84.5,36.4V279.8z"></path> <polygon style="fill:#FFCE00;" points="737,493.6 736.9,347.5 781.6,470.8 826.7,348 826.9,506.9 860.7,513.7 860.7,236.6 827.8,236.6 782,380.4 781.4,380.4 735.3,255.8 703.6,255.8 703.8,490.3 "></polygon> <path style="fill:#FFCE00;" d="M614.9,442.8h40.3l10.1,49.1l37.1,3.1l-45.9-219.1h-37.7l-48.5,211.9l35,0.9L614.9,442.8z M635.1,344.7l15.1,71.5h-30L635.1,344.7z"></path> <path style="fill:#FFCE00;" d="M270.5,611.7c0.8,0.8,1.5,1.7,2,2.8c0.3,0.6,0.5,1.2,0.6,1.9c-0.1-0.7-0.4-1.4-0.6-2 C272,613.4,271.3,612.4,270.5,611.7z"></path> <path style="fill:#FFCE00;" d="M378.5,652.8l-0.7,0.2l-2.1,0.5h-0.1l-0.6,0.2v0.7c0.1,2-0.1,4.1-0.6,6c-0.4,1.4-1,2.7-1.7,4 c-0.7,1.1-1.7,2-2.7,2.7c-1,0.6-2.2,0.9-3.5,0.9c-1,0-1.9-0.2-2.9-0.6c-2.7-1.3-5.1-3.4-6.8-5.8c-2.9-3.7-5.3-7.5-7.4-11.7 c-2.5-4.8-5.2-10.5-7.9-16.8c-2.7-6.4-5.4-13.1-7.9-20.1c-2.6-7.3-5-13.6-6.9-19.5c-2.3-6.9-4-11.8-5.4-15.8 c-1.5-4.7-2.5-7.6-3.2-9.2c-0.5-1-0.7-2.1-0.5-3.3c0.2-0.8,0.6-1.6,1.1-2.2c0.7-0.7,1.6-1.2,2.5-1.6c1.2-0.5,2.5-1,3.9-1.5l0.6-0.2 l-0.1-0.7l-0.2-1.3l-0.2-0.9l-0.6-1.5l-0.9,0.3c-3.9,1.1-7.8,1.9-11.8,2.3c-4.4,0.5-9,1-13.4,1.3c-4.5,0.3-8.7,0.5-12.4,0.6 c-4,0.1-6.7,0.2-8.7,0.2h-0.9v0.8l-0.1,3.8v0.9l0.9-0.1c0.6-0.1,1.2-0.1,1.8-0.1c4-0.1,7.6,1.6,10.2,4.7c3.1,3.7,4.6,9.1,4.5,16.2 c-0.1,3.4-0.3,6.8-0.8,10.2c-0.5,3.7-1.1,7.6-1.9,11.5c-0.8,4-1.6,8-2.5,12.1c-0.3,1.2-0.5,2.7-0.8,4.2c-0.5,3-1.1,6.5-2,7.3 c-1.2,1.1-6.3,1.9-15,2.3c-1,0-1.9,0.1-2.9,0.1c-2.9,0-5.7-0.3-8.6-0.9c-2.6-0.5-5.2-1.8-7.2-3.6c-1.7-1.5-2.9-3.6-3.4-5.8 c-0.3-1.3-0.4-2.7-0.2-4.1c0.2-1.6,0.6-3.2,1.4-4.6c0.8-1.5,2-3,3.5-3.9c1.9-1.3,4.2-2,6.5-2.2c0.8-0.1,1.5-0.1,2.3-0.1 c1.4,0,2.9,0.2,4.3,0.6c1.4,0.4,2.9,1.2,4.1,2.1c0,0,0,0,0.1,0.1c-0.1-0.1-0.2-0.2-0.3-0.3c-1.2-1-2.7-1.8-4.3-2.3 c-1.4-0.4-3-0.7-4.6-0.6c-0.8,0-1.6,0-2.4,0.1c-0.6,0-1.1,0.1-1.7,0.2c0.8-0.2,1.7-0.4,2.5-0.4c2.3-0.3,4.7-0.1,6.9,0.5 c1.5,0.5,3.1,1.3,4.3,2.3c0.9,0.8,1.7,1.8,2.2,3.1c0.4,0.8,0.6,1.7,0.8,2.5c0.1,0.7,0.1,1.5,0.1,2.2c0,0.9-0.2,1.8-0.6,2.7 c-0.4,1-1.1,1.9-1.8,2.6c-0.9,0.7-1.8,1.2-2.9,1.4c0.8-0.3,1.5-0.7,2.2-1.2c0.7-0.7,1.4-1.6,1.8-2.6c0.4-0.9,0.6-1.8,0.6-2.7 c0-0.7,0-1.5-0.1-2.2c-0.1-0.2-0.1-0.4-0.2-0.7c0,0.1,0.1,0.2,0.1,0.4c0.1,0.7,0.1,1.4,0.1,2.1c0,0.8-0.2,1.7-0.6,2.4 c-0.4,0.9-0.9,1.6-1.6,2.3c-0.8,0.7-1.9,1.2-3,1.3c-1,0.2-1.9,0.3-3,0.3c-0.9,0.1-1.8-0.2-2.6-0.7c-1.1-0.9-1.8-2.1-2-3.6 c-0.2-0.8-0.1-1.7,0.3-2.5c0.1-0.1,0.2-0.3,0.3-0.4c0,0.5,0.1,1,0.3,1.5c0.3,1.2,1.4,2.1,2.6,2.3c0.4,0.1,0.7,0.1,1.1,0.1 c1.1,0,2.2-0.3,3.2-1c1.2-1,1.7-2.7,1.2-4.3c-0.4-1.6-1.5-3.1-3.1-3.9c-0.9-0.4-1.9-0.7-3.1-0.6c-0.7,0-1.4,0.1-2.1,0.2 c-1,0.2-2,0.5-2.9,1c-1,0.5-1.8,1.3-2.5,2.2c-0.7,1-1.1,2.1-1.4,3.3c-0.3,1.4-0.3,3,0.1,4.4c0.5,3,2.6,5.5,5.5,6.5 c1.7,0.6,3.6,0.9,5.4,0.9c1.3,0,2.5-0.1,3.9-0.4c3.3-0.5,6.2-2.1,8.4-4.6c2.2-2.4,2.9-6,1.8-10.6c-0.6-3.1-2.2-5.7-4.7-7.6 c-2.3-1.8-5.1-3.1-8-3.5c-1.2-0.2-2.3-0.3-3.6-0.3c-1.9,0-3.9,0.2-5.8,0.7c-3.1,0.7-6,2-8.6,4c-2.4,1.8-4.5,4.4-5.6,7.2 c-1.3,3.3-1.4,6.9-0.4,10.3c0.9,3.8,2.9,7.1,5.7,9.8c2.9,2.4,6.2,4.3,9.8,5.2c3.5,0.9,7.1,1.4,10.7,1.3c0.6,0,1.1,0,1.7,0 c3.4-0.2,6.6-0.6,10-1.1c0.8-0.1,1.7-0.3,2.6-0.4c-0.6,2.6-1.4,5.4-2.3,7.9c-0.4,1.2-0.8,2.4-1.2,3.7c-0.6,2.2-1.2,4.2-1.7,5.8 c-0.3,1-0.6,2-0.8,2.7c-0.5,2.1-1.3,4.2-2.2,6.1c-0.6,1.2-1.5,2.2-2.5,3.2c-1,0.8-2.2,1.4-3.5,1.9c-1.8,0.8-3.6,1.7-5.3,2.7 l-0.6,0.4l0.3,0.7c0.8,1.8,1.2,2.7,2,4.7l0.4,0.9l0.8-0.6c2.6-1.7,5.5-3.2,8.6-4c3.9-1.2,7.7-2.2,11.6-3.1c4-0.8,7.7-1.4,11.3-1.8 c2-0.2,4.1-0.4,6.2-0.4c0.6,0,1.2,0,1.7,0.1l1,0.1l-0.1-1v-0.3l-0.2-2.6v-0.6l-0.6-0.1c-1.5-0.2-3.2-0.6-4.6-1.2 c-1-0.4-1.9-1.1-2.5-1.9c-0.7-1.2-1.1-2.5-1.3-4c-0.3-2.3-0.4-4.6-0.2-6.9c0.2-4.8,0.7-10.1,1.4-15.8c5.3-1,10.6-2,15.7-3 c3.6-0.6,6.6-1.1,9.2-1.6l2.5-0.4c0.7,1.9,1.4,3.9,2,6c0.8,2.2,1.5,4.6,2.3,6.9c2.2,6.7,5.3,13.2,9.2,19.1c2.5,3.9,5.9,7.3,9.7,10 c2.9,1.9,6.1,3.2,9.5,3.6c0.9,0.1,1.8,0.1,2.7,0.1c1.8,0,3.6-0.1,5.3-0.5c2.7-0.4,5.3-1.8,7.2-3.9c1.7-1.9,3.1-4.2,3.9-6.7 c0.8-2.3,1.2-4.9,1.2-7.3c0.1-2-0.2-4.1-0.7-6.1L378.5,652.8z M323.9,623.6c-3.3,0.5-7,1.2-11.4,2.1c-4.4,0.9-9,2-13.8,3.4 c0.7-4.9,1.4-9.8,2.2-14.9c0.7-3.8,1.3-7.5,1.9-11.1c0.2-1.2,0.4-2.4,0.6-3.6c0,0,0,0,0,0c0,0,0,0,0,0c-0.2,1.2-0.4,2.4-0.6,3.6 c-0.6,3.6-1.2,7.3-1.9,11.1c-0.7,5-1.5,10-2.1,14.8c4.9-1.3,9.5-2.4,13.8-3.4C317,624.8,320.7,624.1,323.9,623.6 C323.9,623.6,323.9,623.6,323.9,623.6z M306.9,586.4c0.5-2.5,1-5,1.3-7.2c1.4,5.1,3.3,10.9,5.5,17.5c2.6,7.5,5.6,16,9.3,26.2 c-3.2,0.5-6.7,1.2-10.5,2c-4.1,0.9-8.3,1.8-12.7,3.1c0.6-4.5,1.3-9.1,2-13.5c0.8-5,1.6-9.9,2.5-14.7 C305.2,595.1,306,590.6,306.9,586.4z M306.6,583.2c0.4-2,0.7-3.8,1-5.5C307.3,579.4,307,581.3,306.6,583.2z M308.1,575.3 c1.1,4.6,2.6,9.7,4.4,15.4C310.6,585,309.1,579.9,308.1,575.3z M372.9,664.3c0.8-1.3,1.4-2.7,1.8-4.2c0.5-2,0.7-4.2,0.6-6.2 l2.3-0.6c0,0,0,0,0,0l-2.2,0.6c0.1,2-0.1,4.2-0.6,6.2c-0.4,1.4-1,2.9-1.8,4.2c-0.8,1.1-1.8,2.1-3.1,3c-0.9,0.5-1.9,0.8-2.9,0.9 c1-0.1,2-0.5,2.8-0.9C371.1,666.5,372.1,665.5,372.9,664.3z M366.9,668.3c-0.2,0-0.3,0-0.5,0C366.5,668.3,366.7,668.3,366.9,668.3z M323.8,556.4C323.8,556.4,323.8,556.4,323.8,556.4c-2.1,0.6-4.2,1.1-6.3,1.5C319.7,557.5,321.8,557,323.8,556.4z M288.5,620.6 c0.9-4.1,1.8-8.1,2.6-12.1c0.8-4,1.4-7.8,1.9-11.6c0.5-3.4,0.7-6.8,0.8-10.3c0.1-7.3-1.5-12.9-4.7-16.8c-2.6-3.3-6.6-5.1-10.8-5 c-0.6,0-1.3,0-1.9,0.1c0.1-1.5,0.1-2.2,0.1-3.8h0.1c0.2,0,0.4,0,0.6,0c0,1.4,0,2.1-0.1,3.6c4.8-0.7,9.7,1.1,12.7,4.9 c3.2,3.9,4.8,9.5,4.7,16.8c-0.1,3.5-0.3,6.9-0.8,10.3c-0.5,3.8-1.1,7.6-1.9,11.6c-0.8,4-1.7,8-2.6,12.1c-1,4.1-1.5,10.5-3.1,11.9 c-0.5,0.5-1.6,0.9-2.8,1.2c0.9-0.3,1.7-0.6,2.1-1C287,631.1,287.5,624.6,288.5,620.6z M264.6,621.5c-0.3,0-0.7,0-1-0.1 c-0.9-0.1-1.7-0.8-2-1.7c-0.3-0.9-0.3-1.9,0-2.8c0.2-0.1,0.4-0.2,0.7-0.3c-0.4,0.9-0.4,2-0.1,3c0.3,0.9,1.1,1.6,2,1.7 c0.6,0.1,1.2,0.1,1.7,0C265.5,621.4,265,621.5,264.6,621.5z M265,629.8c-1.7,0-3.5-0.3-5.1-0.8c-2.6-0.9-4.5-3.2-5-5.9 c-0.3-1.3-0.4-2.6-0.1-4c0.3-1.1,0.7-2,1.3-3c0.6-0.8,1.3-1.5,2.2-1.9c0.8-0.4,1.7-0.7,2.6-0.9c0.2,0,0.3,0,0.5-0.1 c-0.9,0.2-1.8,0.5-2.5,0.9c-0.9,0.4-1.6,1.1-2.2,1.9c-0.6,0.9-1,1.8-1.3,3c-0.3,1.3-0.2,2.6,0.1,4c0.5,2.7,2.3,5,5,5.9 c1.6,0.5,3.4,0.8,5.2,0.9C265.5,629.8,265.2,629.8,265,629.8z M258,640c-3.5-0.9-6.7-2.6-9.5-5c-2.7-2.5-4.7-5.8-5.5-9.4 c-1-3.2-0.8-6.6,0.4-9.8c1.1-2.7,3-5.1,5.4-6.9c2.4-1.8,5.3-3.1,8.2-3.8c1.8-0.4,3.8-0.7,5.6-0.7c0.2,0,0.4,0,0.6,0 c-1.9,0-3.7,0.2-5.5,0.7c-3,0.7-5.8,1.9-8.2,3.8c-2.4,1.8-4.3,4.2-5.4,6.9c-1.2,3.2-1.4,6.6-0.4,9.8c0.8,3.6,2.7,6.8,5.5,9.4 c2.7,2.3,6,4.1,9.5,5c2.4,0.6,4.9,1.1,7.4,1.3C263.3,641.1,260.6,640.7,258,640z M265.8,680.1c-0.8-1.8-1.2-2.7-2-4.7 c1.6-1,3.4-1.9,5.1-2.6c1.3-0.5,2.5-1.2,3.7-2c1.1-0.9,2-2,2.7-3.4c1-2,1.8-4.1,2.3-6.3c0.6-2,1.5-4.9,2.5-8.7 c1.5-4.2,2.7-8.5,3.8-12.8c0.1,0,0.2,0,0.3,0c-1,4.2-2.2,8.6-3.7,12.7c-1,3.8-1.9,6.6-2.5,8.7c-0.5,2.2-1.3,4.3-2.3,6.3 c-0.7,1.3-1.6,2.4-2.7,3.4c-1.1,0.8-2.3,1.5-3.7,2c-1.7,0.7-3.5,1.6-5.1,2.6c0.8,1.9,1.2,2.8,2,4.6 C266,680,265.9,680.1,265.8,680.1z M304,670.8c-2.1,0-4.2,0.2-6.3,0.4c-3.6,0.4-7.4,1-11.4,1.8c-4,0.8-7.8,1.8-11.7,3 c0.1,0,0.2-0.1,0.3-0.1c3.9-1.2,7.7-2.2,11.7-3.1c4-0.8,7.8-1.4,11.4-1.8c2.6-0.3,5.2-0.4,7.8-0.3l0,0.1 C305.3,670.9,304.7,670.8,304,670.8z M361.5,676.9c-0.9,0-1.7,0-2.7-0.1c-3.3-0.3-6.4-1.5-9.1-3.4c-3.8-2.6-6.9-6-9.5-9.8 c-3.9-5.9-6.9-12.2-9.1-18.9c-0.8-2.3-1.5-4.7-2.3-6.9c-0.8-2.2-1.5-4.5-2.3-6.6c-3.1,0.5-7.2,1.2-12.4,2.1 c-5.1,0.9-10.6,1.9-16.1,3c0,0,0,0,0-0.1c5.6-1.1,11.1-2.1,16.3-3.1c5.2-0.9,9.4-1.6,12.4-2.1c0.8,2.1,1.5,4.4,2.3,6.6 c0.8,2.2,1.5,4.6,2.3,6.9c2.1,6.7,5.2,13,9.1,18.9c2.5,3.8,5.7,7.1,9.5,9.8c2.6,1.8,5.8,3.1,9.1,3.4c1.7,0.2,3.5,0.2,5.2,0.1 C363.3,676.8,362.4,676.9,361.5,676.9z"></path> <path style="fill:#FFCE00;" d="M442.8,547.1c-6.6,1-13.1,1.6-19.4,2.1c-1.7,0.1-3.4,0.3-5,0.4c-7.9,0.7-15.8,1.1-23.2,1.4 c-7.6,0.2-15.1,0.4-22,0.4c-6.9,0-13.8,0.1-20.6,0.3h-1.1l0.3,1c2.2,6.8,3.6,13.9,4.1,21.2c0.4,6.7,0.6,13.4,0.7,20.1v1.1l1.1-0.3 c1.7-0.5,2.6-0.8,4.5-1.3l0.6-0.2v-0.6c-0.2-4.7-0.2-9.4,0.1-14c0.2-3.6,1.2-7,3.1-10.1c1.9-3.1,4.7-5.4,7.9-6.9 c4.7-2.1,9.7-3.5,14.8-4.1c0.3,2.1,0.8,4.9,1.2,8.1c0.6,3.8,1.1,7.9,1.7,12.4c0.6,4.5,1.2,9.3,1.7,14.5c0.5,4.9,1.1,10,1.6,14.9 c0.5,4.8,0.9,9.5,1.2,13.7c0.3,4.6,0.5,8.2,0.6,11.2c0.1,4.2-0.1,8.2-0.8,12.4c-0.5,2.9-1.4,5.6-2.7,8.1c-1,1.9-2.4,3.8-4.1,5.2 c-1.5,1.3-3.2,2.5-4.9,3.6l-0.6,0.4l0.2,0.6c0.6,1.5,0.9,2.3,1.5,4l0.3,0.9l0.8-0.5c2.5-1.3,5.3-2.3,8-3c3.9-0.9,7.8-1.6,11.8-2.1 c3-0.3,5.9-0.5,8.9-0.5c1.3,0,2.7,0,4.1,0.1c3.9,0.1,7.7,0.8,11.5,1.9l0.8,0.2l0.3-0.8l1.2-3.4l0.3-0.8l-0.8-0.2 c-1.8-0.5-3.7-1.1-5.6-1.8c-1.9-0.7-3.8-1.8-5.3-3.3c-1.9-1.7-3.5-3.9-4.8-6.1c-1.7-3.3-3-6.6-3.8-10.2c-1.3-5.8-2.4-11.7-3.2-17.6 c-0.9-6.9-1.6-14.3-2.1-21.6c-0.5-7.5-0.8-15.1-0.7-22.4c0-6.4,0.4-12.9,1.2-19.2c5.7-0.2,11.3,0.8,16.7,2.7c3.4,1.3,6.1,3.8,7.7,7 c1.5,3.5,2.1,7.2,1.8,11c-0.1,2.5-0.3,5.2-0.4,8.1c-0.1,1.9-0.2,4.1-0.3,6.4v0.9h0.9l3.3-0.1h0.7l0.1-0.7 c1.7-16.5,3.7-32.1,5.1-43.7l-0.1-1.2L442.8,547.1z M356.5,573.8c-0.5-7.2-1.9-14.5-4.2-21.3c6.6-0.1,13.4-0.2,20.6-0.3 c7.1,0,14.5-0.2,22-0.4c7.6-0.2,15.4-0.7,23.3-1.4c7.7-0.8,15.4-1.2,23.4-2.4c-7.9,1.3-15.8,1.7-23.3,2.4 c-7.9,0.7-15.7,1.2-23.3,1.4c-7.5,0.2-14.9,0.4-22,0.4c-7.1,0.1-13.9,0.2-20.6,0.3c2.2,6.8,3.7,14,4.2,21.3 c0.4,5.4,0.6,10.8,0.6,16.3C357.1,584.7,356.9,579.3,356.5,573.8z M373.2,560.9c-3.4,1.5-6.3,4.1-8.2,7.2c-1.8,3.2-3,6.7-3.2,10.4 c-0.3,4.7-0.4,9.5-0.1,14.2c-1.8,0.5-2.6,0.8-4.5,1.3c0,0,0,0,0,0c1.8-0.5,2.6-0.8,4.4-1.3c-0.3-4.7-0.2-9.5,0.1-14.2 c0.2-3.7,1.3-7.2,3.2-10.4c1.9-3.2,4.9-5.7,8.2-7.2c5-2.2,10.3-3.7,15.8-4.3c0,0,0,0,0,0C383.4,557.3,378.2,558.7,373.2,560.9z M406.1,661.2c-4,0.4-7.9,1.1-11.9,2.1c-2.9,0.6-5.7,1.6-8.3,3.1c0,0,0,0,0,0c2.6-1.4,5.4-2.4,8.3-3c4-1,7.9-1.7,11.9-2.1 c2.3-0.3,4.6-0.4,6.8-0.5C410.6,660.8,408.3,661,406.1,661.2z M407.5,555.4c-0.9,6.6-1.4,13.4-1.4,20.2c0,7.4,0.2,14.9,0.7,22.4 c0.5,7.5,1.2,14.8,2.1,21.7c0.7,5.9,1.8,11.8,3.2,17.7c0.8,3.7,2.1,7.1,3.9,10.4c1.3,2.3,3,4.5,4.9,6.3c1.6,1.5,3.6,2.6,5.6,3.5 c1.9,0.7,3.9,1.3,5.7,1.8c-0.5,1.3-0.7,2-1.2,3.4c0,0-0.1,0-0.1,0c0.5-1.3,0.7-2,1.2-3.3c-1.8-0.5-3.8-1.1-5.7-1.8 c-2-0.8-4-1.9-5.6-3.5c-1.9-1.8-3.6-4-4.9-6.3c-1.7-3.3-3.1-6.7-3.9-10.4c-1.3-5.9-2.4-11.8-3.2-17.7c-0.9-6.9-1.6-14.2-2.1-21.7 c-0.5-7.5-0.7-15-0.7-22.4c0-6.7,0.5-13.5,1.4-20.2c0.8,0,1.5,0,2.3,0C409,555.4,408.3,555.4,407.5,555.4z M437.9,591.6l-3.3,0.1 c0,0,0,0,0,0l3.2-0.1c1.6-15,3.4-29.2,5.1-43.7c0,0,0.1,0,0.1,0C441.2,562.3,439.5,576.6,437.9,591.6z"></path> <path style="fill:#FFCE00;" d="M731.9,642.9l-0.8-0.2c-1.8-0.5-2.7-0.8-4.6-1.3l-0.8-0.2l-0.2,0.9c-0.5,2.1-1.3,4.2-2.4,6.1 c-1.3,2.5-3.3,4.7-5.5,6.4c-2.9,2.1-6.1,3.6-9.7,4.4c-2,0.5-4.2,0.7-6.3,0.7c-2.7,0-5.5-0.3-8.2-0.8c-3.5-0.5-6.9-1.3-10.3-2.3 c-2.1-0.6-4.3-1.5-6.3-2.7c-1.2-0.7-2.3-1.6-3.3-2.9c-0.6-0.9-1.1-1.8-1.4-2.7c0.5-6.1,1-12,1.5-17.4c0.5-5.5,1.1-10.3,1.6-15 c3.7-0.5,7.4-0.4,11.1,0.2c0.3,0.1,0.7,0.2,1,0.2c2.5,0.6,4.8,1.9,6.4,3.9c1.4,1.9,2.3,4.3,2.6,6.6c0.4,2.6,0.6,5.7,0.8,8.9v1 l0.9-0.2c0.1,0,0.3-0.1,0.4-0.1c0,0.1,0,0.1,0,0.2l3.4-0.7c0-0.1,0-0.1,0-0.2l0.3,0v-0.7c-0.2-3.7,0-7.4,0.5-11.1 c0.5-4,1.2-7.8,2.1-11.6c0.9-3.8,1.8-7.3,3-10.5c1-3.3,2-5.9,2.9-7.9l0.3-0.8l-0.9-0.3c-1.5-0.5-2.3-0.7-3.9-1.2l-0.8-0.2l-0.2,0.8 c-2.2,7.2-5.8,12-10.5,14.2c-2.2,1-4.7,1.4-7,1.4c-3.7-0.1-7.3-0.8-10.8-2c1.4-8.9,3-16.7,4.7-23.3c1.6-6.7,3.4-12.6,5.3-17.8 c6.5-0.2,12.9,0.3,19.3,1.3c1.6,0.3,3.1,0.6,4.7,0.9c5,1,9.7,3.3,13.4,6.5c2.9,2.7,4.6,6.3,5,10.2c0.4,4.7,0.1,9.4-1,13.9l-0.2,1h1 c0.2,0,0.4,0,0.5,0c0,0,0,0.1,0,0.1c2,0.1,3.2,0.1,5.2,0.2c0,0,0-0.1,0-0.1h0c0,0,0,0,0,0c0-0.7-0.1-1.4-0.1-2c0,0.7,0,1.4,0.1,2 h0.5l-0.1-1c-0.2-2.6-0.1-5.3,0.3-7.8c0.5-3.4,1.1-6.8,1.9-10.4c0.8-3.7,1.6-7.2,2.3-10.5c0.8-3.5,1.4-6.2,1.9-8.4l0.2-1h-1h-1.2 c-7.1,0-14.3-0.3-21.1-0.8c-7.5-0.6-14-1.3-19.9-2c-6.2-0.8-11.3-1.5-15.5-2.2c-4.8-0.8-7.6-1.3-9.4-1.6c-6-1.3-12.2-2-18.4-2.2 c-1.4,0-2.9,0.1-4.2,0.2c-0.5,0-1.1,0.1-1.7,0.2c-1,0.1-2.2,0.2-2.6,0.2c0,0-4.4,0.3-6.5,0.3c-1.9,0-4-0.1-6.3-0.3 c-2-0.2-4-0.3-5.9-0.5c-2.5-0.2-5.3-0.5-8.3-0.7c-3.8-0.2-7.5-0.7-11.3-1.5c-1.4-0.3-2.7-0.6-3.9-0.8c-1.6-0.3-3.2-0.6-4.7-1.1 l-0.4,0.7l-0.2,0.9l-0.1,0.3l-0.5,2.4l-0.1,0.6l0.6,0.3c2,1,3.9,2.4,5.3,4.2c0.5,0.6,1,1.1,1.5,1.5c1,0.9,1.8,1.9,2.3,3.2 c1,2.3,1.8,4.8,2.3,7.2c0.5,2.4,0.7,5,0.6,7.5c-0.1,2.6-0.4,6.3-0.7,12.1c-0.3,5.1-0.7,10.6-1.1,16.4c-3.8,0.4-7.6,0.7-11.5,0.7 c-0.7,0-1.4,0-2.2,0c-3.4,0-6.7-0.1-10-0.2c-4.1-0.2-7.8-0.4-11.2-0.6s-6.1-0.5-8.4-0.7c0.3-2.9,0.5-5.8,0.8-8.8 c0.3-3,0.8-5.9,1.3-8.9l0.1-0.7c0.9-5.8,2.2-11.5,4.1-17.1c1.2-3,2.7-5.8,4.6-8.4c1.3-1.8,2.9-3.5,4.6-4.9c0.9-0.8,1.9-1.4,3.1-2 l0.5-0.2v-0.6v-1.7v-1.8l-0.9,0.1c-4.1,0.4-7.9,0.5-11.7,0.5h-1.3c-1.1,0-2.2,0-3.4,0c-7.8,0.1-15.8-0.4-23.5-1.3l-0.9-0.2 l-0.1,0.9v0.1l-0.4,2.9l-0.1,0.5l0.4,0.3c0.3,0.2,0.6,0.3,0.9,0.4c1.9,0.8,7.2,3.1,9.3,7.9c1.1,3.2,1.6,6.4,1.6,9.7 c0,10.9-0.7,21.9-2,32.7c-0.9,8.1-2.1,17.3-4,29.5c-0.5,4.1-1.3,8.1-2.3,12.1c-0.6,2.3-1.6,4.6-3,6.6c-1.1,1.4-2.4,2.6-4.1,3.5 c-1.6,0.8-3.7,1.8-5.9,3l-0.9,0.5l0.6,0.8l1.7,2.2l0.4,0.5l0.6-0.2c2.6-0.8,5.4-1.4,8.2-1.5c2.6-0.2,5.3-0.3,8-0.3 c0.9,0,1.7,0,2.6,0c3.8,0.1,7.3,0.3,10.8,0.7c2.7,0.3,5.5,0.8,8.2,1.5l0.7,0.2l0.3-0.7l1.1-2.9l0.3-0.7l-0.6-0.3 c-1.5-0.8-2.9-1.5-3.9-2.2c-1-0.7-1.9-1.5-2.7-2.5c-0.8-1.2-1.5-2.5-1.9-4c-0.6-2.1-1-4.5-1.2-6.7c-0.5-4.9-0.8-9.3-0.8-13.4 c0-4.9,0-9.8,0.2-14.7c2.7-0.2,5.7-0.3,8.9-0.3h0.9c4,0,7.7,0.2,11.7,0.5s7.7,0.7,11.6,1.2c3.3,0.4,6,0.8,9.4,1.4l-0.9,9.8 c-0.2,1.9-0.2,3.7-0.2,5.5c0,1.3-0.1,2.5-0.1,3.7c-0.1,3.5-0.5,6.8-1.2,10.2c-0.4,1.9-1.2,3.8-2.4,5.4c-0.9,1.1-2,2-3.5,2.5 c-1.6,0.6-3.3,1-5,1.4l-0.7,0.1v0.7v0.8l0.1,2.7v0.8l0.8-0.1c1.1-0.1,2.2-0.1,3.6-0.1c1.5,0,3.1,0,4.8,0.1c3.4,0.2,6.7,0.6,10,1.2 c3.5,0.6,6.9,1.4,10.4,2.4c3.2,0.9,6.3,2,9.3,3.4l0.6,0.3l0.4-0.5l1.6-2l0.6-0.8l-0.9-0.5c-1.6-0.8-3.3-1.8-4.9-2.9 c-1.4-1-2.6-2.2-3.7-3.6c-1.1-1.5-2-3.3-2.6-5.2c-0.8-2.5-1.4-5.2-1.7-7.8c-0.7-5.6-0.9-11.2-0.7-16.8c0.2-6.4,0.6-12.8,1.3-19.2 c0.7-6.5,1.5-12.6,2.4-18.3c3.2,3.5,8,5.5,14.4,6.1c1.1,0.1,2.2,0.2,3.3,0.2c2.1,0,4.3-0.2,6.4-0.8c2.4-0.6,4.8-1.7,6.8-3.3 c1.7-1.3,3.2-3,4.3-4.8c0.9-1.5,1.5-3.2,1.8-4.9c0.2-1.7,0.3-3.6,0.1-5.3c-0.1-2-0.7-4-1.7-5.7c-1.1-1.9-2.6-3.5-4.5-4.6 c-2.4-1.3-5.3-2-8-1.8c-3.8-0.2-7.5,1.1-10.3,3.7c-2.2,1.9-3.7,4.8-3.9,7.7c-0.1,2.2,0.4,4.5,1.5,6.4c1.3,2,3.4,3.4,5.8,3.8 c0.8,0.2,1.7,0.3,2.5,0.3c1.1,0,2.1-0.2,3.2-0.5c1.5-0.5,3-1.3,4.1-2.4c1-1,1.7-2.2,2-3.7c0.3-1.2,0.1-2.5-0.5-3.7 c-0.5-0.9-1.4-1.6-2.5-2c-0.5-0.1-1-0.2-1.5-0.2c-0.4,0-0.8,0.1-1.2,0.2c-0.8,0.2-1.6,0.6-2.2,1.3c-0.6,0.6-1,1.3-1.1,2.1 c-0.2,1.1,0.2,2.3,1,3.1c0.3,0.3,0.6,0.5,1,0.6c-0.5,0.2-1,0.4-1.5,0.4c-0.3,0-0.5,0.1-0.8,0.1c-0.7,0-1.3-0.1-1.9-0.4 c-0.8-0.3-1.5-0.9-2-1.6c-0.6-0.8-0.8-1.8-0.8-2.9c0-1.6,0.7-3.2,1.9-4.2c1.2-1.1,2.6-1.9,4.3-2.4c1.2-0.3,2.4-0.5,3.7-0.5 c1.9,0,3.8,0.6,5.3,1.7c2.3,1.7,3.7,4.5,3.7,7.4c0.1,1.6-0.3,3.3-0.9,4.7c-0.7,1.5-1.7,3-3.1,4.1c-1.3,1.2-3,2.1-4.7,2.7 c-1.7,0.6-3.6,0.9-5.4,0.8c-0.2,0-0.4,0-0.7,0c-2.1,0-4.4-0.4-6.4-1.1c-1.9-0.6-3.7-1.6-5.2-3s-2.6-3-3.4-4.9 c-0.5-1.3-0.8-2.6-0.8-4.1c0.2-1,0.4-2,0.5-2.9c0.5-3.1,1.5-6.1,3.2-8.8c0.5-0.6,1-1.1,1.5-1.6c3.2-2.7,6.8-4.7,10.9-5.7 c3.3-0.9,6.6-1.3,10-1.3c1,0,2,0,3.2,0.1c3.8,0.2,7.4,1,11,2.2c-0.4,3.5-0.9,7.9-1.4,13.4c-0.6,5.8-1.3,12.1-2,18.7 c-0.7,6.7-1.5,13.5-2.4,20.5c-1,8.1-1.7,14-2.4,19.2c-0.6,5.3-1.6,10.4-3.1,15.5c-0.8,3.1-2.1,6-3.9,8.7c-1.1,1.7-2.7,3.2-4.7,4.2 c-1.8,0.9-3.8,1.5-5.7,2l-0.7,0.2l0.1,0.7l0.5,3l0.1,0.7l0.8-0.1c0,0,0,0,0,0c1.7-0.1,3.5-0.3,5.4-0.3c1.5,0,3-0.1,4.6-0.1 c0.7,0,1.5,0,2.3,0c4.7,0.1,9.7,0.3,14.7,0.7c5.2,0.4,10.4,0.9,15.6,1.5c5.2,0.6,10.2,1.2,14.9,1.9c4.5,0.6,8.8,1.3,12.7,2 c3.5,0.6,6.6,1.2,9.2,1.7l0.7,0.1l0.2-0.7c3.5-12,5.3-18,8.9-30L731.9,642.9z M701.8,635.5c0-0.9-0.1-1.8-0.1-2.7 C701.8,633.7,701.8,634.6,701.8,635.5L701.8,635.5z M688.1,609.1c2.5,0,5.1-0.5,7.4-1.5c4.9-2.2,8.6-7.1,10.9-14.7 c1.5,0.5,2.3,0.7,3.9,1.2c0,0.1,0,0.1-0.1,0.2c-1.5-0.5-2.3-0.7-3.8-1.2c-2.3,7.5-6,12.4-10.9,14.7c-4.9,2.2-11.2,1.9-19.1-0.8 c0,0,0-0.1,0-0.1C680.2,608.3,684.1,609,688.1,609.1z M729.4,598.3c0.8-3.5,1.2-7,1.2-10.6C730.7,591.2,730.3,594.8,729.4,598.3 C729.5,598.3,729.4,598.3,729.4,598.3z M608.9,550c3.8,0.8,7.5,1.3,11.4,1.5c5.3,0.4,9.5,0.8,14.2,1.2c2.2,0.2,4.4,0.3,6.3,0.3 c2.1,0,6.4-0.3,6.5-0.3c0.7,0,3.2-0.3,4.5-0.4c1.3-0.1,2.6-0.2,4.1-0.2c6.1,0.1,12.2,0.8,18.2,2.1c1.8,0.4,5,0.9,9.4,1.6 s9.6,1.4,15.5,2.2c5.9,0.8,12.6,1.4,20,2c6.9,0.6,13.9,0.8,21.2,0.8h1.2c0,0,0,0.1,0,0.1c-7.6,0-15.1-0.3-22.9-0.6 c-7.3-0.6-14-1.2-20-2c-5.9-0.8-11.1-1.5-15.5-2.2s-7.5-1.2-9.4-1.6c-7.3-1.7-14.8-2.4-22.3-2c-1.4,0.1-4.2,0.5-4.6,0.4 c-0.1,0-8,0.5-12.7,0.1c-4.7-0.4-8.9-0.8-14.2-1.2c-3.9-0.2-7.6-0.7-11.4-1.5c-3.5-0.8-6.6-1.3-8.4-1.8c0-0.1,0.1-0.3,0.1-0.4 C601.8,548.7,605.1,549.2,608.9,550z M575.9,558.8c-1.9,2.6-3.5,5.6-4.7,8.7c-1.8,5.6-3.2,11.4-4.1,17.3c-0.5,3.1-1.1,6.3-1.4,9.6 s-0.6,6.4-0.9,9.6c2.6,0.2,5.7,0.5,9.3,0.8c3.6,0.3,7.2,0.5,11.3,0.6c3.3,0.1,6.6,0.2,10.1,0.2c0.7,0,1.4,0,2.2,0c4,0,8-0.3,12-0.8 c0,0,0,0.1,0,0.1c-4.1,0.5-8.1,0.8-12.2,0.8c-4.2,0-8.2,0-12.2-0.2c-4.1-0.1-7.7-0.3-11.3-0.6s-6.6-0.6-9.3-0.8 c0.3-3.2,0.6-6.3,0.9-9.6c0.3-3.3,0.9-6.5,1.4-9.6c0.9-5.9,2.2-11.7,4.1-17.3c1.2-3.1,2.7-6,4.7-8.7c1-1.5,2.1-2.8,3.4-4 C578,556.1,576.9,557.4,575.9,558.8z M567.5,549.5c1.1,0,2.2,0,3.5,0c4.1-0.1,8.4-0.1,13-0.6c0,1,0,1.5,0,2.6c0,0-0.1,0-0.1,0.1 c0-1.1,0-1.6,0-2.6c-4.6,0.5-9,0.5-13,0.6c-9,0.2-18.1-0.2-27.1-1.3c0,0,0-0.1,0-0.1C551.6,549.1,559.5,549.6,567.5,549.5z M539.6,655.1c1.3-0.7,2.4-1.5,3.4-2.5c-1,1-2.1,1.9-3.5,2.6c-1.6,0.8-3.6,1.8-5.8,2.9c0,0,0,0,0,0 C535.9,656.9,537.9,655.9,539.6,655.1z M566.1,648.6c0.4,1.5,1.1,3,2,4.3c0.8,1.1,1.8,2,3,2.7s2.4,1.5,4,2.2 c-0.4,1.1-0.7,1.7-1.1,2.9c0,0,0,0-0.1,0c0.4-1,0.7-1.7,1.1-2.7c-1.5-0.7-2.9-1.5-4-2.2c-1.1-0.7-2.1-1.6-3-2.7 c-0.9-1.3-1.6-2.7-2-4.3c-0.6-2.3-1-4.6-1.2-6.9c-0.4-4.1-0.8-8.6-0.8-13.4c0-4.8,0-10,0.2-15.4c0,0,0.1,0,0.1,0 c-0.2,5.4-0.2,10.5-0.2,15.3c0,4.9,0.4,9.4,0.8,13.4C565.1,644,565.5,646.2,566.1,648.6z M599.4,654.2c1.1-0.5,2.1-1.1,3-1.9 c-0.8,0.8-1.9,1.5-3.1,2c-1.6,0.6-3.3,1.1-5,1.4c0,0,0-0.1,0-0.1C596.1,655.3,597.8,654.8,599.4,654.2z M621.8,608 c-0.7,6.4-1.1,12.9-1.3,19.2c-0.2,5.7,0,11.3,0.7,16.9c0.3,2.7,0.9,5.4,1.7,7.9c0.6,1.9,1.6,3.8,2.7,5.4c1.1,1.4,2.4,2.7,3.9,3.8 c1.6,1.1,3.3,2,4.9,3c-0.7,0.8-1,1.2-1.6,2c0,0,0,0,0,0c0.6-0.7,0.9-1.2,1.5-1.9c-1.6-0.9-3.3-1.8-4.9-3c-1.4-1-2.7-2.3-3.9-3.8 c-1.1-1.6-2.1-3.5-2.7-5.4c-0.8-2.5-1.4-5.2-1.7-7.9c-0.7-5.6-0.9-11.2-0.7-16.9c0.2-6.4,0.6-12.7,1.3-19.2 c0.7-6.5,1.5-12.6,2.4-18.4c0.1-0.6,0.2-1.2,0.3-1.8c0,0,0,0.1,0.1,0.1c-0.1,0.5-0.2,1.1-0.3,1.6 C623.4,595.4,622.5,601.5,621.8,608z M638.1,569.1c2.6-2.3,6.1-3.6,9.7-3.4c2.6-0.1,5.3,0.5,7.6,1.7c1.7,1,3.3,2.5,4.3,4.3 c0.9,1.6,1.4,3.5,1.6,5.4c0.1,1.7,0.1,3.5-0.1,5.1c-0.3,1.6-0.8,3.3-1.7,4.7c-0.5,0.9-1.2,1.8-1.9,2.6c0.7-0.8,1.3-1.6,1.8-2.5 c0.9-1.4,1.4-3.1,1.7-4.7c0.2-1.6,0.2-3.4,0.1-5.1c-0.2-1.9-0.7-3.8-1.6-5.4c-1-1.7-2.5-3.3-4.3-4.3c-2.3-1.3-5-1.8-7.6-1.7 c-3.6-0.2-7,1-9.7,3.4c-0.2,0.2-0.5,0.4-0.7,0.6C637.6,569.5,637.8,569.3,638.1,569.1z M647.3,575.1c0.3-0.1,0.7-0.1,1-0.1 c0.4,0,0.8,0.1,1.2,0.2c0.8,0.3,1.5,0.8,2,1.6c0.5,0.9,0.7,2,0.4,3.1c-0.3,1.2-0.9,2.3-1.8,3.3c0,0,0,0-0.1,0.1 c0.9-0.9,1.5-2,1.8-3.2c0.3-1,0.1-2.1-0.4-3.1c-0.5-0.8-1.2-1.3-2-1.6c-0.8-0.2-1.6-0.2-2.3,0c-0.7,0.1-1.2,0.4-1.7,0.9 c0,0,0-0.1,0.1-0.1C646,575.6,646.6,575.2,647.3,575.1z M638.9,580.5c0.6,0.9,1.4,1.5,2.4,1.9c0.7,0.3,1.5,0.4,2.2,0.4 c0.3,0,0.6,0,0.9-0.1c1.1-0.2,2.2-0.6,3.1-1.4c0,0,0,0,0,0c-0.9,0.9-2.1,1.4-3.4,1.6c-1,0.2-2.1,0.1-3.2-0.3s-1.8-1-2.4-1.9 c-0.7-1-1-2.1-0.9-3.4c0.1-1.8,0.9-3.6,2.2-4.8c0,0,0,0,0,0c-1.2,1.2-2,2.9-2.1,4.6C637.9,578.3,638.2,579.4,638.9,580.5z M626.9,575.4c-0.2,0.9-0.4,1.9-0.5,3c0,1.5,0.3,3.1,0.9,4.5c0.8,1.9,2,3.8,3.6,5.2c1.6,1.4,3.5,2.4,5.5,3.2 c2.1,0.7,4.4,1.1,6.7,1.1c0.2,0,0.5,0,0.7,0c1.9,0,3.9-0.3,5.7-0.9s3.5-1.6,4.9-3c1.3-1.2,2.3-2.5,3.1-4.1c0,0,0,0,0,0 c-0.7,1.6-1.8,3.1-3.2,4.3c-1.4,1.3-3.1,2.3-4.9,3c-2,0.7-4.3,1-6.4,0.9c-2.3,0-4.6-0.4-6.7-1.1c-2-0.7-3.9-1.7-5.5-3.2 c-1.5-1.4-2.7-3.3-3.6-5.2c-0.6-1.4-0.9-3-0.9-4.5c0.1-1,0.3-2,0.5-3c0.4-2.4,1.1-4.8,2.2-7.1C628,570.7,627.3,573,626.9,575.4z M647.8,661.5c2-1,3.7-2.5,5-4.5c1.7-2.7,3.2-5.7,4-8.9c1.4-5.1,2.4-10.4,3.1-15.7c0.7-5.9,1.5-12.3,2.4-19.2 c0.8-6.9,1.6-13.7,2.4-20.5c0.7-6.7,1.4-12.9,2-18.7c0.6-5.7,1.1-10.3,1.5-14c0,0,0,0,0,0c-0.4,3.7-0.9,8.3-1.5,14.2 c-0.6,5.8-1.3,12-2,18.7c-0.8,6.7-1.5,13.5-2.4,20.5c-0.9,6.9-1.7,13.3-2.4,19.2c-0.6,5.3-1.6,10.6-3.1,15.7 c-0.8,3.2-2.2,6.1-4,8.9c-1.3,1.9-3,3.5-5,4.5c-1.8,0.9-3.7,1.6-5.8,2.1c0-0.1,0-0.1,0-0.2C644,663.1,646,662.4,647.8,661.5z M731.1,644.3c-1.8-0.5-2.7-0.8-4.5-1.3c-0.5,2.2-1.3,4.3-2.4,6.3c-1.4,2.6-3.4,4.9-5.8,6.7c-3,2.2-6.3,3.8-9.9,4.6 c-4.9,1-10,0.9-14.9-0.1c-3.6-0.5-7-1.3-10.4-2.3c-2.2-0.6-4.4-1.5-6.4-2.7c-1.3-0.7-2.5-1.8-3.5-3.1c-0.7-1-1.2-2-1.6-3.2 c0-0.1,0-0.1,0-0.2c0.4,1.1,0.9,2.1,1.6,3.1c0.9,1.2,2.1,2.3,3.5,3.1c2,1.2,4.2,2.1,6.4,2.7c3.4,1,6.8,1.8,10.4,2.3 c2.7,0.5,5.6,0.8,8.3,0.8c2.1,0,4.4-0.2,6.5-0.7c3.6-0.8,6.9-2.3,9.9-4.6c2.4-1.8,4.4-4.1,5.8-6.7c1.1-2,1.9-4.1,2.4-6.3 c1.8,0.5,2.7,0.8,4.6,1.3C731.2,644.2,731.1,644.2,731.1,644.3z"></path> <path style="fill:#FFCE00;" d="M829.7,580.9c-2.6-3.2-6-5.7-9.7-7.3c-3.9-1.8-8-3.2-12.2-4.2c-4.2-1-8.4-1.6-12.8-2 c-4.8-0.4-8.4-0.6-11.5-0.7c-5.6-0.2-9.8-0.5-13.2-1c-4-0.5-7.3-1-10.1-1.5c-3.4-0.6-5.8-1.2-7.7-1.8c-0.8-0.2-1.5-0.5-2.1-0.8 c-1.3-0.5-2.7-1-4.2-1.4l-0.5-0.2l-0.1,0.9l-0.5,3.9l-0.1,0.8l0.8,0.1c1.6,0.3,3.3,0.7,4.8,1.3c1.7,0.6,3.3,1.4,4.7,2.5 c1.2,1.1,2.2,2.4,2.9,4c0.7,1.7,1,3.7,0.9,5.5c-0.1,2.5-0.5,5.9-1.1,11.2c-0.6,4.5-1.2,9.4-2,14.5c-0.8,5.1-1.6,10.4-2.4,15.8 c-0.8,5.3-1.7,10.4-2.5,15.3c-0.8,4.8-1.6,9.2-2.3,13l-0.2,1.3c-0.6,3.2-1,5.7-1.4,7.5c-0.3,2.3-1,4.7-1.9,6.9 c-0.9,2-2.2,3.9-4,5.4c-2.4,1.2-5.2,1.9-7.9,1.8c-0.2,0-0.4,0-0.6,0l-0.9-0.1l0.1,5.3c0,0,1.7-0.2,3.2-0.2 c6.5,0.4,12.9,1.2,19.2,2.5c3,0.6,12.8,3.4,14.7,3.9l0.7,0.2l0.3-0.6l0.2-0.4l0.9-1.8l0.4-0.7l-0.7-0.4c-3.1-1.9-5.4-4.8-6.7-8 c-1.2-4-1.9-8-2.1-12.1c-0.2-4.2,0-8.4,0.5-12.6c0.5-4.3,1.1-8.7,1.8-12.8c0.3,0,0.7,0,1,0c1.4,0,2.7,0.1,4.2,0.4 c3,0.6,5.7,1.5,8.3,2.9c3.1,1.5,5.5,3.9,7.2,6.8c2.2,3.7,4.2,7.6,5.6,11.7c1.3,4.4,2.4,8.8,3.1,13.2v0.4c0.5,5.2,0.7,7.1-0.7,9.4 c-1.3,2.2-3.5,2.7-6.4,3.6l-0.4,0.1l-0.7,0.2l0.1,0.7l0.4,3.1l0.1,0.8l0.8-0.1c0.7-0.1,1.5-0.1,2.3-0.1c2,0,4.7,0.2,6.7,0.3 c8,1.4,15.9,3.6,23.4,6.5l0.8,0.3l0.3-0.8l1.3-3.7l0.3-0.8l-0.8-0.3c-2.1-0.7-4.3-1.7-6.2-3.1c-3.7-2.7-6-6.9-6.5-11.5 c-1.3-7.6-3.6-15.1-6.8-22.1c-2.7-5-6.5-9.4-11-12.9c1.5,0.1,3.1,0.2,4.6,0.2c1.4,0,2.9-0.1,4.4-0.2c4.4-0.4,8.7-1.6,12.5-3.7 c4.5-2.3,8.3-5.6,11.5-9.6c4.1-5.1,7.1-10.9,9.1-17.1c1.9-5.1,2.6-10.6,2-16C834,588.1,832.3,584.1,829.7,580.9z M815.1,602.6 c-1.5,6.1-4.3,11.9-8,17c-3,3.8-6.8,6.5-11.3,8.1c-3.3,1.1-6.7,1.6-10.2,1.6c-1.4,0-2.9-0.1-4.3-0.2c-5.7-0.7-11.4-1.8-17-3.5 c0.3-3,0.7-6.4,1.4-10.3c0.7-4.3,1.7-8.8,2.9-13.4c1.2-4.7,2.5-9.5,4.1-14.3c1.4-4.5,3.2-9,4.9-13c1.7-0.1,3.7-0.2,5.7-0.2 c0.7,0,1.5,0,2.3,0c3.3,0.1,6.5,0.4,9.8,1c3.3,0.6,6.3,1.5,9.4,2.9c2.7,1.2,5.3,3,7.3,5.1c2,2.2,3.4,5,4,7.9 C816.6,595.1,816.3,599,815.1,602.6z M817,595.6c0-1.5-0.1-2.9-0.3-4.4c-0.6-3.1-2.1-5.9-4.2-8.2c-2.1-2.2-4.7-4.1-7.6-5.3 c-3.1-1.3-6.2-2.3-9.5-3s-6.5-1-9.9-1c-0.8,0-1.5,0-2.3,0c-2.2,0-4.4,0.1-6.2,0.2c-1.9,4.4-3.6,9-5.2,13.7c-1.5,4.8-3,9.6-4.1,14.3 c-1.2,4.7-2.1,9.2-2.9,13.4c-0.7,4.2-1.2,7.9-1.5,11c0,0,0,0,0,0c0.3-3.2,0.8-6.8,1.5-11.1s1.6-8.8,2.9-13.4 c1.1-4.7,2.5-9.5,4.1-14.3c1.6-4.8,3.3-9.4,5.2-13.7c2.9-0.2,5.7-0.3,8.6-0.2c3.4,0,6.6,0.4,9.9,1c3.3,0.6,6.4,1.6,9.5,3 c3,1.2,5.5,3.1,7.6,5.3c2,2.3,3.6,5.2,4.2,8.2C816.9,592.6,817,594.1,817,595.6z M763.4,632.7C763.4,632.7,763.4,632.7,763.4,632.7 L763.4,632.7C763.4,632.7,763.4,632.7,763.4,632.7z M741.5,670.4c1.8-1.5,3.3-3.5,4.2-5.7c1-2.2,1.7-4.7,2-7.1c0.4-2,0.9-5,1.6-8.9 c0.7-3.9,1.4-8.1,2.3-13c0.8-4.8,1.7-9.9,2.5-15.3c0.8-5.4,1.6-10.7,2.4-15.8s1.4-10,2-14.5c0.6-4.5,1-8.2,1.1-11.3 c0.1-2-0.2-4.1-1-5.9c-0.7-1.6-1.7-3.1-3.1-4.3c-1.5-1.1-3.2-2-4.9-2.6c-1.6-0.6-3.3-1.1-5-1.3c0.3-1.5,0.3-2.2,0.5-3.9 c0,0,0.1,0,0.1,0c-0.2,1.5-0.3,2.3-0.5,3.8c1.7,0.2,3.4,0.7,5,1.3c1.7,0.6,3.4,1.5,4.9,2.6c1.3,1.2,2.3,2.6,3.1,4.3 c0.8,1.8,1.1,3.9,1,5.9c-0.1,3.1-0.5,6.8-1.1,11.3c-0.6,4.5-1.2,9.4-2,14.5c-0.8,5.1-1.6,10.4-2.4,15.8c-0.8,5.4-1.7,10.5-2.5,15.3 c-0.9,4.9-1.6,9.2-2.3,13c-0.7,3.9-1.2,6.8-1.6,8.9c-0.3,2.4-1,4.9-2,7.1c-0.9,2.2-2.3,4.2-4.2,5.7c-1.6,0.8-3.4,1.4-5.1,1.7 C738.2,671.8,739.9,671.2,741.5,670.4z M742.7,676.5c-2.4-0.3-4.7-0.5-7.1-0.7C737.5,675.9,740,676.1,742.7,676.5z M734.2,672.4 c0.3,0,0.7-0.1,1-0.1C734.9,672.3,734.6,672.3,734.2,672.4z M735.4,672.2c0.3,0,0.6-0.1,1-0.1C736,672.2,735.7,672.2,735.4,672.2z M733.1,672.4c0.4,0,0.7,0,1.1,0c-0.4,0-0.9,0-1.3,0C733,672.4,733,672.4,733.1,672.4z M732.5,672.4 C732.5,672.4,732.5,672.4,732.5,672.4C732.5,672.4,732.5,672.4,732.5,672.4L732.5,672.4z M754.3,678.3c-0.5-0.1-1-0.2-1.5-0.3 C753.4,678.1,753.9,678.2,754.3,678.3c3.1,0.6,13.1,3.4,14.8,3.9l0,0C767.4,681.7,757.3,678.9,754.3,678.3z M786.4,682.8 c3.3-0.8,5.7-1.4,7.3-4c1.5-2.6,1.3-4.8,0.7-10.4c-0.7-4.6-1.7-9.1-3.2-13.4c-1.5-4.2-3.4-8.1-5.7-11.9c-1.8-3.1-4.4-5.5-7.5-7.1 c-2.7-1.4-5.6-2.3-8.6-3c-1.3-0.2-2.6-0.4-3.8-0.4c1.3,0,2.6,0.1,3.9,0.4c3,0.6,5.8,1.5,8.6,3c3.2,1.6,5.7,4.1,7.5,7.1 c2.3,3.8,4.2,7.7,5.7,11.9c1.4,4.4,2.4,8.9,3.2,13.4c0.6,5.6,0.8,7.7-0.7,10.4c-1.6,2.5-4.1,3.2-7.3,4l0.4,3c0,0-0.1,0-0.1,0 L786.4,682.8z M795.9,686c-1.6-0.1-3.2-0.2-4.8-0.3c1.6,0,3.2,0.1,4.9,0.3c8,1.4,15.9,3.6,23.5,6.6l0,0 C811.9,689.7,804,687.5,795.9,686z M787.9,637.4C787.9,637.4,787.9,637.4,787.9,637.4c1.9,0.3,3.8,0.5,5.7,0.6 C791.7,637.9,789.8,637.7,787.9,637.4z M794.2,638c0.5,0,1.1,0,1.6,0c-0.2,0-0.3,0-0.5,0C794.9,638,794.5,638,794.2,638z"></path> <path style="fill:#FFCE00;" d="M255.4,649.4l-2.7-1.1l-1.1-0.4l-0.1,1.1c-0.5,10.8-7.5,28.1-24.5,31.4c-1.4,0.3-3,0.4-4.5,0.4 c-3.8,0-7.5-1-10.7-3.2c-4.6-3.2-8.4-7.2-11.4-12c-3.3-5.4-5.8-11.2-7.5-17.2c-1.7-6-3.1-12.2-3.8-18.5c-1.2-9.6-1.1-19.2,0.2-28.7 c1-6.7,3.1-13.2,6.2-19.3c2.3-4.4,5.6-8.1,9.7-11c3.2-2.1,6.9-3.3,10.7-3.3c3.9,0,7.7,1,11.2,2.9c0.1,0.1,7.3,3.9,10.7,15.8 c3.2,11-1.9,16.3-4,17.3c-0.8,0.4-1.6,0.5-2.5,0.5c-1.3,0-7.5-0.5-10.5-9.4c2.5-0.1,4.7-1.8,5.3-4.2c0.8-4.2-0.6-7-4.3-8.1 l-0.2-0.1c-0.6-0.2-1.2-0.3-1.8-0.3c-2.9,0-5.3,1.7-6.2,4.4c-0.3,0.9-1.6,5.9,2.2,13.7c3.9,7.8,10.9,11.4,16.1,11.4 c0.8,0,1.5-0.1,2.3-0.2c5.3-1.1,9.5-5.4,11.4-11.6c2.7-8.7,1.1-22.1-8.7-32.7c-5.3-5.7-13-8.9-21-8.8c-0.8,0-1.7,0-2.5,0.1 c-6.6,0.5-12.9,2.6-18.4,6.2c-6.2,4-11.4,9.3-15.5,15.4c-4.6,7.1-7.9,15.1-9.8,23.3c-2.2,9.9-2.6,20.1-1.2,30 c1,9.8,3.7,19.3,7.7,28.4c3.4,7.2,7.9,13.8,13.7,19.4c5,4.8,11,8.4,17.5,10.7c4.4,1.5,9.1,2.2,13.6,2.2c1.7,0,3.5-0.1,5.3-0.3 c5.7-0.6,11-2.7,15.5-6.3c4-3.3,7.2-7.2,9.8-11.7c2.3-4.2,4.1-8.7,5.2-13.2c1-4.4,1.8-8,2.2-11l0.1-0.6l-0.6-0.2L255.4,649.4z M204.6,570.3c-4.2,3-7.5,6.8-9.9,11.3c-3.2,6.1-5.3,12.7-6.3,19.5c-1.4,9.6-1.5,19.3-0.2,28.9c0.7,6.3,1.9,12.5,3.8,18.6 c1.7,6.1,4.3,12,7.6,17.4c3,4.9,6.9,9.1,11.6,12.3c3.4,2.2,7.2,3.4,11.2,3.3c1.5,0,3.1-0.2,4.6-0.4c1-0.2,2.1-0.4,3-0.7 c-1.1,0.3-2.2,0.6-3.3,0.8c-5.4,1.2-11.1,0.2-15.8-2.9c-4.7-3.3-8.7-7.4-11.6-12.3c-3.4-5.4-5.9-11.3-7.6-17.4 c-1.8-6.1-3.1-12.3-3.8-18.6c-1.3-9.6-1.2-19.3,0.2-28.9c1-6.8,3.2-13.4,6.3-19.5c2.3-4.5,5.7-8.3,9.9-11.3c1.6-1.1,3.3-1.9,5-2.4 C207.7,568.5,206.1,569.3,204.6,570.3z M231.3,605c0.7,0,1.4-0.1,2.1-0.3c-3.8,1.5-11.4-0.6-14.2-11.1c0,0.2,0.2,0.3,0.5,0.4 C222.1,602.1,227.3,605,231.3,605z M219.8,582.8c0.5,0,1,0.1,1.5,0.2c0.9,0.3,5.1,1.3,3.9,7.3c-0.4,1.4-1.4,2.5-2.6,3.1 c1-0.6,2-1.5,2.3-2.9c1.2-6-3-7-3.9-7.3c-1.4-0.4-2.9-0.2-4.1,0.4C217.8,583.1,218.8,582.8,219.8,582.8z M176.7,661.4 c-4.1-8.9-6.6-18.4-7.7-28.1c-1.4-9.9-1-20,1.2-29.7c1.8-8.2,5.1-16,9.7-23.1c4-6.1,9.2-11.2,15.2-15.2c5.4-3.5,11.6-5.6,18-6.1 c1.2-0.1,2.1-0.1,2.9-0.1c7.7-0.1,15.2,3,20.5,8.6c14.3,15.4,11.6,38.6-1.2,42.6c12.5-4.3,15.1-27.1,0.9-42.5 c-5.9-6.2-14.4-9.4-22.9-8.4c-6.4,0.5-12.6,2.6-18,6.1c-6,4-11.2,9.1-15.2,15.2c-4.6,7.1-7.8,14.9-9.7,23.1 c-2.2,9.8-2.6,19.9-1.2,29.7c1.1,9.7,3.7,19.2,7.7,28.1c3.2,7.2,7.8,13.7,13.4,19.1c0,0,0,0,0,0C184.6,675.1,180,668.6,176.7,661.4 z M258.2,651.5l-5.9-2.1c0-0.1,0-0.1,0-0.2L258.2,651.5C258.2,651.4,258.2,651.5,258.2,651.5z"></path> </g> </svg> 