<?xml version="1.0" encoding="UTF-8"?> <svg xmlns="http://www.w3.org/2000/svg" xmlns:xlink="http://www.w3.org/1999/xlink" version="1.1" id="Layer_1" x="0px" y="0px" viewBox="0 0 1000 1000" style="enable-background:new 0 0 1000 1000;" xml:space="preserve"> <path style="fill:#FFCE00;" d="M180.5,377.7c21.7,0,43.4,0,59.9,0c0,13.4-2.4,27.3,0.5,40.1c5.9,25.5,14.6,50.2,25,75.1 c4.2-37.6,40.3-74.4-3.3-114.6c22.1,0,40.1,0,53.1,0c-11.1,40.2,14.7,75.1,18,113.4c2.3,0.1,4.6,0.2,7,0.3 c8.7-28.4,19.3-56.5,24.8-85.5c1.4-7.2-13.3-17.5-21.6-27.5c35.7,0,72.7,0,108.3,0c-27.4,21.3-15.4,54.8-16.8,82.2 c-1.4,26.9-18.6,61.8,17.3,83.6c-22.2,2-45.1,4-63.9,5.7c40.8-49.1,10.6-107.5,17.9-163.5c-26,0-30.2,14.6-34.3,29.3 c-12.1,42.8-24.3,85.7-36.4,128.5c-2.7,0.7-5.4,1.4-8.2,2.1c-3.9-6.5-9.2-12.5-11.3-19.5c-8.3-28-15.7-56.3-25.1-91 c-10,44.2-18.3,81.3-28.1,124.7c-7.1-10-11.4-13.8-12.9-18.6c-12.2-38.7-24.5-77.4-35.6-116.4C206.9,397.9,203,391.5,180.5,377.7z"></path> <path style="fill:#FFCE00;" d="M627.2,388.4c-7.4-1.4-12.9-2.5-25.4-4.9c36.8-12.2,66.5-16.2,98.2-6.7c39.4,11.9,62.6,57,53.8,103.9 c-5.5,29.4-17.8,59.3-51.7,66.8c-28,6.3-57.1,7.3-84.7,10.5c3.9-10.5,9.4-18.8,9.5-27.2C627.6,484.1,627.2,437.3,627.2,388.4z M657.7,383c0,38.1-0.3,75.2,0.2,112.2c0.1,8.9,2.7,18,4.9,26.8c2.3,9.1,5.5,17.9,8.3,26.9c10.8-4,21.9-7.3,32.1-12.5 c3.8-1.9,5.8-7.9,7.9-12.3c17.1-34.8,18.6-71.5,4.6-106.4C703.8,387.9,692.7,376.9,657.7,383z"></path> <path style="fill:#FFCE00;" d="M156.1,628.4c2.7,3.9,5.3,7.8,8,11.7c2.2-2.4,6.6-6.3,6.1-6.9c-6.3-9.3-11.5-20.7-20.4-26.2 c-8.3-5.2-22.1-7.9-30.8-4.6c-17.1,6.5-20.3,26.5-6.7,38.8c12.1,10.9,26.8,19.6,41.4,27.1c32.6,16.6,41.2,42.2,27.8,78 c-11.2,29.9-52.3,43.1-79.8,25.6c-9.4-6-15.4-23.4-15.7-35.7c-0.2-7.4,12.8-16.9,21.8-21.9c4.4-2.5,16.3,1.2,19.4,5.8 c2.9,4.2,0.8,15.3-3.2,19.7c-4.4,4.9-13.4,5.6-20.4,8.1c-0.9-2.4-1.9-4.8-2.8-7.3c5.5-2.3,11-4.6,16.4-6.9c0.1-1.5,0.8-4,0.4-4.2 c-5.1-2.1-10.3-3.9-15.4-5.8c-0.6,11.2-5.4,29.7-1.1,32.1c13.6,7.5,30.7,12.3,46,11.5c8.2-0.5,22.8-15.3,22.1-22.4 c-1.3-13.4-9.2-28.3-18.9-38c-9.5-9.4-24.5-13.3-37.5-18.8c-19.1-8.1-29.9-22.3-27.9-42.7c2.2-21.7,7.2-44.4,31.5-52.2 c19.3-6.2,40.3-4.2,52,14.4c6.3,9.9,5.5,24.9,5.3,37.6c0,2-13.8,3.9-21.3,5.8c-1.4-7.4-2.8-14.9-4.3-22.3 C150.8,628.3,153.5,628.3,156.1,628.4z"></path> <path style="fill:#FFCE00;" d="M600.7,551.9c-46.6-3.3-90.6-6.4-132.5-9.3c5.1-3.4,16.9-7,20.1-14.4c4.1-9.3,1.7-21.6,1.2-32.6 c-1.4-32.7-2.9-65.4-5.3-98c-0.5-6.6-5.4-12.9-8.6-20c16.9,0,35,0,53.6,0c-23.3,34-12.9,72.3-12.2,109.4c0.1,6.6,1.9,13.1,3.2,19.6 c2.5,12.3-8.1,30.7,16.1,32.9c21.3,1.9,39.9-10.5,44.7-31.3c1.9-8.2,3.4-16.4,9.2-23.7C593.7,507,597.2,529.5,600.7,551.9z"></path> <path style="fill:#FFCE00;" d="M825.5,740.3c-5.8,13-9.6,21.4-13.3,29.9c-8.8-25.8,0.5-48,20.8-60.1c30.6-18.3,34.2-44.7,29.6-73.9 c-1.9-12.1-12.8-22.7-19.7-34c-7,4.3-18.4,7.6-19.9,13.3c-3.7,14.2-3,29.7-3.4,44.7c0,1.3,7.3,4.6,8.1,3.8c4.3-4.3,7.5-9.5,7.7-17.6 c-4.2,2-8.4,4-12.6,6.1c-1.5-1.6-2.9-3.3-4.4-5c6.3-5.3,12.7-10.6,19-15.9c3.4,6.8,11.4,16.6,9.2,19.9c-6,9.4-14.9,20.7-24.8,23.3 c-16.2,4.3-18.9-10.6-16.1-22.1c4.2-17.4,7.5-37.3,18.2-50.4c16.8-20.6,38.5-9.1,55.5,3.4c15.4,11.4,19.7,51.5,7.3,69.6 c-7.3,10.8-19.1,18.6-29.6,27c-9.8,7.9-20.6,14.7-31.7,22.6c39.1,27.9,39.1,27.9,64.8-5.8c2.2,0.8,4.4,1.5,6.7,2.3 c-5.1,14.5-6.1,34-16.2,42.3C856.1,784,839.6,762.4,825.5,740.3z"></path> <path style="fill:#FFCE00;" d="M561.3,604.1c11.9,16.8,23.8,33.7,35.7,50.5c1.8,0,3.5,0.1,5.3,0.1c-1.4-18.9-2.7-37.9-4.1-56.6 c-60.2,0-118.4,0-181.4,0c43.9,28.1,15.3,67.6,25.4,100.1c-2.1,0.9-4.2,1.7-6.3,2.6c-5.1-6.3-10.9-12.3-15.3-19.1 c-16.3-25.1-31.7-50.7-48.4-75.5c-10.9-16.1-41.1-14.4-49-2.7c7.8,10.8,19.6,19.7,20.1,29.1c2.1,41.3,0.9,82.8,0.9,123.9 c-29.1,3.7-34.7,1.7-39.8-16.1c-7.7-27.1-14-54.6-21.7-81.6c-6.3-22.5-13.8-44.7-20.7-67c-13.5,29.1-19.7,59-30.6,87.1 c-12.2,31.5-9.5,70.6-49.1,92.5c22.2-3.4,39.1-6,55.2-8.4c-7-5-19.9-12.4-19.3-13.9c6.3-14.2,14-28.2,23.7-40.2 c1.4-1.8,19.1,4.2,22.9,10.5c11.5,19.3,22.5,41-5.5,49.9c37.3,0,78.4,0,115.2,0c-39.7-32.7-10.8-78.1-19.7-116.5 c31.4,37.6,54,80.9,93.5,116.1c8.8-58-7.2-110.9,11.5-160.8c2.3-0.1,4.5-0.2,6.8-0.2c2.7,16.3,5.3,32.6,8,49 c9.5-21.9,11.6-45.9,47.8-51c0,33.3,0.3,64.9-0.1,96.6c-0.4,27.9,10.3,61.5-32.8,68.5c29.4,0,58.8,0,88.2,0 c-18.1-4.9-27.1-12.6-25.4-32.5c1.8-22,0.7-44.3,0.7-66.5c0.1-21.5,0-43.1,0-64.6C555.9,606.2,558.6,605.2,561.3,604.1z M273.9,686.7c-0.1,0.4-0.2,0.7-0.4,1c-0.3,0.3-0.8,0.4-1.2,0.5c-5.5,0.9-11.2,0.6-16.5-0.9c-2.1-0.6-4.5-1.6-5.1-3.7 c-0.4-1.3,0-2.6,0.3-3.9c0.9-3.4,5.6-33.2,12.7-28.5c0.8,0.5,1.2,1.5,1.6,2.4c3.4,8.4,6.1,17,8.1,25.9 C273.8,681.8,274.3,684.3,273.9,686.7z"></path> <path style="fill:#FFCE00;" d="M706.4,729c-12.4-45.5-24.6-91-36.9-136.6c-2.2,0.2-4.4,0.4-6.7,0.5c-7.7,26.8-13.3,54.4-23.6,80.2 c-13.4,33.6-9.2,76.8-56.3,99.2c25.8-3.5,44.5-5.9,59.3-7.9c-5.2-6.9-15.2-14.3-14.4-20.2c4.6-34.4,9.4-37.5,41-34.1 c5.1,16,10.2,32.2,15.4,48.5c-8.3,4.5-15,8.2-22.5,12.3c29.1-1.9,56-3.6,82.9-5.3c0.4-2.2,0.8-4.4,1.2-6.6 C719.3,764.6,711.6,748.1,706.4,729z M674.4,687.4c-0.1,0.3-0.2,0.7-0.5,1s-0.8,0.4-1.2,0.4c-5.5,0.5-11.2-0.1-16.5-2 c-2.1-0.7-4.3-1.9-4.8-4.1c-0.3-1.3,0.1-2.6,0.5-3.9c1.1-3.3,7.7-32.8,14.5-27.6c0.8,0.6,1.1,1.5,1.4,2.5c2.9,8.6,5,17.4,6.4,26.3 C674.7,682.5,675,685,674.4,687.4z"></path> <path style="fill:#FFCE00;" d="M793.3,291.8c-0.4,1.6-0.7,3.1-1.1,4.7c-4.1,16.9-19.1,31-36.5,33.9c-3.6,0.6-7.3,0.8-11,0.8 c-184,0.1-368.1,0-552.1,0.1c-12.7,0-23.7-3.5-33.4-11.7c-8.3-7.1-13.2-15.9-14.7-26.6c-0.2-1.2-0.5-2.4-0.7-3.5c0-4.3,0-8.6,0-12.9 c0.1-1.8,0.3-3.7,0.3-5.5c0.1-6-0.2-12.1,0.1-18.1c0.9-19.7,10.7-33.6,28.8-41.4c4.3-1.9,9.2-2.5,13.8-3.7c187.9,0,375.7,0,563.5,0 c0.9,0.2,1.8,0.5,2.7,0.6c19.1,2.3,35.1,16.8,39.2,35.5c0.4,1.7,0.8,3.3,1.2,5C793.3,263.2,793.3,277.5,793.3,291.8z M452.7,227.8 c-29.6,0.1-51.4,24.5-47.9,54c1.5,13.4,8.3,23.1,21.3,27.9c33,12.2,66.5-11.2,66.4-46.2c-0.1-14-5.3-25.3-18.8-31.4 C467,229,459.9,227.8,452.7,227.8z M310.7,313.6c0.1-0.3,0.1-0.6,0.2-0.9c27.9,0.1,48.4-20.9,48.4-49.2c0-17.9-8.8-29.9-26.2-34.1 c-37.9-9.2-64.5,20.7-61.5,52.2c1.2,12.5,7.4,22.5,19.5,27.2C297.4,311.2,304.2,312,310.7,313.6z M502.5,280.6c4.3,0,8.1,0,11.8,0 c9.3,0.1,18.7-0.1,27.9,0.3c2.2,0.1,4.3,2.3,6.5,3.6c-0.9,1.5-1.6,3.1-2.7,4.5c-1.6,2.1-3.3,3.2-6.4,3.1 c-12.7-0.3-25.4-0.1-38.1-0.1c-2.5,0-4.4,1.1-6,3.1c-3.5,4.7-7.2,9.2-10.7,13.8c-0.5,0.7-0.9,1.4-1.5,2.2c0.7,0.2,0.9,0.4,1.2,0.4 c20.3,0,40.5,0.1,60.8-0.2c10.1-0.1,18.1-4.9,22.3-14.2c7.2-15.9,3.3-22-7.5-28.1c-0.8-0.5-1.5-1.1-2.7-1.9c1.1-0.7,1.8-1.1,2.5-1.5 c5.3-2.8,9.5-6.7,11.8-12.3c4.3-10.5,0-20.6-10.3-24.1c-2.3-0.8-4.8-1.3-7.2-1.3c-19.7-0.1-39.5-0.1-59.2-0.2 c-0.5,0-1.1,0.3-1.8,0.5c2.9,5.3,5.9,10.5,8.5,15.7c1.5,3.1,3.7,4.6,7.2,4.5c11.5-0.1,22.9-0.1,34.4,0c1.6,0,3.3,0.2,4.8,0.7 c2.5,0.9,3.4,3.2,1.9,5.4c-2.3,3.3-5.2,5.7-9.6,5.6c-10.9-0.1-21.7-0.2-32.5-0.2c-0.8,0-2.3,0.9-2.4,1.6 C504.3,267.7,503.5,273.9,502.5,280.6z M653.5,227.7c-1.5-0.1-2.5-0.2-3.6-0.2c-18,0.1-36.1,0.2-54,0.3c-6.6,0.1-8.1,1.3-9.1,8 c-3.4,21.8-6.7,43.6-10.1,65.4c-0.6,3.7-1.1,7.4-1.6,11.3c0.9,0.1,1.5,0.3,2.1,0.3c14.5,0,29.1,0,43.7-0.1c4.9,0,9.9,0,14.7-0.1 c4.1-0.1,5.1-0.9,5.7-4.8c0.5-2.9,0.8-5.9,1.1-8.8c0.3-2.4,0.5-4.7,0.7-7.5c-14.8,0-28.9,0-43.6,0c0.5-3.1,1.2-5.7,1.4-8.4 c0.2-2,0.9-2.6,2.9-2.6c5.7,0.1,11.5,0,17.2,0.1c1.8,0,2.5-0.6,2.8-2.4c0.5-4.5,1.3-8.9,1.9-13.3c0.3-1.7,0.5-3.3,0.7-5.4 c-5.4,0-10.4,0.1-15.4,0c-6.7-0.1-5.9,1.4-5.8-6.1c0.1-3.6,1.5-4.9,5-5.2c1.3-0.1,2.7-0.1,4-0.1c11.1,0,22.1,0.1,33.2-0.1 c1.1,0,3-0.7,3.1-1.4C651.7,240.6,652.5,234.4,653.5,227.7z M684.2,248.7c0.1,0.7,0.3,1,0.2,1.3c-3,19.8-5.9,39.6-9,59.3 c-0.4,2.4,0.1,3.3,2.7,3.2c5.2-0.2,10.5-0.1,15.7,0c2.1,0.1,2.9-0.7,3.1-2.8c2.3-17.5,4.7-35,7.1-52.4c0.9-6.3,3.1-8.5,9.5-8.9 c3.4-0.2,6.7-0.1,10.1-0.1c3.1,0,4.7-1.6,5.1-4.6c0.4-2.4,1.1-4.8,1.4-7.2c0.3-3,0.4-6,0.6-9c-16.4,0-32.3,0-48.1,0 c-3.8,0-7.6,0-11.3,0.3c-2.3,0.1-5.1,0.7-5.7,3.3c-1.3,5.6-2,11.4-3,17.6C670.2,248.7,677.2,248.7,684.2,248.7z M206.8,320 c4,1.3,7.5,3.3,11.1,3.6c5.3,0.5,10.6,0.3,16-1.4c10.8-3.3,18.1-9.8,20.3-20.8c3.1-16.5,5.6-33.2,8.3-49.8c1-6.1,1.8-12.3,2.7-18.9 c-5,1.7-9.5,3.3-13.9,4.8c-8,2.8-7.9,2.8-9.3,11.2c-2.7,16.4-5.3,32.8-8.1,49.2c-0.9,5.8-4.5,8.9-10.1,10.2 c-2.8,0.6-5.5,2.1-7.9,3.9C212.8,314.1,210.2,316.9,206.8,320z M339.3,319.8c4.2,1.5,7.8,3.4,11.5,3.8c5.7,0.6,11.5,0.2,17.1-1.7 c10.3-3.5,17.1-10.1,19.1-20.8c2.7-13.7,4.7-27.5,6.9-41.3c1.4-8.8,2.6-17.7,3.9-26.6c-0.5-0.1-0.8-0.3-1.1-0.2 c-6.3,2.2-12.5,4.3-18.7,6.7c-0.9,0.4-1.9,1.8-2.1,2.9c-0.8,3.5-1.3,7-1.9,10.5c-2.5,14.9-4.9,29.8-7.3,44.7c-1,6.1-4.1,8.9-10,10 c-1.9,0.3-4,1.1-5.6,2.3C347.2,313,343.6,316.2,339.3,319.8z M245.5,226.5c9.7-0.1,19.1-3.7,20.9-10.1c-6.2,0-12.3-0.1-18.3,0.1 c-0.5,0-1.3,1-1.4,1.6C246.2,220.8,245.9,223.5,245.5,226.5z M399.9,216.4c-6.7,0-12.7,0-18.7,0.1c-0.5,0-1.4,0.7-1.5,1.1 c-0.5,2.9-0.8,5.7-1.3,8.9C387.1,226,394.6,224.6,399.9,216.4z"></path> <path style="fill:#FFCE00;" d="M432,277.5c1.3-6.1,2.5-12.1,4.1-18.1c0.5-1.9,1.7-3.7,3-5.3c3.9-4.6,8.9-7.1,14.9-5.6 c6,1.5,8.3,6.3,9.9,11.7c1.9,6-1,11.2-2.4,16.6c-0.7,2.7-1.7,5.3-3,7.7c-4.5,8.5-15.9,10.5-22.3,4.1 C433.2,285.6,432.5,281.8,432,277.5z"></path> <path style="fill:#FFCE00;" d="M331.2,263.2c-1.1,5.9-1.9,11.5-3.3,16.9c-2,7.8-8.3,12.5-15.5,12.4c-4.3-0.1-7.9-1.8-10.1-5.5 c-3-5.1-5.3-10.5-2.5-16.7c2.3-5.2,3.8-10.9,6.6-15.7c5.1-9,18.3-8.7,22.9,0.4C330.5,257.4,330.6,260.5,331.2,263.2z"></path> </svg> 