<?xml version="1.0" encoding="UTF-8"?> <svg xmlns="http://www.w3.org/2000/svg" xmlns:xlink="http://www.w3.org/1999/xlink" version="1.1" id="Layer_1" x="0px" y="0px" viewBox="0 0 1000 1000" style="enable-background:new 0 0 1000 1000;" xml:space="preserve"> <path id="Shape_00000040541709403781856770000002505458042668340373_" style="fill:#FFCE00;" d="M369.6,765.8 c2.1-2.9,3.2-6.4,3.1-10c0-5.1-1.8-9.4-5.3-13s-7.9-5.3-13-5.3h-22.8v57h9.4v-20.8h11l12.1,20.8h10.3l-12.9-22.2 C364.7,771.1,367.5,768.8,369.6,765.8L369.6,765.8L369.6,765.8z M354.4,765.4H341v-19.1h13.4c2.4,0,4.7,1,6.4,2.8 c3.5,3.8,3.5,9.7,0,13.5C359.1,764.4,356.8,765.4,354.4,765.4L354.4,765.4z M420.7,770c-0.9-1-1.9-2-3-2.9c-0.9-0.8-2.3-1.5-4.1-2.3 c-1.8-0.8-3.2-1.3-4.2-1.7s-2.6-0.9-4.8-1.6c-4.3-1.4-7.3-2.6-9-3.9c-1.6-1.1-2.6-3-2.5-5c0-2.2,0.8-3.9,2.4-5.2s3.8-1.9,6.5-1.9 c5.6,0,9.6,2.7,12,8l7.9-4.6c-1.7-3.8-4.4-6.9-7.9-9.2c-3.4-2.2-7.4-3.3-12-3.3c-5,0-9.4,1.5-12.9,4.4c-3.6,3-5.4,7-5.4,12 c0,2.6,0.5,4.8,1.4,6.7s2.4,3.6,4.2,4.8c1.7,1.2,3.5,2.2,5.3,3c2.2,0.9,4.4,1.6,6.6,2.3c4.8,1.5,8.2,2.8,10.1,4s2.8,3,2.9,5.3 c0,2.1-0.9,4.1-2.6,5.4c-1.8,1.4-4.4,2.1-7.9,2.1c-7.2,0-11.9-3.2-14.2-9.6l-8.1,4.7c1.4,4.2,4.3,7.9,8,10.3c3.8,2.5,8.5,3.7,14,3.7 c6,0,10.9-1.5,14.6-4.5s5.6-7.1,5.6-12.3c0-1.7-0.2-3.4-0.7-5C422.5,772.4,421.8,771.1,420.7,770L420.7,770z M430.5,746.5h16.1v48.1 h9.4v-48.1h16v-9h-41.5V746.5L430.5,746.5z M254.3,794.6h11.6V766h28.6v-11h-28.6v-19.7h29.6v-11h-41.2V794.6L254.3,794.6z M306.9,794.6h9.4v-57h-9.4V794.6z M569.7,770.2h22.8v-8.9h-22.8v-14.8h24.8v-9h-34.2v57H595v-9h-25.2L569.7,770.2L569.7,770.2z M737.4,736.5c-8.3,0-15.2,2.9-21,8.6c-5.7,5.7-8.6,12.7-8.6,21s2.9,15.2,8.6,21c5.7,5.7,12.7,8.6,21,8.6s15.2-2.9,21-8.6 s8.6-12.7,8.6-21s-2.9-15.2-8.6-21C752.6,739.3,745.6,736.5,737.4,736.5L737.4,736.5L737.4,736.5z M751.8,780.7 c-3.9,3.9-8.7,5.8-14.4,5.8s-10.5-1.9-14.4-5.8c-3.9-3.9-5.8-8.8-5.8-14.6c0-5.9,1.9-10.7,5.8-14.6c3.9-3.9,8.7-5.8,14.4-5.8 s10.5,1.9,14.4,5.8c3.9,3.9,5.8,8.8,5.8,14.6S755.6,776.8,751.8,780.7L751.8,780.7z M645.5,765.8c2.1-2.9,3.2-6.4,3.1-10 c0-5.1-1.8-9.4-5.3-13c-3.6-3.6-7.9-5.3-13-5.3h-22.8v57h9.4v-20.8H628l12.1,20.8h10.3l-12.9-22.2 C640.7,771.1,643.5,768.8,645.5,765.8L645.5,765.8z M630.4,765.4H617v-19.1h13.4c2.4,0,4.7,1,6.4,2.8c3.5,3.8,3.5,9.7,0,13.5 C635.1,764.4,632.8,765.4,630.4,765.4L630.4,765.4L630.4,765.4z M696.7,770c-0.9-1-1.9-2-3-2.9c-0.9-0.8-2.3-1.5-4.1-2.3 s-3.2-1.3-4.2-1.7s-2.6-0.9-4.8-1.6c-4.3-1.4-7.3-2.6-9-3.9c-1.6-1.1-2.6-3-2.5-5c0-2.2,0.8-3.9,2.4-5.2c1.6-1.3,3.8-1.9,6.5-1.9 c5.6,0,9.6,2.7,12,8l7.9-4.6c-1.7-3.8-4.4-6.9-7.9-9.2c-3.4-2.2-7.4-3.3-12-3.3c-5,0-9.4,1.5-12.9,4.4c-3.6,3-5.4,7-5.4,12 c0,2.6,0.5,4.8,1.4,6.7s2.4,3.6,4.2,4.8c1.7,1.2,3.5,2.2,5.3,3c2.2,0.9,4.4,1.6,6.6,2.3c4.8,1.5,8.2,2.8,10.1,4 c1.9,1.2,2.8,3,2.8,5.3c0,2.1-0.9,4.1-2.6,5.4c-1.8,1.4-4.4,2.1-7.9,2.1c-7.2,0-11.9-3.2-14.2-9.6l-8.1,4.7c1.4,4.2,4.3,7.9,8,10.3 c3.8,2.5,8.5,3.7,14,3.7c6,0,10.9-1.5,14.6-4.5c3.7-3,5.6-7.1,5.6-12.3c0-1.7-0.2-3.4-0.7-5C698.5,772.4,697.8,771.1,696.7,770 L696.7,770L696.7,770z M527.4,724.2h-25.9v70.3H513v-24.1h14.4c6.6,0,12.2-2.2,16.6-6.7c4.5-4.5,6.7-9.9,6.7-16.4 c0-6.6-2.2-12.1-6.7-16.5C539.5,726.4,534,724.2,527.4,724.2L527.4,724.2z M535.8,756.1c-2.2,2.3-5,3.5-8.4,3.5H513v-24.5h14.4 c3.4,0,6.2,1.2,8.4,3.5s3.3,5.2,3.3,8.8C539.1,750.9,538,753.8,535.8,756.1L535.8,756.1L535.8,756.1z M813.2,737.5v38.7l-26.9-38.7 H779v57h9.4v-38.7l26.9,38.7h7.3v-57H813.2L813.2,737.5z"></path> <path id="Path-5_00000070797526694466132510000000040002632244785069_" style="fill-rule:evenodd;clip-rule:evenodd;fill:#FFCE00;" d=" M161.1,719.2c28-14.9,64.1,0.8,66.9,38.9C176.1,762.2,169.8,738.8,161.1,719.2z"></path> <path id="Path-7_00000149367024305364704460000002479639474513150353_" style="fill-rule:evenodd;clip-rule:evenodd;fill:#FFCE00;" d=" M161.1,803.7c28,14.9,64.1-0.8,66.9-38.9C176.1,760.8,169.8,784.1,161.1,803.7z"></path> <path style="fill:#FFCE00;" d="M152.3,593.8c8.9,0.4,17.6,0.3,26.3,1.2c8.1,0.8,14.4,6.8,16,14.4c2.1,9.7-0.6,17-8.1,22 c-0.1,0.1-0.2,0.3-0.5,0.6c0.5,0.3,0.9,0.6,1.4,0.8c10.3,3.4,14.9,11.1,15.8,21.4c1.1,12.8-5.9,24.9-16.8,28 c-4.6,1.3-9.6,1.6-14.5,1.8c-6.4,0.3-12.8,0.1-19.7,0.1C152.3,654.1,152.3,624.3,152.3,593.8z M160.5,674.9c5.7,0,11.1,0.2,16.4-0.1 c5.8-0.3,10.8-2.3,14.8-7c8-9.4,2.9-26.3-9.1-28.6c-7.1-1.3-14.6-1-22.1-1.4C160.5,650.5,160.5,662.5,160.5,674.9z M160.4,627.9 c6.8,0.1,13.4,0.7,19.5-2.2c4.4-2,6.9-5.5,7.1-10.3c0.3-5-1.6-9-6-11.6c-6.5-3.7-13.6-3.1-20.7-2.8 C160.4,610.1,160.4,618.8,160.4,627.9z"></path> <path style="fill:#FFCE00;" d="M781,605.5c-1,1.3-2,2.4-3,3.6c-0.9,1.1-1.9,2.2-2.6,3c-3.7-2.3-7.1-5-10.9-6.8 c-12.2-5.7-24.3-5-35.8,2c-1,0.6-1.9,2.2-1.9,3.4c0,18.8,0.2,37.6,0.5,56.3c0,1.1,0.9,2.5,1.8,3.1c12.6,8.5,31.6,7,43.3-3.3 c3.1-2.8,3.1-2.8,5.6,0.5c3.7,4.8,3.7,4.8-1.1,8.6c-16.1,12.6-42.2,12.4-57.7-0.5c-0.9-0.7-1.6-2.2-1.6-3.4c-0.1-19.5,0-38.9,0-58.4 c0-2.7-0.3-5.4-0.1-8c0.1-1.1,0.6-2.4,1.4-3.1C735.7,587.7,765.3,589,781,605.5z"></path> <path style="fill:#FFCE00;" d="M446.9,665.7c0.6,0.5,1.1,0.9,1.4,1.3c1.6,1.9,3.1,3.8,4.8,6c-3.8,4.1-8.2,7.1-13.1,9.2 c-16.8,7-32.9,5.8-48-4.6c-1.9-1.3-2.8-2.8-2.8-5.2c0-21.3-0.1-42.5-0.3-63.8c0-2.9,1-4.7,3.3-6.4c17.5-12.5,41.8-11.6,58.1,2.1 c0.8,0.7,1.5,1.4,2.4,2.2c-2,2.5-3.8,4.8-5.8,7.2c-0.5-0.3-0.9-0.4-1.2-0.7c-12.3-11.4-30.6-13.5-45.4-4.5c-0.9,0.6-1.8,2-1.8,3.1 c0,19,0.2,37.9,0.4,56.9c0,1.1,0.9,2.5,1.9,3.1c12.9,8.3,31.6,6.7,43.2-3.5C445,667.3,445.9,666.5,446.9,665.7z"></path> <path style="fill:#FFCE00;" d="M489.4,593.7c2.5,0,4.9,0,7.7,0c0.1,2.3,0.3,4.5,0.3,6.8c0.1,11.5,0.1,23,0.1,34.5 c0,2,0.6,3.1,2.8,3.4c7.2-11.9,14.5-24,21.8-36c0.7-1.1,1.6-2.2,2.1-3.4c2.3-6,7-6.3,12.8-5.2c-1.2,2.3-2.3,4.4-3.5,6.5 c-8,13.3-16,26.7-24.1,39.9c-1.2,1.9-1.2,2.8,0.9,4.2c13.2,8.9,22.1,21.2,27.2,36.2c0.3,0.8,0.3,1.6,0.5,2.8c-2.6,0-5,0.1-7.4-0.1 c-0.7-0.1-1.5-1-1.8-1.7c-3.9-10.4-10.2-19.2-18.7-26.4c-3.7-3.1-7.8-5.6-12.4-8.9c0,12.9,0,24.9,0,37c-2.8,0-5.2,0-8.2,0 C489.4,653.7,489.4,623.8,489.4,593.7z"></path> <path style="fill:#FFCE00;" d="M866,683.1c-0.7,0.2-0.9,0.3-1.2,0.3c-6.9,0.4-6.9,0.4-9.6-5.8c-5.4-12.2-18.6-25.9-29.5-30.3 c0,6.1,0,12.1,0,18.1c0,5.9,0,11.9,0,18.1c-2.6,0.1-5.1,0.2-8.1,0.4c0-30.1,0-60,0-90c2.4,0,4.9,0,8,0c0,5.7,0,11.3,0,16.9 c0,8.3,0,16.7,0.2,25c0,1,1.2,1.9,2.1,3.4c5.8-9.4,11.1-18.1,16.4-26.7c3.4-5.5,6.9-11.1,10.1-16.7c1.1-2,2.4-2.7,4.6-2.5 c1.9,0.2,3.8,0,6.5,0c-10,16.7-19.7,32.8-29.6,49.3C850.8,652.5,860.8,665.8,866,683.1z"></path> <path style="fill:#FFCE00;" d="M650.5,588.2c12.3,32.2,24.2,63.5,36.4,95.6c-5.5,0-10.2,0.1-14.8-0.1c-0.8,0-2-1.1-2.3-1.9 c-7.4-19-14.8-38-22.1-57c-0.6-1.6-1-3.3-1.9-4.8c-3.4-5.9-3.4-11.8-0.4-17.9C647.4,597.9,648.6,593.4,650.5,588.2z"></path> <path style="fill:#FFCE00;" d="M324.3,589.5c11.9,31.3,23.8,62.7,35.9,94.6c-5.5,0-10.5,0.1-15.5-0.1c-0.5,0-1.2-1.1-1.5-1.9 c-8.9-22.8-17.7-45.6-26.5-68.5c-0.4-0.9-0.8-2.2-0.5-3c2.3-7.1,4.8-14.1,7.3-21.1C323.8,589.6,324,589.5,324.3,589.5z"></path> <path style="fill:#FFCE00;" d="M134.5,601.9c-2.3-0.1-3.8-0.2-5.4-0.3c0-2.4,0-4.6,0-7.1c6.4,0,12.7,0,19.5,0c0,29.7,0,59.4,0,89.4 c-4.3,0-8.9,0-14.1,0C134.5,656.8,134.5,629.4,134.5,601.9z"></path> <path style="fill:#FFCE00;" d="M799.6,601.5c-2-0.1-3.5-0.2-5.2-0.3c0-2.4,0-4.7,0-7.2c6.4,0,12.7,0,19.4,0c0,29.7,0,59.5,0,89.6 c-4.4,0-9.1,0-14.2,0C799.6,656.3,799.6,629,799.6,601.5z"></path> <path style="fill:#FFCE00;" d="M471.7,601.2c-2.1,0-3.6,0-5.3,0c0-2.4,0-4.7,0-7.3c6.4,0,12.7,0,19.4,0c0,29.9,0,59.6,0,89.6 c-4.4,0-9,0-14,0C471.7,656.2,471.7,628.8,471.7,601.2z"></path> <path style="fill:#FFCE00;" d="M215.5,594.4c6.5,0,12.7,0,19.3,0c0,29.9,0,59.6,0,90c-4.1,0-8.4,0.1-12.7-0.1 c-0.5,0-1.3-1.6-1.3-2.5c-0.1-6.2-0.1-12.5-0.1-18.7c0-19.5-0.1-38.9-0.1-58.4c0-0.9,0-1.7,0-2.8c-1.7-0.1-3.3-0.3-5-0.4 C215.5,599.1,215.5,596.8,215.5,594.4z"></path> <path style="fill:#FFCE00;" d="M287.6,684.3c2.1-5.6,4-10.6,6.1-16c-2.2,0-4.1,0-6.2,0c0-3,0-5.7,0-8.8c2.2,0,4.3-0.2,6.3,0 c2.4,0.2,3.5-0.7,4.4-2.9c4.3-11.4,8.7-22.7,13.1-34c0.9-2.3,1.9-4.5,3.5-6.9c8.5,22.6,17,45.3,25.7,68.4c-3.3,0-6,0.1-8.8-0.1 c-0.6,0-1.5-1-1.8-1.7c-1.5-3.8-2.9-7.7-4.1-11.6c-0.7-2.1-1.8-2.8-3.9-2.7c-5.3,0.2-10.5,0.1-15.8,0c-2,0-3.1,0.5-3.7,2.5 c-1.3,4-2.8,7.9-4.5,11.8c-0.4,0.9-1.6,1.8-2.5,1.9C293,684.5,290.6,684.3,287.6,684.3z M321.5,659.5c-2.4-6.6-4.7-12.9-7.2-19.9 c-2.7,7.1-5,13.4-7.5,19.9C311.8,659.5,316.4,659.5,321.5,659.5z"></path> <path style="fill:#FFCE00;" d="M667,683.4c-0.7,0.2-0.9,0.2-1.1,0.2c-8.6,0.4-8.6,0.4-11.5-7.6c-0.1-0.3-0.2-0.5-0.3-0.8 c-2.9-8.1-2.9-8.1-11.5-7.7c-3.2,0.1-6.3,0.3-9.5,0.2c-2.3-0.1-3.6,0.5-4.3,2.9c-1.2,3.8-2.8,7.5-4.2,11.3c-0.5,1.5-1.3,2.1-2.9,2 c-2.4-0.1-4.7,0-7.5,0c2.1-5.4,4-10.5,6-16c-2.2-0.1-4.1-0.2-6.2-0.3c0-2.8,0-5.3,0-8.2c2.4,0,4.7-0.1,7,0c2,0.2,2.9-0.5,3.5-2.4 c4.8-12.7,9.7-25.4,14.6-38c0.4-1.1,0.9-2.2,1.4-3.3c0.3,0,0.5,0,0.8,0C649.8,638.2,658.4,660.7,667,683.4z M640.8,638.7 c-2.7,7.2-5.1,13.6-7.6,20.2c5.3,0,10,0,15,0C645.8,652.3,643.4,645.9,640.8,638.7z"></path> <path style="fill:#FFCE00;" d="M548.1,657.7c3.1-0.2,5.6-0.3,8.4-0.5c0.1,0.9,0.2,1.7,0.2,2.4c0.1,7.8,4.5,13.9,12.1,16.8 c6.8,2.6,14.2,0.8,19.1-4.8c3-3.5,3.7-8.1,3.9-12.4c0.5-11.8,0.6-23.7,0.7-35.6c0-8.8-0.4-17.6-0.6-26.4c-0.1-4.1,0-4.1,4.1-4.1 c1.2,0,2.5,0,4.2,0c0,5.6-0.1,11,0,16.5c0.3,9.9,1.1,19.9,0.9,29.8c-0.2,9.4-0.9,18.9-2.3,28.2c-1.6,10.8-12.1,17.4-21.4,18.1 c-13.2,1-25.6-7.4-28.5-19.6C548.3,663.4,548.4,660.7,548.1,657.7z"></path> <path style="fill:#FFCE00;" d="M574.9,600.8c-2.1-0.1-3.6-0.2-5.3-0.2c0-2.3,0-4.6,0-7.1c6.3,0,12.6,0,19.5,0c0,4.8,0,9.8,0,14.8 c0,7.4,0,14.7,0,22.1c0,8.5,0.1,17.1,0.1,25.6c0,8.2-5.9,15.7-14.3,18.1C574.9,649.7,574.9,625.4,574.9,600.8z"></path> <path style="fill:#FFCE00;" d="M246.4,675.7c9.4,0,18.2,0,27.2,0c0,2.7,0,5.2,0,8.1c-11.4,0-22.9,0-34.9,0c0-29.7,0-59.4,0-89.3 c2.4,0,4.8,0,7.7,0C246.4,621.5,246.4,648.4,246.4,675.7z"></path> <path style="fill:#FFCE00;" d="M714.6,605.5c0,22.2,0,44.4,0,67.3c-11.2-10.6-16-23.1-15.2-37.8c0.7-11.9,6.1-21.5,14.4-29.7 C714.1,605.3,714.4,605.4,714.6,605.5z"></path> <path style="fill:#FFCE00;" d="M385.8,673.6c-10.4-10-15.3-22.3-14.6-36.8c0.6-12.1,5.9-22,14.4-30.2c0.3,0.1,0.6,0.1,0.8,0.2 c0,22.2,0,44.3,0,66.5C386.3,673.3,386,673.4,385.8,673.6z"></path> <path style="fill:#FFCE00;" d="M711.5,431.4c0.6,0.6,1.1,1.5,1.9,1.7c4,1.4,7.2,4.4,11.6,5.2c4.2,0.7,8.3,2.1,11.5,5.6 c2.1,2.3,5.4,2.1,8.4,2.1c0.1-0.3,0.1-0.5,0.2-0.8c-1.1-0.3-2.2-0.6-3.4-0.8c-2.2-0.3-3.6-1.5-5.3-2.9c-2.4-2-5.6-3.5-8.7-4.1 c-4.6-0.8-8.2-3.5-12.3-5.1c-1.2-0.5-2.4-1.9-2.7-3.1c-1.2-4.3-4.4-5.3-8.1-5.5c-4.6-0.2-9.2-0.4-13.7-0.1c-3,0.2-5.9,1.2-8.9,1.9 c-2.2,0.6-4.3,1.4-6.5,2c-0.6,0.1-1.5-0.3-1.9-0.8c-0.3-0.4-0.3-1.4-0.1-1.9c1.3-3.2,3.2-5.7,6.8-6.7c3-0.8,5.9-1.8,6.4-5.8 c0.3-2.2,2.7-3,4.9-3.2c10.3-0.7,20.6-1.5,31-2.1c24.3-1.4,48.5-2.6,72.8-4c32.5-1.9,65-3.8,97.5-5.7c6.8-0.4,13.6-0.8,20.4-1.2 c6.6-0.3,11.1,2.6,13.5,8.9c9.5,24.4,19,48.8,28.5,73.3c0.5,1.2,0.5,2.8,0,4c-9.5,24.9-19,49.9-28.6,74.8c-2.4,6.3-7.2,9-13.9,8.6 c-19.5-1.3-39-2.5-58.5-3.7c-16.9-1.1-33.8-2.3-50.7-3.4c-14-0.9-28.1-1.7-42.2-2.5c-14.6-0.9-29.2-1.7-43.9-2.6 c-13.1-0.8-26.2-1.6-39.3-2.5c-17.6-1.1-35.2-2.2-52.8-3.3c-10.3-0.7-20.6-1.4-31-2.1c-17.1-1.1-34.2-2.3-51.3-3.4 c-13.5-0.9-26.9-2.1-40.4-2.6c-7.5-0.3-15.1,0.5-22.7,1c-26.9,1.5-53.7,3.1-80.6,4.7c-22.1,1.3-44.2,2.7-66.3,4 c-23.1,1.4-46.3,2.7-69.4,4c-20.1,1.2-40.2,2.3-60.2,3.5c-22.3,1.3-44.6,2.5-66.9,3.8c-17.3,1-34.6,2.1-51.9,3.1 c-5.4,0.3-10.1-3.2-12.4-9c-3.6-9.1-7.2-18.3-10.7-27.4C55.7,512.2,49.9,497.1,44,482c-0.7-1.8-0.8-3.3-0.1-5.1 c9.5-24.1,18.8-48.3,28.2-72.5c2.8-7.1,7.1-9.6,14.7-9.2c21,1.3,42.1,2.4,63.1,3.7c18.1,1.1,36.1,2.3,54.2,3.4s36.1,2.1,54.2,3.2 c17.9,1.1,35.8,2.2,53.6,3.3c2.6,0.2,5.3,0.7,8.2,1.1c-1.6,6.3,2.9,8.3,7.3,10.4c0.7,0.3,1.6,1.3,1.5,2c-0.1,3.3,1,5.7,3.9,7.6 c-3.3,0-6.6,0-10.2,0c0,1.8,0,3.4,0,5c7.4,2.5,10.4,6.1,10.6,13.4c-0.4,0-0.8,0.1-1.1,0c-6.2-3.2-12.5-2.8-18.9-0.7 c-1.1,0.4-3.6-0.4-2.7,2.1c4.2-0.6,8.3-1.8,12.4-1.7c3.3,0.1,6.5,1.7,9.7,2.7c0.4,0.1,0.8,1.2,0.8,1.8c0,14.2,0.1,28.4,0,42.6 c0,1.2-1.2,2.4-2,3.7c0.4,0,1,0,2.1-0.1c-0.6,2,1.3,4.6-1.6,6.1c2.4,4.7,1.3,6.9-3.5,7.2c1.1,0.2,2.2,0.3,3.3,0.5 c-1.1,4.8-3.3,6.6-9.3,7.6c0,1.6,0,3.1,0,4.8c12.3,0,24.4,0,36.6,0c0-1.6,0-3.2,0-4.7c-7.2-1.6-10.7-5.2-11.2-12.8 c-0.5-8.7-0.5-17.4-0.6-26.1c0-0.2,0.2-0.3,0.3-0.6c15.7,0,31.5,0,47.2,0c0,8.5,0.1,16.8-0.1,25.1c0,2-0.6,4.1-1.2,6.1 c-1.5,4.8-4.4,8.1-10,8.1c0,1.7,0,3.3,0,4.9c12.3,0,24.5,0,36.7,0c0-1.7,0-3.2,0-4.9c-4,0.5-4.1-1.9-3.8-4.7c0.1-1-0.1-2.1-0.1-3.2 c0-3.4,2.5-5.3,5.7-4.1c1.7,0.6,3.3,1.6,4.7,2.8c1.4,1.2,2.6,1.2,4.2,0.5c1-0.5,2.1-0.9,3.2-1.3c4.1-1.5,7.6-3.5,8.8-8.1 c0.3-1.3,1.2-2.6,2.1-3.7c1.3-1.7,2.8-2.8,5.4-2.2c5.6,1.2,9.9,0,13.7-3.2c0.4,7.2,1.9,14-1.2,20.7c-2.2,4.9-4.1,6.1-9.5,6.6 c0,1.6,0,3.1,0,4.9c12.1,0,24.3,0,36.5,0c0.1-1.6,0.3-3.1,0.4-4c-2.6-1.3-5.2-2.2-7.2-3.8c-3.6-3-4.1-7.6-4.2-12 c-0.3-8.4-0.1-16.9-0.1-25.3c7-1.5,12.7-5,17.8-9.7c2.3-2.1,5.3-1.7,7.7,0c2.9,2,5.3,1.7,8.3-0.1c3.1-1.9,5.8-3.8,8.2-6.5 c1.6-1.8,4.1-3.1,6.4-4c3.7-1.3,7.4,1.4,7.4,5.2c0.2,13.8,0.3,27.6,0.2,41.4c0,2.9-0.9,6-2.1,8.7c-1.6,3.5-4.7,5.5-9,5 c0,1.8,0,3.6,0,5.1c12.2,0,24.2,0,36.3,0c0-1.8,0-3.3,0-4.8c-6.2-1-9.9-4.7-10.6-11c-0.3-2.9-0.6-5.9-0.6-8.8c-0.1-19,0-38,0-57 c0-1,0-2,0-3.9c4.5,6,8.5,11.4,12.5,16.8c14.2,19.2,28.4,38.3,42.7,57.5c2.5,3.3,4.9,6.7,7.5,10c0.4,0.5,1.1,1.2,1.7,1.2 c5.4,0.1,10.7,0.1,16.1,0.1c0.1-1.8,0.2-3.3,0.3-4.7c-6.6-0.7-11-4.7-11.1-14.1c-0.2-18-0.2-36.1-0.3-54.1c0-2.3,0.3-4.6,0.8-6.8 c1.1-5.7,4.1-9.5,10.3-10.2c0-1.6,0-3.1,0-4.8c-12,0-23.9,0-36,0c0,1.5,0,3,0,3.8c2.8,1.9,6,3.1,7.6,5.4c1.8,2.5,2.6,6,3.2,9.2 c0.6,3.5-1.5,5.5-5.5,5.5c-4.8-0.1-8.8,1.5-12.4,4.4c-1,0.8-1.9,2.5-1.9,3.8c0,5.5,0.1,5.5-5.2,7.3c0,0.7,0,1.4,0,2.1l0,0 c-4.8-6.6-9.5-13.2-14.3-19.7c-4.9-6.7-9.9-13.3-14.8-20.1c-1-1.4-2-2-3.8-1.9c-7.5,0.1-14.9,0-22.6,0c0,1.8,0,3.4,0,5.2 c0.5,0.1,1,0.4,1.5,0.4c4.2,0.3,6.5,2.8,8,6.4c2,4.8,2,9.8,1.2,15.1c-8.5-3-14.4,0.8-19.5,7c-2.5,3-6.1,3.6-9.5,2 c-4.1-1.8-9.2-1-12.5,2.2c-3.8,3.8-8.5,6.1-13.8,8.2c0-13.8,0-27.3,0-40.9c0.3-0.1,0.9-0.3,1.4-0.3c6.8,0.3,13.6,0.2,20.3,1.2 c5.8,0.8,8.3,4.3,9.1,10.1c1.5,0,3.1,0,4.9,0c0-5.4,0-10.8,0-16.3c-28.5,0-57,0-85.7,0c0,5.4,0,10.8,0,16.4c1.6,0,3.1,0,4.8,0 c0.2-6.5,4.4-9.5,9.8-10.2c6.8-1,13.8-1.1,21-1.5c0,2.3,0,3.8,0,5.3c0,12.2,0,24.4-0.1,36.5c0,1.5-0.7,3.1-1.1,4.6 c-0.6,2.3-1.4,4.5-2,6.8c-0.8,3.2-2.3,5.2-6.3,3.4c-3.2-1.4-6.9-1.9-10.4-2.7c-2.9-0.6-4.4-2-4.6-4.9c-0.2-2.6,0.7-5.6-2-7.4 c-3.5-2.4-7-5.4-11.7-4.5c-4.4,0.8-7.8-0.5-10.7-3.9c-1.1-1.3-2.7-2-4.4-3.1c-0.7,2.1-0.6,3.5,1.1,4.7c1.4,1,2.5,2.3,3.9,3.4 c2.9,2.3,6.4,2.2,9.9,1.9c4.2-0.4,6.9,2.2,9.8,4.5c0.5,0.4,0.6,1.6,0.7,2.4c0.3,8.1,1.5,9.5,9.7,11c-3.9,2-5,5.6-6.3,9 c-1,2.7-2.6,4.3-5.1,5.2c-1,0.4-1.9,0.9-2.8,1.4c-2,1-3.8,1.3-5.7-0.4c-1.1-1-2.6-1.6-4.1-2c-4.5-1.3-7.8,1.3-7.7,6 c0.1,1.9,0.2,3.7,0.3,5.6c-0.3,0.2-0.6,0.3-0.9,0.5c-1-1.1-2.3-2.1-2.8-3.4c-1.1-2.8-2.3-5.7-2.4-8.6c-0.2-19.1-0.3-38.2,0-57.3 c0.1-3.3,1.5-7,3.4-9.7c1.6-2.2,4.8-3.2,7.7-4.2c0.1-0.3,0.2-0.5,0.2-0.8c0.1-4.1,0.1-4.1-4.1-4.1c-10.7,0-21.5,0-32.6,0 c-0.1,1.7-0.2,3.2-0.3,4.9c1.8,0.5,3.7,0.8,5.2,1.6c4,2.3,5.5,6.3,5.9,10.5c0.4,5.4,0.1,10.9,0.1,16.8c-1.8-1.1-3.3-2-4.9-2.9 c-4.5-2.7-9.2-1.8-12,2.6c-1.6,2.5-2.8,5.4-3.9,8.2c-1,2.3-2.3,3.3-4.9,3.2c-6.9-0.2-13.8-0.1-21-0.1c0-6.5-0.1-12.7,0-18.9 c0-3.4,0.1-6.9,0.6-10.3c0.9-5.9,4-10,10.6-10.7c0.1-0.9,0.1-1.7,0.2-2.5c0.3-1.9-0.4-2.5-2.3-2.5c-5.2,0-10.4-0.3-15.5-0.1 c-3,0.1-4.2-2.4-6.5-3.1c-3.1-1-3.1-3.5-2.9-6.1c0.1-1.7-0.6-2.6-2.2-3c-1.4-0.4-2.9-1.1-4.2-1.8c-2.4-1.3-3.6-3.1-1.7-6.1 c14.6,0.8,29.4,1.6,44.1,2.5c21,1.3,42.1,2.7,63.1,4c22.4,1.4,44.7,2.9,67.1,3.9c7.8,0.4,15.7-0.7,23.5-1.2 c18.4-1.1,36.9-2.3,55.3-3.4c11.4-0.7,22.8-1.4,34.1-2c20-1.2,40-2.3,60-3.4c3.9-0.2,7.8,0,11.8,0c0.3,2.6-1,3.9-3.6,4.5 c-5.3,1.1-8.3,5-10.1,9.7c-0.6,1.5,0.1,3.4,0.2,5.5c-0.4,0-1.2,0.2-2,0.2c-8.3,0-16.5,0-24.8,0c-4.8,0-4.8,0-4.3,5.2 c1.3,0.3,2.7,0.4,4,0.9c3.4,1.2,5,4,6,7.2c0.4,1.3,0.7,2.6,0.8,3.9c0.1,1-0.3,2.1-0.4,3.1c-1.3-0.3-3-0.1-3.9-0.9 c-1.4-1.2-2.2-3.1-3.3-4.6c-3.3-4.8-8.3-5.8-13.2-2.7c-1.9,1.2-3.8,2.2-5.6,3.4c-0.6,0.4-1,1.1-1.4,1.7c0.2,0.3,0.5,0.6,0.7,1 c2.5-1.3,5-2.3,7.3-3.8c4.2-2.7,6.8-2.3,9.7,1.9c0.5,0.8,1.1,1.6,1.6,2.4c2,3.2,2.6,3.5,9.1,4.2c0,1.3,0,2.6,0,3.9 c0,12.4,0,24.7-0.1,37.1c0,5.3,0.1,10.6-0.7,15.7c-1,6.9-3.9,9.5-10.6,10.5c0,1.6,0,3.3,0,5c12.3,0,24.4,0,36.6,0 c0.2-1.7,0.3-3.2,0.4-5c-1.2-0.2-2.5-0.3-3.6-0.7c-5.2-1.8-7.1-6.1-7.6-11c-0.6-5.4-0.5-10.9-0.6-16.3c-0.1-13.4,0-26.9,0-40.3 c0-2,0.2-4,0.6-6c1.3-5.6,3.9-10.2,10.7-10.6c-0.3-3.9,2-5.1,5.2-6.7c6.2-3,12.3-3.8,18.9-2.8c1.2,0.2,2.5-0.1,3.7-0.3 C708,424.7,710.2,427.4,711.5,431.4c-1.9-0.5-3.7-1.3-5.6-1.4c-4.2-0.2-8.4-0.1-12.7-0.1c-3,0-6.1,0-9.2,0c0,2,0,3.5,0,5.4 c4.1,0,7.4,1.5,9,5.2c1.2,2.9,2.4,6,2.4,9c0.2,18.8,0.1,37.5,0,56.3c-0.1,8.3-3.9,13-11.1,14.1c0,1.7,0,3.5,0,5 c12.3,0,24.3,0,36.5,0c0-1.9,0-3.5,0-5.2c-4.9,0.1-7.9-2.5-9.4-6.6c-1.1-3-1.8-6.2-1.8-9.4c-0.2-20.2-0.1-40.5-0.1-60.7 c0-0.9,0-1.8,0-3.4c0.8,0.9,1.2,1.3,1.5,1.8c20.3,27.3,40.5,54.6,60.8,81.9c0.5,0.6,1.2,1.5,1.9,1.5c5.4,0.1,10.9,0.1,16.2,0.1 c0.2-1.4,0.4-2.5,0.3-3.5c-0.1-0.6-0.7-1.5-1.2-1.7c-6-1.4-9.9-5.9-10-12.2c-0.2-19-0.3-38-0.3-56.9c0-9.2,2.9-13,11.6-16.1 c-0.4-1.5-0.7-3.1-1.4-4.6c-0.7-1.6-1.7-3-2.5-4.5c-0.2,0.1-0.4,0.2-0.5,0.2c0.4,1.3,0.8,2.7,1.2,4.2c-2.7,0-5.1,0-7.6,0 c-0.1-0.5-0.2-1-0.2-1c-2.1,0.4-4,1.1-5.8,1.1c-5.4,0.2-10.7,0.1-16.1,0.1c-1.2,0-2.4,0-3.6,0c0,2,0,3.5,0,5 c7.5,0.5,10.6,7.3,10.7,14.4c-0.7-0.3-1.3-0.6-1.9-0.9c-0.3,0.2-0.6,0.4-0.9,0.6c3.3,1,3.1,3.4,3.1,5.7c-0.1,16.1-0.1,32.2-0.1,48.3 c0,0.4-0.1,0.8-0.2,1.3c-0.8-0.8-1.4-1.4-1.9-2.1c-9.2-12.5-18.5-25.1-27.7-37.6c-7.7-10.4-15.4-20.8-23.1-31.2 C711.4,433,711.6,432.1,711.5,431.4z M292.7,479.7c6.7,0.9,9.7,5.5,10.4,11.4c0.6,5.6,0.3,11.3,0.4,16.9c0,0.5-0.5,1.2-1,1.6 c-7.1,5.8-15.3,9.3-24.4,9.9c-13.1,0.9-24.2-3.7-33.6-12.7c-2-1.9-3.2-4.1-3.1-7.2c0.2-14.9,0.2-29.7,0.1-44.6 c0-2.6,0.9-4.3,2.5-6.1c8.2-8.5,18.1-13.2,30-13.4c11.4-0.2,21.6,3,30,10.9c1,0.9,2.8,1,4.4,1.6c0-7.6,0-14.4,0-21.3 c-1.6,0-3,0-4.6,0c-0.1,0.7-0.1,1.2-0.3,1.7c-1.2,4.7-5.5,7.4-9.3,5.8c-9.2-3.9-18.7-5.1-28.5-3.1c-10.5,2.1-19.3,7.3-26.4,15.3 c-4.9,5.6-8.1,12-10.2,19c-0.9-0.3-1.7-0.6-2.3-0.9c0.5,1.7,1.6,3.4,1.4,4.9c-1.6,11.6,0.3,22.6,6.4,32.6c8,13.3,20.1,21,35.4,22.7 c14.1,1.6,26.7-2.6,37.3-12.1c0.9-0.8,1.5-2.2,1.5-3.4c0.1-4.6-0.3-9.2,0-13.8c0.7-8.1,2.4-14.1,11.2-15.9c0-1.3,0-2.6,0-4.1 c-8.5,0-16.8,0-25.1,0c-0.6,0-1.3,0.1-2.1,0.2C292.7,476.9,292.7,478.1,292.7,479.7z M870.8,426.4c-1.6,7.7-4.8,9.4-11.9,6.8 c-3-1.1-6.1-2-9.2-2.5c-8.2-1.3-16.2-0.8-24,2.2c-21.9,8.5-36.3,31.4-29.2,57.6c5.1,18.7,21.2,32.2,40.5,34.2 c14,1.4,26.6-2.5,37.1-12.1c0.9-0.8,1.5-2.2,1.5-3.4c0.2-4.8-0.3-9.6,0.1-14.4c0.9-9.4,3.1-13.5,11.2-15.6c-0.2-1.2-0.3-2.5-0.5-3.6 c-9.1,0-17.9,0-26.7,0c0,1.4,0,2.7,0,3.9c5.8,0.9,8.7,4.6,10.2,9.8c1.7,6.1,0.2,12.4,0.5,18.6c0,0.6-0.8,1.5-1.4,2 c-6.7,5.8-14.7,8.9-23.3,9.6c-13.2,1.1-24.7-3.4-34.2-12.7c-2-2-3.2-4.1-3.2-7.3c0.2-15.1,0.1-30.1,0.1-45.2c0-1.3,0.4-2.9,1.2-3.9 c7.5-9,17.2-13.8,28.8-14.7c4.5-0.4,8.9,0.3,13.4,1.2c7.1,1.4,12.9,4.8,18.4,9.1c1.3,1.1,3.1,1.6,5.2,2.6c0-8,0-15,0-22.2 C874,426.4,872.5,426.4,870.8,426.4z M133.8,519.6c-0.1-0.7-0.1-1.1-0.1-1.4c0-22.6-0.1-45.3,0-67.9c0-8.5,3.2-12.6,11.3-15.5 c0-1.5,0-3,0-4.5c-11.7,0-23.3,0-34.8,0c0,1.8,0,3.3,0,4.7c6.8,1.7,9.1,3.8,10.6,10.2c0.5,2,0.7,4.2,0.7,6.3c0.1,16.7,0.1,33.4,0,50 c0,2.6-0.2,5.2-0.6,7.7c-1,6.3-4.5,9.8-10.7,10.8c0,1.7,0,3.3,0,4.9c22.5,0,44.8,0,67.5,0c0-4.3,0-8.4,0-12.5c0-4.3,0-4.3-4.4-4 c-0.2,0-0.3,0.2-0.5,0.3c-0.9,7.5-6,10.3-13.3,10.9C151.2,520.2,142.6,519.6,133.8,519.6z M194.9,475c3.4,0.7,2.9,3.2,2.8,5.5 c-0.1,8.5-0.1,17-0.2,25.6c0,7.7-3.5,12.2-11,13.9c0,1.6,0,3.1,0,4.7c12.3,0,24.4,0,36.6,0c0-1.8,0-3.3,0-5 c-6.4,0.1-9.3-3.8-10.6-9.1c-0.7-2.8-0.9-5.8-0.9-8.7c-0.1-17.2-0.1-34.3,0-51.5c0.1-9.2,3.1-13.3,11.3-15.8 c0.5-4.7,0.5-4.7-3.9-4.7c-9.8,0-19.6,0-29.3,0c-1,0-2,0-3.1,0c0,1.9,0,3.3,0,4.9c6.1,0.6,9.3,4.3,10.4,10c0.4,1.9,0.6,3.8,0.7,5.7 c0.1,7.5,0,14.9,0,22.4c0,0.7-0.1,1.4-0.2,2.3C196.4,475.2,195.7,475.1,194.9,475z"></path> <path style="fill:#FFCE00;" d="M659.5,335.6c2.6,0.2,5.1,0.3,7.7,0.5c0.1-1,0.1-1.8,0.2-2.5c0.1-2.6,1.3-4.5,3.8-5.6 c2.2-1,4.2-0.3,5.7,1.3c1.9,1.9,2.2,4.2,1.1,6.6c-2.4,5-4.8,10-7.2,14.9c-3.3,6.8-6.7,13.6-10.3,20.9c4.5-0.4,8.6-0.8,11.5-1.1 c1.9,2.1,2.9,3.8,4.4,4.9c2.1,1.6,4.7,2.5,6.9,4.1c1.8,1.3,3.4,3,4.7,4.7c2,2.6,1.9,5.2,0.3,8.2c-0.9,1.6-1.6,2.6-3.5,2.7 c-0.7,0-1.4,1-1.9,1.8c6.5,0.9,6.5,0.9,8.6,5.9c-1.9,0.2-3.7,0.5-5.5,0.6c-20.4,1.3-40.7,2.7-61.1,3.9c-26.6,1.6-53.2,3.1-79.8,4.6 c-14.8,0.8-29.6,1.8-44.5,2.1c-8.3,0.2-16.6-0.7-25-1.2c-15.7-0.9-31.4-1.9-47-2.8c-24.3-1.5-48.6-2.9-72.9-4.4 c-7.5-0.4-14.9-0.8-22.4-1.4c-2.4-0.2-4.7-0.7-7.4-1c0.3-1.1,0.2-2.2,0.7-3c2.3-3.4,1.1-6.8-0.1-10c-1.1-3.1-2.7-6-4.6-10.1 c-1.3,1.6-2,2.8-3,3.8c-1.2,1.3-2.4,2.5-3.8,3.5c-4.3,3.4-7,3.1-10.4-1.3c-1.7-2.2-3.4-4.3-4.9-6.6c-0.4-0.6-0.2-1.5-0.2-2.3 c0-1.3,0-2.7,0-4.3c-1-0.1-1.8-0.1-2.5-0.1c-2.3,4.9-1.2,8.8,2.2,12.4c1.2,1.2,1.9,3,3.2,5.1c-5.2-0.9-10.1-0.3-13.7-4.3 c-0.6-0.7-1.8-1-2.7-1.1c-3.9-0.4-7.9-0.7-12-1c4.9,1.4,9.4,3.7,12.3,7.9c-4,0-8.2,0.1-12.4,0c-4.2-0.2-8.3-0.8-12.5-1 c-8.1-0.5-16.2-0.8-24.3-1.2c-10-0.5-20-1.2-29.9-1.8c-5.9-0.4-11.8-0.8-17.7-1.1c-10.1-0.6-20.2-1.2-30.2-1.8 c-4.5-0.3-9.1-0.8-13.6-1c-3.8-0.2-4.1-0.4-3.7-4.2c1.3-13.3,7-23.9,18.8-30.6c4.9-2.8,10.4-4.7,16-7.2c1.2,10.3,2.3,19.9,3.4,29.6 c1.9,0.1,2.9-0.5,2.7-2.4c-0.7-7.5-1.1-15-2.2-22.4c-2.2-15.9-2-31.4,5.6-46c6.5-12.3,15.9-21.8,28.3-28.2 c15.8-8.2,31.5-16.4,47.3-24.6c9.3-4.8,18.6-9.7,27.9-14.5c14.3-7.5,28.7-14.9,43-22.3c10.1-5.2,20.2-10.4,30.3-15.6 c10.1-5.2,20.2-10.4,30.3-15.7c17.7-9.2,35.3-18.6,52.9-27.8c14.4-7.5,28.8-15,43.2-22.5c2.6-1.4,5.1-3,7.8-4.1 c1.2-0.5,3.1-0.5,4.2,0.1c17.4,8.9,34.7,17.9,52,26.8c9.1,4.7,18.3,9.5,27.4,14.3c14.8,7.7,29.5,15.3,44.3,23 c9.3,4.8,18.6,9.7,27.9,14.5c17.9,9.3,35.9,18.7,53.8,28.1c13,6.8,26,13.6,39,20.4c13.4,7,26.9,13.6,40.1,21 c17.5,9.9,28.6,24.8,32.5,44.8c1.6,8.1,1.3,16.1,0.1,24.1c-0.7,4.5-0.8,9.1-1.3,13.6c-0.3,3.5-0.7,7-1.1,10.4 c-0.2,1.8-0.1,2.1,2.8,3c1.1-9,2.1-18,3.2-27c14.9,4.2,27.3,11.1,32.6,26.6c1.3,3.8,1.5,8,2.3,11.9c0.6,3.1-1.3,3.8-3.8,3.9 c-3.3,0.2-6.7,0.4-10,0.6c-8.8,0.4-17.5,0.8-26.3,1.2c-10.1,0.5-20.2,1.1-30.2,1.7c-9.3,0.6-18.6,1.1-27.9,1.7 c-5.9,0.4-11.7,0.9-18.6,1.4c1.3-1.4,2.2-2.1,2.8-3c0.6-0.8,0.9-1.8,1.4-2.7c-0.3-0.2-0.5-0.4-0.8-0.6c-2.5,2-4.9,4-7.4,5.9 c-0.5,0.4-1.5,0.7-1.8,0.4c-4.6-3.6-9.2-1.5-13.9-0.5c-1.9,0.4-4,0-6,0.1c-2,0.2-4,0.6-5.9,1c-1.5,0.4-3,1.4-4.5,1.5 c-4.1,0.2-8.2,0.1-13.2,0.1c1.2-1,1.9-2,2.7-2.1c3.5-0.1,4.4-2.4,4.4-5.2c0-3.2-0.2-6.5-0.6-9.7c-0.3-2.6,1-3.2,3.2-3 c6.1,0.7,6.8,0.1,7.8-6c0-0.3,0.1-0.5,0.2-0.8c12.4-4.2,18.4-11.1,17.5-20.2c-1-10.6-7.3-15.9-21.5-18.1c0.2-1.9,0.4-3.7,0.6-6 c4.2-0.5,8.4-1,12.8-1.5c-0.4-2.7-0.7-5.2-1.2-8.1c-3.4,0.3-6.6,0.7-9.9,1c-2.4,0.3-4.7,0.8-7.1,0.9c-1.9,0.1-2.4,0.9-2.4,2.6 c0.1,3.9,0,7.9,0,11.8s0,7.9,0,11.7c2.5-1.2,4.9-2.7,7.5-3.6c4.6-1.5,9.5,0.9,11.8,5.3c2.4,4.4,1.3,9.2-2.7,12.9 c-3.4,3.1-8.5,3.3-12.5,0.6c-0.9-0.6-1.8-1.3-3-2.2c-0.4,2.9-1,5.5-1.1,8.1c-0.1,2.9,2.7,2.9,4.5,3.6c3.2,1.3,3.3,1.1,2.4,3.7 c-3.3,0.5-7.2,0-9,1.6c-1.9,1.7-1.8,5.6-2.8,9.2c-1.1-0.4-2.6-0.9-4.1-1.6c-3.9-1.8-7.7-3.6-11.5-5.5c-0.9-0.5-1.5-1.5-2.3-2.2 c1-0.5,2-1.4,3-1.6c4.4-0.7,8.9-1.3,13.6-1.9c-0.3-2.8-0.6-5.4-1-8.3c-2.7,0.2-5.2,0.4-7.7,0.7c-2.4,0.3-4.9,0.7-7.6,1.1 c3.3-6.8,6.4-13.3,9.6-19.7c2.7-5.4,3.2-10.7,0-16.1c-3.3-5.5-11.1-8-17.4-5.5C661.9,322.5,657.4,329.7,659.5,335.6z M484.2,405.1 c1,0.2,1.5,0.4,2.1,0.4c7.1,0.1,14.1,0.3,21.2,0.1c9.8-0.3,19.6-1.1,29.4-1.6c11-0.6,21.9-1.2,32.9-1.8c8.8-0.4,17.5-0.8,26.3-1.2 c3.3-0.2,6.6-0.5,9.8-0.8c5.1-17.1,10.1-34.1,15.2-51.1c6.4-21.5,12.9-43,19.3-64.5c2.7-9.2-1.6-17-10.7-19.7 c-26.7-8-53.4-16-80.1-24c-8.8-2.6-16.8,1.6-19.4,10.4c-12.9,42.9-25.7,85.8-38.5,128.8C489.1,388.3,486.7,396.5,484.2,405.1z M481.5,405.3c5.2-17.3,10.3-34.6,15.7-51.7c1.7-5.4,1.6-10.3-0.1-15.8c-9.1-28.7-17.8-57.5-26.6-86.2c-2.8-9-10.5-13.6-19.1-11.1 c-27.2,8.2-54.3,16.5-81.4,24.9c-8.4,2.6-12.6,10.7-10,19.1c11.8,38.5,23.6,77.1,35.5,115.8C424.1,401.9,452.8,403.6,481.5,405.3z M636.2,226.1c2,1,3.6,1.7,5.1,2.5c6.8,3.7,13.6,7.3,20.4,11.1c0.7,0.4,1.6,1.3,1.6,2c-0.4,7.6-1,15.3-1.5,22.9 c-0.5,7-0.9,13.9-1.2,20.9c-0.1,2.3,1.7,3.8,4.5,3.8c1.4-15.1,2.7-30.3,4.1-45.8c8.9,4.6,17.5,9,26,13.6c0.6,0.3,1,1.6,0.9,2.4 c-0.6,8.4-1.5,16.8-1.8,25.2c-0.1,3.8-2.3,8.3,2.2,11.3c0.5,0.3,1,0.6,1.4,1c0.3-0.6,0.7-1.1,0.7-1.7c0.8-8.3,1.5-16.6,2.2-24.9 c0.3-3.2,0.6-6.3,0.9-9.9c7.9,4.1,15.3,7.9,22.7,11.7c4.8,2.5,4.8,2.5,4.2,7.9c0,0.2-0.1,0.4-0.1,0.6c-0.6,8.6-1.3,17.2-1.8,25.8 c-0.2,2.3,2.1,5.7,4.5,6.5c1.1-11.8,2.1-23.5,3.2-35.6c8.4,4.3,16.3,8.5,24.4,12.5c2.2,1.1,3,2.3,2.7,4.8c-0.6,6-1,12-1.3,18.1 c-0.2,3.3,2.1,5.5,4.4,7.7c0.8-8.7,1.6-17.3,2.5-26.1c6.2,2.9,11.7,6,15.9,10.9c8.6,10,10.8,21.5,8.9,34.3 c-1.1,7.2-1.5,14.4-2.2,21.8c0.9,0.1,1.6,0,2.1,0.3c2.8,1.4,3.4,0,3.6-2.5c0.5-5.9,1.5-11.8,1.9-17.7c0.4-5.7,1.3-11.6,0.5-17.1 c-2-14.6-9.8-25.4-22.8-32.4c-12.1-6.5-24.3-12.8-36.5-19.1c-26.1-13.5-52.3-26.9-78.3-40.5C608,205,555.8,177.8,503.6,150.6 c-2.1-1.1-3.8-2-6.6-0.6c-32.4,16.9-65,33.6-97.5,50.5c-12.6,6.5-25.1,13.2-37.6,19.8c-30.9,16.1-61.8,32.2-92.7,48.3 c-15.2,7.9-30.7,15.5-45.7,23.9c-14.2,8-22.1,20.4-21.9,37c0.1,7.8,1.2,15.6,1.9,23.4c0.3,3.4,0.8,6.8,1.2,10.1c2,0,3.7,0,5.4,0 c0-0.8-0.1-1.4-0.1-2c-1-9.5-2.4-19-2.9-28.5c-0.6-11.9,3.7-22.1,12.5-30.2c3.7-3.4,8.1-5.9,13-7.8c0.6,6.6,1.1,12.9,1.7,19.2 c0.4,3.9,0.7,7.8,1.1,11.7c0.1,0.5,0.4,1,0.7,1.4c0.1,0.1,1-0.2,1.1-0.5c0.9-3.3,2.4-6.7,2.4-10.1c-0.1-7.5-0.9-14.9-1.6-22.3 c-0.1-1.8,0.3-2.8,1.9-3.6c7.7-3.9,15.4-8,23.2-12c0.6-0.3,1.3-0.5,2-0.7c1.1,11.8,2.1,23.3,3.3,35.5c3.7-5,4.4-7.5,4.1-12.2 c-0.6-8.2-1.1-16.4-1.6-24.7c0-0.8,0.4-2.2,1.1-2.5c8.5-4.5,17-8.9,25.9-13.5c0.1,1.2,0.3,2.2,0.3,3.1c0.5,6,1.1,12,1.6,18 c0.1,0.6,0.4,1.2,0.7,1.7c0.1,0.1,1-0.1,1.1-0.4c1.4-2.2,3.3-4.1,2.9-7.1c-0.6-5.1-0.6-10.3-1.1-15.5c-0.2-2,0.4-3.1,2.3-4 c4.5-2.1,8.8-4.6,13.2-6.8c3.8-1.9,7.5-3.9,11.7-6c1.1,11.7,2.1,22.9,3.2,34.8c2.6-2.4,4.9-3.5,4.6-7.2c-1-9.4-1.4-18.9-2.1-28.3 c-0.1-1.7,0.4-2.5,1.9-3.3c7.1-3.6,14.2-7.4,21.3-11c1.2-0.6,2.4-1.2,3.9-1.9c1,11.3,2,22.2,2.9,33c3.4,0,4.9-1.3,4.7-4.3 c-0.6-9.6-1.3-19.3-2.1-28.9c-0.2-2,0.2-3,2.2-3.9c4.4-2,8.6-4.3,12.8-6.5c3.9-2,7.7-4,12.1-6.3c1,11.1,2,21.6,3,32.6 c2.1-1.2,4.9-0.7,4.7-3.9c-0.6-9.7-1.3-19.5-2.1-29.2c-0.1-1.7,0.1-2.6,1.6-3.4c6.8-3.5,13.5-7.2,20.2-10.8c2-1.1,4-2,6.4-3.2 c1.1,13.9,2.1,27.4,3.2,41.2c1.8-0.4,3.1-0.7,4.7-1c-0.3-6.4-0.6-12.6-1-18.8c-0.4-7.3-0.9-14.5-1.4-21.8c-0.1-1.9,0.5-3,2.3-3.8 c5.1-2.5,10.2-5.2,15.3-7.8c3.2-1.6,6.4-3.3,9.8-5.1c0.9,12.2,1.8,23.9,2.6,35.5c1.8,0,3.2,0,4.7,0c0-1.1,0-1.9,0-2.8 c-0.6-10.9-1.2-21.8-2-32.7c-0.1-2,0.3-3.2,2.3-4c3-1.3,5.8-3,8.7-4.5c4.9-2.5,9.8-5,14.9-7.7c0.4,19.4,0.9,38.5,1.3,57.7 c3.3-0.3,6.1-0.6,9.3-0.9c0.4-18.9,0.8-37.7,1.3-56.9c8.3,4.3,16.1,8.3,23.9,12.5c0.8,0.5,1.6,2,1.6,3c0.1,2.8-0.3,5.5-0.5,8.3 c-0.8,14-1.5,28.1-2.3,42.1c-0.1,1,0,2,0,3c1.7,0,3,0,4.6,0c0.7-8.8,1.3-17.4,2-26.1c0.7-8.7,1.3-17.4,2-26.3c1,0.4,1.6,0.6,2.2,0.9 c7.4,3.8,14.7,7.8,22.2,11.4c2.3,1.1,3,2.5,2.8,4.9c-0.7,10.7-1.3,21.4-1.9,32.1c-0.3,4.3-0.3,4.3,4.4,5.5c1-12.6,1.9-25.1,2.9-37.6 c0.5,0,0.7-0.1,0.8-0.1c8.8,4.6,17.7,9.1,26.4,13.8c0.7,0.4,1.2,1.9,1.2,2.8c-0.6,9.8-1.4,19.7-2.1,29.5c-0.2,3.3,0.7,4.2,4.6,4.1 c1-10.8,2-21.7,3.1-33.1c9,4.7,17.7,9.2,26.2,13.8c0.6,0.3,0.9,1.6,0.9,2.3c-0.6,9.5-1.3,18.9-1.9,28.4c-0.2,3.2,1,4.4,4.5,4.6 C634.3,247.7,635.2,237.2,636.2,226.1z M811.2,358.9c0.7-6.5,1.1-12.8,2.1-19c4.1-25.8-8.1-50.2-31.4-62.3 c-41.6-21.6-83.1-43.3-124.7-64.9c-51.9-27-103.8-54-155.8-80.9c-0.9-0.5-2.4-0.5-3.3,0c-11.8,6-23.6,12.2-35.4,18.3 c-50.4,26.2-100.8,52.4-151.1,78.6c-31.7,16.5-63.6,32.8-95.1,49.6c-18.2,9.7-28.4,25.3-30.5,45.8c-0.6,6,0.2,12.2,0.7,18.3 c0.6,7.1,1.5,14.3,2.4,21.4c0.1,0.6,0.9,1.5,1.5,1.5c2.5,0.2,5.1,0.1,7.8,0.1c-0.2-1.7-0.3-2.9-0.4-4.1c-0.9-9.5-2.1-19-2.5-28.6 c-0.9-21.3,8.5-37,27.1-46.8c31.4-16.6,63.1-32.9,94.7-49.3c60.2-31.3,120.5-62.6,180.7-94c1.5-0.8,2.6-0.8,4.1,0 c45.4,23.7,90.9,47.3,136.4,71c46.3,24.1,92.6,48.2,139,72.2c20.5,10.7,29.8,30.8,26.7,53.5c-0.9,6.4-1.3,12.9-1.9,19.6 C805.2,358.9,808,358.9,811.2,358.9z M276.8,342.1c8.9-3.9,14.5-2.9,17.9,2.8c2.6,4.5,1.5,9.9-2.8,13.3c-5.3,4.1-9.9,3.1-16.4-3.6 c-0.8,2.3-1.5,4.5-2.4,6.7c-0.6,1.5-0.1,2.4,1,3.4c6.5,5.7,20.4,5.1,25.5-2c6.4-8.7,6-19.9-2.3-26.7c-2.9-2.4-6.7-3.7-10.4-5.6 c0.1-0.3,0.3-1,0.5-1.7c1.2-3.8,1.2-3.7,5.3-3.2c2.9,0.4,5.8,0.5,9,0.8c0-3,0-5.5,0-8.2c-5.3-0.6-10.5-1.1-15.8-1.7 c-2.4-0.3-3.7,0.4-3.9,3c-0.2,2-0.9,3.9-1.4,5.8C279.4,330.8,278.1,336.2,276.8,342.1z M339.3,374.1c-4.1-6.7-7.7-12.7-11.7-19.2 c4.3-4.1,8.5-8.2,13-12.5c-2.6-0.4-4.8-0.9-7-0.9c-1.3,0-2.8,0.5-3.7,1.2c-2.2,1.8-4.2,3.8-6.6,6.1c-2.8-6.4-6.2-11.7-14.4-9.7 c2.9,4.9,5.9,10,8.9,15.2c-5.4,5-10.7,9.9-16.8,15.6c4,0.3,7.2,0.6,10.4,0.7c0.7,0,1.4-0.8,2-1.4c2.9-2.7,5.8-5.5,8.7-8.3 c2.2,3.6,4.3,7,6.5,10.4c0.5,0.7,1.3,1.5,2,1.6C333.2,373.4,335.8,373.7,339.3,374.1z M759.4,326.2c-2.6,0.3-4.7,0.5-6.9,0.7 c-2.1,0.2-3.5,1.1-4.4,3.1c-1.1,2.3-2.6,4.3-4.3,7.2c-2.2-2.5-4-4.6-5.9-6.6c-0.6-0.6-1.4-1.4-2-1.4c-2.8,0.2-5.7,0.7-9.5,1.2 c4.9,4.8,9.1,9,13.2,13.1c-3.7,6-7.4,12-11.5,18.5c3-0.3,5.2-0.6,7.4-0.8c1.9-0.2,3.2-1.1,4.2-2.9c1.8-3.2,3.8-6.3,6.3-10.3 c2.4,2.7,4.4,5.2,6.6,7.4c3.3,3.4,7.7,3.8,11.3,1.7c-4.1-4.4-8.2-9-12.6-13.5c-1.2-1.3-1.4-2.1-0.4-3.6 C753.8,335.7,756.4,331.2,759.4,326.2z M259.9,330.1c-1.4,12-2.8,23.5-4.2,35.1c2.9,0.3,5.4,0.6,8.2,0.9c2-17.4,4-34.5,6-51.7 c-2.6-0.1-17.3,9.8-20,13.1c1.5,2,2.9,4.1,4.4,6.2C256.1,332.6,257.8,331.5,259.9,330.1z"></path> <path style="fill:#FFCE00;" d="M702.4,402.3c2.3-3.4,4.2-5.7,8.3-5.9c13-0.6,25.9-1.5,38.9-2.2c11.7-0.6,23.5-1.2,35.2-1.8 c9.6-0.5,19.2-1.1,28.9-1.6c13.6-0.8,27.3-1.6,40.9-2.4c10.2-0.6,20.4-1.2,30.6-1.8c9.9-0.6,19.8-1.4,29.7-1.6 c10.1-0.3,18.9,6.1,22.6,15.4c9.1,23.5,18.3,46.9,27.5,70.4c1,2.5,2.1,5.1,2.9,7.7c0.4,1.2,0.3,2.7-0.1,3.9 c-6.9,18.4-14,36.9-21,55.3c-3.3,8.6-6.2,17.3-10,25.6c-4.7,10.3-14.7,15.3-26,14c-3.7-0.4-7.4-0.8-11.1-1 c-7.8-0.5-15.6-0.8-23.5-1.3c-12.4-0.7-24.8-1.5-37.1-2.3c-8.9-0.6-17.9-1.1-26.8-1.7c-12.3-0.8-24.6-1.6-36.8-2.3 c-15.9-1-31.9-1.8-47.8-2.8c-16-1-31.9-2.1-47.9-3.1c-17.1-1.1-34.2-2.1-51.3-3.1c-21.4-1.3-42.8-2.7-64.2-4.1 c-20.9-1.3-41.8-2.8-62.8-3.9c-6.5-0.3-13,0.6-19.5,0.9c-7,0.3-13.9,0.3-20.9,0.7c-10.8,0.6-21.7,1.5-32.5,2.2 c-3.6,0.2-7.2,0.4-10.9,0.6c-8.6,0.4-17.2,0.8-25.7,1.2c-10.2,0.5-20.4,1.1-30.6,1.7c-9.8,0.6-19.6,1.2-29.4,1.7 c-10,0.6-20,1.1-30,1.7c-9.2,0.6-18.5,1.2-27.7,1.7c-10.7,0.6-21.3,1.1-32,1.7c-9.9,0.6-19.8,1.2-29.7,1.7 c-10.1,0.6-20.2,1.2-30.3,1.7c-9.8,0.6-19.6,1.2-29.4,1.7c-13.4,0.8-26.8,1.5-40.3,2.3c-8.7,0.5-17.5,1.4-26.2,1.7 c-11.7,0.4-19.8-5.3-24.1-15.9c-8-19.9-15.6-40-23.4-60c-2.4-6.1-4.8-12.1-7.1-18.2c-0.3-0.9-0.3-2,0-2.9 c8.6-22.2,17.2-44.5,25.9-66.6c2.3-5.9,4.5-11.9,7.8-17.2c5.5-8.7,14.1-11.3,24-10.3c4.1,0.4,8.1,0.8,12.2,1 c8.3,0.5,16.6,0.8,24.9,1.2c9.6,0.5,19.2,1.1,28.8,1.7s19.2,1.2,28.8,1.7c9.4,0.6,18.8,1.2,28.3,1.7c10.4,0.6,20.7,1.2,31.1,1.8 c9,0.5,18.1,1.1,27.1,1.7c8.7,0.6,17.5,1.2,26.2,1.7c6.1,0.4,12.1,0.7,18.2,1.2c2.9,0.2,5.8,0.6,8.9,0.9c-0.5,1.6-1,3.2-1.4,4.5 c-4.1,0-8.1,0.2-12.1,0c-16.1-0.9-32.1-1.9-48.2-2.8c-24.6-1.5-49.1-2.9-73.7-4.4c-17.8-1.1-35.6-2.2-53.4-3.3 c-16.2-1-32.3-2-48.5-2.9c-9.5-0.5-16.1,3.8-19.6,12.7c-9.7,24.8-19.4,49.5-29,74.4c-0.6,1.6-0.7,3.8-0.1,5.4 c9.6,24.9,19.5,49.7,29,74.6c2.7,7,9.7,13.2,18.5,12.6c11.3-0.7,22.6-1.3,33.9-1.9c17.4-1,34.8-2,52.2-3c25-1.4,49.9-2.8,74.9-4.2 c15.2-0.9,30.4-1.9,45.6-2.7c18-1,36-2,53.9-3c23.7-1.3,47.4-2.7,71.2-4.1c13.5-0.8,27-1.5,40.4-2.2c13.6-0.8,27.1-1.8,40.7-2.2 c6.7-0.2,13.4,0.5,20,0.9c10.9,0.6,21.8,1.4,32.7,2c9.7,0.6,19.3,1.2,29,1.8c24.1,1.4,48.2,2.8,72.3,4.3c16.7,1,33.5,2.2,50.2,3.3 c19.4,1.3,38.8,2.5,58.2,3.8c16.6,1.1,33.2,2.2,49.9,3.3c16.5,1,33.1,2,49.6,3c14.2,0.9,28.5,1.8,42.7,2.6c5,0.3,10,0.9,14.9,0.3 c6.9-0.8,11.6-5.1,14.1-11.6c9.5-24.7,18.9-49.5,28.6-74.2c1.4-3.7,1.3-6.7-0.1-10.3c-9.4-23.7-18.7-47.3-27.7-71.2 c-3.9-10.3-12.6-14-19.9-13.5c-20.5,1.4-41.1,2.4-61.7,3.6c-20,1.1-40,2.3-59.9,3.4c-18.8,1.1-37.7,2.1-56.5,3.2 c-9.9,0.6-19.8,1.2-29.8,1.7C704.4,402.4,703.7,402.3,702.4,402.3z"></path> <path style="fill:#FFCE00;" d="M579.6,471.6c1.3-0.3,2.6-0.4,3.8-0.9c2.6-1.1,4.2-2.9,4.1-5.9c-0.1-1.6-0.3-3.8,0.6-4.5 c2-1.7,4.6-2.9,7.1-3.9c1.4-0.6,3.2-0.2,4.8-0.5c1.5-0.2,2.9-0.7,4.6-1.2c0,7.9,0,15.7,0,23.5c0,0.2,0,0.4-0.1,0.6 c-0.3,0.7-8.4,4.4-9.2,4.3c-2.4-0.6-4.8-1.2-7.2-1.8c1.2,1.8,3.6,3.3,8,3.1c2.7-0.2,5.4-2.4,8.3-3.8c0,8,0,15.8,0,24.1 c-6.9-9.3-13.4-18.2-20.1-27.1C582.8,475.6,581.2,473.6,579.6,471.6L579.6,471.6z"></path> <path style="fill:#FFCE00;" d="M869.4,384.5c-2.2,0.2-4,0.3-5.9,0.5c-0.5-4.5-0.6-8.8-1.5-12.9c-3.4-15.1-12.5-25.5-26.9-31.3 c-3.2-1.3-6.4-2.6-9.7-3.6c-2.2-0.7-3.2-1.8-2.7-4.1c0.2-1.1,0.1-2.3,0.2-3.8c12.6,4.6,25.4,8.4,34.4,19.2 c8,9.5,12.3,20.4,12.3,32.9C869.5,382.2,869.4,383.2,869.4,384.5z"></path> <path style="fill:#FFCE00;" d="M136.5,383.8c-2.1,0-3.9,0-6.2,0c-0.8-8.8,1.2-17,5-24.7c7.1-14.4,17.5-21.8,41.4-29.8 c0.1,2,0.3,4,0.2,5.9c0,0.6-1,1.2-1.7,1.5c-3.6,1.5-7.3,2.8-11,4.2c-16.9,6.7-27.4,22.1-27.6,40.3 C136.6,382,136.5,382.9,136.5,383.8z"></path> <path style="fill:#FFCE00;" d="M395,474.7c-6.3,0-12.6,0-19.1,0c1.3-2.8,2.4-5.6,3.7-8.3c2.3-4.6,5.3-5.3,9.5-2.7 c0.2,0.2,0.4,0.4,0.7,0.5C395.3,465.7,396,469.7,395,474.7z"></path> <path style="fill:#FFCE00;" d="M702.1,397.3c-1.7,1.9-3.4,3.9-5.4,6.2c-1.3-2.2-2.3-3.9-3.5-6c3-0.3,5.8-0.6,8.6-0.9 C701.9,396.8,702,397,702.1,397.3z"></path> <path style="fill:#FFCE00;" d="M582.2,329.4c1.3,0.5,2.4,0.9,3.6,1.4c-0.7,2.3-1.4,4.6-2.1,7c-5.3-1.6-10.3-3.1-15.5-4.6 c0.7-2.4,1.3-4.6,2-6.9c1.3,0.2,2.4,0.4,3.6,0.7c1-6.8,1.1-6.9-7.4-8.6c-3.8-0.8-2.8,3.4-5,5c1.8,0.6,3,1.1,4.4,1.6 c-0.7,2.3-1.3,4.5-2,6.9c-5.3-1.6-10.5-3.1-15.8-4.7c0.7-2.5,1.4-4.8,2.2-7.3c2.9,1.8,4.2,0.2,5.5-2.2c6.8-12.4,13.8-24.7,20.5-37.2 c1-1.8,1.9-2.1,3.8-1.5c5.8,1.9,5.7,1.8,5.2,7.9C584.1,301,583.2,315.1,582.2,329.4z M568.2,311.2c2.6,0.8,4.7,1.4,7.3,2.2 c0.5-6.1,1-11.8,1.6-17.5c-0.2,0-0.5-0.1-0.7-0.1C573.7,300.8,571.1,305.8,568.2,311.2z"></path> <path style="fill:#FFCE00;" d="M552.4,371.6c-0.7,0.4-1,0.5-1.1,0.7c-3.4,3.7-6.1,4.4-9.5,2.4s-4.9-5.9-3.4-10 c0.8-2.2,1.9-4.5,3.5-6.2c5.9-6.4,13.5-10.2,21.3-14.7c3.9,9.7,10,18.3,8.7,29.2c-0.7,5.9-5.4,9.3-10.4,8c-4-1.1-5.2-4.1-5.6-7.9 c-1.8,3.9-2.2,8-1.3,12.4c-2.8-0.9-5.5-1.7-8.3-2.6C548.9,379.6,551.4,376.3,552.4,371.6z"></path> <path style="fill:#FFCE00;" d="M448.1,371.8c2,3.8,4,7.5,6,11.2c-2.1,0.6-4.5,1.2-6.9,1.9c-0.3-4.1-0.7-8.3-1-12.4c-0.3,0-0.7,0-1,0 c-0.2,0.6-0.4,1.2-0.5,1.8c-0.5,3.9-1.8,5.5-5.4,6.4c-2.7,0.7-6-0.6-7.8-3.1c-2.1-2.9-2.8-6.1-2.3-9.5c0.7-5.8,6.2-19.2,10.3-24.9 c6.3,4.6,12.8,8.9,18.8,13.9c3.8,3.1,6,7.4,4.7,12.7c-0.8,3.3-3,5.1-6.1,5.7c-2.8,0.6-5-0.7-6.6-3c-0.4-0.5-0.6-1.2-0.9-1.8 C449,371.1,448.5,371.4,448.1,371.8z"></path> <path style="fill:#FFCE00;" d="M424.7,283.8c-1.4,0.3-2.4,0.6-3.5,0.8c-0.5-1.6-1-3.3-1.6-5.2c4.6-1.4,9-2.8,13.7-4.3 c0.5,1.8,1.1,3.5,1.6,5.3c-1.2,0.5-2.1,0.9-3.4,1.4c1.5,5,3,10,4.5,15c1.7,5.7,3.5,11.3,5.2,17c0.5,1.7,0.9,3.5,1,5.3 c0.5,7.2-2.8,12.2-9.2,14c-6.7,1.8-12.3-0.8-15.5-7.2c-0.8-1.6-1.3-3.3-2.1-5.2c2.4-0.8,4.5-1.4,6.5-2c1.3,2,2.3,3.9,3.7,5.5 c1.5,1.8,3.5,2.6,5.9,1.7c2.5-0.9,3.5-2.9,3.6-5.3c0-1.2,0-2.5-0.4-3.7C431.5,305.9,428.1,295,424.7,283.8z"></path> </svg> 