<?xml version="1.0" encoding="UTF-8"?> <svg xmlns="http://www.w3.org/2000/svg" xmlns:xlink="http://www.w3.org/1999/xlink" version="1.1" id="Layer_1" x="0px" y="0px" viewBox="0 0 1000 1000" style="enable-background:new 0 0 1000 1000;" xml:space="preserve"> <path id="Shape_00000040541709403781856770000002505458042668340373_" style="fill:#FFCE00;" d="M326.8,429.9 c3-4.1,4.6-9.2,4.4-14.4c0-7.3-2.5-13.6-7.6-18.7c-5.1-5.1-11.4-7.6-18.7-7.6h-32.8v81.9h13.5v-29.8h16l17.3,29.8h14.7l-18.5-31.8 C319.8,437.4,324,434.1,326.8,429.9L326.8,429.9L326.8,429.9z M304.9,429.3h-19.3v-27.4h19.3c3.5,0,6.8,1.4,9.2,4 c5.1,5.5,5.1,13.9,0,19.5C311.8,427.9,308.4,429.3,304.9,429.3L304.9,429.3z M400.3,435.8c-1.3-1.4-2.7-2.9-4.3-4.1 c-1.3-1.1-3.3-2.2-5.9-3.3c-2.7-1.1-4.6-1.9-6-2.4c-1.4-0.5-3.8-1.3-6.8-2.2c-6.2-1.9-10.6-3.8-13-5.5c-2.4-1.6-3.6-4.3-3.6-7.1 c0-3.2,1.1-5.5,3.5-7.4c2.4-1.9,5.4-2.7,9.3-2.7c8.1,0,13.8,3.8,17.3,11.4l11.4-6.5c-2.5-5.4-6.3-10-11.4-13.3 c-4.9-3.2-10.6-4.8-17.3-4.8c-7.3,0-13.5,2.1-18.5,6.3c-5.2,4.3-7.8,10-7.8,17.3c0,3.6,0.6,6.8,2.1,9.7c1.4,2.9,3.5,5.1,6,6.8 c2.4,1.7,4.9,3.2,7.6,4.3c3.2,1.3,6.3,2.4,9.5,3.3c7,2.1,11.7,4,14.6,5.9c2.7,1.7,4.1,4.3,4.1,7.6c0,3-1.4,6-3.8,7.8 c-2.5,2.1-6.3,3-11.4,3c-10.3,0-17.1-4.6-20.4-13.8l-11.6,6.8c2.1,6,6.2,11.2,11.6,14.7c5.5,3.6,12.2,5.4,20.1,5.4 c8.7,0,15.7-2.2,21.1-6.5c5.4-4.3,8.1-10.1,8.1-17.6c0-2.4-0.3-4.8-1-7.1C403,439.3,401.9,437.4,400.3,435.8L400.3,435.8z M414.4,402.1h23.1v69.1H451v-69.1h23.1v-12.8h-59.7V402.1L414.4,402.1z M161.1,471.1h16.6v-41h41.2v-15.8h-41.2v-28.4h42.6V370 h-59.3V471.1L161.1,471.1z M236.8,471.1h13.5v-81.9h-13.5V471.1z M614.6,436.1h32.8v-12.8h-32.8v-21.4h35.7v-12.8h-49.1V471h49.8 v-12.8h-36.3V436.1L614.6,436.1z M855.7,387.6c-11.9,0-21.9,4.1-30.1,12.4s-12.4,18.2-12.4,30.1c0,11.9,4.1,21.9,12.4,30.1 c8.2,8.2,18.2,12.4,30.1,12.4c11.9,0,21.9-4.1,30.1-12.4c8.2-8.2,12.4-18.2,12.4-30.1c0-11.9-4.1-21.9-12.4-30.1 C877.6,391.8,867.6,387.6,855.7,387.6L855.7,387.6L855.7,387.6z M876.3,451.2c-5.5,5.5-12.5,8.4-20.6,8.4c-8.1,0-15.1-2.9-20.6-8.4 c-5.5-5.5-8.4-12.5-8.4-21.1c0-8.4,2.9-15.4,8.4-21.1c5.5-5.5,12.5-8.4,20.6-8.4c8.1,0,15.1,2.9,20.6,8.4c5.5,5.5,8.4,12.5,8.4,21.1 C884.7,438.7,881.9,445.6,876.3,451.2L876.3,451.2z M723.6,429.9c3-4.1,4.6-9.2,4.4-14.4c0-7.3-2.5-13.6-7.6-18.7 c-5.1-5.1-11.4-7.6-18.7-7.6h-32.8v81.9h13.5v-29.8h16l17.3,29.8h14.7l-18.7-31.8C716.6,437.4,720.7,434.1,723.6,429.9L723.6,429.9z M701.7,429.3h-19.3v-27.4h19.3c3.5,0,6.8,1.4,9.2,4c5.1,5.5,5.1,13.9,0,19.5C708.5,427.9,705.2,429.3,701.7,429.3L701.7,429.3 L701.7,429.3z M797.2,435.8c-1.3-1.4-2.7-2.9-4.3-4.1c-1.3-1.1-3.3-2.2-5.9-3.3c-2.5-1.1-4.6-1.9-6-2.4c-1.4-0.5-3.8-1.3-6.8-2.2 c-6.2-1.9-10.6-3.8-13-5.5c-2.4-1.6-3.6-4.3-3.6-7.1c0-3.2,1.1-5.5,3.5-7.4c2.4-1.9,5.4-2.7,9.3-2.7c8.1,0,13.8,3.8,17.3,11.4 l11.4-6.5c-2.5-5.4-6.3-10-11.4-13.3c-4.9-3.2-10.6-4.8-17.3-4.8c-7.3,0-13.5,2.1-18.5,6.3c-5.2,4.3-7.8,10-7.8,17.3 c0,3.6,0.6,6.8,2.1,9.7c1.4,2.9,3.5,5.1,6,6.8c2.4,1.7,4.9,3.2,7.6,4.3c3.2,1.3,6.3,2.4,9.5,3.3c7,2.1,11.7,4,14.6,5.9 c2.7,1.7,4.1,4.3,4.1,7.6c0,3-1.4,6-3.8,7.8c-2.5,2.1-6.3,3-11.4,3c-10.3,0-17.1-4.6-20.4-13.8l-11.6,6.8c2.1,6,6.2,11.2,11.6,14.7 c5.5,3.6,12.2,5.4,20.1,5.4c8.7,0,15.7-2.2,21.1-6.5c5.4-4.3,8.1-10.1,8.1-17.6c0-2.4-0.3-4.8-1-7.1 C799.8,439.3,798.7,437.4,797.2,435.8L797.2,435.8L797.2,435.8z M553.7,370h-37.2v101.1h16.6v-34.7h20.6c9.5,0,17.4-3.2,23.9-9.7 c6.3-6.3,9.7-14.3,9.7-23.6c0-9.5-3.2-17.3-9.7-23.6C571.1,373.2,563.2,370,553.7,370L553.7,370z M565.8,415.8 c-3.2,3.3-7.3,4.9-12.2,4.9H533v-35.2h20.6c4.9,0,9,1.6,12.2,4.9c3.2,3.3,4.8,7.6,4.8,12.7C570.7,408.4,569.1,412.5,565.8,415.8 L565.8,415.8L565.8,415.8z M964.7,389.2v55.6l-38.7-55.6h-10.6v81.9h13.5v-55.6l38.7,55.6h10.6v-81.9H964.7L964.7,389.2z"></path> <path id="Path-5_00000070797526694466132510000000040002632244785069_" style="fill-rule:evenodd;clip-rule:evenodd;fill:#FFCE00;" d=" M22.9,348.5c40.2-21.5,92.2,1.1,96.2,55.9C44.3,410.3,35.3,376.5,22.9,348.5z"></path> <path id="Path-7_00000149367024305364704460000002479639474513150353_" style="fill-rule:evenodd;clip-rule:evenodd;fill:#FFCE00;" d=" M27.2,484.3c40.2,21.5,92.2-1.1,96.2-55.9C48.6,422.7,39.7,456.2,27.2,484.3z"></path> <g> <path style="fill:#FFCE00;" d="M97.2,584.7l15.4-44.7c3.4-10.2,13.5-18.7,26.8-18.7h52c12.2,0,20.3,7.5,16.5,18.7l-15.5,44.7 c-3.4,10-13.3,18.8-26.8,18.8h-51.9C101.7,603.5,93.1,595.9,97.2,584.7z M126.9,583.6h36.5c1.3,0,2-0.5,2.2-1.5l13.7-39.4 c0.4-1.1-0.1-1.5-1.3-1.5h-47.8c-1.3,0-1.9,1.5-0.9,2.3l7.3,6.6l-11,32C125.2,583.2,125.7,583.6,126.9,583.6z"></path> <path style="fill:#FFCE00;" d="M211.4,521.3h35.6c1.1,2.9,2,5.9,3.1,8.7c1.8,4.7,3.6,10.1,4.7,13.3c-1.1,5-1.6,9-2.5,12.3 c11.9-10.8,23.6-21.7,35.3-32.9c0.9-0.9,2.1-1.4,3.5-1.4h31.2c-4.1,3.6-11,9.9-19,17.4l-39.3,36l-8.7,25.2c-0.8,2.2-2.8,3.5-5,3.5 h-23.9c1.9-5.3,4.2-12.3,6.5-18.3c1.3-3.4,2.3-6.8,3.6-10.4c-0.6-1.5-1.2-3.3-2-5l-4.8-12.3c-1.9-5-3.9-10-5.9-15.3 c-2.1-5.2-3.9-9.6-5.3-13.4l-7.7-5C209.6,522.8,210.1,521.3,211.4,521.3z"></path> <path style="fill:#FFCE00;" d="M317.2,584.8c2.5-7.5,4.9-14.4,7.3-21.5c4.1-12,8.6-26.2,11.7-34.9l-7.3-4.8 c-1.3-0.8-0.6-2.3,0.7-2.3h37l-7,20.5c-4.1,11.3-8.6,24.8-11.4,32.9l-7.4,6.6c-0.9,0.8-0.5,2.3,0.8,2.3h42.1c1.3,0,2-0.5,2.3-1.5 l19.8-57.3c0.8-2.3,2.5-3.5,4.9-3.5h23.9c-0.9,3.2-6.6,19.4-11.9,34.3c-3.2,8.9-6.5,18.4-10.1,29.2c-3.9,10.8-12.7,18.7-25.3,18.7 h-53.7C321.6,603.5,313.2,595.9,317.2,584.8z"></path> <path style="fill:#FFCE00;" d="M428.9,603.5c3.6-11,19.5-55.7,26-75l-7.2-4.8c-1.3-0.8-0.6-2.3,0.7-2.3H485l25.7,53.2l2.2-17.2 l12.4-35.9h27.6l-27.2,78.6c-0.8,2.3-2.5,3.5-4.9,3.5h-22.4c-2.5-5.3-8.7-17.2-14.3-28.3c-3.3-6.6-6.8-13.1-10.6-20.5 c-0.5,1.1-16.7,47.5-15.7,45.3c-0.8,2.3-2.5,3.5-4.9,3.5H428.9z"></path> <path style="fill:#FFCE00;" d="M573.1,528.5l-7.2-4.8c-1.1-0.8-0.5-2.3,0.8-2.3h36.4c-10,28.9-15.4,44-18.8,54.2l-1.1,0.9 c-0.8,0.8-2.5,2.1-5.4,4.8c-0.8,0.8-0.4,2.3,0.9,2.3h50.2c-1.3,3.5-4.2,11.6-5.7,16.3c-0.8,2.3-2.5,3.5-4.9,3.5h-71.3 C561.7,561,567.1,546.1,573.1,528.5z"></path> <path style="fill:#FFCE00;" d="M661.4,528.6l-7.2-4.9c-1.1-0.8-0.6-2.3,0.7-2.3h103.1c-3.8,10.8-21.8,64.2-26.5,78.6 c-0.8,2.3-2.5,3.5-4.9,3.5h-24.3l7.3-19.8H670l-5.6,16.3c-0.8,2.3-2.5,3.5-4.9,3.5h-23.9C640.2,589,656.2,544.6,661.4,528.6z M675.8,567h39.5l7.9-23c0.7-1.9-0.1-2.8-2.5-2.8h-42.1c-1.3,0-1.8,1.5-0.8,2.3l4.7,4.2L675.8,567z"></path> <path style="fill:#FFCE00;" d="M752.2,603.5c5.6-16.9,20.5-58.6,26.2-75l-7-4.8c-1.1-0.8-0.6-2.3,0.8-2.3h79.2 c12.2,0,20.3,7.6,16.5,18.7c-6.2,18.4-6.9,23.8-16.2,31c-8.1,6.2-18.1,5.3-19.9,5.6l12,18.9c2.2,3.4-0.2,8-4.3,8h-22.2l-14.4-26.9 h-13.3l-8.1,23.4c-0.8,2.3-2.5,3.5-4.9,3.5H752.2z M792.1,543.5c1.4,1.3,3.2,2.6,4.5,3.9c0.8,0.8,1.5,1.3,2.3,2.1l-2.8,8.1h36.4 c1.3,0,2-0.5,2.3-1.5l0.4-1.1c0.4-0.6,0.5-1.5,0.8-2.6c0.8-2,1.4-4.3,2.2-6.3c0.4-1.3,0.8-2.3,1.2-3.4c0.5-1.1,0.1-1.5-1.2-1.5H793 C791.7,541.2,791.3,542.7,792.1,543.5z"></path> <path style="fill:#FFCE00;" d="M890.5,528.5c-2.3-1.8-4.6-3.3-7.3-4.7c-1.3-0.8-0.7-2.5,0.6-2.5h36.6l-27.2,78.6 c-0.8,2.3-2.5,3.5-4.9,3.5h-23.8C869.2,589.5,884.4,547.1,890.5,528.5z"></path> </g> </svg> 