<?xml version="1.0" encoding="UTF-8"?> <svg xmlns="http://www.w3.org/2000/svg" xmlns:xlink="http://www.w3.org/1999/xlink" version="1.1" id="Layer_1" x="0px" y="0px" viewBox="0 0 1000 1000" style="enable-background:new 0 0 1000 1000;" xml:space="preserve"> <path style="fill:#FFCE00;" d="M121.1,523.5c2.9-1.7,5.7-4.7,8.7-4.8c9.8-0.6,19.8-1,29.5,0.2c3.6,0.4,8.3,4.6,9.8,8.2 c6.2,14.9,11.4,30.2,17.5,47c6.3-16.6,12.4-31.5,17.5-46.8c2.2-6.5,5.5-9,12-8.9c9.1,0.2,18.3-0.2,27.4,0.2c2.5,0.1,4.8,1.9,7.3,2.9 c-1.9,2-3.9,4-5.8,6c-2,2.2-5.7,4.4-5.8,6.7c-0.4,25.1-0.3,50.3-0.3,75.9c2.4,0.3,4.2,0,5.6,0.7c2.2,1,4.1,2.6,6.1,4 c-2.2,1.7-4.4,4.7-6.7,4.8c-12.3,0.5-24.6,0.5-36.9,0c-2.7-0.1-5.2-3.3-8-6.9c15.1,0.6,14.1-8.4,14-17.6 c-0.4-17.8-0.1-35.7-1.5-53.9c-7.7,21.4-15.2,42.9-23.3,64.2c-2,5.2-5.9,9.7-8.9,14.5c-3.2-4.8-7.3-9.3-9.3-14.6 c-7.9-20.4-15.1-41.1-23.9-61.5c0,20-0.2,40,0.3,60c0.1,2.4,3.6,4.7,5.5,7c1.9,2.2,3.9,4.4,6.8,7.6c-26.9,4.3-35.7,2.5-35.9-7 c17.6,1.8,10.6-13,11.3-19.8c1.9-18.7,1.1-37.7,0.2-56.6c-0.2-3.5-5.9-6.7-9.1-10.1C123.9,524.4,122.5,524,121.1,523.5z"></path> <path style="fill:#FFCE00;" d="M723,565.9c9.9-10.4,20-20.7,29.3-31.6c0.6-0.7-4.5-6.2-8-11c1.3-6.1,5.4-6.9,39.5-4.1 c-0.5,2.7-0.7,7.5-1.6,7.6c-17.6,3-23.4,20.1-37.5,29.1c15.3,18.8,20.8,43.2,42.9,59.2c-2.3,1.4-5,4.4-7.8,4.6 c-10.5,0.6-21.1,0.4-31.7,0.1c-3-0.1-6-1.7-9-2.7c2.1-2.2,4.3-4.3,7-7.1c-6-10.2-12.3-21.1-18.7-32c-10.3,7.3-9.6,27.8,0.4,33 c2,1,2.7,4.4,5.2,8.8c-10.4,0-18.3,0-26.3,0c-8,0-16.1,0-24.1,0c-0.6-1.2-1.1-2.4-1.7-3.7c4.1-2.5,8.1-5,13.5-8.4 c0-23.4,0.3-48.5-0.4-73.6c-0.1-3.1-6-6-11.2-10.8c1-0.8,3.6-4.5,6.4-4.6c12.3-0.7,24.6-0.6,36.9,0c2.7,0.1,5.3,3.2,9.5,5.8 c-15.1,5.4-15.1,5.4-15.1,19.5c0,6.9,0,13.7,0,20.6C721.4,565,722.2,565.5,723,565.9z"></path> <path style="fill:#FFCE00;" d="M977.3,604.1c3.6-3.2,7.1-6.3,12.2-10.8c2.6,22.3-12,33.5-29.1,25.8c-3.4-1.5-5.8-6.6-7.1-10.6 c-2.4-7.1-3-14.8-5.4-21.9c-2.3-6.8-5.4-13.9-15.9-12.5c0,8.1,0.5,16.1-0.1,24c-0.6,8.7,1,14.7,12.7,12.6c0.3,1,0.6,1.9,0.9,2.9 c-2.5,2-4.8,5.5-7.5,5.9c-20.9,3.4-40.9,0.2-43.7-7.3c3.7-0.8,7.2-1.7,11.6-2.7c0-24.5,0.3-49.3-0.3-74c-0.1-2.8-5-5.4-7.5-8.3 c-1.5-1.7-2.6-3.7-3.9-5.5c1.9-1.1,3.8-3.3,5.7-3.2c20.2,0.5,40.5,0.6,60.7,2.3c9.5,0.8,18.1,6.7,19.7,17 c2.9,18.6-1.4,25.4-18.4,33.1c3.9,5.2,8.8,9.9,11.5,15.7C975.9,592.4,976.2,599.1,977.3,604.1z M931.9,567.6 c8.1-3.8,17.3-5.2,18.7-9.3c2.6-8,2-17.7,0.2-26.1c-0.5-2.4-9.5-3.7-14.7-4c-1.2-0.1-3.8,5.7-4,8.9 C931.5,545.7,931.9,554.4,931.9,567.6z"></path> <path style="fill:#FFCE00;" d="M543.5,479.8c3.4-2.6,6.8-5.2,11.6-9c0-22.9,0.2-47.9-0.3-73c0-2.3-3.7-4.5-5.7-6.7 c-1.9-2-3.9-4-5.8-6c2-1,4.1-3,6.1-3c19.5,0.5,39.1,0.4,58.5,2.5c9.2,1,17.5,7.1,19.6,17.6c2.5,12.6-1.3,18.9-16.6,28.1 c2.9,0.9,5.6,1,6.8,2.3c5,5.3,12,10.4,13.5,16.8c2.4,9.5,1.7,20.8-9.5,26c-7.9,3.6-16.6,7-25.1,7.6c-16.7,1.2-33.6,0.3-50.4,0.3 C545.4,482.3,544.4,481,543.5,479.8z M581.2,438.8c0,7.7-0.4,15.7,0.2,23.6c0.3,4,1.5,10.3,3.9,11.2c5.7,2.1,12.2,1.6,16.7-4.7 c4.5-6.2,5.6-20.1,1.3-26.5C597.6,433.9,590,434.6,581.2,438.8z M581.3,426.3c0.9,0.9,1.8,1.7,2.8,2.6c5.1-3.3,12.2-5.4,15-10 c4.6-7.5,5-16.9-2.1-23.9c-2.5-2.5-7.4-3-11.3-3.4c-1.3-0.1-4.1,3-4.1,4.7C581.1,406.3,581.3,416.3,581.3,426.3z"></path> <path style="fill:#FFCE00;" d="M672.4,566.8c-2.8,17.7-3.8,35.9-21,47.2c-28.4,18.6-70.3,2-73.4-32.6c-1.8-20.7-0.1-39,15.9-53.8 c14-12.9,30.9-10.6,47.2-7.2c16.5,3.5,23.8,16.7,28.7,31.2C671.4,556.4,671.6,561.7,672.4,566.8z M645.7,567.9 c-2.1-10.3-4.1-20.6-6.4-30.9c-2.1-9.6-11-11-17.8-10.5c-4.5,0.3-10.5,6.5-12.3,11.3c-7.8,20.7-6.8,42,0,62.8 c2,6.2,6.4,12.5,15,12.2c8.1-0.2,13.3-4.9,15.2-12C642.1,590.3,643.6,579.4,645.7,567.9z"></path> <path style="fill:#FFCE00;" d="M255.4,433.5c-1.3-15,0.9-28.4,12.1-39.4c24.9-24.7,66.3-15,77.5,18.1c6.7,19.8,5.2,38.2-6.9,55.6 c-14,20.2-48.9,23.7-67.1,7.1C258.3,463.5,253.5,449.7,255.4,433.5z M323.6,430c-2.6-10.7-4.2-19-6.6-27.1 c-2.2-7.3-7-15.2-14.8-13.2c-6.7,1.7-15.3,8-17.3,14.2c-6.5,20-6.1,40.9,1.4,60.7c1.9,5,8.7,9.9,14.2,11.3c7.5,1.9,13.5-3.8,15.4-11 C319.2,452.8,321.4,440.3,323.6,430z"></path> <path style="fill:#FFCE00;" d="M485.2,382c32.4-5.2,52.2,32.6,46.1,58.5c-3.4,14.5-6.1,28.1-19.3,36.9 c-15.7,10.4-33.6,11.2-49.3,3.4c-15.9-7.9-24.4-23.1-23.7-41.9c0.3-8.2-1.1-16.7,1-24.4C445,395.4,459.9,379.1,485.2,382z M463.4,431.4c2,11.1,3.2,21.7,6.1,31.8c2,6.9,6.2,13.3,15.2,13.2c8.1-0.1,12.5-5.2,15.4-12c0.7-1.6,1.6-3.1,2-4.7 c4.7-18.3,4.9-36.7-0.4-54.7c-2.3-7.9-6.9-17.6-16.6-15.3c-6.2,1.4-12.8,8.7-15.7,15C465.6,412.8,465.3,422.5,463.4,431.4z"></path> <path style="fill:#FFCE00;" d="M878,619.3c-26.5,0-53.1,0-79.8,0c-1.4-7.8-1.4-7.8,10.4-9.3c0-25.3,0.2-50.8-0.3-76.2 c0-2.1-4-4.2-6.2-6.3c-1.8-1.8-3.5-3.6-5.2-5.4c1.8-1.2,3.6-3.5,5.4-3.5c24.5-0.2,49-0.2,73.7-0.2c1,12.3,1.9,23.6,2.8,35.1 c-8.8,3.2-10.1-2.1-11.2-8.5c-1.3-8-3.8-15.7-13.3-17.5c-16.8-3.1-19.7-0.7-19.7,16.2c0,6.6,0,13.2,0,20c9.6-0.6,16.6-3,16.5-14.2 c0-1.9,3.7-3.9,5.6-5.9c1.8,2.2,5.1,4.4,5,6.5c-0.2,12.1-1,24.2-2.1,36.3c-0.2,2-3,3.8-4.7,5.7c-1.4-2.1-3.9-4.2-4-6.4 c-0.8-9.7-5.5-14.4-16.4-14c0,11-0.1,21.8,0.1,32.5c0,1.8,1,4.4,2.3,5.4c8,5.9,27.4-0.5,30.5-10c1.6-4.9,2-10.1,4-14.8 c1-2.3,4.3-3.7,6.6-5.6c1.2,2.5,3.2,5,3.3,7.5c0.3,5.5-0.2,11.1-0.9,16.6C880.1,608.7,879,613.7,878,619.3z"></path> <path style="fill:#FFCE00;" d="M725.7,483.4c-24.8,0-49.7,0.1-74.6-0.2c-2,0-4-2.8-5.9-4.3c1.7-1.5,3.7-2.9,5.1-4.6 c2.3-2.7,5.9-5.7,6-8.6c0.5-22,0.5-44,0-66c-0.1-2.9-3.7-5.9-6.1-8.6c-1.6-1.8-3.9-3.1-6-4.6c2.4-1.5,4.7-4.3,7.1-4.3 c23.9-0.3,47.8-0.2,72.6-0.2c0.8,11.9,1.6,23.4,2.3,35.3c-7.8,3.1-9.4-1.6-10.7-7.6c-4-17.2-8.9-20.8-26.2-18.2 c-2.6,0.4-5.4,4.1-6.6,6.9c-1.1,2.7-0.3,6.2-0.3,9.3c0,6.6,0,13.2,0,19.8c9.9-0.5,16.7-3.3,16.5-14.5c0-1.8,3.8-3.7,5.8-5.6 c1.7,2.2,4.9,4.6,4.8,6.7c-0.5,13.1-1.9,26.1-3,40.6c-11.5-2.3-6.8-24.5-24.1-18.2c0,9.9-0.1,20.7,0.1,31.4c0,1.9,0.9,4.4,2.3,5.4 c7.9,5.9,27.4-0.5,30.5-9.9c1.7-5.2,2.4-10.7,4.4-15.8c0.8-2,4-3.1,6.1-4.6c1,2.2,2.8,4.4,3,6.7c0.3,5.6,0.3,11.2-0.3,16.7 C728.3,471.6,727,476.6,725.7,483.4z"></path> <path style="fill:#FFCE00;" d="M115.8,619.9c-16.3,0-29.7,0.2-43-0.2c-3.2-0.1-6.4-2-9.6-3.1c2.7-1.9,5.5-3.8,9.8-6.9 c-5-8.7-10.4-18.2-16.5-29c-6.9,11-12.7,20.2-19,30.4c2.2,0.8,3.7,1.1,5,1.8c1.5,0.9,2.8,2.2,4.2,3.4c-1.7,1.2-3.4,3.3-5.1,3.4 c-9.1,0.3-18.2,0.2-27.7,0.2c-2-5-3.4-8.6,4.3-9.3c3.3-0.3,7.3-2.7,9.3-5.4c6.6-8.8,13.5-17.7,18.2-27.5c2.2-4.5,0.8-12-1.4-17 c-4.1-9-9.7-17.4-15.4-25.6c-2.2-3.1-6.4-4.8-9.4-7.4c-2.2-1.9-3.9-4.2-5.9-6.3c0.6-0.9,1.3-1.8,1.9-2.7c12.9,0,25.9-0.3,38.8,0.2 c3.8,0.2,7.6,2.8,11.4,4.3c-3,2.2-6.1,4.4-9.9,7.1c4.3,6.5,9.1,13.9,14.5,22.1c5.3-7.9,10-14.9,14.1-21.1c-3.1-3.5-5.5-6.3-8-9.1 c3.7-1.2,7.4-3,11.2-3.4c5.6-0.6,11.3-0.7,16.8,0.1c3.2,0.4,6.1,2.9,8.8,5.9c-23.6,4.8-24.6,27.5-36.5,39.3 c8.3,13.5,15.6,26,23.7,38c2.6,3.8,7.7,5.8,11.2,9.2C113.2,612.8,113.8,615.7,115.8,619.9z"></path> <path style="fill:#FFCE00;" d="M380.9,614.4c-2.1,4.1-4,7.7-5.8,11.4c-1.7-1.4-3.3-2.9-5-4.3c-1.6-11.8-3.5-23.7-4.6-35.6 c-0.2-2,2.8-5.3,5-6.1c1.3-0.5,5.1,2.4,5.9,4.5c4.2,10.8,8.3,21.6,20.3,26.2c4.1,1.6,9.6,3.5,12.9,2c5.4-2.5,11.8-6.9,13.6-12 c1.1-3.2-4.2-10.9-8.5-13.3c-9.8-5.6-20.9-8.9-31.3-13.7c-9.3-4.3-16.4-21.2-13.9-32c3.1-13.7,13-23.2,25.8-22.7 c10.2,0.3,20.4,2.7,30.5,3.9c1.4,0.2,3.1-0.8,4.6-1.4c2.5-1,5-2.2,8.6-3.8c0,14.1,0,26.5,0,38.9c-1,0.5-1.9,1.1-2.9,1.6 c-1.9-2.7-4.6-5.1-5.6-8.1c-3.8-11.6-10.2-21-23-22.7c-4.9-0.6-11.9,1.5-15.1,5c-4.3,4.6-3.8,12.4,2.2,16.1 c8.1,5,17.3,8.3,26.1,12.2c9.7,4.2,19.9,7,23.5,19.4c4.6,16-2.8,32.4-18,37.8C410.6,623.1,394.7,624.4,380.9,614.4z"></path> <path style="fill:#FFCE00;" d="M747.2,421c-0.4-0.1-2.9-0.7-6.2-1.4c0-9.8,0.1-19.6,0-29.3c-0.1-5.7,2.2-8.3,8.1-8.3 c24.6,0.1,49.3-0.1,73.9,0.3c2.4,0,6.7,2.6,7,4.4c1.5,11.6,2,23.3,2.9,34.9c-6.7,1.7-10.7,1.3-11.7-5.7c-0.8-5.4-1.6-11.3-4.5-15.7 c-2.6-4-7.9-8.1-12.3-8.6c-7.7-0.8-5.5,6.4-5.5,10.8c-0.2,19.2,0.2,38.5-0.2,57.7c-0.2,9,0.1,16.4,13.4,14.5 c0.1,1.1,0.2,2.2,0.3,3.2c-2.7,1.9-5.3,5.2-8,5.3c-13.6,0.6-27.3,0.3-40.7,0.3c-4.5-10.3,3.5-8.6,9.1-9.8c0-25.7,0.1-51.1-0.2-76.5 c0-1.9-2.3-5.4-3.5-5.4c-3.5,0.1-9,0.5-10.2,2.7C754.3,402.6,751.2,411.5,747.2,421z"></path> <path style="fill:#FFCE00;" d="M312.7,619.2c0-2.8,0-5.2,0-8.1c1.7,0.3,3,0.5,4.3,0.8c5.6,1.2,9.1,1.2,6.1-6.4 c-6.8-17.1-6.6-17.2-25.9-17.1c-8.9,0-18.6,12.8-15.5,20.9c0.5,1.4,3,2.2,4.7,3c2.6,1.3,5.3,2.4,7.4,4.7 c-19.6,5.8-33.6,3.6-36.3-4.6c15.9-3.7,15.9-18.8,20.7-30c8-18.9,14.2-38.6,21.9-57.7c1.2-2.9,6.6-5.9,10-5.8c3.2,0.1,8,3.5,9.2,6.5 c10.1,25.2,19.3,50.6,29.3,75.8c1.4,3.7,5.4,6.3,7.8,9.6c1.6,2.1,2.5,4.7,4.4,8.3C343.9,619.2,328.9,619.2,312.7,619.2z M302.1,550.1c-4,12.3-7,21.4-9.8,30.2c7.3,0,13.4,0,20.5,0C309.4,570.8,306.2,561.9,302.1,550.1z"></path> <path style="fill:#FFCE00;" d="M183.8,470.2c4.1,1.7,8.5,5.3,12.1,4.7c3.3-0.6,7.5-5.5,8.2-9.1c1.8-8.4,2.1-17.1,2.4-25.7 c0.4-10.8-0.3-21.7,0.2-32.5c0.5-10.3,0.6-19.6-15.6-16.5c-0.1-1.1-0.1-2.2-0.2-3.4c2.7-1.9,5.3-5.3,8-5.4 c14.4-0.5,28.7-0.3,44.9-0.3c-1.3,3.8-2.1,8.4-3.1,8.5c-10.4,0.3-7.9,7.7-8.1,13.7c-0.7,20.1-1.2,40.3-2.3,60.4 c-0.2,3.5-2,7.3-4.2,10.1c-8.6,11-32.8,13.7-44.6,6c-9.6-6.3-10.7-16-9.2-25c0.8-4.8,7.6-10.3,12.9-12c2.4-0.8,9.7,6.1,11.1,10.6 c2.5,8.3-2.9,12.9-12.1,12.6C184,468,183.9,469.1,183.8,470.2z"></path> <path style="fill:#FFCE00;" d="M369.1,469.7c8.2,8.8,15.9,7.9,18.9-4.3c2.2-8.9,2-18.5,2.4-27.8c0.4-10.5-0.4-21,0.2-31.4 c0.6-10.1-0.4-17.8-14-15.1c-2-7.5,1.8-9.1,7.5-9.1c13.7,0,27.4,0,44.9,0c-3.1,4.3-5,6.6-6.6,9.1c-2,3-5.5,6-5.6,9.1 c-0.5,17.5,0.4,35-0.5,52.4c-0.6,11.8-1,24.2-16.1,29.3c-25,8.3-43.8,0.5-44.3-21.8c-0.1-5,3.9-11.1,7.9-14.8 c2-1.9,9.3-1.3,11.7,0.9c3,2.7,5.6,8.8,4.5,12.3C378.7,462.7,373.3,465.6,369.1,469.7z"></path> <path style="fill:#FFCE00;" d="M508,605.7c9.4,9.4,16.2,8.2,19.5-4.2c2-7.5,2-15.7,2.3-23.6c0.3-11.5-0.4-23.1,0.2-34.6 c0.6-10.3-0.2-18.5-15-15.8c-0.2-1.1-0.4-2.1-0.7-3.2c2.8-2,5.6-5.5,8.6-5.6c14-0.6,28-0.3,44.4-0.3c-1.6,3.8-2.6,8.5-3.8,8.6 c-9,0.4-7.4,6.6-7.5,12.1c-0.7,20.5-0.7,41-2.5,61.4c-0.5,5.4-5.3,11.9-10,15.2c-9.9,6.9-32.5,10.1-41.3-1.1c-6-7.6-8-15.7-5.8-23.7 c1.2-4.6,7.6-9.8,12.5-10.8c2.9-0.6,9.5,5.7,10.8,9.9C521.9,598.6,516.4,603.8,508,605.7z"></path> </svg> 