<?xml version="1.0" encoding="UTF-8"?> <svg xmlns="http://www.w3.org/2000/svg" xmlns:xlink="http://www.w3.org/1999/xlink" version="1.1" id="Layer_1" x="0px" y="0px" viewBox="0 0 1000 1000" style="enable-background:new 0 0 1000 1000;" xml:space="preserve"> <path id="Shape_00000040541709403781856770000002505458042668340373_" style="fill:#FFCE00;" d="M379.2,687.4 c2.1-2.9,3.2-6.4,3.1-10c0-5.1-1.8-9.4-5.3-13c-3.6-3.6-7.9-5.3-13-5.3h-22.8v57h9.4v-20.8h11.1l12.1,20.8H384l-13-22.2 C374.3,692.6,377.2,690.3,379.2,687.4L379.2,687.4L379.2,687.4z M364,686.9h-13.4v-19.1H364c2.4,0,4.7,1,6.4,2.8 c3.5,3.8,3.5,9.7,0,13.5C368.7,686,366.4,687,364,686.9L364,686.9z M430.4,691.5c-0.9-1-1.9-2-3-2.9c-0.9-0.8-2.3-1.5-4.1-2.3 c-1.8-0.8-3.2-1.3-4.2-1.7s-2.6-0.9-4.8-1.6c-4.3-1.4-7.3-2.6-9-3.9c-1.6-1.1-2.6-3-2.5-5c0-2.2,0.8-3.9,2.4-5.2s3.8-1.9,6.5-1.9 c5.6,0,9.6,2.7,12,8l7.9-4.6c-1.7-3.8-4.4-6.9-7.9-9.2c-3.4-2.2-7.4-3.3-12-3.3c-5,0-9.4,1.5-12.9,4.4c-3.6,3-5.4,7-5.4,12 c0,2.6,0.5,4.8,1.4,6.7s2.4,3.6,4.2,4.8c1.7,1.2,3.5,2.2,5.3,3c2.2,0.9,4.4,1.6,6.6,2.3c4.8,1.5,8.2,2.8,10.1,4s2.8,3,2.9,5.3 c0,2.1-0.9,4.1-2.6,5.4c-1.8,1.4-4.4,2.1-7.9,2.1c-7.2,0-11.9-3.2-14.2-9.6l-8.1,4.7c1.4,4.2,4.3,7.9,8,10.3c3.8,2.5,8.5,3.7,14,3.7 c6,0,10.9-1.5,14.6-4.5s5.6-7.1,5.6-12.3c0-1.7-0.2-3.4-0.7-5C432.2,694,431.4,692.6,430.4,691.5L430.4,691.5z M440.2,668h16.1v48.1 h9.4V668h16v-9h-41.5V668L440.2,668z M264,716.1h11.6v-28.5h28.6v-11.1h-28.6v-19.7h29.6v-11H264V716.1L264,716.1z M316.6,716.1h9.4 v-57h-9.4V716.1z M579.4,691.7h22.8v-8.9h-22.8V668h24.8v-9H570v57h34.6v-9h-25.2L579.4,691.7L579.4,691.7z M747,658 c-8.3,0-15.2,2.9-21,8.6s-8.6,12.7-8.6,21s2.9,15.2,8.6,21c5.7,5.7,12.7,8.6,21,8.6s15.2-2.9,21-8.6s8.6-12.7,8.6-21 s-2.9-15.2-8.6-21S755.3,658,747,658L747,658L747,658z M761.4,702.2c-3.9,3.9-8.7,5.8-14.4,5.8s-10.5-1.9-14.4-5.8 c-3.9-3.9-5.8-8.8-5.8-14.6c0-5.9,1.9-10.7,5.8-14.6c3.9-3.9,8.7-5.8,14.4-5.8s10.5,1.9,14.4,5.8c3.9,3.9,5.8,8.8,5.8,14.6 C767.2,693.5,765.3,698.3,761.4,702.2L761.4,702.2z M655.2,687.4c2.1-2.9,3.2-6.4,3.1-10c0-5.1-1.8-9.4-5.3-13 c-3.6-3.6-7.9-5.3-13-5.3h-22.8v57h9.4v-20.8h11.1l12.1,20.8H660l-13-22.2C650.3,692.6,653.2,690.3,655.2,687.4L655.2,687.4z M640,686.9h-13.4v-19.1H640c2.4,0,4.7,1,6.4,2.8c3.5,3.8,3.5,9.7,0,13.5C644.7,686,642.4,687,640,686.9L640,686.9L640,686.9z M706.4,691.5c-0.9-1-1.9-2-3-2.9c-0.9-0.8-2.3-1.5-4.1-2.3s-3.2-1.3-4.2-1.7s-2.6-0.9-4.8-1.6c-4.3-1.4-7.3-2.6-9-3.9 c-1.6-1.1-2.6-3-2.5-5c0-2.2,0.8-3.9,2.4-5.2c1.6-1.3,3.8-1.9,6.5-1.9c5.6,0,9.6,2.7,12,8l7.9-4.6c-1.7-3.8-4.4-6.9-7.9-9.2 c-3.4-2.2-7.4-3.3-12-3.3c-5,0-9.4,1.5-12.9,4.4c-3.6,3-5.4,7-5.4,12c0,2.6,0.5,4.8,1.4,6.7s2.4,3.6,4.2,4.8c1.7,1.2,3.5,2.2,5.3,3 c2.2,0.9,4.4,1.6,6.6,2.3c4.8,1.5,8.2,2.8,10.1,4c1.9,1.2,2.8,3,2.8,5.3c0,2.1-0.9,4.1-2.6,5.4c-1.8,1.4-4.4,2.1-7.9,2.1 c-7.2,0-11.9-3.2-14.2-9.6L667,703c1.4,4.2,4.3,7.9,8,10.3c3.8,2.5,8.5,3.7,14,3.7c6,0,10.9-1.5,14.6-4.5c3.7-3,5.6-7.1,5.6-12.3 c0-1.7-0.2-3.4-0.7-5C708.2,694,707.4,692.6,706.4,691.5L706.4,691.5L706.4,691.5z M537,645.8h-25.9v70.3h11.6V692H537 c6.6,0,12.2-2.2,16.6-6.7c4.5-4.5,6.7-9.9,6.7-16.4c0-6.6-2.2-12.1-6.7-16.5C549.2,648,543.6,645.8,537,645.8L537,645.8z M545.4,677.7c-2.2,2.3-5,3.5-8.4,3.5h-14.4v-24.5H537c3.4,0,6.2,1.2,8.4,3.5s3.3,5.2,3.3,8.8C548.8,672.4,547.7,675.4,545.4,677.7 L545.4,677.7L545.4,677.7z M822.8,659.1v38.7L796,659.1h-7.3v57h9.4v-38.7l26.9,38.7h7.3v-57H822.8L822.8,659.1z"></path> <path id="Path-5_00000070797526694466132510000000040002632244785069_" style="fill-rule:evenodd;clip-rule:evenodd;fill:#FFCE00;" d=" M167.8,630.8c28-14.9,64.1,0.8,66.9,38.9C182.7,673.7,176.5,650.3,167.8,630.8z"></path> <path id="Path-7_00000149367024305364704460000002479639474513150353_" style="fill-rule:evenodd;clip-rule:evenodd;fill:#FFCE00;" d=" M170.8,725.3c28,14.9,64.1-0.8,66.9-38.9C185.7,682.3,179.5,705.7,170.8,725.3z"></path> <path style="fill:#FFCE00;" d="M61.3,604.1c0.9-8.3,0-16.3-3.2-24c-5.8-13.7-15.7-22.8-30.6-25.7c-3.2-0.6-6.6-0.3-10-0.3 c-1.1,0-2.1,0.2-3.3,0.2c0-52.9,0-105.7,0-158.6c14.3,2.2,26.3-2.2,35.8-12.8c9.3-10.4,12.7-22.8,11.4-36.8c2.1,0.1,4.1,0.2,6.2,0.3 c14.6,0.8,29.2,1.6,43.9,2.4c15.3,0.8,30.5,1.5,45.8,2.2c2.9,0.1,5.7,0.2,8.6,0.4c1.1,0.1,1.6-0.1,1.8-1.4 c2.3-18.2,4.7-36.4,7.1-54.6c0.1-0.5,0.2-0.9,0.3-1.4c214.1,20.3,428,20.2,642.1,0c0.6,4.3,1.2,8.6,1.7,13 c1.8,13.7,3.6,27.4,5.4,41.1c0.4,3.3,0.5,3.3,3.8,3.2c20.3-1,40.6-1.9,60.9-2.9c13.4-0.7,26.8-1.5,40.1-2.2c0.4,0,0.8,0,1.3,0 c0,1.3,0.1,2.5,0,3.8c-1.2,18.1,9.9,39.7,31.4,45.3c5.3,1.4,10.7,1.4,16.1,0.5c0,52.9,0,105.7,0,158.6c-0.6,0-1.2,0.1-1.8,0 c-6.5-1-12.8-0.4-18.7,2.2c-16.5,7-24.7,20-26.8,37.3c-0.4,3.4-0.1,7-0.1,10.5c-0.4,0-0.9,0-1.3,0c-0.4-0.1-0.7-0.2-1.1-0.3 c-7.7-0.4-15.3-0.9-23-1.3c-26.4-1.3-52.8-2.7-79.2-3.9c-20.3-0.9-40.7-1.6-61.1-2.4c-18.8-0.7-37.7-1.3-56.5-1.9 c-12.6-0.4-25.2-0.7-37.8-1c-16.4-0.4-32.9-0.7-49.3-1c-13.3-0.2-26.6-0.4-39.9-0.5c-12.2-0.1-24.3-0.2-36.5-0.3 c-12.5-0.1-25.1-0.2-37.6-0.2c-21,0-42.1,0.1-63.1,0.3c-11.9,0.1-23.9,0.2-35.8,0.3c-13.3,0.2-26.6,0.3-39.9,0.5 c-12.6,0.2-25.2,0.5-37.8,0.8c-13.2,0.3-26.5,0.6-39.7,1c-17.7,0.5-35.4,1-53.1,1.6c-18.4,0.6-36.8,1.3-55.2,2 c-21.3,0.9-42.6,1.9-64,2.9c-16.5,0.8-33,1.7-49.5,2.6c-2,0.1-4,0.4-6,0.6C62.4,604.1,61.9,604.1,61.3,604.1z M81.9,579.9 C358,564.8,634,564.6,909.8,580c1.4-3.8,2.5-7.5,4.1-11c4.8-10.2,11.4-19.1,20.5-25.9c5.8-4.3,12-7.7,19-9.7c1.5-0.4,2-1.1,2-2.7 c-0.1-37.2,0-74.4,0-111.5c0-0.4,0.1-0.8,0-1.1c-0.2-0.4-0.5-1-0.8-1.1c-4.7-1.4-9.2-3.3-13.5-5.8c-7.8-4.5-14.3-10.3-19.6-17.5 c-5-6.8-8.8-14.2-10.9-22.5c-0.3-1-0.8-1.4-1.8-1.3c-2.5,0.2-4.9,0.4-7.4,0.6c-6.1,0.3-12.3,0.7-18.4,1c-5.9,0.3-11.7,0.7-17.6,1 c-6.8,0.3-13.7,0.7-20.5,1c-5.3,0.2-10.7,0.5-16,0.6c-1,0-1.3,0.3-1.1,1.4c0.5,3.5,0.9,7,1.3,10.7c-0.8,0.1-1.6,0.3-2.3,0.3 c-13.8,1.2-27.7,2.6-41.5,3.7c-19.3,1.6-38.6,3-57.9,4.4c-15,1-30.1,1.9-45.1,2.7c-11.4,0.7-22.7,1.3-34.1,1.8 c-7.3,0.3-14.7,0.5-22,0.8c-15.1,0.5-30.2,1.1-45.3,1.5c-10.7,0.3-21.4,0.5-32.1,0.6c-15.1,0.2-30.3,0.3-45.4,0.4 c-11.9,0-23.9-0.1-35.8-0.2c-10.3-0.1-20.6-0.2-31-0.4c-14-0.3-28.1-0.6-42.1-1c-10.7-0.3-21.5-0.6-32.2-1 c-14.5-0.6-28.9-1.2-43.4-1.9c-12.8-0.6-25.6-1.4-38.3-2.2c-9-0.5-18-1.1-27-1.8c-16.3-1.2-32.6-2.5-48.9-3.8 c-11.1-0.9-22.3-1.9-33.4-2.8c-2.8-0.2-5.6-0.6-8.5-0.9c0.5-4.1,0.9-8.1,1.4-12.2c-0.7,0-1.2,0-1.6,0c-5.6-0.2-11.1-0.4-16.7-0.7 c-8.5-0.4-16.9-0.8-25.4-1.2c-4.7-0.2-9.4-0.5-14.1-0.7c-7-0.4-14-0.8-21-1.2c-1.2-0.1-2.7-0.6-3.4,0c-0.8,0.6-0.8,2.2-1.2,3.4 c-3.7,11.7-10.2,21.7-19.3,30c-6.7,6-14.3,10.5-22.9,13c-1.5,0.4-2.1,1.1-2.1,2.8c0.1,37.1,0,74.3,0,111.4c0,0.6,0,1.3,0,1.8 C60.4,540.2,74.8,556.5,81.9,579.9z M822.4,381.5c-1.6-13.9-3.1-27.5-4.7-41.1c-1.6-13.7-3.3-27.3-4.9-41c-5,0.5-9.8,1.1-14.7,1.5 c-8,0.8-16.1,1.5-24.1,2.3c-7.6,0.7-15.2,1.3-22.8,2c-7.9,0.7-15.9,1.3-23.8,1.9c-7.7,0.6-15.3,1.1-23,1.6c-6.7,0.5-13.3,0.9-20,1.3 c-5.7,0.4-11.5,0.7-17.2,1c-6,0.3-12,0.7-18.1,0.9c-7.2,0.3-14.3,0.7-21.5,1c-5.2,0.2-10.3,0.4-15.5,0.6c-6.1,0.2-12.3,0.5-18.4,0.6 c-7.6,0.2-15.2,0.4-22.8,0.7c-4.7,0.1-9.5,0.3-14.2,0.3c-10.1,0.1-20.2,0.4-30.3,0.4c-24.8,0-49.6-0.2-74.4-0.3 c-6.3,0-12.5-0.2-18.8-0.3c-4.9-0.1-9.8-0.2-14.7-0.3c-7.5-0.2-15-0.4-22.5-0.6c-6.2-0.2-12.4-0.4-18.6-0.6 c-5.3-0.2-10.6-0.4-15.8-0.7c-5.1-0.2-10.1-0.5-15.2-0.8c-5.9-0.3-11.8-0.6-17.8-0.9c-5-0.3-10-0.5-15-0.8c-8.5-0.5-17-1-25.5-1.5 c-3.6-0.2-7.2-0.4-10.8-0.7c-6.9-0.5-13.8-1.1-20.7-1.6c-3.1-0.2-6.1-0.4-9.2-0.7c-5.9-0.5-11.7-1.1-17.6-1.6 c-4.3-0.4-8.6-0.7-12.8-1c-5.7-0.5-11.3-1.1-17-1.6c-2.7-0.3-5.3-0.6-8-0.8c-3.9-0.4-7.8-0.7-11.7-1.1c-1-0.1-1.4,0.4-1.5,1.3 c-0.5,4.5-1.2,9-1.7,13.5c-0.7,5.9-1.3,11.8-1.9,17.6c-0.5,4.8-1.1,9.6-1.7,14.4c-0.6,5.3-1.2,10.6-1.9,16 c-0.5,4.6-1.1,9.1-1.6,13.7c-0.2,1.7-0.3,3.4-0.5,5.1C387.3,403.8,604.9,403.7,822.4,381.5z M913.2,584.3 c-278.3-15.6-556.6-15.7-834.8,0.2c-0.3-1.3-0.6-2.4-0.8-3.4c-3.5-12.9-10.3-23.8-20.4-32.5c-6.8-5.9-14.6-10-23.4-12.1 c-1.2-0.3-1.5-0.8-1.5-2c0-39.7,0-79.4,0-119.2c0-1.3,0.5-1.6,1.6-1.9c3.1-1,6.3-1.9,9.3-3.2c7.5-3.2,13.9-8.1,19.5-14.1 s9.9-12.8,12.7-20.5c1.2-3.2,2.2-6.6,3.3-10c28.5,1.4,57.2,2.9,85.9,4.3c0.6-4.2,1.1-8.2,1.6-12.3c-1.6-0.1-3-0.3-4.5-0.4 c-5.1-0.2-10.1-0.4-15.2-0.7c-6.7-0.3-13.3-0.6-20-1c-6.6-0.3-13.2-0.7-19.8-1c-6-0.3-12-0.6-18.1-1c-5.9-0.3-11.8-0.7-17.7-1 c-1-0.1-2,0-3,0c-0.2,24.2-18.6,50.1-47.5,49.8c0,48.2,0,96.5,0,144.5c30.5,3.1,44.6,21.3,47.8,50.2c285.1-16.1,570.3-16.1,855.7,0 c0.6-13.3,4.7-25,13.6-34.9c9.1-10,20.6-14.8,34-15.1c0-48.4,0-96.7,0-145c-13.6,0-24.9-5-34-15c-9-9.8-13-21.6-13.6-34.8 c-1,0-1.8,0-2.6,0c-3.2,0.2-6.4,0.4-9.7,0.6c-3.8,0.2-7.6,0.4-11.5,0.6c-8,0.4-16,0.9-24,1.3c-4.1,0.2-8.3,0.4-12.4,0.6 c-7.2,0.3-14.3,0.7-21.5,1c-4,0.2-8,0.2-12,0.4c-1.5,0.1-3,0.3-4.6,0.4c0.5,4.1,1,8.2,1.6,12.3c3.7-0.2,7.4-0.5,11-0.6 c6.8-0.3,13.6-0.7,20.3-1c7-0.3,14-0.7,21-1c5.4-0.2,10.9-0.5,16.3-0.7c2.4-0.1,4.8-0.4,7.2-0.5c3.4-0.1,6.8,0,10.2,0 c6.5,24.3,21.2,41,46.2,48c0,0.5,0,1,0,1.6c0,34,0,68,0,102c0,5.6,0,11.2,0,16.9c0,1-0.1,1.4-1.3,1.8c-3.3,1-6.6,2-9.8,3.4 c-8.5,3.7-15.5,9.5-21.5,16.5c-5.2,6.1-9,13.1-11.6,20.7C914.6,579.4,914,581.8,913.2,584.3z"></path> <path style="fill:#FFCE00;" d="M88,415.6c0-1.4,0-2.6,0-3.7c2,0,4-0.1,5.9,0c5.5,0.2,11,0.5,16.5,0.8c6.5,0.3,13.1,0.5,19.6,0.8 c8.7,0.5,17.2,1.8,24.8,6.6c7.6,4.8,11.6,11.7,12.4,20.6c0.5,5.7-0.1,11.2-2.4,16.4c-2,4.4-5.1,7.8-9.4,10.1 c-0.4,0.2-0.8,0.4-1.1,0.6c2.5,1.2,5,2.3,7.3,3.7c7.5,4.6,11.6,11.7,13,20.2c1.1,6.6,0.8,13.1-1.7,19.4 c-3.7,9.2-10.8,14.8-19.9,18.2c-6.9,2.6-14.2,3.4-21.5,3.7c-7.6,0.2-15.2,0.7-22.8,1c-6.8,0.3-13.6,0.7-20.5,1c0-1.3,0-2.6,0-4 c0.5,0,1-0.1,1.5-0.1c5-0.2,8.9-4,9.1-9.1c0-0.4,0-0.9,0-1.3c0-31.5,0-63,0-94.5c0-3.2-1-6-3.4-8.2c-1.4-1.3-3-2-5-2 C89.6,415.7,88.8,415.6,88,415.6z M122.4,523.5c2-0.1,3.8-0.2,5.6-0.3c8.4-0.4,14.6-4.2,17.9-12.1c3.1-7.6,3.3-15.5,1.5-23.3 c-2-9-7.5-14.8-16.9-16.3c-1.8-0.3-3.7-0.4-5.5-0.6c0-1.3,0-2.4,0-3.6c0.6,0,1.1,0,1.7,0c5.9-0.4,10.4-3,13.1-8.4 c1.5-3,2.2-6.3,2.5-9.6c0.5-5.6,0.1-11.1-1.9-16.4c-3.3-8.5-10.7-10.7-17.9-10C122.4,456.3,122.4,489.7,122.4,523.5z"></path> <path style="fill:#FFCE00;" d="M604.6,439.2c0-1.4,0-2.6,0-4c0.6,0,1.1-0.1,1.7-0.1c4.7,0,9.4,0,14.1,0c11.1-0.1,22.2-0.4,33.2-0.3 c6.4,0.1,12.6,1.5,18,5.1c6.5,4.3,9.6,10.4,9.9,18c0.2,4.6-0.3,9.1-2.1,13.4c-2.9,6.8-7.8,11.3-15,13.5c5.4,3.8,9.4,8.6,12.6,14.3 c3.2,5.8,6.9,11.3,10.6,16.8c1.2,1.9,2.9,3.5,4.5,5c1.8,1.8,4.1,2.7,6.7,2.6c1.3,0,2.1,0.3,1.9,1.8c-0.1,0.6,0,1.3,0,2 c-2.7,0-5.3,0.1-7.9,0c-3.6-0.1-7.1-0.3-10.7-0.5c-11.2-0.5-19.7-5.4-25.1-15.3c-3.7-6.7-7.3-13.5-9.7-20.8 c-0.8-2.7-2.3-5.1-4.8-6.7c-0.5-0.4-1.1-0.7-1.7-1c-2.3-0.9-2.4-1-1.9-3.9c1.1,0,2.2,0,3.3,0c7.6,0,11.3-2.8,13.8-9.9 c2-5.7,2.4-11.3,0.4-17c-2.2-6.3-6.7-8.5-12.2-8.9c-2.5-0.2-5,0-7.6,0c0,0.7,0,1.4,0,2c0,23.4,0,46.8,0,70.2c0,4.3,2.9,7.1,7.2,7.2 c0.6,0,1.3,0,1.9,0c0.1,0.3,0.2,0.4,0.2,0.5c0.2,3.2,0.2,3.2-2.9,3.2c-9.7-0.1-19.4-0.3-29.2-0.4c-3.1,0-6.1,0-9.4,0 c0-1.3,0-2.5,0-4c0.9,0,1.8,0,2.7,0c3.3,0,6.1-2.5,6.4-5.8c0.1-0.6,0.1-1.2,0.1-1.8c0-16,0-32.1,0-48.1c0-6.7-0.1-13.4,0-20.1 c0.1-4.6-3.1-7.6-7.2-7.1C606,439.2,605.4,439.2,604.6,439.2z"></path> <path style="fill:#FFCE00;" d="M878.2,529.9c0,1.3,0,2.5,0,3.9c-15.1-0.6-30.2-1.3-45.3-1.9c0-1.4,0-2.6,0-3.8c0.8,0,1.5-0.1,2.2,0 c5.2,0.5,8.1-4,8.5-7.7c0.1-0.7,0.1-1.4,0.1-2.1c0-31.1,0-62.1,0-93.2c0-0.5,0-1.1,0-1.8c-2.3,0.1-4.4,0.2-6.5,0.3 c-3.9,0.1-7.8,0.3-11.7,0.4c-6.4,0.2-11.9,5.4-12.7,12.3c-0.2,2.1-0.3,4.2-0.5,6.5c-1,0.1-2.1,0.1-3.4,0.2c0-10.3,0-20.6,0-30.8 c2.3,0.6,4.5,1.2,6.8,1.6c5.3,1,10.7,1,16.1,0.7c9-0.5,18-0.7,27-1.1s18-0.6,27-1.4c5.3-0.4,10.5-1.5,15.3-4.1 c0.2-0.1,0.4-0.1,0.7-0.2c0,11,0,21.8,0,32.9c-1.1,0-2.2,0-3.4,0c-0.2-2.3-0.2-4.7-0.5-7c-0.6-5.7-4.1-10.3-9.2-11.4 c-2.5-0.5-5.1-0.3-7.7-0.3c-4.5,0-9.1,0-13.9,0c0,1.1,0,1.8,0,2.5c0,31.7,0.1,63.4-0.1,95.2c0,5.1,3.7,10.9,10,10.3 C877.6,529.8,877.8,529.9,878.2,529.9z"></path> <path style="fill:#FFCE00;" d="M766,525.5c0.8,0,1.5,0,2.1,0c3.7,0,5.6-2.3,4.4-5.8c-1.6-4.8-3.5-9.4-5.3-14.1 c-0.1-0.4-0.9-0.7-1.3-0.7c-4-0.1-8-0.2-12-0.3c-4.7-0.1-9.4-0.2-14.1-0.3c-1,0-1.5,0.2-1.9,1.2c-1.6,4.4-3.6,8.7-5.1,13.2 c-1.1,3.3,0.5,5.5,4,5.9c0.7,0.1,1.5,0.2,2.4,0.3c0,0.6,0,1.2,0,1.9c0,0.6,0,1.3,0,1.8c-3,0-5.7,0-8.5,0c-3.7-0.1-7.4-0.2-11.2-0.3 c-3.2-0.1-6.4-0.1-9.5,0c-1.4,0-2-0.3-1.8-1.8c0.1-0.7,0-1.5,0-2.4c1.5-0.1,3.1-0.1,4.5-0.4c3.9-0.9,6.3-3.7,7.8-7.1 c3.7-8.2,7.2-16.5,10.7-24.8c4.5-10.5,9-21,13.4-31.5c3.6-8.7,7.2-17.5,10.7-26.3c0.6-1.6,0.9-3.3,1.4-5.1c0.6-0.1,1.5-0.3,2.3-0.2 c0.4,0,0.9,0.5,1.1,1c3.2,7.3,6.5,14.6,9.7,21.9c3.8,8.7,7.6,17.5,11.3,26.2c4.1,9.6,8,19.2,12.1,28.8c2.1,5,4.2,10,6.7,14.9 c1.8,3.5,5,5.6,9.1,5.7c1.2,0,1.7,0.4,1.5,1.6c-0.1,0.8,0,1.6,0,2.6c-3.1-0.1-6-0.3-9-0.4c-2.8-0.1-5.6-0.2-8.4-0.3 c-8.5-0.2-17-0.5-25.6-0.7c-1.1,0-1.6-0.3-1.5-1.5C766,527.5,766,526.6,766,525.5z M763.6,496c-3.6-9.3-7.1-18.6-10.8-28.2 c-3.8,9.5-7.4,18.7-11.1,28.2C749.2,496,756.3,496,763.6,496z"></path> <path style="fill:#FFCE00;" d="M181.7,531c0-0.6-0.1-1-0.1-1.4c0-2.6,0-2.5,2.6-2.8c3.3-0.3,5.9-2,7.5-4.7c1.9-3.4,3.5-7,5-10.6 c9.3-22.2,18.5-44.3,27.6-66.5c1.9-4.6,3.5-9.3,5.1-14c0.2-0.7,0.2-1.5,0.4-2.2c2.8-0.5,2.8-0.5,3.7,1.6 c12.5,28.4,25,56.9,37.5,85.3c1.4,3.3,3.4,6.2,6.9,7.5c1.7,0.6,3.6,0.7,5.6,1c0,1,0,2.2,0,3.5c-14.7,0.4-29.3,0.8-44.1,1.2 c0-1.3,0-2.5,0-3.8c1.2-0.1,2.3-0.1,3.4-0.4c2.7-0.8,3.9-3.2,2.9-6.2c-1.6-4.5-3.4-8.9-5.2-13.4c-0.2-0.4-1.1-0.7-1.7-0.7 c-7.1,0.1-14.2,0.2-21.2,0.3c-1.9,0-3.9,0-6,0c-1.1,2.9-2.3,5.8-3.4,8.7c-0.8,2.2-1.7,4.4-2.3,6.7c-1,3.6,0.9,5.9,4.6,5.7 c0.5,0,1.1,0,1.7,0c0,1.3,0,2.6,0,3.9C202.2,530.2,192.1,530.6,181.7,531z M226.1,467.6c-3.8,9.8-7.4,19.2-11.1,28.6 c7.4,0,14.6,0,22.1,0C233.4,486.6,229.8,477.3,226.1,467.6z"></path> <path style="fill:#FFCE00;" d="M591.6,522c0,1.3,0,2.4,0,3.6c-14.7,0-29.4,0-44.2,0c0-1.5,0-2.7,0-4c1-0.1,2.1-0.1,3.1-0.3 c2.9-0.5,4.2-2.6,3.2-5.3c-1.6-4.4-3.5-8.6-5.3-12.9c-0.1-0.4-0.8-0.7-1.2-0.7c-8.9,0-17.8,0-26.8,0c-0.4,0-1,0.3-1.1,0.6 c-1.8,4.3-3.6,8.6-5.4,12.9c-1.1,2.7,1.2,5.9,4.2,5.4c0.6-0.1,1.3,0,2,0c0,1.4,0,2.7,0,3.9c-10.2,0-20.3,0-30.6,0c0-1.3,0-2.5,0-3.8 c1.1-0.1,2.3,0,3.5-0.2c3.9-0.7,6.6-3.1,8.3-6.5c2.4-4.9,4.6-9.9,6.9-14.9c2.4-5.3,4.8-10.6,7.2-16c4.7-10.3,9.4-20.5,14-30.8 c2.5-5.6,4.8-11.2,7.1-16.9c0.5-1.2,0.7-2.5,1.1-3.7c0.1-0.3,0.6-0.7,0.8-0.7c0.9,0.1,2-0.5,2.6,0.9c1.9,4.2,4,8.3,6,12.4 c6.3,13.5,12.6,27,18.9,40.5c4.5,9.6,8.9,19.3,13.4,28.9c1.6,3.3,3.9,6,7.6,7C588.4,521.8,590,521.8,591.6,522z M534,468.1 c-3.8,8.9-7.4,17.5-11.1,26.3c7.4,0,14.6,0,22,0C541.3,485.6,537.7,477,534,468.1z"></path> <path style="fill:#FFCE00;" d="M371.7,465.6c-1.2,0-2.1,0-2.9,0c-1.3-3.4-2.5-6.7-4-9.9c-4.2-8.6-11.1-13.4-20.7-14.4 c-7.7-0.9-14.9,0-21.3,4.7c-5.3,3.9-8.4,9.3-10.3,15.4c-2.6,8.2-3,16.7-2.4,25.2c0.4,4.7,1,9.4,2.7,13.8c3.2,8.3,7.9,15.5,17,18.2 c10,2.9,19.8,1.9,28.4-4.4c4.7-3.4,7.2-8.4,8.8-13.8c1.2-4,2.1-8.1,2.8-12.2c0.3-1.6,0.9-1.8,2.2-1.7c0.4,0,0.8,0.1,1.5,0.1 c0.1,2.3,0.3,4.6,0.4,6.9c0.3,4.6,0.5,9.3,1.1,13.8c0.4,3.3-1.3,5.4-3.2,7.6c-5.9,6.8-13.5,10.5-22.1,12.3 c-6.7,1.4-13.5,1.6-20.3,0.9c-10-1-19.5-3.8-27.6-10.1c-7.1-5.6-11.7-12.9-14-21.5c-3.3-12.5-3.2-24.9,1.7-37 c4.9-12.2,14.1-19.8,26.5-23.8c6.8-2.2,13.8-2.9,21-2.9c9.8,0,19.4,1.5,28.6,4.9c1.6,0.6,3.2,1.3,4.7,2.1c0.5,0.2,1,0.9,1,1.4 C371.7,449.3,371.7,457.4,371.7,465.6z"></path> <path style="fill:#FFCE00;" d="M479.7,486.4c0.2,2.8,0.4,5.4,0.5,8c0.3,4.7,0.7,9.3,0.9,14c0,1-0.4,2.2-1,3.1 c-5.1,7.3-12.4,11.5-20.9,13.8c-5.5,1.5-11.1,2-16.7,1.9c-11-0.3-21.6-2.2-31-8.1c-10.4-6.5-16.5-16-18.6-28.1 c-1.8-10.3-1.4-20.5,2.5-30.3c4.6-11.3,12.9-18.7,24.2-23c6.9-2.6,14.1-3.7,21.5-3.9c10.2-0.2,20.1,0.9,29.8,4.2 c2,0.7,3.9,1.5,5.8,2.4c0.4,0.2,1,0.8,1,1.2c0.1,8,0,16.1,0,24c-2.9,0.6-3,0.6-3.8-1.8c-1.9-6.1-4.6-11.8-9.6-16.1 c-3.3-2.8-7.2-4.5-11.4-5.2c-6.2-1.1-12.5-1-18.5,1.3c-7.9,3.1-12.7,9.2-15.5,16.9c-2.1,5.6-2.8,11.5-3,17.5 c-0.1,7.3,0.3,14.5,3,21.4c2.6,6.8,6.4,12.7,13.1,16.2c4.7,2.5,9.8,3.6,15.1,3c3.6-0.4,7.3-0.8,10.8-1.9c7.3-2.3,11.9-7.5,14.4-14.5 c1.7-4.6,2.7-9.5,3.7-14.3c0.4-1.7,1-2,2.4-1.8C478.8,486.4,479.2,486.4,479.7,486.4z"></path> <path style="fill:#FFCE00;" d="M539.1,362.1c-1.4,3.9-2.5,7.7-4,11.4c-0.9,2.2-2.2,4.2-3.5,6.1c-1.6,2.3-3.1,2.7-5.5,1.2 c-6.8-4.2-11.9-9.6-13.1-18c-1.3-9-0.9-18-0.4-27c0-0.4,0.4-1.1,0.7-1.2c3.5-1,7.1-2,10.7-2.9c0.1,0,0.2,0.1,0.5,0.1 c-0.3,2.3-0.8,4.7-1,7.1c-0.4,4.2-0.9,8.5-1,12.7c-0.1,4.1,0.1,8.3,0.3,12.4c0.2,3.3,1.1,6.3,4.7,7.9c0.4-0.6,1-1.2,1.4-1.9 c4.3-8.3,7.3-17,6.7-26.6c-0.1-1.1,0-2.3-0.1-3.4c-0.2-2.5,0.9-4.3,3-5.7c2.4-1.6,5.1-2.5,8-2.6c2.7,0,4.2,1.6,3.7,4.3 c-0.3,1.7-1,3.3-1.5,4.9c-1.1,3.3-2.8,6.6-2.3,10.1c0.5,4.1,1.6,8.2,2.6,12.2c0.5,2,1.3,3.9,2,6.2c0.5-0.5,1-0.8,1.4-1.2 c3.7-3.7,5.6-8.4,7.9-13c2.2-4.6,2.9-8.9-0.2-13.5c-0.8-1.2-1.1-2.8-1.4-4.2c-0.5-2.3,0.7-3.9,2.4-5.1c2-1.3,4.1-2.4,6.4-3.3 c1.6-0.6,3.2,0.2,3.4,2c0.4,2.4,0.6,5,0.2,7.3c-1.4,8.4-3.3,16.8-6.6,24.7c-2.3,5.6-5,11-8.8,15.7c-2.2,2.7-3.7,3-6.6,1.1 c-4.8-3-7.7-7.2-8.7-12.8C539.9,365.7,539.5,364,539.1,362.1z"></path> <path style="fill:#FFCE00;" d="M231,333.9c-2.4-1.9-4.6-3.8-7-5.5c-2.3-1.6-4.8-3-7.7-4.7c-1.3,2.3-2.7,4.4-3.8,6.7 c-2.9,6.5-4.2,13.3-5,20.3c-0.6,5.4,2.4,8.8,5.9,12.1c0.4,0.4,1.4,0.6,1.9,0.4c5.5-2.4,9.2-6.3,10.7-12.1c-3.1-0.3-6.2-0.4-9.1-0.8 c-3.5-0.6-3.5-0.9-2.3-4.1c0.7-1.9,1.5-3.8,2.2-5.8c7.7,2.7,15.4,2.2,23.4,0.4c0,1.9,0.1,3.7,0,5.6c0,0.4-0.6,0.9-1,1.1 c-2.3,1-4.6,1.9-6.9,2.9c1,0.7,2.1,1.5,3.4,2.3c-4.3,6-3,12.8-2.7,19.4c-3.2,0.8-6.4,1.6-9.7,2.5c0-3.1,0-6,0-9 c-1.6,1.3-3.2,2.8-4.9,4.1c-1,0.8-2.1,1.5-3.3,2c-2.7,1.1-5.4,1-7.8-0.9c-5.3-4.4-9.1-9.9-10.5-16.6c-1-4.7-0.1-9.6,0.7-14.3 c1.1-6.4,3.5-12.4,7.4-17.7c5.5-7.4,15.6-7.3,21-4c3.8,2.3,7.2,5.1,10.2,8.4c0.8,0.8,0.7,1.4,0,2.2 C234.4,330.3,232.7,332.1,231,333.9z"></path> <path style="fill:#FFCE00;" d="M762.9,317.8c2.3,7.8,3.3,15.8,4.6,23.6c4.2-1.7,8.2-3.4,12.5-5.1c0-1.3,0-2.8,0-4.4 c0.1-4,0.1-8.1,0.3-12.1c0-0.4,0.3-1,0.7-1.2c3.2-1.6,6.5-3.1,9.7-4.6c0.4-0.2,0.8-0.3,1.5-0.5c-0.2,1.8-0.5,3.4-0.6,5 c-0.4,5.3-1,10.6-1,15.9c0.1,11.5,1.8,22.7,6.6,33.2c0.4,0.9,0.4,1.3-0.7,1.7c-2.7,1-5.3,2.1-7.9,3.3c-1.1,0.5-1.6,0.4-2-0.9 c-2.7-8.3-5-16.7-5.7-25.5c0-0.3-0.1-0.6-0.2-1c-3.8,0.3-7.4,1.3-10.8,2.6c-1.5,0.6-1.7,1.5-1.6,2.8c0.2,2.7,0.5,5.4,0.4,8.1 c-0.2,3.6-0.6,7.2-1,10.7c-0.1,0.7-0.4,1.5-0.6,2.2c-1,2.7-3.2,3.3-5.5,1.5c-5.2-4.1-7.2-10.2-5.3-16.6c0.3-1,0.5-2.2,1.1-3 c2.4-3.9,1.8-8,0.8-12.1c-1.5-6-3.3-12-5.1-17.9c-0.4-1.3-0.4-1.8,1.1-2.3c2.7-0.9,5.2-2.1,7.9-3.2C762.1,318,762.4,318,762.9,317.8 z"></path> <path style="fill:#FFCE00;" d="M248.4,350.1c0.1-8.1,2.3-15.5,7.1-22c1.9-2.5,4.2-4.6,6.9-6.2c1-0.6,1.8-0.6,2.7,0.1 c0.4,0.3,0.9,0.5,1.2,0.8c3,2.6,6.3,2.4,9.9,1.4c4.7-1.3,5.7-0.8,8.2,3.2c4,6.4,6.1,13.3,5.5,20.8c-0.6,7.1-3.2,13.6-8,19.1 c-2.3,2.6-4.9,5.1-7.7,7.1c-4.8,3.4-7.6,3.2-12.4-0.2c-4.5-3.2-8-7.4-10.8-12.1C248.9,358.4,248.4,354.3,248.4,350.1z M266.6,369.5 c3.5-3.3,6.3-6.5,8.5-10.3c2.1-3.7,3.6-7.7,3.4-11.9c-0.2-6.1-2.5-11.5-5.6-16.6c-0.8-1.2-1.6-1.2-2.5-0.5c-3.6,2.7-6.6,6-8.4,10.3 c-3,7.3-2.3,14.9-0.4,22.2C262.3,365,264.8,367,266.6,369.5z"></path> <path style="fill:#FFCE00;" d="M468.9,369.5c0-4.4,0.1-8.7-0.1-13.1c-0.1-1.7-0.8-3.5-1.6-5c-1.6-3.2-3.4-6.2-3.9-9.9 c-0.6-4.1,0.6-6.6,4.1-8.5c4-2.2,6.6-1,6.9,3.5c0.4,7.9,0.7,15.7,0.7,23.6c0,6-0.7,12-1.1,18c-0.1,1.5-0.6,2.4-2.1,2.9 c-4.1,1.4-4,1.5-6.9-1.8c-7.6-8.7-13.8-18.3-18.6-28.8c-0.1-0.3-0.3-0.6-0.9-0.9c0,5.5,0.4,11-0.1,16.4s-1.7,10.8-2.7,16.6 c-3.7-1.5-6.9-2.8-10.3-4.1c0.6-1.5,1.2-2.8,1.8-4.2c3.7-8.9,6.3-18,5.9-27.7c-0.2-3.7-0.8-7.4-1.4-11c-0.1-0.9-0.1-1.2,0.9-1.5 c2.8-0.8,5.7-1.6,8.5-2.5c0.9-0.3,1.5-0.2,1.7,0.9c2.4,11.3,7.8,21.2,14.2,30.7c1.5,2.2,3,4.2,4.6,6.4 C468.6,369.6,468.8,369.5,468.9,369.5z"></path> <path style="fill:#FFCE00;" d="M353.1,373.8c-0.8,1.1-1.7,2.3-2.6,3.4c-1.5,1.9-3.3,2.2-5,0.6c-1.8-1.6-3.6-3.4-5-5.5 c-0.7-1.1-0.8-3-0.5-4.4c2.3-11.2,4.3-22.5,4-34.1c-0.1-2.3-0.3-4.6-0.4-7.2c1.8,0.9,3.5,1.6,5,2.7c1.7,1.2,3.3,1.3,5.1,0.3 c0.5-0.3,1.1-0.4,1.7-0.6c3.7-1.2,3.8-1.3,6.1,1.8c4.4,5.6,8.9,11,13,16.7c3.4,4.8,5.4,10.2,5,16.2c-0.4,7.4-5.6,14.1-12.4,15.8 c-2,0.5-3.8,0-5.4-0.9C358.8,377.2,356,375.5,353.1,373.8z M351,367.2c3.1,1.2,6,2.4,8.9,3.5c2.2,0.8,4.2,0.3,6.1-1.2 c3.1-2.6,3.6-6,3.1-9.6c-0.5-3.5-2.1-6.5-4-9.4c-3.1-5.1-6.9-9.7-11.1-14.4C354.2,346.6,353.5,356.8,351,367.2z"></path> <path style="fill:#FFCE00;" d="M388.5,341.5c0.8-2.8,1.5-5.4,2.3-8c0.1-0.3,0.7-0.6,1.1-0.7c4.1-0.5,8.2-1.2,12.4-1.3 c5.9-0.1,11.8,0.2,17.8,0.3c0.9,0,1.5,0.2,1.3,1.3c-0.6,2.7-1.1,5.5-1.7,8.2c-4.1-0.4-8.1-0.9-12.1-1.2c-1.8-0.2-3.6-0.2-5.3-0.2 c-0.4,0-1,0.7-1.1,1.2c-0.7,3.5-1.4,7-2,10.6c0.5-0.3,0.9-0.7,1.3-0.7c6.2,0,12.4,0,18.8,0c-0.1,0.5-0.2,1.3-0.5,1.9 c-0.6,1.8-1.4,3.6-1.9,5.5c-0.4,1.2-1,1.4-2.1,1.3c-4.1-0.5-8.1-0.9-12.2-1.2c-1.2-0.1-2.5,0.1-4.1,0.3c0,2.5-0.1,4.9,0,7.4 c0.1,1.5-0.3,2.6-1.5,3.5c-0.5,0.4-0.8,0.9-1.1,1.2c5.3-0.2,10.6-0.4,15.9-0.4c3.1,0,6.2,0.5,9.3,0.7c1.4,0.1,1,1.1,0.9,1.8 c-0.3,2.7-0.8,5.3-1.2,8.2c-10.6-2-21.3-2.3-32.2-0.4c0.3-2.2,0.7-4.2,0.7-6.2c0-4.6-0.3-9.2-0.1-13.7c0.1-5.3,0.6-10.5,0.8-15.8 c0-1.1,0.6-1.7,1.5-2.3c0.9-0.5,1.7-1.1,2.5-2C393.5,340.9,391.2,341.2,388.5,341.5z"></path> <path style="fill:#FFCE00;" d="M614.3,380.2c-10.8-1.7-21.4-1.4-32.2,0.8c0.1-2,0.4-3.9,0.3-5.8c-0.1-3.8-0.5-7.5-0.7-11.3 c-0.2-6.1-0.3-12.2-0.5-18.3c0-1.1,0.5-1.9,1.4-2.5s1.8-1.3,2.6-2.3c-2.4,0.5-4.8,1-7.5,1.5c0.6-2.8,1.2-5.5,1.8-8.1 c0.1-0.3,0.5-0.6,0.8-0.6c10.2-2.4,20.6-3.8,31.1-3.2c0.1,0,0.2,0.1,0.4,0.2c-0.3,2.8-0.6,5.7-1.1,8.5c-0.1,0.3-1,0.7-1.6,0.7 c-5.1,0-10.1-0.1-15.2-0.3c-1.2,0-1.7,0.3-1.8,1.6c-0.3,3.5-0.9,6.9-1.3,10.2c6.5-1.4,13.1-1.6,20-1.9c-0.1,0.8-0.2,1.6-0.4,2.3 c-0.5,1.9-1.2,3.7-1.6,5.6c-0.2,1.2-0.8,1.4-1.9,1.3c-3.7-0.3-7.3-0.5-11-0.6c-1.7,0-3.5,0.4-5.5,0.6c0.1,2.3,0.2,4.5,0.4,6.6 c0.2,1.9-0.1,3.6-1.6,4.9c-0.3,0.2-0.5,0.6-1,1.2c9-1.7,17.7-2.1,26.7-1.2C614.8,373.5,614.6,376.7,614.3,380.2z"></path> <path style="fill:#FFCE00;" d="M667.5,375.8c-2.8,1-5.5,2-8.2,2.8c-0.3,0.1-1.1-0.4-1.3-0.8c-2.6-4.5-5.3-8.9-7.5-13.5 c-1-2.2-2.4-2.9-4.5-3c-2.4-0.1-4.7,0-7,0c-1.6,4.3-3.2,8.6-4.9,12.8c-0.6,1.6-1.6,3.1-2.6,4.4c-1.5,1.9-3.6,1.9-5-0.1 c-2.1-2.9-3.4-6.2-3-9.8c0.2-1.5,1.2-2.9,2.1-4.2c0.8-1.1,1.8-2.2,3-2.9c3.1-2.1,4.9-5,6.1-8.5c2.1-6,3.8-12,3.3-18.4 c-0.1-1.1-0.3-2.1-0.5-3.2c3.5-1.4,6.9-2.8,10.4-4.2C651.4,344.6,656.7,361.2,667.5,375.8z M642.9,342.4c-0.8,4.4-1.6,8.8-2.4,13.3 c2.1-0.1,4.1-0.3,6.3-0.4C645.4,350.9,644.2,346.6,642.9,342.4z"></path> <path style="fill:#FFCE00;" d="M741.4,321c0,3.1,0,5.8,0,8.6c0,0.4-0.5,0.9-0.9,1c-2.9,0.9-5.8,1.8-8.6,2.6 c-0.4,0.1-0.9,0.3-1.4,0.5c2.3,0.5,1.8,2,1.8,3.6c0,4,0.2,8.1,0.6,12.1c0.6,5.7,1.7,11.4,3.8,16.9c0.6,1.7,1.4,3.3,2.1,5 c0.2,0.5,0.4,1.1,0.6,1.6c-3.8,1.3-7.5,2.6-11.3,4c-4.4-13.9-5.4-28-5.3-42.1c-4.8-0.3-9.5-0.6-14.3-1c0.2-3.2,0.3-6.1,0.4-8.9 c0.1-0.9,0.8-1.1,1.5-0.9c3.9,1.1,7.9,1.1,11.9,0.9c5.2-0.4,10.3-1.6,15.3-3.2C738.7,321.3,740,321.2,741.4,321z"></path> <path style="fill:#FFCE00;" d="M688.7,323.5c-0.5,2.4-0.9,4.7-1.4,7c-1.3,6.6-1.5,13.3-1.2,20c0.2,4.3,0.4,8.6,0.7,12.9 c0.1,1.5-0.4,2.6-1.3,3.6c-0.4,0.4-0.7,0.8-1.2,1.5c8.4-2.5,16.7-2.7,25.1-2c-0.2,3.6-0.4,7.1-0.6,10.9c-10.4-2.2-20.7-1.1-31.3,1.3 c0.2-2,0.2-3.8,0.5-5.5c0.7-3.4-0.2-6.6-0.5-9.9c-0.6-6.4-1.4-12.7-1.8-19.1c-0.3-4.8,0.1-9.6,0.2-14.4c0-0.5,0.4-1.2,0.8-1.3 c3.8-1.7,7.6-3.3,11.4-4.9C688.2,323.5,688.4,323.5,688.7,323.5z"></path> <path style="fill:#FFCE00;" d="M305.7,368.3c8.4-1.7,16.7-1.1,25,0.4c-0.7,3.5-1.3,6.9-2,10.5c-10.2-3-20.6-2.8-31.3-1.2 c0.5-2.3,1.1-4.3,1.4-6.3c0.3-1.7,0.5-3.5,0.5-5.3c0.3-9.4,0.4-18.9,0.9-28.3c0.1-3.1,1-6.3,1.5-9.4c0.1-0.5,0.4-1.1,0.8-1.2 c4.1-1.1,8.3-2.1,12.7-3.3c-0.8,2.6-1.6,4.9-2.4,7.2c-2.5,7.9-3.5,16-3.9,24.2c-0.1,3-0.3,5.9-0.6,8.9c0,0.5-0.4,1.1-0.8,1.5 c-0.7,0.7-1.6,1.3-2.3,1.9C305.5,368,305.6,368.2,305.7,368.3z"></path> </svg> 