<?xml version="1.0" encoding="UTF-8"?> <svg xmlns="http://www.w3.org/2000/svg" xmlns:xlink="http://www.w3.org/1999/xlink" version="1.1" id="Layer_1" x="0px" y="0px" viewBox="0 0 1000 1000" style="enable-background:new 0 0 1000 1000;" xml:space="preserve"> <path style="fill:#FFCE00;" d="M803.5,633.2c13.7,8.5,28.6,15.8,41.3,25.9c20,16,31.9,37.6,38.9,62.5c7.5,26.6,8,53.6,5.7,80.4 c-3.2,37.9-14.7,73.7-42.2,101.6c-16.8,17.1-37.7,27.7-61.6,33.1c-43.9,10-83.2,0.7-119.1-25.3c-6-4.3-10.9-10.2-17.1-16.1 c-26.7,31.9-62.4,45.9-102.3,45.3c-39.3-0.5-75.2-13.3-101.5-44.8c-56.8,54.6-118.5,57.3-185.1,20.1c-10.2,19.4-28.8,23.5-49,23.7 c-19.2,0.2-38.5,0.6-57.6-0.3c-13.4-0.7-27.5-1.7-38.4-11c-6-5.2-12.1-11.5-15-18.6c-3.8-9.1-5.8-19.4-6.4-29.4 c-2.2-35-3.9-70-5.1-105c-1.1-31.4-2.9-62.8-1.2-94.1c1.4-25.2,10.3-41.4,45.9-46.3c1.5-0.2,2.9-0.7,5.3-1.4 c-10.7-10.3-11.6-23.6-12.8-36.2c-2.3-25.5-3.5-51.2-5.1-76.8c-1.6-24-3.8-47.9-4.7-71.9c-1.1-33-1.3-65.9-1.7-98.9 c-0.2-13,5.9-22.5,18.5-25.6c14.9-3.7,30.2-5.7,45.3-8.2c4.1-0.7,8.4-0.1,12.6-0.1c0.4-0.7,0.9-1.4,1.3-2.1c-1.9-1.3-3.9-2.5-5.5-4 c-25-22.9-18.1-60.1,10.4-75.8c9.9-5.5,19.8-12,27.4-20.1c4.4-4.7,4.7-13.6,6-20.7c4.4-24.3,8.6-48.6,12.5-72.9 c2.1-12.6,2.7-25.4,5.5-37.8c3.7-16.3,14.5-26.6,30.7-31c18.9-5,38-3.8,57.2-1.7c17.8,2,29.4,12.1,37.7,28.5 c43.7-16.5,86.2-14.3,127,10.1c2.1-5.5,3.7-11.1,6.4-16.1c7.9-15,21.8-22,37.6-23.3c15.4-1.3,31-0.1,46.4,1 c18.2,1.3,29.8,12.5,36.6,26.2c20.6-2.9,40.5-8.1,60.2-8c29.2,0.2,56.6,9.2,78.7,29.4c17,15.6,26.5,35.6,30.7,58.3 c7,37.1-2.3,70.5-22.9,101.3c-13.6,20.3-32.1,34.5-54.4,44.2c-2,0.9-3.6,2.8-5.4,4.2c0.3,0.6,0.5,1.3,0.8,1.9 c2.2,0.1,4.5,0.2,6.7,0.4c16.1,1,32.1,2,48.2,3.1c5.6,0.4,11.1,1.4,16.7,1.6c12.6,0.4,22.3,7.1,28.4,16.6c4.2,6.6,5.4,16.1,5.5,24.3 c0.5,42.7,0.6,85.4,0.1,128.1c-0.3,25.1-1.5,50.3-2.9,75.4c-1.1,19.2-3,38.3-5,57.4C813,622.6,810.3,630.2,803.5,633.2z M361.6,101.7c2.6-22.3-11.9-38-32.7-37.3c-12.9,0.5-25.8,0-38.7,0.1c-12.7,0.1-24.9,9.5-27.2,21.9c-2.2,11.5-3,23.2-4.9,34.7 c-4.7,28.8-9.5,57.6-14.6,86.3c-1.5,8.2,0.5,19-12.4,20.5c-0.6,0.1-1.1,1.1-1.8,1.6c-9.2,6.6-18.2,13.5-27.7,19.6 c-20,12.9-20.3,39.5-0.7,53.1c7.5,5.2,16.1,4.9,23.1,8.2c12.9,6.1,25.9,6.9,38.8,5.2c12.5-1.7,25-5.8,36.4-11.3 c15.7-7.6,26.4-21.1,34.2-37.2c1.4,1.1,2.3,1.7,3.1,2.4c20,20.1,45.2,27.6,72.5,28.5c10.4,0.3,21-2.2,31.4-3.9 c3.9-0.7,6.2-0.4,9.4,2.7c5.5,5.1,12,9.6,18.8,12.6c13.2,5.8,27.4,7.2,41.9,6.8c28-0.8,51.1-11.2,68.5-33.4c3.6-4.6,6.3-10,8.6-13.9 c11.4,6.8,22,14.1,33.4,19.7c15,7.3,31.4,8.6,48,8.3c35.1-0.6,64.9-12.8,87.5-40.1c25.4-30.8,34.6-66,25.2-105.1 c-4.6-19.1-14.5-35.3-30.3-47.7c-12.3-9.6-26.5-14.6-41.4-18.3c-18.1-4.5-36.1-4.7-54,0.8c-13.4,4.1-26.5,9-39.1,13.4 c3.7-18.6-12.9-36.7-32.7-35.5c-12.6,0.8-25.3-0.2-37.9,0.3c-4.8,0.2-9.8,1.6-14.1,3.8c-14.3,7.1-16,21.2-17.9,34.9 c-0.8,5.7-1,11.4-1.6,17.7C482.2,80.9,417.6,68.8,361.6,101.7z M446.2,870.6c23.7,36.7,59.7,52.2,101.5,52.7 c42.5,0.5,77.6-17,101.5-53.5c1.7,1.4,2.5,1.8,3,2.4c0.9,1,1.7,2,2.4,3.1c9.8,15.1,23.3,26.2,39.2,33.8 c29.4,14.1,59.9,18.6,92.2,9.9c40.6-10.9,66.2-37.3,81.4-75.2c11.1-27.7,12.3-56.8,11.3-86.1c-0.9-28.2-6.9-54.7-24.2-77.9 c-13.5-18.1-30.4-31.4-52-38.4c-19.6-6.4-39.4-11-60.4-8.1c-20.7,2.9-41.3,6.3-58.6,18.9c-11.8,8.6-22.7,18.5-34.1,27.9 c-23.7-34.6-60.7-47.8-101.1-47.5c-40.4,0.2-77.3,13.7-102.4,49.8c-22.3-31.4-53.1-45.7-89.7-49c-36.6-3.2-69.6,6.2-98.7,29.3 c-5.5-11.8-14.4-18.7-26.6-21c-6.2-1.2-12.6-1.5-18.9-1.9c-27.6-1.9-55.1-3-82.8,1.2c-21.3,3.2-31.1,21.4-30.6,38.4 c1.1,43.3,2.1,86.6,3.3,129.9c0.4,14.7,0.5,29.4,1.8,44c1.2,13.9,3.1,27.8,5.8,41.5c2.7,13.4,11.9,21.6,25.2,23.9 c28.9,5,58,6.8,87.3,3.2c11.2-1.4,21.7-5.4,27.5-16.1c2.5-4.7,3.8-10.1,5.5-14.8C324.1,939.2,387.9,936.6,446.2,870.6z M343,372.7 c-3.4-5-6.4-10.6-10.6-15.3c-21.8-24.2-50.3-34.9-81.7-36.2c-31.6-1.3-63.6-3.1-94.8,4.6c-19.8,4.9-30.1,10-29.9,35.8 c0.1,18.7,0.8,37.4,1.6,56.1c0.7,15.7,2.1,31.3,3.1,46.9c1.7,26,3.1,52,4.9,78c1.3,17.7,2.7,35.4,4.9,53c2.3,18.2,9.3,24.5,29,25 c17.2,0.4,34.4,0.2,51.6,0c5.4,0,10-0.1,13.4,5.8c2,3.4,7,5.8,11.1,7c29.6,8.3,57.7,1.6,84.1-11.8c8.3-4.2,14.4-6.8,23.4-2.6 c21.8,9.9,45.2,11.7,68.6,9.5c16.3-1.5,32.4-6.1,48.6-9.1c2.4-0.4,5.3,0,7.5,1c16.4,7.3,33,12.3,51.2,8.3c2.3-0.5,4.7-1.6,6.9-1.4 c18.7,1.9,35.4-4.4,51.7-12.5c2-1,5.1-1.3,7.1-0.5c26.6,10.5,53.7,10,81.1,3.8c6.3-1.4,11.8-2.1,18.3,0.1c7.6,2.6,16,3.8,24.1,3.8 c21.4,0,42.8-0.7,64.1-1.5c16.3-0.6,25.9-8.3,27.2-21c1.7-16.9,3.7-33.7,4.7-50.6c1.5-23.7,2.9-47.4,3.2-71.1 c0.5-41.9,0.7-83.8-0.1-125.7c-0.4-19-2.3-22.1-20.6-28c-25.9-8.4-52.5-5.3-79-2.7c-13.7,1.3-26,7.7-41.2,5 c-21.7-3.8-44.3-2.5-66.6-2.3c-19.6,0.2-35,12.3-32.8,31.3c0.2,1.6-2.5,4.9-4,5c-11.9,0.5-23.8-0.5-35.6,0.9 c-12.5,1.4-25.1,4.3-35,12.8c-3.6,3-6.1,3.1-9.8,1.3c-13.1-6.1-27-7.1-41.3-6.5c-10.4,0.4-20,5.9-31.2,2.2c-7.8-2.6-17-0.8-25.3-2.3 C377,365.8,359.8,368.5,343,372.7z"></path> <path style="fill:#FFCE00;" d="M483,127.8c15.1,10.5,24.1,23.8,25.2,43c1.7,29.5-8.7,54-28,74.9c-12.5,13.6-28.7,22.3-46.9,26 c-24.9,5-48.8,3.4-70.7-11.5c-25.3-17.2-37.1-48.3-30-77.8c4.6-19,13.5-34.9,30.3-46c-1.1,1.5-2.1,2.9-3.2,4.4 c-13.2,17.1-20,36.9-19.1,58.1c1.3,29.7,12.8,50.6,44,59.6c31.4,9.2,62.2,3.6,87.1-19.1c16.2-14.7,24.7-34.6,26.4-56.7 C499.8,162.8,497.3,143.7,483,127.8z"></path> <path style="fill:#FFCE00;" d="M740.4,129.9c19.1,13.9,24.9,32.3,22.8,55.6c-2.1,23.8-12.8,42.8-27.7,59.7 c-13.8,15.6-32.5,23.6-53,27.4c-15.7,2.9-31.1,1.8-46.1-3.3c-26.5-9.1-44.8-27.5-48.9-55c-4.1-27.8,0.3-54.9,26.5-73.5 c-0.4,1.3-0.6,2.5-1.2,3.3c-9.9,13.2-15.3,28.1-16.3,44.5c-1.1,16.9,0.9,33,11,47.7c8.7,12.6,20.9,19.8,34.9,22.7 c26.1,5.6,51.9,3.8,74.4-12.3c22-15.7,33.5-37.6,36.3-64.8C755.2,162.6,750.2,145.9,740.4,129.9z"></path> <path style="fill:#FFCE00;" d="M546.8,92.7c-0.6,5.4-1.2,10.7-1.9,17c13.9-1,26.1-3.3,36.3-12.6c3.3-3,8-4.5,12-6.7 c0.7,0.8,1.4,1.6,2,2.4c-2.7,5.6-5.5,11.2-8.5,17.4c11,1.8,5.2,9.4,4.7,13.5c-3.7,28.2-7.9,56.3-12.6,84.4 c-2.4,14.4-5.7,28.8-9.5,43c-6.5,23.9-34.2,41.5-56.3,40.8c-13.2-0.4-26.7,1.5-38.6-6.5c-4.1-2.8-8-5.7-12.5-8.9 c5.3-6.3,10.5-4.6,14.8-1.8c15.7,10.1,58.8,9.4,72.9-9.7c6.6-9,12.3-20,14.4-30.9c6.1-32.3,10.1-65.1,15-97.6 c1.2-8.2,2.9-16.3,4-25.1c-7.6,12.7-20,10.8-31.5,11.1c-14.3,0.3-17.9-4.6-14.8-18.7c0.3-1.3,0.4-2.7,0.3-4 C536.2,92.6,539.5,90.6,546.8,92.7z"></path> <path style="fill:#FFCE00;" d="M326.4,112.7c-6.7,10.9-17.4,9.2-27.1,9.7c-17.1,0.9-20.2-3.7-17.3-20.7c1.1-6.3,0.6-12.2,9.6-9 c-0.5,5.4-1,10.6-1.5,16.7c14.4,0.1,26.3-3.7,36.8-12.6c3.4-2.9,8-4.2,12.1-6.3c0.6,0.8,1.1,1.6,1.7,2.4c-3.2,6-6.4,11.9-9.6,17.9 c0.8-0.1,1.7-0.2,2.5-0.3c1.2,2.8,3.8,5.8,3.4,8.4c-2.7,19.3-6.1,38.5-9.1,57.7c-2.9,18.7-5.4,37.6-8.5,56.3 c-4.9,30-20.6,51.5-51.5,57.7c-17.4,3.5-35.6,3.3-51.6-7c-3.5-2.2-6.1-5.8-9.1-8.8c0.5-1,1.1-1.9,1.6-2.9c4.1,1,8.4,1.5,12.2,3 c24.7,9.5,48.7,9.7,70.6-6.5c12-8.8,15.7-22.9,17.9-36.8c5.2-32.2,9.8-64.6,14.7-96.9c1-6.9,2.4-13.7,3.7-20.5 C327.4,113.7,326.9,113.2,326.4,112.7z"></path> <path style="fill:#FFCE00;" d="M401.3,222.4c-3.4-7.6-8.4-14.2-8.9-21c-1.1-17.5,2.2-34.4,15.6-47.3c7.2-6.9,16.1-7.6,25.1-4.3 c9.7,3.5,14,11.5,13.3,21.1c-0.7,11.2-2.3,22.5-5,33.4c-1.2,5.1-5.8,9.3-10.1,15.7c2.1-16.7,4.4-30.6,5.4-44.7 c0.8-10.7-2.2-14.8-9.2-15.7c-8.9-1.2-19.9,4.9-21.1,13.2C404.4,188.5,403.2,204.4,401.3,222.4z"></path> <path style="fill:#FFCE00;" d="M686.9,215.5c0.2-2.9-0.3-5.9,0.6-8.5c4.3-12,4.3-24.4,4.4-36.9c0-6.6-3.7-9.1-8.8-10.3 c-7.5-1.8-16.2,2.8-19.8,9.9c-6.5,13.1-5.5,27.3-5.3,41.3c0,2.7,0,5.4,0,9.1c-10.4-6.3-11.4-16.3-10.7-24.3 c0.9-11.4,4.4-23.1,9.2-33.7c6.8-15.3,28.8-21,39.6-6.9c2.8,3.7,5.1,9,5.1,13.6c0,9.7-1,19.5-3,29c-1.4,6.5-5.3,12.5-8,18.7 C689,216.2,687.9,215.8,686.9,215.5z"></path> <path style="fill:#FFCE00;" d="M517.1,250.4c-3.1-6.7,10.3-100.5,16.4-120.5c2,0.1,4.2,0.3,8,0.6c-5.9,37-11.8,73.8-18,110.6 C523,244,519.8,246.6,517.1,250.4z"></path> <path style="fill:#FFCE00;" d="M259.8,248.8c1.3-9.8,2.4-19.6,3.9-29.4c2.3-16.1,4.9-32.2,7.3-48.4c1.7-11.7,3.2-23.5,5-35.2 c0.8-5,4-6.4,10.5-4.2c-6.2,36.6-12.3,73.5-18.8,110.3c-0.5,2.7-3.1,5.1-4.7,7.7C261.9,249.4,260.9,249.1,259.8,248.8z"></path> <path style="fill:#FFCE00;" d="M853.6,770.5c0,26-3.2,51.4-15.4,74.7c-14.7,27.9-36.4,46.6-68.8,51.4c-33.1,4.8-62-3.1-85.7-26.9 c-15.3-15.4-23.8-34.9-27.2-56c-2.1-13.1-1.8-26.7-1.8-40c0-12.8-0.6-26,1.8-38.4c7.5-38.9,29.8-63.8,67.9-73.9 c30.4-8,60.4-5.8,87.5,12.4c24.1,16.3,35.9,39.9,39.3,68.1C852.4,751.4,852.9,760.9,853.6,770.5z M757.6,864.2 c27.5,1,50.9-13.6,65.2-32.6c25.2-33.5,28.4-71.7,16.9-111c-6.6-22.2-21.7-38.7-43-48.1c-19-8.4-39-10.3-59.7-6.9 c-35.7,5.9-59.9,24.9-71.8,59.5c-5.7,16.6-4.1,33.7-4,50.6c0.2,23.4,9.5,43.7,25,60.7C704,856.2,727.3,864.3,757.6,864.2z"></path> <path style="fill:#FFCE00;" d="M240.3,773.3c0.8-22.2,3.1-43.6,12.9-63.6c14.2-28.7,37.7-45.1,69.2-50.4c22.4-3.7,44.5-2.7,65.3,6.9 c22,10.2,38.1,27,45.8,50.2c4.2,12.6,7.6,26,7.9,39.2c0.7,27.8,0.6,55.9-11,82.1c-13.7,31-35.7,52.4-70.3,58.6 c-25.3,4.6-49.1,0.3-70.8-13c-22.7-13.9-36.6-35-42.3-60.7C243.5,806.5,242.5,789.8,240.3,773.3z M249.9,761.1 c-0.3,18.2,2.1,36.2,10.4,52.4c16.9,32.9,43.9,50.3,81.5,50.7c38.2,0.5,64.9-17.3,81.7-50.6c12.6-25,14.8-51.8,9.8-78.9 c-5.2-28.3-20.8-50.1-47.5-62.2c-20.1-9.1-41.4-10.6-62.9-6.5c-24.9,4.8-44.9,17.4-58.7,39.3C253.3,722.4,250.2,741.3,249.9,761.1z"></path> <path style="fill:#FFCE00;" d="M647.9,771.5c0.6,26.6-3.8,52.1-16.2,75.5c-20.4,38.4-53.4,54.3-95,50.8 c-22.1-1.8-41.9-10.9-57.6-26.6c-14-14-23.2-31.4-26.8-50.9c-6.3-34.2-8.4-68.8,3.2-102.2c10.3-29.7,32.2-49.1,62.4-56.7 c32.7-8.2,64.6-5.3,92.9,15.7c17.4,12.8,27.7,30.6,32.2,51C646.2,742.2,646.4,757,647.9,771.5z M640.8,760.2 c-0.8-7.9-1.2-15.9-2.4-23.7c-3.5-23.5-14.7-42.6-34.3-56.1c-22-15.1-46.5-18.7-72.6-14.6c-35.2,5.6-59.3,24.6-71.1,58.2 c-6.1,17.4-6.3,35.5-4.5,54c2.2,21.8,9.7,40.9,23.9,57.2c13.8,15.9,31.6,24.5,52.7,27.8c29.4,4.6,55.6-1.6,76.7-22.4 C631.5,818.8,641.2,791.3,640.8,760.2z"></path> <path style="fill:#FFCE00;" d="M172.7,661.7c15.3,1.2,32.5,2.7,49.7,3.9c7.7,0.5,9.9,5.5,9.8,11.9c-0.4,28.7-0.9,57.4-1.6,86 c-0.3,12.3-1.2,24.5-1.5,36.8c-0.7,27.6-1.1,55.1-1.7,82.7c-0.2,10.7-4.4,15.1-15.1,14.9c-22.2-0.3-44.4-0.8-66.6-1.6 c-9.5-0.3-14.6-6.1-15.1-15.9c-1.1-21-2.3-42-3.2-63c-1.2-29.3-2.2-58.7-3.3-88c-0.6-16-1.3-32-1.6-48c-0.2-13.1,3.2-16.4,16.1-17.2 C149.4,663.5,160.1,662.6,172.7,661.7z M224.3,672c-12.5-0.9-26.1-2.6-39.8-2.8c-15.5-0.2-30.9,1-46.4,1.4c-4.8,0.1-6.3,2.5-6.1,7 c1.3,42.5,2.3,85,3.7,127.4c0.6,16.2,2.4,32.3,3,48.5c0.2,7,3.8,8.8,9.4,9c20.6,0.6,41.2,0.9,61.7,1.8c9.9,0.4,12.7-0.8,12.9-12.8 c0.4-36.4,1-72.9,1.6-109.3c0-0.8,0-1.6,0-2.4C224.3,717.6,224.3,695.4,224.3,672z"></path> <path style="fill:#FFCE00;" d="M429.3,394.3c4.2-2.5,7.3-5.9,10.6-6c11.8-0.5,23.8-0.6,35.6,0.4c6.6,0.5,9.6,6.1,9.8,12.6 c0.2,7.5,0.1,15,0.1,24.7c6-13.6,12.8-24.1,23.8-31.5c12.9-8.7,27.3-12.1,42.2-13.8c9.3-1.1,18.9-0.4,28.3-0.1 c6.8,0.2,10.8,4.2,12,10.6c5.6,29.1,7.5,58.5,6.7,88.1c-0.2,7.9-0.8,14.3-9.9,16.3c6.1,20.7,3.2,41.4,3,61.7 c-0.2,19.6-21.9,40.8-42.9,44c-10.7,1.6-21.5,2.4-32.3,3.3c-8.1,0.7-13.8-3.1-14.7-11.2c-1.6-15.6-2.7-31.2-3.1-46.8 c-0.1-5.8,2.3-11.6,3.5-17.1c-5.9-10.5-12.3-22.1-18.6-33.4c-0.2,1.4-1.1,4.1-1.1,6.9c-0.2,12.1,0.5,24.2-0.2,36.3 c-1,16.3-3,32.4-14.2,45.9c-7.5,9.1-17.3,14.3-27.9,16.8c-19,4.5-38.5,4.7-57.5-0.8c-23.4-6.8-35.8-24.1-38.6-47.2 c-2.3-19-1.5-38.4-1.9-57.6c-0.6-28.1-1.2-56.2-1.6-84.3c-0.2-16.8,4.2-21.9,20.8-23.3c13-1.1,26.3-2.6,39.1-1.3 C410.3,388.4,422.2,384.7,429.3,394.3z M422.5,460.8c0-19.1-0.1-38.1,0.1-57.2c0-4.5-1-7.1-6.2-7c-16.9,0.2-33.8-0.3-50.8,0.2 c-15.9,0.5-17.5,2.4-17.2,18.3c0.2,14.4,1.1,28.8,1.5,43.2c0.6,23-0.4,46.1,2,68.9c2.8,25.8,12.6,38.9,35.3,43.8 c15.6,3.4,32.7,2.5,48.8,0.5c15.4-1.9,27.4-11.9,32.4-27.1c3.3-10.1,4.6-21.1,5.5-31.8c1.2-15.4,1.3-30.9,1.8-46.4 c0.6-20.3,0.9-40.6,1.7-60.9c0.3-8-3.5-10.4-10.5-10.3c-5.6,0-11.3,0-16.9,0c-10.8,0-11.4,0.6-11.4,11.4c0,36.3,0,72.5,0,108.8 c0,5.7-0.9,10.5-8.7,10.5c-7.9,0-7.4-5-7.4-10.1C422.5,497.3,422.5,479,422.5,460.8z M505.5,540c1.4,9.5,2.4,19.5,4.5,29.2 c0.4,2,4.3,4.5,6.7,4.5c7.1,0.1,14.3-0.4,21.4-1.4c36.6-5.2,51-30,44.1-64.8c-2-10.1-8.9-19.3-14-28.7c-3.6-6.7-2.7-11.1,4.3-13.7 c3.2-1.1,7.1-3,9.8-2c9.3,3.5,8.2-3,7.7-7.8c-1.9-20.5-4.1-41-6.6-61.5c-0.2-1.9-2.9-5-4.6-5.1c-21.6-1.1-43.1-0.6-62.3,11.1 c-5,3.1-9.5,7.4-13.5,11.8c-11.1,12.1-11.7,27.1-11.3,42.4c0.4,19.1,6.6,35.6,20.4,49c6.3,6.1,13.2,11.7,19.3,17.9 c5.6,5.7,4.3,11.2-3.3,13.7C521.5,536.9,514.4,537.9,505.5,540z"></path> <path style="fill:#FFCE00;" d="M697.9,557.7c-1.5,2.8-3.6,5.5-4.4,8.5c-0.7,2.8-0.2,5.9-0.2,8.8c0,16.2-3.3,20.6-19.6,21.2 c-16.2,0.5-32.6-0.4-48.8-1.6c-6.3-0.5-10.7-4.6-10.8-12.4c-0.1-17.4-0.9-34.7-1.5-52.1c-0.5-15.2-1.1-30.4-1.6-45.6 c-0.6-20.8-1.1-41.7-1.6-62.5c-0.5-18.4-1.2-36.8-1.5-55.3c-0.2-12.8,3.2-17.9,15.4-19.5c10.9-1.4,22.1-0.5,33.1-0.7 c8.8-0.2,17.5-1.3,26.3-0.9c5.6,0.2,11.2,2.2,19,3.9c5.8-6.1,16.4-6.6,27-6c16.1,0.9,32.3,1.8,48.4,3.2c7.5,0.6,9.7,5.9,9.7,13 c-0.1,43,0.7,85.9-0.3,128.9c-0.7,27.8-4,55.4-6.1,83.2c-0.4,5.3-0.8,10.5-1.6,15.7c-1.5,9.2-6.3,12.8-15.5,12.3 c-12.2-0.6-24.5-1-36.7-1.7c-5.5-0.3-11.3-0.3-16.5-1.8c-7.9-2.2-8.2-9.6-8.6-16.1c-0.4-7.1-0.1-14.2-0.1-21.3 C700.2,558.4,699,558.1,697.9,557.7z M689.1,468.4c0.9-21.3,1.9-42.2,2.6-63.2c0.4-12.3,0.1-24.7,0-37.1c0-4.5,0.7-9.8-1.4-13.1 c-1.1-1.8-7.5-0.3-11.5-0.3c-16.4,0-32.8-0.1-49.2,0c-10.5,0.1-12.2,1.7-12,11.9c0.5,27.3,1,54.6,1.6,81.9c0.5,21.4,1,42.8,1.6,64.2 c0.4,15.2,0.9,30.4,1.8,45.6c0.1,2,2.4,5.6,3.8,5.6c17.8,0.4,35.5,0.4,53.3,0.1c1.3,0,3.5-2.4,3.8-4c1-5.2,1.3-10.5,1.8-15.7 c0.8-9.1,1.5-18.2,2.5-29.1c2.5,5.4,4.4,9.2,6.5,13.7c4.5-4.9,8.6-9.4,13.1-14.2c1.3,17.6,2.6,34.2,3.9,51.8c20.2,0,39.6,0,59.1,0 c9.3-69.9,8.9-140.4,8.3-211.2c-20.6-5.5-41.4-3.9-62.1-3.2c-7.2,0.2-9,4.3-8.9,11.6c0.5,33.6,0.2,67.2,0.2,100.7 c0,2.2-0.3,4.4-0.5,7.6c-2.7-4.5-4.7-7.8-7-11.7C696.3,463.2,692.9,465.6,689.1,468.4z"></path> <path style="fill:#FFCE00;" d="M312.9,528.7c1,1.7,1.9,3.9,3.4,5.7c11.9,15.5,10.2,33.5,9.2,51.3c-0.5,8.6-8.6,11.1-14.7,13.8 c-11.2,5.1-22.9,8.8-34.5,13.1c-7.1,2.6-11.5-1-14.9-6.5c-3.1-5.2-5.8-10.6-9-16.6c-4.9,10.9-14.9,10.2-23.4,10.8 c-14.1,1-28.4,1.5-42.5,0.3c-10.8-0.9-14.1-6.1-15.4-20.2c-1.9-20.9-3.5-41.8-4.9-62.7c-1.8-25.7-3.5-51.4-4.8-77.2 c-1.3-24.7-2.3-49.5-3.2-74.3c-0.4-10.6,2.5-15.5,12.8-17.9c13-3.1,26.3-4.5,39.5-6.6c19.2-3.2,37.7,0.5,55.9,6.4 c38.6,12.7,65.2,48.4,64.2,89.1c-0.3,13.7,0.6,27.4-0.2,41.1C329.3,496.5,324.8,513.7,312.9,528.7z M243.6,545.6 c2.3,1.5,3.6,1.9,4.3,2.8c6.7,9.4,13.8,18.6,19.6,28.6c3,5.2,5.9,6.6,11,4.5c9.4-3.9,19-7.6,28.2-12c11.8-5.5,13.6-11.1,7.2-22.6 c-5.2-9.2-10.4-18.5-17-26.5c-4.6-5.6-2.5-7.8,1.2-11.7c4.8-5,9.7-10.2,13.2-16.2c10.1-17.3,11-36.5,11.5-56 c1-36.5-26.2-69.1-58.2-80.7c-21.8-7.9-44.1-6.1-66.3-5.8c-8.7,0.1-17.5,3.4-25.8,6.5c-2.8,1-5.9,5.7-6,8.7 c-0.1,13.9,0.5,27.7,1.4,41.6c1.9,28.9,4.2,57.7,6.3,86.6c1.6,20.6,2.8,41.3,5.2,61.8c0.6,5.4-1,14.6,9.3,14.5 c16.5-0.2,32.9-0.5,49.4-1.5c2-0.1,4.7-4.5,5.2-7.3C244.2,556.5,243.6,551.6,243.6,545.6z"></path> <path style="fill:#FFCE00;" d="M733.6,782.5c0-2.1,0-4.3,0-6.4c0-16.4,14.8-25.5,29.5-18c2.2,1.1,4.9,3.3,5.5,5.5 c4.2,15.2,5.6,30.6-3.2,44.8c-6.5,10.6-19.8,10.6-25.7-0.4c-4.1-7.6-5.7-16.5-8.4-24.8C732.2,783,732.9,782.7,733.6,782.5z M764.3,797.6c0.2-10.5-6.5-9.1-12.3-9.3c-5.7-0.2-11.1,0.5-11.7,7.4c-0.6,6.9,7.3,16.8,12.6,16.8 C757.9,812.5,764.3,803.4,764.3,797.6z"></path> <path style="fill:#FFCE00;" d="M363.4,784.1c-2.9,8.5-4.9,17.5-8.9,25.4c-4.2,8.3-15,8-22.5,2.4c-10.5-7.8-11.5-39.8-5.9-48.5 c3.7-5.7,13.8-9.1,22.2-7.2c7.3,1.6,12.3,8.7,13,18.4c0.2,2.9,0,5.9,0,8.8C362,783.6,362.7,783.8,363.4,784.1z M342.8,788.4 c-6.8-0.3-13.3-0.4-13.6,8.3c-0.3,6.7,6.8,15.7,11.7,15.8c5.8,0.1,12.6-8.4,12.2-16.1C352.8,789.6,348.7,787.2,342.8,788.4z"></path> <path style="fill:#FFCE00;" d="M567.7,784c-2.2,7.7-3.8,15.6-6.6,23.1c-2.2,5.9-7.2,8.7-13.8,8.7c-6.3-0.1-10.5-3.1-13.5-8.2 c-7.8-13.1-6.4-27.3-4.2-41.3c1.1-7,12.2-11.4,22-10.2c8,1,13.5,7,14.3,16.2c0.3,3.7,0.1,7.5,0.1,11.3 C566.5,783.7,567.1,783.8,567.7,784z M561.2,797.3c-1.9-6.5-7.6-9-17.2-9.1c-5.8-0.1-9.2,2.6-9.3,8c-0.1,7.4,8.7,18.3,12.4,15.8 C552.7,808.5,556.6,802.4,561.2,797.3z"></path> <path style="fill:#FFCE00;" d="M243.6,502c0-14.3-0.2-25.8,0.1-37.3c0.1-5.4,8.7-7.7,16.2-4.2c15.4,7.2,13.7,18.2,3.7,30.6 C259.5,496.2,251.4,497.9,243.6,502z"></path> </svg> 