<?xml version="1.0" encoding="UTF-8"?> <svg xmlns="http://www.w3.org/2000/svg" xmlns:xlink="http://www.w3.org/1999/xlink" version="1.1" id="Layer_1" x="0px" y="0px" viewBox="0 0 1000 1000" style="enable-background:new 0 0 1000 1000;" xml:space="preserve"> <path style="fill:#FFCE00;" d="M465.8,665.5c0-58.5,0-116.6,0-175.7c7.1,0,13.8,0,20.6,0c7,0,14-0.1,21,0.1 c21,0.5,32.1,9.3,35.9,29.9c2.9,15.7,1.6,31.1-8.4,44.6c-0.9,1.2-2.6,2.3-2.6,3.5c-0.2,2.5-0.5,6.5,0.8,7.5 c12.5,8.3,16.4,20.7,17.5,34.6c1,13.1-0.3,25.8-6.3,37.8c-6.6,13-17.3,18.4-31.7,18.1c-14.3-0.3-28.6-0.1-42.8-0.1 C468.6,665.8,467.7,665.6,465.8,665.5z M506.8,629c2.7,0,5.3,0.2,8,0c8.2-0.7,12.5-5,13.1-12.9c0.6-7.8-3-14.6-9.3-15.6 c-6.2-1-12.5-0.9-18.8-0.9c-3.9,0-5.9,2.5-5.9,6.5c0,3.3,0,6.6,0,10C493.8,629,493.8,629,506.8,629z M493.8,545.1L493.8,545.1 c0,3.2-0.4,6.4,0.2,9.4c0.4,2,1.8,4.6,3.5,5.3c12.9,5,24.4-3.6,23.4-17.3c-0.7-9.2-6.6-13.1-19.3-12.7c-7,0.2-7.7,1.4-7.7,12.2 C493.8,543.1,493.8,544.1,493.8,545.1z M535,641.2c-1.4,1.9-2.6,3-2.9,4.3c-0.2,0.6,1.8,2.5,2.2,2.4c1.3-0.4,2.9-1.5,3.3-2.7 C537.8,644.5,536.2,643.1,535,641.2z"></path> <path style="fill:#FFCE00;" d="M434.2,664.7c-8.8,0-17.1-0.2-25.4,0.1c-3.4,0.1-3.7-2.1-4.4-4.3c-5.1-15.9-10.2-31.9-15.4-47.8 c-2-6.3-9.2-9.4-14.5-5.6c-1.8,1.3-2.8,4.8-2.9,7.3c-0.2,14.6,0,29.2,0.1,43.9c0,1.8,0,3.6,0,5.5c-9.5,0-18.5,0-27.6,0 c-0.2-1.1-0.5-1.9-0.5-2.7c0.1-53.5,0.2-107,0.3-160.5c0-1,0.1-2,0-3c-0.2-2.6,1.1-3.3,3.6-3.5c13.1-0.7,26.2-1.5,39.3-2.4 c17.1-1.2,29.7,5.2,37,21.2c12.2,26.8,12.5,52.5-6.4,76.8c-1.6,2-2,6-1.3,8.6c5.7,21.3,11.7,42.5,17.7,63.7 C434,662.8,434.1,663.6,434.2,664.7z M372.1,550.4c-0.1,0-0.1,0-0.2,0c0,1,0,2,0,3c0,15.5,2.5,17.5,17.8,14.6 c9.6-1.8,14.5-8,14.5-18.4c0-9.5-4.6-15.2-14.1-16.9c-3.7-0.7-7.6-0.7-11.4-0.7c-4.1,0-6.6,2.1-6.7,6.4 C372,542.5,372.1,546.4,372.1,550.4z"></path> <path style="fill:#FFCE00;" d="M305.3,661c-9,0-17.5,0.1-25.9-0.2c-0.8,0-2.2-2.5-2.2-3.9c-0.2-10.1-0.1-20.3-0.1-30.4 c0-6.3-1.4-7.8-7.8-8.1c-4-0.2-8-0.2-12-0.2c-6.5,0-9,2.4-9.1,9c-0.1,9.5,0,18.9,0,28.4c0,1-0.1,1.9-0.2,3.6 c-9-0.6-17.8-1.1-26.9-1.7c0-2,0-3.3,0-4.6c-0.2-33.6-0.7-67.1-0.4-100.7c0.1-15.3,3.5-30,13.2-42.4c11.4-14.6,26.9-18.8,44.5-15.7 c11.9,2.1,18.9,10.8,21.5,21.8c2.7,11.2,4.7,22.8,4.9,34.2c0.7,35.4,0.4,70.7,0.5,106.1C305.3,657.8,305.3,659.4,305.3,661z M277.4,563.1c0.1,0,0.3,0,0.4,0c-0.5-5.9-0.5-12-1.6-17.8c-1.4-7.9-5.4-11.2-12.2-11.3c-6.8-0.1-12.8,3.9-13.6,11.3 c-1.2,11.2-1.1,22.5-1.3,33.7c-0.1,3.5,2.7,4.2,5.6,4.2c5.3,0.1,10.7-0.1,16,0.1c4.8,0.2,6.6-2.3,6.7-6.7 C277.5,572.1,277.4,567.6,277.4,563.1z M230.9,637.6c-1.8,2.5-3.5,3.8-3.6,5.3c-0.1,1.1,2.3,3.5,3,3.3c1.5-0.4,3.3-2,3.7-3.4 C234.3,641.8,232.5,640.2,230.9,637.6z"></path> <path style="fill:#FFCE00;" d="M729.8,660.8c-9.4,0.4-18,0.8-27.2,1.2c0-55.6,0-111,0-166.9c8.3,0.4,16.4,0.8,24.5,1.3 c6.5,0.4,12.9,1,19.4,1.6c25.5,2.5,39.3,22.1,42.9,42.1c2.8,15.8,1.2,31.3-9.9,43.6c-6.1,6.8-6.6,12.4-3.6,20.6 c6.2,17,11.2,34.5,17,52.6c-4.6,0.4-8.8,0.8-13,1.1c-3.5,0.2-7.1-0.3-10.4,0.5c-5.2,1.2-6.9-1-8.3-5.5c-4.3-13.9-9.1-27.6-13.7-41.4 c-2.1-6.4-4.9-7.7-12.3-6.5c-5.5,0.9-5.5,5-5.5,9c0,13.6,0,27.3,0.1,40.9C729.8,656.7,729.8,658.5,729.8,660.8z M730,552.4 c0,3.1,0,6.3,0,9.4c0,6.4,1.9,8.3,8.2,8.4c2.5,0,5,0,7.5,0c10.5-0.1,17-6,17.6-16.7c0.5-8.7-3.6-16.7-14.3-18.3 c-3.7-0.5-7.6-0.8-11.4-0.8c-5.3-0.1-7.2,1.7-7.5,7C729.8,545.1,730,548.7,730,552.4z M719.4,599.3c-2.6-1.9-4-3.7-5.4-3.7 c-1.1,0-3.4,2.2-3.2,3.2c0.2,1.5,1.8,3.6,3.2,3.9C715.2,602.9,716.8,601,719.4,599.3z"></path> <path style="fill:#FFCE00;" d="M606.6,492.7c0.1,1.7,0.3,2.8,0.3,3.9c0.3,28.9,0.4,57.8,0.8,86.8c0.1,10.1,0.3,20.2,1.5,30.2 c1,7.9,6.1,11.9,12.4,12c6.5,0.1,11.3-4.3,12.9-12.2c0.7-3.4,1.1-6.9,1.1-10.3c0.1-35.4,0.1-70.8,0.2-106.2c0-1.3,0-2.6,0-4.8 c9.4,0.5,18.5,0.9,28.1,1.3c0,2.1,0,3.9,0,5.7c0.1,36.6,0.3,73.1,0.2,109.7c-0.1,17.3-4.5,33.4-15.9,47.1 c-14.4,17.3-46,20.2-59.2-4.7c-4.7-8.9-7.9-18.1-8-28.3c-0.5-43.8-1.1-87.7-1.7-132.7C588.4,491,597.2,491.8,606.6,492.7z M628.4,636c-2.2,3.2-4.4,5-4.4,6.8c0,1.5,2.6,3,4.1,4.4c1.6-1.6,4-3,4.5-4.9C632.9,641,630.6,639.1,628.4,636z M611.1,628.6 c-1.6,2.8-3.4,4.6-3.1,5.8c0.3,1.4,2.5,2.3,3.9,3.5c1-1.3,2.9-2.6,2.8-3.9C614.7,632.6,613,631.2,611.1,628.6z M647,587.4 c-1.6-1.4-2.9-3.2-3.5-2.9c-1.3,0.4-2.2,1.9-3.3,2.9c1,0.9,1.9,2.5,2.9,2.6C644.1,590.1,645.2,588.6,647,587.4z"></path> <path style="fill:#FFCE00;" d="M954.6,645.2c-9.2,0.8-17.9,1.6-27.3,2.5c0-2.2,0-3.8,0-5.4c0-29.1,0-58.1,0-87.2 c0-8.6-1.7-10.5-10.4-10.7c-6.3-0.2-12.6,0-19.1,0c0-11.9,0-22.8,0-34.2c28.7,3.2,57,6.4,85.9,9.7c0,9.8,0,18.8,0,28 c-6.5,0-13.1,0.4-19.6-0.1c-7.6-0.6-9.4,0.7-9.4,8.6c0,27.9,0,55.8,0,83.7C954.6,641.6,954.6,643.3,954.6,645.2z"></path> <path style="fill:#FFCE00;" d="M873.5,538.9c-13.3,2.6-18.9,11.3-15.1,24.4c1.6,5.7,4.4,11.1,6.8,16.5c11,24.8,7.1,50.1-11.1,68.6 c-3.9,3.9-8.8,7-13.6,9.8c-1.4,0.8-4.3-0.3-6.1-1.3c-1.4-0.8-2-2.8-3.1-4.1c-3.6-3.9-4.6-7.6-2.1-13c2.6-5.6,0.5-10.1-4.9-17.3 c0.9-0.5,1.7-1,2.6-1.3c9.5-3.9,13.7-12.3,10.5-22.2c-2.8-8.8-7-17.2-9.3-26.1c-4.1-15.7-4.2-31.5,2.1-46.9 c3.3-7.9,8.6-14.3,15.6-19c8.1-5.4,17-4.5,25.8-1.3c0.9,0.3,1.8,2,1.8,3C873.6,518.6,873.5,528.5,873.5,538.9z"></path> <path style="fill:#FFCE00;" d="M83.4,510.7c0,11.5,0,21.3,0,31.3c-9.9,1.3-15.8,7-16.2,16.6c-0.2,5,1.5,10.5,3.8,15.1 c4.7,9.4,9.1,18.7,9.9,29.4c1.1,15.6-5,33.3-21.1,41.2c-10,4.9-20.3,3.8-30.4-0.2c-1-0.4-2.1-1.8-2.2-2.8 c-0.2-7.9-0.1-15.9-0.1-23.5c3.9-0.5,7.4-0.6,10.7-1.5c8.2-2.3,12.4-9.7,9.7-17.8c-1.8-5.5-4.3-10.7-6.9-15.9 c-15.3-30.7,0.8-57.3,25.3-68.1C71,512.2,77,512,83.4,510.7z M72.9,609.7c-1.7-1.1-2.8-2.4-3.6-2.3c-1.1,0.3-2,1.6-3,2.5 c0.9,0.9,1.8,2.6,2.7,2.6C70.1,612.5,71.1,611,72.9,609.7z"></path> <path style="fill:#FFCE00;" d="M193.2,504.4c0,4.9,0,9.1,0,13.2c0,7.1,0,14.2,0,22.8c-7.1,0-13.9-0.1-20.6,0c-6.5,0.1-8.2,2-8.4,8.4 c-0.3,8.2-0.8,16.4-1.2,25c1.4,0.3,2.6,0.5,3.7,0.7c0.1,0.4,0.3,0.8,0.4,1.1c-2.6,1.5-6,4.9-7.8,4.2c-9.7-3.8-16.9-1.8-22.9,7 c0-10.7,0-21.4,0-32c0-1.8,0-3.7-0.1-5.5c-0.3-5.3-2-7.1-7.4-6.9c-5.8,0.1-11.6,0.6-17.4,0.9c-1.3,0.1-2.6,0-4.2,0 c0-10.8,0-21.2,0-32.9C135.6,508.5,163.9,506.5,193.2,504.4z M149.4,567.3c1.5-2.4,3.1-3.9,2.9-5.2c-0.2-1.3-2.1-2.4-3.2-3.6 c-1.2,1.3-3.1,2.5-3.3,4C145.6,563.6,147.6,565,149.4,567.3z M157.4,535c-1.9-1.2-3.2-2.5-4.1-2.3c-1.1,0.2-1.9,1.8-2.8,2.8 c1,0.9,2,2.4,3,2.5C154.5,538,155.6,536.5,157.4,535z"></path> <path style="fill:#FFCE00;" d="M163.6,653.2c-8.1-0.5-15.6-0.7-23-1.4c-1.2-0.1-3.2-2.3-3.3-3.6c-0.1-3.9-2.1-8.7,3.3-11.2 c0.1-0.1-0.7-2.7-1.4-4c-0.8-1.4-2.4-2.6-2.8-4c-1.8-7.3,0.3-13.7,5.6-18.9c1.2-1.2,3.2-3,4.2-2.7c6.8,2.1,12.2-0.4,17.2-4.8 C163.6,619.5,163.6,636,163.6,653.2z"></path> <path style="fill:#FFCE00;" d="M830,660.6c-4.5-0.8-7.9-0.9-10.6-2.2c-1.5-0.7-2.3-3.5-2.6-5.5c-0.1-0.8,2.1-2.7,3.2-2.7 c1.4,0,3,1.2,4.1,2.4C826,654.7,827.4,657.1,830,660.6z"></path> <path style="fill:#FFCE00;" d="M618,440c3.5-1.9,6.5-4.3,8.9-7.5c2.4-2.1,4.1-4.7,5.2-7.7c1.8-2.7,2.7-5.6,2.8-8.9 c1.3-2.8,0.9-5.9,0.6-8.9c0.1-3.2-0.6-6.2-2.7-8.7l0,0c-2.2-4.6-6.1-7.2-10.8-8.9c-1.8-0.7-3.4-1.6-5.6-2.7c2.1-1.2,3.7-2.2,5.5-3.2 c4.4-1.2,7.4-4.1,9.9-7.5c3-2.2,3.4-5.6,4.9-8.6l0,0c1.6-2.8,2.1-5.8,1.8-9c0-1.3-0.1-2.7-0.1-3.8c0.1-1,0.1-2.1-0.6-3l0,0 c-0.3-2.7-1.2-4.9-3.1-6.8c-2.2-4-5.9-6.4-9.9-8.1c-5.6-2.5-11.5-2.8-17.6-2.8c-25.3,0-50.5,0-75.8,0c-1.2,0-2.5-0.4-4.3,1 c1.9,1.8,3.8,3.4,5.6,5.2l0,0c1.8,2.5,3.5,5,5.3,7.5c0.3,1.3,0.9,2.4,1.8,3.2l0,0c0.3,0.6,0.4,1.2,0.7,1.8l0,0 c0.4,1.2,1.2,2.4,1.3,3.5c0.6,5.8,4.3,6.2,9.2,6.1c16.1-0.3,32.3,0,48.6-0.1c4.7,0,7.8,1.6,8.1,6.6l0,0c-0.4,1.3-1,2.7-1.5,4 c-2.5,2.5-5.8,3.2-9.3,3.2c-15.4-0.1-30.7,0-46.1,0c-1.5,0-3.2-0.6-4.6,0.6l0,0c-0.1,3.2-0.3,6.5-0.4,9.7c-1.3,1.8-0.7,3.8-0.7,5.8 c-0.6,2.7-1,5.3-1.9,8c-1.2,3.4-0.6,4.7,3.4,4.6c11.4-0.3,22.6-0.1,34,0c7.5,0.1,15.2-0.7,22.7,0.4l0,0c2.8,2.2,3.7,5,2.4,8.4 c-2.4,3.8-5.9,5-10.3,5c-18-0.1-36-0.1-53.9,0c-1.6,0-3.5-0.9-5,0.9l0,0c-1.9,1.9-3,4.3-4.1,6.8c-1.5,1.9-2.8,3.8-4.3,5.8l0,0 c-2.2,2.4-4.3,4.6-6.5,6.9c-2.8,2.4-5.6,4.9-9.3,8c22,0,42.7,0,63.5,0c7.2,0,14.6,0.1,21.7-1.3C604.7,445.2,611.8,444.6,618,440z"></path> <path style="fill:#FFCE00;" d="M643.1,447.2c27.3,0,54.7,0,82.1,0.1c2.4,0,3.7-0.9,3.8-3.2c0.6-1.9,1.2-3.8,0.9-5.9 c0.3-2.5,0.7-5.2,1-7.7c0.3-1.8,0.9-3.4,1-5.2c0.7-6.4,0.7-6.4-5.8-6.4c-16,0-31.8,0-47.7,0c-1.6,0-3.7,0.7-4.9-1c1-2.1,1-4.3,1-6.6 l0,0c0-6.2,4-6.6,8.9-6.4c5.9,0.3,12,0,17.9,0.1c3.4,0.1,5.2-1,5-4.6c0.1-1.3,0.3-2.5,0.3-3.8l0,0c1.2-2.1,0.9-4.4,1-6.6l0,0 c1.2-3.5,1.6-7.2,1.8-10.9c0.4-3.4-2.2-2.5-3.8-2.5c-7.2-0.1-14.5-0.3-21.7,0c-3.2,0.1-3.8-1.3-3.5-3.8c2.1-3.1-0.1-6.9,1.9-10l0,0 c17.3,0,34.6-0.1,51.7-0.1c8.3,0,8.3,0,8.9-8.1c0-0.1,0-0.3,0-0.4l0,0c1-1.8,0.7-3.7,0.9-5.8l0,0c0.6-2.8,1-5.6,1.8-8.4 c1-4,0-5.6-4.7-5.6c-25.7,0.1-51.4,0-77.3,0c-6.9,0-6.9,0-7.5,7.1c-0.3,2.2-0.6,4.6-1,6.8l0,0c-0.6,4.1-1.3,8.4-1.9,12.6l0,0 c-0.3,2.2-0.7,4.6-1,6.8c-0.3,2.7-0.7,5.2-1,7.8c-0.6,3.8-1.3,7.7-1.9,11.7c-0.3,1.9-0.6,3.8-0.9,5.9c-0.1,0.9-0.1,1.9-0.3,2.8l0,0 c-1.2,3.2-1.3,6.5-1.8,9.9c-0.6,4.1-1.3,8.4-1.9,12.6c-0.6,2.5-1.3,5.2-1,7.8c-1,2.2-1.2,4.4-1,6.8c-1,2.1-1,4.4-1,6.8l0,0l0,0 c-1,1.5-0.6,3.1-1,4.7C639.4,446.3,640.5,447.2,643.1,447.2z"></path> <path style="fill:#FFCE00;" d="M321.7,438.1c2.7-1,4.7-2.8,6.8-4.7l0,0c1.3-1.2,2.7-2.5,4-3.7l0,0c3.1-1.9,4.7-5.2,6.8-8 c2.2-2.2,4-4.7,4.9-7.8c2.1-2.5,2.8-5.8,3.8-8.7c1.3-1.8,1.8-3.7,1.9-5.9c1.5-1.3,0.7-3.2,1-4.9l0,0c1.8-2.1,0.6-4.6,1-6.8 c0.1-0.1,0.1-0.3,0.1-0.4c1.9-5.3,0.3-10.8-0.3-16.1c-0.6-2.2-1.3-4.6-1.9-6.8l0,0l0,0c-0.6-1.6-1.3-3.2-1.9-4.9 c-0.9-1.6-1.3-3.5-3-4.9l0,0l0,0c-0.9-1.9-1.8-3.8-3.8-4.9l0,0c-2.1-3-4.4-5.3-7.8-6.8c-1.9-1.8-4.1-3-6.5-4 c-11.8-5.5-24.5-5.3-37.1-4.6c-5.8,0.3-12,0.9-17,4.6l0,0c-4,0.1-6.9,2.5-9.7,4.9c-2.8,0.7-4.9,2.8-6.8,4.9l0,0 c-2.1,1.2-3.5,2.8-4.9,4.9l0,0c-1.6,1-3,2.2-3.8,3.8l0,0c-2.1,1.5-3.2,3.4-4,5.8l0,0c-1.9,1-2.5,3-3,4.9c-1.5,1.6-2.5,3.7-2.8,5.9 l0,0c-1.2,2.1-2.2,4.3-2.1,6.8l0,0c-1.2,2.5-1.9,5-1.9,7.8l0,0c-1.3,2.5-0.9,5.2-0.9,7.8l0,0c0,2.7,0,5.2,0,7.8 c-0.1,2.1-0.4,4,0.9,5.8c-0.1,2.5,0.9,4.6,1.9,6.8l0,0l0,0c0.1,2.2,1.3,4.1,2.7,5.9l0,0c0.6,1.9,1.3,3.7,3,4.9l0,0 c0.9,2.7,3,4.1,4.9,5.8c2.4,3.1,5.5,5,8.9,6.6c1.5,1.6,3.5,2.2,5.5,3c16.7,6.1,33.4,5.8,50.1,0l0,0 C314.9,442.1,318.5,440.6,321.7,438.1L321.7,438.1L321.7,438.1z M313,378.2c0,1.8,0,3.5,0,5.2h-0.1c-1.6,3-2.8,5.9-1,9.3 c-1.2,1.2-1.9,2.5-1.2,4.1c-1.5,1.8-2.4,3.7-1.8,6.1c-2.5,1.8-3.5,4.6-3.8,7.5c-3.5,2.1-6.9,4.1-9.7,7.1c-0.3,0-0.6-0.1-0.9-0.1 c-3.7-0.3-7.4-0.3-10.9-0.1c-0.3,0-0.6,0-0.7,0c-1.9-2.5-4.6-4.1-7.5-5.3c1-2.4,0.3-4.3-2.1-5.8c0.4-0.6,0.6-1.2,0.6-1.9 c-0.4-1.6-0.1-3.4-0.9-5c0-0.9,0-1.6,0-2.5c0.6-1.6,0.3-3.4,0.6-5c0-0.4-0.1-0.7-0.3-1c2.1-2.1,2.5-4.6,1.5-7.4 c2.5-1.2,2.4-3.4,1.8-5.8c2.5-0.9,3.1-2.7,2.5-5.2c2.8-0.9,4.9-2.4,4.9-5.5c3.2-0.6,6.2-1.9,8.7-4.1h0.1c3.8,0.6,7.5,1.9,11.5,1.6 c1.2,2.4,2.5,4.4,5.6,4.6c0.1,0,0.1,0,0.3,0C308.9,372.8,310,375.7,313,378.2z"></path> <path style="fill:#FFCE00;" d="M492.2,441.9c4.1-1.3,7.5-3.7,10.8-6.6l0,0c0.6-0.3,1.2-0.7,1.8-1l0,0l0,0c1.6-0.6,2.8-1.6,3.8-3l0,0 c1.3-1.3,2.7-2.7,3.8-4l0,0c2.4-1.8,4-3.8,5-6.5c2.1-1.5,3.2-3.4,3.8-5.9c1.2-1,1.8-2.4,1.9-3.8c1.2-1,1.8-2.4,1.9-4l0,0 c1.6-2.7,2.7-5.6,2.8-8.7c1.2-1.8,1-3.8,1-5.8c0-0.3,0-0.6,0-0.9l0,0c1.9-3.4,0.4-7.2,0.9-10.8c0-1.9,0-3.8,0-5.8 c-0.3-1.6-0.6-3.2-0.9-4.9l0,0c-0.3-1.6-0.6-3.2-1-4.9l0,0c-1-1.9-0.9-4.4-2.8-5.9c0-1.3-0.6-2.4-1.9-3c-0.3-1-0.7-1.9-1-3l0,0l0,0 c-1.3-1.6-2.7-3.2-3.8-4.9l0,0l0,0c-2.1-2.7-4.6-4.6-7.8-5.9l0,0c-0.6-1.3-1.8-1.8-3-2.4c-13.1-6.9-27.2-7.2-41.5-5.9 c-5.5,0.6-11.2,1.2-16.1,4.4c-3.5,1-6.8,2.7-9.7,4.9c-2.7,1-4.7,3.1-6.8,4.9l0,0c-0.9,0.3-1.6,1-1.9,1.9c-1.3,0.6-2.2,1.6-3,3l0,0 c-2.5,1.2-3.2,3.8-4.9,5.8c-2.4,2.7-4.3,5.6-5.8,8.7l0,0c-1,2.2-2.7,4.3-3,6.8l0,0l0,0c-1.2,3.1-2.7,6.2-3,9.7 c-0.4,1.9-1.3,3.8-1,5.9l0,0l0,0c-0.9,5.2-2.1,10.3-0.1,15.7c0.1,1.6-0.4,3.4,0.9,4.9c0,2.5,0.4,4.9,2.1,6.8l0,0 c0,0.7,0.1,1.5,0.9,1.9c0.6,2.2,1.5,4.1,3,5.9c0,1.3,0.7,2.2,1.9,3c0.7,0.9,1.3,1.9,2.1,2.8l0,0l0,0c2.2,3.1,5.3,5.3,8.6,7.1 c3.8,3.5,8.6,5.3,13.4,6.5C460.4,448.7,476.5,448.4,492.2,441.9L492.2,441.9z M491.3,385.6C491.3,385.8,491.3,385.8,491.3,385.6 C491.3,385.8,491.3,385.8,491.3,385.6C491.3,385.8,491.3,385.8,491.3,385.6C491.3,385.8,491.3,385.8,491.3,385.6 C491.3,385.8,491.3,385.8,491.3,385.6z M451.2,406.6c-0.3-2.1-0.6-4-0.9-6.1c0.1-0.1,0.3-0.3,0.4-0.3c1-2.2,1.3-4.6-0.3-6.6 c1.5-2.2,2.4-4.6,1.2-7.2c2.4-1.6,2.7-4.3,2.5-6.9c2.4-1.3,2.8-3.5,2.1-6.4l0,0c4.3-0.9,5.8-5,8.6-7.7c5.6-1,11.2-1.9,17-0.9 c1.9,2.2,3.2,5.3,6.5,5.8c-0.7,1.9-0.7,3.4,1,4.3c-0.6,3.5-0.7,6.9,0.3,10.5c0.1,0.3,0.4,0.6,0.7,0.7c-1,1.2-1,2.5,0,3.7 c-1.6,1.6-2.4,3.5-0.9,5.8c-2.2,1.8-3,4.1-2.1,7.1c-1.6,0.7-1.9,1.9-1.2,3.4c-2.5,0.9-3.5,2.8-3.7,5.6c-2.8,1-5.3,2.5-6.9,5.2 c-0.1,0-0.3,0-0.4,0c-5.5,1.2-10.9,1-16.2,0c-0.9-1.9-2.7-2.8-4.6-3.5c0,0,0,0-0.1,0C455.1,410,453,408.4,451.2,406.6z"></path> <path style="fill:#FFCE00;" d="M207.2,333.2c8.7-1.5,16.7-4.7,22.3-13.4c-8.7,0-16.4,0.3-24.1-0.1c-4.7-0.3-5.9,1.5-6.4,5.8 C198.1,334.5,197.9,334.8,207.2,333.2z"></path> <path style="fill:#FFCE00;" d="M383.2,333.3c9.7-1,18-4.6,24.7-13.6c-8.3,0-15.5,0-22.7,0c-6.9,0-6.9,0-8.3,6.8 C375.5,334.1,375.5,334.1,383.2,333.3z"></path> <path style="fill:#FFCE00;" d="M356.9,461c4.4-0.4,9-1.5,12.7-4.4l0,0c3.5-0.1,5.2-3.4,7.8-4.9l0,0l0,0c1.9-0.6,3-2.1,4-3.5 c3-1.8,3.5-5.2,5-7.8c1.2-1.3,1.8-3,1.8-4.7c1.3-2.1,1.9-4.4,1.9-6.8l0,0c1.2-1,0.9-2.5,0.9-4l0,0c1.5-1.8,0.7-3.8,1-5.8 c1.6-1.8,0.7-3.8,1-5.9l0,0c1.6-2.1,0.6-4.6,1-6.8l0,0c1.5-1.8,0.6-3.8,0.9-5.8l0,0c1.8-2.1,0.6-4.6,1-6.8l0,0 c1.6-1.8,0.7-3.8,0.9-5.9c2.1-3.7,0.1-8,1.9-11.7l0,0l0,0c0-0.3,0-0.6,0-0.9l0,0c1.5-3.4,1.3-7.1,1.9-10.8l0,0 c0.6-2.2,1.3-4.4,1-6.8l0,0c0.6-2.2,1.3-4.4,1-6.8c1-4.6,2.2-9,1.6-14.8c-6.2,6.6-13.3,9.6-21.1,11.4c-3.2,0.7-6.8-0.7-9.7,1.3l0,0 l0,0c-0.3,2.2-0.6,4.6-1,6.8l0,0c-0.6,2.2-1.3,4.4-1,6.8c-0.3,1.9-1.3,3.8-1,5.9c-0.3,1.9-1.3,3.8-1,5.8l0,0l0,0 c-0.1,2.7-1.5,5-1,7.8l0,0l0,0c-1.5,2.4-0.7,5.2-1,7.7c-1.3,2.8-1.2,5.8-1.8,8.7c0,2.4-1.5,4.4-1,6.8l0,0c-0.3,1.9-0.6,3.8-0.9,5.8 l0,0c-0.1,2.4-1.5,4.4-1,6.8l0,0l0,0c0,1-0.1,1.9-0.1,3c-1.2,1.2-0.7,2.5-0.9,4l0,0l0,0c-0.6,2.5-1.3,5.2-1.9,7.7l0,0 c-1,1.6-1.9,3.2-3,4.9l0,0l0,0c-3,1.8-6.1,3.8-9.5,2.4c-3.5-1.5-5.5-0.4-7.2,2.5l0,0l0,0c-2.4,1.9-4.7,3.8-7.1,5.8 c-3,1.2-5.3,3-7.8,4.9l0,0c-1.3,0.3-3.1,0.6-3.1,1.8c0,1.5,1.8,2.2,3.1,2.8C335.4,462.3,346.1,462.1,356.9,461z"></path> <path style="fill:#FFCE00;" d="M799.1,447.2c1.5,0,3.8,0.9,4.1-1.9l0,0c1.8-3.5,0.3-7.5,1.8-11.1c1-2.4,1-5,1.2-7.5l0,0 c1-1.8,0.9-3.8,0.9-5.9c1.2-4.1,1.9-8.4,1.9-12.7c1.2-4.1,1.9-8.4,1.9-12.7c1-2.1,1-4.3,1-6.5l0,0c1.2-4.1,1.8-8.3,1.9-12.7l0,0 c1.2-4.1,1.8-8.4,2.1-12.9l0,0c1.5-1.6,3.2-1,5-1c7.1,0,14.2-0.1,21.3,0c2.8,0,4.3-0.9,4-3.8c0.9-1.2,0.7-2.5,0.6-4 c0-0.6,0.1-1.2,0.1-1.8l0,0c1-1.9,0.9-3.8,0.9-5.9c0.6-2.8,1.2-5.6,1.8-8.4c0.7-3.2-0.3-4.6-3.8-4.6c-12.6,0.1-25.3,0-37.8,0 c-14,0-28.2,0-42.2,0c-2.1,0-4.9-0.7-4.6,3.1c-1.2,2.4-0.9,5.2-1.5,7.7l0,0c-0.9,1.3-0.4,2.7-0.4,4c-0.3,1.3-1.3,2.4-0.9,3.8l0,0 l0,0c-0.3,1.8-0.4,3.5-0.9,5.2c-0.9,3.4,0.1,4.7,3.8,4.6c5-0.3,10-0.3,15.1,0c3.4,0.1,7.1-1.2,10.3,0.9c-0.6,3.8-1.2,7.7-1.9,11.7 c-0.3,2.7-0.7,5.2-1,7.8c-0.6,3.8-1.2,7.7-1.9,11.7l0,0l0,0c-0.6,4.3-1.3,8.4-1.9,12.7l0,0l0,0c-0.3,2.2-0.7,4.6-1,6.8 c-0.6,3.2-1,6.4-1.6,9.6c-0.4,3.2-0.9,6.6-1.3,9.9c-0.4,2.2-1.3,4.4-1,6.8c-1.8,7.1-1.8,7.1,5.5,7.1 C786.6,447.2,792.9,447.4,799.1,447.2z"></path> <path style="fill:#FFCE00;" d="M201.9,449.6c1.8-0.6,2.2-2.2,3.1-3.5l0,0c1.6-1.2,2.4-2.8,3-4.7c2.1-1.9,1.3-4.9,2.8-6.9 c1.8-2.4,0.7-5.3,1.9-7.8l0,0c0.3-1.6,0.7-3.2,1-4.9l0,0c1.5-1.8,0.7-3.8,0.9-5.8h-0.1l0,0c0,0,0.1,0,0.1,0.1 c2.2-3.2-0.1-7.4,1.8-10.8l0,0c0.3-2.2,0.7-4.6,1-6.8c0.3-2.2,0.6-4.6,1-6.8c0-0.3,0-0.6,0-0.9c1.8-2.1,0.6-4.6,1-6.8l0,0 c1.6-1.8,0.7-3.8,0.9-5.9l0,0c1.8-2.1,0.6-4.6,1-6.8l0,0c1.8-2.1,0.6-4.6,1-6.8l0,0c1.6-1.8,0.7-3.8,0.9-5.9l0,0 c1.3-3.8,1.9-7.7,1.9-11.7c1.6-3.5,0.9-7.2,1.5-11.1c-3.7,3.8-8,6.5-12.3,9.2c-4.6,1.2-9.2,3.1-14,2.8c-4.7-0.3-6.1,1.8-5.6,5.9 c-1.5,3.1-0.9,6.5-1.9,9.7c-0.3,2.2-0.6,4.6-1,6.8c0,0.6,0,1.3,0,1.9l0,0l0,0c-1.3,2.1-0.9,4.4-1,6.8l0,0c-0.9,1.5-1,3.1-0.9,4.9 l0,0l0,0c-0.4,1.9-1.3,3.8-0.9,5.9l0,0l0,0c-0.3,1.9-0.6,3.8-0.9,5.8l0,0c-0.3,2.7-1.5,5-1,7.8c-0.6,2.2-1.3,4.4-1,6.8l0,0 c-0.6,1.2-1,2.5-0.9,3.8l0,0l0,0c-0.1,2.4-1.5,4.4-1,6.8l0,0l0,0c-0.3,1.6-0.6,3.2-0.9,4.9l0,0c-0.3,1.6-0.6,3.2-1,4.9l0,0 c-1,2.2-2.2,4.4-3.2,6.6l0,0c-3,1.9-6.4,4.1-9.9,2.5c-3.4-1.5-5-0.1-6.6,2.4l0,0c-1.2,1-2.5,2.1-3.7,3l0,0l0,0 c-1.6,1.3-3.4,2.5-5,3.8l0,0c-2.2,1.3-4.4,2.7-6.6,4l0,0c-1.2,0.3-2.8,0.4-3,1.8c-0.1,1,1.3,1.8,2.4,2.2c14.5,6.6,29,6.6,43.6,0.9 c3.4-1.2,6.5-2.8,8.9-5.5C200.6,451.8,200.9,450.3,201.9,449.6z"></path> </svg> 