<?xml version="1.0" encoding="UTF-8"?> <!-- Generator: Adobe Illustrator 22.0.0, SVG Export Plug-In . SVG Version: 6.00 Build 0) --> <svg xmlns="http://www.w3.org/2000/svg" xmlns:xlink="http://www.w3.org/1999/xlink" version="1.1" id="Layer_1" x="0px" y="0px" viewBox="0 0 1000 1000" style="enable-background:new 0 0 1000 1000;" xml:space="preserve"> <g> <path style="fill:#FFFFFF;" d="M805.7,336.9H100.9c-42.5,0-76.9,35-76.9,77.6v323c0,42.6,34.3,77.3,76.9,77.3h704.8 c42.2,0,76.5-34.7,76.5-77.3v-323C882.2,372,847.8,336.9,805.7,336.9z M854.9,737.5c0,27.1-22.4,49.7-49.3,49.7H100.9 c-27.2,0-49.6-22.6-49.6-49.7v-323c0-27.5,22.4-49.7,49.6-49.7h704.8c26.9,0,49.3,22.2,49.3,49.7V737.5z"></path> <path style="fill:#FFFFFF;" d="M940.7,139.8c-27.2,0-49.6,22.2-49.6,49.7c0,27.5,22.4,49.7,49.6,49.7c27.2,0,49.3-22.2,49.3-49.7 C990,162.1,968,139.8,940.7,139.8z"></path> <path style="fill:#FFFFFF;" d="M954.9,249.1c-4.5,1.1-9.3,1.5-14.2,1.5c-5.2,0-10.1-0.4-14.6-1.5v239.3 c10.8,4.1,20.5,10.2,28.7,17.7V249.1z"></path> <path style="fill:#FFFFFF;" d="M893.4,493.7V658c45.1,0,81.3-36.6,81.3-82.2C974.7,530.6,938.5,493.7,893.4,493.7z"></path> <path style="fill:#FFFFFF;" d="M436.2,556.5c-18,17.2-41.8,26.7-66.5,26.7c-1.3,0-2.5-0.1-3.8-0.1c2.2,18.9,10.3,37.2,24.3,51.9 l62.2-62.2L436.2,556.5z"></path> <path style="fill:#FFFFFF;" d="M433.1,553.4l-43-43c-18.1,18.9-26.3,43.9-24.7,68.2C390.5,579.8,414.9,570.7,433.1,553.4z"></path> <path style="fill:#FFFFFF;" d="M471.6,591.9l-16.2-16.2L393.2,638c14.7,14,33,22.1,51.8,24.3C444,636.1,453.5,610.9,471.6,591.9z"></path> <path style="fill:#FFFFFF;" d="M439.3,553.4l16.2,16.2l62.2-62.2c-14.7-14-33-22.1-51.8-24.3C467,509.2,457.4,534.4,439.3,553.4z"></path> <path style="fill:#FFFFFF;" d="M461.5,482.6c-2-0.1-4-0.2-6-0.2c-22.4,0-44.8,8.3-62.2,24.9l43,43 C453.6,532,462.7,507.7,461.5,482.6z"></path> <path style="fill:#FFFFFF;" d="M449.4,662.7c24.4,1.6,49.3-6.6,68.3-24.7l-43-43C457.4,613.3,448.3,637.6,449.4,662.7z"></path> <path style="fill:#FFFFFF;" d="M477.8,591.9l43,43c18.1-18.9,26.3-43.9,24.7-68.2C520.4,565.5,496,574.6,477.8,591.9z"></path> <path style="fill:#FFFFFF;" d="M522.9,401.7c-46.6,0-92.9,0-139.5,0c-23.5,0-42.5,19.6-42.5,43.3c0,87.1,0,174.5,0,261.9 c0,23.7,19,43,42.5,43c46.6,0,92.9,0,139.5,0c23.5,0,42.5-19.2,42.5-43c0-87.4,0-174.9,0-261.9 C565.4,421.3,546.4,401.7,522.9,401.7z M524.7,641.9c-18.5,18.5-43.1,28.7-69.3,28.7c-26.2,0-50.8-10.2-69.3-28.7 c-38.2-38.2-38.2-100.3,0-138.5c18.5-18.5,43.1-28.7,69.3-28.7c26.2,0,50.8,10.2,69.3,28.7C562.9,541.6,562.9,603.7,524.7,641.9z"></path> <path style="fill:#FFFFFF;" d="M458.6,572.6l16.2,16.2c18.9-18.1,44.2-27.6,70.3-26.6c-2.2-18.8-10.3-37.1-24.3-51.8L458.6,572.6z"></path> <path style="fill:#FFFFFF;" d="M144.1,596.4l20.4-6.9c0-0.2,0-0.4,0-0.5l11.7-37.3l-12.3-20.3l-26.2-3.7l-16.4,52.3L144.1,596.4 C144.1,596.3,144.1,596.4,144.1,596.4z"></path> <path style="fill:#FFFFFF;" d="M177.7,657.3l-37.6-26.7C150.1,642.4,163,651.7,177.7,657.3z"></path> <path style="fill:#FFFFFF;" d="M181.4,497.2L181.4,497.2l49.9,0.1l-2-11.2c-0.1-0.5,0.1-0.9,0.6-1.1l0.5-0.2 c-6.7-1.6-13.6-2.4-20.8-2.4c-12.5,0-24.4,2.5-35.2,7.1l6.8,6.6C181.5,496.3,181.6,496.8,181.4,497.2z"></path> <path style="fill:#FFFFFF;" d="M166.3,591.2l-22.2,7.4l-8.2,26.2l44.3,31.5l19.5-15.7c0,0,0.1-0.1,0.1-0.1l-2.9-27.6L166.3,591.2z"></path> <path style="fill:#FFFFFF;" d="M216.9,550.1c0.1,0,0.3,0,0.4,0.1l19.4-24.5c-0.3-0.2-0.5-0.4-0.5-0.7l-4.5-25.6h-51.4l-14.8,30.5 l12.5,20.6L216.9,550.1z"></path> <path style="fill:#FFFFFF;" d="M131.6,526.9c-7.9,13.4-12.5,29.1-12.5,45.7c0,2.1,0.1,4.1,0.2,6.1l16.1-51.3L131.6,526.9z"></path> <path style="fill:#FFFFFF;" d="M276.5,531.4c-0.1,0-0.1,0-0.2,0l-4.3-0.6l13.4,39.9l2.1-1.8c0.4-0.3,0.9-0.3,1.3-0.1l11.1,7 c0-1,0.1-2.1,0.1-3.1c0-19.8-6.4-38.1-17.2-53l-5.4,11.1C277.2,531.1,276.9,531.4,276.5,531.4z"></path> <polygon style="fill:#FFFFFF;" points="257.9,597.9 228.9,590.4 199.1,612.6 202.1,641.4 226.4,657.3 269,625.7 "></polygon> <path style="fill:#FFFFFF;" d="M277.7,401.7H138.5c-23.5,0-42.9,19.6-42.9,43.3V707c0,23.7,19.4,43,42.9,43h139.2 c23.5,0,42.9-19.2,42.9-43V445.1C320.6,421.3,301.2,401.7,277.7,401.7z M209.6,670.6c-54,0-98-43.9-98-98c0-54,43.9-98,98-98 c54,0,98,43.9,98,98C307.5,626.7,263.6,670.6,209.6,670.6z"></path> <path style="fill:#FFFFFF;" d="M239.1,526.1l-20.7,26.1l12.1,36c0,0.1,0.1,0.2,0.1,0.3l26.3,6.8c-0.2-0.4,0-0.9,0.3-1.2l26.5-22.1 l-14-41.7L239.1,526.1z"></path> <path style="fill:#FFFFFF;" d="M272.6,632.8c-0.4,0-0.8-0.3-1-0.7l-1.7-4.3l-41.5,30.8l2.9,1.9c18.1-4.5,34.1-14.4,46.1-27.9 L272.6,632.8C272.6,632.8,272.6,632.8,272.6,632.8z"></path> <path style="fill:#FFFFFF;" d="M748,598.9c-3.6,13.7-13.9,23.6-28.9,28c-5.4,1.6-11.1,2.4-16.8,2.4c-15.2,0-30.6-5.5-41.5-15.4 c-0.7-0.6-1.3-1.2-1.9-1.8c-12.2-12.2-18.3-29.2-16.6-46.6c1.5-15.4,9-34.4,25.7-41.2c27.7-11.3,41.8-24.9,41-39.5 c-3.2-0.4-6.5-0.5-9.8-0.5c-22.7,0-45.3,8.6-62.5,25.9c-16.7,16.7-25.9,38.9-25.9,62.5c0,23.6,9.2,45.8,25.9,62.5 c16.7,16.7,38.9,25.9,62.5,25.9c23.6,0,45.8-9.2,62.5-25.9c19.7-19.7,28.2-46.5,25.3-72.3C768.9,559.7,755,572.4,748,598.9z"></path> <path style="fill:#FFFFFF;" d="M713.3,485.3c0.3,12.2-8.1,28.3-43.7,42.9c-14.9,6.1-21.7,23.4-23,37.6 c-1.5,16.1,4.1,31.8,15.4,43.2c0.6,0.6,1.2,1.1,1.8,1.7c13.9,12.7,35.7,17.5,54.2,12.1c13.5-4,22.8-12.9,26-25 c7.4-27.9,22.8-42,42.4-39.4c-1.5-9.4-4.4-18.4-8.7-26.7c0,0,0,0,0-0.1c-0.3-0.5-0.5-1-0.8-1.5c-3.9-7.2-8.9-14-15-20.1 C748.1,496.4,731,488.2,713.3,485.3z"></path> <path style="fill:#FFFFFF;" d="M767.6,401.7H628.5c-23.5,0-42.9,19.6-42.9,43.3V707c0,23.7,19.4,43,42.9,43h139.2 c23.9,0,42.9-19.2,42.9-43V445.1C810.5,421.3,791.5,401.7,767.6,401.7z M767,640.5c-18.1,18.1-42.2,28.1-67.8,28.1 c-25.6,0-49.7-10-67.8-28.1c-18.1-18.1-28.1-42.2-28.1-67.8s10-49.7,28.1-67.8c37.4-37.4,98.3-37.4,135.7,0 C804.4,542.2,804.4,603.1,767,640.5z"></path> </g> </svg> 