<?xml version="1.0" encoding="UTF-8"?> <!-- Generator: Adobe Illustrator 22.0.0, SVG Export Plug-In . SVG Version: 6.00 Build 0) --> <svg xmlns="http://www.w3.org/2000/svg" xmlns:xlink="http://www.w3.org/1999/xlink" version="1.1" id="Layer_1" x="0px" y="0px" viewBox="0 0 1000 1000" style="enable-background:new 0 0 1000 1000;" xml:space="preserve"> <path style="fill:#FFFFFF;" d="M604.7,463.7c2.6-3.8,5.1-7.1,7.3-10.6c37.1-57.7,74.3-115.4,111.4-173.1 c25.8-40.1,72.6-59.6,118.9-49.4c46.8,10.3,82,48.3,87.9,95.7c3,23.8-0.9,46.5-12.6,67.7c-2.7,4.9-5.7,9.6-8.7,14.3 c-68.4,106.4-136.8,212.8-205.2,319.2c-9.1,14.2-19.3,27.4-33.1,37.6c-49.9,36.8-120.2,26.6-157.2-23.1c-3.9-5.2-7.3-10.8-10.9-16.3 c-34.7-54.3-69.4-108.5-104.1-162.8c-2.4-3.8-5.1-7.4-8-11.5c-5,3.2-6.8,7.5-9.3,11.3c-32.9,51-65.7,102.1-98.5,153.1 c-4.8,7.5-9.3,15.1-14.5,22.3c-28,38.4-66.2,54.7-112.5,46.5c-46.4-8.2-76.6-37-89.2-82.7c-8.7-31.4-3.1-61.1,14.1-88.6 c10.9-17.4,22.1-34.6,33.2-51.9c58.6-91.1,117.1-182.2,175.7-273.3c7.6-11.8,15.6-23.2,26.3-32.5c48.4-42.1,122.2-35.6,162.2,14.6 c4.4,5.5,8.2,11.4,12,17.2c35,54.6,69.9,109.3,104.9,163.9C597.6,455.6,599.6,460.5,604.7,463.7z"></path> </svg> 