<?xml version="1.0" encoding="UTF-8"?> <!-- Generator: Adobe Illustrator 22.0.0, SVG Export Plug-In . SVG Version: 6.00 Build 0) --> <svg xmlns="http://www.w3.org/2000/svg" xmlns:xlink="http://www.w3.org/1999/xlink" version="1.1" id="Layer_1" x="0px" y="0px" viewBox="0 0 1000 1000" style="enable-background:new 0 0 1000 1000;" xml:space="preserve"> <path style="fill:#FFFFFF;" d="M360,437.9c-7.7,20-15.3,40-23,60c-7.7,20-15.3,40.1-23,60.1c-0.5,1.4-1.7,2.5-2.6,3.7 c-0.9-1.3-2.1-2.4-2.7-3.8c-14.5-36.8-28.9-73.6-43.4-110.5c-0.6-1.4-1.2-2.9-2.6-4.1c-0.1,1.6-0.2,3.2-0.2,4.8 c0,27.5-0.1,55,0,82.5c0,4.5,0.6,9,1,13.4c0.8,7.8,5.1,12.3,12.9,13.6c1.4,0.2,2.7,1.7,4,2.6c-0.3,0.5-0.6,0.9-0.8,1.4 c-14.6,0-29.2,0-45.7,0c1.7-1.8,2.5-2.9,3.5-3.7c0.6-0.5,1.6-0.4,2.4-0.6c9.3-2.3,14.1-7.6,14.1-17.2c0.2-35.8,0.4-71.6-0.1-107.4 c-0.1-7.3-3.8-11.3-10.4-12.7c-1.8-0.4-3.7-0.5-5.4-1.1c-0.9-0.4-1.5-1.6-2.3-2.4c0.9-0.5,1.8-1.4,2.7-1.4 c11.7-0.1,23.3-0.1,35.2-0.1c14.5,37.1,28.9,74,43.8,112.2c3.2-8.4,5.9-15.5,8.5-22.6c10.6-28.5,21.3-57,31.8-85.5 c1.2-3.1,2.5-4.3,6-4.2c10.8,0.3,21.6,0.1,34.3,0.1c-1.7,2-2.3,3.4-3.4,3.9c-1.8,0.8-3.9,0.9-5.8,1.4c-4.5,1.2-7.2,4.1-7.8,8.7 c-0.5,3.1-0.9,6.3-0.9,9.4c-0.1,33.3,0,66.6,0,100c0,1.5-0.1,3,0.1,4.5c1,10.6,3,12.7,13.3,14.9c1.4,0.3,2.5,1.5,3.8,2.2 c-0.2,0.5-0.5,1-0.7,1.5c-17.3,0-34.5,0-53.5,0c1.5-1.7,2.2-3.4,3.2-3.5c10.7-1.7,14.6-2.1,14.7-19.2c0.2-32.5,0.1-65,0.1-97.5 c0-1.1-0.1-2.2-0.2-3.3C360.6,438,360.3,438,360,437.9z"></path> <path style="fill:#FFFFFF;" d="M956.7,462.4c-1.2-1.3-2.8-2.3-3.4-3.7c-3.2-6.7-5.2-14.1-9.2-20.3c-14.4-22.4-44.3-23.4-61-2.5 c-9.3,11.6-13.2,25.2-14.6,39.7c-1.7,17.9-1.2,35.6,6.5,52.4c8.3,18.3,23.4,28.5,41.8,27.8c13.3-0.5,24.3-6.3,33.7-15.4 c2.1-2.1,4.1-4.3,6.7-7.1c1.4,1.5,2.5,2.6,3.5,3.6c-25.2,38.9-78.6,37.5-101.7,1.1c-11.2-17.6-14.2-37-12.6-57.4 c1.3-16.1,6.2-30.9,16.1-43.9c15.4-20.3,39.7-28.7,64.4-22.1c4.6,1.2,9.2,2.7,13.8,4.3c4.8,1.6,8.4,0.3,11.1-3.9 c0.6-1,1.8-1.6,2.8-2.3c0.7,1,1.9,2,2,3C956.7,430.9,956.7,446.2,956.7,462.4z"></path> <path style="fill:#FFFFFF;" d="M592.8,415.3c36.1,0,71.2,0,107.2,0c0,12.2,0,24.6,0,37.3c-2.2,0.8-3.6,0.1-4-3.1 c-0.4-2.9-1.4-5.8-2.1-8.7c-2.6-9.7-8.2-15.9-18.8-16.1c-6.1-0.1-12.2,0-18.8,0c-0.1,1.7-0.2,3.5-0.2,5.3c0,36.8,0,73.7,0,110.5 c0,1.7,0,3.3,0.2,5c1,8.1,2.9,10.1,11.1,11.8c1.8,0.4,3.7,0.5,5.4,1c0.6,0.2,1.2,1.4,1.3,2.2c0,0.4-0.9,1.2-1.5,1.4 c-0.7,0.3-1.6,0.1-2.5,0.1c-15.3,0-30.7,0-46-0.1c-1.4,0-2.8-1-4.1-1.5c1.3-0.9,2.5-2.2,3.9-2.5c10.9-2.4,13.3-4.7,13.4-15.2 c0.2-38.7,0.1-77.3,0.1-116c0-0.6-0.2-1.3-0.3-1.9c-23.7-5.7-35.5,2.4-40.3,27.7c-1.3,0-2.7,0-3.8,0 C592.8,440.1,592.8,428,592.8,415.3z"></path> <path style="fill:#FFFFFF;" d="M24.2,578.2c312.4,0,624.2,0,935.9,0c0.3,0.3,0.7,0.7,1,1c-0.9,0.9-1.7,2-2.8,2.5 c-1,0.4-2.3,0.1-3.5,0.1c-308.3,0-616.6,0-924.9-0.1C28,581.7,23.9,583.8,24.2,578.2z"></path> <path style="fill:#FFFFFF;" d="M800.2,561.7c-18.1,0-36.3,0-56.3,0c1.7-1.9,2.5-3.5,3.5-3.6c15.3-2.1,16.1-4.7,16.3-20.2 c0.5-32.8,0.2-65.7,0.1-98.5c0-1.7-0.2-3.3-0.4-5c-1.4-11.5-2.7-12.9-14.2-15.1c-2.1-0.4-5.3,0.3-3.9-4c18.2,0,36.5,0,56.5,0 c-1.6,1.8-2.3,3.3-3.4,3.6c-14.5,4.1-14.8,4.1-15.9,19.2c-0.6,8.6-0.3,17.3-0.3,26c0.1,25.8,0.1,51.7,0.5,77.5 c0.2,12.4,2.2,14.2,14.7,16.4c1.3,0.2,2.5,1.4,3.8,2.2C801,560.6,800.6,561.2,800.2,561.7z"></path> <path style="fill:#FFFFFF;" d="M130.9,603.1c2.3,0,4,0,6.2,0c0,14.6,0,29,0,43.5c-4,1.5-6.1,0.6-7.2-3.7c-1.7-6.7-4-13.3-6.4-21.2 c0,7.7-0.2,14.2,0.1,20.7c0.2,4.9-2,5.7-6.3,4.3c0-14.5,0-28.9,0-43.3c4.5-1.7,6.5-0.1,7.5,4.2c1.5,6.3,3.6,12.4,6.2,18.6 C130.9,618.6,130.9,611,130.9,603.1z"></path> <path style="fill:#FFFFFF;" d="M328.1,603.1c2.5,0,4.4,0,6.8,0c0,13.2,0,26.1,0,39.4c2.6,0,4.8,0,7.6,0c0-13,0-25.9,0-39.3 c2.4,0,4.2,0,6.6,0c0,12.8,0.2,25.4-0.2,37.9c-0.1,1.9-2.5,4.4-4.4,5.3c-8.7,4.2-16.3-0.8-16.3-10.5 C328.1,625.2,328.1,614.4,328.1,603.1z"></path> <path style="fill:#FFFFFF;" d="M947.3,622.4c16.4,0.9,13.2,1.7,13.7,15c0.2,4.5-0.9,7.8-5.5,9.4c-4.9,1.7-9.8,1.6-13.4-2.2 c-1.7-1.8-1.8-5.2-2.8-8.4c3.1,0,5.1,0,7.3,0c0.2,2,0.4,3.9,0.6,6.3c2,0,4.1,0,6.5,0c0-4.8,0-9.7,0-15.5c-2.5,0-5.1,0.1-7.7,0 c-3.9-0.2-6.2-2-6-6.3c0.1-2.8,0-5.7,0-8.5c0-6.8,4.1-10.5,11.1-10.1c7.2,0.4,10.3,4.2,9.3,11.6c-1.9,0-3.8,0-6.1,0 c-0.2-2.1-0.5-4.1-0.7-6.5c-2.1,0-4,0-6.4,0C947.3,612.1,947.3,617.1,947.3,622.4z"></path> <path style="fill:#FFFFFF;" d="M433.4,636.2c2.9,0,4.6,0,6.6,0c0.3,2.1,0.5,4.1,0.8,6.4c2.1,0,4.2,0,7,0c0-4.4,0.1-8.8-0.1-13.2 c0-0.8-1.5-2-2.5-2.2c-1.6-0.4-3.3-0.1-5-0.1c-4.5,0-6.8-1.9-6.4-6.7c0.2-2.8,0-5.7,0-8.5c0-6.6,3.9-10.2,10.7-9.8 c7.5,0.4,10.4,3.9,9.3,11.6c-1.7,0-3.4,0-5.6,0c-0.3-2-0.5-4-0.8-6.4c-2.2,0-4.3,0-6.7,0c0,5,0,9.9,0,15.3c2.7,0.1,5.3,0.2,7.9,0.4 c3.7,0.3,5.8,2.1,5.8,6c-0.1,3-0.1,6,0,9c0.2,4.2-1,7.4-5.4,9c-5,1.7-11.6,0.9-13.8-2.6C434,642.3,434.1,639.4,433.4,636.2z"></path> <path style="fill:#FFFFFF;" d="M843.1,606.8c0,2.8,0,4.9,0,7c0,8.1,0,8.1,8,9.1c1,0.1,1.8,1.2,2.7,1.9c-1,0.7-1.9,2-3,2.1 c-7.7,0.8-7.7,0.7-7.7,8.3c0,2.3,0,4.6,0,7.5c4.7,0,8.9,0,13.2,0c1.2,3,1,4.6-2.2,4.6c-0.5,0-1,0-1.5,0c-18.9,0.3-15.8-0.6-16-15.4 c-0.1-7.5,0.1-15,0-22.5c-0.1-4.7,2-6.7,6.6-6.7c3.8,0.1,7.7-0.1,11.5,0.1c0.8,0,1.6,1.1,2.4,1.7c-0.8,0.7-1.6,2-2.5,2.1 C850.9,607,847.3,606.8,843.1,606.8z"></path> <path style="fill:#FFFFFF;" d="M32.5,647.6c-2.5,0-4.7,0-7.1,0c0-15.1,0-29.9,0-45.2c2.2,0,4.4,0,7.1,0 C32.5,617.2,32.5,632.2,32.5,647.6z"></path> <path style="fill:#FFFFFF;" d="M752.5,647.5c-2.4,0-4.7,0-7.2,0c0-15.1,0-30,0-45.2c2.3,0,4.6,0,7.2,0 C752.5,617.3,752.5,632.3,752.5,647.5z"></path> <path style="fill:#FFFFFF;" d="M556.5,602.8c0.1,3.5,0.1,3.5-6.5,4.7c0,13,0,26,0,39.4c-2.4,0-4.4,0-6.8,0c0-13.2,0-26.3,0-39.7 c-2.4-0.2-4.3-0.4-7.9-0.7c1.5-1.7,2.3-3.5,3.3-3.5C544.6,602.7,550.5,602.8,556.5,602.8z"></path> <path style="fill:#FFFFFF;" d="M195.4,556.2c-6-1.4-10.1-4.8-12.4-10.5c-1-2.5-2.3-4.8-3.2-7.3c-20.6-54.9-41.2-109.9-61.9-164.8 c-0.7-2-2.9-3.4-4.4-5.1c-1.3,1.6-3.2,3.1-3.9,4.9c-15.6,43-31,86-46.7,129c-4.9,13.4-10.3,26.7-15.6,40c-2.8,7-7.2,12.2-14.9,14.3 c-1.3,0.4-2,2.7-3.6,5c17.2,0,32.9,0,48.7,0c1.8-5.9-2.8-5-5.4-5.5c-8.2-1.8-11-5.3-10.4-13.6c0.1-1.6,0.3-3.3,0.8-4.9 c3.7-11.7,7.5-23.4,11.5-35.1c0.4-1.2,2.5-2.6,3.9-2.6c19.3-0.2,38.7-0.2,58,0c1.3,0,3.5,1,3.9,2c4.5,12.7,9.5,25.2,13,38.2 c3.8,14.4-1.6,15.3-11,16.3c-0.5,0.1-1,0.3-1.5,0.3c-3.9,0.1-3.5,2.4-2.9,5c20.6,0,40.9,0,61.2,0C198.9,557.2,198.9,557,195.4,556.2 z M79.3,487.8c9.3-26.3,18.3-51.9,27.3-77.5c0.4,0,0.8-0.1,1.2-0.1c9.2,25.7,18.4,51.4,27.7,77.6C116.6,487.8,98.3,487.8,79.3,487.8 z"></path> <path style="fill:#FFFFFF;" d="M568.2,557.6c-4.7-1.4-7.8-4.2-9.6-8.7c-1.2-2.9-2.6-5.8-3.7-8.7c-15.4-41.1-30.7-82.2-46.1-123.3 c-0.6-1.6-2.2-2.9-3.4-4.3c-1.1,1.4-2.7,2.7-3.3,4.4c-7.8,21.2-15.3,42.5-23.1,63.7c-7.8,21.2-15.7,42.4-23.6,63.5 c-2.3,6.2-5.5,11.8-12.7,13.7c-0.9,0.2-1.3,2.1-2.1,3.7c13.1,0,25.1,0,37,0c0.3-0.4,0.5-0.9,0.8-1.3c-1.2-0.8-2.3-2.1-3.6-2.4 c-8.8-2.1-11.3-5.5-8.9-14.3c2.5-9.1,5.6-18.1,8.8-27c0.4-1.2,2.5-2.6,3.9-2.6c14.5-0.2,29-0.2,43.5,0c1.3,0,3.4,1.4,3.9,2.7 c3.2,8.5,6.6,17.1,9.1,25.8c3.3,11.5,2.1,13-9.3,15.5c-1.1,0.2-1.9,1.7-2.9,2.5c0.3,0.4,0.6,0.9,0.9,1.3c1.6,0,3.3,0,4.9,0 c14,0,28,0,41.9,0c0.3-0.4,0.6-0.9,0.9-1.3C570.3,559.5,569.4,558,568.2,557.6z M478.8,504.7c7.2-20.3,14.1-40,21.6-61.2 c7.6,21.2,14.6,41,21.9,61.2C507.7,504.7,493.6,504.7,478.8,504.7z"></path> <path style="fill:#FFFFFF;" d="M242.7,608.1c-0.1-1.7-2.3-4.7-3.8-4.8c-5.5-0.6-11.1-0.2-16.6-0.2c0,14.9,0,29.2,0,44.1 c5.4,0,10.2,0.2,15-0.1c3.3-0.1,5.6-1.7,5.6-5.6C242.8,630.4,243,619.2,242.7,608.1z M235.6,642.7c-2.2,0-4.1,0-6.4,0 c0-11.9,0-23.6,0-35.6c2.1,0,4,0,6.4,0C235.6,618.8,235.6,630.5,235.6,642.7z"></path> <path style="fill:#FFFFFF;" d="M658.3,624.9c-0.1-5.3,1.1-10.7,1.6-16c0.3-3.3-1.4-5.7-4.7-5.9c-5.2-0.3-10.5-0.1-15.9-0.1 c0,14.9,0,29.2,0,44c2.4,0,4.3,0,6.8,0c0-6.7,0-13.1,0-19.5c2.6,0,4.7,0,7,0c0,4.9,0,9.4,0,13.9c0,6.1,0.5,6.4,6.9,5.4 c0-0.4,0.1-0.9,0.1-1.3C659.4,638.6,658.4,631.8,658.3,624.9z M652.7,622.4c-2.1,0-4.1,0-6.5,0c0-5,0-9.8,0-15.3c2.3,0,4.2,0,6.5,0 C652.7,612.2,652.7,617.1,652.7,622.4z"></path> </svg> 