<?xml version="1.0" encoding="UTF-8"?> <!-- Generator: Adobe Illustrator 22.0.0, SVG Export Plug-In . SVG Version: 6.00 Build 0) --> <svg xmlns="http://www.w3.org/2000/svg" xmlns:xlink="http://www.w3.org/1999/xlink" version="1.1" id="Layer_1" x="0px" y="0px" viewBox="0 0 1000 1000" style="enable-background:new 0 0 1000 1000;" xml:space="preserve"> <path style="fill:#FFFFFF;" d="M489.3,84.1c2,61.2,3,122.5,6.3,183.7c3.8,70.6,11.3,140.9,23.1,210.7c6.6,39.3,15,78.3,22.7,117.5 c0.5,2.4,1.2,4.8,1.9,7.9c7.6,0,15.2,0,23.3,0c8.6,68,21.4,134.5,39.2,200.9c-71.9,0-143.1,0-215.2,0c17.2-59,26.7-119.1,30.9-180 c4.2-61.1,1.6-121.9-7-182.6c0.8-0.2,1.7-0.3,2.5-0.5c11.9,53.7,23.7,107.3,35.7,161.7c6.3,0,13.6,0,21.9,0 C442.6,436.6,398.7,274.1,318.4,121c25.2-9,49.8-17.7,75.7-26.9c34.6,171,68.8,340.1,103.1,509.5c7.5,0,14.7,0,22.9,0 c-34.5-170.7-69-341-103.7-512.7c8.7-1.3,17.1-2.6,25.6-3.7c8.8-1.1,17.7-2,26.5-3.1C475.4,84.1,482.4,84.1,489.3,84.1z"></path> <path style="fill:#FFFFFF;" d="M526.6,84.1c16,2,31.9,3.9,47.9,5.9c3.4,0.4,6.7,1.2,10.5,2c-32.9,166.9-38.2,334.2-20.9,502.7 c-1.3-5.5-2.7-10.9-3.9-16.4c-1.3-5.6-2.6-11.1-3.7-16.7c-17.7-84.1-29-169-36.1-254.6c-6.2-74.2-8.6-148.6-8.6-223 C516.6,84.1,521.6,84.1,526.6,84.1z"></path> <path style="fill:#FFFFFF;" d="M336.1,796.8c-7.9,22-15.6,43.7-23.7,66.3c-41.9-23.1-77.6-52.9-107.7-89.2 c-48.5-58.3-77.6-125.3-86.1-200.7c-19.3-170.9,74.8-305,174.8-365.6c3.9,13.4,7.8,26.6,11.7,39.8c2.4,8.1,4.4,16.3,7.3,24.2 c1.6,4.5,0.2,6.6-3.2,9.2c-50.4,38.6-86.4,87.8-107,147.8c-46.5,135.8,6.1,286.2,126.9,363.6C331.2,793.5,333.3,794.9,336.1,796.8z"></path> <path style="fill:#FFFFFF;" d="M703.3,206.2c110.5,76.4,171.9,179.2,176.5,313.2C885,671,799,799.8,683.9,862.9 c-7.9-21.9-15.7-43.7-23.7-66.1c2.3-1.5,4.6-2.9,6.8-4.4c78.8-52.5,127.9-125.1,140.3-219c15.7-118.7-25.8-216.1-118.7-291.5 c-4.5-3.7-6-6.5-4.2-12.2C690.9,249.2,696.7,228.5,703.3,206.2z"></path> <path style="fill:#FFFFFF;" d="M642,911.7c-95.9,0-191.6,0-287.9,0c0.5-2,0.8-3.8,1.4-5.6c7.3-20,14.9-39.9,21.9-60 c1.6-4.7,4-5.8,8.6-5.8c74.9,0.1,149.9,0,224.8,0.2c2.5,0,6.5,1.9,7.3,3.8c8.2,21.5,16,43.2,23.8,64.9 C642.1,909.9,642,910.7,642,911.7z"></path> <path style="fill:#FFFFFF;" d="M575.6,488c-6.1-131.5,1.7-262,29.3-393.1c24.8,8.8,48.7,17.4,73.3,26.1 c-26.6,59.9-48.1,119.5-65.4,180.5C595.5,362.7,582.8,424.8,575.6,488z"></path> </svg> 