<?xml version="1.0" encoding="UTF-8"?> <!-- Generator: Adobe Illustrator 24.3.0, SVG Export Plug-In . SVG Version: 6.00 Build 0) --> <svg xmlns="http://www.w3.org/2000/svg" xmlns:xlink="http://www.w3.org/1999/xlink" version="1.1" id="Layer_1" x="0px" y="0px" viewBox="0 0 100 100" style="enable-background:new 0 0 100 100;" xml:space="preserve"> <g> <path style="fill:#FFFFFF;" d="M84.6,63.6H64.1v-9.3c0-3.1-2.5-5.6-5.6-5.6H39.9c-3.1,0-5.6,2.5-5.6,5.6v1.9H13.8 c-3.1,0-5.6,2.5-5.6,5.6v33.6c0,1,0.8,1.9,1.9,1.9h78.3c1,0,1.9-0.8,1.9-1.9V69.2C90.2,66.1,87.7,63.6,84.6,63.6L84.6,63.6z M60.4,93.4H38v-4.7c0-1-0.8-1.9-1.9-1.9c-1,0-1.9,0.8-1.9,1.9v4.7H11.9V61.8c0-1,0.8-1.9,1.9-1.9h20.5V72c0,1,0.8,1.9,1.9,1.9 c1,0,1.9-0.8,1.9-1.9V54.3c0-1,0.8-1.9,1.9-1.9h18.6c1,0,1.9,0.8,1.9,1.9v39.1H60.4z M86.4,93.4H64.1v-26h20.5c1,0,1.9,0.8,1.9,1.9 L86.4,93.4L86.4,93.4z"></path> <path style="fill:#FFFFFF;" d="M79.9,76.7c0-3.1-2.5-5.6-5.6-5.6c-1.6,0-3.2,0.7-4.2,2c-0.7,0.8-0.6,2,0.2,2.6 c0.8,0.7,2,0.6,2.6-0.2c0.4-0.4,0.9-0.6,1.4-0.6c1,0,1.8,0.8,1.8,1.9c0,0.5-0.2,1-0.6,1.3c-0.4,0.4-0.6,0.9-0.5,1.5 s0.3,1.1,0.8,1.4c0.8,0.5,1.2,1.4,1.2,2.3c0,1.5-1.2,2.8-2.8,2.8c-0.6,0-1.2-0.2-1.7-0.6c-0.8-0.6-2-0.5-2.6,0.3s-0.5,2,0.3,2.6 c1.1,0.9,2.5,1.3,4,1.3c3.6,0,6.5-2.9,6.5-6.5c0-1.5-0.5-3-1.5-4.1C79.7,78.3,79.9,77.5,79.9,76.7L79.9,76.7z"></path> <path style="fill:#FFFFFF;" d="M26.8,78.5h-4.5c0.4-0.4,0.9-0.8,1.5-1.2c2.1-1.6,4.8-3.7,4.8-7.5c0-2.8-1.8-5.3-4.4-5.9 c-2.5-0.6-5,0.5-6.2,2.9c-0.5,0.9-0.1,2,0.8,2.5s2,0.1,2.5-0.8c0.6-1.2,1.5-1.2,2-1c0.8,0.2,1.6,1,1.6,2.3c0,1.9-1.3,3-3.4,4.6 c-1.9,1.5-4.1,3.1-4.1,6.1c0,1,0.8,1.9,1.9,1.9h7.5c1,0,1.9-0.8,1.9-1.9C28.7,79.4,27.8,78.5,26.8,78.5L26.8,78.5z"></path> <path style="fill:#FFFFFF;" d="M51.2,71.1H51V58c0-0.7-0.4-1.3-0.9-1.6c-0.6-0.3-1.3-0.3-1.9,0l-2.1,1.2c-0.9,0.5-1.2,1.7-0.7,2.5 c0.4,0.7,1.1,1,1.8,0.9v10H47c-1,0-1.9,0.8-1.9,1.9c0,1,0.8,1.9,1.9,1.9h4.1c1,0,1.9-0.8,1.9-1.9C53.1,71.9,52.3,71.1,51.2,71.1 L51.2,71.1z"></path> <path style="fill:#FFFFFF;" d="M36.6,29.2l-0.9,7.1c-0.2,1-0.1,2.1,0.4,3c0.8,1.7,2.6,2.7,4.4,2.7c0.7,0,1.4-0.2,2.1-0.5l6.6-3.2 l6.7,3.2c0.8,0.4,1.8,0.5,2.7,0.4c1.3-0.2,2.4-0.8,3.2-1.9c0.8-1,1.1-2.3,0.9-3.6l-1-7.2l5-5.2c0.7-0.7,1.2-1.6,1.4-2.7 c0.2-1.3-0.1-2.6-0.8-3.6c-0.7-1.1-1.9-1.8-3.1-2L57,14.5L53.4,8l0,0c-0.5-0.8-1.1-1.5-2-1.9c-1.1-0.6-2.4-0.7-3.7-0.4 c-1.2,0.4-2.2,1.2-2.9,2.3l-3.4,6.4l-7.2,1.3c-1,0.2-1.9,0.6-2.6,1.3c-0.9,0.9-1.5,2.1-1.5,3.4s0.5,2.5,1.3,3.4L36.6,29.2z M34.3,19.8c0.2-0.2,0.4-0.3,0.6-0.3c0,0,0,0,0.1,0l8.1-1.5c0.6-0.1,1-0.5,1.3-1l3.9-7.2c0.1-0.3,0.4-0.4,0.6-0.5 c0.1,0,0.2,0,0.3,0c0.2,0,0.4,0,0.5,0.1c0.2,0.1,0.3,0.3,0.4,0.4l4,7.3c0.3,0.5,0.8,0.8,1.3,0.9l8.1,1.4c0.3,0.1,0.5,0.2,0.7,0.5 c0.2,0.2,0.2,0.5,0.2,0.8c-0.1,0.3-0.2,0.5-0.3,0.6L64,21.4l-5.6,5.9c-0.4,0.4-0.6,1-0.5,1.5L59,37c0,0.3,0,0.6-0.2,0.8 s-0.4,0.4-0.7,0.4c-0.2,0-0.4,0-0.6-0.1L50,34.5c-0.5-0.2-1.1-0.2-1.6,0L41,38.1c-0.5,0.3-1.2,0-1.5-0.5c-0.1-0.3-0.1-0.5-0.1-0.7 v-0.1l1.1-8.1c0.1-0.6-0.1-1.1-0.5-1.5l-5.7-5.9c-0.2-0.2-0.3-0.5-0.3-0.8C33.9,20.2,34.1,20,34.3,19.8L34.3,19.8z"></path> <path style="fill:#FFFFFF;" d="M20,5.2l7.4,4.2c0.3,0.2,0.6,0.2,0.9,0.2c0.6,0,1.3-0.3,1.6-0.9c0.5-0.9,0.2-2-0.7-2.5L21.9,2 c-0.9-0.5-2-0.2-2.5,0.7C18.8,3.6,19.1,4.7,20,5.2L20,5.2z"></path> <path style="fill:#FFFFFF;" d="M14.6,27.6c0.1,0,0.2,0,0.3,0l8.4-1.2c1-0.1,1.7-1.1,1.6-2.1s-1.1-1.7-2.1-1.6l-8.4,1.2 c-1,0.1-1.7,1.1-1.6,2.1C12.9,26.9,13.7,27.6,14.6,27.6L14.6,27.6z"></path> <path style="fill:#FFFFFF;" d="M73.5,24.2c-0.1,1,0.6,2,1.6,2.1l8.4,1.2c0.1,0,0.2,0,0.3,0c0.9,0,1.7-0.7,1.8-1.6 c0.1-1-0.6-2-1.6-2.1l-8.4-1.2C74.6,22.5,73.6,23.2,73.5,24.2L73.5,24.2z"></path> <path style="fill:#FFFFFF;" d="M68.3,38.9c-0.7,0.7-0.7,1.9,0,2.6l6,6c0.4,0.4,0.8,0.5,1.3,0.5s1-0.2,1.3-0.5 c0.7-0.7,0.7-1.9,0-2.6l-6-6C70.2,38.2,69,38.2,68.3,38.9L68.3,38.9z"></path> <path style="fill:#FFFFFF;" d="M36.1,78.5c-1,0-1.9,0.8-1.9,1.9c0,1,0.8,1.9,1.9,1.9c1,0,1.9-0.8,1.9-1.9l0,0 C38,79.4,37.2,78.5,36.1,78.5L36.1,78.5z"></path> </g> </svg> 