<?xml version="1.0" encoding="UTF-8"?> <!-- Generator: Adobe Illustrator 24.2.3, SVG Export Plug-In . SVG Version: 6.00 Build 0) --> <svg xmlns="http://www.w3.org/2000/svg" xmlns:xlink="http://www.w3.org/1999/xlink" version="1.1" id="Layer_1" x="0px" y="0px" viewBox="0 0 126 126" style="enable-background:new 0 0 126 126;" xml:space="preserve"> <style type="text/css"> .st0{fill:#FFFFFF;} </style> <path class="st0" d="M9,67c1.2,0,2.4,0,3.6,0c0.2,0,0.5,0,0.7,0.1c0.3,0.2,0.6,0.6,0.5,0.9c-0.4,2-0.9,4-1.3,6 c-0.2,0.7-0.8,1.2-1.5,1.1c-1.3,0-2.5,0-3.8,0c-0.5,0-1-0.3-0.9-0.8v-0.1c0-0.3,0.1-0.7,0.2-1c0.4-1.7,0.7-3.3,1.1-5 C7.6,67.6,8.3,67,9,67 M109.9,50.7c0.5-0.1,1-0.1,1.5-0.1c2.6,0,5.1,0,7.7,0c0.2,0,0.5,0.2,0.6,0.4c0,0.1,0,0.3,0,0.5 c-1.1,4.9-2.2,9.8-3.3,14.7c-0.1,0.4-0.5,0.8-0.9,0.7c-0.5,0-1,0-1.5,0c-0.3,0-0.6-0.4-0.5-0.7c0.4-1.6,0.7-3.1,1.1-4.7 c0.1-0.3,0.1-0.6-0.1-0.8c-0.1-0.2-0.4-0.2-0.6-0.2c-1.1,0-2.2,0-3.2,0c-0.4,0-0.7-0.5-0.5-0.9c0.4-0.9,1.1-1.7,2-2.2 c0.8-0.4,1.8-0.5,2.7-0.5c0.4,0,0.7-0.3,0.8-0.6c0.2-1,0.5-1.9,0.6-2.9c0.1-0.4-0.3-0.7-0.6-0.7c-1.4,0-2.8,0-4.1,0 c-0.4,0-0.7,0.2-0.9,0.5c-0.1,0.1-0.1,0.3-0.2,0.5c-0.9,4.1-1.8,8.1-2.8,12.2c0,0.3-0.2,0.6-0.5,0.8c-0.2,0.1-0.4,0.2-0.7,0.1 c-0.8,0-1.7,0-2.5,0c-0.3,0-0.6-0.3-0.6-0.6c0-0.1,0-0.2,0.1-0.3c0.8-3.4,1.6-6.8,2.3-10.3c0.2-1,0.4-2,0.9-2.9 C107.4,51.7,108.6,50.9,109.9,50.7 M96,52.8c-0.3,0.1-0.6,0.4-0.7,0.7c-0.7,3.1-1.4,6.3-2.1,9.4c-0.1,0.5-0.3,0.9-0.3,1.4 c0,0.3,0.3,0.5,0.6,0.5c1.3,0,2.7,0,4,0c0.2,0,0.3,0,0.5,0c0.3-0.1,0.6-0.4,0.7-0.7c0.2-0.9,0.4-1.8,0.6-2.8 c0.1-0.3-0.1-0.7-0.5-0.7c-1.1,0-2.3,0-3.4,0c-0.3,0-0.7-0.3-0.6-0.6c0.1-0.5,0.4-1,0.8-1.4c0.8-1,2-1.4,3.3-1.5 c0.4,0,0.9,0,1.3-0.2c0.2-0.1,0.3-0.3,0.4-0.5c0.2-0.8,0.4-1.7,0.6-2.5c0-0.3,0.1-0.6,0-0.8c-0.2-0.3-0.5-0.3-0.8-0.3 C98.7,52.8,97.3,52.8,96,52.8 M94.6,50.8c0.7-0.1,1.4-0.1,2.1-0.1c2.4,0,4.8,0,7.2,0c0.3,0,0.6,0.3,0.6,0.6c0,0.1-0.1,0.3-0.1,0.4 c-0.3,1.2-0.5,2.4-0.8,3.5c-0.1,0.6-0.3,1.2-0.6,1.8c-0.4,0.8-1.1,1.4-1.9,1.8c0.6,0.5,1,1.2,1.1,2c0.1,0.5-0.1,1-0.1,1.5 c-0.2,1-0.4,1.9-0.9,2.8c-0.7,1.2-2,1.9-3.4,1.9c-3,0-5.9,0-8.9,0c-0.3,0-0.5-0.2-0.6-0.5c0-0.2,0.1-0.4,0.1-0.6 c0.8-3.5,1.6-6.9,2.4-10.4c0.2-0.6,0.2-1.3,0.5-1.9c0.3-0.8,0.8-1.5,1.5-2C93.1,51.2,93.9,50.9,94.6,50.8 M79.3,50.7 c0.5-0.1,1-0.1,1.5-0.1c2.5,0,5.1,0,7.6,0c0.3,0,0.5,0.1,0.6,0.4c0.1,0.1,0,0.3,0,0.4C88,56.2,87,61,85.9,65.7 c-0.1,0.4-0.1,0.8-0.5,1.1c-0.2,0.2-0.6,0.2-0.9,0.2c-0.4,0-0.9,0-1.3,0c-0.3-0.1-0.5-0.4-0.4-0.7c0.9-4.1,1.9-8.1,2.8-12.2 c0.1-0.3,0.1-0.5,0.1-0.8c0-0.1-0.1-0.3-0.2-0.4c-0.4-0.3-1.1,0-1.2,0.5c-0.5,2.2-1,4.3-1.5,6.5c-0.1,0.5-0.6,0.7-1.1,0.7 c-0.4,0-0.9,0-1.3,0c-0.3,0-0.6-0.4-0.5-0.7c0.5-2.1,0.9-4.2,1.4-6.4c0.1-0.2,0-0.5-0.2-0.6c-0.4-0.2-0.9-0.1-1.1,0.3 c-0.1,0.2-0.2,0.5-0.2,0.7c-0.9,4.1-1.8,8.2-2.8,12.2c-0.1,0.4-0.5,0.8-0.9,0.8c-0.9,0-1.8,0-2.7,0c-0.3,0-0.6-0.4-0.5-0.7 c0.9-4.1,1.8-8.1,2.8-12.2c0.3-1,0.8-2,1.7-2.6C77.9,51.1,78.6,50.8,79.3,50.7 M64,50.7c0.6-0.1,1.3,0,1.9,0c2.4,0,4.7,0,7.1,0 c0.2,0,0.5,0.2,0.6,0.4c0.1,0.3,0,0.6-0.1,0.9c-1,4.7-2.1,9.4-3.2,14.1c-0.1,0.4-0.4,0.8-0.8,0.9c-0.5,0-1.1,0-1.6,0 c-0.4,0-0.6-0.4-0.5-0.7c0.3-1.4,0.6-2.7,0.9-4.1c0.1-0.4,0.2-0.7,0.2-1.1c0-0.3-0.3-0.5-0.6-0.5c-1.1,0-2.2,0-3.3,0 c-0.4,0-0.6-0.5-0.5-0.8c0.5-1.2,1.5-2.1,2.7-2.5C67.3,57,68,57,68.7,57c0.4,0,0.7-0.3,0.8-0.6c0.2-1,0.5-1.9,0.6-2.9 c0.1-0.3-0.2-0.7-0.6-0.7c-1.4,0-2.8,0-4.2,0c-0.4,0-0.9,0.3-1,0.7c-0.9,4.2-1.9,8.4-2.9,12.6c-0.1,0.4-0.5,0.8-0.9,0.8 c-0.9,0-1.8,0-2.7,0c-0.4,0-0.7-0.4-0.6-0.7c0.9-3.8,1.7-7.6,2.6-11.4c0.1-0.5,0.2-1.1,0.5-1.6c0.3-0.7,0.8-1.3,1.5-1.8 C62.5,51,63.2,50.8,64,50.7 M51.3,50.7c0.2,0,0.3,0,0.5,0c0.8,0,1.6,0,2.4,0c0.3,0,0.7,0.3,0.6,0.7c-0.8,3.6-1.6,7.3-2.5,10.9 c-0.1,0.3-0.1,0.5,0,0.8c0.1,0.2,0.2,0.3,0.5,0.3c1.1,0,2.2,0,3.3,0c0.4,0,0.8,0.4,0.6,0.8c-0.3,0.8-0.8,1.5-1.5,2 c-0.7,0.5-1.7,0.8-2.6,0.8c-1.6,0-3.2,0-4.8,0c-0.4,0-0.7-0.3-0.6-0.7c1.1-4.9,2.3-9.9,3.4-14.8C50.7,51.1,51,50.8,51.3,50.7 M38.3,50.7c0.4-0.1,0.8-0.1,1.3-0.1c2.6,0,5.3,0,7.9,0c0.3,0,0.5,0.2,0.6,0.5c0,0.2,0,0.4-0.1,0.6c-1,4.7-2.1,9.3-3.2,13.9 c-0.1,0.3-0.1,0.7-0.3,0.9c-0.2,0.2-0.5,0.3-0.7,0.3c-0.5,0-1,0-1.5,0c-0.3,0-0.6-0.4-0.5-0.7c0.4-1.6,0.7-3.2,1.1-4.8 c0.1-0.4-0.1-0.8-0.5-0.9c-1.1,0-2.3,0-3.4,0c-0.4,0-0.6-0.5-0.5-0.8c0.3-0.8,0.8-1.4,1.5-1.9c0.6-0.4,1.3-0.7,2-0.8 c0.5-0.1,0.9-0.1,1.4-0.1c0.4,0,0.7-0.3,0.8-0.6c0.2-0.9,0.4-1.8,0.6-2.7c0-0.2,0.1-0.4,0-0.6c-0.1-0.2-0.4-0.3-0.7-0.3 c-1.4,0-2.8,0-4.1,0c-0.4,0-0.8,0.4-0.9,0.8C37.9,57.8,37,62,36,66.1c-0.1,0.4-0.5,0.8-0.9,0.8c-0.9,0-1.8,0-2.7,0 c-0.3,0-0.6-0.3-0.5-0.7c0.9-3.8,1.7-7.6,2.6-11.5c0.1-0.5,0.2-1.1,0.5-1.6c0.3-0.6,0.6-1.1,1.1-1.5C36.7,51.2,37.5,50.8,38.3,50.7 M27.4,50.7c0.1,0,0.3,0,0.4,0c1.3,0,2.6,0,3.9,0c0.5,0,0.9,0.4,0.9,0.9c0,0.1-0.1,0.3-0.1,0.4c-0.4,1.7-0.8,3.4-1.1,5 c-0.2,1-0.8,1.9-1.5,2.5c-1.1,0.9-2.4,1.6-3.8,2c-1.1,0.3-2.3,0.6-3.4,0.8c-0.1,0-0.2,0.1-0.3,0.1c-0.1,0.1,0,0.2,0.1,0.2 c0.3,0.1,0.6,0.1,1,0.1c1,0.2,2,0.5,2.9,1c0.5,0.3,1,0.6,1.4,1.1c0.7,0.8,1.1,2,1,3.1c-0.3,2-0.8,4-1.3,6c-0.1,0.5-0.5,0.9-1,1.1 c-0.3,0.1-0.6,0.1-0.9,0.1c-1.2,0-2.4,0-3.5,0c-0.5,0-1-0.5-0.9-1c0.3-1.3,0.6-2.6,0.9-3.9c0.1-0.7,0.3-1.5,0.2-2.2 c-0.1-0.7-0.3-1.4-0.8-1.8c-0.6-0.5-1.3-0.9-2.1-1.2c-0.7-0.2-1.5-0.3-2.2-0.6c-0.3-0.1-0.6-0.3-0.8-0.6c-0.4-0.6-0.4-1.4-0.1-2 c0.2-0.3,0.5-0.5,0.8-0.7c0.6-0.3,1.3-0.4,1.9-0.5c1.3-0.2,2.6-0.4,3.7-0.9c0.8-0.4,1.5-0.9,2-1.6c0.2-0.2,0.3-0.5,0.4-0.8 c0.4-1.9,0.8-3.8,1.3-5.7C26.4,51.3,26.9,50.8,27.4,50.7 M12.4,50.7c0.2-0.1,0.5,0,0.7,0c1.2,0,2.4,0,3.6,0c0.5,0,0.9,0.5,0.8,1 c-0.4,2-0.9,4-1.3,6c-0.2,0.7-0.8,1.1-1.5,1.1c-1.2,0-2.5,0-3.7,0c-0.3,0-0.7-0.1-0.9-0.4C10,58.2,10,57.9,10,57.6 c0.4-1.9,0.8-3.7,1.3-5.6c0-0.2,0.1-0.4,0.2-0.5C11.6,51.1,12,50.8,12.4,50.7"></path> <path class="st0" d="M92.6,69.5c1.3,0,2.6,0,3.9,0c-0.1,0.3-0.1,0.6-0.2,0.9c-1,0-1.9,0-2.9,0c-0.1,0.5-0.2,1-0.3,1.4 c0.9,0,1.8,0,2.7,0c-0.1,0.3-0.1,0.6-0.2,0.9c-0.9,0-1.8,0-2.8,0c-0.1,0.5-0.2,1-0.3,1.5c1,0,2,0,2.9,0c-0.1,0.3-0.1,0.6-0.2,0.9 c-1.3,0-2.7,0-4,0C91.8,73.3,92.2,71.4,92.6,69.5 M70.3,75.2c0.4-1.9,0.8-3.8,1.1-5.7c0.4,0,0.7,0,1.1,0c0.4,1.5,0.7,2.9,1.1,4.4 c0.9-1.5,1.9-2.9,2.8-4.4c0.4,0,0.7,0,1.1,0c-0.4,1.9-0.8,3.8-1.1,5.7c-0.3,0-0.7,0-1,0c0.3-1.3,0.5-2.7,0.8-4 c-0.8,1.3-1.6,2.7-2.4,4c-0.3,0-0.6,0-0.9,0c-0.3-1.3-0.5-2.7-0.8-4c-0.3,1.3-0.5,2.7-0.8,4C71,75.2,70.7,75.2,70.3,75.2 M49.6,75.2 c1.2-1.9,2.4-3.8,3.6-5.7c0.4,0,0.8,0,1.1,0c0.4,1.9,0.9,3.8,1.3,5.7c-0.4,0-0.7,0-1.1,0c-0.1-0.5-0.2-1-0.3-1.6c-0.6,0-1.3,0-1.9,0 c0.2-0.3,0.4-0.6,0.5-0.9c0.4,0,0.8,0,1.2,0c-0.2-0.7-0.3-1.4-0.5-2.1c-0.3,0.4-0.5,0.9-0.8,1.3c-0.7,1.1-1.3,2.2-2,3.3 C50.4,75.2,50,75.2,49.6,75.2 M111.9,69.8c1.1-0.5,2.4-0.4,3.6-0.1c-0.1,0.3-0.1,0.6-0.2,1c-0.9-0.3-1.8-0.4-2.7-0.2 c-0.4,0.1-0.7,0.4-0.7,0.9c0,0.2,0.1,0.4,0.3,0.5c0.6,0.1,1.2,0,1.8,0.1c0.3,0.1,0.6,0.2,0.8,0.5c0.2,0.2,0.2,0.6,0.2,0.9 c-0.1,0.5-0.2,1-0.6,1.3c-0.4,0.4-0.9,0.6-1.5,0.7c-0.9,0.1-1.7,0-2.6-0.2c0.1-0.3,0.1-0.6,0.2-1c0.6,0.2,1.3,0.3,2,0.3 c0.3,0,0.6,0,0.9-0.2c0.3-0.2,0.5-0.5,0.5-0.9c0-0.2-0.1-0.4-0.3-0.4c-0.6-0.1-1.3,0-1.9-0.1c-0.4-0.1-0.7-0.3-0.8-0.7 C110.7,71.2,111.1,70.2,111.9,69.8 M33.7,69.5c0.8-0.1,1.7-0.1,2.5,0.2c-0.1,0.3-0.1,0.6-0.2,1c-0.7-0.3-1.5-0.4-2.3-0.2 c-0.4,0.1-0.8,0.3-1.1,0.6c-0.5,0.5-0.6,1.3-0.6,2c0,0.4,0.2,0.9,0.6,1.1c0.5,0.3,1.2,0.3,1.7,0.2c0.1-0.6,0.2-1.1,0.3-1.7 c0.4,0,0.7,0,1.1,0c-0.2,0.8-0.3,1.6-0.5,2.4c-1,0.3-2.1,0.4-3.1,0.1c-0.8-0.2-1.2-1-1.2-1.8c0-0.9,0.2-1.9,0.8-2.6 C32.2,70,32.9,69.6,33.7,69.5 M11.5,60.6c0.7-0.1,1.5,0.1,2,0.6c0.4,0.4,0.7,1,0.7,1.6c0,0.7-0.3,1.4-0.8,1.9 c-0.3,0.3-0.8,0.5-1.3,0.6c-0.9,0.1-1.9-0.3-2.3-1.1c-0.3-0.5-0.4-1.1-0.3-1.7C9.7,61.5,10.5,60.8,11.5,60.6"></path> </svg> 