<?xml version="1.0" encoding="UTF-8"?> <svg xmlns="http://www.w3.org/2000/svg" xmlns:xlink="http://www.w3.org/1999/xlink" version="1.1" id="Layer_1" x="0px" y="0px" viewBox="0 0 1000 1000" style="enable-background:new 0 0 1000 1000;" xml:space="preserve"> <path style="fill:#FFFFFF;" d="M547.6,373.6c10.3,0,20.6,0,30.9,0c2.9,0,5.8-0.1,8.6-0.4c4.5-0.4,8.7,1,12.9,2.3 c1.8,0.6,3.6,1.3,5.3,2.2c0.9,0.5,1.6,1.4,2.3,2.2c1.8,2,3.7,4.1,5.5,6.2c2.3,2.8,2.8,6.2,2.9,9.6c0.2,6.1-0.2,12.3,0.2,18.4 c0.3,4.2-0.3,8.3-1.2,12.3c-0.4,1.5-1.6,3-2.7,4.2c-2.1,2.5-2.4,4.8-0.5,7.6c0.7,1,1.5,2,2.3,3c0.4,0.5,0.8,1.1,1,1.8 c0.4,2.4,0.8,4.8,1.1,7.2c0.2,1.6,0,3.1,0,4.7c-0.1,4.8-0.1,9.7-0.4,14.5c-0.2,4.9-0.4,9.9-1.1,14.7c-0.5,3.5-2.8,6.3-5.7,8.5 c-1.7,1.3-3.6,2.6-5.5,3.7c-0.7,0.4-1.7,0.3-2.5,0.6c-2,0.6-4,1.2-5.9,2.1c-2.3,1.1-4.5,1.1-6.8,0.6c-4.1-0.9-8.2-1-12.3,0.2 c-1.1,0.3-2.4-0.1-3.5-0.2s-2.3-0.3-3.4-0.3c-6-0.1-12-0.3-18-0.3c-2.5,0-4.9,0.3-7.4,0.3c-5.4,0-10.8-0.2-16.3-0.3 c-2.2-0.1-4.5-0.4-6.7-0.3c-2.4,0.1-4.8,0.4-7,1.1c-4.1,1.3-7.9-1.7-8-5.7c0-1.5,0.3-3.1,0.3-4.6c0-1.3-0.2-2.6-0.4-3.9 c-0.2-1.4-0.4-2.8-0.6-4.2c-0.2-1.7-0.3-3.4-0.3-5.1c-0.1-4.1,0.5-8.2-0.3-12.3c-0.3-1.7,0.3-3.5,0.3-5.3 c-0.1-10.7-0.2-21.5-0.3-32.2c0-2.4,0.3-4.8,0.3-7.2c0-2-0.5-4-0.6-5.9c-0.1-1.6,0.3-3.3,0.3-5c-0.1-6.5-0.1-12.9-0.4-19.4 c-0.1-4.2-0.2-8.4,0.9-12.5c0.4-1.5,1.5-2,2.6-2.3c1.2-0.3,2.6-0.4,3.9-0.4C523.3,373.6,535.4,373.6,547.6,373.6z M547.9,449 c-2.4-0.4-3.5,0.8-3.6,3.2c-0.2,8.3,0.6,16.6-0.7,24.8c-0.1,0.4,0.4,1.3,0.9,1.4c1,0.3,2,0.4,3,0.4c1.8,0.1,3.6,0,5.4,0 c2.4,0,4.8,0,7.1-0.1c1,0,2-0.3,3.1-0.3c1.5,0,3.1,0.2,4.6,0.3c1.3,0.1,2.6,0.2,3.9,0.3c1.7,0.2,3.2-0.6,4-2.2 c1.5-2.9,1.7-5.9,1-9.1c-0.3-1.1-0.5-2.5-0.2-3.6c1-3.6,0.4-7.1-0.8-10.5c-1.8-4.7-2.8-5.4-6.6-5.2c-1.6,0.1-3.2,0.3-4.8,0.3 C558.8,449,553.3,449,547.9,449z M557.5,397.3c-3.5,0-7.1,0-10.6,0c-1.5,0-2.2,0.7-2.2,2.2c-0.1,1.9-0.3,3.9-0.3,5.8 c0,5.6-0.2,11.2,0.1,16.8c0.1,2.6,0.9,3.4,3.5,3.3c2.7-0.1,5.3,0,8,0c5.8,0,11.6,0,17.4,0c2.2,0,3.3-1.5,2.9-3.6 c-0.2-1.1-0.3-2.2-0.3-3.3c0-2.1,0.4-4.1,0.2-6.1c-0.3-2.8-0.7-5.4,0-8.3c0.8-3.1-0.1-6.4-4.4-6.8c-1.4-0.1-2.8,0-4.2,0 C564.3,397.3,560.9,397.3,557.5,397.3z"></path> <path style="fill:#FFFFFF;" d="M770.9,551.1c0,5.8,0.1,11.7,0,17.5c0,2.5-0.3,5-0.7,7.5c-0.4,3,1.4,4.9,4.3,4c2.2-0.7,4.3-0.6,6.5,0 c1.8,0.5,3.7,0.4,5.5,0.4c6.3,0,12.5,0,18.8,0c2.6,0,5.1,0.1,7.7,0c1.2-0.1,2.5-0.2,3.4-0.9s1.7-2,1.8-3.1 c0.3-5.5,0.4-11.1,0.4-16.6c0-4.5-0.2-9-0.3-13.5c-0.1-2-0.5-4-0.6-5.9c-0.1-0.8,0.2-1.7,0.3-2.5c0.1-1.4,0.4-2.7,0.3-4.1 c-0.4-5.9,2.4-6.4,6.6-6.7c5.7-0.5,11.5-0.5,17.3-0.4c2.2,0.1,4.5,1,6.7,1.7c1,0.3,1.6,2.8,1.4,4.3c-0.6,3.2-1.1,6.4-0.4,9.7 c0.5,2.7-0.1,5.6-0.2,8.4c0,0.5-0.1,1-0.1,1.6c0,7.5,0,14.9,0,22.4c0,1.8-0.3,3.5-0.3,5.3c0,1.9,0.2,3.8,0.4,5.7 c0.1,0.7,0.3,1.5,0.3,2.2c0.1,2.6,0.3,5.3,0.3,7.9c0,2-0.3,4.1-0.5,6.1c-0.1,1.2-0.1,2.4-0.1,3.6c0,1.9,0,3.7,0,5.6 c0,0.4-0.1,0.8-0.1,1.2c-0.1,4.6-0.2,9.2-0.4,13.8c-0.1,2.4-0.5,4.9-0.6,7.3c-0.1,1.2,0.3,2.4,0.3,3.6c-0.1,4.5-0.1,9-0.4,13.5 c-0.2,3.8-1.3,5.3-5.5,5.5c-4.6,0.2-9.3,0.1-13.9,0c-1.4,0-2.9-0.2-4.3-0.3c-3.4-0.4-5.4-3.7-4.7-7.2c0.3-1.4,0.1-2.9,0-4.4 c0-2,0-4-0.1-6.1c-0.1-1.9-0.6-3.7-0.8-5.6c-0.2-1.9-0.5-3.9-0.6-5.8c-0.2-3.2-0.3-6.4-0.4-9.7c-0.1-3.4-0.3-6.9-0.3-10.3 c0-0.8,0.2-1.6,0.3-2.4c0.5-2.4-1.4-4.3-3.8-3.9c-1.6,0.2-3.2,0.4-4.8,0.4c-9.5,0-19,0-28.5,0c-2.4,0-4.7-0.2-7.1-0.3 c-2-0.1-3,1-3,3c0,7.5,0,15,0,22.6c0,3.3-0.1,6.7-0.4,10c-0.1,1.7-0.8,3.3-1,5c-0.2,2.6-0.2,5.2-0.4,7.7c-0.2,2.2-0.7,4.4-1.2,6.5 c-0.4,1.6-1.9,1.9-3,1.3c-2.6-1.3-5-1.4-7.7-0.6c-1.3,0.4-2.8,0.1-4.2,0.1c-2.1,0-4.3,0-6.4,0c-1.8,0-3.1-0.8-3.8-2.4 c-1.2-2.7-1.8-5.6-1.9-8.6c0-2.7-0.6-5.3-0.9-8c-0.1-1.1,0.1-2.1,0.2-3.2c0.6-5.8,0.5-11.6,0-17.5c-0.2-2.2-0.2-4.5-0.4-6.7 c-0.4-3.5-0.9-7-1.3-10.5c-0.1-1.3,0.2-2.6,0.4-3.9c0.3-1.8,0.7-3.7,0.9-5.5c0.3-2,0.6-4.1,0.6-6.1c0.1-2.2-0.3-4.4-0.3-6.5 c0-7,0.2-14-0.1-21c-0.2-5.4-0.9-10.8-1.3-16.2c-0.3-3.7,0-7.3,1.1-10.9c0.7-2.1,2.6-2.5,4.4-2.6c1.7-0.1,3.4,0.3,5.1,0.3 c1.3,0,2.6-0.3,3.9-0.3c4,0,8,0.1,12-0.1c3.5-0.2,5.5,2.2,5.4,5.5C770.8,538.5,770.9,544.8,770.9,551.1z"></path> <path style="fill:#FFFFFF;" d="M136.1,607.3c-6.8,0-13.6-0.1-20.3,0c-4.1,0.1-7.9-0.6-11.6-2.4c-1.9-0.9-3.7-1.8-5.2-3.4 c-1-1.1-2.9-1.6-4.4-2.2c-1.1-0.4-1.9-1-1.5-2.1c0.7-2.1-0.1-4-0.4-6c-0.3-2.7-0.6-5.3-0.7-8c-0.1-2.6,0-5.2,0-7.8 c-0.1-4.7-0.2-9.3-0.3-14c-0.1-3.3-0.5-6.6-0.3-9.8c0.4-4.3,0.2-8.8,2.3-12.8c2.5-4.9,6.1-8.2,11.7-9.8c5.4-1.5,10.8-2.3,16.4-2.3 c7.5,0.1,15.1,0.1,22.6,0c3.9,0,7.8-0.3,11.7-0.3c10.6,0.1,21.2,0.1,31.7,0.4c2.2,0.1,4.4,0.9,6.5,1.8c2.1,0.9,2.5,3.2,2.6,5.1 c0.2,3.8,0,7.6-0.3,11.4c-0.2,2-3.7,4.1-5.7,3.9c-2-0.3-4.1-0.6-6.1-0.6c-19.7,0-39.4,0-59.1,0c-2.2,0-3,0.7-3.1,2.9 c-0.1,6.8-0.2,13.6-0.3,20.4c0,0.3,0,0.7,0,1c0.2,3.2,1.6,4.4,4.8,4.4c9.4,0,18.8,0,28.2,0c1.4,0,2.9,0.4,4.3,0.3 c3.4-0.1,6.9-0.6,10.3-0.6c2.7,0,5.4,0.4,8,0.8c2.6,0.4,5.2,1,7.8,1.6c0.9,0.2,1.9,0.8,2.6,1.5c1.4,1.3,2.4,3.1,4,4.1 c2.2,1.5,3,3.5,3.4,5.9c0.3,1.7,0.9,3.4,1.2,5.1c0.2,1.7,0.2,3.4,0.2,5c0,0.5-0.1,0.9-0.1,1.4c0,3.2,0.1,6.4,0,9.5 c-0.1,3.7-0.5,7.4-0.6,11.2c-0.1,2.9,0,5.9,0.3,8.8c0.4,3.2-1.4,5.8-1.9,8.8c-0.6,3.5-2.9,5.9-5,8.5c-0.3,0.4-0.7,0.8-0.7,1.3 c-0.3,2.2-1.9,2.9-3.7,3.4c-2.6,0.7-5.1,1.3-7.7,1.9c-0.3,0.1-0.7,0.2-1,0.2c-5.1,0.1-10.3,0.4-15.4,0.3 c-19.4-0.1-38.9-0.2-58.3-0.4c-2.1,0-4.1-0.3-6.1-0.6c-2.5-0.4-3.9-2.8-4-5.1c0-2.8,0.1-5.6,0.3-8.4c0.1-1.7,1.4-2.7,3-2.8 c1.9-0.2,3.8-0.5,5.8-0.6c1.5-0.1,3,0.3,4.4,0.3c6.9,0,13.8,0.1,20.7,0c12-0.1,23.9-0.2,35.9-0.3c2.6,0,4.3-2.3,3.7-4.8 c-0.5-2.4-0.9-4.8-1.2-7.2c-0.1-0.8,0.3-1.7,0.3-2.5c0-3.4,0-6.9,0-10.3c0-1.3,0.2-2.7-0.3-3.7c-0.9-2.1-3-2.4-5.1-2.4 C152.2,607.3,144.2,607.3,136.1,607.3z"></path> <path style="fill:#FFFFFF;" d="M114.8,449c-4.5,0-8.9,0-13.4,0c-3.2,0-6.3,0.3-9.5,0.3c-1.1,0-2.3-0.3-3.4-0.3c-2,0-3.1,1-3.1,3 c0.1,2.8,0.4,5.6,0.3,8.4c-0.1,6.3,0,12.7-0.8,18.9c-0.5,4.3-0.4,8.5-0.5,12.7c-0.1,1.5,0.1,2.9,0,4.4c-0.1,2.3-1.4,3.5-3.7,3.5 c-1.8,0-3.7,0.1-5.5-0.4c-1.9-0.5-3.5,0.1-5.2,0.4c-1.1,0.2-2.4,0.3-3.2-0.2c-2.5-1.4-5.1-1.6-7.6-0.7c-4.1,1.6-7.8,0.2-11.4-1.3 c-1.3-0.6-2.1-1.8-2.3-3.4c-0.2-2.1-0.5-4.3-0.7-6.4c-0.1-1.6,0-3.1,0-4.7c-0.1-4.9-0.2-9.8-0.3-14.7c-0.1-5.9-0.2-11.9-0.4-17.8 c-0.1-2.6-0.3-5.3-0.3-7.9c0-3.9,0.2-7.7,0.3-11.6c0.1-2,0.5-4,0.6-5.9c0.1-1-0.3-2-0.3-3c0.2-5.9,0.7-11.7,0.6-17.6 c-0.1-5.8-0.9-11.5-1.3-17.3c-0.1-0.8,0.3-1.6,0.3-2.4c0-1.7-0.1-3.4-0.3-5.1c-0.4-3.2,3.5-6.7,6.5-6.6c3.3,0.1,6.7,0.3,10,0.3 c12.6,0,25.2,0.1,37.9,0c12.2-0.1,24.4-0.3,36.6-0.3c5.3,0,6.4,2.3,6.7,6.7c0.2,2.3,0.4,4.7,0.3,7c-0.1,2.3-0.4,4.7-1.1,6.9 c-0.3,1-1.5,2.2-2.6,2.6c-2.8,1.2-5.7,1.5-8.7,0.8c-0.4-0.1-0.9,0-1.4,0c-12,0-24,0-36,0c-1.2,0-2.4-0.2-3.6-0.3 c-2.4-0.3-3.3,0.8-3,3.2c0.2,2.5,0,5,0.1,7.5s0.3,4.9,0.3,7.4s-0.3,4.9-0.3,7.4c0,2.2,1.5,3.4,3.6,2.7c3.2-1,6.4-0.5,9.6-0.2 c3.5,0.4,7,0.4,10.6,0.4c5.6,0.1,11.1,0,16.7,0c1.7,0,3.4-0.2,5.1,0c3.1,0.4,4.7,2.5,5.1,5.4c0.7,4.5,1.1,9,0.4,13.5 c-0.4,2.2-1.9,3.3-3.8,4c-1.4,0.5-2.9,0.7-4.3,0.7C123.8,449,119.3,449,114.8,449z"></path> <path style="fill:#FFFFFF;" d="M203.6,628.4c-0.2-5.4-0.5-10.8-0.7-16.2c-0.1-2.9,0-5.8-0.1-8.7c0-2.1-0.4-4.1-0.3-6.2 c0.3-5.8,0.7-11.7,1-17.5c0.1-2.4-0.2-4.8-0.3-7.3c0-1.2,0.3-2.5,0.3-3.7c0-3.9,0-7.9,0-11.8c0.1-4.3,0.1-8.7,0.4-13 c0.1-1.3,0.9-2.5,1.5-3.7c1.3-2.5,2.5-5,4-7.3c0.9-1.3,2.3-2.1,4-2.6c2.5-0.7,4.9-1.7,7.1-3c1.6-0.9,3.1-0.6,4.7-0.7 c2.2-0.1,4.4,0,6.6,0c3.1,0,6.3,0,9.4,0c0.9,0,1.8,0,2.7,0c5,0.1,9.9,0.3,14.9,0.3c5.8,0,11.7-0.3,17.5-0.3c5.1,0,10.3,0.2,15.4,0.3 c1.5,0,2.9-0.1,4.4,0c2.7,0.2,4.1,1.7,4.4,4.4c0.3,2.9,0.8,5.8,1,8.6c0.2,2.5-0.3,4.9-1.9,6.9c-0.5,0.7-1.8,1.1-2.7,1.1 c-1.9,0.2-3.8,0.1-5.7,0.1c-4.5,0-8.9,0-13.4,0c-5.4,0.1-10.8,0.3-16.3,0.3c-3.7,0-7.4-0.3-11-0.3c-2.1,0-4.1,0.3-6.2,0.3 c-1.8,0-3.7-0.3-5.5-0.3c-3.6,0-4.8,1.7-4.2,5.3c0.3,1.7,0.1,3.5-0.3,5.3c-0.5,2.4-0.3,4.7,0,7c0.5,4.1,0.8,8.2,0.1,12.4 c-0.3,2.1-0.1,4.3,0,6.4c0.1,1.9,0.2,3.9,0.3,5.8c0.1,1.6,0,3.3,0,4.9c-0.1,5-0.2,10-0.4,15c-0.1,3.2-0.6,6.4-0.6,9.5 c0,3.8,0.2,7.7,0.3,11.5c0,1.5-0.2,2.9,0,4.4c0.4,2.2,2.1,3.5,4.2,3c3.6-0.9,7.2-0.8,10.8-0.7c8.4,0.2,16.8,0.1,25.2,0.1 c3,0,5.9,0,8.9,0c3.7,0,7.4,0.4,11.1-0.3c3.1-0.6,5.8,2.6,5.8,6.3c0,2-0.3,4-0.7,5.9c-0.8,3.9-3.4,7.2-8,5.8 c-3.2-0.9-6.5-0.5-9.8,0.1c-2,0.4-4.2-0.2-6.3-0.3c-1.6-0.1-3.2,0-4.8,0c-0.6,0-1.1,0.1-1.7,0.1c-7.1,0-14.2,0-21.4,0 c-2.9,0-5.9,0.4-8.8,0.3c-4.6-0.1-9.3-0.6-13.9-0.8c-0.9,0-1.9-0.1-2.7,0.2c-2.1,0.8-3.8-0.2-5.4-1.3c-0.3-0.2-0.6-0.5-1-0.6 c-5.1-1.9-7.4-6.5-10-10.7c-1-1.6-1.1-3.9-1.4-5.9c-0.4-2.9-0.7-5.8-1-8.7C203.4,628.4,203.5,628.4,203.6,628.4z"></path> <path style="fill:#FFFFFF;" d="M705.7,548.3c-6.7,0-13.4,0-20.1,0c-2.7,0-5.4,0.3-8.1,0.3c-2.5,0-4.9-0.2-7.4-0.3 c-2.5-0.2-2.9,0.5-3.2,2.9c-0.2,1.5-0.2,3-0.1,4.5c0.1,2.3,0.3,4.6,0.3,6.9c0,1.9-0.5,3.8-0.6,5.8c-0.1,0.9,0.3,1.8,0.3,2.7 c0.1,12.9,0.4,25.8,0.3,38.6c0,5.3-0.7,10.6-1,15.9c-0.1,1.2,0.4,2.5,0.4,3.7c0,1.5-0.3,3-0.3,4.5c-0.1,1.2-0.5,2.8,0.1,3.5 c0.8,0.9,2.6,1.6,3.8,1.4c3.2-0.7,6.3-0.3,9.5,0.1c2.6,0.3,5.3-0.2,7.9-0.3c0.7,0,1.4-0.2,2-0.2c10,0,19.9,0,29.9,0 c1.6,0,3.3-0.3,4.9-0.6c2.2-0.4,5.7,0.8,6.7,2.5c0.3,0.5,0.4,1.1,0.4,1.6c-0.1,3.3-0.2,6.7-0.3,10c-0.1,2.2-2.3,4.3-4.5,4.3 c-11.1,0-22.2,0-33.3,0c-2,0-3.9,0.3-5.9,0.3c-1.1,0-2.2-0.2-3.2-0.3c-3.4-0.2-6.8-0.5-10.1-0.7c-1.3-0.1-2.6,0.3-3.9,0.4 c-1.6,0.1-3.2,0.2-4.8,0.2c-1.8,0-3.5,0-5.3,0c-1.7,0-3.4,0-5.1-0.3c-2.2-0.4-4.4-0.9-6.6-1.6c-2-0.6-3.5-2.1-4.7-3.9 c-0.5-0.8-1.3-1.5-2.1-2.1c-3.1-2.4-4.6-5.4-4.4-9.4c0.1-1.9-0.6-3.9-0.8-5.9c-0.1-1.5,0.1-2.9,0.2-4.4c0-2.3,0.1-4.5,0-6.8 c-0.2-3.2-0.7-6.5-1-9.7c-0.3-2.6-0.5-5.1-0.7-7.7c-0.3-3.3,0.2-6.6,1.1-9.8c0.2-0.8,0-1.6,0-2.5c0.1-2,0.3-4,0.3-6 c0-3.8-0.2-7.5-0.2-11.3c0-1.3-0.2-2.7-0.1-4c0.2-2.4,0.7-4.8,0.6-7.1c-0.1-6.8-0.4-13.6-0.6-20.3c-0.1-2,0.6-3.6,2-5 c1.2-1.2,2.1-2.7,3.3-3.9c1.3-1.3,2.8-2.4,4.4-3.3c2.3-1.3,4.8-2.1,7.1-3.3c1.5-0.8,3.1-0.4,4.6-0.4c6.3-0.1,12.7-0.2,19-0.3 c3.4,0,6.9-0.1,10.3,0c4,0.1,8.1,0.3,12.1,0.3c8.3,0,16.6-0.2,24.9-0.3c1.7,0,3.4,0.2,5,0.7c3.1,0.9,4.5,2.9,4.5,6.1 c0,2.7,0.3,5.5-0.1,8.2c-0.2,1.8-1,3.8-2.1,5.3c-0.6,0.8-2.3,1.2-3.5,1.3C720.2,548.3,712.9,548.3,705.7,548.3z"></path> <path style="fill:#FFFFFF;" d="M769.3,373.6c4.4,0,8.9,0,13.3,0c2.9,0,5.7-0.3,8.6-0.3c1.4,0,2.8,0.1,4.1,0.4 c3.2,0.6,4.8,2.6,4.8,6.4c0,2.9-0.3,5.7-0.3,8.6c0,2,0.5,4.1,0.6,6.1c0.1,1.6-0.3,3.2-0.3,4.8c-0.1,3.1,0.1,6.2,0,9.2 c-0.1,3.6-0.3,7.1-0.5,10.7c0,0.3-0.2,0.6-0.2,0.8c0,3.8-0.1,7.7,0,11.5c0.1,4.8,0.4,9.5,0.7,14.3c0.1,2.3,0.4,4.6,0.3,6.9 c-0.1,3.2-0.6,6.5-0.9,9.7c-0.2,1.8-0.3,3.5-0.4,5.3c-0.2,2-0.4,4-0.5,6c-0.1,1-0.3,2.1-0.1,3.1c0.2,1.8,2.4,2.8,4.8,2.1 c2.7-0.9,5.1-0.3,7.7,0c1.6,0.2,3.3-0.1,5-0.2c2-0.1,4-0.1,5.9-0.1c3.9,0.1,7.7,0.4,11.6,0.3c4.3-0.1,8.6-0.8,12.9-0.5 c3.7,0.2,7.7,1.8,8.4,6c0.2,1.1,0.3,2.4-0.2,3.3c-0.8,1.7-1.1,3.5-0.9,5.3c0.3,2.9-1.6,4.5-3.9,5.4c-3.1,1.2-6.4,1.5-9.5,0.3 c-2.5-1-4.9-0.4-7.3-0.1c-4.4,0.5-8.8,0.9-13.2,0.3c-2.2-0.3-4.4-0.4-6.5-0.3c-1.2,0.1-2.3,0.9-3.5,1.3c-2.5,0.9-4.8-0.2-7.2-0.4 c-4.8-0.6-9.7-0.8-14.6-0.2c-2.2,0.3-4.5,0.4-6.6-0.1c-4.5-1-9-0.7-13.4,0c-2.7,0.4-7.4-1.1-8.9-3.3c-0.4-0.6-0.6-1.5-0.4-2.2 c0.7-2.7,0.8-5.3,0.5-8.1c-0.3-3.5,0.1-7.1-0.1-10.6c-0.2-3.9-1-7.8-1.2-11.7c-0.2-3.2,0.1-6.4,0.1-9.7c0-1.7,0.3-3.5,0-5.2 c-0.6-3.8,0.1-7.5,0.3-11.3c0.3-4.4,1-8.8,0-13.4c-0.7-3.4-0.1-7-0.1-10.5c0-0.6,0.2-1.2,0.2-1.9c0-7.3,0.1-14.7,0-22 c0-2.7-0.7-5.3-0.9-8c-0.4-4.1,0.9-6.8,5.5-7.8c2.1-0.4,4.2-0.4,6.3-0.5C769.3,373.3,769.3,373.5,769.3,373.6z"></path> <path style="fill:#FFFFFF;" d="M871.7,373.3c5,0,9.7,0,14.4,0c2.4,0,4.8-0.2,7.2-0.3c7.7-0.4,10,6,9,11.5c-0.1,0.6-0.2,1.1-0.2,1.7 c0,6.8-0.1,13.7,0.1,20.5c0.1,3.1,0.1,6.2-0.7,9.3c-0.2,0.9,0.3,1.9,0.3,2.9c0,6.5,0,13.1,0.1,19.6c0,3.2,0.3,6.3,0.4,9.4 c0,1.3,0,2.7-0.4,4c-0.5,1.4-0.6,2.6,0.3,3.7c0.9,1.1,0.9,2.3,0.2,3.3c-1.1,1.8-1.2,3.7-0.6,5.6c0.8,2.6-0.4,5-0.8,7.5 c-0.3,1.6-0.3,3.2-0.2,4.8c0.1,1.3,1.9,2.7,3.3,2.4c3.4-0.8,6.6-0.2,10,0c2.4,0.2,4.9-0.5,7.3-0.6c2.5-0.1,4.9,0.3,7.4,0.3 c2.4,0,4.7-0.2,7.1-0.3c2.1-0.1,4.2,0,6.3,0c2.3,0,4.7,0.2,7,0c6.3-0.5,8.3,4,7.3,8.9c-0.5,2.6-1,4.9,0.1,7.4 c0.3,0.6-0.3,1.9-0.9,2.5c-1,1-2.3,1.6-3.4,2.5c-1.7,1.5-3.5,1.1-5.3,0.4c-1.1-0.5-2-0.9-3.3-0.6s-2.7-0.1-4.1-0.1 c-1.1,0-2.3,0.2-3.4,0.2c-3.1,0-6.2,0.1-9.2,0c-4.3-0.1-8.5-0.2-12.8-0.3c-3.6-0.1-7.3-0.3-10.9-0.3c-1.9,0-3.7,0.4-5.6,0.6 c-1,0.1-2,0-2.9,0c-1.8,0-3.5,0-5.3,0c-2.1-0.1-4.2-0.2-6.3-0.2c-5.2,0-10.3,0-15.5,0c-1.3,0-2.6-0.3-3.8-0.8 c-1.9-0.8-2.9-2.6-2.2-4.6c0.9-2.7,1-5.3,0.3-8c-0.2-0.9,0.3-2,0.3-3c-0.3-3.4-0.7-6.8-0.9-10.2c-0.1-1.7,0.3-3.4,0.2-5.1 c-0.1-4-0.2-8.1-0.3-12.1c-0.1-3.3-0.4-6.6-0.3-9.8c0.1-3.5,0.5-7.1,0.6-10.6c0.1-3-0.2-6.1-0.3-9.1c0-2,0-4.1,0-6.1 c0-1.5,0-2.9,0-4.4c0-1.3,0-2.7,0-4c0-6.1,0-12.3,0-18.4c0-1.8-0.7-3.6-0.5-5.2c0.6-3.9-0.7-7.9,0.9-11.7c0.6-1.6,2-2.2,3.5-2.4 C867.4,373.4,869.7,373.4,871.7,373.3z"></path> <path style="fill:#FFFFFF;" d="M545.9,548.3c-3.5,0-7.1,0-10.6,0c-2.8,0-5.4-0.7-7.8-2.1c-1.2-0.7-1.8-1.6-1.8-3 c-0.1-3.2-0.2-6.3-0.3-9.5c-0.2-4.1,2.5-6.9,6.7-6.9c3,0,5.9-0.2,8.8,0.9c0.9,0.3,2.1-0.2,3.2-0.4c1.3-0.2,2.6-0.5,3.9-0.5 c9.4,0,18.8,0,28.1,0c5.5,0,11,0,16.5,0c2.9,0,5.9-0.3,8.8-0.3c2.1,0,4.2,0.5,6.3,0.6c1.1,0.1,2.2-0.3,3.2-0.3c3.1,0,6.3,0.1,9.4,0 c5.9-0.3,7.2,1.3,8.5,7.1c0.3,1.1,0.4,2.2,0.7,3.3c0.9,2.7-0.9,4.8-1.6,7.1c-0.1,0.4-0.3,0.8-0.5,1.3c-1.1,2.9-1.9,3.4-5,3.2 c-2.6-0.2-5.3-0.3-7.9-0.3c-5.4-0.1-10.8,0-16.2,0c-1.1,0-2.3,0.2-3.4,0.3c-1.8,0.3-2.6,1.3-2.5,3c0.2,3.9,0.5,7.8,0.6,11.7 c0.1,3.5,0.1,7.1,0,10.6c0,2.2-0.3,4.4-0.3,6.5c0,5,0.3,10,0.3,15c0.1,6.7,0.1,13.5,0,20.2c-0.1,6.6-0.3,13.1-0.7,19.6 c-0.3,5.1-0.6,10.2-1.5,15.1c-0.7,4-2.4,6.1-7.2,5.9c-4.4-0.2-8.8-0.2-13.1-0.4c-1.6,0-3.2,0.2-4.6-0.3c-2.5-0.7-3.7-3.9-3.5-6.7 c0.3-3.9,0.2-7.8-0.1-11.6c-0.2-2.7-0.2-5.3,0-7.9c0.2-2.9,0-5.9,0-8.8c0-0.7-0.2-1.4-0.2-2c-0.4-5.3-0.7-10.6-1.1-15.9 c-0.1-0.9-0.7-1.7-0.8-2.6c-0.1-1.2,0-2.4,0.2-3.5c0.3-1.7,0.7-3.4,1-5.1c0.4-2.5,0.8-4.9,0.9-7.4c0.1-1.8,0.2-3.8-0.4-5.4 c-1.2-3-0.5-5.8-0.3-8.8c0.2-3.3,0.2-6.7,0.2-10.1c0-2.4-0.3-4.8-0.3-7.2c-0.1-3.1-1.1-4.2-4.3-4.2 C553.4,548.3,549.6,548.3,545.9,548.3z"></path> <path style="fill:#FFFFFF;" d="M492.5,373.5c-2.1,0-4.3,0.1-6.4,0.1c-28.2,0.4-56.4,0.7-84.6,1c-0.8,0-1.6-0.1-2.4-0.3 c-1.7-0.3-3.5,0.6-4.7,1.8c-4.1,4.4-2.5,9.7-2.2,14.6c0.1,1.9,1.8,3.7,2.7,5.5c0.8,1.5,2.1,2.1,3.8,2c6.2-0.2,12.4-0.2,18.6-0.3 c1.1,0,2.2-0.2,3.2-0.4c2.1-0.3,3.6,0.2,4,1.5c0.3,1,0.5,2.1,0.5,3.2c0.1,6.5,0.2,13.1,0.3,19.6c0,1.7,0.1,3.5,0.1,5.2 c0,1.8-0.1,3.6-0.2,5.3c0,0.9-0.3,1.9-0.2,2.8c0.1,1.5,0.6,3,0.5,4.6c0,2.7-0.5,5.4-0.5,8c0.1,3.2,0.6,6.4,0.7,9.6 c0.2,3.3,0.1,6.7,0.1,10.1c0,1.2-0.3,2.5-0.2,3.7c0.3,2.7,0.7,5.3,1,7.9c0.1,0.8,0.2,1.7,0.4,2.5c0.7,4.3,1.7,8.4,0.6,12.8 c-0.7,2.9,0.8,5.1,3.7,5.5c1.8,0.3,3.8,0,5.7-0.1c2.7-0.1,5.3-0.2,8-0.3c2.1-0.1,4.2,0,6.3-0.1c1.9,0,3.8-0.4,5.6,0 c4.3,1,9.1-1.9,9.3-7.2c0.2-4.8,0.1-9.6,0.2-14.4c0.1-5.1,0.1-10.2,0.2-15.2c0-3.3,0.1-6.6,0.2-9.8c0-0.2,0-0.4,0-0.5 c0.6-3.2,1.2-6.4,0.2-9.7c-0.4-1.3-0.4-2.7-0.4-4.1c0-4.8,0.1-9.6,0.1-14.3c0-1.7-0.7-3.4-0.3-4.9c0.7-2.5,0.2-4.7-0.2-7 c-0.2-1.1-0.3-2.3-0.4-3.4c-0.1-2.8-0.1-5.7-0.1-8.5c0-2.1,1-3.2,3-3.2c6.5-0.1,13-0.2,19.6-0.2c0,0.1,0,0.2,0,0.3 c1.5,0,3,0,4.5-0.1c0.1,0,0.1,0,0.2,0c3.2-0.1,4.1-0.7,4.5-3.8c0.5-3.3,0.6-6.7,0.6-10.1c0-2.7-0.6-5.3-1.8-7.7 C495.6,374.3,494.3,373.5,492.5,373.5z"></path> <path style="fill:#FFFFFF;" d="M387.9,448.5c-1.2-2.7-1-5.3-0.5-8c0.2-0.9,0.3-1.8,0.2-2.7c-0.3-3-0.9-6-0.9-9 c0-6.4,0.3-12.9,0.5-19.3c0.1,0,0.2,0,0.3,0c-0.2-1.5-0.4-3.1-0.5-4.6c-0.4-5.2-0.7-10.4-1.1-15.6c-0.1-1.1-0.4-2.4-1.1-3.3 c-2.3-2.9-4.7-5.6-7.2-8.3c-0.5-0.6-1.4-1-2.2-1.2c-1.8-0.5-3.6-0.8-5.4-1.4c-3-1-5.9-1.4-9.1-1.4c-19.9,0.1-39.8,0-59.8,0 c-0.8,0-1.6-0.2-2.4-0.3c-2.5-0.2-5-0.3-7.4,1c-2.1,1.1-4.4,1.8-6.5,2.9c-1.5,0.7-3.1,1.6-4.3,2.7c-2.4,2.3-3.3,5.5-4.8,8.3 c-2.7,4.7-2.4,9.9-2.6,15s0.2,10.1,0.3,15.2c0,3.3-0.2,6.7-0.3,10c-0.1,1.7-0.3,3.3-0.3,5c0,4.5,0,9.1,0,13.6c0,1.5,0.3,3.1,0.3,4.6 c0,4.9-0.2,9.8,0.1,14.6c0.3,5,1.7,9.9,1.3,15c-0.1,1.5,0.1,2.9,1.3,4.1c0.9,1,1.4,2.4,2,3.7c1.3,2.7,2.5,5.1,5.8,6.2 c2.7,0.9,5.1,2.6,7.6,3.8c0.8,0.4,1.8,0.7,2.8,0.7c2.3-0.1,4.5-0.6,6.8-0.6c5,0,10,0.3,15.1,0.3c3.2,0,6.3-0.3,9.5-0.2 c4.2,0.1,8.5,0.5,12.7,0.6c4,0,8.1-0.2,12.1-0.3c1.9,0,3.8,0,5.7,0c2.3,0,4.7,0,7,0c1.3,0,2.7,0.5,3.9,0.2c3.8-1.2,7.6-2.6,11.2-4.2 c1.1-0.5,1.9-1.7,2.5-2.8c1-1.6,1.9-3.4,2.7-5.1c1.1-2.6,2.8-5.2,3-7.8c0.7-7,0.8-14,1.2-21c0.1-2.1,0.6-4.2,0.7-6.3 C388.2,451,388.4,449.6,387.9,448.5z M343.4,479.1c-2.9-0.9-5.5-0.3-8.2,0c-1.8,0.2-3.7,0.1-5.6,0c-3.8-0.2-7.6-1.3-11.4,0 c-0.8,0.3-1.9,0.2-2.8,0c-1.5-0.2-2.3-1.8-1.8-3.7c1.2-4.5,0.6-9.1,0.5-13.7c0-1.9,0.3-3.8,0.6-5.7c0.5-3.2,0.7-6.3,0.4-9.5 c-0.5-5.5-0.7-11-0.7-16.5c0-4.1,0.6-8.1,0.6-12.2c0-4.2-0.4-8.4-0.6-12.5c-0.1-2-0.1-4.1,0-6.1c0.1-1.2,1-1.9,2.2-1.9 c1.5,0.1,3.1,0.3,4.6,0.3c4.2-0.1,8.4-0.2,12.6-0.3c2.7-0.1,5.4,0,8.2,0c2.7,0,4.1,1.3,4.3,4c0.1,1,0,2,0,3h0.1 c-0.3,2.9-1.1,5.9-0.7,8.7c1.1,8.3,0.3,16.7,0.6,25c0.1,2.2-0.3,4.5-0.3,6.7c0,2.5,0.3,4.9,0.4,7.4c0.1,2.4,0.1,4.7,0.2,7.1 c0,1.5,0,2.9,0,4.4c0,1.4-0.1,2.8,0.1,4.2c0.2,2.4,0.4,4.8,0.8,7.1C347.9,477.5,346.4,480,343.4,479.1z"></path> <path style="fill:#FFFFFF;" d="M265.4,413.5c-0.2-5.2-0.5-10.3-0.7-15.5c0.1,0,0.1,0,0.2,0c-0.2-1.6-0.2-3.2-0.5-4.8 c-0.4-2.1-1-4.3-1.7-6.3c-0.4-1.1-1.2-2.1-1.9-3.2c-1.8-3.3-4.3-5.8-8-6.9c-1.5-0.5-2.9-1.2-4.3-1.9c-1.7-0.9-3.4-1.7-5.5-1.6 c-2.7,0.1-5.5,0-8.2,0c-6.2,0.1-12.5,0.3-18.7,0.3c-12.4,0.1-24.8,0-37.2,0c-0.5,0-1,0-1.5-0.1c-3.1-0.6-6.1-0.3-9,1 c-2.5,1.2-4.9,2.3-7.3,3.5c-0.9,0.4-1.9,1-2.3,1.7c-2.4,4-4.7,8-6.8,12.1c-0.5,1-0.7,2.2-0.7,3.3c-0.1,8,0,16,0,23.9 c0,0.8,0.2,1.6,0.3,2.4c0.1,1.8,0.4,3.5,0.3,5.3c-0.1,1.8-0.5,3.6-0.6,5.4c-0.2,1.9-0.3,3.9-0.4,5.8c0,3.4,0,6.9,0,10.3 c0.1,3.2,0.2,6.3,0.3,9.5c0.1,3.7,0,7.3,0.1,11c0,2.8,0.4,5.5,0.2,8.3c-0.1,1.9,0.5,3.2,1.4,4.7c0.8,1.2,1.3,2.6,1.8,3.9 c0.3,0.9,0.2,2.1,0.7,2.9c1.2,1.9,2.4,3.8,4,5.3c1.1,1.1,2.8,1.6,4.2,2.3c1.3,0.6,2.8,1,4.1,1.6c2.5,1.3,5.1,2.4,7.9,2.2 c1.9-0.2,3.8-0.9,5.7-1c6,0,12,0.1,18,0.3c4.9,0.2,9.9,0.6,14.8,0.6c5.7,0.1,11.4-0.2,17.1-0.3c1.3,0,2.6,0.1,3.8,0 c3.1-0.3,6.1-0.8,9.2,0.3c0.6,0.2,1.4,0.3,1.9,0c2.5-1.6,6.1-1.2,7.9-4.3c0.3-0.5,0.9-0.9,1.5-1.1c2.6-0.8,4-3.1,5.7-5 c2.3-2.5,2.3-5.9,2.7-9c0.7-5.8,1.1-11.6,1.4-17.4c0.3-5.9,0.3-11.8,0.4-17.6c0-4.3-0.3-8.7-0.3-13c0-2.9,0.3-5.7,0.3-8.6 C265.4,420.5,265.5,417,265.4,413.5z M221.6,479.1c-1.6,0.3-3.3,0.1-5,0.1c-0.4,0-0.8,0-1.2,0c0,0.1,0,0.1,0,0.2 c-2.5-0.2-4.9-0.5-7.4-0.5c-4.7,0.2-9.5,0.5-14.2,0.9c-2.2,0.2-3.8-1-3-3c1.7-4.1,1.2-8.4,1.3-12.7c0.1-2.4,0.3-4.8,0.3-7.2 c0.1-4.4,0.3-8.9,0.3-13.3c0-2.3-0.5-4.6-0.6-7c-0.1-1.9,0-3.7,0-5.6c0-2.3-0.1-4.6-0.2-6.9c0-1.7,0-3.3,0-5c0.1-4.5,0.4-9,0.4-13.4 c0-2.2-0.4-4.4-0.3-6.6c0.1-1.7,1.2-2.4,2.9-2.1c6.8,1.2,13.7,0.5,20.6,0.6c1.7,0,3.4-0.5,5.1-0.6c2.5-0.1,3.8,1.2,3.8,3.6 s0,4.8,0,7.1c0,4.2,0,8.3,0,12.5c0,1.6,0,3.3,0,4.9c-0.1,5.4-0.2,10.8-0.4,16.2c0,1.4-0.6,2.7-0.6,4c0,2.1,0.4,4.2,0.6,6.3 c0.1,1.3,0,2.7,0,4c0,1.6,0,3.3,0,4.9c0,2.2-0.1,4.4,0.1,6.6c0.1,1.7,0.5,3.5,0.9,5.2C225.7,475.5,224.3,478.6,221.6,479.1z"></path> <path style="fill:#FFFFFF;" d="M404.1,601.1c2.3,0.3,4-0.5,5.5-2.3c0.3-0.4,0.9-0.6,1.2-0.9c1.5-1.7,3.3-3.2,4.2-5.2 c0.8-1.7,0.6-3.9,0.8-5.9c0.4-3.8,0-7.7,1.9-11.5c0.8-1.5,0-4.1-0.4-6.1c-0.3-1.7-0.2-3.3,0-5c0.2-3.5,0.4-6.9,0.2-10.4 c-0.1-2.1-1-4.2-1.3-6.3c-0.6-3.4-0.3-7-2.1-10.3c-0.9-1.6-1.5-3.3-3.3-4.2c-1.5-0.7-3-1.4-4.3-2.3c-3.7-2.3-8-3.5-12.2-3.9 c-5.3-0.6-10.7-0.4-16.1-0.4c-2.8,0-5.6,0.3-8.4,0.3c-9.5-0.1-19.1-0.2-28.6-0.3c-1.7,0-3.4,0.3-5.1,0.3c-3.6,0.1-7.2,0-10.8,0 c-3.8,0-7.5,0-11.3,0c-2.9,0-4.8,2.1-6.8,3.9c-0.1,0.1-0.1,0.3-0.1,0.5c-0.1,3.2-0.4,6.4-0.3,9.6c0.1,3.1,0.5,6.2,0.6,9.2 c0.1,4.6,0.1,9.3,0,13.9c0,1.5-0.4,3-0.3,4.4c0.3,3.6,1,7.2,0.7,10.8c-0.3,4.1-0.3,8.3-0.4,12.4c-0.1,5.2-0.1,10.4,0,15.7 c0.1,7,0.5,14,0.7,21c0.1,3.4,0,6.9,0,10.3c0,0.4-0.1,0.8,0,1.2c1.3,3.9,1.4,7.9,1.4,12c0,1.8,0.5,3.7,2.7,4.2 c0.9,0.2,1.9,0.6,2.8,0.5c2.7-0.2,5.4-0.6,8.1-0.9c3.4-0.4,6.7,0.4,9.9,1.4c1.6,0.5,2.6,0.1,2.8-1.6c0.5-4.1,1.2-8.1,1.3-12.2 c0.4-12,0.5-24,0.7-35.9c0-2.7,1.6-4.3,4.3-4.3c2.2,0,4.4,0,6.6,0c1.2,0,2.4-0.3,3.6-0.3c3.3,0,6.5,0,9.8,0.1c1,0,2.2,0.1,2.9,0.7 c2.1,1.7,4.2,3.5,4.9,6.4c0.3,1.2,0.8,2.4,1.4,3.6c0.7,1.6,1.6,3.2,2.4,4.8c0.5,1,0.8,2.1,1.3,3.1c2.1,4.4,4.3,8.7,6.4,13.1 c1.9,3.9,3.7,7.7,5.5,11.6c0.6,1.3,1.1,2.7,1.5,4.1c0.6,1.9,1.2,3.8,3.4,4.6c2.6,0.9,5.3,1.8,8.1,1c1-0.3,2.2-0.5,3.2-0.3 c2.1,0.3,4.1,0.8,6.2,1.2c4.7,0.9,7.9-1.2,8.2-6.5c0.1-1.8-1-3.7-1.3-5.6c-0.4-3.4-1.5-6.6-3.5-9.4c-1.3-1.7-1.6-3.7-1.7-5.8 c0-0.9-0.3-1.8-0.6-2.6c-2.1-5-4.2-10-6.3-15c-0.9-2.2-1.5-4.6-2.4-6.8C400.7,602.7,400.9,600.7,404.1,601.1z M385.8,577.1 c0.5,2.6-0.3,4.9-3.8,5.1c-5.4,0.4-10.9,0.6-16.6,0.9c-2.5-0.2-5.2-0.4-7.9-0.5c-5.3-0.2-10.5-0.2-15.8-0.4 c-2.8-0.1-4.5-2.4-3.4-4.9s0.1-4.7-0.1-7c-0.1-2.1,0-4.2,0-6.3c0-2.3,0-4.5,0-6.8c0-1.7-0.3-3.3-0.4-5c-0.2-3.5,1.5-4.1,4.6-4.3 c2.9-0.2,5.9,0.4,8.9,0.5c1.6,0.1,3.2-0.3,4.8-0.3c3.5,0,7,0.3,10.5,0.3c3,0,6.1-0.2,9.1-0.3c2.1-0.1,4.2-0.1,6.2-0.2 c2.3-0.1,3.4,1,3.5,3.9c0.1,3.3,0.2,6.6,0.2,9.9c0,1-0.1,1.9-0.4,2.9c-0.4,1.4,0,2.6,0.2,3.9c0.4,2.3,0.1,4.7,0.1,7.1 C385.8,576.3,385.7,576.7,385.8,577.1z"></path> <path style="fill:#FFFFFF;" d="M747.6,493.2c-1.3-1.9-2.4-3.9-2.8-6.3c-0.1-1-0.8-1.9-1.1-2.8c-0.6-2-2.3-3.7-2.1-6.1 c0.1-1.1-0.2-2.3-0.6-3.3c-2.3-5.6-4.9-11.1-7.1-16.8c-1.9-4.9-3.3-10.1-5.1-15.1c-1.3-3.4-2.9-6.7-4.4-10.1c-2.2-5-4.4-10-6.5-15.1 c-2.3-5.7-4.4-11.6-6.6-17.4c-0.4-1.1-0.8-2.1-1.2-3.2c-2.7-6.2-5.3-12.4-8-18.5c-1.6-3.6-2.7-5.7-8-5.5c-2.5,0.1-4.9,0.3-7.4,0.3 c-2.8,0.1-5.6,0-8.4,0c0-0.1,0-0.3,0-0.4c-3,0.3-6,0.4-9.1,0.8c-1.6,0.2-3.1,0.7-3.8,2.4c-2,5.1-3.9,10.1-5.8,15.2 c-1.3,3.4-2.7,6.7-4,10.1c-1.5,4-2.7,8-4.2,11.9c-1,2.7-2.3,5.3-3.5,7.9c-0.9,1.9-2.2,3.8-2.6,5.8c-0.7,3.3-1.7,6.3-3.6,9.1 c-0.7,1.1-1,2.5-1.5,3.8c-0.6,1.7-1.3,3.3-2,5c-0.5,1.1-1.2,2.2-1.4,3.4c-0.4,2.6-1,5.1-2.6,7.3c-0.6,0.8-1.1,1.9-1.3,2.9 c-0.5,2.3-0.5,4.6-2.4,6.4c-0.3,0.3-0.3,0.8-0.4,1.3c-0.9,2.4-1.8,4.7-2.8,7c-0.5,1.3-1.3,2.5-1.7,3.8c-0.6,2.2-0.8,4.5-1.6,6.6 c-1,2.7-2.6,5.1-3.8,7.7c-0.6,1.4-1.2,3-1,4.5c0.3,2.3,2.3,3.6,5.2,3.5c3.8,0,7.6-0.1,11.4-0.4c2.4-0.2,4.4-1.1,5.6-3.7 c1-2.3,2.4-4.4,3.9-6.4s2.5-4.1,2.5-6.6c0-2,0.5-3.8,1.7-5.4c1.7-2.2,2.6-4.6,2.9-7.5c0.2-2.3,0.5-3.2,3.4-3.2c5.3,0.1,10.7,0,16,0 c0.5,0,0.9,0,1.4,0c2.2-0.1,4.5-0.5,6.7-0.2c2.3,0.3,4.4,0.3,6.6-0.4c1-0.3,2.1-0.6,3.1-0.7c1.9-0.2,3.7,0.2,4.7,1.8 c2.1,3.3,3.9,6.8,5.7,10.3c0.5,0.9,0.3,2.1,0.7,3c1.3,2.8,2.7,5.5,4.1,8.2c0.9,1.8,1.4,3.5,1.4,5.5c0,3.5,1.2,5,4.6,5.5 c2.1,0.3,4.3,0,6.4,0c1.6,0,3.3,0.3,4.7-0.2c1.4-0.6,2.7-0.7,3.9-0.1c2.7,1.3,5.3,0.9,8.1,0.2c1.8-0.4,3.7-0.3,5.5-0.3 c2.4,0.1,4.7,0.6,7.1-0.4c1.3-0.5,2-1.6,1.9-2.9C748.6,495.1,748.1,494,747.6,493.2z M680.2,442c-3.5-1.3-7-0.3-10.4,0.2 c-0.8,0.1-1.7,0.2-2.6,0.1c-1.5-0.1-2.2-1.2-1.6-2.6c1.3-3.3,2.8-6.5,4-9.8c0.8-2.3,1.3-4.8,2-7.1c0.3-1.2,0.8-2.4,1.4-3.4 c0.9-1.6,1.9-1.7,2.7,0c1.3,2.7,2.4,5.6,3.6,8.4c1.1,2.6,2.2,5.2,3.3,7.8c0.5,1.3,1,2.6,1.5,3.9C683.7,441.9,682.5,442.9,680.2,442z "></path> <path style="fill:#FFFFFF;" d="M550.8,648.7c-1-3.9-3.1-7.5-4.6-11.2c-0.6-1.6-1-3.2-1.6-4.8c-0.4-1-0.8-1.9-1.3-2.8 c-0.7-1.4-1.6-2.6-2.1-4c-0.9-2.5-1.6-5-2.4-7.5c-0.4-1.2-1.3-2.3-1.7-3.5c-1.2-3.3-2.3-6.7-3.5-10.1c-0.2-0.7-0.6-1.3-0.9-2 c-0.9-1.8-2.1-3.4-2.4-5.6c-0.1-1.3,0.2-3-1.5-3.9c-2-1-2.5-3-2.9-5.1c-0.3-1.7-0.8-3.3-2-4.8c-1-1.1-1.5-2.8-2.1-4.2 c-0.5-1.2-1-2.5-1.5-3.8c-1.6-3.9-4.9-6.9-5.5-11.3c-0.4-2.9-2-5.6-3.1-8.4c-1.8-4.5-3.8-8.9-5.7-13.3c-0.1-0.2-0.2-0.4-0.3-0.6 c-1.4-3.3-2.8-6.5-4.1-9.8c-0.8-2-1.2-4.3-3.9-4.5c-4.6-0.4-9.1-0.7-14-1c-2.5-0.5-4.8,1-7.2,2c-0.7,0.3-1.3,1.1-1.7,1.9 c-1.1,2-2.1,4-3,6c-0.9,1.9-1.7,3.9-2.5,5.9c-1.3,3.2-2.2,6.6-3.9,9.5c-1.3,2.2-2.4,4.3-2.9,6.9c-0.4,2.3-1.6,4.5-2.6,6.7 c-2.3,5-4.8,9.9-7,14.8c-1.6,3.6-3,7.4-4.6,11.1c-0.3,0.7-0.7,1.4-1,2.1c-0.7,1.4-1.6,2.7-2.2,4.2c-0.9,2.1-1.7,4.3-2.5,6.4 c-0.6,1.4-1.4,2.7-1.9,4.2c-1.2,3.3-2.2,6.6-3.4,9.9c-1,2.7-2.3,5.4-3.5,8c-0.6,1.4-1.2,2.8-1.8,4.2c-0.6,1.5-1.5,3-1.8,4.6 c-0.8,3.6-1.3,7.4-3.2,10.7c-0.7,1.3-1.3,2.6-1.7,4c-1,3.9,2.4,7.1,6.4,6.5c2.3-0.4,4.7-0.4,6.9,0c3.3,0.6,4.9,0,6.5-3 c1.1-2,2.2-4,3.5-5.8c3.3-4.6,4.5-10.1,6.6-15.2c0.4-1,0.9-2.1,1.6-2.9c0.9-1,1.7-2,1.9-3.5c0.4-2.9,2.1-4.6,5-5.3s5.7-0.8,8.6-0.6 c5.3,0.2,10.6,0,15.8,0.1c1.3,0,2.5,0.3,3.8,0.3c2.4,0,4.7-0.4,7.1-0.3c3.3,0.1,6.3,1.1,8.3,4c0.3,0.4,0.8,0.8,1.1,1.2 c2.5,3.1,4.6,6.2,5.6,10.1c0.7,2.9,2.1,5.7,3.3,8.5c1.1,2.6,2.3,5.2,3.5,7.7c1.1,2.5,2.9,4.2,5.7,4.5c2.4,0.2,4.8,0.5,7.2,0.7 c1.1,0.1,2.2,0.4,3.2,0.3c2.7-0.1,5.3-0.5,8-0.6C549.7,656.1,551.9,652.7,550.8,648.7z M493.2,599.6c-0.3,0-0.6,0.1-0.9,0.1 c-0.6-0.1-1.1-0.1-1.7-0.2c-0.6-0.1-1.1-0.1-1.7-0.1c-2.2,0-4.4,0.3-6.5,0.3c-3,0-6.1-0.2-9.1-0.3c-1-0.1-2.1-0.3-2.4-1.5 c-0.3-1.1-0.2-2.1,0.9-2.7c2.6-1.4,2.9-3.9,3.2-6.5c0.1-1,0.5-2,0.9-2.9c1.4-3.3,2.8-6.5,4.2-9.8c0.6-1.5,1.2-3,1.8-4.6 c0.6-1.5,1.5-1.7,2.3-0.3c1.5,2.7,2.8,5.6,3.8,8.5c0.6,1.6,0.6,3.2,2.1,4.6c1.2,1.1,1.7,3.1,2.4,4.8c0.7,1.7,1.4,3.4,2.1,5.1 c0.3,0.8,0.8,1.5,1,2.3C496.1,598,495.1,599.3,493.2,599.6z"></path> </svg> 