<?xml version="1.0" encoding="UTF-8"?> <svg xmlns="http://www.w3.org/2000/svg" xmlns:xlink="http://www.w3.org/1999/xlink" version="1.1" id="Layer_1" x="0px" y="0px" viewBox="0 0 1000 1000" style="enable-background:new 0 0 1000 1000;" xml:space="preserve"> <path style="fill:#FFFFFF;" d="M941.2,521.3c0.5,10,0.9,18.3,1.3,27.1c-11.4,1.8-21.3,3.3-35.7,5.5c9.7,5.2,15.3,8.3,22.8,12.3 c-3.6,12.1-7.2,24.6-11,37.4c-5.7,0-10.1,0.7-14.2-0.1c-12.8-2.5-21.6,1.4-25.3,14.1c-5.1,17.5-16.7,18.5-33.6,18 c-78.1-1.9-156.3-1.9-234.5-1.9c-176.7-0.1-353.4,0.1-530.1,0.8c-13,0.1-19.6-3.8-22.1-15.7c-3.5-16-7.7-32-9.8-48.2 c-0.8-6.5,3.2-13.5,5.5-22.5c-19.4-10.2,3.8-21.2,6.8-34.6c-10-0.8-18.8-1.5-29.7-2.4c5.6-19.9,11-38.9,16.3-57.6 c33.6-0.9,28.8,1.3,43.1-26.9c2.5-4.9,10.7-9.6,16.6-10c102.3-6.3,204.5-14.1,306.9-17.2c114.6-3.5,229.4-3.3,344.1-3.6 c47.4-0.1,94.7,2.9,142.1,3.9c12.4,0.2,17.5,5.4,18,17.1c0.6,16.4,2.5,32.8,2.4,49.2c0,6.1-4.1,12.1-7,20c7.5,1.1,18.3,2.7,29.3,4.3 c0,7,0,12.9,0,20.6c-12.6,0.8-24.4,1.5-36.2,2.2c-0.1,1.7-0.2,3.3-0.3,5C917.7,519.3,928.5,520.2,941.2,521.3z M179.2,502.4 c1,1.9,2.9,3.8,2.9,5.7c1.2,23.6,15.3,38.3,35.4,47.3c19.1,8.5,35.2,2.7,50.5-11.7c19.4-18.3,27.8-47.2,17-69.5 c-11.6-23.9-38.6-36.7-63.8-30.4c-25.7,6.5-41.5,28.9-41.6,59.1c-1.9-1.5-4.8-2.5-5.7-4.4c-6-12.2-16.9-13-27.8-11.1 c-12.5,2.2-11.8,12.3-10.8,22.1c0.2,2.2-2.5,4.6-3.9,7c-1.6,0.1-3.2,0.2-4.8,0.3c-2.2-7.9-8-17.2-5.6-23.3c2.5-6.2,13-9.4,20.2-13.6 c2-1.1,5.6-0.1,7-1.5c5.5-5.6,13.4-11.1,14.9-17.9c2.5-11-8.2-14.9-16.9-16.6c-54-10.8-78.3,31.3-69.7,71.3 c7.2,33.4,35.4,49.5,68.4,41.3C168,550.8,177.6,535.6,179.2,502.4z M642.8,513.2c1.4,0,2.9,0,4.3-0.1c0.3,5.7,0.4,11.4,0.9,17.1 c2,20.1,15.7,32.3,33.2,29.6c6.5-1,13-2.4,19.5-3.4c28.3-4.3,50.8-37.4,43.7-64.5c-8.2-31.4-30.3-48.8-62.5-48.9 c-23.4,0-29.9,5.8-34.2,30.1c-0.6,3.7-3,7.1-5.2,11.9c-2.2-10.6-1.8-20.1-6.1-26.4c-4.7-6.7-13.8-10.4-21-15.4 c-4,7.2-9.2,14-11.4,21.7c-1.9,6.7-0.4,14.3-0.4,21.6c-8.6-8.3-11.2-17.9-17-24.9c-6-7.4-15.8-18-22.4-17 c-8.5,1.3-19.1,11.3-22.4,20c-10.6,28-3.8,56.7,2.8,84.8c0.9,3.7,5.7,9,8.8,9.1c4.5,0,9.5-3.4,13.2-6.7c2.4-2.1,2.3-6.7,4.1-9.7 c2.3-3.9,5.2-7.4,7.9-11c3.5,2.7,7.2,5.2,10.4,8.1c2.7,2.4,4.9,5.4,7.2,8.2c13.8,16.5,32.9,13.5,40.4-6.8 C639.8,531.8,640.8,522.3,642.8,513.2z M521.1,565.5c6.7-14.2,15.9-24.4,15.1-33.8c-2-22.1-8.2-44-13.8-65.6 c-3.4-13.1-12.1-21.7-26.8-23.1c-16.6-1.5-33.4,0.3-39.7,17.1c-9.3,24.7-17.4,50.4-21.4,76.3c-2.9,18.3,12.2,26.4,29,17.8 c4.9-2.5,7.5-9.4,11.3-14.2c9.6-12.1,18.3-10.8,26.1,2.5C505,549.8,511.9,555.4,521.1,565.5z M847.6,521.1 c0.2-23.1-3-45.1-17.2-64.6c-12.6-17.3-43.1-20.1-56.2-3.1c-19.3,25.1-25.8,55-25.6,85.9c0,6.3,7.9,14.7,14.4,17.9 c4,2,12.4-3.4,18.1-6.7c3.3-2,5.1-6.5,7.7-9.8c10.5-13.6,18.3-12,27,2.9c3.9,6.7,12.8,10.4,19.5,15.5c4.1-7.2,9.2-14.1,12-21.7 C849.1,532.6,847.6,526.6,847.6,521.1z M390.1,517c21.5-1.8,32.3-7.7,37.4-22.4c4.9-14,5.8-28.6-5.2-40.6 c-15.3-16.5-50.1-16-67.2-0.7c-26.7,23.9-17.7,82.3,15.4,105.9C396.6,554.6,387.3,533.7,390.1,517z M846.8,465 c1.5,0.9,3,1.8,4.4,2.7c1.3,13.1,0.6,26.9,4.6,39.2c2.2,6.8,12.1,11.1,18.6,16.6c4.6-6.2,11.6-11.9,13.3-18.8 c3.9-15.5,6.3-31.6,7.2-47.6c0.4-6.9-2.2-16.6-7.1-20.4c-5-3.8-17.9-5.3-21.4-1.9C858.1,443,853.2,454.7,846.8,465z M894.4,543.3 c-10.3-5.7-16.2-11.1-22.5-11.7c-4-0.4-13,8.5-12.4,9.8c3.3,6.7,7.8,14.8,14,17.4C876.7,560,884.3,551,894.4,543.3z"></path> <circle style="fill:#FFFFFF;" cx="233.8" cy="500.4" r="6.4"></circle> <circle style="fill:#FFFFFF;" cx="388.6" cy="484.6" r="6.4"></circle> <path style="fill:#FFFFFF;" d="M485.2,484.6c0,0-13,17.8-4.7,16.3C488.7,499.3,497.4,500.7,485.2,484.6z"></path> <path style="fill:#FFFFFF;" d="M799,485.8c0,0-13,17.8-4.7,16.3S811.3,502,799,485.8z"></path> <path style="fill:#FFFFFF;" d="M683.8,492.7v11.4c0,0,9.8,1.4,12-2.4C698.1,497.8,691.3,485.4,683.8,492.7z"></path> </svg> 