<?xml version="1.0" encoding="UTF-8"?> <svg xmlns="http://www.w3.org/2000/svg" xmlns:xlink="http://www.w3.org/1999/xlink" version="1.1" id="Layer_1" x="0px" y="0px" viewBox="0 0 1000 1000" style="enable-background:new 0 0 1000 1000;" xml:space="preserve"> <path style="fill:#FFFFFF;" d="M80.5,444.3c12.8-42.4,39.8-75,73.4-102.6c16.3-13.4,33.7-25.9,56.9-14.8c1.6,0.8,3.9,0.1,5.9,0.3 c9.2,0.9,22-1.6,26.9,3.5c14.5,14.8,23,33.9,22.4,55.4c-0.1,2.8-5.1,6-8.4,8.1c-7.4,4.8-15.4,8.8-22.8,13.8 c-9.4,6.4-30.1,1.9-39.3-6.5c-3.4-3.1-12.1-1.6-17.9-0.2c-3.4,0.9-6.5,5.3-8.6,8.8c-3.5,5.8-6,12.2-8.9,18.4 c6.9,2.7,13.9,7.8,20.6,7.6c14.6-0.5,29.1-4.4,43.8-5.7c21.2-2,38.6,6.1,53.5,24.6c0-44.2,0-86.2,0-128.9c21-3.7,40.7-6.9,60.2-10.7 c11.9-2.4,14.4,3.7,16.9,13.6c10.1,39.3,21.3,78.3,32.2,117.4c0.4,1.6,1.3,3,5.1,4.2c0-12.4,0-24.7,0-37.1 c-0.1-24.9,0.5-49.8-0.5-74.7c-0.4-10.7,3.3-14.6,13.4-15.8c19.7-2.4,39.3-5.6,61.3-8.7c-1.9,25.9-4.3,48.6-5,71.4 c-1.5,49.7-2.6,99.5-2.8,149.2c-0.1,11.9-4.5,17.9-15.3,20.6c-10.7,2.8-21.4,5.9-32.3,8.3c-14.1,3.2-32.7-7.2-41.8-22.2 c-6-9.9-12.5-19.6-18.9-29.3c-0.7-1-1.9-1.6-5.5-4.5c0,16.8-0.3,31.1,0.1,45.4c0.3,8.5-2,14.7-11.1,16.7c-13.6,3-27.1,6.3-40.8,8.9 c-11,2.1-14.7-4-14.9-14.1c-0.4-16.2-1.3-32.5-2.2-51.2c-26.2,29.7-54.6,51.9-89.1,61.7c-19,5.4-41.2,1.4-61.7-0.6 c-8.8-0.9-14.3-7.8-9.4-19.3c4.7-10.9,6.6-23,9.2-34.7c2.2-9.9,6-13.6,17.3-9.8c26.7,9,53.2,2.2,69.9-18.8 c-10.3-1.5-18.5-2.5-26.6-3.8c-7.9-1.3-16.6-8-22,4.1c-0.3,0.6-1.7,0.6-2.7,0.9c-23.9,6.9-65.3-6.1-80.8-25.3 C80.5,460,80.5,452.1,80.5,444.3z"></path> <path style="fill:#FFFFFF;" d="M651.4,342.2c23.1-4.8,45.9-9.6,68.9-14.4c6.8,36.3,13.5,71.8,20.2,107.3c0.6,0.1,1.1,0.1,1.7,0.2 c2.9-24.5,5.8-48.9,8.7-73.4c0.9-7.2,2.2-14.4,2.9-21.7c2-21.6,2.3-21.8,23.4-22c7.4-0.1,15,0.4,22-1.3c12.6-3.2,15.5,3.3,16.7,13.6 c4.3,37.1,8.8,74.3,15.4,112.1c1.7-9.2,3.7-18.3,5.1-27.6c4.1-27.4,7.8-54.8,12.1-82.1c1.5-9.7,5.4-16.1,17.7-12.1 c10.1,3.3,20.9,4.4,31.4,6.6c18.4,3.8,22.6,12.1,17.4,31.4c-7,25.9-14.4,51.9-19.9,78.2c-8,38-13.9,76.4-22,114.4 c-1.3,6-8.7,13.3-14.7,15.1c-16.2,4.6-33.1,8.7-49.7,8.7c-11.1,0-18.1-10.5-19.2-22.9c-1.5-17-3.6-33.9-8.4-50.9 c-3.4,23.4-6.8,46.8-10,68.4c-4.7,1.4-8.9,2.1-12.5,4c-10.4,5.6-49.6,3.3-55.1-5.9c-5.7-9.4-8.2-21-10.6-32 c-7.3-32.5-13.9-65.2-20.7-97.8c-0.7-3.3-0.9-6.6-4.1-10.1c-0.7,14.6-1.1,29.3-2.3,43.9c-3.2,38.4-20,69-51.1,93 c-14.2,10.9-30.3,9.7-45.6,13.8c-9.2,2.4-19.1,2.5-28.8,2.9c-4.1,0.2-9.3-0.2-12.3-2.5c-12.2-9.2-23.6-19.5-35.5-29.1 c-19.3-15.6-27.2-36.1-29.7-60.3c-4.2-41.8,1-81.3,21.9-118.6c24.5-43.6,71.9-61.6,119-44.2c19.6,7.2,31,23.1,42.5,39 c2.4,3.3,4.9,6.6,9.9,13.3C654.2,364.5,652.9,354.1,651.4,342.2z M529,461.9c0,6.2,0,8.1,0,10.1c0.2,22.1,11.1,36.6,29.5,39.3 c19.2,2.8,34.6-6.7,39.3-28.9c6.3-30.3-0.3-59.4-17.7-85.2c-6.4-9.5-16.6-9.6-25.1-1.3C535.3,415.3,532,440.7,529,461.9z"></path> <path style="fill:#FFFFFF;" d="M577.2,660.6c0,11.2-2.6,19.8-15.8,18c-10.4-1.5-23.1,0.3-30.7-5.1c-7.6-5.4-10-17.8-15.9-29.6 c-7.1-0.8-7.1-0.8-6,34.4c-5.1,1.1-10.6,2.2-14.7,3.1c-10.9-11.2,8.8-33.7-20.8-37.3c3.7-4.9,6.8-11.7,8.9-11.4 c13.2,1.8,28-9.9,41.6,3.5c13.9-18.2,34.2-0.1,52.5-8.5c0,9.1,0,15.6,0,25.6c10.1-8.3,0.9-32.4,23.5-23c0,14,0,28.9,0,44.7 c-3.8,1.3-7.8,2.6-12.8,4.3c-2-6.6-3.9-12.5-5.7-18.4C580,660.7,578.6,660.7,577.2,660.6z M558.9,664.8c-0.4-8.4-0.7-15.8-1.1-24.7 c-8.3,5.4-23.8-3.6-22.3,14C536.8,670.1,550.1,661.5,558.9,664.8z"></path> <path style="fill:#FFFFFF;" d="M463.2,630.5c-32.4-6.5-22.3,23.4-33,36.9c-3.7-3.4-7.1-6.5-8.2-7.6c3.2-8.4,5.6-14.8,8-21.1 c-6.8-2.5-13.5-6.7-20.5-7.3c-12.9-1-25.9,0.6-38.9,0.2c-16.9-0.6-19.5,13.4-24.9,23.2c-9.3,0-17.3,0-25.3,0 c-0.2-1.2-0.5-2.4-0.7-3.5c8.7-1.6,17.5-3.3,26.7-5c-5.4-15.2-14.2-16-24.3-10.4c-5.5,3-10.8,7.2-14.6,12c-3,3.8-3.5,9.4-5.1,14.2 c4.8,1.5,9.6,3.9,14.5,4.3c5.2,0.4,10.6-1,15.9-1.6c0.2,1,0.3,2,0.5,3c-7.8,3.4-15.5,6.9-23.3,10.3c0.8,1.6,1.5,3.3,2.3,4.9 c15.3,4.2,26.5-4.2,37.3-14.2c9.4,10.5,19.4,17.7,33.5,9.7c1.1-0.6,2.8-0.9,4-0.6c16.8,4.2,16.8,4.2,18.1-12.8 c7.6,11.1,16.8,15.8,29.4,14.2c5.3-0.7,11.2,3.5,14.5-4.7c0.5-1.3,7.5-0.5,11.3,0.1c5.7,0.9,11.4,2.4,19.5,4.2 C473.4,660.1,468.3,645.1,463.2,630.5z M387.8,669.8c-8.5-5.5-23.5,4.1-24.7-12.9c-1.3-17.8,16.1-7.7,24.7-15.9 C387.8,651.8,387.8,660,387.8,669.8z M409.7,651.9c-3,3.7-13.9-2.6-7.2-6.7C409.3,641,412.7,648.2,409.7,651.9z M459.4,656.9 c-1.5,2-8.7-0.5-12,0c-3.4,0.5,2.6-11,2.6-11C457.9,642.2,460.9,655,459.4,656.9z"></path> <path style="fill:#FFFFFF;" d="M676.2,654.9c3.1-9,8.6-16.9,6.5-21.2c-2.1-4.4-11.6-7-18-7.3c-7.3-0.3-14.8,4.3-22.1,4.1 c-12.4-0.4-24.8-2.8-40.3-4.8c1.4,20.9,2.5,36.6,3.6,52.3c12.1-1.7,24.9-7.6,32.8-3.7c16.7,8.1,19.4,0.8,20.2-13.1 c16.3,17,16.3,17,28.2,5.1C682.6,661.7,678.1,657,676.2,654.9z M641.4,638.1c0,4.8,0,9.1,0,13.4c-7.8-4.1-12.7-6.7-18.4-9.7 C628.5,640.7,634.1,639.6,641.4,638.1z M623.1,661.1c-0.2-1-0.4-2.1-0.7-3.1c4.8-1.5,9.6-2.9,18.9-5.8c0,2.6,0,5.1,0,7.7 C635.3,660.4,629.2,660.8,623.1,661.1z M655.5,648.5c-2.3,1,0-8.4,0-8.4c7.9-4.7,11.7,1.3,11.7,4.2S657.8,647.4,655.5,648.5z"></path> </svg> 