<?xml version="1.0" encoding="UTF-8"?> <svg xmlns="http://www.w3.org/2000/svg" xmlns:xlink="http://www.w3.org/1999/xlink" version="1.1" id="Layer_1" x="0px" y="0px" viewBox="0 0 500 500" style="enable-background:new 0 0 500 500;" xml:space="preserve"> <g> <g> <path style="fill:#FFFFFF;" d="M444.7,78.6l-20.9-1.8c0.8,3.2,1.2,6.6,1.2,10v338.3c0,24.4-19.8,44.2-44.2,44.2h-13.4l42.8,3.7 c15.9,1.4,29.8-10.3,31.2-26.2l29.5-337C472.3,94,460.5,80,444.7,78.6z"></path> <path style="fill:#FFFFFF;" d="M409.6,425.1V86.8c0-15.9-12.9-28.8-28.8-28.8h-17.8c0.8,2.8,1.4,5.7,1.6,8.7l29.5,337 c2.1,24.3-15.9,45.8-40.2,47.9l-27.2,2.4h54.1C396.7,453.9,409.6,441,409.6,425.1z"></path> <path style="fill:#FFFFFF;" d="M343.9,385L285.2,51.9c-2.8-15.7-17.7-26.2-33.4-23.4L53,63.5c-15.7,2.8-26.2,17.7-23.4,33.4 l58.7,333.2c2.8,15.7,17.7,26.2,33.4,23.4l198.8-35C336.2,415.7,346.7,400.7,343.9,385z M261.1,277.7C249,295,227.9,302,208.6,297 c1.4,4.5,2.6,7.8,3.4,9.2c4.3,7.9,19.1,14,16,21c-3.1,7.1-9-0.6-25.6,2.3c-16.5,2.9-19.5,12.1-24.8,6.5 c-5.3-5.6,6.5-16.3,7.8-25.2c0.2-1.6,0.2-5.1,0-9.8c-16.4,11.3-38.7,11.9-56-0.2c-22.2-15.5-27.6-46.1-12-68.3 c14.9-21.2,54.9-73.5,54.9-73.5s55.5,35.4,76.8,50.3C271.3,225,276.7,255.5,261.1,277.7z"></path> <path style="fill:#FFFFFF;" d="M378.7,405L349.3,68c-1.4-15.9-15.4-27.6-31.2-26.2l-19.2,1.7c0.6,1.9,1.1,3.8,1.5,5.8l58.7,333.2 c4.2,24-11.9,47-35.9,51.2l-58.6,10.3l88-7.7C368.4,434.8,380.1,420.8,378.7,405z"></path> </g> </g> </svg> 