<?xml version="1.0" encoding="UTF-8"?> <svg xmlns="http://www.w3.org/2000/svg" xmlns:xlink="http://www.w3.org/1999/xlink" version="1.1" id="katman_1" x="0px" y="0px" viewBox="0 0 512 509.3" style="enable-background:new 0 0 512 509.3;" xml:space="preserve"> <style type="text/css"> .st0{fill:#FFFFFF;} </style> <path class="st0" d="M36.5,353.3c11.3,25.5,27,48.8,46.3,68.9L148,357c-10.9-11.6-19.8-24.9-26.4-39.3L36.5,353.3z"></path> <path class="st0" d="M256,176.1c2.9,0,5.2-2.3,5.2-5.2s-2.3-5.2-5.2-5.2s-5.2,2.3-5.2,5.2S253.1,176.1,256,176.1z"></path> <path class="st0" d="M117.3,204.5l-85.3-35c-10,26-15.4,53.6-15.9,81.5h92.1C108.7,235.1,111.8,219.4,117.3,204.5z"></path> <path class="st0" d="M117.7,308.4c-5.8-15.2-9-31.2-9.5-47.4H16.1c0.5,28.4,6.1,56.6,16.5,83L117.7,308.4z"></path> <path class="st0" d="M251,403.8c-15.9-0.5-31.6-3.6-46.5-9.1l-35,85.3c26,10,53.6,15.4,81.5,15.9V403.8z"></path> <path class="st0" d="M169.4,262.8c2.9,0,5.2-2.3,5.2-5.2c0-2.9-2.3-5.2-5.2-5.2s-5.2,2.3-5.2,5.2l0,0 C164.2,260.4,166.5,262.7,169.4,262.8z"></path> <path class="st0" d="M342.5,32c-26-10-53.6-15.4-81.5-15.9v92.1c15.9,0.5,31.6,3.6,46.5,9.1L342.5,32z"></path> <path class="st0" d="M403.8,251h92.1c-0.5-28.4-6.1-56.6-16.5-83l-85.1,35.6C400.1,218.7,403.3,234.8,403.8,251z"></path> <path class="st0" d="M356.9,148l65.2-65.2c-20.5-19.7-44.3-35.7-70.4-47l-35,85.3C331.5,127.8,345.1,136.9,356.9,148z"></path> <path class="st0" d="M390.4,194.3l85.1-35.6c-11.3-25.5-27-48.8-46.3-68.9L364,155.1C374.9,166.7,383.8,179.9,390.4,194.3z"></path> <path class="st0" d="M148,155.1L82.8,89.9c-19.7,20.5-35.7,44.3-47,70.4l85.3,35C127.8,180.5,136.9,166.9,148,155.1z"></path> <path class="st0" d="M251,108.2V16.1c-28.4,0.5-56.6,6.1-83,16.5l35.6,85.1C218.7,111.9,234.8,108.7,251,108.2z"></path> <path class="st0" d="M194.3,121.6l-35.6-85.1c-25.5,11.3-48.8,27-68.9,46.3L155,148C166.7,137.1,179.9,128.2,194.3,121.6z"></path> <path class="st0" d="M195.3,390.9c-14.8-6.7-28.4-15.8-40.2-26.9l-65.2,65.2c20.5,19.7,44.3,35.7,70.4,47L195.3,390.9z"></path> <circle class="st0" cx="368.2" cy="431.7" r="15.4"></circle> <path class="st0" d="M261,403.8v92.1c28.4-0.5,56.6-6.1,83-16.5l-35.6-85.1C293.3,400.1,277.2,403.3,261,403.8z"></path> <path class="st0" d="M422.1,429.2L356.9,364c-11.6,10.9-24.9,19.8-39.3,26.4l35.6,85.1C378.7,464.2,402,448.5,422.1,429.2z M342.8,431.7c0-14,11.4-25.4,25.4-25.4s25.4,11.4,25.4,25.4s-11.4,25.4-25.4,25.4l0,0C354.2,457.1,342.8,445.7,342.8,431.7z"></path> <path class="st0" d="M476.2,351.7l-85.3-35c-6.7,14.8-15.8,28.4-26.9,40.2l65.2,65.2C448.9,401.6,464.9,377.8,476.2,351.7z"></path> <path class="st0" d="M118.1,256c0,76,61.9,137.9,137.9,137.9S393.9,332,393.9,256S332,118.1,256,118.1S118.1,180,118.1,256z M169.4,242.3c6.5,0,12.2,4.1,14.3,10.2h36.8c1.6-16.4,14.2-29.5,30.5-31.8v-35.5c-7.9-2.8-12.1-11.4-9.4-19.4s11.4-12.1,19.4-9.4 s12.1,11.4,9.4,19.4c-1.5,4.4-5,7.8-9.4,9.4v35.5c16.3,2.3,28.8,15.5,30.5,31.8h36.8c2.8-7.9,11.4-12.1,19.4-9.4 c7.9,2.8,12.1,11.4,9.4,19.4s-11.4,12.1-19.4,9.4c-4.4-1.5-7.8-5-9.4-9.4H291c-2.8,15-14.9,26.6-30,28.7v38.5 c7.9,2.8,12.1,11.4,9.4,19.4c-2.8,7.9-11.4,12.1-19.4,9.4s-12.1-11.4-9.4-19.4c1.5-4.4,5-7.8,9.4-9.4v-38.5 c-15.1-2.2-27.2-13.7-30-28.7h-37.3c-2.8,7.9-11.4,12.1-19.4,9.3c-7.9-2.8-12.1-11.4-9.3-19.4C157.2,246.4,162.9,242.3,169.4,242.3 L169.4,242.3z"></path> <circle class="st0" cx="256" cy="344.2" r="5.2"></circle> <path class="st0" d="M495.9,261h-92.1c-0.5,15.9-3.6,31.6-9.1,46.5l85.3,35C490,316.4,495.4,288.9,495.9,261z"></path> <circle class="st0" cx="256" cy="256" r="4"></circle> <path class="st0" d="M256,281.6c14.2,0,25.6-11.5,25.6-25.6c0-14.2-11.5-25.6-25.6-25.6c-14.2,0-25.6,11.5-25.6,25.6 S241.9,281.6,256,281.6z M256,242c7.7,0,14,6.3,14,14c0,7.7-6.3,14-14,14c-7.7,0-14-6.3-14-14C242,248.3,248.3,242,256,242z"></path> <path class="st0" d="M342.6,262.8c2.9,0,5.2-2.3,5.2-5.2c0-2.9-2.3-5.2-5.2-5.2c-2.9,0-5.2,2.3-5.2,5.2 C337.4,260.4,339.7,262.7,342.6,262.8z"></path> </svg> 