<?xml version="1.0" encoding="UTF-8"?> <svg xmlns="http://www.w3.org/2000/svg" xmlns:xlink="http://www.w3.org/1999/xlink" version="1.1" id="katman_1" x="0px" y="0px" viewBox="0 0 66 82.5" style="enable-background:new 0 0 66 82.5;" xml:space="preserve"> <g> <path style="fill:#FFFFFF;" d="M11.3,48.9H4.6c-0.6,0-1,0.5-1,1v6.7c0,0.6,0.5,1,1,1h6.7c0.6,0,1-0.5,1-1V50 C12.4,49.4,11.9,48.9,11.3,48.9z M5.5,56.6c-0.5,0-0.8-0.3-0.8-0.8S5.1,55,5.5,55c0.5,0,0.8,0.3,0.8,0.8S6,56.6,5.5,56.6z M5.5,51.8c-0.5,0-0.8-0.3-0.8-0.8s0.3-0.8,0.8-0.8c0.5,0,0.8,0.3,0.8,0.8C6.3,51.4,6,51.8,5.5,51.8z M8,54.2 c-0.5,0-0.8-0.3-0.8-0.8s0.3-0.8,0.8-0.8s0.8,0.3,0.8,0.8C8.8,53.8,8.4,54.2,8,54.2z M10.4,56.6c-0.5,0-0.8-0.3-0.8-0.8 S9.9,55,10.4,55c0.5,0,0.8,0.3,0.8,0.8C11.2,56.3,10.9,56.6,10.4,56.6z M10.4,51.8c-0.5,0-0.8-0.3-0.8-0.8s0.3-0.8,0.8-0.8 c0.5,0,0.8,0.3,0.8,0.8C11.2,51.4,10.9,51.8,10.4,51.8z"></path> <path style="fill:#FFFFFF;" d="M19.8,38.6c-0.6,0-1.2,0.3-1.5,0.8c-0.1,0.1-0.3,0.1-0.3,0c-0.3-0.5-0.9-0.8-1.5-0.8 c-1,0-1.9,0.8-1.9,1.9c0,2.1,2.9,4.5,3.6,5.1c0.7-0.6,3.6-3.1,3.6-5.1C21.8,39.5,20.9,38.6,19.8,38.6z"></path> <path style="fill:#FFFFFF;" d="M5.2,34.2L3.9,35c-0.7,0.5-0.8,1.3-0.5,2L8,44.2C8.1,44.1,5.2,34.3,5.2,34.2z"></path> <path style="fill:#FFFFFF;" d="M9.5,47.3V31l-3,0.7c-0.7,0.2-1.2,1-0.9,1.7C5.5,33.4,6,35.2,9.5,47.3z"></path> <path style="fill:#FFFFFF;" d="M13.6,30.9c-0.2,0-0.3,0.1-0.5,0.2c-0.1,0.1-0.3,0.1-0.3,0c-0.1-0.1-0.2-0.2-0.5-0.2 c-0.3,0-0.6,0.2-0.6,0.6c0,0.6,0.8,1.4,1.3,1.7c0.5-0.3,1.3-1.2,1.3-1.7C14,31.3,13.8,30.9,13.6,30.9z"></path> <path style="fill:#FFFFFF;" d="M26.7,36.9v16.7l3-0.9c0.8-0.2,1.2-1,0.9-1.7C29,45.1,26.8,36.9,26.7,36.9z"></path> <path style="fill:#FFFFFF;" d="M24.8,29.4H11.5c-0.8,0-1.4,0.7-1.4,1.4v17.7h1.4c0.8,0,1.5,0.7,1.5,1.5v5h12c0.8,0,1.4-0.7,1.4-1.4 V30.8C26.2,30,25.6,29.4,24.8,29.4z M13,33.8h-0.1h-0.1c-0.1-0.1-1.5-1.3-1.5-2.2c0-0.6,0.5-1,1-1c0.2,0,0.5,0.1,0.7,0.2 c0.2-0.1,0.5-0.2,0.7-0.2c0.6,0,1,0.5,1,1C14.6,32.6,13.2,33.7,13,33.8z M18.3,46.1h-0.1h-0.1C18,46,14.1,43,14.1,40.5 c0-1.3,1-2.3,2.3-2.3c0.7,0,1.3,0.2,1.7,0.7c0.5-0.5,1-0.7,1.7-0.7c1.3,0,2.3,1,2.3,2.3C22.3,43.1,18.4,46,18.3,46.1z M23.5,53.8 h-0.1h-0.1c-0.1-0.1-1.5-1.3-1.5-2.2c0-0.6,0.5-1,1-1c0.2,0,0.5,0.1,0.7,0.2c0.2-0.1,0.5-0.2,0.7-0.2c0.6,0,1,0.5,1,1 C25.2,52.7,23.8,53.7,23.5,53.8z"></path> <path style="fill:#FFFFFF;" d="M32.7,47.4l-4.3-6.6l2.7,9.3l1.3-0.8C33,48.9,33.2,48.1,32.7,47.4z"></path> <path style="fill:#FFFFFF;" d="M24.1,51c-0.2,0-0.3,0.1-0.5,0.2c0,0.1-0.1,0.1-0.2,0.1c-0.1,0-0.1,0-0.2-0.1 C23.1,51.1,23,51,22.7,51c-0.3,0-0.6,0.2-0.6,0.6c0,0.6,0.8,1.4,1.3,1.7c0.5-0.3,1.3-1.2,1.3-1.7C24.6,51.3,24.4,51,24.1,51z"></path> </g> <g> <path style="fill:#FFFFFF;" d="M36.2,30.6h-2.5V28h8.5v2.6h-2.5v7.7h-3.5V30.6z"></path> <path style="fill:#FFFFFF;" d="M43,33.1c0-4.1,0-5.3,4.6-5.3s4.6,1.2,4.6,5.3c0,4.1-0.1,5.3-4.6,5.3S43,37.2,43,33.1z M48.6,33.1 c0-2.7,0-2.8-1.1-2.8c-1,0-1,0.1-1,2.8c0,2.7,0,2.8,1,2.8C48.6,35.9,48.6,35.8,48.6,33.1z"></path> <path style="fill:#FFFFFF;" d="M53.5,28h5.3c2.7,0,3.2,1.2,3.2,3.6c0,2.2-0.3,3.6-3.2,3.6H57v3.1h-3.5V28z M57.5,32.7 c0.9,0,1-0.1,1-1.1c0-1.1-0.1-1.2-1-1.2H57v2.3H57.5z"></path> </g> <g> <path style="fill:#FFFFFF;" d="M39.1,53.8h7.4V58H33.6v-2.6c0-3.6,0-5.4,2.6-6.4c1.3-0.5,2.4-1,3.4-1.4c1.1-0.5,1.2-0.6,1.2-1.6 c0-1-0.4-1.1-1.9-1.1c-1.1,0-3,0.1-4.9,0.4v-3.9c1.7-0.3,4.3-0.6,6.3-0.6c3.4,0,6.3,0.6,6.3,4.9c0,3.2-1.1,4.5-2.6,5.1 c-1.1,0.4-2.8,1.1-3.9,1.5c-0.4,0.1-0.7,0.3-0.8,0.5C39.1,53.1,39.1,53.4,39.1,53.8z"></path> <path style="fill:#FFFFFF;" d="M48.7,49.6c0-7.7,0.7-8.6,7-8.6c6.4,0,7,1,7,8.6c0,7.7-0.7,8.6-7,8.6C49.4,58.2,48.7,57.2,48.7,49.6 z M57,49.6c0-4.4,0-4.5-1.3-4.5c-1.3,0-1.3,0.1-1.3,4.5c0,4.4,0,4.5,1.3,4.5C57,54.1,57,54,57,49.6z"></path> </g> </svg> 