<?xml version="1.0" encoding="UTF-8"?> <svg xmlns="http://www.w3.org/2000/svg" xmlns:xlink="http://www.w3.org/1999/xlink" version="1.1" id="Layer_1" x="0px" y="0px" viewBox="0 0 1000 1000" style="enable-background:new 0 0 1000 1000;" xml:space="preserve"> <path style="fill:#FFFFFF;" d="M818.5,560.9c16-5.4,30.7-10.3,47.1-15.8c-1.1,3.6-1.6,5.9-2.5,8.1c-21.1,52.1-42.2,104.1-63.1,156.3 c-2.2,5.4-5.1,8.5-10.7,10.5c-75.6,27.4-151.1,55.1-226.7,82.6c-4.9,1.8-10.4,2.7-15.5,2.5c-42.3-1.4-84.6-2.8-126.9-4.9 c-8.1-0.4-16.1-3.4-23.9-6.1c-47.9-16.3-95.6-32.9-143.6-49c-7-2.4-11.3-6.3-14.9-12.5c-20.9-36.4-42.3-72.6-63.3-109 c-2-3.5-3.9-7.4-4.5-11.4c-10.4-62.1-20.7-124.2-31.3-188.7c16,7.5,30.7,14.4,48.2,22.7c0-19.8-0.2-37.8,0.1-55.7 c0.3-20.1,0.8-40.2,1.6-60.4c0.1-3.4,1.4-7,3.1-9.9c20.3-35.8,40.4-71.7,61.5-107c5.2-8.6,13.6-15.4,21-22.7 C305.9,159.4,338,128.2,370,97c1.2-1.2,2.6-2.3,4.7-4.1c7.7,21,15.2,41.3,22.7,61.7c0.6,0,1.3-0.1,1.9-0.1c10.9-40,21.7-80,32.9-121 c4.1,2,7.5,3.4,10.8,5.2c46.2,25.2,92.5,50.3,138.6,75.7c4.3,2.4,8.3,5.7,11.7,9.3c25.5,27.1,51,54.4,76.2,81.8 c4.1,4.4,7.4,5.9,13.6,3.6c17.1-6.5,34.7-11.9,51.9-18.1c5.4-1.9,8.2-1.6,10.9,4.1c30.9,65.2,62,130.3,92.9,195.5 c1.6,3.5,2.2,8,1.7,11.8c-6.7,48.9-13.8,97.8-20.7,146.7C819.3,552.7,819,556.1,818.5,560.9z M291.5,483.1c48.4-2,95.5-4,144.5-6.1 c3.6,80.9,7.2,160.4,10.7,240.8c38.1,0,77.1,0,118.7,0c3.9-81.3,7.7-162.7,11.6-244.4c45.4-1.3,90.5-2.6,136-3.9 c1.6-32.2,3.3-63.2,4.7-94.3c0.7-15.5,3.3-31.2-2.7-45.9c-142.6,2.4-285.1,4.8-428.5,7.3C288.2,385,289.8,433.3,291.5,483.1z"></path> <path style="fill:#FFFFFF;" d="M379.1,935.7c0.6,10.3,1,20.7,1.9,31c0.4,5.1-1.4,6.7-6.4,6.8c-18.4,0.4-18.5,0.5-19.1-18.2 c-0.8-25.1-1.2-50.3-2.3-75.4c-0.3-6.8,1.6-10.1,8.6-9.9c2.6,0,5.3-0.3,7.9-0.9c5.4-1.2,8.2,1.1,9.9,6.1 c4.2,12.3,8.7,24.4,15.1,36.5c-0.6-10-1.4-19.9-1.5-29.9c-0.1-4.1,0.5-11.5,2.1-11.9c6.4-1.6,13.3-1.2,20.1-1.1 c0.8,0,2.1,3.3,2.1,5.1c0.6,31.1,1.2,62.1,1.2,93.2c0,2.1-3.7,5.3-6.2,6.1c-3.5,1.1-7.6,0.2-11.5,0.5c-5.3,0.5-8.1-1.8-9.7-6.8 c-3.5-10.6-7.4-21.1-11.1-31.6C380,935.5,379.6,935.6,379.1,935.7z"></path> <path style="fill:#FFFFFF;" d="M846.6,919.4c6.8,15.1,12.8,28.4,18.8,41.7c2.8,6.1,0.9,9.2-6,10.1c-17.2,2.2-17,2.4-24.1-13.7 c-2.6-5.8-6.1-11.2-9.2-16.7c-0.9,0.2-1.7,0.4-2.6,0.6c-0.3,6.5-1.2,13-0.8,19.4c0.5,8.2-2.8,11.4-10.9,12.2 c-14.2,1.4-14.4,1.6-14.8-12.5c-0.7-27.5-1.3-54.9-2.3-82.4c-0.2-6.7,2.1-9.3,9-9.9c19.5-1.7,19.4-2,18.9,17.7c-0.2,6.7,0,13.5,0,22 c9.2-8.3,11.9-17.8,10.9-27.8c-1-9.5,2.6-12.3,11.3-13.1c17-1.6,17.9-0.8,17.5,16.4C862,898.3,855.7,910.6,846.6,919.4z"></path> <path style="fill:#FFFFFF;" d="M243,940.3c0.4,9.4,0.6,18.8,1.4,28.1c0.5,6.1-1.4,8.4-7.7,8.6c-17.8,0.6-17.8,0.9-18.5-16.8 c-1-27.5-1.7-55-3-82.4c-0.3-7.3,1.9-9.8,9.4-9.9c16.7-0.3,16.6-0.7,17.3,16.2c0.4,9.7,1,19.5,1.6,29.2c0,0.6,0.4,1.1,1.6,4.5 c2.6-3.5,5.5-5.7,5.7-8c0.5-9.7,0.5-19.5,0.2-29.3c-0.2-6.8,1.9-9.7,9.2-9.1c19.7,1.5,17.3-2,17.3,18.2c0.1,25.1-0.2,50.3,0.2,75.4 c0.1,7.7-1.9,10.5-10,10c-16.7-1.1-16.7-0.7-17.4-17.4c-0.2-4.1-0.1-8.3-0.7-12.4c-0.4-2.2-2.1-4.2-3.2-6.3 C245.1,939.5,244.1,939.9,243,940.3z"></path> <path style="fill:#FFFFFF;" d="M684.1,973.7c-7.3,0-13.8,0.4-20.1-0.3c-1.9-0.2-4-3.4-5.1-5.7c-3.8-8.3-7.2-16.8-10.7-25.2 c-1.1,0.3-2.3,0.7-3.4,1c0,7.3-0.2,14.5,0.1,21.8c0.2,5.6-1.8,8.2-7.5,8.4c-3.2,0.1-6.4,0.9-9.7,1.3c-5,0.7-7.2-1.7-7.3-6.4 c-0.6-30.8-2.2-61.6-1.4-92.3c0.4-12.9,13.2-4.4,20.1-6.7c4.8-1.6,8.3,0.7,8,7c-0.5,9.4-0.1,18.9-0.1,30.7 c7.2-10.6,10.1-20.7,11.8-31.2c1.3-7.7,5.7-9.9,18.1-9.2c7.7,0.4,5.9,6,5.9,10.4c0,15.2-4.6,29.2-13.4,41.5c-3,4.2-3.3,6.8,0,11.4 C678.5,942.5,683.2,956.6,684.1,973.7z"></path> <path style="fill:#FFFFFF;" d="M345.2,903.9c-0.9,17.8-1.2,30.6-2.2,43.2c-1.5,18.8-11.7,27.7-30.3,27.2 c-16.4-0.4-26.4-10.8-26.9-28.7c-0.7-23.6-0.8-47.3-1.3-70.9c-0.1-6.4,2.5-8.3,8.7-7.6c18.6,2.1,18.4,2,18.1,20.9 c-0.3,17.7-0.2,35.5-0.3,53.2c0,1.2-0.3,2.5,0.1,3.5c1.4,3,3.1,5.8,4.7,8.6c1.5-2.8,4.3-5.6,4.4-8.5c0.4-22.5,0.2-44.9,0.4-67.4 c0-3.9,0.6-10.6,2.4-11.1c6-1.9,12.7-1.9,19.1-1.7c1.1,0,2.9,4.7,3,7.2C345.4,884.2,345.2,896.6,345.2,903.9z"></path> <path style="fill:#FFFFFF;" d="M575.5,938.4c0,8.5-0.1,17,0,25.6c0,4.3-0.6,8.5-6,7.3c-5.5-1.2-14.9,3.5-15.2-7.1 c-0.9-29.8-1.2-59.7-1.3-89.5c0-2.3,3.7-6.4,6-6.7c10.2-1,20.7-2,30.8-0.8c11.4,1.4,19.4,8.8,21.8,20.4c3,14.5,3.6,28.8-7.2,41.1 c-1.4,1.5-1.6,4.9-1.1,7.1c2.1,9.2,4.4,18.4,7.1,27.4c1.7,5.9-0.3,8-6.2,8.5c-13.4,1.3-13.4,1.5-16.6-12.1c-1.4-6-2.6-12.1-4.6-18 c-0.7-2-3.4-3.3-5.1-5C577,937.3,576.2,937.9,575.5,938.4z M575.9,914.9c11.8-1.3,16.5-6.2,15.3-14.9c-1.3-9-5.9-12.4-15.3-10.8 C575.9,897.6,575.9,906,575.9,914.9z"></path> <path style="fill:#FFFFFF;" d="M428.8,919.9c0-13.6-0.2-27.2,0.1-40.8c0.2-13.5,0.4-13.6,14.3-13c2.7,0.1,5.3,0.3,8,0.6 c23.5,2.6,35.2,14.5,35.9,38.1c0.3,12.3-0.6,24.8-1.9,37c-1.4,13.6-9.9,22.1-22.6,25.6c-8.7,2.4-18,2.9-27,4.1 c-6.8,0.9-9.5-1.9-9.3-9.1c0.4-14.2,0.1-28.4,0.1-42.5C427.1,919.9,428,919.9,428.8,919.9z M451.7,948.4 c13.4-6.3,10.5-19.7,11.5-30.7c0.9-10.1,2.5-21.6-8.1-28.1c-1.1,0.2-2.3,0.4-3.4,0.6C451.7,909.4,451.7,928.6,451.7,948.4z"></path> <path style="fill:#FFFFFF;" d="M750,924.1c0,7.7-0.8,15.5,0.4,23c0.5,3.2,5.2,5.8,7.9,8.7c1.9-3.1,5.5-6.2,5.6-9.4 c0.3-12.2,9.6-6.8,15.1-8c6.4-1.4,7.8,3,8,8.5c0.4,14.8-7.1,24-21.8,26.5c-25.1,4.2-39.6-7.1-40.1-32.7c-0.3-15.9,0.5-32,2-47.8 c1.4-15.2,11.7-24.4,26.3-25c20.2-0.9,32.6,6.9,36.4,22.5c1.6,6.7,0.4,10.5-7.5,9.9c-2.9-0.2-5.9-0.1-8.9,0 c-4.7,0.2-7.7-0.8-8.5-6.5c-0.3-2.2-4.4-5.2-7-5.4c-1.9-0.1-5.5,3.5-5.8,5.8c-1.4,9.9-1.8,20-2.6,30 C749.6,924.1,749.8,924.1,750,924.1z"></path> <path style="fill:#FFFFFF;" d="M519.6,891.3c0,8,0,14.7,0,20.6c6,4.8,16.6-5.1,18.7,6.6c0.8,4.6-0.7,11.4-3.8,14.4 c-2.9,2.7-9.3,1.7-14.4,2.3c-0.2,1.6-0.6,2.8-0.5,3.9c0.3,5,0.7,10,1.2,16.2c6.4-0.4,12.5-0.7,18.5-1.3c5-0.5,8.6,0.7,7.7,6.5 c-0.8,5.4,3.5,13.8-7,14.1c-12.7,0.3-25.5,0.4-38.2-0.2c-2.2-0.1-6.1-4-6.1-6.2c-0.9-30.8-1.3-61.5-1.4-92.3c0-1.9,3.7-5.4,5.9-5.5 c12.4-0.9,24.8-0.9,37.3-1.4c5.1-0.2,7.9,1.7,7.9,7.1c0,3,1.3,6.2,0.4,8.8c-0.9,2.6-3.6,6-5.9,6.3 C533.5,891.9,526.9,891.3,519.6,891.3z"></path> <path style="fill:#FFFFFF;" d="M160.6,894c-1.8-0.3-2.9-0.6-4.1-0.6c-17.4-0.4-17.7-0.5-16.9-17.6c0.1-2.3,3.6-6.4,5.8-6.5 c18.6-1.1,37.2-1.7,55.9-1.8c2.1,0,4.3,3.5,6.4,5.5c0.2,0.1,0.1,0.6,0.1,0.9c2.7,17.6,2.4,17.9-18.1,19.9c0,10.2-0.1,20.4,0,30.6 c0.2,13.3,0.5,26.6,1.1,39.9c0.3,6.4-2,9.1-8.6,9.1c-19.2,0.2-17.7,4-18.6-16.4C162.7,935.9,161.6,915,160.6,894z"></path> <path style="fill:#FFFFFF;" d="M690.8,918.1c0-13.9,0.3-27.8-0.1-41.6c-0.2-6.6,1.9-9.3,8.8-10c17.6-1.7,18-5.6,18,16.4 c0,25.1,0.4,50.2,1.3,75.3c0.3,9-2.7,11.6-11.4,12c-18.5,0.8-16.5,2.7-16.6-15.7C690.8,942.4,690.8,930.3,690.8,918.1z"></path> </svg> 