<?xml version="1.0" encoding="UTF-8"?> <svg xmlns="http://www.w3.org/2000/svg" xmlns:xlink="http://www.w3.org/1999/xlink" version="1.1" id="Layer_1" x="0px" y="0px" viewBox="0 0 500 500" style="enable-background:new 0 0 500 500;" xml:space="preserve"> <g> <path style="fill:#FFFFFF;" d="M254.5,446.1c-4.5,0-8.4-0.6-12.9-2.6l-174-67c-18-7.1-27.7-27.7-20.6-45.8l67-174 c3.2-9,10.3-16.1,18.7-20c9-3.9,18.7-3.9,27.1-0.6l174,67c9,3.2,16.1,10.3,20,18.7c3.9,9,3.9,18.7,0.6,27.1l-67,174 C282.9,437,269.3,446.1,254.5,446.1z M147.5,145c-3.2,0-6.4,0.6-9.7,1.9c-5.8,2.6-10.3,7.7-12.9,13.5l-67,174 c-4.5,12.2,1.3,26.4,14.2,31.6l174,67c12.2,4.5,26.4-1.3,31.6-14.2l67-174c2.6-5.8,1.9-12.9-0.6-18.7s-7.7-10.3-13.5-12.9l-174-67 C153.3,145.7,150.7,145,147.5,145z"></path> <path style="fill:#FFFFFF;" d="M170,183.7c-10.3-3.9-22.6,1.3-26.4,11.6c-3.9,10.3,1.3,22.6,11.6,26.4s22.6-1.3,26.4-11.6 C185.5,199.2,180.4,187.6,170,183.7z"></path> <path style="fill:#FFFFFF;" d="M121.7,309.4c-10.3-3.9-22.6,1.3-26.4,11.6s1.3,22.6,11.6,26.4s22.6-1.3,26.4-11.6 C137.2,325.5,132,313.3,121.7,309.4z"></path> <path style="fill:#FFFFFF;" d="M208.7,270.7c-10.3-3.9-22.6,1.3-26.4,11.6c-3.9,10.3,1.3,22.6,11.6,26.4 c10.3,3.9,22.6-1.3,26.4-11.6C224.2,286.9,219,274.6,208.7,270.7z"></path> <path style="fill:#FFFFFF;" d="M295.7,232.1c-10.3-3.9-22.6,1.3-26.4,11.6c-3.9,10.3,1.3,22.6,11.6,26.4 c10.3,3.9,22.6-1.3,26.4-11.6C311.2,247.5,306.1,235.9,295.7,232.1z"></path> <ellipse style="fill:#FFFFFF;" cx="239.8" cy="377.2" rx="20.6" ry="20.6"></ellipse> <path style="fill:#FFFFFF;" d="M358.3,313.3c-2.6,0-5.2-1.9-5.8-5.2c0-3.2,1.9-5.8,5.2-6.4l64.5-5.8c6.4-0.6,12.2-3.2,16.1-8.4 c3.9-4.5,5.8-11,5.2-17.4L427.2,89.6C426,76.7,414.4,67,401.5,68.3L221,84.4c-6.4,0.6-12.2,3.2-16.1,8.4c-3.9,4.5-5.8,11-5.2,17.4 l1.3,14.2c0,3.2-1.9,5.8-5.2,5.8s-5.8-1.9-6.4-5.2l-1.3-14.2c-0.6-9,1.9-18,7.7-25.1c5.8-7.1,14.2-11.6,23.9-12.2l180.5-16.1 c19.3-1.9,36.1,12.2,38,31.6l16.1,180.5c0.6,9-1.9,18-7.7,25.1c-5.8,7.1-14.2,11.6-23.9,12.2L358.3,313.3 C358.3,312.6,358.3,313.3,358.3,313.3z"></path> <path style="fill:#FFFFFF;" d="M313.8,105.1c-11,1.3-18.7,11-18,21.3c1.3,11,11,18.7,21.3,18c11-1.3,18.7-11,18-21.3 C334.4,112.2,324.8,104.4,313.8,105.1z"></path> <path style="fill:#FFFFFF;" d="M385.3,164.4c-11,1.3-18.7,11-18,21.3c1.3,11,11,18.7,21.3,18c11-1.3,18.7-11,18-21.3 C406,171.5,396.3,163.7,385.3,164.4z"></path> </g> </svg> 