<?xml version="1.0" encoding="UTF-8"?> <svg xmlns="http://www.w3.org/2000/svg" xmlns:xlink="http://www.w3.org/1999/xlink" version="1.1" id="Layer_1" x="0px" y="0px" viewBox="0 0 1000 1000" style="enable-background:new 0 0 1000 1000;" xml:space="preserve"> <path style="fill:#FFFFFF;" d="M948.2,377.3c0,18.1,0,36.2,0,54.3c0,1.1-0.1,2.4-0.6,3.3c-0.5,1-1.6,2.4-2.3,2.3 c-1.2-0.2-2.7-1-3.3-2.1c-0.7-1.2-0.7-2.9-0.7-4.4c0-34.9,0-69.7,0-104.6c0-3.5-0.9-5.7-4.6-7.2c-2.8-1.1-4.9-4-7-6.3 c-1.6-1.7-3.1-3.6-4.1-5.7c-1.7-3.5-5-2.8-7.7-3.1c-2.5-0.4-5.1,0.4-7.7,0.4c-2.7,0-5.3-0.5-8-0.5c-25.5,0-51-0.1-76.4,0 c-26.3,0.1-52.6,0.5-78.9,0.5c-21.9,0-43.7-0.4-65.6-0.5c-3.4,0-6.9,0.5-10.3,0.5c-1.7,0-3.5-0.2-5-0.8c-1-0.3-2.2-1.4-2.3-2.2 c-0.1-0.8,1-2.1,1.9-2.6c3.9-1.8,7.9-2.5,12.2-1.6c2,0.5,4.2,0.2,6.4,0.2c4.7-0.1,9.4-0.5,14.1-0.5c67.9,0,135.8,0,203.7,0 c5.5,0,11-0.5,16.5-0.5c3.1,0,6.2,0,9.2,0.7c1.3,0.3,2.5,2,3.2,3.3c1.7,3.4,3.3,6.8,6.2,9.5c1.3,1.2,2.3,2.5,4.2,3 c4,1,7.2,5.5,7.2,9.7C948.2,340.7,948.2,359,948.2,377.3z"></path> <path style="fill:#FFFFFF;" d="M357.8,719.1c-3.4-0.4-5.7-0.9-8-0.8c-3.6,0.1-7.2,0.9-10.8,1c-2.8,0.1-5.5-0.5-8.3-0.5 c-57.4,0-114.9,0-172.3,0c-11.2,0-22.5,0-33.7,0c-3.2,0-6.3-0.5-9.5-0.5c-7.5,0.1-15,0.3-22.6,0.6c-2.2,0.1-3.3-0.9-4.3-2.9 c-1.8-3.5-3.7-7.2-6.4-10c-1.6-1.8-4.6-2.4-7.1-3.3c-2.7-1-4.4-2.7-5.1-5.6c-0.9-3.6-0.7-7-0.6-10.7c0.3-14.3,0.1-28.7,0.1-43 c0-4.8,0-9.5,0-14.3c0-1.7,0.1-3.5,2.2-3.7c2.3-0.2,5-0.4,5.8,2.5c0.6,2.3,0.6,4.7,0.6,7.1c0,2-0.5,4-0.5,6c0,14.1-0.1,28.3,0,42.4 c0,3,0,6,0.7,8.9c0.4,1.6,2.1,3.1,3.5,4.3c2.3,2,4.8,3.7,7.2,5.6c0.8,0.6,1.4,1.6,1.8,2.5c2.3,5.5,7.7,8.4,13.5,7 c1.2-0.3,2.5-0.3,3.7-0.3c79.1,0,158.3,0,237.4,0c3.8,0,7.7-0.6,11.5-0.5c2.9,0.1,5.9,0.5,8.7,1.2c1,0.2,2.3,1.5,2.4,2.4 c0.1,0.8-1.1,2.3-2,2.6C362.9,718,359.8,718.6,357.8,719.1z"></path> <path style="fill:#FFFFFF;" d="M240.6,304.3c-7.9,0-15.9,0-23.8,0c-28.9-0.2-57.9-0.4-86.8-0.6c-4.9,0-9.7-0.1-14.6,0 c-3.1,0.1-6.1,0.5-9.2,0.5c-1.9,0-3.8-0.5-5.7-0.5c-3.8-0.1-6.7,2-8.1,5.6c-0.3,0.9-0.7,1.9-1.4,2.4c-3.5,2.7-7.1,5.4-10.9,7.9 c-1.4,0.9-2.3,1.7-2.3,3.6c-0.1,13.6-0.5,27.2-0.5,40.9c-0.1,26.5,0,53.1,0,79.6c0,3,0.1,6,0,9c-0.1,2.1-3.2,4.7-5.3,4.4 c-2.3-0.4-2.8-2.3-2.8-4.4c0-25.9,0-51.8,0-77.6c0-16.9,0.1-33.7-0.1-50.6c-0.1-5.8,1.9-10.1,7.7-11.4c4.7-1.1,6-5.2,8.6-8.1 c1.2-1.4,2.2-3.1,3-4.8c1.1-2.4,3-3.4,5.4-3.4c4.6,0.1,9.2,0.5,13.8,0.5c3.9,0,7.9-0.5,11.8-0.5c31.4,0,62.8,0,94.2,0 c10.7,0,21.4-0.1,32.1,0c6.6,0.1,13.2,0.4,19.7,0.5c2.2,0.1,4.5-0.2,6.7,0.1c1.7,0.2,3.8,0.9,3.3,3.1c-0.3,1.2-1.8,2.6-3.1,3 c-2.2,0.7-4.5,0.8-6.8,0.8C257.3,304.4,248.9,304.3,240.6,304.3z"></path> <path style="fill:#FFFFFF;" d="M840.6,711.3c24.1,0,48.2,0,72.3,0c3.1,0,6.2,0,9.3,0c2,0,3.4-1,3.8-2.8c1-4,4.1-6.4,7.1-8.8 c1.8-1.5,4.1-2.4,5.8-4c1.1-1.1,2.2-2.9,2.2-4.3c0.1-27.5,0.1-55,0.1-82.6c0-3,1.3-4.5,3.6-4.5c2.4,0,3.4,1.3,3.4,4.6 c0,4.7,0,9.5,0,14.2c0,20.5,0,41.1,0,61.6c0,3.5-0.1,7,0,10.5c0.1,2.9-1,5.1-3.8,5.9c-6.8,1.9-10,7.4-13,12.9 c-1.7,3.3-4,4.9-7.6,4.6c-0.7,0-1.4,0-2,0c-4,0.2-8.1,0.5-12.1,0.5c-2.5,0-5-0.5-7.4-0.5c-41.1,0-82.1,0-123.2,0 c-5.5,0-11,0.2-16.5,0.3c-2.4,0-4.2-1.5-4.4-3.6c-0.3-2.9,1.9-3.4,3.8-3.6c2.9-0.4,5.9-0.6,8.9-0.6 C794.1,711.3,817.3,711.3,840.6,711.3z"></path> <path style="fill:#FFFFFF;" d="M703.5,714.7c-1.6,2.6-3.9,3.5-6.8,3.6c-4.5,0-9,0.5-13.5,0.5c-4,0-8.1-0.5-12.1-0.5 c-42.9,0.1-85.7,0.4-128.6,0.6c-3.6,0-7.2,0-10.8,0c-2,0-3.3-1-3.7-2.9c-0.4-1.5,2.1-4.3,4.1-4.6c0.8-0.1,1.7,0,2.6,0 c54,0,108.1,0,162.1-0.1C699.9,711.2,701.9,712.4,703.5,714.7z"></path> <path style="fill:#FFFFFF;" d="M518.4,296.8c19.5,0,38.9,0,58.4,0c3.7,0,7.5,0.4,11.2,0.5c3.1,0.1,6.3-0.3,9.3,0.2 c1.2,0.2,2.2,1.9,3.3,2.9c-1.1,0.9-2,2.3-3.3,2.7c-4,1.4-8.2,1.9-12.4,0.7c-0.7-0.2-1.5-0.1-2.3-0.1c-40.7,0-81.4,0-122.1,0 c-3.2,0-6.4-0.1-9.6,0c-2.4,0.1-3.6-1.2-4.1-3.1c-0.4-1.4,2.2-3.3,4.3-3.3c22.4,0,44.9,0,67.3,0C518.4,297.2,518.4,297,518.4,296.8z "></path> <path style="fill:#FFFFFF;" d="M332.9,296.8c12.3,0,24.6,0,36.9,0c1.8,0,3.6-0.3,5.4-0.5c3.7-0.6,6.8,1.6,6.2,4.7 c-0.6,3.2-3.5,3.2-5.9,3.4c-3.4,0.2-6.8,0.1-10.2,0.1c-7.9,0-15.9,0.1-23.8,0c-14.1-0.1-28.2-0.4-42.3-0.5c-2.6,0-5.2,0.4-7.7,0.5 c-0.8,0-1.9,0.1-2.5-0.3c-1.3-0.8-2.3-1.9-3.5-2.9c1-1,1.8-2.4,3-3c1.6-0.8,3.4-1.2,5.2-1.2C306.7,296.8,319.8,296.8,332.9,296.8z"></path> <path style="fill:#FFFFFF;" d="M949,557.1c-1,7.7-2,15.5-2.9,23.2c-0.1,0.8,0.5,1.6,0.7,2.4c0.4,1.6,1,3.2,0.8,4.7 c-0.1,1-1.1,2.5-2,2.7c-1.1,0.3-2.8-0.1-3.6-0.9c-0.7-0.7-0.9-2.4-0.7-3.6c0.1-1,1.2-1.9,1.6-2.9c0.4-1,0.7-2.1,0.7-3.2 c-0.2-2.1-0.8-4.1-0.9-6.1c-0.6-6.8-1.5-13.7-1.6-20.5c-0.1-3.4,0.9-6.9,2-10.2c0.6-2,0.8-3.5-0.1-5.4c-1.5-3.2-2.4-6.4-1.6-10.1 c0.7-3.4,0-7,0.2-10.5c0.1-1.5,0.8-3.1,1.7-4.4c0.4-0.6,2.3-0.8,2.9-0.3c1,0.8,2.2,2.2,2.2,3.4c-0.2,7.9,1.3,15.9-1.5,23.7 c-0.5,1.4,0.8,3.3,1,5c0.4,4.3,0.6,8.6,0.9,12.9C948.7,557,948.8,557.1,949,557.1z"></path> <path style="fill:#FFFFFF;" d="M428,713.6c4.2-0.8,8.4-2.1,12.7-2.2c9.4-0.3,18.8-0.1,28.1-0.1c5.9,0,11.8,0,17.8,0 c3.1,0,5.7,1.2,7.5,3.3c-5.3,4.4-11.2,4.9-17.8,3.8c-2.6-0.4-5.3,0.3-8,0.4c-3.6,0.2-7.3,0.5-10.9,0.5c-1.6,0-3.2-0.5-4.8-0.5 c-4.1,0.1-8.3,0.6-12.4,0.4c-2.6-0.1-5.2-0.8-7.7-1.7c-1.6-0.6-3-2-4.4-3C428,714.3,428,713.9,428,713.6z"></path> <path style="fill:#FFFFFF;" d="M69.2,500.4c0-7,0-13.9,0-20.9c0-1.3-0.6-2.7-0.4-3.9c0.4-1.9,0.6-4.4,3.5-4.4 c2.7-0.1,5.5,2.2,5.5,4.8c0,3-0.5,5.9-0.5,8.9c-0.1,11.6,0,23.2-0.1,34.8c0,1.5-0.4,3-0.9,4.4c-0.8,2.3-2.9,3.5-5,2.7 c-1.1-0.4-2.1-2.6-2.1-4.1C69.1,515.3,69.2,507.9,69.2,500.4z"></path> <path style="fill:#FFFFFF;" d="M948.2,473.7c0,5.4,0.1,10.8,0,16.2c-0.1,4.7-0.2,9.4-0.7,14.1c-0.1,1.3-1.7,2.5-2.6,3.7 c-1-0.9-2.7-1.6-2.9-2.7c-0.6-2.5-0.7-5.1-0.8-7.7c-0.1-2,0-4.1,0-6.1c0-11.6-0.1-23.2,0.1-34.8c0-2.2,1.2-4.5,2.3-6.5 c0.7-1.4,2.2-1.3,2.8,0.4c0.7,2.1,1.6,4.3,1.7,6.5C948.4,462.5,948.2,468.1,948.2,473.7z"></path> <path style="fill:#FFFFFF;" d="M427.9,715.2c-4.3,1.5-8,3.7-11.8,4.1c-5.4,0.5-11-0.6-16.4-0.3c-6.7,0.4-13.3,0.1-19.8-1.3 c-1.4-0.3-2.5-1.5-4.3-2.6c1.4-1,2.2-2.1,3.3-2.4c3-0.6,6-1.2,9-1.3c8.9-0.2,17.8,0.1,26.7-0.1C419.1,711.1,423.3,711.8,427.9,715.2 z"></path> <path style="fill:#FFFFFF;" d="M69.2,576.5c0-2.8,0-5.6,0-8.4c0-3.4,1.6-5.2,4.3-5.1c2.7,0.1,4.9,2.6,4.8,5.4 c-0.2,4.9-0.2,9.8-0.5,14.6c-0.3,4.3-0.8,8.7-3.2,12.5c-0.5,0.8-1.5,1.2-2.2,1.7c-0.5-0.7-1.2-1.3-1.4-2.1c-0.5-1.6-1-3.3-1.2-5 c-0.4-4.6-0.6-9.2-0.9-13.8C69.1,576.5,69.2,576.5,69.2,576.5z"></path> <path style="fill:#FFFFFF;" d="M77.9,539.7c0,3.8,0,7.6,0,11.4c0,2.1-2.5,6.1-4.4,6.5c-0.9,0.2-2.5-0.4-3-1.1 c-1.8-2.6-1.7-5.6-1.3-8.7c0.4-3.2,0.1-6.4,0.1-9.6c0-3.7,1-5.4,3.3-5.4c3.2,0,5.4,2.3,5.4,5.7C77.9,538.9,77.9,539.3,77.9,539.7z"></path> <path style="fill:#FFFFFF;" d="M427.4,304.3c-4.4,0-8.8,0-13.2,0c-2.1,0-3.3-0.9-3.7-2.9c-0.5-2.2,0.8-3.5,2.8-4 c1.6-0.4,3.4-0.6,5.1-0.7c3.6-0.2,7.3-0.4,10.9-0.6c0.9,0,1.8-0.2,2.6,0.1c2.2,0.6,4.8,1.3,4.6,4.1c-0.2,2.5-2.5,3.3-4.9,3.4 c-1.4,0.1-2.8,0.5-4.2,0.7C427.4,304.4,427.4,304.4,427.4,304.3z"></path> <path style="fill:#FFFFFF;" d="M503,715.9c-0.4-3.1,1.6-4.3,3.8-4.5c3.3-0.2,6.7,0.1,9.9,0.6c1.1,0.2,2.2,1.8,2.8,3 c0.2,0.4-1.3,2-2.3,2.4c-3.8,1.2-7.7,2.4-11.8,1.4C503.9,718.4,502.3,717.8,503,715.9z"></path> <path style="fill:#FFFFFF;" d="M627.3,304.3c-0.7,0-1.5,0.2-2,0c-1.2-0.7-2.4-1.6-3.5-2.4c0.7-1.1,1.3-2.4,2.3-3.1 c2.4-1.8,5.2-3.7,8.3-1.9c1.1,0.6,2.4,2.2,2.4,3.3c0,1.1-1.3,2.7-2.4,3.3c-1.4,0.8-3.3,0.7-5,1C627.3,304.5,627.3,304.4,627.3,304.3 z"></path> <path style="fill:#FFFFFF;" d="M736.7,714.5c0.1-0.2,0.3-0.9,0.8-1.4c1.6-1.7,6.8-2.4,8.9-1.3c2.5,1.3,2.6,3.2,0.3,4.7 c-1.7,1.1-3.4,2-5.2,2.9C739.2,720.6,736.5,718.2,736.7,714.5z"></path> <path style="fill:#FFFFFF;" d="M650,297.4c0.7,0,1.5-0.2,2,0c1.2,0.7,2.8,1.4,3,2.4s-0.8,3.3-1.6,3.5c-2.6,0.5-5.4,0.6-8,0.1 c-2.1-0.4-1.8-4.3,0.3-5.3c1.2-0.6,2.7-0.6,4.1-0.9C650,297.2,650,297.3,650,297.4z"></path> <path style="fill:#FFFFFF;" d="M394.6,304.1c-2.5-0.3-5-0.4-5.5-3.2c-0.3-1.8,2.4-3.4,5.4-3.5c1,0,2.1-0.3,2.8,0.1 c1.2,0.6,2.7,1.6,3,2.7c0.2,0.8-1,2.5-2,3.1C397.3,303.9,395.7,303.9,394.6,304.1z"></path> <path style="fill:#FFFFFF;" d="M612.6,296.3c0.8,1,2,2,2.4,3.2c0.7,2.1-0.6,3.9-2.6,4c-2.3,0.2-4.7-0.3-6.9-1 c-1.9-0.6-2-2.8-0.3-3.6C607.4,297.9,609.7,297.3,612.6,296.3z"></path> <path style="fill:#FFFFFF;" d="M716.7,715.1c-1.8,1.4-3.4,3.1-5.4,4.1c-1.6,0.8-3.4,0.3-4.5-1.5c-0.6-0.9-1.4-2.7-1.1-3 c1.1-1.2,2.8-2.7,4.2-2.7c2.2,0,4.3,1.1,6.5,1.8C716.5,714.3,716.6,714.7,716.7,715.1z"></path> <path style="fill:#FFFFFF;" d="M69.8,606.8c0-2.2,0.9-3.5,3-3.6c2.4,0,4.6,1.9,4.5,3.8c-0.1,2.8-2.7,2.7-4.2,2.9 C71.3,610.1,69.6,608.9,69.8,606.8z"></path> <path style="fill:#FFFFFF;" d="M941.4,597.4c0.2-2.6,1.6-3.9,3.2-3.7c1.1,0.1,2.7,1.6,2.9,2.7c0.3,1.8-1.2,3.3-3.1,3.1 C943.3,599.4,942.4,598.1,941.4,597.4z"></path> <path style="fill:#FFFFFF;" d="M76.8,617.1c-2.2,2.5-4.8,3.2-6.1,1.6c-0.5-0.7-0.6-2.4,0-3.1C71.9,613.9,74.5,614.6,76.8,617.1z"></path> <path style="fill:#FFFFFF;" d="M947.5,444.1c-1.4,1.4-2.2,2.3-3.1,3.2c-0.7-1-1.9-2-1.8-3c0-0.9,1.3-1.8,2.1-2.7 C945.5,442.2,946.2,442.9,947.5,444.1z"></path> <path style="fill:#FFFFFF;" d="M72,466.9c-0.8-1.4-1.5-2.2-1.5-2.9c0-0.7,0.9-1.3,1.4-2c0.8,0.7,1.9,1.2,2.3,2.1 C74.4,464.4,73.2,465.5,72,466.9z"></path> <path style="fill:#FFFFFF;" d="M895.1,515.7c-2.4,0-4.8-0.1-7.3,0c-3.2,0.1-6.4,0.4-9.6,0.4c-32.7,0-65.4,0.2-98.1-0.2 c-5.6-0.1-11,0.9-16.6,0.8c-15.2-0.5-30.3-0.5-45.5-0.7c-3.9,0-7.8,0.6-11.6,0.2c-9.4-1-18.8,0.2-28.2,0.6c-0.2,0-0.4-0.1-1.1-0.3 c0.7-0.6,1.2-1.2,1.7-1.5c2.4-1.3,4.1-3.2,5.3-5.7c0.6-1.2,1.9-2.1,3-3c3.3-2.6,6.5-5.4,10-7.7c2.9-2,3.4-4.6,3.4-7.7 c-0.1-13.9-0.2-27.7-0.2-41.6c0-10,0.2-19.9,0.3-29.9c0-3.2,0-6.4-0.2-9.6c-0.2-4.2-1.8-7.7-5.2-10.3c-3.2-2.4-6.3-5.2-9.8-7.2 c-2.8-1.5-6.2-1.9-9.3-2.9c-1.3-0.4-2.8-1-3.4-2c-0.6-1.2,1.5-2.9,3.5-2.9c7,0.2,13.9,0.6,20.9,0.9c1.5,0.1,3-0.1,4.6-0.1 c2.8,0.1,5.6,0.3,8.5,0.3c11.4,0,22.7,0,34.1,0c8.1,0.1,16.3,0.9,24.3,0.3c6.8-0.5,13.6-0.5,20.4-0.3c6.1,0.2,12.2,0.4,18.3,0.4 c11.4,0,22.9-0.3,34.3-0.3c4.3,0,8.6,0.4,12.9,0.4c3,0,6.1-0.6,9.1-0.7c2.4-0.1,4.8,0.4,7.2,0.5c2.5,0.1,5,0.1,7.5,0 c2.5-0.1,5-0.4,7.5-0.7c3.1-0.4,6.1,0,9,1.3c0.5,0.2,0.8,0.7,1.2,1c-0.4,0.3-0.8,0.9-1.3,1c-1.5,0.5-3.1,0.7-4.7,1.2 c-10,2.8-17.6,8.7-22.4,18c-0.2,0.4-0.8,0.7-1.1,1.1c-0.6,1-1.5,2.1-1.5,3.1c0.1,11.4,0.5,22.8,0.5,34.2c0,8.8-0.4,17.6-0.4,26.4 c0,5.8-0.1,11.7,0.5,17.4c0.6,5.5,4.6,9,8.7,12.2c4.2,3.3,8.7,5.9,14.2,7c2.6,0.5,4.7,3.5,7.1,5.3 C895.4,515.1,895.2,515.4,895.1,515.7z M786.1,446.1c0-0.1,0-0.2,0-0.4c1.9,0.1,3.8,0.3,5.7,0.3c1.9,0,3.8-0.1,5.7-0.4 c4.1-0.6,7.8-3.4,8-6.5c0.4-5.9,0.5-11.8,0.6-17.6c0-3.7-0.1-7.3-0.3-11c-0.2-2.2,0-5-1.3-6.6c-4.8-5.8-10.3-11-17.6-13.6 c-1.7-0.6-4-0.9-5.5-0.2c-7.8,3.6-15.4,7.8-18.5,16.8c-0.1,0.4-0.4,0.9-0.7,1.2c-3,3.2-2.9,7-2.7,11c0.2,3.7-0.1,7.5,0,11.2 c0.1,2.4,0,5,0.7,7.2c1.6,5.4,6.7,8.5,13.5,8.6C778,446.2,782,446.1,786.1,446.1z M775.9,454.8c0-0.2,0-0.3,0-0.5 c-1.5,0.1-3.1,0-4.6,0.3c-2.9,0.6-6.2,0.4-7.6,4.3c-2.6,7.3-4.9,14.5-3.7,22.4c0.6,3.7,0.1,7.7,3.4,10.6c0.5,0.4,0.7,1.4,0.7,2.1 c0.2,3.8,2.2,6.4,5.3,8.4c2.1,1.4,4.2,2.9,6.3,4.3c4.8,3.2,10.1,4,15.1,1.4c5.4-2.9,10.8-6.2,13.6-12.1c0.8-1.7,1.4-3.7,1.5-5.6 c0.3-4.4,0.5-8.9,0.5-13.3c-0.1-5.5-0.2-11.1-0.8-16.6c-0.5-4.5-3.4-6.8-7.9-6.6C790.4,453.9,783.1,454.4,775.9,454.8z"></path> <path style="fill:#FFFFFF;" d="M634.9,416.1c-1.4-8.8-7.5-14.1-14.2-18.8c-2.2-1.6-5.4-2.4-8.2-2.4c-10.6-0.1-21.2,0.3-31.7,0.4 c-5.1,0-10.1-0.1-15.2-0.3c-3.1-0.1-5.4,1-7,3.6c-1.3,2.2-2.7,4.5-3.8,6.8c-3.9,7.7,3.3,16.8,10.7,18.4c10.6,2.2,21.2,3.2,31.9,2.8 c4.2-0.2,8.2,0.8,11.9,2.8c1.4,0.7,3.1,0.6,4.7,0.9c3.1,0.6,6.3,0.8,9.1,1.8c3.8,1.4,7.4,3.5,11.1,5.4c0.6,0.3,1.1,0.8,1.5,1.3 c1.5,1.7,3,3.4,4.5,5.1c0.3,0.3,0.7,0.4,0.8,0.8c2.1,5.8,7.5,10.1,7.5,16.9c0,5,0.7,9.9,0.9,14.9c0.2,4.1-0.9,8-3.1,11.6 c-2.4,3.9-4.4,8.1-7.3,11.6c-2.3,2.8-5.3,5-8.4,6.9c-3.4,2.1-7.4,3.3-11,5.2c-8,4.2-16.6,4.8-25.5,4.3c-6.7-0.4-13.5,0-20.2-0.1 c-4.2,0-8.4-0.2-12.6-0.2c-9,0.1-18.1,0.3-27.1,0.4c-6.1,0.1-12.3,0-18.4,0.1c-1.3,0-2.6,0.3-3.9,0.4c-4.1,0.3-5.7-1.3-5.8-5.4 c-0.1-4.7-0.2-9.5-0.5-14.2c-0.1-1.7-0.2-3.6-0.7-5.2c-0.9-3-0.2-5.6,1.1-8.2c0.2-0.5,0.8-1,1.2-1c0.4,0,1,0.5,1.3,1 c0.5,1,1,2.1,1.3,3.2c3.4,11.2,11.5,16.9,22.7,18.8c3.5,0.6,7,0.8,10.5,0c1.7-0.4,3.5-0.3,5.2-0.3c6.4,0.1,12.9,0.2,19.3,0.4 c2.4,0.1,4.8,0.6,7.3,0.7c1.2,0.1,2.5,0.1,3.6-0.2c6-1.6,10.1-6.8,10.3-13c0.1-2.6,0.1-5.3-0.3-7.8c-0.2-1.3-1.3-2.8-2.5-3.6 c-4.2-3-8.9-4.7-14-5.4c-6.6-1-13.1-2.1-19.7-2.9c-3.9-0.5-7.8-0.7-11.7-0.8c-6-0.1-11.9-1.3-17.4-3.8c-2.4-1.1-4.4-3.2-6.3-5.1 c-1.5-1.4-2.6-3.5-4.3-4.7c-4.6-3.5-6.6-8.3-7.8-13.6c-1-4.1-1.9-8.2-3.2-12.1c-1.2-3.7-1.1-7.1,0.2-10.7c1.8-5,3.3-10.2,5-15.2 c0.4-1.1,1.4-2,2.3-2.8c2.2-2.2,4.6-4.2,6.8-6.4c7.5-7.7,16.3-12.5,27.4-12.4c13.7,0.1,27.4,0.2,41.2,0.2c5.8,0,11.7-0.3,17.5-0.2 c8.2,0.1,16.4,0.6,24.6,0.8c2.4,0.1,4.7-0.1,7.1-0.3c3.5-0.2,4.8,0.9,4.9,4.4c0.1,6.3,0.3,12.7,0.5,19 C639,413.6,637.9,415.6,634.9,416.1z"></path> <path style="fill:#FFFFFF;" d="M267.6,459.3c2.7,1.5,3.4,3.2,3.4,5.5c-0.1,11,0.1,22,0.1,33.1c0,4.4-0.1,8.7-0.2,13.1 c0,3.3-1.3,4.5-4.6,4.7c-2.5,0.2-5,0.6-7.5,0.7c-2.8,0.1-5.6-0.2-8.4-0.2c-4.2,0-8.4,0-12.6,0c-13.6,0.1-27.3,0.4-40.9,0.4 c-10.4,0-20.9,0.2-31.3-0.6c-7-0.5-13.9-2.1-20.7-3.7c-4.3-1-7.8-3.9-10.8-7.1c-3-3.2-5.7-6.6-8.7-9.8c-2.4-2.6-3.4-5.7-4-9.1 c-0.5-3-1.9-5.9-2.7-8.9c-0.6-2-1.3-4.1-1.3-6.2c0-8.2,0.3-16.4,0.4-24.6c0.1-6.7,0-13.5,0-20.2c0-0.8,0.1-1.5,0.3-2.3 c1.3-3.9,2.6-7.8,4-11.6c1.8-5,3.5-10,7.9-13.4c0.5-0.4,1.2-0.8,1.8-1c1.6-0.4,2.3-1.4,3-2.8c0.7-1.4,2-2.7,3.4-3.5 c7-4.2,14.6-5.9,22.7-5.4c4.7,0.3,9.5,0,14.3,0c16.1-0.3,32.3-0.7,48.4-0.9c11.5-0.1,23-0.1,34.5,0c3,0,6,0.3,8.9,0.6 c2.8,0.3,3.9,1.7,3.8,4.5c-0.1,5.7-0.5,11.3-0.4,17c0.1,5.6,0.6,11.2,0.8,16.7c0.2,4.1,0.2,8.3,0.3,12.4c0,0.9-0.1,1.8-0.2,2.7 c-0.3,1.6-1.3,2.6-3,2.6c-1.7,0-2.3-1.2-2.4-2.6c-0.1-1.4-0.1-2.9,0.2-4.3c0.9-4.2-0.1-8-2.3-11.6c-0.2-0.3-0.5-0.6-0.6-1 c-4.2-10.2-12.9-16.6-20.9-23.4c-4.5-3.9-10.4-4.6-16.3-4.6c-7.8,0.1-15.6,0.2-23.5,0.2c-3.4,0-6.5,0.8-9.2,3 c-2.9,2.4-6.5,4.1-8.3,7.8c-0.2,0.3-0.7,0.5-1.2,0.6c-2.9,0.4-3.6,2.5-4.3,4.9c-3.6,11.7-3,23.7-2.4,35.7c0.4,7.7,0.8,15.4-0.5,23.1 c-0.8,4.9-0.1,9.6,1.6,14.2c0.9,2.4,1.5,4.9,2.8,7c0.9,1.6,2.6,2.9,4,4.3c0.6,0.6,1.5,1.2,1.9,1.9c2.5,4.6,6.7,6.9,11.6,7.3 c9.5,0.9,19,1.8,28.4,1.7c4.9,0,9.8-2.1,14.7-3.3c0.6-0.2,1.2-0.6,1.7-1.1c6.6-6.6,13.7-12.8,18.5-20.9c3.1-5.2,5.2-10.7,4.1-17 C266.1,462.8,267.1,461.1,267.6,459.3z"></path> <path style="fill:#FFFFFF;" d="M479.2,516c-1.1,0-1.8,0-2.6,0c-18.4,0-36.8,0-55.2,0c-3.8,0-7.7-0.4-11.5-0.3 c-4.8,0.2-9.4,0.6-14.2-0.1c-3.2-0.5-6.7,0.4-10,0.8c-3.7,0.4-5.9-1.5-5.3-4.6c0.3-1.3,0.8-1.8,2.3-1.9c1.6-0.1,3.5-0.5,4.6-1.4 c3.5-2.9,6.8-5.9,10-9.2c2.5-2.6,2.8-5.8,1.3-9c-2.8-5.9-5.7-11.8-8.6-17.6c-3.4-6.6-6.4-7.7-13.9-7.2c-6.3,0.4-12.7,0-19-0.4 c-4.3-0.3-7.6,1.1-9.4,5c-2.6,5.9-5.2,11.7-7.6,17.6c-3.4,8.1-0.2,15.8,7.6,20c3.7,2,6.8,4.8,10.2,7.3c0.1,0.1,0.1,0.4,0.3,1.1 c-1.4,0.2-2.7,0.4-3.9,0.4c-7.3-0.1-14.5-0.1-21.8-0.3c-4.5-0.1-9-0.8-13.5-0.9c-2.9-0.1-5.8,0.3-8.7,0.5c-3.4,0.2-6.7,0.6-10.1,0.7 c-3.3,0.1-4.5-1.4-3.6-4.6c0.3-1,0.6-2,1-3.2c4.1,0.9,8.2,0.9,11.9-0.9c4.3-2.1,8.6-4.2,12.7-6.7c2.5-1.5,4.7-3.7,6.8-5.8 c0.9-0.9,1.4-2.3,1.7-3.6c1.3-5.7,2.5-11.5,3.7-17.2c0.2-0.8,0.4-1.8,1-2.2c2.9-1.7,3.7-4.5,4.4-7.5c0.5-2,0.9-3.9,2.6-5.4 c0.8-0.7,1.3-2,1.5-3c1.2-7.8,5-14.7,7.6-22c3.4-9.6,7-19.2,10.6-28.7c0.4-1,0.8-2.1,1.5-2.8c2.7-3,3.7-6.6,3.7-10.5 c0-4.5,1.1-5.5,5.6-5.6c12.1-0.2,24.2-0.4,36.3-0.6c4.4-0.1,5.1,0.8,7,4.8c2.6,5.2,5,10.4,6,16.2c0,0.1,0.1,0.3,0.2,0.4 c4.5,5.1,5.6,11.9,8.5,17.8c2.9,5.8,4.6,12.2,6.8,18.3c0.7,1.9,1.2,3.7,3.3,4.7c0.6,0.3,1.1,1.4,1.2,2.3c0.3,1.8,0.1,3.7,0.6,5.5 c0.5,2,0.9,4.4,2.2,5.9c2.3,2.7,3.2,5.8,4.2,9c0.6,1.7,1.9,3.2,2.7,4.9c0.8,1.7,1.6,3.5,1.8,5.3c0.4,2.5,1.1,4.6,3.1,6.4 c1.3,1.2,1.7,3.2,2.5,4.9c0.6,1.2,1,2.6,1.8,3.7c1.9,2.4,4,4.6,6,7c2.1,2.4,4.4,4.4,7.5,5.4C478,509.6,478.3,512.8,479.2,516z M369.3,457.3c0.1,0.1,0.2,0.3,0.2,0.4c3.3-1.3,6.8-2.3,9.9-3.9c2.6-1.3,2.8-3.8,0.9-6.2c-0.6-0.7-1.3-1.4-1.5-2.3 c-1.4-4.4-3.7-8.4-5.8-12.5c-1.1-2.1-1.3-4.7-2-7c-0.4-1.6-1.2-3-3.2-3.1c-1.9-0.1-3.5,0.5-4.4,2.3c-0.4,0.9-0.7,1.8-1,2.8 c-1.2,4.6-2.4,9.3-3.6,14c-0.2,0.6-0.5,1.3-0.9,1.8c-1.3,1.7-2.8,3.4-4.1,5.2c-0.4,0.6-0.7,1.6-0.6,2.3c0.5,3.5,3.1,5.3,6.7,5.1 c1.9-0.1,3.8,0.3,5.6,0.5C366.9,456.8,368.1,457.1,369.3,457.3z"></path> <path style="fill:#FFFFFF;" d="M841.2,626.4c-4.1,2.3-7.8,2.6-11.7,2.5c-10.4-0.2-20.9-0.4-31.3-0.4c-4.1,0-8.2,0.4-12.3,0.4 c-0.9,0-1.9-1.2-2.8-1.8c0.7-0.7,1.3-1.5,2.1-2.1c3-2.4,6.2-4.5,8.9-7.1c1-1,1.2-3.1,1.2-4.6c0-5.3-0.4-10.6-0.5-15.8 c0-1.9,0.5-3.8,0.4-5.7c-0.1-3.2-0.6-6.4-0.8-9.5c-0.1-2.1-0.4-4.3,0.1-6.4c1.3-5.6-0.6-9.7-5.2-12.9c-1.4-1-2.6-2.3-4-3.5 c-1.6-1.4-2.3-3.2-1.8-5.4c2.3-0.6,4.3-0.6,6.4,1c2.7,2.1,5.8,2.6,9.1,1.5c0.9-0.3,1.9-0.3,2.9-0.2c6.6,0.4,13.2,1,19.9,1.2 c2.6,0.1,5.3-0.9,7.9-1.3c0.5-0.1,1.1-0.3,1.6-0.2c1.4,0.4,3.5,0.6,4,1.5c0.5,0.9-0.2,3-1,4.1c-2,2.8-4.4,5.3-6.5,8 c-0.6,0.8-1,2.1-1,3.1c0,3.2-0.2,6.5,0.3,9.6c0.4,2.2,1.5,4.5,2.8,6.4c1.5,2.1,4.1,2.2,6.5,2c3.1-0.2,6.3-0.4,9.4-0.4 c5.4-0.1,9.3-3.9,9.1-9.3c0-1.3-0.5-2.7-0.2-3.9c1.2-6.1-1.6-10.6-5.7-14.6c-0.9-0.8-1.6-1.9-2.3-2.9c-1.1-1.6-0.8-3.1,1.1-3.5 c3-0.7,6.2-1.5,9.3-1.4c2.2,0,4.4,1.9,6.7,2c7.1,0.2,14.2,0,21.3-0.1c0.9,0,1.8-0.4,2.6-0.9c3.1-2.1,5.7-0.8,8.3,0.9 c1.3,0.8,1.3,1.9,0.4,2.9c-1,1-2.1,2.1-3.3,2.8c-4.3,2.6-6.1,6.3-6.1,11.3c0,12-0.3,24-0.4,36.1c0,4.3,1.3,8.1,4.6,11.1 c2.4,2.2,4.9,4.4,7.3,6.7c-1,1.8-2.7,2-4.4,2c-9.8-0.2-19.6-0.6-29.4-0.7c-3.8-0.1-7.5,0.4-11.3,0.3c-2.3,0-4.7-0.5-7-1 c-1.6-0.3-1.9-1.3-0.6-2.4c2-1.7,3.9-3.5,6-4.9c1.9-1.3,3.2-2.9,3.2-5.3c-0.1-4.9-0.1-9.8-0.4-14.7c-0.1-2.4-1.5-4.1-4-4.2 c-5.5-0.4-11-0.8-16.5-1c-2.3-0.1-4.1,1.1-4.7,3.3c-1.3,5.1-2.5,10.2-3.4,15.4c-0.2,1.2,0.6,2.8,1.4,4c2.4,3.4,5.9,5.2,9.7,6.6 C838.4,625,839.5,625.6,841.2,626.4z"></path> <path style="fill:#FFFFFF;" d="M321.4,626.3c0.9-0.6,1.9-1.3,2.8-1.9c8.2-4.5,10.4-11.7,9.1-20.5c-0.2-1.6-0.3-3.3-0.3-5 c-0.1-8.4,0.1-16.8-0.2-25.2c-0.2-5.2-2.1-9.8-7.1-12.5c-1.3-0.7-2.2-2-3.3-3c0-0.3,0-0.6,0-0.9c1.7-0.4,3.3-1.2,5-1.2 c10.4,0.2,20.8,0.6,31.3,0.7c1.9,0,4-0.9,5.7-1.9c3.3-2,5.7-3.1,8.7,0.8c0.4,0.6,1.9,0.9,2.6,0.6c3.6-1.4,7.1-0.9,10.6,0.2 c2.3,0.7,4.5,1.2,6.9,0c1.2-0.6,2.7-0.7,4-0.5c8.6,1,16.5,3.5,21.6,11.2c2.9,4.5,2.5,9.3,1.7,14.2c-0.2,1.2-1.4,2.3-2.3,3.3 c-2.3,2.3-4.8,4.4-7.1,6.8c-2,2-1.7,2.8,0.3,4.9c2.4,2.5,4.8,5,6.5,7.9c1.3,2.2,2.2,5,2.3,7.6c0.1,5.5,2.4,9.3,6.7,12.3 c1,0.7,1.7,1.8,2.6,2.7c-1.2,0.5-2.4,1.3-3.6,1.4c-8.7,0.2-17.4,0.5-26.1,0.4c-4.7-0.1-10.5-5.6-11.6-10.3c-0.2-0.9-0.6-2.1-1.3-2.6 c-2.5-1.9-2.7-4.4-2.2-7.1c0.7-4.1,0.1-7.9-3.3-10.6c-3.7-3-8-3.6-12.6-2.1c-2.1,0.7-3.2,2.4-3.2,4.6c-0.1,4.7-0.1,9.3,0,14 c0.1,4,3,6.3,6,8.1c1.7,1.1,3.8,1.5,5.7,2.3c0.7,0.3,1.3,1,2,1.6c-0.6,0.6-1.2,1.6-1.9,1.7c-3.4,0.4-6.8,0.8-10.2,0.8 c-8.9,0-17.8-0.3-26.7-0.3c-4.4,0-8.9,0.4-13.3,0.3c-1.7,0-3.3-0.9-5-1.3C321.7,627.3,321.5,626.8,321.4,626.3z M365.3,580.6 C365.3,580.6,365.3,580.6,365.3,580.6c-0.1,0.8-0.1,1.5-0.1,2.3c0.3,6.6,1.7,7.8,8.2,6.7c3.9-0.7,6.1-3.9,8.8-6.3 c0.8-0.8,1-2.4,1.2-3.7c0.4-2.5,1-5,0.9-7.5c-0.4-5.2-4.2-7.9-8.3-10.2c-3.2-1.8-6.3-0.9-9.1,0.9c-0.9,0.6-1.6,2.3-1.6,3.5 C365.2,571,365.3,575.8,365.3,580.6z"></path> <path style="fill:#FFFFFF;" d="M144.7,629.3c-7.5,0-15,0.2-22.5-0.1c-3.8-0.1-5.4-2.1-5.5-6c0-1.7,0.1-3.5,0.4-5.2 c0.1-0.8,0.8-1.9,1.5-2.1c0.8-0.2,1.8,0.4,2.6,0.9c0.5,0.3,0.9,0.8,1.2,1.4c2.5,5,6.8,6.3,11.9,5.8c6.5-0.6,13-0.7,19.5,0.4 c2.6,0.4,4.9-0.2,6.6-2.2c1.2-1.4,2.5-2.7,3.5-4.2c1.5-2.1,1.3-3.7-0.7-5.4c-4.2-3.6-9.2-5.8-14.5-7c-2.3-0.5-4.9-0.2-7.3,0.1 c-7.9,1-14.5-1.2-19.7-7.4c-0.1-0.1-0.2-0.3-0.3-0.4c-6.2-3.3-5.2-9.3-5.4-14.7c-0.2-4.3,0.1-8.7,0.5-13.1c0.1-1.2,1-2.6,1.9-3.4 c2-1.8,4.4-3.3,6.5-5.1c4.9-4.2,10.4-5.5,16.8-4.8c5.4,0.6,11,0.2,16.5,0.2c1.7,0,3.4,0,5,0.1c3.3,0.3,6.2-0.2,8.7-2.5 c1.6-1.5,3.5-1.2,4.9,0.4c1.5,1.7,3.2,1.8,5.4,1.8c2.6-0.1,5.2,0.2,7.7,0.7c2.2,0.4,3.2,2.3,3.2,5c0,2.1,0,4.1-0.2,6.2 c-0.1,1-0.9,1.9-1.4,2.8c-0.8-0.6-1.8-1.2-2.5-1.9c-1-1.1-1.8-2.5-2.8-3.6c-0.7-0.8-1.7-1.3-2.4-2.1c-4.7-5.2-10.6-3.9-16.4-3 c-4.7,0.7-9.3,0.9-13.9-0.3c-0.7-0.2-1.5-0.1-2.2,0.1c-4.1,1-8.1,6.2-8.2,10.4c-0.1,3.2,2,5.3,5.1,5.1c2.8-0.2,5.3,0.3,7.6,1.8 c0.9,0.6,2.3,0.5,3.5,0.7c3.7,0.3,7.4,0.7,11.1,0.9c2.3,0.1,4.6,0.3,6.8-0.1c3.7-0.6,6.4,0.7,8.8,3.3c1.7,1.9,3.4,3.7,5.1,5.6 c1,1.2,1.9,2.6,2.9,3.8c1.1,1.5,2.1,3,3.2,4.4c1.4,1.6,2.1,3.3,1.7,5.5c-0.4,2-0.3,4.2-0.8,6.1c-0.5,1.7-1.5,3.3-2.3,4.8 c-0.4,0.8-1.3,1.4-1.6,2.2c-1.8,6.5-7.4,9.3-12.6,12.1c-2.6,1.4-6.2,1.2-9.4,1.4c-9.2,0.5-18.3,0.9-27.5,1.3 C144.7,629.8,144.7,629.6,144.7,629.3z"></path> <path style="fill:#FFFFFF;" d="M663,578.2c-4.3,0.6-6-0.4-7.5-4c-2.7-6.3-7.8-10.4-13.6-13.4c-3.6-1.9-8.1,0.6-9.4,4.8 c-0.3,1.1-0.5,2.3-0.5,3.4c-0.2,14.3-0.3,28.6-0.5,43c-0.1,3.4,1.1,6.1,3.8,8.2c2.8,2.2,5.6,4.5,8.4,6.8c-1.4,2.6-3.7,2.6-6,2.5 c-6.1-0.3-12.2-0.9-18.3-1c-8.9-0.1-17.8,0.3-26.7,0.4c-1.5,0-3.1-0.5-5-0.9c0.7-0.9,0.9-1.5,1.4-1.8c3.3-2.9,6.8-5.7,9.8-8.8 c1-1,1.3-3.1,1.3-4.7c-0.1-8.4-0.5-16.8-0.6-25.3c-0.1-5.9-0.4-11.8,0.1-17.7c0.4-5.7-6.7-10-11.7-7.3c-2.5,1.3-4.9,2.7-7.3,4.3 c-3.1,2-4,5.4-4.9,8.8c-0.4,1.7-1.2,3.3-1.9,5.1c-2.3-1.5-3.4-2.9-3.2-5.2c0.3-4.2,0.4-8.4,0.5-12.6c0.1-4.7,1.5-6,6.2-5.7 c1.3,0.1,2.7-0.3,4-0.4c2.2-0.2,4.4-0.4,6.6-0.4c8.1-0.1,16.2-0.1,24.4-0.2c5.3-0.1,10.6,0,15.8-0.4c3-0.2,6-1.1,8.9-2 c2.4-0.7,4.1-0.9,5.7,1.6c0.6,0.9,2.5,1.2,3.9,1.3c2.8,0.3,5.7,0.4,8.5,0.5c3.2,0.2,5.2,2,4.7,4.9c-0.7,3.7,0.2,7,1.2,10.3 C661.7,574.1,662.3,576.1,663,578.2z"></path> <path style="fill:#FFFFFF;" d="M483.8,626.4c-1.7,2.2-3.5,2.7-5.9,2.7c-4.8,0-9.6,0.2-14.4,0.6c-2.6,0.2-4.7-0.4-6.3-2.6 c3.6-3,7.1-6.1,10.7-9c2.1-1.7,3.2-3.8,3.6-6.4c0.3-2.4,1.5-4.2,3.4-5.7c1-0.8,1.7-2.3,2.1-3.6c0.6-2,0.6-4.1,1.1-6.1 c0.3-1,1.1-1.9,1.7-2.9c0.7-1.1,1.6-2.2,1.8-3.4c0.5-2.5,0.5-5.2,1.1-7.7c0.3-1.4,1.5-2.5,2.2-3.8c0.9-1.6,1.8-3.3,2.6-5 c2.6-5.3,5-10.6,7.8-15.8c0.4-0.8,2.1-1.2,3.1-1.2c5,0.2,10.1,0.7,15.1,1c4.4,0.3,6.4,2,7.5,6.3c0.4,1.5,1.1,3.1,2.1,4.2 c1.9,2.1,2.7,4.4,2.9,7.1c0.2,3.4,0.3,6.8,3.9,8.7c0.5,0.3,0.7,1.1,1,1.8c3.1,8,6.3,16,9.4,24c0.1,0.1,0.2,0.3,0.2,0.4 c1.7,6.2,5.7,10.8,10.4,15c0.6,0.5,1.2,1.2,1.5,2c0.6,1.5-0.6,2.6-2.7,2.6c-4.4-0.1-8.9-0.5-13.3-0.5c-8.2-0.1-16.4-0.1-24.5-0.1 c-2,0-4,0.4-6,0.1c-1.4-0.2-2.6-1.2-3.9-1.9c0.8-1,1.4-2.2,2.4-3c1.2-1,2.7-1.7,3.9-2.7c3-2.6,3.2-5.7,0.8-9c-1.6-2.2-3-4.5-4.3-6.9 c-1.1-2.1-2.5-3.4-5-3.4c-4,0-8-0.2-11.9-0.1c-3.4,0.1-6.2,1.7-7.7,4.9c-1.5,3.2-3.1,6.3-4.4,9.6c-1.4,3.5-0.3,5.6,3.1,7.2 C480.6,624.5,482.1,625.5,483.8,626.4z M499.2,591.8c0.2-0.1,0.4-0.1,0.6-0.2c-1.3-3.3-2.3-6.8-4.1-9.8c-2-3.3-6-2.8-7.5,0.7 c-1.2,2.8-2.1,5.7-3,8.6c-0.7,2.3,0,3.2,2.3,3.9c1.8,0.5,3.5,1,5.3,1.3C496.3,597.1,499.2,595,499.2,591.8z"></path> <path style="fill:#FFFFFF;" d="M270.5,625c0.4,0,0.8-0.1,1.1,0c7.9,1.7,13.6-2.6,18.9-7.2c2-1.7,2.9-4.7,4.5-7 c0.6-0.9,1.4-1.5,2.1-2.3c0.8,0.9,2.1,1.8,2.2,2.8c0.4,4.6,0.6,9.2,0.7,13.7c0.1,2.1-1.3,3.3-3.4,3.6c-16.3,1.8-32.6,0.2-48.9-0.1 c-4.7-0.1-9.5,0.3-14.2,0.3c-1.6,0-3.4-0.3-4.8-1c-4.8-2.5-8.3-6.5-11.2-11c-0.6-1-0.8-2.6-0.6-3.7c0.5-2.8-0.3-5.1-2.3-6.9 c-1.8-1.7-2-3.4-1.2-5.6c1-2.8,2.7-5.6,1.5-8.6c-1-2.6-0.6-4.8,0.2-7.3c0.5-1.4,0.5-3,0.6-4.5c0.5-4,0.8-8,1.6-12 c0.2-1.1,1.6-2,2.5-2.9c1.2-1.2,2.7-2.3,3.6-3.7c0.8-1.4,1.7-1.7,3.2-2.1c2.5-0.6,5.1-1.5,7.3-2.8c2.7-1.6,5-1.7,7.6,0.2 c2.7,2,4.3,2,7.1,0c2.2-1.5,4.5-1.9,7-1c1.2,0.4,2.4,0.9,3.7,1.4c2.3,0.8,4.6,0.7,6.6-0.6c1.8-1.2,3.7-1.4,5.7-0.7 c1.9,0.7,3.4,0.4,4.7-1.2c1.3-1.6,3-1.8,4.8-1c4.3,1.8,8.5,3.2,13.3,2.3c2.7-0.6,5.4,3.2,4.5,6c-1,2.8-0.8,5.3,0.7,7.9 c1.1,2,0.1,5.7-1.8,7.1c-1.2,1-2.4,0.4-2.7-0.9c-1-6.2-5.8-9.2-10.3-12.4c-2.6-1.8-5.5-2.8-8.6-3c-4.3-0.2-8.6-0.4-12.9-0.5 c-7.4,0-14.2,5.2-16.2,12.3c-0.2,0.6-0.3,1.2-0.3,1.8c-0.2,4.6-0.4,9.1-0.4,13.7c0,1.4,0.8,2.8,0.8,4.2c-0.2,3-0.6,6.1-1,9.1 c-1.2,8.4,1.4,15.4,8.2,20.3c2.1,1.5,5,2.2,7.7,2.7C265,625,267.8,624.9,270.5,625C270.5,625,270.5,625,270.5,625z"></path> <path style="fill:#FFFFFF;" d="M762.3,576.2c-4.7,1-5.6,0.5-7-3.7c-0.8-2.5-2.3-4.4-4.7-5.7c-1.4-0.8-2.6-1.8-3.8-3 c-2.8-2.8-6.2-3.6-10-2.9c-4,0.7-8,1.5-11.7-1.2c-0.3-0.2-1-0.1-1.5,0.1c-3.2,1.6-6.5,3.1-9.6,4.9c-3.4,2-5.4,4.9-5.3,9 c0.2,7.8,0.2,15.6,0.4,23.4c0.1,5,0.4,9.9,0.5,14.9c0,2.1,0.6,3.9,2.2,5.3c1.7,1.5,3.4,2.8,5.1,4.2c3.5,3,7.8,2.3,11.8,2.8 c1.8,0.2,3.7,0.3,5.5,0.5c7.9,0.7,17.6-4.7,21.2-11.8c0.7-1.3,1.8-2.4,2.9-3.7c1.7,1.9,2.7,3.7,2.5,6c-0.3,2.7-0.6,5.5-0.9,8.2 c-0.4,3-1.4,4.1-4.4,4.7c-2,0.4-4.1,0.7-6.1,0.7c-9.8,0.1-19.6,0.1-29.5,0.1c-1.8,0-3.7-0.3-5.5-0.3c-4.2,0-8.4-0.2-12.6,0.1 c-7.3,0.5-13.3-1.4-18.3-7.3c-4-4.7-6-9.4-6.1-15.4c-0.1-9.1-0.9-18.2-0.9-27.3c-0.1-10.7,7.9-19.2,18.3-21.8 c6.4-1.6,12.8-0.3,19.1-1.3c10.1-1.5,20,1.2,30,0.9c3.5-0.1,7,0.1,10.6,0.2c2.6,0.1,4.4,1.4,4.9,4C760.4,566,761.3,571,762.3,576.2z "></path> </svg> 