<?xml version="1.0" encoding="UTF-8"?> <svg xmlns="http://www.w3.org/2000/svg" id="Layer_1" data-name="Layer 1" viewBox="0 0 2689.11 763.11"><defs><style>.cls-1{fill:#fff;}</style></defs><path class="cls-1" d="M124.79,1276.45H508.57s91.38-2.61,96.6,172.31l-159.26,36.55s2.61-60-57.43-54.83-91.38,5.22-91.38,5.22l300.24,336.8s20.88,26.1,20.88,70.49-15.66,180.14-109.65,180.14h-295s-54.82-13.05-80.93-73.1-28.72-99.21-28.72-99.21L234.44,1796l39.16,5.22s-2.61,52.22,15.67,52.22H398.92s23.5-7.83,5.22-26.11-287.19-329-287.19-329l65.27-62.66H101.29Z" transform="translate(-101.29 -1273.84)"></path><polygon class="cls-1" points="545.65 28.72 689.25 0 723.19 5.22 723.19 744.07 556.1 744.07 545.65 28.72"></polygon><path class="cls-1" d="M905.41,1279.06s-36.55,96.6-36.55,164.48l99.21,2.61-80.93,44.38s-33.94,44.38-28.72,201,80.93,279.36,208.86,326.35,235-7.83,235-7.83,96.6-67.88,127.93-114.88l-78.32-125.32h-39.17s-57.43,99.21-127.92,99.21-125.32-67.88-151.43-141-5.22-159.26,10.44-203.64,31.33-80.93,31.33-80.93h156.65s39.16-2.61,39.16,54.82h161.87s2.61-96.6-31.33-141-62.66-78.32-101.82-78.32S898.88,1285.58,905.41,1279.06Z" transform="translate(-101.29 -1273.84)"></path><path class="cls-1" d="M2147.09,1600.18c-20.89-41.77-94-41.77-94-41.77,75.71-78.32,67.88-130.54,52.21-206.25s-101.82-78.32-101.82-78.32H1651l-15.67,159.25c-3.91,3.92,47,2.61,47,2.61v130.54H1638V1702h36.55v130.54c0,49.61-39.16,52.22-39.16,52.22v133.15l54.83,7.83c83.54,0,120.09-73.1,120.09-73.1l-10.44,54.83c117.49,41.77,127.93,26.1,235,26.1S2160.14,1890,2160.14,1890v-193.2S2168,1642,2147.09,1600.18ZM1844.23,1435.7c2.62,2.61,86.16,0,86.16,0s7.83,18.28-10.44,60c-28.72,60-75.72,54.83-75.72,54.83Zm114.88,451.67c-39.16-5.22-78.32-20.89-78.32-20.89s-18.28-7.83-31.33,0-2.61-13-2.61-44.38-2.62-122.71-2.62-122.71h141v112.27S1998.27,1892.59,1959.11,1887.37Z" transform="translate(-101.29 -1273.84)"></path><path class="cls-1" d="M2727.74,1276.45c-60,0-370.73-2.61-370.73-2.61L2205.58,1313v621.36s-5.22,88.77,99.21,88.77h409.9s75.71-2.61,75.71-65.27V1388.71S2787.79,1276.45,2727.74,1276.45ZM2610.26,1856H2385.73V1441.11c-.06-.06-.07-.12,0-.18v.18c3.51,3.6,224.53-.18,224.53-.18Z" transform="translate(-101.29 -1273.84)"></path></svg> 