<?xml version="1.0" encoding="UTF-8"?> <svg xmlns="http://www.w3.org/2000/svg" id="katman_1" data-name="katman 1" viewBox="0 0 476.09 464.13"><defs><style>.cls-1{fill:#fff;}</style></defs><path class="cls-1" d="M420.89,189c5.72,0,10.68,0,15.64,0a48.13,48.13,0,0,1,47,37.17,54.11,54.11,0,0,1,1.44,12.29q.12,95,.05,190C485,456.6,463.71,478,435.62,478H119.71c-28.16,0-49.57-21.37-49.61-49.63-.06-35.33,0-70.65-.14-106,0-2.26-1.17-5.35-2.87-6.64C40.18,295.23,24.72,267.65,16,235.49,11.55,219.22,8.36,203,9,186a133.85,133.85,0,0,1,20.9-67.22c20-31.87,49.12-51,85.1-60.87,19.46-5.31,38.62-11.68,58-17.43,26-7.74,51.72-16.47,78-22.76C291.44,8.1,328.84,16.63,362.51,41,391.3,61.88,407,91,416.15,124.66A175,175,0,0,1,422,177.75C421.86,181.19,421.33,184.62,420.89,189ZM17.49,191.2c.53,6.29.4,12.73,1.73,18.86,2.42,11.19,5.42,22.28,8.66,33.27A127,127,0,0,0,186,329.6q68.42-20.21,136.64-41.11c55.84-17,92.2-67.17,91.26-125.53-.27-16.69-5.25-32.4-9.88-48.22C384.63,48.55,316.47,9,250,27.07c-48.76,13.29-97.11,28.22-145.26,43.6C52.49,87.36,17.85,136.36,17.49,191.2Zm61.7,133.14c-.07,1.67-.18,3-.18,4.24q0,50.48,0,101a39.38,39.38,0,0,0,39.31,39.52q159.44.12,318.88,0a38.91,38.91,0,0,0,38.85-38.77q.17-97,0-193.93c0-16.32-10.77-31.69-26.47-36.14-7.65-2.17-16.09-1.46-24.12-2.47-5.27-.66-7,1.77-8.43,6.43-14.33,46.73-45,77.82-91.43,92.53-42.94,13.59-86.34,25.72-129.31,39.19-32.6,10.22-64.68,10.73-96.6-1.95C92.82,331.21,86.25,327.67,79.19,324.34Z" transform="translate(-8.92 -13.86)"></path><path class="cls-1" d="M242.71,70.83,136,104.52c3,9.43,5.86,18.71,8.78,28q12.79,40.68,25.61,81.37c.3.95.64,1.89.87,2.86.74,3.22-.3,5.67-3.49,6.74-3.35,1.13-5.54-.66-6.61-3.62-1.76-4.85-3.25-9.78-4.8-14.7Q140.65,155.43,125,105.7c-2.15-6.87-1.31-8.57,5.36-10.67Q186,77.45,241.7,59.92c7.1-2.24,8.75-1.41,11,5.62q17.72,56.13,35.32,112.3c.56,1.79,1,4.26.21,5.64-.91,1.55-3.66,3.37-5,3a8.47,8.47,0,0,1-5-4.68c-4-11.8-7.61-23.75-11.36-35.64q-11.46-36.41-23-72.78A23.5,23.5,0,0,0,242.71,70.83Z" transform="translate(-8.92 -13.86)"></path><path class="cls-1" d="M386.35,221.86c-4.55,1.47-8.27,2.88-12.12,3.79-1.1.26-2.83-.61-3.79-1.49-4.28-3.95-8.39-8.09-12.55-12.17-3.42-3.36-3.41-3.37-8.49-.91,2.06,6.67,4.14,13.43,6.31,20.48l-11.62,3.76-16.86-53.23c10.48-2.69,20.39-5.92,30.56-7.61,6.71-1.11,11.83,3.41,14.43,10,2.87,7.3,1.81,12.4-3.74,17.63a13.6,13.6,0,0,1-2.73,1.43Zm-30.2-36.4c-11.31-.26-14.68,4.13-11,12.24.46,1,2.24,2.33,3,2.12,3.34-.87,6.92-1.73,9.65-3.66a7.66,7.66,0,0,0,2.52-6.5C359.87,187.68,357.1,185.49,356.15,185.46Z" transform="translate(-8.92 -13.86)"></path><path class="cls-1" d="M320.34,196.62l-24,7.75,2.88,9.63,22.69-7.08,3.5,10.61-22.62,7.38L306,235.36l24.73-7.62c.58.46.76.53.82.67,4.4,9.18,4.25,9.57-5.15,12.55s-18.64,5.88-28.6,9c-5.59-17.57-11.09-34.9-16.75-52.71l35.68-11.34C317.86,189.38,319,192.63,320.34,196.62Z" transform="translate(-8.92 -13.86)"></path><path class="cls-1" d="M194.21,282.64c1.06-11.14,2-21.36,3-31.57.85-8.44,1.67-16.88,2.87-25.27a5.76,5.76,0,0,1,3.4-3.81c2.4-.73,6.4-1.63,7.5-.43,12.88,14.13,25.33,28.64,38.44,43.67-4.15,1.35-7.64,2.82-11.28,3.5-1.27.23-3.54-1.12-4.26-2.37-3.59-6.25-8.32-7.21-14.35-3.83a2.69,2.69,0,0,1-.94.32c-7.88,1-12.8,4.56-11.61,13.49a3.2,3.2,0,0,1-1.43,2.69C202.07,280.35,198.45,281.33,194.21,282.64Zm26.9-31.55-11.62-14.27c-.4,7-.71,12.31-1.05,18.35Z" transform="translate(-8.92 -13.86)"></path><path class="cls-1" d="M96.1,255.69c8.8-2.64,16.49-5.36,24.39-7.21,13.79-3.22,25.18,8.39,20.54,21.14-1.32,3.65-4.9,7.08-8.32,9.22-4.27,2.67-9.45,3.89-14.51,5.85,2,6.48,4,12.94,6.27,20.1l-11.66,3.76ZM115,274.54c3.93-1.42,7.28-2.36,10.38-3.83s4.45-4,3.34-7.41a5.8,5.8,0,0,0-7-4.17c-3.53.61-7,1.81-10.74,2.83C112.34,266.3,113.53,270,115,274.54Z" transform="translate(-8.92 -13.86)"></path><path class="cls-1" d="M276.75,198.72c-2,7.2-3.19,13.57-5.53,19.5-4.49,11.42-4.71,22.47.7,33.58.77,1.59,1,3.47,1.56,5.7l-11.39,3.82c-1.92-6-3.36-11.84-5.65-17.28a25.67,25.67,0,0,0-6.36-9c-7.71-6.77-15.84-13.06-24.56-20.15,4.69-1.47,8.52-3,12.49-3.73,1.55-.29,3.78.82,5.11,2,4.61,4,9,8.27,14.16,13.15,1.6-6.47,3.33-11.8,4.15-17.26.73-4.89,3.11-7.29,7.8-8C271.34,200.6,273.36,199.74,276.75,198.72Z" transform="translate(-8.92 -13.86)"></path><path class="cls-1" d="M168.41,279c5.65-1.74,11.15-3.06,16.34-5.15,4.35-1.75,6.08-.33,6.87,3.78.3,1.61.9,3.16,1.58,5.49L160.12,293.6c-5.62-17.7-11.06-34.87-16.74-52.78l11.72-3.56C159.59,251.33,164,265,168.41,279Z" transform="translate(-8.92 -13.86)"></path><path class="cls-1" d="M274.43,432.68V397.13h12v54.81c-4.74,0-9.67.21-14.55-.16-1.17-.09-2.4-2-3.22-3.35-7-11.28-13.94-22.62-21.74-35.32v38.57H234.68V396.81c5.08,0,10.17-.21,15.22.15,1.18.09,2.45,2,3.27,3.31,6.73,10.85,13.37,21.76,20,32.65Z" transform="translate(-8.92 -13.86)"></path><path class="cls-1" d="M126.32,452.46V397.19c9.53,0,18.82-.46,28.05.15,7,.46,11.35,4.75,12.41,10.41,1.18,6.26-1,10.52-7.69,14.81.32.36.56.85.95,1,7.33,3.44,10.12,7.78,9.36,14.64-.71,6.39-5,11.68-12.28,12.55C147.1,452,136.94,451.94,126.32,452.46Zm12.17-10.59c4.91-.24,9.34.15,13.41-.89,2.1-.53,4.43-3.32,5.09-5.56,1-3.26-1.7-5.29-4.78-5.67-4.5-.54-9.05-.59-13.72-.87ZM138.42,419c4.11-.2,7.91.27,11.21-.8,2.11-.69,4.61-3.55,4.8-5.63.14-1.61-2.78-4.57-4.79-5.05-3.52-.84-7.38-.24-11.22-.24Z" transform="translate(-8.92 -13.86)"></path><path class="cls-1" d="M434.06,429.16c4.48,7.52,8.79,14.75,13.61,22.82-4.77,0-8.69.23-12.56-.13-1.26-.11-2.81-1.49-3.5-2.7-2.86-5.06-5.69-10.16-8.05-15.46-1.63-3.65-3.9-4.47-7.93-3.19v21.28H403.5v-54.4c9.69,0,19.32-.69,28.79.21,8.11.78,12.16,5.89,13.1,13.44C446.45,419.52,443.44,424.49,434.06,429.16Zm-18.16-10c4,0,7.77.62,11.16-.22a9,9,0,0,0,5.56-5c1.05-3.27-1.38-5.8-4.73-6.3-3.86-.58-7.81-.53-12-.77Z" transform="translate(-8.92 -13.86)"></path><path class="cls-1" d="M311,451.71H298.53V397h12.15v20.71l1.1.47c4.47-4.77,9.37-9.22,13.31-14.41,4.37-5.76,9.55-8.24,16.63-7.08a46.48,46.48,0,0,0,6.21,0L323.5,422.34,350.14,452c-5.76,0-10.51.23-15.22-.13-1.51-.11-3.18-1.52-4.29-2.78-6.37-7.2-12.59-14.53-19.67-22.77Z" transform="translate(-8.92 -13.86)"></path><path class="cls-1" d="M367.17,408v9.9h23.39v11.45H367.24v11.35h26.2v11H355.13V397.14h36.59V408Z" transform="translate(-8.92 -13.86)"></path><path class="cls-1" d="M229,452h-4.77c-8.93,0-9,.07-12.26-8.1-1.06-2.68-2.36-4.16-5.43-3.75a22.33,22.33,0,0,1-5.48,0c-7.83-.91-14.49-.16-15.92,9.64-.13.87-2,2-3.19,2.09-3.43.28-6.91.1-11,.1l17.27-40.24c1.25-2.9,3-5.68,3.7-8.7,1.38-5.81,5.1-7.21,10.27-6.18,1.36.28,3.2,1.2,3.7,2.33C213.59,416.46,221.09,433.83,229,452Zm-29.49-39.17L193,429.7h13.12C203.94,424.15,201.91,419,199.49,412.81Z" transform="translate(-8.92 -13.86)"></path></svg> 