<?xml version="1.0" encoding="UTF-8"?> <svg xmlns="http://www.w3.org/2000/svg" xmlns:xlink="http://www.w3.org/1999/xlink" version="1.1" id="Layer_1" x="0px" y="0px" viewBox="0 0 1000 1000" style="enable-background:new 0 0 1000 1000;" xml:space="preserve"> <path style="fill:#FFFFFF;" d="M36,447.6c1.1-6.3,3.4-12.6,3.1-18.9c-0.7-15.5,5.9-25.5,20.3-30.8c7.4-2.7,14.5-7.6,22.1-8.3 c17.4-1.7,28.1,9.2,28.6,26.9c0.2,7,1,13.9,1.6,20.9c1.1,0,2.2-0.1,3.3-0.1c0-6.6,0.2-13.3-0.1-19.9c-0.2-5-0.9-9.9-1.4-14.9 c-1.6-16.1,8.7-18.1,20.6-17c6,0.5,12,0,18,0.3c3.8,0.2,7.6,0.9,11.3,1.8c3.4,0.8,6.7,2.2,10.1,3c7,1.6,12.3,3.7,14.8,12 c2.9,9.5,7.9,18.2,6.1,28.6c-0.6,3.5-0.5,7.3-1.8,10.6c-3.7,9.4-7.2,19.1-12.3,27.8c-4.7,7.9-11.9,13.7-21.9,15.1 c-12.5,1.8-14.8,6.8-13.1,18.8c1,7.2-1.5,15-2.9,22.4c-0.6,3.2-2.1,6.4-4,9.1c-2.1,2.9-5.9,7.6-7.4,7.1c-3.5-1.2-8.2-4.8-8.7-8 c-3-20.1-6.9-40.2-1.5-60.5c0.5-1.9,1.3-4,0.9-5.7c-2.2-8.6-4.7-17.1-7.3-26.3c-1,2.4-1.5,5-2.9,6.6c-2.2,2.4-5,4.5-7.9,6.2 c-1.8,1.1-4.2,1.6-6.4,1.9c-3.5,0.5-8.1,2-10.3,0.4c-2.4-1.9-3.5-6.6-3.6-10.1c-0.2-4.2,4.8-10.1-2.3-11.5 c-2.2-0.4-7.6,6.2-8.4,10.2c-1.3,6.3-0.3,13.2,0.7,19.6c0.2,1.5,4.8,3.3,7.3,3.3c11.8,0,22.5,9.1,22.2,20.8 c-0.3,10.5-1,21.2-3.2,31.4c-3.3,14.7-19.8,27.1-34.3,26.3c-4.4-0.3-8.8-3.5-13-5.7c-1.4-0.7-2.4-3.4-3.5-3.4 c-9.9,0.4-8.4-6.3-8.5-12.5c-0.1-7.2,3.3-11.2,10-13.5c2.9-1,5.2-3.8,9.6-7.2c1.1,3.4,2.1,6.3,3,9.2c0.6,1.8,0.6,3.9,1.5,5.5 c1,1.7,2.7,4,4.2,4c1.5,0,4.1-2.1,4.5-3.7c3.3-13.7,2.5-25.1-11.3-30.1c-11.5-4.2-16.9-12.6-19.5-24.1c-0.9-3.8-4.4-7.1-6.7-10.6 C36,452.1,36,449.8,36,447.6z M146.9,465.1c14.8-11,19.8-26.7,13.7-41.6c-0.8-2-5.3-4.1-7.5-3.5c-6.3,1.6-9.4,6.5-9.1,13.1 c0.4,7.7,1,15.4,1.6,23.1C145.8,458.7,146.3,461.3,146.9,465.1z"></path> <path style="fill:#FFFFFF;" d="M650.5,425.6c-5.6,11.1-16.2,6.5-23.7,8.8c-4.7,1.4-9.6-7.2-8.8-13.8c0.3-2.5,1.6-4.9,1.6-7.3 c-0.1-1.9-1.1-4.8-2.5-5.4c-1.5-0.6-4.4,0.5-5.8,1.7c-4.9,4.4-5.9,24.5-1.7,29.4c1,1.2,2.6,2.2,4.1,2.7 c24.8,7.6,27.1,18.6,23.9,37.2c-0.4,2.2-0.7,4.5-0.3,6.7c2.6,15.5-7.6,25-16.7,34.6c-7.5,7.9-26.8,5.3-33.4-3.4 c-1.6-2.2-3.4-5.4-5.5-5.8c-10.5-2-6.7-10-7.3-16c-0.7-6.3,3-9.7,8.5-11.9c2.8-1.1,5.2-2.9,8-4.1c1.8-0.8,4.3-1.9,5.6-1.3 c1.5,0.8,2.7,3.3,3,5.2c0.5,3.3-0.4,6.8,0.3,10c0.5,2,2.9,3.4,4.5,5.2c1.6-1.7,4.1-3.1,4.5-5.1c3-14.5-1.4-25-13.9-33.1 c-8.7-5.6-14.2-12.9-16.2-23.3c-1-5.3-4-10.3-6.1-15.4c-0.6-1.5-1.7-3.1-1.6-4.7c0.7-11.6,0.8-23.3,2.8-34.6c1.7-10,8-17.1,19-18.5 c1.9-0.2,3.8-1,5.6-1.8c24.5-10.3,47.1,4.2,48,31c0.2,5.9,0.2,11.8,0.6,17.6c0.1,1.1,1.3,2.2,2.3,3.7c0.9-9.5,0.9-18.5,2.6-27.1 c2.5-12.1,14.7-20.5,27.3-20.2c1.4,0,3.3,0.7,4.1,0c8.2-7.3,14.2-3.7,19.9,3.5c1.1,1.4,3.3,2.1,5.1,2.8c14.5,5.3,16.9,8.8,17,24.5 c0,3.6,1.7,7.2,1.4,10.7c-0.6,8.7-0.6,17.8-3.4,25.9c-2.5,7.1-10.6,8.1-17.4,6.5c-6.2-1.4-6.6-7.2-7-12.8c-0.3-4.3-1.5-9.1-4-12.4 c-3.3-4.3-10.1-2.6-11.1,2.8c-1.3,7.3-1.1,14.9-1.2,22.4c-0.1,11.6-0.2,23.1,0.4,34.7c0.3,6.5,1.1,13.3,3.4,19.3 c2.5,6.4,7.4,6.2,10.7,0.2c1.2-2.2,1.7-5.1,3.5-6.6c2.4-2.1,6.1-4.7,8.6-4.2c3,0.7,7.8,4.5,7.6,6.7c-0.6,9.5-2.6,19-4.2,28.4 c-0.2,1-1,2.3-1.8,2.7c-6.5,3.4-13,6.8-19.7,9.7c-1.4,0.6-3.9-0.2-5.5-1.1c-5.1-3-10.3-5.8-14.9-9.5c-8.8-7-14.2-16.2-15.4-27.7 c-0.6-5.1-2.1-10.2-3.2-15.3c-0.6-3-1.8-6-1.7-8.9c0.2-12.4,0.8-24.8,1.1-37.2C651.3,429.8,650.7,427.7,650.5,425.6z"></path> <path style="fill:#FFFFFF;" d="M453.7,396.9c-6.7,5.1-9.5,12.1-9.4,20.2c0.1,6.2-1.4,10.3-8.5,12.3c-8,2.2-11.2,11.7-8.2,19.9 c5.4,14.8,11,29.6,15.7,44.7c2,6.3,2.7,13.2,2.4,19.7c-0.2,3.8-2.6,9.1-5.6,10.6c-5.1,2.6-9.5-1.5-10.7-6.4 c-2.8-11.7-8.9-21.2-16.5-30.5c-3.6-4.4-4.5-10.9-6.6-16.4c-1,0-1.9,0.1-2.9,0.1c-0.6,2.9-2.1,5.8-1.8,8.6 c1.3,14-5.1,25.9-10.2,38.1c-1.1,2.6-5.3,5.1-8.1,5.2c-2.1,0-5.5-3.7-6.2-6.3c-1.8-7.2-2.6-14.7-3.5-22.2c-1.8-14.3-4.4-28.5-5-42.9 c-0.9-23.6-0.6-47.3-0.6-71c0-5.4,0.2-11,1.5-16.3c1.5-6.1,7.6-7.9,13.2-4.8c2.4,1.3,5,2.5,7.6,3.4c4,1.3,10.3,1.1,11.8,3.7 c2.6,4.8,3.3,11.2,3.2,16.8c-0.1,10.4-1.4,20.8-2.2,32.4c12.1-6.2,14.1-17.3,17.5-27.2c2.5-7.3,3.5-15.2,5.5-22.7 c1.7-6.5,6-10.1,13-9.2c8,0.9,15.9,2.4,23.9,3.1c3.2,0.3,6.6-0.5,9.8-1.4c7.6-2,10.8,0.2,12.2,7.6c1.9,10.6,4.4,21.1,6.8,31.5 c0.3,1.1,2,2.9,2.5,2.7c1.4-0.5,3.5-1.8,3.5-2.8c0.1-10.8,10.7-19.2,6.9-31c-0.2-0.5,5-3.8,7.8-4.1c6.1-0.7,12.3-0.2,18.5-1.1 c4.4,2.7,4.5,6.7,2.2,12.1c-2.4,5.4-2.9,11.6-4.3,17.5c-1.3,5.8-1.5,12.1-4,17.4c-13,27.5-18.5,56.5-18.3,86.8 c0,5.3-0.6,10.6-0.8,15.8c-0.2,7.2-6.4,9.6-11.3,11.8c-2.2,1-7.2-1.5-9.6-3.8c-2.1-2.1-3.1-6-3.3-9.2c-0.9-12.4-2.3-24.8-1.8-37.1 c0.6-13.2-3.3-24.9-6.8-37.3C469,421.3,463.2,408.6,453.7,396.9z"></path> <path style="fill:#FFFFFF;" d="M619.1,584.8c-4.1,6.7-8.2,11.4-16.2,11.1c-4.5-0.2-7.1-1.6-8-6.6c-0.5-2.6-3.8-4.8-5.9-7.1 c-2.1,2.5-5.8,4.9-6,7.6c-0.7,9.2-0.6,18.6,0.2,27.8c0.3,3.1,3.4,5.9,5.3,8.9c2.4-1.5,4.7-3.4,7.2-4.4c3.1-1.3,6.4-1.9,9.6-2.8 c0.8,2.9,2.6,6,2.2,8.8c-2,11.9-13.7,15.8-25.4,12.6c-19.4-5.4-20.5-19.9-21.6-35.4c-0.4-5.3-0.6-10.6-0.8-15.6 c-4.8-0.3-9.2-1.4-13.2-0.7c-2.5,0.4-5.3,3.1-6.5,5.6c-1.1,2.3,0.3,5.5-0.1,8.2c-1.3,10.8-2.5,21.7-4.6,32.4 c-0.5,2.6-4.4,4.5-6.8,6.8c-2.2-2.4-5.9-4.6-6.4-7.3c-2.2-12.7-3.9-25.5-4.9-38.3c-0.5-5.9-0.8-9.6-8.1-6.8 c-1.4,0.5-5.2-0.9-5.3-1.8c-1.1-7.8-1.9-15.6-2.1-23.4c-0.2-7.3,4.3-10.4,11.4-10.2c12.3,0.4,24.7-0.2,36.8,1.5 c4,0.5,7.3,6.6,10,9.2c9.2-3,19.2-7.5,29.8-9.2c5.2-0.8,11.2,4,17,5.7c7.5,2.2,7.9,7.7,7.9,13.9c0,1,0.8,1.9,3.4,2.9 c0-4.3,0-8.7,0-13c0.1-8.3,3.6-10.9,11.6-8.9c2.1,0.5,4.9-0.2,6.5,0.9c2.7,2,6.2,4.7,6.7,7.5c1,6.6,0.1,13.4,0.5,20.1 c0.1,1.9,2.3,3.7,3.6,5.5c1.6-1.9,4.3-3.7,4.4-5.7c0.3-4.4-0.5-8.8-1.1-13.3c-1.2-9.6,1.6-13.4,11-13.2c11.1,0.3,22.2,1.2,33.2,2.3 c1.9,0.2,4.5,2.6,5.2,4.6c2.1,5.3,3.3,11,4.9,16.5c0.8,0.3,1.6,0.7,2.4,1c1.8-3.9,4.9-7.7,5.2-11.7c0.6-7.5,4.5-7.6,10.3-6.9 c4.9,0.6,9.8,0.1,16.5,0.1c-5.9,12.4-11.6,22.3-15.1,32.8c-3.8,11.5-5.5,23.6-8.2,35.5c-0.8,3.4-0.8,7.7-3,9.8 c-6.6,6.5-14.1,3.5-15.4-5.8c-1-7-0.6-14.3-1.9-21.2c-2.6-13.8-8.1-26.4-19.5-37.3c-1,12.3-1.9,23.7-3,35.1 c-0.8,8.4-1.1,16.9-2.8,25.2c-1.4,6.9-8.1,4.5-12.7,4.8c-5.2,0.3-7.5-2.9-7.5-8c0-7.4,0-14.9,0-22.3c-0.9-0.4-1.8-0.8-2.8-1.2 c-1.4,2-3.6,3.8-3.9,5.9c-0.9,5.5-0.9,11.1-1.3,16.7c-0.3,4.4,0.4,9.5-6.5,9.3c-6.6-0.2-12.1-2.9-12.8-9.7 c-1.1-9.8-0.7-19.8-1.3-29.6C621,597.7,619.9,591.2,619.1,584.8z"></path> <path style="fill:#FFFFFF;" d="M278.6,457.5c1.2-8.4,2.9-16.9,3.6-25.4c0.9-10.8,0.4-21.7,1.5-32.4c0.5-5,3-9.9,5.3-14.5 c1.7-3.4,4.8-6.2,6.9-9.5c8.9-14.1,25.7-19.1,40.8-12c2,0.9,4.3,2.1,5.4,3.8c11.7,18.3,23.7,36.3,19.9,59.9 c-3.1,19.8-4.7,39.7-7.2,59.6c-0.4,3.2-1.7,6.5-3.4,9.2c-6,9-12.5,17.6-18.5,26.6c-5.2,7.8-7.6,8.6-15.8,4.1 c-1.3-0.7-3.1-0.3-4.5-0.8c-3.5-1.1-7.1-2-10.2-3.7c-3.1-1.8-5.8-4.3-8.3-6.9c-1.9-1.9-4-4.1-4.6-6.5c-3.4-14-6.5-28.2-9.6-42.3 C279.2,463.7,279,460.6,278.6,457.5z M318.5,484.9c1.2,0,2.3,0.1,3.5,0.1c1.3-2.8,3.6-5.5,3.7-8.4c0.5-18.8,0.6-37.6,0.4-56.5 c0-5.2-5.6-6.4-7.3-3.1c-3.9,7.5-7.2,15.8-8,24.1c-0.7,7.1,2.4,14.6,3.8,21.9C315.9,470.3,317.2,477.6,318.5,484.9z"></path> <path style="fill:#FFFFFF;" d="M278.2,434c-2.8,19.8-5.5,39.6-8.6,59.3c-0.5,3.1-2.3,6.1-4.1,8.8c-5.4,8.1-11.5,15.7-16.5,23.9 c-5.7,9.4-6.1,8.3-16.7,6.4c-8.1-1.5-14-4.1-20.3-9c-4.9-3.8-7-7.5-8.1-13.2c-2.8-15-7.5-29.7-9-44.8c-1-9.9,2.6-20.2,3.5-30.3 c0.7-8,0.2-16.1,0.3-24.1c0-2.2-0.1-4.5,0.3-6.6c3.9-19,31.6-37.2,50.3-31.7c5.5,1.6,9.6,8.4,14.2,13 C276.9,399.2,277.7,416.3,278.2,434z M233.6,490.5c1.1,0.1,2.2,0.1,3.3,0.2c1.1-1.8,3-3.6,3.1-5.4c0.8-19.7,1.5-39.5,1.6-59.2 c0-4.6-3.9-5.8-7.9-3.1c-3.9,2.6-9.4,21-8.4,25.3c1.9,7.9,3.2,16,4.8,24C231.2,478.4,232.4,484.4,233.6,490.5z"></path> <path style="fill:#FFFFFF;" d="M873.5,480.9c1.7,2.6,2.9,5.6,5.1,7.4c15.7,12.5,9.6,29.9,10.4,45.6c0.1,2.4-5.4,7.7-6.2,7.2 c-4.8-2.2-11.1-4.9-13-9.1c-3.9-8.7-5.5-18.2-12.5-25.7c-2-2.1-0.3-7.3-1.7-10.3c-1.7-3.6-5-6.4-7.7-9.5c-1.8,3.1-4.8,6-5.3,9.3 c-1.8,11.3-2.7,22.8-4.2,34.2c-0.8,6.1-7.9,8.9-11.8,4.4c-5.9-6.7-10.9-13.8-11.5-23.6c-1-15.8-3.5-31.5-4.6-47.4 c-0.5-7.3,1.4-14.8,1.3-22.2c-0.2-14.8-1.2-29.6-1.4-44.3c-0.1-9.5,1.2-18.6,12.6-21.7c1.6-0.4,3.3-1,4.8-0.7 c11,2.7,22,5.6,32.9,8.6c16.2,4.4,25.1,16.2,27.8,32.7c2.7,16.3-0.1,32.1-1,48.1C887.3,471.5,882.8,476.4,873.5,480.9z M845.3,412.4 c-3.4,16.1-0.3,32.1,0.9,48.6c15.2-6.9,19.3-13.7,17.8-30.3c-0.3-3-3.4-6.1-5.9-8.5C854.8,419.1,850.7,416.5,845.3,412.4z"></path> <path style="fill:#FFFFFF;" d="M723.4,489.3c1.6-10.8,3.8-25.1,5.9-39.3c3.1-20.8,5.5-41.7,11.9-61.9c0.9-2.9,2.4-5.7,3.1-8.7 c1.3-5.7,5-6.6,10.1-6c3.4,0.4,7.5,0.5,10.2-1.1c10.5-6.2,19.6-4.7,24.9,6.2c3.1,6.3,4.5,13.7,5.5,20.8c2.6,18,4.6,36.1,6.7,54.2 c0.5,4.4,0.1,8.9,0.3,13.4c0.6,19.5,1.3,39,1.8,58.5c0.1,5.8-2.2,10.9-8.7,11.2c-7.2,0.4-12-5.6-12.9-12.7 c-1.4-10.6-3.2-21.1-5.6-31.5c-1-4.1-4.2-6.9-8.5-1.8c-1.5,1.8-3.9,4.1-5.8,4.1c-9.1-0.2-10.5,5.8-11.1,12.6c-0.3,3-0.5,6.1-0.9,9.1 c-1.1,9.3-9.2,11.1-15.8,13.2c-5.8,1.9-8.4-2.7-8.8-8.3C724.9,511.9,724.3,502.4,723.4,489.3z M764,417.1c-0.8,0.3-1.5,0.7-2.3,1 c-2.2,11.1-4.5,22.3-6.5,33.4c-0.8,4.4-1.6,9.3,5.5,9.6c6.5,0.3,11.3-1.1,10.6-9.1c-0.7-9.2-1-18.5-2.2-27.6 C768.8,421.8,765.8,419.5,764,417.1z"></path> <path style="fill:#FFFFFF;" d="M433.3,607.9c4.1,5.8,7.7,10.8,11.4,16c1.4-8.5,2.5-17.7,4.6-26.6c2.5-11,5.7-21.8,9-32.6 c1.4-4.6,4.3-7.5,10.1-6.7c2.4,0.3,5.3-1.1,7.7-2.2c9.6-4.5,19.2,0.3,20.6,10.7c2.8,21.1,5.5,42.3,8.1,63.5c0.6,5.2,0,11.1-6.2,12 c-5.6,0.9-10.1-1.5-10.6-8.8c-0.3-4.3-2.4-8.5-3.9-12.6c-0.4-1.1-1.7-2.4-2.8-2.7c-3.7-1-16.2,8.1-16.2,12.2 c-0.1,8.6-7,9.2-12.6,10.7c-1.2,0.3-3.9-2.3-4.9-4.1c-1.2-2.3-1.3-5.2-2.3-9.5c-1.1,2.5-1.5,3.3-1.9,4.2c-1.5,3.2-3,6.4-4.5,9.6 c-3.8-1.9-8.7-2.9-11.1-5.9c-4.3-5.5-7-12.2-10.7-18.3c-0.7-1.2-3.4-2.8-3.8-2.5c-1.6,1.2-3.3,3-3.8,4.9c-1.3,4.8-1.4,9.9-2.9,14.6 c-1,3-4.8,8-5.5,7.7c-3.8-1.6-9.7-4.2-10.1-7.1c-1.9-13.8-7.5-27.1-4.8-41.6c1.4-7.5-0.6-15.5-0.7-23.3c-0.1-10.5,5.8-15,16.1-13.3 c5.7,1,11.7,0.6,17.6,0.9c18.6,0.8,28.2,13.7,24.4,32C441.8,596.6,441.8,604.8,433.3,607.9z M410.9,599.3 c7.1-1.6,11.6-4.7,13.1-11.5c2.6-11.5-8.5-9.2-14.8-13.1C409.7,582.7,410.3,590.6,410.9,599.3z M481.1,595.7 c-2-5.1-3.7-9.5-5.5-13.9c-2.1,3.8-4.2,7.6-6.2,11.5c-0.1,0.2-0.2,0.5-0.2,0.8c0.1,3.1-0.2,6.3,0.7,9.2c0.2,0.7,5.2,0.9,6.9-0.3 C478.7,601.5,479.6,598.3,481.1,595.7z"></path> <path style="fill:#FFFFFF;" d="M325.6,583.5c-1.7-17.9,10.3-19.9,22.8-24.5c11-4,18.2,2.5,26.7,4.3c8.9,1.9,4.2,13.1,7.2,19.8 c1.1,2.5-2.4,8.7-5.4,11.2c-6.5,5.3-12.2,2.3-15.5-5.9c-0.8-2.1-4.4-4.3-6.8-4.4c-1.6-0.1-4.7,3.4-4.8,5.4 c-0.4,10.2-0.4,20.4,0.2,30.6c0.1,2.6,2.8,5.1,4.4,7.6c2.4-1.5,4.8-3.1,7.3-4.3c3.2-1.5,6.7-2.7,10-4c0.7,3.2,2.1,6.5,2.1,9.7 c0,6.6-2.8,10.6-10.2,12c-5.3,1-8.8,4.8-15.8,1.2c-17.7-9.2-21.6-13.8-21.4-33.4c0-5.4-0.7-10.8-1.1-15.4c-3.4,1-7.2,2.5-11.1,3.1 c-11.1,1.4-11.9,0.6-14-11.9c-1.8,2.6-5.3,5.3-5,7.7c0.4,3.5-1.7,9.4,5.8,10c14.7,1.1,16.8,3.9,16.1,18 c-0.9,16.4-12.4,26.9-28.6,24.8c-5.9-0.8-11.8-4.5-16.8-8.2c-1.4-1.1-0.5-7.8,1.5-10.1c2.5-2.9,7-4.4,10.9-5.6 c0.9-0.3,3,2.9,4.5,4.6c1.4,1.7,2.6,3.5,3.9,5.3c1-2.2,3.3-5,2.6-6.5c-1.7-3.6-4.2-8.7-7.4-9.5c-12.5-3.2-16.1-13.6-19.7-23.1 c-4.7-12.5,3.2-25.1,16.4-28.6c6.4-1.7,13-3.7,19.5-3.6c12.3,0.2,17.8,6.5,18.8,18.8c0.1,1.4,0.5,2.7,0.7,4 C324.2,582.7,324.9,583.1,325.6,583.5z"></path> <path style="fill:#FFFFFF;" d="M933.5,432.8c2-8.5,4.6-17,5.7-25.6c1-8.1,2.2-9.4,10.5-7.8c5,1,10.3,1.2,15.5,1 c6.3-0.2,8.8,4.6,6.2,11.8c-7.3,19.9-15.8,39.5-21.2,59.9c-4.3,16.2-4.9,33.4-7,50.2c-0.6,4.7-0.9,9.4-1.1,14.1 c-0.4,7.7-7,9.4-12.1,10.5c-6.2,1.3-9.8-3.8-10.5-9.6c-1.4-12.6-2.1-25.2-3.3-37.8c-0.8-9-0.5-18.5-3.4-26.9 c-5.2-15.1-6.9-31.7-18.1-44.5c-1.7-1.9-2.1-5.1-2.7-7.8c-1.7-7.8-3.3-15.7-4.5-23.6c-0.4-3-0.4-6.9,1.1-9.2c0.8-1.2,5.3-0.3,8.1,0 c3.8,0.4,7.6,2.1,11.3,1.8c9.5-0.8,12.5,1.5,14.1,10.9c1.8,10.1,4.3,20.1,6.6,30.1c0.2,1.1,1,2,1.5,3.1 C931.3,433.2,932.4,433,933.5,432.8z"></path> </svg> 