<?xml version="1.0" encoding="UTF-8"?> <svg xmlns="http://www.w3.org/2000/svg" xmlns:xlink="http://www.w3.org/1999/xlink" version="1.1" id="Layer_1" x="0px" y="0px" viewBox="0 0 1000 1000" style="enable-background:new 0 0 1000 1000;" xml:space="preserve"> <path style="fill:#FFFFFF;" d="M930.3,768.6c-7.3,22.4-19.2,40.3-43.8,46.3c-1.9,0.5-3.7,1.8-5.6,1.8c-41.7,0.1-83.3,0.1-127.4,0.1 c0-19-0.5-36.9,0.5-54.7c0.2-2.7,7.5-7,11.7-7.2c22-1,44.2-0.5,66.2-1.6c5.1-0.3,10-5.1,15-7.9c-5.2-3.3-10.1-8.6-15.8-9.5 c-9.8-1.6-20-0.4-30.1-0.4c-37.2,0-50.8-8.8-60.3-44.8c-6-22.6-7-46.3,2.8-68.9c8.3-19.1,24.9-29,43.4-29.9 c41-2.1,82.2-0.6,124.1-0.6c0,20.7,0,40.6,0,62.8c-15.6,0-31.5,0-47.3,0c-11.1,0-22.3-1-33.1,0.5c-4.4,0.6-8.1,6.6-12.1,10.1 c4.2,2.5,8.3,6.8,12.6,7.2c12,1,24.1,0.3,36.2,0.4c34.3,0.1,51.1,13.3,60,46.7c0.4,1.7,1.9,3.1,2.9,4.6 C930.3,738.4,930.3,753.5,930.3,768.6z"></path> <path style="fill:#FFFFFF;" d="M680.1,342.7c0,75.4,0,150.2,0,226c-26.1,0-51.4,0-78,0c0-35.2,0-70.2,0-105.3 c-1.1-0.6-2.2-1.1-3.3-1.7c-14.4,18.3-28.7,36.6-44.4,56.5c-16.7-21-31.8-40-49.1-61.8c0,38.9,0,74.9,0,112.3c-28.1,0-54.4,0-81.8,0 c0-35.9,1.3-71-0.4-106c-1.7-34.1,8.1-68.3,1-104.5c-6.3,4.4-9.9,6.9-13.4,9.4c-0.9-0.7-1.9-1.3-2.8-2c3-4.8,6-9.6,10.2-16.3 c-12.1,0-22.9,0-33.6,0c-0.2-1.7-0.3-3.4-0.5-5.1c10.5-0.8,21-1.6,33.3-2.5c-4.5-6.6-8.3-12.3-12.2-18c0.8-0.8,1.6-1.5,2.3-2.3 c5.2,3.9,10.5,7.9,17.4,13.1c0-13.8,0-25.9,0-38.1c-24.5-0.2-40.2,12.4-46,36.7c-2,8.5-1.1,17-1,25.7c0.7,108.6,0.5,217.3,0.4,325.9 c0,2-0.5,3.9-0.9,6.8c-4.3,0.9-8.5,1.8-12.8,2.8c-23.5,5.5-34.4,18.6-34.6,42.4c-0.3,27.7-0.9,55.4,0.3,83c0.5,10.9,5.8,21.5,9,32.8 c-65.2,0-131.4,0-200.1,0C195,692,250.4,532.5,306.5,370.9c-72.5,0-142.6,0-214.8,0c0-57.1,0-112.7,0-170.7 c-6.2,3.3-9.9,5.3-13.5,7.2c-0.7-0.7-1.5-1.3-2.2-2c5.5-6.3,11-12.5,17.2-19.7c-7-1.8-13.4-3.5-19.8-5.1c0-0.8,0.1-1.7,0.1-2.5 c5.4-1.2,10.8-2.3,17.7-3.8c-4.7-6.8-8.7-12.7-12.8-18.5c0.7-0.9,1.4-1.8,2.2-2.7c5.8,4.5,11.6,8.9,18.5,14.2 c1.1-7.1,2.1-13.1,3-19.1c0.9-0.2,1.9-0.3,2.8-0.5c1.6,6.2,3.1,12.4,5,19.9c7.3-6.1,14.2-11.7,21-17.4c0.8,0.6,1.7,1.3,2.5,1.9 c-4.8,6.7-9.7,13.4-16,22.2c10.2,2,18.9,5.1,27.7,5.1c155,0.3,310,0.2,465,0.2c2,0,3.9,0.3,5.9,0.5c-2.3,29.3-44.8,132.7-63.1,151.4 c-14.9-37.7-46.4-38.2-79.3-36.1c-12.9,0.8-26,0.1-39.8,0.1c0,13.1,0,24.9,0,38.9c6.9-5,12.2-8.7,17.5-12.5c0.8,0.6,1.5,1.2,2.3,1.8 c-2.8,4.6-5.6,9.3-9.5,15.8c5.7,1.4,10.6,3.1,15.6,3.6c13.9,1.3,28,0.9,41.6,3.6c6.2,1.3,12.4,7.3,16.8,12.7 c12,15.1,23.1,30.9,35.8,48.2c14.5-19.7,27.5-36.6,39.8-54.1c5.7-8,11.6-11.9,22.4-11.2C636.7,343.6,657.9,342.7,680.1,342.7z"></path> <path style="fill:#FFFFFF;" d="M492,590.4c8,11.7,14.3,21.1,20.7,30.5c2.3-0.6,4.6-1.2,6.9-1.7c1.1-13.5,2.2-26.9,3.3-40.4 c0.8,0,1.5,0,2.3,0c0,8.5,0,17,0,29.5c5.5-6.1,8.5-9.5,13.2-14.6c-1.1,8.2-1.9,14.4-3.2,23.5c8-3.1,15.4-4.8,21.4-8.5 c39.1-24.5,79.5-26.1,119.2-4.1c41.3,22.9,60.8,60.7,57.6,107.1c-3.8,55.4-43.3,97.3-96.2,104.7c-59.2,8.3-110.8-25.2-126.8-78.3 c-1.5-5.1-3.1-10.3-5.8-19c-3.4,15-6.4,26.5-8.6,38.1c-6.5,34-50.5,63.8-84.1,61.9c-36.4-2-36.5-1.2-36.5-37.7c0-13.5,0-26.9,0-41.8 c8-0.5,14.9-1.1,21.8-1.2c17.7-0.3,24.4-4.2,25.3-22c1.8-33.5,2.7-67.2,1-100.6c-1.2-24.4-2.5-25.2,22.6-25.4 C462.8,590.3,479.4,590.4,492,590.4z M620.4,671.3c-18.1-0.1-34,14.9-34.3,32.4c-0.2,17.4,16.1,33.8,33.5,33.7 c18.3-0.2,33-15.1,32.9-33.5C652.4,686.4,637.6,671.4,620.4,671.3z M507.8,655.9c-1.5-0.2-3-0.4-4.5-0.6c0,19.9,0,39.7,0,59.6 c0.2,0.1,0.3,0.1,0.5,0.2C505.2,695.4,506.5,675.6,507.8,655.9z"></path> <path style="fill:#FFFFFF;" d="M912,454.8c1.5,63-48.9,113.9-109.8,113.9c-68.7,0-115.7-49-116.3-114.5 c-0.5-53.4,40.2-113.7,116.9-112.7C867.1,342.3,914.3,396.7,912,454.8z M824.5,469.7c1-7.9,1.5-14.4,2.7-20.7 c2.3-12.5-3.7-19.8-14.5-24.3c-15-6.3-30.6-1.6-41,12.2c-7.8,10.4-7.3,30.3,2.2,40.4c9.8,10.6,22.8,16.2,36.4,10 c5-2.3,6.4-12.6,9.5-19.3C820.2,468.1,822,468.8,824.5,469.7z"></path> </svg> 