<?xml version="1.0" encoding="UTF-8"?> <svg xmlns="http://www.w3.org/2000/svg" xmlns:xlink="http://www.w3.org/1999/xlink" version="1.1" id="katman_1" x="0px" y="0px" viewBox="0 0 66 82.5" style="enable-background:new 0 0 66 82.5;" xml:space="preserve"> <g> <path style="fill:#FFFFFF;" d="M21.8,29.4H6v5.6h15.8V29.4z M19.6,32.8H8.3v-1.2h11.4C19.6,31.7,19.6,32.8,19.6,32.8z"></path> <path style="fill:#FFFFFF;" d="M21.8,36.7H6V47h15.8V36.7z M15.2,38.9v6h-2.6v-6H15.2z M8.3,38.9h2.2v6H8.3V38.9z M19.6,44.9h-2.2 v-6h2.2V44.9z"></path> <rect x="6" y="48.5" style="fill:#FFFFFF;" width="15.7" height="2.2"></rect> <path style="fill:#FFFFFF;" d="M2.4,25.8v28.4h23.1v-3.2h3.4v-3.3h4V37.4c1.8-0.6,2.8-2.5,2.2-4.2c-0.6-1.8-2.5-2.8-4.2-2.2 c-1.8,0.6-2.8,2.5-2.2,4.2c0.4,1.1,1.1,1.8,2.1,2.1v8.3h-1.9V43h-3.4V25.8H2.4z M31.8,32.9c0.7,0,1.2,0.6,1.2,1.2 c0,0.7-0.6,1.2-1.2,1.2c-0.7,0-1.2-0.6-1.2-1.2C30.5,33.5,31.1,32.9,31.8,32.9L31.8,32.9z M23.2,52.1H4.6V28h18.6V52.1z M26.6,45.4 V49h-1.3v-3.6H26.6z"></path> </g> <g> <path style="fill:#FFFFFF;" d="M38.7,28.4h-2.4v-2.5h8v2.5H42v7.2h-3.3V28.4z"></path> <path style="fill:#FFFFFF;" d="M45.1,30.7c0-3.8,0-4.9,4.3-4.9s4.3,1.1,4.3,4.9c0,3.8-0.1,4.9-4.3,4.9S45.1,34.5,45.1,30.7z M50.4,30.7c0-2.5,0-2.6-1-2.6c-1,0-1,0.1-1,2.6c0,2.5,0,2.6,1,2.6C50.4,33.3,50.4,33.3,50.4,30.7z"></path> <path style="fill:#FFFFFF;" d="M55,25.9h5c2.6,0,3,1.1,3,3.4c0,2-0.3,3.4-3,3.4h-1.7v2.9H55V25.9z M58.7,30.3 c0.8,0,0.9-0.1,0.9-1.1c0-1-0.1-1.1-0.9-1.1h-0.4v2.1H58.7z"></path> </g> <g> <path style="fill:#FFFFFF;" d="M41.5,50.2h7v3.9H36.3v-2.4c0-3.4,0-5,2.4-6c1.2-0.5,2.3-0.9,3.2-1.3c1-0.4,1.1-0.5,1.1-1.5 c0-0.9-0.3-1-1.8-1c-1,0-2.8,0.1-4.6,0.3v-3.6c1.6-0.3,4-0.6,5.9-0.6c3.2,0,5.9,0.6,5.9,4.6c0,3-1,4.3-2.4,4.8 c-1.1,0.4-2.6,1-3.6,1.4c-0.3,0.1-0.7,0.3-0.8,0.5C41.5,49.5,41.5,49.8,41.5,50.2z"></path> <path style="fill:#FFFFFF;" d="M50.5,46.2c0-7.2,0.6-8.1,6.6-8.1c6,0,6.6,0.9,6.6,8.1c0,7.2-0.6,8.1-6.6,8.1 C51.1,54.3,50.5,53.4,50.5,46.2z M58.3,46.2c0-4.2,0-4.3-1.2-4.3c-1.2,0-1.2,0.1-1.2,4.3c0,4.2,0,4.3,1.2,4.3 C58.3,50.4,58.3,50.3,58.3,46.2z"></path> </g> </svg> 