<?xml version="1.0" encoding="UTF-8"?> <svg xmlns="http://www.w3.org/2000/svg" xmlns:xlink="http://www.w3.org/1999/xlink" version="1.1" id="Layer_1" x="0px" y="0px" viewBox="0 0 1000 1000" style="enable-background:new 0 0 1000 1000;" xml:space="preserve"> <path style="fill:#FFFFFF;" d="M977.8,509.8c-3.5,14.6-7.1,29.1-10.3,43.7c-2.7,12.5-9.4,20.8-23,20.6c-14.9-0.2-27.9-4.1-31.1-21.3 c-0.8-4.1-0.1-9.5-2.5-12c-2.7-2.9-8.4-5-12.3-4.4c-3.5,0.5-8.4,4.6-9.3,8c-4.2,15.2-11.9,25.1-29.3,23.4 c-17.2-1.7-29.6-10.9-29.7-28.2c-0.2-22.6,1.4-45.4,5.2-67.7c5-29,14.9-56.2,36-78.9c18.5-20,38.9-23.6,63.6-15.6 c23.2,7.5,36.6,22.3,39.2,46.5c0.5,4.6,2.3,9.1,3.5,13.6C977.8,461.6,977.8,485.7,977.8,509.8z M919.5,426.2 c-2.8-0.3-5.5-0.6-8.3-0.9c-4.1,17.9-8.5,35.7-12,53.7c-0.5,2.8,3.5,6.4,5.4,9.6c2.8-1.8,7.8-3.2,8.1-5.4 C915.5,464.2,917.4,445.2,919.5,426.2z"></path> <path style="fill:#FFFFFF;" d="M512,524.3c-2.6,3.5-4.8,7.3-7.7,10.4c-5.7,6.1-11.2,11.9-17.7-0.1c-17.1-31.2-33.1-36.6-71.1-21.9 c2.4-9.7,2.3-18.5,6.7-23.5c2.4-2.7,12.5,0.8,19,2.1c4.1,0.8,8.3,4.3,11.9,3.6c5.3-1,10.2-4.7,15.2-7.2c-2.9-4-5.3-8.6-8.8-12 c-11.9-11.5-27.3-20.7-35.9-34.2c-20.5-32.2-11.5-63.9,20.5-84.9c3.7-2.4,6.5-6.3,9.7-9.6c15.9,0,31.8,0,47.6,0 c7.4,6.5,15.5,12.4,22,19.7c11.5,12.8,9.7,28.5-4,37.7c-14.5,9.7-21.9,1.2-27.8-11.4c-1.1-2.4-6.7-5.5-8.2-4.6 c-3.2,1.8-7.6,6.8-6.9,8.9c2.4,6.8,5.6,14.2,10.7,19.1c8.2,7.9,18.2,13.9,27.4,20.9c19,14.4,27,33.7,23.2,56.8 c-0.8,4.8-6.4,9-10.1,13.2c-5.3,6-11,11.7-16.5,17.5C511.4,524.8,512,524.3,512,524.3z"></path> <path style="fill:#FFFFFF;" d="M746.4,521.4c-8.9,28.4-14,32.5-36.2,29.8c-4.1-18.1,8.2-45.1-28.6-48.5c4.8-39.4,8.8-78,14.8-116.3 c1.1-6.9,9.3-17.6,15-18.1c26.8-2.3,54.2-4.6,80.7-1.3c37.1,4.6,47.7,73.2,19.3,98.9c-11.8,10.7-12.8,17.1-4.3,30.4 c19.1,29.9,15.5,43.8-8.8,58.5c-14.9,9-25.3,3.7-34.4-7.4C757.4,539.8,752.6,531,746.4,521.4z M742.6,454.9 c26.7-8.5,33.6-24,19.9-36.4c-2.9-2.6-14.2-1.7-14.4-0.8C745.7,429,744.5,440.6,742.6,454.9z"></path> <path style="fill:#FFFFFF;" d="M211.8,426.3c-1.2,21.2-2.9,44.8-3.7,68.4c-0.1,3,4.2,6.2,6.4,9.4c3.9-2.9,7.8-5.9,10.5-7.9 c-4.3-7.4-11.2-15.1-9.6-17.5c3.8-5.9,10.9-11.5,17.7-13.4c32.1-9.1,45.3,2.3,41.3,34.8c-4,32.1-21.8,56.1-54,60 c-28.4,3.5-52.8-14.4-64.3-47.6c-13.6-39.1-13.3-77.9,4.9-115.4c9-18.5,23.6-30.9,46.5-31.9c24.6-1.1,44.2,6.5,57.5,27.1 c13.7,21.1,4.3,49.6-17.9,50.7C236.6,443.5,225.7,433.3,211.8,426.3z"></path> <path style="fill:#FFFFFF;" d="M97,445.4c7.9-2.3,16.5-7.6,23.6-6.1c7.6,1.6,20.2,11.5,19.3,14.6c-3.2,11.1-9,23.8-18,30.1 c-7.8,5.4-17.9,5.6-16,18.8c1.8,12.5,11.2,10.5,19.5,10.7c16.7,0.3,16.4,11.8,14.6,22.9c-3.1,18.7-26.8,37.5-47.2,38.5 c-28.5,1.4-44.1-6.2-48.5-31.9C36.7,500,32.8,456.5,29.1,413c-0.6-6.8,6.5-18.5,12.8-20.8c19.1-7,39.4-11.5,59.6-15.2 c8.7-1.6,20.2-3.4,23.2,10.7c3,14.1-2.3,23-15.7,28.1C88.2,423.8,87.7,425.3,97,445.4z"></path> <path style="fill:#FFFFFF;" d="M348,414.8c-3.3,25.6-6.6,51.2-10,77.4c18.9-0.5,19-1.4,13.2-13.4c-2.3-4.8-1.2-16.7-0.1-16.9 c14.6-2.6,29.9-6.5,44.2-4.4c12.6,1.8,14,15.4,12.1,26.5c-2.1,12.4-5.7,24.6-9.3,39.9c-22.5-30.1-41.6-24.5-68.8-7.3 c-25.5,16.1-31,16.3-40.3-12.6c-13.4-41.7-11.2-82.7,9.2-122c11.3-21.9,38.7-32.3,67.6-26.4c18.8,3.9,37.9,24.7,40.4,43.9 c2.4,18.5-4.2,31-18.1,34.4c-17.9,4.4-26.3-0.3-34.7-19.1C351.5,414.9,349.8,414.9,348,414.8z"></path> <path style="fill:#FFFFFF;" d="M585.6,522.9c-2.5-10.5-7.2-21-7.2-31.5c0-24.5,2.2-49,3.6-74.3c-7.3-2.3-14.6-4.8-21.9-7 c-12.9-3.9-16.9-13.3-18.5-25.5c-1.7-12.9,6.1-19.7,15.7-23.3c38.8-14.9,77.2-12.1,113.6,7.2c6.6,3.5,11.8,13.5,13.6,21.4 c3.9,17.7-5.1,27.3-23.5,27.6c-17.7,0.3-24.3,7.5-20.6,25.8c3.1,15.2,2.6,31.1,3.1,46.7c0.3,9.9-0.3,17.1-15.4,13.9 c-15-3.2-30.4,0.2-36.3,19.1C589.6,522.9,587.6,522.9,585.6,522.9z"></path> <path style="fill:#FFFFFF;" d="M652.5,551c1.9-5.7,5.4-11.5,5.3-17.2c-0.2-14.2,1.3-25,19.9-24.2c19.2,0.8,25.1,5.3,24.8,24.8 c-0.3,22.2-2.1,44.4-3.2,66.7c-0.5,11.2-0.9,22-16.7,22.8c-14.2,0.7-22.1-4.1-21.5-19.2c0.1-2.8-1.5-5.7-4.1-15 c-6,7.8-11.7,12-12.6,17c-2.1,11.9-7,18.1-20,18c-12.6-0.1-17.3-6.7-18.1-17.8c-2-27-4.1-53.9-6-80.9c-1.2-17.1,13.2-15.7,22.6-15.7 c8.7,0,22.4-1.6,21.6,14.7c-0.4,7.7-0.1,15.5-0.1,23.2C647.1,549.2,649.8,550.1,652.5,551z"></path> <path style="fill:#FFFFFF;" d="M511.4,524.8c8-4.3,15.6-9.9,24.1-12.6c7.7-2.5,16.5-3,24.7-2.3c13.4,1.2,28.1,15.6,24.7,24.2 c-5.8,14.5-18.1,12.9-30.6,9.2c-3.2-0.9-6.9-0.1-11.1,3.2c4.7,1,9.4,2.1,14,3.1c20.2,4.4,34.5,17.6,36,33.4 c1.5,15.7-9.5,32.6-24.7,38c-18.7,6.6-43.4,1.2-53.3-13.2c-3.7-5.3-6-13.9-4.3-19.6c1.1-3.5,11-4.5,17.2-6.1c2.8-0.7,6-0.1,10.8-1.3 c-30.1-10.1-33.6-31.2-26.8-56.7C512,524.3,511.4,524.8,511.4,524.8z"></path> <path style="fill:#FFFFFF;" d="M368.1,583.3c22.7-5,25.2,6.9,27,18.5c1.9,12-2.9,18.6-16.1,21c-36.3,6.7-67-11.7-71-43.8 c-4.3-34.3,21.7-66.9,56-68.6c6.6-0.3,16.5,3.6,19.4,8.6c4.1,7,3.5,17,4,25.7c0.1,1.5-4,3.9-6.6,4.7c-3.4,1-8.4-0.6-10.6,1.3 c-6.8,5.7-12.6,12.5-18.7,18.9C357.9,574.9,364.4,580.2,368.1,583.3z"></path> <path style="fill:#FFFFFF;" d="M475.8,526.2c-3.6-10.6-11.7-15-22.7-13.1c-11,1.9-26.2-5.6-31,11.1c-8.9,31.4-16.9,63-25.2,94 c25.2,9.1,25.7,9,38.6-9.6c7.4-10.6,20-11.1,26.6-1c12.4,18.9,16.3,20,44,9.3C495.8,586.1,485.9,556.1,475.8,526.2z M444,575 c-19.6-0.3-14.7-46.5,7.3-33.4C460.7,547.2,463.7,575.3,444,575z"></path> </svg> 