<?xml version="1.0" encoding="UTF-8"?> <svg xmlns="http://www.w3.org/2000/svg" xmlns:xlink="http://www.w3.org/1999/xlink" version="1.1" id="Layer_1" x="0px" y="0px" viewBox="0 0 1000 1000" style="enable-background:new 0 0 1000 1000;" xml:space="preserve"> <path style="fill:#FFFFFF;" d="M10.6,504.6c1.6-5.3,3.1-10.5,4.6-15.8C23.1,460.9,31,432.9,39,405c0.1-0.2,0.2-0.5,0.2-0.5 c2.6,0,5.1-0.1,7.6,0c14,0.7,28,1.5,42,2.3c10.7,0.6,21.4,1.3,32.2,1.9c12.8,0.7,25.7,1.4,38.5,2.1c8.4,0.5,16.8,1,25.2,1.5 c12.8,0.7,25.7,1.4,38.5,2.1c10.7,0.6,21.3,1.2,32,1.8c13,0.7,25.9,1.4,38.9,2.1c10.6,0.6,21.2,1.2,31.8,1.8c13,0.7,26,1.4,39.1,2.1 c8.3,0.5,16.6,1,24.9,1.4c13,0.7,25.9,1.4,38.9,2.1c10.7,0.6,21.3,1.2,32,1.9c12.4,0.7,24.7,1.6,37.1,2c6.6,0.2,13.2-0.6,19.7-0.9 c11.6-0.6,23.1-1.3,34.7-1.9c18.9-1.1,37.7-2.1,56.6-3.2c18-1,36-2,54.1-3c10.9-0.6,21.8-1.3,32.7-1.9c15.1-0.8,30.1-1.6,45.2-2.4 c10.5-0.6,20.9-1.2,31.4-1.8c11.7-0.7,23.4-1.3,35.1-2c18-1,35.9-1.9,53.9-3c10.9-0.6,21.7-1.3,32.5-1.9c12.7-0.7,25.4-1.3,38.1-2 c8-0.4,15.9-0.9,23.9-1.4c1.9-0.1,2.7,0.2,3.3,2.2c9.1,32.5,18.3,65,27.5,97.5c0.3,0.9,0.2,2.1-0.1,3.1 c-7.7,27.5-15.5,54.9-23.2,82.3c-1.5,5.2-3,10.5-4.4,15.7c-0.3,1.2-0.7,1.6-2,1.5c-12.1-0.7-24.2-1.4-36.3-2.1 c-13.3-0.7-26.6-1.4-39.9-2.2c-18.2-1-36.4-2-54.7-3c-13.2-0.7-26.3-1.6-39.5-2.3c-12.8-0.7-25.5-1.3-38.3-2.1 c-10.7-0.6-21.3-1.3-32-1.8c-12.9-0.7-25.8-1.4-38.7-2.1c-8.2-0.5-16.4-1-24.7-1.4c-10.7-0.6-21.4-1.1-32.2-1.7 c-8.2-0.5-16.4-1-24.7-1.4c-13-0.7-26-1.4-39.1-2.1c-10.5-0.6-20.9-1.2-31.4-1.8c-14.1-0.8-28.2-1.8-42.4-0.7 c-15.7,1.3-31.6,1.8-47.3,2.7c-18,1-36,2-54.1,3c-13.3,0.8-26.7,1.6-40,2.3c-13.5,0.8-27,1.5-40.4,2.2c-18,1-36,2-54.1,3 c-13.3,0.7-26.6,1.6-39.8,2.3c-19.8,1.1-39.6,2.1-59.4,3.2c-13.3,0.7-26.6,1.6-39.8,2.3c-13.5,0.8-27.1,1.5-40.6,2.2 c-8.9,0.5-17.8,0.9-26.6,1.5c-1.5,0.1-1.7-0.7-2-1.8c-4.8-16.9-9.5-33.8-14.3-50.7c-4.4-15.5-8.7-30.9-13.1-46.4 c-0.2-0.6-0.4-1.2-0.7-1.9C10.6,505.4,10.6,505,10.6,504.6z M44,599.8c0.5,0,0.9,0,1.3,0c9.9-0.6,19.9-1.1,29.8-1.7 c10.7-0.6,21.3-1.2,32-1.8c13-0.7,25.9-1.4,38.9-2.1c10.7-0.6,21.3-1.2,32-1.8c12.9-0.7,25.8-1.4,38.7-2.1c8.3-0.5,16.6-1,24.9-1.5 c13.2-0.7,26.3-1.4,39.5-2.1c8.1-0.4,16.2-1,24.3-1.4c13.1-0.7,26.2-1.4,39.3-2.1c8.2-0.5,16.3-1,24.5-1.4 c13.1-0.7,26.2-1.4,39.3-2.1c8.2-0.5,16.4-1,24.7-1.4c12.9-0.7,25.8-1.4,38.7-2.1c9.4-0.5,18.8-1.5,28.2-1.3 c12.4,0.2,24.9,1.2,37.3,1.9c13.2,0.7,26.4,1.6,39.6,2.3c18.1,1,36.2,2,54.3,3c18.2,1,36.3,2,54.5,3c16.6,0.9,33.1,1.9,49.7,2.8 c16.4,0.9,32.9,1.8,49.3,2.8c19.5,1.1,39.1,2.2,58.6,3.3c11.8,0.7,23.7,1.3,35.5,2c8.1,0.5,16.2,0.9,24.3,1.4 c12.8,0.7,25.6,1.4,38.5,2.1c4,0.2,8,0.5,11.9,0.7c0.2-0.4,0.3-0.5,0.3-0.6c8.8-31,17.5-61.9,26.2-92.9c0.2-0.6,0.1-1.4,0-2.1 c-1-3.7-2.1-7.5-3.1-11.2c-7.6-26.7-15.1-53.5-22.6-80.3c-0.4-1.5-1-2-2.5-1.9c-10.4,0.6-20.8,1.1-31.2,1.7 c-10.7,0.6-21.4,1.3-32.2,1.9c-10.7,0.6-21.4,1.1-32.2,1.7c-10.5,0.6-21,1.2-31.6,1.8c-13,0.7-26,1.4-39.1,2.1 c-10.6,0.6-21.2,1.2-31.8,1.8c-13,0.7-26,1.4-39.1,2.1c-10.6,0.6-21.2,1.3-31.8,1.8c-12.9,0.7-25.8,1.4-38.7,2.1 c-8.4,0.5-16.7,1-25.1,1.5c-13,0.7-26,1.4-39.1,2.1c-10.6,0.6-21.2,1.2-31.8,1.8c-12.8,0.7-25.5,1.2-38.3,2.1 c-8.8,0.7-17.6,0.3-26.4-0.2c-10.9-0.6-21.7-1.3-32.6-1.9c-12.6-0.7-25.3-1.4-37.9-2.1c-10.9-0.6-21.8-1.3-32.7-1.9 c-12.8-0.7-25.5-1.4-38.3-2.1c-10.9-0.6-21.7-1.3-32.6-1.9c-12.8-0.7-25.5-1.4-38.3-2.1c-10.9-0.6-21.7-1.3-32.6-1.9 c-12.8-0.7-25.5-1.4-38.3-2.1c-8.5-0.5-17-1-25.5-1.5c-12.8-0.7-25.5-1.4-38.3-2.1c-10.9-0.6-21.7-1.3-32.6-1.9 c-12.8-0.7-25.5-1.4-38.3-2.1c-7.2-0.4-14.3-0.8-21.6-1.2c-1.5,5.2-2.9,10.2-4.3,15.2c-7.3,25.9-14.6,51.9-21.9,77.8 c-0.3,0.9-0.3,2.1,0,3c4.1,14.6,8.2,29.2,12.3,43.7C34.7,566.9,39.3,583.2,44,599.8z"></path> <path style="fill:#FFFFFF;" d="M568.9,307.6c2.9,0.5,5.9,0.8,8.7,1.5c10.4,2.6,13.8,10.3,8.9,19.9c-3.2,6.4-8.5,10.2-15.2,12.4 c-0.9,0.3-1.7,0.5-2.7,0.8c3.2,9.8,6.3,19.6,9.5,29.5c-9.7,0-19.1,0-28.7,0c-2.3-9-4.6-18-7-27.5c-0.7,1.7-1.3,2.9-1.8,4.1 c-3,7.2-5.9,14.5-8.9,21.7c-0.4,1-0.7,1.8-2.2,1.8c-8.2-0.1-16.4,0-24.5,0c-0.3,0-0.6-0.1-1.4-0.1c7.8-19.4,15.6-38.6,23.4-58 c-2.4-1.8-4.8-3.5-7.4-5.5c-1,2.3-2,4.3-2.8,6.4c-0.5,1.2-1.1,1.5-2.4,1.5c-5.3-0.1-10.6,0-15.8-0.1c-1.5,0-2.1,0.5-2.7,1.9 c-7,17.4-14.2,34.7-21.2,52.1c-0.6,1.5-1.3,1.9-2.9,1.9c-7.6-0.1-15.3,0-22.9,0c-0.6,0-1.3,0-2.4,0c7.6-18.7,15.1-37.1,22.6-55.8 c-5.7,0-11-0.1-16.3,0c-2.1,0-3.6-0.4-5-2c-1.4-1.7-3.1-3.1-4.6-4.7c-0.5-0.5-0.8-1.2-1.1-1.8C484.5,307.6,526.7,307.6,568.9,307.6z M545.1,336.9c8,1.1,12.8-0.2,16.7-8.3c1.3-2.7,1.8-5.9,2.1-8.9c0.3-3-1.3-4.2-4.4-4.2c-1.3,0-2.6,0.1-3.9,0.1 c-1.1-0.1-1.6,0.4-2,1.4c-2.1,5-4.2,10-6.3,15C546.5,333.6,545.8,335.2,545.1,336.9z"></path> <path style="fill:#FFFFFF;" d="M765.5,307.6c-0.1,0.7-0.1,1.4-0.3,2.1c-8.3,20.2-16.6,40.4-24.9,60.5c-0.4,0.9-0.6,1.6-1.9,1.6 c-8.5-0.1-17,0-25.5,0c-0.2,0-0.5-0.1-1.1-0.2c5.4-13.3,10.7-26.5,16-39.7c-0.1-0.1-0.2-0.1-0.3-0.2c-3.1,3.7-6.1,7.5-9.2,11.2 c-7.6,9.2-15.1,18.5-22.7,27.6c-0.6,0.7-1.7,1.2-2.6,1.2c-5.3,0.1-10.7,0.1-16,0.1c0-13.5,0-26.8,0-40.4c-2.1,4.9-4,9.6-5.9,14.3 c-3.3,8.1-6.7,16.2-9.9,24.3c-0.5,1.3-1.2,1.9-2.7,1.8c-3-0.1-6.1,0-9.5,0c7.9-19.5,15.7-38.8,23.5-58.2c-2-1.5-4-2.9-5.9-4.4 c-0.5-0.4-0.8-1.1-1.1-1.6c13.6,0,27.2,0,40.8,0c0,0.7,0.1,1.4,0.1,2.2c-0.2,9.9-0.5,19.9-0.7,29.8c0,0.7,0,1.3,0,2.5 c9.5-11.8,18.7-23.1,27.9-34.4C744.2,307.6,754.9,307.6,765.5,307.6z"></path> <path style="fill:#FFFFFF;" d="M353.2,307.6c-0.3,0.6-0.5,1.2-1,1.6c-10.2,8.7-20.3,17.4-30.5,26c-1.1,0.9-1.3,1.7-0.8,3 c4,10.4,7.9,20.8,11.8,31.1c0.3,0.7,0.5,1.3,0.8,2.3c-0.8,0.1-1.4,0.1-2,0.1c-9.3,0-18.6,0-27.9,0c-1.3,0-2-0.3-2.4-1.6 c-1.9-5.2-3.9-10.3-5.9-15.5c-0.2-0.6-0.5-1.2-0.8-2c-4,3.6-7.9,7-11.8,10.5c-2.9,2.5-5.7,5.1-8.5,7.6c-0.4,0.4-1,0.9-1.5,0.9 c-5,0.1-10.1,0-15.3-0.4c2.6-2.2,5.1-4.4,7.7-6.6c8.1-7,16.2-13.9,24.3-20.8c1.1-0.9,1.2-1.6,0.7-2.8c-3.4-8.6-6.6-17.3-10-25.9 c-0.2-0.6-0.7-1.2-1.2-1.7c-1.7-1.5-3.5-2.8-5.2-4.3c-0.4-0.4-0.6-1-0.9-1.5c12.1,0,24.3,0,36.4,0c2.5,6.4,5,12.9,7.6,19.6 c7.3-6.7,14.3-13.2,21.3-19.6C343.2,307.6,348.2,307.6,353.2,307.6z"></path> <path style="fill:#FFFFFF;" d="M439.5,307.6c-0.4,0.6-0.7,1.3-1.2,1.7c-10.1,8.6-20.3,17.3-30.4,25.8c-1.1,0.9-1.4,1.7-0.8,3.2 c4.1,10.6,8.1,21.2,12.2,31.9c0.2,0.4,0.3,0.9,0.4,1.5c-0.7,0.1-1.2,0.1-1.8,0.1c-9.4,0-18.7,0-28.1,0c-1.4,0-2-0.4-2.4-1.7 c-2.1-5.7-4.4-11.4-6.6-17.4c-2.3,2-4.4,3.9-6.6,5.8c-4.6,4.1-9.2,8.2-13.9,12.3c-0.4,0.4-1,0.8-1.5,0.8c-5,0.1-10,0-15.4,0 c0.7-0.7,0.9-1.1,1.3-1.4c10.2-8.8,20.5-17.6,30.8-26.3c1-0.8,1.4-1.5,0.8-2.9c-3.3-8.4-6.5-16.9-9.8-25.4c-0.4-1-1.1-1.9-1.9-2.7 c-1.5-1.4-3.2-2.6-4.7-3.9c-0.5-0.4-0.7-1-1.1-1.5c12.1,0,24.3,0,36.4,0c1.3,3.3,2.7,6.5,4,9.8c1.3,3.2,2.4,6.4,3.7,9.8 c0.7-0.6,1.1-1,1.6-1.4c6.7-6.1,13.3-12.1,20-18.2C429.5,307.6,434.5,307.6,439.5,307.6z"></path> <path style="fill:#FFFFFF;" d="M267.4,307.6c-0.5,0.7-0.9,1.4-1.5,1.9c-10.1,8.6-20.2,17.2-30.3,25.7c-1.1,0.9-1.2,1.7-0.7,3 c4.1,10.6,8.1,21.3,12.1,31.9c0.2,0.4,0.3,0.9,0.5,1.5c-0.7,0.1-1.2,0.1-1.8,0.1c-9.4,0-18.7,0-28.1,0c-1.5,0-2-0.6-2.5-1.9 c-2.1-5.7-4.3-11.3-6.6-17.2c-2.1,1.8-4,3.5-5.9,5.2c-4.9,4.3-9.7,8.7-14.6,13c-0.4,0.4-1,0.8-1.5,0.8c-4.9,0.1-9.9,0-15.1,0 c0.5-0.6,0.6-1,0.9-1.3c10.2-8.8,20.5-17.6,30.8-26.3c1.3-1.1,1.5-1.9,0.9-3.4c-3.2-8.1-6.3-16.2-9.3-24.3c-0.9-2.5-2.8-3.7-4.5-5.3 c-1.2-1.1-2.4-2.4-3.5-3.5c12.1,0,24.3,0,36.4,0c0.7,1.6,1.4,3.1,2,4.7c1.9,4.9,3.7,9.9,5.7,15c2-1.8,3.9-3.5,5.7-5.2 c5.3-4.8,10.6-9.6,15.9-14.4C257.3,307.6,262.4,307.6,267.4,307.6z"></path> <path style="fill:#FFFFFF;" d="M833.6,307.6c-1,2.6-2,5.2-3.2,7.8c-0.2,0.4-1.2,0.6-1.9,0.6c-7.3,0.1-14.5,0.1-21.8,0.1 c-1.3,0-1.9,0.4-2.4,1.7c-2.2,5.5-4.4,10.9-6.8,16.7c7.2,0,14.2,0,21.7,0c-1.2,2.9-2.3,5.4-3.5,7.9c-0.2,0.4-1.2,0.4-1.8,0.5 c-6.6,0-13.2,0-19.8,0c-2.8,6.9-5.6,13.6-8.5,20.7c8.6,0,17,0,25.7,0c-1.2,2.8-2.3,5.3-3.4,7.7c-0.2,0.3-0.8,0.6-1.3,0.6 c-16.8,0-33.6,0-50.4,0c-0.1,0-0.2-0.1-0.6-0.3c1.2-3,2.4-6,3.7-9.1c6.3-15.7,12.6-31.3,19-47c0.5-1.3,0.5-2.1-0.8-2.9 c-1.6-1-3.1-2.2-4.6-3.4c-0.5-0.4-0.8-1-1.2-1.4C792.4,307.6,813,307.6,833.6,307.6z"></path> <path style="fill:#FFFFFF;" d="M662.3,307.6c-1,2.6-2,5.2-3.2,7.8c-0.2,0.4-1.2,0.6-1.9,0.6c-7.3,0.1-14.5,0.1-21.8,0.1 c-1.3,0-2,0.4-2.4,1.7c-2,5-4,10-6.1,15c-0.2,0.5-0.4,1.1-0.7,1.8c7.2,0,14.2,0,21.5,0c-1.2,2.7-2.2,5.2-3.4,7.6 c-0.2,0.4-1.2,0.6-1.9,0.6c-6.1,0.1-12.3,0.1-18.4,0.1c-0.9,0-1.5,0.1-1.9,1.2c-2.4,6-4.9,12.1-7.4,18.1c-0.1,0.4-0.2,0.7-0.4,1.3 c8.4,0,16.7,0,25.6,0c-1.3,2.9-2.4,5.5-3.6,8.1c-0.1,0.2-0.7,0.3-1.1,0.3c-16.7,0-33.5,0-50.2,0c-0.2,0-0.4-0.1-0.8-0.2 c1.2-3,2.4-6,3.6-9c6.4-15.7,12.7-31.4,19.1-47.1c0.5-1.3,0.5-2.1-0.8-2.9c-1.6-1-3.1-2.2-4.6-3.4c-0.5-0.4-0.8-1-1.2-1.4 C621.1,307.6,641.7,307.6,662.3,307.6z"></path> <path style="fill:#FFFFFF;" d="M466.8,803.1c3.4-0.3,6.6-0.7,9.8-0.9c9-0.7,17.9-0.1,26.3,3.5c2.9,1.2,5.6,3.2,8,5.3 c1.9,1.7,2.1,4.4,1.2,5.9c-1,1.6-2.9,2.1-5.7,1.4c-4-0.9-8-2-12-2.8c-7.1-1.3-14.3-1.5-21.4-0.7c-3.4,0.4-6.9,0.9-10.3,1.6 c-1,0.2-2,0.9-2.7,1.6c-3.5,3.7-7.3,7.2-12.4,8.4c-2.3,0.5-4.8,0.6-7.1,0.2c-4-0.7-5.9-4.6-4.6-8.5c1.9-6.1,6.6-9.4,12.3-11.3 c2.9-1,4.4-2.5,5.6-5.2c8.7-19.8,16.4-39.9,21.6-61c0.1-0.2,0.1-0.5,0.2-1c-14.9,0-29.7,0-44.6,0c0-6.3,0-12.4,0-18.7 c2.2,0,4.4-0.1,6.5,0c1.3,0.1,2.2-0.5,2.5-1.7c0.5-1.6,1.1-3.3,1.1-4.9c0.1-19.3,0.1-38.6,0-57.9c0-0.7,0-1.3-0.2-2 c-1-4.6-1.3-4.8-6-4.8c-3.2,0-6.3,0-9.5-0.2c-1.5-0.1-2.7,0.4-3,1.9c-0.5,2-1,4.1-1,6.1c-0.1,14.2,0.6,28.5-0.4,42.7 c-1.3,19.1-15.9,35.7-35.2,38.8c-23.4,3.7-42.5-12.4-47.5-32.5c-0.8-3.3-1.2-6.9-1.2-10.3c-0.1-13-0.1-26-0.1-39c0-0.5,0-1.1,0-1.6 c-0.3-5-1.5-6.1-6.4-6.1c-1.2,0-2.5,0-3.9,0c0-6.2,0-12.1,0-18.2c16.1,0,32.2,0,48.5,0c0,2.5,0,5,0,7.5c0,2.9-0.1,5.8,0,8.7 c0.1,1.6-0.5,2.1-2.1,2c-1.6-0.1-3.2,0-4.7,0c-1.3-0.1-2.2,0.5-2.6,1.7c-0.5,1.6-1.1,3.3-1.1,4.9c-0.1,18.9-0.1,37.7,0,56.6 c0,0.9,0.6,2,1.2,2.6c9.2,8.1,22.1,6.7,30.2-3.1c3.9-4.8,6-10.2,6-16.3c0-13.1,0-26.2,0-39.4c0-0.8-0.2-1.6-0.3-2.3 c-0.7-4.2-1.3-4.7-5.5-4.7c-4.7,0-4.7,0-4.7-4.8c0-4.4,0-8.8,0-13.4c28.6,0,57,0,85.6,0c0,6,0,12,0,18.3c-2.1,0-4.2,0.1-6.2,0 c-1.6-0.1-2.5,0.5-3,2c-0.4,1.4-1.1,2.9-1.1,4.4c-0.1,21.3,0,42.6,0,63.9c0,0.1,0,0.3,0.1,0.7c1.3,0,2.8,0,4.2,0c1.6,0,3.3,0,4.9,0 c2.4,0.1,4.5,0,6.4-2.3c2.4-2.9,5.8-2.6,9.3-0.8c0-2.9,0-5.5,0-8.2c6.3,0,12.3,0,18.5,0c0,10.1,0,20.1,0,30.3c-4.7,0-9.3,0-13.9,0 c-4.3,0-4.3,0-5.6,4.1c-5.5,17.5-12.7,34.2-20.1,50.9C469.4,797.3,468.2,800.1,466.8,803.1z"></path> <path style="fill:#FFFFFF;" d="M174.4,739.3c-12.7,0-25.3,0-38,0c0-6.1,0-12.1,0-18.4c2.1,0,4.2-0.1,6.3,0c1.6,0.1,2.5-0.6,3-2 c0.4-1.4,0.9-2.9,0.9-4.4c0.1-19.4,0-38.9,0-58.3c0-1-0.2-2-0.4-2.9c-0.7-3.2-1.4-3.7-4.7-3.7c-1.5,0-3,0-4.5-0.1 c-0.1,0-0.2-0.1-0.5-0.2c0-6,0-12,0-18.2c0.7,0,1.4,0,2.1,0c17.4,0,34.8,0,52.2,0c16.7,0,32.7,13.9,35.2,30.4 c2.4,16.2-3.3,29-16.9,38.2c-0.2,0.1-0.4,0.3-0.6,0.5c-0.1,0.1-0.1,0.2-0.3,0.5c4.5,6.2,8.6,12.9,14.6,17.9c0.9,0.8,2.2,1.2,3.4,1.5 c5.5,1.1,9.1,5.3,8.7,10.1c-0.5,5.5-4.8,9.3-10.5,9.1c-4.9-0.1-9.8-0.2-14.5-1c-7.5-1.2-13-5.9-17.6-11.5 c-5.3-6.5-10.1-13.3-15.2-19.9c-0.5-0.7-1.2-1.3-1.9-1.9c-0.2,0.1-0.3,0.2-0.5,0.3C174.4,716.5,174.4,727.8,174.4,739.3z M174.4,651.1c0,3.5,0,6.4,0,9.3c0,7.4,0,14.9,0,22.3c0,0.9-0.2,1.9,1.3,1.9c5.3-0.1,10.7,0.2,16-0.3c8-0.7,13.7-7.1,14.4-15.5 c0.6-7.4-4.4-15.1-12-16.6C187.7,651.1,181.1,651.5,174.4,651.1z"></path> <path style="fill:#FFFFFF;" d="M584.3,631.1c0,10.1,0,20.1,0,30.2c-6.1,0-12.1,0-18.4,0c0-2,0-4,0-6c0-2.7-0.5-3.3-3.1-4.3 c-4.5-1.6-9.1-0.8-13.8-1c0,8.2,0,16.3,0,24.3c2.2-0.1,3.1-1,3.2-3.1c0-2.2,0-4.5,0-6.8c6.2,0,12.3,0,18.5,0c0,13.8,0,27.6,0,41.5 c-6.1,0-12.2,0-18.5,0c0-2.1,0-4.1,0-6.1c0-2.7-0.4-3.2-3.2-3.8c0,8.1,0,16.2,0,24.4c4.7-0.1,9.4,0.6,13.9-1.1c2.7-1,3-1.5,3-4.3 c0-1.9,0-3.8,0-5.9c6.2,0,12.2,0,18.4,0c0,10,0,20.1,0,30.3c-0.9,0-1.6,0-2.4,0c-22.9,0-45.9,0-68.8,0c-1.9,0-2.5-0.4-2.5-2.4 c0.1-4.5,0-9.1,0-13.6c0-2.6,0-2.6,2.7-2.6c1.3,0,2.6-0.1,4,0c1.6,0.2,2.6-0.6,2.9-2c0.4-1.9,1-3.8,1-5.7 c0.1-18.9,0.1-37.8,0.1-56.7c0-1.8-0.6-3.6-1.3-5.3c-0.3-0.7-1.6-1.4-2.4-1.5c-2.1-0.2-4.3-0.1-6.6-0.1c0-6.3,0-12.3,0-18.4 C535.3,631.1,559.7,631.1,584.3,631.1z"></path> <path style="fill:#FFFFFF;" d="M783,739.3c0-5.9,0-11.6,0.1-17.4c0-0.4,0.9-1,1.4-1.1c1.8-0.1,3.6,0.1,5.3-0.1 c0.8-0.1,2-0.7,2.3-1.3c0.7-1.7,1.4-3.5,1.4-5.3c0.1-19.2,0.1-38.5,0-57.7c0-0.9-0.2-1.8-0.4-2.7c-0.8-3.7-1.4-4.2-5.1-4.2 c-1.6,0-3.3,0-5,0c0-0.9-0.1-1.6-0.1-2.2c0-4.7,0.1-9.5,0-14.2c0-1.6,0.5-2.1,2.1-2.1c11.3,0.1,22.7,0,34,0c11.5,0,23.1,0,34.6,0 c0.9,0,1.8,0,2.9,0c0,10.1,0,20.2,0,30.3c-6,0-12,0-18.3,0c0-2,0-3.9,0-5.8c0-2.9-0.4-3.4-3.2-4.4c-4.5-1.6-9-0.8-13.7-1 c0,8.2,0,16.3,0,24.3c2.4-0.3,3.1-1,3.1-3.3c0-2.2,0-4.3,0-6.6c6.2,0,12.3,0,18.5,0c0,13.8,0,27.6,0,41.6c-6.2,0-12.2,0-18.5,0 c0-2.1,0-4.1,0-6c0-2.8-0.2-3.1-3.1-4c0,8.1,0,16.2,0,24.4c4.9-0.1,9.8,0.7,14.5-1.4c1.6-0.7,2.5-1.7,2.4-3.6c-0.1-2,0-4.1,0-6.3 c6.2,0,12.2,0,18.3,0c0,10,0,20,0,30.2C832.1,739.3,807.7,739.3,783,739.3z"></path> <path style="fill:#FFFFFF;" d="M227.1,685.3c0-30.1,24-53.2,52.2-54.2c30.8-1.1,56.2,23.5,56.3,54.2c0.1,29.9-24.3,54.2-54.2,54.2 C251.4,739.5,227.1,715.2,227.1,685.3z M254.8,685.2c0,7.2,0,14.4,0,21.6c0,0.8,0.3,1.9,0.8,2.5c8.6,8.7,19,12.7,31.1,10.7 c19.4-3.2,32.4-21.3,29.1-40.2c-2.5-14.2-10.8-23.9-24.6-28.1c-13.5-4.1-25.4-0.4-35.4,9.4c-0.6,0.6-1,1.7-1,2.6 C254.8,670.8,254.8,678,254.8,685.2z"></path> <path style="fill:#FFFFFF;" d="M683.4,631.2c0.1,1,0.2,1.7,0.2,2.5c0,8.4,0,16.9,0,25.3c0,1.8-0.4,2.6-2.4,2.5 c-5.3-0.1-10.7,0-16.3,0c0-2.3-0.1-4.4,0-6.6c0.1-1.8-0.7-3-2.3-3.4c-2.5-0.7-5.1-1.3-7.7-1.5c-2.3-0.3-4.6-0.1-7.1-0.1 c0,1,0,1.8,0,2.5c0,20,0,40.1,0,60.1c0,2.2,0.5,4.3,1,6.5c0.3,1.3,1.2,2.1,2.8,1.9c1.6-0.2,3.3,0,4.9,0c1.1,0,1.7,0.3,1.7,1.6 c0,5.2,0,10.4,0,15.6c0,1.2-0.6,1.4-1.6,1.4c-2.2,0-4.4,0-6.5,0c-12.7,0-25.3,0-38,0c-0.7,0-1.4,0-2.3,0c0-6.2,0-12.3,0-18.6 c2.2,0,4.4-0.1,6.5,0c1.3,0.1,2.2-0.5,2.5-1.7c0.5-1.6,1.1-3.3,1.1-5c0.1-20.8,0-41.5,0-62.3c0-0.6-0.1-1.2-0.1-1.9 c-4.7,0.1-9.3-0.6-13.7,1c-2.7,0.9-3.1,1.5-3.1,4.3c0,1.9,0,3.8,0,5.9c-0.6,0.1-1.1,0.2-1.6,0.2c-5.1,0-10.2,0-15.2,0 c-1.1,0-1.9,0-1.9-1.5c0.1-9.3,0-18.6,0-27.9c0-0.3,0.1-0.5,0.1-0.9C617.6,631.2,650.4,631.2,683.4,631.2z"></path> <path style="fill:#FFFFFF;" d="M782.6,661.4c-6.2,0-12.2,0-18.4,0c0-2.1,0-4.1,0-6.1c0-2.6-0.5-3.3-3.1-4.1c-4.5-1.5-9-1.3-13.8-1.1 c0,0.7-0.1,1.4-0.1,2c0,20.8,0,41.7,0,62.5c0,0.7,0.2,1.4,0.4,2.1c0.9,3.9,1.3,4.2,5.2,4.2c4.9,0,4.9,0,4.9,5c0,4.4,0,8.8,0,13.4 c-16.2,0-32.3,0-48.6,0c0-4.9,0-9.7,0-14.5c0-4.6-0.6-3.9,4-4c4.9,0,5.6-0.5,6.4-5.4c0.1-0.8,0-1.6,0-2.4c0-20.3,0-40.6,0-60.9 c0-0.6-0.1-1.2-0.1-2c-5,0-10-0.7-14.7,1.3c-1.5,0.6-2.3,1.6-2.2,3.3c0.1,2.1,0,4.2,0,6.5c-6.2,0-12.3,0-18.5,0c0-10,0-20,0-30.1 c32.9,0,65.7,0,98.6,0C782.6,641.2,782.6,651.2,782.6,661.4z"></path> <path style="fill:#FFFFFF;" d="M439.9,775.2c-11.4-2.5-15.4-11.6-19.1-21.2c7.2-4.5,14.9-5.6,22.7-2.2c9,3.9,13.1,11.4,13.8,20.9 c0.5,6.7-0.7,13.1-4.9,18.6c-6.7,8.7-18.4,11.5-28.3,6.6c-3.5-1.7-3.5-1.7-1.9-5.2c0.7-1.6,1.4-3.2,2.2-4.8 c2.8-6.1,7.2-10.2,13.7-12.1C438.8,775.6,439.3,775.4,439.9,775.2z"></path> <path style="fill:#FFFFFF;" d="M566.8,780.9c1,2.6,2,5,2.8,7.4c0.2,0.5,0,1.4-0.3,1.8c-5.2,6.2-15,10.4-23.4,7.7 c-4.4-1.4-7.6-5.5-8-10.1c-0.9-13.4,9.6-27.8,22.8-30.6c2.8-0.6,6-0.6,8.8,0c5.7,1.1,8.1,6,6.4,11.8c-1.4,4.7-4.6,8.1-8.9,10.1 c-3.9,1.8-8.1,2.9-12.2,4.1c-1.5,0.4-1.9,1-1.8,2.4c0.2,1.5,0.8,2.6,2.3,2.1c2.2-0.7,4.3-1.5,6.3-2.6 C563.3,784,564.9,782.4,566.8,780.9z M562.5,766.8c-2.6,1-3.7,3.1-5,5.4C560.2,771.5,562.3,769.3,562.5,766.8z"></path> <path style="fill:#FFFFFF;" d="M522.9,778.1c3.2-4.3,6.3-8.5,6.2-14.3c-0.1-5.5,4.1-9,9-8.1c4.2,0.8,6.3,4.4,5.4,9.2 c-1,5.4-3.9,9.8-7.4,13.7c-5.3,6.1-11.1,11.8-16.3,17.9c-1.6,1.9-3.1,2-5.1,1.9c-2,0-3.9,0-6.1,0c0-3.3-0.1-6.4,0-9.5 c0.1-7,0.3-14.1,0.5-21.1c0.1-2.6,0.1-5.2,0.2-7.9c0-0.6,0.5-1.5,0.9-1.7c2.4-0.7,4.8-1.7,7.2-1.7c4.6-0.1,7,2.7,6.6,7.3 C523.7,768.7,523.3,773.4,522.9,778.1z"></path> <path style="fill:#FFFFFF;" d="M497.8,755.8c-4.8-5.9-0.1-13.5,5.1-14.2c3.5-0.5,6.8,1.8,7.1,5.4c0.3,4.9-1.7,8-6.8,10.1 c3.2,3,2.4,6.4,1.1,10c-2.2,5.8-4.2,11.6-6.2,17.4c0.5,0.3,1.2,0.4,1.3,0.8c0.6,2.1,1.1,4.3,1.6,6.5c0.1,0.3-0.1,0.8-0.4,1 c-3.8,4-8.4,6.4-14.1,5.8c-4.9-0.5-6.9-3.9-5.3-8.6c1.5-4.4,3.1-8.8,4.7-13.2c1.7-4.6,3.4-9.2,4.9-13.9 C492,759.4,493.8,756.6,497.8,755.8z"></path> <path style="fill:#FFFFFF;" d="M733.4,468.6c0,0.6-0.1,1.3-0.1,1.9c0,22.2,0,44.4,0,66.6c0,2.4,0.4,4.9,1,7.2 c1.8,6.4,4.8,8.8,11.4,9.4c0,2.2,0,4.5,0,6.9c-13.9,0-27.7,0-41.6,0c0-2.3,0-4.5,0-6.8c0.4-0.1,0.7-0.2,1.1-0.2 c3.9,0,6.7-1.8,8.5-5.1c1.9-3.3,2.8-7,2.8-10.9c0-20.1,0.1-40.2,0-60.3c0-4.3-1.2-8.6-4-12.1c-2.1-2.6-5-3.5-8.4-3.2 c0-2.4,0-4.7,0-7.2c0.7,0,1.5,0,2.2,0c7.9,0,15.8,0.1,23.7,0c1.8,0,3,0.6,4.1,2.1c19,25.7,38,51.3,57,77c0.4,0.6,0.9,1.1,1.6,2 c0-1.1,0.1-1.7,0.1-2.3c0-18.3,0-36.6,0-55c0-4.2-0.7-8.2-3.1-11.8c-1.9-2.9-4.4-4.7-8-4.6c-1.2,0-1.6-0.5-1.6-1.6 c0.1-1.7-0.5-3.8,0.3-5c0.5-0.8,2.9-0.3,4.5-0.3c11.6,0,23.2,0,34.8,0c0.7,0,1.3,0,2.1,0c0,2.3,0,4.5,0,6.8 c-1.1,0.1-2.3,0.1-3.3,0.3c-3.5,0.7-5.8,3-6.9,6.2c-1.1,3.3-2.1,6.7-2.1,10.1c-0.2,19.9-0.1,39.8-0.1,59.7c0,3.9,1,7.7,3.2,11 c2.1,3.3,5.2,4.7,9.2,4.4c0,2.4,0,4.6,0,7.1c-0.7,0-1.3,0-2,0c-5.3,0-10.7,0-16,0c-1.2,0-2-0.3-2.8-1.4 c-18-24.4-36.1-48.8-54.2-73.1c-4.4-5.9-8.8-11.8-13.2-17.7C733.7,468.5,733.6,468.5,733.4,468.6z"></path> <path style="fill:#FFFFFF;" d="M616.7,535.8c0-12.8,0-25.1,0-37.3c0-7.2,0-14.5,0-21.7c0-3.7-1.1-7.1-3.1-10.2 c-1.8-2.8-4.3-4.6-7.8-4.5c-1.2,0-1.7-0.4-1.6-1.6c0.1-1.4-0.1-2.9,0.1-4.3c0-0.4,0.7-1.2,1.1-1.2c8,0,16.1,0.1,24.1,0.2 c5.5,0,11,0,16.7,0c0,2.3,0,4.5,0,6.7c-0.3,0.1-0.6,0.2-0.9,0.2c-4.7-0.2-7.9,2.2-9.5,6.3c-1.1,2.9-2,6.2-2.1,9.3 c-0.2,20.1-0.1,40.2-0.1,60.3c0,3.8,0.9,7.5,3,10.9c1.9,3.1,4.7,4.7,8.3,4.7c0.4,0,0.8,0.1,1.2,0.1c0,2.3,0,4.5,0,7 c-0.7,0-1.3,0-1.9,0c-5.3,0-10.7,0-16,0c-1.4,0-2.3-0.4-3.1-1.5c-21.9-29.6-43.9-59.2-65.9-88.8c-0.5-0.7-1.1-1.4-2-2.6 c0,1.2,0,1.8,0,2.5c0,22.3,0,44.6,0.1,66.8c0,2.6,0.5,5.3,1.2,7.7c1.8,6,4.9,8.4,11.2,8.9c0,2.2,0,4.5,0,6.9c-0.6,0-1.2,0.1-1.7,0.1 c-12.7,0-25.3,0-38,0c-1.6,0-2.3-0.4-2.1-2.1c0.1-1.6,0-3.3,0-4.5c2.4-0.8,4.7-1.1,6.5-2.2c3.5-2.1,4.7-5.7,5.5-9.4 c0.4-2.1,0.6-4.2,0.6-6.4c0-19,0-38,0.1-56.9c0-3.5-0.5-6.9-1.8-10.1c-1.7-4.3-4.5-7.2-9.5-7.2c-0.4,0-0.9-0.8-1.3-1.2 c0,0,0-0.1,0-0.2c-0.4-5.7-0.4-5.7,5.3-5.7c7,0,14,0.1,21,0c1.7,0,2.8,0.5,3.8,1.9c11,14.9,22.1,29.8,33.1,44.8 c8.3,11.2,16.6,22.3,24.8,33.5C616,535,616.2,535.2,616.7,535.8z"></path> <path style="fill:#FFFFFF;" d="M415.4,461.8c-7.8,0.9-11.4,4.6-12.1,13.5c-0.6,6.5-0.3,13.1-0.3,19.7c0,13.4,0,26.9,0,40.3 c0,2.5,0.2,5.1,0.7,7.6c1.5,7.2,4.4,9.8,11.7,10.9c0,2.2,0,4.4,0,6.8c-13.9,0-27.6,0-41.6,0c0-2.3,0-4.5,0-6.9 c4.3,0.3,7.6-1.5,9.6-5.3c1-1.8,1.7-3.9,2.1-5.9c1.5-6.4,0.5-13,0.7-19.4c0.1-4.5,0-9.1,0-13.7c-16.9,0-33.5,0-50.5,0 c0,0.7,0,1.4,0,2.1c0,8-0.1,16,0.1,23.9c0.1,3.2,0.5,6.4,1.4,9.4c1.7,5.8,4.5,7.9,11,8.6c0,2.2,0,4.5,0,6.9c-13.8,0-27.6,0-41.6,0 c0-2.3,0-4.6,0-6.8c7.8-1.2,11.2-4.8,12.1-13c0.2-2.1,0.3-4.2,0.4-6.3c0-18.7,0.2-37.3-0.1-56c-0.1-3.6-1.3-7.4-2.7-10.7 c-1.7-4-5.1-5.8-9.7-5.4c0-2.4,0-4.6,0-7c13.8,0,27.6,0,41.6,0c0,2.2,0,4.5,0,6.8c-1.2,0.1-2.4,0.1-3.6,0.4c-4.8,1.2-6.7,5-7.8,9.3 c-0.7,2.5-0.9,5.2-1,7.9c-0.1,6.7,0,13.4,0,20.2c0,0.7,0,1.3,0,2.1c16.9,0,33.6,0,50.5,0c0-3.4,0-6.8,0-10.2c0-4.6,0.3-9.2,0-13.8 c-0.2-4.1-1.1-8.2-3.6-11.7c-2.1-3-5.1-4.2-8.9-3.9c0-2.4,0-4.8,0-6.9c13.9,0,27.7,0,41.6,0C415.4,457.4,415.4,459.5,415.4,461.8z"></path> <path style="fill:#FFFFFF;" d="M916.4,450.5c0.1,0.8,0.1,1.4,0.1,1.9c0,7.1,0,14.2,0,21.4c0,1.7-0.6,2-2.2,2.1 c-2,0.1-3.4-0.5-4.9-1.9c-18.8-17.5-49.7-15.4-66,4.5c-0.6,0.8-1.1,2-1.1,3c-0.1,17.5-0.1,35.1,0,52.6c0,1.1,0.5,2.3,1.2,3.1 c16.5,19.3,45.3,21.7,64.6,5.5c0.6-0.5,1.2-1.6,1.2-2.4c0.1-4.5,0.2-9,0-13.4c-0.2-3.8-1-7.5-3.1-10.8c-1.8-2.9-4.3-4.6-7.8-4.5 c-0.5,0-1-0.1-1.6-0.2c0-2.3,0-4.5,0-6.8c10.7,0,21.4,0,32.1,0c0,2.4,0,4.6,0,6.8c-1.4,0.2-2.7,0.2-3.9,0.5 c-3.4,0.9-5.5,3.4-6.6,6.6c-1,3.1-1.7,6.4-1.9,9.7c-0.3,5.1,0,10.1-0.1,15.2c0,0.9-0.4,2-1.1,2.6c-8.3,8-18.1,12.9-29.6,14.3 c-16.6,2-31.2-2.4-43.4-13.8c-12-11.3-17.4-25.4-16.5-41.9c0.6-12.1,5-22.8,13.1-31.8c11.6-12.8,26.2-18.7,43.5-17.7 c5.4,0.3,10.7,1.5,15.7,3.6c7.2,2.9,9.8-0.7,11.1-6.4c0.3-1.3,0.6-1.7,1.8-1.6C912.9,450.5,914.6,450.5,916.4,450.5z"></path> <path style="fill:#FFFFFF;" d="M292.3,450.5c0,8.5,0,16.8,0,25.1c-2.7,0.3-4.9,0.2-7.2-1.9c-9.9-8.9-21.6-12.7-34.9-11.5 c-12.5,1.1-22.8,6.6-30.9,16.2c-0.6,0.7-1,1.9-1,2.8c-0.1,17.6-0.1,35.2,0,52.8c0,1,0.4,2.1,1,2.8c7.3,8.7,16.6,14.1,27.8,15.8 c13.8,2.1,26.1-1.3,36.9-10c0.6-0.5,1.2-1.5,1.2-2.2c0.2-4.9,0.7-9.8,0.1-14.6c-0.6-5.2-1.6-10.7-7-13.6c-1.3-0.7-2.9-0.9-4.3-1 c-1-0.1-1.4-0.5-1.3-1.5c0-1.4,0-2.9,0-4.3c0-1.2,0.4-1.7,1.7-1.2c0.6,0.2,1.3,0.2,1.9,0.2c8.8,0,17.5,0,26.3,0c0.7,0,1.4,0,2.5,0 c0,2,0.1,3.9-0.1,5.7c0,0.4-0.7,0.9-1.1,1c-7,1.5-10.4,4.9-11,12.4c-0.5,6.3-0.4,12.8-0.4,19.1c0,1.4-0.3,2.3-1.4,3.3 c-11,10.2-24,15-39,14.4c-22.1-0.8-41.8-16-48.2-37.6c-8.8-29.7,9-60,39.2-66.9c10.1-2.3,20.1-1.4,29.8,2.1c0.2,0.1,0.5,0.1,0.7,0.2 c7.8,3.6,10.6-1,11.7-6.6c0.1-0.4,0.6-1.1,1-1.1C288.3,450.5,290.2,450.5,292.3,450.5z"></path> <path style="fill:#FFFFFF;" d="M198.1,455c0,2.1,0.1,3.9-0.1,5.6c0,0.5-0.8,1.3-1.2,1.3c-5.4,0-8.2,3.2-9.6,7.8 c-0.9,3-1.5,6.3-1.5,9.4c-0.1,19.5-0.1,39,0,58.5c0,2.2,0.3,4.5,0.9,6.6c1.7,5.5,4.8,9.6,11.5,9.2c0,2.1,0.1,4.1-0.1,6.2 c0,0.4-1.2,1-1.8,1c-6.8,0.1-13.6,0-20.4,0c-5.9,0-11.9,0-17.8,0c-1.6,0-2.1-0.5-2-2c0.1-1.6,0-3.3,0-5.1c1.1-0.1,2.1-0.1,3-0.2 c3.7-0.6,6.3-2.9,7.5-6.3c1.1-3,2-6.2,2-9.3c0.2-19.9,0.1-39.8,0.1-59.7c0-4.3-0.9-8.5-3.5-12.1c-1.8-2.5-4.2-4-7.3-3.9 c-1.4,0-1.9-0.5-1.9-1.9c0.1-1.6-0.5-3.8,0.3-4.8c0.7-0.8,3-0.4,4.6-0.4c11.5,0,23.1,0,34.6,0C196.3,455,197.1,455,198.1,455z"></path> <path style="fill:#FFFFFF;" d="M695.9,553.7c0,2.4,0,4.6,0,6.9c-0.7,0-1.2,0.1-1.8,0.1c-12.7,0-25.3,0-38,0c-1.7,0-2.2-0.5-2.1-2.1 c0.1-1.6,0-3.1,0-4.9c1.1-0.1,2.2-0.1,3.2-0.3c5-1,7.2-4.7,8.4-9.2c0.7-2.6,1-5.4,1-8.1c0.1-19,0-38.1,0-57.1c0-3.6-0.5-7.2-2-10.5 c-1.8-3.9-4.5-6.6-9.2-6.5c-1,0-1.4-0.4-1.4-1.4c0-1.5-0.1-3,0.1-4.5c0-0.5,0.8-1.2,1.2-1.2c1.8-0.1,3.7,0.2,5.5,0.2c11,0,22,0,33,0 c0.6,0,1.3,0.1,2,0.1c0,2.3,0,4.4,0,6.7c-1.1,0.1-2.2,0.1-3.3,0.3c-3.6,0.8-6,3.2-7.1,6.5c-1.1,3.2-2,6.6-2,9.9 c-0.2,19.4-0.1,38.9,0,58.3c0,2.6,0.4,5.3,1.2,7.7C686.3,550.7,689.4,553.1,695.9,553.7z"></path> <path style="fill:#FFFFFF;" d="M489.4,552.5c0,1.5,0,2.8,0,4.3c-13.1,0-26.1,0-39.3,0c0-1.4,0-2.8,0-4.4c6.9-0.5,10.1-5,11.7-11.1 c0.5-1.9,0.8-4,0.8-6c0-25.3,0-50.6,0-75.9c0-0.3-0.1-0.5-0.1-1.1c-0.7,0-1.4,0-2.1,0c-5.3-0.1-10.6-0.4-15.8-0.1 c-4.7,0.3-9.3,1.3-13.2,4.4c-2.6,2.1-3.7,4.8-3.8,8.2c-1.6,0-3,0-4.6,0c0-5.7,0-11.3,0-17.2c0.7,0,1.4,0,2.1,0c29.7,0,59.5,0,89.2,0 c1.9,0,2.6,0.5,2.5,2.4c-0.1,4.9,0,9.8,0,15c-1.4,0-2.7,0.1-3.9-0.1c-0.4,0-1-0.7-1-1.1c-0.3-4.7-3.1-7.7-7.2-9.2 c-3.3-1.2-6.8-2.1-10.2-2.3c-5.8-0.4-11.6-0.1-17.6-0.1c0,0.8,0,1.5,0,2.2c0,25,0,50.1,0,75.1c0,4.1,1.1,8,3.3,11.6 c1.7,2.7,4.1,4.6,7.4,5C488,552.1,488.6,552.3,489.4,552.5z"></path> <path style="fill:#FFFFFF;" d="M71.5,458c0-1.5,0-2.9,0-4.5c0.7,0,1.4-0.1,2-0.1c11.1,0,22.1,0,33.2,0c1.2,0,2.5-0.2,2.3,1.7 c-0.1,1.4,0.7,3.2-2,3.3c-2.8,0.1-5,1.6-6.6,3.9c-3.1,4.4-4.1,9.5-4.1,14.8c0,18.6,0,37.2,0,55.7c0,6.4,0,12.8,0,19.4 c0.8,0,1.5,0,2.2,0c8,0,16,0.3,23.9-0.1c3.7-0.2,7.5-1.3,11-2.6c4.3-1.6,6.5-5.1,6.8-9.8c1.5,0,2.9,0,4.5,0c0,5.7,0,11.3,0,17 c-24.4,0-48.8,0-73.3,0c0-1.4,0-2.9,0-4.4c3.8-0.3,7.2-1.7,8.9-5.3c1.4-3,2.9-6.2,3.1-9.4c0.5-11.8,0.4-23.5,0.5-35.3 c0.1-8.6,0.2-17.3-0.1-25.9c-0.1-3.2-0.7-6.4-1.6-9.4C80.7,461.6,78,459.5,71.5,458z"></path> </svg> 