<?xml version="1.0" encoding="UTF-8"?> <svg xmlns="http://www.w3.org/2000/svg" xmlns:xlink="http://www.w3.org/1999/xlink" version="1.1" id="Layer_1" x="0px" y="0px" viewBox="0 0 1000 1000" style="enable-background:new 0 0 1000 1000;" xml:space="preserve"> <path style="fill-rule:evenodd;clip-rule:evenodd;fill:#FFFFFF;" d="M929.1,262.2c1.1,0.6,2.2,1,3.5,0.8c1.5,0,3.1-0.7,4.2-1.7 l42.2-37.7c1.1-1,1.8-2.2,2.2-3.6s0.3-2.9-0.1-4.2c-0.4-1.4-1.3-2.5-2.4-3.5c-1.1-0.8-2.5-1.4-3.9-1.5l-27-2.6l16.6-22.7 c0.8-1.3,1.3-2.8,1.1-4.3c-0.1-1.5-0.8-2.9-1.8-4c-1.4-1.4-3.1-2.1-4.9-2.1c-1.7,0-3.2,0.6-4.5,1.7l-42.2,37.7 c-1.1,1-1.8,2.2-2.2,3.6s-0.3,2.9,0.1,4.2c0.4,1.4,1.3,2.5,2.4,3.5c1.1,0.8,2.5,1.4,3.9,1.5l27,2.6l-16.6,22.7 c-0.7,1-1.1,2.2-1.3,3.3c-0.1,1.3,0.1,2.4,0.7,3.5C926.7,260.6,928.1,261.6,929.1,262.2z"></path> <path style="fill:#FFFFFF;" d="M876.4,271.4c-13.6,0-24.8,11.1-24.8,24.8c0,10.2,6.1,18.8,14.7,22.7v53.3H851 c-1.1,0-1.9,0.8-1.9,1.9v15.6c0,1.1,0.8,1.9,1.9,1.9h25c5.4,0,9.6-4.5,9.6-9.6v-62.7c9-3.6,15.3-12.5,15.3-23 C901.1,282.4,890.2,271.4,876.4,271.4 M876.4,305.9c-5.4,0-9.6-4.5-9.6-9.6c0-5.4,4.5-9.6,9.6-9.6c5.4,0,9.6,4.5,9.6,9.6 C886.1,301.5,881.8,305.9,876.4,305.9"></path> <g> <path style="fill:#FFFFFF;" d="M434.9,333.1c-2.4-1.4-5-2.4-8.1-2.8c-3.1-0.6-6.3-0.7-9.5-0.7H395v39.2h22.3c3.3,0,6.4-0.3,9.5-0.7 c3.1-0.6,5.7-1.5,8.1-2.8c2.4-1.5,4.2-3.5,5.6-6s2.1-6,2.1-10.2s-0.7-7.5-2.1-10.2C439,336.5,437.2,334.6,434.9,333.1z"></path> <polygon style="fill:#FFFFFF;" points="783,399.4 771.9,403.5 771.9,403.6 783,407.6 "></polygon> <path style="fill:#FFFFFF;" d="M170.3,333.1c-2.4-1.4-5-2.4-8.1-2.8c-3.1-0.6-6.3-0.7-9.5-0.7h-22.2v39.2h22.3 c3.3,0,6.4-0.3,9.5-0.7c3.1-0.6,5.7-1.5,8.1-2.8c2.4-1.5,4.2-3.5,5.6-6c1.4-2.5,2.1-6,2.1-10.2s-0.7-7.5-2.1-10.2 C174.3,336.5,172.5,334.6,170.3,333.1z"></path> <path style="fill:#FFFFFF;" d="M309.7,342.4c-2.8-4.3-6.4-7.5-11-10.2c-4.5-2.5-10-3.8-16.4-3.8s-12,1.3-16.4,3.8 c-4.5,2.5-8.2,5.8-11,10.2c-2.8,4.3-4.9,9-6.1,14.3c-1.4,5.4-1.9,11-1.9,16.7c0.1,5.4,0.7,10.7,1.9,16c1.4,5.3,3.3,9.9,6.1,14.1 c2.8,4.2,6.4,7.4,11,10c4.5,2.5,10,3.8,16.4,3.8s12-1.3,16.4-3.8c4.5-2.5,8.2-5.8,11-10s4.9-8.8,6.1-14.1c1.4-5.3,1.9-10.4,1.9-16 c0-5.7-0.6-11.4-1.9-16.7C314.4,351.3,312.5,346.6,309.7,342.4z"></path> <path style="fill:#FFFFFF;" d="M800.7,263.1h-708c-19.9,0-36.2,15.7-36.2,35.1v149.3c0,19.3,16.3,35.1,36.2,35.1h708 c19.9,0,36.2-15.7,36.2-35.1V298.1C836.7,278.8,820.6,263.1,800.7,263.1z M523.5,307.7c2.5,3.1,5.4,5.6,8.9,7.5 c4,2.4,9.2,3.5,15,3.5s11-1.3,15-3.5c3.5-1.9,6.4-4.5,8.9-7.5h34.8c-2.9,7-6.7,13.1-11.4,18.4c-5.6,6-12.2,10.9-20.2,14.3 c-7.9,3.6-17,5.3-27,5.3c-9.9,0-18.9-1.8-26.9-5.3c-8.1-3.5-14.9-8.2-20.3-14.3c-4.9-5.3-8.6-11.5-11.4-18.4H523.5z M203.6,364.6 c-1.7,5.1-4.3,9.5-7.9,13.4c-3.6,3.9-8.3,7.1-14.1,9.5c-5.7,2.5-12.7,3.5-20.9,3.5h-30.3v47.2h-28.8V307.3h59.1 c8.2,0,15.2,1.3,20.9,3.5c5.7,2.5,10.4,5.4,14.1,9.5c3.6,3.9,6.3,8.5,7.9,13.4c1.7,5,2.5,10.3,2.5,15.6S205.2,359.6,203.6,364.6z M342.5,400c-2.9,8.3-7.2,15.4-12.7,21.4c-5.4,6.1-12.2,10.9-20.2,14.3c-7.9,3.5-17,5.3-27.1,5.3c-10,0-19.1-1.7-27-5.3 c-8.1-3.5-14.7-8.3-20.3-14.3c-5.4-6.1-9.7-13.4-12.7-21.4c-2.9-8.3-4.5-17.1-4.5-26.6c0-9.9,1.5-18.9,4.5-27.3 c2.9-8.5,7.2-15.6,12.7-21.8c5.4-6.3,12.2-11.1,20.3-14.6c8.1-3.5,17-5.4,27-5.4c10.2,0,19.2,1.8,27.1,5.4 c7.9,3.5,14.6,8.5,20.2,14.6c5.4,6.3,9.7,13.5,12.7,21.8c2.9,8.5,4.5,17.4,4.5,27.3C347,382.9,345.5,391.8,342.5,400z M468,364.6 c-1.7,5.1-4.3,9.5-7.9,13.4s-8.3,7.1-14.1,9.5c-5.7,2.5-12.7,3.5-20.9,3.5h-30.2v47.2h-28.8V307.3h59c8.2,0,15.2,1.3,20.9,3.5 c5.7,2.5,10.4,5.4,14.1,9.5c3.6,3.9,6.3,8.5,7.9,13.4c1.7,4.9,2.5,10.3,2.5,15.6S469.7,359.6,468,364.6z M610.5,439.4h-31.9 c0.8-4.2,1.4-8.5,1.4-12.9c0-5.3-0.6-10.7-1.8-15.7c-1.3-5-3.2-9.5-5.7-13.4c-2.6-3.8-5.8-6.8-10-9.2c-4-2.4-9.2-3.5-15-3.5 s-11,1.3-15,3.5c-4.2,2.4-7.5,5.4-10,9.2c-2.6,3.9-4.5,8.3-5.7,13.4c-1.3,5.1-1.8,10.3-1.8,15.7c0,4.5,0.6,8.8,1.4,12.9h-32.1 c-0.6-4.2-1-8.5-1-12.9c0-9.6,1.5-18.6,4.5-27c2.9-8.2,7.1-15.4,12.5-21.7c5.6-6.1,12.4-11.1,20.3-14.6c7.9-3.5,17-5.3,26.9-5.3 c10,0,19.1,1.8,27,5.3s14.7,8.3,20.2,14.6c5.4,6.1,9.6,13.4,12.5,21.7s4.5,17.4,4.5,27C611.5,430.9,611.1,435.2,610.5,439.4z M715.5,438.1l-39.4-58.7l-16.4,16.7v42h-28.8V307.3h28.8v54.3l50.9-54.3h36l-51.1,51.6l55.9,79.2H715.5z M792.6,431.4 c-0.6,1.4-1.5,2.5-2.6,3.5s-2.5,1.7-3.9,2.2c-1.5,0.6-2.9,0.7-4.5,0.7c-1.7,0-3.5-0.3-5-0.7s-2.9-1.3-4.2-2.2s-2.1-2.1-2.8-3.5 s-1.1-3.1-1.1-5c0-1.4,0.1-2.5,0.6-3.6c0.3-1.1,0.7-2.2,1.5-3.1c0.6-0.8,1.5-1.7,2.5-2.4s2.2-1,3.5-1.3v3.2 c-0.8,0.1-1.7,0.6-2.4,0.8c-0.6,0.4-1.3,1-1.5,1.5c-0.4,0.6-0.7,1.4-1,2.1c-0.3,0.7-0.4,1.5-0.4,2.5c0,1.5,0.3,2.6,0.8,3.8 c0.6,1,1.4,1.8,2.4,2.5c1,0.6,2.1,1.1,3.3,1.5c1.3,0.4,2.5,0.6,3.8,0.6s2.5-0.1,3.5-0.6c1.1-0.4,2.2-0.8,3.1-1.5 c0.8-0.7,1.5-1.5,2.1-2.5s0.7-2.2,0.7-3.5s-0.3-2.4-0.6-3.3c-0.3-1-1-1.7-1.7-2.5c-0.7-0.7-1.5-1.1-2.5-1.5s-1.9-0.6-3.1-0.6v7.5 h-2.6v-10.4H793v1.9l-2.9,0.8c1.1,1.5,1.9,2.6,2.6,4c0.6,1.4,0.8,2.8,0.8,4.2C793.6,428.5,793.2,430.2,792.6,431.4z M769.1,370.3 V366H793v3.1h-19.9l19.9,7.5v2.6l-19.9,7.4v0.1H793v3.1h-23.9v-4.3l20-7.7L769.1,370.3z M769.1,336.1V333H793v3.6L773.8,349H793 v3.1h-23.9v-3.3l19.3-12.7H769.1z M793,357.4v3.2h-23.9v-3.2H793z M793,392.2v3.5l-7.2,2.5v10.2l7.2,2.6v3.3l-23.9-9.3v-3.5 L793,392.2z M792.6,322.5c-0.6,1.5-1.5,2.5-2.6,3.5s-2.5,1.7-3.9,2.2c-1.5,0.6-2.9,0.7-4.5,0.7c-1.7,0-3.5-0.3-5-0.7 c-1.5-0.6-2.9-1.3-4.2-2.2c-1.3-1-2.1-2.1-2.8-3.5s-1.1-3.1-1.1-5c0-1.4,0.1-2.5,0.6-3.6c0.3-1.1,0.7-2.2,1.5-3.1 c0.6-0.8,1.5-1.7,2.5-2.4c1-0.6,2.2-1,3.5-1.3v3.2c-0.8,0.1-1.7,0.6-2.4,0.8c-0.6,0.4-1.3,1-1.5,1.5c-0.4,0.6-0.7,1.4-1,2.1 s-0.4,1.5-0.4,2.5c0,1.5,0.3,2.6,0.8,3.8c0.6,1,1.4,1.8,2.4,2.5c1,0.6,2.1,1.1,3.3,1.5c1.3,0.4,2.5,0.6,3.8,0.6s2.5-0.1,3.5-0.6 c1-0.4,2.2-0.8,3.1-1.5c0.8-0.7,1.5-1.5,2.1-2.5s0.7-2.2,0.7-3.5s-0.3-2.4-0.6-3.3c-0.3-1-1-1.7-1.7-2.5c-0.7-0.7-1.5-1.1-2.5-1.5 s-1.9-0.6-3.1-0.6v7.5h-2.6v-10.4H793v1.9l-2.9,0.8c1.1,1.5,1.9,2.6,2.6,4c0.6,1.4,0.8,2.8,0.8,4.2 C793.6,319.6,793.2,321.2,792.6,322.5z"></path> </g> <g> <path style="fill:#FFFFFF;" d="M56.5,819.3l60.1-283h84.7l-46.1,218h103.2l-14,65H56.5z"></path> <path style="fill:#FFFFFF;" d="M273.3,819.3l44-209.8h79l-44.4,209.8H273.3z M325.1,571.3l11.9-57.6h79.8l-12.3,57.6H325.1z"></path> <path style="fill:#FFFFFF;" d="M436.6,819.3l-14-209.8h76.1l2.9,142.7h4.1l62.1-142.7h79L542.7,819.3H436.6z"></path> <path style="fill:#FFFFFF;" d="M736.4,822.6c-25.8,0-46-1.8-60.7-5.4c-14.7-3.6-25-9.2-30.9-16.9c-5.9-7.7-8.8-17.6-8.8-29.6 c0-7.7,0.5-16.2,1.7-25.5c1.1-9.3,2.7-19.5,4.9-30.4c3.8-19.2,8-35.6,12.3-49.4c4.4-13.7,10.4-25,18.1-33.7 c7.7-8.8,18.4-15.2,32.3-19.3c13.8-4.1,32.3-6.2,55.3-6.2c23.3,0,41.3,1.5,54.1,4.5c12.8,3,21.7,7.9,26.7,14.6 c5.1,6.7,7.6,15.7,7.6,26.9c0,5.2-0.5,11.4-1.4,18.5c-1,7.1-2.3,14.5-3.9,22c-1.6,7.5-3.3,14.9-4.9,22l-3.7,16.1H715.9 c-0.6,3-1.2,6.6-2.1,10.7c-0.8,4.1-1.2,7.1-1.2,9c0,4.9,1.1,8.5,3.3,10.7c2.2,2.2,6.6,3.6,13.4,4.1c6.7,0.6,17.1,0.8,31.1,0.8 c5.2,0,11.4-0.1,18.5-0.4c7.1-0.3,14.7-0.6,22.6-1c8-0.4,15.8-0.9,23.4-1.4l-11.1,51.4c-5.5,1.7-12.5,3-21.2,4.1 c-8.6,1.1-17.8,2-27.6,2.7C755.3,822.2,745.7,822.6,736.4,822.6z M723.3,696.3h48.5l1.2-5.8c0.8-4.9,1.5-9,2.1-12.1 c0.5-3.2,0.8-6,0.8-8.4c0-3.6-0.7-6.2-2.1-8c-1.4-1.8-3.5-2.9-6.4-3.5c-2.9-0.5-6.8-0.8-11.7-0.8c-5.8,0-10.4,0.4-13.8,1.2 c-3.4,0.8-6.2,2.5-8.2,4.9c-2,2.5-3.9,6.3-5.5,11.5C726.6,680.5,724.9,687.5,723.3,696.3z"></path> </g> </svg> 