<?xml version="1.0" encoding="UTF-8"?> <svg xmlns="http://www.w3.org/2000/svg" xmlns:xlink="http://www.w3.org/1999/xlink" version="1.1" id="Layer_1" x="0px" y="0px" viewBox="0 0 1000 1000" style="enable-background:new 0 0 1000 1000;" xml:space="preserve"> <path style="fill:#FFFFFF;" d="M854.8,632c-31.2,0-62.4-0.3-93.5,0.2c-8.6,0.1-11.4-2.3-11.3-10.9c0.4-31.5,0.4-63.1,0-94.6 c-0.1-8.8,2.9-11,11.4-10.9c25,0.5,50.1,0.4,75.1,0c7.6-0.1,10.9,1.5,10.9,10c0.2,22.7,0.7,22.7-21.8,22.7c-11.4,0-22.8,0.1-34.2,0 c-4.9,0-8.4,0.6-8.5,6.9c-0.2,7.4,4.8,5.8,8.8,5.8c6.1,0.1,12.3-0.2,18.4,0.1c8.3,0.4,18.3-4.1,18.4,12.1 c0.1,16.9-10.3,12.5-19.1,12.8c-6.1,0.3-12.3,0.2-18.4,0c-5-0.1-8.3,0.8-8.1,7.1c0.2,5.8,3.2,6.1,7.6,6.1c47.9-0.1,95.7,0,143.6-0.1 c4.9,0,10.6-0.4,10.6-6.9c0-7.2-6.3-6-10.8-6.1c-14.9-0.2-29.9,0.3-44.8-0.2c-19-0.6-26.1-7.6-26.9-26.4c-0.3-6.5-0.4-13.2,0.7-19.6 c2.6-15.9,11.6-23.7,27.8-24c25.9-0.4,51.8,0.2,77.7-0.4c8.7-0.2,10.2,3.3,10,10.8c-0.7,26.4,3.2,21.4-21.1,21.8 c-15.8,0.3-31.6,0-47.4,0.1c-5.9,0.1-14.7-1.8-14.8,6.5c-0.2,9.8,9.4,6.8,15.4,7c13.6,0.4,27.2-0.2,40.8,0.2 c18.2,0.5,25.5,7.4,26.6,25.4c0.4,6.9,0,14.1-1.3,20.9c-3.3,16.9-10.7,23.2-28,23.3C917.2,632.1,886,631.9,854.8,632 C854.8,631.9,854.8,631.9,854.8,632z"></path> <path style="fill:#FFFFFF;" d="M697.5,583.9c-11.6,7.9-12.7,23.2-29.8,23c-17.5-0.1-18.3-15.3-29.6-23.8c0,13.8-0.3,26.4,0.1,39.1 c0.2,7.2-2,9.8-9.6,10.1c-29.7,1.1-29.7,1.4-29.7-27.8c0-26.3,0.2-52.6-0.1-78.8c-0.1-7.3,2.1-9.4,9.6-10c16-1.3,28.6,1.5,36.6,17.5 c4.4,8.9,11.8,16.3,17.7,24.4c3.8,5.3,6.9,5.6,10.9-0.1c8.3-11.8,17-23.4,25.6-34.9c4.1-5.5,30-9.8,35.2-5.9 c2.9,2.2,2.2,5.5,2.2,8.5c0,32.4-0.2,64.8,0.2,97.2c0.1,7.4-2.3,9.6-9.8,9.8c-29.4,0.8-29.4,1.1-29.4-28.3 C697.5,598,697.5,591.9,697.5,583.9z"></path> <path style="fill:#FFFFFF;" d="M577.6,407.3c0,13.6,0.4,27.1-0.1,40.7c-0.8,23.5-12.5,35.7-35.7,36.5c-18.4,0.7-36.8,0.7-55.2,0 c-22.3-0.9-34.1-12.3-34.7-34.6c-0.9-28.4-0.1-56.8-0.4-85.2c0-6.5,2-10.1,8.9-9.6c0.9,0.1,1.8,0,2.6,0c30-0.9,30-0.9,30,29.2 c0,17.5,0.3,35-0.1,52.5c-0.2,8,2.8,10.9,10.7,10.8c40.3-0.8,32.3,5.4,33-31.8c0.3-16.6,0.2-33.2,0-49.8 c-0.1-7.5,2.1-11.1,10.5-10.9c37.6,0.9,29.6-4.8,30.4,28.8C577.8,391.5,577.7,399.4,577.6,407.3 C577.6,407.3,577.6,407.3,577.6,407.3z"></path> <path style="fill:#FFFFFF;" d="M413.2,516.3c10.1,0,20.2,0.3,30.3-0.1c7.4-0.3,10.5,2.6,10,10c-0.3,3.9-0.3,7.9,0,11.8 c0.6,7.7-3.1,9.7-10.3,9.6c-17.5-0.3-35.1-0.1-52.6,0.2c-17.6,0.3-28.7,11-28.7,27.3c0,16.2,9.4,25.4,27.4,26.6 c8.7,0.6,17.5,1.2,26.2-0.5c4.3-0.8,7.3-2.1,7-7.4c-0.3-5.9-4.5-4.7-7.5-4.3c-12.9,1.8-13.8-5.4-13.9-15.7c-0.2-12,7-10.9,14.6-10.8 c10.1,0.1,20.2,0.3,30.3-0.1c7.5-0.3,10.3,3.1,10.1,10.1c-0.1,5.2,0.1,10.5,0.2,15.7c0.6,27-11.7,41.2-39.5,43.2 c-15.7,1.1-31.6,0.8-47.3-0.4c-14.7-1.2-26.7-8.5-34-21.7c-20.8-37.7-4.2-91.9,51.4-93.2c8.8-0.2,17.5,0,26.3,0 C413.2,516.5,413.2,516.4,413.2,516.3z"></path> <path style="fill:#FFFFFF;" d="M384.3,354.4c14.5,0,28.9,0.2,43.4-0.1c7.5-0.2,11.9,1.9,10.6,10.3c-0.3,2.1,0,4.4,0,6.5 c0,23.2,0,23.6-23.2,23.6c-8.5,0-11.6,2.3-11.4,11.1c0.5,22.7-0.1,45.4,0.3,68.2c0.1,7.8-2.3,11-10.5,10.8 c-36.5-0.9-28.8,4.9-29.6-28.2c-0.4-16.6-0.4-33.2,0.1-49.8c0.3-8.8-2.1-12.4-11.7-12.3c-23,0.1-22.4-0.4-23.3-24.1 c-0.5-12.4,2.9-17.4,15.9-16.3C357.9,355.3,371.1,354.4,384.3,354.4z"></path> <path style="fill:#FFFFFF;" d="M155.7,354.5C80,354.7,19,416.1,19.1,491.8c0.2,75.6,61.8,136.4,137.7,136 c75.6-0.4,136.5-62,136.1-137.8C292.5,415.5,230.5,354.2,155.7,354.5z M255.6,555.2c-11.9,11.7-23.6,23.4-35.4,35.2 c-3.2,3.3-6.8,5.5-11.8,5.2c-5.2,0.4-8.6-3-12.1-6.4c-10.5-10.6-21.5-20.7-31.5-31.7c-6.6-7.3-11.2-8.7-18.4-0.4 c-9.8,11.2-20.8,21.3-31.5,31.7c-9.8,9.6-16.3,9.7-25.8,0.4c-11.3-11-22.3-22.3-33.6-33.3c-8.7-8.5-8.3-16.5,0.2-24.8 c11.6-11.3,22.7-23.1,34.5-34.2c5.4-5.1,5.4-8.4-0.1-13.6c-11.8-11.1-23-22.9-34.6-34.2c-8.6-8.4-8.7-16.2,0.1-24.7 c11.4-10.9,22.3-22.3,33.6-33.3c9.7-9.5,15.7-9.4,25.6,0.3c11,10.7,22.1,21.3,32.5,32.6c5.7,6.2,9.4,7,15.4,0.3 c10.6-11.6,22.2-22.3,33.3-33.6c8.3-8.5,16.4-8.8,24.9-0.2c11,11.3,22.4,22.2,33.4,33.5c9.7,9.9,9.7,15.6-0.1,25.7 c-11,11.3-22,22.6-33.6,33.3c-5.8,5.4-6.4,8.7-0.2,14.4c12,10.9,23,22.8,34.6,34.2C263.5,539.4,263.8,547.1,255.6,555.2z"></path> <path style="fill:#FFFFFF;" d="M715,473.8c-5.4-9.5-10.5-19.2-16.4-28.4c-3.3-5.3-3.5-8.2,1.9-12.8c15.7-13.5,18.9-30.9,12.3-50 c-6.2-18-20.2-27.2-41.7-27.6c-22.8-0.4-45.6,0.3-68.4-0.3c-9.6-0.2-12,3.5-11.8,12.4c0.5,17.5,0.2,35,0.2,52.5 c0,17.1,0.5,34.2-0.2,51.2c-0.4,10.2,2.5,14,13.3,13.7c31.5-1.1,27.1,4.4,27.7-26.9c0.1-5.4-3.4-13.4,6-14.8 c7.5-1.1,14.4-0.7,18.6,8c4.5,9.4,10.7,18,15.9,27.1c2.3,4,4.8,6.9,10.2,6.7c8.8-0.4,17.5-0.1,26.3-0.1 C717.3,484.6,719,480.8,715,473.8z M659.9,413.1c-3.5,0.1-7,0-10.5,0c-19.4,0-19.2,0-17.9-19.3c0.4-6.4,2.2-9.7,9.2-9.2 c6.5,0.4,13.1,0,19.6,0.1c9.1,0.1,15.5,4.1,15.7,13.7C676.2,408.7,669.6,412.9,659.9,413.1z"></path> <path style="fill:#FFFFFF;" d="M834.5,426.1c-5.5-7.5-4.1-11.8-0.7-18.9c13.2-27.8-2.7-52.5-33.3-52.7c-18.8-0.1-37.7,0.5-56.5-0.2 c-11.5-0.4-16.8,2.6-16,15.4c1.1,16.5,0.3,33.2,0.3,49.8c0,17.5,0.4,35-0.1,52.4c-0.3,9.5,2.9,13.4,12.8,13.1 c20.6-0.5,41.2-0.4,61.7-0.1c14.1,0.2,25.9-3.5,33.1-16.7C843.5,453.9,843.9,438.9,834.5,426.1z M784,457.5c-0.4,0-0.9,0-1.3,0 c-8.3-0.9-20.4,5-18.5-12.4c1.4-13,0.3-13.1,18.5-13.1c0.4,0,0.9,0,1.3,0c9.8-0.1,21.5-0.9,21.5,12.7 C805.6,458.3,793.8,457.4,784,457.5z M791.9,409.1c-3.5,0-7,0-12.7,0c-7.9,1.1-16.7,2.3-15.2-13.4c0.9-9.2,3-12.4,12.1-11.3 c5.2,0.6,10.5,0.2,15.8,0.1c8.5-0.2,13.8,4,13.9,12.2C805.8,405,800.3,409.1,791.9,409.1z"></path> <path style="fill:#FFFFFF;" d="M913.5,354.5c-35.6-0.5-65.6,29-65.8,64.6c-0.2,35.9,28.7,65.2,64.7,65.5c36,0.3,65.3-28.5,65.7-64.4 C978.4,384.4,949.6,355,913.5,354.5z M937,444.3c-5.1,4.9-9.5,9.9-15.4,1.2c-6-8.8-11.6-7.9-17.5,0.2c-1.7,2.3-3.7,5-10.8,4.7 c-2.2-2.6-6.4-7.1-9.8-12c-3.7-5.4,1.6-8.1,4.6-10.5c7.3-5.7,7.3-10.7-0.1-15.9c-8.7-6-4.7-10.7,0.8-16.4c5.9-6.1,10.7-8.9,16.5-0.6 c5.4,7.8,10.5,7.1,15.7-0.3c6-8.5,11-4.6,16.7,1c5.6,5.5,8.5,10.1,0.7,15.6c-7.8,5.5-8.7,10.8-0.2,16.5 C947.3,434,942.6,438.9,937,444.3z"></path> <path style="fill:#FFFFFF;" d="M583.2,620.1c-11-28-21-56.3-31.8-84.3c-9.4-24.4-2.7-19.1-27.8-19.8c-21.2,0-21.3,0-28.8,19.9 c-8.4,22.4-16.9,44.8-25.1,67.2c-10.8,29.6-10.7,29.7,21.6,28.8c3.6-0.1,9,2,10.2-3.2c2.8-12.9,12.5-11,21.4-10.7 c8.6,0.2,18.9-3.3,21.3,10.4c0.8,4.4,5.4,3.6,8.8,3.6c7.4,0,14.9-0.5,22.3,0.1C586.2,633.2,586.7,629,583.2,620.1z M532.7,590.2 c-5.7,2.9-11.9,1.7-17.8,0.8c-3.2-0.4-3.7-3.5-2.9-6.2c3.4-10.6,6.9-21.1,11.2-34.1c4,12.7,7.2,22.6,10.3,32.5 C534.3,585.7,535.9,588.5,532.7,590.2z"></path> </svg> 