<?xml version="1.0" encoding="UTF-8"?> <svg xmlns="http://www.w3.org/2000/svg" xmlns:xlink="http://www.w3.org/1999/xlink" version="1.1" id="Layer_1" x="0px" y="0px" viewBox="0 0 1000 1000" style="enable-background:new 0 0 1000 1000;" xml:space="preserve"> <path style="fill-rule:evenodd;clip-rule:evenodd;fill:#FFFFFF;" d="M896.6,385.2c1.1,0.6,2.2,1,3.5,0.8c1.5,0,3.1-0.7,4.2-1.7 l42.2-37.7c1.1-1,1.8-2.2,2.2-3.6c0.4-1.4,0.3-2.9-0.1-4.2c-0.4-1.4-1.3-2.5-2.4-3.5c-1.1-0.8-2.5-1.4-3.9-1.5l-27-2.6l16.6-22.7 c0.8-1.3,1.3-2.8,1.1-4.3c-0.1-1.5-0.8-2.9-1.8-4c-1.4-1.4-3.1-2.1-4.9-2.1c-1.7,0-3.2,0.6-4.5,1.7l-42.2,37.7 c-1.1,1-1.8,2.2-2.2,3.6c-0.4,1.4-0.3,2.9,0.1,4.2c0.4,1.4,1.3,2.5,2.4,3.5c1.1,0.8,2.5,1.4,3.9,1.5l27,2.6l-16.6,22.7 c-0.7,1-1.1,2.2-1.3,3.3c-0.1,1.3,0.1,2.4,0.7,3.5C894.2,383.6,895.6,384.6,896.6,385.2z"></path> <path style="fill:#FFFFFF;" d="M843.9,394.4c-13.6,0-24.8,11.1-24.8,24.8c0,10.2,6.1,18.8,14.7,22.7v53.3h-15.3 c-1.1,0-1.9,0.8-1.9,1.9v15.6c0,1.1,0.8,1.9,1.9,1.9h25c5.4,0,9.6-4.5,9.6-9.6v-62.7c9-3.6,15.3-12.5,15.3-23 C868.6,405.4,857.7,394.4,843.9,394.4 M843.9,428.9c-5.4,0-9.6-4.5-9.6-9.6c0-5.4,4.5-9.6,9.6-9.6c5.4,0,9.6,4.5,9.6,9.6 C853.6,424.5,849.3,428.9,843.9,428.9"></path> <g> <path style="fill:#FFFFFF;" d="M402.4,456.1c-2.4-1.4-5-2.4-8.1-2.8c-3.1-0.6-6.3-0.7-9.5-0.7h-22.3v39.2h22.3 c3.3,0,6.4-0.3,9.5-0.7c3.1-0.6,5.7-1.5,8.1-2.8c2.4-1.5,4.2-3.5,5.6-6c1.4-2.5,2.1-6,2.1-10.2c0-4.2-0.7-7.5-2.1-10.2 C406.5,459.5,404.7,457.6,402.4,456.1z"></path> <polygon style="fill:#FFFFFF;" points="750.5,522.4 739.4,526.5 739.4,526.6 750.5,530.6 "></polygon> <path style="fill:#FFFFFF;" d="M137.8,456.1c-2.4-1.4-5-2.4-8.1-2.8c-3.1-0.6-6.3-0.7-9.5-0.7H98v39.2h22.3c3.3,0,6.4-0.3,9.5-0.7 c3.1-0.6,5.7-1.5,8.1-2.8c2.4-1.5,4.2-3.5,5.6-6c1.4-2.5,2.1-6,2.1-10.2c0-4.2-0.7-7.5-2.1-10.2C141.8,459.5,140,457.6,137.8,456.1 z"></path> <path style="fill:#FFFFFF;" d="M277.2,465.4c-2.8-4.3-6.4-7.5-11-10.2c-4.5-2.5-10-3.8-16.4-3.8c-6.4,0-12,1.3-16.4,3.8 c-4.5,2.5-8.2,5.8-11,10.2c-2.8,4.3-4.9,9-6.1,14.3c-1.4,5.4-1.9,11-1.9,16.7c0.1,5.4,0.7,10.7,1.9,16c1.4,5.3,3.3,9.9,6.1,14.1 c2.8,4.2,6.4,7.4,11,10c4.5,2.5,10,3.8,16.4,3.8c6.4,0,12-1.3,16.4-3.8c4.5-2.5,8.2-5.8,11-10c2.8-4.2,4.9-8.8,6.1-14.1 c1.4-5.3,1.9-10.4,1.9-16c0-5.7-0.6-11.4-1.9-16.7C281.9,474.3,280,469.6,277.2,465.4z"></path> <path style="fill:#FFFFFF;" d="M768.2,386.1h-708c-19.9,0-36.2,15.7-36.2,35.1v149.3c0,19.3,16.3,35.1,36.2,35.1h708 c19.9,0,36.2-15.7,36.2-35.1V421.1C804.2,401.8,788.1,386.1,768.2,386.1z M491,430.7c2.5,3.1,5.4,5.6,8.9,7.5c4,2.4,9.2,3.5,15,3.5 c5.8,0,11-1.3,15-3.5c3.5-1.9,6.4-4.5,8.9-7.5h34.8c-2.9,7-6.7,13.1-11.4,18.4c-5.6,6-12.2,10.9-20.2,14.3c-7.9,3.6-17,5.3-27,5.3 c-9.9,0-18.9-1.8-26.9-5.3c-8.1-3.5-14.9-8.2-20.3-14.3c-4.9-5.3-8.6-11.5-11.4-18.4H491z M171.1,487.6c-1.7,5.1-4.3,9.5-7.9,13.4 c-3.6,3.9-8.3,7.1-14.1,9.5c-5.7,2.5-12.7,3.5-20.9,3.5H97.9v47.2H69.1V430.3h59.1c8.2,0,15.2,1.3,20.9,3.5 c5.7,2.5,10.4,5.4,14.1,9.5c3.6,3.9,6.3,8.5,7.9,13.4c1.7,5,2.5,10.3,2.5,15.6S172.7,482.6,171.1,487.6z M310,523 c-2.9,8.3-7.2,15.4-12.7,21.4c-5.4,6.1-12.2,10.9-20.2,14.3c-7.9,3.5-17,5.3-27.1,5.3c-10,0-19.1-1.7-27-5.3 c-8.1-3.5-14.7-8.3-20.3-14.3c-5.4-6.1-9.7-13.4-12.7-21.4c-2.9-8.3-4.5-17.1-4.5-26.6c0-9.9,1.5-18.9,4.5-27.3 c2.9-8.5,7.2-15.6,12.7-21.8c5.4-6.3,12.2-11.1,20.3-14.6c8.1-3.5,17-5.4,27-5.4c10.2,0,19.2,1.8,27.1,5.4 c7.9,3.5,14.6,8.5,20.2,14.6c5.4,6.3,9.7,13.5,12.7,21.8c2.9,8.5,4.5,17.4,4.5,27.3C314.5,505.9,313,514.8,310,523z M435.5,487.6 c-1.7,5.1-4.3,9.5-7.9,13.4c-3.6,3.9-8.3,7.1-14.1,9.5c-5.7,2.5-12.7,3.5-20.9,3.5h-30.2v47.2h-28.8V430.3h59 c8.2,0,15.2,1.3,20.9,3.5c5.7,2.5,10.4,5.4,14.1,9.5c3.6,3.9,6.3,8.5,7.9,13.4c1.7,4.9,2.5,10.3,2.5,15.6S437.2,482.6,435.5,487.6z M578,562.4h-31.9c0.8-4.2,1.4-8.5,1.4-12.9c0-5.3-0.6-10.7-1.8-15.7c-1.3-5-3.2-9.5-5.7-13.4c-2.6-3.8-5.8-6.8-10-9.2 c-4-2.4-9.2-3.5-15-3.5c-5.8,0-11,1.3-15,3.5c-4.2,2.4-7.5,5.4-10,9.2c-2.6,3.9-4.5,8.3-5.7,13.4c-1.3,5.1-1.8,10.3-1.8,15.7 c0,4.5,0.6,8.8,1.4,12.9h-32.1c-0.6-4.2-1-8.5-1-12.9c0-9.6,1.5-18.6,4.5-27c2.9-8.2,7.1-15.4,12.5-21.7 c5.6-6.1,12.4-11.1,20.3-14.6c7.9-3.5,17-5.3,26.9-5.3c10,0,19.1,1.8,27,5.3c7.9,3.5,14.7,8.3,20.2,14.6 c5.4,6.1,9.6,13.4,12.5,21.7c2.9,8.3,4.5,17.4,4.5,27C579,553.9,578.6,558.2,578,562.4z M683,561.1l-39.4-58.7l-16.4,16.7v42h-28.8 V430.3h28.8v54.3l50.9-54.3h36l-51.1,51.6l55.9,79.2H683z M760.1,554.4c-0.6,1.4-1.5,2.5-2.6,3.5s-2.5,1.7-3.9,2.2 c-1.5,0.6-2.9,0.7-4.5,0.7c-1.7,0-3.5-0.3-5-0.7c-1.5-0.4-2.9-1.3-4.2-2.2s-2.1-2.1-2.8-3.5c-0.7-1.4-1.1-3.1-1.1-5 c0-1.4,0.1-2.5,0.6-3.6c0.3-1.1,0.7-2.2,1.5-3.1c0.6-0.8,1.5-1.7,2.5-2.4c1-0.7,2.2-1,3.5-1.3v3.2c-0.8,0.1-1.7,0.6-2.4,0.8 c-0.6,0.4-1.3,1-1.5,1.5c-0.4,0.6-0.7,1.4-1,2.1c-0.3,0.7-0.4,1.5-0.4,2.5c0,1.5,0.3,2.6,0.8,3.8c0.6,1,1.4,1.8,2.4,2.5 c1,0.6,2.1,1.1,3.3,1.5c1.3,0.4,2.5,0.6,3.8,0.6c1.3,0,2.5-0.1,3.5-0.6c1.1-0.4,2.2-0.8,3.1-1.5c0.8-0.7,1.5-1.5,2.1-2.5 c0.6-1,0.7-2.2,0.7-3.5s-0.3-2.4-0.6-3.3c-0.3-1-1-1.7-1.7-2.5c-0.7-0.7-1.5-1.1-2.5-1.5c-1-0.4-1.9-0.6-3.1-0.6v7.5H748v-10.4 h12.5v1.9l-2.9,0.8c1.1,1.5,1.9,2.6,2.6,4c0.6,1.4,0.8,2.8,0.8,4.2C761.1,551.5,760.7,553.2,760.1,554.4z M736.6,493.3V489h23.9 v3.1h-19.9l19.9,7.5v2.6l-19.9,7.4v0.1h19.9v3.1h-23.9v-4.3l20-7.7L736.6,493.3z M736.6,459.1v-3.1h23.9v3.6l-19.2,12.4h19.2v3.1 h-23.9v-3.3l19.3-12.7H736.6z M760.5,480.4v3.2h-23.9v-3.2H760.5z M760.5,515.2v3.5l-7.2,2.5v10.2l7.2,2.6v3.3l-23.9-9.3v-3.5 L760.5,515.2z M760.1,445.5c-0.6,1.5-1.5,2.5-2.6,3.5c-1.1,1-2.5,1.7-3.9,2.2c-1.5,0.6-2.9,0.7-4.5,0.7c-1.7,0-3.5-0.3-5-0.7 c-1.5-0.6-2.9-1.3-4.2-2.2c-1.3-1-2.1-2.1-2.8-3.5c-0.7-1.4-1.1-3.1-1.1-5c0-1.4,0.1-2.5,0.6-3.6c0.3-1.1,0.7-2.2,1.5-3.1 c0.6-0.8,1.5-1.7,2.5-2.4c1-0.6,2.2-1,3.5-1.3v3.2c-0.8,0.1-1.7,0.6-2.4,0.8c-0.6,0.4-1.3,1-1.5,1.5c-0.4,0.6-0.7,1.4-1,2.1 c-0.3,0.7-0.4,1.5-0.4,2.5c0,1.5,0.3,2.6,0.8,3.8c0.6,1,1.4,1.8,2.4,2.5c1,0.6,2.1,1.1,3.3,1.5c1.3,0.4,2.5,0.6,3.8,0.6 c1.3,0,2.5-0.1,3.5-0.6c1-0.4,2.2-0.8,3.1-1.5c0.8-0.7,1.5-1.5,2.1-2.5c0.6-1,0.7-2.2,0.7-3.5c0-1.3-0.3-2.4-0.6-3.3 c-0.3-1-1-1.7-1.7-2.5c-0.7-0.7-1.5-1.1-2.5-1.5c-1-0.4-1.9-0.6-3.1-0.6v7.5H748v-10.4h12.5v1.9l-2.9,0.8c1.1,1.5,1.9,2.6,2.6,4 c0.6,1.4,0.8,2.8,0.8,4.2C761.1,442.6,760.7,444.2,760.1,445.5z"></path> </g> </svg> 