<?xml version="1.0" encoding="UTF-8"?> <svg xmlns="http://www.w3.org/2000/svg" xmlns:xlink="http://www.w3.org/1999/xlink" version="1.1" id="Layer_1" x="0px" y="0px" viewBox="0 0 1000 1000" style="enable-background:new 0 0 1000 1000;" xml:space="preserve"> <style type="text/css"> .st0{fill:#FFFFFF;} </style> <g> <path class="st0" d="M460.4,404.6c-108.7-4.2-244.6,49.7-243.3,52.1c47.4,104.2,99.1,175.4,97.6,175.6 c-22.7,28-68.8,45.5-70.6,42.9C112.8,487,48.2,215.2,48.2,215.2s217.5-93.6,412.3-82.9C463.5,174.5,464.6,404.1,460.4,404.6z M377.5,224.9c-0.7-11.6-164.7,16-218.8,54.4c1.3,23.8,11,65.2,23.9,94C288.2,334,332.8,326,381.2,319.9 c-0.2-17.6-3.1-84.2-3.6-94.9"></path> <path class="st0" d="M532.5,132.4c-2.8,7.8-74.7,427.4,202.1,533.7c60.3-52.4,155.7-241,155.7-241l-138.2-63l-35,75.5l63,30.7 c-15.1,30.8-38.4,78-58.2,102.2c-55.5-51.9-121.7-147.8-109.8-349.8c154,7.4,239,65.9,239,65.9c-4.8,15-12.8,30.5-19.4,44.6 c-0.4,0,78.6,37,78.6,37.2c17.2-35.1,61.3-123.4,61.3-123.4S784.4,122.8,532.5,132.4"></path> <path class="st0" d="M577.8,646.7c-64.3-68.3-85.5-126.6-87.9-133.6c-2.4,7.1-23.7,65.3-87.9,133.6 c-68.6,72.9-122.2,92.4-122.2,92.4s67.2,57.9,98.3,85c35,30.5,111.8,85.7,111.8,85.7s76.9-55.2,111.8-85.7 c31.1-27.1,98.3-85,98.3-85S646.4,719.6,577.8,646.7z M489.8,822.2c-0.9-0.1-65.7-41.6-92.2-76.3c61.6-38.7,88.3-83.6,92.2-89.7 c3.9,5.9,30.6,50.9,92.2,89.7C555.6,780.6,490.7,822.1,489.8,822.2z"></path> </g> </svg> 