<?xml version="1.0" encoding="UTF-8"?> <svg xmlns="http://www.w3.org/2000/svg" xmlns:xlink="http://www.w3.org/1999/xlink" version="1.1" id="Layer_1" x="0px" y="0px" viewBox="0 0 1000 1000" style="enable-background:new 0 0 1000 1000;" xml:space="preserve"> <path style="fill:#FFFFFF;" d="M19.9,484.5c0.8-0.2,0.8-1,1-1.6c2.6-10,8.5-17.9,16.3-24.4c13.3-11.1,28.8-18,45-23.5 c27.9-9.5,56.4-15.8,86.1-15c7.9,0.2,15.6,1.6,23,4.7c15.5,6.4,21.6,18.9,17,35c-3.4,11.7-10.2,21.5-18.1,30.6 c-7.9,9.2-16.9,17.3-26.5,24.7c-0.7,0.5-1.3,1.4-2.9,1c1.1-1.4,2.1-2.6,3.1-3.8c10-11.9,18.1-24.8,22-40.1c4.3-17.1-1.5-31-16.7-40 c-13.3-7.8-27.7-8.8-42.5-5.8c-21.9,4.4-41.5,13.4-56.4,30.6c-10.3,11.9-15.4,25.3-10.4,41.1c3.3,10.3,10.4,17.4,19.4,22.8 c12.8,7.7,26.9,11.3,41.4,13.6c28.2,4.5,56.6,4,84.9,1.8c2-0.2,4,0,6.1,0.3c-4.6,1-9.2,2.1-13.8,3.1c-4.7,1-9.4,1.9-14.1,2.7 c-30.4,5.6-60.9,6.5-91.5,3.1c-18.2-2-35.5-7.2-50.5-18.1c-10.2-7.4-17.8-16.7-21-29.1c-0.1-0.4-0.5-0.8-0.8-1.2 C19.9,492.9,19.9,488.7,19.9,484.5z"></path> <path style="fill:#FFFFFF;" d="M372.6,483.6c0,14.1-0.1,27.8,0.1,41.4c0,3.2-0.9,4.1-4,3.9c-5.7-0.2-11.5-0.2-17.2,0 c-2.1,0-2.7-0.6-2.7-2.7c0.1-28.4,0.1-56.7,0-85.1c0-2.4,0.9-2.9,3-2.8c4.8,0.1,9.6,0.2,14.4,0c2.7-0.1,4.3,0.8,5.7,3.1 c9.1,15.1,18.4,30.1,27.6,45.1c0.7,1.2,1.5,2.4,2.5,3.9c9.9-16.6,19.6-32.7,29.2-48.9c1.4-2.3,2.8-3.4,5.6-3.3 c4.8,0.3,9.6,0.2,14.4,0c2.3-0.1,3.3,0.4,3.3,3c0,28.2,0,56.4,0.1,84.7c0,2.3-0.7,3-2.9,2.9c-5.7-0.1-11.5-0.2-17.2,0 c-2.8,0.1-3.7-0.7-3.6-3.5c0.1-13-0.1-26-0.2-39c0-1.3,0-2.6,0-4.2c-1.6,0.7-1.9,1.9-2.5,2.8c-6.4,10.7-12.9,21.3-19.2,32.1 c-1.2,2.1-2.7,2.6-5,2.9c-5.9,0.8-9.4-1.3-12.2-6.6c-4.9-9.1-10.7-17.7-16.2-26.5C374.7,486,374.3,484.6,372.6,483.6z"></path> <path style="fill:#FFFFFF;" d="M717.7,481.7c0,14.6-0.1,29,0.1,43.3c0,3-0.6,4.2-3.9,4c-6-0.3-12-0.2-18,0c-2.3,0-3.3-0.4-3.3-3 c0.1-28.2,0.1-56.5,0-84.7c0-2.3,0.7-3.2,3-2.9c0.1,0,0.3,0,0.4,0c5.9,0.1,12.5-1.5,17.4,0.7c4.7,2.1,7.7,8.1,11.4,12.5 c8.4,10,16.6,20,25,30c1.1,1.3,2.2,2.5,4.1,4.7c0-2.7,0-4.2,0-5.8c0-12.9,0.1-25.7-0.1-38.6c0-2.7,0.6-3.8,3.5-3.6 c6.3,0.2,12.5,0.1,18.8,0c2,0,3.1,0.2,3.1,2.7c-0.1,28.4-0.1,56.7,0,85.1c0,2-0.6,2.8-2.7,2.7c-5.5-0.1-10.9-0.1-16.4,0 c-2.1,0.1-3-1.2-4.2-2.5c-11.7-14.1-23.4-28.2-35.2-42.3C720,483.3,719.5,482.1,717.7,481.7z"></path> <path style="fill:#FFFFFF;" d="M543.2,466.2c0-8.1,0.1-16.2-0.1-24.2c-0.1-2.7,0.5-3.7,3.5-3.6c6.4,0.2,12.8,0.1,19.2,0.1 c1.6,0,2.9,0,2.9,2.2c-0.3,18.1,1.1,36.3-0.6,54.4c-2,21.4-15,33.6-36.6,35.4c-9.7,0.8-19.2,0-28-4.5c-13.9-7-19.6-19.1-20.1-33.7 c-0.5-16.9-0.1-33.9-0.2-50.9c0-2.7,1.1-3,3.3-3c6.4,0.1,12.8,0.2,19.2,0c2.7-0.1,3.3,0.8,3.3,3.4c-0.1,15.2,0,30.5-0.1,45.7 c0,4,0.4,8,1.7,11.7c2.4,7,7.7,10.3,15.8,10.2c7.9-0.1,12.8-3.4,15.3-10.4c1.6-4.5,1.6-9.1,1.6-13.7 C543.2,478.9,543.2,472.6,543.2,466.2z"></path> <path style="fill:#FFFFFF;" d="M808.6,483.2c0-13.8,0.1-27.6-0.1-41.3c0-2.7,0.7-3.6,3.5-3.6c21.4,0.1,42.9,0.1,64.3,0 c2.9,0,3.6,0.9,3.5,3.6c-0.2,4.2-0.3,8.5,0,12.7c0.2,3.2-1,3.7-3.9,3.6c-12.8-0.1-25.6,0-38.4-0.1c-3,0-4.1,0.7-3.7,3.7 c0.4,3.7-1.5,8.4,0.7,10.7c2.2,2.4,7.1,0.7,10.8,0.7c8.7,0.1,17.3,0.1,26,0c2.2,0,3.1,0.5,3,2.8c-0.2,4.4-0.2,8.7,0,13.1 c0.1,2.7-0.8,3.3-3.3,3.3c-10.9-0.1-21.9,0.1-32.8-0.2c-3.7-0.1-4.6,1.1-4.3,4.5c0.3,2.9,0.2,5.8,0,8.7c-0.2,2.8,0.8,3.5,3.6,3.5 c13.5-0.1,26.9,0,40.4-0.1c3.1,0,3.8,0.9,3.7,3.8c-0.2,4.4-0.2,8.7,0,13.1c0.1,2.5-0.8,3.1-3.2,3.1c-22.1-0.1-44.2-0.1-66.3,0 c-2.9,0-3.5-0.9-3.5-3.6C808.7,511.3,808.6,497.3,808.6,483.2z"></path> <path style="fill:#FFFFFF;" d="M225.1,528.9c-0.3-1.6,0.5-2.6,1-3.7c12.3-27.8,24.7-55.6,37-83.5c1.2-2.6,2.5-3.5,5.3-3.4 c6.3,0.2,12.5,0.1,18.8,0c2,0,3.1,0.7,3.9,2.5c12.5,28.3,25.1,56.6,37.8,84.9c1,2.3,1.1,3.3-1.9,3.2c-6.9-0.2-13.9-0.1-20.8,0 c-2.1,0-3.1-0.7-3.8-2.6c-1.5-4.1-3.3-8.1-4.8-12.2c-0.7-2-1.6-2.9-4-2.9c-11.1,0.1-22.1,0.1-33.2,0c-1.9,0-2.9,0.6-3.5,2.3 c-1.6,4.3-3.4,8.6-5.2,12.9c-0.5,1.2-0.9,2.4-2.7,2.4C241,528.9,233,528.9,225.1,528.9z M288.6,492.3c-3.9-9.6-7.6-18.8-11.6-28.7 c-4,10-7.8,19.2-11.6,28.7C273.3,492.3,280.7,492.3,288.6,492.3z"></path> <path style="fill:#FFFFFF;" d="M632.8,436.8c10.4,0,20.4,1.7,29.8,6.1c2.4,1.1,3.2,2.1,1.9,4.7c-2,4-3.8,8.2-5.2,12.4 c-1.1,3.1-2.4,3.2-5.1,1.8c-7.6-3.8-15.7-5.7-24.3-5.2c-3.1,0.2-6.1,0.6-8.7,2.4c-4.6,3.2-4.2,8.7,0.9,11c5.6,2.5,11.7,3.4,17.7,4.8 c5,1.2,10.1,2.4,14.8,4.6c16.6,7.5,20.2,27.7,7.2,40.5c-6.9,6.7-15.6,9.5-24.9,10.4c-14.4,1.3-28.4-0.7-41.6-6.9 c-3.2-1.5-4.9-2.9-2.6-6.8c2.2-3.7,3.8-7.9,5.4-11.9c0.9-2.2,1.6-2.6,3.9-1.3c9.2,5.2,19.2,7.8,29.8,7.4c2.7-0.1,5.3-0.5,7.8-1.5 c2.5-1,4.3-2.5,4.5-5.5c0.1-3.1-1.5-4.9-4.2-6.1c-7-3-14.6-3.9-21.9-6c-2.8-0.8-5.7-1.5-8.4-2.6c-8.6-3.4-15.4-8.7-16.7-18.5 c-1.5-10.8,1.9-19.9,11.1-26.4c7.1-5,15.2-6.8,23.7-7.4C629.3,436.7,631,436.8,632.8,436.8z"></path> <path style="fill:#FFFFFF;" d="M939.1,438.4c12.4,0,24.8,0.1,37.2-0.1c3.1,0,3.9,0.9,3.7,3.8c-0.2,4.4-0.3,8.8,0,13.1 c0.2,3.1-1,3.7-3.8,3.7c-6.8-0.2-13.6,0.1-20.4-0.1c-3-0.1-3.8,0.8-3.8,3.8c0.1,20.8,0,41.6,0.1,62.4c0,3-0.5,4.2-3.9,4.1 c-6.1-0.3-12.3-0.2-18.4,0c-2.8,0.1-3.6-0.8-3.5-3.6c0.1-20.8,0-41.6,0.2-62.4c0-3.7-1.1-4.4-4.5-4.3c-6.8,0.3-13.6,0-20.4,0.1 c-2.8,0.1-3.3-1-3.3-3.5c0.2-4.5,0.2-9,0-13.5c-0.1-2.8,0.8-3.6,3.6-3.6C914.4,438.5,926.8,438.4,939.1,438.4z"></path> <path style="fill:#FFFFFF;" d="M81.3,479.6c0.1-18,14.7-32.6,32.8-32.5c18,0,32.8,14.7,32.9,32.6c0,18-14.9,32.7-33.2,32.7 C95.8,512.3,81.2,497.6,81.3,479.6z"></path> </svg> 