<?xml version="1.0" encoding="UTF-8"?> <svg xmlns="http://www.w3.org/2000/svg" xmlns:xlink="http://www.w3.org/1999/xlink" version="1.1" id="Layer_1" x="0px" y="0px" viewBox="0 0 1000 1000" style="enable-background:new 0 0 1000 1000;" xml:space="preserve"> <path style="fill:#FFFFFF;" d="M697.7,532.1c0,21.9-0.1,43.8,0.1,65.7c0,2.9-0.7,3.7-3.6,3.6c-4.3-0.3-8.7-0.3-13.1,0 c-2.9,0.2-3.3-1-3.3-3.5c0.1-19.6,0.1-39.2,0.1-58.8c0-24.2,0-48.4,0.1-72.6c0-2.8-0.5-3.8-3.5-3.6c-4.5,0.3-8.9,0-13.4,0.1 c-2,0-2.9-0.4-2.9-2.6c0.1-4.9,0.1-9.9,0-14.8c0-1.9,0.6-2.6,2.5-2.5c4.6,0.1,9.2-0.2,13.8,0.1c3,0.2,3.5-0.9,3.5-3.7 c-0.2-10.9,0-21.8-0.1-32.7c0-2.8,0.9-3.5,3.5-3.4c4.6,0.2,9.2,0.1,13.8,0c2.1-0.1,2.7,0.6,2.7,2.7c-0.1,11.2,0,22.5-0.1,33.7 c0,2.5,0.5,3.3,3.2,3.3c11.1-0.2,22.3,0,33.4-0.1c2.4,0,3.2,0.7,3.1,3.1c-0.2,4.5-0.2,9,0,13.4c0.2,3-1,3.5-3.7,3.5 c-10.9-0.1-21.8,0-32.7-0.1c-2.6,0-3.2,0.7-3.2,3.2C697.7,488.1,697.7,510.1,697.7,532.1z"></path> <path style="fill:#FFFFFF;" d="M954.8,482.2c0-38.2,0-76.3-0.1-114.5c0-3.2,0.9-4.1,4-3.9c4.1,0.3,8.3,0.3,12.4,0 c3-0.2,3.5,0.9,3.5,3.6c-0.1,19.7-0.1,39.4-0.1,59.1c0,56.9,0,113.9,0.1,170.8c0,3.1-0.8,4.1-3.9,3.9c-4.1-0.3-8.3-0.3-12.4,0 c-2.9,0.2-3.6-0.8-3.6-3.6c0.1-31.4,0.1-62.8,0.1-94.2C954.8,496.4,954.8,489.3,954.8,482.2z"></path> <path style="fill:#FFFFFF;" d="M302.2,522.1c0-18.2,0-36.5,0-54.7c0-7.2-0.1-14.4-0.3-21.6c-0.1-2.3,0.7-2.9,2.9-2.8 c18,0.1,36,0.1,54,0c2.1,0,2.8,0.5,2.7,2.7c-0.2,4.8-0.2,9.6,0,14.4c0.1,2.4-0.8,2.8-3,2.8c-11-0.1-22,0.1-33-0.1 c-3.1-0.1-3.8,0.8-3.8,3.8c0.1,43.6,0,87.1,0.2,130.7c0,3.4-0.8,4.3-4.1,4.1c-4.1-0.3-8.3-0.2-12.4,0c-2.5,0.1-3.3-0.6-3.3-3.2 c0.2-11.3,0.1-22.7,0.1-34C302.2,550.1,302.2,536.1,302.2,522.1z"></path> <path style="fill:#FFFFFF;" d="M618.5,522.2c0,25.1-0.1,50.2,0.1,75.3c0,3.3-1,4-4,3.8c-4.5-0.2-8.9-0.1-13.4,0 c-1.8,0-2.5-0.6-2.3-2.4c0.1-0.6,0-1.1,0-1.7c0-50.1,0-100.2-0.1-150.3c0-3,0.5-4.3,3.9-4c4.2,0.3,8.5,0.3,12.7,0 c2.7-0.2,3.2,0.8,3.2,3.3C618.5,471.6,618.5,496.9,618.5,522.2z"></path> <path style="fill:#FFFFFF;" d="M608.5,422.9c-3.1,0-7.2,1.2-9-0.3c-2.1-1.8-0.5-6-0.7-9.2c-0.1-2.5,0.1-5,0-7.6 c-0.1-1.7,0.5-2.5,2.4-2.4c5,0.1,10.1,0.1,15.1,0c1.6,0,2.2,0.5,2.2,2.2c-0.1,5.2-0.1,10.3,0,15.5c0,1.6-0.4,2.3-2.1,2.2 c-2.6-0.1-5.3,0-7.9,0C608.5,423.1,608.5,423,608.5,422.9z"></path> <path style="fill:#FFFFFF;" d="M145.7,363.8c-68.9-0.5-121.2,55.6-120.3,118.8C24.5,546.2,77,600.8,142.9,601.4 c64,0.6,119.6-51.1,119.6-118.9C262.6,417.8,209.5,364.3,145.7,363.8z M143.9,581.6c-53.9,0.3-98.7-44.1-98.9-98.2 c-0.3-54.9,43.8-99.5,98.4-99.7c54.8-0.2,99,43.6,99.4,98.3C243,537,199.1,581.3,143.9,581.6z"></path> <path style="fill:#FFFFFF;" d="M540.1,470.6c-14-16.3-32-25.5-53.4-27.2c-25.8-2.1-47.5,7.1-65.9,26.2c0-1.9,0-3.1,0-4.4 c0-32.6-0.1-65.1,0.1-97.7c0-3.2-0.9-3.9-3.8-3.7c-4.1,0.2-8.3,0.3-12.4,0c-3-0.2-3.8,0.7-3.8,3.7c0.1,47.9,0.1,95.8,0.1,143.7 c0,28.7,0.1,57.3-0.1,86c0,3.4,1,4.3,4.2,4c4.2-0.3,8.5-0.2,12.7,0c2.4,0.1,3.1-0.6,3.1-3c-0.2-7.5-0.1-15.1-0.1-23.3 c33,35.6,84.9,33.3,114.7,3.8C565.2,549.4,567.4,502.4,540.1,470.6z M480,581.6c-32.9-0.1-59.2-26.7-59.1-60.1 c0-32.3,26.8-58.7,59.5-58.7c32.7,0.1,59.2,26.6,59.1,59.4C539.4,555.3,512.9,581.7,480,581.6z"></path> <path style="fill:#FFFFFF;" d="M915.3,522.4c0-25.3-0.1-50.7,0-76c0-2.7-0.7-3.5-3.4-3.4c-4.2,0.2-8.5,0.2-12.7,0 c-2.9-0.2-4,0.5-3.9,3.7c0.3,7.3,0.1,14.7,0.1,22.6c-34.2-37.1-87.9-31.9-116.4-1.9c-27.9,29.3-29.5,75.3-3.1,106.2 c13.6,16,31.1,25.3,51.9,27.3c26.4,2.6,48.8-6.3,67.6-26.1c0,8.5,0.1,16.1,0,23.7c0,2.1,0.6,2.8,2.7,2.7c4.4-0.1,8.7-0.3,13.1,0 c3.2,0.2,4.2-0.6,4.2-4C915.2,572.3,915.3,547.3,915.3,522.4z M835.9,581.6c-32.8-0.1-59.2-26.8-59.1-59.8c0.1-32.7,26.7-59,59.5-59 c33.4,0,59.8,28.2,59.1,60.8C894.8,555.4,868.3,581.7,835.9,581.6z"></path> </svg> 