<?xml version="1.0" encoding="UTF-8"?> <svg xmlns="http://www.w3.org/2000/svg" xmlns:xlink="http://www.w3.org/1999/xlink" version="1.1" id="Layer_1" x="0px" y="0px" viewBox="0 0 1000 1000" style="enable-background:new 0 0 1000 1000;" xml:space="preserve"> <g> <path style="fill:#FFFFFF;" d="M969.3,637.7c-0.1-34.6-0.1-69.1-0.2-103.7h0c0.1-1.7,0.2-3.4,0.2-5.1c0-67.3,0-134.6,0.1-201.9 c0-4.6-1.2-5.7-5.8-5.7c-309.9,0.1-619.8,0.1-929.7,0c-4.6,0-5.8,1-5.8,5.7c0.2,66.9,0.2,133.9,0,200.8c0,5.2,1.3,6.2,6.3,6.2 C204,534,373.5,534,543.1,534c2,0,4.1,0.1,6.1,0.2c0,42.7,0.1,85.4-0.1,128.1c0,4.9,1.2,6.1,6.1,6.1c136.1-0.1,272.3-0.1,408.4-0.1 c0.3,0,0.7,0,1,0c3.7,0.6,5-0.6,4.9-4.6C969.1,655,969.3,646.4,969.3,637.7z M753.2,389.5c36.6,0.1,73.2,0,109.8,0.1 c7.9,0,15.9,1.1,23.1,4.9c9.3,4.8,14.2,12.4,14,22.9c-0.2,10.5-5.5,17.9-14.9,22.3c-1.9,0.9-4,1.6-6.2,2.5 c7.8,7.7,15.4,15.3,23,22.9c-0.2,0.5-0.4,1-0.6,1.4c-7.5,0-15-0.4-22.4,0.1c-6.1,0.4-10.5-1.5-14.6-6.1 c-5.3-5.9-10.4-13.3-17.2-16.1c-6.6-2.8-15.3-0.7-23.1-0.7c-12.5,0-25,0-38.2-1.2c5.4-5.2,10.7-10.5,16.1-15.7 c1.4-1.3,3.2-0.7,4.9-0.7c17.6,0,35.2,0,52.9-0.1c2.2,0,4.4-0.2,6.5-0.6c4.5-0.8,6.8-3.6,6.7-8.2c-0.1-4.6-2.8-7.1-7.1-8 c-1.5-0.3-3-0.3-4.5-0.3c-26.9,0-53.9,0.1-80.8-0.1c-4.2,0-5,1.3-5,5.2c0.2,15.8-0.1,31.5,0.2,47.3c0.1,4.4-1.3,5.5-5.5,5.3 c-5.7-0.3-11.5-0.2-17.3,0c-3,0.1-3.7-1-3.7-3.8c0.1-23.2,0.1-46.4,0-69.6C749.3,390,750.5,389.5,753.2,389.5z M599,389.6 c19.8,0,39.7,0,59.5,0c22,0,44.1,0.1,66.1-0.1c3.8,0,5.1,0.9,4.7,4.7c-0.4,4.2,1.2,9.7-0.9,12.3c-2.3,2.9-8,0.9-12.1,0.9 c-41.5,0.1-83.1,0-124.6,0.1c-4.3,0-5.4-1.2-5.3-5.4C586.7,389.6,586.5,389.6,599,389.6z M587.3,420.1c2.5-2.9,8.3-1,12.6-1 c41.2-0.1,82.4,0,123.6-0.1c4.4,0,6.1,0.7,5.9,5.6C729.1,437,729.3,437,717,437c-19.7,0-39.3,0-59,0c-22.2,0-44.4-0.1-66.6,0.1 c-3.6,0-5.3-0.7-4.9-4.7C586.9,428.2,585.2,422.6,587.3,420.1z M587.4,449.4c2.6-2.7,8-0.8,12.2-0.8c41.5-0.1,83.1,0,124.6-0.1 c4.3,0,5.3,1.1,5.2,5.3c-0.3,12.7-0.1,12.7-12.6,12.7c-19.7,0-39.3,0-59,0c-22,0-44.1-0.1-66.1,0.1c-3.7,0-5.8-0.5-5.2-4.9 C587.1,457.5,584.8,452.1,587.4,449.4z M279.7,389.6c41.6,0,83.3,0.1,124.9-0.1c4.2,0,5.7,1,5.2,5.3c-0.4,4,1.3,9.4-0.8,11.8 c-2.4,2.9-8,0.9-12.1,0.9c-19.6,0.1-39.3,0-58.9,0c-22.2,0-44.4-0.1-66.5,0.1c-3.8,0-4.9-1-4.9-4.8 C266.7,389.6,266.5,389.6,279.7,389.6z M239.5,461.4c-6.8,4.1-14.4,5-22,5.1c-21.7,0.2-43.4,0.1-65.1,0.1c-1.7,0-3.3-0.1-4.6-1.5 c-4.9-4.9-9.9-9.6-15.9-15.3c3.3-0.1,5-0.3,6.8-0.3c23.7,0,47.5,0,71.2,0c2.6,0,5.1-0.1,7.5-1c2.8-1.1,4.3-3.2,4.2-6.3 c-0.1-2.9-1.5-4.7-4.1-5.8c-1.8-0.8-3.6-0.8-5.5-0.8c-28.5,0-57,0-85.4-0.1c-3.4,0-3.8,1.3-3.8,4.2c0.2,7.8-0.1,15.6,0.1,23.4 c0.1,2.9-0.9,3.8-3.7,3.7c-6.4-0.2-12.9-0.2-19.3,0c-2.6,0.1-3.5-0.8-3.5-3.5c0.1-23.4,0.1-46.8,0-70.2c0-2.7,0.8-3.4,3.5-3.4 c37.8,0.1,75.6-0.1,113.4,0.2c7.2,0,14.5,1,21.1,4.6c6.7,3.6,10.7,8.9,10.1,16.7c-0.6,7.6-4.9,12.4-12.1,14.6 c-0.6,0.2-1.2,0.5-2.4,1.1c2.8,0.9,5.3,1.6,7.6,2.6c6.8,2.9,11,7.9,11.4,15.4C249.4,452.1,245.8,457.6,239.5,461.4z M408.8,465.8 c-2.6,2.4-7.8,0.7-11.8,0.7c-19.5,0.1-38.9,0-58.4,0c-22.3,0-44.7-0.1-67,0.1c-3.7,0-5-0.9-4.9-4.8c0.1-13.3-0.1-13.3,13-13.3 c41.6,0,83.3,0.1,124.9-0.1c4.1,0,5.9,0.8,5.3,5.2C409.2,457.8,411.6,463.1,408.8,465.8z M408.9,436.2c-2.5,2.6-8,0.8-12.2,0.8 c-41.5,0.1-83,0-124.4,0.1c-4.5,0-5.7-1.2-5.6-5.7c0.3-12.4,0.1-12.4,12.3-12.4c19.8,0,39.6,0,59.4,0c22.3,0,44.7,0.1,67-0.1 c3.6,0,4.8,0.9,4.4,4.5C409.3,427.8,411.6,433.4,408.9,436.2z M473,410c-15.7,0-31.3,0-47,0c-1.9,0-2.9-0.7-2.7-2.7 c0-0.3,0-0.7,0-1c0.2-5.4-2.2-12.2,0.9-15.7c2.9-3.3,9.9-0.3,15-1.1c10.7-1.7,18.8,1.9,25.3,10.5c2.5,3.3,6,5.8,9.1,8.7 C473.4,409.2,473.2,409.6,473,410z M514.6,409.9c-3.6-0.1-4.6,1.1-4.5,4.6c0.2,15.8-0.1,31.5,0.2,47.3c0.1,3.9-1.2,5-4.9,4.8 c-5.9-0.3-11.9-0.2-17.8,0c-3,0.1-4.2-0.7-4.2-4c0.1-23,0.1-46.1,0-69.1c0-3.2,1-4,4.1-3.9c13.2,0.2,26.4,0.1,39.7,0.1 c13.1,0,26.1,0.1,39.2-0.1c3.1,0,4.7,0.4,4.4,4.1c-0.6,5.3,2.2,12.5-1.1,15.5c-2.9,2.7-10,0.9-15.2,0.9 C541,410,527.8,410.1,514.6,409.9z M676.2,633.7c-8.1,0-16.3,0-24.4,0c-10.2,0-20.3-0.1-30.5,0.1c-2.8,0-3.8-0.7-3.8-3.7 c0.1-19.5,0.1-39,0-58.4c0-2.9,1-3.9,3.8-3.8c4.4,0.2,8.8,0.2,13.2,0c3.3-0.2,3.9,1.4,3.9,4.3c-0.1,13.9,0.1,27.8-0.1,41.7 c-0.1,4.1,1.2,5.1,5.1,5.1c12.5-0.2,25.1,0,37.6-0.2c3.8-0.1,5.4,0.8,5.3,5C686.1,633.7,686.4,633.7,676.2,633.7z M714,633.7 c-5.2-0.4-12,1.6-15.2-1c-3.4-2.7-1-9.8-1-15c-0.1-15.2,0-30.5-0.1-45.7c0-3.4,0.6-4.9,4.4-4.6c4.2,0.3,8.5,0.2,12.7,0 c2.7-0.1,3.5,0.9,3.4,3.5c-0.1,9.8-0.1,19.6-0.1,29.4c0,9.6-0.1,19.3,0.1,28.9C718.2,632.5,717.6,634,714,633.7z M813,583.1 c-8.3,15.7-16.7,31.4-25,47.1c-1.3,2.5-2.8,3.7-5.9,3.6c-6.8-0.3-14.6,1.9-20-0.9c-5.4-2.8-7-11.1-10.2-17 c-7.8-14.4-15.4-29-23.3-43.4c-2.2-4.1-1.2-4.9,2.9-4.6c5.7,0.3,12.4-1.5,17,0.8c4.6,2.4,5.7,9.6,8.3,14.7 c5.6,11,11.2,22,16.9,33.3c7.6-15.1,15.2-30,22.6-45c1.4-2.8,3-4,6.2-3.9c5.9,0.3,11.8,0.1,18.2,0.1 C818.7,573.6,815.5,578.2,813,583.1z M902,625.2c-0.2,8.4,0,8.4-8.7,8.4c-9.3,0-18.6,0-27.9,0c-10.7,0-21.3-0.1-32,0.1 c-3.4,0.1-4.3-1-4.3-4.3c0.1-19.1,0.1-38.3,0-57.4c0-3.4,1.2-4.3,4.4-4.3c21.2,0.1,42.3,0.1,63.5,0c3.1,0,4.1,0.9,4.1,4 c0.1,9.8,0.2,9.8-9.4,9.8c-12.4,0-24.7,0.1-37.1-0.1c-3.4,0-5.2,0.8-4.6,4.5c0.1,1,0.1,2,0,3c-0.6,3.9,0.8,5.2,4.9,5.1 c13.2-0.3,26.4,0,39.6-0.2c3.7-0.1,5.5,0.8,4.8,4.7c-0.2,1-0.1,2,0,3c0.6,3.8-0.9,4.9-4.7,4.9c-13.2-0.2-26.4,0.1-39.6-0.2 c-4.1-0.1-5.2,1.2-5.1,5.1c0.2,8.9,0,8.9,9.2,8.9c12.7,0,25.4,0.2,38.1-0.1C901.2,620.3,902.1,621.5,902,625.2z"></path> <path style="fill:#FFFFFF;" d="M212.3,407.3c-1.6-0.3-3.4-0.3-5.1-0.3c-12.9,0-25.8,0-38.6,0c-13.7,0-27.5,0.2-41.2-0.1 c-3.9-0.1-5.2,1.1-4.6,4.8c0.2,1,0.2,2.1,0,3c-0.7,4.3,1.1,5.3,5.3,5.2c26.4-0.2,52.9-0.1,79.3-0.1c1.7,0,3.4-0.1,5-0.4 c3.4-0.6,5.7-2.5,5.7-6.1C218.1,409.8,215.6,407.9,212.3,407.3z"></path> </g> </svg> 