<?xml version="1.0" encoding="UTF-8"?> <svg xmlns="http://www.w3.org/2000/svg" xmlns:xlink="http://www.w3.org/1999/xlink" version="1.1" id="Layer_1" x="0px" y="0px" viewBox="0 0 1000 1000" style="enable-background:new 0 0 1000 1000;" xml:space="preserve"> <path style="fill:#F70433;" d="M254.7,459.1c-27.4,3.1-48.1-10.4-68.3-25.7c-2.2-1.6-4.9-2.6-7.7-3.3c-4.3-1.1-9.3-0.4-11.5,3.1 c-2.1,3.4,2.7,5.5,4.8,7.8c15.3,16.5,30.6,32.8,46.1,49.3c-6.6,4.9-11.5,4.7-17.5-1.2c-16.9-16.9-34.5-33-51.6-49.7 c-3.6-3.5-6.5-4.2-11-1.9c-7.6,4-15.6,7.2-23.6,11c-2.3-15.8-1.3-17.8,11.2-24.3c9.4-4.8,18.8-10,28.2-15c2.5-1.4,5.6-3.3,3.5-6.4 c-1.9-2.7-4.5,0.2-6.5,1.1c-6.6,3.2-13,6.6-19.6,9.8c-1.6,0.8-3.5,3.1-5.2,1.1c-1-1.2-0.8-3.7-0.7-5.6c0-1,0.5-2.2,1.2-3.1 c12.6-17.2,47.1-23.2,64.4-10.9c14.8,10.7,29.3,21.6,44,32.4c2.3,1.6,4.8,3,7.1,4.5c14.8,10.3,29.3,11.3,46.2,2.9 c36.1-18,72.6-35.4,108.1-54.6c2-1.1,4-2.2,5.8-3.4c2.2-1.4,4.5-3.7,3.1-6.2c-1.9-3.3-4.5-0.1-6.4,0.8c-19.6,9.1-39,18.5-58.5,27.6 c-2,0.9-4.7,4.7-6.8,0.2c-1.5-3.4-1.1-6.6,2.9-8.5c3.5-1.8,7-3.6,10.2-5.8c2.2-1.4,7.7-2,5.1-5.7c-2.5-3.6-4.9-10.5-12.3-6.9 c-9,4.5-18.1,8.8-27.2,13.3c-12.3,6-24.5,12.2-37.7,18.7c0.7-8.2,2.3-15.2,4.2-22.1c1.3-5.2,5.1-7.8,9.4-10c17.1-9,34.3-18,51.3-27 c2.7-1.4,5.6-2.4,5.5-6.5c-0.2-5.2-0.8-8.1-7.3-5.1c-6.5,3.1-13.4,9.7-19.7,7.7c-6.2-1.9-10.5-9.6-15.7-14.7c-4-4-7.5-8.5-11.8-12.1 c-5.3-4.4-3.7-7.5,0.7-11.2c15.7-13.3,33.8-18.2,54-15.8c87.4,10.8,174.5,23.5,261.8,36.2c2.2,0.3,4.5,0.4,6.7,0.8 c14.1,2,15.3,4.3,8.9,17.8c8.9,3.4,17.8,6.6,26.6,10.2c4.5,1.9,8.3-0.3,12.1-1.9c32.7-13.4,64.2-29.7,94.2-48.2 c5.5-3.4,9.9-4.9,14.4,0.8c0.9,1.1,2.2,1.8,3.4,2.5c2.3,1.5,4.6,2,6.8-0.2c2.3-2.2,0.4-4.1-0.7-5.9c-11.5-20-20.8-41-29.4-62.4 c-0.4-1-0.8-2.1-1.2-3.2c-6.7-17.4-8.6-18.3-27.5-15.4c-31.3,4.9-60.1,17.8-88.9,30.2c-30.9,13.3-61.1,28.3-90.1,45.4 c-8,4.7-14.9,5.6-23.2,4.7c-14.3-1.4-28.6-2.7-42.7-3.7c-5.8-0.4-7.4-2.1-6.2-8.3c1.9-9.4,6.2-16.5,14-22 c22-15.3,44.4-29.4,69.6-38.8c11.4-4.3,22.5-4.9,33.3,1c17.4,9.7,34.6,9.2,53.5,3.7c32.5-9.3,64.7-20.4,98.4-25.4 c16.1-2.4,25.9,2.5,32.6,17.2c8.8,19.4,17.5,38.9,25.5,58.7c9.8,24.2,6.3,35.5-15.6,50.1c-32.6,21.9-68.8,36.6-104.6,51.7 c-69.1,29.2-141,49.7-212.2,72.5c-76.8,24.6-153.9,48.6-230.8,72.8c-11.5,3.6-11.5,3.6-17.5-6.8c-0.9-1.5-1.3-4.5-4-3.1 c-12.2,6.9-16-4.1-22.6-10.7c8.2-4.2,15.9-7.8,25.3-8.2c33.6-1.9,65.7-11.2,97.8-20.4c104.8-30.4,206.7-69,308.3-108.4 c1.5-0.5,4.1-0.4,4.5-4.5c-15.5,1.5-30.4-2.5-45.8,4.6c-50.3,23.4-102.2,43.3-154.6,61.4c-10.1,3.5-18.2,3.6-25.6-4.8 c-6-7-12.5-7.1-21.3-3.4c-46.4,19.9-93,39-139.6,58.1c-2.5,1-6.3,5.9-9,0c-2.3-5.1,0-8.6,4.6-11c6.7-3.4,13.3-7,20-10.5 C254.7,460.5,254.7,459.7,254.7,459.1z M343.8,295.5c2.1,4.8,4.9,4.6,7.1,5.1c79.1,16,158.1,31.9,237.2,47.9 c10.2,2.1,17.4-1.9,23.7-8.9c4.5-4.8,3-6.9-3.1-7.7c-14.2-1.8-28.3-3.7-42.5-5.7c-59.1-8.2-118.2-16.5-177.3-24.6 C374.4,299.6,359.7,297.7,343.8,295.5z M568.6,249c-22.4-10.2-61.8,2.3-74.5,22.8c9.1,0.9,18.9,5.4,27.2,0.8 C536.4,264.2,552,256.9,568.6,249z M556.6,234.6c7.7,3.2,14.7,5.9,21.5,8.9c2.4,1,5.9,1.1,6.3,4.6c0.3,3.6-3.2,4.2-5.5,5.5 c-3.4,2-6.9,3.6-10.2,5.6c-2.2,1.3-2.9,3.4-1.3,5.7c1.4,2,3,1.9,5.1,0.8c10.3-5.4,20.9-10.7,31.3-16c4.4-2.3,4.3-4.8-0.3-6.8 c-9.8-4-19.6-8.1-29.5-11.9C568,228.8,562.5,230.6,556.6,234.6z"></path> <path style="fill:#F70332;" d="M42.1,705.4c-8.5,0-16.8-0.2-25.3,0.1c-5.4,0.2-6.2-1.9-5.1-6.5c3-13.5,14.4-22.7,29.3-23.1 c11.2-0.2,22.5-0.4,33.7,0c5.6,0.2,7.7-1.8,8.9-7c4.8-20.4,10.1-40.9,15.2-61.2c8.1-32.7,32.8-53.9,66.7-57.1 c14.6-1.3,29.1-1.2,43,5.1c19.3,8.8,27.2,23.8,22.2,44.4c-13.1,53.4-26.5,106.7-39.8,159.9c-1.4,5.6-3.3,11.2,4.2,14.2 c2.6,1,1.9,3,1.5,4.9c-2.1,17.6-2.6,18.1-20.3,18c-1.6,0-3.4,0-5.1,0c-21.6-0.8-31.4-13.7-26.1-34.8c4-16,7.9-32.2,12.3-48 c2-6.9,0.9-9.4-6.9-8.8c-8.3,0.7-16.8,0.4-25.3,0c-4.9-0.2-6.8,1.6-7.9,6.3c-6.5,26.4-13.4,52.7-19.7,79.2c-1.2,5.3-3.4,6.7-8.5,6.5 c-10.1-0.3-20.2-0.3-30.3,0c-5.7,0.2-7.7-0.4-5.9-7.1c6.8-25.5,12.5-51.2,19.4-76.7c2.1-7.6-0.4-8.5-6.8-8.1 C57.8,705.8,50,705.4,42.1,705.4z M145.5,676.7c5.9,0,10.8-0.2,15.5,0.1c3.6,0.2,5.7-0.9,6.7-4.6c6.6-26.4,13.4-52.7,19.9-79.1 c1.5-6.4,0.4-12.4-4.7-16.9c-5.5-4.7-11.9-4.5-18.2-2.1c-10.4,4-15.6,12.3-18.2,22.5c-5.2,20.1-10.3,40.2-15.4,60.3 c-1.5,6.2-5.8,14.8-3.4,18.1C131.2,679.7,140.2,675.8,145.5,676.7z"></path> <path style="fill:#F70332;" d="M264.4,774.4c19.9,0.3,38.1-14.7,43.3-35.4c8.6-34.1,17.4-68,25.4-102c2-8.3,5.1-10.9,13.8-10.7 c34.5,0.7,69,0.2,104.4,0.2c-6.6,26.5-13,52.3-19.3,78c-4.3,17.1-8.7,34.3-12.9,51.4c-1.9,7.7-1.9,14.7,7.4,17.9 c2.3,0.8,3.1,2.2,2.2,4.5c-0.1,0.2-0.2,0.5-0.2,0.8c-3.4,18.6-6.6,20.8-25.3,17c-24.9-4.9-34.2-19.3-28-43.7 c8.1-32.1,15.9-64.3,24.3-96.3c1.6-6.3-0.1-6.9-5.6-6.9c-18.2-0.1-18.2-0.2-22.7,17.5c-4.2,16.6-8.6,33.2-12.3,49.9 c-9.4,41.2-56.9,84-104.7,81.1c-10.7-0.7-21.3-0.5-32,0c-7,0.3-8.2-1.6-6.5-8.3c11.5-45.4,22.8-90.8,34.2-136.3c1.5-6,3.4-12,4-18 c0.7-6.8,3.3-9,10.1-8.6c10.7,0.7,21.3,0.3,32,0.1c5.2-0.1,5.9,1.1,4.6,6.2c-6.3,23.6-11.9,47.3-17.9,71 C276.4,727.1,270.4,750.5,264.4,774.4z"></path> <path style="fill:#F70332;" d="M571,626.6c14.8,0,26.9,0.4,38.9-0.2c6.8-0.3,7.7,1.6,6,7.8c-10.4,40.8-20.4,81.6-30.6,122.4 c-2,7.8-4,15.3,7,17.9c1.8,0.4,2.1,1.6,1.8,3.2c-0.1,0.5-0.3,1.1-0.4,1.6c-3.2,18.1-3.2,18.1-21.3,17.9c-11-0.1-21.3-1.9-28.9-10.9 c-2.5-3.1-4.3-1.1-6.2,0.3c-17.4,12.4-36.8,12.9-56.5,8.5c-25-5.5-35.6-23.7-29.4-48.6c5.5-21.7,11.5-43.4,16.3-65.4 c6.7-31.5,28.5-46.2,57.5-53.1C541,624.6,557.5,627.3,571,626.6z M548,649.4c-2,0-4,0-5.9,0c-18.1,0-22.4,3.4-26.8,21 c-6.9,28-14,56-20.8,84.1c-3.4,14,3.8,21.7,18.2,20.2c13.7-1.5,25.6-12.1,29.3-26.6c6.8-26.9,13.5-53.8,20.2-80.7 C566.8,649.4,566.7,649.4,548,649.4z"></path> <path style="fill:#F70332;" d="M752.1,796.9c-13.5,0.7-26.3-1.5-37.5-9.6c-12-8.7-16.8-20.4-13.4-34.6c6.3-26.7,12.6-53.5,20.3-79.9 c7.7-26.3,28.6-38.6,53.5-44.4c14.6-3.4,29.5-3.4,44,1.3c21.6,7,31.2,22.7,26.3,44.8c-5.8,25.7-12.2,51.3-19.2,76.7 c-6.6,23.9-35,44-62.9,45.7C759.5,797.2,755.9,796.9,752.1,796.9z M801.7,665.9c0.3-6.3-1-12.2-7.1-14.9s-12.1-0.9-17.1,3.4 c-7.5,6.3-10.5,14.9-12.7,24.1c-4.9,19.9-10,39.7-14.7,59.5c-1.8,7.6-4.7,15-4.1,23.1c1,12,10.3,17.1,20.9,11.3 c8.5-4.7,12.6-12.4,14.8-21.4c5.2-20.3,10.1-40.8,15.2-61.1C798.7,681.8,801.3,674,801.7,665.9z"></path> <path style="fill:#F70332;" d="M688.5,587.2c5.9,0,11.8,0.1,17.7,0c4-0.1,4.7,1.3,3.6,5.1c-2.6,9.1-4.7,18.5-7.4,27.7 c-1.3,4.6-1.2,7,4.9,6.9c12.7-0.2,12.3,0.1,10,12.3c-1.5,7.9-4.7,12.1-13.2,10.3c-7-1.4-9.4,1.9-11.1,8.6 c-7.7,32.2-16.1,64.2-24.1,96.2c-2,8.1-3.7,16.6,7.7,19.7c1.6,0.4,2,1.8,1.8,3.3c-0.1,0.9-0.3,1.6-0.4,2.5 c-3.4,17.8-3.4,17.8-21.7,17.5c-27.1-0.4-39-16.1-32.4-42.8c8.1-32.4,16-64.8,24.5-97c1.6-6.4,0.9-8.2-6-8 c-14.3,0.3-13.8,0.1-10.8-14.3c1.5-6.8,4.4-9.6,11.2-8.5c2.7,0.4,5.6-0.2,8.3,0.1c4.1,0.5,5.3-1.4,6-5.1c2.2-9.6,5.1-19,7-28.6 c0.9-4.4,2.6-6.2,7.1-5.9C677.2,587.5,682.9,587.2,688.5,587.2z"></path> <path style="fill:#F70332;" d="M956.4,651.5c-23.4,10.7-38.7,27.8-45.3,51.7c-7.9,28.7-14.8,57.6-21.7,86.5 c-1.3,5.6-3.2,7.9-9.3,7.6c-9.8-0.5-19.7-0.5-29.4,0c-6.5,0.3-8.2-1.1-6.5-7.8c8.8-33.6,17.1-67.4,25.6-101.1 c4.6-18.5,9.7-36.9,13.8-55.5c1.2-5.4,3.6-6.6,8.6-6.4c9.8,0.3,19.7,0.3,29.4,0c6.2-0.2,9.9,0.5,6.7,7.9c-0.5,1.4-0.2,3.2-0.4,5.7 c18.9-12.6,39.1-14.8,60.6-13.1c-3.6,14.2-7.1,28-10.5,41.9c-0.9,3.5-2.5,4.7-6.4,4.9c-19.1,0.7-19,0.9-15.3-18 C956.7,654.7,956.4,653.6,956.4,651.5z"></path> <path style="fill:#F70433;" d="M499.7,877.1c-42.4,0-84.7,0-127.1,0c-2.7,0-5.6,0.1-8.3-0.3c-6.8-1-10.7-5.4-10.5-12.1 c0.1-7.1,4.4-11.3,11.5-12.1c1.6-0.2,3.4-0.1,5.1-0.1c86.3,0,172.8,0,259.1,0c2.2,0,4.6-0.2,6.7,0.2c6.2,1.3,10,5.4,10.2,11.6 c0.1,6.3-3.2,10.8-9.4,12.1c-3,0.7-6.2,0.5-9.2,0.5C584.9,877.1,542.3,877.1,499.7,877.1z"></path> <path style="fill:#F70433;" d="M500.1,925.2c-28,0-56.1,0.1-84.1,0c-8,0-13.4-4.9-13.6-11.8c-0.2-6.9,4.9-12.1,12.9-12.6 c2.2-0.2,4.5-0.1,6.7-0.1c31.1,0,62.3,0,93.4,0c21,0,42.1,0,63.1,0c2.2,0,4.5-0.1,6.7,0.1c7.6,0.7,12.4,5.6,12.4,12.2 c0,6.9-5.4,12.1-13.3,12.2C556.3,925.2,528.1,925.2,500.1,925.2z"></path> <path style="fill:#F70433;" d="M720.4,76.9c0.5-2.2,1-4.4,1.6-6.6c1-2.9,1.8-6.4,5.2-7.1c4-0.9,4.9,3,6.6,5.4 c12.1,17.9,23.9,35.9,36,53.8c6.5,9.6,11.4,19.9,14.8,31c6.2,20.3,12.4,40.8,19.1,61c1.9,5.6,0.7,7.3-4.8,6.6c-1.4-0.1-3-0.4-4.2,0 c-13.4,5.3-17.2-4.4-23.1-13.3c-24.9-38.1-39.4-80.3-49.8-124.1C721.5,81.3,720.9,79.1,720.4,76.9z M728.7,72.4 c-3.5,6.3-2.1,11.4,1.4,16.3c11,14.9,21.9,29.9,32.8,44.7c2.7,3.7,5.5,7.2,8.9,11.8C773.7,137.1,744.5,89.3,728.7,72.4z"></path> <path style="fill:#F70433;" d="M821.8,257.8c30.1,45,51.7,93.4,63.5,146c0.5,2.4,1.1,5.1,1,7.5c-0.2,5.1-0.8,10.9-6.4,12.6 c-5.4,1.6-6.3-4.5-8.8-7.6c-2-2.3-3.3-5.3-5.2-7.7c-30.4-37.9-49.1-81.3-60-128.4c-1-4.1-1.6-6.5,3.1-9.3 C813.9,267.8,817.4,262.3,821.8,257.8z M877.6,416.7c4.2-5.6,3.6-10.3,0.5-14.8c-13.2-19.6-27.2-38.3-42.1-56.7c-0.2-0.2-1,0-5.3,0 C845.7,370.7,862.1,393.1,877.6,416.7z"></path> <path style="fill:#F70433;" d="M563.7,303.9c33.3-13.4,64.3-25.8,95.1-38.4c3.1-1.3,5.3-0.9,7.1,2c0.4,0.7,1.1,1.3,1.6,2 c4.7,5.8,12.5,11.3,13.4,17.7c0.8,5.9-5.7,12.9-9.1,19.3c-8.8,16.6-8.8,16.7-27.1,13.2C618.5,314.6,592.4,309.4,563.7,303.9z"></path> <path style="fill:#F70433;" d="M464.7,568.9c0.1,14-12.7,27-26.7,27.1c-11,0.1-19.2-7.9-19.4-18.8c-0.3-14.4,11.9-27,26.1-27.4 C456.2,549.7,464.5,557.6,464.7,568.9z"></path> <path style="fill:#F70433;" d="M702.6,292.7c-2.6,16.7-11.6,25.3-27.1,28.2c6.9-11.1,12.1-22.4,16.7-33.9c1.8-4.3,1.2-7.1-1.6-10.5 c-5.1-5.9-9.7-12.2-14.4-18.2c13.8-12,14.5,5.9,22.5,8.7c4.8-10.3,6.5-22.2,11.2-34.8c1.4,10.9,1.2,20.1-1.1,28.7 c-4,14.6,1.1,25.4,11,35.2c1.4,1.4,5.7,4,1.1,6.4c-3,1.5-6.6,5.6-10,0.3c-0.8-1.2-1.6-2.2-2.6-3.3 C706.8,297.5,705.3,295.8,702.6,292.7z"></path> <path style="fill:#F70433;" d="M804.2,224.9c7,0.1,14-0.1,20.9,1.3c5.5,1.1,7.4,3.7,5.1,8.8c-5.4,11.9-12.7,22.3-22.1,31.4 c-3.5,3.5-6.4,2.7-8.3-1.8c-4.8-10.8-9.8-21.3-14.5-32.1c-2.3-5.4-0.4-8,5.6-7.7C795.3,225.1,799.8,224.9,804.2,224.9z M824.6,232.5 c-10.1-3.7-19.8-3.3-29.4-3c-1.8,0.1-5.2-0.4-4.7,1.9c0.7,4,2.7,7.8,4.3,11.6c1,2.5,2.5,1.4,4.1,0.8 C807.3,240,815.9,236.3,824.6,232.5z"></path> </svg> 