<?xml version="1.0" encoding="UTF-8"?> <!-- Generator: Adobe Illustrator 24.3.0, SVG Export Plug-In . SVG Version: 6.00 Build 0) --> <svg xmlns="http://www.w3.org/2000/svg" xmlns:xlink="http://www.w3.org/1999/xlink" version="1.1" id="Layer_1" x="0px" y="0px" viewBox="0 0 1000 1000" style="enable-background:new 0 0 1000 1000;" xml:space="preserve"> <style type="text/css"> .st0{fill:#FFFFFF;} </style> <g> <path class="st0" d="M294.1,457.2c-5.6,17.8-16.1,32.5-32.3,43.2c16.1,10.8,26.7,25.4,32.3,43.4c5.6-18,16-32.7,32.1-43.4 C310.1,489.6,299.7,475,294.1,457.2z"></path> <path class="st0" d="M450.4,485.4c0.4-1.7,0.6-3.2,0.6-4.8c0-10.8-8.9-19.7-19.7-19.7c-10.9,0-19.7,8.9-19.7,19.7 c0,1.7,0.2,3.2,0.6,4.8c-10.9,0-19.7,8.7-19.7,19.5c0,10.9,8.9,19.7,19.7,19.7c6.9,0,12.8-3.3,16.3-8.7v1.9 c-3,8.5-8,16.1-14.8,22.3c11.7,0,23.4,0,35.3,0c-7.1-6.3-12.1-13.7-15-22.3v-1.9c3.5,5.4,9.5,8.7,16.3,8.7 c10.9,0,19.7-8.7,19.7-19.7C469.9,494.1,461.2,485.4,450.4,485.4z"></path> <path class="st0" d="M717.2,242.5h-435c-142,0-258.1,116-258.1,257.9c0,142,116.2,258.1,258.1,258.1h435 c142,0,258.1-116.2,258.1-258.1C975.4,358.4,859.2,242.5,717.2,242.5z M765.7,256.4c5.4,1.1,10.6,2.4,15.8,3.7v47.5 c-5.2-1.7-10.4-3.2-15.8-4.5V256.4z M490.3,251.7h15.6v45.5h-15.6V251.7z M218.1,260.1c5.2-1.3,10.4-2.6,15.8-3.7v46.8 c-5.4,1.3-10.6,2.8-15.8,4.5V260.1z M233.8,744.4c-5.4-1.1-10.6-2.2-15.8-3.7v-47.5c5.2,1.7,10.4,3.2,15.8,4.5V744.4z M505.9,749.2 h-15.6v-45.6h15.6V749.2z M781.4,740.7c-5.2,1.5-10.4,2.6-15.8,3.7v-46.8c5.4-1.3,10.6-2.8,15.8-4.5V740.7z M717.2,694.3h-435 c-106.7,0-193.9-87.2-193.9-193.9c0-106.7,87.2-193.9,193.9-193.9h435c106.7,0,193.9,87.2,193.9,193.9 C911.2,607.1,823.9,694.3,717.2,694.3z"></path> <path class="st0" d="M717.2,322.6h-435c-97.8,0-178,80-178,177.8c0,97.8,80.2,178,178,178h435c97.8,0,178-80.2,178-178 C895.2,402.6,815,322.6,717.2,322.6z M354.8,578.5c0,4.8-3.9,8.7-8.9,8.7H242.2c-4.8,0-8.7-3.9-8.7-8.7V422.5c0-5,3.9-8.9,8.7-8.9 h103.7c5,0,8.9,3.9,8.9,8.9V578.5z M492,578.5c0,4.8-4.1,8.7-8.9,8.7H379.3c-4.8,0-8.9-3.9-8.9-8.7V422.5c0-5,4.1-8.9,8.9-8.9 h103.7c4.8,0,8.9,3.9,8.9,8.9V578.5z M629.1,578.5c0,4.8-4.1,8.7-8.9,8.7H516.5c-4.8,0-8.9-3.9-8.9-8.7V422.5c0-5,4.1-8.9,8.9-8.9 h103.7c4.8,0,8.9,3.9,8.9,8.9V578.5z M766,578.5c0,4.8-3.9,8.7-8.7,8.7H653.6c-4.8,0-8.9-3.9-8.9-8.7V422.5c0-5,4.1-8.9,8.9-8.9 h103.7c4.8,0,8.7,3.9,8.7,8.9V578.5z"></path> <path class="st0" d="M705.4,456c-20.2,18.6-40.6,36.9-40.6,55.5c0,10.2,9.1,18.6,20.4,18.6c8.7,0,13.7-3.5,18.2-10.6 c-3.2,9.8-8.4,18.2-16.1,25.2c12.2,0,24.3,0,36.6,0c-7.8-6.9-13.2-15.4-16.3-25.2c4.5,7.1,9.5,10.6,18.4,10.6 c11.1,0,20.4-8.4,20.4-18.6C746.2,493,725.8,474.6,705.4,456z"></path> <path class="st0" d="M586,467.5c-8.9,0-13.4,4.1-17.8,12.2c-4.3-8.2-8.7-12.2-17.6-12.2c-9.8,0-17.6,7.4-17.6,16.5 c0,16.3,17.6,32.8,35.3,49.4c17.8-16.5,35.4-33,35.4-49.4C603.7,475,595.7,467.5,586,467.5z"></path> </g> </svg> 