<?xml version="1.0" encoding="utf-8"?>
<!-- Generator: Adobe Illustrator 26.3.1, SVG Export Plug-In . SVG Version: 6.00 Build 0)  -->
<svg version="1.1" id="Layer_1" xmlns="http://www.w3.org/2000/svg" xmlns:xlink="http://www.w3.org/1999/xlink" x="0px" y="0px"
	 viewBox="0 0 6891 1261" style="enable-background:new 0 0 6891 1261;" xml:space="preserve">
<g id="DIce">
	<g id="Right_1_">
		<g>
			
				<radialGradient id="SVGID_1_" cx="2318.7642" cy="353.2334" r="361.5601" fx="2488.8401" fy="335.1176" gradientTransform="matrix(1.0038 5.084893e-02 -7.320922e-03 1.0025 -38.6834 -32.3907)" gradientUnits="userSpaceOnUse">
				<stop  offset="7.675795e-02" style="stop-color:#FF7A7A"/>
				<stop  offset="0.119" style="stop-color:#FC7373"/>
				<stop  offset="0.6373" style="stop-color:#DB2121"/>
				<stop  offset="0.8739" style="stop-color:#CE0000"/>
				<stop  offset="1" style="stop-color:#AA0005"/>
			</radialGradient>
			<path style="fill:url(#SVGID_1_);" d="M2607.7,248.6l-186.2-130.1c-40-28-83.6-38.1-108.8-38.3c-5,0-9.6,0.3-13.4,0.9l-164,23.2
				c-29.7,6-57.6,14.3-95.4,66.7c-10.6,14.7-21.2,34.7-33.5,60.4l-88.1,203.1c-19.3,43.4-4.3,129.3,39.9,163.5l199.2,163.3
				c97.7,64.9,175.1,31.9,206.6,11.4c27.9-18.1,116.1-74.4,116.1-74.4c20.5-13.2,53.5-55.5,67.1-81.6l83.4-158.6
				C2645.6,423.4,2703.8,327.8,2607.7,248.6z"/>
			
				<linearGradient id="SVGID_00000129207079167458910700000003525020156119026340_" gradientUnits="userSpaceOnUse" x1="2153.7375" y1="782.0695" x2="2405.5164" y2="90.3129">
				<stop  offset="0" style="stop-color:#A2621E"/>
				<stop  offset="0.2693" style="stop-color:#C1882F"/>
				<stop  offset="0.4751" style="stop-color:#EEBE47"/>
				<stop  offset="0.6076" style="stop-color:#CA9334"/>
				<stop  offset="0.7328" style="stop-color:#C1882F"/>
				<stop  offset="0.8581" style="stop-color:#EEBE47"/>
				<stop  offset="1" style="stop-color:#FFEE96"/>
			</linearGradient>
			<path style="fill:url(#SVGID_00000129207079167458910700000003525020156119026340_);" d="M2311.9,80.2c0.3,0,0.5,0,0.8,0
				c25.2,0.2,68.8,10.3,108.8,38.3l186.2,130.1c96.1,79.2,37.9,174.8,23.1,209.5l-83.4,158.6c-13.6,26.1-46.7,68.4-67.1,81.6
				c0,0-88.2,56.3-116.1,74.4c-17.6,11.4-49.6,26.8-91.4,26.8c-33,0-72.1-9.6-115.3-38.2l-199.2-163.3
				c-44.3-34.2-59.2-120.1-39.9-163.5l88.1-203.1c12.3-25.6,22.8-45.6,33.5-60.4c37.8-52.4,65.7-60.7,95.4-66.7l164-23.2
				C2302.9,80.5,2307.2,80.2,2311.9,80.2 M2311.9,66.6c-5.3,0-10.4,0.4-14.8,1l-163.8,23.2l-0.4,0.1l-0.4,0.1
				c-33.1,6.7-63.8,16.8-103.7,72c-10,13.8-20.4,32.5-34.7,62.4l-0.1,0.2l-0.1,0.2L1905.8,429c-21.6,48.7-5.6,141.1,43.9,179.5
				l199.1,163.2l0.5,0.4l0.6,0.4c40.4,26.9,81.7,40.5,122.8,40.5c47,0,82.1-18.1,98.8-29c27.6-17.9,115.1-73.8,116-74.3
				c22.6-14.6,57.2-58.6,71.9-86.8l83.4-158.5l0.3-0.5l0.2-0.5c1.3-3.1,3-6.6,4.9-10.7c19-40.7,63.6-136-31.8-214.7l-0.4-0.3
				l-0.4-0.3l-186.2-130.1c-42.5-29.8-89.3-40.6-116.5-40.8L2311.9,66.6L2311.9,66.6z"/>
		</g>
		
			<linearGradient id="SVGID_00000106142446744153818030000009571321222185439402_" gradientUnits="userSpaceOnUse" x1="2328.1458" y1="248.5552" x2="2071.8887" y2="501.2175" gradientTransform="matrix(0.9998 2.821610e-02 1.467640e-02 1.0091 -55.876 39.5434)">
			<stop  offset="0" style="stop-color:#FF5353"/>
			<stop  offset="1.744002e-02" style="stop-color:#FF4F4F"/>
			<stop  offset="0.2413" style="stop-color:#FF2525"/>
			<stop  offset="0.3559" style="stop-color:#FF1515"/>
			<stop  offset="0.9728" style="stop-color:#AF120B"/>
		</linearGradient>
		<path style="opacity:0.5;fill:url(#SVGID_00000106142446744153818030000009571321222185439402_);" d="M2169.3,743l-199-162.6
			c-34.7-26.7-49.6-99.7-33.5-136.2l88-203.7c14.3-34.8,53.3-55.6,96.8-21.9l203.1,156.7c29.7,23.1,51.7,85.7,35.4,123.9L2272,720.9
			C2254.5,762.2,2209.7,775.1,2169.3,743z"/>
		<g>
			<defs>
				<path id="SVGID_00000139260288814207210530000011081638457858334620_" d="M2169.3,743l-199-162.6
					c-34.7-26.7-49.6-99.7-33.5-136.2l88-203.7c14.3-34.8,53.3-55.6,96.8-21.9l203.1,156.7c29.7,23.1,51.7,85.7,35.4,123.9
					L2272,720.9C2254.5,762.2,2209.7,775.1,2169.3,743z M2344.6,321.9L2154.7,178c-32.5-23.7-28.6-52.4-0.1-56.1l148.3-20.4
					c23.2-3.6,68.9,6.8,107.6,33.9L2596.9,266c28,19.7,41.3,49.3,17,55.1L2470.6,360C2440.9,367.2,2384.7,351.7,2344.6,321.9z
					 M2328.7,731.8l79.7-196.5c16.7-42.6,55.5-91.6,83.9-102.2l123.6-44.1c21.7-7.8,12.8,25.3-4,56.9l-83.5,158.3
					c-12.7,24.2-43.9,63.4-60.4,74.1l-113.7,76.7C2327.8,772.6,2317.2,761.5,2328.7,731.8z"/>
			</defs>
			<clipPath id="SVGID_00000115509233178631280190000004230258820838370996_">
				<use xlink:href="#SVGID_00000139260288814207210530000011081638457858334620_"  style="overflow:visible;"/>
			</clipPath>
			<g style="clip-path:url(#SVGID_00000115509233178631280190000004230258820838370996_);">
				
					<linearGradient id="SVGID_00000118362987739005261230000013220019677134070700_" gradientUnits="userSpaceOnUse" x1="2465.842" y1="582.8511" x2="2395.5422" y2="184.16">
					<stop  offset="2.026654e-02" style="stop-color:#FF4F4F"/>
					<stop  offset="0.8425" style="stop-color:#F31E1D"/>
				</linearGradient>
				<path style="fill:url(#SVGID_00000118362987739005261230000013220019677134070700_);" d="M2435.7,593.9l-164.1-120.4
					c-28.5-19.6-39.8-76.1-25.6-105.4l80.5-169.9c13.6-30,48.9-50.1,86.8-24.2l176.4,125.2c26.1,17.9,42.7,69.1,25.4,101.2
					l-89.4,174.7C2508.5,607.2,2469.1,617.7,2435.7,593.9z"/>
				<path style="opacity:0.22;fill:#B21414;" d="M2200,733.7l-192-143.8c-34.3-24.6-30.6-61.8-1.1-71l144-46.4
					c21.2-7.3,62.9-1.3,98.4,24.9L2413.1,618c23.7,17.5,36.5,48.6,18,59.8l-115.3,75.2C2290.2,768.5,2238.7,762.1,2200,733.7z"/>
				<path style="opacity:0.23;fill:#820000;" d="M1960.7,439.3L2039,253c18.9-42.6,60.2-93,95-102.2l147.8-19.3
					c20.9,4.3,45.8,24.7,26.7,56.3l-82.8,176.5c-20.5,45.1-51.7,60.1-71.1,69.6l-181.2,52.4C1937.6,492,1947.6,468.9,1960.7,439.3z"
					/>
			</g>
		</g>
		
			<linearGradient id="SVGID_00000080892953819881295460000002317181025935883188_" gradientUnits="userSpaceOnUse" x1="2319.8682" y1="200.6932" x2="2537.8296" y2="35.7811" gradientTransform="matrix(0.9998 2.821610e-02 1.467640e-02 1.0091 -55.876 39.5434)">
			<stop  offset="0" style="stop-color:#DE1411"/>
			<stop  offset="0.1482" style="stop-color:#FF1515"/>
			<stop  offset="0.3523" style="stop-color:#FF2525"/>
			<stop  offset="0.7506" style="stop-color:#FF4F4F"/>
			<stop  offset="1" style="stop-color:#FF6D6D"/>
		</linearGradient>
		<path style="opacity:0.3;fill:url(#SVGID_00000080892953819881295460000002317181025935883188_);" d="M2344.6,321.9L2154.7,178
			c-32.5-23.7-28.6-52.4-0.1-56.1l148.3-20.4c23.2-3.6,68.9,6.8,107.6,33.9L2596.9,266c28,19.7,41.3,49.3,17,55.1L2470.6,360
			C2440.9,367.2,2384.7,351.7,2344.6,321.9z"/>
		<path style="fill:#F76161;" d="M2415.9,340.1c-51.3-13.4-146.1-75.2-143.6-73l72.3,54.8c40.1,29.9,96.3,45.4,126,38.2l126.6-34.4
			C2600.8,322.9,2487.8,358.8,2415.9,340.1z"/>
		
			<linearGradient id="SVGID_00000067228876762091111660000006993168448126803077_" gradientUnits="userSpaceOnUse" x1="2339.7822" y1="600.2608" x2="2664.2571" y2="324.7974" gradientTransform="matrix(0.9998 2.821610e-02 1.467640e-02 1.0091 -55.876 39.5434)">
			<stop  offset="0" style="stop-color:#B10803"/>
			<stop  offset="0.5452" style="stop-color:#A30B05"/>
			<stop  offset="1" style="stop-color:#880B05"/>
		</linearGradient>
		<path style="opacity:0.6;fill:url(#SVGID_00000067228876762091111660000006993168448126803077_);" d="M2328.7,731.8l79.7-196.5
			c16.7-42.6,55.5-91.6,83.9-102.2l123.6-44.1c21.7-7.8,12.8,25.3-4,56.9l-83.5,158.3c-12.7,24.2-43.9,63.4-60.4,74.1l-113.7,76.7
			C2327.8,772.6,2317.2,761.5,2328.7,731.8z"/>
		<path style="opacity:0.15;fill:#FFFFFF;" d="M2367.3,241.6c99.4,29.9,186.2,41.7,251.4,45.6c-5.2-7.3-12.7-14.8-21.8-21.2
			l-186.3-130.5c-38.7-27.2-84.4-37.5-107.6-33.9L2154.7,122c-11.9,1.5-19.5,7.5-21.9,15.6C2189.2,170.3,2272.1,212.9,2367.3,241.6z
			"/>
		
			<linearGradient id="SVGID_00000125597232472766148760000000733809929067810697_" gradientUnits="userSpaceOnUse" x1="2041.7987" y1="277.9624" x2="2314.2927" y2="297.024">
			<stop  offset="0" style="stop-color:#ED8383"/>
			<stop  offset="7.048100e-02" style="stop-color:#FD9999"/>
			<stop  offset="0.3907" style="stop-color:#FEAEAE"/>
			<stop  offset="1" style="stop-color:#E66F6F"/>
		</linearGradient>
		<path style="fill:url(#SVGID_00000125597232472766148760000000733809929067810697_);" d="M2324.7,375.4l-203.1-156.7
			c-43.5-33.7-82.5-12.9-96.8,21.9l-3.7,8.5c6.8-5.9,25.9-27.3,66.1-18.7c53.9,11.6,212.8,127.8,239.3,146.6
			C2325.9,376.4,2325.3,375.8,2324.7,375.4z"/>
		<g>
			<path style="fill:#995B5B;" d="M2297.6,195.2c0.5,12-21.2,13.2-48.5,2.8c-27.2-10.4-49.5-28.4-49.9-40.3
				c-0.4-11.8,21.1-13.1,48.2-2.8C2274.5,165.2,2297,183.3,2297.6,195.2z"/>
			<path style="fill:#995B5B;" d="M2556.6,275.8c0.8,12-21,12.6-48.5,1.5c-27.5-11.1-50.2-29.8-50.9-41.7
				c-0.7-11.9,20.9-12.5,48.2-1.5C2532.9,245.1,2555.8,263.8,2556.6,275.8z"/>
			
				<linearGradient id="SVGID_00000132794547246026236080000010551173462777988483_" gradientUnits="userSpaceOnUse" x1="2327.5627" y1="107.0739" x2="2279.6831" y2="37.1237" gradientTransform="matrix(0.9998 2.821610e-02 1.467640e-02 1.0091 -55.876 39.5434)">
				<stop  offset="3.719363e-02" style="stop-color:#FFFFFF"/>
				<stop  offset="0.8698" style="stop-color:#9E9E9E"/>
			</linearGradient>
			<path style="fill:url(#SVGID_00000132794547246026236080000010551173462777988483_);" d="M2299,198c0.5,11.9-21.2,13.1-48.5,2.8
				c-27.2-10.3-49.5-28.2-49.9-40c-0.4-11.8,21.1-13,48.2-2.8C2275.9,168.2,2298.4,186.1,2299,198z"/>
			
				<linearGradient id="SVGID_00000035490090717280763600000012575731878311761835_" gradientUnits="userSpaceOnUse" x1="2585.8096" y1="178.832" x2="2536.4802" y2="106.7635" gradientTransform="matrix(0.9998 2.821610e-02 1.467640e-02 1.0091 -55.876 39.5434)">
				<stop  offset="3.719363e-02" style="stop-color:#FFFFFF"/>
				<stop  offset="0.8698" style="stop-color:#9E9E9E"/>
			</linearGradient>
			<path style="fill:url(#SVGID_00000035490090717280763600000012575731878311761835_);" d="M2558.1,278c0.8,11.9-21,12.6-48.5,1.4
				c-27.5-11.1-50.2-29.6-50.9-41.4c-0.7-11.8,20.9-12.5,48.2-1.5C2534.3,247.6,2557.3,266.1,2558.1,278z"/>
			<path style="fill:#995B5B;" d="M2131.2,316.7c2.8,28.8-13,52-35.4,51.6c-22.3-0.4-42.5-24.1-45.1-52.8
				c-2.6-28.6,13.2-51.4,35.3-51.1C2108.2,264.6,2128.4,288,2131.2,316.7z"/>
			<path style="fill:#995B5B;" d="M2173.5,472.5c4.2,28.6-10.3,51.5-32.4,51c-22-0.5-43.1-24.1-47.1-52.6
				c-4-28.3,10.5-50.9,32.3-50.5C2148.3,420.8,2169.4,444.1,2173.5,472.5z"/>
			<path style="fill:#995B5B;" d="M2221.2,629.2c5.7,31.8-9.9,57.2-34.8,56.5c-24.9-0.7-49.4-27-54.9-58.7
				c-5.4-31.5,10.2-56.5,34.8-56C2191,571.5,2215.5,597.5,2221.2,629.2z"/>
			
				<linearGradient id="SVGID_00000141446940692823553640000001220574209557574809_" gradientUnits="userSpaceOnUse" x1="2394.8455" y1="344.3412" x2="2345.3149" y2="271.2608" gradientTransform="matrix(0.9998 2.821610e-02 8.290558e-02 1.0392 -302.5871 -69.3374)">
				<stop  offset="3.719363e-02" style="stop-color:#FFFFFF"/>
				<stop  offset="0.9382" style="stop-color:#929191"/>
			</linearGradient>
			<path style="fill:url(#SVGID_00000141446940692823553640000001220574209557574809_);" d="M2134.8,320.6c2.8,28.8-13,52-35.4,51.6
				c-22.3-0.4-42.5-24.1-45.1-52.8c-2.6-28.6,13.2-51.4,35.3-51.1C2111.8,268.6,2132,291.9,2134.8,320.6z"/>
			
				<linearGradient id="SVGID_00000180327773968502456220000010767986687529310380_" gradientUnits="userSpaceOnUse" x1="2212.9373" y1="407.598" x2="2159.6873" y2="329.0293" gradientTransform="matrix(0.9998 2.821610e-02 1.467640e-02 1.0091 -55.876 39.5434)">
				<stop  offset="3.719363e-02" style="stop-color:#FFFFFF"/>
				<stop  offset="0.9382" style="stop-color:#929191"/>
			</linearGradient>
			<path style="fill:url(#SVGID_00000180327773968502456220000010767986687529310380_);" d="M2177.1,476.4
				c4.2,28.6-10.3,51.5-32.4,51c-22-0.5-43.1-24.1-47.1-52.6c-4-28.3,10.5-50.9,32.3-50.5C2151.8,424.7,2172.9,448,2177.1,476.4z"/>
			
				<linearGradient id="SVGID_00000061468754281419732220000009935080932659981231_" gradientUnits="userSpaceOnUse" x1="2256.5759" y1="566.3464" x2="2196.1504" y2="477.1905" gradientTransform="matrix(0.9998 2.821610e-02 1.467640e-02 1.0091 -55.876 39.5434)">
				<stop  offset="3.719363e-02" style="stop-color:#FFFFFF"/>
				<stop  offset="0.9382" style="stop-color:#929191"/>
			</linearGradient>
			<path style="fill:url(#SVGID_00000061468754281419732220000009935080932659981231_);" d="M2224.8,633.1
				c5.7,31.8-9.9,57.2-34.8,56.5c-24.9-0.7-49.4-27-54.9-58.7c-5.4-31.5,10.2-56.5,34.8-56C2194.5,575.5,2219.1,601.5,2224.8,633.1z
				"/>
			<g>
				<path style="fill:#873636;" d="M2505.5,590.5c-17.1,24.6-36.7,40.6-43.9,35.6c-7.2-4.9,0.9-28.9,18-53.4
					c17-24.5,36.6-40.3,43.7-35.4C2530.5,542.2,2522.5,566,2505.5,590.5z"/>
				
					<linearGradient id="SVGID_00000111167827868345974800000011137757768308495254_" gradientUnits="userSpaceOnUse" x1="2562.0718" y1="484.4944" x2="2527.1589" y2="453.8952" gradientTransform="matrix(0.9998 2.821610e-02 1.467640e-02 1.0091 -55.876 39.5434)">
					<stop  offset="0" style="stop-color:#F0F0F0"/>
					<stop  offset="0.8703" style="stop-color:#888787"/>
				</linearGradient>
				<path style="fill:url(#SVGID_00000111167827868345974800000011137757768308495254_);" d="M2502.4,588.4
					c-16.6,24-35.8,39.5-42.8,34.7c-7-4.8,0.9-28.1,17.5-52c16.6-23.8,35.6-39.2,42.6-34.5C2526.7,541.4,2519,564.6,2502.4,588.4z"
					/>
			</g>
		</g>
	</g>
	<g id="Left">
		<g>
			
				<radialGradient id="SVGID_00000176727838907353262150000000919575612425897105_" cx="1398.6798" cy="778.8868" r="396.9919" fx="1366.4497" fy="826.9931" gradientTransform="matrix(0.9969 -7.930762e-02 7.930762e-02 0.9969 -296.3719 -206.4388)" gradientUnits="userSpaceOnUse">
				<stop  offset="9.805454e-02" style="stop-color:#FF6868"/>
				<stop  offset="0.3711" style="stop-color:#FF4444"/>
				<stop  offset="0.486" style="stop-color:#F62530"/>
				<stop  offset="0.6068" style="stop-color:#EF0A1F"/>
				<stop  offset="0.6781" style="stop-color:#EC0019"/>
				<stop  offset="0.8202" style="stop-color:#CE0000"/>
				<stop  offset="0.9276" style="stop-color:#EF091F"/>
			</radialGradient>
			<path style="fill:url(#SVGID_00000176727838907353262150000000919575612425897105_);" d="M1459.5,371.1l-102.7-167.9
				c-23.6-39.5-83.6-65.6-121.5-62.6c-1.3,0.1-2.6,0.2-3.9,0.4l-212.8,29.6c-33.2,4.5-111.9,18.9-141.5,109.4l-37.8,143.8
				c-8.3,28.8,3.6,85.1,19.4,114.4L955.9,718c16.6,30.7,49.9,46.7,68.9,52c58.9,16.7,122.9-0.8,133.2-4.4l196.7-64.6
				c35.2-11.9,66.6-39.4,74.7-65.9l25-89.8c3.5-11.2,19.7-74.8,22.8-90.1C1484.8,416.4,1474.3,395.7,1459.5,371.1z"/>
			
				<linearGradient id="SVGID_00000151540977930899125770000008823926196569373609_" gradientUnits="userSpaceOnUse" x1="1033.0142" y1="787.7744" x2="1272.4586" y2="129.9061">
				<stop  offset="0" style="stop-color:#A2621E"/>
				<stop  offset="0.2287" style="stop-color:#EEBE47"/>
				<stop  offset="0.5418" style="stop-color:#C1882F"/>
				<stop  offset="0.8693" style="stop-color:#EEBE47"/>
				<stop  offset="1" style="stop-color:#FFEE96"/>
			</linearGradient>
			<path style="fill:url(#SVGID_00000151540977930899125770000008823926196569373609_);" d="M1241.4,140.3c38,0,93,25.4,115.4,62.9
				l102.7,167.9c14.8,24.7,25.4,45.4,17.7,84.2c-3,15.3-19.3,78.9-22.8,90.1l-25,89.8c-8.1,26.5-39.5,54-74.7,65.9L1158,765.6
				c-7.1,2.4-39.5,11.5-78.2,11.5c-17.6,0-36.5-1.9-55-7.1c-19-5.4-52.3-21.3-68.9-52l-97.3-179.8c-15.8-29.2-27.6-85.5-19.4-114.4
				L877.1,280c29.6-90.5,108.3-104.8,141.5-109.4l212.8-29.6c1.3-0.2,2.6-0.3,3.9-0.4C1237.3,140.4,1239.3,140.3,1241.4,140.3
				 M1241.4,126.7c-2.5,0-4.9,0.1-7.2,0.3c-1.5,0.1-3.1,0.3-4.7,0.5l-212.9,29.6c-79,10.8-130.3,50.7-152.5,118.6l-0.1,0.4l-0.1,0.4
				l-37.8,143.8c-9.2,32.1,3.2,92.2,20.6,124.3L944,724.4c17.3,32,51.2,51.3,77.1,58.7c17.8,5.1,37.6,7.6,58.7,7.6
				c46.6,0,82.3-12.1,82.7-12.2l196.5-64.5c39.8-13.4,74.1-44.2,83.5-74.8l0-0.2l0-0.2l25-89.6c3.8-12.5,20-76,23.1-91.3
				c8.5-42.8-3.2-66.9-19.3-93.8l-102.7-168C1342.8,153.3,1282.6,126.7,1241.4,126.7L1241.4,126.7z"/>
		</g>
		
			<linearGradient id="SVGID_00000130621978897563269180000014630477772905018274_" gradientUnits="userSpaceOnUse" x1="1326.649" y1="758.4316" x2="1543.8412" y2="555.6293" gradientTransform="matrix(0.9969 -7.930762e-02 7.124164e-02 0.9975 -267.4645 -208.7386)">
			<stop  offset="0" style="stop-color:#E71512"/>
			<stop  offset="0.427" style="stop-color:#FF1616"/>
			<stop  offset="0.6326" style="stop-color:#FF3333"/>
			<stop  offset="1" style="stop-color:#FF7070"/>
		</linearGradient>
		<path style="fill:url(#SVGID_00000130621978897563269180000014630477772905018274_);" d="M1405.8,474.2l-195.7,24.7
			c-37,5.8-97.1-9.1-122.6-58.6L983,262.2c-18.1-29.6-13.2-65.8,33.6-72.1l215-29.4c31.1-4.2,86.7,19.5,106.1,51.7l110.8,175
			C1469.8,422.4,1448.5,468.2,1405.8,474.2z"/>
		
			<linearGradient id="SVGID_00000100360500025785597730000016909344470615060615_" gradientUnits="userSpaceOnUse" x1="1222.5101" y1="-1087.6278" x2="919.2255" y2="-788.5978" gradientTransform="matrix(0.9956 -9.372362e-02 -2.134090e-02 0.5761 164.2231 1273.1414)">
			<stop  offset="0.1792" style="stop-color:#AF120B"/>
			<stop  offset="1" style="stop-color:#D31310"/>
			<stop  offset="1" style="stop-color:#D41310"/>
		</linearGradient>
		<path style="fill:url(#SVGID_00000100360500025785597730000016909344470615060615_);" d="M1345,688.5l-196.8,64
			c-43.7,14.9-76.8-1.1-64.9-26.2l59.6-129.8c8.7-20.4,26.9-44.1,73.2-51.1l187.5-28.2c19.9-3,38.5,7.6,33.3,23.5l-27.9,94.5
			C1402.8,654.1,1376.1,678.2,1345,688.5z"/>
		<g>
			<defs>
				<path id="SVGID_00000152225557721611715360000013423262228785546418_" d="M1073.1,593.6l-44.8,101.1c-7.5,19.6-44,34.2-65.3-4.3
					l-86.7-160.3c-13.7-24.9-24.6-75.8-17.9-99.1L897,285.3c8.2-28.7,30.7-28.1,51.5,8.5l113.1,204
					C1080.4,530.2,1087.7,557.2,1073.1,593.6z M1436.8,540.8l-27.9,94.5c-6.1,18.9-32.8,42.9-63.9,53.3l-196.8,64
					c-43.7,14.9-76.8-1.1-64.9-26.2l59.6-129.8c8.7-20.4,26.9-44.1,73.2-51.1l187.5-28.2C1423.4,514.3,1442,524.9,1436.8,540.8z
					 M1405.8,474.1l-195.7,24.7c-37,5.8-97.1-9.1-122.6-58.5L983,262.2c-18.1-29.6-13.2-65.8,33.6-72.1l215-29.4
					c31.1-4.2,86.7,19.6,106.1,51.7l110.8,175C1469.8,422.4,1448.5,468.2,1405.8,474.1z"/>
			</defs>
			<clipPath id="SVGID_00000109014135360634491810000014216172600461674418_">
				<use xlink:href="#SVGID_00000152225557721611715360000013423262228785546418_"  style="overflow:visible;"/>
			</clipPath>
			
				<linearGradient id="SVGID_00000140015158426932143330000002865343057152196532_" gradientUnits="userSpaceOnUse" x1="1755.5959" y1="1359.7325" x2="1756.7739" y2="1738.1757" gradientTransform="matrix(0.9064 -0.2527 0 1 -256.0726 -691.6353)">
				<stop  offset="2.026654e-02" style="stop-color:#FF4F4F"/>
				<stop  offset="0.5976" style="stop-color:#F31E1D"/>
				<stop  offset="0.9989" style="stop-color:#DD2F2C"/>
			</linearGradient>
			
				<path style="clip-path:url(#SVGID_00000109014135360634491810000014216172600461674418_);fill:url(#SVGID_00000140015158426932143330000002865343057152196532_);" d="
				M1328.7,231.1l96.6,151.5c18.1,24.6,25.7,47.4,14.2,85.8l-28.3,114c-6.5,22.4-41.2,50.4-63,18.5l-106.3-167
				c-13.8-20.3-19.1-52.7-12.4-77l40.8-123C1277.8,206.9,1309,203.8,1328.7,231.1z"/>
			<g style="clip-path:url(#SVGID_00000109014135360634491810000014216172600461674418_);">
				
					<linearGradient id="SVGID_00000155858638793805827940000016450643619807349635_" gradientUnits="userSpaceOnUse" x1="1074.8499" y1="163.3842" x2="1026.2411" y2="444.1654" gradientTransform="matrix(1 3.104258e-03 -3.112494e-03 1 11.2597 8.5738)">
					<stop  offset="0.1487" style="stop-color:#FA3A3A"/>
					<stop  offset="0.4783" style="stop-color:#F31E1D"/>
					<stop  offset="0.817" style="stop-color:#DA1513"/>
				</linearGradient>
				<path style="fill:url(#SVGID_00000155858638793805827940000016450643619807349635_);" d="M1139,408.1L933.9,451
					c-33.7,7.8-61.1-12.5-54.9-35.6l34.8-136.4c5.7-24.5,20.1-53.9,65-61.6l219.9-37.7c27.8-4.7,52.7,12.9,43.2,38.4l-46.7,135.7
					C1186.1,378.1,1174.1,400.4,1139,408.1z"/>
				<path style="opacity:0.25;fill:#910000;" d="M1253.2,486.3c-19.3-32-44.3-74.1-78.9-68.2c0,0-193.7,41.5-244.4,54
					c-46.2,11.4-42.9,60.4-30.1,82.1l78.7,139.9c31.7,69.2,135.7,57.2,168.3,46.4l175.7-53.7c43.9-15.6,34-57.6,15.2-81.1
					C1323.6,588.2,1253.2,486.3,1253.2,486.3z"/>
			</g>
		</g>
		<path style="opacity:0.2;fill:#FFFFFF;" d="M1174.5,344.9c73.8,32.4,187,54.2,282.2,68c-0.6-8.7-3.2-17.4-8.1-25.6l-110.8-175
			c-19.4-32.1-75-55.9-106.1-51.7l-215,29.4c-22.5,3-35.3,13-40.5,25.8C1026.1,258.3,1096.9,310.8,1174.5,344.9z"/>
		
			<linearGradient id="SVGID_00000057132670231151673230000004270714634847051178_" gradientUnits="userSpaceOnUse" x1="975.7037" y1="197.9044" x2="1060.6731" y2="434.0327">
			<stop  offset="0" style="stop-color:#FD7878"/>
			<stop  offset="0.1506" style="stop-color:#FFD2D2"/>
			<stop  offset="0.8265" style="stop-color:#FD7A7A"/>
		</linearGradient>
		<path style="fill:url(#SVGID_00000057132670231151673230000004270714634847051178_);" d="M1087.5,440.3L983,262.2
			c-16.5-27.1-13.9-59.8,22.7-69.9c3.4-0.9,7-1.7,10.9-2.2c0,0-20.4,1.3-38.6,10.8c-21,11-39.4,31.8-25.3,51.9
			c41.3,58.9,121.7,170.5,137.9,192.9C1089.6,443.9,1088.5,442.2,1087.5,440.3z"/>
		
			<linearGradient id="SVGID_00000015340131296143767280000003177160568629171096_" gradientUnits="userSpaceOnUse" x1="-8024.8467" y1="14209.332" x2="-7911.5107" y2="13812.6934" gradientTransform="matrix(-0.4672 -0.8541 0.1306 -0.7241 -4585.3535 3821.6372)">
			<stop  offset="0" style="stop-color:#A10703"/>
			<stop  offset="0.6073" style="stop-color:#D30000"/>
			<stop  offset="0.715" style="stop-color:#DC0404"/>
			<stop  offset="0.8898" style="stop-color:#F41010"/>
			<stop  offset="0.9568" style="stop-color:#FF1616"/>
		</linearGradient>
		<path style="opacity:0.5;fill:url(#SVGID_00000015340131296143767280000003177160568629171096_);" d="M948.5,293.8l114.2,201.6
			c18.9,32.4,26.2,59.4,11.5,95.8l-45.9,103.4c-7.5,19.6-44,34.2-65.3-4.3l-86.7-160.3c-13.7-24.9-24.6-75.8-17.9-99.1L897,285.3
			C905.2,256.6,927.6,257.2,948.5,293.8z"/>
		
			<ellipse transform="matrix(0.4921 -0.8706 0.8706 0.4921 335.1422 1237.4281)" style="fill:#995B5B;" cx="1228" cy="331.5" rx="38.9" ry="52.4"/>
		
			<linearGradient id="SVGID_00000048477145193540879120000004049851776670498751_" gradientUnits="userSpaceOnUse" x1="1505.7057" y1="697.4895" x2="1452.108" y2="619.1853" gradientTransform="matrix(0.9969 -7.930762e-02 7.930762e-02 0.9969 -296.3719 -206.4388)">
			<stop  offset="0.2318" style="stop-color:#FFFFFF"/>
			<stop  offset="1" style="stop-color:#B5B5B5"/>
		</linearGradient>
		<path style="fill:url(#SVGID_00000048477145193540879120000004049851776670498751_);" d="M1279.4,333.5
			c7.6,23.5-7.5,43.1-33.7,43.8c-26.3,0.7-53.7-17.8-61.4-41.3c-7.6-23.5,7.5-43.1,33.7-43.8C1244.3,291.5,1271.7,310,1279.4,333.5z
			"/>
		
			<ellipse transform="matrix(0.9472 -0.3206 0.3206 0.9472 -78.5672 318.1033)" style="fill:#895050;" cx="926.7" cy="397.6" rx="20.9" ry="52.5"/>
		
			<ellipse transform="matrix(0.932 -0.3625 0.3625 0.932 -164.4506 395.0573)" style="fill:#895050;" cx="970.6" cy="635.8" rx="19.4" ry="49.3"/>
		
			<linearGradient id="SVGID_00000072276680888481187460000013262361808995438266_" gradientUnits="userSpaceOnUse" x1="1173.7725" y1="753.1021" x2="1173.7725" y2="650.8316" gradientTransform="matrix(0.9969 -7.930762e-02 7.930762e-02 0.9969 -296.3719 -206.4388)">
			<stop  offset="0" style="stop-color:#F4F4F4"/>
			<stop  offset="0.8509" style="stop-color:#959494"/>
		</linearGradient>
		<path style="fill:url(#SVGID_00000072276680888481187460000013262361808995438266_);" d="M950.7,398.5c8.2,27.7,5.2,50.9-6.6,51.8
			s-28-20.7-36.1-48.4c-8.2-27.7-5.2-50.9,6.6-51.8S942.6,370.8,950.7,398.5z"/>
		
			<linearGradient id="SVGID_00000022534164603843305380000004718366060931328679_" gradientUnits="userSpaceOnUse" x1="1198.6666" y1="990.416" x2="1198.6666" y2="895.3073" gradientTransform="matrix(0.9969 -7.930762e-02 7.930762e-02 0.9969 -296.3719 -206.4388)">
			<stop  offset="0" style="stop-color:#F4F4F4"/>
			<stop  offset="0.8509" style="stop-color:#959494"/>
		</linearGradient>
		<path style="fill:url(#SVGID_00000022534164603843305380000004718366060931328679_);" d="M993.4,636.9c8.6,25.7,6.6,47.1-4.5,48
			s-27.1-19.3-35.7-44.9c-8.6-25.7-6.6-47.1,4.5-48S984.8,611.2,993.4,636.9z"/>
		
			<ellipse transform="matrix(0.8897 -0.4566 0.4566 0.8897 -194.3098 608.0972)" style="fill:#774646;" cx="1161.1" cy="706.1" rx="48" ry="13.3"/>
		
			<ellipse transform="matrix(0.8707 -0.4918 0.4918 0.8707 -150.8871 703.8569)" style="fill:#774646;" cx="1263.1" cy="638.9" rx="42.3" ry="12.7"/>
		
			<ellipse transform="matrix(0.8707 -0.4918 0.4918 0.8707 -109.0988 746.8414)" style="fill:#774646;" cx="1365.8" cy="580.9" rx="42.3" ry="12.7"/>
		
			<linearGradient id="SVGID_00000131369815795158496300000017469001672735464845_" gradientUnits="userSpaceOnUse" x1="1411.1521" y1="1062.2216" x2="1366.8406" y2="1006.8975" gradientTransform="matrix(0.9969 -7.930762e-02 7.930762e-02 0.9969 -296.3719 -206.4388)">
			<stop  offset="0" style="stop-color:#F0F0F0"/>
			<stop  offset="0.8703" style="stop-color:#888787"/>
		</linearGradient>
		<path style="fill:url(#SVGID_00000131369815795158496300000017469001672735464845_);" d="M1166.3,720.6c-23.7,11.6-44.3,15-46,7.7
			s16.2-22.7,40-34.3c23.7-11.6,44.3-15,46-7.7C1208,693.6,1190.1,709,1166.3,720.6z"/>
		
			<linearGradient id="SVGID_00000034079833382077943650000009534435373282238355_" gradientUnits="userSpaceOnUse" x1="1511.854" y1="999.0304" x2="1476.9794" y2="949.7379" gradientTransform="matrix(0.9969 -7.930762e-02 7.930762e-02 0.9969 -296.3719 -206.4388)">
			<stop  offset="0" style="stop-color:#F0F0F0"/>
			<stop  offset="0.8703" style="stop-color:#888787"/>
		</linearGradient>
		<path style="fill:url(#SVGID_00000034079833382077943650000009534435373282238355_);" d="M1268.3,652.9
			c-20.6,10.9-38.5,14-40.2,6.9c-1.6-7.1,13.7-21.7,34.3-32.6c20.6-10.9,38.5-14,40.2-6.9S1288.9,642,1268.3,652.9z"/>
		
			<linearGradient id="SVGID_00000090270333671680452900000007090128699831555719_" gradientUnits="userSpaceOnUse" x1="1618.7688" y1="949.3742" x2="1583.8943" y2="900.0816" gradientTransform="matrix(0.9969 -7.930762e-02 7.930762e-02 0.9969 -296.3719 -206.4388)">
			<stop  offset="0" style="stop-color:#F0F0F0"/>
			<stop  offset="0.8703" style="stop-color:#888787"/>
		</linearGradient>
		<path style="fill:url(#SVGID_00000090270333671680452900000007090128699831555719_);" d="M1370.9,594.9
			c-20.6,10.9-38.5,14-40.2,6.9c-1.6-7.1,13.7-21.7,34.3-32.6c20.6-10.9,38.5-14,40.2-6.9S1391.5,584.1,1370.9,594.9z"/>
	</g>
	<g id="Center_2_">
		
			<radialGradient id="SVGID_00000034050284782218406670000002727682934380743341_" cx="1617.8993" cy="769.3016" r="419.1105" fx="1747.6176" fy="874.0262" gradientUnits="userSpaceOnUse">
			<stop  offset="0.1084" style="stop-color:#FF9494"/>
			<stop  offset="0.4513" style="stop-color:#FF4444"/>
			<stop  offset="0.517" style="stop-color:#F72933"/>
			<stop  offset="0.5891" style="stop-color:#F11225"/>
			<stop  offset="0.6576" style="stop-color:#ED051C"/>
			<stop  offset="0.7182" style="stop-color:#EC0019"/>
			<stop  offset="0.8725" style="stop-color:#CE0000"/>
			<stop  offset="1" style="stop-color:#B60003"/>
		</radialGradient>
		<path style="fill:url(#SVGID_00000034050284782218406670000002727682934380743341_);" d="M2029.1,650.4l-67.4-184.2
			c-15.7-39.7-85.4-108.6-155-108.6l-323.5-0.2c-65.9-0.6-140,36.9-166.2,119.2l-119.2,353.4c-13.8,41.1-5.1,110.8,33.8,142.3
			l189.4,151.3c23.8,19,94.3,64.4,185.7,56.6l271.8-4.2c67.4-3,125-74.9,131-139.3l32.2-254.6C2045.5,751.6,2047,695.4,2029.1,650.4
			z"/>
		
			<linearGradient id="SVGID_00000136393312040822264270000001225536954056620464_" gradientUnits="userSpaceOnUse" x1="782.0508" y1="779.0441" x2="498.6763" y2="223.3357" gradientTransform="matrix(1 0 -0.2841 0.9571 1053.1228 155.4741)">
			<stop  offset="0" style="stop-color:#FF4747"/>
			<stop  offset="0.4561" style="stop-color:#FF6D6D"/>
			<stop  offset="0.6226" style="stop-color:#FF7A7A"/>
			<stop  offset="1" style="stop-color:#FF9494"/>
		</linearGradient>
		<path style="fill:url(#SVGID_00000136393312040822264270000001225536954056620464_);" d="M1625.5,865.3l-305.5-0.7
			c-53.9,1.5-88.4-59.2-71.9-108.6l89.1-274.8c14.2-46.4,65.9-98.1,133.3-98.1l308.5-0.7c44.3,0,84.2,45,68.1,95.1l-84.6,285.3
			C1745.3,816.7,1686.1,864.6,1625.5,865.3z"/>
		
			<linearGradient id="SVGID_00000103949103419133574700000003344672333265217429_" gradientUnits="userSpaceOnUse" x1="4638.6772" y1="-1877.9332" x2="4782.0835" y2="-2379.8091" gradientTransform="matrix(1.0379 1.960263e-03 0.5818 0.4561 -2059.6201 2020.668)">
			<stop  offset="0.2439" style="stop-color:#D30000"/>
			<stop  offset="0.8702" style="stop-color:#A80904"/>
		</linearGradient>
		<path style="fill:url(#SVGID_00000103949103419133574700000003344672333265217429_);" d="M1830.6,1164.8l-233.6,2.2
			c-53.9,1.5-110.2-24.2-131-40.4l-167-131c-31.4-24.4-23.8-59.2,22.5-59.2l329.5,1.6c55.4-0.9,116.1,23.1,136.3,50.8l95.1,126.6
			C1896.5,1133.4,1865.3,1164.7,1830.6,1164.8z"/>
		
			<linearGradient id="SVGID_00000136395227180995347160000010650983696003683492_" gradientUnits="userSpaceOnUse" x1="2579.075" y1="3113.7825" x2="2374.6821" y2="3540.085" gradientTransform="matrix(0.9146 -0.5077 0.475 0.88 -1919.1056 -895.0051)">
			<stop  offset="0" style="stop-color:#C80E09"/>
			<stop  offset="0.277" style="stop-color:#EE0707"/>
			<stop  offset="0.3889" style="stop-color:#F22525"/>
			<stop  offset="0.5506" style="stop-color:#F74A4A"/>
			<stop  offset="0.7013" style="stop-color:#FA6464"/>
			<stop  offset="0.8355" style="stop-color:#FC7474"/>
			<stop  offset="0.9394" style="stop-color:#FD7A7A"/>
		</linearGradient>
		<path style="fill:url(#SVGID_00000136395227180995347160000010650983696003683492_);" d="M2022.3,794.2l-29.2,216.4
			c-5.2,44.9-29.3,55.9-40.4,40.4l-101.8-139.3c-30-40.4-26.2-113.7-13.5-159.5l66.6-226.9c7.9-28.4,41.9-36.2,53.6-4.6l57,152.1
			C2028.9,703.6,2026.2,767.7,2022.3,794.2z"/>
		
			<linearGradient id="SVGID_00000183248850367694230210000015038035062225306298_" gradientUnits="userSpaceOnUse" x1="1415.2866" y1="863.7085" x2="1797.3516" y2="1085.8785">
			<stop  offset="0" style="stop-color:#CF2A2A"/>
			<stop  offset="0.5453" style="stop-color:#FFD2D2"/>
			<stop  offset="0.6115" style="stop-color:#FFCBCB"/>
			<stop  offset="0.7094" style="stop-color:#FEB7B7"/>
			<stop  offset="0.8264" style="stop-color:#FE9696"/>
			<stop  offset="0.9117" style="stop-color:#FD7A7A"/>
			<stop  offset="0.9565" style="stop-color:#F97474"/>
			<stop  offset="1" style="stop-color:#F16969"/>
		</linearGradient>
		<path style="fill:url(#SVGID_00000183248850367694230210000015038035062225306298_);" d="M1321.5,936.5l329.5,1.6
			c55.4-0.9,116.1,23.1,136.3,50.8l70.3,93.5l-58.5-108.5c0,0-27.1-58.4-114.6-58.4c-40.9,0-366.9,21-366.9,21
			c0.4,0,0.8,0.1,1.2,0.1C1319.6,936.6,1320.5,936.5,1321.5,936.5z"/>
		<g>
			<defs>
				<path id="SVGID_00000000923728325324450230000007546753044409328566_" d="M1625.5,865.3l-305.5-0.7
					c-53.9,1.5-88.4-59.2-71.9-108.6l89.1-274.8c14.2-46.4,65.9-98.1,133.3-98.1l308.5-0.7c44.3,0,84.2,45,68.1,95.1l-84.6,285.3
					C1745.3,816.7,1686.1,864.6,1625.5,865.3z M1882.3,1115.4l-95.1-126.6c-20.2-27.7-80.9-51.7-136.3-50.8l-329.5-1.6
					c-46.3-0.1-53.8,34.7-22.5,59.2l167,131c20.8,16.2,77.1,41.9,131,40.4l233.6-2.2C1865.3,1164.7,1896.5,1133.4,1882.3,1115.4z
					 M2014.6,672.9l-57-152.1c-11.7-31.6-45.7-23.8-53.6,4.6l-66.6,226.9c-12.8,45.7-16.5,119.1,13.5,159.5l101.8,139.3
					c11.1,15.5,35.2,4.5,40.4-40.4l29.2-216.4C2026.2,767.7,2028.9,703.6,2014.6,672.9z"/>
			</defs>
			<clipPath id="SVGID_00000051379758206655009440000009191768980758615731_">
				<use xlink:href="#SVGID_00000000923728325324450230000007546753044409328566_"  style="overflow:visible;"/>
			</clipPath>
			<g style="clip-path:url(#SVGID_00000051379758206655009440000009191768980758615731_);">
				<path style="opacity:0.3;fill:#FF6C6C;" d="M1894.9,702.2l-226.9-1c-51.6,1.1-95.3-33.9-108.8-55.3L1457.4,482
					c-18.1-28.8,1.2-69.3,41-69.4l290.4,0.6c50.5-1.2,99.7,27.2,111.3,60.9l58.5,162.3C1968.1,660.7,1929.1,702.6,1894.9,702.2z"/>
				<path style="opacity:0.25;fill:#960000;" d="M1532.7,798.2l-60.2,226.3c-10.8,34.7-41.1,44-52.4,34.4l-149-107.6
					c-35.6-29-29.9-95.7-12.4-142.2l93.2-276.1c23.3-61.1,82.9-44.3,96.1-4.2l87.6,177.2C1549.7,736.6,1541.4,760.9,1532.7,798.2z"
					/>
				
					<linearGradient id="SVGID_00000018226516284040347280000006097997521401603499_" gradientUnits="userSpaceOnUse" x1="1749.1587" y1="1141.0065" x2="1749.1587" y2="718.8936">
					<stop  offset="0" style="stop-color:#820000"/>
					<stop  offset="0.8858" style="stop-color:#FF1515"/>
				</linearGradient>
				<path style="opacity:0.26;fill:url(#SVGID_00000018226516284040347280000006097997521401603499_);" d="M1817,1141l-237.9-0.8
					c-66.8-1.5-85.3-70.3-74.1-113l55.7-233.9c8.2-35.1,46.3-73.7,101.3-74.5l254,2c43.3-2.6,85.1,40.7,79.9,78.9l-32.7,242.2
					C1956.8,1089.5,1872.7,1140.4,1817,1141z"/>
			</g>
		</g>
		<path style="opacity:0.2;fill:#FFFFFF;" d="M1879.9,380.2c-22.7-13.4-47.9-22.5-73.2-22.5l-323.5-0.2
			c-65.9-0.6-140,36.9-166.2,119.2l-114.9,340.6C1571.6,824.1,1897.5,390.6,1879.9,380.2z"/>
		
			<ellipse transform="matrix(0.2025 -0.9793 0.9793 0.2025 228.5411 2415.5205)" style="fill:#844747;" cx="1597.3" cy="1067.4" rx="23.1" ry="61.8"/>
		
			<linearGradient id="SVGID_00000127044506874750210820000003879246465235981696_" gradientUnits="userSpaceOnUse" x1="1220.2853" y1="-449.5405" x2="1205.0232" y2="-501.3985" gradientTransform="matrix(0.9542 0.1919 -0.1347 0.8103 377.7011 1223.4766)">
			<stop  offset="0.3005" style="stop-color:#D8D8D8"/>
			<stop  offset="0.5532" style="stop-color:#BCBCBC"/>
			<stop  offset="0.826" style="stop-color:#A4A4A4"/>
			<stop  offset="0.9943" style="stop-color:#9B9B9B"/>
		</linearGradient>
		<path style="fill:url(#SVGID_00000127044506874750210820000003879246465235981696_);" d="M1659.4,1083.2
			c-2.1,12.6-30.9,17.3-64.4,10.6c-33.5-6.7-58.9-22.4-56.8-35s30.9-17.3,64.4-10.6S1661.5,1070.7,1659.4,1083.2z"/>
		<g>
			
				<ellipse transform="matrix(0.838 -0.5457 0.5457 0.838 -38.068 870.1707)" style="fill:#995B5B;" cx="1446.3" cy="499.2" rx="61.6" ry="43.9"/>
			
				<ellipse transform="matrix(0.8533 -0.5215 0.5215 0.8533 -88.6878 891.5781)" style="fill:#995B5B;" cx="1540" cy="603.4" rx="64.9" ry="49.8"/>
			
				<ellipse transform="matrix(0.9079 -0.4192 0.4192 0.9079 -45.2505 755.3595)" style="fill:#995B5B;" cx="1696.1" cy="480.6" rx="63.9" ry="47"/>
			
				<ellipse transform="matrix(0.7913 -0.6114 0.6114 0.7913 -158.2255 994.0846)" style="fill:#995B5B;" cx="1377.3" cy="728.8" rx="65.6" ry="48.9"/>
			
				<ellipse transform="matrix(0.8331 -0.5531 0.5531 0.8331 -126.2164 1028.5984)" style="fill:#995B5B;" cx="1641.2" cy="723.4" rx="68.8" ry="50.9"/>
		</g>
		<g>
			
				<linearGradient id="SVGID_00000042000324242732867210000009874914098616478103_" gradientUnits="userSpaceOnUse" x1="1472.7192" y1="532.0165" x2="1426.3966" y2="464.3409">
				<stop  offset="0.3819" style="stop-color:#FFFFFF"/>
				<stop  offset="1" style="stop-color:#B5B5B5"/>
			</linearGradient>
			<path style="fill:url(#SVGID_00000042000324242732867210000009874914098616478103_);" d="M1505.2,500.2
				c-9.4,27.5-41.4,49.8-71.3,49.8s-46.6-22.3-37.2-49.8c9.4-27.5,41.4-49.8,71.3-49.8C1498,450.3,1514.6,472.7,1505.2,500.2z"/>
			
				<linearGradient id="SVGID_00000121983470100029389800000016463066596731038865_" gradientUnits="userSpaceOnUse" x1="1569.3567" y1="640.5325" x2="1516.7476" y2="563.6725">
				<stop  offset="0.3819" style="stop-color:#FFFFFF"/>
				<stop  offset="1" style="stop-color:#B5B5B5"/>
			</linearGradient>
			<path style="fill:url(#SVGID_00000121983470100029389800000016463066596731038865_);" d="M1603.8,605.7
				c-8.6,30-42.1,53.8-74.7,53c-32.7-0.7-52.2-25.6-43.6-55.6c8.6-30,42.1-53.8,74.7-53C1592.9,550.7,1612.4,575.6,1603.8,605.7z"/>
			
				<linearGradient id="SVGID_00000163759820365326283180000015023170284609616538_" gradientUnits="userSpaceOnUse" x1="1724.35" y1="516.0601" x2="1674.2607" y2="442.8815">
				<stop  offset="0.3819" style="stop-color:#FFFFFF"/>
				<stop  offset="1" style="stop-color:#B5B5B5"/>
			</linearGradient>
			<path style="fill:url(#SVGID_00000163759820365326283180000015023170284609616538_);" d="M1760,482.8
				c-8.6,27.8-42.1,49.8-74.8,49.1c-32.7-0.7-52.2-23.7-43.6-51.5c8.6-27.8,42.1-49.8,74.8-49.1C1749.1,432,1768.6,455,1760,482.8z"
				/>
			
				<linearGradient id="SVGID_00000178165183942714750500000007043561586916532885_" gradientUnits="userSpaceOnUse" x1="1406.1953" y1="765.3189" x2="1354.5729" y2="689.9005">
				<stop  offset="0.3819" style="stop-color:#FFFFFF"/>
				<stop  offset="1" style="stop-color:#B5B5B5"/>
			</linearGradient>
			<path style="fill:url(#SVGID_00000178165183942714750500000007043561586916532885_);" d="M1439.1,731.2
				c-9.9,30.8-43.6,55.1-75.1,54.4c-31.6-0.7-49.1-26.3-39.2-57c9.9-30.8,43.6-55.1,75.1-54.4C1431.5,674.8,1449,700.4,1439.1,731.2
				z"/>
			
				<linearGradient id="SVGID_00000000193273357782345560000012766590444786561196_" gradientUnits="userSpaceOnUse" x1="1671.1476" y1="761.3116" x2="1617.4811" y2="682.9069">
				<stop  offset="0.3819" style="stop-color:#FFFFFF"/>
				<stop  offset="1" style="stop-color:#B5B5B5"/>
			</linearGradient>
			<path style="fill:url(#SVGID_00000000193273357782345560000012766590444786561196_);" d="M1706.8,726.1
				c-10.6,31.4-46.4,56.2-80.1,55.2c-33.6-1-52.3-27.2-41.7-58.7c10.6-31.4,46.4-56.2,80.1-55.2
				C1698.7,668.4,1717.4,694.7,1706.8,726.1z"/>
		</g>
		<g>
			<ellipse style="fill:#844040;" cx="1896.7" cy="835.7" rx="19.7" ry="66.8"/>
			
				<linearGradient id="SVGID_00000035520785934525981690000016948128264465271741_" gradientUnits="userSpaceOnUse" x1="1894.7531" y1="906.2811" x2="1894.7531" y2="772.7077">
				<stop  offset="0" style="stop-color:#F4F4F4"/>
				<stop  offset="0.8509" style="stop-color:#959494"/>
			</linearGradient>
			
				<ellipse style="fill:url(#SVGID_00000035520785934525981690000016948128264465271741_);" cx="1894.8" cy="839.5" rx="19.7" ry="66.8"/>
		</g>
		<g>
			
				<ellipse transform="matrix(0.9999 -1.324314e-02 1.324314e-02 0.9999 -10.1771 25.8455)" style="fill:#844040;" cx="1946.4" cy="781.4" rx="16.1" ry="63.4"/>
			
				<linearGradient id="SVGID_00000025442590013427955510000004292830668575190168_" gradientUnits="userSpaceOnUse" x1="1873.9205" y1="909.4468" x2="1873.9205" y2="782.6436" gradientTransform="matrix(1.0241 -1.356368e-02 1.324307e-02 0.9999 14.6138 -35.3827)">
				<stop  offset="0" style="stop-color:#F4F4F4"/>
				<stop  offset="0.8509" style="stop-color:#959494"/>
			</linearGradient>
			<path style="fill:url(#SVGID_00000025442590013427955510000004292830668575190168_);" d="M1961.1,785c0.5,35-6.4,63.5-15.3,63.6
				s-16.5-28.2-17-63.2c-0.5-35,6.4-63.5,15.3-63.6S1960.6,749.9,1961.1,785z"/>
		</g>
		<g>
			
				<ellipse transform="matrix(1 -5.158607e-03 5.158607e-03 1 -3.7618 10.2694)" style="fill:#844040;" cx="1988.8" cy="734.4" rx="13.2" ry="56.3"/>
			
				<linearGradient id="SVGID_00000067213363551861166010000004256984375643308216_" gradientUnits="userSpaceOnUse" x1="3042.6887" y1="806.9102" x2="3042.6887" y2="693.8534" gradientTransform="matrix(0.8166 -4.500400e-03 5.155284e-03 0.9955 -500.7447 4.7039)">
				<stop  offset="0" style="stop-color:#F4F4F4"/>
				<stop  offset="0.8509" style="stop-color:#959494"/>
			</linearGradient>
			<path style="fill:url(#SVGID_00000067213363551861166010000004256984375643308216_);" d="M2000.9,738
				c0.2,31.1-5.6,56.3-12.9,56.3c-7.3,0-13.3-25.1-13.5-56.2c-0.2-31.1,5.6-56.3,12.9-56.3C1994.7,681.7,2000.8,706.9,2000.9,738z"
				/>
		</g>
		<path style="fill:#FFE6E6;" d="M1757.4,382.6l-293.1,1.3c-53.4,0.9-110.2,41.6-127,97.3c-14.6,48.3-39.9,123.2-39.9,123.2
			c11.4-25.9,24.6-73.2,64.8-134.8c25.3-38.7,68.9-68.9,132.5-73.6C1617,387.1,1757.4,382.6,1757.4,382.6z"/>
	</g>
</g>
<g>
	<path style="fill:#FFFFFF;" d="M3324.2,429.6c0-57.7-40.1-79-97.8-79c-57.7,0-99,21.3-99,79v12.5c0,33.8,26.3,48.9,40.1,53.9
		l210.6,71.4c92.8,31.3,156.7,96.5,156.7,189.3v89c0,107.8-76.5,214.3-312.1,214.3c-235.6,0-314.6-106.5-314.6-214.3v-84
		c0-26.3,10-37.6,36.3-37.6h130.4c26.3,0,35.1,11.3,35.1,37.6v56.4c0,57.7,48.9,79,110.3,79c61.4,0,111.6-21.3,111.6-79v-25.1
		c0-45.1-60.2-66.4-107.8-84l-180.5-67.7c-63.9-23.8-116.6-94-116.6-166.7V402c0-107.8,65.2-214.3,297.1-214.3
		c231.9,0,302.1,106.5,302.1,214.3v46.4c0,26.3-10,37.6-36.3,37.6h-130.4c-26.3,0-35.1-11.3-35.1-37.6V429.6z"/>
	<path style="fill:#FFFFFF;" d="M3829.3,1012.4c0,26.3-8.8,37.6-35.1,37.6h-135.4c-26.3,0-36.3-11.3-36.3-37.6V235.3
		c0-26.3,10-37.6,36.3-37.6h135.4c26.3,0,35.1,11.3,35.1,37.6V1012.4z"/>
	<path style="fill:#FFFFFF;" d="M4552.5,845.7c0,107.8-72.7,214.3-308.3,214.3s-308.3-106.5-308.3-214.3V402
		c0-107.8,72.7-214.3,308.3-214.3s308.3,106.5,308.3,214.3v57.7c0,26.3-8.8,37.6-35.1,37.6h-129.1c-26.3,0-36.4-11.3-36.4-37.6
		v-21.3c0-57.7-43.9-81.5-105.3-81.5c-61.4,0-104,23.8-104,81.5v371c0,57.7,42.6,81.5,104,81.5c61.4,0,105.3-23.8,105.3-81.5v-40.1
		c0-26.3,10-37.6,36.4-37.6h129.1c26.3,0,35.1,11.3,35.1,37.6V845.7z"/>
	<path style="fill:#FFFFFF;" d="M4870.9,1050c-26.3,0-36.3-11.3-36.3-37.6V235.3c0-26.3,10-37.6,36.3-37.6h235.6
		c235.6,0,318.4,87.7,318.4,195.5v68.9c0,60.2-28.8,106.5-85.2,139.1c77.7,31.3,126.6,84,126.6,150.4v92.8
		c0,107.8-82.7,205.6-318.4,205.6H4870.9z M5041.4,360.6v180.5h65.2c61.4,0,114.1-23.8,114.1-82.7v-32.6
		c0-57.7-52.6-65.2-114.1-65.2H5041.4z M5041.4,694v193h106.5c61.4,0,114.1-22.6,114.1-80.2v-40.1c0-47.6-52.6-72.7-114.1-72.7
		H5041.4z"/>
	<path style="fill:#FFFFFF;" d="M5541.5,402c0-107.8,84-214.3,319.6-214.3c235.6,0,320.9,106.5,320.9,214.3v443.7
		c0,107.8-85.2,214.3-320.9,214.3c-235.6,0-319.6-106.5-319.6-214.3V402z M5975.2,438.3c0-57.7-52.6-81.5-114.1-81.5
		c-61.4,0-112.8,23.8-112.8,81.5v371c0,57.7,51.4,81.5,112.8,81.5c61.4,0,114.1-23.8,114.1-81.5V438.3z"/>
</g>
</svg>
