<?xml version="1.0" encoding="utf-8"?>
<!-- Generator: Adobe Illustrator 25.3.1, SVG Export Plug-In . SVG Version: 6.00 Build 0)  -->
<svg version="1.1" id="Layer_1" xmlns="http://www.w3.org/2000/svg" xmlns:xlink="http://www.w3.org/1999/xlink" x="0px" y="0px"
	 viewBox="0 0 358.8 60.6" style="enable-background:new 0 0 358.8 60.6;" xml:space="preserve">
<path style="fill:#FFFFFF;" d="M75.7,13.2c0.2-1.1,0.4-2.2,0.7-3.4c0.1-0.2,0.2-0.5,0.4-0.6c3.5-0.7,6.8-2.2,10.5-1.9
	c1,0.1,2,0.2,3,0.4C90.8,8,91.4,8.2,91,9.1c-0.2,0.4,0.1,1,0.2,1.6c0.1,0.9,0.1,1.7,0.2,2.8c-1.1,0-2,0-3,0c-0.8,0-1-0.7-1-1.1
	c-0.1-0.9-0.5-1-1.3-1c-1.4,0.1-2.7,0.1-4,0.3c-0.6,0.1-1.3,0.1-1.4,0.9c-0.1,0.8,0.4,1.3,1,1.5c1,0.3,2.1,0.3,3.2,0.5
	c1.6,0.3,3.3,0.8,4.8,0.8c1.7,0.1,2.1,1.3,2.9,2.3c1.1,1.5,0.7,3.2,0.9,4.8c-2,0.8-4,1.6-6,2.3c-2.3,0.8-4.7,0.4-7.1,0.2
	c-1.1-0.1-2.1-0.4-3.2-0.4c-0.7-0.1-0.9-0.4-0.9-0.9c-0.1-0.8,0-1.6,0-2.2c2.1-0.1,4.1-0.2,6.2-0.3c0.1,0.6,0.3,1.4,0.5,2.1
	c0,0-0.2,0-0.4,0c0.1,0.1,0.1,0.2,0.2,0.3c2,1.1,3.6,0,5.5-0.5c-1.3-1.1-1.1-2.6-0.9-3.9c0.1-0.7-0.1-0.9-0.5-1
	c-1.4-0.3-2.8-0.7-4.2-0.9c-1.3-0.2-2.6-0.1-3.8-0.4c-0.9-0.3-1.7-1-2.5-1.5c-0.2-0.2-0.4-0.3-0.7-0.4
	C75.7,14.3,75.7,13.7,75.7,13.2z"/>
<path style="fill:#FFFFFF;" d="M221.9,16.6c1-0.2,1.7,0.4,2.6,1.2c1.2,1,1.5,2.2,1.6,3.5c0.1,0.9-0.1,1.7-0.2,2.7
	c0,0.1-0.4,0.3-0.4,0.3c-1.5-0.8-2.9,0-4.4,0c-0.7,0-1.4,0.2-2.2,0.3c0-0.7,0.1-1.4-0.1-2.2c-0.2-1.2-0.4-2.5-1-3.5
	c-0.5-0.9-1.8-0.7-2.7-0.8c0.7,2.2-0.1,4.1-0.4,6c-2.1-0.2-4.1-0.4-6.2-0.6c-0.1-1.3-0.4-2.7-0.4-4.1c0-0.9,0.5-1.9,0.5-2.8
	c0.1-3.4,0-6.9,0-10.6c2.1,0,4,0.2,5.9-0.1c2-0.3,3.9-0.1,5.7,0.5c1.6,0.5,3,1.2,3.6,3c0.4,1.4,0.4,2.7-0.2,4
	C223.4,14.5,222.6,15.5,221.9,16.6z M213.9,14c0.2,0.1,0.4,0.1,0.5,0.1c1.2,0.4,2.3,0.1,2.8-0.7c0.7-1,0.8-2.2,0.3-3
	c-0.5-0.8-1.9-1.3-2.9-1c-0.3,0.1-0.6,0.5-0.6,0.8C213.9,11.4,213.9,12.6,213.9,14z"/>
<path style="fill:#FFFFFF;" d="M130.5,18.9c0.9,0.3,2,0.7,2.9,1.1c0.4,0.2,0.7,0.7,1,1c0.1,0.1,0.3-0.1,0.7-0.3
	c0.6,1.4,1.3,2.8,1.9,4.4c-1.1,0.1-2,0.2-2.8,0.3c-1.5,0.1-2.9,0.1-4.4,0.2c-0.7,0.1-0.9-0.1-0.9-0.8c0.1-1.4,0-2.7,0-4.2
	c-1.5,0-2.8,0-4.2,0c-0.5,0-0.8,1.5-0.7,2.2c0.2,0.8,0.3,1.6,0.3,2.4c0,0.2-0.4,0.5-0.7,0.5c-0.8,0.1-1.5,0.1-2.3,0.2
	c-1.7,0.1-2.5-0.2-2.4-2c0.1-1.7,0.1-3.5,0-5.3c-0.1-1.5-0.5-2.9-0.5-4.4c-0.1-1.9,0-3.7,0-5.5c0-0.6,0.2-0.9,0.8-0.9
	c1.7-0.1,3.5-0.2,5.2-0.4c2.3-0.2,4.4,0.4,6.4,1.4c1.4,0.7,2.4,1.7,2.8,3.3c0.1,0.5,0.7,0.9,0.9,1.4c0.3,0.5,0.7,1.1,0,1.7
	c-1,0.8-2,1.6-2.9,2.4C131.3,18.3,130.8,18.7,130.5,18.9z M126.3,15.8c0.2-0.8,0.3-1.5,0.6-2.1c0.5-1.2,0.3-1.7-1-1.9
	c-0.4-0.1-0.9,0-1.4,0c0.1,0.8,0.2,1.5,0.2,2.2c-0.1,0.8,0.9,1.7-0.4,2.2c1-0.2,2,0.4,2.9-0.6C126.9,15.7,126.7,15.7,126.3,15.8z"/>
<path style="fill:#FFFFFF;" d="M197.3,25.2c-1.1-0.1-2.3-0.2-3.4-0.3c-2-0.3-3.4-1.6-5-2.6c-1-0.6-1.3-1.7-1.4-2.7
	c-0.1-1,0.2-2-0.1-2.9c-1-3.3,0.6-5.6,2.4-8c1.4-1.9,3.2-2.1,5.1-2.2c1.7-0.1,3.4,0.1,5.1,0.2c0.3,0,0.6,0.4,0.8,0.7
	c0.9,1.6,1.6,3.2,2.5,4.8c0.3,0.5,0.9,0.8,1,1.3c0.2,0.6,0.3,1.3,0.2,1.9c-0.1,0.9-0.5,1.8-0.6,2.7c-0.1,0.7,0.3,1.3,0,2
	c-0.5,1.3-1,2.7-1.5,4c-0.1,0.2-0.3,0.4-0.5,0.4c-1.5,0.3-2.9,0.7-4.4,0.9C197.4,25.3,197.4,25.2,197.3,25.2z M192.3,15.3
	c-0.1,1.4,0.4,2.7,1.1,3.8c0.3,0.4,2.4,0.5,2.6,0.1c0.3-0.7,0.4-1.4,0.5-2.1c0.1-0.2-0.3-0.5-0.3-0.7c-0.1-1.3-0.1-2.5-0.1-3.8
	c0-0.4,0.3-0.8,0.3-1.1c0-0.5,0-1.2-0.3-1.5c-0.5-0.5-2.3,0-2.9,0.5c-0.7,0.6-0.4,1.3-0.4,2C192.7,13.4,192.4,14.3,192.3,15.3z
	 M193.1,20.2c0,0.1,0,0.2,0,0.3c1.4,0.4,2.8,0.1,4.1-0.3C195.8,20.2,194.5,20.2,193.1,20.2z M191.6,14.8c-1.3,0.4-2.4-0.2-3.4,0.4
	c1.1,0.2,2,0.3,3,0.4C191.2,15.5,191.4,15.3,191.6,14.8z"/>
<path style="fill:#FFFFFF;" d="M105.5,7.6c2,0,3.9,0,5.8,0c0.9,0,1.3,0.4,1.4,1.3c0.1,1.2,0.1,2.4,0.5,3.5c0.7,1.7,0.7,3.3,0.6,5
	c-0.1,1.5,0.2,3.2-0.8,4.5c-0.7,0.9-1.5,1.8-2.3,2.6c-0.4,0.3-1.1,0.3-1.7,0.4c-0.8,0.1-1.6,0.2-2.4,0.2c-1.1,0-2.2-0.1-3.3-0.1
	c-0.5,0-1.1,0.3-1.6,0.2c-1.3-0.1-2.1-0.8-2.6-1.9s-1-2.3-1.4-3.5c-0.1-0.3-0.1-0.5-0.1-0.9c0.5,0.1,0.9,0.2,1.4,0.2
	c0-0.5-1.1-0.2-0.5-0.9c-1.3-0.4-0.7-1.6-0.9-2.4c-0.1-0.6,0-1.3,0.1-1.9c0.1-1.4,0.3-2.7,0.4-4c0-0.3-0.4-0.5-0.7-0.9
	c0.1-0.3,0.2-0.8,0.3-1.4c1.4,0.2,2.9,0.3,4.5,0.5c0.2,1.9,0.4,3.6,0.5,5.5c0.1,1.1,0.3,2.2,0,3.3c-0.6,2-0.1,3.8,0.3,5.6
	c0,0.1-0.1,0.3-0.2,0.5c0.9,0.7,2.3,1,3.4,0.3c0.3-0.2,0.3-0.9,0.4-1.3c0.2-1.3,0.5-2.5,0.6-3.8c0.1-0.8-0.1-1.5-0.2-2.2
	c-0.1-0.5-0.2-1.1-0.1-1.6c0.1-1.5,0.1-2.9,0.3-4.4c0.1-0.7-0.2-0.9-0.7-1.1C105.6,8.6,105.1,8.3,105.5,7.6z"/>
<path style="fill:#FFFFFF;" d="M167.9,7.5c2.1,0,4.2,0,6.3,0c-0.1,2.7,0.4,5.1,1.7,7.5c0.3,0.5,0.4,1.3,0.6,1.9
	c0.2,0.4,0.3,0.9,0.7,1.4c1.1-3.6,1.6-7.3,2-11.2c1.4,0,2.9,0,4.4,0c-0.3,1.6-0.5,3.2-0.8,4.7c-0.4,2.1-0.9,4.1-1,6.3
	c-0.1,1,0.1,2.1-0.3,3c-0.4,1.1-0.8,2.3-1.3,3.4c-0.1,0.2-0.4,0.5-0.7,0.5c-2.1,0.1-4.2,0.1-6.3,0c-0.3,0-0.8-0.3-1-0.5
	c-0.9-1.6-1.7-3.2-2.4-4.8c-0.3-0.8-0.1-1.7-0.2-2.6c-0.2-0.8-0.7-1.5-0.8-2.2c-0.3-2.1-0.5-4.2-0.8-6.3C168,8.3,167.9,8,167.9,7.5z
	"/>
<path style="fill:#FFFFFF;" d="M138.8,7.6c1.4,0,2.9,0,4.6,0c0.4,1.7,0.8,3.4,1.4,5.1c0.3,0.9,0.9,1.6,1.1,2.4
	c0.3,1.1,0.9,2.1,0.5,3.4c-0.1,0.3,0.8,0.8,1.3,1.3c0.1-0.1,0.1-0.2,0.2-0.2c0-1.5-0.1-3,0.1-4.5c0.2-1.6,0.6-3.2,0.8-4.8
	c0.1-0.6,0-1.2,0-1.9c1.1,0,2.3,0,3.5,0c0.8,2.9,1,5.9,0.1,8.8c-0.3,1.1,0.5,2-0.2,3c-0.8,1.3-0.9,2.8-2.1,3.9
	c-0.1,0.1-0.1,0.1-0.1,0.2c-0.1,1.4-1,1.7-2.1,1.9c-1,0.1-2,0-2.9,0c-0.2,0-0.4-0.1-0.7,0c-1.3,0.2-2.4-0.5-2.6-1.7
	c-0.2-1.3-0.4-2.5-0.7-3.8c-0.5-2.2-1.1-4.4-1.6-6.5c-0.1-0.4-0.1-0.9-0.1-1.4C139.1,11.1,138.9,9.4,138.8,7.6z"/>
<path style="fill:#FFFFFF;" d="M157.5,8.2c2-0.2,3.9-0.4,6.1-0.7c0.1,1.1,0.1,2.2,0.2,3.3c0.1,0.9,0.2,1.8,0.3,2.7
	c0.1,0.4,0.1,0.9,0,1.3c-0.1,1.3-0.3,2.6,0.2,3.9c0.4,1,0.5,2-0.3,2.9c-0.2,0.3-0.1,0.9-0.1,1.3c0.2,2.8-0.7,3.6-3.5,3.2
	c-1.5-0.3-1.9-0.7-2.2-2.2c-0.2-1.1-0.7-2.2-0.9-3.3c-0.1-0.6-0.1-1.3-0.1-1.9c0-0.9,0.1-1.9,0.1-2.8c0.1-1.5,0.1-3,0.1-4.5
	C157.6,10.2,157.5,9.2,157.5,8.2z M158.6,21.8c0.3,0.4,0.5,0.7,0.7,0.9c0.1,0.1,0.3,0,0.4,0.1c0.9,0.8,1.1,0.8,2,0.1
	c0.2-0.1,0.5,0,0.8-0.1c0.2-0.1,0.5-0.1,0.6-0.2c0.1-0.2,0.1-0.4,0.1-0.6c0-0.2-0.1-0.4-0.2-0.9C161.8,22.5,160.3,21.7,158.6,21.8z"
	/>
<path style="fill:#FFFFFF;" d="M13.2,54.2c0.3-0.4,0.4-0.9,0.8-1.1c0.3-0.2,0.9,0,1.3,0c3.7,0,3.9,0,4.5-3.6c0.7-4,1-8.1,1.6-12.6
	c-3.8,1-4.5,3.8-5.2,6.6c-1.4-2.4-1.3-4.1,0.4-7.7c-2.5,0-3.7,1-5.4,4.2c-0.1-1.9-0.6-4-0.1-5.7c0.3-1,2.3-1.8,3.6-2.2
	c1.3-0.4,2.8-0.1,4.4-0.1c-0.7-1.5-1.9-2.5-4.3-2.3c1.2-1,2.1-1.7,3.1-2.5c1.3,1,2.5,1.9,3.3,2.5c1.8-1.2,3.4-2.2,4.9-3.2
	c0.3-0.2,0.6-0.6,0.7-0.9c2-5.9,4.4-7.5,10.6-7.3c0.5,0,1,0,1.7,0c-2.2-1.7-4.5-2.5-6.8-1.7c-2.1,0.7-4,2.1-5.9,3.2
	c0.8-3.6,3.9-5.1,7-6.7c0-0.1-0.1-0.3-0.1-0.4c-1.6-0.3-3.2-0.5-4.8-0.8c4.2-1.5,8,0.1,12.2,1.3c-0.8-0.9-1.4-1.6-2-2.3
	c0.4-0.5,0.7-0.9,1.2-1.5c-2.2-0.6-4.3-1.2-6.6-1.8C34,7,34.4,6.7,35,6.3c-0.5-0.4-0.9-0.8-1.3-1.1c0-0.1,0.1-0.3,0.1-0.4
	c2.3,0.4,4.7,0.4,6.7,1.3s3.6,2.8,5.6,4.4c1.9-4,5.5-4,9-4.3c0.8-0.1,1.7,0.6,2.6,0.9c0,0.2-0.1,0.4-0.1,0.6C57,7.8,56.4,7.9,56,7.9
	c1.3,1.1,2.6,2.3,3.9,3.4c-0.1,0.2-0.2,0.4-0.3,0.5c-3.7-1.5-6.4,0.6-8.9,2.1c2.7,0.2,5.7,0.1,8.5,0.7c2.8,0.6,5.4,2.1,7.2,5.2
	c-1.2-0.2-2-0.3-2.9-0.5c1.1,3.5,2.1,6.9,0.2,10.4c-0.8-1.9-1.5-3.6-2.3-5.3c-0.6-1.3-1.7-1.9-3.2-2.2c-1.3-0.2-2.4-1.1-3.7-1.6
	c1.1,2.7,2.7,5.3,3.1,8.1c0.4,2.8-0.8,5.6-2.4,8.5c-0.4-3.2-0.8-6.1-1.1-8.9c-0.2,0-0.4,0-0.7,0c-0.6,2-1.3,4.1-1.9,6.1
	c-0.2,0-0.5,0-0.7,0c0.4-3.6-0.6-6.7-2.7-9.5c-0.2,0-0.4,0-0.6,0.1c0,3.1-0.5,6.4,0.1,9.4c1,5.3,2.7,10.4,4.1,15.7
	c0.6,2.3,1.8,3.3,4.2,2.9c0.8-0.1,1.7-0.3,1.5,1.1C42.6,54.2,27.9,54.2,13.2,54.2z M39.3,47.1c-0.2,0.1-0.4,0.1-0.6,0.2
	c0,1.6,0,3.2,0,4.8c0,0.3,0.5,0.9,0.8,0.9c2.8,0.1,5.5,0,8.6,0c-3.2-9.4-4.8-18.7-4.9-28.3c-0.6,0.9-0.9,1.8-1.3,2.7
	c-0.4,0.8-0.7,2.3-1.2,2.3c-2.6,0.2-1.9,2.2-2.1,3.6c-0.2,1,0,1.8-1,2.5c-1.4,1.1-1.3,3.4,0.1,4.7c0.5,0.5,0.9,1,1.3,1.3
	c-0.9,0.4-1.8,0.8-2.6,1.2c6.7,0.8,8,3.6,6,6.4C41.3,48.8,40.3,48,39.3,47.1z M23.4,38.7c-0.9,5-1.7,9.7-2.5,14.4c1.9,0,3.9,0,5.6,0
	c0.1-1.6,0.2-3,0.3-4.6c-0.7,0.5-1.3,0.8-2.1,1.3c-0.1-2.1-0.7-3.9,1-5.5c0.2-0.2,0.4-0.8,0.2-1.1C25.2,41.7,24.3,40.2,23.4,38.7z
	 M24.6,31c1.5,0,2.6,0.1,3.7,0c0.5-0.1,1-0.5,1.3-0.9c1.6-2.2,3.1-4.4,4.7-6.6c0.3-0.4,0.7-0.8,1.3-1.5c-0.8,0.1-1.1,0.1-1.4,0.2
	C30.1,23.9,27.9,27.8,24.6,31z M27.4,35.5c-0.2,0.2-0.4,0.4-0.6,0.6c2.3,2.2,4.6,4.3,7.2,6.7c0.5-0.6,1-1.1,1.4-1.6
	c-0.8-1.5-1.5-2.8-2.5-4.6c-0.2,1.1-0.3,1.8-0.5,2.6C30.7,37.9,29.1,36.7,27.4,35.5z M38.6,53c-1.3-1.8-2.4-3.3-3.5-4.8
	c-0.2,0-0.4,0.1-0.7,0.1c-0.1,1.5-0.3,3-0.4,4.7C35.6,53,36.8,53,38.6,53z M30.2,53c1,0,1.8,0,2.8,0c-0.3-1.1-0.6-2.1-1-3.7
	C31.3,50.8,30.8,51.8,30.2,53z M30,31.3c0.9,0.6,1.5,1.1,2.3,1.7c-0.2-1.1-0.3-1.9-0.4-3.1C31.1,30.5,30.6,30.9,30,31.3z"/>
<g>
	<path style="fill:#FFFFFF;" d="M87.9,34.5c-0.1,0-0.2,0-0.4-0.1s-0.3-0.1-0.3-0.1c-0.1,0-0.1,0-0.2,0c-0.1,0-0.2,0-0.3,0
		c-0.1,0-0.2,0-0.3,0c-0.4,0.1-1,0.3-1.8,0.8c-0.8,0.5-1.4,1-2.1,1.7c-0.7,0.7-1.2,1.4-1.5,2c-0.2,0.6-0.2,1.1,0,1.5
		c0.3,0.5,0.9,0.8,1.8,1c0.4,0.1,0.8,0.2,1.4,0.3c0.2,0,0.4,0.1,0.8,0.1c0.4,0.1,0.6,0.1,0.8,0.1c0.8,0.2,1.5,0.3,2,0.5
		c0.1-0.1,0.2-0.2,0.2-0.3c0.1-0.1,0.2-0.2,0.4-0.2c0.2,0,0.3,0,0.4,0.1c0.3,0.2,0.3,0.5,0.1,0.7l0.5,0.3c0.1-0.1,0.2-0.2,0.4-0.3
		c0.1-0.1,0.3-0.1,0.4-0.1c0.2,0,0.3,0.1,0.4,0.2s0.1,0.3,0.1,0.4s-0.1,0.3-0.2,0.4c0,0-0.1,0-0.1,0.1c0.5,0.5,1,1,1.4,1.7
		c0.6,1.1,0.7,2.3,0.4,3.6c-0.3,1.4-1.1,2.6-2.3,3.5c-1.2,0.9-2.7,1.6-4.3,1.9c-1.5,0.4-3,0.4-4.6,0.1s-2.9-0.9-3.8-1.9
		c-0.2-0.2-0.5-0.5-0.6-0.7c-0.2-0.2-0.3-0.5-0.5-0.8s-0.2-0.5-0.3-0.7c-0.1-0.2-0.2-0.4-0.3-0.8c-0.1-0.4-0.2-0.6-0.3-0.8
		c-0.1-0.2-0.1-0.3,0-0.4c0.1-0.1,0.2-0.2,0.3-0.3c0.2-0.1,0.5,0,0.6,0.1c0.3-0.1,0.5,0,0.7,0.2c0.1,0.2,0.2,0.3,0.3,0.5
		c0.1,0.2,0.2,0.4,0.3,0.5c0.1,0.1,0.2,0.3,0.3,0.4c0.7,0.6,1.7,1.1,3.2,1.4c1.5,0.3,3,0.4,4.5,0.2c1.6-0.2,2.8-0.6,3.6-1.3
		c0.9-0.8,1.2-1.7,0.9-3c-0.1-0.7-0.4-1.2-0.9-1.6L88.7,46c-0.1,0.1-0.2,0.2-0.4,0.2S88,46.1,87.9,46s-0.2-0.2-0.2-0.4
		c0-0.2,0-0.3,0.1-0.4l0.1-0.1c-0.1,0-0.2,0-0.3-0.1l-0.1,0.5c-0.1,0.2-0.2,0.3-0.3,0.3c-0.1,0.1-0.3,0.1-0.4,0
		c-0.2-0.1-0.3-0.2-0.3-0.3c-0.1-0.1-0.1-0.3,0-0.4l0.1-0.3c-0.5-0.1-1.2-0.2-2.2-0.3c-1.9-0.2-3.2-0.4-3.9-0.7
		c-1.4-0.5-2.1-1.5-2.3-2.8c-0.1-1.1,0-2.3,0.4-3.4c0.4-1.2,1-2.2,1.8-3.2c0.8-1,1.8-1.7,2.9-2.2c1.1-0.5,2.3-0.5,3.5-0.2
		c0.2,0,0.4,0.1,0.6,0.2l0.5,0.3c0.2,0.1,0.3,0.2,0.5,0.3L89,33c0.1,0.1,0.3,0.2,0.5,0.4s0.4,0.3,0.4,0.3c0.1,0.1,0.2,0.2,0.2,0.4
		c0,0.2,0,0.3-0.1,0.4c-0.1,0.1-0.2,0.2-0.4,0.2c-0.2,0-0.3,0-0.4-0.1l-0.6-0.5c0,0.1-0.1,0.2-0.3,0.3S88,34.6,87.9,34.5z
		 M77.3,51.1c0.2,0.2,0.4,0.4,0.6,0.6c0.8,0.8,1.9,1.3,3.2,1.6c1.4,0.2,2.7,0.2,4.2-0.1c1.6-0.4,2.9-0.9,3.9-1.8
		c-1,0.7-2.2,1.1-3.8,1.3c-1.5,0.2-3,0.1-4.5-0.2S78.3,51.7,77.3,51.1z M87.2,43.3c-0.5-0.1-1-0.2-1.6-0.3c-0.2,0-0.5-0.1-0.8-0.1
		c-0.3-0.1-0.6-0.1-0.7-0.1c-0.6-0.1-1.1-0.2-1.5-0.3c-1.1-0.3-1.9-0.8-2.4-1.5c-0.5-0.7-0.6-1.5-0.1-2.5c0.3-0.7,0.9-1.5,1.7-2.3
		c0.7-0.7,1.5-1.3,2.3-1.9c0.9-0.5,1.6-0.8,2.1-0.9c0.3,0,0.6,0,0.8,0c-0.2-0.1-0.3-0.1-0.5-0.2c-1-0.2-1.9-0.2-2.8,0.2
		c-0.9,0.4-1.7,1-2.5,1.8c-0.7,0.8-1.2,1.8-1.6,2.8c-0.3,1-0.5,2-0.4,3c0.1,0.9,0.6,1.5,1.6,1.8c0.6,0.2,1.8,0.5,3.6,0.6
		c1.1,0.1,1.9,0.3,2.5,0.4C87.1,43.5,87.1,43.4,87.2,43.3z M88.7,43.8c-0.1-0.1-0.3-0.1-0.5-0.2c-0.1,0.1-0.1,0.2-0.2,0.3
		c0.1,0.1,0.3,0.1,0.4,0.1l0.1,0l0.1-0.1L88.7,43.8z M89.7,44.5L89.7,44.5l-0.1,0.2c0.8,0.6,1.3,1.3,1.5,2.3c0.1,0.6,0.1,1.2,0,1.8
		l0.1-0.2c0.2-1,0.1-1.9-0.4-2.8C90.5,45.3,90.1,44.8,89.7,44.5z"/>
	<path style="fill:#FFFFFF;" d="M99.7,32.2c0,0.8,0,2.1-0.1,3.7c0,1.6-0.1,2.8-0.1,3.7s0,2.1,0.1,3.7c0.1,1.1,0.2,2.5,0.4,4.2
		c0.3-0.2,0.5-0.1,0.7,0.1c0.1,0.1,0.1,0.2,0.1,0.3c0.2-0.1,0.4,0,0.6,0.1c0.2,0.1,0.2,0.3,0.2,0.5l0.4-0.1l1.6-0.3
		c0.8-0.2,1.5-0.3,1.8-0.3c0.4-0.1,0.9-0.1,1.5-0.2c0.6-0.1,1.2-0.1,1.7-0.1c0.2,0,0.3,0.1,0.4,0.2s0.2,0.2,0.2,0.4
		c0,0.2-0.1,0.3-0.2,0.4c-0.1,0.1-0.2,0.2-0.4,0.2c-0.5,0-1,0.1-1.6,0.1c-0.6,0.1-1.1,0.1-1.4,0.2c-0.3,0.1-0.9,0.2-1.8,0.3
		c-0.8,0.2-1.3,0.3-1.6,0.3c-0.8,0.1-1.3,0.2-1.7,0.3l0,0l1.8-0.3c0.9-0.1,1.6-0.2,2.2-0.3c0.8-0.1,1.8-0.1,3-0.1c1.5,0,2.5,0,3-0.1
		c0.2,0,0.3,0,0.4,0.1c0.1,0.1,0.2,0.2,0.2,0.4c0,0.2,0,0.3-0.1,0.4c-0.1,0.1-0.2,0.2-0.4,0.2c-0.4,0-1.4,0.1-3,0.1
		c-1.2,0-2.2,0.1-2.9,0.1c-0.5,0.1-1.2,0.1-2.2,0.3c-0.9,0.1-1.6,0.2-2,0.3c0.1,0.5,0.1,1,0.1,1.4c0,0.1,0,0.3-0.1,0.4
		s-0.2,0.2-0.4,0.2c-0.2,0-0.3,0-0.4-0.1c-0.1-0.1-0.2-0.2-0.2-0.4c0-0.4-0.1-0.9-0.1-1.4h-0.1l-0.1,0.1c0.1,0.4,0.1,0.8,0.2,1.2
		c0,0.1,0,0.3-0.1,0.4C99.3,52.9,99.1,53,99,53c-0.2,0-0.3,0-0.4-0.1c-0.1-0.1-0.2-0.2-0.2-0.4c-0.1-0.3-0.1-0.6-0.1-1
		c-0.2,0.2-0.5,0.2-0.7,0c-0.1-0.1-0.2-0.2-0.2-0.3c-0.5,0-0.9,0-1.3,0c-0.2,0-0.3-0.1-0.4-0.2s-0.2-0.2-0.2-0.4s0.1-0.3,0.2-0.4
		c0.1-0.1,0.2-0.2,0.4-0.2c0.6,0,1.2,0,1.9-0.1l0.1-0.1c-0.8,0-1.4-0.1-2.1-0.2c-0.2,0-0.3-0.1-0.4-0.3s-0.1-0.3-0.1-0.4
		c0-0.2,0.1-0.3,0.2-0.4c0.1-0.1,0.3-0.1,0.4-0.1c0.5,0.1,1.1,0.2,1.8,0.2c-0.6-5.2-0.6-11-0.1-17.1c0-0.1,0.1-0.3,0.2-0.4
		s0.3-0.1,0.4-0.1c0.1,0,0.2,0.1,0.3,0.2s0.2,0.2,0.2,0.3c0.1-0.1,0.2-0.1,0.3-0.1c0.2,0,0.3,0.1,0.4,0.2
		C99.7,31.9,99.7,32,99.7,32.2z M99.1,48.4c-0.3-2.2-0.4-3.9-0.5-5.1c0.1,1.8,0.2,3.6,0.4,5.2L99.1,48.4z"/>
	<path style="fill:#FFFFFF;" d="M128.8,48.4c-1.4,1.9-3,3.3-4.9,4.2c-1.8,0.9-3.7,1.1-5.4,0.6c-1.4-0.5-2.4-1.4-3-2.8
		c-1.1-1.1-1.7-2.5-1.7-4.5c0-1.9,0.5-3.9,1.4-5.9l-0.2-0.1c-0.1-0.1-0.2-0.2-0.2-0.4s0-0.3,0.1-0.4s0.2-0.2,0.4-0.2
		c0.2,0,0.3,0,0.4,0.1l0.1,0.1l0.2-0.3c-0.3-0.2-0.3-0.5-0.1-0.8c0.2-0.3,0.4-0.3,0.7-0.2c1.4-2,3-3.4,4.9-4.3
		c0.1-0.1,0.2-0.2,0.4-0.3c0.2,0,0.5-0.1,0.7-0.1c1.6-0.5,3.3-0.4,5,0.1c0.3,0.1,0.5,0.3,0.4,0.6c1.2,0.5,2.1,1.1,2.7,1.8
		c0.8,1,1.2,2.2,1.3,3.6c0.1,1.4-0.1,2.8-0.5,4.2c-0.5,1.4-1.1,2.7-2,4c0.1,0.1,0.1,0.2,0,0.4C129.2,48.3,129.1,48.4,128.8,48.4z
		 M116.3,40.7c-0.1,0-0.1,0-0.1-0.1l-0.1,0c-0.8,1.6-1.2,3.2-1.3,4.8c0.2-1.1,0.4-2.2,0.9-3.3C115.9,41.6,116.1,41.1,116.3,40.7z
		 M126.2,35.8c-1-0.2-2-0.2-3,0c-1,0.3-1.9,0.7-2.7,1.3c-0.8,0.6-1.5,1.4-2.1,2.3s-1.2,1.9-1.6,3c-0.8,2.2-1.1,4.2-0.8,6.1
		c0.1,0.4,0.2,0.8,0.3,1.2c0.1,0.1,0.3,0.2,0.4,0.3c1.1,0.7,2.4,1,3.9,0.9c1.4,0,2.7-0.5,4-1.5c1.2-0.9,2.2-2.1,3-3.6
		c0.8-1.4,1.2-2.9,1.5-4.5c0.4-2.5,0-4.4-1.1-5.7c-0.3-0.4-0.7-0.7-1.1-0.9c-0.2-0.1-0.5-0.2-0.8-0.3l-0.7-0.3l0,0
		c-0.8-0.1-1.6-0.1-2.6,0c-2.1,0.6-3.9,2-5.4,4.2h0l0.2,0.2c1.1-1.5,2.4-2.7,3.9-3.5s3.2-0.9,4.9-0.5c0.2,0,0.3,0.1,0.3,0.2
		c0.1,0.1,0.1,0.3,0.1,0.4s-0.1,0.3-0.3,0.3C126.5,35.8,126.3,35.8,126.2,35.8z M116.9,39.6l-0.2-0.2l-0.1,0.2l0.1,0.1l0.1,0.1
		L116.9,39.6z M118.1,51.8c0.2,0.1,0.5,0.2,0.7,0.3c1.8,0.6,3.8,0.2,5.9-1.3c-1.2,0.8-2.5,1.2-3.9,1.2
		C119.8,52.1,118.9,52,118.1,51.8z M129,45.9L129,45.9l-0.1-0.1c-0.2,0.5-0.4,0.9-0.7,1.3l0.1,0l0-0.1
		C128.6,46.7,128.8,46.3,129,45.9z M129.6,44.6c0.6-1.4,1-2.8,1.1-4.1c0.1-1.3-0.2-2.5-0.7-3.5c0.4,1.3,0.5,2.8,0.3,4.5
		c-0.1,1-0.4,1.9-0.7,2.9C129.6,44.5,129.6,44.6,129.6,44.6z"/>
	<path style="fill:#FFFFFF;" d="M134.6,34.6c1.8,0.2,4,0.2,6.5,0v-0.1c-0.2-0.1-0.3-0.3-0.5-0.5c-2.5,0.2-4.5,0.3-5.8,0.3
		c-0.2,0-0.3-0.1-0.4-0.2c-0.1-0.1-0.2-0.2-0.2-0.4s0.1-0.3,0.2-0.4c0.1-0.1,0.2-0.2,0.4-0.2c1.3,0,3-0.1,5.2-0.3
		c0-0.2,0.1-0.4,0.3-0.6c0.1-0.1,0.3-0.1,0.4-0.1c0.1,0,0.3,0.1,0.4,0.2c-0.1-0.5-0.1-1.1-0.2-1.6c0-0.2,0-0.3,0.1-0.4
		c0.1-0.1,0.2-0.2,0.4-0.2c0.2,0,0.3,0,0.4,0.1c0.1,0.1,0.2,0.2,0.2,0.4c0.1,0.4,0.1,0.8,0.1,1.3l0.2-0.2c0,0,0,0,0.1,0
		c0-0.3,0-0.7,0.1-1c0-0.2,0.1-0.3,0.2-0.4c0.1-0.1,0.2-0.1,0.4-0.1c0.2,0,0.3,0.1,0.4,0.2c0.1,0.1,0.1,0.3,0.1,0.4
		c0,0.5-0.1,1-0.1,1.6c2.5-0.2,4.6-0.2,6.4-0.1c0.2,0,0.3,0.1,0.4,0.2c0.1,0.1,0.1,0.2,0.1,0.4c0,0.2-0.1,0.3-0.2,0.4
		c-0.1,0.1-0.3,0.1-0.4,0.1c-1.5-0.1-3.3-0.1-5.3,0c0.2,0.2,0.2,0.4,0.1,0.7c2.9-0.3,5.2-0.4,6.7-0.4c0.2,0,0.3,0.1,0.4,0.2
		c0.1,0.1,0.2,0.2,0.2,0.4c0,0.2-0.1,0.3-0.2,0.4c-0.1,0.1-0.2,0.2-0.4,0.2c-1.4,0-4,0.2-7.7,0.5c0,0.7,0,1.3,0,2
		c-0.2,7.2-0.2,12.8,0.1,16.8c0,0.2,0,0.3-0.1,0.4c-0.1,0.1-0.2,0.2-0.4,0.2c-0.2,0-0.3,0-0.4-0.1c-0.1-0.1-0.2-0.2-0.2-0.4
		c-0.3-3.9-0.3-8.9-0.1-15.2c0,0.8-0.1,1.9-0.2,3.2c-0.1,2-0.2,3.3-0.3,4c0,0.8-0.1,2-0.1,3.5s0.1,2.8,0.2,3.9c0,0.2,0,0.3-0.1,0.4
		s-0.2,0.2-0.4,0.2c-0.2,0-0.3,0-0.4-0.1c-0.1-0.1-0.2-0.2-0.2-0.4c-0.1-1.2-0.2-2.6-0.2-4.1c0-1.5,0-2.7,0.1-3.5s0.1-2.2,0.3-4
		c0.2-2.9,0.3-5.1,0.3-6.5c-2.6,0.2-4.8,0.2-6.7,0c-0.2,0-0.3-0.1-0.4-0.2s-0.1-0.3-0.1-0.4s0.1-0.3,0.2-0.4S134.4,34.6,134.6,34.6z
		 M142.3,33.9L142.3,33.9L142.3,33.9L142.3,33.9L142.3,33.9z M143.4,34.3L143.4,34.3l0.1,0.1L143.4,34.3z"/>
	<path style="fill:#FFFFFF;" d="M159,32.2c0,0.8,0,2.1-0.1,3.7c0,1.6-0.1,2.8-0.1,3.7s0,2.1,0.1,3.7c0.1,1.1,0.2,2.5,0.4,4.2
		c0.3-0.2,0.5-0.1,0.7,0.1c0.1,0.1,0.1,0.2,0.1,0.3c0.2-0.1,0.4,0,0.6,0.1c0.2,0.1,0.2,0.3,0.2,0.5l0.4-0.1l1.6-0.3
		c0.8-0.2,1.5-0.3,1.8-0.3c0.4-0.1,0.9-0.1,1.5-0.2c0.6-0.1,1.2-0.1,1.7-0.1c0.2,0,0.3,0.1,0.4,0.2c0.1,0.1,0.2,0.2,0.2,0.4
		c0,0.2-0.1,0.3-0.2,0.4c-0.1,0.1-0.2,0.2-0.4,0.2c-0.5,0-1,0.1-1.6,0.1c-0.6,0.1-1.1,0.1-1.4,0.2c-0.3,0.1-0.9,0.2-1.8,0.3
		c-0.8,0.2-1.3,0.3-1.6,0.3c-0.8,0.1-1.3,0.2-1.7,0.3l0,0l1.8-0.3c0.9-0.1,1.6-0.2,2.2-0.3c0.8-0.1,1.8-0.1,3-0.1c1.5,0,2.5,0,3-0.1
		c0.1,0,0.3,0,0.4,0.1c0.1,0.1,0.2,0.2,0.2,0.4c0,0.2,0,0.3-0.1,0.4c-0.1,0.1-0.2,0.2-0.4,0.2c-0.4,0-1.4,0.1-3,0.1
		c-1.2,0-2.2,0.1-2.9,0.1c-0.5,0.1-1.2,0.1-2.2,0.3c-0.9,0.1-1.6,0.2-2,0.3c0.1,0.5,0.1,1,0.1,1.4c0,0.1,0,0.3-0.1,0.4
		s-0.2,0.2-0.4,0.2c-0.2,0-0.3,0-0.4-0.1c-0.1-0.1-0.2-0.2-0.2-0.4c0-0.4-0.1-0.9-0.1-1.4h-0.1l-0.1,0.1c0.1,0.4,0.1,0.8,0.2,1.2
		c0,0.1,0,0.3-0.1,0.4c-0.1,0.1-0.2,0.2-0.4,0.2s-0.3,0-0.4-0.1c-0.1-0.1-0.2-0.2-0.2-0.4c-0.1-0.3-0.1-0.6-0.1-1
		c-0.2,0.2-0.5,0.2-0.7,0c-0.1-0.1-0.2-0.2-0.2-0.3c-0.5,0-0.9,0-1.3,0c-0.2,0-0.3-0.1-0.4-0.2c-0.1-0.1-0.2-0.2-0.2-0.4
		s0.1-0.3,0.2-0.4c0.1-0.1,0.2-0.2,0.4-0.2c0.6,0,1.2,0,1.9-0.1l0.1-0.1c-0.8,0-1.4-0.1-2.1-0.2c-0.2,0-0.3-0.1-0.4-0.3
		s-0.1-0.3-0.1-0.4s0.1-0.3,0.2-0.4c0.1-0.1,0.3-0.1,0.4-0.1c0.5,0.1,1.1,0.2,1.8,0.2c-0.6-5.2-0.6-11-0.1-17.1
		c0-0.1,0.1-0.3,0.2-0.4c0.1-0.1,0.3-0.1,0.4-0.1c0.1,0,0.2,0.1,0.3,0.2c0.1,0.1,0.2,0.2,0.2,0.3c0.1-0.1,0.2-0.1,0.3-0.1
		c0.1,0,0.3,0.1,0.4,0.2C159,31.9,159,32,159,32.2z M158.4,48.4c-0.3-2.2-0.4-3.9-0.5-5.1c0.1,1.8,0.2,3.6,0.4,5.2L158.4,48.4z"/>
	<path style="fill:#FFFFFF;" d="M185,46.6c-0.1,0-0.2,0-0.3-0.1c-0.1-0.1-0.2-0.2-0.3-0.3c0-0.1,0-0.3,0-0.4c-0.3,0-0.9,0-1.6,0
		c-0.8,0-1.4,0-1.8,0c-0.4,0-0.9,0-1.6,0.1c0,0.2-0.1,0.3-0.3,0.3c-0.1,0-0.2,0.1-0.3,0.1l0.2,0.4c0.1,0.1,0.1,0.3,0,0.4
		c-0.1,0.2-0.2,0.3-0.3,0.3c-0.1,0.1-0.3,0.1-0.4,0c-0.2-0.1-0.3-0.1-0.3-0.3c-0.1-0.2-0.2-0.4-0.4-0.7c-0.6,2.3-1.2,4.6-1.6,7.1
		c0,0.2-0.1,0.3-0.2,0.4c-0.1,0.1-0.3,0.1-0.4,0.1c-0.2,0-0.3-0.1-0.4-0.2c-0.1-0.1-0.1-0.3-0.1-0.4c0.5-2.6,1.1-5.1,1.7-7.5h-0.2
		c-0.8,2.4-1.5,4.6-2.1,6.7c0,0.2-0.1,0.3-0.3,0.3c-0.1,0.1-0.3,0.1-0.4,0.1c-0.2,0-0.3-0.1-0.3-0.3c-0.1-0.1-0.1-0.3-0.1-0.4
		c0.5-2,1.2-4.1,2-6.5c-0.7,0-1.4-0.1-2-0.2c-0.2,0-0.3-0.1-0.4-0.2c-0.1-0.1-0.1-0.3-0.1-0.4s0.1-0.3,0.2-0.4
		c0.1-0.1,0.3-0.1,0.4-0.1c0.7,0.1,1.4,0.2,2.3,0.2l0.1-0.3c-0.6-0.2-1-0.3-1.4-0.4c-0.2,0-0.3-0.1-0.4-0.3
		c-0.1-0.1-0.1-0.3-0.1-0.4s0.1-0.3,0.2-0.4c0.1-0.1,0.3-0.1,0.4-0.1c0.4,0.1,0.9,0.2,1.5,0.5c-0.2-0.4-0.3-0.7-0.3-1.1
		c0-0.2,0-0.3,0.1-0.4c0.1-0.1,0.2-0.2,0.3-0.3c0.3-0.1,0.5,0,0.6,0.3l0.3-0.8c0.7-1.7,1.5-3.2,2.2-4.6c-0.2,0-0.3-0.1-0.4-0.2
		s-0.1-0.3-0.1-0.4c0-0.2,0.1-0.3,0.2-0.4c0.1-0.1,0.3-0.1,0.4-0.1c0.1,0,0.3,0,0.5,0.1l0.2-0.3l-0.2-0.1c-0.2-0.1-0.3-0.2-0.3-0.3
		c-0.1-0.1,0-0.3,0-0.4c0.1-0.3,0.3-0.4,0.6-0.3l-1-2.5c-0.1-0.2-0.1-0.3,0-0.4c0.1-0.1,0.2-0.2,0.3-0.3c0.2-0.1,0.3-0.1,0.4,0
		c0.1,0.1,0.2,0.2,0.3,0.3l0.2,0.6c0.1-0.2,0.2-0.2,0.4-0.3c0.2,0,0.3,0,0.4,0.1c0.1,0.1,0.2,0.2,0.3,0.4c0.1,0.3,0.1,0.5,0.2,0.8
		c0.5-0.6,0.9-1.1,1.4-1.5c0.1-0.1,0.1-0.1,0.2-0.1l0.5-0.7c0.1-0.1,0.2-0.2,0.4-0.2c0.2,0,0.3,0,0.4,0.1c0.1,0.1,0.2,0.2,0.2,0.4
		c0,0.2,0,0.3-0.1,0.4c-0.8,1.1-1.5,2.3-2.2,3.5c0.3,0,0.6,0,0.9-0.1c0.2,0,0.3,0,0.4,0.1c0.1,0.1,0.2,0.2,0.3,0.3
		c0,0.2,0,0.3-0.1,0.4c-0.1,0.1-0.2,0.2-0.3,0.3c-0.2,0.1-0.5,0.1-0.7,0.1l0.1,0.1c0.3-0.1,0.6-0.2,0.8-0.3c0.1-0.1,0.3-0.1,0.4,0
		s0.3,0.1,0.3,0.3c0.1,0.1,0.1,0.3,0,0.4c0,0.2-0.1,0.3-0.3,0.3c-0.3,0.1-0.5,0.2-0.8,0.3c0.3,0.7,1.3,2.5,2.8,5.6v0
		c0.1-0.2,0.2-0.2,0.3-0.3c0.1,0,0.3,0,0.4,0c0.1,0.1,0.2,0.2,0.3,0.3c0,0.2,0,0.3,0,0.4l-0.4,0.7l0.1,0.1h0l0.2-0.3
		c0.1-0.1,0.2-0.2,0.4-0.2c0.2,0,0.3,0,0.4,0.1c0.1,0.1,0.2,0.1,0.2,0.2c1.4-0.2,2.5-0.4,3.2-0.5c0.2,0,0.3,0,0.4,0.1
		s0.2,0.2,0.2,0.4c0,0.2,0,0.3-0.1,0.4c-0.1,0.1-0.2,0.2-0.4,0.2c-0.5,0.1-1,0.1-1.6,0.2c0.3,0.1,0.4,0.2,0.5,0.5
		c0,0.2,0,0.3-0.1,0.4c-0.1,0.1-0.2,0.2-0.4,0.2c-0.7,0.1-1.4,0.2-2.1,0.2l1.7,3.8c0.8,2,1.6,3.5,2.2,4.5c0.1,0.1,0.1,0.3,0.1,0.4
		s-0.1,0.3-0.3,0.3s-0.3,0.1-0.4,0.1s-0.3-0.1-0.3-0.3c-0.7-1.1-1.5-2.7-2.3-4.6l-0.5-1.3l-0.6-1.5c-0.2-0.5-0.4-0.9-0.6-1.2
		l-0.5,0.6c0.9,2.3,1.8,4.2,2.7,5.6c0.1,0.1,0.1,0.3,0.1,0.4c0,0.2-0.1,0.3-0.2,0.4s-0.3,0.1-0.4,0.1c-0.2,0-0.3-0.1-0.4-0.2
		c-0.9-1.5-1.8-3.3-2.7-5.5c-0.2,0-0.3-0.1-0.4-0.2C185.1,46.9,185,46.8,185,46.6z M178.8,44.2c0.1,0,0.3,0,0.4,0.1
		c1.5,0.2,3.2,0.1,5.2-0.2l-0.8-2.1c-0.4-1.2-1.2-2.9-2.2-5.2l0,0c-1.1,2.2-2,4.5-2.9,7L178.8,44.2z M185.6,44l0.3-0.4l-1.6-3
		l0.5,1.2L185.6,44L185.6,44z"/>
	<path style="fill:#FFFFFF;" d="M202,43.2l-0.1-0.1l-0.1,0.1c0.7,0.8,1.7,2.1,3,3.8c1.7,2.4,3.1,4,4,4.9c0.1,0.1,0.2,0.2,0.2,0.4
		c0,0.2-0.1,0.3-0.2,0.4c-0.1,0.1-0.2,0.2-0.4,0.2c-0.2,0-0.3,0-0.4-0.1c-1-1-2.4-2.7-4.1-5.1c-1.3-1.8-2.3-3.1-3-3.9
		c0,0,0,0.1-0.1,0.1c-0.2,0.2-0.4,0.3-0.6,0.2l-0.2,0.1c0.2,0.2,0.2,0.5,0,0.7c-0.1,0.1-0.3,0.2-0.5,0.2c0,2.7,0.1,5.1,0.4,7.3
		c0,0.2,0,0.3-0.1,0.4s-0.2,0.2-0.4,0.2c-0.2,0-0.3,0-0.4-0.1s-0.2-0.2-0.2-0.4c-0.1-0.5-0.1-1.1-0.2-1.6c-0.1,0.1-0.2,0.1-0.2,0.1
		c-0.2,0-0.3,0-0.4-0.1s-0.2-0.2-0.3-0.3c-0.3-1.2-0.4-2.9-0.4-5.1c-1,0.5-1.9,0.9-2.8,1.2c-0.2,0.1-0.3,0.1-0.4,0
		c-0.1-0.1-0.2-0.2-0.3-0.3c-0.1-0.2-0.1-0.3,0-0.4c0.1-0.1,0.2-0.2,0.3-0.3l1.1-0.4c-0.4,0.1-0.8,0.2-1,0.2c-0.2,0-0.3-0.1-0.4-0.2
		c-0.1-0.1-0.2-0.2-0.2-0.4s0.1-0.3,0.2-0.4c0.1-0.1,0.2-0.2,0.4-0.2c0.4,0,1.4-0.3,2.9-0.9l0.2-0.1v-0.6c-0.2-0.4-0.4-0.7-0.6-1.1
		c-0.1-0.1-0.1-0.3,0-0.4s0.1-0.3,0.3-0.3c0.1-0.1,0.2-0.1,0.4-0.1c0-1.6,0-2.9,0-3.9l-0.5,0.3c-0.1,0.1-0.3,0.1-0.4,0.1
		S196,37.2,196,37s-0.1-0.3-0.1-0.4c0-0.1,0.1-0.3,0.2-0.4c0.4-0.2,0.8-0.5,1.2-0.7v-0.1c-0.4,0.1-0.8,0.2-1,0.3
		c-0.2,0.1-0.3,0.1-0.4,0c-0.1-0.1-0.2-0.2-0.3-0.3s-0.1-0.3,0-0.4c0.1-0.1,0.2-0.2,0.3-0.3c0.3-0.2,0.9-0.3,1.6-0.5l0.1-1.4
		c0-0.2,0.1-0.3,0.2-0.4s0.3-0.1,0.4-0.1s0.3,0.1,0.4,0.2c0.1,0.1,0.1,0.3,0.1,0.4l-0.1,1l0.4-0.1c0.1-0.6,0.2-1.2,0.3-1.8
		c0-0.2,0.1-0.3,0.2-0.4c0.1-0.1,0.3-0.1,0.4-0.1c0.2,0,0.3,0.1,0.4,0.2c0.1,0.1,0.1,0.3,0.1,0.4c-0.1,0.4-0.2,0.9-0.2,1.4
		c1.2-0.1,2.4-0.2,3.6-0.2c1.6-0.2,3.2-0.1,4.8,0.2c1.2,0.2,2.1,0.6,2.7,1.2c0.9,0.8,1,1.9,0.3,3.1c-0.4,0.8-1.3,1.5-2.7,2.1
		c-0.4,0.2-1,0.4-1.6,0.6c-0.1,0-0.3,0.1-0.5,0.2l-0.5,0.2c-0.2,0-0.3,0.1-0.4,0.1c-0.8,0.3-1.8,0.7-2.8,1.2
		c3.2,3.6,5.9,7.1,8.2,10.6c0.1,0.1,0.1,0.3,0.1,0.4s-0.1,0.3-0.2,0.4c-0.1,0.1-0.3,0.1-0.4,0.1s-0.3-0.1-0.4-0.2
		c-2.1-3.3-4.6-6.5-7.5-9.8c-0.1,0-0.2-0.1-0.3-0.2L202,43.2z M198.7,36.1l-0.3,0.1c0,1.1-0.1,2.5-0.1,4.3c0,0,0.1,0,0.1,0
		c0-0.5,0.1-1,0.1-1.6c0-0.4,0-0.9,0.1-1.5C198.7,36.8,198.7,36.3,198.7,36.1z M198.4,42.1v0.3V42.1z M199.7,42.1l0.1-0.1
		c0.2-0.2,0.5-0.3,0.8-0.1l0.5-0.2l-0.6-0.9c-0.1-0.1-0.1-0.3-0.1-0.4c0-0.2,0.1-0.3,0.2-0.4c0.1-0.1,0.3-0.1,0.4-0.1
		c0.2,0,0.3,0.1,0.4,0.2l0.8,1.1c1.9-0.9,3.4-1.7,4.7-2.4c0.7-0.4,1.2-0.7,1.6-1c0.3-0.3,0.5-0.5,0.6-0.6c0.2-0.4,0.2-0.7,0-1
		c-0.1-0.3-0.4-0.5-0.8-0.7c-0.9-0.4-2.2-0.7-3.9-0.7h-0.5c-1.3,0.1-2.5,0.4-3.8,0.9c0,0.4-0.1,0.9-0.1,1.7l-0.1,1.7
		c-0.1,1.1-0.1,2-0.2,2.8L199.7,42.1z M208.3,39.1c1.1-0.5,1.8-1,2.1-1.6c0.4-0.7,0.4-1.2-0.1-1.7c-0.2-0.2-0.3-0.3-0.6-0.4
		c0.1,0.1,0.1,0.2,0.1,0.2c0.3,0.6,0.3,1.2,0,1.9c-0.1,0.3-0.4,0.6-0.9,1C208.8,38.8,208.6,38.9,208.3,39.1z"/>
	<path style="fill:#FFFFFF;" d="M218.9,32c0,4.8,0,7.8,0.1,8.9h0.1c0-1,0-2.5,0-4.5c0-1.9,0.1-3.3,0.1-4.1c0-0.2,0.1-0.3,0.2-0.4
		c0.1-0.1,0.2-0.2,0.4-0.2s0.3,0.1,0.4,0.2c0.1,0.1,0.2,0.2,0.2,0.4c0,0.8,0,2.1-0.1,4s-0.1,3.3-0.1,4.3c0.3,0,0.4,0.2,0.5,0.4
		c0.1,0.1,0,0.3,0,0.4c-0.1,0.1-0.2,0.2-0.4,0.3l-0.1,0V42c0.2,0.1,0.3,0.2,0.4,0.4c0.1,0.3,0,0.5-0.3,0.6c0,0.6,0.1,1.8,0.3,3.5
		c0.2,2.2,0.3,3.9,0.3,5.1c0,0.2-0.1,0.3-0.2,0.4c-0.1,0.1-0.2,0.2-0.4,0.2c-0.1,0-0.2,0-0.3-0.1c0,0.5,0.1,1,0.1,1.4
		c0,0.2-0.1,0.3-0.2,0.4c-0.1,0.1-0.2,0.2-0.4,0.2c-0.2,0-0.3-0.1-0.4-0.2c-0.1-0.1-0.2-0.2-0.2-0.4c0-1.1-0.2-2.8-0.4-5.1
		c-0.2-1.7-0.3-3-0.4-3.8c-0.1,0-0.1-0.1-0.2-0.1c-0.1-0.1-0.2-0.2-0.2-0.4s0.1-0.3,0.2-0.4l0.1-0.1l0-0.2h-0.1
		c-0.2,0-0.3-0.1-0.4-0.2s-0.2-0.2-0.2-0.4s0.1-0.3,0.2-0.4c0.1-0.1,0.2-0.2,0.4-0.2h0.1v-0.2h-0.1c-0.2,0-0.3-0.1-0.4-0.2
		c-0.1-0.1-0.2-0.3-0.2-0.4s0.1-0.3,0.2-0.4c0.1-0.1,0.2-0.2,0.4-0.2c0-1.2-0.1-4.2-0.1-9c0-0.1,0.1-0.3,0.2-0.4
		c0.1-0.1,0.2-0.2,0.4-0.2s0.3,0.1,0.4,0.2C218.8,31.7,218.9,31.9,218.9,32z M219,42.2L219,42.2L219,42.2L219,42.2L219,42.2z
		 M219,43.4L219,43.4l0.1-0.1L219,43.4L219,43.4z M219.1,44.2c0.1,0.9,0.2,2.1,0.3,3.7l-0.1-1.1L219.1,44.2
		C219.1,44.1,219.1,44.1,219.1,44.2z"/>
</g>
</svg>
