<?xml version="1.0" encoding="utf-8"?>
<!-- Generator: Adobe Illustrator 26.1.0, SVG Export Plug-In . SVG Version: 6.00 Build 0)  -->
<svg version="1.1" id="Layer_1" xmlns="http://www.w3.org/2000/svg" xmlns:xlink="http://www.w3.org/1999/xlink" x="0px" y="0px"
	 viewBox="0 0 358.8 60.6" style="enable-background:new 0 0 358.8 60.6;" xml:space="preserve">
<path style="fill:#FE4100;" d="M81.5,36.4c-0.3,0-0.6,0-0.9,0c-24.8,0-49.6,0-74.4,0c-0.7,0-0.9-0.2-0.9-0.9c0-9.8,0-19.6,0-29.4
	c0-0.7,0.2-0.8,0.8-0.8c45.3,0,90.7,0,136,0c0.7,0,0.8,0.2,0.8,0.8c0,9.8,0,19.7,0,29.5c0,0.2,0,0.5,0,0.7c-0.4,0.3-0.8,0.2-1.2,0.2
	c-3.4,0-6.7,0-10.1,0c-16.2,0-32.5,0-48.7,0C82.4,36.6,81.9,36.7,81.5,36.4z"/>
<path style="fill:#29CBCB;" d="M81.5,36.4c0.3,0,0.6,0,0.9,0c20.2,0,40.4,0,60.6,0c0,5.1,0,10.1,0,15.2c0,1.3,0,2.5,0,3.8
	c0,0.6-0.2,0.8-0.7,0.7c0,0-0.1,0-0.1,0c-19.9,0-39.8,0-59.8,0c-0.7,0-0.9-0.2-0.9-0.9C81.5,48.9,81.5,42.6,81.5,36.4z"/>
<path d="M34.7,20.7c0.4,0.1,0.8,0.2,1.1,0.4c1,0.4,1.6,1.1,1.7,2.3c0.1,1.1-0.5,1.9-1.4,2.5c-1,0.6-2.1,0.7-3.2,0.7
	c-3.2,0-6.3,0-9.5,0c-0.3,0-0.5,0-0.7-0.2c-0.7-0.7-1.4-1.4-2.3-2.2c0.5,0,0.7,0,1,0c3.5,0,6.9,0,10.4,0c0.4,0,0.7,0,1.1-0.2
	c0.4-0.2,0.6-0.5,0.6-0.9c0-0.4-0.2-0.7-0.6-0.9c-0.3-0.1-0.5-0.1-0.8-0.1c-4.2,0-8.3,0-12.5,0c-0.5,0-0.6,0.2-0.5,0.6
	c0,1.1,0,2.3,0,3.4c0,0.4-0.1,0.6-0.5,0.5c-0.9,0-1.9,0-2.8,0c-0.4,0-0.5-0.1-0.5-0.5c0-3.4,0-6.8,0-10.3c0-0.4,0.1-0.5,0.5-0.5
	c5.5,0,11.1,0,16.6,0c1.1,0,2.1,0.1,3.1,0.7c1,0.5,1.6,1.3,1.5,2.4c-0.1,1.1-0.7,1.8-1.8,2.1C35,20.5,34.9,20.6,34.7,20.7z"/>
<path d="M129.7,22.9c1.1,1.1,2.3,2.2,3.4,3.4c0,0.1-0.1,0.1-0.1,0.2c-1.1,0-2.2-0.1-3.3,0c-0.9,0.1-1.5-0.2-2.1-0.9
	c-0.8-0.9-1.5-1.9-2.5-2.4c-1-0.4-2.2-0.1-3.4-0.1c-1.8,0-3.7,0-5.6-0.2c0.8-0.8,1.6-1.5,2.4-2.3c0.2-0.2,0.5-0.1,0.7-0.1
	c2.6,0,5.2,0,7.7,0c0.3,0,0.6,0,1-0.1c0.7-0.1,1-0.5,1-1.2c0-0.7-0.4-1-1-1.2c-0.2,0-0.4,0-0.7,0c-3.9,0-7.9,0-11.8,0
	c-0.6,0-0.7,0.2-0.7,0.8c0,2.3,0,4.6,0,6.9c0,0.6-0.2,0.8-0.8,0.8c-0.8,0-1.7,0-2.5,0c-0.4,0-0.5-0.2-0.5-0.6c0-3.4,0-6.8,0-10.2
	c0-0.4,0.2-0.5,0.6-0.5c5.4,0,10.7,0,16.1,0c1.2,0,2.3,0.2,3.4,0.7c1.4,0.7,2.1,1.8,2,3.3c0,1.5-0.8,2.6-2.2,3.3
	C130.3,22.7,130,22.8,129.7,22.9z"/>
<path d="M78.2,15.2c1.9,0,3.8,0,5.7,0c0.5,0,0.7,0.1,0.6,0.6c-0.1,0.8,0.3,1.8-0.2,2.3c-0.4,0.4-1.5,0.1-2.2,0.1c-1.9,0-3.9,0-5.8,0
	c-0.5,0-0.7,0.2-0.7,0.7c0,2.3,0,4.6,0,6.9c0,0.6-0.2,0.7-0.7,0.7c-0.9,0-1.7,0-2.6,0c-0.4,0-0.6-0.1-0.6-0.6c0-3.4,0-6.7,0-10.1
	c0-0.5,0.1-0.6,0.6-0.6C74.3,15.3,76.3,15.2,78.2,15.2z"/>
<path style="fill:#010000;" d="M50.6,17.9c-3.2,0-6.5,0-9.7,0c-0.6,0-0.7-0.1-0.7-0.7c0-1.9,0-1.9,1.9-1.9c6.1,0,12.2,0,18.3,0
	c0.6,0,0.8,0.1,0.8,0.8c-0.1,0.6,0.2,1.4-0.1,1.7c-0.4,0.4-1.2,0.1-1.8,0.1C56.3,17.9,53.4,17.9,50.6,17.9z"/>
<path style="fill:#010000;" d="M50.6,19.6c3.3,0,6.5,0,9.8,0c0.5,0,0.7,0.1,0.6,0.7c-0.1,0.6,0.3,1.4-0.1,1.9
	c-0.4,0.4-1.2,0.1-1.8,0.1c-6.1,0-12.1,0-18.2,0c-0.7,0-0.8-0.2-0.8-0.8c0-1.8,0-1.8,1.8-1.8C44.8,19.6,47.7,19.6,50.6,19.6z"/>
<path style="fill:#010000;" d="M50.6,26.5c-3.3,0-6.5,0-9.8,0c-0.5,0-0.7-0.1-0.7-0.7c0-1.9,0-1.9,1.9-1.9c6.1,0,12.2,0,18.3,0
	c0.6,0,0.9,0.1,0.8,0.8c-0.1,0.6,0.3,1.4-0.2,1.8c-0.4,0.4-1.1,0.1-1.7,0.1C56.3,26.5,53.5,26.5,50.6,26.5z"/>
<path style="fill:#010000;" d="M97.5,15.2c3.2,0,6.4,0,9.7,0c0.6,0,0.8,0.1,0.7,0.7c-0.1,0.6,0.2,1.4-0.1,1.8
	c-0.3,0.4-1.2,0.1-1.8,0.1c-6.1,0-12.2,0-18.2,0c-0.6,0-0.8-0.2-0.8-0.8c0-1.9,0-1.9,1.8-1.9C91.7,15.2,94.6,15.2,97.5,15.2z"/>
<path style="fill:#010000;" d="M97.4,22.2c-3.2,0-6.5,0-9.7,0c-0.5,0-0.8-0.1-0.7-0.7c0.1-0.6-0.2-1.4,0.1-1.8
	c0.4-0.4,1.2-0.1,1.8-0.1c6,0,12.1,0,18.1,0c0.6,0,0.9,0.1,0.9,0.8c-0.1,1.8,0,1.8-1.8,1.8C103.1,22.2,100.3,22.2,97.4,22.2z"/>
<path style="fill:#010000;" d="M97.4,26.5c-3.2,0-6.4,0-9.7,0c-0.5,0-0.8-0.1-0.8-0.7c0.1-0.6-0.3-1.4,0.1-1.8
	c0.4-0.4,1.2-0.1,1.8-0.1c6.1,0,12.2,0,18.2,0c0.6,0,0.8,0.2,0.8,0.8c0,1.9,0,1.9-1.8,1.9C103.1,26.5,100.2,26.5,97.4,26.5z"/>
<path d="M70.3,18.2c-2.3,0-4.6,0-6.9,0c-0.3,0-0.4-0.1-0.4-0.4c0,0,0-0.1,0-0.1c0-0.8-0.3-1.8,0.1-2.3c0.4-0.5,1.5,0,2.2-0.2
	c1.6-0.3,2.8,0.3,3.7,1.5c0.4,0.5,0.9,0.9,1.3,1.3C70.4,18.1,70.3,18.2,70.3,18.2z"/>
<path style="fill:#FEFEFE;" d="M127.7,51c-1.6,0-3.1,0-4.7,0c-0.5,0-0.6-0.2-0.6-0.6c0-2.8,0-5.6,0-8.4c0-0.5,0.2-0.6,0.6-0.6
	c3.1,0,6.2,0,9.3,0c0.4,0,0.6,0.1,0.6,0.6c0,1.4,0,1.4-1.4,1.4c-1.8,0-3.6,0-5.4,0c-0.5,0-0.8,0.1-0.7,0.7c0,0.1,0,0.3,0,0.4
	c-0.1,0.6,0.1,0.8,0.7,0.7c1.9,0,3.9,0,5.8,0c0.5,0,0.8,0.1,0.7,0.7c0,0.1,0,0.3,0,0.4c0.1,0.5-0.1,0.7-0.7,0.7c-1.9,0-3.9,0-5.8,0
	c-0.6,0-0.8,0.2-0.7,0.8c0,1.3,0,1.3,1.3,1.3c1.9,0,3.7,0,5.6,0c0.6,0,0.7,0.2,0.7,0.7c0,1.2,0,1.2-1.3,1.2
	C130.4,51,129.1,51,127.7,51z"/>
<path style="fill:#FEFEFE;" d="M114.3,48.5c1.1-2.2,2.2-4.4,3.3-6.6c0.2-0.4,0.4-0.6,0.9-0.6c0.9,0,1.7,0,2.7,0
	c-0.3,0.8-0.8,1.5-1.1,2.2c-1.2,2.3-2.4,4.6-3.7,6.9c-0.2,0.4-0.4,0.5-0.9,0.5c-1,0-2.1,0.3-2.9-0.1c-0.8-0.4-1-1.6-1.5-2.5
	c-1.1-2.1-2.3-4.2-3.4-6.3c-0.3-0.6-0.2-0.7,0.4-0.7c0.8,0,1.8-0.2,2.5,0.1c0.7,0.4,0.8,1.4,1.2,2.1
	C112.7,45.2,113.5,46.8,114.3,48.5z"/>
<path style="fill:#FEFEFE;" d="M96.5,51c-1.5,0-3,0-4.5,0c-0.4,0-0.6-0.1-0.6-0.5c0-2.8,0-5.7,0-8.5c0-0.4,0.1-0.6,0.6-0.6
	c0.6,0,1.3,0,1.9,0c0.5,0,0.6,0.2,0.6,0.6c0,2,0,4.1,0,6.1c0,0.6,0.2,0.8,0.7,0.7c1.8,0,3.7,0,5.5,0c0.6,0,0.8,0.1,0.8,0.7
	c0,1.5,0,1.5-1.5,1.5C98.9,51,97.7,51,96.5,51z"/>
<path style="fill:#FEFEFE;" d="M106.2,46.1c0,1.4,0,2.8,0,4.2c0,0.5-0.1,0.7-0.6,0.6c-0.8-0.1-1.8,0.2-2.2-0.1
	c-0.5-0.4-0.1-1.4-0.2-2.2c0-2.2,0-4.5,0-6.7c0-0.5,0.1-0.7,0.6-0.7c0.6,0,1.2,0,1.9,0c0.4,0,0.5,0.1,0.5,0.5
	C106.2,43.2,106.2,44.7,106.2,46.1z"/>
<path style="fill:#FD4000;" d="M25.8,17.8c1.9,0,3.8,0,5.7,0c0.2,0,0.5,0,0.7,0c0.5,0.1,0.8,0.4,0.9,0.9c0,0.5-0.3,0.8-0.8,0.9
	c-0.2,0-0.5,0.1-0.7,0.1c-3.9,0-7.7,0-11.6,0c-0.6,0-0.9-0.1-0.8-0.8c0-0.1,0-0.3,0-0.4c-0.1-0.5,0.1-0.7,0.7-0.7
	C21.8,17.8,23.8,17.8,25.8,17.8z"/>
</svg>
