<?xml version="1.0" encoding="utf-8"?>
<!-- Generator: Adobe Illustrator 24.1.2, SVG Export Plug-In . SVG Version: 6.00 Build 0)  -->
<svg version="1.1" id="Layer_1" xmlns="http://www.w3.org/2000/svg" xmlns:xlink="http://www.w3.org/1999/xlink" x="0px" y="0px"
	 viewBox="0 0 134.9 33.5" style="enable-background:new 0 0 134.9 33.5;" xml:space="preserve">
<style type="text/css">
	.st0{fill:#FFFFFF;}
</style>
<g>
	<g>
		<g>
			<path class="st0" d="M46,9.4c0.4,0,0.6,0.2,0.6,0.6v1.6c0,0.5-0.2,0.6-0.6,0.6h-3.6V26c0,0.5-0.2,0.7-0.6,0.7h-2.2
				c-0.5,0-0.6-0.2-0.6-0.7V12.3h-3.6c-0.5,0-0.6-0.2-0.6-0.6V10c0-0.5,0.2-0.6,0.6-0.6H46z"/>
			<path class="st0" d="M47.6,13.4c0-2.1,1.6-4.1,6.2-4.1s6.2,2,6.2,4.1v9.4c0,2.1-1.6,4.1-6.2,4.1s-6.2-2-6.2-4.1V13.4z M56.6,14
				c0-1.3-1-1.9-2.7-1.9s-2.7,0.6-2.7,1.9v8.2c0,1.3,1,1.9,2.7,1.9s2.7-0.6,2.7-1.9V14z"/>
			<path class="st0" d="M78.1,26.1c0,0.4-0.2,0.6-0.6,0.6h-2.1c-0.5,0-0.6-0.2-0.6-0.6v-9.7c0,0.1-0.5,1.6-0.7,2.3l-1.9,4.7
				C72,23.8,71.8,24,71.4,24h-1.8c-0.4,0-0.7-0.3-0.8-0.6l-2.2-5.1c-0.3-0.5-0.6-1.7-0.6-1.9V26c0,0.4-0.2,0.6-0.6,0.6h-2
				c-0.5,0-0.6-0.2-0.6-0.6V10c0-0.4,0.2-0.6,0.6-0.6h2c0.3,0,0.5,0.1,0.6,0.4l3.9,8.9c0.3,0.7,0.6,1.8,0.6,1.8s0.3-1,0.7-1.8l3.8-9
				c0.1-0.2,0.3-0.3,0.6-0.3h2.1c0.5,0,0.6,0.2,0.6,0.6v16.1H78.1z"/>
			<path class="st0" d="M81.6,26.7c-0.5,0-0.6-0.2-0.6-0.7V10c0-0.5,0.2-0.7,0.6-0.7h4.7c4.6,0,6.2,1.7,6.2,3.8v1.5
				c0,1.2-0.6,2.2-1.9,2.9c1.7,0.6,2.7,1.7,2.7,3.1v2c0,2.1-1.6,4-6.2,4h-5.5V26.7z M84.5,12.2v4.4h1.9c1.6,0,2.7-0.6,2.7-1.9v-0.9
				c0-1.3-1-1.6-2.7-1.6C86.4,12.2,84.5,12.2,84.5,12.2z M84.5,19.2V24h2.6c1.7,0,2.8-0.6,2.8-1.9V21c0-1.1-1.1-1.8-2.8-1.8H84.5z"
				/>
			<path class="st0" d="M101.7,9.4c0.5,0,0.7,0.2,0.8,0.6l4.7,16c0.1,0.4,0,0.6-0.5,0.6h-2.3c-0.4,0-0.6-0.2-0.7-0.6l-0.9-3.1h-4.7
				L97.2,26c-0.1,0.4-0.3,0.6-0.8,0.6h-2.1c-0.5,0-0.6-0.2-0.5-0.6l4.8-16c0.1-0.4,0.3-0.6,0.8-0.6H101.7z M101.3,17.4
				c-0.3-1-0.7-4.3-0.7-4.6c-0.1,0.3-0.5,3.5-0.8,4.6l-0.9,2.9h3.2L101.3,17.4z"/>
			<path class="st0" d="M112.2,23.9h5.7c0.4,0,0.6,0.2,0.6,0.6v1.6c0,0.5-0.2,0.6-0.6,0.6h-8.6c-0.4,0-0.5-0.2-0.5-0.7V10
				c0-0.5,0.2-0.7,0.6-0.7h2.2c0.5,0,0.6,0.2,0.6,0.7C112.2,10,112.2,23.9,112.2,23.9z"/>
			<path class="st0" d="M126.7,9.4c0.5,0,0.7,0.2,0.8,0.6l4.7,16c0.1,0.4,0,0.6-0.5,0.6h-2.3c-0.4,0-0.6-0.2-0.7-0.6l-0.9-3.1h-4.7
				l-0.9,3.1c-0.1,0.4-0.3,0.6-0.8,0.6h-2.1c-0.5,0-0.6-0.2-0.5-0.6l4.8-16c0.1-0.4,0.3-0.6,0.8-0.6H126.7z M126.2,17.4
				c-0.3-1-0.7-4.3-0.7-4.6c-0.1,0.3-0.5,3.5-0.8,4.6l-0.9,2.9h3.2L126.2,17.4z"/>
		</g>
	</g>
	<g>
		<path class="st0" d="M21.8,10.8c0-0.1,0.1-0.2,0.2-0.3s0.2-0.2,0.3-0.2c0.1-0.1,0.2-0.1,0.4-0.1c0.1,0,0.2,0,0.4,0.1
			c0.1,0.1,0.2,0.1,0.3,0.2c0.1,0.1,0.1,0.2,0.2,0.3s0.1,0.2,0.1,0.4c0,0.1,0,0.3-0.1,0.4c-0.1,0.1-0.1,0.2-0.2,0.3
			c-0.2,0-0.3,0.1-0.4,0.1s-0.2,0.1-0.4,0.1c-0.3,0-0.5-0.1-0.6-0.3c-0.2-0.2-0.3-0.4-0.3-0.7C21.7,11.1,21.7,10.9,21.8,10.8
			L21.8,10.8z M22.2,8c0.1-0.1,0.3-0.2,0.4-0.2c0.2,0,0.3,0.1,0.4,0.2c0.1,0.1,0.2,0.3,0.2,0.4c0,0.2-0.1,0.3-0.2,0.5
			c-0.1,0.1-0.3,0.2-0.4,0.2c-0.2,0-0.3-0.1-0.4-0.2S22,8.7,22,8.5S22.1,8.1,22.2,8L22.2,8z M21,9.9c-0.1,0.1-0.2,0.3-0.2,0.4
			c-0.1,0.1-0.1,0.3-0.2,0.4c0,0.2-0.1,0.3-0.1,0.4c0,0.3,0.1,0.6,0.2,0.8c0.1,0.3,0.3,0.5,0.5,0.7s0.4,0.3,0.7,0.4
			c0.3,0.1,0.5,0.2,0.8,0.2s0.6-0.1,0.8-0.2c0.3-0.1,0.5-0.3,0.7-0.4c0.2-0.2,0.3-0.4,0.5-0.7c0.1-0.3,0.2-0.5,0.2-0.8
			s-0.1-0.6-0.2-0.9C24.4,10,24.2,9.8,24,9.6c0.2-0.2,0.3-0.3,0.3-0.5c0.1-0.2,0.1-0.4,0.1-0.6c0-0.2,0-0.5-0.1-0.7
			s-0.2-0.4-0.4-0.6c-0.2-0.2-0.4-0.3-0.6-0.4s-0.5-0.1-0.7-0.1s-0.5,0-0.7,0.1S21.5,7,21.3,7.2c-0.2,0.2-0.3,0.4-0.4,0.6
			s-0.1,0.5-0.1,0.7s0,0.4,0.1,0.6c0.1,0.2,0.2,0.4,0.4,0.5C21.2,9.7,21.1,9.8,21,9.9L21,9.9z"/>
		<path class="st0" d="M11.3,15.9h2l-2,4.3c0,0.1-0.1,0.2-0.1,0.3c0,0.2,0.1,0.3,0.2,0.4c0.1,0.1,0.3,0.2,0.4,0.2
			c0.1,0,0.2,0,0.3-0.1c0.1,0,0.2-0.1,0.2-0.3l2.3-5.1c0,0,0-0.1,0.1-0.1c0,0,0-0.1,0-0.2c0-0.1,0-0.2,0-0.2c0-0.1-0.1-0.2-0.1-0.2
			c-0.1-0.1-0.1-0.1-0.2-0.2c-0.1,0-0.2-0.1-0.3-0.1h-2.8c-0.4,0-0.6,0.2-0.6,0.6C10.7,15.6,10.9,15.9,11.3,15.9L11.3,15.9z"/>
		<path class="st0" d="M22.1,4.6c3.1,0,5.7,2.5,5.7,5.7c0,2.5-1.6,4.6-3.8,5.4c0.7,1.5,1.1,3.3,1.1,5.1c0,0.6,0,1.1-0.1,1.7
			c4-1.3,6.9-5.1,6.9-9.5c0-5.5-4.5-10-10-10C18,3,14.7,5.1,13,8.2c1.2,0.1,2.4,0.3,3.6,0.7C17.2,6.4,19.4,4.6,22.1,4.6L22.1,4.6z"
			/>
		<path class="st0" d="M12.8,12.4c3.1,0,5.7,2.5,5.7,5.7c0,3.1-2.5,5.7-5.7,5.7c-3.1,0-5.7-2.5-5.7-5.7C7.1,15,9.6,12.4,12.8,12.4
			L12.8,12.4z M12.5,30.7c5.5,0,10-4.5,10-10s-4.5-10-10-10s-10,4.5-10,10C2.5,26.3,7,30.7,12.5,30.7L12.5,30.7z"/>
	</g>
</g>
</svg>
