<?xml version="1.0" encoding="utf-8"?>
<!-- Generator: Adobe Illustrator 26.1.0, SVG Export Plug-In . SVG Version: 6.00 Build 0)  -->
<svg version="1.1" id="Layer_1" xmlns="http://www.w3.org/2000/svg" xmlns:xlink="http://www.w3.org/1999/xlink" x="0px" y="0px"
	 viewBox="0 0 1056.6 202" style="enable-background:new 0 0 1056.6 202;" xml:space="preserve">
<polygon style="fill:#FFF2E7;" points="105,125.6 111.4,124.9 121,132 131.4,135.9 143.4,135.9 153.8,134.5 160.3,129.4 
	166.3,127.1 168.7,124.9 174.6,124.9 180.8,130.4 176.8,140.4 161.7,150.3 148.6,154.1 130.7,154.1 117.3,150.2 106.6,143 
	98.1,136.3 96.6,128.5 101.4,125.6 "/>
<g id="Livello_1_1_">
</g>
<g id="Layer_1_00000121280000816817959920000000882230360127541942_">
</g>
<path style="fill:#D82D2C;" d="M134.5,195.3c-1.6-0.2-3.2-0.3-4.8-0.5c-16.4-1.8-31.3-7.3-44.7-16.9c-18.2-13-30.4-30.4-36.6-51.9
	c-0.1-0.4-0.2-0.9-0.4-1.5c0.8,0,1.6-0.1,2.3,0c0.2,0,0.5,0.4,0.6,0.7c1.7,6.1,4,11.9,6.9,17.5c8.4,16.2,20.6,28.9,36.4,38
	c9.7,5.6,20.2,9.2,31.3,10.9c9.3,1.5,18.7,1.5,28,0.1c13.7-2,26.3-6.8,37.7-14.6c17.4-11.8,29.6-27.7,36.3-47.7
	c0.9-2.6,1.5-5.3,2.3-8c0.1-0.4,0.3-0.7,0.5-1c4-4.1,4.4-11.5,2.2-16.1c-0.2-0.5-0.4-1.2-0.4-1.8c-0.1-1.6,0-3.2,0.1-4.8
	c0.4,1.1,1.1,1.7,2.2,1.8c0.1,0,0.3,0.6,0.3,0.9c-0.2,3.4-0.2,6.8-0.5,10.2c-1.3,12.1-4.6,23.7-10.5,34.3
	c-14.5,26.3-36.5,42.5-65.9,48.6c-3.9,0.8-7.9,1-11.8,1.5c-0.3,0-0.6,0.1-0.9,0.1C141.6,195.3,138.1,195.3,134.5,195.3z"/>
<path style="fill:#D72D2B;" d="M53.8,81.1c8.3-38,43.6-70,88.8-68.6c45.7,1.4,77.2,35.7,83.7,70.2c-3-1.7-6.1-2.5-9.4-2.7
	c-3.3-0.2-6.6-0.1-9.9,0.7c-0.2-0.5-0.3-0.9-0.5-1.4c-6.3-18.9-18.4-32.7-36.2-41.6c-7.9-3.9-16.3-6.1-25.1-6.7
	c-18.6-1.2-35.2,3.9-49.7,15.7C84.6,55.5,77.2,66.7,73,80c-0.3,0.8-0.6,1.1-1.5,1.1c-2.4-0.1-4.7,0-7.1,0c-0.6,0-1.2,0.2-1.9,0.3
	c-0.1,0-0.2,0.1-0.2,0.1c-2.5-0.9-5.1-0.2-7.6-0.4C54.5,81,54.2,81.1,53.8,81.1z"/>
<path style="fill:#D82D2C;" d="M205.7,124.2c6.4,1.9,12.8,1.9,19.3-0.1c-3.3,11.9-8.8,22.7-16.6,32.1
	c-14.1,17.1-32.1,27.8-54.1,31.4c-47,7.7-88.2-22.3-99.5-63.1c1-0.4,1.3-1.2,1.5-2.2c1.8-10.6,3.6-21.3,5.3-31.9
	c0-0.1,0-0.2,0.2-0.3c0,0.3,0,0.6,0,0.9c0,10.3,0,20.7,0,31c0,1.9,0.5,2.4,2.4,2.4c3,0,5.9,0,8.9,0c0.6,0,0.9,0.2,1.2,0.8
	c8.4,21,23.3,35.2,44.8,42c17,5.4,33.8,4.2,50-3.3c17.4-8.1,29.4-21.3,36.3-39.2C205.6,124.5,205.7,124.4,205.7,124.2z"/>
<path style="fill:#D82D2C;" d="M175.3,119.2c1.2,0,2.3,0,3.3,0c0.2,0,0.6,0.3,0.7,0.6c0.3,0.9,0.4,1.9,0.7,2.8
	c0.3,1.5,0.8,1.9,2.4,1.9c2.4,0,4.8,0,7.2,0c0.3,0,0.6,0,0.9,0c-6.7,15.2-24,30.8-47.7,32c-26.3,1.3-46-15.1-53.6-32
	c0.4,0,0.7,0,1,0c3.1,0,6.1,0,9.2,0c1,0,1.7-0.2,2.2-1.4c0.5,1.3,1.6,1.4,2.7,1.4c3.6,0,7.1,0,10.7,0c0.5,0,1,0.2,1.4,0.5
	c6.2,5.7,13.4,9,21.9,9.3c9.7,0.4,18-2.8,25.1-9.3c0.3-0.3,0.9-0.5,1.4-0.5c2.5-0.1,5,0,7.5,0c1.4,0,2-0.5,2.3-1.8
	C174.7,121.5,175,120.3,175.3,119.2z M132.6,143.8c0,0.1-0.1,0.1-0.1,0.2c1.5,1.1,3,2.1,4.4,3.2c-0.5,1.8-1,3.5-1.6,5.3
	c0.1,0,0.1,0.1,0.2,0.1c1.4-1.1,2.9-2.1,4.3-3.2c1.5,1.1,2.9,2.1,4.3,3.2c-0.3-1.6-0.7-3-1.2-4.5c-0.2-0.6-0.2-1,0.5-1.4
	c1.1-0.7,2.1-1.5,3.2-2.2c0.2-0.1,0.4-0.3,0.7-0.6c-1.7,0-3.1-0.1-4.6,0c-1,0.1-1.3-0.3-1.6-1.2c-0.4-1.4-0.9-2.7-1.4-4.3
	c-0.2,0.5-0.3,0.7-0.3,0.9c-0.4,1.3-0.9,2.6-1.2,3.9c-0.2,0.5-0.4,0.7-1,0.7C135.8,143.7,134.2,143.8,132.6,143.8z M156.3,146
	c1.5,1.1,2.9,2.1,4.4,3.2c0-0.2,0.1-0.3,0-0.4c-0.3-1.1-0.6-2.2-1-3.3c-0.5-1.7-0.5-1.7,0.9-2.8c0.7-0.5,1.3-1,2-1.4
	c0.3-0.2,0.7-0.5,1-0.7c0-0.1-0.1-0.1-0.1-0.2c-1.2,0-2.4,0-3.7,0c-1.8,0-1.8,0-2.4-1.7c-0.4-1.1-0.8-2.3-1.1-3.4
	c-0.1,0-0.2,0-0.2,0c-0.5,1.4-1,2.9-1.4,4.3c-0.2,0.7-0.5,0.9-1.2,0.9c-1.5-0.1-3.1,0-4.9,0c0.4,0.3,0.5,0.5,0.7,0.6
	c1.1,0.8,2.1,1.6,3.2,2.3c0.6,0.4,0.7,0.7,0.4,1.4c-0.5,1.5-0.9,2.9-1.3,4.4c0.1,0,0.1,0.1,0.2,0.1
	C153.4,148.1,154.8,147.1,156.3,146z M123.5,135.2c-0.2,0.2-0.3,0.2-0.3,0.2c-0.3,1-0.6,2-1,2.9c-0.7,2.1-0.7,2.1-2.8,2.1
	c-1.1,0-2.2,0-3.4,0c1.2,1.1,2.4,2,3.6,2.8c0.6,0.4,0.8,0.8,0.5,1.5c-0.5,1.4-0.9,2.9-1.3,4.4c1.4-0.8,2.6-1.7,3.8-2.6
	c0.5-0.4,0.9-0.4,1.4,0c1.2,0.9,2.4,1.8,3.8,2.8c-0.1-0.4-0.1-0.6-0.2-0.8c-0.4-1.3-0.7-2.6-1.2-3.9c-0.2-0.6-0.1-1,0.4-1.3
	c1.2-0.8,2.3-1.6,3.4-2.4c0.1-0.1,0.2-0.3,0.5-0.5c-1.6,0-3-0.1-4.5,0c-0.9,0-1.3-0.2-1.5-1.1C124.5,138,124,136.6,123.5,135.2z
	 M113.2,139.6c0.1,0,0.1-0.1,0.2-0.1c-0.4-1.3-0.8-2.6-1.2-3.9c-0.4-1.3-0.4-1.3,0.7-2.2c1.1-0.8,2.2-1.6,3.3-2.4
	c0-0.1-0.1-0.1-0.1-0.2c-1.3,0-2.7,0-4,0c-1.5,0-1.5,0-2-1.4c-0.4-1.3-0.8-2.5-1.3-3.8c-0.7,1.5-1.2,2.9-1.6,4.4
	c-0.2,0.7-0.5,0.9-1.2,0.8c-1.5-0.1-3.1,0-4.6,0c0.2,0.4,0.4,0.5,0.6,0.7c1,0.7,2,1.5,3.1,2.2c0.6,0.4,0.7,0.7,0.5,1.4
	c-0.5,1.5-0.9,3-1.3,4.4c0.1,0,0.1,0.1,0.2,0.1c1.4-1.1,2.9-2.1,4.3-3.2C110.3,137.5,111.7,138.6,113.2,139.6z M166.4,139.7
	c0.4-0.2,0.6-0.4,0.8-0.5c1.1-0.8,2.2-1.6,3.3-2.4c0.4-0.3,0.7-0.3,1.1,0c1,0.8,2.1,1.6,3.1,2.3c0.2,0.2,0.5,0.3,0.7,0.4
	c-0.2-1.5-0.6-2.8-1.1-4.1c-0.3-0.9-0.2-1.4,0.7-1.9c1.2-0.7,2.3-1.6,3.5-2.5c0-0.1,0-0.1-0.1-0.2c-1.5,0-3,0-4.5,0
	c-0.7,0-1.1-0.2-1.3-0.9c-0.4-1.5-0.9-2.9-1.4-4.3c-0.7,1.4-1.2,2.8-1.6,4.2c-0.2,0.8-0.6,1.1-1.4,1c-1.5-0.1-3,0-4.4,0
	c0,0.1,0,0.2-0.1,0.2c1.2,0.8,2.3,1.7,3.5,2.5c0.7,0.5,1,0.9,0.7,1.8C167.2,136.7,166.9,138.1,166.4,139.7z"/>
<path style="fill:#FFFFFF;" d="M45.3,82.9c5.3,0,10.4,0,15.7,0c-2.2,13.2-4.4,26.4-6.7,39.6c-5.6,0-11.1,0-16.8,0
	c-0.5-6.8-1-13.6-1.5-20.4h-0.1c-0.4,6.8-0.9,13.6-1.3,20.4c-5.6,0-11.2,0-16.8,0c-2.4-13.1-4.7-26.3-7.1-39.6c0.4,0,0.6,0,0.9,0
	c4.6,0,9.1,0,13.7,0c0.7,0,0.9,0.2,1,0.9c0.4,4.7,0.8,9.3,1.1,14c0.1,1.3,0.2,2.6,0.2,3.9c0,0.3,0,0.5,0.1,0.8c0.1,0,0.2,0,0.3,0
	c0.2-6.5,0.4-13,0.6-19.5c0.3,0,0.5-0.1,0.7-0.1c4.2,0,8.5,0,12.7,0c0.5,0,0.8,0.1,0.8,0.7c0.3,5.9,0.6,11.7,0.9,17.6
	c0,0.4,0,0.9,0,1.3c0.1,0,0.2,0,0.3,0C44.5,96,44.9,89.5,45.3,82.9z"/>
<path style="fill:#FFFFFF;" d="M107.8,101.1c-1.1-6-1.8-12-1.3-18.2c5,0,10,0,15,0c0,13.2,0,26.4,0,39.6c-0.3,0-0.5,0.1-0.8,0.1
	c-5.5,0-10.9,0-16.4,0c-0.7,0-0.9-0.2-1.1-0.8c-1.4-5.5-2.8-11.1-4.2-16.6c-0.1-0.3-0.2-0.5-0.4-0.8c1.3,6,1.3,12,1.1,18.2
	c-5,0-10,0-15.1,0c0-13.2,0-26.3,0-39.6c0.3,0,0.6-0.1,0.8-0.1c5.4,0,10.9,0,16.3,0c0.6,0,0.9,0.1,1.1,0.8c1.4,5.7,2.9,11.3,4.4,17
	c0,0.2,0.1,0.4,0.2,0.5C107.6,101.1,107.7,101.1,107.8,101.1z"/>
<path style="fill:#FFFFFF;" d="M198.5,122.5c-0.3,0-0.6,0-0.9,0c-5,0-9.9,0-14.9,0c-0.7,0-0.9-0.2-1-0.9c-0.2-1.3-0.5-2.6-0.9-3.9
	c-0.1-0.2-0.4-0.6-0.7-0.6c-2.1,0-4.2,0-6.4,0c-0.4,1.7-0.8,3.5-1.2,5.2c-5.4,0-10.8,0-16.3,0c0.5-1.7,0.9-3.3,1.4-5
	c3.2-11.3,6.4-22.5,9.6-33.8c0.2-0.6,0.4-0.9,1.1-0.9c6,0,11.9,0,17.9,0c0.6,0,0.9,0.1,1,0.8c3.6,12.7,7.2,25.3,10.9,38
	C198.3,121.9,198.4,122.2,198.5,122.5z M176.1,104.8c0.8,0,1.6,0,2.4,0c-0.4-2.7-0.8-5.2-1.1-7.8h-0.1
	C176.9,99.6,176.5,102.2,176.1,104.8z"/>
<path style="fill:#FFFFFF;" d="M231,96.2c-4.6,0-9.2,0-13.7,0c-0.7-1.6-2-2.3-3.8-1.7c-0.4,0.1-0.8,0.5-0.9,0.9
	c-0.2,0.6,0.3,1,0.8,1.1c1.3,0.3,2.5,0.6,3.8,0.9c2.1,0.5,4.3,0.9,6.3,1.6c4.6,1.6,7.7,4.6,8.3,9.6c0.9,7.5-2.5,12.5-9.8,14.3
	c-5.4,1.3-10.7,1.3-16-0.7c-5.8-2.2-9.1-7.3-9-13.4c0-0.1,0-0.2,0.1-0.3c0.2,0,0.5-0.1,0.8-0.1c4.2,0,8.4,0,12.5,0
	c0.5,0,0.8,0.1,1,0.7c0.2,0.9,1,1.5,1.9,1.7c0.8,0.1,1.7,0.1,2.5-0.1c0.4-0.1,1-0.6,1-1s-0.4-1-0.7-1.2c-0.9-0.4-1.9-0.7-2.8-0.9
	c-2.5-0.6-5-0.9-7.4-1.6c-5.2-1.4-7.8-4.7-8.2-10.1c-0.3-3.3,0.2-6.3,2.3-9c2-2.4,4.6-3.8,7.6-4.4c5.4-1.2,10.8-1.2,16,0.9
	C228.8,85.5,231.3,90.6,231,96.2z"/>
<path style="fill:#FFFFFF;" d="M128.8,122.5c0-13.2,0-26.4,0-39.6c10.1,0,20.1,0,30.2,0c0,4.7,0,9.4,0,14.1c-4.6,0-9.2,0-13.9,0
	c0,0.7,0,1.2,0,1.9c4,0,7.9,0,11.8,0c0,4.3,0,8.6,0,12.9c-3.9,0-7.9,0-11.9,0c0,3.6,0,7.1,0,10.7
	C139.6,122.5,134.3,122.5,128.8,122.5z"/>
<path style="fill:#D82D2C;" d="M103.4,62.4c-0.1-1.4-0.2-2.7-0.2-4c0-0.3,0.4-0.6,0.6-0.8c4.8-4,10-7.2,15.9-9.4
	c12.8-4.8,25.8-5,38.8-0.6c7.7,2.6,14.4,6.9,20.3,12.5c0.1,0.1,0.3,0.3,0.4,0.4c0,0,0,0.1,0.1,0.2c-3.9,0-7.8,0-11.8,0
	c0-0.9,0-1.7,0-2.5c0-1.1-0.5-1.6-1.6-1.6c-3.5,0-6.9,0-10.4,0c-1.1,0-1.6,0.5-1.6,1.7c0,3.7,0,7.4,0,11.1c-0.3,0-0.5-0.1-0.8-0.1
	c-0.5,2.4-1.8,4.3-4,5.5c-1.6,0.9-3.3,1.2-5,0.9c-4.1-0.7-6.3-3.7-6.5-8.9c-0.3,0-0.5,0-0.9-0.1c0.3-1.1,0.7-2.1,1-3.2
	c0.4-1.3-0.1-2.1-1.5-2.1c-1.8,0-3.6,0.1-5.4,0.2c-0.9,0-1.7-0.2-2.6-0.2c-1.3,0-2.6,0-3.9,0.1c-1.3,0.2-2.4-0.7-3.7-0.5
	c-1.1,0.1-2.2,0.1-3.2,0.2c-1.3,0.2-2.5,0.7-3.4,1.7C110.5,60.5,107,60.6,103.4,62.4z M145.4,61.2c-3.9,0-7,3-7,6.9s3.1,6.9,6.9,6.9
	c3.9,0,7-3.1,7-6.9C152.3,64.3,149.2,61.2,145.4,61.2z"/>
<path style="fill:#FFFFFF;" d="M268.1,97.6c-2.9,0-5.8,0-8.7,0c0,8.3,0,16.6,0,24.9c-5.5,0-10.9,0-16.4,0c0-8.3,0-16.5,0-24.9
	c-3,0-5.8,0-8.7,0c0-4.9,0-9.8,0-14.7c11.3,0,22.5,0,33.8,0C268.1,87.8,268.1,92.7,268.1,97.6z"/>
<path style="fill:#D72D2B;" d="M232,90.5c-0.4-1.7-0.8-3.4-1.1-5.2c-3.6-20.6-13-38-28.3-52.3c-10.2-9.5-22-16.3-35.3-20.5
	c-7.7-2.4-15.5-3.7-23.6-4c-11.7-0.5-23.2,1.1-34.2,5C88.6,21,72.4,34.2,60.8,53c-5.1,8.4-8.7,17.4-10.9,27
	c-0.2,0.8-0.5,1.1-1.3,1.1c-1.8-0.1-1.6,0-1.2-1.6c8-35.3,35.9-63.3,71.2-71.3c49.1-11.1,95.9,17,111.2,61.9c1.2,3.4,2,6.9,2.9,10.4
	c0.1,0.5-0.1,1.1-0.1,1.7c0,0.4-0.1,0.8-0.1,1.1c0,2.1,0,4.1,0,6.2c0,0.3,0,0.6,0,0.9C232.3,90.4,232.2,90.5,232,90.5z"/>
<path style="fill:#FFFFFF;" d="M63.8,122.5c0-13.2,0-26.4,0-39.6c5.5,0,11.1,0,16.6,0c0,13.2,0,26.4,0,39.6
	C74.9,122.5,69.4,122.5,63.8,122.5z"/>
<path style="fill:#D82D2C;" d="M161.1,73.8c2.2-0.5,0.7-2.6,1.4-4c0.7,0,1.5,0,2.3,0c0.2,0,0.4,0.3,0.4,0.4c0.5,3.2,3.7,4.2,6.7,3.6
	c0.8-0.2,1.7,0.1,2.5,0.1c4.6-0.1,9.2-0.1,13.8-0.2c0.6,0,1,0.2,1.3,0.8c3.4,6.7,5.6,13.7,6.1,21.2c0.2,3.2,0.3,6.4-0.1,9.7
	c-0.2-0.5-0.3-1.1-0.5-1.6c-2-7.1-4.1-14.1-6.1-21.2c-0.4-1.3-0.8-1.6-2.1-1.6c-6.1,0-12.1,0-18.2,0c-0.8,0-1.2-0.2-1.8-0.8
	C165.1,78,163.1,75.9,161.1,73.8z"/>
<path style="fill:#D82D2C;" d="M118.2,74.1c-2,2.2-3.9,4.4-5.9,6.6c-0.2,0.2-0.6,0.3-0.9,0.3c-1.6,0-3.1,0-4.7,0
	c-1.2,0-1.4,0.1-2.2,1.2c-0.5-1.1-1.4-1.2-2.4-1.2c-4.6,0-9.1,0-13.7,0c-0.3,0-0.6,0-1.2,0c1.1-2.5,2.2-4.8,3.2-7c2,0,3.7,0,5.5,0
	s3.6,0,5.5,0c0.6,0,1.2-0.3,1.8-0.4c0.2,0,0.4,0,0.6,0c1.4,0.6,2.9,0.6,4.3,0.2c0.1,0,0.3-0.1,0.4-0.1c1.8,0.7,3.5,0,5.3,0.1h0.1
	c1.2-0.9,2.3-0.1,3.4,0.1C117.7,74,118,74.1,118.2,74.1z"/>
<path style="fill:#FFFFFF;" d="M96.7,63.1c0,0.4,0,0.7,0,1.1c1.5,0,3,0,4.5,0c0,1.1,0,2.1,0,3.2c-1.5,0-3,0-4.5,0c0,0.4,0,0.7,0,1.2
	c1.8,0,3.5,0,5.3,0c0,1.3,0,2.5,0,3.8c-3.4,0-6.9,0-10.4,0c0-4.3,0-8.7,0-13.1c3.3,0,6.7,0,10.1,0c0,1.2,0,2.4,0,3.7
	C100.1,63.1,98.4,63.1,96.7,63.1z"/>
<path style="fill:#FFFFFF;" d="M155.5,58.4c3.4,0,6.8,0,10.3,0c0,1.5,0,3,0,4.5c-1.7,0-3.3,0-5,0c0,0.5,0,0.8,0,1.3
	c1.4,0,2.8,0,4.3,0c0,1.4,0,2.8,0,4.2c-1.4,0-2.8,0-4.3,0c0,1.3,0,2.5,0,3.8c-1.8,0-3.5,0-5.2,0C155.5,67.7,155.5,63.1,155.5,58.4z"
	/>
<path style="fill:#FFFFFF;" d="M177.8,72.3c-1.2,0.1-2.6,0.1-4,0.2c-0.1-0.5-0.1-0.9-0.2-1.1c-1,0.4-1.9,0.9-2.9,1.1
	c-2.5,0.4-4-1-4-3.5c0-1.9,0-3.8,0-5.6c0-0.3,0-0.6,0-0.9c1.6,0,3.1,0,4.8,0c0,1.2,0,2.3,0,3.4c0,0.6,0,1.2,0,1.8
	c0,0.5,0,1.1,0.7,1.1c0.8,0,0.8-0.6,0.8-1.1c0-0.9,0-1.8,0-2.6c0-0.8,0-1.6,0-2.5c1.6,0,3.1,0,4.8,0C177.8,65.7,177.8,69,177.8,72.3
	z"/>
<path style="fill:#FFFFFF;" d="M179.3,62.5c1.4,0,2.7,0,4.1,0c0,0.4,0.1,0.8,0.1,1.3c0.1-0.1,0.3-0.1,0.3-0.2
	c1.1-1.4,2.9-1.9,4.6-1.2c1,0.4,1.8,1.2,1.8,2.3c0.1,2.5,0,5,0,7.5c-1.6,0-3.1,0-4.7,0c0-1.3,0-2.5,0-3.8c0-0.6,0.1-1.1,0-1.7
	c-0.1-0.3-0.4-0.7-0.7-0.8c-0.5-0.1-0.8,0.3-0.8,0.8c0,1.5,0,3,0,4.5c0,0.3,0,0.6,0,0.9c-1.6,0-3.1,0-4.7,0
	C179.3,69,179.3,65.7,179.3,62.5z"/>
<path style="fill:#FFFFFF;" d="M125,63.1c1.6,0,3.1,0,4.7,0c0.3,1.8,0.6,3.6,0.9,5.3c0.1,0,0.2,0,0.3,0c0.3-1.8,0.5-3.5,0.8-5.3
	c1.5,0,2.9,0,4.5,0c-0.2,0.7-0.4,1.4-0.6,2.1c-0.6,1.8-1.2,3.7-1.8,5.5c-0.6,2-1.9,3.2-4,3.5c-1.2,0.2-2.4,0.2-3.6,0.4
	c-0.2-1.1-0.4-2.2-0.6-3.2c0.2,0,0.3-0.1,0.4-0.1c1.7-0.3,1.9-0.4,1.2-2.2C126.4,67.2,125.7,65.3,125,63.1z"/>
<path style="fill:#FFFFFF;" d="M124.4,65.5c-1,0-1.9,0-2.8,0c-0.2,0-0.5-0.2-0.7-0.3c-0.4-0.1-0.8-0.3-1.2-0.3
	c-0.2,0-0.5,0.3-0.7,0.5c0.2,0.2,0.3,0.6,0.6,0.7c0.9,0.3,1.9,0.6,2.8,0.9c1.3,0.4,2.1,1.3,2.2,2.7c0.1,1-0.4,1.9-1.3,2.3
	c-2.4,0.9-4.8,1-7.2,0c-0.9-0.4-1.4-1.1-1.5-2.3c1.3,0.3,2.6-0.5,3.8,0.5c0.1,0.1,0.4,0.2,0.6,0.2c0.4-0.1,0.8-0.3,1.1-0.4
	c-0.2-0.3-0.4-0.7-0.7-0.9c-0.7-0.3-1.6-0.5-2.3-0.8c-1.1-0.4-2.1-0.9-2.3-2.3c-0.2-1.1,0.2-2.1,1.3-2.6c2.3-1.1,4.7-1.1,7-0.1
	C123.8,63.6,124.3,64.4,124.4,65.5z"/>
<path style="fill:#FFFFFF;" d="M148.4,71.5c-1.1,0.1-1.9,0.2-2.7,0.3c-0.6,0-1.2,0.1-1.8,0c-0.8-0.1-1.4-0.5-1.6-1.3
	c-0.2-0.8,0-1.5,0.6-2.1c0.2-0.1,0.3-0.3,0.5-0.4c-0.5-1.9-0.4-2.6,0.6-3.1s2.4-0.2,3,0.6c0.6,0.9,0.3,1.6-1.2,3
	c0.3,0.2,0.6,0.4,0.9,0.6c0.3-1,1.1-0.8,1.7-0.7C148.4,69.5,148.4,70.6,148.4,71.5z"/>
<path style="fill:#FFFFFF;" d="M113.3,66.3c0-1.6-0.8-2.7-2.3-3.2c-1.7-0.6-3.4-0.6-5.1-0.1c-1.4,0.4-2.3,1.3-2.5,3
	c1.6-0.3,3.1,0.4,4.5-0.6c0.1-0.1,0.4-0.1,0.6,0c0.3,0.1,0.5,0.4,0.8,0.6c-0.2,0.2-0.4,0.5-0.7,0.6c-0.4,0.1-0.8,0.1-1.2,0.2
	c-0.9,0.2-1.8,0.3-2.6,0.6c-1.2,0.5-1.8,1.9-1.5,3.3c0.2,1.1,0.9,1.6,2.3,1.8c1.5,0.2,2.8,0,3.8-1.2c0.2,0.5,0.4,1.2,0.6,1.2
	c1.2,0,2.4-0.1,3.4-0.2C113.3,70.3,113.3,68.3,113.3,66.3z M106.9,70.6c-2.4-0.7,0-2.4,0-2.4l2.6-0.1
	C109.4,68.1,109.2,71.3,106.9,70.6z"/>
</svg>
