<?xml version="1.0" encoding="utf-8"?>
<!-- Generator: Adobe Illustrator 26.1.0, SVG Export Plug-In . SVG Version: 6.00 Build 0)  -->
<svg version="1.1" id="Layer_1" xmlns="http://www.w3.org/2000/svg" xmlns:xlink="http://www.w3.org/1999/xlink" x="0px" y="0px"
	 viewBox="0 0 1056.6 202" style="enable-background:new 0 0 1056.6 202;" xml:space="preserve">
<g id="Livello_1_1_">
</g>
<g id="Layer_1_00000121280000816817959920000000882230360127541942_">
</g>
<path style="fill:#FFFFFF;" d="M562.3,159.4c-2,2.4-4,5-6.2,7.3c-6,6.7-13.7,9.1-22.4,9.1c-25.9,0-51.8-0.2-77.7-0.2
	c-11.6,0-23.2,0.9-34.7,0.7c-5.4-0.1-10.8-0.4-16.3,0.1c-6,0.6-12,0.2-18.1,0.3c-54.3,0.3-108.6,0.6-162.8,1c-6,0-12,0.2-18,0.3
	c-45.6,0.4-91.2,0.7-136.8,1.1c-5.9,0-11.8,0-17.7-0.1c-14.3-0.2-25.5-12.5-25.7-25.6c-0.4-27.8-1.3-55.5-0.7-83.3
	c0.2-9.6,0.4-19.1,3.9-28.9C33,29.9,40.3,25.7,50.1,25c15.2-1.1,30.6-0.8,45.9-0.5c8,0.1,16-0.2,24.1-0.3c13.9-0.2,27.9,0,41.8-0.2
	c27.5-0.2,54.9-0.5,82.4-0.8c73.9-0.6,147.9-1.2,221.8-1.7c21.5-0.2,43-0.4,64.5-0.4c3.1,0,6.1,1.8,9.2,2.3c1.4,0.2,3.3-1.3,4.4-0.8
	c3,1.3,6,2.9,8.5,5c8.9,7.3,11,15.3,7.3,24.2c1.1,2.4,2.4,3.9,2.4,5.5c0.5,32,0.9,64,1.2,96C563.2,155.4,562.8,157.4,562.3,159.4z
	 M551.5,143.4c-3.5-26.1-1.4-53.1-2.1-79.9c0.6-0.2,1.1-0.3,1.7-0.5c0.8,1.4,1.5,2.8,2.3,4.2c0.7-1,2-2.7,1.9-2.8
	c-1.6-1.4-3.5-2.6-6.3-4.6c2.3-1.1,4.9-2.4,7.5-3.7c-7.2,0.2-6.7-4.7-6.8-8.6c0-4.9-7.3-12.6-12.5-12.6c-15.5,0-31,0-46.5,0.1
	c-31.7,0.3-63.5,0.7-95.2,0.9c-61.3,0.4-122.5,0.6-183.8,1c-46.7,0.3-93.3,1-140,1.2c-6.4,0-12.7-1.9-19.1-1.8
	c-7.6,0.2-14.2,7.8-14.2,16.3c0.1,12-0.9,23.9,0.1,35.9c0.6,7.8,0.2,15.8,0.3,23.7c0.1,8.7,0.3,17.5,0.4,26.2
	c0.1,7.6,0,15.2-0.1,20.7c3.7,2.9,6.5,5.1,8.9,6.9c2.1-0.2,4.2-0.5,6.3-0.5c13.8-0.1,27.6-0.1,41.4-0.2c33.1-0.2,66.1-0.5,99.2-0.8
	c51-0.4,102-0.8,153-1.2c13.9-0.1,27.8-0.3,41.6-0.4c48.3-0.3,96.6-0.5,145-0.8c6.6,0,13.2-3.8,14.8-9.6c0.9-3.1,0.4-6.6,0.6-10.3
	C551.4,143.3,552.1,143.9,551.5,143.4z"/>
<path style="fill:#FFFFFF;" d="M445.3,140.8c-6,0.2-10.4,0.7-14.6,0.2c-1.8-0.2-3.8-2.2-4.8-3.9c-12.9-21.5-25.6-43.2-38.6-64.6
	c-1.6-2.6-4.6-4.4-6.8-6.8c-1-1.1-2.8-3-2.4-3.6c0.7-1.4,2.5-2.9,3.9-3c9.1-0.4,18.2-0.5,27.3-0.3c1.4,0,3.2,1.7,4,3.1
	c9.8,16.4,20.6,32.3,28.6,49.6C445.9,119.7,444.4,130.6,445.3,140.8z"/>
<path style="fill:#FFFFFF;" d="M177.4,60.5c0.3,23.6,0.6,46.2,0.9,68.8c0,3.2-0.3,6.2,3.8,7.4c1,0.3,2.3,2.5,2,3.2
	c-0.5,1.2-2.2,2.8-3.4,2.8c-10.6,0.3-21.1,0.3-31.7,0.2c-1.2,0-2.7-1.1-3.3-2.2c-0.4-0.7,0.3-3,0.9-3.2c7.2-2,4.9-8.4,4.9-12.6
	c0.3-17-0.3-33.9-1-50.9c-0.1-2.5-2.5-4.9-3.8-7.4c-0.6-1.2-2.1-2.8-1.8-3.4c0.7-1.2,2.3-2.6,3.6-2.6
	C158,60.5,167.4,60.5,177.4,60.5z"/>
<path style="fill:#FFFFFF;" d="M338.7,141.8c-9.8,0.1-18.7,0.3-27.6,0.1c-1.8,0-3.5-1.4-5.2-2.2c1.1-1.5,2.4-2.9,3.2-4.6
	c1-1.9,2.4-3.9,2.4-5.9c0-19-0.2-38.1-0.6-57.1c0-1.9-1.4-3.9-2.4-5.7c-0.9-1.6-2.2-2.9-3.4-4.4c1.9-0.8,3.9-2.4,5.8-2.4
	c8.7-0.3,17.4-0.2,27-0.2C338.2,86.6,338.5,113.8,338.7,141.8z"/>
<path style="fill:#FFFFFF;" d="M101.8,145c-11.1,0.4-19.8-0.8-27.9-6.3c-5.6-3.9-7.8-8.6-7.7-15.2c0.1-13.9,0-27.8-0.2-41.7
	c-0.1-6.4,1.6-13.6-6.7-16.8c5-5.1,10.5-5.2,13.5-1.2c1.9-0.9,3.6-2.5,5.5-2.6c5.4-0.4,10.8-0.3,16.2-0.1c1.4,0.1,2.7,1.3,4,2.1
	c-0.8,1.4-1.8,2.8-2.5,4.3c-1.2,2.2-3.2,4.4-3.2,6.6c0,17.4,0.4,34.9,0.5,52.3c0,4.8,1.1,8.8,5.4,11.8
	C100.3,139.2,100.6,142.1,101.8,145z"/>
<path style="fill:#FFFFFF;" d="M505.9,58.3c3.3,14.9,2.7,71.6,0.1,74.9c2.6,1.3,7.8,2.9,7.7,4c-0.5,5.2-5.3,3.1-8.4,3.2
	c-7.2,0.3-14.5,0.4-21.8,0.1c-2.8-0.1-5.5-1.5-8.3-2.3c1.9-2.1,3.7-4.2,6-6.8c-0.2-23.6-0.5-48.1-0.7-73.2
	C489.1,58.2,497.3,58.2,505.9,58.3z"/>
<path style="fill:#FFFFFF;" d="M183.6,59.7c3,0.9,5.9,1.8,9.5,2.9c2.6-4.2,7.1-0.7,11,0.5c5.6,1.7,12.5,11.8,12.1,18.9
	c-0.7,11.6-7.5,17.2-16.8,19.3c4.9,3.2,11.9,5.6,14.8,10.4c3.1,5.1,2.2,12.6,3.2,19.5c0.9-0.6,1.6-1.4,2.5-1.7
	c1.4-0.4,3.5-1.2,4.1-0.6c0.9,0.9,1.3,3,0.9,4.3c-2.1,7-11,11.8-19.7,11c-8.7-0.8-13.9-5.7-14.8-14.1c-0.5-4.5,0.3-9.1-0.6-13.5
	c-0.7-3.5-2.7-6.9-4.9-9.9c-2.3-3-2.9-5,0.6-7.5c1.8-1.3,3.7-3.7,3.8-5.8c0.5-6.6,0.3-13.2-0.1-19.9c-0.1-1.8-1.9-3.5-3-5.2
	c-1.4-2.2-3-4.4-4.4-6.6C182.4,61.2,183,60.5,183.6,59.7z"/>
<path style="fill:#FFFFFF;" d="M261.2,143.3c-17.3,1.2-32.8-16.2-34.5-37.9c-2-25.2,12-45.3,33.6-47.2c-0.3,2.3,0.1,5.3-1.1,6.3
	c-4.4,3.9-4.1,8.7-4.1,13.7c0.1,15.9-0.1,31.8,0.5,47.7c0.1,3.8,2.7,7.4,4,11.2C260.2,139.2,260.6,141.2,261.2,143.3z"/>
<path style="fill:#FFFFFF;" d="M265.7,145.6c0.4-4-0.2-6.6,0.8-7.5c8.8-8.2,2.6-18.5,4-27.6c0.2-1-2.7-2.3-4.1-3.6
	c-1.1-1-1.9-2.3-2.9-3.4c1.2-0.9,2.4-2.6,3.6-2.6c9.1-0.3,18.2-0.5,27.3-0.3c1.1,0,3.1,4.2,2.9,4.4c-6.2,5.4-3.4,12.7-3.1,18.8
	c0.4,7.2-1.9,11.6-8.1,14.1C280,140.5,273.6,142.6,265.7,145.6z"/>
<path style="fill:#FFFFFF;" d="M106.5,144.7c-1.3-3.5-1.1-6.2,3.1-7.8c7-2.6,10.5-8.4,10.6-15.5c0.3-14.6,0.3-29.2-0.5-43.8
	c-0.2-3.6-3.9-7-6-10.5c-0.8-1.3-2.3-3-1.9-3.8c0.5-1.1,2.4-2.2,3.8-2.3c5.2-0.3,10.4-0.3,15.5,0c1.3,0.1,2.9,1.4,3.6,2.5
	c0.3,0.5-0.9,2.6-2,3.2c-5,3.1-6.5,7.5-6.4,13.1c0.3,12.8,0.4,25.6,0.4,38.5C126.8,133,119.2,142.7,106.5,144.7z"/>
<path style="fill:#FFFFFF;" d="M386.3,81.6c5.5,5.1,7.3,11.1,6.8,18.1c-0.5,6.8,0,13.7,0.1,20.5c0.1,6.2,0.7,12.1,7.1,15.4
	c0.8,0.4,1.8,2.3,1.5,2.9c-0.5,1.1-1.9,2.5-3,2.6c-5.8,0.3-11.6,0.4-17.4,0.2c-1,0-2.4-1.5-2.9-2.7c-0.3-0.7,0.7-2.5,1.5-2.9
	c6.1-3.3,6.7-8.8,6.8-14.9c0.2-11.2,0.7-22.5,0.9-33.7C387.8,85.3,386.8,83.5,386.3,81.6z"/>
<path style="fill:#FFFFFF;" d="M265.5,64c0-1.8-0.1-3.6-0.2-6.5c4.2,0.9,7.8,1.7,11.3,2.6c4.3,1.1,8.1,3,12.4-1.3
	c2.8-2.8,4.5,0.6,4.5,3.8c0.1,7.2,0.4,14.5,0.1,21.7c-0.1,1.9-1.7,3.8-2.7,5.7c-1.6-1.4-3.7-2.6-4.6-4.3c-2-3.6-2.5-8.3-5.1-11.1
	c-4.1-4.5-9.5-7.9-14.3-11.8C266.5,63.1,266,63.5,265.5,64z"/>
<path style="fill:#FFFFFF;" d="M444.1,103.9c-6.1-6.2-6.6-13.6-6.4-21.1c0.2-7.3,0.5-14.5-7.7-18.8c-3.2-1.7-1.3-4.9,1.6-5.2
	c6-0.6,12-0.4,18-0.2c1.1,0,2.7,1.5,2.9,2.5c0.2,1-0.9,2.9-1.9,3.4c-5.8,3-6.5,8.2-6.6,13.8C444,86.6,444.1,95,444.1,103.9z"/>
<path style="fill:#FFFFFF;" d="M369.2,141.5c-8.8,0.1-16.8,0.1-25.1,0.2c-0.1-2.2-0.2-4-0.3-6.2c9.7-1.7,15.5-7.5,18.9-16.2
	c0.6-1.4,2.5-2.3,3.8-3.4c0.8,1.5,2.4,2.9,2.4,4.4C369.2,127.1,369.1,133.9,369.2,141.5z"/>
<path style="fill:#FFFFFF;" d="M343.3,65.3c0-2.1,0-3.8,0-6c8.1-0.1,15.9-0.2,24.4-0.3c0,7.4,0.2,14.3,0,21.3c0,1.2-1.6,2.4-2.5,3.7
	c-1.2-0.9-3.1-1.6-3.5-2.7C358.6,72.4,352.6,67.1,343.3,65.3z"/>
<path style="fill:#FFFFFF;" d="M475.9,58.1c-0.7,3.2-0.9,5.4-1.7,7.4c-2.2,5.6-4.6,11.3-7.2,16.7c-0.9,1.9-2.9,3.2-4.4,4.8
	c-1-1.8-2.7-3.5-2.8-5.4c-0.4-7.4-0.2-14.8-0.3-23C464.5,58.4,469.5,58.3,475.9,58.1z"/>
<path style="fill:#FFFFFF;" d="M357.7,113.7c-0.7,0.6-1.6,2.3-2.6,2.3c-1,0-2.4-1.2-3.2-2.3c-2.6-3.5-5.5-7-7.3-10.9
	c-0.9-1.9-0.5-5.1,0.5-7.1c1.6-3.4,4-6.5,6.2-9.6c0.9-1.2,2.1-2.5,3.4-3c0.5-0.2,2.6,1.6,2.6,2.6
	C357.6,94.7,357.6,103.9,357.7,113.7z"/>
<path style="fill:#FFFFFF;" d="M514,61.6c1.4-0.6,4.2-1.7,6.9-2.9c5.7-2.4,7.1,1.6,7.5,5.5c0.6,5.7,0.4,11.5,0.1,17.3
	c-0.1,1.7-1.7,3.3-2.6,5c-1.5-1.3-3.8-2.4-4.5-4.1C518.8,76,516.6,69.3,514,61.6z"/>
<path style="fill:#FFFFFF;" d="M611.3,146c-2.7-2.1-5.6-4.1-8-6.4c-9.4-9-14.3-19.2-14.8-32.9c-0.4-10.5,1.1-19.5,5.8-28.3
	c5.4-10,13.9-16.2,27.6-17.7c-1.4,3.4-2.5,5.9-3.4,8.5c-0.9,2.6-2.3,5.2-2.3,7.8c-0.1,14.6,0.3,29.3,0,43.9
	c-0.2,7.1-0.5,13.8,4.9,19.7c2.1,2.3,2.1,6-2.4,7.1C616.2,147.1,613.8,146.5,611.3,146z"/>
<path style="fill:#FFFFFF;" d="M715,61.8c1.8,9.2,3.1,18.1,5.3,26.9c3.8,15.3,8,30.6,12.3,45.8c0.4,1.5,2.5,2.5,3.6,4
	c0.8,1,1.9,2.6,1.6,3.5c-0.3,1-2.1,2.1-3.3,2.2c-10.4,0.2-20.8,0.3-31.1,0.2c-2.8,0-5.9-2.5-3.1-4.6c7.3-5.4,1.7-10.7,1.3-16.6
	c-5.3,0-10.4-0.1-15.8-0.1c0.6-11,9.4-4,14.2-7.3c-1.7-7.3-3.5-15.1-5.3-22.9c-1.8-7.5-3.7-14.9-5.3-22.4c-1.5-6.8,0.1-8.6,7-8.6
	C702.3,61.8,708.1,61.8,715,61.8z"/>
<path style="fill:#FFFFFF;" d="M945.2,144.3c-1.8-4.1-0.6-6.1,3.1-8.1c8-4,8.3-11.8,0.7-16.5c-4.7-2.9-10.2-4.6-15.1-7.2
	c-9.1-4.8-17.6-10-19.7-21.5c-3.2-17.1,9.4-32.4,29.2-32c-2,3.1-3,5.8-4.9,7.4c-6.1,5.1-5.8,12.2,1.2,16.2c4.5,2.6,9.1,4.9,13.9,6.9
	c16.4,7.1,22.9,16.4,20.9,30.3C972.5,133.4,961.9,142.3,945.2,144.3z"/>
<path style="fill:#FFFFFF;" d="M798.9,61.1c9.7-0.1,19-0.3,28.3-0.1c1.4,0,3,1.6,4.1,2.9c0.2,0.3-1.3,2.1-2,3.2
	c-1.4,2.4-3.7,4.9-3.8,7.4c-0.3,11.8,0.7,23.7-0.1,35.4c-0.4,6.2,0.7,12.1,0.5,18.2c-0.1,3.9-0.7,8.1,4.6,9.6
	c0.7,0.2,1.7,2.3,1.4,2.9c-0.5,1.1-2,2.5-3.1,2.6c-10.8,0.3-21.6,0.4-32.4,0.3c-1.1,0-2.8-1.3-3.2-2.4c-0.3-0.9,0.7-3.1,1.5-3.4
	c4.5-1.6,4.1-5.2,4.1-8.7c-0.1-14.5-1-29.1-0.1-43.5C799.4,77.6,797.2,69.7,798.9,61.1z"/>
<path style="fill:#FFFFFF;" d="M873.4,60.6c0.2,18.8,0.4,37.5,0.6,56.2c0,4.1,0.1,8.3,0,12.4c0,3,1.5,6.8-3.8,7.7
	c-0.9,0.2-1.2,3.9-1.8,6.3c-7.3,0.1-14.9,0.3-22.6,0.1c-1.5,0-3-1.5-4.5-2.3c0.9-1.4,1.8-2.7,2.6-4.1c1.1-2,3-4,3-6
	c0.1-19.1-0.1-38.1-0.5-57.2c0-2-1.8-4.1-2.9-6c-0.8-1.5-2-2.7-3-4.1c1.7-0.9,3.3-2.5,5-2.6C854.6,60.6,863.7,60.7,873.4,60.6z"/>
<path style="fill:#FFFFFF;" d="M777.8,145.1c-1.7-4.3-3.2-7.6-4.4-10.9c-3.3-9.2-6.6-18.4-9.6-27.6c-0.6-1.9,0-4.3,0.1-6.7
	c-1-1-3-2.2-3.7-4c-2.5-6.4-4.5-12.9-6.9-19.3c-1.5-4-2.2-8.6-7.9-9.3c-0.8-0.1-2.1-2.2-1.8-2.6c0.7-1.3,2.1-3,3.2-3
	c9.1-0.3,18.1-0.5,27.2-0.2c1.2,0,2.9,2.6,3.5,4.3c3.5,9.3,6.7,18.6,11.3,28c1-4.5,2-9,3.4-15.2C795,91.3,785.7,133.5,777.8,145.1z"
	/>
<path style="fill:#FFFFFF;" d="M626.1,146.6c1.4-3.1,2.5-5.3,3.4-7.6c1-2.4,2.3-4.9,2.5-7.4c0.3-4.5-0.1-9.1-0.1-13.7
	c0-3.9,0.8-8.1-5.1-8.7c-0.8-0.1-2.2-2.3-2-3.3c0.1-1,1.9-2.5,3-2.5c9.5-0.3,19.1-0.5,28.6-0.2c0.8,0,2.4,4.1,2,4.5
	c-4.6,4-2.7,9.2-3.1,13.9c-0.4,4.8,0.7,11.5-2,13.9c-5.3,4.7-12.7,7.2-19.4,10.3C632,146.5,629.8,146.2,626.1,146.6z"/>
<path style="fill:#FFFFFF;" d="M687.9,79.4c0,5.3,0.8,10.9-0.2,16c-2.1,10.4-5.3,20.5-8,30.8c-1.4,5.1-2.4,9.9,4.2,12.4
	c1,0.4,2.2,2.3,2,3.4c-0.1,0.9-1.9,2.2-3,2.3c-5.8,0.3-11.6,0.4-17.4,0.1c-1.2-0.1-2.8-1.6-3.4-2.8c-0.3-0.5,1.2-2.6,2.2-3.1
	c5.9-2.6,7.9-7.8,9.2-13.3c3.6-15.3,7-30.7,10.4-46.1C685.2,79.2,686.5,79.3,687.9,79.4z"/>
<path style="fill:#FFFFFF;" d="M654.9,90c-0.9,0.7-2.1,2.3-3.2,2.3c-1.3-0.1-3-1.3-3.7-2.5c-1.3-2.6-1.9-5.5-3-8.1
	c-3-7-7.7-12.1-15.3-14.4c-1.4-0.4-2.2-2.6-3.3-3.9c1.4-0.7,2.9-2.1,4.3-2.1c2.9,0.1,5.8,0.8,8.5,1.7c3.8,1.2,7.5,2.6,10.7-1.5
	c0.2-0.3,4.4,1.4,4.4,2.2C654.8,72.2,654.8,80.7,654.9,90z"/>
<path style="fill:#FFFFFF;" d="M753,91.1c5.5,10.2,6.8,20,6.5,30.2c-0.2,6.7,0.3,13.2,7.3,17.2c3.2,1.9,1.8,4.7-1.4,5
	c-5.7,0.5-11.6,0.4-17.4,0.2c-1.1,0-2.9-1.3-3.2-2.3c-0.3-0.9,0.9-2.7,1.8-3.3c6-3.5,6.4-9.3,6.5-15.2
	C753.2,112.8,753.1,102.6,753,91.1z"/>
<path style="fill:#FFFFFF;" d="M938.4,144.1c-3.4-0.8-6.8-1.9-10.2-2.2c-2.7-0.3-6-0.4-8.2,0.9c-3.8,2.1-5.3,0.7-5.4-2.6
	c-0.4-7.8-0.4-15.7-0.2-23.6c0-1.3,2.1-3.5,3.3-3.5c1.3,0,3.1,1.7,3.8,3.2c2.2,4.4,3.6,9.3,6.2,13.4c1.8,2.8,5.2,4.5,7.7,6.9
	c1.8,1.8,3.3,3.8,5,5.8C939.7,143,939.1,143.6,938.4,144.1z"/>
<path style="fill:#FFFFFF;" d="M904.6,142.8c-8.5,0.1-16.5,0.3-24.6,0.4c-0.9-3.3-1.9-5.9,2.4-7.1c7.5-2.1,12.2-7.3,15.3-14.4
	c0.8-1.8,2.9-2.9,4.4-4.4c0.8,1.9,2.1,3.8,2.2,5.8C904.6,129.4,904.5,135.8,904.6,142.8z"/>
<path style="fill:#FFFFFF;" d="M946.2,57.9c4.2,1,7.1,1.4,9.8,2.2c3.8,1.2,7.6,4.5,10.7-0.9c1.5,1,4.3,2,4.4,3.1
	c0.4,7,0.4,14.1,0.1,21.1c0,1.2-1.9,3.5-2.6,3.4c-1.5-0.2-3.8-1.5-4.1-2.7c-2.2-9.1-7-15.7-15.8-19.5
	C947.4,64.1,947.2,61,946.2,57.9z"/>
<path style="fill:#FFFFFF;" d="M902.9,60.3c0.2,7.5,0.4,14.6,0.3,21.7c0,1.1-1.6,2.7-2.9,3.2c-0.7,0.3-2.7-1.1-3.1-2.2
	c-2.9-8.2-8-13.8-16.7-16c-1.2-0.3-1.8-3.4-3-6.1C886.7,60.7,894.5,60.5,902.9,60.3z"/>
<path style="fill:#FFFFFF;" d="M893.1,115c-0.7,0.6-1.7,2.2-2.7,2.2c-1,0-2.4-1.2-3.2-2.2c-2.6-3.5-5.5-7-7.4-11
	c-0.9-1.8-0.6-4.9,0.3-6.8c1.8-3.8,4.4-7.1,6.9-10.6c0.8-1.1,2.1-2.4,3.1-2.4c0.9,0,2.5,1.7,2.6,2.7C893,96.1,893,105.2,893.1,115z"
	/>
</svg>
