<?xml version="1.0" encoding="utf-8"?>
<!-- Generator: Adobe Illustrator 26.1.0, SVG Export Plug-In . SVG Version: 6.00 Build 0)  -->
<svg version="1.1" id="Layer_1" xmlns="http://www.w3.org/2000/svg" xmlns:xlink="http://www.w3.org/1999/xlink" x="0px" y="0px"
	 viewBox="0 0 1056.6 202" style="enable-background:new 0 0 1056.6 202;" xml:space="preserve">
<g id="Livello_1_1_">
</g>
<g id="Layer_1_00000121280000816817959920000000882230360127541942_">
</g>
<g>
	<path style="fill:#FFFFFF;" d="M268.9,71.2h17L282,89.4h9.2l3.9-18.2h17l-10.7,50h-17l3.9-18.2h-9.2l-3.9,18.2h-16.9L268.9,71.2z"
		/>
	<path style="fill:#FFFFFF;" d="M310.2,113c0-2.6,0.3-6,1.2-10.2c3.1-15.1,7-19.2,14.4-19.2c4,0,7.7,0.5,9.6,4.2h0.7l1.2-3.7h15.1
		l-7.8,37.1h-15l0.7-4.1h-0.8c-2.6,3.9-6,4.7-9.3,4.7C313.4,121.8,310.2,119.8,310.2,113z M331.6,108c0.7-2,2.3-9,2.3-10.8
		c0-1.5-0.5-1.6-2.4-1.6c-3,0-3.1,0.1-4.6,7.1c-0.7,2.9-0.9,4.6-0.9,5.7c0,1.4,0.7,1.5,2.5,1.5C330.5,109.8,331.1,109.7,331.6,108z"
		/>
	<path style="fill:#FFFFFF;" d="M352.2,110.9l17.2-15.8h-12.9l2.3-10.9h32.9l-2.2,10.3l-17.2,15.8h14l-2.3,10.9h-33.9L352.2,110.9z"
		/>
	<path style="fill:#FFFFFF;" d="M397.9,84.2h15.8l-7.8,37.1h-15.8L397.9,84.2z M401.5,67.2h15.8l-2.3,11h-15.8L401.5,67.2z"/>
	<path style="fill:#FFFFFF;" d="M420.2,84.2h15l-0.6,4.1h0.7c3.1-3.9,7.2-4.7,10-4.7c7,0,9,2.5,9,7.6c0,2-0.6,5.6-1.3,9.1l-4.5,21
		h-15.5l3.9-18.6c0.5-2.3,0.9-4.6,0.9-5.5c0-1.4-0.5-1.5-1.7-1.5c-2.8,0-3,0.4-4.2,6l-4.2,19.6h-15.5L420.2,84.2z"/>
	<path style="fill:#FFFFFF;" d="M456.7,112.6c0-2.7,0.3-5.9,1.1-9.8c2.8-13.7,4.2-19.2,20.9-19.2c13.1,0,16.5,2.1,16.5,8
		c0,2.8-1.1,7.6-1.9,11.2l-0.7,2.8h-20.2c-0.1,0.7-0.5,2.4-0.5,3c0,2.3,0.6,2.3,8.1,2.3c2.5,0,7.1-0.2,11.3-0.5l-2.1,10
		c-2.9,0.9-8.6,1.5-13.7,1.5C460.9,121.8,456.7,119,456.7,112.6z M480,99.4l0.2-1.2c0.3-1.7,0.5-2.5,0.5-3.3c0-1.5-0.7-1.5-2.6-1.5
		c-3.1,0-3.1,0.1-4.4,6H480z"/>
	<path style="fill:#FFFFFF;" d="M517.2,110.6c0-3.7,1.2-8.6,2.4-15.1c3.9-20.2,5.3-24.9,26.2-24.9c15.5,0,20.1,2.9,20.1,11.3
		c0,3.8-0.9,8.6-2.3,15c-4.7,20.3-5.4,24.9-26,24.9C521.9,121.8,517.2,118.9,517.2,110.6z M546.7,96.2c1.2-5.5,1.8-8.9,1.8-10.8
		c0-2.6-1.2-2.7-4.1-2.7c-5.1,0-5.2,0.3-7.9,13.4c-1.2,5.7-2,9-2,10.9c0,2.5,1.2,2.5,4.1,2.5C543.7,109.7,543.9,109.4,546.7,96.2z"
		/>
	<path style="fill:#FFFFFF;" d="M565.3,135.1l2-9.8h9.6c8,0,8.2,0,9.4-5.6c0.3-1.2,0.5-2.5,0.8-3.8h-0.7c-3.1,3.9-6.8,4.7-9.5,4.7
		c-7.2,0-9.4-2.8-9.4-7.8c0-1.9,0.3-4.1,0.9-6.6l4.7-22h15.6l-3.9,18.4c-0.5,2.4-0.8,3.9-0.8,4.7c0,1.3,0.6,1.3,2,1.3
		c2.5,0,2.7-0.1,4-6l3.9-18.4h15.6l-7,33.1c-2.6,12.4-3.6,19-23.8,19C573.7,136.2,568.2,135.8,565.3,135.1z"/>
	<path style="fill:#FFFFFF;" d="M610.1,114c0-2,0.7-5.6,1.4-9.1l4.4-20.7h15.5l-3.9,18.6c-0.5,2.3-0.9,4.6-0.9,5.5
		c0,1.4,0.5,1.5,1.7,1.5c2.8,0,3-0.4,4.2-6l4.2-19.6h15.5l-7.8,37.1h-15l0.6-4.1h-0.7c-3.1,3.9-7.2,4.7-10,4.7
		C612,121.8,610.1,119.2,610.1,114z"/>
	<path style="fill:#FFFFFF;" d="M658.7,84.2h15l-0.6,4.1h0.7c3.1-3.9,7.2-4.7,10-4.7c7,0,9,2.5,9,7.6c0,2-0.6,5.6-1.3,9.1l-4.5,21
		h-15.5l3.9-18.6c0.5-2.3,0.9-4.6,0.9-5.5c0-1.4-0.5-1.5-1.7-1.5c-2.8,0-3,0.4-4.2,6l-4.2,19.6h-15.5L658.7,84.2z"/>
	<path style="fill:#FFFFFF;" d="M705,67.2h15.8l-11.4,54h-15.8L705,67.2z"/>
	<path style="fill:#FFFFFF;" d="M717.4,113c0-2.6,0.3-6,1.2-10.2c3.1-15.1,7-19.2,14.4-19.2c4,0,7.7,0.5,9.6,4.2h0.7l1.2-3.7h15.1
		l-7.8,37.1h-15l0.7-4.1h-0.8c-2.6,3.9-6,4.7-9.3,4.7C720.6,121.8,717.4,119.8,717.4,113z M738.9,108c0.7-2,2.3-9,2.3-10.8
		c0-1.5-0.5-1.6-2.4-1.6c-3,0-3.1,0.1-4.6,7.1c-0.7,2.9-0.9,4.6-0.9,5.7c0,1.4,0.7,1.5,2.5,1.5C737.8,109.8,738.3,109.7,738.9,108z"
		/>
	<path style="fill:#FFFFFF;" d="M766.1,84.2h15l-1,6.2h0.7c3.2-5.5,5.9-6.8,12.6-6.8l-2.9,13.5c-9.7,0-12,1.8-14.1,11.7l-2.7,12.4
		h-15.5L766.1,84.2z"/>
	<path style="fill:#FFFFFF;" d="M797.9,84.2h15.8l-7.8,37.1h-15.8L797.9,84.2z"/>
</g>
<path style="fill:#FFFFFF;" d="M135.4,59.3L83.9,33.5L41.5,51.7v108.6L85,141.7l51.5,25.8l42.4-18.2V40.6L135.4,59.3L135.4,59.3z
	 M24.3,40.4l60.1-25.8L136,40.4l54.1-23.2c2.2-0.9,4.7,0.1,5.6,2.3c0.2,0.5,0.3,1.1,0.3,1.7v139.4L136,186.3l-51.5-25.8l-54.1,23.2
	c-2.2,0.9-4.7-0.1-5.6-2.3c-0.2-0.5-0.3-1.1-0.3-1.7L24.3,40.4L24.3,40.4z M58.7,91.9h17.2v17.2H58.7V91.9z M93,91.9h17.2v17.2H93
	V91.9z M144.5,91.3l10.6-10.6l9.1,9.1l-10.6,10.6l10.6,10.6l-9.1,9.1l-10.6-10.6l-10.6,10.6l-9.1-9.1l10.6-10.6l-10.6-10.6l9.1-9.1
	L144.5,91.3z"/>
</svg>
