<?xml version="1.0" encoding="utf-8"?>
<!-- Generator: Adobe Illustrator 24.1.2, SVG Export Plug-In . SVG Version: 6.00 Build 0)  -->
<svg version="1.1" id="Layer_1" xmlns="http://www.w3.org/2000/svg" xmlns:xlink="http://www.w3.org/1999/xlink" x="0px" y="0px"
	 viewBox="0 0 192 34.7" style="enable-background:new 0 0 192 34.7;" xml:space="preserve">
<style type="text/css">
	.st0{fill:#FFFFFF;}
</style>
<g id="Out_line">
	<path class="st0" d="M33.2,26.6l-5.3-5.3c-0.6-0.6-1.4-0.9-2.1-0.9c-0.2,0-0.4,0-0.6,0.1c-1.3-1.7-2-3.9-2-6c0-4-1.6-8-4.5-10.8
		c-1.7-1.7-4-2.7-6.4-2.7c-5,0-9.1,4-9.1,9.1c0,2.2,0.8,4.3,2.2,6l0.8-0.7C3.3,12.2,3.6,7.1,7,4.2c3.2-2.8,8-2.7,11,0.3
		c2.7,2.7,4.2,6.2,4.2,10c0,2.2-1.3,4.2-3.3,5c-0.3,0.1-0.4,0.4-0.3,0.7v0.1l0.5,0.9c0.1,0.1,0.2,0.2,0.3,0.3
		c1.2,0.3,2.3,0.9,3.3,1.6c-0.1,0.4-0.1,0.9,0,1.3l1-0.3c-0.2-0.7,0.1-1.4,0.5-1.8l0.1-0.1c0.8-0.8,2-0.8,2.7-0.1
		c-0.8,0.1-1.5,0.3-2,0.9L25,23.1c-0.3,0.3-0.4,0.6-0.6,0.9l0.9,0.4c0.1-0.3,0.3-0.4,0.4-0.6l0.1-0.1c0.8-0.8,2.1-0.8,2.8,0l0.4,0.4
		c-0.8,0.1-1.5,0.3-2,0.9l-0.1,0.1c-0.1,0.1-0.2,0.2-0.3,0.3l0.9,0.6c0.1-0.1,0.1-0.2,0.2-0.2l0.1-0.1c0.8-0.8,2-0.8,2.7-0.1
		c-0.8,0.1-1.5,0.3-2,0.9l-0.1,0.1c-1.2,1.2-1.2,3.2,0,4.3l0.1,0.1c1.2,1.2,3.2,1.2,4.3,0l0.1-0.1C34.3,29.8,34.3,27.8,33.2,26.6
		L33.2,26.6z M23.5,21.3L23.5,21.3c-0.3,0.3-0.4,0.4-0.5,0.6c-1-0.7-2.1-1.3-3.3-1.6l-0.1-0.2c1.2-0.6,2.1-1.6,2.7-2.8
		c0.3,1.3,0.9,2.5,1.6,3.5C23.8,21,23.7,21.2,23.5,21.3L23.5,21.3z M32.4,30.2L32.4,30.2c-0.9,0.9-2.1,0.9-2.9,0.1l-0.1-0.1
		c-0.8-0.8-0.8-2.1,0-2.8l0,0l0.1-0.1c0.8-0.8,2.1-0.8,2.8,0l0.1,0.1l0,0C33.2,28.2,33.2,29.5,32.4,30.2L32.4,30.2z"/>
	<path class="st0" d="M7.2,13.5l0.7-0.7l0.9,0.9l-1.2,1.2l0.8,0.8l1.2-1.2l0.7,0.7l0.8-0.8l-0.7-0.7l0.9-0.9l0.9,0.9l-0.7,0.7
		l0.8,0.8l0.7-0.7l0.9,0.9l-0.2,0.2l0.8,0.8l0.2-0.2l0.7,0.7l0.8-0.8l-0.7-0.7l0.9-0.9l0.9,0.9l-0.7,0.7l0.8,0.8l0.7-0.7l1.7,1.7
		l0.8-0.8l-1.7-1.7l0.9-0.9l1.2,1.2l0.8-0.8L20,13.6l0.7-0.7l-0.8-0.8l-1.1,0.7L17.9,12l0.9-0.9l0.7,0.7l0.8-0.8l-0.7-0.7l0.7-0.7
		l-0.8-0.8l-0.7,0.7l-0.9-0.9l0.7-0.7l-0.8-0.8L17.2,8l-0.9-0.9l1.2-1.2l-0.8-0.8l-1.2,1.2l-0.9-0.9l0.7-0.7l-0.6-0.5L14.1,5
		l-0.9-0.9l0.7-0.7l-0.8-0.8l-0.6,0.8l-0.7-0.7l-0.8,0.8l0.7,0.7l-0.9,0.9L9.7,3.9L9,4.6l1.2,1.2L9.3,6.7L8.1,5.5L7.3,6.3l1.2,1.2
		L7.7,8.3L6.5,7.1L5.9,7.7l1.2,1.2L6.2,9.8L5.5,9.1L4.8,9.9l0.7,0.7l-0.6,0.6l0.8,0.8l0.7-0.7l0.9,0.9l-0.7,0.7L7.2,13.5z M9.4,12.9
		L8.5,12l0.9-0.9l0.9,0.9L9.4,12.9z M14.1,11.3l-0.9-0.9l0.9-0.9l0.9,0.9L14.1,11.3z M15.7,11.2l0.9,0.9l-0.9,0.9l-0.9-0.9
		L15.7,11.2z M12.5,9.7l-0.9-0.9L12.5,8l0.9,0.9L12.5,9.7z M11.8,10.5l-0.9,0.9l-0.9-0.9l0.9-0.9L11.8,10.5z M11.7,12l0.9-0.9
		l0.9,0.9l-0.9,0.9L11.7,12z M14.1,14.5l-0.9-0.9l0.9-0.9l0.9,0.9L14.1,14.5z M18.1,13.6l-0.9,0.9l-0.9-0.9l0.9-0.9L18.1,13.6z
		 M18.1,10.5l-0.9,0.9l-0.9-0.9l0.9-0.9L18.1,10.5z M16.5,8.9l-0.9,0.9l-0.9-0.9l0.9-0.9L16.5,8.9z M14.9,7.3l-0.9,0.9l-0.9-0.9
		l0.9-0.9L14.9,7.3z M12.5,4.9l0.9,0.9l-0.9,0.9l-0.9-0.9L12.5,4.9z M11,6.5l0.9,0.9L11,8.2l-0.9-0.9L11,6.5z M9.4,8.1l0.9,0.9
		L9.4,9.8L8.5,8.9L9.4,8.1z M7,10.5l0.9-0.9l0.9,0.9l-0.9,0.9L7,10.5z"/>
	<path class="st0" d="M11.9,22c1.1-0.7,2.4-0.9,3.6-0.5l1.4,0.4c0.3,0.7,0.3,1.4,0.3,2.1h1c0-4.4-3.5-7.9-7.9-7.9s-7.9,3.5-7.9,7.9
		s3.5,7.9,7.9,7.9c1.6,0,3.2-0.5,4.5-1.4l-0.6-0.9c-0.7,0.4-1.4,0.8-2.1,1l-0.8-0.9c-1-1.1-1.5-2.6-1.5-4.1c0-0.8,0.2-1.5,0.5-2.1
		c0.9,0.3,1.7,0.8,2.5,1.2l2,1.2l0.5-0.9L13.5,24c-0.8-0.5-1.5-0.9-2.4-1.2C11.4,22.5,11.7,22.3,11.9,22z M16.4,20.7l-0.5-0.2
		c-1.5-0.4-3.1-0.3-4.5,0.6c-0.5,0.3-1,0.8-1.4,1.3c-0.4-0.2-0.9-0.3-1.4-0.3c1.1-1.8,2.7-3.3,4.5-4.2
		C14.5,18.4,15.6,19.4,16.4,20.7z M11.8,17.4c-1.7,1.1-3.2,2.7-4.2,4.5c-0.4-0.1-0.9-0.1-1.4-0.1c0.3-1.1,0.5-2.2,0.6-3.4
		C8.3,17.4,10.1,17,11.8,17.4z M3.6,24.1c0-0.4,0-0.8,0.1-1.2c0.3-0.1,0.6-0.1,0.9-0.1c-0.3,0.7-0.6,1.4-1,2.1
		C3.6,24.7,3.6,24.3,3.6,24.1z M5.6,19.3c-0.1,0.9-0.3,1.6-0.6,2.5c-0.3,0-0.7,0-1,0.1C4.3,20.9,4.9,20,5.6,19.3z M4,26.4
		c0.8-1.1,1.4-2.3,1.8-3.5c0.4,0,0.8,0,1.2,0.1C6,24.8,5.6,27,5.7,29C4.9,28.3,4.4,27.3,4,26.4z M10.7,30.5l0.3,0.3
		c-0.2,0-0.3,0-0.5,0c-1.3,0-2.6-0.3-3.6-1c-0.3-2.4,0.2-4.7,1.3-6.8c0.4,0.1,0.9,0.2,1.4,0.3C9.2,24.1,9,24.9,9,25.7
		C8.9,27.5,9.6,29.2,10.7,30.5z"/>
	<path class="st0" d="M23,25.2c-0.7,0-1.3,0.2-1.8,0.5c-1.7-1-4-0.4-5,1.4c-1,1.8-0.4,4,1.4,5c1.1,0.7,2.6,0.7,3.7,0
		c1.7,1,4,0.4,5-1.4c1-1.7,0.4-4-1.4-5C24.3,25.3,23.7,25.2,23,25.2z M25.6,28.6l-0.2-0.2c-0.8-0.8-2.1-0.8-2.8,0l0,0
		c-0.3,0.3-0.9,0.3-1.4,0l0,0l-0.7-0.7c0.6-1.3,2.1-2,3.4-1.4C25,26.8,25.6,27.7,25.6,28.6L25.6,28.6z M19.4,26.2
		c0.3,0,0.6,0.1,0.9,0.2c-0.4,0.5-0.8,1.1-0.9,1.7c-0.2,0.1-0.3,0.2-0.4,0.3c-0.3,0.3-0.9,0.3-1.4,0l0,0L17,27.7
		C17.3,26.8,18.3,26.2,19.4,26.2z M16.7,29l0.2,0.2c0.7,0.7,1.7,0.8,2.5,0.3c0.1,0.7,0.4,1.3,0.9,1.8c-1.4,0.5-2.9-0.2-3.4-1.5
		C16.8,29.5,16.7,29.3,16.7,29z M23,31.4c-1.4,0-2.5-1-2.6-2.4l0.2,0.2c0.8,0.8,2.1,0.8,2.8,0l0,0c0.3-0.3,0.9-0.3,1.4,0l0,0
		l0.7,0.7C25,30.8,24.1,31.4,23,31.4z"/>
</g>
<g>
	<path class="st0" d="M43.9,19.5c0-1.2-0.7-1.7-2.3-1.7c-1.5,0-2.3,0.5-2.3,1.7v0.3c0,0.8,0.6,1.2,1,1.3l4.1,1.5
		c1.6,0.5,2.7,1.7,2.7,3.4v1.8c0,2-1.4,3.8-5.6,3.8s-5.6-1.9-5.6-3.8v-1.5c0-0.4,0.2-0.6,0.5-0.6h2c0.4,0,0.5,0.2,0.5,0.6v1.1
		c0,1.2,0.8,1.7,2.5,1.7c1.6,0,2.5-0.5,2.5-1.7v-0.7c0-1-1-1.4-2-1.7l-3.7-1.4c-1.2-0.4-2.1-1.6-2.1-3.1v-1.4c0-2,1.3-3.8,5.4-3.8
		s5.4,1.9,5.4,3.8v1c0,0.4-0.2,0.6-0.6,0.6h-2c-0.4,0-0.5-0.2-0.5-0.6v-0.5H43.9z"/>
	<path class="st0" d="M55.2,15.4c0.4,0,0.6,0.2,0.7,0.6l4.3,14.8c0.1,0.4,0,0.6-0.4,0.6h-2.1c-0.4,0-0.5-0.2-0.6-0.6L56.2,28h-4.3
		l-0.8,2.9c-0.1,0.4-0.3,0.6-0.7,0.6h-1.9c-0.4,0-0.5-0.2-0.4-0.6L52.4,16c0.1-0.4,0.3-0.6,0.7-0.6C53.2,15.4,55.2,15.4,55.2,15.4z
		 M54.8,22.8c-0.3-1-0.6-4-0.6-4.3c0,0.3-0.4,3.3-0.7,4.2l-0.8,2.7h3L54.8,22.8z"/>
	<path class="st0" d="M73.1,30.8c0,0.4-0.1,0.6-0.5,0.6h-1.9c-0.3,0-0.4-0.1-0.5-0.3l-4.5-7.8c-0.6-1.1-1-1.8-1-1.9v9.4
		c0,0.4-0.1,0.6-0.5,0.6h-1.9c-0.4,0-0.5-0.2-0.5-0.6V16c0-0.4,0.1-0.6,0.5-0.6h1.9c0.2,0,0.4,0.1,0.5,0.2l4.8,8.1
		c0.4,0.6,0.8,1.7,0.8,1.7V16c0-0.4,0.1-0.6,0.5-0.6h1.8c0.4,0,0.5,0.2,0.5,0.6V30.8z"/>
	<path class="st0" d="M81.7,15.4c0.4,0,0.6,0.2,0.7,0.6l4.3,14.8c0.1,0.4,0,0.6-0.4,0.6h-2.1c-0.4,0-0.5-0.2-0.6-0.6L82.8,28h-4.3
		l-0.8,2.9c-0.1,0.4-0.3,0.6-0.7,0.6h-1.9c-0.4,0-0.5-0.2-0.4-0.6L79,16c0.1-0.4,0.3-0.6,0.7-0.6C79.7,15.4,81.7,15.4,81.7,15.4z
		 M81.3,22.8c-0.3-1-0.6-4-0.6-4.3c0,0.3-0.4,3.3-0.7,4.2l-0.8,2.6h3.1L81.3,22.8z"/>
	<path class="st0" d="M91.4,28.8h5.3c0.4,0,0.6,0.1,0.6,0.5v1.5c0,0.4-0.2,0.6-0.6,0.6h-7.9c-0.3,0-0.5-0.2-0.5-0.6V16
		c0-0.4,0.1-0.6,0.5-0.6h2c0.4,0,0.5,0.2,0.5,0.6v12.8H91.4z"/>
	<path class="st0" d="M110.4,19.5c0-1.2-0.7-1.7-2.3-1.7c-1.5,0-2.3,0.5-2.3,1.7v0.3c0,0.8,0.6,1.2,1,1.3l4.1,1.5
		c1.6,0.5,2.7,1.7,2.7,3.4v1.8c0,2-1.4,3.8-5.6,3.8s-5.6-1.9-5.6-3.8v-1.5c0-0.4,0.2-0.6,0.5-0.6h2c0.4,0,0.5,0.2,0.5,0.6v1.1
		c0,1.2,0.8,1.7,2.5,1.7c1.6,0,2.5-0.5,2.5-1.7v-0.7c0-1-1-1.4-2-1.7l-3.7-1.4c-1.2-0.4-2.1-1.6-2.1-3.1v-1.4c0-2,1.3-3.8,5.4-3.8
		s5.4,1.9,5.4,3.8v1c0,0.4-0.2,0.6-0.6,0.6h-2c-0.4,0-0.5-0.2-0.5-0.6v-0.5H110.4z"/>
	<path class="st0" d="M118.9,25.7v5.1c0,0.4-0.1,0.6-0.5,0.6h-2c-0.4,0-0.5-0.2-0.5-0.6V16c0-0.4,0.1-0.6,0.5-0.6h5
		c4.2,0,5.7,1.9,5.7,3.8v2.7c0,2-1.5,3.8-5.7,3.8H118.9z M118.9,18v5.1h2.3c1.6,0,2.5-0.6,2.5-1.7v-1.6c0-1.2-1-1.8-2.5-1.8H118.9z"
		/>
	<path class="st0" d="M128.5,19.1c0-2,1.5-3.8,5.7-3.8c4.2,0,5.7,1.9,5.7,3.8v8.7c0,2-1.5,3.8-5.7,3.8c-4.2,0-5.7-1.9-5.7-3.8V19.1z
		 M136.9,19.6c0-1.2-1-1.8-2.5-1.8c-1.6,0-2.5,0.6-2.5,1.8v7.6c0,1.2,1,1.8,2.5,1.8c1.6,0,2.5-0.6,2.5-1.8V19.6z"/>
	<path class="st0" d="M145.7,25.3v5.5c0,0.4-0.1,0.6-0.5,0.6h-2c-0.4,0-0.5-0.2-0.5-0.6V16c0-0.4,0.1-0.6,0.5-0.6h5
		c4.2,0,5.7,1.9,5.7,3.8v2.2c0,1.4-0.7,2.7-2.6,3.4l2.5,5.9c0.2,0.4-0.1,0.6-0.5,0.6h-2.1c-0.3,0-0.4-0.2-0.6-0.6l-2.3-5.5H148h-2.3
		V25.3z M145.7,18v4.7h2.3c1.6,0,2.5-0.6,2.5-1.8v-1.1c0-1.2-1-1.8-2.5-1.8C148,18,145.7,18,145.7,18z"/>
	<path class="st0" d="M159.2,28.8h5.3c0.4,0,0.6,0.1,0.6,0.5v1.5c0,0.4-0.2,0.6-0.6,0.6h-7.9c-0.3,0-0.5-0.2-0.5-0.6V16
		c0-0.4,0.1-0.6,0.5-0.6h2c0.4,0,0.5,0.2,0.5,0.6v12.8H159.2z"/>
	<path class="st0" d="M172.6,15.4c0.4,0,0.6,0.2,0.7,0.6l4.3,14.8c0.1,0.4,0,0.6-0.4,0.6h-2.1c-0.4,0-0.5-0.2-0.6-0.6l-0.8-2.9h-4.3
		l-0.8,2.9c-0.1,0.4-0.3,0.6-0.7,0.6h-1.9c-0.4,0-0.5-0.2-0.4-0.6l4.4-14.8c0.1-0.4,0.3-0.6,0.7-0.6
		C170.6,15.4,172.6,15.4,172.6,15.4z M172.2,22.8c-0.3-1-0.6-4-0.6-4.3c0,0.3-0.4,3.3-0.7,4.2l-0.8,2.6h3L172.2,22.8z"/>
	<path class="st0" d="M182.3,25.3v5.5c0,0.4-0.1,0.6-0.5,0.6h-2c-0.4,0-0.5-0.2-0.5-0.6V16c0-0.4,0.1-0.6,0.5-0.6h5
		c4.2,0,5.7,1.9,5.7,3.8v2.2c0,1.4-0.7,2.7-2.6,3.4l2.5,5.9c0.2,0.4-0.1,0.6-0.5,0.6h-2.1c-0.3,0-0.4-0.2-0.6-0.6l-2.3-5.5h-0.1
		h-2.3V25.3z M182.3,18v4.7h2.3c1.6,0,2.5-0.6,2.5-1.8v-1.1c0-1.2-1-1.8-2.5-1.8C184.7,18,182.3,18,182.3,18z"/>
</g>
</svg>
