<?xml version="1.0" encoding="utf-8"?>
<!-- Generator: Adobe Illustrator 26.1.0, SVG Export Plug-In . SVG Version: 6.00 Build 0)  -->
<svg version="1.1" id="Layer_1" xmlns="http://www.w3.org/2000/svg" xmlns:xlink="http://www.w3.org/1999/xlink" x="0px" y="0px"
	 viewBox="0 0 1056.6 202" style="enable-background:new 0 0 1056.6 202;" xml:space="preserve">
<g id="Livello_1_1_">
</g>
<g id="Layer_1_00000121280000816817959920000000882230360127541942_">
</g>
<path style="fill:#FFFFFF;" d="M166.7,67.9c-17.3,0-31.3,14-31.3,31.3c0,6.7,2.1,12.9,5.7,18l-22.7,22.7c-3.7,3.7,3.6,10.9,7.3,7.3
	l22.6-22.6c5.2,3.8,11.5,6,18.4,6c17.3,0,31.3-14,31.3-31.3C198,81.9,184,67.9,166.7,67.9z M166.7,123.9
	c-13.7,0-24.8-11.1-24.8-24.8c0-8.7,4.6-16.4,11.4-20.9c0.3-0.2,0.7-0.1,0.9,0.2c0.2,0.3,0.2,0.7-0.1,0.9c-5,4.5-7.6,11.3-7.5,17.4
	c0.1,8.1,4.8,15.7,11.9,19.2c2.8,1.4,5.8,2.1,8.9,2.1c1,0,1.9-0.1,2.9-0.2c3.9-0.6,7.6-2.4,10.3-5.1c2.9-2.8,4.7-6.5,5.1-10.4
	c0.5-4-0.6-8-2.9-11.2c-2.4-3.3-6-5.5-9.9-5.9c-0.5-0.1-1-0.1-1.5-0.1c-3.6,0-7,1.5-9.4,4.1c-2.8,3.2-3.6,7.7-2,11.3
	c1.4,2.9,4.4,5,7.3,5c0.9,0,1.8-0.2,2.7-0.6c2-0.9,3.3-2.8,3.3-4.8c0-1.1-0.5-2-1.2-2.6c-0.5-0.4-1.1-0.6-1.7-0.6
	c-0.5,0-1,0.2-1.4,0.6c-0.2,0.2-0.3,0.4-0.4,0.6c-0.1,0.1-0.1,0.2-0.2,0.3c-0.1,0.1-0.3,0.2-0.5,0.2c0,0,0,0,0,0
	c-0.5,0-0.9-0.5-1.1-0.8c-0.7-1.3,0-2.9,1.1-3.8c0.9-0.8,2.1-1.2,3.5-1.2c0.3,0,0.7,0,1,0.1c1.6,0.3,3.1,1.2,4.2,2.5
	c2.1,2.6,2.5,6.5,0.9,9.7c-1.5,3.1-4.6,5.3-8.1,5.9c-0.7,0.1-1.4,0.2-2.1,0.2c-2.9,0-5.8-1-8.1-2.9c-2.8-2.2-4.7-5.5-5.3-9.1
	c-0.6-3.6,0.1-7.4,1.9-10.7c1.7-3.1,4.5-5.6,7.8-7.2c3.3-1.5,7.1-2.1,10.7-1.6c7.3,1,13.6,6.3,16.3,13.4c0,0.1,0.1,0.2,0.1,0.3
	c0.5,1.9,0.8,4,0.8,6.1C191.5,112.8,180.3,123.9,166.7,123.9z"/>
<path style="fill:#FFFFFF;" d="M104.1,191.4c1.3,0.5,6.5-2.1,7.5-3.2c1.2-1.2,1.4-2.1,1.7-3.1c1-3.4,3.2-5.7,6.6-6.8
	c1-0.3,1.9-0.6,3.1-1.8c1-1.1,3-5.4,2.8-7c0-0.1,0-0.2-0.1-0.3c-0.3-0.6-0.8-1.1-1.5-1.3c-7.9-2.1-16.6-3.5-24.8-5.3
	c2.2-4,2.8-9.2,1.9-14.8c-1.1-7-4.7-14.5-10.9-20.4c-11.1-10.6-26.3-13.2-35.1-8c-2.3-8.8-4.4-17.7-7.2-26c-0.2-0.7-0.9-1.3-1.6-1.5
	c-0.8-0.2-1.6,0.1-2.1,0.6c0,0,0,0,0,0c-1.2,1.2-1.4,2.1-1.7,3.1c-0.3,1.2-0.7,2.5-2.4,4.3c-1.7,1.7-3,2.2-4.2,2.6
	c-1.1,0.4-1.9,0.6-3.1,1.9c-1.2,1.2-1.4,2.1-1.7,3.2c-0.4,1.2-0.8,2.6-2.4,4.3c-0.8,0.8-1.5,1.3-2.1,1.7c-0.8,0.4-1.2,1.3-1.1,2.2
	c0,0,0,0,0,0.1c0.1,0.9,0.8,1.6,1.6,1.8c7.8,2.1,15.9,3.7,24,5.5c-2.6,4-3.5,9.4-2.5,15.2c1.1,7,4.9,14.6,11.2,20.7
	c11.6,11.1,27.7,13.5,36.3,7.2c2.1,8,4,16.2,6.4,23.8C102.9,190.6,103.4,191.1,104.1,191.4z M88.1,146.8c0.4,2.8-0.1,5.3-1.7,7
	c-6.1,6.3-22-2.7-23.8-14.3c-0.4-2.8,0.1-5.3,1.7-7C70.3,126.2,86.2,135.2,88.1,146.8z"/>
<path style="fill:#FFFFFF;" d="M104.9,31.9c2.8-2.1,4.6-5.4,4.6-9.2c0-6.3-5.1-11.5-11.5-11.5c-6.3,0-11.5,5.1-11.5,11.5
	c0,3.8,1.9,7.2,4.7,9.3C75,34.7,54.1,45.5,54.1,58.8c0,6.1,3.3,11.5,8.2,14.6l8.1,32c0,3.3,14,4.9,28,4.9c14,0,28-1.6,28-4.9l8.1-32
	c5-3.1,8.2-8.5,8.2-14.6C142.8,45.3,121.3,34.4,104.9,31.9z M122.1,103.1c-2.7,1.1-11,2.3-23.6,2.3c-12.6,0-20.9-1.3-23.6-2.3
	l-6.9-27.4c1.4,0.3,2.9,0.5,4.5,0.5c1.7,0,3.3-0.2,4.9-0.6l7.7,24.8l-1-28.1c0.5-0.4,1.1-0.9,1.5-1.4c2.6,2.5,5.9,4.3,9.6,5l3.3,25
	l3.3-25c3.8-0.6,7.2-2.4,9.8-4.9c0.5,0.4,0.9,0.8,1.4,1.2l-1,28.1l7.7-24.8c1.6,0.4,3.2,0.6,4.9,0.6c1.6,0,3.1-0.2,4.5-0.5
	L122.1,103.1z"/>
<g>
	<path style="fill:#FFFFFF;" d="M270.1,92.1c0,0.8,0.5,0.9,2.4,1.2l5.1,0.8c2.8,0.4,5.7,1.3,5.7,6.2c0,1.2-0.1,2.7-0.5,4.6
		c-1.8,8.1-5.3,10.3-11.2,10.7l-3.4,9.1h-9.4v-0.2l5.7-8.8c-3.6-0.1-7.4-0.4-9.8-0.8l1.6-7.9c3.6,0.3,7.2,0.5,9.5,0.5
		c2.6,0,3.8,0,4.4-0.4c0.5-0.3,1-1.5,1-2.7c0-1.1-0.9-1.1-4.1-1.6l-5.6-0.9c-2.6-0.4-3.6-2.2-3.6-5.3c0-1.6,0.2-3.5,0.7-5.6
		c1.9-8.7,7.2-10.1,15.7-10.1c4.2,0,9,0.4,11.5,1l-1.7,7.8c-2.4-0.3-6.5-0.5-9.7-0.5c-1.9,0-2.8,0.1-3.4,0.5
		C270.3,90.2,270.1,91.1,270.1,92.1z"/>
	<path style="fill:#FFFFFF;" d="M285.4,109.5c0-1.8,0.2-4,0.7-6.7c1.9-9.4,2.9-13.1,14.2-13.1c8.9,0,11.2,1.4,11.2,5.4
		c0,1.9-0.7,5.2-1.3,7.6l-0.4,1.9h-13.8c-0.1,0.4-0.3,1.6-0.3,2c0,1.6,0.4,1.6,5.5,1.6c1.7,0,4.9-0.1,7.7-0.3l-1.4,6.8
		c-2,0.6-5.9,1-9.4,1C288.2,115.8,285.4,113.9,285.4,109.5z M301.3,100.6l0.1-0.8c0.2-1.1,0.3-1.7,0.3-2.3c0-1-0.5-1-1.8-1
		c-2.1,0-2.1,0.1-3,4.1H301.3z"/>
	<path style="fill:#FFFFFF;" d="M319.5,78.6h10.6l-4.5,20.8h0.5l7.1-9.2h11.3l-10.3,12.4l5.2,12.9h-11.3l-3.4-9.1h-0.5l-1.9,9.1
		h-10.5L319.5,78.6z"/>
	<path style="fill:#FFFFFF;" d="M341.4,109.5c0-1.8,0.2-4,0.7-6.7c1.9-9.4,2.9-13.1,14.2-13.1c8.9,0,11.2,1.4,11.2,5.4
		c0,1.9-0.7,5.2-1.3,7.6l-0.4,1.9h-13.8c-0.1,0.4-0.3,1.6-0.3,2c0,1.6,0.4,1.6,5.5,1.6c1.7,0,4.9-0.1,7.7-0.3l-1.4,6.8
		c-2,0.6-5.9,1-9.4,1C344.2,115.8,341.4,113.9,341.4,109.5z M357.3,100.6l0.1-0.8c0.2-1.1,0.3-1.7,0.3-2.3c0-1-0.5-1-1.8-1
		c-2.1,0-2.1,0.1-3,4.1H357.3z"/>
	<path style="fill:#FFFFFF;" d="M373.1,90.2h10.3l-0.7,4.2h0.5c2.2-3.8,4-4.6,8.6-4.6l-2,9.2c-6.6,0-8.2,1.2-9.6,8l-1.8,8.5h-10.6
		L373.1,90.2z"/>
	<path style="fill:#FFFFFF;" d="M397.2,78.6H408l-7.8,36.8h-10.7L397.2,78.6z"/>
	<path style="fill:#FFFFFF;" d="M405.7,109.5c0-1.8,0.2-4,0.7-6.7c1.9-9.4,2.9-13.1,14.2-13.1c8.9,0,11.2,1.4,11.2,5.4
		c0,1.9-0.7,5.2-1.3,7.6l-0.4,1.9h-13.8c-0.1,0.4-0.3,1.6-0.3,2c0,1.6,0.4,1.6,5.5,1.6c1.7,0,4.9-0.1,7.7-0.3l-1.4,6.8
		c-2,0.6-5.9,1-9.4,1C408.6,115.8,405.7,113.9,405.7,109.5z M421.6,100.6l0.1-0.8c0.2-1.1,0.3-1.7,0.3-2.3c0-1-0.5-1-1.8-1
		c-2.1,0-2.1,0.1-3,4.1H421.6z"/>
	<path style="fill:#FFFFFF;" d="M437.4,90.2h10.3l-0.4,2.8h0.5c2.1-2.7,4.9-3.2,6.8-3.2c4,0,5.6,1.1,6.2,3.2h0.5
		c2.2-2.7,5.2-3.2,7.2-3.2c4.7,0,5.9,1.7,5.9,5.2c0,1.4-0.4,3.8-0.9,6.2l-3.1,14.3h-10.5l2.7-12.7c0.3-1.6,0.6-3.1,0.6-3.7
		c0-0.9-0.3-1-1-1c-1.9,0-2,0.2-2.9,4.1l-2.9,13.3H446l2.7-12.7c0.3-1.6,0.6-3.1,0.6-3.7c0-0.9-0.3-1-1-1c-1.9,0-2,0.2-2.9,4.1
		l-2.9,13.3h-10.6L437.4,90.2z"/>
	<path style="fill:#FFFFFF;" d="M476.1,109.5c0-1.8,0.2-4,0.7-6.7c1.9-9.4,2.9-13.1,14.2-13.1c8.9,0,11.2,1.4,11.2,5.4
		c0,1.9-0.7,5.2-1.3,7.6l-0.4,1.9h-13.8c-0.1,0.4-0.3,1.6-0.3,2c0,1.6,0.4,1.6,5.5,1.6c1.7,0,4.9-0.1,7.7-0.3l-1.4,6.8
		c-2,0.6-5.9,1-9.4,1C478.9,115.8,476.1,113.9,476.1,109.5z M491.9,100.6l0.1-0.8c0.2-1.1,0.3-1.7,0.3-2.3c0-1-0.5-1-1.8-1
		c-2.1,0-2.1,0.1-3,4.1H491.9z"/>
	<path style="fill:#FFFFFF;" d="M519.1,90.2h10.4l-0.4,16.3h0.5l6.3-16.3h10.7l-11.9,25.3h-14.6L519.1,90.2z"/>
	<path style="fill:#FFFFFF;" d="M544.7,109.5c0-1.8,0.2-4,0.7-6.7c1.9-9.4,2.9-13.1,14.2-13.1c8.9,0,11.2,1.4,11.2,5.4
		c0,1.9-0.7,5.2-1.3,7.6l-0.4,1.9h-13.8c-0.1,0.4-0.3,1.6-0.3,2c0,1.6,0.4,1.6,5.5,1.6c1.7,0,4.9-0.1,7.7-0.3l-1.4,6.8
		c-2,0.6-5.9,1-9.4,1C547.5,115.8,544.7,113.9,544.7,109.5z M560.5,100.6l0.1-0.8c0.2-1.1,0.3-1.7,0.3-2.3c0-1-0.5-1-1.8-1
		c-2.1,0-2.1,0.1-3,4.1H560.5z"/>
	<path style="fill:#FFFFFF;" d="M591.4,81.3h16.5c7.4,0,9.5,2.2,9.5,6.7c0,1.6-0.3,3.5-0.7,5.6c-1.5,6.9-3.1,11.3-12.8,11.3h-5.9
		l-2.2,10.4h-11.5L591.4,81.3z M601.1,97c2.9,0,3.3-0.2,4-3.8c0.2-1.1,0.3-1.9,0.3-2.4c0-1.3-0.7-1.4-2.7-1.4h-1.5l-1.6,7.6H601.1z"
		/>
	<path style="fill:#FFFFFF;" d="M616.2,109.8c0-1.8,0.2-4.1,0.8-6.9c2.1-10.3,4.8-13.1,9.8-13.1c2.7,0,5.3,0.3,6.5,2.9h0.5l0.8-2.5
		h10.3l-5.3,25.3h-10.3l0.4-2.8h-0.5c-1.8,2.7-4.1,3.2-6.3,3.2C618.3,115.8,616.2,114.5,616.2,109.8z M630.8,106.4
		c0.5-1.4,1.5-6.1,1.5-7.4c0-1-0.3-1.1-1.6-1.1c-2,0-2.1,0.1-3.1,4.9c-0.4,2-0.6,3.1-0.6,3.9c0,0.9,0.5,1,1.7,1
		C630,107.6,630.4,107.5,630.8,106.4z"/>
	<path style="fill:#FFFFFF;" d="M644.3,115.1l1.3-6.7c2.5,0.2,5.3,0.3,6.8,0.3c2.4,0,3.8,0,4.5-0.3c0.5-0.2,0.7-0.5,0.7-1.2
		c0-0.3-0.4-0.5-2.2-0.7l-5.7-0.8c-2.3-0.3-3.1-1.7-3.1-3.9c0-1.2,0.2-2.7,0.6-4.3c1.5-7.1,5.5-7.8,12.7-7.8c3.5,0,7.6,0.3,9.7,0.7
		l-1.4,6.7c-2.8-0.2-5.5-0.3-6.6-0.3c-2.5,0-3.7,0-4.3,0.3c-0.4,0.2-0.5,0.5-0.5,1c0,0.4,0.3,0.4,1.9,0.7l4.9,0.7
		c2.4,0.3,4.2,1,4.2,4.4c0,0.9-0.1,2.1-0.4,3.4c-1.7,8-5.5,8.5-12.3,8.5C651.6,115.8,647.1,115.5,644.3,115.1z"/>
	<path style="fill:#FFFFFF;" d="M673.5,110.4c0-1.5,0.3-3.4,0.8-5.8l1.5-7h-4.2l1.6-7.4h4.2l1.5-7.3h10.8l-1.5,7.3h5.1l-1.6,7.4
		h-5.1l-1.7,8.2c-0.1,0.5-0.2,0.9-0.2,1.4c0,1.1,1,1.5,4.9,1.5l-1.4,6.8C676.9,115.4,673.5,115.3,673.5,110.4z"/>
	<path style="fill:#FFFFFF;" d="M692.8,109.8c0-1.8,0.2-4.1,0.8-6.9c2.1-10.3,4.8-13.1,9.8-13.1c2.7,0,5.2,0.3,6.5,2.9h0.5l0.8-2.5
		h10.3l-5.3,25.3h-10.3l0.4-2.8h-0.5c-1.8,2.7-4.1,3.2-6.3,3.2C695,115.8,692.8,114.5,692.8,109.8z M707.4,106.4
		c0.5-1.4,1.5-6.1,1.5-7.4c0-1-0.3-1.1-1.6-1.1c-2,0-2.1,0.1-3.1,4.9c-0.4,2-0.6,3.1-0.6,3.9c0,0.9,0.5,1,1.7,1
		C706.6,107.6,707,107.5,707.4,106.4z"/>
	<path style="fill:#FFFFFF;" d="M721.7,109.2c0-1.8,0.3-4,0.8-6.4c1.5-7.7,2.8-13.1,13.4-13.1c3.3,0,6.2,0.3,9,0.9l-1.5,6.8
		c-1.1-0.1-3.3-0.3-5.1-0.3c-3.6,0-3.9,0.7-5,5.6c-0.4,1.7-0.6,2.9-0.6,3.8c0,1.5,0.8,1.8,3.2,1.8c1.5,0,3.8-0.1,5.5-0.3l-1.4,6.8
		c-2.7,0.6-5.3,0.9-7.8,0.9C723.8,115.8,721.7,113.3,721.7,109.2z"/>
	<path style="fill:#FFFFFF;" d="M749,90.2h10.8l-5.3,25.3h-10.7L749,90.2z"/>
	<path style="fill:#FFFFFF;" d="M766.6,78.6h10.8l-7.8,36.8h-10.7L766.6,78.6z"/>
	<path style="fill:#FFFFFF;" d="M779.3,90.2h10.8l-5.3,25.3H774L779.3,90.2z"/>
	<path style="fill:#FFFFFF;" d="M796.9,78.6h10.6l-4.5,20.8h0.5l7.1-9.2h11.3l-10.3,12.4l5.2,12.9h-11.3l-3.4-9.1h-0.5l-1.9,9.1
		h-10.6L796.9,78.6z"/>
	<path style="fill:#FFFFFF;" d="M834.5,108.2c0-2.5,0.8-5.9,1.6-10.3c2.6-13.8,3.6-16.9,17.8-16.9c10.5,0,13.7,2,13.7,7.7
		c0,2.6-0.6,5.9-1.6,10.3c-3.2,13.9-3.7,16.9-17.7,16.9C837.7,115.8,834.5,113.8,834.5,108.2z M854.6,98.4c0.8-3.8,1.2-6,1.2-7.3
		c0-1.8-0.8-1.8-2.8-1.8c-3.5,0-3.5,0.2-5.4,9.2c-0.8,3.9-1.3,6.1-1.3,7.4c0,1.7,0.8,1.7,2.8,1.7
		C852.6,107.5,852.7,107.3,854.6,98.4z"/>
	<path style="fill:#FFFFFF;" d="M867.3,124.9l1.4-6.7h6.5c5.4,0,5.6,0,6.4-3.8c0.2-0.8,0.3-1.7,0.5-2.6h-0.5
		c-2.1,2.7-4.7,3.2-6.5,3.2c-4.9,0-6.4-1.9-6.4-5.3c0-1.3,0.2-2.8,0.6-4.5l3.2-15h10.6l-2.7,12.5c-0.3,1.6-0.5,2.6-0.5,3.2
		c0,0.9,0.4,0.9,1.4,0.9c1.7,0,1.8,0,2.7-4.1l2.7-12.5h10.6l-4.8,22.5c-1.8,8.4-2.5,12.9-16.2,12.9
		C873,125.6,869.3,125.3,867.3,124.9z"/>
	<path style="fill:#FFFFFF;" d="M897.8,110.5c0-1.4,0.4-3.8,0.9-6.2l3-14.1h10.5l-2.7,12.7c-0.3,1.6-0.6,3.1-0.6,3.7
		c0,0.9,0.3,1,1.2,1c1.9,0,2-0.2,2.9-4.1l2.9-13.3h10.5l-5.3,25.3h-10.3l0.4-2.8h-0.5c-2.1,2.7-4.9,3.2-6.8,3.2
		C899.1,115.8,897.8,114,897.8,110.5z"/>
	<path style="fill:#FFFFFF;" d="M930.9,90.2h10.3l-0.4,2.8h0.5c2.1-2.7,4.9-3.2,6.8-3.2c4.8,0,6.1,1.7,6.1,5.2
		c0,1.4-0.4,3.8-0.9,6.2l-3.1,14.3h-10.5l2.7-12.7c0.3-1.6,0.6-3.1,0.6-3.7c0-0.9-0.3-1-1.2-1c-1.9,0-2,0.2-2.9,4.1l-2.9,13.3h-10.5
		L930.9,90.2z"/>
	<path style="fill:#FFFFFF;" d="M962.5,78.6h10.8l-7.8,36.8h-10.7L962.5,78.6z"/>
	<path style="fill:#FFFFFF;" d="M971,109.8c0-1.8,0.2-4.1,0.8-6.9c2.1-10.3,4.8-13.1,9.8-13.1c2.7,0,5.3,0.3,6.5,2.9h0.5l0.8-2.5
		h10.3l-5.3,25.3h-10.3l0.4-2.8H984c-1.8,2.7-4.1,3.2-6.3,3.2C973.1,115.8,971,114.5,971,109.8z M985.6,106.4
		c0.5-1.4,1.5-6.1,1.5-7.4c0-1-0.3-1.1-1.6-1.1c-2,0-2.1,0.1-3.1,4.9c-0.4,2-0.6,3.1-0.6,3.9c0,0.9,0.5,1,1.7,1
		C984.8,107.6,985.2,107.5,985.6,106.4z"/>
	<path style="fill:#FFFFFF;" d="M1004.1,90.2h10.3l-0.7,4.2h0.5c2.2-3.8,4-4.6,8.6-4.6l-2,9.2c-6.6,0-8.2,1.2-9.6,8l-1.8,8.5h-10.5
		L1004.1,90.2z"/>
	<path style="fill:#FFFFFF;" d="M1025.8,90.2h10.8l-5.3,25.3h-10.7L1025.8,90.2z"/>
</g>
</svg>
