<?xml version="1.0" encoding="utf-8"?>
<!-- Generator: Adobe Illustrator 25.3.1, SVG Export Plug-In . SVG Version: 6.00 Build 0)  -->
<svg version="1.1" id="Layer_1" xmlns="http://www.w3.org/2000/svg" xmlns:xlink="http://www.w3.org/1999/xlink" x="0px" y="0px"
	 viewBox="0 0 358.8 60.6" style="enable-background:new 0 0 358.8 60.6;" xml:space="preserve">
<g id="WAMJuz.tif">
	
		<image style="overflow:visible;" width="907" height="233" id="Layer_1_1_" xlink:href="DA3AF53FE0B73340.png"  transform="matrix(1 0 0 1 -274 187.5)">
	</image>
</g>
<path style="fill:#FFFFFF;" d="M54.5,13.4c-2.4,2.4-4.5,4.7-6.7,7c-1.3-1.1-2.4-2.1-3.6-3c-6.7-5.1-16.2-5.2-22.7-0.4
	c-8.9,6.5-9.3,20.1-0.6,27c6.1,4.9,12.8,5.7,19.9,2.6c3-1.3,4.8-3.8,6.3-6.9c-5,0-9.8,0-14.7,0c0-3.1,0-6.1,0-9.2c8.5,0,17,0,25.7,0
	c0,1.3,0,2.6,0,3.9c0,2.5-0.3,5-1.4,7.3c-0.8,1.6-1.7,3.2-2.6,4.7c-1.7,3.2-4.3,5.7-7.4,7.5c-2.2,1.3-4.7,2.4-7.2,3
	c-4.3,1.1-8.7,1-13.1,0.1c-2.1-0.4-4.3-1-6.3-1.7c-1.6-0.6-3.2-1.7-4.6-2.7c-1-0.7-1.9-1.7-2.8-2.5c-0.6-0.6-1.3-1-1.8-1.6
	c-0.7-0.8-1.2-1.7-1.8-2.6c-0.3-0.5-0.6-1.1-0.9-1.5c-1-1.3-1.3-2.9-1.9-4.4c-1.2-3-1.6-6.2-1.5-9.4c0.1-4.9,1.3-9.6,4-13.8
	C13.5,9.2,20.4,4.9,29.4,4.1c7.3-0.6,14.1,0.7,20.1,5C51.3,10.4,52.8,12,54.5,13.4z"/>
<path style="fill:#FFFFFF;" d="M138.7,56.7c-2.2,0-4.2,0-6.2,0c-0.3,0-0.7-0.5-0.8-0.8c-1.2-6.8-2.4-13.7-3.5-20.5
	c-0.1-0.5-0.2-1.1-0.3-1.9c-0.3,0.7-0.5,1-0.6,1.4c-2.3,6.9-4.7,13.8-7,20.8c-0.3,0.8-0.6,1.2-1.5,1.1c-1.4-0.1-2.8-0.1-4.2,0
	c-0.7,0-1.1-0.2-1.3-0.9c-2.3-7-4.6-13.9-7-20.9c-0.1-0.4-0.3-0.7-0.7-1c-1.3,7.6-2.6,15.2-4,22.8c-2.3,0-4.6,0-6.9,0
	c2.2-12.4,4.3-24.8,6.5-37.2c2.2,0,4.4,0,6.5,0c0.3,0,0.6,0.5,0.7,0.8c2.3,6.7,4.5,13.5,6.8,20.2c0.5,1.4,1,2.9,1.8,4.4
	c0.3-0.7,0.6-1.4,0.8-2.2c2.5-7.4,5-14.8,7.5-22.2c0.3-0.9,0.7-1.2,1.7-1.1c1.6,0.1,3.3,0,4.9,0.1c0.3,0,0.8,0.4,0.9,0.7
	c1.7,10.1,3.4,20.3,5.2,30.4C138,52.6,138.3,54.6,138.7,56.7z"/>
<path style="fill:#FFFFFF;" d="M55.8,56.7c1.3-3.2,2.4-6.3,3.6-9.3c3.4-8.9,6.9-17.9,10.3-26.8c0.3-0.8,0.7-1.2,1.7-1.1
	c2,0.1,4.1,0,6.2,0c4.8,12.4,9.5,24.7,14.3,37.3c-2.5,0-4.8,0-7.1,0c-0.2,0-0.5-0.5-0.7-0.8c-0.8-2-1.6-4.1-2.3-6.1
	c-0.2-0.7-0.6-0.9-1.3-0.9c-4.4,0-8.8,0-13.1,0c-0.8,0-1.1,0.2-1.4,1c-0.8,2.1-1.6,4.2-2.5,6.2c-0.1,0.3-0.6,0.7-0.9,0.7
	C60.4,56.8,58.2,56.7,55.8,56.7z M74.1,29.7c-0.1,0-0.2,0-0.3,0c-1.6,4-3.1,8.1-4.7,12.2c3.3,0,6.5,0,9.8,0
	C77.2,37.7,75.6,33.7,74.1,29.7z"/>
<path style="fill:#FFFFFF;" d="M198.4,43.7c-1.8,2.7-3.5,5.3-5.2,7.9c-1,1.5-2,3-3,4.5c-0.2,0.3-0.6,0.7-0.9,0.7
	c-2.4,0.1-4.9,0-7.5,0c1.5-2.3,2.9-4.4,4.3-6.5c2.6-4,5.2-7.9,7.8-11.9c0.4-0.6,0.4-1,0-1.6c-3.6-5.5-7.3-11-10.9-16.5
	c-0.1-0.2-0.2-0.3-0.4-0.7c1.7,0,3.3,0.2,4.8,0c2.4-0.3,3.8,0.5,5,2.6c1.5,2.8,3.4,5.3,5.1,8c0.3,0.4,0.6,0.8,1,1.3
	c1.4-2.2,2.8-4.3,4.2-6.4c1.1-1.6,2.1-3.3,3.3-4.9c0.2-0.3,0.6-0.6,1-0.6c2.4-0.1,4.8,0,7.4,0c-0.9,1.3-1.6,2.5-2.4,3.7
	c-3,4.5-5.9,9-8.9,13.5c-0.4,0.7-0.4,1.1,0,1.7c3.8,5.7,7.6,11.5,11.4,17.3c0.2,0.3,0.3,0.5,0.6,1c-1,0-1.8,0-2.6,0
	c-1.5,0-3,0.1-4.5,0c-0.4,0-1-0.3-1.3-0.7C203.8,52,201.2,47.9,198.4,43.7z"/>
<path style="fill:#FFFFFF;" d="M141.2,56.7c4.4-10.1,8.8-20.1,13.3-30.2c-4.1,0-8.1,0-12.1,0c0-2.3,0-4.6,0-6.9c7.4,0,14.9,0,22.5,0
	c-4.4,10-8.8,20-13.3,30.2c4.2,0,8.2,0,12.3,0c0,2.4,0,4.6,0,6.9C156.4,56.7,148.9,56.7,141.2,56.7z"/>
<path style="fill:#FFFFFF;" d="M177,56.7c-2.4,0-4.6,0-6.9,0c0-12.4,0-24.7,0-37.2c2.3,0,4.6,0,6.9,0C177,31.9,177,44.2,177,56.7z"
	/>
<path style="fill:#F9A400;" d="M179.6,18.8c-4.1-2.5-8.1-2.5-12.1-0.2c-0.2-1.1,0.9-3.4,1.8-4c2.4-1.7,5-2.2,7.6-0.6
	C178.5,15,179.6,16.6,179.6,18.8z"/>
</svg>
