<?xml version="1.0" encoding="utf-8"?>
<!-- Generator: Adobe Illustrator 26.1.0, SVG Export Plug-In . SVG Version: 6.00 Build 0)  -->
<svg version="1.1" id="Layer_1" xmlns="http://www.w3.org/2000/svg" xmlns:xlink="http://www.w3.org/1999/xlink" x="0px" y="0px"
	 viewBox="0 0 1056.6 202" style="enable-background:new 0 0 1056.6 202;" xml:space="preserve">
<g id="Livello_1_1_">
</g>
<g>
	<path style="fill:#FFFFFF;" d="M256.2,111.8c0-3.7,1.2-8.6,2.4-15.1c3.9-20.2,5.3-24.9,26.2-24.9c15.5,0,20.1,2.9,20.1,11.3
		c0,3.8-0.9,8.6-2.3,15c-4.7,20.3-5.4,24.9-26,24.9C260.9,123,256.2,120.1,256.2,111.8z M285.7,97.4c1.2-5.5,1.8-8.9,1.8-10.8
		c0-2.6-1.2-2.7-4.1-2.7c-5.1,0-5.2,0.3-7.9,13.4c-1.2,5.7-2,9-2,10.9c0,2.5,1.2,2.5,4.1,2.5C282.7,110.8,282.9,110.6,285.7,97.4z"
		/>
	<path style="fill:#FFFFFF;" d="M311.9,85.3h15l-1,6.2h0.7c3.2-5.5,5.9-6.8,12.6-6.8l-2.9,13.5c-9.7,0-12,1.8-14.1,11.7l-2.7,12.4
		h-15.5L311.9,85.3z"/>
	<path style="fill:#FFFFFF;" d="M343.8,85.3h15l-0.6,4.1h0.7c3.1-3.9,7.2-4.7,10-4.7c5.8,0,8.3,1.6,9.1,4.7h0.7
		c3.2-3.9,7.6-4.7,10.6-4.7c6.8,0,8.7,2.5,8.7,7.6c0,2-0.6,5.6-1.3,9.1l-4.6,21h-15.5l4-18.6c0.5-2.3,0.9-4.6,0.9-5.5
		c0-1.4-0.4-1.5-1.5-1.5c-2.8,0-3,0.4-4.2,6l-4.2,19.6h-15.5l4-18.6c0.5-2.3,0.9-4.6,0.9-5.5c0-1.4-0.4-1.5-1.5-1.5
		c-2.8,0-3,0.4-4.2,6l-4.2,19.6h-15.5L343.8,85.3z"/>
	<path style="fill:#FFFFFF;" d="M400.4,114.2c0-2.6,0.3-6,1.2-10.2c3.1-15.1,7-19.2,14.4-19.2c4,0,7.7,0.5,9.6,4.2h0.7l1.2-3.7h15.1
		l-7.8,37.1h-15l0.7-4.1h-0.8c-2.6,3.9-6,4.7-9.3,4.7C403.6,123,400.4,121,400.4,114.2z M421.8,109.2c0.7-2,2.3-9,2.3-10.8
		c0-1.5-0.5-1.6-2.4-1.6c-3,0-3.1,0.1-4.6,7.1c-0.7,2.9-0.9,4.6-0.9,5.7c0,1.4,0.7,1.5,2.5,1.5C420.7,111,421.2,110.8,421.8,109.2z"
		/>
	<path style="fill:#FFFFFF;" d="M449.1,85.3h15l-0.6,4.1h0.7c3.1-3.9,7.2-4.7,10-4.7c7,0,9,2.5,9,7.6c0,2-0.6,5.6-1.3,9.1l-4.5,21
		H462l3.9-18.6c0.5-2.3,0.9-4.6,0.9-5.5c0-1.4-0.5-1.5-1.7-1.5c-2.8,0-3,0.4-4.2,6l-4.2,19.6h-15.5L449.1,85.3z"/>
	<path style="fill:#FFFFFF;" d="M505.8,111.8c0-3.7,1.2-8.6,2.4-15.1c3.9-20.2,5.3-24.9,26.2-24.9c15.5,0,20.1,2.9,20.1,11.3
		c0,3.8-0.9,8.6-2.3,15c-4.7,20.3-5.4,24.9-26,24.9C510.5,123,505.8,120.1,505.8,111.8z M535.3,97.4c1.2-5.5,1.8-8.9,1.8-10.8
		c0-2.6-1.2-2.7-4.1-2.7c-5.1,0-5.2,0.3-7.9,13.4c-1.2,5.7-2,9-2,10.9c0,2.5,1.2,2.5,4.1,2.5C532.3,110.8,532.4,110.6,535.3,97.4z"
		/>
	<path style="fill:#FFFFFF;" d="M553.9,136.3l2-9.8h9.6c8,0,8.2,0,9.4-5.6c0.3-1.2,0.5-2.5,0.8-3.8h-0.7c-3.1,3.9-6.8,4.7-9.5,4.7
		c-7.2,0-9.4-2.8-9.4-7.8c0-1.9,0.3-4.1,0.9-6.6l4.7-22h15.6l-3.9,18.4c-0.5,2.4-0.8,3.9-0.8,4.7c0,1.3,0.6,1.3,2,1.3
		c2.5,0,2.7-0.1,4-6l3.9-18.4H598l-7,33.1c-2.6,12.4-3.6,19-23.8,19C562.3,137.4,556.8,136.9,553.9,136.3z"/>
	<path style="fill:#FFFFFF;" d="M598.6,115.1c0-2,0.7-5.6,1.4-9.1l4.4-20.7h15.5l-3.9,18.6c-0.5,2.3-0.9,4.6-0.9,5.5
		c0,1.4,0.5,1.5,1.7,1.5c2.8,0,3-0.4,4.2-6l4.2-19.6h15.5l-7.8,37.1h-15l0.6-4.1h-0.7c-3.1,3.9-7.2,4.7-10,4.7
		C600.6,123,598.6,120.4,598.6,115.1z"/>
	<path style="fill:#FFFFFF;" d="M647.3,85.3h15l-0.6,4.1h0.7c3.1-3.9,7.2-4.7,10-4.7c7,0,9,2.5,9,7.6c0,2-0.6,5.6-1.3,9.1l-4.5,21
		h-15.5l3.9-18.6c0.5-2.3,0.9-4.6,0.9-5.5c0-1.4-0.5-1.5-1.7-1.5c-2.8,0-3,0.4-4.2,6l-4.2,19.6h-15.5L647.3,85.3z"/>
	<path style="fill:#FFFFFF;" d="M693.6,68.4h15.8l-11.4,54h-15.8L693.6,68.4z"/>
	<path style="fill:#FFFFFF;" d="M706,114.2c0-2.6,0.3-6,1.2-10.2c3.1-15.1,7-19.2,14.4-19.2c4,0,7.7,0.5,9.6,4.2h0.7l1.2-3.7h15.1
		l-7.8,37.1h-15l0.7-4.1h-0.8c-2.6,3.9-6,4.7-9.3,4.7C709.2,123,706,121,706,114.2z M727.4,109.2c0.7-2,2.3-9,2.3-10.8
		c0-1.5-0.5-1.6-2.4-1.6c-3,0-3.1,0.1-4.6,7.1c-0.7,2.9-0.9,4.6-0.9,5.7c0,1.4,0.7,1.5,2.5,1.5C726.3,111,726.8,110.8,727.4,109.2z"
		/>
	<path style="fill:#FFFFFF;" d="M754.7,85.3h15l-1,6.2h0.7c3.2-5.5,5.9-6.8,12.6-6.8l-2.9,13.5c-9.7,0-12,1.8-14.1,11.7l-2.7,12.4
		h-15.5L754.7,85.3z"/>
	<path style="fill:#FFFFFF;" d="M786.5,85.3h15.8l-7.8,37.1h-15.8L786.5,85.3z"/>
</g>
<g id="_x31_18_x2C__forest_x2C__camping_x2C__jungle_x2C__tree_x2C__pines">
	<g>
		<path style="fill-rule:evenodd;clip-rule:evenodd;fill:#FFFFFF;" d="M105.7,144v18.2h15.4V144H105.7z M41.5,111.5L14,141.3h34.4
			l0.1-0.2L71,116.8c-4.3,0.1-8.6-0.1-12.9-0.8C52.6,115.2,47.1,113.7,41.5,111.5z M52.1,85.5l-20.5,22.2h9.6c0.4,0,0.8,0.1,1.1,0.4
			c5.5,2.2,11,3.7,16.3,4.5c5.3,0.8,10.5,1,15.7,0.6l5.3-5.8H68.9c-0.4,0-0.8-0.1-1.2-0.5c-0.7-0.6-0.7-1.7-0.1-2.4l17.7-19.1
			c-5.4,2.2-10.9,3.3-16.5,3.3C63.4,88.7,57.8,87.6,52.1,85.5z M80,63.7L80,63.7L80,63.7L80,63.7L80,63.7L80,63.7h2.7L68.3,46.2
			L54.3,63.7h2c0.1,0,0.3,0,0.4,0c0.3-0.1,0.7-0.1,1,0.1c3.8,1.5,7.4,2.2,11,2.2c3.6,0,7.1-0.7,10.5-2.2
			C79.5,63.8,79.7,63.7,80,63.7z M83.9,79.2c-0.9-0.1-1.6-0.8-1.6-1.7c0-0.5,0.2-0.9,0.5-1.2l2.1-2.6l-5.4-6.3
			c-3.5,1.4-7.1,2-10.8,2c-3.8,0-7.7-0.7-11.7-2.2L45.2,81.8h6.4c0.3,0,0.5,0.1,0.8,0.2c5.6,2.2,11.1,3.4,16.5,3.3
			c5.4,0,10.7-1.1,16-3.4c0.9-0.4,1.9,0,2.3,0.9c0.1,0.2,0.1,0.4,0.1,0.6l3.8-4.2h-0.6h0L83.9,79.2L83.9,79.2L83.9,79.2L83.9,79.2
			L83.9,79.2L83.9,79.2z M61.6,144.8v16.4h5.2v-16.4H61.6z M170.2,63.8c0.1,0,0.3,0,0.4,0h2l-13.9-17.5l-11.8,17.5h0.1h0h0h0h0l0,0
			c0.2,0,0.4,0.1,0.6,0.1c3.4,1.5,7,2.2,10.5,2.2c3.6,0,7.3-0.7,11-2.2C169.5,63.7,169.8,63.7,170.2,63.8z M174.6,81.9
			c0.2-0.1,0.5-0.2,0.7-0.2h6.4l-11.9-14.5c-3.9,1.5-7.9,2.3-11.7,2.2c-3.7,0-7.2-0.7-10.8-2l-5.5,6.4l2.1,2.4
			c0.3,0.3,0.5,0.7,0.5,1.2c0,1-0.8,1.7-1.7,1.7h-7l3.9,4.3c0-0.2,0-0.4,0.1-0.7c0.4-0.9,1.4-1.3,2.2-0.9c5.2,2.2,10.6,3.4,16,3.4
			C163.5,85.3,169,84.2,174.6,81.9z M184.7,108.1c0.3-0.3,0.7-0.4,1.1-0.4h9.5l-20.5-22.2c-5.7,2.1-11.3,3.2-16.8,3.2
			c-5.6,0-11.2-1.1-16.6-3.4l17.7,19.1c0.3,0.3,0.5,0.8,0.5,1.2c0,1-0.8,1.7-1.7,1.7h-10.7l5.3,5.8c5.2,0.4,10.5,0.3,15.8-0.6
			C173.7,111.8,179.2,110.3,184.7,108.1z M178.5,141.3h34.5l-27.5-29.8c-5.6,2.2-11.1,3.7-16.5,4.5c-4.4,0.7-8.7,1-13,0.8l22.4,24.2
			C178.3,141.1,178.4,141.2,178.5,141.3z M165.3,161.2v-16.4h-5.2v16.4H165.3z M125.9,56.1L125.9,56.1L125.9,56.1L125.9,56.1
			L125.9,56.1L125.9,56.1h3.3l-16-19.4L97.6,56.1h2.5c0.1,0,0.3,0,0.4,0c0.3-0.1,0.7-0.1,1,0.1c4.1,1.6,8.1,2.4,12,2.4
			c3.9,0,7.8-0.8,11.5-2.4C125.4,56.2,125.6,56.1,125.9,56.1z M131.1,75.9L131.1,75.9L131.1,75.9L131.1,75.9L131.1,75.9L131.1,75.9
			L131.1,75.9l0.1-0.1h0l0,0l0,0h0l0,0l0,0l0,0h0l0,0h0h0h0l0,0l0,0h0h0l0,0l0,0l0,0h0l0,0h0l0,0l0,0h0h0l0,0h0h0h0l0,0h0h0l0,0l0,0
			h0l0,0h0h0h0l0,0h0h0l0,0h0h0h0h0h0h0h0h0h0l7.1,0l-13.7-15.9c-3.8,1.5-7.8,2.2-11.8,2.3c-4.2,0-8.4-0.8-12.8-2.5L88.5,74.8
			l-0.8,1h2.7h0h4.5c0.3,0,0.5,0.1,0.8,0.2c6.1,2.4,12.2,3.7,18,3.6C119.7,79.6,125.4,78.3,131.1,75.9z M142.1,104.4
			c0.3-0.3,0.7-0.4,1.1-0.4l10.7,0l-22.6-24.5c-5.8,2.3-11.7,3.5-17.6,3.5c-6,0-12.1-1.1-18.3-3.5L72.9,104h10.7
			c0.4,0,0.8,0.1,1.1,0.4c9.9,3.9,19.7,5.8,29.3,5.8C123.5,110.2,132.9,108.3,142.1,104.4z M84,107.8l-30.3,32.8H104h18.9h50.3
			l-30.2-32.7c-9.4,3.8-19.1,5.8-28.9,5.8C104.2,113.7,94.2,111.8,84,107.8z"/>
	</g>
</g>
<g id="Layer_1_00000121280000816817959920000000882230360127541942_">
</g>
</svg>
