<?xml version="1.0" encoding="utf-8"?>
<!-- Generator: Adobe Illustrator 26.1.0, SVG Export Plug-In . SVG Version: 6.00 Build 0)  -->
<svg version="1.1" id="Layer_1" xmlns="http://www.w3.org/2000/svg" xmlns:xlink="http://www.w3.org/1999/xlink" x="0px" y="0px"
	 viewBox="0 0 1056.6 202" style="enable-background:new 0 0 1056.6 202;" xml:space="preserve">
<g id="Livello_1_1_">
</g>
<g id="Layer_1_00000121280000816817959920000000882230360127541942_">
</g>
<g>
	<path style="fill:#FFFFFF;" d="M264.2,72h23.3l0.6,23.5h0.7L299.3,72h23.2l-10.7,50h-16.2l6-28.1h-0.8L288.1,122h-11.3l-0.7-28.1
		h-0.8l-6,28.1h-15.7L264.2,72z"/>
	<path style="fill:#FFFFFF;" d="M320.5,113.8c0-2.6,0.3-6,1.2-10.2c3.1-15.1,7-19.2,14.4-19.2c4,0,7.7,0.5,9.6,4.2h0.7l1.2-3.7h15.1
		l-7.8,37.1h-15l0.7-4.1h-0.8c-2.6,3.9-6,4.7-9.3,4.7C323.7,122.6,320.5,120.7,320.5,113.8z M341.9,108.8c0.7-2,2.3-9,2.3-10.8
		c0-1.5-0.5-1.6-2.4-1.6c-3,0-3.1,0.1-4.6,7.1c-0.7,2.9-0.9,4.6-0.9,5.7c0,1.4,0.7,1.5,2.5,1.5C340.9,110.6,341.4,110.5,341.9,108.8
		z"/>
	<path style="fill:#FFFFFF;" d="M363,113c0-2.7,0.4-5.9,1.2-9.4c2.3-11.3,4.1-19.2,19.6-19.2c4.9,0,9.2,0.4,13.2,1.3l-2.2,10
		c-1.7-0.2-4.9-0.4-7.5-0.4c-5.2,0-5.7,1.1-7.3,8.2c-0.6,2.5-0.9,4.3-0.9,5.5c0,2.3,1.2,2.7,4.7,2.7c2.3,0,5.6-0.2,8.1-0.5l-2.1,10
		c-3.9,0.9-7.8,1.4-11.5,1.4C366.1,122.6,363,118.9,363,113z"/>
	<path style="fill:#FFFFFF;" d="M396.9,113.4c0-2.7,0.3-5.9,1.1-9.8c2.8-13.7,4.2-19.2,20.9-19.2c13.1,0,16.5,2.1,16.5,8
		c0,2.8-1.1,7.6-1.9,11.2l-0.7,2.8h-20.2c-0.1,0.7-0.5,2.4-0.5,3c0,2.3,0.6,2.3,8.1,2.3c2.5,0,7.1-0.2,11.3-0.5l-2.1,10
		c-2.9,0.9-8.6,1.5-13.7,1.5C401,122.6,396.9,119.9,396.9,113.4z M420.1,100.2l0.2-1.2c0.3-1.7,0.5-2.5,0.5-3.3
		c0-1.5-0.7-1.5-2.6-1.5c-3.1,0-3.1,0.1-4.4,6H420.1z"/>
	<path style="fill:#FFFFFF;" d="M443.4,85h15l-1,6.2h0.7c3.2-5.5,5.9-6.8,12.6-6.8l-2.9,13.5c-9.7,0-12,1.8-14.1,11.7L451,122h-15.5
		L443.4,85z"/>
	<path style="fill:#FFFFFF;" d="M469,113.8c0-2.6,0.3-6,1.2-10.2c3.1-15.1,7-19.2,14.4-19.2c4,0,7.7,0.5,9.6,4.2h0.7L496,85h15.1
		l-7.8,37.1h-15l0.7-4.1h-0.8c-2.6,3.9-6,4.7-9.3,4.7C472.2,122.6,469,120.7,469,113.8z M490.4,108.8c0.7-2,2.3-9,2.3-10.8
		c0-1.5-0.5-1.6-2.4-1.6c-3,0-3.1,0.1-4.6,7.1c-0.7,2.9-0.9,4.6-0.9,5.7c0,1.4,0.7,1.5,2.5,1.5C489.3,110.6,489.8,110.5,490.4,108.8
		z"/>
	<path style="fill:#FFFFFF;" d="M530.3,113.9c0-2.6,0.6-6.1,1.5-10.4c3.4-15.6,4.4-19.1,21-19.1c13.4,0,17.4,2.1,17.4,8.8
		c0,2.6-0.5,6.1-1.5,10.3c-3.5,15.6-4.6,19.1-21.1,19.1C534.3,122.6,530.3,120.5,530.3,113.9z M553.4,103.5c0.7-3.3,1-5.3,1-6.5
		c0-1.5-0.8-1.7-2.5-1.7c-3.1,0-3.1,0.4-4.7,8.2c-0.7,3.5-1.1,5.5-1.1,6.6c0,1.5,0.7,1.6,2.5,1.6
		C551.7,111.7,551.8,111.4,553.4,103.5z"/>
	<path style="fill:#FFFFFF;" d="M570.7,135.9l2-9.8h9.6c8,0,8.2,0,9.4-5.6c0.3-1.2,0.5-2.5,0.8-3.8h-0.7c-3.1,3.9-6.8,4.7-9.5,4.7
		c-7.2,0-9.4-2.8-9.4-7.8c0-1.9,0.3-4.1,0.9-6.6l4.7-22h15.6l-3.9,18.4c-0.5,2.4-0.8,3.9-0.8,4.7c0,1.3,0.6,1.3,2,1.3
		c2.5,0,2.7-0.1,4-6l3.9-18.4h15.6l-7,33.1c-2.6,12.4-3.6,19-23.8,19C579.2,137,573.6,136.6,570.7,135.9z"/>
	<path style="fill:#FFFFFF;" d="M615.5,114.8c0-2,0.7-5.6,1.4-9.1l4.4-20.7h15.5l-3.9,18.6c-0.5,2.3-0.9,4.6-0.9,5.5
		c0,1.4,0.5,1.5,1.7,1.5c2.8,0,3-0.4,4.2-6l4.2-19.6h15.5l-7.8,37.1h-15l0.6-4.1h-0.7c-3.1,3.9-7.2,4.7-10,4.7
		C617.5,122.6,615.5,120,615.5,114.8z"/>
	<path style="fill:#FFFFFF;" d="M664.1,85h15l-0.6,4.1h0.7c3.1-3.9,7.2-4.7,10-4.7c7,0,9,2.5,9,7.6c0,2-0.6,5.6-1.3,9.1l-4.5,21
		h-15.5l3.9-18.6c0.5-2.3,0.9-4.6,0.9-5.5c0-1.4-0.5-1.5-1.7-1.5c-2.8,0-3,0.4-4.2,6l-4.2,19.6h-15.5L664.1,85z"/>
	<path style="fill:#FFFFFF;" d="M710.4,68h15.8l-11.4,54h-15.8L710.4,68z"/>
	<path style="fill:#FFFFFF;" d="M722.9,113.8c0-2.6,0.3-6,1.2-10.2c3.1-15.1,7-19.2,14.4-19.2c4,0,7.7,0.5,9.6,4.2h0.7l1.2-3.7H765
		l-7.8,37.1h-15l0.7-4.1H742c-2.6,3.9-6,4.7-9.3,4.7C726,122.6,722.9,120.7,722.9,113.8z M744.3,108.8c0.7-2,2.3-9,2.3-10.8
		c0-1.5-0.5-1.6-2.4-1.6c-3,0-3.1,0.1-4.6,7.1c-0.7,2.9-0.9,4.6-0.9,5.7c0,1.4,0.7,1.5,2.5,1.5C743.2,110.6,743.7,110.5,744.3,108.8
		z"/>
	<path style="fill:#FFFFFF;" d="M771.5,85h15l-1,6.2h0.7c3.2-5.5,5.9-6.8,12.6-6.8L796,97.9c-9.7,0-12,1.8-14.1,11.7l-2.7,12.4
		h-15.5L771.5,85z"/>
	<path style="fill:#FFFFFF;" d="M803.4,85h15.8l-7.8,37.1h-15.8L803.4,85z"/>
</g>
<g>
	<polygon style="fill-rule:evenodd;clip-rule:evenodd;fill:#FFFFFF;" points="95.6,91.7 84.1,75.3 100.5,86.8 100.1,89 92.1,83.4 
		99.7,91 	"/>
	<polygon style="fill-rule:evenodd;clip-rule:evenodd;fill:#FFFFFF;" points="100.5,118.3 84.1,129.8 95.6,113.4 97.7,113.8 
		92.1,121.7 99.7,114.1 	"/>
	<polygon style="fill-rule:evenodd;clip-rule:evenodd;fill:#FFFFFF;" points="127,113.4 138.5,129.8 122.1,118.3 122.5,116.1 
		130.5,121.7 122.9,114.1 	"/>
	<path style="fill-rule:evenodd;clip-rule:evenodd;fill:#FFFFFF;" d="M118.5,48.3c24.4,3.3,43.8,22.6,47,47L153,93.1
		c-3.6-16.1-16.2-28.7-32.3-32.3L118.5,48.3z M165.6,109.8c-3.2,24.5-22.6,43.8-47,47l2.2-12.5c16.1-3.6,28.7-16.3,32.3-32.3
		L165.6,109.8z M104.1,156.8c-24.4-3.2-43.8-22.6-47-47l12.5,2.2c3.6,16.1,16.3,28.7,32.3,32.3L104.1,156.8z M57.1,95.3
		c3.2-24.4,22.6-43.8,47-47l-2.2,12.5c-16,3.6-28.7,16.3-32.3,32.3L57.1,95.3z"/>
	<polygon style="fill-rule:evenodd;clip-rule:evenodd;fill:#FFFFFF;" points="138.5,75.3 127,91.7 124.9,91.4 130.5,83.4 122.9,91 
		122.9,91 122.1,86.8 	"/>
	<path style="fill-rule:evenodd;clip-rule:evenodd;fill:#FFFFFF;" d="M111.3,25.6L122.8,91l65.4,11.5l-65.4,11.6l-11.5,65.4
		l-11.6-65.4l-65.4-11.6L99.7,91L111.3,25.6z M57.1,102.6h54.2l8.1-8.1l-8.1-46v54.2l8.1,8.1l46.1-8.1h-54.2l-8.1,8.1l8.1,46.1
		v-54.2l-8.1-8.1L57.1,102.6z"/>
	<polygon style="fill:#FFFFFF;" points="105.6,22 105.6,7.6 108.4,7.6 114.3,17.2 114.3,7.6 117,7.6 117,22 114.1,22 108.3,12.5 
		108.3,22 	"/>
	<path style="fill:#FFFFFF;" d="M105.4,192.6l2.8-0.3c0.2,0.9,0.5,1.6,1,2.1c0.5,0.5,1.2,0.7,2.1,0.7c0.9,0,1.7-0.2,2.1-0.6
		c0.5-0.4,0.7-0.9,0.7-1.4c0-0.3-0.1-0.6-0.3-0.9c-0.2-0.3-0.5-0.5-1-0.7c-0.3-0.1-1.1-0.3-2.3-0.6c-1.6-0.4-2.6-0.9-3.3-1.4
		c-0.9-0.8-1.3-1.8-1.3-2.9c0-0.7,0.2-1.4,0.6-2.1c0.4-0.7,1-1.1,1.8-1.5s1.7-0.5,2.8-0.5c1.8,0,3.2,0.4,4.1,1.2
		c0.9,0.8,1.4,1.9,1.4,3.2l-2.9,0.1c-0.1-0.7-0.4-1.3-0.8-1.6c-0.4-0.3-1-0.5-1.9-0.5c-0.9,0-1.5,0.2-2,0.5
		c-0.3,0.2-0.5,0.5-0.5,0.9c0,0.3,0.2,0.7,0.5,0.9c0.3,0.3,1.2,0.7,2.7,1c1.4,0.3,2.5,0.7,3.1,1c0.7,0.3,1.2,0.9,1.6,1.5
		c0.3,0.6,0.5,1.4,0.5,2.3c0,0.8-0.2,1.6-0.7,2.3c-0.5,0.7-1.1,1.2-1.9,1.6c-0.9,0.3-1.9,0.5-3.1,0.5c-1.8,0-3.2-0.4-4.2-1.2
		C106.2,195.5,105.6,194.2,105.4,192.6L105.4,192.6z"/>
	<polygon style="fill:#FFFFFF;" points="194.5,109.8 194.5,95.3 205.1,95.3 205.1,97.8 197.4,97.8 197.4,101 204.6,101 204.6,103.4 
		197.4,103.4 197.4,107.3 205.4,107.3 205.4,109.8 	"/>
	<polygon style="fill:#FFFFFF;" points="31.6,108.6 17.2,112 17.2,109 27.1,106.9 17.2,104.2 17.2,100.8 27.2,98.2 17.2,96 
		17.2,93.1 31.6,96.6 31.6,99.7 20.8,102.6 31.6,105.4 	"/>
</g>
</svg>
