<?xml version="1.0" encoding="utf-8"?>
<!-- Generator: Adobe Illustrator 26.1.0, SVG Export Plug-In . SVG Version: 6.00 Build 0)  -->
<svg version="1.1" id="Layer_1" xmlns="http://www.w3.org/2000/svg" xmlns:xlink="http://www.w3.org/1999/xlink" x="0px" y="0px"
	 viewBox="0 0 1056.6 202" style="enable-background:new 0 0 1056.6 202;" xml:space="preserve">
<g id="Livello_1_1_">
</g>
<g id="Layer_1_00000121280000816817959920000000882230360127541942_">
</g>
<path style="fill:#FFFFFF;" d="M525.9,25c0,5.2,0,10.3,0,16.7c-14.2,0-28.2,0-42.8,0c0,14.5,0,27.8,0,41.7c8.6,0,17.1,0,26.4,0
	c0-3.9,0-7.9,0-12.6c-5.9,0-11.4,0-16.8,0c-0.2-14,1.6-15.8,14.8-15.8c3.1,0,6.2-0.1,9.3,0.1c6.2,0.4,9.6,3.6,9.7,9.9
	c0,8.3,0.1,16.5,0,24.8c0,6.3-3.4,9.8-9.7,9.9c-13.6,0.2-27.2,0.2-40.7,0c-6.4-0.1-9.6-4.1-9.7-10.1c-0.2-17.7-0.5-35.5,0.3-53.2
	c0.2-3.9,4.8-7.7,7.4-11.5C491.2,25,508.5,25,525.9,25z"/>
<path style="fill:#FFFFFF;" d="M587.1,25c2.6,3.8,7.4,7.6,7.6,11.5c0.8,20.7,0.4,41.5,0.4,62.9c-5.5,0-10.3,0-16.1,0
	c-0.3-5.8-0.6-11.8-1-18.1c-9.1,0-17.6,0-26.7,0c-0.3,6.2-0.6,11.9-0.9,18.2c-5.2,0-10,0-15.7,0c0-22.3-0.3-44.2,0.3-66.1
	c0.1-2.8,4.9-5.6,7.5-8.3C557.4,25,572.2,25,587.1,25z M551.2,64c9.5,0,18,0,26.4,0c0-7.5,0-14.3,0-21.1c-9.3,0-17.7,0-26.4,0
	C551.2,50.1,551.2,56.7,551.2,64z"/>
<path style="fill:#FFFFFF;" d="M813.4,94.9c-2.3,1.4-4.5,4-6.9,4.1c-17.2,0.3-34.3,0.2-51.9,0.2c0-5,0-9.2,0-14.5
	c14.2,0,28.2,0,42.9,0c0-4.9,0-8.7,0-14c-9.4,0-19.1,0-28.9,0c-11.8-0.1-14.2-2.4-14.4-13.8c-0.1-6.7-0.1-13.5,0.1-20.2
	c0.2-6.4,3-10.5,10.1-10.5c16.3,0.2,32.6,0.4,49,0.6c0,1.2,0,2.5,0,3.7c-2.5,10-9.1,12.4-18.8,11.4c-7.8-0.9-15.8-0.2-24.1-0.2
	c0,4.8,0,8.6,0,13.6c10.2,0,19.9-0.5,29.6,0.2c4.5,0.3,8.9,2.9,13.3,4.4C813.4,71.6,813.4,83.3,813.4,94.9z"/>
<path style="fill:#FFFFFF;" d="M744.8,25c0.3,5.4,0.7,10.7,1.1,17c-12,0-22.7,0-33.7,0c0,4.5,0,8,0,12.5c5.9,0.3,11.6,0.7,17.3,1
	c-0.3,12.9-1.1,13.7-17.2,16.2c0,3.5,0,7.1,0,12c10.6,0,21.5,0,32.9,0c0,6,0,10.7,0,16c-13.9,0-27.1,0.2-40.3-0.1
	c-5.8-0.1-8.9-3.5-8.9-9.5c0.1-18.1-0.4-36.1,0.4-54.2c0.2-3.8,4.9-7.3,7.6-11C717.6,25,731.2,25,744.8,25z"/>
<path style="fill:#FFFFFF;" d="M271.7,25c0,19.2,0,38.5,0,58.9c11.9,0,22.8,0,34.3,0c0,5.6,0,10.1,0,15.4c-14,0-27.8,0.5-41.5-0.4
	c-2.7-0.2-7.3-5.5-7.4-8.5c-0.6-21.1-0.3-42.2-0.3-63.6c4.7-0.7,8.9-1.3,13.1-1.9C270.5,25,271.1,25,271.7,25z"/>
<path style="fill:#FFFFFF;" d="M129.5,189.4c0-35.4-0.1-68.8,0.1-102.1c0-2.3,1.5-5.7,3.3-6.8c31-18.1,62.2-35.9,95.1-54.8
	c0,9.9,0.5,18.1-0.3,26.1c-0.2,2.5-3.6,5.3-6.2,6.8c-18.8,11.1-37.7,22.1-56.8,32.7c-5,2.8-7,5.9-6.9,11.6
	c0.4,12.8,0.1,25.6,0.1,40.9c12.9-7.3,24-14,35.5-20c5.6-3,7.3-6.8,4.9-13.2c-6.3,3.5-12.4,6.8-19.9,10.9c0-9.5-0.2-17.6,0.1-25.7
	c0.1-1.7,1.5-4.1,3-5c14.8-8.8,29.7-17.3,46.4-26.9c0,13.8-1.6,26.1,0.3,37.9c3.9,24-5.4,37.9-27.7,47.8
	c-21.6,9.5-41.3,23.2-61.8,34.9C136.5,185.9,133.8,187.2,129.5,189.4z"/>
<path style="fill:#FFFFFF;" d="M120.1,183.4c-11.4-6.5-21.2-12.1-31-17.7c-16.8-9.6-33.7-19.1-50.4-29c-2.6-1.5-5.9-4.6-6-6.9
	c-0.4-33.9-0.3-67.8-0.3-103.4c9.1,5.2,17.2,9.3,24.7,14.5c2.1,1.4,2.9,5.7,2.9,8.7c0.2,20.5,0.5,41.1-0.1,61.6
	c-0.2,7.2,2.3,11,8.5,14.3c14.7,7.8,28.7,16.8,43.4,24.5c6.4,3.4,9.1,7.3,8.3,14.4C119.6,170,120.1,175.8,120.1,183.4z"/>
<path style="fill:#FFFFFF;" d="M619.1,99.5c-6,0-10.2,0-15.9,0c0-4.8,0-9.3,0-13.7c0-16.2,0.1-32.4,0-48.6c0-7.1,3.3-10.9,10.6-10.9
	c21,0,42,0,63,0c6.4,0,10.2,3.3,10.2,9.4c0.3,21,0.1,42.1,0.1,63.7c-5.1,0-9.5,0-15.2,0c0-19.1,0-37.9,0-57.1c-6.7,0-12.1,0-18.7,0
	c0,18.8,0,37.6,0,57c-5.6,0-10,0-15.6,0c0-18.8,0-37.6,0-56.9c-6.5,0-11.9,0-18.4,0C619.1,60.9,619.1,79.7,619.1,99.5z"/>
<path style="fill:#FFFFFF;" d="M442.4,55.2c-3.6,14.3-3.6,14.3-18.2,16c0,3.8,0,7.6,0,12.9c10.8,0,21.7,0,32.9,0c0,5.6,0,9.7,0,14.9
	c-14.2,0-28.3,0.4-42.3-0.4c-2.3-0.1-6.1-5.4-6.2-8.4c-0.6-18-0.3-36.1-0.3-54.2c0-6.4,3.4-9.6,9.7-9.7c12.6-0.1,25.3,0,38.7,0
	c0,4.9,0,9.3,0,14.7c-10.4,0-21.1,0-32.5,0c0,5,0,9.1,0,14.2C430.1,55.2,435.9,55.2,442.4,55.2z"/>
<path style="fill:#FFFFFF;" d="M403.9,27.2c-6.7,22.9-13.2,45.2-20.1,67.3c-0.7,2.3-4.3,4.9-6.8,5.1c-15.7,1.4-15.7,1.2-20.1-13.7
	c-5.6-19.3-11.2-38.7-16.7-58c13-4.1,14.4-3.4,18.1,8.6c2.1,7,4.2,14.1,6.3,21.1c2.1,7,4.1,14,8,21.5c1.3-4,2.6-8,3.8-12
	c3-10,5.8-20,8.8-29.9C388.9,24.8,388.9,24.8,403.9,27.2z"/>
<path style="fill:#FFFFFF;" d="M330.2,98.8c-4.6,0-8.8,0-13.7,0c0-23.6,0-47.2,0-71.6c4.3,0,8.7,0,13.7,0
	C330.2,50.9,330.2,74.5,330.2,98.8z"/>
</svg>
