<?xml version="1.0" encoding="utf-8"?>
<!-- Generator: Adobe Illustrator 24.1.2, SVG Export Plug-In . SVG Version: 6.00 Build 0)  -->
<svg version="1.1" id="Layer_1" xmlns="http://www.w3.org/2000/svg" xmlns:xlink="http://www.w3.org/1999/xlink" x="0px" y="0px"
	 viewBox="0 0 7272.1 1727.2" style="enable-background:new 0 0 7272.1 1727.2;" xml:space="preserve">
<style type="text/css">
	.st0{fill:#F29022;}
	.st1{fill:#FFFFFF;}
</style>
<path class="st0" d="M670.9,689.6c-174.7,10.9-96.9,238.4,96.9,226.9C957.8,904.5,858.3,678.1,670.9,689.6z"/>
<path class="st0" d="M597.5,548.7c-311.8,0-563.6,251.8-563.6,563.6s251.9,563.6,563.6,563.6s563.6-251.8,563.6-563.6l0,0
	C1161.8,801.8,909.3,548.7,597.5,548.7z M597.5,1617.9c-278.6,0-505.6-225.7-505.6-504.3s225.7-505.6,504.3-505.6
	s505.6,225.7,505.6,504.3l0,0C1101.9,1392.2,876.2,1617.9,597.5,1617.9z M581,155.3C446.5,256.7,470.1,411.6,470.1,411.6
	S385.2,193,276.2,59.7c-15.3,171.5,38.9,400.4,38.9,400.4S247.6,318.6,78,310.3c138.3,80.3,192.5,224.4,205.3,263.3
	c82.9-51,177.2-80.3,275.4-82.9C549.1,454.4,510.2,301.3,581,155.3z"/>
<path class="st1" d="M1386.6,1186v209.5h-86.1V854.2h184.6c61.2,0,108.7,14.7,140.4,44.2c31.7,29.4,46.4,71.3,46.4,120
	c0,52.1-17,90.6-48.7,120c-31.7,29.4-79.3,44.2-140.4,44.2L1386.6,1186L1386.6,1186z M1583.6,1021.8c0-29.4-7.9-54.4-24.9-69.1
	s-44.2-24.9-81.5-24.9h-90.6v186.8h86.1C1546.2,1114.7,1583.6,1083,1583.6,1021.8L1583.6,1021.8z M2030.9,1395.5L1895,1179.3h-61.2
	v216.3h-86.1V854.3h189.1c61.2,0,108.7,14.7,140.4,44.2c31.7,29.4,46.4,69.1,46.4,120c0,41.9-12.5,75.9-34,103.1
	c-24.9,27.2-58.9,44.2-103.1,52.1l142.7,218.6L2030.9,1395.5L2030.9,1395.5z M1833.9,1117h96.3c71.3,0,105.3-31.7,105.3-94
	c0-29.4-7.9-52.1-24.9-69.1s-44.2-24.9-81.5-24.9h-96.3L1833.9,1117L1833.9,1117z M2528,1276.6h-228.7l-41.9,117.8h-94l199.3-531.1
	h100.8l199.3,531.1h-94L2528,1276.6z M2503.1,1211l-88.3-253.7l-88.3,253.7H2503.1z M3104.4,897.3c41.9,31.7,73.6,79.3,86.1,130.2
	h-90.6c-12.5-29.4-31.7-54.4-58.9-69.1c-29.4-17-61.2-27.2-96.3-27.2c-31.7,0-63.4,7.9-90.6,24.9c-27.2,14.7-48.7,39.6-61.2,66.8
	c-14.7,31.7-22.6,66.8-22.6,103.1c0,37.4,7.9,73.6,22.6,105.3c14.7,29.4,37.4,52.1,63.4,69.1c29.4,17,63.4,24.9,96.3,24.9
	c41.9,0,83.8-14.7,115.5-41.9s52.1-66.8,58.9-113.2h-199.3v-63.4h270.6v83.8c-4.5,39.6-19.3,75.9-41.9,108.7
	c-22.6,31.7-52.1,58.9-88.3,79.3c-39.6,19.3-81.5,29.4-125.7,29.4c-48.7,0-96.3-12.5-140.4-34c-39.6-22.6-71.3-56.6-94-98.5
	c-44.2-90.6-44.2-194.8,0-285.4c22.6-41.9,54.4-73.6,94-98.5c41.9-24.9,90.6-37.4,138.2-34C3008.2,848.6,3060.3,865.6,3104.4,897.3
	L3104.4,897.3z M3815.6,863.3v531.1h-88.3V995.8l-155.1,398.6h-75.9l-155.1-398.6v398.6h-86.1v-530h105.3l176.7,425.8l172.1-425.8
	C3709.2,863.3,3815.6,863.3,3815.6,863.3z M4243.7,1276.6H4015l-41.9,117.8h-94l199.3-531.1h100.8l199.3,531.1h-94L4243.7,1276.6z
	 M4218.7,1211l-88.3-253.7l-88.3,253.7H4218.7z M4749.8,854.2v71.3h-150.6v470h-88.3v-470h-150.6v-71.3L4749.8,854.2L4749.8,854.2z
	 M4885.7,854.2v541.3h-86.1V854.2L4885.7,854.2L4885.7,854.2z M5377.2,899.5c44.2,34,75.9,83.8,88.3,138.2h-94
	c-12.5-31.7-31.7-58.9-61.2-79.3c-29.4-19.3-66.8-29.4-103.1-29.4c-29.4,0-58.9,7.9-86.1,24.9c-27.2,17-46.4,39.6-58.9,69.1
	c-29.4,66.8-29.4,140.4,0,203.8c12.5,27.2,34,52.1,58.9,69.1c27.2,14.7,56.6,24.9,86.1,24.9c37.4,0,71.3-10.2,103.1-29.4
	c27.2-19.3,48.7-46.4,61.2-75.9h94c-12.5,54.4-44.2,103.1-88.3,138.2c-44.2,34-98.5,48.7-165.3,48.7c-46.4,0-94-12.5-135.9-34
	c-39.6-22.6-71.3-56.6-90.6-98.5c-41.9-90.6-41.9-194.8,0-285.4c19.3-39.6,52.1-73.6,90.6-98.5c41.9-24.9,88.3-37.4,135.9-34
	C5278.7,848.6,5333,865.6,5377.2,899.5L5377.2,899.5z M5739.5,1186v209.5h-87.2V854.2h184.6c61.2,0,108.7,14.7,140.4,44.2
	c31.7,29.4,46.4,71.3,46.4,120c0,52.1-17,90.6-48.7,120s-79.3,44.2-140.4,44.2L5739.5,1186L5739.5,1186z M5933.1,1021.8
	c0-29.4-7.9-54.4-24.9-69.1s-44.2-24.9-81.5-24.9h-88.3v186.8h86.1C5896.9,1114.7,5933.1,1083,5933.1,1021.8L5933.1,1021.8z
	 M6172.1,1326.5h186.8v69.1H6086V854.3h86.1V1326.5z M6757.5,1276.6h-228.7l-41.9,117.8h-94l199.3-531.1H6693l199.3,531.1h-94
	L6757.5,1276.6z M6732.6,1211l-88.3-253.7L6556,1211H6732.6z M7242.2,854.2l-180.1,344.3v197h-88.3v-197l-180.1-344.3h100.8
	l123.4,251.4l123.4-251.4L7242.2,854.2L7242.2,854.2z"/>
</svg>
