<?xml version="1.0" encoding="utf-8"?>
<!-- Generator: Adobe Illustrator 26.1.0, SVG Export Plug-In . SVG Version: 6.00 Build 0)  -->
<svg version="1.1" id="Layer_1" xmlns="http://www.w3.org/2000/svg" xmlns:xlink="http://www.w3.org/1999/xlink" x="0px" y="0px"
	 viewBox="0 0 1056.6 202" style="enable-background:new 0 0 1056.6 202;" xml:space="preserve">
<g id="Livello_1_1_">
</g>
<g>
	<path style="fill:#FFFFFF;" d="M264.2,72.1h24.2c10.8,0,14,3.2,14,9.9c0,2.3-0.4,5.1-1.1,8.3c-2.3,10.2-4.6,16.6-18.8,16.6h-8.6
		l-3.3,15.2h-16.9L264.2,72.1z M278.6,95.1c4.2,0,4.8-0.4,5.9-5.5c0.3-1.6,0.5-2.8,0.5-3.6c0-1.9-1.1-2-4-2h-2.3l-2.4,11.1H278.6z"
		/>
	<path style="fill:#FFFFFF;" d="M300.7,113.9c0-2.6,0.3-6,1.2-10.2c3.1-15.1,7-19.2,14.4-19.2c4,0,7.7,0.5,9.6,4.2h0.7l1.2-3.7h15.1
		l-7.8,37.1h-15l0.7-4.1h-0.8c-2.6,3.9-6,4.7-9.3,4.7C303.9,122.7,300.7,120.7,300.7,113.9z M322.1,108.9c0.7-2,2.3-9,2.3-10.8
		c0-1.5-0.5-1.6-2.4-1.6c-3,0-3.1,0.1-4.6,7.1c-0.7,2.9-0.9,4.6-0.9,5.7c0,1.4,0.7,1.5,2.5,1.5C321,110.7,321.5,110.6,322.1,108.9z"
		/>
	<path style="fill:#FFFFFF;" d="M341.9,121.7l2-9.9c3.6,0.3,7.8,0.5,10,0.5c3.6,0,5.6,0,6.6-0.4c0.8-0.3,1-0.8,1-1.7
		c0-0.5-0.6-0.7-3.3-1.1l-8.4-1.2c-3.4-0.5-4.6-2.5-4.6-5.7c0-1.7,0.4-3.9,0.9-6.3c2.3-10.5,8.1-11.4,18.7-11.4
		c5.2,0,11.2,0.4,14.2,1l-2,9.9c-4.1-0.3-8.1-0.5-9.7-0.5c-3.6,0-5.5,0.1-6.3,0.5c-0.6,0.3-0.7,0.7-0.7,1.5c0,0.7,0.4,0.7,2.8,1
		l7.2,1.1c3.5,0.5,6.2,1.5,6.2,6.4c0,1.3-0.2,3.1-0.7,4.9c-2.5,11.8-8.1,12.4-18,12.4C352.6,122.7,346,122.3,341.9,121.7z"/>
	<path style="fill:#FFFFFF;" d="M390.3,68.1h15.6l-6.5,30.5h0.7L410.5,85H427l-15,18.2l7.6,18.9H403l-4.9-13.4h-0.7l-2.8,13.4H379
		L390.3,68.1z"/>
	<path style="fill:#FFFFFF;" d="M422.4,113.9c0-2.6,0.3-6,1.2-10.2c3.1-15.1,7-19.2,14.4-19.2c4,0,7.7,0.5,9.6,4.2h0.7l1.2-3.7h15.1
		l-7.8,37.1h-15l0.7-4.1h-0.8c-2.6,3.9-6,4.7-9.3,4.7C425.6,122.7,422.4,120.7,422.4,113.9z M443.8,108.9c0.7-2,2.3-9,2.3-10.8
		c0-1.5-0.5-1.6-2.4-1.6c-3,0-3.1,0.1-4.6,7.1c-0.7,2.9-0.9,4.6-0.9,5.7c0,1.4,0.7,1.5,2.5,1.5C442.7,110.7,443.3,110.6,443.8,108.9
		z"/>
	<path style="fill:#FFFFFF;" d="M474.7,68.1h15.8l-11.4,54h-15.8L474.7,68.1z"/>
	<path style="fill:#FFFFFF;" d="M485.7,136l2-9.8h9.6c8,0,8.2,0,9.4-5.6c0.3-1.2,0.5-2.5,0.8-3.8h-0.7c-3.1,3.9-6.8,4.7-9.5,4.7
		c-7.2,0-9.4-2.8-9.4-7.8c0-1.9,0.3-4.1,0.9-6.6l4.7-22H509l-3.9,18.4c-0.5,2.4-0.8,3.9-0.8,4.7c0,1.3,0.6,1.3,2,1.3
		c2.5,0,2.7-0.1,4-6l3.9-18.4h15.6l-7,33.1c-2.6,12.4-3.6,19-23.8,19C494.1,137.1,488.6,136.6,485.7,136z"/>
	<path style="fill:#FFFFFF;" d="M530.1,113.9c0-2.6,0.3-6,1.2-10.2c3.1-15.1,7-19.2,14.4-19.2c4,0,7.7,0.5,9.6,4.2h0.7l1.2-3.7h15.1
		l-7.8,37.1h-15l0.7-4.1h-0.8c-2.6,3.9-6,4.7-9.3,4.7C533.3,122.7,530.1,120.7,530.1,113.9z M551.5,108.9c0.7-2,2.3-9,2.3-10.8
		c0-1.5-0.5-1.6-2.4-1.6c-3,0-3.1,0.1-4.6,7.1c-0.7,2.9-0.9,4.6-0.9,5.7c0,1.4,0.7,1.5,2.5,1.5C550.5,110.7,551,110.6,551.5,108.9z"
		/>
	<path style="fill:#FFFFFF;" d="M592.8,111.5c0-3.7,1.2-8.6,2.4-15.1c3.9-20.2,5.3-24.9,26.2-24.9c15.5,0,20.1,2.9,20.1,11.3
		c0,3.8-0.9,8.6-2.3,15c-4.7,20.3-5.4,24.9-26,24.9C597.5,122.7,592.8,119.8,592.8,111.5z M622.3,97.1c1.2-5.5,1.8-8.9,1.8-10.8
		c0-2.6-1.2-2.7-4.1-2.7c-5.1,0-5.2,0.3-7.9,13.4c-1.2,5.7-2,9-2,10.9c0,2.5,1.2,2.5,4.1,2.5C619.3,110.6,619.4,110.3,622.3,97.1z"
		/>
	<path style="fill:#FFFFFF;" d="M640.9,136l2-9.8h9.6c8,0,8.2,0,9.4-5.6c0.3-1.2,0.5-2.5,0.8-3.8h-0.7c-3.1,3.9-6.8,4.7-9.5,4.7
		c-7.2,0-9.4-2.8-9.4-7.8c0-1.9,0.3-4.1,0.9-6.6l4.7-22h15.6l-3.9,18.4c-0.5,2.4-0.8,3.9-0.8,4.7c0,1.3,0.6,1.3,2,1.3
		c2.5,0,2.7-0.1,4-6l3.9-18.4H685l-7,33.1c-2.6,12.4-3.6,19-23.8,19C649.3,137.1,643.8,136.6,640.9,136z"/>
	<path style="fill:#FFFFFF;" d="M685.6,114.8c0-2,0.7-5.6,1.4-9.1l4.4-20.7h15.5l-3.9,18.6c-0.5,2.3-0.9,4.6-0.9,5.5
		c0,1.4,0.5,1.5,1.7,1.5c2.8,0,3-0.4,4.2-6l4.2-19.6h15.5l-7.8,37.1h-15l0.6-4.1h-0.7c-3.1,3.9-7.2,4.7-10,4.7
		C687.6,122.7,685.6,120.1,685.6,114.8z"/>
	<path style="fill:#FFFFFF;" d="M734.3,85h15l-0.6,4.1h0.7c3.1-3.9,7.2-4.7,10-4.7c7,0,9,2.5,9,7.6c0,2-0.6,5.6-1.3,9.1l-4.5,21
		h-15.5l3.9-18.6c0.5-2.3,0.9-4.6,0.9-5.5c0-1.4-0.5-1.5-1.7-1.5c-2.8,0-3,0.4-4.2,6l-4.2,19.6h-15.5L734.3,85z"/>
	<path style="fill:#FFFFFF;" d="M780.6,68.1h15.8l-11.4,54h-15.8L780.6,68.1z"/>
	<path style="fill:#FFFFFF;" d="M793,113.9c0-2.6,0.3-6,1.2-10.2c3.1-15.1,7-19.2,14.4-19.2c4,0,7.7,0.5,9.6,4.2h0.7L820,85h15.1
		l-7.8,37.1h-15l0.7-4.1h-0.8c-2.6,3.9-6,4.7-9.3,4.7C796.2,122.7,793,120.7,793,113.9z M814.4,108.9c0.7-2,2.3-9,2.3-10.8
		c0-1.5-0.5-1.6-2.4-1.6c-3,0-3.1,0.1-4.6,7.1c-0.7,2.9-0.9,4.6-0.9,5.7c0,1.4,0.7,1.5,2.5,1.5C813.3,110.7,813.8,110.6,814.4,108.9
		z"/>
	<path style="fill:#FFFFFF;" d="M841.7,85h15l-1,6.2h0.7c3.2-5.5,5.9-6.8,12.6-6.8L866.1,98c-9.7,0-12,1.8-14.1,11.7l-2.7,12.4
		h-15.5L841.7,85z"/>
	<path style="fill:#FFFFFF;" d="M873.5,85h15.8l-7.8,37.1h-15.8L873.5,85z"/>
</g>
<path style="fill:#FFFFFF;" d="M171.5,6.7c-10.8-1.9-23.7,20.9-29,50.8c-1.5,9.1-1.5,18.4,0.1,27.5c-7.1-4.9-15.2-8-23.6-8l0,0
	c-8.5,0-16.5,3-23.5,7.9c1.6-9.1,1.6-18.4,0.1-27.5c-5.2-30-18.2-52.7-29-50.8s-15.2,27.8-10,57.7c3.2,18,13,32.7,20.3,41.6
	c-1.1,2.1-2.1,4.3-3,6.5l-7.3,19.3c-3.5,9.1-3.5,19.2,0.1,28.3c8,20.1,28.4,34.4,52.3,34.4l0,0c24.3,0,45-14.8,52.7-35.4
	c3.2-8.8,3.1-18.5-0.3-27.2l-7.4-19.4c-0.8-2.2-1.9-4.4-3-6.5c7.3-8.9,17.2-23.6,20.3-41.6C186.7,34.4,182.3,8.6,171.5,6.7z
	 M67.6,12.4c0.1,0,0.2,0,0.2,0c4.8,0,16.6,15.8,22,46.1c2.1,11.7,0.7,23.1-1.5,32.4l0,0c-3,2.9-5.7,6.2-8.1,9.7
	c-6.7-8.5-15-21.6-17.8-37.2C56.8,31.4,63.5,13.2,67.6,12.4z M93.6,86.3L93.6,86.3z M78.5,103.2l-0.1,0.2L78.5,103.2z M166,134
	c2.9,7.4,3,15.6,0.3,23.1c-7.1,18.9-26.1,31.6-47.2,31.6c-20.7,0-39.5-12.3-46.9-30.7c-3.1-7.7-3.1-16.3-0.1-24l7.3-19.3
	C85.3,99.3,101.2,83,119,83s33.7,16.3,39.6,31.7L166,134z M159.5,103.2l0.1,0.2L159.5,103.2z M175.7,63.4
	c-2.8,15.7-11.1,28.8-17.8,37.3c-2.4-3.5-5.1-6.7-8.1-9.7l0,0c-2.2-9.3-3.6-20.8-1.5-32.5c5.3-30.2,17.2-46.1,22-46.1
	c0.1,0,0.2,0,0.2,0C174.6,13.2,181.3,31.4,175.7,63.4L175.7,63.4z"/>
<circle style="fill:#FFFFFF;" cx="141.1" cy="129.9" r="5.9"/>
<circle style="fill:#FFFFFF;" cx="97" cy="129.9" r="5.9"/>
<ellipse style="fill:#FFFFFF;" cx="151.3" cy="147.6" rx="6.6" ry="4.4"/>
<ellipse style="fill:#FFFFFF;" cx="86.7" cy="147.6" rx="6.6" ry="4.4"/>
<path style="fill:#FFFFFF;" d="M126.4,168.1c-1.4,0-2.6-1-2.9-2.4c1.6-0.7,3-1.8,4.1-3.2l1.1-1.5c1.8-2.1,1.7-5.2-0.1-7.3
	c-1.5-1.7-3.7-2.7-6.1-2.7h-7.2c-2.2,0-4.2,0.8-5.7,2.4c-2.1,2.1-2.2,5.4-0.4,7.7l1.1,1.5c1.1,1.4,2.5,2.5,4.2,3.2
	c-0.3,1.6-1.8,2.6-3.4,2.3c-1.4-0.3-2.4-1.4-2.4-2.8h-5.9c0,4.9,4,8.8,8.8,8.8c2.9,0,5.7-1.5,7.3-3.9c2.7,4.1,8.2,5.2,12.2,2.5
	c2.5-1.6,3.9-4.4,3.9-7.3h-5.9C129.3,166.8,128,168.1,126.4,168.1z M114.1,157.4c0.4-0.3,0.8-0.5,1.3-0.5h7.2c0.5,0,1,0.2,1.3,0.5
	v0.1l-1.1,1.5c-1.7,2.1-4.7,2.4-6.8,0.7c-0.3-0.2-0.5-0.5-0.7-0.7L114.1,157.4C114.1,157.5,114.1,157.5,114.1,157.4z"/>
</svg>
