<?xml version="1.0" encoding="utf-8"?>
<!-- Generator: Adobe Illustrator 26.1.0, SVG Export Plug-In . SVG Version: 6.00 Build 0)  -->
<svg version="1.1" id="Layer_1" xmlns="http://www.w3.org/2000/svg" xmlns:xlink="http://www.w3.org/1999/xlink" x="0px" y="0px"
	 viewBox="0 0 1056.6 202" style="enable-background:new 0 0 1056.6 202;" xml:space="preserve">
<style type="text/css">
	.st0{fill:url(#SVGID_1_);}
	.st1{fill:url(#SVGID_00000004531676847951542400000018277861046883899542_);}
	.st2{fill:url(#SVGID_00000169533109982222228080000016774091653035339146_);}
	.st3{fill:url(#SVGID_00000054240519454606305560000017247755243387930815_);}
	.st4{fill:url(#SVGID_00000026157461839493302510000004556023373224543420_);}
	.st5{fill:url(#SVGID_00000000919850146324682640000017239563921954505646_);}
	.st6{fill:url(#SVGID_00000129167630567036702700000013945917784573917319_);}
	.st7{fill:url(#SVGID_00000041272971329393365490000017698268764188502461_);}
	.st8{fill:url(#SVGID_00000080171282218030371140000011887912232377499291_);}
	.st9{fill:url(#SVGID_00000023262267540207733960000001593863867580920482_);}
	.st10{fill:url(#SVGID_00000070086498064170047410000012096057722718791044_);}
	.st11{fill:url(#SVGID_00000081644057892042202430000001568706886344395139_);}
	.st12{fill:url(#SVGID_00000140007573864675606360000008694285792161579140_);}
	.st13{fill:url(#SVGID_00000083052201654984054810000013379892152588599460_);}
	.st14{fill:#FFFFFF;}
	.st15{fill:#FF0000;}
	.st16{fill:none;stroke:#040709;stroke-width:2.4987;stroke-linecap:round;stroke-miterlimit:10;}
	.st17{fill:#87D561;}
	.st18{fill:#040709;}
	.st19{fill:#71C144;}
	.st20{fill:#FFBC33;}
	.st21{fill:#00C2EB;}
	.st22{fill:#00B1DD;}
	.st23{fill:#FF6E50;}
	.st24{fill:#FF563B;}
	.st25{fill:none;stroke:#040709;stroke-width:2.5983;stroke-linecap:round;stroke-miterlimit:10;}
	.st26{fill:none;stroke:#040709;stroke-width:2.7647;stroke-linecap:round;stroke-miterlimit:10;}
	.st27{fill:none;}
	.st28{fill:#15BA85;}
	.st29{fill:#EE514A;}
	.st30{fill:#19C0F0;}
</style>
<linearGradient id="SVGID_1_" gradientUnits="userSpaceOnUse" x1="106.417" y1="149.0076" x2="106.417" y2="77.984">
	<stop  offset="0.3343" style="stop-color:#FCFCFC"/>
	<stop  offset="1" style="stop-color:#FF0000"/>
</linearGradient>
<path class="st0" d="M84.1,126.1L72,78H96l4.1,26.4h0.7L116.3,78h24.5l-32.6,48.1l-4.9,22.9H79.2L84.1,126.1z"/>
<linearGradient id="SVGID_00000129898700097499240950000002510031343718761655_" gradientUnits="userSpaceOnUse" x1="150.3015" y1="149.0076" x2="150.3015" y2="77.984">
	<stop  offset="0.3343" style="stop-color:#FCFCFC"/>
	<stop  offset="1" style="stop-color:#FF0000"/>
</linearGradient>
<path style="fill:url(#SVGID_00000129898700097499240950000002510031343718761655_);" d="M145.8,78h24.2l-15.2,71h-24.1L145.8,78z"
	/>
<linearGradient id="SVGID_00000075138267433234553270000010873962497110509443_" gradientUnits="userSpaceOnUse" x1="190.8658" y1="149.0076" x2="190.8658" y2="77.984">
	<stop  offset="0.3343" style="stop-color:#FCFCFC"/>
	<stop  offset="1" style="stop-color:#FF0000"/>
</linearGradient>
<path style="fill:url(#SVGID_00000075138267433234553270000010873962497110509443_);" d="M180,78h24.2l-11.3,52.8h23.8l-3.9,18.2
	H165L180,78z"/>
<linearGradient id="SVGID_00000077304494319870086670000015235139036273552798_" gradientUnits="userSpaceOnUse" x1="254.1422" y1="149.0076" x2="254.1422" y2="77.984">
	<stop  offset="0.3343" style="stop-color:#FCFCFC"/>
	<stop  offset="1" style="stop-color:#FF0000"/>
</linearGradient>
<path style="fill:url(#SVGID_00000077304494319870086670000015235139036273552798_);" d="M233.8,78h37c11.6,0,18.7,4.7,18.7,13.7
	c0,1.5-0.2,3.2-0.6,5.1c-2.3,9.9-7.4,14-16.3,15.9v0.4c6.1,1.7,9.9,4,9.9,11.6c0,1.7-0.2,3.8-0.8,6.2c-2.7,12-8.4,18.2-25.3,18.2
	h-37.6L233.8,78z M251,132.4c5.6,0,6.3-0.5,7.4-6c0.3-1.5,0.5-2.7,0.5-3.5c0-2.3-1.3-2.7-5.4-2.7h-4.9l-2.6,12.2L251,132.4
	L251,132.4z M256.5,106.1c5.6,0,6.3-0.6,7.3-5.7c0.3-1.4,0.5-2.5,0.5-3.3c0-2.2-1.4-2.5-5.5-2.5h-4.9l-2.4,11.5H256.5z"/>
<linearGradient id="SVGID_00000145761921843634393850000012194679979669263235_" gradientUnits="userSpaceOnUse" x1="316.1195" y1="149.0076" x2="316.1195" y2="77.984">
	<stop  offset="0.3343" style="stop-color:#FCFCFC"/>
	<stop  offset="1" style="stop-color:#FF0000"/>
</linearGradient>
<path style="fill:url(#SVGID_00000145761921843634393850000012194679979669263235_);" d="M314.5,78H348l4.5,71h-23.2l-0.3-10.6
	h-20.5l-4.7,10.6h-24.1L314.5,78z M328.5,121.9L328,97.4h-1l-11.1,24.4H328.5z"/>
<linearGradient id="SVGID_00000166677622893353832720000013419216321027618717_" gradientUnits="userSpaceOnUse" x1="390.752" y1="168.5439" x2="390.752" y2="77.3103">
	<stop  offset="0.3343" style="stop-color:#FCFCFC"/>
	<stop  offset="1" style="stop-color:#FF0000"/>
</linearGradient>
<path style="fill:url(#SVGID_00000166677622893353832720000013419216321027618717_);" d="M390.5,100.5c0,1.6,1.2,1.9,5.1,2.6
	l10.5,1.7c5.9,1,11.9,2.7,11.9,12.9c0,2.5-0.3,5.7-1.2,9.5c-3.8,16.9-11.2,21.4-23.3,22.3l-7.1,19h-19.5v-0.5l11.8-18.3
	c-7.4-0.3-15.4-1-20.4-1.7l3.3-16.4c7.4,0.6,15.1,1.1,19.7,1.1c5.5,0,8-0.1,9.1-0.9s2-3.1,2-5.6c0-2.4-1.8-2.3-8.5-3.4l-11.6-1.9
	c-5.5-1-7.4-4.6-7.4-11.1c0-3.3,0.5-7.2,1.4-11.6c4-18.1,14.9-21,32.7-21c8.7,0,18.7,1,24,2.2l-3.5,16.2c-5.1-0.6-13.5-1.2-20.1-1.2
	c-3.9,0-5.9,0.2-7.1,1.2C391,96.6,390.5,98.5,390.5,100.5z"/>
<linearGradient id="SVGID_00000000187853010043585750000001769775807703393957_" gradientUnits="userSpaceOnUse" x1="439.6891" y1="149.0076" x2="439.6891" y2="77.984">
	<stop  offset="0.3343" style="stop-color:#FCFCFC"/>
	<stop  offset="1" style="stop-color:#FF0000"/>
</linearGradient>
<path style="fill:url(#SVGID_00000000187853010043585750000001769775807703393957_);" d="M435.2,78h24.2l-15.2,71h-24.1L435.2,78z"
	/>
<linearGradient id="SVGID_00000132780475036644052660000009495640996035962039_" gradientUnits="userSpaceOnUse" x1="515.0915" y1="149.8738" x2="515.0915" y2="77.2141">
	<stop  offset="0.3343" style="stop-color:#FCFCFC"/>
	<stop  offset="1" style="stop-color:#FF0000"/>
</linearGradient>
<path style="fill:url(#SVGID_00000132780475036644052660000009495640996035962039_);" d="M482.7,147.9l3.3-16.4
	c7.4,0.6,15.1,1.1,19.7,1.1c5.5,0,8-0.1,9.1-0.9c1.2-0.8,2-3.1,2-5.6c0-2.4-1.8-2.3-8.5-3.4l-11.6-1.9c-5.5-1-7.4-4.6-7.4-11.1
	c0-3.3,0.5-7.2,1.4-11.6c4-18.1,14.9-21,32.7-21c8.7,0,18.7,1,24,2.2L544,95.6c-5.1-0.6-13.5-1.2-20.1-1.2c-3.9,0-5.9,0.2-7.1,1.2
	c-1.4,1.1-1.9,2.9-1.9,4.9c0,1.6,1.2,1.9,5.1,2.6l10.5,1.7c5.9,1,11.9,2.7,11.9,12.9c0,2.5-0.3,5.7-1.2,9.5
	c-4.6,20.4-14.2,22.6-31.5,22.6C500.8,149.9,489.3,149,482.7,147.9z"/>
<linearGradient id="SVGID_00000023999913460796383720000002133371671148953748_" gradientUnits="userSpaceOnUse" x1="570.3322" y1="149.0076" x2="570.3322" y2="77.984">
	<stop  offset="0.3343" style="stop-color:#FCFCFC"/>
	<stop  offset="1" style="stop-color:#FF0000"/>
</linearGradient>
<path style="fill:url(#SVGID_00000023999913460796383720000002133371671148953748_);" d="M559.5,78h24.2l-11.3,52.8h23.8l-3.9,18.2
	h-47.7L559.5,78z"/>
<linearGradient id="SVGID_00000006680080781533192500000017780231702538579085_" gradientUnits="userSpaceOnUse" x1="707.8561" y1="149.0076" x2="707.8561" y2="77.984">
	<stop  offset="0.3343" style="stop-color:#FCFCFC"/>
	<stop  offset="1" style="stop-color:#FF0000"/>
</linearGradient>
<path style="fill:url(#SVGID_00000006680080781533192500000017780231702538579085_);" d="M693.8,96.2h-17.3l3.9-18.2h58.9l-3.9,18.2
	h-17.4L706.7,149h-24.2L693.8,96.2z"/>
<linearGradient id="SVGID_00000159461858979265815280000006835265534440864933_" gradientUnits="userSpaceOnUse" x1="755.3015" y1="149.0076" x2="755.3015" y2="77.984">
	<stop  offset="0.3343" style="stop-color:#FCFCFC"/>
	<stop  offset="1" style="stop-color:#FF0000"/>
</linearGradient>
<path style="fill:url(#SVGID_00000159461858979265815280000006835265534440864933_);" d="M744.5,78h24.2l-11.3,52.8h23.8l-3.9,18.2
	h-47.7L744.5,78z"/>
<linearGradient id="SVGID_00000088843442361407450190000014999619102691924116_" gradientUnits="userSpaceOnUse" x1="814.0548" y1="149.0076" x2="814.0548" y2="77.984">
	<stop  offset="0.3343" style="stop-color:#FCFCFC"/>
	<stop  offset="1" style="stop-color:#FF0000"/>
</linearGradient>
<path style="fill:url(#SVGID_00000088843442361407450190000014999619102691924116_);" d="M812.4,78h33.5l4.5,71h-23.2l-0.3-10.6
	h-20.5l-4.7,10.6h-24.1L812.4,78z M826.5,121.9l-0.6-24.4h-1l-11.1,24.4H826.5z"/>
<linearGradient id="SVGID_00000024715477917117855450000007095443717968834222_" gradientUnits="userSpaceOnUse" x1="890.3715" y1="149.1039" x2="890.3715" y2="77.984">
	<stop  offset="0.3343" style="stop-color:#FCFCFC"/>
	<stop  offset="1" style="stop-color:#FF0000"/>
</linearGradient>
<path style="fill:url(#SVGID_00000024715477917117855450000007095443717968834222_);" d="M870.2,78h35.3c15.7,0,20.2,4.5,20.2,13.8
	c0,3.1-0.5,6.8-1.4,11.1c-2,9.1-3.4,15.9-12.4,19.7l4,26.6h-24.3l-2-23.7h-1.8h-3.6l-5.1,23.7h-24.1L870.2,78z M891.9,109.4
	c5.9,0,6.8-0.3,8.3-7.2c0.4-2,0.8-3.7,0.8-4.6c0-2.3-1.3-2.7-6-2.7h-4.2l-3.1,14.5C887.7,109.4,891.9,109.4,891.9,109.4z"/>
<linearGradient id="SVGID_00000107557564550220520700000000123648623742701953_" gradientUnits="userSpaceOnUse" x1="942.1475" y1="149.0076" x2="942.1475" y2="77.984">
	<stop  offset="0.3343" style="stop-color:#FCFCFC"/>
	<stop  offset="1" style="stop-color:#FF0000"/>
</linearGradient>
<path style="fill:url(#SVGID_00000107557564550220520700000000123648623742701953_);" d="M937.6,78h24.2l-15.2,71h-24.1L937.6,78z"
	/>
<g>
	<path class="st14" d="M91,54.9c-0.8,0.7-1.5,1.3-2.3,1.9c0.6,0.8,1.3,1.5,1.8,2.3c0.8-0.7,1.5-1.3,2.4-1.9
		C92.4,56.3,91.7,55.7,91,54.9z"/>
	<path class="st14" d="M56.6,31.9c0.8-0.6,1.5-1.1,2.3-1.5c-0.5-0.9-1-1.7-1.4-2.6c-0.9,0.6-1.7,1.2-2.7,1.7
		C55.4,30.3,56,31.1,56.6,31.9z"/>
	<path class="st15" d="M101.2,43.2c0,0-3.2,4.8-5.6,7.2c-2.4,2.4-17.9,19.8-44.9,21.4c0,0-1.2-15.6-1.5-17.9l-3.1-0.5
		c0,0-2.2,1.1-5.5,2.6c-3.3,1.5-5.9,3.7-7.2-2.2s2-13.7,5.3-18.1s14.1-12,21.3-12c7.1,0.1,11.8-0.4,20.7,5.8
		C89.6,35.6,101.2,43.2,101.2,43.2z"/>
	<path class="st14" d="M23,68.2c0.7,0.2,1.1,0.6,1.4,1.2c1.7,3,5.7,4.2,8.9,2.9c0.5-0.2,0.9-0.5,1.3-0.6c0.1-0.1,0.4-0.1,0.5-0.1
		c4.1,1.3,8.6-1.2,9.5-5.4l1.8-1.3l0.8-0.6c0.2,2.6,0.3,5.2,0.4,7.8c0,0.2,0,0.4-0.2,0.5c-3.6,2.5-5.2,7.3-3.8,11.5
		c0.4,1.1,0.9,2,1.4,3c0.3,0.5,0.6,1.1,0.9,1.5c1.1,1.8,1.4,2.5,1.5,2.8c0,0.1,0.1,0.1,0.1,0.2c0.8,1.4,1.6,2.9,2.4,4.3
		c3,5.3,9,7.9,14.8,6.4c4.7-1.2,9.4-2.6,14-4.4c4.3-1.7,8.6-3.8,12.6-6.1c2.2-1.3,4.5-2.5,6.7-3.8c5.2-3,10.1-6.4,14.7-10.3
		c2.5-2.1,4.9-4.3,7.1-6.5c3.8-3.8,4.9-9.6,2.8-14.4c-0.2-0.5-0.5-1.1-0.8-1.5c-1.8-3.3-3.7-6.5-5.5-9.7c-1.4-2.5-3.6-4.2-6.4-5
		c-2.3-0.6-4.5-0.5-6.7,0.5c-0.1,0.1-0.3,0-0.5-0.1c-2.1-1.3-4.2-2.7-6.4-4.1c-4-2.7-8.2-5.3-12.2-8c-0.8-0.5-1.4-1.2-2.2-1.7
		C73.1,20.4,63.5,18.8,53,22c-1.9,0.6-3.7,1.4-5.4,2.4c-1.2,0.7-2.3,1.3-3.5,1.9c-4.3,2.4-7.7,5.8-10.1,10.1
		c-0.9,1.5-1.5,3.1-2.3,4.6c-0.3,0.6-0.9,0.9-1.4,0.7c-3.9-1.3-8.3,1.2-9.2,5.3c-0.1,0.3-0.2,0.5-0.5,0.6c-3.2,1.6-4.7,5.3-3.7,8.7
		c0.2,0.6,0.5,1.2,0.8,1.7c0.1,0.2,0.1,0.4,0.1,0.6C17,62.9,19,66.8,23,68.2z M33.5,53.7c-0.6-2.3-0.4-4.5,0.1-6.7
		c0.8-3.3,2.1-6.3,3.8-9.1c1.5-2.8,3.7-5.1,6.2-7c0.5-0.4,1-0.7,1.4-1c2.2-1.3,4.3-2.5,6.5-3.6c4.9-2.3,10.2-3.1,15.6-2.4
		c5.7,0.8,10.7,3.1,15,6.9c0.8,0.7,1.7,1.2,2.6,1.7c2.7,1.7,5.4,3.5,8.1,5.3c2.7,1.7,5.4,3.6,8.1,5.3c0.1,0.1,0.2,0.2,0.4,0.3
		c-0.4,0.6-0.7,1.2-1.1,1.6c-0.3,0.4-0.6,0.9-0.9,1.3c-0.1,0.2-0.3,0.2-0.5,0.1c-2.1-0.9-4.1-1.7-6.3-2.5
		c-5.3-1.8-10.8-2.7-16.4-1.9c-4.1,0.6-8,1.9-11.6,3.9c-0.3,0.1-0.3,0.3-0.1,0.5c0.4,0.7,0.8,1.3,1.2,2c0.2,0.3,0.3,0.3,0.6,0.2
		c2.9-1.6,6-2.8,9.2-3.4c4.1-0.8,8.3-0.6,12.4,0.5c3.2,0.8,6.3,1.9,9.2,3.3c0,0,0.1,0,0.2,0.1c-0.1,0.2-0.3,0.3-0.4,0.5
		c-1.4,1.4-2.8,2.8-3.6,3.6c-2.3,1.7-6.9,5.3-6.9,5.3c-0.6,0.4-1.1,0.8-1.6,1.2c-2.8,1.9-5.7,3.6-8.7,5.1c-2.1,1.1-4.2,2.1-6.4,3
		c-6,2.4-12,4-18.5,4.1c-0.2,0-0.4,0-0.6,0c0,0,0,0-0.1,0c0-0.1,0-0.1,0-0.2c-0.2-6-0.5-11.8-1.3-17.7c-0.3-2.1-0.7-4.2-1.2-6.3
		c-0.6-2.6-0.3-5.1,1-7.4c1.3-2.4,3-4.3,4.9-6.1c0.1-0.1,0.3-0.2,0.4-0.3c0,0,0,0,0-0.1c-0.6-0.8-1.3-1.4-1.9-2.2
		c-0.7,0.7-1.3,1.3-2,1.9c-1.9,1.9-3.6,4.1-4.6,6.7c-1.1,2.6-1.3,5.2-0.7,8c0.4,1.7,0.8,3.6,1.1,5.4L44,54.4
		c-0.1-0.1-0.3,0.3-0.4,0.2c-0.1,0.1-0.3,0.1-0.4,0.2c-1.5,0.9-3.3,1.5-4.8,2.4c-1.3,0.8-3.1,0.6-3.8-0.6
		C34,55.6,33.7,54.7,33.5,53.7z"/>
</g>
<path class="st14" d="M977.1,28.8l-3.5,4l5.6,4.8l-7.8,1.8l1.2,5.2l11.6-2.7l3.8,3.3l-7.8,1.8c-1.1,0.2-1.8,1.1-2,2.1
	c-0.2,1.1,0.2,2.1,1.1,2.7l6.6,4.5l-4.8,1.6l-9.8-6.7l-3,4.3l6.6,4.5l-6.9,2.4l1.7,5l6.9-2.4l-2.3,7.7l5.1,1.5L983,63l4.8-1.6
	l-2.3,7.7c-0.3,1,0,2.1,0.8,2.8c0.4,0.3,0.8,0.5,1.3,0.6c0.6,0.1,1.2,0,1.6-0.2l7.2-3.5l-1,5l-10.8,5.1l2.3,4.8l7.2-3.5l-1.3,7.2
	l5.2,1l1.3-7.2l5.5,5.9l3.8-3.7l-8.1-8.8l1-5l5.5,5.9c0.7,0.8,1.8,1.1,2.8,0.7c1-0.4,1.7-1.3,1.7-2.3l0.7-8l3.8,3.4l-1,11.8l5.3,0.4
	l0.7-8l5.6,4.8l3.5-4l-5.6-4.8l7.8-1.8l-1.2-5.2l-11.6,2.7l-3.8-3.3l7.8-1.8c1.1-0.2,1.8-1.1,2-2.1c0.2-1.1-0.2-2.1-1.1-2.7
	l-6.6-4.5l4.8-1.6l9.8,6.7l3-4.3l-6.6-4.5l6.9-2.4l-1.7-5l-6.9,2.4l2.3-7.7l-5.1-1.5l-3.5,11.4l-4.8,1.6l2.3-7.7
	c0.3-1,0-2.1-0.8-2.8c-0.8-0.7-1.9-0.9-2.9-0.4l-7.2,3.5l1-5l10.8-5.1l-2.3-4.8l-7.2,3.5l1.3-7.2l-5.2-1l-1.3,7.2L999,20l-3.8,3.7
	l8.1,8.8l-1,5l-5.5-5.9c-0.7-0.8-1.8-1.1-2.8-0.7c-1,0.4-1.7,1.3-1.7,2.3l-0.7,8l-3.8-3.3l1-11.8l-5.3-0.4l-0.7,8L977.1,28.8z
	 M987.3,50.8l5.8-1.3l3.6,3.1l-4.5,1.5L987.3,50.8z M992.2,64.8l1.7-5.7l4.5-1.5l-0.9,4.7L992.2,64.8z M1006.8,67.6l-4-4.3l0.9-4.7
	l3.6,3.1L1006.8,67.6z M1016.5,56.4l-5.8,1.3l-3.6-3.1l4.5-1.5L1016.5,56.4z M1011.6,42.3l-1.7,5.7l-4.5,1.5l0.9-4.7L1011.6,42.3z
	 M997,39.5l4,4.3l-0.9,4.7l-3.6-3.1L997,39.5z"/>
<path class="st14" d="M970.4,98.6l-2.1,1.5l2.1,2.9l-3.9,0l-0.1,2.6l5.8,0.1l1.4,2l-3.9,0c-0.5,0-1,0.3-1.2,0.8s-0.2,1,0.2,1.4
	l2.6,2.9l-2.5,0.2l-3.9-4.3l-1.9,1.7l2.6,2.9l-3.6,0.3l0.2,2.6l3.6-0.3l-2,3.4l2.2,1.3l3-5l2.5-0.2l-2,3.4c-0.2,0.4-0.2,1,0,1.4
	c0.1,0.2,0.3,0.3,0.5,0.4c0.3,0.1,0.5,0.1,0.8,0.1l3.8-0.8l-1,2.3l-5.7,1.2l0.5,2.5l3.8-0.8l-1.5,3.3l2.3,1.1l1.5-3.3l1.9,3.4
	l2.3-1.3l-2.8-5.1l1-2.3l1.9,3.4c0.2,0.4,0.7,0.7,1.2,0.6c0.5-0.1,1-0.4,1.1-0.9l1.3-3.7l1.4,2l-1.8,5.5l2.5,0.8l1.3-3.7l2.1,2.9
	l2.1-1.5l-2.1-2.9l3.9,0l0.1-2.6l-5.8-0.1l-1.4-2l3.9,0c0.5,0,1-0.3,1.2-0.8c0.2-0.5,0.2-1-0.2-1.4l-2.6-2.9l2.5-0.2l3.9,4.3
	l1.9-1.7l-2.6-2.9l3.6-0.3l-0.2-2.6l-3.6,0.3l2-3.4l-2.2-1.3l-3,5l-2.5,0.2l2-3.4c0.2-0.4,0.2-1,0-1.4s-0.8-0.6-1.3-0.5l-3.8,0.8
	l1-2.3l5.7-1.2l-0.5-2.5l-3.8,0.8l1.5-3.3l-2.3-1.1l-1.5,3.3l-1.9-3.4l-2.3,1.3l2.8,5.1l-1,2.3l-1.9-3.4c-0.2-0.4-0.7-0.7-1.2-0.6
	c-0.5,0.1-1,0.4-1.1,0.9l-1.3,3.7l-1.4-2l1.8-5.5l-2.5-0.8l-1.3,3.7L970.4,98.6z M972.7,110.3l2.9,0l1.3,1.9l-2.3,0.2L972.7,110.3z
	 M973.3,117.5l1.5-2.5l2.3-0.2l-1,2.1L973.3,117.5z M979.9,120.5l-1.4-2.5l1-2.1l1.3,1.9L979.9,120.5z M985.8,116.3l-2.9,0l-1.3-1.9
	l2.3-0.2L985.8,116.3z M985.1,109.1l-1.5,2.5l-2.3,0.2l1-2.1L985.1,109.1z M978.6,106.1l1.4,2.5l-1,2.1l-1.3-1.9L978.6,106.1z"/>
<g>
	<g>
		<line class="st16" x1="736.4" y1="84.7" x2="734" y2="93.6"/>
		<line class="st16" x1="765.1" y1="90.8" x2="765" y2="96.3"/>
		<line class="st16" x1="793" y1="87.2" x2="794.3" y2="94.1"/>
		<g>
			<path class="st17" d="M798.3,115.3c-2-0.8-5.7-5.1-6.2-7.3c-0.7-2.6-0.6-5.3,0.2-7.3c0.1-0.2,0.1-0.4,0-0.6l-0.9-3.5l6.3-1.6
				l0.9,3.5c0,0.2,0.2,0.4,0.3,0.5c1.6,1.3,2.9,3.6,3.6,6.3c0.4,1.8-0.3,4.7-0.5,5.6c-1,4.1-2.1,4.3-2.5,4.4
				C799.1,115.5,798.7,115.5,798.3,115.3L798.3,115.3z"/>
			<path class="st18" d="M796.8,96.7l0.6,2.2c0.1,0.5,0.4,0.9,0.7,1.2c1.4,1.1,2.5,3.1,3.1,5.6c0.5,2.2-1.1,8.2-2.1,8.5
				c-0.1,0-0.2,0-0.4,0c-1.5-0.6-5-4.5-5.5-6.4c-0.6-2.5-0.5-4.8,0.1-6.4c0.2-0.4,0.2-0.9,0.1-1.3l-0.6-2.2L796.8,96.7 M798.6,93.7
				l-2.4,0.6l-3.9,1l-2.4,0.6l0.6,2.4l0.5,2.2c-0.8,2.2-0.9,5-0.2,7.9c0.7,2.6,4.7,7.2,7,8.1c0.7,0.3,1.3,0.3,1.9,0.1
				c1.1-0.3,2.4-1.1,3.5-5.3c0.3-1.2,1-4.2,0.5-6.2c-0.7-2.8-2.2-5.4-3.9-6.9l-0.5-2.2L798.6,93.7L798.6,93.7z"/>
		</g>
		<g>
			<path class="st19" d="M798.4,109.7c-0.6-2.5-0.5-4.8,0.1-6.4c0.2-0.4,0.2-0.9,0.1-1.3l-0.4-1.7c-0.1,0-0.1-0.1-0.1-0.1
				c-0.4-0.3-0.6-0.7-0.7-1.2l-0.6-2.2l-3.9,1l0.6,2.2c0.1,0.5,0.1,0.9-0.1,1.3c-0.7,1.6-0.8,4-0.1,6.4c0.5,2,4.8,6.7,5.9,6.5
				c0.3-0.1,0.7-0.7,1-1.6C799.3,111.6,798.6,110.5,798.4,109.7z"/>
		</g>
		<g>
			
				<rect x="790.7" y="92.9" transform="matrix(0.9697 -0.2444 0.2444 0.9697 0.6502 197.0537)" class="st20" width="7.7" height="6.1"/>
			<path class="st18" d="M796.6,93.5l0.9,3.5l-5,1.2l-0.9-3.5L796.6,93.5 M798.4,90.5l-2.4,0.6l-5,1.2l-2.4,0.6l0.6,2.4l0.9,3.5
				l0.6,2.4l2.4-0.6l5-1.2l2.4-0.6l-0.6-2.4l-0.9-3.5L798.4,90.5L798.4,90.5z"/>
		</g>
		<g>
			<g>
				<line class="st16" x1="800" y1="117.7" x2="800.8" y2="120.7"/>
			</g>
			<g>
				<line class="st16" x1="794.8" y1="116.9" x2="793.1" y2="119.6"/>
			</g>
			<g>
				<line class="st16" x1="804.3" y1="114.5" x2="807" y2="116.1"/>
			</g>
			<g>
				<line class="st16" x1="791.4" y1="113" x2="788.9" y2="114.9"/>
			</g>
			<g>
				<line class="st16" x1="805.4" y1="109.5" x2="808.5" y2="110"/>
			</g>
		</g>
	</g>
	<g>
		<g>
			<path class="st21" d="M763.7,119c-2-0.8-4.6-6.8-4.6-9c0.1-2.8,0.8-5.3,2.1-6.9c0.1-0.1,0.2-0.3,0.2-0.5l0.1-3.6l6.5,0.2
				l-0.1,3.6c0,0.2,0,0.4,0.2,0.5c1.2,1.7,1.8,4.3,1.8,7c0,1.8-1.5,4.5-2,5.3c-2.1,3.6-3.2,3.6-3.6,3.6
				C764.1,119.1,763.9,119.1,763.7,119L763.7,119z"/>
			<path class="st18" d="M766.8,100.4l-0.1,2.4c0,0.5,0.1,0.9,0.4,1.3c1,1.5,1.6,3.7,1.5,6.2c-0.1,2.2-3.2,7.6-4.4,7.6
				c-0.1,0-0.1,0-0.2-0.1c-1.2-0.5-3.8-5.7-3.8-7.8c0.1-2.5,0.8-4.8,1.8-6.2c0.3-0.4,0.4-0.8,0.4-1.3l0.1-2.4L766.8,100.4
				 M769.4,97.9l-2.5-0.1l-4-0.1l-2.5-0.1l-0.1,2.5l-0.1,2.2c-1.4,1.9-2.2,4.6-2.3,7.6c-0.1,2.5,2.6,9.1,5.4,10.2
				c0.3,0.1,0.6,0.2,1,0.2c1.1,0,2.6-0.4,4.8-4.2c0.6-1.1,2.1-3.8,2.1-5.8c0.1-3-0.6-5.7-1.9-7.6l0.1-2.2L769.4,97.9L769.4,97.9z"/>
		</g>
		<g>
			<path class="st22" d="M765.6,112.1c0.1-2.5,0.8-4.8,1.8-6.2c0.1-0.2,0.3-0.4,0.3-0.7c-0.2-0.4-0.4-0.9-0.7-1.2
				c-0.3-0.4-0.4-0.8-0.4-1.3l0.1-2.4l-4-0.1l-0.1,2.4c0,0.5-0.2,0.9-0.4,1.3c-1.1,1.4-1.8,3.6-1.8,6.2c0,2.1,2.8,7.8,3.9,7.8
				c0.5,0,1.3-1,2.2-2.4C766,114.2,765.6,112.9,765.6,112.1z"/>
		</g>
		<g>
			
				<rect x="761.8" y="95.2" transform="matrix(2.659444e-02 -0.9996 0.9996 2.659444e-02 645.5419 860.9427)" class="st20" width="6.1" height="7.7"/>
			<path class="st18" d="M767.5,97.3l-0.1,3.6l-5.1-0.1l0.1-3.6L767.5,97.3 M770,94.9l-2.5-0.1l-5.2-0.1l-2.5-0.1l-0.1,2.5l-0.1,3.6
				l-0.1,2.5l2.5,0.1l5.1,0.1l2.5,0.1l0.1-2.5l0.1-3.6L770,94.9L770,94.9z"/>
		</g>
		<g>
			<g>
				<line class="st16" x1="764.3" y1="121.4" x2="764.2" y2="124.6"/>
			</g>
			<g>
				<line class="st16" x1="759.4" y1="119.3" x2="757.1" y2="121.5"/>
			</g>
			<g>
				<line class="st16" x1="769.2" y1="119.6" x2="771.4" y2="121.9"/>
			</g>
			<g>
				<line class="st16" x1="757.2" y1="114.6" x2="754.3" y2="115.8"/>
			</g>
			<g>
				<line class="st16" x1="771.6" y1="115.1" x2="774.5" y2="116.4"/>
			</g>
		</g>
	</g>
	<g>
		<g>
			<path class="st23" d="M727.6,113.7c-2.1-0.8-3-7.9-2.4-10.1c0.8-2.6,2.2-4.9,3.9-6c0.2-0.1,0.3-0.3,0.3-0.5l1.1-3.4l6.2,1.9
				l-1.1,3.4c-0.1,0.2,0,0.4,0,0.6c0.7,2,0.6,4.6-0.2,7.2c-0.6,1.8-2.7,3.9-3.3,4.5c-3,2.9-4.1,2.5-4.5,2.4L727.6,113.7z"/>
			<path class="st18" d="M735.2,96.4l-0.7,2.2c-0.1,0.4-0.1,0.9,0,1.4c0.6,1.6,0.5,4-0.2,6.5c-0.6,2.1-5.2,6.4-6.2,6.1l0,0
				c-1.1-0.4-2.2-6.6-1.6-8.6c0.8-2.4,2-4.4,3.5-5.4c0.3-0.3,0.6-0.7,0.8-1.1l0.7-2.2L735.2,96.4 M738.3,94.8L736,94l-3.8-1.2
				l-2.4-0.7l-0.7,2.4l-0.6,2.1c-1.8,1.4-3.4,3.8-4.3,6.6c-0.6,1.9-0.1,4.9,0.1,6.1c0.8,4.2,1.9,5.2,3,5.5l0.1,0l0.1,0
				c1.1,0.4,2.6,0.3,5.7-2.7c0.9-0.9,3-3.1,3.6-5c0.9-2.8,1-5.7,0.2-7.9l0.6-2.1L738.3,94.8L738.3,94.8z"/>
		</g>
		<g>
			<path class="st24" d="M731.6,106c0.7-2.2,1.9-4.1,3.1-5.2c-0.1-0.3-0.1-0.6-0.2-0.8c-0.1-0.4-0.1-0.9,0-1.4l0.7-2.2l-3.8-1.2
				l-0.7,2.2c-0.1,0.4-0.4,0.9-0.8,1.1c-1.4,1-2.7,3-3.5,5.4c-0.7,2,0.6,8.3,1.6,8.6c0.5,0.1,2.1-1,3.6-2.5
				C731.4,108.5,731.3,106.8,731.6,106z"/>
		</g>
		<g>
			
				<rect x="730.6" y="90.7" transform="matrix(0.2976 -0.9547 0.9547 0.2976 425.143 766.8313)" class="st20" width="6.1" height="7.7"/>
			<path class="st18" d="M736.7,93.6l-1.1,3.4l-4.9-1.5l1.1-3.4L736.7,93.6 M739.8,91.9l-2.4-0.7l-4.9-1.5l-2.4-0.7l-0.7,2.4
				l-1.1,3.4l-0.7,2.4l2.4,0.7l4.9,1.5l2.4,0.7l0.7-2.4l1.1-3.4L739.8,91.9L739.8,91.9z"/>
		</g>
		<g>
			<g>
				<line class="st16" x1="727" y1="116" x2="726" y2="119"/>
			</g>
			<g>
				<line class="st16" x1="722.9" y1="112.6" x2="720.1" y2="114"/>
			</g>
			<g>
				<line class="st16" x1="732.3" y1="115.5" x2="733.8" y2="118.3"/>
			</g>
			<g>
				<line class="st16" x1="722.1" y1="107.5" x2="719" y2="107.8"/>
			</g>
			<g>
				<line class="st16" x1="735.9" y1="111.8" x2="738.2" y2="113.9"/>
			</g>
		</g>
	</g>
	<g>
		<path class="st16" d="M723.8,78.9c31.1,16.3,61,15.9,89.7-0.9"/>
	</g>
</g>
<g>
	<g>
		<line class="st25" x1="155.5" y1="102" x2="154.5" y2="111.6"/>
		<line class="st25" x1="186" y1="103.5" x2="186.7" y2="109.1"/>
		<line class="st25" x1="214" y1="95.2" x2="216.4" y2="102"/>
		<g>
			<path class="st17" d="M224.1,123.1c-2.1-0.4-6.7-4.3-7.6-6.4c-1.1-2.6-1.5-5.3-1-7.5c0-0.2,0-0.4-0.1-0.6l-1.5-3.4l6.2-2.7
				l1.5,3.4c0.1,0.2,0.2,0.3,0.4,0.4c1.9,1.1,3.6,3.2,4.7,5.8c0.8,1.8,0.5,4.9,0.4,5.8c-0.4,4.3-1.5,4.8-1.9,5
				C224.9,123.2,224.5,123.2,224.1,123.1L224.1,123.1z"/>
			<path class="st18" d="M219.4,104.3l1,2.2c0.2,0.5,0.5,0.8,0.9,1.1c1.6,0.9,3.1,2.8,4.2,5.2c0.9,2.1,0.3,8.6-0.8,9
				c-0.1,0-0.2,0.1-0.4,0c-1.6-0.3-5.9-3.8-6.7-5.6c-1.1-2.5-1.3-4.9-1-6.6c0.1-0.5,0.1-0.9-0.1-1.4l-1-2.2L219.4,104.3
				 M220.8,100.9l-2.4,1l-3.8,1.7l-2.4,1l1,2.4l0.9,2.1c-0.5,2.4-0.1,5.3,1.1,8.1c1.1,2.5,6,6.6,8.5,7.2c0.7,0.2,1.4,0.1,2-0.2
				c1.1-0.5,2.3-1.5,2.7-6c0.1-1.3,0.3-4.5-0.5-6.4c-1.2-2.8-3.1-5.1-5.2-6.4l-0.9-2.1L220.8,100.9L220.8,100.9z"/>
		</g>
		<g>
			<path class="st19" d="M223.3,117.4c-1.1-2.5-1.3-4.9-1-6.6c0.1-0.5,0.1-0.9-0.1-1.4l-0.7-1.7c-0.1,0-0.1-0.1-0.2-0.1
				c-0.4-0.3-0.8-0.6-0.9-1.1l-1-2.2l-3.8,1.7l1,2.2c0.2,0.5,0.2,0.9,0.1,1.4c-0.4,1.7-0.1,4.2,1,6.6c0.9,2,6,6.1,7.1,5.7
				c0.3-0.1,0.6-0.8,0.8-1.8C224.5,119.1,223.6,118.1,223.3,117.4z"/>
		</g>
		<g>
			
				<rect x="213" y="100.7" transform="matrix(0.9179 -0.3967 0.3967 0.9179 -23.3859 94.6143)" class="st20" width="8" height="6.4"/>
			<path class="st18" d="M218.7,101.1l1.5,3.4l-4.9,2.1l-1.5-3.4L218.7,101.1 M220.1,97.6l-2.4,1l-4.9,2.1l-2.4,1l1,2.4l1.5,3.4
				l1,2.4l2.4-1l4.9-2.1l2.4-1l-1-2.4l-1.5-3.4L220.1,97.6L220.1,97.6z"/>
		</g>
		<g>
			<g>
				<line class="st25" x1="226.3" y1="125.2" x2="227.6" y2="128.3"/>
			</g>
			<g>
				<line class="st25" x1="220.7" y1="125.4" x2="219.5" y2="128.4"/>
			</g>
			<g>
				<line class="st25" x1="230.2" y1="121.3" x2="233.2" y2="122.5"/>
			</g>
			<g>
				<line class="st25" x1="216.6" y1="121.9" x2="214.4" y2="124.3"/>
			</g>
			<g>
				<line class="st25" x1="230.4" y1="116" x2="233.7" y2="115.9"/>
			</g>
		</g>
	</g>
	<g>
		<g>
			<path class="st21" d="M189.2,132.7c-2.1-0.4-5.9-6.2-6.2-8.4c-0.4-2.9,0-5.5,1-7.5c0.1-0.2,0.1-0.4,0.1-0.6l-0.5-3.7l6.7-0.9
				l0.5,3.7c0,0.2,0.1,0.4,0.2,0.5c1.5,1.6,2.6,4.1,3,6.9c0.3,1.9-0.8,4.9-1.1,5.7c-1.6,4-2.7,4.2-3.1,4.3
				C189.7,132.7,189.4,132.8,189.2,132.7L189.2,132.7z"/>
			<path class="st18" d="M189.3,113.1l0.3,2.4c0.1,0.5,0.3,0.9,0.6,1.3c1.3,1.3,2.3,3.5,2.6,6.1c0.3,2.3-2,8.4-3.2,8.5
				c-0.1,0-0.1,0-0.2,0c-1.4-0.3-4.9-5.3-5.2-7.3c-0.3-2.6,0-5.1,0.9-6.7c0.2-0.4,0.3-0.9,0.2-1.4l-0.3-2.4L189.3,113.1
				 M191.5,110.1l-2.6,0.4l-4.1,0.6l-2.6,0.4l0.4,2.6l0.3,2.3c-1.1,2.1-1.5,5.1-1.1,8.1c0.4,2.6,4.2,8.9,7.2,9.5
				c0.3,0.1,0.7,0.1,1.1,0c1.2-0.2,2.6-0.9,4.2-5.1c0.4-1.2,1.5-4.2,1.2-6.4c-0.4-3-1.6-5.8-3.3-7.5l-0.3-2.3L191.5,110.1
				L191.5,110.1z"/>
		</g>
		<g>
			<path class="st22" d="M190,125.3c-0.3-2.6,0-5.1,0.9-6.7c0.1-0.2,0.2-0.5,0.2-0.7c-0.3-0.4-0.6-0.8-0.9-1.1
				c-0.3-0.4-0.5-0.8-0.6-1.3l-0.3-2.4l-4.1,0.6l0.3,2.4c0.1,0.5,0,0.9-0.2,1.4c-0.9,1.6-1.2,4-0.9,6.7c0.3,2.2,4.1,7.5,5.3,7.4
				c0.5-0.1,1.2-1.3,1.9-2.8C190.7,127.4,190.1,126.1,190,125.3z"/>
		</g>
		<g>
			
				<rect x="183.1" y="108.8" transform="matrix(0.991 -0.1341 0.1341 0.991 -13.3257 26.0955)" class="st20" width="8" height="6.4"/>
			<path class="st18" d="M189.4,109.8l0.5,3.7l-5.3,0.7l-0.5-3.7L189.4,109.8 M191.6,106.8l-2.6,0.4l-5.3,0.7l-2.6,0.4l0.4,2.6
				l0.5,3.7l0.4,2.6l2.6-0.4l5.3-0.7l2.6-0.4l-0.4-2.6l-0.5-3.7L191.6,106.8L191.6,106.8z"/>
		</g>
		<g>
			<g>
				<line class="st25" x1="190.2" y1="135.1" x2="190.6" y2="138.4"/>
			</g>
			<g>
				<line class="st25" x1="184.8" y1="133.7" x2="182.8" y2="136.3"/>
			</g>
			<g>
				<line class="st25" x1="195" y1="132.4" x2="197.6" y2="134.3"/>
			</g>
			<g>
				<line class="st25" x1="181.8" y1="129.3" x2="179" y2="131"/>
			</g>
			<g>
				<line class="st25" x1="196.7" y1="127.3" x2="199.9" y2="128.2"/>
			</g>
		</g>
	</g>
	<g>
		<g>
			<path class="st23" d="M151.3,133.3c-2.3-0.5-4.4-7.6-4.1-10c0.4-2.8,1.5-5.4,3-6.9c0.1-0.1,0.2-0.3,0.2-0.5l0.5-3.7l6.7,0.9
				l-0.5,3.7c0,0.2,0,0.4,0.1,0.6c1,1.9,1.4,4.6,1,7.5c-0.3,1.9-2.1,4.5-2.6,5.2c-2.6,3.5-3.8,3.3-4.2,3.2L151.3,133.3z"/>
			<path class="st18" d="M156.2,114.2l-0.3,2.4c0,0.5,0,1,0.2,1.4c0.8,1.6,1.2,4,0.8,6.7c-0.3,2.3-4.3,7.5-5.4,7.3l0,0
				c-1.2-0.2-3.4-6.4-3.1-8.6c0.4-2.6,1.4-4.8,2.6-6.2c0.3-0.3,0.5-0.8,0.6-1.3l0.3-2.4L156.2,114.2 M159.1,112l-2.6-0.4l-4.1-0.6
				l-2.6-0.4l-0.4,2.6l-0.3,2.3c-1.7,1.7-2.8,4.5-3.3,7.5c-0.3,2.1,0.7,5,1.1,6.2c1.5,4.1,2.9,5,4,5.2l0.1,0l0.1,0
				c1.2,0.2,2.7-0.1,5.4-3.8c0.7-1,2.6-3.6,2.9-5.8c0.5-3,0.1-6-1.1-8.1l0.3-2.3L159.1,112L159.1,112z"/>
		</g>
		<g>
			<path class="st24" d="M154.1,124.7c0.3-2.4,1.2-4.5,2.3-5.8c-0.1-0.3-0.2-0.6-0.4-0.8c-0.2-0.4-0.3-0.9-0.2-1.4l0.3-2.4l-4.1-0.6
				l-0.3,2.4c0,0.5-0.3,0.9-0.6,1.3c-1.3,1.3-2.3,3.5-2.6,6.2c-0.3,2.2,2,8.4,3.1,8.6c0.6,0.1,2-1.4,3.3-3.2
				C154.3,127.3,153.9,125.6,154.1,124.7z"/>
		</g>
		<g>
			
				<rect x="151.1" y="108.6" transform="matrix(0.1405 -0.9901 0.9901 0.1405 21.1773 249.4948)" class="st20" width="6.4" height="8"/>
			<path class="st18" d="M157.2,111.1l-0.5,3.7l-5.3-0.8l0.5-3.7L157.2,111.1 M160.1,108.9l-2.6-0.4l-5.3-0.8l-2.6-0.4l-0.4,2.6
				l-0.5,3.7l-0.4,2.6l2.6,0.4l5.3,0.8l2.6,0.4l0.4-2.6l0.5-3.7L160.1,108.9L160.1,108.9z"/>
		</g>
		<g>
			<g>
				<line class="st25" x1="151" y1="135.7" x2="150.5" y2="139"/>
			</g>
			<g>
				<line class="st25" x1="146.3" y1="132.9" x2="143.6" y2="134.9"/>
			</g>
			<g>
				<line class="st25" x1="156.4" y1="134.3" x2="158.3" y2="136.9"/>
			</g>
			<g>
				<line class="st25" x1="144.6" y1="127.8" x2="141.4" y2="128.7"/>
			</g>
			<g>
				<line class="st25" x1="159.5" y1="129.9" x2="162.2" y2="131.7"/>
			</g>
		</g>
	</g>
	<g>
		<path class="st25" d="M141.5,98.2c34.6,11.5,65.3,6.2,91.9-15.9"/>
	</g>
</g>
<g>
	<g>
		<line class="st26" x1="333.7" y1="88.3" x2="327.8" y2="96.7"/>
		<line class="st26" x1="361.2" y1="105.5" x2="359" y2="111.1"/>
		<line class="st26" x1="391.6" y1="112.2" x2="390.3" y2="119.9"/>
		<g>
			<path class="st17" d="M386.5,143.4c-1.8-1.5-4-7.4-3.8-9.9c0.3-3,1.4-5.7,2.9-7.5c0.1-0.1,0.2-0.4,0.3-0.6l0.4-3.9l7.2,0.7
				l-0.4,3.9c0,0.2,0,0.4,0.1,0.6c1.2,2,1.7,4.8,1.4,7.9c-0.2,2-2.1,4.8-2.6,5.6c-2.6,3.8-3.8,3.7-4.3,3.7
				C387.3,144,386.8,143.8,386.5,143.4L386.5,143.4z"/>
			<path class="st18" d="M391.9,123.5l-0.3,2.5c0,0.5,0.1,1,0.3,1.5c1,1.7,1.5,4.2,1.2,7c-0.3,2.5-4.2,8.1-5.4,8
				c-0.1,0-0.3-0.1-0.4-0.2c-1.3-1.2-3.5-6.6-3.3-8.7c0.3-2.9,1.3-5.2,2.5-6.7c0.3-0.4,0.6-0.8,0.6-1.3l0.3-2.5L391.9,123.5
				 M395,121.1l-2.8-0.3l-4.4-0.4l-2.8-0.3l-0.3,2.8l-0.3,2.5c-1.7,1.9-2.8,4.9-3.2,8.2c-0.3,2.9,2.1,9.3,4.2,11.1
				c0.6,0.5,1.2,0.8,1.9,0.9c1.3,0.1,2.9-0.3,5.6-4.2c0.7-1.1,2.6-4,2.8-6.3c0.3-3.2-0.2-6.4-1.5-8.6l0.3-2.5L395,121.1L395,121.1z"
				/>
		</g>
		<g>
			<path class="st19" d="M388.8,137.7c0.3-2.9,1.3-5.2,2.5-6.7c0.3-0.4,0.6-0.8,0.6-1.3l0.2-1.9c0,0-0.1-0.1-0.1-0.2
				c-0.3-0.5-0.4-1-0.3-1.5l0.3-2.5l-4.4-0.4l-0.3,2.5c0,0.5-0.3,1-0.6,1.3c-1.3,1.4-2.3,3.9-2.5,6.7c-0.2,2.3,2.5,8.8,3.7,9
				c0.4,0.1,1-0.5,1.7-1.3C389,140,388.7,138.5,388.8,137.7z"/>
		</g>
		<g>
			
				<rect x="386.5" y="117.6" transform="matrix(9.998962e-02 -0.995 0.995 9.998962e-02 229.6651 497.6278)" class="st20" width="6.8" height="8.5"/>
			<path class="st18" d="M392.9,120.2l-0.4,4l-5.7-0.6l0.4-4L392.9,120.2 M396,117.7l-2.8-0.3l-5.7-0.6l-2.8-0.3l-0.3,2.8l-0.4,4
				l-0.3,2.8l2.8,0.3l5.7,0.6l2.8,0.3l0.3-2.8l0.4-4L396,117.7L396,117.7z"/>
		</g>
		<g>
			<g>
				<line class="st26" x1="387.4" y1="146.6" x2="387.1" y2="150.1"/>
			</g>
			<g>
				<line class="st26" x1="382.2" y1="143.8" x2="379.5" y2="146"/>
			</g>
			<g>
				<line class="st26" x1="393.1" y1="144.9" x2="395.3" y2="147.6"/>
			</g>
			<g>
				<line class="st26" x1="380.2" y1="138.4" x2="376.9" y2="139.6"/>
			</g>
			<g>
				<line class="st26" x1="396.1" y1="140.1" x2="399.2" y2="141.8"/>
			</g>
		</g>
	</g>
	<g>
		<g>
			<path class="st21" d="M349.2,134.3c-1.8-1.5-2.3-8.8-1.4-11.1c1.1-2.9,2.9-5.2,4.8-6.4c0.2-0.1,0.3-0.3,0.4-0.5l1.4-3.7l6.7,2.7
				l-1.4,3.7c-0.1,0.2-0.1,0.4,0,0.6c0.6,2.2,0.3,5.1-0.8,7.9c-0.7,1.9-3.2,4.1-4,4.7c-3.5,3-4.7,2.5-5.1,2.4
				C349.5,134.6,349.3,134.5,349.2,134.3L349.2,134.3z"/>
			<path class="st18" d="M359.4,116.1l-1,2.4c-0.2,0.5-0.2,1-0.1,1.5c0.5,1.9,0.3,4.5-0.8,7.1c-0.9,2.3-6.2,6.7-7.4,6.3
				c0,0-0.1-0.1-0.1-0.1c-1.1-1-1.8-7.4-1-9.5c1-2.6,2.6-4.7,4.3-5.7c0.4-0.3,0.7-0.7,0.9-1.2l1-2.4L359.4,116.1 M362.9,114.5
				l-2.6-1l-4.1-1.6l-2.6-1l-1,2.6l-0.9,2.3c-2.1,1.4-4.1,3.9-5.3,7c-1,2.6-0.7,10.5,1.8,12.6c0.3,0.2,0.6,0.4,1,0.6
				c1.2,0.4,2.9,0.5,6.5-2.6c1-0.9,3.6-3.2,4.4-5.3c1.2-3,1.5-6.2,0.9-8.7l0.9-2.3L362.9,114.5L362.9,114.5z"/>
		</g>
		<g>
			<path class="st22" d="M353.7,127.8c1-2.6,2.6-4.7,4.3-5.7c0.2-0.1,0.5-0.3,0.6-0.6c0-0.5-0.1-1.1-0.2-1.5c-0.1-0.5-0.1-1,0.1-1.5
				l1-2.4l-4.1-1.6l-1,2.4c-0.2,0.5-0.5,0.9-0.9,1.2c-1.6,1-3.2,3.1-4.3,5.7c-0.8,2.2,0,9.1,1.1,9.6c0.5,0.2,1.8-0.6,3.2-1.6
				C353.3,130.1,353.4,128.6,353.7,127.8z"/>
		</g>
		<g>
			
				<rect x="354.5" y="109.7" transform="matrix(0.365 -0.931 0.931 0.365 121.1896 405.4916)" class="st20" width="6.8" height="8.5"/>
			<path class="st18" d="M361.2,113.1l-1.4,3.7l-5.3-2.1l1.4-3.7L361.2,113.1 M364.8,111.5l-2.6-1l-5.3-2.1l-2.6-1l-1,2.6l-1.4,3.7
				l-1,2.6l2.6,1l5.3,2.1l2.6,1l1-2.6l1.4-3.7L364.8,111.5L364.8,111.5z"/>
		</g>
		<g>
			<g>
				<line class="st26" x1="348.8" y1="137" x2="347.5" y2="140.3"/>
			</g>
			<g>
				<line class="st26" x1="344.5" y1="133" x2="341.3" y2="134.4"/>
			</g>
			<g>
				<line class="st26" x1="354.7" y1="137" x2="356.1" y2="140.2"/>
			</g>
			<g>
				<line class="st26" x1="344" y1="127.3" x2="340.5" y2="127.4"/>
			</g>
			<g>
				<line class="st26" x1="358.9" y1="133.2" x2="361.4" y2="135.6"/>
			</g>
		</g>
	</g>
	<g>
		<g>
			<path class="st23" d="M313.6,115.2c-1.9-1.6-0.1-9.4,1.4-11.4c1.8-2.4,4.1-4.2,6.4-4.8c0.2-0.1,0.4-0.2,0.5-0.4l2.4-3.1l5.8,4.3
				l-2.4,3.1c-0.2,0.2-0.2,0.4-0.2,0.6c-0.1,2.3-1.1,5-3,7.4c-1.2,1.6-4.3,3-5.1,3.5C315,116.3,314.1,115.5,313.6,115.2L313.6,115.2
				z"/>
			<path class="st18" d="M328,100.1l-1.6,2.1c-0.3,0.4-0.5,0.9-0.5,1.4c0,1.9-1,4.4-2.7,6.6c-1.5,2-7.9,4.7-8.8,4l0,0
				c-1-0.8,0.1-7.7,1.5-9.6c1.7-2.3,3.8-3.8,5.7-4.4c0.5-0.2,0.9-0.5,1.2-0.9l1.6-2.1L328,100.1 M331.9,99.5l-2.2-1.7l-3.5-2.7
				l-2.2-1.7l-1.7,2.2l-1.5,2c-2.4,0.7-4.9,2.7-6.9,5.3c-1.4,1.8-1.9,5.1-2.2,6.4c-0.8,4.6,0.1,6.1,1,6.9l0,0l0.1,0.1
				c1,0.8,2.6,1.3,7-0.7c1.2-0.6,4.3-2,5.6-3.9c2-2.6,3.2-5.5,3.2-8.1l1.5-2L331.9,99.5L331.9,99.5z"/>
		</g>
		<g>
			<path class="st24" d="M320.6,108.6c1.6-2.1,3.5-3.6,5.2-4.2c0-0.3,0.1-0.7,0.1-0.9c0-0.5,0.2-1,0.5-1.4l1.6-2.1l-3.5-2.7
				l-1.6,2.1c-0.3,0.4-0.7,0.7-1.2,0.9c-1.8,0.5-3.9,2.1-5.7,4.4c-1.4,1.8-2.5,8.8-1.5,9.6c0.5,0.4,2.6-0.3,4.7-1.2
				C319.5,111.2,320,109.4,320.6,108.6z"/>
		</g>
		<g>
			
				<rect x="323.7" y="93.3" transform="matrix(0.6045 -0.7966 0.7966 0.6045 51.6964 299.133)" class="st20" width="6.8" height="8.5"/>
			<path class="st18" d="M330.6,97.6l-2.4,3.2l-4.6-3.5l2.4-3.2L330.6,97.6 M334.4,97.1l-2.2-1.7l-4.6-3.5l-2.2-1.7l-1.7,2.2
				l-2.4,3.2l-1.7,2.2l2.2,1.7l4.6,3.5l2.2,1.7l1.7-2.2l2.4-3.2L334.4,97.1L334.4,97.1z"/>
		</g>
		<g>
			<g>
				<line class="st26" x1="312.1" y1="117.3" x2="309.9" y2="120.1"/>
			</g>
			<g>
				<line class="st26" x1="309.1" y1="112.2" x2="305.6" y2="112.7"/>
			</g>
			<g>
				<line class="st26" x1="317.8" y1="118.9" x2="318.2" y2="122.3"/>
			</g>
			<g>
				<line class="st26" x1="310.2" y1="106.7" x2="306.8" y2="105.8"/>
			</g>
			<g>
				<line class="st26" x1="322.9" y1="116.3" x2="324.6" y2="119.4"/>
			</g>
		</g>
	</g>
	<g>
		<path class="st26" d="M322.7,77.6c26.3,28.6,57.5,39.5,93.7,32.8"/>
	</g>
</g>
<path class="st14" d="M626.4,152.4c-5.2-1.1-10.1-3.3-14.4-6.4c-4.2-3-7.7-6.7-10.5-11c-2.8-4.3-4.7-9.1-5.6-14.2
	c-1-5.2-0.9-10.5,0.3-15.8c1.1-5.2,3.3-10.1,6.4-14.4c3-4.2,6.7-7.7,11-10.5c4.3-2.8,9.1-4.7,14.2-5.6c5.2-1,10.5-0.9,15.8,0.3
	c5.2,1.1,10.1,3.3,14.4,6.4c4.2,3,7.7,6.7,10.5,11c2.8,4.3,4.7,9.1,5.6,14.2c1,5.2,0.9,10.5-0.3,15.8c-1.1,5.2-3.3,10.1-6.4,14.4
	c-3,4.2-6.7,7.7-11,10.5c-4.3,2.8-9.1,4.7-14.2,5.6C637,153.7,631.7,153.6,626.4,152.4z"/>
<ellipse transform="matrix(0.2143 -0.9768 0.9768 0.2143 387.9239 709.4534)" class="st27" cx="635" cy="113.6" rx="35.7" ry="35.7"/>
<ellipse transform="matrix(0.2143 -0.9768 0.9768 0.2143 387.9239 709.4534)" class="st28" cx="635" cy="113.6" rx="35.7" ry="35.7"/>
<ellipse transform="matrix(0.2143 -0.9768 0.9768 0.2143 387.9239 709.4534)" class="st27" cx="635" cy="113.6" rx="35.7" ry="35.7"/>
<g>
	<path class="st14" d="M670.6,113.8l-2.7-2.8c-0.4-0.4-1-0.7-1.5-0.9c-0.5-0.1-1.1-0.1-1.7,0.1l-9.5,3.3l-6.6-6.8
		c-0.4-0.4-1-0.7-1.5-0.9c-0.5-0.1-1.1-0.1-1.7,0.1l-9.5,3.3l-6.6-6.8c-0.4-0.4-1-0.7-1.5-0.9c-0.5-0.1-1.1-0.1-1.7,0.1l-9.5,3.3
		l-6.6-6.8c-0.4-0.4-1-0.7-1.5-0.9c-0.5-0.1-1.1-0.1-1.7,0.1l-4.4,1.6c-1,2.2-1.7,4.4-2.2,6.8c-0.4,1.9-0.7,3.8-0.8,5.7l3.3,3.4
		c0.4,0.4,1,0.7,1.5,0.8c0.6,0.1,1.2,0.1,1.8-0.1l9.1-3.5l6.9,7.1c0.4,0.4,1,0.7,1.5,0.8c0.6,0.1,1.2,0.1,1.8-0.1l9.1-3.5l6.9,7.1
		c0.4,0.4,1,0.7,1.5,0.8c0.6,0.1,1.2,0.1,1.8-0.1l9.1-3.5l6.9,7.1c0.4,0.4,1,0.7,1.5,0.8c0.6,0.1,1.2,0.1,1.8-0.1l4.2-1.6
		c0.7-1.8,1.3-3.7,1.7-5.6C670.3,118.7,670.6,116.3,670.6,113.8z"/>
	<path class="st29" d="M615.8,108.7l-8-8.2l-6.8,2.4c-0.3,1-0.6,2-0.8,3.1c-0.1,0.6-0.2,1.2-0.3,1.8l5.1,5.2L615.8,108.7z"/>
	<polygon class="st29" points="615.8,108.7 627.1,104.7 635.1,112.9 624.2,117.2 	"/>
	<polygon class="st29" points="635.1,112.9 646.4,108.9 654.4,117.1 643.5,121.4 	"/>
	<path class="st29" d="M654.4,117.1l8.4,8.5l6.6-2.6c0.2-0.6,0.3-1.2,0.5-1.8c0.2-1.1,0.4-2.2,0.6-3.3l-4.6-4.8L654.4,117.1z"/>
</g>
<ellipse transform="matrix(0.2143 -0.9768 0.9768 0.2143 363.4971 693.9232)" class="st14" cx="613.1" cy="121" rx="5.1" ry="5.1"/>
<ellipse transform="matrix(0.2143 -0.9768 0.9768 0.2143 374.2998 715.6495)" class="st14" cx="632" cy="125.2" rx="5.1" ry="5.1"/>
<ellipse transform="matrix(0.2143 -0.9768 0.9768 0.2143 385.5571 738.2905)" class="st14" cx="651.7" cy="129.5" rx="5.1" ry="5.1"/>
<ellipse transform="matrix(0.2143 -0.9768 0.9768 0.2143 363.4971 693.9232)" class="st30" cx="613.1" cy="121" rx="3.1" ry="3.1"/>
<ellipse transform="matrix(0.2143 -0.9768 0.9768 0.2143 374.2998 715.6495)" class="st14" cx="632" cy="125.2" rx="5.1" ry="5.1"/>
<ellipse transform="matrix(0.2143 -0.9768 0.9768 0.2143 385.5571 738.2905)" class="st14" cx="651.7" cy="129.5" rx="5.1" ry="5.1"/>
<ellipse transform="matrix(0.2143 -0.9768 0.9768 0.2143 374.2997 715.6494)" class="st30" cx="632" cy="125.2" rx="3.1" ry="3.1"/>
<ellipse transform="matrix(0.2143 -0.9768 0.9768 0.2143 385.5571 738.2905)" class="st30" cx="651.7" cy="129.5" rx="3.1" ry="3.1"/>
<ellipse transform="matrix(0.2143 -0.9768 0.9768 0.2143 391.5326 679.9836)" class="st14" cx="618.4" cy="96.6" rx="5.1" ry="5.1"/>
<ellipse transform="matrix(0.2143 -0.9768 0.9768 0.2143 402.3352 701.71)" class="st14" cx="637.3" cy="100.8" rx="5.1" ry="5.1"/>
<ellipse transform="matrix(0.2143 -0.9768 0.9768 0.2143 413.5926 724.3508)" class="st14" cx="657.1" cy="105.1" rx="5.1" ry="5.1"/>
<ellipse transform="matrix(0.2143 -0.9768 0.9768 0.2143 391.5326 679.9836)" class="st30" cx="618.4" cy="96.6" rx="3.1" ry="3.1"/>
<ellipse transform="matrix(0.2143 -0.9768 0.9768 0.2143 402.3352 701.71)" class="st14" cx="637.3" cy="100.8" rx="5.1" ry="5.1"/>
<ellipse transform="matrix(0.2143 -0.9768 0.9768 0.2143 413.5926 724.3508)" class="st14" cx="657.1" cy="105.1" rx="5.1" ry="5.1"/>
<ellipse transform="matrix(0.2143 -0.9768 0.9768 0.2143 402.3351 701.7097)" class="st30" cx="637.3" cy="100.8" rx="3.1" ry="3.1"/>
<ellipse transform="matrix(0.2143 -0.9768 0.9768 0.2143 413.5926 724.3508)" class="st30" cx="657.1" cy="105.1" rx="3.1" ry="3.1"/>
<ellipse transform="matrix(0.2143 -0.9768 0.9768 0.2143 387.9239 709.4534)" class="st27" cx="635" cy="113.6" rx="35.7" ry="35.7"/>
<path class="st29" d="M629.7,137.7c-9.8-2.2-18.5-2.4-21.8-0.9c4.9,5.7,11.5,9.9,19.4,11.6c0,0,0,0,0,0c0,0,0,0,0,0
	c7.9,1.7,15.7,0.7,22.5-2.4C647.4,143.2,639.5,139.8,629.7,137.7z"/>
<ellipse transform="matrix(0.2143 -0.9768 0.9768 0.2143 387.9239 709.4534)" class="st27" cx="635" cy="113.6" rx="35.7" ry="35.7"/>
<path class="st29" d="M640.2,89.5c9.8,2.2,18.5,2.4,21.8,0.9c-4.9-5.7-11.5-9.9-19.4-11.6c0,0,0,0,0,0c0,0,0,0,0,0
	c-7.9-1.7-15.7-0.7-22.5,2.4C622.5,84,630.4,87.3,640.2,89.5z"/>
<path class="st14" d="M649,56.7c-6-1.3-12,2.5-13.3,8.6c-1.3,6,2.5,12,8.5,13.4c6,1.3,12-2.5,13.3-8.6S655.1,58,649,56.7z
	 M652.1,68.8c-0.7,3-3.7,4.9-6.7,4.3s-4.9-3.7-4.3-6.7c0.7-3,3.7-4.9,6.7-4.3S652.7,65.8,652.1,68.8z"/>
</svg>
