<?xml version="1.0" encoding="utf-8"?>
<!-- Generator: Adobe Illustrator 26.1.0, SVG Export Plug-In . SVG Version: 6.00 Build 0)  -->
<svg version="1.1" id="Layer_1" xmlns="http://www.w3.org/2000/svg" xmlns:xlink="http://www.w3.org/1999/xlink" x="0px" y="0px"
	 viewBox="0 0 1056.6 202" style="enable-background:new 0 0 1056.6 202;" xml:space="preserve">
<style type="text/css">
	.st0{fill-rule:evenodd;clip-rule:evenodd;fill:#FFFFFF;}
	.st1{fill:#FFFFFF;}
</style>
<polygon class="st0" points="949.8,19.6 913.7,19.6 954.4,83.7 973.3,53.9 "/>
<polygon class="st0" points="999.6,19.6 1035.6,19.6 992.7,87.4 956.7,87.4 "/>
<path class="st0" d="M996.7,128.2l-15.7-0.4l-5.2-14.8c-0.1-0.3-0.4-0.6-0.7-0.7c-0.6-0.2-1.3,0.1-1.5,0.7l-5.2,14.8l-15.6,0.4
	c-0.4,0-0.7,0.2-1,0.5c-0.4,0.5-0.3,1.3,0.2,1.7l12.4,9.5l-4.5,15c-0.1,0.3-0.1,0.7,0.2,1c0.4,0.5,1.1,0.7,1.6,0.3l12.9-8.9
	l12.9,8.9c0.3,0.2,0.7,0.3,1,0.2c0.6-0.2,1-0.8,0.8-1.5l-4.5-15l12.4-9.5c0.3-0.2,0.5-0.5,0.5-0.9
	C997.9,128.8,997.4,128.2,996.7,128.2z"/>
<path class="st0" d="M974.7,92.6c-23.9,0-43.2,19.4-43.2,43.2c0,23.9,19.4,43.2,43.2,43.2c23.9,0,43.2-19.4,43.2-43.2
	C1017.9,111.9,998.6,92.6,974.7,92.6z M974.7,169.4c-19.4,0-35-15.7-35-35c0-19.4,15.7-35,35-35c19.4,0,35,15.7,35,35
	S994,169.4,974.7,169.4z"/>
<g>
	<path class="st1" d="M50.6,73.8H28.3V57h65.1v17H70.9v64H50.6V73.8z"/>
	<path class="st1" d="M101.6,97.4c0-32,0.8-41.4,35.1-41.4s35.1,9.4,35.1,41.4s-0.8,41.4-35.1,41.4S101.6,129.4,101.6,97.4z
		 M151.1,97.4c0-24.7-0.3-25.1-14.4-25.1s-14.5,0.6-14.5,25.1c0,24.7,0.5,25.1,14.5,25.1S151.1,122,151.1,97.4z"/>
	<path class="st1" d="M187,57h38.2c22.5,0,25.6,10.5,25.6,27.5c0,15.4-2.5,27.5-25.6,27.5h-17.9v26.1H187V57z M216.8,95.7
		c12.2,0,13.4-1.7,13.4-11.4c0-9.8-1.2-11.2-13.4-11.2h-9.5v22.6H216.8z"/>
	<path class="st1" d="M309.8,122h39.3v15.9h-58.8v-11.2c0-17.9,0.8-24.8,13.1-30l17.8-7.2c6.7-2.8,7.5-3.9,7.5-9.8c0-7.2-3-8-13.9-8
		c-5.1,0-14.5,0.8-22.9,1.7V58.7c7.5-1.6,19.4-2.7,28.4-2.7c15.6,0,28.7,2.5,28.7,22.5c0,15-4.8,20.4-13.4,23.7l-20.1,8
		c-2.2,0.8-3.7,1.7-4.5,3c-0.9,1.4-1.2,3.3-1.2,6.7v2.2H309.8z"/>
	<path class="st1" d="M362.1,97.4c0-34.6,2-41.4,32.3-41.4s32.3,6.9,32.3,41.4c0,34.6-2,41.4-32.3,41.4
		C364.1,138.7,362.1,132,362.1,97.4z M406.3,97.4c0-25.1-0.3-25.7-11.9-25.7c-11.5,0-11.9,0.6-11.9,25.7s0.3,25.7,11.9,25.7
		C405.8,123.1,406.3,122.5,406.3,97.4z"/>
	<path class="st1" d="M469,97.4c0-32.5,4.1-41.4,34.2-41.4c6.9,0,15.4,0.8,20.4,2.2v14.5c-7.3-0.8-12.6-1.1-15.6-1.1
		c-17.6,0-18.6,2.2-18.6,25.7c0,23.7,0.9,25.7,18.6,25.7c5,0,11.7-0.5,16.1-1.1v15c-5.3,1.1-14,1.7-20.9,1.7
		C473.1,138.7,469,129.8,469,97.4z"/>
	<path class="st1" d="M555.9,57h27.6l25.9,81h-20.8l-4.8-15.8h-28.7l-4.7,15.8h-20.3L555.9,57z M579.2,105.8l-9.4-31.4H569
		l-9.2,31.4H579.2z"/>
	<path class="st1" d="M618.2,136.9v-15.6c8.4,0.8,17.9,1.4,24.3,1.4c7.5,0,11.2-0.6,13.1-2c1.6-1.6,1.7-3.6,1.7-6.4
		c0-5.6-0.5-6.4-7-7.3l-14.8-1.9c-16.9-2-19.7-11.2-19.7-24.2c0-22.2,13.4-24.7,30.9-24.7c10,0,17.3,0.8,27,2.5v15.1
		c-8.6-0.8-15.1-1.4-22.9-1.4c-6.7,0-10.5,0.3-12.3,1.4c-2.2,1.1-2.2,3-2.2,5.9c0,5.5,0.3,6.4,6.7,7.2l17.3,2.2c5.9,0.8,10.9,2,14,7
		c2.2,3.1,3.4,8.4,3.4,16.1c0,24.2-12.6,26.7-29.2,26.7C636.6,138.7,626.8,138.3,618.2,136.9z"/>
	<path class="st1" d="M691.7,57H712v81h-20.3V57z"/>
	<path class="st1" d="M728.8,57h20.9l26.1,43.4h0.6V57h19.5v81h-19l-28.1-47.4h-0.5v47.4h-19.5V57z"/>
	<path class="st1" d="M810.8,97.4c0-32,0.8-41.4,35.1-41.4c34.3,0,35.1,9.4,35.1,41.4s-0.8,41.4-35.1,41.4
		C811.6,138.7,810.8,129.4,810.8,97.4z M860.2,97.4c0-24.7-0.3-25.1-14.4-25.1c-14,0-14.5,0.6-14.5,25.1c0,24.7,0.5,25.1,14.5,25.1
		C859.9,122.5,860.2,122,860.2,97.4z"/>
</g>
</svg>
