<?xml version="1.0" encoding="utf-8"?>
<!-- Generator: Adobe Illustrator 26.1.0, SVG Export Plug-In . SVG Version: 6.00 Build 0)  -->
<svg version="1.1" id="Layer_1" xmlns="http://www.w3.org/2000/svg" xmlns:xlink="http://www.w3.org/1999/xlink" x="0px" y="0px"
	 viewBox="0 0 1056.6 202" style="enable-background:new 0 0 1056.6 202;" xml:space="preserve">
<g id="Livello_1_1_">
</g>
<g id="Layer_1_00000121280000816817959920000000882230360127541942_">
</g>
<path style="fill:#FFFFFF;" d="M287.4,73.3c22.8-4.2,42.3,10.3,47.2,29.8c5.3,21-6.3,41.5-25.9,48.4c-7.5,2.6-15.1,3.1-22.8,1.3
	c-7.7-1.8-14.4-5.6-19.9-11.3c-5.5-5.7-9-12.5-10.6-20.3c-1.5,2.3-2.8,4.5-4.3,6.5c-6.7,9.5-15.4,16.8-25.8,22
	c-0.8,0.4-0.8,0.7-0.6,1.5c1.6,5.6,3.3,11.2,4.9,16.7c0.2,0.6,0.4,0.8,1.1,0.8c2.4,0,4.7-0.2,7.1,0.5c4.4,1.3,9.2,5.9,8.5,13
	c-0.5,4.6-4,9.3-9.8,10.5c-0.9,0.2-1.8,0.2-2.7,0.2c-26.2,0-52.4,0-78.5,0c-6.2,0-11.1-3.8-12.4-9.9c-1.4-6.8,3.4-13.3,10-14.1
	c2-0.3,4.1-0.2,6.3-0.3c1.8-6.1,3.5-12.2,5.3-18.3c-25.4-13.7-38.7-34.7-39.6-63.6c-8.4,6.6-18,9.8-28.7,9.3
	c-10.7-0.5-20-4.6-27.7-12.1c-13-12.5-16.5-32.5-8.8-48.5C67.5,18.2,85,9.2,102.4,11.1c18.9,2.1,33.3,15.8,37.1,33.4
	c15.4-18.3,34.8-27.8,58.8-26.3c24,1.4,42.2,13.1,55.4,33.1c3.9-6.1,9.3-9.7,16.7-10c5.1-0.2,9.6,1.4,13.5,4.6
	C290.9,51.7,294.4,63.1,287.4,73.3z M246.3,51.7c0.1-0.1,0.1-0.2,0.2-0.3c-1.5-1.9-2.9-3.8-4.5-5.6c-11.7-13.2-26.4-20.4-44-21.7
	c-6.1-0.4-12.1,0.1-18.1,1.6c-16.7,4.1-29.7,13.4-39.1,27.8c-0.2,0.4-0.4,0.8-0.4,1.3c-0.3,8.4-2.8,16.1-7.7,23
	c-1.2,1.7-1.7,3.4-1.7,5.3c0,3.2,0,6.4,0.2,9.5c0.2,4.9,1.3,9.7,2.9,14.4c5,15,14.4,26.6,27.9,34.8c1.3,0.8,2.7,1.5,4.1,2.3
	c0.6-2.1,1.2-4.1,1.7-6c0.6-1.9,1.1-3.9,1.7-5.8c-0.3-0.1-0.5-0.2-0.7-0.3c-4.9-2.4-7.6-7.2-6.9-12.5c1-7.1,7.7-11.4,13.6-10.3
	c0.2,0,0.7-0.3,0.8-0.5c0.3-0.9,0.5-1.9,0.8-2.8c0.3-0.9,0.1-1.4-0.5-2.1c-3-3.2-4.9-7.1-5.7-11.4c-0.2-0.9-0.5-1.2-1.3-1.5
	c-5.5-2-8.8-7.6-7.7-13.2c1.5-7.9,10-12.2,16.7-8.8c0.5,0.3,0.9,0.2,1.3-0.2c2-1.6,4.2-2.8,6.5-3.6c3.1-1.1,6.2-1.7,9.4-1.2
	c0.2,0,0.6-0.3,0.8-0.6c2.2-5.1,7.4-8.3,13.2-7.4c6.6,1.1,11.3,8,9.7,14.5c-0.6,2.6-2,4.8-3.9,6.7c0.1,0.7,0.5,1,1.3,1
	c1.1-0.1,2.3-0.1,3.4,0c0.6,0,0.8-0.2,0.9-0.7c0.8-2.9,1.6-5.9,2.3-8.8c0.8-3.1,1.6-6.2,2.5-9.3c1.3-4.7,4.9-7.4,9.7-7.4
	C239.3,51.7,242.8,51.7,246.3,51.7z M326.2,113.2c0.1-17.1-13.8-30.9-31.1-31c-17-0.1-31,13.9-31,31c0,17.2,13.8,31.1,31.3,31.1
	C312.4,144.2,326.3,130.4,326.2,113.2z M98,86c17.9-0.1,32.5-14.7,32.4-32.5c-0.1-18.1-14.7-32.8-32.8-32.6
	c-18.4,0.2-32.4,15-32.3,32.6C65.4,71.6,80,86.1,98,86z M178.8,168.6c0.1-0.8,0.2-1.6,0.3-2.4c0.3-3,0.5-5.9,0.8-8.9
	c0.3-3.2,0.6-6.3,0.9-9.5c0.2-2.5,0.5-4.9,1.5-7.2c2.3-5.2,7.5-8.4,13.1-7.9c5.2,0.5,9.9,4.2,11.3,9.6c0.8,3.2,1,6.6,1.4,9.9
	c0.5,4.4,0.8,8.8,1.2,13.2c0.1,1.1,0.3,2.2,0.4,3.2c4.5,0,9,0,13.5,0c-5.8-20.1-11.6-40.2-17.4-60.3c-7.7,4.3-15.4,4.3-23.2,0.2
	c-5.8,20.1-11.6,40.1-17.4,60.1C169.9,168.6,174.3,168.6,178.8,168.6z M222.6,144c0.2-0.1,0.4-0.1,0.5-0.2
	c10.5-5.5,19-13.2,25.2-23.3c5.2-8.5,8.3-17.7,9.1-27.6c0.4-5.3,0.2-10.6-0.7-15.9c-0.1-0.8-0.4-1.6-0.8-2.3c-0.6-1.1-1.4-2-2.1-3
	c-0.2-0.3-0.7-0.6-1-0.6c-3.1,0-6.3,0-9.4,0c-0.6,0-0.8,0.2-1,0.8c-1.2,4.8-2.5,9.6-3.8,14.3c-0.5,2-1,4.1-1.9,5.9
	c-1.9,3.7-5.2,5.2-9.2,5.2c-3.6,0-7.2,0-10.7,0c-0.5,0-0.9,0.1-1.1,0.6c-1,2.2-2.4,4.2-4.1,6c-0.2,0.2-0.4,0.7-0.3,1
	c1.2,4.4,2.5,8.8,3.8,13.1c0.1,0.2,0.4,0.5,0.6,0.6c0.5,0.1,1.1,0.1,1.6,0.2c6.9,0.6,12,7.9,10.3,14.6c-0.8,3.2-2.5,5.7-5.2,7.5
	c-0.3,0.2-0.6,0.6-0.5,0.9C222.1,142.4,222.4,143.2,222.6,144z M194.3,174.9c-9.2,0-18.4,0-27.5,0c-4.3,0-8.5,0-12.8,0
	c-2.9,0.1-5.4,2.9-5.4,6c0,3,2.7,5.7,5.6,5.7c26.8,0,53.5,0,80.3,0c3.4,0,6.2-3.6,5.5-7c-0.6-2.6-2.8-4.8-6.2-4.8
	C220.6,174.9,207.5,174.9,194.3,174.9z M285,61.5c0.2-7-5.5-13.9-13.8-14c-7.3-0.1-13.7,6.2-14,13.2c-0.3,8,6.1,14.5,13.7,14.6
	C279,75.4,285.1,68.7,285,61.5z M251.2,58c-0.1,0-0.3,0-0.6,0c-4.9,0-9.8,0-14.7,0c-2.1,0-3.3,0.9-3.9,3c-1.8,6.8-3.7,13.6-5.5,20.4
	c-0.5,2-1.6,2.8-3.7,2.8c-9.4,0-18.8,0-28.2,0c-2.2,0-3.7,1.4-3.7,3.4c0,2,1.5,3.4,3.7,3.4c11.2,0,22.3,0,33.5,0
	c0.4,0,0.8,0,1.1-0.1c1.8-0.4,2.3-1.8,2.8-3.4c1.7-6.7,3.5-13.3,5.3-19.9c0.5-1.9,1.6-2.7,3.5-2.7c1.7,0,3.5,0,5.2,0
	c1.8,0,3.5,0,5.2,0C251.2,62.5,251.2,60.3,251.2,58z M209.1,77.9c-3.9-6.5-11.9-9.8-19.7-7.6c-7.1,2-13.8,9-12.9,19
	c0.7,7.8,6.9,14.9,16.2,16c5.8,0.7,14.3-3.5,16.2-8.3c-0.4,0-0.7,0-1.1,0c-4.3,0-8.7,0-13,0c-0.8,0-1.7,0-2.5-0.2
	c-5.3-1.2-8.4-5.9-7.5-11.3c0.7-3.9,4.4-7.4,8.4-7.5c4.8-0.1,9.6-0.1,14.5-0.1C208.2,77.9,208.6,77.9,209.1,77.9z M203.5,168.6
	c-0.3-3.2-0.6-6.3-0.9-9.4c-0.4-3.8-0.8-7.7-1.1-11.5c-0.2-2-0.4-3.9-1.5-5.7c-1.7-2.7-4.7-3.9-7.7-2.9c-2.7,0.9-4.3,2.9-4.8,5.6
	c-0.5,2.8-0.7,5.6-1,8.4c-0.4,4-0.8,8-1.2,12c-0.1,1.1-0.2,2.2-0.3,3.4C191.3,168.6,197.3,168.6,203.5,168.6z M211.9,71.5
	c1.8-1.9,2.2-4.1,1.2-6.3c-1-2.2-3.4-3.7-5.6-3.5c-2.3,0.1-4.4,1.5-5,3.3C206.2,66.4,209.3,68.7,211.9,71.5z M174.3,115.2
	c-2.6-0.5-5.4,1.5-6.2,4.1c-0.8,2.7,0.6,6.1,3,6.8C172.2,122.5,173.3,118.9,174.3,115.2z M174.6,73.8c-2.2-0.8-5.4,1.1-6.4,3.8
	c-0.9,2.5,0.3,5.9,2.4,6.6C171.1,80.5,172.4,77,174.6,73.8z M217.1,124.9c1,3.4,1.9,6.5,2.8,9.8c1.5-1.4,2.2-3.4,1.7-5.4
	C221,127.1,219.5,125.7,217.1,124.9z M264,86.9c1.8-1.9,3.6-3.8,5.2-5.5c-1.6-0.4-3.6-0.8-5.6-1.3C263.7,82.4,263.8,84.7,264,86.9z"
	/>
<path style="fill:#FFFFFF;" d="M182.2,53.4c0,6.6-5.4,12.1-12.1,12.1c-7.1,0-12.3-5.9-12.2-12.4c0.1-6.5,5.6-12,12.2-11.9
	C177.5,41.3,182.4,47.4,182.2,53.4z M170.1,59.3c2.6,0.2,5.9-2,6-5.9c0.1-3.2-2.8-6-5.9-6c-3.3,0-6.1,2.7-6.1,6
	C164.1,56.6,166.8,59.3,170.1,59.3z"/>
<path style="fill:#FFFFFF;" d="M149.7,115c-6.6,0-12.1-5.5-12.1-12.2c0-7.1,5.9-12.1,12.1-12.1c6.3,0,12.2,5,12.2,12.2
	C161.8,109.8,156.3,114.9,149.7,115z M149.6,108.7c3.3,0,5.9-2.5,6-5.6c0.2-3.2-2.4-6.2-5.9-6.3c-3.3,0-6,2.7-6,5.9
	C143.7,106.1,146.3,108.7,149.6,108.7z"/>
<path style="fill:#FFFFFF;" d="M271.9,122c1-2.3,1.9-4.6,2.8-7c11.3,4.6,22.4,9.2,33.7,13.8c-1,2.3-1.9,4.6-2.8,7
	C294.4,131.2,283.2,126.6,271.9,122z"/>
<path style="fill:#FFFFFF;" d="M301.1,100.6c0.7-1.8,1.4-3.5,2.1-5.2c5.3,2.1,10.4,4.3,15.8,6.4c-1.1,2-1.3,4.3-3.4,5.9
	c-5.2,4-9.3,9.1-12.5,14.9c-0.1,0.1-0.1,0.2-0.3,0.4c-2.1-0.9-4.2-1.7-6.3-2.6c1.5-4.2,7.2-10.6,14.3-15.9
	C307.6,103.3,304.4,102,301.1,100.6z"/>
<path style="fill:#FFFFFF;" d="M297.2,92.4c-3.3,8.1-6.6,16.2-9.9,24.3c-2.1-0.9-4.2-1.7-6.3-2.6c2.3-5.6,4.5-11,6.8-16.6
	c-1.6-0.7-3.1-1.3-4.6-1.9c0.5-1.3,1-2.5,1.6-3.8c2.9,1,5.7,1.8,7.9-1.3C294.2,91.2,295.7,91.8,297.2,92.4z"/>
<path style="fill:#FFFFFF;" d="M99.1,52.8c2.1-0.6,4.1-1.3,6.1-1.9c0.2,0.3,0.3,0.5,0.4,0.7c0.6,1.1,1.3,1.4,2.3,1.1
	c0.9-0.3,1.5-1.2,1.3-2.3c-0.3-1.6-0.8-3.1-1.3-4.7c-0.7,0.8-1.1,1.6-1.9,2.1c-3.2,2.1-7.3,2.5-9.6-2.2c-1.1-2.3-1.8-4.8-1.8-7.4
	c0-3.2,1.7-5.7,4.7-6.8c1.4-0.5,2.9-0.9,4.4-1.2c3.3-0.5,5.7,0.9,7.3,3.7c0.7,1.3,1.4,2.7,1.8,4.1c1,3.2,1.9,6.4,2.6,9.7
	c0.5,2.6,0.2,5.2-2,7c-2.9,2.3-6.2,3.3-9.9,2.8C101.1,57,99.8,55.2,99.1,52.8z M106.2,41.3c0.1,0,0.2-0.1,0.3-0.1
	c-0.6-1.8-1.2-3.7-1.9-5.4c-0.5-1.1-1.2-1.3-2.1-1.1c-0.9,0.3-1.5,0.9-1.3,2.1c0.4,1.8,1,3.7,1.6,5.5c0.4,1,1.2,1.3,2.1,1.1
	C105.8,43,106.2,42.4,106.2,41.3z"/>
<path style="fill:#FFFFFF;" d="M75.9,44.2c0-3.7,1.6-6.2,5.1-7.4c1.4-0.5,2.9-0.9,4.3-1.1c3.1-0.3,5.2,1.4,6.7,3.9
	c2.3,3.9,3.6,8.1,4.3,12.5c0.2,1.2,0.2,2.4,0.2,3.6c-0.1,2.5-1.2,4.5-3.5,5.7c-1.9,1-4,1.7-6.1,1.7c-2.9,0.1-4.8-1.5-6.2-3.8
	c-2.1-3.4-3.2-7.2-4.1-11.1C76.2,46.9,76.1,45.6,75.9,44.2z M90.4,56.2c-0.1-0.5-0.2-1.3-0.4-2.1C89,51,88,47.8,87,44.7
	c-0.4-1.2-0.9-2.3-1.4-3.4c-0.4-0.8-1.2-1.1-2.1-0.8c-0.9,0.3-1.3,1-1.3,1.8c0.1,0.9,0.2,1.9,0.5,2.8c1,3.4,2.1,6.8,3.2,10.2
	c0.3,0.8,0.6,1.6,1.1,2.3c0.5,0.8,1.2,1.1,2.2,0.8C90,58.1,90.3,57.4,90.4,56.2z"/>
<path style="fill:#FFFFFF;" d="M119,57.3c0.8,2.5,1.5,4.9,2.3,7.5c-12.1,3.7-24.2,7.5-36.4,11.2c-0.8-2.5-1.5-4.9-2.3-7.5
	C94.7,64.7,106.7,61,119,57.3z"/>
<path style="fill:#FFFFFF;" d="M197.4,121.6c0,0.8,0,1.7,0,2.5c-0.1,1.6-1.4,2.9-3,3.1c-1.4,0.1-2.9-1-3.1-2.5c-0.2-2-0.2-4,0-5.9
	c0.2-1.7,1.7-2.7,3.2-2.5c1.6,0.2,2.8,1.4,2.8,3.1C197.5,120.1,197.4,120.9,197.4,121.6z"/>
<path style="fill:#FFFFFF;" d="M247.9,109.6c0,6.8-5.4,12.1-12.1,12.1c-6.8,0-12.2-5.5-12.1-12.3c0-6.6,5.6-12,12.3-11.9
	C242.9,97.5,248.1,103.3,247.9,109.6z M235.8,103.6c-3.4,0-6,2.6-6,5.9c0,3.3,2.6,6,5.9,6c3.3,0,6-2.8,6-6
	C241.8,106.3,239.1,103.6,235.8,103.6z"/>
<g>
	<path style="fill:#FFFFFF;" d="M362.3,160.5l27.6-130.1h44.2l-20.6,96.8H457l-7.2,33.3H362.3z"/>
	<path style="fill:#FFFFFF;" d="M520.4,162c-13.5,0-24.1-0.9-31.9-2.8s-13.2-4.9-16.4-9.2c-3.2-4.2-4.7-9.9-4.7-17.1
		c0-4.8,0.6-10.4,1.9-16.9c1.3-6.5,2.7-14,4.3-22.4c2-10.5,3.9-19.4,5.8-26.9c1.8-7.5,4.1-13.7,6.9-18.5c2.8-4.8,6.4-8.7,10.9-11.5
		c4.5-2.8,10.3-4.8,17.5-6c7.2-1.1,16.2-1.7,27-1.7c13.5,0,24,0.9,31.6,2.8c7.6,1.9,12.9,4.9,16.1,9.2c3.1,4.2,4.7,10,4.7,17.3
		c0,4.9-0.5,10.6-1.6,17c-1.1,6.4-2.6,13.8-4.4,22.1c-2.4,10.6-4.6,19.6-6.6,27.1c-2,7.5-4.3,13.7-7,18.5
		c-2.6,4.9-6.1,8.7-10.5,11.4c-4.3,2.8-10,4.7-17,5.9C539.9,161.4,531.1,162,520.4,162z M523.2,130.4c2.6,0,4.9-0.1,6.6-0.4
		c1.8-0.3,3.2-0.9,4.4-2.1c1.2-1.1,2.3-2.9,3.2-5.4c0.9-2.5,1.9-5.9,2.9-10.3c1-4.4,2.3-10,3.8-16.8c1.5-7.2,2.7-13,3.5-17.6
		c0.8-4.5,1.2-8,1.2-10.4c0-2.3-0.4-3.9-1.1-4.9c-0.8-1-1.9-1.6-3.5-1.8c-1.6-0.2-3.6-0.3-6.1-0.3c-2.6,0-4.8,0.1-6.5,0.4
		c-1.7,0.3-3.2,0.9-4.3,2.1c-1.2,1.1-2.3,2.9-3.2,5.4c-0.9,2.5-1.9,5.9-2.9,10.3c-1,4.4-2.2,10-3.6,16.8c-1,4.9-1.9,9.2-2.7,12.9
		c-0.8,3.7-1.4,6.7-1.8,9.3c-0.4,2.5-0.6,4.6-0.6,6.2c0,2.1,0.4,3.7,1.1,4.6c0.8,0.9,1.9,1.5,3.5,1.7
		C518.6,130.3,520.7,130.4,523.2,130.4z"/>
	<path style="fill:#FFFFFF;" d="M615.3,160.5l20.6-96.8h-31.8l7.2-33.3h107.9L712,63.7h-31.9l-20.6,96.8H615.3z"/>
	<path style="fill:#FFFFFF;" d="M760.8,162c-13.5,0-24.1-0.9-31.9-2.8c-7.8-1.9-13.2-4.9-16.4-9.2c-3.2-4.2-4.7-9.9-4.7-17.1
		c0-4.8,0.6-10.4,1.9-16.9c1.3-6.5,2.7-14,4.3-22.4c2-10.5,3.9-19.4,5.8-26.9c1.8-7.5,4.1-13.7,6.9-18.5c2.8-4.8,6.4-8.7,10.9-11.5
		c4.5-2.8,10.3-4.8,17.5-6c7.2-1.1,16.2-1.7,27-1.7c13.5,0,24,0.9,31.6,2.8c7.6,1.9,12.9,4.9,16.1,9.2c3.1,4.2,4.7,10,4.7,17.3
		c0,4.9-0.5,10.6-1.6,17c-1.1,6.4-2.6,13.8-4.4,22.1c-2.4,10.6-4.6,19.6-6.6,27.1c-2,7.5-4.3,13.7-7,18.5
		c-2.6,4.9-6.1,8.7-10.5,11.4c-4.3,2.8-10,4.7-17,5.9C780.4,161.4,771.5,162,760.8,162z M763.6,130.4c2.6,0,4.8-0.1,6.6-0.4
		c1.8-0.3,3.2-0.9,4.4-2.1c1.2-1.1,2.3-2.9,3.2-5.4c0.9-2.5,1.9-5.9,2.9-10.3c1-4.4,2.3-10,3.8-16.8c1.5-7.2,2.7-13,3.5-17.6
		c0.8-4.5,1.2-8,1.2-10.4c0-2.3-0.4-3.9-1.1-4.9c-0.8-1-1.9-1.6-3.5-1.8c-1.6-0.2-3.6-0.3-6.1-0.3c-2.6,0-4.8,0.1-6.5,0.4
		c-1.7,0.3-3.2,0.9-4.3,2.1c-1.2,1.1-2.3,2.9-3.2,5.4s-1.9,5.9-2.9,10.3c-1,4.4-2.2,10-3.6,16.8c-1,4.9-1.9,9.2-2.7,12.9
		c-0.8,3.7-1.4,6.7-1.8,9.3c-0.4,2.5-0.6,4.6-0.6,6.2c0,2.1,0.4,3.7,1.1,4.6c0.8,0.9,1.9,1.5,3.5,1.7
		C759.1,130.3,761.1,130.4,763.6,130.4z"/>
</g>
</svg>
