<?xml version="1.0" encoding="utf-8"?>
<!-- Generator: Adobe Illustrator 26.1.0, SVG Export Plug-In . SVG Version: 6.00 Build 0)  -->
<svg version="1.1" id="Layer_1" xmlns="http://www.w3.org/2000/svg" xmlns:xlink="http://www.w3.org/1999/xlink" x="0px" y="0px"
	 viewBox="0 0 1056.6 202" style="enable-background:new 0 0 1056.6 202;" xml:space="preserve">
<g id="Livello_1_1_">
</g>
<g id="Layer_1_00000121280000816817959920000000882230360127541942_">
</g>
<g>
	<path style="fill:#FFFFFF;" d="M288.8,46.8h18.9L303.3,67h10.3l4.4-20.2h18.9L325,102.4h-18.9l4.4-20.3h-10.3l-4.4,20.3H277
		L288.8,46.8z"/>
	<path style="fill:#FFFFFF;" d="M334.7,93.3c0-2.9,0.3-6.6,1.3-11.3c3.4-16.8,7.8-21.3,16-21.3c4.4,0,8.6,0.6,10.7,4.7h0.8l1.3-4.1
		h16.8l-8.7,41.2h-16.7l0.7-4.6H356c-2.9,4.4-6.7,5.3-10.3,5.3C338.3,103.1,334.7,100.9,334.7,93.3z M358.5,87.7
		c0.8-2.3,2.5-10,2.5-12c0-1.6-0.6-1.8-2.7-1.8c-3.3,0-3.4,0.2-5.1,7.9c-0.7,3.2-1.1,5.1-1.1,6.3c0,1.5,0.8,1.6,2.8,1.6
		C357.3,89.7,357.9,89.6,358.5,87.7z"/>
	<path style="fill:#FFFFFF;" d="M378.2,107.3c6.1,0,6.1-1.3,6.7-4.1l6.3-29.9h-6.9l2.6-12.1h6.9l0.2-1.1c4-17.3,6.1-17.7,30.4-17.7
		l-2.3,11.1c-8.4,0-9.1,0.2-10.1,4.7l-0.6,3h9.1l-2.6,12.1h-9.1l-5.5,26.1c-4,19.1-6.9,18.8-27.5,19.1L378.2,107.3z"/>
	<path style="fill:#FFFFFF;" d="M424.1,94.3c0-2.4,0.5-5.5,1.4-9.5l2.4-11.4h-6.8l2.6-12.1h6.8l2.5-12h17.6l-2.5,12h8.2l-2.6,12.1
		h-8.2l-2.8,13.3c-0.2,0.8-0.3,1.5-0.3,2.3c0,1.9,1.6,2.4,7.9,2.4l-2.3,11.1C429.7,102.4,424.1,102.2,424.1,94.3z"/>
	<path style="fill:#FFFFFF;" d="M455.6,93.3c0-2.9,0.3-6.6,1.3-11.3c3.4-16.8,7.8-21.3,16-21.3c4.4,0,8.6,0.6,10.7,4.7h0.8l1.3-4.1
		h16.8l-8.7,41.2H477l0.7-4.6h-0.9c-2.9,4.4-6.7,5.3-10.3,5.3C459.2,103.1,455.6,100.9,455.6,93.3z M479.4,87.7
		c0.8-2.3,2.5-10,2.5-12c0-1.6-0.6-1.8-2.7-1.8c-3.3,0-3.4,0.2-5.1,7.9c-0.7,3.2-1.1,5.1-1.1,6.3c0,1.5,0.8,1.6,2.8,1.6
		C478.2,89.7,478.8,89.6,479.4,87.7z"/>
	<path style="fill:#FFFFFF;" d="M509.7,61.2h16.7l-0.6,4.6h0.8c3.4-4.4,8-5.3,11.2-5.3c7.8,0,10,2.8,10,8.4c0,2.3-0.6,6.2-1.5,10.1
		l-5,23.4h-17.2l4.4-20.7c0.6-2.6,1.1-5.1,1.1-6.1c0-1.5-0.6-1.7-1.9-1.7c-3.1,0-3.3,0.4-4.7,6.7l-4.7,21.7H501L509.7,61.2z"/>
	<path style="fill:#FFFFFF;" d="M557.3,61.2h17.6l-8.7,41.2h-17.5L557.3,61.2z"/>
	<path style="fill:#FFFFFF;" d="M582,61.2h16.7l-0.6,4.6h0.8c3.4-4.4,8-5.3,11.2-5.3c7.8,0,10,2.8,10,8.4c0,2.3-0.6,6.2-1.5,10.1
		l-5,23.4h-17.2l4.4-20.7c0.6-2.6,1-5.1,1-6.1c0-1.5-0.6-1.7-1.9-1.7c-3.1,0-3.3,0.4-4.7,6.7l-4.7,21.7h-17.2L582,61.2z"/>
	<path style="fill:#FFFFFF;" d="M654,46.8h40.7l-2.9,13.5h-21.9l-1.5,7.4h18.1l-2.8,13.2h-18.1l-1.7,8h21.9l-2.9,13.5h-40.6
		L654,46.8z"/>
	<path style="fill:#FFFFFF;" d="M698.8,61.2h16.7l-0.6,4.6h0.8c3.4-4.4,8-5.3,11.2-5.3c7.8,0,10,2.8,10,8.4c0,2.3-0.6,6.2-1.5,10.1
		l-5,23.4h-17.2l4.4-20.7c0.6-2.6,1-5.1,1-6.1c0-1.5-0.6-1.7-1.9-1.7c-3.1,0-3.3,0.4-4.7,6.7l-4.7,21.7H690L698.8,61.2z"/>
	<path style="fill:#FFFFFF;" d="M759.9,101.6l2.6-12.8c5.8,0.5,11.8,0.8,15.4,0.8c4.3,0,6.2-0.1,7.2-0.6c0.9-0.6,1.6-2.4,1.6-4.4
		c0-1.9-1.5-1.8-6.6-2.7l-9.1-1.5c-4.3-0.7-5.8-3.6-5.8-8.6c0-2.6,0.4-5.7,1.1-9.1c3.2-14.1,11.7-16.4,25.6-16.4
		c6.8,0,14.6,0.7,18.7,1.7l-2.7,12.7c-4-0.5-10.6-0.9-15.8-0.9c-3.1,0-4.6,0.2-5.6,0.9c-1.1,0.8-1.5,2.3-1.5,3.9c0,1.3,0.9,1.5,4,2
		l8.2,1.4c4.6,0.7,9.4,2.1,9.4,10.1c0,1.9-0.2,4.4-0.9,7.4c-3.6,16-11.2,17.7-24.6,17.7C774,103.1,765,102.4,759.9,101.6z"/>
	<path style="fill:#FFFFFF;" d="M810,92.8c0-3,0.3-6.5,1.2-10.9c3.1-15.3,4.7-21.3,23.2-21.3c14.5,0,18.3,2.3,18.3,8.9
		c0,3.2-1.2,8.5-2.1,12.4l-0.7,3.2h-22.5c-0.2,0.7-0.6,2.7-0.6,3.3c0,2.6,0.6,2.6,9,2.6c2.7,0,7.9-0.2,12.6-0.6l-2.3,11.1
		c-3.2,1-9.6,1.6-15.3,1.6C814.6,103.1,810,100,810,92.8z M835.8,78.2l0.2-1.3c0.3-1.9,0.6-2.8,0.6-3.7c0-1.6-0.8-1.7-2.9-1.7
		c-3.5,0-3.5,0.2-4.8,6.7H835.8z"/>
	<path style="fill:#FFFFFF;" d="M858.8,61.2h16.9L875,87.9h0.9l10.3-26.7h17.5l-19.4,41.2h-23.8L858.8,61.2z"/>
	<path style="fill:#FFFFFF;" d="M907.4,61.2H925l-8.7,41.2h-17.5L907.4,61.2z M911.4,42.4H929l-2.6,12.2h-17.6L911.4,42.4z"/>
	<path style="fill:#FFFFFF;" d="M936.1,42.4h17.6l-12.7,60h-17.5L936.1,42.4z"/>
	<path style="fill:#FFFFFF;" d="M950,92.8c0-3,0.3-6.5,1.2-10.9c3.1-15.3,4.7-21.3,23.2-21.3c14.5,0,18.3,2.3,18.3,8.9
		c0,3.2-1.2,8.5-2.1,12.4l-0.7,3.2h-22.5c-0.2,0.7-0.6,2.7-0.6,3.3c0,2.6,0.6,2.6,9,2.6c2.7,0,7.9-0.2,12.6-0.6l-2.3,11.1
		c-3.2,1-9.6,1.6-15.3,1.6C954.6,103.1,950,100,950,92.8z M975.9,78.2l0.2-1.3c0.3-1.9,0.6-2.8,0.6-3.7c0-1.6-0.8-1.7-2.9-1.7
		c-3.5,0-3.5,0.2-4.8,6.7H975.9z"/>
	<path style="fill:#FFFFFF;" d="M1001.7,61.2h16.7l-0.6,4.6h0.8c3.4-4.4,8-5.3,11.2-5.3c7.8,0,10,2.8,10,8.4c0,2.3-0.6,6.2-1.5,10.1
		l-5,23.4h-17.2l4.4-20.7c0.6-2.6,1.1-5.1,1.1-6.1c0-1.5-0.6-1.7-1.9-1.7c-3.1,0-3.3,0.4-4.7,6.7l-4.7,21.7H993L1001.7,61.2z"/>
	<path style="fill:#FFFFFF;" d="M279.8,167.2c0-4.1,1.3-9.6,2.7-16.8c4.3-22.5,5.9-27.6,29.1-27.6c17.2,0,22.4,3.2,22.4,12.5
		c0,4.2-1,9.6-2.6,16.7c-5.2,22.6-6,27.6-28.9,27.6C285.1,179.6,279.8,176.4,279.8,167.2z M312.6,151.2c1.3-6.1,2-9.9,2-12
		c0-2.9-1.4-3-4.6-3c-5.7,0-5.7,0.3-8.8,15c-1.4,6.4-2.2,10-2.2,12.1c0,2.7,1.4,2.8,4.6,2.8C309.3,166.2,309.5,165.8,312.6,151.2z"
		/>
	<path style="fill:#FFFFFF;" d="M333.3,194.4l2.3-10.9h10.7c8.9,0,9.1,0,10.4-6.2c0.3-1.4,0.6-2.8,0.9-4.2h-0.8
		c-3.5,4.4-7.6,5.3-10.6,5.3c-8,0-10.4-3.1-10.4-8.7c0-2.1,0.3-4.5,1-7.4l5.3-24.5h17.3l-4.4,20.4c-0.6,2.7-0.9,4.3-0.9,5.3
		c0,1.5,0.6,1.5,2.3,1.5c2.8,0,3-0.1,4.4-6.7l4.4-20.4h17.3l-7.8,36.8c-2.9,13.7-4,21.1-26.5,21.1
		C342.7,195.6,336.6,195.2,333.3,194.4z"/>
	<path style="fill:#FFFFFF;" d="M383.1,170.9c0-2.3,0.7-6.2,1.5-10.1l4.9-23h17.2l-4.4,20.7c-0.6,2.6-1.1,5.1-1.1,6.1
		c0,1.5,0.6,1.7,1.9,1.7c3.1,0,3.3-0.4,4.7-6.7l4.7-21.7h17.2l-8.7,41.2h-16.7l0.6-4.6h-0.8c-3.4,4.4-8,5.3-11.2,5.3
		C385.3,179.6,383.1,176.7,383.1,170.9z"/>
	<path style="fill:#FFFFFF;" d="M437.2,137.8h16.7l-0.6,4.6h0.8c3.4-4.4,8-5.3,11.2-5.3c7.8,0,10,2.8,10,8.4c0,2.3-0.6,6.2-1.5,10.1
		l-5,23.4h-17.2l4.4-20.7c0.6-2.6,1.1-5.1,1.1-6.1c0-1.5-0.6-1.7-1.9-1.7c-3.1,0-3.3,0.4-4.7,6.7l-4.7,21.7h-17.2L437.2,137.8z"/>
	<path style="fill:#FFFFFF;" d="M488.6,119h17.6l-12.7,60H476L488.6,119z"/>
	<path style="fill:#FFFFFF;" d="M502.5,169.9c0-2.9,0.3-6.6,1.3-11.3c3.4-16.8,7.8-21.3,16-21.3c4.4,0,8.6,0.6,10.7,4.7h0.8l1.3-4.1
		h16.8l-8.7,41.2h-16.7l0.7-4.6h-0.9c-2.9,4.4-6.7,5.3-10.3,5.3C506,179.6,502.5,177.5,502.5,169.9z M526.3,164.3
		c0.8-2.3,2.5-10,2.5-12c0-1.6-0.6-1.8-2.7-1.8c-3.3,0-3.4,0.2-5.1,7.9c-0.7,3.2-1.1,5.1-1.1,6.3c0,1.5,0.8,1.6,2.8,1.6
		C525.1,166.3,525.7,166.2,526.3,164.3z"/>
	<path style="fill:#FFFFFF;" d="M556.6,137.8h16.7l-1.1,6.9h0.8c3.6-6.1,6.5-7.5,14-7.5l-3.2,15c-10.8,0-13.3,2-15.7,13l-3,13.8
		h-17.2L556.6,137.8z"/>
	<path style="fill:#FFFFFF;" d="M592,137.8h17.6l-8.7,41.2h-17.5L592,137.8z"/>
</g>
<g>
	<path style="fill:#FFFFFF;" d="M242.8,39.3c-0.1,0-0.1,0-0.2,0H30.5c-0.1,0-0.1,0-0.2,0c-4.2,0-7.6,32.9-7.6,73.5
		s3.4,73.5,7.6,73.5h212.5c4.2,0,7.6-32.9,7.6-73.5C250.5,72.2,247.1,39.3,242.8,39.3z M224.5,85.4v55.7h-49.3V85.4H224.5z
		 M161.4,85.4v55.7h-49.3V85.4H161.4z M49,85.4h49.3v55.7H49V85.4z"/>
	<path style="fill:#FFFFFF;" d="M155,33.4l-4.7-23c-0.8-3.9-4.5-6.7-8.9-6.7h-4.6h-4.4c-4.3,0-8.1,2.8-8.9,6.7l-4.7,23h5.8H155z"/>
</g>
<g>
	<path style="fill-rule:evenodd;clip-rule:evenodd;fill:#FFFFFF;" d="M73.4,134.2c5.6-8.4,9.7-11.7,16.3-18.7
		c2.6-2.7,4.7-6.1,4.7-9.9c0-5.8-4.8-10.6-10.6-10.6c-5.1,0-9.4,3.6-10.4,8.4c-1-4.8-5.3-8.4-10.4-8.4c-5.8,0-10.6,4.8-10.6,10.6
		c0,3.6,2.1,7.6,4.4,9.9C63.8,122.4,68,126.6,73.4,134.2z"/>
</g>
<g>
	<path style="fill-rule:evenodd;clip-rule:evenodd;fill:#FFFFFF;" d="M136.6,134.2c5.6-8.4,9.7-11.7,16.3-18.7
		c2.6-2.7,4.7-6.1,4.7-9.9c0-5.8-4.8-10.6-10.6-10.6c-5.1,0-9.4,3.6-10.4,8.4c-1-4.8-5.3-8.4-10.4-8.4c-5.8,0-10.6,4.8-10.6,10.6
		c0,3.6,2.1,7.6,4.4,9.9C126.9,122.4,131.1,126.6,136.6,134.2z"/>
</g>
<g>
	<path style="fill-rule:evenodd;clip-rule:evenodd;fill:#FFFFFF;" d="M200.5,134.2c5.6-8.4,9.7-11.7,16.3-18.7
		c2.6-2.7,4.7-6.1,4.7-9.9c0-5.8-4.8-10.6-10.6-10.6c-5.1,0-9.4,3.6-10.4,8.4c-1-4.8-5.3-8.4-10.4-8.4c-5.8,0-10.6,4.8-10.6,10.6
		c0,3.6,2.1,7.6,4.4,9.9C190.9,122.4,195.1,126.6,200.5,134.2z"/>
</g>
</svg>
