<?xml version="1.0" encoding="UTF-8"?> <svg xmlns="http://www.w3.org/2000/svg" xmlns:xlink="http://www.w3.org/1999/xlink" version="1.1" id="Layer_1" x="0px" y="0px" viewBox="0 0 1000 1000" style="enable-background:new 0 0 1000 1000;" xml:space="preserve"> <path style="fill:#FFFFFF;" d="M516.7,110.8c5.6,0.5,11.1,1,16.7,1.4c37.9,2.9,74.7,11,109.8,25.5c115,47.3,192.1,130.2,230.4,248.6 c13.9,43,18.9,87.5,16.6,132.6c-3.7,73.5-26.5,140.6-67.7,201.5c-0.6,0.8-1.1,1.7-1.9,3c35.9,10.1,71,21.2,105.7,34.6 c-58.9-5.4-117.3-10.8-176.2-16.2c-1.7-15.2-3.4-30.9-5.2-47.6c-2.3,2.7-4.3,4.8-6.1,7c-11,13.6-23.6,25.6-36.9,36.8 c-1.1,0.9-2.8,1.5-4.2,1.4c-20.8-1-41.5-2-62.3-3.1c92.5-58.3,140.2-141.4,135.7-251.1c-3.1-75.8-35.2-139.5-92.2-189.5 c-115.6-101.2-292.4-84.8-388.3,34.4c-52.1,64.8-70.7,139-55.3,220.7c15.4,81.6,60.9,142.7,132.8,185.4c-2.8,0.3-4.9,0.6-7,0.7 c-15.4,0.6-30.9,1.2-46.3,1.8c-1,0-2.2-0.2-3.1,0.1c-7.5,2.4-12.5-1.5-17.8-6.2c-12.4-11-23.8-22.9-34.1-35.8 c-0.5-0.6-0.9-1.3-1.3-1.9c-0.3,0.1-0.7,0.2-1,0.3c-1.7,15.6-3.4,31.3-5.2,47.1c-7,0.6-13.9,1.2-20.9,1.7c-19,1.5-38,2.9-57,4.6 c-17.5,1.5-34.9,3.1-52.3,4.9c-15.3,1.6-30.7,3.6-46,5.4c0-0.5,0-1,0-1.6c1.2-0.3,2.5-0.5,3.7-0.9c25.7-8.7,51.4-17.4,77.2-26 c8-2.7,16.3-4.8,24.9-7.3c-1.4-2-2.4-3.6-3.5-5.2c-40.6-60.4-62.8-127-66.3-199.6c-2.2-45.2,3-89.7,16.9-132.9 C162.5,280.7,228.4,203,326,152.4c44.6-23.1,92.3-36.1,142.4-40.1c5.7-0.5,11.4-1,17-1.5C495.9,110.8,506.3,110.8,516.7,110.8z M785.2,703.5c14.5-20.3,26.2-41.2,36.2-64.2c-16.6,4.8-32.4,9.4-48.4,14.1C777.1,670.2,781.1,686.4,785.2,703.5z M183.3,355.8 c16.8-4.8,32.8-9.3,49-13.9c-4-16.5-8-32.4-12.1-49.1C205.3,312.6,193.5,333.3,183.3,355.8z M229.1,653.5 c-16.1-4.7-31.7-9.2-48.1-13.9c10.3,22.5,21.2,43.6,35.9,63.6C221.1,686.2,225,670.1,229.1,653.5z M654.8,228.8 c16.7-4.2,32.8-8.2,49.5-12.4c-20.1-14-40.5-26-63.4-35.7C645.7,197.1,650.2,212.7,654.8,228.8z M188.8,497.2 c-11.6-12-22.9-23.9-34.7-36.2c-2.9,24.5-3.1,48.3-0.5,72.8C165.6,521.4,177.1,509.4,188.8,497.2z M848.6,533.8 c2.4-24.6,2.4-48.3-0.6-72.7c-11.9,12.4-23.2,24.2-34.6,36.1C825.1,509.3,836.6,521.3,848.6,533.8z M298.2,216.5 c16.6,4.1,32.7,8.1,49.1,12.1c4.6-15.9,9.2-31.6,13.8-47.7C347.5,185.4,309.3,207,298.2,216.5z M770.1,341.7 c16.3,4.7,32.2,9.3,48.8,14.1c-10.2-22.5-22.3-42.9-36.9-62.7C778,309.5,774.1,325.3,770.1,341.7z M501.1,188.3 c11.4-11.8,22.4-23.3,33.8-35.2c-23-2.1-45.1-2.5-67.9,0.1C478.6,165.1,489.7,176.5,501.1,188.3z M588.7,162.9 c-13.8,10-26.9,19.6-39.7,28.9c19.9,5.1,39.7,10.2,59.4,15.3C602,192.6,595.5,178.1,588.7,162.9z M163.3,587.3 c15.3,6.8,30,13.4,44.2,19.8c-5.1-19.7-10.2-39.3-15.3-59.2C182.8,560.7,173.2,573.8,163.3,587.3z M740.8,299.8 c1.6-15.7,3.2-31.6,4.8-48.2c-16.7,1.8-32.7,3.6-48.5,5.4C711.7,271.3,726.1,285.4,740.8,299.8z M794.7,607 c14.3-6.4,29.1-13,44.1-19.8c-9.8-13.4-19.4-26.5-28.9-39.4C804.9,567.7,799.8,587.3,794.7,607z M453.1,191.8 c-12.9-9.4-26-19-39.4-28.8c-6.8,15.1-13.4,29.8-19.8,44C413.6,201.9,433.2,196.9,453.1,191.8z M165,407c9.7,13.4,19.1,26.4,28.2,39 c5.5-19.7,11-39.3,16.5-58.7C195.2,393.7,180.4,400.2,165,407z M792.5,387.3c5.5,19.6,11,39.2,16.5,58.7c9.2-12.7,18.6-25.7,28.2-39 C821.8,400.2,806.9,393.6,792.5,387.3z M256.6,251.7c1.7,16.7,3.3,32.4,4.9,47.9c14.5-14.3,28.9-28.4,43.4-42.7 C289.3,255.2,273.3,253.5,256.6,251.7z"></path> <path style="fill:#FFFFFF;" d="M761.3,500.2c0,29.4-4.4,58.2-14.4,85.9c-14.6,40.3-37.3,75.5-68.9,104.7 c-19,17.5-39.9,32.2-63.3,43.3c-1.9,0.9-4.2,1.4-6.3,1.4c-43.5-0.4-87.1-1.3-130.6-1.4c-27.9-0.1-55.9,1-83.8,1.4 c-2.2,0-4.6-0.6-6.6-1.5c-30.3-14.8-56.6-34.8-79.2-59.8c-25-27.7-43.6-59.1-54.5-94.7c-4.7-15.4-8.4-31.2-10.5-47.2 c-2-15.6-2.5-31.6-1.7-47.3c1.6-32.7,9.2-64.2,23.4-93.8c34.6-72.5,90.7-119.8,167.8-142c26.2-7.5,53.1-10.1,80.2-8.7 c11.1,0.6,22.2,2.2,33.1,3.9c36.9,5.7,70.6,19.8,101.2,40.9c57.7,39.8,93.9,94.2,108.7,162.8C759.8,465.1,761.4,482.6,761.3,500.2z M719.9,424.8c-0.8,0.2-1.2,0.2-1.5,0.4c-14.8,6.7-30.8,8.7-46.7,10.8c-1.7,0.2-4.2-0.5-5.4-1.8c-31.4-33.3-51.5-72.7-61.9-117.5 c-2.2,0-4.5,0.2-6.8,0c-8.9-0.8-17.8-1.3-26.6-2.5c-11.8-1.7-23.6-4.1-35.4-5.8c-1.6-0.2-4.2,0.9-5.1,2.2c-2.1,3-3.5,6.5-5.3,10 c-15.4-2.8-29.7-9.6-43.5-14.9c-1.3-7.2-2.6-13.5-3.7-19.9c-0.4-2.7-1.7-3.6-4.4-3.6c-4.1,0-8.3-0.5-12.5-0.4 c-20.8,0.6-41.3,3.4-61.7,7.4c-5.9,1.2-12.2,2.3-17.1,5.5c-13.9,9-27.7,18.4-40.7,28.6c-14.6,11.5-27.4,25.1-36.6,41.6 c-6.6,12-9.8,24.5-6.2,38.3c8.8,33.4,30,57.2,58.3,75.4c1.2,0.8,3.2,0.8,4.6,0.4c16.5-4.4,33.1-8.1,50.3-8.2 c15.4-0.1,30.5,1.3,44.7,7.8c1.6,0.7,3.1,2.6,3.7,4.3c3.1,9.1,2.6,18.3-0.4,27.3c-0.7,2-0.5,2.9,1.1,4.5c3.7,3.6,7.3,7.4,10.1,11.7 c9.3,14.3,14.1,30.5,18.1,46.9c0.9,3.6,0.1,6.3-1.7,9.4c-2.6,4.4-5,9.1-6.6,13.9c-2.3,6.9-4.6,13.6-2.2,21.4 c9.5,31,22.8,60.3,36.7,89.5c0.5,1.1,2.5,2.2,3.7,2.1c18.1-1.5,36.1-3.1,54.2-4.8c1.1-0.1,2.4-1,3.2-1.9c12-12.3,23-25.4,31.9-40.1 c6.8-11.2,13.4-22.6,12.5-36.5c0-0.7,1.1-2,2-2.2c11.3-3.4,20-10.6,28-19c1.5-1.6,1.7-3,1.3-5.2c-1.6-7.5-3.1-15-3.9-22.5 c-1.7-15-0.8-30.1,0.7-45.1c0.6-6.1,2.4-11,7.4-15.4c10.8-9.6,21-19.8,30.9-30.2c11.3-11.9,21.5-24.7,28.6-39.6 C719.4,440.2,721.9,433,719.9,424.8z M699.5,583c-0.7,1.5-1,2.3-1.4,3.1c-2.1,5-5.1,8.9-10.1,11.6c-6.7,3.6-12.8,8.2-19.1,12.6 c-1.4,1-2.5,2.9-3,4.6c-0.7,2.9-1.5,6.1-0.8,8.8c1.4,5.7-1.5,9-5.1,12.3c-0.7,0.6-1.4,1.2-1.8,2c-0.5,0.8-1,1.8-1,2.7 c-0.1,6.1-0.2,12.1,0,18.2c0,1.5,0.6,3.4,1.6,4.4c3.6,3.8,8.2,3.2,12.7,2.2c3.9-0.9,6.9-2.5,7-7.3c0-2,1-4,1.9-5.9 c4.6-9.1,9.5-18.1,14-27.3c2.8-5.8,5.7-11.6,7.5-17.8C704.2,599.4,704.4,591.2,699.5,583z"></path> <path style="fill:#FFFFFF;" d="M599.2,909.5c-16.9,0-33.3,0.1-49.6-0.1c-1.1,0-2.6-1.4-3.1-2.6c-3.7-7.3-7.3-14.6-10.7-22 c-1.1-2.3-2.3-3.3-4.9-3.3c-20.3,0.1-40.5,0.1-60.8,0c-2.3,0-3.5,0.8-4.5,2.7c-3.9,7.6-8,15.1-12.1,22.6c-0.6,1.1-2.2,2.5-3.3,2.5 c-16.1,0.2-32.2,0.1-48.9,0.1c0.8-1.6,1.4-2.8,2.1-4c19.1-35.5,38.4-70.8,57.2-106.5c6.8-12.9,17.6-18.6,31-20.4 c10-1.3,19.9-0.7,29.5,3c7.4,2.8,13.1,7.5,16.9,14.6c19.7,36.6,39.6,73.1,59.5,109.7C598,906.9,598.5,908,599.2,909.5z M520.1,853.3 c-6.8-13.9-13.3-27.2-20.1-41.2c-6.8,14.1-13.2,27.5-19.8,41.2C493.8,853.3,506.6,853.3,520.1,853.3z"></path> <path style="fill:#FFFFFF;" d="M693.7,857.8c0,17.5,0,34.4,0,51.5c-16.4,0-32.6,0-49.2,0c0-1.6,0-3,0-4.3c0-30.9,0-61.9,0-92.8 c0-17.7,9.1-28.4,26.9-29.6c19.3-1.3,38.7-1.4,58-1.7c19.6-0.3,39.2-0.1,59.2-0.1c0,8.9,0,17.7,0,27.1c-1.4,0-2.9,0-4.4,0 c-24.8,0-49.7,0-74.5,0c-4.5,0-8.9,0.1-12.5,3.3c-1.2,1.1-2.5,2.6-2.6,4c-0.3,4.7-0.1,9.5-0.1,14.6c31.4,0,62.6,0,94,0 c0,9.4,0,18.5,0,28C757,857.8,725.6,857.8,693.7,857.8z"></path> <path style="fill:#FFFFFF;" d="M358,780.8c0,9.1,0,17.9,0,27.2c-1.1,0-2.5,0-3.9,0c-25.2,0-50.4,0-75.6,0c-2.3,0-4.7,0.1-6.9,0.7 c-6.1,1.6-7.6,3.7-7.6,9.9c0,17.7,0,35.3,0,53c0,5.8,2.1,8.6,7.8,9.7c2.4,0.5,4.9,0.6,7.4,0.6c25.7-0.1,51.5-0.2,77.2-0.3 c0.9,0,1.8,0.2,2.8,0.3c0,9.1,0,18,0,27.6c-1.2,0-2.4,0-3.7,0c-32.1,0-64.2,0.1-96.3-0.1c-11.4-0.1-22.3-2.6-32.7-7.6 c-8.8-4.3-13.2-11.3-13.2-21.1c0-23.8,0.1-47.6-0.1-71.3c-0.1-10.6,4.7-17.7,13.9-22.3c7.4-3.7,15.5-5.2,23.7-5.4 c24.7-0.5,49.4-0.6,74.1-0.8C335.7,780.8,346.6,780.8,358,780.8z"></path> </svg> 