<?xml version="1.0" encoding="UTF-8"?> <!-- Generator: Adobe Illustrator 25.3.1, SVG Export Plug-In . SVG Version: 6.00 Build 0) --> <svg xmlns="http://www.w3.org/2000/svg" xmlns:xlink="http://www.w3.org/1999/xlink" version="1.1" id="Layer_1" x="0px" y="0px" viewBox="0 0 1000 1000" style="enable-background:new 0 0 1000 1000;" xml:space="preserve"> <path style="fill:#FFFFFF;" d="M883.68,414.41c-0.92,8.53-1.69,17.08-2.78,25.59c-2.19,16.96-4.57,33.89-6.84,50.84 c-0.39,2.9-1.11,4.83-4.88,4.62c-13.55-0.77-27.11-1.38-40.67-1.63c-4.33-0.08-6.15-1.41-7.09-5.73 c-7.91-36.34-16.09-72.62-24.13-108.93c-2.66-12-5.18-24.03-7.84-36.39c1.6-0.25,2.75-0.58,3.91-0.58 c12.36-0.04,24.71,0.06,37.07-0.08c3.1-0.03,4.2,0.97,4.65,4.11c3.94,27.57,8.09,55.11,12.12,82.67c0.55,3.79,0.76,7.62,1.25,12.78 c5.34-33.86,10.46-66.38,15.63-99.13c13.62,0,26.41,0,40.32,0c5.38,32.03,10.78,64.23,16.18,96.42c0.23,0.06,0.46,0.11,0.69,0.17 c0.25-2.11,0.46-4.23,0.75-6.34c3.19-23.76,6.37-47.52,9.59-71.27c0.71-5.24,1.41-10.49,2.53-15.65c0.31-1.4,2.13-3.52,3.28-3.53 c13.41-0.2,26.82-0.06,40.23,0.02c0.3,0,0.59,0.34,1.34,0.8c-1.98,9.95-3.99,20.08-6.02,30.21c-4.72,23.49-9.45,46.98-14.18,70.46 c-3.41,16.94-6.77,33.89-10.38,50.78c-0.27,1.27-2.43,3.06-3.69,3.04c-13.93-0.2-27.85-0.69-41.77-1.14 c-2.88-0.09-4.79-0.99-5.35-4.47c-3.55-22.1-7.37-44.15-11.03-66.23c-0.62-3.76-0.93-7.58-1.38-11.37 C884.68,414.43,884.18,414.42,883.68,414.41z"></path> <path style="fill:#FFFFFF;" d="M472.91,438.43c0,13.93,0,27.86,0,41.08c-14.96,0-29.35,0-44.22,0c0-46.21,0-91.41,0-137.35 c6.71,0,13.35,0,20,0c6.7,0,13.42,0.2,20.11-0.08c3.9-0.16,5.22,1.01,5.12,5.04c-0.48,19.56-0.69,39.13-0.98,58.7 c-0.02,1.27,0.14,2.55,1.19,3.97c4.11-11.12,8.21-22.25,12.32-33.36c3.79-10.24,7.51-20.5,11.5-30.66c0.57-1.46,2.43-3.42,3.72-3.44 c14.95-0.24,29.91-0.15,45.66-0.15c-4.69,10.7-9.05,20.8-13.52,30.85c-7.01,15.75-14.22,31.41-21.01,47.25 c-0.93,2.17-0.67,5.52,0.33,7.74c7.68,17,15.69,33.85,23.57,50.76c0.43,0.92,0.63,1.94,1.09,3.39c-7.51,0-14.62,0.13-21.72-0.04 c-7.04-0.17-14.06-0.74-21.1-0.94c-2.98-0.08-4.64-0.94-5.78-4.05c-4.81-13.02-9.99-25.89-15.04-38.82 C473.75,438.36,473.33,438.39,472.91,438.43z"></path> <path style="fill:#FFFFFF;" d="M43.62,342.48c14.88,0,29.44,0,44.6,0c0.09,1.97,0.24,3.83,0.24,5.69 c0.02,16.23,0.11,32.46-0.07,48.69c-0.04,3.75,0.74,5.6,4.91,5.27c5.23-0.42,12.33,1.53,15.23-1.18c2.75-2.57,1.34-9.83,1.39-15.03 c0.13-12.88,0.18-25.76-0.04-38.63c-0.06-3.8,0.78-5.31,4.92-5.22c11.99,0.26,23.99,0.08,35.99,0.11c1.37,0,2.73,0.24,4.68,0.42 c0,1.96,0,3.67,0,5.38c0,38.11,0,76.21,0,114.32c0,6.4-0.01,6.23-6.6,5.9c-11.44-0.57-22.88-1.09-34.33-1.25 c-3.96-0.05-4.76-1.68-4.63-5.1c0.19-4.76-0.12-9.53,0.1-14.29c0.17-3.55-1.24-4.63-4.64-4.42c-4.22,0.25-8.47,0.2-12.7,0 c-3.23-0.15-4.36,1.09-4.26,4.31c0.19,5.95,0.05,11.91,0.05,18.65c-15.23-0.65-29.9-1.27-44.85-1.91 C43.62,423.38,43.62,383.09,43.62,342.48z"></path> <path style="fill:#FFFFFF;" d="M563.17,456.09c3.34,2.76,6.3,5.24,9.29,7.67c7.17,5.85,14.87,10.48,24.59,7.56 c8.34-2.51,11.04-10.16,5.62-16.98c-3.66-4.6-8.56-8.29-13.2-12.02c-10.72-8.61-20.35-17.94-24.6-31.6 c-8.21-26.34,6.01-66.56,42.65-71.28c13.05-1.68,25.14,1.87,36.69,7.57c1.02,0.5,2.17,2.03,2.18,3.1c0.14,16,0.1,32,0.1,49.16 c-3.38-3.67-5.89-6.68-8.7-9.38c-5.07-4.86-10.74-8.56-18.18-8.51c-4.85,0.04-8.86,1.94-10.77,6.29c-1.84,4.18-0.75,8.54,2.71,11.62 c4.86,4.32,10.05,8.28,15.14,12.33c9.63,7.67,18.29,16.09,21.92,28.38c4.32,14.62,2.86,28.89-2.52,42.96 c-1.25,3.26-3.58,3.83-6.69,3.7c-19.53-0.86-39.07-1.62-58.61-2.39c-4.76-0.19-9.53-0.1-14.27-0.49c-1.17-0.1-3.18-1.51-3.21-2.37 C563.07,472.88,563.17,464.32,563.17,456.09z"></path> <path style="fill:#FFFFFF;" d="M407.2,459.15c-0.44,6.86-0.81,12.5-1.14,17.55c-11.83,0-22.9,0.26-33.95-0.06 c-16.73-0.48-33.45-1.48-50.18-1.97c-3.54-0.1-5.32-1.09-6.56-4.51c-6.86-18.96-8.32-38.4-6.17-58.32 c1.92-17.77,7.14-34.29,18.94-47.93c19.28-22.29,43.6-29.07,72.06-22.07c3.66,0.9,5.22,2.4,5.14,6.45 c-0.27,12.88-0.09,25.77-0.11,38.65c0,1.33-0.2,2.66-0.34,4.41c-3.29-2.3-5.97-4.52-8.96-6.2c-11.46-6.45-24.76-3.47-32.3,7.31 c-8.48,12.11-9.43,26.03-8.44,40.06c0.47,6.76,1.8,13.76,4.34,20.01c7.15,17.58,23.76,22.41,39.86,12.23 C401.6,463.35,403.67,461.69,407.2,459.15z"></path> <path style="fill:#FFFFFF;" d="M283.54,515.29c-15.41,0-29.84,0.09-44.26-0.16c-1.19-0.02-3.02-2.21-3.38-3.67 c-1.07-4.44-1.32-9.08-2.42-13.51c-0.37-1.48-2.32-3.6-3.63-3.66c-7.92-0.34-15.88-0.35-23.8,0c-1.37,0.06-3.42,2.18-3.81,3.69 c-1.14,4.42-1.36,9.06-2.45,13.5c-0.36,1.46-2.23,3.63-3.44,3.65c-14.41,0.25-28.84,0.16-44,0.16c0.79-4.04,1.33-7.45,2.12-10.8 c2.09-8.91,4.44-17.77,6.38-26.72c0.79-3.63,2.44-4.9,6.15-4.74c32.91,1.36,65.83,2.55,98.74,3.85c9.85,0.39,9.95,0.46,11.91,9.51 C279.66,495.65,281.44,504.94,283.54,515.29z"></path> <path style="fill:#FFFFFF;" d="M456.38,602.5c-0.84,0.63-0.97,0.82-1.12,0.83c-13.66,1.23-13.62,1.22-15.45-12.17 c-0.74-5.41-1.69-10.78-2.6-16.16c-0.07-0.44-0.57-0.81-1.31-1.81c-3.63,8.77-7.13,17.11-10.52,25.49c-1,2.48-1.51,4.95-5.17,4.9 c-3.77-0.05-3.98-2.87-4.9-5.2c-2.83-7.21-5.56-14.45-8.38-21.66c-0.42-1.06-1.15-2-2.42-4.17c-1.48,9.5-3.06,17.69-3.91,25.96 c-0.44,4.28-2.25,5.35-6.08,5.04c-2.94-0.23-5.91-0.05-9.62-0.05c0.9-6.2,1.6-11.7,2.52-17.16c2-11.98,4.22-23.93,6.11-35.92 c0.53-3.35,1.62-4.82,5.31-4.83c10.5-0.03,10.52-0.21,14.22,9.45c2.41,6.32,4.73,12.68,7.67,20.57c3.43-9.11,6.58-16.48,8.95-24.11 c1.47-4.75,3.84-6.2,8.71-5.95c8.75,0.45,8.65,0.15,10.05,8.7c2.39,14.6,4.95,29.16,7.41,43.75 C456.11,599.52,456.22,601.08,456.38,602.5z"></path> <path style="fill:#FFFFFF;" d="M302.1,479.52c10.97,0,21.68-0.22,32.37,0.05c16.9,0.42,33.78,1.26,50.68,1.71 c3.83,0.1,5.2,0.86,4.65,5.19c-0.88,6.97-0.54,14.08-1.23,21.08c-0.2,2.03-1.69,5.02-3.33,5.66c-32.77,12.85-66.94,0.02-82.82-32.24 C302.21,480.52,302.2,479.97,302.1,479.52z"></path> <path style="fill:#FFFFFF;" d="M726.06,569.42c0,10.72-0.19,19.71,0.09,28.67c0.12,4.04-0.87,5.93-5.23,5.47 c-2.94-0.32-5.94-0.06-9.41-0.06c0-19.26,0-38.16,0-57.33c8.14-1.24,15.36-1.61,20.82,7.12c5.54,8.85,12.74,16.67,20.48,24.65 c0.12-1.59,0.34-3.18,0.34-4.78c0.04-7.75,0.11-15.51-0.02-23.26c-0.06-3.21,1.16-4.32,4.35-4.27c13.33,0.22,10.75-1.23,10.88,10.34 c0.15,14.1-0.14,28.2,0.14,42.29c0.09,4.34-1.44,5.07-5.42,5.4c-7,0.59-11.82-1.35-15.84-7.47c-5.11-7.78-11.33-14.83-17.1-22.17 C729.21,572.84,728.14,571.77,726.06,569.42z"></path> <path style="fill:#FFFFFF;" d="M100.65,570.98c2.63,16.27-6.15,29.36-21.63,33.21c-16.18,4.02-31.17-3.89-36.43-19.21 c-5.35-15.56,1.66-32.3,16.14-38.55c14.91-6.44,31.78-0.86,39.48,13.71c-4.16,1.77-8.2,3.7-12.42,5.11 c-0.86,0.29-2.65-1.17-3.54-2.23c-7.61-9.03-19.69-7-23.83,4.08c-2.93,7.84-1.39,16.31,3.83,21.1c6.92,6.35,17.61,4.26,21.07-4.81 c-3.75-0.21-7.3-0.41-10.65-0.59c-0.38-0.51-0.74-0.76-0.77-1.06c-1.21-10.76-1.21-10.76,9.51-10.76 C87.72,570.98,94.04,570.98,100.65,570.98z"></path> <path style="fill:#FFFFFF;" d="M929.01,583.38c-1.37-0.11-2.74-0.3-4.11-0.33c-6.85-0.13-9.14-3.22-6.97-9.82 c0.32-0.96,1.94-2.09,2.99-2.11c7.76-0.19,15.53-0.26,23.28,0.04c1.12,0.04,2.98,2.21,3.09,3.52c1.34,15.32-9.89,28.73-24.9,30.05 c-18.8,1.65-32.68-8.31-34.55-24.78c-1.86-16.37,4.41-28.36,17.63-33.7c15.12-6.11,31.69-0.49,38.93,13.87 c-4.12,1.78-8.18,3.66-12.36,5.21c-0.72,0.27-2.24-0.59-2.92-1.36c-6.19-6.92-10.31-8.29-16.86-5.39 c-5.74,2.54-9.64,10.3-8.94,17.81c1.15,12.36,11.56,19.1,21.37,13.65c2.06-1.15,3.5-3.42,5.23-5.17 C929.61,584.37,929.31,583.87,929.01,583.38z"></path> <path style="fill:#FFFFFF;" d="M27.33,515.3c0-15.83,0-31.1,0-46.65c5.75,0,11.45-0.09,17.15,0.02c7.39,0.14,14.78,0.59,22.17,0.6 c4.15,0.01,5.99,1.24,5.88,5.8c-0.28,11.8-0.09,23.61-0.1,35.42c0,2.3,0.31,4.81-3.21,4.81C55.35,515.29,41.48,515.3,27.33,515.3z"></path> <path style="fill:#FFFFFF;" d="M139.33,514.91c-15.44,0-30.31,0-45.79,0c0-11.62,0-22.87,0-34.11c0-10.22,0-10.16,10.08-9.77 c10.03,0.39,20.06,0.72,30.09,0.91c4.02,0.07,5.87,1.19,5.74,5.81C139.1,490.04,139.33,502.34,139.33,514.91z"></path> <path style="fill:#FFFFFF;" d="M547.08,487.47c27,1.02,53.31,2.01,81.26,3.07c-2.65,3.83-4.29,6.62-6.32,9.08 c-15.08,18.2-34.89,21.01-56.61,16.94c-5-0.94-9.93-2.47-14.7-4.24c-1.52-0.56-3.38-2.72-3.47-4.24 C546.86,501.58,547.08,495.05,547.08,487.47z"></path> <path style="fill:#FFFFFF;" d="M412.35,515.28c0-10.92,0-21.38,0-32.33c6.52,0,12.97-0.13,19.41,0.03 c7.21,0.18,14.42,0.46,21.6,1.13c1.39,0.13,3.64,2.15,3.73,3.41c0.54,7.89,0.72,15.82,0.65,23.74c-0.01,1.35-1.79,3.82-2.79,3.84 C440.89,515.36,426.83,515.28,412.35,515.28z"></path> <path style="fill:#FFFFFF;" d="M535.65,515.3c-9.22,0-17.1,0-24.98,0c-5.63,0-11.31-0.42-16.89,0.12c-5.68,0.55-8.57-1.42-10.3-6.89 c-2.46-7.81-5.72-15.36-8.94-23.83c7.36,0.34,13.93,0.72,20.5,0.94c7.91,0.26,15.84,0.29,23.75,0.68c1.48,0.07,3.64,0.99,4.21,2.16 C527.21,496.92,531.1,505.54,535.65,515.3z"></path> <path style="fill:#FFFFFF;" d="M691.32,494.67c-1.08,6.01-2.02,11.9-3.31,17.71c-0.25,1.12-1.88,2.76-2.89,2.78 c-14.4,0.18-28.8,0.12-44.54,0.12c2.01-8.08,3.77-15.45,5.78-22.74c0.19-0.67,2.06-1.31,3.11-1.25c13.5,0.7,27,1.53,40.49,2.35 C690.25,493.67,690.51,494.05,691.32,494.67z"></path> <path style="fill:#FFFFFF;" d="M772.17,515.31c-15.41,0-29.67,0.1-43.92-0.17c-1.35-0.03-3.5-2.24-3.83-3.75 c-1.16-5.31-1.69-10.76-2.59-17.09c3.69,0,7.11-0.1,10.52,0.02c10.38,0.36,20.75,0.92,31.14,1.14c3.38,0.07,5.07,0.97,5.53,4.62 C769.64,504.91,770.97,509.65,772.17,515.31z"></path> <path style="fill:#FFFFFF;" d="M574.67,574.43c0-7.93,0.11-15.87-0.05-23.8c-0.07-3.48,0.84-5.12,4.74-5.03 c12.77,0.3,10.44-1.15,10.54,10.19c0.12,14.1-0.12,28.21,0.12,42.31c0.07,4.1-0.94,5.62-5.25,5.49c-12.15-0.37-9.9,1.17-10.09-10.12 C574.59,587.12,574.67,580.78,574.67,574.43z"></path> <path style="fill:#FFFFFF;" d="M856.5,499.06c0.16,1.36,0.31,1.87,0.27,2.36c-1.18,13.87-1.18,13.87-15.06,13.87 c-8.79,0-17.59-0.11-26.38,0.06c-3.31,0.06-5.24-0.65-5.75-4.37c-0.6-4.3-1.83-8.52-3.01-13.77 C823.57,497.85,840.05,498.45,856.5,499.06z"></path> <path style="fill:#FFFFFF;" d="M882.48,500.05c16.67,0.6,32.52,1.17,48.09,1.73c0.4,0.99,0.67,1.32,0.63,1.62 c-1.58,11.89-1.59,11.89-13.5,11.89c-9.15,0-18.3-0.16-27.44,0.08c-3.81,0.1-5.93-0.73-6.11-5 C884.01,507.14,883.14,503.95,882.48,500.05z"></path> <path style="fill:#FFFFFF;" d="M782.82,485.4c-1.93-9.32-3.92-18.62-5.87-27.93c-7.82-37.25-15.61-74.51-23.6-111.73 c-0.3-1.42-2.64-3.4-4.06-3.43c-16.23-0.24-32.46-0.11-48.69-0.2c-2.86-0.02-3.99,1.08-4.5,3.87c-0.88,4.84-2.2,9.61-3.35,14.4 c-8.15,33.9-16.32,67.81-24.45,101.72c-1.96,8.17-3.78,16.37-5.84,25.32c40.53,1.52,80.43,3.02,121.34,4.55 C783.43,489.44,783.24,487.4,782.82,485.4z M714.06,452.82c3.19-20.46,6.32-40.48,9.44-60.49c0.29-0.02,0.58-0.03,0.87-0.05 c2.51,19.94,5.01,39.88,7.61,60.54C725.95,452.82,720.25,452.82,714.06,452.82z"></path> <path style="fill:#FFFFFF;" d="M290.88,468.82c-8.56-40.51-17.2-81-25.62-121.54c-0.79-3.8-1.96-5.27-6.02-5.21 c-15.34,0.23-30.69,0.2-46.03,0.01c-3.47-0.04-5.12,1.11-5.84,4.43c-1.69,7.74-3.58,15.43-5.42,23.14 c-5.82,24.32-11.68,48.63-17.48,72.95c-2.07,8.66-4.02,17.35-6.19,26.75c38,1.41,75.23,2.8,113.2,4.21 C291.19,471.2,291.13,469.99,290.88,468.82z M225.48,452.83c3.21-20.32,6.35-40.22,9.49-60.12c0.33,0.01,0.66,0.02,0.99,0.03 c2.47,19.93,4.94,39.87,7.44,60.09C237.22,452.83,231.53,452.83,225.48,452.83z"></path> <path style="fill:#FFFFFF;" d="M271.46,601.94c-5.67-15.15-11.13-30.38-17.1-45.4c-5.31-13.36-1.31-10.42-15.79-10.95 c-3.6-0.13-5.39,1.07-6.59,4.41c-3.15,8.78-6.62,17.43-9.91,26.16c-3.33,8.82-6.58,17.66-10.18,27.32c5.16,0,9.51,0.19,13.83-0.13 c1.14-0.08,2.95-1.6,3.12-2.67c1.14-7.09,5.65-8.35,11.78-7.56c2.43,0.31,4.94,0.22,7.39,0.01c3.42-0.3,5.06,1,5.87,4.44 c0.5,2.11,2.13,5.31,3.65,5.56c4.51,0.74,9.22,0.27,13.56,0.27C271.38,602.26,271.5,602.07,271.46,601.94z M235.76,581.31 c1.95-5.52,3.73-10.56,5.51-15.6c0.44-0.03,0.87-0.05,1.31-0.08c1.83,5.1,3.66,10.19,5.63,15.68 C243.92,581.31,240.14,581.31,235.76,581.31z"></path> </svg> 