<?xml version="1.0" encoding="UTF-8"?> <!-- Generator: Adobe Illustrator 24.3.0, SVG Export Plug-In . SVG Version: 6.00 Build 0) --> <svg xmlns="http://www.w3.org/2000/svg" xmlns:xlink="http://www.w3.org/1999/xlink" version="1.1" id="Layer_1" x="0px" y="0px" viewBox="0 0 200 200" style="enable-background:new 0 0 200 200;" xml:space="preserve"> <g> <path style="fill:#FFFFFF;" d="M36.4,72.4c0-2.7,0-5.1,0-7.5c-2.7,0-5.2,0-7.5,0c0,2.7,0,5,0,7.5C31.4,72.4,33.7,72.4,36.4,72.4z M164,63.2c2.8,0,5.2,0,7.5,0c0-2.6,0-5,0-7.5c-2.6,0-5,0-7.5,0C164,58.3,164,60.7,164,63.2z M63.3,72.4c0-2.6,0-5,0-7.5 c-2.7,0-5.1,0-7.6,0c0,2.6,0,4.9,0,7.5C58.2,72.4,60.6,72.4,63.3,72.4z M162.4,63.3c0-2.7,0-5.1,0-7.6c-2.7,0-5.1,0-7.6,0 c0,2.6,0,5,0,7.6C157.3,63.3,159.7,63.3,162.4,63.3z M63.3,63.3c0-2.7,0-5.1,0-7.6c-2.7,0-5.1,0-7.6,0c0,2.7,0,5,0,7.6 C58.2,63.3,60.6,63.3,63.3,63.3z M36.3,63.3c0-2.8,0-5.2,0-7.6c-2.6,0-5,0-7.5,0c0,2.7,0,5.1,0,7.6C31.4,63.3,33.8,63.3,36.3,63.3z M127.8,72.2c2.8,0,5.2,0,7.7,0c0-2.6,0-4.9,0-7.3c-2.6,0-5.1,0-7.7,0C127.8,67.4,127.8,69.7,127.8,72.2z M173,127.8 c0,2.8,0,5.2,0,7.6c2.6,0,5,0,7.5,0c0-2.6,0-5,0-7.6C177.9,127.8,175.5,127.8,173,127.8z M171.5,127.8c-2.7,0-5.1,0-7.5,0 c0,2.6,0,5,0,7.5c2.6,0,4.9,0,7.5,0C171.5,132.8,171.5,130.4,171.5,127.8z M154.7,72.3c2.5,0,5,0,7.6,0c0-2.5,0-5,0-7.4 c-2.7,0-5.1,0-7.6,0C154.7,67.4,154.7,69.7,154.7,72.3z M154.7,135.3c2.5,0,5.1,0,7.6,0c0-2.6,0-5.1,0-7.4c-2.7,0-5.1,0-7.6,0 C154.7,130.4,154.7,132.7,154.7,135.3z M136.9,135.3c2.7,0,5,0,7.3,0c0-2.7,0-5.2,0-7.6c-2.6,0-4.9,0-7.3,0 C136.9,130.3,136.9,132.7,136.9,135.3z M127.8,135.3c2.6,0,5.1,0,7.7,0c0-2.6,0-5,0-7.4c-2.7,0-5.1,0-7.7,0 C127.8,130.4,127.8,132.7,127.8,135.3z M10.7,135.4c2.6,0,5.1,0,7.7,0c0-2.6,0-5,0-7.5c-2.7,0-5.1,0-7.7,0 C10.7,130.5,10.7,132.9,10.7,135.4z M10.7,81.3c2.6,0,5.1,0,7.7,0c0-2.6,0-4.9,0-7.5c-2.6,0-5.1,0-7.7,0 C10.7,76.4,10.7,78.8,10.7,81.3z M190.9,117.4c2.7,0,5.1,0,7.6,0c0-2.6,0-5.1,0-7.6c-2.7,0-5,0-7.6,0 C190.9,112.4,190.9,114.7,190.9,117.4z M81.3,73.8c-2.8,0-5.2,0-7.6,0c0,2.6,0,5,0,7.4c2.7,0,5.1,0,7.6,0 C81.3,78.6,81.3,76.3,81.3,73.8z M126.4,109.8c-2.5,0-5,0-7.6,0c0,2.6,0,5.1,0,7.5c2.7,0,5.1,0,7.6,0 C126.4,114.7,126.4,112.4,126.4,109.8z M110,74.2c0,2.4,0,4.6,0,6.9c2.5,0,4.7,0,6.9,0C117.9,73.1,118.2,73.1,110,74.2z M117.4,109.8c-2.7,0-5,0-7.5,0c0,2.6,0,5.1,0,7.6c2.6,0,5,0,7.5,0C117.4,114.8,117.4,112.5,117.4,109.8z M128,73.8 c0,2.7,0,5.2,0,7.5c2.7,0,5.1,0,7.5,0c0-2.6,0-5,0-7.5C133,73.8,130.6,73.8,128,73.8z M172.8,81.3c2.6,0,5.1,0,7.5,0 c0-2.6,0-5,0-7.5c-2.6,0-5,0-7.5,0C172.8,76.4,172.8,78.8,172.8,81.3z M73.7,117.4c2.7,0,5.1,0,7.5,0c0-2.7,0-5.1,0-7.6 c-2.6,0-5,0-7.5,0C73.7,112.3,73.7,114.7,73.7,117.4z M72.4,109.8c-2.7,0-5.1,0-7.5,0c0,2.6,0,5,0,7.6c2.6,0,4.9,0,7.5,0 C72.4,114.8,72.4,112.4,72.4,109.8z M55.6,117.3c2.8,0,5.2,0,7.6,0c0-2.7,0-5.1,0-7.6c-2.7,0-5.1,0-7.6,0 C55.6,112.4,55.6,114.8,55.6,117.3z M73.7,82.9c0,2.5,0,4.9,0,7.3c2.7,0,5.1,0,7.5,0c0-2.6,0-5,0-7.3 C78.6,82.9,76.2,82.9,73.7,82.9z M46.7,117.4c2.7,0,5,0,7.5,0c0-2.6,0-5.1,0-7.6c-2.6,0-5,0-7.5,0 C46.7,112.4,46.7,114.8,46.7,117.4z M37.8,109.7c0,2.7,0,5.2,0,7.6c2.6,0,5,0,7.4,0c0-2.6,0-5,0-7.6 C42.7,109.7,40.4,109.7,37.8,109.7z M28.7,109.7c0,2.7,0,5.1,0,7.6c2.7,0,5.1,0,7.6,0c0-2.6,0-5,0-7.6 C33.8,109.7,31.4,109.7,28.7,109.7z M27.2,109.8c-2.7,0-5,0-7.5,0c0,2.6,0,5,0,7.6c2.6,0,5,0,7.5,0 C27.2,114.8,27.2,112.4,27.2,109.8z M10.7,99.2c2.8,0,5.2,0,7.6,0c0-2.7,0-5,0-7.5c-2.6,0-5,0-7.6,0C10.7,94.3,10.7,96.7,10.7,99.2 z M81.4,91.8c-2.7,0-5.1,0-7.7,0c0,2.6,0,5,0,7.5c2.7,0,5.1,0,7.7,0C81.4,96.7,81.4,94.4,81.4,91.8z M18.3,109.8 c-2.8,0-5.2,0-7.6,0c0,2.7,0,5.1,0,7.5c2.7,0,5,0,7.6,0C18.3,114.7,18.3,112.4,18.3,109.8z M109.8,91.7c0,2.7,0,5.1,0,7.6 c2.6,0,5,0,7.5,0c0-2.6,0-5.1,0-7.6C114.7,91.7,112.4,91.7,109.8,91.7z M18.2,63.3c0-2.6,0-5.1,0-7.6c-2.7,0-5,0-7.5,0 c0,2.7,0,5.1,0,7.6C13.4,63.3,15.8,63.3,18.2,63.3z M162.4,99.3c0-2.7,0-5.1,0-7.5c-2.6,0-5.1,0-7.6,0c0,2.6,0,5,0,7.5 C157.3,99.3,159.7,99.3,162.4,99.3z M180.4,99.4c0-2.7,0-5.1,0-7.5c-2.7,0-5.1,0-7.5,0c0,2.7,0,5.1,0,7.5 C175.5,99.4,177.8,99.4,180.4,99.4z M171.5,91.8c-2.8,0-5.1,0-7.5,0c0,2.7,0,5,0,7.5c2.6,0,5,0,7.5,0 C171.5,96.7,171.5,94.4,171.5,91.8z M163.9,108.3c2.6,0,5.1,0,7.5,0c0-2.6,0-5,0-7.3c-2.6,0-5,0-7.5,0 C163.9,103.4,163.9,105.6,163.9,108.3z M19.6,63.1c2.7,0,5.2,0,7.5,0c0-2.7,0-5.1,0-7.4c-2.6,0-5,0-7.5,0 C19.6,58.3,19.6,60.6,19.6,63.1z M45.3,55.7c-2.7,0-5,0-7.5,0c0,2.7,0,5.1,0,7.5c2.6,0,5,0,7.5,0C45.3,60.7,45.3,58.4,45.3,55.7z M46.8,55.6c0,2.8,0,5.2,0,7.6c2.6,0,5,0,7.4,0c0-2.7,0-5.1,0-7.6C51.6,55.6,49.3,55.6,46.8,55.6z M72.4,55.7c-2.7,0-5.1,0-7.5,0 c0,2.6,0,5,0,7.5c2.6,0,5,0,7.5,0C72.4,60.7,72.4,58.3,72.4,55.7z M172.9,72.3c2.6,0,5.1,0,7.6,0c0-2.6,0-5,0-7.4 c-2.7,0-5.1,0-7.6,0C172.9,67.5,172.9,69.8,172.9,72.3z M136.8,55.6c0,2.7,0,5.1,0,7.6c2.6,0,5.1,0,7.5,0c0-2.7,0-5,0-7.6 C141.8,55.6,139.5,55.6,136.8,55.6z M153.3,63.3c0-2.6,0-5.1,0-7.6c-2.6,0-5,0-7.3,0c0,2.7,0,5.2,0,7.6 C148.6,63.3,150.9,63.3,153.3,63.3z M162.4,108.3c0-2.6,0-5,0-7.4c-2.7,0-5.2,0-7.7,0c0,2.6,0,4.9,0,7.4 C157.3,108.3,159.8,108.3,162.4,108.3z M118.8,91.8c0,2.8,0,5.2,0,7.5c2.7,0,5.1,0,7.5,0c0-2.6,0-5,0-7.5 C123.7,91.8,121.3,91.8,118.8,91.8z M180.4,108.4c0-2.8,0-5.1,0-7.4c-2.6,0-5,0-7.5,0c0,2.6,0,4.9,0,7.4 C175.5,108.4,177.8,108.4,180.4,108.4z M18.3,72.3c0-2.6,0-4.9,0-7.4c-2.7,0-5.1,0-7.6,0c0,2.6,0,5,0,7.4 C13.3,72.3,15.7,72.3,18.3,72.3z M19.7,64.8c0,2.7,0,5.1,0,7.6c2.6,0,4.9,0,7.4,0c0-2.6,0-5.1,0-7.6C24.5,64.8,22.2,64.8,19.7,64.8 z M144.4,64.9c-2.7,0-5.1,0-7.5,0c0,2.6,0,5,0,7.4c2.6,0,5,0,7.5,0C144.4,69.8,144.4,67.5,144.4,64.9z M126.2,72.4c0-2.7,0-5,0-7.5 c-2.6,0-5.1,0-7.5,0c0,2.6,0,5,0,7.5C121.3,72.4,123.6,72.4,126.2,72.4z M73.8,64.8c0,2.7,0,5.1,0,7.5c2.6,0,5,0,7.5,0 c0-2.6,0-5,0-7.5C78.7,64.8,76.4,64.8,73.8,64.8z M126.3,90.3c0-2.6,0-4.9,0-7.4c-2.6,0-5,0-7.5,0c0,2.5,0,4.9,0,7.4 C121.4,90.3,123.7,90.3,126.3,90.3z M109.9,82.9c0,2.7,0,5.1,0,7.4c2.7,0,5,0,7.5,0c0-2.6,0-4.9,0-7.4 C114.8,82.9,112.4,82.9,109.9,82.9z M146,64.8c0,2.8,0,5.1,0,7.5c2.6,0,5,0,7.3,0c0-2.7,0-5,0-7.5C150.8,64.8,148.4,64.8,146,64.8z M46.7,126.4c2.6,0,5.1,0,7.6,0c0-2.6,0-5,0-7.4c-2.7,0-5.1,0-7.6,0C46.7,121.6,46.7,123.9,46.7,126.4z M109.7,126.5 c2.7,0,5.1,0,7.7,0c0-2.6,0-4.9,0-7.5c-2.6,0-5.1,0-7.7,0C109.7,121.5,109.7,123.8,109.7,126.5z M72.4,72.3c0-2.7,0-5,0-7.4 c-2.7,0-5.1,0-7.5,0c0,2.6,0,4.9,0,7.4C67.4,72.3,69.8,72.3,72.4,72.3z M118.7,73.7c0,2.7,0,5.1,0,7.6c2.6,0,5,0,7.4,0 c0-2.6,0-5.1,0-7.6C123.6,73.7,121.3,73.7,118.7,73.7z M171.5,72.4c0-2.7,0-5.1,0-7.5c-2.6,0-5,0-7.5,0c0,2.6,0,4.9,0,7.5 C166.5,72.4,168.9,72.4,171.5,72.4z M153.3,135.4c0-2.6,0-5.1,0-7.6c-2.6,0-5,0-7.3,0c0,2.7,0,5.1,0,7.6 C148.6,135.4,150.8,135.4,153.3,135.4z M64.8,81.3c2.7,0,5.1,0,7.5,0c0-2.6,0-5,0-7.5c-2.6,0-5,0-7.5,0 C64.8,76.3,64.8,78.7,64.8,81.3z M37.8,64.9c0,2.6,0,5.1,0,7.4c2.6,0,5,0,7.4,0c0-2.6,0-5,0-7.4C42.6,64.9,40.2,64.9,37.8,64.9z M46.8,64.9c0,2.7,0,5.1,0,7.5c2.6,0,5,0,7.5,0c0-2.6,0-5,0-7.5C51.7,64.9,49.4,64.9,46.8,64.9z M27.2,119.1c-2.4,0-4.9,0-7.5,0 c0,2.4,0,4.8,0,7.4c2.6,0,5,0,7.5,0C27.2,124,27.2,121.7,27.2,119.1z M36.4,119c-2.8,0-5.2,0-7.7,0c0,2.6,0,5,0,7.4 c2.7,0,5.2,0,7.7,0C36.4,123.8,36.4,121.5,36.4,119z M37.7,126.3c2.8,0,5.1,0,7.4,0c0-2.7,0-5.1,0-7.3c-2.6,0-5,0-7.4,0 C37.7,121.6,37.7,123.9,37.7,126.3z M18.3,90.3c0-2.7,0-5,0-7.4c-2.7,0-5.1,0-7.6,0c0,2.6,0,4.9,0,7.4 C13.4,90.3,15.8,90.3,18.3,90.3z M189.5,73.8c-2.7,0-5.1,0-7.5,0c0,2.6,0,5,0,7.5c2.6,0,5,0,7.5,0 C189.5,78.8,189.5,76.4,189.5,73.8z M1.6,90.3c2.6,0,5,0,7.5,0c0-2.6,0-4.9,0-7.4c-2.6,0-5,0-7.5,0C1.6,85.4,1.6,87.6,1.6,90.3z M118.7,126.4c2.7,0,5.1,0,7.5,0c0-2.6,0-5,0-7.4c-2.6,0-5,0-7.5,0C118.7,121.5,118.7,123.8,118.7,126.4z M1.8,91.7 c0,2.7,0,5.2,0,7.5c2.7,0,5,0,7.3,0c0-2.6,0-5,0-7.5C6.6,91.7,4.3,91.7,1.8,91.7z M189.4,135.5c0-2.7,0-5.2,0-7.6c-2.6,0-5,0-7.3,0 c0,2.7,0,5,0,7.6C184.6,135.5,186.9,135.5,189.4,135.5z M1.7,135.3c2.7,0,5.1,0,7.5,0c0-2.6,0-5,0-7.5c-2.6,0-4.9,0-7.5,0 C1.7,130.3,1.7,132.7,1.7,135.3z M182,72.3c2.7,0,5,0,7.5,0c0-2.6,0-5,0-7.5c-2.6,0-5,0-7.5,0C182,67.3,182,69.6,182,72.3z M82.9,91.8c0,2.6,0,5.1,0,7.5c2.6,0,5,0,7.3,0c0-2.7,0-5.1,0-7.5C87.6,91.8,85.3,91.8,82.9,91.8z M190.9,126.2c2.7,0,5.1,0,7.5,0 c0-2.5,0-4.8,0-7c-2.6,0-5,0-7.5,0C190.9,121.6,190.9,123.8,190.9,126.2z M9.2,73.7c-2.6,0-4.9,0-7.5,0c0,2.6,0,5,0,7.5 c2.6,0,5,0,7.5,0C9.2,78.7,9.2,76.3,9.2,73.7z M171.5,136.9c-2.6,0-5,0-7.4,0c0,2.6,0,5,0,7.4c2.6,0,4.9,0,7.4,0 C171.5,141.8,171.5,139.4,171.5,136.9z M181.8,109.7c0,2.7,0,5.1,0,7.5c2.6,0,5.1,0,7.5,0c0-2.7,0-5,0-7.5 C186.8,109.7,184.5,109.7,181.8,109.7z M90.3,81.4c0-2.7,0-5.1,0-7.6c-2.6,0-4.9,0-7.4,0c0,2.6,0,5.1,0,7.6 C85.5,81.4,87.8,81.4,90.3,81.4z M90.3,90.3c0-2.5,0-4.9,0-7.3c-2.6,0-5.1,0-7.5,0c0,2.6,0,4.9,0,7.3 C85.4,90.3,87.8,90.3,90.3,90.3z M9.2,109.8c-2.7,0-5.1,0-7.5,0c0,2.7,0,5.1,0,7.5c2.6,0,5,0,7.5,0C9.2,114.8,9.2,112.4,9.2,109.8z M82.8,108.3c2.5,0,4.9,0,7.5,0c0-2.5,0-5,0-7.4c-2.6,0-5,0-7.5,0C82.8,103.5,82.8,105.8,82.8,108.3z M144.2,144.3c0-2.6,0-5,0-7.3 c-2.6,0-5,0-7.4,0c0,2.6,0,4.8,0,7.3C139.4,144.3,141.8,144.3,144.2,144.3z M189.3,99.4c0-2.8,0-5.2,0-7.7c-2.6,0-4.9,0-7.2,0 c0,2.7,0,5.1,0,7.7C184.6,99.4,186.8,99.4,189.3,99.4z M127.8,144.2c2.7,0,5.2,0,7.7,0c0-2.5,0-4.8,0-7.3c-2.6,0-5.1,0-7.7,0 C127.8,139.4,127.8,141.7,127.8,144.2z M145.9,136.8c0,2.7,0,5,0,7.4c2.6,0,4.9,0,7.4,0c0-2.6,0-4.9,0-7.4 C150.8,136.8,148.5,136.8,145.9,136.8z M162.4,144.3c0-2.5,0-4.9,0-7.3c-2.6,0-5.1,0-7.5,0c0,2.6,0,5,0,7.3 C157.4,144.3,159.8,144.3,162.4,144.3z M173,137.2c0,2.5,0,4.6,0,6.9c2.5,0,4.8,0,7.2,0c0-2.4,0-4.5,0-6.9 C177.8,137.2,175.5,137.2,173,137.2z M180.5,119c-2.7,0-5.2,0-7.6,0c0,2.6,0,4.9,0,7.3c2.6,0,5.1,0,7.6,0 C180.5,123.7,180.5,121.5,180.5,119z M128,118.9c0,2.4,0,4.9,0,7.4c2.6,0,5.1,0,7.6,0c0-2.6,0-4.9,0-7.4 C133,118.9,130.6,118.9,128,118.9z M18.3,118.9c-2.7,0-5.1,0-7.6,0c0,2.6,0,4.9,0,7.4c2.6,0,5,0,7.6,0 C18.3,123.8,18.3,121.5,18.3,118.9z M190.9,100.9c0,2.6,0,4.9,0,7.4c2.6,0,5,0,7.6,0c0-2.6,0-4.9,0-7.4 C195.9,100.9,193.4,100.9,190.9,100.9z M126.3,101c-2.6,0-5.1,0-7.6,0c0,2.5,0,4.8,0,7.2c2.6,0,5.1,0,7.6,0 C126.3,105.6,126.3,103.4,126.3,101z M109.8,100.9c0,2.7,0,5,0,7.2c2.7,0,5.1,0,7.6,0c0-2.6,0-4.9,0-7.2 C114.8,100.9,112.4,100.9,109.8,100.9z M81.3,108.3c0-2.7,0-5,0-7.3c-2.7,0-5.1,0-7.5,0c0,2.6,0,4.8,0,7.3 C76.3,108.3,78.7,108.3,81.3,108.3z M64.9,100.8c0,2.4,0,4.9,0,7.4c2.5,0,4.9,0,7.4,0c0-2.6,0-4.9,0-7.4 C69.8,100.8,67.5,100.8,64.9,100.8z M18.3,108.2c0-2.6,0-4.8,0-7.3c-2.6,0-5.1,0-7.7,0c0,2.5,0,4.8,0,7.3 C13.2,108.2,15.6,108.2,18.3,108.2z M81.2,55.9c-2.7,0-4.9,0-7,0c0,2.5,0,4.8,0,7c2.5,0,4.8,0,7,0C81.2,60.5,81.2,58.3,81.2,55.9z M1.6,144.3c2.6,0,5,0,7.6,0c0-2.6,0-5,0-7.3c-2.7,0-5.1,0-7.6,0C1.6,139.5,1.6,141.8,1.6,144.3z M56.3,126.3 c2.4-0.4,4.8-0.2,6.4-1.2c0.8-0.5,0.8-4.3,0.1-4.8c-1.7-1.1-4.1-1-6.5-1.4C56.3,121.5,56.3,123.5,56.3,126.3z M1.6,126.3 c2.7,0,5.1,0,7.5,0c0-2.6,0-4.9,0-7.3c-2.6,0-5,0-7.5,0C1.6,121.4,1.6,123.7,1.6,126.3z M1.6,108.2c2.6,0,5,0,7.5,0 c0-2.6,0-4.9,0-7.2c-2.7,0-5.1,0-7.5,0C1.6,103.4,1.6,105.7,1.6,108.2z M182,118.9c0,2.7,0,5,0,7.4c2.6,0,4.9,0,7.3,0 c0-2.6,0-4.9,0-7.4C186.8,118.9,184.5,118.9,182,118.9z M182,100.9c0,2.6,0,4.9,0,7.3c2.5,0,4.9,0,7.3,0c0-2.5,0-4.8,0-7.3 C186.9,100.9,184.6,100.9,182,100.9z M1.5,65c0.4,2.6,0,5.3,1.2,6.6c0.9,1,4.8,1,5.5,0C9.4,70.1,9,67.4,9.3,65 C6.5,65,4.4,65,1.5,65z"></path> <path style="fill:#FFFFFF;" d="M36.4,72.4c-2.6,0-4.9,0-7.5,0c0-2.4,0-4.8,0-7.5c2.3,0,4.8,0,7.5,0C36.4,67.3,36.4,69.7,36.4,72.4z "></path> <path style="fill:#FFFFFF;" d="M164,63.2c0-2.5,0-4.9,0-7.5c2.5,0,4.9,0,7.5,0c0,2.5,0,4.9,0,7.5C169.2,63.2,166.8,63.2,164,63.2z"></path> <path style="fill:#FFFFFF;" d="M63.3,72.4c-2.7,0-5.1,0-7.6,0c0-2.5,0-4.9,0-7.5c2.5,0,5,0,7.6,0C63.3,67.4,63.3,69.7,63.3,72.4z"></path> <path style="fill:#FFFFFF;" d="M162.4,63.3c-2.7,0-5,0-7.6,0c0-2.5,0-4.9,0-7.6c2.5,0,5,0,7.6,0C162.4,58.2,162.4,60.6,162.4,63.3z "></path> <path style="fill:#FFFFFF;" d="M63.3,63.3c-2.7,0-5.1,0-7.6,0c0-2.5,0-4.9,0-7.6c2.5,0,5,0,7.6,0C63.3,58.2,63.3,60.6,63.3,63.3z"></path> <path style="fill:#FFFFFF;" d="M36.3,63.3c-2.5,0-4.9,0-7.5,0c0-2.5,0-4.9,0-7.6c2.5,0,4.9,0,7.5,0C36.3,58.1,36.3,60.5,36.3,63.3z "></path> <path style="fill:#FFFFFF;" d="M127.8,72.2c0-2.5,0-4.8,0-7.3c2.6,0,5.1,0,7.7,0c0,2.4,0,4.7,0,7.3 C133.1,72.2,130.6,72.2,127.8,72.2z"></path> <path style="fill:#FFFFFF;" d="M173,127.8c2.5,0,4.9,0,7.5,0c0,2.6,0,4.9,0,7.6c-2.5,0-4.8,0-7.5,0C173,133,173,130.6,173,127.8z"></path> <path style="fill:#FFFFFF;" d="M171.5,127.8c0,2.6,0,5,0,7.5c-2.6,0-4.9,0-7.5,0c0-2.5,0-4.9,0-7.5 C166.4,127.8,168.8,127.8,171.5,127.8z"></path> <path style="fill:#FFFFFF;" d="M154.7,72.3c0-2.6,0-4.9,0-7.4c2.5,0,4.9,0,7.6,0c0,2.4,0,4.9,0,7.4 C159.7,72.3,157.2,72.3,154.7,72.3z"></path> <path style="fill:#FFFFFF;" d="M154.7,135.3c0-2.6,0-4.9,0-7.4c2.5,0,4.9,0,7.6,0c0,2.3,0,4.8,0,7.4 C159.8,135.3,157.3,135.3,154.7,135.3z"></path> <path style="fill:#FFFFFF;" d="M136.9,135.3c0-2.6,0-5,0-7.6c2.5,0,4.7,0,7.3,0c0,2.4,0,4.9,0,7.6 C141.9,135.3,139.5,135.3,136.9,135.3z"></path> <path style="fill:#FFFFFF;" d="M127.8,135.3c0-2.6,0-4.9,0-7.4c2.6,0,5,0,7.7,0c0,2.4,0,4.8,0,7.4 C132.9,135.3,130.4,135.3,127.8,135.3z"></path> <path style="fill:#FFFFFF;" d="M10.7,135.4c0-2.5,0-4.9,0-7.5c2.5,0,5,0,7.7,0c0,2.5,0,4.9,0,7.5C15.8,135.4,13.3,135.4,10.7,135.4 z"></path> <path style="fill:#FFFFFF;" d="M10.7,81.3c0-2.5,0-4.9,0-7.5c2.6,0,5.1,0,7.7,0c0,2.5,0,4.9,0,7.5C15.8,81.3,13.3,81.3,10.7,81.3z"></path> <path style="fill:#FFFFFF;" d="M190.9,117.4c0-2.6,0-5,0-7.6c2.5,0,4.9,0,7.6,0c0,2.5,0,4.9,0,7.6 C196,117.4,193.6,117.4,190.9,117.4z"></path> <path style="fill:#FFFFFF;" d="M81.3,73.8c0,2.5,0,4.8,0,7.4c-2.5,0-4.9,0-7.6,0c0-2.4,0-4.8,0-7.4C76.2,73.8,78.6,73.8,81.3,73.8z "></path> <path style="fill:#FFFFFF;" d="M126.4,109.8c0,2.6,0,4.9,0,7.5c-2.5,0-4.9,0-7.6,0c0-2.4,0-4.9,0-7.5 C121.4,109.8,123.9,109.8,126.4,109.8z"></path> <path style="fill:#FFFFFF;" d="M117.4,109.8c0,2.7,0,5.1,0,7.6c-2.6,0-4.9,0-7.5,0c0-2.5,0-5,0-7.6 C112.3,109.8,114.7,109.8,117.4,109.8z"></path> <path style="fill:#FFFFFF;" d="M128,73.8c2.6,0,5,0,7.5,0c0,2.6,0,4.9,0,7.5c-2.5,0-4.9,0-7.5,0C128,78.9,128,76.5,128,73.8z"></path> <path style="fill:#FFFFFF;" d="M172.8,81.3c0-2.5,0-4.9,0-7.5c2.5,0,4.9,0,7.5,0c0,2.4,0,4.8,0,7.5C178,81.3,175.5,81.3,172.8,81.3 z"></path> <path style="fill:#FFFFFF;" d="M73.7,117.4c0-2.7,0-5.1,0-7.6c2.5,0,4.9,0,7.5,0c0,2.5,0,5,0,7.6C78.8,117.4,76.4,117.4,73.7,117.4 z"></path> <path style="fill:#FFFFFF;" d="M72.4,109.8c0,2.6,0,5,0,7.6c-2.6,0-4.9,0-7.5,0c0-2.6,0-5,0-7.6C67.2,109.8,69.6,109.8,72.4,109.8z "></path> <path style="fill:#FFFFFF;" d="M55.6,117.3c0-2.6,0-5,0-7.6c2.5,0,4.9,0,7.6,0c0,2.4,0,4.9,0,7.6C60.8,117.3,58.4,117.3,55.6,117.3 z"></path> <path style="fill:#FFFFFF;" d="M73.7,82.9c2.5,0,4.9,0,7.5,0c0,2.3,0,4.7,0,7.3c-2.4,0-4.9,0-7.5,0C73.7,87.8,73.7,85.4,73.7,82.9z "></path> <path style="fill:#FFFFFF;" d="M46.7,117.4c0-2.6,0-5,0-7.6c2.5,0,4.9,0,7.5,0c0,2.5,0,5,0,7.6C51.7,117.4,49.4,117.4,46.7,117.4z"></path> <path style="fill:#FFFFFF;" d="M37.8,109.7c2.6,0,4.9,0,7.4,0c0,2.5,0,4.9,0,7.6c-2.4,0-4.7,0-7.4,0 C37.8,114.9,37.8,112.4,37.8,109.7z"></path> <path style="fill:#FFFFFF;" d="M28.7,109.7c2.7,0,5,0,7.6,0c0,2.5,0,4.9,0,7.6c-2.5,0-5,0-7.6,0C28.7,114.8,28.7,112.4,28.7,109.7z "></path> <path style="fill:#FFFFFF;" d="M27.2,109.8c0,2.6,0,5,0,7.6c-2.6,0-4.9,0-7.5,0c0-2.6,0-4.9,0-7.6 C22.1,109.8,24.5,109.8,27.2,109.8z"></path> <path style="fill:#FFFFFF;" d="M10.7,99.2c0-2.5,0-4.9,0-7.5c2.6,0,5,0,7.6,0c0,2.4,0,4.8,0,7.5C15.9,99.2,13.4,99.2,10.7,99.2z"></path> <path style="fill:#FFFFFF;" d="M81.4,91.8c0,2.6,0,4.9,0,7.5c-2.6,0-5.1,0-7.7,0c0-2.5,0-4.9,0-7.5C76.2,91.8,78.6,91.8,81.4,91.8z "></path> <path style="fill:#FFFFFF;" d="M18.3,109.8c0,2.6,0,4.9,0,7.5c-2.5,0-4.9,0-7.6,0c0-2.4,0-4.9,0-7.5 C13.2,109.8,15.5,109.8,18.3,109.8z"></path> <path style="fill:#FFFFFF;" d="M109.8,91.7c2.6,0,4.9,0,7.5,0c0,2.5,0,5,0,7.6c-2.5,0-4.9,0-7.5,0 C109.8,96.9,109.8,94.5,109.8,91.7z"></path> <path style="fill:#FFFFFF;" d="M18.2,63.3c-2.4,0-4.8,0-7.5,0c0-2.4,0-4.9,0-7.6c2.4,0,4.8,0,7.5,0C18.2,58.2,18.2,60.6,18.2,63.3z "></path> <path style="fill:#FFFFFF;" d="M162.4,99.3c-2.7,0-5.1,0-7.6,0c0-2.5,0-4.9,0-7.5c2.5,0,5,0,7.6,0 C162.4,94.3,162.4,96.7,162.4,99.3z"></path> <path style="fill:#FFFFFF;" d="M180.4,99.4c-2.6,0-4.9,0-7.5,0c0-2.5,0-4.8,0-7.5c2.3,0,4.8,0,7.5,0 C180.4,94.3,180.4,96.7,180.4,99.4z"></path> <path style="fill:#FFFFFF;" d="M171.5,91.8c0,2.5,0,4.9,0,7.5c-2.5,0-4.9,0-7.5,0c0-2.5,0-4.8,0-7.5 C166.4,91.8,168.7,91.8,171.5,91.8z"></path> <path style="fill:#FFFFFF;" d="M163.9,108.3c0-2.7,0-4.9,0-7.3c2.5,0,4.9,0,7.5,0c0,2.4,0,4.7,0,7.3 C169,108.3,166.5,108.3,163.9,108.3z"></path> <path style="fill:#FFFFFF;" d="M19.6,63.1c0-2.6,0-4.9,0-7.4c2.5,0,4.9,0,7.5,0c0,2.4,0,4.8,0,7.4C24.8,63.1,22.3,63.1,19.6,63.1z"></path> <path style="fill:#FFFFFF;" d="M45.3,55.7c0,2.7,0,5,0,7.5c-2.5,0-4.9,0-7.5,0c0-2.4,0-4.9,0-7.5C40.2,55.7,42.6,55.7,45.3,55.7z"></path> <path style="fill:#FFFFFF;" d="M46.8,55.6c2.5,0,4.8,0,7.4,0c0,2.5,0,4.9,0,7.6c-2.4,0-4.8,0-7.4,0C46.8,60.8,46.8,58.4,46.8,55.6z "></path> <path style="fill:#FFFFFF;" d="M72.4,55.7c0,2.6,0,5,0,7.5c-2.6,0-4.9,0-7.5,0c0-2.5,0-4.9,0-7.5C67.2,55.7,69.6,55.7,72.4,55.7z"></path> <path style="fill:#FFFFFF;" d="M172.9,72.3c0-2.5,0-4.8,0-7.4c2.4,0,4.9,0,7.6,0c0,2.4,0,4.7,0,7.4 C177.9,72.3,175.5,72.3,172.9,72.3z"></path> <path style="fill:#FFFFFF;" d="M136.8,55.6c2.6,0,4.9,0,7.5,0c0,2.5,0,4.9,0,7.6c-2.4,0-4.8,0-7.5,0 C136.8,60.7,136.8,58.3,136.8,55.6z"></path> <path style="fill:#FFFFFF;" d="M153.3,63.3c-2.4,0-4.7,0-7.3,0c0-2.4,0-4.9,0-7.6c2.3,0,4.7,0,7.3,0 C153.3,58.2,153.3,60.7,153.3,63.3z"></path> <path style="fill:#FFFFFF;" d="M162.4,108.3c-2.6,0-5.1,0-7.7,0c0-2.5,0-4.8,0-7.4c2.5,0,5,0,7.7,0 C162.4,103.4,162.4,105.8,162.4,108.3z"></path> <path style="fill:#FFFFFF;" d="M118.8,91.8c2.5,0,4.9,0,7.5,0c0,2.5,0,4.9,0,7.5c-2.4,0-4.8,0-7.5,0 C118.8,97,118.8,94.6,118.8,91.8z"></path> <path style="fill:#FFFFFF;" d="M180.4,108.4c-2.5,0-4.9,0-7.5,0c0-2.5,0-4.9,0-7.4c2.4,0,4.8,0,7.5,0 C180.4,103.3,180.4,105.6,180.4,108.4z"></path> <path style="fill:#FFFFFF;" d="M18.3,72.3c-2.6,0-5,0-7.6,0c0-2.4,0-4.8,0-7.4c2.5,0,4.9,0,7.6,0C18.3,67.4,18.3,69.8,18.3,72.3z"></path> <path style="fill:#FFFFFF;" d="M19.7,64.8c2.6,0,4.9,0,7.4,0c0,2.5,0,5,0,7.6c-2.5,0-4.8,0-7.4,0C19.7,69.9,19.7,67.5,19.7,64.8z"></path> <path style="fill:#FFFFFF;" d="M144.4,64.9c0,2.5,0,4.9,0,7.4c-2.5,0-4.8,0-7.5,0c0-2.4,0-4.8,0-7.4 C139.3,64.9,141.7,64.9,144.4,64.9z"></path> <path style="fill:#FFFFFF;" d="M126.2,72.4c-2.6,0-4.9,0-7.5,0c0-2.5,0-4.8,0-7.5c2.4,0,4.8,0,7.5,0 C126.2,67.3,126.2,69.7,126.2,72.4z"></path> <path style="fill:#FFFFFF;" d="M73.8,64.8c2.5,0,4.9,0,7.5,0c0,2.5,0,4.9,0,7.5c-2.5,0-4.8,0-7.5,0C73.8,69.9,73.8,67.6,73.8,64.8z "></path> <path style="fill:#FFFFFF;" d="M126.3,90.3c-2.5,0-4.9,0-7.5,0c0-2.5,0-4.9,0-7.4c2.6,0,4.9,0,7.5,0 C126.3,85.4,126.3,87.8,126.3,90.3z"></path> <path style="fill:#FFFFFF;" d="M109.9,82.9c2.5,0,4.9,0,7.5,0c0,2.5,0,4.9,0,7.4c-2.4,0-4.8,0-7.5,0 C109.9,87.9,109.9,85.6,109.9,82.9z"></path> <path style="fill:#FFFFFF;" d="M146,64.8c2.4,0,4.8,0,7.3,0c0,2.4,0,4.8,0,7.5c-2.3,0-4.7,0-7.3,0C146,70,146,67.6,146,64.8z"></path> <path style="fill:#FFFFFF;" d="M46.7,126.4c0-2.5,0-4.8,0-7.4c2.5,0,4.9,0,7.6,0c0,2.4,0,4.8,0,7.4 C51.8,126.4,49.3,126.4,46.7,126.4z"></path> <path style="fill:#FFFFFF;" d="M109.7,126.5c0-2.6,0-4.9,0-7.5c2.6,0,5.1,0,7.7,0c0,2.5,0,4.9,0,7.5 C114.8,126.5,112.4,126.5,109.7,126.5z"></path> <path style="fill:#FFFFFF;" d="M72.4,72.3c-2.6,0-5,0-7.5,0c0-2.5,0-4.8,0-7.4c2.4,0,4.9,0,7.5,0C72.4,67.3,72.4,69.6,72.4,72.3z"></path> <path style="fill:#FFFFFF;" d="M118.7,73.7c2.6,0,4.9,0,7.4,0c0,2.5,0,5,0,7.6c-2.5,0-4.9,0-7.4,0 C118.7,78.8,118.7,76.4,118.7,73.7z"></path> <path style="fill:#FFFFFF;" d="M171.5,72.4c-2.6,0-4.9,0-7.5,0c0-2.6,0-4.9,0-7.5c2.5,0,4.9,0,7.5,0 C171.5,67.3,171.5,69.6,171.5,72.4z"></path> <path style="fill:#FFFFFF;" d="M153.3,135.4c-2.5,0-4.8,0-7.3,0c0-2.5,0-5,0-7.6c2.4,0,4.8,0,7.3,0 C153.3,130.3,153.3,132.8,153.3,135.4z"></path> <path style="fill:#FFFFFF;" d="M64.8,81.3c0-2.6,0-4.9,0-7.5c2.5,0,4.9,0,7.5,0c0,2.5,0,4.9,0,7.5C69.9,81.3,67.5,81.3,64.8,81.3z"></path> <path style="fill:#FFFFFF;" d="M37.8,64.9c2.4,0,4.8,0,7.4,0c0,2.4,0,4.8,0,7.4c-2.4,0-4.7,0-7.4,0C37.8,70,37.8,67.5,37.8,64.9z"></path> <path style="fill:#FFFFFF;" d="M46.8,64.9c2.5,0,4.9,0,7.5,0c0,2.5,0,4.9,0,7.5c-2.5,0-4.9,0-7.5,0C46.8,69.9,46.8,67.6,46.8,64.9z "></path> <path style="fill:#FFFFFF;" d="M27.2,119.1c0,2.6,0,4.9,0,7.4c-2.6,0-4.9,0-7.5,0c0-2.6,0-5,0-7.4 C22.3,119.1,24.8,119.1,27.2,119.1z"></path> <path style="fill:#FFFFFF;" d="M36.4,119c0,2.5,0,4.8,0,7.4c-2.5,0-5,0-7.7,0c0-2.4,0-4.8,0-7.4C31.2,119,33.7,119,36.4,119z"></path> <path style="fill:#FFFFFF;" d="M37.7,126.3c0-2.5,0-4.7,0-7.3c2.4,0,4.8,0,7.4,0c0,2.3,0,4.6,0,7.3 C42.8,126.3,40.5,126.3,37.7,126.3z"></path> <path style="fill:#FFFFFF;" d="M18.3,90.3c-2.6,0-5,0-7.6,0c0-2.4,0-4.8,0-7.4c2.5,0,4.9,0,7.6,0C18.3,85.3,18.3,87.6,18.3,90.3z"></path> <path style="fill:#FFFFFF;" d="M189.5,73.8c0,2.6,0,5,0,7.5c-2.5,0-4.9,0-7.5,0c0-2.5,0-4.9,0-7.5 C184.4,73.8,186.8,73.8,189.5,73.8z"></path> <path style="fill:#FFFFFF;" d="M1.6,90.3c0-2.6,0-4.9,0-7.4c2.5,0,4.9,0,7.5,0c0,2.5,0,4.8,0,7.4C6.6,90.3,4.2,90.3,1.6,90.3z"></path> <path style="fill:#FFFFFF;" d="M118.7,126.4c0-2.6,0-4.9,0-7.4c2.5,0,4.9,0,7.5,0c0,2.4,0,4.8,0,7.4 C123.8,126.4,121.4,126.4,118.7,126.4z"></path> <path style="fill:#FFFFFF;" d="M1.8,91.7c2.5,0,4.8,0,7.3,0c0,2.5,0,4.9,0,7.5c-2.3,0-4.7,0-7.3,0C1.8,96.9,1.8,94.5,1.8,91.7z"></path> <path style="fill:#FFFFFF;" d="M189.4,135.5c-2.5,0-4.8,0-7.3,0c0-2.5,0-4.9,0-7.6c2.3,0,4.7,0,7.3,0 C189.4,130.2,189.4,132.7,189.4,135.5z"></path> <path style="fill:#FFFFFF;" d="M1.7,135.3c0-2.6,0-5,0-7.5c2.5,0,4.9,0,7.5,0c0,2.5,0,4.9,0,7.5C6.7,135.3,4.4,135.3,1.7,135.3z"></path> <path style="fill:#FFFFFF;" d="M182,72.3c0-2.7,0-5,0-7.5c2.5,0,4.9,0,7.5,0c0,2.5,0,4.9,0,7.5C187,72.3,184.6,72.3,182,72.3z"></path> <path style="fill:#FFFFFF;" d="M82.9,91.8c2.4,0,4.7,0,7.3,0c0,2.4,0,4.9,0,7.5c-2.3,0-4.7,0-7.3,0C82.9,96.8,82.9,94.4,82.9,91.8z "></path> <path style="fill:#FFFFFF;" d="M190.9,126.2c0-2.4,0-4.6,0-7c2.5,0,4.9,0,7.5,0c0,2.3,0,4.5,0,7C196,126.2,193.6,126.2,190.9,126.2 z"></path> <path style="fill:#FFFFFF;" d="M9.2,73.7c0,2.6,0,4.9,0,7.5c-2.5,0-4.9,0-7.5,0c0-2.5,0-4.9,0-7.5C4.2,73.7,6.6,73.7,9.2,73.7z"></path> <path style="fill:#FFFFFF;" d="M171.5,136.9c0,2.5,0,4.9,0,7.4c-2.5,0-4.8,0-7.4,0c0-2.4,0-4.7,0-7.4 C166.4,136.9,168.9,136.9,171.5,136.9z"></path> <path style="fill:#FFFFFF;" d="M181.8,109.7c2.7,0,5,0,7.5,0c0,2.5,0,4.9,0,7.5c-2.4,0-4.9,0-7.5,0 C181.8,114.8,181.8,112.4,181.8,109.7z"></path> <path style="fill:#FFFFFF;" d="M90.3,81.4c-2.6,0-4.9,0-7.4,0c0-2.5,0-5,0-7.6c2.5,0,4.9,0,7.4,0C90.3,76.2,90.3,78.6,90.3,81.4z"></path> <path style="fill:#FFFFFF;" d="M90.3,90.3c-2.5,0-4.9,0-7.5,0c0-2.5,0-4.8,0-7.3c2.4,0,4.9,0,7.5,0C90.3,85.4,90.3,87.8,90.3,90.3z "></path> <path style="fill:#FFFFFF;" d="M9.2,109.8c0,2.7,0,5,0,7.5c-2.5,0-4.9,0-7.5,0c0-2.4,0-4.9,0-7.5C4.1,109.8,6.5,109.8,9.2,109.8z"></path> <path style="fill:#FFFFFF;" d="M82.8,108.3c0-2.5,0-4.8,0-7.4c2.4,0,4.8,0,7.5,0c0,2.4,0,4.8,0,7.4 C87.7,108.3,85.3,108.3,82.8,108.3z"></path> <path style="fill:#FFFFFF;" d="M144.2,144.3c-2.5,0-4.8,0-7.4,0c0-2.5,0-4.8,0-7.3c2.4,0,4.7,0,7.4,0 C144.2,139.3,144.2,141.7,144.2,144.3z"></path> <path style="fill:#FFFFFF;" d="M189.3,99.4c-2.5,0-4.7,0-7.2,0c0-2.5,0-5,0-7.7c2.3,0,4.6,0,7.2,0 C189.3,94.2,189.3,96.7,189.3,99.4z"></path> <path style="fill:#FFFFFF;" d="M127.8,144.2c0-2.5,0-4.8,0-7.3c2.6,0,5.1,0,7.7,0c0,2.5,0,4.8,0,7.3 C133,144.2,130.6,144.2,127.8,144.2z"></path> <path style="fill:#FFFFFF;" d="M145.9,136.8c2.6,0,4.9,0,7.4,0c0,2.5,0,4.9,0,7.4c-2.5,0-4.9,0-7.4,0 C145.9,141.8,145.9,139.5,145.9,136.8z"></path> <path style="fill:#FFFFFF;" d="M162.4,144.3c-2.5,0-4.9,0-7.5,0c0-2.4,0-4.7,0-7.3c2.4,0,4.9,0,7.5,0 C162.4,139.4,162.4,141.8,162.4,144.3z"></path> <path style="fill:#FFFFFF;" d="M173,137.2c2.5,0,4.8,0,7.2,0c0,2.3,0,4.5,0,6.9c-2.4,0-4.7,0-7.2,0C173,141.9,173,139.7,173,137.2z "></path> <path style="fill:#FFFFFF;" d="M180.5,119c0,2.5,0,4.8,0,7.3c-2.6,0-5,0-7.6,0c0-2.5,0-4.7,0-7.3C175.3,119,177.7,119,180.5,119z"></path> <path style="fill:#FFFFFF;" d="M128,118.9c2.6,0,5,0,7.6,0c0,2.5,0,4.8,0,7.4c-2.5,0-4.9,0-7.6,0C128,123.8,128,121.3,128,118.9z"></path> <path style="fill:#FFFFFF;" d="M18.3,118.9c0,2.6,0,4.9,0,7.4c-2.6,0-5,0-7.6,0c0-2.4,0-4.8,0-7.4 C13.2,118.9,15.6,118.9,18.3,118.9z"></path> <path style="fill:#FFFFFF;" d="M190.9,100.9c2.5,0,4.9,0,7.6,0c0,2.4,0,4.8,0,7.4c-2.5,0-4.9,0-7.6,0 C190.9,105.8,190.9,103.4,190.9,100.9z"></path> <path style="fill:#FFFFFF;" d="M126.3,101c0,2.4,0,4.6,0,7.2c-2.5,0-5,0-7.6,0c0-2.4,0-4.6,0-7.2C121.2,101,123.7,101,126.3,101z"></path> <path style="fill:#FFFFFF;" d="M109.8,100.9c2.6,0,5,0,7.6,0c0,2.4,0,4.7,0,7.2c-2.4,0-4.9,0-7.6,0 C109.8,105.8,109.8,103.6,109.8,100.9z"></path> <path style="fill:#FFFFFF;" d="M81.3,108.3c-2.6,0-4.9,0-7.5,0c0-2.4,0-4.7,0-7.3c2.4,0,4.9,0,7.5,0 C81.3,103.3,81.3,105.6,81.3,108.3z"></path> <path style="fill:#FFFFFF;" d="M64.9,100.8c2.6,0,4.9,0,7.4,0c0,2.5,0,4.9,0,7.4c-2.5,0-4.9,0-7.4,0 C64.9,105.7,64.9,103.2,64.9,100.8z"></path> <path style="fill:#FFFFFF;" d="M18.3,108.2c-2.7,0-5.1,0-7.7,0c0-2.5,0-4.8,0-7.3c2.6,0,5,0,7.7,0 C18.3,103.4,18.3,105.7,18.3,108.2z"></path> <path style="fill:#FFFFFF;" d="M81.2,55.9c0,2.4,0,4.6,0,7c-2.2,0-4.5,0-7,0c0-2.2,0-4.5,0-7C76.3,55.9,78.5,55.9,81.2,55.9z"></path> <path style="fill:#FFFFFF;" d="M1.6,144.3c0-2.5,0-4.7,0-7.3c2.4,0,4.9,0,7.6,0c0,2.3,0,4.7,0,7.3C6.6,144.3,4.2,144.3,1.6,144.3z"></path> <path style="fill:#FFFFFF;" d="M1.6,126.3c0-2.6,0-4.9,0-7.3c2.5,0,4.9,0,7.5,0c0,2.4,0,4.8,0,7.3C6.7,126.3,4.3,126.3,1.6,126.3z"></path> <path style="fill:#FFFFFF;" d="M1.6,108.2c0-2.5,0-4.7,0-7.2c2.4,0,4.8,0,7.5,0c0,2.3,0,4.7,0,7.2C6.6,108.2,4.2,108.2,1.6,108.2z"></path> <path style="fill:#FFFFFF;" d="M182,118.9c2.5,0,4.8,0,7.3,0c0,2.5,0,4.8,0,7.4c-2.4,0-4.7,0-7.3,0C182,123.9,182,121.6,182,118.9z "></path> <path style="fill:#FFFFFF;" d="M182,100.9c2.6,0,4.9,0,7.3,0c0,2.5,0,4.7,0,7.3c-2.4,0-4.8,0-7.3,0C182,105.8,182,103.5,182,100.9z "></path> <path style="fill:#FFFFFF;" d="M9.1,64.8c0,2.6,0,4.9,0,7.5c-2.5,0-4.9,0-7.5,0c0-2.5,0-4.9,0-7.5C4.1,64.8,6.5,64.8,9.1,64.8z"></path> <path style="fill:#FFFFFF;" d="M109.8,73.9c2.5,0,4.9,0,7.5,0c0,2.5,0,4.9,0,7.4c-2.4,0-4.8,0-7.5,0 C109.8,78.9,109.8,76.6,109.8,73.9z"></path> <path style="fill:#FFFFFF;" d="M10.6,144.4c0-2.5,0-4.9,0-7.5c2.5,0,5,0,7.7,0c0,2.5,0,4.9,0,7.5C15.8,144.4,13.3,144.4,10.6,144.4 z"></path> <path style="fill:#FFFFFF;" d="M56,126.4c0-2.5,0-4.8,0-7.4c2.5,0,4.9,0,7.6,0c0,2.4,0,4.8,0,7.4C61.1,126.4,58.6,126.4,56,126.4z"></path> <path style="fill:#FFFFFF;" d="M118.6,135.4c0-2.6,0-4.9,0-7.4c2.6,0,5,0,7.7,0c0,2.4,0,4.8,0,7.4 C123.7,135.4,121.2,135.4,118.6,135.4z"></path> </g> </svg> 