<?xml version="1.0" encoding="UTF-8"?> <!-- Generator: Adobe Illustrator 24.1.2, SVG Export Plug-In . SVG Version: 6.00 Build 0) --> <svg xmlns="http://www.w3.org/2000/svg" xmlns:xlink="http://www.w3.org/1999/xlink" version="1.1" id="Layer_1" x="0px" y="0px" viewBox="0 0 100 100" style="enable-background:new 0 0 100 100;" xml:space="preserve"> <style type="text/css"> .st0{fill:#FFFFFF;} </style> <g> <path class="st0" d="M10.4,51.1l-1.3,1.3H4.3v7.7h7.3l5-5V39.3h-6.2V51.1z M13.7,53.6V41.3h0.7v12.7L11.3,57H7.2v-0.7H11L13.7,53.6 z"></path> <path class="st0" d="M34.3,39.3H17.8v5.6h16.5V39.3z M27.4,43.2h-9.6v-0.7h9.6V43.2z"></path> <path class="st0" d="M17.8,55.8l4.3,4.3h12.6v-6.7H24.5l-1.6-1.6h11.8v-5.1H17.8V55.8z M20.3,48.6h10.3v0.7H21v3.9l2.2,2.2h10.4 v0.7H22.9l-2.7-2.7V48.6z"></path> <path class="st0" d="M35.4,45.9h5v14.3H47V46h5.4v-6.7h-17V45.9z M43.6,58.6h-0.7v-8.9h0.7V58.6z M39.7,42.5H51v0.7H39.7V42.5z"></path> <path class="st0" d="M69.5,39.5l-5.7,5.7l-5.9-5.9l-4.7,5l5.7,5.7l-5.8,5.8l4.8,4.8l5.6-5.6l5.1,5.1l4.8-4.8L68.2,50l5.9-5.9 L69.5,39.5z M56.8,56.3l-0.5-0.5l6.4-6.4L57,43.7l0.5-0.5l6.2,6.2L56.8,56.3z M68.5,43.2l0.5,0.5l-2.4,2.6l-0.5-0.5L68.5,43.2z M68.2,57l-3.1-2.9l0.5-0.5l3.1,2.9L68.2,57z M71.4,56.8l-0.5,0.5l-4.3-4.5l0.5-0.5L71.4,56.8z M67.5,46.9L67,46.4l2.4-2.6l0.5,0.5 L67.5,46.9z"></path> <path class="st0" d="M92.6,41.3H75.4v4h16c0,0,1.8,1,0,1.8H77.9v4.2h12.9c0,0,1.2,1.4,0,2.1h-15v5.2h17c0,0,3.4-1,2.5-5.6v-3 l-1.1-0.6l1.2-0.7C95.4,48.7,96.9,42.1,92.6,41.3z M87.3,43.8H76.7v-0.7h10.6V43.8z M89.6,44.2c-0.4,0-0.7-0.3-0.7-0.7 c0-0.4,0.3-0.7,0.7-0.7c0.4,0,0.7,0.3,0.7,0.7C90.3,43.9,90,44.2,89.6,44.2z M91.7,44.2c-0.4,0-0.7-0.3-0.7-0.7 c0-0.4,0.3-0.7,0.7-0.7c0.4,0,0.7,0.3,0.7,0.7C92.4,43.9,92.1,44.2,91.7,44.2z M92.4,56.2h-8.1v-0.7h7.8l1.1-1.1l0.5,0.5L92.4,56.2 z"></path> </g> </svg> 