<?xml version="1.0" encoding="UTF-8"?> <!-- Generator: Adobe Illustrator 25.3.1, SVG Export Plug-In . SVG Version: 6.00 Build 0) --> <svg xmlns="http://www.w3.org/2000/svg" xmlns:xlink="http://www.w3.org/1999/xlink" version="1.1" id="Layer_1" x="0px" y="0px" viewBox="0 0 1000 1000" style="enable-background:new 0 0 1000 1000;" xml:space="preserve"> <path style="fill:#FFFFFF;" d="M147.3,568.32c-11.71-12.38-26.91-18.34-44.98-8.13c-12.93,7.31-20.47,26.17-15.32,40.96 c5.98,17.17,22.03,25.27,44.28,21.35c-4.17,13.85-8,27.18-12.4,40.32c-0.52,1.57-4.15,3.07-6.28,2.98 c-24.59-0.96-44.6-10.98-59.37-30.91c-7.22-9.74-11.22-20.47-13.47-32.62c-5.4-29.17,5.66-51.14,26.37-70.32 c8.75-8.1,19.05-13.06,29.93-15.99c13.01-3.5,26.69-3.6,39.78,0.89c6.92,2.37,13.58,5.55,20.24,8.63c3.07,1.42,4.23,3.4,2.88,7.44 c-3.52,10.58-6.13,21.47-9.21,32.2C149.46,566.15,148.38,566.95,147.3,568.32z"></path> <path style="fill:#FFFFFF;" d="M803.52,455.92c-3.59,11.57-7.03,22.64-10.62,34.21c-10.56-12.55-23.03-14.38-34.09-9.86 c-12.39,5.06-22.26,20.74-19.97,31.24c1.94,8.86,6.74,16.16,14.71,21.33c7.57,4.91,15.55,6.25,24.28,4.12 c-2.97,10.75-5.51,20.85-8.72,30.74c-0.63,1.95-4.08,4.52-5.89,4.27c-8.2-1.11-16.35-2.89-24.36-5.02 c-1.42-0.38-2.85-3.46-3.03-5.41c-2.17-23.79-11.06-43.39-32.91-55.63c-1.68-0.94-2.56-5.22-2.16-7.68 c3.7-23.2,23.09-46.27,48.37-52.52C769.57,440.67,786.42,445.67,803.52,455.92z"></path> <path style="fill:#FFFFFF;" d="M309.47,413.05c-2.29,0.86-4.41,2.14-6.65,2.41c-12.93,1.54-21.01,9.67-22.68,22.64 c-0.24,1.86-2.04,4.69-3.58,5.04c-16.23,3.73-32.55,7.01-48.84,10.5c-4.18,0.9-8.43,1.73-12.4,3.24c-4.9,1.86-6.12-0.95-5.05-4.32 c1.06-3.37,3.45-6.58,5.98-9.16c3.85-3.93,8.92-6.78,12.27-11.04c1.89-2.41,2.18-6.8,1.8-10.14c-1.37-12.07,3.82-22.08,14.81-27.19 c8.41-3.91,22.03-0.56,29.2,6.52c1.51,1.49,5.15,2.12,7.28,1.45c7.05-2.21,12.7-1.39,17.88,4.37 C301.62,409.77,305.32,410.77,309.47,413.05z"></path> <path style="fill:#FFFFFF;" d="M780.05,568.78c8.86-26.04,17.05-50.09,25.24-74.14c1.07-3.15,2.84-6.21,3.16-9.43 c1.03-10.32,6.92-13.84,16.68-14.35c6.52-0.34,12.93-2.64,20.62-4.33c-3.68,11.49-6.99,22.2-10.53,32.82 c-6.25,18.73-12.65,37.41-18.96,56.13c-1.19,3.53-2.38,6.08-7.08,6.78C800.07,563.61,791.16,566.21,780.05,568.78z"></path> <path style="fill:#FFFFFF;" d="M400.27,433.56c-39.11,8.47-77.75,16.84-115.12,24.93c0.38-6.09,0.99-11.08,0.93-16.07 c-0.11-9.23,6.37-21.79,18.44-19.57c5.18,0.95,7.83-1.24,10.55-5.89c7.18-12.24,21.5-12.21,29.48-0.19 c3.14,4.72,5.34,5.91,10.04,1.66c4.36-3.94,14.42-0.9,16.31,4.8c1.95,5.89,4.3,7.54,10.14,4.24 C387.48,423.83,391.58,425.45,400.27,433.56z"></path> <path style="fill:#FFFFFF;" d="M860.14,423.37c-3.15,10.15-6.11,20.08-9.42,29.9c-0.42,1.24-2.55,2.32-4.08,2.69 c-9.88,2.36-19.81,4.5-30.83,6.96c3.85-10.84,7.07-20.46,10.8-29.88c0.73-1.85,3.28-3.72,5.31-4.18 C840.95,426.8,850.08,425.27,860.14,423.37z"></path> <path style="fill:#FFFFFF;" d="M715.33,606.28c0.02-2.03,0.9-4.3,2.03-6.02c8.62-13.05,10.61-28.11,7.62-42.33 c-6.27-29.89-28.65-54.04-63.93-53.04c-2.84,0-6.79-0.34-10.63,0.12c-2.77,0.33-5.35,2.07-8.12,2.6 c-25.41,4.86-47.92,36.43-46.05,63.83c2,29.4,18.84,48.64,41.51,57.5c11.34,4.43,20.84,10.89,29.05,19.06 c5.62,5.59,8.75,13.6,13.7,19.99c1.78,2.3,6.06,4.73,8.43,4.12c7.33-1.9,14.32-5.13,21.37-8.04c7.79-3.21,10.15-6.59,7.58-14.32 C713.08,635.37,715.2,620.8,715.33,606.28z M630.42,569.84c0.95-17.35,16.04-31.93,30.42-29.84c15.93-1.94,30.4,13.44,30.83,30.15 c0.4,15.54-14.94,29.95-30.78,29.89C645.66,599.99,629.61,584.57,630.42,569.84z M698.02,642.35c-18.67,8.45-28.58,6.38-38.89-8.48 c19.97-0.83,36.87-7.33,50.52-21.96C712.95,627.4,708.95,637.41,698.02,642.35z"></path> <path style="fill:#FFFFFF;" d="M257.9,632.76c-2.57-7.85-4.84-15.79-7.46-23.62c-9.5-28.4-19.4-56.66-28.34-85.23 c-1.58-5.06-3.42-6.7-7.72-5.79c-10.2,2.16-20.62,3.92-30.33,7.52c-4.47,1.66-9.19,6.62-10.85,11.16 c-6.11,16.73-10.76,33.99-16.38,50.92c-8.56,25.81-17.47,51.5-26.59,78.32c10.94-2.47,20.52-4.97,30.24-6.76 c13.04-2.4,20.09-10.85,22.81-22.86c0.98-4.31,2.94-5.58,6.29-6.42c5.09-1.27,10.17-2.89,15.34-3.42c4.9-0.5,11.2-2.3,11.46,6.49 c0.08,2.67,1.62,5.31,2.49,7.95c1.11,3.34,2.65,5.06,6.85,4.03c9.02-2.21,18.21-3.72,27.33-5.51 C256.82,638.82,259.41,637.39,257.9,632.76z M202.86,600.73c-2.78,0.47-5.44,1.72-8.22,2.18c-5.08,0.85-7.55-1.62-6.54-6.6 c2.41-11.84,5.1-23.63,7.8-35.41c0.28-1.22,1.46-2.23,3.35-4.99c1.87,7.76,3.37,13.98,4.88,20.2c1.23,5.06,2.28,10.18,3.78,15.16 C209.41,596.32,208.78,599.73,202.86,600.73z"></path> <path style="fill:#FFFFFF;" d="M517.44,606.97c-4.84-14.4-9.81-28.75-14.52-43.19c-5.5-16.88-10.69-33.87-16.31-50.71 c-0.43-1.3-3.21-2.76-4.72-2.58c-6.63,0.77-13.16,2.52-19.79,3.16c-15.8,1.52-23.92,10.64-27.78,25.44 c-3.7,14.19-8.34,28.13-12.86,42.09c-7.91,24.46-16.05,48.85-24.22,73.68c11.32-1.8,21.66-3.38,31.97-5.09 c8.69-1.45,17.11-8.98,17.95-16.45c0.83-7.43,3.2-12.62,12.09-11.4c1.25,0.17,2.7-0.81,4.01-1.35c13.46-5.52,16.29-4.31,20.51,8.84 c0.72,2.25,1.37,4.51,2.45,8.06c13.28-2.6,25.99-5.1,38.85-7.62C522.23,621.35,519.85,614.15,517.44,606.97z M468.45,592.7 c-15.36,4.52-15.74,4.49-13.76-11.54c1.22-9.87,3.68-19.6,5.96-29.3c0.34-1.45,2.73-2.41,4.39-3.78c2.9,12.86,5.53,24.66,8.22,36.45 C474.25,588.84,472.67,591.46,468.45,592.7z"></path> <path style="fill:#FFFFFF;" d="M945.17,497.92c-8.9-27.64-17.64-55.33-26.8-82.88c-0.56-1.69-4.3-3.53-6.33-3.3 c-6.82,0.79-13.6,2.22-20.27,3.88c-14.23,3.55-19.73,6.17-24.31,22.52c-3.4,12.12-7.08,24.18-11.06,36.12 c-8.84,26.52-17.95,52.95-27.79,81.87c14.25-3.22,26.33-5.76,38.29-8.73c6.76-1.68,11.01-6.86,11.49-13.37 c0.68-9.26,6.59-11.5,13.86-12.96c2.57-0.51,5.15-1.02,7.73-1.49c10.94-2.02,10.93-2.01,14.57,9.23c0.22,0.68,1.07,1.29,1.03,1.89 c-0.48,6.78,4.11,7.1,8.66,6.27c10.43-1.89,20.77-4.27,31.68-6.57C952.17,519.11,948.59,508.54,945.17,497.92z M902.15,492.38 c-4.51,1.88-9.6,3.48-14.39,3.29c-5.39-0.21-4.64-5.51-3.96-9.06c1.84-9.58,4.3-19.03,6.4-28.56c0.86-3.92,1.4-7.9,2.09-11.86 c1.17,0,2.33,0.01,3.5,0.01c1.81,7.24,3.73,14.45,5.38,21.72c1.32,5.81,2.66,11.65,3.3,17.55 C904.71,487.76,903.67,491.74,902.15,492.38z"></path> <path style="fill:#FFFFFF;" d="M341.8,527.71c-3.17-17.03-10.36-23.87-27.53-27.46c-9.86-2.06-18.68,0.58-28.03,2.82 c-17.32,4.15-34.95,7.04-53.38,10.64c5.82,18.24,11.37,35.15,16.62,52.16c6.52,21.11,12.83,42.29,19.13,63.46 c1.23,4.15,3.96,5.09,7.67,4.23c11.53-2.65,23.04-5.4,35.02-8.21c-5.39-16.02-10.74-31.92-16.65-49.51 c6.69-1.69,13.66-2.76,20.05-5.27c6.89-2.71,14.39-5.57,19.58-10.52C343.36,551.42,344.03,539.68,341.8,527.71z M297.71,551.48 c-11.06,4.42-12.56,3.03-16.16-10.01c-1.1-4-4.91-7.6,0.46-11.3c5.81-4.01,12.52-4.92,18.46-2.32c3.45,1.51,5.3,6.69,7.86,10.22 c-0.63,0.39-1.26,0.78-1.9,1.18C308.41,546.9,302.63,549.51,297.71,551.48z"></path> <path style="fill:#FFFFFF;" d="M585.99,575.9c-1.76-15.24,0.74-29.28,8.9-41.71c3.97-6.05,3.92-9.93,0.48-15.72 c-8.29-13.92-18.13-25.11-35.91-25.29c-1.95,0-3.97-0.32-5.85,0.05c-16.82,3.34-33.69,6.52-50.38,10.43 c-3.92,0.92-7.74,3.62-4.98,9.76c3.21,7.12,5.14,14.82,7.64,22.26c9.12,27.05,18.25,54.1,27.38,81.14c2.81,8.34,6.18,9.85,15,7.49 c7.33-1.97,14.86-3.19,22.15-5.3c7.73-2.24,15.39-4.84,22.77-8c1.48-0.64,2.92-5.3,2.07-6.8 C590.25,595.32,587.18,586.26,585.99,575.9z M560.3,579.12c-2.14,0.43-6.45-1.58-7.1-3.42c-4.81-13.39-9.15-26.97-13-40.67 c-0.48-1.7,2.3-5.58,4.43-6.54c9.07-4.07,19.03,0.33,24.56,11.49c3.11,6.27,4.36,13.47,5.46,17.03 C574.63,570.47,569.82,577.19,560.3,579.12z"></path> <path style="fill:#FFFFFF;" d="M422.09,496.68c-5.18-11.41-24.58-17.89-32.89-16.22c-20.81,4.18-41.56,8.65-63.69,13.29 c4.14,1.74,7.16,2.57,9.71,4.15c20.93,12.96,25.93,48.92,7.8,68.03c-1.16,1.23-1.91,3.86-1.46,5.45 c3.82,13.42,7.82,26.79,12.19,40.04c0.52,1.56,3.78,3.38,5.53,3.17c7.08-0.88,14.08-2.42,21.07-3.88c5.23-1.1,10.41-2.45,15.28-3.61 c-4.5-14.7-8.71-28.57-13.01-42.41c-2.6-8.36-2.07-8.82,6.76-10.14c6.33-0.95,13.15-1.79,18.57-4.81 c5.93-3.29,12.4-8.09,15.28-13.89C429.54,523.12,428,509.71,422.09,496.68z M380.36,534.14c-5.7-0.07-10.67-7.78-10.74-16.66 c-0.04-5.65,4.47-8.27,14.2-8.24c8.15,0.03,12.95,3.78,12.9,10.11C396.67,527.37,389.06,534.25,380.36,534.14z"></path> </svg> 