<?xml version="1.0" encoding="UTF-8"?> <svg xmlns="http://www.w3.org/2000/svg" xmlns:xlink="http://www.w3.org/1999/xlink" version="1.1" id="Layer_1" x="0px" y="0px" viewBox="0 0 1000 1000" style="enable-background:new 0 0 1000 1000;" xml:space="preserve"> <path style="fill:#FFFFFF;" d="M790.5,661.8c8.8,0,17.2,0,26,0c0,1.2,0,2.3,0,3.4c0,14.5,0,29,0,43.5 c-0.1,52.7-34.4,97.8-85.1,112.2c-40.9,11.6-82.4,20.3-124.5,26c-40.4,5.5-81,8.3-121.8,8.2c-22.5-0.1-45,0.1-67.6-0.1 c-52.4-0.4-104.4-5.6-156-15.2c-27.8-5.2-55.3-11.7-82.4-19.4c-44.3-12.5-77.8-51.9-82.9-97.6c-0.5-4.8-0.9-9.6-0.9-14.5 c-0.1-32.5-0.1-65,0-97.5c0.1-25.5,9.1-47.4,27.3-65.3c14.6-14.4,32.3-22.6,52.7-25.2c1.1-0.1,2.5-1.3,3.1-2.3 c10.2-19.3,20.3-38.8,30.3-58.2c19.5-37.6,39.2-75.2,58.5-112.9c3.7-7.2,5.9-15.1,9.3-22.5c38.9-86.7,104.9-140.2,197.9-160.2 c16.8-3.6,33.9-5,51.2-4.9c11.6,0,23.2,0.1,34.9,0c43.3-0.5,83.3,10.8,119.9,33.8c12.8,8,25,16.9,37.4,25.6 c4.5,3.2,10.1,2.9,13.8-1.1c24.9-26.5,67.8-26.2,93.1,0.7c1.8,1.9,3.4,2.6,6.1,2.5c31-1,58,20,64.6,50.5c1.2,5.4,1.1,11,1.3,16.5 c0.1,1.9,0.5,3.2,1.9,4.5c26.4,24.6,28.3,63.7,4.1,90.5c-4.2,4.7-6,8.9-6.2,15.2c-0.7,30.1-25.1,56.4-54.9,60.1 c-4.1,0.5-8.2,0.3-12.3,0.7c-1.4,0.1-3,0.7-3.9,1.7c-25.5,28.1-69.7,28.1-95.3,0c-0.9-1-2.5-1.6-3.9-1.7c-5-0.4-10-0.5-15.4-0.7 c1.7-8.9,3.2-17.3,4.7-25.1c6.8-0.5,13.3-1.1,19.8-1.4c3.7-0.1,6.7,1.7,9.1,4.5c0.5,0.6,1,1.3,1.4,2c15.8,23.2,48.3,23.2,64,0 c3.9-5.7,8.3-7.5,15.1-6.2c27.2,5.4,50.5-18,45.1-45.4c-1.3-6.6,0.6-11,6.1-14.8c23.3-15.8,23.2-48.3-0.1-64.1 c-5.2-3.6-7.3-8.3-6.1-14.6c5.1-26.4-15.4-48.8-42.2-46c-1.1,0.1-2.2,0.4-3.3,0.6c-6.2,1.1-11-0.9-14.6-6.2 c-8.6-12.7-20.7-18.5-35.9-17.2c-12.6,1.1-22,7.7-28.7,18c5.8,6.9,11.7,13.4,17,20.2c13.3,17.1,23,36,26.8,57.5 c2.3,12.6,3.2,25.3-1.4,37.7c-7.3,19.4-25.5,32.9-46.1,33.5c-17.6,0.5-35.2,0.1-52.8,0.1c-0.3,0-0.6-0.1-1-0.2c0-8.5,0-17,0-25.8 c1.3,0,2.5,0,3.7,0c15.7,0,31.5,0.1,47.2,0c13.7-0.1,25.5-10.6,26-23c0.4-8.4-0.6-16.6-2.9-24.7c-5.4-19.6-16.4-36-29.9-50.8 c-19.6-21.5-42.9-38.2-67.7-53.1c-23.8-14.4-49.4-23.5-77.1-26.9c-5-0.6-10-1.2-15.1-1.2c-21.7,0-43.5-0.8-65.1,0.7 c-47.5,3.2-90.5,19.7-128.5,48.4c-39.9,30.2-67.8,69.1-84.3,116.3c-3,8.5-7.9,16.4-12.1,24.5c-12.8,24.8-25.8,49.5-38.6,74.3 c-12.9,24.9-25.8,49.7-38.7,74.6c-0.6,1.1-1.1,2.2-1.8,3.6c5.2,2.8,10.2,5.5,15.3,8.2c3.9,2,8,3.8,11.9,5.8c1.8,1,2.8,0.5,4-1.1 c12.1-15.3,23.8-31,36.6-45.7c32.2-36.9,70.2-66.2,116.1-84.4c33.8-13.4,68.9-19.4,105.1-19.9c2.4,0,3,0.8,2.9,3 c-0.1,6.6-0.2,13.2,0,19.7c0.1,2.8-0.8,3.4-3.5,3.5c-29,0.1-57.3,4.6-84.7,14.1c-34.8,12-65.2,31.4-92.2,56.3 c-21,19.4-39.1,41.4-56,64.3c-0.2,0.3-0.4,0.7-0.9,1.3c15.3,5.8,30.9,10,46.8,13.6c-1.8,8.5-3.6,16.8-5.5,25.4 c-5.2-1.2-10.2-2.3-15.2-3.6c-34.4-8.9-67-22.3-97.6-40.5c-3.2-1.9-6.2-2.3-9.6-1.8c-31,4.5-54.5,30.5-54.9,61.9 c-0.4,34.4-0.5,68.9,0,103.4c0.6,39,27.5,72.9,65,83.7c39.8,11.3,80.1,19.8,121.1,25.5c38.8,5.3,77.7,8.2,116.8,8.1 c30,0,60.1,0,90.1-0.6c32.1-0.6,64-3.8,95.8-8.4c39.2-5.7,77.8-13.9,115.9-24.9c34.3-9.8,61-41.5,63.5-77 c1.2-17.3,0.5-34.7,0.7-52.1C790.5,664.8,790.5,663.4,790.5,661.8z"></path> <path style="fill:#FFFFFF;" d="M517.7,255c1.6-8.2,3.3-16.5,5.1-25.4c7.8,2,15.5,3.7,23.1,5.9c23.1,6.6,44.8,16.1,63.9,31.1 c19.1,15.1,32.5,34,39.3,57.6c9.7,33.9,23,66.5,37.4,98.7c14.4,32.3,30,64,46.6,95.1c0.9,1.6,1.7,2.4,3.6,2.6 c37.5,3.6,70.4,33.5,78,70.8c2,9.6,1.9,19.2,1.9,28.9c0,5.1,0,10.3,0,15.6c-8.7,0-17.1,0-26,0c0-1.1,0-2.2,0-3.3 c-0.2-10.3,0.2-20.6-0.7-30.8c-2.7-28.9-29.1-53.8-58.1-55.4c-1-0.1-2.3,0.2-3.2,0.8c-36.4,21.8-76,35.5-116.9,45.6 c-30.5,7.5-61.4,12.2-92.7,15c-34.4,3-68.8,3.5-103.2,1.6c-12.8-0.7-25.6-1.9-38.6-2.9c1-8.8,1.9-17.3,2.9-26c5.8,0.5,11.4,1,17,1.5 c29,2.6,58.1,3.3,87.2,1.8c20.6-1.1,41.3-2.6,61.7-5.2c55.2-7.3,108.6-21.1,158.2-47.3c1.4-0.7,2.7-1.5,4-2.2 c0.2-0.1,0.3-0.3,0.6-0.6c-0.2-0.4-0.4-0.9-0.7-1.4c-24-45.8-46.6-92.1-65.2-140.4c-6.7-17.3-12.9-34.9-18.1-52.7 c-6.5-22.5-19.6-39.5-38.9-52.2c-19.3-12.8-40.8-20-63.2-25c-1.4-0.3-2.8-0.6-4.2-0.9C518.3,255.6,518.1,255.4,517.7,255z"></path> <path style="fill:#FFFFFF;" d="M329.5,572.7c8.6,1.5,16.8,2.9,25.5,4.4c-1.3,8.5-2.6,16.9-3.9,25.8c-8.9-1.5-17.5-3-26.6-4.6 C326.2,589.6,327.8,581.3,329.5,572.7z"></path> <path style="fill:#FFFFFF;" d="M493.2,251.4c-8.4-0.6-16.4-1.1-24.4-1.6c0-8.6,0-17,0-26.1c9.3,0.6,18.2,1.2,27.5,1.9 C495.2,234.5,494.2,242.9,493.2,251.4z"></path> </svg> 