<?xml version="1.0" encoding="UTF-8"?> <svg xmlns="http://www.w3.org/2000/svg" xmlns:xlink="http://www.w3.org/1999/xlink" version="1.1" id="Layer_1" x="0px" y="0px" viewBox="0 0 1000 1000" style="enable-background:new 0 0 1000 1000;" xml:space="preserve"> <path style="fill:#FFFFFF;" d="M306.8,763.8c0,12,0,22.3,0,33.6c24.1,0,47.7,0,71.8,0c0,17.6,0,34.3,0,52c-23.7,0-47.3,0-71.6,0 c0,12.1,0,23.1,0,35c26,0,51.7,0,78.5,0c0,16.6,0.1,32.5-0.2,48.3c0,1.3-3.5,3.5-5.4,3.5c-32.2,0.2-64.3,0.6-96.5-0.2 c-18.6-0.5-32.5-15-32.6-33.2c-0.3-62.3-0.1-124.7-0.1-187c0-0.8,0.3-1.6,0.7-3.1c44.4,0,88.9,0,134,0c0,16.8,0,33.4,0,51.2 C359.4,763.8,333.5,763.8,306.8,763.8z"></path> <path style="fill:#FFFFFF;" d="M559,764.2c-26.7,0-52.4,0-78.8,0c0,11.1,0,21.6,0,33.2c23.5,0,47.1,0,71.2,0c0,17.7,0,34.3,0,52.1 c-23.6,0-47.2,0-71.9,0c0,29.3,0,57.5,0,87.5c-11.2-0.7-21.5,0-31-2.3c-13.8-3.4-22-13.3-24.3-27.6c-0.6-3.7-0.6-7.5-0.6-11.3 c0-57.7,0-115.4,0-173c0-3.1,0-6.3,0-10c45.5,0,90.2,0,135.5,0C559,729.6,559,746.3,559,764.2z"></path> <path style="fill:#FFFFFF;" d="M718.4,935.9c-32.1,0-63.3,0-94.5,0c-0.3,0-0.6-0.1-0.9-0.1c-15.8-2.7-27.1-14.6-28.7-30.5 c-0.3-3.4-0.4-6.9-0.4-10.4c0-57.1,0-114.2,0-171.3c0-3.4,0-6.9,0-10.9c18.6,0,36.4,0,55.4,0c0,56.9,0,113.8,0,171.6 c23.5,0,45.9,0,69,0C718.4,901.8,718.4,918.5,718.4,935.9z"></path> <path style="fill:#FFFFFF;" d="M450.5,491.6c-22.6,0.1-40.2-17.6-40.1-40.2c0.1-22,17.9-39.8,39.7-39.9 c22.1-0.1,40.4,18.3,40.3,40.4C490.2,473.8,472.4,491.5,450.5,491.6z"></path> <path style="fill:#FFFFFF;" d="M538.8,330.5c-0.1-22.5,17.7-40.4,40.1-40.2c21.9,0.2,39.8,18.1,39.9,39.9 c0.1,22.1-18.4,40.5-40.4,40.3C556.4,370.3,538.9,352.6,538.8,330.5z"></path> <path style="fill:#FFFFFF;" d="M449.5,279.9c-0.1,22.4-18.2,40-40.7,39.7c-22-0.3-39.6-18.3-39.4-40.2c0.2-21.8,18.2-39.8,39.9-39.9 C431.6,239.3,449.7,257.6,449.5,279.9z"></path> <path style="fill:#FFFFFF;" d="M696.2,282.2c0.1,20.3-15.9,36.6-36.1,36.9c-20.5,0.2-37.3-16.2-37.3-36.7 c0-20.2,16.1-36.5,36.2-36.7C679.8,245.4,696.1,261.4,696.2,282.2z"></path> <path style="fill:#FFFFFF;" d="M451.7,582.4c-20.6,0.1-37.3-16.4-37.1-36.8c0.1-20.1,16.5-36.5,36.6-36.7 c20.3-0.2,37.3,16.7,37.2,37C488.2,566,471.9,582.3,451.7,582.4z"></path> <path style="fill:#FFFFFF;" d="M364.2,234c-0.2,20.6-16.9,36.7-37.5,36.3c-20-0.4-36.3-17.2-36-37.2c0.3-20.5,17-36.6,37.7-36.2 C348.7,197.3,364.4,213.6,364.2,234z"></path> <path style="fill:#FFFFFF;" d="M401.9,361.4c-0.1,19.8-16.4,36-36.1,35.7c-19.7-0.3-35.6-16.6-35.3-36.5c0.3-19.6,15.9-35,35.7-35 C386.2,325.6,402,341.4,401.9,361.4z"></path> <path style="fill:#FFFFFF;" d="M565.4,251.6c0.2,20.1-15.5,36-35.4,36.1c-19.9,0.1-35.9-15.9-35.9-35.8c0-19.5,15.7-35.4,35.1-35.7 C549.2,216,565.2,231.6,565.4,251.6z"></path> <path style="fill:#FFFFFF;" d="M543.2,412.8c19.9,0.3,35.4,16.5,34.9,36.6c-0.5,19.6-16.4,35.1-35.9,34.9 c-19.7-0.2-35.9-16.7-35.5-36.3C507.1,428.1,523.2,412.5,543.2,412.8z"></path> <path style="fill:#FFFFFF;" d="M294.2,350.5c-19.4,0.1-34.9-15.1-35-34.4c-0.2-19.7,15.4-35.5,35.1-35.3 c19.3,0.1,34.6,15.6,34.6,34.9C328.9,335.1,313.6,350.4,294.2,350.5z"></path> <path style="fill:#FFFFFF;" d="M504.3,533.7c0-19.2,15.6-34.9,34.7-35c19.4-0.1,35.2,15.9,35,35.6c-0.2,19.3-15.8,34.5-35.1,34.3 C519.5,568.4,504.3,553.1,504.3,533.7z"></path> <path style="fill:#FFFFFF;" d="M640.1,212.6c-0.2,19.2-15.9,34.8-35,34.6c-19.1-0.2-34.6-15.8-34.6-35c0-19.7,15.8-35.2,35.5-34.9 C625.3,177.7,640.3,193.1,640.1,212.6z"></path> <path style="fill:#FFFFFF;" d="M733.9,208.7c-0.1,17.7-14.6,32-32.2,31.8c-17.2-0.2-31.4-14.5-31.6-31.7 c-0.2-17.5,14.3-32.2,31.9-32.2C719.6,176.6,734,191.1,733.9,208.7z"></path> <path style="fill:#FFFFFF;" d="M525.6,619.1c0.2,17.9-13.8,32.2-31.6,32.3c-17.8,0.1-31.9-14.1-31.9-32c0-17.5,13.7-31.5,31.1-32 C510.8,587,525.5,601.4,525.6,619.1z"></path> <path style="fill:#FFFFFF;" d="M242.5,265.3c-17.8,0-32-14.2-31.9-32c0.1-17.8,14.4-31.8,32.3-31.6c17.4,0.2,31.4,14.1,31.6,31.5 C274.7,250.9,260.3,265.3,242.5,265.3z"></path> <path style="fill:#FFFFFF;" d="M648.9,434.1c-0.1,16.6-13.4,29.6-29.9,29.4c-16-0.2-29.1-13.4-29.3-29.4 c-0.1-16.4,13.2-29.8,29.7-29.8C636,404.2,649,417.4,648.9,434.1z"></path> <path style="fill:#FFFFFF;" d="M310.9,435c0.1-16.7,13.2-29.5,29.9-29.3c16.1,0.2,29.2,13.3,29.3,29.3c0.1,16.1-13.6,29.9-29.7,30 C324.1,465,310.8,451.6,310.9,435z"></path> <path style="fill:#FFFFFF;" d="M215.3,275.5c16.5-0.2,30,13,30.1,29.4c0.1,16.2-12.7,29.5-28.7,29.8c-16.7,0.4-30.1-12.4-30.5-28.9 C185.8,289.3,198.8,275.7,215.3,275.5z"></path> <path style="fill:#FFFFFF;" d="M598.7,606.7c0.1,16.7-12.8,29.8-29.4,29.8c-16.5,0-29.9-13.4-29.8-29.8 c0.1-15.9,13.3-29.2,29.3-29.6C585.1,576.8,598.6,590.2,598.7,606.7z"></path> <path style="fill:#FFFFFF;" d="M653.9,120c16.5,0.2,29.8,13.7,29.4,30.1c-0.4,16-13.6,29.1-29.6,29.2c-16.4,0.1-29.6-13.3-29.6-29.8 C624.1,132.7,637.2,119.8,653.9,120z"></path> <path style="fill:#FFFFFF;" d="M508.2,192.6c0,16.7-13.1,29.6-29.8,29.5c-16.2-0.1-29.2-13-29.4-29.2c-0.2-16.2,13.3-30,29.5-30.1 C494.9,162.7,508.2,176.1,508.2,192.6z"></path> <path style="fill:#FFFFFF;" d="M307.9,394.1c0,16.2-13.2,29.3-29.3,29.2c-16.1-0.1-29.2-13.5-28.9-29.7 c0.2-15.8,13.2-28.7,28.9-28.8C294.6,364.7,307.9,378,307.9,394.1z"></path> <path style="fill:#FFFFFF;" d="M614.8,536.8c-16.4,0-29.1-12.7-29.1-29.1c0-16.5,12.8-29.1,29.3-28.9c16,0.1,28.6,12.7,28.7,28.7 C643.9,523.9,631.2,536.8,614.8,536.8z"></path> <path style="fill:#FFFFFF;" d="M545.4,130.7c16.4,0.2,29,13.2,28.7,29.6c-0.3,16.3-13.4,28.8-29.8,28.5c-16-0.3-28.3-13-28.2-29.1 C516.1,143.2,529,130.5,545.4,130.7z"></path> <path style="fill:#FFFFFF;" d="M210.2,404.4c-15.5,0-27.6-11.9-27.6-27.3c-0.1-15.4,12.1-27.7,27.3-27.8c15-0.1,27.7,12.5,27.8,27.5 C237.8,392,225.5,404.4,210.2,404.4z"></path> <path style="fill:#FFFFFF;" d="M594.2,136.3c-15.3,0-27.4-12.3-27.4-27.7c0-15.3,12.4-27.7,27.6-27.7c15.1,0.1,27.6,12.7,27.5,27.8 C621.8,124.1,609.5,136.4,594.2,136.3z"></path> <path style="fill:#FFFFFF;" d="M606.7,576c0-15.5,11.9-27.5,27.3-27.5c15.4,0,27.6,12,27.6,27.4c0.1,15.3-12.1,27.6-27.5,27.6 C618.8,603.5,606.8,591.5,606.7,576z"></path> <path style="fill:#FFFFFF;" d="M421.5,185.2c-13.5-0.1-24.3-10.9-24.3-24.4c0-13.2,11.1-24.4,24.3-24.5c13.6-0.1,24.9,11.3,24.6,25 C445.9,174.9,435.1,185.3,421.5,185.2z"></path> <path style="fill:#FFFFFF;" d="M365.7,500.6c-0.1,13.7-10.6,24.1-24.3,24.1c-13.5,0-24.4-10.7-24.6-24.1c-0.1-13.5,11.4-25,25-24.7 C355.3,476.1,365.8,487.1,365.7,500.6z"></path> <path style="fill:#FFFFFF;" d="M699.6,401c-0.3,13.4-11.4,24.2-24.7,23.9c-13.3-0.3-24.2-11.5-24.1-24.7 c0.2-13.8,11.4-24.5,25.4-24.1C689.8,376.4,699.9,387.2,699.6,401z"></path> <path style="fill:#FFFFFF;" d="M304.2,461.7c-0.1,13.3-11.3,24.3-24.5,24.1c-13-0.2-23.6-10.9-23.8-23.9 c-0.2-13.4,10.7-24.4,24-24.5C293.3,437.4,304.3,448.3,304.2,461.7z"></path> <path style="fill:#FFFFFF;" d="M462.1,127.1c0-13.6,10.6-24.1,24.2-24c13.6,0.1,23.9,10.8,23.7,24.5c-0.2,13.1-10.8,23.7-23.8,23.8 C473,151.5,462.1,140.5,462.1,127.1z"></path> <path style="fill:#FFFFFF;" d="M672.8,449c13.5,0.2,23.9,11,23.6,24.6c-0.3,13.6-11.2,23.8-24.9,23.4c-13.2-0.4-23.2-10.9-23.1-24.2 C648.5,459.2,659.2,448.8,672.8,449z"></path> <path style="fill:#FFFFFF;" d="M218.8,417.3c12.8,0.3,23.1,11.1,22.7,23.8c-0.5,12.7-11.3,22.8-24.1,22.3 c-12.3-0.5-22.4-11-22.2-23.3C195.3,427.4,206,417,218.8,417.3z"></path> <path style="fill:#FFFFFF;" d="M684.8,560.2c-12.9-0.1-22.9-10.4-22.8-23.4c0.2-12.6,10.1-22.6,22.6-22.7 c12.9-0.1,23.2,10.1,23.2,23C708,549.9,697.6,560.2,684.8,560.2z"></path> <path style="fill:#FFFFFF;" d="M558.3,84.2c-0.1,12.9-10.3,23-23.3,22.8c-12.6-0.1-22.5-10-22.7-22.6c-0.2-12.9,10-23.2,22.9-23.3 C548.1,61.1,558.4,71.4,558.3,84.2z"></path> <path style="fill:#FFFFFF;" d="M357.3,571.6c-10.7-0.1-19.3-8.8-19.1-19.5c0.2-10.6,9-19.2,19.6-19c10.6,0.1,19.3,9,19.1,19.6 C376.8,563.3,368.1,571.7,357.3,571.6z"></path> <path style="fill:#FFFFFF;" d="M712,341.2c10.8-0.1,19.5,8.3,19.6,19c0.1,10.5-8.7,19.5-19.2,19.6c-10.5,0.1-19.5-8.7-19.6-19.2 C692.7,349.9,701.3,341.3,712,341.2z"></path> <path style="fill:#FFFFFF;" d="M388,149.3c-0.2,10.8-8.8,19-19.7,18.8c-10.8-0.2-19-8.7-18.8-19.6c0.2-10.6,9.1-19.2,19.6-19 C379.7,129.7,388.2,138.6,388,149.3z"></path> <path style="fill:#FFFFFF;" d="M292.3,533.3c-10.4,0.1-19-8.4-18.8-18.7c0.2-10,8.4-18.1,18.4-18.2c10.4-0.1,18.9,8.4,18.8,18.7 C310.6,525.3,302.5,533.3,292.3,533.3z"></path> <path style="fill:#FFFFFF;" d="M730.9,436c-0.1,10.1-8.2,18.3-18.2,18.4c-10.2,0.1-18.8-8.6-18.7-18.8c0.1-10,8.4-18.2,18.3-18.4 C722.6,417,731,425.5,730.9,436z"></path> <path style="fill:#FFFFFF;" d="M433.8,129.4c-10.5,0-18.6-8.3-18.3-18.9c0.2-10.2,8.2-18,18.4-17.9c10.5,0,18.6,8.4,18.4,18.9 C452.1,121.5,443.9,129.4,433.8,129.4z"></path> <path style="fill:#FFFFFF;" d="M702.4,497.1c0.1-10.1,8.2-18.1,18.3-18c9.9,0.1,18.2,8.6,18.1,18.5c-0.2,9.9-8.6,18.1-18.6,18 C710.1,515.5,702.3,507.3,702.4,497.1z"></path> <path style="fill:#FFFFFF;" d="M501.3,72.8c-0.1,10.1-8.2,18.2-18.2,18.2c-9.9-0.1-18.3-8.5-18.2-18.4c0.1-9.9,8.4-18.1,18.4-18.1 C493.4,54.5,501.3,62.5,501.3,72.8z"></path> <path style="fill:#FFFFFF;" d="M234.7,509.1c-10.2-0.1-18-8.1-17.9-18.3c0.1-10.1,8.4-18.2,18.3-18.1c9.9,0.1,18,8.4,17.9,18.5 C252.9,501.4,244.9,509.2,234.7,509.1z"></path> <path style="fill:#FFFFFF;" d="M379.9,578.1c8.7,0.1,15.2,6.8,15.1,15.5c-0.1,8.6-7,15.4-15.5,15.3c-8.5-0.1-15.4-7.3-15.3-15.7 C364.3,584.7,371.3,578,379.9,578.1z"></path> <path style="fill:#FFFFFF;" d="M337.6,147.7c-0.1,8.7-6.8,15.2-15.6,15.2c-8.6-0.1-15.5-7-15.4-15.5c0.1-8.5,7.1-15.2,15.7-15.2 C331,132.4,337.6,139.1,337.6,147.7z"></path> <path style="fill:#FFFFFF;" d="M736.4,336.2c-8.5-0.2-15.2-7.2-15.1-15.8c0.1-8.6,7-15.4,15.6-15.2c8.5,0.1,15.2,7.1,15.1,15.7 C751.8,329.4,744.8,336.3,736.4,336.2z"></path> <path style="fill:#FFFFFF;" d="M757.8,460.7c-0.1,7.7-6.9,14.4-14.6,14.3c-7.7-0.1-14.4-6.9-14.3-14.6c0.1-7.7,6.8-14.3,14.6-14.2 C751.3,446.3,757.9,453,757.8,460.7z"></path> <path style="fill:#FFFFFF;" d="M269.6,529.2c0,7.9-6.3,14.3-14.3,14.4c-7.9,0-14.4-6.4-14.5-14.2c0-7.9,6.4-14.3,14.3-14.4 C263.2,514.9,269.6,521.3,269.6,529.2z"></path> <path style="fill:#FFFFFF;" d="M440,86c-8.1,0-14.2-6-14.3-14.2c0-8.2,6-14.2,14.1-14.3c8.1,0,14.3,6,14.3,14.2 C454.2,79.9,448.1,86,440,86z"></path> <path style="fill:#FFFFFF;" d="M399,109.3c0.2,8-6.2,14.5-14,14.4c-7.4-0.1-13.7-6.3-14-13.7c-0.2-7.8,6.2-14.3,14.1-14.2 C392.9,95.8,398.8,101.5,399,109.3z"></path> <path style="fill:#FFFFFF;" d="M738,380.1c7.4,0,13.7,6.1,13.9,13.7c0.2,8.1-5.8,14.4-13.9,14.3c-7.6,0-13.8-5.9-14.1-13.5 C723.7,387,730.4,380.1,738,380.1z"></path> <path style="fill:#FFFFFF;" d="M329.2,557.7c0.1,7.8-5.6,13.8-13.3,14c-8,0.2-14.5-6-14.6-13.8c0-7.7,6.8-14.3,14.4-14.2 C323.2,543.9,329.1,550.1,329.2,557.7z"></path> <path style="fill:#FFFFFF;" d="M402.5,91.3c-7.4,0-13.1-5.8-13-13.2c0.1-7.3,6.2-13.1,13.4-12.9c6.8,0.3,12.5,6,12.6,12.9 C415.7,85.4,409.8,91.3,402.5,91.3z"></path> <path style="fill:#FFFFFF;" d="M292.5,558.3c0,7.4-5.8,13.2-13,13.1c-7.2-0.1-13.2-6.3-13-13.4c0.2-6.8,6-12.5,12.8-12.7 C286.6,545.1,292.5,550.9,292.5,558.3z"></path> <path style="fill:#FFFFFF;" d="M756.5,437.8c-7.4,0.1-13.4-5.9-13.2-13.2c0.2-6.8,6.2-12.7,12.9-12.8c7.2-0.1,13.2,6,13,13.4 C769.1,432.4,763.7,437.7,756.5,437.8z"></path> <path style="fill:#FFFFFF;" d="M341.8,611c-6.8,0-12.8-5.8-12.9-12.6c-0.2-7.3,5.8-13.3,13.2-13.1c6.9,0.2,12.6,6,12.5,12.9 C354.6,605,348.6,610.9,341.8,611z"></path> <path style="fill:#FFFFFF;" d="M772.4,351.2c0,7.1-5.6,12.8-12.5,12.9c-7.2,0.1-13.4-6.2-13.1-13.3c0.3-6.9,6.2-12.6,13.1-12.4 C766.8,338.5,772.4,344.2,772.4,351.2z"></path> <path style="fill:#FFFFFF;" d="M337.2,125.3c-6.8,0.1-12.8-5.8-13-12.6c-0.2-7.3,5.8-13.2,13.2-13.1c7,0.2,12.5,5.8,12.4,12.9 C349.8,119.5,344.2,125.2,337.2,125.3z"></path> <path style="fill:#FFFFFF;" d="M282.1,160.8c-6.8,0.1-12.3-5.1-12.3-11.9c0-6.6,5.7-12.5,12.2-12c6.9,0.5,11.2,4.4,11.8,11.5 C294.3,155.2,288.8,160.7,282.1,160.8z"></path> <path style="fill:#FFFFFF;" d="M401.1,639.6c-6.9,0-11.9-5.2-11.8-12.1c0.1-6.8,5.6-12.3,12.3-11.7c7,0.6,11.1,4.6,11.4,11.7 C413.3,634.3,407.9,639.6,401.1,639.6z"></path> <path style="fill:#FFFFFF;" d="M767.5,284.9c0,6.9-5.1,12-12,12c-6.8-0.1-12.1-5.4-11.7-12.3c0.4-7.1,4.5-11.1,11.5-11.5 C762.1,272.6,767.4,278.1,767.5,284.9z"></path> <path style="fill:#FFFFFF;" d="M370.6,92.1c-3.6,2.5-6.9,6.5-10.8,7.1c-6,0.9-9.8-3.6-9.5-9.7c0.3-5.6,4-9.8,9.6-8.6 c3.9,0.8,7.1,4.7,10.7,7.2C370.7,89.4,370.6,90.7,370.6,92.1z"></path> <path style="fill:#FFFFFF;" d="M770.5,371.3c2.3,3.6,6.1,7,6.7,10.9c0.9,5.7-3.4,9.3-9,9.3c-6.1,0-10.4-3.9-9.4-9.9 c0.7-3.8,4.9-7,7.6-10.5C767.8,371.2,769.1,371.2,770.5,371.3z"></path> <path style="fill:#FFFFFF;" d="M321.8,591.9c-3.6,2.4-7,6.3-10.9,6.9c-5.6,0.9-9.3-3.4-9.3-9c0-6,3.8-10.5,9.8-9.3 c3.8,0.7,7,4.8,10.5,7.4C321.9,589.2,321.9,590.6,321.8,591.9z"></path> <path style="fill:#FFFFFF;" d="M365,631.8c-2.2-3.4-5.8-6.5-6.4-10.2c-0.9-5.3,3.2-9.4,8.3-8.2c3.4,0.8,7.9,5.2,8.3,8.3 c0.3,3.1-4,6.7-6.2,10.1C367.6,631.8,366.3,631.8,365,631.8z"></path> <path style="fill:#FFFFFF;" d="M306.6,112.4c2.1,3.5,6.3,7.3,5.8,10.3c-0.6,3.2-5.3,7.4-8.7,8c-5.1,0.9-9-3.4-7.9-8.7 c0.8-3.6,4.4-6.6,6.8-9.9C304,112.3,305.3,112.3,306.6,112.4z"></path> <path style="fill:#FFFFFF;" d="M769.8,307.5c2.1,3.5,5.5,6.8,6,10.4c0.7,5.3-3.6,9.3-8.6,7.9c-3.4-1-7.8-5.5-8-8.7 c-0.2-3.1,4.3-6.5,6.8-9.8C767.2,307.4,768.5,307.5,769.8,307.5z"></path> <path style="fill:#FFFFFF;" d="M266.3,168c-5,3.5-8.4,7.7-10.7,7.2c-3.2-0.7-5.6-5-8.3-7.8c2.9-2.5,5.6-6.6,8.8-7.1 C258.5,159.9,261.6,164.3,266.3,168z"></path> <path style="fill:#FFFFFF;" d="M763.6,252.5c-4.8,3.6-8,7.8-10.3,7.4c-3.2-0.5-5.7-4.6-8.6-7.2c2.8-2.7,5.2-6.9,8.4-7.6 C755.4,244.6,758.7,248.9,763.6,252.5z"></path> <path style="fill:#FFFFFF;" d="M442,641.4c-5.5,3.7-8.7,7.5-11.8,7.4c-2.7-0.1-7.5-5.1-7.1-7.2c0.6-3.1,4.6-7,7.7-7.6 C433.3,633.5,436.6,637.6,442,641.4z"></path> </svg> 