<?xml version="1.0" encoding="UTF-8"?> <svg xmlns="http://www.w3.org/2000/svg" xmlns:xlink="http://www.w3.org/1999/xlink" version="1.1" id="Layer_1" x="0px" y="0px" viewBox="0 0 1000 1000" style="enable-background:new 0 0 1000 1000;" xml:space="preserve"> <g id="Launching"> <path style="fill:#FFFFFF;" d="M227.7,631.3c0,0-61.6,48.8-65.5,182.9c-0.4,14.9,11.4,27.4,26.4,27.7c0.3,0,0.7,0,1,0 c129.7-2.4,182.9-65.9,182.9-65.9c38.5-40.6,38.5-104.2,0-144.7C332.5,591.3,273.3,593.3,227.7,631.3z"></path> <path style="fill:#FFFFFF;" d="M514.1,679.1c18.3,24.2,29.5,53,32.4,83.2c2.8,47.2-1.4,94.6-12.4,140.7c-2.5,11,4.4,21.9,15.4,24.4 c4.8,1.1,9.8,0.4,14.1-1.9c109.4-57.6,199.7-169,142.1-314.4C647.7,647.8,582.3,671.1,514.1,679.1z"></path> <path style="fill:#FFFFFF;" d="M241.5,457.2c30.2,2.8,59.1,14,83.3,32.4c7.9-68.2,31.1-133.7,67.9-191.6 c-145.4-57.7-256.8,32.7-314.5,142.1c-3.7,7-3,15.5,1.8,21.8c4.8,6.4,12.9,9.4,20.8,7.7C146.8,458.7,194.2,454.5,241.5,457.2z"></path> <path style="fill:#FFFFFF;" d="M911,123.4c-2.4-15.8-14.8-28.2-30.6-30.6c-44.8-6.7-90.3-6.9-135.1-0.6 c10.9,86.9,79.4,155.3,166.3,166.1C918,213.6,917.8,168.1,911,123.4z"></path> <path style="fill:#FFFFFF;" d="M707.6,99.2c-67.3,15.5-129.3,48.3-179.9,95.3c-166,153.7-165.4,309.5-165.4,309.5l137.4,137.4 c0,0,155.8,0.6,309.5-165.4c47-50.6,79.9-112.7,95.3-180C802.1,282.2,721.5,201.7,707.6,99.2z M644.3,439.6 c-44.3,0-80.2-35.9-80.2-80.2s35.9-80.2,80.2-80.2c44.3,0,80.2,35.9,80.2,80.2c0,0,0,0,0,0C724.5,403.7,688.6,439.6,644.3,439.6z"></path> </g> </svg> 