<?xml version="1.0" encoding="UTF-8"?> <svg xmlns="http://www.w3.org/2000/svg" xmlns:xlink="http://www.w3.org/1999/xlink" version="1.1" id="Layer_1" x="0px" y="0px" viewBox="0 0 1000 1000" style="enable-background:new 0 0 1000 1000;" xml:space="preserve"> <path style="fill:#FFFFFF;" d="M854.4,276.1l31.8,10.7l-21.7-25.6c-93.6-110.3-199.8-105.1-253.6-92.7c35.2-33.1,68.8-47,69.2-47.1 l32.1-12.8l-34.1-5.1c-67.7-10.1-108.1,17.5-130.1,42.5c-10.5,11.9-17.8,24.3-22.7,34.5c-35.2-73.4-91.4-97.7-134.2-104.9 c-50.1-8.4-91.8,4.4-93.6,4.9l-38.9,12.2l40.3,6c56.6,8.4,100.1,42.4,126,68.3c-65.3-23.4-121.8-13.2-160,1.3 c-49.3,18.7-79.1,47.7-80.3,48.9L166,235.2l25.9-2.2c61.3-5.3,115.3,0.3,154.6,7.4c-72.2,11.4-121.2,52.2-151.7,88.9 c-42.5,51.2-58.6,104.3-59.2,106.5l-10.1,34.1l25.6-24.7c68.6-66.2,179.5-93.9,238.3-104.4c-17.1,16.8-29.3,39-36.1,66 c-7.9,31.6-5.4,58.4-5.3,59.5l3.4,35.5l14.4-32.6c20.8-47,55.8-77.1,86.1-95.6c-15.2,102.7-31.1,288.7,5.5,500.1 c-22.2,11.7-38.7,31.7-46,55.9l-3.6,12h186.4l-3.6-12c-6.5-21.8-20.6-40.3-39.8-52.4c-13-43-30.1-111.6-39.7-199.1 c-11.2-102.1-9.5-205.1,5-306.4c52.1,60.1,77.9,174.2,78.2,175.5L601,578l11.1-29.6c15.8-42.5,29.5-105.5,4.6-164.2 c-4.3-10.1-9.1-18.7-13.9-25.8c107.7,43.4,193.4,140.8,194.3,141.9l22,25.2l-5.7-32.9c-18.8-108.7-70.5-168.4-110.7-199.3 c-21.1-16.2-41.1-26.5-56.3-32.7C737.6,237.6,853.1,275.6,854.4,276.1z"></path> </svg> 