<?xml version="1.0" encoding="UTF-8"?> <svg xmlns="http://www.w3.org/2000/svg" xmlns:xlink="http://www.w3.org/1999/xlink" version="1.1" id="Layer_1" x="0px" y="0px" viewBox="0 0 1000 1000" style="enable-background:new 0 0 1000 1000;" xml:space="preserve"> <path style="fill:#FFFFFF;" d="M829.8,477.4c33.5,0,66.6,0,99.8,0c0,16.8,0,33.4,0,50.2c-9.9,0-19.7,0-29.7,0c0,28.4,0,56.5,0,84.8 c-18,0-35.7,0-53.7,0c0-28.1,0-56.3,0-84.4c-4.6,0-8.8,0-13.2,0c0,11.7,0,23.1,0,34.8c1.7,0,3.4,0,5.3,0c0,16.7,0,33.1,0,49.8 c-2.7,0-5.4,0-8.4,0c0,1.6,0,2.9,0,4.2c-0.1,14.1-1.8,27.9-6.9,41.2c-3.8,9.7-8.7,18.8-15.2,27c-8.8,11.2-19.6,20-32,27 c-11.2,6.3-22.3,13-33.5,19.4c-11.3,6.5-22.6,12.9-33.8,19.4c-10.4,6-20.8,12.1-31.2,18.1c-11.3,6.5-22.6,12.9-33.8,19.4 c-10,5.8-20,11.7-30.1,17.5c-9.3,5.3-18.5,10.7-27.8,15.9c-9.2,5.2-18.4,10.7-27.8,15.6c-9,4.7-18.7,7.7-28.8,8.7 c-8.1,0.8-16.3,1.5-24.3,0.9c-13.9-1-27.2-4.8-39.4-11.5c-8.6-4.7-17-9.6-25.5-14.5c-9.2-5.3-18.4-10.7-27.5-16 c-13.6-7.9-27.2-15.8-40.8-23.6c-10.5-6-21-12-31.5-18c-11.2-6.5-22.3-13-33.5-19.5c-11.3-6.5-22.6-12.9-33.8-19.4 c-9.8-5.7-19.8-11.1-29.3-17.3c-14.3-9.2-25.3-21.5-33.5-36.5c-6-11-9.8-22.8-11.5-35.1c-0.9-6.3-0.8-12.7-1.1-19.1 c-0.1-1.1,0-2.3,0-3.6c-0.8-0.1-1.4-0.1-2-0.1c-5.3-0.1-5.2-0.1-6.6-5.4c-1.8-7.1-3.7-14.2-5.6-21.3c-0.2,0-0.5-0.1-0.7-0.1 c-2.4,8.9-4.8,17.8-7.2,26.8c-0.8,0-1.5,0.1-2.2,0.1c-14.6,0-29.2,0-43.7,0c-1.8,0-2.6-0.6-3-2.3c-3.8-15.9-7.6-31.7-11.4-47.5 c-3.5-14.6-6.9-29.2-10.4-43.7c-3.1-13-6-26-9.3-38.9c-0.7-2.7,0.4-2.7,2.3-2.7c8.3,0,16.7,0,25,0c8.3,0,16.7,0,25,0 c1.7,0,2.7,0.3,3,2.3c0.6,3.8,1.6,7.5,2.4,11.3c0.1,0.6,0.5,1.2,0.9,2.2c1.2-4.5,2.4-8.6,3.3-12.7c0.5-2.3,1.3-3.1,3.7-3.1 c11,0.1,22,0.1,33,0.1c1,0,2,0,3.4,0c0-1.2,0-2.3,0-3.3c0-32.9-0.2-65.8,0.1-98.7c0.1-14.6,2.9-28.7,8.9-42.2 c6.1-13.8,14.9-25.5,26-35.5c6.9-6.2,14.9-10.9,22.9-15.5c13.6-7.8,27.2-15.8,40.8-23.6c12.5-7.2,25.1-14.4,37.7-21.6 c12.3-7.1,24.6-14.3,36.9-21.4c10.1-5.8,20.3-11.6,30.4-17.5c13.5-7.8,27-15.7,40.6-23.5c8.3-4.8,16.6-9.8,25.1-14.2 c9.8-5.1,20.2-8.7,31.3-9.9c5.6-0.6,11.2-1.5,16.8-1.4c14.2,0.3,28.1,2.6,40.9,9c9.3,4.6,18.2,9.8,27.2,14.9 c8.1,4.6,16.1,9.3,24.1,14c10.2,5.9,20.4,11.8,30.5,17.7c9,5.2,18,10.4,26.9,15.5c9.3,5.3,18.6,10.6,27.8,15.9 c9.2,5.3,18.3,10.7,27.5,16c13.7,8,27.5,15.9,41.2,23.9c8.7,5.1,17.5,9.9,25.8,15.5c11.6,7.8,20.7,18.1,28,30 c5.4,8.8,9.5,18.2,11.8,28.3c1.4,6.2,2.7,12.6,2.8,19c0.4,35.1,0.5,70.1,0.6,105.2C829.8,474.9,829.8,476,829.8,477.4z M346.9,425 c-1.8,9.2-3.5,18.1-5.3,27.3c13.9,1.5,27.2,2.9,40.5,4.3c0,0.3,0.1,0.7,0.1,1c-0.7,0.2-1.4,0.6-2,0.5c-8.6-0.9-17.2-1.9-25.8-2.8 c-4.1-0.4-8.2-0.8-12.8-1.3c-0.3,6-0.6,11.7-0.8,17.4c15.5,0,30.4,0,45.5,0c0.2-22.8,5.7-44,16.9-63.6 c11.2-19.6,26.6-35.3,46.1-46.9c19.4-11.6,40.5-17.7,63.1-18.1c30.4-0.6,57.9,8.2,81.8,27c32.8,25.8,49.1,60,50.2,101.6 c15.1,0,30,0,45.2,0c-0.1-25.6-5.5-50-16.1-73.1c-9.7-20.9-23.1-39.2-40.3-55c-3.4,3.6-6.6,7.1-9.8,10.6c-5.5,6-11,12.1-16.5,18.1 c-0.4,0.4-1.2,0.5-1.9,0.7c-0.1-0.3-0.2-0.5-0.3-0.8c9-9.9,18.1-19.8,27.5-30.1c-7.4-5.7-14.7-11.3-22.1-17c-1.8,2.8-3.3,5-4.7,7.3 c-5.5,8.5-10.9,16.9-16.3,25.4c-1,1.6-1,1.6-2.4,0.6c7.2-11.2,14.4-22.5,22-34.2c-8.4-4.4-16.5-8.6-24.7-13 c-5.5,12.9-10.8,25.2-16,37.6c-0.3-0.1-0.7-0.1-1-0.2c0.1-0.7-0.1-1.5,0.2-2.2c3.3-8,6.7-15.9,10.1-23.9c1.6-3.9,3.3-7.7,5.1-12 c-9-2.9-17.7-5.7-26.5-8.6c-3.2,13.6-6.3,26.7-9.4,39.8c-0.4,0-0.7,0-1.1,0c0-0.9-0.2-1.8,0-2.6c1.5-6.5,3.1-12.9,4.6-19.4 c1.4-5.9,2.7-11.7,4.2-18.1c-9.3-1.3-18.3-2.6-27.5-3.9c-0.1,1.2-0.1,1.8-0.2,2.3c-0.8,12-1.5,24.1-2.4,36.1c0,0.7-0.6,1.4-1,2.1 c-0.2-0.7-0.6-1.4-0.6-2.1c0.7-12.1,1.4-24.1,2.2-36.2c0.1-1.6-0.2-2.3-1.9-2.2c-5.5,0.1-11,0-16.5,0.1c-3,0.1-6.1,0.5-9.2,0.7 c1.5,13.5,2.9,26.7,4.3,39.9c-0.3,0.1-0.5,0.3-0.8,0.4c-0.4-0.5-1-1-1-1.6c-0.9-8-1.7-16-2.6-24.1c-0.5-4.8-1.1-9.7-1.7-14.9 c-9.1,1.8-18,3.5-27.1,5.3c0.2,1.2,0.3,1.9,0.5,2.6c1.8,6.5,3.7,12.9,5.5,19.4c1.5,5.3,3,10.5,4.5,15.8c0.1,0.5-0.2,1.1-0.4,1.7 c-0.4-0.4-0.9-0.7-1.3-1.2c-0.1-0.2-0.1-0.5-0.2-0.7c-2.1-7.5-4.3-15-6.4-22.5c-1.3-4.7-2.7-9.4-4.2-14.6c-8.8,3.3-17.3,6.6-26,9.9 c6,12.5,11.8,24.6,17.6,36.7c-0.3,0.2-0.5,0.4-0.8,0.6c-0.5-0.6-1.3-1.1-1.6-1.8c-3.7-7.5-7.3-15.1-11-22.7 c-1.9-3.9-3.7-7.8-5.8-12.1c-8.1,4.8-15.9,9.4-23.8,14.1c0.8,1.2,1.2,1.9,1.7,2.6c6.7,9.5,13.5,19,20.2,28.5 c0.4,0.5,0.8,1.1,1.1,1.7c0.1,0.3,0,0.8-0.2,1c-0.2,0.2-0.8,0.1-1-0.1c-0.4-0.3-0.6-0.8-0.9-1.2c-4.9-6.9-9.8-13.9-14.7-20.8 c-2.4-3.4-4.9-6.8-7.7-10.7c-7.2,6.1-14.1,12-21.4,18.2c1.2,1,2,1.6,2.6,2.2c8.3,8.3,16.7,16.6,25,24.9c0.7,0.7,2.2,1.5-0.5,3.1 c-9.3-9.5-18.6-19-28.3-29c-6,7.1-11.8,14-17.8,21.1c11.4,8,22.2,15.7,33.1,23.4c-0.6,2.1-1.6,0.9-2.3,0.4 c-6.9-4.8-13.7-9.7-20.6-14.5c-3.6-2.5-7.2-5-11.2-7.8c-4.8,8.1-9.4,16-14.1,24c3.9,1.9,7.3,3.5,10.7,5.1 c8.1,3.9,16.2,7.7,24.3,11.6c0.6,0.3,1.1,1.1,1.6,1.6c-0.2,0.2-0.4,0.4-0.6,0.6c-12-5.7-24.1-11.4-36.7-17.4 c-3.3,8.8-6.5,17.3-9.8,26c1.5,0.4,2.3,0.7,3.2,1c11.3,3.2,22.7,6.4,34,9.6c0.7,0.2,1.2,1,1.8,1.5c-0.7,0.1-1.5,0.3-2.2,0.1 c-3.7-1-7.3-2.1-11-3.1C364.6,429.9,356.1,427.5,346.9,425z M770.8,471.6c0.4-87.3-46.6-179.7-138.9-227.2 c-89.4-46-197.7-35.4-275.9,27.6c-63.4,51.1-94.4,118.4-96.8,199.6c5.2,0,9.8,0,14.4,0c1.1-63.8,22.5-119.5,66.5-165.8 c44-46.3,98.5-71.4,162.3-74.9c57.5-3.1,110.1,12.2,156.2,46.9c64.2,48.4,96.1,113.7,98.4,193.8 C761.5,471.6,766.1,471.6,770.8,471.6z M170.5,491.7c-6.1,22.9-12.2,45.7-18.3,68.5c-0.2,0-0.3,0-0.5,0c-5-22.8-10-45.6-15-68.4 c-7.2,0-14.2,0-21.3,0c0.1,0.5,0,0.9,0.1,1.2c4.4,18.4,8.8,36.8,13.2,55.2c3.5,14.7,7,29.4,10.6,44.1c0.2,0.7,1.1,1.8,1.7,1.8 c7.1,0.1,14.1,0.1,21.3,0.1c6.7-25.1,13.3-50.1,20-75.1c2.2,6.6,4,13.1,5.7,19.7c4.7,17.7,9.5,35.5,14.2,53.2c0.3,1,0.2,2.3,2,2.3 c6.8-0.1,13.7,0,20.7,0c8.3-34.1,16.6-68.2,24.9-102.4c-7.2,0-14.1,0-21.1,0c-5.1,23.3-10.2,46.6-15.3,69.8c-0.1,0-0.3,0-0.4,0 c-5.9-23.3-11.7-46.6-17.6-69.9C187,491.7,178.9,491.7,170.5,491.7z M641.1,491.7c0,34.3,0,68.4,0,102.4c0.4,0.1,0.7,0.1,0.9,0.1 c18.9-0.2,37.8-0.2,56.7-0.6c12.8-0.3,22.2-7.4,26.4-19.3c5.2-14.7-1-28.4-15.6-34.1c-0.4-0.2-0.8-0.4-1.4-0.7 c0.8-0.5,1.3-0.8,1.9-1.1c9.9-6,14.1-17.9,10.4-28.9c-3.4-9.9-12.8-16.8-24.1-17.2c-11.6-0.4-23.1-0.4-34.7-0.6 C654.9,491.6,648.1,491.7,641.1,491.7z M281,594.1c0-14.9,0-29.6,0-44.4c13.5,0,26.7,0,40.2,0c0,14.9,0,29.6,0,44.3 c7.1,0,13.9,0,20.6,0c0-34.2,0-68.2,0-102.2c-6.9,0-13.7,0-20.8,0c0,13.4,0,26.6,0,39.8c-13.6,0-26.8,0-40.2,0c0-13.4,0-26.6,0-39.8 c-7,0-13.8,0-20.7,0c0,34.2,0,68.2,0,102.3C267.1,594.1,273.8,594.1,281,594.1z M363.3,491.8c0,34.3,0,68.3,0,102.3 c26,0,51.8,0,77.7,0c0-5.8,0-11.5,0-17.5c-19,0-37.9,0-56.8,0c0-9.2,0-18.2,0-27.5c17.1,0,34.2,0,51.1,0c0-6,0-11.7,0-17.7 c-17.2,0-34.1,0-51.1,0c0-7.5,0-14.8,0-22.3c18.4,0,36.6,0,54.9,0c0-5.9,0-11.6,0-17.4C413.8,491.8,388.6,491.8,363.3,491.8z M821.9,576.6c-19.1,0-38,0-56.8,0c0-9.2,0-18.2,0-27.4c17.1,0,34.1,0,51.1,0c0-5.9,0-11.6,0-17.6c-17.1,0-34.1,0-51.1,0 c0-7.6,0-14.8,0-22.4c18.3,0,36.5,0,54.9,0c0-5.9,0-11.6,0-17.3c-25.4,0-50.6,0-75.8,0c0,34.1,0,68.1,0,102.2c26,0,51.8,0,77.8,0 C821.9,588.3,821.9,582.6,821.9,576.6z M534.3,509.3c0-6,0-11.7,0-17.4c-25.3,0-50.5,0-75.7,0c0,34.2,0,68.2,0,102.2 c26,0,51.8,0,77.7,0c0-5.8,0-11.5,0-17.5c-19,0-37.9,0-56.8,0c0-9.2,0-18.2,0-27.4c17.1,0,34,0,50.9,0c0-6,0-11.7,0-17.6 c-17.1,0-34,0-50.9,0c0-7.5,0-14.8,0-22.3C497.8,509.3,515.9,509.3,534.3,509.3z M913.4,491.9c-27.3,0-54.3,0-81.3,0 c0,5.8,0,11.5,0,17.4c10.1,0,20.2,0,30.4,0c0,28.4,0,56.6,0,84.7c7.1,0,13.9,0,21,0c0-28.3,0-56.5,0-84.8c10.1,0,20,0,30,0 C913.4,503.3,913.4,497.7,913.4,491.9z M554.5,492.6c0,34,0,67.7,0,101.4c24.1,0,47.9,0,71.8,0c0-5.8,0-11.5,0-17.4 c-17.1,0-34,0-51.2,0c0-28.1,0-56,0-84C568,492.6,561.3,492.6,554.5,492.6z M397.7,471.6c35.4,0,70.8,0,106.1,0 c2.3-7,5.4-10.1,10.5-9.8c2,0.1,4.1,0.9,5.8,1.9c2.9,1.7,4,4.7,4.4,7.9c36.2,0,72.2,0,108.3,0c-0.3-3.3-1.8-5.6-4.7-6.9 c-2.8-1.2-6-1.2-7.9,1.1c-2.2,2.7-4.6,2.4-7.3,2.1c-1.2-0.1-2.5-0.2-3.7-0.2c-20.4-0.8-40.8-1.5-61.2-2.5 c-12.3-0.6-23.2-9.7-25.5-21.9c-1-5.3-0.9-10.9-1.2-16.4c-0.8-18.6-1.6-37.1-2.3-55.7c0-1,0.6-2.4,1.3-3.1c3.3-3.2,3.6-8.2,0.5-11.4 c-3.1-3.3-8.2-3.3-11.4,0c-3.1,3.2-2.8,8.2,0.4,11.4c0.8,0.7,1.4,2.1,1.4,3.1c-0.2,7.7-0.6,15.5-0.9,23.2c-0.6,15.2-1.1,30.5-2,45.7 c-0.7,11.7-10.2,22.6-21.8,24.5c-6.1,1-12.4,0.9-18.7,1.2c-17.9,0.8-35.8,1.6-53.7,2.2c-0.9,0-2.1-0.5-2.7-1.2 c-2.4-2.7-5.3-3.4-8.6-2.5C399.9,465.2,398.1,467.9,397.7,471.6z M690.5,414c15.7-5.2,31.6-10.5,47.7-15.8 c-4.2-12.9-9.4-25.1-15.8-36.9c-15,8-29.8,15.9-44.4,23.7C682.2,394.7,686.3,404.2,690.5,414z M674.1,298.2 c-11.9,13-23.2,25.4-34.3,37.5c7.2,7.8,14.2,15.5,21.3,23.3c13.1-10.2,26.4-20.5,40.3-31.2C692.2,317.8,683.2,308.1,674.1,298.2z M495.4,288.4c0-0.7,0.1-1.5,0-2.3c-1.6-15.2-3.3-30.4-4.9-45.6c-0.2-1.5-0.5-2.1-2.1-1.8c-6,1-12,1.6-18,2.8 c-6.5,1.3-12.9,2.9-19.6,4.5c4.7,16.5,9.3,32.7,13.9,48.6C474.9,292.3,485,290.4,495.4,288.4z M379.2,280.4 c9.9,13.9,19.6,27.6,29.1,41.1c9.1-5.4,18-10.7,27.2-16.1c-7.2-14.9-14.4-30-21.8-45.3C401.6,265.8,390.3,272.5,379.2,280.4z M348.6,392.4c-15-7.2-30.2-14.4-45.3-21.5c-3.7,6.4-12.5,29.4-13.8,35.9c-0.3,1.5,0.3,1.8,1.6,2.1c9.4,2.6,18.7,5.2,28,7.9 c6.2,1.8,12.4,3.5,18.4,5.2C341.2,412,344.9,402.3,348.6,392.4z M615.1,316.8c9.1-14.2,18.2-28.3,27.3-42.4 c-11.4-7.3-23-13.6-35.4-18.8c-6.5,15.2-12.9,30.3-19.2,45.3c-0.2,0.5,0.4,1.7,0.9,1.9c2.9,1.5,5.9,2.7,8.8,4.2 C603.3,310.3,609.1,313.5,615.1,316.8z M529.7,237.5c-1.1,17.1-2.1,33.8-3.1,50.1c10.5,1.6,20.8,3.1,31.2,4.6 c3.8-16.1,7.7-32.5,11.6-49C556.3,240.3,543.3,238.2,529.7,237.5z M323.2,336.6c13.9,9.8,27.6,19.5,41.1,29c6.8-8.1,13.5-16,20-23.7 c-11.7-11.7-23.5-23.6-35.5-35.7C339.5,315.5,331,325.6,323.2,336.6z M697.6,444.2c0.7,9.3,1.4,18.3,2.1,27.4c16.7,0,33.5,0,50.3,0 c0.1-11.8-0.8-23.3-2.6-34.9C730.5,439.2,714,441.7,697.6,444.2z M331,471.6c0.3-6.5,0.7-12.8,1-19.2c-16.9-1.8-33.5-3.5-50.5-5.3 c-0.4,8.3-0.8,16.4-1.2,24.5C297.5,471.6,314.1,471.6,331,471.6z M264.5,344.1c0-8.7-6.6-15.5-15.2-15.4c-8.4,0.1-15,6.8-15,15.4 c0,8.3,6.8,15,15.1,15C257.8,359.2,264.5,352.5,264.5,344.1z M800.9,343.9c0-8.4-6.9-15.3-15.3-15.2c-8.6,0.1-15.1,7-15,16.1 c0,7.5,7.2,14.4,15.1,14.4C794.1,359.2,801,352.3,800.9,343.9z M513.3,790.1c-8.4,0.1-15,6.7-15,15.1c0,8.5,6.7,15.2,15.2,15.1 c8.5-0.1,15.1-6.8,15-15.4C528.5,796.5,521.8,790,513.3,790.1z"></path> <path style="fill:#FFFFFF;" d="M662,576.2c0-8.6,0-17.4,0-26.5c1.8,0,3.5,0,5.2,0c8.3,0.2,16.6,0.1,24.9,0.5 c9.5,0.5,14.9,7.9,12.6,17.1c-1.1,4.6-5.5,8.7-10.6,8.8C683.6,576.4,672.9,576.2,662,576.2z"></path> <path style="fill:#FFFFFF;" d="M662.1,508.9c7,0,14-0.1,21,0c3.3,0.1,6.7,0.2,9.9,0.8c4.8,0.8,7.8,4.1,8.4,8.7 c0.7,5.3-1.2,9.7-5.5,11.8c-2,1-4.4,1.9-6.6,1.9c-9,0.2-18,0.1-27.1,0.1C662.1,524.5,662.1,516.9,662.1,508.9z"></path> </svg> 