<?xml version="1.0" encoding="UTF-8"?> <svg xmlns="http://www.w3.org/2000/svg" xmlns:xlink="http://www.w3.org/1999/xlink" version="1.1" id="Layer_1" x="0px" y="0px" viewBox="0 0 1000 1000" style="enable-background:new 0 0 1000 1000;" xml:space="preserve"> <g> <g> <path style="fill:#FFFFFF;" d="M507.9,49c-169.5,0-307.4,137.9-307.4,307.4v585.9c0,5.3,4.3,9.7,9.7,9.7h595.6 c5.3,0,9.7-4.3,9.7-9.7V356.4C815.3,186.9,677.4,49,507.9,49z M592.4,688.9c0,46.6-37.9,84.6-84.6,84.6 c-46.6,0-84.6-37.9-84.6-84.6v-48.3c0-36.4-17.7-70.1-47.5-90.2c-68-46.1-106.7-122.6-103.4-204.8 c4.8-121.9,104.1-221.2,226-225.9c3.2-0.1,6.4-0.2,9.5-0.2c61.3,0,118.9,23.2,163.2,65.8c46.6,44.9,72.3,105.2,72.3,169.9 c0,77.9-38.5,150.8-103,194.8c-30.1,20.6-48.1,54.5-48.1,90.7V688.9z"></path> <path style="fill:#FFFFFF;" d="M507.9,455.9c-34.1,0-61.8,27.7-61.8,61.8v169.8c0,34.1,27.7,61.8,61.8,61.8 c34.1,0,61.8-27.7,61.8-61.8V517.7C569.6,483.6,541.9,455.9,507.9,455.9z"></path> <path style="fill:#FFFFFF;" d="M478.2,349.4c6.2-10.4,6.5-23.1,0.7-33.8c-17.5-32.6-51.5-51.9-88.4-50.4 c-33.7,1.3-64.6,20.7-80.7,50.7c-5.7,10.6-5.4,23.1,0.8,33.5c6.2,10.5,17.2,16.7,29.4,16.7h108.8C461,366.1,472,359.8,478.2,349.4 z"></path> <path style="fill:#FFFFFF;" d="M705,349.4c6.2-10.4,6.5-23.1,0.7-33.8c-17.5-32.6-51.4-51.9-88.4-50.4 c-33.7,1.3-64.6,20.7-80.7,50.7c-5.7,10.6-5.4,23.1,0.8,33.5c6.2,10.5,17.2,16.7,29.4,16.7h108.8 C687.8,366.1,698.8,359.8,705,349.4z"></path> </g> </g> </svg> 