<?xml version="1.0" encoding="UTF-8"?> <svg xmlns="http://www.w3.org/2000/svg" xmlns:xlink="http://www.w3.org/1999/xlink" version="1.1" id="Layer_1" x="0px" y="0px" viewBox="0 0 1000 1000" style="enable-background:new 0 0 1000 1000;" xml:space="preserve"> <path style="fill:#FFFFFF;" d="M909.6,609.9c-1.7,7.2-3.4,14.5-5.1,21.7c-11.4,47.7-44.1,69.3-90.9,75.2 c-49.2,6.1-97.4,5-142.9-17.5c-28.2-13.9-32.2-25.8-20.1-53.8c12-27.8,23.9-55.6,37.4-86.9c-22.5,0-41.6,0-60.6,0 c-0.8-45.9,35.1-91.3,82.6-104.4c47.7-13.2,96.1-12.2,144.1-0.9c23.5,5.5,38.6,25,36,43.8c-0.6,4.6-1.9,9.9-4.7,13.4 c-13.6,16.8-60.1,26.9-81.2,18.3c-24.4-9.9-30.4-24.3-19-52c-7.4,1.1-14.5,0-18.2,3c-10.1,8.3-15.6,54.9-8.7,67.9 c-4.7,2.7-9.5,5.3-14.2,8c0.3,1.3,0.6,2.6,0.9,3.9c3.9-0.3,7.8-0.4,11.7-1c20.4-3.1,40.7-7,61.1-9.5c34.6-4.2,60,10.6,78.7,39 c3.6,5.5,8.6,10,13,15C909.6,598.8,909.6,604.3,909.6,609.9z M804.1,627.7c-4.8-12.8-9.1-31.5-18.9-46.8c-4.1-6.4-20.1-7.4-30.3-6.4 c-3.8,0.4-9.2,13.5-9,20.7c0.8,28,4.4,55.9,5.2,83.9c0.5,16,13.4,20.1,22.4,20.3c6.9,0.2,17.4-10.6,20.4-18.7 C799.3,666.1,800.2,650,804.1,627.7z"></path> <path style="fill:#FFFFFF;" d="M532.9,739.1c-2.7-25.6,7.7-40.3,34.6-42.3c3.2-0.2,6.1-4.9,6.5-5.3c-22.4-41.5-17.9-86.5-29-130.1 c15,0,27.1,0,41.3,0c2.5,29.8,4.9,59.2,7.4,88.6c1.4,0.5,2.8,0.9,4.2,1.4c10.4-29.5,20.8-58.9,31.8-90.1c10.5,0,24.7,0,41.7,0 c-13.4,30.6-26.3,60.5-39.6,90.4c-3.9,8.8-9.9,16.9-12.8,26c-11.5,36.2-36.3,55.8-73.3,61.3C541.2,739.1,537.1,739.1,532.9,739.1z"></path> <path style="fill:#FFFFFF;" d="M340.6,399.4c3.8-16.6,7.2-31.2,10.4-45.9c2.6-11.5,3.7-23.6,7.7-34.5c3-8,8.7-15.9,15.3-21.3 c2.5-2.1,14.5,1.6,15.8,5c2.4,6.6,2.7,16.1-0.3,22.3c-13,26.7-13.9,54.9-10.6,83c3.5,30.3,49,57,81,49.8c41-9.3,68-54.3,57-94.9 c-4.1-15.2-8.9-30.2-11.7-45.6c-1-5.6,2.9-12.1,4.5-18.1c7.1,2.2,18.5,2.6,20.4,7c7.8,17.8,11.8,37.3,18.7,55.6 c26.8,70.4-29,128.5-79.8,137c-45.2,7.6-83.4-8.5-111.1-42.2C346.1,442.2,345.9,418.4,340.6,399.4z"></path> <path style="fill:#FFFFFF;" d="M471.3,507.3c0,18.6,0,35.7,0,52.7c42.7-10,59.1-7.2,67,11.5c8.5,20.3-1.8,40.9-30.9,59.6 c6.8,16.7,13.7,33.8,22.4,55.2c-16.2-1.5-36.1,2.2-42-5.2c-11.5-14.3-15.5-34.7-21.3-53c-0.6-1.9,7.6-6,11-9.8 c7.7-8.6,15.1-17.5,21.9-26.7c0.3-0.5-8-8.5-8.4-8.1c-10.3,8-24.1,15-28.9,25.8c-6.5,14.6-6.1,32.3-8.6,48.6 c-1.4,8.7-2.7,17.4-4.2,26.8c-13.1,0-24.8,0-41.1,0c6.2-44.5,12.1-87.7,18.2-130.9c0.5-3.4,1.8-6.7,2.2-10.1 C433,508.1,433.5,507.6,471.3,507.3z"></path> <path style="fill:#FFFFFF;" d="M253.9,564.3c11.3-0.7,20.7-1.2,34.1-2c-5.2,41.5-10.1,80.3-15.1,120.3c-13.4,0.2-28.3,11.9-35-10.8 c-6.4,4.4-12.3,11.4-18.9,12.3c-12.3,1.6-26.5,2.7-37.3-1.9c-12.2-5.2-13-18-9.9-32.3c6-27.6,8.6-55.9,12.7-84.5 c11.9-1.1,21.9-1.9,34.4-3.1c-3.4,32.7-6.7,63.8-10,95.2c21.8-0.1,32-11.3,35.7-35.7C247.2,603.5,250.5,585.2,253.9,564.3z"></path> <path style="fill:#FFFFFF;" d="M72.2,519.4c13.1,0,22.8-0.1,32.5,0.1c2.6,0.1,5.2,1.2,10.6,2.4c-6.7,43.7-13.4,86.8-20.4,132.4 c21.7,0,40.2,0,58.7,0c-0.7,30.6-1.2,31.1-28.1,31.1c-24.2,0-48.3,0-76,0C57.2,629.1,64.6,575.4,72.2,519.4z"></path> <path style="fill:#FFFFFF;" d="M409.1,571.8c-7,12.2-12,23.7-31,14.7c-12.5-5.9-25.9-0.1-30.3,14c-4.2,13.5-7,28.1-6.9,42.2 c0.1,13.2,10.1,19.2,23.5,16c6.6-1.6,12.8-4.4,20.4-7.1c4.2,7.8,8.1,14.9,11.8,21.7c-36,29.1-85.6,17.1-96.3-21.9 c-6.2-22.4,9-66.3,28.1-81.2C347.2,555.5,382.8,555.9,409.1,571.8z"></path> </svg> 