<?xml version="1.0" encoding="UTF-8"?> <svg xmlns="http://www.w3.org/2000/svg" xmlns:xlink="http://www.w3.org/1999/xlink" version="1.1" id="Layer_1" x="0px" y="0px" viewBox="0 0 1000 1000" style="enable-background:new 0 0 1000 1000;" xml:space="preserve"> <path style="fill:#FFFFFF;" d="M292,266.6c3-10.6,5.8-20.9,8.9-31c5.7-18,11.3-35.9,17.5-53.8c9-26.1,26.7-44.6,51.1-57.1 c18.5-9.5,38.2-15.2,58.4-19.6c22.9-5,46.1-8.1,69.4-10.2c5.1-0.5,10.4,0.8,15.6,1.4c22.7,2.7,45.3,6,67.4,11.6 c17.2,4.4,34,10,49.6,18.5c22.8,12.4,38.7,30.6,47.8,55c9.4,25.3,16.6,51.3,24.1,77.2c0.7,2.4,1.4,4.8,2.3,7.8 c78.9-43.6,163.3-70,252.2-84.9c-3.5,5.1-6.7,9.7-9.8,14.2c-26.5,38.2-53.1,76.4-79.4,114.8c-40.5,59.3-79.9,119.3-116.5,181 c-23.2,39-45.4,78.5-63.5,120.2c-6.3,14.4-11.8,29-15.9,44.2c-0.2,0.8-1.1,2-1.8,2.1c-16.9,2.5-29.3,12-39,25.5 c-11.3,15.6-17.2,33.4-20.3,52.2c-2.1,12.6-2.6,25.2-0.5,37.9c1.6,9.3,2.9,18.5,2.3,28c-0.8,12.6-5.3,23.5-14.1,32.6 c-1.6,1.7-2.3,3.4-2.4,5.6c-1.1,24-14.3,40.9-32.5,54.7c-18.9,14.2-39.9,23.9-62.8,29.8c-1.3,0.3-2.9,0.3-4.2,0 c-20.7-5-40.3-12.5-57.6-25.2c-20.5-15-33.6-34.7-37.6-60.1c-0.2-1.6-1.1-3.3-2.3-4.5c-12.4-12.9-15.7-28.5-14.1-45.6 c0.9-9.5,2.9-19,3.2-28.5c0.7-25.5-5.1-49.5-18.3-71.5c-6.5-10.9-14.9-20.2-26.6-25.6c-4.9-2.3-10.4-3.4-15.6-5.1 c-0.8-0.3-1.9-1-2.1-1.7c-10.8-39.2-29.3-75.1-48.6-110.5c-43-78.8-92.1-153.8-142.5-228c-30.4-44.7-61.4-89-92.1-133.5 c-0.5-0.8-1.1-1.6-1.9-2.8C128.6,196.6,213,222.9,292,266.6z M406.3,341.1c-0.7-0.6-1.3-1.3-2-1.9c-4.6-4.1-9.1-8.4-14-12.2 c-12.7-9.9-26.7-17.1-43.2-18.3c-18.4-1.4-36,9.2-42.4,25.9c-5.4,14-0.9,28,11.4,35.5c4,2.4,6.1,2.4,9.8-0.5c1.4-1.1,2.6-2.4,4-3.3 c3.4-2,6.7-4.4,10.4-5.4c6.3-1.8,12.6-0.2,18.1,3.1c6.7,4.1,13.5,8.2,19.2,13.4c14.2,12.9,27.8,26.4,41.7,39.6 c4.1,3.9,8,8.2,12.4,11.8c6.3,5.2,13.7,7.6,22,6.1c12.6-2.4,21.4-14.3,19.9-27.7c-0.7-5.8-2.7-11.5-4-16.7c7.3,7,10.9,17,15.1,26.7 c9-3.3,17.8-3.2,26.6,0c4.1-9.6,7.7-19.3,15.4-26.6c-0.8,2.8-2,5.4-2.8,8.1c-2.8,9.4-2.4,18.4,3.4,26.6c8.1,11.4,23.5,13.3,35.8,4.4 c3.6-2.6,6.7-5.8,9.8-9c15.2-15.3,30-31,46.9-44.7c6.8-5.5,13.7-10.9,21.9-14c8.7-3.3,16.9-2.5,24.1,4c1.5,1.4,3.1,2.6,4.7,3.9 c2.8,2.2,5.7,2.3,8.9,0.4c10.9-6.4,16-18.1,13.4-30.5c-3.6-17.5-20.9-32.7-44.4-31.1c-13.2,0.9-25.2,5.6-35.7,13.4 c-16.8,12.5-33.2,25.7-49.7,38.6c-4.2,3.3-8.4,6.6-13,10.3c3.7-7.7,7.3-14.6,10.4-21.8c14.1-32.7,22.4-66.5,19.5-102.4 c-1.8-22.1-8.2-42.7-19.8-61.6c-15-24.3-36.1-42.2-60.6-56.3c-1.2-0.7-3-0.7-4.5-0.5c-18,2.6-36,4.9-53.9,8.1 c-18.4,3.3-36.4,8.2-53.4,16.2c-18.3,8.6-31.5,21.7-38.6,41.2c-8.2,22.6-14.9,45.6-21.4,68.6c-1.7,5.9-3.4,11.8-5.1,18 c19,1,36.1,6.5,51.1,17.6C388.7,309.2,399.5,323.6,406.3,341.1z M315.1,397.8c-13.4,17.8-18.5,37-13.2,58.4 c4.7,18.8,14.4,35.1,25.8,50.6c0.1,0.1,0.3,0.1,0.3,0.1c1-3.5,1.6-7,3-10.3c2.9-6.9,8.2-9.6,15.6-8.7c7.2,0.9,13.1,4.6,18.4,9.2 c7.2,6.3,14.2,12.8,21.2,19.4c24.2,22.8,51.6,40.6,82.1,53.9c0.7,0.3,1.4,0.5,2.4,0.8c-0.5-8.1-1.8-15.7-6.2-22.3 c-3.1-4.7-7.4-7.8-13.2-8.6c-1-0.1-2.2-1.2-2.8-2.1c-5.4-7.8-7.3-16.6-6.2-25.9c0.3-2.5,1.1-4.9,1.6-7.3c0.8,8.6,2.2,16.8,7.5,23.8 c7-6,11.7-3.9,15.3-0.1c1.8,2,3.7,4.1,4.8,6.5c3.2,7.5,6.4,15.1,8.7,23c1.7,5.9,2.4,12.1,3.1,18.3c0.8,7.1,6,11.9,13.8,12.3 c8.4,0.4,14.3-4,15.5-11.2c1.4-8.2,2.6-16.4,4.6-24.4c2.1-8.3,5.2-16.2,10.8-22.9c5.2-6.3,9.8-6.7,16.2-1.6c0.1,0.1,0.3,0.1,0.7,0.2 c4.9-7.2,6.7-15.3,6.5-23.9c-0.1-7.4-3.3-12.1-9.7-14.1c-6.7-2.1-14.7,0-18.1,5.6c-2.5,4.1-4.1,8.7-5.9,13.1c-0.9,2.2-1.3,4.6-2,7 c-0.3,0-0.5,0-0.8-0.1c0-2,0-4,0-6c0.2-11.5,0.6-23,6.1-33.7c0.4-0.7,0.4-1.7,0.3-2.5c-1.5-12-11.6-21-23.3-21 c-11.7,0-21.8,9.3-23.1,21.2c-0.1,0.7,0,1.6,0.4,2.2c6.5,12.8,6.1,26.6,5.6,40.5c-0.6-1.6-1-3.3-1.4-4.9c-2.9-12-6.9-23.6-14.8-33.4 c-6.7-8.3-15-13.7-26.1-13.3c-1.5,0-3.3,0.7-4.3,1.7c-12.4,11.9-27.6,15.5-44.3,14.8c13.9-4.4,23.5-13.4,29.8-26.8 c-21.8,1.3-42.4-1.5-61.5-11.7C338.8,433,324.8,417.7,315.1,397.8z M257.9,434.3c-0.1,0.1,0.1,0,0.1-0.2 c8.3-41.6,16.7-83.2,25-124.8c0.3-1.7-0.2-2.6-1.7-3.4c-41.8-24.1-85.1-45.1-130.4-61.9c-6.8-2.5-13.6-4.8-20.2-7.1 C173.1,302.8,215.5,368.6,257.9,434.3z M433.5,833.7c0.9,5.8,3.3,11.4,6.6,16.6c11.3,17.4,26.6,29.9,45.6,38.1 c8.9,3.9,17.5,3.6,26.3-0.4c14.9-6.8,27.3-16.8,37.7-29.3c5.1-6.1,9.4-12.8,11.7-20.5c0.5-1.6,0.7-3.3,1.1-5.1 c-7.5-1.3-14.4-3.2-21-7.5c1.2-0.3,2-0.5,2.7-0.7c8.2-2,16.3-4.2,23.6-8.6c8.2-5,11.7-12.3,11.2-21.7c-0.1-2.3-0.5-4.6-0.8-6.9 c-1.7-11-4.2-21.9-3.7-33.1c0-0.1-0.3-0.1-0.5-0.3c-3,6.8-3.6,13.9-4.3,21.2c-0.3,3-1.1,6.6-2.9,8.8c-2.8,3.4-6.4,6.5-10.2,8.7 c-11,6.3-23.3,8.1-35.8,8.7c-9.8,0.5-19.7,0.5-29.6,0.2c-10.4-0.3-20.9-0.8-31.2-2.1c-9.6-1.2-18.9-4.3-26.7-10.6 c-4.8-3.8-7.3-8.7-7.6-15c-0.2-4.6-1-9.2-1.8-13.8c-0.4-2.3-1.5-4.4-2.3-6.6c-0.4,2.8-0.2,5.4-0.5,8c-1.2,9.4-2.7,18.7-3.9,28.1 c-1.8,14,1.6,22.3,15.1,28.6c4.3,2,8.9,3.3,13.3,4.8c2.7,0.9,5.5,1.5,8.3,2.2c0.1,0.4,0.1,0.7,0.2,1.1 C447.5,828.9,440.7,831.2,433.5,833.7z M558.4,607c1.5,0.8,3.4,2,5.5,2.7c5.5,1.8,10.7,1.7,14.8-3.2c2.5-3,5.2-5.7,7.4-8.9 c10.5-14.8,16.7-31.5,21.2-49c1.2-4.6,2-9.3,3-13.9c-2.8,1.6-5,3.5-7.2,5.4c-9.6,8.6-19,17.5-30.6,23.3 c-15.3,7.6-30.9,14.7-46.3,22.1c-1.4,0.7-2.9,1.9-3.7,3.3c-10.8,18.2-38.2,18.1-48.9-0.1c-0.7-1.2-2-2.4-3.3-3c-4.4-2.1-9-4-13.5-6 c-23.4-10-45.9-21.6-64.1-39.9c-1.9-1.9-4.1-3.7-6.6-5.8c0.1,1,0.1,1.4,0.1,1.8c3.2,18.5,9,36.2,18.1,52.7 c4.1,7.4,8.8,14.4,15.4,19.8c1.4,1.2,3.5,2,5.4,2.2c4.9,0.6,9.3-1.1,13.3-4.3c0.4,1.2,0.7,2.2,1,3.2c2.3,6.6,5.3,12.8,11.5,16.6 c1.5,0.9,3.9,1.2,5.7,0.9c4.8-0.9,8.5-4,11.7-8.1c0.2,1,0.4,1.7,0.4,2.3c1,7.6,5.2,12.9,11.6,16.8c1.9,1.2,3.7,1.4,5.8,0.5 c5.7-2.2,9.9-5.9,12.1-12.2c2.3,6.7,6.8,10.5,12.9,12.4c1.1,0.3,2.6,0.4,3.6-0.1c6-2.9,10.3-7.5,12.3-13.9c0.5-1.8,0.7-3.6,1-5.2 c1.3,1.2,2.5,2.4,3.9,3.4c8.9,6.5,12.5,6.4,18.6-1.4C553.6,617.2,555.7,612,558.4,607z M865.8,237.4c-0.1-0.2-0.2-0.3-0.2-0.5 c-1,0.3-1.9,0.6-2.9,1C811,255.3,762.2,278.7,715,305.8c-1.7,1-2.2,1.8-1.8,3.9c4.7,22.8,9.2,45.7,13.7,68.5c0.9,4.7,1.9,9.3,3,14.5 c18.5-20.5,36.5-40.5,54.5-60.5c-0.1-0.2-0.2-0.4-0.3-0.6c-12.9,3.1-25.7,6.3-38.6,9.4c-0.1-0.1-0.2-0.3-0.2-0.4 C785.4,306.1,825.6,271.7,865.8,237.4z M667.9,507c0.4-0.3,0.6-0.4,0.8-0.7c9.4-12.8,17.4-26.3,22.8-41.2c7.3-20,6.2-39.3-4.2-57.9 c-1.8-3.1-4-6.1-6.3-9.6c-9.8,20.1-23.7,35.3-42.8,45.6c-19.1,10.3-39.7,13.2-61.5,11.8c3.4,7.9,8.2,14.1,14.6,19 c5.9,4.5,12.4,8.4,20.1,8c13.3-0.7,26.6-1.9,39.9-3.2c7-0.7,10.5,1,12.3,7.9C665.2,493.4,666.4,500.1,667.9,507z M472.6,750.5 c-0.7-1-1.2-2-2-2.7c-3.2-3-6.4-6-9.8-8.9c-1.7-1.4-3.5-0.9-5.4,0.1c-5,2.9-8.1,8.6-6.7,14.3c2,7.9,4.6,15.7,7.1,23.5 c1.8,5.6,6,9,11.4,10.7c2.8,0.9,5.8,1.8,8.8,1.9c13.2,0.3,26.3,0.5,39.5,0.5c3.6,0,7.3-0.8,10.9-1.7c6.3-1.5,11.5-4.8,13.6-11.4 c2.5-7.5,5-15,6.9-22.7c1.4-5.5-0.3-10.4-4.8-14c-3.3-2.7-5.1-3-8.5-0.4c-3.1,2.4-5.7,5.4-8.5,8.3c-0.7,0.7-1.2,1.6-1.9,2.5 c-9.9-8.9-15.3-9.6-25.4,1.6C488.1,741,482.6,741.5,472.6,750.5z M434.3,733.4c0.1-0.1,0.2-0.2,0.3-0.2c0-0.4-0.1-0.8-0.1-1.1 c-4.1-21.4-10.1-42.3-17-63c-18.6-55.6-42.2-109.1-67.7-161.8c-0.2-0.4-0.6-0.8-0.9-1.1c-0.2,0.1-0.3,0.2-0.5,0.2 c9.6,30.6,19.1,61.3,28.7,91.9c-0.1,0.1-0.3,0.1-0.4,0.2c-6.8-7.9-13.7-15.7-20.5-23.6c-0.1,0.1-0.3,0.2-0.4,0.3 c3.9,14,7.8,28,11.7,42c-0.2,0.1-0.3,0.1-0.5,0.2c-10.8-11.4-21.6-22.8-32.5-34.2c-0.1,0.1-0.2,0.2-0.4,0.4 c20.9,29.9,41.8,59.8,62.8,89.9c-9-23.9-17.9-47.7-26.8-71.4c0.3-0.1,0.7-0.3,1-0.4C392.2,645.5,413.2,689.4,434.3,733.4z M648,505.6c-0.2-0.1-0.4-0.1-0.6-0.2c-0.4,0.8-0.9,1.7-1.3,2.5c-14.1,31.2-28.6,62.2-42,93.7c-14.9,35-27.8,70.7-37.3,107.6 c-2.1,8.3-3.8,16.7-5.7,25c0.1,0,0.2,0,0.3,0c21.1-44.1,42.3-88.2,63.4-132.3c0.3,0.2,0.7,0.3,1,0.5c-8.9,23.8-17.9,47.6-26.7,71.1 c21-30.1,42.1-60.3,63.2-90.5c-0.1-0.1-0.2-0.2-0.3-0.2c-11,11.6-22,23.1-33,34.7c-0.1-0.1-0.3-0.2-0.4-0.3 c3.9-13.9,7.8-27.9,11.7-41.8c-0.2-0.1-0.4-0.2-0.5-0.3c-6.7,7.8-13.5,15.5-20.2,23.3c4.3-15.6,9.1-31,13.9-46.4 C638.3,536.5,643.1,521,648,505.6z M347.3,374.2c1,20.1,5.6,38,20.3,51.6c14.3,13.4,32,15.9,51.1,14.9c-0.7-1-1.1-1.6-1.6-2.1 c-10.3-10.9-20.3-22.1-31-32.5c-10-9.7-20.9-18.7-31.5-27.8C352.6,376.7,350.1,375.8,347.3,374.2z M577.2,440.7 c19.8,1.1,38-1.7,52.3-15.9c13.7-13.6,18.4-30.9,19.1-50.5c-2.4,1.3-4.3,2-5.9,3.2c-4.3,3.1-8.6,6.3-12.6,9.8 c-17.7,15.2-33.5,32.4-49.3,49.5C579.7,437.9,578.7,439.1,577.2,440.7z"></path> </svg> 