<?xml version="1.0" encoding="UTF-8"?> <svg xmlns="http://www.w3.org/2000/svg" xmlns:xlink="http://www.w3.org/1999/xlink" version="1.1" id="Layer_1" x="0px" y="0px" viewBox="0 0 1000 1000" style="enable-background:new 0 0 1000 1000;" xml:space="preserve"> <path style="fill:#FFFFFF;" d="M846.8,730.1c0,58.5,0,116.4,0,174.8c4.5,0,8.9-0.1,13.3,0c7.2,0.2,14.5-0.4,21.6,0.9 c15,2.6,24.4,16.2,23.1,31.8c-1.2,14-13.7,25.7-28.2,26.1c-1.3,0-2.6,0-3.9,0c-213.3,0-426.6,0-639.9,0c-73.2,0-135-53.6-145.2-126 c-1-6.8-1.3-13.8-1.3-20.7c0.1-133.9,0.2-267.8,0.3-401.7c0.1-79.9-0.8-159.9,0.3-239.8c0.8-61.2,29.9-105.9,84.8-133.2 c19.5-9.7,40.6-13.6,62.4-13.6c213.1,0,426.3,0,639.4,0c19,0,31.3,12.4,31.3,31.5c0,212.9,0,425.7,0,638.6 c0,19.2-12.2,31.3-31.3,31.4C864.8,730.1,856,730.1,846.8,730.1z M845.8,87.5c-1.8,0-3.1,0-4.4,0c-202.7,0-405.5,0-608.2,0.1 c-5,0-10.1,0.4-15.1,1.3c-43.1,8-72.6,43.4-72.6,87.4c0,173.3,0,346.6,0,519.9c0,1.4,0.1,2.7,0.2,4.5c1.1-0.6,1.7-0.8,2.3-1.2 c27.8-19.9,59-28.5,93.1-28.5c199.7,0.1,399.4,0.1,599.1,0.1c1.8,0,3.6,0,5.6,0C845.8,476.4,845.8,282.2,845.8,87.5z M787.5,730.1 c-2.4,0-4.2,0-6.1,0c-181.8,0-363.6,0-545.4,0c-22.2,0-42.1,6.9-58.9,21.4c-25.4,22-36.8,49.9-30.2,83.1 c8.4,42.7,43.6,70.3,87.4,70.3c182.8,0,365.6,0,548.4,0c1.5,0,3.1,0,4.8,0C787.5,846.5,787.5,788.5,787.5,730.1z"></path> </svg> 