<?xml version="1.0" encoding="UTF-8"?> <svg xmlns="http://www.w3.org/2000/svg" xmlns:xlink="http://www.w3.org/1999/xlink" version="1.1" id="Layer_1" x="0px" y="0px" viewBox="0 0 1000 1000" style="enable-background:new 0 0 1000 1000;" xml:space="preserve"> <g> <path style="fill:#FFFFFF;" d="M940.3,281.7c-5.7-75-156.9,3-344.3,7.9c34.5-3.4,73.2-9.1,106.9-16.8 c-33.5-131-5.4-163.6-118.3-238.4c-10.8-8-25.5-10.4-38.2-4.9c-10.8,4.2-28.1,19.3-53.9,19.1c-39.2,0-60.9-38-93.1-17 C292.1,103.9,315,142.5,287.3,259.8c19.4,3.9,43.8,8.3,63.5,11.3c-20-1.3-44.8-3.6-64.8-5.8c-0.4,1.8-0.9,3.6-1.3,5.4 c20.5,4.8,40.4,8.8,61.3,12.5c24.2,4.3,48.6,7.8,73.1,10.3c-24.6-0.7-49.3-2.4-73.8-5c-95.6-9.8-122.3-23.1-206-34.7 c-13.5-1.9-27.2-3.3-41-4c-28.9-2.5-49.4,5.6-51.4,31.7c-5.5,72.3,93.2,138.7,230.5,172.5c0.1-12.6-0.7-24.8,1.3-42.7 c1.5,19.2,4.8,30.6,7.2,44.8c1.8,10.4,3.1,20.8,8.4,29.8c8.1,13.7,26.6,14.8,34.4,2.6c4.4,46,3.7,75.3,35.6,117.9 c2.4,5.8,17.5,41.4,32,56.8c15.6,16.5,41.1,27.2,65,27.2h64.6c23.8,0,49.3-10.7,65-27.2c14.5-15.4,29.6-51,32-56.8 c31.9-42.6,31.2-71.8,35.6-117.9c7.8,12.2,26.3,11.1,34.4-2.6c6.4-10.8,6.2-20.5,11.4-47c1.8-9.1,3.2-18.3,3.9-27.6 c2,18,1.2,30.1,1.3,42.8C847,420.4,945.8,354,940.3,281.7z M319.6,239.3c0.2-5.9,0.9-11.9,1.7-18.1c1.1-9,2.3-18.2,1.9-27.3 c-1.9,8.9-5.3,17.1-8.7,25.5c-1.7,4.2-3.5,8.5-5,12.9c1.5-11.4,2.9-22.9,4.2-34.4c0.9-8.2,1.6-16.5,2.4-24.7l1-12.3 c4.5-55,39.7-92.6,85.9-123.9c22.8-14.6,39,10.1,60.6,20.6c21.7,12.3,44.2,10.3,55.1,31.6c-3.2-11.8-10.6-18.7-20.9-25.2 c34.8-2.6,44.4-27.9,62.8-31.1c7.4-1.2,15.1,0.8,21.5,5.5c97.9,66.9,84.3,102.1,97,199.8c-2,0.2-12.5-73.5-14.6-73.3 c-2.5,0.3,3.4,74.5,0.9,74.8c-2.4,0.2-5.5-30.7-7.9-30.5c-2.5,0.3-1.8,31.5-4.3,31.7C544.7,251.3,431.7,250.5,319.6,239.3z M579.1,509c3.7-0.3,7.4-0.9,10-0.3c22.7,5,31.7,38.9,23.8,67.8c-14.6,53.5-45.6,71-59.6,71.9c-6.1,0.4-11.8,3.1-15.8,7.7 c-16.2,18.7-35.9,14.2-39.2,9.7c-1.7-2.3-2.9-6.9-4.8-7.9c-1.9,1-3,5.5-4.8,7.9c-3.3,4.5-23,9-39.2-9.7c-4-4.6-9.7-7.4-15.8-7.7 c-14-0.9-45-18.3-59.6-71.9c-7.9-28.9,1.1-62.8,23.8-67.8c3-0.7,6.5,0.1,10.1,0.1c-26.4-35.6-49.7-8.1-76.2-44.8 c-3.6-5-6.9-15.1-8.6-26.1c3.7,10.8,8.6,20.9,16.5,29.3c-5.5-10.4-7.7-21.4-8.3-33.1c56.3-15.9,55.1,8.3,101.5-2.9 c-5.2,3.9-11,7.3-16.8,10.6c10.5-3.1,20.1-5.9,29.1-12.1c-2.8,3.3-12.6,13.2-37.2,23.4c69.9-6.8,62.6-39.8,85.4-40.4 c3.8-0.1,7.1,0.6,10,1.8c3.2,44.5,22.4,65.9-5.2,71c-20,2.9-17.8-1.7-29.8-0.7c6.1,0.6,10.1,6.8,13.6,9.9c-1.3,0.4-2.6,0.8-3.9,1.2 c-2.4-3.1-8.6-7-14.2-8.4c-9-2.4-13.1,3-11,6.3c-3.9-1.2-5.1-1.6-5-6.8c0.1-9.1-2.2-10.8-4.3-1.9c-3.5,14.8,6.3,19.2,26.5,22.1 c6.3,0.9,11.3,5.7,12.4,11.9c1.3,7.3,0.7,11.5,3.8,16.4c3.4-3.4,2.4-19,6.9-21.7c3.3,4.6,0.5,25.5,5.1,29.7 c4.1-4.6,4.5-14.7,5.8-25.3c0.7-5.5,5-9.7,10.5-10.3c22.5-2.6,31.6-9,28.3-22.8c-2.1-8.9-4.3-6-4.3,1.9c0,4.9-0.9,5.5-5,6.8 c0.5-0.8,0.7-1.5,0.6-2.3c-2-9.3-20.1-2.8-25.7,4.4c-1.3-0.4-2.6-0.8-3.9-1.2c0.8-0.7,1.6-1.6,2.4-2.3 c11.9-11.5,22.1-4.4,14.2-27.8c-7.4-22-10.5-34.3-15.3-48.9c16.6,8.8,25.4,34.4,77.3,37.4c-6.6-3.6-25.8-11-34.3-19.5 c10.4,3.6,20.9,6.3,31.5,7.9c-5-2.5-9.7-5.2-14.4-8.1c15.4,1.4,33.7-4.7,30.2-3.7c23.9-6.6,42.7-4.1,59.5,0.6 c1.1,6.8,1.2,13.9,0.3,21.2c3-4.5,5.6-9.5,7.8-14.8C655.1,502,600.4,466.5,579.1,509z M696.3,323.3c-31.7,16-64.1,30-98.2,38.5 c-34,8.8-69.2,12.1-104.5,12.3c-130.5-0.8-189.7-47-277.8-86.7c32.2,8.5,63.7,20.5,93.7,35.9c-23.2-15.6-47.9-29.1-73.8-40.4 c17.7,3,35.5,6,53.3,8.7c33.8,5.3,67.8,9.6,102,12.4c34.1,3.1,68.4,4.5,102.6,4.2c95,0.7,177.9-11.5,266.4-26.8 c-14.8,5.7-29.3,12-43.4,18.9c20.1-6.7,40.4-12.3,60.9-16.7C749.6,295.8,722.9,310,696.3,323.3z"></path> <path style="fill:#FFFFFF;" d="M509.8,585.3c-49.9-4.1-18.3,7.7-66.6-9.2c0,0,12.5,14.1,22.9,19.5c10.4,5.4,23.6,1.9,23.6,11.3 c-3.1,0.4-6.2,1.4-9,2.9c-4.5,2.5-8.4,6.3-10.8,11.7c16.4-8.3,30.7-8.4,47.2,0c-2.4-5.4-6.2-9.3-10.7-11.7c-2.8-1.5-5.9-2.5-9-2.9 c-0.1-9.4,13.2-5.9,23.6-11.3c10.4-5.4,22.9-19.5,22.9-19.5C521.1,584.2,518,586,509.8,585.3z"></path> <path style="fill:#FFFFFF;" d="M557.7,556c-57-17.3-38-8.8-64.1-7.5c-26.1-1.3-7.1-9.8-64.1,7.5c-6.6,1.4-10.2-1.8-13.4-5.4 c-1.6,6.6,1.9,17.5,6.8,21c-0.5-3.1-0.6-5.5-0.2-7.6c1.7-8.5-0.1-3.1,57.6-2c0.7,0,1.4,0.5,1.6,1.2l1.5,5.1l1.5-5.2 c0.4-1.4,2.5-1.4,2.7,0.1l2,15.2c1.8-13.1,1.2-16.3,3.7-16.3c3.4,0,2.4,2.8,4.2,16.3l2-15.2c0.2-1.5,2.3-1.5,2.7-0.1l1.5,5.2 c3.1-10.4-5.7-4,53.1-8.8c3.8-0.3,6.4-1.7,7.6,4.6c0.4,2.1,0.3,4.6-0.2,7.6c4.9-3.5,8.4-14.4,6.8-21 C568,554.2,564.4,557.4,557.7,556z"></path> <path style="fill:#FFFFFF;" d="M555.7,111.6c18.1,27.7,59.9,30.2,61.1,25.1c0.2-1-0.3-2-1.6-2.3c-59.7-14.1-63.3-57.4-69.6-79.3 c-0.3-1.2-2-1-2.2,0.2C540.4,79.6,544.7,95.1,555.7,111.6z"></path> <path style="fill:#FFFFFF;" d="M432,54.9c-1.1,3.6-7,31.8-16,44.2c1.3-7.9,1.4-15.9,0.1-23.5c-0.8,16-7.2,31-17.2,42.1 c-8.8,6.7-19.2,12.4-36.4,16.8c-0.8,0.2-1.3,0.7-1.4,1.4c-1.4,9,84.3,1.3,73.7-80.8C434.7,53.6,432.5,53.4,432,54.9z"></path> <path style="fill:#FFFFFF;" d="M694,672.9c-3.2-24.4-9.4-36.7-15-42.9c-1.5,22-6.6,47.1-16.6,67.1c8-21.9,10.2-49.4,8.5-72.2 c-5.4,28.4-18.2,55.1-36.7,76.4c18.5-26.5,28.4-58.3,28.4-89.5c-4.3-7.1-11.1-14-19.6-9.6c3.5,61.7-36.6,90-74.7,124.5 c16-20.6,37.7-35.2,59.3-70.3c12.7-20.5,14.8-46.4,12.9-78c-0.9-11.2-5.2-19.9-12.1-26.6c-10.7,42.9-23.2,84.4-63.1,110 c-82.9,57.4-171.6-8.1-209.6-86.4c-1.4,0.5-2.2,0.8-2.2,0.8s-21.9,7.7-10.7,45.4c24.1,81.8,214.2,115.6,214.2,115.6 c12.3,2.9,21.3,4.5,37,7.9c-59.6-3-267.6-49-261.5-149.8c-3.6,1-16.2,6.9-18.9,20c-5.8,28.8,6.4,51,19.8,74.6 c-16.7-22.4-25-35.2-28.1-54.7c-2.9,5.4-6.1,14.2-5.7,26.8c0,0-9.1,20.4,8.7,55.5c28.5,55.9,17.2,73.5,47,95.2 c52.1,38,57.8,24.5,88.4,62.7c-18.7-17.1-29.1-21.7-43.1-26.1c3.4,4.8,7.4,10.8,12.1,18.6c55,90.3,125.7,114.8,139.4,112.8 c-2.4-14.3,5.1-40.8,10.2-51.7c10.6-23.1,28.1-34.7,31.8-60c0.2,14.4-4.4,25-10.7,37.8c26.7-25.1,85.9-64,82.5-119.8 c-0.9-14.6,1.5-26,5.2-36.1c-12.5,10.6-16.7,20.4-21.4,38.6c5.3-38.7,16.9-38.4,29.8-56.7C688.3,715.7,697.5,699.7,694,672.9z M309.5,674.5c18.9,30.7,35.9,45.3,62.2,62.9C350.3,729.2,321.2,706.1,309.5,674.5z M364.2,789.4c23.9,48.1,90.6,31.6,114.5,107.4 C441.6,822.5,380.1,840.2,364.2,789.4z"></path> <path style="fill:#FFFFFF;" d="M314.3,604.8c6.2-7.1,14.6-15,23.3-17.8c20.8-6.8-25.2-46.8-53-7.3c0.5-1.5,1-2.7,1.6-4 c-14.5-10.6-36.1-6.3-53.3-7.9c17.6-0.6,38.9-7.9,56.9,1.7c2.3-3.1,5.4-5.8,9.5-8.1c-58.3-45.5-89.5-9.8-131.1-11.5 c8.2,23.1,20.8,38.2,37.6,45.9c19-19.2,45.6-21.4,76.2-11.6c-3.7,7.3-4.6,15-3.3,21.4c-1.4-2-2.2-4.5-2.6-7.5 c-13.2-0.6-25.1,0.8-35.3,9.2c8.9-10.5,21.5-14.1,35.2-16c0.1-1.4,0.2-2.8,0.4-4.3c-83.8-28.4-107,59.7-84.8,99.4 c11.8-37.2,51.9-43.3,93.5-69.4c3,2.4,6.5,3.9,9.2,4.4C304,623.2,304.6,615.9,314.3,604.8z"></path> </g> </svg> 