<?xml version="1.0" encoding="UTF-8"?> <svg xmlns="http://www.w3.org/2000/svg" xmlns:xlink="http://www.w3.org/1999/xlink" version="1.1" id="Layer_1" x="0px" y="0px" viewBox="0 0 1000 1000" style="enable-background:new 0 0 1000 1000;" xml:space="preserve"> <path style="fill:#FFFFFF;" d="M603.9,329.5L377.4,216.2L191,296.1v477.6l191.3-81.9l226.6,113.3l186.4-79.9V247.5L603.9,329.5 L603.9,329.5z M115.5,246.3L379.8,133l226.6,113.3l238-102c9.6-4.1,20.7,0.3,24.8,9.9c1,2.4,1.5,4.9,1.5,7.5V775L606.4,888.3 L379.8,775l-238,102c-9.6,4.1-20.7-0.3-24.8-9.9c-1-2.4-1.5-4.9-1.5-7.5V246.3z M266.5,472.9H342v75.5h-75.5V472.9z M417.6,472.9 h75.5v75.5h-75.5V472.9z M644.1,470.5l46.8-46.7l40,40l-46.7,46.8l46.7,46.8l-40,40l-46.8-46.7l-46.7,46.7l-40.1-40l46.7-46.8 l-46.7-46.7l40-40.1L644.1,470.5z"></path> </svg> 