<?xml version="1.0" encoding="UTF-8"?> <svg xmlns="http://www.w3.org/2000/svg" xmlns:xlink="http://www.w3.org/1999/xlink" version="1.1" id="Layer_1" x="0px" y="0px" viewBox="0 0 1000 1000" style="enable-background:new 0 0 1000 1000;" xml:space="preserve"> <path style="fill:#FFFFFF;" d="M83.4,573.3c1.3-34.7,3.1-69.5,3.6-104.2c0.3-22.8,12-34.7,33.2-38.9c17.1-3.4,34.8-5.1,51.4-10 c11.8-3.5,22.6-16.6,33.4-16c76.3,4.3,146.7-23.1,219.1-38.6c161.6-34.6,322.5-72.1,483.7-108.4c3-0.7,6.2-1,8.7-1.4 c0,111.7,0,222.9,0,335.4c-78.7,13.5-153.8,26.3-228.8,39.1c-192,32.6-384,65.3-576,97.7c-9.3,1.6-18.9,1.6-28.4,2.3 C83.4,677.9,83.4,625.6,83.4,573.3z M705,603.2c-40.1-39.8-50.5-94.1-29.5-144c17.7-42,69.9-66.6,112.6-53 c44.7,14.2,64.6,51.6,50.1,102.4c-6.6,23-20.8,43.8-31.9,65.5c-2.6,5-6.3,9.4-12.1,18.1c36.4-7.7,67.8-14.4,100-21.2 c0-90.8,0-179.2,0-269.6c-192.9,35.1-384.5,70-576.1,104.8c0.2,1.4,0.3,2.8,0.5,4.3c7.1,0.9,14.2,1.8,23.9,3 c-19.5,26.1-38.1,48.8-54.1,73.3c-4.9,7.4-6.5,20.8-3.3,28.9c11.1,28.5,24.9,55.9,38.5,85.5c-9.5,0.5-15.8,0.1-21.9,1.2 c-24.2,4.4-37.8-5.2-45.9-28.5c-7.7-22.1-19.5-42.7-32.3-69.9c-5.8,35-10.5,63.3-15.1,91.4c-14.2,0-26.6,0-40.6,0 c6.3-54,12.5-106.3,18.9-161.4c-19.6,3.7-35.7,8.1-52,9.4c-17.1,1.4-22.3,8.3-22.4,25.4c-0.6,72.1-2.7,144.2-4.2,216.2 c-0.1,6.8,0.7,13.5,1,20.7C307.9,671.6,504.5,637.7,705,603.2z M797.9,488.4c-1.4-0.5-2.8-1-4.3-1.5c0-3.2,0.2-6.4,0-9.5 c-1.7-19.1-2.4-40.8-27.1-43.6c-22.2-2.5-38.7,10.1-43.8,31.9c-5.4,22.9-10.7,46.6-9.9,69.7c0.4,12,12.6,31.8,21.9,33.3 c12.3,2.1,32.6-6.7,39.5-17.3C786.1,533,790.4,509.6,797.9,488.4z M240,417c-3.3,21.2-6.5,41.1-9.6,61.1c1.8,0.5,3.6,0.9,5.3,1.4 c19-21.6,37.9-43.2,60.7-69.1C274.8,413,259.2,414.8,240,417z"></path> <path style="fill:#FFFFFF;" d="M507.1,403.2c53.4-4.6,53.3-4.6,64.3,41.6c8,33.7,16.2,67.3,28.6,100.9c4-46.7,8-93.4,12.1-140.9 c14.2,0,25.9,0,41.8,0c-3.7,25-7.1,48.7-10.6,72.5c-5.2,35.2-11,70.3-15.3,105.6c-1.7,13.9-7,19.9-21.1,18.3 c-7.1-0.8-14.3-0.7-21.4,0c-12.7,1.2-18.1-3.7-20.4-16.7c-5.1-29.6-12-58.8-18.4-88.2c-0.9-4.1-2.6-8.1-7.5-11.7 c-5.4,39.4-10.9,78.8-16.4,118.9c-12.8,0-23.7,0-38.3,0C492.1,536.2,499.6,470,507.1,403.2z"></path> <path style="fill:#FFFFFF;" d="M477.5,406.2c-4.9,45.6-0.2,37-40,38c-9.4,0.2-18.9,0-30,0c-1.7,13.1-3.1,24.5-4.9,38.6 c10.8,0,19.3,0,27.9,0c7.8,0,15.7,0,25.8,0c-0.7,12.7-1.2,23.3-1.9,36.6c-19.8,0-38.5,0-58.5,0c-2.2,14.6-4,26.8-6.3,42.5 c22.7,0,43.6,0,65.2,0c0,14.7,0,26,0,38.5c-38.7,0-75.6,0-115,0c8.2-65,16.1-128.4,24.4-194.3C402.3,406.2,439.2,406.2,477.5,406.2z "></path> </svg> 