<?xml version="1.0" encoding="UTF-8"?> <svg xmlns="http://www.w3.org/2000/svg" xmlns:xlink="http://www.w3.org/1999/xlink" version="1.1" id="Layer_1" x="0px" y="0px" viewBox="0 0 1000 1000" style="enable-background:new 0 0 1000 1000;" xml:space="preserve"> <g> <path style="fill:#FFFFFF;" d="M437.9,470.4h-68.6v11.7c0,12.1-8.2,22.3-19.3,25.4c4.3,5.8,11.2,9.5,18.8,9.5h60.4h8.7 c12.9,0,23.3-10.5,23.3-23.3C461.2,480.9,450.7,470.4,437.9,470.4z"></path> <path style="fill:#FFFFFF;" d="M344.4,523.7c-5-4.1-9-9.4-11.5-15.7c-17.1-2.2-31.8-12.2-40.4-26.2c-5.2,22.7-14.5,47-30.6,63.2 c-12.6,12.6-27.9,19.1-45.6,19.1c-4.2,0-7.7-3.4-7.7-7.7s3.4-7.7,7.7-7.7c13.6,0,25-4.7,34.7-14.5c17.1-17.1,25.2-46.4,28.9-67.9 c4-22.6,4.2-41.6,4.2-43.9v-0.3c0-4.2,3.4-7.6,7.6-7.7c0,0,0,0,0,0c4.2,0,7.6,3.4,7.7,7.6c0,0.1,0,0.4,0,0.8v29.4 c0,22.5,18.3,40.8,40.8,40.8h2.7c6.1,0,11.1-5,11.1-11.1v-80.2c0-20.5-16.7-37.1-37.1-37.1h-69.2c-9.3,0-18.2,4.4-23.8,11.8 l-44.3,58.2c-1.4,1.9-3.7,3-6.1,3H76V610h99.8c2.6,0,4.9,1.3,6.4,3.4c11.5,17.3,30.8,27.6,51.5,27.6h102.4 c-3.7-5.5-5.9-12.1-5.9-19.3v-8.1c0-10.9,5.1-20.6,12.9-26.9c-7.9-6.3-12.9-16.1-12.9-26.9v-8.1C330.2,540.2,335.8,530,344.4,523.7 z"></path> <path style="fill:#FFFFFF;" d="M448.3,408.5h-79v46.6h68.6h10.4c12.9,0,23.3-10.5,23.3-23.3C471.6,418.9,461.1,408.5,448.3,408.5z"></path> <path style="fill:#FFFFFF;" d="M432.1,621.6v-8.1c0-10.6-8.6-19.3-19.3-19.3h-48c-10.6,0-19.3,8.6-19.3,19.3v8.1 c0,10.6,8.6,19.3,19.3,19.3h48C423.4,640.9,432.1,632.3,432.1,621.6z"></path> <path style="fill:#FFFFFF;" d="M364.8,579h48h16.4c10.6,0,19.3-8.6,19.3-19.3v-8.1c0-10.6-8.6-19.3-19.3-19.3h-60.4h-4 c-10.6,0-19.3,8.6-19.3,19.3v8.1C345.5,570.3,354.1,579,364.8,579z"></path> <path style="fill:#FFFFFF;" d="M582.5,517h8.7h60.4c7.6,0,14.5-3.6,18.8-9.5c-11.1-3.1-19.3-13.3-19.3-25.4v-11.7h-68.6 c-12.9,0-23.3,10.5-23.3,23.3C559.2,506.6,569.7,517,582.5,517z"></path> <path style="fill:#FFFFFF;" d="M582.5,455.1h68.6v-46.6h-79c-12.9,0-23.3,10.5-23.3,23.3c0,12.9,10.5,23.3,23.3,23.3H582.5z"></path> <path style="fill:#FFFFFF;" d="M655.6,594.3h-48c-10.6,0-19.3,8.6-19.3,19.3v8.1c0,10.6,8.6,19.3,19.3,19.3h48 c10.6,0,19.3-8.6,19.3-19.3v-8.1C674.9,602.9,666.3,594.3,655.6,594.3z"></path> <path style="fill:#FFFFFF;" d="M847,437.8c-2.4,0-4.6-1.1-6.1-3l-44.3-58.2c-5.6-7.4-14.5-11.8-23.8-11.8h-69.2 c-20.5,0-37.1,16.7-37.1,37.1v80.2c0,6.1,5,11.1,11.1,11.1h2.7c22.5,0,40.8-18.3,40.8-40.8V423c0-0.4,0-0.6,0-0.8 c0-4.2,3.4-7.6,7.7-7.6c0,0,0,0,0,0c4.2,0,7.6,3.4,7.6,7.7v0.3c0,2.2,0.2,21.3,4.2,43.9c3.8,21.5,11.9,50.8,28.9,67.9 c9.7,9.8,21.1,14.5,34.7,14.5c4.2,0,7.7,3.4,7.7,7.7s-3.4,7.7-7.7,7.7c-17.7,0-33-6.4-45.6-19.1c-16.1-16.2-25.3-40.5-30.6-63.2 c-8.7,14-23.4,24-40.4,26.2c-2.5,6.2-6.5,11.6-11.5,15.7c8.6,6.3,14.2,16.5,14.2,27.9v8.1c0,10.9-5.1,20.6-12.9,26.9 c7.9,6.3,12.9,16.1,12.9,26.9v8.1c0,7.1-2.2,13.8-5.9,19.3h102.4c20.7,0,40-10.3,51.5-27.6c1.4-2.1,3.8-3.4,6.4-3.4h99.8V437.8H847 z"></path> <path style="fill:#FFFFFF;" d="M655.6,532.3h-4h-60.4c-10.6,0-19.3,8.6-19.3,19.3v8.1c0,10.6,8.6,19.3,19.3,19.3h16.4h48 c10.6,0,19.3-8.6,19.3-19.3v-8.1C674.9,541,666.3,532.3,655.6,532.3z"></path> <path style="fill:#FFFFFF;" d="M510.2,194.6c-4.2,0-7.7,3.4-7.7,7.7v114c0,4.2,3.4,7.7,7.7,7.7s7.7-3.4,7.7-7.7v-114 C517.9,198,514.4,194.6,510.2,194.6z"></path> <path style="fill:#FFFFFF;" d="M446.1,339.9c1.5,2.3,3.9,3.5,6.5,3.5c1.4,0,2.8-0.4,4.1-1.2c3.6-2.3,4.6-7,2.3-10.6l-61.4-96 c-2.3-3.6-7-4.6-10.6-2.3c-3.6,2.3-4.6,7-2.3,10.6L446.1,339.9z"></path> <path style="fill:#FFFFFF;" d="M510.2,718.3c-4.2,0-7.7,3.4-7.7,7.7v114c0,4.2,3.4,7.7,7.7,7.7s7.7-3.4,7.7-7.7V726 C517.9,721.7,514.4,718.3,510.2,718.3z"></path> <path style="fill:#FFFFFF;" d="M456.6,700c-3.6-2.3-8.3-1.2-10.6,2.3l-61.4,96c-2.3,3.6-1.2,8.3,2.3,10.6c1.3,0.8,2.7,1.2,4.1,1.2 c2.5,0,5-1.2,6.5-3.5l61.4-96C461.2,707,460.2,702.2,456.6,700z"></path> <path style="fill:#FFFFFF;" d="M563.8,342.2c1.3,0.8,2.7,1.2,4.1,1.2c2.5,0,5-1.2,6.5-3.5l61.4-96c2.3-3.6,1.2-8.3-2.3-10.6 c-3.6-2.3-8.3-1.2-10.6,2.3l-61.4,96C559.1,335.2,560.2,339.9,563.8,342.2z"></path> <path style="fill:#FFFFFF;" d="M574.3,702.3c-2.3-3.6-7-4.6-10.6-2.3c-3.6,2.3-4.6,7-2.3,10.6l61.4,96c1.5,2.3,3.9,3.5,6.5,3.5 c1.4,0,2.8-0.4,4.1-1.2c3.6-2.3,4.6-7,2.3-10.6L574.3,702.3z"></path> </g> </svg> 