<?xml version="1.0" encoding="UTF-8"?> <svg xmlns="http://www.w3.org/2000/svg" xmlns:xlink="http://www.w3.org/1999/xlink" version="1.1" id="Layer_1" x="0px" y="0px" viewBox="0 0 1000 1000" style="enable-background:new 0 0 1000 1000;" xml:space="preserve"> <g> <polygon style="fill-rule:evenodd;clip-rule:evenodd;fill:#FFFFFF;" points="416.5,462.6 364,387.4 439.1,440.1 437.3,449.9 400.8,424.4 435.7,459.2 "></polygon> <polygon style="fill-rule:evenodd;clip-rule:evenodd;fill:#FFFFFF;" points="439.1,584.2 364,636.7 416.5,561.6 426.3,563.4 400.8,599.9 435.7,565 "></polygon> <polygon style="fill-rule:evenodd;clip-rule:evenodd;fill:#FFFFFF;" points="560.6,561.6 613.3,636.7 538.1,584.2 539.8,574.2 576.4,599.9 541.5,565 "></polygon> <path style="fill-rule:evenodd;clip-rule:evenodd;fill:#FFFFFF;" d="M521.7,263.6C633.6,278.5,722.2,367.1,737.1,479l-57.3-10.1 c-16.5-73.6-74.3-131.5-147.9-148.1L521.7,263.6z M737.1,545.1c-14.8,112-103.4,200.6-215.3,215.3l10.1-57.1 c73.6-16.5,131.5-74.5,147.9-148.1L737.1,545.1z M455.4,760.5c-111.9-14.7-200.5-103.3-215.2-215.3l57.1,10.1 c16.5,73.6,74.5,131.6,147.9,148.1L455.4,760.5z M240.2,479c14.7-111.9,103.3-200.5,215.2-215.3l-10.1,57.1 c-73.5,16.6-131.5,74.5-147.9,148.1L240.2,479z"></path> <polygon style="fill-rule:evenodd;clip-rule:evenodd;fill:#FFFFFF;" points="613.3,387.4 560.6,462.6 550.8,460.9 576.4,424.4 541.5,459.2 541.5,459.2 538.1,440.1 "></polygon> <path style="fill-rule:evenodd;clip-rule:evenodd;fill:#FFFFFF;" d="M488.6,159.5l52.8,299.8l299.6,52.8l-299.6,53l-52.8,299.6 l-53-299.6l-299.6-53l299.6-52.8L488.6,159.5z M240.4,512.1h248.3l37.1-37.2l-37.1-210.9v248.1l37.1,37.2l211-37.2H488.6 l-37.2,37.2l37.2,211V512.1l-37.2-37.2L240.4,512.1z"></path> <polygon style="fill:#FFFFFF;" points="462.4,143 462.4,77 475.3,77 502.4,121.2 502.4,77 514.8,77 514.8,143 501.4,143 474.7,99.5 474.7,143 "></polygon> <path style="fill:#FFFFFF;" d="M461.8,924.6l12.9-1.2c0.9,4.3,2.4,7.4,4.7,9.5c2.4,2.1,5.6,3.1,9.6,3.1c4.3,0,7.6-0.9,9.6-2.8 c2.2-1.8,3.3-3.9,3.3-6.4c0-1.5-0.4-2.8-1.3-3.9c-0.9-1.2-2.5-2.1-4.7-3c-1.6-0.4-5-1.5-10.7-2.8c-7.1-1.8-12-4-15-6.5 c-4-3.7-5.9-8.2-5.9-13.4c0-3.4,0.9-6.5,2.8-9.5c1.9-3,4.6-5.2,8.2-6.7c3.6-1.5,7.9-2.2,12.9-2.2c8.3,0,14.5,1.8,18.7,5.5 c4.2,3.6,6.4,8.5,6.5,14.7l-13.4,0.4c-0.6-3.4-1.8-5.9-3.6-7.4c-1.9-1.5-4.7-2.2-8.5-2.2c-3.9,0-6.8,0.9-9.1,2.4 c-1.3,1-2.1,2.4-2.1,4.2c0,1.6,0.7,3,2.1,4c1.6,1.5,5.6,3,12.2,4.5c6.5,1.5,11.3,3.1,14.4,4.7c3,1.6,5.5,3.9,7.3,6.7 c1.6,2.8,2.5,6.4,2.5,10.5c0,3.7-1,7.3-3.1,10.7c-2.1,3.3-5,5.6-8.9,7.3c-3.9,1.6-8.6,2.4-14.4,2.4c-8.3,0-14.7-1.8-19.1-5.6 C465.4,937.7,462.7,932,461.8,924.6L461.8,924.6z"></path> <polygon style="fill:#FFFFFF;" points="869.6,545.1 869.6,479.1 918.4,479.1 918.4,490.2 882.9,490.2 882.9,504.9 916,504.9 916,516.1 882.9,516.1 882.9,533.9 919.7,533.9 919.7,545.1 "></polygon> <polygon style="fill:#FFFFFF;" points="123.5,539.8 57.4,555.4 57.4,541.6 102.8,531.8 57.4,519.8 57.4,503.9 103.6,492.3 57.4,482.2 57.4,468.9 123.5,484.8 123.5,499 74,512.1 123.5,525.1 "></polygon> </g> </svg> 