<?xml version="1.0" encoding="UTF-8"?> <svg xmlns="http://www.w3.org/2000/svg" xmlns:xlink="http://www.w3.org/1999/xlink" version="1.1" id="Layer_1" x="0px" y="0px" viewBox="0 0 1000 1000" style="enable-background:new 0 0 1000 1000;" xml:space="preserve"> <g> <path style="fill:#FFFFFF;" d="M152.5,517.2h79.6c13.3,0,23.5,3.3,30.6,9.9c7.1,6.6,10.7,14.7,10.7,24.4c0,8.1-2.5,15.1-7.6,20.9 c-3.4,3.9-8.3,6.9-14.8,9.2c9.9,2.4,17.2,6.5,21.8,12.3c4.7,5.8,7,13.1,7,21.8c0,7.1-1.7,13.6-5,19.2c-3.3,5.7-7.9,10.2-13.6,13.5 c-3.6,2.1-8.9,3.6-16.1,4.5c-9.6,1.3-15.9,1.9-19.1,1.9h-73.4V517.2z M195.4,571.2h18.5c6.6,0,11.3-1.1,13.8-3.4 c2.6-2.3,3.9-5.6,3.9-9.9c0-4-1.3-7.1-3.9-9.4c-2.6-2.3-7.1-3.4-13.6-3.4h-18.8V571.2z M195.4,625.3h21.7c7.3,0,12.5-1.3,15.5-3.9 c3-2.6,4.5-6.1,4.5-10.5c0-4.1-1.5-7.3-4.5-9.8c-3-2.5-8.2-3.7-15.6-3.7h-21.6V625.3z"></path> <path style="fill:#FFFFFF;" d="M297.1,517.2h42.5V621H406v33.9H297.1V517.2z"></path> <path style="fill:#FFFFFF;" d="M505.2,632.2h-48.3l-6.7,22.7h-43.4l51.7-137.6h46.4l51.7,137.6h-44.5L505.2,632.2z M496.3,602.4 l-15.2-49.5l-15,49.5H496.3z"></path> <path style="fill:#FFFFFF;" d="M653.5,598.5l37.3,11.3c-2.5,10.5-6.4,19.2-11.8,26.2c-5.4,7-12.1,12.3-20,15.9 c-8,3.6-18.1,5.4-30.5,5.4c-15,0-27.2-2.2-36.7-6.5c-9.5-4.3-17.7-12-24.6-22.9c-6.9-10.9-10.3-25-10.3-42 c0-22.8,6.1-40.3,18.2-52.5c12.1-12.2,29.2-18.3,51.4-18.3c17.3,0,31,3.5,40.9,10.5c9.9,7,17.3,17.8,22.1,32.3l-37.6,8.4 c-1.3-4.2-2.7-7.3-4.1-9.2c-2.4-3.3-5.3-5.8-8.7-7.5c-3.4-1.8-7.3-2.6-11.5-2.6c-9.6,0-17,3.9-22.2,11.6 c-3.9,5.8-5.8,14.8-5.8,27.1c0,15.3,2.3,25.7,6.9,31.4c4.6,5.7,11.1,8.5,19.5,8.5c8.1,0,14.3-2.3,18.4-6.9 C648.6,613.9,651.6,607.2,653.5,598.5z"></path> <path style="fill:#FFFFFF;" d="M706.8,517.2h42.5v52l44.5-52h56.6l-50.2,51.9l52.5,85.7h-52.4l-29-56.6l-22,23v33.6h-42.5V517.2z"></path> <path style="fill:#FFFFFF;" d="M284.5,716h42.6v74.8c0,15.7-1.4,27.6-4.2,35.8c-2.8,8.2-8.4,15.1-16.8,20.8 c-8.4,5.7-19.2,8.5-32.3,8.5c-13.9,0-24.7-1.9-32.3-5.6c-7.6-3.8-13.5-9.2-17.7-16.5c-4.2-7.2-6.6-16.2-7.4-26.8l40.7-5.5 c0.1,6.1,0.6,10.6,1.6,13.5c1,2.9,2.7,5.3,5.1,7.1c1.6,1.2,3.9,1.8,6.9,1.8c4.8,0,8.2-1.8,10.5-5.3c2.2-3.5,3.3-9.5,3.3-17.9V716z"></path> <path style="fill:#FFFFFF;" d="M430.3,831H382l-6.7,22.7h-43.4L383.6,716H430l51.7,137.6h-44.5L430.3,831z M421.5,801.2l-15.2-49.5 l-15,49.5H421.5z"></path> <path style="fill:#FFFFFF;" d="M578.6,797.3l37.3,11.3c-2.5,10.5-6.4,19.2-11.8,26.2c-5.4,7-12.1,12.3-20,15.9 c-8,3.6-18.1,5.4-30.5,5.4c-15,0-27.2-2.2-36.7-6.5c-9.5-4.3-17.7-12-24.6-22.9c-6.9-10.9-10.3-25-10.3-42 c0-22.8,6.1-40.3,18.2-52.5c12.1-12.2,29.2-18.3,51.4-18.3c17.3,0,31,3.5,40.9,10.5c9.9,7,17.3,17.8,22.1,32.3l-37.6,8.4 c-1.3-4.2-2.7-7.3-4.1-9.2c-2.4-3.3-5.3-5.8-8.7-7.5c-3.4-1.8-7.3-2.6-11.5-2.6c-9.6,0-17,3.9-22.2,11.6 c-3.9,5.7-5.8,14.8-5.8,27.1c0,15.3,2.3,25.7,6.9,31.4c4.6,5.7,11.1,8.5,19.5,8.5c8.1,0,14.3-2.3,18.4-6.9 C573.7,812.7,576.7,806,578.6,797.3z"></path> <path style="fill:#FFFFFF;" d="M631.9,716h42.5v52l44.5-52h56.6L725.3,768l52.5,85.7h-52.4l-29-56.6l-22,23v33.6h-42.5V716z"></path> </g> <path style="fill:#FFFFFF;" d="M424,482.8h144.9l-38-97.8c0,0,67,67,155.7-25.3s-96-220.9-96-220.9l-94.2-88.7l-112.3,97.8 c0,0-163,121.3-81.5,219.1s157.5,14.5,157.5,14.5L424,482.8z"></path> <path style="fill:#FFFFFF;" d="M244.7,205.8l35.1,36.2c0,0-53.2,79.7,19.2,152.1l-54.3,50.7L141.5,334.4L244.7,205.8z"></path> <path style="fill:#FFFFFF;" d="M710.6,238.4c0,0,23,9.1,23,28.1c0,0,21.7-37.1,65.2-37.1c43.5,0,96.9,47.1,53.9,106.8 S735.4,457.5,735.4,457.5l-70.6-59.8C664.8,397.7,758.3,341.6,710.6,238.4z"></path> <circle style="fill:#FFFFFF;" cx="179.5" cy="779.8" r="14.5"></circle> <circle style="fill:#FFFFFF;" cx="820.9" cy="779.8" r="14.5"></circle> <path style="fill:#FFFFFF;" d="M179.5,396.5l7.2,14.5c0,0-70,10.9-72.4,77.3v374.2c0,0-4.2,47.1,105.9,83.3h557.5 c0,0,76-37.4,90.7-53.1c14.7-15.7,17.1-42.2,15.9-73.6s0-330.7,0-330.7s-0.5-26.6-15.9-43.5l-62.1-38.6l14.5-9.7l56.3,37.4 c0,0,22.9,15.7,22.9,57.9s0,373,0,373s-7.8,27.2-21.7,41s-84.5,56.7-95.4,56.7s-578.2,0-578.2,0s-105-43.5-105-83.3 c0-39.8,0-396.5,0-396.5S99.8,415.9,179.5,396.5z"></path> </svg> 