<?xml version="1.0" encoding="UTF-8"?> <svg xmlns="http://www.w3.org/2000/svg" xmlns:xlink="http://www.w3.org/1999/xlink" version="1.1" id="Layer_1" x="0px" y="0px" viewBox="0 0 1000 1000" style="enable-background:new 0 0 1000 1000;" xml:space="preserve"> <path style="fill:#FFFFFF;" d="M881.2,465.3h-72.8c-6.9-58.9-31.2-114.4-65.9-159.4l52-52c13.9-13.9,13.9-34.7,0-48.5 c-13.9-13.9-34.7-13.9-48.5,0l-52,52c-45.1-34.7-100.5-58.9-159.4-65.9v-72.8c0-20.8-13.9-34.7-34.7-34.7 c-20.8,0-34.7,13.9-34.7,34.7v72.8c-58.9,6.9-114.4,27.7-159.4,65.9l-52-52c-13.9-13.9-34.7-13.9-48.5,0 c-13.9,13.9-13.9,34.7,0,48.5l52,52c-34.7,45.1-58.9,100.5-65.9,159.4h-72.8c-20.8,0-34.7,13.9-34.7,34.7 c0,20.8,13.9,34.7,34.7,34.7h72.8c6.9,58.9,31.2,114.4,65.9,159.4l-52,52c-13.9,13.9-13.9,34.7,0,48.5c13.9,13.9,34.7,13.9,48.5,0 l52-52c45.1,34.7,100.5,58.9,159.4,65.9v72.8c0,20.8,13.9,34.7,34.7,34.7c20.8,0,34.7-13.9,34.7-34.7v-72.8 c58.9-6.9,114.4-31.2,159.4-65.9l52,52c13.9,13.9,34.7,13.9,48.5,0c13.9-13.9,13.9-34.7,0-48.5l-52-52 c34.7-45.1,58.9-100.5,65.9-159.4h72.8c20.8,0,34.7-13.9,34.7-34.7C915.9,479.2,902,465.3,881.2,465.3z M739.1,465.3H631.7 c-3.5-13.9-6.9-24.3-13.9-34.7l76.2-76.2C718.4,385.6,735.7,423.8,739.1,465.3z M600.5,517.3c0,6.9-3.5,10.4-3.5,17.3 c0,3.5-3.5,6.9-3.5,10.4c-10.4,20.8-27.7,38.1-48.5,48.5c-3.5,0-6.9,3.5-10.4,3.5c-6.9,3.5-10.4,3.5-17.3,3.5 c-3.5,3.5-10.4,3.5-17.3,3.5s-13.9,0-17.3-3.5c-6.9,0-10.4-3.5-17.3-3.5c-3.5,0-6.9-3.5-10.4-3.5l0,0 c-20.8-10.4-38.1-27.7-48.5-48.5c0-3.5-3.5-6.9-3.5-10.4c-3.5-6.9-3.5-10.4-3.5-17.3c-3.5-3.5-3.5-10.4-3.5-17.3s0-13.9,3.5-17.3 c0-6.9,3.5-10.4,3.5-17.3c0-3.5,3.5-6.9,3.5-10.4c10.4-20.8,27.7-38.1,48.5-48.5c3.5,0,6.9-3.5,10.4-3.5c6.9-3.5,10.4-3.5,17.3-3.5 c3.5-3.5,10.4-3.5,17.3-3.5s13.9,0,17.3,3.5c6.9,0,10.4,3.5,17.3,3.5c3.5,0,6.9,3.5,10.4,3.5c20.8,10.4,38.1,27.7,48.5,48.5 c0,3.5,3.5,6.9,3.5,10.4c3.5,6.9,3.5,10.4,3.5,17.3s3.5,10.4,3.5,17.3S604,513.9,600.5,517.3z M645.6,305.9l-76.2,76.2 c-10.4-6.9-24.3-10.4-34.7-13.9V260.9C576.2,264.3,614.4,281.6,645.6,305.9z M465.3,260.9v107.4c-13.9,3.5-24.3,6.9-34.7,13.9 l-76.2-76.2C385.6,281.6,423.8,264.3,465.3,260.9z M305.9,354.4l76.2,76.2c-6.9,10.4-10.4,24.3-13.9,34.7H260.9 C264.3,423.8,281.6,385.6,305.9,354.4z M260.9,534.7h107.4c3.5,13.9,6.9,24.3,13.9,34.7l-76.2,76.2 C281.6,614.4,264.3,576.2,260.9,534.7z M354.4,694.1l76.2-76.2c10.4,6.9,24.3,10.4,34.7,13.9v107.4 C423.8,735.7,385.6,718.4,354.4,694.1z M534.7,739.1V631.7c13.9-3.5,24.3-6.9,34.7-13.9l76.2,76.2 C614.4,718.4,576.2,735.7,534.7,739.1z M694.1,645.6l-76.2-76.2c6.9-10.4,10.4-24.3,13.9-34.7h107.4 C735.7,576.2,718.4,614.4,694.1,645.6z"></path> </svg> 