<?xml version="1.0" encoding="UTF-8"?> <svg xmlns="http://www.w3.org/2000/svg" xmlns:xlink="http://www.w3.org/1999/xlink" version="1.1" id="Layer_1" x="0px" y="0px" viewBox="0 0 1000 1000" style="enable-background:new 0 0 1000 1000;" xml:space="preserve"> <g> <path style="fill:#FFFFFF;" d="M619.3,306c-32.4,26.3-65.5,55.9-98.3,87.7l-220.9-60.9c-13.7-3.8-28.4,0.1-38.5,10.2l-7.1,7.1 c-6.7,6.7-5.2,18,3,22.8l141.1,81.5l32.9,32.9c-36.6,41.1-71.2,83.8-102,126.1L218.9,606c-3-0.2-6,0.9-8.2,3.1l-13.4,13.4 c-5.2,5.2-3.6,14,3.1,17.1l84.7,39c-36.8,57.8-24.7,69.9,36.3,36.3l39,84.7c3.1,6.7,11.9,8.3,17.1,3.1l13.4-13.4 c2.2-2.2,3.3-5.1,3.1-8.2l-7.4-110.7c42.3-30.8,85-65.4,126.1-102l32.9,32.9l81.5,141.1c4.8,8.2,16,9.7,22.8,3l7.1-7.1 c10.1-10.1,14-24.8,10.2-38.5l-60.9-220.9c31.8-32.7,61.5-65.9,87.7-98.3c26.2-35.4,47.6-74.4,38.2-112.9 C693.7,258.4,654.7,279.8,619.3,306z"></path> <path style="fill:#FFFFFF;" d="M902.6,336.6c-21.9-53.9-54-102.2-95.4-143.7c-41.5-41.5-89.8-73.6-143.7-95.4 c-52-21.1-107-31.8-163.4-31.8c-56.4,0-111.4,10.7-163.4,31.8c-53.9,21.9-102.2,54-143.7,95.4s-73.6,89.8-95.4,143.7 c-21.1,52-31.8,107-31.8,163.4c0,56.4,10.7,111.4,31.8,163.4c21.9,53.9,54,102.2,95.4,143.7c41.5,41.5,89.8,73.6,143.7,95.4 c52,21.1,107,31.8,163.4,31.8c56.4,0,111.4-10.7,163.4-31.8c53.9-21.9,102.2-54,143.7-95.4c41.5-41.5,73.6-89.8,95.4-143.7 c21.1-52,31.8-107,31.8-163.4C934.4,443.6,923.7,388.6,902.6,336.6z M778.1,778.1c-153.3,153.3-402.8,153.3-556.1,0 s-153.3-402.8,0-556.1c153.3-153.3,402.8-153.3,556.1,0C931.4,375.3,931.4,624.7,778.1,778.1z"></path> </g> </svg> 