<?xml version="1.0" encoding="UTF-8"?> <svg xmlns="http://www.w3.org/2000/svg" xmlns:xlink="http://www.w3.org/1999/xlink" version="1.1" id="Layer_1" x="0px" y="0px" viewBox="0 0 1000 1000" style="enable-background:new 0 0 1000 1000;" xml:space="preserve"> <path style="fill:#FFFFFF;" d="M838,706.3c-15.9-45.4-53-68.4-88.9-90.7c-31.2-19.4-60.6-37.7-79.9-70.6 C616.2,454,587,399,500.1,399s-116.2,55-169.4,146c-19.3,32.9-48.8,51.3-80.1,70.7c-35.8,22.3-72.9,45.2-88.8,90.6 c-6.2,16.3-9.3,33.7-9.2,51.2c0,73.7,58.7,133.7,123.8,133.7s150.7-32.8,223.9-32.8s157.7,32.8,223.5,32.8s123.6-60,123.6-133.7 C847.4,740,844.2,722.6,838,706.3z"></path> <ellipse style="fill:#FFFFFF;" cx="167.1" cy="442.5" rx="101.3" ry="130.3"></ellipse> <ellipse style="fill:#FFFFFF;" cx="369.7" cy="268.8" rx="101.3" ry="130.3"></ellipse> <ellipse style="fill:#FFFFFF;" cx="630.3" cy="268.8" rx="101.3" ry="130.3"></ellipse> <ellipse style="fill:#FFFFFF;" cx="832.9" cy="442.5" rx="101.3" ry="130.3"></ellipse> </svg> 