<?xml version="1.0" encoding="UTF-8"?> <svg xmlns="http://www.w3.org/2000/svg" xmlns:xlink="http://www.w3.org/1999/xlink" version="1.1" id="Layer_1" x="0px" y="0px" viewBox="0 0 1000 1000" style="enable-background:new 0 0 1000 1000;" xml:space="preserve"> <path style="fill:#FFFFFF;" d="M834.5,599.1c-1.5,0.4-3,0.8-4.4,1.4c-3,1.1-6,2.3-9,3.6c-8.6,3.7-16.7,2.9-24.5-2.3 c-3.3-2.2-6.6-4.4-9.6-7.2c-5.4-5-10.9-10-16.2-15c-6.8-6.4-14.4-11.5-22.9-15.2c-10.3-4.5-20.9-6-31.9-3.5 c-3.6,0.8-7.2,1.7-10.8,2.4c-11.1,2.3-22,1.9-32.2-3.6c-3.7-2-6.9-4.6-10.1-7.2c-3.2-2.7-6.8-4.8-11.2-6.7c1.7-0.9,2.6-1.5,3.6-2 c29.8-14.9,60.8-27,92.1-38.4c12.8-4.7,25.8-9,38.3-14.5c1.5-0.7,3.1-1.4,4.5-2.3c2.2-1.4,3.6-3.4,3.2-6.1c-0.4-2.4-2.5-4.1-5.7-4.6 c-0.8-0.1-1.5-0.1-2.3-0.2c-4.3-0.1-8.6-0.2-12.9-0.3c-26.5-0.2-53.1,1.5-79.6,1.4c-14.7,0-29.3-0.1-44.1,0.4 c0.5-1.4,1.6-1.7,2.5-2.1c14.8-6.4,26.8-16.6,36.9-29c5.9-7.3,11.3-14.9,16.5-22.7c4.6-6.9,10.6-12.3,18-16c4.7-2.3,9.3-4.7,14-7 c10.6-5.3,20.6-11.6,28.4-20.7c3.7-4.4,6.7-9.2,8.5-14.6c2.6-8.4,4.3-16.9,4.8-25.7c0.1-2.2,0-4.3-0.7-6.4c-1.1-3.2-4-3.9-6.5-1.6 c-1.9,1.8-3.3,4-4.7,6.3c-4.4,7-10.4,12-17.7,15.7c-4.6,2.3-9.3,3.9-14.2,5.3c-11.9,3.5-24,6.4-35.8,10.3 c-14.4,4.7-26.6,12.5-36,24.5c-3.5,4.5-7.1,8.9-10.1,13.7c-5.5,8.8-13,14-23.4,15.2c-3.7,0.4-7.4,1.2-10.9,2.6 c-0.8,0.3-3.6,1.3-6.1,2.4c0.2-0.1,0.4-0.3,0.6-0.4c-1,0.2-2,0.3-3,0.5c-0.4,0.4-0.8,0.8-1.3,1.3c1-3.9,3.6-7.6,4.9-11.4 c15.5-44.2,35.7-87.3,55.5-129.7c1.7-3.6,3.4-7.2,4.9-10.9c0.8-2,0.7-4-1-5.5c-1.9-1.7-4.1-1.2-6,0c-2.1,1.5-4.1,3.2-6,5 c-7.2,6.9-13.9,14.3-21.1,21.2c-15.3,14.6-30.4,29.4-45.2,44.6c-8.8,9-16.3,20.3-26.8,27.6c-1.2-2.8,2.1-8,2.8-11 c1-4.4,1.4-8.9,1.5-13.4c0.2-8.9-1.1-17.9-3.1-26.6c-1.1-4.8-2.2-9.6-3.4-14.3c-2.7-10.3-2.9-20.6-0.8-31c1.3-6.2,3.1-12.2,5-18.2 c2.5-7.6,4.6-15.3,5.9-23.2c1.9-10.9,1.2-21.5-3.7-31.5c-5.1-10.7-12.6-20-19.4-29.6c-1.4-2-3.6-2.9-6.1-2.1 c-2.3,0.8-3.5,2.9-3.4,5.9c0.1,2.9,0.8,5.8,1.5,8.6c3,11.8,2.3,23.4-1.8,34.9c-3.1,8.6-7.6,16.4-12.7,23.9 c-4.4,6.5-9,12.8-13.3,19.4c-8.1,12.6-11.1,26.4-10.4,41.3c0.4,8.8,2.1,17.4,3.3,26c0.9,7-0.4,13.5-3.9,19.5 c-3.6,6.1-6.8,12.4-8,19.5c0,0.1-0.4,0.2-0.6,0.3c-9.8-21.8-19.7-43.7-29.5-65.5c-8.3-18.3-17.4-36.2-25-54.8 c-5-12.2-9.8-24.5-14.7-36.7c-0.9-2.3-1.9-4.5-3.2-6.6c-1.1-1.8-2.8-2.9-5-2.4c-2.3,0.4-3.4,2.1-3.8,4.2c-0.3,1.5-0.4,3.1-0.3,4.6 c0.4,9.4,0.8,18.7,1.2,28.1c1.3,34.1,2.6,68.1,3.9,102.2c0.2,6.3,0.4,12.7,0.6,18.9c-1,0.1-1.3-0.3-1.5-0.6 c-6.1-11.1-15.7-18.3-26.4-24.3c-6.3-3.5-12.8-6.7-19.2-10c-4.5-2.3-8.9-4.8-13-7.8c-6.2-4.5-10.5-10.2-12.6-17.6 c-1.8-6.4-3.6-12.7-5.4-19.1c-4-14.7-11.8-26.6-25.2-34.3c-11.2-6.4-23.4-10.1-36.2-11.1c-6.7-0.5-13.2,0.3-19.3,3.3 c-4.8,2.4-5.4,7.3-1.3,10.8c2,1.7,4.1,3.3,6.4,4.5c12.7,6.8,20.5,17.7,25.9,30.7c5.4,13,8.7,26.6,12,40.1c1.8,7.3,4,14.5,7.2,21.4 c6.4,13.7,16.4,24,29.7,31c6.3,3.3,11.9,7.7,16.7,13c3.1,3.3,5.4,7.1,8.1,10.8c1.4,2,2.9,4,4.3,6c1,1.4,3.8,4,4.1,5.7 c2.3,3.2-2.8,1.5-4.2,1c-5.7-2.1-11.4-4.2-17.1-6.3c-27.6-10.4-55.3-20.4-81.8-33.4c-18.8-9.1-38.1-16.9-57.2-25.5 c-0.6-0.2-1.1-0.5-1.7-0.7c-1.8-0.7-3.3-0.2-4.5,1.3c-1.3,1.6-1.6,3.4-0.4,5.1c1,1.4,2.2,2.6,3.4,3.7c11.4,10.9,23.1,21.6,34.1,33 c14.9,15.3,30.2,30.2,46.1,44.4c9.2,8.2,18.1,16.6,27.2,24.9c0.9,0.8,2.3,1.4,2.4,3.1c-0.8-0.1-1.2,0-1.6-0.1 c-17.6-6.5-35.2-5.3-53-0.8c-3.6,0.9-7.2,1.5-10.8,2.3c-9,1.9-17.7,1.1-26.2-2.3c-4.7-1.8-9.4-3.7-14.1-5.6 c-7.3-2.9-14.9-4.7-22.9-4.6c-4.1,0-8.3,0.1-12.4,0.5c-11.7,1.2-23,3.6-33.8,8.5c-4.6,2.1-8.9,4.9-12.8,8.1 c-2.7,2.2-3.4,4.4-2.5,6.8c0.9,2.3,2.9,3.4,6.5,3.2c2.3-0.1,4.5-0.7,6.7-1.4c5.2-1.5,10.4-2.8,15.8-2.9c8.9-0.2,16.8,3.2,24,8.2 c5.1,3.5,9.6,7.6,14.2,11.7c9.9,8.9,20.8,16.2,32.9,21.8c7.2,3.4,14.7,5,22.7,5.4c8.8,0.4,17.5-0.6,26.2-1.2 c8.1-0.6,15.9,0.3,23.5,3.2c6.4,2.5,12.4,6.2,19.5,7.4c-1.8,1.3-3.5,2.2-5.3,3.2c-31.4,16.2-64.3,28.7-97.3,41.3 c-17.6,6.7-35.1,13.9-52.6,20.8c-1.6,0.6-3.1,1.4-4.5,2.2c-1.3,0.8-2,1.9-1.6,3.5c0.3,1.4,1.3,2.1,2.6,2.3c1.2,0.2,2.4,0.3,3.7,0.4 c17.2,1.2,34.3,0.4,51.5-0.3c26.8-1.1,53.6-2.3,80.5-2.4c0.8,0,1.9-0.5,2.2,0.8c-0.1,0.1-0.2,0.3-0.3,0.3c-0.7,0.4-1.3,0.8-2,1.1 c-13.1,6.4-22.8,16.3-29.8,29.1c-2.9,5.4-5.6,10.9-8,16.6c-4.9,11.4-12.7,20.2-23.6,26.2c-2.4,1.3-4.8,2.7-7.2,4 c-7,3.9-13.9,7.8-20.1,12.9c-16,13.2-17.1,32.1-10.5,50c2.1,5.7,7.6,6.3,11.6,1.5c1.7-2,3-4.2,4.5-6.4c5.8-8.7,13.8-14.7,23.6-18.3 c8.2-3.1,16.7-5.1,25.2-7.3c16.1-4.4,29.5-12.7,39.5-26.2c2.8-3.8,5.6-7.7,8.2-11.7c5.1-7.5,11.7-13.3,19.9-17.3 c2.4-1.2,5-2.1,7.4-3.3c2.3-1.2,4.2-3.2,6.7-4c0.9,1.6-1,4.6-1.6,6.3c-1.1,2.9-2.1,5.8-3.2,8.6c-2.2,5.9-4.4,11.8-6.6,17.7 c-4.3,11.5-8.5,23-12.6,34.6c-9.7,27.2-19.3,54.5-29,81.6c-0.6,1.6-1,3.2-1.3,4.9c-0.3,1.8,0.4,3.4,2,4.3c1.7,0.9,3.3,0.7,4.7-0.6 c1.3-1.3,2.6-2.6,3.8-4c7.8-8.9,15.6-17.8,23.8-26.3c16.8-17.3,33.6-34.5,50.5-51.8c8.3-8.4,16.6-16.8,24.9-25.3 c0.3-0.3,0.6-0.8,0.8-0.8c0.8,0.2,0.6,0.8,0.4,1.3c-1.4,9.4-1.9,18.9-0.3,28.4c1.5,9,4.2,17.6,7.3,26.1c5.8,15.9,6.8,32,1.8,48.3 c-2,6.6-3.8,13.3-5.3,20c-3.5,15.3-3,30.5,2.2,45.4c3.6,10.4,10.9,18,19.6,24.4c1.7,1.2,3.6,1.9,5.6,0.5c1.9-1.4,2-3.4,1.5-5.4 c-0.6-2.4-1.3-4.8-2.2-7c-3.4-8.3-3.7-16.7-1.1-25.2c2.7-9,6.7-17.5,11.5-25.5c5.7-9.5,11.4-18.9,16-29c3.8-8.5,6.5-17.2,7.5-26.4 c1.4-12.8,0.4-25.4-1.9-38c-0.9-5.2-1.4-10.3-0.9-15.6c0.6-7.1,3.9-13.3,7-19.7c2.1,1.9,2.7,3.9,3.5,5.9 c11.3,27.5,22.7,55,33.8,82.6c9.2,22.8,19.7,45,28.3,68c1.2,3.1,3.1,4.3,5.4,3.8c2.2-0.5,3.3-2.2,3.5-5.3c0-0.5,0-0.9,0-1.4 c-0.7-28.8-1.2-57.7-0.9-86.5c0.2-19.3-0.6-38.7-0.8-58c0-1.6-0.3-3.7,0.1-5.2c1.8,4,2.6,8.6,4.4,12.7c1.9,4.2,4.1,8.2,6.7,11.9 c5.2,7.4,12,13.8,20.1,17.9c6.9,3.5,12,8.8,16.9,14.6c7.6,9.1,12.7,19.4,17.2,30.2c4.4,10.5,9.6,20.6,17.4,29 c5.5,5.9,12,10,19.7,12.3c11,3.2,22.1,3.2,33.3,1.3c3.5-0.6,6.9-1.6,10-3.5c4.7-2.8,5.3-7.3,1.2-11c-2.1-2-4.6-3.6-7.1-5.1 c-9.2-5.9-15.9-13.9-20-24c-1.7-4.1-3.4-8.3-4.6-12.5c-3.1-11.2-5.9-22.6-9-33.8c-4.3-15.4-12.8-27.8-26.9-35.9 c-3.6-2.1-7.1-4.2-10.8-6.1c-5.4-2.8-9.1-7.1-11.8-12.5c-3.7-7.3-4.5-15.5-7.5-23.4c3.7,0.3,6.5,1.4,9.5,2.1 c31.2,8.2,61.8,18.1,91.2,31.5c11,5,22,10.2,33,15.3c2.5,1.1,5.1,2.2,7.7,2.9c2,0.6,4.1,0.4,5.4-1.5c1.3-2,0.6-3.9-0.7-5.5 c-2.1-2.7-4.1-5.4-6.5-7.7c-23.3-23.4-45.7-47.6-69.4-70.6c-4.2-4.1-8.4-8.1-12.6-12.1c0.3-0.5,0.5-0.9,0.8-1.4 c1.5,0.5,2.9,0.9,4.4,1.4c7.3,2.5,14.7,4.2,22.5,4.3c12.3,0.2,24-2.8,35.7-6.3c6.9-2,14-3.6,21.2-4.3c8.7-0.8,17,1.5,25.2,4.4 c7.8,2.8,15.5,5.9,23.6,7.7c7.2,1.6,14.3,1.3,21.3-1.3c9.9-3.6,18.6-9.4,26.7-16c2.1-1.7,3.9-3.9,5.7-6c2.2-2.6,2.5-4.5,1.3-6.2 C839.1,598.3,836.8,598.5,834.5,599.1z M522.8,671c-68,12.5-133.2-32.6-145.7-100.5c-12.5-68,32.6-133.2,100.6-145.6 c26.2-4.8,74.6,9.3,74.6,9.3c4.1,2.1,0.4,2.2,0.4,2.2c-10.2-1.1-20.6-0.7-31.2,1.2c-59.4,10.9-98.7,67.8-87.8,127.2 c10.9,59.4,67.8,98.7,127.2,87.8c6.3-1.2,12.5-2.8,18.3-5l0.7,0.8C564.3,661,544.1,667.1,522.8,671z"></path> <path style="fill:#FFFFFF;" d="M332.2,120.7c-0.6,0.3-1.2,0.6-2,1c-0.1-0.5-0.1-0.7-0.1-0.9c-0.2-2.9-0.1-5.8-0.6-8.7 c-0.8-4.7-0.7-9.5-1.5-14.2c-0.8-5.3-0.9-10.7-1.4-16c-0.1-1.9-0.3-3.7-0.5-5.6c0-0.3-0.4-0.6-0.5-0.9c-0.2,0.3-0.6,0.5-0.7,0.9 c-0.1,0.3,0,0.7,0,1c-0.1,2.7-0.1,5.4-0.3,8.1c-0.4,4.8-1.2,9.5-1.5,14.2c-0.2,3.5-0.7,7-1.1,10.5c-0.2,2.2-0.5,4.3-0.7,6.5 c-0.1,1.4-0.1,2.8-0.2,4.1c0,0.3-0.5,0.7-0.6,0.7c-1-0.4-2-0.8-3-1.3c-0.8-0.5-1.5-1.2-2.3-1.6c-2.8-1.5-5.6-2.8-8.4-4.3 c-2-1.1-3.8-2.3-5.8-3.4c-0.3-0.2-0.6-0.2-0.9-0.3c-0.4-0.2-0.9-0.3-1.3-0.5c-1.7-1-3.2-2.4-5-3.1c-2-0.7-3.4-2.1-5.3-2.9 c-1-0.5-1.8-1.2-2.7-1.8c-0.4-0.2-0.9-0.2-1.3-0.3c0.2,0.4,0.3,0.9,0.6,1.2c0.9,0.8,1.9,1.5,2.8,2.3c1.2,1.2,2.1,2.7,3.8,3.4 c0.2,0.1,0.3,0.3,0.4,0.4c0.7,0.7,1.3,1.5,2,2.1c1.2,1.1,2.6,2.2,3.8,3.3c2.2,2,4.3,4.1,6.5,6.1c1.3,1.2,2.7,2.3,4.1,3.5 c2.2,2,4.3,4,6.5,6c0.7,0.7,0.8,1.8,0.1,2.4c-1.5,1.4-3.1,2.7-4.7,4c-1.3,1.1-2.7,2.3-4,3.4c-1.2,1.1-2.3,2.2-3.5,3.3 c-1.2,1.1-2.5,2.1-3.7,3.2c-1.1,1-2,2.1-3.1,3.1c-3.7,3.3-7.4,6.5-11.1,9.7c-0.2,0.2-0.3,0.6-0.6,1.2c0.8-0.2,1.3-0.2,1.6-0.4 c2.4-1.3,4.9-2.7,7.3-4.1c1.6-0.9,3.2-1.8,4.9-2.8c0.8-0.4,1.5-0.8,2.3-1.3c2.1-1.2,4.3-2.5,6.4-3.7c2.4-1.3,4.9-2.5,7.4-3.8 c0.6-0.3,1.1-0.7,1.7-1c0.8-0.5,1.7-0.9,2.5-1.3c0.4-0.2,0.7-0.6,1.2-0.7c1.1-0.5,1.6-0.1,1.7,1c0.1,1.4,0.2,2.7,0.3,4.1 c0.2,2.9,0.4,5.7,0.7,8.6c0.5,4.6,1.1,9.3,1.5,13.9c0.6,6.2,1,12.4,1.5,18.5c0,0.6,0.2,1.1,0.3,1.7c0.1,0,0.3,0,0.4,0 c0.2-1.3,0.5-2.7,0.6-4c0.1-1.9,0-3.9,0.1-5.8c0.3-3.3,0.9-6.7,1.3-10c0.2-1.4-0.2-2.8,0.1-4.1c1-4.6,0.4-9.3,1.5-13.9 c0.7-3,0.6-6.1,0.9-9.2c0.1-0.8,0.5-1.1,1.2-0.7c1.9,1.1,3.9,2.1,5.8,3.2c1.4,0.8,2.9,1.6,4.3,2.4c1.8,1,3.6,1.8,5.3,2.8 c1.3,0.8,2.6,1.6,3.9,2.4c0.3,0.2,0.7,0.2,1.1,0.3c0.3,0.1,0.6,0,0.9,0.2c0.9,0.6,1.8,1.2,2.7,1.8c1.4,0.8,2.7,1.9,4.1,2.4 c1.9,0.7,3.5,1.9,5.1,3c0.3,0.2,0.6,0.4,0.9,0.4c0.3,0,0.7-0.3,1-0.5c-0.2-0.3-0.4-0.7-0.6-0.9c-0.2-0.2-0.7-0.2-0.9-0.4 c-2.3-2.1-4.7-4.1-7-6.2c-2.3-2.1-4.5-4.2-6.8-6.3c-0.9-0.8-1.7-1.7-2.6-2.5c-1.2-1.1-2.4-2.3-3.7-3.4c-1.2-1.1-2.6-2-3.7-3.2 c-0.9-0.9-1.6-2-2.9-2.3c-0.1,0-0.1-0.1-0.1-0.2c-0.5-0.6-1.1-1.2-1.7-1.7c-0.9-0.7-1.1-2.2-0.2-2.9c0.7-0.6,1.4-1.2,2.1-1.8 c2.8-2.5,5.6-5.1,8.4-7.6c1.6-1.4,3.3-2.8,4.9-4.3c1.4-1.3,2.6-2.7,4-4c1.7-1.7,3.4-3.4,5.3-4.9c1.8-1.5,3.8-2.9,5.6-4.3 c0.5-0.4,0.9-0.9,1.3-1.4c-0.1-0.1-0.2-0.2-0.3-0.3c-0.8,0.3-1.6,0.7-2.4,1.1c-1.9,1-3.4,2.6-5.7,2.8c-0.1,0-0.2,0.1-0.3,0.2 c-0.8,0.6-1.6,1.4-2.5,1.9c-2.1,1.2-4.2,2.4-6.4,3.6c-2.3,1.2-4.6,2.4-6.9,3.7c-1.9,1-3.8,2.2-5.8,3.2c-0.6,0.3-1.1,0.6-1.7,0.9 c-0.5,0.3-1,0.6-1.5,0.9C333.8,119.9,333,120.3,332.2,120.7z"></path> <path style="fill:#FFFFFF;" d="M334.5,890.2c0-5.9-4.8-10.8-10.8-10.8c-5.9,0-10.8,4.8-10.8,10.8c0,5.9,4.8,10.8,10.8,10.8 C329.7,901,334.5,896.2,334.5,890.2z"></path> <path style="fill:#FFFFFF;" d="M464.3,108.6c0,5.1,4.1,9.2,9.2,9.2c5.1,0,9.2-4.1,9.2-9.2c0-5.1-4.1-9.2-9.2-9.2 C468.4,99.4,464.3,103.5,464.3,108.6z"></path> <path style="fill:#FFFFFF;" d="M648.4,156.4c0,8.9,7.2,16.1,16.1,16.1c8.9,0,16.1-7.2,16.1-16.1c0-8.9-7.2-16.1-16.1-16.1 C655.6,140.3,648.4,147.5,648.4,156.4z"></path> <path style="fill:#FFFFFF;" d="M132.1,187.6c-5.2,0-9.5,4.2-9.5,9.5c0,5.2,4.2,9.5,9.5,9.5c5.2,0,9.5-4.2,9.5-9.5 C141.6,191.8,137.4,187.6,132.1,187.6z"></path> <path style="fill:#FFFFFF;" d="M856.1,442.7c-6.5,0-11.8,5.3-11.8,11.8c0,6.5,5.3,11.8,11.8,11.8c6.5,0,11.8-5.3,11.8-11.8 C868,448,862.7,442.7,856.1,442.7z"></path> <path style="fill:#FFFFFF;" d="M144.2,346.4c0-9-7.3-16.3-16.3-16.3c-9,0-16.3,7.3-16.3,16.3c0,9,7.3,16.3,16.3,16.3 C136.9,362.7,144.2,355.4,144.2,346.4z"></path> <path style="fill:#FFFFFF;" d="M805,717.6c-5.9,0-10.8,4.8-10.8,10.8c0,5.9,4.8,10.8,10.8,10.8c5.9,0,10.8-4.8,10.8-10.8 C815.8,722.4,811,717.6,805,717.6z"></path> <path style="fill:#FFFFFF;" d="M944.6,563.1c-1.4,38.7-28.4,43.4-40.5,43.5c30.2,2.9,36.2,28.5,37.2,41.5 c1.5-40.6,43.3-41.5,43.3-41.5C942.8,605.7,944.6,563.1,944.6,563.1z"></path> <path style="fill:#FFFFFF;" d="M73.1,535.1c-1.4,38.7-28.4,43.4-40.5,43.5c30.2,2.9,36.2,28.5,37.2,41.5 c1.5-40.6,43.3-41.5,43.3-41.5C71.2,577.7,73.1,535.1,73.1,535.1z"></path> <path style="fill:#FFFFFF;" d="M831.2,229.3c-1.4,38.7-28.4,43.4-40.5,43.5c30.2,2.9,36.2,28.5,37.2,41.5 c1.5-40.6,43.3-41.5,43.3-41.5C829.3,271.9,831.2,229.3,831.2,229.3z"></path> <path style="fill:#FFFFFF;" d="M598.6,221c0,0,0-0.1-0.1-0.1c0-0.1-0.1-0.1-0.2-0.1C598.4,220.8,598.5,220.9,598.6,221z"></path> </svg> 