<?xml version="1.0" encoding="UTF-8"?> <svg xmlns="http://www.w3.org/2000/svg" xmlns:xlink="http://www.w3.org/1999/xlink" version="1.1" id="Layer_1" x="0px" y="0px" viewBox="0 0 1000 1000" style="enable-background:new 0 0 1000 1000;" xml:space="preserve"> <path style="fill:#FFFFFF;" d="M755.3,30.9c-53.3-9.4-117.7,103.4-143.6,252c-7.5,45.1-7.3,91.2,0.5,136.3 c-35.1-24.2-75.1-39.5-117-39.5l0,0c-41.9,0-81.9,15.1-116.7,39.3c7.7-45.1,7.8-91.1,0.3-136.2c-26-148.6-90.3-261.4-143.6-252 S159.7,168.4,185.8,317c15.7,89.2,64.3,162,100.7,206c-5.6,10.5-10.6,21.3-14.8,32.4l-36.4,95.9c-17.5,45.2-17.2,95.4,0.7,140.4 c39.8,99.5,140.9,170.3,259.3,170.3l0,0c120.5,0,223-73.2,261.4-175.5c16-43.7,15.6-91.7-1.3-135l-36.6-96.1 c-4.2-11.1-9.2-21.8-14.8-32.3c36.4-44,85.1-116.9,100.8-206.2C830.6,168.4,808.5,40.3,755.3,30.9z M240.1,59.4c0.4,0,0.8,0,1.2,0 c23.9,0,82.4,78.5,108.8,228.5c10.2,58,3.6,114.5-7.3,160.5l0,0c-14.9,14.6-28.4,30.7-40,48c-33.2-41.9-74.5-107-88.1-184.5 C186.7,153.3,219.9,63.1,240.1,59.4z M369.1,425.7L369.1,425.7z M294.5,509.1l-0.7,1.2L294.5,509.1z M727.9,662 c14.4,36.7,14.8,77.4,1.3,114.4C694,870.1,600,932.9,495.1,932.9c-102.5,0-195.9-61.1-232.3-152c-15.2-38.2-15.4-80.8-0.5-119.1 l36.4-95.9c29.1-76.1,107.9-157,196.5-157s167.2,80.9,196.2,157L727.9,662z M695.7,509.1l0.7,1.2L695.7,509.1z M775.8,311.9 c-13.7,77.9-54.9,142.9-88.1,184.7c-11.7-17.3-25.1-33.3-40-47.9l0,0c-11.1-46.2-17.8-102.9-7.6-160.9 c26.5-149.9,85-228.4,109-228.4c0.4,0,0.8,0,1.2,0c20.3,3.6,53.5,93.9,25.6,252.5L775.8,311.9z"></path> <circle style="fill:#FFFFFF;" cx="604.4" cy="641.8" r="29.1"></circle> <circle style="fill:#FFFFFF;" cx="386" cy="641.8" r="29.1"></circle> <ellipse style="fill:#FFFFFF;" cx="655.3" cy="729.1" rx="32.8" ry="21.8"></ellipse> <ellipse style="fill:#FFFFFF;" cx="335" cy="729.1" rx="32.8" ry="21.8"></ellipse> <path style="fill:#FFFFFF;" d="M531.6,831.1c-7.1,0-13.1-5.1-14.3-12.1c8-3.5,15-8.9,20.5-15.8l5.6-7.3c8.8-10.6,8.6-26-0.4-36.4 c-7.6-8.5-18.5-13.4-30-13.4h-35.8c-10.7,0-20.9,4.2-28.4,11.7c-10.2,10.3-11,26.7-1.9,38l5.6,7.3c5.4,6.9,12.5,12.3,20.6,15.8 c-1.5,7.9-9.1,13.1-17,11.6c-6.8-1.3-11.7-7.1-11.9-14h-29.1c0,24.1,19.6,43.7,43.7,43.7c14.6,0,28.3-7.3,36.4-19.5 c13.3,20.1,40.4,25.6,60.5,12.3c12.2-8.1,19.5-21.8,19.5-36.4h-29.1C546.1,824.5,539.6,831.1,531.6,831.1z M470.7,778.1 c1.8-1.6,4.1-2.6,6.5-2.5H513c2.4,0,4.8,0.9,6.6,2.6v0.3l-5.6,7.3c-8.3,10.3-23.4,11.9-33.7,3.6c-1.3-1.1-2.6-2.3-3.6-3.6l-5.6-7.3 C470.9,778.4,470.8,778.3,470.7,778.1z"></path> </svg> 