<?xml version="1.0" encoding="UTF-8"?> <svg xmlns="http://www.w3.org/2000/svg" xmlns:xlink="http://www.w3.org/1999/xlink" version="1.1" id="Layer_1" x="0px" y="0px" viewBox="0 0 1000 1000" style="enable-background:new 0 0 1000 1000;" xml:space="preserve"> <path style="fill:#FFFFFF;" d="M544,852c0,5-4.1,9.1-9.1,9.1c-5,0-9.1-4.1-9.1-9.1s4.1-9.1,9.1-9.1C539.9,842.8,544,846.9,544,852z"></path> <g> <path style="fill:#FFFFFF;" d="M392.8,315.4c-65.5-55.7-32.6-172.3-39.4-172.3c-8.2,0-41.5,77.4-22.7,139.3 C350.6,295.8,371.9,307.8,392.8,315.4z M689.3,171.1c18.9,32.3,3.7,60.5-18.5,84c2.9,2.5,5.8,4.8,8.6,6.9 c11.6,8.9,20.6,17.6,27.6,26c36.5-36.2,60.2-80.3,17.2-138.9c-51.8-76.4-197.3-79.6-204-69.8C515.3,86.2,646.5,90.9,689.3,171.1z M466.5,185.6c-5.2-7.5-11-14.3-17.4-20.5c-47.9,14.3-83.6,42.9-82.1,49.8C368.2,220.7,411.2,189.5,466.5,185.6z M733.9,342.5 c35.2-9.6,72.4-32.3,89.4-79.7c38.4-95.8-85.4-223.2-100-222.3c-9.4,0.6,95.9,117.1,48.3,206.9c-19,39.5-45.9,46.7-70.1,42.7 c-9-10.3-20.7-21.2-35.9-32.5c-28.3-21.2-59.2-56.6-57.6-66.3c-1,6-20.2,43.3-25,85.1c0,0,0-0.1,0-0.1c-8.6-0.6-17.7-0.5-27,0.9 c-9.1,1.3-18.2,5.6-27.5,11.2c10.6-23.1,12.7-50.2,0.7-78.5c-2.4-6.3-5.3-12.3-8.8-18c5.3,1.7,10.6,3.7,15.9,6.1 c25.4,10.7,39.6,28.8,47.9,48.8c3.8-19.8,11.2-37.2,16.6-49.5c-12.6-14-29.1-25.8-50.8-32.6c-19.5-6.9-39.4-8.8-58.6-7.4 c-48.6-43.6-120.1-62-124.2-53c-3.2,7.2,102.5,35.2,124,117.4c15.6,51.3-19.8,110.9-51,110.4c-82.7,3.9-200.1-119.2-204.1-116.1 c-5.5,4.4,49.9,117.9,182.1,152.7c60,17.2,97-33.9,149-40.4c17.4-2.2,27.2,14.3,16.2,20.8c-7.8,5.7-20.1,9.2-41.5,12.2 c-19.8,2.8-53.9,7.8-62.2,31.2c-8.3,23.4-92.7,87-112.5,96.9c-19.8,9.9-43.6,28.9-44.3,40c-1,18,25,31.5,26.4,39.7 c0.8,4.5,8.1,20.2,16.8,17.8c0.9-0.3,2.3-0.7,4.1-1.4c-5.3,11.9,14.8,31.9,28.7,32.7c17.1,0.9,22.4-4.7,25.7-8.3 c12-12.9,52.3-35.4,79.7-19.8c16.5,14.6,37.4,18,51.1,21.7c-31.7,27.9-55.6,72.9-45.2,112.5c-20.3,4.3-34.3,9.6-47.3,19.5 c14.9,7.3,32.4,17.5,44.7,26.6c5.8-5.8,10.9-24.3,40.4-33.2c69.1-20.8,71.4-89.3,69.3-89.9c-1.6-3.1-21.2,55.9-73.5,69.6 c-33.6,7.4-17.2-59.1,12.2-74.5c-4.2,15.7-5,32.4-1.8,48.8c2.3-20.9,9.7-40.9,21.8-58c-2,10.9-2.1,22.2,0.1,33.4 c2.1-19.5,16-45.4,36.1-49.1c48.5-8.6,75.1-53.3,75.1-91.7c0-13.6-4.5-26.4-12.5-37.6c1.6,5.5,2.5,11.2,2.5,17 c0,43.2-45.6,78.3-101.8,78.3c-38.5,0-72-16.5-89.3-40.7c-0.9,13,16.1,31.5,6.2,30c-23.3-3.3-44.7,4.4-52.5,7.4 c-9.6,3.7-24,17.3-38.8,19c-14.7,1.7-13-20.5-12.8-20.7c19.7-7.1,47.6-15.2,67-9.3c-15.4-16.1-42.7-12.2-51.7-11.3 c-26.5,2.7-12.8-31.2-13-34.9c-0.4-11.1-30.4-19.1-10.5-29c19.8-9.9,96.1-71.5,109.5-92.5c6.9-10.8-7.5,17-5.6,36.2 c2.7-8.1,17-34.4,22.7-37c23.3-10.6,53.2-1.7,74.1,2.2c-2.4-4.6-9.9-13.9-22.5-14.8c-28.9-2.1-17.7-6.2-16.6-6.4 c28-3.9,54.4-10.1,68.8-13.7c31.8,28.4,79.7,23.8,84.9,18.9c9.3-5.6-60.2-1.9-88.6-60.7c-23.9-45.4-1.9-84.2,3.7-103.5 c0.5-1.9,19.9,25.3,43.9,43.7c69.8,53.6,55.5,105.8,55.5,105.8s5.8,0.6,10.9-6.3c5.5-7.9,11.3-4.1,16.1,1 c56.3,59.8,103,140,103,251.9c0,121.2-94.3,260.9-214.6,323.1C765.8,899.4,867.8,769,867.8,614.7 C867.8,505.3,814.1,405.4,733.9,342.5z M377.8,533.3c2.4,2.5-14.3,4.6-18.2,9.6c-3.9,5,4.9,12.8,3.8,14c-2.3,2.4-8,0.3-12.7-4.8 c-4.8-5.1-6.8-11.1-4.5-13.6C348.4,536.1,373.1,528.2,377.8,533.3z"></path> <path style="fill:#FFFFFF;" d="M668,476.4c-19.6-53.6-102.4-38.3-126.1-1.3C585.5,448.9,642.3,450.9,668,476.4z M732.8,405.1 c17.7,2,47.1,33.2,54.7,41.1c-8.8-25.4-46.8-70.4-104-49.7c45.1-1.7,59.5,64.2,53.1,100.8c10.1-18.3,12.3-40.8,2.4-66.8 c24.8,24.5,35.2,59,41.2,91.4C785.8,488.9,770.7,438.5,732.8,405.1z M687.4,853.9c-8.8-60.9-48-107-113.9-109.1 c48,11.7,82.4,43.9,91.5,85.6c-23.7-27.8-53.4-41-84.7-43.6c50.7,18.8,119.9,78.6,79.2,122.5c74.7-42.8,51.4-111.8,27.6-138.1 C690.4,784.3,700.1,834.9,687.4,853.9z M637.3,345.9c14.9,26.3,37.8,21.4,39.1,18.5c2.2-2.7-18.9,1.1-34.9-23.5 c-12.9-19,37.6,16.7,37.6,16.7s8.1-22.3-27.8-48.5c-11.4-8.3-25.3-22.7-26-26.9C625.9,286,622.5,320.9,637.3,345.9z M551.5,424.3 C551.5,424.3,551.5,424.3,551.5,424.3c12.7-4.5,27.3-5.7,27.3-5.7s-65.2-18.9-68.9,1.8c-6.3,34.8-23,43-23,43s14.3-1.4,24.8-2.7 c0.4,0,0.7-0.2,1-0.2c0.1,0.1,0.1,0.2,0.1,0.2c5.6,6,25.1,3.9,33.4-3.9C554.7,449.1,557.1,430.4,551.5,424.3z M528.2,430.5 c-0.7,0-1.5,0.1-2.2,0.2c2.4-3.2,6.1-5.2,10.4-5.2c7.2,0,13.1,5.9,13.1,13.2c0,6.5-4.7,11.9-10.9,13c1.7-2.2,2.7-5,2.7-8 C541.3,436.4,535.4,430.5,528.2,430.5z M408.7,504c0,0,33.3-14.3,44.4-22.2c11.1-7.9,11.1-15.9,15.9-23.8 C473.8,450.1,408.7,504,408.7,504z"></path> </g> <g> <path style="fill:#FFFFFF;" d="M373.8,785.7c0,4.6-2.6,8.4-5.9,8.4c-3.3,0-5.9-3.8-5.9-8.4s2.6-8.4,5.9-8.4 C371.2,777.3,373.8,781.1,373.8,785.7z"></path> <path style="fill:#FFFFFF;" d="M334,757.6c0,4.7-2.6,8.4-5.9,8.4c-3.3,0-5.9-3.8-5.9-8.4c0-4.6,2.6-8.4,5.9-8.4 C331.4,749.2,334,752.9,334,757.6z"></path> <path style="fill:#FFFFFF;" d="M317.4,733.2c0,4.6-2.6,8.4-5.9,8.4c-3.3,0-5.9-3.8-5.9-8.4c0-4.7,2.6-8.4,5.9-8.4 C314.7,724.8,317.4,728.5,317.4,733.2z"></path> <path style="fill:#FFFFFF;" d="M295.4,709.8c0,4.7-2.6,8.4-5.9,8.4c-3.3,0-5.9-3.8-5.9-8.4s2.6-8.4,5.9-8.4 C292.8,701.4,295.4,705.2,295.4,709.8z"></path> <path style="fill:#FFFFFF;" d="M351.9,763.8c0,3.7-1.9,6.7-4.2,6.7c-2.3,0-4.2-3-4.2-6.7c0-3.7,1.9-6.7,4.2-6.7 C350,757.1,351.9,760.1,351.9,763.8z"></path> <path style="fill:#FFFFFF;" d="M296.5,731.7c0,3.3-1.6,5.9-3.7,5.9c-2,0-3.7-2.6-3.7-5.9c0-3.3,1.6-5.9,3.7-5.9 C294.9,725.8,296.5,728.5,296.5,731.7z"></path> <path style="fill:#FFFFFF;" d="M278.6,696.8c0,3.3-1.6,5.9-3.7,5.9s-3.7-2.6-3.7-5.9c0-3.3,1.6-5.9,3.7-5.9 S278.6,693.6,278.6,696.8z"></path> <path style="fill:#FFFFFF;" d="M266.6,699.6c0,2.5-1.3,4.5-2.8,4.5c-1.6,0-2.8-2-2.8-4.5c0-2.5,1.3-4.5,2.8-4.5 C265.4,695,266.6,697.1,266.6,699.6z"></path> <path style="fill:#FFFFFF;" d="M255.3,663.2c0,2.5-1.3,4.5-2.8,4.5c-1.6,0-2.8-2-2.8-4.5c0-2.5,1.3-4.5,2.8-4.5 C254.1,658.7,255.3,660.7,255.3,663.2z"></path> <path style="fill:#FFFFFF;" d="M354.1,780.5c0,2.5-1.3,4.5-2.8,4.5c-1.6,0-2.8-2-2.8-4.5c0-2.5,1.3-4.5,2.8-4.5 C352.8,776,354.1,778,354.1,780.5z"></path> <path style="fill:#FFFFFF;" d="M390,786.3c0,3.6-1.8,6.5-4.1,6.5c-2.2,0-4.1-2.9-4.1-6.5c0-3.6,1.8-6.5,4.1-6.5 C388.2,779.8,390,782.8,390,786.3z"></path> <path style="fill:#FFFFFF;" d="M242.5,642.6c0,3.3-1.6,5.9-3.7,5.9c-2,0-3.7-2.6-3.7-5.9c0-3.3,1.6-5.9,3.7-5.9 C240.8,636.7,242.5,639.4,242.5,642.6z"></path> <path style="fill:#FFFFFF;" d="M265.8,682.6c0,4.5-2.3,8.1-5.1,8.1c-2.8,0-5.1-3.6-5.1-8.1c0-4.5,2.3-8.1,5.1-8.1 C263.5,674.5,265.8,678.1,265.8,682.6z"></path> <path style="fill:#FFFFFF;" d="M600.3,853.9c-12.3-11.7-38-46.3-147.4-103.6c-13.5-7-25.6-13.8-36.8-20.3 c-2.7-42.2-71.1-140.5-101.6-160.3c-33-21.5-20.6,12.9-29.8,29.6c-6.8,12.3,3.2,26.2,10.6,44c-50.8-47-73.5-103.8-35.2-195.3 c0.5-1.2,1.8-3.5,5.3-3.8c41.2-4.2,128.3-41.1,168.6-61.4c-8.6,0-17.6-1.2-26.9-3.9c-39.3-10.3-72.3-27-98-47 c-0.9-0.7-62.3,48.4-67.9,89.5c-0.7,3.7-5.1,10.7-4.6,9.9c-34.1,53.2-53.3,115.5-53.3,183.3c0,9.3,0.4,18.6,1.1,27.7l-12.6-12.6 c0,0-3.4,52.1,18.6,54.8c7.3,35.3,20.1,68.5,37.3,98.9c-3.4,1.7-5.8,3.7-6.8,5.9c-5.5,12,20.9,36.3,50.2,54.3 C333.9,913.3,424.6,957,525.6,957c18.6,0,58.6-7.1,71.6-22.1c7.5-8.7-4-17.2-45-31.8c14.1,11.7,37.6,20.3,29.6,28.6 c-13.5,13.9-39.3,19.8-57.9,19.8c-87.2,0-160.1-35.2-215.2-89.3c31.9,11.6,60.2,11,66.4-2.4c0.2-0.4,0.4-0.9,0.6-1.4 c-11.4,4.9-37.2,1.1-64.8-10.5c-9-3.8-18.7-8.6-27.9-13.8c-3.2-1.8-6.3-3.6-9.3-5.5c0,0,0,0,0,0c-3-1.9-5.9-3.8-8.7-5.7 c0,0-0.1-0.1-0.1-0.1c-2.8-1.9-5.4-3.7-7.8-5.6c-0.1-0.1-0.1-0.1-0.2-0.2c-1.1-0.9-2.2-1.7-3.3-2.6c-0.1-0.1-0.2-0.1-0.2-0.2 c-1.1-0.9-2.1-1.8-3.1-2.6c-0.1-0.1-0.2-0.2-0.3-0.2c-0.9-0.8-1.7-1.5-2.5-2.3c-0.1-0.1-0.3-0.3-0.4-0.4c-0.8-0.8-1.6-1.6-2.4-2.4 c-0.1-0.1-0.2-0.2-0.3-0.3c-0.6-0.7-1.2-1.3-1.7-2c-0.1-0.2-0.3-0.3-0.4-0.5c-0.6-0.7-1.1-1.4-1.6-2.1c-0.1-0.1-0.1-0.2-0.1-0.2 c-0.4-0.6-0.7-1.2-1-1.8c-0.1-0.2-0.2-0.3-0.2-0.5c-0.3-0.6-0.5-1.2-0.7-1.8c0,0,0-0.1,0-0.1c-0.1-0.5-0.2-1-0.2-1.5 c0-0.1,0-0.3,0-0.4c0-0.5,0.1-1,0.3-1.5c31.8,28.6,68,46.6,101.8,54.7c-29.7-12.8-66.9-37.8-95.5-59.3c0.3-0.1,0.6-0.2,0.9-0.3 c0.1,0,0.1,0,0.2-0.1c0.6-0.2,1.2-0.4,1.9-0.6c0,0,0.1,0,0.1,0c0.7-0.2,1.4-0.4,2.2-0.5c2.1-0.5,4.5-0.9,7.1-1.2 c26.9,25.2,58.7,39.6,89.3,46.9c-24.5-10.6-54.1-29.4-79.8-47.8c3.9-0.2,8.1-0.3,12.5-0.2c25.5,18.3,46,28,72.1,34.3 c-18.9-8.1-36.5-19.8-56.3-33.4c15.8,1.4,32.1,4.4,44.7,9.4c15.2,6,25.5,14.3,32.2,22.9c-6-12.7-17.1-25.1-35.8-33 c-4.3-1.8-9.1-3.4-14.2-4.7c-56.7-34.8-127-138.1-103-285.7c-38.9,121.7,24.1,241.1,82.4,282c-19.8-2.3-40.8-1.7-56.5,1.3 c-27.4-48.6-44.9-103.2-51.2-157.9c-6.9-60.2,16.3-132.1,44.3-183.3c1.1-2,6.1-7.2,10.8-4.6c7.4,3.9,2.9,12.6,2.7,13.1 c-12.5,21.5-21.9,63.9-22.9,85.8c-2.7,60.8,17.6,109.8,47.3,148c0.3-2.1,1.4-3.6,2.8-3.6c1.6,0,2.8,2,2.8,4.5 c0,1.8-0.7,3.4-1.6,4.1c13.6,16.7,29,31.2,45,43.8c1.1-1.5,2.5-2.4,4.1-2.4c3.3,0,5.9,3.8,5.9,8.4c0,0.6-0.1,1.3-0.2,1.9 c11.9,9.9,25.2,18.6,37.9,25.9c-0.1-0.5-0.1-1.1-0.1-1.7c0-4.7,2.6-8.4,5.9-8.4c3.3,0,5.9,3.8,5.9,8.4c0,2.8-1,5.3-2.5,6.8 c23.6,12.8,42.7,20.2,41.7,20.9c-95.4,41.2-14.1,132.5,19.5,143.6c-20.9-18.8-66-73.7-31.7-117.6c24.7-22,38.5-4.9,45,9.6 c6.9,15.3,43.2,0,54,34.2c7.9,25,94.8,25.7,38.6,32.6c-27.2,3.3-59.2,5.6-83.9,6.8c0,0-59.2-13.4,46.6-25.9 c-42.1-4.5-92,2.4-81.4,18.6c7.7,11.9,23.2,14,34.2,13.8c31,35.5,105.5,33.4,106.3,24.4c0.7-7.2-14-9.8-22.3-13.7 c-18.9-8.7-28.5-13.7-32.8-16.1c9.4-0.8,19.2-1.3,28.3-1c30.6,0.9,62.7,0.1,66.4-10.1C614.7,875.1,613.3,866.2,600.3,853.9z M413.3,385.7c-37.5,19.7-130.8,59.2-152.6,51.5C292.4,437.7,412.5,385.7,413.3,385.7z M259.2,434.9c18.6-4,130.3-55.9,130.9-56 C360.2,398.5,277.4,435.2,259.2,434.9z M255.3,431.7c15.6-5,100.9-65.7,101.5-65.8C335.7,388.4,272.4,432.4,255.3,431.7z M254.4,429.7c-0.2-6.1,50.7-56.4,86.7-72.2C296.7,387.9,257.1,427.1,254.4,429.7z M245.7,423.4c-3-11.2,34.2-65.7,63.2-85.9 C273.7,371.5,247.5,420.3,245.7,423.4z M251.6,426l-0.1-0.4c-0.9-9.3,40.2-58.9,72.4-76.9C284,379.5,253.7,423.1,251.6,426z M307.4,707.5c-1.6,0-2.8-2-2.8-4.5c0-2.5,1.3-4.5,2.8-4.5c1.6,0,2.8,2,2.8,4.5C310.2,705.5,308.9,707.5,307.4,707.5z M318,662.3 c-0.5,0.6-17.1-33.3-27.8-56.8C300.5,617.9,320.2,659.8,318,662.3z M297.1,591.9c17.2,19.9,50.1,87.1,46.4,91.2 C342.6,684.1,315,629.5,297.1,591.9z M345.8,738.4c-1.6,0-2.8-2-2.8-4.5c0-2.5,1.3-4.5,2.8-4.5c1.6,0,2.8,2,2.8,4.5 C348.6,736.4,347.4,738.4,345.8,738.4z M370.1,703.9c-0.7,1.4-46.2-89.5-67.5-123.8C327.3,606.9,373.9,696.8,370.1,703.9z M400.4,720.5c-0.9,2-63.9-119-94.5-150.4C340.3,594.9,404.8,710.5,400.4,720.5z M534.1,864.2c-7.4,0-13.5-6-13.5-13.5 c0-7.4,6-13.5,13.5-13.5c7.4,0,13.5,6,13.5,13.5C547.6,858.2,541.5,864.2,534.1,864.2z"></path> </g> </svg> 