<?xml version="1.0" encoding="UTF-8"?> <svg xmlns="http://www.w3.org/2000/svg" xmlns:xlink="http://www.w3.org/1999/xlink" version="1.1" id="Layer_1" x="0px" y="0px" viewBox="0 0 1000 1000" style="enable-background:new 0 0 1000 1000;" xml:space="preserve"> <g id="XMLID_1_"> <path id="XMLID_2_" style="fill:#FFFFFF;" d="M628.9,190.3c-15.1,0-30,1.5-44.8,3.7c-9.2-98.2-91-175.6-191.6-175.6 c-11.9,0-21.5,9.6-21.5,21.5v85.9c0,11.9,9.6,21.5,21.5,21.5c32.4,0,59.1,24.2,63.6,55.4c-27.7-8-56.1-12.5-85-12.5 c-189.5,0-343.8,173.5-343.8,386.7s154.2,386.7,343.8,386.7h257.8c189.5,0,343.8-173.5,343.8-386.7S818.4,190.3,628.9,190.3z M201.9,523c-3.8-6.8-3.6-15.2,0.6-21.8l107.4-171.9c7.9-12.5,28.6-12.5,36.4,0l107.4,171.9c4.2,6.6,4.4,15,0.6,21.8 c-3.9,6.8-11,11.1-18.9,11.1H220.7C212.9,534.1,205.7,529.8,201.9,523z M623,799.1l-2.3-15.9c-0.8-5.6-3.8-10.7-8.4-14.1 c-4.6-3.4-10.3-4.8-15.9-4l-85,12.4c-11.8,1.7-19.9,12.6-18.2,24.3l4.9,33.1c-18.8-0.2-37.3-2.6-55.4-7.2l10.9-20.3 c5.6-10.4,1.7-23.5-8.8-29.1l-75.7-40.7c-5-2.7-10.9-3.3-16.3-1.7c-5.5,1.6-10.1,5.4-12.8,10.4l-8,14.9 c-24.2-27.4-39.5-59.8-44.6-94.3H713C705,720.1,672.4,768,623,799.1z M780.2,534.1c-0.3,0-0.6,0-0.9,0H564.5 c-7.8,0-15-4.3-18.8-11.1c-3.8-6.8-3.6-15.2,0.6-21.8l107.4-171.9c7.9-12.5,28.6-12.5,36.4,0l104.8,167.5c4.2,3.9,6.8,9.5,6.8,15.7 C801.6,524.5,792,534.1,780.2,534.1z"></path> </g> </svg> 