<?xml version="1.0" encoding="UTF-8"?> <svg xmlns="http://www.w3.org/2000/svg" xmlns:xlink="http://www.w3.org/1999/xlink" version="1.1" id="Layer_1" x="0px" y="0px" viewBox="0 0 1000 1000" style="enable-background:new 0 0 1000 1000;" xml:space="preserve"> <path style="fill:#FFFFFF;" d="M147.2,196.6c13.1,9.2,14.6,21.4,3.4,27.8c-7.3,4.2-16.6,1.8-21.3-5.4c-4.7-7.3-2.7-14.6,5.4-19.9 c1.4-0.9,2.8-1.7,4.2-2.5C141.7,196.6,144.5,196.6,147.2,196.6z"></path> <path style="fill:#FFFFFF;" d="M951,294.9c-2.7,1.9-5.4,5.5-8,5.4c-4.9-0.1-11.5-1-14-4.2c-2.4-3.1-2.4-11.9,0.1-14 c3.5-2.9,10.3-2.3,15.6-2.1c2.1,0.1,4.2,3,6.3,4.6C951,288.1,951,291.5,951,294.9z"></path> <path style="fill:#FFFFFF;" d="M624.9,823.7c-9.5-1-18.5-2-28.1-3.1c0,14.1,0,27.2,0,40.9c-10,0-18.7,0-28.3,0 c-0.4-3.9-0.8-8.1-1.2-13c-6.5,0-12.8,0-20,0c-0.3,4.1-0.7,8-1.1,13c-21,0-42.2,0-64.4,0c0-4.1-0.3-8.8,0-13.4 c3.3-50-51.7-85.3-99.7-64.1c-28,12.4-43.9,43-40.5,65.5c0.2,1.7,0.3,3.4,0.4,5.1c0.3,3.9,7.6,8.1-0.1,11.7 c-6.6,3.1-21.6-0.7-24.6-5.3c-1.3-2.1-4.9-4.9-6.4-4.4c-3.2,1.2-5.6,4.3-9.2,7.3c-13,1.2-27.6,3.5-42.2,3.7 c-12.7,0.2-25.5-1.9-38.2-3.2c-7.5-0.8-17.2,0.4-21.6-3.8c-4.1-4-2.5-13.9-3.7-22.8c35.7,0,70.6,0,102.1,0 c7.3-17.1,12.4-32.2,20.1-45.8c7-12.5,1.1-23.7-0.5-35.2c-4.1-28-9.8-55.7-14.6-83.5c-6-34.6-11.5-69.2-17.6-103.7 c-2.9-16.3-6.9-32.4-10.2-48.6c-2.8-13.7,4.2-22.6,18-23.1c42.6-1.5,85.1-2.7,127.7-4.3c27.9-1,55.8-2.3,83.7-3.6 c12.2-0.6,21.6,2.3,29.3,13.5c3.3,4.8,14,5,21.5,6.3c42,7.1,84,13.9,126.1,20.8c14.8,2.4,29.6,4.5,44.4,7c22.5,3.9,27,9.5,24.1,32.2 c-1.9,14.3-5.5,28.4-8,42.6c-3.1,17.6-5.6,35.4-8.9,53c-2.6,14.2-6,28.2-8.7,42.4c-4,21-7.8,42.1-11.7,63.1 c-3.2,16.9-6.3,33.9-9.7,50.8c-1.4,7.1-2.7,14.4-5.1,21.3c-5.9,16.9-10.9,20-27.7,18.3c-4.3-0.4-8.6-2.6-12.8-2.6 c-5,0-10,1.8-15,2.3c-7.3,0.8-14.7,1.2-21.9,1.8c-1.8-7.2-3.2-13-5-20.4c2.3-0.8,5.6-2.1,9.3-3.4 C624.9,834.5,624.9,829.8,624.9,823.7z M521.4,624.4c-11.3-37-22.3-72.9-33.5-108.7c-0.7-2.2-3.8-5.1-5.9-5.3 c-10.1-0.5-20.3-0.2-31.3-0.2c-5,39.9-9.9,78.8-15,118.9c10-0.7,18.3-1.2,27.1-1.8c1.1-8.2,2.1-15.5,3.1-22.8 c3.7-0.4,7.1-0.4,10.4-1.3c9.3-2.5,14,1.1,15.3,10.5c0.6,4.2,2.2,8.3,3.3,12.5C503.7,625.5,511.8,625,521.4,624.4z M713,668 c-1.8-39.6-3.5-77.9-5.2-116.6c-12.3-1.8-23.3-3.5-34.2-5.1c-15.8,36.1-31.2,71.2-47,107.4c10.1,1.5,19,2.8,27.6,4 c10.5-23.6,10.5-23.6,31.1-16.2c0,7,0,14.3,0,21.5C694.6,664.7,703,666.2,713,668z M342.8,525.1c-3.8,7.1-8.6,17.1-14.2,26.6 c-5.3,9-12.2,17.2-17.1,26.4c-7.5,14.2-3.4,31,8.4,39.2c11.4,7.9,19.5,6.2,34.7-6.1c-4.2,7.1-8.3,14.2-12.7,21.7 c11.1-0.7,21.9-1.4,33-2.2c-5.3-5.5-10.3-10.7-15.2-15.9c0.6-0.6,1.3-1.2,1.9-1.8c1.1,0.6,2.3,1.2,3.4,2c8.6,5.8,17.4,7.8,26.3,0.7 c7.7-6.1,11.3-18.7,5.2-28.8c-6.7-11.1-16.2-20.7-24.9-30.5C361.7,545.2,351.3,534.3,342.8,525.1z M551.9,631.3 c7-8.2,13.7-17.1,21.5-24.9c7.1-7.2,15.5-13.2,23.1-20.1c8.6-7.7,14.8-16.9,15.9-28.8c0.9-10.2-5.1-21.8-12.8-24.7 c-9.9-3.8-19.5-0.6-26.9,8.9c-1.3,1.7-2.7,3.3-4.5,5.4c-2-5.4-3-10.2-5.3-14.2c-4.9-8.5-12.9-10.5-22-8.4c-9.8,2.2-5.2,10.2-5.8,16 c-0.3,2.3,0.1,4.8,0.4,7.1c1.9,22.5,0,45.6,11.9,66.5C550.3,619.4,550.6,626.2,551.9,631.3z M482.2,712.7c-0.7,0.6-1.4,1.2-2.2,1.7 c-14.2-10.1-24.8-9.3-32.1,2.6c-5.7,9.3-4.1,27.7,3.3,30.2c19.2,6.7,33.9,19.6,47.5,33.8c6,6.3,7.3,2.5,9.4-2.4 c1.5-3.7,2.9-7.5,4.7-11c4.8-9,10.6-17.4,14.5-26.8c4.6-11.1,0.4-25.2-7.8-31.5c-8.4-6.4-14.6-5.7-27.5,3.1 c-0.3,0.2-1.1-0.4-3.2-1.1c3.8-5.6,7.4-10.8,11.5-16.8c-11.3,0.8-22,1.6-32.4,2.3C472.8,702.3,477.5,707.5,482.2,712.7z M655.8,841.7c14.7,0.9,22.9-4,27.3-16.2c3.7-10.4,2.8-20.7-2.1-30.7c-9.5-19.3-18.9-38.7-28.1-57.5c-8.2,14.1-20.3,27.3-38.7,35.2 c0.2,4.6,0.6,10.6,0.9,16.7c7.1,0,13.4,0,20,0c1.4-7.2,2.6-13.8,3.8-20.1c8.6,0,16.6,0,24.4,0c0,7.5,0,14.2,0,21.4 c-7.5,0.3-14.6,0.7-21.7,1c-0.9,1.1-1.9,2.3-2.8,3.4c12.5-1.9,10.7,5.2,10.3,10.6c-0.4,5.3-2.1,10.4-3.2,15.8 c2.1,0.2,5.6,0.5,9.8,0.8C655.8,828.8,655.8,834.9,655.8,841.7z M326.5,702.9c7.2,19.4,14,37.8,21.1,57.2 c15.9-11.6,33.4-17.5,52.5-19c2.5-0.2,6.7-3.4,6.9-5.6c1.3-11.7,1.6-23.5,2.3-36.2c-9.4,0.7-17.6,1.3-26.8,2c0,8.3,0,15.6,0,24.6 c-9-3.4-21.1,6.6-24.3-8.3c-2.8-13.2-9.9-17-22.1-14.7C333.5,703.3,330.7,702.9,326.5,702.9z M579.8,712.6c-7.3-1.3-14-2.3-20.5-3.7 c-5.8-1.2-9.5,1.2-10,6.7c-1.3,17.3-2.1,34.6-3.2,52.6c7.5,0,12.2,0,17.4,0C559.4,747.7,574.7,732.6,579.8,712.6z M613.4,816.4 c-0.9-3.7-1.9-6.7-2.5-9.9c-0.6-3.1,0.3-7.9-1.5-9.1c-2.6-1.9-7.1-2-10.6-1.5c-3.1,0.4-5.8,2.8-8.8,4.3c0,5.2,0,10.3,0,16.2 C597.7,816.4,604.9,816.4,613.4,816.4z M541,816.3c6.4,0,14.3,0,22.3,0c-0.3-6.2-0.6-12.3-0.9-18.5c-5.3-0.2-11.2-0.8-17.1-0.6 c-1.5,0.1-3.8,2.8-4,4.5C540.6,806.3,541,811,541,816.3z M565.8,770.5c0.7,6.9,1.3,12.8,2,18.9c7.1,0,13.4,0,20.2,0 c0-6.6,0-12.5,0-18.9C580.6,770.5,573.6,770.5,565.8,770.5z"></path> <path style="fill:#FFFFFF;" d="M784.5,310.9c-6.5,0-13,0.3-19.5,0c-49.7-2.5-99.5-5-149.2-7.8c-64.8-3.7-129.5-8-194.3-11.8 c-66.1-3.8-132.3-7.1-198.4-10.9c-7.4-0.4-8.4,3.1-8.7,9.1c-1.7,35.4-3.6,70.9-5.5,106.3c-1.4,26.9-2.8,53.8-4.3,80.7 c0,0.8-0.7,1.5-3,2.4c-1.6-12.2-3.3-24.4-4.6-36.6c-6.3-55.6-12.5-111.2-18.9-166.8c-2.7-23.8-2.9-23.8,20.8-21.8 c52,4.4,104.1,8.7,156.1,13.5c97.8,9,195.6,18.4,293.4,27.4c36.3,3.3,72.7,5.8,109.1,8.9c9.1,0.8,18.2,2.8,27.2,4.2 C784.6,308.6,784.5,309.7,784.5,310.9z"></path> <path style="fill:#FFFFFF;" d="M265.3,417.1c0,20.5,0,40.5,0,61.4c-7.3,0-15.3,0-24.2,0c-4-62.2-8-124.3-12.1-187.1 c17.4-1.5,33.3-2.6,48.7,2.9c18.7,6.7,28.2,22.1,30.7,40.1c2.3,16.2,2.2,33.3-0.3,49.5C304.6,406.7,290.5,416.4,265.3,417.1z M259.7,330.4c0.7,12.8,1,25,2.1,37.1c0.3,3.5,2.7,6.7,4.1,10.1c4.6-2,12.5-3.2,13.3-6.2c2.4-9.1,3.5-19.1,2.2-28.4 C280.1,332.1,272.8,328.6,259.7,330.4z"></path> <path style="fill:#FFFFFF;" d="M637.4,334.3c16.3,1.8,32,2.6,47.2,5.5c30,5.6,30.4,39.3,15.4,55.3c-2.7,2.9-5.8,5.5-8.7,8.2 c17,19.5,14,47.8-7.1,63.5c-19.8,14.7-42.2,12.1-66,9.5C624.5,429.1,630.8,383.2,637.4,334.3z M653.7,418.3 c-1.6,10.6-3.1,20.7-4.5,30.8c15.2,2,24.3-4.7,25.1-17C674.8,422.6,668.6,418.1,653.7,418.3z M657.6,392.3c7.5-2.1,14.3-2,17.7-5.4 c3.3-3.3,5.3-10.8,3.9-15.2c-1.1-3.3-8.3-5.9-13-6.2c-1.9-0.1-4.8,6.5-6.1,10.5C658.7,380.1,658.7,384.6,657.6,392.3z"></path> <path style="fill:#FFFFFF;" d="M404.5,477.3c1.6-59,3.3-117.5,4.9-177.6c9.9,1.2,18.8,2.3,28.7,3.6c-1.3,31.6-2.7,62.5-4,93.4 c0.7,0.2,1.4,0.4,2.1,0.7c4.4-10.6,9.2-21.1,13.1-32c2.1-5.9,5.3-8,11.4-7.2c7.7,1,15.4,1.5,25.2,2.3c-8.2,13.7-15.2,26-23,37.8 c-3.7,5.7-4.3,10.7-2,17.1c7.1,20.2,13.4,40.5,20.6,62.5c-10,0-18.8,0.5-27.5-0.3c-2.5-0.3-5.8-4.2-6.7-7.1 c-3.5-11.4-6.1-23-9.1-34.5c-1-0.1-1.9-0.1-2.9-0.2c-1.1,7.6-2.7,15.2-3.2,22.8C430.6,480.9,430,481.5,404.5,477.3z"></path> <path style="fill:#FFFFFF;" d="M317.1,403.5c0-8.9,1.8-25.7,10.9-40.8c10.7-17.9,34.6-21.6,48.5-6c6.8,7.6,12.5,17.5,14.7,27.3 c6.8,29.6,7.2,59.2-12.4,84.9c-14.6,19.1-38.2,16.4-50.1-4.7C320.8,450.1,317.3,434.4,317.1,403.5z M344,415 c1.7,8.6,3,17.6,5.4,26.3c0.7,2.6,4.4,5.4,7.2,6c1.6,0.3,5.1-3.3,6-5.8c6.4-17.8,6.4-35.9,0.3-53.7c-0.9-2.7-5-6.6-6.7-6.2 c-2.9,0.7-6.6,4-7.3,6.9C346.6,396.9,345.6,405.7,344,415z"></path> <path style="fill:#FFFFFF;" d="M510.1,436.1c3.5,12.8,7,13.8,35.7,10c0,7.5,0.3,14.9-0.2,22.2c-0.1,2.2-2,5.4-3.9,6.3 c-18.3,8.9-46.5,10.1-54.6-19.1c-8-28.6-4.9-56.2,12.3-81c13.8-20,41.1-17.6,51.1,4.4c7.7,16.8,6.4,34.6,3,52.2 c-0.4,2.1-5.2,4.6-8.1,4.7C533.7,436.4,521.9,436.1,510.1,436.1z M531.1,405.8c0.7-7.7,0.3-15.6-8.3-15.8 c-8.6-0.2-9.8,7.9-10.7,15.8C518.6,405.8,524.3,405.8,531.1,405.8z"></path> <path style="fill:#FFFFFF;" d="M735.8,441.9c11.3,15,24.1,7.8,35.3,8.3c4.6,19.1,1.6,23.7-17.3,26.8c-28.2,4.7-44.1-9.8-41.9-38.3 c1.3-15.9,6.2-30.5,16.3-43.2c10-12.5,26.7-18.1,40-13c12.6,4.7,18.4,15.6,17.9,33.4c-0.7,25.8-2.1,27-28.1,26 C751.6,441.7,745,441.9,735.8,441.9z M760.5,417.3c1-1,2-2,3.1-2.9c-3-3.4-5.7-9.4-9.1-9.8c-7.3-0.8-10.2,5.4-11.8,12.5 c3.8,0.2,6.8,0.5,9.8,0.5C755.2,417.6,757.8,417.4,760.5,417.3z"></path> <path style="fill:#FFFFFF;" d="M571.7,369.1c7.5,0,14.6,0,22.3,0c0.3,4.4,0.6,8.4,0.9,13.3c3.8-3.8,6.7-7.9,10.7-10.3 c4-2.4,9.1-2.9,15.9-4.9c-1.5,12.6-2.3,22.7-4.1,32.6c-0.4,2.2-4.4,5.3-6.7,5.2c-10.9-0.1-15.4,6.3-16.9,15.5 c-2.3,14.1-4.1,28.3-5.7,42.5c-1.6,13.9-1.4,13.9-15,13.7c-3.7,0-7.4,0-12.9,0C564.1,440.5,567.9,404.9,571.7,369.1z"></path> <path style="fill:#FFFFFF;" d="M834.7,388.3c4.4,1,8.6,1.9,12.8,2.8c-0.9,20.2-2.1,21.7-18.6,22.9c-1.7,7-3.2,14.3-5.2,21.4 c-2.5,9.1-3,16.7,11.2,16.2c-2.5,8.1-2.6,17.9-7.3,21.5c-5,3.8-15.1,3.7-21.9,1.7c-4.7-1.4-10.6-8.9-10.6-13.7 c0.1-12.4,3.1-24.8,5-37.2c0.8-5.2,4.7-10.6-3.7-14.4c-4.2-1.9,1.7-20.4,6.3-22.8c2.7-1.4,6.4-4.4,6.5-6.9c0.5-8,5-10.3,11.9-11 c5.3-0.5,10.5-1.6,17.4-2.7C837.1,374.2,835.9,381,834.7,388.3z"></path> <path style="fill:#FFFFFF;" d="M411.2,830.6c0.2-15.8,9.2-24.7,24.8-24.6c14.4,0.1,27.6,17.7,27.5,36.4 c-0.1,18.2-4.9,21.4-31.7,21.5C420.9,864,411,847.9,411.2,830.6z M441.4,853.5c5.4-7.6,1.2-27.5-5.7-30.3c-1.5-0.6-6.3,2.3-6.2,3.2 C430.8,836.2,432.7,845.9,441.4,853.5z"></path> <path style="fill:#FFFFFF;" d="M629.7,496.2c67.7,1.8,135.4,3.7,202.9,5.5c2.5,13.5,1.5,15.2-10.9,14.3c-33.7-2.5-67.4-5.5-101-8.4 c-28.9-2.5-57.8-5.2-86.7-7.8c-1.5-0.1-3-0.6-4.5-1C629.5,498,629.6,497.1,629.7,496.2z"></path> <path style="fill:#FFFFFF;" d="M388.1,840.1c14.2-1.1,21,4.9,24.5,15c2,5.8,0.2,9.9-6.5,8.7c-6.6-1.2-13-3.7-19.6-5.2 c-2.1-0.5-4.6,0.2-6.9,0.7c-5,1.3-10,2.8-15.1,4.2c-1.9-12.5-3.6-23.6-5.3-34.7c9.8-3.5,18.3-6.3,26.6-9.5 c7.1-2.7,11.7-0.6,14.7,6.1c3.5,7.9-4,7.8-7.4,10.6C392.4,836.8,391.6,837.4,388.1,840.1z"></path> <path style="fill:#FFFFFF;" d="M894.5,337.7c-0.5,5.2-0.9,8.7-1.4,13.7c-28.2-3.8-55.7-7.5-83.3-11.2c0.1-0.8,0.2-1.6,0.3-2.4 C837.9,337.7,865.7,337.7,894.5,337.7z"></path> <path style="fill:#FFFFFF;" d="M305.9,237.6c-9.6,0-15.2-5.2-15-13.7c0.2-8,7.6-14.9,15.5-14.6c8.4,0.4,15.1,7,15.1,15 C321.4,232.9,316,237.6,305.9,237.6z"></path> <path style="fill:#FFFFFF;" d="M461.3,239.7c-0.3,8-7.4,14.5-15.7,14.2c-8.3-0.2-17.9-8.1-15.1-14.1c2.6-5.8,9.2-11.9,15.2-13.5 C453.9,224.1,461.5,232.3,461.3,239.7z"></path> <path style="fill:#FFFFFF;" d="M598.3,254.1c0,8.5-5.5,14-13.7,14.1c-7.9,0.1-15.3-7.2-15-14.7c0.3-7.1,7.5-13.6,15-13.6 C592.1,239.9,598.4,246.4,598.3,254.1z"></path> <path style="fill:#FFFFFF;" d="M391.2,230.3c-0.1,6.7-7.6,13.6-14.8,13.7c-7.4,0.1-15.1-6.9-15.2-13.9c-0.1-7.2,6.8-13.6,14.7-13.7 C384.8,216.3,391.3,222.2,391.2,230.3z"></path> <path style="fill:#FFFFFF;" d="M653.4,247.8c9.6,0,15.8,5.3,15.7,13.3c-0.1,7.9-6,13.3-14.7,13.4c-8.1,0.1-16.2-6.9-15.2-14.1 C640.4,252.7,644.4,247.1,653.4,247.8z"></path> <path style="fill:#FFFFFF;" d="M234,229.3c-6.4,0.1-14.5-7.1-14.7-13c-0.2-7.1,6-13.2,13.6-13.3c9.8-0.1,16.9,5.4,16.7,13 C249.5,222.7,241.9,229.2,234,229.3z"></path> <path style="fill:#FFFFFF;" d="M725.1,282.6c-7.9-0.1-13.6-5.9-12.9-13.8c0.6-7.4,5.2-11.9,12.5-12.5c7.7-0.6,15.3,6.8,15,13.7 C739.3,277.2,733,282.7,725.1,282.6z"></path> <path style="fill:#FFFFFF;" d="M515.5,260c-7.3-0.1-13.7-6.3-13.6-13.3c0.1-6.9,6.8-12.3,14.7-12c8,0.3,12.4,5,13.2,12.6 C530.6,253.3,522.5,260.1,515.5,260z"></path> <path style="fill:#FFFFFF;" d="M930.1,364.6c9.8-0.1,15,3.6,16.4,11.3c1,5.7-6.9,13.3-13.3,12.7c-6.8-0.7-12.5-3.7-12.8-11.7 C920.1,369,925.8,366.4,930.1,364.6z"></path> <path style="fill:#FFFFFF;" d="M791.6,289c-5,0-9.3-4-9.7-11.7c-0.4-6.7,6.3-13,13.2-12.9c6.8,0.1,13.3,6.7,12.6,13.5 C806.9,285.6,802.1,289.1,791.6,289z"></path> <path style="fill:#FFFFFF;" d="M151.9,434.4c8.4-0.8,13.1,3.1,13.2,10.7c0.1,8.2-5.1,11.7-13.3,11.6c-8.1-0.1-12.6-4.8-12.3-11.6 C139.8,438.6,143.9,432.9,151.9,434.4z"></path> <path style="fill:#FFFFFF;" d="M178,580.7c1.1-7.1,5.9-11.2,13-11c7.2,0.2,12.3,4.9,11.8,12.4c-0.5,7.2-5.5,12.1-12.8,11.6 C183.1,593.3,178.3,589,178,580.7z"></path> <path style="fill:#FFFFFF;" d="M866.9,296.4c-6.9-1.4-12.9-3.5-12.9-11.9c0-7,5.9-12.5,13.4-12.2c7.9,0.3,11.7,4.8,12,12.3 C879.6,293.1,873.6,295.3,866.9,296.4z"></path> <path style="fill:#FFFFFF;" d="M882.3,501.8c6.6,0.8,11.2,4.1,11.3,12.2c0.1,8.1-5,10.8-11.7,10.9c-7,0.1-13-2.2-12.5-11 C869.8,506.3,873.8,502,882.3,501.8z"></path> <path style="fill:#FFFFFF;" d="M909.4,432.6c7.5-0.7,11.9,3.9,11.9,10.5c0,7.2-5,11.6-12.7,11.6c-7.8,0-12.4-4.6-12.5-11.8 C896,434.9,901.7,432.1,909.4,432.6z"></path> <path style="fill:#FFFFFF;" d="M860.7,566.7c1.4,9.1-2.9,12.5-10.2,12.7c-7.8,0.1-12.4-4.8-12.6-11.9c-0.2-6.8,4.8-12,11.7-11.6 C856,556.1,863.3,558,860.7,566.7z"></path> <path style="fill:#FFFFFF;" d="M266.4,583.8c-0.2,8.4-4.7,12.1-12.3,12.2c-6.8,0.1-11.4-3.5-11.7-10.2c-0.3-7.5,3.9-11.9,11.8-12.2 C261.7,573.3,265.7,576.8,266.4,583.8z"></path> <path style="fill:#FFFFFF;" d="M159.5,530.6c-2.2-2.8-7-6.7-8.5-11.6c-1.8-6.1,5.9-13.9,11.7-11.9c4.9,1.7,11.3,6.7,12.1,11.2 C176.1,524.8,170.7,529.9,159.5,530.6z"></path> <path style="fill:#FFFFFF;" d="M131.9,303.3c-7.5,1-11.6-1.6-11.3-9.8c0.4-7.6,3.9-11.2,11.5-10.8c6.9,0.4,12.3,3.4,12.4,10.6 C144.6,300.8,140.3,305.2,131.9,303.3z"></path> <path style="fill:#FFFFFF;" d="M144.6,384.2c-9.5-1.5-13.2-4.9-13.3-12c-0.2-6.6,3.7-11.4,9.6-10.1c4.6,1,10.6,5.7,11.7,9.8 C153.4,375.1,147.5,380,144.6,384.2z"></path> <path style="fill:#FFFFFF;" d="M471.5,535.5c3.6,15.2,7.3,30.4,11.2,46.9c-5.7,0.5-10.3,0.9-16.9,1.5c1-16.5,1.9-32.2,2.9-47.9 C469.6,535.9,470.5,535.7,471.5,535.5z"></path> <path style="fill:#FFFFFF;" d="M686.6,578.7c-0.6,12.9-1.1,25.7-1.7,40c-4.9-0.4-9.4-0.9-15.7-1.4c5-14,9.5-26.8,13.9-39.5 C684.3,578.1,685.5,578.4,686.6,578.7z"></path> </svg> 