<?xml version="1.0" encoding="UTF-8"?> <svg xmlns="http://www.w3.org/2000/svg" xmlns:xlink="http://www.w3.org/1999/xlink" version="1.1" id="Layer_1" x="0px" y="0px" viewBox="0 0 1000 1000" style="enable-background:new 0 0 1000 1000;" xml:space="preserve"> <path style="fill:#FFFFFF;" d="M636.3,168.8c0,28.4,0,56.9,0,86.5c34,0,66.5,0,100.3,0c0,33.5,0,65.8,0,99.5c28.9,0,56.5,0,85.2,0 c0,33.7,0,66.1,0,99.5c33.6,0,66,0,99.1,0c0,95.3,0,189.4,0,284.2c-32.9,0-65.3,0-98.8,0c0-65.9,0-131.3,0-197.5 c-28.6,0-56.2,0-84.8,0c0,65.3,0,130.7,0,197.6c-33.7,0-66.4,0-99.6,0c0,29.1,0,56.8,0,86c32.7,0,65.4,0,98.6,0 c0,33.6,0,65.7,0,98.5c-66.1,0-131.8,0-198.8,0c0-61.2,0-122.1,0-183.5c-28.9,0-56.4,0-84.9,0c0,61.2,0,121.8,0,183.4 c-66.6,0-132.3,0-198.8,0c0-32.1,0-64.5,0-98c32.6,0,65,0,98.2,0c0-29.1,0-57,0-85.9c-32.9,0-65.3,0-98.8,0c0-66.4,0-131.8,0-198 c-28.6,0-56.2,0-84.8,0c0,65.4,0,130.7,0,197.1c-33.7,0-66.4,0-99.6,0c0-94.1,0-188,0-283.4c32.7,0,65.4,0,99.3,0 c0-33.8,0-66.2,0-99.5c28.5,0,55.8,0,84.5,0c0-33.2,0-65.6,0-99.2c33.7,0,66.1,0,101,0c0-29.9,0-58.6,0-87.2l-0.3,0.3 c27,0.3,54,0.6,81,0.8c5.5,0.1,11,0,17.9,0c0,28.6,0,56.5,0,85c29,0,56.6,0,85.2,0c0-28.2,0-55.9,0-85.9c33.8,0,66.6,0,99.3,0 L636.3,168.8z M451.6,453.9c0-33.4,0-65.7,0-98.3c-33.2,0-65.6,0-98.4,0c0,33,0,65.4,0,98.3C386.1,453.9,418.5,453.9,451.6,453.9z M537.9,453.8c33.6,0,66,0,98.6,0c0-33,0-65.4,0-97.9c-33.3,0-65.9,0-98.6,0C537.9,388.8,537.9,420.9,537.9,453.8z"></path> <path style="fill:#FFFFFF;" d="M353.5,168.8c-33.1,0-66.2,0-99.9,0c0-32.3,0-64.6,0-97.7c32.7,0,65,0,99.6,0c0,32.7,0,65.3,0,98 C353.1,169.1,353.5,168.8,353.5,168.8z"></path> <path style="fill:#FFFFFF;" d="M636.7,169.1c0-32.5,0-65,0-98.1c34,0,66.4,0,99.5,0c0,32.9,0,65.3,0,98.9c-15.4,0-30.5,0.1-45.6,0 c-18.1-0.2-36.2-0.7-54.3-1.1C636.3,168.8,636.7,169.1,636.7,169.1z"></path> </svg> 