<?xml version="1.0" encoding="UTF-8"?> <svg xmlns="http://www.w3.org/2000/svg" xmlns:xlink="http://www.w3.org/1999/xlink" version="1.1" id="Layer_1" x="0px" y="0px" viewBox="0 0 1000 1000" style="enable-background:new 0 0 1000 1000;" xml:space="preserve"> <path style="fill:#FFFFFF;" d="M251.1,320.5c-21.4,0-42.7,0-63.9,0c-0.1-0.2-0.1-0.4-0.2-0.6c2.5-0.7,4.9-1.5,7.4-2.1 c94.1-23.7,188.2-47.4,282.4-71c12.4-3.1,24.7-6.9,37.8-6.4c9.9,0.4,19.2,3.1,28.6,5.8c71.1,20.6,142.1,41.2,213.2,61.9 c57,16.6,114,33.1,170.9,49.7c34.2,10,56.5,39.7,56.3,75.5c-0.2,31.1-1.1,62.3-1.6,93.4c-0.3,14.5-0.9,29-0.8,43.4 c0.3,34-22.3,66.9-61.3,76.6c-90.3,22.3-180.5,45.3-270.7,68c-41.8,10.5-83.5,21-125.3,31.5c-15.6,3.9-30.8,1.9-46.1-2.6 c-72.5-21.2-145-42.2-217.5-63.2c-32.6-9.5-65.1-18.9-97.7-28.4c-0.6-0.2-1.3-0.5-2.8-1.1c30.9,0,61,0,91.3,0 C251.1,540.8,251.1,430.9,251.1,320.5z M299.8,591c1.6,0,3.1,0,4.6,0c50.3,0,100.7,0,151,0c20.3,0,34.5-9.6,42.8-27.9 c6.1-13.5,7.5-27.9,6.6-42.5c-1.2-18.1-10.3-30.8-27.3-37.5c-4.3-1.7-9-2.6-13.4-3.8c15-4.3,23-15.3,26.1-30.1 c1.4-6.7,1.7-13.7,1.6-20.5c-0.2-15.4-6.7-28-18.7-37.5c-15.4-12.2-33.5-17.2-52.7-17.4c-39.1-0.4-78.1-0.1-117.2-0.1 c-1.1,0-2.2,0-3.5,0C299.8,446.2,299.8,518.4,299.8,591z M706.3,374.3c-60,0-119.7,0-179.4,0c0,73.9,0,147.8,0,222 c59.9,0,119.5,0,179.4,0c0-18.7,0-37.3,0-56.3c-34.3,0-68.5,0-102.6,0c0-8.6,0-16.7,0-25.2c29.7,0,59.2,0,88.8,0 c0-19.6,0-38.8,0-58.4c-29.4,0-58.6,0-87.9,0c0-7.7,0-15,0-22.7c34,0,67.8,0,101.7,0C706.3,413.5,706.3,393.8,706.3,374.3z M926,373.9c-65.8,0-131.2,0-196.7,0c0,20,0,39.8,0,60c20.8,0,41.3,0,62.3,0c0,54.4,0,108.4,0,162.5c24.8,0,49.1,0,73.9,0 c0-52.4,0-104.6,0-157.1c20.4,0,40.3,0,60.4,0C926,417.2,926,395.7,926,373.9z"></path> <path style="fill:#FFFFFF;" d="M176.1,322.5c-2.8,17.7-11.6,30.8-25.6,40.6c-14.5,10.2-31,15.4-48.3,18c-10.9,1.6-21.9,2.3-33.1,3.5 c0,22.4,0,45.2,0,68.4c28.6,0,57.2,0,86,0c0,65.7,0,131,0,196.8c-4.6-1.3-9.1-2.5-13.6-3.8c-17.3-5-34.5-10-51.8-15.1 c-34.8-10.4-56.8-41.2-56-77.4c0.8-33.5,1.1-67.1,1.7-100.6c0.3-14.1,0-28.3,1.3-42.4c2.9-32.1,24.3-57.9,55.2-66.5 C119.7,336.2,147.7,329.7,176.1,322.5z"></path> <path style="fill:#FFFFFF;" d="M367.5,510.1c14.1,0,28-0.1,41.9,0.1c2.7,0,5.4,1.1,7.9,2.1c6.1,2.5,9.3,7,9.3,13.9 c-0.1,6.6-1.4,12.8-5.5,18.1c-3.5,4.6-7.8,7.4-14,7.3c-13.1-0.3-26.2-0.1-39.6-0.1C367.5,537.6,367.5,523.7,367.5,510.1z"></path> <path style="fill:#FFFFFF;" d="M369.2,467.4c0-14.1,0-27.8,0-41.5c0.4-0.2,0.8-0.4,1.1-0.4c13.5,0.2,27.1,0.2,40.6,0.6 c3.3,0.1,6.7,1.5,9.8,2.9c4.4,2.1,7.3,5.7,7.6,10.7c0.6,10-1.7,19-10.3,25.2c-2.1,1.5-5.1,2.3-7.6,2.4c-12.5,0.2-25,0.1-37.5,0.1 C371.6,467.4,370.5,467.4,369.2,467.4z"></path> </svg> 