<?xml version="1.0" encoding="UTF-8"?> <svg xmlns="http://www.w3.org/2000/svg" xmlns:xlink="http://www.w3.org/1999/xlink" version="1.1" id="Layer_1" x="0px" y="0px" viewBox="0 0 1000 1000" style="enable-background:new 0 0 1000 1000;" xml:space="preserve"> <path style="fill:#FFFFFF;" d="M251.5,682.9c20.3,19.3,39.4,39.6,57.4,61c8.5,10.5,21.2,16.6,34.7,16.6h58.8 c13.1,0,23.7-10.6,23.7-23.7c0-15.5-9.9-29.2-24.5-34.2l-25.4-8.7c-5-1.7-9.5-4.3-13.4-7.8c-4.9-4.3-9.2-9.2-12.9-14.7 c-4.3-6.7-6.4-14.5-6-22.4c1-26.7,6.3-53.1,15.5-78.2c0.1-0.2,0.2-0.5,0.3-0.8c8.8-23.9,22.4-45.8,39.9-64.4 c9.5,5.4,18.6,11.4,27.3,17.9c-3.7,5.2-7.8,11.4-12,18.4l-27.2,8.3c-5.9,1.7-9.3,7.9-7.6,13.7c1.7,5.9,7.9,9.3,13.7,7.6 c0.1,0,0.2-0.1,0.3-0.1l6.2-1.9c-6.9,15.2-12.3,31-16,47.2c-0.3,1.4-0.6,2.8-0.8,4.2c-2.2-2-4.3-4.1-6.3-6.3 c-3.7-4.2-10-4.9-14.6-1.6l-0.3,0.2c-4.8,3.6-5.9,10.4-2.3,15.2c0,0,0.1,0.1,0.1,0.1c6.2,8.4,14.7,15,24.3,19.1c0,0.1,0,0.2,0,0.2 c1.7,7.3,4.2,14.4,7.4,21.1c4.2,8.8,10.2,16.6,17.6,22.9c7.9,6.8,24.3,15.5,41.8,22.3c7.5,3,12.5,10.3,12.5,18.4 c0,3.1-2.5,5.7-5.7,5.7h-7.5c-6.1,0-11.1,5-11.1,11.1c0,6.1,5,11.1,11.1,11.1h7.5c15.4,0,27.8-12.5,27.8-27.8 c0-17.2-10.6-32.7-26.6-39c-16.6-6.5-30.4-14.2-35.3-18.5c-5-4.3-9.1-9.6-12-15.6c-2.5-5.4-4.5-11-5.8-16.8c-0.3-1.5-0.6-3-0.8-4.6 l0,0c0-0.3-0.1-0.5-0.1-0.8c-0.6-5.3-0.3-10.6,0.8-15.7c5.3-22.9,14-44.8,25.9-65.1l0.1-0.1c4.5-7.7,8.9-14.4,12.8-19.9 c29.2,18.1,62.5,28.2,96.8,29.5c3.4,27.7,15.4,106.7,45.3,171.9c6.4,13.9,20.3,22.9,35.7,22.9h18c15.1,0,27.4-12.3,27.4-27.4 c0-4.7-1.2-9.3-3.5-13.4c-4.1-7.4-9.6-13.8-16.2-19.1c-3.3-2.5-5.3-6.3-5.6-10.5c-1.2-17.1-2.4-59.8,12.9-86.5 c5.1-8.8,13.8-14.9,23.8-16.7c-2.8,9.7-5,19.5-6.7,29.4h-3c-6.1-0.1-11.2,4.8-11.3,10.9s4.8,11.2,10.9,11.3c0.1,0,0.2,0,0.4,0h0.1 c-1.3,14.1-1.7,28.2-1,42.4c0.5,11.2,6.2,21.5,15.4,28c5.8,3.9,10.8,8.8,14.8,14.5c2,2.8,2.2,6.5,0.5,9.6c-1.6,3.2-4.9,5.2-8.5,5.2 c-6.1,0-11.1,5-11.1,11.1c0,6.1,5,11.1,11.1,11.1h0.1c11.8,0,22.6-6.6,28.1-17.1c5.4-10.3,4.7-22.8-1.9-32.4 c-5.5-7.9-12.5-14.8-20.5-20.2c-3.5-2.5-5.6-6.5-5.8-10.8c-0.8-16.4-0.1-32.8,2.1-49.1c0.3-1.1,0.5-2.2,0.5-3.3c0-0.2,0-0.3,0-0.5 c1.9-13.9,5.1-27.5,9.4-40.9c4.1,0,8.5-0.1,13.2-0.2c6.1-0.3,10.9-5.4,10.6-11.6c-0.3-6-5.2-10.7-11.2-10.6 c-7.7,0.2-14.7,0.3-20.9,0.3c-3.5,0-6.8,0-9.7,0.1c-20.1,0.4-38.5,11.2-48.6,28.6c-17.7,30.9-17.5,75.3-15.8,99.1 c0.8,10.3,5.8,19.9,14,26.3c4.3,3.4,7.9,7.6,10.6,12.4c0.9,1.6,0.9,3.6-0.1,5.2c-0.9,1.6-2.6,2.6-4.5,2.6h-18 c-6.7,0-12.7-3.9-15.5-10c-13.2-30.1-23.4-61.3-30.5-93.4c3.6,1.6,6.9,3.7,9.8,6.4c4.6,4.1,11.6,3.7,15.7-0.9 c4.1-4.6,3.7-11.6-0.9-15.7c-8.2-7.7-18.6-12.6-29.8-14.2c-6.1-31-8.5-53.8-8.8-56.7l-1.6-48.3c13-6.2,24.5-15.2,33.7-26.3 c3.8-4.8,3-11.8-1.8-15.6c-4.8-3.8-11.8-3-15.6,1.8c-7.3,9.1-17.2,16.3-32.3,23.1l0,0c-0.7,0.3-1.3,0.7-1.9,1.1 c-0.3,0.2-0.5,0.4-0.8,0.7c-0.3,0.2-0.6,0.5-0.9,0.8c-0.3,0.3-0.5,0.6-0.7,0.9c-0.2,0.3-0.4,0.5-0.6,0.8c-0.2,0.3-0.3,0.6-0.4,0.9 c-0.2,0.4-0.4,0.7-0.5,1.1c-0.1,0.3-0.2,0.7-0.3,1s-0.2,0.7-0.3,1.1c-0.1,0.7-0.2,1.5-0.2,2.2l0,0l1.4,44.3 c-32.6-1.6-68.5-13.8-92.1-32.1c-11.9-9.4-24.5-17.9-37.7-25.4c2.3-11.5,3.3-23.2,2.9-34.8c25.6,22.8,56,39.6,88.9,49.2 c5.8,1.8,12.1-1.4,13.9-7.3c1.8-5.8-1.4-12.1-7.3-13.9c-0.1,0-0.2,0-0.2-0.1c-69.5-20.9-100.7-66.5-101-66.9 c-3.4-5.1-10.3-6.5-15.4-3.1c-3.7,2.5-5.6,7-4.8,11.4c5,25.2,5,46.8,0.2,65.7c-20,19.9-35.7,43.6-46.1,69.8 c-7.3,1-14.8,1.1-22.1,0.3c-6.1-0.8-11.6,3.5-12.4,9.6c-0.8,6.1,3.5,11.6,9.6,12.4c0,0,0.1,0,0.1,0c4.2,0.5,8.3,0.8,12.5,0.7 c1.4,0,2.8,0,4.2-0.1c-6.7,22.4-10.5,45.6-11.5,69c-0.6,12.5,2.8,24.9,9.6,35.4c4.7,7,10.3,13.5,16.7,19c6.1,5.4,13.3,9.6,21,12.2 l25.4,8.7c5.7,1.9,9.5,7.3,9.5,13.2c0,0.8-0.7,1.5-1.5,1.5h-58.8c-6.8,0-13.2-3.1-17.5-8.4c-18.6-22.1-38.4-43.2-59.3-63.1 c-5.2-5-7.8-12.1-7.1-19.3c2.4-24.3,3.4-48.8,3.1-73.3c0-7.8-1.6-15.5-4.5-22.8c-10.7-26.3-30.3-59.6-44.8-83 c-6.8-11-9.9-23.9-8.8-36.8l2.4-27.6c0.6-6.1-3.8-11.5-9.9-12.2c-6.1-0.6-11.5,3.8-12.2,9.9c0,0.1,0,0.2,0,0.3l-2.4,27.6 c-1.5,17.7,2.7,35.4,12.1,50.4c11.6,18.5,32.5,53.5,43.1,79.6c1.9,4.6,2.8,9.6,2.8,14.6c0.3,23.6-0.8,47.2-3,70.7 C236.4,659.2,241.4,673.1,251.5,682.9z"></path> <path style="fill:#FFFFFF;" d="M966.5,463.5c-0.3-4.5-3.3-8.4-7.6-9.9c-1-0.3-22.4-7.2-52.4,1.5c-29.6-52.5-68.1-99.3-113.9-138.4 c-11.4-9.6-24-17.8-37.3-24.5c-0.2-0.1-0.4-0.2-0.6-0.3c-25.1-12.6-52.6-19.7-80.7-20.7c-38.8-1.3-95.6-6-146.4-21.5 c-56.7-14.9-115.3-20.9-173.9-17.7c-86.5,5.7-167.2,45.1-224.8,109.9l-0.1,0.1l0,0c-30.8,35.1-55.3,75.3-72.5,118.7l0,0.1 c-0.7,1.7-1.3,3.3-2,5c-4.2,11-7.8,22.2-10.8,33.6c0,0.2-0.1,0.3-0.1,0.5c-14.7,55.5-13.5,109.8,3.3,161c0.2,0.8,0.4,1.6,0.8,2.4 c9.8,28.4,23.8,55.2,41.6,79.4c2,2.8,50,69.6,149.2,95.8c22,5.7,44.4-7.6,50-29.6c5-19.4-4.7-39.5-22.9-47.7 c-26.8-12.1-65.4-33.4-96.6-66.5C125.6,648.9,110,582,128,520c8.8-30.3,22.1-56.1,39.5-76.8c3.9-4.7,3.2-11.7-1.5-15.6 c-4.7-3.8-11.5-3.2-15.4,1.3c-3.7,4.3-7.1,8.9-10.4,13.7l-10.6-6.5c-5.3-3.1-12.1-1.4-15.2,3.8c-3.1,5.2-1.5,11.9,3.7,15.1l10.4,6.3 c-9.2,16.6-16.4,34.1-21.7,52.4c-16.6,56.5-8.1,117.4,23.4,167.2c1.5,4.1,9.4,26.6,6,44.1c-1.2,6,2.7,11.8,8.7,13 c6,1.2,11.8-2.7,13-8.7c0,0,0-0.1,0-0.1c0.8-4.2,1.2-8.5,1.2-12.9c23.7,22.9,50.8,42,80.3,56.8c-1.3,4.3-3.4,8.3-6.2,11.9 c-4.6,4.1-5,11.1-0.9,15.7c4,4.5,11,5,15.6,1c5.2-5.3,9.1-11.6,11.5-18.6c7,5,9.8,14,6.8,22.1c-3.3,9.1-12.9,14.1-22.3,11.7 c-23.2-6.1-45.4-15.3-66.2-27.2c3-1.2,5.9-2.7,8.6-4.3c5.3-3,7.3-9.7,4.3-15.1c-3-5.4-9.7-7.3-15.1-4.3c-0.1,0.1-0.2,0.1-0.4,0.2 c-7,4.2-14.9,6.5-23.1,6.7c-29.8-22.1-44.8-42.7-45.1-43.2C94,711.8,83,692.5,74.4,672.1c10.3,4.4,17.6,13.7,19.6,24.8 c1.1,6,6.9,10,12.9,8.9c5.9-1.1,9.9-6.8,8.9-12.7c-4.4-24.9-25.2-43.7-50.4-45.6c-12.5-41.9-13.8-86.2-3.8-128.7 c3.8,3.8,7.3,10.9,6.5,23.7c-0.4,6.1,4.2,11.4,10.4,11.8c0,0,0,0,0,0c0.2,0,0.5,0,0.7,0c5.8,0,10.7-4.5,11.1-10.4 c1.8-27.6-10.7-41.7-22.6-47.9c1.9-6.1,3.9-12.3,6.2-18.4l16,2.8c0.6,0.1,1.3,0.2,1.9,0.2c6.1,0,11.1-5,11.1-11.1 c0-5.4-3.9-10-9.2-10.9l-11.4-2c12.2-27.5,27.4-53.5,45.4-77.6c1.2,6.7,3.1,13.4,5.5,19.8c2.2,5.7,8.7,8.5,14.4,6.3 c5.7-2.2,8.5-8.7,6.3-14.4c-4.4-11.6-6.4-24-5.9-36.5c53.5-58.9,127.8-94.7,207.2-99.9c9.9-0.6,19.6-0.9,29.1-0.8 c9.8,17.9,23.7,29.5,40.7,33.6c3.4,0.8,6.9,1.2,10.4,1.2c4.6,0,9.2-0.7,13.6-1.9c5.9-1.6,9.4-7.6,7.9-13.6 c-1.6-5.9-7.6-9.4-13.6-7.9c0,0-0.1,0-0.1,0c-4.2,1.3-8.7,1.4-12.9,0.5c-7.1-1.8-13.6-5.7-18.4-11.3c37,1.9,73.7,7.6,109.6,16.9 c4.2,1.3,8.5,2.5,12.8,3.6c2.9,16.2,12.8,30.3,27,38.6c5.3,3.1,12.1,1.3,15.2-4.1c3.1-5.3,1.3-12.1-4.1-15.2 c-5.5-3.1-9.9-7.8-12.8-13.4c32.7,6.5,65.8,10.6,99,12.2c5.1,17.4,17.3,29.9,35.7,36.4c5.6,2,11.5,3,17.5,3 c13.7,0,27.4-5.6,40.5-16.5c9.3,5.2,18,11.3,26.2,18.1c8.4,7.1,16.4,14.4,23.9,21.7c2.6,3.4,19.5,26.8,21.2,65.9 c0.3,5.9,5.1,10.6,11.1,10.6c0.2,0,0.3,0,0.5,0c6.1-0.3,10.9-5.4,10.6-11.6c-0.3-6.3-0.9-12.5-1.9-18.7 c12.1,15.3,23.4,31.3,33.7,47.9c-4.4-1-9.1-1.9-14-2.6c-6.1-0.9-11.7,3.3-12.6,9.3c-0.9,6.1,3.3,11.7,9.3,12.6c0.1,0,0.2,0,0.3,0 c12.4,1.8,24.6,5.1,36.3,9.8c0.1,0.1,0.3,0.1,0.4,0.1c0.3,0.1,0.7,0.2,1,0.3c0.4,0.1,0.7,0.2,1.1,0.3c0.3,0.1,0.7,0.1,1,0.1 c0.3,0,0.7,0,1.1,0c0.4,0,0.7,0,1-0.1c0.4,0,0.7-0.1,1.1-0.2c0.3-0.1,0.7-0.2,1-0.3c0.2-0.1,0.4-0.1,0.6-0.2c12.4-5,25.8-7,39.1-5.7 c-1.3,12.9-7,25-16.3,34c-3.2,2.7-4.5,7-3.6,11c4.3,17.4,5.5,35.5,3.6,53.3c-0.9,7.7-5,14.7-11.2,19.3 c-19.5,14.8-37.1,36.6-45.9,48.4c-2.5,3.3-6.4,5.3-10.6,5.3h-27.2c-4.1,0-8-1.9-10.5-5.2c-8.7-11.7-26.3-33.6-45.9-48.4 c-6.3-4.6-10.3-11.6-11.2-19.4c-1.9-17.8-0.7-35.8,3.6-53.2c1-4-0.4-8.3-3.6-11c-9.3-9-15.1-21.1-16.4-34 c13.3-1.2,26.7,0.7,39.1,5.7c2.7,1,5.7,1,8.3-0.2c0,0,3.7-1.6,9.4-3.4c5.8-1.9,9-8.2,7.1-14c-1.9-5.8-8.2-9-14-7.1 c-2.8,0.9-5.2,1.8-7,2.5c-32.7-11.2-56.6-3.5-57.7-3.1c-4.3,1.4-7.3,5.3-7.6,9.9c-1.1,20.3,5.8,40.3,19.3,55.6 c-3.8,18.1-4.7,36.6-2.7,54.9c1.7,13.7,8.8,26.2,19.9,34.5c5.3,4.1,10.4,8.5,15.1,13.3c-6.7,2.1-13.4,4.5-19.8,7.3 c-5.6,2.4-8.3,8.9-5.9,14.5c2.4,5.6,8.9,8.3,14.5,5.9c0.1,0,0.1-0.1,0.2-0.1c9-3.8,18.2-6.9,27.7-9.3c3.9,4.7,7.2,9,9.7,12.4 c6.7,8.9,17.2,14.1,28.3,14.1h27.2c0.3,0,0.5,0,0.8,0c0,0,0.1,0,0.1,0c19.2,2.7,37,11.3,50.9,24.7c4.5,4.2,11.5,4,15.7-0.5 c4.2-4.5,4-11.5-0.5-15.7l0,0c-11-10.3-23.8-18.5-37.8-24c8.3-11,23.8-30,40.6-42.7c11-8.3,18.2-20.7,19.8-34.4 c2-18.4,1.1-36.9-2.7-55C960.7,503.8,967.6,483.9,966.5,463.5z M701.5,308.2c-7.7-2.3-14.3-7.4-18.5-14.1 c15.8,1.4,31.4,5.1,46.2,10.7C720.9,310,710.7,311.3,701.5,308.2z"></path> <path style="fill:#FFFFFF;" d="M252.5,364.8c-6.8,5.5-10.8,13.8-10.8,22.5c-0.3,6.6,1.3,13.2,4.5,19c3,5,9.7,10.6,24.2,10.6 c1.1,0,2.3,0,3.5-0.1c6.8-0.4,13.2-3.2,18.1-7.8l10.7-10c11.8-11,12.4-29.4,1.4-41.2c-10.4-11.2-27.7-12.4-39.6-2.8L252.5,364.8z M266.5,382.1l12-9.7c3-2.4,7.4-1.9,9.8,1.1c2.3,2.8,2,6.9-0.7,9.4l-10.7,10c-1.1,1.1-2.6,1.7-4.2,1.9c-2.6,0.3-5.3,0.1-7.8-0.6 c-0.7-2.2-1.1-4.5-1-6.8C263.9,385.3,264.9,383.4,266.5,382.1L266.5,382.1z"></path> <path style="fill:#FFFFFF;" d="M484.9,299.8c-5.7-0.5-11.4-0.5-17.1-0.2l0,0c-7.8,0.4-15.4,2.5-22.3,6.2 c-12.7,6.8-19.5,17.3-19.4,29.7c-0.2,10.9,6.2,20.8,16.2,25c4.2,1.9,8.7,2.8,13.3,2.8c4.3,0,8.5-0.8,12.5-2.3l24.3-9.3 c13.9-5.3,20.8-20.9,15.5-34.7C504.3,307.3,495.3,300.6,484.9,299.8L484.9,299.8z M484.6,331l-24.3,9.3c-2.8,1.2-5.9,1.2-8.6,0 c-1.8-0.6-3-2.1-3.2-4c0-0.3,0-0.7,0-1c0-1.6-0.2-5.8,7.7-10c4.1-2.1,8.7-3.4,13.3-3.6c4.6-0.3,9.2-0.2,13.7,0.2 c2.5,0.2,4.4,2.2,4.5,4.7C487.6,328.6,486.4,330.3,484.6,331z"></path> <path style="fill:#FFFFFF;" d="M478.9,383.7l-6.1,2.8c-13.3,6.1-19.2,21.8-13.3,35.2c4.3,9.2,12.4,16,22.3,18.4c2.3,0.7,4.7,1,7.1,1 c4.6,0,9.2-1.2,13.3-3.5l17.7-10c12.9-7.3,17.5-23.7,10.2-36.7c-5-8.9-14.5-14.1-24.7-13.7C496.2,377.8,487.3,379.9,478.9,383.7 L478.9,383.7z M482.2,406.7l6.1-2.8c5.7-2.6,11.8-4,18-4.3c2.3-0.1,4.4,1.5,4.9,3.7c0.5,2-0.5,4.1-2.3,5.1l-17.7,10 c-1,0.6-2.1,0.8-3.2,0.5c-3.6-0.7-6.7-3-8.3-6.3C478.8,410.3,479.9,407.7,482.2,406.7z"></path> <path style="fill:#FFFFFF;" d="M574.8,335.5c-13.4,0.9-24.6,10.5-27.5,23.6c-3.2,12.7,2.3,26.1,13.5,32.9l0.7,0.4 c9.1,4.9,19.4,7.2,29.7,6.9c1.9,0,3.8-0.1,5.8-0.2c13.5-0.9,24.8-10.4,28-23.5l0-0.2c3.5-14.3-3.9-29.1-17.4-34.9 C597.3,336.2,586,334.5,574.8,335.5z M599,360.9c3.6,1.7,5.5,5.6,4.5,9.4l0,0.1c-0.8,3.6-4,6.3-7.7,6.5c-9.8,0.6-18-0.7-23.1-3.7 l-0.3-0.2c-3.1-1.8-4.5-5.4-3.6-8.8c0.8-3.7,3.9-6.4,7.6-6.6c1.5-0.1,3.1-0.2,4.6-0.2C587.2,357.4,593.3,358.6,599,360.9L599,360.9z "></path> <path style="fill:#FFFFFF;" d="M627.8,442.4c-14.4,7.7-19.7,25.7-12,40.1c5.2,9.6,15.2,15.5,26,15.5h14.4c11,0,21.1-6.1,26.2-15.8 l3.1-5.8c6.8-13,3-29-8.8-37.7l-2.8-2l0,0c-9.2-6.6-21.4-7.4-31.4-2.1L627.8,442.4z M656.5,453.1c1.6,0,3.1,0.5,4.3,1.4l2.8,2 c3,2.2,3.9,6.2,2.2,9.4l-3.1,5.8c-1.3,2.4-3.8,3.9-6.5,3.9h-14.4c-4.1,0-7.4-3.3-7.4-7.3c0-2.7,1.5-5.3,3.9-6.6L653,454 C654.1,453.4,655.3,453.1,656.5,453.1L656.5,453.1z"></path> <path style="fill:#FFFFFF;" d="M359.4,309.8l-18.2,8.4c-3,1.4-6.5,1.4-9.5,0c-5.5-2.7-12.1-0.4-14.8,5.1c-2.7,5.5-0.4,12.1,5.1,14.8 c0.2,0.1,0.4,0.2,0.6,0.3c8.9,4,19.1,3.9,27.9-0.1l18.2-8.4c13.9-6.4,20-22.9,13.6-36.8c-4.4-9.6-13.9-15.8-24.4-16.1l-20.1-0.5 c-6.1-0.2-11.2,4.6-11.4,10.7c-0.2,6.1,4.6,11.2,10.7,11.4c0,0,0.1,0,0.1,0l20.1,0.5c3.1,0.1,5.5,2.6,5.4,5.7 C362.5,307,361.3,308.9,359.4,309.8L359.4,309.8z"></path> <path style="fill:#FFFFFF;" d="M782.9,691.4c5.2-4.9,10.9-9.2,17-12.8c5.3-3.1,7.1-9.9,4-15.2c-3.1-5.3-9.9-7.1-15.2-4 c0,0-0.1,0-0.1,0.1c-7.5,4.5-14.5,9.7-20.9,15.7c-4.5,4.1-4.8,11.2-0.7,15.7c4.1,4.5,11.2,4.8,15.7,0.7 C782.8,691.5,782.9,691.5,782.9,691.4L782.9,691.4z"></path> <path style="fill:#FFFFFF;" d="M936.4,629.2c-2.4-1.1-4.9-2-7.3-3c-5.8-2.1-12.1,0.9-14.2,6.7c-2,5.6,0.8,11.9,6.3,14.1 c2.1,0.8,4.3,1.7,6.4,2.6c5.6,2.5,12.2-0.1,14.6-5.7C944.7,638.2,942.1,631.6,936.4,629.2C936.5,629.2,936.5,629.2,936.4,629.2z"></path> <path style="fill:#FFFFFF;" d="M824.2,567.4l-6.8-4c-5.3-3.1-12.1-1.3-15.2,3.9c-3.1,5.3-1.3,12.1,3.9,15.2l6.8,4 c5.2,3.2,12.1,1.5,15.2-3.7c3.2-5.2,1.5-12.1-3.7-15.2C824.4,567.5,824.3,567.4,824.2,567.4L824.2,567.4z"></path> <path style="fill:#FFFFFF;" d="M826,497.2c-4.6-4.1-11.6-3.7-15.7,0.8c0,0,0,0,0,0c-9.2,11.6-12.9,26.5-10.3,41 c0.9,5.3,5.5,9.3,10.9,9.3c0.6,0,1.2-0.1,1.8-0.2c6-1,10.1-6.7,9.1-12.8c0,0,0,0,0,0c-1.6-7.9,0.2-16.1,5-22.6 C830.9,508.2,830.5,501.2,826,497.2z"></path> <path style="fill:#FFFFFF;" d="M876,563.4l-6.8,4c-5.3,3-7.2,9.8-4.1,15.1s9.8,7.2,15.1,4.1c0.1,0,0.2-0.1,0.2-0.1l6.8-4 c5.3-3.1,7-9.9,3.9-15.2C888,562,881.3,560.3,876,563.4L876,563.4z"></path> <path style="fill:#FFFFFF;" d="M883,498c-4.2-4.5-11.2-4.8-15.7-0.6c-4.4,4.1-4.8,11-0.8,15.5c4.6,6.5,6.4,14.7,4.9,22.5 c-1,6,3.1,11.8,9.1,12.8c0,0,0,0,0,0c0.6,0.1,1.2,0.2,1.8,0.2c5.4,0,10-3.9,10.9-9.3C896,524.5,892.2,509.6,883,498z"></path> <path style="fill:#FFFFFF;" d="M376.7,393.5c5.9,1.6,12-2,13.5-7.9c0.1-0.5,0.2-1,0.3-1.5c0.5-5.7-3.2-10.9-8.8-12.2 c-5.5-1.5-11.1-2.1-16.8-1.8c-6.2,0.5-10.8,6-10.3,12.2c0.5,6,5.7,10.6,11.7,10.3C369.8,392.4,373.3,392.8,376.7,393.5z"></path> <path style="fill:#FFFFFF;" d="M289.9,447.7c-1,6.1,3.2,11.7,9.2,12.7c0.1,0,11.5,2.3,13.2,21c0.5,5.7,5.3,10.1,11,10.1 c0.3,0,0.7,0,1,0c6.1-0.6,10.6-6,10-12.1c-3.3-36-30.6-40.7-31.8-40.9C296.6,437.5,290.9,441.6,289.9,447.7z"></path> <path style="fill:#FFFFFF;" d="M276.6,484.2c-5.2-4.7-9.4-10.3-12.5-16.5c-2.8-5.5-9.4-7.7-14.9-4.9c-5.5,2.8-7.7,9.4-4.9,14.9 c0.1,0.1,0.1,0.2,0.2,0.3c4.4,8.6,10.2,16.3,17.3,22.7c4.6,4.1,11.6,3.6,15.7-1C281.4,495.1,281,488.3,276.6,484.2L276.6,484.2z"></path> <path style="fill:#FFFFFF;" d="M276.3,562.8c4.8,3.8,11.8,3.1,15.6-1.7c3.8-4.8,3.1-11.8-1.7-15.6c-0.1-0.1-0.2-0.1-0.2-0.2 c-0.7-0.5-1.3-1.1-1.9-1.7c-4.2-4.4-11.3-4.6-15.7-0.3c-4.4,4.2-4.6,11.2-0.4,15.6C273.4,560.3,274.8,561.6,276.3,562.8z"></path> <path style="fill:#FFFFFF;" d="M303.3,601.2c-5.2-3.2-12-1.7-15.3,3.5c0,0,0,0,0,0c-4.8,7.6-9.7,16.9-10.1,28 c-0.3,6.1,4.5,11.3,10.6,11.6c0,0,0,0,0,0c0.2,0,0.3,0,0.5,0c5.9,0,10.8-4.7,11.1-10.6c0.2-4.7,2.2-9.8,6.8-17.2 C310.1,611.3,308.5,604.5,303.3,601.2z"></path> <path style="fill:#FFFFFF;" d="M237.4,306.1c-11.3,3.4-22.3,14.5-24.4,16.6c-4.2,4.4-4.1,11.4,0.3,15.7c4.4,4.2,11.4,4.1,15.7-0.3 c3.5-3.7,10.5-9.5,14.8-10.7c5.8-1.8,9.1-8,7.3-13.9C249.3,307.7,243.2,304.4,237.4,306.1z"></path> <path style="fill:#FFFFFF;" d="M612.4,321.9c1.3-0.1,2.5-0.3,3.8-0.4c6.1-0.7,10.4-6.2,9.7-12.3c-0.7-6.1-6.2-10.4-12.3-9.7l0,0 c-1.1,0.1-2.2,0.2-3.2,0.3c-6.1,0.6-10.6,6-10,12.1c0.5,5.7,5.3,10.1,11.1,10.1C611.7,322,612,321.9,612.4,321.9z"></path> <path style="fill:#FFFFFF;" d="M538.8,442c0,6.1,5,11.1,11.1,11.1h5.6c6.1,0,11.1-5,11.1-11.1c0-6.1-5-11.1-11.1-11.1h-5.6 C543.7,431,538.8,435.9,538.8,442z"></path> <path style="fill:#FFFFFF;" d="M658.3,388.3c0.7-0.1,16.7-2.4,23.4,17c2,5.8,8.4,8.8,14.2,6.8c5.7-2,8.7-8.2,6.9-13.9 c-10.1-29.5-35.7-33.7-47.8-31.8c-6.1,0.9-10.3,6.5-9.4,12.6c0.9,6.1,6.5,10.3,12.6,9.4C658.2,388.3,658.2,388.3,658.3,388.3 L658.3,388.3z"></path> <path style="fill:#FFFFFF;" d="M718.3,437.5h6.5c6.1,0,11.1-5,11.1-11.1c0-6.1-5-11.1-11.1-11.1l0,0h-6.5c-6.1,0-11.1,5-11.1,11.1 C707.2,432.5,712.1,437.5,718.3,437.5z"></path> <path style="fill:#FFFFFF;" d="M766.2,350c-24.8-16-45.3-6-52.6,1.6c-4.3,4.4-4.3,11.4,0.1,15.7c2.1,2.1,4.9,3.2,7.8,3.2 c2.9,0,5.8-1.2,7.8-3.3c1.6-1.4,10-8.2,24.9,1.4c5.1,3.4,12,2,15.4-3.2s2-12-3.2-15.4C766.3,350.1,766.3,350.1,766.2,350z"></path> <path style="fill:#FFFFFF;" d="M754.6,399.6c-1.2,6,2.7,11.8,8.7,13c3.8,0.9,7.4,2.7,10.5,5.1c4.6,4,11.6,3.5,15.7-1.2 c4-4.6,3.5-11.6-1.2-15.7c-6-5-13.2-8.5-20.8-10.1C761.5,389.7,755.8,393.6,754.6,399.6z"></path> <path style="fill:#FFFFFF;" d="M599.2,540.8c5.4-2.9,7.4-9.7,4.4-15c0,0,0,0,0,0l-1.5-2.7c-3-5.3-9.8-7.2-15.1-4.2 c-5.2,3-7.1,9.5-4.4,14.8l1.5,2.7C587.1,541.8,593.8,543.8,599.2,540.8C599.2,540.8,599.2,540.8,599.2,540.8z"></path> <path style="fill:#FFFFFF;" d="M671.4,521.1c-3.5,1.5-7.3,2.2-11.1,2c-4.1-0.3-8.1,1.7-10.3,5.2l-0.2,0.4c-3.1,5.1-1.5,11.9,3.6,15 c1.5,0.9,3.1,1.4,4.8,1.6c1.1,0.1,2.2,0.1,3.4,0.1c6.5,0,12.9-1.4,18.9-4c5.6-2.4,8.3-8.9,5.8-14.6c-0.1-0.3-0.2-0.5-0.3-0.7 C683.1,520.8,676.8,518.7,671.4,521.1z"></path> <path style="fill:#FFFFFF;" d="M614.6,586.2c0.7-2.7,1.8-5.3,3.2-7.7c3-5.3,1.2-12.1-4.1-15.1c-5.2-3-11.9-1.3-15,3.8 c-2.4,4.1-4.2,8.4-5.5,13c-1.7,5.9,1.6,12,7.5,13.8c1,0.3,2.1,0.5,3.2,0.5C608.9,594.3,613.3,591,614.6,586.2z"></path> <circle style="fill:#FFFFFF;" cx="79.1" cy="590.6" r="11.4"></circle> <circle style="fill:#FFFFFF;" cx="291.9" cy="516" r="11.4"></circle> <circle style="fill:#FFFFFF;" cx="227.4" cy="436.1" r="11.4"></circle> <circle style="fill:#FFFFFF;" cx="351.2" cy="425.4" r="11.4"></circle> <circle style="fill:#FFFFFF;" cx="276.9" cy="301.6" r="11.4"></circle> <circle style="fill:#FFFFFF;" cx="418.4" cy="377.1" r="11.4"></circle> <circle style="fill:#FFFFFF;" cx="300.9" cy="672.3" r="11.4"></circle> <circle style="fill:#FFFFFF;" cx="600.6" cy="666.4" r="11.4"></circle> </svg> 