<?xml version="1.0" encoding="UTF-8"?> <svg xmlns="http://www.w3.org/2000/svg" xmlns:xlink="http://www.w3.org/1999/xlink" version="1.1" id="Layer_1" x="0px" y="0px" viewBox="0 0 1000 1000" style="enable-background:new 0 0 1000 1000;" xml:space="preserve"> <path style="fill:#FFFFFF;" d="M59.7,490.2c3.2-10.2,5.7-20.7,9.8-30.5c10.4-24.9,27.5-43.9,51.7-56.2c4.4-2.2,5.7-4,4.9-9.4 c-1.2-8.5-4.1-13.8-12.2-17.8c-4.1-2-7.7-8.4-8.2-13.1c-0.8-6.6,3.4-12.9,10.2-14.9c5.2-1.5,6.4-5.2,8.2-8.9 c4.8-9.9,9.4-19.9,14-29.9c13.5-29.2,39.7-39.8,68.6-46.1c4.2-0.9,6.2-1.9,6.8-6.8c0.4-4,3.6-7.7,5.3-11.6c0.7-1.6,1.1-3.4,1.2-5.1 c0.6-10.3,0-20.8,1.9-30.9c1.4-7.9,4.8-15.9,9.1-22.8c4-6.4,10-9.9,19.1-10.2c31-0.9,61.1,6.6,91.8,8.3c34.3,2,68.6,4.6,102.9,6 c51,2,102,2.3,153-1.7c39.1-3.1,78.2-6.4,117.2-9.9c8.6-0.8,17.1-2.4,25.6-3.8c11.3-1.9,31.5,8.9,38,20.5c5.9,10.5,8.7,21.9,9.5,34 c0.5,7.3,2.8,14.4,4.3,21.6c0.1,0.7,0.6,1.4,0.5,2c-0.5,7.6,0.5,13.8,10.9,11.4c-0.2,3.3-0.3,5.7-0.5,7.7c15.4,3.3,28.3,11.2,41,19 c8.6,5.3,16.2,12.1,24,18.6c2.2,1.8,3.5,4.8,5,7.4c5.1,8.9,10,17.9,15.1,26.8c0.8,1.4,2.1,2.8,3.5,3.5c5,2.5,8.2,5.9,9.6,11.7 c1.8,6.9,0.8,15-5.7,17.9c-9.4,4.3-10.8,11.7-11.2,19.6c9.9,6.8,20.2,12.5,28.9,20c27,23.2,41.3,52.7,41.6,88.7 c0.2,24.5-5.7,47.2-19.1,67.6c-10.3,15.8-25.9,25.8-42,34.9c-4.5,2.5-8.4,4.6-6.6,10.7c0.3,1.1,0.1,2.3,0,3.5 c-0.3,7.6,1,13.7,9.9,16.4c6.9,2.1,13.2,6.3,14,14.7c1,10.3-5.7,18-17.5,19.2c-5.4,0.6-8.5,2.5-10.9,7.8 c-13.3,30.1-38,47.6-67.5,59.3c-26.7,10.6-54.7,15.4-83.2,17.1c-25.7,1.5-51.4,1.5-77.1,3.1c-11.8,0.7-23.4,3.7-35.1,5.6 c-1.4,0.2-3.6,0.6-4.3-0.1c-9.2-9.3-19.2-5.5-29.2-1.9c-6,2.1-11.8,4.5-17.7,6.8c-0.6-0.7-1.3-1.3-1.9-2c1.2-1.5,2.2-3.9,3.8-4.4 c18.4-5.3,36.7-11.2,55.4-15.1c23.6-4.9,47.6-5.2,71.8-5.1c39,0.2,78-2.4,114.8-17.7c24.9-10.3,45.2-25.6,54.9-52.1 c1.8-4.9,0.4-6.5-3.4-9.9c-11.5-10.1-20.2-22.6-25.8-36.9c-5.1-12.7-10.3-25.4-14.3-38.5c-2.4-7.9-3-16.4-4-24.7 c-1.7-15.1-2.8-30.3-4.5-45.4c-0.3-2.6-2.8-5-4.6-8c8.5-4.2,3.5-12.8,4.4-19.8c1.6-13.3,2.1-26.7,3.2-40c0.5-6.1-0.3-11.5-5.1-15.9 c-0.8-0.8,0.3-3.9,0.8-5.8c0.1-0.5,2.3-0.5,2.4-0.9c1.1-7,7.1-11.1,10.1-16.8c6.3-11.7,11.5-24,17-36.2c1.9-4.2,1.9-10.6,4.9-12.5 c6-3.8,6.7-9.9,9.8-14.9c1.3-2.1,2.4-5.6,1.5-7.6c-7-16-18.1-28.4-34-36.2c-11.8-5.7-23.9-9.9-36.5-10c-2.5,12.6-3.9,25.3-7.7,37.2 c-2.8,8.8-7.9,17.4-13.7,24.6c-4.6,5.7-11.9,6.9-20.1,5.7c-18.9-2.7-38.1-4-57.1-6c-15.7-1.6-31.3-3.4-47.2-5.1 c1.8,4.1,3.4,7.6,4.6,11.3c0.1,0.3-2.9,1.5-3.5,1.9c-4.9-5.4-8.6-11.1-13.8-14.8c-8.6-6.2-18.3-6.9-28-1.6c-1.2,0.6-2.6,1.2-3.9,1.2 c-26.2-0.4-52.5-1-78.7-1.2c-26.3-0.2-52.6-0.3-78.9,0.1c-20,0.4-40,1.4-59.9,2.8c-29.8,2-59.6,4.4-89.4,7.1 c-12.8,1.2-25.6,3.4-38.4,5.3c-8.1,1.2-14.6-1.6-19.4-7.8c-9.5-12.1-12.8-26.7-15.6-41.4c-1.1-5.6-1.3-11.5-1.9-17.9 c-12.8,0.9-24.4,5-35.1,11.3c-11.7,6.9-21.1,16.3-28.3,28.1c-3.2,5.2-1.6,7.8,1.4,11.4c5.1,6,7.9,12.8,9,20.8 c0.5,4,4.4,7.4,6.1,11.3c4,9.2,7.4,18.7,11.5,27.9c3.7,8.3,6.4,17.3,15.3,22.2c1,0.5,1.8,3.4,1.3,4.1c-6.3,8.9-5.2,18.6-3.6,28.5 c1,6.5,1.1,13.3,1,19.9c-0.1,10.5,3.1,19.4,11,26.6c0.8,0.8,1.4,1.8,2,2.8c0.1,0.2,0.1,0.5,0.1,1.1c-8.3,10-11.5,22.1-12.6,35.2 c-0.8,10-3.6,19.8-5.3,29.8c-0.6,3.6-0.3,7.4-0.5,11.1c0,0.6,0,1.7-0.2,1.8c-7.5,2.4-5.8,9.9-7.4,15c-6.7,20.6-15.5,39.7-31.3,55 c-1.5,1.5-2.9,3.4-4.8,4.1c-8.6,3.1-6.1,8.5-3.5,14.3c12.1,26.2,33.6,41.4,59.9,51c31.3,11.5,64.1,14.4,97.1,15.4 c20,0.6,40.1,0.6,60.1,1.6c8.4,0.4,16.7,2.4,24.4,3.6c-2.1,3.4-3.8,6.7-6,9.5c-1,1.2-3.1,2.2-4.7,2.1c-5.6-0.1-11.1-0.9-16.6-1.1 c-21.2-0.7-42.5-1-63.7-2c-34.2-1.6-68-5.7-100.1-18.6c-15.5-6.2-30.2-14.1-41.7-26c-9.4-9.6-19.2-19.8-23.8-32.9 c-2.6-7.4-7.7-8.5-13.9-9c-8.3-0.7-15.1-5.9-16.1-12.8c-1.3-8.5,2.9-15.9,10.7-19.1c14.4-5.8,14.4-5.8,14.6-21.4c0-2.3,0-4.7,0-7 c-30-16.1-50.3-40.1-59.4-73.2c-1.4-5-2.6-10.1-3.9-15.2C59.7,511.7,59.7,500.9,59.7,490.2z M289.5,252.9c-0.1-0.7-0.2-1.3-0.3-2 c0.7-1.6,1.5-3.2,2-4.8c2.9-8.6,6.6-17,3.8-26.6c-1.2-4.2-3.5-7.3-7.3-6.7c-3.4,0.6-8.3,3.2-9,5.9c-4.1,14.8-5.2,29.7,3.5,43.5 c-7.9,15.1-5.7,30.6-1.3,46.1c1.4,4.7,6.2,7.1,10.7,5c2.6-1.2,5.3-5.6,5.1-8.4c-0.6-9.6-0.4-19.6-7.9-27.5c0.4-0.7,0.7-1.4,1.1-2.1 c4,1.2,7.9,2.4,10.8,3.2c4.5-1.8,8.6-3.5,12.2-4.9c0,11.6,0,21.6,0,31.5c0.1,8.6-3.6,15.2-11.5,18.3c-15.3,5.9-35.4,2.1-40.4-20.2 c-2.2-10-3.9-20-5.9-30.4c-4.8,2-8.5,3.7-12.6,5.4c0,2.5-0.4,5.2,0.1,7.6c2.3,11.4,4.1,22.9,7.5,34c2.3,7.5,6.2,14.7,10.4,21.5 c3.8,6.1,8.8,6.5,14.9,3.3c2.8-1.5,6-2.6,9.1-3c19.4-2.1,38.8-4,57.6-5.9c-1.6-5.7-3.2-11.3-4.6-16.4c5.1-1.7,8.7-2.9,12.5-4.2 c1.3,4.4,2.4,8.8,3.9,13c3.1,8.6,3.9,8.8,12.1,5.4c0.6-0.3,1.4-0.2,2.1-0.2c7.9-0.5,15.8-1,23.7-1.4c18.2-0.8,36.4-1.6,54.5-2.3 c0.2-3.2,0.4-5.8,0.6-8.3c3.1-0.7,5.5-1.3,8.5-2.1c1.3,2.5,2.7,5,4,7.7c1.3,2.7,1.9,6.4,6.2,2.6c0.9-0.8,3.2-0.4,4.8-0.4 c21.3,0,42.6-0.1,63.9,0c2.2,0,4.8,0.2,6.6,1.2c4.4,2.4,6.6,0.7,7.7-3.5c1.6-6.1,5.4-7.5,11.3-5.4c-0.3,2.6-0.6,5.3-0.9,7.8 c26,1.3,51.6,2.7,77.3,4c1.8,0.1,3.8,0.2,5.2,1.1c6.5,4.3,9.4,3.6,12-3.8c1.6-4.5,2.8-9.2,4.1-13.5c4.2,0,7.7,0,12.4,0 c-1.7,6.3-3.3,12.4-4.9,18.5c14.7,1.5,30,2.9,45.2,4.5c6,0.6,12.3,0.8,17.8,3c12.3,5,17.3,4.1,22-8.6c5-13.6,8.4-27.8,12.3-41.8 c1.2-4.2,3.2-8.4-4.8-9.3c-5.4-0.6-10.3-5-15.5-7.6c-7.6-3.8-11.1-2.6-13.7,5.5c-3.6,11.5-4.6,23.3-1.6,35.2 c0.7,2.9,1.1,5.9,1.7,8.8c-9.1,3.3-12.6-2.3-14.8-6.8c-4.8,2.5-9,5.1-13.6,7c-1.4,0.6-4.9-0.5-5.2-1.5c-0.6-1.8,0.2-4.3,1-6.2 c0.8-1.9,2.6-3.3,3.6-5.1c5.8-11.1,9.8-23.5,3.3-34.7c-4.3-7.4-7.1-12.7-4.9-21.8c2.4-10.5-3.8-20.1-10.2-28.5 c-4.3-5.6-9-10.9-13.8-16.7c8.7-5.4,14,0.6,19.9,4.8c1.1-2.6,1.5-5.2,3.1-6.5c1.7-1.4,4.7-2.5,6.7-1.9c1.8,0.5,4,3.2,4.3,5.2 c2.7,15.1,5,30.3,7.5,45.4c0.2,1.3,1.5,2.5,3.4,5.6c4.7-18.2,8.1-34.5,4.3-51.3c-0.9-4,0.2-6.3,3.1-7.1c2.1-0.6,5.3,0.5,7.1,1.9 c1.7,1.3,2.4,4.1,3.6,6.3c9.3-13.1,10.5-13.7,16.6-10.3c-4.5,9.7-9.8,19.1-13.3,29.1c-3.8,10.7-6.7,22.1-1,33.2 c0.7,1.3,4.2,2.7,5.4,2.1c5.9-3.3,11.5-7.1,17.1-10.9c1.1-0.8,2.5-2.3,2.5-3.5c0.4-22.9-0.9-45.5-12.3-66.1 c-3.3-5.9-9.4-7.6-15.5-4.5c-2.7,1.3-5.5,2.7-8.4,3.1c-11.8,1.8-23.6,3.2-35.5,4.8c-8.9,1.2-17.8,2.4-26.2,3.5 c2.3,8.8,4.5,16.8,6.7,25.1c-4.9,0.5-8.9,1-12.5,1.4c-1.8-6.7-3.1-13.2-5.5-19.3c-1.9-5-4.4-10.1-11.7-5.5c-2.9,1.8-7.1,2-10.8,2.2 c-21.6,1.6-43.1,3-64.7,4.7c-3.2,0.3-6.2,1.9-9.5,3c-4.6-8.4-5.4-8.6-14.6-4.3c-2.2,1.1-4.7,2.1-7.1,2.2c-22,0.2-44,0.2-66,0 c-2,0-4.1-1.3-5.8-2.4c-4.4-2.8-11.2-1.5-14.2,3c-1.9-0.5-3.9-1.2-5.9-1.4c-16-1-32.1-1.8-48.1-2.9c-11.2-0.8-22.5-1.1-33.5-3.4 c-8.8-1.8-10.3-2.8-12.2,5.8c-2,8.7-7,8.1-13.7,7.1c1.5-4.9,2.8-9.7,4.4-14.8c-15.9-2-30.9-3.7-45.8-5.9c-8.8-1.3-18-2.5-26.1-5.8 c-7.8-3.2-12.4-3.2-15.7,4.8c-3.1,7.4-6.2,15.1-7.4,22.9c-2.1,12.9-3.2,26.1-3.7,39.2c-0.1,2.6,4,6.9,6.9,7.7c3.7,1,7.4-1.5,7.7-6.6 c0.5-7.7,1.3-15.3,2.2-23c2.4-20.4,14.1-28.8,31.8-26.5c12.5,1.6,20.9,11.6,20.3,24.1c-0.4,9,0.5,18.1,0.9,27.9 C305.8,249.8,298,245.6,289.5,252.9z M848.6,511.4c-7.1,2.8-8.3,8.1-7.5,14.3c0.5,3.9,0.7,7.8,1.4,11.6c2.8,13.9,5.1,28,8.8,41.6 c2.9,10.7,5,11.2,15.5,7.8c3.9-1.3,7.8-3.1,11.4-5.1c30.7-17.3,50.5-53.8,42.8-91.2c-6.2-30.5-23.6-52.3-52.4-64.6 c-13.8-5.8-14.6-5.2-19.2,9.5c-6,19-8.7,38.4-8.5,58.4C841,500.8,841,507.1,848.6,511.4z M152.4,425.7c-1.2,0.1-4.1-0.5-6.4,0.5 C103,444,82.7,489.7,96.4,532.7c7.5,23.3,22.3,40.6,44.6,51.2c2.2,1,7.2,0.9,7.8-0.3c4.9-9.3,12.2-17.6,13.5-28.8 c0.6-5.5,2-10.9,2.7-16.3c1.4-10.6,0-20.4-7.8-26.8c3.2-6.7,8.4-12.9,8.8-19.3c1-16.8-1-33.6-6.6-49.7 C157.6,437.5,155.3,432.6,152.4,425.7z"></path> <path style="fill:#FFFFFF;" d="M408.2,866c-7.6-5.1-7.4-13.9,0.7-19.5c2.8-2,5.9-4,9.1-4.7c7.7-1.6,10.9-6.9,13.8-13.5 c17.3-39.1,31-79.4,39.1-121.5l0,0c1.1-1.2,2.1-2.8,3.4-3.4c2.4-1,5.7-2.4,7.6-1.5c2.2,1,4.9,4.5,4.8,6.7 c-0.5,7.6-1.2,15.4-3.6,22.6c-5.4,16.8-11.6,33.3-18,49.7c-7.2,18.3-15.1,36.4-22.7,54.5c12.9-0.4,26.1-2,39.1-1 c12.7,1,25.9,3.2,33,17.5c-2.8-0.3-5.6-0.4-8.3-1.1c-21.8-5.8-43.7-7-65.8-1.9c-2.3,0.5-4.9,1.7-6.4,3.5c-5.9,6.7-13,11.2-21.6,13.6 C411,866,409.6,866,408.2,866z M422.5,849.1c-0.5-0.7-1.1-1.4-1.6-2.1c-3.9,2.9-7.8,5.8-11.8,8.7c0.7,0.9,1.4,1.8,2.1,2.7 C415,855.4,418.7,852.2,422.5,849.1z"></path> <path style="fill:#FFFFFF;" d="M366.9,468.2c4.2,0,8.1,0,12.9,0c1,14.3-3.5,26.9-12.2,38c-17.2,22.1-41.1,27.5-67.5,25.4 c-16.9-1.4-33.1-5.5-47.2-15.1c-19-12.9-29.1-31.2-32.7-53.7c-3.8-23.5,1.1-44.9,14.5-64.2c18.3-26.1,44.9-35.8,75.7-35.8 c16.6,0,32.6,3.2,46.5,13.1c10,7.2,17.5,16.2,17.6,29.4c0.1,11.9-7.5,22.2-19.2,25.2c-12.4,3.2-24.1,2.3-33.7-7.6 c-6.9-7.1-10-15.5-6-24.9c3.8-9.1,10.6-15.2,21.3-15.5c3-0.1,5.9,0,9.5,0c-11-5.4-22.1-8.2-34.1-6.3c-7.5,1.2-13.6,5.3-15.7,12.4 c-3.2,10.8-6.5,22-7.3,33.2c-1.6,22.8-1.8,45.7,3.2,68.2c0.9,3.9,2,7.7,3.5,11.4c6.4,16.7,18.2,22.5,35.6,17.5 c19-5.4,33.7-23.7,35-43.4C366.6,473.1,366.8,470.9,366.9,468.2z"></path> <path style="fill:#FFFFFF;" d="M639.6,608.2c21.2,14.8,35.9,15.9,45.2,5.8c-5.5,1.2-12.2,3.7-19.1,4.1c-11.2,0.6-22-6.8-25.6-16.2 c-4.1-10.8-2-23.5,7.3-30.5c6.7-5.1,14.7-9.5,22.8-11.4c27.5-6.6,55.2-6.1,82.4,1.7c21.2,6,31.5,20,31.8,40.8 c0.3,21.5-9.7,38-29.8,44c-12.5,3.7-26.1,4-39.3,5.3c-6.7,0.7-13.4,0.1-21.2,0.1c0,18.6,0,36.3,0,54.9c5.2,0.3,10.5,0.6,16.1,0.9 c-0.7,2.9-1.4,5.4-2.2,8.8c-26.6-0.8-53-1.6-79.5-2.4c-1.2-7.5-0.9-7.8,5.7-6.5c1.1,0.2,2.3,0.2,3.5,0.2c1.1,0,2.2-0.2,4.1-0.3 C641,674.5,640.3,642,639.6,608.2z M692.8,604.9c0.6,1.5,1.6,3,1.6,4.6c0.1,10.6,0.1,21.3,0.1,31.8c18.1,1.3,27.7-5.6,28.8-21.8 c0.3-5.1,0.9-10.2,0.9-15.3c0-13.6-4-25.4-16.7-32.3c-13.5-7.3-27.3-4.5-40.8,0C688.7,573,698.2,585.8,692.8,604.9z"></path> <path style="fill:#FFFFFF;" d="M485.3,365.6c11.5,2.8,22.9,6.2,34.5,8.1c18.6,3.1,31.1,15.3,40.6,29.3c11.1,16.4,17.2,35.2,14.2,56 c-1.6,11.2-3.9,21.8-10.2,31.2c-1.1,1.7-3.6,2.4-5.5,3.5c-1.2,0.7-3,1-3.8,2.1c-12.2,16-29.5,24.1-48,29.1 c-27.8,7.6-52.3-0.4-76.5-15.2c-26.3-16-39.3-64.4-23-97.2c13.2-26.6,35.1-39.1,63.1-43.8c2.5-0.4,4.9-1.4,7.4-1.7 c2.3-0.3,4.6-0.1,6.9-0.1C485,366.6,485.1,366.1,485.3,365.6z M547.4,447.5c1.4-29.8-26.1-60-61.3-59.6 c-33.6,0.4-60.3,24.7-60.1,59.5c0.2,31.5,28.3,58.3,61.3,58.1C520.4,505.3,548.1,480.3,547.4,447.5z"></path> <path style="fill:#FFFFFF;" d="M702.5,430.3c0,6.9,0.1,13.9,0,20.8c-0.2,13.3-0.3,26.5-0.8,39.8c-0.6,15.9-9.9,25.2-24.1,24.6 c-10.6-0.5-19.6-10.7-19.3-21.8c0.3-10.7,9.9-20.5,20.4-19.5c4.7,0.4,9,3.8,13.4,5.8c0-6.4,0.1-13.9,0-21.4 c-0.3-15.6-0.6-31.3-1.2-46.9c-0.4-10.2-6.5-18.1-15.8-20.7c0-2.1,0-4.4,0-6.8c8.1,0,16.2,0,24.3,0c1.6,0,3.3,0.7,4.9,0.5 c16.6-2.4,25.1,7,32.1,20.3c9.2,17.4,19.5,34.2,31.1,51.1c0-12.8,0.1-25.6,0-38.5c0-3.4-0.3-6.9-0.7-10.3 c-1.2-10.4-4.3-13.3-14.4-14.6c-1.7-0.2-3.3-1.6-4.9-2.4c1.7-0.7,3.3-2.1,5-2c11.9,0.3,23.8,0.8,35.7,1.4c1.6,0.1,3.2,0.9,4.8,1.3 c0.1,0.7,0.1,1.3,0.2,2c-3.8,1.1-7.5,2.3-11.3,3.4c0.1,0.5,0.3,1,0.4,1.5c4.2-1.3,8.4-2.7,12.8-3.7c1.6-0.4,4.5-0.1,4.9,0.8 c1.3,2.6,1.6,5.6,2.3,8.5c-1.8,0.5-2.5,0.9-3.1,0.9c-12.3-1.4-14.2,0.2-15.2,15.6c-1,15.6-2,31.4-0.1,46.8c2,15.3-0.8,30.5,0.9,45.6 c0.7,5.9-2.1,7.3-7.1,7.3c-4.2,0-8.7,1-12.6,0c-5.3-1.5-11.9-3.2-15-7.1c-8.4-10.5-18.7-21.3-21.9-33.6c-4.3-17-16.8-29-21.7-45.1 c-0.4-1.4-1.8-2.6-2.8-3.9C703.4,429.9,702.9,430.1,702.5,430.3z"></path> <path style="fill:#FFFFFF;" d="M526,593.4c-5.5-0.9-9.4-1.5-13.6-2.2c0-3.2,0-6.1,0-9.5c11.9,0,23.5,0,35.1,0c0-0.4,0.1-0.8,0.1-1.3 c-1.1-0.2-2.2-0.5-3.4-0.7c-12.6-2.2-20.9-9.5-22.5-19.8c-1.9-12.2,3.7-23.3,14.7-29.3c15.8-8.6,36.8-2.7,44.1,12.6 c3.9,8.2,3.9,17.1,0.2,25.1c-2.9,6.3-3.8,12.1-3.5,19c0.7,15.1,0.2,30.3,0.1,45.5c-0.1,21.5-0.3,43-0.5,64.4c0,2.5,0,5,0,8.4 c6.7,0,12.7,0,19.1,0c0.2,3.1,0.4,5.3,0.6,8.2c-5.3,0-10.2,0.1-15,0c-21.3-0.3-42.6-0.8-63.9-0.8c-6.3,0-7.9-2.2-6-8.4 c4.7,0,9.5,0,14.3,0C526,667.3,526,630.5,526,593.4z"></path> <path style="fill:#FFFFFF;" d="M284,647.3c0,17.7,0,34.8,0,52.6c3,0.1,6.4,0.3,10.2,0.5c0,2.4,0,4.6,0,7.5c-9.8,0-19.4,0-29,0 c-9.6-0.1-19.2-0.2-28.8-0.3c-3.2,0-6.9,0.5-6.7-4.7c0.2-5.1,4-3.4,6.7-3.7c1.2-0.1,2.3-0.1,4.6-0.2c-0.8-38.3-1.5-76.5-2.3-115.4 c-2.8-2.8-15.4,0.6-8.1-11c5.7,0.5,11.4,1,17.2,1.5c17.2,1.7,33.9-0.7,50.6-4.8c11.2-2.8,22.8-5.8,34,0.9c8,4.7,13,15.8,11.5,24.4 c-1.9,11.1-11.4,17.7-20,18.4c-6.6,0.5-9,3.5-8.8,10.2c0.5,15.1,0.1,30.2,0.1,44.9c-7.3,2.2-10.5,1.7-11.1-5.7 C303.2,650.7,297.3,646.6,284,647.3z M312.1,614.3c-16.4-12.1-15.8-24.5-5.1-37c-7.3,1.6-14.1,2.9-20.7,4.8 c-1.4,0.4-3.1,2.9-3.1,4.5c-0.2,16.2-0.1,32.4-0.1,48.5c19.5,1.5,23.2-1.6,23.8-19.2C308.2,615.5,309.7,615,312.1,614.3z"></path> <path style="fill:#FFFFFF;" d="M440,567.5c0,2.6,0,5.5,0,8.9c-5.4,0.2-10.5,0.5-16,0.7c0,42.3,0,84.4,0,127.9 c14.5,1.6,29.1,3.2,44,4.8c0.6,6.4-3.2,8.8-10.3,7.8c-15.6-2.2-31.2-4.7-46.9-6.2c-12.8-1.2-25.7-1.1-38.5-1.7 c-1.8-0.1-3.7-0.3-5.9-0.5c0-2.5,0-4.6,0-7.4c3.8,0,7.5,0,11.3,0c-0.7-41.5-1.4-82.3-2.1-123.7c-4,0-7.7,0-11.7,0 c0-3.5,0-6.4,0-10.7C389.2,567.5,414.3,567.5,440,567.5z"></path> <path style="fill:#FFFFFF;" d="M582.6,516.7c0-2.9,0-5.1,0-8.1c4,0,7.8,0,11.9,0c0-34.8,0-68.9,0-101.9c-3.6-2.7-6.8-5.1-9.9-7.4 c0.3-0.6,0.5-1.2,0.8-1.8c8.7,0,17.4,0.2,26-0.1c14.3-0.5,23.6-8.1,25.1-20.5c1-7.9-1.6-15-8.2-19.6c-5.8-4-12.4-6.3-20.1-1.8 c4.6,0,8.6-0.7,12.1,0.1c7.2,1.7,12.1,8,12.7,15c0.7,8.3-3,15.4-9.6,18.7c-6.8,3.3-16.7,1.9-22.4-3.1c-7.9-7-9.8-17.8-4.9-27.4 c4.4-8.8,13.8-12.8,24.2-11c18.2,3.2,23.9,20.9,19.5,35.7c-1.1,3.7-1.9,7.8-1.9,11.6c0.1,35.7,0.5,71.3,0.8,107 c0,1.4,0.1,2.7,0.2,4.5c4.4-0.4,8.5-0.8,13.6-1.3c0.2,2.7,0.3,5.2,0.5,8.3C629.6,514.7,606.5,515.7,582.6,516.7z"></path> <path style="fill:#FFFFFF;" d="M577.2,799.4c1.4,4.2,1.6,9.2,3.9,10.4c2.8,1.5,7.5,0.4,11-0.6c3.2-0.9,6-3.3,8.8-5 c3.3,3.7,3,6.5-0.4,9.3c-7.9,6.5-16.8,9.9-27.1,8c-7.2-1.4-11.1-6.3-12.5-13.3c-4.9-23,22.7-46.9,41-45.1 c11.8,1.2,16.4,10.3,9.5,20.4c-6.9,10-17.8,12.9-28.9,15.2C581.5,798.8,580.3,798.9,577.2,799.4z M582.3,789.2 c9.2-1.5,17.3-10.3,16.2-17.2C588.6,773.3,586.3,781.4,582.3,789.2z"></path> <path style="fill:#FFFFFF;" d="M530.8,803.9c7.6-10.7,15.6-19.2,16.6-31.9c0.3-3.3,2.8-7.2,5.4-9.3c1.6-1.2,6.9-0.5,8,1.1 c1.9,2.6,3.2,7.3,2.1,10.1c-2.4,6.4-5.6,12.9-9.9,18.1c-8,9.8-16.8,19.1-25.9,28c-2,2-6.7,1.7-10.1,1.6c-0.6,0-1.8-3.9-1.7-6 c0.2-15.5,0.7-31.1,1.1-46.6c0.2-7,5.9-5.7,9.8-5.9c4.5-0.2,7.4,2.6,7.1,7.6C532.5,781.1,531.7,791.6,530.8,803.9z"></path> <path style="fill:#FFFFFF;" d="M470.8,706.8c-2.1-0.3-4.3-0.8-6.4-0.8c-10.7,0-18.9-6.1-20.4-14.8c-2.4-14,3.5-21.9,14.9-26.1 c8.6-3.2,21.8,0.7,26.7,7.1c6.9,8.9,7.9,18.5,3,28.8c-4.7-1.9-4.6-1.9-3.7-8.1c1.2-8.3-1.1-15.3-8.3-20c-2-1.3-4.5-1.8-7.2-2.1 c7.9,3.3,13.8,8.1,13.8,17.2c0,5.1-1.2,9.7-6.5,12.4C474.2,701.7,472.7,704.7,470.8,706.8C470.8,706.8,470.8,706.8,470.8,706.8z"></path> <path style="fill:#FFFFFF;" d="M430.6,785.9c-21.4,4.7-41.7-2.5-48.5-23.5c-1.6-4.9-0.4-6.8,3.9-8.1 C408.7,747.2,429,761.5,430.6,785.9z"></path> <path style="fill:#FFFFFF;" d="M381.4,819.6c6.9-23.4,22.8-30,44.3-29.2c1.6,0.1,4.6,2.4,4.5,3.3c-1.7,11.3-7,20.6-17.4,26.2 C402.5,825.4,392,825.4,381.4,819.6z"></path> <path style="fill:#FFFFFF;" d="M490.6,810c2.3-0.5,3.7-0.7,5.2-1c2.8,4.2,1,6.9-2.8,8.9c-1.2,0.7-2.5,1.7-3.8,1.7 c-5.1,0.3-10.9,1.7-14.9-0.4c-2-1-1.8-9.1-0.4-13.2c4.3-12.9,9.7-25.4,14.7-38c2-5.1,7.8-7.9,11.9-5.8c5.4,2.9,4.1,7.2,2.4,12 C498.6,785.8,494.8,797.5,490.6,810z"></path> <path style="fill:#FFFFFF;" d="M511.2,747.5c0.1,5-4.7,11-9.4,9.7c-2.5-0.7-5.5-4.2-6-6.9c-0.9-5.4,3.8-10.3,8.7-10.5 C509.2,739.7,511.3,742.2,511.2,747.5z"></path> <path style="fill:#FFFFFF;" d="M375.8,218.2c9.5-8.5,20.1-4.5,30.2-2.8c14.2,2.5,10.3,16.6,15.6,25.6c-7.4,5.7-0.9,21.1-17.4,22.3 c10.8,3.6,12.7,11.3,14.1,19.7c1.8,10.4,1.1,21.8,10.4,29.5c-3.9,7.8-17,9.1-21.4,0.9c-4.1-7.5-5.4-16.5-7.6-25 c-0.9-3.6-0.9-7.4-1.6-11c-1.4-7-7.8-10.4-14.4-7.6c-1,0.4-2.1,1.9-2.4,3c-2.6,10.6,1.6,32.9,8.7,43.7c-4.9,0.3-9.9,2-13.1,0.3 c-3.8-2-5.2,0.3-7.7,1.1c-2.5,0.8-5.6,2.2-7.4,1.3c-1.4-0.7-2.2-4.9-1.6-7c4.8-16.1,3.4-31.6-3.5-46.5c8.9-17.3,8.6-34.7,1-52.3 C364.1,209.4,367,210.2,375.8,218.2z M381.1,259.3c10.5,1.4,16.4-0.5,17.1-5.6c0.9-7.6,1.6-15.3,1.2-23c-0.1-2.2-4.4-5.8-6.8-5.9 c-3.3-0.1-9.3,2.3-9.6,4.3C381.6,239.1,381.6,249.3,381.1,259.3z"></path> <path style="fill:#FFFFFF;" d="M539.4,315.6c-7.9,4.3-12.5-1.6-17.6-5.6c-6.2,7.3-8.9,8-16.2,4.2c7-12.4,3.2-24.4-2.2-36.2 c-0.2-0.1-0.5-0.3-0.7-0.3c-5,0.9-12.6,0.3-14.4,3.2c-5,8.2-7.2,17.9-3.7,27.8c0.9,2.6,5.2,6.2,0.1,8c-2.7,0.9-6.5-1.5-9.6-3.3 c-5.1,1.1-9.7,6.6-17.6,1.9c10.8-8.8,13-20.9,14.6-33.3c-1.9,0.2-3.9,0.3-5.9,0.5c0-5.7,0-11.1,0-16.8c3.5,1.2,6.7,2.3,11.2,3.8 c2.7-18.3,15.3-34.1,6.2-52.9c8.8-5.1,13,1,17.4,5.9c1.7-1.8,3-4.1,4.8-4.9c2.8-1.2,6.1-1.4,9.2-2c0.2,2.6,1,5.2,0.7,7.7 c-1.8,15,0.7,28.7,10.6,40.6c0.8,0.9,1.6,2.6,1.3,3.5c-5.5,17.6,0.2,32.4,11,46.1C539.1,313.9,539.1,314.7,539.4,315.6z M490.3,269.7c4.8,0,7.7,0,11.3,0c-1.7-6.7-3.3-12.9-4.9-19.2c-0.7,0-1.3-0.1-2-0.1C493.2,256.6,491.8,262.8,490.3,269.7z"></path> <path style="fill:#FFFFFF;" d="M625.5,289.4c3.4,1.3,6.4,2.5,9.3,3.6c2.8-1.1,5.8-2.2,8.8-3.3c-4,10.3-5.8,19.5,1.2,28.7 c-6.7,3.9-9.6-0.8-13.1-5.1c-9.3,8.3-19.4,7.1-29.7,2.1c-5.4-2.6-10.6-2.8-15.9,0.2c-1.6,0.9-3.3,2.1-5,2.2 c-2.8,0.2-5.7-0.2-8.5-0.4c1-2.5,1.5-5.6,3.2-7.6c11.5-13.5,21.8-27.4,21.1-46.6c-0.1-2.3,2.6-5.1,4.7-7c6.5-5.6,10.5-12.5,11.4-21 c0.7-6.4-3.6-10.6-10.7-10.6c-4.7,0-8.9,1.4-8.9,7.3c0,1.3,0.2,2.7,0.5,4c0.4,1.9,0.8,3.7,1.3,5.5c-2.3,0.2-4.7,0.5-7,0.7 c-2,0.2-4,0.3-6,0.4c-2.4,0.1-4.7,0-8.6,0c6.9-10,3.2-18.3-1.3-26.4c0.4-0.5,0.7-1.1,1.1-1.6c4.4,1.2,8.7,2.3,14,3.7 c6.7-6,15.4-6.1,24.3-1.6c7.3,3.7,13.9,2.8,20.4-1.4c0.8-0.5,1.5-1.4,2.3-1.5c2.5-0.4,5-0.5,7.6-0.7c-0.4,2.3-0.3,4.8-1.2,6.8 c-5.1,11-10.5,21.9-15.7,32.8c-0.6,1.2-1.2,2.7-1.1,4c1.4,11.8-5.4,19.5-12.3,27.9c-3.7,4.5-4.6,12.1-4.7,18.3 c-0.1,5.6,5.3,7.8,10.7,7.9c5.4,0.1,9.2-2.7,9.7-8.1C627.5,299,626.3,295.2,625.5,289.4z"></path> </svg> 