<?xml version="1.0" encoding="UTF-8"?> <svg xmlns="http://www.w3.org/2000/svg" xmlns:xlink="http://www.w3.org/1999/xlink" version="1.1" id="Layer_1" x="0px" y="0px" viewBox="0 0 1000 1000" style="enable-background:new 0 0 1000 1000;" xml:space="preserve"> <path style="fill:#FFFFFF;" d="M39.9,505.2c0.7-6.6,4.3-11.9,7.8-17.4c19.9-31.2,39.7-62.4,59.5-93.6c7.8-12.3,23.5-15.8,36.1-8 c13.6,8.5,27,17.2,40.6,25.8c20.9,13.3,41.9,26.6,62.8,39.9c0.5,0.3,1,0.5,1.9,0.9c1.5-6.7,2.8-13.3,4.6-19.8c0.9-3.3,0-5.1-2.4-7.2 c-16.3-14.3-32.4-28.8-48.5-43.3c-2.5-2.2-5-4.5-7.9-7.1c1.3-0.6,2.1-1,3-1.3c25.5-7.3,51.1-14.6,76.6-21.9c2.2-0.6,3-0.3,3.6,2.1 c7.6,33,15.3,66,23,99.1c0.7,3,1.4,5.9,2.1,9.1c24,2.6,47.9,5.2,71.9,7.7c0,0.4,0.1,0.8,0.1,1.1c-25.1,6.6-50.2,13.3-75.5,19.9 c1.1,3,3.2,4.2,6.2,4.6c7.7,1.1,14.3,4.3,19,10.8c4.8,6.8,5.8,14.2,4.1,22.3c-1.4,6.2-2.6,12.5-4,19.1c4,1.1,8,2.2,11.9,3.3 c25.6,7,51.6,12.6,77.8,17c15.5,2.6,31.1,5,46.7,7c12,1.6,24.1,2.6,36.2,3.7c11.8,1,23.6,1.8,35.5,2.4c11.5,0.6,22.9,0.9,34.4,1.2 c7.9,0.2,15.8,0.5,23.7,0.4c13.6-0.2,27.1-0.5,40.7-1.1c12.4-0.5,24.9-1.3,37.3-2.4c14.2-1.3,28.4-2.8,42.6-4.6 c15.5-2,31-4.3,46.4-6.7c2.9-0.4,3.5,0.7,3.8,2.8c1.1,6.7,2,13.4,3.1,20.1c2.1,13.2,4.2,26.4,6.3,39.6c1.7,10.6,3.3,21.2,5,31.8 c2.1,13.2,4.2,26.4,6.3,39.6c0.5,2.9,0.8,5.8,1.3,9.2c-2.3,0.4-4.6,1-6.9,1.3c-12.8,1.6-25.5,3.3-38.3,4.7 c-7.5,0.8-15.1,1.3-22.7,1.9c-9.4,0.8-18.9,1.6-28.3,2.3c-3.9,0.3-7.9,0.5-11.8,0.7c-13.5,0.5-27.1,1.1-40.6,1.3 c-21.6,0.3-43.2,0.5-64.8,0.4c-12.2,0-24.3-0.6-36.5-1.2c-13.1-0.6-26.2-1.3-39.3-2.4c-14.1-1.1-28.1-2.5-42.1-4.1 c-15.1-1.7-30.2-3.1-45.1-5.5c-27-4.5-53.9-9.2-80.7-14.7c-39.7-8.1-78.5-19.3-116.7-32.7c-4.3-1.5-8.5-3.1-12.8-4.6 c-1.8-0.6-2.1-1.4-1.3-3.1c1.2-2.6,2.2-5.2,3.5-8.2c-8.2-1.7-16-3.3-23.9-4.9c-19.8-4-39.7-7.9-59.5-12.1 c-15.4-3.3-23.7-16.9-20.4-32.4c1.5-7,2.7-5.7-4.4-8.5c-4.8-1.9-9.5-3.8-14.3-5.7c-13.9-5.5-20.3-20.1-14.9-34 c1.2-3.1,2.3-6.3,3.7-9.3c0.8-1.7,0.3-2.4-1.1-3.3c-3.2-1.9-6.3-4.1-9.5-6c-8.4-4.8-13.5-11.7-14.7-21.3 C39.9,508.3,39.9,506.8,39.9,505.2z M237.3,505.6c0.7-3.6,1.1-6.3,1.7-9c0.4-1.7,0-2.2-1.7-2.5c-29.8-6.1-59.6-12.2-89.4-18.3 c-9.8-2-16.3,3.8-17.8,10.8c-3.1,14.6-6,29.2-9,43.8c-4.9,23.8-9.7,47.7-14.7,71.5c-1.6,7.7,3.3,15.4,11,17 c27.9,5.7,55.8,11.4,83.8,17.2c2,0.4,3-0.1,3.8-2.1c3.3-7.8,6.7-15.6,10.1-23.3c12.2-27.9,24.5-55.8,36.7-83.7c1-2.3,2-2.8,4.4-1.9 c14.8,5.5,29.6,10.7,44.5,16c3.9,1.4,8,2.5,12.1,3.8c0.3-0.9,0.5-1.5,0.6-2.1c1.1-5.6,2.3-11.2,3.4-16.7c2-9.7-2.8-16.6-12.6-18.4 c-8.4-1.6-16.8-3.2-25.1-5.1c-8.4-1.9-16.6-3.3-25.2-0.4C249,504,243.5,504.4,237.3,505.6z M98.8,580.3c2.1-10.2,4.1-19.7,6-29.2 c4.3-20.9,8.6-41.7,12.7-62.6c1.4-7.1,3.5-13.8,9.3-18.6c5.8-4.8,12.4-7.3,20-6c7.3,1.3,14.7,2.8,22,4.3c20,4.1,40,8.2,60,12.2 c4.4,0.9,8.8,1.8,13.1,2.7c1.5-3.3-0.8-3.7-2.7-4.5c-34.7-13.8-69.4-27.5-104-41.3c-8.4-3.3-16.1,0-19.5,8.4 c-2.8,7-5.6,14.1-8.4,21.1c-11.7,29.3-23.4,58.5-35,87.8c-2.5,6.3-0.4,13.6,5.5,16.7C84.5,574.7,91.6,577.2,98.8,580.3z M70.3,527.2 c0.6-1.2,1-2.1,1.4-3c10.9-27.5,21.9-55.1,32.8-82.6c6-15.1,20.3-21.3,35.4-15.3c31.3,12.4,62.6,24.8,93.9,37.2 c3.7,1.5,7.5,2.9,11.1,4.3c1.5-1.8,0.8-2.6-0.7-3.6c-22.8-14.4-45.6-28.9-68.4-43.4c-12.5-8-25-15.9-37.6-23.8 c-3.6-2.3-7.2-3.9-11.7-2.9c-4.4,1-7.4,3.4-9.8,7.1c-15.6,24.5-31.2,49-46.8,73.5c-5.2,8.2-10.4,16.3-15.6,24.5 c-4.5,7.2-3.3,15,3.1,19.7C61.6,521.9,65.8,524.4,70.3,527.2z M472.2,685.8c4,0.4,7.6,0.8,11.2,1.1c4.2,0.3,5.3-0.4,5.4-3.5 c1-17.6,2-35.1,3-52.7c0.1-2.5,0-5.1,0-7.2c-5.2,0-10,0.1-14.8,0c-1.8,0-2.8,0.5-3.8,2.1c-5,7.7-10.2,15.3-15.3,22.9 c-0.5,0.7-1,1.3-1.6,2.1c-0.4-0.8-0.6-1.2-0.8-1.6c-4.5-10.3-9-20.5-13.6-30.8c-0.4-0.9-1.4-2.3-2.1-2.3c-5.8-0.2-11.6-0.1-17.6-0.1 c-1.6,20.4-3.2,40.4-4.8,60.6c5,0,9.5-0.1,13.9,0.1c2.3,0.1,2.8-0.8,3-2.9c0.7-6.5,1.6-12.9,2.4-19.4c3.3,6.5,6,13,8.9,19.4 c0.5,1.1,1.8,2.7,2.5,2.6c3.9-0.4,8,1.8,11.6-1.2c0.3-0.2,0.4-0.7,0.6-1c3.3-5.2,6.6-10.3,9.9-15.5c0.5-0.8,1.1-1.5,2.1-2.8 C472.2,666.1,472.2,675.7,472.2,685.8z M561.8,627c-0.8,20.1-1.6,39.9-2.3,59.9c4.8,0,9,0,13.1,0c4.9,0,4.9,0,5.6-4.8 c0.2-1.3,0.4-2.5,0.5-3.8c0.7-5.3,1.3-10.6,2.1-16.8c0.7,1.1,1,1.5,1.3,1.9c5.6,7.1,11.3,14.3,17,21.4c0.7,0.8,1.5,2,2.4,2 c5.3,0.2,10.6,0.1,15.9,0.1c0-19.2,0-38,0-56.8c-5.6,0-11,0-16.8,0c0,8.5,0,16.9,0,25.8c-0.6-0.7-0.8-0.9-1-1.1 c-6.3-8.5-12.6-17-19-25.4c-0.8-1-2-2.2-3.1-2.3C572.4,626.9,567.4,627,561.8,627z M549.5,672.1c-9.6,0-18.8,0-28.1,0 c0-3.7,0-7.1,0-10.7c8.5,0,16.8,0,25.5,0c0-3.5,0-6.8,0-10.4c-1.1,0-2.2,0-3.3,0c-6.8,0-13.7,0.1-20.5-0.1c-0.9,0-2.5-0.9-2.5-1.4 c-0.3-3-0.1-6-0.1-9.4c9.8,0,19.4,0,29,0c0-4.6,0-8.8,0-13c-15.4,0-30.5,0-45.9,0c-1.2,19.9-2.4,39.7-3.6,59.6c16.8,0,33,0,49.5,0 C549.5,681.9,549.5,677.2,549.5,672.1z M405.9,661c-9.6-1.8-18.9-3.6-28.4-5.5c1.3-2.6,2.4-4.4,3.1-6.3c0.7-1.8,1.9-2.2,3.7-2 c5.5,0.6,11,1.1,16.5,1.6c0.7,0.1,2.1-0.3,2.2-0.7c1.1-4.1,1.9-8.3,2.8-12.6c-8.2-1.7-16-3.2-24-4.8c1.2-3.1,2.2-5.8,3.2-8.4 c8.5,1.8,16.6,3.5,25,5.3c1-5.5,1.9-10.8,2.9-16.2c-6.4-0.5-12.2-1-18-1.5c-8.1-0.7-16.1-1.3-24.2-2.2c-2.1-0.2-2.9,0-3.3,2.3 c-2.4,13.5-5,26.9-7.5,40.3c-0.9,5-1.8,10-2.7,15.3c15.6,2.4,30.8,4.8,46.2,7.2C404.3,668.7,405.1,665,405.9,661z M725.1,620.4 c-10.9-5.6-27.1-6.7-37.3,0.1c-3.8,2.6-7.1,5.6-7.8,10.6c-1.1,7.6-0.2,12.6,7,16.6c2.9,1.6,6.1,2.7,9.3,3.7 c4.9,1.6,9.8,2.8,14.7,4.3c2,0.7,4,2.2,3.5,4.5c-0.4,1.8-2,3.4-3.4,4.7c-0.8,0.8-2.3,1.2-3.6,1.2c-5.5,0.2-11,0.2-16.5,0.2 c-1.9,0-3.9,0-5.8,0c0,4.2,0,8.2,0,12.9c7.5,0.2,14.9,0.8,22.2,0.4c6.5-0.3,12.9-2.1,18.1-6.3c6.1-4.9,8.5-11.4,7.6-18.9 c-0.8-6.5-5.9-9.4-11.6-10.8c-6.4-1.6-13-2.3-19.4-3.7c-1.6-0.3-3-1.8-4.5-2.8c1.2-1.8,2-4.4,3.7-5.2c2.5-1.2,5.7-1.6,8.5-1.6 c3.6,0,7.2,0.9,10.7,1.4C722.2,627.8,723.7,624.1,725.1,620.4z M289.9,644.8c1.1-3.4,1.9-6.5,3-9.6c0.7-1.9,0-2.5-1.6-2.9 c-2.1-0.6-4.2-1.2-6.2-1.8c-5.6-1.7-11.2-3.4-17-5.2c1.2-2.9,2.2-5.3,3.2-7.8c7.6,1.8,14.8,3.5,22.3,5.3c1-3.9,2-7.6,2.9-11.4 c-6.3-1.6-12.1-3.2-17.9-4.5c-1.7-0.4-2.1-1.2-1.8-2.6c0.6-2.9,1.3-5.7,2-8.7c8.1,1.9,16,3.9,24.3,5.8c0-3.4-0.1-6.3,0-9.3 c0.1-2-0.7-2.7-2.5-3.2c-7.8-2.3-15.6-4.7-23.4-7c-3.9-1.2-7.8-2.3-11.8-3.5c-5.6,18.3-11.1,36.2-16.8,54.5 C262.3,636.8,275.9,640.8,289.9,644.8z M660.3,682.6c0-1.3,0-2.5,0-3.6c0-12,0-23.9,0-35.9c0-1.9,0.5-2.8,2.4-3.3 c3.4-0.9,6.8-2,10.1-3.2c0.7-0.2,1.7-1,1.7-1.5c0.1-5,0.1-10,0.1-15.1c-17.6,1-34.7,2-51.7,3c0,6.1,0,11.9,0,17.9 c5.8,0,11.3,0,17.3,0c0,14,0,27.8,0,41.8C647.2,682.6,653.6,682.6,660.3,682.6z M318.7,593.1c-5.4,19-10.7,37.8-16.2,56.9 c14.8,3.9,29.3,7.6,43.9,11.4c1.2-4.3,2.1-8.2,3.5-12c0.9-2.4,0.1-3-2.1-3.6c-6.2-1.7-12.4-3.8-18.6-5.6c-2-0.5-2.2-1.3-1.8-3.1 c1.9-7.6,3.8-15.2,5.6-22.9c1.3-5.5,2.6-11,3.9-16.9C330.7,596,324.9,594.6,318.7,593.1z"></path> <path style="fill:#FFFFFF;" d="M539.5,432.5c-16.2,0-32.5-0.2-48.7,0.1c-13,0.2-26.1,0.8-39.1,1.7c-13.1,0.9-26.1,2-39.1,3.6 c-16.6,2-33.1,4.3-49.6,7.2c-16.8,2.9-33.5,6.7-50.1,10.3c-3,0.7-3.8-0.3-4.3-2.8c-5-21.9-10-43.8-15-65.6 c-4.8-21-9.7-42.1-14.6-63.1c-0.6-2.3,0.2-3.3,2.3-3.7c17.4-3.4,34.8-7,52.2-10.1c11.7-2.1,23.5-3.8,35.3-5.3 c10.2-1.3,20.4-2.2,30.6-3.1c13.8-1.1,27.5-2.2,41.3-3c10.6-0.6,21.1-1,31.7-1.2c14.3-0.3,28.5-0.6,42.8-0.5 c12.2,0.1,24.3,0.6,36.5,1.2c9.3,0.4,18.5,1,27.8,1.8c9.7,0.8,19.4,1.8,29.1,2.9c12.2,1.3,24.5,2.5,36.6,4.3 c14.8,2.1,29.5,4.7,44.1,7.3c9.4,1.7,18.8,3.9,28.2,5.6c2.8,0.5,3.4,1.4,2.9,4.3c-1.7,9.5-3,19-4.4,28.5c-1.7,11-3.5,22.1-5.1,33.1 c-1.3,8.5-2.5,17.1-3.8,25.6c-1.5,9.5-3,18.9-4.5,28.4c-0.7,4.5-1.5,8.9-1.9,13.4c-0.2,2.2-1.2,2.4-2.9,1.9c-9.7-2.4-19.4-5-29.2-7 c-10.5-2.2-21-4.1-31.5-5.8c-10.7-1.8-21.4-3.3-32.1-4.7c-6.7-0.9-13.5-1.3-20.3-1.9c-12.6-1-25.2-1.9-37.7-2.8 c-2.4-0.2-4.8,0-7.1,0C539.5,432.9,539.5,432.7,539.5,432.5z M447.6,373c-0.8-1.4-1.3-2.3-1.8-3.3c-6.2-12.7-12.4-25.5-18.6-38.3 c-0.7-1.5-1.4-2.4-3.2-2.2c-5.6,0.7-11.1,1.2-16.7,1.9c-3.8,17.3-7.5,34.3-11.4,52c-1.6-3.3-2.8-5.9-4-8.5 c-5.9-12.4-11.8-24.9-17.8-37.3c-0.4-0.7-1.5-1.7-2.2-1.6c-7.5,1.2-15,2.6-22.8,4c9.8,25,19.5,49.6,29.2,74.4 c8.9-1.8,17.5-3.5,26.2-5.4c0.9-0.2,2-1.5,2.3-2.6c3.7-12.6,7.3-25.2,11-38.1c0.4,0.9,0.7,1.5,1,2.1c5.5,11.9,11.1,23.7,16.5,35.6 c0.7,1.6,1.6,2.4,3.5,2.4c6.3-0.1,12.7-0.1,19,0c1.9,0,2.7-0.6,3.2-2.5c3.8-16.6,7.8-33.2,11.8-49.8c2.4-10.2,4.7-20.4,7.2-31 c-6.2,0-12.1,0-18,0c-4.3,0-4.3,0-5.3,4.4c-0.3,1.1-0.6,2.3-0.8,3.4C453.2,345.8,450.4,359,447.6,373z M598.3,331.5 c-1.9,24.2-3.8,48.7-5.8,73.2c8.4,1,16.5,2,24.8,3c0.5-8.2,1-16.3,1.5-25c1.1,1.2,1.7,1.8,2.2,2.5c4.2,5.1,9,9.9,12.5,15.4 c4.1,6.5,9.5,8.4,16.7,7.4c3-0.4,6.2-0.1,9.8-0.1c-3-7.8-5.7-15-8.5-22.2c0.9-0.4,1.3-0.6,1.7-0.8c10.8-4.8,17-14.7,16.7-26 c-0.4-12-4.8-17.6-18.4-22.7c-0.1,0-0.2,0-0.3-0.1c-8.5-2.9-17.4-4.5-26.3-4.8C616.2,331.2,607.4,331.5,598.3,331.5z M486.4,400.3 c9.2,0,17.7,0,26.2-0.1c0.8,0,1.8-0.8,2.3-1.4c2.3-3.1,4.4-6.4,6.7-9.4c0.7-0.9,2.2-1.8,3.3-1.8c8.5-0.1,17,0,25.5-0.1 c1.8,0,2.6,0.7,3.2,2.3c1,2.9,2.3,5.7,3.3,8.5c0.5,1.5,1.4,2.1,3,2.1c3.8-0.1,7.5,0,11.3,0c3.6,0,7.3,0,11.2,0 c-0.3-1.1-0.5-1.8-0.7-2.4c-9.9-23.7-19.9-47.4-29.8-71.2c-0.7-1.6-1.6-2.1-3.3-2.1c-6.8,0.1-13.7,0.1-20.5,0c-2,0-3,0.8-3.8,2.5 c-8.2,15.9-16.4,31.8-24.6,47.8C495.2,383.1,491,391.4,486.4,400.3z"></path> <path style="fill:#FFFFFF;" d="M884,652.7c-30.7,11.3-61.8,18.6-94.6,19.8c-0.9-6.1-1.8-11.9-2.6-17.7c-1.7-11.7-3.4-23.4-5.1-35.1 c-1.7-11.6-3.3-23.2-5-34.8c-1-6.8-1.9-13.7-3.1-20.5c-0.2-1-1.7-2-2.8-2.4c-17-6.4-34-12.8-50.9-19.2c-5-1.9-9.9-3.7-14.8-6.1 c29.2-3.2,58.3-6.3,87.7-11.9c-3.6-3.2-7.2-5.7-9.9-9c-5.1-6.3-12.6-6-19.4-7.5c-35.4-8-70.9-15.8-106.4-23.7 c-5.2-1.2-10.5-2.3-15.7-3.4c0-0.3,0-0.5,0-0.8c4.6-1.1,9.2-2.1,13.8-3.2c17.2-3.9,34.4-7.9,51.5-11.8c1.5-0.3,2.1-0.8,2.3-2.4 c2.5-17.1,5.1-34.1,7.7-51.1c2.5-16.5,5.1-32.9,7.6-49.4c0.3-1.9,0.6-3.7,0.7-5.6c0.1-2,1-2.5,2.9-2c8.7,2.1,17.4,4.2,26.4,6.3 c2.6-6.9,5.1-13.7,7.6-20.5c6.9-18.7,13.8-37.3,20.8-56c4.4-11.7,16.2-17.4,27.9-13.1c30.4,11.2,60.8,22.5,91.2,33.8 c12,4.5,17.3,16.4,12.9,28.5c-1.5,4.1-3,8.1-4.6,12.3c2.8,1.7,5.5,3.3,8.2,5c11.3,7,14.3,19.3,7.5,30.7c-2.5,4.2-4.9,8.4-7.6,12.4 c-1.4,2-1,3.2,0.9,4.6c4.7,3.5,8.4,7.8,9.6,13.8c1.3,6.7,0.3,12.9-4.2,18.1c-12.8,14.8-25.8,29.5-38.8,44.2 c-12,13.7-24,27.4-36,41.1c-4.1,4.7-8.1,9.5-12.4,14c-2.6,2.7-2.7,6.1-3.3,9.3c-3.4,16.1-6.5,32.2-9.8,48.3 c-0.4,1.9,0.3,2.7,1.3,3.8c19.1,19.8,38.2,39.7,57.3,59.5C883.1,651.5,883.3,651.9,884,652.7z M810.6,374.8 c-1.1,1.3-1.9,2.3-2.7,3.2c-15.5,16.5-31,33.1-46.5,49.6c-1.4,1.5-1.9,2.8-1.4,4.9c3.8,18.4,7.3,36.9,11,55.3 c0.6,2.9,0.7,5.9,3.4,8.2c9.8,8.3,19.4,16.9,29.1,25.3c0.7,0.6,2,0.9,2.9,0.7c10.8-2.7,21.5-5.5,32.3-8.3c0.5-0.1,1-0.5,1.4-1 c7.3-8.3,14.6-16.7,21.9-25c10.6-12.1,21.2-24.3,31.9-36.4c7.5-8.5,15-17.1,22.6-25.6c4.6-5.1,4-13.3-1.3-17.7 c-10-8.4-19.7-17.1-29.5-25.7c-14.5-12.7-29-25.4-43.5-38.1c-5.3-4.6-11.7-4.4-16.6,0.7c-3.6,3.8-7,7.8-10.5,11.7 c-4.5,5.1-8.9,10.2-13.5,15.5C804.5,373.2,807.3,373.9,810.6,374.8z M781.2,367.7c2.3,0.5,4.5,0.8,6.5,1.5c2.1,0.8,3.5,0.2,4.9-1.4 c7.9-9.1,16-18,23.8-27.3c9.1-10.9,22.9-12.1,33.2-2.5c3.5,3.2,7.1,6.3,10.7,9.4c12.5,10.9,25,21.9,37.5,32.8 c3.8,3.4,7.7,6.7,11.7,10.2c2.8-4.6,5.5-9,8.2-13.4c4.1-6.8,2.5-13.3-4.3-17.4c-27.4-16.6-54.9-33.1-82.2-49.7 c-5.9-3.6-14-2.1-17.6,4.3c-5.3,9.5-11.2,18.6-16.8,27.8C791.5,350.5,786.4,359,781.2,367.7z M771.2,365.3c0.3-0.6,0.5-0.9,0.7-1.2 c11.1-18.4,22.2-36.8,33.3-55.1c6.6-10.9,19.4-14.1,30.3-7.6c18.5,11.1,36.9,22.3,55.4,33.5c3.6,2.1,7.2,4.2,10.8,6.4 c1.5-4.1,2.9-7.6,4.2-11.3c2.2-6.4-0.6-12.5-6.9-14.9c-30.5-11.5-61.1-22.9-91.7-34.2c-6.7-2.5-13,0.5-15.6,7.2 c-4,10.5-7.9,21-11.8,31.6c-5.4,14.6-10.8,29.2-16.3,43.9C766.2,364.1,768.6,364.7,771.2,365.3z"></path> <path style="fill:#FFFFFF;" d="M514.8,509.3c0,8.5-1.1,16.8-4.6,24.6c-6.6,14.4-18.3,22.1-33.8,24.2c-9.7,1.4-19.3,1-28.8-1.6 c-15-4.1-24.5-14-28.9-28.6c-3.7-12-3.5-24.2,0-36.2c4.1-14.2,13.3-23.9,27.5-28.3c14.9-4.6,29.9-4.3,44.3,2.1 c14.2,6.3,21.3,18.2,23.5,33.2C514.5,502.2,514.5,505.7,514.8,509.3z M485.3,509.4c-0.1,0-0.3-0.1-0.4-0.1c-0.3-3.1-0.4-6.3-0.9-9.4 c-1.4-9.8-8.3-16.2-17.9-16.6c-9.5-0.4-16.6,5.2-18.8,15c-1.5,6.5-1.4,13.1-0.6,19.7c1.2,9.7,6.4,18.8,20.5,18.1 c7.1-0.4,13.2-4.2,15.2-11.1C483.9,520,484.4,514.7,485.3,509.4z"></path> <path style="fill:#FFFFFF;" d="M559.9,556.9c-10.2,0-19.9,0-29.8,0c0-31.4,0-62.8,0-94.4c24.1,0,48.1,0,72.5,0 c0,6.4,0.1,12.8,0,19.1c0,2.1-1.8,1.7-3.1,1.7c-12,0-24,0-36,0c-1.1,0-2.2,0-3.4,0c0,5.2,0,10.2,0,15.5c12,0,23.9,0,36.1,0 c0,6.7,0,13.1,0,19.8c-12,0-23.9,0-36.2,0C559.9,531.4,559.9,544,559.9,556.9z"></path> <path style="fill:#FFFFFF;" d="M161,497.9c1.7-0.4,3.4-0.9,5.8-1.4c-0.9,3.6-1.7,6.6-2.5,9.9c-1.6-1.1-2.9-2.1-4.1-3 c-0.4,1.9-0.5,3.8-1.3,5.4c-1.7,3.1-6.2,3.3-8.6,0.5c-3.7-4.5-7.2-9-10.5-13c4-2.1,8.6-4.4,13.2-6.9c3.5-1.9,5.5-2,7.6,0 c2.4,2.3,2.3,4.8,0.6,7.4c-0.2,0.2-0.3,0.5-0.4,0.8C160.8,497.6,160.9,497.7,161,497.9z"></path> <path style="fill:#FFFFFF;" d="M617,368.8c0.9-6.4,1.8-12.4,2.7-18.7c7.7-0.1,15.2,0.4,22,4.4c3.4,2,5,5.3,4.2,9.3 c-0.7,3.8-3.5,5.6-6.9,6.4C631.7,371.9,624.6,370.7,617,368.8z"></path> <path style="fill:#FFFFFF;" d="M524.8,371.5c4.9-8.2,9.8-16.3,15.1-25.1c1.8,8.7,3.5,16.7,5.3,25.1 C538.3,371.5,531.8,371.5,524.8,371.5z"></path> <path style="fill:#FFFFFF;" d="M830.5,370.3c-0.4,1.4-0.7,2.7-1.2,4.5c-2.3-1.9-4.3-3.7-6.8-5.8c1.8-0.8,3-1.3,4.2-1.9 c-0.3,0.2-0.5,0.5-0.8,0.7c-0.9-1.3-1.9-2.5-2.6-3.9c-1.4-2.8,0.1-5.7,3.3-6.3c4.7-0.9,9.4-1.7,13.8-2.4c-0.2,4.5-0.2,9.4-0.6,14.2 c-0.1,1.3-1.3,3.2-2.4,3.6c-1.5,0.5-3.4-0.1-5-0.6C831.6,372.2,831.2,371.1,830.5,370.3z"></path> </svg> 