<?xml version="1.0" encoding="UTF-8"?> <svg xmlns="http://www.w3.org/2000/svg" xmlns:xlink="http://www.w3.org/1999/xlink" version="1.1" id="Layer_1" x="0px" y="0px" viewBox="0 0 1000 1000" style="enable-background:new 0 0 1000 1000;" xml:space="preserve"> <g> <path style="fill:#FFFFFF;" d="M841,446.6c72.5-48.3,108.7,18.1,108.7,18.1s0,0-6-84.5c0.3,3.6-73.1-12.3-81-14.9 c-51.3-17.1-106.3-26.8-156-47.9c-106-44.9-219.8-63.8-330.7-21.7C206.9,350,98.2,368.1,98.2,368.1L74,356.1l-6,54.3 c0,0,0,0,36.2-6c247.6,42.3,181.2,181.2,42.3,144.9c120.8,36.2,169.1,277.8,169.1,277.8s-6-193.2-6-338.2 c48.3,30.2,235.5,253.6,314,314c78.5,60.4,229.5,84.5,295.9-36.2c48.3-108.7-48.3-169.1-120.8-151C728.1,633.4,712.3,747.2,788,770 c3.4,1,6.9,1.8,10.5,1.9c26.8,0.6,55.6-26,56.1-52.7c0.2-12.1-4.5-23.8-11.9-33.3c-4.6-5.8-23.3-24.5-31.9-21.8 c114.7-36.2,78.5,157-42.3,138.9c-181.2-30.2-332.1-247.6-368.4-289.9C539,555.3,768.5,495,841,446.6z M219,392.3 c0,0,67.3-40.3,177.2-59.3c-12.6,13.2-20.2,29.5-20.2,47.3c0,43.4,44.6,78.5,99.6,78.5c55,0,99.6-35.1,99.6-78.5 c0-21.9-11.4-41.7-29.8-55.9c85.9,4.7,184.3,26.6,289.4,80.1C496.8,555.3,345.8,464.8,219,392.3z"></path> <path style="fill:#FFFFFF;" d="M62,271.5c5,12.5,5.8,20.4,6,33.9c0,1.7,0.2,3.6,1.5,4.8c1.1,1.1,2.8,1.2,4.4,1.3 c60.2,3.5,117.8-6.8,176.4-19.5c39.5-8.5,78.7-18.3,117.6-29.1c38.6-10.8,75.8-22,116-25.1c80.2-6.1,159.1,14.9,236.3,33.7 c41.5,10.1,81,27.7,123,36.6c33.3,7.1,65.8,5.3,99.4,0.7c10.1-1.4,6-8.1,4.4-16.5c-0.7-4-1.1-8.4-2.4-12.4c-0.2-0.7-1.3-2.9-1-2.4 c0,0-84.5,0-175.1-30.2c-14.2-4.7-27.8-12.9-41.8-18.4c-18.7-7.3-37.8-13.7-57.2-19.2c-48.5-13.8-98.7-22.3-149.1-24.8 c-54.9-2.7-110.2,1.6-163.7,13.9c-26.8,6.1-53.1,14.2-78.6,24.3c-25.6,10.1-49.7,23.8-75.5,33.3c-42.6,15.8-89.9,18.8-134.2,8.5 C68.4,265.1,61.9,271.4,62,271.5z"></path> </g> </svg> 