<?xml version="1.0" encoding="UTF-8"?> <svg xmlns="http://www.w3.org/2000/svg" xmlns:xlink="http://www.w3.org/1999/xlink" version="1.1" id="Layer_1" x="0px" y="0px" viewBox="0 0 1000 1000" style="enable-background:new 0 0 1000 1000;" xml:space="preserve"> <g id="Livello_70"> <path style="fill:#FFFFFF;" d="M174.8,462H69.2C49.8,462,34,477.7,34,497.1c0,19.4,15.8,35.1,35.2,35.1h105.6 c19.4,0,35.2-15.7,35.2-35.1C210,477.7,194.3,462,174.8,462 M278.4,619.4c68.1,117.5,218.8,157.8,336.7,89.9 c117.9-67.8,158.3-218.1,90.2-335.6c-68.1-117.5-218.8-157.8-336.7-89.9C250.7,351.6,210.3,501.9,278.4,619.4 M234.6,309.2 l-91.5-52.6c-16.8-9.7-38.4-3.9-48.1,12.8c-9.7,16.8-4,38.3,12.9,47.9l91.5,52.6c16.8,9.7,38.4,3.9,48.1-12.8 C257.2,340.4,251.5,318.9,234.6,309.2 M363.9,205.4L311,114.2c-9.7-16.8-31.3-22.5-48.1-12.8c-16.8,9.7-22.6,31.2-12.9,47.9 l52.8,91.2c9.7,16.8,31.3,22.5,48.1,12.8C367.8,243.7,373.6,222.2,363.9,205.4 M534.4,79c0-19.4-15.8-35.1-35.2-35.1 C479.7,43.9,464,59.6,464,79v105.3c0,19.4,15.7,35.1,35.2,35.1c19.4,0,35.2-15.7,35.2-35.1V79L534.4,79z M724.9,108.5 c-16.8-9.7-38.4-3.9-48.1,12.8l-52.8,91.2c-9.7,16.8-4,38.3,12.9,47.9c16.8,9.7,38.4,4,48.1-12.8l52.8-91.2 C747.5,139.6,741.7,118.1,724.9,108.5 M784.5,369.2l91.5-52.6c16.8-9.7,22.6-31.2,12.9-47.9c-2.4-4.2-5.6-7.7-9.3-10.5 c-11-8.3-26.3-9.7-38.9-2.4l-91.5,52.6c-16.8,9.7-22.6,31.2-12.9,47.9c2.4,4.2,5.6,7.7,9.3,10.5 C756.5,375.1,771.8,376.5,784.5,369.2 M809,531.5h105.6c19.5,0,35.2-15.7,35.2-35.1s-15.8-35.1-35.2-35.1H809 c-19.5,0-35.2,15.7-35.2,35.1S789.6,531.5,809,531.5 M749,685.5l91.5,52.7c16.8,9.7,38.4,3.9,48.1-12.8c9.7-16.8,4-38.3-12.9-47.9 l-91.5-52.6c-16.8-9.7-38.4-3.9-48.1,12.8C726.4,654.3,732.1,675.8,749,685.5 M619.8,787.7l52.8,91.2c9.7,16.8,31.3,22.5,48.1,12.8 c16.8-9.7,22.6-31.2,12.9-47.9l-52.8-91.2c-9.7-16.8-31.3-22.5-48.1-12.8C615.8,749.4,610.1,770.9,619.8,787.7 M464.2,921.9 c0,19.4,15.8,35.1,35.2,35.1c19.4,0,35.2-15.7,35.2-35.1V816.6c0-19.4-15.8-35.1-35.2-35.1c-19.5,0-35.2,15.7-35.2,35.1V921.9z M267,899.3c16.8,9.7,38.4,3.9,48.1-12.8l52.8-91.2c9.7-16.8,4-38.3-12.9-47.9c-16.8-9.7-38.4-4-48.1,12.8l-52.8,91.2 C244.4,868.2,250.1,889.7,267,899.3 M95.6,725.3c9.7,16.8,31.2,22.5,48.1,12.8l91.5-52.7c12.7-7.3,19.1-21.3,17.3-34.9 c-0.6-4.6-2-9.1-4.5-13.4c-9.7-16.8-31.2-22.5-48.1-12.8l-91.5,52.7c-12.7,7.3-19.1,21.3-17.3,34.9 C91.7,716.6,93.2,721.1,95.6,725.3"></path> </g> <g id="Livello_1_1_"> </g> </svg> 