<?xml version="1.0" encoding="UTF-8"?> <svg xmlns="http://www.w3.org/2000/svg" xmlns:xlink="http://www.w3.org/1999/xlink" version="1.1" id="Layer_1" x="0px" y="0px" viewBox="0 0 1000 1000" style="enable-background:new 0 0 1000 1000;" xml:space="preserve"> <path style="fill:#FFFFFF;" d="M298.6,109c4,0,40.9,0,40.9,0v34.3c0,0,13.2-25.1,89.7-25.1s130.6,21.1,193.9,25.1 s121.3-43.5,121.3-43.5h39.6v120c0,0-117.4,200.5-153,279.6c-20.1,61.5-11.9,146.4-129.2,146.4S389.6,529.7,389.6,529.7 S379,426.9,624.3,300.2c0,0-108.1,5.3-170.1,5.3s-106.8-40.9-114.7,31.7h-40.9V109z"></path> <path style="fill:#FFFFFF;" d="M276.5,757.8c13.5-0.2,36.6-8.9,36.6-65.9c0-80.5-80.4-87-80.4-87s-188.6-1.3-197.8,0v316.5 c0,0,183.3,0,212.3,0s85.7-10.6,85.7-87C332.9,776.2,294.7,761.5,276.5,757.8z M202.3,875h-68.6v-72.5c0,0,42.2,0,67.3,0 s29,14.5,29,42.2S202.3,875,202.3,875z M202.3,746h-68.6v-72.5c0,0,42.2,0,67.3,0c25.1,0,29,14.5,29,42.2 C230,743.4,202.3,746,202.3,746z"></path> <path style="fill:#FFFFFF;" d="M371.1,604.3v317.1h263.8v-82.7H474v-36.3h126.6v-76.2H474v-40.9h149v-81c0,0-31.7,61.3-114.7,61.3 s-117.4-61.3-117.4-61.3H371.1z"></path> <polygon style="fill:#FFFFFF;" points="661.3,604.3 661.3,685.4 753.6,685.4 753.6,921.4 857.8,921.4 857.8,693.3 948.8,693.3 948.8,604.3 "></polygon> </svg> 