<?xml version="1.0" encoding="UTF-8"?> <svg xmlns="http://www.w3.org/2000/svg" xmlns:xlink="http://www.w3.org/1999/xlink" version="1.1" id="Layer_1" x="0px" y="0px" viewBox="0 0 1000 1000" style="enable-background:new 0 0 1000 1000;" xml:space="preserve"> <path style="fill:#FFFFFF;" d="M787.7,109.2H224.9c-6.4,0-12.5,3.2-16,8.6L49,353.2c-4.6,7-4.2,16.3,1.1,22.7l441.3,544.9 c7.7,9.4,22.1,9.4,29.7,0l441.3-544.9c5.3-6.6,5.8-15.7,1.1-22.7L803.9,117.8C800.2,112.4,794.3,109.2,787.7,109.2z M756.9,186 l101.2,153.5H748.7L666.1,186H756.9L756.9,186z M433.7,186h145l82.7,153.5H351.2L433.7,186z M255.8,186h90.8l-82.7,153.5H154.6 L255.8,186z M187,416.2h82.2L378.4,672L187,416.2z M351.6,416.2h309.5l-154.8,389L351.6,416.2L351.6,416.2z M634.2,672l109-255.8 h82.2L634.2,672z"></path> </svg> 