<?xml version="1.0" encoding="UTF-8"?> <svg xmlns="http://www.w3.org/2000/svg" xmlns:xlink="http://www.w3.org/1999/xlink" version="1.1" id="Layer_1" x="0px" y="0px" viewBox="0 0 1000 1000" style="enable-background:new 0 0 1000 1000;" xml:space="preserve"> <path style="fill:#FFFFFF;" d="M966.1,159.2c-314,19.6-628.9,19.6-942.9,0c-4-0.3-5.6,2.3-3.3,5.7c8.6,14,17.2,27.9,25.9,41.8 c2.3,3.4,7.5,6.4,11.6,6.6c10.2,0.6,20.5,1,30.7,1.5c5.1,8.8,10.1,17.5,15.2,26.3c4.6,8,9.3,15.9,13.9,23.9 c2.1,3.5,7.1,6.5,11.1,6.6c32.5,0.9,65.3,1.7,98.2,2.3l-1.9,78.2h-79.5c-4.1,0-7.4,3.3-7.4,7.4v44.6c0,4.1,3.4,7.4,7.4,7.4h78 l-10.9,453.7c-0.1,4.1,3.2,7.5,7.3,7.5h59.7c4.1,0,7.5-3.4,7.6-7.5l11-453.7h393.6l10.9,453.7c0.1,4.1,3.5,7.5,7.6,7.5h59.7 c4.1,0,7.4-3.4,7.3-7.5l-10.9-453.7h78c4.1,0,7.4-3.3,7.4-7.4v-44.6c0-4.1-3.3-7.4-7.4-7.4h-79.4l-1.9-78.2 c32.9-0.7,65.7-1.4,98.2-2.3c4.1-0.1,9.1-3.1,11.1-6.6l0,0c4.7-8,9.3-15.9,13.9-23.9c5.1-8.8,10.2-17.5,15.2-26.3 c12.7-0.7,25.5-1.2,38.2-2c4.1-0.2,9.4-3.2,11.6-6.6c6.1-13.8,12.3-27.6,18.4-41.4C971.6,161.6,970.1,159,966.1,159.2z M301.2,275.4 c51.9,0.8,104.1,1.2,156.3,1.3v75.6H299.3L301.2,275.4z M690,352.3H531.8v-75.6c52.3-0.1,104.5-0.5,156.3-1.3L690,352.3z"></path> </svg> 