<?xml version="1.0" encoding="UTF-8"?> <svg xmlns="http://www.w3.org/2000/svg" xmlns:xlink="http://www.w3.org/1999/xlink" version="1.1" id="Layer_1" x="0px" y="0px" viewBox="0 0 1000 1000" style="enable-background:new 0 0 1000 1000;" xml:space="preserve"> <path style="fill:#FFFFFF;" d="M588.7,421.3c-0.3,0.8-0.4,1.1-1.1,2.8c-0.8-23-6-43-25.3-57.4c2.2,3.1,4.1,5.4,5.5,8 c1.4,2.5,2.3,5.3,2.9,8.2c-2.1-2.4-4.2-4.7-6.2-7.1c-0.2,0.1-0.5,0.2-0.7,0.4c0.5,1.1,1,2.2,1.5,3.3c-0.2,0.2-0.5,0.3-0.7,0.5 c-1.5-1.9-2.9-3.8-4.7-6c0.8,3.2,1.5,6,2.3,9.3c-4.6-5.1-8.8-9.7-12.9-14.4c-0.4,0.3-0.7,0.6-1.1,0.9c3.5,4.4,6.9,8.8,10.4,13.3 c-0.3,0.2-0.6,0.5-0.9,0.7c-10.5-12.9-22.4-24.2-37.2-32c-15-7.9-30.6-10.3-47.1-8.3c0,0.3-0.1,0.7-0.1,1c3.8-0.3,7.6-0.6,11.5-0.9 c-6.6,1.8-13.7,1.5-19.4,5.3c-1.2,0.2-2.6,0-3.5,0.6c-7,4.9-13.9,10-21.5,15.6c1.9,0.6,2.5,0.8,3.4,1.1c-1.2,1.5-2.2,3-3.4,4.4 c-7,8.3-12.8,17.5-16.9,27.5c-5.5,13.3-7.8,27.3-7.5,41.8c0.1,4.7,0.2,9.2,3.9,12.9c1.1,1.1,1.2,3.2,1.8,4.9 c1.3,4.1,2.5,8.1,3.8,12.2c1.2-0.5,1.9-0.8,2.6-1.2c-0.7-2.2-1.5-4.6-2.2-7c0.5-0.3,1-0.6,1.6-0.9c12.8,32.3,38.3,46,70.9,49.8 c26.5,3.1,56.7-10.3,78-40.7c-1,3.4-1.7,5.8-2.3,8.3c7.4-8.1,9.4-18.8,15-28.3c0.2,1.1,0.7,2.3,0.4,3.3c-1,4.2-2.3,8.4-3.4,12.6 c0.7,0.2,1.3,0.4,2,0.7c1.8-4.7,3.5-9.4,5.3-14c2.9,10.2-3.1,18.5-7.8,26.4c-5.2,8.7-11.7,16.9-18.9,24 c-15.1,15-33.1,25.2-54.8,27.1c-7.3,0.7-15,0.9-22.2-0.3c-7.1-1.3-13.9-4.6-20.8-7.2c-13.3-5.1-26-11.6-37-20.7 c-13.6-11.2-23.5-25.1-27.3-42.8c-0.6-2.9-2-5.6-3.1-8.4c0.4-0.2,0.7-0.4,1.1-0.6c0.7,0.7,1.3,1.4,2.1,2.2c0.7-0.8,1.3-1.5,2-2.3 c-2.2,4.7-1.5,8.8,1.9,13.1c0.2-1.5,0.3-2.6,0.4-3.2c3.9,6.3,8,12.9,12,19.4c0.3-0.2,0.7-0.4,1-0.6c-2-3.9-4.4-7.6-6-11.6 c-2.2-5.8-3.8-11.8-5.5-17.8c-0.5-1.8-0.7-3.7-0.8-5.6c-0.1-3.3-2.8-6.5-0.2-10c0.7-0.9,0.4-2.7,0.1-4c-2.6-9.8,2-18.8,3.1-28.1 c0.5-4,0.9-8,1.4-12.3c-1.1-0.2-2.3-0.5-4-0.8c3.8-9.3,7.2-18.6,11.2-27.5c3.5-7.8,9.1-14.2,16.2-19.1c0.8-0.6,1.8-1,3-1 c-1.8,1.6-3.6,3.2-5.3,4.9c-1.6,1.7-2.9,3.6-4.4,5.5c0.3,0.4,0.6,0.8,0.9,1.1c7.4-4.8,14.8-9.6,22.2-14.4c-0.1-0.3-0.3-0.5-0.4-0.8 c-1.8,0.8-3.6,1.6-5.5,2.4c-0.2-0.3-0.4-0.6-0.6-0.9c3-2,5.9-4.5,9.1-6.1c14.3-6.7,29.4-9.8,45.1-8.5c19.5,1.7,37.1,8.6,53.1,19.9 c5.6,3.9,11.5,7.4,17.2,11.2c1.5,1,2.8,2.3,4.1,3.5c-0.2,0.3-0.4,0.6-0.7,0.9c-3.1-2.1-6.1-4.2-9.2-6.3c-0.1,0.1-0.1,0.3-0.2,0.4 c5.7,7.5,11.4,15,16.9,22.6c0.6,0.8,0.2,2.2,0.4,3.3c0.2,1,0.4,1.9,0.7,2.8c2.3,5.2,4.8,10.2,6.8,15.4c1.3,3.6,1.8,7.4,2.7,11.2 c-0.5,0.1-1,0.3-1.4,0.4c-0.8-1.7-1.6-3.3-2.4-5c-0.2,0-0.4,0-0.6,0c0.3,6,0.7,12,1,18.1c-0.2,0-0.4,0-0.6,0.1 C589.3,422.4,589.1,422,588.7,421.3z M584.8,469.8c-1.5,1.9-3.8,4.3-5.7,6.9c-2.8,4.1-5.4,8.4-8.2,13c1.3-0.5,2.2-0.9,3.6-1.5 c-1.2,1.5-1.9,2.5-2.6,3.5C579.9,485.5,584.1,477.5,584.8,469.8z M446.4,494.3c-5.8-6.7-10.8-12.4-15.4-17.7 c0.5,1.9,1.1,4.4,1.8,6.9c-0.5,0.3-1,0.7-1.5,1C436,487.6,440.8,490.7,446.4,494.3z M459,335.7c0.1,0.3,0.2,0.6,0.3,0.9 c3.3-0.9,6.7-1.9,10-2.8c-0.2-0.6-0.4-1.3-0.6-1.9C465.4,333.1,462.2,334.4,459,335.7z M550,368.4c-0.7-3.5-1.7-6.6-6.2-6.5 C545.9,364.1,547.9,366.2,550,368.4z"></path> <path style="fill:#FFFFFF;" d="M637.6,562.3c2.8,31,5.5,61.6,8.3,92.5c-7,0-13.6,0-20.7,0c-1.5-18.2-3-36.4-4.4-54.6 c-0.3-0.1-0.6-0.1-0.9-0.2c-6.3,18-12.6,36-18.9,53.9c-0.3,0.1-0.4,0.2-0.5,0.2c-12.3,0.5-12.2,0.5-16.3-11.4 c-4.7-13.9-9.5-27.8-14.3-41.7c-0.1-0.2-0.4-0.3-1.4-1.1c-1.5,18.5-3,36.5-4.5,54.8c-6.7,0-13.6,0-20.5,0c0.7-8.9,1.2-17.8,2-26.7 c1.2-13.3,2.7-26.5,4-39.8c0.7-7.1,1.4-14.3,1.6-21.4c0.1-3.7,1.3-4.7,4.8-4.5c4.6,0.3,9.3,0.2,13.9,0c3-0.2,4.2,1,5.3,3.7 c6.2,16.5,12.6,32.9,19.3,50.3c1-2.3,1.8-3.9,2.4-5.5c5.9-15.2,11.8-30.4,17.6-45.6c0.8-2.2,1.7-2.9,4-2.9 C624.7,562.4,630.8,562.3,637.6,562.3z"></path> <path style="fill:#FFFFFF;" d="M324.3,656.7c-27.9,0.1-47-20.9-46.8-47.5c0.1-28,19.6-48,46.9-48.2c25.4-0.2,47.2,19.8,46.4,50.1 C370.1,635.9,350.7,657,324.3,656.7z M324.5,581.1c-7.6-0.3-13.3,2.6-18,7.9c-5.6,6.3-6.4,13.8-6.5,21.8 c-0.2,13.7,10,28.5,28.2,25.4c8.9-1.5,14.7-6.2,17.8-14.3c2.4-6.2,3.1-12.6,1.8-19.3C345.9,591.4,338.1,580.4,324.5,581.1z"></path> <path style="fill:#FFFFFF;" d="M49.3,627.3c6.2,5.2,13.1,8.6,20.8,10.4c6.7,1.5,14-2.5,14.9-8c0.7-4.1-1-7-5.6-9.4 c-5.3-2.8-10.9-5.2-16.1-8.1c-6.2-3.4-11.7-7.6-14.5-14.5c-3.1-7.7-2.2-15.1,1.7-22.1c5.9-10.4,15.8-14.7,27-14.7 c9.8,0,19.3,3,27.7,8.5c-2.6,5.4-5.4,10.9-7.8,16c-5.8-1.9-11.2-3.9-16.8-5.5c-5.3-1.5-11.2,1.8-13,6.5c-1.3,3.4,0.3,5.7,2.7,7.1 c5.8,3.3,11.8,6.2,17.8,9.1c8.3,4.1,16.1,9.1,18.9,18.3c3.9,13-1.5,28-17.3,33.3c-17.4,5.8-33.6,2.1-48.8-7.6 c-1.9-1.2-1.9-2.6-0.8-4.4C43.2,637.3,46.2,632.4,49.3,627.3z"></path> <path style="fill:#FFFFFF;" d="M463.7,654.9c-7.2,0-13.7,0-20.7,0c0-24.5,0-48.9,0-73.6c-7.5,0-14.5,0-21.9,0c0-6.3,0-12.4,0-18.7 c21.3,0,42.7,0,64.3,0c0,6,0,12,0,18.4c-7,0-14.2,0-21.8,0C463.7,605.7,463.7,630.1,463.7,654.9z"></path> <path style="fill:#FFFFFF;" d="M193.3,637.1c11.1,0,21.4,0,32,0c0,6,0,11.7,0,17.7c-17.3,0-34.6,0-52.1,0c0-30.7,0-61.4,0-92.3 c6.7,0,13.2,0,20.1,0C193.3,587.1,193.3,611.8,193.3,637.1z"></path> <path style="fill:#FFFFFF;" d="M809.4,562.4c6.8,0,13.3,0,20.3,0c0,24.8,0,49.5,0,74.4c10.8,0,21.1,0,31.8,0c0,6.1,0,11.9,0,17.9 c-17.3,0-34.6,0-52,0C809.4,624.1,809.4,593.5,809.4,562.4z"></path> <path style="fill:#FFFFFF;" d="M931.4,637.1c11.1,0,21.4,0,32,0c0,6,0,11.7,0,17.7c-17.3,0-34.6,0-52.1,0c0-30.7,0-61.4,0-92.3 c6.7,0,13.2,0,20.1,0C931.4,587.1,931.4,611.8,931.4,637.1z"></path> <path style="fill:#FFFFFF;" d="M733.4,655c-6.8,0-13.2,0-20,0c0-30.8,0-61.4,0-92.4c6.5,0,13.1,0,20,0 C733.4,593.3,733.4,623.9,733.4,655z"></path> </svg> 