<?xml version="1.0" encoding="UTF-8"?> <svg xmlns="http://www.w3.org/2000/svg" xmlns:xlink="http://www.w3.org/1999/xlink" version="1.1" id="Layer_1" x="0px" y="0px" viewBox="0 0 1000 1000" style="enable-background:new 0 0 1000 1000;" xml:space="preserve"> <g> <path style="fill-rule:evenodd;clip-rule:evenodd;fill:#FFFFFF;" d="M487.6,686.4l-43.1,0.8c-5.6,0.4-11.3,0.8-16.9,1 c-2.9,9.1-3.3,17.9,0.2,25.8c17.3,38.1,36.1,107.2,36.1,107.2l-92.7,134.4h55.6L500.2,827l10.1-67.2c-5.4-11.1-11.1-22.3-17.3-33 C485.8,714.5,484.7,700.7,487.6,686.4z"></path> <path style="fill-rule:evenodd;clip-rule:evenodd;fill:#FFFFFF;" d="M973.8,184.8l-278,32.2c0,0,265.5-65.7,253.3-152.9 l-353.9,96.5c0,0-151.1,68.4-78.3,155.6c73,87.2-106.8,106.8-106.8,106.8s48.2-160.4-85.9-212.7c0,0,145.3,15,101.2,196.4 c113.4-174.8-68.8-271-189.6-256.8l10.7,49.7l-82.9,143.5c0,0,23.3,30.7,52.6,11.5c0,0,37.5-28.9,47.2-28.6 c9.7,0.4,53.8,0.8,43.1-62c0,0,28.2,44.1-14.6,77.1c0,0-12.4,48.4-32.4,69.3c-19.8,20.6-69.9,56.9-19.8,158.1l19.6-2.3 c0,0-110.3,34.8-116.5,37.5c-6,2.7-19.4,26.2,18.1,52.4c37.5,26.2,53.8,42.9,53.8,42.9l83.7-8.7c0,0-6.2-29.5-39.6-36.9l-38.1,11.7 l-43.3-40.6l120.8,2.7c0,0,48.4,47.6,145.3,39l51.9-1.4c0,0,14.8-40,50.1-50.7c0,0-57.1,62-28.6,100.4 c28.6,38.1,104.5,111.7,104.5,111.7l-49.5,124.3h55.6l36.9-127.2l-55.9-91.7c0,0,83-36.5,84.9-98.4c52,32.5,4.4,97.1,27.1,179.4 c26.8,97.3,147.6,49.7,147.6,49.7s-112.1-86.6-112.3-174c-0.3-58.2-41.5-80.4-69.1-88.7c-3.4-7.8-8.1-15.9-14.3-24.3 c0,0-44.3-49.3-140.8-69.9c-96.7-20.6-85.9-46.8-85.9-46.8s102.2,66.6,247.9,46.8l-129.2-56.3c0,0,107.2,28.2,219.9-10.7L630,393.8 c0,0,195.8,28.2,253.3-18.8l-218.5-41.4c0,0,221.2,14.6,273.5-42.9l-248.2-8.2C690.2,282.5,956.9,269.1,973.8,184.8z"></path> <path style="fill-rule:evenodd;clip-rule:evenodd;fill:#FFFFFF;" d="M209.2,491.5l-57.9-20c0,0-38.3-11.3-56.3,6.8 c-17.7,18.3-67.6,109-67.6,109c63.5,32.2,58.5-10.9,65.3-32.2c13.4-24.3,25.6-51.9,25.6-51.9l95.2,49.3 C207.7,527.7,206.9,507.7,209.2,491.5z"></path> </g> </svg> 