<?xml version="1.0" encoding="UTF-8"?> <svg xmlns="http://www.w3.org/2000/svg" xmlns:xlink="http://www.w3.org/1999/xlink" version="1.1" id="Layer_1" x="0px" y="0px" viewBox="0 0 1000 1000" style="enable-background:new 0 0 1000 1000;" xml:space="preserve"> <g> <polygon style="fill:#FFFFFF;" points="631.7,504.5 675.5,545.9 719.4,504.5 675.6,463.1 "></polygon> <polygon style="fill:#FFFFFF;" points="304.4,504.5 348.2,545.9 392.2,504.5 348.4,463.1 "></polygon> <path style="fill:#FFFFFF;" d="M401.4,504.5l111.9,111.9l111.9-111.9L513.3,392.6L401.4,504.5z M558.5,504.5l-45.2,45.2l-45.2-45.2 l45.2-45.2L558.5,504.5z"></path> <path style="fill:#FFFFFF;" d="M974.9,662.6l-100.8-96L809,504.5l65.2-62.1l100.8-96H835.8h-74.7l6-5.7l100.7-96H728.7h-75l6.4-6.1 l100.8-96H621.7H406.6H267.4l100.8,96l6.4,6.1h-75.9H159.5l100.8,96l6,5.7h-75.5H51.7l100.8,96l65.2,62.1l-65.2,62.1l-100.8,96 h139.2h75.4l-5.9,5.7l-100.8,96h139.2h76l-6.5,6.2l-100.7,96h139.2h215.1h139.2l-100.7-96l-6.5-6.2h75.1h139.2l-100.8-96l-6-5.7 h74.6H974.9z M728.7,708.5H514.4l107.2,102.2H406.6l107.2-102.2h-0.1h-215l106.8-101.7H190.8l107.5-102.4L190.8,402.1h214.6 L298.7,300.4h215h0.1L406.6,198.3h215.1L514.4,300.4h214.2L622,402.1h213.8L728.2,504.5l107.5,102.4H622L728.7,708.5z"></path> </g> </svg> 