<?xml version="1.0" encoding="UTF-8"?> <svg xmlns="http://www.w3.org/2000/svg" xmlns:xlink="http://www.w3.org/1999/xlink" version="1.1" id="Layer_1" x="0px" y="0px" viewBox="0 0 1000 1000" style="enable-background:new 0 0 1000 1000;" xml:space="preserve"> <g id="_x31_18_x2C__forest_x2C__camping_x2C__jungle_x2C__tree_x2C__pines"> <g> <path style="fill-rule:evenodd;clip-rule:evenodd;fill:#FFFFFF;" d="M458.6,703.7v86.1h72.7v-86.1H458.6z M154.6,549.8L24.2,690.9 H187l0.7-0.9l106.2-115c-20.2,0.6-40.5-0.7-61.1-3.9C207,567.1,180.9,560,154.6,549.8z M204.5,426.7l-97.1,105h45.3 c2,0,3.8,0.7,5.2,1.9c26.1,10.3,52,17.5,77.4,21.4c25.1,3.9,49.9,4.8,74.5,2.8l25.3-27.3h-50.8c-2-0.1-4-0.7-5.5-2.2 c-3.3-3-3.5-8.2-0.5-11.5l83.7-90.6c-25.4,10.2-51.4,15.5-77.9,15.5C257.9,441.9,231.4,436.8,204.5,426.7z M336.7,323.6 L336.7,323.6L336.7,323.6h0.2h0.1l0,0h12.5l-68.4-82.9l-65.9,82.9h9.6c0.7,0,1.3,0.1,1.9,0.2c1.5-0.3,3.2-0.3,4.8,0.4 c17.8,7.1,35.2,10.6,52.1,10.6c16.9,0,33.5-3.5,49.9-10.5C334.5,323.8,335.5,323.6,336.7,323.6z M355.4,396.9 c-4.3-0.3-7.8-3.8-7.8-8.2c0-2.3,0.9-4.2,2.4-5.7l10-12.1l-25.5-29.6c-16.7,6.4-33.6,9.7-51,9.7c-18.2,0.1-36.6-3.5-55.3-10.6 L171.8,409h30.4c1.3,0,2.5,0.3,3.6,0.8c26.6,10.6,52.7,15.9,78.2,15.8c25.6,0,50.8-5.4,75.6-15.9c4.1-1.7,8.9,0.2,10.7,4.3 c0.3,0.9,0.5,1.7,0.6,2.7l18.2-19.7h-2.9H386h-30.2h-0.1h-0.2L355.4,396.9L355.4,396.9L355.4,396.9z M249.7,707.3v77.8h24.6v-77.8 H249.7z M763.8,323.8c0.6-0.1,1.2-0.2,1.9-0.2h9.6l-65.9-82.9l-55.9,82.9h0.5h0.1h0.1h0.1h0.1l0,0c0.9,0.1,1.9,0.3,2.8,0.7 c16.3,7,33,10.5,49.8,10.5c17,0.1,34.4-3.5,52.1-10.6C760.6,323.6,762.2,323.5,763.8,323.8z M784.7,409.8c1.1-0.5,2.3-0.8,3.5-0.8 h30.4l-56.3-68.6c-18.7,7.2-37.2,10.7-55.4,10.6c-17.3,0-34.3-3.3-51-9.7L630,371.5l9.8,11.5c1.5,1.5,2.5,3.5,2.5,5.8 c0,4.5-3.7,8.2-8.2,8.2h-33.2l18.6,20.2c0-1.1,0.2-2.1,0.7-3.1c1.7-4.1,6.5-6,10.6-4.3c24.8,10.6,50,15.9,75.6,15.9 C731.9,425.6,758,420.4,784.7,409.8z M832.6,533.7c1.4-1.2,3.2-1.9,5.2-1.9H883l-97-105c-26.9,10.1-53.5,15.1-79.6,15.1 c-26.7-0.1-53-5.4-78.6-15.9l83.6,90.5c1.5,1.5,2.5,3.6,2.5,5.9c0,4.5-3.7,8.2-8.2,8.2h-50.9l25.2,27.3c24.8,2.1,49.8,1.2,75-2.8 C780.6,551.1,806.4,543.9,832.6,533.7z M803,690.9h163.2L835.8,549.8c-26.3,10.2-52.4,17.3-78.2,21.3c-20.7,3.3-41.3,4.5-61.6,3.9 l105.9,114.6C802.3,690.1,802.7,690.5,803,690.9z M740.7,785.1v-77.8h-24.5v77.8H740.7z M553.9,287.7L553.9,287.7h0.1h0.1h0.1l0,0 h15.2l-76-92l-73.2,92h12c0.7,0,1.3,0.1,2,0.2c1.6-0.3,3.3-0.3,4.9,0.4c19.4,7.8,38.4,11.6,56.9,11.6c18.4,0,36.7-3.9,54.5-11.5 C551.7,287.9,552.9,287.7,553.9,287.7z M578.8,381.4L578.8,381.4l0.1-0.1l0.1-0.1l0.1-0.1l0,0h0.1l0.1-0.1h0.1l0.1-0.1l0,0h0.1 l0,0l0.1-0.1l0,0h0.1l0.1-0.1h0.1h0.1h0.1l0.1-0.1l0,0h0.1h0.1l0,0l0.1-0.1l0,0h0.1l0,0h0.1l0.1-0.1l0,0h0.1h0.1l0.1-0.1h0.1h0.1 h0.1l0,0h0.1h0.1l0,0l0.1-0.1h0.1l0,0h0.1h0.1h0.1l0,0h0.1h0.1l0,0h0.1h0.1h0.1h0.1h0.1h0.1h0.1h0.1h0.2l33.8-0.1l-64.7-75.1 c-18.2,7-36.8,10.6-55.7,10.7c-19.8,0-39.9-3.8-60.4-11.7L376.8,376l-3.8,4.6h12.9h0.2h21.4c1.3,0,2.5,0.3,3.6,0.9 c29.1,11.5,57.6,17.3,85.4,17.2C524.5,398.6,551.9,392.8,578.8,381.4z M631,516.2c1.5-1.3,3.4-1.9,5.3-1.9l50.8-0.1l-107-115.8 c-27.3,10.9-55.2,16.4-83.5,16.5c-28.5,0.1-57.4-5.4-86.7-16.5l-107,115.9h50.9c2,0,3.8,0.7,5.2,1.9 c47.1,18.6,93.4,27.7,138.7,27.7C542.9,543.7,587.3,534.5,631,516.2z M355.6,532.3L212.3,687.4h238h89.4h238l-143.2-155 c-44.7,18.2-90.3,27.6-136.8,27.7C451.1,560.1,403.8,551,355.6,532.3z"></path> </g> </g> <g id="Layer_1_00000121280000816817959920000000882230360127541942_"> </g> </svg> 