<?xml version="1.0" encoding="UTF-8"?> <svg xmlns="http://www.w3.org/2000/svg" xmlns:xlink="http://www.w3.org/1999/xlink" version="1.1" id="Layer_1" x="0px" y="0px" viewBox="0 0 1000 1000" style="enable-background:new 0 0 1000 1000;" xml:space="preserve"> <g> <path style="fill-rule:evenodd;clip-rule:evenodd;fill:#FFFFFF;" d="M417.3,616.1c1,1.8,1.2,2.8,1.8,3.4c6.6,6.7,13.4,13.4,20,20.2 c1.1,1.1,2.5,2.4,2.8,3.7c1.5,7.1,2.7,14.3,3.9,21.5c1.1,6.2,2.1,12.5,3.3,19.5c9.2-7.4,17.8-14,26-21c2.8-2.4,5.1-2.6,8.6-1.7 c24.4,6.5,49,6.7,73.4,0.5c5.4-1.4,8.7-0.5,12.5,2.8c7.6,6.4,15.5,12.5,23.5,18.9c0.5-1.3,0.9-2.1,1.1-2.9 c1.9-11.3,3.9-22.6,5.6-34c0.5-3.4,1.7-5.9,4.6-8.2c7.9-6.2,15-13.1,20.2-21.8C555.6,659,486.9,659,417.3,616.1z"></path> <path style="fill-rule:evenodd;clip-rule:evenodd;fill:#FFFFFF;" d="M435.5,517.1c6.7-1.6,8.4-5.7,8.7-11.8 c0.5-8.6,1.8-17.2,2.9-26.8c9.4,7,17.7,13.2,26.2,19.3c1.5,1.1,4,2.5,5.4,2c9.9-3.4,19.6-7.2,30.3-11.3 c-35.8-20.6-62-49.2-84.2-83.3c-14.2,39.5-13.3,78.3-6,118C424.8,520.9,430,518.4,435.5,517.1z"></path> <path style="fill-rule:evenodd;clip-rule:evenodd;fill:#FFFFFF;" d="M571.7,495.8c7.2-5.9,14.8-11.2,23.1-17.4 c1.2,10.7,2.1,20.2,3.4,29.7c0.3,2.4,1.2,5.8,2.9,6.6c7,3.2,14.3,5.6,22,8.5c6.9-39.8,8.3-78.5-6.2-117.7 c-22.3,34.1-48.5,62.7-84.1,83c8.8,3.4,16.9,5.9,24.6,9.6C563.1,500.8,567.1,499.5,571.7,495.8z"></path> <path style="fill-rule:evenodd;clip-rule:evenodd;fill:#FFFFFF;" d="M537.1,569c-5.5-9.5-10.5-18-16.3-27.9 c-5.8,10-10.8,18.5-16.2,27.9C516.1,569,526.1,569,537.1,569z"></path> <path style="fill-rule:evenodd;clip-rule:evenodd;fill:#FFFFFF;" d="M957.8,449.5c-68.9,122.7-174.6,166.6-174.6,166.6 c-31.4,0-58.9-9.8-76.3-17.9c0.6-0.6,1.3-1.1,2.2-1.6c10.4-5.7,18.9-13.7,26.4-22.7c23.3-27.9,37.2-60.1,43.1-95.9 c2.3-14,4.4-28,2.3-42.2c-3.3-23-20.6-34.8-40.3-29.2c-5.5,1.6-6.3-0.5-5.8-5.5c4.8-42.7,2.1-84.8-10.6-126 c-15-48.6-46.8-81.3-95-98c-34.2-11.8-69.7-14.6-105.5-15.6c-7.2,0.3-14.3,0.7-21.5,1c-31.8,1.2-62.8,6.6-92.2,19.1 c-40.5,17.2-70.2,45.6-87.6,86.3c-18.3,42.8-21.6,87.6-17.4,133.4c0.6,6.8,0.8,6.8-5.8,5.3c-19.4-4.4-34.1,4.8-38.9,24.1 c-1.2,4.8-1.7,9.7-1.5,14.6c1.3,40,12.1,77.2,33.6,111.1c9.9,15.5,21.1,29.8,37.3,39.4c1.5,0.9,2.7,1.8,3.6,2.9 c-17.8,8-45,17.4-74.6,17.4c0,0-105.7-43.9-174.6-166.6c0,0-49.2,238.8,27.1,315.1c64.3,64.3,319.5,84.9,398.1,89.8l-0.2,1.3 c0,0,4.2-0.2,11.7-0.6c7.5,0.4,11.7,0.6,11.7,0.6l-0.2-1.3c78.6-4.9,333.8-25.5,398.1-89.8C1007,688.3,957.8,449.5,957.8,449.5z M298.6,458.7c-0.3-2.1-1.3-5,1-6.2c2.5-1.3,4,1.5,5.5,3c7,7.1,14.5,12.5,25.5,10.4c4.6-0.9,6.6,4.2,9.9,6.5c2.4,1.7,3.9,6.3,7,4.7 c2.8-1.4,1-5.6,0.9-8.6c-1.2-39.2-2.6-78.4,4.3-117.2c2.5-14.2,6.9-27.8,13.9-40.5c17.5-31.7,50.9-33.1,72.8-23.9 c17.6,7.4,30.8,20.1,42.1,35c15.5,20.7,26.3,43.9,35,68.2c0.9,2.5,1.4,5.2,3.6,7.6c2.6-2.1,2.9-4.9,3.8-7.3 c8.7-24.2,19.4-47.5,34.9-68.2c13.3-17.9,29.1-32.9,51.5-39c27.3-7.4,50.5,3.2,62.7,28.7c8.9,18.6,12.3,38.6,14.7,58.8 c4,33.3,4,66.7,4.7,100.1c0.1,2.3-1.1,5.6,1.5,6.7c2.9,1.3,4.8-1.7,6.6-3.5c4.7-5,9.2-8.7,17.2-8c7.6,0.7,12.7-5.7,18-10.7 c1.8-1.7,3.6-5.1,6.4-3.7c2.2,1.2,0.8,4.5,0.5,6.9c-3.8,33.1-14.1,63.6-35.7,89.6c-6.9,8.3-14.5,15.3-25.7,18 c-8.2,2-12,8.9-13.1,17c-9.4,74.6-53.9,122.2-118.8,153.9c-18.8,9.2-37.9,9.2-57,0.4c-52.6-24.3-91.2-61.9-111.7-116.8 c-4.3-11.4-6.4-23.3-7.6-35.4c-1.2-11.4-7-18.4-18.3-21c-7.9-1.8-13-7.7-17.9-13.5C314.1,524.1,303,492.8,298.6,458.7z"></path> </g> </svg> 