<?xml version="1.0" encoding="UTF-8"?> <svg xmlns="http://www.w3.org/2000/svg" xmlns:xlink="http://www.w3.org/1999/xlink" version="1.1" id="Layer_1" x="0px" y="0px" viewBox="0 0 1000 1000" style="enable-background:new 0 0 1000 1000;" xml:space="preserve"> <path style="fill:#FFFFFF;" d="M713.5,641.2c-1.4-18.6-3.3-38-4.4-57.4c-3-52.8-2.4-105.4,8.1-157.4c6.2-30.6,18.7-58.5,41.1-81.1 c13.8-13.9,30-23.7,50.1-24.7c22.8-1.1,40.2,9.6,54.2,26.5c18.3,22.1,27.3,48.4,33.2,75.8c15.7,73.5,9.4,144.7-22.9,213 c-3.7,7.9-5.6,15.4-5.5,24c0.2,84.1,0.1,168.2,0.1,252.3c0,2.6,0,5.2,0,8.5c26.6,0,52.5,0,78.8,0c0,4.4,0,8.3,0,12.6 c-289.6,0-579.1,0-869.2,0c-0.1-1.8-0.3-3.8-0.4-5.7c-0.1-2,0-4,0-6.7c17,0,33.5,0,50.7,0c0-12.3-0.5-23.9,0.1-35.5 c0.7-15.2-2-29.3-7.6-43.6c-18-46.5-27.9-94.7-26.8-144.8c1-48.3,10.8-94.6,36.4-136.2c30.6-49.9,76.8-70.8,134.3-70.2 c50.1,0.5,93,18.8,130.6,51c12.9,11.1,25.5,22.5,38,34.1c2.9,2.7,5.3,3.4,9.2,2.8c75.4-12.6,147.9-3,216.6,30.8 C677.1,618.7,695,630.5,713.5,641.2z M786.9,712.2c1.8-0.8,2.6-1,3.3-1.4c27.3-15.9,47.4-38.7,63.2-65.7c1-1.8,1.3-4.3,1.3-6.5 c0.1-92.1,0.1-184.1,0-276.2c0-2.3-0.5-5.1-1.9-6.8c-14.6-18.1-35.1-27.5-58.8-19c-4.9,1.8-7.2,4.1-7.2,10 c0.2,119.5,0.2,239,0.2,358.6C786.9,707.3,786.9,709.3,786.9,712.2z M450.6,920.4c0-3.1,0-5.8,0-8.4c0-93.1-0.4-186.2,0.4-279.3 c0.1-15.3-3.1-26.8-15.4-35.9c-2.7-2-4.7-3.3-8.1-2.4c-12.6,3.7-25.1,7.4-37.8,10.7c-5.6,1.4-7.1,4.2-7.1,9.9 c0.2,99.2,0.1,198.5,0.1,297.7c0,2.4,0,4.8,0,7.6C405.5,920.4,427.6,920.4,450.6,920.4z M727,729.9c-3.5-21.8-6.8-41.6-9.6-61.5 c-0.7-4.6-1.8-8.2-5.8-10.7c-19.6-12.2-38.4-26.1-58.9-36.4c-63-31.6-129.9-41.2-199.6-31.6c-1.4,0.2-2.8,0.8-5,1.5 c27.3,27,53.1,54.3,83.2,76.8c43.5,32.5,92.3,51.8,146.1,58.2C693.6,728.1,710,728.7,727,729.9z M369.6,613.5 c-1.9,0.7-3.3,1-4.5,1.7c-19.4,10.9-38.8,21.9-58.3,32.7c-3.7,2.1-4.8,4.8-4.8,8.9c0.1,85.7,0.1,171.5,0.1,257.2c0,2.1,0,4.3,0,6.3 c23.1,0,45.2,0,67.5,0C369.6,818.1,369.6,716.2,369.6,613.5z M208.2,512.5c-1.4,0.1-2,0.1-2.5,0.3c-27.1,10.1-47.9,27.9-63.4,52.1 c-1.3,2.1-1.8,5-1.8,7.5c-0.1,93.9-0.1,187.8-0.1,281.7c0,10,6.2,17.5,10.3,26c0.9-1,1.1-1.7,1.2-2.5c7.5-51.9,25.4-99.8,53.9-143.8 c1.6-2.5,2.2-6.1,2.3-9.2c0.1-68.5,0.1-137,0.1-205.4C208.2,517.1,208.2,514.9,208.2,512.5z M464,626.2c0,98.4,0,196.3,0,294.2 c22.5,0,44.6,0,66.9,0c0.1-1.1,0.4-1.8,0.4-2.6c0-76.7,0.1-153.4-0.1-230.2c0-2-1.6-4.5-3.2-5.9c-7.4-6.2-15.4-11.6-22.6-18 C491.5,651.6,478,639,464,626.2z M288.6,661.8c-25.3,20.3-46.3,42.8-64.1,68.2c-2,2.9-3.3,7.1-3.3,10.7 c-0.2,57.6-0.1,115.2-0.1,172.8c0,2.2,0,4.4,0,6.8c22.9,0,45.1,0,67.5,0C288.6,834.4,288.6,748.8,288.6,661.8z M773.3,697.2 c0-115.4,0-231.3,0-348.1c-16.1,14-26.3,30.7-34,49.3c-12.1,29.1-14.9,60-17.1,90.8c-3.8,54.2-0.6,108.2,6.1,162.1 c0.2,1.8,1.2,4,2.5,5.3C744.9,670.2,759.1,683.7,773.3,697.2z M612.1,726.7c-22.9-10.9-45.1-21.5-67.2-31.9c0,74.8,0,150.2,0,225.5 c22.6,0,44.8,0,67.2,0C612.1,855,612.1,790.2,612.1,726.7z M692.4,920.5c0-60.1,0-119.7,0-178.4c-22.7-4.1-44.8-8-66.8-11.9 c0,63.3,0,126.8,0,190.4C648.1,920.5,670,920.5,692.4,920.5z M288.9,505.9c-20.9-3.1-41.2-3.1-61.5,0.7c-5.3,1-6.4,3-6.3,8 c0.2,63.4,0.1,126.7,0.1,190.1c0,1.9,0.2,3.9,0.3,6.7c1.9-2.1,3.2-3.4,4.3-4.8c17.2-21.8,36.9-41.2,58.9-58.3 c3.3-2.6,4.3-5.3,4.3-9.3c-0.1-42.2-0.1-84.5-0.1-126.7C288.9,510.3,288.9,508.3,288.9,505.9z M706.4,742c0,60.1,0,119.2,0,178.2 c22.7,0,44.9,0,67.2,0c0-8.3,0.2-16.1-0.1-23.9c-0.1-2.1-1.5-4.2-2.3-6.3c-5.4-15.2-11.7-30.2-16-45.8c-8.8-32.2-16.5-64.6-24.6-97 c-0.6-2.5-0.2-5.4-4.3-5.3C719.9,742.2,713.3,742,706.4,742z M843.1,920.7C847.4,874.1,814,767,786.9,741c0,2.8,0,5,0,7.1 c0,42.7,0.6,85.4-0.3,128c-0.4,15.4,4.4,28.4,11.2,41.3c0.8,1.5,2.9,3.1,4.5,3.1C815.7,920.8,829.2,920.7,843.1,920.7z M302.4,634.3 c0.8-0.1,1.3,0,1.6-0.2c20.9-11.2,41.8-22.4,62.6-33.9c1.6-0.9,3.1-3.6,3.1-5.5c0.3-12.3-1.1-24.8,0.5-36.9c2-15.3-4.3-23.4-17.2-30 c-16.1-8.2-32-16.4-50.5-19.5C302.4,550.4,302.4,592.2,302.4,634.3z M854.3,885.5c0-72.3,0-144.1,0-217.3 c-17.1,23.7-36.9,42.6-61.6,56.3C826.7,773.1,846.7,826.6,854.3,885.5z M207.9,756.1c-1.1,1.6-1.7,2.4-2.2,3.2 c-24.2,42.7-38.3,88.5-43,137.4c-0.9,9.7,5,15.5,8.8,22.7c0.4,0.7,1.7,1.2,2.6,1.2c11.2,0.1,22.4,0.1,33.8,0.1 C207.9,865.6,207.9,811.4,207.9,756.1z M867.8,613.5c29.6-39.3,29.7-191,0-232.4C867.8,458.8,867.8,536,867.8,613.5z M127,821.3 c0-75.1,0-150.1,0-225.2C96.7,671.3,102,746.4,127,821.3z M773.4,855.2c0-40.5,0-80.9,0-121.7c-10.2,2.5-20.2,5-30.7,7.5 C750.6,779.8,759.5,818.1,773.4,855.2z M771.9,720.1c0.3-0.7,0.5-1.5,0.8-2.2c-13.1-14.2-26.3-28.4-39.4-42.7 c-0.6,0.4-1.2,0.8-1.8,1.3c2.9,17,5.8,33.9,8.8,51.9C751.6,725.4,761.7,722.8,771.9,720.1z M420.8,582.2 c-12.9-11.4-24.8-22-37.7-33.4c0,15.9,0,30,0,44.7C395.5,589.8,407.3,586.2,420.8,582.2z M140.9,892.2c0,10.2,0,19.2,0,28.2 c2.7,0,4.8,0,6.9,0C150.7,910.1,147.7,901.4,140.9,892.2z"></path> <path style="fill:#FFFFFF;" d="M188.3,74.8c32.9-19.7,69.9-0.7,76.3,34.5c9.7,0,19.5,0,29.3,0c4.8,0,9.6,0.2,9.5,6.6 c-0.1,5.9-4.6,6.3-9.2,6.3c-11.5-0.1-23-0.1-34.4,0c-5.6,0.1-8-2.5-8.3-8.1c-0.9-14.6-8.1-25.3-21.5-31.1 c-13.4-5.8-26.1-3.7-37.4,5.5c-6.3,5.1-9.3,4.5-13.3-2.7c-11.7-21.5-34.6-31.8-58.8-26.4c-21.6,4.8-38.7,25.2-39.8,48.2 c-0.3,6-2.8,8.5-8.7,8.4c-13.9-0.1-27.9-0.1-41.8,0c-4.5,0-8-1.4-8.2-6.2c-0.2-5.2,3.5-6.9,8.2-6.9c12.3,0,24.6,0,37.2,0 c5.8-28.9,21.5-49.2,50.8-56.1C147.5,40,170.6,51.1,188.3,74.8z"></path> <path style="fill:#FFFFFF;" d="M980,235.7c4.1,0,7.8,0,11.5,0c4.7,0,9,0.9,8.9,6.8c-0.2,5.4-4.1,6.4-8.7,6.3c-5.3-0.1-10.7,0-16,0 c-7-0.1-8.4-1.5-9-8.6c-1.5-18.7-10.2-32.8-27.2-40.9c-30.4-14.5-64,4.8-68.1,38.8c-0.9,7.6-4.8,9.6-11.2,6 c-24.1-13.8-52.3,0.6-55.1,28.3c-0.8,7.9-1.9,8.9-9.9,8.9c-9.8,0-19.7,0-29.5,0c-4.4,0-8.1-1.3-8.1-6.3c-0.1-5.3,3.5-6.8,8.3-6.7 c8.6,0.1,17.2,0,26.3,0c3.1-15.4,10.5-28,24.2-36c13.6-7.9,27.9-8.9,42.8-3.4c10-31,30.6-49.1,63.5-47.1 C955,183.7,973.2,204,980,235.7z"></path> <path style="fill:#FFFFFF;" d="M717.2,154.4c7.4,0,14.8-0.1,22.1,0c3.2,0.1,4.5-0.9,5.3-4.2c8.8-36,49.5-50.1,78.4-27.2 c1.9,1.5,3.7,3.3,5.3,5.1c2.6,3.1,2.9,6.4-0.2,9.3c-3.1,2.8-6,1.9-9.4-0.4c-5.8-4-11.6-8.8-18.2-10.7c-21.2-6-42.4,9.7-44,31.7 c-0.6,7.9-1.9,9.2-9.7,9.2c-17.6,0-35.2,0-52.8,0c-3.9,0-6.9-1-7.9-5.1c-1-4.3,1.9-7.5,7.2-7.6C701.2,154.3,709.2,154.4,717.2,154.4 z"></path> <path style="fill:#FFFFFF;" d="M267.3,481.2c-6.1,0-12.3,0-18.4,0c-1.2,0-2.6,0.3-3.6-0.1c-7.8-3.5-2.8-10.4-3.9-15.6 c-0.7-3.3-0.2-7.1,4.5-7.1c14.3-0.2,28.7-1.3,42.9,0.3c9.7,1.1,3.4,10.7,4.8,16.3c0.9,3.7-1,6.3-5.3,6.3 C281.2,481.2,274.2,481.2,267.3,481.2z"></path> <path style="fill:#FFFFFF;" d="M371.9,485.8c1.8,1.1,3.2,1.9,4.5,2.9c10.3,7.8,20.4,15.7,30.8,23.3c4.4,3.2,4.5,6,1.2,10.1 c-11.4,14.3-7.8,13.5-21.9,3c-8.2-6.1-16.2-12.5-24.5-18.5c-3.6-2.7-4-5.2-1.1-8.6c2.5-2.9,4.7-6.2,7.1-9.2 C369.2,487.5,370.6,486.7,371.9,485.8z"></path> <path style="fill:#FFFFFF;" d="M104.7,576.9c-5.7-3.9-11-7.3-16-11.2c-0.6-0.5,0-3.5,0.8-4.9c7.1-11.7,14.4-23.3,21.5-35 c2-3.3,4.3-4.1,7.6-2c0.3,0.2,0.7,0.4,1,0.6c15.9,10.1,14.8,6.6,5.5,21.9c-5.2,8.6-10.4,17.1-15.8,25.6 C108.3,573.6,106.6,575,104.7,576.9z"></path> <path style="fill:#FFFFFF;" d="M233.5,480.5c-1.2,0.9-2.7,3-4.6,3.4c-13.7,3.2-27.5,6.1-41.3,9c-0.6,0.1-1.3,0.4-1.8,0.2 c-7.3-3.7-4.6-11.4-6.6-17.2c-1.2-3.6,1.7-5,4.8-5.6c13.2-2.8,26.3-5.8,39.6-8.3c1.9-0.4,5.5,1.2,6.2,2.8 C231.5,469.3,232.1,474.3,233.5,480.5z"></path> <path style="fill:#FFFFFF;" d="M177.9,497.1c-1.5,1.8-2.4,3.4-3.7,4.4c-11,8.2-22.1,16.2-33.1,24.4c-3.1,2.3-5.5,1.9-7.8-1.2 c-11.6-16.3-12.1-12.4,2.6-23.3c8-6,16.3-11.7,24.2-17.8c3.8-2.9,6.4-2.6,9.1,1.4C171.9,488.9,174.8,492.7,177.9,497.1z"></path> <path style="fill:#FFFFFF;" d="M347.6,499c-2.6-0.8-4.8-1.4-6.9-2.1c-10.7-3.4-21.4-6.9-32-10.3c-1-0.3-2-0.5-2.9-0.9 c-6.9-2.8-3.2-7.8-1.6-11.3c1.8-4-0.2-12.7,8.6-10.3c13.6,3.7,26.9,8.4,40.3,12.6c0.4,0.1,0.8,0.3,1.1,0.5c4.7,2.9,1.8,6.8,0.6,9.8 C353,491.3,354.1,497.7,347.6,499z"></path> <path style="fill:#FFFFFF;" d="M581.6,153.6H88.9c-9.5,0-17.2,7.7-17.2,17.2v238.3c0,9.5,7.7,17.2,17.2,17.2h492.8 c9.5,0,17.2-7.7,17.2-17.2V170.8C598.9,161.3,591.1,153.6,581.6,153.6z M554.7,365c0,9.5-7.7,17.2-17.2,17.2H133 c-9.5,0-17.2-7.7-17.2-17.2V215c0-9.5,7.7-17.2,17.2-17.2h404.5c9.5,0,17.2,7.7,17.2,17.2V365z"></path> <path style="fill:#FFFFFF;" d="M236.5,210.6H161c0,8.8-7.1,15.9-15.9,15.9v127.1c8.8,0,15.9,7.1,15.9,15.9h75.6 c0-8.8,7.1-15.9,15.9-15.9V226.5C243.6,226.5,236.5,219.3,236.5,210.6z M232.9,250.1l-0.8,0.9c-6.1,6.9-10.8,13.2-14.2,18.6 c-5.1,8.4-9.2,17.6-12.1,27.3c-2.9,9.7-4.5,19.9-4.9,30.6l-0.1,2.1l-24.2,8.2l0-4.3c0-4.9,0.7-9.7,1.8-14.4c2-8,5-16,8.9-23.9 c3-6.1,7.1-12.8,12.3-19.8c1.6-2.2,5.4-6.8,11.7-14.2h-19c-4.6,0-8.1,0.7-10.3,2.1c-2.3,1.4-4.5,4.1-6.6,8l-0.9,1.7h-10.1l15-30.4 h53.4V250.1z"></path> <path style="fill:#FFFFFF;" d="M377.7,221.8c-2.9-2.9-4.7-6.9-4.7-11.2h-75.6c0,4.4-1.8,8.4-4.7,11.2c-2.9,2.9-6.9,4.7-11.2,4.7 v127.1c4.4,0,8.4,1.8,11.2,4.7c2.9,2.9,4.7,6.9,4.7,11.2H373c0-4.4,1.8-8.4,4.7-11.2c2.9-2.9,6.9-4.7,11.2-4.7V226.5 C384.5,226.5,380.6,224.7,377.7,221.8z M369.5,250.1l-0.8,0.9c-6.1,6.9-10.9,13.2-14.2,18.6c-5.2,8.4-9.2,17.6-12.1,27.3 c-2.9,9.7-4.5,19.9-4.9,30.6l-0.1,2.1l-24.2,8.2l0-4.3c0-4.9,0.7-9.7,1.8-14.4c2-8,5-16,8.9-23.9c3-6.1,7.1-12.8,12.3-19.8 c1.6-2.2,5.4-6.8,11.7-14.2h-19c-4.6,0-8.1,0.7-10.3,2.1c-2.3,1.4-4.5,4.1-6.6,8l-0.9,1.6h-10.1l15-30.4h53.4V250.1z"></path> <path style="fill:#FFFFFF;" d="M525.5,226.5c-8.8,0-15.9-7.1-15.9-15.9H434c0,8.8-7.1,15.9-15.9,15.9h0v127.1h0 c8.8,0,15.9,7.1,15.9,15.9h75.6c0-8.8,7.1-15.9,15.9-15.9h0L525.5,226.5L525.5,226.5z M506,250.1l-0.8,0.9 c-6.1,6.9-10.8,13.2-14.2,18.6c-5.1,8.4-9.2,17.6-12.1,27.3c-2.9,9.7-4.5,19.9-4.9,30.6l-0.1,2.1l-24.2,8.2l0-4.3 c0-4.9,0.7-9.7,1.8-14.4c2-8,5-16,8.9-23.9c3-6.1,7.1-12.8,12.3-19.8c1.6-2.2,5.4-6.8,11.7-14.2h-19c-4.6,0-8.1,0.7-10.3,2.1 c-2.3,1.4-4.5,4.1-6.6,8l-0.9,1.7h-10.1l15-30.4H506V250.1z"></path> <path id="XMLID_21_" style="fill:#FFFFFF;" d="M684.7,211.6v156.8c0,10.3-8.3,18.6-18.6,18.6h-67.3V193h22.3v80.7 c0,11.4,9.2,20.6,20.6,20.6c11.4,0,20.6-9.2,20.6-20.6V193h3.7C676.4,193,684.7,201.3,684.7,211.6z"></path> <path id="XMLID_18_" style="fill:#FFFFFF;" d="M676.1,78.8c0,11.2-5.4,21.2-13.7,27.5c-1.4,1-2.8,1.9-4.3,2.7v164.7 c0,4.5-1.8,8.6-4.8,11.5c-2.9,3-7,4.8-11.5,4.8c-9,0-16.3-7.3-16.3-16.3V109c-1.5-0.8-2.9-1.7-4.3-2.7c-8.3-6.3-13.7-16.2-13.7-27.5 c0-19,15.4-34.3,34.3-34.3C660.8,44.4,676.1,59.8,676.1,78.8z"></path> </svg> 