<?xml version="1.0" encoding="UTF-8"?> <svg xmlns="http://www.w3.org/2000/svg" xmlns:xlink="http://www.w3.org/1999/xlink" version="1.1" id="Layer_1" x="0px" y="0px" viewBox="0 0 1000 1000" style="enable-background:new 0 0 1000 1000;" xml:space="preserve"> <path style="fill:#FFFFFF;" d="M859,496.2c0.9,51,1.7,102,2.6,153.1c0.4,22.7-9.1,39.6-29,50.4c-74.4,40.6-148.9,81.2-223.4,121.8 c-27.2,14.8-54.4,29.6-81.6,44.5c-17.2,9.4-34.4,9.6-51.8,0.8C372.2,814.9,268.5,763,164.8,711c-20.4-10.2-29.8-27.3-30.2-49.8 c-1.3-76.3-2.6-152.5-3.9-228.8c-0.5-28.1-1.1-56.3-1.3-84.4c-0.1-20.8,9-36.8,27.2-46.8c41.4-22.9,83.1-45.5,124.7-68.1 c60.2-32.8,120.4-65.6,180.5-98.5c17.9-9.8,35.7-10.4,54.1-1.1C618.7,185,721.7,236.6,824.7,288c20.8,10.4,31.2,27.1,31.6,50.2 C857.3,390.9,858.1,443.5,859,496.2C859,496.2,859,496.2,859,496.2z M345.5,398.7c0.4,1.3,0.8,2.2,0.9,3.1 c7.3,35.4,28.3,60.3,59.8,76.7c21.1,11,43.9,16,67.4,18c27.4,2.3,54.6,1.4,81.2-6.2c39.2-11.3,67.3-35,80.9-74.2 c3.8-10.8,6.9-22.1,6-33.5c-0.8-10.5-2.8-21.1-5.9-31.1c-10.7-35.7-32.7-60.8-70-70.1c-23.2-5.8-46.6-3.9-69.7,1 c-11,2.3-21.8,5.5-33.2,8.3c1.7-13.8,3.3-27.5,5-41.5c43.9,0,87.1,0,130.5,0c0-23.2,0-46,0-68.8c-66.2,0-132,0-197.8,0 C388,238.7,375.3,296.8,362.6,355c0.5,0.1,1,0.2,1.6,0.2c29.2,0,58.5,0,87.7-0.1c1.3,0,3.2-1.4,3.7-2.6c3.4-8.7,9.7-14.6,17.9-18.6 c9.4-4.6,19.5-5.6,29.9-5c15.1,0.9,26.4,7.9,33.6,21.2c6.7,12.4,7.7,25.8,5.4,39.4c-2.7,16.1-10.4,29-27.5,32.3 c-8.7,1.7-18.2,1.5-27.1,0.2c-17.4-2.5-30.8-10.9-35.5-29.4c-0.1-0.2-0.4-0.4-0.7-0.6C416.5,394.3,381.2,396.5,345.5,398.7z M356,634.3c-0.2,0.4-0.2,0.2-0.1,0.2c1.2-0.4,2.4-0.8,3.5-1.2c11.2-4.4,20.2-11.2,24.4-23.1c8-22.7-4-47.8-27.2-57.7 c-13.7-5.9-28-8.1-42.7-8.2c-32.4-0.1-64.8,0-97.2,0c-1.5,0-2.9,0-4.5,0c0,62,0,123.4,0,185.1c1.9,0,3.6,0,5.2,0 c41.5,0,83,0,124.6,0c1.9,0,4,0.4,5.8-0.1c16.4-4.3,28.2-13.8,33.8-30.2c4.5-13.3,5-26.8,2.1-40.4c-1.6-7.6-4.7-14.8-11.8-18.7 C367,637.4,361.4,636.2,356,634.3z M570.9,734.5c0-15.2,0-29.9,0-45c-31.5,0-62.5,0-93.5,0c0-8.3,0-16.2,0-24.5 c27.6,0,54.8,0,82.1,0c0-17.4,0-34.2,0-51.5c-27.6,0-54.8,0-82.1,0c0-8.3,0-16.2,0-24.6c31.4,0,62.5,0,93.7,0c0-16.8,0-33.1,0-49.5 c-52.6,0-105,0-157.3,0c0,65.2,0,130.1,0,195.1C466.3,734.5,518.5,734.5,570.9,734.5z M710.6,734.4c0-45.9,0-91.4,0-137.2 c21.1,0,41.7,0,62.5,0c0-19.5,0-38.6,0-58c-58,0-115.9,0-173.8,0c0,18.2,0,36.3,0,54.8c16.5,0,32.7,0,49.4,0c0,47,0,93.7,0,140.4 C669.4,734.4,689.6,734.4,710.6,734.4z"></path> <path style="fill:#FFFFFF;" d="M271.4,658.4c13.4,0,26.5-0.8,39.5,0.2c12.4,0.9,17.7,10.2,15.5,24.2c-1.7,10.8-7.5,15.7-18.5,15.7 c-12.1,0-24.2,0-36.5,0C271.4,685,271.4,671.7,271.4,658.4z"></path> <path style="fill:#FFFFFF;" d="M271.3,624.7c0-13.7,0-26.9,0-40.5c8.9,0,17.5-0.2,26.2,0.1c5.5,0.1,11,0.4,16.3,1.3 c7,1.2,11.1,5.7,12.2,12.8c1.2,7.2,0.8,14.1-3.4,20.3c-2.8,4.1-6.7,6.4-11.8,6.3c-11.9-0.1-23.7,0-35.6,0 C274,624.9,272.8,624.8,271.3,624.7z"></path> </svg> 