<?xml version="1.0" encoding="UTF-8"?> <svg xmlns="http://www.w3.org/2000/svg" xmlns:xlink="http://www.w3.org/1999/xlink" version="1.1" id="Layer_1" x="0px" y="0px" viewBox="0 0 1000 1000" style="enable-background:new 0 0 1000 1000;" xml:space="preserve"> <path style="fill-rule:evenodd;clip-rule:evenodd;fill:#FFFFFF;" d="M929.7,711l-85-103.1c-34.8-54.3-5.6-41.8-5.6-41.8 c22.3,22.3,47.4,62.7,47.4,62.7l39-26.5c-54.3-58.5-32-87.7-32-87.7l-75.2-72.4c-73.8,69.6-57.1,121.2,23.7,227 c51.5,68.2-71,58.5-71,58.5H534.2H491H254.2c0,0-122.6,9.7-69.6-58.5c32-41.8,50.1-76.6,59.9-103.1c22.3-64.1-9.7-89.1-46-90.5 c-110-5.6-66.8,146.2-11.1,90.5c0,0,27.9-12.5-7,41.8L95.5,711c0,0-59.9,146.2,135.1,149h245.1h73.8h245.1 C989.6,857.2,929.7,711,929.7,711z"></path> <path style="fill-rule:evenodd;clip-rule:evenodd;fill:#FFFFFF;" d="M683.2,335c93.3,37.6,126.7,257.7-57.1,305h-2.8 c68.2-172.7,27.9-277.1-4.2-324.5L683.2,335z M599.6,644.1l-114.2,19.5c83.6-190.8,39-320.3-1.4-388.6l104.5,30.6 C615,336.3,684.6,442.2,599.6,644.1L599.6,644.1z M461.8,666.4l-240.9,41.8c0,0,321.7-342.6-62.7-529.2l298,87.7 C496.6,325.2,557.9,458.9,461.8,666.4L461.8,666.4z"></path> <path style="fill-rule:evenodd;clip-rule:evenodd;fill:#FFFFFF;" d="M147,137.2l364.9,108.6l-1.4-46l18.1-33.4l12.5,30.6v57.1 l227,66.9c7,1.4,11.1,8.4,11.1,15.3l0,0c0,5.6-4.2,9.7-11.1,8.4L147,160.9c-7-1.4-11.1-8.4-11.1-13.9l0,0 C135.9,140,140,135.8,147,137.2L147,137.2z"></path> </svg> 