<?xml version="1.0" encoding="UTF-8"?> <svg xmlns="http://www.w3.org/2000/svg" xmlns:xlink="http://www.w3.org/1999/xlink" version="1.1" id="Layer_1" x="0px" y="0px" viewBox="0 0 1000 1000" style="enable-background:new 0 0 1000 1000;" xml:space="preserve"> <path style="fill:#FFFFFF;" d="M890.3,701.5c-1,33.6-7.7,66-20.8,96.9c-21.9,51.7-61,83.4-114.8,97.2 c-95.4,24.5-193.9-28.5-228.2-122.5c-8.4-23.2-13.9-47.1-14.2-71.7c-0.6-49.9,18.2-90.5,61-117.8c19-12.1,40.7-17.4,63.5-15.7 c8.5,0.7,17,2.7,25.5,4.1c14.8,2.6,28.5,0.3,41.8-7.4c10.1-5.8,20.8-11,31.9-14.7c23.6-7.9,46.7-4.2,69,6.1 c49.9,23.2,77.4,62.5,84,116.8c0.6,4.8,1,9.5,1.2,14.3C890.4,691.9,890.3,696.7,890.3,701.5z M834.4,678.6 c-0.1-17.9-5-34.2-15.8-48.6c-10.6-14-28.3-19.5-43.7-12.8c-8.4,3.7-9,7.3-5.5,14.1c2.7,5.4,5.7,10.6,7.9,16.2 c7.5,19.3,8.5,39.4,6.2,59.8c-0.7,6.4-1.7,12.7-2.3,19.1c-0.5,5.4,2,9.4,6.6,12.3c12.7,8.1,27.6,3.9,34.5-10.2 C829.8,712.7,834.1,696.1,834.4,678.6z"></path> <path style="fill:#FFFFFF;" d="M113.5,699.6c0.2-36.1,7.4-67.9,28.1-95.3c20.4-27.1,47.1-45.6,80.5-53.1c18.6-4.2,36.7-0.5,54.2,6.4 c10.8,4.2,21.6,8.4,32.5,12.5c9.9,3.8,19.9,4.1,30.1,1.3c11.9-3.2,23.9-5.9,36.4-5.3c38.2,1.8,68.5,18.1,90.7,49.2 c19.4,27.3,27.9,57.8,25.5,91.3c-2.1,30.9-8.4,60.7-22.5,88.5c-29.5,58.2-76.9,92.9-140.7,104.7c-48.5,9-93.6-1-134.8-28.1 c-23.2-15.3-40.2-36.2-52.5-60.9C123.3,775,114.3,737.1,113.5,699.6z M436.2,691.7c-0.1-18.1-4.3-32.7-13.5-45.8 c-7.6-10.9-27.2-16.6-39.5-11.6c-5.3,2.2-6.7,4.9-5.3,10.3c0.6,2.1,1.3,4.2,2,6.2c6.6,18.1,7.4,36.7,3.8,55.4 c-2.2,11.4-5.8,22.4-8.7,33.6c-1.5,5.7-0.8,10.7,3.8,15c10.8,10.1,26,9.3,35.1-3C427.5,733.4,435.7,712.7,436.2,691.7z"></path> <path style="fill:#FFFFFF;" d="M519.7,238.7c113.9-8,225-1.9,332.4,39.7c-1-0.9-2-2.1-3.1-2.8c-26.7-17.1-55.4-29.6-85.5-39.3 c-38-12.3-77-19.8-116.7-24.4c-38-4.4-76.1-5.8-114.4-4.9c-0.6,0-1.3,0-2.3-0.9c6.8-3.8,13.6-7.8,20.5-11.3 c33-16.6,67.9-26.9,104.6-30.4c56.4-5.3,109.7,5.8,160.1,31.4C857,217,892.9,245.7,925.3,279c1.2,1.3,2.5,2.5,3.7,3.8 c9.6,10.2,7,24.6-5.9,30c-11.6,4.9-23.3,9.4-35.3,13.3c-29.6,9.6-60,15.6-91.1,18.4c-64.5,5.7-126-4.2-183.9-33.8 c-34.6-17.7-64.7-41.3-91.3-69.7C521.2,240.7,520.9,240.2,519.7,238.7z"></path> <path style="fill:#FFFFFF;" d="M671.7,530.6c-6.7-1.2-12.4-2.7-18.2-3.2c-10.7-1-21.5-1.4-32.3-2.2c-1.6-0.1-3.6-0.6-4.5-1.7 c-14.4-16.5-28.5-33.2-43-49.6c-54.6-61.2-92.1-131.4-111.4-211.2c-0.1-0.4-0.3-0.7-0.7-1.9c-2.6,3.2-4.9,5.9-7.1,8.7 c-32.7,42.5-55.9,89.8-70.7,141.1c-7.9,27.3-13.3,55.2-20,82.8c-2.3,9.4-5.1,18.7-7.8,28c-0.4,1.3-1.7,3.1-2.9,3.3 c-8.1,1.9-16.2,3.6-24.4,5.1c-2.3,0.4-4.8,0.1-7.1-0.5c-4-1.1-7.9-2.7-12-4.2c3.6-11.4,7.6-22.3,10.4-33.5 c4.9-19.3,8.8-38.9,13.8-58.2c11.8-45.4,31-87.9,53.4-128.9c17.3-31.5,36.4-61.7,58-90.5c3.3-4.4,2.7-9.3,1.9-14.2 c-2.6-14.8-5.8-29.5-8.1-44.3c-0.9-5.4-0.9-11.3,0.1-16.7c2.1-11.7,10.5-18.7,23.5-19.7c12-0.9,24.1-0.8,35.9,2.2 c19,4.9,28.2,20.5,23.4,39.5c-5,20-10.3,39.9-18.5,58.9c-0.1,0.3-0.2,0.5-0.3,0.7c-5.2,6.6-4.1,13.6-2.1,21.2 c14.3,54.7,34.2,107,64,155.2c12.5,20.2,27,38.8,43.3,56.2c20.7,22.1,41.2,44.3,58.3,69.3C668.3,524.9,669.7,527.3,671.7,530.6z"></path> </svg> 