<?xml version="1.0" encoding="UTF-8"?> <svg xmlns="http://www.w3.org/2000/svg" xmlns:xlink="http://www.w3.org/1999/xlink" version="1.1" id="Layer_1" x="0px" y="0px" viewBox="0 0 1000 1000" style="enable-background:new 0 0 1000 1000;" xml:space="preserve"> <path style="fill:#FFFFFF;" d="M877.9,716.2c-10.1,17.5-28.6,27.2-47.4,27.2c-9.4,0-18.9-2.4-27.6-7.5l-42.9-25l9.2,34.7 c5.8,21.9-7.3,44.4-29.2,50.2c-3.5,1-7.1,1.4-10.5,1.4c-18.2,0-34.8-12.1-39.7-30.5l-30.4-114.5l-102.4-59.8l0,120.6l82.8,83.6 c16,16.1,15.8,42.1-0.3,58.1c-8,8-18.5,11.9-28.9,11.9c-10.6,0-21.2-4.1-29.2-12.2l-24.3-24.6v50.5c0,30.3-24.5,54.8-54.8,54.8 c-30.3,0-54.8-24.5-54.8-54.8l0-50.5L423,854.4c-16,16.1-42,16.3-58.1,0.3c-16.1-15.9-16.3-41.9-0.3-58.1l82.8-83.6l-1.4-120.7 l-102.4,59.8l-30.4,114.5c-4.9,18.4-21.5,30.5-39.7,30.5c-3.5,0-7-0.4-10.5-1.4c-21.9-5.8-35-28.3-29.2-50.2l9.2-34.7l-42.9,25 c-7.2,5.2-16.7,7.5-26.1,7.5c-18.8,0-37.2-9.7-47.4-27.2c-15.3-26.1-6.5-59.6,19.7-74.9l44.4-25.9l-34.8-9.4 c-21.9-5.8-34.8-28.4-28.9-50.3c5.9-21.9,28.4-34.7,50.4-28.9L290,557.4L393.5,497L290,436.6l-112.8,30.6c-3.6,1-7.2,1.4-10.8,1.4 c-18.1,0-34.7-12-39.6-30.3c-5.9-21.9,7-44.4,28.9-50.3l34.8-9.4l-44.4-26c-26.1-15.2-35-48.8-19.7-74.9c15.2-26.1,48.8-35,75-19.7 l42.9,25l-9.2-34.7c-5.8-21.9,7.4-44.4,27.7-50.2c23.6-5.9,44.5,7.3,51.8,29.1L345,341.8l100.9,59.8l0-120.6l-81.3-83.7 c-15.9-16.2-15.9-42.1,0.3-58.1c16.1-16,42.1-15.8,58.2,0.3l24.3,24.6l-1.6-50.5c0-30.3,24.5-54.8,54.8-54.8 c30.3,0,54.8,24.5,54.8,54.8l0,50.5l24.3-24.6c15.9-16.1,41.9-16.3,58.1-0.3c16.1,15.9,16.3,41.9,0.3,58.1L555.5,281l1.4,120.7 l102.4-59.8l30.4-114.5c5.8-21.9,28.3-35.1,50.3-29.1c21.9,5.8,35,28.3,29.2,50.2l-9.2,34.7l42.9-25c26.1-15.2,59.7-6.4,75,19.7 c15.3,26.1,6.5,59.6-19.7,74.9l-44.4,25.9l34.8,9.4c21.9,5.9,34.9,28.5,28.9,50.4c-5,18.3-21.5,30.3-39.6,30.3 c-3.6,0-7.2-0.5-10.8-1.4l-114.3-30.7l-102,60.4l103.4,60.4l112.8-30.6c22.1-5.8,44.5,7,50.5,28.9c5.9,21.9-7,44.4-28.9,50.4 l-34.8,9.4l44.4,25.9C884.4,656.6,893.1,690.2,877.9,716.2z"></path> </svg> 