<?xml version="1.0" encoding="UTF-8"?> <svg xmlns="http://www.w3.org/2000/svg" xmlns:xlink="http://www.w3.org/1999/xlink" version="1.1" id="Layer_1" x="0px" y="0px" viewBox="0 0 1000 1000" style="enable-background:new 0 0 1000 1000;" xml:space="preserve"> <path style="fill:#FFFFFF;" d="M910.9,404c-14.7,0-27.8,7.2-35.9,18.2c-109.5-118.1-269.9,62.6-269.9,62.6 c-39.2-167.7-141.4-216.8-198-231.2c4.2-6.8,6.7-14.9,6.7-23.5c0-24.6-19.9-44.5-44.5-44.5s-44.5,19.9-44.5,44.5 s19.9,44.5,44.5,44.5c8.2,0,15.8-2.2,22.4-6.1C463.1,352,368,503.7,368,503.7c-117.9-62.7-199.5-15.5-237.4,17.8 C124.2,504.8,108,493,89.1,493c-24.6,0-44.5,19.9-44.5,44.5s19.9,44.5,44.5,44.5c18.9,0,35-11.8,41.5-28.4 c171,54.6,180.8,222.4,180.8,222.4c164.4,86.2,388,0,388,0c36.2-302.2,121-332.2,167.1-328.2c0,0.3,0,0.6,0,0.9 c0,24.6,19.9,44.5,44.5,44.5s44.5-19.9,44.5-44.5C955.4,423.9,935.5,404,910.9,404z"></path> </svg> 