<svg class="S" xmlns="http://www.w3.org/2000/svg" xml:space="preserve" id="design" x="0" y="0" version="1.1" viewBox="0 0 126 126"><style>.st1{fill:#fff}.st6{fill:#500000}.st7{fill:#bf403a}.st8{fill:#df040b}.st11{fill:#e23f16}</style><path fill="#292433" d="M10.3 93.1V32.9L63 2.4l52.7 30.5v60.2L63 123.6z"/><path d="m63 3 52.2 30.2v59.7L63 123 10.8 92.8V33.1L63 3m0-1.2-.5.3-52.2 30.2-.5.3v60.9l.5.3L62.5 124l.5.3.5-.3 52.2-30.2.5-.3V32.6l-.5-.3L63.5 2.1l-.5-.3z" class="st1"/><path fill="#bcae00" d="M115.2 40.3v-7.2L63 3 10.8 33.2v46.1s25.6-11.8 50-13.3c24.3-1.5 54.4-25.7 54.4-25.7z"/><path fill="#390000" d="M32.5 80.9c-1.7-.2-3.1.5-3.4 1.6-.3 1.1.7 2.3 2.3 2.9l1.1-4.5z"/><path fill="#9f1311" d="m74.8 119.7-48.9-12 7.4-29.9s10.1 7 23.3 10.3c13.8 3.4 25.6 1.7 25.6 1.7l-7.4 29.9z"/><path fill="#7d1007" d="m26.6 104.6-.7 3 48.9 12 7.4-29.9s-1.7.2-4.6.4c-1.2 31.9-41.1 18.4-51 14.5z"/><path d="M76.2 120c-.2.8-1 1.3-1.8 1.1l-48.9-12c-.8-.2-1.3-1-1.1-1.8.2-.8 1-1.3 1.8-1.1l48.9 12c.8.2 1.3 1 1.1 1.8zm-43-42-.6 2.4 4.5 2.7c4.3 2.4 11 5.5 18.6 7.4 7.5 1.8 14.3 2.2 19.2 2.2l6.5-.4.6-2.3s-11.8 1.7-25.6-1.7C43.2 85 33.2 78 33.2 78z" class="st6"/><path d="m33.2 79.6-.4-.3c-.1 0-.1-.2-.1-.2 0-.1.2-.1.2-.1l.4.2c.1 0 .1.2.1.2 0 .2-.1.2-.2.2zM56 89.5h-.2c-.1 0-.1-.1-.1-.2s.1-.1.2-.1h.2c.2.1.5.1.7.2.1 0 .2.1.1.2 0 .1-.1.2-.2.1-.2-.1-.5-.2-.7-.2zm-1.1-.3c-.3-.1-.6-.2-.9-.2-.1 0-.1-.1-.1-.2s.1-.2.2-.1c.3.1.6.2.9.2.1 0 .1.1.1.2s-.1.1-.2.1zm2.7.7c-.1 0-.1-.1-.1-.2s.1-.2.2-.1c.3.1.6.1.9.2.1 0 .2.1.1.2 0 .1-.1.2-.2.1-.3-.1-.6-.2-.9-.2zm-4.4-1.2-.9-.3c-.1 0-.1-.1-.1-.2s.1-.1.2-.1l.9.3c.1 0 .1.1.1.2-.1.1-.1.1-.2.1zm6.2 1.5c-.1 0-.1-.1-.1-.2s.1-.2.2-.1c.3.1.6.1.9.2.1 0 .2.1.1.2 0 .1-.1.2-.2.1-.3-.1-.6-.1-.9-.2zm-8-2-.9-.3c-.1 0-.1-.1-.1-.2s.1-.1.2-.1l.9.3c.1 0 .1.1.1.2s-.1.1-.2.1zm9.8 2.4c-.1 0-.1-.1-.1-.2s.1-.2.2-.1c.3.1.6.1.9.1.1 0 .2.1.1.2 0 .1-.1.2-.2.1-.3 0-.6-.1-.9-.1zm-11.5-3-.9-.3c-.1 0-.1-.1-.1-.2s.1-.1.2-.1l.9.3c.1 0 .1.1.1.2s-.1.1-.2.1zM63 90.8c-.1 0-.1-.1-.1-.2s.1-.2.2-.1c.3 0 .6.1.9.1.1 0 .2.1.1.2 0 .1-.1.2-.2.1-.3 0-.6 0-.9-.1 0 .1 0 0 0 0zM48 87c-.1 0-.1 0 0 0l-.9-.3c-.1 0-.1-.1-.1-.2s.1-.1.2-.1l.9.3c.1 0 .1.1.1.2-.1.1-.2.1-.2.1zm16.8 4.1c-.1 0-.1-.1-.1-.2s.1-.2.2-.2c.3 0 .6.1.9.1.1 0 .2.1.2.2s-.1.2-.2.2c-.3 0-.7-.1-1-.1zm-18.6-4.8c-.3-.1-.6-.2-.9-.4-.1 0-.1-.1-.1-.2s.1-.1.2-.1c.3.1.6.2.8.3.1 0 .1.1.1.2.1.2 0 .2-.1.2zm20.4 5c-.1 0-.1-.1-.1-.2s.1-.2.2-.2c.3 0 .6.1.9.1.1 0 .2.1.2.2s-.1.2-.2.2c-.3 0-.6-.1-1-.1.1 0 .1 0 0 0zm-22-5.7c-.1 0-.1 0 0 0-.3-.1-.6-.3-.9-.4-.1 0-.1-.1-.1-.2s.1-.1.2-.1c.3.1.6.2.8.4.1 0 .1.1.1.2s-.1.1-.1.1zm23.9 5.9c-.1 0-.1-.1-.1-.2s.1-.2.2-.2c.3 0 .6 0 .9.1.1 0 .2.1.2.2s-.1.2-.2.2c-.4-.1-.7-.1-1-.1zm-25.6-6.6c-.3-.1-.6-.3-.9-.4-.1 0-.1-.1-.1-.2s.1-.1.2-.1c.3.1.5.3.8.4.1 0 .1.1.1.2 0 0 0 .1-.1.1zm27.4 6.7c-.1 0-.1-.1-.1-.2s.1-.2.2-.2h.9c.1 0 .2.1.2.2s-.1.2-.2.2h-1zm-29.1-7.5c-.3-.1-.6-.3-.9-.4-.1 0-.1-.1-.1-.2s.1-.1.2-.1c.3.1.5.3.8.4.1 0 .1.1.1.2.1.1 0 .1-.1.1zm30.9 7.6c-.1 0-.1-.1-.1-.2s.1-.2.2-.2h.9c.1 0 .2.1.2.2s-.1.2-.2.2h-1c.1 0 0 0 0 0zm-32.5-8.4s-.1 0 0 0c-.3-.2-.6-.3-.9-.4-.1 0-.1-.2-.1-.2 0-.1.2-.1.2-.1.3.1.5.3.8.4.1 0 .1.1.1.2s-.1.1-.1.1zM74 91.7c-.1 0-.1-.1-.1-.2s.1-.2.2-.2h.9c.1 0 .2.1.2.2s-.1.2-.2.2h-1zm-36.1-9.3-.6-.3-.2-.1c-.1-.1-.1-.2-.1-.3 0-.1.2-.1.2-.1l.2.1.6.3c.1 0 .1.2.1.2 0 .2-.1.2-.2.2zm37.9 9.3c-.1 0-.1-.1-.1-.2s.1-.2.2-.2l.9-.1c.1 0 .2.1.2.2s-.1.2-.2.2l-1 .1zM36.4 81.5c-.1 0-.1 0 0 0l-.9-.5c-.1 0-.1-.2-.1-.2 0-.1.2-.1.2-.1l.8.5c.1 0 .1.2.1.2 0 .1-.1.1-.1.1zm41.2 10c-.1 0-.1-.1-.1-.2s.1-.2.2-.2l.9-.1c.1 0 .2.1.2.2s-.1.2-.2.2l-1 .1c.1.1 0 .1 0 0zM34.8 80.6l-.8-.5c-.1-.1-.1-.2-.1-.2 0-.1.2-.1.2-.1l.8.5c.1 0 .1.2.1.2-.1.1-.1.1-.2.1zm44.7 10.8c-.1 0-.1-.1-.1-.2s.1-.2.2-.2l.9-.1c.1 0 .2.1.2.2s-.1.2-.2.2l-1 .1zm1.8-.1c-.1 0-.1-.1-.1-.2s.1-.2.2-.2h.5c.1 0 .2.1.2.2s-.1.2-.2.2h-.6z" class="st7"/><path d="M99.3 27.7c-8.1-5.6-22.8-12-33.7-14.7-1.7-.4-3.3-.7-4.7-1-9.4-1.4-15.2-.9-18.6 1.7-1.7 1.3-2.7 3-3.2 5.2-2.6.7-9.1 3.1-11.3 14.2-2.4 12.2-3.7 25.4 4.1 35.4 1.1 1.4 1 3 1.1 5.3.1 1 .1 4.2.1 4.2l5.5 2.7c4.2 2.3 10.2 5.3 17.9 7.2 7.6 1.9 14.5 1.9 19 1.9l6.5.2s2.8-3.5 3.5-4.5c1.1-1.6 11.6-18.2 16.9-27.8 5.5-10 6.7-23.2-3.1-30z" class="st6"/><path d="M98.4 29.1c-9-6.2-26.9-13.7-37.7-15.3-10.8-1.6-19.3-1.2-20.2 6.8 0 0-8.5-.1-11.1 12.9-2.6 13-3.5 25.5 3.6 34.6 1.7 2.1 1 4.8.1 10l5.2 3.2c4.2 2.3 10.6 5.3 18 7.1 7.2 1.8 13.9 2.2 18.6 2.1l7-.4 2.1-3.9S95.4 66.8 100.8 57c5.5-9.7 6.4-21.8-2.4-27.9z" class="st8"/><path d="M68.2 111c-.5 2.2-2.8 3.5-4.9 3l-35.7-8.8c-2.2-.5-3.4-2.7-2.8-4.9l4.5-18.2s-.3 2.6 3.2 3.5l35.7 8.8c2.2.5 3.5 2.8 3 4.9l-3 11.7z" class="st6"/><path d="M65.9 109c-.4 1.7-2.1 2.8-3.9 2.3l-34.9-8.6c-1.7-.4-2.6-2.1-2.2-3.8l3.5-14.2s-.3 2 2.5 2.7l35 8.6c1.7.4 2.8 2.1 2.3 3.9l-2.3 9.1z" class="st8"/><path fill="#a31211" d="M28.5 84.8zm38.2 11.6c.1.4 0 .8-.1 1.2l-2.2 9.1c-.4 1.7-2.1 2.8-3.9 2.3l-34.9-8.6c-.3-.1-.5-.2-.7-.3.2 1.2 1 2.3 2.3 2.6l34.9 8.6c1.7.4 3.4-.6 3.9-2.3l2.2-9.1c.3-1.4-.3-2.9-1.5-3.5z"/><path fill="#bc0d12" d="m32.9 67.9.1.1c1.7 2.1 1 4.8.1 10l5.2 3.2c4.2 2.3 10.6 5.3 18 7.1 7.2 1.8 13.9 2.2 18.6 2.1l7-.4 2.1-3.9s11.4-19.4 16.8-29.2c4.1-7.5 5.6-16.3 2.1-22.8-16.2 53.2-55.9 40.4-70 33.8z"/><path d="M46.3 22.8c-.2-2.6.3-6.8 8.4-6.5 8.1.2 35.3 7.6 41 17.6 0 0-7-5.5-17.7-6.3-10.7-.9-30.8 5.7-31.7-4.8zM30 42.5s.5-8.7 2.8-13.3c3.2-6.5 6.2-6.6 7.6-5.5 2.5 2 1 5.1-3.2 8.1-3.8 2.7-6.5 7.3-7.2 10.7zm12.8 1.6c-.2-2.8-1-5.7 2.1-6.7 2.8-.9 7.1 3.2 2.5 14.1-4.5 10.9-2.2 17.5 4 18.5s2.8 6.1-12.4-1.7c-14.5-7.4-10.2-24.7-5.9-25 5.5-.5 3.8 7.2 7.9 6.3 2.1-.5 1.9-4.5 1.8-5.5z" class="st11"/><path d="M42.3 18.9s2.5-5.9 14.2-4.7c8.4.8 15 2.9 26.4 8.2 0 0-10.1-4.3-21.6-6.4-8.9-1.6-17-.1-19 2.9z" class="st1"/><path d="M37.8 21.1c2.1-.6 4.6 1.7 5.6 3.2 1.7 2.4-.3 6.1-1.2 8.5-.9 2.4-1.4 4.9-2 7.3-.7 2.5-1.2 5.1-.7 7.7.2.9 1.5.5 1.3-.4-.6-3.5.8-7.1 1.7-10.4.8-3 2.2-6 2.8-9.1.8-3.9-3.6-9.4-7.9-8.1-.9.2-.5 1.5.4 1.3z" class="st6"/><path d="M44.6 29.1s2.7-.6 5.1.8c0 0-3.8-.9-5.8.7l.7-1.5zm-2-7.1s.5-2.3 2.3-2.9c0 0-1.6 1.9-1.3 3.7l-1-.8zm-1 15.2s-3.6-1.4-5.3.5c0 0 2.7-.8 4.9 1l.4-1.5zm3.2-11.8s.8-.8 1.7-.7c0 0-1.2.8-1.5 2.2l-.2-1.5zm-4.1 17.7s.3 1.9 1.7 2.4c0 0-1 .1-1.9-.8l.2-1.6zm-1.1.2s-.2 2.1-1.7 2.5c0 0 1.3-.2 1.9-.8l-.2-1.7zm3-8s3 .6 4.7-.8c0 0-1.9 2.7-5.2 1.8l.5-1zm.3-3.2s-2.1-1.6-3.7 0c0 0 2.4-.8 3.5 1l.2-1z" class="st6"/><path d="M56.7 95.7c0-1.4-13.2-2.7-18.5-4.2-5.3-1.5-9.4-4.8-9-1.6.4 3.2-2.2 6.4-1.9 6.9.8 1.2 2.8-1.7 4.5-3.4 1.7-1.7 25 7.2 24.9 2.3z" class="st11"/><path d="M32.3 27.7s2.6-5.9 6.3-5.7c0 0-3.4 1.5-6.3 5.7z" class="st1"/><path d="m25.3 107.5-.5-.1c-.1 0-.2-.2-.2-.3 0-.1.2-.2.3-.2l.5.1c.1 0 .2.2.2.3-.1.1-.2.2-.3.2zm48.9 12-.9-.2c-.1 0-.2-.2-.2-.3 0-.1.2-.2.3-.2l.9.2c.1 0 .2.2.2.3-.1.2-.2.2-.3.2zm-1.9-.4-.9-.2c-.1 0-.2-.2-.2-.3 0-.1.2-.2.3-.2l.9.2c.1 0 .2.2.2.3 0 .1-.1.2-.3.2zm-1.8-.5-.9-.2c-.1 0-.2-.2-.2-.3 0-.1.2-.2.3-.2l.9.2c.1 0 .2.2.2.3 0 .2-.1.3-.3.2zm-1.8-.4-.9-.2c-.1 0-.2-.2-.2-.3 0-.1.2-.2.3-.2l.9.2c.1 0 .2.2.2.3 0 .1-.2.2-.3.2zm-1.8-.5-.9-.2c-.1 0-.2-.2-.2-.3 0-.1.2-.2.3-.2l.9.2c.1 0 .2.2.2.3 0 .2-.2.3-.3.2zm-1.8-.4-.9-.2c-.1 0-.2-.2-.2-.3 0-.1.2-.2.3-.2l.9.2c.1 0 .2.2.2.3 0 .1-.2.2-.3.2zm-1.8-.5-.9-.2c-.1 0-.2-.2-.2-.3 0-.1.2-.2.3-.2l.9.2c.1 0 .2.2.2.3-.1.2-.2.3-.3.2zm-1.8-.4-.9-.2c-.1 0-.2-.2-.2-.3 0-.1.2-.2.3-.2l.9.2c.1 0 .2.2.2.3-.1.1-.2.2-.3.2zm-1.8-.5-.9-.2c-.1 0-.2-.2-.2-.3 0-.1.2-.2.3-.2l.9.2c.1 0 .2.2.2.3-.1.2-.2.3-.3.2zm-1.8-.4-.9-.2c-.1 0-.2-.2-.2-.3 0-.1.2-.2.3-.2l.9.2c.1 0 .2.2.2.3-.1.2-.2.2-.3.2zm-1.9-.4-.9-.2c-.1 0-.2-.2-.2-.3 0-.1.2-.2.3-.2l.9.2c.1 0 .2.2.2.3 0 .1-.1.2-.3.2zm-1.8-.5-.9-.2c-.1 0-.2-.2-.2-.3 0-.1.2-.2.3-.2l.9.2c.1 0 .2.2.2.3 0 .2-.1.2-.3.2zm-1.8-.4-.9-.2c-.1 0-.2-.2-.2-.3 0-.1.2-.2.3-.2l.9.2c.1 0 .2.2.2.3 0 .1-.1.2-.3.2zm-1.8-.5-.9-.2c-.1 0-.2-.2-.2-.3 0-.1.2-.2.3-.2l.9.2c.1 0 .2.2.2.3 0 .2-.2.3-.3.2zm-1.8-.4-.9-.2c-.1 0-.2-.2-.2-.3 0-.1.2-.2.3-.2l.9.2c.1 0 .2.2.2.3 0 .1-.2.2-.3.2zm-1.8-.5-.9-.2c-.1 0-.2-.2-.2-.3 0-.1.2-.2.3-.2l.9.2c.1 0 .2.2.2.3-.1.2-.2.3-.3.2zm-1.8-.4-.9-.2c-.1 0-.2-.2-.2-.3 0-.1.2-.2.3-.2l.9.2c.1 0 .2.2.2.3-.1.1-.2.2-.3.2zm-1.8-.5-.9-.2c-.1 0-.2-.2-.2-.3 0-.1.2-.2.3-.2l.9.2c.1 0 .2.2.2.3-.1.2-.2.3-.3.2zm-1.8-.4-.9-.2c-.1 0-.2-.2-.2-.3 0-.1.2-.2.3-.2l.9.2c.1 0 .2.2.2.3-.1.2-.2.2-.3.2zm-1.8-.4-.9-.2c-.1 0-.2-.2-.2-.3 0-.1.2-.2.3-.2l.9.2c.1 0 .2.2.2.3-.1.1-.2.2-.3.2zm-1.9-.5-.9-.2c-.1 0-.2-.2-.2-.3 0-.1.2-.2.3-.2l.9.2c.1 0 .2.2.2.3 0 .2-.1.2-.3.2zm-1.8-.4-.9-.2c-.1 0-.2-.2-.2-.3 0-.1.2-.2.3-.2l.9.2c.1 0 .2.2.2.3 0 .1-.1.2-.3.2zm-1.8-.5-.9-.2c-.1 0-.2-.2-.2-.3 0-.1.2-.2.3-.2l.9.2c.1 0 .2.2.2.3 0 .2-.2.2-.3.2zm-1.8-.4-.9-.2c-.1 0-.2-.2-.2-.3 0-.1.2-.2.3-.2l.9.2c.1 0 .2.2.2.3 0 .1-.2.2-.3.2zm-1.8-.5-.9-.2c-.1 0-.2-.2-.2-.3 0-.1.2-.2.3-.2l.9.2c.1 0 .2.2.2.3 0 .2-.2.3-.3.2zm-1.8-.4-.9-.2c-.1 0-.2-.2-.2-.3 0-.1.2-.2.3-.2l.9.2c.1 0 .2.2.2.3-.1.1-.2.2-.3.2zm-1.8-.5-.9-.2c-.1 0-.2-.2-.2-.3 0-.1.2-.2.3-.2l.9.2c.1 0 .2.2.2.3-.1.2-.2.3-.3.2zm48.4 11.9-.5-.1c-.1 0-.2-.2-.2-.3 0-.1.2-.2.3-.2l.5.1c.1 0 .2.2.2.3 0 .2-.2.3-.3.2z" class="st7"/><path fill="#280000" d="M75.7 118.5c0 .2.1.4 0 .7-.2.8-1 1.3-1.8 1.1l-48.9-12-.6-.3c.1.5.5 1 1.1 1.1l48.9 12c.8.2 1.6-.3 1.8-1.1.1-.6-.1-1.1-.5-1.5z"/><path fill="#ffbdbd" d="m81.5 31.1 1.8 15L96.7 53 83 59.4l-2.4 15-10.4-11.1-14.9 2.3 7.3-13.3-6.7-13.5 14.8 2.9z"/></svg>