<?xml version="1.0" encoding="utf-8"?>
<!-- Generator: Adobe Illustrator 26.1.0, SVG Export Plug-In . SVG Version: 6.00 Build 0)  -->
<svg version="1.1" id="Layer_1" xmlns="http://www.w3.org/2000/svg" xmlns:xlink="http://www.w3.org/1999/xlink" x="0px" y="0px"
	 viewBox="0 0 1056.6 202" style="enable-background:new 0 0 1056.6 202;" xml:space="preserve">
<g id="Livello_1_1_">
</g>
<g id="Layer_1_00000121280000816817959920000000882230360127541942_">
</g>
<g>
	<path style="fill:#FFFFFF;" d="M264.2,72.3h23.3l0.6,23.5h0.7l10.5-23.5h23.2l-10.7,50h-16.2l6-28.1h-0.8l-12.7,28.1h-11.3
		l-0.7-28.1h-0.8l-6,28.1h-15.7L264.2,72.3z"/>
	<path style="fill:#FFFFFF;" d="M326.8,85.2h15.8l-7.8,37.1H319L326.8,85.2z M330.3,68.3h15.8l-2.3,11H328L330.3,68.3z"/>
	<path style="fill:#FFFFFF;" d="M341.6,121.8l2-9.9c3.6,0.3,7.8,0.5,10,0.5c3.6,0,5.6,0,6.6-0.4c0.8-0.3,1-0.8,1-1.7
		c0-0.5-0.6-0.7-3.3-1.1l-8.4-1.2c-3.4-0.5-4.6-2.5-4.6-5.7c0-1.7,0.4-3.9,0.9-6.3c2.3-10.5,8.1-11.4,18.7-11.4
		c5.2,0,11.2,0.4,14.2,1l-2,9.9c-4.1-0.3-8.1-0.5-9.7-0.5c-3.6,0-5.5,0.1-6.3,0.5c-0.6,0.3-0.7,0.7-0.7,1.5c0,0.7,0.4,0.7,2.8,1
		l7.2,1.1c3.5,0.5,6.2,1.5,6.2,6.4c0,1.3-0.2,3.1-0.7,4.9c-2.5,11.8-8.1,12.4-18,12.4C352.3,122.9,345.6,122.4,341.6,121.8z"/>
	<path style="fill:#FFFFFF;" d="M384.4,114.9c0-2.2,0.4-4.9,1.2-8.6l2.2-10.2h-6.1l2.3-10.9h6.1l2.3-10.8h15.8L406,85.2h7.4
		l-2.3,10.9h-7.4l-2.5,12c-0.1,0.7-0.3,1.3-0.3,2c0,1.7,1.5,2.2,7.1,2.2l-2.1,10C389.4,122.3,384.4,122.1,384.4,114.9z"/>
	<path style="fill:#FFFFFF;" d="M419,85.2h15.8l-7.8,37.1h-15.8L419,85.2z M422.5,68.3h15.8l-2.3,11h-15.8L422.5,68.3z"/>
	<path style="fill:#FFFFFF;" d="M444.8,68.3h15.6l-6.5,30.5h0.7l10.4-13.5h16.6l-15,18.2l7.6,18.9h-16.6l-4.9-13.4h-0.7l-2.8,13.4
		h-15.5L444.8,68.3z"/>
	<path style="fill:#FFFFFF;" d="M498.6,114.1c0-2.6,0.6-6.1,1.5-10.4c3.4-15.6,4.4-19.1,21-19.1c13.4,0,17.4,2.1,17.4,8.8
		c0,2.6-0.5,6.1-1.5,10.3c-3.5,15.6-4.6,19.1-21.1,19.1C502.6,122.9,498.6,120.8,498.6,114.1z M521.7,103.7c0.7-3.3,1-5.3,1-6.5
		c0-1.5-0.8-1.7-2.5-1.7c-3.1,0-3.1,0.4-4.7,8.2c-0.7,3.5-1.1,5.5-1.1,6.6c0,1.5,0.7,1.6,2.5,1.6C520,112,520.1,111.6,521.7,103.7z"
		/>
	<path style="fill:#FFFFFF;" d="M539,136.2l2-9.8h9.6c8,0,8.2,0,9.4-5.6c0.3-1.2,0.5-2.5,0.8-3.8h-0.7c-3.1,3.9-6.8,4.7-9.5,4.7
		c-7.2,0-9.4-2.8-9.4-7.8c0-1.9,0.3-4.1,0.9-6.6l4.7-22h15.6l-3.9,18.4c-0.5,2.4-0.8,3.9-0.8,4.7c0,1.3,0.6,1.3,2,1.3
		c2.5,0,2.7-0.1,4-6l3.9-18.4h15.6l-7,33.1c-2.6,12.4-3.6,19-23.8,19C547.5,137.3,542,136.8,539,136.2z"/>
	<path style="fill:#FFFFFF;" d="M583.8,115c0-2,0.7-5.6,1.4-9.1l4.4-20.7h15.5l-3.9,18.6c-0.5,2.3-0.9,4.6-0.9,5.5
		c0,1.4,0.5,1.5,1.7,1.5c2.8,0,3-0.4,4.2-6l4.2-19.6h15.5l-7.8,37.1h-15l0.6-4.1h-0.7c-3.1,3.9-7.2,4.7-10,4.7
		C585.8,122.9,583.8,120.2,583.8,115z"/>
	<path style="fill:#FFFFFF;" d="M632.4,85.2h15l-0.6,4.1h0.7c3.1-3.9,7.2-4.7,10-4.7c7,0,9,2.5,9,7.6c0,2-0.6,5.6-1.3,9.1l-4.5,21
		h-15.5l3.9-18.6c0.5-2.3,0.9-4.6,0.9-5.5c0-1.4-0.5-1.5-1.7-1.5c-2.8,0-3,0.4-4.2,6l-4.2,19.6h-15.5L632.4,85.2z"/>
	<path style="fill:#FFFFFF;" d="M678.7,68.3h15.8l-11.4,54h-15.8L678.7,68.3z"/>
	<path style="fill:#FFFFFF;" d="M691.2,114.1c0-2.6,0.3-6,1.2-10.2c3.1-15.1,7-19.2,14.4-19.2c4,0,7.7,0.5,9.6,4.2h0.7l1.2-3.7h15.1
		l-7.8,37.1h-15l0.7-4.1h-0.8c-2.6,3.9-6,4.7-9.3,4.7C694.4,122.9,691.2,120.9,691.2,114.1z M712.6,109.1c0.7-2,2.3-9,2.3-10.8
		c0-1.5-0.5-1.6-2.4-1.6c-3,0-3.1,0.1-4.6,7.1c-0.7,2.9-0.9,4.6-0.9,5.7c0,1.4,0.7,1.5,2.5,1.5C711.5,110.9,712,110.7,712.6,109.1z"
		/>
	<path style="fill:#FFFFFF;" d="M739.9,85.2h15l-1,6.2h0.7c3.2-5.5,5.9-6.8,12.6-6.8l-2.9,13.5c-9.7,0-12,1.8-14.1,11.7l-2.7,12.4
		H732L739.9,85.2z"/>
</g>
<path style="fill:#FFFFFF;" d="M183.8,126.6c-0.3,0.1-0.7,0.2-1,0.3c-0.7,0.2-1.3,0.5-2,0.8c-1.9,0.8-3.7,0.6-5.4-0.5
	c-0.7-0.5-1.5-1-2.1-1.6c-1.2-1.1-2.4-2.2-3.6-3.3c-1.5-1.4-3.2-2.5-5-3.3c-2.3-1-4.6-1.3-7-0.8c-0.8,0.2-1.6,0.4-2.4,0.5
	c-2.4,0.5-4.8,0.4-7.1-0.8c-0.8-0.4-1.5-1-2.2-1.6c-0.7-0.6-1.5-1.1-2.5-1.5c0.4-0.2,0.6-0.3,0.8-0.4c6.6-3.3,13.4-5.9,20.3-8.5
	c2.8-1,5.7-2,8.4-3.2c0.3-0.2,0.7-0.3,1-0.5c0.5-0.3,0.8-0.7,0.7-1.3c-0.1-0.5-0.6-0.9-1.3-1c-0.2,0-0.3,0-0.5,0
	c-0.9,0-1.9,0-2.8-0.1c-5.8,0-11.7,0.3-17.5,0.3c-3.2,0-6.5,0-9.7,0.1c0.1-0.3,0.4-0.4,0.6-0.5c3.3-1.4,5.9-3.7,8.1-6.4
	c1.3-1.6,2.5-3.3,3.6-5c1-1.5,2.3-2.7,4-3.5c1-0.5,2-1,3.1-1.5c2.3-1.2,4.5-2.6,6.3-4.6c0.8-1,1.5-2,1.9-3.2
	c0.6-1.8,0.9-3.7,1.1-5.7c0-0.5,0-0.9-0.2-1.4c-0.2-0.7-0.9-0.9-1.4-0.4c-0.4,0.4-0.7,0.9-1,1.4c-1,1.5-2.3,2.6-3.9,3.5
	c-1,0.5-2,0.9-3.1,1.2c-2.6,0.8-5.3,1.4-7.9,2.3c-3.2,1-5.9,2.8-7.9,5.4c-0.8,1-1.6,2-2.2,3c-1.2,1.9-2.9,3.1-5.2,3.3
	c-0.8,0.1-1.6,0.3-2.4,0.6c-0.2,0.1-0.8,0.3-1.3,0.5c0,0,0.1-0.1,0.1-0.1c-0.2,0-0.4,0.1-0.7,0.1c-0.1,0.1-0.2,0.2-0.3,0.3
	c0.2-0.9,0.8-1.7,1.1-2.5c3.4-9.7,7.9-19.2,12.2-28.6c0.4-0.8,0.7-1.6,1.1-2.4c0.2-0.4,0.2-0.9-0.2-1.2c-0.4-0.4-0.9-0.3-1.3,0
	c-0.5,0.3-0.9,0.7-1.3,1.1c-1.6,1.5-3.1,3.1-4.6,4.7c-3.4,3.2-6.7,6.5-10,9.8c-1.9,2-3.6,4.5-5.9,6.1c-0.3-0.6,0.5-1.8,0.6-2.4
	c0.2-1,0.3-2,0.3-3c0-2-0.2-3.9-0.7-5.9c-0.2-1.1-0.5-2.1-0.7-3.1c-0.6-2.3-0.6-4.5-0.2-6.8c0.3-1.4,0.7-2.7,1.1-4
	c0.6-1.7,1-3.4,1.3-5.1c0.4-2.4,0.3-4.7-0.8-6.9c-1.1-2.4-2.8-4.4-4.3-6.5c-0.3-0.4-0.8-0.6-1.3-0.5c-0.5,0.2-0.8,0.6-0.7,1.3
	c0,0.6,0.2,1.3,0.3,1.9c0.7,2.6,0.5,5.2-0.4,7.7c-0.7,1.9-1.7,3.6-2.8,5.3c-1,1.4-2,2.8-2.9,4.3c-1.8,2.8-2.4,5.8-2.3,9.1
	c0.1,1.9,0.5,3.8,0.7,5.7c0.2,1.5-0.1,3-0.9,4.3c-0.8,1.3-1.5,2.7-1.8,4.3c0,0-0.1,0-0.1,0.1c-2.2-4.8-4.3-9.6-6.5-14.4
	c-1.8-4-3.8-8-5.5-12.1c-1.1-2.7-2.2-5.4-3.2-8.1c-0.2-0.5-0.4-1-0.7-1.5c-0.2-0.4-0.6-0.6-1.1-0.5c-0.5,0.1-0.7,0.5-0.8,0.9
	c-0.1,0.3-0.1,0.7-0.1,1c0.1,2.1,0.2,4.1,0.3,6.2c0.3,7.5,0.6,15,0.9,22.5c0,1.4,0.1,2.8,0.1,4.2c-0.2,0-0.3-0.1-0.3-0.1
	c-1.3-2.4-3.5-4-5.8-5.4c-1.4-0.8-2.8-1.5-4.2-2.2c-1-0.5-2-1.1-2.9-1.7c-1.4-1-2.3-2.2-2.8-3.9c-0.4-1.4-0.8-2.8-1.2-4.2
	c-0.9-3.2-2.6-5.9-5.5-7.6c-2.5-1.4-5.2-2.2-8-2.4c-1.5-0.1-2.9,0.1-4.3,0.7c-1.1,0.5-1.2,1.6-0.3,2.4c0.4,0.4,0.9,0.7,1.4,1
	c2.8,1.5,4.5,3.9,5.7,6.8c1.2,2.9,1.9,5.9,2.6,8.8c0.4,1.6,0.9,3.2,1.6,4.7c1.4,3,3.6,5.3,6.5,6.8c1.4,0.7,2.6,1.7,3.7,2.9
	c0.7,0.7,1.2,1.6,1.8,2.4c0.3,0.4,0.6,0.9,0.9,1.3c0.2,0.3,0.8,0.9,0.9,1.3c0.5,0.7-0.6,0.3-0.9,0.2c-1.3-0.5-2.5-0.9-3.8-1.4
	c-6.1-2.3-12.2-4.5-18-7.4c-4.1-2-8.4-3.7-12.6-5.6c-0.1,0-0.2-0.1-0.4-0.2c-0.4-0.2-0.7,0-1,0.3c-0.3,0.4-0.4,0.7-0.1,1.1
	c0.2,0.3,0.5,0.6,0.7,0.8c2.5,2.4,5.1,4.8,7.5,7.3c3.3,3.4,6.7,6.7,10.2,9.8c2,1.8,4,3.7,6,5.5c0.2,0.2,0.5,0.3,0.5,0.7
	c-0.2,0-0.3,0-0.4,0c-3.9-1.4-7.8-1.2-11.7-0.2c-0.8,0.2-1.6,0.3-2.4,0.5c-2,0.4-3.9,0.2-5.8-0.5c-1-0.4-2.1-0.8-3.1-1.2
	c-1.6-0.6-3.3-1-5-1c-0.9,0-1.8,0-2.7,0.1c-2.6,0.3-5.1,0.8-7.4,1.9c-1,0.5-2,1.1-2.8,1.8c-0.6,0.5-0.7,1-0.6,1.5
	c0.2,0.5,0.6,0.7,1.4,0.7c0.5,0,1-0.2,1.5-0.3c1.1-0.3,2.3-0.6,3.5-0.6c2,0,3.7,0.7,5.3,1.8c1.1,0.8,2.1,1.7,3.1,2.6
	c2.2,2,4.6,3.6,7.2,4.8c1.6,0.7,3.2,1.1,5,1.2c1.9,0.1,3.9-0.1,5.8-0.3c1.8-0.1,3.5,0.1,5.2,0.7c1.4,0.6,2.7,1.4,4.3,1.6
	c-0.4,0.3-0.8,0.5-1.2,0.7c-6.9,3.6-14.2,6.3-21.4,9.1c-3.9,1.5-7.7,3.1-11.6,4.6c-0.4,0.1-0.7,0.3-1,0.5c-0.3,0.2-0.4,0.4-0.4,0.8
	c0.1,0.3,0.3,0.5,0.6,0.5c0.3,0,0.5,0.1,0.8,0.1c3.8,0.3,7.6,0.1,11.3-0.1c5.9-0.2,11.8-0.5,17.7-0.5c0.2,0,0.4-0.1,0.5,0.2
	c0,0,0,0.1-0.1,0.1c-0.2,0.1-0.3,0.2-0.4,0.2c-2.9,1.4-5,3.6-6.6,6.4c-0.6,1.2-1.2,2.4-1.8,3.7c-1.1,2.5-2.8,4.4-5.2,5.8
	c-0.5,0.3-1.1,0.6-1.6,0.9c-1.5,0.9-3.1,1.7-4.4,2.8c-3.5,2.9-3.8,7.1-2.3,11c0.5,1.3,1.7,1.4,2.6,0.3c0.4-0.4,0.7-0.9,1-1.4
	c1.3-1.9,3-3.2,5.2-4c1.8-0.7,3.7-1.1,5.5-1.6c3.5-1,6.5-2.8,8.7-5.8c0.6-0.8,1.2-1.7,1.8-2.6c1.1-1.7,2.6-2.9,4.4-3.8
	c0.5-0.3,1.1-0.5,1.6-0.7c0.5-0.3,0.9-0.7,1.5-0.9c0.2,0.4-0.2,1-0.4,1.4c-0.2,0.6-0.5,1.3-0.7,1.9c-0.5,1.3-1,2.6-1.5,3.9
	c-0.9,2.5-1.9,5.1-2.8,7.6c-2.1,6-4.3,12-6.4,18c-0.1,0.4-0.2,0.7-0.3,1.1c-0.1,0.4,0.1,0.7,0.4,0.9c0.4,0.2,0.7,0.2,1-0.1
	c0.3-0.3,0.6-0.6,0.8-0.9c1.7-2,3.4-3.9,5.2-5.8c3.7-3.8,7.4-7.6,11.1-11.4c1.8-1.8,3.7-3.7,5.5-5.6c0.1-0.1,0.1-0.2,0.2-0.2
	c0.2,0,0.1,0.2,0.1,0.3c-0.3,2.1-0.4,4.2-0.1,6.3c0.3,2,0.9,3.9,1.6,5.7c1.3,3.5,1.5,7,0.4,10.6c-0.4,1.5-0.8,2.9-1.2,4.4
	c-0.8,3.4-0.7,6.7,0.5,10c0.8,2.3,2.4,4,4.3,5.4c0.4,0.3,0.8,0.4,1.2,0.1c0.4-0.3,0.4-0.7,0.3-1.2c-0.1-0.5-0.3-1.1-0.5-1.5
	c-0.7-1.8-0.8-3.7-0.2-5.5c0.6-2,1.5-3.9,2.5-5.6c1.3-2.1,2.5-4.2,3.5-6.4c0.8-1.9,1.4-3.8,1.7-5.8c0.3-2.8,0.1-5.6-0.4-8.4
	c-0.2-1.1-0.3-2.3-0.2-3.4c0.1-1.6,0.9-2.9,1.5-4.3c0.5,0.4,0.6,0.9,0.8,1.3c2.5,6.1,5,12.1,7.4,18.2c2,5,4.3,9.9,6.2,15
	c0.3,0.7,0.7,0.9,1.2,0.8c0.5-0.1,0.7-0.5,0.8-1.2c0-0.1,0-0.2,0-0.3c-0.2-6.3-0.3-12.7-0.2-19c0-4.3-0.1-8.5-0.2-12.8
	c0-0.4-0.1-0.8,0-1.1c0.4,0.9,0.6,1.9,1,2.8c0.4,0.9,0.9,1.8,1.5,2.6c1.1,1.6,2.6,3,4.4,3.9c1.5,0.8,2.6,1.9,3.7,3.2
	c1.7,2,2.8,4.3,3.8,6.7c1,2.3,2.1,4.5,3.8,6.4c1.2,1.3,2.6,2.2,4.3,2.7c2.4,0.7,4.9,0.7,7.3,0.3c0.8-0.1,1.5-0.4,2.2-0.8
	c1-0.6,1.2-1.6,0.3-2.4c-0.5-0.4-1-0.8-1.6-1.1c-2-1.3-3.5-3.1-4.4-5.3c-0.4-0.9-0.7-1.8-1-2.8c-0.7-2.5-1.3-5-2-7.4
	c-0.9-3.4-2.8-6.1-5.9-7.9c-0.8-0.5-1.6-0.9-2.4-1.3c-1.2-0.6-2-1.6-2.6-2.8c-0.8-1.6-1-3.4-1.7-5.2c0.8,0.1,1.4,0.3,2.1,0.5
	c6.9,1.8,13.6,4,20.1,6.9c2.4,1.1,4.8,2.2,7.3,3.4c0.6,0.2,1.1,0.5,1.7,0.6c0.4,0.1,0.9,0.1,1.2-0.3c0.3-0.4,0.1-0.9-0.2-1.2
	c-0.5-0.6-0.9-1.2-1.4-1.7c-5.1-5.2-10.1-10.5-15.3-15.5c-0.9-0.9-1.8-1.8-2.8-2.7c0.1-0.1,0.1-0.2,0.2-0.3c0.3,0.1,0.6,0.2,1,0.3
	c1.6,0.6,3.2,0.9,5,0.9c2.7,0,5.3-0.6,7.9-1.4c1.5-0.4,3.1-0.8,4.7-0.9c1.9-0.2,3.7,0.3,5.5,1c1.7,0.6,3.4,1.3,5.2,1.7
	c1.6,0.4,3.1,0.3,4.7-0.3c2.2-0.8,4.1-2.1,5.9-3.5c0.5-0.4,0.9-0.9,1.3-1.3c0.5-0.6,0.6-1,0.3-1.4
	C184.9,126.4,184.3,126.5,183.8,126.6z M115.2,142.4c-15,2.8-29.3-7.2-32.1-22.1c-2.8-15,7.2-29.3,22.2-32.1c5.8-1.1,16.4,2,16.4,2
	c0.9,0.5,0.1,0.5,0.1,0.5c-2.2-0.2-4.5-0.2-6.9,0.3c-13.1,2.4-21.7,14.9-19.3,28c2.4,13.1,14.9,21.7,28,19.3c1.4-0.3,2.8-0.6,4-1.1
	l0.2,0.2C124.3,140.2,119.9,141.6,115.2,142.4z"/>
<path style="fill:#FFFFFF;" d="M73.2,21.3c-0.1,0.1-0.3,0.1-0.4,0.2c0-0.1,0-0.2,0-0.2c0-0.6,0-1.3-0.1-1.9c-0.2-1-0.2-2.1-0.3-3.1
	c-0.2-1.2-0.2-2.4-0.3-3.5c0-0.4-0.1-0.8-0.1-1.2c0-0.1-0.1-0.1-0.1-0.2c0,0.1-0.1,0.1-0.2,0.2c0,0.1,0,0.2,0,0.2
	c0,0.6,0,1.2-0.1,1.8c-0.1,1.1-0.3,2.1-0.3,3.1c0,0.8-0.2,1.5-0.2,2.3c0,0.5-0.1,0.9-0.2,1.4c0,0.3,0,0.6,0,0.9
	c0,0.1-0.1,0.2-0.1,0.2c-0.2-0.1-0.4-0.2-0.7-0.3c-0.2-0.1-0.3-0.3-0.5-0.4c-0.6-0.3-1.2-0.6-1.8-0.9c-0.4-0.2-0.8-0.5-1.3-0.7
	c-0.1,0-0.1,0-0.2-0.1c-0.1,0-0.2-0.1-0.3-0.1c-0.4-0.2-0.7-0.5-1.1-0.7c-0.4-0.2-0.7-0.5-1.2-0.6c-0.2-0.1-0.4-0.3-0.6-0.4
	c-0.1,0-0.2,0-0.3-0.1c0,0.1,0.1,0.2,0.1,0.3c0.2,0.2,0.4,0.3,0.6,0.5c0.3,0.3,0.5,0.6,0.8,0.7c0,0,0.1,0.1,0.1,0.1
	c0.2,0.2,0.3,0.3,0.4,0.5c0.3,0.2,0.6,0.5,0.8,0.7c0.5,0.4,0.9,0.9,1.4,1.3c0.3,0.3,0.6,0.5,0.9,0.8c0.5,0.4,0.9,0.9,1.4,1.3
	c0.2,0.2,0.2,0.4,0,0.5c-0.3,0.3-0.7,0.6-1,0.9c-0.3,0.2-0.6,0.5-0.9,0.7c-0.3,0.2-0.5,0.5-0.8,0.7s-0.6,0.5-0.8,0.7
	c-0.2,0.2-0.4,0.5-0.7,0.7c-0.8,0.7-1.6,1.4-2.4,2.1c0,0-0.1,0.1-0.1,0.3c0.2,0,0.3,0,0.4-0.1c0.5-0.3,1.1-0.6,1.6-0.9
	c0.4-0.2,0.7-0.4,1.1-0.6c0.2-0.1,0.3-0.2,0.5-0.3c0.5-0.3,0.9-0.6,1.4-0.8c0.5-0.3,1.1-0.6,1.6-0.8c0.1-0.1,0.2-0.2,0.4-0.2
	c0.2-0.1,0.4-0.2,0.6-0.3c0.1,0,0.2-0.1,0.3-0.2c0.2-0.1,0.4,0,0.4,0.2c0,0.3,0,0.6,0.1,0.9c0,0.6,0.1,1.3,0.2,1.9
	c0.1,1,0.2,2,0.3,3.1c0.1,1.4,0.2,2.7,0.3,4.1c0,0.1,0,0.2,0.1,0.4c0,0,0.1,0,0.1,0c0-0.3,0.1-0.6,0.1-0.9c0-0.4,0-0.9,0-1.3
	c0.1-0.7,0.2-1.5,0.3-2.2c0-0.3,0-0.6,0-0.9c0.2-1,0.1-2,0.3-3.1c0.2-0.7,0.1-1.3,0.2-2c0-0.2,0.1-0.2,0.3-0.2
	c0.4,0.2,0.9,0.5,1.3,0.7c0.3,0.2,0.6,0.4,0.9,0.5c0.4,0.2,0.8,0.4,1.2,0.6c0.3,0.2,0.6,0.4,0.9,0.5c0.1,0,0.2,0,0.2,0.1
	c0.1,0,0.1,0,0.2,0c0.2,0.1,0.4,0.3,0.6,0.4c0.3,0.2,0.6,0.4,0.9,0.5c0.4,0.2,0.8,0.4,1.1,0.7c0.1,0,0.1,0.1,0.2,0.1
	s0.2-0.1,0.2-0.1c0-0.1-0.1-0.2-0.1-0.2c0,0-0.2,0-0.2-0.1c-0.5-0.5-1-0.9-1.5-1.4c-0.5-0.5-1-0.9-1.5-1.4c-0.2-0.2-0.4-0.4-0.6-0.6
	c-0.3-0.2-0.5-0.5-0.8-0.7c-0.3-0.2-0.6-0.4-0.8-0.7c-0.2-0.2-0.4-0.4-0.6-0.5c0,0,0,0,0,0c-0.1-0.1-0.2-0.3-0.4-0.4
	c-0.2-0.2-0.2-0.5,0-0.6c0.2-0.1,0.3-0.3,0.5-0.4c0.6-0.6,1.2-1.1,1.8-1.7c0.4-0.3,0.7-0.6,1.1-0.9c0.3-0.3,0.6-0.6,0.9-0.9
	c0.4-0.4,0.7-0.7,1.2-1.1c0.4-0.3,0.8-0.6,1.2-0.9c0.1-0.1,0.2-0.2,0.3-0.3c0,0,0,0-0.1-0.1c-0.2,0.1-0.4,0.2-0.5,0.2
	c-0.4,0.2-0.7,0.6-1.3,0.6c0,0,0,0-0.1,0c-0.2,0.1-0.4,0.3-0.6,0.4c-0.5,0.3-0.9,0.5-1.4,0.8c-0.5,0.3-1,0.5-1.5,0.8
	c-0.4,0.2-0.8,0.5-1.3,0.7c-0.1,0.1-0.2,0.1-0.4,0.2c-0.1,0.1-0.2,0.1-0.3,0.2C73.6,21.1,73.4,21.2,73.2,21.3z"/>
<path style="fill:#FFFFFF;" d="M73.7,190.7c0-1.3-1.1-2.4-2.4-2.4c-1.3,0-2.4,1.1-2.4,2.4c0,1.3,1.1,2.4,2.4,2.4
	C72.7,193.1,73.7,192,73.7,190.7z"/>
<path style="fill:#FFFFFF;" d="M102.3,18.6c0,1.1,0.9,2,2,2c1.1,0,2-0.9,2-2c0-1.1-0.9-2-2-2C103.2,16.6,102.3,17.5,102.3,18.6z"/>
<path style="fill:#FFFFFF;" d="M142.9,29.1c0,2,1.6,3.5,3.5,3.5s3.5-1.6,3.5-3.5c0-2-1.6-3.5-3.5-3.5
	C144.4,25.6,142.9,27.2,142.9,29.1z"/>
<path style="fill:#FFFFFF;" d="M29.2,36c-1.1,0-2.1,0.9-2.1,2.1c0,1.1,0.9,2.1,2.1,2.1c1.1,0,2.1-0.9,2.1-2.1S30.3,36,29.2,36z"/>
<path style="fill:#FFFFFF;" d="M188.6,92.2c-1.4,0-2.6,1.2-2.6,2.6s1.2,2.6,2.6,2.6s2.6-1.2,2.6-2.6C191.2,93.3,190,92.2,188.6,92.2
	z"/>
<path style="fill:#FFFFFF;" d="M31.8,71c0-2-1.6-3.6-3.6-3.6S24.6,69,24.6,71c0,2,1.6,3.6,3.6,3.6C30.2,74.6,31.8,72.9,31.8,71z"/>
<path style="fill:#FFFFFF;" d="M177.3,152.7c-1.3,0-2.4,1.1-2.4,2.4c0,1.3,1.1,2.4,2.4,2.4c1.3,0,2.4-1.1,2.4-2.4
	C179.7,153.8,178.7,152.7,177.3,152.7z"/>
<path style="fill:#FFFFFF;" d="M208.1,118.7c-0.3,8.5-6.3,9.6-8.9,9.6c6.7,0.6,8,6.3,8.2,9.1c0.3-8.9,9.5-9.1,9.5-9.1
	C207.7,128.1,208.1,118.7,208.1,118.7z"/>
<path style="fill:#FFFFFF;" d="M16.2,112.5c-0.3,8.5-6.3,9.6-8.9,9.6c6.7,0.6,8,6.3,8.2,9.1c0.3-8.9,9.5-9.1,9.5-9.1
	C15.7,121.9,16.2,112.5,16.2,112.5z"/>
<path style="fill:#FFFFFF;" d="M183.1,45.2c-0.3,8.5-6.3,9.6-8.9,9.6c6.7,0.6,8,6.3,8.2,9.1c0.3-8.9,9.5-9.1,9.5-9.1
	C182.7,54.6,183.1,45.2,183.1,45.2z"/>
<path style="fill:#FFFFFF;" d="M131.9,43.3C131.9,43.3,131.9,43.3,131.9,43.3C131.9,43.3,131.8,43.3,131.9,43.3
	C131.8,43.3,131.9,43.3,131.9,43.3z"/>
</svg>
