<?xml version="1.0" encoding="utf-8"?>
<!-- Generator: Adobe Illustrator 26.1.0, SVG Export Plug-In . SVG Version: 6.00 Build 0)  -->
<svg version="1.1" id="Layer_1" xmlns="http://www.w3.org/2000/svg" xmlns:xlink="http://www.w3.org/1999/xlink" x="0px" y="0px"
	 viewBox="0 0 1056.6 202" style="enable-background:new 0 0 1056.6 202;" xml:space="preserve">
<path style="fill:#FFFFFF;" d="M133.4,71c0,7.6,0,15.2,0,22.9c0,1.8,1,2.9,3.3,2.9c4.1,0.1,8.2,0.1,12.3,0c2.9,0,3.6,0.6,3.6,3.4
	c0,3.6,0,7.2,0.1,10.8c0,2.5-0.7,3.2-3.2,3.2c-3.5,0-7.1-0.1-10.6-0.1c-0.9,0-1.9,0.1-2.8,0.2c-1.8,0.2-2.4,1.3-2.4,3
	c0.1,4.1-0.1,8.3,0.1,12.4c0.1,2.3-0.8,4-2.3,5.6c-5.1,5.2-10.3,10.3-15.5,15.4c-0.7,0.6-1.6,0.9-2.5,1.4c-0.4-1-1-2.1-1-3.1
	c0-9.6,0-19.1,0.1-28.7c0-1.1,0-2.3,0-3.4c-0.1-2.1-0.9-3-2.9-3c-10.3,0-20.6,0.1-30.9,0.1c-0.2,0-0.4,0-0.6,0
	c-3.2,0.3-5.9-0.4-8.2-3.1c-2.7-3.2-5.9-6-8.9-9c-1.5-1.5-1.5-3.4,0-4.9C75.7,82.5,90.5,67.8,105.3,53c5.3-5.2,10.5-10.5,15.6-15.9
	c1.2-1.2,2.6-1.5,3.7-0.4c2.8,2.6,5.4,5.4,7.9,8.2c0.8,0.9,1,2.5,1,3.7c0.1,7.4,0,14.8,0,22.3C133.5,71,133.5,71,133.4,71z
	 M101.8,97c0,0,0-0.1,0-0.1c2.5,0,5,0,7.4,0c2.7,0,3.5-0.9,3.3-3.5c-0.1-1-0.1-2-0.1-3c0-3.6,0.2-7.2,0.1-10.8
	c0-1.1-0.8-2.1-1.2-3.1c-0.9,0.5-1.9,0.9-2.6,1.6c-5.2,5.1-10.4,10.2-15.5,15.4c-0.6,0.6-0.9,1.6-1.4,2.4c0.9,0.4,1.8,1.1,2.7,1.2
	C97,97.1,99.4,97,101.8,97z"/>
<path style="fill:#FFFFFF;" d="M805,97.7c0-12.4,0-24.7,0-37.1c0-3.6,0.6-4,4.1-3.9c7.7,0.2,15.4,0,23.1,0.5
	c6.3,0.4,12.6,1,18.7,2.4c4.8,1.1,8.8,4.4,11.7,8.6c5.2,7.5,5.2,15.8,2.8,24c-1.3,4.6-4.2,8.5-8.8,10.7c-2.2,1.1-4.4,2.1-6.7,3.1
	c-2.2,1-2.7,3-1.2,5.1c4.3,6.2,8.8,12.3,13.1,18.4c1.4,2,2.7,4.1,4.1,6.1c0.5,0.7,1.2,1.2,1.8,1.8c0.3,0.3,0.7,0.8,0.6,1.1
	c-0.1,0.4-0.6,0.8-1,1c-0.5,0.2-1.2,0.3-1.8,0.3c-5.4,0-10.9,0-16.3,0c-1.6,0-2.8-0.6-3.8-1.9c-3.4-4.3-6.8-8.6-10.2-12.9
	c-2.2-2.8-4.4-5.7-6.7-8.5c-1.1-1.3-2.3-2.6-3.6-3.8c-0.4-0.4-1.3-0.7-1.5-0.5c-0.4,0.4-0.7,1.1-0.7,1.7c0,6.8,0.2,13.5,0.3,20.3
	c0,0.9,0,1.7-0.1,2.6c-0.2,2.1-1.4,3-3.5,3c-3.8-0.1-7.6-0.2-11.4-0.2c-1.8,0-2.8-0.8-2.9-2.6c-0.1-1.8-0.2-3.6-0.2-5.4
	C805,120.1,805,108.9,805,97.7z M823.1,83.9C823.1,83.9,823.1,83.9,823.1,83.9c0.1,1.7,0.1,3.5,0.1,5.2c0,0.3,0,0.7,0,1
	c-0.1,3.3,0.6,4.2,3.9,4.1c4.1-0.1,8.3-0.3,12.4-0.6c4.5-0.3,8.4-4,8.8-8.2c0.5-5.5-2.6-10.7-7.3-11.4c-4.9-0.7-10-0.7-15-0.7
	c-2.1,0-2.8,1.1-2.8,3.3C823.1,79.1,823.1,81.5,823.1,83.9z"/>
<path style="fill:#FFFFFF;" d="M736.1,98.1c0-12,0-23.9,0-35.9c0-0.6,0-1.2,0.1-1.8c0.3-2.8,0.8-3.3,3.7-3.3c15,0,30-0.1,45-0.1
	c1.5,0,2.5,0.7,2.6,2.2c0.1,4.1,0.2,8.2,0.2,12.2c0,1.9-1.6,2.2-3.2,2.2c-8.2,0-16.3,0-24.5,0c-1.3,0-2.5,0-3.8,0.1
	c-1.7,0.1-2.5,1.1-2.5,2.8c0.1,3.1,0.1,6.1,0.2,9.2c0,1.7,1.1,2.6,2.7,2.7c2.2,0.2,4.4,0.2,6.6,0.2c6.2,0,12.3,0,18.5-0.1
	c2.5,0,3.5,0.6,3.6,3.2c0.2,3.7,0.2,7.4,0.1,11c0,1.8-1.2,2.6-3.3,2.6c-7.6,0-15.1-0.1-22.7-0.1c-5.2,0-5.9,0.1-5.6,5.5
	c0.1,2.9-0.1,5.9-0.2,8.8c-0.1,2.5,0.8,3.7,3.4,3.7c9.4,0,18.9-0.1,28.3-0.2c2.7,0,3.9,1,3.9,3.6c0,2.9,0.1,5.9,0,8.8
	c-0.1,3-1.4,4-4.4,4c-14.2,0-28.4,0-42.6,0c-5.6,0-6-0.6-5.9-6.1C736.2,121.5,736.1,109.8,736.1,98.1
	C736.1,98.1,736.1,98.1,736.1,98.1z"/>
<path style="fill:#FFFFFF;" d="M452.1,98.4c0-11.8,0-23.7,0-35.5c0-0.7,0-1.3,0-2c0.1-3.4,1.2-4.2,4.6-4.1c7.6,0.2,15.3,0,22.9,0.5
	c5.4,0.3,11,1,16.2,2.5c4.9,1.4,9,4.7,11.9,9.1c4.8,7.4,5.6,15.3,3.6,23.8c-1.1,4.7-3.3,8.5-6.7,11.8c-3.1,2.9-7.1,4.2-11.1,5.1
	c-3.6,0.7-7.2,1.3-10.9,1.8c-3.3,0.4-6.7,0.5-10,0.9c-0.8,0.1-1.7,1.1-2,1.8c-0.4,1-0.4,2.2-0.4,3.4c0,6.4,0,12.7,0,19.1
	c0,2.8-0.8,3.4-3.5,3.3c-3.5-0.1-7,0-10.4,0c-2.8,0-3.8-0.7-3.8-3.4c-0.1-9.8,0-19.7,0-29.5c0-2.8,0-5.6,0-8.4
	C452.3,98.4,452.2,98.4,452.1,98.4z M478.7,73.5C478.7,73.5,478.7,73.5,478.7,73.5c-1.7,0-3.5,0-5.2,0c-2.7,0-3.4,0.7-3.3,3.3
	c0,1.5,0.1,3.1,0.1,4.6c0,4.1-0.1,8.2-0.1,12.2c0,1.7,0.7,3,2.5,2.9c4.1-0.3,8.3-0.6,12.3-1.5c2.1-0.4,4.2-1.8,5.9-3.1
	c2.4-1.8,2.5-4.7,2.5-7.5c0-6.6-3.6-10.3-10.1-10.7C481.8,73.6,480.2,73.6,478.7,73.5z"/>
<path style="fill:#FFFFFF;" d="M647.8,139.7c-2.3,0-4.7,0-7,0c-1.6,0-2.6-0.8-3.2-2.2c-1.5-3.1-3.1-6.2-4.5-9.3
	c-1-2.1-2.4-2.9-4.8-2.9c-6.4,0.1-12.7,0-19.1-0.1c-3.2,0-4.6,1-5.7,4c-1.1,2.9-2.2,5.7-3.5,8.5c-0.4,0.9-1.8,1.8-2.7,1.8
	c-4.9,0.1-9.8,0-14.7-0.1c-1.6,0-2.3-1.1-1.7-2.6c1-2.5,2.2-4.9,3.3-7.3c1.5-3.3,3-6.7,4.5-10c1-2.3,2-4.6,3.1-6.9
	c1.5-3.1,3.1-6.2,4.5-9.3c1.2-2.6,2.4-5.4,3.6-8c1.7-3.8,3.5-7.6,5.3-11.4c1.3-2.9,2.5-5.9,3.8-8.8c1.4-3.2,3-6.4,4.5-9.6
	c1.3-2.9,2.5-5.8,3.8-8.6c0.4-0.8,1.2-1.8,1.8-1.8c0.7,0,1.6,0.9,2,1.6c1.7,3.5,3.3,7.1,5,10.7c1.7,3.7,3.3,7.4,5,11.1
	c0.9,2.1,1.9,4.1,2.8,6.2c1.4,3.2,2.7,6.5,4.1,9.7c1.4,3.2,3,6.4,4.5,9.5c0.2,0.4,0.4,0.7,0.5,1.1c1.9,4.2,3.8,8.5,5.6,12.7
	c1.3,2.9,2.4,5.9,3.7,8.8c1.4,3.2,3,6.4,4.5,9.6c0.3,0.8,0.7,2,0.3,2.6c-0.3,0.6-1.5,0.9-2.4,0.9
	C652.4,139.8,650.1,139.7,647.8,139.7C647.8,139.7,647.8,139.7,647.8,139.7z M618.8,110.4C618.8,110.4,618.8,110.4,618.8,110.4
	c1.4,0,2.8,0,4.2,0c2.8,0,3.7-0.9,3-3.5c-0.9-3.1-2.3-6.1-3.5-9.1c-0.8-1.9-1.5-3.8-2.4-5.7c-0.2-0.5-0.9-1.2-1.3-1.2
	c-0.5,0-1.1,0.6-1.5,1.1c-0.3,0.3-0.4,0.9-0.5,1.3c-1.3,3.3-2.7,6.5-4,9.8c-0.6,1.5-1.2,3-1.5,4.5c-0.4,1.9,0.4,2.7,2.4,2.8
	C615.5,110.5,617.1,110.4,618.8,110.4z"/>
<path style="fill:#FFFFFF;" d="M678,123.5c0-3.9,0-7.9,0-11.8c0-1-0.1-2.2-0.6-3.1c-2.3-4.1-4.7-8.1-7-12.1c-1.1-2-2.3-3.9-3.4-5.9
	c-2.8-4.8-5.5-9.6-8.3-14.4c-2.4-4.2-4.7-8.3-7.1-12.5c-0.8-1.3-1.7-2.6-2.3-4c-0.8-2,0.2-3.1,2.3-3.1c5,0.1,10,0.1,15.1,0.4
	c2.9,0.2,3.9,2.8,5.2,4.8c1.9,3.2,3.6,6.5,5.3,9.8c2.3,4.3,4.5,8.6,6.8,12.9c0.7,1.3,1.7,2.4,2.6,3.5c0.9,1,1.9,0.8,2.6-0.4
	c2.1-4.1,4.2-8.3,6.3-12.4c1-2,2.1-4,3.2-6c1.9-3.6,3.7-7.2,5.7-10.7c0.5-0.8,1.8-1.6,2.7-1.6c5-0.2,10-0.2,15.1-0.1
	c2.6,0,3.2,1,2.2,3.3c-1.3,2.8-2.9,5.6-4.4,8.3c-2.4,4.2-4.9,8.2-7.3,12.4c-1.2,2.1-2.4,4.2-3.6,6.2c-3.4,5.8-7.1,11.4-10.3,17.4
	c-1.7,3.2-3,6.5-2.8,10.5c0.3,7.1,0,14.3-0.2,21.5c-0.1,2.8-1.1,3.5-4,3.4c-3.4-0.1-6.8-0.1-10.2,0c-2.5,0.1-3.4-0.5-3.5-3
	C678,132.2,678.1,127.9,678,123.5C678.1,123.5,678.1,123.5,678,123.5z"/>
<path style="fill:#FFFFFF;" d="M75.3,185c-0.2,0-1,0-1.7-0.3c-2.9-1.4-5.8-2.8-8.7-4.3c-1.9-1-3.9-1.9-5.8-3
	c-5.9-3.4-11.2-7.6-15.7-12.6c-3.9-4.3-7.6-9-11-13.7c-1.5-2.1-3.1-2.8-5.6-2.5c-1.4,0.2-3.3,1.1-4-0.6c-0.5-1.2,0.1-2.9,0.7-4.2
	c1.6-4,3.4-7.9,5.1-11.9c1.3-3,2.7-6.1,4.1-9.1c1.6-3.8,3.1-7.6,4.8-11.4c0.4-0.9,1.1-2.1,1.9-2.2c0.9-0.2,2.3,0.4,2.9,1.1
	c3,3.1,5.8,6.5,8.8,9.7c4.3,4.7,8.6,9.4,12.9,14.1c1.9,2.1,3.8,4.2,5.6,6.3c1.3,1.5,1,2.7-1,3.2c-1.2,0.3-2.4,0.4-3.5,0.6
	c-2.7,0.5-3.7,2.6-2,4.9c4.9,6.5,10.2,12.5,16.2,18c1.8,1.7,3.4,3.7,5.1,5.4c0.4,0.4,1.2,0.4,1.8,0.8c0.5,0.4,0.9,0.9,1.4,1.4
	c-0.5,0.3-1,0.6-1.5,0.8c-0.3,0.1-1,0.1-1.1,0.3c-1,2.9-4.2,3.7-5.8,5.9c-0.2,0.3-0.4,0.6-0.4,0.9C78.5,184.7,78.1,185.1,75.3,185z"
	/>
<path style="fill:#FFFFFF;" d="M37.5,70.8c-0.1-0.3-0.6-0.8-0.6-1.4c-0.2-2.5-1.9-4.1-3.7-5.4c-0.8-0.6-2.4-0.7-3.5-0.5
	c-2.2,0.4-2.4,0.3-2.7-1.8c-0.3-2.3,0.1-4.3,1.5-6.4c1.6-2.4,2.3-5.4,3.6-8.1c0.8-1.7,1.9-3.4,3-4.9c5.6-7.9,11.6-15.3,19.6-21
	c2.3-1.7,4.7-3.3,6.9-5.1c0.8-0.7,1.2-2,1.3-3.1c0.2-0.9-0.3-1.8-0.4-2.8c-0.3-2.6,1.3-3.9,3.7-2.8c3.4,1.6,6.7,3.3,10.1,4.8
	c3.2,1.4,6.5,2.6,9.8,4c2.3,1,4.7,1.9,7,2.9c2.5,1.1,5,2.1,7.5,3.2c2.3,1,2.6,3.4,0.7,5c-4.9,4.3-9.8,8.7-14.7,13
	c-5.2,4.7-10.4,9.5-15.6,14.1c-1.4,1.2-2.6,0.7-3-1.1c-0.3-1.4-0.5-2.9-0.9-4.3c-0.6-2.3-2.5-3-4.3-1.5
	c-6.5,5.1-13.1,10.2-18.5,16.6c-1.1,1.4-2.2,2.7-3.4,4.1c-0.2,0.2-0.4,0.3-0.6,0.5C39.5,69.4,38.5,70.1,37.5,70.8z"/>
<path style="fill:#FFFFFF;" d="M189.9,124.3c0.4,0.9,1.3,1.9,1.2,2.8c-0.3,3.2,2.6,4.3,3.9,6.3c0.2,0.3,0.6,0.5,0.9,0.8
	c1.7,1.8,1.7,1.8,2.6-0.6c0.1-0.3,0.6-0.8,0.7-0.8c0.4,0.2,0.9,0.5,1,0.8c0.2,2.3,0.7,4.6-1,6.7c-0.6,0.7-0.8,1.7-1.2,2.6
	c-0.2,0.6-0.3,1.2-0.5,1.7c-3.7,7.7-8.4,14.6-14.2,20.9c-5.1,5.4-10.7,10.1-16.9,14.1c-1.8,1.1-2.5,2.6-1.8,4.6
	c0.1,0.2,0.1,0.4,0.1,0.6c0.2,1.4,0.9,3.1-0.7,3.7c-1.2,0.4-2.8,0-4.1-0.5c-3.4-1.4-6.8-3.1-10.2-4.7c-3.7-1.7-7.4-3.3-11.1-4.9
	c-3.5-1.5-7-2.9-10.6-4.2c-1.3-0.5-2.7-0.9-3-2.6c-0.3-1.7,0.9-2.4,2-3.3c3.6-3,7-6.2,10.5-9.3c6.2-5.6,12.3-11.3,18.5-16.9
	c1.6-1.5,3.2-1,3.7,1.2c0.3,1.4,0.4,2.9,0.8,4.3c0.7,2.1,2.2,2.5,3.9,1.2c7.2-5.6,14.1-11.5,20.3-18.1c1.1-1.2,2.5-2.1,3.5-3.4
	c0.6-0.8,0.8-2,1.2-3C189.5,124.3,189.7,124.3,189.9,124.3z"/>
<path style="fill:#FFFFFF;" d="M151.5,11.6c0.8,0.1,1.2,0,1.6,0.2c2.7,1.3,5.4,2.6,8.1,3.9c0.5,0.2,0.9,0.7,1.4,0.8
	c4.9,1.3,8.5,4.8,12.6,7.5c5.4,3.6,9.7,8.4,13.8,13.3c2.2,2.6,4.1,5.5,6,8.3c1.2,1.7,2.6,2.3,4.6,1.9c0.8-0.2,1.6-0.2,2.4-0.3
	c2.2-0.1,3.2,1.3,2.3,3.4c-2.5,5.6-5.2,11.1-7.7,16.7c-2.4,5.5-4.6,11.1-6.9,16.6c-0.4,1-0.9,2-1.6,2.7c-1.2,1.2-2.5,0.9-3.6-0.4
	c-5.2-5.9-10.4-11.7-15.6-17.5c-3.9-4.3-7.8-8.6-11.7-12.9c-1.1-1.3-0.7-2.6,1-3c1.3-0.3,2.6-0.4,4-0.7c2.6-0.5,3.5-2.8,1.8-4.8
	c-4.3-5.1-8.6-10.2-13.1-15.1c-2.1-2.3-4.5-4.3-6.8-6.5c-0.6-0.6-1.2-1.1-0.2-1.9c1.8-1.4,3.5-2.9,5.2-4.4c0.5-0.4,0.8-0.9,1.3-1.3
	c1.5-1.3,1.7-2.7,0.5-4.3c-0.3-0.5-0.5-1.1-0.7-1.6C150.7,12,151.2,11.7,151.5,11.6z"/>
<path style="fill:#FFFFFF;" d="M523,97.9c0-12,0-23.9,0-35.9c0-4.7,0.7-5.5,5.4-5.4c3,0,6-0.1,9,0c3.2,0.1,3.9,0.8,3.9,4
	c0.1,16.1,0.2,32.1,0.3,48.2c0,3.5-0.2,7.1-0.3,10.6c-0.1,2.6,1,3.8,3.5,3.8c6.8,0,13.5,0,20.3-0.1c3.3-0.1,4.6,1,4.7,4.3
	c0.1,2.9,0,5.9,0,8.8c0,2.3-0.8,3.1-3.1,3.4c-1.1,0.1-2.3,0.1-3.4,0.1c-11.7,0-23.3,0-35,0c-0.7,0-1.3,0-2-0.1c-2.3-0.4-3-1.1-3-3.5
	c-0.1-6.4,0-12.7,0-19.1c0-6.4,0-12.7,0-19.1C523.2,97.9,523.1,97.9,523,97.9z"/>
<path style="fill:#FFFFFF;" d="M357.9,97.6c0,12.1,0.1,24.2-0.1,36.3c0,1.4-0.6,3.8-1.6,4.1c-1.8,0.7-4.1,0.6-6,0
	c-0.8-0.2-1.4-2.5-1.4-3.8c-0.1-5.5,0-11,0-16.5c0-4.2,0-8.4,0-12.6c0-3.8-0.7-4.3-4.4-4.2c-10.8,0.1-21.6,0-32.3-0.1
	c-3.2,0-4.7,1.3-4.6,4.5c0.2,9.7,0.3,19.4,0.3,29.1c0,3.3-1.1,4.1-5.2,4c-2.9,0-4.4-1.5-4.4-4.3c0.1-23.1,0.1-46.3,0.1-69.4
	c0-0.9-0.1-1.9-0.1-2.8c-0.1-2.8,1.4-4.4,4.2-4.5c3.4-0.1,5.1,1.1,5.1,3.9c0,8.6-0.1,17.1-0.1,25.7c0,1,0,2,0.2,3
	c0.4,2,1.5,2.8,3.5,2.8c11.5,0,23,0,34.6,0c1.6,0,2.5-0.7,2.8-2.2c0.2-0.9,0.2-1.9,0.2-2.8c0-8.6,0-17.3,0-25.9c0-0.8,0-1.6,0.1-2.4
	c0.3-2.2,1.1-2.8,3.4-2.7c0.2,0,0.4,0,0.6,0c4.5,0.2,4.8,0.5,4.8,5c0,11.9,0,23.8,0,35.7C357.7,97.6,357.8,97.6,357.9,97.6z"/>
<path style="fill:#FFFFFF;" d="M380.9,97.7c0-11.8,0-23.7,0-35.5c0-0.6,0-1.2,0.1-1.8c0.2-2.6,1-3.3,3.5-3.3c8.4,0,16.9,0,25.3,0
	c4.8,0,9.6,0,14.5,0c4,0,5.7,2.2,4.6,6.1c-0.3,0.9-1.4,1.7-2.3,2.1c-0.9,0.4-2.1,0.2-3.2,0.2c-9.4,0-18.9,0-28.3-0.1
	c-3.3,0-5.1,1.8-5.1,5.1c0,6,0,11.9,0,17.9c0,3.3,0.9,4.3,4.1,4.3c9.9,0,19.8-0.1,29.7-0.2c1.7,0,3.4,0.3,4.3,2c1,1.9,0.8,4-0.5,5.5
	c-0.8,0.9-2.6,1.2-4,1.2c-7,0.1-14.1-0.1-21.1-0.1c-3,0-6-0.1-9,0c-2.5,0.1-3.5,0.9-3.5,3.4c-0.1,7.3-0.1,14.6,0,21.9
	c0,2.7,1.2,3.7,4.2,3.7c4.4,0.1,8.7,0,13.1,0c6.5,0,13,0,19.5-0.1c1.6,0,2.7,0.7,2.8,2.2c0.2,1.6,0.2,3.2-0.3,4.7
	c-0.2,0.7-1.5,1.6-2.3,1.6c-14.1,0.1-28.3,0-42.4,0c-2.6,0-3.5-0.9-3.7-3.5c-0.1-1.4,0-2.8,0-4.2C381,119.8,381,108.7,380.9,97.7
	C381,97.7,381,97.7,380.9,97.7z"/>
<path style="fill:#FFFFFF;" d="M247.5,101.4c0-10.6,0-21.1,0-31.7c0-3.9-0.4-4.2-4.3-4.3c-6,0-12.1,0-18.1,0c-2.9,0-4.1-1-4.1-3.4
	c0-4,1-5.1,4.2-5.1c17.9,0,35.8,0,53.7,0c2.7,0,3.3,0.5,3.5,3.2c0.1,0.6,0.1,1.2,0.1,1.8c0,2.7-0.8,3.5-3.4,3.5
	c-6.5,0-13,0-19.5-0.1c-2.2,0-3.1,0.7-3.2,2.9c-0.1,1.8-0.1,3.6-0.1,5.4c0,20.1,0,40.3,0,60.4c0,3.5-1.1,4.3-5.8,4.3
	c-2.1,0-3.1-1.4-3.1-4.2C247.4,123.2,247.4,112.3,247.5,101.4C247.4,101.4,247.4,101.4,247.5,101.4z"/>
<path style="fill:#FFFFFF;" d="M866.7,188.1c-0.1,0.5-0.1,1.3-0.5,1.8c-0.3,0.5-1.2,1-1.6,0.9c-0.7-0.3-1.5-1-1.7-1.7
	c-0.8-2.9-1.4-5.9-1.9-8.8c-0.6-3.8-1-7.5-1.6-11.3c-0.1-0.6-0.6-1.2-0.9-1.9c-0.5,0.4-1.3,0.8-1.5,1.3c-2,4.3-4,8.5-5.8,12.8
	c-1.1,2.5-1.9,5.1-3,7.6c-0.2,0.5-0.8,1.1-1.3,1.2c-0.4,0.1-1.1-0.5-1.3-1c-0.8-1.4-1.4-2.9-2.1-4.3c-1.4-3.4-2.8-6.9-4.3-10.3
	c-0.9-2.2-1.8-4.5-2.8-6.6c-0.2-0.4-0.8-0.9-1.1-0.9c-0.4,0-0.8,0.6-1.1,1c-0.2,0.2-0.2,0.5-0.2,0.8c-1,5.7-1.9,11.3-2.9,17
	c-0.2,1.1-0.3,2.4-0.9,3.2c-0.6,0.8-1.9,1.3-2.9,1.4c-0.4,0-0.9-1.4-1.3-2.3c-0.2-0.4,0-0.9,0.1-1.4c1.3-6.5,2.7-13.1,3.9-19.6
	c0.6-3.2,0.8-6.5,1.4-9.7c0.2-1.2,1-2.3,1.5-3.5c1.1,0.9,2.7,1.6,3.3,2.8c1.6,3.3,2.6,6.8,4,10.2c1.7,4,3.5,7.9,5.3,11.8
	c0.2,0.5,1.1,1.3,1.4,1.2c0.6-0.2,1.1-0.9,1.4-1.5c1.7-3.9,3.3-7.8,4.9-11.8c1.4-3.5,2.6-7,3.9-10.5c0.1-0.4,0.2-0.8,0.4-1.1
	c0.5-0.6,1-1.3,1.7-1.5c0.4-0.1,1.3,0.7,1.5,1.3c0.7,2.3,1.4,4.7,1.9,7.2c1.4,7.9,2.6,15.8,3.9,23.7
	C866.6,186.5,866.6,187.1,866.7,188.1z"/>
<path style="fill:#FFFFFF;" d="M801.9,191.7c-7.5-0.3-13.1-3.9-16.6-10.2c-2.2-4.1-2.8-8.8-1.9-13.7c0.9-5,3.2-9,7.1-12.2
	c5-4.1,13.2-5.5,19-2.5c4,2.1,7.2,4.9,9.1,8.6c2,3.9,2.5,8.4,2,12.9c-0.6,5.4-3,9.9-7.3,13.1C810,190.2,806.2,191.8,801.9,191.7z
	 M816.4,171.6c0-6.5-3.9-14.1-11.8-15.2c-4-0.6-7.8,0.1-11,2.6c-4.7,3.7-6.2,8.9-5.6,14.7c0.7,7.7,5.8,13.3,14,13.3
	c2.6,0,5.5-0.6,7.6-2C814.2,181.9,816.3,177.1,816.4,171.6z"/>
<path style="fill:#FFFFFF;" d="M750.3,171.8c-0.4,5.4,1.9,9.7,6.3,12.9c4.1,3.1,12.5,2.6,16.3-0.9c0.6-0.6,1.6-1.3,2.4-1.2
	c1,0.1,2.1,0.7,2.8,1.4c0.2,0.2-0.4,1.7-1,2.3c-4.8,5.1-14.2,6.6-20.6,3.7c-8.2-3.8-12.7-14.8-10.5-23.1c1.2-4.5,3.2-8.3,6.9-11.2
	c5-3.9,13.1-5.8,19-2.3c1.7,1,3.4,2.1,4.9,3.3c0.8,0.7,1.8,1.7,0.6,2.9c-1.1,1-2.6,1.3-3.6,0.1c-1.8-2.1-4.2-2.6-6.6-3
	c-1.6-0.3-3.3-0.2-4.9,0C754.7,157.3,749.7,164.5,750.3,171.8z"/>
<path style="fill:#FFFFFF;" d="M734.9,188.3c0-1.4,1.1-2.5,2.6-2.4c1.5,0.1,2.6,0.7,2.6,2.4c0,1.6-1.5,3.2-2.8,3.2
	C736,191.4,734.9,189.9,734.9,188.3z"/>
</svg>
