<?xml version="1.0" encoding="utf-8"?>
<!-- Generator: Adobe Illustrator 24.1.2, SVG Export Plug-In . SVG Version: 6.00 Build 0)  -->
<svg version="1.1" id="Layer_1" xmlns="http://www.w3.org/2000/svg" xmlns:xlink="http://www.w3.org/1999/xlink" x="0px" y="0px"
	 viewBox="0 0 257 58.4" style="enable-background:new 0 0 257 58.4;" xml:space="preserve">
<style type="text/css">
	.st0{fill:#FFFFFF;}
</style>
<g>
	<path class="st0" d="M10.3,38.9c2.6,0,5.2,0,7.9,0c0.5,0,1.1,0,1.5,0.2c0.8,0.4,1.3,1.2,1.1,2.1c-1,4.4-1.9,8.8-2.9,13.1
		c-0.3,1.5-1.8,2.5-3.3,2.5c-2.8,0-5.5,0-8.3,0c-1,0-2.1-0.8-2-1.9v-0.2c0-0.7,0.2-1.5,0.4-2.2c0.8-3.6,1.6-7.3,2.4-10.9
		C7.3,40.1,8.8,38.9,10.3,38.9z M231.3,3.2c1.1-0.2,2.2-0.1,3.3-0.1c5.6,0,11.2,0,16.8,0c0.5,0,1.1,0.3,1.3,0.8c0.1,0.3,0,0.7,0,1
		c-2.4,10.7-4.9,21.4-7.3,32.2c-0.2,0.9-1.1,1.7-2.1,1.6c-1.1,0-2.2,0-3.3,0c-0.7,0-1.3-0.8-1.1-1.5c0.8-3.4,1.5-6.8,2.3-10.2
		c0.1-0.6,0.2-1.2-0.2-1.7c-0.3-0.4-0.8-0.5-1.3-0.5c-2.4,0-4.7,0-7.1,0c-0.9,0-1.5-1.1-1.1-1.9c0.9-2,2.4-3.8,4.4-4.8
		c1.9-1,4-1.1,6-1.1c0.8,0,1.6-0.6,1.7-1.4c0.5-2.1,1-4.2,1.4-6.4c0.2-0.8-0.6-1.5-1.3-1.5c-3,0-6.1,0-9.1,0c-0.8,0-1.6,0.4-2,1.1
		c-0.2,0.3-0.3,0.7-0.3,1.1c-2,8.9-4,17.8-6,26.7c-0.1,0.7-0.4,1.4-1.1,1.8c-0.4,0.3-1,0.3-1.5,0.3c-1.8,0-3.7,0-5.5,0
		c-0.7,0-1.3-0.6-1.2-1.2c0-0.3,0.1-0.5,0.1-0.8c1.7-7.5,3.4-15,5.1-22.5c0.5-2.1,0.8-4.4,1.9-6.3C225.8,5.4,228.4,3.6,231.3,3.2z
		 M200.8,7.8c-0.8,0.2-1.4,0.8-1.6,1.5c-1.5,6.9-3.1,13.8-4.7,20.7c-0.2,1-0.6,2-0.6,3.1c0,0.6,0.7,1.1,1.3,1.1c2.9,0,5.8,0,8.7,0
		c0.4,0,0.8,0,1.1-0.1c0.7-0.2,1.3-0.8,1.4-1.6c0.4-2,0.9-4,1.3-6.1c0.1-0.7-0.3-1.6-1.1-1.6c-2.5-0.1-5,0-7.5,0
		c-0.7,0-1.5-0.6-1.4-1.4c0.2-1.2,0.9-2.2,1.7-3.1c1.7-2.1,4.5-3.2,7.1-3.3c0.9,0,2,0.1,2.8-0.4c0.4-0.2,0.7-0.6,0.8-1.1
		c0.4-1.8,0.9-3.7,1.3-5.6c0.1-0.6,0.3-1.2,0-1.7c-0.4-0.6-1.1-0.6-1.7-0.6C206.8,7.8,203.8,7.6,200.8,7.8z M197.8,3.3
		c1.5-0.2,3-0.1,4.5-0.2c5.2,0,10.5,0,15.7,0c0.7,0,1.3,0.6,1.3,1.3c0,0.3-0.1,0.6-0.2,0.9c-0.6,2.6-1.1,5.2-1.7,7.7
		c-0.3,1.3-0.7,2.6-1.3,3.9c-0.8,1.8-2.4,3.1-4.2,3.8c1.4,1,2.2,2.7,2.4,4.4c0.1,1.1-0.1,2.2-0.3,3.3c-0.4,2.1-1,4.2-2.1,6.1
		c-1.5,2.6-4.4,4.2-7.4,4.3c-6.5,0-12.9,0-19.4,0c-0.6,0-1.2-0.5-1.3-1.1c0-0.4,0.1-0.8,0.2-1.2c1.7-7.6,3.5-15.2,5.1-22.7
		c0.3-1.4,0.5-2.8,1-4.1c0.7-1.7,1.7-3.3,3.2-4.4C194.6,4.1,196.2,3.5,197.8,3.3z M164.3,3.2c1.1-0.2,2.2-0.1,3.3-0.1
		c5.6,0,11.1,0,16.7,0c0.6,0,1.1,0.3,1.4,0.8c0.1,0.3,0.1,0.6,0,0.9c-2.3,10.4-4.7,20.8-7,31.2c-0.2,0.8-0.3,1.8-1.1,2.3
		c-0.5,0.4-1.3,0.4-1.9,0.4c-0.9,0-1.9,0.1-2.8,0c-0.6-0.1-1-0.8-0.9-1.4c2-8.9,4.1-17.8,6.1-26.8c0.1-0.6,0.3-1.1,0.2-1.7
		c0-0.3-0.2-0.7-0.5-0.8c-0.9-0.6-2.3,0-2.6,1.1c-1.1,4.7-2.1,9.5-3.2,14.2c-0.3,1-1.4,1.6-2.4,1.6c-1-0.1-2,0-2.9-0.1
		c-0.7-0.1-1.3-0.8-1.1-1.5c1-4.6,2.1-9.3,3.1-13.9c0.1-0.5,0-1.1-0.5-1.4c-0.8-0.4-2-0.2-2.5,0.7c-0.3,0.5-0.4,1.1-0.5,1.6
		c-2,8.9-4.1,17.9-6.1,26.8c-0.2,0.9-1.1,1.7-2.1,1.7c-2,0-4,0-5.9,0c-0.7,0-1.3-0.8-1.1-1.5c2-8.9,4-17.8,6-26.6
		c0.6-2.2,1.9-4.3,3.7-5.7C161.2,4,162.8,3.4,164.3,3.2z M130.8,3.1c1.4-0.1,2.8,0,4.1-0.1c5.2,0,10.4,0,15.6,0c0.5,0,1,0.4,1.2,0.8
		c0.1,0.6-0.1,1.3-0.2,1.9c-2.3,10.3-4.7,20.6-7,30.9c-0.1,0.9-0.9,1.8-1.8,1.9c-1.2,0.1-2.3,0-3.5,0c-0.8,0.1-1.4-0.8-1.2-1.6
		c0.7-3,1.3-5.9,2-8.9c0.2-0.8,0.5-1.5,0.4-2.3c-0.1-0.6-0.7-1.1-1.3-1.1c-2.4,0-4.9,0-7.3,0c-0.8,0-1.4-1-1.1-1.8
		c1-2.6,3.3-4.7,5.9-5.5c1.5-0.5,3.1-0.5,4.6-0.5c0.8,0,1.5-0.6,1.7-1.4c0.5-2.1,1-4.3,1.4-6.4c0.2-0.8-0.5-1.5-1.3-1.5
		c-3.1,0-6.1,0-9.2,0c-1,0-1.9,0.7-2.1,1.6c-2.1,9.2-4.2,18.5-6.3,27.7c-0.2,0.9-1.1,1.7-2,1.7c-1.9,0-3.9,0-5.8,0
		c-0.8,0.1-1.5-0.8-1.3-1.6c1.9-8.3,3.8-16.6,5.7-24.9c0.3-1.2,0.5-2.4,1.1-3.5c0.7-1.5,1.8-2.9,3.2-3.9
		C127.5,3.9,129.1,3.3,130.8,3.1z M103.1,3.2c0.4-0.1,0.7-0.1,1.1-0.1c1.8,0,3.5,0,5.3,0c0.8,0,1.5,0.7,1.3,1.5
		c-1.7,8-3.6,15.9-5.4,23.9c-0.1,0.5-0.3,1.1-0.1,1.7c0.1,0.4,0.5,0.7,1,0.7c2.4,0,4.9,0,7.3,0c0.9,0,1.7,0.9,1.4,1.7
		c-0.7,1.7-1.8,3.2-3.3,4.3c-1.6,1.2-3.7,1.7-5.7,1.8c-3.5,0-7,0-10.4,0c-0.8,0-1.5-0.8-1.3-1.5c2.4-10.8,5-21.6,7.4-32.5
		C101.8,4,102.4,3.4,103.1,3.2z M74.5,3.2c0.9-0.2,1.8-0.1,2.7-0.1c5.8,0,11.6,0,17.4,0c0.6,0,1.2,0.4,1.3,1C96,4.6,95.8,5,95.7,5.5
		c-2.3,10.2-4.6,20.4-6.9,30.5c-0.1,0.7-0.2,1.4-0.7,2c-0.4,0.4-1,0.7-1.6,0.7c-1.1,0-2.2,0-3.3,0c-0.8-0.1-1.3-0.9-1.1-1.6
		c0.8-3.5,1.5-6.9,2.4-10.4c0.2-0.8-0.2-1.8-1.1-1.9c-2.5-0.1-5,0-7.5,0c-0.8-0.1-1.4-1-1.1-1.8c0.6-1.7,1.8-3.1,3.2-4.1
		c1.3-0.9,2.7-1.5,4.3-1.7c1-0.1,2-0.2,3-0.2c0.8,0,1.5-0.6,1.7-1.4c0.4-1.9,0.9-3.9,1.3-5.8c0.1-0.5,0.2-1-0.1-1.4
		c-0.3-0.5-0.9-0.7-1.5-0.7c-3,0-6.1,0-9.1,0c-0.9,0.1-1.7,0.8-1.9,1.7c-2.1,9.2-4.2,18.4-6.2,27.6c-0.2,0.9-1.1,1.7-2.1,1.7
		c-2,0-4,0-6,0c-0.7,0-1.3-0.8-1.2-1.5c1.9-8.4,3.8-16.7,5.7-25.1c0.3-1.2,0.5-2.3,1-3.4c0.6-1.2,1.4-2.4,2.4-3.3
		C71,4.2,72.7,3.5,74.5,3.2z M50.7,3.2c0.3-0.1,0.6-0.1,0.9-0.1c2.8,0,5.7,0,8.5,0c1.1,0,2,1,1.9,2c0,0.3-0.1,0.6-0.2,1
		c-0.8,3.7-1.6,7.3-2.5,11c-0.5,2.2-1.7,4.1-3.4,5.5c-2.4,2-5.3,3.4-8.3,4.3c-2.4,0.8-4.9,1.3-7.4,1.8c-0.2,0.1-0.5,0.1-0.7,0.3
		c-0.1,0.2,0.1,0.5,0.3,0.5c0.7,0.2,1.4,0.2,2.1,0.3c2.2,0.4,4.4,1,6.4,2.1c1.1,0.6,2.2,1.4,3,2.3c1.6,1.8,2.5,4.3,2.1,6.7
		c-0.7,4.4-1.9,8.7-2.8,13.1c-0.2,1.1-1.1,2-2.1,2.4c-0.6,0.3-1.4,0.2-2,0.2c-2.6,0-5.2,0-7.7,0c-1.1,0-2.2-1.1-1.9-2.3
		c0.6-2.9,1.3-5.7,1.9-8.5c0.3-1.6,0.6-3.2,0.4-4.8c-0.3-1.4-0.7-3-1.8-4c-1.4-1.1-2.9-2.1-4.7-2.5c-1.6-0.5-3.3-0.6-4.8-1.3
		c-0.6-0.3-1.3-0.7-1.7-1.2c-0.9-1.2-1-3-0.2-4.3c0.4-0.7,1.1-1.1,1.8-1.5c1.3-0.6,2.7-0.8,4.1-1c2.8-0.4,5.6-0.8,8.1-2.1
		c1.7-0.8,3.4-1.9,4.4-3.5c0.3-0.5,0.6-1.1,0.8-1.8c1-4.1,1.9-8.3,2.8-12.4C48.5,4.4,49.6,3.5,50.7,3.2z M17.9,3.2
		c0.5-0.1,1-0.1,1.5-0.1c2.6,0,5.3,0,8,0c1.1,0,2.1,1.2,1.8,2.3c-1,4.4-2,8.8-2.9,13.1C25.9,19.9,24.5,21,23,21c-2.7,0-5.4,0-8.2,0
		c-0.8,0-1.6-0.3-2-1c-0.3-0.5-0.3-1.1-0.2-1.6c0.9-4.1,1.8-8.2,2.7-12.3c0.1-0.4,0.2-0.8,0.3-1.2C16.1,4.1,17,3.4,17.9,3.2z"/>
	<path class="st0" d="M193.4,44.3c2.9,0,5.7,0,8.6,0c-0.1,0.7-0.3,1.3-0.4,2c-2.1,0-4.2,0-6.3,0c-0.2,1.1-0.4,2.1-0.6,3.2
		c2,0,4,0,6,0c-0.1,0.7-0.3,1.4-0.4,2.1c-2,0-4,0-6,0c-0.2,1.1-0.4,2.2-0.7,3.3c2.1,0,4.3,0,6.4,0c-0.1,0.7-0.3,1.3-0.4,2
		c-2.9,0-5.8,0-8.7,0C191.8,52.6,192.6,48.5,193.4,44.3z M144.7,56.8c0.8-4.2,1.7-8.4,2.5-12.6c0.8,0,1.6,0,2.4,0
		c0.8,3.2,1.6,6.4,2.3,9.5c2-3.2,4.1-6.3,6.1-9.5c0.8,0,1.6,0,2.3,0c-0.9,4.2-1.7,8.4-2.5,12.6c-0.7,0-1.4,0-2.2,0
		c0.6-2.9,1.2-5.8,1.7-8.7c-1.7,2.9-3.4,5.8-5.2,8.8c-0.7,0-1.3,0-2,0c-0.6-2.9-1.2-5.8-1.7-8.7c-0.6,2.9-1.2,5.8-1.7,8.7
		C146.1,56.8,145.4,56.8,144.7,56.8z M99.3,56.8c2.6-4.2,5.2-8.4,7.8-12.6c0.8,0,1.7,0,2.5,0c1,4.2,2,8.4,2.9,12.6
		c-0.8,0-1.6,0-2.4,0c-0.2-1.1-0.5-2.3-0.7-3.4c-1.4,0-2.8,0-4.2,0c0.4-0.7,0.8-1.3,1.2-2c0.9,0,1.7,0,2.6,0c-0.4-1.5-0.7-3.1-1-4.6
		c-0.6,0.9-1.2,1.9-1.8,2.9c-1.5,2.4-2.9,4.8-4.4,7.2C100.9,56.8,100.1,56.8,99.3,56.8z M235.8,44.9c2.5-1.1,5.3-0.9,7.8-0.2
		c-0.1,0.7-0.3,1.4-0.4,2.1c-1.9-0.7-4-0.9-5.9-0.4c-0.8,0.3-1.5,1-1.5,1.9c-0.1,0.4,0.2,1,0.7,1c1.3,0.2,2.7-0.1,4,0.2
		c0.6,0.1,1.3,0.4,1.7,1c0.4,0.5,0.4,1.2,0.3,1.9c-0.1,1.1-0.5,2.1-1.3,2.9c-0.9,0.9-2.1,1.3-3.2,1.4c-1.9,0.3-3.8,0-5.6-0.5
		c0.1-0.7,0.3-1.4,0.4-2.1c1.4,0.5,2.9,0.7,4.3,0.7c0.7,0,1.4-0.1,2-0.4c0.7-0.4,1.2-1.1,1.1-1.9c0-0.4-0.3-0.8-0.7-0.9
		c-1.4-0.3-2.8,0.1-4.2-0.3c-0.8-0.2-1.5-0.7-1.7-1.5C233.1,48,234,45.8,235.8,44.9z M64.4,44.3c1.9-0.3,3.8-0.2,5.6,0.4
		c-0.2,0.7-0.3,1.4-0.4,2.1c-1.6-0.7-3.4-0.9-5.1-0.5c-0.9,0.2-1.8,0.6-2.4,1.3c-1,1.2-1.4,2.8-1.4,4.3c0,0.9,0.4,1.9,1.2,2.3
		c1.1,0.7,2.5,0.6,3.8,0.3c0.3-1.2,0.5-2.5,0.7-3.7c0.8,0,1.5,0,2.3,0c-0.4,1.8-0.7,3.5-1.1,5.3c-2.2,0.7-4.6,0.9-6.8,0.2
		c-1.7-0.5-2.7-2.3-2.6-4c0-2,0.5-4.2,1.8-5.8C61.1,45.3,62.8,44.6,64.4,44.3z M15.8,24.9c1.6-0.3,3.3,0.3,4.5,1.4
		c0.9,0.9,1.5,2.1,1.6,3.4c0.1,1.6-0.6,3.2-1.8,4.2c-0.8,0.7-1.7,1.1-2.7,1.2c-2,0.3-4.1-0.8-5.1-2.5c-0.7-1.1-0.8-2.5-0.6-3.7
		C11.9,26.9,13.7,25.2,15.8,24.9z"/>
</g>
</svg>
