<?xml version="1.0" encoding="utf-8"?>
<!-- Generator: Adobe Illustrator 24.1.2, SVG Export Plug-In . SVG Version: 6.00 Build 0)  -->
<svg version="1.1" id="Layer_1" xmlns="http://www.w3.org/2000/svg" xmlns:xlink="http://www.w3.org/1999/xlink" x="0px" y="0px"
	 viewBox="0 0 192 42.3" style="enable-background:new 0 0 192 42.3;" xml:space="preserve">
<style type="text/css">
	.st0{fill:#FFFFFF;}
	.st1{fill:#DA0E11;}
	.st2{fill:#F6EB1F;}
	.st3{fill:#F0C46D;}
	.st4{fill:none;}
	.st5{clip-path:url(#SVGID_2_);fill:url(#SVGID_3_);}
	.st6{clip-path:url(#SVGID_5_);fill:url(#SVGID_6_);}
	.st7{clip-path:url(#SVGID_8_);fill:url(#SVGID_9_);}
	.st8{fill:#FFD782;}
	.st9{fill:#DA1C4B;}
	.st10{fill:#8EC13F;}
	.st11{fill:#F9BB4B;}
	.st12{fill:#FFF69A;}
	.st13{fill:#E5E4CF;}
	.st14{fill:#143441;}
	.st15{clip-path:url(#SVGID_11_);fill:#F4F4E6;}
	.st16{clip-path:url(#SVGID_11_);fill:#FFFFFF;}
	.st17{fill:url(#SVGID_12_);}
	.st18{fill:url(#SVGID_13_);}
</style>
<g>
	<g>
		<g>
			<path class="st0" d="M53.9,26c0.2,0.4,0.4,1.2,0.4,1.3c0-0.1,0.3-0.9,0.5-1.3l2.7-5.8c0.2-0.4,0.3-0.6,0.7-0.6h2.2
				c0.4,0,0.7,0.2,0.5,0.6L56,30.2v6c0,0.4-0.2,0.6-0.6,0.6h-2.2c-0.5,0-0.6-0.2-0.6-0.6v-5.6l-4.8-10.5c-0.2-0.4,0-0.6,0.4-0.6h2.5
				c0.4,0,0.6,0.3,0.8,0.6L53.9,26z"/>
			<path class="st0" d="M65.7,32.3c0,1.3,1,1.9,2.7,1.9s2.8-0.6,2.8-1.9V20.2c0-0.5,0.2-0.7,0.6-0.7H74c0.5,0,0.6,0.2,0.6,0.7v12.7
				c0,2.1-1.6,4.1-6.2,4.1c-4.6,0-6.2-2-6.2-4.1V20.2c0-0.5,0.2-0.7,0.6-0.7h2.2c0.4,0,0.6,0.2,0.6,0.7V32.3z M67.9,17.6
				c0,0.5-0.2,0.6-0.6,0.6H66c-0.4,0-0.6-0.2-0.6-0.6v-2.4c0-0.5,0.2-0.7,0.6-0.7h1.2c0.5,0,0.6,0.2,0.6,0.7V17.6z M71.4,17.6
				c0,0.5-0.2,0.6-0.6,0.6h-1.2c-0.5,0-0.6-0.2-0.6-0.6v-2.4c0-0.5,0.2-0.7,0.6-0.7h1.2c0.4,0,0.6,0.2,0.6,0.7V17.6z"/>
			<path class="st0" d="M90.1,36.2c0.2,0.3,0.1,0.6-0.3,0.6h-2.8c-0.4,0-0.7-0.3-0.9-0.6l-4.8-6.7h-0.4v6.7c0,0.4-0.2,0.6-0.6,0.6
				H78c-0.5,0-0.6-0.2-0.6-0.6v-16c0-0.4,0.2-0.6,0.6-0.6h2.2c0.5,0,0.6,0.2,0.6,0.6V27h0.4l4.5-6.8c0.2-0.4,0.6-0.6,1-0.6h2.4
				c0.5,0,0.5,0.3,0.3,0.6L84.1,28L90.1,36.2z"/>
			<path class="st0" d="M99.4,23.9c0-1.2-0.8-1.8-2.5-1.8c-1.7,0-2.5,0.6-2.5,1.8v0.4c0,0.9,0.6,1.2,1,1.4l4.4,1.6
				c1.7,0.6,3,1.8,3,3.7v2c0,2.1-1.5,4.1-6.1,4.1c-4.5,0-6.1-2-6.1-4.1v-1.6c0-0.5,0.2-0.7,0.6-0.7h2.1c0.5,0,0.6,0.2,0.6,0.7v1.1
				c0,1.2,1,1.8,2.7,1.8c1.7,0,2.7-0.6,2.7-1.8v-0.8c0-1-1-1.5-2.2-1.9l-3.9-1.5c-1.2-0.5-2.3-1.8-2.3-3.3v-1.5
				c0-2.1,1.3-4.1,5.8-4.1c4.5,0,5.9,2,5.9,4.1v1c0,0.4-0.2,0.6-0.6,0.6H100c-0.4,0-0.6-0.2-0.6-0.6V23.9z"/>
			<path class="st0" d="M105.8,36.8c-0.5,0-0.6-0.2-0.6-0.7v-16c0-0.5,0.2-0.7,0.6-0.7h8.7c0.4,0,0.6,0.2,0.6,0.6v1.6
				c0,0.5-0.2,0.6-0.6,0.6h-5.9v4.1h5.4c0.5,0,0.7,0.2,0.7,0.6v1.5c0,0.4-0.2,0.6-0.7,0.6h-5.4V34h6.1c0.5,0,0.6,0.2,0.6,0.6v1.6
				c0,0.5-0.2,0.6-0.6,0.6H105.8z"/>
			<path class="st0" d="M130.3,36.2c0.2,0.3,0.1,0.6-0.3,0.6h-2.8c-0.4,0-0.7-0.3-0.9-0.6l-4.8-6.7H121v6.7c0,0.4-0.2,0.6-0.6,0.6
				h-2.2c-0.5,0-0.6-0.2-0.6-0.6v-16c0-0.4,0.2-0.6,0.6-0.6h2.2c0.5,0,0.6,0.2,0.6,0.6V27h0.4l4.5-6.8c0.2-0.4,0.6-0.6,1-0.6h2.4
				c0.5,0,0.5,0.3,0.3,0.6l-5.3,7.9L130.3,36.2z"/>
			<path class="st0" d="M139.5,34h5.7c0.4,0,0.6,0.2,0.6,0.6v1.6c0,0.5-0.2,0.6-0.6,0.6h-8.6c-0.4,0-0.5-0.2-0.5-0.7v-16
				c0-0.5,0.2-0.7,0.6-0.7h2.2c0.5,0,0.6,0.2,0.6,0.7V34z"/>
			<path class="st0" d="M151,36.2c0,0.5-0.2,0.7-0.6,0.7h-2.2c-0.5,0-0.6-0.2-0.6-0.7v-16c0-0.5,0.2-0.7,0.6-0.7h2.2
				c0.5,0,0.6,0.2,0.6,0.7V36.2z M151,17.6c0,0.5-0.2,0.6-0.6,0.6h-2.2c-0.5,0-0.6-0.2-0.6-0.6v-2.1c0-0.4,0.2-0.6,0.6-0.6h2.2
				c0.5,0,0.6,0.2,0.6,0.6V17.6z"/>
			<path class="st0" d="M169.4,36.2c0,0.4-0.2,0.6-0.6,0.6h-2.1c-0.5,0-0.6-0.2-0.6-0.6v-9.7c0,0.1-0.5,1.6-0.7,2.3l-1.9,4.7
				c-0.2,0.4-0.4,0.6-0.8,0.6h-1.8c-0.4,0-0.7-0.3-0.8-0.6l-2.2-5.1c-0.3-0.5-0.6-1.7-0.6-1.9v9.6c0,0.4-0.2,0.6-0.6,0.6h-2
				c-0.5,0-0.6-0.2-0.6-0.6v-16c0-0.4,0.2-0.6,0.6-0.6h2c0.3,0,0.5,0.1,0.6,0.4l3.9,8.9c0.3,0.7,0.6,1.8,0.6,1.8s0.3-1,0.7-1.8
				l3.8-9c0.1-0.2,0.3-0.3,0.6-0.3h2.1c0.5,0,0.6,0.2,0.6,0.6V36.2z"/>
			<path class="st0" d="M175.7,36.2c0,0.5-0.2,0.7-0.6,0.7h-2.2c-0.5,0-0.6-0.2-0.6-0.7v-16c0-0.5,0.2-0.7,0.6-0.7h2.2
				c0.5,0,0.6,0.2,0.6,0.7V36.2z M175.7,17.6c0,0.5-0.2,0.6-0.6,0.6h-2.2c-0.5,0-0.6-0.2-0.6-0.6v-2.1c0-0.4,0.2-0.6,0.6-0.6h2.2
				c0.5,0,0.6,0.2,0.6,0.6V17.6z"/>
			<path class="st0" d="M188.5,19.5c0.4,0,0.6,0.2,0.6,0.6v1.6c0,0.5-0.2,0.6-0.6,0.6h-3.6v13.8c0,0.5-0.2,0.7-0.6,0.7H182
				c-0.5,0-0.6-0.2-0.6-0.7V22.4h-3.6c-0.5,0-0.6-0.2-0.6-0.6v-1.6c0-0.5,0.2-0.6,0.6-0.6H188.5z"/>
		</g>
	</g>
	<g>
		<g>
			<g>
				<path class="st0" d="M40.6,27.6c-0.5,0-1,0.1-1.4,0.2v-0.2h0.7c0.4,0,0.7-0.3,0.7-0.7v-2.8c0-0.4-0.3-0.7-0.7-0.7h-0.7v-2.1
					c0-0.2-0.1-0.3-0.1-0.4c1.7-1.3,2.5-3.3,2.2-5.4c-0.3-2.1-1.8-3.8-3.7-4.5c-2-0.7-4.2-0.2-5.7,1.2c-1.5,1.4-2.2,3.6-1.7,5.6h-3
					v-7.1h2.1c0.3,0,0.5-0.2,0.7-0.4s0-0.6-0.2-0.8l-5.7-5.7c-0.1-0.1-0.3-0.2-0.5-0.2c-0.2,0-0.4,0.1-0.5,0.2l-5.7,5.7
					c-0.2,0.2-0.3,0.5-0.2,0.8c0.1,0.3,0.4,0.4,0.7,0.4H20v9.9h-1.4c-0.4,0-0.7,0.3-0.7,0.7v2.8c0,0.4,0.3,0.7,0.7,0.7h0.7v1.4h-0.7
					c-0.4,0-0.7,0.3-0.7,0.7v0.7c-1,0-2,0.3-2.8,0.8v-0.8h0.7c0.4,0,0.7-0.3,0.7-0.7v-2.8c0-0.4-0.3-0.7-0.7-0.7H5.9
					c-0.4,0-0.7,0.3-0.7,0.7v2.1H4.5c-0.4,0-0.7,0.3-0.7,0.7v2.8c0,0.4,0.3,0.7,0.7,0.7h0.7v1.4H4.5c-0.4,0-0.7,0.3-0.7,0.7v2.8
					c0,0.4,0.3,0.7,0.7,0.7h0.7v2.1c0,0.4,0.3,0.7,0.7,0.7h34.7c3.1,0,5.7-2.5,5.7-5.7S43.7,27.6,40.6,27.6L40.6,27.6z M39.2,24.8
					v1.4h-8.5v-1.4H39.2z M29.3,29v-1.4h8.5v0.8c-0.3,0.2-0.6,0.4-0.9,0.7H29.3z M35.7,30.5c-0.3,0.4-0.5,0.9-0.6,1.4h-4.4v-1.4
					H35.7z M23.4,31.9c-0.1-0.5-0.3-1-0.6-1.4h6.4v1.4H23.4z M27.8,33.3v1.4h-4.4c0.1-0.5,0.2-0.9,0.2-1.4H27.8z M20.7,26.2v-1.4
					h8.5v1.4H20.7z M29.3,23.4V22h8.5v1.4H29.3z M35.6,12c1.7,0,3.3,1,3.9,2.6c0.7,1.6,0.3,3.4-0.9,4.6c-1.2,1.2-3,1.6-4.6,0.9
					c-1.6-0.7-2.6-2.2-2.6-3.9C31.4,13.9,33.3,12,35.6,12L35.6,12z M30.7,19.1c0.3,0.5,0.7,1,1.2,1.4h-7.6v-1.4H30.7z M19.6,9.2l4-4
					l4,4h-1.1c-0.4,0-0.7,0.3-0.7,0.7v7.8h-2.1c-0.4,0-0.7,0.3-0.7,0.7v2.1h-1.4V9.9c0-0.4-0.3-0.7-0.7-0.7H19.6z M19.3,22h8.5v1.4
					h-8.5V22z M19.3,27.6h8.5V29h-6.2c-0.7-0.6-1.5-1-2.3-1.2V27.6z M6.6,24.8h8.5v1.4H6.6V24.8z M5.2,27.6h8.5V29H5.2V27.6z
					 M13,30.5c-0.3,0.4-0.5,0.9-0.6,1.4H6.6v-1.4H13z M5.2,34.7v-1.4h7.1c0,0.5,0.1,1,0.2,1.4H5.2z M6.6,37.5v-1.4H13
					c0.3,0.5,0.7,1,1.2,1.4H6.6z M17.9,37.5c-1.7,0-3.3-1-3.9-2.6c-0.7-1.6-0.3-3.4,0.9-4.6c1.2-1.2,3-1.6,4.6-0.9
					c1.6,0.7,2.6,2.2,2.6,3.9C22.2,35.6,20.3,37.5,17.9,37.5L17.9,37.5z M29.3,37.5h-7.6c0.5-0.4,0.9-0.9,1.2-1.4h6.4V37.5z
					 M29.3,34.7v-1.4h5.7c0,0.5,0.1,1,0.2,1.4H29.3z M30.7,37.5v-1.4h5c0.3,0.5,0.7,1,1.2,1.4H30.7z M40.6,37.5
					c-1.7,0-3.3-1-3.9-2.6c-0.7-1.6-0.3-3.4,0.9-4.6c1.2-1.2,3-1.6,4.6-0.9c1.6,0.7,2.6,2.2,2.6,3.9C44.8,35.6,42.9,37.5,40.6,37.5
					L40.6,37.5z M40.6,37.5"/>
			</g>
			<g>
				<g>
					<g>
						<path class="st2" d="M43.4,33.3c0,1.7-0.9,2.9-3,2.9c-0.1,0-0.3,0-0.4,0v-2.7l-0.8,0.3v-0.5l0.8-0.3v-0.5l-0.8,0.3v-0.5
							l0.8-0.3v-1.8h0.8v1.5l1.6-0.6v0.5l-1.6,0.6v0.5l1.6-0.6v0.5l-1.6,0.6v2.4c1,0,1.9-0.6,1.9-2.2H43.4z"/>
					</g>
				</g>
			</g>
			<g>
				<g>
					<g>
						<path class="st2" d="M37.7,16.4c0,1.7-0.9,2.9-3,2.9c-0.1,0-0.3,0-0.4,0v-2.7l-0.8,0.3v-0.5l0.8-0.3v-0.5l-0.8,0.3v-0.5
							l0.8-0.3v-1.8h0.8v1.5l1.6-0.6v0.5l-1.6,0.6v0.5l1.6-0.6v0.5l-1.6,0.6v2.4c1,0,1.9-0.6,1.9-2.2H37.7z"/>
					</g>
				</g>
			</g>
			<g>
				<g>
					<g>
						<path class="st2" d="M20.5,33.3c0,1.7-0.9,2.9-3,2.9c-0.1,0-0.3,0-0.4,0v-2.7l-0.8,0.3v-0.5l0.8-0.3v-0.5l-0.8,0.3v-0.5
							l0.8-0.3v-1.8h0.8v1.5l1.6-0.6v0.5l-1.6,0.6v0.5l1.6-0.6v0.5l-1.6,0.6v2.4c1,0,1.9-0.6,1.9-2.2H20.5z"/>
					</g>
				</g>
			</g>
		</g>
	</g>
</g>
</svg>
