<?xml version="1.0" encoding="utf-8"?>
<!-- Generator: Adobe Illustrator 26.1.0, SVG Export Plug-In . SVG Version: 6.00 Build 0)  -->
<svg version="1.1" id="Layer_1" xmlns="http://www.w3.org/2000/svg" xmlns:xlink="http://www.w3.org/1999/xlink" x="0px" y="0px"
	 viewBox="0 0 1056.6 202" style="enable-background:new 0 0 1056.6 202;" xml:space="preserve">
<g id="Livello_1_1_">
</g>
<g>
	<path style="fill:#FFFFFF;" d="M251.5,71.5h17l-0.1,32.1h0.8l13.6-32.1h17.3l-23.8,50h-22.5L251.5,71.5z"/>
	<path style="fill:#FFFFFF;" d="M292.3,113.3c0-2.6,0.3-6,1.2-10.2c3.1-15.1,7-19.2,14.4-19.2c4,0,7.7,0.5,9.6,4.2h0.7l1.2-3.7h15.1
		l-7.8,37.1h-15l0.7-4.1h-0.8c-2.6,3.9-6,4.7-9.3,4.7C295.5,122.1,292.3,120.1,292.3,113.3z M313.8,108.2c0.7-2,2.3-9,2.3-10.8
		c0-1.5-0.5-1.6-2.4-1.6c-3,0-3.1,0.1-4.6,7.1c-0.7,2.9-0.9,4.6-0.9,5.7c0,1.4,0.7,1.5,2.5,1.5C312.7,110.1,313.2,109.9,313.8,108.2
		z"/>
	<path style="fill:#FFFFFF;" d="M344.5,67.5h15.6l-4.4,21.1h0.7c3.1-3.9,7-4.7,9.9-4.7c7,0,9,2.5,9,7.6c0,2-0.6,5.6-1.3,9.1l-4.5,21
		H354l3.9-18.6c0.5-2.3,0.9-4.6,0.9-5.5c0-1.4-0.5-1.5-1.7-1.5c-2.8,0-3,0.4-4.2,6l-4.2,19.6h-15.5L344.5,67.5z"/>
	<path style="fill:#FFFFFF;" d="M394.7,96.2c0,0.7,0.4,0.7,2.8,1l7.2,1.1c3.5,0.5,6.2,1.5,6.2,6.4c0,1.3-0.2,3.1-0.7,4.9
		c-2,9.8-6.3,11.9-13.4,12.4l-5,13.2H378v-0.4l8.4-12.9c-3.6-0.1-7.4-0.5-10-0.9l2-9.9c3.6,0.3,7.8,0.5,10,0.5c3.6,0,5.6,0,6.6-0.4
		c0.8-0.3,1-0.8,1-1.7c0-0.5-0.6-0.7-3.3-1.1l-8.4-1.2c-3.4-0.5-4.6-2.5-4.6-5.7c0-1.7,0.4-3.9,0.9-6.3c2.3-10.5,8.1-11.4,18.7-11.4
		c5.2,0,11.2,0.4,14.2,1l-2,9.9c-4.1-0.3-8.1-0.5-9.7-0.5c-3.6,0-5.5,0.1-6.3,0.5C394.8,95,394.7,95.5,394.7,96.2z"/>
	<path style="fill:#FFFFFF;" d="M421.2,84.4H437l-7.8,37.1h-15.8L421.2,84.4z M424.8,67.5h15.8l-2.3,11h-15.8L424.8,67.5z"/>
	<path style="fill:#FFFFFF;" d="M465.5,71.5h26c8.2,0,13.2,3.3,13.2,9.6c0,1.1-0.1,2.3-0.4,3.6c-1.6,7-5.2,9.8-11.5,11.2v0.3
		c4.3,1.2,7,2.8,7,8.2c0,1.2-0.1,2.7-0.5,4.4c-1.9,8.5-5.9,12.8-17.8,12.8h-26.5L465.5,71.5z M477.5,109.8c3.9,0,4.4-0.4,5.2-4.2
		c0.2-1.1,0.4-1.9,0.4-2.5c0-1.6-0.9-1.9-3.8-1.9h-3.5l-1.8,8.6H477.5z M481.5,91.2c3.9,0,4.4-0.4,5.2-4c0.2-1,0.4-1.7,0.4-2.3
		c0-1.5-1-1.7-3.9-1.7h-3.5l-1.7,8.1H481.5z"/>
	<path style="fill:#FFFFFF;" d="M503.3,113.3c0-2.6,0.3-6,1.2-10.2c3.1-15.1,7-19.2,14.4-19.2c4,0,7.7,0.5,9.6,4.2h0.7l1.2-3.7h15.1
		l-7.8,37.1h-15l0.7-4.1h-0.8c-2.6,3.9-6,4.7-9.3,4.7C506.5,122.1,503.3,120.1,503.3,113.3z M524.7,108.2c0.7-2,2.3-9,2.3-10.8
		c0-1.5-0.5-1.6-2.4-1.6c-3,0-3.1,0.1-4.6,7.1c-0.7,2.9-0.9,4.6-0.9,5.7c0,1.4,0.7,1.5,2.5,1.5C523.6,110.1,524.1,109.9,524.7,108.2
		z"/>
	<path style="fill:#FFFFFF;" d="M550.3,114.1c0-2.2,0.4-4.9,1.2-8.6l2.2-10.2h-6.1l2.3-10.9h6.1l2.3-10.8h15.8l-2.3,10.8h7.4
		L577,95.3h-7.4l-2.5,12c-0.1,0.7-0.3,1.3-0.3,2c0,1.7,1.5,2.2,7.1,2.2l-2.1,10C555.3,121.5,550.3,121.3,550.3,114.1z"/>
	<path style="fill:#FFFFFF;" d="M584.9,84.4h15.8l-7.8,37.1h-15.8L584.9,84.4z"/>
	<path style="fill:#FFFFFF;" d="M621.1,110.9c0-3.7,1.2-8.6,2.4-15.1c3.9-20.2,5.3-24.9,26.2-24.9c15.5,0,20.1,2.9,20.1,11.3
		c0,3.8-0.9,8.6-2.3,15c-4.7,20.3-5.4,24.9-26,24.9C625.8,122.1,621.1,119.1,621.1,110.9z M650.6,96.5c1.2-5.5,1.8-8.9,1.8-10.8
		c0-2.6-1.2-2.7-4.1-2.7c-5.1,0-5.2,0.3-7.9,13.4c-1.2,5.7-2,9-2,10.9c0,2.5,1.2,2.5,4.1,2.5C647.6,109.9,647.7,109.6,650.6,96.5z"
		/>
	<path style="fill:#FFFFFF;" d="M669.2,135.4l2-9.8h9.6c8,0,8.2,0,9.4-5.6c0.3-1.2,0.5-2.5,0.8-3.8h-0.7c-3.1,3.9-6.8,4.7-9.5,4.7
		c-7.2,0-9.4-2.8-9.4-7.8c0-1.9,0.3-4.1,0.9-6.6l4.7-22h15.6l-3.9,18.4c-0.5,2.4-0.8,3.9-0.8,4.7c0,1.3,0.6,1.3,2,1.3
		c2.5,0,2.7-0.1,4-6l3.9-18.4h15.6l-7,33.1c-2.6,12.4-3.6,19-23.8,19C677.6,136.4,672.1,136,669.2,135.4z"/>
	<path style="fill:#FFFFFF;" d="M714,114.2c0-2,0.7-5.6,1.4-9.1l4.4-20.7h15.5l-3.9,18.6c-0.5,2.3-0.9,4.6-0.9,5.5
		c0,1.4,0.5,1.5,1.7,1.5c2.8,0,3-0.4,4.2-6l4.2-19.6H756l-7.8,37.1h-15l0.6-4.1H733c-3.1,3.9-7.2,4.7-10,4.7
		C715.9,122.1,714,119.4,714,114.2z"/>
	<path style="fill:#FFFFFF;" d="M762.6,84.4h15l-0.6,4.1h0.7c3.1-3.9,7.2-4.7,10-4.7c7,0,9,2.5,9,7.6c0,2-0.6,5.6-1.3,9.1l-4.5,21
		h-15.5l3.9-18.6c0.5-2.3,0.9-4.6,0.9-5.5c0-1.4-0.5-1.5-1.7-1.5c-2.8,0-3,0.4-4.2,6l-4.2,19.6h-15.5L762.6,84.4z"/>
	<path style="fill:#FFFFFF;" d="M808.9,67.5h15.8l-11.4,54h-15.8L808.9,67.5z"/>
	<path style="fill:#FFFFFF;" d="M821.3,113.3c0-2.6,0.3-6,1.2-10.2c3.1-15.1,7-19.2,14.4-19.2c4,0,7.7,0.5,9.6,4.2h0.7l1.2-3.7h15.1
		l-7.8,37.1h-15l0.7-4.1h-0.8c-2.6,3.9-6,4.7-9.3,4.7C824.5,122.1,821.3,120.1,821.3,113.3z M842.7,108.2c0.7-2,2.3-9,2.3-10.8
		c0-1.5-0.5-1.6-2.4-1.6c-3,0-3.1,0.1-4.6,7.1c-0.7,2.9-0.9,4.6-0.9,5.7c0,1.4,0.7,1.5,2.5,1.5C841.7,110.1,842.2,109.9,842.7,108.2
		z"/>
	<path style="fill:#FFFFFF;" d="M870,84.4h15l-1,6.2h0.7c3.2-5.5,5.9-6.8,12.6-6.8l-2.9,13.5c-9.7,0-12,1.8-14.1,11.7l-2.7,12.4
		h-15.5L870,84.4z"/>
	<path style="fill:#FFFFFF;" d="M901.8,84.4h15.8l-7.8,37.1h-15.8L901.8,84.4z"/>
</g>
<g>
	<path style="fill:#FFFFFF;" d="M198,60.1c-1.1-14.4-30.2,0.6-66.2,1.5c6.6-0.7,14.1-1.8,20.6-3.2c-6.4-25.2-1-31.5-22.8-45.8
		c-2.1-1.5-4.9-2-7.3-0.9c-2.1,0.8-5.4,3.7-10.4,3.7c-7.5,0-11.7-7.3-17.9-3.3C73.3,25.9,77.7,33.3,72.4,55.9
		c3.7,0.8,8.4,1.6,12.2,2.2c-3.8-0.2-8.6-0.7-12.5-1.1c-0.1,0.3-0.2,0.7-0.2,1c3.9,0.9,7.8,1.7,11.8,2.4c4.7,0.8,9.3,1.5,14.1,2
		c-4.7-0.1-9.5-0.5-14.2-1C65.1,59.5,60,57,43.9,54.7c-2.6-0.4-5.2-0.6-7.9-0.8c-5.6-0.5-9.5,1.1-9.9,6.1
		C25.1,74,44.1,86.7,70.5,93.2c0-2.4-0.1-4.8,0.2-8.2c0.3,3.7,0.9,5.9,1.4,8.6c0.3,2,0.6,4,1.6,5.7c1.6,2.6,5.1,2.8,6.6,0.5
		c0.8,8.8,0.7,14.5,6.8,22.7c0.5,1.1,3.4,8,6.2,10.9c3,3.2,7.9,5.2,12.5,5.2h12.4c4.6,0,9.5-2.1,12.5-5.2c2.8-3,5.7-9.8,6.2-10.9
		c6.1-8.2,6-13.8,6.8-22.7c1.5,2.3,5.1,2.1,6.6-0.5c1.2-2.1,1.2-3.9,2.2-9c0.3-1.8,0.6-3.5,0.8-5.3c0.4,3.5,0.2,5.8,0.2,8.2
		C180,86.8,199,74,198,60.1z M78.6,52c0-1.1,0.2-2.3,0.3-3.5c0.2-1.7,0.4-3.5,0.4-5.3c-0.4,1.7-1,3.3-1.7,4.9
		c-0.3,0.8-0.7,1.6-1,2.5c0.3-2.2,0.6-4.4,0.8-6.6c0.2-1.6,0.3-3.2,0.5-4.8l0.2-2.4C79,26.3,85.7,19.1,94.6,13
		c4.4-2.8,7.5,1.9,11.7,4c4.2,2.4,8.5,2,10.6,6.1c-0.6-2.3-2-3.6-4-4.8c6.7-0.5,8.5-5.4,12.1-6c1.4-0.2,2.9,0.2,4.1,1.1
		c18.8,12.9,16.2,19.6,18.7,38.4c-0.4,0-2.4-14.1-2.8-14.1c-0.5,0.1,0.7,14.3,0.2,14.4c-0.5,0-1.1-5.9-1.5-5.9
		c-0.5,0.1-0.3,6.1-0.8,6.1C121.9,54.3,100.1,54.1,78.6,52z M128.5,103.8c0.7-0.1,1.4-0.2,1.9-0.1c4.4,1,6.1,7.5,4.6,13
		c-2.8,10.3-8.8,13.7-11.5,13.8c-1.2,0.1-2.3,0.6-3,1.5c-3.1,3.6-6.9,2.7-7.5,1.9c-0.3-0.4-0.6-1.3-0.9-1.5
		c-0.4,0.2-0.6,1.1-0.9,1.5c-0.6,0.9-4.4,1.7-7.5-1.9c-0.8-0.9-1.9-1.4-3-1.5c-2.7-0.2-8.7-3.5-11.5-13.8c-1.5-5.6,0.2-12.1,4.6-13
		c0.6-0.1,1.3,0,1.9,0c-5.1-6.8-9.6-1.6-14.7-8.6c-0.7-1-1.3-2.9-1.7-5c0.7,2.1,1.7,4,3.2,5.6c-1.1-2-1.5-4.1-1.6-6.4
		c10.8-3.1,10.6,1.6,19.5-0.6c-1,0.8-2.1,1.4-3.2,2c2-0.6,3.9-1.1,5.6-2.3c-0.5,0.6-2.4,2.5-7.2,4.5c13.4-1.3,12-7.7,16.4-7.8
		c0.7,0,1.4,0.1,1.9,0.3c0.6,8.6,4.3,12.7-1,13.7c-3.8,0.6-3.4-0.3-5.7-0.1c1.2,0.1,1.9,1.3,2.6,1.9c-0.2,0.1-0.5,0.2-0.8,0.2
		c-0.5-0.6-1.7-1.3-2.7-1.6c-1.7-0.5-2.5,0.6-2.1,1.2c-0.8-0.2-1-0.3-1-1.3c0-1.8-0.4-2.1-0.8-0.4c-0.7,2.8,1.2,3.7,5.1,4.3
		c1.2,0.2,2.2,1.1,2.4,2.3c0.2,1.4,0.1,2.2,0.7,3.2c0.7-0.7,0.5-3.7,1.3-4.2c0.6,0.9,0.1,4.9,1,5.7c0.8-0.9,0.9-2.8,1.1-4.9
		c0.1-1.1,1-1.9,2-2c4.3-0.5,6.1-1.7,5.4-4.4c-0.4-1.7-0.8-1.2-0.8,0.4c0,0.9-0.2,1.1-1,1.3c0.1-0.2,0.1-0.3,0.1-0.4
		c-0.4-1.8-3.9-0.5-4.9,0.8c-0.2-0.1-0.5-0.2-0.8-0.2c0.2-0.1,0.3-0.3,0.5-0.4c2.3-2.2,4.3-0.8,2.7-5.3c-1.4-4.2-2-6.6-2.9-9.4
		c3.2,1.7,4.9,6.6,14.9,7.2c-1.3-0.7-5-2.1-6.6-3.8c2,0.7,4,1.2,6.1,1.5c-1-0.5-1.9-1-2.8-1.6c3,0.3,6.5-0.9,5.8-0.7
		c4.6-1.3,8.2-0.8,11.4,0.1c0.2,1.3,0.2,2.7,0.1,4.1c0.6-0.9,1.1-1.8,1.5-2.8C143.1,102.5,132.6,95.6,128.5,103.8z M151,68.1
		c-6.1,3.1-12.3,5.8-18.9,7.4c-6.5,1.7-13.3,2.3-20.1,2.4c-25.1-0.2-36.5-9-53.4-16.7c6.2,1.6,12.3,3.9,18,6.9
		c-4.5-3-9.2-5.6-14.2-7.8c3.4,0.6,6.8,1.2,10.3,1.7c6.5,1,13,1.8,19.6,2.4c6.6,0.6,13.2,0.9,19.7,0.8c18.3,0.1,34.2-2.2,51.2-5.2
		c-2.8,1.1-5.6,2.3-8.3,3.6c3.9-1.3,7.8-2.4,11.7-3.2C161.3,62.8,156.1,65.5,151,68.1z"/>
	<path style="fill:#FFFFFF;" d="M115.2,118.5c-9.6-0.8-3.5,1.5-12.8-1.8c0,0,2.4,2.7,4.4,3.8c2,1,4.5,0.4,4.5,2.2
		c-0.6,0.1-1.2,0.3-1.7,0.6c-0.9,0.5-1.6,1.2-2.1,2.3c3.2-1.6,5.9-1.6,9.1,0c-0.5-1-1.2-1.8-2.1-2.3c-0.5-0.3-1.1-0.5-1.7-0.6
		c0-1.8,2.5-1.1,4.5-2.2c2-1,4.4-3.8,4.4-3.8C117.3,118.3,116.7,118.6,115.2,118.5z"/>
	<path style="fill:#FFFFFF;" d="M124.4,112.9c-11-3.3-7.3-1.7-12.3-1.4c-5-0.2-1.4-1.9-12.3,1.4c-1.3,0.3-2-0.3-2.6-1
		c-0.3,1.3,0.4,3.4,1.3,4c-0.1-0.6-0.1-1.1,0-1.5c0.3-1.6,0-0.6,11.1-0.4c0.1,0,0.3,0.1,0.3,0.2l0.3,1l0.3-1c0.1-0.3,0.5-0.3,0.5,0
		l0.4,2.9c0.3-2.5,0.2-3.1,0.7-3.1c0.7,0,0.5,0.5,0.8,3.1l0.4-2.9c0-0.3,0.4-0.3,0.5,0l0.3,1c0.6-2-1.1-0.8,10.2-1.7
		c0.7-0.1,1.2-0.3,1.5,0.9c0.1,0.4,0.1,0.9,0,1.5c0.9-0.7,1.6-2.8,1.3-4C126.4,112.5,125.7,113.1,124.4,112.9z"/>
	<path style="fill:#FFFFFF;" d="M124,27.4c3.5,5.3,11.5,5.8,11.8,4.8c0-0.2-0.1-0.4-0.3-0.4c-11.5-2.7-12.2-11-13.4-15.3
		c-0.1-0.2-0.4-0.2-0.4,0C121.1,21.2,121.9,24.2,124,27.4z"/>
	<path style="fill:#FFFFFF;" d="M100.2,16.5c-0.2,0.7-1.3,6.1-3.1,8.5c0.2-1.5,0.3-3.1,0-4.5c-0.2,3.1-1.4,6-3.3,8.1
		c-1.7,1.3-3.7,2.4-7,3.2c-0.2,0-0.2,0.1-0.3,0.3c-0.3,1.7,16.2,0.3,14.2-15.5C100.7,16.2,100.3,16.2,100.2,16.5z"/>
	<path style="fill:#FFFFFF;" d="M150.6,135.3c-0.6-4.7-1.8-7.1-2.9-8.3c-0.3,4.2-1.3,9.1-3.2,12.9c1.5-4.2,2-9.5,1.6-13.9
		c-1,5.5-3.5,10.6-7.1,14.7c3.6-5.1,5.5-11.2,5.5-17.2c-0.8-1.4-2.1-2.7-3.8-1.8c0.7,11.9-7,17.3-14.4,23.9c3.1-4,7.3-6.8,11.4-13.5
		c2.4-3.9,2.8-8.9,2.5-15c-0.2-2.2-1-3.8-2.3-5.1c-2.1,8.3-4.5,16.2-12.1,21.2c-15.9,11-33-1.6-40.3-16.6c-0.3,0.1-0.4,0.2-0.4,0.2
		s-4.2,1.5-2.1,8.7c4.6,15.7,41.2,22.2,41.2,22.2c2.4,0.6,4.1,0.9,7.1,1.5c-11.5-0.6-51.5-9.4-50.3-28.8c-0.7,0.2-3.1,1.3-3.6,3.8
		c-1.1,5.5,1.2,9.8,3.8,14.3c-3.2-4.3-4.8-6.8-5.4-10.5c-0.6,1-1.2,2.7-1.1,5.2c0,0-1.8,3.9,1.7,10.7c5.5,10.8,3.3,14.1,9,18.3
		c10,7.3,11.1,4.7,17,12.1c-3.6-3.3-5.6-4.2-8.3-5c0.7,0.9,1.4,2.1,2.3,3.6c10.6,17.4,24.2,22.1,26.8,21.7c-0.5-2.8,1-7.8,2-9.9
		c2-4.4,5.4-6.7,6.1-11.5c0,2.8-0.8,4.8-2.1,7.3c5.1-4.8,16.5-12.3,15.9-23c-0.2-2.8,0.3-5,1-6.9c-2.4,2-3.2,3.9-4.1,7.4
		c1-7.4,3.3-7.4,5.7-10.9C149.5,143.6,151.3,140.5,150.6,135.3z M76.6,135.6c3.6,5.9,6.9,8.7,12,12.1
		C84.5,146.2,78.9,141.7,76.6,135.6z M87.2,157.7c4.6,9.3,17.4,6.1,22,20.7C102.1,164.1,90.2,167.5,87.2,157.7z"/>
	<path style="fill:#FFFFFF;" d="M77.6,122.2c1.2-1.4,2.8-2.9,4.5-3.4c4-1.3-4.8-9-10.2-1.4c0.1-0.3,0.2-0.5,0.3-0.8
		c-2.8-2-6.9-1.2-10.3-1.5c3.4-0.1,7.5-1.5,10.9,0.3c0.4-0.6,1-1.1,1.8-1.6c-11.2-8.8-17.2-1.9-25.2-2.2c1.6,4.4,4,7.3,7.2,8.8
		c3.7-3.7,8.8-4.1,14.7-2.2c-0.7,1.4-0.9,2.9-0.6,4.1c-0.3-0.4-0.4-0.9-0.5-1.4c-2.5-0.1-4.8,0.2-6.8,1.8c1.7-2,4.1-2.7,6.8-3.1
		c0-0.3,0-0.5,0.1-0.8c-16.1-5.5-20.6,11.5-16.3,19.1c2.3-7.2,10-8.3,18-13.3c0.6,0.5,1.3,0.8,1.8,0.8
		C75.6,125.8,75.7,124.4,77.6,122.2z"/>
</g>
</svg>
