<?xml version="1.0" encoding="utf-8"?>
<!-- Generator: Adobe Illustrator 26.1.0, SVG Export Plug-In . SVG Version: 6.00 Build 0)  -->
<svg version="1.1" id="Layer_1" xmlns="http://www.w3.org/2000/svg" xmlns:xlink="http://www.w3.org/1999/xlink" x="0px" y="0px"
	 viewBox="0 0 1056.6 202" style="enable-background:new 0 0 1056.6 202;" xml:space="preserve">
<g id="Livello_1_1_">
</g>
<g>
	<path style="fill:#FFFFFF;" d="M251.5,112.4c0-3.2,0.6-7.5,1.7-12.7l5.7-27h17l-6.3,29.8c-0.7,3.3-1.1,5.2-1.1,6.5
		c0,1.8,0.9,2,3.1,2c3.8,0,3.9-0.4,5.6-8.4l6.3-29.8h17l-5.7,27c-4.1,19.3-5,23.5-25.1,23.5C255.3,123.2,251.5,120.3,251.5,112.4z"
		/>
	<path style="fill:#FFFFFF;" d="M298.5,112.3l17.2-15.8h-12.9l2.3-10.9H338l-2.2,10.3l-17.2,15.8h14l-2.3,10.9h-33.9L298.5,112.3z"
		/>
	<path style="fill:#FFFFFF;" d="M337.9,114.4c0-2.6,0.3-6,1.2-10.2c3.1-15.1,7-19.2,14.4-19.2c4,0,7.7,0.5,9.6,4.2h0.7l1.2-3.7h15.1
		l-7.8,37.1h-15l0.7-4.1H357c-2.6,3.9-6,4.7-9.3,4.7C341.1,123.2,337.9,121.2,337.9,114.4z M359.4,109.4c0.7-2,2.3-9,2.3-10.8
		c0-1.5-0.5-1.6-2.4-1.6c-3,0-3.1,0.1-4.6,7.1c-0.7,2.9-0.9,4.6-0.9,5.7c0,1.4,0.7,1.5,2.5,1.5C358.3,111.2,358.8,111,359.4,109.4z"
		/>
	<path style="fill:#FFFFFF;" d="M379,136.5l2-9.8h9.6c8,0,8.2,0,9.4-5.6c0.3-1.2,0.5-2.5,0.8-3.8h-0.7c-3.1,3.9-6.8,4.7-9.5,4.7
		c-7.2,0-9.4-2.8-9.4-7.8c0-1.9,0.3-4.1,0.9-6.6l4.7-22h15.6l-3.9,18.4c-0.5,2.4-0.8,3.9-0.8,4.7c0,1.3,0.6,1.3,2,1.3
		c2.5,0,2.7-0.1,4-6l3.9-18.4h15.6l-7,33.1c-2.6,12.4-3.6,19-23.8,19C387.4,137.6,381.9,137.1,379,136.5z"/>
	<path style="fill:#FFFFFF;" d="M443.6,112c0-3.7,1.2-8.6,2.4-15.1c3.9-20.2,5.3-24.9,26.2-24.9c15.5,0,20.1,2.9,20.1,11.3
		c0,3.8-0.9,8.6-2.3,15c-4.7,20.3-5.4,24.9-26,24.9C448.3,123.2,443.6,120.3,443.6,112z M473.1,97.6c1.2-5.5,1.8-8.9,1.8-10.8
		c0-2.6-1.2-2.7-4.1-2.7c-5.1,0-5.2,0.3-7.9,13.4c-1.2,5.7-2,9-2,10.9c0,2.5,1.2,2.5,4.1,2.5C470.1,111,470.3,110.8,473.1,97.6z"/>
	<path style="fill:#FFFFFF;" d="M491.7,136.5l2-9.8h9.6c8,0,8.2,0,9.4-5.6c0.3-1.2,0.5-2.5,0.8-3.8h-0.7c-3.1,3.9-6.8,4.7-9.5,4.7
		c-7.2,0-9.4-2.8-9.4-7.8c0-1.9,0.3-4.1,0.9-6.6l4.7-22H515l-3.9,18.4c-0.5,2.4-0.8,3.9-0.8,4.7c0,1.3,0.6,1.3,2,1.3
		c2.5,0,2.7-0.1,4-6l3.9-18.4h15.6l-7,33.1c-2.6,12.4-3.6,19-23.8,19C500.1,137.6,494.6,137.1,491.7,136.5z"/>
	<path style="fill:#FFFFFF;" d="M536.5,115.3c0-2,0.7-5.6,1.4-9.1l4.4-20.7h15.5l-3.9,18.6c-0.5,2.3-0.9,4.6-0.9,5.5
		c0,1.4,0.5,1.5,1.7,1.5c2.8,0,3-0.4,4.2-6l4.2-19.6h15.5l-7.8,37.1h-15l0.6-4.1h-0.7c-3.1,3.9-7.2,4.7-10,4.7
		C538.4,123.2,536.5,120.6,536.5,115.3z"/>
	<path style="fill:#FFFFFF;" d="M585.1,85.5h15l-0.6,4.1h0.7c3.1-3.9,7.2-4.7,10-4.7c7,0,9,2.5,9,7.6c0,2-0.6,5.6-1.3,9.1l-4.5,21
		H598L602,104c0.5-2.3,0.9-4.6,0.9-5.5c0-1.4-0.5-1.5-1.7-1.5c-2.8,0-3,0.4-4.2,6l-4.2,19.6h-15.5L585.1,85.5z"/>
	<path style="fill:#FFFFFF;" d="M631.4,68.6h15.8l-11.4,54h-15.8L631.4,68.6z"/>
	<path style="fill:#FFFFFF;" d="M643.8,114.4c0-2.6,0.3-6,1.2-10.2C648,89.1,652,85,659.4,85c4,0,7.7,0.5,9.6,4.2h0.7l1.2-3.7H686
		l-7.8,37.1h-15l0.7-4.1h-0.8c-2.6,3.9-6,4.7-9.3,4.7C647,123.2,643.8,121.2,643.8,114.4z M665.3,109.4c0.7-2,2.3-9,2.3-10.8
		c0-1.5-0.5-1.6-2.4-1.6c-3,0-3.1,0.1-4.6,7.1c-0.7,2.9-0.9,4.6-0.9,5.7c0,1.4,0.7,1.5,2.5,1.5C664.2,111.2,664.7,111,665.3,109.4z"
		/>
	<path style="fill:#FFFFFF;" d="M692.5,85.5h15l-1,6.2h0.7c3.2-5.5,5.9-6.8,12.6-6.8l-2.9,13.5c-9.7,0-12,1.8-14.1,11.7l-2.7,12.4
		h-15.5L692.5,85.5z"/>
	<path style="fill:#FFFFFF;" d="M724.3,85.5h15.8l-7.8,37.1h-15.8L724.3,85.5z"/>
</g>
<g id="Launching">
	<path style="fill:#FFFFFF;" d="M58.7,129.1c0,0-12.4,9.8-13.2,36.8c-0.1,3,2.3,5.5,5.3,5.6c0.1,0,0.1,0,0.2,0
		c26.1-0.5,36.8-13.3,36.8-13.3c7.8-8.2,7.8-21,0-29.1C79.8,121,67.9,121.5,58.7,129.1z"/>
	<path style="fill:#FFFFFF;" d="M116.4,138.7c3.7,4.9,5.9,10.7,6.5,16.7c0.6,9.5-0.3,19-2.5,28.3c-0.5,2.2,0.9,4.4,3.1,4.9
		c1,0.2,2,0.1,2.8-0.4c22-11.6,40.2-34,28.6-63.3C143.3,132.4,130.1,137.1,116.4,138.7z"/>
	<path style="fill:#FFFFFF;" d="M61.5,94.1c6.1,0.6,11.9,2.8,16.8,6.5C79.9,86.8,84.6,73.7,92,62c-29.3-11.6-51.7,6.6-63.3,28.6
		C27.9,92,28,93.7,29,95c1,1.3,2.6,1.9,4.2,1.6C42.5,94.4,52,93.5,61.5,94.1z"/>
	<path style="fill:#FFFFFF;" d="M196.3,26.9c-0.5-3.2-3-5.7-6.2-6.2c-9-1.3-18.2-1.4-27.2-0.1c2.2,17.5,16,31.3,33.5,33.4
		C197.7,45,197.7,35.9,196.3,26.9z"/>
	<path style="fill:#FFFFFF;" d="M155.4,22c-13.5,3.1-26,9.7-36.2,19.2c-33.4,30.9-33.3,62.3-33.3,62.3l27.7,27.7
		c0,0,31.4,0.1,62.3-33.3c9.5-10.2,16.1-22.7,19.2-36.2C174.4,58.8,158.2,42.6,155.4,22z M142.6,90.5c-8.9,0-16.1-7.2-16.1-16.1
		s7.2-16.1,16.1-16.1s16.1,7.2,16.1,16.1l0,0C158.8,83.3,151.5,90.5,142.6,90.5z"/>
</g>
</svg>
