<?xml version="1.0" encoding="utf-8"?>
<!-- Generator: Adobe Illustrator 24.3.0, SVG Export Plug-In . SVG Version: 6.00 Build 0)  -->
<svg version="1.1" id="Layer_1" xmlns="http://www.w3.org/2000/svg" xmlns:xlink="http://www.w3.org/1999/xlink" x="0px" y="0px"
	 viewBox="0 0 500 53.2" style="enable-background:new 0 0 500 53.2;" xml:space="preserve">
<g>
	<path style="fill:#FFFFFF;" d="M20.5,10.7c0-1.5,0-2.7,0-4c-1.4,0-2.8,0-4,0c0,1.4,0,2.7,0,4C17.8,10.7,19.1,10.7,20.5,10.7z
		 M89,5.8c1.5,0,2.8,0,4,0c0-1.4,0-2.7,0-4c-1.4,0-2.7,0-4,0C89,3.1,89,4.4,89,5.8z M34.9,10.7c0-1.4,0-2.7,0-4c-1.4,0-2.8,0-4.1,0
		c0,1.4,0,2.7,0,4C32.2,10.7,33.5,10.7,34.9,10.7z M88.1,5.8c0-1.5,0-2.7,0-4.1c-1.4,0-2.7,0-4.1,0c0,1.4,0,2.7,0,4.1
		C85.4,5.8,86.7,5.8,88.1,5.8z M34.9,5.8c0-1.5,0-2.7,0-4.1c-1.4,0-2.8,0-4.1,0c0,1.4,0,2.7,0,4.1C32.2,5.8,33.5,5.8,34.9,5.8z
		 M20.5,5.8c0-1.5,0-2.8,0-4.1c-1.4,0-2.7,0-4,0c0,1.4,0,2.8,0,4.1C17.8,5.8,19.1,5.8,20.5,5.8z M69.6,10.6c1.5,0,2.8,0,4.1,0
		c0-1.4,0-2.6,0-3.9c-1.4,0-2.7,0-4.1,0C69.6,8,69.6,9.3,69.6,10.6z M93.8,40.5c0,1.5,0,2.8,0,4.1c1.4,0,2.7,0,4,0
		c0-1.4,0-2.7,0-4.1C96.4,40.5,95.2,40.5,93.8,40.5z M93,40.5c-1.5,0-2.7,0-4,0c0,1.4,0,2.7,0,4.1c1.4,0,2.6,0,4,0
		C93,43.1,93,41.9,93,40.5z M84,10.7c1.3,0,2.7,0,4.1,0c0-1.4,0-2.7,0-4c-1.4,0-2.7,0-4.1,0C84,8,84,9.3,84,10.7z M84,44.5
		c1.4,0,2.7,0,4.1,0c0-1.4,0-2.7,0-4c-1.4,0-2.7,0-4.1,0C84,41.8,84,43.1,84,44.5z M74.5,44.5c1.4,0,2.7,0,3.9,0c0-1.4,0-2.8,0-4.1
		c-1.4,0-2.6,0-3.9,0C74.5,41.8,74.5,43.1,74.5,44.5z M69.6,44.5c1.4,0,2.7,0,4.1,0c0-1.4,0-2.7,0-4c-1.4,0-2.7,0-4.1,0
		C69.6,41.9,69.6,43.1,69.6,44.5z M6.7,44.5c1.4,0,2.8,0,4.1,0c0-1.4,0-2.7,0-4c-1.4,0-2.8,0-4.1,0C6.7,41.9,6.7,43.2,6.7,44.5z
		 M6.7,15.5c1.4,0,2.7,0,4.1,0c0-1.4,0-2.7,0-4c-1.4,0-2.7,0-4.1,0C6.7,12.9,6.7,14.1,6.7,15.5z M103.4,34.9c1.5,0,2.8,0,4.1,0
		c0-1.4,0-2.7,0-4.1c-1.4,0-2.7,0-4.1,0C103.4,32.2,103.4,33.5,103.4,34.9z M44.6,11.5c-1.5,0-2.8,0-4.1,0c0,1.4,0,2.7,0,4
		c1.4,0,2.8,0,4.1,0C44.6,14.1,44.6,12.8,44.6,11.5z M68.8,30.8c-1.4,0-2.7,0-4.1,0c0,1.4,0,2.7,0,4c1.4,0,2.7,0,4.1,0
		C68.8,33.4,68.8,32.2,68.8,30.8z M60,11.7c0,1.3,0,2.4,0,3.7c1.3,0,2.5,0,3.7,0C64.2,11.1,64.4,11.1,60,11.7z M64,30.8
		c-1.4,0-2.7,0-4.1,0c0,1.4,0,2.7,0,4.1c1.4,0,2.7,0,4.1,0C64,33.5,64,32.2,64,30.8z M69.7,11.5c0,1.5,0,2.8,0,4c1.4,0,2.7,0,4,0
		c0-1.4,0-2.7,0-4C72.3,11.5,71.1,11.5,69.7,11.5z M93.7,15.5c1.4,0,2.8,0,4,0c0-1.4,0-2.7,0-4c-1.4,0-2.7,0-4,0
		C93.7,12.9,93.7,14.1,93.7,15.5z M40.6,34.9c1.4,0,2.7,0,4.1,0c0-1.4,0-2.7,0-4.1c-1.4,0-2.7,0-4.1,0
		C40.6,32.2,40.6,33.4,40.6,34.9z M39.8,30.8c-1.5,0-2.7,0-4,0c0,1.4,0,2.7,0,4.1c1.4,0,2.7,0,4,0C39.8,33.5,39.8,32.2,39.8,30.8z
		 M30.8,34.8c1.5,0,2.8,0,4.1,0c0-1.4,0-2.8,0-4.1c-1.4,0-2.7,0-4.1,0C30.8,32.2,30.8,33.5,30.8,34.8z M40.5,16.4c0,1.4,0,2.6,0,3.9
		c1.4,0,2.8,0,4,0c0-1.4,0-2.7,0-3.9C43.2,16.4,41.9,16.4,40.5,16.4z M26.1,34.9c1.5,0,2.7,0,4,0c0-1.4,0-2.7,0-4.1
		c-1.4,0-2.7,0-4,0C26.1,32.2,26.1,33.5,26.1,34.9z M21.3,30.8c0,1.5,0,2.8,0,4.1c1.4,0,2.7,0,4,0c0-1.4,0-2.7,0-4.1
		C23.9,30.8,22.6,30.8,21.3,30.8z M16.4,30.8c0,1.5,0,2.7,0,4.1c1.4,0,2.7,0,4.1,0c0-1.4,0-2.7,0-4.1C19.1,30.8,17.8,30.8,16.4,30.8
		z M15.5,30.8c-1.4,0-2.7,0-4,0c0,1.4,0,2.7,0,4.1c1.4,0,2.7,0,4,0C15.5,33.5,15.5,32.2,15.5,30.8z M6.7,25.1c1.5,0,2.8,0,4.1,0
		c0-1.4,0-2.7,0-4c-1.4,0-2.7,0-4.1,0C6.7,22.5,6.7,23.8,6.7,25.1z M44.6,21.1c-1.5,0-2.8,0-4.1,0c0,1.4,0,2.7,0,4
		c1.4,0,2.8,0,4.1,0C44.6,23.8,44.6,22.5,44.6,21.1z M10.8,30.8c-1.5,0-2.8,0-4.1,0c0,1.4,0,2.8,0,4c1.4,0,2.7,0,4.1,0
		C10.8,33.5,10.8,32.2,10.8,30.8z M59.9,21.1c0,1.5,0,2.7,0,4.1c1.4,0,2.7,0,4,0c0-1.4,0-2.7,0-4.1C62.5,21.1,61.3,21.1,59.9,21.1z
		 M10.7,5.8c0-1.4,0-2.7,0-4.1c-1.4,0-2.7,0-4,0c0,1.4,0,2.8,0,4.1C8.1,5.8,9.4,5.8,10.7,5.8z M88.1,25.2c0-1.4,0-2.7,0-4
		c-1.4,0-2.7,0-4.1,0c0,1.4,0,2.7,0,4C85.4,25.2,86.7,25.2,88.1,25.2z M97.8,25.2c0-1.5,0-2.7,0-4c-1.4,0-2.7,0-4,0c0,1.4,0,2.7,0,4
		C95.2,25.2,96.4,25.2,97.8,25.2z M93,21.1c-1.5,0-2.8,0-4,0c0,1.4,0,2.7,0,4c1.4,0,2.7,0,4,0C93,23.8,93,22.5,93,21.1z M89,30
		c1.4,0,2.7,0,4,0c0-1.4,0-2.7,0-3.9c-1.4,0-2.7,0-4,0C89,27.4,89,28.5,89,30z M11.5,5.8c1.4,0,2.8,0,4,0c0-1.4,0-2.7,0-4
		c-1.4,0-2.7,0-4,0C11.5,3.1,11.5,4.4,11.5,5.8z M25.3,1.7c-1.4,0-2.7,0-4,0c0,1.4,0,2.8,0,4c1.4,0,2.7,0,4,0
		C25.3,4.4,25.3,3.2,25.3,1.7z M26.1,1.7c0,1.5,0,2.8,0,4.1c1.4,0,2.7,0,4,0c0-1.4,0-2.8,0-4.1C28.7,1.7,27.4,1.7,26.1,1.7z
		 M39.8,1.8c-1.5,0-2.8,0-4,0c0,1.4,0,2.7,0,4c1.4,0,2.7,0,4,0C39.8,4.4,39.8,3.2,39.8,1.8z M93.8,10.7c1.4,0,2.7,0,4.1,0
		c0-1.4,0-2.7,0-3.9c-1.4,0-2.8,0-4.1,0C93.8,8.1,93.8,9.3,93.8,10.7z M74.4,1.7c0,1.5,0,2.7,0,4.1c1.4,0,2.7,0,4,0
		c0-1.4,0-2.7,0-4.1C77.1,1.7,75.8,1.7,74.4,1.7z M83.3,5.8c0-1.4,0-2.7,0-4.1c-1.4,0-2.7,0-3.9,0c0,1.4,0,2.8,0,4.1
		C80.7,5.8,82,5.8,83.3,5.8z M88.1,30c0-1.4,0-2.7,0-3.9c-1.4,0-2.8,0-4.1,0c0,1.4,0,2.6,0,3.9C85.4,30,86.7,30,88.1,30z M64.8,21.1
		c0,1.5,0,2.8,0,4c1.4,0,2.7,0,4,0c0-1.4,0-2.7,0-4C67.4,21.1,66.1,21.1,64.8,21.1z M97.8,30c0-1.5,0-2.8,0-4c-1.4,0-2.7,0-4,0
		c0,1.4,0,2.6,0,4C95.2,30,96.4,30,97.8,30z M10.8,10.7c0-1.4,0-2.6,0-4c-1.4,0-2.8,0-4.1,0c0,1.4,0,2.7,0,4
		C8.1,10.7,9.4,10.7,10.8,10.7z M11.5,6.6c0,1.5,0,2.7,0,4.1c1.4,0,2.7,0,4,0c0-1.4,0-2.7,0-4.1C14.1,6.6,12.9,6.6,11.5,6.6z
		 M78.5,6.7c-1.5,0-2.7,0-4,0c0,1.4,0,2.7,0,4c1.4,0,2.7,0,4,0C78.5,9.3,78.5,8.1,78.5,6.7z M68.7,10.7c0-1.4,0-2.7,0-4
		c-1.4,0-2.7,0-4,0c0,1.4,0,2.7,0,4C66.1,10.7,67.3,10.7,68.7,10.7z M40.6,6.7c0,1.5,0,2.7,0,4c1.4,0,2.7,0,4,0c0-1.4,0-2.7,0-4
		C43.2,6.7,42,6.7,40.6,6.7z M68.8,20.3c0-1.4,0-2.6,0-4c-1.4,0-2.7,0-4,0c0,1.4,0,2.6,0,4C66.1,20.3,67.4,20.3,68.8,20.3z
		 M59.9,16.3c0,1.5,0,2.7,0,4c1.4,0,2.7,0,4,0c0-1.4,0-2.7,0-4C62.6,16.3,61.3,16.3,59.9,16.3z M79.3,6.7c0,1.5,0,2.8,0,4
		c1.4,0,2.7,0,3.9,0c0-1.4,0-2.7,0-4C81.9,6.7,80.7,6.7,79.3,6.7z M26,39.7c1.4,0,2.7,0,4.1,0c0-1.4,0-2.7,0-4c-1.4,0-2.8,0-4.1,0
		C26,37.1,26,38.4,26,39.7z M59.9,39.7c1.5,0,2.7,0,4.1,0c0-1.4,0-2.7,0-4c-1.4,0-2.7,0-4.1,0C59.9,37.1,59.9,38.3,59.9,39.7z
		 M39.8,10.7c0-1.4,0-2.7,0-4c-1.4,0-2.8,0-4.1,0c0,1.4,0,2.6,0,4C37.1,10.7,38.4,10.7,39.8,10.7z M64.7,11.4c0,1.5,0,2.7,0,4.1
		c1.4,0,2.7,0,4,0c0-1.4,0-2.7,0-4.1C67.3,11.4,66.1,11.4,64.7,11.4z M93,10.7c0-1.5,0-2.7,0-4c-1.4,0-2.7,0-4,0c0,1.4,0,2.7,0,4
		C90.4,10.7,91.6,10.7,93,10.7z M83.3,44.5c0-1.4,0-2.7,0-4.1c-1.4,0-2.7,0-3.9,0c0,1.4,0,2.8,0,4.1C80.7,44.5,81.9,44.5,83.3,44.5z
		 M35.8,15.5c1.5,0,2.7,0,4,0c0-1.4,0-2.7,0-4c-1.4,0-2.7,0-4,0C35.8,12.8,35.8,14.1,35.8,15.5z M21.3,6.7c0,1.4,0,2.7,0,4
		c1.4,0,2.7,0,4,0c0-1.4,0-2.7,0-4C23.8,6.7,22.6,6.7,21.3,6.7z M26.1,6.7c0,1.4,0,2.7,0,4c1.4,0,2.7,0,4,0c0-1.4,0-2.7,0-4
		C28.7,6.7,27.5,6.7,26.1,6.7z M15.6,35.8c-1.3,0-2.6,0-4,0c0,1.3,0,2.6,0,4c1.4,0,2.7,0,4,0C15.6,38.4,15.6,37.2,15.6,35.8z
		 M20.5,35.7c-1.5,0-2.8,0-4.1,0c0,1.4,0,2.7,0,4c1.4,0,2.8,0,4.1,0C20.5,38.3,20.5,37.1,20.5,35.7z M21.2,39.7c1.5,0,2.8,0,4,0
		c0-1.4,0-2.7,0-3.9c-1.4,0-2.7,0-4,0C21.2,37.1,21.2,38.4,21.2,39.7z M10.8,20.3c0-1.5,0-2.7,0-4c-1.4,0-2.8,0-4.1,0
		c0,1.4,0,2.7,0,4C8.2,20.3,9.4,20.3,10.8,20.3z M102.7,11.5c-1.5,0-2.7,0-4,0c0,1.4,0,2.7,0,4c1.4,0,2.7,0,4,0
		C102.7,14.2,102.7,12.9,102.7,11.5z M1.8,20.3c1.4,0,2.7,0,4,0c0-1.4,0-2.6,0-4c-1.4,0-2.7,0-4,0C1.8,17.7,1.8,18.9,1.8,20.3z
		 M64.7,39.7c1.4,0,2.7,0,4,0c0-1.4,0-2.7,0-4c-1.4,0-2.7,0-4,0C64.7,37.1,64.7,38.3,64.7,39.7z M1.9,21.1c0,1.5,0,2.8,0,4
		c1.4,0,2.7,0,3.9,0c0-1.4,0-2.7,0-4C4.5,21.1,3.3,21.1,1.9,21.1z M102.6,44.6c0-1.5,0-2.8,0-4.1c-1.4,0-2.7,0-3.9,0
		c0,1.4,0,2.7,0,4.1C100,44.6,101.3,44.6,102.6,44.6z M1.9,44.5c1.4,0,2.7,0,4,0c0-1.4,0-2.7,0-4c-1.4,0-2.7,0-4,0
		C1.9,41.8,1.9,43.1,1.9,44.5z M98.7,10.7c1.4,0,2.7,0,4,0c0-1.4,0-2.7,0-4c-1.4,0-2.7,0-4,0C98.7,8,98.7,9.2,98.7,10.7z M45.5,21.1
		c0,1.4,0,2.7,0,4c1.4,0,2.7,0,3.9,0c0-1.4,0-2.8,0-4C48,21.1,46.8,21.1,45.5,21.1z M103.4,39.6c1.5,0,2.7,0,4,0c0-1.3,0-2.6,0-3.8
		c-1.4,0-2.7,0-4,0C103.4,37.1,103.4,38.3,103.4,39.6z M5.9,11.4c-1.4,0-2.7,0-4,0c0,1.4,0,2.7,0,4c1.4,0,2.7,0,4,0
		C5.9,14.1,5.9,12.8,5.9,11.4z M93,45.4c-1.4,0-2.7,0-4,0c0,1.4,0,2.7,0,4c1.4,0,2.6,0,4,0C93,48,93,46.7,93,45.4z M98.6,30.8
		c0,1.4,0,2.7,0,4.1c1.4,0,2.7,0,4,0c0-1.4,0-2.7,0-4.1C101.2,30.8,100,30.8,98.6,30.8z M49.5,15.5c0-1.5,0-2.7,0-4.1
		c-1.4,0-2.6,0-4,0c0,1.4,0,2.7,0,4.1C46.9,15.5,48.1,15.5,49.5,15.5z M49.5,20.3c0-1.4,0-2.6,0-3.9c-1.4,0-2.7,0-4,0
		c0,1.4,0,2.6,0,3.9C46.8,20.3,48.1,20.3,49.5,20.3z M5.9,30.8c-1.4,0-2.7,0-4,0c0,1.4,0,2.8,0,4c1.4,0,2.7,0,4,0
		C5.9,33.5,5.9,32.2,5.9,30.8z M45.4,30c1.4,0,2.6,0,4,0c0-1.4,0-2.7,0-4c-1.4,0-2.7,0-4,0C45.4,27.4,45.4,28.7,45.4,30z M78.4,49.3
		c0-1.4,0-2.7,0-3.9c-1.4,0-2.7,0-3.9,0c0,1.4,0,2.6,0,3.9C75.8,49.3,77.1,49.3,78.4,49.3z M102.6,25.2c0-1.5,0-2.8,0-4.1
		c-1.4,0-2.6,0-3.9,0c0,1.4,0,2.7,0,4.1C100,25.2,101.2,25.2,102.6,25.2z M69.6,49.3c1.5,0,2.8,0,4.1,0c0-1.4,0-2.6,0-3.9
		c-1.4,0-2.7,0-4.1,0C69.6,46.7,69.6,47.9,69.6,49.3z M79.3,45.3c0,1.5,0,2.7,0,4c1.4,0,2.7,0,4,0c0-1.4,0-2.7,0-4
		C81.9,45.3,80.7,45.3,79.3,45.3z M88.1,49.3c0-1.4,0-2.6,0-3.9c-1.4,0-2.7,0-4.1,0c0,1.4,0,2.7,0,3.9
		C85.5,49.3,86.8,49.3,88.1,49.3z M93.8,45.5c0,1.3,0,2.5,0,3.7c1.4,0,2.6,0,3.9,0c0-1.3,0-2.4,0-3.7C96.4,45.5,95.2,45.5,93.8,45.5
		z M97.8,35.7c-1.5,0-2.8,0-4.1,0c0,1.4,0,2.6,0,3.9c1.4,0,2.7,0,4.1,0C97.8,38.3,97.8,37.1,97.8,35.7z M69.7,35.7
		c0,1.3,0,2.6,0,3.9c1.4,0,2.7,0,4.1,0c0-1.4,0-2.6,0-3.9C72.4,35.7,71.1,35.7,69.7,35.7z M10.8,35.7c-1.4,0-2.7,0-4.1,0
		c0,1.4,0,2.6,0,4c1.4,0,2.7,0,4.1,0C10.8,38.3,10.8,37.1,10.8,35.7z M103.5,26c0,1.4,0,2.6,0,3.9c1.4,0,2.7,0,4.1,0
		c0-1.4,0-2.6,0-3.9C106.1,26,104.8,26,103.5,26z M68.8,26.1c-1.4,0-2.7,0-4.1,0c0,1.4,0,2.6,0,3.9c1.4,0,2.7,0,4.1,0
		C68.8,28.6,68.8,27.3,68.8,26.1z M59.9,26c0,1.4,0,2.7,0,3.9c1.4,0,2.8,0,4.1,0c0-1.4,0-2.6,0-3.9C62.6,26,61.3,26,59.9,26z
		 M44.6,30c0-1.4,0-2.7,0-3.9c-1.4,0-2.7,0-4,0c0,1.4,0,2.6,0,3.9C41.9,30,43.2,30,44.6,30z M35.8,26c0,1.3,0,2.6,0,4
		c1.4,0,2.6,0,4,0c0-1.4,0-2.6,0-4C38.4,26,37.2,26,35.8,26z M10.8,30c0-1.4,0-2.6,0-3.9c-1.4,0-2.8,0-4.1,0c0,1.3,0,2.6,0,3.9
		C8.1,30,9.4,30,10.8,30z M44.5,1.9c-1.4,0-2.6,0-3.8,0c0,1.4,0,2.6,0,3.8c1.4,0,2.6,0,3.8,0C44.5,4.3,44.5,3.1,44.5,1.9z M1.8,49.3
		c1.4,0,2.7,0,4.1,0c0-1.4,0-2.7,0-3.9c-1.4,0-2.7,0-4.1,0C1.8,46.8,1.8,48,1.8,49.3z M31.2,39.6c1.3-0.2,2.6-0.1,3.5-0.7
		c0.4-0.3,0.4-2.3,0-2.6c-0.9-0.6-2.2-0.5-3.5-0.8C31.2,37.1,31.2,38.1,31.2,39.6z M1.8,39.7c1.4,0,2.7,0,4,0c0-1.4,0-2.7,0-3.9
		c-1.4,0-2.7,0-4,0C1.8,37,1.8,38.3,1.8,39.7z M1.8,29.9c1.4,0,2.7,0,4,0c0-1.4,0-2.7,0-3.9c-1.4,0-2.7,0-4,0
		C1.8,27.4,1.8,28.6,1.8,29.9z M98.7,35.7c0,1.4,0,2.7,0,4c1.4,0,2.6,0,3.9,0c0-1.4,0-2.7,0-4C101.2,35.7,100,35.7,98.7,35.7z
		 M98.7,26c0,1.4,0,2.6,0,3.9c1.4,0,2.6,0,3.9,0c0-1.4,0-2.6,0-3.9C101.3,26,100.1,26,98.7,26z M1.8,6.8c0.2,1.4,0,2.8,0.6,3.6
		c0.5,0.5,2.6,0.5,3,0C6,9.5,5.8,8.1,5.9,6.8C4.5,6.8,3.3,6.8,1.8,6.8z"/>
	<path style="fill:#FFFFFF;" d="M20.5,10.7c-1.4,0-2.7,0-4,0c0-1.3,0-2.6,0-4c1.3,0,2.6,0,4,0C20.5,8,20.5,9.3,20.5,10.7z"/>
	<path style="fill:#FFFFFF;" d="M89,5.8c0-1.4,0-2.6,0-4c1.4,0,2.6,0,4,0c0,1.3,0,2.6,0,4C91.8,5.8,90.5,5.8,89,5.8z"/>
	<path style="fill:#FFFFFF;" d="M34.9,10.7c-1.5,0-2.7,0-4.1,0c0-1.4,0-2.6,0-4c1.4,0,2.7,0,4.1,0C34.9,8,34.9,9.3,34.9,10.7z"/>
	<path style="fill:#FFFFFF;" d="M88.1,5.8c-1.4,0-2.7,0-4.1,0c0-1.4,0-2.6,0-4.1c1.3,0,2.7,0,4.1,0C88.1,3.1,88.1,4.4,88.1,5.8z"/>
	<path style="fill:#FFFFFF;" d="M34.9,5.8c-1.4,0-2.7,0-4.1,0c0-1.4,0-2.6,0-4.1c1.3,0,2.7,0,4.1,0C34.9,3.1,34.9,4.4,34.9,5.8z"/>
	<path style="fill:#FFFFFF;" d="M20.5,5.8c-1.3,0-2.6,0-4,0c0-1.3,0-2.7,0-4.1c1.3,0,2.6,0,4,0C20.5,3,20.5,4.3,20.5,5.8z"/>
	<path style="fill:#FFFFFF;" d="M69.6,10.6c0-1.3,0-2.6,0-3.9c1.4,0,2.7,0,4.1,0c0,1.3,0,2.5,0,3.9C72.4,10.6,71.1,10.6,69.6,10.6z"
		/>
	<path style="fill:#FFFFFF;" d="M93.8,40.5c1.4,0,2.6,0,4,0c0,1.4,0,2.7,0,4.1c-1.3,0-2.6,0-4,0C93.8,43.2,93.8,42,93.8,40.5z"/>
	<path style="fill:#FFFFFF;" d="M93,40.5c0,1.4,0,2.7,0,4.1c-1.4,0-2.6,0-4,0c0-1.4,0-2.6,0-4.1C90.3,40.5,91.6,40.5,93,40.5z"/>
	<path style="fill:#FFFFFF;" d="M84,10.7c0-1.4,0-2.6,0-4c1.3,0,2.6,0,4.1,0c0,1.3,0,2.6,0,4C86.7,10.7,85.4,10.7,84,10.7z"/>
	<path style="fill:#FFFFFF;" d="M84,44.5c0-1.4,0-2.6,0-4c1.3,0,2.6,0,4.1,0c0,1.3,0,2.6,0,4C86.7,44.5,85.4,44.5,84,44.5z"/>
	<path style="fill:#FFFFFF;" d="M74.5,44.5c0-1.4,0-2.7,0-4.1c1.3,0,2.5,0,3.9,0c0,1.3,0,2.6,0,4.1C77.2,44.5,75.9,44.5,74.5,44.5z"
		/>
	<path style="fill:#FFFFFF;" d="M69.6,44.5c0-1.4,0-2.6,0-4c1.4,0,2.7,0,4.1,0c0,1.3,0,2.6,0,4C72.3,44.5,70.9,44.5,69.6,44.5z"/>
	<path style="fill:#FFFFFF;" d="M6.7,44.5c0-1.3,0-2.6,0-4c1.4,0,2.7,0,4.1,0c0,1.3,0,2.6,0,4C9.4,44.5,8.1,44.5,6.7,44.5z"/>
	<path style="fill:#FFFFFF;" d="M6.7,15.5c0-1.4,0-2.6,0-4c1.4,0,2.7,0,4.1,0c0,1.4,0,2.6,0,4C9.4,15.5,8.1,15.5,6.7,15.5z"/>
	<path style="fill:#FFFFFF;" d="M103.4,34.9c0-1.4,0-2.7,0-4.1c1.4,0,2.6,0,4.1,0c0,1.3,0,2.6,0,4.1
		C106.2,34.9,104.9,34.9,103.4,34.9z"/>
	<path style="fill:#FFFFFF;" d="M44.6,11.5c0,1.4,0,2.6,0,4c-1.3,0-2.6,0-4.1,0c0-1.3,0-2.6,0-4C41.9,11.5,43.1,11.5,44.6,11.5z"/>
	<path style="fill:#FFFFFF;" d="M68.8,30.8c0,1.4,0,2.6,0,4c-1.3,0-2.6,0-4.1,0c0-1.3,0-2.6,0-4C66.1,30.8,67.5,30.8,68.8,30.8z"/>
	<path style="fill:#FFFFFF;" d="M64,30.8c0,1.4,0,2.7,0,4.1c-1.4,0-2.6,0-4.1,0c0-1.4,0-2.7,0-4.1C61.3,30.8,62.5,30.8,64,30.8z"/>
	<path style="fill:#FFFFFF;" d="M69.7,11.5c1.4,0,2.7,0,4,0c0,1.4,0,2.7,0,4c-1.3,0-2.6,0-4,0C69.7,14.2,69.7,12.9,69.7,11.5z"/>
	<path style="fill:#FFFFFF;" d="M93.7,15.5c0-1.3,0-2.6,0-4c1.3,0,2.6,0,4,0c0,1.3,0,2.6,0,4C96.5,15.5,95.2,15.5,93.7,15.5z"/>
	<path style="fill:#FFFFFF;" d="M40.6,34.9c0-1.4,0-2.7,0-4.1c1.4,0,2.6,0,4.1,0c0,1.3,0,2.7,0,4.1C43.3,34.9,42,34.9,40.6,34.9z"/>
	<path style="fill:#FFFFFF;" d="M39.8,30.8c0,1.4,0,2.7,0,4.1c-1.4,0-2.7,0-4,0c0-1.4,0-2.7,0-4.1C37.1,30.8,38.4,30.8,39.8,30.8z"
		/>
	<path style="fill:#FFFFFF;" d="M30.8,34.8c0-1.4,0-2.7,0-4.1c1.3,0,2.6,0,4.1,0c0,1.3,0,2.6,0,4.1C33.6,34.8,32.3,34.8,30.8,34.8z"
		/>
	<path style="fill:#FFFFFF;" d="M40.5,16.4c1.4,0,2.6,0,4,0c0,1.3,0,2.5,0,3.9c-1.3,0-2.6,0-4,0C40.5,19,40.5,17.7,40.5,16.4z"/>
	<path style="fill:#FFFFFF;" d="M26.1,34.9c0-1.4,0-2.7,0-4.1c1.3,0,2.6,0,4,0c0,1.3,0,2.7,0,4.1C28.7,34.9,27.5,34.9,26.1,34.9z"/>
	<path style="fill:#FFFFFF;" d="M21.3,30.8c1.4,0,2.6,0,4,0c0,1.4,0,2.6,0,4.1c-1.3,0-2.5,0-4,0C21.3,33.5,21.3,32.2,21.3,30.8z"/>
	<path style="fill:#FFFFFF;" d="M16.4,30.8c1.4,0,2.7,0,4.1,0c0,1.4,0,2.6,0,4.1c-1.3,0-2.7,0-4.1,0C16.4,33.5,16.4,32.2,16.4,30.8z
		"/>
	<path style="fill:#FFFFFF;" d="M15.5,30.8c0,1.4,0,2.7,0,4.1c-1.4,0-2.7,0-4,0c0-1.4,0-2.7,0-4.1C12.8,30.8,14.1,30.8,15.5,30.8z"
		/>
	<path style="fill:#FFFFFF;" d="M6.7,25.1c0-1.4,0-2.6,0-4c1.4,0,2.7,0,4.1,0c0,1.3,0,2.6,0,4C9.5,25.1,8.2,25.1,6.7,25.1z"/>
	<path style="fill:#FFFFFF;" d="M44.6,21.1c0,1.4,0,2.6,0,4c-1.4,0-2.7,0-4.1,0c0-1.3,0-2.6,0-4C41.9,21.1,43.2,21.1,44.6,21.1z"/>
	<path style="fill:#FFFFFF;" d="M10.8,30.8c0,1.4,0,2.7,0,4c-1.4,0-2.6,0-4.1,0c0-1.3,0-2.6,0-4C8,30.8,9.3,30.8,10.8,30.8z"/>
	<path style="fill:#FFFFFF;" d="M59.9,21.1c1.4,0,2.6,0,4,0c0,1.3,0,2.7,0,4.1c-1.3,0-2.6,0-4,0C59.9,23.8,59.9,22.6,59.9,21.1z"/>
	<path style="fill:#FFFFFF;" d="M10.7,5.8c-1.3,0-2.6,0-4,0c0-1.3,0-2.6,0-4.1c1.3,0,2.6,0,4,0C10.7,3.1,10.7,4.4,10.7,5.8z"/>
	<path style="fill:#FFFFFF;" d="M88.1,25.2c-1.4,0-2.7,0-4.1,0c0-1.4,0-2.6,0-4c1.4,0,2.7,0,4.1,0C88.1,22.5,88.1,23.7,88.1,25.2z"
		/>
	<path style="fill:#FFFFFF;" d="M97.8,25.2c-1.4,0-2.6,0-4,0c0-1.3,0-2.6,0-4c1.3,0,2.6,0,4,0C97.8,22.5,97.8,23.7,97.8,25.2z"/>
	<path style="fill:#FFFFFF;" d="M93,21.1c0,1.4,0,2.6,0,4c-1.3,0-2.6,0-4,0c0-1.3,0-2.6,0-4C90.3,21.1,91.5,21.1,93,21.1z"/>
	<path style="fill:#FFFFFF;" d="M89,30c0-1.5,0-2.6,0-3.9c1.3,0,2.6,0,4,0c0,1.3,0,2.5,0,3.9C91.7,30,90.4,30,89,30z"/>
	<path style="fill:#FFFFFF;" d="M11.5,5.8c0-1.4,0-2.6,0-4c1.3,0,2.6,0,4,0c0,1.3,0,2.6,0,4C14.3,5.8,12.9,5.8,11.5,5.8z"/>
	<path style="fill:#FFFFFF;" d="M25.3,1.7c0,1.4,0,2.7,0,4c-1.3,0-2.6,0-4,0c0-1.3,0-2.6,0-4C22.6,1.7,23.8,1.7,25.3,1.7z"/>
	<path style="fill:#FFFFFF;" d="M26.1,1.7c1.3,0,2.6,0,4,0c0,1.3,0,2.7,0,4.1c-1.3,0-2.6,0-4,0C26.1,4.5,26.1,3.2,26.1,1.7z"/>
	<path style="fill:#FFFFFF;" d="M39.8,1.8c0,1.4,0,2.7,0,4c-1.4,0-2.7,0-4,0c0-1.3,0-2.6,0-4C37.1,1.8,38.3,1.8,39.8,1.8z"/>
	<path style="fill:#FFFFFF;" d="M93.8,10.7c0-1.3,0-2.6,0-3.9c1.3,0,2.6,0,4.1,0c0,1.3,0,2.5,0,3.9C96.5,10.7,95.2,10.7,93.8,10.7z"
		/>
	<path style="fill:#FFFFFF;" d="M74.4,1.7c1.4,0,2.6,0,4,0c0,1.3,0,2.6,0,4.1c-1.3,0-2.6,0-4,0C74.4,4.4,74.4,3.2,74.4,1.7z"/>
	<path style="fill:#FFFFFF;" d="M83.3,5.8c-1.3,0-2.5,0-3.9,0c0-1.3,0-2.6,0-4.1c1.3,0,2.5,0,3.9,0C83.3,3.1,83.3,4.4,83.3,5.8z"/>
	<path style="fill:#FFFFFF;" d="M88.1,30c-1.4,0-2.7,0-4.1,0c0-1.3,0-2.6,0-3.9c1.4,0,2.7,0,4.1,0C88.1,27.4,88.1,28.6,88.1,30z"/>
	<path style="fill:#FFFFFF;" d="M64.8,21.1c1.3,0,2.6,0,4,0c0,1.4,0,2.6,0,4c-1.3,0-2.6,0-4,0C64.8,23.9,64.8,22.6,64.8,21.1z"/>
	<path style="fill:#FFFFFF;" d="M97.8,30c-1.4,0-2.6,0-4,0c0-1.4,0-2.6,0-4c1.3,0,2.6,0,4,0C97.8,27.3,97.8,28.6,97.8,30z"/>
	<path style="fill:#FFFFFF;" d="M10.8,10.7c-1.4,0-2.7,0-4.1,0c0-1.3,0-2.6,0-4c1.3,0,2.6,0,4.1,0C10.8,8,10.8,9.3,10.8,10.7z"/>
	<path style="fill:#FFFFFF;" d="M11.5,6.6c1.4,0,2.6,0,4,0c0,1.4,0,2.7,0,4.1c-1.3,0-2.6,0-4,0C11.5,9.4,11.5,8.1,11.5,6.6z"/>
	<path style="fill:#FFFFFF;" d="M78.5,6.7c0,1.4,0,2.6,0,4c-1.3,0-2.6,0-4,0c0-1.3,0-2.6,0-4C75.8,6.7,77,6.7,78.5,6.7z"/>
	<path style="fill:#FFFFFF;" d="M68.7,10.7c-1.4,0-2.7,0-4,0c0-1.3,0-2.6,0-4c1.3,0,2.6,0,4,0C68.7,8,68.7,9.3,68.7,10.7z"/>
	<path style="fill:#FFFFFF;" d="M40.6,6.7c1.4,0,2.6,0,4,0c0,1.3,0,2.6,0,4c-1.3,0-2.6,0-4,0C40.6,9.4,40.6,8.1,40.6,6.7z"/>
	<path style="fill:#FFFFFF;" d="M68.8,20.3c-1.4,0-2.7,0-4,0c0-1.4,0-2.6,0-4c1.4,0,2.7,0,4,0C68.8,17.7,68.8,19,68.8,20.3z"/>
	<path style="fill:#FFFFFF;" d="M59.9,16.3c1.4,0,2.6,0,4,0c0,1.3,0,2.6,0,4c-1.3,0-2.6,0-4,0C59.9,19.1,59.9,17.8,59.9,16.3z"/>
	<path style="fill:#FFFFFF;" d="M79.3,6.7c1.3,0,2.6,0,3.9,0c0,1.3,0,2.6,0,4c-1.2,0-2.5,0-3.9,0C79.3,9.4,79.3,8.1,79.3,6.7z"/>
	<path style="fill:#FFFFFF;" d="M26,39.7c0-1.3,0-2.6,0-4c1.3,0,2.6,0,4.1,0c0,1.3,0,2.6,0,4C28.8,39.7,27.4,39.7,26,39.7z"/>
	<path style="fill:#FFFFFF;" d="M59.9,39.7c0-1.4,0-2.7,0-4c1.4,0,2.7,0,4.1,0c0,1.4,0,2.6,0,4C62.6,39.7,61.3,39.7,59.9,39.7z"/>
	<path style="fill:#FFFFFF;" d="M39.8,10.7c-1.4,0-2.7,0-4.1,0c0-1.3,0-2.6,0-4c1.3,0,2.6,0,4.1,0C39.8,8,39.8,9.2,39.8,10.7z"/>
	<path style="fill:#FFFFFF;" d="M64.7,11.4c1.4,0,2.6,0,4,0c0,1.4,0,2.7,0,4.1c-1.3,0-2.6,0-4,0C64.7,14.2,64.7,12.9,64.7,11.4z"/>
	<path style="fill:#FFFFFF;" d="M93,10.7c-1.4,0-2.6,0-4,0c0-1.4,0-2.6,0-4c1.3,0,2.6,0,4,0C93,8,93,9.2,93,10.7z"/>
	<path style="fill:#FFFFFF;" d="M83.3,44.5c-1.3,0-2.6,0-3.9,0c0-1.3,0-2.7,0-4.1c1.3,0,2.6,0,3.9,0C83.3,41.8,83.3,43.1,83.3,44.5z
		"/>
	<path style="fill:#FFFFFF;" d="M35.8,15.5c0-1.4,0-2.7,0-4c1.4,0,2.6,0,4,0c0,1.4,0,2.6,0,4C38.5,15.5,37.2,15.5,35.8,15.5z"/>
	<path style="fill:#FFFFFF;" d="M21.3,6.7c1.3,0,2.6,0,4,0c0,1.3,0,2.6,0,4c-1.3,0-2.5,0-4,0C21.3,9.4,21.3,8.1,21.3,6.7z"/>
	<path style="fill:#FFFFFF;" d="M26.1,6.7c1.4,0,2.6,0,4,0c0,1.4,0,2.6,0,4c-1.3,0-2.6,0-4,0C26.1,9.4,26.1,8.1,26.1,6.7z"/>
	<path style="fill:#FFFFFF;" d="M15.6,35.8c0,1.4,0,2.6,0,4c-1.4,0-2.7,0-4,0c0-1.4,0-2.7,0-4C12.9,35.8,14.3,35.8,15.6,35.8z"/>
	<path style="fill:#FFFFFF;" d="M20.5,35.7c0,1.4,0,2.6,0,4c-1.3,0-2.7,0-4.1,0c0-1.3,0-2.6,0-4C17.7,35.7,19,35.7,20.5,35.7z"/>
	<path style="fill:#FFFFFF;" d="M21.2,39.7c0-1.3,0-2.5,0-3.9c1.3,0,2.6,0,4,0c0,1.2,0,2.5,0,3.9C24,39.7,22.7,39.7,21.2,39.7z"/>
	<path style="fill:#FFFFFF;" d="M10.8,20.3c-1.4,0-2.7,0-4.1,0c0-1.3,0-2.6,0-4c1.3,0,2.6,0,4.1,0C10.8,17.7,10.8,18.9,10.8,20.3z"
		/>
	<path style="fill:#FFFFFF;" d="M102.7,11.5c0,1.4,0,2.7,0,4c-1.4,0-2.6,0-4,0c0-1.4,0-2.6,0-4C100,11.5,101.2,11.5,102.7,11.5z"/>
	<path style="fill:#FFFFFF;" d="M1.8,20.3c0-1.4,0-2.6,0-4c1.3,0,2.6,0,4,0c0,1.3,0,2.6,0,4C4.5,20.3,3.2,20.3,1.8,20.3z"/>
	<path style="fill:#FFFFFF;" d="M64.7,39.7c0-1.4,0-2.6,0-4c1.4,0,2.6,0,4,0c0,1.3,0,2.6,0,4C67.4,39.7,66.1,39.7,64.7,39.7z"/>
	<path style="fill:#FFFFFF;" d="M1.9,21.1c1.4,0,2.6,0,3.9,0c0,1.3,0,2.6,0,4c-1.2,0-2.5,0-3.9,0C1.9,23.9,1.9,22.6,1.9,21.1z"/>
	<path style="fill:#FFFFFF;" d="M102.6,44.6c-1.4,0-2.6,0-3.9,0c0-1.3,0-2.6,0-4.1c1.2,0,2.5,0,3.9,0
		C102.6,41.8,102.6,43.1,102.6,44.6z"/>
	<path style="fill:#FFFFFF;" d="M1.9,44.5c0-1.4,0-2.7,0-4c1.4,0,2.6,0,4,0c0,1.4,0,2.6,0,4C4.6,44.5,3.3,44.5,1.9,44.5z"/>
	<path style="fill:#FFFFFF;" d="M98.7,10.7c0-1.4,0-2.7,0-4c1.4,0,2.6,0,4,0c0,1.3,0,2.6,0,4C101.4,10.7,100.1,10.7,98.7,10.7z"/>
	<path style="fill:#FFFFFF;" d="M45.5,21.1c1.3,0,2.5,0,3.9,0c0,1.3,0,2.6,0,4c-1.2,0-2.5,0-3.9,0C45.5,23.8,45.5,22.5,45.5,21.1z"
		/>
	<path style="fill:#FC1522;" d="M103.4,39.6c0-1.3,0-2.5,0-3.8c1.3,0,2.6,0,4,0c0,1.2,0,2.4,0,3.8C106.2,39.6,104.9,39.6,103.4,39.6
		z"/>
	<path style="fill:#FFFFFF;" d="M5.9,11.4c0,1.4,0,2.7,0,4c-1.3,0-2.6,0-4,0c0-1.3,0-2.6,0-4C3.2,11.4,4.5,11.4,5.9,11.4z"/>
	<path style="fill:#FFFFFF;" d="M93,45.4c0,1.3,0,2.6,0,4c-1.3,0-2.6,0-4,0c0-1.3,0-2.5,0-4C90.3,45.4,91.6,45.4,93,45.4z"/>
	<path style="fill:#FFFFFF;" d="M98.6,30.8c1.4,0,2.7,0,4,0c0,1.3,0,2.6,0,4.1c-1.3,0-2.6,0-4,0C98.6,33.5,98.6,32.2,98.6,30.8z"/>
	<path style="fill:#FFFFFF;" d="M49.5,15.5c-1.4,0-2.6,0-4,0c0-1.4,0-2.7,0-4.1c1.3,0,2.6,0,4,0C49.5,12.8,49.5,14.1,49.5,15.5z"/>
	<path style="fill:#FFFFFF;" d="M49.5,20.3c-1.4,0-2.6,0-4,0c0-1.3,0-2.6,0-3.9c1.3,0,2.6,0,4,0C49.5,17.7,49.5,19,49.5,20.3z"/>
	<path style="fill:#FFFFFF;" d="M5.9,30.8c0,1.4,0,2.7,0,4c-1.3,0-2.6,0-4,0c0-1.3,0-2.6,0-4C3.2,30.8,4.5,30.8,5.9,30.8z"/>
	<path style="fill:#FFFFFF;" d="M45.4,30c0-1.3,0-2.6,0-4c1.3,0,2.6,0,4,0c0,1.3,0,2.6,0,4C48.1,30,46.8,30,45.4,30z"/>
	<path style="fill:#FFFFFF;" d="M78.4,49.3c-1.3,0-2.6,0-3.9,0c0-1.3,0-2.6,0-3.9c1.3,0,2.5,0,3.9,0C78.4,46.6,78.4,47.9,78.4,49.3z
		"/>
	<path style="fill:#FFFFFF;" d="M102.6,25.2c-1.3,0-2.5,0-3.9,0c0-1.4,0-2.7,0-4.1c1.2,0,2.5,0,3.9,0
		C102.6,22.4,102.6,23.7,102.6,25.2z"/>
	<path style="fill:#FFFFFF;" d="M69.6,49.3c0-1.4,0-2.6,0-3.9c1.4,0,2.7,0,4.1,0c0,1.3,0,2.6,0,3.9C72.4,49.3,71.1,49.3,69.6,49.3z"
		/>
	<path style="fill:#FFFFFF;" d="M79.3,45.3c1.4,0,2.6,0,4,0c0,1.3,0,2.6,0,4c-1.3,0-2.6,0-4,0C79.3,48,79.3,46.8,79.3,45.3z"/>
	<path style="fill:#FFFFFF;" d="M88.1,49.3c-1.4,0-2.6,0-4.1,0c0-1.3,0-2.5,0-3.9c1.3,0,2.6,0,4.1,0C88.1,46.7,88.1,48,88.1,49.3z"
		/>
	<path style="fill:#FE5B02;" d="M93.8,45.5c1.3,0,2.6,0,3.9,0c0,1.3,0,2.4,0,3.7c-1.3,0-2.5,0-3.9,0C93.8,48,93.8,46.9,93.8,45.5z"
		/>
	<path style="fill:#FFFFFF;" d="M97.8,35.7c0,1.3,0,2.6,0,3.9c-1.4,0-2.7,0-4.1,0c0-1.3,0-2.5,0-3.9C95.1,35.7,96.4,35.7,97.8,35.7z
		"/>
	<path style="fill:#FFFFFF;" d="M69.7,35.7c1.4,0,2.7,0,4.1,0c0,1.3,0,2.6,0,3.9c-1.3,0-2.7,0-4.1,0C69.7,38.3,69.7,37,69.7,35.7z"
		/>
	<path style="fill:#FFFFFF;" d="M10.8,35.7c0,1.4,0,2.6,0,4c-1.4,0-2.7,0-4.1,0c0-1.3,0-2.6,0-4C8.1,35.7,9.4,35.7,10.8,35.7z"/>
	<path style="fill:#14E692;" d="M103.5,26c1.4,0,2.6,0,4.1,0c0,1.3,0,2.6,0,3.9c-1.4,0-2.6,0-4.1,0C103.5,28.7,103.5,27.4,103.5,26z
		"/>
	<path style="fill:#FFFFFF;" d="M68.8,26.1c0,1.3,0,2.5,0,3.9c-1.3,0-2.7,0-4.1,0c0-1.3,0-2.5,0-3.9C66,26.1,67.4,26.1,68.8,26.1z"
		/>
	<path style="fill:#FFFFFF;" d="M59.9,26c1.4,0,2.7,0,4.1,0c0,1.3,0,2.5,0,3.9c-1.3,0-2.6,0-4.1,0C59.9,28.7,59.9,27.5,59.9,26z"/>
	<path style="fill:#FFFFFF;" d="M44.6,30c-1.4,0-2.7,0-4,0c0-1.3,0-2.5,0-3.9c1.3,0,2.6,0,4,0C44.6,27.3,44.6,28.5,44.6,30z"/>
	<path style="fill:#FFFFFF;" d="M35.8,26c1.4,0,2.6,0,4,0c0,1.3,0,2.6,0,4c-1.3,0-2.6,0-4,0C35.8,28.6,35.8,27.3,35.8,26z"/>
	<path style="fill:#FFFFFF;" d="M10.8,30c-1.5,0-2.7,0-4.1,0c0-1.3,0-2.6,0-3.9c1.4,0,2.7,0,4.1,0C10.8,27.4,10.8,28.6,10.8,30z"/>
	<path style="fill:#FE5B02;" d="M44.5,1.9c0,1.3,0,2.4,0,3.8c-1.2,0-2.4,0-3.8,0c0-1.2,0-2.4,0-3.8C41.9,1.9,43.1,1.9,44.5,1.9z"/>
	<path style="fill:#FFFFFF;" d="M1.8,49.3c0-1.3,0-2.5,0-3.9c1.3,0,2.6,0,4.1,0c0,1.3,0,2.5,0,3.9C4.5,49.3,3.2,49.3,1.8,49.3z"/>
	<path style="fill:#FFFFFF;" d="M1.8,39.7c0-1.4,0-2.6,0-3.9c1.3,0,2.6,0,4,0c0,1.3,0,2.6,0,3.9C4.5,39.7,3.3,39.7,1.8,39.7z"/>
	<path style="fill:#FFFFFF;" d="M1.8,29.9c0-1.3,0-2.5,0-3.9c1.3,0,2.6,0,4,0c0,1.2,0,2.5,0,3.9C4.5,29.9,3.2,29.9,1.8,29.9z"/>
	<path style="fill:#FFFFFF;" d="M98.7,35.7c1.3,0,2.6,0,3.9,0c0,1.3,0,2.6,0,4c-1.3,0-2.5,0-3.9,0C98.7,38.4,98.7,37.1,98.7,35.7z"
		/>
	<path style="fill:#FFFFFF;" d="M98.7,26c1.4,0,2.6,0,3.9,0c0,1.3,0,2.5,0,3.9c-1.3,0-2.6,0-3.9,0C98.7,28.6,98.7,27.4,98.7,26z"/>
	<path style="fill:#600FE7;" d="M5.8,6.6c0,1.4,0,2.7,0,4c-1.3,0-2.6,0-4,0c0-1.3,0-2.6,0-4C3.2,6.6,4.5,6.6,5.8,6.6z"/>
	<path style="fill:#E61570;" d="M59.9,11.5c1.4,0,2.6,0,4,0c0,1.3,0,2.6,0,4c-1.3,0-2.6,0-4,0C59.9,14.2,59.9,13,59.9,11.5z"/>
	<path style="fill:#15BCE5;" d="M6.7,49.4c0-1.3,0-2.6,0-4c1.4,0,2.7,0,4.1,0c0,1.3,0,2.6,0,4C9.4,49.4,8.1,49.4,6.7,49.4z"/>
	<path style="fill:#E615DC;" d="M31,39.7c0-1.3,0-2.6,0-4c1.3,0,2.6,0,4.1,0c0,1.3,0,2.6,0,4C33.8,39.7,32.4,39.7,31,39.7z"/>
	<path style="fill:#1486E7;" d="M64.6,44.5c0-1.4,0-2.6,0-4c1.4,0,2.7,0,4.1,0c0,1.3,0,2.6,0,4C67.4,44.5,66,44.5,64.6,44.5z"/>
	<path style="fill:#FEB41D;" d="M69.6,1.7c1.4,0,2.6,0,4,0c0,1.3,0,2.6,0,4.1c-1.3,0-2.6,0-4,0C69.6,4.4,69.6,3.2,69.6,1.7z"/>
</g>
<g>
	<g>
		<path style="fill:#FFFFFF;" d="M124.3,29.8v9.3c0,0.8-0.3,1.1-1,1.1h-3.7c-0.8,0-1-0.3-1-1.1V12c0-0.8,0.3-1.1,1-1.1h9
			c7.8,0,10.4,3.4,10.4,7v4.9c0,3.6-2.6,7-10.4,7H124.3z M124.3,15.7V25h4.3c2.9,0,4.6-1.1,4.6-3.2V19c0-2.2-1.8-3.2-4.6-3.2H124.3z
			"/>
		<path style="fill:#FFFFFF;" d="M143,17.6c0-3.6,2.7-7,10.5-7c7.8,0,10.5,3.4,10.5,7v15.9c0,3.6-2.7,7-10.5,7
			c-7.8,0-10.5-3.4-10.5-7V17.6z M158.1,18.6c0-2.2-1.8-3.2-4.6-3.2c-2.9,0-4.6,1.1-4.6,3.2v13.9c0,2.2,1.7,3.2,4.6,3.2
			c2.9,0,4.6-1.1,4.6-3.2V18.6z"/>
		<path style="fill:#FFFFFF;" d="M189.3,33.5c0,3.6-2.3,7-10.1,7c-7.8,0-10.1-3.4-10.1-7V17.6c0-3.6,2.3-7,10.1-7
			c7.8,0,10.1,3.4,10.1,7v2.1c0,0.8-0.3,1.1-1,1.1h-3.6c-0.8,0-1.1-0.3-1.1-1.1v-1c0-2.2-1.5-3.2-4.4-3.2c-2.9,0-4.3,1.1-4.3,3.2
			v13.9c0,2.2,1.5,3.2,4.3,3.2c2.9,0,4.4-1.1,4.4-3.2v-1.6c0-0.8,0.3-1.1,1.1-1.1h3.6c0.7,0,1,0.3,1,1.1V33.5z"/>
		<path style="fill:#FFFFFF;" d="M215.5,39.1c0.4,0.5,0.2,1.1-0.6,1.1h-4.8c-0.7,0-1.2-0.6-1.5-1.1l-8.1-11.3h-0.7v11.3
			c0,0.7-0.3,1.1-1,1.1H195c-0.8,0-1-0.3-1-1.1V12c0-0.7,0.3-1.1,1-1.1h3.7c0.8,0,1,0.3,1,1.1v11.6h0.7l7.7-11.6
			c0.4-0.6,0.9-1.1,1.7-1.1h4c0.8,0,0.9,0.5,0.5,1.1l-9,13.3L215.5,39.1z"/>
		<path style="fill:#FFFFFF;" d="M220.2,40.2c-0.8,0-1-0.3-1-1.1V12c0-0.8,0.3-1.1,1-1.1h14.7c0.7,0,1.1,0.3,1.1,1v2.7
			c0,0.8-0.3,1.1-1.1,1.1H225v7h9.2c0.8,0,1.1,0.3,1.1,1v2.6c0,0.7-0.3,1-1.1,1H225v8h10.4c0.8,0,1.1,0.3,1.1,1v2.7
			c0,0.8-0.3,1.1-1.1,1.1H220.2z"/>
		<path style="fill:#FFFFFF;" d="M257.8,10.9c0.7,0,1.1,0.3,1.1,1v2.7c0,0.8-0.3,1.1-1.1,1.1h-6.1v23.3c0,0.8-0.3,1.1-1,1.1h-3.7
			c-0.8,0-1.1-0.3-1.1-1.1V15.7h-6.1c-0.8,0-1.1-0.3-1.1-1.1v-2.7c0-0.8,0.3-1,1.1-1H257.8z"/>
		<path style="fill:#FFFFFF;" d="M289.4,24.8c0.7,0,1.1,0.3,1.1,1v7.7c0,3.6-2.3,7-10.1,7c-7.8,0-10.1-3.4-10.1-7V17.6
			c0-3.6,2.3-7,10.1-7c7.8,0,10.1,3.4,10.1,7v1.7c0,0.7-0.3,1.1-1,1.1h-3.6c-0.8,0-1.1-0.3-1.1-1.1v-0.7c0-2.2-1.5-3.2-4.4-3.2
			c-2.9,0-4.3,1.1-4.3,3.2v13.9c0,2.2,1.5,3.2,4.3,3.2c2.9,0,4.4-1.1,4.4-3.2v-2.9h-4.2c-0.8,0-1.1-0.3-1.1-1v-2.8
			c0-0.8,0.3-1,1.1-1H289.4z"/>
		<path style="fill:#FFFFFF;" d="M306.5,10.9c0.8,0,1.2,0.3,1.4,1.1l8,27.1c0.2,0.7,0,1.1-0.8,1.1h-3.9c-0.7,0-1-0.4-1.2-1.1
			l-1.5-5.3h-8l-1.5,5.3c-0.2,0.7-0.5,1.1-1.3,1.1h-3.5c-0.8,0-1-0.4-0.8-1.1l8-27.1c0.2-0.7,0.6-1.1,1.3-1.1H306.5z M305.8,24.5
			c-0.6-1.8-1.2-7.3-1.2-7.8c-0.1,0.6-0.8,6-1.3,7.8l-1.5,4.8h5.5L305.8,24.5z"/>
		<path style="fill:#FFFFFF;" d="M345.7,39.1c0,0.7-0.3,1.1-1,1.1h-3.6c-0.8,0-1-0.3-1-1.1V22.7c0,0.1-0.8,2.8-1.2,3.9l-3.3,8
			c-0.3,0.7-0.7,1.1-1.4,1.1h-3.1c-0.7,0-1.1-0.4-1.4-1.1L326,26c-0.4-0.9-0.9-2.9-1-3.2v16.3c0,0.7-0.3,1.1-1,1.1h-3.4
			c-0.8,0-1-0.3-1-1.1V12c0-0.7,0.3-1.1,1-1.1h3.4c0.6,0,0.8,0.2,0.9,0.6l6.6,15c0.5,1.2,1.1,3,1.1,3s0.6-1.7,1.1-3l6.4-15.2
			c0.2-0.4,0.5-0.5,1-0.5h3.6c0.8,0,1,0.3,1,1.1V39.1z"/>
		<path style="fill:#FFFFFF;" d="M352.7,40.2c-0.8,0-1-0.3-1-1.1V12c0-0.8,0.3-1.1,1-1.1h14.7c0.7,0,1.1,0.3,1.1,1v2.7
			c0,0.8-0.3,1.1-1.1,1.1h-9.9v7h9.2c0.8,0,1.1,0.3,1.1,1v2.6c0,0.7-0.3,1-1.1,1h-9.2v8h10.4c0.8,0,1.1,0.3,1.1,1v2.7
			c0,0.8-0.3,1.1-1.1,1.1H352.7z"/>
		<path style="fill:#FFFFFF;" d="M387.4,18.3c0-2.1-1.4-3.1-4.2-3.1c-2.8,0-4.2,1-4.2,3.1V19c0,1.5,1.1,2.1,1.8,2.3l7.5,2.7
			c2.9,1,5.1,3,5.1,6.2v3.3c0,3.6-2.5,7-10.2,7c-7.7,0-10.3-3.4-10.3-7v-2.7c0-0.8,0.3-1.1,1-1.1h3.6c0.8,0,1,0.3,1,1.1v1.9
			c0,2.1,1.6,3.1,4.6,3.1c2.9,0,4.6-1,4.6-3.1v-1.4c0-1.8-1.7-2.5-3.7-3.2l-6.7-2.5c-2.1-0.8-3.9-3-3.9-5.6v-2.5c0-3.6,2.2-7,9.8-7
			c7.5,0,9.9,3.4,9.9,7v1.8c0,0.7-0.3,1.1-1.1,1.1h-3.6c-0.7,0-1-0.3-1-1.1V18.3z"/>
		<path style="fill:#FFFFFF;" d="M420.4,18.3c0-2.1-1.4-3.1-4.2-3.1c-2.8,0-4.2,1-4.2,3.1V19c0,1.5,1.1,2.1,1.8,2.3l7.5,2.7
			c2.9,1,5.1,3,5.1,6.2v3.3c0,3.6-2.5,7-10.2,7c-7.7,0-10.3-3.4-10.3-7v-2.7c0-0.8,0.3-1.1,1-1.1h3.6c0.8,0,1,0.3,1,1.1v1.9
			c0,2.1,1.6,3.1,4.6,3.1c2.9,0,4.6-1,4.6-3.1v-1.4c0-1.8-1.7-2.5-3.7-3.2l-6.7-2.5c-2.1-0.8-3.9-3-3.9-5.6v-2.5c0-3.6,2.2-7,9.8-7
			c7.5,0,9.9,3.4,9.9,7v1.8c0,0.7-0.3,1.1-1.1,1.1h-3.6c-0.7,0-1-0.3-1-1.1V18.3z"/>
		<path style="fill:#FFFFFF;" d="M430.8,17.6c0-3.6,2.7-7,10.5-7c7.8,0,10.5,3.4,10.5,7v15.9c0,3.6-2.7,7-10.5,7
			c-7.8,0-10.5-3.4-10.5-7V17.6z M445.9,18.6c0-2.2-1.8-3.2-4.6-3.2c-2.9,0-4.6,1.1-4.6,3.2v13.9c0,2.2,1.7,3.2,4.6,3.2
			c2.9,0,4.6-1.1,4.6-3.2V18.6z"/>
		<path style="fill:#FFFFFF;" d="M474.1,10.9c0.7,0,1.1,0.3,1.1,1v2.7c0,0.8-0.3,1.1-1.1,1.1h-11v7h10.2c0.8,0,1.1,0.3,1.1,1v2.8
			c0,0.8-0.3,1.1-1.1,1.1h-10.2v11.5c0,0.8-0.3,1.1-1,1.1h-3.7c-0.8,0-1-0.3-1-1.1V12c0-0.8,0.3-1.1,1-1.1H474.1z"/>
		<path style="fill:#FFFFFF;" d="M496.2,10.9c0.7,0,1.1,0.3,1.1,1v2.7c0,0.8-0.3,1.1-1.1,1.1h-6.1v23.3c0,0.8-0.3,1.1-1,1.1h-3.7
			c-0.8,0-1.1-0.3-1.1-1.1V15.7h-6.1c-0.8,0-1.1-0.3-1.1-1.1v-2.7c0-0.8,0.3-1,1.1-1H496.2z"/>
	</g>
</g>
</svg>
