<?xml version="1.0" encoding="utf-8"?>
<!-- Generator: Adobe Illustrator 26.1.0, SVG Export Plug-In . SVG Version: 6.00 Build 0)  -->
<svg version="1.1" id="Layer_1" xmlns="http://www.w3.org/2000/svg" xmlns:xlink="http://www.w3.org/1999/xlink" x="0px" y="0px"
	 viewBox="0 0 1056.6 202" style="enable-background:new 0 0 1056.6 202;" xml:space="preserve">
<g id="Livello_1_1_">
</g>
<g id="Layer_1_00000121280000816817959920000000882230360127541942_">
</g>
<g>
	<path style="fill:#FFFFFF;" d="M268.4,72.5h17l-4,18.7h0.7l14.4-18.7h18.5l-20.3,24.6l9.8,25.4h-18l-7-19.5h-0.7l-4.1,19.5h-16.9
		L268.4,72.5z"/>
	<path style="fill:#FFFFFF;" d="M306.9,114.4c0-2.6,0.6-6.1,1.5-10.4c3.4-15.6,4.4-19.1,21-19.1c13.4,0,17.4,2.1,17.4,8.8
		c0,2.6-0.5,6.1-1.5,10.3c-3.5,15.6-4.6,19.1-21.1,19.1C310.9,123.1,306.9,121,306.9,114.4z M330,104c0.7-3.3,1-5.3,1-6.5
		c0-1.5-0.8-1.7-2.5-1.7c-3.1,0-3.1,0.4-4.7,8.2c-0.7,3.5-1.1,5.5-1.1,6.6c0,1.5,0.7,1.6,2.5,1.6C328.2,112.2,328.3,111.9,330,104z"
		/>
	<path style="fill:#FFFFFF;" d="M354.9,85.5h15l-1,6.2h0.7c3.2-5.5,5.9-6.8,12.6-6.8l-2.9,13.5c-9.7,0-12,1.8-14.1,11.7l-2.7,12.4
		H347L354.9,85.5z"/>
	<path style="fill:#FFFFFF;" d="M390.3,68.6h15.6L399.3,99h0.7l10.4-13.5H427l-15,18.2l7.6,18.9h-16.6l-4.9-13.4h-0.7l-2.8,13.4H379
		L390.3,68.6z"/>
	<path style="fill:#FFFFFF;" d="M425.6,115.3c0-2,0.7-5.6,1.4-9.1l4.4-20.7h15.5l-3.9,18.6c-0.5,2.3-0.9,4.6-0.9,5.5
		c0,1.4,0.5,1.5,1.7,1.5c2.8,0,3-0.4,4.2-6l4.2-19.6h15.5l-7.8,37.1h-15l0.6-4.1h-0.7c-3.1,3.9-7.2,4.7-10,4.7
		C427.6,123.1,425.6,120.5,425.6,115.3z"/>
	<path style="fill:#FFFFFF;" d="M488.2,111.9c0-3.7,1.2-8.6,2.4-15.1c3.9-20.2,5.3-24.9,26.2-24.9c15.5,0,20.1,2.9,20.1,11.3
		c0,3.8-0.9,8.6-2.3,15c-4.7,20.3-5.4,24.9-26,24.9C492.9,123.1,488.2,120.2,488.2,111.9z M517.7,97.6c1.2-5.5,1.8-8.9,1.8-10.8
		c0-2.6-1.2-2.7-4.1-2.7c-5.1,0-5.2,0.3-7.9,13.4c-1.2,5.7-2,9-2,10.9c0,2.5,1.2,2.5,4.1,2.5C514.7,111,514.9,110.7,517.7,97.6z"/>
	<path style="fill:#FFFFFF;" d="M536.3,136.4l2-9.8h9.6c8,0,8.2,0,9.4-5.6c0.3-1.2,0.5-2.5,0.8-3.8h-0.7c-3.1,3.9-6.8,4.7-9.5,4.7
		c-7.2,0-9.4-2.8-9.4-7.8c0-1.9,0.3-4.1,0.9-6.6l4.7-22h15.6l-3.9,18.4c-0.5,2.4-0.8,3.9-0.8,4.7c0,1.3,0.6,1.3,2,1.3
		c2.5,0,2.7-0.1,4-6l3.9-18.4h15.6l-7,33.1c-2.6,12.4-3.6,19-23.8,19C544.7,137.5,539.2,137.1,536.3,136.4z"/>
	<path style="fill:#FFFFFF;" d="M581.1,115.3c0-2,0.7-5.6,1.4-9.1l4.4-20.7h15.5l-3.9,18.6c-0.5,2.3-0.9,4.6-0.9,5.5
		c0,1.4,0.5,1.5,1.7,1.5c2.8,0,3-0.4,4.2-6l4.2-19.6h15.5l-7.8,37.1h-15l0.6-4.1h-0.7c-3.1,3.9-7.2,4.7-10,4.7
		C583,123.1,581.1,120.5,581.1,115.3z"/>
	<path style="fill:#FFFFFF;" d="M629.7,85.5h15l-0.6,4.1h0.7c3.1-3.9,7.2-4.7,10-4.7c7,0,9,2.5,9,7.6c0,2-0.6,5.6-1.3,9.1l-4.5,21
		h-15.5l3.9-18.6c0.5-2.3,0.9-4.6,0.9-5.5c0-1.4-0.5-1.5-1.7-1.5c-2.8,0-3,0.4-4.2,6l-4.2,19.6h-15.5L629.7,85.5z"/>
	<path style="fill:#FFFFFF;" d="M676,68.6h15.8l-11.4,54h-15.8L676,68.6z"/>
	<path style="fill:#FFFFFF;" d="M688.4,114.3c0-2.6,0.3-6,1.2-10.2C692.6,89,696.6,85,704,85c4,0,7.7,0.5,9.6,4.2h0.7l1.2-3.7h15.1
		l-7.8,37.1h-15l0.7-4.1h-0.8c-2.6,3.9-6,4.7-9.3,4.7C691.6,123.1,688.4,121.2,688.4,114.3z M709.9,109.3c0.7-2,2.3-9,2.3-10.8
		c0-1.5-0.5-1.6-2.4-1.6c-3,0-3.1,0.1-4.6,7.1c-0.7,2.9-0.9,4.6-0.9,5.7c0,1.4,0.7,1.5,2.5,1.5C708.8,111.1,709.3,111,709.9,109.3z"
		/>
	<path style="fill:#FFFFFF;" d="M737.1,85.5h15l-1,6.2h0.7c3.2-5.5,5.9-6.8,12.6-6.8l-2.9,13.5c-9.7,0-12,1.8-14.1,11.7l-2.7,12.4
		h-15.5L737.1,85.5z"/>
	<path style="fill:#FFFFFF;" d="M768.9,85.5h15.8l-7.8,37.1h-15.8L768.9,85.5z"/>
</g>
<g>
	<g>
		<path style="fill:#FFFFFF;" d="M109.7,8.8c-35.2,0-63.8,28.6-63.8,63.8v121.6c0,1.1,0.9,2,2,2h123.6c1.1,0,2-0.9,2-2V72.6
			C173.5,37.4,144.9,8.8,109.7,8.8z M127.2,141.6c0,9.7-7.9,17.6-17.6,17.6c-9.7,0-17.6-7.9-17.6-17.6v-10c0-7.6-3.7-14.5-9.9-18.7
			c-14.1-9.6-22.1-25.4-21.5-42.5c1-25.3,21.6-45.9,46.9-46.9c0.7,0,1.3,0,2,0c12.7,0,24.7,4.8,33.9,13.7c9.7,9.3,15,21.8,15,35.3
			c0,16.2-8,31.3-21.4,40.4c-6.2,4.3-10,11.3-10,18.8L127.2,141.6L127.2,141.6z"/>
		<path style="fill:#FFFFFF;" d="M109.7,93.3c-7.1,0-12.8,5.7-12.8,12.8v35.2c0,7.1,5.7,12.8,12.8,12.8c7.1,0,12.8-5.7,12.8-12.8
			v-35.2C122.5,99,116.7,93.3,109.7,93.3z"/>
		<path style="fill:#FFFFFF;" d="M103.5,71.2c1.3-2.2,1.3-4.8,0.1-7C100,57.4,93,53.4,85.3,53.7c-7,0.3-13.4,4.3-16.7,10.5
			c-1.2,2.2-1.1,4.8,0.2,7c1.3,2.2,3.6,3.5,6.1,3.5h22.6C100,74.6,102.2,73.3,103.5,71.2z"/>
		<path style="fill:#FFFFFF;" d="M150.6,71.2c1.3-2.2,1.3-4.8,0.1-7c-3.6-6.8-10.7-10.8-18.3-10.5c-7,0.3-13.4,4.3-16.7,10.5
			c-1.2,2.2-1.1,4.8,0.2,7c1.3,2.2,3.6,3.5,6.1,3.5h22.6C147,74.6,149.3,73.3,150.6,71.2z"/>
	</g>
</g>
</svg>
