<?xml version="1.0" encoding="utf-8"?>
<!-- Generator: Adobe Illustrator 22.0.0, SVG Export Plug-In . SVG Version: 6.00 Build 0)  -->
<svg version="1.1" id="Layer_1" xmlns="http://www.w3.org/2000/svg" xmlns:xlink="http://www.w3.org/1999/xlink" x="0px" y="0px"
	 viewBox="0 0 1056.6 202" style="enable-background:new 0 0 1056.6 202;" xml:space="preserve">
<path style="fill:#FFFFFF;" d="M253.2,55.6c-5,13-9.9,26-14.9,39s-9.9,26-14.9,39c-0.3,0.9-1.1,1.6-1.7,2.4
	c-0.6-0.8-1.4-1.6-1.7-2.5c-9.4-23.9-18.8-47.8-28.2-71.7c-0.4-0.9-0.8-1.9-1.7-2.7c-0.1,1-0.1,2.1-0.1,3.1c0,17.8,0,35.7,0,53.5
	c0,2.9,0.4,5.8,0.7,8.7c0.6,5,3.3,8,8.4,8.8c0.9,0.2,1.7,1.1,2.6,1.7c-0.2,0.3-0.4,0.6-0.5,0.9c-9.5,0-19,0-29.7,0
	c1.1-1.2,1.6-1.9,2.3-2.4c0.4-0.3,1-0.3,1.5-0.4c6-1.5,9.1-4.9,9.2-11.1c0.1-23.2,0.3-46.5-0.1-69.7c-0.1-4.7-2.5-7.3-6.8-8.3
	c-1.2-0.3-2.4-0.3-3.5-0.7c-0.6-0.2-1-1-1.5-1.6c0.6-0.3,1.2-0.9,1.7-0.9c7.6-0.1,15.1,0,22.8,0c9.4,24.1,18.8,48,28.4,72.9
	c2.1-5.5,3.8-10.1,5.5-14.7c6.9-18.5,13.8-37,20.7-55.5c0.7-2,1.6-2.8,3.9-2.7c7,0.2,14,0.1,22.3,0.1c-1.1,1.3-1.5,2.2-2.2,2.6
	c-1.2,0.5-2.5,0.6-3.8,0.9c-2.9,0.7-4.6,2.7-5.1,5.6c-0.3,2-0.6,4.1-0.6,6.1c0,21.6,0,43.3,0,64.9c0,1,0,2,0.1,2.9
	c0.7,6.9,1.9,8.2,8.7,9.7c0.9,0.2,1.7,0.9,2.5,1.4c-0.1,0.3-0.3,0.6-0.4,1c-11.2,0-22.4,0-34.7,0c0.9-1.1,1.4-2.2,2.1-2.3
	c7-1.1,9.5-1.3,9.5-12.5c0.1-21.1,0.1-42.2,0.1-63.3c0-0.7-0.1-1.4-0.1-2.2C253.6,55.6,253.4,55.6,253.2,55.6z"/>
<path style="fill:#FFFFFF;" d="M640.6,71.5c-0.8-0.8-1.8-1.5-2.2-2.4c-2-4.4-3.4-9.2-6-13.2c-9.4-14.6-28.8-15.2-39.6-1.6
	c-6,7.6-8.6,16.4-9.5,25.8c-1.1,11.6-0.8,23.1,4.2,34c5.4,11.9,15.2,18.5,27.1,18.1c8.6-0.3,15.8-4.1,21.9-10
	c1.4-1.3,2.7-2.8,4.4-4.6c0.9,1,1.6,1.7,2.3,2.3c-16.3,25.3-51,24.3-66,0.7c-7.3-11.4-9.2-24-8.2-37.3c0.8-10.4,4.1-20.1,10.5-28.5
	c10-13.2,25.8-18.6,41.8-14.3c3,0.8,6,1.8,9,2.8c3.1,1,5.5,0.2,7.2-2.5c0.4-0.6,1.2-1,1.8-1.5c0.4,0.6,1.3,1.3,1.3,1.9
	C640.6,51,640.6,60.9,640.6,71.5z"/>
<path style="fill:#FFFFFF;" d="M404.3,40.9c23.4,0,46.2,0,69.6,0c0,7.9,0,16,0,24.2c-1.4,0.5-2.4,0.1-2.6-2
	c-0.2-1.9-0.9-3.8-1.4-5.7c-1.7-6.3-5.3-10.3-12.2-10.5c-4-0.1-7.9,0-12.2,0c-0.1,1.1-0.2,2.3-0.2,3.4c0,23.9,0,47.8,0,71.7
	c0,1.1,0,2.2,0.1,3.2c0.7,5.3,1.9,6.5,7.2,7.6c1.2,0.2,2.4,0.3,3.5,0.7c0.4,0.1,0.8,0.9,0.8,1.4c0,0.3-0.6,0.8-1,0.9
	c-0.5,0.2-1.1,0.1-1.6,0.1c-10,0-19.9,0-29.9,0c-0.9,0-1.8-0.6-2.7-1c0.8-0.6,1.6-1.4,2.5-1.6c7.1-1.5,8.7-3.1,8.7-9.8
	c0.1-25.1,0.1-50.2,0.1-75.3c0-0.4-0.1-0.8-0.2-1.2c-15.4-3.7-23.1,1.5-26.1,18c-0.9,0-1.7,0-2.5,0C404.3,57,404.3,49.1,404.3,40.9z
	"/>
<path style="fill:#FFFFFF;" d="M35.2,146.6c202.8,0,405.2,0,607.6,0c0.2,0.2,0.4,0.4,0.7,0.6c-0.6,0.6-1.1,1.3-1.8,1.6
	c-0.6,0.3-1.5,0.1-2.2,0.1c-200.2,0-400.3,0-600.5-0.1C37.7,148.9,35,150.3,35.2,146.6z"/>
<path style="fill:#FFFFFF;" d="M539,135.9c-11.8,0-23.5,0-36.6,0c1.1-1.2,1.6-2.3,2.3-2.4c10-1.3,10.4-3,10.6-13.1
	c0.3-21.3,0.1-42.6,0.1-63.9c0-1.1-0.1-2.2-0.2-3.2c-0.9-7.5-1.8-8.4-9.2-9.8c-1.3-0.3-3.4,0.2-2.5-2.6c11.8,0,23.7,0,36.7,0
	c-1,1.1-1.5,2.2-2.2,2.4c-9.4,2.7-9.6,2.6-10.3,12.4c-0.4,5.6-0.2,11.2-0.2,16.9c0.1,16.8,0.1,33.5,0.3,50.3c0.1,8,1.4,9.2,9.5,10.6
	c0.9,0.2,1.6,0.9,2.5,1.4C539.5,135.2,539.3,135.6,539,135.9z"/>
<path style="fill:#FFFFFF;" d="M104.5,162.8c1.5,0,2.6,0,4,0c0,9.5,0,18.8,0,28.2c-2.6,1-4,0.4-4.7-2.4c-1.1-4.4-2.6-8.7-4.2-13.8
	c0,5-0.1,9.2,0,13.4c0.1,3.2-1.3,3.7-4.1,2.8c0-9.4,0-18.8,0-28.1c2.9-1.1,4.2-0.1,4.9,2.7c1,4.1,2.4,8,4,12.1
	C104.5,172.8,104.5,167.9,104.5,162.8z"/>
<path style="fill:#FFFFFF;" d="M232.5,162.8c1.6,0,2.9,0,4.4,0c0,8.6,0,17,0,25.6c1.7,0,3.1,0,4.9,0c0-8.4,0-16.8,0-25.5
	c1.5,0,2.7,0,4.3,0c0,8.3,0.1,16.5-0.1,24.6c0,1.2-1.6,2.9-2.9,3.5c-5.7,2.8-10.6-0.5-10.6-6.8C232.5,177.2,232.5,170.1,232.5,162.8
	z"/>
<path style="fill:#FFFFFF;" d="M634.5,175.3c10.6,0.6,8.6,1.1,8.9,9.7c0.1,2.9-0.6,5.1-3.5,6.1c-3.2,1.1-6.4,1-8.7-1.4
	c-1.1-1.2-1.2-3.4-1.8-5.5c2,0,3.3,0,4.7,0c0.1,1.3,0.2,2.6,0.4,4.1c1.3,0,2.6,0,4.2,0c0-3.1,0-6.3,0-10.1c-1.6,0-3.3,0.1-5,0
	c-2.5-0.1-4-1.3-3.9-4.1c0.1-1.8,0-3.7,0-5.5c0-4.4,2.7-6.8,7.2-6.6c4.7,0.3,6.7,2.7,6.1,7.6c-1.2,0-2.5,0-3.9,0
	c-0.2-1.3-0.3-2.7-0.5-4.2c-1.3,0-2.6,0-4.1,0C634.5,168.6,634.5,171.9,634.5,175.3z"/>
<path style="fill:#FFFFFF;" d="M300.8,184.3c1.9,0,3,0,4.3,0c0.2,1.4,0.3,2.6,0.5,4.1c1.4,0,2.7,0,4.6,0c0-2.8,0.1-5.7-0.1-8.6
	c0-0.5-1-1.3-1.6-1.5c-1-0.3-2.1-0.1-3.2-0.1c-2.9,0-4.4-1.2-4.2-4.3c0.2-1.8,0-3.7,0-5.5c0-4.3,2.5-6.6,6.9-6.4
	c4.9,0.3,6.8,2.6,6.1,7.5c-1.1,0-2.2,0-3.6,0c-0.2-1.3-0.3-2.6-0.5-4.2c-1.4,0-2.8,0-4.3,0c0,3.2,0,6.4,0,9.9
	c1.8,0.1,3.4,0.1,5.1,0.3c2.4,0.2,3.8,1.3,3.7,3.9c0,1.9-0.1,3.9,0,5.8c0.1,2.8-0.6,4.8-3.5,5.8c-3.2,1.1-7.5,0.6-9-1.7
	C301.2,188.2,301.3,186.4,300.8,184.3z"/>
<path style="fill:#FFFFFF;" d="M566.8,165.2c0,1.8,0,3.2,0,4.5c0,5.3,0,5.2,5.2,5.9c0.6,0.1,1.2,0.8,1.8,1.2
	c-0.6,0.5-1.3,1.3-1.9,1.4c-5,0.5-5,0.5-5,5.4c0,1.5,0,3,0,4.8c3,0,5.8,0,8.5,0c0.8,1.9,0.7,3-1.4,3c-0.3,0-0.6,0-1,0
	c-12.3,0.2-10.3-0.4-10.4-10c0-4.9,0.1-9.7,0-14.6c-0.1-3,1.3-4.4,4.3-4.3c2.5,0,5,0,7.5,0.1c0.5,0,1,0.7,1.6,1.1
	c-0.5,0.5-1,1.3-1.6,1.4C571.9,165.3,569.6,165.2,566.8,165.2z"/>
<path style="fill:#FFFFFF;" d="M40.6,191.7c-1.6,0-3,0-4.6,0c0-9.8,0-19.4,0-29.3c1.4,0,2.9,0,4.6,0C40.6,172,40.6,181.7,40.6,191.7
	z"/>
<path style="fill:#FFFFFF;" d="M508.1,191.6c-1.6,0-3,0-4.7,0c0-9.8,0-19.5,0-29.3c1.5,0,3,0,4.7,0
	C508.1,172,508.1,181.8,508.1,191.6z"/>
<path style="fill:#FFFFFF;" d="M380.8,162.6c0,2.3,0,2.3-4.2,3c0,8.4,0,16.9,0,25.6c-1.6,0-2.8,0-4.4,0c0-8.6,0-17.1,0-25.8
	c-1.5-0.1-2.8-0.3-5.1-0.5c1-1.1,1.5-2.3,2.1-2.3C373,162.5,376.9,162.6,380.8,162.6z"/>
<path style="fill:#FFFFFF;" d="M146.4,132.3c-3.9-0.9-6.5-3.1-8.1-6.8c-0.7-1.6-1.5-3.1-2.1-4.7c-13.4-35.7-26.7-71.4-40.2-107
	c-0.5-1.3-1.9-2.2-2.8-3.3c-0.9,1.1-2.1,2-2.5,3.2C80.6,41.6,70.5,69.5,60.4,97.4c-3.2,8.7-6.7,17.3-10.1,25.9
	c-1.8,4.5-4.7,7.9-9.7,9.3c-0.8,0.2-1.3,1.7-2.3,3.2c11.2,0,21.3,0,31.6,0c1.2-3.8-1.8-3.2-3.5-3.6c-5.3-1.1-7.2-3.4-6.8-8.8
	c0.1-1.1,0.2-2.2,0.5-3.2c2.4-7.6,4.9-15.2,7.5-22.8c0.3-0.8,1.6-1.7,2.5-1.7c12.5-0.1,25.1-0.1,37.6,0c0.9,0,2.3,0.6,2.5,1.3
	c3,8.2,6.2,16.4,8.4,24.8c2.5,9.3-1.1,9.9-7.1,10.6c-0.3,0-0.6,0.2-1,0.2c-2.5,0.1-2.3,1.5-1.9,3.2c13.4,0,26.6,0,39.7,0
	C148.6,133,148.6,132.9,146.4,132.3z M71,87.9c6-17.1,11.9-33.7,17.7-50.3c0.3,0,0.5,0,0.8-0.1c6,16.7,11.9,33.4,18,50.4
	C95.2,87.9,83.3,87.9,71,87.9z"/>
<path style="fill:#FFFFFF;" d="M388.4,133.2c-3.1-0.9-5.1-2.8-6.2-5.7c-0.8-1.9-1.7-3.7-2.4-5.7c-10-26.7-19.9-53.4-30-80
	c-0.4-1.1-1.4-1.9-2.2-2.8c-0.7,0.9-1.7,1.8-2.1,2.8c-5,13.8-10,27.6-15,41.4s-10.2,27.5-15.3,41.2c-1.5,4-3.6,7.6-8.2,8.9
	c-0.6,0.2-0.8,1.4-1.4,2.4c8.5,0,16.3,0,24,0c0.2-0.3,0.3-0.6,0.5-0.9c-0.8-0.5-1.5-1.4-2.3-1.6c-5.7-1.4-7.3-3.5-5.7-9.3
	c1.6-5.9,3.6-11.7,5.7-17.5c0.3-0.8,1.7-1.7,2.5-1.7c9.4-0.1,18.8-0.1,28.2,0c0.9,0,2.2,0.9,2.5,1.7c2.1,5.5,4.3,11.1,5.9,16.8
	c2.1,7.5,1.4,8.4-6.1,10.1c-0.7,0.2-1.3,1.1-1.9,1.6c0.2,0.3,0.4,0.6,0.6,0.9c1.1,0,2.1,0,3.2,0c9.1,0,18.1,0,27.2,0
	c0.2-0.3,0.4-0.6,0.6-0.8C389.8,134.5,389.2,133.5,388.4,133.2z M330.3,98.9c4.6-13.2,9.2-26,14-39.7c4.9,13.8,9.5,26.6,14.2,39.7
	C349.1,98.9,340,98.9,330.3,98.9z"/>
<path style="fill:#FFFFFF;" d="M177.1,166c0-1.1-1.5-3-2.5-3.1c-3.6-0.4-7.2-0.1-10.8-0.1c0,9.7,0,19,0,28.6c3.5,0,6.6,0.1,9.7,0
	c2.2-0.1,3.7-1.1,3.7-3.6C177.1,180.5,177.3,173.3,177.1,166z M172.4,188.5c-1.4,0-2.7,0-4.2,0c0-7.7,0-15.3,0-23.1
	c1.4,0,2.6,0,4.2,0C172.4,173,172.4,180.6,172.4,188.5z"/>
<path style="fill:#FFFFFF;" d="M446.9,177c0-3.5,0.7-6.9,1-10.4c0.2-2.2-0.9-3.7-3-3.8c-3.4-0.2-6.8-0.1-10.3-0.1c0,9.7,0,19,0,28.6
	c1.5,0,2.8,0,4.4,0c0-4.4,0-8.5,0-12.7c1.7,0,3,0,4.6,0c0,3.2,0,6.1,0,9c0,3.9,0.3,4.2,4.5,3.5c0-0.3,0.1-0.6,0.1-0.9
	C447.6,185.8,446.9,181.4,446.9,177z M443.2,175.3c-1.3,0-2.7,0-4.2,0c0-3.2,0-6.4,0-9.9c1.5,0,2.7,0,4.2,0
	C443.2,168.7,443.2,171.9,443.2,175.3z"/>
</svg>
