<?xml version="1.0" encoding="utf-8"?>
<!-- Generator: Adobe Illustrator 26.1.0, SVG Export Plug-In . SVG Version: 6.00 Build 0)  -->
<svg version="1.1" id="Layer_1" xmlns="http://www.w3.org/2000/svg" xmlns:xlink="http://www.w3.org/1999/xlink" x="0px" y="0px"
	 viewBox="0 0 1056.6 202" style="enable-background:new 0 0 1056.6 202;" xml:space="preserve">
<g id="Livello_1_1_">
</g>
<g id="Layer_1_00000121280000816817959920000000882230360127541942_">
</g>
<g>
	<path style="fill:#FFFFFF;" d="M264.2,71.3h18.5c15.4,0,20,2.6,20,11c0,3.7-0.9,8.5-2,14.8c-4.2,20-5.2,24.3-26.5,24.3h-20.6
		L264.2,71.3z M274.9,109.1c6.1,0,6.2-0.5,8.8-12.8c1.1-5.1,1.7-8.1,1.7-10c0-2.8-1.5-2.9-5.1-2.9h-1.7l-5.5,25.7H274.9z"/>
	<path style="fill:#FFFFFF;" d="M303.6,112.6c0-2.7,0.3-5.9,1.1-9.8c2.8-13.7,4.2-19.2,20.9-19.2c13.1,0,16.5,2.1,16.5,8
		c0,2.8-1.1,7.6-1.9,11.2l-0.7,2.8h-20.2c-0.1,0.7-0.5,2.4-0.5,3c0,2.3,0.6,2.3,8.1,2.3c2.5,0,7.1-0.2,11.3-0.5l-2.1,10
		c-2.9,0.9-8.6,1.5-13.7,1.5C307.8,121.9,303.6,119.1,303.6,112.6z M326.9,99.5l0.2-1.2c0.3-1.7,0.5-2.5,0.5-3.3
		c0-1.5-0.7-1.5-2.6-1.5c-3.1,0-3.1,0.1-4.4,6H326.9z"/>
	<path style="fill:#FFFFFF;" d="M341.3,135.2l2-9.8h9.5c8.6,0,8.9-0.1,10-5.5c0.2-1.2,0.7-2.3,0.9-3.4H363c-3.3,3.7-6,4.2-10.5,4.2
		c-5.7,0-8.7-2-8.7-8.8c0-2.5,0.4-5.7,1.3-9.8c3.1-14.8,6.3-18.4,15-18.4c3.9,0,7.4,0.8,8.8,4.7h0.8l1.2-4.1h15l-7,33.1
		c-2.8,13.4-4.6,19-24,19C350,136.3,344.3,135.8,341.3,135.2z M358.3,73.7c0-1.3,0.2-2.7,0.6-4.2h8.1c-0.1,0.6-0.3,1.2-0.3,1.7
		c0,1.1,0.7,1.8,3.1,1.8c3.7,0,4.1-1.6,4.5-3.5h8.1c-1.2,6.5-3.7,11-13.8,11C360.8,80.5,358.3,77.8,358.3,73.7z M365.3,106.9
		c0.7-2,2-8.5,2-9.8s-0.7-1.5-2.4-1.5c-3.1,0-3.1,0.1-4.4,6.5c-0.6,2.6-0.9,4.1-0.9,5.1c0,1.4,0.7,1.5,2.5,1.5
		C364,108.7,364.7,108.6,365.3,106.9z"/>
	<path style="fill:#FFFFFF;" d="M386.3,112.6c0-2.7,0.3-5.9,1.1-9.8c2.8-13.7,4.2-19.2,20.9-19.2c13.1,0,16.5,2.1,16.5,8
		c0,2.8-1.1,7.6-1.9,11.2l-0.7,2.8H402c-0.1,0.7-0.5,2.4-0.5,3c0,2.3,0.6,2.3,8.1,2.3c2.5,0,7.1-0.2,11.3-0.5l-2.1,10
		c-2.9,0.9-8.6,1.5-13.7,1.5C390.4,121.9,386.3,119.1,386.3,112.6z M409.5,99.5l0.2-1.2c0.3-1.7,0.5-2.5,0.5-3.3
		c0-1.5-0.7-1.5-2.6-1.5c-3.1,0-3.1,0.1-4.4,6H409.5z"/>
	<path style="fill:#FFFFFF;" d="M432.8,84.2h15l-1,6.2h0.7c3.2-5.5,5.9-6.8,12.6-6.8l-2.9,13.5c-9.7,0-12,1.8-14.1,11.7l-2.7,12.4
		h-15.5L432.8,84.2z"/>
	<path style="fill:#FFFFFF;" d="M468.2,67.3H484l-11.4,54h-15.8L468.2,67.3z"/>
	<path style="fill:#FFFFFF;" d="M486.9,84.2h15.8l-7.8,37.1h-15.8L486.9,84.2z M490.4,67.3h15.8l-2.3,11h-15.8L490.4,67.3z"/>
	<path style="fill:#FFFFFF;" d="M537.3,84.1h-12.2l2.8-12.8h41.5l-2.8,12.8h-12.3l-7.9,37.2h-17L537.3,84.1z"/>
	<path style="fill:#FFFFFF;" d="M558.2,113.1c0-2.6,0.3-6,1.2-10.2c3.1-15.1,7-19.2,14.4-19.2c4,0,7.7,0.5,9.6,4.2h0.7l1.2-3.7h15.1
		l-7.8,37.1h-15l0.7-4.1h-0.8c-2.6,3.9-6,4.7-9.3,4.7C561.4,121.9,558.2,119.9,558.2,113.1z M579.6,108.1c0.7-2,2.3-9,2.3-10.8
		c0-1.5-0.5-1.6-2.4-1.6c-3,0-3.1,0.1-4.6,7.1c-0.7,2.9-0.9,4.6-0.9,5.7c0,1.4,0.7,1.5,2.5,1.5C578.5,109.9,579,109.7,579.6,108.1z"
		/>
	<path style="fill:#FFFFFF;" d="M617.8,96c0,0.7,0.4,0.7,2.8,1l7.2,1.1c3.5,0.5,6.2,1.5,6.2,6.4c0,1.3-0.2,3.1-0.7,4.9
		c-2,9.8-6.3,11.9-13.4,12.4l-5,13.2h-13.7v-0.4l8.4-12.9c-3.6-0.1-7.4-0.5-10-0.9l2-9.9c3.6,0.3,7.8,0.5,10,0.5
		c3.6,0,5.6,0,6.6-0.4c0.8-0.3,1-0.8,1-1.7c0-0.5-0.6-0.7-3.3-1.1l-8.4-1.2c-3.4-0.5-4.6-2.5-4.6-5.7c0-1.7,0.4-3.9,0.9-6.3
		c2.3-10.5,8.1-11.4,18.7-11.4c5.2,0,11.2,0.4,14.2,1l-2,9.9c-4.1-0.3-8.1-0.5-9.7-0.5c-3.6,0-5.5,0.1-6.3,0.5
		C617.9,94.8,617.8,95.3,617.8,96z"/>
	<path style="fill:#FFFFFF;" d="M647.8,67.3h15.8l-11.4,54h-15.8L647.8,67.3z"/>
	<path style="fill:#FFFFFF;" d="M660.3,113.1c0-2.6,0.3-6,1.2-10.2c3.1-15.1,7-19.2,14.4-19.2c4,0,7.7,0.5,9.6,4.2h0.7l1.2-3.7h15.1
		l-7.8,37.1h-15l0.7-4.1h-0.8c-2.6,3.9-6,4.7-9.3,4.7C663.5,121.9,660.3,119.9,660.3,113.1z M681.7,108.1c0.7-2,2.3-9,2.3-10.8
		c0-1.5-0.5-1.6-2.4-1.6c-3,0-3.1,0.1-4.6,7.1c-0.7,2.9-0.9,4.6-0.9,5.7c0,1.4,0.7,1.5,2.5,1.5C680.6,109.9,681.1,109.7,681.7,108.1
		z"/>
	<path style="fill:#FFFFFF;" d="M709,84.2h15l-1,6.2h0.7c3.2-5.5,5.9-6.8,12.6-6.8l-2.9,13.5c-9.7,0-12,1.8-14.1,11.7l-2.7,12.4
		h-15.5L709,84.2z"/>
</g>
<path style="fill:#FFFFFF;" d="M180.4,18H59.1c-1.4,0-2.7,0.7-3.4,1.9L21.2,70.6c-1,1.5-0.9,3.5,0.2,4.9L116.5,193
	c1.7,2,4.8,2,6.4,0l95.1-117.4c1.1-1.4,1.3-3.4,0.2-4.9l-34.4-50.7C183.1,18.7,181.8,18,180.4,18z M173.8,34.6l21.8,33.1H172
	l-17.8-33.1H173.8L173.8,34.6z M104.1,34.6h31.3l17.8,33.1H86.3L104.1,34.6z M65.8,34.6h19.6L67.5,67.7H44L65.8,34.6z M50.9,84.2
	h17.7l23.5,55.1L50.9,84.2z M86.4,84.2h66.7L119.8,168L86.4,84.2L86.4,84.2z M147.3,139.3l23.5-55.1h17.7L147.3,139.3z"/>
</svg>
