<?xml version="1.0" encoding="utf-8"?>
<!-- Generator: Adobe Illustrator 24.3.0, SVG Export Plug-In . SVG Version: 6.00 Build 0)  -->
<svg version="1.1" id="Layer_1" xmlns="http://www.w3.org/2000/svg" xmlns:xlink="http://www.w3.org/1999/xlink" x="0px" y="0px"
	 viewBox="0 0 257 87" style="enable-background:new 0 0 257 87;" xml:space="preserve">
<path style="fill:#C1230D;" d="M58.7,12.8C47.1,33.5,35.7,54,24.1,74.5C7.8,62.9,2.8,39.2,15,21.5C27.9,2.9,53.2-1.1,71,12.6
	S89,49.2,81.1,62C73.7,45.6,66.2,29.3,58.7,12.8z"/>
<path style="fill:#C1230D;" d="M36.1,80.4c7.6-17.5,15-34.6,22.6-52c1.7,3.8,3.2,7.2,4.7,10.8c4.2,9.5,8.5,19,12.7,28.5
	c0.4,0.8,0.4,1.3-0.4,2.1c-8.2,8.5-18.2,12.7-30.2,12.5C42.5,81.9,39.3,81.3,36.1,80.4z"/>
<g>
	<path style="fill:#FFFFFF;" d="M107.8,26.8h3.7l11.4,20.6h-3.8l-2.6-5.1h-13.9l-2.6,5.1h-3.4L107.8,26.8z M115.1,39.7l-5.5-10.5
		l-5.5,10.5H115.1z"/>
	<path style="fill:#FFFFFF;" d="M130.7,33v4.4h10.8c3.2,0,4.1,1,4.1,4v2c0,3.1-0.9,4-4.1,4h-10.3c-3.2,0-4.1-0.9-4.1-4v-0.5l2.9-0.6
		v2.5h12.7v-4.7h-10.9c-3.2,0-4.1-0.9-4.1-4v-1.6c0-3.1,1-4,4.1-4h9.4c2.9,0,4.1,0.8,4.1,3.7v0.4l-2.9,0.6V33H130.7z"/>
	<path style="fill:#FFFFFF;" d="M152.4,30.5h14.3c2.6,0,3.7,0.9,3.7,3.3v3.8c0,2.4-1.2,3.2-3.7,3.2h-11.1v6.6h-3.2V30.5z
		 M155.6,32.9v5.3h9.6c1.3,0,1.9-0.3,1.9-1.6v-2.2c0-1.3-0.6-1.6-1.9-1.6L155.6,32.9L155.6,32.9z"/>
	<path style="fill:#FFFFFF;" d="M176,30.5h17V33h-13.8v4.3h8.3v2.5h-8.3v5.1h14v2.5H176V30.5z"/>
	<path style="fill:#FFFFFF;" d="M201.4,33v11.8h11.8v-4l3.2,0.6v2c0,3.1-1,4-4.1,4h-9.9c-3.3,0-4.1-0.9-4.1-4v-8.9
		c0-3.1,0.9-4,4.1-4h9.9c3.1,0,4.1,0.9,4.1,4v1.6l-3.2,0.5V33H201.4z"/>
	<path style="fill:#FFFFFF;" d="M230.7,47.4h-3.2V33h-8v-2.5h19.2V33h-8V47.4z"/>
</g>
<g>
	<path style="fill:#FFFFFF;" d="M99.9,57.1v8.1h9.1v-3.1h-4.7v-1.6h6.9v3.7c0,2.1-0.7,2.7-2.8,2.7h-7.8c-2.2,0-2.8-0.6-2.8-2.7v-6.1
		c0-2.1,0.7-2.8,2.8-2.8h7.8c2,0,2.8,0.6,2.8,2.6c0,0.1,0,0.2,0,0.3l-2.2,0.4V57L99.9,57.1L99.9,57.1z"/>
	<path style="fill:#FFFFFF;" d="M129.5,55.4h2l6.8,11.5h-2.4l-1.5-2.7h-8L125,67h-2.2L129.5,55.4z M133.5,62.6l-3.1-5.5l-3,5.5
		H133.5z"/>
	<path style="fill:#FFFFFF;" d="M152.3,59.2V67h-1.8V55.4h1.8l5.7,7.5l5.3-7.5h2V67h-2v-7.8c0-0.5,0-1,0.1-1.6
		c-0.3,0.8-0.5,1.3-0.8,1.6l-4.4,6h-0.6l-4.6-5.9c-0.4-0.4-0.6-1-0.8-1.7C152.2,58.3,152.3,58.9,152.3,59.2z"/>
	<path style="fill:#FFFFFF;" d="M179.3,67V55.4h2.2V67H179.3z"/>
	<path style="fill:#FFFFFF;" d="M197.5,59.8V67h-2V55.4h1.7l8.5,7.5c0.5,0.5,1,1,1.4,1.6c-0.1-0.7-0.2-1.4-0.2-2.2v-7h2V67h-1.5
		l-8.6-7.7c-0.5-0.5-1-1-1.4-1.6C197.5,58.4,197.5,59.1,197.5,59.8z"/>
	<path style="fill:#FFFFFF;" d="M224.8,57.1v8.1h9.1v-3.1h-4.7v-1.6h6.9v3.7c0,2.1-0.7,2.7-2.8,2.7h-7.8c-2.2,0-2.8-0.6-2.8-2.7
		v-6.1c0-2.1,0.7-2.8,2.8-2.8h7.8c2,0,2.8,0.6,2.8,2.6c0,0.1,0,0.2,0,0.3l-2.2,0.4V57L224.8,57.1L224.8,57.1z"/>
</g>
<rect x="95.3" y="50.6" style="fill:#BF2612;" width="145.7" height="1.3"/>
</svg>
