<?xml version="1.0" encoding="UTF-8"?> <svg xmlns="http://www.w3.org/2000/svg" xmlns:xlink="http://www.w3.org/1999/xlink" version="1.1" id="Layer_1" x="0px" y="0px" viewBox="0 0 1000 1000" style="enable-background:new 0 0 1000 1000;" xml:space="preserve"> <path style="fill:#FFFFFF;" d="M812.3,897.4V670.1c0-5.2,2.7-10.1,7-13.1l48.4-32.5c4.4-3,7-7.8,7-13.1v-33.1 c0-5.5-2.8-10.6-7.5-13.6l-123.7-75.1c-4.4-2.7-7.2-7.3-7.5-12.5L718,202.2c-1.3-18,13-33.3,30.9-33.6l49.3-0.8 c17.2-0.2,31.1-14.4,31.1-31.5v-26.1c0-17.5-14.1-31.7-31.7-31.5h-36.1h-0.2h-74.8h-25.1c-0.9,0-1.7,0-2.7,0.2L482,79 c15.5,2,27.2,15.3,27.2,31.2v26.1c0,12.5-7.7,20.6-7.7,20.6c-5.6,6.6-14.1,10.8-23.4,10.9l-49.3,0.8c-18,0.2-32.2,15.5-30.9,33.6 l17.8,275.2c0,6.2,5.8,11.4,7.5,12.5l16.4,9.8h25.6h225.8l109.6,67.6H550c2.8,3,4.4,6.9,4.4,11.1v6.6h292.3c0.9,0,1.6,0.6,1.6,1.6 v15.9c0,0.9-0.6,1.6-1.6,1.6H554.4v7.5c0,5.3-2.7,10.1-7,13.1L499,657.1c-4.4,3-7,7.8-7,13.1v227.3c0,12.3-9.4,22.3-21.4,23.6h77.9 c0.8,0,1.6,0.2,2.2,0.2h46.2h191.7C801.7,921,812.3,910.5,812.3,897.4z M445,441.4l-15.5-238.2c-0.6-9.1,6.7-16.7,15.8-16.7h7.8 h185.6c8.3,0,15.1,6.4,15.8,14.7l15.5,238.2c0.6,9.1-6.6,16.7-15.6,16.7H468.5h-7.8C452.3,456.1,445.4,449.7,445,441.4z M587,747.1 c0-8.7,7-15.8,15.8-15.8h124.7c8.7,0,15.8,7,15.8,15.8v83.7c0,8.7-7,15.8-15.8,15.8H602.8c-8.7,0-15.8-7-15.8-15.8V747.1L587,747.1z "></path> <path style="fill:#FFFFFF;" d="M467.1,897.4V670.1c0-5.2,2.7-10.1,7-13.1l48.4-32.5c4.4-3,7-7.8,7-13.1v-33.1 c0-5.5-2.8-10.6-7.5-13.6l-123.7-75.1c-4.4-2.7-7.2-7.3-7.5-12.5l-18.1-274.9c-1.2-18,13-33.3,30.9-33.6l49.3-0.8 c17.2-0.2,31.1-14.4,31.1-31.5v-26.1c0-17.5-14.2-31.7-31.7-31.5H341.1h-24.7c-9.8,0-19.4,3.3-27.2,9.2L117.9,219.8 c-11.1,8.6-17.5,21.7-17.5,35.4v239.8c0,8.7,2.7,17.3,7.5,24.7l66.8,101c4.8,7.3,7.5,15.9,7.5,24.7v252.1 c0,13.1,10.6,23.6,23.6,23.6h237.8c0.2,0,0.2,0,0.3,0C456.7,920.8,467.1,910.4,467.1,897.4z"></path> </svg> 