<?xml version="1.0" encoding="UTF-8"?> <svg xmlns="http://www.w3.org/2000/svg" xmlns:xlink="http://www.w3.org/1999/xlink" version="1.1" id="Layer_1" x="0px" y="0px" viewBox="0 0 1000 1000" style="enable-background:new 0 0 1000 1000;" xml:space="preserve"> <path style="fill:#FFFFFF;" d="M307.6,383.8c52.1,0,104.2,0,156.2,0c10.6,23.5,21.3,47,33.8,74.7c12.3-27.6,22.7-51.2,33.2-74.7 c52.1,0,104.2,0,156.2,0c-22,51-43.6,102.1-66.3,152.9c-25.4,56.8-70.6,80.5-133.1,77.6c-56.5-2.7-93.1-30.5-114.7-80.1 C351.1,484.1,329.4,434,307.6,383.8z"></path> <path style="fill:#FFFFFF;" d="M954.9,614.2c-55.8-0.1-111.6,0-167.3-0.2c-53.9-0.2-86.9-32-87.8-84.9c-0.8-48.4-1-96.8-1.5-145.1 c48.4,0,96.7,0,145.1,0c0,47.1,0,94.1,0,142.6c39.4,0,75.5,0,111.6,0C954.9,555.7,954.9,584.9,954.9,614.2z"></path> <path style="fill:#FFFFFF;" d="M296.5,383.8c-0.3,45.6-0.7,91.3-0.9,136.9c-0.3,62-31.4,93.2-93.5,93.2c-49.2,0-98.5-0.2-147.7-0.4 c-1.7,0-3.4-1-6.9-2.1c0-26.4,0-53.3,0-83.4c33.1,0,67,0,103.9,0c0-50,0-97.1,0-144.2C199.7,383.8,248.1,383.8,296.5,383.8z"></path> </svg> 