<?xml version="1.0" encoding="UTF-8"?> <svg xmlns="http://www.w3.org/2000/svg" xmlns:xlink="http://www.w3.org/1999/xlink" version="1.1" id="Layer_1" x="0px" y="0px" viewBox="0 0 1000 1000" style="enable-background:new 0 0 1000 1000;" xml:space="preserve"> <path style="fill:#FFFFFF;" d="M519.9,359.7c0.6,82.7,1.2,165.4,1.8,248.1c0,4.6,0.3,8.3-6.5,8.2c-34.5-0.7-69-1-103.4-1.5 c-0.8,0-1.7-0.4-3.6-0.8c0-14.8,0-29.9,0-44.9c-0.1-64.1-0.2-128.2-0.3-192.3c0-5.6,0.9-11.3,1.3-16.9 C446.2,359.7,483,359.7,519.9,359.7z M459.4,547.1c0-50.5,0-99.9,0-150.2c-12,0-22.9,0-34,0c0,61.5,0,122.6,0,183.3 c25.5,0,50.4,0,75.2,0c0.4-8.7,0.5-16.5,1.4-24.1c0.8-6.7-1-9.4-8.2-9.1C482.8,547.5,471.9,547.1,459.4,547.1z"></path> <path style="fill:#FFFFFF;" d="M48.2,359.7c16.9,0.6,33.7,1.3,50.6,1.8c11.4,0.3,22.9,0.5,34.3,0.6c6.8,0.1,10.7,2.3,10.2,10.2 c-0.9,14.8-1.7,29.7-1.7,44.6c0,25.1,0.9,50.2,0.9,75.3c0.1,21.4-0.8,42.9-0.7,64.3c0,16.4,0.9,32.9,1.3,49.3 c0.3,11.3,0.2,11.7-11.3,11.3c-11.3-0.4-22.6-2.5-33.9-2.3c-16.2,0.3-32.4,2.2-48.6,2.9c-9.8,0.4-19.5-0.2-29.3-0.3 c-5.7,0-8.2-2.5-8.2-8.4c0.6-81.5,1.1-163,1.6-244.6c0-0.8,0.4-1.6,0.6-2.5c3.3-0.7,6.6-1.4,9.9-2.1C32,359.7,40.1,359.7,48.2,359.7 z M62,583.1c0-22.5,0-44.8,0-67c1-0.3,1.9-0.6,2.9-0.9c1.4,2.3,3.3,4.4,4,6.8c5.2,17.2,10.1,34.6,15.6,51.8c0.9,2.9,4.4,6.8,6.9,7 c11.4,0.8,22.8,0.3,33.7,0.3c0-8.6,0-16.2,0-23.9c0.5-0.1,1.1-0.1,1.6-0.2c1.7,7.7,3.5,15.4,5.4,23.7c0-23,0-44.7,0-66.4 c-0.6,0.1-1.1,0.2-1.7,0.2c-1,5-2,10.1-3,15.1c-0.6-0.2-1.2-0.3-1.9-0.5c-0.9-2.1-1.8-4.3-3.3-7.6c-2.6,8-4.7,14.5-7.4,22.9 c-5.3-15.5-9.9-29-13.9-41c4.7-6.3,9.6-11,12.4-16.8c7.4-15.7,8.9-32.5,7-49.5c-1.8-16-17.7-37.3-41-38.8c-14.3-1-28.8-0.4-43.2-0.2 c-6.5,0.1-9.8,2.7-9.6,10.4c1,39.9,1.5,79.8,2,119.6c0.2,15.7,0.2,31.4,0,47c-0.1,5.7,1.7,8.4,7.9,8.1 C44.4,582.8,52.4,583.1,62,583.1z"></path> <path style="fill:#FFFFFF;" d="M976.1,402.7c-11.8,32.4-23.6,64.8-35.2,97.3c-1.1,3.1-0.8,6.8-0.8,10.2c-0.1,23.2,0,46.3,0,70.3 c-10.5,0-22.2,0-35.1,0c-0.8-18.5-1.5-37.6-2.5-56.6c-0.6-11.8,0.2-24.2-3.2-35.2c-8.5-27.8-19.2-55-28.8-82.5 c-1-2.8-1.1-6-1.9-10.3c11.6,0,22.2-0.3,32.7,0.3c1.9,0.1,4.3,3.2,5.2,5.5c6,15,11.7,30.2,17.8,46.3c4.8-17.6,9.3-34.4,14.1-52.2 c12.5,2,25.5-3,37.6,3.5C976.1,400.4,976.1,401.5,976.1,402.7z"></path> <path style="fill:#FFFFFF;" d="M393.4,615.7c-12.9,0-24.5,0-36.1,0c-20.5,0-41.1,0.1-61.6,0.2c-13.3,0-14-0.2-14-13.2 c0-37.7,0.6-75.3,0.9-113c0.3-34.1,0.7-68.1,0.8-102.2c0-6-0.8-12-1.2-18c-0.3-4.9,1.6-7.4,7-7.3c32,0.5,63.9,0.9,95.9,1 c7.1,0,8.5,3.1,8.5,9.3c-0.1,68.5-0.1,137,0,205.5C393.4,589.8,393.4,601.5,393.4,615.7z M305.6,579.5c23.1,0,45.9,0,68.8,0 c0-11.1,0-21.6,0-32.8c-11.6,0-22.7,0-34.5,0c0-13.6-0.2-26.4,0.3-39.2c0.1-1.7,3.9-4.6,6.2-4.7c9.6-0.5,19.2-0.2,29.1-0.2 c0-11,0-21.5,0-33.1c-11.9,0-23.2,0-34.2,0c0-13.9,0-26.6,0-40.3c12.2,0,23.6,0,35.4,0c0-11.1,0-21.3,0-32c-23.8,0-47,0-71,0 C305.6,458.2,305.6,518.8,305.6,579.5z"></path> <path style="fill:#FFFFFF;" d="M267.2,615.9c-17.9,0-35.7,0-53.4,0c-16.1,0-32.2-0.2-48.3,0c-6.4,0.1-8.3-2.4-8.5-8.6 c-0.6-16.5-2.4-32.9-2.8-49.4c-0.3-12.2,1.3-24.5,1.5-36.7c0.6-36.6,1-73.2,1.3-109.8c0.1-13.7,0.1-27.4-0.1-41.1 c0-4.5,0.4-8.1,6.2-8c33.3,0.5,66.7,0.9,100,1.3c1.1,0,2.2,0.4,4.1,0.8C267.2,447.6,267.2,530.7,267.2,615.9z M179.5,579.5 c23.8,0,46.7,0,69.7,0c0-11.1,0-21.5,0-32.9c-11.9,0-23.2,0-35.1,0c0-12.3,0.4-23.7-0.1-35.1c-0.3-7.4,2.7-9.4,9.6-9.1 c8.7,0.5,17.5,0.1,26.2,0.1c0-11.8,0-21.9,0-33c-11.6,0-22.7,0-33.7,0c0-13.8,0-26.8,0-40.6c12.2,0,23.6,0,35.4,0 c0-11,0-21.1,0-31.9c-20.3,0-40-0.2-59.8,0.1c-11.7,0.2-11.7,0.6-11.7,12.5c-0.2,40.4-0.3,80.7-0.4,121.1 C179.5,546.9,179.5,562.9,179.5,579.5z"></path> <path style="fill:#FFFFFF;" d="M550.8,394.4c23.7,1,46.2,0.4,68.1,3.5c23.6,3.3,33.9,16.8,37.7,40.4c2.8,17.9,3.3,35.3-3.6,52.3 c-7.3,18-21,27.2-40.2,29c-6.3,0.6-12.6,1.2-19.9,1.9c0,19.7,0,39.2,0,59.2c-13.1,0-25.1,0.1-37.1-0.2c-1.4,0-3.4-2.4-4-4.1 c-0.7-2-0.2-4.5-0.2-6.8c-0.3-54.2-0.5-108.5-0.8-162.7C550.8,403.7,550.8,400.3,550.8,394.4z M590.7,434.3 c0,15.6-0.3,29.8,0.2,43.9c0.2,5.2,4.1,3.5,6.9,1.7c8.7-5.6,17.2-11.4,25.9-17c5.5-3.5,4.6-6.3-0.3-9.5 c-8.4-5.4-16.7-11.1-25.2-16.5C596.5,435.9,594.2,435.5,590.7,434.3z"></path> <path style="fill:#FFFFFF;" d="M884,580.8c-11,0-20.5,0.3-29.9-0.2c-1.9-0.1-4.4-3.1-5.2-5.3c-2.4-7-3.8-14.4-6.4-21.4 c-0.8-2.3-3.9-5.2-6.1-5.3c-9.1-0.6-18.3-0.3-28.5-0.3c-1.2,9.8-2.4,19.9-3.7,31.1c-10.9,0-21.9,0-33.6,0 c9.3-60.6,18.6-121,28-182.1c15.1,0,29.9,0,45.8,0C857.6,458.1,870.6,518.7,884,580.8z M823,457.6c-0.8,0.1-1.7,0.1-2.5,0.2 c-2.5,19.6-5,39.2-7.6,59.5c7.5,0,13.3,0,21,0C830.1,496.9,826.5,477.2,823,457.6z"></path> <path style="fill:#FFFFFF;" d="M676.4,396.8c11.5,0,22.2,0,34,0c0,50.3,0,99.7,0,150.2c12.2,0,23.3,0.3,34.4-0.1 c6.3-0.2,8.9,1.5,8.4,8.2c-0.6,8-0.1,16-0.1,25c-26.3,0-51.4,0-76.7,0C676.4,519.1,676.4,458,676.4,396.8z"></path> <path style="fill:#FFFFFF;" d="M62,435.9c11.9,7.9,22,14.5,33.8,22.3c-11.9,7.9-22,14.6-33.8,22.4C62,464.9,62,451.6,62,435.9z"></path> </svg> 