<?xml version="1.0" encoding="UTF-8"?> <svg xmlns="http://www.w3.org/2000/svg" xmlns:xlink="http://www.w3.org/1999/xlink" version="1.1" id="Layer_1" x="0px" y="0px" viewBox="0 0 1000 1000" style="enable-background:new 0 0 1000 1000;" xml:space="preserve"> <path style="fill:#FFFFFF;" d="M962.5,451.6c-2.5,4.8-4.8,9.6-7.4,14.3c-7.3,13.2-19.2,20-33.5,23.2c-42.7,9.5-85.4,18.9-128,28.6 c-19.1,4.4-37.8,10.1-56.9,14.1c-9,1.8-17.9,3.4-26.7,6.3c-9.6,3.2-19.7,4.9-29.6,7.2c-89.2,20.7-178.5,41.3-267.7,62 c-9.9,2.3-19.7,4.8-29.6,7.1c-74.9,17.5-149.9,35-224.8,52.5c-9.7,2.3-19.5,4.3-29.2,6.4c-23.6,5.1-46.6-11.1-51.8-32.6 c-11-45.5-22.7-90.9-32.1-136.8c-3.2-15.8-6.4-31.6-4.3-49c2.4-20.1,12.9-29.7,28.8-34.5c24.6-7.5,50-12.6,75.3-17.9 c13.3-2.8,26.3-6.3,39.5-9.5c22.8-5.5,45.8-10.4,68.7-15.8c45.1-10.5,90.2-21.3,135.3-31.8c121.5-28.4,243-56.8,364.5-85.2 c35.3-8.3,70.6-16.7,106-24.5c5.1-1.1,10.7,0.7,16.1,0.4c2.4-0.1,4.9-3.3,7-2.9c5.4,1,11,2.5,15.9,5c17.4,8.6,23.7,21.1,21,37.1 c2.7,3.5,5.4,5.6,6,8.2c12.7,52.5,25.2,105.1,37.7,157.6C962.5,444.6,962.5,448.1,962.5,451.6z M938.8,429.2 c-15.4-41.7-22-86.8-33.1-130.8c0.9-0.5,1.8-0.9,2.6-1.4c1.8,2,3.6,4.1,5.4,6.1c0.7-1.8,2.2-5.1,2-5.2c-3.2-1.7-6.7-3-12.1-5.3 c3.4-2.8,7.2-5.8,11-8.9c-11.7,3-12.8-5.2-14.3-11.7c-1.9-8-16.7-18.1-25.2-16.2c-25.5,5.7-51,11.5-76.4,17.4 c-52.1,12.2-104.2,24.6-156.4,36.7c-100.7,23.4-201.5,46.5-302.2,69.9c-76.7,17.9-153.3,36.2-230,54c-10.4,2.4-21.7,1.5-32,4.2 c-12.4,3.2-20.5,18.2-17.3,32c4.6,19.7,7.5,39.7,13.5,59.1c3.9,12.7,6.1,25.9,9.2,38.8c3.4,14.3,7.1,28.6,10.4,43 c2.9,12.5,5.6,25.1,7.6,34.1c7.3,3.4,12.6,5.9,17.2,8.1c3.3-1,6.7-2.3,10.2-3.1c22.7-5.3,45.4-10.4,68.1-15.7 c54.4-12.7,108.7-25.4,163.1-38.1c83.8-19.6,167.6-39.1,251.3-58.7c22.8-5.3,45.6-10.8,68.4-16.1c79.4-18.4,158.9-36.8,238.4-55.1 c10.8-2.5,20.3-11.2,20.8-21.4c0.3-5.5-1.8-11-2.9-17.2C938.6,429.1,940.1,429.8,938.8,429.2z"></path> <path style="fill:#FFFFFF;" d="M288.2,815.8c-5.2-2.5-10.7-4.6-15.6-7.6c-18.8-11.3-30.6-26.3-36.6-48.7c-4.6-17.1-5.5-32.6-1-48.7 c5.2-18.5,16.8-31.9,38.8-39.4c-1,6.1-1.9,10.7-2.4,15.3c-0.5,4.6-1.8,9.4-0.9,13.8c5.2,24.1,11.4,48,16.3,72.2 c2.4,11.8,4.3,22.9,15.4,30.5c4.4,3,5.6,9.1-1.4,12.6C296.6,815.8,292.4,815.8,288.2,815.8z"></path> <path style="fill:#FFFFFF;" d="M427.6,638.7c6.3,14.5,11.9,28.7,18.7,42.3c12,23.8,24.6,47.3,37.3,70.8c1.3,2.4,5.1,3.2,7.5,5.2 c1.7,1.4,4.1,3.6,4,5.1c-0.2,1.8-2.7,4.3-4.6,4.8c-17,4.2-34,8.3-51.2,12c-4.6,1-10.6-2-6.8-6.4c10-11.6-1.2-18.3-4-27.8 c-8.8,1.9-17.1,3.7-26,5.7c-3.1-18.3,14-10,20.6-17.2c-5.5-11.4-11.4-23.6-17.3-35.7c-5.7-11.7-11.6-23.2-17-34.9 c-4.9-10.7-3-14.2,8.4-16.8C406.7,643.4,416.2,641.3,427.6,638.7z"></path> <path style="fill:#FFFFFF;" d="M837.1,689c-4.4-6.1-3.3-9.9,2.2-14.4c11.7-9.6,9.4-22.5-4.9-27.4c-8.9-3-18.5-3.8-27.6-6.2 c-16.8-4.5-32.6-10-40.4-28.1c-11.6-27,3.5-56.8,36.2-63.6c-2.1,5.8-2.7,10.6-5.3,14c-8.1,10.6-5,22.2,8,26.2 c8.3,2.6,16.8,4.7,25.4,6.3c29.6,5.6,43.8,18.5,45.6,42.1C878,661,864,679.6,837.1,689z"></path> <path style="fill:#FFFFFF;" d="M565.4,606.5c16-3.8,31.2-7.5,46.6-10.7c2.4-0.5,5.6,1.6,7.8,3.3c0.5,0.4-1.4,3.9-2.1,6.1 c-1.3,4.5-4.3,9.4-3.5,13.5c3.9,19.5,10,38.7,13,58.4c1.6,10.3,5.6,19.7,7.6,29.7c1.3,6.5,1.9,13.5,11.1,14.1 c1.3,0.1,3.6,3.1,3.4,4.3c-0.5,2-2.3,4.9-4.1,5.3c-17.7,4.5-35.4,8.7-53.2,12.6c-1.8,0.4-5.1-1.1-6.1-2.7c-0.8-1.4-0.1-5.4,1.3-6.2 c6.9-4.3,4.9-10.1,3.5-15.9c-5.6-23.9-12.4-47.5-16.3-71.7C572.4,633.4,565.9,621.3,565.4,606.5z"></path> <path style="fill:#FFFFFF;" d="M687.9,578c7.3,31,14.6,61.6,21.8,92.3c1.6,6.8,3.3,13.6,4.7,20.5c1.1,5,5,10.6-3.3,14 c-1.4,0.6-0.5,6.8-0.7,11c-12,2.8-24.5,6-37.1,8.6c-2.5,0.5-5.5-1.4-8.3-2.2c0.9-2.6,2-5.1,2.8-7.8c1.1-3.6,3.4-7.7,2.6-11 c-7-31.4-14.3-62.7-22-94c-0.8-3.3-4.4-6.1-7-8.9c-1.9-2.1-4.3-3.8-6.5-5.6c2.4-2.1,4.5-5.4,7.3-6.1C657,584.9,672,581.6,687.9,578z "></path> <path style="fill:#FFFFFF;" d="M562,752.6c-4.5-6.5-8-11.3-11.2-16.3c-8.8-13.9-17.6-27.8-26-41.9c-1.7-3-1.6-7-2.4-11 c-2-1.3-5.8-2.5-7.6-5.2c-6.5-9.5-12.2-19.6-18.5-29.3c-3.9-6-6.8-13.4-16.4-12.4c-1.3,0.1-4.2-2.8-4-3.6c0.7-2.3,2.3-5.7,4.1-6.2 c14.8-3.9,29.7-7.5,44.7-10.4c2.1-0.4,5.7,3.2,7.4,5.7c9.2,13.9,18,28.1,29,41.9c0-7.8,0-15.6,0-26.3 C570.2,657.6,570.6,730.5,562,752.6z"></path> <path style="fill:#FFFFFF;" d="M312.7,811.2c1.1-5.5,2.1-9.7,2.8-13.8c0.7-4.3,1.9-8.8,1.3-13c-1.1-7.6-3.5-15-5.2-22.5 c-1.5-6.4-1.7-13.7-11.7-12.4c-1.4,0.2-4.4-2.9-4.6-4.6c-0.1-1.7,2.2-4.8,4-5.2c15.6-4,31.2-7.8,47-11c1.3-0.3,5.5,5.9,5,6.6 c-6.1,8.2-1.1,16.1,0,24.1c1.1,8,5.4,18.7,1.9,23.6c-7,9.8-18.3,16.6-28.2,24.2C322.5,809,318.7,809.3,312.7,811.2z"></path> <path style="fill:#FFFFFF;" d="M389.5,677.8c2,8.8,5.4,17.6,5.6,26.4c0.3,17.9-1,35.7-1.8,53.6c-0.4,8.9-0.2,17.1,11.5,18.8 c1.8,0.3,4.4,3,4.6,4.8c0.2,1.5-2.3,4.4-4.2,4.9c-9.4,2.6-19,4.9-28.6,6.7c-2,0.4-5.2-1.5-6.6-3.3c-0.7-0.8,1-4.7,2.5-5.9 c8.7-6.4,10.1-15.7,10.2-25.3c0.2-26.6,0.1-53.2,0.1-79.8C385,678.5,387.3,678.2,389.5,677.8z"></path> <path style="fill:#FFFFFF;" d="M339.2,707.5c-1.2,1.5-2.6,4.6-4.4,4.9c-2.2,0.4-5.5-1.1-7-2.8c-3.1-3.7-5.1-8.3-8-12.3 c-7.5-10.3-17.2-17-30.5-18c-2.4-0.2-4.6-3.4-6.9-5.3c2.1-1.8,4-4.6,6.4-5c4.8-0.9,9.8-0.8,14.7-0.4c6.8,0.6,13.3,1.5,17-6.4 c0.3-0.6,7.7,0.6,8.1,2C332.4,678.1,335.5,692.1,339.2,707.5z"></path> <path style="fill:#FFFFFF;" d="M501,672.8c12.8,14.8,18.6,30.4,21.9,47.4c2.1,11.2,5.4,21.6,18.4,25.7c6,1.9,4.7,7.1-0.4,8.8 c-9.3,3-18.9,4.9-28.5,6.8c-1.9,0.4-5.2-1-6.1-2.6c-0.8-1.3,0.4-4.8,1.8-6.1c8.6-8,7.1-17.7,5-27.4 C509.5,708.5,505.4,691.8,501,672.8z"></path> <path style="fill:#FFFFFF;" d="M825.9,691.3c-5.9,0-11.9-0.6-17.7,0.2c-4.6,0.6-10,1.6-13.2,4.5c-5.4,4.9-8.4,3.1-9.9-2.3 c-3.5-12.8-6.6-25.7-9.1-38.7c-0.4-2.1,2.2-6.5,4.1-7c2.1-0.5,5.7,1.7,7.4,3.8c5.3,6.4,9.3,14,15.2,19.8c4,4,10.3,5.5,15.3,8.6 c3.7,2.2,6.9,5.1,10.4,7.7C827.6,689,826.8,690.1,825.9,691.3z"></path> <path style="fill:#FFFFFF;" d="M769.8,701.6c-14,3.4-27.1,6.5-40.4,9.8c-2.7-5.2-5.4-9,1.3-12.6c11.7-6.2,17.4-16.5,19.8-29.4 c0.6-3.2,3.7-5.9,5.7-8.9c2,2.9,4.8,5.6,5.7,8.7C764.8,679.6,767,690.2,769.8,701.6z"></path> <path style="fill:#FFFFFF;" d="M806.7,546.5c7.3,0,12.2-0.3,16.9,0.1c6.6,0.5,14.2,4.6,17.3-5.5c2.9,1.2,7.9,1.7,8.4,3.6 c3.3,11.4,5.8,23,8,34.7c0.4,2.1-1.8,6.5-3.1,6.6c-2.5,0.3-6.7-1-7.7-3c-7-14.1-17.4-23.2-33.2-26.2 C811,556.3,809.6,551.2,806.7,546.5z"></path> <path style="fill:#FFFFFF;" d="M736.4,566.5c3,12.2,6.1,23.8,8.6,35.6c0.4,1.9-1.7,5.1-3.5,6.3c-1,0.7-4.9-0.9-5.9-2.4 c-7.8-12.4-18.3-19.7-33.5-20.1c-2.1-0.1-4.2-4.9-7.2-8.8C709.8,573.2,722.6,570,736.4,566.5z"></path> <path style="fill:#FFFFFF;" d="M740.6,660.2c-0.9,1.3-2,4.2-3.6,4.6c-1.7,0.4-4.4-1.1-6-2.5c-5.7-4.9-11.6-9.6-16.3-15.3 c-2.2-2.7-2.9-7.8-2-11.3c1.6-6.9,4.7-13.4,7.4-20c0.9-2,2.5-4.7,4.2-5.1c1.5-0.3,4.8,1.9,5.2,3.6 C733.3,629.1,736.7,644.1,740.6,660.2z"></path> <path style="fill:#FFFFFF;" d="M763.1,464.4c-9.8,2.5-16.8,4.9-24,5.7c-3,0.3-7.1-2.2-9.4-4.7c-29.2-30.6-58.2-61.6-87.5-92.1 c-3.6-3.8-9.2-5.6-13.6-8.6c-2.1-1.4-5.7-3.9-5.4-5c0.7-2.5,3.1-5.8,5.4-6.4c14.8-4,29.8-7.6,44.9-10.6c2.3-0.5,5.9,1.6,7.8,3.5 c22.2,23.3,45.9,45.6,65.4,71C756.2,429.5,757.7,447.9,763.1,464.4z"></path> <path style="fill:#FFFFFF;" d="M292.2,431.6c9.3,38.7,18.2,75.8,27,113c1.3,5.3,1.8,10.3,9,10.8c1.7,0.1,4.7,3.3,4.5,4.6 c-0.4,2.2-2.6,5.4-4.6,5.9c-17.3,4.4-34.7,8.4-52.1,12.1c-1.9,0.4-4.9-0.9-6.3-2.4c-0.9-1-0.6-5,0.3-5.5c11.1-6,4.9-15.6,3.5-22.5 c-5.9-28-13.1-55.8-20.5-83.4c-1.1-4.1-5.9-7.2-9.1-10.7c-1.5-1.7-4.5-3.8-4.2-4.9c0.7-2.2,2.9-5.1,5-5.6 C260.2,438.9,275.8,435.4,292.2,431.6z"></path> <path style="fill:#FFFFFF;" d="M587.9,505.5c-16,3.7-30.6,7.4-45.3,10.4c-2.9,0.6-6.3-1.1-9.4-1.7c1.2-2.9,2.8-5.7,3.7-8.7 c1-3.5,2.4-7.4,1.7-10.6c-7.1-31.3-14.5-62.6-22.2-93.8c-0.8-3.2-3.7-6-6.1-8.6c-2.1-2.3-4.8-4-7.2-6c2.9-2.1,5.5-5.3,8.7-6.2 c14.2-3.7,28.6-6.8,44.4-10.4C566.7,414.9,577.2,459.6,587.9,505.5z"></path> <path style="fill:#FFFFFF;" d="M199.1,598.9c-18.2,4.9-33,6.1-48.2-0.1c-10.6-4.3-16-11.3-18.3-22.1c-5-22.9-10.3-45.8-15.7-68.6 c-2.5-10.5-2.4-22.9-17.2-25.2c6.3-10.2,15.3-12.5,21.8-7c2.7-2.2,5-5.4,8-6.3c8.7-2.6,17.6-4.5,26.6-6.1c2.3-0.4,4.9,1.2,7.4,1.9 c-0.9,2.7-1.8,5.3-2.6,8c-1.1,4-3.6,8.4-2.8,12.1c6.4,28.7,13.5,57.2,20.2,85.9c1.9,8,5,14.1,13.3,17.4 C194.5,589.8,196,594.5,199.1,598.9z"></path> <path style="fill:#FFFFFF;" d="M832.1,306c10.9,23.4,31,116.9,27.9,123.3c4.7,1.2,13.9,1.9,14.2,3.8c1,8.7-7.6,7-12.7,8.4 c-11.8,3.3-23.7,6.1-35.8,8.3c-4.6,0.9-9.6-0.4-14.5-0.8c2.3-4.2,4.5-8.3,7.3-13.4c-9.1-38.7-18.6-79.1-28.4-120.3 C804.5,312.2,818,309.2,832.1,306z"></path> <path style="fill:#FFFFFF;" d="M302.1,428.1c5.2,0.4,10.4,0.7,16.8,1.2c2.8-7.9,11.4-3.8,18.2-3.2c9.8,0.8,24.9,14.7,26.9,26.6 c3.2,19.3-5.9,31.1-20.5,38.1c9.2,3.5,21.7,4.8,28.3,11.7c7,7.3,8.4,20,12.5,31c1.2-1.3,2.1-2.9,3.5-3.6c2.1-1.2,5.3-3.2,6.6-2.5 c1.8,1.1,3.3,4.5,3.1,6.7c-0.8,12.2-13.8,23.5-28.4,25.4c-14.6,1.8-25-4.2-29.6-17.7c-2.4-7.2-2.9-15.2-6-22 c-2.5-5.5-7.1-10.4-11.8-14.4c-4.9-4.2-6.6-7.1-1.7-12.6c2.5-2.8,4.7-7.5,4.1-10.9c-1.7-11-4.4-21.9-7.5-32.7 c-0.8-2.9-4.4-5.1-6.9-7.5c-3.2-3.1-6.5-6.2-9.8-9.3C300.7,430.9,301.4,429.5,302.1,428.1z"></path> <path style="fill:#FFFFFF;" d="M460.9,536.9c-28,8.4-60-14.6-70.8-49.5c-12.7-40.7,2.9-79,37.8-90.1c0.3,3.9,2.2,8.6,0.6,10.8 c-5.9,8-3.6,15.9-1.6,24.1c6.1,26.1,11.7,52.4,18.5,78.3c1.6,6.2,7.2,11.2,10.7,16.9C457.7,530.4,459.2,533.6,460.9,536.9z"></path> <path style="fill:#FFFFFF;" d="M469.2,538.9c-0.9-6.8-2.7-10.8-1.4-12.6c11.4-16.7-2.6-31.4-3.7-47c-0.1-1.6-5.3-2.8-8-4.5 c-2.1-1.3-4-3-6-4.6c1.6-1.9,3-5.1,5-5.6c14.9-3.9,29.8-7.6,44.9-10.6c1.8-0.3,6.7,5.8,6.4,6.2c-8.1,11.2-1,22.1,1.9,32 c3.4,11.7,1.1,19.7-8.1,26.3C490.9,525.2,481.1,531.1,469.2,538.9z"></path> <path style="fill:#FFFFFF;" d="M206.8,596.5c-3.5-5.3-4.2-9.7,2.3-13.9c10.5-6.9,14.1-17.7,11.7-29.4c-5-24.1-10.4-48.2-17.1-71.9 c-1.7-5.9-9-10.1-13.7-15.1c-1.7-1.8-4.9-4-4.6-5.6c0.3-2,3.2-4.5,5.4-5.2c8.4-2.4,17-4.4,25.6-5.8c2.2-0.4,5.3,1.1,6.9,2.8 c0.7,0.7-0.6,4.7-2,6.1c-7.1,6.9-7.9,14.8-5.6,24c5.3,21,10.2,42,14.9,63.2C235.8,569.8,227,588.5,206.8,596.5z"></path> <path style="fill:#FFFFFF;" d="M643.9,388.9c10.9,6.4,16.1,15.6,17.9,27.3c1.8,11.4,5.1,22.5,7.8,33.7c2.4,10.1,5.7,19.6,17.4,22.8 c1.6,0.4,3.8,3,3.6,4.2c-0.4,2-2.2,4.8-4,5.3c-9.4,2.7-18.9,4.9-28.5,6.8c-1.7,0.3-4.6-1.6-5.7-3.3c-0.7-1,0.2-4.3,1.4-5.4 c8.8-7.7,7.8-17,5.7-27c-3.9-18.6-7.2-37.2-11.1-55.8C647.7,394.4,645.4,391.7,643.9,388.9z"></path> <path style="fill:#FFFFFF;" d="M438.6,404.6c-0.7-2.9-1.5-5.8-2.7-10.6c7.2,0,13.4-0.1,19.6,0c7.5,0.2,14.4,2,20-6.8 c3.5-5.6,7.6-0.7,8.8,4.5c2.8,11.9,6,23.7,8.2,35.7c0.6,3.2-1.5,6.9-2.3,10.3c-3.1-1.7-7-2.8-9.2-5.4c-4.6-5.2-7.2-12.7-12.6-16.4 c-8.5-5.9-18.5-9.5-27.9-14.1C439.8,402.8,439.2,403.7,438.6,404.6z"></path> <path style="fill:#FFFFFF;" d="M747.4,404.1c-12.4-8-15.9-19.9-18.4-32.4c-2.4-12.1-4.6-24-19.6-28.1c-5.9-1.6-3.9-7.6,0.7-9.1 c9.6-3.1,19.6-5.1,29.6-7c1.8-0.3,5.1,1.4,5.7,3c0.7,1.6-0.4,5.1-1.8,6.3c-8.4,7-7.7,16-5.8,25.1C740.8,375.7,744,389.4,747.4,404.1 z"></path> <path style="fill:#FFFFFF;" d="M638,493.9c-14.4,3.4-27.5,6.4-41.2,9.6c-1-3.6-1.8-6.5-2.8-10c15.3-6.4,22.7-18.1,25.1-33.6 c0.4-2.5,3.2-4.7,4.9-7.1c1.9,2.1,4.9,3.9,5.6,6.3C632.6,470.1,635,481.3,638,493.9z"></path> <path style="fill:#FFFFFF;" d="M567.1,377.9c-0.8-3.4-1.4-6.3-2.2-9.9c13.3-3.2,26.1-6.2,40.1-9.5c2.8,12.1,5.6,23.5,7.9,35 c0.4,2.1-1.8,4.6-2.8,7c-2.3-1-5.7-1.4-6.8-3.2C594.9,384,583.1,377.4,567.1,377.9z"></path> <path style="fill:#FFFFFF;" d="M782.7,316.8c0,5.5,0.5,9.2-0.1,12.8c-1.6,10.1-3.3,20.2-5.7,30.2c-0.8,3.4-3.6,6.4-5.5,9.6 c-2.3-2.6-5.8-4.8-6.6-7.8c-3.3-12-5.9-24.2-9-37.8C764.1,321.7,772.2,319.6,782.7,316.8z"></path> <path style="fill:#FFFFFF;" d="M608.7,452.2c-0.9,1.3-1.8,4.3-3.5,4.8c-1.7,0.5-4.5-1.1-6.1-2.5c-5.6-4.8-11.6-9.5-16.1-15.3 c-2.2-2.8-2.6-8.2-1.8-11.9c1.3-6.2,4.1-12.2,6.6-18.1c1-2.3,2.5-4.9,4.5-6.2c0.8-0.5,4.9,1.7,5.3,3.3 C601.5,421.1,604.9,436.1,608.7,452.2z"></path> <path style="fill:#FFFFFF;" d="M846.7,308.6c2.1-1.5,6.2-4.4,10.3-7.4c8.4-6.1,12.3,0,14.4,6.3c3,9.2,4.9,18.9,6.6,28.4 c0.5,2.8-1.5,6.1-2.4,9.1c-3-1.6-7.2-2.5-8.9-5C859.9,330.4,853.9,320.2,846.7,308.6z"></path> </svg> 