<?xml version="1.0" encoding="UTF-8"?> <svg xmlns="http://www.w3.org/2000/svg" xmlns:xlink="http://www.w3.org/1999/xlink" version="1.1" id="Layer_1" x="0px" y="0px" viewBox="0 0 1000 1000" style="enable-background:new 0 0 1000 1000;" xml:space="preserve"> <path style="fill:#FFFFFF;" d="M749.1,354c-84.1,0-152.2,68.2-152.2,152.2c0,32.5,10.2,62.6,27.6,87.4L514.2,703.9 c-17.8,17.8,17.6,53.2,35.4,35.4l110-110c25.1,18.3,56.1,29.2,89.6,29.2c84.1,0,152.2-68.2,152.2-152.2 C901.4,422.1,833.2,354,749.1,354z M749.1,626.6c-66.4,0-120.5-54-120.5-120.5c0-42.5,22.1-80,55.5-101.4c1.4-0.9,3.3-0.6,4.3,0.8 c1,1.3,0.8,3.2-0.4,4.3c-24.3,21.9-36.8,54.9-36.2,84.6c0.7,39.6,23.4,76.1,57.8,93.1c13.4,6.6,28.4,10.1,43.2,10.1 c4.7,0,9.4-0.4,14-1c19-2.9,36.9-11.7,50.3-24.9c13.9-13.7,22.7-31.6,24.9-50.5c2.2-19.3-2.9-39.1-14-54.4 c-11.7-16.1-29.2-26.5-48.2-28.7c-2.4-0.3-4.9-0.4-7.3-0.4c-17.7,0-34.3,7.2-45.5,19.7c-13.7,15.3-17.6,37.4-9.5,54.8 c6.6,14.3,21.2,24.3,35.6,24.3c4.5,0,9-0.9,13.1-2.8c9.8-4.4,16.2-13.7,15.9-23.2c-0.2-5.2-2.2-9.8-5.7-12.6c-2.3-1.9-5.3-3-8.1-3 c-2.7,0-5.1,0.9-7,2.7c-1,1-1.6,2-2.1,2.9c-0.3,0.5-0.6,1-0.8,1.2c-0.6,0.6-1.4,0.9-2.4,0.9c0,0,0,0,0,0c-2.6-0.1-4.5-2.3-5.4-4.1 c-3.2-6.5,0.2-14.3,5.2-18.6c4.4-3.9,10.4-6,16.8-6c1.6,0,3.2,0.1,4.7,0.4c7.6,1.3,15.1,5.7,20.4,12.1c10.3,12.5,12,31.4,4.2,47.2 c-7.4,14.9-22.2,25.6-39.5,28.6c-3.3,0.6-6.7,0.9-10.1,0.9c-14.1,0-28.2-4.9-39.6-13.9c-13.5-10.6-23-26.7-26-44.2 c-3-17.6,0.3-36.1,9.3-52c8.5-15,22-27.5,38-35c15.9-7.5,34.5-10.2,52.2-7.7c35.3,5.1,66.3,30.7,79.1,65.3c0.2,0.4,0.3,0.8,0.4,1.3 c2.4,9.4,3.7,19.3,3.7,29.5C869.6,572.6,815.5,626.6,749.1,626.6z"></path> <path style="fill:#FFFFFF;" d="M444.6,954.5c6.4,2.3,31.5-10.4,36.6-15.7c5.8-6,6.9-10.1,8.4-15.2c4.7-16.7,15.5-27.9,32-33.3 c5.1-1.7,9.1-2.9,14.9-9c4.9-5.1,14.8-26.3,13.5-34.3c-0.1-0.5-0.2-0.9-0.4-1.3c-1.3-3-3.9-5.3-7.1-6.1 c-38.6-10.2-80.6-16.8-120.6-25.6c10.6-19.3,13.8-44.9,9.5-71.9c-5.5-34-23-70.3-53-99.3c-53.9-51.6-128-64.2-170.6-38.9 c-11.2-42.6-21.6-86-34.9-126.3c-1.2-3.6-4.2-6.3-7.9-7.1c-3.7-0.8-7.5,0.3-10.2,3c0,0,0,0,0,0c-5.8,6-6.9,10-8.3,15.1 c-1.6,5.7-3.4,12.3-11.5,20.7c-8.1,8.4-14.7,10.6-20.5,12.6c-5.2,1.7-9.2,3-15,9.1c-5.8,6-7,10.1-8.5,15.4 c-1.7,5.9-3.7,12.5-11.8,21c-3.8,4-7.2,6.5-10.3,8.2c-3.8,2.2-5.9,6.4-5.4,10.8c0,0.1,0,0.2,0.1,0.4c0.7,4.2,3.7,7.6,7.9,8.7 c37.7,10.1,77.5,18.2,116.8,26.7c-12.8,19.3-16.9,45.7-12.4,73.7c5.5,34.2,23.8,71,54.5,100.8c56.5,54,134.6,65.5,176.4,35.1 c10.1,38.9,19.5,78.6,31.2,115.9C439,950.8,441.5,953.3,444.6,954.5z M366.8,737.8c2.2,13.5-0.4,25.7-8.3,34 c-29.6,30.8-106.8-13-115.9-69.5c-2.2-13.5,0.4-25.7,8.3-33.9C280.5,637.4,357.7,681.3,366.8,737.8z"></path> <path style="fill:#FFFFFF;" d="M448.7,179.1c13.5-10.2,22.2-26.3,22.2-44.5c0-30.8-24.9-55.7-55.7-55.7s-55.7,24.9-55.7,55.7 c0,18.5,9,34.9,22.9,45c-79.1,13-180.8,65.4-180.8,130.1c0,29.7,15.9,55.8,40,71l39.3,155.5c0,15.9,68.2,23.9,136.3,23.9 c68.1,0,136.2-8,136.3-23.9l39.3-155.5c24.1-15.2,40-41.3,40-71C632.7,244.2,528.3,191.1,448.7,179.1z M532.1,525.5 c-13.4,5.2-53.6,11.3-114.9,11.3s-101.6-6.1-114.9-11.3l-33.7-133.4c7,1.7,14.3,2.6,21.9,2.6c8.3,0,16.3-1.1,23.9-3.1l37.3,120.7 l-5.1-136.7c2.6-2.1,5.2-4.2,7.5-6.6c12.4,12.2,28.7,20.9,46.9,24.2l16.2,121.5l16.1-121.3c18.4-3.1,34.9-11.6,47.5-23.8 c2.2,2.1,4.5,4.1,6.9,6l-5.1,136.7l37.3-120.7c7.6,2,15.6,3.1,23.9,3.1c7.6,0,14.9-0.9,21.9-2.6L532.1,525.5z"></path> </svg> 