<?xml version="1.0" encoding="UTF-8"?> <svg xmlns="http://www.w3.org/2000/svg" xmlns:xlink="http://www.w3.org/1999/xlink" version="1.1" id="Layer_1" x="0px" y="0px" viewBox="0 0 100 100" style="enable-background:new 0 0 100 100;" xml:space="preserve"> <style type="text/css"> .st0{fill:#FFFFFF;} </style> <g> <path class="st0" d="M62.1,8.1c-1.1,2.8-2.1,5.6-3.2,8.5c-1.2,3-2.3,6.1-3.5,9.1c-0.2,0.7-0.6,1-1.3,0.9c-2.2,0-4.4,0-6.6,0 c-0.9,0-1-0.1-0.7-1c1.1-2.8,2.2-5.7,3.3-8.5c0.4-0.9,0.3-1-0.6-1c-2.7,0-5.5,0-8.2,0c-5,0-8.2-3-8.6-8C42.5,8.1,52.3,8.1,62.1,8.1 z"></path> <path class="st0" d="M47,38.2c-1.5,0-2.9,0-4.4,0c-0.6,0-0.7-0.2-0.5-0.7c0.9-2.2,1.7-4.5,2.6-6.7c0.1-0.3,0.3-0.6,0.7-0.6 c4.1,0,8.2-0.1,12.1,1.4c9.3,3.5,15,12.8,13.9,22.8c-1,9.5-8.6,17.4-18.1,18.8C41.2,75,30.2,66.8,28.6,54.6c-0.2-1.3-0.3-2.7-0.1-4 c0.1-0.6,0.2-0.8,0.8-0.8c2.1,0,4.3,0,6.4,0c0.7,0,0.8,0.2,0.8,0.9c-0.6,7,4.1,13.2,11,14.5c8.5,1.6,16.4-5.1,16.1-13.8 c-0.2-7.1-5.8-12.7-12.9-13.1C49.5,38.3,48.3,38.3,47,38.2C47,38.3,47,38.3,47,38.2z"></path> </g> <g> <path class="st0" d="M53.9,88.5c-0.3-0.1-0.7-0.1-1-0.2c-2.3-0.7-3.8-2.9-3.6-5.3c0.2-2.4,2-4.3,4.4-4.7c1.5-0.2,3.2,0.3,4.1,1.3 c-0.3,0.4-0.3,0.4-0.7,0.1c-1.5-1.1-3.6-1.2-5.2-0.1c-1.6,1.1-2.4,3-1.9,4.9c0.4,1.8,2,3.3,3.8,3.5c1.3,0.2,2.4-0.1,3.4-0.9 c0.1-0.1,0.1-0.1,0.2-0.2c0.1,0.1,0.1,0.1,0.2,0.2c0.1,0,0.1,0.1,0.2,0.2c-0.3,0.2-0.6,0.4-0.9,0.6c-0.6,0.4-1.2,0.6-1.9,0.7 c-0.1,0-0.1,0-0.2,0.1C54.5,88.5,54.2,88.5,53.9,88.5z"></path> <path class="st0" d="M19.5,88.3c-0.5,0-0.9,0-1.4,0c-0.1,0-0.2-0.1-0.3-0.2c-0.6-0.9-1.2-1.8-1.7-2.7c-0.1-0.2-0.3-0.3-0.5-0.3 c-0.3,0-0.6,0-0.9,0c0,1.1,0,2.1,0,3.2c-0.4,0-0.8,0-1.3,0c0-3.3,0-6.6,0-10c0.1,0,0.2,0,0.4,0c0.7,0,1.4,0,2.1,0 c1.4,0,2.5,0.7,3.1,2c0.6,1.3,0.4,2.5-0.5,3.6c-0.3,0.4-0.8,0.7-1.2,1.1C18,86.1,18.7,87.2,19.5,88.3z M14.7,83.8 c0.4,0,0.9,0,1.3,0c1,0,1.9-0.8,2-1.8c0.1-1-0.5-2-1.5-2.3c-0.6-0.1-1.2-0.1-1.8-0.2C14.7,81,14.7,82.4,14.7,83.8z"></path> <path class="st0" d="M39.1,82.7c1.4,0,2.7,0,4,0c0,0.4,0,0.8,0,1.3c-1.4,0-2.7,0-4.1,0c0,1,0,2,0,3.1c1.4,0,2.7,0,4.1,0 c0,0.4,0,0.8,0,1.3c-1.8,0-3.5,0-5.3,0c0-3.3,0-6.6,0-10c1.8,0,3.5,0,5.3,0c0,0.4,0,0.8,0,1.2c-1.3,0-2.7,0-4,0 C39.1,80.6,39.1,81.6,39.1,82.7z"></path> <path class="st0" d="M25.5,85.1c0,1.1,0,2.1,0,3.2c-0.4,0-0.8,0-1.3,0c0-3.3,0-6.6,0-10c0.9,0,1.7,0,2.6,0c0.3,0,0.6,0.1,0.9,0.2 c1.6,0.5,2.6,2.1,2.3,3.7c-0.3,1.7-1.6,2.9-3.3,3C26.4,85.1,26,85.1,25.5,85.1z M25.5,83.8c0.5,0,0.9,0,1.4,0 c0.9-0.1,1.7-0.8,1.9-1.7c0.2-0.9-0.2-1.8-1.1-2.3c-0.7-0.4-1.5-0.3-2.2-0.3C25.5,81,25.5,82.4,25.5,83.8z"></path> <path class="st0" d="M12.2,78.3c0,0.4,0,0.8,0,1.3c-0.6,0-1.3,0-1.9,0c-0.4,0-0.4,0-0.4,0.4c0,2.6,0,5.2,0,7.8c0,0.1,0,0.3,0,0.4 c-0.4,0-0.8,0-1.3,0c0-0.1,0-0.3,0-0.4c0-2.4,0-4.8,0-7.3c0-0.3,0.1-0.8-0.1-1c-0.1-0.2-0.6-0.1-0.9-0.1c-0.4,0-0.8,0-1.3,0 c0-0.4,0-0.8,0-1.3C8.2,78.3,10.2,78.3,12.2,78.3z"></path> <path class="st0" d="M32.7,87c1.2,0,2.4,0,3.6,0c0,0.4,0,0.8,0,1.3c-1.6,0-3.2,0-4.8,0c0-3.3,0-6.6,0-10c0.4,0,0.8,0,1.2,0 C32.7,81.2,32.7,84.1,32.7,87z"></path> <path class="st0" d="M73.9,84.8c0,1.2,0,2.3,0,3.5c-0.2,0-0.3,0-0.5,0c0-3.3,0-6.6,0-10c0.3,0,0.5,0,0.7,0c0.5,0,1,0,1.5,0 c1.6,0,2.9,1.1,3.2,2.8c0.3,1.5-0.6,3-2.1,3.6c-0.1,0-0.2,0.1-0.4,0.1c0.8,1.2,1.5,2.3,2.3,3.5c-0.5,0.1-0.6,0.1-0.8-0.3 c-0.6-1-1.3-1.9-1.9-2.9c-0.1-0.2-0.2-0.2-0.4-0.2C75,84.9,74.5,84.8,73.9,84.8z M74,78.9c0,0.1,0,0.1,0,0.1c0,1.7,0,3.4,0,5.1 c0,0.2,0.1,0.2,0.3,0.2c0.5,0,0.9,0,1.4,0c1.5,0,2.6-1.1,2.7-2.6c0.1-1.4-0.9-2.6-2.4-2.8C75.3,78.8,74.6,78.9,74,78.9z"></path> <path class="st0" d="M80.8,84.8c0,1.2,0,2.3,0,3.5c-0.2,0-0.3,0-0.5,0c0-3.3,0-6.6,0-9.9c0,0,0,0,0,0c1,0,1.9-0.1,2.9,0.1 c1.5,0.2,2.5,1.6,2.6,3c0.1,1.5-0.8,2.8-2.2,3.3c-0.1,0-0.1,0.1-0.2,0.1c0.8,1.2,1.5,2.3,2.3,3.5c-0.5,0.1-0.6,0.1-0.8-0.3 c-0.6-1-1.3-1.9-1.9-2.9c-0.1-0.2-0.2-0.3-0.5-0.3C81.8,84.9,81.3,84.8,80.8,84.8z M80.8,78.9c0,0.4,0,0.9,0,1.3c0,1.2,0,2.5,0,3.7 c0,0.2,0,0.3,0.2,0.3c0.6,0,1.2,0,1.8,0c1.3-0.1,2.3-1.3,2.4-2.6c0-1.3-0.9-2.5-2.2-2.7C82.3,78.8,81.5,78.9,80.8,78.9z"></path> <path class="st0" d="M22.2,88.3c-0.4,0-0.8,0-1.2,0c0-3.3,0-6.6,0-10c0.4,0,0.8,0,1.2,0C22.2,81.7,22.2,85,22.2,88.3z"></path> <path class="st0" d="M64.2,83.9c-1.4,0-2.8,0-4.2,0c0,1.5,0,2.9,0,4.4c-0.2,0-0.3,0-0.5,0c0-0.1,0-0.2,0-0.4c0-3.1,0-6.1,0-9.2 c0-0.5,0-0.5,0.5-0.4c0,1.6,0,3.2,0,4.9c1.4,0,2.8,0,4.2,0c0-1.6,0-3.3,0-4.9c0.2,0,0.3,0,0.5,0c0,3.3,0,6.6,0,10 c-0.2,0-0.3,0-0.5,0C64.2,86.8,64.2,85.4,64.2,83.9z"></path> <path class="st0" d="M71.6,83.1c0,0.2,0,0.4,0,0.5c-1.5,0-2.9,0-4.4,0c0,1.4,0,2.8,0,4.2c1.5,0,2.9,0,4.4,0c0,0.2,0,0.3,0,0.5 c-1.6,0-3.3,0-5,0c0-3.3,0-6.6,0-9.9c0.1,0,0.3,0,0.4,0c1.4,0,2.8,0,4.2,0c0.5,0,0.5,0,0.4,0.5c-1.5,0-2.9,0-4.4,0 c0,1.4,0,2.8,0,4.2C68.7,83.1,70.1,83.1,71.6,83.1z"></path> <path class="st0" d="M90.4,88.3c-0.2,0-0.3,0-0.5,0c0-0.1,0-0.2,0-0.4c0-1.1,0-2.2,0-3.3c0-0.2-0.1-0.5-0.2-0.6c-1-1.8-2-3.5-3-5.2 c-0.1-0.1-0.1-0.2-0.2-0.4c0.4-0.1,0.6-0.1,0.8,0.3c0.9,1.6,1.8,3.1,2.7,4.7c0.1,0.1,0.1,0.2,0.2,0.3c0.1-0.1,0.2-0.2,0.2-0.3 c0.9-1.5,1.8-3.1,2.7-4.6c0.2-0.4,0.4-0.4,0.8-0.3c-0.1,0.1-0.1,0.2-0.2,0.3c-1,1.8-2,3.5-3,5.3c-0.1,0.2-0.2,0.5-0.2,0.8 c0,1.1,0,2.1,0,3.2C90.4,88.1,90.4,88.2,90.4,88.3z"></path> </g> </svg> 