<?xml version="1.0" encoding="UTF-8"?> <svg xmlns="http://www.w3.org/2000/svg" xmlns:xlink="http://www.w3.org/1999/xlink" version="1.1" id="Layer_1" x="0px" y="0px" viewBox="0 0 1000 1000" style="enable-background:new 0 0 1000 1000;" xml:space="preserve"> <path style="fill:#FFFFFF;" d="M503,764.3c-2.6-1.7-5.3-3.3-7.9-5c-13.6-8.8-15.6-27.7-4.3-39.8c12.8-13.7,27.4-22,47.3-19.3 c12,1.6,24.4,0.3,38.7,0.3c2.2-4.3,5.5-10.6,8.7-16.7c-10.3,1.6-20.2,5.5-29.2,4.1c-10.1-1.6-14.8-11.1-14.8-22.4 c-6.5,5.9-11.8,11.7-18.2,16.1c-8.4,5.8-17.7,11.4-28.3,5.6c-9.9-5.4-13.5-14.5-11.3-24.2c-11.8,7.8-23.2,16.7-35.8,23.2 c-14.7,7.5-26.8-0.5-25.4-17.1c0.8-9.6,5-19.2,9.2-28.2c6.5-14.1,14.2-27.7,21.5-41.4c3.5-6.6,7-13.7,16.5-9 c9.6,4.7,11.6,10.3,6.1,20.6c-9.2,17.3-19.2,34.2-28.5,51.4c-1.3,2.5-0.9,5.9-1.3,8.9c3-0.3,6.4,0.1,9-1.1c3.9-1.9,7.4-4.6,10.6-7.5 c21.9-20,37.4-44.3,47.9-71.8c0.3-0.9-0.1-2-0.3-3.9c-3.3,0.7-6.2,1.2-9.2,1.8c-0.5-0.7-1.1-1.4-1.6-2.1c2.4-2.4,4.4-5.8,7.3-6.9 c17.5-6.5,25.5-20.2,30.8-36.9c1.4-4.5,2.4-12.9,11.3-9.9c7.7,2.6,12.3,7.3,10.3,16.3c-0.7,3.1-0.5,6.3-0.8,10.3 c12.5,0,24.5,0,36.4,0c0.4,1.3,0.8,2.7,1.2,4c-4.6,1.7-9.1,4-13.8,4.8c-4.2,0.7-8.6-0.4-13-0.5c-15.1-0.3-22.4,7.9-28,21.6 c-9.1,22.5-21.2,43.8-31.3,65.9c-2.2,4.7-1.3,10.8-1.8,16.2c5.5-2.1,13.2-2.7,16.1-6.7c13.8-19.1,26.4-39,39.2-58.8 c3.7-5.6,2.3-17,13.8-13.4c9.8,3.1,12.6,14.8,7.7,25.4c-5.5,11.8-10.8,23.6-15.6,35.7c-2.2,5.5-3.2,11.6-5.1,18.8 c14.6,1,20.2-9.4,26.4-16.5c11.7-13.5,23-27.4,27-45.9c1.4-6.6,0.2-17.3,12.2-18.6c0.9-0.1,0.8-8.5,1.2-13.1c-3.6,0-7.1,0-10.7,0.1 c-2,0.1-5,1.1-5.7,0.3c-1.2-1.5-1.9-4.5-1.2-6.2c7.3-18.4,14.5-37,22.8-55c5.7-12.3,15.2-19.4,30.2-18.5c17.8,1.1,35.8-0.6,53.5,1.2 c8.3,0.9,17.8,5.4,23.7,11.3c12.8,12.7,23.5,27.5,35.3,41.3c2.7,3.2,7.6,4.9,9.3,8.4c4.5,9,4.4,18.2-0.9,27.3 c-7.6,13.1-14.5,26.7-22,39.9c-3.5,6.1-7.4,11.9-11.7,17.4c-9.9,12.9-24.6,14.9-39.3,16.2c-10.5,0.9-21.1,1.3-31.6,2.5 c-15.3,1.8-28.7-1.2-36.5-15.4c-2.8-5.1-3.1-12.1-3.2-18.2c-0.1-6.2,1.4-12.4,0.7-18.8c-14.5,31.1-28.9,62.2-43.4,93.2 c-2.5,5.2-3.4,9.2,2.8,12.8c6.3,3.6,12.2,8,17.7,12.7c2.3,2,4.3,6.1,4,8.9c-0.2,1.8-5.4,4.9-7.5,4.4c-7.8-2.1-15.7-4.7-22.5-8.7 c-6-3.6-9-4.8-14.2,1.6c-10.6,13.2-25.2,21.2-41,26.8C529.3,764.3,516.1,764.3,503,764.3z M564.2,718.7c-18.6-5.7-36.9-6.4-54.4,1.7 c-7.3,3.4-16,9-13,18.9c1.8,6,7.3,13.2,12.9,15.3c13.1,5.1,35.5-4.3,43.1-16.1C556.6,732.6,559.9,726.3,564.2,718.7z M680,567 c-6.8,7.5-8.3,17.6-2.9,21.3c2,1.4,7.3,1.2,9-0.4C691.9,582,689.4,573.9,680,567z M717.6,608.2c4.6-6.3,8.1-10.5,10.7-15.3 c0.3-0.6-4.2-5.3-6.7-5.6c-8.6-1-9.9,6.9-12.3,12.5C709,600.8,713.2,603.8,717.6,608.2z M640.7,550.3c-1.6,0.2-3.3,0.4-4.9,0.5 c-1.2,4.2-3.8,8.6-3.1,12.5c0.6,3.7,4.5,7,7,10.4c2.5-3.9,6.7-7.7,7-11.8C646.9,558.2,642.8,554.2,640.7,550.3z M679,604.3 c-3.5-5-6.2-8.7-8.8-12.4c-2.5,3.7-7.1,7.5-7.1,11.3c0,4,4.2,8,6.6,11.9C672.4,612,675.1,608.8,679,604.3z M649.7,527.3 c-7.4,6.2-9.1,12.9-3.5,20.1c1.1,1.5,6.4,1.8,8.1,0.5C660.2,543.3,658.3,534.7,649.7,527.3z M729.9,628.4c4.9-5.8,8.6-9.8,11.7-14.4 c0.3-0.4-5.2-5.7-5.6-5.4c-4.7,3.7-9.1,7.9-13.5,12C724.3,622.4,726.1,624.4,729.9,628.4z M780.4,590.2c-4.8-2.9-8.1-5.8-8.9-5.2 c-5.1,3.4-9.6,7.6-14.2,11.5c1.7,1.9,4.5,5.7,5.1,5.4C767.8,598.9,772.9,595.2,780.4,590.2z M667.6,628.6c-4-4.7-7-8.3-10-11.8 c-2.1,3.3-6.1,6.9-5.7,10c0.5,4.2,4.4,8,6.8,12C661.3,635.7,663.9,632.7,667.6,628.6z M724.9,565.6c-0.3-14.3-8.2-15.8-15.3-17.7 c-1.2-0.3-4.1,2-4.5,3.6c-0.5,1.6,0.5,4.8,1.8,5.6C711.8,559.9,717.1,562,724.9,565.6z M690.7,654.5c5.3-5.6,9.2-9.8,13.2-14 c-2-1.6-5.1-4.9-5.7-4.5c-4.8,3.3-9.2,7.2-13.4,11.2C684.7,647.3,687.7,650.7,690.7,654.5z M733.1,645.5c8.7,2.1,14.7-0.2,17.4-7.8 c0.6-1.7-2.1-6.5-3.3-6.5C738.8,631.2,734.2,636,733.1,645.5z M711.7,532.6c5.6,4.1,9.6,7.6,14.1,10.1c1.5,0.8,5-0.3,6.6-1.7 c0.9-0.8,0.7-5-0.3-5.7C726.7,531.8,721.5,526.2,711.7,532.6z M737.9,525.1c0.6-1.1,1.3-2.3,1.9-3.4c-3.7-10.6-11.3-13.8-20.7-6.7 C725.9,518.7,731.9,521.9,737.9,525.1z"></path> <path style="fill:#FFFFFF;" d="M128.1,495c12.2-9.6,11.6-24.2,14-37.4c0.5-2.8-5.5-7.4-4.6-9.4c11.6-25.9,5.6-53,5.8-79.6 c0.1-13.2-4.9-26.4-7.9-41.4c-0.6,0.4,1.3-1.8,3.5-2.3c34.9-7.2,69.8-14.7,104.9-21c11-2,21.6,1,27.9,12.5c1.9,3.4,7.4,4.6,9.7,8 c4.2,6.2,10.7,13.6,10,19.7c-1.5,12.7-7.2,24.8-10.5,35c6.1,11.7,14.7,22.3,16.9,34c2,11-0.2,24.5-5.1,34.6 c-8.8,18.1-24.3,30.5-44.6,35.1c-34.9,7.8-69.9,15.4-105,22.6c-4.6,0.9-9.8-1.1-14.7-1.7C128.1,500.8,128.1,497.9,128.1,495z M195.2,451.1c14-3,26.2-5.5,38.4-8.1c8.1-1.7,9.8-8.4,9.9-14.9c0.1-6.7-2.4-13.4-10.4-14.3c-6.2-0.7-12.7-0.4-19,0.3 c-16.8,1.7-17.8,2.8-18.8,19.2C194.9,438.3,195.2,443.4,195.2,451.1z M201.4,375.2c5.3-1.2,10.7-1,14.1-3.6c5.3-4,9.6-9.7,13.4-15.2 c0.6-0.8-3.8-7.3-5.9-7.3C203.6,349.3,199.8,353.9,201.4,375.2z"></path> <path style="fill:#FFFFFF;" d="M399.1,611.6c8.4,0,16.7-1.2,24.3,0.4c7.3,1.5,9.3,11.2,5.3,20.5c-11.8,27.5-34.9,41-62.1,48.2 c-11,2.9-23,2.9-34.6,2.9c-16.9,0-27.2-11.3-34.9-24.5c-2.3-3.9-0.4-10.2-0.4-17.2c-10.8,5.4-19.7,10.4-29.1,14.4 c-4.8,2-10.5,1.8-15.7,3c-4.2,1-8.4,2.5-15.4,4.7c-9.3-3.6-22.2-8-34.5-13.5c-12.4-5.6-18.6-15.7-22.2-29.2 c-3.9-14.6-11.1-28.4-17.1-42.4c-0.5-1.2-3.1-1.9-3.1-2.8c-0.5-10-2.4-20.5-0.3-30c1.2-5.3,8.4-10.6,14.1-13.3 c20.7-9.8,41.6-19.2,62.9-27.6c17.6-6.9,35.2,1.7,52.9,1.9c28.2,0.3,26.8,22.1,31.5,39.9c1.5,5.8,2.5,11.7,4.2,20.1 c8.7-9.6,15.9-17,22.6-24.9c19.5-23.2,43.6-40,71.3-51.9c17.1-7.4,33.6-4.1,49.3,4c14.3,7.4,14.5,33-2.6,46.9 c-5.8,4.7-15,6.5-22.9,7c-7.8,0.5-8.9-4.8-4.6-11.5c4.5-7.2,8.2-15,11.4-22.9c1-2.4,0.1-7.3-1.7-8.7c-1.9-1.4-6.4-0.8-9,0.4 c-27.8,13.2-51.4,31.8-69,57c-10.3,14.7-19.5,30.3-27.9,46.2c-4.1,7.8-5.8,17.1-7.5,26c-1.9,10.3,5.7,24.4,14.3,28.4 c7,3.3,23.5-0.2,30.2-5.4c5-3.9,12.1-5.6,16-10.1c4.9-5.8,8.5-13.3,10.7-20.7C406.7,623.5,402.5,618.9,399.1,611.6z M258.8,571 c-5.7-4.8-10-10.7-12.5-10c-4.1,1.1-9.2,6.1-9.9,10.1c-0.6,3.1,4.9,7.3,7.7,11.1C248.3,579,252.4,575.9,258.8,571z M309.9,547 c-6-4.9-10.5-10.7-12.6-9.9c-4.1,1.5-8.9,6.3-9.5,10.3c-0.5,3.2,4.9,7.3,7.6,11C299.4,555.2,303.4,552.1,309.9,547z M275.1,629.6 c-5.9-4.6-10.9-10.1-12.3-9.3c-4.4,2.5-8.8,6.9-10.4,11.5c-0.7,2,6.4,9.6,8.1,9C265.2,639.3,268.9,634.8,275.1,629.6z M232.9,645.3 c-4.5-7.4-8.3-13.6-12.1-19.8C216.2,639,220.6,645.9,232.9,645.3z M206,621.6c-1.1,0.5-2.3,1-3.4,1.6c-0.6,8.1,0.1,15.5,8.8,18.9 c1.1-0.5,2.2-1,3.3-1.5C211.8,634.2,208.9,627.9,206,621.6z M191.9,584.4c1.6-0.8,3.3-1.6,4.9-2.3c-2.9-5.8-5.8-11.6-8.7-17.4 c-1.4,0.6-2.7,1.3-4.1,1.9C186.7,572.6,189.3,578.5,191.9,584.4z M204.6,568.5c-1.8,0.8-3.6,1.6-5.4,2.4c3,5.7,5.9,11.4,8.9,17.1 c1.6-0.8,3.2-1.6,4.8-2.5C210.2,579.9,207.4,574.2,204.6,568.5z"></path> <path style="fill:#FFFFFF;" d="M714.5,393.6c11.6-18.9,22.7-36.6,33.3-54.5c4.4-7.6-1.9-12.6-5.9-18.2c-3.1-4.2-5.4-9-8.1-13.5 c1-1.4,1.9-2.8,2.9-4.2c10.8,2,21.6,3.5,32.3,6c17.2,4,34.3,8.5,51.4,12.9c9.7,2.5,8.3,9,3.2,13.8c-10.3,9.7-12.3,21.3-12,34.4 c0.5,18.6,0,37.2,0.4,55.7c0.1,4.5,1.8,9,2.8,13.5c0.3,1.4,1.6,2.8,1.4,3.9c-1.9,8.1-6,16.2-5.6,24.1c0.4,8.2,5.3,16.1,8.1,24.2 c1.2,3.4,2,7,3,10.4c-3.7,0-7.6,0.7-11.2,0c-20.4-4-40.7-8.2-61-12.6c-5-1.1-9.7-3.3-16.9-5.8c14.6-13.4,20-27.8,17.6-48.4 c-7.6,12.9-13.8,23.5-20.1,34c-7.3,12.1-14.6,13.6-26.3,6c0.6-2.4,2.4-5.2,1.6-6.7c-9.9-20.6-20.2-41-30.5-61.4 c-0.4-0.8-1.7-1.2-4.4-3c0,12.1-1.2,23.1,0.3,33.8c1.5,10.5,5.6,20.6,8.8,31.5c-20.5-1.9-41-3.7-61.5-5.6c-5.6-0.5-7.1-3.9-3.9-8.2 c12.4-16.7,13.2-37.3,8.2-54.4c-6.9-23.8-0.1-47.3-5.1-70.4c-2.3-10.8-5.1-21.6-9.3-31.8c-3-7.4-2.5-10.5,5.7-10 c23.2,1.4,46.4,2.8,69.6,4.9c3.3,0.3,8.2,3.4,9,6.3c0.8,2.6-1.9,8-4.6,9.7c-10.6,6.6-9.2,13.3-3.7,23.1c10,17.9,18.1,36.8,27,55.3 C711.9,389.7,712.7,390.8,714.5,393.6z"></path> <path style="fill:#FFFFFF;" d="M594.5,285.6c4.7,13.1,8.2,22,11.1,31.1c1.4,4.4,2.4,9.2,2.4,13.8c0.2,31.3,0.2,62.7,0.1,94.1 c-0.1,24.6-15,39.9-39.5,39.7c-24.8-0.2-49.6-1-74.4-2c-13.7-0.5-29.9-15.4-31.8-29c-0.6-4.4,1.3-9.1,1.2-13.6 c-0.7-32.8-4.4-65.8-1.4-98.3c2.3-25.3,7.8-40.1,39.7-38.6C534.1,284.3,566.3,284.7,594.5,285.6z M549.8,359.9c0.4-6.7,1-12.9,1-19 c-0.1-9.2-7.1-13.8-19.3-14.3c-9.2-0.3-13.5,3.6-13.5,12.8c-0.1,21.7-0.5,43.5-0.4,65.2c0,9.3,5.6,12.7,18.5,13 c9.1,0.2,13.7-3.8,13.7-12.8C549.8,389.6,549.8,374.5,549.8,359.9z"></path> <path style="fill:#FFFFFF;" d="M444.9,288.7c0.3,3.8-0.5,7.1,0.8,8.5c15.3,17.9,7.4,39.3,8.4,59c1.1,21.7-0.5,43.5-2,65.2 c-0.5,7.3-2.7,15.1-6.3,21.4c-3.3,5.8-5.5,14.1-17.7,9.6c-7.4-2.8-17.9,3.4-27.2,4.4c-19.6,2.1-39.2,4.3-58.8,4.8 c-8.2,0.2-16.6-3.5-25.3-5.5c0.1-0.2-0.8,1.6-1.6,3.6c-14.2-10.4-13.6-25.3-13.5-39.7c0.3-27.4,1.7-54.8,1.6-82.2 c-0.1-27.1,13.7-41.9,41.7-42.2c29.7-0.3,59.4-2.3,89.2-3.7C437.3,291.8,440.3,290.1,444.9,288.7z M393.4,373.5 C393.4,373.5,393.4,373.5,393.4,373.5c0-10.6,0.7-21.2-0.3-31.7c-0.4-4.1-4.1-10-7.6-11.2c-14.2-4.8-23.5,2.4-23.6,17.7 c-0.2,19,0.4,37.9,0.3,56.9c0,7.9,0.3,14.8,11.1,14.5c14.3-0.4,19.9-4.5,20-15.7C393.5,393.9,393.4,383.7,393.4,373.5z"></path> <path style="fill:#FFFFFF;" d="M465.8,568.6c-1.2-6.9,2.8-10.5,10.5-10.1c7.8,0.4,11.7,4.9,11.9,12.6c0.2,7.7-3.7,12.8-11.3,12.9 C467.8,584.1,465.7,577.4,465.8,568.6z"></path> </svg> 