<?xml version="1.0" encoding="UTF-8"?> <svg xmlns="http://www.w3.org/2000/svg" xmlns:xlink="http://www.w3.org/1999/xlink" version="1.1" id="Layer_1" x="0px" y="0px" viewBox="0 0 500 500" style="enable-background:new 0 0 500 500;" xml:space="preserve"> <g> <g> <g> <defs> <path id="SVGID_17_" d="M217,52.2c0,0,10.1,0.6,23.9,19.5c1.3-1.9,2.5-3.8,3.8-5.7c-6.3-6.9-11.3-8.8-11.3-8.8 S220.8,52.2,217,52.2L217,52.2L217,52.2z"></path> </defs> <clipPath id="SVGID_4_"> <use xlink:href="#SVGID_17_" style="overflow:visible;"></use> </clipPath> <g style="clip-path:url(#SVGID_4_);"> <image style="overflow:visible;enable-background:new ;" width="75" height="75" transform="matrix(0.3483 0 0 -0.3483 217.9624 75.4568)"> </image> </g> </g> </g> <g> <g> <defs> <path id="SVGID_19_" d="M197.5,77.4c0.6-1.9,1.9-3.8,2.5-5.7c-8.8-6.9-21.4-6.9-22-6.9C187.5,66.1,191.2,69.8,197.5,77.4 L197.5,77.4z"></path> </defs> <clipPath id="SVGID_8_"> <use xlink:href="#SVGID_19_" style="overflow:visible;"></use> </clipPath> <g style="clip-path:url(#SVGID_8_);"> <image style="overflow:visible;enable-background:new ;" width="75" height="45" transform="matrix(0.3302 0 0 -0.3302 177.2762 79.0219)"> </image> </g> </g> </g> <path style="fill:#FFFFFF;" d="M267.3,54.1c10.7-1.9,22-2.5,22-2.5l-13.8,40.2c23.9-0.6,48.4,0.6,72.9,3.8c0,0,37.1,169-44.6,265.2 c38.3-44,70.4-123.8,45.9-267.7c0,0-27-4.4-71-3.8c-0.6,0-0.6,0-1.3,0l13.8-40.2l-19.5,2.5c-13.8,1.9-20.1,5-25.8,12.6 C252.8,57.3,259.1,55.4,267.3,54.1L267.3,54.1z"></path> <path style="fill:#FFFFFF;" d="M215.8,54.1c12.6,2.5,23.9,20.1,23.9,20.1c0.6-0.6,0.6-1.9,1.3-2.5c-13.2-18.9-23.2-19.5-23.2-19.5 s0,0-0.6,0c-1.3,0.6-5,3.1-9.4,8.8C212,55.4,215.8,54.1,215.8,54.1L215.8,54.1z"></path> <path style="fill:#FFFFFF;" d="M170.5,68c4.4-0.6,10.1,0,13.8,1.3c5.7,1.9,11.9,10.7,11.9,10.7c0-1.3,0.6-1.9,0.6-2.5 c-8.2-10.7-13.2-13.2-30.8-10.7l-10.7,1.9l-8.8,1.3l0.6,1.3C152.3,70.5,163,68.6,170.5,68L170.5,68z"></path> <path style="fill:#FFFFFF;" d="M158.6,104.4c-37.7,7.5-61.6,16.3-62.2,16.3c0,0,0-0.6,0.6-1.3l1.3-0.6 c21.4-6.9,42.1-11.9,62.2-16.3l0.6,1.3L158.6,104.4L158.6,104.4z"></path> <g> <path style="fill:#FFFFFF;" d="M271.7,356.4c0.6-0.6,1.9-1.3,2.5-2.5C273.6,355.1,272.3,355.8,271.7,356.4z"></path> <path style="fill:#FFFFFF;" d="M249.7,373.3c0,0,0.6,0,0.6-0.6C249.7,372.7,249.7,372.7,249.7,373.3z"></path> <path style="fill:#FFFFFF;" d="M269.2,358.9c0.6-0.6,1.9-1.3,2.5-1.9C270.4,357.6,269.8,358.3,269.2,358.9z"></path> <path style="fill:#FFFFFF;" d="M251.6,372.1l0.6-0.6C252.2,371.5,251.6,371.5,251.6,372.1z"></path> <path style="fill:#FFFFFF;" d="M266,361.4c0.6-0.6,1.9-1.3,2.5-1.9C267.3,360.1,266.7,360.8,266,361.4z"></path> <path style="fill:#FFFFFF;" d="M259.7,282.2c-0.6,0-1.3,0-1.9,0c22.6,3.1,18.2,24.5,16.3,30.8l0,0c0.6,0,1.3,0.6,1.9,0.6 C276.7,313.7,286.8,287.3,259.7,282.2z"></path> <path style="fill:#FFFFFF;" d="M240.9,279.7c-6.9-1.3-13.8-5-17.6-15.7c-3.1-10.7,4.4-19.5,11.3-22.6l0,0 c-7.5,2.5-16.3,10.1-13.8,21.4C223.3,275.3,232.1,278.5,240.9,279.7z"></path> <path style="fill:#FFFFFF;" d="M232.7,318.7c2.5,2.5,5,1.9,5,1.9s-1.9-1.9-3.8-3.8c-1.3-1.9-5,0-5.7,1.3 C230.2,317.4,232.1,317.4,232.7,318.7z"></path> <path style="fill:#FFFFFF;" d="M262.3,364.5l0.6-0.6L262.3,364.5z"></path> <path style="fill:#FFFFFF;" d="M263.5,355.1c-1.3-6.3,0-11.3,1.9-16.3c0,0-4.4,6.3-5,13.2c0,3.1,0,6.9,3.1,11.9 c0.6-0.6,1.3-1.3,1.9-1.9C264.8,359.5,264.1,357,263.5,355.1z"></path> <path style="fill:#FFFFFF;" d="M261,365.2l-0.6,0.6C260.4,365.8,261,365.8,261,365.2z"></path> <path style="fill:#FFFFFF;" d="M223.9,323.7c3.8,1.3,6.9,3.8,6.9,3.8c0-0.6,0-1.3,0-1.3c3.1-0.6,4.4-2.5,4.4-2.5 c-1.9,0.6-5-1.3-6.3-1.3C227.1,321.8,223.9,323.7,223.9,323.7z"></path> <path style="fill:#FFFFFF;" d="M241.5,331.9c0,0,7.5-4.4,7.5-7.5c0-4.4-3.1-9.4-3.1-9.4c1.3-2.5,0-5.7-0.6-8.2 c1.9,0.6,3.8,0.6,5.7,1.3c10.1,1.3,16.3-3.1,18.2-4.4c1.9-1.3,0.6-1.9-2.5-1.9c-10.7,0-13.8-6.9-22.6-11.3 c-3.1-1.9-6.3-3.1-9.4-3.8c-6.9-1.9-15.1-1.9-21.4,0.6c-10.1,3.1-18.9,13.8-7.5,23.2c10.7,10.1,34.6-1.3,33.9-1.9s-1.9,0-5,0 c-12.6,0-15.7-1.3-17.6-4.4c-5-7.5,10.7-9.4,20.7-6.3c0.6,0,1.3,0.6,1.9,1.9c0.6,0.6,0.6,1.3,1.3,2.5c3.8,6.9,3.1,10.7,1.9,13.8 c0,0,1.9,5,2.5,7.5c0,1.9,0,3.1-1.3,3.8c-0.6,0.6-2.5,1.9-2.5,1.9s0-1.9-0.6-3.8c-0.6,4.4-5.7,14.5-6.3,18.9 c-0.6,4.4,0.6,8.2,0,9.4c-0.6,1.3-5,4.4-6.9,4.4c-3.1,0-2.5-2.5-5-2.5c-3.1,0-5,0-7.5-0.6c-1.3-0.6-2.5-1.9-3.1-5 c-0.6-3.1-3.8-3.8-8.2-5c-2.5-0.6-5-2.5-6.9-5.7c-1.3-3.1-3.8-9.4-2.5-18.2c-11.9,11.3-7.5,23.2-5.7,26.4 c-0.6-1.9-1.3-11.3,2.5-15.7c0.6,3.8,2.5,11.3,5.7,13.2c2.5,1.9,5.7,3.1,8.8,3.8c1.3,0,1.9,2.5,3.1,5.7c0.6,3.1,2.5,3.8,5,3.8 c1.9,0.6,6.9,0,8.2,0.6c0.6,0.6,1.9,3.1,6.3,1.9c3.8-0.6,8.2-3.8,9.4-5.7c0.6-1.9-0.6-7.5,0-10.1 C238.4,341.9,241.5,331.9,241.5,331.9z"></path> <path style="fill:#FFFFFF;" d="M274.8,353.9c0.6-0.6,1.9-1.3,2.5-2.5C276.7,352,275.5,352.6,274.8,353.9z"></path> <path style="fill:#FFFFFF;" d="M164.2,402.9c0,0-1.9-1.3-1.3-3.1c0-0.6,1.3-2.5,1.9-3.1c0.6-0.6,1.3-1.9,1.3-2.5 c3.1-9.4,3.8-13.2,3.1-19.5c-0.6-17,3.1-27,3.1-27c2.5,0.6,3.8,1.9,4.4,1.9c0,0-1.9-1.9-3.1-4.4c-2.5-5-3.8-14.5,0.6-21.4 c0,0,1.3,5,3.8,7.5c-1.3-6.3-3.8-13.8,0.6-23.2c6.9-13.8,20.7-28.3,34.6-32c3.1-1.3,6.9,0,10.7,1.9l0,0l0,0 c-3.8-3.1-8.8-5-13.8-4.4c-6.3,0.6-17,8.2-23.9,16.3c-7.5,8.2-10.7,13.2-12.6,19.5c-0.6,3.8-0.6,10.1-0.6,10.1 c-7.5,9.4-3.1,27.6-3.1,27.6s-6.9,11.3-3.8,28.9c1.3,6.3-1.3,13.2-2.5,16.3c-0.6,1.3-0.6,1.3-1.3,1.9c-0.6,0.6-3.1,2.5-3.8,4.4 c-0.6,2.5,0.6,3.8,0.6,3.8c-8.2,5.7-10.1,11.9-10.1,11.9s1.3,0.6,3.1,0.6h0.6l0,0C155.4,411.7,159.2,406,164.2,402.9z"></path> <path style="fill:#FFFFFF;" d="M256.6,364.5c0.6-1.9,1.9-5,0-6.9c-0.6,4.4-5,8.8-1.9,12.6l0,0c0.6-0.6,1.3-0.6,1.9-1.3 C256,367.1,256,365.8,256.6,364.5z"></path> <path style="fill:#FFFFFF;" d="M258.5,367.1l0.6-0.6C259.1,367.1,258.5,367.1,258.5,367.1z"></path> <path style="fill:#FFFFFF;" d="M277.3,351.4c0.6-0.6,1.9-1.9,2.5-2.5C279.2,349.5,278.6,350.1,277.3,351.4z"></path> <path style="fill:#FFFFFF;" d="M283,345.1c0.6-0.6,1.3-1.3,1.9-2.5l0,0C284.9,343.2,283.6,344.4,283,345.1z"></path> <path style="fill:#FFFFFF;" d="M280.5,347.6c0.6-0.6,1.9-1.9,2.5-2.5C282.4,346.3,281.7,347,280.5,347.6z"></path> <path style="fill:#FFFFFF;" d="M240.9,377.7c0,0,0.6,0,0.6-0.6C241.5,377.7,241.5,377.7,240.9,377.7z"></path> <path style="fill:#FFFFFF;" d="M196.9,390.3c6.9-3.1,11.3-0.6,11.3-0.6c0.6,1.9,0.6,5,0.6,5c3.1-10.1,0.6-18.9-0.6-20.1 c-3.1-3.1-6.9-3.1-6.9-3.1s3.1,5,4.4,9.4c-1.9,0.6-4.4,1.9-7.5,0.6c-10.1-4.4-13.8-28.9-18.2-32c1.9,4.4,3.1,15.7,4.4,20.1 c1.9,4.4,3.8,6.9,5,8.2c0.6,0.6,0.6,0.6,0.6,0.6s3.8,3.8,6.9,5c3.8,0.6,8.8-0.6,8.8-0.6c0.6,2.5,1.3,6.3,1.3,6.3 s-7.5-2.5-14.5,1.9c0,2.5,5.7,13.2,15.7,14.5c0,0,0.6,0,1.3,0l0,0C201.3,403.5,196.9,391.6,196.9,390.3z"></path> <path style="fill:#FFFFFF;" d="M240.3,376.5c0,0,6.9-3.8,8.2-9.4c-3.1,3.1-7.5,6.3-12.6,8.2c1.3,1.3,1.9,2.5,1.9,3.8 c0.6-0.6,1.9-0.6,2.5-1.3C240.3,377.7,240.3,377.1,240.3,376.5z"></path> <path style="fill:#FFFFFF;" d="M242.8,376.5c0,0,0.6,0,0.6-0.6C243.4,376.5,243.4,376.5,242.8,376.5z"></path> </g> <path style="fill:#FFFFFF;" d="M365.3,177.3c0-1.9,0-3.8,0-5.7V171v-6.9c0,0,0-4.4,0-5.7V154c0-2.5,0-5-0.6-6.9v-0.6l0,0 c0-1.9,0-4.4-0.6-6.3v-0.6c0,0-0.6-4.4-0.6-5l-0.6-5.7c0-0.6-0.6-8.8-0.6-8.8c0-1.3-0.6-3.1-0.6-4.4l-0.6-4.4l-0.6-6.3v-1.3 c-0.6-4.4-1.3-6.9-1.3-6.9l-9.4-3.8c0,0-23.9-3.8-62.2-3.8h-2.5l12.6-37.7l-6.3-2.5l-19.5,2.5c-13.8,1.9-20.1,5-25.8,12.6 c-0.6,0.6-1.3,1.3-1.9,1.9l0,0l0,0c-1.3-1.3-2.5-2.5-3.8-3.8l-0.6-0.6c-0.6-0.6-1.3-1.3-1.9-1.3l0,0c-0.6-0.6-1.3-0.6-1.3-1.3 c-0.6-0.6-1.9-1.3-2.5-1.3c-0.6,0-0.6,0-0.6-0.6c0,0-0.6,0-1.9-0.6l-1.9-0.6c-0.6,0-1.9-0.6-3.1-1.3c-2.5-0.6-4.4-1.3-5.7-1.9l0,0 v0.6h-0.6l0,0c-1.3-0.6-2.5-0.6-3.1-0.6l0,0l0,0c0,0,0,0-0.6,0c-1.3,0.6-3.1,1.9-6.9,5.7l0,0c-3.1,3.1-6.9,7.5-10.1,13.8l0,0 l-1.3-1.3h-0.6l0,0c0,0-0.6,0-0.6-0.6c-0.6-0.6-1.3-0.6-1.9-1.3h-0.6h-0.6c-0.6-0.6-1.9-0.6-2.5-1.3c-0.6,0-0.6,0-1.3-0.6 c-2.5-0.6-6.3-1.3-11.3-1.9l0,0h-0.6l0,0h-0.6c-1.9,0-6.3,0-10.7,0.6l-19.5,3.1l0.6,1.3h-0.6l13.2,31.4l0,0 c-21.4,4.4-42.1,10.1-62.2,16.3H97c0,0.6,0,1.3,0,1.3v0.6c-16.3,74.1-10.1,139.5,19.5,194.2c3.1,6.3,15.7,25.1,15.7,25.1 c10.7,15.1,23.2,28.3,37.7,40.2c0-1.9,0-4.4,0-6.9c-0.6-11.3,1.3-19.5,1.9-23.9C119,301.7,107.7,238.2,107.7,193v-1.9 c0-33.3,6.3-56.6,6.3-56.6c35.2-10.1,68.5-15.7,96.8-18.9l0,0c0.6,0,0.6,0,1.3,0l0,0c0.6,0,0.6,0,1.3,0c22.6-2.5,42.7-3.8,59.7-3.8 h6.9c23.9,0,40.8,1.9,47.8,3.1c3.8,25.1,5.7,48.4,5.7,69.1v4.4c-0.6,73.5-20.7,120-44,148.9l0,0l-0.6,0.6c-0.6,0.6-1.3,1.3-1.9,2.5 c0,0.6-0.6,0.6-0.6,1.3c-0.6,0.6-1.3,1.3-1.9,1.9c0,0.6-0.6,0.6-0.6,1.3c-0.6,0.6-1.3,1.9-2.5,2.5c0,0,0,0-0.6,0.6 c-0.6,1.3-1.9,1.9-2.5,2.5l-0.6,0.6c-0.6,0.6-1.3,1.3-1.9,1.9l-0.6,0.6c-0.6,0.6-1.3,1.3-1.9,1.9l-0.6,0.6 c-0.6,0.6-1.3,1.3-1.9,1.9l-0.6,0.6c-0.6,0.6-1.9,1.3-2.5,2.5l0,0l0,0c-0.6,0.6-1.3,1.3-1.9,1.9l0,0c-0.6,0.6-1.3,1.3-1.9,1.3 l-0.6,0.6c-0.6,0.6-1.3,0.6-1.3,1.3l-0.6,0.6c-0.6,0.6-1.3,0.6-1.3,1.3c0,0-0.6,0-0.6,0.6l0,0l0,0c-0.6,0.6-1.3,0.6-1.9,1.3l0,0 l0,0c0,0-0.6,0-0.6,0.6c-3.1-0.6-3.1,0-3.8,0l-0.6,0.6c-0.6,0-0.6,0.6-1.3,0.6l-0.6,0.6c-0.6,0-0.6,0.6-1.3,0.6c0,0-0.6,0-0.6,0.6 c-0.6,0-0.6,0.6-1.3,0.6c0,0-0.6,0-0.6,0.6c-0.6,0-0.6,0.6-1.3,0.6c0,0-0.6,0-0.6,0.6c-0.6,0-1.3,0.6-1.3,0.6l0,0 c-0.6,0-1.3,0.6-1.9,0.6l0,0c-5,2.5-10.1,4.4-13.2,5.7c-3.1,9.4-7.5,18.2-14.5,19.5c-0.6,0-1.9,0-2.5,0 c-8.8-0.6-13.2-11.9-13.2-13.2c6.9-3.1,11.3-0.6,11.3-0.6c0.6,1.9,0.6,5,0.6,5c2.5-6.9,1.9-13.2,0.6-17c-1.9-1.3-4.4-2.5-6.3-3.8 c0.6,1.9,1.9,4.4,2.5,6.3c-1.9,0.6-4.4,1.9-7.5,0.6c-5-2.5-8.8-10.1-11.3-17c-1.3-1.3-2.5-1.9-4.4-3.1c0.6,3.1,1.3,6.3,1.9,8.2 c1.9,4.4,3.8,6.9,5,8.2c0.6,0.6,0.6,0.6,0.6,0.6c-5.7,2.5-9.4,6.9-11.3,11.3l0,0c0.6,0.6,1.9,1.3,2.5,1.9c5,3.8,10.7,7.5,15.7,10.7 c2.5,1.3,4.4,2.5,6.3,3.8l1.3,0.6c0.6,0.6,1.9,1.3,2.5,1.3s2.5,1.3,2.5,1.3c1.3,0.6,1.9,1.3,3.1,1.3c0.6,0,1.3,0.6,1.3,0.6 c0.6,0,1.3,0.6,1.9,0.6l0,0l1.3,0.6h0.6c0.6,0.6,1.3,0.6,1.9,0.6h0.6h0.6l0,0h0.6c0,0,0.6,0,1.3,0s1.3,0,1.9,0h1.3l1.9-0.6 c0.6,0,1.3-0.6,2.5-0.6c0.6,0,0.6,0,1.3,0l0,0c-1.3-3.1-1.3-6.3-1.3-8.8s1.9-6.9,1.9-6.9s3.1-9.4,16.3-11.9 c12.6-1.9,19.5,5.7,21.4,8.2c0.6,0.6,0.6,1.3,1.3,2.5c0.6-0.6,1.3-1.3,1.9-1.3l1.3-1.3c3.1-1.9,6.3-4.4,8.8-6.3 c2.5-1.9,4.4-3.1,6.9-5.7c1.3-1.3,2.5-1.9,3.1-3.1l0,0c0,0,0.6,0,0.6-0.6c1.3-1.3,3.1-2.5,4.4-4.4l0,0c1.3-1.3,3.1-3.1,4.4-4.4 l1.3-1.3c1.3-1.3,2.5-2.5,3.1-3.8l0.6-0.6l0.6-0.6c0.6-0.6,1.3-1.9,2.5-2.5l0,0l0,0l0,0c2.5-2.5,4.4-5,6.3-8.2l0,0 c0.6-0.6,1.3-1.3,1.3-1.9V347l0.6-0.6c0.6-0.6,1.3-1.9,1.9-3.1l0,0c1.3-2.5,3.1-4.4,4.4-6.9l0,0c0.6-1.3,1.9-3.1,2.5-4.4l0,0 c1.3-1.9,1.9-3.8,3.1-5.7l0,0l0,0c0.6-1.3,1.3-1.9,1.9-3.1l0.6-0.6c0.6-1.3,1.3-2.5,1.9-4.4c0.6-1.3,1.3-3.1,1.9-4.4l0,0 c2.5-5,4.4-10.7,6.3-15.7c3.1-7.5,5.7-16.3,7.5-24.5c0,0,0.6-3.1,1.3-3.8l0.6-2.5l1.3-4.4c0.6-2.5,1.3-5,1.9-8.2V254 c0.6-5,1.9-9.4,2.5-15.1l0,0c0.6-6.3,1.9-12.6,2.5-18.9v-1.3v-0.6c0-1.9,0.6-4.4,0.6-6.3c0,0,0-4.4,0.6-6.3v-1.9 c0-3.8,0.6-7.5,0.6-11.9v-1.9c0-1.9,0-3.1,0-5C365.3,182.9,365.3,180.4,365.3,177.3L365.3,177.3L365.3,177.3z"></path> <path style="fill-rule:evenodd;clip-rule:evenodd;fill:#FFFFFF;" d="M232.1,396c0,0-1.9,2.5-2.5,6.3c-0.6,4.4,0.6,8.2,0.6,8.2 s0.6,3.8,1.9,5.7c1.3,2.5,3.1,5,5.7,5c0,0-2.5-3.1-2.5-6.9c0,0-3.1-1.3-4.4-5c0,0-1.9-6.3,0.6-10.1 C231.5,399.1,231.5,397.9,232.1,396L232.1,396z"></path> <path style="fill-rule:evenodd;clip-rule:evenodd;fill:#FFFFFF;" d="M241.5,400.4l-5-5c0,0,1.3-5,5-7.5c3.1-2.5,9.4-1.3,9.4-1.3 s1.9-2.5,5-1.9c3.1,0,8.2,3.8,8.2,3.8v2.5l-0.6,1.3c0,0-3.1-0.6-7.5-1.3c0,0-3.1,3.1-5,7.5c0,0,3.1,4.4,5,8.8c0,0-2.5,3.8-5.7,7.5 c0,0-5.7-1.9-8.8-4.4C240.9,410.4,240.3,405.4,241.5,400.4L241.5,400.4z"></path> <path style="fill-rule:evenodd;clip-rule:evenodd;fill:#FFFFFF;" d="M247.2,425.5c0,0,3.8-1.9,5-3.1c0,0,1.9,0.6,4.4,0.6 s4.4-0.6,4.4-0.6s3.8-2.5,5.7-6.3c0,0,0-3.8-1.9-7.5c0,0,2.5-3.8,3.8-7.5c0,0,2.5,0.6,4.4,3.1c0,0,0.6,5-1.3,8.8 c0,0-0.6,4.4-3.8,8.2s-7.5,5-7.5,5s-3.8,2.5-8.2,2.5C247.8,428.6,247.2,425.5,247.2,425.5L247.2,425.5z"></path> <path style="fill-rule:evenodd;clip-rule:evenodd;fill:#FFFFFF;" d="M258.5,397.9c0,0,1.3-1.9,1.3-3.8c0,0,1.3,1.3,1.9,4.4 c0,0,3.1,1.9,4.4,2.5c0,0-1.9,0.6-3.8,1.3c0,0-1.3,2.5-1.9,4.4c0,0-1.3-3.1-1.9-4.4c0,0-1.3-0.6-4.4-2.5 C254.1,399.1,256,398.5,258.5,397.9L258.5,397.9z"></path> <path style="fill:#FFFFFF;" d="M130.9,144l13.8-1.3v44.6l-11.3,7.5l-23.2,2.5l13.8-8.8l8.8-1.3v-35.8l-16.3,1.9L130.9,144 L130.9,144z M205.7,148.4l11.3-1.3v25.8l-11.3,7.5l-6.9,0.6v7.5l-11.3,7.5v-45.9l11.3-1.3v3.8L205.7,148.4L205.7,148.4z M180.6,150.9l-11.3,1.3v24.5l-6.9,0.6v-24.5L151,154v32l10.7-1.3l7.5-5v3.8l4.4-0.6l13.8-8.8l-6.9,0.6L180.6,150.9L180.6,150.9z M222,178.6l11.3-1.3v-32l-11.3,1.3V178.6L222,178.6z M239,176.7l11.3-1.3v-44.6l-11.3,1.3V176.7L239,176.7z M205.7,155.9l-6.9,0.6 v17l6.9-0.6V155.9L205.7,155.9z M266.7,164.1l17.6,7.5l-17.6,1.9l-11.9-5v-25.8l21.4-2.5l7.5,3.1v16.3l-17.6,1.9v2.5H266.7z M318.2,143.4v-7.5l-11.3,1.3l-6.9,4.4v-3.8l-11.3,1.3v32l11.3-1.3v-24.5l6.9-0.6v6.3L318.2,143.4L318.2,143.4z M315,161 c-1.9,0-3.1,1.3-3.1,3.1c0,1.3,1.3,2.5,3.1,2.5c1.9,0,3.1-1.3,3.1-3.1C318.2,162.2,316.9,161,315,161L315,161z M315,166.6 c-1.3,0-2.5-0.6-2.5-1.9s1.3-2.5,2.5-2.5c1.3,0,2.5,0.6,2.5,1.9C317.6,164.7,316.3,166,315,166.6L315,166.6z M315.7,164.1 c0.6,0,0.6-0.6,0.6-0.6c0-0.6-0.6-0.6-1.3-0.6h-1.3v3.1h0.6v-1.3L315.7,164.1c0,0,0,0,0,0.6s0,0.6,0,0.6h0.6 C316.3,164.7,316.3,164.7,315.7,164.1C316.3,164.1,316.3,164.1,315.7,164.1L315.7,164.1z M315,163.5h-0.6v-0.6h0.6 C315.7,162.8,315.7,162.8,315,163.5C315.7,163.5,315.7,163.5,315,163.5L315,163.5z M266.7,154.7l5.7-0.6v-5.7l-5.7,0.6V154.7 L266.7,154.7z M234,132.7l-11.9,1.3v7.5l11.3-1.3v-7.5H234z"></path> <path style="fill:#FFFFFF;" d="M148.5,210.6l-10.1,1.3v33.3l19.5-1.9V237l-9.4,1.3V210.6L148.5,210.6z M181.2,206.8l-18.9,1.9V242 l19.5-1.9v-6.3l-8.8,1.3v-8.2l7.5-0.6V220l-7.5,0.6v-6.3l8.8-1.3v-6.3H181.2z M205.1,204.3l-14.5,1.3l-6.3,34.6l9.4-1.3l0.6-6.3 l5.7-0.6l0.6,6.3l10.1-1.3L205.1,204.3L205.1,204.3z M239.6,205.6l-6.9-4.4l-11.3,1.3l-6.9,5.7V232l6.9,3.8l11.3-1.3l6.9-5.7v-12.6 l-12.6,1.3v6.3h2.5v5l-5,0.6v-20.7l5-0.6v6.3l10.1-1.3L239.6,205.6L239.6,205.6z M269.8,197.4l-10.1,0.6v27l-4.4,0.6v-27l-10.1,1.3 v28.9l6.3,4.4l11.3-1.3l6.3-5.7v-28.9H269.8z M294.9,194.3l-18.9,1.9v33.3l18.9-1.9v-6.3l-8.8,1.3v-8.2l7.5-0.6v-6.3l-7.5,0.6v-6.3 l8.8-1.3V194.3L294.9,194.3z M200,225.7l-4.4,0.6l1.3-13.8h1.3L200,225.7L200,225.7z"></path> <path style="fill:#FFFFFF;" d="M181.2,196.1v1.3l-70.4,7.5v-1.3L181.2,196.1L181.2,196.1z M198.8,194.3l119.4-13.2 c0,0.6,0,0.6,0,1.3l-121.9,13.2L198.8,194.3L198.8,194.3z"></path> </g> </svg> 