<?xml version="1.0" encoding="UTF-8"?> <svg xmlns="http://www.w3.org/2000/svg" xmlns:xlink="http://www.w3.org/1999/xlink" version="1.1" id="Layer_1" x="0px" y="0px" viewBox="0 0 2000 2000" style="enable-background:new 0 0 2000 2000;" xml:space="preserve"> <g> <polygon style="fill:#FFFFFF;" points="330.7,588.6 389.6,637.1 421.5,567.3 362.6,518.7 "></polygon> <path style="fill:#FFFFFF;" d="M336.5,495.3l40.6-8.6l13.4,19.7l22.1-4.7l-61.7-88.1l-19.5,4.1l-20.7,105.6l21.6-4.6L336.5,495.3z M346.3,441.2l19.4,28.5l-25.6,5.4L346.3,441.2z"></path> <path style="fill:#FFFFFF;" d="M562.9,378.8l41.4-1.3l9.6,21.7l22.5-0.7l-32.8-70.8l-10.8-23.3l-1.5-3.1l-19.9,0.6l-3,7.7 l-10.8,27.7l-25,64.4l22-0.7L562.9,378.8z M579.8,332.5l2-5.3l2,4.5l12,26.9l-26,0.8L579.8,332.5z"></path> <path style="fill:#FFFFFF;" d="M610.2,448.9c1.2-3.1,1.7-6.4,1.6-9.9c-0.4-14.1-12.3-25.2-26.4-24.8c-14.1,0.4-25.2,12.3-24.8,26.4 c0.1,3.5,0.9,6.7,2.2,9.7c-12.6,0.4-22.8,9.8-24.5,21.9c-0.2,1.5-0.3,2.9-0.2,4.5c0.4,14.1,12.3,25.2,26.4,24.8 c7.3-0.2,13.8-3.5,18.3-8.6c0.6-0.5,1.1-1.1,1.6-1.7c-1.7,11.1-4.4,23-8.9,30.2l26.4-0.8c-4.9-6.9-8.4-18.6-10.8-29.6 c0.5,0.5,1.1,1.1,1.8,1.6c4.8,4.8,11.5,7.6,18.8,7.4c14.1-0.4,25.2-12.3,24.8-26.4c0-1.5-0.2-3-0.5-4.4 C633.5,457.3,622.8,448.5,610.2,448.9z"></path> <path style="fill:#FFFFFF;" d="M789.2,304.5l40.7,7.5l4.8,23.2l22.2,4.1L843,276.8l-3.4-15.4l-2-9l-3.5-15.8l-0.4-1.9l-19.5-3.6 l-4.1,6.3L794,261.7l-0.8,1.2l-18.9,28.6l-19.2,29l21.6,4L789.2,304.5z M801.3,285.6l15.1-23.5l3.3-0.1l4,18.9l2.3,10.9l-25.6-4.7 L801.3,285.6z"></path> <path style="fill:#FFFFFF;" d="M836,360.6c-14.5-10.2-31.4-3.4-35.9,3.8c-1.6-8.3-14.9-20.7-32.1-16.4c-9,2.3-39.7,26.4,18.2,91.7 C863.7,399.4,843.5,365.9,836,360.6z"></path> <path style="fill:#FFFFFF;" d="M1314.1,632.4c-10.5-31.8-25.7-67.7-46.6-108.3c-37.8,8.8-70.3,18.6-98.3,29c-8.2,3-16,6.1-23.4,9.3 c-0.5-0.6-0.9-1.2-1.4-1.8l0.1,2.4c-100.9,43.2-131.8,95-136.5,134.8c-1.7,14.6,0.1,27.5,3.3,37.8c3,9.6,7.1,17,10.8,21.2 c7.8,9.1,16.4,16.2,25.4,21.6c29.6,17.8,63.5,16.9,86,8c-22.2,31.5-48.8,63.7-73.7,78.9l26,12l4.5,2.1l51.6,23.9 c-4.1-26.6,1.7-63.6,10.2-98.4c0.7-3,1.5-5.9,2.2-8.8c4.1,12.3,12.1,25.5,23.7,36.9c16.6,16.3,40.5,28.8,71,28.9 c5.7,0,14.3-1.6,23.8-5.8c9.4-4.1,19.8-10.7,29.2-20.6c23.5-24.5,41.7-69.1,27-146.4C1325.8,671.8,1320.9,653,1314.1,632.4z"></path> <path style="fill:#FFFFFF;" d="M1636.8,403.2l-516.2-238.9c-28-13-61.3-0.7-74.3,27.3l-10.4,22.6l-246.1-45.4 c-14.7-2.7-29.6,0.4-41.9,8.9s-20.6,21.2-23.3,36l-4.9,26.5L534.5,246c-14.9,0.5-28.8,6.7-39.1,17.6 c-10.2,10.9-15.6,25.1-15.1,40.1l0.8,24.2l-195.9,41.5c-30.3,6.4-49.7,36.2-43.3,66.5l169.2,798.7c6.4,30.3,36.2,49.7,66.5,43.3 l264.6-56c-24.7,56.9-38.3,119.7-38.3,185.7c0,258.2,209.3,467.5,467.5,467.5s467.5-209.3,467.5-467.5 c0-167.8-88.4-314.9-221.1-397.4l246.4-532.5C1677.1,449.5,1664.8,416.2,1636.8,403.2z M734,300l4.9-26.7l1.6-8.8l4.7-25.1 l3.9-21.2c1.5-8.2,6.1-15.2,12.9-19.9s15-6.4,23.2-4.9l207.2,38.2l32.7,6l-87.6,189.2l-17.6,38L902,503.3 c-3.5,0.5-7.2,1.2-10.8,2.2c-5.3,1.3-12.8,4.9-20.7,10.9c-22.8,17.5-48.5,56.2-31.9,123.9l-40.2,86.8l-94.3,203.8 c-2.6,5.7-4.2,11.6-4.9,17.5c-2.5,23.2,9.8,46.5,32.2,56.8l124.3,57.5c-10.3,9.4-20.1,19.3-29.5,29.6l-200.2-37 c-8.2-1.5-15.2-6.1-19.9-12.9c-4.7-6.8-6.4-15.1-4.9-23.2l24.3-131.6l48.6-263L734,300z M513.6,280.7c5.7-6,13.3-9.5,21.6-9.8 l179.8-5.6l-2.5,13.6l-4.9,26.7L652,606.3l-48.6,263l-26.8,145.3c-2.7,14.7,0.5,29.6,8.9,41.9c5.8,8.4,13.5,14.9,22.5,19.1 c4.2,2,8.7,3.4,13.4,4.3l186,34.3c-6.7,8.4-13.2,17-19.4,25.8l-225.3,7.1c-8.3,0.3-16.2-2.7-22.2-8.4c-6-5.7-9.5-13.3-9.8-21.6 l-9.8-315.8l-0.3-10.7L506.7,348l-0.8-25.4l-0.7-19.7C504.9,294.6,507.9,286.8,513.6,280.7z M472.3,1253.4 c-16.8,3.5-33.3-7.2-36.8-23.9L266.3,430.7c-3.5-16.8,7.2-33.3,23.9-36.8l191.6-40.6l24.1,764.5c0.5,15,6.7,28.8,17.6,39.1 c4.4,4.2,9.5,7.5,14.8,10c7.8,3.6,16.4,5.4,25.2,5.1l207.9-6.5c-5.5,9.1-10.7,18.4-15.6,27.9L472.3,1253.4z M1034.2,1641.4 c-129.1,0-233.7-104.6-233.7-233.7S905.1,1174,1034.2,1174c83,0,155.9,43.3,197.4,108.4c-34.2-37.8-83.7-61.5-138.6-61.5 c-103.3,0-187,83.7-187,187s83.7,187,187,187c54.6,0,103.7-23.4,137.8-60.6C1189.1,1598.7,1116.6,1641.4,1034.2,1641.4z M1430.2,1475.7l-80-26l-49.4,68v-84.1l-80-26l80-26v-84.1l49.4,68l80-26l-49.4,68L1430.2,1475.7z M1641.4,467L1396,997.5 c-66.6-36.6-143.2-57.4-224.6-57.4c-111.8,0-214.4,39.2-294.8,104.7l-134.7-62.3c-15.5-7.2-22.3-25.6-15.1-41.1l201.6-435.7 l17.6-38l122.9-265.5c7.2-15.5,25.6-22.3,41.1-15.1l516.3,238.9C1641.8,433.1,1648.6,451.5,1641.4,467z"></path> <path style="fill:#FFFFFF;" d="M1054.6,408.1c-6.1,8.7-13.5,17.6-20.4,21.8l22.7,10.5c-1.2-8,0.8-19.3,3.4-29.7 c2.8,8.3,11.9,18.2,26.2,18.2c9.4,0.1,45.2-15.7,5.2-93.3c-85,19.8-73.9,57.3-67.9,64.3C1033,410.7,1046.5,411.3,1054.6,408.1z"></path> <path style="fill:#FFFFFF;" d="M1086.4,295.7l37.6,17.4l-1.1,23.7l20.5,9.5l2.7-86.3l0.4-13.2l0.2-7.7l-18-8.3l-0.6,0.5l-1.5,1.3 l-21.9,19.8l-0.8,0.7l-54.8,49.6l19.9,9.2L1086.4,295.7z M1124.5,260.3c0.7,0.5,1.3,1.1,1.9,1.7l-1.4,30.7l-23.6-11L1124.5,260.3z"></path> </g> </svg> 