<?xml version="1.0" encoding="UTF-8"?> <svg xmlns="http://www.w3.org/2000/svg" xmlns:xlink="http://www.w3.org/1999/xlink" version="1.1" id="Layer_1" x="0px" y="0px" viewBox="0 0 1000 1000" style="enable-background:new 0 0 1000 1000;" xml:space="preserve"> <path style="fill:#FFFFFF;" d="M885.3,911c-5.4-1.4-11-2.2-16.1-4.3c-11.5-4.8-17-15.6-14-25.8c-16.1-5.2-16.3-22.9-0.2-32.1 c-7-11.5-7.8-22.9,0.6-34c7.7-10.1,21.6-13.5,32.9-7.6c4.3,2.2,7.9,3.2,12.6,1.7c3.6-1.1,7.6-0.8,11.4-1.1c0,2.3,0,4.5,0,6.8 c-4.4,0-8.8,0-13.6,0c0.6,1.8,0.7,2.4,1,3c7,12.7,5.9,24.2-3.2,33.5c-9,9.1-21.3,10.8-33.4,4c-5.7-3.1-8.4,0.4-10.9,4.2 c-3,4.6-1.3,10.6,3.5,12.5c2.4,1,5.3,1.1,7.9,1.2c9.5,0.2,19-0.3,28.4,0.3c10.6,0.7,17,7,17.7,16.2c0.8,9.7-4.1,16.3-14.3,19.3 c-2.9,0.9-5.9,1.5-8.9,2.2C886.2,911,885.8,911,885.3,911z M877.1,851.5c11-0.1,19.8-9,19.6-19.8c-0.2-10.9-9.2-19.7-20.1-19.6 c-10.7,0.1-19.8,9.3-19.7,20C857.1,843,866.1,851.6,877.1,851.5z M861.2,881.2c-1.9,13.9,15.7,25.2,32,20.4 c5.3-1.6,8.8-4.7,8.5-10.6c-0.3-6-4.3-9.3-9.6-9.6C881.8,880.7,871.5,881.2,861.2,881.2z"></path> <path style="fill:#FFFFFF;" d="M606,399.1c3.5-17.5,6.9-34.6,10.4-51.6c11-53.6,21.9-107.2,39.6-159c3.2-9.4,7.5-18.4,12.1-27.2 c4.2-8,10.5-11.1,17.1-9.4c7.6,1.9,11.3,7.6,11.6,14.9c0.9,19.9,2.1,39.7,1.6,59.6c-0.9,35.1-4.7,70-12.8,104.2 c-4.9,20.7-12,40.8-24.3,58.5c-9.1,13.2-21.3,22.2-37.6,24.1c-5.2,0.6-5.1,4-5.9,7.4c-10.3,47.3-21.3,94.4-38.4,139.7 c-8,21-17.3,41.8-28.6,61.3c-12.1,21-31.3,33.5-56.6,34.6c-22,1-39.2-9-54.3-23.6c-22.6-21.8-38.4-48.4-53.2-75.8 c-27.3-50.6-45.9-104.6-62.6-159.3c-16.1-53-30.9-106.3-39.8-161.1c-3.9-24.4-6.9-48.8-5-73.6c1.4-18.8,11.4-32.2,28.2-40 c17.1-7.9,34-6.8,49.4,4.5c5.9,4.4,11.4,9.7,16,15.5c34.1,43.1,67.5,86.8,102.1,129.5c31.8,39.4,65,77.8,102.7,111.8 C585.6,391.2,594.2,396.9,606,399.1z M602.8,415c-10.8-5.6-21.3-9.2-29.7-15.8c-20.1-15.8-39.9-32-58.3-49.7 c-43.9-42.4-82.1-89.8-119.7-137.6c-15.8-20.1-31.9-39.9-48-59.8c-4.4-5.4-9.9-8.9-17.2-6.5c-7.2,2.4-9.5,8.1-10.1,15.3 c-2,23.6,0.7,47,3.9,70.3c6.9,49.3,18.7,97.6,32,145.6c15.8,57.1,32.2,114,58,167.6c14.5,30,29.8,59.5,52.5,84.3 c15.2,16.6,39,17.4,54.8,1.2c5.5-5.6,9.9-12.3,13.9-19.1c21.6-37.5,35.4-78.1,47.3-119.4C589.8,465.7,596.3,439.6,602.8,415z M622.4,399.1c12.8-3,23.8-8.9,30.7-19.6c6-9.2,10.9-19.3,14.8-29.5c12.4-32.7,17-67,18.8-101.6c1.4-25.9,0.4-51.9,0.1-77.9 c0-2.6-2.7-5.1-4.1-7.6c-2.2,2-5.3,3.6-6.3,6c-3.7,8.7-7.5,17.5-9.7,26.7c-10.7,44.8-21.2,89.6-31.2,134.6 C630.5,352.7,626.8,375.6,622.4,399.1z"></path> <path style="fill:#FFFFFF;" d="M115.4,859.1c9-25.8,17.6-49.6,25.4-73.6c2.4-7.4,5.7-10.5,13.3-9.1c1.7,0.3,3.5,0.2,6.3,0.4 c-2.9,8.5-5.7,16.5-8.4,24.5c-7.7,22.4-15.5,44.8-23.1,67.2c-1.2,3.4-2.6,4.9-6.6,5c-18.5,0.2-18.5,0.4-24.5-17 c-9.1-26.2-18.1-52.4-27.6-79.9c5.2,0,9.8-0.4,14.3,0.2c1.4,0.2,3,3,3.6,4.8c8.2,23.2,16.3,46.4,24.4,69.7 C113.1,853.2,113.9,855.2,115.4,859.1z"></path> <path style="fill:#FFFFFF;" d="M209.2,774.4c4.6,0,8.6,0,13.4,0c0,13.6,0,27,0,40.8c20.4-10.2,35.1-8.6,45.6,4.4 c10.3,12.8,10.1,32.1-0.4,44.5c-10.8,12.8-25.7,14.2-44.7,4.1c-0.2,2.3-0.4,4.4-0.7,7c-4.3,0-8.5,0-13.2,0 C209.2,841.6,209.2,808.3,209.2,774.4z M220.9,841.2c-0.1,11.5,8.5,20.5,19.6,20.7c11.1,0.1,20.3-8.8,20.5-20 c0.2-11.2-8.6-20.3-19.9-20.5C229.7,821.2,221,829.7,220.9,841.2z"></path> <path style="fill:#FFFFFF;" d="M378.9,835.6c0.4-7.2-1.9-11.7-7.1-14c-8.3-3.6-15.4-0.5-22,5.4c-3.2-2.7-6.2-5.3-9.2-7.9 c7.6-10.7,21.5-15,34.6-11c11.8,3.6,18.4,13.2,18.4,27c0,13.1,0,26.2,0,39.8c-4.5,0-8.7,0-13.4,0c-0.2-2.3-0.5-4.7-0.8-8 c-1.8,1.5-3.2,2.6-4.7,3.8c-8.8,6.9-21.9,8-31.3,2.5c-7.6-4.5-10.6-11.4-9.9-20.1c0.7-8,5.6-13,12.7-15.1c5.5-1.6,11.5-1.9,17.4-2.4 C368.6,835.3,373.6,835.6,378.9,835.6z M378.8,847.7c-7.8,0-15.4-0.6-22.9,0.3c-2.7,0.3-6.1,3.9-7,6.6c-0.6,2,1.7,6.1,3.9,7.5 c5.5,3.5,11.8,2.6,17.3-0.5C375.3,858.8,379.4,854.6,378.8,847.7z"></path> <path style="fill:#FFFFFF;" d="M511.9,830.3c-11.9,0-23.4,0-35.2,0c-0.1-2.7-0.2-4.7-0.3-7.1c14.8,0,29.4,0,43.9,0 c3.4,22.5-9.7,44.2-30.5,51c-24.5,8-50.1-1.8-61.7-23.6c-11.4-21.4-5.8-48.8,12.9-63.1c18.7-14.3,47.2-13.6,63.6,1.8 c-1.4,1.6-2.8,3.1-4.6,5.2c-11.4-8.5-24.1-12.4-37.6-8.1c-7.6,2.4-15.5,6.8-21.1,12.5c-13.2,13.4-14.3,35-4.1,50.8 c10.2,15.8,30.1,22.8,48.9,17.2C502.4,862,512.1,848.6,511.9,830.3z"></path> <path style="fill:#FFFFFF;" d="M668,875.1c-3.2,0-5.3,0-8.3,0c0-9.7,0-19.1,0-28.6c0-4.3,0.1-8.6-0.5-12.9 c-1.6-12.3-9.6-20.1-20.1-19.8c-10.5,0.3-19.2,9.2-19.8,21.2c-0.5,10.8-0.2,21.7-0.3,32.6c0,2.2,0,4.5,0,7.2c-2.8,0-5.1,0-7.8,0 c0-22.2,0-44.3,0-66.7c2.4,0,4.5,0,7.4,0c0.2,2.9,0.4,5.9,0.7,10c6.4-7.9,13.5-12.6,23.5-12.1c10.3,0.5,16.2,6.8,21.5,14.8 c5.9-8.9,13.1-14.7,24-14.8c14.4,0,26,8.8,27.1,23.1c1.2,15,0.3,30.2,0.3,45.8c-2.4,0-4.7,0-8,0c0-13.6,0.1-27.1,0-40.6 c-0.1-11.1-7.1-19.1-17.1-20.2c-11.7-1.4-21.9,7.4-22.4,20.2C667.6,847.6,668,860.9,668,875.1z"></path> <path style="fill:#FFFFFF;" d="M583.5,875.1c-0.3-4-0.5-7.5-0.8-11c-0.5-0.4-1.1-0.9-1.6-1.3c-1.2,1.8-2.1,3.9-3.6,5.4 c-8.8,8.9-23.8,11-34.4,5c-7-3.9-10.2-10-9.6-18c0.5-7.8,5.2-12.7,12.2-14.5c5.8-1.5,12-1.8,18-2.2c6-0.3,12.1-0.1,18.5-0.1 c1.2-9-1.4-16.1-8.5-20.5c-9.8-6.1-19-3-28,3.6c-1.6-1.5-3.2-3-5.1-4.7c9.7-9.2,20.7-11.5,32.8-7.6c10.7,3.4,17.1,13.1,17.4,25.7 c0.2,13.3,0.1,26.6,0.1,40.2C588.2,875.1,586.2,875.1,583.5,875.1z M582.5,845.9c-10.9,0-21.3-0.7-31.4,0.4 c-3.4,0.4-8.1,5.1-8.7,8.6c-0.6,3.4,2,9,5,11.2c7.4,5.4,16,4.2,23.7-0.2C578.5,861.6,582.4,854.9,582.5,845.9z"></path> <path style="fill:#FFFFFF;" d="M831,875.2c-2.3,0-4.3,0-7.1,0c-0.1-2.7-0.4-5.3-0.4-7.9c0-9.5,0.1-19-0.1-28.5 c-0.3-14.2-9.5-24.2-22.6-24.9c-12.7-0.6-24.1,8.7-25.5,22.2c-1,9.6-0.5,19.4-0.7,29.1c0,3.1,0,6.2,0,9.8c-2.9,0-5,0-7.7,0 c0-22.2,0-44.3,0-66.8c2.3,0,4.6,0,7.3,0c0.3,3.7,0.5,7.4,0.9,12.5c1.8-2.1,2.7-3.3,3.7-4.3c8.8-9.1,19.3-12.3,31.5-8.5 c12,3.7,19.3,12.5,20.4,24.6C831.9,846.4,831,860.5,831,875.2z"></path> <path style="fill:#FFFFFF;" d="M305.8,875.1c-4.7,0-9.1,0-13.9,0c0-22.4,0-44.4,0-66.9c3.8,0,7.6,0,11.9,0c0.2,2.2,0.4,4.5,0.8,7.8 c7.3-5.4,14.7-9.6,24.2-7.8c0,3.8,0,7.6,0,11.3c-0.4,0.3-0.7,0.8-1.1,0.8c-17.1,2.5-21.1,7.1-21.2,24.3c0,9.5-0.1,19-0.1,28.5 C306.4,873.5,306.1,873.9,305.8,875.1z"></path> <path style="fill:#FFFFFF;" d="M185.6,872.9c-4.7,0-9.1,0-14,0c0-22.2,0-44.2,0-66.7c4.4,0,9,0,14,0 C185.6,828.2,185.6,850.4,185.6,872.9z"></path> <path style="fill:#FFFFFF;" d="M736.5,808.1c2.7,0,4.9,0,7.4,0c0,22.3,0,44.3,0,66.8c-2.4,0-4.7,0-7.4,0 C736.5,852.7,736.5,830.8,736.5,808.1z"></path> <path style="fill:#FFFFFF;" d="M179,775c4.6,0.4,7.1,2.9,7,7.8c-0.1,4.9-3.1,7.4-7.7,7.3c-4.7-0.1-7.5-3.1-7.3-7.8 C171.1,777.5,173.9,774.9,179,775z"></path> <path style="fill:#FFFFFF;" d="M747.7,782.7c-2.5,1.6-5.2,4.8-7.4,4.5c-2.3-0.3-5.3-3.8-5.8-6.3c-0.3-1.6,3.5-5.3,5.7-5.4 c2.4-0.1,5,2.7,7.5,4.3C747.7,780.7,747.7,781.7,747.7,782.7z"></path> </svg> 