<?xml version="1.0" encoding="UTF-8"?> <svg xmlns="http://www.w3.org/2000/svg" xmlns:xlink="http://www.w3.org/1999/xlink" version="1.1" id="Layer_1" x="0px" y="0px" viewBox="0 0 1000 1000" style="enable-background:new 0 0 1000 1000;" xml:space="preserve"> <path style="fill:#FFFFFF;" d="M389.5,367.3c20.5,0,36.4,4.6,47,14.6c11.3,9.9,16.6,24.5,16.6,43.7V501h-35.7v-16.6 C410,497,396.8,503,376.9,503c-9.9,0-19.2-2-26.5-5.3s-13.2-7.9-17.2-13.9c-4-6-6-13.2-6-20.5c0-12.6,4.6-21.8,13.9-29.1 c9.3-7.3,23.8-10.6,43-10.6h30.5c0-8.6-2.6-14.6-7.9-19.2c-5.3-4.6-12.6-6.6-23.2-6.6c-7.3,0-13.9,1.3-21.2,3.3 c-6.6,2-12.6,5.3-17.2,8.6l-13.9-26.5c7.3-5.3,15.9-9.3,25.8-11.9C368.3,368.6,378.9,367.3,389.5,367.3z M386.8,477.2 c6.6,0,12.6-1.3,17.2-4.6c5.3-3.3,8.6-7.9,10.6-13.2v-13.2h-26.5c-15.9,0-23.8,5.3-23.8,15.2c0,4.6,2,8.6,6,11.9 C374.9,475.9,380.2,477.2,386.8,477.2z"></path> <path style="fill:#FFFFFF;" d="M488.1,319h38.4V501h-38.4V319z"></path> <path style="fill:#FFFFFF;" d="M691.4,435.5c0,0.7,0,4-0.7,10.6h-100c2,7.9,6,14.6,12.6,19.2s15.2,7.3,25.2,7.3 c6.6,0,13.2-0.7,18.5-2.6c5.3-2,10.6-5.3,15.2-9.9l20.5,21.8c-12.6,13.9-30.5,21.2-54.3,21.2c-15.2,0-27.8-2.6-39.7-8.6 c-11.3-6-20.5-13.9-26.5-24.5c-6-10.6-9.3-21.8-9.3-35.1s3.3-24.5,9.3-35.1s14.6-18.5,25.2-24.5c10.6-6,23.2-8.6,36.4-8.6 c13.2,0,24.5,2.6,35.1,8.6c10.6,5.3,18.5,13.2,24.5,23.8C688.7,409.6,691.4,422.2,691.4,435.5z M623.2,396.4 c-8.6,0-15.9,2.6-21.8,7.3c-6,4.6-9.3,11.3-10.6,19.9h64.9c-1.3-8.6-4.6-15.2-10.6-19.9C638.4,398.4,631.8,396.4,623.2,396.4z"></path> <path style="fill:#FFFFFF;" d="M802.6,495c-4,2.6-8.6,4.6-13.9,6.6c-5.3,1.3-11.3,2-17.2,2c-15.9,0-27.8-4-36.4-11.9 c-8.6-7.9-12.6-19.9-12.6-35.1v-54.3H702v-29.1h20.5v-33.1h38.4v32.4H794v29.1h-33.1v53.6c0,5.3,1.3,9.9,4,13.2 c2.6,2.6,7.3,4.6,12.6,4.6c6,0,11.3-1.3,15.2-4.6L802.6,495z"></path> <path style="fill:#FFFFFF;" d="M877.4,367.3c20.5,0,36.4,4.6,47,14.6c11.3,9.9,16.6,24.5,16.6,43.7V501h-35.7v-16.6 c-7.3,12.6-20.5,18.5-40.4,18.5c-9.9,0-19.2-2-26.5-5.3s-13.2-7.9-17.2-13.9c-4-6-6-13.2-6-20.5c0-12.6,4.6-21.8,13.9-29.1 c9.3-7.3,23.8-10.6,43-10.6h30.5c0-8.6-2.6-14.6-7.9-19.2c-5.3-4.6-12.6-6.6-23.2-6.6c-7.3,0-13.9,1.3-21.2,3.3 c-6.6,2-12.6,5.3-17.2,8.6l-13.9-26.5c7.3-5.3,15.9-9.3,25.8-11.9C856.2,368.6,866.8,367.3,877.4,367.3z M874.1,477.2 c6.6,0,12.6-1.3,17.2-4.6c5.3-3.3,8.6-7.9,10.6-13.2v-13.2h-26.5c-15.9,0-23.8,5.3-23.8,15.2c0,4.6,2,8.6,6,11.9 C862.2,475.9,867.5,477.2,874.1,477.2z"></path> <path style="fill:#FFFFFF;" d="M343.8,543.4v41h-4v-33.1l-16.6,27.8h-2l-16.6-27.8v33.1h-4v-41h3.3l17.9,30.5l17.9-30.5H343.8z"></path> <path style="fill:#FFFFFF;" d="M367.6,553.3c4,0,7.3,0.7,9.3,3.3c2,2,3.3,5.3,3.3,9.3v19.2h-4v-4.6c-0.7,1.3-2.6,2.6-4,4 c-2,0.7-4,1.3-6.6,1.3c-3.3,0-6-0.7-7.9-2.6c-2-1.3-3.3-4-3.3-6.6c0-2.6,0.7-4.6,2.6-6.6c2-1.3,5.3-2.6,9.3-2.6h9.9v-2 c0-2.6-0.7-4.6-2-6s-4-2-6.6-2c-2,0-4,0.7-6,0.7c-2,0.7-3.3,1.3-4.6,2.6l-2-3.3c1.3-1.3,3.3-2.6,6-3.3 C363,554,365,553.3,367.6,553.3z M366.3,581.8c2.6,0,4.6-0.7,6-1.3c2-1.3,2.6-2.6,4-4.6v-5.3h-9.9c-5.3,0-7.9,2-7.9,5.3 c0,2,0.7,3.3,2,4.6C361.7,581.1,363.7,581.8,366.3,581.8z"></path> <path style="fill:#FFFFFF;" d="M403.4,569.2l-7.3,6.6v8.6h-4v-43h4v29.8l18.5-17.2h5.3l-13.2,12.6l14.6,18.5H416L403.4,569.2z"></path> <path style="fill:#FFFFFF;" d="M426.6,554h4v31.1h-4V554z M428.5,547.3c-0.7,0-1.3,0-2-0.7c-0.7-0.7-0.7-1.3-0.7-2 c0-0.7,0-1.3,0.7-2c0.7-0.7,1.3-0.7,2-0.7c0.7,0,1.3,0,2,0.7s0.7,1.3,0.7,2c0,0.7,0,1.3-0.7,2C430.5,546.7,429.9,547.3,428.5,547.3z "></path> <path style="fill:#FFFFFF;" d="M458.3,553.3c4,0,7.3,1.3,9.3,3.3c2.6,2,3.3,5.3,3.3,9.9v17.9h-4v-17.9c0-3.3-0.7-6-2.6-7.3 c-1.3-2-4-2.6-6.6-2.6c-3.3,0-6,0.7-7.9,2.6c-2,2-2.6,4.6-2.6,7.9v16.6h-4v-31.1h4v6c1.3-2,2.6-3.3,4.6-4.6 C453,554,455.7,553.3,458.3,553.3z"></path> <path style="fill:#FFFFFF;" d="M511.3,554v27.1c0,5.3-1.3,9.3-4,11.9c-2.6,2.6-6.6,4-11.9,4c-2.6,0-6-0.7-7.9-1.3 c-2.6-0.7-4.6-2-6-3.3l2-3.3c1.3,1.3,3.3,2.6,5.3,3.3c2,0.7,4.6,1.3,6.6,1.3c4,0,6.6-0.7,8.6-2.6c2-2,2.6-4.6,2.6-8.6v-4 c-1.3,2-3.3,3.3-5.3,4.6c-2,0.7-4.6,1.3-7.3,1.3s-5.3-0.7-7.9-2c-2.6-1.3-4-3.3-6-5.3c-1.3-2.6-2-4.6-2-7.9c0-3.3,0.7-5.3,2-7.9 c1.3-2,3.3-4,6-5.3c2.6-1.3,5.3-2,7.9-2c2.6,0,5.3,0.7,7.3,1.3c2,0.7,4,2.6,5.3,4.6v-6H511.3L511.3,554z M495.4,579.8 c2,0,4.6-0.7,6-1.3s3.3-2.6,4-4c0.7-2,1.3-4,1.3-6c0-2-0.7-4-1.3-6c-0.7-2-2.6-3.3-4-4c-2-0.7-4-1.3-6-1.3c-2,0-4.6,0.7-6,1.3 c-2,0.7-3.3,2-4,4c-0.7,2-1.3,4-1.3,6c0,2,0.7,4,1.3,6c0.7,2,2.6,3.3,4,4C491.4,579.8,493.4,579.8,495.4,579.8z"></path> <path style="fill:#FFFFFF;" d="M565.6,563.9c2.6,0.7,4.6,2,6,3.3c1.3,2,2,4,2,6.6c0,3.3-1.3,6-4,7.9c-2.6,2-6.6,2.6-11.3,2.6h-19.2 v-41h18.5c4.6,0,7.9,0.7,10.6,2.6s4,4.6,4,7.9c0,2-0.7,4-2,6C569.6,561.9,567.6,562.6,565.6,563.9z M544.4,547.3v15.2h13.2 c3.3,0,6-0.7,7.9-2c2-1.3,2.6-3.3,2.6-5.3c0-2-0.7-4.6-2.6-5.3c-2-1.3-4.6-2-7.9-2L544.4,547.3L544.4,547.3z M558.3,581.1 c4,0,6.6-0.7,8.6-2s2.6-3.3,2.6-6c0-5.3-4-7.9-11.3-7.9h-13.9v15.9H558.3L558.3,581.1z"></path> <path style="fill:#FFFFFF;" d="M610.6,570.5h-25.8c0,3.3,1.3,6,4,7.9c2,2,5.3,2.6,8.6,2.6c2,0,4-0.7,5.3-0.7c1.3-0.7,3.3-2,4-3.3 l2.6,2.6c-1.3,1.3-3.3,2.6-5.3,4c-2,0.7-4.6,1.3-6.6,1.3c-3.3,0-6-0.7-8.6-2s-4.6-3.3-6-6s-2-5.3-2-7.9s0.7-6,2-7.9 c1.3-2.6,3.3-4.6,5.3-5.3c2.6-1.3,4.6-2,7.9-2c3.3,0,5.3,0.7,7.9,2c2,1.3,4,3.3,5.3,5.3c1.3,2.6,2,5.3,2,7.9L610.6,570.5z M595.4,557.3c-2.6,0-5.3,0.7-7.3,2.6c-2,2-3.3,4.6-3.3,7.3h21.8c0-3.3-1.3-5.3-3.3-7.3C601.3,557.9,598.7,557.3,595.4,557.3z"></path> <path style="fill:#FFFFFF;" d="M635.8,583.1c-0.7,0.7-2,1.3-2.6,1.3c-1.3,0.7-2.6,0.7-3.3,0.7c-2.6,0-5.3-0.7-6.6-2.6 c-1.3-1.3-2.6-4-2.6-6.6v-18.5h-5.3V554h5.3v-6.6h3.3v6.6h9.3v3.3h-9.3v18.5c0,2,0.7,3.3,1.3,4c0.7,0.7,2,1.3,4,1.3 c0.7,0,2,0,2.6-0.7c0.7,0,1.3-0.7,2-1.3L635.8,583.1z"></path> <path style="fill:#FFFFFF;" d="M658.9,583.1c-0.7,0.7-2,1.3-2.6,1.3c-1.3,0.7-2.6,0.7-3.3,0.7c-2.6,0-5.3-0.7-6.6-2.6 c-1.3-1.3-2.6-4-2.6-6.6v-18.5h-5.3V554h5.3v-6.6h4v6.6h9.3v3.3h-9.3v18.5c0,2,0.7,3.3,1.3,4c0.7,0.7,2,1.3,4,1.3c0.7,0,2,0,2.6-0.7 c0.7,0,1.3-0.7,2-1.3L658.9,583.1z"></path> <path style="fill:#FFFFFF;" d="M692.7,570.5h-25.8c0,3.3,1.3,6,4,7.9c2,2,5.3,2.6,8.6,2.6c2,0,4-0.7,5.3-0.7c1.3-0.7,3.3-2,4-3.3 l2.6,2.6c-1.3,1.3-3.3,2.6-5.3,4c-2,1.3-4.6,1.3-6.6,1.3c-3.3,0-6-0.7-8.6-2s-4.6-3.3-6-6s-2-5.3-2-7.9s0.7-6,2-7.9 c1.3-2.6,3.3-4.6,5.3-5.3c2.6-1.3,4.6-2,7.9-2s5.3,0.7,7.9,2c2,1.3,4,3.3,5.3,5.3c1.3,2.6,2,5.3,2,7.9L692.7,570.5z M677.5,557.3 c-2.6,0-5.3,0.7-7.3,2.6c-2,2-3.3,4.6-3.3,7.3h21.8c0-3.3-1.3-5.3-3.3-7.3C682.8,557.9,680.1,557.3,677.5,557.3z"></path> <path style="fill:#FFFFFF;" d="M705.3,559.9c0.7-2,2.6-4,4.6-4.6s4.6-1.3,7.3-1.3v4h-0.7c-3.3,0-6,0.7-7.9,2.6c-2,2-2.6,4.6-2.6,8.6 v15.9h-4V554h4L705.3,559.9L705.3,559.9z"></path> <path style="fill:#FFFFFF;" d="M770.1,564.6h4v15.9c-2,2-4,2.6-6.6,4c-2.6,0.7-5.3,1.3-8.6,1.3c-4,0-7.9-0.7-11.3-2.6 c-3.3-2-6-4.6-7.9-7.3c-2-3.3-2.6-6.6-2.6-10.6c0-4,0.7-7.3,2.6-10.6c2-3.3,4.6-6,7.9-7.3c3.3-2,7.3-2.6,11.3-2.6 c3.3,0,6,0.7,8.6,1.3c2.6,0.7,4.6,2.6,6.6,4.6l-2.6,2.6c-3.3-3.3-7.3-4.6-12.6-4.6c-3.3,0-6.6,0.7-9.3,2s-4.6,3.3-6.6,6 c-1.3,2.6-2.6,5.3-2.6,8.6c0,3.3,0.7,6,2.6,8.6c1.3,2.6,4,4.6,6.6,6s6,2,9.3,2c4,0,7.9-1.3,10.6-3.3v-13.9 C769.5,564.6,770.1,564.6,770.1,564.6z"></path> <path style="fill:#FFFFFF;" d="M797.3,553.3c4,0,7.3,0.7,9.3,3.3c2,2,3.3,5.3,3.3,9.3v19.2h-4v-4.6c-0.7,1.3-2.6,2.6-4,4 c-2,0.7-4,1.3-6.6,1.3c-3.3,0-6-0.7-7.9-2.6c-2-1.3-3.3-4-3.3-6.6c0-2.6,0.7-4.6,2.6-6.6c2-1.3,5.3-2.6,9.3-2.6h9.9v-2 c0-2.6-0.7-4.6-2-6s-4-2-6.6-2c-2,0-4,0.7-6,0.7c-2,0-3.3,1.3-4.6,2.6l-2-3.3c1.3-1.3,3.3-2.6,6-3.3 C792,554,794.6,553.3,797.3,553.3z M795.3,581.8c2.6,0,4.6-0.7,6-1.3c2-1.3,2.6-2.6,4-4.6v-5.3h-9.9c-5.3,0-7.9,2-7.9,5.3 c0,2,0.7,3.3,2,4.6C791.3,581.1,793.3,581.8,795.3,581.8z"></path> <path style="fill:#FFFFFF;" d="M859.5,553.3c4,0,7.3,1.3,9.3,3.3c2,2,3.3,5.3,3.3,9.9v17.9h-4v-17.9c0-3.3-0.7-6-2.6-7.3 c-1.3-2-4-2.6-6.6-2.6c-3.3,0-6,0.7-7.9,2.6c-2,2-2.6,4.6-2.6,7.9v16.6h-4v-17.9c0-3.3-0.7-6-2.6-7.3c-1.3-2-4-2.6-6.6-2.6 c-3.3,0-6,0.7-7.9,2.6c-2,2-2.6,4.6-2.6,7.9v16.6h-4V552h4v6c1.3-2,2.6-3.3,4.6-4.6c2-0.7,4-1.3,6.6-1.3s4.6,0.7,6.6,1.3 c2,1.3,3.3,2.6,4.6,4.6c1.3-2,2.6-3.3,4.6-4.6C854.9,554,856.9,553.3,859.5,553.3z"></path> <path style="fill:#FFFFFF;" d="M911.2,570.5h-25.8c0,3.3,1.3,6,4,7.9c2,2,5.3,2.6,8.6,2.6c2,0,4-0.7,5.3-0.7c1.3-0.7,3.3-2,4-3.3 l2.6,2.6c-1.3,1.3-3.3,2.6-5.3,4c-2,1.3-4.6,1.3-6.6,1.3c-3.3,0-6-0.7-8.6-2c-2.6-1.3-4.6-3.3-6-6c-1.3-2.6-2-5.3-2-7.9s0.7-6,2-7.9 c1.3-2,3.3-4.6,5.3-5.3c2.6-1.3,4.6-2,7.9-2c2.6,0,5.3,0.7,7.9,2c2,1.3,4,3.3,5.3,5.3c1.3,2.6,2,5.3,2,7.9L911.2,570.5z M895.9,557.3c-2.6,0-5.3,0.7-7.3,2.6s-3.3,4.6-3.3,7.3h21.8c0-3.3-1.3-5.3-3.3-7.3C901.2,557.9,899.2,557.3,895.9,557.3z"></path> <path style="fill:#FFFFFF;" d="M927.7,585.1c-2.6,0-4.6-0.7-7.3-1.3c-2-0.7-4-2-5.3-2.6l2-3.3c1.3,0.7,2.6,2,4.6,2.6s4,0.7,6,0.7 c2.6,0,4.6-0.7,6-1.3c1.3-0.7,2-2,2-4c0-1.3-0.7-2-1.3-2.6c-0.7-0.7-2-1.3-2.6-1.3c-1.3-0.7-2.6-0.7-4.6-0.7c-2.6-0.7-4.6-0.7-6-1.3 c-1.3-0.7-2.6-1.3-4-2.6c-1.3-1.3-1.3-2.6-1.3-4.6c0-2.6,1.3-4.6,3.3-6.6c2-2,5.3-2.6,9.3-2.6c2,0,4,0,6,0.7c2,0.7,4,1.3,4.6,2 l-2,3.3c-2.6-2-6-2.6-9.3-2.6c-2.6,0-4.6,0.7-6,1.3c-1.3,0.7-2,2-2,4c0,1.3,0.7,2,1.3,2.6c0.7,0.7,2,1.3,2.6,1.3 c1.3,0.7,2.6,0.7,4.6,0.7c2.6,0.7,4.6,0.7,6,1.3c1.3,0.7,2.6,1.3,4,2.6c1.3,1.3,1.3,2.6,1.3,4.6c0,2.6-1.3,4.6-3.3,6.6 C935,584.4,931.7,585.1,927.7,585.1z"></path> <path style="fill:#FFFFFF;" d="M230.6,308.4l-123.1,20.5c-58.9,9.9-85.4,79.4-48.3,127.8l71.5,92.7c37.1,47.7,109.2,41.7,133.7-12.6 l52.3-120.5C343.1,358,294.2,297.8,230.6,308.4z M231.3,496.4c-9.9,4.6-20.5,6.6-31.8,6.6c-13.9,0-25.8-2.6-37.1-8.6 c-11.3-6-19.9-14.6-25.8-24.5c-6-10.6-9.3-22.5-9.3-35.7c0-13.2,3.3-25.2,9.3-35.7c6.6-10.6,15.2-18.5,25.8-24.5 c11.3-6,23.8-9.3,37.1-9.3c11.3,0,21.8,2,31.1,6c9.3,4,17.2,9.9,23.8,17.9L234.6,407c-9.3-10.6-20.5-15.9-33.8-15.9 c-7.9,0-15.9,2-22.5,5.3c-6.6,3.3-11.3,8.6-15.2,15.2c-3.3,6.6-5.3,13.9-5.3,22.5s2.6,14.6,6,21.2c4,6.6,8.6,11.9,15.2,15.2 c6.6,3.3,13.9,5.3,22.5,5.3c13.2,0,24.5-5.3,33.8-15.9l19.9,18.5C248.5,486.4,240.5,492.4,231.3,496.4z"></path> </svg> 