<svg width="44" height="44" viewBox="0 0 44 44" fill="none" xmlns="http://www.w3.org/2000/svg">
<path d="M35.7643 10.0137H11.7643C10.2977 10.0137 9.09766 11.2137 9.09766 12.6803V18.0003H11.7643V12.6537H35.7643V31.3603H11.7643V26.0003H9.09766V31.347C9.09766 32.8137 10.2977 33.987 11.7643 33.987H35.7643C37.231 33.987 38.431 32.8137 38.431 31.347V12.6803C38.431 11.2003 37.231 10.0137 35.7643 10.0137Z" fill="#418B51"/>
<path d="M17.3333 27.3327L22.6667 21.9993L17.3333 16.666V20.666H4V23.3327H17.3333V27.3327Z" fill="#418B51"/>
<rect x="31.293" y="23.8828" width="6.58823" height="1.88235" fill="#418B51"/>
<rect x="31.293" y="17.2939" width="6.58823" height="1.88235" fill="#418B51"/>
<rect x="33.1758" y="18.2354" width="6.58823" height="1.88235" transform="rotate(90 33.1758 18.2354)" fill="#418B51"/>
</svg>
