<svg width="44" height="44" viewBox="0 0 44 44" fill="none" xmlns="http://www.w3.org/2000/svg">
<path d="M34.5589 12.3867H13.9158C12.6542 12.3867 11.6221 13.3992 11.6221 14.6367V19.1255H13.9158V14.6142H34.5589V30.398H13.9158V25.8755H11.6221V30.3867C11.6221 31.6242 12.6542 32.6142 13.9158 32.6142H34.5589C35.8204 32.6142 36.8526 31.6242 36.8526 30.3867V14.6367C36.8526 13.388 35.8204 12.3867 34.5589 12.3867Z" fill="#F91C24"/>
<path d="M9.31161 17.0995L3.99992 22.31L9.31161 27.5205L9.31161 23.6126L22.5908 23.6126L22.5908 21.0073L9.31161 21.0073L9.31161 17.0995Z" fill="#F91C24"/>
<rect x="29" y="24.7646" width="6.76481" height="1.9328" fill="#F91C24"/>
<rect x="29" y="18" width="6.76481" height="1.9328" fill="#F91C24"/>
<rect x="30.9326" y="18.9668" width="6.76481" height="1.9328" transform="rotate(90 30.9326 18.9668)" fill="#F91C24"/>
</svg>
