<?xml version="1.0" encoding="UTF-8"?> <!-- Generator: Adobe Illustrator 24.3.0, SVG Export Plug-In . SVG Version: 6.00 Build 0) --> <svg xmlns="http://www.w3.org/2000/svg" xmlns:xlink="http://www.w3.org/1999/xlink" version="1.1" id="Layer_1" x="0px" y="0px" viewBox="0 0 1000 1000" style="enable-background:new 0 0 1000 1000;" xml:space="preserve"> <g> <path style="fill:#FFFFFF;" d="M167.5,661c-6-2.4-12-4.8-18.2-7.4c11.8-47.9,16.9-96.6,16.3-146.3c-3.3,0-5.8,0-8.8,0 c-1.4-7.7-2.9-15.3-4.6-24.4c28.7-4.6,57.1-9.1,85.9-13.8c1.1,6.8,2.1,13,3.1,19c-12.6,4.9-12.4,4.8-11.9,18.8 c1.4,40.2,5.1,80.2,14.4,119.5c2.1,8.8,5,17.4,7.7,26.7c-8.5,1.9-17,3.9-26,5.9c-3.7-23.2-7.3-45.4-10.9-68.2 c-9.8,1.6-18.9,2.9-28,4.7c-1.4,0.3-3.2,2.7-3.5,4.4c-4,20.3-7.8,40.7-11.7,61C170,661,168.7,661,167.5,661z M209.8,563.1 c0-19.5,0-38,0-57.2c-5.7,0.6-10.6,0.8-15.3,1.7c-11.9,2.4-9.8,0.2-9.9,11.6c0,5.1,0.2,10.1,0.2,15.2c0,10.1,0,20.2,0,31 C193.9,564.5,201.8,563.8,209.8,563.1z"></path> <path style="fill:#FFFFFF;" d="M859.9,661c-6.2-2.4-12.4-4.9-19-7.5c11.8-48,16.9-96.7,16.4-146.3c-3.2,0-5.7,0-8.9,0 c-1.4-7.7-2.8-15.5-4.4-24.3c28.8-4.6,56.9-9.1,85.8-13.7c1.1,6.6,2.2,12.7,3.2,18.6c-0.7,0.7-1,1.1-1.3,1.2 c-10.9,3.4-11.1,3.4-10.7,14.5c1.8,47,5.5,93.7,19,139.1c1,3.2,2.1,6.4,3.5,10.5c-8.6,2-17.1,4-26.3,6.1 c-3.7-23-7.3-45.4-10.9-68.2c-9.5,1.5-18.5,2.7-27.4,4.7c-1.9,0.4-4,3.9-4.5,6.2c-3.8,18.4-7.2,36.9-10.7,55.4 c-0.2,1.2-0.7,2.4-1.1,3.6C861.6,661,860.7,661,859.9,661z M902.2,505.5c-8.8,1.3-15.6,2.1-22.5,3.4c-1.3,0.3-3.3,2.3-3.3,3.6 c-0.2,17.3-0.1,34.5-0.1,53c8.5-0.9,16-1.5,23.4-2.5c1-0.1,2.3-2.4,2.3-3.6C902.3,541.8,902.2,524.3,902.2,505.5z"></path> <path style="fill:#FFFFFF;" d="M515.6,661c-6.2-2.5-12.4-4.9-18.6-7.4c11.9-48,17-96.6,16.3-146.2c-3.1,0-5.7,0-8.5,0 c-0.5-2.3-1.1-4.3-1.5-6.4c-1-5.6-2-11.2-3.2-18.1c28.5-4.6,56.8-9.1,85.8-13.7c1.1,6.7,2.2,12.8,3.3,19.3 c-4.3,1.3-8.3,2.5-12.7,3.9c2,54.4,5.3,108.3,22.8,160.7c-8.5,2-16.9,3.9-26.1,6c-3.6-22.7-7.2-45-10.9-68.2 c-9.7,1.6-19.2,3-28.6,4.8c-1.1,0.2-2.4,1.8-2.6,3c-4,20.7-7.8,41.5-11.6,62.3C518.1,661,516.9,661,515.6,661z M532.2,565.1 c4.5-0.2,7.5-0.3,10.4-0.5c16.2-0.9,16-0.9,15.7-17.2c-0.2-13.7,0-27.4,0-42c-8.8,1.3-16,2.2-23,3.6c-1.2,0.2-3,2.5-3,3.8 C532.1,529.9,532.2,547,532.2,565.1z"></path> <path style="fill:#FFFFFF;" d="M707.9,454c1.2,0.1,2.4,0.2,4.9,0.4c-2.6-19.4-5.2-38.6-7.8-57.7c0.2-0.2,0.4-0.4,0.6-0.6 c1.5,2.9,3.6,5.7,4.3,8.7c3.2,14.9,6.7,29.7,8.8,44.8c1.1,8,4.3,12.2,12.9,13.2c-0.9-8.5-1.8-17-2.8-25.4 c-1.6-13.9-3.2-27.7-5-41.6c-2.8-21.5-19.3-29.2-37.7-17.7c-28.8,18-52.7,16.1-78.2-6.3c-6.2-5.4-12.3-11.2-19.3-15.4 c-36.7-22.1-84.3-9.8-94.4,41.8c-2.2,11-3.5,22.1-5.2,33.2c-1.8,11.3-5.5,14.8-16.9,16c-24.8,2.5-49.7,4.6-74.5,7.8 c-9.7,1.2-19,5-28.6,7.6c7.8-6.2,16.9-10,26.7-11.5c16.5-2.5,33.2-4,49.7-6.5c9.6-1.5,19-3.9,28.4-6.3c6.6-1.6,10.2-6.3,11.3-13 c1.7-10,3.1-20.1,5.2-30c2.6-12.9,8.7-24,16.9-34.3c25.5-32.2,82.5-27.3,102.2,0.2c7.9,11,19.9,17.9,32.9,21.8 c5.9,1.8,13.1,1.3,19.1-0.3c7.7-2,14.6-6.5,22.1-9.4c6.4-2.5,13-5.3,19.8-6.1c13.3-1.6,24.4,6.4,26.7,19.7 c2.4,14.1,3.5,28.5,4.9,42.8c1.1,11.4-0.5,23.7,3.4,33.9c5,13.2,6.7,26.7,9.7,40.1c5.7,26,10.7,52.2,16.6,78.4 c8.9-18.6,13.6-38.5,18.1-58.4c4.6-20.2,8.7-40.5,13.2-61.5c9-0.5,18.4-1,28.5-1.5c-9.3,26.2-9.6,52.5-8.2,78.9 c1.9,35.1,6.5,69.9,15.7,104.9c-11.5-1.2-22.5-2.3-33.9-3.4c3.5-31.6,5.4-62.7-6.3-93.1c-8.1,32.4-16.2,64.8-24.3,97.1 c-0.6,0-1.2,0.1-1.9,0.1c-9.7-30.8-19.4-61.6-29.2-92.8c-3.9,11.6-1.5,76.1,3.7,101.8c-9.9,0-19.6,0-29.9,0 c0.9-9.7,2.1-19.7,2.6-29.7c1.8-35.9,3.5-71.8,4.6-107.8c0.3-10.5-1-21.2-2.6-31.6C713.3,475.1,710.4,465,707.9,454z"></path> <path style="fill:#FFFFFF;" d="M627.3,618.3c1,15.6,15.7,24.4,31.2,19c11-3.8,17.7-11.8,19.3-23.1c1.8-12.9-0.7-25.3-11.7-33.7 c-5.9-4.5-13.2-7.5-20.1-10.6c-6.7-3-13.9-5.1-20.6-8.1c-12.4-5.6-18.5-15.3-18.8-29c-0.7-29.5,14.2-50.5,40.7-55.3 c7.1-1.3,14.6-0.2,23.8-0.2c-2.3-25.4-4.6-49.9-6.9-74.4c0.7-0.1,1.5-0.3,2.2-0.4c3.5,15,7.5,30,10.5,45.2 c1.9,9.3,2.5,18.9,3.3,28.3c0.3,3.8,1.8,5.8,5.1,7.7c14.2,8,17.9,22.6,9.5,36.3c-3.3,5.4-7.9,8.7-14.5,8.9 c-9.3,0.3-15.3-8.3-11.9-16.9c0.7-1.8,1.7-3.4,2.5-5.1c2.3-5,0.9-8.5-4-10.9c-11.4-5.6-24.3-2.8-29.9,6.7 c-5.8,9.8-2.5,25.1,7.3,31.7c3.6,2.5,7.8,4.2,11.9,5.8c4.7,1.8,9.6,3.1,14.5,4.7c27.1,8.9,37.5,25.2,34.2,53.5 c-4,34-45.6,60.6-78,49.8c-22.1-7.3-33.5-28.7-25.7-48.5c4.2-10.8,14.2-15.8,25.1-12.7c11.4,3.3,17.2,11.5,15.4,22 C640.2,617.3,636.2,620,627.3,618.3z"></path> <path style="fill:#FFFFFF;" d="M337.2,589c0-2.6,0-5.3,0-7.9c-0.7-34.7-1.2-69.4-2.1-104.1c-0.2-5.6,1.6-8.1,7-8.6 c4.6-0.5,9.1-1.3,14.5-2.1c-5.9,60.7-0.6,120.3,2.5,180.9c-5.7,0-11.2,0.4-16.5-0.2c-1.8-0.2-3.7-2.9-4.9-4.9 c-17-28.3-33.8-56.7-50.7-85c-0.6,0-1.3,0.1-1.9,0.1c-1.2,27.4-2.4,54.8-3.6,82.6c-8.5-2.2-17.9-4.6-28.1-7.2 c9.1-48.3,15.8-96.6,11.2-146.2c8.1,0,15.6,0,23.5,0c10,36.8,25.4,71.5,47.2,103.1C336,589.2,336.6,589.1,337.2,589z"></path> <path style="fill:#FFFFFF;" d="M455.2,652.8c-10.4,0-19.9,0-30.2,0c-1.7-49,2.6-98.4-11.6-147c-13.1,1.8-26,3.6-39.9,5.5 c-1.1-12.2-2.1-23.9-3.1-36.1c40.5,2.1,79.4-2,118.9-10.4c0,7.6,0,15.7,0,24.6c-10.5,2-21.8,4-33.1,6.3c-16.8,3.5-17,3.6-16.6,20.8 c0.8,40.4,2.4,80.8,11.3,120.5C452,642.1,453.6,647.1,455.2,652.8z"></path> <path style="fill:#FFFFFF;" d="M117.1,537.5c-0.5,10.8-1.1,22.1-1.7,35.6c-7.2-9.2-15.5-9.6-24.6-7.6c-4,0.9-4.9,2.5-5,6.3 c-0.6,25.4,3.1,50.2,11.1,74.3c0.8,2.3,1.5,4.7,2.5,7.7c-11.4,0-22,0-33.6,0c2.7-61.1,4.9-122.2-9.1-183.3 c31.7,1.8,60.9-10.7,93.5-13.5c-3.3,13.2-6.2,25.3-9.5,38.5c-16-11.5-32.1-10.3-48.3-4.8c-2,0.7-4.6,3-4.8,4.7 c-1.2,13.4-2,26.9-2.6,40.4c-0.2,5.1,2.4,8,7.9,6.9C100.8,541.2,108.7,539.4,117.1,537.5z"></path> <path style="fill:#FFFFFF;" d="M559.8,465.4c-9.4,0-18.4-2.6-25.5-8.4c-9.4-7.7-18-16.5-26.3-25.5c-2.1-2.2-2.9-7.6-1.6-10.2 c1.1-2.3,6-3.8,9.2-3.7c8.2,0.3,16.4,1.6,24.6,2.6c7.1,0.9,13.5-0.5,19.2-4.8c11.2-8.4,22.2-16.9,33.4-25.3 c2.9-2.2,5.8-4.4,8.8-6.2c4.8-2.8,7.9-1.4,7.9,4.3c0,4.5-0.2,9.6-2.1,13.6c-8.5,17.5-17.4,34.8-26.6,51.9 C576.3,462,569.4,465.4,559.8,465.4z"></path> <path style="fill:#FFFFFF;" d="M512.9,386.6c1.4-4.2,2.3-9.1,4.6-13.2c5.4-9.8,17.1-9.7,22.8,0c4.7,8,5.5,16.7,2.2,25.5 c-2.3,6.1-6.6,9.7-13.3,9.8c-6.6,0.1-10.7-3.6-13-9.2C514.6,395.6,514,391.3,512.9,386.6z"></path> <path style="fill:#FFFFFF;" d="M558.4,384.2c1-3.8,1.4-6.9,2.6-9.5c4.8-10.1,17.8-15.8,28.4-12.7c2.2,0.6,4.4,1.8,6,3.3 c1.2,1.1,2.3,3.6,1.9,4.9c-0.4,1.2-2.9,2.2-4.5,2.4c-5,0.7-10.4,0.1-15.1,1.7C571.5,376.5,566,380.2,558.4,384.2z"></path> </g> </svg> 