<?xml version="1.0" encoding="UTF-8"?> <!-- Generator: Adobe Illustrator 22.0.0, SVG Export Plug-In . SVG Version: 6.00 Build 0) --> <svg xmlns="http://www.w3.org/2000/svg" xmlns:xlink="http://www.w3.org/1999/xlink" version="1.1" id="katman_1" x="0px" y="0px" viewBox="0 0 100 99.6" style="enable-background:new 0 0 100 99.6;" xml:space="preserve"> <g id="XMLID_16_"> <g id="XMLID_3_"> <g id="XMLID_134_"> <path id="XMLID_145_" style="fill:#FFFFFF;" d="M37.6,43l-1.7,3.2c-1.9-1-3.6-1.6-4.9-1.6c-0.9,0-1.5,0.3-1.5,1.1 c0,2.1,8.2,1.1,8.2,6.5c0,3.2-2.8,5-6.6,5c-2.6,0-5.1-0.8-7-2.2l1.6-3.2c1.8,1.2,3.8,1.9,5.5,1.9c1,0,1.7-0.3,1.7-1.1 c0-2.3-8.1-1.1-8-6.6c0-3.2,2.7-4.9,6.3-4.9C33.5,41.3,35.7,41.9,37.6,43z"></path> <path id="XMLID_142_" style="fill:#FFFFFF;" d="M54.2,46.9v10.2h-4.9v-1.8c-1,1.3-2.7,2-4.8,2c-3.3,0-5.3-2-5.3-4.9 c0-2.9,2.1-4.7,6-4.7h4.1v-0.2c0-1.5-1-2.5-3-2.5c-1.3,0-3,0.5-4.7,1.3L40.2,43c2.4-1.1,4.6-1.8,7.2-1.8 C51.7,41.3,54.2,43.4,54.2,46.9z M49.3,51.8v-1.4h-3.1c-1.5,0-2.3,0.5-2.3,1.7c0,1.1,0.8,1.9,2.2,1.9 C47.7,53.9,49,53.1,49.3,51.8z"></path> <path id="XMLID_140_" style="fill:#FFFFFF;" d="M57.9,57.1V35.6h5v21.4H57.9z"></path> <path id="XMLID_138_" style="fill:#FFFFFF;" d="M79.1,43l-1.7,3.2c-1.9-1-3.6-1.6-4.9-1.6c-0.9,0-1.5,0.3-1.5,1.1 c0,2.1,8.2,1.1,8.2,6.5c0,3.2-2.8,5-6.6,5c-2.6,0-5.1-0.8-7-2.2l1.6-3.2c1.8,1.2,3.8,1.9,5.5,1.9c1,0,1.7-0.3,1.7-1.1 c0-2.3-8.1-1.1-8-6.6c0-3.2,2.7-4.9,6.3-4.9C74.9,41.3,77.1,41.9,79.1,43z"></path> <path id="XMLID_135_" style="fill:#FFFFFF;" d="M95.7,46.9v10.2h-4.9v-1.8c-1,1.3-2.7,2-4.8,2c-3.3,0-5.3-2-5.3-4.9 c0-2.9,2.1-4.7,6-4.7h4.1v-0.2c0-1.5-1-2.5-3-2.5c-1.3,0-3,0.5-4.7,1.3L81.7,43c2.4-1.1,4.6-1.8,7.2-1.8 C93.1,41.3,95.6,43.4,95.7,46.9z M90.7,51.8v-1.4h-3.1c-1.5,0-2.3,0.5-2.3,1.7c0,1.1,0.8,1.9,2.2,1.9 C89.1,53.9,90.4,53.1,90.7,51.8z"></path> </g> </g> <g id="XMLID_2_"> <g id="XMLID_211_"> <path id="XMLID_231_" style="fill:#FFFFFF;" d="M49.9,61.1v3.6h-1.4v-3.6h-1.4V60h4.2v1.1H49.9z"></path> <path id="XMLID_229_" style="fill:#FFFFFF;" d="M53.1,61.1v0.7h2.2v1.1h-2.2v0.8h2.5v1.1h-4V60h3.9v1.1L53.1,61.1L53.1,61.1z"></path> <path id="XMLID_227_" style="fill:#FFFFFF;" d="M60.6,60.8l-0.8,1c-0.3-0.4-0.7-0.6-1.1-0.6c-0.6,0-1.1,0.5-1.1,1.2 c0,0.7,0.5,1.2,1.1,1.2c0.4,0,0.8-0.2,1.1-0.5l0.8,0.9c-0.5,0.6-1.3,0.9-2,0.9c-1.4,0-2.5-1-2.5-2.5c0-1.4,1.1-2.4,2.6-2.4 C59.4,60,60.1,60.3,60.6,60.8z"></path> <path id="XMLID_225_" style="fill:#FFFFFF;" d="M64.2,64.8V63h-1.7v1.8h-1.4V60h1.4v1.9h1.7V60h1.4v4.8H64.2z"></path> <path id="XMLID_223_" style="fill:#FFFFFF;" d="M69.7,64.8l-2-2.6v2.6h-1.3V60h1.2l2,2.7V60h1.3v4.8H69.7z"></path> <path id="XMLID_220_" style="fill:#FFFFFF;" d="M76.6,62.4c0,1.4-1.1,2.4-2.6,2.4c-1.5,0-2.6-1-2.6-2.4c0-1.4,1.1-2.4,2.6-2.4 S76.6,61,76.6,62.4z M72.9,62.4c0,0.7,0.5,1.3,1.2,1.3c0.6,0,1.1-0.5,1.1-1.3c0-0.7-0.5-1.2-1.1-1.2 C73.4,61.1,72.9,61.7,72.9,62.4z"></path> <path id="XMLID_218_" style="fill:#FFFFFF;" d="M80.6,63.6v1.2h-3.4V60h1.4v3.6L80.6,63.6L80.6,63.6z"></path> <path id="XMLID_215_" style="fill:#FFFFFF;" d="M86,62.4c0,1.4-1.1,2.4-2.6,2.4c-1.5,0-2.6-1-2.6-2.4c0-1.4,1.1-2.4,2.6-2.4 S86,61,86,62.4z M82.2,62.4c0,0.7,0.5,1.3,1.2,1.3c0.6,0,1.1-0.5,1.1-1.3c0-0.7-0.5-1.2-1.1-1.2C82.8,61.1,82.2,61.7,82.2,62.4z"></path> <path id="XMLID_213_" style="fill:#FFFFFF;" d="M94.2,64.8h-1.4v-1.5L91,60h1.4l1,1.9l1-1.9h1.4l-1.7,3.3V64.8z"></path> <path id="XMLID_212_" style="fill:#FFFFFF;" d="M88.8,63h0.8v0.5c-0.3,0.1-0.5,0.2-0.7,0.2c-0.7,0-1.2-0.5-1.2-1.3 c0-0.7,0.5-1.2,1.2-1.2c0.4,0,0.9,0.2,1.2,0.5l0.8-1c-0.5-0.4-1.3-0.7-2-0.7c-1.5,0-2.7,1-2.7,2.4c0,1.4,1.1,2.4,2.6,2.4 c0.7,0,1.5-0.3,2-0.6V63v-0.7V62h-2L88.8,63L88.8,63z"></path> </g> </g> <polygon id="XMLID_39_" style="fill:#FFFFFF;" points="63.5,30.4 63.5,19.4 5.3,19.4 5.3,81.3 63.5,81.3 63.5,70.3 57.9,70.3 57.9,75.7 11,75.7 11,25 57.9,25 57.9,30.4 "></polygon> </g> </svg> 