<?xml version="1.0" encoding="UTF-8"?> <!-- Generator: Adobe Illustrator 24.3.0, SVG Export Plug-In . SVG Version: 6.00 Build 0) --> <svg xmlns="http://www.w3.org/2000/svg" xmlns:xlink="http://www.w3.org/1999/xlink" version="1.1" id="Layer_1" x="0px" y="0px" viewBox="0 0 580.1 455.7" style="enable-background:new 0 0 580.1 455.7;" xml:space="preserve"> <g> <path style="fill:#FFFFFF;" d="M354.6,222.3c-3.9-36.2-34.6-61.9-70.9-58.5c-34.7,3.3-59.6,33.1-58.2,66.7 c1.5,37.2,33,62.3,64.3,61.8c0-20.6,0-41.2,0-62c66.3,0,132.2,0,198.7,0c-0.3,5.5-0.4,11.1-1,16.6c-4.8,47.1-23.7,87.8-57.2,121.2 c-32.4,32.4-71.6,51.5-117.2,56.8C212,436.6,119.4,371,96.5,271.7c-24-104.5,41.2-210.6,145.4-236.2c37.1-9.1,73.8-7.7,110.2,3.9 c2,0.6,2.8,1.4,2.8,3.7c-0.1,58.6-0.1,117.2-0.1,175.9C354.8,220,354.7,221.1,354.6,222.3z"></path> </g> </svg> 