<?xml version="1.0" encoding="UTF-8"?> <!-- Generator: Adobe Illustrator 24.3.0, SVG Export Plug-In . SVG Version: 6.00 Build 0) --> <svg xmlns="http://www.w3.org/2000/svg" xmlns:xlink="http://www.w3.org/1999/xlink" version="1.1" id="Layer_1" x="0px" y="0px" viewBox="0 0 1000 1000" style="enable-background:new 0 0 1000 1000;" xml:space="preserve"> <g> <path style="fill:#FFFFFF;" d="M798.5,221.6l-7.7,87.3l-3.9-1.9L774,212.5l-49.6,1.7l-11.6,111.2l-55.2,5.8v-20.1l44-6.2l-1.9-32.1 l-39,2.3l-0.8-22.4l52.5-2.7l-0.4-43.3l-98.9,3.1l-1.2,40.5c0,0-30.3-61.2-123.1-37.7l2.5,108.6l-45.5,9l-3.8-118.5l-46.3,11.6 l3.2,42c0,0-26.9-52.7-72.7-46.1c0,0-46.9,2.6-58.2,79.9L198,327.5l3.8,37.1l36.8-16.5c0,0,2,23.5-20.9,32.4s-40.8-8.1-43.4-26.9 c-2.6-18.8-0.9-49.2,16.2-60c17.1-10.7,37.7-2.5,37.7-2.5l23.2-31.7c0,0-20.9-37.5-75.7-11.6s-46.3,97.3-45.6,104.7 c0.8,7.3,6.6,51.7,37.1,69.5c30.5,17.8,79.2-13.5,79.2-13.5s26.6-18.5,29-50.2c0,0,28.2,47.1,68,42.1c39.8-5,58.7-58.3,58.7-58.3 l1.5,46.7l87.7-22.4L493,383c0,0,81.5-1.9,114.7-69.1l3.9-5.4v74.1l95.8-13.5v20.9l42.1-5.8l3.1-51.1l30.5,51.4l45.6-2.7 l20.1-160.3H798.5z M342.8,351.7c0,0-28.2,7.3-29-34.5c-0.8-41.9,20.1-48.5,20.1-48.5s22.8-7,29.7,37.1 C370.6,349.8,342.8,351.7,342.8,351.7z M535.1,329.9v-75.2c0,0,33.6-5.8,37.1,24.9C575.7,310.4,535.1,329.9,535.1,329.9z"></path> <path style="fill:#FFFFFF;" d="M924.7,491.9c-70.3-119.7-161.4-51.7-161.4-51.7c-96.5,72.6-74.9,193.1-74.9,193.1L642.1,573 c61-39.4,60.2-83.4,60.2-83.4c17.8-105-115.1-85-115.1-85l-95.8,22.8v197.3l-95,20.9l2.3-36.3l74.9-18.5L457.5,529l-67.2,17.8 l2.3-40.9l88-21.6L460.6,410L293,447.9l30.1,266.5c-15.4-18.5-51-280.4-51-280.4l-91.9,35.5l25.5,118.2l-36.3,13.9l-19.3-139.8 L59,494.2l65.6,298.9l79.5-37.1L181,668l41.7-14.7l23.2,115.1l76.5-34.8l7,19.3l158.8-46.3v30.9l79.8-21.6v-99.6l81.9,116.6 l54.8-47.9c57.9,88,121.3,57.2,121.3,57.2s54.1-6.2,95.8-88S924.7,491.9,924.7,491.9z M618.9,495.4c-9.3,24.3-51.7,46-51.7,46 l2.3-56.8C569.5,484.6,628.2,471,618.9,495.4z M859.1,581.9c-5,66.4-36.7,76.1-36.7,76.1s-38.2,15.8-53.3-29 c-15.1-44.8,21.6-98.1,21.6-98.1s13.1-25.9,36.7-22.8C827.4,508.1,864.1,515.4,859.1,581.9z"></path> </g> </svg> 