<?xml version="1.0" encoding="UTF-8"?> <!-- Generator: Adobe Illustrator 22.0.0, SVG Export Plug-In . SVG Version: 6.00 Build 0) --> <svg xmlns="http://www.w3.org/2000/svg" xmlns:xlink="http://www.w3.org/1999/xlink" version="1.1" id="Layer_1" x="0px" y="0px" viewBox="0 0 500 500" style="enable-background:new 0 0 500 500;" xml:space="preserve"> <path style="fill:#FFFFFF;" d="M27,331.3V180l75.8,75.5l74.5-75.8v151.5c0,5.1-7.7,5.1-7.7,0V198.4l-66.8,67.8l-68.1-68.1v133.1 C34.7,336.4,27,336.4,27,331.3 M197,301.8c13.1,15.6,33,25.6,55,25.6c38.4,0,69.9-30.2,71.7-68.1H252c-5.1,0-5.1-7.7,0-7.7h79.3v3.8 c0,43.8-35.6,79.3-79.3,79.3c-21.2,0-40.7-8.4-54.8-22L197,301.8z M197,198.2c14.3-13.6,33.8-22,55-22c29.4,0,55.3,16.1,68.9,39.9 c2.6,4.4-4.1,8.2-6.7,3.8c-12.3-21.8-35.6-36.1-62.2-36.1c-22,0-41.7,10-55,25.6V198.2z M394.8,180l0.3,0.5l74.5,149 c2.3,4.6-4.6,7.9-6.9,3.3l-67.8-135.7L327,332.8c-2.3,4.6-9,1-6.9-3.3l74.5-149V180H394.8z"></path> </svg> 