<?xml version="1.0" encoding="UTF-8"?> <svg xmlns="http://www.w3.org/2000/svg" xmlns:xlink="http://www.w3.org/1999/xlink" version="1.1" id="Layer_1" x="0px" y="0px" viewBox="0 0 1000 1000" style="enable-background:new 0 0 1000 1000;" xml:space="preserve"> <path style="fill:#FFFFFF;" d="M490.5,127.7C279.2,127.7,108,298.9,108,510.2s171.1,382.5,382.5,382.5S873,721.4,873,510.2 S701.7,127.7,490.5,127.7 M372,820.3c-58.7,29.1-151.1-38.1-206.1-149.7s-52-225.7,6.7-254.7S323.8,454,378.7,565.6 S431,791.3,372,820.3 M261.9,276.4c0-71.8,102.3-130.1,228.6-130.1s228.6,58.3,228.6,130.1S616.8,406.4,490.5,406.4 S261.9,348.1,261.9,276.4 M546.3,822.4c-62.7-44-55.6-162.3,15.8-264S742.3,409.8,805,453.8c62.7,44,55.6,162.3-15.8,264 S609,866.4,546.3,822.4"></path> <path style="fill:#FFFFFF;" d="M643.8,249.4c9.3,6.1,7.2,16.2-4.4,22.5c-11.8,6.3-29.1,6.5-38.3,0.2c-0.8-0.6-1.7-1.3-2.3-1.9l0,0 l-61.5,0.2c-2.9,3.4-7.2,6.7-12.4,9.5c-4.8,2.5-10.3,4.6-16,5.9l-9.3,37.9c1.1,0.4,2.1,1.1,2.9,1.7c9.7,6.5,7.4,17.3-5.7,24.2 s-31.8,7.4-41.7,0.8c-9.9-6.5-7.2-17.5,6.1-24.4c1.3-0.6,2.5-1.3,3.8-1.7l0,0l9.3-37.5c-5.7-1.3-10.9-3.2-15.2-5.9 c-3.8-2.5-6.5-5.3-8-8.4l-66.9,0.4c-1.1,0.6-2.3,1.3-3.6,1.9c-13.7,6.7-33.1,6.7-43.2,0.2c-10.1-6.7-6.9-17.5,6.7-24 c13.7-6.5,32.8-6.5,42.7,0c0.8,0.6,1.7,1.3,2.5,1.9h65.3c3.2-3.6,7.4-6.7,13.1-9.5c5.1-2.5,10.5-4.4,16.4-5.7l8.8-36 c-1.1-0.4-1.9-1.1-2.9-1.7c-9.5-6.3-6.9-16.4,5.5-22.3s29.9-5.7,39.4,0.6c9.3,6.3,7.2,16.2-5.3,22.1c-1.1,0.6-2.3,1.1-3.6,1.5l0,0 l-8.2,35.2c5.5,1.3,10.5,3.2,14.5,5.9c3.8,2.5,6.3,5.3,8,8.2h62.1c0.8-0.6,1.9-1.3,3.2-1.9C617.5,243.3,634.5,243.3,643.8,249.4 L643.8,249.4z"></path> </svg> 