<?xml version="1.0" encoding="UTF-8"?> <svg xmlns="http://www.w3.org/2000/svg" xmlns:xlink="http://www.w3.org/1999/xlink" version="1.1" id="Layer_1" x="0px" y="0px" viewBox="0 0 1000 1000" style="enable-background:new 0 0 1000 1000;" xml:space="preserve"> <path style="fill:#FFFFFF;" d="M486.1,69.5c2.9-0.6,5.3,0.6,7.8,1.7c32.5,14.6,64.9,29.2,97.4,43.8c31.7,14.2,63.4,28.4,95.1,42.8 c3.5,1.6,6.4,1,9.6,0.2c60.9-15.2,121.9-30.4,182.8-45.6c3.4-0.8,6.8-2.1,10.4-2.2c1.4,1.6,0.8,3.5,0.8,5.3c0,61.8,0,123.7,0,185.5 c0,1.2-0.1,2.5,0,3.7c0,1.8-1,2.7-2.7,2.7c-2.3,0.1-4.6,0.1-6.9,0.1c-208.2,0-416.4,0-624.6,0c-11.7,0-10.1-1.6-10.1,10.4 c0,122.6,0,245.2,0,367.8c0,9.1-1.3,7.4,7.3,10.3c76.9,25.3,153.8,50.6,230.6,75.9c3.6,1.2,6.7,1,10.2-0.1 c76-25.4,152-50.6,228-75.9c0.8-0.3,1.6-0.6,2.4-0.8c3.7-0.7,4.7-2.9,4.7-6.6c-0.2-25.4-0.1-50.8-0.1-76.2c0-6,0-6-6.2-6 c-71.3,0-142.6,0-213.8,0c-34.6,0-69.2,0-103.8,0c-8.2,0-7.5,0.7-7.5-7.2c0-48.9,0-97.8,0-146.8c0-1.2,0.1-2.5,0-3.7 c-0.1-2.4,1-3.4,3.3-3.3c1.5,0.1,2.9,0,4.4,0c159,0,318,0,477.1,0c8.9,0,7.9-1,7.9,8.1c0,114.3,0,228.6,0,342.9c0,1-0.1,2.1,0,3.1 c0.6,3.6-1.2,5.1-4.4,6.3c-17.2,6.3-34.3,12.9-51.4,19.4c-80.2,30.4-160.3,60.8-240.5,91.1c-32.1,12.2-64.2,24.3-96.3,36.5 c-2.2,0.8-5.1,0.9-6.3,3.5c-0.8,0-1.7,0-2.5,0c-33.1-10.5-65.2-23.8-97.8-35.9c-68.7-25.5-137.2-51.4-205.8-77 c-31.2-11.6-62.4-23.4-93.5-35c-2.9-1.1-6-1.9-8.1-4.5c0-231.5,0-463,0-694.5c3.1-2,6.1-0.2,9,0.6c58.5,15.1,117,30.2,175.5,45.4 c6.5,1.7,12,1.1,18.1-1.5c64.5-27.8,129-55.3,193.5-83C481.6,70,483.8,69.4,486.1,69.5z"></path> </svg> 