<?xml version="1.0" encoding="UTF-8"?> <svg xmlns="http://www.w3.org/2000/svg" xmlns:xlink="http://www.w3.org/1999/xlink" version="1.1" id="Layer_1" x="0px" y="0px" viewBox="0 0 800 800" style="enable-background:new 0 0 800 800;" xml:space="preserve"> <path style="fill:#FFFFFF;" d="M406.5,124.7c0.7,0,1.5,0,2.2,0c5.9,5.4,11.8,10.9,17.7,16.3c52.3,47.3,103.8,95.4,157.1,141.4 c34.3,29.7,69.1,58.6,96,95.5c24.6,33.8,33,71.6,21.7,111.8c-18,63.8-63.8,98.6-126.8,111.5c-51.9,10.6-98.9-0.4-136.8-39.9 c-1.8-1.9-4-3.3-7.9-6.6c8.1,28.3,19.1,52.6,36.7,72.8c17.3,19.9,36.6,38,55.3,57.1c-74.3,0-149.1,0-225.6,0 c39.7-39.3,77.5-77.8,90.6-134.9c-16.4,11-30.8,21.7-46.1,30.7c-68.8,40.8-161,18.4-204-48.7c-13-20.4-19.1-42.9-24.3-65.9 c0-11.7,0-23.3,0-35c5.1-25.4,13.9-49.4,33.3-67.4c37.2-34.5,74.9-68.4,113.1-101.9c38.7-33.9,78.5-66.5,117-100.7 C387.5,150.6,396.3,136.9,406.5,124.7z M257.5,564.8c-5.9-5.7-9.6-9.2-13.2-12.7c-52.7-52.7-58.3-121.4-13.3-180.7 c20.7-27.3,43.8-52.7,65.8-78.9c1.4-1.7,2.6-3.4,3.9-5.2c-6.4,3-11.6,7-16.7,11.1c-32.3,26.1-65.5,51.2-90.8,85.1 c-20.3,27.1-29.1,56.3-24,90C175.8,517,211.9,556.2,257.5,564.8z"></path> </svg> 