<?xml version="1.0" encoding="UTF-8"?> <!-- Generator: Adobe Illustrator 24.1.2, SVG Export Plug-In . SVG Version: 6.00 Build 0) --> <svg xmlns="http://www.w3.org/2000/svg" xmlns:xlink="http://www.w3.org/1999/xlink" version="1.1" id="Layer_1" x="0px" y="0px" viewBox="0 0 100 100" style="enable-background:new 0 0 100 100;" xml:space="preserve"> <g> <path style="fill:#FFFFFF;" d="M85.7,66.4c-5,0-10.1,0-15.1,0c0,1.9,0,3.7,0,5.8c2.5,0,5,0,7.4,0c-0.9,3.6-3.6,5.4-7.8,5.2 c-4.7-0.2-8.3-3.5-9.4-8.6c-0.7-3.3,2.3-8.6,5.8-10C71,57,75.8,58,78.2,62.6c1.9-0.9,3.8-1.8,5.7-2.8c-2.1-4.1-5.1-6.9-9.5-7.7 c-6.7-1.2-12.8-0.2-17.1,5.7c-3.6-4.5-8.2-6.2-13.7-6.1c-5.4,0-10,1.8-13.5,6.3c-2.3-2.6-5-4.7-8.4-5c-4.9-0.5-9.9-0.5-14.9-0.7 c0,10.5,0,20.5,0,30.6c4.6,0,9,0.2,13.4-0.1c3.9-0.3,7.2-2.2,9.7-5.2c6.3,8.1,20.8,8.4,27.4,0.2c2.4,3.2,5.4,5.3,9.4,5.8 c3.8,0.5,7.7,0.4,11.3-1.4C83.3,79.3,86.1,71.9,85.7,66.4z M18.7,76.9c-5,0.8-5,0.8-5-4.2c0-1.7,0-3.4,0-5.1c0-2.7,0-5.3,0-8 c0-1,0.3-1.4,1.3-1.4c6.6-0.2,10.5,3.1,11.2,9.7C26.5,71.8,22.8,76.3,18.7,76.9z M43.6,77.3c-5.4,0-9.6-4.1-9.5-9.5 c0.1-5.5,4-9.5,9.6-9.5s9.5,3.9,9.5,9.5C53.2,73.3,49.2,77.3,43.6,77.3z"></path> <g> <path style="fill:#FFFFFF;" d="M86,16.9c0,6.4,0,12.8,0,19.7c-0.9-0.9-1.4-1.4-1.9-2c-3.5-3.8-7-7.5-10.4-11.4 C69,17.6,63,15.5,55.9,16.4c-11.6,1.3-16,11.7-14.8,19.3c1.1,7.4,5.5,12.2,12.8,13.9c7.5,1.7,14.3,0.3,19.3-6.1 c1.3-1.7,2.2-3.8,3.4-6c0.3,0.4,0.6,0.9,1,1.3c2.8,3.2,5.6,6.4,8.4,9.6c0.4,0.4,0.8,1,1.3,1c2,0.1,4,0,5.9,0c0-11.1,0-21.8,0-32.6 C90.8,16.9,88.5,16.9,86,16.9z M58.8,43.4c-5.8,0-10.3-4.4-10.2-10.2c0-5.9,4.3-10.2,10.2-10.2c6,0,10.2,4.2,10.2,10.2 C69,39.1,64.7,43.4,58.8,43.4z"></path> <path style="fill:#FFFFFF;" d="M34.1,35.8c4.6-2,6.7-5.2,6.2-9.7C39.7,21,37,17.7,32,17.2c-5.1-0.5-10.2-0.1-15.4-0.1 c0,10.7,0,21.5,0,32.3c2.5,0,4.8,0,7.3,0c0-0.8,0-1.5,0-2.2c0-6.8,0-13.6,0-20.4c0-4.9,0.1-4.9,5-4.1c2.4,0.4,3.6,1.7,3.8,4 c0.2,2.2-1.2,4.1-3.4,4.6c-1.3,0.3-2.6,0.3-4.3,0.6h-0.7v3.4l2.1,3.3c0.8,1.3,1.6,2.6,2.5,3.8v0.1l0,0c1.4,2.1,2.9,4.1,4.4,6.1 c0.3,0.4,0.8,0.9,1.3,0.9c2.7,0.1,5.4,0,8.5,0c-3.4-4.6-6.6-8.8-9.9-13.2C33.7,36.1,33.9,35.9,34.1,35.8z"></path> <path style="fill:#FFFFFF;" d="M6.7,49.4c2.5,0,4.8,0,7.1,0c0-10.9,0-21.7,0-32.5c-2.4,0-4.7,0-7.1,0C6.7,27.8,6.7,38.6,6.7,49.4z "></path> </g> <g> <path style="fill:#FFFFFF;" d="M87.9,81.3c0,0.3,0.1,0.5,0.2,0.7c0.1,0.2,0.3,0.3,0.6,0.3c0.2,0,0.4-0.1,0.6-0.3 c0.2-0.2,0.3-0.5,0.5-0.9c0.1-0.3,0.2-0.6,0.4-0.8c0.1-0.2,0.3-0.4,0.6-0.5s0.5-0.2,0.9-0.2c0.3,0,0.6,0.1,0.9,0.2 c0.3,0.2,0.5,0.4,0.6,0.7c0.2,0.3,0.2,0.7,0.2,1.1c0,0.4-0.1,0.7-0.2,1.1c-0.1,0.4-0.3,0.7-0.5,1l-0.8-0.4 c0.2-0.2,0.3-0.5,0.4-0.7c0.1-0.3,0.2-0.5,0.2-0.8c0-0.3-0.1-0.6-0.2-0.8s-0.4-0.3-0.7-0.3c-0.2,0-0.4,0.1-0.6,0.3 c-0.2,0.2-0.3,0.5-0.4,0.8c-0.1,0.4-0.3,0.6-0.4,0.9c-0.1,0.2-0.3,0.4-0.5,0.6c-0.2,0.2-0.5,0.3-0.9,0.3c-0.5,0-0.9-0.2-1.2-0.5 C87.2,82.5,87,82,87,81.5c0-0.4,0-0.8,0.1-1.1c0.1-0.3,0.2-0.6,0.4-0.9l0.8,0.4C88,80.4,87.9,80.9,87.9,81.3z"></path> <path style="fill:#FFFFFF;" d="M87,74.6H88v1.6h5.2v1H88v1.5H87V74.6z"></path> <path style="fill:#FFFFFF;" d="M91.6,72.2c0.2-0.1,0.4-0.3,0.5-0.5c0.1-0.2,0.2-0.4,0.2-0.7c0-0.3-0.1-0.5-0.2-0.7 c-0.1-0.2-0.3-0.4-0.5-0.5c-0.2-0.1-0.4-0.2-0.7-0.2H87v-1h4c0.4,0,0.8,0.1,1.2,0.3c0.3,0.2,0.6,0.5,0.8,0.9 c0.2,0.4,0.3,0.8,0.3,1.2s-0.1,0.8-0.3,1.2c-0.2,0.4-0.5,0.7-0.8,0.9c-0.3,0.2-0.7,0.3-1.2,0.3h-4v-1H91 C91.2,72.4,91.4,72.3,91.6,72.2z"></path> <path style="fill:#FFFFFF;" d="M87,67v-1.8c0-0.8,0.2-1.4,0.5-1.9c0.3-0.5,0.7-0.9,1.2-1.1c0.5-0.2,1-0.3,1.5-0.3 c0.6,0,1.1,0.1,1.6,0.4c0.5,0.3,0.8,0.7,1,1.1c0.2,0.5,0.4,1,0.4,1.5v2H87z M92.2,65.2c0-0.4-0.1-0.8-0.2-1.2 c-0.2-0.3-0.4-0.6-0.7-0.8c-0.3-0.2-0.7-0.3-1.1-0.3c-0.5,0-0.9,0.1-1.2,0.3c-0.3,0.2-0.6,0.5-0.7,0.8C88,64.3,88,64.7,88,65v1 h4.3V65.2z"></path> <path style="fill:#FFFFFF;" d="M87,59.6h6.2v1H87V59.6z"></path> <path style="fill:#FFFFFF;" d="M88.5,57.9c-0.5-0.3-0.9-0.7-1.2-1.1c-0.3-0.5-0.4-1-0.4-1.6c0-0.6,0.1-1.1,0.4-1.6 c0.3-0.5,0.7-0.9,1.2-1.2c0.5-0.3,1-0.4,1.6-0.4c0.6,0,1.1,0.1,1.6,0.4c0.5,0.3,0.9,0.7,1.1,1.2c0.3,0.5,0.4,1,0.4,1.6 c0,0.6-0.1,1.1-0.4,1.6c-0.3,0.5-0.7,0.9-1.1,1.1c-0.5,0.3-1,0.4-1.6,0.4C89.6,58.3,89,58.1,88.5,57.9z M91.2,57 c0.3-0.2,0.6-0.5,0.8-0.8c0.2-0.3,0.3-0.7,0.3-1.1c0-0.4-0.1-0.7-0.3-1.1s-0.5-0.6-0.8-0.8c-0.3-0.2-0.7-0.3-1.1-0.3 c-0.4,0-0.8,0.1-1.1,0.3c-0.3,0.2-0.6,0.5-0.8,0.8c-0.2,0.3-0.3,0.7-0.3,1.1c0,0.4,0.1,0.8,0.3,1.1c0.2,0.3,0.5,0.6,0.8,0.8 c0.3,0.2,0.7,0.3,1.1,0.3C90.5,57.3,90.9,57.2,91.2,57z"></path> </g> </g> </svg> 