<?xml version="1.0" encoding="UTF-8"?> <!-- Generator: Adobe Illustrator 22.0.0, SVG Export Plug-In . SVG Version: 6.00 Build 0) --> <svg xmlns="http://www.w3.org/2000/svg" xmlns:xlink="http://www.w3.org/1999/xlink" version="1.1" id="Layer_1" x="0px" y="0px" viewBox="0 0 775 763" style="enable-background:new 0 0 775 763;" xml:space="preserve"> <path style="fill:#FFFFFF;" d="M52.2,503.2c-2.5-1.1-4.9-3.3-6.6-5.9l-2.7-4.1l-0.3-69c-0.2-46.1,0.1-70.3,0.8-72.8 c1.3-4.8,5.1-9.3,9.9-11.5c3.6-1.6,7.9-1.8,72.1-1.8c49.2,0,69.3,0.3,71.5,1.1c5.1,1.7,8.1,4.3,10.1,8.6c1.9,3.9,1.9,6.3,2.3,73.7 l0.3,69.6l-2.8,4.6c-1.9,3-4.3,5.3-7,6.8l-4.2,2.2h-69.7C59.5,505,56,504.9,52.2,503.2z M136,441.8l0.2-30.6h5.2h5.2v-7.1V397h-5.2 h-5.2v-4.5c0-5.6,1.1-6.8,6.3-6.8h4.1V378v-7.6l-6.8-0.1c-10.5-0.2-12.3,0.1-16.3,2.3c-5.4,2.9-7.4,6.9-8.1,16.1 c-0.5,6-0.9,7.8-2,7.9c-0.8,0.1-2.8,0.2-4.5,0.3l-3.1,0.1v7.1v7.1h4.7h4.7V442v30.9l10.2-0.3l10.1-0.3L136,441.8z"></path> <path style="fill:#FFFFFF;" d="M226.8,503.1c-4.2-2.7-6.8-5.9-8.1-10c-1.5-4.5-2.2-132.6-0.8-139.8c1-5.2,4.1-9.7,8.7-12.8l3.3-2.3 h71.3h71.2l3.7,2.1c2,1.1,4.8,3.7,6.3,5.8l2.7,3.8V421v71.2l-2.6,4.3c-1.7,2.9-3.8,5-6.7,6.4l-4.2,2.1l-71-0.1 C233.1,504.9,229.4,504.8,226.8,503.1z M297.1,471.7c3.3-0.7,5.8-2,8.1-4.4l3.4-3.3l1.4,3.4l1.4,3.4h8.5c8.5,0,9.6-0.4,8.5-3.3 c-0.2-0.5-0.6-13.7-0.9-29.4c-0.3-16.3-0.9-30-1.6-32.2c-1.2-4.4-6.4-9.7-10.3-10.4c-1.4-0.3-4-0.9-5.6-1.4 c-4.4-1.4-15.5-1.1-21.1,0.6c-9,2.7-15.3,10.8-15.3,19.9c0,3.5,1.4,4.2,9.6,4.2c5.7,0,9.1-1.7,8.1-4.1c-0.7-1.9,2.7-6.2,5.7-7.4 c3.6-1.3,9.2,0.5,10.5,3.4c1.7,3.8,1.3,7.7-0.9,10.3c-1.5,1.7-4.8,3.1-11.2,4.8c-15,4.2-19,6.6-22.1,13.7 c-2.4,5.4-2.7,10.9-1.1,17.9C275,469.9,283.4,474.8,297.1,471.7z"></path> <path style="fill:#FFFFFF;" d="M292.9,457.3c-2.2-1.9-2.6-3-2.7-7.6c-0.1-7.3,2.1-10,9.7-12.5c3.1-1,6.1-2.2,6.4-2.6 c1.7-1.8,2.3-0.2,2.3,7.2c0,12.3-1.8,15.4-10.1,17C296.2,459.3,294.8,459,292.9,457.3z"></path> <path style="fill:#FFFFFF;" d="M401.3,502.3c-2.8-1.8-4.9-4.2-6.3-6.9c-2-4.2-2-4.6-2-72.5c0-74.5-0.1-73.4,5.4-79.1 c5.5-5.7,3.6-5.6,79.9-5.3c64.1,0.3,69.8,0.4,72.6,1.9c1.6,0.9,3.6,2.5,4.5,3.4c4.3,4.6,4.3,4.5,4.5,77.9c0.4,76.3,0.7,71.8-5,78 c-5.3,5.7-1.7,5.4-78.7,5.4h-70.4L401.3,502.3z M504.8,464.7v-8.1h-14.7c-8.1,0-14.7-0.2-14.7-0.5c0-0.3,6.6-10.4,14.7-22.5 l14.7-21.9v-7.5V397h-26.5h-26.5v8.1v8l13.7,0.3l13.6,0.3l-1.1,2.1c-0.7,1.1-4.5,7.1-8.7,13.3c-4.2,6.2-7.8,11.7-8.1,12.1 c-0.3,0.6-2.7,4.3-5.4,8.2l-5,7.3v8.1v8.1h27h27V464.7z"></path> <path style="fill:#FFFFFF;" d="M582.2,447.3c-4.5-0.9-10-5.4-12.2-9.7c-1.5-2.9-1.6-9.3-1.7-73.5c0-41.6,0.4-71.3,0.9-72.6 c1.2-3.1,5.7-7.7,9.7-9.9c3-1.6,7.3-1.7,70-2c74.1-0.3,75.2-0.3,80.9,5.1c1.9,1.8,3.4,3.4,3.4,3.6c0,0.3,0.5,1.6,1,3.1 c0.8,1.9,1,22.6,0.9,72.8c-0.1,69-0.2,70.1-2.1,73.8c-2.2,4.3-3.6,5.5-8.4,8c-3,1.5-8.9,1.6-71.1,1.8 C616.3,447.9,584.2,447.7,582.2,447.3z M661.6,412.9c0.3-1.2,0.4-18.2,0.3-37.7l-0.3-35.5l-9.7-0.3l-9.8-0.3v38V415h9.5 C660.7,415,661.1,414.9,661.6,412.9z M661.5,329.1c0.3-0.9,0.6-4.5,0.6-8.4c0-8.1,0.2-8.1-11.9-8.1h-7.8l-0.4,4.1 c-0.2,2.2-0.2,6.3,0,9l0.4,4.9h9.3C659.2,330.7,661.1,330.4,661.5,329.1z"></path> <path style="fill:#FFFFFF;" d="M577.1,268.7c-8.7-4.8-11.5-14.3-6.3-21.8c4.5-6.4,0.9-6.3,80.8-6.3c76-0.1,74.7-0.1,79.9,4.1 c1.8,1.4,4.5,8.2,4.5,11.1c0,4.2-6.3,12.2-9.7,12.3c-0.9,0-1.7,0.5-1.7,0.9C724.6,270.6,579.8,270.2,577.1,268.7z"></path> <path style="fill:#FFFFFF;" d="M571.1,221.4c-1.8-0.9-2.5-2.1-2.7-4.6c-0.6-6.8-5.4-6.4,83.8-6.4h79.5l2.1,2.6 c2.1,2.6,2.2,6,0.2,6.7c-0.5,0.2-0.9,0.9-0.9,1.7c0,1.1-11.6,1.3-79.8,1.3C591.1,222.6,572.9,222.4,571.1,221.4z"></path> <path style="fill:#FFFFFF;" d="M570.1,191.2c-1.1-0.5-1.8-1.6-1.8-3.2c0-1.9,0.4-2.4,1.5-1.9c0.9,0.3,38.4,0.6,83.4,0.6 c81,0,81.9,0,81.9,1.9c0,1.1-0.9,2.1-2.1,2.4C729.7,191.7,572.2,191.9,570.1,191.2z"></path> </svg> 