<?xml version="1.0" encoding="UTF-8"?> <!-- Generator: Adobe Illustrator 24.1.2, SVG Export Plug-In . SVG Version: 6.00 Build 0) --> <svg xmlns="http://www.w3.org/2000/svg" xmlns:xlink="http://www.w3.org/1999/xlink" version="1.1" id="Layer_1" x="0px" y="0px" viewBox="0 0 100 100" style="enable-background:new 0 0 100 100;" xml:space="preserve"> <g> <g> <path style="fill:#FFFFFF;" d="M4.3,47.8V31.9l-1.6-0.2c0,0-0.4,0,0-1.5L4.1,24c0-0.2,0.2-0.3,0.4-0.3l7.8-0.7 c0.1,0,0.2,0,0.3,0.1l3.9,4.3c0.2,0.2,0.4,0.2,0.6,0l3.6-4.2c0.1-0.1,0.2-0.1,0.3-0.1l7.3,0.6c0.2,0,0.4,0.2,0.4,0.4v23.4 c0,0.2-0.2,0.4-0.4,0.4l-7.1,0.6c0,0-0.6-0.1-0.6-1.1l0-10.1c0-0.4-0.5-0.5-0.7-0.3l-2.6,3.1c-0.2,0.2-0.4,0.2-0.6,0L13.5,37 c-0.3-0.3-0.7-0.1-0.7,0.3l0.1,10.6c0,0-0.2,1.3-1.2,1.1l-7.4-0.6L4.3,47.8z"></path> <path style="fill:#FFFFFF;" d="M30.7,24.4c1.1-0.1,4.8-0.3,9.4-0.5c0.1,0,0.2-0.1,0.3-0.2c0.2-0.2,0.5-0.7,1-0.7l6.8,0.6 c0.2,0,0.4,0.3,0.4,0.5l-1.7,7.4c0,0.2-0.2,0.3-0.4,0.3h-8v1.6h8.7c0.3,0,0.5,0.2,0.4,0.5l-1.3,5.5c0,0.2-0.2,0.3-0.4,0.3h-7.4 v1.7h8.5c0.3,0,0.4,0.2,0.4,0.5l-1.7,7.3c0,0.2-0.2,0.3-0.4,0.3c-1.9,0.1-12.6,0.5-14.7-0.1c-0.2,0-0.3-0.2-0.3-0.4V32.7l-1.4,0 l1.3-7.9C30.4,24.6,30.6,24.4,30.7,24.4z"></path> <path style="fill:#FFFFFF;" d="M65.4,23.9c0,0-5.7-3.2-12.7,2.6c0,0,0,0,0,0c-0.2,0.2-7.3,6.5-2.5,17.4c0,0,0,0,0,0 c0.2,0.4,4.8,7.6,14.8,5.9c0,0,0,0,0,0c0.2,0,10.4-2.1,9.7-16c0-0.2-0.2-0.4-0.4-0.4l-11.4,0.1c-0.2,0-0.3,0.1-0.4,0.3L61,39.6 c-0.1,0.3,0.1,0.5,0.4,0.5h3.2c0,0-1.4,2.6-5.4,0.4c0,0-3.6-1.9-1-7c0,0,0,0,0,0c0.1-0.1,1.3-2.4,7.3-0.8l1-0.1l4.8-5 c0.2-0.2,0.1-0.4,0-0.6c-0.9-0.7-3.3-2.8-4.9-3.3C66.4,23.8,65.5,23.4,65.4,23.9z"></path> <path style="fill:#FFFFFF;" d="M91.5,23c-6.2,0-11.8,0.3-13,0.4c-0.2,0-0.3,0.1-0.3,0.3l-2.9,7.7l1.7,0.2l-4.3,16.6 c-0.1,0.2,0.1,0.5,0.4,0.5l8.3,0.7c0.2,0,0.4-0.1,0.4-0.3l1-2.7c0.1-0.2,0.2-0.3,0.4-0.3h5.1c0.2,0,0.3,0.1,0.4,0.3l0.7,2.7 c0.1,0.2,0.2,0.3,0.4,0.3l8.5-0.9c0.2,0,0.4-0.3,0.3-0.5l-6.7-24.7C91.8,23.2,91.7,23,91.5,23z M84.7,38.4c-0.3,0-0.5-0.3-0.4-0.5 l1.3-4.7l1.5,4.6c0.1,0.3-0.1,0.5-0.4,0.5H84.7z"></path> </g> <g> <path style="fill:#FFFFFF;" d="M53.6,52.3c-6.5,0-12.2,0.3-13.2,0.4c-0.1,0-0.2,0.1-0.2,0.2l-2.9,7.8l1.7,0.2l-4.4,16.8 c0,0.2,0.1,0.3,0.2,0.3l8.6,0.7c0.1,0,0.2-0.1,0.3-0.2l1-3c0-0.1,0.1-0.2,0.2-0.2h5.3c0.1,0,0.2,0.1,0.2,0.2l0.8,2.9 c0,0.1,0.1,0.2,0.3,0.2l8.8-0.9c0.2,0,0.3-0.2,0.2-0.3l-6.7-24.9C53.8,52.3,53.7,52.3,53.6,52.3z M46.5,67.6 c-0.2,0-0.3-0.2-0.2-0.3l1.4-4.8l1.5,4.8c0.1,0.2-0.1,0.3-0.2,0.3H46.5z"></path> <path style="fill:#FFFFFF;" d="M6.8,53.3c1-0.2,4.8-1,7.6-0.7c0,0,0,0,0,0c0.1,0,1.4,0.2,1.4,4.9c0,0,0,0,0,0l0.4,3.1l2.2-8.1 c0-0.1,0.1-0.2,0.2-0.2l6.8-0.2c0.1,0,0.2,0.1,0.3,0.2l2.5,8.6l0.9-7.1c0,0,0.1-1.4,1.6-1.3l7,0.8c0.1,0,0.3,0.2,0.2,0.3 l-4.9,23.6c0,0.1-0.1,0.2-0.2,0.2L25,78c-0.1,0-0.2-0.1-0.3-0.2l-2.1-8c-0.1-0.3-0.4-0.3-0.5,0l-1.9,8c0,0.1-0.1,0.2-0.3,0.2 l-8.4-0.4c-0.1,0-0.2-0.1-0.2-0.2L6.6,53.6C6.6,53.5,6.7,53.4,6.8,53.3z"></path> <path style="fill:#FFFFFF;" d="M54.3,52.9c1-0.2,4.5-0.9,8.7-0.6c0.1,0,0.2,0.1,0.2,0.1l1.9,3.9c0.1,0.2,0.4,0.2,0.5,0l2-3.9 c0-0.1,0.1-0.1,0.2-0.1c0.9,0,5.8,0.1,8.9,0.7c0.2,0,0.2,0.2,0.2,0.4L70,66c0,0,0,0.1,0,0.1l0,11.3c0,0.1-0.1,0.2-0.2,0.3 c-1.1,0.1-6.1,0.7-8.6,0c-0.1,0-0.2-0.1-0.2-0.3l-0.1-11.3c0,0,0-0.1,0-0.1l-6.7-12.8C54,53.1,54.1,52.9,54.3,52.9z"></path> <path style="fill:#FFFFFF;" d="M92.9,54.4c0.1,0,0.2,0.2,0.2,0.3l-2.3,8.1c0,0-0.5,0.6-2.3-0.8c0,0-4.3-2.3-4.9-0.5 c0,0,6.6,1.1,8.6,5.5c0,0,3.6,6.2-3,11.3c-6.1,4.7-14-0.8-15.1-1.6c-0.1-0.1-0.1-0.2-0.1-0.3l1.9-6.9c0,0,0.6-0.8,1.9-0.1 c0,0,4.1,2.6,6.2,1.6c2.1-1-2.9-1.8-2.9-1.8s-5.2-0.7-6.7-5.7s2.2-9.9,6-10.3c0,0,2.6-0.4,4.7-0.2c0.1,0,0.2-0.1,0.3-0.2 c0-0.3,0.2-0.7,1-0.5L92.9,54.4z"></path> </g> </g> </svg> 