<?xml version="1.0" encoding="UTF-8"?> <svg xmlns="http://www.w3.org/2000/svg" xmlns:xlink="http://www.w3.org/1999/xlink" version="1.1" id="Layer_1" x="0px" y="0px" viewBox="0 0 1000 1000" style="enable-background:new 0 0 1000 1000;" xml:space="preserve"> <path style="fill:#FFFFFF;" d="M145.4,542.1c-9.9,3.3-19.1,6.5-28.5,9.4c-7.6,2.3-9.4,6.8-6.8,14.1c4,11.6,7.2,23.6,11.3,35.2 c2.7,7.7,0,11.6-6.7,15.5c-11.7,6.9-23.2,5.4-34.7,1.1c-3.2-1.2-6.5-4.7-7.8-7.9c-16.2-39.9-32-80-48.1-120 c-2.6-6.3-0.4-10.7,5.2-13.1c24.5-10.6,49.1-20.9,73.7-31.3c1.5-0.6,3.9-1.3,4.8-0.6c8.8,6.5,20.6,9.8,24.3,21.9 c1.9,6.2,3.8,12.3,5.6,18.5c2.7,9.4,0.9,12.3-9,14.9c-8.4,2.2-17,4-25.3,6.7c-3.3,1.1-5.8,4.4-8.1,8.4c15.5-3,30.6-12,45.1,5.2 c0.6-21,8.7-35.5,22.2-47c10.5-9,22.8-13.8,36.5-15.9c22.3-3.4,52.8,18.6,63.6,51c1.9-2.4,3.5-4.5,5.1-6.5 c14-18.2,32.6-27.2,55.5-26.8c29.8,0.6,47.5,26.4,51.9,52.3c5.7,33.1-15.4,63.9-45.3,68c-27.6,3.8-56.8-12.6-67.9-38.2 c-1-2.3-2-4.6-3.1-7.1C233.2,596.9,170.4,584.8,145.4,542.1z M335.8,533.1c-1.9-3.6-3.4-10-5.7-10.2c-4.3-0.5-10,1.3-13.3,4.3 c-6.4,5.7-7.7,14-6.7,22.4c0.6,5.4,3.5,7.1,8.7,6.2C328.1,554.1,334.1,545.8,335.8,533.1z M198.6,525.2c0.1,1.7-0.1,3.5,0.5,5 c1,2.7,2.2,7.3,3.8,7.5c2.8,0.3,6.4-1.4,8.9-3.3c6.5-5,8.9-18.8,4.4-26.1c-1-1.6-5.4-2.6-7.3-1.7 C201.1,510.2,199.2,517.5,198.6,525.2z"></path> <path style="fill:#FFFFFF;" d="M863.4,547.6c-9.2,6.4-17.2,12.7-25.9,17.7c-12,6.9-24.8,2.3-37,0.2c-6.9-1.2-8.1-7.9-3.3-14.8 c8.5-12.2,17.3-24.2,26-36.2c7.1-9.8,7-11.7-1.2-21c-9-10.4-17.9-20.8-27-31.1c-4.9-5.6-3.9-9.8,1.1-15.1 c11.9-12.6,27.4-18,43.1-23.5c7.6-2.7,12.9,0.8,17.4,6.7c6.3,8.2,12.8,16.2,19.8,25c3.2-3.4,5.3-5.9,7.8-8.1 c13.1-11.7,26.2-23.5,39.7-34.7c1.9-1.6,6.7-1.9,9-0.7c8.7,4.6,16.9,9.9,25.2,15.1c10.8,6.8,11.3,10.5,2.4,19.4 c-13.7,13.6-27.7,27.1-41.5,40.7c-10.4,10.2-10.5,11.9-1.6,23.1c9.2,11.7,18.5,23.2,27.6,35c6.4,8.2,5.5,13.6-3.8,18.1 c-13.1,6.2-26.5,11.8-40.1,16.9c-2.2,0.8-6.5-1.1-8.6-3c-7.4-6.9-14.3-14.3-21.3-21.5C867.9,552.4,864.9,549.2,863.4,547.6z"></path> <path style="fill:#FFFFFF;" d="M385.5,459.3c-20.9-1.2-41.9-2.4-62.9-3.5c-14.1-0.7-24.7-11.8-24.3-26.2c0.2-7.6,1-15.1,1.4-22.6 c0.4-7.1,3.5-10.9,11.2-10.1c23.5,2.4,47,4.6,70.5,7.1c28.8,3,57.6,6.4,86.4,9.2c8.3,0.8,12.4,4.5,12.1,12.8c-0.3,8.7-0.4,17.3-1,26 c-0.4,6.2-3.9,9.7-10.5,9.4c-6.7-0.2-13.5-0.2-20.2-0.6c-7.3-0.4-10.7,2.7-11.6,10c-4.8,41.2-9.9,82.3-14.8,123.4 c-2.3,19.7-12.3,25.8-30.6,17.5c-6.3-2.8-10.8-7.8-10.4-15.8c1.7-35.2,3.4-70.5,4.8-105.7C385.9,480.4,385.5,470.6,385.5,459.3z"></path> <path style="fill:#FFFFFF;" d="M738.2,569.6c-15.8,8.4-30.1,16-44.5,23.5c-9.6,5-12.1,4.4-17.6-4.9c-16-27-31.8-54.1-47.6-81.2 c-6.3-10.8-3.1-22.7,7.8-29.2c4.3-2.6,8.9-4.7,13.4-7c9.9-4.9,12.7-4,17.6,6.3c9.3,19.7,18.6,39.5,27.7,59.3 c9.6,20.9,10.5,21.3,28.4,8.5c6.5-4.7,11.9-4.4,17.3,4.7c1.9-14.9,3.7-27.6,5.1-40.2c1.8-16.3,14-26.4,30.3-24.9 c24.3,2.2,24.8,2.9,19.8,26.4c-4.6,21.3-9.1,42.7-13.5,64c-1.9,9.2,0.2,11.6,9.5,12.1c13.2,0.6,26.4,1.2,39.6,1.8 c9.7,0.5,11.3,3.2,7,11.5c-1.2,2.2-2.4,4.5-3.2,6.8c-4.2,14.1-16.2,18.2-28.1,18c-21.9-0.4-43.7-3.4-65.5-5.4 c-6.7-0.6-8.9-5.2-8.2-11.4C735.1,595.8,736.6,583.4,738.2,569.6z"></path> <path style="fill:#FFFFFF;" d="M519.1,543.9c14.6,27.6-7,58.3-40,57.3c-10.7-0.3-21.3-1.8-31.9-3.2c-8.5-1.1-14.2-8.7-13.3-17.4 c3.2-31.2,6.5-62.4,9.9-93.5c1-9.5,4.2-12.8,13.5-12.3c14.6,0.7,29.4,0.7,43.5,3.8c34.3,7.7,38.4,39.5,20.5,62.3 C520.7,541.9,520,542.8,519.1,543.9z M500,522.8c0-1.1-0.1-2.2-0.1-3.4c-3.9-1.9-7.7-4.4-11.9-5.3c-2.4-0.5-6.4,0.8-7.8,2.7 c-1.8,2.4-2.5,6.3-1.8,9.2c0.3,1.2,5.5,2.3,8.1,1.7C491.1,526.8,495.5,524.6,500,522.8z M489.9,565.6c-5.4-1.3-10.7-3.4-16.1-3.6 c-2-0.1-4.6,3.9-6.2,6.5c-0.4,0.6,1.9,4.2,3.3,4.4C477.5,574,484.2,574.5,489.9,565.6z"></path> <path style="fill:#FFFFFF;" d="M280,412.6c0.1,10.2-7.1,18-16.7,18.2c-9.6,0.2-17.5-7.5-17.6-17.4c-0.1-10.6,7.9-19.8,17.5-19.9 C272.8,393.4,280,401.5,280,412.6z"></path> <path style="fill:#FFFFFF;" d="M232.8,390.4c4.6-4,7.6-6.6,10.5-9.2c2.3,3,6.5,6,6.5,9c0,2.7-4.1,7-7.1,7.7 C240.7,398.5,237.4,394.1,232.8,390.4z"></path> <path style="fill:#FFFFFF;" d="M643.4,560.4c-12.6-36.7-25.6-73.3-38.6-109.9c-2.1-5.8-6-8.5-12.5-6.5c-8.9,2.6-18.1,4.3-26.6,7.8 c-3.7,1.5-6.9,5.9-9,9.7c-1.9,3.6-2.5,8-2.8,12.2c-2.9,36.5-5.6,73.1-8.7,112.8c1.2,1.3,3.3,5.8,6.7,7c14.6,5.2,22.1,0.3,25.1-14.9 c0.6-2.9,1.5-7.4,3.3-8c7.2-2.3,14.8-4.6,22.1-4.1c3.2,0.2,6.3,6.9,8.7,11.1c3,5.1,6.6,7.9,12.3,4.6c6-3.5,12.2-6.8,17.3-11.3 C643.1,568.7,644.4,563.3,643.4,560.4z M580.7,528v-21.6l13.8,16.4L580.7,528z"></path> </svg> 