<svg xmlns="http://www.w3.org/2000/svg" viewBox="0 0 126 126"><path d="M106.2 74.8l-.1-.5.1.5zM17.8 31.6l2.4 13.6 5-.9c.9-.2 1.9.5 2 1.4l.1.7c.2.9-.5 1.9-1.4 2l-5 .9 1.2 6.7 6.8 38.5.1.8V28l-10 1.8c-.7.1-1.3.9-1.2 1.8zM19.8 54.2l.1.5-.1-.5zM89 18H71.8c0 4.8-3.9 8.8-8.8 8.8s-8.8-3.9-8.8-8.8H37c-1.1 0-2 .9-2 2v17.2h6.3c1.2 0 2.2 1 2.2 2.2v.8c0 1.2-1 2.2-2.2 2.2H35V106c0 1.1.9 2 2 2h17.2c0-4.8 3.9-8.8 8.8-8.8s8.8 3.9 8.8 8.8H89c1.1 0 2-.9 2-2V42.4h-6.3c-1.2 0-2.2-1-2.2-2.2v-.8c0-1.2 1-2.2 2.2-2.2H91V20c-.1-1.1-.9-2-2-2zM65.4 39.4c0-1.2 1-2.2 2.2-2.2h8c1.2 0 2.2 1 2.2 2.2v.8c0 1.2-1 2.2-2.2 2.2h-8c-1.2 0-2.2-1-2.2-2.2v-.8zm-17.1 0c0-1.2 1-2.2 2.2-2.2h8c1.2 0 2.2 1 2.2 2.2v.8c0 1.2-1 2.2-2.2 2.2h-8c-1.2 0-2.2-1-2.2-2.2v-.8zM46.1 54H80v7.2H46.1V54zm0 14.1H80v7.2H46.1v-7.2zm0 14.2H80v7.2H46.1v-7.2zM108.2 94.7l-2.4-13.6-5 .9c-.9.2-1.9-.5-2-1.4l-.1-.7c-.2-.9.5-1.9 1.4-2l5-.9-1.2-6.7-6.8-38.5-.2-.8v67.3l10-1.8c.8-.1 1.4-.9 1.3-1.8z"/></svg>