<svg class="S" xmlns="http://www.w3.org/2000/svg" viewBox="0 0 126 126"><path d="M115.7 36.4c-1.3-4.8-5-8.5-9.7-9.8-8.6-2.3-43-2.3-43-2.3s-34.4 0-43 2.3c-4.7 1.3-8.5 5-9.7 9.8C8 45.1 8 63.1 8 63.1s0 18 2.3 26.6c1.3 4.8 5 8.4 9.7 9.6 8.6 2.3 43 2.3 43 2.3s34.4 0 43-2.3c4.7-1.3 8.5-4.9 9.7-9.6 2.3-8.6 2.3-26.6 2.3-26.6s0-18-2.3-26.7zm-10 49.7c-.6 2.2-2.3 3.9-4.7 4.6-5.2 1.4-26.1 1.9-38 1.9-11.9 0-32.8-.5-38-1.9-2.3-.6-4.1-2.3-4.7-4.6-1.6-5.9-1.9-18.6-1.9-23 0-4.4.3-17.1 1.9-23 .6-2.3 2.4-4.1 4.7-4.7 5.2-1.4 26.1-1.9 38-1.9 11.9 0 32.8.5 38 1.9 2.3.6 4.1 2.4 4.7 4.7 1.6 5.9 1.9 18.6 1.9 23 0 4.4-.4 17.1-1.9 23zm-58.3-1.8L84.8 63 47.4 41.8v42.5z"/></svg>
