<?xml version="1.0" encoding="UTF-8"?> <svg xmlns="http://www.w3.org/2000/svg" xmlns:xlink="http://www.w3.org/1999/xlink" version="1.1" id="Layer_1" x="0px" y="0px" viewBox="0 0 1000 1000" style="enable-background:new 0 0 1000 1000;" xml:space="preserve"> <path style="fill:#FFFFFF;" d="M245.5,940.3c-3.3-0.4-6.7-0.7-10-1.3c-17.4-2.9-31.2-10.8-38.5-27.6c-2.4-5.6-3.7-11.4-3.7-17.7 c5.7-0.6,11.3-1.1,16.9-1.7c0.5,2.4,0.9,4.6,1.4,6.9c2.3,9.6,8.1,16.5,17.1,20.4c14,6.1,28.2,6.5,42.4,0.8 c6.8-2.7,11.7-7.6,13.6-14.9c2-7.5-0.7-14.9-7-19.5c-5.6-4.1-12.2-5.8-18.7-7.6c-11-3-22-5.7-32.9-8.9c-8.6-2.6-16.2-7-21.6-14.4 c-8.8-12-7.9-29.6,2-41.5c6.3-7.5,14.5-11.5,23.8-13.6c15.3-3.5,30.3-2.7,44.8,3.5c16.7,7.2,23.4,22.9,23.5,35.7 c-5.7,0.4-11.4,0.9-17,1.3c-0.9-3.2-1.5-6.4-2.6-9.3c-3-7.8-8.8-12.7-16.7-14.9c-10.3-2.8-20.8-2.7-31.1,0.3c-7.5,2.3-13,7-14.9,15 c-1.6,7.2,1.6,14.3,8.1,17.7c6.4,3.3,13.3,4.9,20.2,6.7c10.4,2.8,21,5.3,31.3,8.5c8.2,2.6,15.3,7.2,20.5,14.3 c9.2,12.7,8.4,30.9-1.7,43.8c-7,8.9-16.6,13.7-27.4,16.2c-3.3,0.8-6.7,1.1-10.1,1.7C253.4,940.3,249.4,940.3,245.5,940.3z"></path> <path style="fill:#FFFFFF;" d="M362.8,940.3c-2.7-0.5-5.5-0.8-8.2-1.5c-18.5-4.6-29.2-16.8-32.9-35.1c-2.6-13-2.3-26.1,2.5-38.7 c6.5-17,18.9-26.7,37.1-28.7c11.8-1.3,22.8,0.9,32.5,8.1c9.3,6.9,14.5,16.4,16.9,27.6c1.4,6.6,1.8,13.3,1.4,20.3 c-12.5,0-24.9,0-37.2,0c-12.3,0-24.6,0-36.9,0c0,15.2,7.8,30,23.3,33.3c12.3,2.6,24.1-1.2,30.5-14.1c0.7-1.5,1.3-3.1,2.1-4.6 c0.3-0.5,1-1.1,1.4-1.1c5.4,0.6,10.8,1.3,16.4,2c-1.8,6.9-4.7,12.9-9.3,18.2c-7.4,8.5-17,12.7-28.1,13.8c-0.6,0.1-1.2,0.2-1.8,0.4 C369.2,940.3,366,940.3,362.8,940.3z M394.3,878.4c-0.7-18.5-13-29.5-29.5-28.4c-16.8,1.1-26.2,15.9-25.8,28.4 C357.4,878.4,375.7,878.4,394.3,878.4z"></path> <path style="fill:#FFFFFF;" d="M576.7,940.3c-2.7-0.5-5.5-0.8-8.2-1.5c-17.1-4.2-27.8-15-32.1-31.9c-3.7-14.8-3.5-29.6,2.5-43.8 c6.7-16,19-24.9,36.3-26.7c11.5-1.2,22.3,0.8,31.9,7.6c9.7,6.9,15.1,16.6,17.6,28.1c1.4,6.6,1.8,13.3,1.4,20.2 c-24.8,0-49.5,0-74.2,0c0,15.2,7.7,30.1,23.3,33.4c12.2,2.6,24-1.1,30.4-13.9c0.8-1.6,1.4-3.2,2.2-4.8c0.2-0.5,1-1.1,1.4-1.1 c5.4,0.6,10.8,1.3,16.4,2c-1.8,6.9-4.7,12.9-9.3,18.2c-7.4,8.5-17,12.7-28.1,13.8c-0.6,0.1-1.2,0.2-1.8,0.4 C583.2,940.3,580,940.3,576.7,940.3z M552.8,878.4c18.6,0,36.9,0,55.3,0c-0.4-16.9-11.1-27.6-25.3-28.4 C564,848.8,552.9,863.8,552.8,878.4z"></path> <path style="fill:#FFFFFF;" d="M453,631.5c-0.5-7.4,0.4-14.5,3.1-21.4c3.4-9,8.7-16.8,15.4-23.5c5.4-5.4,10.9-10.7,16.6-15.7 c7.1-6.1,14.4-11.9,21.7-17.8c6-4.9,12.1-9.7,18.1-14.5c6.6-5.3,13.4-10.3,19.7-15.9c7.9-7,15.6-14.3,22.8-22 c5.8-6.2,10.7-13.3,14-21.2c2.8-6.8,4-13.9,2.7-21.1c-1-5.3-2.9-10.5-6.3-14.9c-1.6-2-3-4.1-4.7-6.1c-4.5-5.3-10.4-8.8-16.7-11.3 c-5.5-2.2-11.2-3.8-17-5.3c-5.1-1.3-10.2-2.3-15.4-3.2c-3.1-0.5-6.2-0.7-9.3-1.1c-3.8-0.5-7.7-1-11.5-1.4c-0.6-0.1-1.2-0.2-1.9-0.2 c-6.2-0.3-12.4-0.6-18.6-0.9c-4.4-0.2-8.9-0.5-13.3-0.9c-3.3-0.3-6.6-0.9-9.8-1.4c-0.6-0.1-1.2-0.2-1.9-0.2 c-4.8-0.5-9.7-0.9-14.5-1.6c-4.4-0.6-8.9-1.3-13.2-2.5c-5.6-1.5-11.3-3.1-15.9-6.8c-2.9-2.3-5.3-5.3-7.6-8.2 c-1.7-2.2-1.3-4.9-0.2-7.4c1.6-3.6,4-6.8,6.8-9.7c6.9-7.1,14.6-13.1,22.8-18.6c10-6.7,19.9-13.5,29.9-20.2 c6.7-4.5,13.5-8.7,20.2-13.2c5.4-3.7,10.8-7.4,15.9-11.4c6.2-4.8,12.2-9.8,18.4-14.8c7.2-5.8,13.2-12.7,18-20.6 c3.9-6.3,5.9-13.1,4.8-20.5c-0.6-4.4-2.9-8.1-5.6-11.4c-6.4-7.8-14.8-12.9-23.8-16.9c-6.9-3-13.9-5.9-20.9-8.4 c-5.6-2-11.3-3.6-17.1-5.1c-6.6-1.7-13.4-3.1-20.1-4.6c-5.9-1.3-11.8-2.6-17.7-3.9c-2.5-0.5-5.1-0.7-7.6-1.2 c-4.3-0.7-8.6-1.4-12.9-2.1c-2.6-0.4-5.2-0.8-7.8-1.2c-4.4-0.7-8.9-1.5-13.3-2.2c-2.4-0.4-4.8-0.8-7.2-1c-3.5-0.4-7.1-0.6-10.6-1 c-7.9-1-15.7-2-23.3-4.5c-9.2-3-18.1-6.5-26.6-10.9c-7-3.5-14.2-6.7-21-10.5c-7.2-4-14.2-8.5-21-13.1c-6.3-4.3-12.3-9-18.3-13.9 c-3.3-2.7-6.2-5.8-8-9.8c-1.6-3.4-0.8-5.9,2.6-7.3c1.6-0.6,3.4-1,5.1-1c8.3-0.4,16.5,0.4,24.7,1.6c9.5,1.4,19.1,2.4,28.6,3.8 c7.5,1.1,15,2.4,22.4,3.9c8.8,1.7,17.5,3.7,26.3,5.6c7.3,1.6,14.6,3.3,21.9,5.2c6.9,1.8,13.8,3.6,20.7,5.7 c10.2,3.1,20.5,6.1,30.6,9.5c8.1,2.7,16,5.8,23.9,8.9c9.2,3.7,18.4,7.4,27.3,11.7c9.4,4.6,18.7,9.6,27.7,14.9 c6.3,3.7,12.2,8,17.9,12.6c5.1,4.1,10,8.6,14.3,13.5c7.6,8.6,11.6,18.6,11.6,30.3c0,6.7-0.9,13.2-3.2,19.5 c-2.6,7.2-6.5,13.8-11.3,19.7c-3.8,4.6-7.6,9.3-11.9,13.4c-5.1,4.9-10.7,9.3-16.2,13.8c-4.2,3.5-8.5,6.9-12.9,10.3 c-4.2,3.3-8.7,6.2-12.8,9.7c-5.8,5-12.1,9.6-16.1,16.5c-2.8,4.8-3.8,9.7-0.3,14.4c1.5,2,3.8,3.8,6.2,4.7c5.2,2.1,10.6,4,16.1,5.4 c6.1,1.6,12.3,2.8,18.5,4c4.1,0.8,8.2,1.3,12.3,2c4.2,0.7,8.3,1.4,12.5,2.2c3.9,0.7,7.8,1.3,11.7,2c3.9,0.7,7.8,1.5,11.6,2.3 c4.7,0.9,9.4,1.7,14.1,2.8c5.3,1.3,10.5,2.6,15.6,4.3c8.3,2.7,16.4,5.6,24,9.9c6.2,3.5,12.2,7.4,16.9,12.9 c6.8,8,10.8,17.3,10.7,27.9c0,4.7-0.1,9.4-0.7,14c-0.8,6.1-3.5,11.7-6,17.3c-2.9,6.5-7,12.3-10.9,18.2c-2.4,3.6-5.3,6.8-8.1,10 c-4.2,4.8-8.3,9.7-12.7,14.4c-6.6,6.9-13.5,13.6-20.3,20.3c-4.3,4.2-8.7,8.2-13.1,12.3c-3.5,3.3-7.1,6.5-10.6,9.8 c-5.1,4.8-10.2,9.5-15.2,14.3c-7,6.7-14.1,13.3-20.9,20.2c-3.9,3.9-7.4,8.3-11,12.4c-2.2,2.6-4.5,5.1-6.7,7.7 c-4.1,5-7.7,10.3-10,16.5c-2.7,7.1-3.8,14.3-3.8,21.7c-0.1,7.3,0.7,14.5,3.5,21.3c1.4,3.5,3,7,4.5,10.5c1.8,4.1-0.7,9.3-5.2,10.3 c-0.7,0.2-1.6-0.3-2.4-0.5c-6.8-2.1-13.1-5-18.8-9.3c-3.8-2.9-7.6-5.8-11-9.2c-4.8-4.8-8.8-10.4-12.4-16.3 c-3.8-6.2-6.7-12.8-8.2-19.8c-1.1-5.1-1.3-10.4-1.8-15.6C452.6,631.5,452.8,631.5,453,631.5z"></path> <path style="fill:#FFFFFF;" d="M226.1,645.8c-0.8-17.5,3.8-33.6,12.4-48.6c6.2-10.8,14.3-20.1,24-28.1c10.1-8.2,20.9-15.2,32.7-20.5 c17.4-7.7,34.9-15.5,51.7-24.5c11.4-6.1,22.9-12.4,33-20.5c8.2-6.6,14.4-14.9,18.8-24.6c5-11,6.6-22.5,5.1-34.4 c-0.4-3.5-2.1-6.9-3.1-10.3c-0.4-1.5-0.9-3-0.9-4.5c-0.1-2.8,1.5-4.1,4.3-3.4c2.4,0.6,4.8,1.2,6.9,2.3c14.6,6.9,28,15.6,38.5,28.1 c5.9,7,10,15,11.3,24.1c1.2,9-0.7,17.5-4.8,25.7c-5.9,11.8-14.3,21.7-24.3,30c-9.4,7.8-19.4,15.1-29.6,21.9 c-15.4,10.2-31.9,18.6-48.6,26.5c-15.9,7.6-31.3,16.1-45.7,26.4c-4.7,3.4-9.2,7-13.5,10.9c-6.9,6.3-13.9,12.5-20.1,19.4 c-7.9,8.7-15.2,18-20.8,28.5c-2.1,4-4.3,8-6.5,12.1c-0.2,0.3-0.3,0.6-0.5,0.9c-4.4,6.6-9.6,6.5-13.8-0.3c-2.6-4.3-3.5-9-4.4-13.8 c-0.8-4.1-1.8-8.2-2.2-12.3C225.8,653.1,226.1,649.4,226.1,645.8z"></path> <path style="fill:#FFFFFF;" d="M604.7,132.4c0.7,10.6-1.3,20.2-6.6,28.7c-6.7,10.9-15.9,18.4-29.6,18.4c-5,0-10.1,0.2-14.9-1.8 c-4.2-1.7-8.5-3.5-12.4-5.8c-10.4-6.1-18.5-14.6-25.1-24.7c-5.7-8.6-10-17.8-12.6-27.7c-3.4-13-4.2-26.1-0.2-39.1 c2.4-7.9,6.4-15,12.8-20.4c5.9-5,12.7-7.7,20.5-8.1c12.6-0.7,23.4,3.8,33.1,11.2c11.6,8.9,20.8,19.8,26.7,33.2 c2.5,5.6,4.6,11.3,6.2,17.2C604.4,119.9,605.5,126.3,604.7,132.4z"></path> <path style="fill:#FFFFFF;" d="M702.1,800.3c0.7,0,1.3,0,1.8,0c17,0,33.9-0.1,50.9,0c8.3,0,16.5,0.9,24.2,4.2 c21.6,9.4,27.1,38.2,10.3,54.1c-2.6,2.5-5.7,4.3-8.7,6.5c1.6,0.6,3.3,1.2,4.9,1.9c14.5,6.2,22.3,20.4,20.2,36 c-1.2,8.5-4.3,16-10,22.4c-5.8,6.5-13.6,9.6-21.9,10.9c-6.3,1-12.8,1.6-19.2,1.7c-16.7,0.2-33.3,0.1-50,0.1c-0.8,0-1.5,0-2.4,0 C702.1,892.2,702.1,846.4,702.1,800.3z M720.2,921.7c0.4,0,0.7,0.1,0.9,0.1c13.2,0,26.5,0,39.7-0.1c3,0,6.1-0.5,9.1-1.3 c8.4-2,14.2-7.2,16.2-15.7c2-8.5,0.7-16.4-5.8-22.9c-4.8-4.7-11-6.3-17.3-6.6c-14.1-0.5-28.3-0.4-42.4-0.5c-0.1,0-0.2,0.1-0.5,0.2 C720.2,890.5,720.2,906,720.2,921.7z M720.2,816.5c0,14.2,0,28,0,41.7c0.3,0.1,0.4,0.1,0.5,0.1c10.4,0,20.9,0.1,31.3,0 c3.8,0,7.7-0.3,11.5-0.8c8.7-1.1,17.3-6.2,17.7-18.6c0.2-6.6-1.5-12.5-6.6-17c-3.9-3.5-8.9-4.5-13.9-4.6 C747.3,816.8,733.8,816.7,720.2,816.5z"></path> <path style="fill:#FFFFFF;" d="M660.2,669.8c1.2,6.5-3.8,10.6-9.5,14.4c-6.7,4.4-13.4,9.1-20.1,13.6c-2,1.4-4,2.8-6.1,4 c-4,2.4-8.1,1.6-12.2-0.1c-5.7-2.3-11.5-4.3-17.2-6.5c-3.3-1.3-6.6-2.7-9.9-4.1c-4-1.7-6.1-5.1-7.3-9.1c-2.4-8.3-4.7-16.6-6.9-24.9 c-0.9-3.3-1.8-6.6-2.2-9.9c-0.4-3.4,1-6.3,3.2-9c7.8-9.5,15.5-19.1,23.3-28.6c0.3-0.4,0.7-0.7,1-1.1c3.9-5.1,8.7-5.6,14.7-3.7 c10.1,3.3,20.4,6,30.6,8.9c3.1,0.9,6.2,1.7,9.2,2.7c3.8,1.3,6.4,5,6.6,9.1c0.4,7.5,0.8,14.9,1.2,22.4 C659.1,654.7,659.6,661.5,660.2,669.8z"></path> <path style="fill:#FFFFFF;" d="M449.8,938.1c-5.8,0-11.2,0-16.8,0c0-33.3,0-66.4,0-99.8c4.9,0,9.8,0,15,0c0,4.8,0,9.6,0,15 c1.9-2.9,3.3-5.3,5-7.6c6.4-8.9,14.1-11.6,24.7-8.4c2.8,0.8,5.4,2.2,8.1,3.4c0.5,0.2,1,1.3,0.9,1.7c-1.7,4.9-3.6,9.7-5.2,14.1 c-3.7-1-7.2-2.4-10.8-2.7c-8.5-0.8-15.2,3.9-17.9,12.1c-2,5.9-2.9,11.9-2.9,18.1c-0.1,17.2,0,34.3,0,51.5 C449.8,936.3,449.8,937.2,449.8,938.1z"></path> <path style="fill:#FFFFFF;" d="M693.7,522.8c4.5,0,8.4,2,12,4.4c12.5,8.1,22,18.9,28.2,32.4c2.3,5,4.8,10.2,5.7,15.6 c0.9,4.9-0.9,10-3.3,14.6c-1,1.8-3.6,2.1-5.9,1c-1.9-0.9-3.7-1.9-5.6-2.9c-6.7-3.5-13.3-7.1-20-10.4c-6.1-3-9.3-7.9-10.6-14.4 c-1-5-2.6-10-3.9-14.9c-1.5-5.6-3.1-11.1-4.6-16.7C684.5,526.6,688,522.8,693.7,522.8z"></path> <path style="fill:#FFFFFF;" d="M513.8,938.1c-5.5,0-10.9,0-16.4,0c0-33.3,0-66.5,0-99.8c5.4,0,10.8,0,16.4,0 C513.8,871.5,513.8,904.7,513.8,938.1z"></path> <path style="fill:#FFFFFF;" d="M680.9,732.5c0.7-1.9,1.3-3.8,2.1-5.6c2.1-5.1,4.2-10.2,6.4-15.3c1.8-4.2,4.4-7.8,8-10.6 c10.8-8.7,21.6-17.4,32.5-25.8c1.8-1.4,4.3-2.1,6.7-2.7c1.9-0.5,3.4,0.7,4.1,2.5c1.2,2.9,1,5.7,0,8.6c-2.5,6.7-6.7,12.4-11.6,17.6 c-9.7,10.4-21.4,18.2-33.8,24.9c-4.5,2.4-9.2,4.7-13.8,7C681.3,732.8,681.1,732.6,680.9,732.5z"></path> <path style="fill:#FFFFFF;" d="M497.2,800.4c5.6,0,11.1,0,16.7,0c0,6.4,0,12.7,0,19.2c-5.6,0-11.1,0-16.7,0 C497.2,813.2,497.2,806.9,497.2,800.4z"></path> <path style="fill:#FFFFFF;" d="M648.4,749.1c-4.2,0.1-8.5,0.3-12.7,0.2c-9.4-0.2-18.7-1.4-27.7-4.3c-1.6-0.5-3-1.6-4.7-2.5 c4.2-2.6,33.7,1.5,45.1,6C648.4,748.7,648.4,748.9,648.4,749.1z"></path> </svg> 