<?xml version="1.0" encoding="UTF-8"?> <svg xmlns="http://www.w3.org/2000/svg" xmlns:xlink="http://www.w3.org/1999/xlink" version="1.1" id="Layer_1" x="0px" y="0px" viewBox="0 0 1000 1000" style="enable-background:new 0 0 1000 1000;" xml:space="preserve"> <path style="fill:#FFFFFF;" d="M975.8,490.3c-0.3,6.3-0.7,12.6-0.9,18.9c-0.3,10.6-7,17.1-17.9,17.1c-57.3,0-114.7,0-172,0 c-246.7,0-493.4,0-740.1,0.1c-13.9,0-20.1-5.7-20.1-19.5c-0.1-35.9,0.1-71.7,0.2-107.6c0-8.6,7.2-15.2,16.4-15.2 c71.7,0,143.4,0,215.1,0c78.6,0,157.1,0,235.7,0c1.9,0,3.9,0,6.6,0c-1.3,2.8-2.2,4.9-3.1,7.1c-6.3-2.4-11.3-0.1-15.6,3.8 c-2.7,2.5-5.1,2.4-8.1,1.2c-3-1.2-6-2.3-9.1-3.4c-0.2,0.4-0.4,0.8-0.6,1.2c3.3,2,6.5,4,9.8,5.9c2.1,1.2,4.2,2.3,2.3,5.3 c-0.4,0.6-0.4,1.7-0.1,2.5c2.6,7-2.5,9.1-7.2,11.4c-2.2,1.1-4.3,2.3-6.1,4.6c3.9-1.4,7.7-2.7,11.6-4.1c3.2-1.1,6.1-2.3,8.5,1.7 c0.8,1.4,3.3,1.8,5.5,3c-1,6.1-2.1,12.3-3.2,18.6c0.3,0.1,0.6,0.2,0.9,0.3c2.4-6.9,4.9-13.8,7.8-22.1c1.4,2.9,2.4,4.5,3,6.2 c8.3,21.7,16.6,43.4,24.8,65.2c4.2,11.1,16.9,18.9,28.5,17.1c1.2-0.2,2.8-1.7,3.2-3c9.1-25.1,18-50.3,27-75.5 c2.8-7.8,5.7-15.6,8.6-23.4c-1-2-2.1-4.1-3.4-6.6c-7.2,0-14.8,0.2-22.3-0.1c-3-0.1-4,1.2-4.9,3.7c-6,16.6-12.1,33.1-18.1,49.6 c-0.5,1.3-1.1,2.7-1.9,4.7c-0.9-1.3-1.5-2-1.8-2.8c-5.3-14.9-10.4-29.9-15.8-44.7c-0.8-2.3-2.7-4.4-4.4-6.3c-2.7-3-2.4-4.5,1.3-6 c2.9-1.1,5.6-2.5,8.4-3.7c-0.2-0.5-0.4-1-0.6-1.6c-2.9,1-5.8,2.3-8.8,3c-2.9,0.7-5.6,2.7-9.1-0.2c-4.2-3.4-7.7-6.2-3.4-12.5 c1.1,0,2.9,0,4.7,0c150.1,0,300.2,0,450.3,0c10.6,0,17.2,6.6,17.2,17c0,25.1,0,50.1,0,75.2c0,1.7,0.6,3.3,1,5 C975.8,484.2,975.8,487.2,975.8,490.3z M141.7,440.9c-0.5-3.4-0.8-6.3-1.4-9.2c-4.5-20.1-14.4-30.7-32-32.7c-9.2-1-18.8-1-28,0 c-16.9,1.9-28.9,13.3-31.1,30.4c-1.5,11.5-0.8,23.3-1.1,35c-0.6,21.8,16.8,38.3,34.7,42.9c9.9,2.5,21,2.1,31.3,0.8 c11.7-1.4,20.7-8.5,24.7-19.8c5.1-14.2,5.6-28.9,0.9-43.9c-16.3,0-32.5,0-48.7,0c-0.8,0-1.6,0.3-2.8,0.5c0,7.3,0,14.4,0,21.6 c0,0.7,0.3,1.8,0.9,2.1c4.2,2.3,7.7,6.5,13.5,5c2.8-0.7,5.9-0.1,9.3-0.1c-1.8,4.5-5.1,6.2-9.1,6.3c-5.7,0.3-11.4,0.3-17,0 c-3.4-0.2-6.6-1-6.7-5.7c-0.1-10.7-1.3-21.5-0.4-32.2c1-12,7.3-17.4,20.7-15.3c2.8,0.4,5.9,1,8.5,0.2c4.7-1.4,5,1.5,5.5,4.5 c0.3,1.8-0.3,4.7,0.5,5.2c3.9,2.1,6.3,7.1,12.2,5.7C130.8,441.2,135.9,441.4,141.7,440.9z M357.9,399.6c-0.7,3.1-1.8,5.9-2,8.8 c-0.5,11-1,21.9-1,32.9c0,12.8,0.6,25.6,0.9,38.4c0.1,3.5,0,7-0.5,10.4c-1.3,10.3,5.1,17.5,13.5,17.5c12,0,24.1,0.2,36.1-0.1 c16.7-0.4,36.5-15.5,38.9-32c2.1-14.2,1.3-28.9,1.4-43.4c0.1-7.2-2.8-13.7-7.5-19.2c-7.7-9.1-18-13.1-29.7-13.4 C391.5,399.3,375,399.6,357.9,399.6z M154.9,451.7c0.5,7-0.4,15.1,1.7,22.2c4.9,16.6,13.8,30.8,32.3,34.1c9.4,1.7,19.3,0.4,28.9,0.2 c2.2,0,4.4-1.2,6.6-2c15.3-5.6,20.4-19,22.7-32.9c2.1-12.7,1.8-26,1-38.9c-1.2-19.8-13.6-33.1-32.5-35.4c-9.4-1.1-19.1-1.1-28.5,0 c-16.6,2-28.2,13.4-31,30.1C155.1,436.4,155.3,443.8,154.9,451.7z M682.7,401.1c0,20.5,0.4,40.5-0.1,60.5 c-0.3,11.4,2.3,21.7,7.6,31.6c4.2,7.8,10,14.1,18.8,15.3c9.6,1.4,19.5,1.3,29.2,1.3c3.2,0,6.5-1.2,9.5-2.5 c13.6-6.2,18.8-18.7,22.1-31.8c1.8-7.1,1.1-14.9,1.2-22.4c0.1-17.3,0-34.6,0-52.1c-9.1,0-17.2,0-25.5,0c-0.1,0.8-0.3,1.4-0.3,2.1 c-0.2,20.7-0.4,41.4-0.7,62.1c0,2.2-0.1,4.3-0.4,6.5c-1,6.3-4.9,9.7-11.2,9.8c-4,0.1-8,0-12,0c-7.3,0-11.8-4.4-12-11.7 c-0.2-6.7,0-13.4,0-20c0-16.1,0-32.3,0-48.7C699.8,401.1,691.7,401.1,682.7,401.1z M675.9,509.5c-1.7-5.6-3-10.6-4.6-15.4 c-1.4-4.1-3-8.1-4.5-12.2c-9.1-23.5-18.1-47.1-27.2-70.6c-2.7-7-8.1-10.3-15.5-10.4c-2,0-4,0.2-6,0c-2.7-0.3-4.1,0.7-5.1,3.4 c-12.9,33.1-25.9,66.2-39,99.6c3.1,2,5.7,5,8.6,5.4c6.1,0.8,12.3,0.4,18.5,0.1c1.4-0.1,3.5-1.7,4-3.1c2.2-5.5,4.1-11.1,5.6-16.8 c0.9-3.3,2.6-4.2,5.6-4.2c7.2,0.1,14.4,0.2,21.5,0c2.9-0.1,4.3,1,5.1,3.6c1.5,4.3,2.7,8.6,4.7,12.6c1.5,3,3.8,7.3,6.2,7.7 C660.6,510.1,667.7,509.5,675.9,509.5z M947.9,401.1c-28.6,0-56.5,0-84.1,0c-7.4,8.7-3.6,18.5-4.3,27.8c1.1,0.2,1.4,0.2,1.7,0.2 c6.7,0,13.4,0,20,0.1c7,0,7,0,6.3,6.8c-0.1,1.2-0.1,2.3,0,3.5c0.3,16.5,0.8,32.9,0.9,49.4c0,6.7-0.8,13.4-1.3,20.8 c11.2-1.4,22.5,3.5,31.5-7.5c0-23.6,0-48,0-72.9c6.1,0,11.6,0.7,17-0.2c4.1-0.7,8-3.3,11.8-5.2c0.4-0.2,0.5-1.5,0.5-2.3 C947.9,414.9,947.9,408.3,947.9,401.1z M817.2,480.5c0-27,0-53.1,0-79.4c-8.6,0-16.8,0-25.5,0c-0.2,3.4-0.5,6.6-0.5,9.9 c0,25.1,0,50.2,0,75.3c0,1.5,0,3-0.3,4.5c-2.2,9.8,3.7,18.4,13.6,18.6c18.2,0.4,36.4,0.1,54.6,0.1c3,0,8.7-5.3,8.7-7.9 c0-6.8,0-13.7,0-21C851.2,480.5,834.6,480.5,817.2,480.5z M292.6,479.1c0-26.8,0-53.1,0-79.5c-8.9,0-17,0-26,0 c0,14.6-0.1,29.1,0,43.6c0.2,16.7,0.4,33.4,0.9,50.1c0.3,9.3,6.1,14.3,15.5,14.4c17.2,0,34.4,0,51.6,0c4.7,0,8.4-3.2,8.4-7.6 c0.1-6.8,0-13.6,0-21C326.6,479.1,309.9,479.1,292.6,479.1z"></path> <path style="fill:#FFFFFF;" d="M605.7,179.5c-0.1,0.8,0.1,1.8-0.3,2.4c-0.7,1.3-1.7,2.5-2.6,3.7c1.9,1,3.7,2.6,5.6,2.8 c8.8,0.7,17.6,1,26.7,1.5c0.8-1.6,1.9-3.5,2.8-5.4c84.7,15.8,150.7,101,159.1,179.9c-6.2,0-12.3,0-18,0c1.8-3.1,3.9-6,5.4-9.3 c0.5-1.1-0.3-3.7-1.3-4.3c-1.3-0.8-3.6-0.7-5-0.1c-5.6,2.5-6.7,8.6-2.5,13.7c-8.1,0-15.9,0-23.8,0c-2-5.3-3.8-10.3-5.7-15.1 c-7.9-19.7-19.3-37.1-33.6-52.7c-1-1.1-0.7-3.4-1.6-4.7c-1.4-2.2-3-4.3-5-6c-14.7-12.5-31.6-20.7-50-26 c-40.9-11.7-80.2-5-118.6,10.4c-19.1,7.7-36.5,18.5-53.4,30.2c-14.8,10.3-27.8,22.6-40.2,35.5c-7.3,7.5-14,15.7-20.9,23.7 c-2.4,2.8-4.8,4.2-8.8,4.1c-23-0.4-45.9-0.3-68.9-0.3c-7.2,0-14.3,0.4-21.5,0.5c-1.5,0-3.1-0.5-5.8-0.9 c7.9-11.3,15.2-21.8,22.6-32.2c16-22.3,34.2-42.7,54.4-61.2c43.4-39.9,92.3-70.3,150.5-83.4c13.6-3.1,27.7-3.8,41.5-5.7 c1.6-0.2,3.2-0.7,4.8-1C596.3,179.5,601,179.5,605.7,179.5z M387.6,355c4.8,0,10.4-5.2,10.2-9.9c-0.2-3.8-2.5-6.1-6.4-6.2 c-4.7-0.2-10.1,5.1-10.2,9.8C381.2,352.8,383.5,355,387.6,355z M492.4,264.8c0-4.4-1.7-6.2-5.9-6.3c-4.9-0.1-10.2,5.1-9.8,10 c0.3,3.6,2.3,6.3,6.4,6.2C487.9,274.7,492.4,269.7,492.4,264.8z M619.7,218.8c-6.3,0-11.4,4-10.4,7.7c0.7,2.6,3.1,5.4,5.5,6.6 c2.5,1.2,8.5-6.1,7.9-9.9C622.4,221.3,620.4,219.7,619.7,218.8z M718.1,269.1c0.9,0.9,2.4,3.3,4.4,4c2.6,0.9,7.2-5.1,6.7-9 c-0.2-1.4-2.1-3.3-3.5-3.6C722.1,259.9,718.1,263.9,718.1,269.1z"></path> <path style="fill:#FFFFFF;" d="M118.3,537.5c17.7,0,35-0.5,52.3,0.2c13.7,0.6,22.7,11.2,22.8,24.9c0,1.7,0,3.3,0,5 c0,10.9-1.9,14.4-11.9,22c8.9,11.2,9.9,25.4,15.6,38.9c-7.4,0-14,0.1-20.6-0.1c-0.9,0-2-1.9-2.5-3.1c-2.1-6.1-4-12.3-6-18.5 c-2.5-7.6-5.1-9.4-13.1-9.4c-5.1,0-10.3,0-15.8,0c0,10.5,0,20.4,0,30.8c-7.1,0-13.8,0-21,0C118.3,598.2,118.3,568.1,118.3,537.5z M139.4,578.5c7.8,0,15.7,0,23.6,0c3.7,0,7.8-0.9,8.4-4.8c0.7-5-0.1-10.3-0.6-15.4c-0.1-0.7-2.1-1.7-3.3-1.7 c-9.3-0.1-18.5-0.1-28.1-0.1C139.4,563.8,139.4,570.8,139.4,578.5z"></path> <path style="fill:#FFFFFF;" d="M299,583.1c-0.3,6.2,0,12.4-0.9,18.5c-2.5,15.2-12.5,25.5-27.7,27.4c-9,1.1-18.4,1.1-27.4-0.1 c-15.5-2.1-26.3-13.7-27.5-29.3c-0.9-11.1-0.9-22.4-0.1-33.5c1.1-16,14.2-28.3,30.4-29.3c7.3-0.5,14.7-0.4,22,0 c17.1,1,30.2,15,30.9,32.4c0.2,4.7,0,9.3,0,14C298.8,583.1,298.9,583.1,299,583.1z M236.4,582.8 C236.4,582.8,236.5,582.8,236.4,582.8c0.1,5-0.4,10.1,0.2,15c0.8,7.9,5.7,12.2,13.6,12.7c3.8,0.2,7.7,0.2,11.5,0.1 c9.4-0.3,14.6-4.2,15.5-13.6c0.9-9.4,0.8-19,0.1-28.5c-0.6-8.5-6.5-12.9-15-12.9c-3.7,0-7.4,0-11,0c-8.4,0.1-13.9,4.8-14.7,13.2 C236,573.4,236.4,578.1,236.4,582.8z"></path> <path style="fill:#FFFFFF;" d="M358.6,750.9c4.4-4.1,8.7-8.3,13.2-12.3c6.1-5.3,12.4-10.3,18.5-15.5c5.8-4.9,11.3-10.1,17.2-14.9 c0.9-0.7,3.3-0.5,4.5,0.1c9.4,5.2,18.7,10.6,28.4,16.1c-4.7,5.6-0.5,11.3,3.9,15.3c7.2,6.6,13.8-0.3,21.6-3.6 c-1,2.9-1.5,4.7-2.3,6.4c-6.8,14-13.7,28-20.3,42.1c-1.5,3.3-3.8,2.7-6.1,2.3c-24.5-4.4-47.3-13.2-67.9-27.3 c-3.2-2.2-6.2-4.5-9.3-6.8C359.5,752.5,359.3,752,358.6,750.9z"></path> <path style="fill:#FFFFFF;" d="M511.4,537.7c23.5,0,46.5,0,69.8,0c0,6.2,0,12.1,0,18.5c-16.3,0-32.4,0-49,0c0,5.5,0,10.6,0,16.2 c14.8,0,29.8,0,45,0c0,6.5,0,12.4,0,18.9c-14.8,0-29.8,0-45.1,0c0,6.3,0,12.1,0,18.4c16.1,0,32.3,0,49,0c0,6.4,0,12.3,0,18.6 c-1.4,0.1-2.8,0.3-4.3,0.3c-17,0-34.1,0-51.1,0c-9.1,0-14.5-5-14.6-14c-0.1-24.7,0-49.4,0-74.2C511.1,539.6,511.3,538.8,511.4,537.7 z"></path> <path style="fill:#FFFFFF;" d="M832.5,591.1c0,6.9,0,12.9,0,19.1c16.3,0,32.4,0,49,0c0,5.8,0,11.8,0,18.6c-4.3-0.4-8.5-1.1-12.7-1.1 c-13.6,0.1-27.3,0.6-40.9,0.7c-11.3,0.1-15.7-4.5-15.7-15.8c0-23.2,0-46.4,0-69.6c0-1.6,0-3.2,0-5.2c23.3,0,46.1,0,69.4,0 c0,6,0,12,0,18.2c-16.5,0-32.8,0-49,0c0,6.1,0,11.5,0,17c15.2,0,30.1,0,45.4,0c0,5.9,0,11.8,0,18.1 C862.9,591.1,847.9,591.1,832.5,591.1z"></path> <path style="fill:#FFFFFF;" d="M400.3,537.6c0,7.6,0,14.9,0,22.2c0,13.2,0.2,26.4-0.2,39.6c-0.5,16.5-12.3,28.9-28.9,30 c-8.1,0.5-16.4,0.4-24.4-0.8c-14.7-2.3-24.5-13.1-24.9-28c-0.6-20.8-0.2-41.7-0.2-62.8c6.7,0,13.3,0,20.4,0c0,2.1,0,4,0,6 c0,16.9-0.2,33.7,0.1,50.6c0.1,3.8,0.9,8.1,2.8,11.4c4.8,8,28.2,7.1,32.2-1.3c1.7-3.6,2.1-8,2.2-12.1c0.2-16.4,0.1-32.7,0.1-49.1 c0-1.8,0-3.6,0-5.6C386.6,537.6,393.2,537.6,400.3,537.6z"></path> <path style="fill:#FFFFFF;" d="M613.3,694.4c3.5,14.4,6.9,28.3,10,42.2c0.3,1.3-1.3,3.6-2.6,4.5c-22.3,14.3-45.6,26.6-70.8,35 c-1.6,0.5-3.1,1.2-4.6,1.7c-0.1,0-0.3-0.1-1.2-0.6c0.6-5.8,1.1-12,1.8-18.2c1.2-10.6,2.5-21.2,3.6-31.8c0.3-2.7,0.9-4.2,3.7-5 C574.3,716,593.9,706.5,613.3,694.4z"></path> <path style="fill:#FFFFFF;" d="M655.9,628.2c-6.8,0-13.1,0-19.9,0c0-23.7,0-47.5,0-71.9c-9.6,0-18.6,0-27.9,0c0-6.4,0-12.2,0-18.3 c25,0,50,0,75.3,0c0,5.8,0,11.5,0,17.9c-8.9,0-18,0-27.5,0C655.9,580.4,655.9,604.1,655.9,628.2z"></path> <path style="fill:#FFFFFF;" d="M487.4,623.5c-0.9,1.5-1.8,3.1-2.9,5.1c-16.9,0-34.4,0.2-51.9-0.1c-5.9-0.1-11.2-6.2-11.2-12.7 c-0.2-26-0.1-52-0.1-78.4c7.3,0,14.4,0,21.8,0c0,23.8,0,47.6,0,71.8c15.8,0,31.3,0,47.3,0c0,3.6,0,6.9,0,10.2 C489.4,620.8,488.4,622.2,487.4,623.5z"></path> <path style="fill:#FFFFFF;" d="M759.7,627.6c-6.9,0-13,0-19.7,0c0-24.2,0-47.9,0-72.3c-8.5,0-16.3,0.1-24.1-0.1 c-1.3,0-3.5-1.9-3.6-3.1c-0.4-4.5-0.2-9-0.2-13.8c25,0,49.7,0,74.8,0c0,5.4,0,11.1,0,17.1c-8.8,0-17.8,0-27.1,0 C759.7,579.6,759.7,603.5,759.7,627.6z"></path> <path style="fill:#FFFFFF;" d="M692.7,620.5c9.4,8.8,18.3,17,28,26.1c-13.4,15.7-26.5,30.9-40.1,46.8c-7.5-11.8-14.3-22.6-21-33.4 c-1.2-1.9,3-7.2,5.7-7.5c1.6-0.1,3.3,0,5.4,0c-1.1-8.7,6.1-12.3,10.3-17.7C684.9,629.8,689.1,624.9,692.7,620.5z"></path> <path style="fill:#FFFFFF;" d="M487.4,623.5c1-1.4,2-2.7,3-4.1c6.7-0.5,9.1,1.1,7.8,7.8c-2.1,10.8-4.7,21.7-8.6,31.9 c-6.8,17.6-14.9,34.8-22.5,52.2c-0.5,1-0.8,2.1-1.4,3.6c16.7-1.9,33.3-5.2,48.4,4.8c1.2,0.8,2.1,2.1,3.1,3.1c-0.2,0.3-0.5,0.7-0.7,1 c-3.2-0.7-6.3-1.5-9.5-2.2c-13.2-2.9-26.5-3.4-39.7-0.1c-2.6,0.6-5.1,2.2-7.1,4c-4,3.4-7.4,7.8-15.3,5.5c4.4-2.9,8.1-5.3,11.8-7.8 c-0.7-0.7-1.3-1.3-2-2c-6.9,0.7-10.5,4.5-9.8,10.2c-4.7,0.1-5.6-1.3-3.7-5.3c2.6-5.5,7.4-7.6,12.8-9.5c1.8-0.6,3.8-2.2,4.6-3.8 c11.1-24.6,20.7-49.6,26.2-76.1C485.5,632.3,486.5,627.9,487.4,623.5z"></path> <path style="fill:#FFFFFF;" d="M314.5,618c6.2,16.7,18,27.6,34.1,35.2c-5.8,3.1-11.3,6-16.7,9c-8.7,4.7-17.5,9.5-26.2,14.2 c-2.5,1.3-3.9,1.6-4.9-1.9c-2-6.8-4.8-13.3-7.3-19.9c-1.2-3.1-0.8-5.3,2.5-7.4C306.7,640.6,312.1,630.4,314.5,618z"></path> <path style="fill:#FFFFFF;" d="M561.7,687c0.8,3,0.8,7,2.4,7.9c2.1,1.2,5.7,0.3,8.4-0.4c2.1-0.5,4-2,6-3.1c0.5,0.3,1,0.7,1.5,1 c-0.7,1.8-0.9,4.1-2.2,5.3c-4.4,4.2-9.8,6.2-15.9,6c-7.5-0.3-12-5.3-11.3-12.8c1-11.6,11.3-24.2,22.5-27.4c2-0.6,4.3-0.8,6.4-0.7 c6.8,0.6,9.7,6.2,6.3,12c-4.6,7.9-12.3,10.4-20.6,11.9C564.3,686.8,563.5,686.8,561.7,687z M577.3,669c-6.6-0.6-10.1,3-12.3,12.5 C573.3,681.1,578.2,676.4,577.3,669z"></path> <path style="fill:#FFFFFF;" d="M519.4,703.6c0-12.9-0.3-25.3,0.1-37.8c0.1-4.2,4.4-3.2,7.2-3.2c3.6,0,4.8,2.6,4.6,5.8 c-0.3,4.8-0.9,9.6-1.3,14.4c-0.2,2.4-0.4,4.9-0.6,8.2c7.5-5.7,10-13,11.3-20.9c0.3-1.9,0.1-4.6,1.2-5.6c1.7-1.6,4.7-2.9,6.8-2.6 c1.6,0.3,4,3.8,3.6,5.3c-0.9,4.1-2.4,8.4-4.9,11.7c-5.3,7-11.3,13.5-17.1,20.1C526,704,525.9,704,519.4,703.6z"></path> <path style="fill:#FFFFFF;" d="M459.1,682.2c-0.9,18.7-20.1,27.9-33.9,19.9C428,687.8,442.1,679.4,459.1,682.2z"></path> <path style="fill:#FFFFFF;" d="M459.1,678.5c-15.5,2-26.7-3.5-31.9-15.3c-1.6-3.7-0.7-5.1,3-6.4 C442.3,652.7,460.4,664.3,459.1,678.5z"></path> <path style="fill:#FFFFFF;" d="M500,697.2c2.1-0.9,3.3-1.4,4.9-2.1c0.9,5.3-3.2,6.2-6.2,7.5c-3.3,1.4-6.9,2-9.5-1.4 c-0.6-0.8-0.4-2.5,0-3.7c3.3-9.9,6.7-19.8,10.2-29.7c0.6-1.7,1.4-3.9,2.8-4.5c2-0.9,4.9-1.4,6.7-0.6c1.3,0.6,2.2,4.1,1.7,5.8 c-2.7,8.1-6,16-9.1,23.9C500.9,693.6,500.7,694.9,500,697.2z"></path> <path style="fill:#FFFFFF;" d="M515.3,650.4c-1.2,4.6-2.4,8-6.6,7.5c-1.2-0.1-3.3-3.7-2.8-4.6c1.4-2.5,3.8-4.4,5.8-6.5 C513.1,648.3,514.4,649.6,515.3,650.4z"></path> <path style="fill:#FFFFFF;" d="M383.5,423c8.1,0,15.8-0.2,23.5,0.1c6.6,0.2,12.1,5.5,12.2,11.6c0.1,10.5,0.2,21-0.1,31.5 c-0.2,8.5-4.1,12.4-12.6,12.9c-6.7,0.3-13.4,0.2-20-0.1c-1.1,0-3-2-3.1-3c-0.2-16.8-0.2-33.7-0.2-50.5 C383.1,424.8,383.3,424.2,383.5,423z"></path> <path style="fill:#FFFFFF;" d="M181,450.3c0.5-5.8,0.5-11.9,1.5-17.7c1.2-6.9,6.2-10.4,13.2-10.5c3.2,0,6.4,0.2,9.5,0 c11-0.7,16.3,4.4,17,15.4c0.6,9.9,0.2,20-0.7,29.9c-0.9,9.2-5.7,12.6-15.1,12.4c-3.5-0.1-7-0.1-10.5,0c-7.6,0.2-12.3-3.3-13.4-10.9 C181.5,462.8,181.4,456.6,181,450.3z"></path> <path style="fill:#FFFFFF;" d="M624.7,440.1c2.5,6.6,4.5,11.9,6.6,17.6c-4.6,0-8.5,0-13.1,0C620.3,452,622.3,446.7,624.7,440.1z"></path> </svg> 