<?xml version="1.0" encoding="UTF-8"?> <svg xmlns="http://www.w3.org/2000/svg" xmlns:xlink="http://www.w3.org/1999/xlink" version="1.1" id="Layer_1" x="0px" y="0px" viewBox="0 0 1000 1000" style="enable-background:new 0 0 1000 1000;" xml:space="preserve"> <path style="fill:#FFFFFF;" d="M889,507c-4.3,0.1-8.6,0.8-12.8,0.1c-13.2-2.4-26.4-5.3-39.5-8.4c-1.5-0.4-3.4-3-3.6-4.7 c-1.2-10.3-2-20.6-2.9-31.1c-6.5-0.6-13-1.1-20.7-1.8c1,11.9,1.9,23.2,3,34.5c0.7,7.5,1.8,14.9,2.4,22.4c0.4,4.4-1.4,6-6.4,6.3 c-14.8,0.8-29.6,2.7-44.4,4.1c-3.9,0.4-7.9,0.6-11.7,0.1c-1.7-0.3-3.9-2.6-4.3-4.3c-2-9.1-3.7-18.3-5.1-27.6 c-3.9-24.7-7.5-49.4-11.5-74.1c-3.2-20.2-7-40.3-10.1-60.6c-0.4-2.7,0.9-6.1,2.4-8.6c9.1-15.7,18.4-31.3,27.9-46.8 c1-1.7,4.5-3.5,6-2.9c19,7,37.9,14.4,57.7,22c-5.6,9.7-11,18.5-15.7,27.6c-1.5,2.9-2.3,6.8-2,10.1c1.9,20.7,4.1,41.3,6.3,62 c0.5,5.2,6.8,7.2,12.5,4c3.7-2.1,7.5-3.8,13.7-5c-1.1-14.9-1.9-29.8-3.3-44.7c-0.7-7.5-4.7-15.2,1.9-21.8c2-2,5-4.4,7.6-4.4 c17.5-0.4,35-0.2,52.4-0.2C889,404.5,889,455.8,889,507z"></path> <path style="fill:#FFFFFF;" d="M284,587.5c2.4,14,8.5,17,19.4,10.7c18.1-10.5,35.4-22.5,53.9-32.2c11.2-5.9,23.7-9.5,36-12.6 c3.7-1,9.6,1.9,12.7,4.9c3.7,3.4,5.6,8.7,8,13.3c1.4,2.8,2.1,5.9,3.1,8.9c8,23,11.1,23.9,32.7,13.8c20.4-9.5,41-18.9,62.1-26.4 c10.5-3.8,22.6-3.9,34-4.4c3.4-0.1,8.5,3.4,10.1,6.6c3.3,6.5,7.7,7.9,14.4,8.1c29,1.2,57.5-3.5,86-7.3c12.4-1.6,25-2.5,33.7,9.1 c20.3,27.1,44.4,51.2,59.9,82.2c9.1,18.3,23.6,33.8,35.4,50.8c6.4,9.2,12.8,18.6,18.1,28.4c6.9,12.6,7.6,25.9,1.9,39.3 c-3.1,7.3-8.4,11.3-16.3,11.2c-6.8-0.1-13.6-0.6-20.4-1.1c-11.1-0.8-16.1,3.6-14.5,14.6c1.8,12.4,4.9,24.6,7.2,36.9 c1.8,9.7,4.1,19.5,4.6,29.3c0.6,12.3-5.7,18.9-17.9,20.6c-4.6,0.6-9.4,1-14.1,0.6c-14.4-1.3-24.3-12-22.8-26.1 c1.1-11.1,4.1-22.1,6.5-33c4.4-19.7,4.1-38.6-5.5-57.2c-7.9-15.3-21.8-23.8-35.8-30.7c-39.2-19.2-72.2-47.2-107.9-71.4 c-14.1-9.6-30-18.1-46.3-22.5c-19.2-5.1-38.3,0.8-54.6,13.2c-17.3,13.2-34.1,27.1-52.1,39.2c-21.2,14.3-43.6,27-65.4,40.5 c-32.2,20-65.1,39.2-96.3,60.6c-19.7,13.5-39.3,17-61.6,10.2c-5.9-1.8-9.7-5.1-11.3-10.8c-12.2-43.2-8.8-84,19.8-120.3 c19.6-24.8,39.7-49.3,60-73.6C267.4,603.1,275.3,596.2,284,587.5z"></path> <path style="fill:#FFFFFF;" d="M580.2,450.5c-1.4,20.9-2.8,40.6-4.1,60.5c-17,4-33.3,8-49.8,11.6c-3.9,0.8-8.8,1.2-9-5.9 c-12,8.6-23.5,17-35.2,25.1c-3.8,2.7-8,4.8-12,7.2c-5.2,3-8,2-8.9-4.4c-1.8-12.6-3.9-25.2-6.2-37.7c-0.8-4.6,0-8.1,4.4-10.4 c6.4-3.5,7.4-8.9,6.2-15.8c-6.9-39.2-13.5-78.4-20.1-117.6c-1.3-7.8-0.1-14.3,6.4-20.8c18.3-18.5,33.5-39.6,46.1-62.5 c2.4-4.3,5.3-5.5,10-4.9c14.7,1.8,29.5,3.1,44.3,4.6c4.1,0.4,8.4,0.6,12.3,1.8c2,0.6,4.7,3.5,4.7,5.3c0.3,35.5,0.6,71-0.1,106.5 c-0.3,16.8-2.9,33.6-4.5,50.5c-0.4,4.7,1,7.6,6.5,7C574.1,450.3,576.9,450.5,580.2,450.5z M514.5,391.1c1.4-0.1,2.8-0.3,4.3-0.4 c-0.8-12.7-1.6-25.4-2.8-38.1c0-0.5-4.5-1.5-5-0.8c-1.8,2.4-4.4,5.7-3.9,8.1C509.1,370.3,512,380.7,514.5,391.1z M524.3,447.2 c-0.4,0-5.5-0.1-6-0.1c0,15.5,0,46.6,0,62.1c0.4,0,5.5,0,6,0C524.3,493.7,524.3,462.6,524.3,447.2z"></path> <path style="fill:#FFFFFF;" d="M655.5,334.4c-2.7,9.5-5.4,18.9-8.4,29.6c21.6,6.3,42.2,12.2,63.5,18.4c0.7,10.2,1,21.9,2.3,33.4 c2.1,19,4.7,38,7.4,56.9c1.8,12.2,3.2,23.7-7.2,33.8c-4.9,4.8-7.7,12.2-10.6,18.7c-3.3,7.4-8.9,9.5-16.3,9.7 c-23.3,0.5-46.6,1.2-69.9,1.9c-7,0.2-14.1,0.9-21.1,1.5c-4.7,0.4-6.6-1.3-6.6-6.1c-0.3-24.6-0.7-49.2-1.2-73.7 c-0.1-6.8,2.3-10.5,9.8-12c12.3-2.4,24.2-6.2,38.4-9.9c0,8.3,0,14.8,0,21.4c0,5.7-0.9,10.4,8.2,5.7c11.8-6.1,13.4-7.2,10.8-20.5 c-3-15.3-3.1-15.1-17.6-18c-14.2-2.8-28.3-6.2-42.6-9c-5.6-1.1-7.1-4.2-6.7-9.4c2.5-34.1,8.9-67.5,20.4-99.7 c2.8-7.9,7.7-15.2,11.5-22.4c21.5,0.9,42.1,1.6,62.7,2.7c10.4,0.6,20.7,1.9,31,3.4c1.5,0.2,3.9,4.1,3.5,5.7 c-3.1,11.4-6.6,22.8-10.5,34c-0.8,2.2-3.5,4.3-5.9,5.3c-11.9,5.3-23.9,10.3-35.8,15.3c-1.5,0.6-3.4,0.6-5.1,0.9 c-0.2-1.9-0.4-3.8-0.5-5.6c-0.1-3.7,0-7.5,0-11.2C657.9,334.9,656.7,334.6,655.5,334.4z"></path> <path style="fill:#FFFFFF;" d="M285.7,337.5c18.9,9.9,36.3,15.3,54.8,17.5c2.1,0.2,4.5,2.5,5.9,4.5c4.7,6.2,9,12.6,15,21.2 c5.1-9.4,9.2-17.6,14-25.3c1.7-2.7,4.8-5.5,7.8-6.3c11.2-3.1,22.6-5.5,34.9-8.4c8.8,40.9,17.5,81.4,26.1,121.7 c3.4-0.8,8-3.1,9.4-1.9c2.1,1.9,2.1,6.3,2.9,9.6c0.1,0.5,0,1,0,1.6c0.4,22.4,0.5,22.8-21.4,28.4c-14.2,3.6-28.7,5.6-43.1,8.5 c-5,1-7.2-0.6-7.5-5.8c-0.9-15.1-1.9-30.2-3.2-45.2c-0.5-5.9-2-11.7-3.2-18.9c-4.3,8.5-8,15.9-12.7,25.3 c-6.3-9.1-11.7-16.7-17.7-25.3c-2.8,12.4-5.5,23.5-7.6,34.8c-0.4,2.4,1.1,5.6,2.6,7.7c7,9.4,14.3,18.5,21.6,27.7 c3.4,4.3,2.4,7.2-2.1,10c-15.6,9.6-31.1,19.2-46.4,29.2c-4,2.6-5.6,1.1-7.3-2.1c-9.8-19-19.7-38-29.4-57.1c-1-2-1.4-4.5-1.4-6.8 c0.7-28.1,1.5-56.3,2.4-84.4c0.4-12,0.7-23.9,1.7-35.8C282.5,354.2,284.2,346.7,285.7,337.5z"></path> <path style="fill:#FFFFFF;" d="M241.4,317.1c0.8,16.5,1.8,31.8,2,47.2c0,2.2-3,5.4-5.5,6.6c-9.8,4.8-19.9,9.1-31.5,14.2 c-1.8-6.5-3.4-12.6-5.1-18.7c-0.5,0.1-1,0.1-1.6,0.2c-1.5,7.7-3.2,15.3-4.3,23.1c-0.2,1.1,1.9,3.3,3.4,3.8 c14.8,5.1,29.6,10.2,44.6,14.7c7.9,2.4,12.9,5.7,14.7,14.7c4.8,23.5,10.7,46.8,16.5,70.1c1.2,5,0.9,8.8-2.9,12.7 c-5.7,5.8-10.7,12.1-16.2,18.1c-6.4,7-14.8,2.9-22.3,3.3c-6.2,0.3-12.5-1-18.7-1.2c-24.8-1-49.6-1.9-74.4-3c-6-0.3-9.8-1.9-9.6-9.7 c0.5-15.7-0.2-31.4-0.3-47c0-1.8,0-3.7,0.2-5.5c1.2-11.6,1.6-11.8,13.2-11.5c12.8,0.4,25.7,0.7,38.5,0.6c5.1,0,7.1,1.9,6.8,7 c-0.3,4.9-0.1,9.8-0.1,15.4c5.8-0.6,10.7-1,15.7-1.8c1-0.2,2-1.6,2.8-2.6c5.6-6.8-0.2-23.1-8.7-25.2c-19.9-4.8-39.7-9.8-59.7-14.5 c-7-1.6-9.6-4.4-8.3-12.4c4.8-29.2,8.7-58.6,12.9-87.9c0.2-1.2,0.9-2.4,1.3-3.6c4.7-16.6,6-17.2,22.5-15.1 c14.4,1.9,28.9,3.2,43.4,4.7C220.6,315,230.4,316,241.4,317.1z"></path> <path style="fill:#FFFFFF;" d="M611.6,241.4c8.4-6.8,16.6-13.9,25.3-20.3c12.2-9,26.4-16,36.8-26.6c10.2-10.4,21.4-11.7,34.2-12.3 c46-2.2,91.7-0.1,137.2,7.2c15,2.4,28.4,7.5,33,23.6c1.6,5.6,2.1,13.1-0.4,18c-8.1,16.4-17.5,32.1-33,43.3 c-7.6,5.5-14.9,7.2-23.4,3.2c-5.7-2.7-11.6-5-17-8.2c-18.8-11-38.6-14.4-59.6-8.1c-7.6,2.3-13.6,2-19.4-5c-3.2-3.8-9.8-6.3-15-6.6 c-15.4-1-30.9-0.4-46.4-0.7c-12.8-0.3-25.7-0.7-38.5-1.5c-4.4-0.3-8.8-2.1-13.1-3.2C612.1,243.2,611.9,242.3,611.6,241.4z"></path> <path style="fill:#FFFFFF;" d="M172.7,203.3c21.1,0.5,41.7,2,61.5,8.8c7.3,2.5,14.2,6.6,21.2,10c13.9,6.7,27.9,13.2,41.6,20.4 c9.7,5.1,18.8,11.3,28.1,17c8.4,5.2,17,10.3,25.2,15.9c4.3,2.9,8.4,6.3,12,10.1c5.8,6,4.5,12.3-3.6,14.1c-7.7,1.7-16.1,1.8-24,0.9 c-20.3-2.5-40.4-6.2-60.6-9.1c-8.1-1.2-14.8-4-20.6-10.1c-2.7-2.9-7.4-5.3-11.4-5.5c-21.2-1.3-42.4-2-63.6-2.6 c-10.7-0.3-20.8,2.1-29.9,8.2c-2.2,1.4-4.6,2.6-7,3.6c-12.4,5.3-14.2,3.6-22.9-6.8c-8.1-9.7-18.6-17.3-28-25.9 c-4.9-4.5-12.2-7.3-12-15.4c0.1-3.4,0.8-8.1,3-9.7c6.8-5,14.1-11.2,22.1-12.8C126.6,209.5,149.7,206.8,172.7,203.3z"></path> </svg> 