<?xml version="1.0" encoding="UTF-8"?> <!-- Generator: Adobe Illustrator 26.0.0, SVG Export Plug-In . SVG Version: 6.00 Build 0) --> <svg xmlns="http://www.w3.org/2000/svg" xmlns:xlink="http://www.w3.org/1999/xlink" version="1.1" id="Ñëîé_1" x="0px" y="0px" viewBox="0 0 5000 5000" style="enable-background:new 0 0 5000 5000;" xml:space="preserve"> <g> <path style="fill:#FFFFFF;" d="M3151.7,814.1H1908.6c-273.6,0-496.3,222.6-496.3,496.3v2632.7c0,273.7,222.6,496.3,496.3,496.3 h1243.1c273.6,0,496.3-222.6,496.3-496.3V1310.4C3648,1036.7,3425.4,814.1,3151.7,814.1z M2530.2,959.5c32.2,0,58.3,26.1,58.3,58.3 c0,32.2-26.1,58.3-58.3,58.3c-32.2,0-58.3-26.1-58.3-58.3C2471.8,985.6,2497.9,959.5,2530.2,959.5z M3453.6,3758.4 c0,166.5-135.4,301.9-301.9,301.9H1908.6c-166.5,0-301.9-135.4-301.9-301.9V1456.2c0-166.5,135.4-301.9,301.9-301.9h1243.1 c166.5,0,301.9,135.4,301.9,301.9V3758.4z"></path> </g> <g> <g> <circle style="fill:#FFFFFF;" cx="2063.6" cy="3792.9" r="106.9"></circle> </g> <g> <circle style="fill:#FFFFFF;" cx="2374.6" cy="3792.9" r="106.9"></circle> </g> <g> <circle style="fill:#FFFFFF;" cx="2532.4" cy="3166" r="97.2"></circle> </g> <g> <circle style="fill:#FFFFFF;" cx="2685.7" cy="3792.9" r="106.9"></circle> </g> <g> <circle style="fill:#FFFFFF;" cx="2996.7" cy="3792.9" r="106.9"></circle> </g> </g> <g> <path style="fill:#FFFFFF;" d="M2883.1,2757.2h-555.9v-116.4c0-107.9,82.4-200.5,190.1-207.2c91-5.7,170.2,49,201.5,127.8 c14.7,36.9,51.5,60.3,91.2,60.3c67.7,0,114.8-68.1,90-131.1c-58-146.9-201.1-251.3-368.2-251.9c-219.4-0.8-398.9,185.7-398.9,405.1 v118.1c-95.2,20.5-166.8,105.3-166.8,206.6v384.9c0,116.5,94.8,211.3,211.3,211.3h705.8c116.5,0,211.3-94.8,211.3-211.3v-384.9 C3094.4,2852,2999.6,2757.2,2883.1,2757.2z M2900,3353.4c0,9.3-7.6,16.9-16.9,16.9h-705.8c-9.3,0-16.9-7.6-16.9-16.9v-384.9 c0-9.3,7.6-16.9,16.9-16.9h705.8c9.3,0,16.9,7.6,16.9,16.9V3353.4z"></path> </g> <g> <g> <path style="fill:#FFFFFF;" d="M1799.1,658.1c-53.7,0-97.2-43.5-97.2-97.2V249.9c0-53.7,43.5-97.2,97.2-97.2 c53.7,0,97.2,43.5,97.2,97.2v311.1C1896.3,614.6,1852.7,658.1,1799.1,658.1z"></path> </g> <g> <path style="fill:#FFFFFF;" d="M1313.1,1144.1c0,53.7-43.5,97.2-97.2,97.2H904.8c-53.7,0-97.2-43.5-97.2-97.2 c0-53.7,43.5-97.2,97.2-97.2h311.1C1269.5,1046.9,1313.1,1090.5,1313.1,1144.1z"></path> </g> <g> <path style="fill:#FFFFFF;" d="M1488.7,833.8c-38,38-99.5,38-137.5,0l-219.9-219.9c-38-38-38-99.5,0-137.5c38-38,99.5-38,137.5,0 l219.9,219.9C1526.7,734.3,1526.7,795.8,1488.7,833.8z"></path> </g> </g> <g> <g> <path style="fill:#FFFFFF;" d="M2904.9,2014.8h-736.8c-63.8,0-115.8-51.9-115.8-115.8v-412.5c0-32.5,13.7-63.6,37.7-85.4 c21.4-19.6,49.1-30.4,78.1-30.4h533.8v63.2h-533.8c-13.2,0-25.8,4.9-35.5,13.8c-11.1,10.1-17.1,23.9-17.1,38.8V1899 c0,29,23.6,52.6,52.6,52.6h736.8c29,0,52.6-23.6,52.6-52.6v-160.3h63.2V1899C3020.7,1962.8,2968.7,2014.8,2904.9,2014.8z"></path> <path style="fill:#FFFFFF;" d="M2536.5,1775.5c-25.9,0-51.7-8.5-72.8-25.6l-372.3-301l39.7-49.1l372.3,301 c19.2,15.5,47,15.5,66.2,0l130.5-105.5l39.7,49.1L2609.2,1750C2588.2,1767,2562.3,1775.5,2536.5,1775.5z"></path> <rect x="2077.3" y="1845.3" transform="matrix(0.7354 -0.6777 0.6777 0.7354 -689.936 1987.0381)" style="fill:#FFFFFF;" width="243.8" height="63.2"></rect> <rect x="2842.2" y="1755" transform="matrix(0.6777 -0.7354 0.7354 0.6777 -453.9109 2718.2024)" style="fill:#FFFFFF;" width="63.2" height="243.8"></rect> </g> <g> <path style="fill:#FFFFFF;" d="M3085.1,1344.2c-81.9-81.9-214.6-81.9-296.4,0c-81.9,81.9-81.9,214.6,0,296.4 c81.9,81.9,214.6,81.9,296.4,0C3167,1558.7,3167,1426,3085.1,1344.2z M3074.7,1463.5L2969,1569.2l-28.6,28.6c-16,16-41.9,16-58,0 l-59-59c-15.9-15.9-15.9-41.7,0-57.6c15.9-15.8,41.6-15.8,57.6,0.1l30.4,30.4l105.7-105.7c15.9-15.9,41.7-15.9,57.6,0 C3090.6,1421.8,3090.6,1447.6,3074.7,1463.5z"></path> </g> </g> </svg> 