<?xml version="1.0" encoding="UTF-8"?> <!-- Generator: Adobe Illustrator 25.3.1, SVG Export Plug-In . SVG Version: 6.00 Build 0) --> <svg xmlns="http://www.w3.org/2000/svg" xmlns:xlink="http://www.w3.org/1999/xlink" version="1.1" id="Layer_1" x="0px" y="0px" viewBox="0 0 1000 1000" style="enable-background:new 0 0 1000 1000;" xml:space="preserve"> <path style="fill:#FFFFFF;" d="M949,469.7c-1.1,0.9-2.4,1.7-3.2,2.8c-3.8,6.1-7.1,12.5-11.2,18.3c-5.8,8.2-13.5,14.3-22.6,18.8 c-9.4,4.7-19.4,6-29.6,7.3c-5,0.6-7.7,3.4-7.8,8.4c-0.1,4.3-0.2,8.5-0.2,12.8c-0.1,5,2.6,8,6.8,10.2c11.6,5.8,22,13.1,29.1,24.4 c5.2,8.3,9.4,17,11,26.7c1.2,7.2,2.7,14.3,3.8,21.5c0.4,2.8,0.1,5.6-0.2,8.4c-0.1,0.8-1.1,1.6-1.7,2.3c-0.7-0.6-1.8-1.1-2.2-1.8 c-2.2-4.5-4.3-9-6.3-13.6c-3.9-9.2-9.2-17.6-15.6-25.1c-6.8-8.1-14.1-15.8-23.5-20.9c-7.8-4.2-16.1-7.4-25.1-8.5 c-5.4-0.6-7.3-3.3-6.7-8.7c2.1-16.5,1-32.9-1.6-49.2c-1.2-7.5-2.9-15.1-5.2-22.4c-1.9-6.2-4.8-12.1-7.5-18 c-2.6-5.7-5.4-11.4-8.5-16.9c-8-14.1-17.4-27-31.1-36.2c-6.3-4.2-12.6-8.3-19.3-11.8c-5.7-2.9-11.8-4.9-17.8-7.1 c-20.4-7.8-41.6-9.6-63.2-7.4c-9.8,1-19.6,3.3-29.3,5.4c-5.6,1.2-11.1,3.1-16.5,5.2c-7.4,2.9-14.7,5.9-21.8,9.5 c-7.9,3.9-15.8,8-23.3,12.8c-6.3,4.1-12,9.2-17.9,13.8c-1.7,1.3-3.5,2.6-5.4,3.7c-0.8,0.5-2,0.3-3.1,0.5c0.1-1-0.2-2.2,0.2-2.9 c2.4-3.7,4.7-7.5,7.5-10.9c5.2-6.3,10.3-12.9,16.2-18.5c7.9-7.6,16.5-14.4,26.3-19.5c4.6-2.4,9.4-4.3,14.2-6.4 c6.2-2.6,12.3-5.2,18.6-7.7c3-1.2,6.2-1.9,9.2-2.8c12.9-3.8,26.2-5,39.6-5c8.3,0,16.7,0.4,25,1.3c6.1,0.7,12.1,2.3,18,3.9 c8.2,2.2,16.4,4.5,24.3,7.5c6.6,2.5,12.7,6.2,19.3,8.8c7.2,2.8,13.7,6.6,19.3,12c1.2,1.1,2.9,1.8,4.5,2.3c2.8,0.9,5.9-1.4,6.4-4.8 c0.7-4.7,1.2-9.4,2-14c0.9-5.1-2-8.5-5.5-11.1c-5.5-4.2-11.3-8.3-17.4-11.7c-5.5-3.1-11.5-5.1-17.3-7.6c-2.3-1-4.7-2-7.2-2.7 c-23.8-7-48.1-9.5-72.8-6.3c-12.7,1.7-25.4,4.3-38.1,6.4c-1,0.2-2.1-0.3-3.1-0.4c0.4-1,0.6-2.3,1.4-2.8c1.6-1.3,3.4-2.4,5.3-3.2 c12.3-4.7,24.6-8.9,37.3-12.4c16.6-4.5,33.3-7.4,50.4-7.2c12.3,0.1,24.4,2.5,36.1,5.8c10.5,3,20.4,7.9,29.5,14.2 c3.8,2.6,7.5,5.3,11.4,7.8c3.9,2.5,6,2.3,9.5-0.5c4.2-3.5,8.3-7,12.5-10.6c4.2-3.7,4.5-6.7-1.7-9.9c-10.7-5.6-22.3-8.6-34.2-10.8 c-9-1.7-18-3.7-27-5.4c-3.3-0.6-2.7-2.8-2.3-4.9c10.4,0,20.8,0,31.3,0c1,2.7,3.5,2,5.3,2.1c14.8,1.4,29.2,4.6,43.5,8.8 c11,3.3,20.8,8.7,30.1,14.8c10.9,7.1,19.7,16.6,26.5,28c6.7,11.3,10.7,23.5,12.6,36.2c2.8,19.2,2.1,38.2-8.1,55.6 c-5.2,8.8-12.2,15.5-23.5,15.4c-2.7,0-5.3-0.2-7.9-0.3c-11.7-0.6-19.3-7.1-23.5-17.5c-3.5-8.8-2.3-17.7,1.6-26.2 c0.4-0.9,1.9-1.7,2.8-1.7c0.8,0,1.9,1.2,2.2,2.1c0.7,2,1.1,4.2,1.5,6.3c0.7,3.8,2.4,7.1,5.5,9.3c2.2,1.6,4.7,3.1,7.2,3.7 c3.4,0.8,6.2-1.6,8.5-3.7c6.3-5.7,8.9-13.2,9.4-21.5c0.6-10.1-0.9-20-4-29.7c-3.1-9.7-8.2-17.8-17.4-23.1c-8.3-4.7-16.1-5.1-24.5,0 c-9.8,5.9-16,14.5-19.9,24.6c-2.7,7.2-3.5,15.2-4.6,23c-1.2,8.4,0.5,16.6,2.4,24.8c1.9,8.3,4,16.6,7,24.5c2.2,5.8,5.9,11.1,8.9,16.6 c5,8.9,12.1,15.5,21.8,18.9c3.2,1.1,6.9,1.4,10.3,0.9c8.4-1.2,16.3-4.5,23-9.8c7.8-6.1,15-12.9,22.4-19.5c2.4-2.2,4.6-4.5,8.3-4.1 C949,465.6,949,467.7,949,469.7z"></path> <path style="fill:#FFFFFF;" d="M651.5,460.1c6.7,0,13.5,0.1,20.2,0c3.2,0,5.8,0.8,7.3,3.8c3.3,6.7,6.7,13.3,9.9,20 c3.1,6.3,6.1,12.6,9,18.9c4.1,8.8,8.3,17.6,12.3,26.4c2,4.4,3.4,9,5.5,13.3c1.9,3.7,4.3,7.1,6.8,10.4c1.7,2.2,4.6,1.7,5.8-0.8 c0.9-1.8,1.7-3.9,1.7-5.9c-0.2-5.8-1-11.7-1.3-17.5c-0.8-16.6-1.3-33.1-2-49.7c-0.2-4.2-0.7-8.3-1.1-12.4c-0.4-3.8,1.1-5.9,4.9-6.6 c0.9-0.2,1.9-0.2,2.8-0.2c11.4,0,22.7,0.1,34.1,0.1c1.1,0,2.3-0.1,3.4,0c4.1,0.2,5.6,1.7,5.6,5.9c0,7.1-0.1,14.2-0.2,21.3 c0,3-1.6,5.1-4.6,5.1c-5.5,0-7.6,3.9-7.6,8.9c0,16.9,0,33.7-0.1,50.6c-0.1,11.2-0.3,22.3-0.6,33.5c-0.1,5.6,2.4,8.7,7.9,9.5 c3,0.4,4.4,2.1,4.4,5.2c-0.1,7.2-0.2,14.4-0.3,21.6c-0.1,4-1.9,5.6-6.2,5.6c-11.3,0.1-22.6,0-33.8,0c-1.1,0-2.3-0.1-3.4,0.1 c-6.6,1.2-8.8-1-12.4-7.8c-3-5.8-5.6-11.8-8.5-17.6c-2.4-4.8-5.1-9.5-7.4-14.3c-2.9-5.9-5.6-12-8.5-17.9 c-3.7-7.7-7.4-15.5-11.1-23.2c-1.6-3.4-3.2-6.8-4.8-10.2c-0.8-1.7-1.9-3-4.1-2.8c-2.2,0.2-3.3,1.8-3.5,3.6c-0.5,4.5-1,9-0.9,13.5 c0.3,10.6,1,21.2,1.6,31.8c0.7,12,1.2,24,2.2,36c0.7,7.7-1.5,10.3-9.7,10c-11-0.3-22-0.1-33,0c-5.6,0.1-7.6-1.9-7.3-7.4 c0.3-6.6,0.6-13.2,0.8-19.9c0.1-3.6,1.4-5.7,4.4-5.8c4.6-0.3,7.6-4.4,7.6-9.2c-0.1-21.1,0.1-42.2,0.1-63.4c0-7.5,0-15,0-22.4 c0-5.8-1.9-8-7.6-9.1c-3.6-0.7-4.4-1.8-4.4-5.3c-0.1-6.1-0.3-12.3-0.7-18.4c-0.4-5.1,1.3-7,6.4-7c6.7,0.1,13.5,0,20.2,0 C651.5,460.2,651.5,460.2,651.5,460.1z"></path> <path style="fill:#FFFFFF;" d="M832,782.8c-7.5,1.9-15.2-1.9-23.1-4.6c-6.4-2.2-12.9-4.3-19.1-7.1c-5.8-2.6-11.3-5.7-16.7-9 c-6.6-3.9-13.1-7.9-19.3-12.3c-4.6-3.2-8.8-6.8-13-10.4c-0.7-0.6-0.8-1.9-1.2-2.8c1.2-0.2,2.6-1,3.5-0.6c5.3,2.1,10.3,4.6,15.6,6.8 c8.7,3.6,17.5,7,26.3,10.4c4.1,1.6,8.3,3,12.5,4.5c0.4,0.2,0.9,0.3,1.3,0.5c2.6,0.7,5.3,1.5,7.3-1.1c2.1-2.6,0.9-5.2-0.6-7.6 c-6-9.8-9.9-20.3-10.3-31.9c-0.2-5.1-3.8-7.9-9.2-7.9c-10.3,0-20.7,0.5-30.9-0.2c-9.8-0.7-19.6-2-29.2-4.3 c-9.3-2.2-18.9-4.2-27.3-9.2c-0.7-0.4-1.8-0.4-2.3-1c-0.9-0.8-1.5-1.9-2.3-2.9c1.1-0.6,2.2-1.7,3.2-1.6c3.8,0.2,7.5,0.7,11.3,1.2 c10.9,1.3,21.8,3,32.7,3.7c15,0.9,29.9,0.4,44.8-2c2.6-0.4,5.3-0.6,7.9-0.9c6.1-0.6,11.5-3.2,17.2-5.4c10.9-4.4,22.3-4.8,32.7,1.1 c10.3,5.9,16.9,15.9,14.9,28.5c-0.4,2.6-1.3,4.8-3.8,5.9c-3.7,1.8-7.4,3.5-11.3,5c-0.8,0.3-2.6-0.4-3-1.2c-0.4-0.7,0.1-2.5,0.8-3.2 c6.9-6.6,3.1-13.1-2.7-16.9c-2.2-1.4-4.7-2.4-7.3-3c-4.8-1.2-9.3,1.4-11.9,5.7c-4.3,7.2-3.8,14.1-1,21.7c2.1,5.8,4.8,11,8.9,15.6 c9.1,10.1,22.6,10.5,32,0.7c10.5-10.8,14.4-24,13.7-38.9c-0.7-14-6.9-25.4-16.1-35.6c-7.4-8.3-16.4-14.4-25.6-20.4 c-3.2-2-6.8-1.8-10.1-0.1c-8,4.2-16,8.4-24.9,10.8c-9.4,2.6-18.6,6.5-28.1,8.6c-27,6.1-54.2,9.4-81.9,3.2c-8.9-2-17.8-3.8-26.2-7.2 c-7.7-3.1-16-5.3-22.7-10.8c-0.6-0.5-1.6-1.7-1.4-2c0.4-0.8,1.4-1.6,2.2-1.7c1.6-0.1,3.2,0,4.8,0.4c10.8,2.8,21.7,4.1,32.8,5.1 c19.5,1.7,39,1.4,58.4-1.1c4.7-0.6,9.4-2.1,14-3.5c7.4-2.2,15-4.1,22-7.4c8.7-4.1,17.8-7.2,25.6-13.2c8.4-6.4,15.8-13.8,22.1-22.2 c3.8-5.1,7.5-10.2,11.2-15.3c2.1-2.8,4.8-4.4,8.3-3.7c3.9,0.8,7.8,1.5,11.6,2.6c5.8,1.7,11.6,3.5,17.2,5.5c14.8,5.3,26,15.3,34.6,28 c8.3,12.3,12.4,26.2,13.3,41c0,0.7,0.2,1.4-0.1,2c-0.4,0.9-1.1,1.6-1.7,2.4c-0.8-0.6-1.8-1-2.2-1.8c-2.3-4.8-4.5-9.6-6.7-14.4 c-3-6.6-6.6-12.8-11.7-18c-4.6-4.7-9-9.7-14.1-13.9c-5.2-4.2-11.1-7.5-17.4-9.8c-3.2-1.1-5.9-0.5-8.2,2c-2.6,2.8-5.2,5.5-6,9.4 c-0.8,3.8,0.6,6.9,4,8.8c11.1,6.1,21.9,12.8,30.4,22.4c5.3,5.9,9.4,12.7,12.9,19.9c6.8,13.9,6.3,28.4,2.8,42.7 c-2.2,8.7-6.5,16.9-9.4,25.5c-3.3,9.9-9.5,17.6-17.4,24c-5,4-10.6,7.1-16.8,9.1c-2.1,0.7-4,2-6.1,2.8c-0.7,0.3-1.6,0.4-2.4,0.5 C840.6,782.8,836.9,782.8,832,782.8z"></path> <path style="fill:#FFFFFF;" d="M608.6,544.2c0,13.4,0.3,26.9-0.1,40.3c-0.2,7.8-0.7,15.8-2.5,23.4c-1.7,7.6-7.1,13-14.4,16.4 c-7.1,3.4-14.5,3.2-22,3.2c-14.7,0.1-29.4,0.2-44-0.4c-10.8-0.5-20-4.8-25.6-14.6c-1.2-2-1.9-4.6-2-7c-0.4-9.4-0.5-18.9-0.7-28.3 c-0.3-15-0.6-29.9-0.8-44.9c-0.2-12.1-0.6-24.2-0.3-36.3c0.2-6.6,1.3-13.2,2.6-19.6c0.8-4.1,4.1-7,7.3-9.5 c5.8-4.4,12.4-6.4,19.8-6.3c18.6,0.4,37.1-0.1,55.7,0.6c9.9,0.3,18.2,5,23.3,13.9c1.2,2.1,1.6,4.8,1.9,7.3 c2.5,17.2,1.3,34.6,1.6,51.9c0.1,3.3,0,6.6,0,9.9C608.5,544.2,608.5,544.2,608.6,544.2z M536.3,543.1 C536.3,543.1,536.3,543.1,536.3,543.1c-0.1,14.3-0.1,28.6-0.1,42.9c0,5.8,4,9.8,9.8,10c4.2,0.1,8.3,0.1,12.5,0 c6-0.1,10-4.4,9.9-10.4c0-2.6-0.3-5.3-0.3-7.9c0-19.7-0.1-39.4-0.1-59.1c0-6.1,0.4-12.1,0.3-18.2c0-4-1.4-8.4-5.6-8.8 c-7-0.7-14.3-0.7-21.3,0.2c-4.2,0.6-5.2,5-5.2,9.1C536.3,514.8,536.3,528.9,536.3,543.1z"></path> <path style="fill:#FFFFFF;" d="M412.2,627.5c-11.8,0.4-23.7,0.7-35.5,1.1c-1.3,0-2.7,0.1-4,0.1c-3.5-0.2-5.7-2.2-5.6-5.7 c0.1-7.6,0.3-15.1,0.4-22.7c0.1-5.2-0.1-10.4-0.1-15.6c-0.1-5.6,1.8-7.6,7.5-7.4c7.3,0.3,14.6,0.7,21.9,1c2.4,0.1,4.7,0,7.1,0 c3.4,0.1,5.2,2,5.1,5.4c0,0.3-0.1,0.6-0.1,0.8c-0.5,7.6,2.7,11.1,10.3,11.3c4.1,0.1,8.1,0.2,12.2,0.2c5.7,0,9.2-3.5,9.3-9.2 c0.1-7.4,0-14.8,0-22.2c0-5.9-3.1-9-8.9-8.9c-11.2,0.1-22.4,0.1-33.5,0.5c-7.9,0.3-15.1-2.2-21.5-6c-5.7-3.4-9-9.2-9.3-16 c-0.3-6.4,0.1-12.9,0.1-19.3c0-9.4-0.6-18.8,0-28.1c0.6-10.3,5.9-18,15.4-22.6c6.2-3,12.6-3.1,19.2-3.2c21.2-0.3,42.5-0.4,63.7-0.5 c2.6,0,5.3-0.1,7.9,0.3c2.7,0.4,3.9,2.8,3.8,5.5c-0.6,11.2-1.1,22.5-1.5,33.7c-0.2,5.1-1.7,6.7-6.9,6.6c-7.8-0.1-15.5-0.2-23.3-0.2 c-4.1,0-5.6-1.5-5.7-5.6c-0.2-7.4-2.8-9.9-10.1-9.8c-4.1,0-8.1-0.1-12.2-0.1c-6.5,0.1-9.7,3.4-9.8,9.9c0,6.1,0.1,12.1,0.1,18.2 c0.1,5.2,2.2,7.9,7.3,8.9c1.7,0.3,3.6,0.3,5.4,0.3c9.4-0.1,18.8-0.3,28.1-0.3c7.8,0,15.1,1.9,21.4,6.4c5.4,3.9,9.1,9.3,9.1,16.5 c0.1,10.2,0.2,20.4,0.3,30.7c0.1,6.3,0.4,12.7,0.5,19c0.1,5.7-1.2,11.2-4.9,15.7c-2.9,3.6-6.3,6.4-10.7,8.5 c-7.1,3.3-14.4,3.4-21.9,3.3c-10.1-0.1-20.3,0-30.4,0C412.3,627.6,412.2,627.5,412.2,627.5z"></path> <path style="fill:#FFFFFF;" d="M149.7,461.4c21.8,0,43.6,0,65.4,0c3.5,0,5.4,1.8,5.4,5c0.1,10.7,0.1,21.4,0.4,32.1 c0.1,5.5,0.6,11,0.8,16.4c0.1,3.2-1.7,5.3-4.9,5.3c-6.7,0-13.5-0.2-20.2-0.5c-3.2-0.1-4.8-2.3-4.7-5.6c0.3-5,0.6-10,0.7-15 c0.1-5.6-2.7-8.4-8.3-8.7c-1.6-0.1-3.2,0-4.8,0c-6.3,0-9.5,3.4-9.3,9.8c0.5,13.5,1.1,27.1,1.3,40.6c0.2,15,0.1,29.9,0.1,44.9 c0,5.2,2,7.7,7.2,8.3c3.6,0.5,4.7,1.4,4.8,5.1c0.3,7.9,0.4,15.9,0.4,23.8c0,4.4-2.1,6-6.5,5.9c-17.7-0.1-35.4-0.2-53.1,0 c-4.9,0.1-8.5-2.6-8.1-7.9c0.5-6.4,0.3-12.9,0.5-19.3c0.1-4.5,1.2-6.7,5.9-8.1c6.5-1.9,6.9-3.1,6.9-9.7c0.3-26.6,0.7-53.2,1.1-79.8 c0-1.7,0.2-3.4,0.1-5.1c-0.2-5.2-3-8.2-8.2-8.3c-3.2-0.1-6.6,0.2-9.7,1c-4.1,1.1-5.4,4.6-5.3,8.4c0.1,4.1,0.6,8.1,1.1,12.2 c0.6,5-1.3,7.4-6.2,7.6c-6.4,0.2-12.9,0.5-19.3,0.6c-4.8,0.1-6.5-2.3-6.4-7c0.4-15.2,0.7-30.5,0.7-45.7c0-6,1.2-7.7,7.3-7.5 c15.2,0.4,30.3,0.8,45.5,1.1c6.4,0.1,12.9,0,19.3,0C149.7,461.5,149.7,461.4,149.7,461.4z"></path> <path style="fill:#FFFFFF;" d="M297.8,628.8c-8.2,0-16.5,0-24.7,0c-1.9,0-3.9,0.2-5.6-0.4c-2.7-1.1-4.1-3.4-4-6.5 c0.3-7.1,0.3-14.2,0.5-21.3c0.1-3.6,1.7-5.4,5.3-6.3c0.8-0.2,1.7-0.4,2.5-0.6c4.8-1.5,6.2-3.4,6.1-8.5c0-6.5-0.3-13.1,0.2-19.6 c0.5-5.9-2.3-10.4-4.7-15.2c-4.2-8.3-8.2-16.6-12.2-24.9c-2.6-5.3-5.2-10.7-7.8-16c-2.1-4.2-4.1-8.5-6.4-12.6 c-1.5-2.6-3.9-4.2-7.2-4.3c-3.4-0.1-4.8-1.7-4.8-5.2c0-7.2,0-14.4,0.1-21.6c0-3.1,1.7-4.6,4.8-4.6c10.6,0,21.2,0,31.8-0.1 c2.8,0,4.9,1,6.2,3.2c1.4,2.3,2.5,4.8,3.5,7.4c1.2,3.1,2.2,6.2,3.1,9.4c1.1,3.7,1.9,7.5,2.9,11.2c1.8,6.4,3.5,12.8,5.6,19 c0.5,1.6,2.9,3.6,4.2,3.5c1.6-0.2,3.6-2.2,4.3-3.9c2.3-5.9,4.1-12,6.2-17.9c0.6-1.9,1.7-3.6,2.4-5.5c2.7-7.1,5.4-14.3,8.1-21.4 c1.1-3.1,3.4-4.7,6.9-4.8c7-0.1,14,0,21,0c3.1,0,6.2-0.2,9.4-0.3c4,0,5.9,2.3,5.1,6.2c-1.3,6.3-2.3,12.6-0.4,19.1 c0.8,2.5-0.9,5.1-3.9,5.2c-9.1,0.5-11,7.9-14.2,14c-1.2,2.3-2.1,4.8-3.1,7.2c-2.3,5.3-4.7,10.5-7,15.8c-2.4,5.5-4.6,11.1-7.1,16.6 c-0.8,1.7-1.8,3.3-2.8,4.9c-3.3,5.3-4.5,11.1-4.2,17.3c0.3,5.7,0.2,11.4,0,17c-0.2,5.8,2.6,9.3,8.4,10.1c3.3,0.5,4.6,1.9,4.7,5.3 c0.2,7.3,0.3,14.6,0.4,21.9c0.1,5.2-1.8,6.9-7,6.9c-8.9,0-17.8,0-26.7,0C297.8,628.7,297.8,628.7,297.8,628.8z"></path> <path style="fill:#FFFFFF;" d="M83,403.3c0-4.3-0.4-8.6,0.1-12.8c0.7-6.4-1.3-11.6-6.2-15.5c-2.2-1.8-2.4-3.7-2.4-6.2 c0-6,2.8-8.8,8.9-8.7c4.9,0,9.9,0.1,14.8,0.1c4.2,0,6.9,2,8.7,5.9c2.8,5.9,6.1,11.5,9.2,17.2c1.3,2.4,2.3,5,3.6,7.4 c0.9,1.5,1.9,3,3.2,4.2c2.4,2.3,5.8,1.9,7-1.2c3.9-9.5,10.7-17.6,13.4-27.7c1-3.5,4.6-5.7,8.3-5.6c3.8,0.1,7.6,0.2,11.4,0.2 c3.2,0,6.7,0.1,7.9,3.2c1.4,3.3,1.3,7.3-0.8,10.6c-1.3,2-3.1,3.8-4.2,5.9c-0.8,1.6-1.2,3.6-1.2,5.5c-0.2,11.9-0.2,23.9-0.4,35.8 c-0.1,3.4,1.7,6,3.7,8.3c2.4,2.8,2.6,6.1,2.2,9.4c-0.4,2.7-2.3,4.2-5.2,4.2c-4.6,0-9.3,0.2-13.9,0.2c-2.7,0-4.8-2.3-4.8-5.3 c0.2-7.6,0.7-15.1,0.9-22.7c0.1-3.1-0.4-6.2-1-9.2c-0.2-1-1.6-2.5-2.5-2.5c-1.2-0.1-2.8,0.8-3.6,1.8c-5.4,6.5-8.3,14.3-11.8,21.8 c-1.4,3-3.5,3.6-5.5,1c-1-1.3-1.5-3-2.3-4.5c-2.1-4.1-4.1-8.3-6.5-12.2c-1.6-2.7-3.7-5.2-5.9-7.5c-2.2-2.3-4.8-1.6-6,1.4 c-0.5,1.3-0.6,2.8-0.6,4.2c0.3,9.1,0.8,18.1,1.2,27.2c0.2,4.7-1.9,7.3-6.4,7.6c-4.3,0.3-8.7,0.4-13,0.6c-5,0.2-7.8-3.5-7.6-7.6 c0.2-3.1,1.7-6.5,3.6-8.9c2.5-3.2,4.2-6.2,3.8-10.5c-0.5-5-0.1-10-0.1-15C83.1,403.3,83.1,403.3,83,403.3z"></path> <path style="fill:#FFFFFF;" d="M263.2,428.4c0-2.9,0-5.9,0-8.8c-0.1-6.2-3.4-10.1-8.7-10.2c-5.8,0-10.1,4.2-10,10.4 c0.1,5.6,0.4,11.2,0.9,16.7c0.4,5.1-1.5,7.3-6.5,7.2c-4.5,0-8.9-0.1-13.4-0.1c-4.1,0-5.9-2.1-6-6.2c-0.1-3.5,1.6-6.2,3.8-8.6 c2.1-2.3,2.7-4.9,2.7-7.8c-0.1-11.5-0.3-23.1-0.3-34.6c0-4.3-1.2-7.7-4.5-10.5c-2.2-2-3.8-9.4-2.1-11.6c1.2-1.5,3.5-2.8,5.4-3 c5.3-0.5,10.6-0.4,15.9-0.4c4.6,0,6.5,2.3,6,6.9c-0.6,5.6-1.4,11.3-1.9,16.9c-0.2,2,0.1,4.2,0.8,6c1.1,2.8,3.6,3.3,5.6,1.2 c3.2-3.2,5.8-6.8,7.2-11.4c1.6-5.3,3.7-10.5,6-15.6c1.4-3,4.6-4.1,7.9-4.2c3.2-0.1,6.4,0.1,9.6,0.3c3.9,0.3,5.5,2.3,5.3,6.2 c0,1-0.1,2.1-0.1,3.1c0,2.5-1,4.3-3.4,5.4c-6.8,3.1-11,8.7-13.8,15.4c-2,4.6,1,8.7,6,8.5c5.4-0.2,6.5,1,6.2,6.3 c-0.2,5.3-0.2,10.6-0.3,15.9c-0.1,3.1,1.7,5.2,3.6,7.4c1.4,1.7,2.7,3.6,3.5,5.7c1.8,4.3-1.4,9.7-7,9c-4.2-0.5-8.5-0.3-12.7-0.1 c-4.4,0.2-6.1-1.1-6.2-5.6c0-3.3,0-6.6,0-9.9C262.8,428.4,263,428.4,263.2,428.4z"></path> <path style="fill:#FFFFFF;" d="M355.3,430.6c0,2.7,0.1,5.3,0,8c-0.2,4.1-2.5,6.1-6.6,6.1c-16-0.2-32-0.4-48-0.6 c-4.7,0-7.9-4.2-6.2-8.7c0.8-2.2,2.2-4.4,3.7-6.3c1.9-2.4,3.3-4.7,3.3-7.9c-0.2-11.8-0.2-23.7-0.3-35.5c0-3.4-1.1-6.2-3.6-8.6 c-2.4-2.2-3.7-10.7-2.2-13.4c1.1-2,2.7-2.9,5.1-3c15.7-0.1,31.4-0.4,47.1-0.5c1.6,0,3.6-0.2,4.6,0.7c1.4,1.2,2.7,3.3,2.8,5.1 c0.3,5,0,10-0.2,15c-0.1,3.9-1.9,5.7-5.8,5.7c-1.2,0-2.5-0.2-3.7-0.1c-4.6,0.4-7.7-1.6-9.8-5.6c-2-3.6-5.7-5.2-9-4.4 c-4,1.1-6.1,3.8-6.2,8.4c0,2.1,0,4.5,0.9,6.3c1.2,2.6,3.6,4.1,6.7,3.9c2.2-0.1,4.4-0.2,6.5,0c3,0.2,4.6,2.1,4.6,5.1 c0.1,6.4-1.9,8.1-8.4,7.8c-2.2-0.1-4.7-0.1-6.6,0.7c-2.3,0.9-3.8,3.1-3.8,5.9c0,2.1,0,4.2,0,6.2c0,5.3,2.6,8.6,7.3,9.3 c3.6,0.5,8.3-3.1,9.5-7.2c1.1-3.9,2.3-5,6.2-5.3c2.3-0.2,4.5-0.3,6.8-0.4c3.5-0.1,5.5,1.9,5.6,5.3c0,1.3,0,2.7,0,4c0,1.3,0,2.6,0,4 C355.4,430.6,355.3,430.6,355.3,430.6z"></path> <path style="fill:#FFFFFF;" d="M196.6,443.7c-3.5,0-7,0-10.5,0c-3.4,0.1-4.7-0.7-5.1-3.9c-0.5-4-0.5-7.9,2.7-11.4 c1.6-1.7,2.5-4.6,2.6-7c0.1-11.9-0.1-23.8-0.3-35.8c0-3.1-1-5.9-3.3-8.2c-3.7-3.7-3.7-8.4-2.9-13c0.3-2.2,2.4-3.7,5.1-3.7 c7.2,0,14.4,0,21.5,0c3.4,0,5.8,2.8,5.6,6.2c-0.3,4.3-0.8,8.3-4.2,11.7c-1.5,1.5-2.3,4.4-2.4,6.7c-0.3,12.2-0.4,24.4-0.3,36.6 c0,1.8,0.7,4,1.9,5.4c2.6,3.4,4,7,3.7,11.3c-0.3,3.7-2.2,5.4-5.9,5.1c-1.4-0.1-2.8-0.1-4.3-0.2c-1.3,0-2.7,0-4,0 C196.6,443.6,196.6,443.6,196.6,443.7z"></path> </svg> 