<?xml version="1.0" encoding="UTF-8"?> <!-- Generator: Adobe Illustrator 23.0.3, SVG Export Plug-In . SVG Version: 6.00 Build 0) --> <svg xmlns="http://www.w3.org/2000/svg" xmlns:xlink="http://www.w3.org/1999/xlink" version="1.1" id="katman_1" x="0px" y="0px" viewBox="0 0 1000 1000" style="enable-background:new 0 0 1000 1000;" xml:space="preserve"> <g> <g> <g> <title>Miscellaneous 18 final</title> </g> </g> </g> <g> <path style="fill:none;stroke:#FFFFFF;stroke-width:6;stroke-miterlimit:10;" d="M706.4,601c-28.5,0-51.6,23.1-51.6,51.6 s23.1,51.6,51.6,51.6s51.6-23.1,51.6-51.6S734.9,601.1,706.4,601z M746.3,625.8l-3.6,15.2l-18.8,6.3l-15.8-12.6v-18.6l18-7.2 C734.3,612.4,741.3,618.3,746.3,625.8z M746.7,679l-17,2.7l-9.3-12.3l4.7-18.9l18.6-6.2l10.7,12.8C753.6,664.9,751,672.4,746.7,679 z M683.3,681.7l-17.1-2.7c-4.3-6.6-7-14.1-7.7-21.9l10.7-12.8l18.6,6.2l4.7,18.9L683.3,681.7z M658.3,651.9c0.1-7.7,2-15.2,5.6-22 l2.8,11.9L658.3,651.9z M695.8,667.8l-4.6-18.3l15.2-12.2l15.3,12.2l-4.6,18.3H695.8z M746.1,641.8l2.8-11.9 c3.6,6.8,5.5,14.3,5.6,22L746.1,641.8z M721.5,606.9l-15.1,6l-15.2-6C701.1,603.6,711.7,603.6,721.5,606.9z M686.7,608.8l18.1,7.2 v18.6L689,647.2l-18.8-6.3l-3.6-15.2C671.6,618.3,678.6,612.5,686.7,608.8z M669.1,682.9l14,2.2l8.4,13.2 C682.7,695.4,674.9,690.1,669.1,682.9z M696.4,699.8l-10.3-16.1l9.1-12.1h22.3l9.2,12.2l-8.9,15.7 C710.9,701.2,703.5,701.3,696.4,699.8L696.4,699.8z M722.7,697.9l7.3-12.8l13.8-2.2C738.2,689.7,730.9,694.9,722.7,697.9z"></path> </g> <g> <g> <g> <title>Miscellaneous 18 final</title> <path style="fill:#FFFFFF;" d="M307.6,664.4c30.7,8.1,63,8,93.6-0.3c9.7-2.9,7.8-20.9,8.7-28.6c1.6-15.6,3.2-31.2,5.6-46.7 c2.1-9.7,7.1-18.5,14.3-25.3c8-8.3,15.4-17.1,22.2-26.4c4.5-6.1,16.6-18,11.1-26.1c-2.5-3.6-7.2-4.9-11.2-3.2 c-26,11.5-53.1,19.8-78.7,32c-10.5,5-2.6,21.3,8,16.1c11.8-5.7,32-13.7,49.2-20.4c-6.5,8.1-14.3,15.2-21,23.2 c-13.4,16.1-13.7,40-15.8,59.7c-0.3,2.7-1.6,29.1-3.1,29.3c-25.8,5.4-52.5,4.9-78.1-1.2c-4.8-1.2-9.8,1.6-11.1,6.5 C300,658.1,302.8,663,307.6,664.4z"></path> <path style="fill:#FFFFFF;" d="M603.2,558.1c11.2,0,59.3-17.3,69.1-20.8c8.5-3.1,15.4-9.6,18.9-18c3.5-8.4,3.3-17.8-0.5-26.1 c-6.9-14.8-23.6-22.2-39.2-17.5c-20.7,5.8-41.6,10.5-62.8,14.3c-11.5-0.4-108-26-129.3-32.3c-11-3.3-17.9-0.4-26.4,4.1 c-6,3.2-81.9,40.1-87.5,43.6c-4.2,2.6-5.5,8.1-2.9,12.4c2.6,4.2,8.2,5.5,12.5,2.9c5.2-3.2,80.2-39.7,86.4-43 c7.3-3.8,8.7-3.9,12.6-2.8c10,3.1,119.1,33.2,134.9,33.1h0.3c22.7-3.6,45.1-8.7,67.2-15c7.8-1.7,15.6,3.2,17.3,11.1 c1.5,6.7-1.9,13.5-8.1,16.3c-31.6,11.5-57.9,19.4-62.5,19.7c-6.8,0-46.4-4.1-55.8-4c-4,0-58.7,46.7-60.1,48.3 c-3,4-2.2,9.8,1.9,12.8c1.2,0.8,2.5,1.4,3.8,1.6c3.9,1,77.6,27.4,89.5,31.6c7.8,2.7,17.9,10,14.4,19.5c-1.8,5.9-7.5,9.8-13.7,9.5 c-34.5-4.5-123.2-32-127.8-32c-6.8-0.8-13.1,3.8-14.5,10.5c-1.9,7.1-4.4,44.7-4.5,45.6c0,2.2-2.5,4.9-6.8,7.6 c-23.7,14.8-89.9,18.8-115.6,6.8c-10.5-4.9-18.2,11.3-7.7,16.3c12.9,6,32.7,8.8,53.6,8.8c30.1,0,62.5-5.9,80-16.8 c11.6-7.2,14.8-15.4,15.2-21.4c1.8-7.1,2.4-34.2,3.1-38.9c4.9,1.2,86.7,26.4,123,31.4c14.7,1.5,28.4-7.3,33.1-21.3 c7.1-19.6-8-36.5-25.5-42.7c-12.2-4.3-68.5-24.4-76.3-27.4c12.6-11,32-27.4,38-32C558.6,554.1,595.6,558,603.2,558.1z"></path> <path style="fill:#FFFFFF;" d="M119,565h145.2c4.9,0.8,9.7-2.6,10.4-7.6c0.8-4.9-2.6-9.7-7.6-10.4c-0.9-0.2-1.9-0.2-2.9,0H119 c-4.9-0.8-9.7,2.6-10.4,7.6c-0.8,4.9,2.6,9.7,7.6,10.4C117.1,565.2,118.1,565.2,119,565z"></path> <path style="fill:#FFFFFF;" d="M319,511.1c0-5-4.1-9.1-9.1-9.1H164.5c-4.9-0.8-9.7,2.5-10.6,7.4s2.5,9.7,7.4,10.6 c1.1,0.2,2.2,0.2,3.1,0h145.4C314.7,519.9,318.8,516,319,511.1z"></path> <path style="fill:#FFFFFF;" d="M155.6,600.9c0,5,4,9.1,9.1,9.1h144.9c4.9,0.8,9.7-2.6,10.4-7.6c0.8-4.9-2.6-9.7-7.6-10.4 c-0.9-0.2-1.9-0.2-2.9,0H164.7C159.7,592,155.7,595.9,155.6,600.9z"></path> <path style="fill:#FFFFFF;" d="M423.2,390c-4.7-0.7-9.1,2.5-9.8,7.2c-0.7,4.7,2.5,9.1,7.2,9.8c0.9,0.1,1.8,0.1,2.7,0h87 c0.5,6.3,2.3,12.4,5.2,18h-50.9c-4.9-0.8-9.7,2.6-10.4,7.6c-0.8,4.9,2.6,9.7,7.6,10.4c0.9,0.2,1.9,0.2,2.9,0h66.8 c22.3,16,53.3,11,69.3-11.4c16-22.3,11-53.3-11.4-69.3c-8.6-6.1-18.8-9.4-29.4-9.3h-90.9c-4.9-0.8-9.7,2.5-10.4,7.6 c-0.8,5,2.6,9.7,7.6,10.4c1,0.2,1.9,0.2,2.9,0h52.6c-4.6,5.5-8.1,12.1-10,19H423.2z M559.9,371.2c17.8,0.2,32,15.2,31.1,33.1 c-0.8,16.3-14.2,29.4-30.5,29.9c-17.9,0.5-32.5-13.8-32.5-31.5C528.2,385.3,542.5,371.2,559.9,371.2L559.9,371.2z"></path> </g> </g> <g> <g> <path style="fill:#FFFFFF;" d="M738.2,729.8"></path> </g> </g> </g> </svg> 