<?xml version="1.0" encoding="UTF-8"?> <!-- Generator: Adobe Illustrator 22.0.0, SVG Export Plug-In . SVG Version: 6.00 Build 0) --> <svg xmlns="http://www.w3.org/2000/svg" xmlns:xlink="http://www.w3.org/1999/xlink" version="1.1" id="katman_1" x="0px" y="0px" viewBox="0 0 100 99.6" style="enable-background:new 0 0 100 99.6;" xml:space="preserve"> <g> <path style="fill:#FFFFFF;" d="M59.7,61c-1.2,1-1.4,2.9-0.4,4.1c1,1.2,2.9,1.4,4.1,0.4c4.9-4.1,7.7-10,7.7-16.4 c0-11.8-9.6-21.3-21.3-21.3s-21.3,9.6-21.3,21.3c0,6.5,2.9,12.6,8,16.6c1.3,1,3.1,0.8,4.1-0.4s0.8-3.1-0.4-4.1 c-11.3-9.1-4.9-27.6,9.7-27.6C64.3,33.6,70.8,51.8,59.7,61z"></path> <path style="fill:#FFFFFF;" d="M68.6,75.3C76.7,69.5,82,59.9,82,49.2c0-1.6-1.3-2.9-2.9-2.9c-1.6,0-2.9,1.3-2.9,2.9 c0,8.8-4.3,16.6-10.9,21.4c-1.3,0.9-1.6,2.8-0.7,4.1C65.5,76,67.3,76.2,68.6,75.3z"></path> <path style="fill:#FFFFFF;" d="M37.6,8.3c-1.5,0.5-2.4,2.1-2,3.6s2.1,2.4,3.6,2c23.4-7,47,10.7,47,35c0,1.6,1.3,2.9,2.9,2.9 c1.6,0,2.9-1.3,2.9-2.9C92.2,20.7,64.8,0.2,37.6,8.3z"></path> <path style="fill:#FFFFFF;" d="M70.1,24.2c-20.9-17-52.5-2.2-52.5,24.9c0,17.7,14.4,32.2,32.2,32.2c1.6,0,2.9-1.3,2.9-2.9 c0-1.6-1.3-2.9-2.9-2.9c-14.5,0-26.3-11.8-26.3-26.3c0-22.2,25.9-34.3,42.9-20.4c1.3,1,3.1,0.8,4.1-0.4 C71.6,27.1,71.4,25.3,70.1,24.2z"></path> <path style="fill:#FFFFFF;" d="M10.2,46.5c-1.6,0-2.9,1.3-2.9,2.9C7.2,72.9,26.3,92,49.8,92c10,0,19.7-3.5,27.3-9.9 c1.2-1,1.4-2.9,0.4-4.1c-1-1.2-2.9-1.4-4.1-0.4c-6.6,5.5-15,8.6-23.6,8.6c-20.3,0-36.7-16.5-36.7-36.7 C13.1,47.8,11.8,46.5,10.2,46.5z"></path> </g> </svg> 