<?xml version="1.0" encoding="UTF-8"?> <!-- Generator: Adobe Illustrator 25.0.1, SVG Export Plug-In . SVG Version: 6.00 Build 0) --> <svg xmlns="http://www.w3.org/2000/svg" xmlns:xlink="http://www.w3.org/1999/xlink" version="1.1" id="Layer_1" x="0px" y="0px" viewBox="0 0 1000 1000" style="enable-background:new 0 0 1000 1000;" xml:space="preserve"> <path style="fill:#FFFFFF;" d="M496.2,84.3c26.9,0.2,53.4,3.1,79.6,8.6c2.6,0.5,5.5,3.1,6.9,5.5c22.9,40.7,51.5,77.4,86,108.9 c56.2,51.2,121.5,85,195.6,102.4c2.9,0.7,6.2,3.1,7.4,5.5c19.3,36.4,32.4,75,40,115.5c1.4,7.9,5,16.4,3.1,23.3 c-1.9,6.7-9.5,11.9-14.5,17.6c-54.1,63.4-87.7,136.3-99.1,218.9c-5,35.5-5.7,71.2-1,107c0.5,3.8-0.5,6.7-3.3,9.5 c-34.5,34.8-73.8,63.4-118.2,84.3c-2.6,1.2-6.7,1.4-9.3,0.2c-72.7-32.4-148.4-44.3-227.3-35.7c-45.3,5-88.9,17.2-130.5,36 c-2.4,1.2-6.2,1.2-8.8,0c-42.9-20.2-80.8-47.4-114.3-80.5c-1.4-1.4-2.1-4.3-1.9-6.2c3.6-27.6,4.8-55.3,2.9-83.1 c-5-74.8-27.9-143.6-69.1-206.5c-15-22.6-32.2-43.6-51-63.4c-1.7-1.9-2.9-5.2-2.6-7.9c6.7-45.7,21.2-89.1,42.6-130.1 c1.4-2.6,4.5-5.2,7.4-6c76.2-18.1,142.7-54.3,199.6-108.4c31.2-29.8,57.4-63.6,78.1-101.5c2.1-3.8,5-5.2,8.8-6 C434.5,87.1,465.3,83.8,496.2,84.3z M491.7,197.2C314,198.6,175.1,338,177.5,514.7c2.1,172.5,147.2,309.9,321.8,305.9 c167.7-3.8,308-141,306.6-315.4C804,335.4,662,195.8,491.7,197.2z"></path> <path style="fill:#FFFFFF;" d="M431.7,389.7c-19.5,0-38.6,0-58.4,0c0,90.5,0,181,0,271.6c-15.7,0-31,0-46.2,0 c0-104.1,0-207.7,0-312.1c2.6,0,4.5,0,6.7,0c39.8,0,79.6,0,119.1,0c17.2,0,25.5,8.1,25.5,25.3c0,38.8,0,77.9,0,116.7 c0,2.6,0,5.2-0.2,7.9c-0.7,10.2-7.4,17.4-17.4,19.1c-4,0.7-8.3,1-12.4,1.2c-4,0.2-8.1,0.5-13.3,0.7c17.2,47.4,34.1,94.1,51.2,141.7 c-5.7,0-10.5,0-15.5,0c-9.3,0-18.3-0.2-27.6,0c-4.3,0.2-6.2-1.4-7.6-5.5c-14.8-42.4-29.3-84.8-44.8-127c-5-13.6-4-26.9-4.3-41 c15.2,0,29.8,0,45,0C431.7,455.4,431.7,422.8,431.7,389.7z"></path> <path style="fill:#FFFFFF;" d="M659.4,444.5c-16,0-31,0-46.7,0c0-18.3,0-36.2,0-54.6c-20.5,0-40.5,0-60.7,0c0,1.4-0.2,3.1-0.2,4.8 c0,73.6,0,147,0,220.6c0,4.8,1,6.7,6.2,6.4c16.7-0.2,33.1-0.2,49.8,0c3.8,0,5.2-1.2,5.2-5.2c-0.2-26-0.2-51.9,0-77.9 c0-3.8-1.7-4.8-5-4.8c-9.5,0.2-19.1,0-29.1,0c0-13.3,0-26,0-39.3c26.7,0,53.4,0,80.8,0c0,2.4,0,4.5,0,6.7c0,45,0,89.8,0,134.8 c0,17.6-8.1,25.5-25.7,25.5c-34.1,0-68.4,0-102.4,0c-18.1,0-26.2-7.6-26.2-25.7c0-87.4,0-174.9,0-262.5c0-16,8.3-24.3,24.5-24.3 c35.3,0,70.3,0,105.5,0c15,0,23.8,7.4,24.3,21.4c0.7,20.5,0.2,41.2,0.2,61.7C659.4,436.1,659.4,439.9,659.4,444.5z"></path> </svg> 