<?xml version="1.0" encoding="UTF-8"?> <!-- Generator: Adobe Illustrator 22.0.0, SVG Export Plug-In . SVG Version: 6.00 Build 0) --> <svg xmlns="http://www.w3.org/2000/svg" xmlns:xlink="http://www.w3.org/1999/xlink" version="1.1" id="Layer_1" x="0px" y="0px" viewBox="0 0 1000 1000" style="enable-background:new 0 0 1000 1000;" xml:space="preserve"> <g id="Labels"> </g> <g transform="translate(0.000000,2153.000000) scale(0.100000,-0.100000)"> <path style="fill:#FFFFFF;" d="M8518.5,18903.8c-13.5-2.4-35.3-7.3-48.4-11.6c-13.1-4.4-31.4-9.2-40.6-11.1 c-37.2-7.3-130.6-45.9-250-104c-91.9-44.5-107.8-55.6-93.8-64.8c5.3-2.9,36.7,3.9,78.8,16.9c15,4.8,40.1,10.2,55.6,12.1 c15.5,1.5,44.5,6.3,64.3,9.7c55.6,10.2,137.3,13.5,188.6,7.7c97.7-11.1,166.8-37.7,229.7-88c44-34.8,67.2-69.1,83.7-122.8 c10.2-33.4,12.1-48.4,12.1-106.4c0-45.5-2.4-77.4-7.3-96.7c-4.4-16-9.2-38.7-11.1-50.8c-6.8-45.9-45.9-172.6-73-235.5 c-11.6-27.1-21.3-51.3-21.3-54.2c0-2.4-9.7-23.7-21.3-47.4c-11.6-23.2-34.3-69.6-50.8-103c-28-58-56.6-112.2-88.5-169.2 c-8.2-14.5-21.8-38.7-29.5-53.2c-8.2-14.5-19.8-34.8-26.1-44.5c-6.3-10.2-11.1-19.3-11.1-20.3c0-4.4-71.6-122.3-115.6-191.5 c-92.4-143.1-189.5-280.4-282.4-398.9c-91.9-116.5-89.9-114.1-212.8-256.3c-25.1-29-85.6-94.3-133.5-145.1 c-48.4-50.3-87.5-94.3-87.5-97.7c0-13.5,16-4.4,60.9,36.3c26.1,23.2,77.8,68.2,115.1,99.6c189.1,160,413.9,385.4,529.5,529.5 c30.9,38.7,69.6,87,85.6,106.9c133.5,166.8,291.1,418.7,414.9,664.9c32.4,63.8,63.3,127.2,69.1,140.2 c19.8,45,55.1,135.4,68.7,176.5c28.5,85.6,34.8,108.8,39.2,144.6c2.9,20.3,8.2,58.5,12.6,84.6c15,89-0.5,203.1-36.3,267.9 c-23.7,43.5-41.1,64.8-76.4,93.8c-33.8,28-80.3,53.2-130.6,70.1c-35.3,12.1-44,13.1-136.8,14 C8587.6,18906.7,8532,18905.7,8518.5,18903.8z"></path> <path style="fill:#FFFFFF;" d="M2511.1,18793.5c-55.6-1.9-135.9-11.6-168.8-20.8c-17.4-4.8-40.6-9.7-51.3-11.6 c-29.5-4.4-130.6-49.3-168.8-75.4c-82.7-55.6-144.1-147.5-192.9-287.7c-12.1-34.3-23.2-74.9-25.1-89.5 c-1.9-14.5-6.8-39.7-10.6-55.6c-11.1-44-20.3-138.8-23.7-246.6c-3.4-106.9,7.3-315.3,19.3-373.3c3.9-17.9,9.2-60,12.6-93.3 c3.4-33.4,13.5-97.2,22.7-142.6c9.2-45,18.9-94.3,21.3-108.8c5.3-31.4,25.6-117,36.7-154.7c4.4-14.5,10.6-38.7,13.5-53.2 c9.7-42.1,61.4-206.5,84.6-268.4c5.3-13.1,15-39.2,22.2-58c6.8-18.4,27.6-69.1,45.9-112.7c18.4-43,33.4-80.3,33.4-82.7 s3.4-10.6,7.3-18.4c3.9-7.3,16.9-34.3,28.5-59.5c53.7-117,138.3-282.9,175-344.8c62.4-104,130.1-212.3,170.7-273.7 c78.3-117.5,151.3-224.4,165.9-242.3c7.3-9.2,26.1-34.3,42.1-55.6s52.7-68.2,82.7-104c29.5-35.8,75.4-92.4,102.5-125.7 c54.2-67.2,137.3-162.5,177-202.6c23.2-23.2,25.1-26.6,18.4-33.4c-6.3-6.3-18.4-6.8-100.6-1.9c-51.3,3.4-106.4,7.7-122.3,10.6 c-16,2.4-52.7,6.8-82.2,9.7c-29,2.9-63.8,8.2-77.4,11.6c-13.1,3.9-33.8,8.2-45.9,10.2c-12.1,1.5-34.8,7.3-50.8,12.1 c-16,4.8-36.7,10.6-45.9,12.1c-44,8.2-138.8,53.2-177.5,84.1c-30.9,25.1-59,69.6-59.5,95.3c0,26.6,23.7,69.6,56.6,102.5 c46.9,47.4,38.7,53.7-21.8,16.9c-99.1-60-135.9-86.6-177.5-129.1c-50.8-50.8-65.3-76.9-65.3-114.6c0-77.4,93.8-140.2,304.6-204 c70.6-21.8,108.3-31.4,128.1-34.8c10.6-1.5,37.7-7.3,60.4-12.1c59.5-13.5,166.8-32.9,200.7-36.3c16-1.5,46.4-5.8,67.7-9.7 c21.3-3.4,54.2-8.2,72.5-9.7c18.9-1.9,62.4-7.3,96.7-12.6c34.8-5.3,100.1-11.6,145.1-14c45.5-2.4,109.3-7.7,142.6-11.6 c33.4-3.9,120.4-9.7,193.4-12.6c73-3.4,178.9-8.7,234.5-12.1c62.9-3.4,249-6.3,488.4-6.8c329.3-0.5,415.8,1,582.7,9.2 c274.2,13.5,343.3,18.4,398.9,26.6c26.6,3.9,66.7,7.3,89.5,7.3c22.7,0,55.1,2.4,72.5,4.8c17.4,2.4,73.5,9.7,125.2,16.9 c51.3,6.8,95.3,13.1,97.2,14.5c1.9,1,31.4,5.3,65.8,9.7c72.5,8.2,193.4,29,212.8,36.3c7.7,2.9,30.9,7.7,51.7,10.2 c21.3,2.4,64.8,11.6,97.2,19.3c31.9,8.2,75.9,18.9,97.2,23.7c35.3,7.7,73,17.9,191,50.8c22.7,6.3,57.5,17.4,77.4,24.2 c19.8,7.3,49.3,16.9,65.3,21.8s44.5,14.5,62.9,21.8c18.9,6.8,52.2,19.3,74.9,27.6c99.6,34.8,275.1,118.5,290.1,137.8 c5.3,6.8,9.7,16,9.7,20.3c0,3.9,9.2,34.8,20.8,68.2c11.6,33.4,27.1,80.3,34.3,104c7.3,24.2,17.4,56.6,22.7,72.5 c8.2,26.1,21.8,81.7,45,183.7c10.2,44.5,17.4,95.7,17.4,124.8c0,19.3-1.5,23.2-8.2,21.8c-4.8-1-10.2-8.7-12.6-18.4 c-30-114.6-96.7-276.6-153.3-371.4c-24.7-41.6-68.2-94.3-94.8-114.6c-10.6-8.2-38.7-21.8-62.9-30c-83.7-29-291.1-93.8-333.2-104 c-10.6-2.9-32.4-8.7-48.4-13.5c-45.5-13.5-132-36.3-229.7-60c-89-21.8-107.3-25.6-221.5-48.8c-32.9-6.3-60.9-12.6-62.9-14 c-1.9-1-25.1-4.4-51.3-7.7c-26.6-2.9-53.2-7.7-59-9.7c-6.3-2.4-30.5-6.8-53.7-10.2c-23.2-2.9-61.9-9.2-86.1-14 c-23.7-4.8-64.3-10.2-89.5-12.1c-25.1-1.5-76.4-7.3-113.6-12.1c-37.2-5.3-84.1-10.6-104-12.1c-19.8-1.5-75.4-6.3-123.3-10.2 c-63.8-5.8-144.1-7.7-299.8-7.7c-193.4,0-223.9,1-336.1,12.6c-67.7,6.8-141.7,15.5-164.4,19.3c-22.7,3.4-57.5,8.2-77.4,9.7 s-61.4,8.7-91.9,15.5c-30.5,6.8-74.5,16.4-97.7,21.8c-23.2,4.8-46.4,9.2-51.3,9.2c-5.3,0-23.2,4.4-40.1,9.2 c-16.9,5.3-57.1,16.4-89,25.1c-63.8,16.9-198.2,60-211.3,67.2c-4.8,2.9-11.1,4.8-14,4.8c-19.3,0-239.8,102-359.7,166.3 c-221,118.9-484.5,332.7-613.1,497.6c-16.4,20.8-45,57.1-63.3,79.8c-30.5,39.2-129.6,184.7-151.8,223.4 c-5.3,9.2-17.4,30.9-27.6,48.4c-42.6,74.5-145.5,287.7-159.6,331.2c-3.4,10.6-19.3,50.8-34.8,89.5c-16,38.7-35.3,88.5-42.6,111.2 c-7.3,22.7-19.3,58.5-27.1,79.8c-16.4,49.3-29.5,91.4-43,140.2c-5.8,21.3-15.5,57.1-21.8,79.8c-19.8,70.1-45.9,187.1-56.1,251.4 c-7.3,46.4-13.5,81.7-18.9,108.8c-2.4,13.5-10.2,78.8-16.9,145.5c-12.6,126.7-16,260.1-7.3,321.1c21.3,157.1,34.3,214.7,62.9,273.2 c23.7,48.8,75.9,122.3,111.2,157.1c29,29,100.6,79.3,135.4,95.7c75.4,35.3,185.7,57.1,269.3,52.2c73-4.4,221.9-29.5,291.6-49.8 c81.7-23.7,305.1-105.4,321.5-117.5c2.9-1.9,12.1-5.3,21.3-7.3c14.5-2.9,35.8-11.1,75.4-29c8.2-3.4,28.5-12.1,45.9-18.4 c17.4-6.3,47.9-18.4,67.7-26.6c19.8-7.7,52.7-20.3,72.5-28c19.8-7.3,54.6-20.8,77.4-30s55.1-21.8,72.5-28 c89.5-31.9,168.3-60,181.3-64.3c8.2-2.4,43-14.5,77.4-26.6c34.8-12.1,69.6-23.2,77.4-24.7c8.2-1.9,25.6-7.3,38.7-12.1 c23.2-8.7,70.1-22.7,147.5-44.5c19.8-5.3,55.1-16,78.8-23.7c23.2-7.7,47.4-14,54.2-14c6.3,0,17.4-2.4,24.2-4.8 c20.8-7.7,122.8-34.3,159.6-41.6c47.4-8.7,139.7-29.5,171.7-38.2c14.5-3.9,34.8-7.3,45-7.3c10.6,0,31.4-2.9,46.4-6.8 c15-3.4,47.9-10.2,73-14.5c25.1-4.4,55.1-10.2,66.2-13.1c11.6-2.4,52.7-7.7,91.9-12.1c39.6-3.9,74.9-8.2,79.3-9.7 c4.4-1,41.1-5.3,82.2-9.2s110.2-10.6,154.2-15c106.4-10.2,316.7-7.3,445.8,7.3c177,19.3,334.1,44.5,399.9,63.8 c16.9,5.3,37.2,9.2,45.5,9.2c13.5,0,99.1,21.8,141.2,36.3c10.6,3.4,27.1,8.2,36.3,9.7c36.3,7.3,327.4,105.9,362.6,123.3 c9.2,4.8,29,12.1,43.5,16.9c14.5,4.8,44.5,16.9,66.2,27.6c21.8,10.2,41.6,18.4,44.5,18.4c15,0,286.7,132,375.2,182.8 c114.1,65.3,155.2,89.5,177,105.4c34.3,24.7,40.1,22.7,54.6-19.8c36.3-107.8,59-189.1,63.3-225.3c1.9-14.5,7.7-48.8,13.1-76.9 c18.9-100.6,19.8-404.2,1.9-476.3c-4.4-16-9.7-47.4-12.6-69.6c-5.8-45.5-29.5-148.9-40.1-174.6c-3.9-9.2-8.7-27.6-10.6-40.1 c-2.9-22.7-2.9-23.2,8.2-21.8c9.2,1,12.6,6.8,18.4,28c3.9,14.5,10.6,36.3,15,48.4c26.1,72.5,72,243.2,72,268.4 c0,6.3,5.3,33.8,12.1,61.4c20.3,86.1,28.5,306.1,16.9,463.2c-10.2,137.8-58.5,306.1-128.6,445.8c-30,60-36.3,63.3-64.8,35.8 c-91.4-87-407.1-285.8-548.8-344.8c-16-6.3-43-18.4-60.4-26.6c-36.7-17.4-90.9-40.1-118.5-50.3c-10.6-3.9-23.7-9.2-29-11.6 c-14-6.8-142.2-53.2-159.6-58c-7.7-1.9-46.9-13.5-87-25.6c-39.6-12.1-94.3-27.6-120.9-34.8c-26.6-6.8-59-15.5-72.5-19.3 c-13.1-3.4-34.8-7.7-48.4-9.7c-13.1-1.4-36.3-5.8-50.8-9.7c-41.1-10.6-164.9-31.4-219.5-36.3c-26.6-2.9-65.3-6.8-85.1-9.7 c-106.4-14-336.5-18.4-488.4-9.2c-117.5,7.3-336.1,37.2-415.8,56.6c-12.1,3.4-32.4,7.7-45.9,10.2c-13.1,2.4-49.3,11.1-79.8,19.8 c-30.5,8.2-64.3,17.4-74.9,19.8c-26.6,6.3-167.3,51.3-203.1,64.8c-16,6.3-48.4,17.9-72.5,26.1c-23.7,7.7-61.9,21.3-84.6,29.5 c-22.7,8.2-51.7,19.3-65.3,24.2c-73,26.6-132.5,49.3-235,89.9c-63.3,25.1-116,45.5-118,45.5c-1.5,0-43.5,16-93.3,35.8 c-262.1,104-304.1,120.4-315.7,123.8c-7.3,1.9-20.3,7.3-29,11.1c-71.6,32.4-325.4,123.3-468.5,167.3c-28,8.7-56.1,17.9-62.9,20.3 s-25.1,7.3-41.1,11.6c-16,3.9-62.9,16-104,26.6c-41.1,10.6-81.2,19.3-89,19.3c-7.7,0-40.1,5.3-72.5,12.1 C2707.4,18787.2,2585.6,18795.9,2511.1,18793.5z"></path> <path style="fill:#FFFFFF;" d="M8336.2,16058.2c2.4-3.9,45.5-28,95.7-53.2c172.6-85.6,323-183.3,399.4-259.2 c79.8-79.3,104.4-136.4,91.4-209.4c-7.7-41.6-27.6-77.8-79.8-144.6c-55.1-71.1-177-167.3-303.2-239.3 c-90.9-51.7-297.4-147-385.9-177.9c-173.1-60.4-345.2-115.6-440-140.7c-17.4-4.4-53.2-14.5-79.8-22.2c-26.6-7.7-57.1-15-67.7-16.4 c-10.6-1.9-37.7-7.7-60.4-14c-47.9-13.1-117.5-29-152.3-35.8c-13.1-2.4-54.6-11.6-91.9-19.8c-37.2-8.7-88.5-18.9-113.6-22.2 c-25.1-3.9-52.2-8.7-60.4-11.1c-7.7-2.4-35.3-8.2-60.4-12.6s-59-11.1-74.9-14.5s-44-7.7-62.9-9.7c-18.4-1.9-43-5.3-54.6-7.7 c-11.6-2.4-50.8-8.7-87-14c-36.3-5.8-74.5-12.1-84.6-15c-10.2-2.9-42.6-6.8-72-9.2c-29.5-2.4-80.7-8.7-114.6-14 c-81.2-13.1-210.3-29-264-32.4c-23.7-1.5-62.9-5.8-87-9.7c-23.7-3.4-78.3-8.7-120.9-11.6c-42.6-2.9-100.1-8.7-128.1-12.6 c-28-3.9-99.6-8.7-159.6-11.1c-60-2.4-112.2-5.8-116-7.3c-11.1-3.9-148-12.1-290.1-17.4c-70.6-2.4-177-7.3-236.9-9.7 c-107.3-5.3-814.8-7.3-894.5-2.9c-22.7,1-97.7,4.4-166.8,7.3c-245.2,10.6-353.5,16-391.7,20.3c-21.3,2.4-88,6.3-148.4,9.2 c-60,2.4-131,7.7-157.1,11.6c-26.1,3.9-85.6,9.7-132,12.6c-46.4,2.9-102,8.2-123.3,12.1s-59.5,8.2-84.6,9.7 c-49.8,3.4-159.6,16.9-257.2,31.4c-33.8,5.3-87,11.6-118,14.5c-30.9,2.9-58,5.8-60,7.3c-3.4,2.4-79.3,15.5-181.3,31.9 c-34.3,5.3-73.5,11.6-87,14c-33.4,5.3-122.3,23.7-142.6,29c-9.2,2.4-33.4,6.8-53.2,9.7c-34.3,4.8-115.1,22.7-157.1,34.8 c-10.6,2.9-37.7,9.2-60.4,14.5c-65.3,14-77.8,17.4-111.2,28c-17.4,5.8-43.5,13.1-58,16.9c-37.7,9.2-169.2,52.2-215.2,70.1 c-21.3,8.2-45,16.9-53.2,18.9c-19.8,5.3-153.3,69.6-183.3,88.5c-45,28-98.6,71.1-116,92.4c-9.7,11.6-23.7,35.8-31.9,53.2 c-12.6,28-14.5,37.7-14.5,74.9c0,60,25.1,128.1,69.1,187.6c30.5,41.1,108.3,121.9,160,165.4c40.1,33.4,168.3,120.9,188.1,128.1 c11.6,4.4,10.6,17.9-1.9,17.9c-5.3,0-17.9-4.4-27.6-9.7c-9.7-5.3-71.1-35.3-136.4-66.7c-200.7-96.7-277.1-143.6-396-244.7 c-32.4-27.1-89-100.1-111.2-142.6c-30-58-37.2-141.2-17.4-210.8c7.7-27.1,35.8-73,66.7-110.2c73-86.1,250-192.9,428.9-258.7 c14.5-5.3,44-16,65.3-24.2c44.5-16.4,165.9-55.1,205.5-65.3c14.5-3.9,51.7-14,82.2-22.2c30.5-8.7,65.3-17.4,77.4-19.8 c12.1-1.9,43.5-9.2,70.1-16c58.5-14.5,95.7-22.2,200.7-42.1c44-8.2,96.2-18.4,116-22.2c19.8-4.4,61.4-10.6,91.9-14 c30.5-3.4,64.3-8.7,74.9-11.6c10.6-2.4,48.4-8.2,83.7-12.6c35.8-3.9,66.7-8.2,68.7-9.7c4.4-2.9,139.3-17.9,263.5-29.5 c42.6-3.9,96.2-10.2,118.9-14c22.7-3.9,86.1-9.2,140.7-11.6c54.6-2.9,154.7-9.2,221.9-14.5c140.7-11.1,265-17.9,487.9-25.1 c182.3-6.3,938.1-2.4,1080.7,4.8c50.8,2.9,144.1,7.3,207.9,9.7c63.8,2.9,151.8,8.2,195.8,12.6c44,3.9,134.4,9.2,200.7,12.1 c66.7,2.4,153.8,9.2,193.4,14.5c40.1,5.3,85.6,9.7,101.5,9.7s56.1,3.4,89.5,7.3c33.4,3.9,90.9,9.2,128.1,12.1 c37.2,2.4,91.9,8.2,120.9,12.1c29.5,3.9,78.3,9.2,108.8,12.1c30.5,2.9,72,8.2,91.9,12.1s59,8.2,87,9.7c28,1.9,60.4,5.3,72.5,7.7 c20.8,4.8,118.9,19.3,256.3,38.2c82.7,11.6,177.9,27.1,236.9,38.7c25.1,4.8,58.5,10.2,74.5,12.1c15.5,1.5,66.7,10.6,113.6,19.8 c46.9,9.7,102.5,20.3,123.8,23.7s70.1,13.5,108.8,21.8c38.7,8.7,83.2,17.9,99.1,20.3c16,2.4,40.1,7.7,53.2,11.1 c13.5,3.9,59,14.5,101.5,23.7c42.6,9.7,89.5,20.3,104,24.7c14.5,3.9,41.6,10.6,60,15c18.4,3.9,39.2,9.7,45.9,12.6 c6.8,2.4,26.6,7.7,44,11.1c33.8,6.8,142.6,37.2,220,60.9c26.6,8.2,58,17.9,70.1,21.8c58,17.4,191,61.9,232.1,77.4 c25.1,9.2,50.3,18.4,55.6,19.8c5.3,1.5,26.1,8.7,45.9,16.9s45.9,18.9,58,23.7c12.1,4.8,38.2,15,58,22.7 c41.6,16.4,39.2,15.5,162.5,75.9c87,43,159.6,84.6,226.3,129.6c65.8,44,170.7,142.6,204,192c36.7,53.2,60,119.4,60,169.7 c0,33.4-14.5,91.4-30.5,121.4c-50.3,95.7-190,207.4-348.1,277.5c-21.8,9.7-48.4,21.8-59.5,26.6c-10.6,4.8-22.2,9.2-25.6,9.2 s-12.1,3.4-18.9,7.3c-15,8.2-70.6,29.5-102.5,39.2c-27.1,7.7-62.9,19.8-94.3,30.9C8380.7,16062.1,8327.5,16073.7,8336.2,16058.2z"></path> </g> </svg> 