<?xml version="1.0" encoding="UTF-8"?> <!-- Generator: Adobe Illustrator 23.0.3, SVG Export Plug-In . SVG Version: 6.00 Build 0) --> <svg xmlns="http://www.w3.org/2000/svg" xmlns:xlink="http://www.w3.org/1999/xlink" version="1.1" id="layer" x="0px" y="0px" viewBox="0 0 652 652" style="enable-background:new 0 0 652 652;" xml:space="preserve"> <g> <g id="Layer_1-2"> <g> <path style="fill:#FFFFFF;" d="M246.1,318.7c24.6,0,32.4-15.5,33-28.4c0.2-3.9,0.2-7.9,0-11.7c-0.7-13-8.1-28.6-33-28.6 s-32.2,15.6-33,28.6c-0.2,3.9-0.2,7.6,0,11.5C213.8,303.3,221.3,318.7,246.1,318.7z M235.7,279.8c0.2-5.9,2.7-10.9,10.4-10.9 c7.5,0,10.1,5,10.4,10.9c0.1,3.4,0.1,5.6,0,9.2c-0.2,5.9-2.9,10.9-10.4,10.9s-10.1-5-10.4-10.9 C235.6,285.2,235.6,283.2,235.7,279.8z"></path> <polygon style="fill:#FFFFFF;" points="300.1,317.2 322.9,317.2 322.9,270.8 341.2,270.8 341.2,251.6 281.8,251.6 281.8,270.8 300.1,270.8 "></polygon> <path style="fill:#FFFFFF;" d="M402.7,309.9c2.7-3.1,4.2-7.2,4.1-11.4c0.4-4.1-1-8.1-3.7-11.2c-2.1-2-4.7-3.5-7.5-4.2 c5.7-2,9.1-6.2,9.1-14.1c0-11-7-17.4-22.6-17.4h-35.7v65.7h35.4C393.3,317.2,399.2,313.9,402.7,309.9z M367.9,266.3h8.5 c4.5,0,7,1,7,5.5s-2.5,5.6-7,5.6h-8.5V266.3z M367.9,302.4v-12.6h9.9c4.2,0,7,1.1,7,6.1c0,5.2-2.6,6.4-7,6.4L367.9,302.4z"></path> <path style="fill:#FFFFFF;" d="M430.2,317.2l2.6-9.2h23.1l2.6,9.2h23.2l-22.2-65.7h-30.9l-22,65.7H430.2z M444.9,269.4l6.1,21.2 h-13.1l6.1-21.2H444.9z"></path> <polygon style="fill:#FFFFFF;" points="306.3,355 282.3,323.1 260.8,323.1 260.8,390.2 282.3,390.2 282.3,357.8 306.8,390.2 327.9,390.2 327.9,323.1 306.3,323.1 "></polygon> <polygon style="fill:#FFFFFF;" points="523,341.3 529,323.1 475.3,323.1 475.3,390.2 523.1,390.2 529,372.1 497.3,372.1 497.3,364.2 515.5,364.2 520.5,348.9 497.3,348.9 497.3,341.3 "></polygon> <polygon style="fill:#FFFFFF;" points="508.5,297.9 508.5,251.6 485.8,251.6 485.8,317.2 530.4,317.2 536.6,297.9 "></polygon> <path style="fill:#FFFFFF;" d="M434.6,365.1h15.1v6.9c-3.2,0.7-6.5,1.1-9.7,1.1c-9.5,0-12.6-5.4-13-10.6c-0.2-3.9-0.2-7.6,0-11.5 c0.2-5.1,2.6-10,15-10c6.2,0.1,12.4,0.6,18.5,1.6l5.5-18c-8.9-2-17.9-3-27-2.9c-24.1,0-32.9,11.2-34.9,27.7 c-0.4,4.6-0.4,9.4,0,14c0.7,12.4,7.6,28.4,31.9,28.4c11.4,0.1,22.7-1.9,33.4-6v-37h-29.2L434.6,365.1z"></path> <path style="fill:#FFFFFF;" d="M591.9,390.2l-14.7-24.6c3.7-1.2,7.1-3.6,9.5-6.9c2.9-3.9,4.2-8.6,4.1-13.4 c0.2-4.9-1.1-9.6-4.1-13.5c-3.6-4.7-9.5-8.9-21.2-8.9h-33.1V390h22v-25l14,25.1L591.9,390.2z M554.3,354.6v-13.4h7.2 c5.2,0,7.5,1.4,7.5,6.9c0,5.2-2.2,6.5-7.5,6.5H554.3z"></path> <polygon style="fill:#FFFFFF;" points="140.6,323.1 131.2,354.6 121.5,323.1 94.6,323.1 82.4,390.2 105.6,390.2 110.9,351.8 123.4,390.2 139.1,390.2 151.7,352.4 156.1,390.2 179.6,390.2 167.4,323.1 "></polygon> <polygon style="fill:#FFFFFF;" points="109.6,299.3 128.1,299.3 133.9,281.7 109.6,281.7 109.6,270.8 137.4,270.8 143.6,251.6 86.9,251.6 86.9,317.2 109.6,317.2 "></polygon> <path style="fill:#FFFFFF;" d="M141.5,290.3c0.9,12.9,8.2,28.4,33,28.4c24.6,0,32.2-15.5,33-28.6c0.2-3.9,0.2-7.6,0-11.5 c-0.7-13-7.7-28.6-33-28.6c-24.9,0-32.4,15.6-33,28.6C141.2,282.5,141.2,286.4,141.5,290.3z M164.1,279.9 c0.2-5.9,2.6-10.9,10.4-10.9c7.5,0,10.1,5,10.4,10.9c0.1,3.5,0.1,5.5,0,9.1c-0.2,5.9-2.9,10.9-10.4,10.9s-10.1-5-10.4-10.9 C164,285.3,164,283.2,164.1,279.9L164.1,279.9z"></path> <path style="fill:#FFFFFF;" d="M353.1,323.1l-21.4,67.1h23.5l2.5-9.4H380l2.5,9.4h23.2l-21.4-67.1H353.1L353.1,323.1z M362.6,363.1l5.9-21.9h0.9l5.9,21.9H362.6z"></path> <path style="fill:#FFFFFF;" d="M204.1,323.1l-21.4,67.1h23.5l2.5-9.4h22.2l2.5,9.4h23.4l-21.4-67.1H204.1z M213.6,363.1l5.9-21.9 h0.9l5.9,21.9H213.6z"></path> </g> <polygon style="fill:#FFFFFF;" points="563.1,297.9 563.1,251.6 540.5,251.6 540.5,317.2 585,317.2 591.2,297.9 "></polygon> <g> <path style="fill:#FFFFFF;" d="M577.9,253.3v4.9h-2.4v-4.9h-2.6v-1.9h7.5v1.9L577.9,253.3L577.9,253.3z"></path> <path style="fill:#FFFFFF;" d="M584.7,251.4l1.2,3.4c0.1,0.2,0.2,0.5,0.2,0.9l0,0c0-0.2,0.1-0.6,0.2-0.9l1.1-3.4h3.6v6.6h-2.1 v-3.6c0-0.5,0-1,0.1-1.4l0,0c-0.1,0.5-0.2,0.9-0.5,1.4l-1.5,3.7h-2l-1.4-3.7c-0.2-0.5-0.4-1-0.4-1.4l0,0c0.1,0.5,0.1,0.9,0.1,1.4 v3.6h-2.1v-6.6H584.7z"></path> </g> </g> </g> </svg> 