<?xml version="1.0" encoding="UTF-8"?> <!-- Generator: Adobe Illustrator 25.0.0, SVG Export Plug-In . SVG Version: 6.00 Build 0) --> <svg xmlns="http://www.w3.org/2000/svg" xmlns:xlink="http://www.w3.org/1999/xlink" version="1.1" id="Layer_1" x="0px" y="0px" viewBox="0 0 1000 1000" style="enable-background:new 0 0 1000 1000;" xml:space="preserve"> <g> <path style="fill:#FFFFFF;" d="M297.5,43.4c22.7,14.4,133.1,94.7,230.9,344.6h16.9c0,0-131.7-326.5-247.8-346.5v-0.6h-8.4v696.4 c2.7-1.8,5.5-3.7,8.4-5.4V43.4z"></path> <path style="fill:#FFFFFF;" d="M500,782c15,0,20.4-4.6,36.7-20.4c19.1-18.5,48-46.6,101.3-46.6c53.3,0,82.2,28,101.3,46.6 c16.3,15.8,21.7,20.4,36.7,20.4c15,0,20.4-4.6,36.7-20.4c19.1-18.5,48-46.6,101.3-46.6v-25.9H378.1V716c43.1,5,68.1,29,85.1,45.6 C479.6,777.4,485,782,500,782z"></path> <path style="fill:#FFFFFF;" d="M776,908.5c-24.2,0-35-10.5-51.4-26.3c-18.7-18.1-41.9-40.6-86.6-40.6c-44.8,0-68,22.5-86.6,40.6 C535,898,524.2,908.5,500,908.5c-24.2,0-35-10.5-51.4-26.3c-18.6-18.1-41.9-40.6-86.6-40.6c-44.8,0-68,22.5-86.6,40.6 C259,898,248.2,908.5,224,908.5c-24.2,0-35-10.5-51.4-26.3c-18.6-18.1-41.9-40.6-86.6-40.6v50.6c24.2,0,35,10.5,51.4,26.3 c18.6,18.1,41.9,40.6,86.6,40.6c44.8,0,68-22.5,86.6-40.6c16.3-15.9,27.1-26.3,51.4-26.3c24.2,0,35,10.5,51.4,26.3 c18.6,18.1,41.9,40.6,86.6,40.6s68-22.5,86.6-40.6c16.3-15.9,27.1-26.3,51.4-26.3c24.2,0,35,10.5,51.4,26.3 c18.7,18.1,41.9,40.6,86.6,40.6c44.8,0,68-22.5,86.6-40.6c16.3-15.9,27.1-26.3,51.4-26.3v-50.6c-44.8,0-68,22.5-86.6,40.6 C811,898,800.2,908.5,776,908.5z"></path> <path style="fill:#FFFFFF;" d="M914,736.1c-44.8,0-68,22.5-86.6,40.6c-16.3,15.9-27.1,26.3-51.4,26.3c-24.2,0-35-10.5-51.4-26.3 c-18.7-18.1-41.9-40.6-86.6-40.6c-44.8,0-68,22.5-86.6,40.6c-16.3,15.9-27.1,26.3-51.4,26.3c-24.2,0-35-10.5-51.4-26.3 c-18.6-18.1-41.9-40.6-86.6-40.6c-44.8,0-68,22.5-86.6,40.6c-16.3,15.9-27.1,26.3-51.4,26.3c-24.2,0-35-10.5-51.4-26.3 c-18.6-18.1-41.9-40.6-86.6-40.6v50.6c24.2,0,35,10.5,51.4,26.3c18.6,18.1,41.9,40.6,86.6,40.6c44.8,0,68-22.5,86.6-40.6 c16.3-15.9,27.1-26.3,51.4-26.3c24.2,0,35,10.5,51.4,26.3c18.6,18.1,41.9,40.6,86.6,40.6s68-22.5,86.6-40.6 c16.3-15.9,27.1-26.3,51.4-26.3c24.2,0,35,10.5,51.4,26.3c18.7,18.1,41.9,40.6,86.6,40.6c44.8,0,68-22.5,86.6-40.6 c16.3-15.9,27.1-26.3,51.4-26.3V736.1z"></path> <ellipse transform="matrix(0.9982 -5.986936e-02 5.986936e-02 0.9982 -11.3928 42.1204)" style="fill:#FFFFFF;" cx="697.2" cy="211.2" rx="63.8" ry="63.8"></ellipse> <path style="fill:#FFFFFF;" d="M511.6,423.1c0,14.3,11.6,25.8,25.8,25.8h66.5h0.9v-0.9l84.9-84.9l9.7,9.7l-85.3,85.3v45.5h-15.9 h-74.9v74.9v100.1h74.9V578.6h182.1v-74.9v-132c0-45.9-37.2-83.1-83.1-83.1c-44,0-80,34.3-82.8,77.6l-31,31h-46 C523.1,397.3,511.6,408.8,511.6,423.1z"></path> <rect x="623.9" y="591.2" style="fill:#FFFFFF;" width="178.5" height="84.7"></rect> </g> </svg> 