<?xml version="1.0" encoding="UTF-8"?> <!-- Generator: Adobe Illustrator 22.0.0, SVG Export Plug-In . SVG Version: 6.00 Build 0) --> <svg xmlns="http://www.w3.org/2000/svg" xmlns:xlink="http://www.w3.org/1999/xlink" version="1.1" id="Layer_1" x="0px" y="0px" viewBox="0 0 500 500" style="enable-background:new 0 0 500 500;" xml:space="preserve"> <g id="g3010" transform="translate(-253.06906,-187.79274)"> <g id="g2826" transform="matrix(2.6829652,0,0,-2.6829652,-1160.0479,569.40838)"> <g id="g3016" transform="matrix(3.0279789,0,0,3.0279789,-1773.2259,-155.95884)"> <g id="g2880" transform="translate(759.558,98.48)"> <path id="path2882" style="fill:#FFFFFF;" d="M2.4-22.1v-18.3h5.8v6.6h4l1.6,4H8.2v3.7h6.8 l1.5,4H2.4"></path> </g> <g id="g2884" transform="translate(777.985,98.48)"> <path id="path2886" style="fill:#FFFFFF;" d="M-0.3-22.1l0-18.3h5.7v18.3H-0.3"></path> </g> <g id="g2888" transform="translate(810.749,84.124)"> <path id="path2890" style="fill:#FFFFFF;" d="M-5-20.1l2.2,7.6l2.3-7.6H-5z M0.3-7.8h-5.9 L-12.2-26h5.5l0.7,2.5h6.4L1.2-26h5.7L0.3-7.8"></path> </g> <g id="g2892" transform="translate(789.225,98.48)"> <path id="path2894" style="fill:#FFFFFF;" d="M-1.9-22.1v-18.3h5.8v6.6h4l1.6,4H3.9v3.7h6.8 l1.5,4H-1.9"></path> </g> <g id="g2896" transform="translate(823.148,96.207)"> <path id="path2898" style="fill:#FFFFFF;" d="M-6.8-21.8h0.4c0.1,0,0.1,0,0.2,0 c0.1,0,0.1,0,0.2,0c0,0,0.1,0.1,0.1,0.1c0,0,0,0.1,0,0.2c0,0.1,0,0.1,0,0.2c0,0-0.1,0.1-0.1,0.1c0,0-0.1,0-0.2,0.1 c-0.1,0-0.1,0-0.2,0h-0.4V-21.8z M-7.2-20.8h0.9c0.3,0,0.5-0.1,0.7-0.2c0.1-0.1,0.2-0.3,0.2-0.5c0-0.2-0.1-0.4-0.2-0.5 c-0.1-0.1-0.3-0.2-0.5-0.2l0.6-1.1h-0.5l-0.6,1h-0.3v-1h-0.5V-20.8z M-6.4-23.7c0.2,0,0.4,0,0.6,0.1c0.2,0.1,0.4,0.2,0.5,0.4 c0.1,0.2,0.3,0.3,0.3,0.5c0.1,0.2,0.1,0.4,0.1,0.7c0,0.2,0,0.5-0.1,0.7c-0.1,0.2-0.2,0.4-0.3,0.5c-0.1,0.2-0.3,0.3-0.5,0.4 c-0.2,0.1-0.4,0.1-0.6,0.1c-0.2,0-0.4,0-0.6-0.1c-0.2-0.1-0.4-0.2-0.5-0.4c-0.1-0.2-0.3-0.3-0.3-0.5C-8-21.5-8-21.7-8-22 c0-0.2,0-0.5,0.1-0.7c0.1-0.2,0.2-0.4,0.3-0.5c0.1-0.2,0.3-0.3,0.5-0.4C-6.8-23.6-6.6-23.7-6.4-23.7z M-6.4-24.1 c-0.3,0-0.6,0.1-0.8,0.2c-0.3,0.1-0.5,0.3-0.7,0.5c-0.2,0.2-0.3,0.4-0.5,0.7c-0.1,0.3-0.2,0.5-0.2,0.8c0,0.3,0.1,0.6,0.2,0.8 c0.1,0.3,0.3,0.5,0.5,0.7c0.2,0.2,0.4,0.3,0.7,0.5c0.3,0.1,0.5,0.2,0.8,0.2c0.3,0,0.6-0.1,0.8-0.2c0.3-0.1,0.5-0.3,0.7-0.5 c0.2-0.2,0.3-0.4,0.5-0.7c0.1-0.3,0.2-0.5,0.2-0.8c0-0.3-0.1-0.6-0.2-0.8c-0.1-0.3-0.3-0.5-0.5-0.7c-0.2-0.2-0.4-0.3-0.7-0.5 C-5.8-24-6.1-24.1-6.4-24.1"></path> </g> </g> </g> </g> </svg> 