<?xml version="1.0" encoding="UTF-8"?> <!-- Generator: Adobe Illustrator 22.0.0, SVG Export Plug-In . SVG Version: 6.00 Build 0) --> <svg xmlns="http://www.w3.org/2000/svg" xmlns:xlink="http://www.w3.org/1999/xlink" version="1.1" id="Layer_1" x="0px" y="0px" viewBox="0 0 126 126" style="enable-background:new 0 0 126 126;" xml:space="preserve"> <g> <path id="a" style="fill:#FFFFFF;" d="M45.4,95C15.7,49.9,18.2,31.1,20.8,25C-0.5,48.5,1.4,84.8,25,106.1c8.8,8,20,13,31.8,14.4 C56.8,113.6,51.2,104,45.4,95"></path> </g> <g> <path id="b" style="fill:#FFFFFF;" d="M63,97.2c33.2-43.9,40-69.5,41-74C93.2,12.2,78.4,6,63,6c-15.4,0-30.2,6.2-41,17.2 C23,27.8,29.8,53.3,63,97.2"></path> </g> <g> <path id="c" style="fill:#FFFFFF;" d="M106,25c2.6,6.1,5,24.5-23.7,68.5l-0.1,0.2c-6.1,9.5-12.2,19.6-12.2,26.8 c31.5-3.7,54-32.2,50.3-63.7C119,44.9,113.9,33.8,106,25"></path> </g> </svg> 