<?xml version="1.0" encoding="UTF-8"?> <!-- Generator: Adobe Illustrator 24.1.2, SVG Export Plug-In . SVG Version: 6.00 Build 0) --> <svg xmlns="http://www.w3.org/2000/svg" xmlns:xlink="http://www.w3.org/1999/xlink" version="1.1" id="Layer_1" x="0px" y="0px" viewBox="0 0 100 100" style="enable-background:new 0 0 100 100;" xml:space="preserve"> <g> <path style="fill:#FFFFFF;" d="M20.385,16.672c3.65,2.241,6.472,5.291,8.703,8.915c1.166,1.895,2.124,3.891,2.854,5.994 c0.122,0.351,0.239,0.558,0.651,0.289c0.477-0.312,0.984-0.583,1.489-0.85c4.368-2.313,9.022-3.603,13.958-3.857 c0.428-0.022,0.531-0.144,0.407-0.569c-0.381-1.298-0.629-2.626-0.801-3.968c-0.657-5.132-0.231-10.129,1.869-14.916 c0.057-0.13,0.187-0.261,0.044-0.488c-2.221,1.765-3.904,3.914-5.018,6.511c-1.11,2.586-1.527,5.301-1.482,8.112 c-0.128-0.127-0.189-0.248-0.24-0.373c-2.011-4.894-4.304-9.648-7.028-14.189c-1.151-1.918-2.397-3.772-3.778-5.533 c-0.082-0.104-0.141-0.287-0.298-0.249c-0.169,0.041-0.116,0.23-0.124,0.36c-0.035,0.553-0.074,1.107-0.087,1.66 c-0.154,6.565,0.728,13.026,1.972,19.45c0.116,0.597,0.236,1.193,0.355,1.789c-3.266-4.94-7.673-7.913-13.693-8.419 C20.195,16.581,20.298,16.619,20.385,16.672z"></path> <path style="fill:#FFFFFF;" d="M20.057,51.854c1.132-0.324,2.26-0.666,3.396-0.975c0.383-0.104,0.615-0.312,0.804-0.658 c3.322-6.069,8.11-10.57,14.437-13.394c5.073-2.264,10.39-2.998,15.893-2.331c3.968,0.481,7.693,1.738,11.16,3.735 c0.333,0.192,0.616,0.214,0.975,0.102c1.091-0.34,2.194-0.641,3.29-0.965c0.173-0.051,0.44-0.02,0.472-0.243 c0.027-0.183-0.215-0.247-0.351-0.342c-5.787-4.033-12.212-6.048-19.259-6.095c-3.62-0.017-7.147,0.546-10.577,1.685 c-5.735,1.903-10.604,5.136-14.629,9.634c-2.517,2.813-4.489,5.977-5.951,9.458c-0.057,0.137-0.202,0.299-0.093,0.43 C19.743,52.038,19.915,51.894,20.057,51.854z"></path> <path style="fill:#FFFFFF;" d="M32.967,78.007c1.09,2.864,2.181,5.727,3.269,8.591c0.081,0.213,0.117,0.433,0.456,0.33 c1.308-0.398,2.622-0.778,3.936-1.157c0.207-0.06,0.307-0.161,0.341-0.387c0.374-2.5,0.759-4.999,1.143-7.498 c0.122-0.795,0.251-1.589,0.38-2.409c0.257,0.119,0.248,0.318,0.304,0.469c0.965,2.615,1.928,5.231,2.872,7.854 c0.126,0.351,0.27,0.45,0.634,0.338c1.207-0.372,2.422-0.721,3.638-1.065c0.296-0.084,0.456-0.208,0.501-0.55 c0.126-0.961,0.304-1.915,0.459-2.872c0.668-4.12,1.331-8.24,2.008-12.358c0.065-0.394-0.051-0.459-0.402-0.352 c-1.027,0.31-2.055,0.623-3.091,0.898c-0.364,0.097-0.498,0.276-0.535,0.638c-0.345,3.377-0.703,6.753-1.062,10.128 c-0.017,0.157,0.055,0.353-0.143,0.47c-0.174-0.147-0.194-0.364-0.262-0.554c-1.034-2.884-2.067-5.769-3.091-8.656 c-0.102-0.289-0.171-0.501-0.57-0.375c-1.122,0.354-2.255,0.676-3.387,0.996c-0.256,0.072-0.358,0.208-0.395,0.468 c-0.374,2.606-0.759,5.21-1.142,7.815c-0.152,1.035-0.31,2.069-0.469,3.13c-0.193-0.114-0.196-0.262-0.236-0.391 c-0.949-3.022-1.905-6.043-2.835-9.071c-0.116-0.377-0.276-0.404-0.598-0.306c-1.026,0.314-2.053,0.628-3.091,0.901 c-0.399,0.105-0.443,0.252-0.301,0.613C31.869,75.092,32.413,76.551,32.967,78.007z"></path> <path style="fill:#FFFFFF;" d="M81.252,77.98c-1.133,0.321-2.26,0.661-3.396,0.973c-0.359,0.099-0.595,0.281-0.782,0.611 c-1.872,3.307-4.257,6.193-7.224,8.571c-6.58,5.275-14.089,7.465-22.468,6.588c-3.796-0.397-7.381-1.544-10.74-3.369 c-0.378-0.205-0.72-0.249-1.135-0.12c-1.091,0.34-2.195,0.637-3.292,0.958c-0.178,0.052-0.462,0.049-0.494,0.225 c-0.042,0.229,0.252,0.295,0.415,0.404c5.654,3.753,11.878,5.637,18.659,5.683c3.142-0.01,6.03-0.381,9.036-1.224 c6.355-1.783,11.725-5.164,16.134-10.064c2.358-2.621,4.237-5.561,5.672-8.782c0.072-0.161,0.258-0.353,0.1-0.517 C81.607,77.782,81.411,77.935,81.252,77.98z"></path> <path style="fill:#FFFFFF;" d="M71.937,70.071c0.014,0.157,0.084,0.328-0.125,0.559c-0.126-0.168-0.218-0.319-0.336-0.444 c-2.061-2.173-4.131-4.337-6.18-6.521c-0.255-0.271-0.46-0.326-0.804-0.216c-0.873,0.279-1.752,0.549-2.644,0.757 c-0.519,0.121-0.637,0.358-0.588,0.864c0.446,4.617,0.872,9.237,1.289,13.856c0.034,0.373,0.164,0.427,0.489,0.329 c0.977-0.296,1.957-0.582,2.941-0.853c0.301-0.083,0.361-0.243,0.333-0.532c-0.147-1.481-0.275-2.965-0.41-4.447 c-0.124-1.359-0.248-2.718-0.386-4.23c0.194,0.164,0.275,0.222,0.342,0.292c2.092,2.191,4.189,4.377,6.266,6.583 c0.286,0.304,0.531,0.412,0.94,0.276c0.87-0.289,1.749-0.559,2.639-0.774c0.467-0.113,0.599-0.291,0.541-0.777 c-0.164-1.357-0.266-2.721-0.391-4.083c-0.301-3.275-0.604-6.55-0.899-9.826c-0.029-0.322-0.09-0.466-0.472-0.342 c-0.971,0.314-1.954,0.593-2.939,0.86c-0.319,0.086-0.394,0.232-0.363,0.552C71.442,64.659,71.688,67.365,71.937,70.071z"></path> <path style="fill:#FFFFFF;" d="M25.964,63.062c0.027-0.521-0.06-1.104-0.178-1.681c-0.63-3.072-3.006-4.857-6.134-4.599 c-2.738,0.226-5.251,1.348-7.881,2.002c-0.209,0.052-0.261,0.195-0.24,0.393c0.023,0.224,0.028,0.449,0.049,0.673 c0.226,2.395,0.456,4.79,0.68,7.186c0.195,2.085,0.383,4.171,0.581,6.256c0.022,0.234-0.049,0.576,0.411,0.434 c2.148-0.665,4.35-1.162,6.458-1.949C23.568,70.334,25.966,66.984,25.964,63.062z M16.834,69.412 c-0.407,0.152-0.511,0.015-0.544-0.372c-0.197-2.275-0.411-4.548-0.619-6.822c-0.006-0.069-0.01-0.138-0.016-0.207 c-0.096-1.109-0.095-1.107,0.996-1.42c0.983-0.282,1.965-0.595,3.006-0.371c1.394,0.301,2.235,1.344,2.435,2.998 c0.031,0.257,0.036,0.518,0.052,0.776c-0.005,2.388-1.36,4.16-3.82,4.967C17.83,69.123,17.318,69.23,16.834,69.412z"></path> <path style="fill:#FFFFFF;" d="M57.19,54.082c0-0.104,0.007-0.208-0.001-0.312c-0.024-0.311-0.036-0.624-0.083-0.931 c-0.386-2.525-1.659-4.358-4.182-5.103c-1.72-0.507-3.432-0.277-5.089,0.365c-4.301,1.666-6.884,5.866-6.278,10.201 c0.401,2.872,2.595,4.973,5.4,5.17C52.265,63.846,57.112,59.399,57.19,54.082z M49.228,59.922c-1.803,0.354-3.187-0.481-3.709-2.24 c-0.154-0.517-0.211-1.05-0.229-1.439c-0.004-2.801,1.767-4.854,4.396-5.241c1.665-0.245,2.982,0.626,3.449,2.283 C54.015,56.407,52.301,59.318,49.228,59.922z"></path> <path style="fill:#FFFFFF;" d="M31.546,87.968c-1.031-0.637-2.058-1.283-3.1-1.903c-0.308-0.183-0.391-0.325-0.234-0.692 c0.57-1.337,1.089-2.695,1.624-4.046c0.043-0.108,0.152-0.232,0.068-0.338c-0.108-0.138-0.261-0.024-0.383,0.011 c-0.983,0.279-1.96,0.576-2.944,0.847c-0.252,0.069-0.376,0.222-0.465,0.44c-0.208,0.513-0.418,1.025-0.63,1.536 c-0.069,0.168-0.09,0.391-0.381,0.207c-1.392-0.877-2.797-1.732-4.185-2.615c-0.381-0.242-0.695-0.573-0.878-1.004 c-0.278-0.655,0.047-1.349,0.791-1.685c0.684-0.31,1.083-0.168,1.392,0.541c0.09,0.207,0.184,0.202,0.352,0.152 c0.979-0.29,1.958-0.58,2.941-0.857c0.243-0.068,0.291-0.208,0.253-0.425c-0.196-1.124-0.75-1.962-1.876-2.339 c-2.615-0.874-6.49,1.075-7.307,3.708c-0.411,1.324-0.274,2.586,0.755,3.616c0.29,0.29,0.266,0.41-0.033,0.662 c-1.012,0.855-1.781,1.894-2.131,3.191c-0.653,2.423,0.324,5.208,3.88,5.046c2.608-0.119,4.859-1.164,6.713-3.016 c0.252-0.252,0.467-0.407,0.783-0.125c0.722,0.645,1.515,0.74,2.375,0.298c0.045-0.023,0.101-0.022,0.151-0.036 c0.942-0.277,1.883-0.555,2.841-0.837C31.835,88.088,31.673,88.047,31.546,87.968z M23.356,87.352 c-0.893,0.823-1.914,1.355-2.88,1.408c-1.421-0.007-2.046-0.787-1.816-1.924c0.145-0.714,0.584-1.242,1.08-1.736 c0.165-0.164,0.323-0.141,0.511-0.026c1.019,0.623,2.042,1.242,3.07,1.85C23.566,87.07,23.537,87.185,23.356,87.352z"></path> <path style="fill:#FFFFFF;" d="M37.022,60.563c1.527-1.046,2.443-2.462,2.582-4.346c0.125-1.695-0.711-3.222-2.147-3.805 c-1.141-0.463-2.319-0.388-3.471-0.076c-1.887,0.511-3.757,1.082-5.636,1.623c-1.062,0.305-1.064,0.3-0.965,1.383 c0.196,2.172,0.39,4.345,0.59,6.517c0.211,2.293,0.433,4.584,0.637,6.877c0.034,0.381,0.122,0.502,0.536,0.364 c0.919-0.306,1.853-0.569,2.791-0.811c0.384-0.099,0.482-0.271,0.441-0.654c-0.164-1.549-0.285-3.103-0.45-4.652 c-0.039-0.366,0.065-0.519,0.414-0.624c0.335-0.101,0.508,0.016,0.697,0.26c1.038,1.342,2.093,2.672,3.13,4.015 c0.184,0.238,0.361,0.319,0.662,0.228c1.109-0.338,2.222-0.661,3.339-0.974c0.375-0.105,0.491-0.199,0.183-0.56 c-1.158-1.356-2.275-2.748-3.433-4.104C36.65,60.908,36.703,60.782,37.022,60.563z M35.771,57.398 c-0.132,0.755-0.565,1.289-1.259,1.6c-0.823,0.368-1.712,0.532-2.566,0.807c-0.305,0.098-0.311-0.119-0.33-0.306 c-0.081-0.808-0.154-1.616-0.218-2.301c-0.066-0.976-0.066-0.976,0.771-1.21c0.548-0.153,1.092-0.326,1.645-0.459 C35.18,55.202,36.015,56.003,35.771,57.398z"></path> <path style="fill:#FFFFFF;" d="M86.954,64.058c-0.51-0.097-1.025-0.154-1.547-0.174c-0.984-0.037-1.976,0.007-2.942-0.24 c-0.417-0.107-0.779-0.299-0.909-0.759c-0.217-0.768,0.251-1.544,1.143-1.899c0.938-0.373,1.635-0.165,2.022,0.625 c0.096,0.196,0.179,0.322,0.423,0.25c1.145-0.339,2.29-0.673,3.437-1.004c0.226-0.065,0.291-0.189,0.253-0.424 c-0.216-1.332-1.207-2.471-2.549-2.707c-2.775-0.489-5.164,0.405-7.198,2.267c-1.194,1.093-1.68,2.504-1.525,4.131 c0.14,1.468,1.013,2.469,2.446,2.786c0.646,0.143,1.3,0.171,1.957,0.219c0.929,0.068,1.872-0.049,2.789,0.193 c0.914,0.242,1.257,1.018,0.805,1.849c-0.361,0.664-0.985,0.948-1.675,1.114c-0.819,0.197-1.389-0.083-1.707-0.866 c-0.099-0.245-0.185-0.323-0.447-0.245c-1.093,0.33-2.19,0.646-3.288,0.957c-0.266,0.075-0.37,0.202-0.3,0.485 c0.138,0.56,0.325,1.093,0.692,1.55c0.846,1.055,2.004,1.348,3.501,1.359c1.701-0.075,3.467-0.611,5.001-1.784 c1.322-1.011,2.151-2.335,2.331-4.016C89.876,65.78,88.866,64.42,86.954,64.058z"></path> <path style="fill:#FFFFFF;" d="M74.857,48.573c0.478,0.094,0.963,0.097,1.446,0.131c0.998,0.071,2.015-0.065,2.992,0.235 c0.874,0.268,1.169,1.052,0.709,1.849c-0.375,0.65-0.993,0.937-1.693,1.085c-0.819,0.173-1.35-0.091-1.656-0.858 c-0.101-0.253-0.18-0.349-0.481-0.255c-1.073,0.336-2.156,0.642-3.24,0.941c-0.328,0.091-0.383,0.245-0.307,0.565 c0.362,1.53,1.308,2.462,2.844,2.733c1.983,0.35,3.823-0.158,5.529-1.142c1.634-0.942,2.755-2.3,3.067-4.22 c0.356-2.187-0.64-3.603-2.805-4.012c-0.461-0.087-0.926-0.115-1.393-0.147c-0.982-0.068-1.975,0-2.942-0.244 c-0.404-0.102-0.748-0.3-0.897-0.712c-0.265-0.737,0.209-1.571,1.082-1.933c0.958-0.397,1.701-0.191,2.067,0.614 c0.123,0.27,0.238,0.308,0.508,0.224c1.041-0.323,2.083-0.648,3.139-0.914c0.48-0.121,0.504-0.349,0.393-0.746 c-0.484-1.736-1.771-2.62-4.122-2.602c-1.797,0.123-3.705,0.76-5.301,2.167c-1.084,0.955-1.727,2.147-1.791,3.619 C71.917,47.002,72.84,48.178,74.857,48.573z"></path> <path style="fill:#FFFFFF;" d="M68.098,43.257c-1.026-0.313-2.064-0.236-3.077,0.045c-2.001,0.555-3.988,1.159-5.989,1.711 c-0.417,0.115-0.544,0.273-0.502,0.713c0.449,4.67,0.88,9.341,1.3,14.014c0.034,0.381,0.186,0.367,0.466,0.284 c0.961-0.288,1.921-0.581,2.891-0.836c0.348-0.092,0.426-0.252,0.391-0.587c-0.151-1.464-0.263-2.931-0.424-4.393 c-0.043-0.39,0.064-0.546,0.437-0.654c1.046-0.301,2.117-0.532,3.111-0.997c2.325-1.088,3.795-2.787,3.887-4.885 C70.586,45.113,69.709,43.748,68.098,43.257z M65.447,49.95c-0.726,0.332-1.516,0.477-2.272,0.72 c-0.255,0.082-0.339-0.027-0.359-0.269c-0.084-1-0.171-1.999-0.271-2.997c-0.026-0.261,0.079-0.381,0.315-0.446 c0.667-0.183,1.324-0.409,1.999-0.557c1.219-0.267,1.905,0.309,1.911,1.559C66.774,48.918,66.292,49.564,65.447,49.95z"></path> <path style="fill:#FFFFFF;" d="M56.13,80.805c0.035,0.396,0.185,0.41,0.496,0.316c0.844-0.255,1.698-0.48,2.54-0.743 c0.902-0.281,0.763-0.084,0.7-0.997c-0.151-1.638-0.301-3.275-0.452-4.913c-0.269-2.913-0.546-5.825-0.798-8.74 c-0.039-0.449-0.173-0.538-0.598-0.399c-0.871,0.286-1.75,0.555-2.641,0.766c-0.487,0.115-0.57,0.339-0.526,0.798 C55.293,71.53,55.718,76.167,56.13,80.805z"></path> </g> </svg> 