<?xml version="1.0" encoding="utf-8"?>
<!-- Generator: Adobe Illustrator 24.1.2, SVG Export Plug-In . SVG Version: 6.00 Build 0)  -->
<svg version="1.1" id="Layer_1" xmlns="http://www.w3.org/2000/svg" xmlns:xlink="http://www.w3.org/1999/xlink" x="0px" y="0px"
	 viewBox="0 0 114.8 17" style="enable-background:new 0 0 114.8 17;" xml:space="preserve">
<style type="text/css">
	.st0{fill:#FFFFFF;}
</style>
<g>
	<path class="st0" d="M10.9,14.6c0,0.2-0.1,0.4-0.3,0.4H9.4c-0.3,0-0.3-0.1-0.3-0.4V9.1c0,0-0.3,0.9-0.4,1.3l-1.1,2.7
		c-0.1,0.2-0.2,0.4-0.5,0.4h-1c-0.2,0-0.4-0.1-0.5-0.4l-1.3-2.9C4.2,9.9,4,9.2,4,9.1v5.5C4,14.8,3.9,15,3.7,15H2.6
		c-0.3,0-0.3-0.1-0.3-0.4V5.5c0-0.2,0.1-0.4,0.3-0.4h1.1C3.8,5.2,3.9,5.2,4,5.4l2.2,5c0.2,0.4,0.4,1,0.4,1s0.2-0.6,0.4-1l2-5.1
		c0.1-0.1,0.2-0.1,0.4-0.1h1.2c0.3,0,0.3,0.1,0.3,0.4V14.6z"/>
	<path class="st0" d="M12.4,7.4c0-1.2,0.9-2.4,3.5-2.4s3.5,1.1,3.5,2.4v5.3c0,1.2-0.9,2.4-3.5,2.4s-3.5-1.1-3.5-2.4V7.4z M17.5,7.8
		c0-0.7-0.6-1.1-1.6-1.1s-1.5,0.4-1.5,1.1v4.6c0,0.7,0.6,1.1,1.5,1.1c1,0,1.6-0.4,1.6-1.1V7.8z"/>
	<path class="st0" d="M21.3,15C21,15,21,14.9,21,14.6v-9c-0.1-0.3,0-0.4,0.3-0.4h2.6c2.6,0,3.5,1,3.5,2.2v0.8c0,0.7-0.3,1.3-1.1,1.6
		c1,0.3,1.5,1,1.5,1.7v1.1c0,1.2-0.9,2.3-3.5,2.3h-3V15z M22.9,6.7v2.5H24c0.9,0,1.5-0.3,1.5-1.1V7.6c0-0.7-0.6-0.9-1.6-0.9H22.9z
		 M22.9,10.7v2.7h1.5c1,0,1.6-0.3,1.6-1.1v-0.6c0-0.6-0.6-1-1.6-1H22.9z"/>
	<path class="st0" d="M31.1,14.6c0,0.3-0.1,0.4-0.3,0.4h-1.3c-0.3,0-0.3-0.1-0.3-0.4v-9c0-0.3,0.1-0.4,0.3-0.4h1.3
		c0.3,0,0.3,0.1,0.3,0.4V14.6z M31.1,4.1c0,0.3-0.1,0.3-0.3,0.3h-1.2c-0.3,0-0.3-0.1-0.3-0.3V2.9c0-0.2,0.1-0.4,0.3-0.4h1.2
		c0.3,0,0.3,0.1,0.3,0.4V4.1z"/>
	<path class="st0" d="M34.7,13.4h3.2c0.2,0,0.4,0.1,0.4,0.3v0.9c0,0.3-0.1,0.4-0.4,0.4H33c-0.2,0-0.3-0.1-0.3-0.4v-9
		c0-0.3,0.1-0.4,0.3-0.4h1.3c0.3,0,0.3,0.1,0.3,0.4v7.8H34.7z"/>
	<path class="st0" d="M41.6,7.4c0-1.2,0.9-2.4,3.5-2.4s3.5,1.1,3.5,2.4v5.3c0,1.2-0.9,2.4-3.5,2.4s-3.5-1.1-3.5-2.4V7.4z M46.6,7.8
		c0-0.7-0.6-1.1-1.6-1.1s-1.5,0.4-1.5,1.1v4.6c0,0.7,0.6,1.1,1.5,1.1s1.6-0.4,1.6-1.1V7.8z"/>
	<path class="st0" d="M52.6,8.8c0.1,0.2,0.2,0.7,0.2,0.8c0-0.1,0.1-0.5,0.3-0.8l1.5-3.3c0.1-0.2,0.2-0.3,0.4-0.3h1.2
		c0.2,0,0.4,0.1,0.3,0.4l-2.7,5.6v3.4c0,0.2-0.1,0.4-0.3,0.4h-1.3c-0.3,0-0.4-0.1-0.4-0.4v-3.2l-2.7-5.9c-0.1-0.2,0-0.3,0.2-0.3h1.4
		c0.2,0,0.3,0.1,0.4,0.4L52.6,8.8z"/>
	<path class="st0" d="M59.3,12.4c0,0.7,0.6,1.1,1.5,1.1c1,0,1.6-0.4,1.6-1.1V5.6c0-0.3,0.1-0.4,0.3-0.4H64c0.3,0,0.3,0.1,0.3,0.4
		v7.2c0,1.2-0.9,2.4-3.5,2.4s-3.5-1.1-3.5-2.4V5.6c0-0.3,0.1-0.4,0.4-0.4H59c0.2,0,0.3,0.1,0.3,0.4C59.3,5.6,59.3,12.4,59.3,12.4z"
		/>
	<path class="st0" d="M72.9,14.6c0,0.2-0.1,0.4-0.3,0.4h-1.1c-0.2,0-0.3,0-0.3-0.2L68.4,10c-0.4-0.6-0.6-1.1-0.6-1.2v5.8
		c0,0.2-0.1,0.4-0.3,0.4h-1.1c-0.3,0-0.3-0.1-0.3-0.4V5.5c-0.2-0.2-0.1-0.3,0.1-0.3h1.1c0.2,0,0.2,0,0.3,0.1l2.9,5
		c0.2,0.4,0.5,1,0.5,1V5.5c0-0.2,0.1-0.4,0.3-0.4h1.1c0.3,0,0.3,0.1,0.3,0.4v9.1H72.9z"/>
	<path class="st0" d="M76.5,13.4h3.2c0.2,0,0.4,0.1,0.4,0.3v0.9c0,0.3-0.1,0.4-0.4,0.4h-4.9c-0.2,0-0.3-0.1-0.3-0.4v-9
		c0-0.3,0.1-0.4,0.3-0.4h1.3c0.3,0,0.3,0.1,0.3,0.4L76.5,13.4L76.5,13.4z"/>
	<path class="st0" d="M84.7,5.2c0.3,0,0.4,0.1,0.5,0.4l2.7,9.1c0.1,0.2,0,0.4-0.3,0.4h-1.3c-0.2,0-0.3-0.1-0.4-0.4l-0.5-1.8h-2.7
		l-0.5,1.8c-0.1,0.2-0.2,0.4-0.4,0.4h-1.2c-0.3,0-0.3-0.1-0.3-0.4L83,5.5c0.1-0.2,0.2-0.3,0.4-0.3H84.7z M84.4,9.7
		C84.2,9.1,84,7.3,84,7.1c0,0.2-0.3,2-0.4,2.6l-0.5,1.6h1.8L84.4,9.7z"/>
	<path class="st0" d="M90.7,11.3v3.4c0,0.3-0.1,0.4-0.3,0.4h-1.3c-0.3,0-0.3-0.1-0.3-0.4V5.6c0-0.3,0.1-0.4,0.3-0.4h3
		c2.6,0,3.5,1.1,3.5,2.4V9c0,0.9-0.4,1.7-1.6,2.1l1.6,3.6c0.1,0.2-0.1,0.4-0.3,0.4H94c-0.2,0-0.3-0.1-0.4-0.4l-1.4-3.4h-0.1H90.7z
		 M90.7,6.8v2.8h1.4c1,0,1.6-0.4,1.6-1.1V7.8c0-0.7-0.6-1.1-1.6-1.1h-1.4V6.8z"/>
</g>
<g>
	<g>
		<path class="st0" d="M108.2,2.4h2.6c0.1,0,0.3-0.1,0.3-0.3c0-0.1-0.1-0.3-0.3-0.3h-2.6c-0.1,0-0.3,0.1-0.3,0.3
			C107.9,2.3,108,2.4,108.2,2.4z"/>
		<path class="st0" d="M112.3,2.4h0.3c0.1,0,0.3-0.1,0.3-0.3c0-0.1-0.1-0.3-0.3-0.3h-0.3c-0.1,0-0.3,0.1-0.3,0.3
			C112,2.3,112.1,2.4,112.3,2.4z"/>
		<path class="st0" d="M109.8,14.2h-0.6c-0.4,0-0.7,0.3-0.7,0.7v0.1c0,0.4,0.3,0.7,0.7,0.7h0.6c0.4,0,0.7-0.3,0.7-0.7v-0.1
			C110.5,14.6,110.2,14.2,109.8,14.2z M110,15.1c0,0.1-0.1,0.2-0.2,0.2h-0.6c-0.1,0-0.2-0.1-0.2-0.2v-0.1c0-0.1,0.1-0.2,0.2-0.2h0.6
			c0.1,0,0.2,0.1,0.2,0.2V15.1z"/>
		<path class="st0" d="M112.9,1.2H106c-0.5,0-0.9,0.4-0.9,0.9v0.9v10.8v1.9c0,0.5,0.4,0.9,0.9,0.9h6.9c0.5,0,0.9-0.4,0.9-0.9v-1.9
			V2.9V2.1C113.8,1.6,113.4,1.2,112.9,1.2z M106,1.7h6.9c0.2,0,0.4,0.2,0.4,0.4v0.6h-7.7V2.1C105.6,1.8,105.8,1.7,106,1.7z
			 M113.3,13.5h-7.7V3.2h7.7V13.5z M112.9,16H106c-0.2,0-0.4-0.2-0.4-0.4V14h7.7v1.6C113.3,15.8,113.1,16,112.9,16z"/>
	</g>
	<path class="st0" d="M104.9,8.7l-3.2-3.2c0,0-0.1-0.1-0.2,0c-0.1,0-0.1,0.1-0.1,0.1v1.7h-4c-0.1,0-0.2,0.1-0.2,0.2v2.5
		c0,0.1,0.1,0.2,0.2,0.2h4V12c0,0.1,0,0.1,0.1,0.1c0,0,0,0,0.1,0c0,0,0.1,0,0.1,0l3.2-3.2c0,0,0-0.1,0-0.1
		C104.9,8.8,104.9,8.8,104.9,8.7z"/>
</g>
</svg>
