<?xml version="1.0" encoding="utf-8"?>
<!-- Generator: Adobe Illustrator 24.3.0, SVG Export Plug-In . SVG Version: 6.00 Build 0)  -->
<svg version="1.1" id="Layer_1" xmlns="http://www.w3.org/2000/svg" xmlns:xlink="http://www.w3.org/1999/xlink" x="0px" y="0px"
	 viewBox="0 0 212.5 145.3" style="enable-background:new 0 0 212.5 145.3;" xml:space="preserve">
<g>
	<g>
		<g>
			<path style="fill:#172F56;" d="M130.9,51.1c8.3,0,23,2.3,20.1,19.2c0,0,0.2,9.8-13.3,18.5l10.3,13.4c0,0-4.8-26.7,16.6-42.8
				c0,0,5.7-4.3,13.4-4.3c6.8,0,15.1,3.3,22.4,15.7c0,0,8.6,17.8-0.6,36c-9.2,18.1-21.2,19.5-21.2,19.5s-2.4,1.2-6.1,1.2
				c-5.3,0-13.3-2.4-20.8-13.8l-12.1,10.6l-18.2-25.8v22.1l-17.7,4.8v-6.8l-35.2,10.3l-1.6-4.3l-17,7.7l-5.2-25.7l-9.2,3.3l5.1,19.5
				L23,137.6L8.5,71.3l20.2-7.2l4.3,31l8-3.1l-5.7-26.2L55.7,58c0,0,7.9,58,11.3,62.1l-6.7-59l37.1-8.4l4.4,16.5L82.3,74l-0.5,9.1
				l14.9-3.9l3.6,13.7l-16.6,3.9l-0.5,8l21.1-4.6V56.5l21.2-5.1C125.5,51.5,127.8,51.1,130.9,51.1 M121.1,81.8
				c0,0,9.4-4.8,11.5-10.2c1-2.6-1.4-3.2-4.2-3.2c-3.1,0-6.7,0.8-6.7,0.8L121.1,81.8 M174.3,108.2c1.9,0,3.4-0.6,3.4-0.6
				s7-2.1,8.1-16.9c1.1-14.7-7-16.4-7-16.4c-0.3,0-0.6-0.1-0.9-0.1c-4.7,0-7.3,5.1-7.3,5.1s-8.1,11.8-4.8,21.7
				C167.8,107,171.5,108.2,174.3,108.2 M130.9,44.4v6.8V44.4c-3.6,0-6.1,0.4-6.4,0.4c-0.2,0-0.4,0.1-0.6,0.1l-20.4,4.8
				c-1.1-2.3-3.5-3.8-6.1-3.8c-0.5,0-1,0.1-1.5,0.2L61.1,54c-0.5-0.7-1.2-1.3-2-1.8c-1.1-0.6-2.2-0.9-3.4-0.9
				c-0.8,0-1.7,0.2-2.4,0.5l-19.8,7.7c-0.4-0.4-0.8-0.7-1.2-1c-1.1-0.7-2.3-1-3.5-1c-0.8,0-1.5,0.1-2.3,0.4L6.3,65.1
				c-3.2,1.1-5.1,4.5-4.3,7.8l14.5,66.2c0.4,2,1.8,3.7,3.6,4.6c0.9,0.5,2,0.7,3,0.7s2-0.2,2.9-0.6l17.6-8.2c0.1-0.1,0.3-0.1,0.4-0.2
				c0.6,1.2,1.6,2.2,2.9,2.9c1,0.5,2,0.7,3.1,0.7c1,0,1.9-0.2,2.8-0.6l10.8-4.9c1.3,1.3,3,2.1,4.9,2.1c0.6,0,1.3-0.1,1.9-0.3
				l26.8-7.8c0.4,1.3,1.2,2.4,2.3,3.3c1.2,0.9,2.6,1.4,4.1,1.4c0.6,0,1.2-0.1,1.8-0.2l17.7-4.8c3-0.8,5-3.5,5-6.5v-0.6l5.8,8.3
				c1.1,1.6,2.8,2.6,4.7,2.8c0.3,0,0.5,0,0.8,0c1.6,0,3.2-0.6,4.5-1.7l6.7-5.9c2.8,3.1,5.7,5.5,8.9,7.3c4.1,2.3,8.4,3.5,12.9,3.5
				c3.7,0,6.5-0.8,8-1.4c1.7-0.4,4.9-1.3,8.8-3.8c2.9-1.8,5.7-4.2,8.3-7c3.1-3.4,5.9-7.5,8.2-12.2c10.6-20.9,1.1-41.1,0.7-42
				c-0.1-0.2-0.2-0.3-0.3-0.5c-9.3-15.8-20.5-19.1-28.2-19.1c-9.7,0-16.7,5-17.5,5.6l0,0c-1.4,1.1-2.8,2.2-4.1,3.4
				c-0.7-1.7-1.7-3.2-2.9-4.6C147.7,45.8,138,44.4,130.9,44.4L130.9,44.4z M176.6,82.6c0.2-0.4,0.6-0.8,0.9-1.1
				c0.8,1,1.9,3.6,1.5,8.8c-0.6,8.4-3.4,10.7-3.9,11.1c-0.2,0-0.5,0.1-0.9,0.1c-0.5,0-0.6-0.1-0.7-0.2c-0.2-0.1-0.7-0.6-1.3-2.2
				c-1.1-3.2,0-7.2,1-10c1.3-3.3,2.9-5.7,2.9-5.7C176.4,83,176.5,82.9,176.6,82.6L176.6,82.6z"/>
			<path style="fill:#FFFFFF;" d="M200.3,70.8c-15.6-26.5-35.8-11.5-35.8-11.5c-21.4,16.1-16.6,42.8-16.6,42.8l-10.2-13.3
				c13.5-8.7,13.3-18.5,13.3-18.5c3.9-23.3-25.5-18.8-25.5-18.8l-21.2,5.1v43.7l-21.1,4.6l0.5-8l16.6-4.1l-3.6-13.7L81.8,83l0.5-9.1
				l19.5-4.8l-4.4-16.5l-37.1,8.5l6.7,59.1C63.6,116,55.7,58,55.7,58l-20.4,7.9L41,92.1l-8,3.1l-4.3-31L8.5,71.4L23,137.6l17.6-8.2
				l-5.1-19.5l9.2-3.3l5.1,25.5l17-7.7l1.6,4.3l35.2-10.3v6.8l17.7-4.8V98.3l18.2,25.8l12.1-10.6c12.8,19.5,26.9,12.7,26.9,12.7
				s12-1.4,21.2-19.5C208.9,88.7,200.3,70.8,200.3,70.8z M132.5,71.6C130.4,77,121,81.8,121,81.8l0.5-12.6
				C121.6,69.2,134.6,66.2,132.5,71.6z M185.8,90.8c-1.1,14.7-8.1,16.9-8.1,16.9s-8.5,3.5-11.8-6.4s4.8-21.7,4.8-21.7
				s2.9-5.7,8.1-5.1C178.7,74.4,186.9,76,185.8,90.8z"/>
		</g>
		<g>
			<path style="fill:#FFFFFF;" d="M172.3,10.9l-1.7,19.3l-0.9-0.4l-2.9-20.9l-11,0.4l-2.6,24.6L141,35.2v-4.5l9.8-1.4l-0.4-7.1
				l-8.6,0.5l-0.2-5l11.6-0.6l-0.1-9.6l-21.9,0.7l-0.3,9c0,0-6.7-13.6-27.3-8.4l0.6,24.1l-10.1,2L93.3,8.6L83,11.2l0.7,9.3
				c0,0-6-11.7-16.1-10.2c0,0-10.4,0.6-12.9,17.7l-15.5,6.3l0.8,8.2l8.2-3.7c0,0,0.4,5.2-4.6,7.2c-5.1,2-9-1.8-9.6-6
				s-0.2-10.9,3.6-13.3s8.4-0.6,8.4-0.6l5.1-7c0,0-4.6-8.3-16.8-2.6S24.1,38.3,24.2,39.9c0.2,1.6,1.5,11.5,8.2,15.4s17.6-3,17.6-3
				s5.9-4.1,6.4-11.1c0,0,6.2,10.4,15.1,9.3c8.8-1.1,13-12.9,13-12.9l0.3,10.3l19.4-5l0.4,3.7c0,0,18.1-0.4,25.4-15.3l0.9-1.2v16.4
				l21.2-3v4.6l9.3-1.3l0.7-11.3l6.8,11.4l10.1-0.6l4.5-35.5L172.3,10.9L172.3,10.9z M71.3,39.8c0,0-6.2,1.6-6.4-7.6
				c-0.2-9.3,4.5-10.7,4.5-10.7s5.1-1.6,6.6,8.2C77.5,39.3,71.3,39.8,71.3,39.8z M114,34.9V18.3c0,0,7.4-1.3,8.2,5.5
				S114,34.9,114,34.9z"/>
			<path style="fill:#172F56;" d="M153.2,7.6l0.1,9.6l-11.6,0.6l0.2,5l8.6-0.5l0.4,7.1l-9.8,1.4v4.5l12.2-1.3l2.6-24.6l11-0.4
				l2.9,20.9l0.9,0.4l1.7-19.3l0,0h11.1L179,46.5l-10.1,0.6l-6.8-11.4L161.4,47l-9.3,1.3v-4.6l-21.2,3V30.2l-0.9,1.2
				c-7.4,14.9-25.4,15.3-25.4,15.3l-0.4-3.7l-19.4,5l-0.3-10.3c0,0-4.2,11.8-13,12.9c-0.4,0.1-0.9,0.1-1.3,0.1
				c-8.1,0-13.8-9.4-13.8-9.4c-0.5,7-6.4,11.1-6.4,11.1s-6.5,4.2-12.6,4.2c-1.7,0-3.4-0.3-4.9-1.2c-6.8-3.9-8-13.8-8.2-15.4
				c-0.2-1.6-2-17.5,10.1-23.2c3.1-1.5,5.7-2,7.9-2c6.3,0,8.9,4.6,8.9,4.6l-5.1,7c0,0-1.7-0.7-3.8-0.7c-1.4,0-3,0.3-4.5,1.2
				c-3.8,2.4-4.2,9.1-3.6,13.3c0.5,3.4,3.2,6.5,6.9,6.5c0.9,0,1.8-0.2,2.7-0.5c5.1-2,4.6-7.2,4.6-7.2l-8.2,3.7l-0.8-8.2l15.4-6.4
				C57.3,11,67.7,10.4,67.7,10.4c0.6-0.1,1.2-0.1,1.8-0.1c9.1,0,14.4,10.3,14.4,10.3l-0.7-9.3l10.3-2.6L94.3,35l10.1-2l-0.7-24.1
				c3.3-0.8,6.3-1.2,8.9-1.2c13.7,0,18.4,9.5,18.4,9.5l0.3-9L153.2,7.6 M114,34.9c0,0,9-4.3,8.2-11.1c-0.6-4.9-4.6-5.6-6.8-5.6
				c-0.8,0-1.4,0.1-1.4,0.1V34.9 M70.3,39.9c0.6,0,1-0.1,1-0.1s6.2-0.4,4.6-10.2c-1.2-7.4-4.4-8.3-5.8-8.3c-0.5,0-0.8,0.1-0.8,0.1
				s-4.6,1.4-4.4,10.7C65.1,39,68.5,39.9,70.3,39.9 M153.2,0.8c-0.1,0-0.1,0-0.2,0l-21.9,0.7c-2,0.1-3.8,1-5,2.4
				c-3.4-1.7-7.9-3-13.5-3c-3.3,0-6.9,0.5-10.6,1.4c-1.4,0.3-2.6,1.1-3.4,2.1c-0.3-0.4-0.7-0.8-1.2-1.1c-1.2-0.9-2.6-1.4-4.1-1.4
				c-0.5,0-1.1,0.1-1.6,0.2L81.4,4.7c-1,0.2-1.8,0.7-2.6,1.3c-3-1.7-6.2-2.5-9.4-2.5c-0.8,0-1.7,0.1-2.5,0.2
				c-1.4,0.1-5.1,0.8-8.9,3.8c-1.6,1.3-3.1,2.8-4.3,4.5c-0.1-0.1-0.2-0.2-0.4-0.3c-3.1-2.5-6.9-3.8-11-3.8c-3.4,0-7.1,0.9-10.8,2.7
				C24.6,13.8,20,19.9,18.2,28c-0.9,3.9-1.1,8.1-0.7,12.4v0.1v0.1c0.4,3.5,2.3,15.1,11.5,20.5c2.4,1.4,5.2,2.1,8.3,2.1
				c7.9,0,15.5-4.7,16.3-5.3c0.1,0,0.1-0.1,0.2-0.1c0.4-0.3,2.6-1.9,4.7-4.6c3.7,2.7,7.6,4.1,11.6,4.1c0.7,0,1.4,0,2.2-0.1
				c3.1-0.4,6.1-1.6,8.8-3.6c1.1,0.7,2.4,1.1,3.7,1.1c0.6,0,1.1-0.1,1.7-0.2l13.1-3.3c1.2,1.4,3.1,2.3,5.1,2.3c0.1,0,0.1,0,0.2,0
				c0.6,0,5.8-0.2,12.1-2.5c2.6-1,5.1-2.1,7.3-3.5c0.2,1.6,1,3.2,2.3,4.3c1.2,1.1,2.8,1.7,4.4,1.7c0.3,0,0.6,0,0.9-0.1l14.2-2
				c0.4,0.8,0.9,1.5,1.6,2c1.2,1.1,2.8,1.7,4.5,1.7c0.3,0,0.6,0,0.9-0.1l9.3-1.3c1-0.1,1.9-0.5,2.7-1c1.1,0.7,2.4,1.1,3.8,1.1
				c0.1,0,0.3,0,0.4,0l10.1-0.6c3.3-0.2,5.9-2.7,6.3-5.9l4.5-35.5c0.2-1.9-0.4-3.9-1.6-5.3c-1.3-1.5-3.1-2.3-5.1-2.3h-11.1
				c-0.2,0-0.4,0-0.6,0c-1.2-1.3-3-2-4.8-2c-0.1,0-0.2,0-0.2,0l-9.1,0.3C156.3,1.4,154.8,0.8,153.2,0.8L153.2,0.8z"/>
		</g>
	</g>
	<path style="fill:#FFFFFF;" d="M121.1,52.5c0,0,11.6-4.2,21.8,0.7s-21.4,7.3-21.4,7.3L121.1,52.5z"/>
</g>
</svg>
