<?xml version="1.0" encoding="utf-8"?>
<!-- Generator: Adobe Illustrator 26.1.0, SVG Export Plug-In . SVG Version: 6.00 Build 0)  -->
<svg version="1.1" id="Layer_1" xmlns="http://www.w3.org/2000/svg" xmlns:xlink="http://www.w3.org/1999/xlink" x="0px" y="0px"
	 viewBox="0 0 1056.6 202" style="enable-background:new 0 0 1056.6 202;" xml:space="preserve">
<g id="Livello_1_1_">
</g>
<g id="Layer_1_00000121280000816817959920000000882230360127541942_">
</g>
<g>
	<path style="fill:#FFFFFF;" d="M264.2,72.2h17l-4,18.7h0.7l14.4-18.7h18.5l-20.3,24.6l9.8,25.4h-18l-7-19.5h-0.7l-4.1,19.5h-16.9
		L264.2,72.2z"/>
	<path style="fill:#FFFFFF;" d="M311.8,85.1h15.8l-7.8,37.1H304L311.8,85.1z M315.3,68.2h15.8l-2.3,11H313L315.3,68.2z"/>
	<path style="fill:#FFFFFF;" d="M332.3,114.8c0-2.2,0.4-4.9,1.2-8.6l2.2-10.2h-6.1l2.3-10.9h6.1l2.3-10.8h15.8l-2.3,10.8h7.4L359,96
		h-7.4l-2.5,12c-0.1,0.7-0.3,1.3-0.3,2c0,1.7,1.5,2.2,7.1,2.2l-2.1,10C337.4,122.2,332.3,121.9,332.3,114.8z"/>
	<path style="fill:#FFFFFF;" d="M360.7,113.9c0-2.6,0.3-6,1.2-10.2c3.1-15.1,7-19.2,14.4-19.2c4,0,7.7,0.5,9.6,4.2h0.7l1.2-3.7h15.1
		l-7.8,37.1h-15l0.7-4.1h-0.8c-2.6,3.9-6,4.7-9.3,4.7C363.9,122.7,360.7,120.8,360.7,113.9z M382.1,108.9c0.7-2,2.3-9,2.3-10.8
		c0-1.5-0.5-1.6-2.4-1.6c-3,0-3.1,0.1-4.6,7.1c-0.7,2.9-0.9,4.6-0.9,5.7c0,1.4,0.7,1.5,2.5,1.5C381,110.8,381.6,110.6,382.1,108.9z"
		/>
	<path style="fill:#FFFFFF;" d="M409.6,85.1h15l-0.7,4.1h0.8c2.6-3.9,6-4.7,9.3-4.7c6.6,0,9.8,2,9.8,8.8c0,2.6-0.3,6-1.2,10.2
		c-3.1,15.1-7,19.2-14.4,19.2c-4,0-7.7-0.5-9.6-4.2H418l-3.8,18.2h-15.6L409.6,85.1z M427.3,103.6c0.7-2.9,0.9-4.6,0.9-5.7
		c0-1.4-0.7-1.5-2.5-1.5c-2,0-2.5,0.1-3.1,1.8c-0.7,2-2.3,9.2-2.3,10.8c0,1.5,0.5,1.6,2.4,1.6C425.7,110.8,425.7,110.6,427.3,103.6z
		"/>
	<path style="fill:#FFFFFF;" d="M465.8,111.6c0-3.7,1.2-8.6,2.4-15.1c3.9-20.2,5.3-24.9,26.2-24.9c15.5,0,20.1,2.9,20.1,11.3
		c0,3.8-0.9,8.6-2.3,15c-4.7,20.3-5.4,24.9-26,24.9C470.5,122.7,465.8,119.8,465.8,111.6z M495.3,97.2c1.2-5.5,1.8-8.9,1.8-10.8
		c0-2.6-1.2-2.7-4.1-2.7c-5.1,0-5.2,0.3-7.9,13.4c-1.2,5.7-2,9-2,10.9c0,2.5,1.2,2.5,4.1,2.5C492.3,110.6,492.5,110.3,495.3,97.2z"
		/>
	<path style="fill:#FFFFFF;" d="M513.9,136l2-9.8h9.6c8,0,8.2,0,9.4-5.6c0.3-1.2,0.5-2.5,0.8-3.8H535c-3.1,3.9-6.8,4.7-9.5,4.7
		c-7.2,0-9.4-2.8-9.4-7.8c0-1.9,0.3-4.1,0.9-6.6l4.7-22h15.6l-3.9,18.4c-0.5,2.4-0.8,3.9-0.8,4.7c0,1.3,0.6,1.3,2,1.3
		c2.5,0,2.7-0.1,4-6l3.9-18.4H558l-7,33.1c-2.6,12.4-3.6,19-23.8,19C522.3,137.1,516.8,136.7,513.9,136z"/>
	<path style="fill:#FFFFFF;" d="M558.7,114.9c0-2,0.7-5.6,1.4-9.1l4.4-20.7H580l-3.9,18.6c-0.5,2.3-0.9,4.6-0.9,5.5
		c0,1.4,0.5,1.5,1.7,1.5c2.8,0,3-0.4,4.2-6l4.2-19.6h15.5l-7.8,37.1h-15l0.6-4.1h-0.7c-3.1,3.9-7.2,4.7-10,4.7
		C560.6,122.7,558.7,120.1,558.7,114.9z"/>
	<path style="fill:#FFFFFF;" d="M607.3,85.1h15l-0.6,4.1h0.7c3.1-3.9,7.2-4.7,10-4.7c7,0,9,2.5,9,7.6c0,2-0.6,5.6-1.3,9.1l-4.5,21
		h-15.5l3.9-18.6c0.5-2.3,0.9-4.6,0.9-5.5c0-1.4-0.5-1.5-1.7-1.5c-2.8,0-3,0.4-4.2,6l-4.2,19.6h-15.5L607.3,85.1z"/>
	<path style="fill:#FFFFFF;" d="M653.6,68.2h15.8l-11.4,54h-15.8L653.6,68.2z"/>
	<path style="fill:#FFFFFF;" d="M666,113.9c0-2.6,0.3-6,1.2-10.2c3.1-15.1,7-19.2,14.4-19.2c4,0,7.7,0.5,9.6,4.2h0.7l1.2-3.7h15.1
		l-7.8,37.1h-15l0.7-4.1h-0.8c-2.6,3.9-6,4.7-9.3,4.7C669.2,122.7,666,120.8,666,113.9z M687.5,108.9c0.7-2,2.3-9,2.3-10.8
		c0-1.5-0.5-1.6-2.4-1.6c-3,0-3.1,0.1-4.6,7.1c-0.7,2.9-0.9,4.6-0.9,5.7c0,1.4,0.7,1.5,2.5,1.5C686.4,110.8,686.9,110.6,687.5,108.9
		z"/>
	<path style="fill:#FFFFFF;" d="M714.7,85.1h15l-1,6.2h0.7c3.2-5.5,5.9-6.8,12.6-6.8L739.1,98c-9.7,0-12,1.8-14.1,11.7l-2.7,12.4
		h-15.5L714.7,85.1z"/>
	<path style="fill:#FFFFFF;" d="M746.5,85.1h15.8l-7.8,37.1h-15.8L746.5,85.1z"/>
</g>
<path style="fill:#FFFFFF;" d="M182.2,147.7c0,11.4,0,22.7,0,34.1c0.9,0,1.7,0,2.6,0c1.4,0,2.8-0.1,4.2,0.2c2.9,0.5,4.8,3.2,4.5,6.2
	c-0.2,2.7-2.7,5-5.5,5.1c-0.3,0-0.5,0-0.8,0c-41.7,0-83.3,0-125,0c-14.3,0-26.4-10.5-28.4-24.6c-0.2-1.3-0.3-2.7-0.3-4
	c0-26.1,0-52.3,0.1-78.4c0-15.6-0.2-31.2,0.1-46.8c0.2-12,5.8-20.7,16.6-26c3.8-1.9,7.9-2.7,12.2-2.7c41.6,0,83.2,0,124.9,0
	c3.7,0,6.1,2.4,6.1,6.2c0,41.6,0,83.1,0,124.7c0,3.7-2.4,6.1-6.1,6.1C185.7,147.7,184,147.7,182.2,147.7z M182,22.2
	c-0.4,0-0.6,0-0.9,0c-39.6,0-79.2,0-118.8,0c-1,0-2,0.1-2.9,0.3C51,24,45.3,30.9,45.3,39.5c0,33.8,0,67.7,0,101.5c0,0.3,0,0.5,0,0.9
	c0.2-0.1,0.3-0.2,0.4-0.2c5.4-3.9,11.5-5.6,18.2-5.6c39,0,78,0,117,0c0.4,0,0.7,0,1.1,0C182,98.1,182,60.2,182,22.2z M170.6,147.7
	c-0.5,0-0.8,0-1.2,0c-35.5,0-71,0-106.5,0c-4.3,0-8.2,1.3-11.5,4.2c-5,4.3-7.2,9.7-5.9,16.2c1.6,8.3,8.5,13.7,17.1,13.7
	c35.7,0,71.4,0,107.1,0c0.3,0,0.6,0,0.9,0C170.6,170.4,170.6,159.1,170.6,147.7z"/>
</svg>
