<?xml version="1.0" encoding="utf-8"?>
<!-- Generator: Adobe Illustrator 24.3.0, SVG Export Plug-In . SVG Version: 6.00 Build 0)  -->
<svg version="1.1" id="Layer_1" xmlns="http://www.w3.org/2000/svg" xmlns:xlink="http://www.w3.org/1999/xlink" x="0px" y="0px"
	 viewBox="0 0 424.5 95.9" style="enable-background:new 0 0 424.5 95.9;" xml:space="preserve">
<g>
	<path style="fill:#FFFFFF;" d="M243.3,29.9h-15.4c0,0-19-2.3-20.6,21.4l-2.1,26.5c0,0,0.5,9.8,10,11.8h6.9c0,0,13.9-1.5,17.5-3.6
		l2.3-33.7l-17.8,0.5v12.9l3.9-0.3L227.3,77c0,0-8.2,2.6-7.5-5.4l1.3-20.3c0,0,0.2-9.8,9.1-9.7l13.1,0.2V29.9z"/>
	<path style="fill:#FFFFFF;" d="M279.8,29.3l-22,1.9l-14.5,58.7h14.2l2.1-11l10.4-0.2l0.4,10l15.4-2.3L279.8,29.3z M261.9,66.4
		l5.8-22.8l1.7,22.8H261.9z"/>
	<polygon style="fill:#FFFFFF;" points="288.5,89.6 293.5,32.1 315.9,29.2 317.2,64.3 326.4,28.2 348,26.6 343.5,85.3 328.3,86.1 
		331.8,46.3 322.1,86.9 309.6,87.3 306.9,47.7 302.8,88 	"/>
	<polygon style="fill:#FFFFFF;" points="354.3,31.7 384.1,29 384.1,41.6 368.2,43.1 367.9,52.4 379.6,52.4 378.7,65.1 366.5,65.1 
		365.5,76.1 380.2,75.2 379.8,88.3 349.3,90.2 	"/>
	<path style="fill:#FFFFFF;" d="M418.8,29.7h-18c0,0-14.7,1.7-14.5,17.8l0,5.4v5.7c0,0-1.1,7.2,10,6.9c0,0,7.2-0.6,6.2,5.2
		c0,0,0.6,5.9-4.3,6.6c-4.9,0.7-13.7,0-13.7,0l-0.5,11.9h19.5c0,0,14.6,0,14.7-21.4c0,0,1.5-12.8-6.3-14.6h-7c0,0-5.2,1.2-4.2-6.9
		c0,0-1.1-5.4,6.3-5.2c7.3,0.2,11.8,0,11.8,0V29.7z"/>
</g>
<g>
	<polygon style="fill:#FFFFFF;" points="9.4,32.2 24.8,30.4 23.3,52.3 29.5,52.3 31.3,30.4 46.5,28.9 41.8,88.1 26.6,88.1 
		27.9,66.2 21.2,66.2 19.9,89.9 5,89.9 	"/>
	<polygon style="fill:#FFFFFF;" points="95.9,30.9 110.8,29.7 107.5,74.7 120.1,74.7 120.1,88.1 90.2,89.6 	"/>
	<polygon style="fill:#FFFFFF;" points="127.5,31.1 142.7,29.9 139.9,74.1 151.2,74.1 151.2,88 123.2,89.6 	"/>
	<polygon style="fill:#FFFFFF;" points="159.7,31.2 189.6,28.6 189.6,40.7 174.6,41.8 174.6,51.8 186.2,51.8 185.7,65.1 172.3,65.1 
		172.3,75.5 185.5,75.5 185.2,88.6 155.1,90.2 	"/>
	<path style="fill:#FFFFFF;" d="M60.3,6.3c0,0-6.1,6.7-3.4,11.1c2.7,4.4,7.8,3.2,7.8,3.2s7.8-2.7,5.7-10.8s-5.3-7-5.3-7
		S62.6,16.4,60.3,6.3z"/>
	<path style="fill:#FFFFFF;" d="M78.2,5.3c0,0-6.1,6.7-3.4,11.1s7.8,3.2,7.8,3.2s7.8-2.7,5.7-10.8c-2.1-8.1-5.3-7-5.3-7
		S80.5,15.4,78.2,5.3z"/>
	<path style="fill:#FFFFFF;" d="M78.6,29.6H66c0,0-13.8,2.6-14.7,15.7l-2.3,35c0,0,0.3,8.8,7.5,9.5h14.9c0,0,11.3-1.5,13.9-13.4
		l3.3-36.8C88.7,39.6,88.9,30.1,78.6,29.6z M73.6,46.3c0,0-2.2,25-2.3,26.8c-0.1,1.8-1.4,4.6-4.8,4.5c-3.3-0.1-2.4-4.4-2.4-4.4
		l2.4-26.9c0,0,0.4-5.3,4.2-4.6C74.6,42.3,73.6,46.3,73.6,46.3z"/>
</g>
</svg>
