<?xml version="1.0" encoding="utf-8"?>
<!-- Generator: Adobe Illustrator 24.1.2, SVG Export Plug-In . SVG Version: 6.00 Build 0)  -->
<svg version="1.1" id="Layer_1" xmlns="http://www.w3.org/2000/svg" xmlns:xlink="http://www.w3.org/1999/xlink" x="0px" y="0px"
	 viewBox="0 0 364.8 120.4" style="enable-background:new 0 0 364.8 120.4;" xml:space="preserve">
<style type="text/css">
	.st0{fill:#FFFFFF;}
</style>
<g>
	<g>
		<polygon class="st0" points="121,87.5 128.8,87.5 128.8,116.6 132.4,116.6 132.4,87.5 140.3,87.5 140.3,84.2 121,84.2 		"/>
		<path class="st0" d="M169.7,104c0,2.7,0,5.6-2.5,7.8c-1.3,1.1-3.5,1.8-5.3,1.8s-4.1-0.7-5.3-1.8c-2.5-2.1-2.5-5-2.5-7.8l-0.3-19.8
			h-3.6v21c0,2.8,0.3,5.4,2.1,7.8c2,2.7,5.3,4.3,9.5,4.3s7.5-1.7,9.5-4.3c1.8-2.5,2.1-5,2.1-7.8v-21h-3.6
			C169.7,84.2,169.7,104,169.7,104z"/>
		<path class="st0" d="M107,98.4l-3.1-1.4c-1.1-0.6-2.4-1.1-3.4-2.1c-1-0.8-1.3-1.5-1.3-2.8c0-3.1,2.2-5,5.4-5
			c1.8,0,2.9,0.7,3.6,1.1c0.8,0.6,1.5,1.5,2,2.4l2.5-1.8c-0.8-1.4-2-2.8-3.2-3.6c-1.5-1-3.2-1.4-5.2-1.4c-5.2,0-9.1,3.4-9.1,8.4
			c0,2.4,0.8,3.9,2.2,5.3s3.1,2.1,4.3,2.7l2.9,1.4c1.7,0.8,2.9,1.4,3.9,2.2c1.3,1,1.7,2.4,1.7,3.8c0,3.2-2.1,6.4-6.6,6.4
			c-1.5,0-3.2-0.4-4.6-1.8c-1-1-1.7-2.5-2-4.2l-3.5,1c0.6,2,1.4,4.2,3.1,5.7c2.2,2.2,5,2.7,7.1,2.7c5.9,0,10.3-3.9,10.3-9.9
			c0-2.4-0.7-4.2-2.4-5.9C110.6,100.1,109,99.2,107,98.4z"/>
		<rect x="223.5" y="84.2" class="st0" width="3.6" height="32.5"/>
		<path class="st0" d="M205.9,87.9c-4.2-3.5-8.8-3.8-12-3.8h-6.6v32.4h6.6c5.7,0,8.9-1.3,11.9-3.8c2.4-2,5.7-5.6,5.7-12.4
			C211.5,94.5,208.8,90.4,205.9,87.9z M203.5,110.3c-3.2,2.7-6.8,2.9-9.4,2.9H191V87.5h3.2c8.2,0,13.7,5,13.7,12.9
			C207.9,105,205.9,108.2,203.5,110.3z"/>
		<path class="st0" d="M255.9,83.6c-9.4,0-16.9,7.1-16.9,16.8s7.5,16.8,16.9,16.8s16.9-7.1,16.9-16.8S265.3,83.6,255.9,83.6z
			 M255.9,113.8c-7.3,0-13.1-6-13.1-13.4S248.7,87,255.9,87s13.1,6,13.1,13.4C269,107.8,263.2,113.8,255.9,113.8z"/>
	</g>
	<path class="st0" d="M86,65.6c5,4.9,13.7,9.9,26.3,9.9c10.6,0,18.7-3.2,24.7-8.7l0,0c0,0,8.4-6.3,11-17.6L169.8,74h13.3V6.5h-15.2
		v40.6c0,0-25.8-28.9-29.3-32.3c-7-6.4-15.6-9.8-26.1-9.8C99,5.1,90.6,10.4,86,15c-6,6-10.5,15.8-10.5,25.6
		C75.5,50.5,79.6,59.6,86,65.6z M97.7,25.2c3.6-3.6,8.9-5.7,14.7-5.7c6.1,0,11.5,2.5,14.8,5.7c0.7,0.7,1.3,1.4,1.8,2.2
		c1.7,2.7,7.7,13.4,0.4,25.1v0.1c-0.7,1.1-1.5,2-2.2,2.7c-3.2,3.2-8.1,5.7-14.9,5.7c-5.3,0-10.1-1.4-14.4-5.6
		c-4.2-4.1-6.1-8.9-6.1-15.1C91.7,33,94.8,28,97.7,25.2z"/>
	<path class="st0" d="M41.3,30.5v-12v-0.1h6.1c2,0,6,0,8.5,2c1.3,1,3.1,3.4,3.1,7.1c0,3.4-1.4,5.3-2.5,6.4c-2.7,2.7-6.4,2.8-9.2,2.8
		h-3.6v10.9l0.3,0.4l0,0c0,0,18,26.3,18,26.4h18.9L80.5,74h0.3L60.1,46.4c3.8-1,7.1-2.9,9.4-5.2c4.3-4.2,5.3-9.5,5.3-13.7
		c0-7.4-3.1-12.4-5.9-15.1c-3.2-3.1-8.5-6-17.2-6h-26v0.1v11.7v0.1v12V74h15.5V30.5z"/>
	<rect x="5.5" y="6.5" class="st0" width="15.5" height="67.5"/>
	<path class="st0" d="M360.3,37L360.3,37v-0.1L326.4,37v12.8h16.7c-1.3,5-4.4,7.6-4.9,8c-1.5,1.3-5,3.6-11.8,3.6
		c-5.2,0-9.7-1.3-13.7-5.3c-0.5-0.5-1.1-1.1-1.6-1.7c-0.1-0.1-0.1-0.3-0.3-0.3c-0.5-0.5-0.9-1.2-1.3-1.7c0-0.1-0.1-0.1-0.1-0.3
		c-1.3-2-2.3-4-2.9-6c0-0.1-0.1-0.3-0.1-0.3c-0.1-0.5-0.4-1.1-0.5-1.6c-0.4-1.5-0.7-2.9-0.9-4.1c0.8-4.8,2.7-10.9,7.7-15.8
		c4.1-4,8.5-5.3,13.7-5.3c6.8,0,10.2,2.4,11.8,3.7c0.4,0.4,2.9,2.5,4.4,6.6l13.2-6.4v-0.1l0,0c-1.6-3.3-3.5-6.4-6-8.9
		c-7.6-7.8-16.2-9.3-24.2-9.3c-8.1,0-16.9,1.3-24.8,9.4c-1.1,1.1-2.3,2.5-3.5,4.1l0,0c-0.9-1.3-2-2.7-3.1-3.7
		c-6.8-6.6-15.7-9.8-26.3-9.8h-0.1h-0.1c-13.5,0-22.1,5.4-26.6,10c-1.1,1.1-2.1,2.5-3.2,4.3v-0.1c-0.9-1.1-1.9-2.1-2.8-3.1
		c-8.4-8.1-17.8-9.3-26.8-9.3h-21.4V74h17.1v0.1h4.9c5.7,0,17.4-0.7,26.8-10.2c0.8-0.8,1.5-1.5,2.1-2.4c1.1,1.5,2.1,2.8,3.2,4
		c4.6,4.5,13,10,26.6,10h0.1h0.1c10.6,0,19.4-3.3,26.3-9.8c1.2-1.1,2.3-2.4,3.2-3.9c0,0,0,0.1,0.1,0.1c1.2,1.7,2.4,3.1,3.5,4.1
		c8,8.1,16.7,9.4,24.8,9.4c8.1,0,16.6-1.5,24.2-9.3s10.4-20.3,10.4-28.6L360.3,37L360.3,37z M228.7,44.7c-0.7,1.7-2.5,8.1-6.5,11.6
		c-5,4.3-12.2,4.5-15.5,4.5h-0.4h-3.9V19.3h4.3c4.8,0,11.4,0.8,16.5,5.8c2.7,2.7,5,7.4,6.1,14.6c0.1,0.7,0.3,1.5,0.3,2.1
		C229.3,43,229,44,228.7,44.7z M290,40.4c0-0.1,0-0.3-0.1-0.4c-0.1,0.8-0.3,1.5-0.5,2.3c-0.9,4.1-2.7,7.2-3.6,8.6
		c-0.9,1.7-2.1,3.2-3.2,4.4c-3.3,3.3-8.8,5.8-15,5.8c-5.8,0-11.2-2.1-14.7-5.8c-0.7-0.7-1.5-1.6-2.1-2.5c0,0-3.2-4.5-5.2-12.8
		c0-0.1,0-0.1,0.1-0.3c0,0.1,0,0.3,0,0.3c2-8.2,5.2-12.8,5.2-12.8c0.7-0.9,1.5-1.9,2.1-2.5c3.7-3.7,8.9-5.8,14.7-5.8
		c6.2,0,11.6,2.5,15,5.8c1.2,1.2,2.3,2.7,3.2,4.4c0.9,1.5,2.5,4.5,3.6,8.6c0.1,0.8,0.4,1.5,0.5,2.3C290,40.2,290,40.3,290,40.4z"/>
</g>
</svg>
