<?xml version="1.0" encoding="utf-8"?>
<!-- Generator: Adobe Illustrator 26.1.0, SVG Export Plug-In . SVG Version: 6.00 Build 0)  -->
<svg version="1.1" id="Layer_1" xmlns="http://www.w3.org/2000/svg" xmlns:xlink="http://www.w3.org/1999/xlink" x="0px" y="0px"
	 viewBox="0 0 1056.6 202" style="enable-background:new 0 0 1056.6 202;" xml:space="preserve">
<g id="Livello_1_1_">
</g>
<g id="Layer_1_00000121280000816817959920000000882230360127541942_">
</g>
<path style="fill:#FFFFFF;" d="M25.9,13.5c17,0,33.8,0,51.2,0c0,16.5,0,33,0,49.5c0.3,0.1,0.5,0.1,0.8,0.2c4-5.3,8-10.6,12-15.9
	c8-10.6,15.9-21.3,24-31.8c0.8-1.1,2.4-2.1,3.7-2.1c15.4-0.1,30.9-0.1,46.3-0.1c0.4,0,0.9,0.1,1.7,0.2c0,16.6,0,33.1,0,49.6
	c0.3,0.1,0.5,0.2,0.8,0.3c0.7-0.9,1.4-1.7,2.1-2.6C179.7,46,190.9,31.2,202,16.2c1.5-2.1,3.1-3,5.8-3c15.3,0.1,30.6,0.1,46,0.1
	c1.1,0,2.2,0,3.7,0c-0.5,1-0.7,1.7-1.1,2.3c-28.5,37.3-57.1,74.6-85.7,111.9c-0.8,1-2.3,1.9-3.5,1.9c-16.4,0.1-32.9,0.1-49.3,0.1
	c-0.6,0-1.3-0.2-2.2-0.4c0-16.7,0-33.2,0-49.8c-0.2-0.1-0.5-0.2-0.7-0.4c-0.9,1.2-1.8,2.3-2.7,3.5c-11.1,14.9-22.1,29.7-33.2,44.5
	c-0.9,1.2-2.6,2.4-3.9,2.4c-15.8,0.2-31.5,0.1-47.3,0.1c-0.5,0-1.1-0.1-1.9-0.2C25.9,90.7,25.9,52.2,25.9,13.5z"/>
<path style="fill:#FFFFFF;" d="M428,13.7c0,1.2,0,2.4,0,3.6c0,19,0.1,37.9-0.1,56.9c0,2.1-0.9,4.6-2.2,6.3
	c-11.3,15.4-22.8,30.6-34.1,46c-1.6,2.2-3.3,3.2-6.1,3c-2.8-0.2-5.5-0.1-8.6-0.1c0-17,0-33.7,0-51.4c-1.5,1.9-2.4,2.9-3.2,4
	c-11.3,15.1-22.6,30.2-33.9,45.3c-0.8,1-2.2,2-3.4,2c-15.5,0.1-31.1,0.1-46.6,0.1c-0.4,0-0.9-0.1-1.7-0.3c0-16.6,0-33.3,0-49.9
	c-0.3-0.1-0.5-0.2-0.8-0.2c-4,5.3-8,10.6-12,15.9c-8,10.7-16,21.5-24.1,32.1c-0.9,1.1-2.6,2.3-4,2.3c-16.3,0.2-32.7,0.1-49,0.1
	c-0.5,0-1.1-0.1-2-0.2c0.5-0.9,0.8-1.6,1.3-2.1c28.5-37.2,57-74.5,85.5-111.6c0.8-1.1,2.5-2.1,3.7-2.1c16.3-0.1,32.7-0.1,49-0.1
	c0.6,0,1.3,0.2,2.4,0.3c0,16.6,0,33.2,0,49.7c0.2,0.1,0.5,0.1,0.7,0.2c3.4-4.5,6.8-9,10.2-13.6c8.6-11.4,17.1-22.9,25.7-34.3
	c0.8-1.1,2.4-2.3,3.6-2.3c16.1-0.1,32.2-0.1,48.3,0C426.9,13.4,427.1,13.5,428,13.7z"/>
<path style="fill:#FFFFFF;" d="M52.2,158.7c-1.8,8.6-3.7,16.6-5.2,24.7c-0.6,2.9-1.5,4.4-4.9,4.2c-6.5-0.3-6.5-0.1-8-6.5
	c-2.5-10.3-4.9-20.6-7.4-30.9c-0.3-1.3-0.5-2.6-0.8-4.2c3.1,0,5.7-0.2,8.4,0.1c0.8,0.1,1.9,1.6,2.1,2.6c1.8,8.9,3.3,17.9,5.1,27.9
	c1.3-6.3,2.4-11.8,3.5-17.2c0.8-3.7,1.4-7.5,2.3-11.1c0.2-0.9,1.5-2.1,2.5-2.2c2.5-0.3,5.1-0.1,8.1-0.1c1.8,9.6,3.6,19,5.3,28.5
	c0.1,0,0.3,0,0.4,0c1.6-8.2,3.4-16.4,4.7-24.7c0.5-3.1,1.6-4.3,4.7-3.9c1.7,0.2,3.5,0,5.7,0c-1.3,5-2.4,9.6-3.6,14.2
	c-2.1,8.1-4.3,16.1-6.2,24.3c-0.5,2.2-1.4,3.1-3.8,3.1c-7.3-0.1-7.3,0.1-8.7-7.1C55,173.4,53.7,166.3,52.2,158.7z"/>
<path style="fill:#FFFFFF;" d="M280.9,146.4c0.7,13.4,1.4,27,2.1,40.8c-3,0-5.8,0-9.3,0c-0.4-9.9-0.7-19.8-1.1-29.7
	c-0.2,0-0.3-0.1-0.5-0.1c-1.6,5.3-3.3,10.5-4.9,15.8c-1.2,3.7-2.5,7.4-3.4,11.2c-0.9,3.6-3.5,2.2-5.6,2.5c-2,0.3-2.9-0.5-3.4-2.6
	c-2-8.2-4.2-16.4-6.4-24.6c-0.2-0.7-0.5-1.4-1.1-2.1c-0.5,9.8-0.9,19.6-1.4,29.6c-3,0-5.8,0-8.8,0c0.9-13.7,1.8-27.2,2.7-41.2
	c3.9,0,7.7-0.1,11.4,0.1c0.7,0,1.6,1.4,1.8,2.3c2.2,7.8,4.2,15.7,6.3,23.5c0.1,0.4,0.3,0.8,0.7,1.7c1.8-6.1,3.5-11.8,5.1-17.5
	c0.1-0.2,0.1-0.4,0.2-0.6C268.5,145.1,269.2,144.6,280.9,146.4z"/>
<path style="fill:#FFFFFF;" d="M439.5,77.8c0,17.8,0,34.5,0,51.4c-12.7,0-25.3,0-38.7,0C413.8,112,426.4,95.3,439.5,77.8z"/>
<path style="fill:#FFFFFF;" d="M195.3,187.4c0-1.8,0-3.4,0-4.9c0-10.8,0.1-21.6-0.1-32.4c-0.1-2.9,0.9-4.1,3.7-4
	c5.8,0.1,11.7-0.4,17.4,0.4c10.5,1.6,16.5,9.6,15.8,20.2c-0.7,12.2-6.5,18.9-18.8,20.6C207.5,188,201.5,187.4,195.3,187.4z
	 M204.7,166.5c0,3.9,0.1,7.8,0,11.7c0,1.7,0.7,2.3,2.3,2.4c8.9,0.7,15-5,15-14.3c0-9-5.4-13.8-14.6-13.2c-1.9,0.1-2.8,0.7-2.7,2.8
	C204.8,159.3,204.7,162.9,204.7,166.5z"/>
<path style="fill:#FFFFFF;" d="M81.2,166.9c0-16.2,14.2-26.1,28.5-19.9c2,0.9,3.9,2.2,5.5,3.7c7.1,6.9,8,21.3,2,29.7
	c-5.4,7.6-16.8,10.1-25.6,5.7C84.9,182.8,81.2,175.9,81.2,166.9z M111.7,166.7c-1.1-3.3-1.6-6.7-3.2-9.5c-3.4-5.9-10.8-5.8-14.7-0.2
	c-3.5,5.1-3.5,14.6,0.1,19.7c3.8,5.4,11.5,5.4,14.7-0.4C110.1,173.4,110.6,170,111.7,166.7z"/>
<path style="fill:#FFFFFF;" d="M418.5,170.2c-4.9,0-9.2-0.1-13.5,0.1c-0.6,0-1.6,1.6-1.7,2.5c-0.2,4.8-0.1,9.5-0.1,14.5
	c-3.3,0-6.1,0-9.2,0c0-13.7,0-27.2,0-41c2.9,0,5.8,0,9.1,0c0,5,0,10.1,0,15.4c5.2,0,10,0,15.2,0c0-5,0-10,0-15.3c3.4,0,6.3,0,9.5,0
	c0,13.6,0,27.2,0,40.9c-3,0-5.9,0-9.2,0C418.5,181.6,418.5,176.2,418.5,170.2z"/>
<path style="fill:#FFFFFF;" d="M150.6,168c6,5.1,5.3,12.6,8.1,19.5c-3.1,0-5.7,0.2-8.2-0.1c-0.9-0.1-2-1.3-2.4-2.2
	c-0.9-2.6-1.5-5.4-2.2-8c-1.4-5.2-3.3-6.4-9.2-5.6c0,5.1,0,10.3,0,15.9c-2.8,0-5.3,0.2-7.7-0.1c-0.7-0.1-1.8-1.3-1.8-2.1
	c-0.1-12.3-0.1-24.5,0-36.8c0-0.7,1.1-2.1,1.8-2.1c6.1-0.2,12.3-0.5,18.3,0.1c4.9,0.4,8.5,3.4,9.5,8.6c1.1,5.3-0.9,9.4-5.5,12.2
	C151.1,167.4,150.9,167.7,150.6,168z M136.6,164.8c3.2-0.6,5.9-0.7,8.3-1.7c2.6-1,3.4-4.2,2.3-6.9c-1.1-2.7-4.5-4-8.7-3.3
	c-3.1,0.5-1.6,2.9-1.8,4.5C136.4,159.5,136.6,161.6,136.6,164.8z"/>
<path style="fill:#FFFFFF;" d="M324.9,187.5c-3.1,0-5.8,0.1-8.6-0.1c-0.7,0-1.3-0.9-1.9-1.5c-0.2-0.2-0.2-0.6-0.3-1
	c-2.8-9-3-9.2-12.5-8c-0.8,0.1-1.6,1.1-2.3,1.9c-0.4,0.5-0.4,1.2-0.6,1.9c-2.1,7.5-3.1,8-11.5,6.2c2.4-7.9,4.8-15.8,7.2-23.6
	c1.5-5,3.1-10,4.6-15c0.5-1.8,1.4-2.4,3.3-2.4c9.6-0.2,9.7-0.2,12.6,8.9c3.1,9.7,6.1,19.3,9.1,29C324.4,184.9,324.6,186,324.9,187.5
	z M301.5,169.4c3,0,5.7,0,8.6,0c-1.5-5.2-2.8-10.1-4.4-15.7C304.2,159.4,302.8,164.3,301.5,169.4z"/>
<path style="fill:#FFFFFF;" d="M388.1,147.6c-0.7,2.3-1.3,4.4-1.9,6.8c-7.4-1.8-14.8-2.8-19.3,5c-3,5.3-2.9,11.1,0.8,16.1
	c4.7,6.3,11.3,5,18.3,3.8c0.4,1.9,1,3.9,1.2,5.9c0.1,0.5-0.6,1.4-1.1,1.7c-10.8,5.7-27.1-1.3-30.3-13.1c-2.5-8.8,0.3-18.5,6.9-23.7
	C369.3,144.9,381.1,143.6,388.1,147.6z"/>
<path style="fill:#FFFFFF;" d="M342.6,187.3c-3.3,0-6.2,0-9.5,0c0-11.1,0-22,0-33.3c-3.9,0-7.3,0-10.5,0c-0.4-0.5-0.6-0.6-0.7-0.8
	c-0.8-7.2-0.8-7.2,6.4-7.2c8.4,0,16.7,0,25.3,0c0,2.7,0,5.1,0,7.9c-3.6,0-7.1,0-11.1,0C342.6,165.2,342.6,176.1,342.6,187.3z"/>
<path style="fill:#FFFFFF;" d="M173.2,179.6c5.7,0,11,0,16.4,0c0,2.7,0,5.1,0,7.7c-8.5,0-16.9,0-25.5,0c0-13.6,0-27.2,0-41.1
	c3,0,5.9,0,9.1,0C173.2,157.3,173.2,168.2,173.2,179.6z"/>
</svg>
