<?xml version="1.0" encoding="utf-8"?>
<!-- Generator: Adobe Illustrator 26.1.0, SVG Export Plug-In . SVG Version: 6.00 Build 0)  -->
<svg version="1.1" id="Layer_1" xmlns="http://www.w3.org/2000/svg" xmlns:xlink="http://www.w3.org/1999/xlink" x="0px" y="0px"
	 viewBox="0 0 1056.6 202" style="enable-background:new 0 0 1056.6 202;" xml:space="preserve">
<g id="Livello_1_1_">
</g>
<g>
	<path style="fill:#FFFFFF;" d="M264.2,72.3h23.3l0.6,23.5h0.7l10.5-23.5h23.2l-10.7,50h-16.2l6-28.1h-0.8l-12.7,28.1h-11.3
		l-0.7-28.1h-0.8l-6,28.1h-15.7L264.2,72.3z"/>
	<path style="fill:#FFFFFF;" d="M326.8,85.2h15.8l-7.8,37.1H319L326.8,85.2z M330.3,68.3h15.8l-2.3,11H328L330.3,68.3z"/>
	<path style="fill:#FFFFFF;" d="M347.3,114.9c0-2.2,0.4-4.9,1.2-8.6l2.2-10.2h-6.1l2.3-10.9h6.1l2.3-10.8h15.8l-2.3,10.8h7.4
		L374,96.1h-7.4l-2.5,12c-0.1,0.7-0.3,1.3-0.3,2c0,1.7,1.5,2.2,7.1,2.2l-2.1,10C352.3,122.3,347.3,122.1,347.3,114.9z"/>
	<path style="fill:#FFFFFF;" d="M375.4,114.1c0-2.6,0.6-6.1,1.5-10.4c3.4-15.6,4.4-19.1,21-19.1c13.4,0,17.4,2.1,17.4,8.8
		c0,2.6-0.5,6.1-1.5,10.3c-3.5,15.6-4.6,19.1-21.1,19.1C379.4,122.8,375.4,120.7,375.4,114.1z M398.5,103.7c0.7-3.3,1-5.3,1-6.5
		c0-1.5-0.8-1.7-2.5-1.7c-3.1,0-3.1,0.4-4.7,8.2c-0.7,3.5-1.1,5.5-1.1,6.6c0,1.5,0.7,1.6,2.5,1.6
		C396.7,111.9,396.8,111.6,398.5,103.7z"/>
	<path style="fill:#FFFFFF;" d="M427,68.3h15.8l-11.4,54h-15.8L427,68.3z"/>
	<path style="fill:#FFFFFF;" d="M439.1,114.1c0-2.6,0.6-6.1,1.5-10.4c3.4-15.6,4.4-19.1,21-19.1c13.4,0,17.4,2.1,17.4,8.8
		c0,2.6-0.5,6.1-1.5,10.3c-3.5,15.6-4.6,19.1-21.1,19.1C443.1,122.8,439.1,120.7,439.1,114.1z M462.2,103.7c0.7-3.3,1-5.3,1-6.5
		c0-1.5-0.8-1.7-2.5-1.7c-3.1,0-3.1,0.4-4.7,8.2c-0.7,3.5-1.1,5.5-1.1,6.6c0,1.5,0.7,1.6,2.5,1.6
		C460.5,111.9,460.6,111.6,462.2,103.7z"/>
	<path style="fill:#FFFFFF;" d="M473.9,126.7c5.5,0,5.5-1.2,6-3.7l7.9-37.8h15.8l-7.3,34.4c-3.6,17.2-6.2,17.2-24.7,17.2
		L473.9,126.7z M491.5,68.3h15.8l-2.3,11h-15.8L491.5,68.3z"/>
	<path style="fill:#FFFFFF;" d="M510.2,85.2H526l-7.8,37.1h-15.8L510.2,85.2z M513.8,68.3h15.8l-2.3,11h-15.8L513.8,68.3z"/>
	<path style="fill:#FFFFFF;" d="M536,68.3h15.6L545,98.7h0.7l10.4-13.5h16.6l-15,18.2l7.6,18.9h-16.6l-4.9-13.4H543l-2.8,13.4h-15.5
		L536,68.3z"/>
	<path style="fill:#FFFFFF;" d="M589.8,114.1c0-2.6,0.6-6.1,1.5-10.4c3.4-15.6,4.4-19.1,21-19.1c13.4,0,17.4,2.1,17.4,8.8
		c0,2.6-0.5,6.1-1.5,10.3c-3.5,15.6-4.6,19.1-21.1,19.1C593.8,122.8,589.8,120.7,589.8,114.1z M613,103.7c0.7-3.3,1-5.3,1-6.5
		c0-1.5-0.8-1.7-2.5-1.7c-3.1,0-3.1,0.4-4.7,8.2c-0.7,3.5-1.1,5.5-1.1,6.6c0,1.5,0.7,1.6,2.5,1.6C611.2,111.9,611.3,111.6,613,103.7
		z"/>
	<path style="fill:#FFFFFF;" d="M630.3,136.2l2-9.8h9.6c8,0,8.2,0,9.4-5.6c0.3-1.2,0.5-2.5,0.8-3.8h-0.7c-3.1,3.9-6.8,4.7-9.5,4.7
		c-7.2,0-9.4-2.8-9.4-7.8c0-1.9,0.3-4.1,0.9-6.6l4.7-22h15.6l-3.9,18.4c-0.5,2.4-0.8,3.9-0.8,4.7c0,1.3,0.6,1.3,2,1.3
		c2.5,0,2.7-0.1,4-6l3.9-18.4h15.6l-7,33.1c-2.6,12.4-3.6,19-23.8,19C638.7,137.2,633.2,136.8,630.3,136.2z"/>
	<path style="fill:#FFFFFF;" d="M675,115c0-2,0.7-5.6,1.4-9.1l4.4-20.7h15.5l-3.9,18.6c-0.5,2.3-0.9,4.6-0.9,5.5
		c0,1.4,0.5,1.5,1.7,1.5c2.8,0,3-0.4,4.2-6l4.2-19.6h15.5l-7.8,37.1h-15l0.6-4.1h-0.7c-3.1,3.9-7.2,4.7-10,4.7
		C677,122.8,675,120.2,675,115z"/>
	<path style="fill:#FFFFFF;" d="M723.6,85.2h15l-0.6,4.1h0.7c3.1-3.9,7.2-4.7,10-4.7c7,0,9,2.5,9,7.6c0,2-0.6,5.6-1.3,9.1l-4.5,21
		h-15.5l3.9-18.6c0.5-2.3,0.9-4.6,0.9-5.5c0-1.4-0.5-1.5-1.7-1.5c-2.8,0-3,0.4-4.2,6l-4.2,19.6h-15.5L723.6,85.2z"/>
	<path style="fill:#FFFFFF;" d="M769.9,68.3h15.8l-11.4,54h-15.8L769.9,68.3z"/>
	<path style="fill:#FFFFFF;" d="M782.4,114.1c0-2.6,0.3-6,1.2-10.2c3.1-15.1,7-19.2,14.4-19.2c4,0,7.7,0.5,9.6,4.2h0.7l1.2-3.7h15.1
		l-7.8,37.1h-15l0.7-4.1h-0.8c-2.6,3.9-6,4.7-9.3,4.7C785.6,122.8,782.4,120.9,782.4,114.1z M803.8,109c0.7-2,2.3-9,2.3-10.8
		c0-1.5-0.5-1.6-2.4-1.6c-3,0-3.1,0.1-4.6,7.1c-0.7,2.9-0.9,4.6-0.9,5.7c0,1.4,0.7,1.5,2.5,1.5C802.7,110.9,803.2,110.7,803.8,109z"
		/>
	<path style="fill:#FFFFFF;" d="M831.1,85.2h15l-1,6.2h0.7c3.2-5.5,5.9-6.8,12.6-6.8l-2.9,13.5c-9.7,0-12,1.8-14.1,11.7l-2.7,12.4
		h-15.5L831.1,85.2z"/>
</g>
<g id="Layer_1_00000121280000816817959920000000882230360127541942_">
</g>
<g>
	<path style="fill-rule:evenodd;clip-rule:evenodd;fill:#FFFFFF;" d="M109.7,139.7l-9.3,0.2c-1.2,0.1-2.4,0.2-3.6,0.2
		c-0.6,2-0.7,3.8,0,5.5c3.7,8.2,7.8,23,7.8,23l-19.9,28.9h11.9l15.8-27.6l2.2-14.4c-1.2-2.4-2.4-4.8-3.7-7.1
		C109.3,145.7,109.1,142.8,109.7,139.7z"/>
	<path style="fill-rule:evenodd;clip-rule:evenodd;fill:#FFFFFF;" d="M214.2,31.9l-59.7,6.9c0,0,57-14.1,54.4-32.9l-76,20.7
		c0,0-32.5,14.7-16.8,33.4c15.7,18.7-22.9,22.9-22.9,22.9s10.4-34.5-18.5-45.7c0,0,31.2,3.2,21.7,42.2
		c24.4-37.6-14.8-58.2-40.7-55.2l2.3,10.7L40.1,65.9c0,0,5,6.6,11.3,2.5c0,0,8.1-6.2,10.1-6.1c2.1,0.1,11.6,0.2,9.3-13.3
		c0,0,6.1,9.5-3.1,16.6c0,0-2.7,10.4-7,14.9c-4.3,4.4-15,12.2-4.3,34l4.2-0.5c0,0-23.7,7.5-25,8.1c-1.3,0.6-4.2,5.6,3.9,11.3
		c8.1,5.6,11.6,9.2,11.6,9.2l18-1.9c0,0-1.3-6.3-8.5-7.9l-8.2,2.5l-9.3-8.7l26,0.6c0,0,10.4,10.2,31.2,8.4l11.2-0.3
		c0,0,3.2-8.6,10.8-10.9c0,0-12.3,13.3-6.1,21.6c6.1,8.2,22.5,24,22.5,24l-10.6,26.7h11.9l7.9-27.3l-12-19.7c0,0,17.8-7.8,18.2-21.1
		c11.2,7,0.9,20.9,5.8,38.5c5.8,20.9,31.7,10.7,31.7,10.7s-24.1-18.6-24.1-37.4c-0.1-12.5-8.9-17.3-14.8-19.1
		c-0.7-1.7-1.7-3.4-3.1-5.2c0,0-9.5-10.6-30.3-15c-20.8-4.4-18.5-10.1-18.5-10.1s22,14.3,53.3,10.1l-27.8-12.1c0,0,23,6.1,47.2-2.3
		l-33.2-9.6c0,0,42.1,6.1,54.4-4l-46.9-8.9c0,0,47.5,3.1,58.8-9.2l-53.3-1.8C153.3,52.9,210.6,50,214.2,31.9z"/>
	<path style="fill-rule:evenodd;clip-rule:evenodd;fill:#FFFFFF;" d="M49.9,97.8l-12.4-4.3c0,0-8.2-2.4-12.1,1.5
		c-3.8,3.9-14.5,23.4-14.5,23.4c13.6,6.9,12.6-2.3,14-6.9c2.9-5.2,5.5-11.2,5.5-11.2l20.5,10.6C49.6,105.6,49.4,101.3,49.9,97.8z"/>
</g>
</svg>
