<?xml version="1.0" encoding="utf-8"?>
<!-- Generator: Adobe Illustrator 24.1.2, SVG Export Plug-In . SVG Version: 6.00 Build 0)  -->
<svg version="1.1" id="Layer_1" xmlns="http://www.w3.org/2000/svg" xmlns:xlink="http://www.w3.org/1999/xlink" x="0px" y="0px"
	 viewBox="0 0 257 107.1" style="enable-background:new 0 0 257 107.1;" xml:space="preserve">
<style type="text/css">
	.st0{fill:#FFFFFF;}
</style>
<g id="Symbols">
	<g id="Logo" transform="translate(-10.000000, -10.000000)">
		<g transform="translate(10.000000, 10.000000)">
			<path id="Fill-1" class="st0" d="M10.4,66.7v-4.9h13.1v5.7c0,5.3,2.1,7.8,6.2,7.8l0,0c4.1,0,6.2-2.5,6.2-7.8
				c0-2.9-0.8-5.7-2.5-8.2c-1.6-2.5-3.7-4.9-6.2-7l-6.6-6.6c-2.9-2.5-4.9-5.3-6.6-8.6c-1.6-3.3-2.9-7.4-2.9-11.5
				c0-6.6,1.6-11.5,5.3-14.8c3.3-3.3,8.2-5.3,13.9-5.3s10.3,1.6,13.5,5.3c3.3,3.3,4.9,8.6,4.9,14.8v2.5H35.9v-3.3
				c0-5.3-2.1-7.8-6.2-7.8s-6.2,2.1-6.2,7.4c0,2.1,0.4,4.1,1.2,6.2c0.8,2.1,2.1,3.7,3.7,5.3s3.3,3.3,4.9,4.9
				c1.6,1.6,3.7,3.3,5.3,4.9s3.3,3.7,4.9,5.3c1.6,2.1,2.5,4.1,3.7,7c0.8,2.9,1.2,5.7,1.2,8.6c0,6.6-1.6,11.5-4.9,14.8
				c-3.3,3.3-7.8,5.3-13.5,5.3s-10.7-1.6-13.9-5.3C12.1,78.2,10.4,73.3,10.4,66.7"/>
			<path id="Fill-4" class="st0" d="M67.9,44.6h6.2c2.1,0,3.7-0.4,4.5-1.6c1.2-1.2,1.6-3.3,1.6-5.7v-12c0-2.9-0.4-4.5-1.6-5.7
				S76.1,18,74.1,18h-6.2V44.6z M55.1,86V6h18.5c12.7,0,18.9,6.6,18.9,19.7V36c0,13.1-6.2,19.7-18.9,19.7h-6.2v29.9H55.1V86L55.1,86
				z"/>
			<path id="Fill-6" class="st0" d="M111.3,42.1h4.9c2.5,0,4.5-0.8,5.7-2.1c1.2-1.2,2.1-3.3,2.1-6.6v-7.8c0-5.3-2.1-8.2-6.6-8.2
				h-6.2L111.3,42.1L111.3,42.1z M98.7,86V6h18.9c6.6,0,11.1,1.6,14.4,4.5c2.9,2.9,4.5,7.8,4.5,13.9v6.2c0,8.2-2.9,13.5-8.2,16.4
				c5.7,2.5,8.2,8.2,8.2,17.2v12.3v0.4c0,4.1,0.4,7,1.2,9H125c-0.8-2.5-1.2-5.7-1.2-9.8V63.4c0-3.7-0.8-6.2-2.1-7.8
				c-1.2-1.6-3.3-2.5-6.2-2.5H111v32.5H98.6L98.7,86L98.7,86z"/>
			<polygon id="Fill-8" class="st0" points="145,86 157.7,86 157.7,6 145,6 			"/>
			<path id="Fill-10" class="st0" d="M179.5,74.5h7.4c2.1,0,3.7-0.4,4.9-1.6s1.6-3.3,1.6-6.2v-7c0-3.7-0.8-6.2-2.1-7.8
				c-1.2-1.2-3.3-2.1-6.2-2.1h-5.7L179.5,74.5L179.5,74.5z M179.5,38.4h4.9c2.5,0,4.5-0.8,5.7-2.1c1.2-1.2,2.1-3.3,2.1-6.6v-4.4
				c0-5.3-2.1-8.2-6.6-8.2h-6.2v21.3H179.5z M166.8,86V6H186c6.6,0,11.1,1.6,14.4,4.5c2.9,2.9,4.5,7.8,4.5,13.9v2.9
				c0,8.2-2.9,13.5-8.2,16c6.2,2.5,9.4,8.2,9.4,17.2v6.6c0,6.2-1.6,11.1-4.9,13.9c-3.3,3.3-8.2,4.9-14.4,4.9L166.8,86L166.8,86z"/>
			<polygon id="Fill-11" class="st0" points="213.5,86 213.5,6 248,6 248,17.5 226.3,17.5 226.3,39.6 243.5,39.6 243.5,51.1 
				226.3,51.1 226.3,74.5 248,74.5 248,86 			"/>
			<polygon id="Fill-12" class="st0" points="10,102.4 248,102.4 248,91.3 10,91.3 			"/>
		</g>
	</g>
</g>
</svg>
