<?xml version="1.0" encoding="utf-8"?>
<!-- Generator: Adobe Illustrator 24.1.2, SVG Export Plug-In . SVG Version: 6.00 Build 0)  -->
<svg version="1.1" id="Layer_1" xmlns="http://www.w3.org/2000/svg" xmlns:xlink="http://www.w3.org/1999/xlink" x="0px" y="0px"
	 viewBox="0 0 1056.6 195" style="enable-background:new 0 0 1056.6 195;" xml:space="preserve">
<style type="text/css">
	.st0{fill:#4379BD;}
	.st1{fill:#FFFFFF;}
</style>
<g>
	<path id="a" class="st0" d="M68.1,145.4C21.9,75.2,25.7,46,29.7,36.4c-33,36.7-30.1,93.2,6.6,126.2C50.1,175,67.4,182.8,85.8,185
		C85.8,174.4,77.1,159.6,68.1,145.4"/>
</g>
<g>
	<path id="b" class="st0" d="M95.5,149c51.6-68.3,62.3-108.2,63.8-115.2C142.5,16.6,119.5,7,95.5,7s-47,9.6-63.8,26.8
		C33.2,40.8,43.8,80.6,95.5,149"/>
</g>
<g>
	<path id="c" class="st0" d="M162.4,36.5c4,9.4,7.8,38.1-36.9,106.7l-0.2,0.2c-9.5,14.7-19,30.5-19,41.7c49-5.7,84.1-50.1,78.4-99.2
		C182.7,67.6,174.8,50.3,162.4,36.5"/>
</g>
<g>
	<path id="d" class="st1" d="M289.6,119.2c-4,4.8-10.1,7.3-18.4,7.3s-14.4-2.4-18.4-7.3c-4-4.8-5.9-12.3-5.9-22.3
		c0-11,1.9-18.8,5.8-23.4c3.9-4.7,10-7,18.5-7s14.7,2.3,18.5,7c3.9,4.7,5.8,12.5,5.8,23.4C295.5,106.9,293.5,114.3,289.6,119.2
		L289.6,119.2z M227.9,96.8c0,30.3,14.4,45.5,43.3,45.5s43.3-15.2,43.3-45.5c0-16-3.6-27.8-10.7-35.2c-7.1-7.4-18-11.1-32.6-11.1
		s-25.4,3.7-32.6,11.1S227.9,80.8,227.9,96.8z"/>
</g>
<g>
	<path id="e" class="st1" d="M346.2,96.2V67.6h20.3c4.9,0,8.5,1.2,10.9,3.5S381,77,381,82s-1.3,8.6-4,10.9s-6.6,3.4-11.6,3.4
		L346.2,96.2L346.2,96.2z M327.6,141.2h18.7v-29.5H361c2.5,0,4.3,0.4,5.5,1.2c1.2,0.8,2.2,2.2,3.1,4.3l10.5,23.9h19.4l-10.8-24.9
		c-0.8-1.9-1.7-3.8-2.8-5.6c-1-1.4-2.1-2.7-3.4-3.8c5.2-1.7,9.8-5,13.1-9.4c3.2-4.5,4.8-10,4.6-15.5c0-9.4-2.5-16.7-7.4-22
		c-4.9-5.2-12.4-7.9-22.3-7.9h-42.7v89.2H327.6z"/>
</g>
<g>
	<path id="f" class="st1" d="M434.3,108.2l-32-56.2h19.5l21.9,40.3L465.5,52h19.4L453,108.2v32.9h-18.7L434.3,108.2L434.3,108.2z"/>
</g>
<g>
	<g>
		<path id="g" class="st1" d="M510.9,96.5l-31.4-44.4h22l20.6,29.7l20.6-29.7h22l-31.4,44.4l32.2,44.7h-22.3L522,111.5l-21.2,29.7
			h-22.3L510.9,96.5z"/>
	</g>
</g>
<g>
	<g>
		<path id="h" class="st1" d="M588.5,130.7c-6.8-7.7-10.2-18.3-10.2-31.8c0-15.3,3.3-27.2,9.7-35.7c6.5-8.5,16.9-12.7,31.1-12.7
			c9.5,0,18,1.2,25.4,3.7V61c-7.9-2.6-16.3-3.9-24.6-3.9c-12.3,0-21.1,3.6-26.3,10.7s-7.8,17.5-7.8,31.1c0,24.6,11.4,36.9,34.3,36.9
			c4.3,0,8.5-0.4,12.7-1.1c3.7-0.6,7.4-1.6,10.9-3V100h-25.3v-6.1h32.2v41.6c-3,1.9-7,3.6-12.2,4.8c-5.2,1.3-11.6,1.9-19.2,1.9
			C605.6,142.4,595.3,138.5,588.5,130.7"/>
	</g>
</g>
<g>
	<g>
		<path id="i" class="st1" d="M686.4,108.9l19.1-50.8l19.2,50.8H686.4z M667.1,141.2h7.9l9.8-26h41.8l9.8,26h7.7l-33.6-89.1h-9.7
			L667.1,141.2z"/>
	</g>
</g>
<g>
	<g>
		<path id="j" class="st1" d="M757.4,52.1h8.9l32.2,66l32.2-66h8.9v89.1h-7.5v-78l-30.6,62.5h-5.9l-30.7-62.5v78h-7.5L757.4,52.1
			L757.4,52.1z"/>
	</g>
</g>
<g>
	<g>
		<path id="k" class="st1" d="M860.2,141.2h7.6V52.1h-7.6V141.2z"/>
	</g>
</g>
<g>
	<g>
		<path id="l" class="st1" d="M889.8,52.1h7.2l55.2,77.7V52.1h7.6v89.1h-7.3l-55-77.6v77.6h-7.6V52.1H889.8z"/>
	</g>
</g>
<g>
	<g>
		<path id="m" class="st1" d="M987.2,130.7c-6.8-7.7-10.2-18.3-10.2-31.8c0-15.3,3.3-27.2,9.7-35.7c6.5-8.5,16.9-12.7,31.1-12.7
			c9.5,0,18,1.2,25.4,3.7V61c-7.9-2.6-16.3-3.9-24.6-3.9c-12.3,0-21.1,3.6-26.3,10.7s-7.8,17.5-7.8,31.1c0,24.6,11.4,36.9,34.3,36.9
			c4.2,0,8.5-0.4,12.7-1.1c3.7-0.6,7.4-1.6,10.9-3V100h-25.3v-6.1h32.2v41.6c-3,1.9-7,3.6-12.2,4.8c-5.2,1.3-11.6,1.9-19.2,1.9
			C1004.3,142.4,994,138.5,987.2,130.7"/>
	</g>
</g>
</svg>
