<?xml version="1.0" encoding="utf-8"?>
<!-- Generator: Adobe Illustrator 26.1.0, SVG Export Plug-In . SVG Version: 6.00 Build 0)  -->
<svg version="1.1" id="Layer_1" xmlns="http://www.w3.org/2000/svg" xmlns:xlink="http://www.w3.org/1999/xlink" x="0px" y="0px"
	 viewBox="0 0 1056.6 202" style="enable-background:new 0 0 1056.6 202;" xml:space="preserve">
<path style="fill:#FFFFFF;" d="M392.3,156.8c-2.9,4.1-6.6,7.4-11.2,9.6c-8,3.9-16.2,1.4-20.6-6.3c-3.7-6.5-4.1-13.7-3.7-21
	c0.7-13.9,4.7-27.1,9.2-40.1c0.5-1.3,0.8-2.7,1.2-4.1c-0.2-0.2-0.4-0.3-0.7-0.5c-0.9,0.9-2.2,1.7-2.8,2.9c-3.5,6.4-7.1,12.7-10,19.3
	c-3,6.8-5.3,13.9-5.4,21.4c0,1.8-1.1,2.7-2.8,3.2c-7.8,2.1-15.6-3.2-15.7-11.2c-0.2-11.6,3.9-22,10.3-31.5c1-1.4,2.5-3.6,4.3-2.6
	c1.2,0.6,1.6,3,2.1,4.7c0.3,1.1,0.1,2.4,0.1,4.2c1.7-2.5,3-4.5,4.4-6.4c4.3-5.8,8.7-11.6,14.9-15.5c2.6-1.6,5.7-2.8,8.7-3.3
	c4.7-0.8,7,1.6,6.2,6.2c-1,5.9-2.7,11.6-4,17.4c-2.3,10.7-3.7,21.6-2.1,32.6c0.3,2.1,0.9,4.2,1.6,6.2c2.7,7.4,7.8,11.9,15.8,13
	C392.3,155.5,392.3,156.2,392.3,156.8z"/>
<path style="fill:#FF7B00;" d="M90.2,13.3c3.1,1,6.5,1.6,9.4,3.1c8.8,4.4,13.9,11.6,15.1,21.4c0,0.4,0.3,0.7,0.5,1.3
	c6.3-4.3,12.5-8.3,17.2-14.2c0.5-0.6,0.8-1.5,1.2-2.2c0.9-1.7,0.3-2.9-1.4-3.4c-1.7-0.5-3.6-0.8-5.3-0.7c-2.2,0.2-4.4,1.1-6.6,1.6
	c-0.9,0.2-1.8,0-2.7,0c0-0.2-0.1-0.4-0.1-0.7c1.1-0.3,2.3-0.5,3.4-0.8c6.6-2.1,13.1-4.5,20.1-4.4c1.5,0,4,0.7,4.3,1.7
	c0.4,1.3-0.3,3.6-1.4,4.7c-3.4,3.5-7,7-11,10c-12.7,9.5-26.6,17.3-40.8,24.1c-9.8,4.7-20,8.8-30,13.1c-0.3,0.1-0.6,0.1-1,0.2
	c0-1,0-1.9,0-3c2.6-0.9,5.3-1.8,8.4-2.9c-1.3-1.5-2.6-2.8-3.7-4.2c-5.2-6.8-7.1-14.4-5.1-22.8c2.9-12.5,11-19.5,23.6-21.6
	c0.2,0,0.4-0.2,0.6-0.3C86.5,13.3,88.3,13.3,90.2,13.3z M104.6,33.2c2,1.4,2,3.1,1,4.8c-1.2,2-3.1,2.2-5.3,1.5c1.4,2.3,3,3,5,2.2
	c2.1-0.8,3.7-3.5,3.2-5.7C108.1,34.3,107.1,32.9,104.6,33.2z M90.6,22.8c3.3-2,5.1-1.2,6.1,2.4c0.4-1,1.1-2.5,0.6-3.1
	c-0.9-1.1-2.4-2.2-3.8-2.3C92.1,19.7,90.6,20.6,90.6,22.8z M72.6,42.9c-0.7-1.6-2-1.9-3.4-1.4c-1.8,0.6-2.7,2-2.6,3.8
	c0.1,1.2,0.5,2.3,2.2,2.4C67.3,44.7,68.4,43.4,72.6,42.9z M76.9,27.6c1-1.3,2.2-2.3,2-2.7c-0.3-0.8-1.4-1.6-2.2-1.8
	c-0.4-0.1-1.6,1.1-1.6,1.8C75.1,25.5,76,26.3,76.9,27.6z"/>
<path style="fill:#FFFFFF;" d="M136.9,148.4c2.2-5.9,3.8-11.4,6.1-16.5c10.6-23.3,24.9-44,44.3-60.8c4.1-3.6,9.1-6.2,13.9-8.8
	c1.6-0.9,3.9-0.9,5.8-0.7c1.9,0.1,3.1,1.5,2.7,3.5c-0.9,4.1-1.7,8.2-3.1,12.2c-6.7,18.6-11.2,37.5-10.8,57.4
	c0.1,7.6,1.3,15.1,4.1,22.2c2.1,5.3,5.4,9.5,10.8,12c3.9,1.8,7.6,1.8,11.4-0.6c0.8-0.5,2.1-0.5,3.1-0.7c0.2,1,0.7,2.1,0.5,3.1
	c-1.6,11-14.8,22-25.9,21.6c-4.9-0.2-9-2.2-12.5-5.6c-6.6-6.3-9.6-14.2-11.1-22.9c-3.5-21.2-0.2-41.8,6.8-61.9
	c1.5-4.4,3.2-8.7,4.9-13c-0.2-0.1-0.3-0.2-0.5-0.3c-4.4,6.7-9,13.3-13.3,20c-7.7,12.2-13.2,25.5-17.9,39.1c-1.4,4-2.9,8.1-4.7,12
	c-2.7,5.8-7.4,9.4-13.5,10.8c-6.5,1.5-13.2-2.2-16.3-8.8c-3.3-7.2-4.2-14.9-4.3-22.6c-0.1-5.3,0.4-10.7,0.3-16.1
	c-1,6.3-2.4,12.6-2.9,19c-0.7,8-0.8,16-1,24.1c-0.1,2.6-0.8,3.6-3.4,4c-7.7,1.3-15.5-4.3-16.6-12c-1-6.7,0.3-13.1,2.2-19.5
	c6.9-23.5,18.2-44.7,33.7-63.7c1-1.2,2.2-2.3,3.3-3.5c1.8-2.1,4.1-2.5,6.7-2.1c2.5,0.3,3.6,1.6,2.9,4.1c-1,3.7-2.2,7.3-3.4,10.9
	c-3.3,10-6.1,20.2-7,30.8c-0.8,9.3-0.6,18.7,2.1,27.8C134.6,144.7,135.8,146.3,136.9,148.4z"/>
<path style="fill:#FFFFFF;" d="M92.9,88.8c-8.7,8.7-17.4,17.4-23.9,28.1c-2,3.3-3.5,3.7-6.4,1.2c-1.9-1.7-3.8-3.6-5.2-5.8
	c-2.9-4.5-2.4-9,0.8-13.2c4.7-6.2,10.5-11.3,17-15.7c11.5-7.8,23.5-14.7,36.9-18.7c2.7-0.8,5.6-1,8.4-1.3c1.2-0.1,2.6,0.3,3.7,0.8
	c1.2,0.6,2,1.7,0.8,3.1c-9.6,11-17.3,23.2-23.7,36.2c-9.3,18.9-15.3,38.8-16.7,59.9c-0.2,3.6-1.4,4.6-5.2,4.5
	c-8.8-0.3-15.1-6.7-15.1-15.5c0-8.3,2.8-15.9,5.9-23.4c5.7-13.4,12.9-25.9,21.4-37.6c0.5-0.7,1-1.5,1.5-2.2
	C93.1,89,93,88.9,92.9,88.8z"/>
<path style="fill:#FFFFFF;" d="M295.7,129.2c-0.1,0.3-0.2,0.9-0.3,1.1c7.7,7,16.2,9.9,26.7,5.4c-1.5,3.9-3.6,6.5-6.2,8.8
	c-4.1,3.6-8.9,6-14,7.8c-5.7,2-11.4,3.7-17.3,5.6c2.1-3.6,5.9-3.8,9.2-5c-3.7-0.5-7.1,0.8-10.5,1.9c-3.5,1.2-7,2.1-10.5,3.1
	c-0.8,0.2-1.6,0-3,0c2.7-1.6,4.9-2.9,7.3-4.3c-4.1-2.2-8-2.5-12.2-1.1c-0.2-0.3-0.4-0.5-0.6-0.8c0.8-0.6,1.8-1,2.5-1.8
	c0.5-0.6,1-1.8,0.8-2.3c-0.4-0.7-1.7-1.4-2.4-1.3c-2.1,0.4-4,1.3-6,2c-1,0.4-1.9,0.9-2.8,1.3c-0.1-0.2-0.3-0.3-0.4-0.5
	c0.6-0.5,1.1-1,1.7-1.4c1.8-1.5,3.7-2.8,5.3-4.4c1-1.1,1.7-2.5,2.3-3.9c0.6-1.5,0.6-2.9-1.7-2.5c0.6-1.8,1.1-3.5,1.7-5.2
	c-0.2-0.2-0.4-0.4-0.7-0.6c-1.3,0.8-2.6,1.6-3.8,2.3c-0.5-2.1,0-3.8,3.4-9.2c-0.5,0-1,0-1.8,0c0.7-1.4,1.3-2.8,2-4.2
	c-0.6,0-1.1,0-2.2,0c1.6-2.1,3-4,4.5-6c-0.5-0.1-0.8-0.2-1.7-0.5c2.4-3.1,4.7-6,6.9-8.9c0.5-0.6,2.1-1,0.9-2.3
	c-0.1-0.1,0.5-0.9,0.9-1.2c7.6-5.9,16.1-9.6,25.9-9.9c1,0,2,0.3,3,0.7c-6.6,3.3-11.2,8.2-13.3,15.2c-1.2,4-1.4,8.1,0.1,12.2
	c-0.2-2.7,0.4-4.9,3.1-6c2.6-1,4.6-0.1,6.4,2.3c2.5-2.7,4.9-5.3,7.7-8.4c-1.5,0.1-2.7,0.3-4,0.3c-0.8,0-1.6-0.2-2.3-0.3
	c0.3-0.8,0.5-1.6,0.9-2.3c0.4-0.6,1.1-1.1,1.6-1.7c2-2.9,4.8-4.1,8.3-3.8c0.6,0,1.4-0.6,1.9-1.2c3.5-4.1,7.4-7.7,12.6-10.1
	c0.9,1.1,1.9,2.1,3.3,3.7c-0.7-1.8-1.2-3-1.9-4.7c3.6-0.7,6.9-1.4,10.4-2.1c0.3,3.4-0.9,5.9-2.4,8.3c-3.3,5.1-8.1,8.5-13,11.8
	c-1.6,1.1-3,1.9-3.1,4.4c-0.2,4.6-4.7,5.5-7.8,7.6c-0.2,0.2-1.1-0.1-1.2-0.3c-0.2-0.5-0.3-1.2,0-1.7c0.6-1.3,1.4-2.5,2.4-4.2
	c-3.5,3.1-6.5,5.7-9.5,8.3c3.2,2.9,4,5.3,2.9,8.2c-0.7,1.8-1,1.9-3.1,1.7c-0.8-0.1-1.6,0.7-2.4,0.6
	C298.4,129.8,297.1,129.4,295.7,129.2z M316.5,101.5c0.4,0.3,0.5,0.5,0.7,0.6c3,1.6,9.5-1.3,10.5-4.7c0.5-1.9-1.8-5-3.7-5
	c-3.1,0-7.8,4.5-8,7.9c1.7,0,3.3,0,5,0c0,0.2,0,0.4,0,0.6C319.5,101.2,318.2,101.3,316.5,101.5z M281.9,137c0.1-2.5-1.9-4.6-4.4-4.7
	c-2.5-0.1-4.6,1.9-4.7,4.4c-0.1,2.4,2,4.6,4.4,4.7C279.4,141.5,281.9,139.2,281.9,137z M273.1,129c-1.5-2.6-1.5-4.8,0.3-6.6
	c0.9-0.8,2.2-1.6,3.3-1.7c1.2-0.1,2.5,0.5,3.8,0.8c-0.7-2.8-2.7-4.3-5.6-3.9c-3.5,0.4-5.9,3.3-5.9,7
	C269,127.2,270.4,128.7,273.1,129z M303.1,140.3c0.4,2.9-0.4,4.5-3.5,4.3c1.6,1.5,3,1.4,4.1,0.2
	C304.8,143.6,305.1,142.1,303.1,140.3z M283.2,101c-1.5,1.6-1.4,2.9-0.2,4c1,1,2.1,0.8,3.2-0.3C283.8,104.8,283,103.5,283.2,101z
	 M282.7,97.8c-0.2-0.3-0.3-0.6-0.5-0.8c-1.8,1-3.6,2-5.3,3.1c0.2,0.3,0.3,0.5,0.5,0.8C279.2,99.9,280.9,98.9,282.7,97.8z
	 M282.1,114.4c0.6-1.1,1.2-1.8,1.4-2.5c0.1-0.2-1-1-1.1-1c-0.7,0.4-1.3,1-1.8,1.7C280.5,112.8,281.3,113.5,282.1,114.4z"/>
<path style="fill:#FFFFFF;" d="M214.9,126.4c3.6,0.2,3.6,0.2,9.4-2.8c-1.6,2.5-3.1,5.1-4.8,7.6c2,1.6,3.9,1.5,5.7,0.3
	c2.7-1.9,5.2-4,7.8-6c1.2-0.9,2.3-1.9,3.5-2.9c0.2,0.2,0.4,0.3,0.5,0.5c-0.5,0.7-0.9,1.3-1.4,2c-2.9,3.3-5.9,6.5-8.5,9.9
	c-1.3,1.7-2,3.9-3,5.9c7.7,1.8,17.8-8,21.1-15.5c-9.2-6.9-11.6-17.8-6.3-28c3.8-7.3,14-7.9,18.3-0.9c1.6,2.6,2.5,5.8,2.8,8.8
	c1.4,15.8-8.8,41.5-29,49.9c-7.7,3.2-14.5,2.5-19.4-2.6c-4.1-4.3-6.3-9.6-7.5-15.2c-3.2-15-1.2-29.1,8.6-41.4
	c3.7-4.6,8.1-8.3,14.1-9.8c5.1-1.2,9.4,0,12.9,4c0.9,1.1,1.4,2.3-0.6,2.3c-6.2,0.2-11.3,2.7-15.4,7.1c-4.7,5-6.8,11.2-7.8,17.8
	C215.3,120.1,215.2,123.2,214.9,126.4z M247.4,122.7c0.7-1.3,1.2-1.9,1.4-2.6c1-4.5,1.1-9.1-0.7-13.5c-0.3-0.7-1.1-1.2-1.6-1.7
	c-0.5,0.7-1.4,1.4-1.4,2.1c0,4.2,0.2,8.3,0.5,12.5C245.7,120.4,246.5,121.2,247.4,122.7z"/>
<path style="fill:#FF7A00;" d="M74.6,65c13.1-6.6,26.2-13.2,39.2-19.7c1.6,3-4.6,14.1-9.7,17.3C93.8,69.2,80.7,70.3,74.6,65z
	 M96.3,62.3c-1.8,0.1-3.4,0.2-5,0.3c-0.1,0.2-0.2,0.4-0.3,0.6c1,0.5,1.9,1.2,2.9,1.3C95.2,64.6,96.3,63.8,96.3,62.3z"/>
<path style="fill:#FF7B00;" d="M52.5,52.9c-1.1,1-2.3,1.9-3.4,2.9c-2.2,2.1-4.4,4.2-6.3,6.5c-0.7,0.9-1.1,2.7-0.7,3.7
	c0.4,0.8,2.1,1.2,3.3,1.4c1.5,0.2,3,0.1,4.7,0.1c0.5,1.2,1,2.3,1.7,3.9c-3.6,0.9-7,1.8-10.5,2.4c-2.3,0.4-4.7,0.6-7.1,0.5
	c-2.9-0.1-4-2.5-2.4-5c3.4-5.2,8.4-8.6,13.2-12.3c2.3-1.7,4.6-3.3,6.9-5C52.1,52.4,52.3,52.7,52.5,52.9z"/>
<path style="fill:#FF7B00;" d="M52.1,68.2c0.2-2.7,2-4.5,4.5-4.3c2.2,0.2,3.3,1.4,3.2,3.6c-0.1,2.3-2.2,4.2-4.4,4.1
	C53.3,71.6,51.9,70.2,52.1,68.2z"/>
<path style="fill:#FFFFFF;" d="M315.7,131.3c-0.6-2.8-2.6-3.9-4.4-4.3c1.5-1.4,3.1-2.8,4.5-4c1.3,1.2,2.9,2.6,4.5,4.1
	C318.3,127.2,316.6,128.6,315.7,131.3z"/>
<path style="fill:#FF7B00;" d="M53.2,39.5c1.2,0.2,2.1,0.8,1.9,2.3c-0.2,1.8-1.2,3-2.9,2.8c-0.9-0.1-2-1.3-2.3-2.2
	C49.5,41,51.5,39.4,53.2,39.5z"/>
<path style="fill:#FFFFFF;" d="M297.3,106.5c-0.9,0.8-1.7,1.6-2.6,2.3c-0.9-0.8-1.7-1.6-2.5-2.3c0.8-0.8,1.6-1.6,2.3-2.2
	c0.7,0.8,1.4,1.8,2.2,2.7C296.9,106.9,297.1,106.7,297.3,106.5z"/>
<path style="fill:#FF7B00;" d="M123.1,27.1c-0.6-1-1.5-1.8-1.3-2.2c0.2-0.7,1.1-1.2,1.7-1.8c0.5,0.6,1.5,1.3,1.5,1.8
	C124.9,25.6,124,26.2,123.1,27.1z"/>
<path style="fill:#FFFFFF;" d="M323.9,115.8c-0.7,0.7-1.5,1.5-1.9,1.8c-0.2-0.4-0.8-1.3-1.5-2.3c-0.2,0.4-0.3,0.8-0.5,1.3
	c0.8-0.7,1.6-1.5,2.4-2.2c-0.3-0.1-0.7-0.1-1-0.2c0.7,0.8,1.4,1.7,2.1,2.5C323.8,116.4,323.8,116.1,323.9,115.8z"/>
<path style="fill:#FFFFFF;" d="M298.1,99.6c0.6-0.5,1.1-1,1.8-1.6c0.5,0.5,1.1,1,1.7,1.5c-0.5,0.5-1.1,1-1.7,1.6
	C299.2,100.6,298.6,100.1,298.1,99.6z"/>
</svg>
