<?xml version="1.0" encoding="utf-8"?>
<!-- Generator: Adobe Illustrator 26.1.0, SVG Export Plug-In . SVG Version: 6.00 Build 0)  -->
<svg version="1.1" id="Layer_1" xmlns="http://www.w3.org/2000/svg" xmlns:xlink="http://www.w3.org/1999/xlink" x="0px" y="0px"
	 viewBox="0 0 1056.6 202" style="enable-background:new 0 0 1056.6 202;" xml:space="preserve">
<g id="Livello_1_1_">
</g>
<g id="Layer_1_00000121280000816817959920000000882230360127541942_">
</g>
<g>
	<path style="fill:#FFFFFF;" d="M239.2,84.3l3-14.1c2.9,0,5.1-0.1,6.8-0.2c1.7-0.1,2.9-0.5,3.8-1.2c0.9-0.7,1.5-1.7,2-3
		c0.5-1.4,1-3.2,1.5-5.6l7.9-37.2h20.9l-7.5,35.7c-0.8,4.1-1.6,7.6-2.4,10.5c-0.8,2.9-1.6,5.3-2.6,7.2c-1,1.9-2.3,3.4-3.9,4.5
		c-1.6,1.1-3.7,1.9-6.2,2.4c-2.5,0.5-5.7,0.8-9.4,1C249.3,84.2,244.7,84.3,239.2,84.3z"/>
	<path style="fill:#FFFFFF;" d="M303.2,85c-5.5,0-9.7-0.3-12.8-1c-3.1-0.7-5.3-1.8-6.6-3.3c-1.3-1.6-1.9-3.7-1.9-6.4
		c0-1.6,0.2-3.5,0.5-5.6c0.3-2.1,0.8-4.5,1.4-7.1c0.8-3.8,1.6-7.1,2.4-9.8c0.7-2.7,1.6-4.9,2.7-6.7c1-1.8,2.4-3.2,4.1-4.2
		c1.7-1,3.8-1.7,6.6-2.1c2.7-0.4,6.1-0.6,10.1-0.6c5.5,0,9.8,0.3,12.9,1c3.1,0.7,5.3,1.8,6.6,3.3c1.3,1.6,1.9,3.7,1.9,6.5
		c0,1.6-0.1,3.5-0.4,5.6c-0.3,2.1-0.7,4.5-1.3,7.1c-0.8,3.8-1.6,7.1-2.4,9.8c-0.8,2.7-1.7,4.9-2.7,6.7c-1,1.8-2.4,3.2-4.1,4.2
		c-1.7,1-3.9,1.7-6.6,2.1C310.6,84.8,307.3,85,303.2,85z M304.4,71.6c0.8,0,1.4,0,1.9-0.1c0.5-0.1,0.9-0.3,1.2-0.6
		c0.3-0.3,0.6-0.9,0.9-1.6c0.3-0.7,0.5-1.7,0.8-3c0.3-1.2,0.7-2.8,1.1-4.7c0.5-2.1,0.8-3.7,1-5c0.2-1.2,0.3-2.3,0.3-3
		c0-0.7-0.1-1.1-0.4-1.4c-0.2-0.3-0.6-0.4-1-0.5c-0.4-0.1-1-0.1-1.7-0.1c-1,0-1.7,0.1-2.2,0.2c-0.5,0.1-1,0.6-1.3,1.2
		c-0.3,0.7-0.7,1.6-1,3c-0.3,1.3-0.7,3.2-1.2,5.7c-0.4,2.1-0.7,3.8-1,5.1c-0.2,1.3-0.4,2.3-0.4,3c0,0.6,0.1,1,0.3,1.3
		c0.2,0.3,0.5,0.5,1,0.5C303.1,71.6,303.7,71.6,304.4,71.6z"/>
	<path style="fill:#FFFFFF;" d="M321.9,102l2.7-12.3c2.3,0,3.9-0.2,4.8-0.5c1-0.3,1.6-0.8,1.9-1.5c0.3-0.7,0.5-1.5,0.7-2.5l9.7-46.3
		h19.4L352.2,81c-0.9,4.2-1.8,7.6-2.7,10.3c-0.9,2.6-2,4.7-3.3,6.2c-1.3,1.5-3,2.6-5,3.2c-2.1,0.7-4.6,1-7.8,1.2
		C330.3,102,326.5,102,321.9,102z M343.3,31.5l2.9-13.5h19.4l-2.9,13.5H343.3z"/>
	<path style="fill:#FFFFFF;" d="M382.4,85c-5.5,0-9.7-0.3-12.8-1c-3.1-0.7-5.3-1.8-6.6-3.3c-1.3-1.6-1.9-3.7-1.9-6.4
		c0-1.6,0.2-3.5,0.5-5.6c0.3-2.1,0.8-4.5,1.4-7.1c0.8-3.8,1.6-7.1,2.4-9.8c0.7-2.7,1.6-4.9,2.7-6.7c1-1.8,2.4-3.2,4.1-4.2
		c1.7-1,3.8-1.7,6.6-2.1c2.7-0.4,6.1-0.6,10.1-0.6c5.5,0,9.8,0.3,12.9,1c3.1,0.7,5.3,1.8,6.6,3.3c1.3,1.6,1.9,3.7,1.9,6.5
		c0,1.6-0.1,3.5-0.4,5.6c-0.3,2.1-0.7,4.5-1.3,7.1c-0.8,3.8-1.6,7.1-2.4,9.8c-0.8,2.7-1.7,4.9-2.7,6.7c-1,1.8-2.4,3.2-4.1,4.2
		c-1.7,1-3.9,1.7-6.6,2.1C389.8,84.8,386.4,85,382.4,85z M383.5,71.6c0.8,0,1.4,0,1.9-0.1c0.5-0.1,0.9-0.3,1.2-0.6
		c0.3-0.3,0.6-0.9,0.9-1.6c0.3-0.7,0.5-1.7,0.8-3c0.3-1.2,0.7-2.8,1.1-4.7c0.5-2.1,0.8-3.7,1-5c0.2-1.2,0.3-2.3,0.3-3
		c0-0.7-0.1-1.1-0.4-1.4c-0.2-0.3-0.6-0.4-1-0.5c-0.4-0.1-1-0.1-1.7-0.1c-1,0-1.7,0.1-2.2,0.2c-0.5,0.1-1,0.6-1.3,1.2
		c-0.3,0.7-0.7,1.6-1,3c-0.3,1.3-0.7,3.2-1.2,5.7c-0.4,2.1-0.7,3.8-1,5.1c-0.2,1.3-0.4,2.3-0.4,3c0,0.6,0.1,1,0.3,1.3
		c0.2,0.3,0.5,0.5,1,0.5C382.2,71.6,382.8,71.6,383.5,71.6z"/>
	<path style="fill:#FFFFFF;" d="M443,85c-1.7,0-3.3-0.1-4.9-0.4c-1.6-0.3-2.9-0.9-4.1-1.7c-1.2-0.8-2-2-2.6-3.7h-1l-1.5,5.1h-18.4
		l14-66.2h19.1l-5.3,25.3h0.9c1.2-1.5,2.4-2.7,3.6-3.4c1.2-0.7,2.5-1.2,3.7-1.4c1.2-0.2,2.4-0.4,3.5-0.4c2.8,0,5.1,0.3,6.9,1
		c1.8,0.7,3.1,1.8,4,3.4c0.9,1.6,1.3,3.8,1.3,6.7c0,1.6-0.1,3.4-0.3,5.5c-0.2,2.1-0.6,4.4-1.1,7c-1,4.6-2,8.5-3.1,11.5
		c-1.1,3-2.4,5.4-3.8,7.1c-1.4,1.7-3,2.9-4.8,3.6C447.3,84.7,445.2,85,443,85z M436.2,70.3c0.9,0,1.7-0.1,2.2-0.2
		c0.5-0.1,1-0.4,1.3-1c0.3-0.5,0.6-1.4,0.9-2.6c0.3-1.2,0.7-2.9,1.2-5c0.4-1.7,0.6-3.1,0.8-4.3c0.2-1.1,0.3-2,0.3-2.6
		c0-0.6-0.1-1-0.3-1.3c-0.2-0.3-0.5-0.4-1-0.5c-0.4-0.1-1.1-0.1-1.8-0.1c-0.7,0-1.3,0-1.8,0.1c-0.5,0.1-0.9,0.2-1.2,0.5
		c-0.3,0.3-0.6,0.7-0.8,1.3c-0.2,0.4-0.4,1.1-0.6,2c-0.2,1-0.5,2-0.8,3.2c-0.3,1.2-0.5,2.3-0.8,3.4c-0.2,1.1-0.4,2.2-0.6,3.1
		c-0.1,0.9-0.2,1.6-0.2,1.9c0,0.9,0.2,1.4,0.7,1.6C434.4,70.2,435.1,70.3,436.2,70.3z"/>
	<path style="fill:#FFFFFF;" d="M487.5,85c-5.9,0-10.6-0.4-13.9-1.2c-3.4-0.8-5.7-2-7-3.7s-2-3.8-2-6.5c0-1.7,0.1-3.5,0.3-5.5
		c0.2-2,0.5-4.2,1-6.6c0.8-4.2,1.7-7.8,2.6-10.8c0.9-3,2.2-5.4,3.8-7.3c1.6-1.9,4-3.3,7-4.1c3-0.9,7.1-1.3,12.2-1.3
		c5.3,0,9.5,0.3,12.4,0.9c2.9,0.6,5,1.6,6.1,3.1c1.1,1.4,1.7,3.4,1.7,5.8c0,1.1-0.1,2.5-0.4,4.1c-0.2,1.6-0.5,3.2-0.9,4.9
		c-0.4,1.7-0.7,3.2-1.1,4.7l-0.8,3.5h-24.8c-0.1,0.4-0.2,1-0.4,1.9c-0.2,0.8-0.3,1.4-0.3,1.8c0,1,0.2,1.6,0.6,2
		c0.4,0.4,1.3,0.6,2.7,0.7c1.4,0.1,3.6,0.1,6.6,0.1c1,0,2.3,0,3.8-0.1c1.5-0.1,3.1-0.1,4.9-0.2c1.8-0.1,3.5-0.2,5.2-0.3l-2.6,12.2
		c-1.2,0.4-2.7,0.7-4.5,0.9c-1.8,0.3-3.8,0.5-6,0.6C491.6,84.9,489.5,85,487.5,85z M485.3,57.5h7.7l0.3-1.4c0.2-1,0.3-1.8,0.4-2.5
		c0.1-0.6,0.2-1.2,0.2-1.6c0-0.6-0.1-1-0.3-1.3c-0.2-0.3-0.5-0.4-1-0.5c-0.5-0.1-1.1-0.1-1.9-0.1c-1,0-1.7,0.1-2.2,0.2
		c-0.5,0.1-1,0.4-1.3,0.8c-0.3,0.4-0.6,1.2-0.9,2.2C486,54.4,485.7,55.8,485.3,57.5z"/>
	<path style="fill:#FFFFFF;" d="M545.7,84.3c-5.1,0-9.3-0.1-12.7-0.2c-3.4-0.1-6.1-0.5-8.1-1c-2-0.6-3.4-1.5-4.3-2.7
		c-0.9-1.2-1.3-2.9-1.3-5.1c0-0.9,0.1-1.9,0.2-2.9c0.1-1.1,0.3-2.2,0.5-3.5c0.2-1.2,0.5-2.6,0.8-4.1l2.7-12.6h-7.5l2.9-13.4h7.5
		l2.8-13.2h19.4l-2.8,13.2h9.1l-2.9,13.4h-9.1L540,66.9c-0.1,0.4-0.1,0.7-0.2,1c-0.1,0.3-0.1,0.6-0.1,0.8c0,0.2,0,0.4,0,0.6
		c0,0.7,0.3,1.2,0.8,1.6c0.5,0.4,1.4,0.7,2.6,0.8c1.2,0.1,3,0.2,5.3,0.2L545.7,84.3z"/>
	<path style="fill:#FFFFFF;" d="M560.7,50.7l1.4-6.4c1.9,0,3.3-0.2,4.3-0.5c0.9-0.4,1.6-1,2.1-1.8c0.4-0.9,0.8-2,1.1-3.5l0.3-1.2
		h-6.2l3-14.3H585L582.6,34c-0.7,3.2-1.5,5.9-2.3,8.1c-0.8,2.2-2,3.9-3.5,5.1c-1.5,1.2-3.5,2.1-6.1,2.7
		C568.1,50.4,564.8,50.7,560.7,50.7z"/>
	<path style="fill:#FFFFFF;" d="M608.1,85c-5.9,0-10.6-0.4-13.9-1.2c-3.4-0.8-5.7-2-7-3.7s-2-3.8-2-6.5c0-1.7,0.1-3.5,0.3-5.5
		c0.2-2,0.5-4.2,1-6.6c0.8-4.2,1.7-7.8,2.6-10.8c0.9-3,2.2-5.4,3.8-7.3c1.6-1.9,4-3.3,7-4.1c3-0.9,7.1-1.3,12.2-1.3
		c5.3,0,9.5,0.3,12.4,0.9c2.9,0.6,5,1.6,6.1,3.1c1.1,1.4,1.7,3.4,1.7,5.8c0,1.1-0.1,2.5-0.4,4.1c-0.2,1.6-0.5,3.2-0.9,4.9
		c-0.4,1.7-0.7,3.2-1.1,4.7l-0.8,3.5h-24.8c-0.1,0.4-0.2,1-0.4,1.9c-0.2,0.8-0.3,1.4-0.3,1.8c0,1,0.2,1.6,0.6,2
		c0.4,0.4,1.3,0.6,2.7,0.7c1.4,0.1,3.6,0.1,6.6,0.1c1,0,2.3,0,3.8-0.1c1.5-0.1,3.1-0.1,4.9-0.2c1.8-0.1,3.5-0.2,5.2-0.3L625,83.2
		c-1.2,0.4-2.7,0.7-4.5,0.9c-1.8,0.3-3.8,0.5-6,0.6C612.3,84.9,610.2,85,608.1,85z M606,57.5h7.7l0.3-1.4c0.2-1,0.3-1.8,0.4-2.5
		c0.1-0.6,0.2-1.2,0.2-1.6c0-0.6-0.1-1-0.3-1.3c-0.2-0.3-0.5-0.4-1-0.5c-0.5-0.1-1.1-0.1-1.9-0.1c-1,0-1.7,0.1-2.2,0.2
		c-0.5,0.1-1,0.4-1.3,0.8c-0.3,0.4-0.6,1.2-0.9,2.2C606.7,54.4,606.4,55.8,606,57.5z"/>
	<path style="fill:#FFFFFF;" d="M246.9,177.2c-6.4,0-11.4-0.4-15-1.3s-6.2-2.3-7.7-4.3c-1.5-2-2.2-4.7-2.2-8.1c0-2.3,0.3-4.9,0.9-8
		c0.6-3.1,1.3-6.6,2-10.6c0.9-4.9,1.9-9.2,2.7-12.7c0.9-3.5,1.9-6.4,3.3-8.7c1.3-2.3,3-4.1,5.1-5.4c2.1-1.3,4.9-2.3,8.2-2.8
		c3.4-0.5,7.6-0.8,12.7-0.8c6.4,0,11.3,0.4,14.9,1.3c3.6,0.9,6.1,2.3,7.6,4.3c1.5,2,2.2,4.7,2.2,8.2c0,2.3-0.3,5-0.8,8
		c-0.5,3-1.2,6.5-2.1,10.4c-1.1,5-2.2,9.3-3.1,12.8c-1,3.5-2,6.4-3.3,8.7c-1.2,2.3-2.9,4.1-4.9,5.4c-2,1.3-4.7,2.2-8,2.8
		C256.1,176.9,251.9,177.2,246.9,177.2z M242.4,109.3l2.4-11.1h14.7l-2.4,11.1H242.4z M248.2,162.3c1.2,0,2.3-0.1,3.1-0.2
		c0.8-0.1,1.5-0.4,2.1-1c0.6-0.5,1.1-1.4,1.5-2.5c0.4-1.2,0.9-2.8,1.4-4.9c0.5-2.1,1.1-4.7,1.8-7.9c0.7-3.4,1.3-6.1,1.6-8.3
		c0.4-2.1,0.6-3.8,0.6-4.9c0-1.1-0.2-1.8-0.5-2.3c-0.4-0.5-0.9-0.8-1.6-0.8c-0.7-0.1-1.7-0.1-2.9-0.1c-1.2,0-2.3,0.1-3.1,0.2
		c-0.8,0.1-1.5,0.4-2,1c-0.6,0.5-1.1,1.4-1.5,2.5c-0.4,1.2-0.9,2.8-1.4,4.9c-0.5,2.1-1,4.7-1.7,7.9c-0.5,2.3-0.9,4.3-1.3,6.1
		c-0.4,1.7-0.7,3.2-0.8,4.4c-0.2,1.2-0.3,2.2-0.3,2.9c0,1,0.2,1.7,0.5,2.2c0.4,0.4,0.9,0.7,1.6,0.8
		C246.1,162.3,247,162.3,248.2,162.3z M262.4,109.3l2.4-11.1h14.6l-2.4,11.1H262.4z"/>
	<path style="fill:#FFFFFF;" d="M279.5,176.5l2.6-12.7l21.1-19.4h-15.9l2.9-13.4h40.4l-2.7,12.7l-21.1,19.4h17.1l-2.9,13.4H279.5z"
		/>
	<path style="fill:#FFFFFF;" d="M353.6,177.2c-5.9,0-10.6-0.4-13.9-1.2c-3.4-0.8-5.7-2-7-3.7s-2-3.8-2-6.5c0-1.7,0.1-3.5,0.3-5.5
		c0.2-2,0.5-4.2,1-6.6c0.8-4.2,1.7-7.8,2.6-10.8c0.9-3,2.2-5.4,3.8-7.3c1.6-1.9,4-3.3,7-4.1c3-0.9,7.1-1.3,12.2-1.3
		c5.3,0,9.5,0.3,12.4,0.9s5,1.6,6.1,3.1c1.1,1.4,1.7,3.4,1.7,5.8c0,1.1-0.1,2.5-0.4,4.1c-0.2,1.6-0.5,3.2-0.9,4.9
		c-0.4,1.7-0.7,3.2-1.1,4.7l-0.8,3.5h-24.8c-0.1,0.4-0.2,1-0.4,1.9c-0.2,0.8-0.3,1.4-0.3,1.8c0,1,0.2,1.6,0.6,2
		c0.4,0.4,1.3,0.6,2.7,0.7c1.4,0.1,3.6,0.1,6.6,0.1c1,0,2.3,0,3.8-0.1c1.5-0.1,3.1-0.1,4.9-0.2c1.8-0.1,3.5-0.2,5.2-0.3l-2.6,12.2
		c-1.2,0.4-2.7,0.7-4.5,0.9c-1.8,0.3-3.8,0.5-6,0.6C357.8,177.1,355.7,177.2,353.6,177.2z M351.4,149.8h7.7l0.3-1.4
		c0.2-1,0.3-1.8,0.4-2.5c0.1-0.6,0.2-1.2,0.2-1.6c0-0.6-0.1-1-0.3-1.3c-0.2-0.3-0.5-0.4-1-0.5c-0.5-0.1-1.1-0.1-1.9-0.1
		c-1,0-1.7,0.1-2.2,0.2c-0.5,0.1-1,0.4-1.3,0.8c-0.3,0.4-0.6,1.2-0.9,2.2C352.1,146.6,351.8,148,351.4,149.8z"/>
	<path style="fill:#FFFFFF;" d="M378.1,176.5l13.9-66.2h19.4l-14,66.2H378.1z"/>
	<path style="fill:#FFFFFF;" d="M439.8,176.5l9.7-45.6h-15l3.4-15.7h50.9l-3.4,15.7h-15.1l-9.7,45.6H439.8z"/>
	<path style="fill:#FFFFFF;" d="M491.9,177.2c-2.9,0-5.1-0.4-6.7-1.1c-1.6-0.7-2.7-1.8-3.4-3.2c-0.7-1.4-1-3.2-1-5.3
		c0-1.2,0.2-2.9,0.5-4.9c0.4-2,0.7-4.1,1.2-6.2L488,131h19l-4.8,22.8c-0.3,1.4-0.6,2.8-0.8,4c-0.2,1.2-0.4,2.1-0.4,2.7
		c0,0.5,0.1,0.9,0.2,1.2c0.1,0.3,0.4,0.4,0.7,0.5c0.3,0.1,0.7,0.1,1.2,0.1c0.8,0,1.5-0.1,2-0.2c0.5-0.1,0.9-0.4,1.2-0.9
		c0.3-0.5,0.6-1.2,0.9-2.2c0.3-1,0.6-2.4,1-4.1l5.2-24h19l-9.6,45.5h-18.4l0.7-5.1h-0.9c-1.2,1.6-2.6,2.8-4.1,3.7
		c-1.5,0.8-2.9,1.4-4.3,1.7S493.1,177.2,491.9,177.2z"/>
	<path style="fill:#FFFFFF;" d="M530.9,176.5l9.6-45.5h18.4l-1.2,7.6h0.9c1.3-2.3,2.6-4,3.9-5.2c1.3-1.2,2.9-2,4.7-2.5
		c1.8-0.4,4.1-0.7,6.8-0.7l-3.6,16.6c-3,0-5.4,0.2-7.4,0.6c-2,0.4-3.6,1.1-4.8,2c-1.2,1-2.2,2.4-3,4.3c-0.8,1.9-1.5,4.4-2.1,7.4
		l-3.3,15.2H530.9z"/>
	<path style="fill:#FFFFFF;" d="M569.9,176.5l9.6-45.5H598l-0.7,5.1h0.9c1.2-1.6,2.6-2.8,4.1-3.7c1.5-0.8,2.9-1.4,4.4-1.7
		c1.5-0.3,2.7-0.4,3.9-0.4c2.9,0,5.2,0.3,6.7,1c1.6,0.7,2.7,1.7,3.3,3.1c0.7,1.4,1,3.1,1,5.2c0,1.2-0.1,2.9-0.4,4.9
		c-0.3,2-0.7,4.1-1.2,6.2l-5.5,25.8h-19l4.8-22.8c0.3-1.4,0.6-2.8,0.8-4s0.4-2.1,0.4-2.7c0-0.6-0.1-1-0.2-1.2
		c-0.1-0.2-0.4-0.4-0.7-0.5c-0.3-0.1-0.7-0.1-1.2-0.1c-0.8,0-1.5,0.1-2,0.2c-0.5,0.1-0.9,0.4-1.2,0.9c-0.3,0.5-0.6,1.2-0.9,2.2
		c-0.3,1-0.6,2.4-1,4.1l-5.2,24H569.9z"/>
	<path style="fill:#FFFFFF;" d="M635.8,177.2c-2.9,0-5.1-0.4-6.7-1.1s-2.7-1.8-3.4-3.2c-0.7-1.4-1-3.2-1-5.3c0-1.2,0.2-2.9,0.5-4.9
		c0.4-2,0.7-4.1,1.2-6.2l5.4-25.4h19l-4.8,22.8c-0.3,1.4-0.6,2.8-0.8,4c-0.2,1.2-0.4,2.1-0.4,2.7c0,0.5,0.1,0.9,0.2,1.2
		c0.1,0.3,0.4,0.4,0.7,0.5c0.3,0.1,0.7,0.1,1.2,0.1c0.8,0,1.5-0.1,2-0.2c0.5-0.1,0.9-0.4,1.2-0.9c0.3-0.5,0.6-1.2,0.9-2.2
		c0.3-1,0.6-2.4,1-4.1l5.2-24h19l-9.6,45.5h-18.5l0.7-5.1h-0.9c-1.2,1.6-2.6,2.8-4.1,3.7c-1.5,0.8-2.9,1.4-4.3,1.7
		S637,177.2,635.8,177.2z"/>
	<path style="fill:#FFFFFF;" d="M683,176.5l-1.9-45.5h18.6l-0.7,29.4h1l11.4-29.4h19.3l-21.4,45.5H683z"/>
	<path style="fill:#FFFFFF;" d="M739.2,177.2c-2.7,0-4.9-0.3-6.7-0.9c-1.8-0.6-3.1-1.7-4-3.3c-0.9-1.6-1.3-3.8-1.3-6.6
		c0-1.6,0.1-3.4,0.3-5.5c0.2-2.1,0.6-4.4,1.1-7c0.9-4.6,2-8.5,3.1-11.5c1.1-3.1,2.3-5.5,3.7-7.2c1.4-1.8,3-3,4.8-3.7
		c1.8-0.7,3.8-1.1,6.1-1.1c1.7,0,3.2,0.1,4.7,0.4c1.5,0.2,2.8,0.7,4.1,1.4c1.2,0.7,2.2,1.8,3,3.4h0.9l1.4-4.5h18.5l-9.6,45.5h-18.5
		l0.8-5.1h-1c-1.1,1.6-2.2,2.8-3.5,3.7c-1.2,0.8-2.5,1.4-3.9,1.7C741.9,177.1,740.5,177.2,739.2,177.2z M749.6,162.5
		c0.8,0,1.5,0,2-0.1c0.5-0.1,0.8-0.3,1.1-0.6c0.3-0.3,0.5-0.8,0.8-1.5c0.2-0.5,0.4-1.2,0.6-2.1c0.2-0.9,0.5-1.9,0.7-3
		c0.2-1.1,0.5-2.2,0.7-3.3c0.2-1.1,0.4-2.1,0.5-2.9c0.1-0.9,0.2-1.5,0.2-2c0-0.9-0.2-1.4-0.6-1.6c-0.4-0.2-1.2-0.3-2.4-0.3
		c-0.9,0-1.6,0.1-2.1,0.2c-0.5,0.1-1,0.4-1.3,1c-0.4,0.5-0.7,1.4-1,2.6c-0.3,1.2-0.7,2.9-1.2,5c-0.4,1.8-0.7,3.2-0.9,4.3
		c-0.2,1.1-0.3,2-0.3,2.6c0,0.5,0.1,0.9,0.3,1.2c0.2,0.3,0.5,0.4,1,0.5C748.3,162.5,748.9,162.5,749.6,162.5z"/>
</g>
<path style="fill:#FAD105;" d="M170.5,30.5c0.2-3.4,0.3-6.9,0.3-10.4h4.7V9.3h-120v10.8h4.6c0,3.5,0.1,7,0.3,10.4H39.6v21.9
	c0,25.8,16.7,47.6,39.9,55.4c6.4,11.7,14,20.4,22.4,25v10.9h7c-2.3,20.2-15.6,35.9-31.7,36.5h-1v8h78.5v-8h-1
	c-16.1-0.6-29.4-16.3-31.7-36.5h7.1v-10.9c8.4-4.6,16-13.2,22.3-24.9c23.2-7.7,40-29.6,40-55.4V30.5H170.5z M49.1,52.5V40.1h12
	c1.8,20.6,6.1,39.3,12.2,54.6C58.8,86.2,49.1,70.4,49.1,52.5z M157.6,94.7c6.1-15.4,10.4-34,12.2-54.7h12.1v12.4h0
	C181.9,70.5,172.1,86.3,157.6,94.7z"/>
<path style="fill:#0F4D00;" d="M76.5,65.1c0.9-0.7,1.8-1.5,2.8-2.2c0.3-0.2,0.7-0.3,0.9-0.3c1.4,0.3,2.5-0.3,2.8-1.6
	c0.4-1.9,0.7-3.8,1-5.7c0.6-3.6,1.1-7.2,1.6-10.8c0-0.3,0.4-0.8,0.6-0.8c2.2-0.2,4.3-0.8,5.9-2.5c-0.3,1.9-0.6,3.8-0.9,5.6
	c-0.5,3.4-1,6.9-1.6,10.3c-0.4,2.4-0.5,4.9-2.2,6.8c-1,1.1-2.2,2.1-3.9,2.4c-2.1,0.4-4.1-0.2-6.2,0.2c-0.3,0.1-0.7-0.5-1.1-0.8
	C76.5,65.5,76.5,65.3,76.5,65.1z"/>
<path style="fill:#0F4D00;" d="M118,51.1c-0.2,4.8-2.3,9.3-7.6,11.7c-3.6,1.7-7.4,1.8-11.2,0.4c-3.7-1.4-5.5-4.3-5.8-8
	c-0.5-5.9,2.6-11.6,8.5-13.7c3.6-1.3,7.4-1.3,10.9,0.3C116.5,43.4,118,46.5,118,51.1z M101.3,53.6c0.1,0,0.2,0.1,0.3,0.1
	c-0.1,1.4,0.1,2.8,1.3,3.8c1.6,1.4,4.5,0.7,5.7-1.6c1-1.8,1.3-3.8,1.2-5.8c-0.1-1.3-0.5-2.5-1.7-3.2c-1.8-1-4.2-0.2-5.2,2
	C102.1,50.4,101.8,52.1,101.3,53.6z"/>
<path style="fill:#0F4D00;" d="M143.7,40.6c2,0,4,0.4,5.9,1.3c3,1.5,4.4,4,4.8,7.1c0.7,5.5-2.1,11.4-7.4,13.9
	c-2.4,1.1-5,1.4-7.6,1.1c-1.6-0.1-3-0.5-4.4-1.2c-2.6-1.3-4.1-3.4-4.7-6.2c-1.2-5.8,1.6-11.5,6.7-14.4
	C139,40.9,141.3,40.6,143.7,40.6z M146.5,51.1c-0.1,0-0.2,0-0.2-0.1c0.1-1.6-0.1-3.1-1.6-4c-1.7-1.1-4.4-0.2-5.5,2
	c-0.9,1.8-1.3,3.7-1.1,5.7c0.2,3,3,4.5,5.4,2.9c0.7-0.5,1.4-1.2,1.7-1.9C145.7,54.3,146.1,52.7,146.5,51.1z"/>
<path style="fill:#0F4D00;" d="M128.7,41.2c-0.3,1.8-0.5,3.6-0.8,5.3c-0.7,4.4-1.4,8.8-2.2,13.2c-0.6,3.4-2.3,5.8-5.7,6.7
	c-1.6,0.4-3.3,0.3-5,0.3c-0.7,0-1.4-0.3-2-0.5c-0.3-0.1-0.5-0.4-0.6-0.7c0-0.2,0.3-0.5,0.5-0.6c1-0.8,1.9-1.5,2.9-2.2
	c0.2-0.2,0.6-0.2,0.9-0.2c1.2,0.3,2.3-0.2,2.7-1.4c0.4-1.6,0.7-3.3,1-4.9c0.5-3,0.9-5.9,1.3-8.9c0.1-0.9,0.4-1.9,0.4-2.8
	c0-0.8,0.4-1,1-1C125.3,43.4,127.1,42.7,128.7,41.2z"/>
<path style="fill:#0F4D00;" d="M86.3,40.3c0.5-2.8,0.3-2.6,3-2.6c0.7,0,1.4,0,2.1,0c0.6,0.1,0.8,0.5,0.5,1
	C91.2,39.7,87.7,41,86.3,40.3z"/>
<path style="fill:#0F4D00;" d="M126.1,37.8c0.6,0,1.2-0.1,1.8-0.1c0.2,0,0.6,0.1,0.6,0.3c0.1,0.2-0.1,0.5-0.2,0.7
	c-1.4,1.2-3,1.8-4.8,1.7c-0.1,0-0.3-0.1-0.3-0.1c0-0.6-0.1-1.2,0-1.8c0.1-0.3,0.5-0.6,0.8-0.7C124.6,37.7,125.3,37.8,126.1,37.8
	C126.1,37.8,126.1,37.8,126.1,37.8z"/>
<path style="fill:#0F4D00;" d="M106.4,92.9c-0.1-0.4-0.4-0.9-0.4-1.3c0.5-3.6,1.1-7.2,1.7-10.7c0.5-3.4,1-6.8,1.5-10.3
	c0.1-0.8,0.4-1,1.2-1c5.2,0,10.4,0,15.7,0c0.9,0,1.3,0.4,1.2,1.2c-0.1,1.1-0.3,2.3-0.4,3.4c-0.1,0.9-0.6,1.2-1.5,1.2
	c-3.2-0.1-6.4-0.1-9.6-0.1c-1.5,0-1.6,0.1-1.6,1.6c0,0.4,0,0.9,0,1.5c1.4,0,2.9,0,4.3,0c1.6,0,1.7,0.1,1.4,1.7
	c-0.2,1.3-0.4,2.5-0.7,4c-0.7,0-1.5,0-2.3,0c-0.9,0-1.9,0-2.8,0c-0.9-0.1-1.1,0.3-1.2,1.2c-0.2,2.1-0.4,2,1.8,2c2.5,0,5.1,0,7.6,0
	c0.7,0,1.4,0,2.3,0c-0.2,1.8-0.4,3.4-0.7,5c0,0.2-0.5,0.4-0.9,0.6c-0.2,0.1-0.5,0.1-0.8,0.2C117,92.9,111.7,92.9,106.4,92.9z"/>
<path style="fill:#0F4D00;" d="M148.7,71.3c-0.2,0.9-0.5,1.8-0.6,2.7c-0.1,0.9-0.5,1.4-1.5,1.3c-1.3-0.1-2.6,0-3.9,0
	c-0.7,0-1,0.3-1.1,1c-0.4,2.9-0.8,5.9-1.3,8.8c-0.4,2.4-0.8,4.9-1.1,7.3c-0.9,0.1-1.7,0.2-2.6,0.3c-0.9,0-1.8-0.1-2.6-0.1
	c-0.5-2.1-0.1-4.1,0.2-6.1c0.5-3.4,1-6.7,1.6-10.1c0.1-0.8-0.2-1-0.9-1c-1.6,0-3.1,0-4.7,0c-0.4-1.8,0.1-3.5,0.6-5.2
	c0.1-0.2,0.6-0.5,1-0.5c5.3,0,10.6,0,15.9,0c0.3,0,0.7,0.3,1,0.4C148.7,70.5,148.7,70.9,148.7,71.3z"/>
<path style="fill:#0F4D00;" d="M80.4,92.6c0.7-0.8,1.3-1.5,1.8-2.1c0.7-0.9,1.4-1.7,2-2.7c0.3-0.5,0.6-0.6,1.2-0.6
	c3.7,0,7.4,0,11.2,0c0.6,0,1.4-0.3,1.8-0.7c0.9-0.8,0.5-2-0.6-2.3C97.4,84,97.1,84,96.7,84c-3.2,0-6.3,0-9.5,0c-0.4,0-0.7,0-1.2,0
	c0.1-0.6,0.2-1.1,0.2-1.6c0.1-0.9,0.2-1.8,0.2-2.8c0.1-0.9,0.5-1.2,1.4-1.2c2.7,0.1,5.4,0,8.2,0c0.6,0,1.3,0,1.9-0.2
	c0.9-0.2,1.4-0.8,1.3-1.7c-0.1-0.9-0.7-1.1-1.6-1.2c-3.4,0-6.8-0.1-10.2,0c-0.9,0-1.3-0.3-1.7-1c-0.6-1.2-1.3-2.3-1.9-3.4
	c-0.2-0.3-0.3-0.6-0.4-0.9c0.3-0.1,0.7-0.3,1-0.3c3.5,0,7,0,10.5,0c1.7,0,3.5,0,5.2,0c2.6,0,5,1.7,5.3,4.6c0.2,1.7-1.5,4.7-3.3,5.6
	c-0.3,0.2-0.6,0.3-1.1,0.6c0.5,0.3,0.9,0.6,1.3,0.8c2.3,1.2,2.6,2.6,2.4,5c-0.4,3.7-3.8,6.2-7.2,6.3c-5.3,0.2-10.6,0.2-15.8,0.2
	C81.3,92.7,81,92.7,80.4,92.6z"/>
</svg>
