<?xml version="1.0" encoding="utf-8"?>
<!-- Generator: Adobe Illustrator 22.1.0, SVG Export Plug-In . SVG Version: 6.00 Build 0)  -->
<svg version="1.1" id="Layer_1" xmlns="http://www.w3.org/2000/svg" xmlns:xlink="http://www.w3.org/1999/xlink" x="0px" y="0px"
	 viewBox="0 0 192 42.3" style="enable-background:new 0 0 192 42.3;" xml:space="preserve">
<path style="fill:#FFFFFF;" d="M27.4,40.5c13.4,0,24.3-5.4,24.3-12.2c0-0.1,0-0.2,0-0.4l0,0v-2.3h-0.1c0.1-0.1,0.1-0.3,0.1-0.5
	c0-5.5-9.6-10.1-21.9-10.6v0.2l0.2,1.1c6.5,0.4,12,2,15.1,4.2c1.6,1.2,2.5,2.5,2.5,4c0,0.6-0.2,1.2-0.4,1.7C46.7,26.5,46,27.3,45,28
	c-3.5,2.5-10.1,4.2-17.7,4.2"/>
<path style="fill:#FFFFFF;" d="M26.1,36.9c-10.5,0-19.4-3.1-22.8-7.4c1.3,6.2,11.6,10.9,24.1,10.9"/>
<path style="fill:#FFFFFF;" d="M27.7,35.7c8.4,0,15.8-1.9,20.1-4.8c-4.1,3.6-12.2,6-21.6,6"/>
<path style="fill:#FFFFFF;" d="M27.3,32.2c-7.6,0-14.3-1.7-17.7-4.2c-1-0.7-1.7-1.5-2.1-2.3c-0.3-0.5-0.4-1.2-0.4-1.7
	c0-1.2,0.6-2.3,1.6-3.3c2.7-2.6,8.7-4.6,15.9-4.9l0.2-1.2C12.8,15.2,3.6,19.6,3.6,25.1c0,0.3,0.1,0.5,0.1,0.8c0.1,0.7,0.4,1.4,0.8,2
	c0,0,0,0.1,0.1,0.1c2.9,4.5,12.1,7.7,23.1,7.7"/>
<path style="fill:#FFFFFF;" d="M43.8,22.8c-0.9,0-1.8,0.8-1.8,1.8c0,0.5,0.2,0.9,0.5,1.2c0.3,0.3,0.8,0.5,1.3,0.5
	c0.5,0,0.9-0.2,1.3-0.5c0.3-0.3,0.5-0.7,0.5-1.2C45.6,23.5,44.8,22.8,43.8,22.8z"/>
<g>
	<path style="fill:#FFFFFF;" d="M30.3,17.2l0.8,5.7c0,1.2-3.1,1.8-3.8,1.8c-0.7,0-3.8-0.6-3.8-1.8l0.8-5.8
		c-5.9,0.5-10.3,2.7-10.3,5.3c0,1.2,0.9,2.3,2.4,3.1c2.4,1.4,6.4,2.3,10.8,2.3s8.4-0.9,10.8-2.3c1.5-0.9,2.4-2,2.4-3.1
		C40.6,20,36.2,17.8,30.3,17.2z"/>
	<path style="fill:#FFFFFF;" d="M19.2,13.6c0.5,0,1-0.2,1.4-0.5H25h0.3h0.3l-0.2,1.5l0,0l-0.2,1.2l-0.1,0.5l-0.2,1l-0.8,5.9
		c0,0.4,2.3,1.2,3.2,1.2c1,0,3.2-0.7,3.2-1.2l-0.8-5.8l-0.2-1l-0.1-0.5l-0.2-1.1v-0.1l-0.2-1.4h0.3h0.3h4.9c0.4,0.3,0.8,0.5,1.4,0.5
		c1.1,0,2-0.9,2-2s-0.9-2-2-2c-0.5,0-1,0.2-1.4,0.5h-5.4H29h-0.3l-0.1-0.8c0.1-0.1,0.2-0.1,0.3-0.1C29,9.2,29,9.2,29.1,9.1
		c1.3-0.7,2.1-1.9,2.1-3.5c0-2.1-1.8-3.9-3.9-3.9s-3.9,1.8-3.9,3.9c0,1.5,0.9,2.8,2.1,3.5c0.1,0.1,0.2,0.1,0.3,0.1
		c0.1,0.1,0.2,0.1,0.3,0.1L26,10.1h-0.3h-0.3h-4.8c-0.4-0.3-0.8-0.5-1.4-0.5c-1.1,0-2,0.9-2,2C17.2,12.7,18.1,13.6,19.2,13.6z
		 M29.9,5.3c0,0-0.2-0.5-1.2-1.3c-0.5-0.5-1.4-1-1.4-1C29.8,3.1,29.9,5.3,29.9,5.3z"/>
</g>
<g>
	<path style="fill:#FFFFFF;" d="M62.9,26.5V39c0,1-0.3,1.4-1.3,1.4H57c-1,0-1.3-0.4-1.3-1.4V5.4c0-1,0.3-1.4,1.3-1.4h11.2
		c9.7,0,12.9,4.2,12.9,8.7v5.1c0,3.1-1.6,6.1-5.9,7.7L81,39c0.4,0.9-0.3,1.4-1.2,1.4h-4.7c-0.7,0-1-0.5-1.3-1.4l-5.2-12.4h-0.3H62.9
		z M62.9,10v10.5h5.3c3.6,0,5.8-1.3,5.8-4V14c0-2.7-2.2-4-5.8-4H62.9z"/>
	<path style="fill:#FFFFFF;" d="M93.4,30.8c0,2.7,2.1,4,5.7,4s5.8-1.3,5.8-4V5.4c0-1,0.3-1.4,1.3-1.4h4.6c1,0,1.2,0.4,1.2,1.4v26.6
		c0,4.5-3.3,8.7-13,8.7c-9.7,0-13-4.2-13-8.7V5.4c0-1,0.4-1.4,1.3-1.4h4.6c0.9,0,1.3,0.4,1.3,1.4V30.8z"/>
	<path style="fill:#FFFFFF;" d="M125.1,34.4H137c0.9,0,1.3,0.3,1.3,1.3V39c0,1-0.4,1.3-1.3,1.3h-18c-0.8,0-1.1-0.5-1.1-1.4V5.4
		c0-1,0.3-1.4,1.3-1.4h4.6c1,0,1.3,0.4,1.3,1.4V34.4z"/>
	<path style="fill:#FFFFFF;" d="M143.3,40.3c-1,0-1.3-0.4-1.3-1.4V5.4c0-1,0.3-1.4,1.3-1.4h18.3c0.9,0,1.3,0.3,1.3,1.3v3.4
		c0,1-0.4,1.3-1.3,1.3h-12.3v8.6h11.4c1,0,1.4,0.3,1.4,1.3v3.2c0,0.9-0.4,1.3-1.4,1.3h-11.4v9.9h12.9c1,0,1.3,0.3,1.3,1.3V39
		c0,1-0.4,1.3-1.3,1.3H143.3z"/>
	<path style="fill:#FFFFFF;" d="M188.7,4c0.9,0,1.3,0.3,1.3,1.3v3.4c0,1-0.4,1.3-1.3,1.3h-7.6V39c0,1-0.3,1.4-1.3,1.4h-4.6
		c-1,0-1.3-0.4-1.3-1.4V10h-7.6c-1,0-1.3-0.4-1.3-1.3V5.3c0-1,0.4-1.3,1.3-1.3H188.7z"/>
</g>
</svg>
