<?xml version="1.0" encoding="utf-8"?>
<!-- Generator: Adobe Illustrator 26.1.0, SVG Export Plug-In . SVG Version: 6.00 Build 0)  -->
<svg version="1.1" id="Layer_1" xmlns="http://www.w3.org/2000/svg" xmlns:xlink="http://www.w3.org/1999/xlink" x="0px" y="0px"
	 viewBox="0 0 1056.6 202" style="enable-background:new 0 0 1056.6 202;" xml:space="preserve">
<path style="fill:#FEAA1E;" d="M125.6,86.8c-1.4-6.4,2.3-10.9,4.6-15.6c0.4-0.8,3.4-0.9,5-0.5c5.5,1.3,5.9,1,8.2-4.4
	c1.3-3,2.8-6,4.8-8.6c0.8-1.1,3.1-1.3,4.8-1.3c1.1,0,2.1,1.1,3.3,1.5c2,0.7,3.4,0.5,4.4-1.9c3.3-8,6.8-15.9,10.3-23.8
	c1-2.2,4-3.9,5.7-3c4,1.9,4.9,3.8,3.5,7c-3.5,7.6-6.9,15.2-10.2,22.8c-2.9,6.5-5.7,13-8.2,19.6c-0.3,0.8,0.5,2.8,1.4,3.3
	c2,1,4.3,1.5,7.1,2.3c-1.3,3.9-2.6,7.7-3.8,11.5c-1.1,3.5,0.3,6.4,3.7,7c3.9,0.6,3.6,2.6,2.4,5.2c-2.9,6.5-5.8,13-8.6,19.6
	c-3.4,7.8-6.6,15.6-10.2,23.4c-2.4,5.3-5.4,10.4-7.8,15.7c-3,6.6-5.9,13.3-8.5,20.1c-1.3,3.4-3.2,5-7.1,4.9
	c-13.9-0.2-27.9-0.4-41.8,0c-9.4,0.3-10.4-3.4-13.9-10.8c-2.6-5.5-5.6-10.7-8.3-16.1c-0.7-1.5-0.8-3.2-1.5-4.7
	c-2.5-5.3-5-10.5-7.6-15.7c-3.5-7-7.2-13.8-10.7-20.8c-2.3-4.6-4.3-9.4-6.7-13.9c-2.7-5.4-5.8-10.6-8.5-16
	c-2.2-4.5-3.9-9.2-6.1-13.8c-1.7-3.7-3.9-7.3-5.4-11.1c-0.8-1.9-1.3-4.5-0.7-6.3c0.4-1.1,3.3-1.7,5-1.8c16-0.1,32.1,0,48.1-0.1
	c2.8,0,4.4,0.8,5.7,3.5c4.5,9.6,9.3,19,13.8,28.5c2.1,4.4,3.8,8.9,6,13.2c2.3,4.5,4.8,8.9,7.5,13.1c1.2,1.9,2.7,1.8,3.7-0.7
	c2.4-5.8,5-11.5,7.6-17.2c1.9-4.3,3.5-4.7,7.7-2.7c1.1,0.5,2.8,0.1,4.2-0.3c2.6-0.8,3.7-3,2.7-5.2C130,90.3,131.8,84.8,125.6,86.8z
	 M151.3,76.8c-0.7,1-1.5,1.8-1.9,2.8c-4.9,10.9-9.8,21.8-14.5,32.8c-0.6,1.3,0.2,4,1.3,5.1c3.9,4,7.4,3.1,9.9-2.5
	c3.7-8.3,7.5-16.6,11.1-25c3.3-7.6,5-6.7-3.3-11.4C153.1,78.1,152.3,77.5,151.3,76.8z"/>
<path style="fill:#FFFFFF;" d="M419.4,145.7c2.9,3.2,6.2,5.8,7.9,9.1c7.1,13.4,1.5,32.5-18.8,35c-9.1,1.1-18.3,0.7-27.5,0.9
	c-6.8,0.1-13.7-0.1-20.5,0.1c-2.6,0.1-3.4-0.9-3.4-3.5c0.1-23.9,0-47.8,0-71.7c0-5.8,2.5-9.5,8-9.7c15.9-0.7,32-2.3,47.7,1.6
	c16.5,4,18.9,24.4,11.4,33.7C422.9,142.9,421,144.3,419.4,145.7z M374,155.5c6,3.4,4.7,8.3,4.9,12.8c0,0.6,0,1.2,0,1.9
	c0.1,3.8,1.7,5.4,5.4,5.5c4.1,0.1,8.2,0.1,12.3,0c6.8-0.2,10.9-4.3,10.8-10.6c-0.1-6.1-4.5-10.4-11-10.6c-6.1-0.1-12.1,0-18.2,0
	C377.3,154.5,376.3,154.9,374,155.5z M374.7,121.3c4.1,3.1,4.4,6.9,4.1,11c-0.1,1.1-0.4,2.5,0.1,3.3c1.1,1.6,2.5,4,4,4.1
	c5.2,0.4,10.4,0.3,15.6-0.3c4-0.5,6.7-3.9,7.1-7.9c0.5-4.2-1.1-8.3-4.8-9.6C392.4,119,383.6,121.1,374.7,121.3z"/>
<path style="fill:#FFFFFF;" d="M457.8,123.5c4.2,3.1,4.8,6.4,4.7,10c-0.1,5.1,1.4,6.6,6.5,6.6c8,0,15.9,0.1,23.9,0
	c2.8,0,3.8,1.1,3.8,3.7c0,2.7-0.1,5.5,0.1,8.2c0.1,3.2-1.4,4.4-4.5,4.4c-9.9-0.1-19.9,0-29.8,0c-1.1,0-2.3,0.3-4.3,0.6
	c4.3,3.3,4.4,7.1,4.3,11.1c-0.1,4.1,1.4,5.5,5.6,5.6c10.9,0.1,21.9,0,32.8,0c4.5,0,4.9,0.4,4.9,4.9c0,2.6-0.2,5.2,0.1,7.8
	c0.4,3.8-1.2,4.6-4.7,4.5c-13.7-0.2-27.4-0.1-41-0.1c-4.7,0-9.4,0-14.2,0c-5,0-5,0-5-4.9c0-19.6,0-39.2,0-58.7
	c0-4.6-0.1-9.2,0.6-13.7c0.7-4.9,4-7.5,9-7.6c17-0.1,34.1,0,51.1-0.1c2.4,0,3.4,1.1,3.4,3.3c0,3-0.1,6,0,8.9
	c0.2,3.5-1.2,4.9-4.7,4.8c-12.6-0.1-25.1-0.1-37.7,0C461.4,122.8,460.2,123.1,457.8,123.5z"/>
<path style="fill:#FFFFFF;" d="M307.1,163.2c0.6-1.4,1.2-2.8,1.7-4.3c5-16.3,10.1-32.5,14.8-48.9c1.1-3.8,3.1-4.9,6.6-4.8
	c4.1,0.1,8.2,0,12.3,0c3.7,0.1,4.4,1,3.2,4.6c-5.2,16.5-10.5,32.9-15.7,49.4c-2.9,9-5.8,18-8.5,27c-1,3.2-2.6,4.6-6.1,4.5
	c-6.2-0.2-12.4-0.2-18.6,0c-2.9,0.1-4.4-1.3-5.1-3.8c-8.1-25.7-16.2-51.4-24.3-77.1c-1.1-3.6-0.6-4.5,3.2-4.6c4.2-0.1,8.4,0,12.7,0
	c3.3,0,5.2,1.2,6.2,4.8c4.7,16.5,9.8,32.8,14.8,49.2c0.4,1.3,1,2.6,1.6,3.9C306.4,163.2,306.8,163.2,307.1,163.2z"/>
<path style="fill:#FFFFFF;" d="M226.9,125.7c3.8,1.8,4.1,5,4.1,8.4c0,17.2,0,34.4,0,51.7c0,4.6-0.3,4.9-4.8,4.9
	c-4.2,0-8.5-0.2-12.7,0.1c-3.7,0.3-5-1-4.9-4.8c0.2-17.5,0.1-34.9,0.1-52.4c0-1,0-2,0-3c-0.1-4.7-1.6-6.3-6.3-6.3
	c-4.8-0.1-9.7-0.1-14.5,0c-3,0-4.4-0.8-4.4-4.3c0.1-11.9,2.6-14.6,14.5-14.6c17.7,0,35.3,0,53,0c5.1,0,5.1,0,5.1,4.9
	c0,3.3-0.2,6.7,0.1,10c0.3,3.2-1.2,4.1-4.1,4c-7-0.1-13.9-0.1-20.9,0c-1.3,0-2.5,0.3-3.8,0.5C227.1,125,227,125.4,226.9,125.7z"/>
<path style="fill:#FFFFFF;" d="M559.1,125.6c5,2.3,4.2,6.4,4.2,10.3c0,16.7-0.1,33.4,0.1,50.1c0,3.9-1.2,4.9-4.9,4.7
	c-4.5-0.3-8.9-0.2-13.4,0c-3.4,0.2-4.3-1.3-4.3-4.4c0.1-18.6,0-37.1,0-55.7c0-5.1-1.2-6.3-6.4-6.4c-5.9,0-11.9,0-18.2,0
	c0-4.4-0.5-8.2,0.1-11.9c0.7-4.4,4.8-6.9,10.5-7c15.7-0.1,31.3,0,47-0.1c3.1,0,4.2,1.5,4.1,4.3c-0.1,3.5-0.1,6.9,0,10.4
	c0.1,3-1.1,4.3-4.2,4.2c-3.6-0.1-7.2-0.1-10.8,0c-1.1,0-2.2,0.4-3.4,0.6C559.5,125.1,559.3,125.3,559.1,125.6z"/>
<path style="fill:#FEAA1E;" d="M159.7,8.4c1.1,0.9,1.8,2,2.6,2.1c4.9,0.5,3.5,3.5,2.4,6.1c-4.6,10.8-9.3,21.6-14,32.4
	c-0.2,0.5-0.8,1.2-1.1,1.1c-2.4-0.4-5.2-0.4-7.1-1.7c-2.2-1.5-0.9-4.1,0-6.2c2.7-6.4,5.4-12.7,8.1-19.1c1.6-3.8,2.9-7.8,4.8-11.5
	C156,10.2,158.1,9.5,159.7,8.4z"/>
<path style="fill:#FFFFFF;" d="M597.5,124.5c-0.2,0-0.5,0-0.7,0c-9.6,0-9.6,0-9.6-9.8c0-1.2,0-2.5,0-3.7c0.2-4.6,1.1-5.5,5.7-5.9
	c3.3-0.3,6.6-0.6,9.9-0.7c3.8,0,5.4,1.6,5.3,5.3c-0.1,3.8-0.5,7.6-0.7,11.3c-0.1,2.7-1.3,3.7-3.9,3.4
	C601.4,124.4,599.5,124.5,597.5,124.5z"/>
<path style="fill:#FEAA1E;" d="M192.6,62.5c-2-0.6-3.8-1-5.5-1.6c-2.7-1-3.8-3.5-2.6-6.1c2.6-5.7,5.3-11.4,7.9-17.1
	c1.5-3.2,4-4.2,7.4-2.9c3.5,1.3,3,4.3,2.1,6.6c-2,5.3-4.6,10.4-7,15.5C194.1,58.9,193.3,60.7,192.6,62.5z"/>
<path style="fill:#FEAA1E;" d="M181.2,88.2c-2.2-0.3-4.6-0.2-6.7-1c-2.4-0.9-3.1-3.1-2-5.6c1.6-3.4,3.2-6.8,5.1-10
	c1.8-3.1,4.2-0.5,6.1,0c2.8,0.7,3.4,2.8,2.3,5.5C184.5,80.6,183,84.1,181.2,88.2z"/>
<path style="fill:#FEAA1E;" d="M184.5,8.5c3.5,0.1,6.4,2.8,5.5,6.2c-0.5,1.9-2.9,4.2-4.8,4.7c-3,0.8-6.2-3-6.1-6.2
	C179.1,10.9,181.9,8.5,184.5,8.5z"/>
</svg>
