<?xml version="1.0" encoding="utf-8"?>
<!-- Generator: Adobe Illustrator 26.1.0, SVG Export Plug-In . SVG Version: 6.00 Build 0)  -->
<svg version="1.1" id="Layer_1" xmlns="http://www.w3.org/2000/svg" xmlns:xlink="http://www.w3.org/1999/xlink" x="0px" y="0px"
	 viewBox="0 0 1056.6 202" style="enable-background:new 0 0 1056.6 202;" xml:space="preserve">
<style type="text/css">
	.st0{fill:url(#SVGID_1_);}
	.st1{fill:#FFFFFF;}
</style>
<linearGradient id="SVGID_1_" gradientUnits="userSpaceOnUse" x1="56.978" y1="37.1528" x2="199.5262" y2="179.701" gradientTransform="matrix(1 0 0 -1 0 201.8898)">
	<stop  offset="0" style="stop-color:#21E222"/>
	<stop  offset="1" style="stop-color:#31B8DF"/>
</linearGradient>
<path class="st0" d="M124.7,10.9c2.5,0.3,5,0.7,7.5,1c15.1,1.7,28.7,7.4,41,16.1c19.5,14,31.7,33,36.1,56.5
	c4.5,24.1-0.3,46.6-14.1,67c-13,19.1-30.8,31.6-53.2,37c-36.6,8.7-73.7-5.2-95.4-36.2c-1-1.4-1-2.4-0.1-3.8
	c11.2-18.6,22.3-37.2,33.5-55.8c1.9-3.1,4-6.1,6.1-9c0.1-0.2,0.6-0.2,1.4-0.6c0,1.2,0,2.2,0,3.1c0.3,14.6,1.1,29.1,3.6,43.5
	c1.2,6.8,3,13.3,6.6,19.4c6.5,11,18.6,13.1,28.4,5c7.1-5.9,12.2-13.4,16.7-21.4c6.2-11.1,12-22.5,17.9-33.8c0.4-0.7,0.8-1.5,1.4-2.6
	c0.5,0.9,0.9,1.4,1.1,1.9c4.7,10.7,10,21,18,29.6c1.3,1.4,2.5,2.8,4.1,3.8c0.8,0.5,2.1,0.3,3.2,0.4c0-1.1,0.4-2.4-0.1-3.1
	c-8.7-11.6-12.4-25-14.9-38.9c-1-5.4-1.5-10.9-2.1-16.3c-0.5-3.8-3.1-6.9-6.5-7.5c-4-0.7-7.3,1.1-9.1,4.9
	c-6.9,14.4-13.3,29-20.7,43.1c-4.4,8.4-10.2,16.1-15.5,24.1c-1,1.5-2.6,2.6-4,3.9c-1.4,1.3-2.9,1.3-3.6-0.6c-1.7-4.6-3.9-9.2-4.8-14
	c-3.1-17.3-3.6-34.9-3-52.4c0.4-11.2,1.4-22.5,2.2-33.7c0.2-3.4,0.1-6.6-2.5-9.2c-4.1-4.1-10.4-2.8-13.1,2.5
	c-5.3,10.2-10.3,20.5-16,30.5c-12.1,20.4-25.3,40.5-39,60.2c-0.3,0.4-0.6,0.8-1.4,1.7c-0.8-2.9-1.6-5.3-2.1-7.8
	c-0.7-4-1.1-8.1-1.6-12.1c-0.1-0.7-0.3-1.5-0.5-2.2c0-2.2,0-4.4,0-6.6c0.2-1.3,0.4-2.5,0.5-3.8c1.6-21.2,9.4-39.7,24.1-55.2
	c13.9-14.6,30.7-23.8,50.7-27.1c3.6-0.6,7.3-1,11-1.5C119.3,10.9,122,10.9,124.7,10.9z"/>
<path class="st1" d="M242.9,74.1c0,19.8,0,39.5,0,59.6c-2.7,0-4.9,0.1-7.2-0.1c-0.4,0-0.9-0.8-1.2-1.3c-0.2-0.2,0-0.7,0-1
	c0-20.7,0-41.4,0-62.1c0-0.5,0.1-1,0.1-1.9c4.6,0,9.2-0.1,13.7,0.1c0.5,0,1.2,1.5,1.5,2.4c3.4,10.6,6.8,21.3,10.2,32
	c1.7,5.5,3.5,10.9,5.5,17.2c1.3-3.9,2.4-7,3.4-10.2C273,95.9,277.2,83,281.2,70c0.7-2.3,1.7-2.9,3.9-2.8c3.7,0.2,7.4,0,11.4,0
	c0,22.2,0,44.1,0,66.2c-2.6,0-5.2,0-8,0c0-19.8,0-39.6,0-59.4c-0.3-0.1-0.5-0.1-0.8-0.2c-0.4,0.8-0.9,1.6-1.2,2.4
	c-5.8,18.1-11.6,36.1-17.4,54.2c-0.5,1.5-0.5,3.3-3.1,3.3c-2.2,0-3.2-0.6-3.9-2.8c-5.8-18.4-11.7-36.8-17.6-55.2
	c-0.2-0.7-0.6-1.2-0.9-1.9C243.4,74,243.1,74,242.9,74.1z"/>
<path class="st1" d="M635.5,133.5c-2.7,0-5.3,0-8.2,0c-0.1-1-0.1-2-0.1-3c0-9.6,0-19.2,0-28.8c0-2.5-0.2-5.1-0.6-7.6
	c-0.5-3-2.3-5.1-5.2-6c-6.2-2-11.7-0.1-16.9,3.2c-0.4,0.2-0.6,1-0.6,1.5c0.2,5.6,0.6,11.2,0.7,16.7c0.1,7.2,0,14.4,0.1,21.6
	c0,1.8-0.5,2.7-2.4,2.5c-1.6-0.1-3.2,0-5.2,0c0-1.1,0-2,0-2.9c0-9.9,0-19.9,0-29.8c0-1.4-0.2-2.9-0.2-4.3c-0.4-7.9-5.6-9.8-12.9-9.1
	c-2.8,0.3-5.5,2-8.3,3c-1.6,0.6-2,1.7-2,3.4c0.1,12.1,0,24.3,0,36.4c0,1,0,2,0,3.1c-2.9,0-5.5,0-8.3,0c-0.1-0.9-0.2-1.7-0.2-2.5
	c0-15.3,0-30.6-0.1-45.8c0-2.2,0.7-2.7,2.8-2.7c4.1,0.1,4.1,0,5,3.9c9.9-5.4,19.8-8,29.9,0.3c0.7-0.4,1.7-0.9,2.8-1.5
	c6.4-3.8,13.2-4.5,20.4-2.9c5.5,1.2,8.4,4.9,9.4,10.2c0.4,1.9,0.6,3.9,0.6,5.8c0.1,11.1,0,22.2,0,33.4
	C635.7,132.2,635.6,132.8,635.5,133.5z"/>
<path class="st1" d="M467.4,145.3c3.3,0.2,6.5,0.5,9.6,0.4c3.4-0.1,6.8-0.3,10.1-0.8c3.3-0.5,5.3-2.8,5.9-5.9c0.6-3,0.7-6.1,1.1-9.8
	c-1.7,0.8-2.7,1.2-3.6,1.7c-6.1,3.1-12.5,3.7-19.1,2.1c-6.7-1.5-10.2-5.4-11.1-13.4c-1-8.4-1.2-16.9,0.4-25.3
	c1.5-8,6.4-12,14.6-12.6c6.3-0.5,12.1,0.9,17.5,4.1c0.5,0.3,1,0.6,1.6,0.8c0.1,0,0.2,0,0.3,0c0.2-0.5,0.5-1.1,0.5-1.7
	c0-2,1-2.5,2.9-2.4c5.3,0.2,4.4-0.5,4.4,4.5c0,15.1,0,30.2-0.2,45.3c0,2.7-0.5,5.4-1,8c-1.3,6.7-5.8,10.5-12.3,11
	c-6.9,0.5-13.9-0.1-20.8-0.3c-0.5,0-1.4-1.1-1.4-1.8C466.8,148,467.2,146.8,467.4,145.3z M493.8,107.8c0-4.7,0.1-9.3-0.1-14
	c0-0.9-0.8-2.4-1.6-2.7c-3.1-1.4-6.2-3.2-9.5-3.5c-7.9-0.8-12.4,1.5-13.6,8.8c-1.3,7.9-1.4,15.9,0.2,23.8c0.9,4.5,3.7,6.6,8.3,7.4
	c5.3,0.9,9.9-0.8,14.4-3c1.3-0.7,1.8-1.5,1.8-3C493.7,117,493.8,112.4,493.8,107.8z"/>
<path class="st1" d="M751.4,86.8c0.2-0.7,0.5-1.3,0.5-1.9c-0.1-1.9,0.8-2.4,2.6-2.4c5.6,0.1,4.6-0.5,4.6,4.6
	c0,14.1,0.2,28.2-0.1,42.3c-0.1,4.5-0.7,9.2-2.1,13.5c-1.8,5.9-6.9,8.2-12.7,8.5c-6.3,0.2-12.5-0.2-18.8-0.3c-1.4,0-2.4-0.5-2-2.1
	c0.3-1.4-0.4-3.6,2.3-3.5c3.5,0.1,7,0.4,10.4,0.4c2.4,0,4.9-0.4,7.3-0.8c3.4-0.6,5.5-2.8,6.1-6c0.6-3,0.8-6.2,1.2-9.9
	c-2.1,0.9-3.5,1.5-5,2.2c-6.3,2.9-12.8,3.2-19.4,1.3c-5.8-1.7-8.6-6.1-9.4-11.8c-1.2-8.8-1.3-17.6,0.2-26.4
	c1.4-8,6.4-12.2,14.6-12.6C739.8,81.3,741.2,81.7,751.4,86.8z M750.6,107.9c0-4.7,0.1-9.3-0.1-14c0-1-0.7-2.4-1.5-2.8
	c-3.1-1.4-6.3-3.3-9.7-3.6c-7.3-0.8-12.8,1.3-13.5,8.1c-0.8,8-0.4,16.2-0.1,24.3c0.1,3.3,2.4,5.9,5.9,7c6.6,2.2,12.5,0.2,18.2-3.1
	c0.5-0.3,0.8-1.5,0.8-2.2C750.7,117.1,750.6,112.5,750.6,107.9z"/>
<path class="st1" d="M547.2,86.5c0.3-1.4,0.6-2.5,0.8-3.6c0.2-0.1,0.4-0.2,0.5-0.2c6.4-0.6,6.4-0.6,6.4,5.7
	c0,14.1-0.1,28.2,0.1,42.3c0,2.5-0.7,3.4-3.1,3.1c-1.2-0.1-2.4,0-3.6,0c-0.4-1.5-0.7-2.9-0.9-4.1c-3.7,1.5-7.2,3.1-10.9,4.3
	c-4.6,1.4-9.3,0.8-13.8-0.5c-5.8-1.6-8.7-6-9.6-11.7c-1.4-9.1-1.5-18.3,0-27.4c1.4-8.3,6.7-12.2,15.1-12.7
	c6.1-0.4,11.8,0.8,17.1,3.9C545.8,85.9,546.4,86.1,547.2,86.5z M546.4,107.9c0-4.7,0.1-9.5-0.1-14.2c0-0.9-0.5-2.2-1.1-2.5
	c-3.5-1.4-7-3.3-10.7-3.7c-6.7-0.6-11.7,1.3-12.9,7.8c-1.6,8.6-1.6,17.2,0.1,25.7c1,4.8,4.3,7.1,9.3,7.6c5.1,0.5,9.6-1,13.7-3.7
	c0.8-0.5,1.5-1.8,1.6-2.8C546.5,117.4,546.4,112.7,546.4,107.9z"/>
<path class="st1" d="M452.5,109.4c-0.3,2.9-0.5,7.1-1.2,11.2c-1.1,6.5-4.9,10.9-11.4,12.6c-6.6,1.8-13.3,1.7-19.9,0.1
	c-6.8-1.7-11-6.3-11.6-13c-0.7-8.1-0.8-16.4,0-24.6c0.8-7.7,6-12.2,13.8-13.5c5.9-1,11.9-1,17.7,0.5c7.1,1.8,11.3,7.4,12,16.1
	C452.2,102,452.2,105.1,452.5,109.4z M443.9,108.2c-0.4-4.1-0.5-8.3-1.2-12.3c-0.8-4.9-3.6-7.5-8.5-8c-2.8-0.3-5.6-0.3-8.3,0
	c-5.2,0.5-8.5,3.3-8.9,8.6c-0.5,7.7-0.5,15.4,0,23.1c0.4,5.7,4.4,8.8,10.2,9c1.9,0.1,3.9,0.1,5.9,0c5.5-0.3,8.8-3.1,9.8-8.6
	C443.3,116.1,443.5,112.1,443.9,108.2z"/>
<path class="st1" d="M673.5,133.5c-2.9,0-5.5,0-8.3,0c-0.1-1-0.2-1.9-0.2-2.8c0-15.2,0-30.4-0.1-45.6c0-2.2,0.8-2.8,2.8-2.7
	c4.6,0.2,3.8-0.6,5,4c1-0.5,1.9-0.9,2.8-1.4c6.1-3.4,12.7-4.2,19.5-3.2c8.1,1.2,12,5.4,12.4,13.9c0.4,7.6,0.2,15.3,0.2,22.9
	c0,4.2,0,8.5,0.2,12.7c0.1,1.8-0.6,2.3-2.3,2.4c-6.5,0.1-6.5,0.1-6.5-6.3c0-9.4-0.1-18.8,0-28.3c0.1-10.3-5.3-11.9-14-11.8
	c-1.2,0-2.3,0.4-3.5,0.7c-7.3,2-8,2.9-8,10.5c0,10.7,0,21.4,0,32.1C673.5,131.5,673.5,132.4,673.5,133.5z"/>
<path class="st1" d="M367.6,99.3c-2.6,0-5,0-7.5,0c-0.4-1.9-0.6-3.8-1.1-5.6c-0.8-3.1-2.9-5.2-6-5.6c-3.7-0.4-7.5-0.5-11.1,0
	c-4.8,0.7-7,4.6-7.2,9c-0.4,7.2-0.5,14.4,0,21.6c0.4,6.4,4.1,9.4,10.6,9.8c1.4,0.1,2.9,0.1,4.3,0c6.5-0.4,9.5-3,10-9.5
	c0.2-2.1,0.9-2.6,2.8-2.4c1.7,0.1,3.5,0,5.2,0c1,8.3-2.6,14.4-10.2,16.6c-6.9,2-14,1.9-20.9-0.3c-6-1.9-9.2-6.3-10.3-12.2
	c-1.5-8.2-1.5-16.5-0.1-24.8c1.2-7.6,5.6-12.2,13.1-13.6c6.5-1.3,13.1-1.4,19.4,0.9C365.4,85.7,368.7,91.8,367.6,99.3z"/>
<path class="st1" d="M385,133.6c-3,0-5.6,0-8.5,0c0-16.9,0-33.8,0-51.2c1.8,0,4-0.6,5.5,0.2c1.3,0.6,1.8,2.8,2.6,4.2
	c2.9-1.4,6-3.3,9.5-4.3c3.3-0.9,7-0.9,11-1.3c-0.2,2.3-0.2,4-0.6,5.6c-0.1,0.5-1.4,1.1-2,1.1c-5.7-0.4-10.6,1.5-15.4,4.4
	c-1.5,0.9-2,1.9-2,3.6c0.1,11.4,0,22.9,0,34.3C385,131.3,385,132.3,385,133.6z"/>
<path class="st1" d="M308.4,82.7c2.7,0,5.3,0,8.2,0c0,0.8,0.1,1.6,0.1,2.4c0,15.2,0,30.4,0.1,45.5c0,2.5-0.7,3.3-3.1,3.1
	c-1.7-0.2-3.4,0-5.3,0C308.4,116.6,308.4,99.7,308.4,82.7z"/>
<path class="st1" d="M654.7,107.9c0,7.7-0.1,15.4,0,23.2c0,2-0.6,2.6-2.6,2.6c-6.1-0.1-6.1,0-6.1-6c0-14.1,0.1-28.2-0.1-42.3
	c0-2.4,0.8-3,3-3c5.7,0.1,5.7,0,5.7,5.6C654.7,94.7,654.7,101.3,654.7,107.9z"/>
<path class="st1" d="M316.8,67.6c0,2.8,0,5.5,0,8.3c-2.9,0-5.6,0-8.6,0c0-2.7,0-5.4,0-8.3C311,67.6,313.8,67.6,316.8,67.6z"/>
<path class="st1" d="M645.9,67.6c3.1,0,5.8,0,8.6,0c0.1,0.8,0.2,1.4,0.2,2.1c0.1,7-0.3,7.4-7.3,6.4c-0.6-0.1-1.4-0.9-1.4-1.5
	C645.8,72.3,645.9,70,645.9,67.6z"/>
<g>
	<path class="st1" d="M774.3,135.8V66.4h20.8v53.4H820v16H774.3z"/>
	<path class="st1" d="M827.3,75V60.8h19.5V75H827.3z M827.3,135.8V84.3h19.4v51.5H827.3z"/>
	<path class="st1" d="M867.1,135.8l-14.2-51.5H872l7.8,35h1.1l7.5-35h19l-14.2,51.5H867.1z"/>
	<path class="st1" d="M937.6,136.6c-5,0-9.2-0.3-12.5-1c-3.3-0.6-5.9-1.6-7.8-2.9s-3.3-3-4.2-5c-0.9-2.1-1.5-4.5-1.7-7.5
		c-0.2-2.9-0.4-6.3-0.4-10c0-4.7,0.2-8.7,0.7-12.1c0.4-3.4,1.4-6.1,3-8.3c1.5-2.2,4-3.7,7.4-4.7c3.4-1,8-1.5,13.8-1.5
		c4.7,0,8.5,0.3,11.5,0.9c3,0.6,5.3,1.5,6.9,2.8c1.6,1.3,2.8,2.9,3.6,5c0.7,2.1,1.2,4.6,1.4,7.6c0.2,3,0.3,6.4,0.3,10.3v3.9h-29.7
		c0,2,0.1,3.6,0.3,4.8c0.2,1.2,0.7,2.1,1.5,2.6c0.8,0.6,2,0.9,3.7,1.1c1.7,0.1,4,0.2,6.9,0.2c1.3,0,2.7,0,4.4-0.1
		c1.6-0.1,3.4-0.2,5.3-0.3c1.9-0.1,3.7-0.2,5.5-0.4v12.6c-1.3,0.4-3.1,0.7-5.3,1c-2.2,0.3-4.5,0.5-7,0.7
		C942.6,136.5,940.1,136.6,937.6,136.6z M941.6,107.2v-1.6c0-2.2-0.1-4-0.2-5.2c-0.1-1.3-0.4-2.2-0.9-2.8c-0.4-0.6-1-1-1.8-1.2
		c-0.8-0.2-1.8-0.3-3.1-0.3c-1.3,0-2.4,0.1-3.2,0.3c-0.8,0.2-1.4,0.6-1.8,1.2c-0.4,0.6-0.7,1.5-0.8,2.8c-0.1,1.3-0.2,3-0.2,5.1h13.6
		L941.6,107.2z"/>
</g>
</svg>
