<?xml version="1.0" encoding="utf-8"?>
<!-- Generator: Adobe Illustrator 26.1.0, SVG Export Plug-In . SVG Version: 6.00 Build 0)  -->
<svg version="1.1" id="Layer_1" xmlns="http://www.w3.org/2000/svg" xmlns:xlink="http://www.w3.org/1999/xlink" x="0px" y="0px"
	 viewBox="0 0 1056.6 202" style="enable-background:new 0 0 1056.6 202;" xml:space="preserve">
<path style="fill:#70B816;" d="M680.7,22.5c6,1.4,8.9,4,8.9,11.2c-0.4,44.9-0.1,89.8-0.1,134.6c0,7-6.1,13-13.3,12.7
	c-7.6-0.3-15.6-0.4-22.7-2.7c-3.9-1.3-6.9-6.5-9.5-10.5c-16.9-25.9-33.6-52-50.4-78c-2.9-4.4-5.7-8.8-8.7-13.2
	c-0.4-0.6-1.4-0.7-3.8-2c0,7.6,0,14.2,0,20.7c0.1,25.1,0.2,50.3,0.3,75.4c0,7.1-4.3,11.4-11.4,10.5c-4.1-0.5-8.3-0.1-12.4-0.1
	c-5.5,0-9-3.5-9-8.9c0-45.5,0-91.1,0-136.6c0-7.1,5.4-12.1,12.6-12.2c1.4,0,2.8-0.7,4.2-1c5.2,0,10.5,0,15.7,0
	c2.8,1.9,6.4,3.3,8.3,5.9c5.4,7.3,10,15.1,14.9,22.6c16.2,25,32.5,50.1,48.8,75.1c0.6,1,2,1.5,3.4,2.4c0.3-1.6,0.5-2.2,0.5-2.8
	c-0.1-29.9-0.3-59.8-0.2-89.8c0-4.5,1.8-9,2.8-13.5C666.7,22.5,673.7,22.5,680.7,22.5z"/>
<path style="fill:#FFFFFF;" d="M159.2,22.5c0.2,1.9,0.6,3.8,0.6,5.7c0,46.8,0,93.7,0,140.5c0,8.3-4,12.4-12.2,12.5
	c-0.4,0-0.9,0-1.3,0c-24.1,0.1-23.8-0.1-36.5-20.2c-16.2-25.8-33-51.2-49.5-76.8c-2.1-3.3-4.3-6.6-6.5-9.8c-0.5,0.3-1,0.6-1.5,1
	c0,9.4,0,18.9,0,28.3c0,24.1,0,48.1,0.2,72.2c0,4-1.2,5.5-5.1,5.4c-7.6-0.1-15.3-0.2-22.9,0c-3.9,0.1-5.2-1.3-5.2-5.4
	c0.1-46.6,0.2-93.3,0-139.9c0-6.2,3.6-9.8,7.5-13.5c9.6,0,19.2,0,28.8,0c1.5,1.9,3.1,3.6,4.4,5.6c19.4,29.7,38.8,59.3,58.2,89
	c2.5,3.8,5,7.6,7.5,11.4c0.6-0.2,1.1-0.4,1.7-0.6c0-8.9,0-17.9,0-26.8c0.1-26.2,0.2-52.4,0.4-78.6C138.2,22.5,148.7,22.5,159.2,22.5
	z"/>
<path style="fill:#FFFFFF;" d="M279.7,22.5c-1.2,6-1.8,12.1-3.6,17.9c-4.1,13-4.3,12.8-18.3,12.8c-13.8,0-27.5,0.1-41.3,0
	c-4.7,0-6.7,1.5-6.3,6.5c0.4,6.5,0.5,13,0,19.5c-0.4,5.6,1.6,7.3,7,7.3c13.5-0.2,27.1-0.1,40.6-0.1c2.3,0,4.6,0.2,7.1,0.4
	c-2,7.8-3.7,14.9-5.5,21.9c-0.9,3.6-3,5.2-7.1,5.1c-11.8-0.3-23.6,0.1-35.4-0.1c-5-0.1-7.1,1.5-6.8,6.7c0.4,7.4,0.2,14.7,0.2,22.1
	c0,8.8-0.1,8.8,9.1,8.8c18.6,0,37.1,0,55.7,0c2.3,0,4.6,0.2,7.5,0.4c-2.1,7.8-3.5,15-6,21.8c-1.7,4.9-5.5,8-11.5,7.9
	c-27.3-0.2-54.6-0.1-81.9-0.1c-3,0-5.4,0.1-5.3-4.3c0.2-46,0.3-91.9,0-137.9c0-7.6,2-13,8.7-16.5C217.7,22.5,248.7,22.5,279.7,22.5z
	"/>
<path style="fill:#70B816;" d="M527.4,22.5c4.1,4.4,3.7,8.9,1.1,14.1c-1.8,3.5-2.1,7.8-2.9,11.8c-0.9,4.1-3.3,5.4-7.5,5.3
	c-16.4-0.3-32.7,0.1-49.1-0.3c-5.8-0.1-7.2,2.4-7.1,7.4c0.2,6.3,0.5,12.6,0.2,18.8c-0.2,4.9,1.8,6.6,6.5,6.5
	c13.5-0.1,27.1,0.1,40.6-0.1c5.1-0.1,6.4,2.1,5.6,6.7c-3.6,20.8-3.6,20.9-24.6,20.9c-7.4,0-14.8,0.1-22.3-0.1
	c-3.5-0.1-5.4,1.1-5.5,4.7c-0.1,9.3-0.3,18.6-0.2,27.9c0,4.4,3.1,4.9,6.8,4.9c17.9-0.1,35.8-0.1,53.7-0.1c9.2,0,11,1.9,8.5,10.5
	c-1.7,5.6-4,11.1-6.9,16.1c-1.1,1.9-4.6,3.4-7,3.4c-26.4,0.2-52.8,0.3-79.2,0c-4.6-0.1-8.5-2.7-8.5-8.3c0-20.6-1-41.3,0.3-61.8
	c0.8-12.3,4.9-24.5,7.9-36.6c3.1-12.6,7-24.9,9.9-37.5c1.5-6.5,4.3-10.9,10.9-12.6c1.2-0.3,2.3-1.1,3.4-1.7
	C483.7,22.5,505.5,22.5,527.4,22.5z"/>
<path style="fill:#70B816;" d="M828.8,22.5c5.1,2.3,7.2,5,5.5,11.5c-5.1,19.2-4.6,19.3-24.7,19.5c-5.4,0-10.9,0.2-16.3-0.1
	c-5.2-0.4-6.7,1.7-6.7,6.8c0.1,36.2-0.1,72.4-0.3,108.6c0,8.4-3.9,12.2-12.3,12.3c-2.8,0-5.7,0-8.5,0.1c-8.1,0.1-10.7-2.3-10.8-10.6
	c-0.1-27.1-0.1-54.2-0.1-81.3c0-10.2,0.1-20.3,0.3-30.5c0.1-5.4-3.4-5.7-7.4-5.6c-10.5,0.2-20.9-0.1-31.4,0.5
	c-6.6,0.4-8.4-3.4-9-8.4c-0.4-3.6-0.4-7.4-0.3-11c0.2-6.5,4.1-10.2,10.8-10.2c32.9-0.2,65.9-0.3,98.8-0.6c2.3,0,4.7-0.6,7-0.9
	C825.3,22.5,827,22.5,828.8,22.5z"/>
<path style="fill:#FFFFFF;" d="M419.9,22.5c0.4,1.2,1.3,2.5,1.1,3.5c-1.9,7.3-4.2,14.4-6.2,21.7c-1.1,4-3,5.5-7.4,5.3
	c-10-0.4-20.1,0.1-30.1-0.2c-5.3-0.2-6.8,2-6.8,6.9c0.2,36.4,0.3,72.8,0.3,109.2c0,7.8-4.2,12.1-12,12.3c-20,0.7-20,0.7-20-19.3
	c0.1-34.5,0.1-68.9,0.3-103.4c0-4.9-2.6-5.9-6.6-5.8c-11.3,0.1-22.7,0.1-34,0.1c-2.3,0-4.6-0.3-7.2-0.5c1.8-6.9,3.4-13.1,4.9-19.3
	c1.3-5.4,4.9-8.4,9.7-10.5C343.9,22.5,381.9,22.5,419.9,22.5z"/>
</svg>
