<?xml version="1.0" encoding="utf-8"?>
<!-- Generator: Adobe Illustrator 26.1.0, SVG Export Plug-In . SVG Version: 6.00 Build 0)  -->
<svg version="1.1" id="Layer_1" xmlns="http://www.w3.org/2000/svg" xmlns:xlink="http://www.w3.org/1999/xlink" x="0px" y="0px"
	 viewBox="0 0 1056.6 202" style="enable-background:new 0 0 1056.6 202;" xml:space="preserve">
<g id="Livello_1_1_">
</g>
<g>
	<path style="fill:#FFFFFF;" d="M234.6,71.9h17l-0.1,32.1h0.8L266,71.9h17.3l-23.8,50H237L234.6,71.9z"/>
	<path style="fill:#FFFFFF;" d="M283.9,84.9h15.8l-7.8,37.1h-15.8L283.9,84.9z M287.5,67.9h15.8l-2.3,11h-15.8L287.5,67.9z"/>
	<path style="fill:#FFFFFF;" d="M309.7,67.9h15.6l-6.5,30.5h0.7l10.4-13.5h16.6l-15,18.2l7.6,18.9h-16.6l-4.9-13.4h-0.7l-2.8,13.4
		h-15.5L309.7,67.9z"/>
	<path style="fill:#FFFFFF;" d="M350.9,84.9h15.8l-7.8,37.1h-15.8L350.9,84.9z M354.5,67.9h15.8l-2.3,11h-15.8L354.5,67.9z"/>
	<path style="fill:#FFFFFF;" d="M373.2,84.9h15l-0.6,4.1h0.7c3.1-3.9,7.2-4.7,10-4.7c7,0,9,2.5,9,7.6c0,2-0.6,5.6-1.3,9.1l-4.5,21
		h-15.5l3.9-18.6c0.5-2.3,0.9-4.6,0.9-5.5c0-1.4-0.5-1.5-1.7-1.5c-2.8,0-3,0.4-4.2,6l-4.2,19.6h-15.5L373.2,84.9z"/>
	<path style="fill:#FFFFFF;" d="M407,135.8l2-9.8h9.5c8.6,0,8.9-0.1,10-5.5c0.2-1.2,0.7-2.3,0.9-3.4h-0.7c-3.3,3.7-6,4.2-10.5,4.2
		c-5.7,0-8.7-2-8.7-8.8c0-2.5,0.4-5.7,1.3-9.8c3.1-14.8,6.3-18.4,15-18.4c3.9,0,7.4,0.8,8.8,4.7h0.8l1.2-4.1h15l-7,33.1
		c-2.8,13.4-4.6,19-24,19C415.8,136.9,410.1,136.5,407,135.8z M431,107.5c0.7-2,2-8.5,2-9.8s-0.7-1.5-2.4-1.5
		c-3.1,0-3.1,0.1-4.4,6.5c-0.6,2.6-0.9,4.1-0.9,5.1c0,1.4,0.7,1.5,2.5,1.5C429.8,109.4,430.4,109.2,431,107.5z"/>
	<path style="fill:#FFFFFF;" d="M472.2,111.3c0-3.7,1.2-8.6,2.4-15.1c3.9-20.2,5.3-24.9,26.2-24.9c15.5,0,20.1,2.9,20.1,11.3
		c0,3.8-0.9,8.6-2.3,15c-4.7,20.3-5.4,24.9-26,24.9C476.9,122.5,472.2,119.6,472.2,111.3z M501.7,96.9c1.2-5.5,1.8-8.9,1.8-10.8
		c0-2.6-1.2-2.7-4.1-2.7c-5.1,0-5.2,0.3-7.9,13.4c-1.2,5.7-2,9-2,10.9c0,2.5,1.2,2.5,4.1,2.5C498.7,110.4,498.8,110.1,501.7,96.9z"
		/>
	<path style="fill:#FFFFFF;" d="M520.3,135.8l2-9.8h9.6c8,0,8.2,0,9.4-5.6c0.3-1.2,0.5-2.5,0.8-3.8h-0.7c-3.1,3.9-6.8,4.7-9.5,4.7
		c-7.2,0-9.4-2.8-9.4-7.8c0-1.9,0.3-4.1,0.9-6.6l4.7-22h15.6l-3.9,18.4c-0.5,2.4-0.8,3.9-0.8,4.7c0,1.3,0.6,1.3,2,1.3
		c2.5,0,2.7-0.1,4-6l3.9-18.4h15.6l-7,33.1c-2.6,12.4-3.6,19-23.8,19C528.7,136.9,523.2,136.5,520.3,135.8z"/>
	<path style="fill:#FFFFFF;" d="M565,114.7c0-2,0.7-5.6,1.4-9.1l4.4-20.7h15.5l-3.9,18.6c-0.5,2.3-0.9,4.6-0.9,5.5
		c0,1.4,0.5,1.5,1.7,1.5c2.8,0,3-0.4,4.2-6l4.2-19.6h15.5l-7.8,37.1h-15l0.6-4.1h-0.7c-3.1,3.9-7.2,4.7-10,4.7
		C567,122.5,565,119.9,565,114.7z"/>
	<path style="fill:#FFFFFF;" d="M613.7,84.9h15l-0.6,4.1h0.7c3.1-3.9,7.2-4.7,10-4.7c7,0,9,2.5,9,7.6c0,2-0.6,5.6-1.3,9.1l-4.5,21
		h-15.5l3.9-18.6c0.5-2.3,0.9-4.6,0.9-5.5c0-1.4-0.5-1.5-1.7-1.5c-2.8,0-3,0.4-4.2,6l-4.2,19.6h-15.5L613.7,84.9z"/>
	<path style="fill:#FFFFFF;" d="M660,67.9h15.8l-11.4,54h-15.8L660,67.9z"/>
	<path style="fill:#FFFFFF;" d="M672.4,113.7c0-2.6,0.3-6,1.2-10.2c3.1-15.1,7-19.2,14.4-19.2c4,0,7.7,0.5,9.6,4.2h0.7l1.2-3.7h15.1
		l-7.8,37.1h-15l0.7-4.1h-0.8c-2.6,3.9-6,4.7-9.3,4.7C675.6,122.5,672.4,120.5,672.4,113.7z M693.8,108.7c0.7-2,2.3-9,2.3-10.8
		c0-1.5-0.5-1.6-2.4-1.6c-3,0-3.1,0.1-4.6,7.1c-0.7,2.9-0.9,4.6-0.9,5.7c0,1.4,0.7,1.5,2.5,1.5C692.7,110.5,693.2,110.4,693.8,108.7
		z"/>
	<path style="fill:#FFFFFF;" d="M721.1,84.9h15l-1,6.2h0.7c3.2-5.5,5.9-6.8,12.6-6.8l-2.9,13.5c-9.7,0-12,1.8-14.1,11.7l-2.7,12.4
		h-15.5L721.1,84.9z"/>
	<path style="fill:#FFFFFF;" d="M752.9,84.9h15.8l-7.8,37.1h-15.8L752.9,84.9z"/>
</g>
<path style="fill-rule:evenodd;clip-rule:evenodd;fill:#FFFFFF;" d="M192.1,139.5l-16.3-19.8c-6.7-10.4-1.1-8-1.1-8
	c4.3,4.3,9.1,12,9.1,12l7.5-5.1c-10.4-11.2-6.1-16.8-6.1-16.8l-14.4-13.9c-14.2,13.4-11,23.3,4.6,43.6c9.9,13.1-13.6,11.2-13.6,11.2
	h-45.5h-8.3H62.4c0,0-23.6,1.9-13.4-11.2c6.1-8,9.6-14.7,11.5-19.8c4.3-12.3-1.9-17.1-8.8-17.4c-21.1-1.1-12.8,28.1-2.1,17.4
	c0,0,5.4-2.4-1.3,8l-16.3,19.8c0,0-11.5,28.1,26,28.6h47.1h14.2h47.1C203.7,167.6,192.1,139.5,192.1,139.5z"/>
<path style="fill-rule:evenodd;clip-rule:evenodd;fill:#FFFFFF;" d="M144.8,67.3c17.9,7.2,24.3,49.5-11,58.6h-0.5
	c13.1-33.2,5.4-53.2-0.8-62.3L144.8,67.3z M128.7,126.7l-21.9,3.7c16.1-36.7,7.5-61.5-0.3-74.7l20.1,5.9
	C131.7,67.6,145.1,87.9,128.7,126.7L128.7,126.7z M102.3,131L56,139c0,0,61.8-65.8-12-101.7l57.2,16.8
	C108.9,65.4,120.7,91.1,102.3,131L102.3,131z"/>
<path style="fill-rule:evenodd;clip-rule:evenodd;fill:#FFFFFF;" d="M41.8,29.3l70.1,20.9l-0.3-8.8l3.5-6.4l2.4,5.9v11l43.6,12.9
	c1.3,0.3,2.1,1.6,2.1,2.9l0,0c0,1.1-0.8,1.9-2.1,1.6L41.8,33.9c-1.3-0.3-2.1-1.6-2.1-2.7l0,0C39.6,29.8,40.4,29,41.8,29.3L41.8,29.3
	z"/>
</svg>
