<?xml version="1.0" encoding="utf-8"?>
<!-- Generator: Adobe Illustrator 24.1.2, SVG Export Plug-In . SVG Version: 6.00 Build 0)  -->
<svg version="1.1" id="Layer_1" xmlns="http://www.w3.org/2000/svg" xmlns:xlink="http://www.w3.org/1999/xlink" x="0px" y="0px"
	 viewBox="0 0 190.5 53.8" style="enable-background:new 0 0 190.5 53.8;" xml:space="preserve">
<style type="text/css">
	.st0{fill:#FFFFFF;}
</style>
<g>
	<g>
		<g>
			<path class="st0" d="M57.1,41.1c-0.6,0-0.8-0.3-0.8-0.8V20.5c0-0.6,0.2-0.8,0.8-0.8h5.7c5.7,0,7.6,2.1,7.6,4.7v1.9
				c0,1.5-0.7,2.8-2.4,3.5c2.1,0.8,3.3,2.1,3.3,3.8v2.5c0,2.6-1.9,5-7.6,5C63.7,41.1,57.1,41.1,57.1,41.1z M60.6,23.1v5.5H63
				c2,0,3.3-0.8,3.3-2.4v-1.1c0-1.6-1.3-2-3.4-2H60.6z M60.6,31.8v5.9h3.2c2.1,0,3.4-0.8,3.4-2.3V34c0-1.3-1.3-2.2-3.4-2.2H60.6z"/>
			<path class="st0" d="M81.9,19.7c0.6,0,0.8,0.3,1,0.8l5.8,19.8c0.2,0.5,0,0.8-0.6,0.8h-2.8c-0.5,0-0.8-0.3-0.9-0.8l-1.1-3.8h-5.8
				l-1.1,3.8c-0.2,0.5-0.4,0.8-0.9,0.8H73c-0.6,0-0.8-0.3-0.6-0.8l5.9-19.8c0.2-0.5,0.4-0.8,1-0.8H81.9z M81.4,29.6
				c-0.4-1.3-0.9-5.3-0.9-5.7c-0.1,0.4-0.6,4.4-1,5.7l-1.1,3.5h4L81.4,29.6z"/>
			<path class="st0" d="M104.7,36.2c0,2.6-1.7,5.1-7.4,5.1c-5.7,0-7.4-2.5-7.4-5.1V24.6c0-2.6,1.7-5.1,7.4-5.1
				c5.7,0,7.4,2.5,7.4,5.1v1.5c0,0.6-0.2,0.8-0.7,0.8h-2.6c-0.6,0-0.8-0.2-0.8-0.8v-0.8c0-1.6-1.1-2.4-3.2-2.4s-3.2,0.8-3.2,2.4
				v10.1c0,1.6,1.1,2.4,3.2,2.4s3.2-0.8,3.2-2.4v-1.2c0-0.6,0.2-0.8,0.8-0.8h2.6c0.5,0,0.7,0.2,0.7,0.8V36.2z"/>
			<path class="st0" d="M121.8,36.2c0,2.6-1.7,5.1-7.4,5.1s-7.4-2.5-7.4-5.1V24.6c0-2.6,1.7-5.1,7.4-5.1s7.4,2.5,7.4,5.1v1.5
				c0,0.6-0.2,0.8-0.7,0.8h-2.6c-0.6,0-0.8-0.2-0.8-0.8v-0.8c0-1.6-1.1-2.4-3.2-2.4s-3.2,0.8-3.2,2.4v10.1c0,1.6,1.1,2.4,3.2,2.4
				s3.2-0.8,3.2-2.4v-1.2c0-0.6,0.2-0.8,0.8-0.8h2.6c0.5,0,0.7,0.2,0.7,0.8V36.2z"/>
			<path class="st0" d="M132.3,19.7c0.6,0,0.8,0.3,1,0.8l5.8,19.8c0.2,0.5,0,0.8-0.6,0.8h-2.8c-0.5,0-0.8-0.3-0.9-0.8l-1.1-3.8h-5.8
				l-1.1,3.8c-0.2,0.5-0.4,0.8-0.9,0.8h-2.5c-0.6,0-0.8-0.3-0.6-0.8l5.9-19.8c0.2-0.5,0.4-0.8,1-0.8H132.3z M131.7,29.6
				c-0.4-1.3-0.9-5.3-0.9-5.7c-0.1,0.4-0.6,4.4-1,5.7l-1.1,3.5h4L131.7,29.6z"/>
			<path class="st0" d="M145.2,32.9v7.3c0,0.6-0.2,0.8-0.8,0.8h-2.7c-0.6,0-0.8-0.3-0.8-0.8V20.5c0-0.6,0.2-0.8,0.8-0.8h6.6
				c5.7,0,7.6,2.5,7.6,5.1v3c0,1.9-0.9,3.6-3.5,4.5l3.4,7.9c0.2,0.5-0.2,0.8-0.7,0.8h-2.8c-0.4,0-0.6-0.3-0.8-0.8l-3.1-7.3h-0.2
				C148.2,32.9,145.2,32.9,145.2,32.9z M145.2,23.2v6.2h3.1c2.1,0,3.4-0.8,3.4-2.4v-1.5c0-1.6-1.3-2.4-3.4-2.4L145.2,23.2
				L145.2,23.2z"/>
			<path class="st0" d="M166.9,19.7c0.6,0,0.8,0.3,1,0.8l5.8,19.8c0.2,0.5,0,0.8-0.6,0.8h-2.8c-0.5,0-0.8-0.3-0.9-0.8l-1.1-3.8h-5.8
				l-1.1,3.8c-0.2,0.5-0.4,0.8-0.9,0.8H158c-0.6,0-0.8-0.3-0.6-0.8l5.9-19.8c0.2-0.5,0.4-0.8,1-0.8H166.9z M166.3,29.6
				c-0.4-1.3-0.9-5.3-0.9-5.7c-0.1,0.4-0.6,4.4-1,5.7l-1.1,3.5h4L166.3,29.6z"/>
			<path class="st0" d="M186,19.7c0.5,0,0.8,0.2,0.8,0.8v2c0,0.6-0.3,0.8-0.8,0.8h-4.5v17c0,0.6-0.2,0.8-0.8,0.8H178
				c-0.6,0-0.8-0.3-0.8-0.8v-17h-4.5c-0.6,0-0.8-0.2-0.8-0.8v-2c0-0.6,0.2-0.8,0.8-0.8H186z"/>
		</g>
	</g>
	<g>
		<g>
			<path class="st0" d="M27.6,35.1L23,39.7c-0.6,0.6-0.9,1.3-0.9,2.1c0,1.6,1.3,3,3,3c0.6,0,1.2-0.2,1.7-0.5V47h1.5v-2.8
				c0.5,0.3,1.1,0.5,1.7,0.5c1.6,0,3-1.3,3-3c0-0.8-0.3-1.5-0.9-2.1L27.6,35.1z M30.1,43.2c-0.4,0-0.7-0.2-1-0.4l-1.5-1.5l-1.5,1.5
				c-0.3,0.3-0.6,0.4-1,0.4c-0.8,0-1.4-0.6-1.4-1.4c0-0.4,0.2-0.7,0.4-1l3.5-3.5l3.5,3.5c0.3,0.3,0.4,0.6,0.4,1
				C31.5,42.5,30.8,43.2,30.1,43.2L30.1,43.2z"/>
			<path class="st0" d="M17.5,33.9h3.9c-1.9,1.7-3.2,4.2-3.2,7c0,5.1,4.2,9.3,9.3,9.3s9.3-4.2,9.3-9.3c0-2.8-1.2-5.3-3.2-7h3.9v-6.2
				h-20V33.9z M27.6,31.6c-0.8,0-1.6,0.1-2.3,0.3v-2.6h4.6v2.6C29.2,31.7,28.4,31.6,27.6,31.6L27.6,31.6z M35.3,40.9
				c0,4.3-3.5,7.7-7.7,7.7s-7.7-3.5-7.7-7.7s3.5-7.7,7.7-7.7S35.3,36.6,35.3,40.9L35.3,40.9z M36.1,32.3h-4.6v-3.1h4.6V32.3z
				 M19.1,29.2h4.6v3.1h-4.6V29.2z"/>
			<path class="st0" d="M47.7,19.9h-9.3v6.2h7v5.4c0,3.4-2.8,6.2-6.2,6.2h-0.8v6.2h0.8c6.8,0,12.4-5.6,12.4-12.4v-7.7
				C51.6,21.7,49.9,19.9,47.7,19.9L47.7,19.9z M40,24.6v-3.1h7.7c1.3,0,2.3,1,2.3,2.3v2.3h-3c0-0.9-0.7-1.5-1.5-1.5
				C45.5,24.6,40,24.6,40,24.6z M47,30.8v-3.1h3v3.1H47z M40,42.4v-3.1c3.7-0.4,6.6-3.3,6.9-6.9H50C49.6,37.7,45.3,42,40,42.4
				L40,42.4z"/>
			<path class="st0" d="M3.6,23.8v7.7c0,6.8,5.6,12.4,12.4,12.4h0.8v-6.2H16c-3.4,0-6.2-2.8-6.2-6.2v-5.4h7v-6.2H7.5
				C5.3,19.9,3.6,21.7,3.6,23.8L3.6,23.8z M8.2,30.8H5.1v-3.1h3.1V30.8z M15.2,39.3v3.1c-5.4-0.4-9.6-4.7-10-10h3.1
				C8.6,36,11.6,38.9,15.2,39.3L15.2,39.3z M15.2,24.6H9.8c-0.9,0-1.5,0.7-1.5,1.5H5.1v-2.3c0-1.3,1-2.3,2.3-2.3h7.7v3.1H15.2z"/>
			<path class="st0" d="M36.9,22.9c0-1.6-1-3.1-2.5-3.6l-3.7-1.4v-0.7c0.6-0.5,1-1.2,1.3-2c1.5-0.3,2.6-1.5,2.6-3V9.1
				c0-3.8-3.1-7-7-7s-7,3.1-7,7v3.1c0,1.5,1.1,2.8,2.6,3c0.3,0.8,0.7,1.4,1.3,2v0.7l-3.7,1.4c-1.5,0.6-2.5,2-2.5,3.6v3.3h18.6
				C36.9,26.2,36.9,22.9,36.9,22.9z M31.3,21.2l-2.4,2l1.4-3.9l0.4,0.2L31.3,21.2z M24.4,19.5l0.4-0.2l1.4,3.9l-2.4-2L24.4,19.5z
				 M27.6,16.9c-1.7,0-3.1-1.4-3.1-3.1v-3.2c1.1-0.1,2.2-0.5,3.1-1.2c0.9,0.7,2,1.1,3.1,1.2v3.2C30.7,15.5,29.3,16.9,27.6,16.9
				L27.6,16.9z M32.2,13.5v-2.7c0.5,0.3,0.8,0.8,0.8,1.3C33,12.8,32.7,13.3,32.2,13.5L32.2,13.5z M27.6,3.7c3,0,5.4,2.4,5.4,5.4v0.4
				c-0.5-0.3-1-0.4-1.5-0.4h-0.1c-1.2,0-2.4-0.5-3.2-1.3l-0.5-0.5L27,7.8c-0.8,0.8-2,1.3-3.2,1.3h-0.1c-0.6,0-1.1,0.2-1.5,0.4V9.1
				C22.2,6.1,24.6,3.7,27.6,3.7L27.6,3.7z M22.2,12.2c0-0.6,0.3-1.1,0.8-1.3v2.7C22.5,13.3,22.2,12.8,22.2,12.2L22.2,12.2z
				 M27.6,18.4c0.5,0,1.1-0.1,1.5-0.3v0.1l-1.5,4.1l-1.6-4v-0.1C26.5,18.3,27.1,18.4,27.6,18.4L27.6,18.4z M19.9,22.9
				c0-1,0.6-1.8,1.5-2.2l1.2-0.4l-0.5,1.5l3.4,2.8h-5.6V22.9z M35.3,24.6h-5.6l3.4-2.8l-0.5-1.5l1.2,0.4c0.9,0.3,1.5,1.2,1.5,2.2
				V24.6z"/>
		</g>
	</g>
</g>
</svg>
