<?xml version="1.0" encoding="utf-8"?>
<!-- Generator: Adobe Illustrator 24.1.2, SVG Export Plug-In . SVG Version: 6.00 Build 0)  -->
<svg version="1.1" id="Layer_1" xmlns="http://www.w3.org/2000/svg" xmlns:xlink="http://www.w3.org/1999/xlink" x="0px" y="0px"
	 viewBox="0 0 118.3 43.5" style="enable-background:new 0 0 118.3 43.5;" xml:space="preserve">
<style type="text/css">
	.st0{fill:#FFFFFF;}
	.st1{fill:#DA0E11;}
	.st2{fill:#F6EB1F;}
	.st3{fill:#F0C46D;}
	.st4{fill:none;}
	.st5{clip-path:url(#SVGID_2_);fill:url(#SVGID_3_);}
	.st6{clip-path:url(#SVGID_5_);fill:url(#SVGID_6_);}
	.st7{clip-path:url(#SVGID_8_);fill:url(#SVGID_9_);}
	.st8{fill:#FFD782;}
	.st9{fill:#DA1C4B;}
	.st10{fill:#8EC13F;}
	.st11{fill:#F9BB4B;}
	.st12{fill:#FFF69A;}
	.st13{fill:#E5E4CF;}
	.st14{fill:#143441;}
	.st15{clip-path:url(#SVGID_11_);fill:#F4F4E6;}
	.st16{clip-path:url(#SVGID_11_);fill:#FFFFFF;}
	.st17{fill:url(#SVGID_12_);}
	.st18{fill:url(#SVGID_13_);}
</style>
<g>
	<g>
		<path class="st0" d="M49.8,26.1v5.5c0,0.5-0.2,0.7-0.6,0.7H47c-0.5,0-0.6-0.2-0.6-0.7v-16c0-0.5,0.2-0.7,0.6-0.7h5.3
			c4.6,0,6.2,2,6.2,4.1V22c0,2.1-1.6,4.1-6.2,4.1H49.8z M49.8,17.8v5.5h2.5c1.7,0,2.7-0.6,2.7-1.9v-1.7c0-1.3-1-1.9-2.7-1.9H49.8z"
			/>
		<path class="st0" d="M60.2,18.9c0-2.1,1.6-4.1,6.2-4.1s6.2,2,6.2,4.1v9.4c0,2.1-1.6,4.1-6.2,4.1s-6.2-2-6.2-4.1V18.9z M69.1,19.5
			c0-1.3-1-1.9-2.7-1.9s-2.7,0.6-2.7,1.9v8.2c0,1.3,1,1.9,2.7,1.9s2.7-0.6,2.7-1.9V19.5z"/>
		<path class="st0" d="M88,31.6c0.2,0.3,0.1,0.6-0.3,0.6h-2.8c-0.4,0-0.7-0.3-0.9-0.6L79.1,25h-0.4v6.7c0,0.4-0.2,0.6-0.6,0.6h-2.2
			c-0.5,0-0.6-0.2-0.6-0.6v-16c0-0.4,0.2-0.6,0.6-0.6h2.2c0.5,0,0.6,0.2,0.6,0.6v6.8h0.4l4.5-6.8c0.2-0.4,0.6-0.6,1-0.6H87
			c0.5,0,0.5,0.3,0.3,0.6L82,23.5L88,31.6z"/>
		<path class="st0" d="M90.1,32.3c-0.5,0-0.6-0.2-0.6-0.7v-16c0-0.5,0.2-0.7,0.6-0.7h8.7c0.4,0,0.6,0.2,0.6,0.6v1.6
			c0,0.5-0.2,0.6-0.6,0.6h-5.9v4.1h5.4c0.5,0,0.7,0.2,0.7,0.6v1.5c0,0.4-0.2,0.6-0.7,0.6h-5.4v4.7H99c0.5,0,0.6,0.2,0.6,0.6v1.6
			c0,0.5-0.2,0.6-0.6,0.6H90.1z"/>
		<path class="st0" d="M105.3,25.7v5.9c0,0.5-0.2,0.7-0.6,0.7h-2.2c-0.5,0-0.6-0.2-0.6-0.7v-16c0-0.5,0.2-0.7,0.6-0.7h5.3
			c4.6,0,6.2,2,6.2,4.1v2.4c0,1.5-0.8,2.9-2.8,3.7l2.7,6.4c0.2,0.4-0.1,0.7-0.6,0.7h-2.2c-0.4,0-0.5-0.3-0.6-0.7l-2.5-5.9h-0.2
			H105.3z M105.3,17.8v5h2.5c1.7,0,2.7-0.6,2.7-1.9v-1.2c0-1.3-1-1.9-2.7-1.9H105.3z"/>
	</g>
</g>
<radialGradient id="SVGID_2_" cx="21.4882" cy="21.6358" r="23.677" gradientUnits="userSpaceOnUse">
	<stop  offset="0" style="stop-color:#D60023"/>
	<stop  offset="1" style="stop-color:#A3001B"/>
</radialGradient>
<path style="fill:url(#SVGID_2_);" d="M31.4,10.7c-3.3,3.3-6.5,6.5-9.7,9.7c-3.2-3.2-6.5-6.5-9.7-9.7c2.2-2.2,4.4-4.7,6.7-7.1
	c1.7-1.8,4.5-1.8,6.1,0C27,6.1,29.2,8.5,31.4,10.7z M25.2,11.1c-1.2-1.7-2.3-3.3-3.5-5c-0.1,0.1-0.2,0.2-0.2,0.2
	c-0.8,1.2-3.1,4.7-3.1,4.7s2.5,3.9,3.3,5C22.9,14.4,24.1,12.8,25.2,11.1z"/>
<radialGradient id="SVGID_3_" cx="21.4882" cy="21.6358" r="23.6771" gradientUnits="userSpaceOnUse">
	<stop  offset="0" style="stop-color:#D60023"/>
	<stop  offset="1" style="stop-color:#A3001B"/>
</radialGradient>
<path style="fill:url(#SVGID_3_);" d="M18.7,40.4c-2.2-2.2-4.5-4.5-6.7-6.7c3.2-3.2,6.5-6.5,9.7-9.7c3.2,3.2,6.5,6.5,9.7,9.7
	c-2.2,2.2-4.5,4.5-6.8,6.8C23,42,20.4,42,18.7,40.4z M21.7,31.3c-0.1-0.1-0.1-0.2-0.2-0.3c-0.6-1.2-1.9-1.3-2.8-1
	c-0.9,0.4-1.3,1.4-0.9,2.6c0.3,1,1,1.8,1.7,2.5c0.7,0.7,1.5,1.5,2.2,2.2c0.4-0.3,0.7-0.5,0.9-0.8c0.8-0.9,1.7-1.7,2.4-2.7
	c0.5-0.6,0.8-1.4,0.7-2.2c-0.1-0.8-0.6-1.4-1.4-1.6c-0.8-0.2-1.5-0.2-2.1,0.5C22.1,30.8,21.9,31.1,21.7,31.3z"/>
<path class="st0" d="M33.4,12.6c2.3,2.3,4.6,4.6,6.9,6.8c1.6,1.6,1.6,4.3,0,5.9c-2.3,2.3-4.6,4.6-6.8,6.8c-3.3-3.3-6.5-6.5-9.8-9.8
	C26.8,19.1,30.1,15.9,33.4,12.6z M33.4,17.8c-0.8,0.8-1.6,1.5-2.2,2.3c-0.6,0.8-1.2,1.6-1.5,2.5c-0.5,1.1,0.1,2.1,1.3,2.5
	c0.8,0.3,1.5,0,2.1-0.5c0,0,0.1,0.1,0.1,0.1c-0.3,0.8-0.6,1.5-1,2.3c0.8,0,1.7,0,2.6,0c-0.8-0.7-1-1.5-1.1-2.5c0.6,0.7,1.2,1,2,0.8
	c1.4-0.3,2.1-1.5,1.4-2.9C36.3,20.6,34.8,19.2,33.4,17.8z"/>
<path class="st0" d="M9.8,12.7c3.2,3.2,6.5,6.5,9.7,9.7c-3.2,3.2-6.5,6.5-9.7,9.7c-2.2-2.2-4.5-4.5-6.7-6.7c-1.6-1.6-1.6-4.3,0-5.9
	C5.3,17.2,7.6,15,9.8,12.7z M9.5,24c-0.2,1.2-0.5,2.3-1.4,3.1c1.1,0,2.2,0,3.5,0c-1-0.9-1.3-1.9-1.5-3c0.9,1.1,2.2,1.1,3,0.6
	c0.9-0.5,1.3-1.6,1-2.5c-0.2-0.4-0.5-0.9-0.8-1.1c-0.5-0.3-1.1-0.4-1.7-0.6c0.2-1-0.1-1.8-1.1-2.4c-0.8-0.5-1.6-0.4-2.4,0.1
	c-0.9,0.6-1.1,1.5-0.9,2.5c-1.3,0.5-2,1.1-2,2.1c0,1,0.4,1.8,1.4,2.2C7.7,25.3,8.4,25.1,9.5,24z"/>
</svg>
