<?xml version="1.0" encoding="utf-8"?>
<!-- Generator: Adobe Illustrator 24.1.2, SVG Export Plug-In . SVG Version: 6.00 Build 0)  -->
<svg version="1.1" id="Layer_1" xmlns="http://www.w3.org/2000/svg" xmlns:xlink="http://www.w3.org/1999/xlink" x="0px" y="0px"
	 viewBox="0 0 257 79.4" style="enable-background:new 0 0 257 79.4;" xml:space="preserve">
<style type="text/css">
	.st0{fill:#148C8F;}
	.st1{fill:#FFFFFF;}
</style>
<g transform="translate(0.000000,559.000000) scale(0.100000,-0.100000)">
	<path class="st0" d="M350.8,5543.7c-7-3.3-15.9-12-82.5-78.9c-41.1-41.2-75.9-76.7-77.4-78.4l-2.5-3.4h70.2
		c38.7,0,70.3-0.3,70.3-0.6c0-2-7-18.5-10.1-24.2c-9.1-15.7-25.2-28.7-44.8-35.7c-24-8.7-53.3-11.6-118.1-11.6h-39.5l-44-44.3
		c-50.7-51.2-51.2-51.9-52-69.9c-0.5-12.8,1.1-19.7,6.2-27.3c1.9-3,73.7-76.5,159.5-163.4c178.6-180.9,162-166.1,184.8-165.3
		c10.9,0.3,14,0.9,19.2,3.5c4.7,2.4,24.9,22,82.8,80.6c42.1,42.6,76.8,78,77,78.7c0.3,0.6-22.5,1.4-56.9,1.8
		c-61.7,0.6-71.7,1.4-94.4,8c-40.9,11.9-61.7,39.3-67.2,88.2c-1.9,16.3-1.9,168.9,0,185.2c5.4,48.8,26.3,76.3,67.2,88.2
		c22.6,6.6,32.6,7.3,94.4,8c31.4,0.4,57.2,0.9,57.2,1.3s-34.5,35.5-76.7,78.3c-87.4,88.5-82.5,84.4-103,85
		C359.5,5547.5,358,5547.2,350.8,5543.7z"/>
	<path class="st1" d="M1556.2,5301.6c-25.9-45.4-47.2-83-47.2-83.5s10.6-0.9,23.8-0.9l23.7,0.1l32.3,56.2
		c25.8,45,32.8,56.3,34.8,56.3c2.2,0,6.7-7.1,22.5-34.4l19.9-34.5l-30.1-0.4l-30.1-0.3l-12.1-21.3l-12-21.1l77.8-0.4
		c42.8-0.1,78,0,78.3,0.3s-20.7,37.7-46.7,83.1l-47.3,82.7l-20.1,0.4l-20.2,0.3L1556.2,5301.6z"/>
	<path class="st1" d="M866.5,5382c-8.1-1.4-19.6-6.1-25.4-10.5c-18.1-13.5-23.8-34.4-22.3-81.6c1-32.1,4.6-43.6,16.7-55.7
		c6.7-6.8,13.9-10.9,25-14.3c5.6-1.6,17.5-2,81-2.4l74.2-0.5v21.5v21.5l-67.3,0.4c-64.8,0.4-67.5,0.5-71.7,2.9
		c-2.4,1.4-5.4,4.8-7,7.6c-2.4,4.7-2.7,7.1-2.7,29.7c0,28.7,1.1,32.8,10.1,37.3c4.8,2.4,8,2.5,71.8,2.9l66.7,0.4v20.9v20.7l-73-0.1
		C902.5,5382.7,868.2,5382.3,866.5,5382z"/>
	<path class="st1" d="M1036,5362.1v-20.9h36.7h36.7v-62v-62h23.4h23.4v62v62h36h36v20.9v20.9h-96.1H1036V5362.1z"/>
	<path class="st1" d="M1342.8,5380.9c-16.6-4-28.6-12.6-35.2-25.4c-7.3-14-8-18.6-8-56.7c0-32.5,0.1-34.5,3-43.4
		c5.7-17.5,16.4-28.3,33.9-34.5l8.6-3l75-0.4l74.9-0.4v41.9v41.7h-21.5H1452v-20.3v-20.2l-45.2,0.4c-42.9,0.4-45.5,0.5-49.7,2.9
		c-2.4,1.5-5.4,4.6-7,7c-2.3,4-2.5,6.6-2.5,31.2c0,25.2,0.1,26.9,2.7,30.4c1.5,1.9,4.6,4.7,7,6.1c4.2,2.4,7,2.5,71.1,2.9l66.7,0.4
		v20.9v20.7l-72.4-0.1C1364.8,5382.8,1348.8,5382.3,1342.8,5380.9z"/>
	<path class="st1" d="M1751.9,5300.1v-82.8h23.4h23.4v58.9c0,52.2,0.3,58.8,1.9,58.4c1.3-0.3,13-23.5,29.6-58.6l27.6-58.2l22-0.4
		l22-0.3l27.8,58.8c15.3,32.4,28.5,58.8,29.3,58.8c1.3,0,1.6-12.3,1.6-58.8v-58.8h24h24v82.8v82.8h-38.2H1932l-25.8-56.3
		c-14.2-31-26.2-56.3-26.7-56.3s-8.5,16.7-17.7,37.1c-9.2,20.2-20.7,45.7-25.6,56.3l-8.9,19.2h-37.8h-37.8v-82.6H1751.9z"/>
	<path class="st1" d="M2040.3,5300.1v-82.8h23.4h23.4v82.8v82.8h-23.4h-23.4L2040.3,5300.1L2040.3,5300.1z"/>
	<path class="st1" d="M2118.7,5300.1v-82.8h23.4h23.4v61.5c0,55.8,0.1,61.3,2,61c1.1-0.3,21.2-27.7,44.8-61.1l42.8-60.7l34.9-0.4
		l34.9-0.3v82.8v82.8h-23.4h-23.4v-61.5c0-54-0.3-61.3-1.9-61c-1,0.3-21.4,27.7-45.3,61.1l-43.4,60.7l-34.4,0.4l-34.4,0.3
		L2118.7,5300.1L2118.7,5300.1z"/>
	<path class="st1" d="M2388.1,5380.3c-22.6-5.9-35.4-19.9-40-43.8c-2.4-13-2.4-62.2,0.1-74.1c5.1-24,19.1-38.2,43-43.3
		c7.2-1.5,22.1-1.9,80.1-1.9h71.1v41.7v41.7h-21.5h-21.5v-20.2v-20.2l-45.2,0.4c-42.9,0.4-45.5,0.5-49.7,2.9c-2.4,1.5-5.4,4.6-7,7
		c-2.3,4-2.5,6.6-2.5,31.2c0,25.2,0.1,26.9,2.7,30.4c1.5,1.9,4.6,4.7,7,6.1c4.2,2.4,7,2.5,71.1,2.9l66.7,0.4v20.9v20.7l-72.4-0.1
		C2402.4,5382.8,2397,5382.7,2388.1,5380.3z"/>
	<path class="st0" d="M447,5308.9c-22.1-4.8-31.7-16.4-34.7-42.1c-0.6-6.1-1.3-39.2-1.3-73.6s0.6-67.5,1.3-73.6
		c3.2-27.8,13.9-38.8,41-42.6c6.2-0.9,39.5-1.4,89.3-1.4H622l44.5,45.2c52,53.1,52.5,53.8,52.5,73.1c0,10.2-0.4,12.3-4.2,20.2
		c-3.8,8-8,12.5-47.9,52.7l-43.9,44l-84.2-0.1C474,5310.7,453,5310.2,447,5308.9z M551.5,5237.5v-8.9h-8.9h-8.9v8.9v8.9h8.9h8.9
		V5237.5z M551.5,5179.3v-31.6h-8.9h-8.9v31.6v31.6h8.9h8.9V5179.3z"/>
	<path class="st1" d="M846,5163.4c-12.1-2.2-24.4-6.7-35.8-13.3c-9.2-5.3-28.5-24.3-113.5-111.4l-32.9-33.9h943.1H2550v80.3v80.3
		l-847.1-0.1C986.4,5165.1,854.2,5164.9,846,5163.4z M1857.6,5129.8c3.5-1.4,8.6-4.3,11.1-6.6l4.7-4l-4.9-4.8l-4.8-4.8l-6.1,3.4
		c-12.5,7.1-31.1,5.2-40.3-4c-7.3-7.5-9.1-12.3-9.1-25.2c0-13,2.4-19,10-25.6c5.8-5.2,12.3-7.2,22.5-7.2c7.1,0,9.9,0.8,16.3,4l8,4.2
		l5.2-5.2l5.1-5.2l-3.8-3.2c-13.9-11.4-37.6-13.7-54.6-5.4c-27.6,13.4-34,54.1-12.4,78.2C1816.6,5132,1839,5136.8,1857.6,5129.8z
		 M839.9,5084.4v-46.8h-8.2h-8.2v46.8v46.8h8.2h8.2V5084.4z M976.8,5101.5l23.1-29.9l0.4,29.9l0.3,29.7h8.2h8.2v-46.8v-46.8h-4.9
		h-4.8l-24.5,32.1c-13.5,17.7-24.9,32.3-25.4,32.3c-0.6,0.1-1-14.4-1-32.1v-32.3H948h-8.2v46.8v46.8h6.8h6.8L976.8,5101.5z
		 M1186.5,5124.3v-7H1172h-14.5v-39.8v-39.8h-8.9h-8.9v39.8v39.8h-14.5h-14.5v7v7h37.9h37.9V5124.3z M1348.4,5123v-8.2h-26.6h-26.6
		v-11.4V5092h25.9h25.9v-7.6v-7.6h-25.9h-25.9v-11.4V5054h26.6h26.6v-8.2v-8.2h-34.8h-34.8v46.8v46.8h34.8h34.8V5123z
		 M1501.8,5129.2c8.1-2.8,16.6-12.1,18.6-20.9c3.8-15.8-4-31.4-17.7-35.4c-2.8-0.9-5.1-1.8-5.1-2.2c0-0.4,5.8-7.2,13-15.3
		s13.4-15.4,14-16.2c0.6-1.3-1.3-1.6-8.6-1.6h-9.5l-13.5,15.8l-13.5,15.8h-9.2h-9.4v-15.8v-15.8h-8.2h-8.2v46.8v46.8h25.7
		C1490.4,5131.2,1497.1,5130.8,1501.8,5129.2z M1687.2,5085.4c11.3-25.3,20.4-46.3,20.4-46.8c0-0.6-3.8-1-8.3-1h-8.2l-3.9,8.9
		l-3.9,8.9h-25.4h-25.4l-4-8.9l-3.9-8.9h-8.3c-4.6,0-8.3,0.4-8.3,1c0,0.5,9.2,21.5,20.5,46.8l20.4,45.8h9.2h9.1L1687.2,5085.4z
		 M2037.7,5124.3v-7h-15.2h-15.2v-39.8v-39.8h-8.2h-8.2v39.8v39.8h-15.2h-15.2v7v7h38.6h38.6L2037.7,5124.3L2037.7,5124.3z
		 M2146.5,5084.4v-46.8h-8.2h-8.2v46.8v46.8h8.2h8.2V5084.4z M2271.7,5094.8c13-34.3,14.7-38.1,15.6-36.8
		c0.3,0.3,6.7,16.7,14.3,36.6l13.8,36l9.4,0.4c7.2,0.3,9.1,0,8.6-1.3c-0.4-0.9-8.7-21.2-18.6-45.3c-9.9-24-18.2-44.4-18.6-45.2
		c-0.5-1.1-3.7-1.6-9.7-1.6l-9,0.1l-18,44.5c-9.9,24.4-18.3,45.5-18.8,46.8c-0.8,2,0,2.3,8.3,1.9l9.2-0.4L2271.7,5094.8z
		 M2495.6,5123v-8.2h-25.9h-25.9v-11.4V5092h25.3h25.3v-7.6v-7.6H2469h-25.3v-11.4V5054h25.9h25.9v-8.2v-8.2h-34.2h-34.2v46.8v46.8
		h34.2h34.2v-8.2H2495.6z"/>
	<path class="st1" d="M1461,5100.1v-15.8l18.5,0.4l18.5,0.4l3.7,4.2c3,3.4,3.7,5.2,3.7,10.8c0,13-5.3,16.1-28.5,16.1H1461V5100.1z"
		/>
	<path class="st1" d="M1654.7,5107.1c-1.4-3-5.3-12.3-9-20.5c-3.5-8.2-6.5-15.2-6.5-15.4c0-0.4,8.2-0.6,18.3-0.6s18.3,0.3,18.3,0.5
		c0,1.3-16.7,39.5-17.7,40.5C1657.5,5112.3,1656.1,5110.5,1654.7,5107.1z"/>
</g>
</svg>
