<?xml version="1.0" encoding="utf-8"?>
<!-- Generator: Adobe Illustrator 26.1.0, SVG Export Plug-In . SVG Version: 6.00 Build 0)  -->
<svg version="1.1" id="Layer_1" xmlns="http://www.w3.org/2000/svg" xmlns:xlink="http://www.w3.org/1999/xlink" x="0px" y="0px"
	 viewBox="0 0 1056.6 202" style="enable-background:new 0 0 1056.6 202;" xml:space="preserve">
<g id="Livello_1_1_">
</g>
<g id="Layer_1_00000121280000816817959920000000882230360127541942_">
</g>
<path style="fill:#FFFFFF;" d="M252.2,189.2c-4.1-1-8.3-1.9-12.4-3.1c-14.2-4.1-20.7-12.2-20.7-26.7c-0.2-27.4-0.2-54.8,0-82.2
	c0.1-14.9,8.7-27.5,23.4-29.7c13.6-2,28-2,41.7,0c14.3,2.1,20.5,11.7,20.7,26.3c0.2,15.1-0.1,30.3,0.1,45.4c0.1,6-2.4,8.1-8.2,7.9
	c-10.6-0.3-21.3-0.1-31.9-0.4c-5.3-0.2-8,1.2-7.7,7.2c0.4,7.4-0.3,14.9,0.4,22.2c0.3,2.6,3.4,4.9,5.2,7.4c1.8-2.4,4.7-4.6,5-7.1
	c0.7-5.9-0.4-12,0.4-17.9c0.3-2.4,3.6-6,5.7-6.2c10-0.7,20-0.3,30.3-0.3c0,11.3,1.5,22-0.4,32.2c-2.4,12.9-12.6,19.8-25.2,22.8
	c-3,0.7-6,1.5-9,2.2C263.7,189.2,258,189.2,252.2,189.2z M257.2,103.7c7.7,2.2,11.2,0.5,10.7-7.3c-0.5-7.3,0.4-14.7-0.1-22
	c-0.2-2.6-2.8-5.1-4.4-7.6c-2.1,2.5-5.7,4.9-5.9,7.5C256.8,83.9,257.2,93.6,257.2,103.7z"/>
<path style="fill:#FFFFFF;" d="M574.9,189.2c-0.2-0.2-0.4-0.5-0.7-0.5c-22.3-5.8-25-9.1-25.2-32.4c-0.2-26,0-52,0-78
	c0-2.8,0-5.6,0-9c-5.3-0.3-10.1-0.5-15.7-0.8c0-5.2,0-10,0-14.8c0-5.6,2.5-8.8,8.3-8.2c7.1,0.8,9.4-1.7,9.3-9
	c-0.4-18.9,0-18.9,18.9-18.9c5.4,0,10.8,0,17.5,0c0,5,0,9.5,0,13.9c0,4.2,0,8.5,0,13.5c6.5,0.3,12.3,0.6,19.1,0.9
	c0,3.9-0.4,7.3,0.1,10.5c1.2,8.6-2.1,12.3-11,11c-6.3-1-8.5,1.7-8.4,8.2c0.3,22.8,0.1,45.7,0.1,68.5c0,13,1.5,14.6,14.6,15.6
	c1.7,0.1,3.3,0.3,7.3,0.6c-1.7,9.9-3.3,19.4-4.9,28.9C594.4,189.2,584.7,189.2,574.9,189.2z"/>
<path style="fill:#7ACAEE;" d="M45.2,129.2c10.5,1.2,21.1,3.3,31.6,3.1c6.8-0.1,15.2-1.7,20.1-5.9c18.1-15.4,38.7-13.6,59.8-11.6
	c4.3,0.4,8.5,1.4,12.6,2.6c11,3.4,12.6,6.4,9.8,17.6c-7.5,29.5-32.9,52-59.1,52.4c-39.4,0.5-63-15.6-73.1-49.8
	c-0.2-0.6-1.1-1.1-1.6-1.6C45.2,133.8,45.2,131.5,45.2,129.2z"/>
<path style="fill:#7CA534;" d="M45.2,100c5.6-13.9,11.8-27.3,24.2-36.9c20.2-15.7,42.6-18.8,66.2-10.9c24.5,8.2,38.4,26.5,44,51.3
	c0.6,2.7,0.1,5.6,0.1,9.3c-19.1-7.3-38.1-8.6-57.4-5.8c-5.8,0.9-12.6,1.9-16.9,5.3c-17.4,13.9-36.5,10.9-55.9,7.5
	c-1.4-0.2-2.8-0.6-4.2-0.9C45.2,112.6,45.2,106.3,45.2,100z"/>
<path style="fill:#FFFFFF;" d="M359.9,46.6c0-10.7,0-21.7,0-33.2c12.5,0,23.8,0,35.6,0c0.2,3,0.4,5.5,0.4,8
	c0.1,51.6,0.1,103.3,0.5,154.9c0.1,7.4-1.7,10.7-9.5,9.5c-7.1-1.1-14.9,2.5-21.3-3.6c-0.7-0.7-3.5,1.2-5.4,1.2
	c-10.7,0.2-21.7,1.8-31.9-0.2c-9.9-2-17.8-11.8-17.6-24.1c0.6-29.9,0.2-59.9,0.3-89.9c0.1-13.8,7.7-22.8,21.6-23.9
	C341,44.7,349.6,46,359.9,46.6z M359.3,115.6c0-13.1,0.1-26.2,0-39.3c0-3.7,1.4-8.9-5-8.7c-6.3,0.1-5.8,5-5.8,9.3
	c0,25.9,0,51.8,0,77.7c0,4-0.4,9.2,5.3,8.5c2.2-0.3,5.2-5.3,5.4-8.2C359.6,141.8,359.3,128.7,359.3,115.6z"/>
<path style="fill:#FFFFFF;" d="M491,110c0-11.9,0-22.4,0-32.9c0-5.3-1.6-9-9.1-7c0,5.9,0,11.8,0,17.7c0,22.3-0.2,44.5,0.3,66.8
	c0.1,3,3.5,5.9,5.4,8.9c1.5-2.8,4.2-5.6,4.4-8.5c0.6-7.9,0.2-16,0.2-23.9c0-5.1,2.2-7.7,7.9-7.5c9.4,0.4,18.9,0.1,28.5,0.1
	c0,14,1,27.4-0.3,40.5c-1,10.5-9.2,18.1-19.2,19.4c-13.4,1.7-27.5,1.9-40.8-0.2c-15.8-2.4-22.7-13-22.7-29c0-26.5,0-53.1,0-79.6
	c0-13.1,5.9-22.1,18.7-26.4c15.7-5.3,31.7-5.2,47.4-0.3c11.4,3.5,17.5,11.7,17.8,23.5c0.3,10,0.7,20-0.2,29.9c-0.3,3-4.3,7.8-7,8.1
	C512.3,110.6,502.2,110,491,110z"/>
<path style="fill:#FFFFFF;" d="M438.3,45.5c0.2,3.2,0.5,5.4,0.5,7.6c0,41.3-0.1,82.7,0.2,124c0,6.7-1.6,9.4-8.7,8.7
	c-6.3-0.6-12.6-0.3-18.9-0.1c-5.9,0.2-9-1.9-9-8.4c0.1-41.9-0.2-83.8,0.1-125.7c0-2.1,3-5.8,4.8-5.9
	C417.5,45.2,427.8,45.5,438.3,45.5z"/>
<path style="fill:#FFFFFF;" d="M437.5,12.9c0.7,1.3,0.9,1.6,1,1.8c2.6,23.6,2.6,23.6-20.9,23.6c-5.1,0-10.1,0-15.8,0
	c0-5.8-0.6-12.3,0.3-18.6c0.4-2.5,4-6.4,6.4-6.5C418,12.5,427.7,12.9,437.5,12.9z"/>
</svg>
