<?xml version="1.0" encoding="utf-8"?>
<!-- Generator: Adobe Illustrator 26.1.0, SVG Export Plug-In . SVG Version: 6.00 Build 0)  -->
<svg version="1.1" id="Layer_1" xmlns="http://www.w3.org/2000/svg" xmlns:xlink="http://www.w3.org/1999/xlink" x="0px" y="0px"
	 viewBox="0 0 1056.6 202" style="enable-background:new 0 0 1056.6 202;" xml:space="preserve">
<g id="Livello_1_1_">
</g>
<g>
	<path style="fill:#FFFFFF;" d="M245.2,71.7h17l-0.1,32.1h0.8l13.6-32.1h17.3l-23.8,50h-22.5L245.2,71.7z"/>
	<path style="fill:#FFFFFF;" d="M286,113.5c0-2.6,0.3-6,1.2-10.2c3.1-15.1,7-19.2,14.4-19.2c4,0,7.7,0.5,9.6,4.2h0.7l1.2-3.7h15.1
		l-7.8,37.1h-15l0.7-4.1h-0.8c-2.6,3.9-6,4.7-9.3,4.7C289.2,122.3,286,120.3,286,113.5z M307.5,108.4c0.7-2,2.3-9,2.3-10.8
		c0-1.5-0.5-1.6-2.4-1.6c-3,0-3.1,0.1-4.6,7.1c-0.7,2.9-0.9,4.6-0.9,5.7c0,1.4,0.7,1.5,2.5,1.5C306.4,110.3,306.9,110.1,307.5,108.4
		z"/>
	<path style="fill:#FFFFFF;" d="M338.2,67.7h15.6l-4.4,21.1h0.7c3.1-3.9,7-4.7,9.9-4.7c7,0,9,2.5,9,7.6c0,2-0.6,5.6-1.3,9.1l-4.5,21
		h-15.5l3.9-18.6c0.5-2.3,0.9-4.6,0.9-5.5c0-1.4-0.5-1.5-1.7-1.5c-2.8,0-3,0.4-4.2,6l-4.2,19.6h-15.5L338.2,67.7z"/>
	<path style="fill:#FFFFFF;" d="M388.4,96.4c0,0.7,0.4,0.7,2.8,1l7.2,1.1c3.5,0.5,6.2,1.5,6.2,6.4c0,1.3-0.2,3.1-0.7,4.9
		c-2,9.8-6.3,11.9-13.4,12.4l-5,13.2h-13.7V135l8.4-12.9c-3.6-0.1-7.4-0.5-10-0.9l2-9.9c3.6,0.3,7.8,0.5,10,0.5c3.6,0,5.6,0,6.6-0.4
		c0.8-0.3,1-0.8,1-1.7c0-0.5-0.6-0.7-3.3-1.1l-8.4-1.2c-3.4-0.5-4.6-2.5-4.6-5.7c0-1.7,0.4-3.9,0.9-6.3C376.5,85,382.4,84,392.9,84
		c5.2,0,11.2,0.4,14.2,1l-2,9.9c-4.1-0.3-8.1-0.5-9.7-0.5c-3.6,0-5.5,0.1-6.3,0.5C388.5,95.2,388.4,95.7,388.4,96.4z"/>
	<path style="fill:#FFFFFF;" d="M414.9,84.6h15.8l-7.8,37.1h-15.8L414.9,84.6z M418.4,67.7h15.8l-2.3,11h-15.8L418.4,67.7z"/>
	<path style="fill:#FFFFFF;" d="M459.1,71.7h18.5c15.4,0,20,2.6,20,11c0,3.7-0.9,8.5-2,14.8c-4.2,20-5.2,24.3-26.5,24.3h-20.6
		L459.1,71.7z M469.8,109.5c6.1,0,6.2-0.5,8.8-12.8c1.1-5.1,1.7-8.1,1.7-10c0-2.8-1.5-2.9-5.1-2.9h-1.7l-5.5,25.7H469.8z"/>
	<path style="fill:#FFFFFF;" d="M498.2,113.5c0-2.6,0.6-6.1,1.5-10.4c3.4-15.6,4.4-19.1,21-19.1c13.4,0,17.4,2.1,17.4,8.8
		c0,2.6-0.5,6.1-1.5,10.3c-3.5,15.6-4.6,19.1-21.1,19.1C502.2,122.3,498.2,120.1,498.2,113.5z M521.3,103.1c0.7-3.3,1-5.3,1-6.5
		c0-1.5-0.8-1.7-2.5-1.7c-3.1,0-3.1,0.4-4.7,8.2c-0.7,3.5-1.1,5.5-1.1,6.6c0,1.5,0.7,1.6,2.5,1.6C519.5,111.3,519.6,111,521.3,103.1
		z"/>
	<path style="fill:#FFFFFF;" d="M537.3,135.6l2-9.8h9.5c8.6,0,8.9-0.1,10-5.5c0.2-1.2,0.7-2.3,0.9-3.4h-0.7c-3.3,3.7-6,4.2-10.5,4.2
		c-5.7,0-8.7-2-8.7-8.8c0-2.5,0.4-5.7,1.3-9.8c3.1-14.8,6.3-18.4,15-18.4c3.9,0,7.4,0.8,8.8,4.7h0.8l1.2-4.1h15l-7,33.1
		c-2.8,13.4-4.6,19-24,19C546.1,136.6,540.4,136.2,537.3,135.6z M554.4,74.1c0-1.3,0.2-2.7,0.6-4.2h8.1c-0.1,0.6-0.3,1.2-0.3,1.7
		c0,1.1,0.7,1.8,3.1,1.8c3.7,0,4.1-1.6,4.5-3.5h8.1c-1.2,6.5-3.7,11-13.8,11C556.9,80.9,554.4,78.2,554.4,74.1z M561.3,107.3
		c0.7-2,2-8.5,2-9.8S562.6,96,561,96c-3.1,0-3.1,0.1-4.4,6.5c-0.6,2.6-0.9,4.1-0.9,5.1c0,1.4,0.7,1.5,2.5,1.5
		C560.1,109.1,560.7,109,561.3,107.3z"/>
	<path style="fill:#FFFFFF;" d="M582.3,113.5c0-2.6,0.3-6,1.2-10.2c3.1-15.1,7-19.2,14.4-19.2c4,0,7.7,0.5,9.6,4.2h0.7l1.2-3.7h15.1
		l-7.8,37.1h-15l0.7-4.1h-0.8c-2.6,3.9-6,4.7-9.3,4.7C585.5,122.3,582.3,120.3,582.3,113.5z M603.7,108.4c0.7-2,2.3-9,2.3-10.8
		c0-1.5-0.5-1.6-2.4-1.6c-3,0-3.1,0.1-4.6,7.1c-0.7,2.9-0.9,4.6-0.9,5.7c0,1.4,0.7,1.5,2.5,1.5C602.6,110.3,603.1,110.1,603.7,108.4
		z"/>
	<path style="fill:#FFFFFF;" d="M644.9,111.1c0-3.7,1.2-8.6,2.4-15.1c3.9-20.2,5.3-24.9,26.2-24.9c15.5,0,20.1,2.9,20.1,11.3
		c0,3.8-0.9,8.6-2.3,15c-4.7,20.3-5.4,24.9-26,24.9C649.6,122.3,644.9,119.3,644.9,111.1z M674.4,96.7c1.2-5.5,1.8-8.9,1.8-10.8
		c0-2.6-1.2-2.7-4.1-2.7c-5.1,0-5.2,0.3-7.9,13.4c-1.2,5.7-2,9-2,10.9c0,2.5,1.2,2.5,4.1,2.5C671.4,110.1,671.6,109.8,674.4,96.7z"
		/>
	<path style="fill:#FFFFFF;" d="M693,135.6l2-9.8h9.6c8,0,8.2,0,9.4-5.6c0.3-1.2,0.5-2.5,0.8-3.8h-0.7c-3.1,3.9-6.8,4.7-9.5,4.7
		c-7.2,0-9.4-2.8-9.4-7.8c0-1.9,0.3-4.1,0.9-6.6l4.7-22h15.6l-3.9,18.4c-0.5,2.4-0.8,3.9-0.8,4.7c0,1.3,0.6,1.3,2,1.3
		c2.5,0,2.7-0.1,4-6l3.9-18.4h15.6l-7,33.1c-2.6,12.4-3.6,19-23.8,19C701.5,136.6,695.9,136.2,693,135.6z"/>
	<path style="fill:#FFFFFF;" d="M737.8,114.4c0-2,0.7-5.6,1.4-9.1l4.4-20.7h15.5l-3.9,18.6c-0.5,2.3-0.9,4.6-0.9,5.5
		c0,1.4,0.5,1.5,1.7,1.5c2.8,0,3-0.4,4.2-6l4.2-19.6h15.5l-7.8,37.1h-15l0.6-4.1h-0.7c-3.1,3.9-7.2,4.7-10,4.7
		C739.8,122.3,737.8,119.6,737.8,114.4z"/>
	<path style="fill:#FFFFFF;" d="M786.4,84.6h15l-0.6,4.1h0.7c3.1-3.9,7.2-4.7,10-4.7c7,0,9,2.5,9,7.6c0,2-0.6,5.6-1.3,9.1l-4.5,21
		h-15.5l3.9-18.6c0.5-2.3,0.9-4.6,0.9-5.5c0-1.4-0.5-1.5-1.7-1.5c-2.8,0-3,0.4-4.2,6l-4.2,19.6h-15.5L786.4,84.6z"/>
	<path style="fill:#FFFFFF;" d="M832.7,67.7h15.8l-11.4,54h-15.8L832.7,67.7z"/>
	<path style="fill:#FFFFFF;" d="M845.1,113.5c0-2.6,0.3-6,1.2-10.2c3.1-15.1,7-19.2,14.4-19.2c4,0,7.7,0.5,9.6,4.2h0.7l1.2-3.7h15.1
		l-7.8,37.1h-15l0.7-4.1h-0.8c-2.6,3.9-6,4.7-9.3,4.7C848.3,122.3,845.1,120.3,845.1,113.5z M866.6,108.4c0.7-2,2.3-9,2.3-10.8
		c0-1.5-0.5-1.6-2.4-1.6c-3,0-3.1,0.1-4.6,7.1c-0.7,2.9-0.9,4.6-0.9,5.7c0,1.4,0.7,1.5,2.5,1.5C865.5,110.3,866,110.1,866.6,108.4z"
		/>
	<path style="fill:#FFFFFF;" d="M893.8,84.6h15l-1,6.2h0.7c3.2-5.5,5.9-6.8,12.6-6.8l-2.9,13.5c-9.7,0-12,1.8-14.1,11.7l-2.7,12.4
		H886L893.8,84.6z"/>
	<path style="fill:#FFFFFF;" d="M925.7,84.6h15.8l-7.8,37.1h-15.8L925.7,84.6z"/>
</g>
<path style="fill:#FFFFFF;" d="M58.5,132.3c4.4,4.2,8.6,8.6,12.5,13.3c1.8,2.3,4.6,3.6,7.5,3.6h12.8c2.8,0,5.2-2.3,5.2-5.2
	c0-3.4-2.2-6.3-5.3-7.4l-5.5-1.9c-1.1-0.4-2.1-0.9-2.9-1.7c-1.1-0.9-2-2-2.8-3.2c-0.9-1.5-1.4-3.2-1.3-4.9c0.2-5.8,1.4-11.5,3.4-17
	c0,0,0-0.1,0.1-0.2c1.9-5.2,4.9-10,8.7-14c2.1,1.2,4,2.5,5.9,3.9c-0.8,1.1-1.7,2.5-2.6,4l-5.9,1.8c-1.3,0.4-2,1.7-1.7,3
	c0.4,1.3,1.7,2,3,1.7c0,0,0,0,0.1,0l1.3-0.4c-1.5,3.3-2.7,6.7-3.5,10.3c-0.1,0.3-0.1,0.6-0.2,0.9c-0.5-0.4-0.9-0.9-1.4-1.4
	c-0.8-0.9-2.2-1.1-3.2-0.3l-0.1,0c-1,0.8-1.3,2.3-0.5,3.3l0,0c1.3,1.8,3.2,3.3,5.3,4.2c0,0,0,0,0,0c0.4,1.6,0.9,3.1,1.6,4.6
	c0.9,1.9,2.2,3.6,3.8,5c1.7,1.5,5.3,3.4,9.1,4.8c1.6,0.7,2.7,2.2,2.7,4c0,0.7-0.5,1.2-1.2,1.2h-1.6c-1.3,0-2.4,1.1-2.4,2.4
	s1.1,2.4,2.4,2.4h1.6c3.3,0,6-2.7,6-6c0-3.7-2.3-7.1-5.8-8.5c-3.6-1.4-6.6-3.1-7.7-4c-1.1-0.9-2-2.1-2.6-3.4c-0.5-1.2-1-2.4-1.3-3.7
	c-0.1-0.3-0.1-0.7-0.2-1l0,0c0-0.1,0-0.1,0-0.2c-0.1-1.2-0.1-2.3,0.2-3.4c1.2-5,3-9.7,5.6-14.2l0,0c1-1.7,1.9-3.1,2.8-4.3
	c6.3,3.9,13.6,6.1,21,6.4c0.7,6,3.3,23.2,9.8,37.4c1.4,3,4.4,5,7.8,5h3.9c3.3,0,6-2.7,6-6c0-1-0.3-2-0.8-2.9c-0.9-1.6-2.1-3-3.5-4.2
	c-0.7-0.5-1.2-1.4-1.2-2.3c-0.3-3.7-0.5-13,2.8-18.8c1.1-1.9,3-3.2,5.2-3.6c-0.6,2.1-1.1,4.2-1.5,6.4h-0.7c-1.3,0-2.4,1-2.5,2.4
	c0,1.3,1,2.4,2.4,2.5c0,0,0,0,0.1,0h0c-0.3,3.1-0.4,6.1-0.2,9.2c0.1,2.4,1.3,4.7,3.3,6.1c1.3,0.8,2.3,1.9,3.2,3.2
	c0.4,0.6,0.5,1.4,0.1,2.1c-0.3,0.7-1.1,1.1-1.8,1.1c-1.3,0-2.4,1.1-2.4,2.4s1.1,2.4,2.4,2.4h0c2.6,0,4.9-1.4,6.1-3.7
	c1.2-2.2,1-5-0.4-7c-1.2-1.7-2.7-3.2-4.5-4.4c-0.8-0.5-1.2-1.4-1.3-2.3c-0.2-3.6,0-7.1,0.5-10.7c0.1-0.2,0.1-0.5,0.1-0.7
	c0,0,0-0.1,0-0.1c0.4-3,1.1-6,2-8.9c0.9,0,1.8,0,2.9,0c1.3-0.1,2.4-1.2,2.3-2.5c-0.1-1.3-1.1-2.3-2.4-2.3c-1.7,0-3.2,0.1-4.5,0.1
	c-0.8,0-1.5,0-2.1,0c-4.4,0.1-8.4,2.4-10.6,6.2c-3.8,6.7-3.8,16.4-3.4,21.5c0.2,2.2,1.3,4.3,3,5.7c0.9,0.7,1.7,1.7,2.3,2.7
	c0.2,0.3,0.2,0.8,0,1.1c-0.2,0.3-0.6,0.6-1,0.6h-3.9c-1.5,0-2.8-0.8-3.4-2.2c-2.9-6.5-5.1-13.3-6.6-20.3c0.8,0.3,1.5,0.8,2.1,1.4
	c1,0.9,2.5,0.8,3.4-0.2c0.9-1,0.8-2.5-0.2-3.4c-1.8-1.7-4-2.7-6.5-3.1c-1.3-6.7-1.8-11.7-1.9-12.3l-0.3-10.5
	c2.8-1.3,5.3-3.3,7.3-5.7c0.8-1,0.7-2.6-0.4-3.4c-1-0.8-2.6-0.7-3.4,0.4c-1.6,2-3.7,3.5-7,5l0,0c-0.2,0.1-0.3,0.2-0.4,0.2
	c-0.1,0-0.1,0.1-0.2,0.2c-0.1,0-0.1,0.1-0.2,0.2c-0.1,0.1-0.1,0.1-0.2,0.2s-0.1,0.1-0.1,0.2c0,0.1-0.1,0.1-0.1,0.2
	c0,0.1-0.1,0.2-0.1,0.2c0,0.1,0,0.2-0.1,0.2c0,0.1,0,0.2-0.1,0.2c0,0.2,0,0.3,0,0.5l0,0l0.3,9.6c-7.1-0.3-14.9-3-20-7
	c-2.6-2-5.3-3.9-8.2-5.5c0.5-2.5,0.7-5,0.6-7.6c5.6,5,12.2,8.6,19.3,10.7c1.3,0.4,2.6-0.3,3-1.6c0.4-1.3-0.3-2.6-1.6-3c0,0,0,0,0,0
	c-15.1-4.5-21.9-14.5-22-14.5c-0.7-1.1-2.2-1.4-3.3-0.7c-0.8,0.5-1.2,1.5-1,2.5c1.1,5.5,1.1,10.2,0,14.3c-4.3,4.3-7.8,9.5-10,15.2
	c-1.6,0.2-3.2,0.2-4.8,0.1c-1.3-0.2-2.5,0.8-2.7,2.1c-0.2,1.3,0.8,2.5,2.1,2.7h0c0.9,0.1,1.8,0.2,2.7,0.2c0.3,0,0.6,0,0.9,0
	c-1.5,4.9-2.3,9.9-2.5,15c-0.1,2.7,0.6,5.4,2.1,7.7c1,1.5,2.2,2.9,3.6,4.1c1.3,1.2,2.9,2.1,4.6,2.7l5.5,1.9c1.2,0.4,2.1,1.6,2.1,2.9
	c0,0.2-0.2,0.3-0.3,0.3H78.5c-1.5,0-2.9-0.7-3.8-1.8c-4-4.8-8.3-9.4-12.9-13.7c-1.1-1.1-1.7-2.6-1.5-4.2c0.5-5.3,0.7-10.6,0.7-15.9
	c0-1.7-0.3-3.4-1-5c-2.3-5.7-6.6-13-9.7-18c-1.5-2.4-2.2-5.2-1.9-8l0.5-6c0.1-1.3-0.8-2.5-2.2-2.7c-1.3-0.1-2.5,0.8-2.7,2.2
	c0,0,0,0,0,0.1l-0.5,6c-0.3,3.8,0.6,7.7,2.6,11c2.5,4,7.1,11.6,9.4,17.3c0.4,1,0.6,2.1,0.6,3.2c0.1,5.1-0.2,10.3-0.7,15.4
	C55.2,127.2,56.3,130.2,58.5,132.3z"/>
<path style="fill:#FFFFFF;" d="M213.9,84.6c-0.1-1-0.7-1.8-1.7-2.2c-0.2-0.1-4.9-1.6-11.4,0.3c-6.4-11.4-14.8-21.6-24.8-30.1
	c-2.5-2.1-5.2-3.9-8.1-5.3c0,0-0.1,0-0.1-0.1c-5.5-2.7-11.4-4.3-17.5-4.5c-8.4-0.3-20.8-1.3-31.8-4.7c-12.3-3.2-25.1-4.5-37.8-3.8
	c-18.8,1.2-36.3,9.8-48.9,23.9l0,0l0,0c-6.7,7.6-12,16.4-15.8,25.8v0c-0.2,0.4-0.3,0.7-0.4,1.1c-0.9,2.4-1.7,4.8-2.3,7.3
	c0,0,0,0.1,0,0.1c-3.2,12.1-2.9,23.9,0.7,35c0,0.2,0.1,0.3,0.2,0.5c2.1,6.2,5.2,12,9,17.3c0.4,0.6,10.9,15.1,32.4,20.8
	c4.8,1.2,9.7-1.7,10.9-6.4c1.1-4.2-1-8.6-5-10.4c-5.8-2.6-14.2-7.3-21-14.5c-9.4-10-12.8-24.5-8.9-38c1.9-6.6,4.8-12.2,8.6-16.7
	c0.8-1,0.7-2.5-0.3-3.4c-1-0.8-2.5-0.7-3.3,0.3c-0.8,0.9-1.5,1.9-2.3,3L32,78.7c-1.2-0.7-2.6-0.3-3.3,0.8c-0.7,1.1-0.3,2.6,0.8,3.3
	l2.3,1.4c-2,3.6-3.6,7.4-4.7,11.4c-3.6,12.3-1.8,25.5,5.1,36.3c0.3,0.9,2,5.8,1.3,9.6c-0.3,1.3,0.6,2.6,1.9,2.8
	c1.3,0.3,2.6-0.6,2.8-1.9v0c0.2-0.9,0.3-1.8,0.3-2.8c5.2,5,11,9.1,17.5,12.3c-0.3,0.9-0.7,1.8-1.3,2.6c-1,0.9-1.1,2.4-0.2,3.4
	c0.9,1,2.4,1.1,3.4,0.2c1.1-1.2,2-2.5,2.5-4c1.5,1.1,2.1,3,1.5,4.8c-0.7,2-2.8,3.1-4.8,2.5c-5-1.3-9.9-3.3-14.4-5.9
	c0.7-0.3,1.3-0.6,1.9-0.9c1.2-0.7,1.6-2.1,0.9-3.3c-0.7-1.2-2.1-1.6-3.3-0.9c0,0,0,0-0.1,0c-1.5,0.9-3.2,1.4-5,1.5
	c-6.5-4.8-9.7-9.3-9.8-9.4c-2.8-3.9-5.2-8.1-7.1-12.5c2.2,1,3.8,3,4.3,5.4c0.2,1.3,1.5,2.2,2.8,1.9c1.3-0.2,2.2-1.5,1.9-2.8
	c-1-5.4-5.5-9.5-11-9.9c-2.7-9.1-3-18.7-0.8-28c0.8,0.8,1.6,2.4,1.4,5.2c-0.1,1.3,0.9,2.5,2.3,2.6l0,0c0,0,0.1,0,0.2,0
	c1.3,0,2.3-1,2.4-2.3c0.4-6-2.3-9.1-4.9-10.4c0.4-1.3,0.8-2.7,1.3-4l3.5,0.6c0.1,0,0.3,0,0.4,0c1.3,0,2.4-1.1,2.4-2.4
	c0-1.2-0.8-2.2-2-2.4l-2.5-0.4c2.7-6,6-11.6,9.9-16.9c0.3,1.5,0.7,2.9,1.2,4.3c0.5,1.2,1.9,1.8,3.1,1.4s1.8-1.9,1.4-3.1
	c-1-2.5-1.4-5.2-1.3-7.9c11.6-12.8,27.8-20.6,45-21.7c2.2-0.1,4.3-0.2,6.3-0.2c2.1,3.9,5.2,6.4,8.8,7.3c0.7,0.2,1.5,0.3,2.3,0.3
	c1,0,2-0.2,3-0.4c1.3-0.3,2-1.7,1.7-3c-0.3-1.3-1.7-2-3-1.7h0c-0.9,0.3-1.9,0.3-2.8,0.1c-1.5-0.4-3-1.2-4-2.5c8,0.4,16,1.7,23.8,3.7
	c0.9,0.3,1.8,0.5,2.8,0.8c0.6,3.5,2.8,6.6,5.9,8.4c1.2,0.7,2.6,0.3,3.3-0.9c0.7-1.2,0.3-2.6-0.9-3.3c-1.2-0.7-2.2-1.7-2.8-2.9
	c7.1,1.4,14.3,2.3,21.5,2.7c1.1,3.8,3.8,6.5,7.8,7.9c1.2,0.4,2.5,0.7,3.8,0.7c3,0,6-1.2,8.8-3.6c2,1.1,3.9,2.5,5.7,3.9
	c1.8,1.5,3.6,3.1,5.2,4.7c0.6,0.7,4.2,5.8,4.6,14.3c0.1,1.3,1.1,2.3,2.4,2.3c0,0,0.1,0,0.1,0c1.3-0.1,2.4-1.2,2.3-2.5
	c-0.1-1.4-0.2-2.7-0.4-4.1c2.6,3.3,5.1,6.8,7.3,10.4c-1-0.2-2-0.4-3-0.6c-1.3-0.2-2.5,0.7-2.7,2c-0.2,1.3,0.7,2.5,2,2.7
	c0,0,0,0,0.1,0c2.7,0.4,5.3,1.1,7.9,2.1c0,0,0.1,0,0.1,0c0.1,0,0.2,0,0.2,0.1c0.1,0,0.2,0,0.2,0.1c0.1,0,0.2,0,0.2,0
	c0.1,0,0.2,0,0.2,0s0.2,0,0.2,0c0.1,0,0.2,0,0.2,0c0.1,0,0.2,0,0.2-0.1c0,0,0.1,0,0.1,0c2.7-1.1,5.6-1.5,8.5-1.2
	c-0.3,2.8-1.5,5.4-3.5,7.4c-0.7,0.6-1,1.5-0.8,2.4c0.9,3.8,1.2,7.7,0.8,11.6c-0.2,1.7-1.1,3.2-2.4,4.2c-4.2,3.2-8.1,8-10,10.5
	c-0.5,0.7-1.4,1.2-2.3,1.2h-5.9c-0.9,0-1.7-0.4-2.3-1.1c-1.9-2.5-5.7-7.3-10-10.5c-1.4-1-2.2-2.5-2.4-4.2c-0.4-3.9-0.2-7.8,0.8-11.6
	c0.2-0.9-0.1-1.8-0.8-2.4c-2-2-3.3-4.6-3.6-7.4c2.9-0.3,5.8,0.2,8.5,1.2c0.6,0.2,1.2,0.2,1.8,0c0,0,0.8-0.3,2-0.7
	c1.3-0.4,2-1.8,1.5-3s-1.8-2-3-1.5c-0.6,0.2-1.1,0.4-1.5,0.5c-7.1-2.4-12.3-0.8-12.5-0.7c-0.9,0.3-1.6,1.2-1.7,2.2
	c-0.2,4.4,1.3,8.8,4.2,12.1c-0.8,3.9-1,8-0.6,11.9c0.4,3,1.9,5.7,4.3,7.5c1.2,0.9,2.3,1.8,3.3,2.9c-1.5,0.5-2.9,1-4.3,1.6
	c-1.2,0.5-1.8,1.9-1.3,3.2s1.9,1.8,3.2,1.3c0,0,0,0,0,0c2-0.8,4-1.5,6-2c0.8,1,1.6,2,2.1,2.7c1.5,1.9,3.7,3.1,6.2,3.1h5.9
	c0.1,0,0.1,0,0.2,0h0c4.2,0.6,8,2.5,11.1,5.4c1,0.9,2.5,0.9,3.4-0.1c0.9-1,0.9-2.5-0.1-3.4l0,0c-2.4-2.2-5.2-4-8.2-5.2
	c1.8-2.4,5.2-6.5,8.8-9.3c2.4-1.8,4-4.5,4.3-7.5c0.4-4,0.2-8-0.6-12C212.7,93.4,214.2,89,213.9,84.6z M156.3,50.9
	c-1.7-0.5-3.1-1.6-4-3.1c3.4,0.3,6.8,1.1,10,2.3C160.5,51.2,158.3,51.5,156.3,50.9z"/>
<path style="fill:#FFFFFF;" d="M58.7,63.2c-1.5,1.2-2.3,3-2.3,4.9c-0.1,1.4,0.3,2.9,1,4.1c0.7,1.1,2.1,2.3,5.3,2.3
	c0.2,0,0.5,0,0.8,0c1.5-0.1,2.9-0.7,3.9-1.7l2.3-2.2c2.6-2.4,2.7-6.4,0.3-9c-2.3-2.4-6-2.7-8.6-0.6L58.7,63.2z M61.8,66.9l2.6-2.1
	c0.7-0.5,1.6-0.4,2.1,0.2c0.5,0.6,0.4,1.5-0.2,2L64,69.3c-0.2,0.2-0.6,0.4-0.9,0.4c-0.6,0.1-1.2,0-1.7-0.1c-0.2-0.5-0.2-1-0.2-1.5
	C61.2,67.6,61.4,67.2,61.8,66.9L61.8,66.9z"/>
<path style="fill:#FFFFFF;" d="M109.2,49c-1.2-0.1-2.5-0.1-3.7,0l0,0c-1.7,0.1-3.3,0.5-4.8,1.3c-2.8,1.5-4.2,3.8-4.2,6.5
	c0,2.4,1.3,4.5,3.5,5.4c0.9,0.4,1.9,0.6,2.9,0.6c0.9,0,1.8-0.2,2.7-0.5l5.3-2c3-1.2,4.5-4.5,3.4-7.5C113.5,50.7,111.5,49.2,109.2,49
	L109.2,49z M109.2,55.8l-5.3,2c-0.6,0.3-1.3,0.3-1.9,0c-0.4-0.1-0.7-0.5-0.7-0.9c0-0.1,0-0.2,0-0.2c0-0.3,0-1.3,1.7-2.2
	c0.9-0.5,1.9-0.7,2.9-0.8c1-0.1,2,0,3,0c0.5,0,1,0.5,1,1C109.8,55.3,109.6,55.7,109.2,55.8z"/>
<path style="fill:#FFFFFF;" d="M107.9,67.3l-1.3,0.6c-2.9,1.3-4.2,4.7-2.9,7.7c0.9,2,2.7,3.5,4.8,4c0.5,0.2,1,0.2,1.5,0.2
	c1,0,2-0.3,2.9-0.8l3.8-2.2c2.8-1.6,3.8-5.2,2.2-8c-1.1-1.9-3.2-3.1-5.4-3C111.7,66,109.8,66.4,107.9,67.3L107.9,67.3z M108.7,72.3
	l1.3-0.6c1.2-0.6,2.6-0.9,3.9-0.9c0.5,0,1,0.3,1.1,0.8c0.1,0.4-0.1,0.9-0.5,1.1l-3.8,2.2c-0.2,0.1-0.5,0.2-0.7,0.1
	c-0.8-0.2-1.5-0.7-1.8-1.4C107.9,73.1,108.2,72.5,108.7,72.3z"/>
<path style="fill:#FFFFFF;" d="M128.8,56.8c-2.9,0.2-5.3,2.3-6,5.1c-0.7,2.8,0.5,5.7,2.9,7.2l0.2,0.1c2,1.1,4.2,1.6,6.5,1.5
	c0.4,0,0.8,0,1.3,0c2.9-0.2,5.4-2.3,6.1-5.1v0c0.8-3.1-0.8-6.3-3.8-7.6C133.7,56.9,131.2,56.6,128.8,56.8z M134,62.3
	c0.8,0.4,1.2,1.2,1,2v0c-0.2,0.8-0.9,1.4-1.7,1.4c-2.1,0.1-3.9-0.2-5-0.8l-0.1,0c-0.7-0.4-1-1.2-0.8-1.9c0.2-0.8,0.8-1.4,1.7-1.4
	c0.3,0,0.7,0,1,0C131.5,61.6,132.8,61.8,134,62.3L134,62.3z"/>
<path style="fill:#FFFFFF;" d="M140.3,80c-3.1,1.7-4.3,5.6-2.6,8.7c1.1,2.1,3.3,3.4,5.7,3.4h3.1c2.4,0,4.6-1.3,5.7-3.4l0.7-1.3
	c1.5-2.8,0.7-6.3-1.9-8.2l-0.6-0.4l0,0c-2-1.4-4.7-1.6-6.8-0.5L140.3,80z M146.5,82.4c0.3,0,0.7,0.1,0.9,0.3l0.6,0.4
	c0.7,0.5,0.8,1.3,0.5,2l-0.7,1.3c-0.3,0.5-0.8,0.8-1.4,0.8h-3.1c-0.9,0-1.6-0.7-1.6-1.6c0-0.6,0.3-1.2,0.8-1.4l3.2-1.7
	C146,82.4,146.3,82.4,146.5,82.4L146.5,82.4z"/>
<path style="fill:#FFFFFF;" d="M82,51.2L78,53c-0.7,0.3-1.4,0.3-2.1,0c-1.2-0.6-2.6-0.1-3.2,1.1c-0.6,1.2-0.1,2.6,1.1,3.2
	c0,0,0.1,0,0.1,0.1c1.9,0.9,4.2,0.8,6.1,0l4-1.8c3-1.4,4.3-5,3-8c-1-2.1-3-3.4-5.3-3.5L77.3,44c-1.3,0-2.4,1-2.5,2.3
	c0,1.3,1,2.4,2.3,2.5h0l4.4,0.1c0.7,0,1.2,0.6,1.2,1.2C82.6,50.6,82.4,51,82,51.2L82,51.2z"/>
<path style="fill:#FFFFFF;" d="M174,134.2c1.1-1.1,2.4-2,3.7-2.8c1.2-0.7,1.5-2.2,0.9-3.3c-0.7-1.2-2.2-1.5-3.3-0.9c0,0,0,0,0,0
	c-1.6,1-3.2,2.1-4.5,3.4c-1,0.9-1,2.4-0.2,3.4C171.5,135,173,135.1,174,134.2C174,134.2,174,134.2,174,134.2L174,134.2z"/>
<path style="fill:#FFFFFF;" d="M207.4,120.6c-0.5-0.2-1.1-0.4-1.6-0.7c-1.3-0.5-2.6,0.2-3.1,1.5c-0.4,1.2,0.2,2.6,1.4,3.1
	c0.5,0.2,0.9,0.4,1.4,0.6c1.2,0.5,2.7,0,3.2-1.2C209.2,122.6,208.6,121.2,207.4,120.6C207.4,120.6,207.4,120.6,207.4,120.6z"/>
<path style="fill:#FFFFFF;" d="M183,107.2l-1.5-0.9c-1.2-0.7-2.6-0.3-3.3,0.8c-0.7,1.2-0.3,2.6,0.8,3.3l1.5,0.9
	c1.1,0.7,2.6,0.3,3.3-0.8C184.5,109.4,184.2,107.9,183,107.2C183,107.2,183,107.2,183,107.2L183,107.2z"/>
<path style="fill:#FFFFFF;" d="M183.4,91.9c-1-0.9-2.5-0.8-3.4,0.2l0,0c-2,2.5-2.8,5.8-2.2,8.9c0.2,1.2,1.2,2,2.4,2
	c0.1,0,0.3,0,0.4,0c1.3-0.2,2.2-1.5,2-2.8l0,0c-0.3-1.7,0-3.5,1.1-4.9C184.5,94.3,184.4,92.8,183.4,91.9z"/>
<path style="fill:#FFFFFF;" d="M194.3,106.3l-1.5,0.9c-1.2,0.7-1.6,2.1-0.9,3.3c0.7,1.2,2.1,1.6,3.3,0.9c0,0,0,0,0,0l1.5-0.9
	c1.2-0.7,1.5-2.2,0.8-3.3C196.9,106,195.4,105.7,194.3,106.3L194.3,106.3z"/>
<path style="fill:#FFFFFF;" d="M195.8,92.1c-0.9-1-2.4-1-3.4-0.1c-1,0.9-1,2.4-0.2,3.4c1,1.4,1.4,3.2,1.1,4.9
	c-0.2,1.3,0.7,2.6,2,2.8l0,0c0.1,0,0.3,0,0.4,0c1.2,0,2.2-0.8,2.4-2C198.6,97.9,197.8,94.6,195.8,92.1z"/>
<path style="fill:#FFFFFF;" d="M85.7,69.4c1.3,0.3,2.6-0.4,2.9-1.7c0-0.1,0-0.2,0.1-0.3c0.1-1.2-0.7-2.4-1.9-2.7
	c-1.2-0.3-2.4-0.5-3.7-0.4c-1.3,0.1-2.3,1.3-2.2,2.7c0.1,1.3,1.2,2.3,2.5,2.2C84.2,69.2,85,69.2,85.7,69.4z"/>
<path style="fill:#FFFFFF;" d="M66.9,81.2c-0.2,1.3,0.7,2.5,2,2.8c0,0,2.5,0.5,2.9,4.6c0.1,1.2,1.2,2.2,2.4,2.2c0.1,0,0.2,0,0.2,0
	c1.3-0.1,2.3-1.3,2.2-2.6c-0.7-7.8-6.7-8.8-6.9-8.9C68.3,79,67.1,79.9,66.9,81.2z"/>
<path style="fill:#FFFFFF;" d="M64,89.1c-1.1-1-2-2.2-2.7-3.6c-0.6-1.2-2-1.7-3.2-1.1c-1.2,0.6-1.7,2-1.1,3.2c0,0,0,0,0,0.1
	c1,1.9,2.2,3.5,3.8,4.9c1,0.9,2.5,0.8,3.4-0.2C65,91.5,64.9,90,64,89.1L64,89.1z"/>
<path style="fill:#FFFFFF;" d="M63.9,106.2c1,0.8,2.6,0.7,3.4-0.4c0.8-1,0.7-2.6-0.4-3.4c0,0,0,0,0,0c-0.2-0.1-0.3-0.2-0.4-0.4
	c-0.9-1-2.5-1-3.4-0.1c-1,0.9-1,2.4-0.1,3.4C63.3,105.7,63.6,105.9,63.9,106.2z"/>
<path style="fill:#FFFFFF;" d="M69.8,114.5c-1.1-0.7-2.6-0.4-3.3,0.8l0,0c-1,1.7-2.1,3.7-2.2,6.1c-0.1,1.3,1,2.5,2.3,2.5l0,0
	c0,0,0.1,0,0.1,0c1.3,0,2.3-1,2.4-2.3c0-1,0.5-2.1,1.5-3.7C71.2,116.7,70.9,115.3,69.8,114.5z"/>
<path style="fill:#FFFFFF;" d="M55.4,50.4c-2.5,0.7-4.8,3.2-5.3,3.6c-0.9,1-0.9,2.5,0.1,3.4c1,0.9,2.5,0.9,3.4-0.1
	c0.8-0.8,2.3-2.1,3.2-2.3c1.3-0.4,2-1.7,1.6-3C58,50.7,56.7,50,55.4,50.4z"/>
<path style="fill:#FFFFFF;" d="M137,53.8c0.3,0,0.5-0.1,0.8-0.1c1.3-0.2,2.3-1.3,2.1-2.7c-0.2-1.3-1.3-2.3-2.7-2.1l0,0
	c-0.2,0-0.5,0-0.7,0.1c-1.3,0.1-2.3,1.3-2.2,2.6c0.1,1.2,1.2,2.2,2.4,2.2C136.8,53.9,136.9,53.8,137,53.8z"/>
<path style="fill:#FFFFFF;" d="M121,79.9c0,1.3,1.1,2.4,2.4,2.4h1.2c1.3,0,2.4-1.1,2.4-2.4s-1.1-2.4-2.4-2.4h-1.2
	C122,77.6,121,78.6,121,79.9z"/>
<path style="fill:#FFFFFF;" d="M146.9,68.3c0.2,0,3.6-0.5,5.1,3.7c0.4,1.3,1.8,1.9,3.1,1.5c1.2-0.4,1.9-1.8,1.5-3
	c-2.2-6.4-7.8-7.3-10.4-6.9c-1.3,0.2-2.2,1.4-2,2.7C144.4,67.6,145.6,68.5,146.9,68.3C146.9,68.3,146.9,68.3,146.9,68.3L146.9,68.3z
	"/>
<path style="fill:#FFFFFF;" d="M160,79h1.4c1.3,0,2.4-1.1,2.4-2.4s-1.1-2.4-2.4-2.4l0,0H160c-1.3,0-2.4,1.1-2.4,2.4S158.6,79,160,79
	z"/>
<path style="fill:#FFFFFF;" d="M170.4,59.9c-5.4-3.5-9.8-1.3-11.4,0.3c-0.9,1-0.9,2.5,0,3.4c0.5,0.5,1.1,0.7,1.7,0.7
	c0.6,0,1.3-0.3,1.7-0.7c0.3-0.3,2.2-1.8,5.4,0.3c1.1,0.7,2.6,0.4,3.3-0.7C171.9,62.2,171.6,60.7,170.4,59.9
	C170.4,60,170.4,60,170.4,59.9z"/>
<path style="fill:#FFFFFF;" d="M167.9,70.7c-0.3,1.3,0.6,2.6,1.9,2.8c0.8,0.2,1.6,0.6,2.3,1.1c1,0.9,2.5,0.8,3.4-0.3
	c0.9-1,0.8-2.5-0.3-3.4c-1.3-1.1-2.9-1.8-4.5-2.2C169.4,68.6,168.1,69.4,167.9,70.7z"/>
<path style="fill:#FFFFFF;" d="M134.1,101.4c1.2-0.6,1.6-2.1,1-3.3l0,0l-0.3-0.6c-0.7-1.2-2.1-1.6-3.3-0.9c-1.1,0.7-1.5,2.1-1,3.2
	l0.3,0.6C131.5,101.6,132.9,102.1,134.1,101.4L134.1,101.4z"/>
<path style="fill:#FFFFFF;" d="M149.8,97.1c-0.8,0.3-1.6,0.5-2.4,0.4c-0.9-0.1-1.8,0.4-2.2,1.1l0,0.1c-0.7,1.1-0.3,2.6,0.8,3.3
	c0.3,0.2,0.7,0.3,1,0.3c0.2,0,0.5,0,0.7,0c1.4,0,2.8-0.3,4.1-0.9c1.2-0.5,1.8-1.9,1.3-3.2c0-0.1,0-0.1-0.1-0.2
	C152.3,97.1,151,96.6,149.8,97.1z"/>
<path style="fill:#FFFFFF;" d="M137.4,111.3c0.2-0.6,0.4-1.2,0.7-1.7c0.7-1.2,0.3-2.6-0.9-3.3c-1.1-0.7-2.6-0.3-3.3,0.8
	c-0.5,0.9-0.9,1.8-1.2,2.8c-0.4,1.3,0.3,2.6,1.6,3c0.2,0.1,0.5,0.1,0.7,0.1C136.2,113,137.2,112.3,137.4,111.3z"/>
<circle style="fill:#FFFFFF;" cx="21" cy="112.2" r="2.5"/>
<circle style="fill:#FFFFFF;" cx="67.3" cy="96" r="2.5"/>
<circle style="fill:#FFFFFF;" cx="53.3" cy="78.7" r="2.5"/>
<circle style="fill:#FFFFFF;" cx="80.2" cy="76.3" r="2.5"/>
<circle style="fill:#FFFFFF;" cx="64" cy="49.4" r="2.5"/>
<circle style="fill:#FFFFFF;" cx="94.8" cy="65.8" r="2.5"/>
<circle style="fill:#FFFFFF;" cx="69.2" cy="130" r="2.5"/>
<circle style="fill:#FFFFFF;" cx="134.4" cy="128.7" r="2.5"/>
</svg>
