<?xml version="1.0" encoding="utf-8"?>
<!-- Generator: Adobe Illustrator 24.1.2, SVG Export Plug-In . SVG Version: 6.00 Build 0)  -->
<svg version="1.1" id="Layer_1" xmlns="http://www.w3.org/2000/svg" xmlns:xlink="http://www.w3.org/1999/xlink" x="0px" y="0px"
	 viewBox="0 0 500 145" style="enable-background:new 0 0 500 145;" xml:space="preserve">
<style type="text/css">
	.st0{fill:#FFFFFF;}
</style>
<g>
	<path class="st0" d="M390,42.3c-5.1,0-9.3,0-14.4,0c-1.7-10.1-6.8-17.7-18.6-16.9c-10.1,0.8-15.2,7.6-16.9,16.9
		c-5.1,0-9.3,0-14.4,0c-5.1-13.5-9.3-17.7-18.6-16.9c-9.3,0.8-14.4,5.1-16.9,16.9c-5.1,0-9.3,0-14.4,0c-0.8-11,6.8-23.6,16.9-28.7
		c16-7.6,28.7-3.4,39.7,10.1c11-12.7,23.6-17.7,38.8-11C384.1,18.7,389.2,28.8,390,42.3z"/>
	<path class="st0" d="M82.7,46.6c5.1,0,10.1,0,15.2,0c0,7.6,1.7,15.2,7.6,20.3c5.1,4.2,11,5.1,16.9,4.2c12.7-0.8,20.3-8.4,21.1-24.5
		c5.1,0,9.3,0,14.4,0c0.8,12.7-2.5,24.5-13.5,32.1c-13.5,10.1-29.6,10.1-43.9,2.5C86.9,74.4,82.7,61.8,82.7,46.6z"/>
	<path class="st0" d="M158.7,42.3c-4.2,0-9.3,0-14.4,0c-3.4-12.7-12.7-17.7-25.3-16.9c-11,0.8-16,4.2-21.1,16.9c-4.2,0-9.3,0-13.5,0
		c-0.8-16,15.2-32.1,34.6-32.1C138.4,9.4,155.3,19.5,158.7,42.3z"/>
	<path class="st0" d="M67.5,42.3c-5.1,0-9.3,0-12.7,0c-3.4-5.1-5.1-11.8-9.3-13.5c-6.8-3.4-15.2-3.4-23.6-5.1c0,6.8,0,12.7,0,17.7
		c-5.1,0-10.1,0-16,0c0-10.1,0-19.4,0-28.7c0-0.8,2.5-2.5,3.4-2.5c9.3,0,18.6-0.8,27.9,0c16,0.8,27,11.8,29.6,26.2
		C67.5,38.1,67.5,39.8,67.5,42.3z"/>
	<path class="st0" d="M189.9,46.6c0,8.4,0,16,0,24.5c11,0,21.1,0,31.2,0c0,5.1,0,9.3,0,14.4c-15.2,0-30.4,0-45.6,0
		c0-12.7,0-26.2,0-39.7C180.7,46.6,184.9,46.6,189.9,46.6z"/>
	<path class="st0" d="M473.6,42.3c-5.1,0-10.1,0-15.2,0c0-5.9,0-11,0-16.9c-5.9,0-11.8,0-16.9,0c-0.8-0.8-0.8-0.8-0.8-1.7
		c-0.8-14.4-0.8-14.4,12.7-14.4c11,0,21.1,0,32.1,0c4.2,0,5.9,1.7,5.9,5.9c0,3.4,0,5.9,0,10.1c-5.9,0-11.8,0-17.7,0
		C473.6,30.5,473.6,36.4,473.6,42.3z"/>
	<path class="st0" d="M408.6,46.6c5.1,0,9.3,0,14.4,0c0,13.5,0,26.2,0,39.7c-5.1,0-9.3,0-14.4,0C408.6,72.7,408.6,60.1,408.6,46.6z"
		/>
	<path class="st0" d="M5.9,46.6c5.9,0,10.1,0,15.2,0c0,12.7,0,26.2,0,39.7c-4.2,0-8.4,0-12.7,0c-0.8,0-2.5-1.7-2.5-2.5
		C5.9,71,5.9,59.2,5.9,46.6z"/>
	<path class="st0" d="M390,86.2c-5.1,0-9.3,0-14.4,0c0-12.7,0-26.2,0-39.7c5.1,0,9.3,0,14.4,0C390,60.1,390,72.7,390,86.2z"/>
	<path class="st0" d="M53.2,46.6c5.1,0,9.3,0,14.4,0c0,12.7,0,25.3,0,38.8c-4.2,0-9.3,0-14.4,0C53.2,72.7,53.2,60.1,53.2,46.6z"/>
	<path class="st0" d="M240.6,86.2c0-13.5,0-26.2,0-39.7c5.1,0,9.3,0,14.4,0c0,13.5,0,26.2,0,39.7C251.6,86.2,245.7,86.2,240.6,86.2z
		"/>
	<path class="st0" d="M290.4,86.2c-5.1,0-9.3,0-14.4,0c0-13.5,0-26.2,0-39.7c5.1,0,9.3,0,14.4,0C290.4,59.2,290.4,72.7,290.4,86.2z"
		/>
	<path class="st0" d="M325.9,46.6c5.1,0,9.3,0,14.4,0c0,13.5,0,26.2,0,39.7c-5.1,0-9.3,0-14.4,0C325.9,72.7,325.9,60.1,325.9,46.6z"
		/>
	<path class="st0" d="M472.8,86.2c-5.1,0-9.3,0-14.4,0c0-12.7,0-26.2,0-39.7c4.2,0,9.3,0,14.4,0C472.8,59.2,472.8,72.7,472.8,86.2z"
		/>
	<path class="st0" d="M423,42.3c-5.1,0-9.3,0-14.4,0c0-10.1,0-20.3,0-30.4c0-0.8,1.7-1.7,3.4-1.7c3.4,0,7.6,0,11.8,0
		C423,20.4,423,31.4,423,42.3z"/>
	<path class="st0" d="M189.1,42.3c-5.1,0-9.3,0-14.4,0c0-11,0-21.1,0-32.1c5.1,0,9.3,0,14.4,0C189.1,20.4,189.1,31.4,189.1,42.3z"/>
	<path class="st0" d="M240.6,10.3c5.1,0,9.3,0,14.4,0c0,11,0,21.1,0,32.1c-5.1,0-9.3,0-14.4,0C240.6,31.4,240.6,21.2,240.6,10.3z"/>
	<path class="st0" d="M130,132.7c0,5.1-4.2,7.6-9.3,5.9c-7.6-2.5-11-9.3-9.3-17.7c1.7-7.6,7.6-11,15.2-9.3c1.7,0,2.5,0.8,4.2,1.7
		c-0.8,1.7-0.8,2.5-1.7,4.2c0-0.8-0.8-0.8-0.8-1.7c-3.4,0.8-8.4,0.8-10.1,3.4c-1.7,2.5-1.7,7.6-0.8,11
		C119,136.1,124.9,133.5,130,132.7z"/>
	<path class="st0" d="M381.6,112.4c-3.4,8.4-10.1,15.2-8.4,25.3c-2.5,0-3.4,0-5.9,0c2.5-10.1-4.2-16.9-8.4-25.3
		c5.1-0.8,5.1-0.8,11,9.3c1.7-2.5,2.5-5.1,4.2-7.6c1.7-1.7,4.2-2.5,5.9-3.4C380.8,111.6,380.8,112.4,381.6,112.4z"/>
	<path class="st0" d="M280.3,116.6c-2.5,0-4.2,0-6.8,0c0-1.7,0-2.5,0-4.2c6.8,0,12.7,0,19.4,0c0,1.7,0,2.5,0,4.2
		c-2.5,0-4.2,0-6.8,0.8c0,6.8,0,13.5,0,21.1c-1.7,0-3.4,0-5.9,0.8C280.3,131,280.3,124.2,280.3,116.6z"/>
	<path class="st0" d="M206,137.7c-1.7,0-3.4,0-5.1,0c0-8.4,0-16.9,0-26.2c1.7,0,3.4,0,5.1,0C206,120.9,206,129.3,206,137.7z"/>
</g>
</svg>
