<?xml version="1.0" encoding="utf-8"?>
<!-- Generator: Adobe Illustrator 26.1.0, SVG Export Plug-In . SVG Version: 6.00 Build 0)  -->
<svg version="1.1" id="Layer_1" xmlns="http://www.w3.org/2000/svg" xmlns:xlink="http://www.w3.org/1999/xlink" x="0px" y="0px"
	 viewBox="0 0 1056.6 202" style="enable-background:new 0 0 1056.6 202;" xml:space="preserve">
<g id="Livello_1_1_">
</g>
<g id="Layer_1_00000121280000816817959920000000882230360127541942_">
</g>
<g>
	<path style="fill:#FFFFFF;" d="M264.2,70.9h17l-4,18.7h0.7l14.4-18.7h18.5l-20.3,24.6l9.8,25.4h-18l-7-19.5h-0.7l-4.1,19.5h-16.9
		L264.2,70.9z"/>
	<path style="fill:#FFFFFF;" d="M311.8,83.9h15.8l-7.8,37.1H304L311.8,83.9z"/>
	<path style="fill:#FFFFFF;" d="M344.9,95.6c0,0.7,0.4,0.7,2.8,1l7.2,1.1c3.5,0.5,6.2,1.5,6.2,6.4c0,1.3-0.2,3.1-0.7,4.9
		c-2,9.8-6.3,11.9-13.4,12.4l-5,13.2h-13.7v-0.4l8.4-12.9c-3.6-0.1-7.4-0.5-10-0.9l2-9.9c3.6,0.3,7.8,0.5,10,0.5
		c3.6,0,5.6,0,6.6-0.4c0.8-0.3,1-0.8,1-1.7c0-0.5-0.6-0.7-3.3-1.1l-8.4-1.2c-3.4-0.5-4.6-2.5-4.6-5.7c0-1.7,0.4-3.9,0.9-6.3
		c2.3-10.5,8.1-11.4,18.7-11.4c5.2,0,11.2,0.4,14.2,1l-2,9.9c-4.1-0.3-8.1-0.5-9.7-0.5c-3.6,0-5.5,0.1-6.3,0.5
		C345.1,94.5,344.9,94.9,344.9,95.6z"/>
	<path style="fill:#FFFFFF;" d="M385.4,110.3c0-3.7,1.2-8.6,2.4-15.1c3.9-20.2,5.3-24.9,26.2-24.9c15.5,0,20.1,2.9,20.1,11.3
		c0,3.8-0.9,8.6-2.3,15c-4.7,20.3-5.4,24.9-26,24.9C390.1,121.5,385.4,118.6,385.4,110.3z M414.9,95.9c1.2-5.5,1.8-8.9,1.8-10.8
		c0-2.6-1.2-2.7-4.1-2.7c-5.1,0-5.2,0.3-7.9,13.4c-1.2,5.7-2,9-2,10.9c0,2.5,1.2,2.5,4.1,2.5C411.9,109.4,412.1,109.1,414.9,95.9z"
		/>
	<path style="fill:#FFFFFF;" d="M433.5,134.8l2-9.8h9.6c8,0,8.2,0,9.4-5.6c0.3-1.2,0.5-2.5,0.8-3.8h-0.7c-3.1,3.9-6.8,4.7-9.5,4.7
		c-7.2,0-9.4-2.8-9.4-7.8c0-1.9,0.3-4.1,0.9-6.6l4.7-22h15.6l-3.9,18.4c-0.5,2.4-0.8,3.9-0.8,4.7c0,1.3,0.6,1.3,2,1.3
		c2.5,0,2.7-0.1,4-6l3.9-18.4h15.6l-7,33.1c-2.6,12.4-3.6,19-23.8,19C441.9,135.9,436.4,135.5,433.5,134.8z"/>
	<path style="fill:#FFFFFF;" d="M478.3,113.7c0-2,0.7-5.6,1.4-9.1l4.4-20.7h15.5l-3.9,18.6c-0.5,2.3-0.9,4.6-0.9,5.5
		c0,1.4,0.5,1.5,1.7,1.5c2.8,0,3-0.4,4.2-6l4.2-19.6h15.5l-7.8,37.1h-15l0.6-4.1h-0.7c-3.1,3.9-7.2,4.7-10,4.7
		C480.2,121.5,478.3,118.9,478.3,113.7z"/>
	<path style="fill:#FFFFFF;" d="M526.9,83.9h15l-0.6,4.1h0.7c3.1-3.9,7.2-4.7,10-4.7c7,0,9,2.5,9,7.6c0,2-0.6,5.6-1.3,9.1l-4.5,21
		h-15.5l3.9-18.6c0.5-2.3,0.9-4.6,0.9-5.5c0-1.4-0.5-1.5-1.7-1.5c-2.8,0-3,0.4-4.2,6l-4.2,19.6h-15.5L526.9,83.9z"/>
	<path style="fill:#FFFFFF;" d="M573.2,66.9H589l-11.4,54h-15.8L573.2,66.9z"/>
	<path style="fill:#FFFFFF;" d="M585.6,112.7c0-2.6,0.3-6,1.2-10.2c3.1-15.1,7-19.2,14.4-19.2c4,0,7.7,0.5,9.6,4.2h0.7l1.2-3.7h15.1
		l-7.8,37.1h-15l0.7-4.1h-0.8c-2.6,3.9-6,4.7-9.3,4.7C588.8,121.5,585.6,119.5,585.6,112.7z M607.1,107.7c0.7-2,2.3-9,2.3-10.8
		c0-1.5-0.5-1.6-2.4-1.6c-3,0-3.1,0.1-4.6,7.1c-0.7,2.9-0.9,4.6-0.9,5.7c0,1.4,0.7,1.5,2.5,1.5C606,109.5,606.5,109.4,607.1,107.7z"
		/>
	<path style="fill:#FFFFFF;" d="M634.3,83.9h15l-1,6.2h0.7c3.2-5.5,5.9-6.8,12.6-6.8l-2.9,13.5c-9.7,0-12,1.8-14.1,11.7l-2.7,12.4
		h-15.5L634.3,83.9z"/>
	<path style="fill:#FFFFFF;" d="M666.2,83.9H682l-7.8,37.1h-15.8L666.2,83.9z"/>
</g>
<path style="fill:#FFFFFF;" d="M193.3,146.8c-2.1,3.7-6,5.7-9.9,5.7c-2,0-3.9-0.5-5.8-1.6l-9-5.2l1.9,7.2c1.2,4.6-1.5,9.3-6.1,10.5
	c-0.7,0.2-1.5,0.3-2.2,0.3c-3.8,0-7.3-2.5-8.3-6.4l-6.3-23.9L126.3,121v25.2l17.3,17.5c3.3,3.4,3.3,8.8-0.1,12.1
	c-1.7,1.7-3.9,2.5-6,2.5c-2.2,0-4.4-0.9-6.1-2.5l-5.1-5.1v10.5c0,6.3-5.1,11.4-11.4,11.4c-6.3,0-11.4-5.1-11.4-11.4v-10.5l-5.1,5.1
	c-3.3,3.4-8.8,3.4-12.1,0.1c-3.4-3.3-3.4-8.8-0.1-12.1l17.3-17.5l-0.3-25.2l-21.4,12.5l-6.3,23.9c-1,3.8-4.5,6.4-8.3,6.4
	c-0.7,0-1.5-0.1-2.2-0.3c-4.6-1.2-7.3-5.9-6.1-10.5l1.9-7.2l-9,5.2c-1.5,1.1-3.5,1.6-5.5,1.6c-3.9,0-7.8-2-9.9-5.7
	c-3.2-5.5-1.4-12.4,4.1-15.6l9.3-5.4l-7.3-2c-4.6-1.2-7.3-5.9-6-10.5c1.2-4.6,5.9-7.2,10.5-6l23.5,6.4l21.6-12.6L70.5,88.4L47,94.8
	c-0.8,0.2-1.5,0.3-2.3,0.3c-3.8,0-7.2-2.5-8.3-6.3c-1.2-4.6,1.5-9.3,6-10.5l7.3-2l-9.3-5.4c-5.5-3.2-7.3-10.2-4.1-15.6
	c3.2-5.5,10.2-7.3,15.7-4.1l9,5.2l-1.9-7.2c-1.2-4.6,1.5-9.3,5.8-10.5c4.9-1.2,9.3,1.5,10.8,6.1L82,68.7l21.1,12.5V56l-17-17.5
	c-3.3-3.4-3.3-8.8,0.1-12.1C89.5,23,95,23,98.3,26.4l5.1,5.1L103.1,21c0-6.3,5.1-11.4,11.4-11.4c6.3,0,11.4,5.1,11.4,11.4v10.5
	l5.1-5.1c3.3-3.4,8.8-3.4,12.1-0.1c3.4,3.3,3.4,8.8,0.1,12.1L126,56l0.3,25.2l21.4-12.5l6.3-23.9c1.2-4.6,5.9-7.3,10.5-6.1
	c4.6,1.2,7.3,5.9,6.1,10.5l-1.9,7.2l9-5.2c5.5-3.2,12.5-1.3,15.7,4.1c3.2,5.5,1.4,12.4-4.1,15.6l-9.3,5.4l7.3,2
	c4.6,1.2,7.3,6,6,10.5c-1,3.8-4.5,6.3-8.3,6.3c-0.8,0-1.5-0.1-2.3-0.3l-23.9-6.4l-21.3,12.6l21.6,12.6l23.6-6.4
	c4.6-1.2,9.3,1.5,10.5,6c1.2,4.6-1.5,9.3-6,10.5l-7.3,2l9.3,5.4C194.7,134.4,196.5,141.4,193.3,146.8z"/>
</svg>
