<?xml version="1.0" encoding="utf-8"?>
<!-- Generator: Adobe Illustrator 24.1.2, SVG Export Plug-In . SVG Version: 6.00 Build 0)  -->
<svg version="1.1" id="Layer_1" xmlns="http://www.w3.org/2000/svg" xmlns:xlink="http://www.w3.org/1999/xlink" x="0px" y="0px"
	 viewBox="0 0 1032 422" style="enable-background:new 0 0 1032 422;" xml:space="preserve">
<style type="text/css">
	.st0{fill:#FFFFFF;}
	.st1{fill:url(#SVGID_1_);}
	.st2{fill:url(#SVGID_2_);}
	.st3{opacity:0.15;fill:#FFFFFF;enable-background:new    ;}
	.st4{fill:#3E91CE;}
</style>
<g id="Layer_2_1_">
	<g id="Layer_1-2">
		<path class="st0" d="M307.5,130.7l-3.1,144.5C304.4,275.2,299.7,218.2,307.5,130.7z"/>
		<path class="st0" d="M735,312c0,2-1.6,3.5-3.5,3.6c-9.5,0.3-18.2,1.3-28.6,1.8c-10,0.5-19.6,0.9-27.3,2.5
			c-1.2,0.3-2.4-0.1-3.2-0.9l0,0c-0.7-0.7-1.1-1.6-1.1-2.6v-19.6c0-2-1.6-3.6-3.6-3.6c-0.7,0-1.5,0.2-2.1,0.7
			c-8,6-16.4,11.6-25.1,16.6c-12.1,6.7-20.8,9.9-32.1,9.9c-27.9,0-51.7-16.3-51.7-59.1v-77.7c0-21-3.3-25.5-13.7-27.9l-9-1.8
			c-1.6-0.3-2.7-1.7-2.8-3.3l-0.3-4.6c-0.1-2,1.3-3.7,3.3-3.8h0.1c11.8-0.4,40.8-1.3,52.5-2.2c2-0.2,3.7,1.3,3.8,3.3
			c0,0.2,0,0.4,0,0.6c-0.9,12.2-0.9,29.6-0.9,53.2v53.5c0,35.3,17.9,44.8,36.7,44.8c14.6,0,29.9-5.6,43.8-17.9
			c0.8-0.7,1.2-1.7,1.2-2.7v-91.1c0-21-3.7-25.9-17.5-27.9l-12.1-1.9c-1.7-0.3-3-1.8-3-3.5V146c0-1.9,1.5-3.5,3.5-3.6
			c13.4-0.4,46.1-1.3,58.1-2.2c2-0.1,3.7,1.3,3.8,3.3c0,0.1,0,0.2,0,0.3v128.4c0,19.8,3.3,31.1,19.6,32.3l7.8,0.3
			c1.9,0.1,3.5,1.7,3.5,3.6L735,312z"/>
		<path class="st0" d="M522.5,270.4c-5.1,13.4-10.9,28.4-16.3,42c-0.8,1.9-2.6,3.2-4.7,3.2H371c-1.9,0-3.7-1.1-4.5-2.8l-0.2-0.4
			c-0.8-1.7-0.7-3.6,0.4-5.1c33.4-47,65-94.5,96.9-143.5c1.5-2.4,0.9-5.5-1.5-7c-0.8-0.5-1.7-0.8-2.7-0.8h-27.7
			c-30,0-35.4,5.9-47.1,28.1l-3.8,7c-1.2,2.2-3.8,3.2-6.1,2.4l-1.7-0.6c-2.6-0.9-4-3.7-3.2-6.3c3.9-12.6,8.3-26.1,11.3-40
			c0.5-2.3,2.5-4,4.9-4h120.7c2,0,3.8,1.2,4.6,3l0,0c0.7,1.6,0.6,3.5-0.4,4.9c-31.9,47.3-63.2,94.9-95,144.3c-1.5,2.4-0.8,5.5,1.5,7
			c0.8,0.5,1.7,0.8,2.7,0.8h32c31.6,0,40-8.3,55.7-31.9l0.2-0.3l3-5.3c1.3-2.3,4.2-3.2,6.6-2.1l2.4,1.1
			C522.3,265.2,523.4,267.9,522.5,270.4z"/>
		<path class="st0" d="M915.8,310.2L915.8,310.2c0-2.8,2.1-5.1,4.9-5.4c23-2.3,34.9-6,34.9-31.3v-81.7c0-23-1.1-30.6-21.8-34.4
			c-2.6-0.5-4.5-2.7-4.5-5.3v-4.5c0-2.9,2.3-5.3,5.2-5.4c9-0.3,28.2-0.9,45.5-2.2c3-0.2,5.6,2,5.8,5c0,0.1,0,0.3,0,0.4v128.2
			c0,25.2,4.9,28.9,27.3,31.2c2.8,0.3,4.9,2.6,4.9,5.4l0,0c0,3-2.4,5.4-5.4,5.4h-91.4C918.2,315.6,915.8,313.2,915.8,310.2z"/>
		
			<linearGradient id="SVGID_1_" gradientUnits="userSpaceOnUse" x1="307.0145" y1="-930.7245" x2="116.6327" y2="-522.4449" gradientTransform="matrix(1 0 0 1 0 927.1882)">
			<stop  offset="0" style="stop-color:#70ABDC"/>
			<stop  offset="0.17" style="stop-color:#68A5DA"/>
			<stop  offset="0.46" style="stop-color:#4D9BD4"/>
			<stop  offset="0.6" style="stop-color:#3F93D0"/>
			<stop  offset="0.99" style="stop-color:#207CC1"/>
		</linearGradient>
		<polygon class="st1" points="52.2,85.7 335.4,9.7 325.1,414.9 10.6,355.3 		"/>
		
			<linearGradient id="SVGID_2_" gradientUnits="userSpaceOnUse" x1="342.147" y1="-917.3505" x2="333.8731" y2="-512.1091" gradientTransform="matrix(1 0 0 1 0 927.1882)">
			<stop  offset="0" style="stop-color:#3F93D0"/>
			<stop  offset="0.99" style="stop-color:#207CC1"/>
		</linearGradient>
		<polygon class="st2" points="335.4,9.7 350.7,20.8 340.7,397.1 325.1,414.9 		"/>
		<path class="st3" d="M52.2,85.7L48.1,105c0,0.9-0.1,1.8-0.1,2.7c0,117.4,93.7,212.5,217.1,212.5c21.1,0,42.1-2.9,62.5-8.5l7.7-302
			L52.2,85.7z"/>
		<path class="st0" d="M300.5,289.6c-5.1,15.8-20.9,59.8-27.2,73.8l-234.1-34l0.8-9.2c43.1,2.8,47.2,0.4,50.1-28.9l14.4-142.9
			c3.3-32.3-0.6-32.8-39.6-26.4l0.9-9.5l232.8-55.3c-1.4,11.8-2.7,43.3-4,67.1l-15.7,4.4c-2.5-18.6-6.6-27.7-12.4-35.9
			c-6.3-8.4-20.3-8.3-58.4,0.1l-39.6,8.7c-16,3.5-17.2,4.9-18.4,16.1l-9.4,87.9l47.4-3.4c46.7-3.4,49.7-7,59.5-37.4l15.2-1.8
			l-10.4,86.8h-14.9c-3-31.3-6.3-33.7-50.7-31.6l-47.7,2.3l-7.7,72.3c-1.9,17.9,0.1,26.6,8.4,32.3c8.7,6.2,25.8,8.3,50.3,11.4
			c37.7,4.8,52.2,3,64.7-7.6c9.7-8.4,21.4-23.9,30.9-41.9L300.5,289.6z"/>
		<path class="st0" d="M911.4,149.6c0,3.9-3,7.1-6.9,7.4c-7.7,0.6-15,2.5-18.1,7.8c-1.2,1.4-1.2,3.5,0,5c5.6,8.9,8.5,19.1,8.4,29.6
			c0,42.8-37.5,63.4-72.9,63.4c-5.6,0-11.3-0.5-16.8-1.3c-3.1-0.5-6.2,0.4-8.6,2.5c-4.3,3.9-8.4,9.2-8.4,13.4
			c0,7.5,7.5,12.3,26.3,12.3c15.4,0,30-1.3,43.6-0.1c25.7,2.3,54.9,22.5,54.9,54.3c0,33.3-40.4,58.1-95.8,58.1
			c-46.7,0-75.1-23-75.1-45.6c0-27.9,30-36.7,39.8-44.2c1.4-1,1.7-3,0.7-4.4c-0.4-0.5-0.8-0.9-1.4-1.1c-12.1-4.8-21.8-6.4-25.4-12.4
			c-12.9-22,22.1-27.8,29-34.7c1.2-1.2,1.3-3.2,0.1-4.4c-0.3-0.3-0.6-0.5-0.9-0.7c-17.3-8.4-32.7-26.3-32.7-51.4
			c0-44.8,42.5-65.8,74.6-65.8h0.4c8.7,0,17.3,1.4,25.5,4.2c1.1,0.4,2.2,0.6,3.4,0.6h49.1c4,0,7.3,3.2,7.3,7.3L911.4,149.6z
			 M774.9,343.8c0,21.8,21.5,40.6,52.4,40.6c38.2,0,54.6-15.8,57.4-30.5c3.4-17.8-6-27.6-18-35.1c-9.4-5.8-16.2-8.4-34.5-9.4
			C793.3,307.4,774.9,332.7,774.9,343.8L774.9,343.8z M787,197c0,30.9,16.3,53.1,39.2,53.1c18.3-0.4,34.6-15.9,34.6-47.2
			c0-30.9-15.4-53.1-39.6-53.1C803.6,149.9,787,166.5,787,197L787,197z"/>
		<path class="st4" d="M937.4,91.6c2.8,12.3,16.2,19.1,29.9,15.4c13.7-3.7,22.6-16.8,19.8-29s-16.2-19.1-29.9-15.4
			C943.5,66.3,934.6,79.4,937.4,91.6z"/>
	</g>
</g>
</svg>
