<?xml version="1.0" encoding="UTF-8"?> <svg xmlns="http://www.w3.org/2000/svg" xmlns:xlink="http://www.w3.org/1999/xlink" version="1.1" id="Layer_1" x="0px" y="0px" viewBox="0 0 1000 1000" style="enable-background:new 0 0 1000 1000;" xml:space="preserve"> <path style="fill:#FFFFFF;" d="M202.07,566.26c0,0,15.55,28.52,35,10.37s24.63-85.55-11.67-95.92s-72.59,33.7-79.07,75.18 c0,0-25.92,1.3-41.48-15.55c-15.55-16.85-66.1-26.62-84.25,5.48c0,0,25.92-11.37,47.96,0c22.03,11.37,50.14,32.11,67.84,26.92 c0,0-6.92,97.21,21.59,119.25s50.55,44.07,106.29-6.48c28.09-37.08,12.96-57.03,12.96-57.03s-7.78,47.96-32.4,55.74 c-24.63,7.78-68.7,23.33-77.77-35c-9.07-58.33,5.18-134.8,24.63-143.87c19.44-9.07,49.36-14.65,38.89,31.11 C220.12,582.21,202.07,566.26,202.07,566.26z"></path> <path style="fill:#FFFFFF;" d="M281.32,553.3c0,0,24.45-6.48,25.74,11.67c0,0,11.67-32.4,27.22-25.92 c18.15-0.86,42.77,10.37,23.33,49.25c-19.44,38.89-31.11,10.37-25.92,0s22.03-36.29-1.3-29.81c-23.33,6.48-12.96,58.33-12.96,58.33 s-1.78,31.11,5.59,33.7s-4.3,29.81-19.85,11.67c-15.55-18.15-2.59-25.92-6.2-58.9C294.88,584.13,281.32,553.3,281.32,553.3z"></path> <path style="fill:#FFFFFF;" d="M382.24,521.63c0,0,24.63-11.52,24.63,16.56c0,28.08,5.18,65.67,11.67,72.15s9.07,28.52-18.15,14.26 c-19.11-21.31-17.01-84.09-18.15-59.62C381.1,589.43,382.24,521.63,382.24,521.63z"></path> <path style="fill:#FFFFFF;" d="M392.61,479.18c0,0,29.81,15.79,0,30.05S379.42,464.29,392.61,479.18z"></path> <path style="fill:#FFFFFF;" d="M444.45,511.47c0,0-21.64,38.07,0,78.13c15.9,29.43,62.66,27.73,66.32-15.3 c3.67-43.03-11.89,0-11.89,0s-28.52,41.58-41.48-10.63c-12.96-52.2,14.43-52.2,14.43-52.2s19.27-2.24,6.31,15.91 c-12.96,18.15,10.37,9.24,18.15-5.75c7.78-14.99,2.94-30.97-24.45-27.52C444.45,497.57,444.45,511.47,444.45,511.47z"></path> <path style="fill:#FFFFFF;" d="M510.78,412.02c0,0,17.93-25.92,28.3,0c10.37,25.92,10.37,81.62,10.37,81.62s19.44-59.58,40.18-38.84 c20.74,20.74,9.07,45.37,9.07,45.37s-24.63,18.97-23.33-20.98c1.3-39.94-18.99,32.29-18.99,32.29s22.88-4.83,26.77,17.21 c3.89,22.03,55.74,82.37,92.03,69.05s27.22-52.2,41.48-36.65c14.26,15.55,5.18,55.74-19.44,58.33 c-12.96,10.45-44.07,36.29-105.5-33.03c0,0-26.71-70.07-40.97-40.56c-3.95,16.79,14.26,38.59,14.26,38.59s14.26,47.86-25.92,18.87 c-14.26-28.99-10.37-81.65-10.37-81.65S534.33,412.02,510.78,412.02z"></path> <path style="fill:#FFFFFF;" d="M699.8,494.11c-3.89-32.84-6.48,24.87-22.03,25.18c-15.55,0.31-35-2.36-29.81-25.65 c0,0,15.55,5.23,25.92-7.74c10.37-12.96,24.63-46.66,1.3-58.33c-23.33-11.67-47.96,23.33-47.96,23.33s-16.85,53.14,10.37,80.36 C664.8,558.48,703.69,526.95,699.8,494.11z M655.22,444.14c24.63,0,3.72,33.03-5.35,30.36C640.8,471.84,655.22,444.14,655.22,444.14 z"></path> <path style="fill:#FFFFFF;" d="M700.07,335.54c0,0,26.24-3.89,23.36,27.22c0,0,19.15,1.3,33.41-6.48 c14.26-7.78,41.48-7.61,16.85,6.56s-25.92,15.47-42.77,15.47c0,0,2.59,49.98,3.89,65.82c1.3,15.84-1.47,48.24,7.04,57.32 c8.51,9.07,24.48,30.53-9.63,20.17c-34.12-10.35-20.74-69.43-20.74-69.43s3.89-59.62-2.59-68.7c0,0-29.81,16.85-35,6.48 c-5.18-10.37,31.83-24.29,31.83-24.29L700.07,335.54z"></path> <path style="fill:#FFFFFF;" d="M806.09,317.4h44.07l32.4,29.81l23.33-63.51c0,0,20.74-38.89,57.03-25.92l-46.66,115.36l69.99,71 l-55.74,5.47l-34.35-32.4l-69.34,167.21l-20.74-84.25l51.85-108.88L806.09,317.4z"></path> <path style="fill:#FFFFFF;" d="M345.95,450.9c0,0,106.29,9.8,156.84-6.77c0,0-27.22-20.45-11.67-34.71s49.25-45.37,73.88,0 c0,0,67.53-18.15,101.81-68.7c0,0,3.48-9.07,6.57-19.44c3.09-10.37,10.87-22.03,17.35-31.11s-4.89-10.37-29.66,5.18 s-5.21-51.85,5.75-54.44c10.95-2.59-8.49-31.21-31.82,14.2c0,0-2.59-35.05-32.4,0c-29.81,35.05-37.59,32.35-31.11,0 s-27.22-6.43-40.18,6.53c-12.96,12.96-14.26,27.22-25.92,28.52S361.5,343.32,345.95,450.9z"></path> <path style="fill:#FFFFFF;" d="M375.92,691.99c0,0,51.92-37.59,97.17-40.18c173.79-22.51,157.07,80.36,255.4,6.48 c0,0-10.55,68.7-96.09,102.4S406.03,778.73,375.92,691.99z"></path> <circle style="fill:#FFFFFF;" cx="714.28" cy="260.32" r="14.21"></circle> <circle style="fill:#FFFFFF;" cx="783.4" cy="257.13" r="11.02"></circle> <circle style="fill:#FFFFFF;" cx="797.01" cy="191.67" r="24.63"></circle> <circle style="fill:#FFFFFF;" cx="272.74" cy="461.66" r="17.52"></circle> <path style="fill:#FFFFFF;" d="M364.73,736.06c0,0-18.78,37.59-47.3,29.81C288.91,758.09,290.19,738.65,364.73,736.06z"></path> <path style="fill:#FFFFFF;" d="M381.73,758.09c0,0-15.05,102.23-35.79,110.17C325.21,876.21,267.15,866.75,381.73,758.09z"></path> </svg> 