<?xml version="1.0" encoding="UTF-8"?> <svg xmlns="http://www.w3.org/2000/svg" xmlns:xlink="http://www.w3.org/1999/xlink" version="1.1" id="Layer_1" x="0px" y="0px" viewBox="0 0 1000 1000" style="enable-background:new 0 0 1000 1000;" xml:space="preserve"> <path style="fill:#FFFFFF;" d="M201.6,280.6"></path> <path style="fill:#FFFFFF;stroke:#FFFFFF;stroke-width:1.7546;stroke-miterlimit:10;" d="M596.4,239.6c0,0-22.8,153.2-26.3,176 l117.6,21.6v-39.1l-70.2-17.5L657.8,256L596.4,239.6z"></path> <polygon style="fill:#FFFFFF;stroke:#FFFFFF;stroke-width:1.7546;stroke-miterlimit:10;" points="687.6,239.6 747.3,239.6 761.3,445.5 708.7,445.5 "></polygon> <polygon style="fill:#FFFFFF;stroke:#FFFFFF;stroke-width:1.7546;stroke-miterlimit:10;" points="761.3,280.6 806.9,454.3 843.8,454.3 829.7,354.2 931.5,424.4 971.9,405.1 945.5,239.6 866.6,239.6 908.7,342.5 799.9,259.5 "></polygon> <path style="fill:#FFFFFF;stroke:#FFFFFF;stroke-width:1.7546;stroke-miterlimit:10;" d="M429.7,464.8v224.6c0,0,45.6,54.4,96.5,8.8 v-98.3l35.9-24.6l-30.6-15.8l-1.8-94.7h89.5v268.5c0,0-22.8,64.9-133.3,64.9l-56.1-50.9v42.1c0,0-84.2-7-86-66.7s0-142.1,0-142.1 l21.1-21.1l-21.8-14v-80.7H429.7z"></path> <polygon style="fill:#FFFFFF;stroke:#FFFFFF;stroke-width:1.7546;stroke-miterlimit:10;" points="649,464.8 638.5,659.5 666.6,670.1 638.5,691.1 638.5,787.6 736.8,787.6 736.8,592.9 866.6,787.6 963.1,787.6 963.1,454.3 931.5,454.3 936.8,480.6 903.4,454.3 866.6,454.3 866.6,547.2 896.4,549 866.6,592.9 875.4,661.3 761.3,510.4 724.5,522.7 752.5,492.9 731.5,464.8 "></polygon> <path style="fill:#FFFFFF;stroke:#FFFFFF;stroke-width:1.7546;stroke-miterlimit:10;" d="M294.6,252.5c-103.5,8.8-93,87.7-93,87.7 l-57.9-3.5l-7,43.9c0,0-73.7,11.3-68.4-56.6c5.3-67.9,77.2-43.4,77.2-43.4s17.5,14,21.1,26.3l35.1-26.3c0,0-45.6-84.2-138.6-40.4 c-68.9,32.5-43.9,105.3-43.9,105.3s12.3,100,133.3,87.7l26.3,12.3l12.3-75.4c0,0,17.5,82.5,108.8,84.2s98.3-93,98.3-93 S408.6,256,294.6,252.5z M299,401.6c-28.6,0-51.8-20.8-51.8-46.5c0-25.7,23.2-46.5,51.8-46.5s51.8,20.8,51.8,46.5 C350.7,380.8,327.6,401.6,299,401.6z"></path> <path style="fill:#FFFFFF;stroke:#FFFFFF;stroke-width:1.7546;stroke-miterlimit:10;" d="M327.6,789.4L270,663.1 c29.8-8.8,33.3-35.1,33.3-35.1l-17.5-28.1h40.4C342,480.6,224.4,454.3,224.4,454.3H113.9v22.8l-17.5-22.8H49v171.9l24.6,31.6 l-29.8-12.3L22.6,798.2h122.8l1.8-119.3l31.6-1.8l52.6,121.1h28.1l21.1-40.4l-1.8,40.4L327.6,789.4z M201.6,610.4h-63.2v-22.8 l-21.1-19.3l21.1-10.5v-33.3h36.7c0,0,56.3,0,54.5,43S201.6,610.4,201.6,610.4z"></path> <path style="fill:#FFFFFF;stroke:#FFFFFF;stroke-width:1.7546;stroke-miterlimit:10;" d="M529.7,323.9c0,0,29.8-31.1,7-67.9 s-149.1,0-149.1,0s22.8,86,26.3,180.7c0,0,119.3,8.8,142.1-43.9S529.7,323.9,529.7,323.9z M438.5,280.6c15.8-7,57.9-8.8,60.5,15.8 c2.6,24.6-50,27.6-50,27.6L438.5,280.6z M508.7,378.4c-3.5,18.9-54.4,23.2-54.4,23.2v-46.5C478.8,347.2,512.2,359.5,508.7,378.4z"></path> </svg> 