<?xml version="1.0" encoding="UTF-8"?> <svg xmlns="http://www.w3.org/2000/svg" xmlns:xlink="http://www.w3.org/1999/xlink" version="1.1" id="Layer_1" x="0px" y="0px" viewBox="0 0 1000 1000" style="enable-background:new 0 0 1000 1000;" xml:space="preserve"> <path style="fill:#FFFFFF;" d="M136.7,253.3l-62.9,150h49.4l23.4-59.3v59.3h26.1l46.7-58.4l-22.5,58.4h44l60.2-144.6h-64.7 c0,0-42.2,68.3-42.2,65.6c0-2.7,7.2-71,7.2-71H136.7z"></path> <path style="fill:#FFFFFF;" d="M546.9,298.2h-45.5l7.2-24.3c-1.8-9.9-16.2-0.9-16.2-0.9l-32.3,82.6l20.7-0.9c0,0,3.6-9.9,7.2-18.9 c3.6-9,1.8-12.6,1.8-12.6H540l-22.5,55.7h-41.3V371c0,0-44.9,0.9-58.4,0c-13.5-0.9-4.5-18-4.5-18l33.2-85.3 c5.9-15.1,14.4-11.2,14.4-11.2s79,0,89.8,0c10.8,0,9,7.6,9,7.6L546.9,298.2z"></path> <polygon style="fill:#FFFFFF;" points="588.5,256.5 540.9,371 588.5,371 605.6,328.3 616.4,371 651.4,371 700.8,256 653.2,256 638.9,297.3 625.4,256.5 "></polygon> <polygon style="fill:#FFFFFF;" points="717,256.5 768.2,256.5 723.3,375.5 668.5,375.5 "></polygon> <polygon style="fill:#FFFFFF;" points="785.3,256 738.6,375.5 785.3,375.5 805,323.4 830.2,323.4 839.2,300.9 814,300.9 823,277.6 853.5,277.6 862.5,256 "></polygon> <polygon style="fill:#FFFFFF;" points="877.8,256 870.6,313.7 877.8,323.4 858,371 911,371 929,321.6 943.4,313.5 982,256.5 947,256 920,307.2 923.6,267.7 930.8,256.5 "></polygon> <polygon style="fill:#FFFFFF;" points="77.4,441.9 194.2,441.9 208.6,569.5 311.9,441.9 386.4,441.9 293.9,750.1 216.7,750.1 267.9,596 215.8,672.8 152,717.7 147.5,626.1 138.5,608.1 97.2,750.1 22.6,750.1 106.2,486 "></polygon> <polygon style="fill:#FFFFFF;" points="489.7,441.9 331.6,750.1 410.5,750.1 447.5,681.8 410.7,631.5 470,630.6 533.8,506.7 516.7,647.7 449.3,647.7 505,722.2 502.3,750.1 583.2,750.1 614.6,441.9 "></polygon> <path style="fill:#FFFFFF;" d="M681.1,441.9h112.3c0,0,22.5,150.9,25.2,142.8c2.7-8.1,39.5-142.8,39.5-142.8h76.4L841,750.1 l-40.4,30.5l-57.5-199.4l-42.2,165.3h-74.6l79-260.5L681.1,441.9z"></path> <path style="fill:#FFFFFF;" d="M419.7,256.9c-10.8-0.9-87.1,0-87.1,0s-10.8-3.2-17.1,12.6L275,371H320l20.7-50.8h19.8l-18,50.8h43.1 l42.2-101.5C427.8,269.5,430.5,257.8,419.7,256.9z M377,279.1l-8.1,22.6h-19.2l10.1-23.9c0,0,3.4-7.1,10.8-6.4 C378,272.1,377,279.1,377,279.1z"></path> </svg> 