<?xml version="1.0" encoding="UTF-8"?> <svg xmlns="http://www.w3.org/2000/svg" xmlns:xlink="http://www.w3.org/1999/xlink" version="1.1" id="Layer_1" x="0px" y="0px" viewBox="0 0 1000 1000" style="enable-background:new 0 0 1000 1000;" xml:space="preserve"> <path style="fill:#FFFFFF;" d="M561.3,689.5c1.4-12.1,3.6-24.3,3.7-36.4c0-6.1-3.9-12.3-7-21c-12.1,18.6-0.1,36.6-6.2,53.8 c-10,0-20.8,0-33.5,0c3.9-35-6.5-66-25-94.4c-1.2,0.3-2.4,0.7-3.6,1c0-11.3,0-22.7,0-34.8c13.6,0,26.8,0,41.2,0 c0,21.1,0,42.7,0,64.2c1.8,0.2,3.5,0.4,5.3,0.6c3.9-12.2,7.7-24.4,12-36.4c1-2.9,3.8-5.2,5.7-7.8c2.7,2.4,6.3,4.3,7.9,7.3 c5.2,9.6,9.6,19.6,15.4,31.7c4.6-7,8.1-12.2,10.4-15.8c-9.4-15.7-3-31.1-5.3-47.1c40.6,2.4,79.7,4.6,119.4,7 c-2.5,14.3-5.2,29.4-8,45.2c-4.5,0-9.2,0-14.4,0c-1.3-3.9-2.8-7.9-4.3-12.4c-5.8,1-11,1.8-16.9,2.8c0,4.8,0,9.4,0,15 c6.4,0.5,12.9,1,19.4,1.6c-0.6,12.4-0.6,24.6-19.3,19.9c0,7.4,0,13.8,0,20.8c9.1,1.4,16.8,2.6,21.3-9c1.2-3.1,10.4-3.1,17-4.9 c0,14.7,0,27.3,0,41.9c-26.9,0-53.8,0-81.2,0c0-8.6,0-15.5,0-23.3c3.6-0.6,7.3-1.2,11.9-1.9c0-19.5,0-39.1,0-59.1 c-8.9-3.3-13.5-0.2-16.4,8.7c-4.2,13-11,25.3-14.1,38.5c-2.3,9.8-0.6,20.5-0.6,30.8c0,3.1,0,6.1,0,9.3c-9.2,1.5-18,3-26.7,4.4 C566.7,689.5,564,689.5,561.3,689.5z"></path> <path style="fill:#FFFFFF;" d="M33,527.7c4.1-5.6,10.2-10.7,11.9-17c5.9-21.7,10.5-43.7,14.9-65.7c0.6-3-2-6.7-3.2-10.1 c-0.9-2.5-2.7-5.1-2.5-7.5c1.3-11.4,3.3-22.6,5.1-34.6c25,0,49.2,0,77.3,0c-2.5,16.3-5,32-7.1,47.7c-0.4,3.3,0.5,6.9,1.3,10.3 c3.8,18.1,7.7,36.2,11.8,54.3c0.8,3.3,1.6,7.7,4,9.5c16.7,12.2,6.5,28.7,9.5,45.3c-21.1,0-40.3,0-60.1,0c-6.1-21.9-2.6-35.5,11.5-39 c-1.2-3.6-2.3-7.2-3.7-11.3c-6.9,0-14,0-21.6,0c-1.1,4.4-2.3,8.9-3.4,13.2c14.7,8.2,4.1,21.6,8.3,32.8c-18.9,4.5-36.4,6.6-54.1,1.3 C33,547.2,33,537.4,33,527.7z M100.3,485.1c-1.5-12.5-2.8-22.8-4-33.2c-1.1,0-2.2-0.1-3.3-0.1c-2.4,10.3-4.8,20.6-7.5,32 C90.7,484.2,94.4,484.5,100.3,485.1z"></path> <path style="fill:#FFFFFF;" d="M346.7,467.9c3.9-19.7,8.4-39.4,11.5-59.2c1.4-8.8,4.6-12.1,13.6-11.6c11,0.7,22.1,0.2,32.9,0.2 c5.2,26.1,3.2,35.9-8.2,38.9c0,21.3,0,42.8,0,65.3c13.8-6,12.9,2.8,12.8,11.3c-0.2,10.9,0,21.9,0,33.4c-15.4,0-29.4,0-45.4,0 c4.3-16-2.7-32,9.2-47.5c5-6.5-0.2-20.9-3.2-31.9c-4.4,15.1-9.5,30.1-12.8,45.4c-2.3,10.9-7,15.5-19.9,11.5 c-6.2-23.2-12.7-47.6-19.2-71.9c-0.7,0.1-1.3,0.2-2,0.3c0,15.7-4.9,33.8,1.4,46.4c6.2,12.7,6.1,24.6,8.5,36.9 c0.6,3,0.1,6.1,0.1,10.2c-14.6,0-28.9,0-44.6,0c0-14.1-5.1-30.9,1.1-40.6c11.7-18.4,4.1-36.4,6.5-54.3c0.5-3.3-3.5-7.2-5.2-11 c-1.1-2.6-2.5-5.5-2.4-8.2c0.4-11.8,1.4-23.6,2.2-36c15.7,0,30.3,0,45.7,0c4.7,24.2,9.5,48.3,14.2,72.4 C344.4,468.1,345.6,468,346.7,467.9z"></path> <path style="fill:#FFFFFF;" d="M209.1,545.6c-16,0-30,0-45.2,0c0-12-4.1-25.7,0.8-34.3c15.2-26.6,5.2-54.5,10.1-82.2 c-6.1-1.1-10.6-1.9-15.7-2.8c0-10.9,0-21.8,0-33.8c27.5,0,54.5-0.9,81.4,0.4c13.7,0.6,19.3,9.2,19.4,23.3c0,11.5-0.5,23,0.1,34.5 c0.6,11.2-5,16.9-12.9,19.1c3.4,13.3,6.8,26.6,10.9,42.4c2.3-8.3,4-14.2,6.3-22.7c4,3.2,7.4,4.8,9.1,7.5c7.7,12.2,1.9,40.8-9.6,49.3 c-12.4,9.2-35.7,1.9-39.4-13c-2.8-11.5-3-23.7-5.7-35.2c-1.1-4.7-5.6-8.9-9.3-12.5c-0.7-0.7-7.4,2.4-7.3,3.4c0.5,5.5,2,11,3.5,16.4 c0.8,2.7,3.2,5.1,3.3,7.7C209.4,523.6,209.1,534.2,209.1,545.6z M204.8,423.5c0,13.1,0,21.6,0,34.6c9.5-4.5,17.2-6.9,23-11.5 c2.6-2.1,3.4-11.8,1.8-12.8C222.8,429.6,214.6,427.3,204.8,423.5z"></path> <path style="fill:#FFFFFF;" d="M970.7,478.9c-1.2,16.5-2.2,33.5-3.9,50.4c-1.6,16.6-13.5,27.1-30.4,27.5c-8.9,0.2-17.8-0.6-26.6,0.2 c-28.1,2.4-35.2-13.4-35.8-34.1c-1.1-34.7,0.3-69.6,1.2-104.3c0.3-12.8,12.7-22.9,27.3-23.4c10.6-0.3,21.3-0.1,31.9-0.1 c18.9,0,30.8,10.6,32.4,29.6C968.4,442.6,969.4,460.4,970.7,478.9z M910.9,479.5C910.9,479.5,910.9,479.5,910.9,479.5 c0.1,11.9-0.7,23.9,0.5,35.6c0.4,3.6,6.1,8.5,9.9,9.1c3,0.5,10.1-4.5,10.1-7.2c0.7-24.2,0.8-48.4-0.3-72.6c-0.2-3.3-7.8-6.2-12-9.3 c-2.8,3.8-7.5,7.4-7.9,11.4C910.1,457.4,910.9,468.5,910.9,479.5z"></path> <path style="fill:#FFFFFF;" d="M529.8,543.6c0-14.1,0-26.3,0-39.5c5.1,0.8,9.7,1.5,14.8,2.2c0-23.4,0-46.3,0-70.1 c-3.3-0.8-6.9-1.8-11.3-2.9c0-10.6,0-21.5,0-34.2c22.9,0,45.4-0.9,67.7,0.7c4.9,0.4,9.7,9.7,13.4,15.6c2.2,3.4,3,8.2,3,12.4 c0.4,31.8,1.9,63.6-0.1,95.3c-0.9,14.5-14.7,20.5-29.3,20.5C569,543.7,550,543.6,529.8,543.6z M569.3,437.9 c1.3,23.3,2.5,45.7,3.7,68.1c1.4,0.5,2.8,1.1,4.3,1.6c3.6-7.2,9.1-14.1,10.3-21.7c1.7-11.6,0.7-23.7,0.3-35.5 C587.6,439.3,582.3,434.3,569.3,437.9z"></path> <path style="fill:#FFFFFF;" d="M503,399.8c-3.2,15.1-6.1,27.5-8.3,40.1c-0.6,3.3,0.6,6.9,1.5,10.3c3.8,15.4,7.3,30.9,12,46.1 c1.8,5.7,6.3,10.6,9.6,15.8c1-0.5,2-1,3-1.4c0,10.5,0,20.9,0,32.2c-17.2,0-33.9,0-51.8,0c0-9.5,0-19.4,0-24.8 c4.5-6.9,6.9-10.6,9.4-14.4c-6.3-1.6-13.1-5.4-18.8-4.2c-6.3,1.3-5.5,6.4-2.1,13.1c3.8,7.5,2.3,17.6,3.2,27.6c-15.9,0-30.2,0-45.9,0 c0.8-10.8-2.8-20.7,7.1-31c6.4-6.7,6.2-19.8,8.8-30c3-12,6.2-23.9,8.4-36.1c0.6-3.3-2.6-7.2-3.5-10.9c-0.9-3.6-1.6-7.4-1.4-11 c0.4-7,1.5-13.9,2.3-21.2C457.8,399.8,478.5,399.8,503,399.8z M473.5,476.8c-2.3-10.1-4.4-19-6.4-27.9c-1,0-2.1,0-3.1,0.1 c-2.1,9-4.2,18-6.5,27.8C462.9,476.8,467.2,476.8,473.5,476.8z"></path> <path style="fill:#FFFFFF;" d="M748,398.2c0,10.4,3.8,22.6-0.7,29.2c-15.3,22.3-2.9,46-7.1,68.6c-0.2,1.2,0.4,2.5,0.8,4.5 c5.5,0,11,0,17.2,0c0.4-4.6,0.7-8.9,1.2-15.3c6.8,1,13.3,1.9,20.2,2.9c0,19.3,0,37.7,0,57.3c-25.7,0-51.6,0-78.5,0 c0-14.2,0-29,0-44.5c2.3,0,5.4,0,10.8,0c-1.3-21.3,0.9-43.2-5.2-62.5c-4.2-13.5-8.9-25.3-5.6-40C716.3,398.2,731.2,398.2,748,398.2z "></path> <path style="fill:#FFFFFF;" d="M688.6,541c-19.8,0-38.6,0-59,0c0-11.7-0.8-22.7,0.4-33.4c0.4-3.4,6-6.2,10.8-10.8 c0-15.7,0-34.1,0-53.4c-5.1-0.4-9.7-0.7-15.5-1.1c0-11.6-0.7-22.6,0.4-33.4c0.3-3.1,5.6-7.9,8.8-8.1c17.7-0.8,35.4-0.4,54.2-0.4 c0,13.3,0,25.8,0,39.2c-4.7,0.4-9,0.7-14.4,1.1c0,18.6,0,37.2,0,56.9c4.1,0.5,8.8,1,14.2,1.7C688.6,512.8,688.6,526.3,688.6,541z"></path> <path style="fill:#FFFFFF;" d="M827.3,500.9c7.9,0,12.7,0,18.3,0c0.8-3.3,1.5-6.5,2.3-9.8c5.7,0,10.9,0,16.8,0c0,18.3,0,36.1,0,54.6 c-24.3,0-48.1,0-73.9,0c0-13.3,0-26.7,0-40.2c0-0.4-0.1-1.1,0.1-1.3c21.6-13.1,5.9-33.9,10.3-50.5c1.4-5.4,0.4-11.4,0.1-17.1 c-0.1-2.5-0.3-5.6-1.7-7.4c-9.7-12.4-9.8-12.4-7.7-30.6c13.9,0,27.9,0,43.9,0c-3.1,10.3,7.2,22.7-7.8,30.6c-0.7,0.4-0.8,2.4-0.8,3.7 C827.3,455.3,827.3,477.6,827.3,500.9z"></path> <path style="fill:#FFFFFF;" d="M467.9,563.7c0,16.2,0,30.2,0,45.2c-8.8,0-17,0-25.9,0c-0.3-2.8,0.4-6.4-1.2-8.5 c-3.2-4.2-7.5-7.6-11.4-11.3c-3.1,3.8-8.9,7.7-8.7,11.3c0.3,5,4.8,9.9,8.1,14.4c0.9,1.2,4.2,0.4,6.4,0.6c24,2.7,35.2,15.6,32.7,37.6 c-2,17.4-19.4,29.5-39.1,28.8c-11.2-0.4-22.4,1.6-35.6,2.7c0-7.6,0-14.5,0-21.4c0-6.5,0-13.1,0-20.5c9.5,0,18.2,0,28.2,0 c0.3,1.1,0.2,3.7,1.4,4.8c3.3,2.8,7.2,5,10.9,7.4c2.5-3.7,7.2-7.7,6.7-11c-0.4-3-6.5-5.2-10.1-7.6c-0.6-0.4-1.7-0.1-2.6-0.1 c-22.6,0-29.3-3.8-33.9-19.2c-5.4-17.8,0.6-38,15.3-47c5.2-3.2,12.4-4.5,18.7-4.4c6.5,0.1,12.9,4.3,19.3,4.2 C453.2,569.6,459.4,566.3,467.9,563.7z"></path> <path style="fill:#FFFFFF;" d="M750.6,562.6c6.4-2.7,11.4-4.9,18-7.7c0,17.7,0,32.9,0,48.9c-7,0-13.9,0-21.8,0 c-1.9-7.3,2.6-21.5-11.9-19.1c-13.1,2.2-7.2,14.5-8.3,23.7c9.3,1.3,18,2.3,26.6,3.9c3.8,0.7,7.9,2.2,10.7,4.6 c6.8,6,8.2,39.9,2.6,49.4c-8.4,14.2-20.7,18.3-38.4,12.7c-1.2-0.4-2.8-0.6-3.9-0.2c-6.4,2.4-12.6,5-20.7,8.3c0-17.8,0-32.1,0-47.6 c10.4,1.4,23.3-7,28.1,10.4c0.4,1.4,8,2.7,10.3,1.1c3-2,5.2-6.8,5.7-10.7c0.2-1.8-3.9-4.7-6.6-6.3c-1.7-1-4.3-0.2-6.6-0.2 c-26.4-0.3-37.8-14.2-33.4-40.6c0.3-1.7,0.8-3.4,1.1-5.2C708.5,556.8,724.5,549,750.6,562.6z"></path> <path style="fill:#FFFFFF;" d="M232.5,601.5c-11.7,0-19.6,0-27.6,0c-0.2-1.7-0.6-3-0.3-4.2c1.3-6.5,4.3-14.6-5.6-15.8 c-9.1-1.1-11.3,6.2-11.2,14.2c0.2,14.1-0.5,28.3,0.3,42.4c0.4,5.9,3.7,11.6,5.7,17.4c1.4,0,2.8,0,4.2,0.1c2.8-4.5,5.6-9,9.2-14.6 c-4.4-1.2-7.5-2.1-10.9-3c0-6.1,0-12.2,0-19.2c11.9,0,23.7,0,39.6,0c-3.5,8.6-6.7,15.8-9.2,23.2c-1.2,3.6-1.4,7.7-1.4,11.6 c-0.3,30.2-0.8,30.8-31.5,30.6c-4.6,0-9.4-0.7-13.6-2.2c-14.9-5.2-17.4-16.4-16.6-30.9c1.2-22.9,0.3-45.9,0.4-68.9 c0.1-16.6,5.9-22.2,22.1-22.7c6.9-0.2,14-2.8,20.7-2c5.3,0.6,12.9,3.5,14.7,7.5C226.2,576,228.6,588.1,232.5,601.5z"></path> <path style="fill:#FFFFFF;" d="M258.2,681.5c-16.4-32.7-21.8-65.4-11.5-99.8c5.8-19.6,5.7-19.6,26-19.6c4,0,8.1,0.5,12-0.1 c12.7-2,19,5.6,19.7,15.9c2,29.3,3.3,58.8,3,88.1c-0.1,10.1-9.9,14.8-19.9,15.3C277.8,681.9,268,681.5,258.2,681.5z M283.8,619.1 C283.8,619.1,283.7,619.1,283.8,619.1c-0.1-7.9,0.7-15.9-0.5-23.7c-0.5-3.1-5.2-7.1-8.6-7.8c-2.6-0.5-8.7,3.5-8.8,5.6 c-0.6,16.6-0.6,33.4,0.5,50c0.2,3.2,6.2,6.1,9.6,9.1c2.6-3.6,6.9-7,7.6-11C284.7,634.2,283.8,626.6,283.8,619.1z"></path> <path style="fill:#FFFFFF;" d="M351.1,654.9c8.5-0.8,17.5,4.3,21.8-7.6c0.8-2.1,6.7-2.4,11.4-3.9c0,13.2,0,24.8,0,37.3 c-23.2,0-46.5,0-70.8,0c0.1-10.5-4.5-22.5,13-24.3c0-13.2,0.5-26-0.3-38.8c-0.2-4.3-3.5-8.3-5.4-12.5c-1.7,0.2-3.3,0.5-5,0.7 c0.9-11.7,1.8-23.3,2.7-35.6c24.4,0,47.7,0,70.5,0c-2.8,13.8-5.5,27.4-8.4,41.7c-3.5,0-7.8,0-12.9,0c-0.7-2.9-1.5-6.1-2.3-9.5 c-5.7,0-10.8,0-16.8,0c0,5.1,0,9.7,0,14.8c6.5,1.3,12.9,2.6,22.5,4.6c-6.4,7.8-11.6,14.1-16.8,20.4c-1.1-0.7-2.2-1.4-3.2-2.1 C351.1,644.4,351.1,648.7,351.1,654.9z"></path> <path style="fill:#FFFFFF;" d="M838.5,647c0,9.7,0,19.8,0,30.9c-15.4,0-30.7,0-47.7,0c0-8.4-0.1-17,0.1-25.7c0-1.6,0.7-3.4,1.7-4.6 c2.8-3.2,8.3-6,8.4-9.1c0.4-15.3-0.6-30.7-1.2-46.1c0,0-0.8,0-2.7,0c-0.7,6-1.5,12.2-2.4,19.3c-5.3,0-10.4,0-16.5,0 c-1.4-15.6-2.8-31.6-4.4-49.5c14.7,0,27.9,0,41,0c12.8,0,25.7,0,39.6,0c-1.9,16.1-3.8,31.2-5.7,47c-3.9,0-7.6,0-11.3,0 c-1.3-6.3-2.5-12.3-3.7-18.3c-1.8,0.2-3.7,0.5-5.5,0.7c0,16.3-0.4,32.6,0.4,48.9C828.9,642.6,834.9,644.6,838.5,647z"></path> </svg> 