<?xml version="1.0" encoding="UTF-8"?> <svg xmlns="http://www.w3.org/2000/svg" xmlns:xlink="http://www.w3.org/1999/xlink" version="1.1" id="Layer_1" x="0px" y="0px" viewBox="0 0 1000 1000" style="enable-background:new 0 0 1000 1000;" xml:space="preserve"> <path style="fill:#FFFFFF;" d="M36.7,325.6c1.1-3.5,3.3-7.1,3.2-10.5c-0.4-11,6.6-18.5,13.3-24.7c13.1-12.1,29-20.5,45.2-27.4 c8-3.4,17.6-3.7,26.5-4.4c14-1.1,28.2-1.5,42.3-1.8c7.2-0.2,14.5,0.5,21.7,0.5c8,0,16.1-0.2,24.1-0.7c24-1.5,40.7,4.1,60.1,16.5 c6.8,4.3,10.5,10.6,12.8,17.8c6.2,19.6,12.1,39.3,18.5,58.9c1.6,4.8,4.8,9.1,7.7,14.4c3.4-6.9,6-12.5,8.9-17.9 c10.7-20.5,26.1-38.4,34.2-60.4c1.7-4.6,3.3-9.2,5.6-13.4c8.1-14.9,27.7-23.3,44-19.2c3.6,0.9,7.3,1.4,11,1.6 c9,0.3,14,6.5,17.3,13.2c5.7,11.5,5.5,24,3.1,36.4c-0.2,1-0.1,2-0.1,2.9c-1.1,31.5-2.2,63-3.4,94.5c-0.8,20.9-2.4,41.8-2.7,62.7 c-0.1,7.9,2.4,15.9,4.9,23.6c-0.3-3.2-0.6-6.4-0.9-9.5c0.3-0.1,0.6-0.2,1-0.3c2.6,8.6,5.3,17.2,8.3,27.3c-1,1.9-2.3,6.5-5.2,9.1 c-3.3,2.9-8,4.9-12.3,5.6c-13.4,1.9-26.9,1.4-39.8-3.4c-4.3-1.6-7.9-3.9-8-10.4c0-10.2-0.3-21-3.5-30.6c-3.7-11.1-1.9-21.9-2-32.7 c-0.1-18.8,1.4-37.6,2.2-56.4c0.4-8,0.6-16,1.2-24c0.4-5.4,1.4-10.8,1.8-16.2c0.3-3.4,0.1-6.9,0.1-10.3c-0.5-0.3-1-0.7-1.4-1 c-1.6,1.7-4.3,3.2-4.7,5.1c-4.3,18.4-8,37-12.5,55.3c-3.1,12.9-7.2,25.6-11,38.3c-3.3,11.1-12.3,15.5-22.5,17.3 c-9.9,1.8-20,1.5-29.6-1.6c-11.5-3.7-18.1-11.8-20.7-23.6c-4.5-19.8-9.5-39.4-14.4-59.1c-1.8-7.1-3.6-14.2-5.9-21.2 c-0.9-3-2.9-5.6-4.7-8.9c0.9,19.9,2.8,38.8,2.3,57.7c-0.5,17.9-1.8,36.1-6,53.4c-4.7,19.5-12.3,38.8-28.7,52 c-7.4,5.9-16.3,10.3-25.1,14.1c-19.8,8.6-41.1,7.6-61.9,6.5c-17.6-1-34-6.9-46.7-20.1c-8.5-8.8-13.4-19.4-15.1-31.4 c-0.3-1.9,0.9-4.1,1.5-6.1c0.5-1.5,1.3-3,2.4-5.5c-2.8,1.8-4.4,2.8-6,3.9c0.3-3.4-0.3-6.7,1-8.8c1.9-3,4.9-6,8.1-7.6 c9.6-4.8,19.7-6.9,30.6-3.8c6.1,1.7,12.7,1.8,18.6,3.7c4.4,1.4,5.9,5.4,5,10.4c-0.9,4.8-0.8,9.7-1.3,14.6c-0.2,2.1-1,4.2-1.2,6.3 c-0.2,1.3-0.3,3.2,0.4,3.9c5.3,5.4,9.4,12.7,17.6,14.2c7.3,1.3,14.9,1,20.7-4.1c9.4-8.2,15.4-18.5,19-30.6c6.5-22,8.2-44.5,7.9-67.2 c-0.2-18.2-0.3-36.5-2.5-54.4c-1.5-12.1-5.6-24.4-10.8-35.5c-3.9-8.3-11.4-14.6-21.2-17.2c-13-3.6-25.8-3.9-38,2.5 c-13.2,6.9-20.3,18.5-22.7,32.8c-2.6,15.5-1.7,30.8,7.6,44.4c3.9,5.7,6.5,12.8,15.5,12.8c2.5,0,5,2.7,7.6,3.5 c5.6,1.7,10.2-1.6,13.8-4.7c4.3-3.7,10.9-6.1,11.4-12.9c0.3-3.8,0.8-9.2-1.4-11.1c-2.2-2-7.6-1.4-11.3-0.7 c-3.9,0.8-7.4,3.3-11.3,4.7c-5.9,2.1-9.7,0.6-10.6-5.7c-1.1-7.7-1.5-15.7-1-23.4c0.4-6.1,1.9-12.5,4.6-17.8 c1.7-3.4,6.5-6.7,10.3-7.2c17.4-2.3,30.4,4.7,38.5,21.7c7.7,16.2,7.9,32.4,3.3,48.7c-3.9,13.7-13.8,23.2-27,29 c-15.8,6.9-32.1,6.8-48.3,3.1c-10.3-2.4-21.2-4.9-30.2-10.1c-12.9-7.5-23.6-18.2-28.2-33.1c-2.5-8.1-3.5-16.7-5.1-25.1 C36.7,332.7,36.7,329.1,36.7,325.6z"></path> <path style="fill:#FFFFFF;" d="M380.5,713.7c-7.3-2.6-15.1-4.4-21.8-8c-13.1-6.9-23.2-24.6-18.4-39.9c5.2-16.4,16-22.4,35.3-18.6 c-5.4-4.2-10.3-7.3-14.5-11.4c-6.2-6.1-13.8-11.8-17.3-19.3c-5.8-12.3-7.3-25.9,0-38.8c1.9-3.4,3.5-7.5,6.4-9.8 c4.3-3.3,7.4-7.3,11.1-10.9c4.2-4.1,11.5-5.9,17.8-6.7c16.3-2.3,32,3,48,5.3c4.9,0.7,4.9,2.8,2.7,6.9c9.5,2.3,11.3,10.6,14.1,18 c3.1,8.5-2.5,19.5-11.9,22.7c-5.7,1.9-11.6,4.5-18.2,1.8c-6.2-2.6-9.2-7.3-11.1-13.4c-3.5-10.9-12.2-13.3-19.2-5.2 c-1,1.2-2,3.2-1.8,4.6c1.4,8.6,5.6,15.5,14.3,18.3c9,2.9,18,5.8,27.1,8c8,1.9,12.7,7.6,17.1,13.5c11.3,15.1,10.5,32.4,7.6,49.5 c-2,12.1-14.8,26.8-29,29.3c-5.7,1-11.3,2.8-17,4.2C394.7,713.7,387.6,713.7,380.5,713.7z M373.2,678.5c7.7,8.2,22.6,8.2,30.9,0.1 c-2-1.7-3.9-3.4-5.8-5c4.6-9.3,4.8-11.4-1.3-16.4c-4.9-4-10.9-6.9-16.8-10.6c-0.5,5.7,0.4,10.5-1.4,13.6c-3,5-5.4,9.1,0.4,14.1 C376.6,676,374.9,677.2,373.2,678.5z"></path> <path style="fill:#FFFFFF;" d="M693.2,380.6c-1.6,18.6-2.7,34-4.2,49.4c-0.9,9.7,4.2,17.2,13.9,19c5.5,1,6.7,2.7,6.3,8.9 c-0.8,11.9-4.7,22.8-7.8,34c-2.2,8.1-7.8,14-13.2,20.3c-5.5,6.5-11.6,8.8-19.4,8.2c-2.6-0.2-5.3-0.9-7.8-1.8 c-12.8-4.7-22.5-11.9-25.4-26.5c-3-14.7-1.9-29.1-0.2-43.7c1.3-11.6,2.4-23.3,2.6-35c0.2-9.8-6.2-13.9-15.7-11.3 c-13.8,3.8-22.6,14.6-23.8,28.5c-0.9,10.9-2.1,21.7-3.1,32.6c-0.1,1,0.5,2.1,1,3c0.6,0.9,2.2,1.7,2.2,2.5 c-0.6,8.1,5.6,13.2,9.1,19.3c4.6,8.1-0.2,15.3-0.9,22.8c-0.1,1.4-3.6,3.1-5.7,3.5c-13.8,2.9-27.6,4.1-41.3-0.3 c-4.4-1.4-9.1-1-12.9-5.6c-3.3-4-3.9-8.1-4.1-12.2c-0.5-12.4,0.8-25-0.4-37.3c-2-20.1,1.9-39.9,2.6-59.8c0.4-11.3,2.5-22.5,0.6-33.7 c-1.6-9.2-4.1-18.2-5.9-27.3c-1.5-7.4,0.9-12.3,8.3-14.3c12.1-3.4,24.4-4.3,36.5,0.4c8.8,3.5,14.4,9.9,16.5,19.3 c1.3,5.7,2.9,6.3,7.1,2.5c19.2-17.2,41.7-19.4,65.4-12.9c8.7,2.4,12.7,11.3,15,19.1C691.4,362.2,692,373,693.2,380.6z"></path> <path style="fill:#FFFFFF;" d="M951.4,650.5c-1.8,1.6-5.3,3.8-1.4,7.7c2.8,2.8,7.4,2.1,10.6-1.4c0.8-0.8,2.8-1.9,3.1-1.6 c1.1,0.9,2.4,2.6,2.3,3.7c-1.8,13.8-1,28.1-10.3,40.1c-9.6,12.4-30.2,14.5-42,3.9c-3.9-3.5-7-3.6-11.1,0.2 c-7.6,6.9-17.3,7.3-26.7,6.1c-15.6-1.9-26.9-10-35.7-23.4c-12.4-18.9-14.3-39.9-14.5-61.1c-0.1-15.4,5.2-30,13.7-43.3 c2.4-3.8,3.5-8.5,5.5-12.6c0.9-1.9,2.1-3.8,3.8-5c13.7-10,28.5-16.5,45.9-14c1.6,0.2,3,1.3,4.5,2.2c5.1,3,8.1,1.4,8.4-4.5 c0.6-13.8-0.4-27.4-4.7-40.6c-1.8-5.7,0.8-10.9,6.8-14.3c11.6-6.5,30.7-3.1,39.6,6.3c4.9,5.1,2.8,11.2,2.8,16.6 c0.3,26.3-0.1,52.6-0.6,78.8c-0.3,15.1-1.2,30.1-1.6,45.2C949.8,642.7,950.7,645.9,951.4,650.5z M902.9,653.7c-2.5-2.7-6.9-3.9-4-9 c2.2-3.9,4-8.6,4.2-13.1c0.3-10.3,1-20.9-4.6-30.3c-2.3-4-5.3-7.4-10.6-7c-5.2,0.4-8.1,3.9-9.8,8.2c-5,13-6.7,26.1-0.7,39.3 c2,4.4,3.2,8.9-2,12.1C882.4,662.4,895.5,662.3,902.9,653.7z"></path> <path style="fill:#FFFFFF;" d="M805.2,596.2c-1.2,15.8-2.3,27.1-2.9,38.4c-0.2,3.6,0.7,7.4,1.6,10.9c1,4.1,3.9,6.2,8.3,6.1 c5.2-0.2,6.8,2.5,6.7,7.4c-0.4,12.7-2.7,25.1-8.6,36.1c-11.5,21.4-37.7,19.4-47.9,5.6c-5.1-6.8-7.4-17.1-7.6-25.8 c-0.3-15.2,2.3-30.4,3.1-45.6c0.6-11.4-6.9-17.3-16.7-13.2c-4.5,1.9-9.7,6.9-10.6,11.3c-2.8,13-5.7,26.5-2,39.9 c2.2,7.8,4.3,15.7,7,23.4c3.2,9.3-1.2,17-11.4,18.1c-12.2,1.3-24.4,0.6-35.9-4.2c-4.8-2-8.1-4.9-8.2-10.9 c-0.2-11.3-1.8-22.6-1.4-33.9c0.5-15.6,2.8-31.2,3.5-46.8c0.5-10.9-0.3-21.9-1-32.8c-0.4-5.8-2.1-11.5-2.7-17.3 c-0.7-6.2,4.2-13.1,10.7-15.3c12.3-4.1,23.9-0.3,34.6,5.2c7.1,3.6,7.7,17,2.4,23.7c-1.1,1.4-2.4,4.6-1.9,5.2 c1.4,1.5,4.2,2.9,5.9,2.5c2.8-0.7,6.8-2.4,7.6-4.6c7.1-21.4,25.6-23,43.5-25.2c6.4-0.8,16,7.1,18.3,15.2 C802.3,579.6,803.9,590,805.2,596.2z"></path> <path style="fill:#FFFFFF;" d="M611.7,697.8c-2.1,1.5-4.1,2.5-5.5,4c-10,11.3-30.1,10.4-41.2,4.9c-22-11-30.5-30.8-34.1-53.6 c-1.3-8.1-3-16.4-2.4-24.5c1.2-15.8,2.2-31.9,11.5-45.7c0.5-0.8,1.3-1.8,1.2-2.6c-1.6-9.4,6.6-12.4,11.4-17.8 c10.5-11.8,23.7-16.7,39.2-16.7c12.6-0.1,22.2,5.2,29.1,15.5c3.7,5.5,6.4,11.7,10.6,16.8c2.6,3.2,6.7,6,10.7,7.2 c7.1,2.2,11.1,5.6,12.9,13.3c2.1,8.7,1.1,16.8,0.3,25.3c-0.8,8.3-0.2,16.7-0.2,26.3c-1,0.6-2.8,1.7-4.4,2.6c4,7.8,7.6,8.5,13.1,3.5 c3.3-3,7-2.5,6.9,1.2c-0.4,15.7-1.7,31.3-12.6,44.1C647.4,714.7,620.3,713.5,611.7,697.8z M607.6,627.6c-2.2-8.2-3.7-16.7-6.9-24.5 c-3.9-9.5-13.9-11.5-18.3-4.3c-7.9,13-7.9,27.2-4.1,41.2c2.5,9.2,12.6,13.4,18.2,8.2C602.4,642.9,606.6,636.4,607.6,627.6z"></path> <path style="fill:#FFFFFF;" d="M782.7,444.6c-3.1,1.3-5.4,2.2-9,3.6c1.9,2.4,3,4.7,4.9,5.9c11.1,6.8,23.4,7.2,35.8,5.3 c7.5-1.1,14.9-2.9,22.4-4c8.6-1.3,12.9-6.3,12.7-15.4c0-0.7,0.5-1.3,1.5-3.5c1.2,3,2.4,4.7,2.6,6.5c0.6,6.9,1.5,13.9,1.3,20.8 c-0.5,18.6-5.2,35.9-22.1,46.4c-6,3.7-13.9,5.4-21.1,6.2c-10.1,1-20.4,0.5-30.7,0.2c-3.2-0.1-6.9-0.7-9.5-2.5 c-9.8-6.7-19.8-13.3-28.7-21.1c-4-3.5-5.7-9.7-8.4-14.7c-2.4-4.3-5.4-8.3-6.9-12.8c-2-5.8-3.2-12-4-18.1c-1.3-9.5-2.5-19-2.7-28.6 c-0.4-13.9,2.5-27.2,7.7-40.4c4.7-12,11.8-22.3,18.8-32.7c9.1-13.5,23.6-16.6,38.5-18.7c16.1-2.2,28.3,4,39.3,15.5 c7.6,7.9,15.1,15.8,16.7,26.7c0.9,6.4,0.2,14-2.5,19.8c-7.3,15.6-20,26.4-35.8,33.1c-7.4,3.1-14.9,5.9-22.2,9.2 c-2.1,0.9-4.6,3.2-4.9,5.1c-0.2,1.7,2.5,3.7,4,5.6C780.8,442.6,781.5,443.3,782.7,444.6z M796.6,394.7c0.6-0.8,1-1.2,1.3-1.7 c3.4-4.1,4.6-8.7,0.9-12.8c-3.4-3.8-7.8-4.2-12.8-1.8c-10.6,5.1-14.9,13.8-16,24.8c-0.2,1.6-0.8,3.2-1.1,4.8 c-0.5,2.5-1.1,4.9-1.6,7.4c2.7,0.5,5.8,2.2,8,1.3c6.7-2.6,13.1-5.9,19.3-9.3C801.2,403.7,801.5,400.8,796.6,394.7z"></path> <path style="fill:#FFFFFF;" d="M272.5,530.5c-4.6,6.2-9.6,12.2-13.5,18.8c-4.4,7.3-8.6,8.3-14.6,2.2c-8.2-8.4-8.5-10.1-3.6-21.1 c2.1-4.8,3.8-9.8,6.3-14.4c4.9-8.9,12.8-14.8,22.7-16.4c10.2-1.6,20.8-2.5,31-1.5c10.5,1.1,16.8,7.2,20.3,18.8 c7.8,25.4,3.4,51,4.1,76.5c0.2,6.1,0,12.2-0.5,18.3c-1,11.9-2.7,23.8-3.3,35.8c-0.3,5.9,1.3,11.9,1.4,17.9 c0.1,6.4-0.2,12.9-0.9,19.3c-0.6,5.2-0.4,9.7,2.7,14.3c4.7,7,3.1,9.8-5.2,10.8c-6.2,0.8-12.4,2.5-18.5,2.3 c-14.5-0.5-27.6-18.8-25-32.7c1.1-6-0.1-12.4-0.1-18.6c0.1-21.6,0.1-43.2,0.4-64.8c0.2-19.4,0.8-38.8,1-58.3c0-2.2-1.4-4.5-2.2-6.7 C274.2,530.9,273.4,530.7,272.5,530.5z"></path> <path style="fill:#FFFFFF;" d="M530.5,456.3c-4.9,0.4-6,3.5-6.1,7.5c-0.1,5.9-1.1,11.8-0.7,17.6c0.7,11.1-5.9,19.1-11.3,27.3 c-2.4,3.7-8.3,6.4-13,7.2c-10.5,1.8-21.1,2.6-31-3.9c-6.6-4.4-10.2-10.2-10.9-17.7c-1.4-15.5-2.8-31-3.3-46.6 c-0.2-7.5,1.9-15,2.3-22.5c0.8-13.2,1.3-26.5,1.8-39.7c0.3-9.4-1.6-17.6-12.1-20.7c-1-0.3-1.7-1.3-3.3-2.6c2.2-0.6,3.8-0.7,5-1.5 c2.8-1.7,6-3.3,8-5.8c1.9-2.4,2.5-5.5,6.9-4.4c1.6,0.4,3.8-1.6,5.7-2.5c10.4-4.8,20.6-4,30.7,1.1c1.9,1,3.7,2.5,5.7,3 c7.1,1.7,8.5,7.1,8.4,13.1c-0.1,7.2-0.6,14.3-1.4,21.5c-1.6,15.1-3.5,30.2-5.2,45.4c-1,9.3,0.9,10.8,9.6,13.9 C521.6,447.7,529.9,446.5,530.5,456.3z"></path> <path style="fill:#FFFFFF;" d="M519,655c0.6,2,1.9,4.1,1.6,5.9c-1.5,9.4-2.7,18.9-5.2,28c-5.1,18.3-22.6,24-39.4,18.6 c-10.9-3.5-15.5-11.7-16.2-22.5c-0.8-12.9-2.3-25.7-2.1-38.6c0.3-13.7,2.9-27.3,3.4-41c0.4-11.7-0.4-23.5-1.4-35.2 c-0.4-4.8-2.9-9-1.2-14.5c1.8-5.6,5.5-7.6,9.8-8.1c11.2-1.4,22.3,0.2,32.7,4.9c1.4,0.6,2.4,2.6,3,4.2c6.9,17.8,4.4,36.2,2.8,54.4 c-0.8,8.5-2.4,16.9-3.3,25.4c-0.2,2,0.2,4.5,1.3,6.2c2.3,3.7,4.8,6.9-0.9,10c-0.5,0.3,0.2,5,1,5.2c2.9,0.8,6.2,0.9,9.2,0.6 c1.1-0.1,2-2.2,2.9-3.4C517.6,655.2,518.3,655.1,519,655z"></path> <path style="fill:#FFFFFF;" d="M484.1,332.3c-20,1.6-27.8-15.6-25.2-31.4c0.8-4.8,1.8-9.8,4.1-14c6.4-11.3,20.4-16.6,33.2-13.4 c9,2.3,15,8.5,15.4,17.8c0.3,8.5-0.4,17.2-1.5,25.6c-0.9,6.6-12.5,14.9-20,15.3C488,332.4,486,332.3,484.1,332.3z"></path> </svg> 