<?xml version="1.0" encoding="UTF-8"?> <svg xmlns="http://www.w3.org/2000/svg" xmlns:xlink="http://www.w3.org/1999/xlink" version="1.1" id="Layer_1" x="0px" y="0px" viewBox="0 0 1000 1000" style="enable-background:new 0 0 1000 1000;" xml:space="preserve"> <path style="fill:#FFFFFF;" d="M27.7,510.1c0.3-5.3,0.5-10.6,0.7-15.9c1-21.6,1.9-43.1,2.9-64.7c0.2-4.5,1.5-5.8,6-6 c23.5-1.3,47.1-2.4,70.6-0.5c9,0.7,18.1,2,26.4,6.2c12.3,6.2,13.7,18.8,3.1,27.5c-6.5,5.3-14.3,7.5-22.4,8.9 c-1.8,0.3-3.5,1.1-5.2,1.7c0,0.5,0.1,1,0.1,1.5c1.8,0.5,3.6,1,5.4,1.4c6.8,1.7,13.7,2.9,20.2,5.1c3.9,1.4,7.7,3.9,10.9,6.7 c8.5,7.5,8.2,19.4-0.2,26.9c-6.9,6.1-15.2,9.6-24.2,10.9c-10.2,1.4-20.6,2.5-30.9,2.6c-18.9,0.1-37.8-0.7-56.7-1 c-3,0-5.1-1.1-6.5-3.7C27.7,515.2,27.7,512.6,27.7,510.1z M83.4,503.1c0,0.2,0,0.4,0.1,0.5c8.3-0.7,16.7-1,25-2.3 c3.8-0.6,7.6-2.4,10.8-4.5c5.4-3.4,5.2-9.2-0.1-12.8c-1.7-1.2-3.7-2.2-5.7-2.5c-10-1.6-20-3.1-30-4.2c-6.2-0.6-12.6-0.6-18.8-0.3 c-4.6,0.2-6.7,3-6.9,7.7c-0.1,2.5-0.1,5.1,0,7.7c0.1,6.5,2.6,9.2,9.2,9.7C72.4,502.7,77.9,502.9,83.4,503.1z M83.8,440 c0,0.3,0,0.6,0,1c-5.2,0-10.5,0-15.7,0c-0.7,0-1.4,0-2.1,0.1c-3,0.3-5.8,0.8-7.5,3.7c-4.1,7.2,0.2,15.2,8.4,14.9 c11.9-0.5,23.7-1.4,35.5-2.8c4-0.5,8.1-2.2,11.6-4.3c3.7-2.3,3.2-6.2-0.7-8.3c-2.1-1.1-4.5-2.1-6.9-2.3 C98.9,441.1,91.4,440.6,83.8,440z"></path> <path style="fill:#FFFFFF;" d="M370.1,557.4c0.8-0.5,1.6-1.4,2.5-1.4c17.2-1.5,34.4-2.9,51.6-4.2c19.5-1.5,39.1-2.9,58.6-4.2 c21.6-1.4,43.3-2.8,65-3.9c25.2-1.3,50.3-2.6,75.5-3.5c62.7-2.4,125.5-3.7,188.2-1.9c33.3,0.9,66.6,3.2,99.9,5.5 c16.1,1.1,32.1,3.9,48.2,5.9c0.7,0.1,1.3,0.3,1.9,0.5c0,0.3,0,0.7,0,1c-1.3,0-2.7,0-4,0c-54.4-0.5-108.7-1.4-163.1-1.3 c-85.2,0.1-170.3,0.6-255.5,1.6c-42.8,0.5-85.6,2.5-128.4,3.9c-11.2,0.4-22.4,1-33.6,1.5c-1.1,0.1-2.3,0.4-3.4,0.6 C372.4,557.4,371.2,557.4,370.1,557.4z"></path> <path style="fill:#FFFFFF;" d="M724.4,477.2c1-19.2,1.8-33.7,2.6-48.2c0.2-3.9,1.5-5.5,5.2-5.5c19.9-0.1,39.9-0.9,59.8,0.3 c19.2,1.1,36.7,8.1,48.6,24c11.5,15.3,13.2,32.5,4.7,49.9c-4.9,9.9-14,15.6-24.2,19.5c-11.4,4.4-23.3,5.4-35.4,5.3 c-18.7-0.2-37.3-0.7-56-1.2c-4.8-0.1-6.3-1.6-6.2-6.3C723.8,500.8,724.2,486.7,724.4,477.2z M778.4,500c0,0.2,0,0.3,0,0.5 c1.9,0,3.7,0,5.6,0c8.2,0,16.3-1,23.9-4.4c10.6-4.7,15.5-14.2,13.2-25.5c-2-10.3-8.3-17.2-17.5-21.7c-13.6-6.7-28.1-5.8-42.5-4.5 c-4.6,0.4-7.9,4.5-8,9.6c-0.2,11.7-0.3,23.4,0,35.2c0.1,6.2,3.7,10,9.9,10.7C768.1,500.4,773.3,500,778.4,500z"></path> <path style="fill:#FFFFFF;" d="M672.6,477.4c1.5,0.4,2.9,1,4.4,1.2c12.5,2.3,23.8,6.6,31.6,17.4c4.3,5.9,6.4,12.5,6.7,19.8 c0.1,3.7-1.1,5.4-4.8,5.5c-8,0.2-16.1,0.1-24.1,0c-2.6,0-4.4-1.5-4.6-4.3c-1-11.9-7.8-20.1-17.4-26.3c-8.4-5.4-17.7-8.1-27.8-8 c-6.8,0-10.6,3.6-10.1,10.4c0.6,7,1.9,14,3.1,21c0.9,5.4,0,7.2-5.6,7.4c-7.4,0.3-14.9,0.3-22.3,0c-4.4-0.2-5.7-1.9-5.6-6.3 c0.8-23.3,1.7-46.6,2.6-69.9c0.2-5.7,0.5-11.4,0.9-17c0.2-3.6,1.6-5.1,5.2-5.2c23.1-0.1,46.2-0.5,69.2,0.2c8.1,0.3,16.3,2.8,24,5.4 c8.1,2.8,14,8.4,14.6,17.7c0.6,10.4-5,17.3-13.4,22.3c-6,3.6-12.6,5.3-19.5,6.1c-2.3,0.3-4.6,0.7-6.9,1.1 C672.7,476.3,672.6,476.9,672.6,477.4z M649.3,440.6c0,0.3,0,0.7,0,1c-5,0-10-0.2-15,0.1c-6.1,0.4-8.2,2.7-8.5,8.7 c-0.1,2.1-0.1,4.2,0,6.2c0.3,6.3,2.8,9.2,9,8.8c11.5-0.6,23-1.5,34.3-3.1c4.6-0.7,9.3-3,13.1-5.8c4.1-3,3.1-8.8-1.5-11.2 c-2.4-1.3-5.1-2.3-7.8-2.6C665,441.7,657.1,441.2,649.3,440.6z"></path> <path style="fill:#FFFFFF;" d="M522.6,522.5c-15.9-0.1-29.9-2-43.3-8c-34.1-15.2-29.8-54.4-13.3-71.1c12.6-12.8,28-19.3,45.7-20.7 c18.9-1.5,37,0.7,53.3,11.2c21.8,14,29.8,38.9,19.5,61.1c-3.6,7.7-9.8,12.9-16.9,17.1c-10.5,6.2-22.2,8.8-34.3,9.9 C529.3,522.3,525.2,522.4,522.6,522.5z M520.8,503c6.8-1.4,13.3-2,19.3-4c19.9-6.7,25.1-30.2,10.3-45.3c-7.2-7.3-16.1-10.5-26-11 c-13.6-0.7-25.7,2.5-34.7,13.5c-11.8,14.4-6.3,35.9,11.1,42.2C507.2,500.8,514.3,501.6,520.8,503z"></path> <path style="fill:#FFFFFF;" d="M925,522.5c-16.2-0.1-30.5-1.8-43.8-8.2c-27.6-13.2-34.1-48-13.2-70.4c11-11.8,24.7-18.4,40.6-20.5 c19.3-2.6,38.2-1.3,55.5,8.7c16.8,9.7,27,23.6,27,43.6c0,16.4-7.2,28.7-21.6,36.7c-10.5,5.9-22,8.6-34,9.6 C931.5,522.3,927.5,522.4,925,522.5z M923.1,503c6.8-1.4,13.3-2,19.4-4c19.5-6.6,24.9-29.8,10.7-44.8c-7.2-7.6-16.3-11-26.6-11.5 c-13.7-0.7-26,2.6-34.9,13.8c-11.5,14.5-6,35.5,11.4,41.9C909.6,500.8,916.5,501.6,923.1,503z"></path> <path style="fill:#FFFFFF;" d="M427,465.8c4.6,0,9.1,0,13.7,0c3.2,0,4.9,1.5,5.2,4.8c1.1,14.7,2.2,29.4,3.2,44.1 c0.3,5-1.2,6.6-6.2,6.6c-6.9,0.1-13.8,0-20.6-0.1c-4.4-0.1-5.9-2-5.2-6.2c0.2-1.3,0.6-2.5,0.7-3.8c0-1.2-0.3-2.5-0.5-3.8 c-1.3,0.6-2.7,1-3.9,1.7c-4.7,3-8.9,7.2-14,8.9c-20.3,6.6-40.5,6.5-59.6-4c-24.3-13.4-30.3-47.4-12.5-68.7 c11.5-13.7,26.6-20.5,44-22.5c20-2.3,39.5,0.7,58.4,7.4c6.3,2.2,7,3.6,5.9,10.1c-0.9,5.4-1.8,10.7-2.8,16.1c-0.8,4.3-3.2,5-6.8,2.4 c-5.5-4-10.9-8.7-17.1-11.3c-15.4-6.4-31.2-7.4-46.6,0.4c-13.7,7-19.4,22.7-13.8,36.8c2.2,5.5,6.3,9.3,11.5,11.7 c13.9,6.5,28.2,6.6,42.4,1.1c2.5-1,4.9-2.7,7-4.5c5.6-4.7,6.8-11.4,3.3-17.9c-0.7-1.2-1.8-2.2-2.2-3.5c-0.5-1.4-1.2-3.2-0.7-4.4 c0.4-0.9,2.4-1.6,3.8-1.7C417.9,465.7,422.4,465.8,427,465.8z"></path> <path style="fill:#FFFFFF;" d="M229.4,459.5c0.9-0.7,1.9-1.2,2.6-2c9.2-9.9,20.8-13.7,34-13.5c11.1,0.2,21.4,3,30,10.4 c7.9,6.8,12.3,15.4,12.9,25.7c0.7,11.6,1.1,23.2,1.5,34.8c0.2,4.9-1.1,6.3-6.1,6.4c-6.2,0.2-12.3,0.2-18.5-0.1 c-4-0.1-5.3-2.2-5.1-6.2c0.5-8.6,1.2-17.2,1-25.7c-0.2-16.2-12.9-26.8-29.2-25.7c-15.6,1-25.5,12-25.6,24c0,5.3,0.2,10.7,0.5,16 c0.2,3.9,0.8,7.8,1.1,11.8c0.4,4.2-0.9,5.8-5.2,6c-6.4,0.2-12.8,0.2-19.2,0c-3.8-0.1-5.3-1.7-5.2-5.5c0.7-19.2,1.5-38.5,2.4-57.7 c0.1-2.8,0.6-5.5,0.8-8.3c0.3-2.7,1.7-4.5,4.4-4.5c6.5-0.1,13-0.2,19.5,0.1c2.9,0.1,3.8,2.2,3.2,5.3c-0.6,2.7-1,5.5-1.5,8.3 C228.5,459.1,229,459.3,229.4,459.5z"></path> <path style="fill:#FFFFFF;" d="M189.5,487.3c0,6.9,0,17.4,0,28c0,4.5-1.2,5.9-5.7,6c-6,0.2-12.1,0.2-18.1-0.1 c-3.9-0.2-5.1-1.8-5-5.7c0.5-21.4,1.1-42.9,1.7-64.3c0.2-5.1,1-5.9,6.3-6.2c4.6-0.2,9.3-0.1,13.9,0c3.7,0.1,5.2,2.3,5.3,5.9 C188.4,461.9,188.9,472.8,189.5,487.3z"></path> <path style="fill:#FFFFFF;" d="M175.6,439.7c-3.2-0.6-6-0.9-8.7-1.7c-5.2-1.7-7.8-5.1-7.9-9.8c-0.1-4.1,2.9-7.9,7.9-9.5 c6-1.9,12.1-2,18,0.6c3.9,1.7,6.3,4.7,6.3,9.1c0,4.4-2.4,7.3-6.2,8.8C181.8,438.5,178.5,439,175.6,439.7z"></path> </svg> 