<?xml version="1.0" encoding="UTF-8"?> <svg xmlns="http://www.w3.org/2000/svg" xmlns:xlink="http://www.w3.org/1999/xlink" version="1.1" id="Layer_1" x="0px" y="0px" viewBox="0 0 1000 1000" style="enable-background:new 0 0 1000 1000;" xml:space="preserve"> <g> <path style="fill:#FFFFFF;" d="M391.6,374.8c-9-14.7-18.6-29.1-26.7-44.3c-2.1-3.8-1.2-10.9,1-15c10.3-19.2,21.6-37.8,33.9-59 c-22.7,0-43-0.8-63.3,0.3c-11.5,0.6-17.7-3.7-22.9-13.2c-6.7-12.3-14.8-24-22.2-35.9c-1.9-9.4,5.3-6,9.3-6 c63.7-0.1,127.5-0.1,191.2-0.1c-8.5,17.3-17.1,34.6-25.7,52.2c19.1,0,37.5,0,57,0c-10-18.5-19.1-35.3-28.2-52.2 c67.9,0,135.7,0,203.6,0c-20.2,35.3-40.1,70.8-60.5,106c-44.8,77-89.8,153.8-134.8,230.7c-2.5,4.2-5.5,8.1-9.2,13.6 c-9.9-16.9-19.3-31.9-27.4-47.6c-1.9-3.8-0.4-10.7,1.9-14.9c10.2-18.6,21.2-36.8,33.5-57.8c-24.1,0-45.3-0.4-66.6,0.2 c-8.7,0.2-14.2-2.2-18.2-10.2C409.2,405.7,400.2,390.3,391.6,374.8c17.8,0.7,35.8,0.2,53.4,2.6c19.9,2.7,31-5.1,38.8-22.6 c6.4-14.4,15.4-27.6,24.7-44c-23.9,0-43.8,0.6-63.6-0.3c-10.3-0.5-15.6,3.7-20.5,12C414.1,340.2,402.7,357.4,391.6,374.8z M566.1,325.6c-10.4,17.9-19.3,33.3-29.1,50.3c21.2,0,38.6,0,58.3,0C585.2,358.6,576.4,343.4,566.1,325.6z"></path> </g> <g> <path style="fill:#FFFFFF;" d="M433.4,723.4c-5.5-11.2-9.3-18.7-12.9-26.3c-3.4-7.3-6.7-14.6-11.8-25.6 c-2.5,13.8-4.4,23.9-6.2,33.9c-2.1,12-2.1,12-17.5,10.2c5-28.1,10-56.1,15-84.1c1.7-0.4,3.4-0.9,5.1-1.3 c9.2,19.1,18.4,38.1,28.3,58.5c10.1-20.6,19.3-39.4,28.5-58.3c1.5,0.2,3.1,0.3,4.6,0.5c5.2,28,10.3,55.9,15.5,83.8 c-14.6,3.7-14.6,3.7-24.3-41.8C449.5,690.1,442.3,705,433.4,723.4z"></path> <path style="fill:#FFFFFF;" d="M154.4,674.6c1.3,3.1,2.2,4.1,2,4.9c-2.7,12,9.2,28.2-10.4,35.3c-22,7.9-45,2.2-56.8-14.1 c-12.6-17.4-11.2-40.5,3.4-56.1c15.7-16.7,37.1-18.6,59.3-4.5c-1.8,3.7-3.7,7.5-6,12.1c-3.9-1.4-7.2-2.3-10.3-3.6 c-12.2-5.1-22.1-1.2-30.2,8.1c-8.3,9.5-9,20.4-3,31.2c6,11,16,15.6,28.4,13.4c3.3-0.6,6.1-3.9,9.1-5.9c-2.1-2.1-4.5-4-6.3-6.4 c-2.1-2.8-4.9-5.9-5-8.9c-0.1-1.7,4.6-4.7,7.4-5.1C141.9,674,148.1,674.6,154.4,674.6z"></path> <path style="fill:#FFFFFF;" d="M905,640.9c-2.7,4.1-4.8,7.4-7.3,11.2c-4.7-1.8-8.8-3.8-13.1-4.8c-12.6-3-22.3,2.2-28.9,12.5 c-6.8,10.5-5.9,21.5,1.5,31.4c7.2,9.5,17.3,12.5,28.8,9.5c2.4-0.6,5.5-3,6.1-5.2c0.5-1.7-2.5-4.3-4.1-6.4c-2.3-3-4.8-5.9-7.2-8.9 c3.6-1.9,7-4.7,10.7-5.4c4.9-0.9,10.1-0.2,17.5-0.2c0,11,0.3,21-0.2,31c-0.1,2.5-2.6,5.5-4.8,7c-16.2,11-46.1,6.5-59.6-8.7 c-14.9-16.8-14.9-42,0.1-58.7C860.2,627.6,883.5,625.6,905,640.9z"></path> <path style="fill:#FFFFFF;" d="M682.7,717.6c0-30.1,0-57.8,0-82.5c16.6,14.7,34.2,30.3,54.7,48.5c0-18.6,0-34,0-50.2 c6.2,0,10.5,0,15.7,0c0,28.6,0,56.7,0,89.6c-19.3-20.6-35.8-38.1-54.4-57.9c0,18.2,0,34.1,0,50.9 C692.7,716.6,688.4,717.1,682.7,717.6z"></path> <path style="fill:#FFFFFF;" d="M229.6,714.8c13-27.8,26.1-55.7,41.4-88.3c14.9,31.9,28,59.7,41.1,87.7c-13.4,4.7-13.4,4.7-19.7-4.9 c-7.2-10.9-35.4-10.1-43.6,0.2c-3.6,4.6-10.5,6.6-15.9,9.7C231.8,717.8,230.7,716.3,229.6,714.8z M270.7,662.3 c-4.5,10-7.7,17.2-11.2,25c8.2,0,14.7,0,22.6,0C278.4,678.9,275.3,672.2,270.7,662.3z"></path> <path style="fill:#FFFFFF;" d="M586,716.8c-5.3,0-9.3,0-14.3,0c0-27.8,0-55,0-83.4c4.6-0.2,8.9-0.5,14.3-0.8 C586,660.9,586,688.1,586,716.8z"></path> </g> </svg> 