<?xml version="1.0" encoding="UTF-8"?> <svg xmlns="http://www.w3.org/2000/svg" xmlns:xlink="http://www.w3.org/1999/xlink" version="1.1" id="Layer_1" x="0px" y="0px" viewBox="0 0 1000 1000" style="enable-background:new 0 0 1000 1000;" xml:space="preserve"> <path style="fill:#FFFFFF;" d="M38,402.7c2.4-6.5,7.3-10.6,13.6-7.6c3.2,1.5,5.7,7.8,5.8,12c0.6,21.3,0.3,42.7,0.3,65.4 c4.9-4,8.8-7.6,13-10.6c25.2-17.8,58.6-14.4,81.4,8.2c34.1,33.8,31.6,98.5-4.8,129.7c-23.3,19.9-56.4,20.4-80.2,1.1 c-2.7-2.2-5.2-4.5-9.4-8.1c0,4.5-0.1,7.7,0,10.9c0.3,6.8-0.2,12.9-9.5,12.8c-8.7-0.1-9.1-5.9-9-12.4c0.1-15.4,0-30.8,0-46.2 c0-47.8,0-95.6-0.1-143.4c0-3.4-0.8-6.7-1.2-10.1C38,403.9,38,403.3,38,402.7z M57.7,531c0,25.7,7.7,43.7,23.2,55.4 c17.6,13.4,38,12.6,54.4-2.2c28.6-25.7,28.5-77.5-0.3-102.8c-17.3-15.3-40.5-15.4-57.4,0.5C63.1,495.6,55.8,512.4,57.7,531z"></path> <path style="fill:#FFFFFF;" d="M336.7,540c-37,0-73.3,0-110.3,0c0.7,17.9,6.5,32.8,18.1,45c16.8,17.7,40.5,17,56.3-1.6 c5.2-6.1,8.7-13.7,12.6-20.9c2.8-5.3,6.3-8.8,12.7-6.6c6.5,2.2,7.6,7.5,5.6,13.1c-8.4,23.1-22.8,41.1-48,46.6 c-23.9,5.2-43.5-3.9-58.4-22.9c-23.9-30.7-25.6-80.1-3.8-112.5c14.2-21.1,33.8-32.3,59.7-28.8c22.9,3.1,38.2,17.4,47.9,37.5 C336.8,504.5,339.2,521.2,336.7,540z M316.8,520.7c1-26.5-21.5-51.3-45.1-50.7c-22.2,0.6-45.3,27.4-43.4,50.7 C257.6,520.7,286.9,520.7,316.8,520.7z"></path> <path style="fill:#FFFFFF;" d="M809.7,534.8c1,16.3-3.6,32-12.5,46.6c-26.8,43.8-82.1,45.3-111.3,3c-21.4-30.9-19.3-78.3,4.7-107.3 c31.4-38,85.9-30.8,109.6,14.3C807,504.5,809.7,516.5,809.7,534.8z M790.8,535.3c0-19.5-5.5-35.8-18.5-49.2 c-17.8-18.5-43.2-19.1-61.9-1.7c-26.7,24.9-27,73.7-0.5,98.7c18.3,17.3,43.2,17.3,61.3-0.4C784.9,569.4,790.6,552.8,790.8,535.3z"></path> <path style="fill:#FFFFFF;" d="M867,472.6c8.4-5,15.1-9.7,22.4-13.3c14.7-7.2,30.3-9,46.1-4.2c20.8,6.3,32.4,22.8,32.4,44.6 c0,34.9,0,69.8,0,104.8c0,6.4-0.3,12.2-9,12.4c-9.2,0.2-9.8-5.7-9.8-12.6c0.1-31.8-0.7-63.6,0.3-95.3c1-33.2-26.3-45.5-51.8-31.1 c-10.5,5.9-19.2,15.1-28.1,23.5c-2,1.9-2.3,6.3-2.3,9.5c-0.2,30.5-0.2,61-0.1,91.6c0,6.9-0.5,12.8-9.8,12.6c-8.7-0.2-9-5.9-9-12.4 c0-47.5,0-95-0.1-142.5c0-6.7,1.8-11,9.5-11s9.7,4.4,9.4,11C866.9,463.8,867,467.6,867,472.6z"></path> <path style="fill:#FFFFFF;" d="M398.7,465.8c0,12.3,0,23.3,0,34.2c0,26.7,0.4,53.4-0.2,80.1c-0.2,9.7,3.6,14,12.9,14.5 c6,0.4,12,1,17.9,1.4c6.6,0.4,9.7,3.7,9.4,10.3c-0.3,6.5-4,9.1-9.9,8.5c-10.6-1-21.5-1.2-31.8-3.9c-13-3.4-17-10.3-17-23.6 c0-36.8,0-73.5,0-110.3c0-3.4,0-6.8,0-11.3c-5.3,0-9.6-0.2-13.9,0c-7,0.3-13-0.6-12.9-9.5c0.1-9.1,6.6-9.3,13.3-9.1 c4.1,0.1,8.1,0,13.5,0c0-14.2,0.2-27.6-0.1-41c-0.1-6.9,1.1-11.9,9.5-11.9c8.5,0,9.5,5.3,9.4,12c-0.2,13.2,0,26.3,0,40.9 c10.1,0,19.4,0.1,28.8,0c6.6-0.1,11.2,1.6,11.2,9.3c0,7.6-4.4,9.5-11.1,9.4C418.4,465.6,409.3,465.8,398.7,465.8z"></path> <path style="fill:#FFFFFF;" d="M587.3,515.7c14.5-20.3,28.6-40,42.8-59.6c1.9-2.7,4.7-5.9,7.6-6.4c3.2-0.6,9.3,0.8,9.9,2.6 c1.3,4.2,1.7,10.3-0.6,13.7c-10.9,16.5-22.7,32.5-34.3,48.6c-13.2,18.4-13.2,18.3,0,36.7c11.2,15.6,22.3,31.3,33.5,46.9 c4,5.6,6.7,11.8,0.4,16.6c-6.7,5-12.1,1.2-16.5-5c-34-47.7-68.1-95.3-102.1-142.9c-3.8-5.3-5.8-11.4,0.2-15.9 c6.1-4.5,11.6-1.9,15.9,4.2C558.2,475.3,572.6,495.2,587.3,515.7z"></path> <path style="fill:#FFFFFF;" d="M490,532.5c0,23.6-0.1,47.1,0.1,70.7c0,6.8-1.3,11.8-9.7,11.7c-7.9-0.1-9.1-4.9-9.1-11.3 c0.1-47.8,0.1-95.5,0-143.3c0-6.5,1.4-11.1,9.2-11.2c8.4-0.1,9.7,5,9.6,11.8C490,484.7,490,508.6,490,532.5z"></path> <path style="fill:#FFFFFF;" d="M577.7,560.8c-1.8,3.8-2.7,6.5-4.3,8.8c-9.8,13.8-20,27.5-29.7,41.4c-4.1,5.9-9.5,7.9-15.3,4 s-4.7-10-1.2-15c10.1-14.4,20.1-29,31-42.8c2.4-3,8.6-4.2,13-4.1C573.5,553.3,575.6,558.2,577.7,560.8z"></path> <path style="fill:#FFFFFF;" d="M480,398.3c9,0.1,14,5.2,13.8,14.1c-0.2,9-5.1,13.7-14.3,13.6c-9.1-0.1-13.8-4.9-13.7-14.1 C465.9,402.8,470.8,398.2,480,398.3z"></path> </svg> 