<?xml version="1.0" encoding="UTF-8"?> <svg xmlns="http://www.w3.org/2000/svg" xmlns:xlink="http://www.w3.org/1999/xlink" version="1.1" id="Layer_1" x="0px" y="0px" viewBox="0 0 1000 1000" style="enable-background:new 0 0 1000 1000;" xml:space="preserve"> <path style="fill:#FFFFFF;" d="M228.3,716.8c20.4,13.6,42.5,10.2,55.1-7.9c6.6-9.5,12.1-19.9,17.6-30.2 c40.2-75.7,78.4-152.3,110.8-231.7c2.3-5.8,12.6-11.4,23.8-13.4c-0.1,0.2-0.2,0.6-0.4,0.7c-15.7,6.4-21.3,20.4-27.3,34.8 c-32.4,76.6-67.5,151.8-107.3,224.9c-4.6,8.4-9.7,16.9-16.1,24c-16.2,18.1-50.2,16-65-3.3c-0.2-0.2-0.3-0.5-0.5-0.7 c-11.9-14.6-12-14.7-1.5-30.5c44.1-66.8,87.2-134.2,123.7-205.5c1.7-3.2,3.2-6.5,5.4-11c-43.6,4.3-86.1,8-126.9-8.8 c45.5,12.1,90,6.6,134.3-3.8c-0.1-1.4-0.2-2.8-0.3-4.2c-11.6,1.4-23.3,3.2-34.9,4.2c-32,2.7-63.8,2.1-95.1-5.8 c-15.6-3.9-23.8-15.3-21.6-29.9c2.1-14,13.2-22.8,29-21.7c7,0.5,14,2.5,20.6,4.9c35.3,12.9,71.4,21.6,109.3,20.7 c3-0.1,7.5-2.1,8.5-4.5c17.9-40.7,34-82.1,38.4-126.9c0.7-7.2-0.2-14.9-1.9-21.9c-3-11.8-11.3-17.3-23.2-14.5 c-10.7,2.6-21.8,5.9-30.9,11.7c-20.4,12.9-40.6,26.5-59.3,41.7c-59.8,48.7-113.4,104-167,159.2c-3.9,4-7.9,7.9-12.9,11.2 c0.4-0.8,0.7-1.8,1.3-2.5c58.1-66.7,118.3-131.4,188.2-186c16.7-13.1,35.2-24.2,53.7-34.6c13.9-7.9,29.4-12.7,46.7-5 c-4.4-8.4-10.4-13.1-18.2-12.3c-9.2,1-19.1,2.2-27,6.5c-17.7,9.6-35.2,20-51.2,32.2c-56.4,43-105.7,93.7-154.2,145.2 c-22.6,24.1-44.7,48.7-66.5,73.5c-5.4,6.2-10.4,9.3-18.4,4.9c0.3-0.7,0.6-1.7,1.2-2.5c61.9-80.2,127.3-157.3,203.4-224.6 c24.2-21.4,49.6-41.1,78.2-56.4c16.2-8.6,32.9-15.8,51.6-16.8c28.2-1.5,44.1,11.3,48.7,39.1c4.6,28.1,0.6,55.8-6.1,82.9 c-7.7,31.2-17.3,61.9-26.4,94c11.4-3.3,23.1-6.6,35.4-10.1c-1.8,6.9-4.3,12.8-12,15.5c-5.9,2-11.2,6.2-17.2,7.5 c-11.6,2.6-16.8,9.8-21,20.5c-33.6,86.1-77,167.4-119.9,249.1c-6.7,12.8-19.1,16.5-32.1,18C243.7,717.4,236.9,716.8,228.3,716.8z"></path> <path style="fill:#FFFFFF;" d="M457.7,648.8c-5.9,5.5-10.1,3.7-13.9-1.6c-13.7-18.9-18.8-40.6-21.2-63.2 c-1.7-16.1,0.8-31.6,5.8-47.1c26.5-81.7,61.1-160,99-236.8c8.7-17.6,17.3-35.2,26.4-52.7c10-19.3,44.2-28.9,63.2-18 c8.2,4.7,9.1,10.5,3.3,20.2c-13.9,22.9-28,45.6-41.5,68.7c-40.2,69.2-76.8,140.3-108.8,213.6c-10.2,23.5-18.8,47.7-20.7,73.6 C448.1,620.7,449.6,635.3,457.7,648.8z"></path> <path style="fill:#FFFFFF;" d="M535.6,602.3c-0.8-1.5-1.3-3.3-2.5-4.4c-21.9-22.6-23.7-49.6-16.3-78c12.5-48.5,39.7-87.1,81.3-115.2 c13.1-8.8,27.4-15.7,43.5-16.1c7.7-0.2,16.1,1,23.3,3.8c21.3,8.3,27.1,21.1,21.6,43.3c-8.9,35.8-28.4,63.9-61.2,81.3 c-18.3,9.7-37.6,17.6-56.8,25.2c-6.9,2.7-10.4,5.8-9.7,13.2c0.7,8.2,0.4,16.6,2.3,24.4c2.8,11.7,10.4,17.4,22.1,14.8 c12.8-2.9,26.1-6.9,37.2-13.7c14.2-8.7,26.4-20.6,39.4-31.2c1.3-1,2.6-2.1,4.4-3.7c2.4,2.7,4.6,5.1,7.3,8.1 c-17.9,21.3-36,41.6-60.1,55.6c-23.2,13.5-45.3,9.1-67.1-3.6c-2.4-1.4-4.9-2.6-7.3-3.9C536.5,602.2,536.1,602.2,535.6,602.3z M656.3,432.1c-36.8,2-88.3,57.9-90.3,94.8c37.7-13.6,79.3-51.5,84.1-77.4c-28,9.5-47.1,29.3-64.4,51.7c-0.3-1.1-0.7-1.8-0.5-2.1 c15.9-26.3,35.4-48.6,64.6-60.9C652.5,437.1,654.2,434.1,656.3,432.1z"></path> <path style="fill:#FFFFFF;" d="M837.7,579.1c-4.2,4.1-8.3,2.3-12.3-2.9c-16.1-20.9-21.4-44.1-15.6-69.9c4.4-19.4,8.5-38.9,12.8-58.3 c-18.7-3.4-40.9,15.4-74.8,62.7c6.8-18.3,16.8-34.7,30.1-49c13.3-14.4,29.2-24.4,49.6-27.1c-0.3-1.1-0.7-2.3-1-3.4 c-3.1-0.2-6.2-0.9-9.2-0.6c-12.6,1.3-23.4,7.1-32.9,15.1c-26.8,22.5-42.5,51.6-50,85.3c-3.6,16.3,3.4,22.9,19.7,19 c13.2-3.2,26-8,39.2-12.2c4.1,6.6,2.4,11.3-5.3,14.8c-13.7,6.3-26.8,13.9-40.7,19.5C720,583,702,572.7,697,543.7 c-2.8-16.3-0.7-32.3,3.9-48.1c9.8-34.3,27.7-63.6,55.2-86.4c23.6-19.6,49.7-29.9,80.6-17.2c1.9,0.8,4.4-0.2,6.6,0 c7.3,0.7,14.9,0.6,21.8,2.7c10.1,3.1,11.8,9.4,7.9,19.3c-12,30.7-24.8,61.2-35.2,92.4c-4.7,14.2-5.8,30-6.3,45.2 C831.2,560.3,835.3,569.1,837.7,579.1z"></path> <path style="fill:#FFFFFF;" d="M618.8,713.4c0,13,0.3,24.3-0.2,35.6c-0.1,2.9-2.8,7.7-4.9,8.1c-5.5,0.9-5.7-4.1-5.7-8.2 c-0.1-20.5-0.5-40.9-0.1-61.4c0.3-16.5,8.1-29.2,23.8-35.1c14.6-5.5,28.8-3.7,40.6,7.3c12.2,11.4,14.9,25.9,9.9,41.5 C674.1,726.3,641.7,735.4,618.8,713.4z M674,687.6c-0.1-16.1-12.4-28.5-28-28.3c-15.7,0.2-27.4,12.6-27.3,29 c0.1,16.3,12.2,28.5,27.9,28.3C662.3,716.3,674.1,703.8,674,687.6z"></path> <path style="fill:#FFFFFF;" d="M617.6,271.7c-1.3,2.7-2.5,5.4-3.9,8.1c-43.6,86-87.3,172-130.6,258.1c-14.1,28-23.1,57.6-21.2,89.5 c0.4,6.7,1.5,13.4,0.8,20.4c-1.4-8.4-3.5-16.7-4.2-25.2c-1.8-24.2,1-48.1,11.2-70.2c24.2-52.1,48.3-104.2,74.6-155.3 c20.8-40.4,44.7-79.3,67.2-118.9c1.5-2.6,3.1-5,4.7-7.5C616.7,271.2,617.1,271.4,617.6,271.7z"></path> <path style="fill:#FFFFFF;" d="M805.2,713.5c-9.3,9.4-19.7,13.6-32.1,12.3c-20-2.1-33.6-18.5-32.8-39.8c0.8-20.2,15.9-35.5,36-36.2 c21.1-0.8,38.3,13.1,39.8,32.9c0.9,11.6,0.6,23.3,0.2,35c-0.1,2.6-3.1,5.1-4.7,7.6c-1.9-2.5-3.9-5-5.7-7.7 C805.3,716.9,805.5,715.6,805.2,713.5z M750.6,688.2c0.1,16.3,12,28.5,27.8,28.4c15.7-0.1,27.5-12.5,27.4-28.8 c-0.1-16.2-12.3-28.6-27.9-28.4C762.2,659.5,750.6,671.8,750.6,688.2z"></path> <path style="fill:#FFFFFF;" d="M865.1,709.2c8.1-17.7,15.3-33.7,22.6-49.7c0.9-2.1,1.5-4.6,3-6c1.6-1.5,4.1-2,6.2-2.9 c0.9,2.4,2.1,4.7,2.5,7.1c0.2,1.2-1,2.6-1.6,3.9c-13.7,30-27.3,60-41,90c-0.5,1-0.7,2.5-1.5,3c-1.9,1.2-4.1,2-6.2,3 c-0.9-2.3-3.2-5-2.6-6.8c2.2-6.4,4.7-12.9,8.3-18.7c5-8.1,3.7-14.9-0.5-22.9c-8.4-15.8-15.7-32.2-23.5-48.3 c-1.7-3.6-4.5-7.7,0.9-10.1c5.4-2.5,6.6,2.6,8.3,6.1C848.3,673.8,856.3,690.7,865.1,709.2z"></path> <path style="fill:#FFFFFF;" d="M703.5,663.9c0-12.2-0.4-24.5,0.3-36.7c0.2-3.1,3.4-6,5.3-9c1.7,3,4.9,6.1,5,9.1 c0.4,23.6,0.2,47.2,0.3,70.8c0,8.5,0.1,17.1,12.4,17.2c1.3,0,4,3.7,3.6,4.5c-1,2.2-3.1,4.8-5.2,5.3c-8.6,2-17.7-4.4-20-14.5 c-1.3-6-1.3-12.4-1.5-18.6C703.3,682.7,703.5,673.3,703.5,663.9z"></path> <path style="fill:#FFFFFF;" d="M568.6,555.6c10.4-4.9,21.1-9.5,31.3-14.8c11.8-6.2,23.5-12.6,34.8-19.8 c29.3-18.8,45.5-46.9,54.8-79.6c0.5-1.8,1.2-3.6,2.4-5.2c-1.9,25.5-9.4,49-26.3,68.5C640,534.2,605.3,546.8,568.6,555.6z"></path> <path style="fill:#FFFFFF;" d="M848.4,572.4c-10-17-10.4-35.3-6.3-53.6c7.7-34.3,21.9-66.2,38.2-97.2c0.3-0.6,1.1-1.1,3.5-3.3 c-6.9,20.1-13.3,37.9-19.2,55.9c-5.7,17.2-11.5,34.5-16.3,52C844.3,541.4,844.1,557,848.4,572.4z"></path> <path style="fill:#FFFFFF;" d="M535.6,602.3c0.4,0,0.8,0,1.2-0.1c23.1,25.6,53.5,30.1,81.8,10.5c13.5-9.3,25.2-21.1,37.5-32.1 c2.1-1.9,3-5.3,5.8-6.7c-11.9,31.3-52.4,59.6-81.1,58.9C561.5,632.4,541.2,618.6,535.6,602.3z"></path> <path style="fill:#FFFFFF;" d="M790.7,560.9c-14.5,13.2-30.9,23.4-49.8,28.6c-23.1,6.3-41.7-5.4-44-27.7c1.6,2.5,2.8,4.4,4,6.2 c7.9,12.5,19.3,18.3,33.5,14.2c15.5-4.5,30.4-11.1,45.5-16.9C783.5,563.9,787.1,562.4,790.7,560.9z"></path> </svg> 