<?xml version="1.0" encoding="UTF-8"?> <svg xmlns="http://www.w3.org/2000/svg" xmlns:xlink="http://www.w3.org/1999/xlink" version="1.1" id="Layer_1" x="0px" y="0px" viewBox="0 0 1000 1000" style="enable-background:new 0 0 1000 1000;" xml:space="preserve"> <path style="fill:#FFFFFF;" d="M41.2,280c37.5,0,74.7,0,113,0c0,36.5,0,72.9,0,109.3c0.6,0.1,1.2,0.3,1.7,0.4 c8.8-11.7,17.7-23.3,26.5-35c17.6-23.4,35.1-46.9,53-70.2c1.8-2.3,5.4-4.7,8.2-4.7c34.1-0.3,68.1-0.2,102.2-0.2c1,0,1.9,0.3,3.7,0.5 c0,36.5,0,73.1,0,109.6c0.6,0.3,1.1,0.5,1.7,0.8c1.6-1.9,3.2-3.8,4.6-5.8c24.7-32.9,49.5-65.7,74.1-98.7c3.4-4.6,6.8-6.7,12.7-6.6 c33.8,0.3,67.7,0.1,101.5,0.1c2.4,0,4.9,0,8.2,0c-1.1,2.2-1.6,3.8-2.5,5c-63,82.4-126.1,164.7-189.2,247c-1.7,2.2-5.1,4.2-7.7,4.3 c-36.3,0.3-72.6,0.2-108.9,0.1c-1.4,0-2.8-0.4-4.8-0.8c0-36.8,0-73.4,0-109.9c-0.5-0.3-1-0.5-1.5-0.8c-2,2.6-4,5.1-5.9,7.7 c-24.4,32.8-48.8,65.7-73.4,98.3c-1.9,2.6-5.7,5.3-8.6,5.3c-34.8,0.4-69.6,0.2-104.4,0.2c-1.2,0-2.4-0.2-4.2-0.4 C41.2,450.4,41.2,365.4,41.2,280z"></path> <path style="fill:#FFFFFF;" d="M928.9,280.6c0,2.7,0,5.3,0,8c0,41.8,0.2,83.7-0.2,125.5c0,4.7-1.9,10.2-4.8,14 c-24.9,34-50.4,67.6-75.4,101.5c-3.6,4.9-7.4,7.1-13.5,6.6c-6.1-0.5-12.3-0.1-19-0.1c0-37.5,0-74.3,0-113.5 c-3.3,4.1-5.3,6.4-7.1,8.8c-24.9,33.3-49.8,66.7-74.9,100c-1.7,2.2-5,4.5-7.5,4.5c-34.3,0.3-68.7,0.2-103,0.1 c-0.9,0-1.9-0.3-3.8-0.6c0-36.7,0-73.4,0-110.1c-0.6-0.2-1.1-0.3-1.7-0.5c-8.8,11.7-17.6,23.4-26.4,35.1 c-17.7,23.7-35.3,47.4-53.2,71c-1.9,2.5-5.8,5-8.8,5c-36.1,0.3-72.1,0.2-108.2,0.2c-1.2,0-2.3-0.2-4.3-0.4c1.2-2,1.8-3.4,2.8-4.7 c62.9-82.2,125.8-164.4,188.8-246.4c1.8-2.3,5.4-4.6,8.3-4.6c36.1-0.3,72.1-0.2,108.2-0.2c1.4,0,2.8,0.4,5.2,0.7 c0,36.7,0,73.2,0,109.7c0.5,0.2,1.1,0.3,1.6,0.5c7.5-10,15-19.9,22.5-29.9c18.9-25.2,37.7-50.6,56.8-75.7c1.8-2.4,5.3-5.1,8-5.1 c35.6-0.3,71.1-0.1,106.7-0.1C926.5,279.7,927,280,928.9,280.6z"></path> <path style="fill:#FFFFFF;" d="M99.3,600.7c-4.1,18.9-8.1,36.6-11.5,54.4c-1.3,6.5-3.3,9.6-10.9,9.3c-14.3-0.7-14.4-0.2-17.7-14.4 c-5.4-22.7-10.9-45.4-16.3-68.1c-0.7-2.8-1.1-5.6-1.7-9.3c6.7,0,12.7-0.5,18.4,0.3c1.8,0.2,4.1,3.6,4.6,5.8 c3.9,19.8,7.4,39.6,11.4,61.5c2.9-14,5.3-26,7.8-38c1.7-8.2,3-16.5,5.1-24.5c0.5-2.1,3.4-4.7,5.5-4.9c5.6-0.7,11.3-0.2,17.8-0.2 c4,21.2,7.9,42.1,11.8,62.9c0.3,0,0.6,0,1,0c3.5-18.1,7.4-36.2,10.4-54.4c1.1-6.8,3.6-9.4,10.4-8.6c3.8,0.5,7.8,0.1,12.6,0.1 c-2.8,11.1-5.3,21.3-7.9,31.4c-4.6,17.9-9.4,35.6-13.8,53.5c-1.2,4.8-3,6.9-8.4,6.8c-16-0.1-16.1,0.1-19.2-15.6 C105.5,633.1,102.5,617.4,99.3,600.7z"></path> <path style="fill:#FFFFFF;" d="M604.2,573.4c1.6,29.7,3.1,59.5,4.7,90.1c-6.7,0-12.9,0-20.5,0c-0.8-21.8-1.6-43.7-2.4-65.7 c-0.3-0.1-0.7-0.1-1-0.2c-3.6,11.6-7.2,23.2-10.8,34.9c-2.6,8.2-5.6,16.3-7.5,24.7c-1.9,7.9-7.8,4.8-12.4,5.5 c-4.4,0.6-6.5-1.1-7.6-5.7c-4.4-18.1-9.3-36.2-14.1-54.2c-0.4-1.6-1-3.1-2.4-4.6c-1,21.6-2.1,43.3-3.1,65.4c-6.7,0-12.7,0-19.5,0 c1.9-30.3,3.9-60.2,5.9-91c8.7,0,17-0.3,25.3,0.2c1.5,0.1,3.5,3.1,4.1,5.1c4.8,17.3,9.3,34.6,14,52c0.2,0.9,0.7,1.8,1.5,3.7 c4-13.5,7.6-26,11.3-38.5c0.1-0.5,0.2-1,0.4-1.4C576.8,570.4,578.4,569.5,604.2,573.4z"></path> <path style="fill:#FFFFFF;" d="M954.4,422c0,39.2,0,76.1,0,113.5c-28.1,0-55.7,0-85.3,0C897.6,497.5,925.4,460.6,954.4,422z"></path> <path style="fill:#FFFFFF;" d="M415.1,663.9c0-4,0-7.4,0-10.8c0-23.9,0.3-47.7-0.2-71.6c-0.1-6.5,2-9,8.2-8.8 c12.8,0.2,25.8-1,38.3,0.9c23.2,3.4,36.4,21.3,34.9,44.6c-1.6,27-14.4,41.8-41.5,45.4C442.1,665.4,428.9,663.9,415.1,663.9z M435.9,617.7c0,8.6,0.1,17.2-0.1,25.8c-0.1,3.8,1.4,5.1,5.2,5.4c19.7,1.5,33.1-11.1,33.2-31.7c0.1-19.8-11.9-30.5-32.3-29.1 c-4.3,0.3-6.2,1.5-6,6.1C436.1,602,435.9,609.8,435.9,617.7z"></path> <path style="fill:#FFFFFF;" d="M163.3,618.7c0.1-35.8,31.4-57.7,63-44c4.4,1.9,8.7,4.9,12.1,8.2c15.7,15.3,17.6,47,4.3,65.6 c-12,16.8-37,22.3-56.6,12.5C171.3,653.7,163.2,638.6,163.3,618.7z M230.6,618.2c-2.4-7.3-3.6-14.8-7.1-20.9 c-7.5-12.9-23.9-12.8-32.4-0.5c-7.7,11.2-7.7,32.3,0.1,43.4c8.4,12,25.4,11.9,32.5-0.9C227.1,633.1,228.2,625.6,230.6,618.2z"></path> <path style="fill:#FFFFFF;" d="M908,626c-10.8,0-20.3-0.2-29.9,0.3c-1.4,0.1-3.6,3.5-3.7,5.4c-0.4,10.5-0.2,21-0.2,32 c-7.2,0-13.5,0-20.4,0c0-30.3,0-60.1,0-90.6c6.5,0,12.7,0,20,0c0,11.1,0,22.2,0,33.9c11.5,0,22,0,33.5,0c0-10.9,0-22.1,0-33.9 c7.4,0,13.9,0,20.9,0c0,30.1,0,59.9,0,90.4c-6.7,0-13.1,0-20.3,0C908,651.2,908,639.2,908,626z"></path> <path style="fill:#FFFFFF;" d="M316.5,621.1c13.1,11.2,11.7,27.9,17.8,43c-6.8,0-12.5,0.4-18.1-0.2c-2-0.2-4.5-2.8-5.2-4.9 c-2.1-5.8-3.3-11.8-4.9-17.7c-3.2-11.5-7.3-14.1-20.3-12.3c0,11.3,0,22.7,0,35.1c-6.3,0-11.6,0.3-16.9-0.2c-1.5-0.2-3.9-2.9-3.9-4.5 c-0.2-27.1-0.2-54.1,0-81.2c0-1.6,2.5-4.6,3.9-4.7c13.5-0.3,27.1-1.1,40.5,0.1c10.8,1,18.8,7.6,21,18.9c2.4,11.7-2,20.7-12.2,26.9 C317.5,619.7,317.1,620.4,316.5,621.1z M285.6,614c7-1.3,13-1.6,18.2-3.7c5.7-2.2,7.4-9.3,5.1-15.2c-2.4-6.1-9.9-8.8-19.2-7.3 c-6.9,1.1-3.6,6.5-4,10C285.2,602.4,285.6,607.1,285.6,614z"></path> <path style="fill:#FFFFFF;" d="M701.4,664.1c-6.8,0-12.9,0.2-19-0.2c-1.5-0.1-2.9-2-4.2-3.3c-0.5-0.4-0.4-1.4-0.6-2.1 c-6.3-19.9-6.7-20.3-27.5-17.6c-1.8,0.2-3.6,2.4-5,4.1c-0.9,1-0.9,2.8-1.3,4.2c-4.6,16.5-6.8,17.7-25.4,13.8 c5.3-17.4,10.5-34.8,15.8-52.1c3.4-11.1,6.9-22.1,10.1-33.2c1.1-4,3.2-5.3,7.4-5.4c21.3-0.4,21.3-0.5,27.7,19.7 c6.8,21.3,13.4,42.7,20.1,64C700.2,658.4,700.6,660.8,701.4,664.1z M649.6,624.1c6.6,0,12.5,0,18.9,0c-3.2-11.5-6.2-22.2-9.7-34.7 C655.5,602,652.6,613,649.6,624.1z"></path> <path style="fill:#FFFFFF;" d="M840.8,576c-1.4,5.1-2.8,9.7-4.3,15c-16.3-3.9-32.7-6.3-42.5,11.1c-6.5,11.6-6.4,24.6,1.8,35.6 c10.3,13.8,25,11,40.5,8.3c0.9,4.2,2.1,8.6,2.7,13c0.2,1.2-1.2,3.1-2.4,3.8c-23.9,12.6-59.7-2.9-67-29c-5.4-19.5,0.8-40.8,15.3-52.2 C799.4,570.1,825.4,567.3,840.8,576z"></path> <path style="fill:#FFFFFF;" d="M740.5,663.7c-7.4,0-13.7,0-21,0c0-24.5,0-48.7,0-73.5c-8.5,0-16.1,0-23.1,0 c-0.9-1.1-1.4-1.4-1.5-1.8c-1.7-15.8-1.7-15.8,14.1-15.8c18.5,0,36.9,0,55.9,0c0,6,0,11.3,0,17.4c-7.9,0-15.7,0-24.4,0 C740.5,614.9,740.5,639.1,740.5,663.7z"></path> <path style="fill:#FFFFFF;" d="M366.4,646.8c12.7,0,24.2,0,36.2,0c0,6,0,11.2,0,16.9c-18.9,0-37.3,0-56.4,0c0-30.1,0-60.1,0-90.7 c6.5,0,13,0,20.2,0C366.4,597.6,366.4,621.6,366.4,646.8z"></path> </svg> 