<?xml version="1.0" encoding="UTF-8"?> <svg xmlns="http://www.w3.org/2000/svg" xmlns:xlink="http://www.w3.org/1999/xlink" version="1.1" id="Layer_1" x="0px" y="0px" viewBox="0 0 1000 1000" style="enable-background:new 0 0 1000 1000;" xml:space="preserve"> <path style="fill:#FFFFFF;" d="M538.8,503c-3.2,0-5.9,0.2-8.5-0.1c-1.3-0.2-3.1-1.1-3.6-2.2c-3.6-7.8-6.9-15.7-10.3-23.6 c-0.4-0.8-1-1.5-2-3c-0.5,3-1,5.3-1.3,7.7c-0.8,6.4-1.5,12.8-2.2,19.2c-0.2,1.7-0.9,2.1-2.5,2.1c-11.5,0.1-23,0.4-34.4,0.5 c-4.6,0.1-4.6,0-5.2-4.5c-1.4-10.4-2.9-20.8-4.4-31.2c-0.6-4.5-1.1-9-1.7-13.5c-0.2-1.5-0.6-2.9-2.4-3.4c-2.5-0.7-3.2-3-3-5.3 c0.4-7.6,1.1-15.3,1.6-22.9c0.2-3,0.4-6,0.6-9c0.7-8.8,1.5-17.6,2.2-26.4c0.4-5.2,0.7-10.4,1.1-15.5c0.7-8.6,1.5-17.2,2.2-25.8 c0.4-5,0.7-10,1.1-15c0.7-9.1,1.5-18.1,2.2-27.2c0.3-4.3,0.6-8.5,1.2-12.8c0.9-6.1,4.2-7.9,9.8-7.9c12.9,0,25.8,0.2,38.7-0.1 c9-0.2,11.1,4.5,10.6,12c-0.2,3.1-0.3,6.2-0.5,9.3c-0.1,1.8-0.3,3.6,0,5.6c1.3-2.3,2.6-4.5,3.9-6.8c2.5-4.8,4.9-9.7,7.5-14.4 c2.5-4.5,6-7,11.6-6.9c10.5,0.3,21,0.1,31.5,0.1c3.3,0,6.3,0.6,8.2,3.7c2,3.3,1,6.4-0.9,9.5c-4.9,7.7-7.7,16.2-9.7,25.1 c-2.5,11-5.3,21.9-8,32.9c-2.4,9.9-5.2,19.7-7.2,29.7c-0.5,2.3,1.3,5.1,2.4,7.5c2.9,6.5,5.9,12.8,9,19.2c1.5,3.1,3,6.1,4.7,9.4 c0.3-0.4,0.7-0.7,0.7-1c-0.1-10.3-0.5-20.5-0.3-30.8c0.1-3.2,1.5-6.5,2.4-9.7c6-19.9,12.1-39.8,18.2-59.7c1.2-3.9,2.5-7.7,3.4-11.7 c0.5-2,0.5-4.1,0.6-6.2c0.2-3.5,0.1-7.1,0.6-10.6c0.6-4,3.4-6,7.5-6c8,0,16,0,24,0c12.4,0.1,24.8,0.1,37.2,0.5 c9.4,0.4,18.9,1.3,27.4,6c7.2,4,12.7,9.6,16.7,16.9c4.6,8.4,6.3,17.5,7.7,27.2c2.6-3.9,5-7.5,7.6-11c2-2.7,3.2-5.7,4.1-9 c1.9-7.4,6-13.7,11.4-19.1c9-8.9,20.3-12.8,32.6-14.4c11.9-1.5,23.5-0.4,34.7,3.9c8.8,3.4,16.9,8.1,22.8,15.8 c2.8,3.6,5.7,7.3,8.6,11c5.3-5.2,10.8-10.5,16.1-16.1c0.8-0.8,0.4-2.8,0.6-4.2c0.4-4.3,4.1-6.6,8-6.4c7,0.2,14,0.1,21,0.1 c26.2,0.2,52.4,0.3,78.7,0.5c2.3,0,4.1,1.7,4.6,4.8c1,5.9,1.8,11.8,2.7,17.7c1,6.5,2.1,13.1,3,19.6c0.6,4,1.1,8.1,1.4,12.2 c0.2,4.1-2.2,6.2-6.3,6.5c-2.5,0.1-5.2-1.1-7.5,0.9c-1.5,1.3-3.1,2.6-4.9,3.5c-4.5,2.3-6.4,5-5.2,10.7c2.4,11.2,3.6,22.6,5.1,33.9 c1.6,11.1,2.9,22.3,4.5,33.5c1.5,10.7,3.3,21.3,4.8,32c1.2,8.4,2.2,16.7,3.4,25.1c1,6.8,2,13.6,3.2,20.4c0.9,4.9-0.6,8.1-4.8,9.2 c-1.3,0.3-2.9,0.1-4.2-0.4c-3.1-1.3-6-0.8-9,0.2c-11.9,4.1-23.8,8.1-35.7,12.1c-19.6,6.6-39.2,13.2-58.8,19.8 c-2.3,0.8-4.7,1.3-6.9,2.4c-4,1.9-7.9,1.9-12.2,0.6c-9.7-2.9-19.6-5-29.4-7.5c-4.7-1.2-5.1-1.9-5.8-7.8c-1.2-10-2.5-20-3.8-30 c-0.4-2.8-0.6-5.6-1-8.7c-7.6,4.3-14.8,8.3-22,12.3c-10,5.5-19.9,11.1-30,16.5c-1.2,0.7-2.7,1.3-4.1,1.4c-3.7,0.2-5.2,2.6-6.7,5.4 c-6.2,11.8-12.5,23.6-18.8,35.4c-2.2,4.2-4.7,8.2-6.7,12.5c-0.8,1.7-1.3,3.8-1.4,5.7c-0.1,18.5,0,37-0.1,55.5c0,1.3-0.1,2.9-0.8,3.9 c-2,2.7-2.2,5.7-2,8.8c0.2,2.8-1,4.7-3.4,6.2c-6.8,4.1-13.4,8.4-20.1,12.5c-1.2,0.7-2.7,1.2-4.1,1.2c-10.2,0.1-20.4,0-30.7,0.1 c-2.6,0-3.4-1.2-3.4-3.5c0-2.4,0-4.8,0-7.1c-1.1-0.5-2.1-0.9-3.3-1.4c-4,3.4-8,7-12.2,10.3c-1,0.8-2.6,1.5-3.9,1.6 c-10.6,0.1-21.2,0-31.8,0.1c-2.4,0-3.2-1.3-3.7-3.2c-1.5-6-3-12-4.4-18c-0.5-2.3-1.7-3.2-4-3.2c-10.7,0-21.4,0-32,0 c-2.2,0-3.3,0.8-4.1,3c-2.2,6.3-4.9,12.5-7.4,18.7c-0.7,1.8-1.9,2.7-4,2.7c-10.1-0.1-20.3-0.1-30.4,0c-2.3,0-3.3-0.9-3.8-3 c-0.9-4.2-1.9-8.4-2.6-12.7c-1-5.2-2.1-10.5-2.5-15.8c-0.2-2.6,1.1-5.4,1.9-8c5.5-18.3,11.2-36.7,16.7-55c5-16.5,10-33.1,14.9-49.6 c0.7-2.3,1-4.8,1.4-7.2c0.3-1.7,0.1-3.4-1.6-4.7c-2.5-1.9-1.7-4.6-1.6-7.1C538.2,507.9,538.6,505.7,538.8,503z M793.9,284.1 c-6,0.4-10.4,0.3-14.6,1.1c-6.5,1.2-12.6,3.5-18.5,6.8c-5.2,2.9-9.2,7-12.5,11.5c-5.2,7.1-7.4,15.6-7.4,24.4 c-0.1,6.9,0.3,13.7,0.5,20.6c0,1.8-0.1,3.5,0,5.3c0.5,7.3,1.1,14.5,1.6,21.7c0.2,3,0.3,6,0.6,9c0.9,8.9,1.7,17.9,2.8,26.8 c0.9,7.3,1.7,14.7,3.5,21.8c1.8,7.4,6.1,13.7,11.3,19.2c3.9,4.1,8.1,8.1,12.9,11.1c6,3.8,12.4,7,19,9.7c4.7,1.9,9.8,2.9,14.8,3.7 c7,1.1,14.1,2.1,21.1,2.3c4.5,0.1,9.1-1,13.4-2.2c7-1.9,12.7-5.8,16.5-12.1c3.2-5.3,5.4-10.9,5.3-17.3c-0.1-6.1-0.1-12.2-0.2-18.3 c0-0.1,0-0.2,0-0.3c-0.7-6.3-1.4-12.6-2.1-18.9c-0.6-5.5-1.1-11-1.7-16.5c-0.7-5.8-1.4-11.7-2.1-17.5c-0.5-3.9-1-7.9-1.5-11.8 c-0.6-4.8-1.2-9.7-1.8-14.5c-0.8-5.5-1.2-11.2-2.5-16.6c-1.3-5.4-3.3-10.7-5.3-16c-2.4-6.1-6.3-11.4-10.8-16.1 c-7.2-7.6-16.1-12.6-26.3-15C804.1,284.8,798.1,284.6,793.9,284.1z M522.9,327.5c-0.2,0-0.3,0-0.5,0c0.4-5.3,0.9-10.5,1.2-15.8 c0.3-6.9,0.3-13.7,0.6-20.6c0.1-2.6-1.2-3.4-3.5-3.4c-3.8,0-7.5,0-11.3,0c-10.6,0-21.2,0-31.8,0c-2,0-3.6,0.2-3.8,2.8 c-0.4,4.9-1.1,9.7-1.6,14.6c-0.6,6.7-1.1,13.4-1.7,20.1c-0.8,9.4-1.5,18.8-2.2,28.3c-0.4,6-0.7,12-1.1,18c-0.2,2.4-0.3,4.7-0.6,7.1 c-0.7,8-1.5,15.9-2.2,23.9c-0.5,6.2-0.7,12.4-1.1,18.6c-0.5,8-1,16-1.7,24c-0.2,2.7,1.2,3.6,3.6,3.5c2.1-0.1,4.2-0.5,6.2-0.5 c13.5-0.2,27-0.4,40.5-0.6c3.8,0,4.7-0.7,4.9-4.5c0.5-7.7,1.1-15.5,1-23.2c0-4.1,2.1-6.8,4.1-10.1c4.9,11.3,9.6,22.2,14.4,33 c0.8,1.9,1.4,4.3,4.4,4.3c4.1,0,8.2,0.4,12.3,0.5c9.8,0.2,19.6,0.3,29.4,0.6c6.1,0.1,6.8-0.8,4.1-6.3c-4.1-8.3-8.3-16.6-12.2-25 c-3.5-7.6-6.7-15.4-10.2-23c-4.4-9.8-8.8-19.6-13.7-29.2c-1.7-3.3-0.4-5.4,1.1-7.9c0.3-0.5,0.8-1,1.1-1.5c3.7-6.6,7.4-13.2,11-19.8 c5.3-9.7,10.5-19.4,15.7-29.2c2.3-4.4,4.5-8.8,6.7-13.3c0.6-1.3,1.4-2.9,1.1-4.1c-0.5-1.7-2.3-1.9-4.1-1.9c-11.5,0.1-23,0.1-34.5,0 c-2.3,0-3.7,1-4.7,2.7c-5.2,9.4-10.3,18.8-15.5,28.2C526.8,320.8,524.9,324.1,522.9,327.5z M954.1,340.1c4.6,0.2,8.9,0.4,13.2,0.6 c3.2,0.2,6.4,0.3,9.5,0.8c2.9,0.5,4.8-0.8,4.4-3.9c-0.5-4.2-1.3-8.4-1.9-12.6c-0.9-5.9-1.7-11.8-2.4-17.7 c-0.8-6.1-1.5-12.2-2.3-18.4c-1-0.1-1.8-0.1-2.7-0.1c-32.7,0-65.4-0.1-98-0.1c-0.4,0-0.7,0-1.1,0c-2,0.1-3.3,0.8-3.1,3.2 c0.4,3.9,0.7,7.8,1.2,11.6c1,8.6,2.3,17.2,3.2,25.8c0.5,4,2.8,5.8,6.3,5.8c6.7,0.1,13.5,0.6,20.2,1.1c0.6,0,1.5,1,1.6,1.6 c0.6,3,0.9,6.1,1.3,9.1c0.7,5.1,1.4,10.2,2.1,15.3c0.6,4.8,1.2,9.7,1.8,14.5c0.6,4.7,1.4,9.5,2,14.2c0.6,5.1,1.1,10.3,1.7,15.4 c0.8,6.4,1.8,12.9,2.7,19.3c0.6,4.8,1.2,9.7,1.8,14.5c0.8,6.4,1.8,12.9,2.6,19.3c0.6,4.9,1.1,9.9,1.8,14.8 c0.7,5.1,1.6,10.2,2.1,15.3c0.5,5.3,2.2,8,6.7,9.1c11.3,2.9,22.7,5.7,34,8.5c3.8,1,7.6,2.2,11.4,3.1c3.7,0.8,4.6-0.2,4.2-3.1 c-1.4-9.8-2.9-19.6-4.3-29.4c-0.8-5.5-1.5-11.1-2.4-16.6c-0.9-5.9-1.8-11.8-2.6-17.7c-0.8-5.7-1.6-11.5-2.4-17.2 c-0.8-5.9-1.7-11.8-2.6-17.7c-0.8-5.5-1.6-11.1-2.4-16.6c-0.9-5.9-1.7-11.8-2.6-17.7c-0.8-5.8-1.7-11.6-2.6-17.4 C955.7,351.6,954.9,346.1,954.1,340.1z M663.8,389.7c2.3,0.2,4.1,0.3,5.9,0.5c2.8,0.2,5.6,0.8,8.4,0.7c5.4-0.2,10.9-0.6,16.3-1 c9.4-0.8,16.6-5.4,22.1-12.8c5.8-7.9,6.8-17.3,7.1-26.7c0.2-6-0.6-12-1-18c-0.6-8.6-2.7-16.9-7.1-24.4c-4.4-7.6-10.8-13.1-18.9-16.4 c-7.3-3-15.2-3-22.9-3.6c-10.1-0.8-20.2-0.2-30.4-0.2c-9.7,0-19.3,0-29,0c-2.2,0-4,0.4-4.1,3.2c0,1-0.4,2-0.4,2.9 c0,15.6,0,31.3,0,46.9c0,1.2,0.4,2.5,0.3,3.7c-0.1,5.1-0.3,10.3-0.3,15.4c0,4.5,0.5,9,0.5,13.5c0.1,24.1,0.1,48.2-0.1,72.3 c0,3.8,2.5,5.6,5.7,5.6c5.7,0.1,11.3,0.2,17,0.6c4.3,0.2,8.5,0.7,12.8,1.1c5.3,0.5,10.6,1.2,16,1.6c3.4,0.2,4-0.5,3.9-4 c-0.1-6.7-0.4-13.4-0.5-20c-0.2-9.6-0.4-19.2-0.6-28.9c0-0.4,0-0.7,0-1.1C664.3,397,664.1,393.6,663.8,389.7z M543.8,477.7 c5.6,4,8.5,9,9.9,14.8c0.5,2.3,1.1,4.9,0.6,7.2c-1.2,5.2-3.1,10.3-4.6,15.5c-6.3,20.8-12.5,41.6-18.8,62.4 c-4.4,14.7-8.8,29.4-13.3,44.1c-1.6,5.5-3.3,10.9-4.7,15.8c5-0.3,10-0.6,15-0.8c6.5-0.1,13.1-0.1,19.6,0c1.5,0,2.8-0.2,3.2-1.8 c1.5-6.1,3.1-12.2,4.4-18.3c1.2-5.5,3-7.4,8.5-7.4c13.2-0.1,26.3-0.1,39.5,0c4.3,0,7.7,2.5,8.3,5.8c1,4.7,1.9,9.5,2.8,14.2 c1.3,7.6,1.3,7.6,9.1,7.6c5.4,0,10.9,0,16.3,0c5.1,0,10.3-0.6,15.7,1.9c-1.3-4.5-2.4-8.5-3.6-12.4c-3.7-12.4-7.3-24.8-11.1-37.2 c-6.4-21.2-12.8-42.3-19.3-63.4c-4.6-15.2-9.3-30.4-13.7-45.7c-0.6-1.9-1.4-2.3-3.2-2.3c-19.3,0.1-38.7,0-58,0 C545.9,477.7,545.2,477.7,543.8,477.7z M715.4,636.5c0-1.7,0-2.7,0-3.7c0-19.3,0-38.6,0-58c0-1.1,0.1-2.4,0.6-3.4 c3.6-7.1,7.3-14.1,11.1-21.1c8-14.8,16.2-29.6,24.2-44.4c4.5-8.3,8.9-16.7,13.3-25.1c0.4-0.8,1-1.5,1.6-2.6c-14.8,0-29.1,0-43.4,0 c-1.7,0-2.1,1-2.7,2.1c-5.6,11.4-11.3,22.9-16.9,34.3c-2.7,5.4-5.2,10.9-8.1,16.9c-2.8-6-5.4-11.3-8-16.7 c-5.7-11.7-11.4-23.4-16.9-35.1c-0.7-1.6-1.6-2.1-3.3-2c-13.4,0.1-26.7,0-40.1,0c-1,0-1.9,0-3.3,0c3.3,6,6.4,11.5,9.4,17.1 c8.1,15,16.2,30,24.3,45c5,9.3,9.9,18.6,15,27.9c1.5,2.7,2.3,5.4,2.2,8.5c-0.1,19-0.1,37.9-0.1,56.9c0,1,0,1.9,0,3.5 C688.4,636.6,701.8,636.9,715.4,636.5z M686.1,500.4c1.9-2.1,1.8-4,0.6-6.2c-0.9-1.7-1.4-3.7-1.7-5.7c-1.2-11.3-2.4-22.6-3.3-33.9 c-0.6-6.8-0.8-13.7-1.2-20.5c-0.2-2.5-0.5-5-0.8-7.9c-3.5,4.6-6.8,8.8-10,13c-0.2,0.3-0.1,0.9-0.1,1.3c0.1,3.5,0.6,7.1,0.4,10.6 c-0.4,5.7-2.4,7.3-7.7,7.3c-0.5,0-1.3,0.4-1.6,0.8c-3.3,4.2-6.5,8.4-9.9,12.9c5.5,0,10.5,0,15.5,0c5.7,0,7,1.1,9.4,6.4 C678.9,485.9,682.5,493,686.1,500.4z M577.4,472c1.5,0,2.9,0,4.1,0c0-3.1,0-6,0-8.8c-0.1,0-0.3,0-0.4,0 C579.8,466,578.6,469,577.4,472z M653.2,612.8c1.1-4.7-0.4-8.4-3.3-11.6C651,604.9,652,608.6,653.2,612.8z"></path> <path style="fill:#FFFFFF;" d="M318.6,348.6c0.8-4.8,1.4-9.2,2.4-13.4c2-8.6,3.7-17.1,8.5-24.9c9.8-15.9,24-24.9,42.1-28.7 c7.9-1.6,15.8-2.1,23.8-1.5c11.3,0.8,22.4,2.8,31.8,9.7c8.4,6.1,14.7,13.9,17,24.2c0.8,3.7,0.4,7.6,0.6,11.4 c0.3,8.8,0.4,17.6,1.1,26.3c0.7,8.1,2.1,16.1,3.3,24.2c1.2,8,2.6,15.9,3.8,23.8c1.3,8.8,1.7,17.6,0.2,26.4c-0.4,2.1-0.5,4.3-0.6,6.5 c-0.4,5.4-0.4,5.4-5.2,6c1,6.4,2.9,12.8,2.7,19.2c-0.2,9.4-1.1,19-5.4,27.5c-2.9,5.6-0.9,10.6-0.3,15.9c0.7,5.8,1.9,11.6,2,17.4 c0.2,24.3,0.1,48.6,0.1,72.9c0,1.1,0,2.2,0,3.7c1.1,0,2,0,3,0c9.3,0,18.6,0.2,27.9-0.1c7.2-0.2,12.9-3.4,16.4-9.9 c1.4-2.6,2.7-5.1,6.1-4.7c3.2,0.4,5.1,3.3,5.2,7.6c0.1,3.6,0,7.2,0,10.8c0,13.3,0,26.7,0,40c0,0.8,0.2,1.8-0.1,2.5 c-2.5,5-1.3,10.4-1.5,15.7c-0.1,2-0.3,3.8-2.2,5c-0.4,0.3-0.7,1.2-0.7,1.8c-0.1,2-0.1,4.1,0,6.1c0.1,2.3-0.9,3.1-3.1,3.1 c-3-0.1-6.1,0-9.1,0c-25.5,0-51,0-76.5,0.1c-2.6,0-4.5-0.9-6.3-2.7c-3.8-3.9-7.8-7.6-11.5-11.6c-1.2-1.3-2-3.3-2.1-5 c-0.2-3.5,0-6.8-2.2-9.9c-0.6-0.8-0.7-2.3-0.7-3.4c0-10.2,0-20.4,0-30.6c0-1.1-0.2-2.3-0.4-3.5c-3,2.3-5.7,4.5-8.7,6.4 c-5.9,3.7-12.6,5.2-19.4,5.5c-6.4,0.2-12.9,0.1-19.3,0.1c-0.9,0-1.8,0-3,0c0,1.3,0,2.2,0,3.2c0,12.2,0,24.5,0,36.7 c0,1.6-0.1,3.1-1.9,3.9c-0.5,0.2-0.9,1.3-0.9,2c-0.1,2-0.1,4,0,6.1c0,1.8-0.7,2.7-2.6,2.7c-10.8,0-21.5,0-32.3-0.1 c-1.2,0-2.5-0.5-3.6-1.1c-8.4-4.4-16.7-8.9-25.1-13.2c-2.4-1.2-3-3.3-3-5.6c0-3.3,0-6.4-2-9.4c-0.8-1.2-0.8-3.1-0.8-4.8 c0-36.7,0-73.4,0-110.1c0-1.1,0-2.2,0-3.7c-3.7,0.6-7.3,1.2-10.8,1.9c-5.1,1-10.2,2.4-15.4,3c-2,0.2-4.3-1.2-6.2-2.2 c-4.6-2.4-9.1-4.9-13.5-7.6c-2-1.2-3-1-4.6,0.9c-5.4,6.3-12,11.1-19.2,15.2c-10,5.7-20.8,9-32.1,11c-8.3,1.4-16.2,0.2-24-2.9 c-11.8-4.6-23.7-8.8-35.6-13.1c-17-6.2-33.9-12.5-50.9-18.5c-2.7-1-5.9-0.9-8.9-1c-12-0.7-22.1-4.5-28.6-15.6 c-2.7-4.6-3.8-9.1-3.8-14.2c-0.1-8,0.8-15.7,2.7-23.5c2.3-9.6,3.9-19.3,6.3-28.8c1-4.1,3-8,5-11.8c1.3-2.5,4.2-2.6,6.7-3 c11.7-2,23.5-3.7,35.2-6.2c5.7-1.2,9.2,0.2,12.3,4.8c1.8,2.7,4.2,5.1,6.7,8.1c1.3-5,2.5-9.5,3.6-14c3.8-15.8,7.6-31.6,11.4-47.4 c4.6-19.2,9.2-38.5,14-57.7c1.1-4.5,2.4-9,4-13.5c1.1-3.1,3.8-4.4,6.9-4.4c14.9-0.1,29.8,0,44.8-0.1c2.7,0,5.6,2,5.5,5.6 c-0.2,4.9,2.4,7.8,5,11c5.8,7,11.7,14,17.6,20.9c0.3,0.4,0.8,0.7,1.4,1.3c1.3-3.9,2.6-7.6,3.9-11.4c2.6-7.6,4.9-15.3,7.8-22.8 c1.2-3.2,4.2-5.1,7.9-5.1c21.3,0,42.5,0,63.8,0c4.3,0,6.8,2.9,6.4,6.2c-0.8,7.4,3,12.8,6.2,18.7c4.5,8.2,8.9,16.6,13.3,24.9 C313,338.5,315.7,343.3,318.6,348.6z M234.5,468.8c1.1,0,1.8,0.1,2.4,0c6.7-1.1,13.4-2.2,20-3.2c8.5-1.3,17-2.6,25.5-3.8 c2.3-0.3,2.8-2.3,2.9-3.7c0.1-4.1-0.3-8.3-0.4-12.4c-0.1-6.9-0.1-13.9,0-20.8c0.1-6.4,0.5-12.7,0.5-19.1c0-6.3-0.4-12.5-0.4-18.8 c0-6.9,0.3-13.9,0.5-20.8c0.2-7.4,0.2-14.7,0.4-22.1c0.2-9.1,0.5-18.2,0.7-27.3c0.2-8.2,0.3-16.5,0.6-24.7c0.1-2.9-1-4.2-3.9-4.2 c-4.7,0-9.4,0-14.1,0c-16.4,0.2-32.7,0.4-49.1,0.5c-2.4,0-3.6,1.3-4.2,3.4c-2,6.4-4.1,12.7-6.2,19c-1.3,3.9-2.9,7.7-4.2,11.6 c-2.3,6.8-4.5,13.6-6.8,20.4c-1.8,5.3-3.6,10.6-5.4,15.9c-1.6,4.8-3.3,9.7-4.9,14.5c-1.4,4-3,8-4.3,12.1c-2.2,6.5-4.3,13.1-6.5,19.6 c-2.4,6.9-4.9,13.8-7.3,20.7c-1.8,5.3-3.4,10.7-5.3,16c-2.4,6.9-4.9,13.8-7.3,20.7c-2,5.8-3.9,11.6-6,17.5c-0.7,2.1,0.2,3.6,2.5,3.5 c1.6-0.1,3.2-0.5,4.8-0.8c8.3-1.6,16.6-3.1,25-4.7c6.4-1.2,12.9-2.5,19.3-3.9c0.5-0.1,1.1-0.7,1.3-1.1c0.7-2.4,1.1-4.8,1.8-7.2 c2.2-7.1,4.6-14.1,6.8-21.2c0.6-1.8,1.4-3.2,3.5-3.5c6.9-0.9,13.8-1.8,20.6-2.7C236.3,448.3,235.4,458.4,234.5,468.8z M441.2,326.1 c-0.2,0-0.4,0-0.6,0c0-3.6,0.7-7.3-0.1-10.7c-3.4-13.4-12.3-22.1-24.9-26.9c-5.3-2-11.2-2.6-16.9-3.4c-9.6-1.4-19.3-0.9-28.8,1.2 c-4.7,1-9.6,2.3-13.8,4.6c-6.1,3.2-11.6,7.4-16.4,12.5c-4.6,4.9-8.6,10.1-10.4,16.4c-2.9,10.5-5.2,21.3-7.2,32.1 c-1.7,8.8-2.7,17.7-4,26.5c-1.6,10.5-3.5,20.9-4.8,31.4c-1,8.2-1.5,16.4,0.4,24.6c1.5,6.6,5,11.9,10.9,15.4c5.2,3.2,10.8,5,16.9,6.1 c6.8,1.2,13.5,1.5,20.3,1c8.7-0.6,17.2-1.6,25.7-3.8c7.4-1.9,14.3-4.6,20.9-8.5c6.9-4.1,13.6-8.8,17.6-15.9 c2.6-4.6,4.5-9.7,5.9-14.8c1.4-4.7,1.9-9.7,2.6-14.6c0.7-4.9,1.2-9.9,1.5-14.8c0.2-2.1-1.1-3.4-3.3-3.3c-2.4,0.1-4.7,0.5-7.1,0.5 c-9.6,0.2-19.3,0.4-28.9,0.6c-1.7,0-3.5,0.1-5.1,0.7c-1,0.4-2.5,1.4-2.6,2.4c-0.9,5.8-1.5,11.6-2.3,17.5c-0.6,4.6-1.4,9.3-2.2,13.9 c-0.9,4.7-9,8.1-13.5,6c-4-1.8-4.9-4-4.1-9.8c1.3-8.9,2.6-17.9,3.8-26.8c1.2-9.1,2.2-18.1,3.4-27.2c1.3-9.9,2.5-19.7,3.9-29.6 c0.5-3.5,1.3-7.1,4.3-9.6c5.1-4.2,12.3-3,13.7,3.9c0.4,2-0.2,4.3-0.4,6.5c-0.5,5.1-1.2,10.3-1.7,15.4c-0.5,4.6-1.1,9.2-1.6,13.8 c-0.3,2.4,0.9,3.3,3.3,3.2c5.6-0.2,11.2-0.4,16.7-0.6c7.6-0.2,15.2-0.4,22.8-0.5c1.9,0,2.9-1,3.4-2.5c0.4-1.2,0.6-2.5,0.7-3.7 C439.8,345.4,440.5,335.7,441.2,326.1z M29.3,420c-0.6,1.1-2.2,3-2.8,5.2c-1.6,5.5-2.6,11.2-4.1,16.8c-3.2,12.4-6.2,24.8-6.2,37.7 c0,5.1,0.6,9.7,3.3,14.4c5.6,9.7,14.4,12.8,24.8,13.5c8.2,0.5,16.1-1.3,23.8-3.5c6.7-1.9,13.2-4.4,19.7-7c2.4-0.9,4.4-2.7,6.6-4.1 c1.8-1.1,3.7-2,5.3-3.2c5.4-3.8,10.8-7.5,16-11.6c3.1-2.4,6-5.2,8.5-8.3c5.5-7,9.6-14.8,12.3-23.4c2.5-7.8,5.5-15.5,7.5-23.5 c3.1-12.5,5.6-25.1,8.4-37.6c1.9-8.6,4.1-17.1,6-25.7c2.4-10.9,4.6-21.8,6.9-32.6c2.5-11.6,5-23.2,7.5-34.8c0.6-2.9-0.2-3.9-3.1-3.9 c-13.8,0-27.6,0-41.4,0c-3.2,0-4.9,1.1-5.8,4.4c-1.4,5.4-2.7,10.8-4,16.2c-3.7,15.3-7.4,30.6-11.1,45.9c-3.3,13.8-6.6,27.6-10,41.4 c-4,16.7-8,33.3-12.1,50c-1.7,7-4.6,13-12.3,15.5c-4.3,1.4-8.7-1.4-8-5.9c1.6-9.5,3.4-19,5.1-28.5c0.8-4.7,1.6-9.5,2.5-14.5 C58.4,415.1,44.3,417.5,29.3,420z M312.7,636.9c0-19.2,0-37.8,0-56.5c4.9,0,9.5,0.2,14.1,0c7.5-0.4,15.1-0.7,22.6-1.7 c7.4-1,13.9-4.3,19.4-9.4c10.5-9.6,14.1-22.3,14.9-35.8c0.4-7.3-0.1-14.8-1.1-22.1c-1.4-11-6.2-20.5-15.2-27.4 c-4.1-3.1-8.5-6-13.9-6c-26.7-0.1-53.4,0-80.1,0c-1,0-1.9,0.1-2.7,0.1c0,53.3,0,106.3,0,159C284.7,636.9,298.5,636.9,312.7,636.9z M483.2,600.6c-15.4,0-31.5,0-48,0c0-41,0-81.9,0-122.8c-14,0-27.6,0-40.9,0c0,53,0,105.9,0,158.8c35.3,0,70.1,0,104.8,0 c0-17,0-33.6,0-50.7c-2.6,6.3-6.9,10-12.6,12.4C485.6,598.8,484.7,599.6,483.2,600.6z"></path> <path style="fill:#FFFFFF;" d="M792.8,332.3c-0.1-3.9,0.4-7.2,3.7-9.4c2.8-1.9,6.3-1.9,8.9,0.3c3.4,2.8,4.9,6.4,5.2,10.9 c0.4,6.5,1.4,13,2.1,19.4c0.5,4.3,0.7,8.7,1.2,13c0.7,6.7,1.5,13.3,2.1,20c0.4,4.2,0.7,8.3,1.2,12.5c0.7,6.9,1.5,13.9,2.2,20.8 c0.4,4.2,0.8,8.5,1.1,12.7c0.3,3.5-0.6,6.4-4,7.9c-3.4,1.5-6.6,0.5-9.5-1.4c-3.6-2.4-4.9-6-5.3-10.1c-0.8-8.9-1.4-17.7-2.2-26.6 c-0.8-8.7-1.9-17.5-2.7-26.2c-0.7-7.2-1-14.5-1.7-21.7c-0.6-6.5-1.4-13-2.1-19.4C792.7,333.9,792.8,332.9,792.8,332.3z"></path> <path style="fill:#FFFFFF;" d="M662.4,321c3.9,0.5,7.9,0.9,11.9,1.5c4.3,0.6,5.5,4.3,5.7,7.5c0.5,7.3,0.4,14.6,0.7,22 c0.1,2.3-1.3,3.5-3.1,4.2c-4.3,1.6-8.7,0.5-13.1,0.4c-0.5,0-1.3-1.2-1.4-1.9c-0.3-5.5-0.5-11-0.6-16.4 C662.3,332.8,662.4,327.3,662.4,321z"></path> <path style="fill:#FFFFFF;" d="M598.3,578.6c-10,0-19.6,0-29.5,0c4.8-19.8,9.6-39.4,14.4-59c0.2,0,0.4,0,0.6,0 C588.7,539.1,593.5,558.7,598.3,578.6z"></path> <path style="fill:#FFFFFF;" d="M243.6,344.6c-1.5,18.6-3.1,37.2-4.6,56c-4.3,0.4-8.7,0.9-13.4,1.4c6-19.4,11.9-38.4,17.8-57.4 C243.5,344.6,243.5,344.6,243.6,344.6z"></path> <path style="fill:#FFFFFF;" d="M312.7,546.9c0-12.6,0-24.7,0-37.3c7.6,0.5,15.3-1.3,22.7,1.8c4.2,1.8,6.5,5.3,7.7,9.6 c2.2,7.8,1.6,15.3-4.7,20.9c-2.4,2.1-6,3.5-9.2,4C323.9,546.8,318.4,546.6,312.7,546.9z"></path> </svg> 