<?xml version="1.0" encoding="utf-8"?>
<!-- Generator: Adobe Illustrator 26.1.0, SVG Export Plug-In . SVG Version: 6.00 Build 0)  -->
<svg version="1.1" id="Layer_1" xmlns="http://www.w3.org/2000/svg" xmlns:xlink="http://www.w3.org/1999/xlink" x="0px" y="0px"
	 viewBox="0 0 1056.6 202" style="enable-background:new 0 0 1056.6 202;" xml:space="preserve">
<g>
	<g style="enable-background:new    ;">
		<path style="fill:#FFFFFF;" d="M175.9,166.8c-1.9,0-2.4-1-2.4-2.9V92.3c0-1.9,0.5-2.9,2.9-2.9h25c20.7,0,27.9,9.1,27.9,18.7v40.4
			c0,9.6-7.2,18.7-27.9,18.7h-25.5V166.8z M188.8,102v51.9h12c7.7,0,12.5-2.9,12.5-8.6v-35.1c0-5.8-4.8-8.6-12.5-8.6h-12V102z"/>
		<path style="fill:#FFFFFF;" d="M256.1,137.5v26.4c0,1.9-0.5,2.9-2.9,2.9h-9.6c-1.9,0-2.9-1-2.9-2.9V92.3c0-1.9,0.5-2.9,2.9-2.9h24
			c20.7,0,27.4,9.1,27.4,18.7v11.1c0,6.7-3.4,13-12.5,16.3l12.5,28.8c1,1.9-0.5,2.9-2.4,2.9h-10.1c-1.4,0-1.9-1-2.9-2.9l-11.5-26.9
			h-0.5H256.1z M256.1,102v22.6h11.5c7.7,0,12.5-2.9,12.5-8.6v-5.3c0-5.8-4.8-8.6-12.5-8.6H256.1z"/>
		<path style="fill:#FFFFFF;" d="M305.1,106.8c0-9.6,7.2-18.7,27.9-18.7c20.7,0,27.9,9.1,27.9,18.7V149c0,9.6-7.2,18.7-27.9,18.7
			c-20.7,0-27.9-9.1-27.9-18.7V106.8z M345.5,109.6c0-5.8-4.8-8.6-12.5-8.6c-7.7,0-12,2.9-12,8.6v36.5c0,5.8,4.8,8.6,12,8.6
			c7.2,0,12.5-2.9,12.5-8.6V109.6z"/>
		<path style="fill:#FFFFFF;" d="M388.3,139.4v24.5c0,1.9-0.5,2.9-2.9,2.9h-10.1c-1.9,0-2.9-1-2.9-2.9V92.3c0-1.9,0.5-2.9,2.9-2.9
			h24c20.7,0,27.4,9.1,27.4,18.7v13c0,9.6-6.7,18.7-27.4,18.7h-11.1V139.4z M388.3,102v24.5h11.5c7.7,0,12.5-2.9,12.5-8.6v-7.7
			c0-5.8-4.8-8.6-12.5-8.6h-11.5V102z"/>
		<path style="fill:#FFFFFF;" d="M499.7,121.7c1.4,0,2.4,0.5,2.4,2.4v4.8c0,1.4-0.5,2.4-2.4,2.4h-7.7v19.2c0,9.1-6.7,17.3-27.4,17.3
			c-21.1,0-27.4-7.7-27.4-17.3V139c0-6.2,2.4-11.1,10.1-13c-7.2-1.9-9.1-6.2-9.1-12.5v-8.2c0-9.1,4.8-17.3,23.5-17.3
			c19.2,0,24,8.2,24,17.3v3.4c0,1.4-0.5,2.4-1.9,2.4h-6.7c-1.4,0-1.9-0.5-1.9-2.4v-1.4c0-6.2-3.4-9.6-13-9.6c-9.6,0-13,3.4-13,9.6
			v4.8c0,6.2,2.9,9.6,13.5,9.6H499.7z M481,149v-17.8h-19.7c-10.1,0-13.5,3.4-13.5,9.6v8.2c0,6.2,4.8,9.6,16.3,9.6
			S481,154.8,481,149z"/>
		<path style="fill:#FFFFFF;" d="M569.4,130.8c1,3.8,1.9,10.1,1.9,11.5c0-1,1-6.2,1.9-11.1l9.6-38.9c0.5-1.9,1.4-2.9,3.4-2.9h8.7
			c1.9,0,2.4,1,2.4,2.9L579,164.4c-0.5,1.9-1.4,2.9-3.4,2.9h-9.6c-1.9,0-2.9-1-3.4-2.9l-10.1-39.9c-0.5-2.4-1.4-9.1-1.4-10.6
			c0,1-1,8.2-1.4,10.6l-10.1,39.9c-0.5,1.9-1.4,2.9-3.4,2.9h-9.6c-1.9,0-2.9-1-3.4-2.9L505,92.3c-0.5-1.9,0-2.9,2.4-2.9h10.1
			c1.9,0,2.9,1,3.4,2.9l9.6,38.9c1,4.3,1.9,9.6,1.9,9.6s0.5-3.8,1.9-9.6l9.6-38.9c0.5-1.9,1.4-2.9,3.4-2.9h9.1c1.9,0,2.9,1,3.4,2.9
			L569.4,130.8z"/>
		<path style="fill:#FFFFFF;" d="M619.4,163.9c0,1.9-0.5,2.9-2.9,2.9h-10.1c-1.9,0-2.9-1-2.9-2.9V92.3c0-1.9,0.5-2.9,2.9-2.9h10.1
			c1.9,0,2.9,1,2.9,2.9V163.9z"/>
		<path style="fill:#FFFFFF;" d="M688.1,163.9c0,1.9-0.5,2.9-2.9,2.9h-9.1c-1.4,0-1.9-0.5-2.4-1.4l-22.1-38
			c-2.9-5.3-4.3-9.1-4.8-9.1v45.7c0,1.9-0.5,2.9-2.9,2.9h-9.1c-1.9,0-2.9-1-2.9-2.9V91.9c0-1.9,0.5-2.9,2.9-2.9h9.1
			c1.4,0,1.9,0.5,2.4,1l23.1,39.4c1.9,3.4,3.8,8.2,3.8,8.2V91.9c0-1.9,0.5-2.9,2.9-2.9h9.1c1.9,0,2.9,1,2.9,2.9V163.9z"/>
		<path style="fill:#FFFFFF;" d="M737.1,109.2c0-5.8-3.8-8.2-11.1-8.2s-11.1,2.4-11.1,8.2v1.9c0,3.8,2.9,5.3,4.8,6.2l19.7,7.2
			c7.7,2.9,13.5,8.2,13.5,16.3v8.6c0,9.6-6.7,18.7-27.4,18.7c-20.2,0-27.4-9.1-27.4-18.7v-7.2c0-1.9,1-2.9,2.9-2.9h9.6
			c1.9,0,2.9,1,2.9,2.9v4.8c0,5.8,4.3,8.2,12,8.2s12-2.4,12-8.2v-3.8c0-4.8-4.8-6.7-9.6-8.6l-17.8-6.7c-5.3-1.9-10.6-7.7-10.6-14.9
			v-6.7c0-9.6,5.8-18.7,25.9-18.7s26.4,9.1,26.4,18.7v4.8c0,1.9-1,2.9-2.9,2.9h-9.6c-1.9,0-2.4-1-2.4-2.9L737.1,109.2L737.1,109.2z"
			/>
	</g>
	<path style="fill:#FFFFFF;" d="M87,197.6c-40.8,0-74-30.3-74-68.2s33.2-68.7,73.5-68.7c40.8,0,74,30.8,74,68.7
		C160.5,166.8,127.8,197.6,87,197.6z M21.1,128.9c0,34.1,29.3,61.5,65.8,61.5c36,0,66.3-27.4,66.3-61s-29.8-61.5-65.8-61.5
		C50.4,67.8,21.1,95.2,21.1,128.9z"/>
	<path style="fill:#FFFFFF;" d="M20.2,31.8c12.5,0.5,21.6,6.7,28.8,16.3C46.6,32.3,43.7,17.4,45.1,2c10.6,12.5,17.8,25.9,24.5,40.4
		c0-11.5,4.3-21.6,13.9-28.4c-1.9,5.8-3.8,11.1-4.3,17.3c-0.5,7.2,0,13.9,1.9,20.7c0.5,1.4,0,1.9-1.4,1.9
		c-11.1,0.5-22.1,3.4-31.7,8.6c-1.4,1-1.9,0.5-2.4-1.4C40.3,49.1,32.2,39,20.2,31.8z"/>
	<path style="fill:#FFFFFF;" d="M107.1,105.3c-8.2-0.5-15.4-2.9-20.2-9.1c-1-1.4-1.9-3.4-2.4-4.3c-1.9-6.2,1-11.5,7.7-13.5
		c9.6-2.4,20.7,1,26.9,8.6c1,1,1.9,2.4,2.4,3.8c3.4,6.2,0.5,11.5-6.7,13.9C112.4,104.8,109.5,105.3,107.1,105.3z"/>
</g>
</svg>
