<?xml version="1.0" encoding="utf-8"?>
<!-- Generator: Adobe Illustrator 24.1.2, SVG Export Plug-In . SVG Version: 6.00 Build 0)  -->
<svg version="1.1" id="Layer_1" xmlns="http://www.w3.org/2000/svg" xmlns:xlink="http://www.w3.org/1999/xlink" x="0px" y="0px"
	 viewBox="0 0 906 401" style="enable-background:new 0 0 906 401;" xml:space="preserve">
<style type="text/css">
	.st0{fill:#F69322;}
	.st1{fill:#FFFFFF;}
</style>
<g>
	<path class="st0" d="M364.9,244.3c-24.7-7.8-48.1-19.8-70.6-32.5c-38.8-21.9-38.8-33.3-2.8-58.7c25.5-17.7,51.5-33.9,81.3-44.5
		c17.7-5.6,30.4-17.7,29-38.8c-1.4-19.1-13.5-29-30.4-33.2c-19.8-4.9-37.4,0-46.7,19.1c-17,34-44.6,59.5-68.6,87.7
		c-19.8,22.6-23.3,22.6-43.8,0C189,116.6,169.9,87,151.5,57.2c-13.4-21.9-30.4-40.3-57.2-45.9C66.7,5,37.8,21.9,28.5,48.1
		c-9.1,26.9,0.8,46.7,31.1,60.1c11.3,5,24,8.5,36,12c37.4,10.6,71.4,29,101.8,53.7c9.9,7.8,12,14.1,1.4,23.3
		c-18.3,16.3-36.7,31.8-57.2,45.2c-31.8,21.2-66.4,35.4-101,50.9c-25.5,11.3-35.4,34-29.7,56.5c5.6,24,25.4,38.8,56.5,38.8
		c1.4,0,6.4-0.8,10.5-0.9c29-5.6,48.8-23.3,61.5-49.5c20.5-43.7,43.8-85.4,82.7-116.5c9.2-7.1,16.9-12.8,27.6-2.2
		c19.8,20.5,42.4,38.8,50.9,67.8c3.5,12,9.9,22.6,21.2,30.4c16.9,11.3,34.6,10.6,51.5,1.4c14.9-7.7,24.7-20.5,23.3-37.4
		C395.3,262,385.4,250.7,364.9,244.3z M385.4,86.3C389,80.7,389,75.7,389,70c0,5.6,0,10.5-2.8,15.6c-1.3,2.1-3.2,4.1-5.5,6
		C382.6,89.9,384.2,88.1,385.4,86.3z M356.5,44.6c7.9-1.6,15.2-0.2,20.9,3.3c-5.7-3.4-13.2-4.5-21.6-2.7c-2.7,0.5-6.4,3-10.5,6.6
		C349.6,47.9,353.6,45.1,356.5,44.6z M75.3,101.8c-19.8,0.7-36.8-19.1-36.8-38.2C38.5,82.7,55.5,102.5,75.3,101.8
		c1-0.1,2.1-0.1,3.1-0.1C77.4,101.7,76.3,101.7,75.3,101.8z M153.7,105.4c-5.7-0.6-11.4-1.2-17.1-1.7
		C142.3,104.1,148,104.7,153.7,105.4c5.5,0.4,10.6-1.6,10.6-5.5C164.4,103.9,159.3,106,153.7,105.4z"/>
	<g>
		<path class="st1" d="M449,270V107.6c0,0,3.2-16,20.8-16h148.8c0,0,63.2,15.2,42.4,77.6c0,0-8.8,32.8-65.6,39.2h-44
			c0,0-30.7-19.7-2.4-42.7h40c0,0,38.9-14.4,3.7-33.1h-75.2c0,0-18.7-0.5-17.1,19.7V270c0,0-3.2,16.3-22.4,15.2
			C478,285.2,451.4,288.4,449,270z"/>
		<path class="st1" d="M881.2,91.6H771.3c0,0-96,10.7-93.9,109.9c0,0,8.5,70.8,101.8,83.9h101.9c0,0,14.4,0.3,13.9-17.8v-72.5
			c0,0-4.8-17.1-25.6-13.9c0,0-22.4-3.7-26.1,15.5v24.5c0,0,5.3,19.7-22.4,21.3h-38.4c0,0-67.2-10.1-45.3-76.8
			c0,0,11.7-32.5,59.7-33.6h85.9c0,0,13.9-4.3,12.3-18.1v-12.8C895.1,101.2,892.9,91.6,881.2,91.6z"/>
	</g>
</g>
</svg>
