<?xml version="1.0" encoding="utf-8"?>
<!-- Generator: Adobe Illustrator 26.1.0, SVG Export Plug-In . SVG Version: 6.00 Build 0)  -->
<svg version="1.1" id="Layer_1" xmlns="http://www.w3.org/2000/svg" xmlns:xlink="http://www.w3.org/1999/xlink" x="0px" y="0px"
	 viewBox="0 0 1048.6 197" style="enable-background:new 0 0 1048.6 197;" xml:space="preserve">
<path style="fill:#FFFFFF;" d="M213.4,99.7c0,30.6-19.3,54.4-49.4,58.4c-19.8,2.7-36.5-5.6-48.8-21c-22.2-27.6-13.3-74.2,16.8-91
	C170.5,24.7,213.4,52.9,213.4,99.7z M162.8,120c4,1.3,5.1,1.9,6.4,2.1c11.2,2,21.3-2,25-10.6c4.3-9.8,0.1-17.7-7.2-24.2
	c-9.3-8.2-18.8-16.1-28.3-24.1c-10.7,9.1-21.2,17.6-31.1,26.6c-7.8,7.1-8.7,16-3.6,23.6c5.5,8.1,14.7,11,23.9,7.5
	c1.9-0.7,3.7-1.4,6.6-2.5c-3.3,5.2-5.9,9.2-8.8,13.7c9.2,0,17.1,0,26.3,0C169,128.2,166.9,125.5,162.8,120z"/>
<path style="fill:#FFFFFF;" d="M565.4,155.1c-10.4,0-18.7,0.4-27-0.3c-2.7-0.2-5.8-3-7.5-5.4c-9.8-14.1-19.3-28.5-28.9-42.8
	c-2-2.9-4-5.8-8.3-8.1c0,18.5,0,37.1,0,56.1c-8.6,0-16,0-24.1,0c0-37.3,0-74.9,0-113c7.6,0,15.1,0,23.7,0c0,15.2,0,30.6,0,45.9
	c0.7,0.3,1.4,0.7,2.1,1c2-2.3,4-4.5,5.9-6.9c5.5-7.2,11-14.5,16.5-21.8c15.1-20,15.1-20.1,42.7-18.3c-6.4,8.6-12.3,16.4-18,24.3
	c-6.2,8.7-16.8,17.3-17.1,26.3c-0.3,8.5,10,17.5,15.8,26.2C548.7,130,556.4,141.5,565.4,155.1z"/>
<path style="fill:#FFFFFF;" d="M751.7,154.8c-9.6,0-18.3,0-26.8,0c-6.9-17.8-7-17.3-28.2-18c-9.9-0.3-16.2,1.3-16.9,12.6
	c-0.1,2-3.9,5.3-6.2,5.5c-6.6,0.8-13.4,0.3-21.4,0.3c11.5-38.9,22.7-76.8,33.9-114.6c1.4-0.4,2.4-0.8,3.3-0.9
	c28.3-1.4,28.5-1.5,36.4,25.5C734.7,94.8,743,124.5,751.7,154.8z M704.2,68.9c-1.1,0.1-2.2,0.1-3.3,0.2c-4,16-8,31.9-12.1,48.4
	c9.4,0,17.2,0,26.3,0C711.3,100.6,707.8,84.8,704.2,68.9z"/>
<path style="fill:#FFFFFF;" d="M752.4,133.2c10.4-4,17.9-6.9,26-10.1c1.3,2.7,1.9,6.4,4,7.7c4.7,3,10.3,6.9,15.3,6.6
	c3.9-0.3,9.8-5.9,10.4-9.9c0.6-3.9-3.5-9.9-7.2-12.7c-6.1-4.6-13.5-7.5-20.4-11c-21-10.6-27-20.9-22.8-39.4
	c3.5-15.4,19.1-25.6,39.1-25.7c19.2,0,30.2,7.3,35.6,24.5c-7.1,2.6-14.3,5.3-18.6,6.9c-7.8-4.1-13.4-8.3-19.8-10
	c-2.8-0.7-9,3-10,5.9c-1.2,3.6,0.6,9,2.8,12.7c1.7,2.8,5.8,4.4,9.1,6.1c6.9,3.5,14.1,6.4,21,10c22.5,12,24.6,40.8,4.1,55.8
	c-14.7,10.8-39.5,11.9-54.2,1C761.1,147.5,757.8,140.4,752.4,133.2z"/>
<path style="fill:#FFFFFF;" d="M597.9,134.5c17,0,33,0,49.4,0c0,7.1,0,13.1,0,19.8c-24.6,0-49.3,0-74.6,0c0-37.5,0-75,0-112.8
	c8.2,0,16.2,0,25.2,0C597.9,72.4,597.9,102.9,597.9,134.5z"/>
<path style="fill:#FFFFFF;" d="M386,41.7c13.6,0,26.5-1.1,39,0.3c17,1.9,27,14.7,26.8,31.3c-0.2,16.6-10.5,28.4-27.4,31.1
	c-4.9,0.8-9.9,0.9-13.7,1.2c14.9,16.7,29.9,33.5,46.1,51.7c-5.2-2.4-10.4-3.5-13.9-6.6c-13.7-12.4-26.9-25.5-40.3-38.3
	c-2.1-2-4.4-3.9-8.1-7.1c0,17.4,0,33,0,48.6c-0.8,0.7-1.6,1.4-2.4,2.2c-2.1-1.6-6-3.2-6-4.9C385.9,114.7,386,78.4,386,41.7z
	 M394.7,48.2c0,17.5,0,33.5,0,50.4c8.4,0,16.2,0.4,23.8-0.1c14.4-0.8,23.8-10.1,24.3-23.4c0.6-15.8-7-25.2-22.5-26.8
	C412.1,47.5,403.6,48.2,394.7,48.2z"/>
<path style="fill:#FFFFFF;" d="M298.6,43c-16.9,18.2-33.7,36.3-51.3,55.3c17.6,18.7,35,37.2,52.4,55.6c-0.6,0.9-1.2,1.8-1.8,2.8
	c-4.5-2.4-10-4-13.4-7.5c-15.1-15.3-29.6-31.2-46.1-48.8c0,19.4,0,36.5,0,53.5c-8.7,0.8-8.8,0.8-8.9-6.2c-0.1-35,0-70,0-105.6
	c5.6-2.1,8.5-1.5,8.3,5.7c-0.4,15.3-0.1,30.7-0.1,46c1.6,1.2,3.2,2.4,4.8,3.7c1.6-3.3,2.5-7.2,4.8-9.8c12.7-14,25.5-27.8,38.7-41.3
	c2.7-2.8,7.1-4.1,10.7-6C297.4,41.2,298,42.1,298.6,43z"/>
<path style="fill:#FFFFFF;" d="M34.7,156c-1.9-2-5.4-3.9-5.4-5.9c-0.3-36-0.2-72-0.2-109.8c16.2,1,31.5,0.3,46.1,3.2
	c17,3.3,25.5,18,23.4,34.9c-2.2,17.6-14.2,29.3-31.4,30c-9.4,0.4-18.8,0.1-29.5,0.1c0,15.8,0,30.8,0,45.8
	C36.7,154.8,35.7,155.4,34.7,156z M37.9,102.8c11.4-0.9,22.1-1,32.5-2.6c11.8-1.9,19.2-11.3,20.2-23.3c0.9-12.1-4.8-22.6-16.7-25.7
	c-11.4-2.9-23.5-3.1-36-4.6C37.9,66.5,37.9,83.8,37.9,102.8z"/>
<path style="fill:#FFFFFF;" d="M370.2,97.3c-2.5,1.3-4.9,3.5-7.4,3.6c-13.8,0.4-27.6,0.2-41.9,0.2c0,16.1,0,31.2,0,47.7
	c13.5,0,26.9-0.2,40.3,0.1c2.8,0.1,5.6,1.8,8.4,2.8c-2.8,1.3-5.6,3.6-8.5,3.7c-15.8,0.4-31.7,0.2-48.2,0.2c0-38.1,0-75.7,0-114.5
	c17.5,0,34.9-0.1,52.4,0.1c1.4,0,2.7,2,4.1,3c-1.6,1.2-3.3,3.3-4.9,3.4c-10.8,0.3-21.6,0.2-32.4,0.2c-3.6,0-7.2,0-11.2,0
	c0,15.7,0,30.2,0,45.7c16.1,0,32.1,0,48.1,0C369.3,94.8,369.7,96.1,370.2,97.3z"/>
</svg>
