<?xml version="1.0" encoding="utf-8"?>
<!-- Generator: Adobe Illustrator 24.1.2, SVG Export Plug-In . SVG Version: 6.00 Build 0)  -->
<svg version="1.1" id="Layer_1" xmlns="http://www.w3.org/2000/svg" xmlns:xlink="http://www.w3.org/1999/xlink" x="0px" y="0px"
	 viewBox="0 0 257 79.7" style="enable-background:new 0 0 257 79.7;" xml:space="preserve">
<style type="text/css">
	.st0{fill:#949698;}
	.st1{fill:#0C9447;}
	.st2{fill:#FFFFFF;}
</style>
<g>
	<path class="st0" d="M65.3,10.5c-0.1-0.1-0.3-0.1-0.5-0.4l-0.4-0.4l-9.7,14.2h1.6L45.7,38.5l11.2,15.7c-2.9,0-6.7,0-7.6,0L41.9,44
		l-7.7,10.5h-2.1L21.4,70.3l0.4,0.3c4.7,3.4,12.8,5.8,20,5.8c20.4,0,37.1-16.5,37.1-37.1C78.7,28.5,73.8,18,65.3,10.5z M57.2,52.3
		V45c0-1.6,0.9-3.1,2.7-4.8l5-3.9c1.9-1.6,2.8-2.8,2.8-3.6v-3.4c0-1.1-0.8-1.8-2.2-1.8c-1.3,0-1.9,0.5-1.9,1.6v2.6L57,36.5V31
		c0-4.5,2.8-6.8,8.4-6.8c5.8,0,8.6,1.8,8.6,5.3v4.2c0,1.4-0.9,2.9-2.7,4.5l-5,3.9c-1.8,1.6-2.7,3.1-2.7,4.5v1.9H74v3.9H57.2V52.3z"
		/>
	<path class="st1" d="M26.2,54l10.7-14.6L25.7,23.6c2.9,0,6.7,0,7.6,0l7.3,10.4l7.6-10.4h1.9L61.5,8.3L61.4,8
		c-4.8-3.4-13.6-6.2-20.5-6.2C20.5,1.8,3.8,18.5,3.8,38.9c0,10.8,4.9,21.2,13.5,28.6c0.1,0.1,0.3,0.1,0.5,0.4l0.4,0.4l9.7-14.1h-1.7
		V54z M12.6,27H11v-3.1h6.4c4,0,6,2.1,6,6.2c0.1,0,0.1,22,0.1,22h-8.2V29.4C15.3,27.8,14.4,27,12.6,27z"/>
	<g>
		<path class="st2" d="M114.9,28.2c-0.1,1.4-0.2,3.4-0.2,7.5v14.1c0,4.7-1,9-4.1,11.8c-3.1,2.7-7.2,3.3-11,3.3s-7.7-0.7-10.1-2.2
			l1.7-6.3c1.7,1.1,4.9,2.2,8.2,2.2c3.9,0,7.2-1.9,7.2-6.9v-1.8h-0.1c-1.7,2.3-4.3,3.5-7.6,3.5c-6.5,0-11.7-4.7-11.7-12.4
			c0-8.2,5.8-13.5,12.5-13.5c4,0,6.4,1.7,7.7,3.9h0.1l0.2-3.1H114.9z M106.4,39c0-0.5,0-1-0.1-1.3c-0.6-2.4-2.4-4-4.9-4
			c-3,0-5.8,2.4-5.8,7.2c0,3.5,2,6.6,5.8,6.6c2.4,0,4.3-1.7,4.8-3.6c0.1-0.6,0.2-1.4,0.2-2.2L106.4,39L106.4,39z"/>
		<path class="st2" d="M133.2,53.8l-0.5-2.5h-0.2c-1.8,2-4.6,3.1-7.8,3.1c-5.7,0-8.8-3.9-8.8-7.8c0-6.6,5.9-9.9,16-9.9v-0.2
			c0-1.1-0.6-3.3-5.1-3.3c-2.8,0-5.9,1-7.6,2l-1.6-5.2c1.9-1.1,5.5-2.4,10.6-2.4c8.8,0,11.9,4.8,11.9,11.1v8.8
			c0,2.5,0.1,4.9,0.4,6.3H133.2z M132.2,41.9c-4.8,0-8.1,1.1-8.1,3.9c0,1.9,1.3,2.9,3.4,2.9c2.2,0,4-1.6,4.6-3.1
			c0.1-0.5,0.1-1,0.1-1.4L132.2,41.9L132.2,41.9z"/>
		<path class="st2" d="M143.1,36.6c0-3.3-0.1-6-0.2-8.3h7l0.4,3.6h0.2c1-1.6,3.4-4.2,8.2-4.2c3.5,0,6.3,1.8,7.5,4.7h0.1
			c1.1-1.4,2.3-2.5,3.5-3.3c1.4-1,3.1-1.3,5.3-1.3c4.9,0,9.3,3.4,9.3,11.5v14.6h-8.1V40.3c0-4-1.4-6-4.2-6c-2,0-3.5,1.4-4,2.9
			c-0.2,0.6-0.4,1.4-0.4,2v14.5h-8.1V40c0-3.6-1.4-5.8-4.1-5.8c-2.4,0-3.6,1.8-4.1,3c-0.2,0.7-0.4,1.4-0.4,2v14.5h-8.1V36.6H143.1z"
			/>
		<path class="st2" d="M195.7,21c0,2.2-1.7,4.1-4.5,4.1c-2.8,0-4.3-1.8-4.3-4.1s1.7-4.1,4.5-4.1C194,17,195.7,18.8,195.7,21z
			 M187.2,53.8V28.2h8.3v25.6H187.2z"/>
		<path class="st2" d="M198.4,36.6c0-3.3-0.1-6-0.2-8.3h7.2l0.4,3.7h0.2c1-1.6,3.6-4.3,8.4-4.3c5.3,0,9.9,3.4,9.9,11.5v14.7H216
			V40.3c0-3.6-1.4-6-4.6-6c-2.5,0-4,1.8-4.5,3.3c-0.2,0.5-0.2,1.2-0.2,1.8v14.5h-8.3L198.4,36.6L198.4,36.6z"/>
		<path class="st2" d="M253.5,28.2c-0.1,1.4-0.2,3.4-0.2,7.5v14.1c0,4.7-1,9-4.1,11.8c-3.1,2.7-7.2,3.3-11,3.3s-7.7-0.7-10.1-2.2
			l1.7-6.3c1.7,1.1,4.9,2.2,8.2,2.2c3.9,0,7.2-1.9,7.2-6.9v-1.8H245c-1.7,2.3-4.3,3.5-7.6,3.5c-6.5,0-11.7-4.7-11.7-12.4
			c0-8.2,5.8-13.5,12.5-13.5c4,0,6.4,1.7,7.7,3.9h0.1l0.2-3.3h7.1V28.2z M244.9,39c0-0.5,0-1-0.1-1.3c-0.6-2.4-2.4-4-4.9-4
			c-3,0-5.8,2.4-5.8,7.2c0,3.5,2,6.6,5.8,6.6c2.4,0,4.3-1.7,4.8-3.6c0.1-0.6,0.2-1.4,0.2-2.2L244.9,39L244.9,39z"/>
	</g>
</g>
</svg>
