<?xml version="1.0" encoding="utf-8"?>
<!-- Generator: Adobe Illustrator 24.1.2, SVG Export Plug-In . SVG Version: 6.00 Build 0)  -->
<svg version="1.1" id="Layer_1" xmlns="http://www.w3.org/2000/svg" xmlns:xlink="http://www.w3.org/1999/xlink" x="0px" y="0px"
	 viewBox="0 0 125.6 21.8" style="enable-background:new 0 0 125.6 21.8;" xml:space="preserve">
<style type="text/css">
	.st0{fill:#FFFFFF;}
</style>
<g>
	<g>
		<rect x="1.4" y="18" class="st0" width="0.7" height="0.7"/>
		<rect x="4.7" y="5.3" class="st0" width="1.3" height="1.3"/>
		<rect x="6.7" y="5.3" class="st0" width="1" height="1.3"/>
		<rect x="6" y="8.7" class="st0" width="2" height="1.3"/>
		<rect x="10" y="8.7" class="st0" width="2" height="1.3"/>
		<rect x="8.3" y="5.3" class="st0" width="1.3" height="1.3"/>
		<rect x="12.3" y="5.3" class="st0" width="1.3" height="1.3"/>
		<path class="st0" d="M9,1.3h4c1.9,0,3.5,1.5,3.6,3.3h0.7c-0.2-2.2-2-4-4.3-4H9c-2.3,0-4.1,1.8-4.3,4h0.7C5.5,2.8,7.1,1.3,9,1.3
			L9,1.3z"/>
		<rect x="10.3" y="5.3" class="st0" width="1.3" height="1.3"/>
		<rect x="16" y="5.3" class="st0" width="1.3" height="1.3"/>
		<path class="st0" d="M13,2H9C7.5,2,6.2,3.2,6,4.7h10C15.8,3.2,14.5,2,13,2L13,2z M8.7,4H8V3.3h0.7V4z M10,4H9.3V3.3H10V4z M11.3,4
			h-0.7V3.3h0.7V4z M12.7,4H12V3.3h0.7V4z M14,4h-0.7V3.3H14V4z"/>
		<rect x="14" y="8.7" class="st0" width="2" height="1.3"/>
		<rect x="14.3" y="5.3" class="st0" width="1" height="1.3"/>
		<path class="st0" d="M8.2,14.6H6v2.7H3.4V18H2.7v0.7h5.1c-0.3-0.5-0.4-1.1-0.4-1.7C7.3,16.1,7.6,15.3,8.2,14.6L8.2,14.6z"/>
		<path class="st0" d="M5.4,14h11.3v2.7h0.7V12H4.7v4.7h0.7C5.4,16.7,5.4,14,5.4,14z M12,12.6h4.7v0.7H12V12.6z M8,12.6h0.7v0.7H8
			V12.6z M6.7,12.6h0.7v0.7H6.7V12.6z M5.4,12.6H6v0.7H5.4V12.6z"/>
		<path class="st0" d="M18.7,17.3H16v-2.7h-2.2c0.5,0.6,0.8,1.5,0.8,2.3c0,0.6-0.1,1.2-0.4,1.7h5.1v-0.7h-0.7v-0.6H18.7z"/>
		<path class="st0" d="M20,11c0-0.2-0.1-0.3-0.3-0.3H18V12h1.3v0.7H18v0.6h1.7c0.2,0,0.3-0.1,0.3-0.3V11z"/>
		<path class="st0" d="M3,14.6h1v-6H3c-0.2,0-0.3,0.1-0.3,0.3v5.4C2.7,14.5,2.8,14.6,3,14.6L3,14.6z"/>
		<path class="st0" d="M17.3,7.3H4.7v4h12.6V7.3z M8.7,10.6H5.4V8h3.3V10.6z M12.7,10.6H9.3V8h3.3L12.7,10.6L12.7,10.6z M16.7,10.6
			h-3.3V8h3.3V10.6z"/>
		<path class="st0" d="M19.3,2.7C18.6,2.7,18,3.3,18,4c0,0.6,0.4,1.1,1,1.3V10h0.7V5.3c0.6-0.1,1-0.7,1-1.3
			C20.7,3.3,20.1,2.7,19.3,2.7z"/>
		<rect x="20" y="18" class="st0" width="0.7" height="0.7"/>
		<path class="st0" d="M9,14.6c-0.5,0.5-0.9,1.3-0.9,2.1c0,1.6,1.3,3,3,3c1.6,0,3-1.3,3-3c0-0.8-0.3-1.6-0.9-2.1
			C13.2,14.6,9,14.6,9,14.6z M10.6,18.5H9.8v-2.6l0,0l-0.6,0.3l-0.1-0.6l0.8-0.4h0.7C10.6,15.2,10.6,18.5,10.6,18.5z M12,18.5
			c-0.8,0-1-0.9-1-1.7c0-0.9,0.3-1.7,1-1.7c0.9,0,1,1,1,1.7C13.1,18,12.6,18.5,12,18.5z"/>
		<path class="st0" d="M12.1,15.8c-0.2,0-0.3,0.3-0.2,1c0,0.8,0.1,1,0.2,1c0.2,0,0.2-0.3,0.2-1C12.3,16.2,12.2,15.8,12.1,15.8z"/>
	</g>
	<path class="st0" d="M24.9,6.5c0.1,0,0.3,0,0.3,0.3v7.5H27c0.2,0,0.3,0.1,0.3,0.3v0.9c0,0.2-0.1,0.3-0.3,0.3h-5.4
		c-0.2,0-0.3-0.1-0.3-0.3v-0.9c0-0.2,0.1-0.3,0.3-0.3h1.8v-6l-1.8,0.3c-0.2,0-0.4-0.1-0.4-0.3V7.5c0-0.2,0.1-0.3,0.4-0.4L24.9,6.5z"
		/>
	<path class="st0" d="M28.2,8.7c0-1.1,0.8-2.2,3.1-2.2s3.1,1.1,3.1,2.2v5c0,1.1-0.8,2.2-3.1,2.2c-2.4,0-3.1-1.1-3.1-2.2V8.7z
		 M32.7,9c0-0.7-0.4-1-1.3-1c-0.9,0-1.3,0.3-1.3,1v4.3c0,0.7,0.4,1,1.3,1c0.9,0,1.3-0.3,1.3-1V9z"/>
	<path class="st0" d="M42.5,15.5c0.1,0.2,0.1,0.3-0.2,0.3h-1.5c-0.2,0-0.4-0.2-0.5-0.3L37.8,12h-0.2v3.5c0,0.2-0.1,0.3-0.3,0.3h-1.2
		c-0.2,0-0.3-0.1-0.3-0.3V7c0-0.2,0.1-0.3,0.3-0.3h1.2c0.2,0,0.3,0.1,0.3,0.3v3.6h0.2L40.2,7c0.1-0.2,0.3-0.3,0.5-0.3H42
		c0.2,0,0.3,0.2,0.2,0.3l-2.8,4.2L42.5,15.5z"/>
	<path class="st0" d="M53.2,12.3v3.1c0,0.2-0.1,0.4-0.3,0.4h-1.2c-0.2,0-0.3-0.1-0.3-0.4V7c0-0.2,0.1-0.4,0.3-0.4h2.8
		c2.4,0,3.3,1.1,3.3,2.2v1.3c0,0.8-0.4,1.6-1.5,1.9l1.5,3.4c0.1,0.2-0.1,0.4-0.3,0.4h-1.2c-0.2,0-0.2-0.1-0.3-0.4l-1.3-3.1h-0.1
		H53.2z M53.2,8.1v2.7h1.3c0.9,0,1.5-0.3,1.5-1V9.1c0-0.7-0.6-1-1.5-1H53.2z"/>
	<path class="st0" d="M70.4,16.4c0.7,0,1.2,0.3,1.2,1.1c0,0.8-0.5,1.1-1.2,1.1h-1.6c-0.2,0-0.3-0.1-0.3-0.3V18
		c0-0.2,0.1-0.3,0.3-0.3h1.3c0.1,0,0.3-0.1,0.3-0.2s-0.1-0.2-0.3-0.2h-1c-0.4,0-0.5-0.2-0.4-0.4l0.3-1c-1.9-0.2-2.6-1.1-2.6-2.2
		v-0.9c0-0.2,0.1-0.4,0.3-0.4h1.1c0.2,0,0.3,0.1,0.3,0.4v0.6c0,0.7,0.5,1,1.4,1s1.4-0.3,1.4-1V13c0-0.6-0.5-0.8-1.1-1l-2.1-0.8
		c-0.6-0.2-1.1-0.9-1.1-1.7V8.7c0-1.1,0.7-2.2,3.1-2.2c2.4,0,3.1,1.1,3.1,2.2v0.6c0,0.2-0.1,0.3-0.3,0.3h-1.1
		c-0.2,0-0.3-0.1-0.3-0.3V8.9c0-0.7-0.4-1-1.3-1c-0.9,0-1.3,0.3-1.3,1v0.2c0,0.5,0.3,0.6,0.6,0.7l2.3,0.8c0.9,0.3,1.6,0.9,1.6,1.9v1
		c0,1.1-0.7,2-2.7,2.2l-0.1,0.5h0.2V16.4z"/>
	<path class="st0" d="M81.1,8.9c0-0.7-0.4-1-1.3-1s-1.3,0.3-1.3,1v0.2c0,0.5,0.3,0.6,0.6,0.7l2.3,0.8c0.9,0.3,1.6,0.9,1.6,1.9v1
		c0,1.1-0.8,2.2-3.2,2.2s-3.2-1.1-3.2-2.2v-0.9c0-0.2,0.1-0.4,0.3-0.4H78c0.2,0,0.3,0.1,0.3,0.4v0.6c0,0.7,0.5,1,1.4,1
		s1.4-0.3,1.4-1v-0.4c0-0.6-0.5-0.8-1.1-1L77.9,11c-0.6-0.2-1.2-0.9-1.2-1.7V8.7c0-1.1,0.7-2.2,3.1-2.2c2.4,0,3.1,1.1,3.1,2.2v0.6
		c0,0.2-0.1,0.3-0.3,0.3h-1.1c-0.2,0-0.3-0.1-0.3-0.3L81.1,8.9L81.1,8.9z"/>
	<path class="st0" d="M86,14.3h3c0.2,0,0.3,0.1,0.3,0.3v0.9c0,0.2-0.1,0.3-0.3,0.3h-4.5c-0.2,0-0.3-0.1-0.3-0.4V7
		c0-0.2,0.1-0.4,0.3-0.4h1.2C85.9,6.6,86,6.7,86,7V14.3z"/>
	<path class="st0" d="M90,8.7c0-1.1,0.8-2.2,3.3-2.2c2.4,0,3.3,1.1,3.3,2.2v5c0,1.1-0.8,2.2-3.3,2.2c-2.4,0-3.3-1.1-3.3-2.2V8.7z
		 M94.8,9c0-0.7-0.6-1-1.5-1s-1.4,0.3-1.4,1v4.3c0,0.7,0.5,1,1.4,1s1.5-0.3,1.5-1V9z"/>
	<path class="st0" d="M103.2,6.6c0.2,0,0.3,0.1,0.3,0.3v0.8c0,0.2-0.1,0.3-0.3,0.3h-1.9v7.3c0,0.2-0.1,0.4-0.3,0.4h-1.2
		c-0.2,0-0.3-0.1-0.3-0.4V8.1h-1.9c-0.2,0-0.3-0.1-0.3-0.3V6.9c0-0.2,0.1-0.3,0.3-0.3C97.6,6.6,103.2,6.6,103.2,6.6z"/>
	<path class="st0" d="M106.1,14.3h3c0.2,0,0.3,0.1,0.3,0.3v0.9c0,0.2-0.1,0.3-0.3,0.3h-4.5c-0.2,0-0.3-0.1-0.3-0.4V7
		c0-0.2,0.1-0.4,0.3-0.4h1.2c0.2,0,0.3,0.1,0.3,0.4V14.3z"/>
	<path class="st0" d="M113.8,6.6c0.2,0,0.4,0.1,0.4,0.3l2.5,8.5c0.1,0.2,0,0.3-0.2,0.3h-1.2c-0.2,0-0.3-0.1-0.4-0.3l-0.5-1.6h-2.5
		l-0.5,1.6c-0.1,0.2-0.2,0.3-0.4,0.3h-1.1c-0.2,0-0.3-0.1-0.3-0.3l2.5-8.5c0.1-0.2,0.2-0.3,0.4-0.3H113.8z M113.5,10.9
		c-0.1-0.6-0.3-2.3-0.4-2.5c0,0.2-0.3,1.9-0.4,2.4l-0.5,1.5h1.7L113.5,10.9z"/>
	<path class="st0" d="M119.3,12.3v3.1c0,0.2-0.1,0.4-0.3,0.4h-1.2c-0.2,0-0.3-0.1-0.3-0.4V7c0-0.2,0.1-0.4,0.3-0.4h2.8
		c2.4,0,3.3,1.1,3.3,2.2v1.3c0,0.8-0.4,1.6-1.5,1.9l1.5,3.4c0.1,0.2-0.1,0.4-0.3,0.4h-1.2c-0.2,0-0.2-0.1-0.3-0.4l-1.3-3.1h-0.1
		H119.3z M119.3,8.1v2.7h1.3c0.9,0,1.5-0.3,1.5-1V9.1c0-0.7-0.6-1-1.5-1H119.3z"/>
	<g>
		<path class="st0" d="M45.1,13.3c0,0.7,0.5,1,1.4,1c0.9,0,1.4-0.3,1.4-1V7c0-0.2,0.1-0.3,0.3-0.3h1.2c0.2,0,0.3,0.1,0.3,0.3v6.6
			c0,1.1-0.8,2.2-3.2,2.2c-2.4,0-3.2-1-3.2-2.2V7c0-0.2,0.1-0.3,0.3-0.3h1.2c0.2,0,0.3,0.1,0.3,0.3V13.3z"/>
	</g>
	<g>
		<path class="st0" d="M60.6,13.3c0,0.7,0.5,1,1.4,1c0.9,0,1.4-0.3,1.4-1V7c0-0.2,0.1-0.3,0.3-0.3H65c0.2,0,0.3,0.1,0.3,0.3v6.6
			c0,1.1-0.8,2.2-3.2,2.2c-2.4,0-3.2-1-3.2-2.2V7c0-0.2,0.1-0.3,0.3-0.3h1.2c0.2,0,0.3,0.1,0.3,0.3V13.3z"/>
	</g>
</g>
</svg>
