<?xml version="1.0" encoding="UTF-8"?> <svg xmlns="http://www.w3.org/2000/svg" xmlns:xlink="http://www.w3.org/1999/xlink" version="1.1" id="Layer_1" x="0px" y="0px" viewBox="0 0 1000 1000" style="enable-background:new 0 0 1000 1000;" xml:space="preserve"> <path style="fill:#FFFFFF;" d="M929.5,380.4c-22.7,0.7-45.4,1.7-68,1.5c-2.1,0-5.6-6.9-6-10.8c-0.3-3.3,3.2-6.8,4.1-8.6 c-15.7-29.9-30.9-58.8-46.1-87.8c-1.1-0.1-2.2-0.2-3.3-0.3c-0.9,5.4-2.7,10.9-2.4,16.3c0.9,18.3,2.2,36.6,4.1,54.9 c0.8,7.4,2.7,14.9,5.2,21.9c3.1,8.6-0.4,14.7-10.1,14.9c-17.5,0.3-35,0.1-52.4,0c-11.2-0.1-14.3-6.3-9.7-16.9 c2.5-5.8,4.5-12.4,4.7-18.7c1.1-44.2,1.9-88.5,2.1-132.8c0-7.7-2.5-15.8-5.6-23c-3-6.9-1.9-10.8,5.3-10.9c19.3-0.4,38.5-0.2,57.8,0 c6.7,0.1,9.8,4.1,6.1,9.6c-10.7,15.8-3.6,32.9-5.8,49.2c0.8,0.5,1.7,1.1,2.5,1.6c17.1-13.8,34.3-27.6,51.8-41.8 c-2.6-4.6-4.8-8.5-7.8-13.8c3.7-1.7,6.9-4.2,10.3-4.4c11.7-0.6,23.5-0.7,35.3-0.4c2.8,0.1,6.5,1.9,7.8,4.2c0.8,1.4-1.6,5.6-3.6,7.4 c-16.9,16-34.1,31.8-51.5,48c7.5,14,14.9,27.6,22,41.4c7.8,15,21.2,26.1,28.7,41.6c7.4,15.4,16.3,30,24.6,45 C929.5,371.8,929.5,376.1,929.5,380.4z"></path> <path style="fill:#FFFFFF;" d="M79.7,369.7c2.5-5.9,6.9-11.7,7-17.6c1.2-47.5,1.8-95.1,2-142.6c0-6-2.6-12.2-5.2-17.8 c-2.9-6.2-3-11.4,4.7-11.3c33.4,0.5,67.2-1,100.2,3.5c33.3,4.5,41.1,33.5,17.9,58.7c20.2,14.3,32.3,33.3,36.4,58.2 c4.6,28.2-11.6,71.5-51.1,75.7c-33.8,3.6-68.1,3.7-102.1,5.1c-3.2,0.1-6.5-2.2-9.7-3.4C79.7,375.4,79.7,372.6,79.7,369.7z M143.9,350.1c27.8,1.9,46.7-28.3,44.4-57.2c-1.7-21.6-24.1-40.7-43.7-37.5c-0.2,1.6-0.7,3.3-0.7,5 C143.9,290.2,143.9,319.9,143.9,350.1z M155.1,237.5c7.8-5,14.3-8.8,20.4-13.2c6.5-4.6,6.4-10.9-0.1-14.5c-7.1-4-15.5-6.2-23.5-8.4 c-2.8-0.8-8.8,0.2-8.9,1c-1.1,8.2-2.6,16.7-1.2,24.7C142.5,230.7,149.4,233.2,155.1,237.5z"></path> <path style="fill:#FFFFFF;" d="M323.7,834.8c-12.1-6.5-12.2-8.2-5.8-20.8c2.1-4.1,1.9-9.6,2-14.4c0.1-12-0.8-24.1-0.2-36.1 c0.3-7.2,3.7-14.2,3.9-21.3c0.5-29,0.4-58-0.1-87c-0.1-4.2-2.8-8.5-4.9-12.5c-4.3-8.4-2.2-12.3,7.5-12.3 c38.8-0.2,77.6-0.2,116.3-0.3c4.3,0,8.5,0,12.8,0c12.3,0,14.8,3.2,11.3,14.5c-2,6.4-4,12.8-6.7,18.9c-2.7,6.1-6.5,10.8-13.6,4.3 c-4.3-2.7-8.5-7.3-13-7.7c-13.7-1.3-27.6-0.8-41.4-1.3c-7.8-0.3-10.7,3.2-10.7,10.8c0,7.9,2.7,12,11.3,10.8 c6.6-0.9,13.5-0.6,19.9-2.3c11.5-3,22.8-7,34.2-10.6c0.4,15.2,0.8,30.5,1.3,45.7c0.2,7-3,8.7-9.3,6.8c-8.1-2.4-16.3-4.7-24.4-7 c-2.7-0.8-5.4-1.9-8.1-2.6c-22.1-5.8-27.2-2.2-26.6,20c0.2,7.1,3,14.1,4.1,21.3c0.8,5.5,1.2,11.1,1.2,16.6 c-0.1,8.8-0.9,17.7-0.8,26.5c0,2.1,2.8,6,4.1,5.9c15.1-0.9,30.2-2.3,45.2-4c2.2-0.3,3.8-4,6.1-5c5.3-2.3,11.7-6.3,16.3-4.9 c4.6,1.3,8.3,7.9,10.9,13c2.5,4.8,2.9,10.7,4.3,16.1c2.8,11-1.5,16.8-12.9,16.8c-38.5,0.2-76.9,0.4-115.4,0.7 c-3.5,0-6.9,0.9-10.4,1.4C329.4,834.8,326.5,834.8,323.7,834.8z"></path> <path style="fill:#FFFFFF;" d="M503.3,285.6c-5-58.6,46.9-96.9,90.9-103.6c43.3-6.5,80.1,6.9,109.5,38.7c15.8,17,20.1,39,21.6,61.7 c1.7,26.8-5.6,50.5-24.1,69.5c-17.3,17.7-38,30.1-63.3,34.7c-33.2,6-64.3,0.7-92.1-17.6c-15.9-10.5-27.6-25.1-36.7-42.9 C501.9,312.1,504.6,299.1,503.3,285.6z M556.6,266.6c0.9,0.2,1.8,0.4,2.8,0.6c-2.3,17.2,4.4,31.4,13.5,45.4 c10.2,15.8,20.9,30.8,38,39.7c17,8.8,39.6,3.6,46.4-12.6c5.8-14,11.2-29.5,11.1-44.3c-0.1-36.5-19.6-63.6-50.5-81.4 c-20.7-11.9-41.3-4.1-50.8,17.8C562.2,242.7,560,254.9,556.6,266.6z"></path> <path style="fill:#FFFFFF;" d="M482,289.5c6.3,44.3-38.6,85.6-78.2,94.9c-50.7,11.9-93.9-1.6-127.6-40.9 c-10.1-11.7-16.3-26.8-16.4-43.5c-0.2-21.7,0.6-43.1,11-63c18.6-35.8,71.7-62.4,111.7-56.4c32.9,4.9,61.2,17.6,81.9,44.5 C479,244.2,483.3,266.4,482,289.5z M428.7,293.6c-0.5-0.2-1-0.5-1.5-0.7c-0.8-4.5-1.4-9-2.4-13.4c-5.2-25.4-20-45.2-40-60.4 c-16.8-12.8-39-16.1-53.7,1.7c-11.9,14.4-18,32.9-15.6,51.6c4.3,33.4,22.4,59.3,49.9,78.3c16.6,11.5,42.7,6.6,49.7-10 C421.4,325.7,424.3,309.3,428.7,293.6z"></path> <path style="fill:#FFFFFF;" d="M161.5,832.6c-11.4,0-22.8-0.1-34.2,0c-7.8,0.1-11.9-4.6-7.7-10.4c9.1-12.8,6.5-26.9,6.9-40.5 c1.3-41.8,1.8-83.7,1.9-125.5c0-4.7-4-9.4-6.3-14c-4-8-1.6-12,7.3-11.8c26,0.5,52,0.6,77.9,1.8c40.4,1.9,83.1,36.8,89.8,76.5 c5,29.8,6.6,60.3-18.1,84.9c-19.9,19.8-42,34.5-70.8,36.8c-15.5,1.2-31.1,2.1-46.7,3.2C161.6,833.3,161.5,833,161.5,832.6z M185.6,799.8c30,5.1,55.9-38.2,58.7-62.8c4.6-40.6-30.3-83-58.7-78.6C185.6,705.4,185.6,752.4,185.6,799.8z"></path> <path style="fill:#FFFFFF;" d="M754,831.9c-11.8,0-23.5,0.1-35.3,0c-7.9-0.1-12.2-5.5-7.8-11.1c7.3-9.3,6.6-19.6,6.8-29.8 c0.8-44,1.3-88.1,1.2-132.1c0-5.8-3.6-11.9-6.4-17.4c-3.1-6.1-1.6-10.9,4.7-10.7c31.6,0.8,64-1.5,94.6,4.9c38.7,8,68,32.9,75.4,73.8 c10,55.4-7.3,92.9-66.1,115c-20.6,7.7-44.3,7.2-66.6,10.4C754.3,833.9,754.2,832.9,754,831.9z M775.9,657.5 c-0.7,1.3-1.3,1.9-1.3,2.5c0.2,45.4,0.4,90.9,0.6,136.3c0,5.6,2.2,6.9,8.2,5.5c18.1-4.3,29.1-15.8,39.1-30.9 c21.4-32.5,14.7-68.3-8.9-95.4C803.6,664.1,791.2,657.4,775.9,657.5z"></path> <path style="fill:#FFFFFF;" d="M692.3,832.6c-25.4,0-51.4,0.1-77.3-0.1c-7.7,0-8.1-6.8-6-10.7c6.1-10.9,3-20.4-2.4-29.7 c-1.6-2.8-5.4-6-8.3-6.1c-17.3-0.6-34.7-0.3-52-0.3c-11.8,0-23,10-23.9,21.5c-0.2,2,1.6,4.2,2.4,6.3c1.9,4.9,3.8,9.8,5.7,14.8 c-4.8,1.4-9.5,3.8-14.4,4.1c-9.9,0.7-20,0.4-29.9,0.1c-8.7-0.2-13.3-7.5-7.5-13.2c16.1-15.6,17.9-37.9,28.4-55.5 c17.4-29.2,26.4-61.5,39.8-92.1c1.8-4.1,3-8.4,4.7-13.2c-10.8-1.8-20-2.7-26.6,7.2c-1.4,2-6.3,4-7.9,3.1c-2.4-1.4-4.5-5.3-4.7-8.2 c-2.3-29.9-1.8-30.4,27.9-30.4c33.9-0.1,67.8,0.1,101.6-0.1c7.8,0,12.2,2.2,11.5,11c-0.5,6.7,0.2,13.5-0.2,20.2 c-0.1,2.4-1.3,6.4-2.8,6.8c-2.5,0.7-6.8-0.1-8.2-1.8c-6.2-8.1-13.9-10.2-24.2-7.7c9.3,22.8,18,45.7,28,68c12.1,27,25,53.7,38,80.3 C688.1,814.8,698.2,820.4,692.3,832.6z M596.6,755.6c-9.1-23.8-17.5-45.5-25.8-67.1c-1,0.1-2,0.2-3,0.3 c-8.6,21.8-17.3,43.6-26.5,66.9C560.7,755.6,576.6,755.6,596.6,755.6z"></path> <path style="fill:#FFFFFF;" d="M444.4,586.8c-23.6,0.7-44.3-8.3-60.8-21.8c-14.5-11.9-25-29.3-20-51.1c1.7-7.5,0.5-15.6,1.8-23.2 c6.7-39.5,60.7-70.3,107.7-51.7c20.1,8,39.1,19,46.1,41.3c6.6,20.7,7.4,42.4,2.4,63.6c-1.8,7.6-8.6,13.9-16.2,18.2 c-10.2,5.8-19.7,13.4-30.4,17.9C465.5,583.8,454.7,584.6,444.4,586.8z M473.8,522.7c-0.7-24.4-10.3-42.8-30.5-54.9 c-11.4-6.8-21.5-2.1-25.8,10.4c-7.5,22-3,41.5,11.5,59.4c10.4,12.8,23.4,16.4,31.6,13C473.1,545.6,472.2,532.7,473.8,522.7z"></path> <path style="fill:#FFFFFF;" d="M580.6,574.2c-11.8,0-24.8,0-37,0c0-22.8,0-45.1,0-67.5c0-22.5,0-45,0-68.2c31.2,0,64,0,98.1,0 c-2,6.4-3.8,12.3-4.8,15.6c-20.2-0.9-38.8-1.8-57.4-2.6c-0.8,23,4.7,27.2,24.6,21.4c7.4-2.1,14.8-4.4,24-7.1c0,10.2,0,19.5,0,28.8 c-12.8-1.7-24-3.1-35.3-4.6c-8.7-1.1-12.7,1.4-12.4,11.4C581,525.5,580.6,549.8,580.6,574.2z"></path> </svg> 