<?xml version="1.0" encoding="UTF-8"?> <svg xmlns="http://www.w3.org/2000/svg" xmlns:xlink="http://www.w3.org/1999/xlink" version="1.1" id="Layer_1" x="0px" y="0px" viewBox="0 0 1000 1000" style="enable-background:new 0 0 1000 1000;" xml:space="preserve"> <path style="fill:#FFFFFF;" d="M503.5,12.2c265.7,0.3,481.1,216,479.6,482.9c-1.5,264.6-217,478.9-483.4,477.1 C235.3,970.3,21.3,754.8,23.3,488.5C25.2,224.9,239.2,12.2,503.5,12.2z M499.8,31.8c-252.9,1.6-458.9,209.3-456.9,464 c1.9,252.9,209.5,458.8,464.2,456.7c252.8-2.1,458.5-209.6,456.4-464.2C961.5,235.4,753.9,29.8,499.8,31.8z"></path> <path style="fill:#FFFFFF;" d="M700.9,759.5c-31,0.1-62-1.9-92.8-6c-55.3-7.5-110.5-15.7-165.7-23.3c-41.6-5.7-83.5-9.6-125.5-9.2 c-50.5,0.4-100,7-147.6,24.6c-6.7,2.5-13.4,5.2-20,8c-2.2,0.9-3.3,0.7-4.8-1.3c-36-50-61-105-74.2-165.2 c-11.8-54-13.6-108.3-5-162.8c13.2-84,47.8-158.3,103.6-222.4c59.8-68.6,133.8-115,221.8-138.2c138.4-36.4,283.9-4.5,394,86.8 c82.7,68.6,135,156.1,154.2,261.9c20.3,111.8-0.1,216.6-59.5,313.6c-1,1.6-2.8,3.1-4.5,3.8c-46,19.1-94.1,28-143.6,29.8 C721.1,759.8,711,759.5,700.9,759.5z M369.3,481.9c1.5-1,2.6-1.8,3.7-2.6c1.2-0.8,2.3-1.6,3.4-2.5c23.7-17.8,33.6-41.4,28.4-70.6 c-6.9-38.2-31.1-61.3-66.5-73.9c-10.8-3.8-22.4-4.5-33.8-5c-22.7-0.9-45.2-0.6-67.4,4.9c-29,7.2-52.8,22.1-69.1,47.6 c-0.9,1.5-1.6,3.4-1.6,5.1c-0.1,84.8-0.1,169.5-0.1,254.3c0,2.1,0.7,3.4,2.5,4.5c5.6,3.3,11.1,6.9,16.8,10 c21.9,11.9,45.2,20.3,70.1,22.3c27.8,2.3,55.7,1.3,83.3-3.1c20.6-3.3,39.4-10.9,55.1-25.1c25.9-23.3,36.8-52.7,33.9-87.2 c-2.7-31.5-17.5-55.6-45-71.5C378.6,486.6,374.1,484.5,369.3,481.9z M805.5,423.5c0.5-0.7,0.8-1.1,1.1-1.6c9.7-18.5,19.3-37,29-55.5 c1-2,0.2-2.9-1.1-4.1c-16.4-14.3-35.1-24.5-56.1-30.2c-27.4-7.4-55.1-7.1-82.8-1.9c-50.4,9.5-88.1,36.9-112.7,81.8 c-14.8,27-20.9,56.3-21.6,86.9c-0.8,30.3,2.6,60.1,14.5,88.2c22.6,53.4,62.2,85.6,120.2,93.7c29.6,4.1,58.8,1.2,87.6-6.3 c23-6,44.6-14.8,63.3-29.9c1.7-1.4,2.4-2.7,2.4-4.9c-0.1-53.2,0-106.4-0.1-159.6c0-1.2-0.1-2.3-0.2-3.6c-39.3,0-78.3,0-117.6,0 c0,21.1,0,42,0,63.2c1.6,0,2.9,0,4.1,0c12.7,0,25.5,0.1,38.2-0.1c2.7,0,3.5,0.7,3.5,3.4c-0.1,18.7-0.1,37.4,0,56.2 c0,3.1-0.9,4.9-3.5,6.6c-14.2,9.1-30,11.8-46.5,11.2c-27.1-0.9-50.3-10.3-67.8-31.7c-8.2-10.1-14.1-21.4-17.9-33.8 c-6.7-21.8-7.4-44.1-4.8-66.6c2.3-19.5,8-37.9,19.3-54.2c20.6-29.5,49.8-41.5,84.6-38c22.8,2.3,43.3,12.4,61.1,27.4 C803,421.3,804.2,422.4,805.5,423.5z M357.4,327.1c-0.1,0.2-0.1,0.4-0.2,0.6c0.7,0.4,1.5,0.8,2.2,1.1c11.4,4.8,21.3,11.7,29.9,20.6 c12.7,13,21.5,28.4,27.6,45.3c0.8,2.3,2,3.1,4.5,3.1c11.5-0.1,23.1-0.1,34.6-0.1c5.3,0,4.9-0.7,4.9,4.9c0,89.9,0,179.8,0,269.6 c0,1.5,0,3,0,4.5c24.2,0,48,0,72.2,0c0-93.1,0-185.9,0-279c1.6,0,2.8,0,4,0c11,0,22-0.1,33,0.1c2.4,0,3.9-0.6,5.1-2.9 c1.9-3.4,4.2-6.7,6.6-9.7c15-18.3,32.5-34,52.6-46.5c6.7-4.2,14.2-7,21.3-10.4c0.7-0.3,1.5-0.6,2.2-0.9c0-0.1-0.1-0.3-0.1-0.4 C557.7,327.1,457.5,327.1,357.4,327.1z M391.4,146c-0.1,0.3-0.1,0.6-0.2,0.8c0.8,0.7,1.7,1.3,2.5,2c21,15.2,41.9,30.4,62.9,45.5 c2.5,1.8,2.9,3.3,2,6.2c-8.1,24.5-16,49-24,73.5c-0.4,1.2-0.7,2.4-1.2,4.3c1.7-1.2,2.7-1.8,3.6-2.5c21.2-15.3,42.4-30.5,63.5-45.9 c2-1.4,3.3-1.5,5.3,0c21.1,15.4,42.3,30.6,63.5,45.9c0.9,0.7,1.9,1.2,3.6,2.4c-0.5-1.9-0.8-3-1.1-4c-8-24.6-16-49.2-24.1-73.8 c-0.9-2.7-0.6-4.2,1.8-5.9c21-15.1,42-30.3,62.9-45.5c1-0.7,1.8-1.5,2.8-2.3c-1.5-0.7-2.7-0.7-3.9-0.7c-26,0-52-0.1-78-0.1 c-2.5,0-3.6-0.7-4.4-3.1c-8.1-24.9-16.3-49.8-24.5-74.7c-0.3-0.9-0.7-1.9-1.3-3.4c-0.6,1.7-1,2.7-1.4,3.7 c-8.1,24.7-16.2,49.4-24.2,74.1c-0.8,2.6-2,3.5-4.8,3.5c-26-0.1-52,0-78,0C393.7,146,392.6,146,391.4,146z M303,172.5 c-0.3,0-0.5,0.1-0.8,0.1c-0.3,1.4-0.6,2.7-0.8,4.1c-2.1,11-4.2,22-6.1,33c-0.4,2.5-1.5,3.2-3.8,3.5c-8.7,1.1-17.5,2.3-26.2,3.4 c-3.8,0.5-7.6,1-12.3,1.7c1.7,1.1,2.4,1.6,3.3,2.1c10.3,5.6,20.6,11.2,31,16.7c2,1.1,2.6,2.2,2.1,4.3c-0.9,3.8-1.5,7.7-2.2,11.5 c-1.6,8.6-3.2,17.3-4.9,26.9c1.6-1.4,2.5-2.1,3.3-2.9c8.4-7.9,16.8-15.8,25.1-23.8c1.7-1.6,2.9-1.9,5-0.7 c10.2,5.6,20.5,11.1,30.7,16.6c0.9,0.5,2,0.9,3.7,1.7c-1-2.1-1.5-3.3-2.1-4.5c-4.8-10.1-9.6-20.2-14.6-30.3c-1.1-2.2-1-3.5,0.9-5.3 c8.5-7.8,16.8-15.8,25.2-23.7c0.8-0.8,2.1-1,3.2-1.5c-0.4-0.5-0.8-0.9-1.2-1.4c-1,0.1-1.9,0.1-2.9,0.3c-11.7,1.5-23.3,2.9-34.9,4.6 c-2.4,0.3-3.5-0.4-4.4-2.5c-4.8-10.3-9.8-20.6-14.8-30.9C304,174.6,303.5,173.6,303,172.5z M753.6,218.5c-1.4-0.3-1.9-0.5-2.4-0.5 c-11.9-1.6-23.7-3.2-35.6-4.6c-2.8-0.3-4-1.3-4.5-4.3c-1.9-11.1-4.1-22.2-6.2-33.4c-0.2-1.1-0.5-2.1-1-4c-0.9,1.8-1.5,2.7-1.9,3.6 c-5,10.4-10,20.8-14.9,31.2c-1,2.1-2.1,2.8-4.5,2.4c-11.6-1.6-23.3-3.1-34.9-4.6c-0.9-0.1-1.8,0-2.7,0c-0.2,0.3-0.5,0.6-0.7,0.9 c1,0.7,2,1.2,2.9,2c8.3,7.8,16.6,15.7,24.9,23.5c1.7,1.6,2,2.8,1,5c-5.1,10.3-10,20.8-15,31.1c-0.5,1-0.9,2.1-1.8,3.9 c1.8-0.8,2.8-1.2,3.7-1.7c10.1-5.5,20.3-10.9,30.4-16.5c2.2-1.2,3.6-1.3,5.6,0.6c8.1,7.9,16.4,15.6,24.7,23.3 c0.8,0.8,1.7,1.5,2.6,2.2c0.5-1.4,0.4-2.4,0.2-3.4c-2.1-11.3-4.1-22.7-6.3-34c-0.4-2.2,0.1-3.3,2.1-4.3c10.3-5.4,20.5-11,30.7-16.6 C751,220.1,751.9,219.5,753.6,218.5z M168.9,271.4c-0.3,0.1-0.5,0.3-0.8,0.4c0.5,6.7,0.9,13.4,1.6,20.1c0.3,2.5-0.3,3.7-2.7,4.6 c-5.5,2.1-10.9,4.4-16.3,6.7c-0.9,0.4-1.8,0.9-3.5,1.7c7.7,1.9,14.4,3.5,21.2,5c2,0.4,2.9,1.3,3,3.4c0.2,4.1,0.6,8.2,0.9,12.4 c0.2,2.9,0.5,5.7,0.8,9.5c1.2-1.7,1.8-2.6,2.4-3.5c3.2-5.1,6.4-10.1,9.4-15.3c1-1.7,2-2.1,3.9-1.6c6,1.6,12,2.9,18.1,4.3 c0.8,0.2,1.7,0.3,3.5,0.5c-3.4-4-6.3-7.3-9-10.6c-2.2-2.7-5.9-5.3-6.1-8.1c-0.2-2.9,3-6,4.8-9c2.2-3.7,4.5-7.3,6.7-11 c-1.5-0.2-2.5,0.1-3.4,0.5c-4.8,2-9.8,3.7-14.4,6c-3.5,1.7-5.5,1.1-7.8-1.9C177.3,280.7,173,276.2,168.9,271.4z M832.6,334.5 c0.3-0.1,0.5-0.1,0.8-0.2c0.5-6.7,1.2-13.3,1.6-20c0.1-2.8,1.1-3.9,3.8-4.5c6.5-1.3,13-3.1,19.4-4.7c-0.9-1.2-1.9-1.8-3-2.2 c-5.4-2.2-10.8-4.5-16.3-6.7c-1.8-0.7-2.4-1.7-2.2-3.6c0.6-5.7,1-11.5,1.4-17.2c0.1-1.1,0-2.2,0-3.3c-1.6,0.6-2.4,1.4-3.1,2.2 c-3.7,4.3-7.5,8.5-11,12.9c-1.3,1.6-2.5,1.9-4.4,1c-4.8-2.1-9.6-4-14.5-6c-1.7-0.7-3.3-1.3-5-1.9c2.9,6,6,11.6,9.6,16.8 c2.1,3,1.7,4.9-0.7,7.5c-4.4,4.6-8.3,9.6-13.1,15.2c2-0.4,3-0.5,4-0.8c5.7-1.3,11.5-2.6,17.1-4.1c2.3-0.6,3.5-0.3,4.7,1.9 c2,3.7,4.4,7.2,6.6,10.9C829.8,330,831.2,332.3,832.6,334.5z"></path> <path style="fill:#FFFFFF;" d="M727.4,874.1c-0.9,0.6-1.7,1.2-2.7,1.7c-38.7,22.4-79.8,38.6-123.4,48.5c-1.7,0.4-3.9,0-5.5-0.9 c-39.1-20.4-76.5-43.7-114-66.8c-31.4-19.3-62.8-38.7-95.7-55.5c-25.1-12.8-50.7-24-78.3-30.5c-1.8-0.4-3.6-0.9-5.4-1.3 c-0.1,0-0.1-0.2-0.5-0.6c1.1-0.1,2-0.2,2.8-0.2c22,0.1,43.5,4.2,64.8,9.3c39,9.4,76.9,22.1,114.9,34.6 c43.2,14.3,86.2,28.8,130.1,40.7c33.6,9,67.4,16.6,102.1,19.6c3.5,0.3,6.9,0.5,10.4,0.8C727.2,873.6,727.3,873.8,727.4,874.1z"></path> <path style="fill:#FFFFFF;" d="M862.2,752.2c-8.3,10.2-16.4,20.6-24.9,30.6c-13.9,16.3-29.3,31.3-45.4,45.4c-3,2.6-6.1,3.8-9.9,4.2 c-24.6,2.9-49.1,1.6-73.5-1.6c-51.6-6.8-101.6-20.6-151.1-36.1C516.4,781.8,475.8,768,435,755c-14.2-4.5-28.6-8.2-42.9-12.2 c-0.8-0.2-1.6-0.5-2.3-1.4c6.1,0.6,12.2,0.9,18.3,1.8c47.8,6.8,95.6,13.7,143.4,20.4c51.6,7.3,103.4,13.1,155.6,12.9 c44.5-0.2,88.4-4.7,131.2-17.4c7.8-2.3,15.5-5,23.2-7.5C861.8,751.8,862,752,862.2,752.2z"></path> <path style="fill:#FFFFFF;" d="M230.3,840c6.2,0.5,12.5,0.8,18.7,1.4c24.8,2.5,49.5,5.9,73.2,14.1c22.2,7.6,43.1,18.1,63.3,29.9 c23.3,13.5,45.5,28.6,67,44.8c0.8,0.6,1.6,1.3,3.2,2.6c-33.7-3.7-65.6-10.8-96.8-21.6C308.8,894,263.1,867.2,230.3,840z"></path> <path style="fill:#FFFFFF;" d="M246.2,517.6c7.5,0,14.7-0.2,21.8,0c12.4,0.3,24.8,0.5,37.1,1.4c8.1,0.6,15.6,3.7,22.6,7.9 c13.1,7.9,17.8,20.2,18.5,34.7c0.4,8.8-0.3,17.5-3.9,25.6c-6.3,14.2-16.6,23.1-32.9,23.8c-14.4,0.6-28.8,1.8-43-0.9 c-6.3-1.2-12.3-4-18.4-6.4c-1-0.4-2.1-2.3-2.1-3.4c-0.1-26.9-0.1-53.8-0.1-80.6C246,519.1,246.1,518.6,246.2,517.6z"></path> <path style="fill:#FFFFFF;" d="M246.5,459.7c0-13.5-0.5-26.7,0.2-39.8c0.4-8.1,5-14.5,11.6-19.2c17.6-12.5,44.4-9.7,59.9,5.1 c14.1,13.5,9.8,45.5-12.5,51.1c-6.4,1.6-13,2.6-19.6,2.8c-12.5,0.4-25,0.1-37.5,0.1C247.9,459.9,247.1,459.8,246.5,459.7z"></path> </svg> 