<?xml version="1.0" encoding="UTF-8"?> <svg xmlns="http://www.w3.org/2000/svg" xmlns:xlink="http://www.w3.org/1999/xlink" version="1.1" id="Layer_1" x="0px" y="0px" viewBox="0 0 1000 1000" style="enable-background:new 0 0 1000 1000;" xml:space="preserve"> <path style="fill:#FFFFFF;" d="M960.4,451.1c-12.6,1.9-25.2,3.5-37.7,5.9c-3.3,0.6-7.8,3.3-8.7,6c-1.1,3.4-0.3,8.6,1.8,11.6 c1.3,1.9,6.6,1.5,10,1.1c7-0.8,14-2.2,22.7-3.6c0.5,7.8,1.2,14.5,1,21.2c0,1.3-2.9,3.5-4.7,3.8c-6.1,0.9-12.2,1-18.4,1.5 c-7,0.6-8.6,3.4-8.1,11.9c0.4,6.7,4.6,6.5,9.2,6c4.6-0.5,9.3-0.9,13.9-1.9c5.9-1.3,7.4,1.7,6.3,6.4c-1.7,7.7-4,15.3-6.2,23.5 c-13.3,1.5-26.6,3.1-39.8,4.5c-5,0.5-8.1-1.9-8.5-7c-1.5-17.9-3-35.9-4.5-53.8c-1-12-2.1-24.1-3.4-36.1c-0.2-2.2-1.6-4.4-3.6-6.3 c-0.6,9.7-1.4,19.5-1.7,29.2c-0.5,21.3-0.7,42.5-1.2,63.8c-0.2,10-1.8,11.4-11.9,11c-1,0-2,0.1-3,0.1c-15.8,1.1-16.5,0.3-16.9-15.9 c-0.3-10.9-0.9-21.7-1.5-32.6c-0.1-1.4-1.2-2.8-1.8-4.2c-0.9,1.1-2,2.1-2.7,3.3c-3.6,5.7-7.1,11.5-11.7,18.9 c-5-7-9.1-12.6-13.1-18.2c-0.7,0.1-1.4,0.3-2.2,0.4c-0.5,8.6-1.1,17.3-1.5,25.9c-0.4,7.9-0.6,15.8-0.7,23.7c0,4.7-2.2,6.8-6.7,7 c-0.2,0-0.5,0.1-0.7,0.1c-21.2,1.9-22.9,0.4-22.9-20.7c0-8.7-0.1-17.3-0.5-26c-0.3-5.8-1.1-11.6-2.8-17.6 c-2.8,6.9-5.9,13.7-8.4,20.8c-9.2,26-33.1,42.2-59,30.5c-17.4-7.8-25.8-22.6-30.2-39.6c-4.5-17.2-4.2-34.6,2.5-51.5 c10.8-27.2,31.6-42.7,63.7-29c12,5.2,18.2,15.3,24.1,25.9c2,3.7,3.8,7.5,7.3,10.8c0-10.4,0-20.8,0-30.6c7.9-2,15-3.6,22-5.8 c9.5-3,12.9,3.8,16.4,10c3.5,6.2,6.6,12.7,10.6,20.6c2.6-2.9,4.7-4.5,5.7-6.6c4.7-9.6,8.9-19.5,13.8-29.1c0.9-1.7,3.7-3.3,5.8-3.5 c8.5-0.9,17.1-1.3,25.7-1.9c1.3-0.1,3.4-0.4,3.7,0.2c3.3,6.3,9.2,4.7,14.4,4.6c18.3-0.3,36.6-0.7,54.8-1.3c3.1-0.1,6.2-1.2,9.3-1.9 C960.4,428.3,960.4,439.7,960.4,451.1z M743.7,483.7c0.6-0.1,1.2-0.3,1.8-0.4c-2.5-9.2-5.3-18.2-7.4-27.5c-1.4-6.3-5.8-9-11-8.3 c-3.7,0.6-8.3,3.9-10,7.2c-9.4,18-6.8,36.6-0.9,55c1,3.1,3.8,5.7,6.2,8.1c4.1,4.3,8.1,2.8,11.2-1.1 C740.9,507,745.1,496.2,743.7,483.7z"></path> <path style="fill:#FFFFFF;" d="M75.3,396.1c1.1,19.2,2.2,38,3.4,58.3c7.5-0.6,14.9-1.2,23.3-1.8c0-22.5,0-44.4,0-67.3 c11.6,0,23,0,36.3,0c0.3,10.4,0.6,21.5,1.1,32.6c0.9,21.2,2,42.4,2.7,63.6c0.7,20.5,0.8,41.1,1.5,61.6c0.3,6.9-1.3,10.7-9.1,11 c-5.3,0.2-10.7,1.6-15.9,3c-5.7,1.6-7.7-0.6-8.1-6c-1.2-17.5-2.9-34.9-3.6-52.4c-0.3-7.3-2.6-10.1-9.9-8.4c-2.4,0.6-4.9,0.5-7.4,1.1 c-5.8,1.2-8.9,4.4-8.7,10.9c0.3,13.8,0.1,27.7,0.1,41.4c-8.3,1.5-16.1,3.2-24,4.4c-4.9,0.7-8.2-1.4-8.7-6.7 c-2.2-25.8-4.6-51.7-6.6-77.6c-1.5-19.9-2.6-39.8-3.9-59.7c-0.2-2.4,0-4.8,0-7.8C50.4,396.1,62.6,396.1,75.3,396.1z"></path> <path style="fill:#FFFFFF;" d="M650.6,497.9c-1.8,5-0.8,8.8,3.6,12.6c7.8,6.8,14.7,14.7,22.1,22c2.6,2.6,3.5,4.7-0.5,6.8 c-5.6,2.9-10.8,6.9-16.7,8.6c-2.7,0.8-7.6-2.2-9.9-4.9c-7.1-8.1-13.3-16.9-19.9-25.3c-1-1.3-2.4-2.1-5.8-2.9c0,5,0,10,0,15 c0,2.5,0,5,0,7.4c0,14-5.3,18.7-18.6,14.6c-3.5-1.1-7.2-7.1-7.6-11.2c-2.7-28-4.4-56.1-6.8-84.2c-0.4-4.3,1-10.1-6.9-10.8 c-3.5-0.3-4.1-19-0.6-20.8c20.2-10.7,54.4-13.9,73.5,5c22.4,22.2,19.4,44.7,0.1,65.7C655.2,497,652.6,497.2,650.6,497.9z M622.7,441.8c1.1,13.3,2.1,25.8,3.2,38.6c10.9-4.4,17.2-13.9,16.8-24.4C642.4,447.9,637.7,444.3,622.7,441.8z"></path> <path style="fill:#FFFFFF;" d="M502.9,421.6c11.6-0.6,22.3-2.2,32.8-1.3c6.4,0.5,13.1,3.8,18.4,7.7c8.3,6,18.1,10.5,22.7,20.8 c7.1,16,10,32.2,3,49.1c-1.9,4.7-2.7,9.9-5,14.3c-6.6,13.2-17.9,21.3-31.4,26.8c-10.1,4.2-20.4,6.4-31.4,6.2 c-4.4-0.1-6.1-1.2-6.2-5.8c-0.8-27.9-2-55.7-2.9-83.6C502.6,444.6,502.9,433.3,502.9,421.6z M531.1,520.5c1.1,0.3,2.1,0.7,3.2,1 c4.2-5.9,9-11.6,12.5-17.9c6.8-12.1,3.1-29.3-7.8-37.9c-1.7-1.4-4.2-1.9-6.3-2.8c-0.5,2-1.4,4.1-1.5,6.1c-0.2,7.9-0.1,15.8-0.1,23.7 C531.1,501.9,531.1,511.2,531.1,520.5z"></path> <path style="fill:#FFFFFF;" d="M202.2,447.1c-3-2.6-5.3-4.9-7.9-6.8c-1.3-1-3.1-2-4.7-2c-10.1-0.2-20.2,0-30.2-0.1 c-1.4,0-4-0.3-4-0.7c-0.6-5.9-1.4-12-0.6-17.8c0.2-1.3,5.9-2.6,9.1-2.7c6.4-0.3,12.9,0,19.3,0.3c2.4,0.1,6.2,0.2,6.8,1.6 c5.4,10.9,13.3,4.9,20.1,3c15.8-4.4,31-3.5,46,2.7c3.9,1.6,7.9,2.3,11.6,5.8c5.5,5.2,9.6,11.2,11.6,17.7c5.4,18,1.6,34.7-13.1,46.9 c-6.5,5.4-15.4,8.1-23.6,11.2c-7.6,2.8-9.9,5.8-9.2,13.5c0.6,7.1,1,14.3,0.8,21.4c-0.2,9.1-2.8,11.1-11.9,10.3 c-11.4-1-11.3-1-12.2-12.1C207.4,508.2,204.8,477.3,202.2,447.1z M237.6,483.3c5.2-4.3,8.5-7.1,12-9.8c7.6-6,6.4-14.4,5.5-22.2 c-0.6-5.4-9.3-10.8-16.4-10.1c-2.3,0.2-5.9,4.6-6,7.2c-0.3,6,0.9,12.2,1.8,18.2C235.1,471.3,236.2,476,237.6,483.3z"></path> <path style="fill:#FFFFFF;" d="M371.2,465.4c4.8,1.5,9.2,2.7,13.5,4.3c3.3,1.2,5.7,2.5,6.8-2.7c0.7-3.4,4.5-6.5,4.3-9.6 c-0.5-8.4-2.2-16.8-3.7-25.2c-0.4-2.3-2-4.4-2.3-6.6c-0.9-7.4-9.3-6.6-12.5-12.7c-6.2,5.4-11.5,13-20.1,8c-2.1,1.1-4.1,2-6,3 c-0.9-3.3-3.3-7.1-2.4-9.7c3.9-10.8,13.6-19.5,10.7-32.9c1-0.2,1.9-0.4,2.9-0.5c1.6,3.5,3.2,7,4.8,10.7c5.9-1.6,11.8-3.3,17.7-4.9 c0.2,0.5,0.4,1,0.6,1.6c-1.7,1.1-3.3,2.2-5.6,3.7c8.1-0.5,15.4-1.6,22.6-1.4c7.1,0.2,14.1,1.6,21.1,2.4c0,0.6,0.1,1.3,0.1,1.9 c-1.4,1-2.8,2.1-5.4,4.1c4.3,0.4,7.2,0.9,10.1,0.9c3.9,0,7.9-0.7,11.8-0.4c1.5,0.1,2.8,2,4.2,3.1c-1.1,1.1-1.9,2.6-3.2,3.3 c-3.7,2.1-7.5,4-11.3,5.9c0,0.8,0,1.5,0,2.3c4.8,0.6,9.7,1.3,14.5,1.6c6.7,0.4,13.4,0.3,20.1,0.9c1.5,0.1,2.7,2.3,4,3.4 c-2.4,4.5-8.8,3.5-9.7,9.1c-0.1,0.6-5.2,1.6-6.6,0.6c-5.6-4.1-8.5-0.2-13.3,4c4.4,3.1,8.1,6.7,12.5,8.4c4.9,1.8,5.8,4.7,5.8,9.2 c0.1,13.6-0.5,27-6.1,39.9c-11.4,0.9-22.6,0.8-33.2-4.5c-1.2-0.6-3.8-0.8-4.5-0.1c-5.9,6.3-12.5,3.9-18.8,1.6 c-6.1-2.3-11.6-6.2-17.7-8.4C370.7,477,368.6,473,371.2,465.4z"></path> <path style="fill:#FFFFFF;" d="M468.6,428.3c3.6-3,6.4-5.8,9.8-7.7c1.3-0.7,4.4-0.2,5.4,0.8c2.3,2.7,4.2,5.9,5.7,9.2 c9.6,20.6,12.1,42.2,5.5,63.8c-6.2,20-17.2,38.4-35.8,49c-12.6,7.1-27.1,10.4-42.9,3.8c-12.1-5-20.6-13.1-26.5-23 c-5-8.4-5.5-19.4-7.5-29.4c-0.1-0.7,4.7-3.6,5.5-3.1c7.5,4.9,15.4,5.5,24,4.3c2.1-0.3,5.2,1.5,6.7,3.3c12.8,15.5,32.1,13.5,42.9-3.7 c9.5-15.1,12-31.7,12.5-48.6C474.1,440.3,470.1,433.5,468.6,428.3z"></path> <path style="fill:#FFFFFF;" d="M364.5,430.2c3.3,7.8,6.3,14.8,9.1,21.8c2.3,5.7,0.2,8.7-5.9,9.7c-11,1.7-16.7,9.9-23,18 c-5.4,7,1.4,10.6,2.5,15.7c0.3,1.2,1.7,2.2,3.9,4.8c-5.3,2.2-9.7,5-14.4,5.7c-7.3,1.2-10.1,4.5-9.7,11.8c0.4,8.4-0.2,16.8-0.1,25.2 c0.1,6.4-3.3,8.9-9.2,9c-2.2,0-4.4-0.1-6.7-0.1c-5.7,0-8.8-2.8-9.2-8.5c-2-26.3-4-52.6-6-78.9c-0.3-4.4-0.9-8.8-1.6-13.2 c-0.3-1.7-0.7-4.3-1.8-4.7c-10.9-3.8-5.4-13.1-7.1-19.2c17.2-11,36-8.9,55.1-8.8c0,3.1-0.1,5.8,0,8.4c0.2,3.4-0.5,7.8,1.3,9.8 c1.4,1.5,6.3,0.6,9.4-0.3C355,435.2,358.7,433,364.5,430.2z M328.7,479.3c0.8,0.6,1.7,1.3,2.5,1.9c4-3.3,9.6-5.9,11.7-10.2 c2.8-5.8,4.8-13.3,3.4-19.2c-0.9-4-7.6-7.7-12.5-9.7c-4.9-2-7.9,1.5-7.6,6.7C326.9,458.9,327.9,469.1,328.7,479.3z"></path> <path style="fill:#FFFFFF;" d="M172,452.6c1.5,0,3,0,4.4,0c14.5-0.4,14.5-0.4,14.2,14c-0.6,24.2-1.2,48.4-1.6,72.6 c-0.1,6.3-1.7,10.6-9,11c-12,0.6-15.3-1.1-16.3-9.8c-3.2-27.5-6.3-54.9-9.5-82.4c-0.5-4.1,0.6-6.1,5.1-5.8c4.2,0.3,8.4,0.1,12.6,0.1 C172,452.4,172,452.5,172,452.6z"></path> <path style="fill:#FFFFFF;" d="M617.9,614.5c-7.2,2.8-11.3,4.3-15.5-1.7c-4-5.7-10.6-6.8-17.4-4.3c-7.4,2.7-11.5,8.9-11.5,17.3 c0,8.3,4.9,15.4,12.2,17.7c7.3,2.2,13.8,0.2,18.6-7c3.1-4.5,6.6-3.3,9.5-1.3c1.3,0.9,1.5,5.3,0.6,7.3c-7.2,15.1-32.1,17.2-44.9,4.1 c-10-10.2-10.6-29.2-1.2-40.2c9.5-11.1,27.7-13.8,39-5.1C611.3,604.5,614,609.5,617.9,614.5z"></path> <path style="fill:#FFFFFF;" d="M918.1,631.3c-8.5,0-15.9,0-24.1,0c0,5.9,0.5,11.3-0.2,16.5c-0.3,2.3-3.1,5.5-5.3,6 c-3.7,0.8-6.1-1.6-6.1-6.1c0.2-14.8,0.2-29.6,0-44.5c-0.1-4.3,2.3-6.4,5.6-5.7c2.3,0.5,4.1,3.5,6,5.5c0.1,0.1,0,0.5,0,0.7 c0.5,5.2-0.1,14.6,1.6,15c6.9,1.7,14.4,0.7,22.4,0.7c0-5.6,0.1-10.5,0-15.4c-0.1-4,0.8-6.9,5.6-6.7c4.1,0.2,6,1.9,5.9,6.4 c-0.3,14.6-0.1,29.1-0.1,43.7c0,3.9-0.8,6.9-5.7,6.7c-4.6-0.1-5.8-2.8-5.7-6.8C918.2,642.4,918.1,637.2,918.1,631.3z"></path> <path style="fill:#FFFFFF;" d="M721.4,651.8c6.5-16.8,12.6-33.5,19.5-49.8c1-2.3,6-4.1,9.1-4c2.6,0.1,6.3,2.8,7.3,5.3 c5.6,13.3,10.6,26.9,15.6,40.5c1.4,3.6,3.1,7.9-2.3,9.9c-5.3,2-7.3-1.7-8.1-5.8c-1.2-6.3-5.3-7.6-10.8-7.2c-2.7,0.2-5.5,0.5-8.2,0.2 c-4.5-0.6-7.1,1.2-8.1,5.5C733.6,653.9,729.3,655.8,721.4,651.8z M756,630.7c-2.4-6.6-4.5-12.2-6.6-17.9c-0.6,0.1-1.2,0.3-1.8,0.4 c-1.9,5.6-3.9,11.3-6,17.5C746.5,630.7,750.4,630.7,756,630.7z"></path> <path style="fill:#FFFFFF;" d="M652.1,625.4c0-6.9-0.2-13.8,0.1-20.7c0.1-2,2-5.7,3-5.7c9.4,0.1,19-2.8,28.1,2.8 c10.1,6.1,8.2,21.3,1.2,25.3c-6.3,3.7-4,7.4-1.9,11.6c1.2,2.4,3.3,4.5,3.9,7c0.5,2-0.5,4.4-0.8,6.6c-2.2-0.6-5.1-0.6-6.6-2 c-2.2-2.1-3.4-5.3-5-8c-1.4-2.5-2.4-5.4-4.2-7.6c-1.2-1.4-3.9-2.8-5.5-2.4c-1.3,0.3-2.6,3.2-2.8,5c-0.4,3.4,0.6,7-0.2,10.2 c-0.5,2-3.4,3.3-5.3,4.9c-1.4-1.9-3.9-3.7-4.1-5.6c-0.5-7.1-0.2-14.3-0.2-21.5C651.9,625.4,652,625.4,652.1,625.4z M667.7,623.7 c7.7,0.2,12.6-2.7,12.9-7.4c0.3-6-4.2-9.5-11.8-10.2c-7.7-0.6-6.6,4.4-6.7,9C662,619.5,660.7,624.6,667.7,623.7z"></path> <path style="fill:#FFFFFF;" d="M829,654.6c-9.3,0.2-16.3-2.1-20.4-9.2c-1.2-2.1-1.5-6.6-0.2-7.9c2.6-2.5,6.2-2.2,8.4,2 c2.7,5.2,7.6,7.3,13,5.9c2.6-0.7,6-3.6,6.4-6c0.4-2-2.5-5.3-4.7-7c-1.7-1.3-4.6-1.3-7-1.7c-9.4-1.4-16.3-7.7-17.2-15.8 c-0.7-6.2,5.3-14.4,12.3-16.8c9.5-3.2,20.3-0.4,24.5,6.7c0.8,1.4,0.2,3.5,0.3,5.2c-2.9-0.1-5.9,0.1-8.8-0.4 c-4.3-0.7-8.6-2.6-12.8-2.4c-1.8,0.1-4.5,4-4.9,6.4c-0.2,1.6,2.9,4.2,5,5.3c2.8,1.3,6.2,1.5,9.3,2.3c12,3.1,16.2,8.8,14.7,20 C845.9,648.9,837.5,654.6,829,654.6z"></path> <path style="fill:#FFFFFF;" d="M360.6,473.9c-7.9,11.8-4.2,18,13.2,19.3c-1,3.4-2,6.5-2.9,9.6c-2.5-1.4-5-2.8-7.5-4.1 c-1.4-0.7-3-1-4.2-1.9c-3.2-2.4-7.4-4.5-9.2-7.8C345.6,481.2,351.1,473.8,360.6,473.9z"></path> </svg> 