<?xml version="1.0" encoding="UTF-8"?> <svg xmlns="http://www.w3.org/2000/svg" xmlns:xlink="http://www.w3.org/1999/xlink" version="1.1" id="Layer_1" x="0px" y="0px" viewBox="0 0 1000 1000" style="enable-background:new 0 0 1000 1000;" xml:space="preserve"> <path style="fill:#FFFFFF;" d="M6.1,598.8c2.5-9.7,9.6-16.1,16.4-22.8c8-7.9,15.9-15.8,23.8-23.7c1.7-1.7,3.7-2.4,5.7-1.8 c2.9,0.9,3.2-0.7,3.6-2.8c0.5-2.4,0.8-5.3,2.3-6.9c9.6-10.2,19.5-20.2,29.4-30.1c4.9-4.9,9.5-10.3,16.3-13.1 c10.5-4.2,22.2-1.4,29.7,6.3c15.5,15.8,31.3,31.4,46.9,47.2c10.9,11,21.9,21.8,32.5,33.1c6.5,6.9,8.7,15.4,6.6,24.8 c-0.2,1-1.3,1.8-1.9,2.8c-0.3,0.5-0.1,1.3-0.3,1.9c-0.2,0.7-0.2,1.6-0.7,2.1c-2.3,2.8-4.6,5.6-7,8.4c-0.4,0.4-1.1,0.5-1.8,0.6 c-1,0.2-2.5,0-1.4,1.8c0.1,0.2-0.2,0.9-0.6,1.2c-4.3,4.4-8.7,8.8-13.3,13.5c-2-3-3.8-5.7-5.7-8.4c-0.3,0-0.6-0.1-0.9-0.1 c2,9.9-0.2,18.1-8.5,23.1c-1.2,0.3-2.2,0.2-2.7,0.7c-3.2,3-6.2,6.3-9.5,9.3c-1.9,1.8-4.1,3.2-5.6,4.4c-1.4,2.1-2.7,3.7-3.6,5.6 c-2.7,6.2-8.4,9.7-12.6,14.5c-0.8,0.9-1.2,2.7-3.5,1.5c-0.7-0.4-3,2-4.4,3.2c-3.6,3.2-7,6.8-10.8,9.8c-4.5,3.5-10,3.3-15.3,3.1 c-1.6-0.1-3.2-0.2-4.8-0.5c-1.8-0.4-3.6-1-5.4-1.5c-1.5-0.4-3-0.7-4.6-1.1c-0.5-0.1-1.1-0.4-1.5-0.8c-1.2-1.1-2.5-2.1-3.5-3.4 c-1-1.4-3.8-1.7-2.7-4.8c0.3-0.9-2.1-3-3.4-4.3c-2.7-2.7-5.5-5.2-8.2-7.7c0,0.1-0.1,0.8-0.3,1.9c-1-0.7-2-1.2-2.7-1.9 c-9.4-9.7-18.8-19.4-28.3-29c-10.6-10.9-21.5-21.6-31.8-32.8c-2.7-3-4-7.3-6-10.9C6.1,606.9,6.1,602.9,6.1,598.8z M158.3,602.2 c-1.1-2.3-1.8-4.9-3.3-6.8c-2.6-3.3-5.8-6.2-8.8-9.2c-8.3-8.4-16.6-16.9-25.1-25.3c-4.3-4.2-10.8-4.3-15.4-0.3c-2.3,2-4.5,4-6.7,6.2 c-9.1,9-18.2,18-27.3,27c-2.8,2.8-4.7,5.9-4.6,10.1c0.1,4.4,2.6,7.2,5.5,10c10,10,19.9,20.2,30,30.3c5.6,5.6,13.1,5.8,18.4,0.7 c10.6-10.4,21.1-20.9,31.5-31.5C155.2,610.4,158.1,607.1,158.3,602.2z"></path> <path style="fill:#FFFFFF;" d="M545.6,291.7c1.7,0.5,3.3,1.2,5,1.6c3.5,0.8,7.2,1.2,10.7,2.1c6.1,1.5,12.1,1.4,18.2-0.5 c2-0.6,3.3,1.3,3.3,3.4c0.1,10.1,0.3,20.1,0,30.2c-0.1,2.2-1.9,4.3-3.2,7.2c-1.4-1.4-2.6-2.2-3.3-3.4c-5.1-8.3-10.3-16.3-17.9-22.6 c-6.4-5.4-13.8-6.6-21.7-5.6c-5.4,0.7-11.4,8.7-10.4,14.1c0.4,2,1.9,4.2,3.5,5.4c7,5.2,14.9,8.8,23.3,11.2c6.8,2,13.9,3.5,20,6.7 c8.6,4.6,14.2,12,14.6,22.4c0.1,1.7,0.6,3.4,0.8,5c0.2,1.2,0.4,2.4,0.3,3.6c-0.9,8.1-4.1,15-10.7,19.9c-4.9,3.6-9.7,7.2-14.6,10.8 c-0.5,0.4-1.3,0.7-1.9,0.7c-9.2-0.2-18.5-0.6-27.7-0.5c-4.5,0.1-8.5-0.9-12.7-2.1c-3.7-1.1-7.4-2.4-11.2-2.5c-2.1-0.1-4.3,2-7,3.3 c-1-0.7-2.8-1.8-4.4-3.1c-0.7-0.6-1.3-1.6-1.3-2.5c-0.7-10.5-1.2-21-1.9-31.5c-0.1-2.1,0.3-4,2.4-4.1c2.1-0.1,4.6-2,6.5,1.5 c4.3,7.6,8.9,15.1,15.7,20.9c6,5,12.5,8.1,20.5,8.1c5.9,0.1,10.7-0.6,14.7-5.6c2-2.6,4.9-4.1,4.5-8.2c-0.3-2.7-1-4.8-3.3-5.9 c-7.4-3.8-14.7-7.6-22.3-11c-9.3-4.1-18.8-7.7-28.2-11.6c-1-0.4-2.1-1.6-2.5-2.7c-1.8-4.6-3.3-9.4-5-14c-1.7-4.5-0.5-8.8,0.4-13.1 c3.4-14.9,13.5-22.5,28-25.2c3.7-0.7,7.5-1.6,11.2-2.3C540.7,291.7,543.1,291.7,545.6,291.7z"></path> <path style="fill:#FFFFFF;" d="M982.3,515.1c-5.4,4.3-10.2,8.4-15.2,12.1c-9.6,7.1-19.4,13.9-29.2,20.9c-4.9,3.5-9.9,6.9-14.8,10.4 c-3.5,2.6-3.8,5.2-0.6,8.3c7.5,7.3,15.2,14.4,22.7,21.6c3,2.9,7.1,5,6.7,10.2c0,0.5,1.9,1.2,3,1.7c1.3,0.6,3,0.6,4,1.5 c5.6,5,11.2,10,16.4,15.4c2,2.1,3.1,5.2,4,8c0.9,2.9-1.8,4.3-3.4,6.1c-3.4,4-6.7,8.1-10.2,11.9c-2.2,2.4-4.6,4.5-7.2,6.5 c-12.9,10-25.9,19.8-38.8,29.9c-2.8,2.2-5.4,2.7-8.7,1.5c-1.9-0.7-4-0.6-6-0.9c-0.1,0.3-0.1,0.6-0.2,0.9c1.6,0.5,3.2,0.9,4.8,1.5 c0.9,0.3,2.3,1.1,2.3,1.6c-0.1,1.2-0.5,2.8-1.4,3.5c-6.6,4.9-13.3,9.5-19.9,14.3c-4.8,3.5-9.5,7.2-14,10.6c-2.8-3.1-5.6-6.2-8.5-9.2 c-8.5-8.8-17.1-17.7-25.7-26.4c-1.2-1.2-1.6-1.9,0-3.1c7.5-5.2,15-10.3,22.3-15.7c2.7-2,5-1.9,7.8-0.4c2.8,1.4,5.9,2.4,9.6,3.9 c-1.8-4.8-6.2-5.9-8.7-9.3c3.3-2.5,6.5-5.1,9.8-7.5c7.6-5.5,15.3-10.9,22.9-16.3c4.4-3.1,5-7,1-10.8c-7.1-6.7-14.5-13-21.6-19.6 c-5.6-5.2-11-10.5-16.4-15.9c-4.9-4.9-10-9.8-14.5-15.2c-5.4-6.6-2.9-13.5,2.6-17.9c7.9-6.3,16.1-12.2,24.2-18.3 c9.9-7.3,19.8-14.6,29.6-21.9c13.1-9.7,26.3-19.4,39.5-29.1c0.4-0.3,0.8-0.5,1.6-0.9C962,490.9,972,502.9,982.3,515.1z"></path> <path style="fill:#FFFFFF;" d="M511.8,645.4c1.7,0,2.4,0,3.4,0c-1.7,3.3-3.2,6.4-4.8,9.5c-9.3-21.9-18.4-43.6-27.6-65.3 c-0.3,0.1-0.5,0.1-0.8,0.2c0,3.4,0,6.8,0,10.2c0,4.8,0.1,9.6,0.1,14.3c-0.2,17.9-0.4,35.7-0.6,53.6c0,1.7-0.5,2.3-2.2,2.4 c-6.8,0.5-13.6,1.1-20.3,1.7c-3,0.3-6.1,0.5-9.1,1c-2.3,0.4-2.7-0.5-2.6-2.4c0-0.3,0-0.6,0-0.9c0-47,0-94,0-141c0-0.9,0-1.8,0-2.9 c6.3-0.7,12.4-1.4,18.5-2.1c6.3-0.7,12.5-1.2,18.7-2.1c2-0.3,2.9,0.2,3.7,1.9c8.1,16.9,16.2,33.8,24.3,50.8c0.4,0.9,0.9,1.7,1.6,3 c3.4-6.2,6.7-12,9.7-17.9c1.3-2.5,2.4-2.7,4.1-0.5c0.6-0.6,1.3-1.3,2.2-2.3c-3.9-3.6-1-7,1-10.6c3.2-5.6,6.1-11.4,9.3-17 c0.6-1,2-2,3.2-2.2c9.2-1.8,18.5-3.4,27.7-5.1c1.7-0.3,3.4-0.6,5.4-0.9c0.1,1.2,0.4,2.2,0.4,3.2c0,24.5,0,49,0.1,73.5 c0,5.9-1.5,10.9-5.1,15.6c-2.9,3.7-2.6,5.7,1.2,8.4c2.9,2,3.8,4.5,3.7,7.8c-0.1,10.8-0.2,21.6-0.2,32.3c0,2.1,0.3,4.3,0.4,6.4 c0.1,1.7-0.3,2.8-2.5,3c-4.2,0.5-8.4,1.3-12.6,2c-0.3,0.1-0.7,0.2-0.9,0.1c-4.7-3.5-9.6,0.5-14.4-0.5c-0.6-0.1-1.4,0.2-2,0.9 c2.3,0,4.7,0,7,0c0,0.2,0.1,0.4,0.1,0.6c-2.8,0.5-5.7,1-8.8,1.5c0-26.8,0-53.6,0-80.4c-0.3-0.1-0.5-0.2-0.8-0.3 c-2,3.4-4.1,6.7-6,10.1c-5.2,9.7-10,19.6-15.6,29.1c-1.4,2.4-2.4,4.8-3.6,7.2c-0.7,1.3-0.8,3.3-3.3,2.4 C513.8,643.8,513.1,644.6,511.8,645.4z"></path> <path style="fill:#FFFFFF;" d="M827.7,667.7c-11.5,2-22.9,4-34.7,6.1c0-6,0-12.1,0-19c-8.4,6-16.1,11.5-23.5,16.8 c-1.5-0.7-2.8-1.4-4.2-1.9c-4.7-1.8-9.3-3.6-14-5.3c-3.4-1.2-6.8-2.2-10.1-3.6c-5-2-10-4.4-15-6.4c-0.9-0.4-2.2-2.6-3.1,0.1 c-0.6-0.2-1.3-0.3-1.9-0.7c-6.1-3.4-10.3-8.2-10.5-15.5c-0.3-8.1-0.3-16.2-0.3-24.3c0-18.9,0.2-37.8,0.2-56.7 c0-8.1-0.4-16.2-0.5-24.3c-0.1-4,0.3-4.2,4.4-4.8c4.7-0.7,9.3-1.9,14-2.9c6.6-1.5,13.2-3,20.2-4.6c0,24.5,0,48.9,0,73.7 c-1.9-0.5-3.6-1.1-5.3-1.6c-0.2,0.2-0.4,0.4-0.6,0.6c1.3,1.4,2.4,2.9,3.9,4c1.6,1.2,2.3,2.6,2.3,4.6c-0.1,7.9,0,15.9,0,23.8 c0,3.1,1.5,5.3,4.2,6.5c8,3.3,16.1,6.5,24.1,9.7c4.1,1.6,8.3,3.2,12.4,4.8c1,0.4,2,0.8,3.4,1.3c0-7.5,0-14.6,0-21.7 c-0.1-17.7-0.3-35.4-0.4-53c-0.1-13.9-0.1-27.8-0.2-41.7c0-5.4,0.3-5.7,5.8-6.2c1.8-0.2,3.5-0.8,5.3-1.1c1.8-0.3,3.4-0.3,3.5,2.4 c0.1,2.5,1.9,2.1,3.6,1.5c0.4-0.2,0.9-0.6,1.1-1c3.5-6.3,9.7-6.5,15.9-7.3C827.7,569.2,827.7,618.3,827.7,667.7z"></path> <path style="fill:#FFFFFF;" d="M599.9,673.7c0-7.4,0-14.1,0-20.7c0-11.5,0-23-0.2-34.4c0-1.5-1.3-2.9-2.3-5c2.2-5.5,5-3.9,11.4-0.7 c0.5-1.5,0.6-2.8-1.4-3.2c-0.7-0.2-1.3-0.5-2-0.7c-6-1.9-6.1-1.9-6.1-8.4c0.1-13.8,0.3-27.6,0.4-41.4c0-7,0-13.9-0.3-20.9 c-0.3-7.7,0-8.6,7-11.2c7-2.5,14.2-4.4,21.3-6.6c2.3-0.7,4.1-0.1,5.9,1.3c16.7,13.8,33.5,27.6,50,41.6c4.1,3.4,7.4,7.7,10.8,11.9 c2.4,2.9,1.6,5.9-1.2,8.5c-6.2,5.8-12.3,11.8-18.3,17.8c-1.7,1.7-2.6,4.1-4,6c-0.6,0.8-1.8,2.1-2.4,2c-2.6-0.7-3.7,1-5.1,2.4 c-10.2,9.4-20.4,18.9-30.7,28.3c-1.6,1.5-2.3,3-2.3,5.3c0.2,6.6,0,13.2,0.1,19.8c0,1.8-0.5,2.9-2.3,3.2 C619,670.2,609.7,671.9,599.9,673.7z M631.9,559.2c0,13.3,0,25.8,0,39.4c2.4-1.8,4.3-3,5.9-4.5c4.7-4,9.3-8.1,13.9-12.2 c2.2-1.9,1.8-4.1,0.1-6.1c-1.6-1.9-3.4-3.8-5.1-5.6c-2.6-2.8-2.6-2.8,0.4-5.4c1.2-1,2.1-2.2,3.2-3.3c-0.2-0.2-0.5-0.5-0.7-0.7 c-0.6,0.3-1.2,0.6-1.8,1c-3.9,2.3-7.8,3.4-11.6-0.4C635.3,560.5,633.7,560.1,631.9,559.2z"></path> <path style="fill:#FFFFFF;" d="M329.1,570.4c-1,2.1-1.8,3.7-2.8,5.9c-1.4-5.1-0.2-10.5,2.2-12.8c-0.7,0.3-1.5,0.7-2.2,0.7 c-0.9,0-2.5,0-2.7-0.5c-2-4.6-5.6-8.1-8.5-12.1c-2.7-3.7-5-7.6-7.7-11.3c-1.6-2.3-3.6-4.3-5.2-6.6c-2.5-3.6-2-4.7,1.7-6.2 c8.6-3.5,17.1-7,25.6-10.7c2.4-1.1,3.6-1,5.4,1.3c11.4,16,23,31.8,34.6,47.6c0.6,0.9,1.4,1.6,2.3,2.6c6.8-10,13.4-19.8,20-29.5 c4.8-7.1,9.7-14.2,14.4-21.4c1-1.5,1.9-1.8,3.5-1.1c7.7,3.2,15.5,6.3,23.2,9.5c1.6,0.6,3.1,1.2,5.1,1.9c-1.9,3.2-3.4,6.2-5.3,9 c-11.9,17.4-23.8,34.8-35.8,52.2c-2.7,3.9-5.6,7.8-8,11.8c-1.1,1.8-1.9,4.1-1.9,6.2c-0.1,18.8,0,37.6,0,56.4c0,0.8-0.2,1.6-0.4,2.4 c-0.3,0-0.6,0-1,0c-0.2-2.8-0.4-5.7-0.7-9.1c-0.9,1.5-2,2.8-2.3,4.2c-0.9,3.5-2.7,5.7-6,6.2c-6.4,1-12.8,2.1-19.2,3 c-0.7,0.1-1.4,0-2.1,0c-0.1,0.3-0.3,0.6-0.4,1c1,0.5,2,0.9,3.4,1.5c-1.5,0.5-2.7,0.9-4.5,1.5c0-1.3,0-2.4,0-3.4c0-12,0.1-24,0-36 c-0.1-8.1-0.7-16.2-0.3-24.3c0.2-4.8-1.6-8.3-4.1-11.8C342.7,589.3,336,580,329.1,570.4z"></path> <path style="fill:#FFFFFF;" d="M386.7,400.4c-0.5-0.6-1-1.1-1-1.1c-2.9,0.8-5.5,2-8.2,2.1c-14.9,0.4-29.9,0.6-44.9,0.5 c-2.1,0-4.4-1.3-6.3-2.5c-2.3-1.5-2.1-4.5,0.4-5.7c2.8-1.4,5.9-2.1,8.8-3.1c0.5-0.2,1,0,1.5-0.1c5-0.9,5-0.9,5-5.9 c0-7.4-0.1-14.9,0.1-22.3c0.1-2.4-0.7-4.2-2-6.1c-6.1-8.6-7.2-7.9,0.2-18c1.1-1.5,1.7-3.7,1.8-5.6c0.2-6.5-0.2-13-0.1-19.5 c0.1-3.7-1.5-6-4.4-7.7c-1.9-1.1-3.9-2.2-6-2.8c-2-0.6-2.3-2.2-2.6-3.6c-0.1-0.4,1.9-1.5,3-1.8c7.2-1.5,14.4-3.4,21.6-4 c6.4-0.5,13,0.7,19.5,1c3.8,0.2,7.5,0.5,11.3,0.2c7.1-0.5,13.9,0.8,20.4,3.5c6.5,2.6,13,5.1,17.6,10.8c2.1,2.6,3.3,5.4,2.3,9 c-1,3.6-1.5,7.4-2.5,11.1c-2,7.3-6.3,12.5-13.9,14.5c-1.4,0.4-2.7,0.8-4.1,1.2c-3.9,1.2-4.8,3.9-2.3,7.2c3.5,4.6,7.1,9.1,10.5,13.7 c12.1,16.3,24,32.7,36.1,49c2,2.7,4.1,5.3,6.3,8c-1.8,1.7-3.3,3-5.1,4.6c-7.5-5.7-16.4-9.1-25.3-12.7c-3.4-1.4-6.8-3.2-9.6-5.5 c-3.3-2.7-6.3-6-9-9.4c-7.2-8.9-14.2-18-21.2-27.1c-4.1-5.2-8-10.6-12.2-15.8c-0.6-0.8-1.8-1.3-2.7-1.9c-0.5,1.1-1.6,2.2-1.6,3.3 c0.2,8.3,0.3,16.6,1,24.9c0.2,2.1,2.4,4,3.7,6c1.5,2.3,3.5,3.1,6.2,1.9c0.7-0.3,1.6-0.2,2.4-0.6c2.8-1.3,4,0.5,4.7,2.6 c0.7,2.4,0.9,5,1.3,7.4C387.2,400.2,386.9,400.3,386.7,400.4z M368.8,337.4c0,7.9,0,7.9,5.5,9.1c7.9,1.7,15.7-1.4,18.4-8.4 c1.6-4.1,1.5-8.9,1.5-13.4c0-7.9-6-12.6-13.3-12.9c-3.1-0.1-6.3,0.1-9.4-0.4c-2.1-0.3-2.6,0.3-2.5,2.1c0.2,3.1,0.6,6.2,0.5,9.4 C369.4,327.9,369.1,332.9,368.8,337.4z"></path> <path style="fill:#FFFFFF;" d="M689.3,323c-2.9-3.3-5.8-6.5-8.4-9.9c-2.2-2.8-5-3.9-8.5-3.7c-3.5,0.2-6.9,0-10.4,0 c-6,0.1-11.8-0.7-17.6-2.2c-3.1-0.8-5.3,1.2-5.3,4.6c0,9.2,0,18.3,0,27.5c0,3.3,3,6.1,6.3,6.3c7.3,0.5,14.2-0.7,18.9-6.8 c2.9-3.8,5.1-8.2,7.2-12.6c1.2-2.7,3-2.9,5-1.9c1.9,0.9,3.6,2.3,5.1,3.8c0.7,0.7,0.7,2.3,0.6,3.4c-0.6,7.9-1.6,15.7-1.9,23.6 c-0.2,4.5,0.8,9.1,1.1,13.6c0.1,1-0.5,2.1-1.1,3c-0.5,0.8-1.5,1.4-2.2,2.1c-3.6,3.5-5.2,3.3-7.5-1c-1.8-3.4-3.5-6.9-5.1-10.4 c-2-4.5-4.7-5.6-9.3-3c0.3-1.4,0.7-2.5,0.7-3.6c0-1.2-0.4-2.3-0.8-4.1c-6.1,0-12.1,0-18.1,0c-1.9,0-2.7,0.7-2.6,2.7 c0.2,3.8,0.1,7.5,0,11.3c-0.2,8.5-0.3,17-0.6,25.5c-0.1,2.6,0.9,3.6,3.6,3.6c13-0.1,26-0.1,39.1,0c2.7,0,4.3-0.9,6.2-2.8 c5.9-6,12.1-11.7,18.3-17.4c1-0.9,2.9-1,5-1.7c0,3.6,0,6.6,0,9.7c0,4-0.4,8,0.1,11.9c0.5,4.6-2.3,6.9-4.2,9 c-3.3-0.5-5.7-1.2-8.2-1.2c-30.8-0.1-61.7-0.1-92.5,0c-3.7,0-6.5-1.3-8.8-4.3c2.9-3.7,6-7.3,8.8-11.1c0.7-1,1.2-2.3,1.2-3.5 c0.1-6.1,0-12.2-0.3-18.3c-0.1-1.4-1.2-2.8-2-4.2c-1.2-2.2-2.3-4.4-3.6-6.4c-0.4-0.7-1.3-1.2-2.4-2.1c-0.7-2.3,0.6-4.6,2.6-6.7 c5.1-5.2,7.9-11.1,6.6-18.6c-0.3-1.7-0.2-3.5,0.1-5.2c1.2-6.2-1.7-10.9-5.5-15.2c-2.1-2.5-4.1-5-6.2-7.4c2.1-3.5,4.8-4.7,8.9-4.6 c29.1,0.2,58.2,0.1,87.3,0.2c4.1,0,5.6,1.7,5.4,5.8c-0.2,4.4-0.5,8.8-0.1,13.1C694.6,318.2,692.2,320.8,689.3,323z"></path> <path style="fill:#FFFFFF;" d="M283.4,678.9c-1.9-8.7,2.1-15.2,4.3-22.2c-0.3-0.1-0.6-0.2-0.9-0.3c-1.5,4-3.4,7.8-4.5,11.9 c-1.4,5.2-1.2,5.5-6.6,5.5c-12.7,0.1-25.4,0-38.7,0c0-2.5,0-4.7,0-6.9c0-1,0-2,0-3c0-43.3,0-86.7,0-130c0-1.2,0-2.4,0-3.9 c8.8-1.9,17.4-3.8,26.1-5.6c1.1-0.2,2.2-0.4,3.2-0.7c3.6-1,4.2-0.6,4.2,2.9c0.1,6.6,0.4,13.2,0.4,19.8c0,7.6-0.3,15.3-0.3,22.9 c-0.1,20.1,0,40.2,0,60.3c0,2.7,0.1,5.5,0,8.2c-0.2,2.4,0.6,3.3,3.1,3.2c4.9-0.1,9.8,0.2,14.6,0.2c2.3,0,4.1,0.3,3.9,3.5 c0.9-3.8,3.7-3.6,6.4-3.6c8.8,0,17.5-0.1,26.3-0.1c1,0,1.9,0.1,3,0.1c-6.3,10.2-7.2,22-11.2,32.4c-3.3,0-6.1-0.3-8.9,0.1 c-6.6,0.8-13.2-0.3-19.7,0.1c-0.9,0.1-1.9,0.9-2.5,1.6C284.8,676.1,284.4,677.2,283.4,678.9z"></path> <path style="fill:#FFFFFF;" d="M412.3,478.4c-11.8,0-23.4,0.1-35,0c-21.4-0.2-42.7-0.4-64.1-0.7c-19-0.2-38-0.5-57.1-0.7 c-4.7-0.1-9.4-0.1-14-0.4c-1-0.1-2.2-1-2.9-1.9c-2.6-3.1-5-6.4-7.4-9.6c-0.7-0.9-1.2-1.8-2.2-3.2c3,0,5.4,0.1,7.9,0 c4.1-0.1,8.1-0.3,12.1-0.5c5.5-0.3,10.9-0.8,16.4-1.1c10-0.5,20.1-0.8,30.1-1.3c18.2-0.8,36.3-1.6,54.5-2.4 c12.1-0.6,24.1-1.2,36.2-1.8c4.4-0.2,8.9-0.8,13.3-1.1c0.9,0,2.3,0.5,2.6,1.2c3.3,7.4,6.3,14.9,9.5,22.3 C412.4,477.4,412.3,477.8,412.3,478.4z"></path> <path style="fill:#FFFFFF;" d="M604.7,478.5c3.5-8.4,6.7-16.2,10.1-24c0.2-0.5,1.5-0.9,2.3-0.9c16.3,0.8,32.5,1.7,48.8,2.6 c10.7,0.6,21.3,1,32,1.6c13.5,0.7,27,1.6,40.5,2.3c8.4,0.5,16.9,0.9,25.3,1.3c5.6,0.3,11.2,0.5,16.8,0.6c2.1,0,4.2-0.3,6.6,0.1 c-0.8,0.6-1.4,1.5-2.3,1.7c-3.8,0.8-5.7,3.7-7.3,6.8c-0.4,0.8-0.6,2.3-0.2,3c1.9,2.9-0.3,2.9-2,3c-6.2,0.2-12.4,0.3-18.6,0.4 c-33.9,0.3-67.8,0.6-101.7,0.9c-15.5,0.1-30.9,0.4-46.4,0.6C607.5,478.5,606.4,478.5,604.7,478.5z"></path> <path style="fill:#FFFFFF;" d="M489,295.2c-0.7,1.3-1.2,2.3-1.9,3.3c-4,5.6-6.3,11.7-6,18.7c0.2,5,0.2,10-0.2,14.9 c-0.4,4.9,1.2,9,4,12.7c2.1,2.7,2,5,0,7.6c-2.8,3.6-4.2,7.6-3.9,12.4c0.4,4.6,0,9.3-0.1,14c-0.2,7,1.4,13.5,5.7,19.2 c0.9,1.3,1.4,2.9,2.2,4.7c-9.5,0-18.1,0-26.8,0c0-0.2,0-0.5,0-0.7c5.8,0,11.7,0,17.5,0c0-0.4,0-0.7,0-1.1 c-7.1,0.9-14.1-0.8-21.3,1.3c-4.1,1.2-8.8,0.2-13.8,0.2c0.6-1.3,1-2.6,1.8-3.7c3.4-4.5,6.5-9.1,7.7-14.6c0.3-1.4,0.6-2.8,0.6-4.2 c0.1-4.6-0.3-9.2,0.1-13.7c0.5-5.5-1.1-10.2-4.3-14.4c-1.8-2.3-1.9-4.5,0-6.6c6.1-6.9,4.2-15.3,4.1-23.2c0-4.9-0.3-9.9-2.9-14.3 c-2-3.4-4-6.8-6-10.1c-1.4-2.3-0.9-3.5,1.8-3.5c13.4,0.1,26.8,0.3,40.3,0.5C487.8,294.7,488.1,294.9,489,295.2z"></path> <path style="fill:#FFFFFF;" d="M483.1,440.7c3.1,0,6.1,0.2,9.1,0c4.4-0.3,7.9,1.4,10.3,4.8c3.1,4.5,5.7,9.2,8.2,14 c1.1,2,1.6,4.2,3.9,5.5c0.9,0.5,1.6,2.9,1.1,3.8c-5.3,10.7-10.7,21.4-20.4,29.1c-0.4,0.3-1,0.6-1.6,0.6c-5.7-0.1-11.4-0.6-17-0.3 c-6.8,0.4-11.4-3.2-14.7-8.1c-4-5.9-7.1-12.5-10.3-18.9c-1-1.9-1.8-4.1,1.9-5.3c1.6-0.5,2.8-3.7,3.4-5.9c2-7.1,5.1-13.4,11.1-17.9 c1.2-0.9,3.1-1.3,4.8-1.4C476.2,440.5,479.7,440.7,483.1,440.7z M484.9,447.1c-5.5-0.2-7.6,1.8-10.1,7.3c-3.1,6.7-3.5,13.9-2.4,21.1 c0.5,3.9,1.2,7.8,2.7,11.4c2.4,5.8,9.9,8.3,14.5,5c4.4-3.1,6.9-7.7,7.1-13.1c0.2-4.9-0.7-10-0.3-14.9c0.4-4.5-1.1-8.1-3.1-11.7 C491.3,448.7,488.5,446.7,484.9,447.1z"></path> <path style="fill:#FFFFFF;" d="M524.8,467.6c0.3-0.5,0.4-0.9,0.7-1.2c4.7-4.3,4.4-10,4.1-15.5c-0.1-2.9-2.5-4.5-5.1-5.4 c-1.1-0.4-2.2-0.6-3.6-1c1.3-2.4,2.5-3.9,5.2-3.9c15.6,0.1,31.1,0.1,46.7,0c2.8,0,3.9,0.9,3.8,3.7c-0.1,1.9,0.3,3.9,0,5.8 c-0.2,1.2-0.9,3-1.8,3.4c-1.2,0.5-2.8-0.1-4.3-0.3c-0.3,0-0.7-0.4-0.9-0.8c-2.9-4.2-7.1-4.7-11.8-4.4c-3.9,0.3-7.8,0.1-11.6,0.1 c0,4.2,0.1,7.6,0,11c-0.2,4.3,3,6.9,7.2,5.8c3.8-1,5.9-3.7,7.5-7c0.5-1.1,1.2-2,1.8-3.1c2.7,1.3,4.1,3,3.6,5.9 c-0.8,4.7-1.2,9.4-0.1,14.2c0.3,1.2-0.9,2.6-1.7,4.6c-2.9-5.5-6.8-8.3-11.5-9.9c-3.8-1.2-6.2,0.8-6.3,4.8c-0.3,11-0.5,21.9-0.9,32.9 c0,1-0.8,2.7-1.6,2.9c-1,0.2-2.4-0.5-3.3-1.2c-2.8-2.4-5.2-5.2-8.1-7.4c-3-2.3-3.7-5.2-3.6-8.7c0.1-4.4,0.1-8.7,0.1-13.1 C529.4,473.3,529,472.4,524.8,467.6z"></path> <path style="fill:#FFFFFF;" d="M484.8,458.2c0.6,0.5,1.2,1,1.7,1.6c1.4,1.8,2.7,3.5,4,5.4c3.1,4.4,3.1,4.4-0.1,8.7 c-1.4,1.9-2.8,3.7-4,5.7c-1,1.6-2.2,2-3.4,0.4c-2.3-3-4.7-6.1-6.5-9.4c-0.6-1.2-0.3-3.5,0.5-4.7c1.7-2.5,3.9-4.6,6-6.8 C483.4,458.7,484,458.6,484.8,458.2z"></path> </svg> 