<?xml version="1.0" encoding="UTF-8"?> <svg xmlns="http://www.w3.org/2000/svg" xmlns:xlink="http://www.w3.org/1999/xlink" version="1.1" id="Layer_1" x="0px" y="0px" viewBox="0 0 1000 1000" style="enable-background:new 0 0 1000 1000;" xml:space="preserve"> <path style="fill:#FFFFFF;" d="M509.2,808.7c0.3-96.2-0.2-192.4,1.7-288.6c0.3-14.2,7.7-34.7,18.5-41.2 c86.4-52.3,174.4-102,262-152.3c3-1.7,7.2-1.3,10.7-1.8c15.7,70.7,12.2,79.5-44.4,112.3c-45.9,26.6-92.7,52-137.3,80.8 c-11.3,7.3-21.2,24.9-22.4,38.5c-3.1,36.1-1,72.6-1,115.9c45.7-28.4,95.7-41.8,126.1-83c-2.2-3.4-4.4-6.9-6.7-10.3 c-17.8,8.6-35.6,17.2-53.8,25.9c-18.9-66.4-13-81.5,42.3-113.4c31.2-18,62.4-36,102.7-59.2c0,55.7-3.2,104.3,0.9,152.2 c3.9,44.8-11.7,69.6-51.8,90.6c-79.1,41.3-154.8,88.9-232,133.9C519.6,808.7,514.4,808.7,509.2,808.7z"></path> <path style="fill:#FFFFFF;" d="M238.1,301.4c66.2-38.5,129.9-68.3,185-109.6c63.1-47.3,115.9-46.7,178.8-0.4 c54,39.7,115.6,68.9,173.8,103c1.8,1.1,2.4,4.3,5.8,10.9c-69.8,40.5-141.9,78.1-209.2,122.8c-42.6,28.3-75,28.9-117.8,0.4 C387,383.7,314.9,346,238.1,301.4z M413.1,312.5c-18.8-22.3-38.8-22.9-59.3-10.4c-3.4,2.1-3.7,18.8-0.5,20.9 C373.5,336,393.6,336.5,413.1,312.5z M573.2,232c0.3-5.3,0.6-10.6,0.9-16c-15.4-21.5-36-18.9-56.3-8.6c-3.2,1.6-1.7,20.5-1.2,20.6 C535.3,230.2,554.3,231,573.2,232z M424.2,265.5c23.8,25.3,45.5,25.7,70.5,0.3C470,240.1,448.3,240.8,424.2,265.5z M655.9,309.2 c12.4-9.3,21.8-16.3,31.1-23.3c-9.4-6.5-19-18.6-28.1-18.2c-11.2,0.5-21.8,11.4-32.7,17.9C635.2,292.7,644.1,299.8,655.9,309.2z M607.4,341.5c-0.3-5-0.5-9.9-0.8-14.9c-23.1-17.2-44.8-20.2-72.3,14.9C564.5,341.5,586,341.5,607.4,341.5z M508.1,344.4 c-25.4,19.6-35.2,27.2-45.1,34.8c8.3,6.1,16.8,17.4,24.8,17c12.1-0.5,27.9-6.4,34.1-15.5C525.6,375.1,514.2,359.3,508.1,344.4z"></path> <path style="fill:#FFFFFF;" d="M219.4,319.2c28.5,16.1,51.9,26.9,72,42c8.2,6.1,12.8,21.6,13,33c1.3,58.5,2,117.1-0.1,175.5 c-0.9,26.1,8.4,40.5,30.6,52c31.1,16,59.3,38.2,91.4,51.3c54.2,22.1,70.9,58.9,53.2,116.7c-7.7-3.2-16.9-6.1-25.1-10.8 c-70.9-40.5-141.8-81-212-122.7c-9.7-5.8-22-18-22.1-27.4C218.8,528.1,219.4,427.2,219.4,319.2z"></path> </svg> 