<?xml version="1.0" encoding="UTF-8"?> <svg xmlns="http://www.w3.org/2000/svg" xmlns:xlink="http://www.w3.org/1999/xlink" version="1.1" id="Layer_1" x="0px" y="0px" viewBox="0 0 1000 1000" style="enable-background:new 0 0 1000 1000;" xml:space="preserve"> <path style="fill:#FFFFFF;" d="M595.4,554.5c-24.1,1.4-24.1,1.4-25.6,24.1c-10.4-4.7-20.6-6.7-29.1,3.1c-0.8,0.9-4,1-4.8,0.2 c-12-12-25.8-6.6-39.3-3.9c-3-21.5-3-21.5-23.5-23.9c1.1-7.4,5-16.1,2.4-22c-2.3-5.3-11.7-7.5-18-11c10.4-17.2,8.3-25.6-10-40.1 c15.6-10.9,17.7-8.7,6.3-36.9c20.7-8.5,21.3-14.6,19.9-30.5c19.7,7.2,21.2-8.5,25.9-21.9c14.9,11.9,25.9,8.1,33.3-9.4 c5.9,9.9,10.7,18.1,16,27.1c6.5-5.7,12.6-11,20.4-17.9c0,9.6,0,17.2,0,26.2c9.3-1.7,17.1-3.1,26.4-4.8c-2.5,8.4-4.6,15.4-7,23.4 c-4.8-3.2-8.8-6-12.9-8.8c-0.7,0.5-1.4,1.1-2.1,1.6c13,10.2,16.3,23.7,14.4,37.6c10.3,4.4,19.5,8.4,30.8,13.2 c-10.9,5.7-19.4,10.2-29.4,15.5c7.4,7,14.1,13.4,22.7,21.5C583.9,520.8,592.6,539.1,595.4,554.5z M529.2,481.8 c-2.7-14.6-13.8-21.2-25.8-19c-8.3,1.5-14.5,9.3-11.6,17.3c7.2,19.6,21.6,6.9,31.1,6.1c1.1,5.9,0.3,12.9,3.4,16.1 c2.7,2.7,11.7,3.4,14.5,1c3.5-3,3.4-10.1,5.1-16.3c1.4,0.5,4.5,1.8,7.8,2.7c12.1,3.3,21.7-1.1,22.7-10.2c0.9-7.9-2.1-12.8-9.9-15.3 c-8.9-2.8-21.8,0.6-26.3,6.6C537.8,474.3,534.2,477,529.2,481.8z M502,567.5c12.1,1.3,23.9,2.5,34.7,3.6c9.7-2,19-4,28.5-6 c0.9-4.9,2-10.7,3.1-16.4c-8.6,14.7-22.9,11.4-36.3,13c-16.3,1.9-24.7-8.8-35.3-17.3C498.6,552.8,500.4,560.6,502,567.5z M498.3,420.4c-29.3,5.5-24.9,31.3-32.3,50.7c12.2-1,13.5-1.3,13.6-11.2C479.7,443.6,484.1,429.9,498.3,420.4z M509.1,533.3 c1.5-25.7,1.5-25.7-21.1-25.4C499.6,512.7,506.5,521.2,509.1,533.3z M579.4,509.5c-18.7-3.6-21.5,0.1-17.9,22.8 C562.3,520.8,566.5,511.9,579.4,509.5z"></path> <path style="fill:#FFFFFF;" d="M823.4,528.6c0.9-12.1,1.9-22.5,2.3-33c0.4-11.1-0.2-22.1,0.2-33.2c0.3-8-2.1-12.1-11-11.4 c-5,0.4-10-0.9-15.1-1.4c-0.1-1.1-0.1-2.2-0.2-3.3c7.6-0.9,15.2-2.6,22.8-2.5c14,0.2,27.9,1.7,41.9,1.9c3.8,0.1,8.2-2,11.5-4.3 c23-15.6,57.1-16.3,79-0.4c5.4,3.9,8.9,10.5,14.6,17.7c-12.5,0-22.6,0-31.3,0c-2.5-6-3.5-14.1-6.7-15c-8.8-2.6-18.8-4-27.7-2.5 c-8.6,1.5-7.8,18.5,1.5,24c11.8,6.9,24.7,12.1,36.6,18.8c15.6,8.8,29.1,24.6,21.4,41.3c-5.3,11.5-15.9,18.6-28.3,20 c-13.1,1.5-26.5,1-39.8,0.3c-10.8-0.5-27.9-16.2-30.2-26.5c7.7-0.8,15.4-2.1,23.1-2.1c2.2,0,4.5,3.8,6.6,6c4.5,4.7,8.2,11.2,13.7,14 c7.6,3.9,16.1,3.2,22.5-4.4c7.3-8.7,3.1-19.9-9.4-27.4c-17.2-10.4-34.3-20.9-50.4-32.8c-4.2-3.1-4.5-11.5-6.9-18.6 c-20.4-7.4-22.3-6-21.4,16.9c0.6,14,0.6,28,1.1,42.1c0.1,2.8,0.1,6.4,1.8,8.2c8.8,9.4,1.4,9.9-5.4,9.7 C834.2,530.5,828,529.2,823.4,528.6z"></path> <path style="fill:#FFFFFF;" d="M416.9,502c0-19.5,0-37.4,0-56c7.5,0,15.7,0,22.2,0c0,10,0.2,19.4-0.1,28.7c-0.3,9.5-1.9,19-1.6,28.5 c0.2,6.8,3.1,13.5,3.7,20.3c0.2,2.3-2.3,6.8-4.2,7.2c-14,2.5-21.6-2.9-25.9-16.5c-3.4-10.8-7.4-21.4-11.2-32.1 c-1.2,0.3-2.4,0.5-3.6,0.8c0,15,0,29.9,0,45.5c-29.2,0-59.6,0-88.7,0c0-27.5,0-54.6,0-83.8c12.7,0,27.8-0.1,42.9,0 c10.6,0.1,21.1,0.9,31.7,0.6c8.8-0.3,16.4,6.4,18.2,15.2c1.5,7,5,13.6,7.7,20.3C410.9,487.3,413.7,494,416.9,502z M347.9,485.2 c0.8,6.7-4.6,6.5-10.2,7.1c-3.4,0.4-8.8,2.1-9.3,4.1c-1.4,5.8-1.3,12.1-0.8,18.1c0.5,5.8,4.4,9.3,10.5,9.4c9.9,0.3,19.8,0,29.7,0.6 c7.2,0.4,9.4-2.5,9.1-9.4c-0.6-14.1-0.4-28.2-1.1-42.2c-1.1-22-1.3-22-24-21.6c-8.6,0.1-17.3,0-24.6,0c0,10.6-2.6,19.8,0.8,25.5 C330.9,481.7,340.6,482.4,347.9,485.2z"></path> <path style="fill:#FFFFFF;" d="M688.8,463.7c5-4.9,14.6-7.1,5.8-18.5c16.5,0.3,31.8-3.6,43.8,6.6c9,7.6,15.2,17.5,15.1,31.5 c0,11.6-0.3,21.4-6.7,31.6c-7.5,11.9-18.6,14.7-30.9,15c-11.2,0.2-16.7-7-22.4-16.4c-8.9-14.7-9.8-29.2-4.7-47.3 c-6.6,0-11.8,0.1-17.1,0c-3.8-0.1-9.3,1.4-6.4-6.2c0.4-1.1-3.8-5.6-5.7-5.5c-9.3,0.4-17.4,9.8-17.2,19.3c0.2,11-1.6,21.9,2,32.9 c3.7,11.2,8.3,15.6,20.5,15.9c5,0.1,10.2-0.5,15.1,0.3c3.6,0.6,6.8,2.9,12.2,5.4c-25.7,9.5-51.1,3.6-63.2-15 c-9.3-14.3-7.8-30.7-2.9-46.6c1.8-5.7,3.7-11.4,5.8-17c0.6-1.5,1.8-3.2,3.2-3.9c10.5-5.4,41.6,1.1,49.4,10.3 C686.3,458.2,687.3,460.9,688.8,463.7z M718.8,524.1c3.6-2.8,8.6-4.8,10.1-8.2c7.4-17.4,10.2-35.4,2.3-53.5 c-4.6-10.4-16.8-11.5-21.9-1.3c-3.5,7-2.9,16-5.2,23.8c-3.9,13.3,4.5,23.7,7.6,35.3C712.1,521.8,715.4,522.4,718.8,524.1z"></path> <path style="fill:#FFFFFF;" d="M182.1,528.5c4.1-27,3.9-53.3,0.8-82.3c6.8-0.4,15.5-0.9,21.9-1.3c-0.2,16.2-0.5,31.5-0.6,46.8 c-0.1,7.8,0.2,15.7-0.1,23.5c-0.3,6.5,3.1,9,8.9,9.2c6.9,0.2,13.9,0.3,20.8-0.3c1.7-0.1,4.7-3.5,4.4-4.7c-2-7.7,3.8-14.3,1.4-22.9 c-3-10.8-0.6-22.9-0.9-34.5c-0.1-4.9-1.4-9.8-2.3-15.8c13.9,0,29.4,0,45,0.1c0.9,0,1.9,0.9,2.8,1.5c13.6,9.5,21.3,39,14.1,54 c-2.1,4.4-4.2,8.8-6.2,13.2c-8.5,18.5-26,13.6-40.8,14.9c-12,1.1-24.2,0.7-36.3,0.4C203.6,530,192.3,529.1,182.1,528.5z M258.1,455.9c0,19-0.2,36.9,0.2,54.9c0.1,4,2.5,7.9,3.9,11.9c4.4-2.5,9.2-4.5,13.2-7.6c2-1.5,3.6-4.8,3.7-7.4 c0.3-17,0.2-34,0.2-51.7C271.1,455.9,264.8,455.9,258.1,455.9z"></path> <path style="fill:#FFFFFF;" d="M71.2,492.5c-3.5,0-6.8,0.9-9-0.3c-2.1-1-4-4.1-4.3-6.5c-0.2-1.6,2.6-5,4.2-5.1 c13.4-0.3,26.9,0,40.3,0.2c0.8,0,1.6,1.1,1.9,1.3c-10.3,17.1-5.6,35.1-5.2,52.8c0.1,2.8-1.6,8.2-2.5,8.2 c-17.7,0.2-35.6,5.9-52.9-3.5c-17.6-9.6-27.8-23.2-27.4-43.4c0.2-10.9-0.6-22.5,2.7-32.6c3.2-9.7,11-17.9,17-27.1 c-1.1-0.5-3.5-1.7-5.9-2.9c0-0.6,0.1-1.2,0.1-1.9c24.4,0,48.8,0,73.3,0c1.5,8.2,1.5,8.6-6.4,8.5c-10-0.1-20-0.8-29.9-1.6 c-8.8-0.8-22.7,9.9-24.8,20.1c-4.8,23.2-3.2,45.7,7.4,67.4c4.4,8.9,11.7,9.4,21.5,8.9C71.2,521.3,71.2,507.5,71.2,492.5z"></path> <path style="fill:#FFFFFF;" d="M121.2,444.4c10,0,19.6-0.3,29.2,0.1c5.8,0.2,11.2,0.1,13.5,8.6c2.2,8.3,8.7,15.5,12.6,23.5 c7.6,15.6-0.2,27.5-8.6,40.4c-8.8,13.5-21.5,13.9-32.9,10.2c-13.6-4.5-22.2-14.9-24.5-31.4c-2.2-15.7,1-28,9.8-40.3 C121.9,453.4,120.9,449.3,121.2,444.4z M160.4,488.1c-1.5-8.8-2.6-19-5.4-28.8c-1-3.3-6.5-7.3-9.9-7.4c-4.1,0-10.1,2.9-11.9,6.4 c-9.1,17.6-5.9,36.1-0.8,54c1.2,4.1,7.9,8.7,12.4,9c3.5,0.2,9.2-5.1,10.9-9.2C158.4,505.1,158.8,497.1,160.4,488.1z"></path> <path style="fill:#FFFFFF;" d="M761,530.2c0-15,1.1-28.7-0.3-42.1c-1.4-13.3,9.9-27.8-5.9-41.4c11.3,0,20.4,0,28.3,0 c0,6.3,0,12.6,0,18.9c0,19.2,0,38.4,0,59.2c10.4,0,20.9,0,31.5,0c0,1.3,0,2.6,0,3.9C796.2,533.2,777.2,528.3,761,530.2z"></path> <path style="fill:#FFFFFF;" d="M598,460.3c-0.9-5.2-1.6-9.2-2.6-14.6c5.3,0.5,10,1,17.7,1.8C607.2,452.5,603.3,455.8,598,460.3z"></path> </svg> 