<?xml version="1.0" encoding="UTF-8"?> <svg xmlns="http://www.w3.org/2000/svg" xmlns:xlink="http://www.w3.org/1999/xlink" version="1.1" id="Layer_1" x="0px" y="0px" viewBox="0 0 1000 1000" style="enable-background:new 0 0 1000 1000;" xml:space="preserve"> <path style="fill:#FFFFFF;" d="M677.8,672.7c10.4-24.5-0.9-45.8-5.7-67.4c-10.2-46.5-18.3-34.8,23.5-64.7 c32-22.9,68.6-39.5,103-59.2c15.1-8.6,31-16.4,44.4-27.2c7.4-6,15.9-19,14-26.2c-3.7-13.7-19.7-10.2-29.7-7.5 c-28.9,7.8-57.2,17.9-85.7,27.1c-4,1.3-7.9,3.2-16,6.6c-2.6-16.3-5.2-31-7.1-45.8c-1.3-10.7-1.1-21.6-2.5-32.3 c-0.4-3.3-3.5-7.2-6.4-9.2c-9.5-6.3-9.8-13.5-0.7-19c49.1-30.2,101.9-49.6,160.2-39.9c54.5,9,80.5,49.9,93.7,98.6 c14.6,53.9-0.9,97-48.3,126.5c-30.6,19.1-66,30.5-99.2,45.5c-4.8,2.1-9.4,4.6-18.6,9.1c21.6,5,38.6,9.5,55.9,12.7 c17.3,3.2,34.8,5,54.4,7.7c-10.8,38.8-21.2,76.2-32.2,115.7C809.1,706.6,744.1,689.8,677.8,672.7z"></path> <path style="fill:#FFFFFF;" d="M221.5,494.3c-26-17.3-20.5-45.4-23.6-71.3c-1.2-10.4-7.8-20.3-12.3-30.3c-3-6.8-6.6-13.4-11.4-22.9 c18.5-3.2,35.4-6.1,52.2-9c5.9-1,11.8-2,17.7-3c39.6-6.7,39.6-6.7,45.8,33.1c0.8,5.3,1.9,10.6,3.1,17.5c-9.9,3-19.4,6.6-29.3,8.7 c-13.1,2.9-20.4,7.5-11.7,21.9c2.4,4,2.5,9.3,4.1,15.9c7.2-0.7,14.5-1.5,21.8-2.1c7.6-0.5,15.1-0.7,24.7-1.1 c1.8,13.7,3.6,26.8,5.5,41.2c-11.9,1.8-22.4,3.4-34.6,5.2c1.4,9,2.6,17.3,4.1,27.1c11.2,0,21.4,0.1,31.6,0 c13.9-0.1,21.4,5.1,23.8,20.3c5.9,39.1,6.7,39-30.5,48.9c-31.9,8.5-32,8.5-44.2-21.5c-10.1-24.9-20-49.9-33.6-74.1 c0.6,3.5,0.6,7.2,1.8,10.5c4.2,12.1,8.2,24.3,13.5,35.9c8.8,19.4,8.6,40.1,11.6,60.5c4.5,30.4-3.6,52.4-31.1,67 c-30.6,16.2-59.9,13.5-88.4-5c-27.3-17.8-43.6-44.3-58.2-72.3c-20.8-39.9-29.2-81.8-26.5-126.8c3-51.7,42.7-84.9,94.1-76.4 c5.4,0.9,10.8,1.5,16.1,2.6c25.4,5.5,27.9,9.4,25.8,34.9c-0.9,11.3,0.5,22.7-0.2,34c-0.6,10-4.4,14-15.9,9.7 c-30.2-11.3-54.8,10.2-48.4,42c4.4,21.7,9.3,43.3,15.7,64.5c8,26.5,25.9,30.1,50,28.4c12.4-0.8,20.5-20.5,13.4-31.1 c-1.7-2.6-8.2-4.9-10.5-3.7c-10.9,5.6-14-0.1-17.3-8.9c-5.1-13.5-10.9-26.8-17-39.9c-5.4-11.7-4.8-18.8,10.3-21.8 c13.1-2.5,25.5-8.9,38.6-11.8C207.7,489.8,214.3,493,221.5,494.3z"></path> <path style="fill:#FFFFFF;" d="M402.2,327.6c17.1,0,32.8,0,50.6,0c0,84.8,0,170.2,0,256.2c-14.2,5.4-22.6-0.3-26.1-15.2 c-3.2-13.6-6.5-27.2-10.7-44.5c-8.4,11.6-14.7,20.4-21.9,30.4c-5.9-5.1-11-9.6-19.3-16.9c0,15.7-0.1,28.7,0,41.6 c0.2,21.1-0.4,21.6-22.8,17.7c-4.2-18.8-8.2-37.9-13-56.7c-1.5-6.1-3.9-15-8.2-16.7c-14.8-5.9-14.6-15.2-14.3-29 c0.4-18.3,0.3-38.2-17.1-52.1c-3.2-2.5-5.5-11.5-3.6-14.1c12.9-17.5,3.6-34.6-0.3-51.3c-3.9-16.4-5.3-35.5-27-40.8 c-1.8-0.4-2.8-4.2-6.1-9.5c22.9-0.9,43.3-2.2,63.8-1.9c3.3,0,7.8,6.5,9.7,10.8c12.8,29.2,25.1,58.7,39.7,92.9 C385,392.5,393.4,361,402.2,327.6z"></path> <path style="fill:#FFFFFF;" d="M604.6,421c12.7-14.3,22.8-26.2,33.7-37.3c2.9-2.9,8.6-3.8,13.2-4.1c3.6-0.3,7.3,1.7,11,2.5 c33.1,8,36.5,20,16.9,48c-17.5,25-32.5,51.8-47.9,78.3c-1.9,3.2,0.3,9.2,1.4,13.7c8.3,33.8,17,67.6,25.3,101.4 c1.2,5,0.8,10.4,1.3,18.8c-22.6-3.8-43-7.2-63.1-10.5c-4.6-25-9-48.7-14.2-77c-17.4,16.3-31.3,29.3-45.2,42.5 c-13,12.4-28.1,15.5-42.7,6.8c-3.5-2.1-6.2-10.5-4.9-14.6c2.2-7.2,6.6-14.9,12.4-19.5c3.6-2.9,11.4-0.5,12.6-0.5 c13.7-23.8,24.6-45.2,37.9-65c7.9-11.7,10.2-22.4,7.6-35.9c-6.5-34.1-12.1-68.3-17.9-102.5c-0.6-3.5-0.1-7.2-0.1-11.1 c9.8,0,19.1-0.8,28.1,0.2c24.9,2.6,25.5,4.3,27,28.7C597.8,394.7,601.4,405.7,604.6,421z"></path> <path style="fill:#FFFFFF;" d="M515.2,560.3c-15.4,0-28.9,0-46,0c-0.8-20.5-2.7-40.7-2-60.9c1.3-40.1,4.6-80.1,6-120.2 c0.5-14.3,6.4-19.8,20.1-18.4c2.2,0.2,4.3,0.2,6.5,0.3c47.3,2.2,36.5-1,34.3,38.9c-2.7,49.4-10.3,98.6-15.9,147.8 C517.7,552,516.2,556.1,515.2,560.3z"></path> <path style="fill:#FFFFFF;" d="M530.3,342.6c-12.3,1.1-24.6,2.5-36.9,3.2c-16.2,0.9-22.4-5.6-23.8-21.7c-0.6-7.1-2.5-14.7-6-20.9 c-12-21.3-4.6-39.9,18.8-46.6c4.7-1.4,9.8-4.3,12.9-8c13.8-16.3,39.3-15,50.8,2.7c2.4,3.6,6.3,7.1,10.3,8.7 c17.3,6.6,24.3,29.4,11.6,43c-5.6,6.1-8.3,10.4-7.1,19.2C563.1,337.1,551.4,344.9,530.3,342.6z"></path> </svg> 