<?xml version="1.0" encoding="UTF-8"?> <svg xmlns="http://www.w3.org/2000/svg" xmlns:xlink="http://www.w3.org/1999/xlink" version="1.1" id="Layer_1" x="0px" y="0px" viewBox="0 0 1000 1000" style="enable-background:new 0 0 1000 1000;" xml:space="preserve"> <path style="fill:#FFFFFF;" d="M481.1,853.7c-5.9-0.6-11.8-1.2-17.7-1.8c-60.2-6.5-115.3-27-164.5-62.3 c-67-47.9-111.8-111.7-134.6-191c-0.5-1.6-0.8-3.3-1.3-5.5c3,0,5.7-0.2,8.3,0.1c0.8,0.1,1.8,1.6,2.1,2.6 c6.2,22.3,14.6,43.9,25.3,64.4c31.1,59.6,75.8,106.2,134.1,139.6c35.8,20.6,74.2,33.9,115,40.2c34.3,5.4,68.7,5.5,103.1,0.4 c50.3-7.5,96.7-25.2,138.8-53.7c64.1-43.4,108.7-101.9,133.5-175.4c3.2-9.6,5.5-19.5,8.3-29.3c0.4-1.3,1-2.7,1.9-3.7 c14.6-15.2,16.3-42.1,8.3-59.4c-0.9-2-1.3-4.3-1.4-6.5c-0.2-5.8-0.1-11.7,0.3-17.8c1.3,4.1,3.9,6.3,8.2,6.5c0.4,0,1.2,2.2,1.1,3.3 c-0.6,12.5-0.7,25.1-2,37.6c-4.6,44.6-17.1,87-38.8,126.3c-53.4,96.6-134.3,156.4-242.5,178.9c-14.2,3-28.9,3.8-43.4,5.6 c-1.1,0.1-2.1,0.4-3.2,0.5C507.1,853.7,494.1,853.7,481.1,853.7z"></path> <path style="fill:#FFFFFF;" d="M184,433.5C214.5,293.7,344.4,175.8,510.7,181c168.2,5.2,284.1,131.4,308.1,258.4 c-10.9-6.3-22.5-9.2-34.6-10c-12.2-0.8-24.2-0.4-36.5,2.7c-0.6-1.7-1.2-3.4-1.7-5.1c-23.2-69.5-67.7-120.5-133.2-153 c-29.1-14.5-60-22.6-92.4-24.7c-68.4-4.6-129.7,14.4-182.9,57.7c-39.9,32.5-67.3,73.7-82.5,122.8c-1,3.1-2.3,4-5.4,3.9 c-8.7-0.2-17.3-0.2-26,0c-2.3,0-4.6,0.8-6.9,1.2c-0.3,0.1-0.7,0.4-0.9,0.3c-9.2-3.3-18.6-0.7-27.9-1.5 C186.7,433.4,185.5,433.5,184,433.5z"></path> <path style="fill:#FFFFFF;" d="M743.1,592.1c23.7,7.2,47.1,6.9,71-0.5c-12.2,43.8-32.4,83.3-61.2,118.2 c-52,63-118.3,102.2-198.9,115.4c-173,28.3-324.5-82.2-365.9-232c3.7-1.4,5-4.4,5.6-8.2c6.5-39.1,13.1-78.2,19.7-117.3 c0.1-0.3,0.2-0.6,0.8-1c0,1.1,0,2.3,0,3.4c0,38,0,76,0,114c0,6.9,2,8.9,8.9,8.9c10.9,0,21.9,0.1,32.8,0c2.3,0,3.4,0.7,4.2,2.9 c30.9,77.2,85.6,129.6,164.9,154.6c62.5,19.7,124.5,15.4,184-12.3c64-29.8,108.2-78.5,133.5-144.4 C742.7,593.4,742.8,592.9,743.1,592.1z"></path> <path style="fill:#FFFFFF;" d="M631,573.6c4.5,0,8.4-0.1,12.3,0.1c0.9,0.1,2.2,1.2,2.5,2.1c1,3.4,1.6,6.9,2.4,10.4 c1.2,5.5,3,6.9,8.8,6.9c8.9,0,17.8,0,26.6,0c1.1,0,2.1,0,3.3,0c-24.5,56-88.4,113.5-175.4,117.8c-96.8,4.8-169.2-55.6-197-117.8 c1.3,0,2.5,0,3.6,0c11.3,0,22.5-0.1,33.8,0c3.6,0,6.4-0.9,8.2-5.1c2,4.9,5.8,5.1,9.9,5.1c13.1-0.1,26.2-0.1,39.3,0.1 c1.7,0,3.8,0.8,5.1,2c22.7,21.1,49.5,33,80.6,34.3c35.5,1.5,66.2-10.2,92.2-34.3c1.3-1.2,3.4-2,5.1-2c9.2-0.2,18.4-0.1,27.6-0.1 c5.1,0,7.2-1.8,8.3-6.8C629.1,582.1,630.1,578,631,573.6z M474,664.2c-0.1,0.3-0.2,0.5-0.3,0.8c5.5,4,10.9,7.9,16.3,11.8 c-2,6.7-3.8,13-5.7,19.4c0.2,0.1,0.4,0.2,0.6,0.4c5.3-3.9,10.6-7.8,15.9-11.7c5.4,4,10.7,7.9,15.9,11.7c-1-5.8-2.5-11.2-4.2-16.5 c-0.8-2.4-0.6-3.8,1.7-5.3c4-2.5,7.8-5.5,11.7-8.2c0.7-0.5,1.3-1.1,2.7-2.3c-6.3,0-11.6-0.3-16.8,0.1c-3.5,0.3-4.9-1.1-5.8-4.3 c-1.3-5-3.1-10-5-15.8c-0.7,1.7-1,2.4-1.3,3.2c-1.5,4.7-3.2,9.4-4.6,14.2c-0.6,2-1.5,2.7-3.6,2.6C485.7,664.1,479.8,664.2,474,664.2 z M561.1,672.4c5.4,4,10.6,7.9,16.1,11.9c0.1-0.8,0.2-1.1,0.2-1.4c-1.2-4-2.4-8.1-3.6-12.1c-1.9-6.4-1.9-6.4,3.4-10.3 c2.5-1.8,4.9-3.5,7.4-5.3c1.2-0.9,2.5-1.8,3.7-2.7c-0.1-0.3-0.2-0.5-0.4-0.8c-4.5,0-9,0-13.5,0c-6.6,0-6.6,0-8.7-6.3 c-1.4-4.2-2.8-8.4-4.2-12.6c-0.3,0-0.6,0-0.9,0c-1.7,5.3-3.6,10.5-5.1,15.9c-0.7,2.4-1.8,3.2-4.3,3.1c-5.7-0.2-11.3-0.1-18-0.1 c1.4,1.2,2,1.7,2.6,2.2c3.9,2.8,7.8,5.8,11.9,8.5c2.1,1.4,2.4,2.7,1.6,5c-1.8,5.4-3.3,10.8-4.9,16.3c0.2,0.1,0.4,0.3,0.6,0.4 C550.5,680.3,555.8,676.4,561.1,672.4z M440.6,632.6c-0.7,0.6-0.9,0.7-1,0.9c-1.2,3.6-2.3,7.2-3.5,10.8c-2.5,7.6-2.5,7.6-10.4,7.6 c-4.1,0-8.3,0-12.4,0c4.3,4,8.7,7.3,13.2,10.3c2.2,1.5,2.9,2.9,2,5.5c-1.8,5.3-3.2,10.7-4.8,16c5.1-2.9,9.6-6.1,14-9.6 c1.9-1.5,3.1-1.4,5,0c4.4,3.5,8.9,6.7,14,10.5c-0.3-1.6-0.4-2.3-0.6-3c-1.4-4.8-2.7-9.6-4.3-14.3c-0.7-2.2-0.4-3.5,1.6-4.8 c4.2-2.8,8.3-5.8,12.4-8.8c0.5-0.4,0.9-0.9,1.7-1.9c-5.9,0-11.2-0.2-16.5,0.1c-3.2,0.2-4.8-0.7-5.6-4 C444.2,642.9,442.3,637.9,440.6,632.6z M402.6,648.9c0.2-0.2,0.4-0.3,0.6-0.5c-1.4-4.8-2.8-9.7-4.3-14.5c-1.5-4.9-1.5-4.9,2.7-7.9 c4.1-2.9,8.1-5.8,12.2-8.8c-0.1-0.3-0.2-0.5-0.3-0.8c-4.9,0-9.8,0-14.8,0c-5.5,0-5.5,0-7.2-5.2c-1.5-4.7-3.1-9.4-4.6-14 c-2.6,5.4-4.5,10.8-6,16.2c-0.7,2.5-1.9,3.1-4.3,3.1c-5.7-0.2-11.4-0.1-17-0.1c0.6,1.3,1.4,2,2.2,2.6c3.8,2.7,7.5,5.6,11.4,8.1 c2.1,1.3,2.6,2.6,1.8,5c-1.8,5.4-3.3,10.9-4.9,16.3c0.2,0.2,0.4,0.3,0.7,0.5c5.3-3.9,10.6-7.9,15.9-11.8 C392.1,641.2,397.3,645,402.6,648.9z M598.6,649.3c1.5-0.9,2.2-1.3,2.8-1.8c4-2.9,8-5.9,12-8.9c1.4-1.1,2.5-1.2,4,0 c3.7,2.9,7.6,5.7,11.4,8.5c0.8,0.6,1.7,1,2.5,1.6c-0.9-5.4-2.1-10.4-3.9-15.3c-1.2-3.3-0.6-5.1,2.4-7c4.4-2.7,8.5-6,12.8-9.1 c-0.1-0.3-0.2-0.5-0.3-0.8c-5.6,0-11.1-0.1-16.7,0.1c-2.7,0.1-4-0.6-4.7-3.4c-1.5-5.4-3.4-10.6-5.1-15.9c-2.5,5.2-4.4,10.3-5.8,15.5 c-0.8,2.9-2.1,3.9-5.1,3.7c-5.4-0.3-10.9-0.1-16.3-0.1c-0.1,0.3-0.2,0.6-0.3,0.8c4.2,3.1,8.4,6.3,12.8,9.1c2.7,1.8,3.8,3.3,2.4,6.7 C601.5,638.1,600.3,643.3,598.6,649.3z"></path> <path style="fill:#FFFFFF;" d="M153,440.3c19.4,0,38.4,0,57.9,0c-8.2,48.7-16.3,97.1-24.5,145.7c-20.6,0-41,0-61.9,0 c-1.8-25.1-3.6-50.1-5.4-75.2c-0.2,0-0.3,0-0.5,0c-1.6,25-3.3,50-4.9,75.2c-20.6,0-41,0-62,0c-8.7-48.3-17.4-96.9-26.2-145.6 c1.4-0.1,2.3-0.2,3.3-0.2c16.8,0,33.6,0,50.3-0.1c2.6,0,3.5,0.7,3.7,3.4c1.3,17.2,2.8,34.3,4.2,51.4c0.4,4.7,0.6,9.5,0.9,14.3 c0.1,1,0.1,2,0.2,3c0.3,0,0.7,0,1,0c0.7-23.8,1.4-47.7,2.1-71.7c1-0.1,1.8-0.3,2.6-0.3c15.6,0,31.2,0,46.8,0c1.9,0,3,0.3,3.1,2.5 c1.1,21.6,2.3,43.2,3.4,64.8c0.1,1.6,0,3.3,0,4.9c0.4,0,0.8,0,1.2,0C150,488.5,151.5,464.6,153,440.3z"></path> <path style="fill:#FFFFFF;" d="M382.9,507.2c-3.9-22.1-6.7-44.2-5-66.9c18.4,0,36.7,0,55.3,0c0,48.5,0,97,0,145.6 c-1,0.1-1.9,0.2-2.8,0.2c-20.1,0-40.3,0-60.4,0.1c-2.4,0-3.3-0.8-3.9-3.1c-5.1-20.4-10.4-40.8-15.6-61.2c-0.3-1-0.6-1.9-1.5-2.8 c4.6,22.1,4.8,44.3,4.2,66.8c-18.5,0-36.9,0-55.5,0c0-48.5,0-96.9,0-145.6c1-0.1,2.1-0.2,3.1-0.2c20,0,40,0,60.1-0.1 c2.3,0,3.4,0.5,4,2.9c5.3,20.8,10.7,41.6,16.1,62.4c0.2,0.7,0.5,1.3,0.8,2C382.2,507.4,382.6,507.3,382.9,507.2z"></path> <path style="fill:#FFFFFF;" d="M716.4,586.1c-1.2,0.1-2.2,0.2-3.1,0.2c-18.3,0-36.6,0-54.9,0.1c-2.5,0-3.3-0.8-3.8-3.1 c-0.9-4.8-2-9.5-3.2-14.2c-0.2-0.9-1.6-2.1-2.4-2.1c-7.7-0.2-15.4-0.1-23.5-0.1c-1.5,6.4-2.9,12.8-4.4,19.3c-19.9,0-39.6,0-59.8,0 c1.7-6.2,3.4-12.3,5.1-18.3c11.8-41.4,23.7-82.8,35.4-124.3c0.7-2.3,1.5-3.3,4.1-3.3c22,0.1,43.9,0.1,65.9,0c2.2,0,3.2,0.5,3.8,2.8 c13.3,46.6,26.6,93.2,40,139.8C715.9,583.7,716.1,584.8,716.4,586.1z M634.1,520.8c3,0,5.9,0,8.7,0c-1.4-9.8-2.8-19.2-4.1-28.6 c-0.1,0-0.2,0-0.3,0C637,501.8,635.6,511.3,634.1,520.8z"></path> <path style="fill:#FFFFFF;" d="M836.2,489.1c-16.8,0-33.7,0-50.6,0c-2.7-6-7.4-8.3-14.1-6.4c-1.3,0.4-2.9,1.9-3.3,3.2 c-0.7,2.2,1,3.7,3,4.2c4.6,1.2,9.3,2.2,13.9,3.3c7.8,1.9,15.7,3.4,23.2,6c16.9,5.9,28.3,17.1,30.6,35.5c3.4,27.5-9.2,45.9-36.1,52.6 c-19.7,4.9-39.5,4.7-58.7-2.7c-21.2-8.1-33.5-26.8-33.1-49.5c0-0.3,0.1-0.6,0.2-1.2c0.9-0.1,1.8-0.2,2.8-0.2c15.4,0,30.7,0,46.1,0 c1.9,0,3.1,0.2,3.7,2.5c0.9,3.4,3.6,5.6,6.9,6.1c3,0.4,6.3,0.3,9.3-0.3c1.5-0.3,3.5-2.2,3.7-3.6c0.2-1.4-1.4-3.8-2.7-4.4 c-3.3-1.5-6.9-2.4-10.5-3.2c-9.1-2-18.3-3.4-27.2-5.9c-19-5.2-28.6-17.4-30.3-37c-1.1-12.1,0.6-23.3,8.5-33 c7.3-8.9,17.1-13.8,28.1-16.3c19.9-4.5,39.7-4.6,59,3.3C828.1,449.9,837.1,468.7,836.2,489.1z"></path> <path style="fill:#FFFFFF;" d="M460.1,586c0-48.6,0-97,0-145.6c37,0,74,0,111.1,0c0,17.3,0,34.4,0,52c-17,0-33.9,0-51,0 c0,2.4,0,4.4,0,6.8c14.5,0,29,0,43.6,0c0,15.9,0,31.5,0,47.4c-14.5,0-28.9,0-43.7,0c0,13.3,0,26.2,0,39.4 C499.9,586,480.1,586,460.1,586z"></path> <path style="fill:#FFFFFF;" d="M366.7,364.9c-0.2-5-0.6-9.8-0.6-14.7c0-1,1.3-2.1,2.2-2.9c17.6-14.7,37-26.4,58.4-34.4 c47.3-17.8,94.9-18.5,142.6-2c28.2,9.7,53,25.2,74.5,45.9c0.5,0.5,1.1,1.1,1.6,1.6c0.1,0.1,0.1,0.4,0.2,0.9c-14.4,0-28.7,0-43.4,0 c0-3.2,0-6.2,0-9.2c-0.1-3.9-1.8-5.8-5.7-5.9c-12.8-0.1-25.6-0.1-38.3,0c-4.1,0-5.8,1.9-5.8,6.1c0,13.5,0,27.1,0,40.8 c-1-0.1-1.9-0.3-3-0.4c-2,8.8-6.6,15.7-14.5,20.1c-5.8,3.2-12,4.3-18.5,3.2c-15.1-2.5-23.2-13.6-24-32.9c-1-0.1-2-0.2-3.4-0.3 c1.2-4,2.4-7.8,3.6-11.6c1.5-4.8-0.5-7.6-5.6-7.6c-6.7,0.1-13.4,0.5-20,0.6c-3.2,0-6.4-0.6-9.7-0.6c-4.7,0-9.5-0.2-14.2,0.5 c-4.8,0.7-8.8-2.5-13.4-2c-4,0.4-8,0.2-12,0.7c-5,0.6-9.3,2.6-12.6,6.3C392.7,357.9,380,358.3,366.7,364.9z M521.2,360.5 c-14.3,0-25.7,11.1-25.7,25.3c0,14.3,11.2,25.5,25.5,25.6c14.2,0,25.6-11.3,25.6-25.5C546.5,371.8,535.2,360.5,521.2,360.5z"></path> <path style="fill:#FFFFFF;" d="M972.7,494.4c-10.8,0-21.2,0-32.1,0c0,30.6,0,60.9,0,91.5c-20.2,0-40,0-60.2,0c0-30.4,0-60.8,0-91.5 c-10.9,0-21.4,0-32.1,0c0-18.2,0-36,0-54c41.4,0,82.8,0,124.4,0C972.7,458.3,972.7,476.1,972.7,494.4z"></path> <path style="fill:#FFFFFF;" d="M839.9,468.1c-1.4-6.3-3.1-12.7-4.2-19.1c-13.1-75.8-47.9-139.9-104.1-192.4c-37.5-35-81-60-130-75.3 c-28.2-8.8-57.1-13.7-86.7-14.8c-43.2-1.7-85.3,4.1-126,18.6c-76.8,27.3-136.4,75.8-179,145.2c-18.9,30.8-32.1,64-40.1,99.3 c-0.7,3-1.8,4-4.9,3.9c-6.7-0.2-5.9,0.1-4.6-5.8c29.5-129.9,132.1-233,262-262.3c180.8-40.8,353,62.7,409.1,227.8 c4.2,12.5,7.2,25.4,10.6,38.1c0.5,1.9-0.2,4.2-0.4,6.2c-0.1,1.4-0.4,2.8-0.4,4.2c0,7.6,0,15.2,0,22.7c0,1.1,0,2.3,0,3.4 C840.8,468,840.3,468.1,839.9,468.1z"></path> <path style="fill:#FFFFFF;" d="M221,586c0-48.7,0-97,0-145.6c20.4,0,40.7,0,61.1,0c0,48.6,0,97,0,145.6C261.7,586,241.5,586,221,586 z"></path> <path style="fill:#FFFFFF;" d="M579,406.9c8-1.9,2.7-9.4,5-14.6c2.6,0,5.6-0.1,8.6,0.1c0.6,0,1.5,1,1.6,1.6 c1.9,11.9,13.7,15.6,24.5,13.4c3-0.6,6.2,0.4,9.3,0.4c17-0.2,33.9-0.5,50.9-0.9c2.4-0.1,3.7,0.7,4.8,2.8 c12.5,24.5,20.5,50.3,22.6,77.9c0.9,11.9,1.2,23.7-0.3,35.7c-0.6-2-1.2-4-1.8-5.9c-7.5-25.9-14.9-51.9-22.4-77.8c-1.4-4.7-3-6-7.9-6 c-22.3,0-44.6-0.1-66.9,0c-2.8,0-4.6-0.9-6.5-3.1C593.5,422.4,586.1,414.7,579,406.9z"></path> <path style="fill:#FFFFFF;" d="M421.2,408c-7.2,8.2-14.4,16.3-21.7,24.4c-0.7,0.8-2.3,1.1-3.5,1.1c-5.7,0.1-11.5,0-17.2,0.1 c-4.5,0-5.3,0.4-8.1,4.2c-1.8-3.9-5.2-4.3-9-4.3c-16.8,0.1-33.5,0-50.3,0c-1.2,0-2.4,0-4.4,0c4.2-9.1,8.1-17.8,11.7-25.8 c7.3,0,13.7,0,20.2,0c6.7,0,13.4,0.1,20.1-0.1c2.3-0.1,4.5-1,6.8-1.4c0.7-0.1,1.4-0.1,2,0.1c5.2,2,10.5,2.1,15.9,0.8 c0.5-0.1,1.1-0.4,1.6-0.3c6.5,2.5,13-0.2,19.5,0.2c0.1,0,0.2,0,0.3,0c4.3-3.3,8.5-0.4,12.7,0.3C419.2,407.7,420.5,407.8,421.2,408z"></path> <path style="fill:#FFFFFF;" d="M341.8,367.4c0,1.6,0,2.7,0,4.1c5.6,0,11.1,0,16.7,0c0,4.1,0,7.9,0,11.9c-5.6,0-10.9,0-16.6,0 c0,1.5,0,2.7,0,4.3c6.6,0,13,0,19.6,0c0,4.9,0,9.4,0,14c-12.7,0-25.3,0-38.1,0c0-16,0-32,0-48.2c12.2,0,24.5,0,37,0 c0,4.4,0,8.9,0,13.8C354.4,367.4,348.3,367.4,341.8,367.4z"></path> <path style="fill:#FFFFFF;" d="M558.4,350.2c12.7,0,25.2,0,37.9,0c0,5.5,0,10.9,0,16.6c-6.1,0-12.1,0-18.4,0c0,1.7,0,3,0,4.8 c5.2,0,10.3,0,15.7,0c0,5.3,0,10.1,0,15.4c-5.3,0-10.4,0-15.9,0c0,4.8,0,9.3,0,14.1c-6.5,0-12.7,0-19.3,0 C558.4,384.2,558.4,367.3,558.4,350.2z"></path> <path style="fill:#FFFFFF;" d="M640.3,401.4c-4.6,0.2-9.5,0.5-14.7,0.8c-0.2-1.8-0.5-3.3-0.6-4.2c-3.6,1.4-7,3.4-10.6,4 c-9.2,1.5-14.8-3.5-14.8-12.8c0-6.9,0-13.8,0-20.8c0-1,0-2.1,0-3.3c5.9,0,11.5,0,17.6,0c0,4.3,0,8.4,0,12.6c0,2.2,0,4.3,0,6.5 c0,1.9-0.1,4,2.6,4c2.9,0,2.8-2.2,2.8-4.1c0-3.2,0-6.5,0-9.7c0-3,0-6,0-9.2c5.9,0,11.5,0,17.7,0C640.3,377.1,640.3,389,640.3,401.4z "></path> <path style="fill:#FFFFFF;" d="M645.9,365.1c5,0,10,0,15.1,0c0.1,1.5,0.2,3,0.4,4.7c0.5-0.2,0.9-0.3,1.2-0.6 c4.2-5.2,10.6-6.9,16.8-4.4c3.9,1.6,6.5,4.5,6.6,8.5c0.3,9.1,0.1,18.3,0.1,27.7c-5.8,0-11.3,0-17.4,0c0-4.6,0-9.2,0-13.8 c0-2.1,0.3-4.2-0.1-6.1c-0.2-1.2-1.4-2.7-2.5-3c-2-0.5-2.8,1.2-2.8,3c0,5.5,0,11,0,16.5c0,1.1,0,2.1,0,3.4c-5.9,0-11.5,0-17.3,0 C645.9,389.1,645.9,377.2,645.9,365.1z"></path> <path style="fill:#FFFFFF;" d="M446,367.6c6,0,11.4,0,17.2,0c1.1,6.6,2.2,13.1,3.3,19.6c0.4,0,0.8,0.1,1.2,0.1 c0.9-6.5,1.8-12.9,2.8-19.6c5.4,0,10.8,0,16.5,0c-0.8,2.7-1.5,5.3-2.3,7.8c-2.1,6.8-4.4,13.6-6.5,20.4c-2.3,7.4-7.1,11.8-14.7,12.8 c-4.4,0.6-8.8,0.9-13.4,1.3c-0.8-4.2-1.6-8-2.4-11.8c0.7-0.1,1.1-0.2,1.5-0.3c6.4-1,6.8-1.6,4.6-8 C451.2,382.7,448.7,375.4,446,367.6z"></path> <path style="fill:#FFFFFF;" d="M366.3,378.3c0.8-6.4,4.2-9.6,9.3-11.2c6.3-1.9,12.6-1.8,18.8,0.4c5.5,1.9,8.4,6,8.5,11.8 c0.1,7.2,0,14.5,0,22.2c-3.8,0.2-8.2,0.7-12.5,0.6c-0.8,0-1.4-2.6-2.3-4.4c-3.6,4.4-8.5,5.3-13.9,4.5c-5.2-0.7-7.8-2.8-8.4-6.7 c-0.9-5.2,1.2-10.2,5.6-12c2.9-1.2,6.2-1.5,9.4-2.2c1.5-0.3,3.1-0.1,4.5-0.7c1-0.4,1.7-1.5,2.5-2.3c-0.9-0.7-1.8-1.6-2.9-2.2 c-0.6-0.3-1.7-0.3-2.2,0.1C377.7,379.9,372,377.1,366.3,378.3z"></path> <path style="fill:#FFFFFF;" d="M443.8,376.4c-3.6,0-7,0.1-10.3-0.1c-0.9,0-1.7-0.8-2.6-1.1c-1.4-0.5-2.8-1.1-4.2-1.1 c-0.9,0-1.8,1.1-2.7,1.8c0.7,0.8,1.2,2.1,2,2.5c3.3,1.2,6.8,2.1,10.2,3.3c4.7,1.6,7.8,4.6,8.1,9.8c0.2,3.8-1.3,7-4.9,8.4 c-8.8,3.5-17.7,3.6-26.5-0.1c-3.2-1.4-5.2-4.1-5.6-8.4c4.8,1,9.6-1.7,13.9,1.9c0.5,0.4,1.5,0.8,2.1,0.6c1.4-0.3,2.8-1,4.2-1.5 c-0.9-1.1-1.5-2.7-2.7-3.2c-2.7-1.2-5.7-1.9-8.6-2.9c-4.1-1.4-7.8-3.4-8.5-8.3c-0.6-4.2,0.8-7.7,4.6-9.4c8.5-3.9,17.2-3.9,25.8-0.5 C441.6,369.4,443.4,372.2,443.8,376.4z"></path> <path style="fill:#FFFFFF;" d="M825.6,496.2c0,1.5,0,2.6,0,4.1c-1.9-1.1-3.5-2.1-5.1-3.1c0-0.2,0-0.5,0-0.7 C822.1,496.4,823.8,496.3,825.6,496.2z"></path> <path style="fill:#FFFFFF;" d="M532,398.2c-4.1,0.4-7.1,0.9-10.1,1.1c-2.3,0.1-4.5,0.3-6.8,0c-2.8-0.4-5.1-1.8-5.9-4.8 c-0.8-3,0.1-5.5,2.4-7.6c0.6-0.5,1.2-1,1.7-1.4c-1.9-6.9-1.3-9.6,2.3-11.3c3.8-1.8,9-0.7,10.9,2.2c2.1,3.3,1,6-4.3,11 c1.1,0.7,2.1,1.4,3.4,2.3c1.3-3.9,4-2.8,6.4-2.6C532,391.1,532,395,532,398.2z"></path> </svg> 