<?xml version="1.0" encoding="UTF-8"?> <svg xmlns="http://www.w3.org/2000/svg" xmlns:xlink="http://www.w3.org/1999/xlink" version="1.1" id="Layer_1" x="0px" y="0px" viewBox="0 0 1000 1000" style="enable-background:new 0 0 1000 1000;" xml:space="preserve"> <path style="fill:#FFFFFF;" d="M494.9,696.3c-1.4-0.3-2.7-0.6-4.1-0.8c-6-0.7-11.3-3.4-16.7-5.7c-19.7-8-39.3-16.1-58.9-24.2 c-23.4-9.6-46.9-19.3-70.3-29c-17.2-7.1-34.4-14.1-51.6-21.2c-20.8-8.6-41.6-17.1-62.4-25.7c-19.1-7.9-38.2-15.8-57.4-23.6 c-18.4-7.6-36.7-15.1-55.1-22.7c-17.7-7.3-35.5-14.3-53.1-22c-14.4-6.3-24.1-17.3-26.9-33c-2.5-14,1.2-26.7,11-37.3 c5.6-6.1,12.5-10.1,20.2-13.2c15.6-6.3,31.2-12.7,46.8-19c7.3-3,14.6-6,21.9-8.9c1.4-0.6,1.9-1.3,1.9-2.8c0-13.6,0-27.2,0-40.9 c0-3.3,1.3-5.1,4.5-6.2c10.5-3.8,21.2-6.8,32.1-9c11.6-2.4,23.4-3.3,35.2-2.6c14,0.9,27.4,4.4,38.9,13c2,1.5,3.5,1.3,5.5,0.5 c15.3-6.3,30.7-12.4,46.1-18.7c21.9-8.9,43.7-17.8,65.6-26.7c13.4-5.4,26.7-10.8,40.1-16.2c17.9-7.3,35.8-14.6,53.8-21.9 c6.8-2.8,13.5-5.6,20.3-8.3c6.3-2.5,12.9-2.7,19.6-2.8c8.5-0.1,16.1,2.9,23.7,6.1c17.7,7.2,35.5,14.4,53.2,21.6 c22.4,9.1,44.9,18.3,67.3,27.5c15.9,6.5,31.9,12.9,47.8,19.3c13.9,5.7,27.8,11.4,41.8,17.1c0.3,0.1,0.7,0.2,1,0.3 c1.1-4.2,3.1-5.7,7.5-5.7c19,0,38.1,0,57.1,0c3.8,0,6.3,1.5,7.8,5.1c3.7,8.6,7.7,17,11.5,25.5c0.2,0.4,0.4,0.7,0.9,1.4 c1.4-3,2.7-5.8,3.9-8.5c2.9-6.6,5.9-13.3,8.8-19.9c1.1-2.5,2.9-3.6,5.6-3.6c16.2,0,32.5,0.1,48.7,0c5.3,0,7.6,4.3,5.7,8.8 c-4.2,9.8-8.8,19.4-13.2,29.1c-3.1,6.8-6.2,13.6-9.3,20.3c-0.3,0.6-0.4,1.3-0.7,2.1c5.5,2.2,10.9,4.4,16.3,6.6 c16.4,6.7,32.9,13,49,20.3c13.1,5.9,21.4,16.5,24.7,30.6c0.3,1.4,0.4,2.9,0.6,4.3c0.1,0.5,0.4,0.9,0.6,1.4c0,2.2,0,4.5,0,6.7 c-0.3,1.4-0.7,2.8-1,4.3c-2.7,14.4-10.8,25.1-23.6,31.4c-12.5,6.1-25.6,10.9-38.4,16.4c-4.9,2.1-10.2,3.3-14.5,6.8 c-0.6,0.5-1.7,0.6-2.5,0.8c-1.1,0.3-2.2,0.3-3.2,0.7c-5.4,2.2-10.9,4.4-16.3,6.6c-22.1,9.1-44.3,18.3-66.4,27.4 c-18.9,7.8-37.7,15.5-56.6,23.3c-17.9,7.4-35.8,14.8-53.7,22.2c-16.1,6.6-32.2,13.2-48.3,19.8c-21.4,8.8-42.9,17.7-64.3,26.6 c-15.6,6.4-31.2,12.8-46.8,19.2c-5.8,2.4-11.5,5.3-17.9,6.1c-1.2,0.2-2.4,0.5-3.7,0.8C501.7,696.3,498.3,696.3,494.9,696.3z M809.2,513.8c-0.3,0.4-0.4,0.6-0.6,0.9c-3.6,7.9-7.2,15.9-10.7,23.9c-1.5,3.4-3.8,4.9-7.5,4.8c-5.2-0.1-10.4,0-15.6,0 c-9.2,0-18.4-0.1-27.6,0c-4.7,0-8.2-4.2-5.7-8.9c0.6-1.1,1-2.3,1.6-3.4c12.1-25.8,24.2-51.6,36.3-77.3c0.5-1,0.5-1.8,0-2.9 c-11.1-23.4-22.1-46.8-33-70.3c-1.4-3.1-3.7-4.2-6.9-5.1c-0.1,1.6-0.1,3.1-0.3,4.5c-1,10.7-2,21.5-2.9,32.2 c-0.4,4.8-2.4,7.3-7.5,6.9c-1.4-0.1-2.8,0-4.1,0c0.3,1.7,0.8,3,0.8,4.4c0,2-0.4,4-0.5,6.1c-0.7,9-1.4,18-2.2,27 c-0.3,2.9-0.9,5.8-1.4,8.9c2.6,0,5.7,0,8.7,0c3.1,0.1,5.4,2.4,5.4,5.5c0,2-0.3,4.1-0.4,6.1c-0.4,5.7-0.8,11.3-1.3,17 c-0.6,7.5-1.4,14.9-2,22.4c-0.4,5.2-2.1,7-7.3,7c-10.1,0-20.2,0-30.3,0c-20.1,0-40.2,0-60.3,0c-4.6,0-6.7-1.9-6.7-6.2 c0-48.9,0-97.9,0-146.8c0-5,2-6.9,7-6.9c24.3,0,48.6,0,72.9,0c0.7,0,1.5,0,2.2,0c-0.8-0.7-1.6-1.1-2.5-1.4 c-35.3-14.4-70.7-28.8-106-43.1c-25.3-10.3-50.5-20.6-75.8-30.7c-7-2.8-13.7-6.6-21.6-7.1c-5.4-0.3-10.7-0.3-15.7,1.8 c-21.2,8.5-42.4,17.2-63.6,25.8c-41.7,16.9-83.5,33.9-125.2,50.8c-3,1.2-5.9,2.4-8.9,3.7c0,0.1,0.1,0.2,0.1,0.3c0.8,0,1.5,0,2.3,0 c30.9,0,61.8,0,92.7,0c0.7,0,1.4,0,2.1,0c3.3,0.3,5.8,3,5.5,6.2c-0.4,5.2-0.8,10.3-1.3,15.5c-0.8,9.1-1.7,18.3-2.4,27.4 c-0.4,4.3-2.2,6.2-6.5,6.3c-1.8,0-3.6,0-4.9,0c0.2,2.2,0.5,4.1,0.5,5.9c-0.1,3.3-0.5,6.6-0.8,9.8c-1,10.1-1,20.3-3.2,30.3 c1.3,0,2.8,0,4.2,0c1.5,0,3.1,0,4.6,0c3.3,0.1,5.9,2.8,5.6,6c-0.4,4.5-0.8,8.9-1.3,13.4c-1.1,10.9-2.2,21.7-3.3,32.6 c-0.5,4.7-2.2,6.4-7,6.4c-30.2,0-60.4,0-90.6,0c-5,0-7-2-7-7.1c0-48.6,0-97.2,0-145.8c0-1,0-1.9,0-3.1c-5.6,2.3-11,4.5-16.2,6.6 c14.1,30.9,11.2,59.3-10.8,84.9c3,6.3,6.1,12.4,8.7,18.7c7.4,18.5,11.6,37.9,14.4,57.5c0.7,5.1-1.4,8.1-5.9,8.2 c-17.3,0.1-34.7,0.1-52,0c-3.4,0-5.5-2-6.1-5.4c-1.9-9.5-3.8-19-5.9-28.5c-0.9-4-2.4-7.9-3.6-11.9c-0.2,0-0.3,0.1-0.5,0.1 c0,0.7,0,1.3,0,2c0,12.4,0,24.7,0,37.1c0,4.7-1.9,6.6-6.6,6.6c-12.4,0-24.9,0-37.3,0c-0.7,0-1.3,0-2,0c0.4,0.6,0.8,0.8,1.2,1 c26.3,10.8,52.6,21.7,78.9,32.5c27.2,11.2,54.4,22.4,81.7,33.6c29.5,12.2,59.1,24.3,88.6,36.5c22.7,9.4,45.4,18.8,68.1,28 c6.6,2.7,12.9,6.4,20.3,7.1c5.9,0.6,12,0.8,17.6-1.6c33.2-13.6,66.4-27.4,99.6-41.1c37.5-15.5,75-30.9,112.6-46.4 c37-15.2,73.9-30.4,110.9-45.6c3-1.3,6.1-2.5,9.1-3.8c-5.6-0.4-11.1-0.5-16.5-0.4c-2.7,0-4.5-1.2-5.7-3.5c-1.4-2.9-2.9-5.8-4.3-8.6 C814.9,525.5,812.1,519.7,809.2,513.8z M181.7,524.4c0-1.2,0-2.1,0-2.9c0-17.1,0-34.1,0-51.2c0-0.5-0.1-1,0-1.5 c0.2-0.5,0.7-1.2,1.1-1.3c6.2-1.1,12.4-2,18.7-3c0.6-0.1,1.5,0,1.7,0.3c1.5,2.6,3.9,4.4,5.3,7.1c8.1,15.9,13.6,32.8,17.5,50.1 c0.3,1.3,0.8,1.7,2,1.7c7.7-0.1,15.4-0.2,23.2-0.3c4.1-0.1,4.2-0.1,3.5-4c-2.9-17.1-7.7-33.5-15.3-49.1c-3.1-6.3-6.9-12.3-10.4-18.6 c0.4-0.4,1.1-1,1.8-1.6c15.6-14.5,23.8-31.9,20.9-53.5c-0.7-5.3-2.2-10.7-4.3-15.7c-3-7.3-9.6-10.9-16.6-13.6 c-13.1-5.2-26.7-5.2-40.4-3.7c-11.6,1.3-22.9,4.1-34,7.4c-1.7,0.5-2.3,1.2-2.3,3c0.1,41,0.2,81.9,0.3,122.9c0,9-0.1,18.1-0.1,27.1 c0,0.7,0,1.5,0,2.5c2.7-2.2,2.7-2.2,6.1-2.2c4.7,0,9.4,0,14.1,0C176.8,524.4,179.1,524.4,181.7,524.4z M832.8,527.9 c0.2,0,0.3,0.1,0.5,0.1c0.3-2.5,1.9-2.6,3.9-2.5c7.6,0.1,15.2,0,22.8,0c0.7,0,1.4-0.1,2.4-0.2c-0.6-1.4-1-2.4-1.4-3.4 c-10.1-23.3-20.2-46.6-30.2-70c-0.4-0.8-0.4-2.1-0.1-2.9c11.4-24.6,22.9-49.3,34.4-73.9c1.3-2.9,2.7-5.7,5.8-7.1 c0.1,0,0-0.2,0.1-0.4c-0.2,0-0.4-0.1-0.6-0.1c-8.1,0-16.3,0-24.4,0c-1.3,0-1.7,0.6-2.1,1.6c-7,16-14,32-20.9,48 c-1.4,3.2-2.8,6.5-4.3,10c-0.4-0.9-0.6-1.4-0.9-2c-7.6-18.5-15.1-36.9-22.6-55.4c-0.6-1.4-1.2-1.9-2.7-1.9c-11,0.1-21.9,0-32.9,0 c-0.7,0-1.5,0.1-2.4,0.2c0.3,0.7,0.4,1.2,0.6,1.6c2.2,4.7,4.3,9.4,6.5,14.1c10,21.7,20.1,43.4,30.1,65c0.5,1.2,0.6,2.1,0,3.3 c-10.1,22.2-20.1,44.4-30.2,66.6c-1.1,2.5-2.2,5-3.3,7.5c0.1,0.2,0.3,0.4,0.4,0.5c3-3,6.7-1.9,10.2-2.1c2.5-0.1,5.1-0.1,7.6,0 c1.4,0.1,2.1-0.5,2.6-1.8c5.5-12.9,11.2-25.8,16.7-38.7c2.2-5,4.3-10,6.6-15.3C814.4,488.8,823.6,508.4,832.8,527.9z M140.4,424 c-0.6,0.2-1.1,0.3-1.5,0.5c-18.5,7.5-37,14.9-55.4,22.5c-5.6,2.3-11.4,4.4-16.6,7.5c-13,7.6-18.5,21.9-14,35.3 c3.4,9.9,10.6,16.1,20,20c20.4,8.4,40.9,16.8,61.3,25.2c2,0.8,4,1.6,6.2,2.5C140.4,499.5,140.4,461.9,140.4,424z M293.5,507.2 c0.1,0.1,0.3,0.2,0.4,0.3c0.9-2.1,2.6-2.1,4.4-2.1c22.1,0,44.1,0,66.2,0c0.8,0,1.6,0,2.7,0c0.3-4,0.5-7.7,0.9-11.5 c0.4-4.1-0.3-8.5,2.8-12c0.1-0.1,0-0.3-0.1-0.6c-0.8,0-1.6,0-2.4,0c-13,0-26,0.1-39-0.1c-3.5-0.1-6.3,0.4-7.9,3.8 c-0.1,0.1-0.3,0.2-0.6,0.4c0-12.1,0-24.1,0-36.2c1,0,1.8,0,2.6,0c10.6,0,21.2-0.1,31.8,0.1c1.9,0,2.4-0.7,2.5-2.4 c0.2-2.9,0.7-5.9,0.7-8.8c0-2.4,0.7-4.3,2.6-5.8c0,0-0.1-0.2-0.1-0.4c-11.2,0-22.3,0.1-33.5-0.1c-2.4,0-4,0.5-5.2,2.6 c-0.3,0.6-0.9,1.1-1.6,2c0-12.9,0-25.4,0-38c16.6,0,33.1,0,49.8,0c0.2-3.1,0.3-6.2,0.7-9.1c0.5-3.8-0.7-8,2.9-11 c0.1,0,0-0.3-0.1-0.5c-0.7,0-1.4,0-2.1,0c-25.3,0-50.6,0-75.9,0c-2.8,0-2.8,0-2.8,2.8c0,41.4,0,82.8,0,124.3 C293.5,505.7,293.5,506.4,293.5,507.2z M668.8,436c-0.2-0.1-0.3-0.2-0.5-0.3c0-12.4,0-24.7,0-37.3c16.7,0,33.2,0,50,0 c0.1-1.7,0.1-3.3,0.4-4.8c1-5.2-0.9-11,3.3-15.8c-1.1,0-1.8,0-2.6,0c-25.2,0-50.4,0-75.6,0c-2.9,0-2.9,0-2.9,2.9 c0,41.4,0,82.8,0,124.3c0,0.7,0,1.5,0,2.2c1.4-2.1,3.4-1.7,5.3-1.7c21.8,0,43.7,0,65.5,0c0.6,0,1.2,0.2,1.7,0 c0.6-0.3,1.3-0.8,1.4-1.3c0.3-2.2,0.2-4.5,0.5-6.7c0.8-5.3-0.8-11.2,3.6-16c-0.7-0.1-1.1-0.1-1.4-0.1c-14.8,0-29.5,0-44.3,0 c-0.7,0-1.6,0.6-2.2,1.2c-0.9,0.9-1.7,2.1-2.9,3.6c0-12,0.1-23.3,0-34.6c0-2,0.7-2.4,2.6-2.4c10.7,0.1,21.4,0,32,0 c0.8,0,1.5,0,2.4,0c0.2-2,0.2-3.7,0.6-5.4c0.9-3.9-0.8-8.5,3.7-11.9c-1.4,0-2.1,0-2.9,0c-10,0-20,0.1-29.9-0.1 c-3.3-0.1-5.9,0.4-7.4,3.6C669.1,435.5,668.9,435.7,668.8,436z M864.9,426.2c-0.3,0.4-0.5,0.8-0.7,1.1c-4.2,9.1-8.3,18.3-12.4,27.5 c-0.3,0.7-0.2,1.9,0.2,2.7c8.1,18.3,16.2,36.6,24.4,54.9c2.3,5.1,4.6,10.2,6.8,15.3c12.5-5.1,24.8-10.2,37.1-15.3 c5.6-2.3,11.4-4.3,16.2-8.3c9.7-8.1,14.1-18.3,10.9-30.8c-2.7-10.9-10.2-17.7-20.4-21.9c-13.6-5.6-27.2-11.1-40.8-16.7 C879.2,432,872.1,429.1,864.9,426.2z"></path> <path style="fill:#FFFFFF;" d="M496.2,418.9c1.8,4.1,0.5,8,0.3,11.9c-0.3,6-1,12-1.5,18c-0.5,5.6-0.8,11.2-1.4,16.7 c-0.4,3.9-2.7,5.8-6.7,5.8c-8.7,0-17.4,0-26.1,0c-0.8,0-1.5,0-2.5,0c0,0.9,0,1.7,0,2.4c0,14.3,0,28.5,0,42.8c0,4.2-2.1,6.5-6.3,6.5 c-16.4,0-32.7,0-49.1,0c-4.2,0-6.3-2.2-6.3-6.4c0-48.6,0-97.2,0-145.7c0-5.6,1.9-7.3,7.5-7.3c33.7,0.1,67.4,0.2,101.1,0.4 c4.3,0,6.5,2.2,6.1,6.6c-0.7,8.9-1.6,17.8-2.4,26.8c-0.5,5.2-1,10.5-1.4,15.7c-0.3,3.6-2.3,5.8-6,6 C499.9,418.9,498.1,418.9,496.2,418.9z M489.8,377.4c-0.6,0-1.3,0-1.9,0c-24.9,0-49.9,0-74.8,0c-2.1,0-2.5,0.6-2.5,2.6 c0.1,41.7,0,83.4,0,125.1c0,0.7,0,1.3,0,2c0.1,0.1,0.3,0.2,0.4,0.4c0.9-2.9,3.1-2.4,5.1-2.4c6.7,0,13.5,0,20.2,0c0.7,0,1.5,0,2.5,0 c0-18.2,0-36.1,0-54.2c1,0,1.8,0,2.5,0c9.5,0,19,0,28.4,0c2.9,0,2.6-0.1,3.1-2.8c0.9-4.4-0.4-9.4,3.8-13.4c-1.2,0-2,0-2.7,0 c-9.1,0-18.3,0.1-27.4,0c-3,0-5.7,0.1-7.6,2.8c-0.1,0.1-0.4,0.1-0.6,0.2c0-13.2,0-26.2,0-39.5c2,0,3.8,0,5.6,0c13.6,0,27.1,0,40.7,0 c1,0,2.1,0.3,2.2-1.4c0.2-4.1,0.5-8.3,0.9-12.4C487.9,381.8,487.6,379.3,489.8,377.4z"></path> <path style="fill:#FFFFFF;" d="M576.7,464.4c1.1,0,1.9,0,2.7,0c12.3,0,24.6,0,36.9,0c5.3,0,7.3,2.2,6.8,7.4 c-0.9,10.2-1.7,20.4-2.6,30.5c-0.5,5.3-1,10.6-1.6,15.9c-0.4,3.7-2.5,5.3-6.3,5.3c-15.7,0-31.3,0-47,0c-14.5,0-29.1,0-43.6,0 c-4.5,0-6.6-2.1-6.6-6.6c0-48.7,0-97.4,0-146.2c0-5.6,1.8-7.4,7.4-7.4c15.5,0,31,0,46.6,0c5,0,7.2,2.1,7.2,7.1c0,30.4,0,60.8,0,91.2 C576.7,462.5,576.7,463.3,576.7,464.4z M529.6,377.9c0,43.3,0,86.3,0,129.4c1.5-2.4,3.8-2,6-2c1.5,0,2.9,0,4.4,0c19,0,37.9,0,56.9,0 c1.8,0,2.4-0.5,2.5-2.3c0.2-4.7,0.6-9.4,0.8-14.1c0.1-2.5-0.3-5.2,2.3-7.3c-0.7,0-1.5,0-2.2,0c-11.7,0-23.5,0.1-35.2,0 c-2.9,0-5.6,0.1-7.4,2.8c-0.1,0.2-0.4,0.2-0.9,0.4c0-1.1,0-1.9,0-2.7c0-32.2,0-64.4,0-96.6c0-2.7-0.7-5.5,2.8-7.6 C549.2,377.9,539.5,377.9,529.6,377.9z"></path> <path style="fill:#FFFFFF;" d="M468.4,565.1c0,9,0,17.9,0,27c-6.3,0-12.5,0-18.8,0c0-17,0-34,0-51.2c4.6,0,9.3,0,14.1,0 c0.1-0.8,0.2-1.5,0.2-2.1c0.4,2.4,2.2,2,3.9,2c2.6,0,5.9-0.8,7.8,0.5c1.7,1.2,2,4.5,2.9,7c3,8.2,6,16.5,9.2,25.3 c1.1-3.1,2.1-5.7,3.1-8.3c2.7-7.6,5.5-15.2,8.1-22.9c0.5-1.4,1.2-1.6,2.4-1.6c2.3,0.1,4.6,0.1,6.9,0c0.9-0.1,1.8-0.6,2.5-0.8 c0.6,0.3,1.3,0.8,2,0.8c4.1,0.1,8.3,0,12.5,0c0,17.2,0,34.2,0,51.3c-6.1,0-12.2,0-18.4,0c0-9.1,0-18.2,0-27.3 c-0.2,0-0.3-0.1-0.5-0.1c-3.3,9.2-6.5,18.3-9.8,27.6c-5.7,0-11.4,0-17.1-0.1c-0.6,0-1.4-1-1.6-1.7c-2.9-8-5.7-16-8.5-24 c-0.2-0.5-0.4-1-0.6-1.5C468.6,565,468.5,565,468.4,565.1z"></path> <path style="fill:#FFFFFF;" d="M350.9,592.1c-0.4-1.4-0.8-2.7-1-3.5c-4.4,1.4-8.7,3.4-13.1,4.1c-11.9,1.9-23.6,0.9-33.9-6 c-14.8-9.9-14.6-30.1,0.3-40c6-4,12.7-6,19.7-6.6c8.4-0.8,16.8-0.6,25,2c5.7,1.8,10.9,4.6,14.5,9.5c1.7,2.4,2.5,5.1,2.8,8.1 c-6.5,0-12.9,0-19.3,0c-0.9-3.6-3.6-5.4-6.9-6.4c-6.1-1.7-12.2-1.8-18.1,0.5c-6.8,2.7-8.9,7.3-8.6,14.5c0.2,5.3,3,8.8,8,10.6 c6.6,2.4,13.3,2.6,19.9,0.1c2-0.8,3.7-2.2,5.6-3.4c-0.1-0.3-0.2-0.5-0.3-0.8c-5.1,0-10.2,0-15.5,0c0-4.2,0-8.1,0-12.1 c11.7,0,23.3,0,35,0c0,9.7,0,19.4,0,29.2C360.4,592.1,355.8,592.1,350.9,592.1z"></path> <path style="fill:#FFFFFF;" d="M707.7,559.9c-4.7,0-9.5,0-14.3,0c-1.2,0-2.4,0.1-3.6,0c-0.5,0-1.2-0.3-1.4-0.7 c-1.4-4.2-5-5.5-8.7-6.3c-5.1-1.1-10.2-1-15.1,0.7c-10.1,3.3-11.1,12.7-8.6,19.4c0.7,1.8,2.4,3.6,4,4.6c7.1,4.2,14.7,4.4,22.3,1.9 c2.2-0.7,4.1-2.4,6.2-3.6c-0.1-0.3-0.2-0.5-0.3-0.8c-5.1,0-10.1,0-15.3,0c0-4.2,0-8.1,0-12.2c11.6,0,23.1,0,34.8,0 c0,9.7,0,19.4,0,29.4c-2.3,0-4.7,0-7,0c-0.4,0-0.7,0-1.1,0c-1.7,0-3.6,0.5-5-0.2c-1.2-0.6-1.6-2.5-2.3-3.7 c-14.3,7.2-28.9,7.1-43.4,0.4c-6.9-3.2-11.9-8.5-13.6-16.1c-2.3-10,1.4-19.3,9.8-25.2c6.2-4.4,13.2-6.5,20.6-7.2 c8.4-0.8,16.8-0.6,25,2c5.2,1.6,10,4.1,13.6,8.4C706.5,553.2,707.9,556.8,707.7,559.9z"></path> <path style="fill:#FFFFFF;" d="M628,592.2c-6,0-11.8,0-17.6,0c-0.6,0-1.4-0.6-1.9-1.1c-7.7-8.5-15.4-16.9-23-25.4 c-0.8-0.9-1.7-1.8-2.8-3.1c0,10.1,0,19.7,0,29.5c-6.4,0-12.6,0-18.9,0c0-17,0-34,0-51.3c6.2,0,12.4,0,18.6,0.1 c0.6,0,1.3,0.7,1.8,1.2c8.1,8.9,16.2,17.9,24.2,26.9c0.3,0.3,0.3,0.8,0.5,1.1c0.2-0.2,0.4-0.3,0.6-0.5c0-9.5,0-19,0-28.7 c6.2,0,12.3,0,18.6,0C628,557.9,628,574.9,628,592.2z"></path> <path style="fill:#FFFFFF;" d="M446.1,592.2c-7.1,0-13.9,0-20.8-0.1c-0.5,0-1.2-0.7-1.4-1.2c-1.3-2.3-2.3-4.8-3.6-7.1 c-0.4-0.6-1.3-1.3-2-1.3c-7.2-0.1-14.5-0.1-21.7,0c-0.7,0-1.7,0.6-2,1.2c-1.4,2.3-2.6,4.8-3.9,7.2c-0.3,0.5-1.1,1.2-1.7,1.2 c-6.6,0.1-13.2,0.1-20.1,0.1c1.9-3.4,3.6-6.5,5.4-9.7c7.5-13.3,15-26.5,22.4-39.8c0.8-1.4,1.5-2,3.2-2c5.5,0.1,10.9,0,16.4,0.1 c0.7,0,1.7,0.4,2,1c9.2,16.3,18.3,32.7,27.4,49.1C445.7,591.3,445.8,591.6,446.1,592.2z M401.6,570c4,0,7.6,0,11.5,0 c-1.9-3.8-3.7-7.4-5.7-11.3C405.4,562.6,403.5,566.2,401.6,570z"></path> <path style="fill:#FFFFFF;" d="M534.3,540.9c6.6,0,13,0,19.6,0c0,17.1,0,34,0,51.1c-6.4,0-12.9,0-19.6,0 C534.3,575.1,534.3,558.1,534.3,540.9z"></path> <path style="fill:#FFFFFF;" d="M181.8,444.9c0-1.1,0-1.7,0-2.3c0-14.6,0-29.2,0-43.8c0-1.8,0.6-3,2.1-4c6.8-4.3,14-6.4,22-4.5 c4,0.9,7.2,3.1,9.9,6.3c2.5,2.8,5,5.5,6,9.2c3.2,12.1,0.2,23.9-12.9,30.3c-6,2.9-12.4,4.2-19,4.8 C185.2,441.4,185.2,441.3,181.8,444.9z M201.8,424.9c4.8-1.4,7.5-8.8,6.3-13c-0.2-0.7-1.3-1.3-2.1-1.6c-0.7-0.3-1.7,0-2.5-0.1 c-1.2-0.1-1.7,0.4-1.7,1.7C201.9,416.2,201.8,420.4,201.8,424.9z"></path> </svg> 