<?xml version="1.0" encoding="utf-8"?>
<!-- Generator: Adobe Illustrator 24.1.2, SVG Export Plug-In . SVG Version: 6.00 Build 0)  -->
<svg version="1.1" id="Layer_1" xmlns="http://www.w3.org/2000/svg" xmlns:xlink="http://www.w3.org/1999/xlink" x="0px" y="0px"
	 viewBox="0 0 257 63.8" style="enable-background:new 0 0 257 63.8;" xml:space="preserve">
<style type="text/css">
	.st0{fill:#F96432;}
	.st1{fill:#FFFFFF;}
</style>
<path class="st0" d="M24,4.2c2.2-0.9,4.6-1.5,6.9-1.8c0.5,4.6,1.8,9.1,3.9,13.2c2.1-4.1,3.5-8.6,4-13.2c2.4,0.3,4.7,1,6.9,1.8
	c-0.5,3.8-1.5,7.5-2.8,11c3.8-1.4,7.2-3.7,10-6.8c1.9,1.5,3.6,3.2,5.1,5.1c-4.7,5.3-10.9,8.8-17.8,10.1c2.1,2.2,4.4,4.2,6.8,5.9
	c4.2-4.2,9.3-7.4,14.9-9.3c1,2.2,1.7,4.6,2.2,6.9c-3.8,1.2-7.3,3.2-10.3,5.8c3.5,1.2,7.1,2,10.8,2.1c-0.2,2.4-0.6,4.9-1.3,7.2
	c-10.9-0.7-21.2-5.7-28.6-14c-7.4,8.3-17.7,13.3-28.6,14C5.4,39.8,5,37.4,4.8,35c3.7-0.1,7.3-0.9,10.8-2.2
	c-3.1-2.6-6.6-4.6-10.3-5.9c0.5-2.4,1.2-4.6,2.2-6.8c5.6,1.9,10.7,5.1,14.9,9.3c2.5-1.7,4.8-3.7,6.9-5.9
	c-6.8-1.2-13.1-4.8-17.8-10.1c1.5-1.9,3.2-3.6,5.1-5.1c2.7,3.1,6.1,5.4,10,6.8C25.5,11.6,24.5,7.9,24,4.2z M21.2,39.6
	c2.2-1,4.3-2.2,6.3-3.5c2.5,3.3,5,6.6,7.4,9.9c2.5-3.3,5-6.6,7.4-9.9c2,1.3,4.1,2.5,6.3,3.5c-3.3,4.6-6.8,9.1-10.1,13.7
	c0,3.4,0,6.8,0,10.3c-2.4,0.3-4.7,0.3-7.1,0V53.3L21.2,39.6z"/>
<path class="st1" d="M213.6,21.3c2-1.3,4.5-1.8,6.8-1.3c2.2,0.3,4.3,1.2,6.1,2.7l-2.4,3.7c-1.8-1.5-4.1-2.2-6.3-2.1
	c-1,0.1-2.2,0.9-2,2.1s0.9,1.6,1.7,1.9c2.6,1,5.4,1.2,7.7,3c2.4,2.1,2.8,5.7,1,8.4c-1.2,1.6-2.9,2.7-4.9,2.9c-4,0.6-8-0.7-11-3.4
	l2.7-3.4c1.6,1.5,3.6,2.4,5.8,2.7c1.2,0.2,2.4-0.1,3.3-0.8c0.4-0.4,0.5-1,0.5-1.6c-0.1-0.6-0.5-1.1-1-1.3c-2.7-1.5-6-1.4-8.5-3.4
	c-1.3-1.1-2-2.9-1.9-4.6C211,24.4,212,22.5,213.6,21.3z M103.7,21.3c2.7-1.4,5.9-1.7,8.9-1c1.8,0.5,3.6,1.3,5,2.6l-3,3.7
	c-1.4-1.3-3.1-2.1-5-2.2c-2-0.2-3.9,0.7-5.1,2.2c-2.4,3.1-2.2,7.6,0.7,10.3c2.5,2,6,2.1,8.6,0.2c0-0.8,0-1.6,0-2.4h-2.2
	c0-1.2,0-2.5,0-3.8h6.7v8.3c-2.9,2.6-6.8,3.9-10.7,3.4c-2.9-0.3-5.5-1.7-7.3-4c-2.1-2.8-2.8-6.3-2.1-9.8
	C98.8,25.6,100.8,22.8,103.7,21.3z M126.5,21.7c2.9-1.7,6.4-2.2,9.6-1.4c1.8,0.5,3.5,1.3,4.9,2.6c-1,1.2-2,2.4-2.9,3.7
	c-1.4-1.4-3.2-2.2-5.1-2.2c-2.1-0.1-4.1,0.8-5.3,2.6c-2.2,3.2-1.7,7.5,1.2,10c2.5,1.8,5.9,1.8,8.5,0v-2.3H135v-3.8h6.7
	c0,2.8,0,5.6,0,8.4c-2.4,2.2-5.6,3.4-8.8,3.4c-3.1,0.2-6.1-1-8.4-3.2c-2.2-2.3-3.3-5.4-3.2-8.6C121.5,27.1,123.4,23.7,126.5,21.7z
	 M77.3,20.3c1.8,0,3.7,0,5.5,0c1.7,3.3,3.4,6.6,5.1,9.8l5.1-9.8h5.3c-2.7,5-5.5,10-8.2,15c0,2.3,0,4.7,0,7.1h-4.6c0-2.3,0-4.7,0-7
	C82.8,30.3,79.9,25.3,77.3,20.3z M145.5,20.3h7.2c4-0.2,7.8,1.8,10,5.3c1.8,3.2,2,7,0.6,10.4c-1.7,3.8-5.4,6.3-9.5,6.4
	c-2.7,0-5.5,0-8.3,0C145.5,35,145.5,27.6,145.5,20.3z M150.2,24.6c0,4.4,0,8.9,0,13.4c2.1,0,4.4,0.2,6.3-1c1.8-1.3,2.9-3.4,2.9-5.7
	c0-2.3-1.1-4.4-2.9-5.7C154.6,24.4,152.3,24.7,150.2,24.6z M167.3,20.3c3.2,0,6.5,0,9.7,0c2.7-0.1,5.2,1.3,6.6,3.7
	c1.5,2.9,1,6.5-1.2,8.9c-0.7,0.7-1.6,1.2-2.5,1.6l5.2,7.9h-5.5c-1.5-2.4-3-4.7-4.6-7.1h-1.2V31c1.6-0.1,3.3,0.3,4.7-0.6
	c0.9-0.7,1.3-1.7,1.2-2.9c-0.1-1.1-0.8-2.1-1.8-2.5c-2-0.4-3.9-0.5-5.9-0.3v17.7h-4.6C167.3,35,167.3,27.6,167.3,20.3z M186.6,42.4
	l9.1-22.2h4.3l9.1,22.2h-5c-0.7-1.7-1.3-3.3-2-5H195l1.7-4.2h3.8l-2.8-7.2c-2.2,5.5-4.3,11-6.5,16.4L186.6,42.4L186.6,42.4z
	 M230.8,20.3h4.6v22.1h-4.6V20.3z M239.3,20.3h4.7c0,5.9,0,11.8,0,17.7h10v4.4h-14.7C239.3,35,239.3,27.6,239.3,20.3z"/>
</svg>
