<?xml version="1.0" encoding="utf-8"?>
<!-- Generator: Adobe Illustrator 24.1.2, SVG Export Plug-In . SVG Version: 6.00 Build 0)  -->
<svg version="1.1" id="Layer_1" xmlns="http://www.w3.org/2000/svg" xmlns:xlink="http://www.w3.org/1999/xlink" x="0px" y="0px"
	 viewBox="0 0 249.2 100.1" style="enable-background:new 0 0 249.2 100.1;" xml:space="preserve">
<style type="text/css">
	.st0{fill:#FFFFFF;}
</style>
<path class="st0" d="M154.7,46.2c2-0.5,4.1-0.3,6.1,0c1.8,0.4,3.8,1.2,4.6,3c0.3,1.7,0.1,3.5,0.2,5.1c-2.4,0.3-4.8,0.2-7.1-0.5
	c-1.5-0.4-2.9-1.3-3.5-2.8C154.6,49.5,154.6,47.8,154.7,46.2z"/>
<path class="st0" d="M174.8,46.2c1.9-0.5,4.1-0.3,6,0c1.8,0.3,3.8,1.3,4.6,3c0.3,1.7,0.1,3.5,0.2,5.2c-2.9,0.2-6.7,0.2-9.2-1.5
	C174.2,51.3,174.7,48.6,174.8,46.2z"/>
<path class="st0" d="M43.3,57.1c-3.1,0-5.1,0.2-8.9,1.1c-1.3,0-2.7-0.4-4-0.6c-5.4-0.7-10.8-0.7-16.1,0.2c-3.2,0.6-6.6,1.8-9.1,3.9
	c-1.6,1.4-2.8,3.1-2.7,5.3c0.1,3.5-0.1,7.1,0.1,10.6c0.7,2.7,2.9,5,5.3,6.3c4.6,2.4,10.3,2.8,15.4,2.9c3.3,0.1,6.4-0.5,9.7-1
	c0,1.4,0.2,3.2-0.6,4.4c-0.9,1.6-2.9,2.1-4.6,2.4c-6.2,0.8-12.8,0.2-19.1,0.5c-1.9,0.1-4.1,0.8-5.5,2.2c-0.8,0.8-0.6,2-0.8,3
	c5.6,0.4,11.3,0.1,17,0.2c4.5-0.1,9.3,0.4,13.5-0.8c2-0.6,3.9-1.2,5.7-2.1c2.7-1.4,4.8-3.7,4.8-7c0-8.8,0-17.6,0-26.4
	C43.3,60.4,43.3,57.1,43.3,57.1z M32.9,70.9c0,1.9,0.1,3.8-0.1,5.7c-0.2,1.6-1.3,2.8-2.8,3.5c-2.2,1.1-5.3,0.9-7.7,0.9
	c-2.5-0.1-5.9,0-7.9-1.8c-1.9-1.7-1.1-5-1.2-7.4c0.2-2.2-0.6-5.4,1-7.1c1.5-1.5,4.1-2,6.1-2.1c2.4-0.1,4.8-0.1,7.1,0.2
	c1.9,0.3,4.3,1,5.3,2.8C33.1,67.4,32.8,69.3,32.9,70.9z"/>
<path class="st0" d="M87.7,82c-5.7,0-11.4,0.1-17.1-0.1c-2.7-0.1-5.4-0.7-7.1-3c-0.6-1.1-0.3-2.7-0.2-4c7.8,0,15.6,0,23.3,0
	c2.5-0.1,5.8-0.5,7.5-2.5c0.8-1.4,0.5-3.5,0.5-5.1c-0.2-3-2.1-5.2-4.5-6.8c-3.8-2.7-8.1-3.4-12.7-3.6c-5.8-0.1-11.4-0.3-17,1.8
	c-3.1,1.3-6,3-7.3,6.2c-1.3,3.2-0.6,7.3-0.8,10.7c-0.2,3.1,0.9,6.1,3.5,7.9c4.3,2.9,9.7,3.7,14.8,4c8,0.1,16,0,24,0.1
	c0-1.2,0.3-2.3-0.5-3.3C92.4,82.7,90.1,82,87.7,82z M64.7,64.6c2.5-1.7,6.3-1.7,9.3-1.7c3-0.1,6.4,0.2,8.8,2.2c1.2,1,1,2.7,1.1,4.1
	c-3.6,0.2-7.3,0.1-10.9,0.1c-3.3,0-6.5,0.1-9.8-0.1C63.5,67.6,63.1,65.5,64.7,64.6z"/>
<path class="st0" d="M104.2,57.1c2.7-0.3,5.2-0.1,7.8,0.7c1.3,0.5,2.5,0,3.8-0.2c4-0.8,7.8-0.6,11.9-0.6c5.1,0.1,10.5,0.9,14.6,4.1
	c1.9,1.4,3.3,3.4,3.3,5.8c0,6.9,0,13.8,0,20.8c-3.1,0-6.9,0.3-9.4-1.9c-1.3-1.1-1.3-2.6-1.3-4.1c0-4.4,0-8.8,0-13.2
	c0.1-2.3-1.1-4.1-3.3-4.8c-2.9-0.9-6.3-0.8-9.3-0.8c-2.2,0.1-4.9,0.5-6.6,2c-1.3,1.1-1.3,2.6-1.4,4.1c0,6.3,0,12.5,0,18.8
	c-3.1,0-6.1,0.1-8.9-1.4c-1.1-0.6-1.9-1.5-1.9-2.8c0-8.3,0-16.6,0-24.9C103.5,58,103.4,57.4,104.2,57.1z"/>
<path class="st0" d="M154.8,57.1c2.8-0.1,6.3-0.2,8.8,1.2c1.4,0.8,2,2.2,2,3.8c0,8.5,0,17,0,25.5c-2.9,0.2-6.7,0.3-9.2-1.6
	c-1.3-1-1.7-2.3-1.7-3.9C154.8,73.8,154.7,65.5,154.8,57.1z"/>
<path class="st0" d="M174.9,57.1c2.9-0.2,6.5-0.2,9,1.4c1.3,0.8,1.8,2.1,1.8,3.6c0.1,3.4,0,6.8,0,10.3c-0.1,5.1,0.2,10.3-0.2,15.4
	c-3,0-6.3,0.2-8.9-1.5c-1.4-1-1.9-2.4-1.9-4.1C174.9,73.8,174.8,65.5,174.9,57.1z"/>
<g>
	<path class="st0" d="M183.3,8.9l-12.1,10.2c2.8,1.2,5.6,2.5,8.3,3.9c2.2,1.1,4.2,2.4,6.1,3.7l18.2-10.4
		C197.7,13.4,190.8,10.9,183.3,8.9z"/>
	<path class="st0" d="M207,17.8l-18.8,10.8c4.1,3.3,7.5,6.9,10.2,10.7l26.5-9.5C219.9,25.3,213.9,21.3,207,17.8z"/>
	<path class="st0" d="M241,51.2c-3.1-7-7.7-13.5-13.7-19.3l-27.2,9.8c3.4,5.2,5.6,10.6,7.1,15.5L241,51.2z"/>
	<path class="st0" d="M179.8,8c-14.5-3.5-31.6-5.5-51.3-5.5c-73.4,0-99.9,22.9-99.9,22.9s76-32.5,139.5-7.6L179.8,8z"/>
	<path class="st0" d="M208,60.1c2.5,9.5,2.3,16.7,2.3,16.7h36c0-7.9-1.4-15.6-4.2-22.7L208,60.1z"/>
	<circle class="st0" cx="23.4" cy="29.6" r="8.4"/>
</g>
</svg>
