<?xml version="1.0" encoding="utf-8"?>
<!-- Generator: Adobe Illustrator 24.1.2, SVG Export Plug-In . SVG Version: 6.00 Build 0)  -->
<svg version="1.1" id="Layer_1" xmlns="http://www.w3.org/2000/svg" xmlns:xlink="http://www.w3.org/1999/xlink" x="0px" y="0px"
	 viewBox="0 0 807 612.6" style="enable-background:new 0 0 807 612.6;" xml:space="preserve">
<style type="text/css">
	.st0{fill:#FFC20E;}
	.st1{fill:#FFFFFF;}
</style>
<path class="st0" d="M525.4,250.7c11.1-14.6,22-28.8,32-42.6h171.5l66.7-86.5H616.3c38.5-62.1,55.3-104.4,44.2-113.9
	c-2.4-2.2-6.8-2.4-12.2-0.8c-13.3,3.8-29.6,15.5-41,24.1c-11.7,8.7-25,19.8-39.6,32.6c-32.3,28.5-30.9,27.7-1.9,3.3
	c16.3-13.6,29.3-23.1,39.1-27.9c3-1.4,5.4-2.4,7.9-3c3.5-0.8,6-0.8,7.6,0.5c7.9,6.5-7.1,38.3-38,85.2
	c-35.5,54.3-92.8,129.4-160.6,209.4l-4.9,5.7c-36.9,43.4-73,83.6-106.1,118.3h214.6V332.9h188.3l62.7-81.1h-251V250.7L525.4,250.7z"
	/>
<path class="st0" d="M431.3,561v-3.8h9l-9-43.9V507h2.7l15.7,74.6h-5.2l-3.8-20.6H431.3L431.3,561z M508,581.4l2.2-74.6h4.9
	l15.7,67.3l16-67.3h5.2l2.2,74.6h-4.3L548,519l-15.2,62.4h-3.5l-15-62.4l-1.9,62.4H508z M616,581.4v-74.6h25.8v4.1h-20.9v29.8H638
	v3.8h-17.1v32.8h20.9v4.1L616,581.4L616,581.4z M716.4,582.5c-10.9,0-16.8-6.5-17.9-19.3l4.3-1.4c0.3,2.2,0.5,4.1,1.1,5.4
	c0.3,1.6,0.8,3,1.6,4.6c0.8,1.4,1.6,2.7,2.4,3.5c1.1,0.8,2.2,1.6,3.5,2.2c1.4,0.5,3.3,0.8,4.9,0.8c7.9,0,11.9-4.1,11.9-11.9
	c0-3-0.8-6-2.4-8.4c-1.6-2.4-4.1-5.4-7.3-8.7L705,535.8c-4.3-4.3-6.5-9-6.5-14.1c0-4.9,1.4-8.7,4.3-11.1c3-2.7,6.8-4.1,11.9-4.1h0.3
	c5.4,0,9.5,1.4,12.2,4.3c3,3,4.6,7.6,4.9,14.4l-4.3,1.1c-0.5-5.4-1.6-9.2-3.5-11.9c-1.9-2.4-4.9-3.8-9-3.8h-0.5
	c-3.5,0-6.5,1.1-8.7,2.7c-2.2,1.9-3.3,4.6-3.3,8.1c0,1.9,0.5,3.8,1.4,5.7s2.2,3.8,4.3,5.7l13.6,13.3c3.5,3.5,6.2,6.8,8.1,10
	c1.9,3.3,3,6.8,3,10.3c0,5.4-1.6,9.5-4.6,12.2C725.3,581.1,721.3,582.5,716.4,582.5L716.4,582.5z M336.9,582.5
	c-2.7,0-5.2-0.3-7.3-1.1s-3.8-1.6-5.2-3c-1.4-1.4-2.4-3-3.3-4.9c-0.8-1.9-1.4-4.1-1.6-6.2c-0.3-2.2-0.5-4.6-0.5-7.3v-31.7
	c0-2.7,0.3-5.2,0.5-7.3c0.3-2.2,0.8-4.1,1.9-6c0.8-1.9,1.9-3.5,3.3-4.6c1.4-1.4,3-2.2,5.2-3s4.6-1.1,7.3-1.1
	c6.2,0,10.6,1.9,13.3,5.4c2.7,3.5,4.1,9,4.1,15.7v2.7h-4.9v-3c0-5.7-0.8-10-2.7-12.8c-1.9-2.7-5.2-4.1-9.8-4.1
	c-2.2,0-4.1,0.3-5.7,0.8s-2.7,1.4-3.8,2.4c-1.1,1.1-1.6,2.2-2.2,3.8c-0.5,1.6-1.1,3.3-1.1,4.9c-0.3,1.6-0.3,3.8-0.3,6v32.6
	c0,3,0.3,5.4,0.5,7.3c0.3,2.2,1.1,3.8,1.9,5.4c1.1,1.6,2.4,3,4.1,3.8c1.6,0.8,3.8,1.1,6.5,1.1c2.4,0,4.3-0.3,6-1.1
	c1.6-0.8,3-1.9,3.8-3.5s1.6-3.5,1.9-5.4c0.3-2.2,0.5-4.6,0.5-7.3v-10.9h-11.9v-3.8h16.5v35.5h-3.3l-0.8-8.4
	C348.5,579.5,343.9,582.5,336.9,582.5L336.9,582.5z M431.3,507v6.2V513l-9,44.2h9v3.8h-9.8l-4.1,20.6h-4.9l15.7-74.6L431.3,507
	L431.3,507z"/>
<path class="st1" d="M422.9,260.4c4.1-5.7,7.6-12.5,10.3-20.1s4.1-16.5,4.1-26.3c0-15.2-3-28.8-9.2-40.2s-14.9-21.2-26.3-28.8
	c-11.4-7.9-25.2-13.6-41.2-17.4s-34.2-5.7-54-5.7H83.3l-67,86.5h294.9c7.3,0,13.8,1.6,19.8,4.6s9,8.7,9,16.8c0,8.7-3,14.6-8.7,17.6
	c-5.7,3.3-12.5,4.6-20.1,4.6h-80.8l0,0h-214v203h214.3l0,0H250c-5.7,5.7-12.5,12.8-19.8,20.1l0,0c-27.4,27.4-64,62.1-92.5,78.1
	c-2.7,1.4-5.2,2.7-7.3,3.5c-5.4,2.2-9.2,2.4-11.4,0.5c-12.2-10.6,38.3-75.4,38.3-75.4c-36.6,40.2-76.8,105.3-60,119.4
	c3.3,2.7,8.7,2.4,16.3-0.5c6.8-2.7,15.2-7.3,25-14.1c3.8-2.7,7.9-5.4,11.9-8.7c21.4-16,48.6-38.5,79.8-67l0,0
	c18.4-16.8,38.3-35.5,58.9-55.9c38.3-38,79.5-81.7,120.2-129.1c5.7-6.8,11.4-13.3,16.8-20.1c-1.6-1.6-3.3-3.5-4.9-4.9
	c-6-5.7-12.5-10-19.8-13.6c-3.3-1.4-6.2-2.7-9.8-3.8c5.7-1.9,11.1-4.9,16.8-8.7C413.9,271,418.8,266.1,422.9,260.4z M333.6,363.3
	c-4.9,4.1-13,6-24.4,6h-78.9l0,0H119.6v-45.9h111l0,0h78.7c11.4,0,19.5,1.9,24.4,5.7c4.9,3.8,7.6,9.5,7.6,16.8
	C341.2,353.5,338.8,359.5,333.6,363.3z"/>
</svg>
