<?xml version="1.0" encoding="utf-8"?>
<!-- Generator: Adobe Illustrator 24.1.2, SVG Export Plug-In . SVG Version: 6.00 Build 0)  -->
<svg version="1.1" id="Layer_1" xmlns="http://www.w3.org/2000/svg" xmlns:xlink="http://www.w3.org/1999/xlink" x="0px" y="0px"
	 viewBox="0 0 1161.1 222" style="enable-background:new 0 0 1161.1 222;" xml:space="preserve">
<style type="text/css">
	.st0{fill:#FFFFFF;}
</style>
<g>
	<g id="Trophy">
		<path class="st0" d="M140.6,174.6H45.1c-5,0-9,3.7-9,8.4v8.4c0,1.4,1.2,2.6,2.7,2.6l0,0h108.2c1.5,0,2.7-1.2,2.7-2.6V183
			C149.7,178.4,145.6,174.6,140.6,174.6L140.6,174.6z"/>
		<path class="st0" d="M163.4,38.1h-15v-4.5c0-3-2.6-5.5-5.8-5.5H44.1c-3.2,0-5.8,2.4-5.8,5.5l0,0v4.5H22.7
			c-7.4,0-13.3,5.6-13.3,12.5v8.1C9.1,72,16.5,84.3,28.6,91.1c5.2,2.8,11,4.4,16.9,4.9c0.1,0,0.2,0,0.3,0c0.2,0,0.5,0,0.6,0
			c5.7,8.7,14.2,15.7,24.1,19.8c7.4,3.2,12.2,10.3,12.1,18v9.3c0,3.5-3,6.3-6.7,6.3H62c-4.5,0-8.1,3.4-8.1,7.7v10.4h78.9V157
			c0-4.2-3.6-7.7-8.1-7.7h-13.9c-3.7,0-6.7-2.8-6.7-6.3v-9.3c-0.1-7.7,4.6-14.7,12.1-18c10-4.3,18.3-11.1,24-19.8c0.1,0,0.2,0,0.3,0
			c5.9-0.3,11.7-2,16.9-4.9c12.2-6.8,19.5-19.1,19.3-32.4v-8.1C176.7,43.7,170.7,38.1,163.4,38.1z M33.8,82.6
			c-8.9-5.1-14.3-14.2-14.2-23.9v-8.1c0-1.5,1.4-2.8,3-2.8h15.7v21.1c0,5.6,1,11.1,2.9,16.5C38.7,84.8,36.1,83.9,33.8,82.6z
			 M114.2,71.4l-6.3,4.3c-1.5,1-2.1,2.8-1.5,4.4l2.4,7c0.7,2.1-0.5,4.3-2.7,5c-1.3,0.3-2.7,0.2-3.8-0.6l-6.3-4.3c-1.5-1-3.5-1-5,0
			l-6.3,4.3c-1.9,1.3-4.5,0.9-5.9-0.9c-0.8-1-1-2.3-0.6-3.6l2.4-7c0.6-1.6,0-3.4-1.5-4.4L73,71.3c-1.9-1.3-2.3-3.7-0.9-5.6
			c0.8-1,2.1-1.6,3.5-1.6h7.3c1.9,0,3.5-1.2,4.1-2.8l2.4-7c0.7-2.1,3.1-3.2,5.3-2.6c1.3,0.3,2.3,1.4,2.7,2.6l2.4,7
			c0.6,1.6,2.2,2.8,4.1,2.8h7.8c2.3,0,4.3,1.7,4.3,3.9C115.9,69.4,115.2,70.6,114.2,71.4z M166.4,58.7c0.2,9.7-5.2,18.9-14.2,23.9
			c-2.1,1.2-4.4,2-6.7,2.6c1.9-5.2,2.9-10.8,2.9-16.4v-21h15c1.6,0,3,1.3,3,2.8V58.7z"/>
	</g>
	<g>
		<path class="st0" d="M249.8,69.9c1.2,0,1.7,0.5,1.7,1.7v3.6c0,1.3-0.6,1.7-1.7,1.7h-20.1v70.4c0,1.2-0.5,1.7-1.6,1.7h-5
			c-1.3,0-1.7-0.6-1.7-1.7V77h-20.1c-1.3,0-1.7-0.5-1.7-1.7v-3.6c0-1.3,0.5-1.7,1.7-1.7H249.8z"/>
		<path class="st0" d="M271.8,131.7c0,6.7,4.5,11.1,16.8,11.1c12.4,0,17.2-4.4,17.2-11.1V71.6c0-1.2,0.5-1.7,1.6-1.7h4.9
			c1.3,0,1.6,0.6,1.6,1.7V133c0,9.3-5.9,17-25.3,17c-19.1,0-25.1-7.7-25.1-17V71.6c0-1.2,0.5-1.7,1.6-1.7h5c1.2,0,1.6,0.6,1.6,1.7
			L271.8,131.7L271.8,131.7z"/>
		<path class="st0" d="M342.6,116.8v30.5c0,1.2-0.3,1.7-1.6,1.7h-4.9c-1.2,0-1.6-0.6-1.6-1.7V71.6c0-1.2,0.5-1.7,1.5-1.7H359
			c19.4,0,25.3,7.7,25.3,17V100c0,7.2-3.6,13.6-14.5,15.9l15.2,31.5c0.5,1-0.3,1.7-1.6,1.7h-4.9c-1.3,0-1.5-0.7-2.1-1.7l-14.5-30.6
			H359H342.6z M342.6,77v32.8H359c12.4,0,17-4.4,17-11.3V88.2c0-6.7-4.5-11.1-17-11.1h-16.5V77z"/>
		<path class="st0" d="M453.3,147.4c0,1.2-0.3,1.7-1.6,1.7h-4.4c-0.8,0-1.3-0.2-1.6-0.8l-30.9-54.7c-2.6-4.4-3.8-7.2-3.9-7.5v61.4
			c0,1.2-0.5,1.7-1.6,1.7h-4.4c-1.3,0-1.7-0.6-1.7-1.7V71.6c0-1.2,0.5-1.7,1.7-1.7h4.4c0.8,0,1.2,0.2,1.4,0.7l31.5,55.6
			c0.9,1.6,3.5,7,3.5,7V71.6c0-1.2,0.5-1.7,1.6-1.7h4.4c1.3,0,1.6,0.6,1.6,1.7L453.3,147.4L453.3,147.4z"/>
		<path class="st0" d="M482.2,131.7c0,6.7,4.5,11.1,16.8,11.1c12.4,0,17.2-4.4,17.2-11.1V71.6c0-1.2,0.5-1.7,1.6-1.7h4.9
			c1.3,0,1.6,0.6,1.6,1.7V133c0,9.3-5.9,17-25.3,17c-19.1,0-25.1-7.7-25.1-17V71.6c0-1.2,0.5-1.7,1.6-1.7h5c1.2,0,1.6,0.6,1.6,1.7
			L482.2,131.7L482.2,131.7z"/>
		<path class="st0" d="M560.2,147.4L537,71.6c-0.3-1.2,0.1-1.7,1.3-1.7h5.3c1.2,0,1.6,0.6,2,1.7l16.7,54.6
			c1.2,3.9,2.4,11.1,2.7,12.2c0.1-0.6,1.3-7.2,2.8-11.9l16.8-54.9c0.3-1.2,0.8-1.7,2-1.7h4.9c1.3,0,1.7,0.6,1.4,1.7l-23.3,75.7
			c-0.3,1.2-0.9,1.7-2.1,1.7h-5C561.1,149.1,560.5,148.5,560.2,147.4z"/>
		<path class="st0" d="M624.6,71.6l23.3,75.7c0.3,1.2-0.1,1.7-1.4,1.7h-5c-1.2,0-1.7-0.6-2.1-1.7l-6.4-20.8h-26.7l-6.3,20.8
			c-0.3,1.2-0.8,1.7-2,1.7h-4.6c-1.2,0-1.6-0.6-1.3-1.7l23.2-75.7c0.3-1.2,0.9-1.7,2.2-1.7h5C623.7,69.9,624.3,70.5,624.6,71.6z
			 M622.8,92.7c-1.2-3.7-2.7-12.9-2.9-14.2c-0.1,0.8-1.5,9.4-2.9,13.9l-8.6,27.5h23L622.8,92.7z"/>
		<path class="st0" d="M686,85.9c0-9.3,6-17,25.2-17c19.4,0,25.3,7.7,25.3,17V133c0,9.3-5.9,17-25.3,17c-19.1,0-25.2-7.7-25.2-17
			V85.9z M728.1,87.2c0-6.7-4.6-11.1-17-11.1c-12.2,0-16.9,4.4-16.9,11.1v44.5c0,6.7,4.6,11.1,16.9,11.1s17-4.4,17-11.1V87.2z"/>
		<path class="st0" d="M772.5,105.4c1,2.2,1.6,4.2,1.7,4.4c0-0.2,1-3,1.7-4.4l17.7-33.8c0.5-0.9,0.9-1.7,2.1-1.7h4.9
			c1.2,0,1.7,0.6,1.2,1.7l-23.4,45.2v30.5c0,1.2-0.5,1.7-1.7,1.7h-4.9c-1.2,0-1.7-0.6-1.7-1.7v-29.6l-23.5-46.2
			c-0.6-1.2,0-1.7,1.2-1.7h5.6c1.2,0,1.6,0.7,2.1,1.7L772.5,105.4z"/>
		<path class="st0" d="M822.5,131.7c0,6.7,4.5,11.1,16.8,11.1c12.4,0,17.2-4.4,17.2-11.1V71.6c0-1.2,0.5-1.7,1.6-1.7h4.9
			c1.3,0,1.6,0.6,1.6,1.7V133c0,9.3-5.9,17-25.3,17c-19.1,0-25.1-7.7-25.1-17V71.6c0-1.2,0.5-1.7,1.6-1.7h5c1.2,0,1.6,0.6,1.6,1.7
			L822.5,131.7L822.5,131.7z"/>
		<path class="st0" d="M935.2,147.4c0,1.2-0.3,1.7-1.6,1.7h-4.4c-0.8,0-1.3-0.2-1.6-0.8l-30.9-54.7c-2.6-4.4-3.8-7.2-3.9-7.5v61.4
			c0,1.2-0.5,1.7-1.6,1.7h-4.5c-1.3,0-1.7-0.6-1.7-1.7V71.6c0-1.2,0.5-1.7,1.7-1.7h4.4c0.8,0,1.2,0.2,1.4,0.7l31.5,55.6
			c0.9,1.6,3.5,7,3.5,7V71.6c0-1.2,0.5-1.7,1.6-1.7h4.4c1.3,0,1.6,0.6,1.6,1.7v75.7H935.2z"/>
		<path class="st0" d="M964.7,141.9h32.6c1.2,0,1.6,0.5,1.6,1.6v3.7c0,1.3-0.5,1.7-1.6,1.7h-39.6c-0.9,0-1.4-0.6-1.4-1.7V71.6
			c0-1.2,0.5-1.7,1.6-1.7h5c1.2,0,1.6,0.6,1.6,1.7v70.3H964.7z"/>
		<path class="st0" d="M1038.2,71.6l23.3,75.7c0.3,1.2-0.1,1.7-1.4,1.7h-5c-1.2,0-1.7-0.6-2.1-1.7l-6.4-20.8H1020l-6.3,20.8
			c-0.3,1.2-0.8,1.7-2,1.7h-4.6c-1.2,0-1.6-0.6-1.3-1.7l23.2-75.7c0.3-1.2,0.9-1.7,2.2-1.7h5C1037.3,69.9,1037.9,70.5,1038.2,71.6z
			 M1036.4,92.7c-1.2-3.7-2.7-12.9-2.9-14.2c-0.1,0.8-1.5,9.4-2.9,13.9L1022,120h23L1036.4,92.7z"/>
		<path class="st0" d="M1083,116.8v30.5c0,1.2-0.3,1.7-1.6,1.7h-4.9c-1.2,0-1.6-0.6-1.6-1.7V71.6c0-1.2,0.5-1.7,1.5-1.7h23.1
			c19.4,0,25.3,7.7,25.3,17V100c0,7.2-3.6,13.6-14.5,15.9l15.2,31.5c0.5,1-0.3,1.7-1.6,1.7h-4.9c-1.3,0-1.5-0.7-2.1-1.7l-14.5-30.6
			h-2.9H1083z M1083,77v32.8h16.5c12.4,0,17-4.4,17-11.3V88.2c0-6.7-4.5-11.1-17-11.1H1083V77z"/>
		<path class="st0" d="M1151.8,147.4c0,1.2-0.3,1.7-1.6,1.7h-4.9c-1.2,0-1.6-0.6-1.6-1.7V71.6c0-1.2,0.5-1.7,1.6-1.7h4.9
			c1.3,0,1.6,0.6,1.6,1.7V147.4z"/>
	</g>
</g>
</svg>
