<?xml version="1.0" encoding="utf-8"?>
<!-- Generator: Adobe Illustrator 26.1.0, SVG Export Plug-In . SVG Version: 6.00 Build 0)  -->
<svg version="1.1" id="Layer_1" xmlns="http://www.w3.org/2000/svg" xmlns:xlink="http://www.w3.org/1999/xlink" x="0px" y="0px"
	 viewBox="0 0 1056.6 202" style="enable-background:new 0 0 1056.6 202;" xml:space="preserve">
<path style="fill:#BF1E2E;" d="M196.6,97.5c-0.3,0.7-0.4,1-1,2.5c-0.7-20.3-5.2-37.8-22.3-50.5c1.9,2.7,3.6,4.7,4.9,7
	c1.2,2.2,2.1,4.7,2.5,7.2c-1.8-2.1-3.7-4.2-5.5-6.2c-0.2,0.1-0.4,0.2-0.6,0.3c0.4,1,0.9,1.9,1.3,2.9c-0.2,0.2-0.4,0.3-0.6,0.5
	c-1.3-1.7-2.6-3.3-4.1-5.3c0.7,2.9,1.3,5.2,2.1,8.2c-4.1-4.5-7.7-8.6-11.4-12.6c-0.3,0.3-0.7,0.5-1,0.8c3,3.9,6.1,7.8,9.1,11.7
	c-0.3,0.2-0.5,0.4-0.8,0.6c-9.3-11.3-19.7-21.3-32.8-28.2c-13.2-7-27-9.1-41.4-7.3c0,0.3-0.1,0.6-0.1,0.9c3.4-0.3,6.7-0.5,10.1-0.8
	c-5.8,1.6-12,1.4-17.1,4.7c-1,0.2-2.3,0-3.1,0.6c-6.2,4.4-12.2,8.8-19,13.7c1.6,0.5,2.2,0.7,3,1c-1,1.3-1.9,2.6-3,3.8
	c-6.2,7.3-11.2,15.4-14.9,24.2c-4.8,11.7-6.9,24.1-6.6,36.8c0.1,4.1,0.2,8.1,3.5,11.4c1,1,1.1,2.8,1.5,4.3c1.1,3.6,2.2,7.1,3.4,10.8
	c1-0.5,1.6-0.7,2.3-1c-0.6-1.9-1.3-4.1-2-6.2c0.5-0.3,0.9-0.6,1.4-0.8c11.3,28.5,33.7,40.5,62.4,43.8c23.3,2.7,49.9-9.1,68.7-35.8
	c-0.8,3-1.5,5.1-2.1,7.3c6.5-7.1,8.3-16.6,13.2-25c0.1,1,0.6,2,0.4,2.9c-0.9,3.7-2,7.4-3,11.1c0.6,0.2,1.1,0.4,1.7,0.6
	c1.6-4.2,3.1-8.3,4.6-12.3c2.6,9-2.8,16.3-6.9,23.2c-4.6,7.7-10.3,14.9-16.6,21.2c-13.3,13.2-29.1,22.2-48.2,23.9
	c-6.5,0.6-13.2,0.8-19.5-0.3c-6.3-1.1-12.2-4-18.3-6.4c-11.7-4.5-22.9-10.2-32.6-18.2c-12-9.9-20.7-22.1-24.1-37.7
	c-0.5-2.5-1.8-4.9-2.7-7.4c0.3-0.2,0.6-0.3,1-0.5c0.6,0.6,1.2,1.2,1.8,1.9c0.6-0.7,1.2-1.4,1.7-2c-2,4.1-1.3,7.7,1.6,11.5
	c0.2-1.3,0.3-2.3,0.3-2.8c3.4,5.6,7,11.3,10.6,17.1c0.3-0.2,0.6-0.4,0.9-0.5c-1.8-3.4-3.9-6.6-5.3-10.2c-1.9-5.1-3.4-10.4-4.9-15.6
	c-0.5-1.6-0.6-3.2-0.7-4.9c-0.1-2.9-2.5-5.7-0.2-8.8c0.6-0.8,0.3-2.4,0-3.5c-2.3-8.6,1.7-16.5,2.8-24.8c0.4-3.5,0.8-7.1,1.2-10.9
	c-0.9-0.2-2-0.4-3.6-0.7c3.3-8.2,6.3-16.4,9.9-24.2c3.1-6.9,8-12.5,14.3-16.8c0.7-0.5,1.6-0.8,2.7-0.9c-1.6,1.4-3.2,2.8-4.6,4.3
	c-1.4,1.5-2.6,3.2-3.9,4.8c0.3,0.3,0.6,0.7,0.8,1c6.5-4.2,13-8.4,19.5-12.6c-0.1-0.2-0.2-0.5-0.3-0.7c-1.6,0.7-3.2,1.4-4.8,2.1
	c-0.2-0.3-0.3-0.5-0.5-0.8c2.7-1.8,5.2-4,8-5.3c12.6-5.9,25.9-8.7,39.7-7.5c17.1,1.5,32.7,7.6,46.8,17.5c4.9,3.5,10.1,6.5,15.1,9.8
	c1.3,0.9,2.4,2.1,3.6,3.1c-0.2,0.3-0.4,0.5-0.6,0.8c-2.7-1.8-5.4-3.7-8.1-5.5c-0.1,0.1-0.1,0.2-0.2,0.3c5,6.6,10,13.2,14.9,19.9
	c0.5,0.7,0.2,1.9,0.4,2.9c0.1,0.8,0.3,1.7,0.7,2.5c2,4.5,4.2,9,6,13.6c1.2,3.1,1.6,6.5,2.4,9.8c-0.4,0.1-0.8,0.2-1.3,0.4
	c-0.7-1.5-1.4-2.9-2.1-4.4c-0.2,0-0.3,0-0.5,0c0.3,5.3,0.6,10.6,0.9,15.9c-0.2,0-0.4,0-0.5,0.1C197.2,98.5,197,98.1,196.6,97.5z
	 M193.2,140.2c-1.4,1.6-3.4,3.7-5,6.1c-2.5,3.6-4.7,7.4-7.3,11.5c1.2-0.5,1.9-0.8,3.2-1.3c-1,1.4-1.7,2.2-2.3,3.1
	C188.9,154,192.6,146.9,193.2,140.2z M71.4,161.7c-5.1-5.9-9.5-10.9-13.5-15.6c0.4,1.6,1,3.9,1.6,6.1c-0.4,0.3-0.9,0.6-1.3,0.9
	C62.3,155.8,66.4,158.5,71.4,161.7z M82.4,22.1c0.1,0.3,0.2,0.6,0.3,0.8c2.9-0.8,5.9-1.6,8.8-2.5c-0.2-0.6-0.4-1.1-0.5-1.7
	C88.1,19.9,85.3,21,82.4,22.1z M162.6,50.9c-0.6-3.1-1.5-5.8-5.5-5.7C158.9,47.1,160.8,49,162.6,50.9z"/>
<path style="fill:#FFFFFF;" d="M743.3,59.4c2.4,26.8,4.8,53.2,7.2,79.9c-6,0-11.7,0-17.8,0c-1.3-15.7-2.6-31.4-3.8-47.1
	c-0.3-0.1-0.5-0.1-0.8-0.2c-5.4,15.6-10.9,31.1-16.3,46.6c-0.2,0.1-0.4,0.2-0.5,0.2c-10.6,0.5-10.6,0.5-14-9.8
	c-4.1-12-8.2-24-12.3-36c-0.1-0.2-0.3-0.3-1.2-0.9c-1.3,16-2.6,31.5-3.8,47.3c-5.8,0-11.7,0-17.7,0c0.6-7.7,1-15.4,1.8-23.1
	c1.1-11.5,2.4-22.9,3.5-34.4c0.6-6.2,1.2-12.3,1.4-18.5c0.1-3.2,1.1-4.1,4.1-3.9c4,0.2,8,0.2,12,0c2.6-0.1,3.7,0.8,4.5,3.2
	c5.4,14.3,10.9,28.4,16.7,43.5c0.9-2,1.5-3.4,2.1-4.7c5.1-13.1,10.2-26.2,15.2-39.4c0.7-1.9,1.5-2.5,3.5-2.5
	C732.1,59.5,737.4,59.4,743.3,59.4z"/>
<path style="fill:#FFFFFF;" d="M472.6,141c-24.1,0.1-40.6-18.1-40.5-41.1c0.1-24.2,16.9-41.5,40.5-41.7c22-0.2,40.7,17.1,40.1,43.3
	C512.3,123,495.5,141.2,472.6,141z M472.9,75.7c-6.6-0.3-11.5,2.2-15.5,6.9c-4.8,5.5-5.5,11.9-5.6,18.8
	c-0.1,11.9,8.7,24.6,24.3,21.9c7.7-1.3,12.7-5.4,15.4-12.3c2.1-5.3,2.6-10.8,1.6-16.7C491.3,84.6,484.6,75.1,472.9,75.7z"/>
<path style="fill:#FFFFFF;" d="M235.2,115.6c5.4,4.5,11.4,7.5,18,9c5.8,1.3,12.1-2.1,12.9-6.9c0.6-3.5-0.9-6.1-4.8-8.1
	c-4.6-2.4-9.4-4.5-13.9-7c-5.3-2.9-10.1-6.6-12.5-12.5c-2.7-6.6-1.9-13.1,1.5-19.1c5.1-8.9,13.6-12.7,23.3-12.7
	c8.5,0,16.7,2.6,23.9,7.3c-2.3,4.7-4.6,9.4-6.8,13.8c-5-1.6-9.7-3.4-14.5-4.8c-4.6-1.3-9.7,1.5-11.2,5.6c-1.1,3,0.3,4.9,2.3,6.1
	c5,2.9,10.2,5.3,15.4,7.9c7.1,3.6,13.9,7.9,16.3,15.8c3.3,11.2-1.3,24.2-15,28.7c-15.1,5-29.1,1.8-42.2-6.5c-1.6-1-1.6-2.3-0.7-3.8
	C229.9,124.2,232.5,120,235.2,115.6z"/>
<path style="fill:#FFFFFF;" d="M593.1,139.4c-6.2,0-11.9,0-17.8,0c0-21.2,0-42.3,0-63.6c-6.5,0-12.5,0-18.9,0c0-5.5,0-10.7,0-16.2
	c18.4,0,36.9,0,55.6,0c0,5.2,0,10.4,0,15.9c-6.1,0-12.3,0-18.8,0C593.1,97,593.1,118,593.1,139.4z"/>
<path style="fill:#FFFFFF;" d="M359.5,124c9.6,0,18.5,0,27.6,0c0,5.2,0,10.1,0,15.3c-14.9,0-29.9,0-45,0c0-26.5,0-53,0-79.7
	c5.8,0,11.4,0,17.4,0C359.5,80.9,359.5,102.2,359.5,124z"/>
<path style="fill:#FFFFFF;" d="M891.7,59.6c5.9,0,11.5,0,17.5,0c0,21.4,0,42.7,0,64.3c9.3,0,18.3,0,27.4,0c0,5.3,0,10.3,0,15.5
	c-14.9,0-29.8,0-44.9,0C891.7,112.8,891.7,86.4,891.7,59.6z"/>
<path style="fill:#FFFFFF;" d="M997,124c9.6,0,18.5,0,27.6,0c0,5.2,0,10.1,0,15.3c-14.9,0-29.9,0-45,0c0-26.5,0-53,0-79.7
	c5.7,0,11.4,0,17.4,0C997,80.9,997,102.2,997,124z"/>
<path style="fill:#FFFFFF;" d="M826,139.5c-5.9,0-11.4,0-17.2,0c0-26.6,0-53.1,0-79.8c5.6,0,11.3,0,17.2,0
	C826,86.2,826,112.7,826,139.5z"/>
</svg>
