<?xml version="1.0" encoding="utf-8"?>
<!-- Generator: Adobe Illustrator 26.1.0, SVG Export Plug-In . SVG Version: 6.00 Build 0)  -->
<svg version="1.1" id="Layer_1" xmlns="http://www.w3.org/2000/svg" xmlns:xlink="http://www.w3.org/1999/xlink" x="0px" y="0px"
	 viewBox="0 0 1056.6 202" style="enable-background:new 0 0 1056.6 202;" xml:space="preserve">
<path style="fill:#F9FAFB;" d="M11.9,176.5L85.8,34.5l34-24l72.1,171.8L106.3,75.6L11.9,176.5z"/>
<path style="fill:#7CD6FB;" d="M74.6,150.1l29.9,25.2L215.4,72.7L106.3,198.2L74.6,150.1z"/>
<g>
	<path style="fill-rule:evenodd;clip-rule:evenodd;fill:#F9FAFB;" d="M364.4,84.4l6.5-11.1h-14.1l-6.5,11.1l-15.2,27l-15.2-27
		l-6.5-11.1h-14.1l6.5,11.1l29.3,51L364.4,84.4z M304.5,135.4h14.1l-6.5-11.1l-29.3-51l-29.3,51l-6.5,11.1h14.1l6.5-11.1l15.2-27
		l15.2,27L304.5,135.4z M423.6,135.4h-14.1l-6.5-11.1l-15.2-27l-15.2,27l-6.5,11.1h-14.1l6.5-11.1l29.3-51l29.3,51L423.6,135.4z
		 M479.9,84.4V73.3h-70.4v11.1h28.7v51h12.3v-51C450.6,84.4,479.9,84.4,479.9,84.4z M538,135.4h-14.1l-6.5-11.1l-15.2-27l-15.2,27
		l-6.5,11.1h-14.1l6.5-11.1l29.3-51l29.3,51L538,135.4z M607.8,135.4l-6.5-11.1l-10-17.6c1.8,0,3.5-0.6,5.3-1.2
		c6.5-2.9,11.1-8.8,11.1-15.2c0-4.7-2.3-8.8-5.3-11.7c-3.5-2.9-8.2-4.7-13.5-4.7h-44.6V136h12.3v-28.7h12.3c4.7,0,8.2,2.3,10.6,5.3
		l0.6,0.6l7,11.7l6.5,11.1L607.8,135.4z M591.4,95c-0.6,0.6-1.8,0.6-2.3,0.6h-31.7V83.8H589c2.3,0,3.5,1.2,4.7,1.8
		c0.6,0.6,1.8,1.8,1.8,4.1C594.9,92,593.7,94.4,591.4,95z"/>
	<path style="fill-rule:evenodd;clip-rule:evenodd;fill:#7CD6FB;" d="M738,121.3V73.3h-5.3v48.1c0,4.7-3.5,8.2-7.6,8.2h-56.3
		c-4.1,0-7.6-3.5-7.6-8.2V73.3h-5.3v48.1c0,7.6,5.9,14.1,12.9,14.1h56.3C732.1,135.4,738,129.6,738,121.3z M833,135.4l-36.4-31.1
		L833,73.3h-8.2l-32.3,27.6l-32.3-27.6h-8.2l36.4,31.1l-36.4,31.1h8.2l32.3-27.6l32.3,27.6H833z"/>
</g>
</svg>
