<?xml version="1.0" encoding="utf-8"?>
<!-- Generator: Adobe Illustrator 26.1.0, SVG Export Plug-In . SVG Version: 6.00 Build 0)  -->
<svg version="1.1" id="Layer_1" xmlns="http://www.w3.org/2000/svg" xmlns:xlink="http://www.w3.org/1999/xlink" x="0px" y="0px"
	 viewBox="0 0 1056.6 202" style="enable-background:new 0 0 1056.6 202;" xml:space="preserve">
<g id="Livello_1_1_">
</g>
<g id="Layer_1_00000121280000816817959920000000882230360127541942_">
</g>
<path style="fill:#FFFFFF;" d="M393.7,141.6l-8.9-21.4h-44.1v21.5h-24.2V99.4h70.3c4,0,6.7-2.5,6.7-6.1c0-3.7-2.7-6.2-6.7-6.2h-70.3
	V68.4H389c16.3,0,27.5,9.8,27.5,25.9c0,8.9-3.4,15.9-9.3,20.3l12.3,27H393.7L393.7,141.6z"/>
<path style="fill:#FFFFFF;" d="M465.8,68.4h63.9v22.4h-61.8c-7.9,0-14.2,6.4-14.2,14.2s6.4,14.2,14.2,14.2h61.8v22.4h-63.9
	c-20.2,0-36.6-16.4-36.6-36.6C429.1,84.8,445.5,68.4,465.8,68.4z"/>
<path style="fill:#FFFFFF;" d="M765.3,105c0,23.2-11.3,36.6-39.7,36.6h-75.9V68.3h75.9C754,68.4,765.3,81.9,765.3,105z M740.5,105
	c0-11.6-5.4-14.2-14.9-14.2h-51.8v28.5h51.8C735.1,119.2,740.5,116.7,740.5,105z"/>
<path style="fill:#FFFFFF;" d="M955.8,141.6l-19.5-57.8v57.8h-24.1V68.3h45.4l19.5,57.8l19.5-57.8h45.4v73.3h-24.1V83.8l-19.5,57.8
	H955.8z"/>
<path style="fill:#FFFFFF;" d="M896.7,88.1V68.3h-82.1c-20.2,0-36.6,16.4-36.6,36.6c0,20.2,16.4,36.6,36.6,36.6h82.1v-19.7h-77.8
	c-9.3,0-16.9-7.6-16.9-16.9s7.6-16.9,16.9-16.9H896.7z"/>
<path style="fill:#FFFFFF;" d="M896.7,113V97.1h-77.8c-4.4,0-7.9,3.6-7.9,7.9c0,4.4,3.6,7.9,7.9,7.9L896.7,113L896.7,113z"/>
<path style="fill:#FFFFFF;" d="M274.3,68.4l32.8,73.3h-28.2l-22.3-57.8l-22.3,57.8H206l32.8-73.3H274.3z"/>
<path style="fill:#FFFFFF;" d="M234.1,141.6h22.4v-18.3h-15.3L234.1,141.6z"/>
<path style="fill:#FFFFFF;" d="M607.5,68.4l32.8,73.3H612l-22.3-57.8l-22.3,57.8h-28.1l32.8-73.3H607.5z"/>
<path style="fill:#FFFFFF;" d="M567.4,141.6h22.3v-18.3h-15.3L567.4,141.6z"/>
<path style="fill:#FFFFFF;" d="M170.3,185.3v-48.2c0-1.1,0.6-2.1,1.5-2.8l10.3-6.9c0.9-0.6,1.5-1.7,1.5-2.8v-7
	c0-1.2-0.6-2.2-1.6-2.9l-26.2-15.9c-0.9-0.6-1.5-1.5-1.6-2.7l-3.8-58.3c-0.3-3.8,2.8-7.1,6.6-7.1l10.5-0.2c3.6,0,6.6-3.1,6.6-6.7
	v-5.5c0-3.7-3-6.7-6.7-6.7h-7.7h0h-15.9h-5.3c-0.2,0-0.4,0-0.6,0l-37.5,0c3.3,0.4,5.8,3.2,5.8,6.6v5.5c0,2.7-1.6,4.4-1.6,4.4
	c-1.2,1.4-3,2.3-5,2.3L89,30.7c-3.8,0-6.8,3.3-6.6,7.1l3.8,58.3c0,1.3,1.2,2.4,1.6,2.7l3.5,2.1h5.4h47.9l23.2,14.3h-53.1
	c0.6,0.6,0.9,1.5,0.9,2.4v1.4h62c0.2,0,0.3,0.1,0.3,0.3v3.4c0,0.2-0.1,0.3-0.3,0.3h-62v1.6c0,1.1-0.6,2.1-1.5,2.8l-10.3,6.9
	c-0.9,0.6-1.5,1.7-1.5,2.8v48.2c0,2.6-2,4.7-4.5,5h16.5c0.2,0,0.3,0,0.5,0h9.8h40.6C168,190.3,170.3,188,170.3,185.3z M92.4,88.6
	l-3.3-50.5c-0.1-1.9,1.4-3.5,3.3-3.5h1.7h39.4c1.8,0,3.2,1.4,3.3,3.1l3.3,50.5c0.1,1.9-1.4,3.5-3.3,3.5H97.4h-1.7
	C94,91.7,92.5,90.3,92.4,88.6z M122.5,153.4c0-1.8,1.5-3.3,3.3-3.3h26.4c1.8,0,3.3,1.5,3.3,3.3v17.7c0,1.8-1.5,3.3-3.3,3.3h-26.4
	c-1.8,0-3.3-1.5-3.3-3.3V153.4L122.5,153.4z"/>
<path style="fill:#FFFFFF;" d="M97.1,185.3v-48.2c0-1.1,0.6-2.1,1.5-2.8l10.3-6.9c0.9-0.6,1.5-1.7,1.5-2.8v-7c0-1.2-0.6-2.2-1.6-2.9
	L82.5,98.8c-0.9-0.6-1.5-1.5-1.6-2.7l-3.8-58.3c-0.3-3.8,2.8-7.1,6.6-7.1l10.5-0.2c3.6,0,6.6-3.1,6.6-6.7v-5.5c0-3.7-3-6.7-6.7-6.7
	H70.4h-5.2c-2.1,0-4.1,0.7-5.8,2l-36.3,28c-2.4,1.8-3.7,4.6-3.7,7.5v50.8c0,1.8,0.6,3.7,1.6,5.2l14.2,21.4c1,1.5,1.6,3.4,1.6,5.2
	v53.5c0,2.8,2.2,5,5,5h50.4c0,0,0,0,0.1,0C94.9,190.2,97.1,188,97.1,185.3z"/>
</svg>
