<?xml version="1.0" encoding="utf-8"?>
<!-- Generator: Adobe Illustrator 24.1.2, SVG Export Plug-In . SVG Version: 6.00 Build 0)  -->
<svg version="1.1" id="Capa_1" xmlns="http://www.w3.org/2000/svg" xmlns:xlink="http://www.w3.org/1999/xlink" x="0px" y="0px"
	 viewBox="0 0 497.4 79.4" style="enable-background:new 0 0 497.4 79.4;" xml:space="preserve">
<style type="text/css">
	.st0{fill:#FFFFFF;}
</style>
<g>
	<g>
		<path class="st0" d="M71.3,56.4c-1,0-1.3-0.4-1.3-1.5V19.7c0-1,0.3-1.5,1.3-1.5h19.2c1,0,1.4,0.3,1.4,1.3V23c0,1-0.4,1.4-1.4,1.4
			h-13v9.1h12c1,0,1.5,0.3,1.5,1.3v3.4c0,1-0.4,1.3-1.5,1.3h-12v10.6H91c1,0,1.4,0.3,1.4,1.3v3.5c0,1-0.4,1.4-1.4,1.4L71.3,56.4
			L71.3,56.4z"/>
		<path class="st0" d="M104.8,41.9V55c0,1-0.3,1.5-1.3,1.5h-4.9c-1,0-1.3-0.4-1.3-1.5V19.7c0-1,0.3-1.5,1.3-1.5h11.8
			c10.1,0,13.6,4.4,13.6,9.1v5.3c0,3.3-1.7,6.4-6.2,8.1l6.1,14.1c0.4,0.9-0.3,1.5-1.3,1.5h-4.9c-0.8,0-1-0.6-1.4-1.5l-5.5-13.1h-0.3
			h-5.7V41.9z M104.8,24.6v11h5.5c3.8,0,6.1-1.4,6.1-4.2v-2.6c0-2.8-2.3-4.2-6.1-4.2H104.8z"/>
		<path class="st0" d="M157.5,55c0.5,0.7,0.3,1.4-0.7,1.4h-6.2c-1,0-1.5-0.7-2-1.4L138,40.3h-1V55c0,1-0.3,1.4-1.3,1.4h-4.9
			c-1,0-1.3-0.4-1.3-1.4V19.7c0-1,0.3-1.4,1.3-1.4h4.9c1,0,1.3,0.4,1.3,1.4v15.1h0.9l10-15.1c0.5-0.8,1.2-1.4,2.2-1.4h5.2
			c1,0,1.2,0.7,0.7,1.4L144.3,37L157.5,55z"/>
		<path class="st0" d="M162.2,56.4c-1,0-1.3-0.4-1.3-1.5V19.7c0-1,0.3-1.5,1.3-1.5h19.2c1,0,1.4,0.3,1.4,1.3V23c0,1-0.4,1.4-1.4,1.4
			h-12.9v9.1h12c1,0,1.5,0.3,1.5,1.3v3.4c0,1-0.4,1.3-1.5,1.3h-12v10.6H182c1,0,1.4,0.3,1.4,1.3v3.5c0,1-0.4,1.4-1.4,1.4L162.2,56.4
			L162.2,56.4z"/>
		<path class="st0" d="M216.2,55c0.5,0.7,0.3,1.4-0.7,1.4h-6.2c-1,0-1.5-0.7-2-1.4l-10.5-14.7h-1V55c0,1-0.3,1.4-1.3,1.4h-4.9
			c-1,0-1.3-0.4-1.3-1.4V19.7c0-1,0.3-1.4,1.3-1.4h4.9c1,0,1.3,0.4,1.3,1.4v15.1h0.9l10-15.1c0.5-0.8,1.2-1.4,2.2-1.4h5.2
			c1,0,1.2,0.7,0.7,1.4L203,37L216.2,55z"/>
		<path class="st0" d="M227,50.1h12.5c1,0,1.4,0.3,1.4,1.3v3.5c0,1-0.4,1.4-1.4,1.4h-18.9c-0.8,0-1.2-0.5-1.2-1.5V19.7
			c0-1,0.3-1.5,1.3-1.5h4.9c1,0,1.3,0.4,1.3,1.5L227,50.1L227,50.1z"/>
		<path class="st0" d="M246.2,56.4c-1,0-1.3-0.4-1.3-1.5V19.7c0-1,0.3-1.5,1.3-1.5h19.2c1,0,1.4,0.3,1.4,1.3V23c0,1-0.4,1.4-1.4,1.4
			h-13v9.1h12c1,0,1.5,0.3,1.5,1.3v3.4c0,1-0.4,1.3-1.5,1.3h-12v10.6h13.5c1,0,1.4,0.3,1.4,1.3v3.5c0,1-0.4,1.4-1.4,1.4L246.2,56.4
			L246.2,56.4z"/>
		<path class="st0" d="M279.7,41.9V55c0,1-0.3,1.5-1.3,1.5h-4.9c-1,0-1.3-0.4-1.3-1.5V19.7c0-1,0.3-1.5,1.3-1.5h11.8
			c10.1,0,13.6,4.4,13.6,9.1v5.3c0,3.3-1.7,6.4-6.2,8.1l6.1,14.1c0.4,0.9-0.3,1.5-1.3,1.5h-4.9c-0.8,0-1-0.6-1.4-1.5l-5.5-13.1h-0.3
			h-5.7V41.9z M279.7,24.6v11h5.6c3.8,0,6.1-1.4,6.1-4.2v-2.6c0-2.8-2.3-4.2-6.1-4.2H279.7z"/>
		<path class="st0" d="M341.9,55c0.5,0.7,0.3,1.4-0.7,1.4H335c-1,0-1.5-0.7-2-1.4l-10.5-14.7h-1V55c0,1-0.3,1.4-1.3,1.4h-4.9
			c-1,0-1.3-0.4-1.3-1.4V19.7c0-1,0.3-1.4,1.3-1.4h4.9c1,0,1.3,0.4,1.3,1.4v15.1h0.9l10-15.1c0.5-0.8,1.2-1.4,2.2-1.4h5.2
			c1,0,1.2,0.7,0.7,1.4L328.8,37L341.9,55z"/>
		<path class="st0" d="M352,46.4c0,2.8,2.2,4.2,6,4.2s6.1-1.4,6.1-4.2V19.7c0-1,0.3-1.5,1.3-1.5h4.9c1,0,1.3,0.4,1.3,1.5v28
			c0,4.7-3.5,9.1-13.6,9.1s-13.6-4.4-13.6-9.1v-28c0-1,0.4-1.5,1.4-1.5h4.9c1,0,1.3,0.4,1.3,1.5L352,46.4L352,46.4z"/>
		<path class="st0" d="M385.4,50.1h12.5c1,0,1.4,0.3,1.4,1.3v3.5c0,1-0.4,1.4-1.4,1.4H379c-0.8,0-1.2-0.5-1.2-1.5V19.7
			c0-1,0.3-1.5,1.3-1.5h4.9c1,0,1.3,0.4,1.3,1.5v30.4H385.4z"/>
		<path class="st0" d="M410.4,46.4c0,2.8,2.2,4.2,6,4.2s6.1-1.4,6.1-4.2V19.7c0-1,0.3-1.5,1.3-1.5h4.9c1,0,1.3,0.4,1.3,1.5v28
			c0,4.7-3.5,9.1-13.6,9.1s-13.6-4.4-13.6-9.1v-28c0-1,0.4-1.5,1.4-1.5h4.9c1,0,1.3,0.4,1.3,1.5L410.4,46.4L410.4,46.4z"/>
		<path class="st0" d="M437.6,56.4c-1,0-1.3-0.4-1.3-1.5V19.7c0-1,0.3-1.5,1.3-1.5h10.3c10.1,0,13.6,3.8,13.6,8.5v3.4
			c0,2.7-1.3,4.9-4.2,6.3c3.8,1.3,5.9,3.7,5.9,6.8v4.4c0,4.7-3.4,8.9-13.6,8.9h-12V56.4z M443.8,24.3v9.8h4.2c3.6,0,5.9-1.3,5.9-4.2
			v-2c0-2.8-2.3-3.6-6.1-3.6C447.8,24.3,443.8,24.3,443.8,24.3z M443.8,39.8v10.5h5.8c3.8,0,6.1-1.3,6.1-4.1v-2.5
			c0-2.4-2.4-3.9-6.1-3.9H443.8z"/>
		<path class="st0" d="M475.4,46.4c0,2.8,2.2,4.2,6,4.2s6.1-1.4,6.1-4.2V19.7c0-1,0.3-1.5,1.3-1.5h4.9c1,0,1.3,0.4,1.3,1.5v28
			c0,4.7-3.5,9.1-13.6,9.1s-13.6-4.4-13.6-9.1v-28c0-1,0.4-1.5,1.4-1.5h4.9c1,0,1.3,0.4,1.3,1.5L475.4,46.4L475.4,46.4z M480.2,14
			c0,1-0.3,1.4-1.3,1.4h-2.7c-1,0-1.3-0.4-1.3-1.4V8.8c0-1,0.4-1.5,1.3-1.5h2.7c1,0,1.3,0.4,1.3,1.5V14z M488,14
			c0,1-0.3,1.4-1.3,1.4H484c-1,0-1.3-0.4-1.3-1.4V8.8c0-1,0.3-1.5,1.3-1.5h2.7c1,0,1.3,0.4,1.3,1.5V14z M415.1,14
			c0,1-0.3,1.4-1.3,1.4h-2.7c-1,0-1.3-0.4-1.3-1.4V8.8c0-1,0.4-1.5,1.3-1.5h2.7c1,0,1.3,0.4,1.3,1.5V14z M422.9,14
			c0,1-0.3,1.4-1.3,1.4h-2.7c-1,0-1.3-0.4-1.3-1.4V8.8c0-1,0.3-1.5,1.3-1.5h2.7c1,0,1.3,0.4,1.3,1.5V14z"/>
	</g>
</g>
<path class="st0" d="M50.2,50.8h-7.7c-0.3-1.7-1.2-3.3-2.4-4.6v-5.1c2.8-2.5,4.4-6.1,4.4-9.9v-0.5c1.8-0.2,3.1-1.7,3-3.5
	c-0.1-1-0.6-1.9-1.4-2.4c1.8-5.2,1.7-10.8-0.3-15.9l-0.6-1.5c0.4-0.9,0.7-1.8,0.7-2.8V2.9C45.9,2.4,45.5,2,45,2
	c-0.1,0-0.2,0-0.3,0.1c-4.4,1.8-17.7,0.2-19.3,0c-0.5-0.1-0.9,0-1.3,0.1c-1.8,0.4-3.1,2-3.1,3.9c0,1.2-1,2.2-2.2,2.2
	c-1.4,0-2.7,0.9-3.2,2.2l-0.1,0.3c-1.7,4.1-1.7,8.8,0,12.9l0.5,1.2c-1.4,1.1-1.6,3.2-0.4,4.6c0.6,0.7,1.4,1.1,2.2,1.2v0.5
	c0,3.8,1.6,7.4,4.4,9.9v5.2c-1.2,1.3-2,2.9-2.4,4.6H12C6.4,50.9,1.9,55.4,1.9,61l0,0v15.5c0,0.5,0.4,0.9,0.9,0.9h56.5
	c0.5,0,0.9-0.4,0.9-0.9V60.9C60.2,55.3,55.7,50.8,50.2,50.8z M39.2,57.6l-3.5-2.4c0.1-0.3,0.2-0.6,0.2-0.9v-1
	c0.7-0.2,1.5-0.1,2.1,0.2c0.4,0.2,1,0,1.2-0.4s0.1-1-0.4-1.2c-0.9-0.5-2-0.7-3-0.5v-0.2c0-0.3-0.1-0.6-0.2-0.9l3.5-2.4
	C41.5,50.7,41.5,54.8,39.2,57.6z M33.4,48.8h-4.6c-0.3,0-0.7,0.1-1,0.2c0,0,0,0-0.1,0l-3.9-2.7v-3.7c4.4,2.8,10,2.8,14.4,0v3.7
	L34.3,49h-0.1C34,48.8,33.7,48.8,33.4,48.8L33.4,48.8z M34,51.2v1.5c0,0.1,0,0.1,0,0.2v1.4c0,0.3-0.3,0.6-0.6,0.6h-4.6
	c-0.3,0-0.6-0.3-0.6-0.6v-3.1c0-0.3,0.3-0.6,0.6-0.6l0,0h4.6C33.7,50.6,34,50.8,34,51.2L34,51.2L34,51.2z M17,11.4l0.1-0.3
	c0.2-0.6,0.9-1.1,1.6-1.1c2.2,0,4-1.8,4-4c0-1.2,0.9-2.2,2.1-2.2c0.1,0,0.2,0,0.3,0C27.5,4.1,38.7,5.4,44,4.1v0.4
	c0,2.4-1.9,4.4-4.4,4.4h-5.9c-0.5,0-0.9,0.4-0.9,0.9s0.4,0.9,0.9,0.9h5.9c1.6,0,3.1-0.6,4.2-1.7L44,9.5c1.8,4.5,2,9.4,0.5,14.1v-2.8
	c0-4-2.2-7.7-5.8-9.6c-0.4-0.2-1-0.1-1.2,0.4c0,0,0,0.1-0.1,0.1v0.1c-0.6,2.5-3.6,4.2-7,4.2c-3.1,0-5.9-1.5-6.8-3.7l0,0
	c-0.2-0.5-0.7-0.7-1.2-0.5c-0.1,0-0.1,0.1-0.2,0.1c-2.9,2-4.7,5.4-4.7,8.9v3.3h-0.2l-0.5-1.2c-1.5-3.7-1.5-7.8,0-11.6L17,11.4z
	 M19.4,31.1v-1.4c0-0.5-0.4-0.9-0.9-0.9h-0.6c-0.8,0-1.4-0.6-1.4-1.4s0.6-1.4,1.4-1.4h0.6c0.5,0,0.9-0.4,0.9-0.9v-4.2
	c0-2.6,1.1-5.1,3.1-6.8c1.5,2.3,4.5,3.9,8,3.9c3.7,0,7-1.8,8.3-4.5c2.5,1.7,4,4.5,4,7.5v4.2c0,0.5,0.4,0.9,0.9,0.9h0.6
	c0.8,0,1.4,0.6,1.4,1.4s-0.6,1.4-1.4,1.4h-0.6c-0.5,0-0.9,0.4-0.9,0.9v1.3c-0.2,6.4-5.5,11.5-12,11.3C24.6,42.3,19.6,37.3,19.4,31.1
	L19.4,31.1L19.4,31.1z M23,47.8l3.5,2.4c-0.1,0.3-0.2,0.6-0.2,0.9v0.3c-1-0.2-2.1-0.1-3,0.5c-0.5,0.2-0.7,0.7-0.6,1.2
	s0.7,0.7,1.2,0.6c0.1,0,0.2-0.1,0.3-0.2c0.6-0.3,1.4-0.4,2.1-0.2v0.9c0,0.3,0.1,0.6,0.2,0.9L23,57.6C20.7,54.8,20.7,50.7,23,47.8
	L23,47.8z M13.2,75.5v-5.9c0-0.5-0.4-0.9-0.9-0.9s-0.9,0.4-0.9,0.9v5.9H3.7V60.9c0-4.6,3.7-8.3,8.3-8.3h3.5l8.1,22.9H13.2z
	 M25.5,75.5l-8.1-22.9h2.1c-0.1,2.5,0.9,5,2.7,6.8c0.3,0.3,0.8,0.3,1.1,0.1l4.4-3c0,0,0,0,0.1,0c0.3,0.1,0.6,0.2,1,0.2h4.6
	c0.3,0,0.7-0.1,1-0.2h0.1l4.4,3c0.4,0.2,0.8,0.2,1.1-0.1c1.8-1.8,2.8-4.3,2.8-6.8h2.1l-8.1,22.9H25.5z M58.4,75.5h-7.7v-5.9
	c0-0.5-0.4-0.9-0.9-0.9S49,69.1,49,69.6v5.9H38.6l8.1-22.9h3.4c4.6,0,8.3,3.7,8.3,8.3L58.4,75.5z"/>
</svg>
