<?xml version="1.0" encoding="utf-8"?>
<!-- Generator: Adobe Illustrator 26.1.0, SVG Export Plug-In . SVG Version: 6.00 Build 0)  -->
<svg version="1.1" id="Layer_1" xmlns="http://www.w3.org/2000/svg" xmlns:xlink="http://www.w3.org/1999/xlink" x="0px" y="0px"
	 viewBox="0 0 1056.6 202" style="enable-background:new 0 0 1056.6 202;" xml:space="preserve">
<g id="Livello_1_1_">
</g>
<g id="Layer_1_00000121280000816817959920000000882230360127541942_">
</g>
<g>
	<g>
		<g>
			<path style="fill:#FFFFFF;" d="M63.2,52.9l-37-25.7c-1.1-0.7-2.1-1-2.8-0.7c-0.5,0.2-0.9,0.8-1.2,1.5c-0.1,0.3-0.2,0.6-0.2,1
				l-7.8,51.2c-0.5,3.4,1.5,8.1,4.3,10l37,25.7l0,0c1,0.7,2.1,1,2.8,0.7s1.2-1.2,1.4-2.5l7.8-51.2C68,59.5,66,54.8,63.2,52.9z
				 M31,83.4c-0.4,2.7-2,4.4-4.1,4.4c-0.9,0-1.9-0.3-2.8-1c-3-2.1-5-6.8-4.4-10.7c0.4-2.7,2-4.4,4.1-4.4c0.9,0,1.9,0.3,2.8,1
				C29.6,74.8,31.6,79.6,31,83.4z M46,74.8c-0.4,2.7-2,4.3-4.1,4.3c-0.9,0-1.9-0.3-2.8-1c-3-2.1-5-6.8-4.4-10.7
				c0.4-2.7,2-4.3,4.1-4.3c0.9,0,1.9,0.3,2.8,1C44.6,66.1,46.6,70.9,46,74.8z M61,66.1c-0.4,2.7-2,4.4-4.1,4.4c-0.9,0-1.9-0.3-2.8-1
				c-3-2.1-5-6.8-4.4-10.7c0.4-2.7,2-4.3,4.1-4.3c0.9,0,1.9,0.3,2.8,1C59.6,57.5,61.6,62.3,61,66.1z"/>
			<path style="fill:#FFFFFF;" d="M100,91.5L100,91.5L100,91.5c2.1-4.2,6.9-7.5,11.6-8.1c0.1,0,0.2,0,0.3,0c0.4,0,0.8-0.1,1.2-0.1
				h6.4l5.9-38.5c0-0.3,0.1-0.6,0.1-1c0-0.8-0.3-1.4-0.7-1.8c-0.6-0.5-1.6-0.6-2.8-0.2L79,55.3c-3.3,1-6.6,4.9-7.1,8.3L64,114.8
				c-0.2,1.3,0,2.3,0.6,2.8s1.5,0.6,2.7,0.2h0.1l23.4-7.3L100,91.5z M103.6,61.9c0.6-3.9,4-7.9,7.5-9c1.9-0.6,3.7-0.2,4.7,1
				c0.9,1,1.2,2.6,0.9,4.3c-0.6,3.9-4,7.9-7.5,9c-0.6,0.2-1.2,0.3-1.7,0.3c-1.2,0-2.3-0.4-3-1.3C103.7,65.2,103.3,63.7,103.6,61.9z
				 M86.9,97.9c-0.6,3.9-4,7.9-7.5,9c-0.6,0.2-1.2,0.3-1.7,0.3c-1.2,0-2.3-0.4-3-1.3c-0.9-1-1.2-2.6-0.9-4.3c0.6-3.9,4-7.9,7.5-9
				c1.9-0.6,3.7-0.2,4.7,1C86.8,94.6,87.2,96.1,86.9,97.9z"/>
			<path style="fill:#FFFFFF;" d="M28.6,23.6l37,25.7c2.9,2,8.5,2.9,11.9,1.8l43-13.5c1.3-0.4,1.8-1,1.9-1.2c0-0.2-0.2-0.6-0.6-1
				c-0.3-0.2-0.5-0.5-0.8-0.7L84,9.1c-2-1.4-5.3-2.3-8.4-2.3c-1.3,0-2.5,0.2-3.5,0.5l-43,13.4l0,0l0,0c-0.3,0.1-0.6,0.2-0.9,0.4
				c-0.6,0.3-0.9,0.6-0.9,0.8C27.2,22.2,27.5,22.8,28.6,23.6z M65.8,26.2c0.2-1.3,1.4-2.4,3.2-3c1.1-0.3,2.3-0.5,3.6-0.5
				c3,0,6.2,0.9,8.2,2.3c1.6,1.1,2.4,2.5,2.2,3.8c-0.2,1.3-1.4,2.4-3.2,3c-1.1,0.3-2.3,0.5-3.6,0.5l0,0c-3,0-6.2-0.9-8.2-2.3
				C66.4,28.9,65.6,27.5,65.8,26.2z"/>
			<path style="fill:#FFFFFF;" d="M136.3,128.4l-18.6-23.8l-1.4-1.7l-1.4-1.7l-6.5-8.3c-0.8-1-1.7-1.5-2.5-1.5
				c-0.6,0.1-1.1,0.5-1.6,1.1c-0.2,0.3-0.4,0.6-0.5,0.8l-7.4,15.2l-1.3,2.7l-1.3,2.7l-12.6,26c-1.5,3.1-1,8.2,1.2,10.9l27.8,35.5
				l0,0c0.1,0.1,0.2,0.3,0.4,0.4c0.1,0.1,0.2,0.2,0.3,0.3c0.6,0.6,1.3,0.8,1.8,0.8c0.8-0.1,1.5-0.8,2.1-1.9l22.6-46.6
				C138.9,136.2,138.4,131.1,136.3,128.4z M96.3,148.1c-0.9,1.9-2.4,3-3.9,3c-1.2,0-2.4-0.7-3.3-1.8c-2.2-2.8-2.7-7.9-1.1-11.3
				c0.9-1.9,2.4-3,3.9-3c1.2,0,2.4,0.7,3.3,1.8C97.5,139.5,98,144.6,96.3,148.1z M102.3,109.1c0.2-0.8,0.4-1.6,0.7-2.3
				c0-0.1,0.1-0.2,0.1-0.3c0.9-1.8,2.3-2.8,3.8-2.8c0.8,0,1.6,0.3,2.3,0.9c0.4,0.3,0.7,0.6,1,1c0.2,0.2,0.4,0.5,0.5,0.8
				c0.4,0.6,0.7,1.3,0.9,2c0.9,2.7,0.8,6.1-0.4,8.6c-0.9,1.9-2.4,3-3.9,3c-1.2,0-2.4-0.7-3.3-1.8c-1.4-1.7-2-4.2-2-6.7
				C102.1,110.7,102.1,109.9,102.3,109.1z M104.9,134c0.9-1.9,2.4-3,3.9-3c1.2,0,2.4,0.7,3.3,1.8c2.2,2.8,2.7,7.9,1.1,11.3
				c-0.9,1.9-2.4,3-3.9,3c-1.2,0-2.4-0.7-3.3-1.8C103.7,142.6,103.2,137.5,104.9,134z M115,171.4c-0.9,1.9-2.4,3-3.9,3
				c-1.2,0-2.4-0.7-3.3-1.8c-2.2-2.8-2.7-7.9-1.1-11.3c0.9-1.9,2.4-3,3.9-3c1.2,0,2.4,0.7,3.3,1.8C116.2,162.9,116.7,168,115,171.4z
				 M130.1,140.3c-0.9,1.9-2.4,3-3.9,3c-1.2,0-2.4-0.7-3.3-1.9c-2.2-2.8-2.7-7.9-1.1-11.3c0.9-1.9,2.4-3,3.9-3
				c1.2,0,2.4,0.7,3.3,1.8C131.3,131.8,131.7,136.9,130.1,140.3z"/>
			<path style="fill:#FFFFFF;" d="M198.3,136.2c-0.4-0.7-1.4-1-2.6-1l0,0l-45.1,0.2c-3.4,0-7.7,2.7-9.2,5.8l-22.6,46.6
				c-0.6,1.1-0.6,2.2-0.2,2.8c0.4,0.7,1.4,1,2.6,1l0,0l45.1-0.1c3.4,0,7.7-2.7,9.2-5.8l22.6-46.6c0.1-0.3,0.2-0.6,0.3-0.9
				C198.6,137.4,198.6,136.7,198.3,136.2z M143.5,179.4c-1.7,3.4-5.9,6.2-9.5,6.2s-5.2-2.8-3.5-6.3c1.7-3.4,5.9-6.2,9.5-6.2
				C143.6,173.1,145.1,175.9,143.5,179.4z M151.1,163.6c-1.7,3.4-5.9,6.2-9.5,6.2s-5.2-2.8-3.5-6.3c1.7-3.4,5.9-6.2,9.5-6.1
				C151.2,157.4,152.7,160.2,151.1,163.6z M149.2,154.1c-3.6,0-5.2-2.8-3.5-6.3c1.7-3.4,5.9-6.2,9.5-6.1c3.6,0,5.2,2.8,3.5,6.3
				C157,151.4,152.8,154.1,149.2,154.1z M172.1,179.6c-1.7,3.4-5.9,6.2-9.5,6.1c-3.6,0-5.2-2.8-3.5-6.3c1.7-3.4,5.9-6.2,9.5-6.2
				C172.2,173.4,173.7,176.2,172.1,179.6z M179.7,163.9c-1.7,3.4-5.9,6.2-9.5,6.2s-5.2-2.8-3.5-6.3c1.7-3.4,5.9-6.2,9.5-6.1
				C179.8,157.7,181.4,160.5,179.7,163.9z M187.3,148.2c-1.7,3.4-5.9,6.2-9.5,6.1c-3.6,0-5.2-2.8-3.5-6.3c1.7-3.4,5.9-6.2,9.5-6.1
				C187.4,141.9,189,144.7,187.3,148.2z"/>
			<path style="fill:#FFFFFF;" d="M153.2,124.5L153.2,124.5L153.2,124.5z"/>
			<path style="fill:#FFFFFF;" d="M121.1,87.6h-2.2h-5.7c-0.3,0-0.7,0-1.1,0.1c-0.6,0.1-1,0.3-1.1,0.5s0,1,0.9,2.1l5.4,6.9l1.5,2
				l1.5,1.9l19.4,24.7c2.2,2.8,7.3,5.3,10.9,5.3l0,0l45.1-0.2c1.4,0,2-0.4,2.1-0.6c0.1-0.2,0-0.6-0.3-1.2c-0.2-0.3-0.4-0.6-0.6-0.9
				l-27.8-35.5c-2.2-2.9-7.2-5.3-10.9-5.3l-35,0.1L121.1,87.6z M170.9,116.6c0.5-1,1.7-1.6,3.5-1.6c3.6,0,8.2,2.2,10.3,5
				c1.1,1.4,1.4,2.7,0.9,3.7s-1.7,1.6-3.5,1.6l0,0c-3.5,0-8.1-2.2-10.3-5C170.7,118.9,170.4,117.6,170.9,116.6z M152.5,94.3
				c0.5-1,1.7-1.6,3.5-1.6c3.6,0,8.2,2.2,10.3,5c1.1,1.4,1.4,2.7,0.9,3.7s-1.7,1.6-3.5,1.6l0,0c-3.5,0-8.1-2.2-10.3-5
				C152.4,96.6,152.1,95.3,152.5,94.3z M142,116c0.5-1,1.7-1.6,3.5-1.6c3.6,0,8.2,2.2,10.3,5c1.1,1.4,1.4,2.7,0.9,3.7
				s-1.7,1.6-3.5,1.6l0,0c-3.5,0-8.1-2.2-10.3-5C141.9,118.3,141.5,117,142,116z M123.7,93.7c0.5-1,1.7-1.6,3.5-1.6l0,0
				c3.5,0,8.1,2.2,10.3,5c1.1,1.4,1.4,2.7,0.9,3.7s-1.7,1.6-3.5,1.6l0,0c-3.5,0-8.1-2.2-10.3-5C123.5,96,123.2,94.7,123.7,93.7z"/>
		</g>
	</g>
</g>
<g>
	<g>
		<path style="fill:#FFFFFF;" d="M218.8,118.6L254,79.4h-25.8l3.9-18.2h58.1l-3.7,17L250.6,118H278l-3.9,18.2h-59L218.8,118.6z"/>
		<path style="fill:#FFFFFF;" d="M315.2,61.2h35.4l4.8,74.9h-24.5l-0.3-11.2h-21.7l-5,11.2h-25.4L315.2,61.2z M330,107.5l-0.7-25.8
			h-1l-11.7,25.8H330z"/>
		<path style="fill:#FFFFFF;" d="M376.2,61.2h37.3c16.6,0,21.3,4.8,21.3,14.5c0,3.3-0.5,7.2-1.5,11.7c-2.2,9.7-3.6,16.8-13.1,20.8
			l4.2,28h-25.6l-2.2-24.9h-2H391l-5.3,24.9h-25.4L376.2,61.2z M399.2,94.3c6.2,0,7.2-0.3,8.7-7.6c0.4-2.2,0.8-3.8,0.8-4.9
			c0-2.4-1.4-2.8-6.3-2.8h-4.5l-3.3,15.4H399.2z"/>
		<path style="fill:#FFFFFF;" d="M447.4,61.2h25.5L461.1,117h25.1l-4.1,19.2h-50.4L447.4,61.2z"/>
		<path style="fill:#FFFFFF;" d="M504.2,61.2h25.5l-16,74.9h-25.4L504.2,61.2z"/>
		<path style="fill:#FFFFFF;" d="M554.4,135.1l3.5-17.3c7.8,0.7,15.9,1.1,20.8,1.1c5.8,0,8.4-0.1,9.7-0.9c1.2-0.8,2.2-3.3,2.2-5.9
			c0-2.5-2-2.4-8.9-3.6l-12.3-2.1c-5.8-1-7.8-4.9-7.8-11.7c0-3.5,0.5-7.6,1.5-12.3c4.2-19.1,15.8-22.1,34.5-22.1
			c9.1,0,19.7,1,25.3,2.3l-3.7,17.1c-5.3-0.7-14.3-1.2-21.2-1.2c-4.1,0-6.2,0.2-7.5,1.2c-1.5,1.1-2.1,3-2.1,5.2
			c0,1.7,1.2,2.1,5.3,2.7l11.1,1.9c6.2,1,12.6,2.8,12.6,13.6c0,2.6-0.3,6-1.2,10c-4.9,21.6-15,23.9-33.2,23.9
			C573.5,137,561.4,136.1,554.4,135.1z"/>
		<path style="fill:#FFFFFF;" d="M635.4,61.2h25.5L649.1,117h25.1l-4.1,19.2h-50.4L635.4,61.2z"/>
		<path style="fill:#FFFFFF;" d="M680.1,120.2c0-5.6,1.7-13,3.6-22.7c5.8-30.3,8-37.3,39.2-37.3c23.2,0,30.2,4.4,30.2,16.9
			c0,5.7-1.3,13-3.5,22.5c-7,30.5-8.1,37.3-39,37.3C687.2,137,680.1,132.7,680.1,120.2z M724.3,98.7c1.7-8.3,2.7-13.3,2.7-16.1
			c0-3.9-1.9-4-6.2-4c-7.6,0-7.7,0.4-11.9,20.2c-1.9,8.6-2.9,13.5-2.9,16.3c0,3.7,1.9,3.8,6.2,3.8
			C719.9,118.8,720.1,118.4,724.3,98.7z"/>
		<path style="fill:#FFFFFF;" d="M777.1,80.4h-18.3l4.1-19.2h62.2L821,80.4h-18.4l-11.9,55.8h-25.5L777.1,80.4z"/>
		<path style="fill:#FFFFFF;" d="M830.7,61.2h25.5L844.3,117h25.1l-4.1,19.2h-50.4L830.7,61.2z"/>
		<path style="fill:#FFFFFF;" d="M902.4,61.2h35.4l4.8,74.9h-24.5l-0.3-11.2h-21.7l-5,11.2h-25.4L902.4,61.2z M917.2,107.5
			l-0.7-25.8h-1l-11.7,25.8H917.2z"/>
		<path style="fill:#FFFFFF;" d="M963.4,61.2h37.3c16.6,0,21.3,4.8,21.3,14.5c0,3.3-0.5,7.2-1.5,11.7c-2.2,9.7-3.6,16.8-13.1,20.8
			l4.2,28h-25.6l-2.2-24.9h-2h-3.7l-5.3,24.9h-25.4L963.4,61.2z M986.4,94.3c6.2,0,7.2-0.3,8.7-7.6c0.4-2.2,0.8-3.8,0.8-4.9
			c0-2.4-1.4-2.8-6.3-2.8h-4.5l-3.3,15.4H986.4z"/>
	</g>
</g>
</svg>
