<?xml version="1.0" encoding="utf-8"?>
<!-- Generator: Adobe Illustrator 24.3.0, SVG Export Plug-In . SVG Version: 6.00 Build 0)  -->
<svg version="1.1" id="Layer_1" xmlns="http://www.w3.org/2000/svg" xmlns:xlink="http://www.w3.org/1999/xlink" x="0px" y="0px"
	 viewBox="0 0 1110.8 163.2" style="enable-background:new 0 0 1110.8 163.2;" xml:space="preserve">
<g>
	<path style="fill:#FFFFFF;" d="M84.9,68c-1.7,5.5-5,10.1-10,13.4c5,3.3,8.3,7.9,10,13.5c1.7-5.6,5-10.2,10-13.5
		C89.9,78.1,86.7,73.5,84.9,68z"/>
	<path style="fill:#FFFFFF;" d="M133.5,76.7c0.1-0.5,0.2-1,0.2-1.5c0-3.3-2.8-6.1-6.1-6.1c-3.4,0-6.1,2.8-6.1,6.1
		c0,0.5,0.1,1,0.2,1.5c-3.4,0-6.1,2.7-6.1,6c0,3.4,2.8,6.1,6.1,6.1c2.1,0,4-1,5.1-2.7v0.6c-1,2.6-2.5,5-4.6,6.9c3.7,0,7.3,0,11,0
		c-2.2-1.9-3.8-4.2-4.7-6.9v-0.6c1.1,1.7,3,2.7,5.1,2.7c3.4,0,6.1-2.7,6.1-6.1C139.6,79.4,136.9,76.7,133.5,76.7z"/>
	<path style="fill:#FFFFFF;" d="M216.5,1.3H81.2C37,1.3,1,37.3,1,81.4c0,44.2,36.1,80.2,80.2,80.2h135.3c44.2,0,80.2-36.1,80.2-80.2
		C296.8,37.3,260.6,1.3,216.5,1.3z M231.6,5.6c1.7,0.3,3.3,0.8,4.9,1.2v14.8c-1.6-0.5-3.2-1-4.9-1.4V5.6z M145.9,4.1h4.8v14.1h-4.8
		V4.1z M61.3,6.7c1.6-0.4,3.2-0.8,4.9-1.2v14.5c-1.7,0.4-3.3,0.9-4.9,1.4V6.7z M66.2,157.3c-1.7-0.3-3.3-0.7-4.9-1.2v-14.8
		c1.6,0.5,3.2,1,4.9,1.4V157.3z M150.8,158.8h-4.8v-14.2h4.8V158.8z M236.4,156.1c-1.6,0.5-3.2,0.8-4.9,1.2v-14.5
		c1.7-0.4,3.3-0.9,4.9-1.4V156.1z M216.5,141.7H81.2c-33.2,0-60.3-27.1-60.3-60.3S48,21.1,81.2,21.1h135.3
		c33.2,0,60.3,27.1,60.3,60.3C276.8,114.6,249.6,141.7,216.5,141.7z"/>
	<path style="fill:#FFFFFF;" d="M216.5,26.1H81.2c-30.4,0-55.4,24.9-55.4,55.3s24.9,55.4,55.4,55.4h135.3
		c30.4,0,55.4-24.9,55.4-55.4S246.9,26.1,216.5,26.1z M103.8,105.7c0,1.5-1.2,2.7-2.8,2.7H68.8c-1.5,0-2.7-1.2-2.7-2.7V57.2
		c0-1.5,1.2-2.8,2.7-2.8H101c1.5,0,2.8,1.2,2.8,2.8V105.7z M146.5,105.7c0,1.5-1.3,2.7-2.8,2.7h-32.3c-1.5,0-2.8-1.2-2.8-2.7V57.2
		c0-1.5,1.3-2.8,2.8-2.8h32.2c1.5,0,2.8,1.2,2.8,2.8L146.5,105.7L146.5,105.7z M189.1,105.7c0,1.5-1.3,2.7-2.8,2.7h-32.2
		c-1.5,0-2.8-1.2-2.8-2.7V57.2c0-1.5,1.3-2.8,2.8-2.8h32.2c1.5,0,2.8,1.2,2.8,2.8V105.7L189.1,105.7z M231.6,105.7
		c0,1.5-1.2,2.7-2.7,2.7h-32.2c-1.5,0-2.8-1.2-2.8-2.7V57.2c0-1.5,1.3-2.8,2.8-2.8h32.2c1.5,0,2.7,1.2,2.7,2.8V105.7z"/>
	<path style="fill:#FFFFFF;" d="M212.8,67.6c-6.3,5.8-12.6,11.4-12.6,17.2c0,3.2,2.8,5.8,6.4,5.8c2.7,0,4.2-1.1,5.7-3.3
		c-1,3-2.6,5.7-5,7.8c3.8,0,7.6,0,11.4,0c-2.4-2.1-4.1-4.8-5.1-7.8c1.4,2.2,3,3.3,5.7,3.3c3.5,0,6.4-2.6,6.4-5.8
		C225.5,79.1,219.2,73.4,212.8,67.6z"/>
	<path style="fill:#FFFFFF;" d="M175.6,71.2c-2.8,0-4.2,1.3-5.5,3.8c-1.4-2.6-2.7-3.8-5.5-3.8c-3,0-5.5,2.3-5.5,5.1
		c0,5.1,5.5,10.2,11,15.4c5.5-5.1,11-10.3,11-15.4C181.2,73.5,178.7,71.2,175.6,71.2z"/>
</g>
<g>
	<path style="fill:#FFFFFF;" d="M395.7,113.7c0,2.1-0.7,3.1-2.9,3.1h-10.1c-2.2,0-2.9-1-2.9-3.1V67.3c-0.1,0.4-2.3,7.8-3.5,11.1
		l-9.3,22.7c-0.9,2-2,3.1-4,3.1h-8.7c-2.1,0-3.2-1.2-3.9-3.1l-10.4-24.6c-1.2-2.6-2.7-8.2-2.8-9v46.2c0,2.1-0.7,3.1-2.9,3.1h-9.7
		c-2.2,0-2.9-1-2.9-3.1v-77c0-2.1,0.7-3.1,2.9-3.1h9.7c1.6,0,2.2,0.6,2.7,1.7L355.5,78c1.5,3.3,3.1,8.6,3.1,8.6s1.6-4.8,3.2-8.4
		l18.1-43c0.5-1.1,1.3-1.5,2.8-1.5h10.1c2.2,0,2.9,1,2.9,3.1V113.7z"/>
	<path style="fill:#FFFFFF;" d="M440.2,33.7c2.2,0,3.3,1,3.9,3.1l22.7,77c0.6,2-0.1,3.1-2.2,3.1h-11c-2.1,0-2.9-1.1-3.5-3.1
		l-4.3-14.9h-22.7l-4.3,14.9c-0.6,2-1.5,3.1-3.7,3.1h-9.9c-2.2,0-2.9-1.1-2.3-3.1l22.9-77c0.6-2.1,1.6-3.1,3.8-3.1H440.2z
		 M438.1,72.2c-1.6-5-3.4-20.7-3.5-22.3c-0.2,1.6-2.3,17-3.8,22.1l-4.2,13.7h15.5L438.1,72.2z"/>
	<path style="fill:#FFFFFF;" d="M511,54.8c0-6-4-8.8-11.9-8.8c-7.9,0-12,2.8-12,8.8v1.8c0,4.3,3.1,5.9,5,6.6l21.3,7.6
		c8.3,2.9,14.4,8.6,14.4,17.6v9.4c0,10.3-7.2,19.9-29.1,19.9c-21.8,0-29.2-9.7-29.2-19.9v-7.7c0-2.2,0.9-3.2,2.9-3.2h10.3
		c2.2,0,2.9,1,2.9,3.2v5.5c0,6,4.6,8.8,13,8.8c8.2,0,13-2.8,13-8.8v-3.9c0-5-4.9-7-10.4-9l-18.9-7.1c-5.9-2.2-11.1-8.4-11.1-15.8
		v-7.2c0-10.3,6.4-19.9,27.8-19.9c21.4,0,28.2,9.7,28.2,19.9v5c0,2.1-0.9,3.1-3.1,3.1h-10.3c-2.1,0-2.8-1-2.8-3.1V54.8z"/>
	<path style="fill:#FFFFFF;" d="M569.4,33.7c2.2,0,3.3,1,3.9,3.1l22.7,77c0.6,2-0.1,3.1-2.2,3.1h-11c-2.1,0-2.9-1.1-3.5-3.1
		l-4.3-14.9h-22.7l-4.3,14.9c-0.6,2-1.5,3.1-3.7,3.1h-9.9c-2.2,0-2.9-1.1-2.3-3.1l22.9-77c0.6-2.1,1.6-3.1,3.8-3.1H569.4z
		 M567.4,72.2c-1.6-5-3.4-20.7-3.5-22.3c-0.2,1.6-2.3,17-3.8,22.1l-4.2,13.7h15.5L567.4,72.2z"/>
	<path style="fill:#FFFFFF;" d="M622.7,52.6c0-10.3,7.6-19.9,29.7-19.9s29.7,9.7,29.7,19.9v45.2c0,10.3-7.6,19.9-29.7,19.9
		s-29.7-9.7-29.7-19.9V52.6z M665.7,55.5c0-6.1-5-9.2-13.2-9.2c-8.2,0-13.1,3.1-13.1,9.2v39.4c0,6.1,4.9,9.2,13.1,9.2
		c8.2,0,13.2-3.1,13.2-9.2V55.5z"/>
	<path style="fill:#FFFFFF;" d="M715.8,64.6c0.7,2,2,6,2.1,6.5c0.1-0.5,1.2-4.5,2.2-6.5l13-27.9c0.7-1.7,1.5-3.1,3.5-3.1h10.5
		c2.1,0,3.2,1.1,2.2,3.1L726.2,85v28.7c0,2.1-0.7,3.1-2.9,3.1h-10.6c-2.2,0-3.1-1-3.1-3.1V87l-23.2-50.2c-0.9-1.8,0-3.1,2.1-3.1
		h12.1c2.1,0,2.9,1.2,3.7,3.1L715.8,64.6z"/>
	<path style="fill:#FFFFFF;" d="M772.5,94.9c0,6.1,4.9,9.2,13.1,9.2c8.2,0,13.3-3.1,13.3-9.2V36.8c0-2.2,0.7-3.2,2.9-3.2h10.6
		c2.2,0,2.8,1,2.8,3.2v61c0,10.3-7.6,19.9-29.7,19.9c-22.1,0-29.7-9.7-29.7-19.9v-61c0-2.2,0.9-3.2,3.1-3.2h10.6
		c2.1,0,2.9,1,2.9,3.2V94.9z"/>
	<path style="fill:#FFFFFF;" d="M888.2,113.7c0,2.1-0.7,3.1-2.9,3.1h-9.7c-1.6,0-2.2-0.4-2.8-1.5l-23.6-40.5
		c-3.3-5.5-4.8-9.5-4.9-9.9v48.8c0,2.1-0.7,3.1-2.9,3.1h-9.7c-2.2,0-2.9-1-2.9-3.1v-77c0-2.1,0.7-3.1,2.9-3.1h9.7
		c1.3,0,2.1,0.4,2.6,1.2l24.6,42.2c2.1,3.5,4.2,8.6,4.2,8.6V36.7c0-2.1,0.7-3.1,2.9-3.1h9.7c2.2,0,2.9,1,2.9,3.1V113.7z"/>
	<path style="fill:#FFFFFF;" d="M918.6,103.1h27.3c2.1,0,3.1,0.7,3.1,2.9v7.7c0,2.2-1,3.1-3.1,3.1h-41.2c-1.8,0-2.6-1.1-2.6-3.2
		V36.8c0-2.2,0.7-3.2,2.9-3.2h10.6c2.2,0,2.9,1,2.9,3.2V103.1z"/>
	<path style="fill:#FFFFFF;" d="M987.9,33.7c2.2,0,3.3,1,3.9,3.1l22.7,77c0.6,2-0.1,3.1-2.2,3.1h-11c-2.1,0-2.9-1.1-3.5-3.1
		l-4.3-14.9h-22.7l-4.3,14.9c-0.6,2-1.5,3.1-3.7,3.1H953c-2.2,0-2.9-1.1-2.3-3.1l22.9-77c0.6-2.1,1.6-3.1,3.8-3.1H987.9z
		 M985.8,72.2c-1.6-5-3.4-20.7-3.5-22.3c-0.2,1.6-2.3,17-3.8,22.1l-4.2,13.7h15.5L985.8,72.2z"/>
	<path style="fill:#FFFFFF;" d="M1038.4,85.1v28.5c0,2.2-0.7,3.2-2.9,3.2h-10.6c-2.2,0-2.9-1-2.9-3.2V36.8c0-2.2,0.7-3.2,2.9-3.2
		h25.7c22.1,0,29.6,9.7,29.6,19.9v11.6c0,7.2-3.7,14.1-13.4,17.6l13.2,30.8c0.9,2-0.6,3.2-2.8,3.2h-10.8c-1.7,0-2.2-1.2-3.1-3.2
		l-12-28.5h-0.7H1038.4z M1038.4,47.4v24.1h12.1c8.2,0,13.2-3.1,13.2-9.2v-5.7c0-6.1-5-9.2-13.2-9.2H1038.4z"/>
	<path style="fill:#FFFFFF;" d="M1108.7,113.6c0,2.2-0.7,3.2-2.9,3.2h-10.6c-2.2,0-2.9-1-2.9-3.2V36.8c0-2.2,0.7-3.2,2.9-3.2h10.6
		c2.2,0,2.9,1,2.9,3.2V113.6z"/>
</g>
</svg>
