<?xml version="1.0" encoding="utf-8"?>
<!-- Generator: Adobe Illustrator 26.1.0, SVG Export Plug-In . SVG Version: 6.00 Build 0)  -->
<svg version="1.1" id="Layer_1" xmlns="http://www.w3.org/2000/svg" xmlns:xlink="http://www.w3.org/1999/xlink" x="0px" y="0px"
	 viewBox="0 0 1056.6 202" style="enable-background:new 0 0 1056.6 202;" xml:space="preserve">
<g id="Livello_1_1_">
</g>
<g id="Layer_1_00000121280000816817959920000000882230360127541942_">
</g>
<g>
	<path style="fill-rule:evenodd;clip-rule:evenodd;fill:#FFFFFF;stroke:#000000;stroke-width:2.2253;stroke-miterlimit:3.86;" d="
		M217.6,190.1c-3.2,1.3-9.5,1.3-12.7,0L23.8,115.5c-15-6.1-14.9-24.8,0.1-30.9L205,11c3.2-1.3,9.4-1.3,12.6,0l181,73.6
		c15,6.1,15,24.8,0.1,30.9L217.6,190.1z"/>
	<path style="fill-rule:evenodd;clip-rule:evenodd;fill:#FFFFFF;stroke:#000000;stroke-width:5.7232;stroke-miterlimit:3.86;" d="
		M217.6,190.1c-3.2,1.3-9.5,1.3-12.7,0L23.8,115.5c-15-6.1-14.9-24.8,0.1-30.9L205,11c3.2-1.3,9.4-1.3,12.6,0l181,73.6
		c15,6.1,15,24.8,0.1,30.9L217.6,190.1z"/>
	<g>
		
			<linearGradient id="SVGID_1_" gradientUnits="userSpaceOnUse" x1="349.9554" y1="196.788" x2="72.5387" y2="9.6673" gradientTransform="matrix(1 0 0 -1 0 203.2756)">
			<stop  offset="0" style="stop-color:#FFFFFF"/>
			<stop  offset="6.000000e-02" style="stop-color:#E2F4FD"/>
			<stop  offset="0.13" style="stop-color:#E2F4FD"/>
			<stop  offset="0.28" style="stop-color:#F6FBFD"/>
			<stop  offset="0.37" style="stop-color:#A7DCDB"/>
			<stop  offset="0.44" style="stop-color:#F2FAFE"/>
			<stop  offset="0.64" style="stop-color:#E2F4FD"/>
			<stop  offset="0.79" style="stop-color:#EFF9FE"/>
			<stop  offset="0.9" style="stop-color:#A7DCDB"/>
			<stop  offset="1" style="stop-color:#FFFFFF"/>
		</linearGradient>
		<path style="fill-rule:evenodd;clip-rule:evenodd;fill:url(#SVGID_1_);" d="M217.6,190.1c-3.2,1.3-9.5,1.3-12.7,0L23.8,115.5
			c-15-6.1-14.9-24.8,0.1-30.9L205,11c3.2-1.3,9.4-1.3,12.6,0l181,73.6c15,6.1,15,24.8,0.1,30.9L217.6,190.1z"/>
		
			<linearGradient id="SVGID_00000114038754906047514370000001728065027024158345_" gradientUnits="userSpaceOnUse" x1="145.2344" y1="8.9375" x2="277.2628" y2="197.4886" gradientTransform="matrix(1 0 0 -1 0 203.2756)">
			<stop  offset="0" style="stop-color:#FFFFFF"/>
			<stop  offset="6.000000e-02" style="stop-color:#E2F4FD"/>
			<stop  offset="0.13" style="stop-color:#E2F4FD"/>
			<stop  offset="0.28" style="stop-color:#F6FBFD"/>
			<stop  offset="0.37" style="stop-color:#A7DCDB"/>
			<stop  offset="0.44" style="stop-color:#F2FAFE"/>
			<stop  offset="0.64" style="stop-color:#E2F4FD"/>
			<stop  offset="0.79" style="stop-color:#EFF9FE"/>
			<stop  offset="0.9" style="stop-color:#A7DCDB"/>
			<stop  offset="1" style="stop-color:#FFFFFF"/>
		</linearGradient>
		<path style="fill-rule:evenodd;clip-rule:evenodd;fill:url(#SVGID_00000114038754906047514370000001728065027024158345_);" d="
			M396.6,110.4l-181.1,74.6c-1.9,0.8-6.6,0.8-8.5,0L26,110.4c-10.4-4.3-10.3-16.4,0-20.6l181.1-73.6c1.8-0.7,6.5-0.7,8.4,0l181,73.6
			C406.9,94,406.9,106.1,396.6,110.4z"/>
		<path style="fill-rule:evenodd;clip-rule:evenodd;fill:#FFFFFF;" d="M394.3,104.8l-181.1,74.6c-0.4,0.2-3.5,0.2-3.9,0L28.2,104.8
			c-5.4-2.2-5.4-7.3,0-9.5l181-73.6c0.4-0.1,3.5-0.1,3.9,0l181.1,73.6C399.7,97.5,399.7,102.6,394.3,104.8z"/>
	</g>
	<polygon style="fill:none;stroke:#000000;stroke-width:11.1264;stroke-linecap:round;stroke-linejoin:round;" points="211.3,26.5 
		30.2,100.1 211.3,174.7 392.3,100.1 	"/>
	<polygon style="fill:none;stroke:#FFF000;stroke-width:8.3457;stroke-linecap:round;stroke-linejoin:round;" points="211.3,26.5 
		30.2,100.1 211.3,174.7 392.3,100.1 	"/>
	<g>
		<g>
			<defs>
				<polygon id="SVGID_00000018198697493647394260000015463326082021112970_" points="211.3,26.5 30.2,100.1 211.3,174.7 
					392.3,100.1 				"/>
			</defs>
			<clipPath id="SVGID_00000171721803022958231830000013219952469106929083_">
				<use xlink:href="#SVGID_00000018198697493647394260000015463326082021112970_"  style="overflow:visible;"/>
			</clipPath>
			<g style="clip-path:url(#SVGID_00000171721803022958231830000013219952469106929083_);">
				<g>
					<polygon style="fill-rule:evenodd;clip-rule:evenodd;fill:#30368F;" points="211.3,26.5 392.3,100.1 211.3,174.7 30.2,100.1 
											"/>
					<polygon style="fill-rule:evenodd;clip-rule:evenodd;fill:#2C3A92;" points="32,100.1 211.3,27.2 390.5,100.1 211.3,173.9 
											"/>
					<polygon style="fill-rule:evenodd;clip-rule:evenodd;fill:#224195;" points="33.9,100.1 211.3,28 388.7,100.1 211.3,173.2 
											"/>
					<polygon style="fill-rule:evenodd;clip-rule:evenodd;fill:#1F4698;" points="35.7,100.1 211.3,28.7 386.8,100.1 211.3,172.4 
											"/>
					<polygon style="fill-rule:evenodd;clip-rule:evenodd;fill:#194A9B;" points="37.5,100.1 211.3,29.4 385,100.1 211.3,171.6 
											"/>
					<polygon style="fill-rule:evenodd;clip-rule:evenodd;fill:#07509F;" points="39.4,100.1 211.3,30.2 383.1,100.1 211.3,170.9 
											"/>
					<polygon style="fill-rule:evenodd;clip-rule:evenodd;fill:#0054A2;" points="41.2,100.1 211.3,31 381.3,100.1 211.3,170.1 
											"/>
					<polygon style="fill-rule:evenodd;clip-rule:evenodd;fill:#0059A6;" points="43.1,100.1 211.3,31.7 379.5,100.1 211.3,169.4 
											"/>
					<polygon style="fill-rule:evenodd;clip-rule:evenodd;fill:#005FA9;" points="44.9,100.1 211.3,32.5 377.6,100.1 211.3,168.6 
											"/>
					<polygon style="fill-rule:evenodd;clip-rule:evenodd;fill:#0062AC;" points="46.7,100.1 211.3,33.2 375.8,100.1 211.3,167.9 
											"/>
					<polygon style="fill-rule:evenodd;clip-rule:evenodd;fill:#0066AF;" points="48.5,100.1 211.3,34 373.9,100.1 211.3,167.1 
											"/>
					<polygon style="fill-rule:evenodd;clip-rule:evenodd;fill:#006BB3;" points="50.4,100.1 211.3,34.7 372.1,100.1 211.3,166.4 
											"/>
					<polygon style="fill-rule:evenodd;clip-rule:evenodd;fill:#006FB6;" points="52.2,100.1 211.3,35.5 370.3,100.1 211.3,165.6 
											"/>
					<polygon style="fill-rule:evenodd;clip-rule:evenodd;fill:#0073BA;" points="54.1,100.1 211.3,36.2 368.4,100.1 211.3,164.9 
											"/>
					<polygon style="fill-rule:evenodd;clip-rule:evenodd;fill:#0078BE;" points="55.9,100.1 211.3,36.9 366.6,100.1 211.3,164.1 
											"/>
					<polygon style="fill-rule:evenodd;clip-rule:evenodd;fill:#007CC0;" points="57.7,100.1 211.3,37.7 364.8,100.1 211.3,163.4 
											"/>
					<polygon style="fill-rule:evenodd;clip-rule:evenodd;fill:#0081C4;" points="59.6,100.1 211.3,38.5 363,100.1 211.3,162.6 
											"/>
					<polygon style="fill-rule:evenodd;clip-rule:evenodd;fill:#0084C8;" points="61.4,100.1 211.3,39.2 361.1,100.1 211.3,161.9 
											"/>
					<polygon style="fill-rule:evenodd;clip-rule:evenodd;fill:#0089CE;" points="63.3,100.1 211.3,40 359.3,100.1 211.3,161.1 
											"/>
					<polygon style="fill-rule:evenodd;clip-rule:evenodd;fill:#008DD2;" points="65.1,100.1 211.3,40.7 357.4,100.1 211.3,160.4 
											"/>
					<polygon style="fill-rule:evenodd;clip-rule:evenodd;fill:#0092D6;" points="66.9,100.1 211.3,41.5 355.6,100.1 211.3,159.6 
											"/>
					<polygon style="fill-rule:evenodd;clip-rule:evenodd;fill:#0096D9;" points="68.8,100.1 211.3,42.2 353.8,100.1 211.3,158.8 
											"/>
					<polygon style="fill-rule:evenodd;clip-rule:evenodd;fill:#009BDE;" points="351.9,100.1 211.3,158.1 70.6,100.1 211.3,43 
											"/>
				</g>
				<g>
					<polygon style="fill-rule:evenodd;clip-rule:evenodd;stroke:#000000;stroke-width:0.4892;stroke-miterlimit:3.86;" points="
						321.7,53.5 340.7,93.9 323.3,132.1 343.2,132.1 350.6,115.9 358.6,132.3 382.3,132.3 366.3,95.5 385.5,53.4 364.1,53.4 
						356.1,71.4 348,53.5 					"/>
					<polygon style="fill-rule:evenodd;clip-rule:evenodd;stroke:#000000;stroke-width:0.4892;stroke-miterlimit:3.86;" points="
						273.7,57.7 273.7,122.5 314.4,122.5 316.1,102.1 295.6,102.1 295.6,97.7 310.4,97.7 311.8,81.1 295.8,81.1 295.8,77 316.3,77 
						318.1,57.7 					"/>
					<polygon style="fill-rule:evenodd;clip-rule:evenodd;stroke:#000000;stroke-width:0.4892;stroke-miterlimit:3.86;" points="
						224.9,57.7 224.9,122.6 265.2,122.6 267.1,101.7 246.7,101.7 246.7,57.7 					"/>
					<polygon style="fill-rule:evenodd;clip-rule:evenodd;stroke:#000000;stroke-width:0.4892;stroke-miterlimit:3.86;" points="
						173.1,57.7 173.1,122.3 195.1,122.3 195.1,99.7 210.5,99.7 212,80.9 195.1,80.9 195.1,76.9 216.6,76.9 218.3,57.8 					"/>
					<polygon style="fill-rule:evenodd;clip-rule:evenodd;stroke:#000000;stroke-width:0.4892;stroke-miterlimit:3.86;" points="
						122.1,57.7 122.1,122.5 162.7,122.5 164.7,101.9 144.1,101.9 144.1,97.6 158.8,97.6 160.3,81.1 144.1,81.1 144.1,76.9 
						164.9,76.9 166.6,57.7 					"/>
					<path style="fill-rule:evenodd;clip-rule:evenodd;stroke:#000000;stroke-width:0.4892;stroke-miterlimit:3.86;" d="M61.4,56.2
						c-0.1,0.1,0,75,0,75h21.7v-24.6l1.9-0.2c0,0,4.6,6.5,7.3,24.7c0.1,0.4,23.1,0,23.1,0s-2.5-22.3-11-34.5
						c-0.1-0.1,15.4-12.7,6.6-34C111.1,62.6,101.9,41.8,61.4,56.2z"/>
				</g>
			</g>
		</g>
		<polygon style="fill:none;stroke:#000000;stroke-width:1.3903;stroke-miterlimit:3.86;" points="211.3,26.5 30.2,100.1 
			211.3,174.7 392.3,100.1 		"/>
	</g>
	<g>
		<path style="fill-rule:evenodd;clip-rule:evenodd;stroke:#000000;stroke-width:4.171;stroke-linejoin:round;" d="M145.7,134
			c-0.5-1.4-1.8-2.4-3.8-2.9c-1.2-0.3-2.5-0.5-3.7-0.4c-2.6,0-4.7,0.6-6.4,1.9c-1.7,1.3-2.5,3.1-2.5,5.6s0.9,4.3,2.7,5.3
			c1.9,1.1,4,1.6,6.2,1.6c2.2,0,4.1-0.4,5.6-1.3c1.4-0.8,2.4-1.9,2.7-3.3H139v-3.4h13.4v11H148l-0.7-2.6c-1.1,0.8-2.2,1.5-3.5,2.1
			c-1.8,0.7-4,1-6.6,1c-4.3,0-7.8-0.9-10.5-2.8s-4.3-4.5-4.3-7.8c0-3.3,1.4-6,4.3-8c2.9-2,6.7-3,11.4-3c4.1,0,7.4,0.7,9.9,2
			c2.5,1.3,3.9,2.9,4.3,4.9L145.7,134z"/>
		<path style="fill-rule:evenodd;clip-rule:evenodd;stroke:#000000;stroke-width:4.171;stroke-linejoin:round;" d="M167.8,140.3h8.2
			l-4-8.1L167.8,140.3z M168.2,127.6h7.6l11.4,20.5h-7.3l-2.1-4.2h-11.9l-2.2,4.2h-7L168.2,127.6z"/>
		<path style="fill-rule:evenodd;clip-rule:evenodd;stroke:#000000;stroke-width:4.171;stroke-linejoin:round;" d="M212.7,127.6h9.7
			v20.5h-6.3v-15.6c0-0.7,0-1.3,0-1.7l-6.1,17.2h-6.5l-6.1-17.2c0,0.4,0,0.9,0,1.7s0,1.3,0,1.7v13.9h-6.3v-20.5h9.8l5.9,16.1
			L212.7,127.6z"/>
		<rect x="228.2" y="127.6" style="stroke:#000000;stroke-width:4.171;stroke-linejoin:round;" width="6.7" height="20.5"/>
		<polygon style="fill-rule:evenodd;clip-rule:evenodd;stroke:#000000;stroke-width:4.171;stroke-linejoin:round;" points="
			241.1,127.6 248.1,127.6 261,141.9 261,127.6 267.3,127.6 267.3,148.1 260.5,148.1 247.3,133.5 247.3,148.1 241.1,148.1 		"/>
		<path style="fill-rule:evenodd;clip-rule:evenodd;stroke:#000000;stroke-width:4.171;stroke-linejoin:round;" d="M295.3,134
			c-0.5-1.4-1.8-2.4-3.8-2.9c-1.2-0.3-2.4-0.5-3.7-0.4c-2.6,0-4.7,0.6-6.4,1.9c-1.7,1.3-2.5,3.1-2.5,5.6s0.9,4.3,2.7,5.3
			c1.9,1.1,4,1.6,6.2,1.6c2.3,0,4.1-0.4,5.6-1.3c1.4-0.8,2.4-1.9,2.7-3.3h-7.5v-3.4H302v11h-4.5l-0.7-2.6c-1.1,0.8-2.3,1.5-3.5,2.1
			c-1.8,0.7-4,1-6.5,1c-4.3,0-7.8-0.9-10.5-2.8s-4.3-4.5-4.3-7.8s1.4-6,4.3-8c2.9-2,6.7-3,11.4-3c4.1,0,7.4,0.7,9.9,2
			c2.5,1.3,3.9,2.9,4.3,4.9L295.3,134z"/>
	</g>
	<g>
		<path style="fill-rule:evenodd;clip-rule:evenodd;stroke:#000000;stroke-width:4.171;stroke-linejoin:round;" d="M145.2,133
			c-0.5-1.4-1.8-2.4-3.8-2.9c-1.2-0.3-2.5-0.5-3.7-0.4c-2.6,0-4.7,0.6-6.4,1.9s-2.5,3.1-2.5,5.6s0.9,4.3,2.7,5.4
			c1.9,1,4,1.6,6.2,1.5c2.3,0,4.1-0.4,5.6-1.2s2.3-1.9,2.6-3.3h-7.5v-3.4H152v11h-4.5l-0.7-2.6c-1.1,0.9-2.2,1.6-3.5,2.1
			c-2.1,0.8-4.3,1.1-6.6,1.1c-4.3,0-7.8-1-10.5-2.8c-2.7-1.9-4.3-4.5-4.3-7.8s1.4-6,4.3-8c2.9-2,6.7-3,11.4-3c4.1,0,7.4,0.7,9.9,2
			c2.5,1.3,3.9,3,4.3,4.9H145.2z"/>
		<path style="fill-rule:evenodd;clip-rule:evenodd;stroke:#000000;stroke-width:4.171;stroke-linejoin:round;" d="M167.2,139.3h8.2
			l-4-8.1L167.2,139.3z M167.7,126.6h7.6l11.4,20.5h-7.3l-2.1-4.2h-11.9l-2.2,4.2h-7.1L167.7,126.6z"/>
		<path style="fill-rule:evenodd;clip-rule:evenodd;stroke:#000000;stroke-width:4.171;stroke-linejoin:round;" d="M212.2,126.6h9.7
			v20.5h-6.3v-13.9c0-0.4,0-1,0-1.7v-1.7l-6.1,17.2H203l-6.1-17.2c0,0.4,0,1,0,1.7v15.6h-6.3v-20.5h9.8l5.9,16.1L212.2,126.6z"/>
		<rect x="227.7" y="126.6" style="stroke:#000000;stroke-width:4.171;stroke-linejoin:round;" width="6.7" height="20.5"/>
		<polygon style="fill-rule:evenodd;clip-rule:evenodd;stroke:#000000;stroke-width:4.171;stroke-linejoin:round;" points="
			240.5,126.6 247.6,126.6 260.5,140.9 260.5,126.6 266.8,126.6 266.8,147.1 260,147.1 246.9,132.5 246.9,147.1 240.5,147.1 		"/>
		<path style="fill-rule:evenodd;clip-rule:evenodd;stroke:#000000;stroke-width:4.171;stroke-linejoin:round;" d="M294.8,133
			c-0.5-1.4-1.8-2.4-3.8-2.9c-1.2-0.3-2.5-0.5-3.7-0.4c-2.6,0-4.7,0.6-6.4,1.9c-1.7,1.3-2.5,3.1-2.5,5.6s0.9,4.3,2.7,5.4
			c1.9,1.1,4,1.6,6.2,1.5c2.2,0,4.1-0.4,5.6-1.2c1.4-0.8,2.4-1.9,2.7-3.3h-7.5v-3.4h13.4v11h-4.5l-0.7-2.6c-1.1,0.9-2.2,1.6-3.5,2.1
			c-1.8,0.7-4,1.1-6.6,1.1c-4.3,0-7.8-1-10.5-2.8c-2.8-1.9-4.3-4.5-4.3-7.8s1.4-6,4.3-8c2.9-2,6.7-3,11.4-3c4.1,0,7.4,0.7,9.9,2
			c2.5,1.3,3.9,3,4.3,4.9H294.8z"/>
	</g>
	<g>
		<path style="fill-rule:evenodd;clip-rule:evenodd;stroke:#000000;stroke-width:2.0855;stroke-linejoin:round;" d="M145.2,133
			c-0.5-1.4-1.8-2.4-3.8-2.9c-1.2-0.3-2.5-0.5-3.7-0.4c-2.6,0-4.7,0.6-6.4,1.9s-2.5,3.1-2.5,5.6s0.9,4.3,2.7,5.4
			c1.9,1,4,1.6,6.2,1.5c2.3,0,4.1-0.4,5.6-1.2s2.3-1.9,2.6-3.3h-7.5v-3.4H152v11h-4.5l-0.7-2.6c-1.1,0.9-2.2,1.6-3.5,2.1
			c-2.1,0.8-4.3,1.1-6.6,1.1c-4.3,0-7.8-1-10.5-2.8c-2.7-1.9-4.3-4.5-4.3-7.8s1.4-6,4.3-8c2.9-2,6.7-3,11.4-3c4.1,0,7.4,0.7,9.9,2
			c2.5,1.3,3.9,3,4.3,4.9H145.2z"/>
		<path style="fill-rule:evenodd;clip-rule:evenodd;stroke:#000000;stroke-width:2.0855;stroke-linejoin:round;" d="M167.2,139.3
			h8.2l-4-8.1L167.2,139.3z M167.7,126.6h7.6l11.4,20.5h-7.3l-2.1-4.2h-11.9l-2.2,4.2h-7.1L167.7,126.6z"/>
		<path style="fill-rule:evenodd;clip-rule:evenodd;stroke:#000000;stroke-width:2.0855;stroke-linejoin:round;" d="M212.2,126.6
			h9.7v20.5h-6.3v-13.9c0-0.4,0-1,0-1.7v-1.7l-6.1,17.2H203l-6.1-17.2c0,0.4,0,1,0,1.7v15.6h-6.3v-20.5h9.8l5.9,16.1L212.2,126.6z"
			/>
		<rect x="227.7" y="126.6" style="stroke:#000000;stroke-width:2.0855;stroke-linejoin:round;" width="6.7" height="20.5"/>
		<polygon style="fill-rule:evenodd;clip-rule:evenodd;stroke:#000000;stroke-width:2.0855;stroke-linejoin:round;" points="
			240.5,126.6 247.6,126.6 260.5,140.9 260.5,126.6 266.8,126.6 266.8,147.1 260,147.1 246.9,132.5 246.9,147.1 240.5,147.1 		"/>
		<path style="fill-rule:evenodd;clip-rule:evenodd;stroke:#000000;stroke-width:2.0855;stroke-linejoin:round;" d="M294.8,133
			c-0.5-1.4-1.8-2.4-3.8-2.9c-1.2-0.3-2.5-0.5-3.7-0.4c-2.6,0-4.7,0.6-6.4,1.9c-1.7,1.3-2.5,3.1-2.5,5.6s0.9,4.3,2.7,5.4
			c1.9,1.1,4,1.6,6.2,1.5c2.2,0,4.1-0.4,5.6-1.2c1.4-0.8,2.4-1.9,2.7-3.3h-7.5v-3.4h13.4v11h-4.5l-0.7-2.6c-1.1,0.9-2.2,1.6-3.5,2.1
			c-1.8,0.7-4,1.1-6.6,1.1c-4.3,0-7.8-1-10.5-2.8c-2.8-1.9-4.3-4.5-4.3-7.8s1.4-6,4.3-8c2.9-2,6.7-3,11.4-3c4.1,0,7.4,0.7,9.9,2
			c2.5,1.3,3.9,3,4.3,4.9H294.8z"/>
	</g>
	<g>
		<path style="fill-rule:evenodd;clip-rule:evenodd;fill:#FFF000;" d="M145.2,133c-0.5-1.4-1.8-2.4-3.8-2.9
			c-1.2-0.3-2.5-0.5-3.7-0.4c-2.6,0-4.7,0.6-6.4,1.9s-2.5,3.1-2.5,5.6s0.9,4.3,2.7,5.4c1.9,1,4,1.6,6.2,1.5c2.3,0,4.1-0.4,5.6-1.2
			s2.3-1.9,2.6-3.3h-7.5v-3.4H152v11h-4.5l-0.7-2.6c-1.1,0.9-2.2,1.6-3.5,2.1c-2.1,0.8-4.3,1.1-6.6,1.1c-4.3,0-7.8-1-10.5-2.8
			c-2.7-1.9-4.3-4.5-4.3-7.8s1.4-6,4.3-8c2.9-2,6.7-3,11.4-3c4.1,0,7.4,0.7,9.9,2c2.5,1.3,3.9,3,4.3,4.9H145.2z"/>
		<path style="fill-rule:evenodd;clip-rule:evenodd;fill:#FFF000;" d="M167.2,139.3h8.2l-4-8.1L167.2,139.3z M167.7,126.6h7.6
			l11.4,20.5h-7.3l-2.1-4.2h-11.9l-2.2,4.2h-7.1L167.7,126.6z"/>
		<path style="fill-rule:evenodd;clip-rule:evenodd;fill:#FFF000;" d="M212.2,126.6h9.7v20.5h-6.3v-13.9c0-0.4,0-1,0-1.7v-1.7
			l-6.1,17.2H203l-6.1-17.2c0,0.4,0,1,0,1.7v15.6h-6.3v-20.5h9.8l5.9,16.1L212.2,126.6z"/>
		<rect x="227.7" y="126.6" style="fill:#FFF000;" width="6.7" height="20.5"/>
		<polygon style="fill-rule:evenodd;clip-rule:evenodd;fill:#FFF000;" points="240.5,126.6 247.6,126.6 260.5,140.9 260.5,126.6 
			266.8,126.6 266.8,147.1 260,147.1 246.9,132.5 246.9,147.1 240.5,147.1 		"/>
		<path style="fill-rule:evenodd;clip-rule:evenodd;fill:#FFF000;" d="M294.8,133c-0.5-1.4-1.8-2.4-3.8-2.9
			c-1.2-0.3-2.5-0.5-3.7-0.4c-2.6,0-4.7,0.6-6.4,1.9c-1.7,1.3-2.5,3.1-2.5,5.6s0.9,4.3,2.7,5.4c1.9,1.1,4,1.6,6.2,1.5
			c2.2,0,4.1-0.4,5.6-1.2c1.4-0.8,2.4-1.9,2.7-3.3h-7.5v-3.4h13.4v11h-4.5l-0.7-2.6c-1.1,0.9-2.2,1.6-3.5,2.1
			c-1.8,0.7-4,1.1-6.6,1.1c-4.3,0-7.8-1-10.5-2.8c-2.8-1.9-4.3-4.5-4.3-7.8s1.4-6,4.3-8c2.9-2,6.7-3,11.4-3c4.1,0,7.4,0.7,9.9,2
			c2.5,1.3,3.9,3,4.3,4.9H294.8z"/>
	</g>
	<g>
		<polygon style="fill-rule:evenodd;clip-rule:evenodd;stroke:#000000;stroke-width:4.8699;stroke-linejoin:round;" points="
			317.3,47.3 336.3,87.7 318.8,124.9 338.7,124.9 346.1,108.7 354.1,125 377.8,125 361.9,89.3 381,47.2 359.6,47.2 351.7,65.2 
			343.5,47.3 		"/>
		<polygon style="fill-rule:evenodd;clip-rule:evenodd;stroke:#000000;stroke-width:4.8699;stroke-linejoin:round;" points="
			269.2,51.4 269.2,116.3 309.9,116.3 311.7,95.8 291.2,95.8 291.2,91.5 305.9,91.5 307.3,74.9 291.3,74.9 291.3,70.8 311.9,70.8 
			313.7,51.4 		"/>
		<polygon style="fill-rule:evenodd;clip-rule:evenodd;stroke:#000000;stroke-width:4.8699;stroke-linejoin:round;" points="
			220.5,51.4 220.5,116.3 260.8,116.3 262.6,95.4 242.3,95.4 242.3,51.4 		"/>
		<polygon style="fill-rule:evenodd;clip-rule:evenodd;stroke:#000000;stroke-width:4.8699;stroke-linejoin:round;" points="
			168.6,51.4 168.6,116.1 190.6,116.1 190.6,93.5 206,93.5 207.6,74.7 190.6,74.7 190.6,70.6 212.1,70.6 213.9,51.5 		"/>
		<polygon style="fill-rule:evenodd;clip-rule:evenodd;stroke:#000000;stroke-width:4.8699;stroke-linejoin:round;" points="
			117.6,51.4 117.6,116.3 158.3,116.3 160.2,95.7 139.6,95.7 139.6,91.4 154.4,91.4 155.8,74.9 139.6,74.9 139.6,70.6 160.5,70.6 
			162.1,51.4 		"/>
		<path style="fill-rule:evenodd;clip-rule:evenodd;stroke:#000000;stroke-width:4.8699;stroke-linejoin:round;" d="M78.7,67.6
			c0,0,7.9-3.3,7.9,3.5c0,0-0.1,7.6-7.8,7.6L78.7,67.6z M56.9,50c-0.1,0,0,75,0,75h21.7v-24.6l1.9-0.2c0,0,4.6,6.5,7.3,24.8
			c0.1,0.4,23.1,0,23.1,0s-2.5-22.3-11-34.6c-0.1-0.1,15.4-12.7,6.6-33.9C106.7,56.4,97.5,35.6,56.9,50z"/>
	</g>
	<g>
		<polygon style="fill-rule:evenodd;clip-rule:evenodd;stroke:#000000;stroke-width:4.171;stroke-linejoin:round;" points="
			317.3,47.3 336.3,87.7 318.8,124.9 338.7,124.9 346.1,108.7 354.1,125 377.8,125 361.9,89.3 381,47.2 359.6,47.2 351.7,65.2 
			343.5,47.3 		"/>
		<polygon style="fill-rule:evenodd;clip-rule:evenodd;stroke:#000000;stroke-width:4.171;stroke-linejoin:round;" points="
			269.2,51.4 269.2,116.3 309.9,116.3 311.7,95.8 291.2,95.8 291.2,91.5 305.9,91.5 307.3,74.9 291.3,74.9 291.3,70.8 311.9,70.8 
			313.7,51.4 		"/>
		<polygon style="fill-rule:evenodd;clip-rule:evenodd;stroke:#000000;stroke-width:4.171;stroke-linejoin:round;" points="
			220.5,51.4 220.5,116.3 260.8,116.3 262.6,95.4 242.3,95.4 242.3,51.4 		"/>
		<polygon style="fill-rule:evenodd;clip-rule:evenodd;stroke:#000000;stroke-width:4.171;stroke-linejoin:round;" points="
			168.6,51.4 168.6,116.1 190.6,116.1 190.6,93.5 206,93.5 207.6,74.7 190.6,74.7 190.6,70.6 212.1,70.6 213.9,51.5 		"/>
		<polygon style="fill-rule:evenodd;clip-rule:evenodd;stroke:#000000;stroke-width:4.171;stroke-linejoin:round;" points="
			117.6,51.4 117.6,116.3 158.3,116.3 160.2,95.7 139.6,95.7 139.6,91.4 154.4,91.4 155.8,74.9 139.6,74.9 139.6,70.6 160.5,70.6 
			162.1,51.4 		"/>
		<path style="fill-rule:evenodd;clip-rule:evenodd;stroke:#000000;stroke-width:4.171;stroke-linejoin:round;" d="M78.7,67.6
			c0,0,7.9-3.3,7.9,3.5c0,0-0.1,7.6-7.8,7.6L78.7,67.6z M56.9,50c-0.1,0,0,75,0,75h21.7v-24.6l1.9-0.2c0,0,4.6,6.5,7.3,24.8
			c0.1,0.4,23.1,0,23.1,0s-2.5-22.3-11-34.6c-0.1-0.1,15.4-12.7,6.6-33.9C106.7,56.4,97.5,35.6,56.9,50z"/>
	</g>
	
		<linearGradient id="SVGID_00000131326926395407834360000003673726252007827106_" gradientUnits="userSpaceOnUse" x1="319.9829" y1="78.04" x2="376.7354" y2="159.094" gradientTransform="matrix(1 0 0 -1 0 203.2756)">
		<stop  offset="0" style="stop-color:#FFFFFF"/>
		<stop  offset="6.000000e-02" style="stop-color:#E2F4FD"/>
		<stop  offset="0.13" style="stop-color:#E2F4FD"/>
		<stop  offset="0.28" style="stop-color:#F6FBFD"/>
		<stop  offset="0.37" style="stop-color:#A7DCDB"/>
		<stop  offset="0.44" style="stop-color:#F2FAFE"/>
		<stop  offset="0.64" style="stop-color:#E2F4FD"/>
		<stop  offset="0.79" style="stop-color:#EFF9FE"/>
		<stop  offset="0.9" style="stop-color:#A7DCDB"/>
		<stop  offset="1" style="stop-color:#FFFFFF"/>
	</linearGradient>
	
		<polygon style="fill-rule:evenodd;clip-rule:evenodd;fill:url(#SVGID_00000131326926395407834360000003673726252007827106_);" points="
		317.3,47.3 336.3,87.7 318.8,124.4 338.7,124.4 346.1,109.7 354.1,124.5 377.8,124.5 361.9,89.3 381,47.2 359.6,47.2 351.7,65.2 
		343.5,47.3 	"/>
	
		<linearGradient id="SVGID_00000175322644749863938170000002118640137857486725_" gradientUnits="userSpaceOnUse" x1="267.7787" y1="88.5568" x2="312.6231" y2="152.5992" gradientTransform="matrix(1 0 0 -1 0 203.2756)">
		<stop  offset="0" style="stop-color:#FFFFFF"/>
		<stop  offset="6.000000e-02" style="stop-color:#E2F4FD"/>
		<stop  offset="0.13" style="stop-color:#E2F4FD"/>
		<stop  offset="0.28" style="stop-color:#F6FBFD"/>
		<stop  offset="0.37" style="stop-color:#A7DCDB"/>
		<stop  offset="0.44" style="stop-color:#F2FAFE"/>
		<stop  offset="0.64" style="stop-color:#E2F4FD"/>
		<stop  offset="0.79" style="stop-color:#EFF9FE"/>
		<stop  offset="0.9" style="stop-color:#A7DCDB"/>
		<stop  offset="1" style="stop-color:#FFFFFF"/>
	</linearGradient>
	
		<polygon style="fill-rule:evenodd;clip-rule:evenodd;fill:url(#SVGID_00000175322644749863938170000002118640137857486725_);" points="
		269.2,51.4 269.2,115.7 309.9,115.7 311.7,95.8 291.2,95.8 291.2,91.5 305.9,91.5 307.3,74.9 291.3,74.9 291.3,70.8 311.9,70.8 
		313.7,51.4 	"/>
	
		<linearGradient id="SVGID_00000013192901666473435800000017278830641475425935_" gradientUnits="userSpaceOnUse" x1="218.8684" y1="88.5688" x2="256.3112" y2="142.0385" gradientTransform="matrix(1 0 0 -1 0 203.2756)">
		<stop  offset="0" style="stop-color:#FFFFFF"/>
		<stop  offset="6.000000e-02" style="stop-color:#E2F4FD"/>
		<stop  offset="0.13" style="stop-color:#E2F4FD"/>
		<stop  offset="0.28" style="stop-color:#F6FBFD"/>
		<stop  offset="0.37" style="stop-color:#A7DCDB"/>
		<stop  offset="0.44" style="stop-color:#F2FAFE"/>
		<stop  offset="0.64" style="stop-color:#E2F4FD"/>
		<stop  offset="0.79" style="stop-color:#EFF9FE"/>
		<stop  offset="0.9" style="stop-color:#A7DCDB"/>
		<stop  offset="1" style="stop-color:#FFFFFF"/>
	</linearGradient>
	
		<polygon style="fill-rule:evenodd;clip-rule:evenodd;fill:url(#SVGID_00000013192901666473435800000017278830641475425935_);" points="
		220.5,51.4 220.5,115.8 260.8,115.8 262.6,95.4 242.3,95.4 242.3,51.4 	"/>
	
		<linearGradient id="SVGID_00000000219754992136428220000002297284515837783473_" gradientUnits="userSpaceOnUse" x1="160.935" y1="93.0772" x2="205.9229" y2="157.3283" gradientTransform="matrix(1 0 0 -1 0 203.2756)">
		<stop  offset="0" style="stop-color:#FFFFFF"/>
		<stop  offset="6.000000e-02" style="stop-color:#E2F4FD"/>
		<stop  offset="0.13" style="stop-color:#E2F4FD"/>
		<stop  offset="0.28" style="stop-color:#F6FBFD"/>
		<stop  offset="0.37" style="stop-color:#A7DCDB"/>
		<stop  offset="0.44" style="stop-color:#F2FAFE"/>
		<stop  offset="0.64" style="stop-color:#E2F4FD"/>
		<stop  offset="0.79" style="stop-color:#EFF9FE"/>
		<stop  offset="0.9" style="stop-color:#A7DCDB"/>
		<stop  offset="1" style="stop-color:#FFFFFF"/>
	</linearGradient>
	
		<polygon style="fill-rule:evenodd;clip-rule:evenodd;fill:url(#SVGID_00000000219754992136428220000002297284515837783473_);" points="
		168.6,51.4 168.6,115.6 190.6,115.6 190.6,93.5 206,93.5 207.6,74.7 190.6,74.7 190.6,70.6 212.1,70.6 213.9,51.5 	"/>
	
		<linearGradient id="SVGID_00000024689238039951165080000002202171362769828539_" gradientUnits="userSpaceOnUse" x1="116.1153" y1="88.5658" x2="160.9849" y2="152.6421" gradientTransform="matrix(1 0 0 -1 0 203.2756)">
		<stop  offset="0" style="stop-color:#FFFFFF"/>
		<stop  offset="6.000000e-02" style="stop-color:#E2F4FD"/>
		<stop  offset="0.13" style="stop-color:#E2F4FD"/>
		<stop  offset="0.28" style="stop-color:#F6FBFD"/>
		<stop  offset="0.37" style="stop-color:#A7DCDB"/>
		<stop  offset="0.44" style="stop-color:#F2FAFE"/>
		<stop  offset="0.64" style="stop-color:#E2F4FD"/>
		<stop  offset="0.79" style="stop-color:#EFF9FE"/>
		<stop  offset="0.9" style="stop-color:#A7DCDB"/>
		<stop  offset="1" style="stop-color:#FFFFFF"/>
	</linearGradient>
	
		<polygon style="fill-rule:evenodd;clip-rule:evenodd;fill:url(#SVGID_00000024689238039951165080000002202171362769828539_);" points="
		117.6,51.4 117.6,115.7 158.3,115.7 160.2,95.7 139.6,95.7 139.6,91.4 154.4,91.4 155.8,74.9 139.6,74.9 139.6,70.6 160.5,70.6 
		162.1,51.4 	"/>
	
		<linearGradient id="SVGID_00000060024843597137624740000009983756143255418529_" gradientUnits="userSpaceOnUse" x1="57.5596" y1="78.3064" x2="107.0133" y2="148.9304" gradientTransform="matrix(1 0 0 -1 0 203.2756)">
		<stop  offset="0" style="stop-color:#FFFFFF"/>
		<stop  offset="6.000000e-02" style="stop-color:#E2F4FD"/>
		<stop  offset="0.13" style="stop-color:#E2F4FD"/>
		<stop  offset="0.28" style="stop-color:#F6FBFD"/>
		<stop  offset="0.37" style="stop-color:#A7DCDB"/>
		<stop  offset="0.44" style="stop-color:#F2FAFE"/>
		<stop  offset="0.64" style="stop-color:#E2F4FD"/>
		<stop  offset="0.79" style="stop-color:#EFF9FE"/>
		<stop  offset="0.9" style="stop-color:#A7DCDB"/>
		<stop  offset="1" style="stop-color:#FFFFFF"/>
	</linearGradient>
	<path style="fill-rule:evenodd;clip-rule:evenodd;fill:url(#SVGID_00000060024843597137624740000009983756143255418529_);" d="
		M78.7,67.6c0,0,7.9-3.3,7.9,3.5c0,0-0.1,7.6-7.8,7.6L78.7,67.6z M56.9,50c-0.1,0,0,74.5,0,74.5h21.7v-24.1l1.9-0.2
		c0,0,4.6,6,7.3,24.2c0.1,0.4,23.1,0,23.1,0s-2.5-21.7-11-34.1c-0.1-0.1,15.4-12.7,6.6-33.9C106.7,56.4,97.5,35.6,56.9,50z"/>
	<path style="fill-rule:evenodd;clip-rule:evenodd;fill:#ED2027;" d="M207.4,54.9c0.1,0,0.3,0.1,0.3,0.3c0,0,0,0,0,0l-0.7,10
		c0,0.1-0.1,0.2-0.2,0.2h-20.9v14.5h15.5c0.1,0,0.2,0.1,0.2,0.3l-0.7,8.1c0,0.1-0.1,0.2-0.2,0.2h-14.5v23.4c0,0.1-0.1,0.3-0.3,0.3h0
		h-13.2c-0.1,0-0.2-0.1-0.2-0.3V55.2c0-0.1,0.1-0.2,0.3-0.2H207.4z"/>
	<path style="fill-rule:evenodd;clip-rule:evenodd;fill:#ED2027;" d="M237.4,55.2c0.1,0,0.3,0.1,0.3,0.3c0,0,0,0,0,0v45.1h18.9
		c0.1,0,0.3,0.1,0.3,0.3c0,0,0,0,0,0l-0.7,11.3c0,0.1-0.1,0.2-0.2,0.2h-31.4c-0.1,0-0.2-0.1-0.3-0.2V55.4c0-0.1,0.1-0.3,0.3-0.3l0,0
		H237.4z"/>
	<path style="fill-rule:evenodd;clip-rule:evenodd;fill:#ED2027;" d="M308.4,55.2c0.1,0,0.2,0.1,0.3,0.3l-0.6,10
		c0,0.1-0.1,0.2-0.2,0.2l-21.6-0.1v13.1h16.6c0.1,0,0.2,0.1,0.2,0.2c0,0,0,0.1,0,0.1l-0.7,8.6c0,0.1-0.1,0.2-0.2,0.2h-15.9v12.6
		h20.7c0.1,0,0.3,0.1,0.3,0.3c0,0,0,0,0,0l-0.7,11.5c0,0.1-0.1,0.2-0.3,0.2h-33.1c-0.1,0-0.2-0.1-0.3-0.2V55.4
		c0-0.1,0.1-0.3,0.3-0.3l0,0H308.4z"/>
	<path style="fill-rule:evenodd;clip-rule:evenodd;fill:#ED2027;" d="M340.4,50.9c0.1,0,0.2,0.1,0.2,0.1l10.1,24.6l10.8-24.8
		c0,0,0.1-0.1,0.2-0.1h11.9c0.2,0,0.3,0.1,0.2,0.3l-17.1,37.2l14.1,32.5c0.1,0.2,0,0.3-0.2,0.3h-13.7c-0.1,0-0.2-0.1-0.2-0.1
		l-11.2-23.7l-10.1,23.3c0,0.1-0.1,0.1-0.2,0.1h-10c-0.2,0-0.3-0.1-0.2-0.3L340,86.9l-16.5-35.7c-0.1-0.1,0-0.2,0.1-0.3
		c0,0,0.1,0,0.1,0H340.4z"/>
	<path style="fill-rule:evenodd;clip-rule:evenodd;fill:#ED2027;" d="M73.9,82.9c2,0,16.5-0.3,16.5-11.8c0-10.7-10.7-11.1-16.5-6.3
		V82.9z M83,94.4c-3,0.7-6.1,1.1-9.2,1.5v24.5c0,0.1-0.1,0.2-0.2,0.3h-13c-0.1,0-0.2-0.1-0.2-0.3c0,0,0-16.9,0-33.8
		c0-8.5,0-16.9,0-23.3V52.8c0-0.1,0.2,0,0.2,0l-0.1-0.2c18-5.6,28.5-4.2,34.6-1.3c2.4,1.1,4.4,2.7,6.1,4.7c0.5,0.6,0.9,1.2,1.2,1.9
		c0.2,0.3,0.3,0.5,0.4,0.8c3.6,9.6,1.4,17.2-1.7,22.5c-1.3,2.2-2.8,4.2-4.6,6c-0.7,0.7-1.3,1.2-1.7,1.6c-0.2,0.1-0.3,0.3-0.5,0.4
		c9.4,13,11.6,31,11.6,31s-0.1,0.3-0.2,0.3s-3.3,0.1-6.7,0.1c-1.7,0-3.3,0.1-4.6,0l-1.5-0.1h-0.4l-0.2-0.1c-0.1,0-0.1-0.1-0.2-0.2
		c-1.3-6.5-3.2-12.9-5.8-19.1c-1-2.2-1.8-3.9-2.4-5.1c-0.3-0.6-0.6-1-0.7-1.3L83,94.4z"/>
	<path style="fill-rule:evenodd;clip-rule:evenodd;fill:#ED2027;" d="M156.8,55.2c0.1,0,0.2,0.1,0.3,0.2l-0.6,10
		c0,0.1-0.1,0.2-0.2,0.2l0,0h-21.6v13.1h16.6c0.1,0,0.2,0.1,0.2,0.2c0,0,0,0,0,0l-0.7,8.5c0,0.1-0.1,0.2-0.2,0.2l0,0h-15.9v12.5
		h20.7c0.1,0,0.2,0.1,0.2,0.2c0,0,0,0,0,0l-0.7,11.5c0,0.1-0.1,0.2-0.3,0.2h-33.1c-0.1,0-0.2-0.1-0.3-0.2V55.5
		c0-0.1,0.1-0.2,0.3-0.2H156.8z"/>
	<path style="fill-rule:evenodd;clip-rule:evenodd;" d="M200.2,81.3l1.2-1.3c0.1,0,0.2,0.1,0.2,0.3l-0.7,8.1c0,0.1-0.1,0.2-0.2,0.2
		h-14.5v23.4c0,0.1-0.1,0.3-0.3,0.3h0h-13.2c-0.1,0-0.2-0.1-0.2-0.3l0.9-1.1h11.2c0.1,0,0.2-0.1,0.2-0.2l0,0V87.1h14.5
		c0.1,0,0.2-0.1,0.2-0.2L200.2,81.3z M207.4,54.9c0.1,0,0.3,0.1,0.3,0.3c0,0,0,0,0,0l-0.7,10c0,0.1-0.1,0.2-0.2,0.2h-20.9v14.5
		l-1.4,1.3V64.1h20.9c0.1,0,0.2-0.1,0.2-0.2l0.6-7.8L207.4,54.9z"/>
	<path style="fill-rule:evenodd;clip-rule:evenodd;" d="M255.3,101.6l1.3-1.1c0.1,0,0.3,0.1,0.3,0.3c0,0,0,0,0,0l-0.7,11.3
		c0,0.1-0.1,0.2-0.2,0.2h-31.4c-0.1,0-0.2-0.1-0.3-0.2l1.2-1.2h29.1c0.1,0,0.2-0.1,0.2-0.2L255.3,101.6z M237.4,55.2
		c0.1,0,0.3,0.1,0.3,0.3c0,0,0,0,0,0v45.1l-1.4,1.4V56.4L237.4,55.2z"/>
	<path style="fill-rule:evenodd;clip-rule:evenodd;" d="M305.7,102.1l1.2-1.8c0.1,0,0.3,0.1,0.3,0.3c0,0,0,0,0,0l-0.7,11.5
		c0,0.1-0.1,0.2-0.3,0.2h-33.1c-0.1,0-0.2-0.1-0.3-0.2l0.9-1.2h31.1c0.1,0,0.2-0.1,0.3-0.2L305.7,102.1z M301.5,79.9l1.3-1.3
		c0.1,0,0.2,0.1,0.2,0.2c0,0,0,0.1,0,0.1l-0.7,8.6c0,0.1-0.1,0.2-0.2,0.2h-15.9v12.6l-1.4,1.9V86.3h15.9c0.1,0,0.2-0.1,0.2-0.2
		L301.5,79.9z M308.4,55.2c0.1,0,0.2,0.1,0.3,0.3l-0.6,10c0,0.1-0.1,0.2-0.2,0.2l-21.6-0.1v13.1l-1.4,1.9V64.2h21.6
		c0.1,0,0.2-0.1,0.3-0.2l0.5-7.4L308.4,55.2z"/>
	<path style="fill-rule:evenodd;clip-rule:evenodd;" d="M345.5,97.3l-10.1,23.3c0,0.1-0.1,0.1-0.2,0.1h-10c-0.2,0-0.3-0.1-0.2-0.3
		l1.9-1.1h7c0.1,0,0.2-0.1,0.2-0.1l10.4-24.1L345.5,97.3z M371.6,52.1l2.1-1.4c0.2,0,0.3,0.1,0.2,0.3l-17.1,37.2l14.1,32.5
		c0.1,0.2,0,0.3-0.2,0.3h-13.7c-0.1,0-0.2-0.1-0.2-0.1l0.6-1.3h12c0.2,0,0.3-0.1,0.2-0.3l-14.1-32.5L371.6,52.1z M340.4,50.9
		c0.1,0,0.2,0.1,0.2,0.1l10.1,24.6l-0.4,1l-10.5-25.7L340.4,50.9z"/>
	<path style="fill-rule:evenodd;clip-rule:evenodd;" d="M83,94.4c-3.7,0.8-8.2,1.4-9.2,1.5v24.5c0,0.1-0.1,0.2-0.2,0.3h-13
		c-0.1,0-0.2-0.1-0.2-0.3l1-1.1h10.9c0.1,0,0.2-0.1,0.2-0.2l0,0V94.5c3.1-0.3,6.1-0.8,9.2-1.5l0.2,0.3l0.7,1.2
		c0.9,1.7,1.7,3.4,2.5,5.1c2.6,6.1,4.5,12.5,5.8,19.1c0,0.1,0.1,0.2,0.2,0.2h2.2c0.3,0-0.4,0,0,0c1.3,0,2.9,0,4.6,0l6.7-0.1
		c0.1,0,0.2-0.3,0.2-0.3s-2.2-18-11.6-31l0.5-0.4c0.4-0.4,1-0.9,1.7-1.6c1.8-1.8,3.4-3.8,4.6-6c3.1-5.2,5.2-12.9,1.7-22.5
		c-0.1-0.3-0.2-0.6-0.4-0.8c-0.3-0.7-0.8-1.3-1.2-1.9c-0.2-0.2-0.3-0.4-0.5-0.6c0.7,0.6,1.3,1.3,1.9,2c0.5,0.6,0.9,1.2,1.2,1.9
		c0.2,0.3,0.3,0.5,0.4,0.8c3.6,9.6,1.4,17.2-1.7,22.5c-1.3,2.2-2.8,4.2-4.6,6c-0.7,0.7-1.3,1.2-1.7,1.6c-0.2,0.1-0.3,0.3-0.5,0.4
		c9.4,13,11.6,31,11.6,31s-0.1,0.3-0.2,0.3s-3.3,0.1-6.7,0.1c-1.7,0-3.3,0.1-4.6,0l-1.5-0.1h-0.4l-0.2-0.1c-0.1,0-0.1-0.1-0.2-0.2
		l-0.2-1.1h-1c-0.1-0.1-0.1-0.1-0.2-0.2c-1.2-6.6-3.2-13-5.8-19.1c-0.7-1.7-1.5-3.4-2.4-5.1L83,94.4z M87.2,63.5
		c-3.6-2.7-9.5-1.8-13.3,1.3v18.1c-0.6,0-1.1,1.5-1.4,1.5v-21C76.9,59.8,83.9,59.1,87.2,63.5L87.2,63.5z"/>
	<path style="fill-rule:evenodd;clip-rule:evenodd;" d="M154.1,102.2l1.2-1.8c0.1,0,0.2,0.1,0.2,0.2c0,0,0,0,0,0l-0.7,11.5
		c0,0.1-0.1,0.2-0.3,0.2h-33.1c-0.1,0-0.2-0.1-0.3-0.2l0.9-1.2h31.1c0.1,0,0.2-0.1,0.3-0.2L154.1,102.2z M149.8,80l1.3-1.2
		c0.1,0,0.2,0.1,0.2,0.2c0,0,0,0,0,0l-0.7,8.6c0,0.1-0.1,0.2-0.2,0.2l0,0h-15.9v12.5l-1.4,1.9V86.4H149c0.1,0,0.2-0.1,0.2-0.2l0,0
		L149.8,80z M156.8,55.2c0.1,0,0.2,0.1,0.3,0.2l-0.6,10c0,0.1-0.1,0.2-0.2,0.2l0,0h-21.6v13.1l-1.4,1.9V64.2h21.6
		c0.1,0,0.2-0.1,0.2-0.2v0l0.6-7.4L156.8,55.2z"/>
	<path style="stroke:#000000;stroke-width:5.7232;" d="M397.3,48.2c1.7,0,3.3,0.3,4.9,1c1.5,0.6,2.9,1.5,4,2.7
		c2.4,2.3,3.7,5.5,3.7,8.9c0,2.2-0.6,4.4-1.7,6.3c-2.2,3.9-6.4,6.3-10.9,6.2c-2.2,0-4.4-0.6-6.3-1.7c-1.9-1.1-3.5-2.7-4.6-4.6
		c-1.1-1.9-1.7-4.1-1.7-6.3c0-2.2,0.6-4.4,1.7-6.3c1.1-1.9,2.7-3.5,4.6-4.6C393,48.8,395.1,48.2,397.3,48.2z M397.4,50.7
		c-1.8,0-3.5,0.5-5,1.4c-4.8,2.7-6.5,8.9-3.7,13.7c0,0,0,0,0,0.1c1.8,3.1,5.1,5,8.7,5c1.8,0,3.5-0.4,5-1.3c1.5-0.9,2.8-2.2,3.6-3.7
		c1.8-3.1,1.8-7,0-10.1C404.3,52.6,401,50.7,397.4,50.7z M394.4,67.4h-2.7V54.2h6.3c0.8,0,1.7,0.1,2.5,0.5c0.6,0.3,1.2,0.7,1.5,1.3
		c0.4,0.6,0.5,1.3,0.5,2c0,0.9-0.3,1.8-1,2.4c-0.7,0.7-1.6,1.2-2.6,1.3c0.5,0.2,1,0.5,1.4,1c0.3,0.4,0.8,1.2,1.4,2.2l1.6,2.7h-3.3
		l-1.1-2.1c-0.4-0.7-0.8-1.5-1.3-2.1c-0.3-0.4-0.6-0.7-1.1-0.9c-0.4-0.2-0.9-0.3-1.3-0.3h-0.7L394.4,67.4z M394.4,56.3v3.6h2.2
		c0.8,0,1.5-0.1,2.2-0.4c0.5-0.3,0.8-0.8,0.8-1.5c0-0.5-0.2-1-0.7-1.3c-0.4-0.3-1.1-0.4-2.1-0.4H394.4z"/>
	<path style="stroke:#000000;stroke-width:2.8616;" d="M397.3,48.2c1.7,0,3.3,0.3,4.9,1c1.5,0.6,2.9,1.5,4,2.7
		c2.4,2.3,3.7,5.5,3.7,8.9c0,2.2-0.6,4.4-1.7,6.3c-2.2,3.9-6.4,6.3-10.9,6.2c-2.2,0-4.4-0.6-6.3-1.7c-1.9-1.1-3.5-2.7-4.6-4.6
		c-1.1-1.9-1.7-4.1-1.7-6.3c0-2.2,0.6-4.4,1.7-6.3c1.1-1.9,2.7-3.5,4.6-4.6C393,48.8,395.1,48.2,397.3,48.2z M397.4,50.7
		c-1.8,0-3.5,0.5-5,1.4c-4.8,2.7-6.5,8.9-3.7,13.7c0,0,0,0,0,0.1c1.8,3.1,5.1,5,8.7,5c1.8,0,3.5-0.4,5-1.3c1.5-0.9,2.8-2.2,3.6-3.7
		c1.8-3.1,1.8-7,0-10.1C404.3,52.6,401,50.7,397.4,50.7z M394.4,67.4h-2.7V54.2h6.3c0.8,0,1.7,0.1,2.5,0.5c0.6,0.3,1.2,0.7,1.5,1.3
		c0.4,0.6,0.5,1.3,0.5,2c0,0.9-0.3,1.8-1,2.4c-0.7,0.7-1.6,1.2-2.6,1.3c0.5,0.2,1,0.5,1.4,1c0.3,0.4,0.8,1.2,1.4,2.2l1.6,2.7h-3.3
		l-1.1-2.1c-0.4-0.7-0.8-1.5-1.3-2.1c-0.3-0.4-0.6-0.7-1.1-0.9c-0.4-0.2-0.9-0.3-1.3-0.3h-0.7L394.4,67.4z M394.4,56.3v3.6h2.2
		c0.8,0,1.5-0.1,2.2-0.4c0.5-0.3,0.8-0.8,0.8-1.5c0-0.5-0.2-1-0.7-1.3c-0.4-0.3-1.1-0.4-2.1-0.4H394.4z"/>
	<path style="fill:#FFFFFF;" d="M397.3,48.2c1.7,0,3.3,0.3,4.9,1c1.5,0.6,2.9,1.5,4,2.7c2.4,2.3,3.7,5.5,3.7,8.9
		c0,2.2-0.6,4.4-1.7,6.3c-2.2,3.9-6.4,6.3-10.9,6.2c-2.2,0-4.4-0.6-6.3-1.7c-1.9-1.1-3.5-2.7-4.6-4.6c-1.1-1.9-1.7-4.1-1.7-6.3
		c0-2.2,0.6-4.4,1.7-6.3c1.1-1.9,2.7-3.5,4.6-4.6C393,48.8,395.1,48.2,397.3,48.2z M397.4,50.7c-1.8,0-3.5,0.5-5,1.4
		c-4.8,2.7-6.5,8.9-3.7,13.7c0,0,0,0,0,0.1c1.8,3.1,5.1,5,8.7,5c1.8,0,3.5-0.4,5-1.3c1.5-0.9,2.8-2.2,3.6-3.7c1.8-3.1,1.8-7,0-10.1
		C404.3,52.6,401,50.7,397.4,50.7z M394.4,67.4h-2.7V54.2h6.3c0.8,0,1.7,0.1,2.5,0.5c0.6,0.3,1.2,0.7,1.5,1.3c0.4,0.6,0.5,1.3,0.5,2
		c0,0.9-0.3,1.8-1,2.4c-0.7,0.7-1.6,1.2-2.6,1.3c0.5,0.2,1,0.5,1.4,1c0.3,0.4,0.8,1.2,1.4,2.2l1.6,2.7h-3.3l-1.1-2.1
		c-0.4-0.7-0.8-1.5-1.3-2.1c-0.3-0.4-0.6-0.7-1.1-0.9c-0.4-0.2-0.9-0.3-1.3-0.3h-0.7L394.4,67.4z M394.4,56.3v3.6h2.2
		c0.8,0,1.5-0.1,2.2-0.4c0.5-0.3,0.8-0.8,0.8-1.5c0-0.5-0.2-1-0.7-1.3c-0.4-0.3-1.1-0.4-2.1-0.4H394.4z"/>
</g>
</svg>
