<?xml version="1.0" encoding="utf-8"?>
<!-- Generator: Adobe Illustrator 26.1.0, SVG Export Plug-In . SVG Version: 6.00 Build 0)  -->
<svg version="1.1" id="Layer_1" xmlns="http://www.w3.org/2000/svg" xmlns:xlink="http://www.w3.org/1999/xlink" x="0px" y="0px"
	 viewBox="0 0 1056.6 202" style="enable-background:new 0 0 1056.6 202;" xml:space="preserve">
<g id="Livello_1_1_">
</g>
<g id="Layer_1_00000121280000816817959920000000882230360127541942_">
</g>
<g>
	<path style="fill:#FFFFFF;" d="M264.2,71.4h36.6l-2.6,12.1h-19.7l-1.4,6.7h16.3l-2.5,11.8h-16.3l-1.5,7.2h19.7l-2.6,12.1h-36.6
		L264.2,71.4z"/>
	<path style="fill:#FFFFFF;" d="M302.8,114.1c0-2.2,0.4-4.9,1.2-8.6l2.2-10.2h-6.1l2.3-10.9h6.1l2.3-10.8h15.8l-2.3,10.8h7.4
		l-2.3,10.9h-7.4l-2.5,12c-0.1,0.7-0.3,1.3-0.3,2c0,1.7,1.5,2.2,7.1,2.2l-2.1,10C307.9,121.4,302.8,121.2,302.8,114.1z"/>
	<path style="fill:#FFFFFF;" d="M337.4,84.3h15l-0.6,4.1h0.7c3.1-3.9,7.2-4.7,10-4.7c7,0,9,2.5,9,7.6c0,2-0.6,5.6-1.3,9.1l-4.5,21
		h-15.5l3.9-18.6c0.5-2.3,0.9-4.6,0.9-5.5c0-1.4-0.5-1.5-1.7-1.5c-2.8,0-3,0.4-4.2,6l-4.2,19.6h-15.5L337.4,84.3z"/>
	<path style="fill:#FFFFFF;" d="M380.2,84.3H396l-7.8,37.1h-15.8L380.2,84.3z M383.7,67.4h15.8l-2.3,11h-15.8L383.7,67.4z"/>
	<path style="fill:#FFFFFF;" d="M406,67.4h15.6L415,97.9h0.7l10.4-13.5h16.6l-15,18.2l7.6,18.9h-16.6l-4.9-13.4h-0.7l-2.8,13.4
		h-15.5L406,67.4z"/>
	<path style="fill:#FFFFFF;" d="M461.1,110.8c0-3.7,1.2-8.6,2.4-15.1c3.9-20.2,5.3-24.9,26.2-24.9c15.5,0,20.1,2.9,20.1,11.3
		c0,3.8-0.9,8.6-2.3,15c-4.7,20.3-5.4,24.9-26,24.9C465.9,122,461.1,119.1,461.1,110.8z M490.6,96.4c1.2-5.5,1.8-8.9,1.8-10.8
		c0-2.6-1.2-2.7-4.1-2.7c-5.1,0-5.2,0.3-7.9,13.4c-1.2,5.7-2,9-2,10.9c0,2.5,1.2,2.5,4.1,2.5C487.7,109.8,487.8,109.6,490.6,96.4z"
		/>
	<path style="fill:#FFFFFF;" d="M509.2,135.3l2-9.8h9.6c8,0,8.2,0,9.4-5.6c0.3-1.2,0.5-2.5,0.8-3.8h-0.7c-3.1,3.9-6.8,4.7-9.5,4.7
		c-7.2,0-9.4-2.8-9.4-7.8c0-1.9,0.3-4.1,0.9-6.6l4.7-22h15.6l-3.9,18.4c-0.5,2.4-0.8,3.9-0.8,4.7c0,1.3,0.6,1.3,2,1.3
		c2.5,0,2.7-0.1,4-6l3.9-18.4h15.6l-7,33.1c-2.6,12.4-3.6,19-23.8,19C517.7,136.4,512.2,135.9,509.2,135.3z"/>
	<path style="fill:#FFFFFF;" d="M554,114.1c0-2,0.7-5.6,1.4-9.1l4.4-20.7h15.5l-3.9,18.6c-0.5,2.3-0.9,4.6-0.9,5.5
		c0,1.4,0.5,1.5,1.7,1.5c2.8,0,3-0.4,4.2-6l4.2-19.6h15.5l-7.8,37.1h-15l0.6-4.1h-0.7c-3.1,3.9-7.2,4.7-10,4.7
		C556,122,554,119.4,554,114.1z"/>
	<path style="fill:#FFFFFF;" d="M602.6,84.3h15l-0.6,4.1h0.7c3.1-3.9,7.2-4.7,10-4.7c7,0,9,2.5,9,7.6c0,2-0.6,5.6-1.3,9.1l-4.5,21
		h-15.5l3.9-18.6c0.5-2.3,0.9-4.6,0.9-5.5c0-1.4-0.5-1.5-1.7-1.5c-2.8,0-3,0.4-4.2,6l-4.2,19.6h-15.5L602.6,84.3z"/>
	<path style="fill:#FFFFFF;" d="M648.9,67.4h15.8l-11.4,54h-15.8L648.9,67.4z"/>
	<path style="fill:#FFFFFF;" d="M661.4,113.2c0-2.6,0.3-6,1.2-10.2c3.1-15.1,7-19.2,14.4-19.2c4,0,7.7,0.5,9.6,4.2h0.7l1.2-3.7h15.1
		l-7.8,37.1h-15l0.7-4.1h-0.8c-2.6,3.9-6,4.7-9.3,4.7C664.6,122,661.4,120,661.4,113.2z M682.8,108.2c0.7-2,2.3-9,2.3-10.8
		c0-1.5-0.5-1.6-2.4-1.6c-3,0-3.1,0.1-4.6,7.1c-0.7,2.9-0.9,4.6-0.9,5.7c0,1.4,0.7,1.5,2.5,1.5C681.7,110,682.2,109.8,682.8,108.2z"
		/>
	<path style="fill:#FFFFFF;" d="M710.1,84.3h15l-1,6.2h0.7c3.2-5.5,5.9-6.8,12.6-6.8l-2.9,13.5c-9.7,0-12,1.8-14.1,11.7l-2.7,12.4
		h-15.5L710.1,84.3z"/>
</g>
<g>
	<polygon style="fill:#FFFFFF;" points="155.5,102.2 165.7,111.9 176,102.2 165.8,92.5 	"/>
	<polygon style="fill:#FFFFFF;" points="78.7,102.2 88.9,111.9 99.3,102.2 89,92.5 	"/>
	<path style="fill:#FFFFFF;" d="M101.4,102.2l26.3,26.3l26.3-26.3l-26.3-26.3L101.4,102.2z M138.3,102.2l-10.6,10.6l-10.6-10.6
		l10.6-10.6L138.3,102.2z"/>
	<path style="fill:#FFFFFF;" d="M236,139.3l-23.6-22.5l-15.3-14.6l15.3-14.6L236,65.1h-32.7h-17.5l1.4-1.3l23.6-22.5h-32.6h-17.6
		l1.5-1.4l23.6-22.5h-32.7h-50.5H70l23.6,22.5l1.5,1.4H77.3H44.7l23.6,22.5l1.4,1.3H52H19.4L43,87.6l15.3,14.6L43,116.7l-23.6,22.5
		H52h17.7l-1.4,1.3l-23.6,22.5h32.7h17.8l-1.5,1.5L70,187.1h32.7h50.5h32.7l-23.6-22.5l-1.5-1.5h17.6h32.7l-23.6-22.5l-1.4-1.3h17.5
		H236z M178.2,150h-50.3l25.2,24h-50.4l25.2-24h0H77.3l25.1-23.9H52l25.2-24L52,78.1h50.3l-25-23.9h50.4h0l-25.2-24h50.5l-25.2,24
		h50.3l-25,23.9h50.2l-25.2,24l25.2,24h-50.1L178.2,150z"/>
</g>
</svg>
