<?xml version="1.0" encoding="utf-8"?>
<!-- Generator: Adobe Illustrator 26.1.0, SVG Export Plug-In . SVG Version: 6.00 Build 0)  -->
<svg version="1.1" id="Layer_1" xmlns="http://www.w3.org/2000/svg" xmlns:xlink="http://www.w3.org/1999/xlink" x="0px" y="0px"
	 viewBox="0 0 1056.6 202" style="enable-background:new 0 0 1056.6 202;" xml:space="preserve">
<circle style="fill:#C72A22;" cx="109.3" cy="102.1" r="94.5"/>
<path style="fill:#FFFFFF;" d="M109.3,14.3c48.6,0.1,88.1,39.6,87.8,88.4c-0.3,48.5-39.7,87.7-88.5,87.3
	c-48.4-0.3-87.6-39.8-87.2-88.5C21.7,53.3,60.9,14.3,109.3,14.3z M108.6,17.9c-46.3,0.3-84,38.3-83.7,84.9c0.4,46.3,38.4,84,85,83.6
	c46.3-0.4,83.9-38.4,83.6-85C193.2,55.2,155.2,17.5,108.6,17.9z"/>
<path style="fill:#FFFFFF;" d="M145.5,151.1c-5.7,0-11.4-0.3-17-1.1c-10.1-1.4-20.2-2.9-30.3-4.3c-7.6-1-15.3-1.7-23-1.7
	c-9.2,0.1-18.3,1.3-27,4.5c-1.2,0.5-2.5,0.9-3.7,1.5c-0.4,0.2-0.6,0.1-0.9-0.2c-6.6-9.2-11.2-19.2-13.6-30.3
	c-2.2-9.9-2.5-19.8-0.9-29.8c2.4-15.4,8.7-29,19-40.7C59,36.5,72.5,28,88.7,23.7c25.3-6.7,52-0.8,72.1,15.9
	c15.1,12.6,24.7,28.6,28.2,48c3.7,20.5,0,39.7-10.9,57.4c-0.2,0.3-0.5,0.6-0.8,0.7c-8.4,3.5-17.2,5.1-26.3,5.5
	C149.2,151.2,147.3,151.1,145.5,151.1z M84.7,100.3c0.3-0.2,0.5-0.3,0.7-0.5c0.2-0.2,0.4-0.3,0.6-0.5c4.3-3.3,6.2-7.6,5.2-12.9
	c-1.3-7-5.7-11.2-12.2-13.5c-2-0.7-4.1-0.8-6.2-0.9c-4.1-0.2-8.3-0.1-12.3,0.9c-5.3,1.3-9.7,4-12.7,8.7c-0.2,0.3-0.3,0.6-0.3,0.9
	c0,15.5,0,31,0,46.6c0,0.4,0.1,0.6,0.5,0.8c1,0.6,2,1.3,3.1,1.8c4,2.2,8.3,3.7,12.8,4.1c5.1,0.4,10.2,0.2,15.2-0.6
	c3.8-0.6,7.2-2,10.1-4.6c4.7-4.3,6.7-9.7,6.2-16c-0.5-5.8-3.2-10.2-8.2-13.1C86.5,101.2,85.6,100.8,84.7,100.3z M164.6,89.6
	c0.1-0.1,0.2-0.2,0.2-0.3c1.8-3.4,3.5-6.8,5.3-10.2c0.2-0.4,0-0.5-0.2-0.7c-3-2.6-6.4-4.5-10.3-5.5c-5-1.4-10.1-1.3-15.2-0.3
	c-9.2,1.7-16.1,6.8-20.6,15c-2.7,4.9-3.8,10.3-4,15.9c-0.1,5.6,0.5,11,2.7,16.1c4.1,9.8,11.4,15.7,22,17.2c5.4,0.8,10.8,0.2,16-1.2
	c4.2-1.1,8.2-2.7,11.6-5.5c0.3-0.3,0.4-0.5,0.4-0.9c0-9.7,0-19.5,0-29.2c0-0.2,0-0.4,0-0.7c-7.2,0-14.3,0-21.5,0c0,3.9,0,7.7,0,11.6
	c0.3,0,0.5,0,0.8,0c2.3,0,4.7,0,7,0c0.5,0,0.6,0.1,0.6,0.6c0,3.4,0,6.9,0,10.3c0,0.6-0.2,0.9-0.6,1.2c-2.6,1.7-5.5,2.2-8.5,2
	c-5-0.2-9.2-1.9-12.4-5.8c-1.5-1.8-2.6-3.9-3.3-6.2c-1.2-4-1.4-8.1-0.9-12.2c0.4-3.6,1.5-6.9,3.5-9.9c3.8-5.4,9.1-7.6,15.5-7
	c4.2,0.4,7.9,2.3,11.2,5C164.1,89.2,164.4,89.4,164.6,89.6z M82.6,72c0,0,0,0.1,0,0.1c0.1,0.1,0.3,0.1,0.4,0.2
	c2.1,0.9,3.9,2.1,5.5,3.8c2.3,2.4,3.9,5.2,5.1,8.3c0.2,0.4,0.4,0.6,0.8,0.6c2.1,0,4.2,0,6.3,0c1,0,0.9-0.1,0.9,0.9
	c0,16.5,0,32.9,0,49.4c0,0.3,0,0.5,0,0.8c4.4,0,8.8,0,13.2,0c0-17,0-34,0-51.1c0.3,0,0.5,0,0.7,0c2,0,4,0,6,0c0.4,0,0.7-0.1,0.9-0.5
	c0.3-0.6,0.8-1.2,1.2-1.8c2.8-3.4,5.9-6.2,9.6-8.5c1.2-0.8,2.6-1.3,3.9-1.9c0.1-0.1,0.3-0.1,0.4-0.2c0,0,0,0,0-0.1
	C119.2,72,100.9,72,82.6,72z M88.8,38.8c0,0.1,0,0.1,0,0.2c0.2,0.1,0.3,0.2,0.5,0.4c3.8,2.8,7.7,5.6,11.5,8.3
	c0.5,0.3,0.5,0.6,0.4,1.1c-1.5,4.5-2.9,9-4.4,13.5c-0.1,0.2-0.1,0.4-0.2,0.8c0.3-0.2,0.5-0.3,0.7-0.5c3.9-2.8,7.8-5.6,11.6-8.4
	c0.4-0.3,0.6-0.3,1,0c3.9,2.8,7.7,5.6,11.6,8.4c0.2,0.1,0.3,0.2,0.7,0.4c-0.1-0.4-0.1-0.5-0.2-0.7c-1.5-4.5-2.9-9-4.4-13.5
	c-0.2-0.5-0.1-0.8,0.3-1.1c3.9-2.8,7.7-5.6,11.5-8.3c0.2-0.1,0.3-0.3,0.5-0.4c-0.3-0.1-0.5-0.1-0.7-0.1c-4.8,0-9.5,0-14.3,0
	c-0.5,0-0.7-0.1-0.8-0.6c-1.5-4.6-3-9.1-4.5-13.7c-0.1-0.2-0.1-0.3-0.2-0.6c-0.1,0.3-0.2,0.5-0.2,0.7c-1.5,4.5-3,9-4.4,13.6
	c-0.2,0.5-0.4,0.6-0.9,0.6c-4.8,0-9.5,0-14.3,0C89.2,38.8,89,38.8,88.8,38.8z M72.6,43.7c0,0-0.1,0-0.1,0c-0.1,0.3-0.1,0.5-0.2,0.8
	c-0.4,2-0.8,4-1.1,6c-0.1,0.5-0.3,0.6-0.7,0.6c-1.6,0.2-3.2,0.4-4.8,0.6c-0.7,0.1-1.4,0.2-2.3,0.3c0.3,0.2,0.4,0.3,0.6,0.4
	c1.9,1,3.8,2.1,5.7,3.1c0.4,0.2,0.5,0.4,0.4,0.8c-0.2,0.7-0.3,1.4-0.4,2.1c-0.3,1.6-0.6,3.2-0.9,4.9c0.3-0.3,0.5-0.4,0.6-0.5
	c1.5-1.4,3.1-2.9,4.6-4.4c0.3-0.3,0.5-0.3,0.9-0.1c1.9,1,3.7,2,5.6,3c0.2,0.1,0.4,0.2,0.7,0.3c-0.2-0.4-0.3-0.6-0.4-0.8
	c-0.9-1.8-1.8-3.7-2.7-5.5c-0.2-0.4-0.2-0.6,0.2-1c1.6-1.4,3.1-2.9,4.6-4.3c0.2-0.1,0.4-0.2,0.6-0.3c-0.1-0.1-0.2-0.2-0.2-0.3
	c-0.2,0-0.3,0-0.5,0c-2.1,0.3-4.3,0.5-6.4,0.8c-0.4,0.1-0.6-0.1-0.8-0.5c-0.9-1.9-1.8-3.8-2.7-5.7C72.8,44.1,72.7,43.9,72.6,43.7z
	 M155.1,52.1c-0.3-0.1-0.3-0.1-0.4-0.1c-2.2-0.3-4.3-0.6-6.5-0.8c-0.5-0.1-0.7-0.2-0.8-0.8c-0.3-2-0.7-4.1-1.1-6.1
	c0-0.2-0.1-0.4-0.2-0.7c-0.2,0.3-0.3,0.5-0.3,0.7c-0.9,1.9-1.8,3.8-2.7,5.7c-0.2,0.4-0.4,0.5-0.8,0.4c-2.1-0.3-4.3-0.6-6.4-0.8
	c-0.2,0-0.3,0-0.5,0c0,0.1-0.1,0.1-0.1,0.2c0.2,0.1,0.4,0.2,0.5,0.4c1.5,1.4,3,2.9,4.6,4.3c0.3,0.3,0.4,0.5,0.2,0.9
	c-0.9,1.9-1.8,3.8-2.7,5.7c-0.1,0.2-0.2,0.4-0.3,0.7c0.3-0.2,0.5-0.2,0.7-0.3c1.9-1,3.7-2,5.6-3c0.4-0.2,0.7-0.2,1,0.1
	c1.5,1.4,3,2.9,4.5,4.3c0.2,0.1,0.3,0.3,0.5,0.4c0.1-0.3,0.1-0.4,0-0.6c-0.4-2.1-0.8-4.2-1.2-6.2c-0.1-0.4,0-0.6,0.4-0.8
	c1.9-1,3.8-2,5.6-3C154.6,52.4,154.8,52.3,155.1,52.1z M48.1,61.8c0,0-0.1,0-0.1,0.1c0.1,1.2,0.2,2.5,0.3,3.7c0,0.5-0.1,0.7-0.5,0.8
	c-1,0.4-2,0.8-3,1.2c-0.2,0.1-0.3,0.2-0.6,0.3c1.4,0.3,2.6,0.6,3.9,0.9c0.4,0.1,0.5,0.2,0.6,0.6c0,0.8,0.1,1.5,0.2,2.3
	c0,0.5,0.1,1,0.2,1.7c0.2-0.3,0.3-0.5,0.4-0.6c0.6-0.9,1.2-1.9,1.7-2.8c0.2-0.3,0.4-0.4,0.7-0.3c1.1,0.3,2.2,0.5,3.3,0.8
	c0.2,0,0.3,0,0.6,0.1c-0.6-0.7-1.1-1.3-1.7-1.9c-0.4-0.5-1.1-1-1.1-1.5c0-0.5,0.6-1.1,0.9-1.6c0.4-0.7,0.8-1.3,1.2-2
	c-0.3,0-0.5,0-0.6,0.1c-0.9,0.4-1.8,0.7-2.6,1.1c-0.6,0.3-1,0.2-1.4-0.3C49.6,63.5,48.8,62.7,48.1,61.8z M169.6,73.3
	c0,0,0.1,0,0.1,0c0.1-1.2,0.2-2.4,0.3-3.7c0-0.5,0.2-0.7,0.7-0.8c1.2-0.2,2.4-0.6,3.6-0.9c-0.2-0.2-0.4-0.3-0.5-0.4
	c-1-0.4-2-0.8-3-1.2c-0.3-0.1-0.4-0.3-0.4-0.7c0.1-1,0.2-2.1,0.3-3.2c0-0.2,0-0.4,0-0.6c-0.3,0.1-0.4,0.3-0.6,0.4
	c-0.7,0.8-1.4,1.6-2,2.4c-0.2,0.3-0.5,0.3-0.8,0.2c-0.9-0.4-1.8-0.7-2.6-1.1c-0.3-0.1-0.6-0.2-0.9-0.4c0.5,1.1,1.1,2.1,1.8,3.1
	c0.4,0.5,0.3,0.9-0.1,1.4c-0.8,0.8-1.5,1.8-2.4,2.8c0.4-0.1,0.6-0.1,0.7-0.1c1-0.2,2.1-0.5,3.1-0.8c0.4-0.1,0.6-0.1,0.9,0.3
	c0.4,0.7,0.8,1.3,1.2,2C169.1,72.5,169.3,72.9,169.6,73.3z"/>
<path style="fill:#FFFFFF;" d="M150.3,172.1c-0.2,0.1-0.3,0.2-0.5,0.3c-7.1,4.1-14.6,7.1-22.6,8.9c-0.3,0.1-0.7,0-1-0.2
	c-7.2-3.7-14-8-20.9-12.2c-5.8-3.5-11.5-7.1-17.5-10.2c-4.6-2.3-9.3-4.4-14.3-5.6c-0.3-0.1-0.7-0.2-1-0.2c0,0,0,0-0.1-0.1
	c0.2,0,0.4,0,0.5,0c4,0,8,0.8,11.9,1.7c7.1,1.7,14.1,4,21,6.3c7.9,2.6,15.8,5.3,23.8,7.4c6.1,1.7,12.3,3,18.7,3.6
	c0.6,0.1,1.3,0.1,1.9,0.1C150.3,172,150.3,172.1,150.3,172.1z"/>
<path style="fill:#FFFFFF;" d="M175,149.8c-1.5,1.9-3,3.8-4.6,5.6c-2.6,3-5.4,5.7-8.3,8.3c-0.5,0.5-1.1,0.7-1.8,0.8
	c-4.5,0.5-9,0.3-13.5-0.3c-9.5-1.2-18.6-3.8-27.7-6.6c-7.5-2.4-14.9-4.9-22.4-7.3c-2.6-0.8-5.2-1.5-7.9-2.2c-0.1,0-0.3-0.1-0.4-0.2
	c1.1,0.1,2.2,0.2,3.4,0.3c8.8,1.2,17.5,2.5,26.3,3.7c9.5,1.3,18.9,2.4,28.5,2.4c8.1,0,16.2-0.9,24-3.2c1.4-0.4,2.8-0.9,4.2-1.4
	C174.9,149.7,175,149.8,175,149.8z"/>
<path style="fill:#FFFFFF;" d="M59.3,165.9c1.1,0.1,2.3,0.1,3.4,0.3c4.5,0.5,9.1,1.1,13.4,2.6c4.1,1.4,7.9,3.3,11.6,5.5
	c4.3,2.5,8.3,5.2,12.3,8.2c0.2,0.1,0.3,0.2,0.6,0.5c-6.2-0.7-12-2-17.7-3.9C73.7,175.8,65.3,170.9,59.3,165.9z"/>
<path style="fill:#FFFFFF;" d="M62.2,106.8c1.4,0,2.7,0,4,0c2.3,0.1,4.5,0.1,6.8,0.3c1.5,0.1,2.9,0.7,4.1,1.4
	c2.4,1.5,3.3,3.7,3.4,6.3c0.1,1.6,0,3.2-0.7,4.7c-1.2,2.6-3,4.2-6,4.4c-2.6,0.1-5.3,0.3-7.9-0.2c-1.2-0.2-2.3-0.7-3.4-1.2
	c-0.2-0.1-0.4-0.4-0.4-0.6c0-4.9,0-9.8,0-14.8C62.2,107.1,62.2,107,62.2,106.8z"/>
<path style="fill:#FFFFFF;" d="M62.3,96.3c0-2.5-0.1-4.9,0-7.3c0.1-1.5,0.9-2.6,2.1-3.5c3.2-2.3,8.1-1.8,11,0.9
	c2.6,2.5,1.8,8.3-2.3,9.4c-1.2,0.3-2.4,0.5-3.6,0.5c-2.3,0.1-4.6,0-6.9,0C62.5,96.3,62.4,96.3,62.3,96.3z"/>
</svg>
