<?xml version="1.0" encoding="utf-8"?>
<!-- Generator: Adobe Illustrator 26.1.0, SVG Export Plug-In . SVG Version: 6.00 Build 0)  -->
<svg version="1.1" id="Layer_1" xmlns="http://www.w3.org/2000/svg" xmlns:xlink="http://www.w3.org/1999/xlink" x="0px" y="0px"
	 viewBox="0 0 1056.6 202" style="enable-background:new 0 0 1056.6 202;" xml:space="preserve">
<style type="text/css">
	.st0{fill-rule:evenodd;clip-rule:evenodd;fill:#FFFFFF;}
	.st1{fill:#FFFFFF;}
</style>
<polygon class="st0" points="952.8,19.6 916.7,19.6 957.4,83.7 976.3,53.9 "/>
<polygon class="st0" points="1002.6,19.6 1038.6,19.6 995.7,87.4 959.7,87.4 "/>
<path class="st0" d="M999.7,128.2l-15.7-0.4l-5.2-14.8c-0.1-0.3-0.4-0.6-0.7-0.7c-0.6-0.2-1.3,0.1-1.5,0.7l-5.2,14.8l-15.6,0.4
	c-0.4,0-0.7,0.2-1,0.5c-0.4,0.5-0.3,1.3,0.2,1.7l12.4,9.5l-4.5,15c-0.1,0.3-0.1,0.7,0.2,1c0.4,0.5,1.1,0.7,1.6,0.3l12.9-8.9
	l12.9,8.9c0.3,0.2,0.7,0.3,1,0.2c0.6-0.2,1-0.8,0.8-1.5l-4.5-15l12.4-9.5c0.3-0.2,0.5-0.5,0.5-0.9
	C1000.9,128.8,1000.4,128.2,999.7,128.2z"/>
<path class="st0" d="M977.7,92.6c-23.9,0-43.2,19.4-43.2,43.2c0,23.9,19.4,43.2,43.2,43.2c23.9,0,43.2-19.4,43.2-43.2
	C1020.9,111.9,1001.6,92.6,977.7,92.6z M977.7,169.4c-19.4,0-35-15.7-35-35c0-19.4,15.7-35,35-35c19.4,0,35,15.7,35,35
	S997,169.4,977.7,169.4z"/>
<g>
	<path class="st1" d="M40.1,81.3H23.6V68.8H72v12.6H55.3v47.4h-15V81.3H40.1z"/>
	<path class="st1" d="M78.1,98.8c0-23.7,0.6-30.7,26-30.7s26,6.9,26,30.7s-0.6,30.7-26,30.7S78.1,122.5,78.1,98.8z M114.7,98.8
		c0-18.3-0.2-18.6-10.6-18.6s-10.8,0.5-10.8,18.6c0,18.3,0.3,18.6,10.8,18.6C114.6,117.4,114.7,117.1,114.7,98.8z"/>
	<path class="st1" d="M141.3,68.8h28.4c16.7,0,19,7.8,19,20.4c0,11.5-1.9,20.4-19,20.4h-13.3v19.3h-15V68.8z M163.5,97.6
		c9,0,10-1.3,10-8.4c0-7.3-0.9-8.3-10-8.3h-7.1v16.8H163.5z"/>
	<path class="st1" d="M232.5,117.1h29.2v11.8H218v-8.3c0-13.3,0.6-18.4,9.7-22.2l13.2-5.3c5-2.1,5.6-2.9,5.6-7.3
		c0-5.3-2.2-5.9-10.3-5.9c-3.8,0-10.8,0.6-17,1.3v-11c5.6-1.2,14.3-2,21.1-2c11.6,0,21.3,1.9,21.3,16.7c0,11.1-3.6,15.2-10,17.6
		l-14.9,5.9c-1.6,0.6-2.8,1.3-3.4,2.2c-0.7,1-0.9,2.4-0.9,5v1.6H232.5z"/>
	<path class="st1" d="M271.2,98.8c0-25.7,1.5-30.7,24-30.7c22.5,0,24,5.1,24,30.7c0,25.7-1.5,30.7-24,30.7S271.2,124.5,271.2,98.8z
		 M303.9,98.8c0-18.6-0.2-19.1-8.8-19.1c-8.6,0-8.8,0.5-8.8,19.1s0.2,19.1,8.8,19.1S303.9,117.4,303.9,98.8z"/>
	<path class="st1" d="M350.5,98.8c0-24.1,3-30.7,25.3-30.7c5.1,0,11.5,0.6,15.2,1.6v10.8c-5.4-0.6-9.4-0.8-11.6-0.8
		c-13.1,0-13.8,1.6-13.8,19.1c0,17.6,0.7,19.1,13.8,19.1c3.7,0,8.7-0.3,11.9-0.8v11.1c-3.9,0.8-10.4,1.3-15.5,1.3
		C353.4,129.5,350.5,122.9,350.5,98.8z"/>
	<path class="st1" d="M415,68.8h20.5l19.2,60.1h-15.4l-3.6-11.7h-21.3l-3.5,11.7h-15L415,68.8z M432.1,105l-6.9-23.3h-0.6l-6.8,23.3
		H432.1z"/>
	<path class="st1" d="M461.5,68.8H477l19.3,32.2h0.5V68.8h14.5v60.1h-14.1l-20.8-35.2H476v35.2h-14.5V68.8z"/>
	<path class="st1" d="M524,68.8h15v47.4h23.8v12.6H524V68.8z"/>
	<path class="st1" d="M571,68.8h15v60.1h-15L571,68.8L571,68.8z"/>
	<path class="st1" d="M619,98.8c0-24.1,3-30.7,25.3-30.7c5.1,0,11.5,0.6,15.2,1.6v10.8c-5.4-0.6-9.4-0.8-11.6-0.8
		c-13.1,0-13.8,1.6-13.8,19.1c0,17.6,0.7,19.1,13.8,19.1c3.7,0,8.7-0.3,11.9-0.8v11.1c-3.9,0.8-10.4,1.3-15.5,1.3
		C622,129.5,619,122.9,619,98.8z"/>
	<path class="st1" d="M683.4,68.8h20.5l19.2,60.1h-15.4l-3.6-11.7h-21.3l-3.5,11.7h-15L683.4,68.8z M700.7,105l-6.9-23.3h-0.6
		l-6.8,23.3H700.7z"/>
	<path class="st1" d="M729.6,128.1v-11.6c6.2,0.6,13.3,1,18.1,1c5.6,0,8.3-0.5,9.7-1.5c1.2-1.2,1.3-2.7,1.3-4.7
		c0-4.2-0.3-4.7-5.2-5.4l-11-1.4c-12.5-1.5-14.6-8.3-14.6-17.9c0-16.4,10-18.3,22.9-18.3c7.4,0,12.8,0.6,20,1.9v11.2
		c-6.4-0.6-11.2-1-17-1c-5,0-7.8,0.2-9.1,1c-1.6,0.8-1.6,2.2-1.6,4.4c0,4.1,0.2,4.7,5,5.3l12.8,1.6c4.4,0.6,8.1,1.5,10.4,5.2
		c1.6,2.3,2.5,6.2,2.5,11.9c0,17.9-9.4,19.8-21.6,19.8C743.2,129.5,736,129.1,729.6,128.1z"/>
	<path class="st1" d="M784.1,68.8h15v60.1h-15V68.8z"/>
	<path class="st1" d="M811.6,68.8h15.6l19.3,32.2h0.5V68.8h14.5v60.1h-14.1l-20.8-35.2h-0.3v35.2h-14.5V68.8H811.6z"/>
	<path class="st1" d="M872.4,98.8c0-23.7,0.6-30.7,26-30.7c25.5,0,26,6.9,26,30.7s-0.6,30.7-26,30.7
		C873,129.5,872.4,122.5,872.4,98.8z M909,98.8c0-18.3-0.2-18.6-10.6-18.6s-10.8,0.5-10.8,18.6c0,18.3,0.3,18.6,10.8,18.6
		C908.9,117.4,909,117.1,909,98.8z"/>
</g>
</svg>
