<?xml version="1.0" encoding="utf-8"?>
<!-- Generator: Adobe Illustrator 26.1.0, SVG Export Plug-In . SVG Version: 6.00 Build 0)  -->
<svg version="1.1" id="Layer_1" xmlns="http://www.w3.org/2000/svg" xmlns:xlink="http://www.w3.org/1999/xlink" x="0px" y="0px"
	 viewBox="0 0 358.8 60.6" style="enable-background:new 0 0 358.8 60.6;" xml:space="preserve">
<path style="fill:#FFFFFF;" d="M7,15.5c0.9-0.1,1.8-0.2,2.8-0.2c3.8,0,7.7,0,11.5,0.1c3.1,0.1,5.8,1.2,7,4.3c1.2,3,0.5,5.8-1.5,8.3
	c-0.9,1-1.8,2-3.1,3.3c3.4,3.7,6.8,7.5,10.2,11.3c0.4,0.4,0.9,0.6,1.4,0.8c3.4,1.4,5,0.5,5-3.1c0.1-7.2,0.1-14.3,0.1-21.5
	c0-1.6-0.6-2.8-2.5-2.8c-0.3,0-0.5-0.2-0.7-0.6c3.8,0,7.6,0,11.5,0c-0.1,0.3-0.1,0.4-0.2,0.5c-2.9,0.7-3,0.8-3,4
	c0,6.2,0,12.4,0,18.5c0,4.6,0.1,4.6,4.5,5.9c-0.6,0.2-1,0.5-1.3,0.5c-5.1,0-10.3-0.1-15.4,0c-3,0-5.2-1.3-7-3.6
	c-1.5-2-3.2-4-4.5-6.1c-1.3-2.3-3.1-2.9-5.6-2.4c0,3.2-0.1,6.4,0.1,9.7c0,0.5,1,1.1,1.7,1.4c0.6,0.3,1.3,0.2,1.9,0.3
	c0,0.2,0,0.3,0,0.5c-4,0-7.9,0-11.9,0c-0.1-0.2-0.3-0.3-0.4-0.5c3.8,0.3,3.5-2.2,3.5-4.3C11,33,11,26.2,11,19.4c0-2.7-0.1-2.7-4-3.5
	C7,15.8,7,15.7,7,15.5z M15.8,23.7c0,1.8,0,3.6,0,5.4c0,0.4,0.2,1,0.5,1.2c1.4,1,5.2,0.3,6.3-1.1c2-2.5,1.8-7.8-0.4-10.2
	c-1.4-1.5-3.2-2-5.2-1.7c-0.4,0.1-1.1,0.8-1.1,1.2C15.8,20.3,15.8,22,15.8,23.7z"/>
<path style="fill:#FFFFFF;" d="M64.3,55.6c0.2-0.3,0.4-1,0.6-1c2.5,0.1,3.6-1.6,4.4-3.6c2.4-5.7,4.9-11.5,7.3-17.2
	c2.5-5.8,4.9-11.6,7.4-17.4c0.3-0.7,0.7-1.3,1.4-2.5c0.7,1.4,1.2,2.2,1.6,3.2c3.1,7.4,6.2,14.8,9.2,22.3c1,2.5,2.2,5,5.7,4.8
	c-0.1,0.2-0.1,0.3-0.2,0.5c-4.1,0-8.2,0-12.3,0c0-0.1-0.1-0.2-0.1-0.3c0.8-0.3,1.7-0.7,2.7-1.1c-2.5-6.8-5-13.5-7.7-20.6
	c-1.4,3.3-2.5,6-3.6,8.8c-2.9,7-5.7,13.9-8.5,21c-0.7,1.8-1.7,3.2-3.9,3.3C67.1,55.6,65.7,55.6,64.3,55.6z"/>
<path style="fill:#FFFFFF;" d="M87.2,5.6c-3.5-0.1-4.1,2.6-5.1,4.9c-5,11-9.9,22-14.9,32.9c-0.3,0.7-0.8,1.4-1.5,2.5
	c-0.6-1.1-1.1-1.7-1.4-2.4c-3.2-7.6-6.4-15.3-9.5-23c-1-2.5-2.1-4.8-5.7-4.4c0.1-0.2,0.2-0.4,0.4-0.7c4.1,0,8.2,0,12.2,0
	c0,0.1,0,0.2,0.1,0.3c-0.3,0.1-0.6,0.3-0.9,0.3c-1.4,0.1-1.6,0.9-1.2,2.1c2.4,6.4,4.8,12.7,7.3,19.4c0.4-0.8,0.7-1.3,0.9-1.9
	c3.8-9.5,7.6-19,11.4-28.6c0.6-1.6,1.5-2.3,3.2-2.2c1.5,0.1,3,0,4.5,0C87.1,5.2,87.1,5.4,87.2,5.6z"/>
<path style="fill:#FFFFFF;" d="M102.5,15.5c3.9,0,7.9,0,11.9,0c-0.1,0.2-0.1,0.4-0.2,0.4c-3.4,0.5-3.3,0.6-3.3,4.1
	c0,6.5,0,13.1,0.1,19.6c0,2.2,0.7,2.8,2.9,3c0.4,0,0.9,0,1.3,0c4.9,0.1,4.9,0.1,7.1-3.7c0.2,0,0.3,0,0.5,0.1c-0.3,1.8-0.6,3.6-1,5.4
	c-0.1,0.3-0.8,0.5-1.3,0.5c-5.8,0-11.7,0-17.5,0c-0.1,0-0.3-0.1-0.4-0.2c0-0.2,0.1-0.4,0.1-0.4c2.7-0.4,2.8-0.3,2.9-3.7
	c0.2-6.7,0.1-13.5,0.1-20.2C105.7,16.8,105.7,16.8,102.5,15.5z"/>
<path style="fill:#FFFFFF;" d="M88.2,37.6c-3.3,3-2.9,2.8-6.6,0C83.8,34.9,85.1,34.9,88.2,37.6z"/>
</svg>
