<?xml version="1.0" encoding="utf-8"?>
<!-- Generator: Adobe Illustrator 26.1.0, SVG Export Plug-In . SVG Version: 6.00 Build 0)  -->
<svg version="1.1" id="Layer_1" xmlns="http://www.w3.org/2000/svg" xmlns:xlink="http://www.w3.org/1999/xlink" x="0px" y="0px"
	 viewBox="0 0 1056.6 202" style="enable-background:new 0 0 1056.6 202;" xml:space="preserve">
<g id="Livello_1_1_">
</g>
<g id="Layer_1_00000121280000816817959920000000882230360127541942_">
</g>
<g>
	<path style="fill:#FFFFFF;" d="M263.9,72.1h23.3l0.6,23.5h0.7l10.5-23.5h23.2l-10.7,50h-16.2l6-28.1h-0.8l-12.7,28.1h-11.3
		L275.8,94H275l-6,28.1h-15.7L263.9,72.1z"/>
	<path style="fill:#FFFFFF;" d="M320.2,113.4c0-2.7,0.3-5.9,1.1-9.8c2.8-13.7,4.2-19.2,20.9-19.2c13.1,0,16.5,2.1,16.5,8
		c0,2.8-1.1,7.6-1.9,11.2l-0.7,2.8h-20.2c-0.1,0.7-0.5,2.4-0.5,3c0,2.3,0.6,2.3,8.1,2.3c2.5,0,7.1-0.2,11.3-0.5l-2.1,10
		c-2.9,0.9-8.6,1.5-13.7,1.5C324.4,122.7,320.2,119.9,320.2,113.4z M343.5,100.3l0.2-1.2c0.3-1.7,0.5-2.5,0.5-3.3
		c0-1.5-0.7-1.5-2.6-1.5c-3.1,0-3.1,0.1-4.4,6H343.5z"/>
	<path style="fill:#FFFFFF;" d="M359.1,136l2-9.8h9.6c8,0,8.2,0,9.4-5.6c0.3-1.2,0.5-2.5,0.8-3.8h-0.7c-3.1,3.9-6.8,4.7-9.5,4.7
		c-7.2,0-9.4-2.8-9.4-7.8c0-1.9,0.3-4.1,0.9-6.6l4.7-22h15.6l-3.9,18.4c-0.5,2.4-0.8,3.9-0.8,4.7c0,1.3,0.6,1.3,2,1.3
		c2.5,0,2.7-0.1,4-6l3.9-18.4h15.6l-7,33.1c-2.6,12.4-3.6,19-23.8,19C367.5,137,362,136.6,359.1,136z"/>
	<path style="fill:#FFFFFF;" d="M407.1,85h15.2l-0.6,24h0.8l9.3-24h15.7l-17.4,37.1h-21.4L407.1,85z"/>
	<path style="fill:#FFFFFF;" d="M444.7,113.4c0-2.7,0.3-5.9,1.1-9.8c2.8-13.7,4.2-19.2,20.9-19.2c13.1,0,16.5,2.1,16.5,8
		c0,2.8-1.1,7.6-1.9,11.2l-0.7,2.8h-20.2c-0.1,0.7-0.5,2.4-0.5,3c0,2.3,0.6,2.3,8.1,2.3c2.5,0,7.1-0.2,11.3-0.5l-2.1,10
		c-2.9,0.9-8.6,1.5-13.7,1.5C448.9,122.7,444.7,119.9,444.7,113.4z M468,100.3l0.2-1.2c0.3-1.7,0.5-2.5,0.5-3.3
		c0-1.5-0.7-1.5-2.6-1.5c-3.1,0-3.1,0.1-4.4,6H468z"/>
	<path style="fill:#FFFFFF;" d="M494.8,68.1h15.8l-11.4,54h-15.8L494.8,68.1z"/>
	<path style="fill:#FFFFFF;" d="M513.5,85h15.8l-7.8,37.1h-15.8L513.5,85z M517,68.1h15.8l-2.3,11h-15.8L517,68.1z"/>
	<path style="fill:#FFFFFF;" d="M548.3,113.9c0-2.6,0.6-6.1,1.5-10.4c3.4-15.6,4.4-19.1,21-19.1c13.4,0,17.4,2.1,17.4,8.8
		c0,2.6-0.5,6.1-1.5,10.3c-3.5,15.6-4.6,19.1-21.1,19.1C552.3,122.7,548.3,120.6,548.3,113.9z M571.5,103.5c0.7-3.3,1-5.3,1-6.5
		c0-1.5-0.8-1.7-2.5-1.7c-3.1,0-3.1,0.4-4.7,8.2c-0.7,3.5-1.1,5.5-1.1,6.6c0,1.5,0.7,1.6,2.5,1.6
		C569.7,111.8,569.8,111.4,571.5,103.5z"/>
	<path style="fill:#FFFFFF;" d="M588.8,136l2-9.8h9.6c8,0,8.2,0,9.4-5.6c0.3-1.2,0.5-2.5,0.8-3.8h-0.7c-3.1,3.9-6.8,4.7-9.5,4.7
		c-7.2,0-9.4-2.8-9.4-7.8c0-1.9,0.3-4.1,0.9-6.6l4.7-22h15.6l-3.9,18.4c-0.5,2.4-0.8,3.9-0.8,4.7c0,1.3,0.6,1.3,2,1.3
		c2.5,0,2.7-0.1,4-6l3.9-18.4h15.6l-7,33.1c-2.6,12.4-3.6,19-23.8,19C597.2,137,591.7,136.6,588.8,136z"/>
	<path style="fill:#FFFFFF;" d="M633.5,114.8c0-2,0.7-5.6,1.4-9.1l4.4-20.7h15.5l-3.9,18.6c-0.5,2.3-0.9,4.6-0.9,5.5
		c0,1.4,0.5,1.5,1.7,1.5c2.8,0,3-0.4,4.2-6l4.2-19.6h15.5l-7.8,37.1h-15l0.6-4.1h-0.7c-3.1,3.9-7.2,4.7-10,4.7
		C635.5,122.7,633.5,120,633.5,114.8z"/>
	<path style="fill:#FFFFFF;" d="M682.2,85h15l-0.6,4.1h0.7c3.1-3.9,7.2-4.7,10-4.7c7,0,9,2.5,9,7.6c0,2-0.6,5.6-1.3,9.1l-4.5,21
		h-15.5l3.9-18.6c0.5-2.3,0.9-4.6,0.9-5.5c0-1.4-0.5-1.5-1.7-1.5c-2.8,0-3,0.4-4.2,6l-4.2,19.6h-15.5L682.2,85z"/>
	<path style="fill:#FFFFFF;" d="M728.4,68.1h15.8l-11.4,54h-15.8L728.4,68.1z"/>
	<path style="fill:#FFFFFF;" d="M740.9,113.9c0-2.6,0.3-6,1.2-10.2c3.1-15.1,7-19.2,14.4-19.2c4,0,7.7,0.5,9.6,4.2h0.7l1.2-3.7H783
		l-7.8,37.1h-15l0.7-4.1H760c-2.6,3.9-6,4.7-9.3,4.7C744.1,122.7,740.9,120.7,740.9,113.9z M762.3,108.8c0.7-2,2.3-9,2.3-10.8
		c0-1.5-0.5-1.6-2.4-1.6c-3,0-3.1,0.1-4.6,7.1c-0.7,2.9-0.9,4.6-0.9,5.7c0,1.4,0.7,1.5,2.5,1.5C761.2,110.7,761.7,110.5,762.3,108.8
		z"/>
	<path style="fill:#FFFFFF;" d="M789.6,85h15l-1,6.2h0.7c3.2-5.5,5.9-6.8,12.6-6.8L814,97.9c-9.7,0-12,1.8-14.1,11.7l-2.7,12.4
		h-15.5L789.6,85z"/>
</g>
<path style="fill:#FFFFFF;" d="M200.6,144.7c-0.2,7.9-1.8,15.5-4.9,22.7c-5.1,12.1-14.3,19.6-26.9,22.8
	c-22.4,5.7-45.5-6.7-53.5-28.7c-2-5.4-3.3-11-3.3-16.8c-0.1-11.7,4.3-21.2,14.3-27.6c4.5-2.8,9.5-4.1,14.9-3.7c2,0.2,4,0.6,6,1
	c3.5,0.6,6.7,0.1,9.8-1.7c2.4-1.4,4.9-2.6,7.5-3.4c5.5-1.9,11-1,16.2,1.4c11.7,5.4,18.2,14.7,19.7,27.4c0.1,1.1,0.2,2.2,0.3,3.4
	C200.6,142.5,200.6,143.6,200.6,144.7z M187.5,139.4c0-4.2-1.2-8-3.7-11.4c-2.5-3.3-6.6-4.6-10.3-3c-2,0.9-2.1,1.7-1.3,3.3
	c0.6,1.3,1.3,2.5,1.9,3.8c1.8,4.5,2,9.2,1.5,14c-0.2,1.5-0.4,3-0.5,4.5c-0.1,1.3,0.5,2.2,1.5,2.9c3,1.9,6.5,0.9,8.1-2.4
	C186.4,147.4,187.4,143.5,187.5,139.4z"/>
<path style="fill:#FFFFFF;" d="M18.4,144.3c0-8.5,1.7-15.9,6.6-22.4c4.8-6.4,11-10.7,18.9-12.5c4.4-1,8.6-0.1,12.7,1.5
	c2.5,1,5.1,2,7.6,2.9c2.3,0.9,4.7,1,7.1,0.3c2.8-0.8,5.6-1.4,8.5-1.2c9,0.4,16.1,4.2,21.3,11.5c4.6,6.4,6.5,13.6,6,21.4
	c-0.5,7.2-2,14.2-5.3,20.8c-6.9,13.7-18,21.8-33,24.6c-11.4,2.1-22-0.2-31.6-6.6c-5.4-3.6-9.4-8.5-12.3-14.3
	C20.7,162,18.5,153.1,18.4,144.3z M94.1,142.4c0-4.2-1-7.7-3.2-10.7c-1.8-2.6-6.4-3.9-9.3-2.7c-1.2,0.5-1.6,1.1-1.2,2.4
	c0.1,0.5,0.3,1,0.5,1.5c1.5,4.2,1.7,8.6,0.9,13c-0.5,2.7-1.4,5.3-2,7.9c-0.4,1.3-0.2,2.5,0.9,3.5c2.5,2.4,6.1,2.2,8.2-0.7
	C92,152.2,93.9,147.4,94.1,142.4z"/>
<path style="fill:#FFFFFF;" d="M113.6,36.2c26.7-1.9,52.8-0.4,78,9.3c-0.2-0.2-0.5-0.5-0.7-0.7c-6.3-4-13-6.9-20.1-9.2
	c-8.9-2.9-18.1-4.6-27.4-5.7c-8.9-1-17.8-1.4-26.8-1.1c-0.1,0-0.3,0-0.5-0.2c1.6-0.9,3.2-1.8,4.8-2.7c7.7-3.9,15.9-6.3,24.5-7.1
	c13.2-1.2,25.7,1.4,37.6,7.4c9.8,5,18.2,11.7,25.8,19.5c0.3,0.3,0.6,0.6,0.9,0.9c2.3,2.4,1.6,5.8-1.4,7c-2.7,1.1-5.5,2.2-8.3,3.1
	c-6.9,2.3-14.1,3.7-21.4,4.3c-15.1,1.3-29.6-1-43.1-7.9c-8.1-4.2-15.2-9.7-21.4-16.3C114,36.6,113.9,36.5,113.6,36.2z"/>
<path style="fill:#FFFFFF;" d="M149.3,104.6c-1.6-0.3-2.9-0.6-4.3-0.8c-2.5-0.2-5-0.3-7.6-0.5c-0.4,0-0.8-0.1-1.1-0.4
	c-3.4-3.9-6.7-7.8-10.1-11.6c-12.8-14.4-21.6-30.8-26.1-49.5c0-0.1-0.1-0.2-0.2-0.4c-0.6,0.8-1.1,1.4-1.7,2
	c-7.7,10-13.1,21.1-16.6,33.1c-1.9,6.4-3.1,12.9-4.7,19.4c-0.5,2.2-1.2,4.4-1.8,6.6c-0.1,0.3-0.4,0.7-0.7,0.8
	c-1.9,0.4-3.8,0.8-5.7,1.2c-0.5,0.1-1.1,0-1.7-0.1c-0.9-0.3-1.9-0.6-2.8-1c0.8-2.7,1.8-5.2,2.4-7.9c1.1-4.5,2.1-9.1,3.2-13.7
	c2.8-10.6,7.3-20.6,12.5-30.2c4.1-7.4,8.5-14.5,13.6-21.2c0.8-1,0.6-2.2,0.4-3.3c-0.6-3.5-1.4-6.9-1.9-10.4c-0.2-1.3-0.2-2.7,0-3.9
	c0.5-2.7,2.5-4.4,5.5-4.6c2.8-0.2,5.7-0.2,8.4,0.5c4.5,1.1,6.6,4.8,5.5,9.3c-1.2,4.7-2.4,9.4-4.3,13.8c0,0.1,0,0.1-0.1,0.2
	c-1.2,1.5-1,3.2-0.5,5c3.4,12.8,8,25.1,15,36.4c2.9,4.7,6.3,9.1,10.2,13.2c4.9,5.2,9.7,10.4,13.7,16.3
	C148.5,103.3,148.8,103.9,149.3,104.6z"/>
</svg>
