<?xml version="1.0" encoding="utf-8"?>
<!-- Generator: Adobe Illustrator 26.1.0, SVG Export Plug-In . SVG Version: 6.00 Build 0)  -->
<svg version="1.1" id="Layer_1" xmlns="http://www.w3.org/2000/svg" xmlns:xlink="http://www.w3.org/1999/xlink" x="0px" y="0px"
	 viewBox="0 0 1056.6 202" style="enable-background:new 0 0 1056.6 202;" xml:space="preserve">
<path style="fill:#FFFFFF;" d="M818.3,98.4c3.9,1.3,6.6,2.3,10.8,3.7c-1.8-16.7,0.4-32.1,10.8-44.8c9.7-11.8,20-23.1,31-35.7
	c2.4,5.5,3.8,8.9,6.2,14.3c2.9-9.8,5.2-17.9,7.8-26.6c16.8,9.8,35.6,15.8,47.4,32.2c4.7,6.5,9.9,9.2,17.4,4.7
	c1.4-0.9,3.4-0.9,5.6-1.5c7.2,15.1,14.6,29.7,21.2,44.7c1.5,3.4,0.3,8.1-0.2,12.1c-1,8.6-2.4,17.2-3.7,26.4
	c3.7-0.8,6.5-1.4,10.6-2.2c-5.1,12.6-9.6,24.3-14.7,35.7c-1,2.1-3.9,3.9-6.4,4.8c-15.1,5.7-30,13.1-45.7,16.2
	c-12.7,2.5-26.4,0-39.6-0.7c-3.5-0.2-6.7-2.7-10.2-3.3c-19.3-3-31.5-14.5-38.3-32.1c-1.9-5-3.4-10.2-4.4-15.4
	C821.8,120.5,820.2,109.9,818.3,98.4z M948.4,77.9c-32.2,0-64.2,0-96.7,0c0.5,11.8,1,22.2,1.5,32.6c11.2,0,21.6,0,32.5,0
	c0.8,17.9,1.6,35.3,2.5,54.1c5.3,0,10.6,0,15.9,0c10.5,0,10.6,0,11.1-10.1c0.8-14.8,1.5-29.7,2.3-45.2c10.2-0.5,20.1-0.9,31-1.4
	C948.4,97.2,948.4,87.1,948.4,77.9z"/>
<path style="fill:#FFFFFF;" d="M297.4,113.5c-0.8-12.8-1.4-25.6-2.5-38.4c-0.5-6.1,1.8-8.3,7.7-8.5c20.9-0.7,18.1-2.3,18.3,16.6
	c0.3,27.8,0.4,55.5,1.1,83.3c0.2,6.6-2.1,8.6-8.4,8.4c-21.4-0.7-15.9,3.4-23.2-16.4c-2.8-7.4-5.3-14.9-9.5-22.2
	c0.6,10.2,0.9,20.4,1.8,30.6c0.6,6.2-1.6,8.3-7.8,7.8c-20.2-1.6-17.8,1.1-18.4-18.3c-0.8-26.5-1.4-52.9-2.4-79.4c-0.2-6,2-8,7.7-8.8
	c16.7-2.2,16.6-2.4,22.4,13.4c3.9,10.8,7.8,21.5,11.8,32.3C296.4,113.8,296.9,113.6,297.4,113.5z"/>
<path style="fill:#FFFFFF;" d="M738.1,141.4c-0.4,7.9-0.9,15.8-1,23.7c-0.1,5.2-1.8,8-7.5,8.5c-21,1.8-18.1,4.3-18.7-16
	c-0.8-26.7-1.3-53.5-2.3-80.2c-0.3-7.5,1.9-11.3,9.7-11c1.3,0,2.6-0.1,3.8-0.3c15.1-2,15.7-4.9,15.4,14.5c-0.1,8.4,0,16.9,0,27
	c9.3-9.2,12-19.4,11.2-30.2c-0.7-8.2,1.4-11.2,9.9-12c20.1-1.9,20.2-2.1,19.4,18.2c-0.6,15-7.3,27.1-18.4,37.4
	c10.8,12,17.3,26.1,21.8,41.2c2.3,7.6,1.4,9.1-6.5,10c-5.9,0.7-13,3.2-17.3,0.8c-4-2.2-4.7-9.9-7.3-15c-3.1-6.1-6.6-11.9-10-17.8
	C739.6,140.7,738.9,141,738.1,141.4z"/>
<path style="fill:#FFFFFF;" d="M140.4,141.1c0.5,10,0.9,20,1.7,29.9c0.4,5.3-1.6,7.3-6.9,7.6c-19.1,1-19.2,1.1-19.9-18.5
	c-1-28.2-1.7-56.5-3-84.7c-0.3-7.2,2.3-9.4,9.2-9.3c16.8,0.1,16.9-0.2,17.9,16.9c0.6,10.7,1.1,21.5,1.7,32.1c6.1,1.8,8-0.8,8-6
	c0-10.5,0.1-21.1,0-31.6c-0.1-5.9,2-8.4,8.2-7.7c22.1,2.4,18.6-2.3,18.8,19.7c0.2,26.5-0.2,52.9,0,79.4c0,6-1.6,8.2-7.9,7.7
	c-19.5-1.6-19.5-1.3-20.1-21.2c-0.1-3.6,0.2-7.3-0.7-10.7c-0.5-2-2.9-3.6-4.5-5.4C142,139.7,141.2,140.4,140.4,141.1z"/>
<path style="fill:#FFFFFF;" d="M556.8,107.1c6.6-10.8,10.7-21.5,11.7-33.1c0.5-5.8,2.6-7.8,8.5-8.1c17.8-0.8,18.1-0.6,16.1,17.2
	c-1.7,15.5-8.2,29-17.8,41.6c10.7,11.8,15.5,26,18.8,40.9c1.5,6.5,0,10.1-7.4,9.3c-0.8-0.1-1.5,0-2.3,0.1
	c-13.1,0.8-12.7,0.7-17.3-11.6c-2.7-7.2-6.7-13.8-10.1-20.7c-0.9,0.3-1.8,0.6-2.7,0.9c0,7.8-0.1,15.7,0.1,23.5c0.1,5-1.8,7.2-7,8
	c-21.1,2.9-17.8,2.7-18.1-14.7c-0.5-27.8-0.9-55.5-1.9-83.3c-0.3-7.4,2.2-9.8,9.2-9.2c4.3,0.4,8.7,0.2,13.1-0.1
	c5.4-0.3,7.4,2.1,7.3,7.3C556.7,85.2,556.8,95.5,556.8,107.1z"/>
<path style="fill:#FFFFFF;" d="M245.5,106.6c-0.6,14.4-0.8,27.5-1.9,40.6c-1.7,20.3-12.7,29.6-32.6,28.5
	c-14.2-0.8-25.7-11.2-26.1-25.5c-0.9-26.2-0.8-52.4-1.2-78.6c-0.1-5.1,2.3-6.9,7.2-6.3c24.1,3.2,20.2-1.8,20.3,22.7
	c0.1,18-0.5,36-0.4,53.9c0,4.4-1.4,10.6,5.2,11.6c0.9,0.1,4.2-7.3,4.3-11.3c0.5-23.1,0.6-46.3,0.3-69.4c-0.1-7,1.6-10.2,9.2-10.4
	c15.8-0.5,16.6-4.4,15.8,15.3C245.3,87.9,245.5,98,245.5,106.6z"/>
<path style="fill:#FFFFFF;" d="M459.6,118.3c0-14.6,0.2-29.3-0.1-43.9c-0.1-5.4,1.6-8.3,7.2-8.5c9.2-0.4,18.5-1.6,27.6-1
	c14.2,0.9,23.3,9.3,26.1,23.2c2.9,14.5,2.9,28.6-7.7,40.8c-1.4,1.7-1.7,5.2-1.2,7.6c2.2,9.8,4.8,19.4,7.5,29
	c1.5,5.1-0.2,7.3-5.3,7.6c-2.1,0.1-4.1,0.2-6.1,0.6c-6.5,1.4-10-0.6-11.1-7.7c-1.3-8.1-3.5-16.1-5.8-23.9c-0.5-1.8-3.1-3-4.7-4.5
	c-1,1.7-2.9,3.4-2.9,5.1c-0.3,8-0.2,15.9-0.1,23.9c0.1,4.6-1.8,6.8-6.5,6.3c-0.3,0-0.5,0-0.8,0c-14.5-0.2-15-0.6-15.1-15.1
	c-0.1-13.1,0-26.2,0-39.3C460.3,118.3,459.9,118.3,459.6,118.3z M482.9,115.7c4-1.2,7.2-1.8,10.1-3.2c6.1-3,6.5-8.7,5.7-14.6
	c-0.8-5.6-3.6-9.5-9.4-10.9c-4-0.9-6.5-0.3-6.4,4.6C483,99.3,482.9,106.9,482.9,115.7z"/>
<path style="fill:#FFFFFF;" d="M332,119.5c0-15.7,0.1-31.3-0.1-47c-0.1-6.2,2.3-9.1,8.7-8.3c8.9,1.2,18,1.4,26.6,3.8
	c13.9,3.8,23.1,13.7,23.8,28.1c0.7,16.3-0.5,32.7-2,49c-1,11.3-8.7,19-19.2,22c-10.5,3-21.5,4-32.4,5.6c-7,1-8.6-2.9-8.5-9.3
	c0.3-14.6,0.1-29.3,0.1-43.9C330.1,119.5,331.1,119.5,332,119.5z M353.6,149.4c11-4.1,14.1-12.4,14-36.7c0-9.5,0.9-19.6-11.2-25.7
	C355.4,108.4,354.5,128.5,353.6,149.4z"/>
<path style="fill:#FFFFFF;" d="M661.9,121.5c0,6.8-0.2,13.7,0.1,20.6c0.1,3,0.2,6.6,1.7,8.9c1.7,2.6,5.1,5.3,7.9,5.4
	c1.8,0.1,4.1-4.2,5.5-6.9c0.8-1.4-0.4-3.8,0.3-5.3c0.9-2,2.6-4.7,4.3-5.1c4.5-0.8,9.2-0.8,13.8-0.4c1.6,0.2,3.9,2.4,4.4,4.2
	c3.4,11.7-2.8,24.5-13.9,29.4c-24.8,11-47.7-1.9-48.9-28.8c-0.8-17.6,0.3-35.4,2-53c1.4-14.8,12.2-24,26.1-24.7
	c20.4-1,33.7,6.7,37.8,22c2.4,9,0.7,11.3-8.4,11.1c-2.8-0.1-5.7-0.1-8.5,0c-5,0.3-8.3-0.6-8.6-6.9c-0.1-2-4.1-5.4-6.3-5.4
	c-2.3,0-6.2,3.2-6.5,5.4C663.3,101.8,662.8,111.6,661.9,121.5z"/>
<path style="fill:#FFFFFF;" d="M426.2,156.1c7.1-0.5,13.5-0.7,19.8-1.4c5.8-0.6,8.2,1.6,7.6,7.3c-0.2,2.3-0.3,4.6-0.2,6.9
	c0.2,4.9-1.9,6.9-6.9,6.8c-13.1-0.2-26.2-0.2-39.3,0c-5.1,0.1-6.9-2.2-6.9-6.9c-0.4-31.6-0.9-63.2-1-94.8c0-2,3.2-5.7,5.1-5.8
	c13.8-0.8,27.7-1,41.6-0.8c1.9,0,4.8,2.9,5.3,4.9c3.9,15.8,2.3,17.6-13.9,17.6c-4,0-8.1,0-13,0c0,5.7,0,10.6,0,15.4
	c0,2.3,0.3,4.5,0.4,7.2c4.3,0,8,0.2,11.8-0.1c6.1-0.5,9.6,1.2,8,8.2c-0.3,1.2-0.4,2.6-0.3,3.8c0.5,7.2-2.6,10.4-10,9.8
	c-2.7-0.2-5.5,0.5-8.3,0.7C426.2,142.3,426.2,148.9,426.2,156.1z"/>
<path style="fill:#FFFFFF;" d="M86.6,92.4c0,23.3-0.1,45.6,0,67.9c0,14.6,1.2,13.3-12.7,14.4c-14.8,1.2-14,2.4-14.8-13.1
	c-1.2-22.8-2.1-45.6-3.2-69.1c-5,0-9.3-0.3-13.6,0.1c-5.4,0.5-7.2-2-7.6-7.1c-1.5-21.2-2.2-17.6,15.5-18.4
	c15.1-0.6,30.3-0.8,45.4-1.5c5.7-0.3,8.5,1.3,8.8,7.5c1.1,20.6,2.7,19.2-15.8,18.9C87.7,92,86.7,92.4,86.6,92.4z"/>
<path style="fill:#FFFFFF;" d="M601.6,119.5c0-15.4,0.2-30.8-0.1-46.2c-0.1-5.6,2.2-7.7,7.4-8.4c20.2-2.8,20.1-2.9,20.2,17.4
	c0.2,26.5,0.4,52.9,1,79.3c0.2,7.1-2.3,9.4-9.2,9.6c-19.4,0.7-19.4,0.9-19.4-18.6C601.6,141.6,601.6,130.5,601.6,119.5z"/>
</svg>
