<?xml version="1.0" encoding="utf-8"?>
<!-- Generator: Adobe Illustrator 26.1.0, SVG Export Plug-In . SVG Version: 6.00 Build 0)  -->
<svg version="1.1" id="Layer_1" xmlns="http://www.w3.org/2000/svg" xmlns:xlink="http://www.w3.org/1999/xlink" x="0px" y="0px"
	 viewBox="0 0 1056.6 202" style="enable-background:new 0 0 1056.6 202;" xml:space="preserve">
<path style="fill:#FFFFFF;" d="M83.2,178.5c6.7,4.4,13.8,3.3,18-2.6c2.2-3.1,4-6.5,5.7-9.8c13.1-24.7,25.6-49.6,36.1-75.5
	c0.8-1.9,4.1-3.7,7.8-4.4c0,0.1-0.1,0.2-0.1,0.2c-5.1,2.1-6.9,6.6-8.9,11.3c-10.5,25-22,49.5-35,73.3c-1.5,2.8-3.2,5.5-5.2,7.8
	c-5.3,5.9-16.3,5.2-21.2-1.1c-0.1-0.1-0.1-0.2-0.2-0.2c-3.9-4.8-3.9-4.8-0.5-9.9c14.4-21.8,28.4-43.7,40.3-67c0.5-1.1,1-2.1,1.8-3.6
	c-14.2,1.4-28.1,2.6-41.4-2.9c14.8,3.9,29.3,2.2,43.8-1.2c0-0.5-0.1-0.9-0.1-1.4c-3.8,0.5-7.6,1-11.4,1.4c-10.4,0.9-20.8,0.7-31-1.9
	c-5.1-1.3-7.8-5-7-9.7c0.7-4.6,4.3-7.4,9.4-7.1c2.3,0.2,4.6,0.8,6.7,1.6c11.5,4.2,23.3,7.1,35.6,6.8c1,0,2.4-0.7,2.8-1.5
	c5.8-13.3,11.1-26.8,12.5-41.4c0.2-2.3-0.1-4.8-0.6-7.1c-1-3.9-3.7-5.7-7.6-4.7c-3.5,0.8-7.1,1.9-10.1,3.8
	c-6.7,4.2-13.2,8.6-19.3,13.6c-19.5,15.9-37,33.9-54.4,51.9c-1.3,1.3-2.6,2.6-4.2,3.6c0.1-0.3,0.2-0.6,0.4-0.8
	c18.9-21.7,38.6-42.8,61.3-60.6c5.5-4.3,11.5-7.9,17.5-11.3c4.5-2.6,9.6-4.1,15.2-1.6c-1.4-2.8-3.4-4.3-5.9-4
	c-3,0.3-6.2,0.7-8.8,2.1c-5.8,3.1-11.5,6.5-16.7,10.5c-18.4,14-34.5,30.5-50.3,47.3c-7.4,7.8-14.6,15.9-21.7,24c-1.8,2-3.4,3-6,1.6
	c0.1-0.2,0.2-0.6,0.4-0.8C51.2,81.1,72.5,56,97.3,34c7.9-7,16.2-13.4,25.5-18.4c5.3-2.8,10.7-5.2,16.8-5.5
	c9.2-0.5,14.4,3.7,15.9,12.7c1.5,9.2,0.2,18.2-2,27c-2.5,10.2-5.6,20.2-8.6,30.6c3.7-1.1,7.5-2.2,11.5-3.3c-0.6,2.2-1.4,4.2-3.9,5
	c-1.9,0.7-3.6,2-5.6,2.4c-3.8,0.8-5.5,3.2-6.8,6.7c-11,28.1-25.1,54.6-39.1,81.2c-2.2,4.2-6.2,5.4-10.5,5.9
	C88.2,178.8,86,178.5,83.2,178.5z"/>
<path style="fill:#FFFFFF;" d="M158,156.4c-1.9,1.8-3.3,1.2-4.5-0.5c-4.5-6.1-6.1-13.2-6.9-20.6c-0.6-5.2,0.3-10.3,1.9-15.3
	c8.6-26.6,19.9-52.1,32.3-77.2c2.8-5.7,5.7-11.5,8.6-17.2c3.3-6.3,14.4-9.4,20.6-5.9c2.7,1.5,3,3.4,1.1,6.6
	c-4.5,7.5-9.1,14.9-13.5,22.4c-13.1,22.6-25,45.7-35.5,69.6c-3.3,7.6-6.1,15.6-6.7,24C154.8,147.2,155.4,152,158,156.4z"/>
<path style="fill:#FFFFFF;" d="M183.4,141.2c-0.3-0.5-0.4-1.1-0.8-1.4c-7.1-7.4-7.7-16.2-5.3-25.4c4.1-15.8,12.9-28.4,26.5-37.5
	c4.3-2.9,8.9-5.1,14.2-5.3c2.5-0.1,5.2,0.3,7.6,1.3c6.9,2.7,8.8,6.9,7,14.1c-2.9,11.7-9.3,20.8-20,26.5c-6,3.2-12.2,5.7-18.5,8.2
	c-2.2,0.9-3.4,1.9-3.2,4.3c0.2,2.7,0.1,5.4,0.8,8c0.9,3.8,3.4,5.7,7.2,4.8c4.2-0.9,8.5-2.3,12.1-4.5c4.6-2.8,8.6-6.7,12.8-10.2
	c0.4-0.3,0.8-0.7,1.4-1.2c0.8,0.9,1.5,1.7,2.4,2.6c-5.8,7-11.7,13.6-19.6,18.1c-7.6,4.4-14.8,3-21.9-1.2c-0.8-0.5-1.6-0.9-2.4-1.3
	C183.7,141.2,183.5,141.2,183.4,141.2z M222.7,85.8c-12,0.6-28.8,18.9-29.4,30.9c12.3-4.4,25.9-16.8,27.4-25.2
	c-9.1,3.1-15.3,9.5-21,16.8c-0.1-0.4-0.2-0.6-0.2-0.7c5.2-8.6,11.6-15.9,21.1-19.9C221.5,87.4,222,86.4,222.7,85.8z"/>
<path style="fill:#FFFFFF;" d="M281.8,133.7c-1.4,1.3-2.7,0.8-4-0.9c-5.3-6.8-7-14.4-5.1-22.8c1.4-6.3,2.8-12.7,4.2-19
	c-6.1-1.1-13.3,5-24.4,20.4c2.2-6,5.5-11.3,9.8-16c4.3-4.7,9.5-8,16.2-8.8c-0.1-0.4-0.2-0.7-0.3-1.1c-1-0.1-2-0.3-3-0.2
	c-4.1,0.4-7.6,2.3-10.7,4.9c-8.7,7.3-13.9,16.8-16.3,27.8c-1.2,5.3,1.1,7.5,6.4,6.2c4.3-1,8.5-2.6,12.8-4c1.3,2.2,0.8,3.7-1.7,4.8
	c-4.5,2-8.7,4.5-13.3,6.4c-8.9,3.6-14.7,0.2-16.3-9.2c-0.9-5.3-0.2-10.5,1.3-15.7c3.2-11.2,9-20.7,18-28.2
	c7.7-6.4,16.2-9.7,26.3-5.6c0.6,0.3,1.4-0.1,2.1,0c2.4,0.2,4.9,0.2,7.1,0.9c3.3,1,3.9,3.1,2.6,6.3c-3.9,10-8.1,19.9-11.5,30.1
	c-1.5,4.6-1.9,9.8-2.1,14.7C279.7,127.6,281.1,130.4,281.8,133.7z"/>
<path style="fill:#FFFFFF;" d="M210.5,177.5c0,4.2,0.1,7.9-0.1,11.6c0,0.9-0.9,2.5-1.6,2.6c-1.8,0.3-1.9-1.3-1.9-2.7
	c0-6.7-0.1-13.3,0-20c0.1-5.4,2.6-9.5,7.8-11.4c4.8-1.8,9.4-1.2,13.2,2.4c4,3.7,4.9,8.5,3.2,13.5C228.5,181.7,218,184.6,210.5,177.5
	z M228.5,169c0-5.2-4.1-9.3-9.1-9.2c-5.1,0.1-8.9,4.1-8.9,9.4c0,5.3,4,9.3,9.1,9.2C224.7,178.4,228.5,174.3,228.5,169z"/>
<path style="fill:#FFFFFF;" d="M210.1,33.5c-0.4,0.9-0.8,1.8-1.3,2.6c-14.2,28-28.5,56.1-42.6,84.1c-4.6,9.1-7.5,18.8-6.9,29.2
	c0.1,2.2,0.5,4.4,0.3,6.7c-0.5-2.7-1.2-5.4-1.4-8.2c-0.6-7.9,0.3-15.7,3.6-22.9c7.9-17,15.7-34,24.3-50.6
	c6.8-13.2,14.6-25.9,21.9-38.7c0.5-0.8,1-1.6,1.5-2.4C209.8,33.3,209.9,33.4,210.1,33.5z"/>
<path style="fill:#FFFFFF;" d="M271.3,177.5c-3,3.1-6.4,4.4-10.5,4c-6.5-0.7-11-6-10.7-13c0.3-6.6,5.2-11.6,11.7-11.8
	c6.9-0.3,12.5,4.3,13,10.7c0.3,3.8,0.2,7.6,0.1,11.4c0,0.8-1,1.7-1.5,2.5c-0.6-0.8-1.3-1.6-1.9-2.5
	C271.3,178.6,271.3,178.2,271.3,177.5z M253.5,169.2c0,5.3,3.9,9.3,9.1,9.2c5.1,0,9-4.1,8.9-9.4c0-5.3-4-9.3-9.1-9.3
	C257.2,159.9,253.4,163.9,253.5,169.2z"/>
<path style="fill:#FFFFFF;" d="M290.8,176.1c2.6-5.8,5-11,7.4-16.2c0.3-0.7,0.5-1.5,1-2c0.5-0.5,1.3-0.6,2-0.9
	c0.3,0.8,0.7,1.5,0.8,2.3c0.1,0.4-0.3,0.8-0.5,1.3c-4.5,9.8-8.9,19.6-13.4,29.3c-0.2,0.3-0.2,0.8-0.5,1c-0.6,0.4-1.3,0.7-2,1
	c-0.3-0.7-1-1.6-0.8-2.2c0.7-2.1,1.5-4.2,2.7-6.1c1.6-2.6,1.2-4.9-0.2-7.5c-2.7-5.2-5.1-10.5-7.7-15.7c-0.6-1.2-1.5-2.5,0.3-3.3
	c1.8-0.8,2.2,0.8,2.7,2C285.3,164.5,287.9,170.1,290.8,176.1z"/>
<path style="fill:#FFFFFF;" d="M238.1,161.3c0-4-0.1-8,0.1-12c0.1-1,1.1-2,1.7-2.9c0.6,1,1.6,2,1.6,3c0.1,7.7,0.1,15.4,0.1,23.1
	c0,2.8,0,5.6,4,5.6c0.4,0,1.3,1.2,1.2,1.5c-0.3,0.7-1,1.6-1.7,1.7c-2.8,0.7-5.8-1.4-6.5-4.7c-0.4-2-0.4-4-0.5-6.1
	C238,167.4,238.1,164.4,238.1,161.3z"/>
<path style="fill:#FFFFFF;" d="M194.1,126c3.4-1.6,6.9-3.1,10.2-4.8c3.8-2,7.7-4.1,11.3-6.5c9.6-6.1,14.8-15.3,17.8-26
	c0.2-0.6,0.4-1.2,0.8-1.7c-0.6,8.3-3.1,16-8.6,22.3C217.4,119,206.1,123.2,194.1,126z"/>
<path style="fill:#FFFFFF;" d="M285.4,131.5c-3.3-5.5-3.4-11.5-2-17.5c2.5-11.2,7.1-21.6,12.5-31.7c0.1-0.2,0.4-0.3,1.1-1.1
	c-2.3,6.5-4.3,12.3-6.3,18.2c-1.9,5.6-3.8,11.2-5.3,16.9C284,121.4,283.9,126.5,285.4,131.5z"/>
<path style="fill:#FFFFFF;" d="M183.4,141.2c0.1,0,0.3,0,0.4,0c7.5,8.4,17.5,9.8,26.7,3.4c4.4-3,8.2-6.9,12.2-10.5
	c0.7-0.6,1-1.7,1.9-2.2c-3.9,10.2-17.1,19.4-26.4,19.2C191.8,151,185.2,146.6,183.4,141.2z"/>
<path style="fill:#FFFFFF;" d="M266.5,127.8c-4.7,4.3-10.1,7.6-16.2,9.3c-7.5,2-13.6-1.8-14.3-9c0.5,0.8,0.9,1.4,1.3,2
	c2.6,4.1,6.3,6,10.9,4.6c5.1-1.5,9.9-3.6,14.8-5.5C264.2,128.7,265.3,128.2,266.5,127.8z"/>
</svg>
