<?xml version="1.0" encoding="utf-8"?>
<!-- Generator: Adobe Illustrator 26.1.0, SVG Export Plug-In . SVG Version: 6.00 Build 0)  -->
<svg version="1.1" id="Layer_1" xmlns="http://www.w3.org/2000/svg" xmlns:xlink="http://www.w3.org/1999/xlink" x="0px" y="0px"
	 viewBox="0 0 1056.6 202" style="enable-background:new 0 0 1056.6 202;" xml:space="preserve">
<g id="Livello_1_1_">
</g>
<g id="Layer_1_00000121280000816817959920000000882230360127541942_">
</g>
<path style="fill:#E3A355;" d="M841,177.1H703.9l-7.6-15.2h152.3L841,177.1z"/>
<path style="fill:#FFFAEE;" d="M841,24.7H703.9l-7.6,137.1h152.3L841,24.7z"/>
<path style="fill:#E3A355;" d="M528.7,116.1H681l-7.6,60.9H536.3L528.7,116.1z"/>
<path style="fill:#FFFAEE;" d="M681,116.1H528.7l7.6-91.4h137.1L681,116.1z"/>
<path style="fill:#E3A355;" d="M361.1,100.9h152.3l-7.6,76.2H368.8L361.1,100.9z"/>
<path style="fill:#FFFAEE;" d="M513.5,100.9H361.1l7.6-76.2h137.1L513.5,100.9z"/>
<path style="fill:#FFFAEE;" d="M345.9,85.7H193.6l7.6-60.9h137.1L345.9,85.7z"/>
<path style="fill:#E3A355;" d="M193.6,85.7h152.3l-7.6,91.4H201.2L193.6,85.7z"/>
<path style="fill:#E3A355;" d="M33.6,24.7h137.1l7.6,15.2H26L33.6,24.7z"/>
<path style="fill:#FFFAEE;" d="M33.6,177.1h137.1L178.3,40H26L33.6,177.1z"/>
<path style="fill:#001C20;" d="M92.6,141.8V93.3l-17.5,7.7l-6.1-13L95.5,74h17.6v67.9H92.6z"/>
<path style="fill:#001C20;" d="M270.5,76.2c-3.2,0-6.5-0.1-10-0.3c-3.5-0.2-6.8-0.5-10-0.8c-3.2-0.3-5.8-0.6-8-0.8l1-8.5
	c2.3,0.1,5,0.3,8,0.5c3,0.2,6.1,0.4,9.2,0.5c3.1,0.1,5.8,0.2,8.1,0.2c1.8,0,3.6-0.1,5.3-0.4c1.1-0.2,2.1-0.6,2.9-1.3
	c0.3-0.3,0.5-0.6,0.7-1c0.2-0.4,0.2-0.8,0.2-1.2c0-0.3-0.1-0.7-0.2-1c-0.1-0.3-0.4-0.6-0.6-0.8c-1-0.6-2.1-1-3.3-1.1
	c-1.6-0.3-3.9-0.6-6.9-0.9c-4-0.4-7.9-0.9-11.8-1.7c-2.7-0.5-5.3-1.3-7.7-2.4c-1.7-0.8-3.2-2-4.2-3.7c-1.1-2.2-1.5-4.7-1.2-7.2
	c0.4-2.5,1.5-4.8,3.1-6.6c2.7-2.2,5.9-3.6,9.3-4.1c4.7-0.9,9.5-1.3,14.3-1.2c2.6,0,5.5,0.1,8.8,0.2c3.3,0.2,6.5,0.4,9.6,0.6
	c3.1,0.2,5.8,0.4,8.1,0.7l-0.8,8.8l-7.6-0.4c-2.9-0.1-5.8-0.3-8.8-0.4c-2.9-0.1-5.5-0.2-7.8-0.2c-1.7,0-3.5,0.1-5.2,0.4
	c-1.1,0.1-2.1,0.5-3,1c-0.3,0.2-0.5,0.5-0.7,0.8c-0.2,0.3-0.2,0.7-0.2,1c0,0.4,0.1,0.8,0.2,1.1c0.2,0.3,0.4,0.6,0.7,0.9
	c1,0.6,2.2,1.1,3.4,1.2c1.6,0.3,3.9,0.7,6.9,1.1c4.7,0.6,8.5,1.2,11.7,1.8c2.6,0.5,5.2,1.2,7.6,2.3c1.7,0.7,3.1,2,4.1,3.5
	c0.9,1.7,1.4,3.6,1.3,5.5c0.1,1.5-0.2,3-0.7,4.4c-0.5,1.4-1.4,2.7-2.4,3.8c-2.6,2.3-5.7,3.9-9.2,4.4
	C280.4,75.9,275.4,76.4,270.5,76.2z"/>
<path style="fill:#001C20;" d="M409.8,88.7V33.3h28c5.5-0.1,11,0.5,16.4,1.8c3.9,0.9,7.4,3.1,9.9,6.2c2.2,2.9,3.3,7,3.3,12.2
	s-1.1,9.3-3.3,12.4c-2.5,3.2-6,5.6-9.9,6.6c-5.3,1.5-10.8,2.1-16.4,2H429v14.2H409.8z M428.9,62.7h8.1c3.9,0,6.7-0.7,8.3-2.2
	c1.7-1.5,2.5-3.8,2.5-7s-0.8-5.5-2.4-6.8c-1.6-1.3-4.4-1.9-8.4-1.9H429L428.9,62.7z"/>
<path style="fill:#001C20;" d="M401,168.2l-10.8-55.4h19.2l6.7,41h2.3l8.5-40.4h21.2l8.8,40.4h2.3l5.8-41h19.4l-10.5,55.4h-29
	l-7.5-39.9h-0.2l-7.5,39.9H401z"/>
<path style="fill:#001C20;" d="M595.2,102.3V38.4h19.3v63.8H595.2z"/>
<path style="fill:#001C20;" d="M273.4,163.1v-9.3h-31v-12.2l13.3-41.9h21.5L261,139.8h12.4l1.4-14.1l17.3-0.4v14.5h4.9v14.1h-4.9
	v9.3L273.4,163.1z"/>
<path style="fill:#001C20;" d="M595.2,169.4v-43.8h19.3v43.8H595.2z"/>
<path style="fill:#001C20;" d="M739,127V59.3h22.8l21.9,38.4h1.8V59.3h20.3V127H783l-21.8-39.6h-1.9V127H739z"/>
</svg>
