<?xml version="1.0" encoding="utf-8"?>
<!-- Generator: Adobe Illustrator 26.1.0, SVG Export Plug-In . SVG Version: 6.00 Build 0)  -->
<svg version="1.1" id="Layer_1" xmlns="http://www.w3.org/2000/svg" xmlns:xlink="http://www.w3.org/1999/xlink" x="0px" y="0px"
	 viewBox="0 0 1056.6 202" style="enable-background:new 0 0 1056.6 202;" xml:space="preserve">
<g id="Livello_1_1_">
</g>
<g id="Layer_1_00000121280000816817959920000000882230360127541942_">
</g>
<path style="fill:#93C700;" d="M147.4,52.3c4.3,0.8,8.7,1.4,12.9,2.5c5.4,1.5,10.5,3.9,13.9,8.5c5.4,7.1,4.7,14.9,1.8,22.6
	c-4.8,12.4-13.5,21.9-23.1,30.7c-4.4,4-9.1,7.6-13.7,11.1c3.7-4.8,7.7-9.4,11.2-14.4c5.3-7.8,9.2-16.2,10.6-25.6
	c1.5-10.3-2.8-17.9-10.6-23.8c-9.3-7.1-20.1-8.4-31.4-6.8c-14.1,2-26.9,7.1-38,15.9c-7.5,6-14,13.2-16.3,22.7
	c-3,12.1,0.9,23.6,12.7,31.8c8.7,6.1,18.6,9,28.9,11c19.4,3.9,39.1,3.7,58.7,3c5.2-0.2,10.5-0.8,15.8-0.7c-4.5,1-9.1,2.1-13.6,3
	c-17.3,3.4-34.7,6-52.4,5.5c-15.7-0.4-31.5-0.9-46.6-6.5c-11.3-4.2-21.4-10.2-28-20.6c-2.5-4.1-3.7-9-5.5-13.5c0-1.6,0-3.2,0-4.9
	c0.6-2.2,1.1-4.4,1.8-6.6c3-8.3,8.9-14.3,16-19.1C73.7,64.2,97.6,58,122.4,54.2c4.7-0.7,9.4-1.2,14-1.8
	C140,52.3,143.7,52.3,147.4,52.3z"/>
<path style="fill:#93C700;" d="M407.7,135c3.3-6.8,6.8-13.5,9.8-20.4c6.8-15.3,13.4-30.6,20.1-45.9c1.6-3.6,3.8-6.1,8.3-5.2
	c0.8,0.2,1.7,0,2.5,0c13.5,0,13.2,0.1,18.3,12.6c5.7,13.8,12,27.3,18.1,40.9c2.8,6.3,5.5,12.6,8.6,19.6c-7,0-13.5,0.2-19.9-0.2
	c-1.3-0.1-3.1-2.3-3.7-3.9c-4-10.2-3.9-10.2-14.4-10.2c-6.4,0-12.7,0-19.1,0.1c-0.3,0-0.6,0.2-1.8,0.5c-0.4,13.5-9.4,15.3-20.7,13.7
	c-1.9-0.3-4,0.3-6,0.4C407.7,136.3,407.7,135.6,407.7,135z M441.5,106.6c6.3,0,11.8,0,17.9,0c-2.9-7.3-5.7-14.3-9-22.7
	C447.1,92.3,444.4,99.3,441.5,106.6z"/>
<path style="fill:#93C700;" d="M1018,79.8c-7.3,0-14.6,0-22.4,0c0,19.4,0,37.7,0,56.4c-7.1,0-13.7,0-20.8,0c0-18.4,0-36.7,0-55.8
	c-7.7,0-14.9,0-22.5,0c0-5.9,0-11,0-16.6c22,0,43.8,0,65.7,0C1018,69.1,1018,74.4,1018,79.8z"/>
<path style="fill:#93C700;" d="M338.8,99.9c-0.8,6-3,11.3-5.7,16.5c-6.1,11.5-15.5,19.5-27.9,23.2c-10.9,3.2-22.1,3.3-32.3-2.5
	c-10.4-5.9-15.7-19.3-13.9-31.9c2.9-20.1,14.8-33.5,32.4-41.3c14.1-6.3,28.8-5.8,41.8,4.4c2.7,2.1,4.8,5,7.6,7.9
	c-4.8,2.8-9.1,5.4-13.2,7.8c-2.8-2.5-5.3-5.1-8.2-7.2c-4.8-3.4-10.5-3.9-16.2-3c-13.5,2.2-22.1,10.6-27.3,22.6
	c-4.1,9.6-3.6,18.8,3.2,25.9c4.3,4.5,9.7,5.7,15.9,5.6c10.9-0.2,18.4-5.9,25.2-14.5c-8.4,0-16.2,0-24.4,0c1.4-4.8,2.7-9.1,3.9-13.4
	C312.8,99.9,325.6,99.9,338.8,99.9z"/>
<path style="fill:#93C700;" d="M195.1,139.4c1.8-6.1,3.5-11.7,5.1-17.3c3.1-10.7,6.2-21.3,9.3-32c2.5-8.6,5.1-17.3,7.8-25.9
	c0.3-0.9,1.5-2.1,2.3-2.1c13.2-0.1,26.4-0.1,39.6,0c0.2,0,0.4,0.1,0.8,0.3c-1.1,3.8-2.1,7.7-3.4,11.4c-0.3,0.7-1.7,1.5-2.7,1.5
	c-7.6,0.1-15.2,0.1-22.8,0c-2.1,0-2.9,0.6-3.4,2.8c-0.7,3.4-2,6.7-3,10.1c-0.3,1-0.5,2.1-0.8,3.6c9.1,0,17.9,0,27.2,0
	c-0.6,2.6-1,4.8-1.7,6.9c-2.1,6.6-2.2,6.5-9.1,6.5c-6,0-12,0.1-18,0c-1.8,0-2.6,0.5-3.1,2.4c-1.6,6.1-3.5,12.1-5.5,18.5
	c9.3,0,18.2,0,27.3,0c0,0.9,0.1,1.4,0,1.9c-0.3,1.3-0.7,2.5-1.1,3.8c-2.1,7.7-2.1,7.8-10.1,7.8c-10.7,0-21.3,0-32,0
	C197.2,139.6,196.5,139.5,195.1,139.4z"/>
<path style="fill:#93C700;" d="M130.9,98c0,13.4-11.5,24.8-25,24.8c-13.5,0-24.9-11.4-24.9-24.9C81,84.5,92.4,73,105.9,73
	C119.4,72.9,130.9,84.4,130.9,98z"/>
<path style="fill:#93C700;" d="M508.8,63.5c5.2,0,10.1-0.4,14.8,0.2c1.8,0.2,3.6,2.6,4.8,4.4c7.5,11.9,14.7,24,22.7,37
	c3.8-6.1,7.2-11.5,10.5-16.9c4.4-7.2,8.6-14.6,13-21.8c0.8-1.2,2.3-2.7,3.6-2.8c5.1-0.3,10.3-0.1,15.8-0.1c0,24.4,0,48.4,0,72.7
	c-6.4,0-12.5,0-19.1,0c0-11.9,0-23.7,0-37c-1.7,2-2.6,2.7-3.2,3.7c-4.9,7.9-9.6,15.9-14.5,23.8c-2.4,3.8-10,4-12.4,0.3
	c-5-7.8-9.9-15.7-14.8-23.6c-0.4-0.6-0.7-1.3-1.9-1.7c0,11.3,0,22.5,0,34.3c-6.6,0-12.8,0-19.3,0C508.8,112,508.8,88.2,508.8,63.5z"
	/>
<path style="fill:#93C700;" d="M350.5,139.6c6.3-21.6,12.5-42.7,18.7-64.1c-5.5,0-10.8,0-16.5,0c1.3-4.4,2.4-8.4,3.6-12.3
	c0.2-0.5,1.1-1.1,1.8-1.1c15.1-0.1,30.2,0,45.6,0c-1.1,4.3-2,8.2-3.2,12.1c-0.2,0.6-1.5,1.2-2.4,1.2c-4,0.1-7.9,0.2-11.9,0
	c-1.8-0.1-2.8,0.5-3.3,2.2c-2.6,9.1-5.2,18.1-7.9,27.1c-2.5,8.6-5.2,17.3-7.8,25.9c-0.7,2.3-1.2,4.7-2,6.9c-0.3,0.8-1.3,1.9-2.1,2
	C359.2,139.7,355.2,139.6,350.5,139.6z"/>
<path style="fill:#93C700;" d="M856.1,63.8c0,10.1,0,19.6,0,29.1c0,13-0.1,26.1,0.1,39.1c0.1,3.6-1.2,4.2-4.6,4.6
	c-9.3,1.2-15.8-1.7-21.3-9.8c-6.3-9.3-14.2-17.6-21.5-26.3c-0.4-0.5-1-0.8-2.4-1.8c0,6.9,0,12.9,0,19c0,6,0,12,0,18.4
	c-6.8,0-13.2,0-20,0c0-24.1,0-48,0-72.6c5.3,0,10.7-1,15.5,0.3c3.3,0.9,5.9,4.9,8.4,7.9c8.1,9.6,16.1,19.4,25.1,30.4
	c0-13.6,0-25.8,0-38.3C842.5,63.8,848.9,63.8,856.1,63.8z"/>
<path style="fill:#93C700;" d="M879.4,136.2c0-24.3,0-48.2,0-72.4c19.3,0,38.5,0,58.2,0c0,4.3,0.3,8.5-0.2,12.5
	c-0.2,1.2-2.8,3-4.3,3.1c-9,0.3-18.1,0.5-27.1,0c-5.1-0.2-6.6,1.5-5.9,6.2c0.2,1.6,0,3.3,0,5.8c4.4,0,8.5,0,12.6,0
	c2.8,0,5.7,0,8.5,0c11.7,0,11.6,0,11.6,11.5c0,3.3-1,4.3-4.3,4.3c-9.2-0.2-18.4-0.1-28-0.1c0,4.6,0,8.8,0,13.6c10.5,0,20.8,0,31.2,0
	c7.9,0,7.2-0.7,7.1,6.9c-0.1,9.9,1.7,8.8-8.7,8.8c-14.9,0.1-29.8,0-44.7,0C883.5,136.5,881.6,136.3,879.4,136.2z"/>
<path style="fill:#93C700;" d="M616.8,63.8c7.3,0,13.9,0,21,0c0,14.3-0.2,28.3,0.1,42.3c0.2,8.1,4,12.4,9,14.1
	c8.2,2.7,16.8-1.7,17.4-10.3c1-12.9,1-25.9,1.4-38.9c0.1-2.3,0-4.6,0-7.2c6.8,0,13.1,0,20,0c0,6,0,11.8,0,17.6c0,8.5-0.2,17,0,25.6
	c0.4,18.1-13.9,30.7-29.7,31c-10.9,0.2-21.3-0.2-29.8-8.3c-5.6-5.3-8.9-12-9.2-19.4C616.4,94.9,616.8,79.5,616.8,63.8z"/>
<path style="fill:#93C700;" d="M758.1,82.7c-6.2-1.5-11.7-3-17.4-4c-2.6-0.5-5.3,0-8,0.1c-3.5,0.1-6.2,1.5-6.6,5.4
	c-0.5,4.2,3,4.9,5.7,5.7c5.9,1.7,11.9,2.9,17.8,4.4c10.9,2.9,16.9,9.2,17.6,18.4c0.8,9.9-4,18.2-14.5,22.1
	c-16.9,6.3-33.2,3.9-49.4-4.4c2.1-4.8,3.9-9.2,6.1-13.4c0.4-0.7,3.1-1,4.3-0.5c8.8,3.8,17.7,7.3,27.4,4.3c2.2-0.7,3.8-3.1,5.8-4.7
	c-1.6-1.7-3-4.2-5-4.9c-6.6-2.3-13.4-3.7-20-5.7c-11.7-3.4-16.7-9.7-17.1-19.7c-0.4-9.4,6.5-18.9,17.6-22
	c12.9-3.6,25.7-2.6,38.2,2.5c3.2,1.3,3.9,2.9,2.1,6.1C760.9,75.8,759.6,79.5,758.1,82.7z"/>
</svg>
