<?xml version="1.0" encoding="utf-8"?>
<!-- Generator: Adobe Illustrator 26.1.0, SVG Export Plug-In . SVG Version: 6.00 Build 0)  -->
<svg version="1.1" id="Layer_1" xmlns="http://www.w3.org/2000/svg" xmlns:xlink="http://www.w3.org/1999/xlink" x="0px" y="0px"
	 viewBox="0 0 1056.6 202" style="enable-background:new 0 0 1056.6 202;" xml:space="preserve">
<g id="Livello_1_1_">
</g>
<g id="Layer_1_00000121280000816817959920000000882230360127541942_">
</g>
<g>
	<path style="fill:#FFFFFF;" d="M264.2,44.5h17l-3.9,18.2h9.2l3.9-18.2h17l-10.7,50h-17l3.9-18.2h-9.2l-3.9,18.2h-16.9L264.2,44.5z"
		/>
	<path style="fill:#FFFFFF;" d="M305.5,86.3c0-2.6,0.3-6,1.2-10.2c3.1-15.1,7-19.2,14.4-19.2c4,0,7.7,0.5,9.6,4.2h0.7l1.2-3.7h15.1
		l-7.8,37.1h-15l0.7-4.1h-0.8c-2.6,3.9-6,4.7-9.3,4.7C308.7,95.1,305.5,93.1,305.5,86.3z M327,81.3c0.7-2,2.3-9,2.3-10.8
		c0-1.5-0.5-1.6-2.4-1.6c-3,0-3.1,0.1-4.6,7.1c-0.7,2.9-0.9,4.6-0.9,5.7c0,1.4,0.7,1.5,2.5,1.5C325.9,83.1,326.4,82.9,327,81.3z"/>
	<path style="fill:#FFFFFF;" d="M346.6,108.4l2-9.8h9.6c8,0,8.2,0,9.4-5.6c0.3-1.2,0.5-2.5,0.8-3.8h-0.7c-3.1,3.9-6.8,4.7-9.5,4.7
		c-7.2,0-9.4-2.8-9.4-7.8c0-1.9,0.3-4.1,0.9-6.6l4.7-22h15.6L366,75.8c-0.5,2.4-0.8,3.9-0.8,4.7c0,1.3,0.6,1.3,2,1.3
		c2.5,0,2.7-0.1,4-6l3.9-18.4h15.6l-7,33.1c-2.6,12.4-3.6,19-23.8,19C355,109.5,349.5,109,346.6,108.4z"/>
	<path style="fill:#FFFFFF;" d="M394.6,57.4h15.2l-0.6,24h0.8l9.3-24H435l-17.4,37.1h-21.4L394.6,57.4z"/>
	<path style="fill:#FFFFFF;" d="M432.1,86.3c0-2.6,0.3-6,1.2-10.2c3.1-15.1,7-19.2,14.4-19.2c4,0,7.7,0.5,9.6,4.2h0.7l1.2-3.7h15.1
		l-7.8,37.1h-15l0.7-4.1h-0.8c-2.6,3.9-6,4.7-9.3,4.7C435.3,95.1,432.1,93.1,432.1,86.3z M453.6,81.3c0.7-2,2.3-9,2.3-10.8
		c0-1.5-0.5-1.6-2.4-1.6c-3,0-3.1,0.1-4.6,7.1c-0.7,2.9-0.9,4.6-0.9,5.7c0,1.4,0.7,1.5,2.5,1.5C452.5,83.1,453,82.9,453.6,81.3z"/>
	<path style="fill:#FFFFFF;" d="M480.8,57.4h15l-0.6,4.1h0.7c3.1-3.9,7.2-4.7,10-4.7c7,0,9,2.5,9,7.6c0,2-0.6,5.6-1.3,9.1l-4.5,21
		h-15.5l3.9-18.6c0.5-2.3,0.9-4.6,0.9-5.5c0-1.4-0.5-1.5-1.7-1.5c-2.8,0-3,0.4-4.2,6l-4.2,19.6H473L480.8,57.4z"/>
	<path style="fill:#FFFFFF;" d="M527.1,40.5H543l-11.4,54h-15.8L527.1,40.5z"/>
	<path style="fill:#FFFFFF;" d="M539.6,86.3c0-2.6,0.3-6,1.2-10.2c3.1-15.1,7-19.2,14.4-19.2c4,0,7.7,0.5,9.6,4.2h0.7l1.2-3.7h15.1
		l-7.8,37.1h-15l0.7-4.1h-0.8c-2.6,3.9-6,4.7-9.3,4.7C542.8,95.1,539.6,93.1,539.6,86.3z M561,81.3c0.7-2,2.3-9,2.3-10.8
		c0-1.5-0.5-1.6-2.4-1.6c-3,0-3.1,0.1-4.6,7.1c-0.7,2.9-0.9,4.6-0.9,5.7c0,1.4,0.7,1.5,2.5,1.5C559.9,83.1,560.4,82.9,561,81.3z"/>
	<path style="fill:#FFFFFF;" d="M588.3,57.4h15l-1,6.2h0.7c3.2-5.5,5.9-6.8,12.6-6.8l-2.9,13.5c-9.7,0-12,1.8-14.1,11.7l-2.7,12.4
		h-15.5L588.3,57.4z"/>
	<path style="fill:#FFFFFF;" d="M652.1,44.5h23.6l3.2,50h-16.4l-0.2-7.5h-14.5l-3.3,7.5h-16.9L652.1,44.5z M661.9,75.4l-0.4-17.2
		h-0.7l-7.8,17.2H661.9z"/>
	<path style="fill:#FFFFFF;" d="M693.5,40.5h15.8l-11.4,54h-15.8L693.5,40.5z"/>
	<path style="fill:#FFFFFF;" d="M706,85.9c0-2.7,0.3-5.9,1.1-9.8c2.8-13.7,4.2-19.2,20.9-19.2c13.1,0,16.5,2.1,16.5,8
		c0,2.8-1.1,7.6-1.9,11.2l-0.7,2.8h-20.2c-0.1,0.7-0.5,2.4-0.5,3c0,2.3,0.6,2.3,8.1,2.3c2.5,0,7.1-0.2,11.3-0.5l-2.1,10
		c-2.9,0.9-8.6,1.5-13.7,1.5C710.1,95.1,706,92.3,706,85.9z M729.2,72.7l0.2-1.2c0.3-1.7,0.5-2.5,0.5-3.3c0-1.5-0.7-1.5-2.6-1.5
		c-3.1,0-3.1,0.1-4.4,6H729.2z"/>
	<path style="fill:#FFFFFF;" d="M752.5,57.4h15l-0.6,4.1h0.7c3.1-3.9,7.2-4.7,10-4.7c5.8,0,8.3,1.6,9.1,4.7h0.7
		c3.2-3.9,7.6-4.7,10.6-4.7c6.8,0,8.7,2.5,8.7,7.6c0,2-0.6,5.6-1.3,9.1l-4.6,21h-15.5l4-18.6c0.5-2.3,0.9-4.6,0.9-5.5
		c0-1.4-0.4-1.5-1.5-1.5c-2.8,0-3,0.4-4.2,6l-4.2,19.6h-15.5l4-18.6c0.5-2.3,0.9-4.6,0.9-5.5c0-1.4-0.4-1.5-1.5-1.5
		c-2.8,0-3,0.4-4.2,6l-4.2,19.6h-15.5L752.5,57.4z"/>
	<path style="fill:#FFFFFF;" d="M815.4,57.4h15.8l-7.8,37.1h-15.8L815.4,57.4z M818.9,40.5h15.8l-2.3,11h-15.8L818.9,40.5z"/>
	<path style="fill:#FFFFFF;" d="M256.2,143.9c0-3.7,1.2-8.6,2.4-15.1c3.9-20.2,5.3-24.9,26.2-24.9c15.5,0,20.1,2.9,20.1,11.3
		c0,3.8-0.9,8.6-2.3,15c-4.7,20.3-5.4,24.9-26,24.9C260.9,155.1,256.2,152.2,256.2,143.9z M285.7,129.5c1.2-5.5,1.8-8.9,1.8-10.8
		c0-2.6-1.2-2.7-4.1-2.7c-5.1,0-5.2,0.3-7.9,13.4c-1.2,5.7-2,9-2,10.9c0,2.5,1.2,2.5,4.1,2.5C282.7,142.9,282.9,142.7,285.7,129.5z"
		/>
	<path style="fill:#FFFFFF;" d="M304.3,168.4l2-9.8h9.6c8,0,8.2,0,9.4-5.6c0.3-1.2,0.5-2.5,0.8-3.8h-0.7c-3.1,3.9-6.8,4.7-9.5,4.7
		c-7.2,0-9.4-2.8-9.4-7.8c0-1.9,0.3-4.1,0.9-6.6l4.7-22h15.6l-3.9,18.4c-0.5,2.4-0.8,3.9-0.8,4.7c0,1.3,0.6,1.3,2,1.3
		c2.5,0,2.7-0.1,4-6l3.9-18.4h15.6l-7,33.1c-2.6,12.4-3.6,19-23.8,19C312.7,169.5,307.2,169,304.3,168.4z"/>
	<path style="fill:#FFFFFF;" d="M349.1,147.2c0-2,0.7-5.6,1.4-9.1l4.4-20.7h15.5l-3.9,18.6c-0.5,2.3-0.9,4.6-0.9,5.5
		c0,1.4,0.5,1.5,1.7,1.5c2.8,0,3-0.4,4.2-6l4.2-19.5h15.5l-7.8,37.1h-15l0.6-4.1h-0.7c-3.1,3.9-7.2,4.7-10,4.7
		C351,155.1,349.1,152.5,349.1,147.2z"/>
	<path style="fill:#FFFFFF;" d="M397.7,117.4h15l-0.6,4.1h0.7c3.1-3.9,7.2-4.7,10-4.7c7,0,9,2.5,9,7.6c0,2-0.6,5.6-1.3,9.1l-4.5,21
		h-15.5l3.9-18.6c0.5-2.3,0.9-4.6,0.9-5.5c0-1.4-0.5-1.5-1.7-1.5c-2.8,0-3,0.4-4.2,6l-4.2,19.5h-15.5L397.7,117.4z"/>
	<path style="fill:#FFFFFF;" d="M444,100.5h15.8l-11.4,54h-15.8L444,100.5z"/>
	<path style="fill:#FFFFFF;" d="M456.4,146.3c0-2.6,0.3-6,1.2-10.2c3.1-15.1,7-19.2,14.4-19.2c4,0,7.7,0.5,9.6,4.2h0.7l1.2-3.7h15.1
		l-7.8,37.1h-15l0.7-4.1h-0.8c-2.6,3.9-6,4.7-9.3,4.7C459.6,155.1,456.4,153.1,456.4,146.3z M477.9,141.3c0.7-2,2.3-9,2.3-10.8
		c0-1.5-0.5-1.6-2.4-1.6c-3,0-3.1,0.1-4.6,7.1c-0.7,2.9-0.9,4.6-0.9,5.7c0,1.4,0.7,1.5,2.5,1.5C476.8,143.1,477.3,142.9,477.9,141.3
		z"/>
	<path style="fill:#FFFFFF;" d="M505.1,117.4h15l-1,6.2h0.7c3.2-5.5,5.9-6.8,12.6-6.8l-2.9,13.5c-9.7,0-12,1.8-14.1,11.7l-2.7,12.4
		h-15.5L505.1,117.4z"/>
	<path style="fill:#FFFFFF;" d="M536.9,117.4h15.8l-7.8,37.1h-15.8L536.9,117.4z"/>
</g>
<path style="fill:#FFFFFF;" d="M187.5,140.8c-3.4-9.7-11.3-14.6-19-19.3c-6.7-4.1-12.9-8-17-15.1C140.2,87,134,75.3,115.4,75.3
	S90.7,87,79.3,106.5c-4.1,7-10.4,10.9-17.1,15.1c-7.6,4.8-15.5,9.6-18.9,19.3c-1.3,3.5-2,7.2-2,10.9c0,15.7,12.5,28.5,26.4,28.5
	s32.1-7,47.7-7s33.6,7,47.7,7c14,0,26.4-12.8,26.4-28.5C189.5,148,188.8,144.3,187.5,140.8z"/>
<ellipse style="fill:#FFFFFF;" cx="44.4" cy="84.6" rx="21.6" ry="27.8"/>
<ellipse style="fill:#FFFFFF;" cx="87.6" cy="47.6" rx="21.6" ry="27.8"/>
<ellipse style="fill:#FFFFFF;" cx="143.2" cy="47.6" rx="21.6" ry="27.8"/>
<ellipse style="fill:#FFFFFF;" cx="186.4" cy="84.6" rx="21.6" ry="27.8"/>
</svg>
