<?xml version="1.0" encoding="utf-8"?>
<!-- Generator: Adobe Illustrator 26.1.0, SVG Export Plug-In . SVG Version: 6.00 Build 0)  -->
<svg version="1.1" id="Layer_1" xmlns="http://www.w3.org/2000/svg" xmlns:xlink="http://www.w3.org/1999/xlink" x="0px" y="0px"
	 viewBox="0 0 358.8 60.6" style="enable-background:new 0 0 358.8 60.6;" xml:space="preserve">
<g>
	<defs>
		<rect id="SVGID_1_" x="2.8" y="2.5" width="204.4" height="57.1"/>
	</defs>
	<clipPath id="SVGID_00000064341744421080339950000009256911337800822918_">
		<use xlink:href="#SVGID_1_"  style="overflow:visible;"/>
	</clipPath>
	<g style="clip-path:url(#SVGID_00000064341744421080339950000009256911337800822918_);">
		<defs>
			<filter id="Adobe_OpacityMaskFilter" filterUnits="userSpaceOnUse" x="2.8" y="2.5" width="204.4" height="57.1">
				<feColorMatrix  type="matrix" values="1 0 0 0 0  0 1 0 0 0  0 0 1 0 0  0 0 0 1 0"/>
			</filter>
		</defs>
		
			<mask maskUnits="userSpaceOnUse" x="2.8" y="2.5" width="204.4" height="57.1" id="mask0_1_128_00000071542800310751258740000004967524367121586349_">
			<path style="fill:#FFFFFF;filter:url(#Adobe_OpacityMaskFilter);" d="M207.2,2.5H2.8v57.1h204.4V2.5z"/>
		</mask>
		<g style="mask:url(#mask0_1_128_00000071542800310751258740000004967524367121586349_);">
			<path style="fill:#FFFFFF;" d="M196.3,22.9c-0.4,0-0.7-0.2-1-0.4c-0.5-0.5-0.6-1.3-0.2-2l3.6-5.3l-6-0.6
				c-0.7-0.1-1.2-0.5-1.4-1.2s0-1.3,0.5-1.8l9.3-8.7c0.3-0.2,0.6-0.4,1-0.4c0.4,0,0.8,0.2,1,0.5c0.5,0.5,0.6,1.3,0.2,1.9l-3.6,5.3
				l6,0.6c0.7,0.1,1.2,0.5,1.4,1.2c0.2,0.7,0,1.3-0.5,1.8l-9.3,8.7C197,22.7,196.7,22.9,196.3,22.9z"/>
			<path style="fill:#FFFFFF;" d="M65.2,22.9c1.6,0,2.9,0.2,4.1,0.7c1.1,0.5,2.1,1.1,2.8,2c0.7,0.8,1.3,1.8,1.6,2.8
				c0.4,1,0.5,2.1,0.5,3.2c0,1-0.2,2-0.5,3c-0.3,1-0.8,1.9-1.5,2.7c-0.7,0.8-1.6,1.5-2.7,2c-1.1,0.5-2.5,0.8-4.1,0.8H61v7h-8V22.9
				H65.2L65.2,22.9z M60.7,34.5h1.8c0.2,0,0.6,0,1-0.1c0.4,0,0.8-0.2,1.2-0.4s0.8-0.5,1-0.9c0.3-0.4,0.4-1,0.4-1.7
				c0-0.4-0.1-0.7-0.1-1.1c-0.1-0.4-0.3-0.7-0.5-1c-0.3-0.3-0.7-0.5-1.1-0.7c-0.5-0.2-1.1-0.3-1.9-0.3h-1.7V34.5z"/>
			<path style="fill:#FFFFFF;" d="M92.3,22.9l7.4,24.2h-8.4l-1.4-5.2h-6.3l-1.4,5.2h-8l7.3-24.2H92.3z M86.7,28.6l-2.1,7.6H89
				l-2.2-7.6H86.7L86.7,28.6z"/>
			<path style="fill:#FFFFFF;" d="M119.3,29.5c-0.7-0.3-1.5-0.6-2.5-0.8c-1-0.3-2.2-0.4-3.7-0.4c-0.4,0-0.8,0-1.2,0
				c-0.4,0-0.8,0.1-1.1,0.2c-0.3,0.1-0.6,0.3-0.8,0.5c-0.2,0.2-0.3,0.5-0.3,0.9c0,0.3,0.1,0.5,0.2,0.7c0.2,0.2,0.3,0.4,0.6,0.5
				c0.2,0.1,0.5,0.2,0.8,0.3c0.3,0.1,0.6,0.2,1,0.2c0.9,0.2,1.9,0.4,2.9,0.7c1,0.3,1.9,0.7,2.7,1.2c0.8,0.5,1.5,1.3,2,2.2
				c0.5,0.9,0.8,2.1,0.8,3.7c0,0.7-0.1,1.5-0.3,2.4c-0.2,0.9-0.7,1.8-1.4,2.7c-0.7,0.9-1.7,1.6-3.1,2.2c-1.3,0.6-3.2,0.9-5.4,0.9
				c-1.1,0-2.3-0.1-3.8-0.2c-1.5-0.1-3.1-0.4-4.8-0.9V40c1.5,0.7,2.9,1.1,4.1,1.3c1.2,0.2,2.2,0.3,3.1,0.3c0.4,0,0.7,0,1.2-0.1
				s0.8-0.1,1.2-0.2c0.4-0.1,0.7-0.3,0.9-0.5c0.2-0.2,0.4-0.5,0.4-0.9s-0.1-0.7-0.3-0.9c-0.2-0.2-0.5-0.4-0.8-0.5
				c-0.3-0.1-0.7-0.2-1.1-0.3c-0.4-0.1-0.8-0.2-1.2-0.3c-0.8-0.2-1.6-0.4-2.5-0.7c-0.9-0.3-1.7-0.7-2.5-1.2
				c-0.8-0.5-1.4-1.3-1.9-2.2c-0.5-0.9-0.8-2.1-0.8-3.6c0-0.9,0.1-1.7,0.4-2.7c0.3-0.9,0.8-1.8,1.6-2.5c0.8-0.8,1.9-1.4,3.3-1.9
				c1.4-0.5,3.2-0.7,5.4-0.7c1.1,0,2.2,0.1,3.3,0.2c1.1,0.1,2.3,0.3,3.6,0.7V29.5L119.3,29.5L119.3,29.5z"/>
			<path style="fill:#FFFFFF;" d="M142.5,46.5c-1.2,0.4-2.3,0.6-3.3,0.8c-1,0.1-1.8,0.2-2.6,0.2c-2,0-3.8-0.3-5.4-0.9
				c-1.5-0.6-2.8-1.5-3.9-2.6c-1.1-1.1-1.8-2.4-2.4-4c-0.5-1.5-0.8-3.2-0.8-5c0-1.5,0.2-3.1,0.7-4.6c0.4-1.5,1.2-2.8,2.2-4
				c1-1.2,2.3-2.1,3.9-2.9c1.6-0.7,3.6-1.1,5.9-1.1c1.2,0,2.2,0.1,3.1,0.2c0.9,0.2,1.5,0.3,2,0.4l0.5,0.1v6.4
				c-0.6-0.2-1.2-0.5-1.9-0.7c-0.7-0.2-1.5-0.3-2.3-0.3c-0.8,0-1.6,0.2-2.3,0.5c-0.7,0.3-1.3,0.7-1.8,1.3c-0.5,0.5-0.9,1.2-1.1,1.9
				c-0.3,0.7-0.4,1.5-0.4,2.4c0,0.6,0.1,1.2,0.2,1.9c0.1,0.7,0.4,1.4,0.8,2c0.4,0.6,1,1.2,1.8,1.6c0.8,0.4,1.8,0.7,3,0.7
				c0.4,0,0.9-0.1,1.5-0.2s1.5-0.4,2.6-0.8L142.5,46.5L142.5,46.5z"/>
			<path style="fill:#FFFFFF;" d="M162.8,22.9l7.4,24.2h-8.4l-1.4-5.2h-6.3l-1.4,5.2h-8l7.3-24.2H162.8z M157.2,28.6l-2.1,7.6h4.5
				l-2.2-7.6H157.2L157.2,28.6z"/>
			<path style="fill:#FFFFFF;" d="M173.8,22.9h8v17.3h9.8v6.9h-17.8V22.9z"/>
			<path style="fill:#FFFFFF;" d="M54,53.6c0.7-0.7,1.6-1,2.6-1c0.4,0,0.7,0.1,1.1,0.1c0.3,0.1,0.6,0.2,0.8,0.4
				c0.2,0.1,0.4,0.3,0.6,0.4c0.2,0.1,0.3,0.3,0.4,0.4l0.1,0.1l-0.5,0.4c0,0-0.1-0.1-0.1-0.1c0-0.1-0.1-0.1-0.3-0.3
				c-0.2-0.1-0.3-0.2-0.5-0.4c-0.2-0.1-0.4-0.2-0.7-0.3c-0.3-0.1-0.6-0.1-0.9-0.1c-0.8,0-1.5,0.3-2.1,0.8c-0.6,0.5-0.9,1.2-0.9,2
				c0,0.8,0.3,1.5,0.9,2c0.6,0.5,1.3,0.8,2.1,0.8c0.3,0,0.6,0,0.8-0.1c0.3-0.1,0.5-0.1,0.7-0.2c0.2-0.1,0.3-0.2,0.4-0.3
				c0.1-0.1,0.2-0.2,0.3-0.2L59,58v-1.3h-1.7V56h2.4v2.2c0,0-0.1,0.1-0.1,0.2c-0.1,0.1-0.2,0.2-0.4,0.3c-0.2,0.2-0.4,0.3-0.6,0.4
				c-0.2,0.1-0.5,0.2-0.9,0.3c-0.4,0.1-0.7,0.2-1.1,0.2c-1,0-1.9-0.3-2.6-1c-0.7-0.7-1.1-1.5-1.1-2.5C53,55.1,53.3,54.3,54,53.6
				L54,53.6z"/>
			<path style="fill:#FFFFFF;" d="M63.2,57.6l-0.8,1.9h-0.8l3-6.8h0.7l3,6.8h-0.8l-0.8-1.9H63.2L63.2,57.6z M64.9,53.7l-1.4,3.2h2.8
				L64.9,53.7z"/>
			<path style="fill:#FFFFFF;" d="M74,57.6L71.1,54v5.5h-0.8v-6.8H71l3,3.7l3-3.7h0.7v6.8h-0.8V54L74,57.6z"/>
			<path style="fill:#FFFFFF;" d="M81.3,52.7h-0.8v6.8h0.8V52.7z"/>
			<path style="fill:#FFFFFF;" d="M90.1,52.7v6.8h-0.7L85,54v5.5h-0.8v-6.8h0.7l4.5,5.5v-5.5H90.1z"/>
			<path style="fill:#FFFFFF;" d="M93.6,53.6c0.7-0.7,1.6-1,2.6-1c0.4,0,0.7,0.1,1.1,0.1c0.3,0.1,0.6,0.2,0.8,0.4
				c0.2,0.1,0.4,0.3,0.6,0.4c0.2,0.1,0.3,0.3,0.4,0.4l0.1,0.1l-0.5,0.4c0,0-0.1-0.1-0.1-0.1c0-0.1-0.1-0.1-0.3-0.3
				c-0.2-0.1-0.3-0.2-0.5-0.4c-0.2-0.1-0.4-0.2-0.7-0.3c-0.3-0.1-0.6-0.1-0.9-0.1c-0.8,0-1.5,0.3-2.1,0.8c-0.6,0.5-0.9,1.2-0.9,2
				c0,0.8,0.3,1.5,0.9,2c0.6,0.5,1.3,0.8,2.1,0.8c0.3,0,0.6,0,0.8-0.1c0.3-0.1,0.5-0.1,0.7-0.2c0.2-0.1,0.3-0.2,0.4-0.3
				c0.1-0.1,0.2-0.2,0.3-0.2l0.1-0.1v-1.3h-1.7V56h2.4v2.2c0,0-0.1,0.1-0.1,0.2c-0.1,0.1-0.2,0.2-0.4,0.3c-0.2,0.2-0.4,0.3-0.6,0.4
				c-0.2,0.1-0.5,0.2-0.9,0.3c-0.4,0.1-0.7,0.2-1.1,0.2c-1,0-1.9-0.3-2.6-1c-0.7-0.7-1.1-1.5-1.1-2.5C92.5,55.1,92.9,54.3,93.6,53.6
				L93.6,53.6z"/>
			<path style="fill:#934921;" d="M26,44.6c-2.8-3-3.7-5.6-3.9-5.9c-0.1,0.3-1,2.9-3.9,5.9c-3,3.2-5.4,3.3-5.4,3.3s3,3.3,4.3,4.5
				c1.5,1.3,4.8,4.3,4.8,4.3s3.4-2.9,4.9-4.3c1.5-1.4,4.2-4.5,4.2-4.5S29,47.9,26,44.6 M22.1,52.4c0,0-2.9-1.8-4-3.4
				c2.7-1.7,3.8-3.5,4-3.8c0.2,0.3,1.4,2.1,4.1,3.8C25,50.5,22.2,52.4,22.1,52.4z"/>
			<path style="fill:#934921;" d="M20.7,34.4c-3.7-0.4-9.5,1.8-10,2.3c2.1,4.5,4.4,7.3,4.3,7.3c-1,1.2-3,2.1-3,2
				c-5.6-8.3-8.8-20.1-8.8-20.1s9.3-4.1,17.7-3.6C20.9,24.1,20.9,34.4,20.7,34.4 M17.7,26.5c0-0.5-7,0.6-9.8,2.6
				c0.1,1.1,0.5,2.6,1.1,3.8c4.5-1.7,6.4-2.1,8.5-2.3C17.4,29.8,17.7,26.9,17.7,26.5L17.7,26.5z"/>
			<path style="fill:#934921;" d="M24,22.3c-0.1,0.4-3.2,18.9,8.9,23.6c3.2-2.7,6.8-11.7,6.8-11.7l-5.9-2.7l-2.1,4.1l3.2,1.7
				c-0.7,1.4-1.7,3.4-2.6,4.4c-2.4-2.3-5.4-6.5-4.9-15.4c6.7,0.3,10.2,2.8,10.2,2.8c-0.3,0.6-0.6,1.3-0.9,1.9c0,0,3.7,1.7,3.8,1.8
				c0.6-1.4,2.5-5.5,2.8-6.5C43.2,26.1,35,21.9,24,22.3L24,22.3z"/>
			<path style="fill:#FEC33F;" d="M20.8,33.2C16,33,10.1,35.4,10.1,35.5c2.1,4.6,4.3,7.7,4.3,7.8c-1,1.2-3,2-3.1,1.9
				c-5.8-8.3-8.6-20.3-8.6-20.3s9.5-4.1,18-3.7C20.9,23,21,33.2,20.8,33.2 M17.2,25.3c0-0.5-7.2,0.7-9.6,2.4
				c0.1,1.1,0.5,2.9,1.1,4.1c4.6-1.7,6.6-2.1,8.7-2.4C17.3,28.7,17.2,25.7,17.2,25.3L17.2,25.3z"/>
			<path style="fill:#FEC33F;" d="M24,21.2c-0.1,0.4-3.3,18.9,8.8,23.6c2.6-2.3,6.8-10.6,6.8-10.6l-6.1-2.8L32,34.6l2.8,1.4
				c-0.7,1.4-1.7,3.4-2.5,4.5c-2.4-2.3-5.3-6.5-4.8-15.4c6.7,0.3,10.5,2.9,10.5,2.9c-0.2,0.7-0.6,1.3-0.8,2c0,0,3.4,1.6,3.4,1.6
				c0.8-1.6,2.7-5.4,2.7-5.4S35,20.8,24,21.2L24,21.2z"/>
			<path style="fill:#FEC33F;" d="M25.9,43.9c-2.8-3-3.7-5.6-3.9-5.9c-0.1,0.3-1,2.9-3.9,5.9c-3,3.2-5.4,4.1-5.4,4.1
				s2.9,2.6,4.3,3.8c1.5,1.3,4.9,3.8,4.9,3.8s3.4-2.4,4.9-3.8c1.4-1.2,4.3-3.8,4.3-3.8S28.9,47.1,25.9,43.9z M22.1,51.6
				c0,0-2.9-1.8-4-3.4c2.7-1.7,3.9-3.7,4-4c0.2,0.3,1.3,2.2,4,4C25,49.8,22.1,51.6,22.1,51.6z"/>
		</g>
	</g>
</g>
</svg>
