<svg class="S" xmlns="http://www.w3.org/2000/svg" viewBox="0 0 126 126"><path d="M68.3 49.9l6.9 6.9-12.5 12.5c-4.8 4.8-4.8 12.5 0 17.3 4.8 4.8 12.5 4.8 17.3 0L92.5 74l6.9 6.9-12.6 12.5c-8.5 8.5-22.4 8.5-31 0s-8.5-22.4 0-31l12.5-12.5zm17.3-17.3c8.5-8.5 22.4-8.5 31 0s8.5 22.4 0 31l-12.5 12.5-6.9-6.9 12.5-12.5c4.8-4.8 4.8-12.5 0-17.3-4.8-4.8-12.5-4.8-17.3 0L79.9 52 73 45.1l12.6-12.5zm9.5 14.3l7.2 7.2-25 25-7.2-7.2 25-25zM50.6 57.5H19v11h20.6l11-11zM3 85.9h9.7v-11H3v11zm65-45.8H19v11h38l11-11zM39.6 74.9H19v11h20.8l-.2-11zM3 68.5h9.7v-11H3v11zm0-17.4h9.7v-11H3v11z"/>
</svg>
