<?xml version="1.0" encoding="UTF-8"?> <svg xmlns="http://www.w3.org/2000/svg" xmlns:xlink="http://www.w3.org/1999/xlink" version="1.1" id="Layer_1" x="0px" y="0px" viewBox="0 0 1000 1000" style="enable-background:new 0 0 1000 1000;" xml:space="preserve"> <g> <path style="fill:#FFFFFF;" d="M624,115l10.2-15.2l10-15l22.5-33.7c2.8-4.1,1.6-9.7-2.5-12.5c-4.2-2.8-9.8-1.7-12.5,2.5l-24.1,36.1 l-10.1,15.2l-10.3,15.4C574.6,95.2,538.3,88.1,500,88.1c-38.3,0-74.6,7.1-107.2,19.7l-10.2-15.4l-10.1-15.2l-24.1-36.1 c-2.8-4.1-8.3-5.3-12.5-2.5c-4.1,2.8-5.2,8.3-2.5,12.5l22.4,33.7l10,15L376,115c-76.5,35.6-128.2,103.1-128.2,180.3h504.4 C752.2,218.1,700.5,150.6,624,115z M391.9,223.2c-15,0-27-12.1-27-27s12.1-27,27-27c14.9,0,27,12.1,27,27S406.9,223.2,391.9,223.2z M608.1,223.2c-14.9,0-27-12.1-27-27s12.1-27,27-27c15,0,27,12.1,27,27S623,223.2,608.1,223.2z"></path> <path style="fill:#FFFFFF;" d="M251.7,331.3h-3.9v44.9v36.7v314.7c0,31.5,25.6,57.1,57,57.1H346c-1.4,4.8-2.2,9.8-2.2,15v3v18v93.1 c0,29.8,24.2,54,54.1,54s54-24.2,54-54v-93.1v-18v-3c0-5.2-0.8-10.2-2.1-15h100.3c-1.4,4.8-2.1,9.8-2.1,15v3v18v93.1 c0,29.8,24.2,54,54,54s54-24.2,54-54v-93.1v-18v-3c0-5.2-0.8-10.2-2.1-15h41.2c31.5,0,57.1-25.6,57.1-57.1V412.9v-36.7v-44.9h-3.9 C748.3,331.3,251.7,331.3,251.7,331.3z"></path> <path style="fill:#FFFFFF;" d="M157.7,331.3c-29.8,0-54,24.2-54,54.1v231.2c0,29.8,24.2,54,54,54c29.8,0,54-24.2,54-54V385.4 C211.8,355.5,187.6,331.3,157.7,331.3z"></path> <path style="fill:#FFFFFF;" d="M842.3,331.3c-29.9,0-54,24.2-54,54.1v231.2c0,29.8,24.2,54,54,54c29.8,0,54-24.2,54-54V385.4 C896.3,355.5,872.1,331.3,842.3,331.3z"></path> </g> </svg> 