<?xml version="1.0" encoding="UTF-8"?> <svg xmlns="http://www.w3.org/2000/svg" xmlns:xlink="http://www.w3.org/1999/xlink" version="1.1" id="Layer_1" x="0px" y="0px" viewBox="0 0 1000 1000" style="enable-background:new 0 0 1000 1000;" xml:space="preserve"> <path style="fill:#FFFFFF;" d="M519.5,135.5c1,0.2,2.1,0.5,3.1,0.5c18.4,0.6,36.6,3.4,54.6,7.4c0.8,0.2,1.6,0.5,2.3,1.2 c-1,0-2,0-3.1,0c-11.1,0-22.3,0.1-33.4,0c-6.1-0.1-12.3-0.7-18.4-0.9c-8.5-0.3-17.1-0.7-25.6-0.5c-12.5,0.3-25,1.9-37.5,1.5 c-7.2-0.2-14.5,0-21.7,0c-1.1,0-2.1,0-3.2,0c0-0.2-0.1-0.4-0.1-0.6c2.9-0.7,5.8-1.4,8.7-2c16-3.3,32.2-5.5,48.5-6 c0.8,0,1.6-0.3,2.5-0.5C503.9,135.5,511.7,135.5,519.5,135.5z"></path> <path style="fill:#FFFFFF;" d="M190.8,310.8c1.7,1.9,3.4,3.8,5.3,5.9c0.5-1.3,0.8-2.1,1.1-2.9c1.7-4.6,4.7-6.7,9.6-6.8 c5.5-0.1,10.7,1.3,15.8,3c10.4,3.6,20.8,7.4,31.2,11c18.4,6.4,37.3,11.1,56.3,15.2c20.5,4.3,41.2,8,62,10.4 c15.3,1.8,30.7,3.6,46,5.1c10.9,1,21.8,1.4,32.6,2.1c15.7,1,31.3,1.4,47,1.3c11-0.1,22.1,0.1,33.1-0.1c8.6-0.1,17.3-0.4,25.9-0.9 c10.9-0.6,21.8-1.5,32.6-2.2c20.2-1.3,40.2-3.7,60.2-6.6c25.9-3.7,51.6-8.6,77-15c17-4.3,33.5-10.1,50-16.1c7.5-2.8,15-5.7,22.9-6.8 c2.1-0.3,4.3-0.5,6.5-0.3c3.4,0.2,5.9,2,7.4,5c0.6,1.2,1,2.6,1.6,4c2.3-0.2,2.6-2.9,5-3.9c-1.5,2.8-3.1,4.8-5.3,6.5 c-1.1-1.8-2.1-3.5-3.3-5.4c0,3.2-0.2,6.2,0,9.1c0.7,8.6,1.3,17.2,2.5,25.8c1.9,14.5,4.1,29,6.2,43.5c0.7,4.7,2,9.3,2.6,14 c0.3,2.3,0,4.8-0.6,7c-0.8,3.1-0.7,6,0.3,9.1c4.3,14.1,9,28,15.7,41.2c6.9,13.6,15.5,25.9,25.5,37.4c8.6,9.9,18.4,18.6,28.7,26.7 c0.4,0.3,0.9,0.6,1.6,1.1c1.2-2.1,2.5-4.1,3.6-6.2c11.5-20.5,38.3-26.6,57.9-10.4c8.4,7,12.4,16.1,13.2,26.8 c0.5,6.5,0.3,12.9-2,19.1c-1.4,3.6-2.9,7.2-5.9,10c-1.7-1.1-3.3-2.1-4.6-3c-3.3,2.3-6,4.8-9.3,6.3c-12.2,5.8-24.4,5.8-36.3-1 c-10.7-6-19.7-13.9-28-22.8c-14.8-15.9-26.2-34.1-36.1-53.2c-1.2-2.3-3-3.7-5.1-4.7c-2.7-1.4-4.2-3.5-5.3-6.2 c-6.8-17.1-12-34.7-15.7-52.7c-0.2-0.8-0.4-1.6-1.1-2.5c-0.5,2.2-1.1,4.4-1.8,7.4c-3.5-13.8-5.6-27.1-7.2-40.5 c-1.6-13.5-2.8-27-2.9-40.7c-0.1-13.5,0-27,0-40.5c-0.2,0-0.4-0.1-0.7-0.1c-0.2,0.5-0.6,1-0.6,1.5c-0.3,4.7-0.6,9.5-0.7,14.2 c0,10.3-0.2,20.6,0.3,30.8c0.6,11.9,1.9,23.9,2.9,35.8c1.1,12,3.3,23.9,5.8,35.7c4.6,21.7,11.7,42.5,21.1,62.5 c7.2,15.3,15.5,30,25.6,43.6c10.9,14.6,23.3,27.8,39,37.5c7.9,4.8,16.2,8.6,25.6,9.6c7.3,0.7,14.2-0.6,20.9-3.3 c8-3.1,14.3-8.3,19-15.6c1.1-1.6,2.1-3.3,3.5-5.4c-0.1,1,0,1.5-0.1,1.8c-3.9,8.6-9.6,15.5-17.7,20.6c-2.9,1.8-5.7,3.4-9,4.2 c-1.6,0.4-2.5,1.2-2.9,2.7c-0.6,3-2.7,4.1-5.4,4.7c-3.8,0.8-7.5,0.7-11.3,0.3c-1.2-0.1-2.2-0.2-2.1,1.8c3.5,1.2,7.1,2.4,11,3.7 c-5.2,12.8-11,25-16.9,37.4c0.7,0.6,1.5,1.1,2.1,1.6c2.2,2,3.4,4.4,3.4,7.4c0.1,9-1.6,17.6-5.2,25.9c-3.3,7.6-8.3,13.7-15.3,18 c-1.4,0.8-2.9,1.5-4.4,2.2c-0.9,0.5-1.9,0.9-3.1,1.4c0.8,1.3,1.4,2.3,2,3.2c5.1,8,8.8,16.5,8.8,26.1c0,5.4-0.1,10.9-0.9,16.2 c-1.4,9-3.8,17.9-9.4,25.3c-9.4,12.4-21.7,20.3-37,23.3c-13.9,2.7-27.3,0.1-40.5-4.2c-3.3-1.1-6.3-2.7-9.9-3 c-1.4-0.1-2.4-0.1-3.6,0.6c-1.4,1-2.9,1.8-4.6,2.8c0.3,0.5,0.6,0.9,1,1.5c-5.9,4.1-12.3,6.5-19.6,6.3c-5.7-0.2-11.1-1.5-16.5-3.3 c-8.5-2.9-17-5.8-25.5-8.7c-17.4-5.9-35.3-10.2-53.4-13.7c-18.7-3.7-37.5-6.2-56.4-8.4c-4.8-0.6-9.7-0.9-14.7-1.4 c-0.1,0.9-0.2,1.7-0.3,2.8c2.8,0.3,5.3,0.6,7.9,0.9c20,2.1,39.9,4.9,59.6,8.6c17.9,3.4,35.5,7.5,52.8,13.1c9.8,3.2,19.6,6.7,29.4,10 c5,1.7,10.1,2.9,15.5,3.3c5.2,0.4,10.1-0.6,14.8-2.8c3.1-1.5,3.3-1.4,5.3,1.3c4.4,6,3.9,11.3-1.5,16.4c-3.6,3.4-7.3,4.8-12,4.2 c0-5.5,0-11.1,0-17.1c-2.1,0-3.9,0.1-5.6,0c-6.1-0.3-11.9-1.9-17.7-3.8c-10.1-3.4-20.2-7-30.4-10.3c-12.9-4.2-26-7.3-39.3-10.1 c-14.9-3.1-29.9-5.6-45-7.6c-1-0.1-1.9-0.2-3-0.3c-0.1,1.8-0.2,3.5-0.3,5.4c-5.6-0.7-11-1.4-16.4-2.2c-0.3,0.9-0.4,1.5-0.7,2.3 c-0.6,0-1.2,0.1-1.9,0c-7.5-1-15-2-22.5-2.9c-2.7-0.3-5.4-0.5-8.1-0.7c-0.4,0-0.8,0.2-1.2,0.3c-4.5,1.3-8.9,2.5-13.4,3.8 c-0.5,0.1-1,0.3-1.7,0.6c-0.1,0.9-0.3,1.7-0.2,2.5c0.3,2.3,1.4,3.2,3.8,2.9c1.3-0.2,2.5-0.7,3.7-1.1c0.9-0.3,1.8-0.6,2.7-0.9 c-2.8,2.8-6.4,3.4-10.1,3.3c-1.6-0.1-2.8-1.1-3.4-2.6c-1.2-2.8-1.1-5.6,0-8.4c0.7-0.1,1.2-0.2,1.7-0.2c6.1-0.6,11.9-2.3,17.3-5.2 c5.1-2.8,9.2-6.5,10.9-12.3c1.9-6.3-1-10.9-7.4-12.2c-4.3-0.9-8.4-0.4-12.4,1.1c-10,3.6-16.9,10.6-21.5,20 c-2.5,5.2-4.3,10.6-3.7,16.5c0.6,6.2,4.5,10.8,10.6,11.8c9.7,1.7,17.8-1.7,24.8-8.4c0.5-0.5,1-1.4,0.9-1.9c-0.5-1.7-1.2-3.3-1.9-5 c-1.6,1.1-2.9,2-4.1,2.8c1.7-2.3,3.7-4.4,6.4-6c1.3,3,2.5,5.9,3.7,8.7c0.6,1.4,0.6,2.6-0.6,3.8c-6.8,7-15,11-24.9,10.7 c-10.9-0.4-16-8-16.1-16.4c-0.1-2.9,0.5-5.8,0.8-8.7c0.1-0.7,0.1-1.5,0.2-2.2c-1.8-1.2-2.7-0.1-3.6,1c-6.6,7.3-13.2,14.7-19.9,21.9 c-5,5.4-2.8,4.3-10.3,4.4c-2,0-4-0.3-6.4-0.5c0.2-9.9,0.4-19.5,0.7-29.3c-3.7,0-7.1,0-10.8,0c-1.4,3.7-2.7,7.3-4.1,11.3 c1.1,0.3,2.2,0.4,2.3,2c0.1,2,0.9,4,1.5,5.9c0.5,1.4,0.2,2.5-0.9,3.5c-3.9,3.8-8.5,6.3-14,7.1c-1.6,0.2-3.3,0.1-4.8-0.2 c-5.5-1.1-8-5.3-6.2-10.6c1.7-5.2,3.6-10.4,5.5-15.6c0.3-0.9,0.6-1.8,1-2.9c-3.5-0.6-6.6,0.1-9.8,0.6c-0.7,0.1-1.4,1.5-1.8,2.4 c-3.8,8.5-7.5,17-11.2,25.5c-0.9,2.2-1.9,4.3-3.1,6.9c3.1-0.2,5.7-0.3,8.3-0.5c11.6-1.3,23.1-1.1,34.4,2.3c4.3,1.3,8.5,2.8,12,5.6 c1.9,1.5,3.6,3.4,5.1,5.3c1.4,1.8,1.5,3.9,0.2,5.8c-1.3,1.9-3.3,2.5-5.4,2c-4.5-1-9-2.3-13.5-3.2c-10.8-2.3-21.6-3.1-32.6-1.8 c-4.6,0.5-9.2,1.4-13.8,2c-1.8,0.2-3,1.1-4.1,2.3c-3.3,3.7-6.9,6.9-11.3,9.2c-3.6,1.9-7.4,3.1-11.5,2.9c-6.9-0.4-10.8-5.8-8.6-12.4 c1.2-3.8,3.8-6.8,6.9-9.3c3.5-2.8,7.5-4.6,11.9-5.8c1.4-0.4,2.5-0.8,3.2-2.4c4.7-11.3,9.5-22.5,14.2-33.8c0.2-0.6,0.3-1.2,0.5-2 c-1.4,0-2.5-0.1-3.7,0c-4,0.2-4.3,0.5-5,4.4c-2.3,13-11.4,22.6-24.3,25.3c-7.5,1.5-17.1,0.2-23.5-5.4c3.3-6.8,5.4-14.3,11.2-19.9 c-0.7-0.5-1.3-0.7-1.7-1.2c-0.3-0.5-0.2-1.2-0.3-2.1c-8.1,1.1-16.1,2-23.9,3.1c-7.9,1.1-15.8,2.4-24.1,3.7c0-1.9,0-3.7,0-5.7 c-1.6,0.1-2.9,0.1-4.2,0.3c-30.1,4.4-59.9,10.2-88.6,20.3c-7.5,2.7-15,5.6-22.5,8.2c-7.6,2.6-15.4,4.3-23.8,2c0,6,0,11.7,0,17.7 c-5.6-1.3-9.1-4.5-11.5-9.2c-0.5-1-0.9-2-1.1-3c-0.2-0.7-0.4-1.7-0.1-2.2c2.1-2.8,3.1-6.4,6.3-8.5c0.3,0.1,0.8,0.1,1.1,0.4 c6.9,4.2,14.3,5.1,21.9,3c8.7-2.4,17.3-5.4,25.8-8.5c18.2-6.7,36.8-11.9,55.9-15.6c14.5-2.8,29.1-5.2,43.8-7.6 c5.9-1,11.8-1.5,17.7-2.2c1.1-0.1,2.1-0.3,3.4-0.5c0.1-0.9,0.1-1.6,0.2-2.6c-0.6-0.1-1-0.2-1.4-0.2c-13.3,1.7-26.6,3.3-39.8,5.3 c-16,2.5-31.9,5.8-47.6,9.9c-13.8,3.6-27.3,8.2-40.7,13.2c-6.8,2.5-13.5,5.2-20.8,6.1c-6.2,0.8-12.1,0-17.5-3.2 c-1.9-1.1-4-2.1-6.2-3.2c0.4-0.6,0.6-1,1-1.5c-4-2.7-8-5.4-12.1-8c-0.6-0.4-1.4-0.5-2.1-0.4c-14.9,1.4-28,6.9-38.8,17.4 c-2.2,2.1-4.4,3.7-7.6,3.7c-4.3-0.1-9.7-3.8-11.1-7.8c-2-5.6-4-11.2-5.7-16.9c-0.5-1.8-0.6-3.9-0.1-5.7c1.6-7.2,2.1-14.3,1.1-21.6 c-0.8-5.8-2.9-11.1-5.3-16.3c-4.9-10.6-10-21.2-14.9-31.8c-5.4-11.6-14.5-19.5-25.7-25.2c-3.3-1.7-5.5-4-6.6-7.5 c-1.5-4.7-3.3-9.4-5-14.1c-2.5-7,2.1-14.4,9.6-15.2c1.6-0.2,3.2-0.3,5.1-0.5c-5.2-11.6-10.3-22.8-15.5-34.3c2.3-0.8,4.3-1.5,6.2-2.2 c1.4-0.5,2.9-0.9,4.3-1.4c0.3-0.1,0.6-0.8,0.6-1.2c0-0.2-0.5-0.7-0.9-0.7c-0.6-0.1-1.3,0.1-1.9,0.1c-4.2,0.2-8.4,0-12.5-1.4 c-1.6-0.5-2.7-1.3-3.1-2.9c-0.6-2.6-2.4-3.8-4.9-4.5c-4.4-1.2-7.7-4.3-11.1-7c-5.5-4.3-9.5-9.9-12.4-16.4c-0.2-0.5-0.4-1.1-0.1-1.9 c0.7,1.1,1.4,2.2,2.1,3.4c3.6,6,8.2,10.9,14.2,14.3c12.6,7.2,25.7,8.5,39.2,3.2c10-3.9,18.8-9.7,26.9-16.6 c17.4-14.9,30.6-33.1,41.6-53c9.2-16.5,16.7-33.7,22.6-51.6c4.8-14.8,8.5-29.9,10.8-45.3c1.8-12.1,3.2-24.4,4.4-36.6 c1.6-16.4,1.7-32.8,1.5-49.2c-0.1-5.2-0.4-10.3-0.7-15.5c0-0.5-0.3-0.9-0.5-1.6c-1.3,1-1,2.1-0.9,3.1c0.2,9.7,0.8,19.5,0.5,29.2 c-0.3,12.1-1,24.2-1.9,36.2c-1.3,17.4-4,34.7-7.8,51.8c-0.1,0.4-0.3,0.8-0.7,1.7c-0.7-2.7-1.2-4.8-2-7.7c-1.6,6.7-3,12.6-4.4,18.6 c-3.3,13.6-7.8,26.7-13,39.7c-0.8,1.9-1.9,3.4-3.7,4.3c-0.8,0.4-1.4,0.9-2.2,1.4c-2,1.1-3.2,2.7-4.2,4.7 c-8.5,16.4-18.1,32-30.1,46.1c-9.7,11.5-20.5,21.7-33.6,29.1c-8.3,4.7-17,6-26.3,4.3c-6.8-1.2-12.8-3.9-17.7-8.9 c-0.3-0.3-0.7-0.5-1.3-0.8c-1.5,0.9-3,1.9-4.9,3.1c-0.7-0.8-1.5-1.7-2.2-2.6c-3.8-5.7-5.7-12-5.9-18.9c-0.2-6.2,0-12.3,2.1-18.2 c5.3-14.9,16.3-23.4,31.6-25.3c16.3-2,28.7,4.9,37.3,18.9c1.2,2,2.4,4.1,3.7,6.3c0.7-0.4,1.3-0.6,1.7-0.9c7.6-5.9,15-12.1,21.7-19 c18.6-19.2,32.9-41.1,41.7-66.5c2.5-7,4.5-14.2,6.9-21.3c0.8-2.5,1-4.8,0.2-7.3c-1.3-3.9-1-7.7-0.2-11.8c3-14.3,5.3-28.6,6.9-43.1 c1.2-11.1,2.2-22.3,3.3-33.5c0.3-3.4,0.6-6.9,0.8-10.3c0-0.7-0.2-1.4-0.8-2.2c-1.2,2.1-2.4,4.2-3.7,6.5c-2.3-2.2-4.4-4.6-5.6-7.6 C190.6,311,190.7,310.9,190.8,310.8z M767.9,429.9c0.2,0.2,0.3,0.3,0.5,0.5c0,1.4-0.1,2.8-0.1,4.2c0,1.5-1,1.7-2.4,1.7 c0-1.1,0-2,0-3c-0.2,0-0.4-0.1-0.6-0.1c-0.5,1.1-0.9,2.2-1.5,3.7c-3.5-0.5-6.9-1-11.2-1.7c1.7,1,2.7,1.7,3.8,2.3 c3.8,1.9,4,2.1,3.4,6.2c-1.6,12.1-4.7,24-5.1,36.3c-0.1,2.4-1.4,4.7-1.8,7.1c-1,5.7-1.7,11.5-2.9,17.2c-1.6,7.7,0.4,6.1,5.4,7.1 c0.4,0.1,0.9,0,1.3,0c1.7,0.1,2.6-0.8,2.9-2.4c0.3-1.5,0.3-3,0.6-4.5c1.4-6.9,1.7-14,4.1-20.8c0.8-2.3,0.2-5,0.6-7.5 c1.5-10.3,3.2-20.7,4.8-31c0.7-4.3,0.8-4.5,5.1-5.4c4.1-0.8,7.9-2.2,11.1-5c3-2.6,4.7-5.8,4.7-9.9c0.1-3.6-1.4-6.5-3.2-9.2 c2.6-7.8,1.2-14.7-4-20.7c-2.4-2.8-5.1-5.3-8-7.5c-6.3-4.8-11.3-10.7-15.1-17.6c-2.6-4.9-4.6-10.1-4.2-15.8c0.2-2.5,1-5,1.5-7.5 c-5.3-3.7-12.9-1.7-19,5c-1-0.2-2-0.6-3.1-0.6c-3.1-0.2-6.3-0.5-8.8,2.1c-2.2,2.4-4.5,4.7-6.7,7.1c-1.9,2-3.7,4.1-5.2,5.9 c2.1,4.3,5.6,4.7,9.5,4.4c1.7-0.1,3.4,0,5.3,0.1c-2,11.4-5.3,21.8-8.5,32.4c-2.2,0-4,0-5.8,0c-2.9,0-3,0-3.8,2.8 c-1.9,5.9-3.7,11.8-5.5,17.6c-0.5,1.7-1.2,3.4-1.8,5c-0.2,0-0.5,0-0.7,0c-0.7-2.4-1.5-4.7-2-7.1c-1.3-6.7-2.6-13.4-3.7-20.1 c-1-6.2-2.1-12.3-2.6-18.6c-0.5-5.5-0.4-11,1.9-16c-3.8-3.3-7.3-2.3-12.9,3.2c-10.9-5.7-21.3,2.2-24,10.1c8.2,5.3,13.9,12.8,18,22.2 c-3.9,0.5-7.4-0.8-10.8,0.1c1.2,2.9,2.4,5.6,3.3,8.3c2.5,7.6,4,15.5,4.8,23.4c0.5,5.5,1,11.1-3.6,15.5c-0.1,0.1-0.1,0.4-0.1,1 c2.3,1.7,5.1,3.3,7.3,5.5c2.3,2.2,4.1,5,6.3,7.8c2.4,0,5.2,0,8.2,0c0.5,1.6,1.3,3.1,1.5,4.6c0.7,4.1,1.5,8.3,1.8,12.5 c0.4,7.9,0.7,15.8,0.7,23.6c0,6.6-1.2,13.1-4.5,19c-1.1,2-2.3,3.2-4.7,3c-2.8-0.2-5.7-0.1-8.4-0.1c2.6,2.6,5.2,5.4,7.9,8.1 c0.4,0.4,1.2,0.6,1.8,0.6c3.9,0.1,7.8,0,11.6-1.1c1.1-0.3,2.3-0.6,3.3-0.9c10.9,12.6,26.3,14.7,33.9,10.5c0-0.1,0-0.2-0.1-0.3 c-0.2-0.2-0.4-0.5-0.7-0.6c-3.6-2.2-5.7-5.6-6.9-9.5c-2.3-7.3-3.8-14.9-4.2-22.5c-0.4-6.6-0.4-13.2-0.9-19.7c-0.5-7-0.8-14,0.1-21 c1-7.6,3.7-14.4,10.2-19.2c2.7-2,2.7-2.4,0.6-5.2c-1.2-1.6-2.3-3.3-2.5-5.5c-0.7-5.8,0.1-11.4,1.2-17c2.9-14.4,7.6-28.4,11.7-42.5 c0.1-0.4,0.4-0.8,0.8-1.5c5.6,7.9,12.3,14.1,19.4,19.9c1.5,1.3,2.7,2.9,4.6,4.9c-6.5,0-12.2,0-18.3,0c1.5,1.7,2.7,3,4.1,4.6 c-3.7,1.9-6.9,3.6-9.3,6.5c-2.7,3.2-2,7-3,10.9c1.9,0.9,3.8,1.9,5.8,2.6C756.3,430.4,762.1,429.9,767.9,429.9z M775.4,624.8 c-0.5,1.2-0.9,2.1-1.3,3c-3.5,8.2-4.5,16.6-2.3,25.3c0.3,1.2,0.7,3,1.6,3.4c2,0.9,2.3,2.7,3.4,4.1c2.3,3,4.4,6.1,6.9,8.9 c6.5,7.2,14.2,13,22.3,18.1c1.2,0.8,2.5,1.4,3.4,2.8c-2.4,0.6-4.2,0-6.1-1.1c-3.1-1.8-6.3-3.5-9.6-4.7c-6.6-2.3-13.4-3.2-20.4-2.3 c-8.1,1.1-13.8,6.3-20.2,11.4c1.1-2.5-0.7-3.1-2.2-3.8c0-1,0.1-1.7,0-2.5c-1.2-8.8-5-15.8-13.4-19.6c-7-3.2-14.3-4-21.8-2.5 c-3.8,0.8-7.5,2-10.6,4.6c-3.8,3.2-3.7,6.8,0.5,9.4c3,1.9,4.3,4.4,4.3,7.8c0,0.9,0,1.7,0,2.6c-1.3,1-2.1,2.2-2.7,3.5 c-2.9,6.1-8.9,9.5-15,8.4c-4.7-0.8-8.5-3.1-11.1-7.2c-0.8-1.3-1.4-3.2-2.6-3.6c-2.4-0.8-2.7-2.6-3-4.4c-0.5-3-1-6-1.1-9 c-0.1-6.6,0.9-13.1,2.3-19.5c0.1-0.3,0.2-0.6,0.3-1c0.7-0.2,1.5-0.3,2.4-0.5c0.2-1,0.5-2,0.7-3.1c2.2-10.6,4.2-21.2,6.6-31.7 c1.6-6.9,3.5-13.8,5.6-20.6c2-6.2,6.2-10.8,11.8-14.1c4.4-2.6,5.3-5,3.4-9.7c-0.3-0.8-0.6-1.6-1-2.4c-2-4-5.7-6.5-10.5-5.8 c-9.2,1.1-18.3,0.6-27.4-0.9c-12.7-2.1-25.1-5.6-37.3-9.8c-6.3-2.1-9.9-1.2-13.4,4.6c-2.3,3.8-2.3,6.3,0.8,9.6 c0.7,0.7,1.4,1.4,2.1,2.1c3,3.3,5.6,6.9,6.8,11.3c3.2,10.9,3,21.9,1.6,33.1c-0.1,0.4-0.1,0.9-0.4,1.2c-1.7,2-3.4,4-5.3,6.2 c-6.8,0.2-13.3-3.6-20.4-3.6c1.7,1.2,3.5,2.1,5.3,2.9c4.2,1.8,8.4,3.4,12.5,5.3c2.3,1.1,2.5,2.9,0.3,4.3c-2.7,1.7-5.6,3.2-8.5,4.7 c-2.8,1.4-5.7,2.7-8.4,4.1c-0.5,0.3-0.9,0.9-1.3,1.4c0.1,0.2,0.2,0.4,0.3,0.5c6.8-1.8,13.7-3.6,20.2-5.3c1.9,1.5,2.5,2.9,2.1,4.8 c-0.7,2.9-1.1,5.9-1.6,8.9c-0.1,0.6-0.4,1.6-0.2,1.8c1.5,1.1,0.6,2.4,0.3,3.5c-1.7,5.3-3.3,10.7-5.3,16c-1.3,3.5-3.1,6.9-5.1,10.1 c-1.7,2.7-4.2,4.7-7.7,4.7c-1.5,0-2.4,0.8-3.1,1.9c-1.3,2-1.3,4.1-0.5,6.2c0.7,1.7,1.4,3.4,2.2,5c2,4.1,5.4,5.7,9.9,4.8 c10-1.9,20-1.9,29.7,1.5c4.3,1.5,8.6,3,12.8,4.5c10,3.7,19.8,8,30.4,10.3c11.6,2.5,23.3,3.3,35,0.2c10.4-2.7,19.1-7.9,25.5-16.8 c0.7-0.9,1.3-1.8,2-2.8c0.2,0.3,0.3,0.4,0.3,0.5c0.1,0.4,0.1,0.9,0.1,1.3c0.2,7.6,2.7,14.4,7.5,20.3c6.5,8.1,14.4,14.6,23.1,20.2 c12.8,8.3,26.7,14.2,41.2,18.7c10.2,3.2,20.6,4.8,31.3,3.6c16.5-1.8,29.8-9.3,40.1-22c7.6-9.4,9.8-20.2,6.9-32 c-2-8.1-6-15.2-11.2-21.7c-1.3-1.6-2.2-3.8-4.8-4c-0.4,0-0.7-0.8-1.1-1.1c-3.5-3.4-6.9-6.9-10.6-10c-8.2-6.8-16.7-13.4-25-20.1 c-0.7-0.5-1.8-1.2-1.8-1.7c0.2-1.6-1.1-2-1.9-2.7c-4.6-4.1-9.4-8-13.8-12.2c-2.8-2.7-5-5.9-6.1-9.8c-0.5-1.8-0.3-3.5,0.7-5 c2.3-3.2,5.6-5.6,10-4.5c1.6,0.4,3.1,0.9,4.5,1.7c4.9,2.7,7.7,7.1,9.7,12.1c1.8,4.5,3.3,9.2,5.3,13.6c1.1,2.4,1.5,5.5,4.6,6.6 c0.4,0.2,0.6,0.8,1,1.3c0.9,1.2,1.7,2.5,2.7,3.6c8.1,8.9,18,12.9,30,10.3c7.4-1.6,13-6.2,17.3-12.4c1.4-2,2.6-3.9,5.6-3.6 c0.9-2.7,2-5.2,2.7-7.8c1.2-4.5-2.7-9.6-7.3-9.9c-1.4-0.1-2.8-0.1-4.2,0c-6,0.7-11.7-0.4-16.9-3.3c-4.7-2.6-9.2-5.7-13.6-8.7 c-4.4-3.1-8.6-6.5-13-9.7c-8.7-6.4-18.7-9.8-29.1-12.2c-1.1-0.2-2.1-0.6-3.6-1c2.5-1.7,4.6-3.1,6.7-4.4c-0.1-0.2-0.2-0.4-0.3-0.7 c-2.1,0.5-4.1,1-6.2,1.5c-4.5,1-8.8,2.7-13.6,2.3c-2.6-0.3-4.1-2.4-6.5-3c-0.3-0.1-0.3-1.3-0.3-2c0.1-1.2,0.4-2.4,0.6-3.6 c-0.2-0.1-0.4-0.2-0.6-0.2c-1,1.4-2,2.7-2.9,3.9c-2.4-0.2-4.6-0.4-6.9-0.5c-1.2,0-2.3,0.2-3.5,0.4c-1.1,0.2-2.5,0.2-3.3,0.9 c-2.2,1.8-4.2,4-6.5,6.3c-7.1-0.2-14.2-3.7-21.9-4c6.7,4.4,14.7,5.8,21.7,10.5c-1.9,1.8-3.7,3.3-5.2,5.1c-1.7,2.1-4,3.3-6.3,4.3 c-2,0.9-4,1.7-5.9,2.7c-1.6,0.8-3.1,1.8-5.3,3.1C768.6,627.1,771.5,625,775.4,624.8z M322.1,619.4c-1.4,0.2-2.5,0.4-3.5,0.5 c-4.5,0.3-8.8,1.2-12.9,2.8c-1.5,0.6-3,1.3-4.4,2c-1.3,0.7-2.7,1.4-3.9,2.3c-1.3,0.9-2.4,2.3-3.8,3c-1.9,1-0.6,2.8-1.5,4 c-0.7,0.9-1.2,1.8-1.8,2.7c-3.2,5.9-3.5,12.1-2.4,18.6c0.2,1.4,1.8,2.9,0,4.4c-0.1,0.1,0.1,0.8,0.3,1.2c2.5,5.7,6.5,9.9,12.4,12.1 c1.4,0.5,3.2,0.5,4.7,0.1c2.7-0.6,4.3-2.5,5.1-5.3c1.2-4.4,3.7-6.1,8.1-5.7c0.1,0.5,0.2,1,0.1,1.5c-0.4,11.2-3.2,21.8-7.8,31.9 c-2.1,4.6-4.5,9.1-6.8,13.7c-1.7,3.6-1.1,6.2,1.9,8.6c1.3,1.1,2.8,2,4.3,2.9c3.6,2.2,7.5,1.6,10.2-1.7c1.9-2.4,4.3-3.9,7.2-4.8 c10.4-3.3,21-4,31.7-1.7c5.8,1.2,8.8-0.3,10.9-5.8c1.5-4,0.6-7.1-3.1-9.4c-1.4-0.8-2.9-1.5-4.4-2.1c-3.5-1.4-6.5-3.5-8.9-6.3 c-3.3-3.8-5.3-8.2-5.9-13.7c6,1.6,11.8,2.2,17.6,1c6-1.3,10.9-4.3,14.9-9.5c0.7,2.1,1.4,3.6,1.7,5.2c1.2,5.8,2,11.7-0.1,17.5 c-0.7,1.8-1.8,3.4-2.8,5.1c-2.2,3.7-1.8,6.7,1.4,9.5c1.4,1.2,3,2.2,4.4,3.3c3.3,2.7,6.7,2.5,10.2,0.4c1.9-1.1,3.8-2.1,5.7-3 c10.3-4.6,21.2-4.9,32.1-4.2c4.6,0.3,9.1,1.6,13.7,2.6c3.3,0.7,6.4,0.5,8.5-2.5c2.7-4,4-8,0.8-11.9c3.1-0.8,3.9-0.3,4.8,2.5 c1.3,4,3.7,7.3,7,9.9c2.1,1.7,4.7,1.7,7.1,0.8c2.1-0.7,1.5-2.9,1.9-4.5c0.1-0.4,0.1-0.8,0.1-1.6c-1.4,0.5-2.5,1-3.6,1.3 c-0.7,0.2-1.7,0.3-2.1-0.1c-1.6-1.5-2.9-3.2-3.5-5.4c0.2-0.2,0.4-0.3,0.6-0.5c1,1.2,1.9,2.4,2.9,3.5c1.9-0.6,3.6-1.3,5.4-1.8 c1.2-0.3,1.7-1,2.3-2c0.9-1.8,1.9-3.7,3.2-5.2c4.2-5,11.3-4.4,15,1c0.6,0.9,1.2,1.8,2,2.6c0.6,0.5,1.4,0.9,2.2,1.1 c8.1,1.4,16.2,2.7,24.2,4.3c10.7,2.1,21.4,4.2,32.4,3.6c9.1-0.5,17.7-2.5,25.7-7c6.4-3.6,11.4-8.5,14.5-15.2 c0.2-0.5,0.3-1.2,0.7-1.4c2.8-1.5,2.5-4.3,2.7-6.7c0.2-2.3,0-4.7,0-7.1c1.6,4.4,1.4,8.9,0.1,13.3c-2.3,7.6-7.1,13.2-13.5,17.7 c-9.8,6.8-20.9,9.1-32.5,9.4c-6.7,0.1-13.4-0.6-20-1.9c-8.7-1.7-17.4-3.5-26.1-5.2c-2.8-0.5-5.7-0.8-8.7-1.2 c-0.1,1.5,0.2,2.9-1.7,2.8c-0.2,0-0.5,1.1-0.8,1.7c5.5,0.9,10.8,1.7,16,2.7c10.1,1.8,20.1,4,30.3,5.5c10.4,1.5,20.8,0.9,30.9-2.1 c11.7-3.4,21.6-9.4,28.1-20c5-8.1,6.8-17,3.3-26c-1.9-5-3.6-10.8-10.2-12.2c-0.1,0-0.2-0.1-0.2-0.2c-10.8-7.3-27.5-5.8-37.2,1.8 c-0.5,0.4-1,0.8-1.6,1.1c-3.2,1.3-4.3,4-3.3,7.2c0.8,2.5,2.6,4,4.9,4.9c2.9,1.1,4.1,3.2,4.2,6c0.4,5.9-1.5,11-6.7,14.1 c-5.1,3.1-10.4,2.6-15.4-0.4c-5.4-3.3-8-8.6-9.4-14.6c-1.1-4.7-1.8-9.6-1.6-14.4c0-0.7-0.1-1.5-0.1-2.2c-0.9-0.4-1.6-0.7-2.2-0.9 c0-8.2,0-16.2,0-24.3c1.1-0.2,2-0.4,2.7-0.6c0.3-6.2,0.5-12.1,0.9-18c0.4-5.5,0.9-11,1.5-16.4c0.6-5.3,1.8-10.5,5.1-14.8 c1.8-2.3,4-4.3,6.1-6.3c2.4-2.2,3.3-4.9,1.9-7.6c-1.1-2.1-2.4-4.1-3.9-5.9c-2.4-2.8-5.5-3.6-9.1-2.6c-2.3,0.6-4.6,1.2-6.9,1.7 c-12.5,2.6-25.1,2.4-37.8,1.1c-7.4-0.8-14.8-2-22.2-2.9c-1.8-0.2-3.7-0.3-5.4,0.2c-3.4,0.9-7.5,7-6.9,10.4c0.3,1.6,1.3,3.1,2.3,4.5 c0.7,0.9,1.8,1.5,2.8,2.2c4.8,3.6,8.5,8,10.6,13.6c2.7,7.1,4.1,14.6,5,22c0.6,5,0.5,10.1,0.7,15.2c0.1,1.2,0,2.7,0.7,3.4 c1.2,1.1,1.2,2.3,1.2,3.5c0,6.7-0.1,13.4-0.2,20.1c0,0.6-0.2,1.5-0.6,1.7c-1.2,0.6-1,1.5-1.1,2.5c-0.5,3.5-0.8,7.1-1.4,10.6 c-1,5.3-2.2,10.5-3.5,15.8c-0.7,2.8-2.4,5-4.7,6.8c-1.7,1.3-3.3,2.7-5.2,4.2c-4-0.1-6.7-3.5-10-4.8c-0.5-1.7-0.9-3.1-1.3-4.6 c5.1-4.3,11.9-5.7,17.2-9.8c-6.6,0.1-12.3,4-18.9,3.5c-0.8-0.9-1.5-1.8-2.4-2.7c-0.8-0.8-1.8-1.5-2.6-2.2c0.2-1.4,0.4-2.6,0.6-4.3 c-3.8,3.8-4.3,3.7-6.5-0.5c-0.1-0.3-0.3-0.6-0.4-0.9c-0.6-1.6-1.5-2.9-3.6-2.4c-3.7-8.8-7.4-17.4-11.1-26.1c0.5-0.2,0.8-0.3,1.1-0.4 c0.2-0.1,0.5-0.3,0.8-0.6c-6.7-14.3-11.8-29.1-15.3-44.4c-0.5-2.4-1.1-4.8-1.5-7.3c-0.6-4.4,0.8-8.3,3-12c2-3.4,1.6-5.7-1.3-8.4 c-1.1-1-2.4-1.8-3.6-2.8c-3-2.5-6.3-2.5-9.7-1.3c-4.2,1.4-8.4,2.9-12.6,4.1c-12.7,3.6-25.7,5.9-38.9,6.9c-6.1,0.4-12.3,0.5-18.4,0.7 c-2.3,0-4.5-0.5-6.8-0.3c-4.7,0.4-6.3,4.1-7.7,7.8c-1.1,3.2,0.8,5.3,3.1,7.2c4.4,3.6,7.4,8.1,8.7,13.7 C324.2,603.5,323.4,611.4,322.1,619.4z M236.8,658.1c4.4-3.9,8.6-7.5,12.6-11.2c2.3-2.1,4.1-4.7,5.1-7.8c2.6-8,1.4-15.6-2.5-22.8 c-4.9-9.1-12.7-14.8-22.4-18.2c-1.5-0.5-2.9-1-4.9-1.7c5.9-2.6,11.3-5,16.6-7.4c0-0.3-0.1-0.5-0.1-0.8c-0.8-0.1-1.6-0.3-2.3-0.1 c-4.2,1-8.3,2.2-12.5,3.2c-3.8,0.9-7.5,1.6-10.8,2.3c-2-2.1-3.5-3.7-5.2-5.4c0.3-1.7,0.7-3.5,1.1-5.3c-0.2-0.1-0.5-0.2-0.7-0.3 c-1.1,1.4-2.1,2.9-3.3,4.5c-8.2-2.2-14.4,0.6-18.9,8.1c-6.9-1.4-13.8-2.8-20.6-4.2c-0.1,0.2-0.2,0.5-0.2,0.7 c4.6,3.2,10.6,3.9,15.3,7.5c-1.5,0.6-2.7,1-3.9,1.5c-3.6,1.4-7.4,2.5-10.8,4.3c-10.8,5.5-21.6,10.9-32.1,17 c-14.4,8.3-29.5,13.8-46,15.5c-5.6,0.6-7.5,3.7-8.6,7.4c-0.8,2.7,0.1,5.2,2.4,6.8c0.9,0.6,1.8,1.1,2.8,1.6 c11.6,5.6,20.7,13.6,26.4,25.3c0.4,0.7,0.8,1.9,1.4,2c1.5,0.2,1.6,1.4,2,2.3c3.5,7.1,7,14.2,10.5,21.2c1.3,2.7,1.5,2.7,5.1,1.8 c-4.8-10.4-9.6-20.8-14.4-31.2c2,0.3,2.3,1.9,2.9,3.2c4.7,10,9.5,19.9,14,29.9c4.6,10,8.8,20.2,10.8,31.1c1.2,6.1,2.2,12.3,1.2,18.6 c-0.6,4-1.1,8.1-1.6,12.4c0.8,0.5,1.8,1,2.5,1.5c3.7-3,7-5.9,10.6-8.5c8.9-6.3,19-9.7,29.6-12c8.5-1.9,17.2-3.3,25.7-5.3 c13.2-3.1,25.7-8.1,37.1-15.7c5.2-3.4,9.8-7.5,13.6-12.4c8.6-10.8,9-22.5,3.6-34.7c-1.3-3-3.4-5.7-5.4-9.1c1.1,0.5,1.9,0.7,2.4,1.2 c2.6,2.8,4.7,6,6.1,9.5c2.8,6.9,4,14,2.7,21.5c2.3,1,2.6-0.6,2.9-1.9c1-4.4,0.9-8.8-0.2-13.1c-0.8-3.3-1.8-6.6-2.7-9.9 c0.5-0.2,1-0.4,1.6-0.7c-0.5-1-1-2-1.5-2.9c-6.3-10.2-15.4-16.1-27.1-18.2C243.3,658.7,240.1,658.5,236.8,658.1z M221.1,439.9 c0.9,1.2,1.6,2.1,2.2,3.1c1,1.5,2.2,3,3,4.6c3.1,5.9,5.1,12.2,6,18.7c1.2,7.9,1.8,15.9,3.3,23.7c2.1,11.5,6,22.3,12.7,32 c7,10.1,16.2,17,28.4,19.6c9.3,2,18.7,1.9,28,0.3c6-1,11.5-3.1,16.4-6.7c3.7-2.8,7-6.1,10-8.7c0.3-1.8,0.2-2.9,0.6-3.9 c2.3-5.7,3.7-11.5,4-17.6c0.2-4,0.3-8,0.6-12c0.4-4.5,1-5.1,5.3-6.2c-1.2-6-5.6-8-10.3-8.5c-2.5-4-4.8-7.7-7-11.3 c2.1-0.2,4.4-0.4,7.2-0.7c-8-4.6-24.9-4.5-30.7-0.1c0,0.1,0,0.2,0.1,0.3c0.3,0.3,0.7,0.5,1.1,0.7c4.8,2.4,8.3,6.1,10.8,10.8 c3.9,7.3,4.9,15.1,3.5,23.2c-1.2,6.9-4,13-10.3,16.9c-5.3,3.4-11.3,4.3-17.5,3.8c-7.3-0.6-13.4-3.8-17.9-9.8 c-2.7-3.6-4.7-7.5-6.2-11.7c-2.7-7.6-4-15.5-5-23.4c-0.4-2.9-0.1-6-0.1-9.1c4.3-0.4,8.5,0.2,12.7-0.4c0-8.7,0.5-16.9,8.2-22.5 c-0.6-0.8-1.1-1.4-1.6-1.9c-2.1-2.4-3.9-5-4.4-8.2c-1.2-7-1.4-14-0.5-21c0.1-1.1,0.3-2.3,0.4-3.6c-4.4,0-8.6,0-12.7,0 c-0.2-0.4-0.3-0.6-0.3-0.8c0.1-1.1,0.3-2.1,0.5-3.2c1.7-8.6,5.2-16.2,11.8-22.2c3.1-2.9,6.4-5.2,11-4.5c1,0.1,1.9,0,2.9,0 c5.4-0.1,10.8-0.3,16.2-0.2c1.3,0,2.8,0.3,4,0.9c3.6,1.9,6.5,4.7,8.6,8.1c3,4.8,4,10.3,4,15.8c-0.1,4.2-0.6,8.3-1,12.8 c3.5,1,7.2,2.1,11,3.1c0.9,0.2,2,0,2.8-0.4c5-1.9,8-5.6,10.1-10.5c-2,0-3.8,0.1-5.5,0c-1.6-0.1-3.4,0.4-5.2-0.6 c4.3-6.3,4.9-12.7,1.3-19.3c3-3.4,3.7-7.3,3.2-11.7c-0.9-0.7-2-1.7-3.2-2.7c-0.7,0.4-1.2,0.8-1.7,1.1c-3.8,2.5-4.9,2.4-8-1 c-0.2-0.2-0.4-0.5-0.6-0.8c-5.3-6.9-12.1-11.6-20.1-14.9c-6.7-2.8-13.5-4.7-20.8-3.9c-14.9,1.8-26.5,9.3-35.4,21.2 c-6,8-8.6,17.3-10.2,27c-1.2,7.6-2.7,15.1-5.3,22.3c-1.7,4.9-4.1,9.3-8.8,12.1C222.2,438.6,221.8,439.2,221.1,439.9z M408,517 c0.4,2.2,1.7,3.7,3.4,4.4c2,0.8,4.1,1.2,6.2,1.8c1,0.3,2.2,0.3,3,0.9c4,3.1,8.6,3.9,13.5,3.6c6.8-0.4,9.9-2.7,11.5-8.3 c0.9-3.2-0.4-5.1-3.7-5.3c-0.8,0-1.7-0.2-2.4-0.2c-1.8-6.2-1.9-19.1-1.3-25.3c0.3-3.1,0.3-6.3-0.2-9.4c-0.6-4-1.7-8-2.6-12.1 c0.7-0.1,1.6-0.2,2.8-0.4c-3.4-6.3-8.5-10.3-15.4-13.3c1.7-0.4,2.7-0.6,3.6-0.9c7.3-2.2,13.3-5.9,15.7-13.6c1.1-3.5,2.6-6.6,5.6-8.9 c-1.2-1.9-2.3-3.5-3.3-5.3c-0.7-1.2-0.7-3.1-1.6-3.8c-2.2-1.7-2.3-4-2.6-6.3c-0.5-5-1.9-9.7-4.2-14.2c-5.1-9.9-13.4-15.2-23.9-17.6 c-10.8-2.5-21.7-2.3-32.5-0.4c-1.7,0.3-2.8,0.1-4.1-0.9c-6.7-4.7-14.2-6.2-22.2-5c-0.9,0.1-1.7,0.5-2.8,0.9 c3.7,4.1,5.3,8.8,6.6,13.6c1.7,6.2,2.5,12.5,2.6,18.9c0.1,8.3,0.6,16.7-0.7,24.9c-0.8,5-1.9,10-6.4,13.3c-1.7,1.3-1.6,2.5,0.1,4 c3.1,2.8,4.8,6.3,5.4,10.4c0.4,3,0.8,6,0.9,9c0,4.6-0.3,9.3-0.4,13.9c-0.1,9.9-2.2,19.5-5.2,28.9c-0.8,2.5-2.4,4.8-3.6,7.2 c-0.3,0.6-0.8,1.2-1.2,1.8c2.5,3.2,5.8,4,9.3,4.1c6.9,0.2,13.7-0.1,18.6-6.4c3.5,1.7,6.9,2.6,10.6,1c3.6-1.6,5.7-4.6,7.8-8.2 c-1.8,0-3.1-0.2-4.4,0c-3.2,0.6-4.9-1.2-6.1-3.6c-0.5-1-1-2.2-1.2-3.3c-0.5-2.9-1.1-5.8-1.1-8.6c0-9.9,0.2-19.9,0.4-29.8 c0-0.5,0.2-1,0.4-1.6c1.9-0.1,3.7-0.2,5.7-0.3c0.3-2,0.5-3.9,0.7-5.9c4,0.1,7.7,0.6,11.3,1.9c7.8,3,12.8,8.7,14.5,16.9 c0.7,3.6,1.1,7.3,1.3,10.9c0.3,5.9,0.2,11.9-1.4,17.7C413.7,512,412.3,515.4,408,517z M563.6,517.3c3.8,0.7,7.3,0.2,10.5-1.6 c1.5-0.8,2.8-1.1,4.5,0.1c1.2,0.8,2.8,1.3,4.2,1.4c2.5,0.2,4.9,0.2,7.4,0.1c10.1-0.4,20.1,0.7,29.9,2.9c13.2,2.9,26.4,5.7,38.5,12.7 c2.7-2.3,4.5-5.1,5.1-8.6c0.8-4.3-0.9-7.8-4.3-10.6c4.3-4.7,6.6-10.1,7-16.2c0.3-4.4-0.1-8.7-2-12.7c-2.2-4.8-6.2-6.9-10.9-5.8 c0,0.2-0.1,0.4-0.1,0.6c0.1,12.4-9.3,21.9-21.7,21.6c-3.2-0.1-6.5-0.7-9.6-1.5c-7.7-1.8-15.2-4.2-23.3-3.7c-0.2,0-0.4-0.2-0.8-0.4 c0.5-1.5,0.9-3,1.5-4.5c3-6.7,6-13.4,9-20.1c2.8-6.2,6.6-11.6,12.1-15.7c0.5-0.4,0.9-0.9,1.2-1.4c-1.7-5.6-2-5.7-0.4-10.1 c4-10.6,8.1-21.1,12.4-31.7c1.7-4.1,4.6-7,9.2-7.9c0.7-0.1,1.4-0.5,2.1-0.7c-3.1-9.4,2-17,5-25.2c-6.8,0.6-13.4,0.9-18.6,5.5 c-4-2.1-8.8-3.2-12.7-2.8c-7.1,0.6-14.1,2.2-20.8,4.6c-5.5,2-11,3.8-16.6,5.3c-2.2,0.6-4.7,0.6-7.1,0.3c-4-0.4-6.3-3-6.9-7.1 c-6,3.7-8.2,9.1-8.5,15.6c0.6,0.3,1.1,0.7,1.5,0.9c-1,4.2-2.2,8.1-2.8,12.1c-0.6,4-0.4,8.1-0.6,12.2c-0.6,0.3-1.1,0.6-1.6,0.8 c0.5,2.1,0.7,4.1,1.4,5.9c1.2,3.5,4.1,5.3,7.6,4.5c1.7-0.4,3.4-1.3,5.2-2c-1.2-5.1-1-9.9,1.4-14.3c2.7-5,5.7-9.8,11.5-11.7 c2.3-0.8,4.8-1.4,7.2-1.7c3.9-0.6,7.9-1,11.9-1.3c3.7-0.2,7.4,0,11.6,0c-2.4,6.7-4.6,12.9-6.8,19.2c-2.4-0.3-3.3,0.8-3.9,2.7 c-3,8.4-8,15.5-14.8,21.3c-1.7,1.4-3.4,2.9-5.2,4.5c1.9,2.6,1.6,5.4,0.9,8.2c-0.8,3.1-1.7,6.2-2.6,9.4c-0.1,0.4,0,0.8,0,1.3 c0.6,0.1,1,0.1,1.4,0.2c0.5,0.1,0.9,0.3,1.5,0.5c-3.6,10.7-10.1,19-18.5,25.9C566.7,504.8,565.4,511,563.6,517.3z M479,454.7 c-1.6-0.6-2.7-0.9-3.8-1.5c-5.3-2.8-11-3.7-17-3.2c-6.2,0.5-10.8,3.6-11.9,10.3c-1,6.2,2,11.6,8.2,13.8c3.9,1.4,8,1.4,12,1.1 c-0.4-2.1-1.1-4-1.7-5.8c3.6-2,6.9-1.7,10.3,0.2c0,0.5,0,0.9-0.1,1.4c-1.1,7.6-3.6,14.9-6.3,22.1c-2,5.3-4.4,10.4-8,14.7 c-1.2,1.5-2.5,2.6-4.6,2.5c-0.8-0.1-1.9,0.4-2.6,1c-1.5,1.2-2.9,2.5-5,4.4c1.2,0.8,1.9,1.2,2.6,1.8c7.2,5.4,15,6.2,23.3,2.7 c2.6-1.1,5-2.2,8.1-2.5c6.9-0.6,10.5-5.6,13.3-11.6c-3.3-0.7-6.3-1.4-9.5-2.1c2.2-11.2,5.3-21.8,8.6-32.2c5.2,0,9.9,0,14.8,0 c3.3,10.5,5.8,21.2,7.3,32.3c-3.2,0.7-6.1,1.3-8.9,1.9c-0.5,5.2,1.7,9.1,6.3,11.2c3.1,1.5,6.4,1.9,9.8,1.3c2.3-0.4,4.3-0.3,6.5,1 c3.3,2,6.9,3,10.8,3.3c6.8,0.6,12.7-1.5,17.8-6.4c-1.2-1.5-2.2-2.9-3.3-4.3c-0.9-1.2-1.8-2.1-3.5-1.9c-1.3,0.2-2.2-0.7-3-1.6 c-5-5.7-7.8-12.4-9.1-19.7c-1.1-5.9-1.4-11.8-1.6-17.7c-0.1-3.9,0.3-7.5,3.1-10.5c1.6-1.7,2.3-3.1-0.6-5.4 c-4.6-3.6-7.3-8.4-9.2-13.8c-3.3-9.7-5.2-19.6-6-29.7c-0.3-3.2-0.3-6.5,1.2-9.5c1.5-3.2,2.8-6.5,4.1-9.6c-2.6-2.7-5.6-3.1-8.6-3.4 c-7.4-0.6-14.2,1.6-20.5,5.8c-0.8-0.9-1.4-1.7-2.2-2.3c-4.3-3.2-9-4-14.1-2.4c-2.4,0.8-2.7,1.7-1.8,4.2c1.1,2.8,2.4,5.5,3.6,8.3 c0.5,1.1,0.8,2.2,1.2,3.3c1,3.7,0.1,7.3-0.5,10.9c-0.9,5.1-2.3,10.1-3.6,15.1C483.1,439.6,481,446.9,479,454.7z M894.3,530.1 c-0.6-0.2-0.9-0.2-1-0.3c-0.7-0.5-1.4-1-2.1-1.5c-8.3-6.3-15.9-13.4-23.1-20.8c-1.1-1.2-2.4-2.2-3.7-3.1c-2.9-2-6-3.9-8.9-5.9 c-1-0.7-2.1-1.6-2.8-2.7c-4.4-6.8-8.7-13.7-13-20.6c-0.9-1.4-1.7-2.9-2.8-4.8c0,0.7,0,0.8,0,0.9c1.6,3.6,3.1,7.1,4.7,10.7 c8,17.3,17.3,33.9,28.8,49.1c9.6,12.6,20.3,24.1,33.6,33c5.6,3.7,11.4,7.1,18.1,8.3c5.2,1,10.3,0.7,15.4-0.3 c16.7-3.2,26.3-17.1,25.1-32.5c-1.1-13.3-8.5-22.6-20.9-27.3c-12.8-4.9-24.7-2.5-34.8,7.1c-2.5,2.4-4.6,5.4-6.9,8.2 c-1-0.5-2.1-1-3.2-1.6C895.9,527.5,895.2,528.7,894.3,530.1z M111.5,527.9c-0.3-0.4-0.6-0.6-0.7-0.9c-8.4-14.6-25.4-20.6-40.8-14.8 c-13,4.9-22.4,18.8-20.8,32.3c0.9,8,3.9,15.1,10.1,20.4c8.8,7.5,19.1,9.2,30.1,7.6c7.3-1.1,13.4-4.9,19.3-8.9 c14.6-10.1,26.2-23.2,36.4-37.5c10.4-14.6,18.9-30.3,26.3-46.5c1.3-2.8,2.5-5.7,3.7-8.6c-3.8,5.8-7.4,11.8-11,17.7 c-3.3,5.5-7.1,10.6-13,13.6c-4.7,2.4-8.4,6.1-12,9.8c-3.2,3.2-6.5,6.3-10,9.3c-3.6,3.1-7.3,6-11.2,9.1c-1.1-1.6-2-2.9-2.9-4.4 C113.8,526.7,112.8,527.3,111.5,527.9z M454.9,800.7c0.2-0.6,0.2-0.9,0.3-1.2c9.1-19.7,17.9-39.6,25.7-59.9 c4.9-12.7,9.6-25.5,12.2-38.9c0.7-3.6,0.9-7.3,0.9-10.9c0-2.6-1.5-4.6-4.3-5.5c-2.7-0.8-4.7,0.1-6.3,2c-1.2,1.4-2.1,3-2.8,4.7 c-0.9,2.5-1.6,5.2-2.1,7.8c-3,15.4-7.1,30.5-12,45.4c-6.3,18.9-13.8,37.3-22,55.4c-0.9,2.1-2,3.2-4.3,3.8c-4.7,1.2-9.2,3.1-12.9,6.6 c-2.7,2.6-4.9,5.4-4.8,9.5c0,2.3,1.1,3.7,3.1,4.4c1,0.4,2.1,0.5,3.2,0.6c3.7,0.3,7.1-0.9,10.2-2.8c3.7-2.2,7.1-4.9,9.9-8.3 c1.4-1.7,2.9-2.7,5.1-3c3.1-0.4,6.2-1.1,9.3-1.5c12.3-1.8,24.5-1.7,36.7,0.8c5,1,9.9,2.3,14.8,3.5c1,0.2,2.2,0.7,3-0.4 c0.9-1.3-0.1-2.2-0.6-3.2c-0.2-0.5-0.7-0.8-1.1-1.2c-3-3.1-6.8-4.9-10.8-6.3c-10.9-3.8-22.2-4.5-33.6-3.3 C466.1,799.3,460.6,800,454.9,800.7z M518.9,787.5c2.3,0,4.4-0.1,6.4,0c1.8,0.1,3-0.6,4.2-1.9c5.3-5.8,10.8-11.5,16-17.4 c4.8-5.3,9.3-10.8,12.4-17.3c1.4-3,2.3-6.1,1.9-9.4c-0.3-3.1-2.4-5.1-5.5-5.3c-5-0.3-8.6,2.9-8.2,8.2c0.4,4.7-0.9,8.8-3.2,12.6 c-2.9,4.8-6.2,9.3-9.4,13.9c-0.4,0.5-0.9,0.9-1.7,1.7c0-1.1,0-1.8,0-2.4c0.4-5.4,0.9-10.7,1.3-16.1c0.3-3.8,0.7-7.5,0.7-11.3 c0.1-3.1-1.3-4.5-4.2-5.3c-3.5-0.9-6.5,0.1-9.7,1.9C519.6,755.4,519.3,771.2,518.9,787.5z M128.7,710.5c-0.1,0.2-0.2,0.4-0.2,0.6 c0.2,0.7,0.5,1.4,0.8,2.1c3.2,7.7,6.3,15.4,8.4,23.5c1.4,5.7,2.3,11.5,2.1,17.3c-0.2,4.6-1.2,9.2-2,13.7c-0.6,3.3,0.2,5.6,3,7.6 c1,0.7,2,1.2,3,1.9c4.3,3.2,8.5,1.9,11.6-1.3c5.7-6.1,12.7-10.3,20.5-13.4c9.2-3.6,18.9-5.4,28.6-7.1c15.5-2.7,30.4-7.4,44.3-15 c8.7-4.8,16.6-10.6,22.7-18.6c2.6-3.4,4.8-7,6-11.2c-2-0.9-2.8,0.1-3.4,1.5c-3.7,7.8-9.5,13.8-16.3,19c-1.5,1.1-3,2-5,1.9 c-0.9,0-1.9,0.5-2.7,1c-12.8,7.6-26.6,12.4-41.1,15.5c-7.6,1.6-15.3,2.9-22.9,4.6c-13.3,3.1-25.3,8.6-35,18.6 c-0.5,0.5-1.5,1.3-1.8,1.1c-1.7-0.8-3.4-1.8-4.9-2.9c-1.2-0.8-0.8-2.1-0.5-3.2c1.6-6.5,1.9-13,1.6-19.6c-0.3-5-1.2-10-2.9-14.9 c-1.3-0.1-2.4-0.3-3.7-0.4c-1-2.8-2-5.4-3-8c-1-2.5-2-5-3-7.5C130.2,711.2,130.2,711.2,128.7,710.5z M403.8,732.8 c1.4,3,2.6,5.9,4,8.7c3.3,6.6,8.2,11.3,15.3,13.6c6.8,2.2,13.8,2.5,20.8,2.1c0.7,0,1.4-0.4,2-0.6 C443.8,730.7,418.4,723.7,403.8,732.8z M403.7,785.6c9.8,4.7,19.1,5.1,28.1-0.2c9.1-5.3,13.4-13.6,14.2-23.9 c-0.5-0.2-0.8-0.4-1.1-0.4c-6.3-0.2-12.5-0.4-18.7,1.1c-7.5,1.8-13.4,5.8-17.2,12.7C407,778.1,405.5,781.7,403.7,785.6z M496.7,779.3c0.3-1.3,0.4-1.9,0.6-2.4c2.2-6.1,4.4-12.2,6.5-18.3c1.7-4.7,3.4-9.3,5-14c1.1-3.1,0.6-5.3-1.6-7.1 c-2.2-1.8-4.6-1.6-7-0.5c-2.1,1-3.3,2.6-4.1,4.8c-2.5,7.1-5.1,14.2-7.7,21.3c-2.1,5.8-4.2,11.6-6.1,17.4c-1.2,3.5,0.3,5.9,4,6.7 c5.7,1.3,13.3-1.8,16.8-6.8c-0.4-1.3-0.8-2.5-1.2-4C500.2,777.4,498.7,778.2,496.7,779.3z M779.2,498.3c1.2-5.3,1.2-5.3-3.8-6 c-0.6,1.3-1.3,2.5-3.3,2.3c-1.9-0.2-2.5-1.3-2.7-2.9c-1.2-0.1-2.1-0.2-3.3-0.3c-0.9,5.4-1.7,10.5-2.6,16.1c1.4,0,3.2,0.4,3.4-0.1 c1.3-2.5,3.2-1.6,5.1-1.2c0.2,0.4,0.3,0.8,0.4,1.2c0.2,0.5,0.3,0.9,0.5,1.3c3.3,0.7,4.3,0.6,4.8-0.7c0.4-1,0.6-2.1,0.5-3.1 c-0.1-0.7-1-1.2-1.5-1.8c-0.3-0.4-0.5-1-0.5-1.5C776.1,499.7,776.6,499.2,779.2,498.3z M502.5,726.5c0,4.2,3.6,6.4,7.4,4.5 c3.3-1.6,5.4-5.5,4.9-9.1c-0.4-2.9-3-4.7-5.8-4C505.1,718.9,502.5,722.3,502.5,726.5z"></path> <path style="fill:#FFFFFF;" d="M275.2,307.9c-8.3-3.1-16.5-6.2-24.8-9.3c0.3-2.8,1.7-4.9,2.6-7.2c0.9-2.2,1.9-4.3,3-6.7 c3.2,0,6.3-0.1,9.4,0c2,0.1,3-0.8,4-2.5c4.9-8.5,10-16.9,15-25.4c0.9-1.6,2.1-2.4,4-2.1c1.8,0.3,3-0.5,4-2 c8.6-11.8,18.3-22.7,28.8-32.9c9.7-9.3,20.1-17.7,31.2-25.3c15.3-10.5,31.5-19.3,48.7-26.3c19.8-8.1,40.3-13.8,61.4-17.2 c18.1-2.9,36.3-4,54.6-3.5c20.9,0.6,41.5,3.7,61.8,9.1c18.7,4.9,36.7,11.6,53.8,20.4c19.8,10.1,38.1,22.5,54.8,37.3 c13,11.6,24.7,24.5,35,38.6c0.6,0.9,1.3,1.7,2.1,2.7c1.5,0,3,0,4.9,0c4.2,7.1,8.5,14.2,12.7,21.3c1.1,1.9,2.1,3.8,3,5.7 c0.6,1.4,1.5,1.9,3,1.9c3.1-0.1,6.3,0,9.4,0c1.6,0,2.6,0.4,3.2,2c1.3,3.2,2.8,6.3,4.3,9.9c-7.5,2.9-14.8,5.8-22.3,8.7 c-2.3-3.3-4.4-6.6-6.8-9.7c-4.1-5.2-6.8-11.3-10.1-17c-8.3-14.4-17.9-27.8-29.3-39.9c-2.1-2.2-4.2-4.3-6.2-6.6 c-1.3-1.5-2.7-3.1-3.7-4.9c-6.7-11.3-16.1-19-28.5-23.2c-2.5-0.8-4.9-2.3-7.1-3.7c-26.1-16.8-54.3-28.3-84.6-35 c-13.1-2.9-26.4-4.8-39.7-5.7c-7.8-0.5-15.6-0.8-23.3-0.6c-11.2,0.3-22.4,1.1-33.6,2.6c-1.7,0.2-3.4,0.1-5.1-0.2 c-10.2-1.9-19.6-0.2-28.2,5.6c-2.7,1.8-5.6,3.2-8.7,4.1c-27.6,8.4-52.9,21.2-76.2,38.2c-9.4,6.9-18.5,14.2-26.9,22.3 c-17.5,16.8-31.6,36-41.9,58C280.3,295.4,277.9,301.5,275.2,307.9z"></path> <path style="fill:#FFFFFF;" d="M613.5,334c-7.6,2.9-88.3,8.3-107.1,7.1c-3.1-4.5-4.7-15.7-3.5-24.1c4.9-1.6,9.9-2.9,14.6-4.9 c11.4-4.9,19.2-13.4,22.8-25.4c0.2-0.6,0.5-1.2,0.7-1.9c1.2,0,2.4,0,3.6,0c0.9-5.9-2.3-11.2-2-17.2c19.1-5.2,36.5-1.8,51.8,10.5 C610.5,291,618.5,314.8,613.5,334z M563,318.1c1.9,0,3.2,0,4.5,0c12.7,0,22.6-14,16.2-27c-0.4-0.9-1.4-1.8-2.3-2.1 c-5.2-1.7-9.9-4.2-14.4-7.3c-0.7-0.5-1.6-0.9-2.4-0.8c-5.3,0.8-9.8,3-12.9,7.8C560.8,296.4,564.2,306.1,563,318.1z"></path> <path style="fill:#FFFFFF;" d="M334.6,259.5c-3,10.2-5.8,19.9-8.6,29.6c0.2,0.1,0.3,0.2,0.5,0.3c2.1-2.8,4.3-5.6,6.4-8.3 c6.6,2,9.5,5,15.4,15.9c5.5-1.3,9.2-4.7,10.5-10.2c1.3-5.2,0.2-10-3.8-14c-1.4-1.3-2.7-1.8-4.6-1.6c-2.4,0.3-4.8,0-7.3,0 c-0.1-0.2-0.1-0.4-0.2-0.6c0.8-0.8,1.6-1.6,2.5-2.3c3.2-2.6,6.5-5.1,9.7-7.6c1.4-1.1,2.7-1.3,4.5-0.7c16.8,5.7,29.7,22.5,29.6,40.5 c-0.1,10.7-3.4,20.1-10.2,28.3c-1.4,1.7-2.8,2.5-5.2,2.1c-17.3-2.9-34.5-6-51.5-10c-4.9-1.2-9.8-2.5-14.8-3.7 c-1.4-0.3-2.1-1-2.6-2.5c-4.4-13.8-2.5-26.6,5.6-38.5c5.5-8.1,13.1-13.3,22.3-16.5C333.1,259.9,333.6,259.8,334.6,259.5z"></path> <path style="fill:#FFFFFF;" d="M652.3,215.1c-2.1,5.2-5.6,7.8-9.9,9.8c-4.2,1.9-8.6,1.9-12.9,1.5c-4.5,6.2-2.5,18.9,7.9,23.7 c0.8-2.9,1.3-5.8,2.4-8.6c2.6-6.7,9.3-12.6,18.7-11.3c6.5,0.9,10.8,5,13.6,10.8c0.7,1.4,1.2,2.9,2,4.9c0.4-1.1,0.7-1.7,0.9-2.3 c0.4-1.2,1-2.2,2.5-1.9c1.3,0.3,2.6,0.3,3.1,2.2c1.9,7.9,1.3,15.6-1.6,23.2c-6.2,16.1-20.7,24.9-36.5,24.7 c-19.7-0.3-35.3-14.5-37.8-33.1c-1.9-13.7,2.4-25.5,12.9-34.9c7-6.2,15.3-9.2,24.5-9.5C645.5,214.1,648.7,214.8,652.3,215.1z"></path> <path style="fill:#FFFFFF;" d="M497.1,236.2c18.6,0,37.9,15.1,37.9,37.3c0,21.1-16.4,38.3-37.9,38.3c-20.6,0-37.9-16.4-37.9-38 C459.3,252.5,476.8,236.2,497.1,236.2z M514.1,270.5c2.6-1.3,4.2-3.6,5.7-6c0.9-1.3,1.1-2.7,0.7-4.3c-0.8-3-1.2-6.1-0.4-9.3 c0.2-0.7,0.3-1.6,0-2.2c-1.9-3.7-4.6-6.6-8.9-8.3c0.6,8-3.5,12.9-9.9,16.2c-6.2,3.2-12.7,3.1-19.3,0.4c0.4,6.2,3.8,11.2,9.4,14.1 C502.1,266.5,505.9,267.6,514.1,270.5z"></path> <path style="fill:#FFFFFF;" d="M433.5,183c0.6,6.6,2,12.2,7.6,15.8c-0.2-0.5-0.4-1-0.7-1.4c-4.9-6.1-2.2-13.8,2.3-17.7 c5.9-5.2,14.9-6.2,21.3-1.5c0.2,0.2,0.6,0.2,1.2,0.5c0.2-2.2,0.4-4.3,0.6-6.3c2-2,3.9-1.4,5.9-0.2c8.7,4.9,13.8,12.1,15,22.1 c2,16.1-10.2,30.3-25.4,31.8c-19.2,1.9-35.1-14.6-31.5-33.5C430.2,189.3,431.1,186.2,433.5,183z"></path> <path style="fill:#FFFFFF;" d="M495.6,190.1c-1.1-4.4-4.7-7.5-4.8-12.3c8-0.3,15.6-0.8,23.4-0.4c4.7,0.2,9.4,0.3,14.2,0.7 c6.4,0.6,12.9,0.9,19.2,2.1c8.5,1.5,17,3.6,25.4,5.5c2.1,0.5,4.1,1.4,6.2,2c3.5,1,7,1.8,10.5,2.8c3.3,1,6.4,2.4,9.1,5 c2.4,2.3,5.7,3.8,8.6,5.6c1.3,0.8,2.5,1.7,3.7,2.8C573.6,191.5,535.2,187,495.6,190.1z"></path> <path style="fill:#FFFFFF;" d="M314.3,322.4c124.2,28.6,248.5,29.1,373.1,2.3c0.7,1.5,0.3,2.2-1.4,2.5c-7.8,1.6-15.6,3.5-23.4,5.1 c-17.6,3.5-35.3,6.3-53.1,8.3c-14.3,1.6-28.6,3-42.9,4.1c-12.7,1-25.4,1.6-38.2,1.9c-12.5,0.4-25.1,0.5-37.6,0.4 c-9.9-0.1-19.9-0.7-29.8-1.2c-9.3-0.5-18.5-1.1-27.8-2c-14.4-1.4-28.8-2.9-43.1-4.8c-13.5-1.8-26.9-4.1-40.3-6.6 c-11.1-2.1-22.2-4.8-33.2-7.3C315.2,324.8,313.4,324.7,314.3,322.4z"></path> <path style="fill:#FFFFFF;" d="M418.7,192.8c1.8,2.8,0.9,5.7,0.5,8.8c-11.6,1.8-22.9,4.7-33.7,9.1c-10.8,4.4-20.9,10-31,17.3 C361.5,218.6,402,196.6,418.7,192.8z"></path> <path style="fill:#FFFFFF;" d="M678,238.5c-2.3-2.4-4.8-4.7-6.8-7.3c-0.9-1.2-0.8-3.1-0.8-4.8c4.1,3.1,6.4,7.2,8.3,11.6 C678.5,238.1,678.2,238.3,678,238.5z"></path> <path style="fill:#FFFFFF;" d="M336,245.1c1.7-1.9,3-3.3,4.2-4.6c0.1,0.1,0.3,0.2,0.4,0.3c-0.4,1.4-0.9,2.8-1.5,4.6 C338.4,245.2,337.5,245.2,336,245.1z"></path> <path style="fill:#FFFFFF;" d="M190.5,311.1c-0.6-1.1-1.3-2.1-1.9-3.2c0.2-0.1,0.4-0.2,0.6-0.3c0.5,1.1,1.1,2.2,1.6,3.2 C190.7,310.9,190.6,311,190.5,311.1z"></path> <path style="fill:#FFFFFF;" d="M767.9,429.9c2.1-0.9,4.3-1.8,6.4-2.7c2.6-1.1,5.3-2.3,7.9-3.5c1.2,4.9-4.4,10.6-11.6,11.4 c0.2-1.1,0.5-2.1,0.7-3.1c-0.8-0.5-1.9-1-2.9-1.6C768.2,430.2,768.1,430.1,767.9,429.9z"></path> <path style="fill:#FFFFFF;" d="M576,759.8c2-5.3,4.4-10.4,9.3-13.8c0.2-0.1,0.4-0.2,0.6-0.3c1.4-0.6,2.9-1.3,4.3-0.3 c1.5,1.1,0.9,2.7,0.6,4.2c-1.1,4.9-5,7.1-9,9.1c-1.7,0.8-3.6,1.2-5.3,1.8C576.3,760.2,576.2,760,576,759.8z"></path> <path style="fill:#FFFFFF;" d="M809.1,702.1c-1.3-1.7-2.1-3.2-3.4-4.3c-6.7-6-14.5-9.6-23.6-10.4c-4.2-0.4-8.2-0.1-12.1,1.3 c-6.8,2.5-10.7,7.5-12,14.5c-1.8,9.3,1.8,16.8,8.1,23.5c7.4,7.9,16.1,14.1,25.6,19.2c11.9,6.3,24.2,11.5,37.3,14.8 c7.5,1.8,15.1,2.6,22.8,1.9c9-0.8,17-4,24.1-9.3c3.8-2.8,7.4-6.1,10.4-9.7c7.1-8.3,8.5-17.9,5.8-28.3c-0.3-1.4-0.5-2.7-0.8-4.1 c-0.1-0.6-0.2-1.3-0.6-1.8c-3.9-5.7-7.2-11.7-11.9-16.9c-4.9-5.4-10.4-10-16.1-14.5c-1.3-1.1-2.7-2.2-3.8-3.6 c0.5,0.1,1.1,0.1,1.5,0.4c9.7,7.3,19,15.1,26,25.2c1,1.4,2,2.8,2.8,4.4c0.8,1.5,1.8,2.4,3.6,2.1c1.2-0.1,2,0.3,2.5,1.5 c3.3,7.6,4.8,15.4,2.8,23.7c-0.1,0.3-0.2,0.6-0.5,1.1c-0.8,0.2-1.7,0.4-2.5,0.6c-5.4,18-26.7,31.4-44.1,32.3 c-11.1,0.5-21.7-1.6-32.1-5.2c-12.5-4.3-24.6-9.5-35.7-16.9c-4-2.6-7.7-5.6-11.4-8.5c-1.5-1.2-2.9-2.2-4.9-2 c-0.8,0.1-1.8-0.2-2.4-0.7c-7.2-6.4-12.2-14-12.4-24c0-0.5,0.1-1,0.2-1.6c1.1-0.2,2.2-0.4,3.3-0.5c0.5-1.9,1-3.8,1.5-5.6 c2.7-9.3,11-13.7,18.6-14.3c11.5-0.8,21.5,2.8,30.2,10.2c1.8,1.5,3.2,3.5,4.5,5.5c1.3,1.9,0.9,2.6-1.4,3.5c-0.4,0.1-0.8,0.3-1.9,0.8 c1.2,0.1,1.7,0.2,2.1,0.2c0.4,0.1,0.7,0.2,1.4,0.5c-13.2,3.2-19.4,11.6-13.6,25.8c-0.9,0.2-1.8,0.4-2.7,0.7c0,0.3-0.1,0.6,0,0.9 c1.8,4,4.8,6.9,8.2,9.4c6,4.3,12.7,7.2,20.1,7.5c12.4,0.5,22.3-7.6,24.2-17.7c-1-0.2-1.9-0.5-3.3-0.8c2.1-11.1-4.9-18.3-11.7-25.9 c0.7-0.2,1.1-0.3,1.5-0.4c0.4-0.1,0.8-0.1,1.4-0.2c-0.1-0.4-0.2-0.8-0.4-0.9c-4.6-4.8-10-8.6-15.4-12.4 c-7.3-5.1-14.5-10.2-21.7-15.3c-1.2-0.9-2.3-1.9-3.8-3.1c1.6-0.5,2.5-0.3,3.6,0.5c9.4,6.7,19,13.1,28.4,19.9 c7.6,5.6,14.6,11.9,19.7,19.9c5.7,9,5.6,21-2.2,29.3c-4.4,4.7-9.6,7.5-16.1,8c-13.3,1.1-27.6-5.9-34.1-17.2c-4-6.9-5-14-1.2-21.3 c2.8-5.4,7.5-8.5,13.2-10.3C806.1,703,807.4,702.6,809.1,702.1z"></path> <path style="fill:#FFFFFF;" d="M812.2,694.7c6.2,3.7,12,7.7,17.2,12.5c4.1,3.7,7.9,7.6,10.5,12.6c4.9,9.4,0.9,20.5-8.9,24.5 c-4.7,1.9-9.5,1.7-14.3,0.4c-5-1.4-9.5-3.8-13.2-7.3c-4.2-4-6.4-8.9-6-14.8c0.4-5.6,4.9-10.4,11.1-12.1c1.1-0.3,2.3-0.5,3.5-0.9 c3.9-1.3,5.8-5.3,4.1-9c-0.6-1.3-1.5-2.4-2.3-3.5C813.4,696.3,812.8,695.5,812.2,694.7z"></path> <path style="fill:#FFFFFF;" d="M738.7,674.2c1.6-0.1,2.4,0.9,3.2,1.9c6.6,8.1,7.6,16.9,3.3,26.3c-0.5,1.1-1.1,2.1-1.7,3.3 c0.5,0.3,1,0.7,1.6,1.1c-0.2,0.3-0.3,0.7-0.5,1.1c-5.4,7.2-12.8,11.5-21.2,14.1c-11.9,3.7-23.9,3-35.9,0.6c-9-1.9-17.5-5.3-26.1-8.6 c-6.2-2.4-12.5-4.7-19.3-7.3c1.7-0.2,2.8-0.4,4-0.6c0-0.1,0.1-0.3,0.1-0.4c-1.1-0.3-2.1-0.7-3.2-1c-9.1-2.6-18.3-2.7-27.6-1 c-4.1,0.7-3.9,1.5-6.2-3.5c-0.6-1.4-1.1-2.8-1.8-4.4c1-0.6,1.9-1.2,2.8-1.6c4.3-2.1,7.6-5.3,9.6-9.7c1.3-2.7,2.5-5.5,3.8-8.2 c0.3-0.7,0.7-1.4,1.4-1.9c-0.8,4.7-2.9,8.8-5.1,12.9c-2.4,4.2-6.1,7-10.8,9c0.8,1.8,1.5,3.5,2.2,5.2c3.5-0.4,7-0.7,10.4-1.1 c9-1.1,17.7,0.5,26.1,3.4c8.8,3.1,17.4,6.5,26.1,9.7c7.3,2.7,14.8,4.7,22.5,5.7c10.2,1.4,20,0.6,29.5-3.3c7-2.9,12.6-7.4,16.5-14 c4.7-8,4-20.5-3.3-26.9C738.8,674.7,738.8,674.5,738.7,674.2z"></path> <path style="fill:#FFFFFF;" d="M636.5,610.4c-0.2-4.8-0.5-9.7-0.7-14.5c-0.5-9.5-3.9-17.9-10.8-24.6c-1-1-1.8-2.1-2.6-3.2 c0.2-0.5,0.2-0.8,0.4-1.1c3.2-4.7,2.1-4.7,7.8-2.9c10.7,3.4,21.5,6.7,32.5,8.7c11,2,22,3.3,33.2,1.8c2.5-0.3,3.6,0.3,4.6,2.6 c0.6,1.4,1.1,3,1.6,4.4c-2.1,1.4-4,2.5-5.7,3.8c-5.5,4.1-9.1,9.6-11,16.1c-2.6,8.9-4.9,17.9-6.8,27c-2.2,10-3.9,20.1-5.8,30.2 c-1.3,6.8-2.5,13.6-2.2,20.6c0.3,6.4,1.1,12.7,5.1,18.1c2.6,3.6,5.8,6.4,10,7.9c1.3,0.5,2.7,0.7,4.1,0.8c1.8,0.1,3.7-0.1,5.5,0.1 c6.3,0.6,10.7-2.7,14.3-7.3c3.2-4,4.4-8.7,3.8-13.7c-0.4-3-1.8-5.5-4.5-7.1c-1.6-0.9-2.7-1.9-2.2-4.3c1.6,1.4,3,2.5,4.2,3.7 c3.6,3.5,4.6,7.9,3.8,12.7c-1.2,7.2-4.9,12.7-11.4,15.9c-7.9,3.9-15.6,3.1-22.7-1.9c-8-5.7-11.8-13.8-12.2-23.5 c-0.1-1.5-0.2-3.1,0-4.5c0.2-1.5,1-2.9,1.3-4.4c0.5-3.1,0.7-6.2,1.3-9.3c2.1-11.2,4.2-22.5,6.3-33.7c0.9-4.9,2.1-9.7,3.2-14.5 c0.3-1.4,1.3-2.8-0.2-4.1c-0.2-0.1-0.1-0.6,0-0.9c1.8-7.2,3.7-14.4,8.5-20.5c2.8-3.6,6.4-6.4,10.7-8.9c-0.5-1.3-1-2.6-1.6-4 c-3,0.1-5.9,0.4-8.7,0.4c-5.8-0.1-11.7-0.1-17.4-0.8c-15-1.7-29.4-6.1-43.7-10.8c-0.6-0.2-1.2-0.4-2-0.6c-0.5,0.6-1,1.1-1.4,1.7 c-0.4,0.6-0.8,1.3-1.2,2c1.1,1.3,2.1,2.5,3.2,3.7c6.7,7.2,9.6,16,10,25.7c0.2,3.8,0.3,7.5,0.4,11.3c0,0.7-0.2,1.3-0.4,2 C637,610.5,636.8,610.5,636.5,610.4z"></path> <path style="fill:#FFFFFF;" d="M870.2,664.6c3.5,2,7.1,3.6,11,4.4c7.8,1.6,14.5-0.6,20.3-5.8c4.4-3.9,7.3-8.7,9.2-14.3 c0.3-0.8,0.6-1.6,1-2.4c0,0,0.2,0,0.3,0c0.2,0.2,0.5,0.3,0.4,0.4c-2.5,10.3-7.8,18.6-18,22.6C885.4,673,877.3,670.5,870.2,664.6z"></path> <path style="fill:#FFFFFF;" d="M843,620.6c-3.2-0.9-6.1-2.2-9.2-2.4c-2.9-0.3-5.8,0.5-8.8,0.9C826.9,614.6,838.6,616.2,843,620.6z"></path> <path style="fill:#FFFFFF;" d="M817.6,632.8c-0.9-6.9,1.1-11.1,5.7-11.9C819.7,624.3,817.2,627.9,817.6,632.8z"></path> <path style="fill:#FFFFFF;" d="M831.8,610.8c-2.3,0.1-4.6-0.1-6.7-0.9c0-0.3,0.1-0.6,0.1-0.9c2.2,0.4,4.4,0.7,6.6,1.1 C831.8,610.3,831.8,610.6,831.8,610.8z"></path> <path style="fill:#FFFFFF;" d="M790.3,670.4c0.7,0.6,1.4,1.2,2,1.8c-0.1,0.2-0.3,0.3-0.4,0.5c-0.7-0.6-1.4-1.3-2.1-1.9 C790,670.6,790.1,670.5,790.3,670.4z"></path> <path style="fill:#FFFFFF;" d="M845.7,623.2c-0.6-0.5-1.2-0.9-1.8-1.4c0.1-0.1,0.2-0.3,0.3-0.4c0.6,0.5,1.2,0.9,1.8,1.4 C846,622.9,845.9,623.1,845.7,623.2z"></path> <path style="fill:#FFFFFF;" d="M348.6,633c0.4-0.4,0.7-0.6,1.1-1c-2-1.5-3.6-3.3-3.5-5.9c0-1.8,0.3-3.6,0.6-5.4 c1-7.3,1.8-14.5,1.7-21.9c0-0.3,0.1-0.6,0.3-1.3c0.6,0.8,1.1,1.3,1.4,1.8c6,10.2,11.8,20.6,16.3,31.6c0.2,0.4,0.2,0.9,0.5,1.1 c0.8,0.6,1.9,0.7,2.2,2c0.8,3.2,2.1,6.4,2.6,9.6c0.5,3.2-2.7,5.5-5.7,4.3c-2-0.8-3.8-2-5.4-3.4C356.6,640.9,352.7,636.9,348.6,633z"></path> <path style="fill:#FFFFFF;" d="M342.7,667c-0.4,0.3-1.3,0.7-1.2,1c0.4,9.3,1.8,18.3,8.8,25.3c3,3,6.4,5.1,10.2,6.7 c0.8,0.3,1.6,0.6,2.4,1c2.3,1.2,2.6,2,2.1,4.8c0.5,0.3,1.1,0.7,1.7,1.1c-1.8,3-3.4,3.9-6.7,3.1c-5.4-1.3-10.9-1.7-16.4-1.4 c-6.5,0.3-12.9,1.1-19,3.6c-2.4,1-4.5,2.4-6.2,4.5c-2.5,3.1-5,3.4-8.5,1.3c-0.3-0.2-0.6-0.3-0.9-0.5c-4.4-2.3-4.7-5.8-2.2-9.4 c0.8-1.2,1.6-2,3.1-1.8c1.7,0.2,2.5-0.6,3.2-2.1c4.7-9.2,8.6-18.6,10.4-28.8c0.1-0.4,0.3-0.8,0.5-1.4c1.3,1,0.8,2.1,0.6,3 c-1.5,5.3-2.7,10.7-4.7,15.8c-2.6,6.6-5.8,13-8.9,19.6c0.6,0.4,1.4,1.1,2.5,1.9c2.6-3.4,6-5.6,9.9-7c6.3-2.3,12.9-3.5,19.7-3.6 c6.3-0.1,12.5-0.3,18.7,1.6c0.3-0.6,0.6-1.1,0.7-1.6c0.1-0.4,0.1-0.8,0.2-1.3c-1.8-0.9-3.6-1.7-5.3-2.6c-5.1-2.6-9.3-6.3-12.4-11.1 c-1-1.5-1.5-3.3-2.2-5c-0.9-2.2-1.7-4.4-2.5-6.6c-0.4-1.2-0.9-2.3,0.4-3.5c0.5-0.5,0.2-1.8,0.1-2.8c-0.1-1.7-0.3-3.4-0.6-5.9 C341.3,666,342,666.6,342.7,667C342.6,667.1,342.7,667,342.7,667z"></path> <path style="fill:#FFFFFF;" d="M538.2,560.4c-0.6-1-1.3-2-2-3.2c-2,0.5-4.1,0.9-6.2,1.4c-11.4,2.7-22.9,3.1-34.5,2.2 c-9.9-0.8-19.7-2.2-29.6-3.5c-1.7-0.2-2.7,0.1-3.3,1.7c-0.2,0.7-0.5,1.4-0.8,2.2c1.5,1.2,2.9,2.4,4.3,3.6 c5.7,4.6,9.7,10.6,11.7,17.6c1.9,6.8,3.2,13.9,4.5,20.9c0.4,2.1,0.2,4.3,0.2,6.5c0,0.3-0.3,0.7-0.6,1.4c-1.2-1.5-0.7-3-0.8-4.2 c-0.9-9.8-2.7-19.5-6.3-28.7c-1.9-4.9-5.4-8.5-9.3-11.9c-0.7-0.6-1.5-1.2-2.3-1.8c-4.1-3.2-3-3.8-0.7-7.8c0.7-1.2,1.9-0.8,2.9-0.6 c5.9,0.8,11.7,1.8,17.7,2.4c5.9,0.6,11.8,0.9,17.8,1.3c8,0.6,16-0.1,23.9-1.3c3.3-0.5,6.6-1.3,9.8-2.2c1.7-0.5,2.8-0.1,3.7,1.1 c1.1,1.6,2,3.3,3.1,5c-2,1.9-4,3.5-5.6,5.3c-4.9,5.4-7.4,11.9-8.2,19.1c-1.2,10.6-2.1,21.3-2.1,32c0,10-0.4,20.1-0.6,30.1 c-0.1,5,0.2,9.9,1.3,14.8c0.1,0.6,0.1,1.3,0,1.9c-1.7-4.1-2.1-8.5-2.2-12.8c-0.3-7.9-0.2-15.8-0.1-23.7c0.1-5.1,0.4-10.1,0.6-15.2 c0-1.1,0.1-2.2-0.8-3.3c-0.6-0.9-0.6-2.5-0.5-3.7c0.5-6.8,1.1-13.5,1.8-20.3c0.8-7.8,3.3-15,8.6-20.9 C534.8,563.9,536.4,562.3,538.2,560.4z"></path> <path style="fill:#FFFFFF;" d="M407.8,610.4c-1.4,0.3-2-0.4-2.3-1.6c-0.8-2.9-1.8-5.8-2.6-8.7c-1.3-4.8-2.5-9.6-3.7-14.4 c-2.1-8.4-2-13.5,2.7-21.8c-1.4-2.2-3.2-2.5-5.8-1.6c-14.8,5.3-30.1,8.7-45.8,10.3c-7.3,0.7-14.6,1.1-22,1.5c-2.9,0.1-5.8-0.3-9-0.5 c-0.4,0.8-0.9,1.7-1.4,2.6c12.8,10.3,14.3,25.9,12,34.3c-1.2-0.6-0.8-1.7-0.7-2.5c0.8-11.3-1.3-21.5-10.7-29c-2.4-1.9-2.4-3-0.6-5.5 c0.6-0.9,1.4-1.3,2.5-1.1c8.5,1.3,17,0.4,25.5-0.3c14.2-1.3,28.3-3.8,41.9-8.1c2.9-0.9,5.8-1.7,8.6-2.9c2-0.8,3.5-0.7,5,0.8 c0.6,0.6,1.3,1.1,2,1.7c1,0.9,1.4,1.8,0.5,3.1c-4.2,6.3-4.2,13.2-2.3,20.2c1.9,7.2,3.9,14.4,5.8,21.6 C407.6,609,407.6,609.7,407.8,610.4L407.8,610.4z"></path> <path style="fill:#FFFFFF;" d="M383.2,698.7c2.7-4,5.1-7.7,5.5-12.1c0.4-4.1,0.2-8.2,0.3-13.1c2.7,6.6,2,16-3.9,25 c1.3,1,2.7,2,4.1,3.1c12.3-7.5,25.4-10.6,39.5-7.7c0,0.2,0.1,0.5,0.1,0.7c-5.2,0.4-10.5,0.7-15.7,1.3c-6.8,0.8-13.2,3-19.2,6.5 c-3.8,2.3-3.9,2.2-7.3-0.5C385.5,701.1,384.5,700,383.2,698.7z"></path> <path style="fill:#FFFFFF;" d="M340,630c-0.2-1.3-0.7-2.6-0.6-3.9c0.3-4.4,0.7-8.8,1.1-13.2c0.1-1,0.4-1.8-0.6-2.6 c-0.4-0.3-0.4-1.1-0.4-1.7c0.1-4.4,0.3-8.8,0.5-13.2c0.2-3.3,2.5-6.2,5.7-7c3.2-0.9,6.8,0.4,8.5,3.3c3.3,5.8,6.5,11.7,9.8,17.6 c0.1,0.2,0.1,0.6,0.3,1.7c-0.9-0.9-1.5-1.3-1.7-1.8c-2.8-5-5.6-10-8.5-14.9c-1.9-3.3-3.8-4.1-6.9-3.3c-2.7,0.6-4.4,3.1-4.5,6.4 c-0.5,9.5-0.8,19-2.2,28.4c-0.2,1.4,0.2,2.9,0.3,4.4C340.5,630,340.2,630,340,630z"></path> <path style="fill:#FFFFFF;" d="M527.4,674.6c1.6-1.1,1.9,0,2.3,0.7c1.8,3,4,5.6,6.8,7.7c7.6,5.8,18.1,5.9,25.3,0.4 c2.4-1.9,4.3-4.2,5.7-6.9c0.4-0.8,0.9-1.6,1.3-2.3c0.3,0.1,0.5,0.2,0.8,0.3c-0.4,1-0.7,2.1-1.2,3c-4.8,9.3-15.1,13.1-24.7,10.4 C536.4,685.7,531.5,680.8,527.4,674.6z"></path> <path style="fill:#FFFFFF;" d="M347.4,668.9c2.8,0.5,5.5,1.1,8.3,1.5c4.5,0.6,8.8-0.3,12.8-2.3c3.2-1.6,5.4-4.2,7.4-7.1 c1.9-2.8,3.6-5.6,5.4-8.5c1.1,0.6,0.9,1.5,0.4,2.2c-2.6,3.9-5,7.8-7.8,11.5c-2.5,3.2-6.3,4.6-10.1,5.3c-5.1,1-10.1,0.2-15-1.4 C348.2,669.9,347.8,669.2,347.4,668.9L347.4,668.9z"></path> <path style="fill:#FFFFFF;" d="M432,694.1c2.8,0.4,5.5,0.9,8.3,1.1c2.7,0.3,5.3,0.3,8.3,0.4c0.5-1.3,1-2.7,1.6-4.2 c0.9,0.7,1.7,1.3,2.2,1.7c-0.1,0.8-0.1,1-0.2,1.2c-1.7,4.7-1.6,4.5-6.5,3.2c-3.7-1-7.6-1.6-11.4-2.3c-0.8-0.2-1.7-0.3-2.5-0.5 C431.9,694.5,431.9,694.3,432,694.1z"></path> <path style="fill:#FFFFFF;" d="M323.2,657.8c-9-2.1-16.1,0.3-19,10.5c-1-0.1-2.1-0.3-3.2-0.4c1.6-0.5,2.3-1.4,2.8-3 c2.6-7.5,9.9-10.9,17.4-8.3C321.8,656.8,322.3,657.2,323.2,657.8z"></path> <path style="fill:#FFFFFF;" d="M478,673.6c0.3,6.6-5.5,14.9-10.7,15.9c2.3-2.4,4.8-4.4,6.5-7C475.4,680.1,476.4,677.1,478,673.6z"></path> <path style="fill:#FFFFFF;" d="M407.7,610.5c1.5,1.4,1.7,3.3,1.9,5.2c0,0,0.1-0.1,0.1-0.1C409.1,613.9,408.4,612.1,407.7,610.5 C407.8,610.4,407.7,610.5,407.7,610.5z"></path> <path style="fill:#FFFFFF;" d="M347.4,668.8c-1.6-0.6-3.1-1.2-4.7-1.8c0,0-0.1,0.1-0.1,0.1C344.2,667.7,345.8,668.3,347.4,668.8 C347.4,668.9,347.4,668.8,347.4,668.8z"></path> <path style="fill:#FFFFFF;" d="M410.5,619.3c1.3-0.2,1.4,0.9,1.4,1.9C411.5,620.6,411,620,410.5,619.3L410.5,619.3z"></path> <path style="fill:#FFFFFF;" d="M410.5,619.3c-0.3-1.2-0.6-2.5-0.8-3.7c0,0-0.1,0.1-0.1,0.1C410.6,616.7,411.5,617.8,410.5,619.3 C410.5,619.3,410.5,619.3,410.5,619.3z"></path> <path style="fill:#FFFFFF;" d="M168.8,688.5c7-6.3,15-10.1,24-11.9c4.9-0.9,9.9-1.3,14.7,0.2c5.8,1.7,9.9,5.5,13.3,10.3 c4.3,5.9,6.4,12.7,7.5,19.8c0.6,4.4,1,8.8,0.7,13.2c-0.4,8.6-5.1,14.7-12.5,18.8c-9.3,5.2-17,3.1-23.9-4.1c-5.7-6-10-13-13.3-20.6 c-3.2-7.6-6.4-15.1-9.5-22.7C169.5,690.6,169.2,689.7,168.8,688.5z M171.6,690c2.3,5.5,4.6,10.8,6.8,16.1c1,0,2,0,3.3,0 c-2.2-5.7-4.3-11-6.4-16.4c0.7-0.5,1.1-0.9,1.5-1.2c5.8-4.1,12.3-6.2,19.2-7.2c7.3-1.1,13.6,0.7,18.3,6.5c3.2,3.9,5.6,8.2,6.9,13.1 c0.5,1.7,1,3.5,1.5,5.2c1.3,0,2.3,0,3.6,0c-1.3-8.7-4.1-16.6-10.5-22.6c-3.7-3.4-8.2-5.1-13.3-5.2c-6.9-0.1-13.5,1.3-19.8,4.1 C178.7,684.3,175,686.6,171.6,690z M223.1,710.6c-0.3,0-0.6-0.1-0.8-0.1c-0.1,0.3-0.3,0.6-0.3,0.8c0,0.9,0.2,1.7,0.2,2.6 c0.7,9.8-2.1,16.1-10.7,20.1c-4.4,2.1-7.9,1.7-11.2-1.9c-3-3.2-5.8-6.7-8.2-10.4c-2.1-3.1-3.6-6.6-5.3-10c-0.6-1.3-1.3-1.8-2.8-1 c3.2,8.1,7.7,15.3,13.6,22c-1.4,0.2-2.4,0.3-3.6,0.5c7,10.1,18.9,8.9,27,0.1c-1.2-0.2-2.3-0.4-3.7-0.6 C224.1,726.2,224.6,718.6,223.1,710.6z"></path> <path style="fill:#FFFFFF;" d="M171.2,669.8c-3.7-10.1-7.3-19.5-8.9-29.6c-1-6.6,2.4-14.1,9.9-15.7c3.5-0.7,7-1.6,10.5-1.5 c6.1,0.3,10,4.3,12.5,9.5c2.4,5.2,3.7,10.8,4,16.6c0.2,4.2-1.5,7.9-5,10.3c-2.3,1.6-4.7,3.1-7.2,4.2 C181.8,665.9,176.7,667.7,171.2,669.8z"></path> <path style="fill:#FFFFFF;" d="M188.1,618.2c-6-0.9-11.9-0.2-17.7,1.4c-10.6,3-15.3,12.3-13.9,22.2c1.1,7.4,3.5,14.4,6,21.5 c1.3,3.8,2.7,7.5,4.2,11.2c0.2,0.6,0.6,1.1,0.9,1.8c3.1-0.8,6-1.7,9-2.5c0.1,0.3,0.1,0.5,0.2,0.8c-3.6,1.2-7.2,2.4-11.1,3.7 c-0.3-1.7-2-2.7-0.7-4.6c0.4-0.5-0.4-2-0.8-3c-2.4-7.3-5.1-14.5-7.2-21.8c-1.1-3.8-1.8-7.8-1.9-11.8c-0.3-8.8,4.7-15.5,13.1-18.3 c5-1.7,10-2.7,15.3-1.9C185.1,617.2,186.6,617.8,188.1,618.2z"></path> <path style="fill:#FFFFFF;" d="M220.4,664.7c-1.2-2.9-1.1-3.6,1.1-5.1c3.6-2.5,7.4-4.9,11-7.4c4.3-2.9,8.3-6.2,11.8-10.1 c4.2-4.7,5-10.1,3.8-16c-0.4-2.3-1.3-4.5-1.4-6.9c0.8,2.1,1.8,4.2,2.3,6.4c2.3,8.9-0.5,16.2-7.6,21.8c-5.5,4.2-11.2,8.1-16.9,12.1 C222.8,660.6,220.9,661.7,220.4,664.7z"></path> <path style="fill:#FFFFFF;" d="M239.8,610.5c-2,0.5-2.7-0.7-3.7-1.4c-1.2-0.8-2.3-1.6-3.5-2.3c-1.1-0.6-2.3-1.2-3.5-1.7 c-1.1-0.5-2.2-1-3.1-1.8C231.3,604,235.5,606.9,239.8,610.5z"></path> <path style="fill:#FFFFFF;" d="M170,610c2.9-1.1,5.7-2.3,8.6-3.4c0.1,0.2,0.2,0.5,0.3,0.7c-2.8,1.3-5.7,2.6-8.7,3.5 C170.1,610.5,170,610.3,170,610z"></path> <path style="fill:#FFFFFF;" d="M754,421.4c2-6.3,8.4-8,13.4-3.7c-1.4,0.2-2.4,0.5-3.3,0.4c-2.5-0.4-4.8-0.3-6.8,1.7 C756.6,420.5,755.5,420.7,754,421.4z"></path> <path style="fill:#FFFFFF;" d="M389.5,440.7c-0.3-6.8-0.5-13.3-0.8-20c-1.9-0.2-3.6-0.3-5.5-0.5c0-5.5,0-10.9,0-16.4 c6.7-1,13.4-1.1,19.9,0.3c6.8,1.4,11.8,6,12.8,13.3c0.6,4.8,0.2,9.5-1.9,13.9c-2.1,4.3-5.7,7-10.3,8.3 C399.2,440.9,394.6,441.1,389.5,440.7z"></path> <path style="fill:#FFFFFF;" d="M502.5,440.5c1.1,0.1,2.2,0.1,3.2,0.4c5.9,1.8,8.3,5.1,7.2,11.1c-0.6,3.1-2.1,5.9-3.9,8.5 c-0.7,1-1.6,1.3-2.8,1.1c-2.2-0.4-4.5-1-6.7-1.1c-3.8-0.2-5.7-2.5-7.2-5.5c-2.2-4.4-1-8.1,2-11.2 C496.6,441.4,499.4,440.5,502.5,440.5z"></path> <path style="fill:#FFFFFF;" d="M440.1,809c-2.2,4-5.2,7.2-9.1,9.5c-0.5,0.3-1,0.5-1.5,0.5c-0.6,0-1.4-0.2-1.7-0.6 c-0.3-0.4-0.1-1.2,0.1-1.7c0.2-0.6,0.6-1.1,1.1-1.6C431.9,811.9,435.8,810,440.1,809z"></path> <path style="fill:#FFFFFF;" d="M417.2,773c5.2-3,10.5-6.1,15.9-9.2C431.1,768.1,423.8,772.4,417.2,773z"></path> </svg> 