<?xml version="1.0" encoding="UTF-8"?> <svg xmlns="http://www.w3.org/2000/svg" xmlns:xlink="http://www.w3.org/1999/xlink" version="1.1" id="Layer_1" x="0px" y="0px" viewBox="0 0 1000 1000" style="enable-background:new 0 0 1000 1000;" xml:space="preserve"> <g> <g> <defs> <path id="SVGID_1_" d="M490.1,551.6c0,0,0-0.5-0.7-0.8L490.1,551.6z M504.3,551.4c0,0,10.8-7.5,105.7,76.4 c95,83.9,123.3,106.8,123.3,106.8s-16.6-18.4-109-121.5c-75.7-84.4-79.4-100.6-78.2-103.7L504.3,551.4z M371.5,615 c-83.6,95.4-106.4,123.8-106.4,123.8s18.3-16.7,121-109.4c84.1-76,100.2-79.7,103.3-78.6l-41.8-42 C447.6,508.8,455.1,519.7,371.5,615 M502.2,459.5l-0.8-0.7C501.5,458.8,501.5,459.3,502.2,459.5 M370.6,395.8 c75.7,84.4,79.4,100.7,78.3,103.7l41.8-42c0,0-10.8,7.6-105.8-76.4c-95-83.9-123.3-106.9-123.3-106.9S278.2,292.7,370.6,395.8 M605.5,381c-84.1,76-100.2,79.7-103.3,78.5l41.8,42c0,0-7.5-10.8,76.1-106.2c83.6-95.4,106.4-123.8,106.4-123.8 S708.2,288.3,605.5,381"></path> </defs> <use xlink:href="#SVGID_1_" style="overflow:visible;fill:#FFFFFF;"></use> <clipPath id="SVGID_00000093163261075611430520000005585881403617257867_"> <use xlink:href="#SVGID_1_" style="overflow:visible;"></use> </clipPath> <polygon style="clip-path:url(#SVGID_00000093163261075611430520000005585881403617257867_);fill:#FFFFFF;" points="662.1,102.6 900.7,668.2 332.8,907.7 94.2,342.1 "></polygon> </g> </g> <g> <g> <defs> <path id="SVGID_00000134223155653726891730000018065640565533051316_" d="M486.1,268.4c-3.7,72.1-8.7,123.6-12.6,156.4 c-4.7,40.8-13.2,50.7-56.4,56.6c-34.3,4.4-87.3,10.2-155.7,14.6c-126.3,8.1-227.2,12-227.2,12s89.5,1.2,227.5,8.5 c77.7,4.1,131.3,9.5,163.4,13.5c33.9,5.6,43,15.5,47.7,47.3c0.3,2.2,11.3,95.8,15.6,164.7c8,126.8,11.9,228.5,11.9,228.5 s1.2-90.2,8.5-228.7c4.3-81.4,10-136.5,14-168.2c5.2-31,16-39.6,54.8-44.8c34.3-4.4,87.4-10.2,155.9-14.6 c126.3-8.1,227.2-12,227.2-12s-89.5-1.2-227.5-8.5c-78.2-4.2-132-9.7-164.1-13.6c-33.3-5.6-42.4-15.6-47-47.2 c-4.5-33.9-10.9-90.3-15.6-164.8c-8.1-126.7-11.9-228.5-11.9-228.5S493.4,129.9,486.1,268.4"></path> </defs> <use xlink:href="#SVGID_00000134223155653726891730000018065640565533051316_" style="overflow:visible;fill:#FFFFFF;"></use> <clipPath id="SVGID_00000035491939852449897010000000390535790512849813_"> <use xlink:href="#SVGID_00000134223155653726891730000018065640565533051316_" style="overflow:visible;"></use> </clipPath> <rect x="34.2" y="39.7" style="clip-path:url(#SVGID_00000035491939852449897010000000390535790512849813_);fill:#FFFFFF;" width="926.6" height="930.9"></rect> </g> </g> </svg> 