<?xml version="1.0" encoding="UTF-8"?> <svg xmlns="http://www.w3.org/2000/svg" xmlns:xlink="http://www.w3.org/1999/xlink" version="1.1" id="Layer_1" x="0px" y="0px" viewBox="0 0 1000 1000" style="enable-background:new 0 0 1000 1000;" xml:space="preserve"> <g> <path style="fill:#FFFFFF;" d="M883.2,718.8c0,0.1-0.1,0.2-0.1,0.2C792.2,693.9,730,610.8,730,511.8c0-81.3,45.1-151.8,111.6-188.5 c0.1,0.1,0.2,0.2,0.3,0.3c2.4-1.3,4.6-2.9,7-4.1c-62.9-58.9-143.8-62.1-158.1-62.1c-38.2,0-65.4,10.3-91.8,20.3 c-25.5,9.7-49.6,18.8-84.5,18.8c-34.9,0-58.9-9.1-84.5-18.8c-26.3-10-53.6-20.3-91.8-20.3c-24.1,0-234.9,7.7-234.9,274.1 c0,217.8,148.7,430.6,234.9,430.6c52.8,0,83.2-12.3,110-23.2c21-8.5,39.1-15.9,66.2-15.9c27.1,0,45.2,7.4,66.2,15.9 c26.8,10.9,57.2,23.2,110,23.2c60.5,0,146.5-104.6,195.6-242C885.4,719.7,884.3,719.2,883.2,718.8z"></path> <path style="fill:#FFFFFF;" d="M495.1,250.4c0,0.7,0,1.3,0,2c0,1.6,0,3.2,0,4.9c0,0,0,0,0,0c0,0,0,0,0,0v0c1.8-0.4,3.5-0.7,5.3-1.1 c0.7-0.2,1.4-0.3,2.1-0.5c1-0.2,2.1-0.5,3.1-0.7c0.7-0.2,1.5-0.4,2.2-0.6c0.2,0,0.3-0.1,0.5-0.1c0.8-0.2,1.6-0.4,2.5-0.6 c1-0.3,2.1-0.6,3.1-0.9c0.6-0.2,1.3-0.4,1.9-0.5c1.2-0.3,2.3-0.7,3.5-1c0.5-0.2,1-0.3,1.5-0.5c1.3-0.4,2.5-0.8,3.8-1.2 c0.4-0.1,0.8-0.2,1.2-0.4c1.4-0.5,2.7-0.9,4.1-1.4c0.3-0.1,0.5-0.2,0.8-0.3c1.5-0.5,2.9-1.1,4.4-1.6c0.1-0.1,0.3-0.1,0.4-0.2 c1.6-0.6,3.1-1.2,4.7-1.8c0,0,0,0,0.1,0c41.5-16.6,76.8-43.3,102.8-77c22.5-29.3,38.1-63.8,44.6-101.7c0.3-1.7,0.6-3.5,0.8-5.2 c0.3-1.9,0.5-3.9,0.8-5.8c0.6-5.3,1.1-10.6,1.4-16c0-0.5,0-1,0.1-1.6c0.1-1.2,0.1-2.3,0.2-3.5c0-0.1,0-0.2,0-0.3c0,0,0,0,0,0 c0-1,0-2.1,0.1-3.1c0-0.6,0-1.2,0-1.8c0-1.7,0-3.4,0-5.1c0-0.1,0-0.1,0-0.2c-0.1,0-0.2,0-0.3,0.1c-1.7,0.3-3.3,0.7-4.9,1.1 c-0.5,0.1-1.1,0.3-1.6,0.4c-1.2,0.3-2.4,0.6-3.7,0.9c-0.6,0.1-1.2,0.3-1.8,0.5c-1.1,0.3-2.3,0.6-3.4,0.9c-0.6,0.2-1.2,0.3-1.8,0.5 c-1.1,0.3-2.3,0.6-3.4,1c-0.6,0.2-1.1,0.3-1.7,0.5c-1.1,0.3-2.3,0.7-3.4,1c-0.5,0.2-1.1,0.3-1.6,0.5c-1.2,0.4-2.3,0.7-3.5,1.1 c-0.5,0.2-1,0.3-1.5,0.5c-1.2,0.4-2.4,0.8-3.6,1.2c-0.4,0.2-0.9,0.3-1.3,0.5c-1.2,0.4-2.4,0.9-3.6,1.4c-0.4,0.2-0.8,0.3-1.2,0.5 c-1.3,0.5-2.5,1-3.7,1.5c-0.4,0.1-0.7,0.3-1,0.4c-1.3,0.5-2.6,1.1-3.8,1.6c-0.3,0.1-0.6,0.3-0.9,0.4c-1.3,0.6-2.6,1.2-3.9,1.7 c-0.2,0.1-0.5,0.2-0.7,0.3c-1.4,0.6-2.7,1.3-4.1,1.9c-0.2,0.1-0.4,0.2-0.6,0.3c-1.4,0.7-2.8,1.4-4.2,2.1c-0.1,0.1-0.2,0.1-0.4,0.2 c-1.5,0.7-2.9,1.5-4.3,2.3c-0.1,0-0.1,0.1-0.2,0.1c-67.3,35.9-114.1,100.3-123.7,177.4c0,0.1,0,0.1,0,0.2c-0.2,1.6-0.4,3.2-0.6,4.9 c0,0.2,0,0.3-0.1,0.5c-0.2,1.5-0.3,3-0.4,4.5c0,0.3-0.1,0.6-0.1,0.9c-0.1,1.4-0.2,2.7-0.3,4.1c0,0.4-0.1,0.9-0.1,1.3 c-0.1,1.2-0.1,2.3-0.2,3.5c0,0.7-0.1,1.3-0.1,2c0,0.1,0,0.2,0,0.2c0,0,0,0,0,0c0,0.8,0,1.5-0.1,2.3 C495.1,249.6,495.1,250,495.1,250.4z M690.7,32.6C690.7,32.6,690.7,32.7,690.7,32.6C690.7,32.7,690.7,32.6,690.7,32.6 C690.7,32.6,690.7,32.6,690.7,32.6z"></path> </g> </svg> 