<?xml version="1.0" encoding="UTF-8"?> <svg xmlns="http://www.w3.org/2000/svg" xmlns:xlink="http://www.w3.org/1999/xlink" version="1.1" id="Layer_1" x="0px" y="0px" viewBox="0 0 1000 1000" style="enable-background:new 0 0 1000 1000;" xml:space="preserve"> <path style="fill:#FFFFFF;" d="M976.4,571.6H814.6l-9-18h179.9L976.4,571.6z"></path> <path style="fill:none;stroke:#FFFFFF;stroke-width:4;stroke-miterlimit:10;" d="M976.4,391.7H814.6l-9,161.9h179.9L976.4,391.7z"></path> <path style="fill:none;stroke:#FFFFFF;stroke-width:4;stroke-miterlimit:10;" d="M787.6,499.6H607.7l9-107.9h161.9L787.6,499.6z"></path> <path style="fill:none;stroke:#FFFFFF;stroke-width:4;stroke-miterlimit:10;" d="M589.7,481.6H409.9l9-89.9h161.9L589.7,481.6z"></path> <path style="fill:none;stroke:#FFFFFF;stroke-width:4;stroke-miterlimit:10;" d="M391.9,463.6H212l9-71.9h161.9L391.9,463.6z"></path> <path style="fill:none;stroke:#FFFFFF;stroke-width:4;stroke-miterlimit:10;" d="M23.2,391.7h161.9l9,18H14.2L23.2,391.7z"></path> <path style="fill:#FFFFFF;" d="M14.2,409.7l9,161.9h161.9l9-161.9H14.2z M117.1,530H92.8v-57.3l-20.7,9.1l-7.2-15.3l31.4-16.7h20.8 V530z"></path> <path style="fill:#FFFFFF;" d="M302.9,452.5c-3.7,0-7.6-0.1-11.8-0.4c-4.1-0.2-8-0.5-11.8-0.9c-3.7-0.4-6.8-0.7-9.4-1l1.1-10.1 c2.7,0.1,5.9,0.3,9.5,0.6c3.6,0.2,7.2,0.5,10.9,0.6c3.6,0.2,6.8,0.3,9.5,0.3c2.1,0,4.2-0.1,6.3-0.5c1.3-0.2,2.4-0.7,3.4-1.5 c0.4-0.3,0.6-0.7,0.8-1.2c0.2-0.5,0.3-0.9,0.3-1.4c0-0.4-0.1-0.8-0.2-1.2c-0.2-0.4-0.4-0.7-0.8-0.9c-1.2-0.7-2.5-1.2-3.9-1.3 c-1.9-0.4-4.6-0.7-8.2-1.1c-4.7-0.4-9.3-1.1-13.9-2c-3.1-0.6-6.2-1.5-9.1-2.9c-2-0.9-3.8-2.4-4.9-4.3c-1.3-2.6-1.8-5.6-1.4-8.5 c0.4-2.9,1.7-5.6,3.7-7.8c3.2-2.6,7-4.3,11-4.9c5.6-1,11.2-1.5,16.9-1.4c3.1,0,6.5,0.1,10.3,0.3c3.9,0.2,7.6,0.4,11.3,0.7 c3.7,0.2,6.9,0.5,9.6,0.8l-0.9,10.3l-8.9-0.5c-3.4-0.2-6.9-0.3-10.4-0.5c-3.5-0.2-6.5-0.2-9.2-0.2c-2.1,0-4.1,0.1-6.2,0.4 c-1.3,0.1-2.5,0.5-3.6,1.2c-0.3,0.2-0.6,0.6-0.8,0.9c-0.2,0.4-0.3,0.8-0.3,1.2c0,0.5,0.1,0.9,0.3,1.3s0.5,0.8,0.9,1 c1.2,0.8,2.6,1.2,4,1.4c1.9,0.4,4.7,0.8,8.2,1.3c5.5,0.7,10.1,1.4,13.8,2.1c3.1,0.5,6.1,1.5,9,2.7c2,0.9,3.7,2.3,4.9,4.2 c1.1,2,1.6,4.3,1.5,6.5c0.1,1.8-0.2,3.6-0.8,5.2c-0.6,1.7-1.6,3.2-2.8,4.5c-3,2.7-6.8,4.6-10.8,5.3 C314.5,452.2,308.7,452.7,302.9,452.5z"></path> <path style="fill:#FFFFFF;" d="M467.3,467.2v-65.4h33.1c6.5-0.1,13,0.6,19.3,2.2c4.6,1.1,8.7,3.7,11.7,7.4c2.6,3.5,3.9,8.2,3.9,14.4 s-1.3,11-3.9,14.6c-2.9,3.8-7,6.6-11.7,7.8c-6.3,1.7-12.8,2.5-19.3,2.4H490v16.7H467.3z M489.9,436.6h9.5c4.6,0,7.9-0.9,9.8-2.6 c2-1.7,3-4.5,3-8.2c0-3.7-1-6.5-2.9-8c-1.9-1.5-5.3-2.3-9.9-2.3H490L489.9,436.6z"></path> <path style="fill:#FFFFFF;" d="M409.9,481.6l9,89.9h161.9l9-89.9H409.9z M543,561.1h-34.3l-8.9-47.1h-0.3l-8.9,47.1H457l-12.7-65.5 h22.6l7.9,48.4h2.7l10.1-47.7h25l10.4,47.7h2.7l6.9-48.4h22.9L543,561.1z"></path> <path style="fill:#FFFFFF;" d="M686.3,483.2v-75.4H709v75.4H686.3z"></path> <path style="fill:#FFFFFF;" d="M212,463.6l9,107.9h161.9l9-107.9H212z M334.2,544.1h-5.8v11l-22.1,0v-11h-36.6v-14.4l15.7-49.5h25.4 l-19.2,47.3h14.6l1.7-16.6l20.5-0.4v17.1h5.8V544.1z"></path> <path style="fill:#FFFFFF;" d="M607.7,499.6l9,71.9h161.9l9-71.9H607.7z M709,562.6h-22.7v-51.7H709V562.6z"></path> <path style="fill:#FFFFFF;" d="M856,512.4v-79.9H883l25.9,45.3h2.2v-45.3h24v79.9h-27l-25.7-46.7H880v46.7H856z"></path> </svg> 