<?xml version="1.0" encoding="UTF-8"?> <svg xmlns="http://www.w3.org/2000/svg" xmlns:xlink="http://www.w3.org/1999/xlink" version="1.1" id="Layer_1" x="0px" y="0px" viewBox="0 0 1000 1000" style="enable-background:new 0 0 1000 1000;" xml:space="preserve"> <path style="fill:#FFFFFF;" d="M755.4,403.1c-2.2,1.4-3.6,2.3-5,3.1c-3.7,2.1-5.4,5.4-5.3,9.5c0.2,4.5,2.8,8,6.9,8.7 c7.9,1.5,16,3,24,2.7c28.9-1.4,48.2-18.3,63.4-41c11-16.4,20-33.9,24.8-53.3c0.2-0.9,0.4-1.9-0.1-3.2c-2.4,3.8-4.4,7.9-7.2,11.4 c-5.6,7.2-10.8,15-17.7,20.8c-10.4,8.9-23.3,11.1-35.9,5.5c-12.8-5.6-17.3-17.2-17.6-30.6c-0.1-2.2,0-4.3,0-7.7 c-1.3,2-2.1,3.1-2.8,4.2c-9.5,15.4-21.3,28.9-35.7,39.9c-18.5,14.2-44.9,8.7-53.3-11.1c-4.4-10.5-5.3-21.6-3.5-32.8 c1.4-8.4,3.4-16.8,5.2-25.3c-0.4-0.2-0.8-0.6-1.2-0.7c-9.2-1.3-9.1-1.2-11.5,7.7c-6.1,23.5-12.4,47-18.8,71 c-23.3-3.7-44.6,1.3-65.7,12.3c5.9-16.2,11.4-31.3,16.9-46.4c-0.3-0.2-0.7-0.4-1-0.6c-3,3.7-5.7,7.7-8.9,11.1 c-8.4,8.9-16.8,18-25.8,26.3c-6.1,5.6-14.1,8-22.4,8.7c-16.8,1.6-29.7-9.8-31.3-26.9c-1.7-18.2,4.5-34.6,10.6-51.1 c3.3-9,6.6-18,9.7-27c0.7-1.9,0.6-4.1-0.2-7.2c-2.6,1.6-5.4,2.9-7.6,4.9c-13.6,12.3-21.6,28.1-27,45.2 c-6.2,19.7-11.9,39.6-17.7,59.4c-0.7,2.6-1.4,4.1-4.6,3.7c-21-2.8-40.5,1.9-59.2,11.4c-0.6,0.3-1.2,0.5-2.9,1.2 c4.9-12.6,9.5-24.4,14.1-36.2c-0.1-0.1-0.3-0.1-0.4-0.2c-4.8,6.5-9.5,13.1-14.6,19.3c-7.5,9.3-17,15.3-29.2,16 c-13.7,0.8-23.3-5.7-27.8-18.7c-1.1-3.1-1.7-6.3-2.7-9.9c-3.6,4.4-6.8,8.9-10.7,12.8c-5.5,5.5-11,11.2-17.4,15.6 c-18.4,12.7-41.3,2.6-45.2-19.5c-2.7-15.2,0.1-30,4.5-44.2c8.4-27.3,18.2-54.2,27.6-81.2c0.4-1.3,2-3,3.1-3.1 c16.7-1.4,33.4-2.6,51-3.9c-1.6,5.2-2.9,9.8-4.3,14.4c-7.3,23.5-14.8,47-21.9,70.6c-1.5,5-3.7,10.5,0.5,15.7 c6.7-1.7,11.1-6.2,13.4-11.9c5.4-13.5,10.3-27.1,15-40.9c5.2-15.2,9.9-30.5,14.9-45.7c0.5-1.6,2.3-3.7,3.6-3.8 c17.4-1.5,34.7-2.7,53-4c-0.7,2.6-1.1,4.4-1.6,6.2c-8.6,28.3-17.3,56.6-25.9,85c-0.9,3-1.6,6.1-1.9,9.2c-0.4,4.4,1.6,6.1,5.7,4.4 c12.5-5,22.7-12.8,27.1-26c8.5-25.7,16.6-51.5,25.1-77.3c0.6-1.7,2.3-4.2,3.7-4.3c16.2-1.5,32.4-2.6,49.6-3.9 c-1.9,5-3.6,9.3-5.7,14.5c2.8-2.2,4.9-4.1,7.2-5.6c12.9-8.8,26.6-15.7,42.7-15.7c15.9,0,27.3,11.9,27.9,27.8 c0.6,16.4-6.2,30.6-11.5,45.4c-3,8.2-5.7,16.6-7.9,25c-1.6,6.3,1.4,9,7.6,7.3c11.1-3,20.1-9.5,27.2-18.3c2.1-2.6,3-6.2,4-9.5 c13.8-44.9,27.5-89.7,41.2-134.6c2.4-7.9,4.5-15.9,7-23.8c0.4-1.3,2.9-3.1,3.9-2.9c14.3,3.8,27.6,0.3,40.6-5.3 c2.7-1.2,5.5-2.2,9-3.6c-12.1,42.3-24,83.9-36.1,126.3c11.6-1.5,21.2-3.7,27.7-12.4c6.6-8.8,5.3-18.7,3.5-29.1 c18.5-1.4,36.6-2.7,55.3-4.1c0.7,15.6-1.9,30.1-7.8,44c-4.7,11-11.3,20.7-21,27.9c-2,1.5-4.2,3-6.6,3.5c-6.1,1.2-6.5,4.6-5.6,10 c2,11,7.5,17.9,16.7,18c7.7,0.1,15.2-1.9,21.2-7.3c8.7-7.9,14.8-17.1,18.3-28.8c6.9-22.6,15.4-44.7,23.4-66.9 c0.5-1.5,2.4-3.3,3.8-3.4c15.9-1.4,31.8-2.6,47.7-3.8c0.6,0,1.3,0.1,2.6,0.2c-2.9,9.1-5.6,17.8-8.4,26.6 c-6,19.1-11.9,38.2-17.9,57.4c-0.6,2.1-1.1,4.2-1.4,6.3c-0.8,5.1,2.5,8.5,7.4,6.5c4-1.7,8.7-4.6,10.5-8.2 c4.6-9.4,8.2-19.4,11.5-29.4c6.3-19,12.1-38.1,18.1-57.1c0.8-2.5,1.6-4.3,4.9-4.5c16.9-1,33.8-2.3,50.7-3.6c0.3,0,0.6,0.1,1.1,0.2 c0.1,0.4,0.4,0.9,0.2,1.3c-11.2,27.5-18.2,56.3-25.8,84.9C913,334,901.3,370.7,883,405c-18.6,34.8-42.8,64.3-78.3,83.3 c-18.1,9.7-37.4,16-58,16.2c-22.1,0.2-42.6-5.3-58.6-21.7c-9.6-9.8-13.6-21.9-13.3-35.8c0.3-12.7,2.6-24.2,11.2-34 c9.3-10.5,21.4-15.4,35-17.2c10-1.3,19.7-0.7,28.9,4C751.7,400.6,753.3,401.8,755.4,403.1z"></path> <path style="fill:#FFFFFF;" d="M285.2,158.1c-12.3-2.5-23.3-5-34.5-7c-7-1.3-14.1-2.8-21.1-2.8c-29,0.2-56.4,6-77.5,27.9 c-12.2,12.6-19.8,27.9-18.3,46.1c0.4,5.3,3,10.7,5.4,15.6c0.9,1.7,4.5,3.2,6.6,2.8c2.1-0.4,5-2.8,5.5-4.9c0.9-3.5-2.2-5.4-5.3-5.7 c-2.2-0.3-4.6,0.4-6.9,0.7c2.4-6.7,12.9-13.4,21.2-13.8c7.6-0.4,14.2,2.2,20.4,6.5c1.5,1,3.6,1.1,5.4,1.6c0.4-0.5,0.7-0.9,1.1-1.4 c3,7.8,6,15.6,8.9,23.5c0.7-0.3,1.4-0.5,2.7-1.1c-2.1,7.1-0.4,13,4.2,18.2c-2.4-0.3-4.5-0.5-5.6-0.6c-4.7,9-8.3,18-13.7,25.6 c-10.8,15-25.8,23.5-44.2,26.6c-36,6-67.5-14.6-81-42.6c-5.2-10.8-6.8-22.2-7-34.1c-0.3-24.6,7.7-46.2,22.8-65.4 c15.1-19.2,34.5-32.7,56.7-42.3c18.6-8,38-12.7,58-15.5c29.7-4.2,58.7-0.1,87.8,5.6c21.9,4.2,43.7,8.6,65.8,11.4 c17.7,2.2,35.8,3.1,53.6,2.9c13-0.2,26.1-2.2,38.8-5c11.9-2.7,17-13,12.9-23.6c-2.6-6.6-6.4-9.7-13.4-7.3c-2.5,0.8-5.1,0.9-8.5,1.4 c7.9-13.4,18.2-22.8,32.5-27.5c28.3-9.4,69.1,5.2,77,38.9c0.7,2.9,1,5.8,1.7,8.7c1.1,4.7,2.4,9.4,3.4,13.2c-1.1,2.5-2.7,4.5-3,6.8 c-3.3,25.6-19,42-40.5,53.6c-18.6,10.1-38.9,12-59.8,10.4c-40.6-3.2-78.5-15.6-114.8-33.2c-3.4-1.7-5.7-0.9-8.4,1.4 c-8.9,7.7-13.6,17.8-16.9,28.6c-7.9,25.4-15.8,50.9-23.9,77c10.9-0.8,21.3-1.6,32.8-2.4c-3.5,10-5.9,19.6-10.1,28.3 c-5,10.2-14.7,14.6-25.8,14.6c-8.4,0-13.2,2.3-16.3,10.9c-4.8,13.4-11,26.5-17.7,39.1c-6.9,12.9-15.1,25.1-22.9,37.5 c-13.8,22.3-32.7,39.3-56.6,49.8c-38.3,16.9-75.6,14.8-110.5-9.7c-12-8.4-19.7-20.3-26-33.6c-4.8-10.3-6.8-20.8-6.6-31.7 c0.6-29,23.9-54.5,52.2-56.4c13.3-0.9,25.9,0.8,36.7,8.7c4.8,3.5,8.3,8.6,12.6,13.3c-1.5,0.9-1.8,1.1-2,1.1c-4,0.6-8.2,0.9-9.1,6 c-0.8,4.2,2.6,8.9,7.8,10.8c7.8,2.8,15.4,0.7,22.8-1.3c15.1-4.1,27.4-12.9,38-24.1c3.9-4.1,7.2-8.7,11.1-12.7 c10.1-10.5,12.2-24.5,16.1-37.6c1.2-3.9,2.9-5.8,6.6-5.7c3.1,0.1,4.3-1.5,5.4-4c11.5-25.9,22.9-51.7,34.6-77.5 C254.8,184.5,265.1,168.1,285.2,158.1z"></path> <path style="fill:#FFFFFF;" d="M803,637.2c3.8-14.4,18.8-26.9,33.9-28.7c28.1-3.3,52.8,12.8,59,40.1c2.3,10.4,2.4,22.1,0.2,32.5 c-2.4,11.6-9,22-16.8,31.4c-17.6,21.1-40.3,32.4-67.2,35.9c-32.6,4.3-61.1-5-86.8-24.9c-23.4-18-36-41.7-38.4-72.2 c-4.7,9.2-8.7,17.3-12.9,25.4c-7.3,13.9-16.8,25.4-32.8,29.9c-17.1,4.8-30.8-3.9-34.1-21.4c-2.8-15.1,0.2-29.2,5.3-43.2 c4.1-11.3,7.6-22.8,11.1-34.3c0.8-2.5,0.4-5.4,0.6-8.6c-6.9,0.8-10.5,4.9-13.7,9.3c-9.4,13.1-14.3,28.2-18.3,43.7 c-3.2,12.7-6.2,25.4-9.4,38.4c-12.2-1-18.1,6.6-22.7,16.3c-0.5,1.1-1.9,2.6-3,2.6c-14.3,0.9-27.4,6-40,12.4 c-0.4,0.2-0.9,0.4-2.3,0.9c3.5-10.2,6.7-19.8,10-29.3c9.2-26.8,18.4-53.6,27.5-80.4c0.7-2.1,0.8-4.4,1.1-6.6 c-0.4-0.4-0.9-0.8-1.3-1.2c-2.7,1.5-5.9,2.5-8.2,4.5c-12.7,11.1-20.9,25.4-26.6,40.9c-7.5,20.7-14.2,41.6-21.2,62.5 c-0.9,2.7-1.7,5.2-5.6,4.6c-19.6-2.6-37.3,3.5-54.3,12.4c-0.3,0.1-0.6,0.2-1.7,0.6c4.6-12.1,8.9-23.8,13.3-35.4 c-0.4-0.2-0.7-0.4-1.1-0.6c-2.9,3.7-5.4,7.8-8.6,11c-6.7,6.7-13.3,13.5-20.8,19.1c-7.3,5.5-16.2,7.8-25.4,6.4 c-15.3-2.4-23.9-13.3-24.5-29.1c-0.6-17,3.8-33,8.9-49c7.2-22.6,14-45.4,20.7-68.1c1-3.3,2.6-4.6,5.7-4.9 c12.1-1.1,24.1-2.2,36.2-3.3c4.1-0.4,8.2-0.8,13.3-1.2c-2.5,8.9-5,17.1-7.3,25.4c-6.3,22.4-12.6,44.9-18.8,67.3 c-0.5,1.7-0.6,3.6-0.7,5.4c-0.4,9.2-0.5,12.5,10.7,7.4c12.7-5.7,22-15,26.1-28.8c7.1-24.2,14.3-48.4,21.2-72.6 c1.5-5.1,2.9-8.2,9.6-8.4c13.7-0.4,27.4-2.3,41.2-3.6c0.9-0.1,1.9,0,3.4,0c-1.9,4.5-3.5,8.6-5.2,12.6c10.2-9.2,21.4-16.1,34.7-19 c8.4-1.9,16.7-2.7,24.8,1.3c7.1,3.5,11.2,9,12.5,15.9c6.7-5.5,13.4-11.8,20.8-16.9c10.1-6.9,21.4-10.6,33.9-8.1 c13.2,2.7,21.7,13.1,22.1,26.8c0.4,13.4-4.3,25.6-8.6,38c-3.2,9.2-6.3,18.5-8.8,27.9c-0.8,3,0.6,6.5,1,9.8c2.8-1.1,5.9-1.7,8.2-3.4 c9.4-6.9,13.9-16.3,16.3-27.8c6.2-29.2,20.3-53.8,45.4-71.1c13.5-9.3,28.4-14.1,45-11.9c13.9,1.8,25.7,13.1,28.2,27.1 c5.6,30.9-14.1,61.2-44.6,68.3c-7.6,1.8-15.2,1.4-21.7-4.4c-0.2,15.5,10.7,40.4,30.7,44.4c13.8,2.8,31.4-3.3,39.2-14.8 c1.7-2.4,2.9-5.2,3.8-8.1C818.3,644,813.8,637.7,803,637.2z M772,567c-0.6-0.4-1.2-0.8-1.8-1.2c-3.1,2.6-7,4.6-9,7.9 c-5,8.1-9.2,16.8-13.3,25.4c-0.8,1.6,0.1,4,0.3,6c1.8-0.5,3.9-0.6,5.3-1.6c10.2-7.3,15.3-18,18.5-29.7 C772.5,571.6,772,569.2,772,567z"></path> <path style="fill:#FFFFFF;" d="M144.6,698c4.8,1.3,5.7-1.5,6.9-4.5c8.1-20,25-31.1,45.9-31c10.9,0.1,21.3,2.9,29.1,11.4 c2.1,2.3,3.6,5,5.6,7.9c-1.4,0.5-2.3,0.6-2.9,1.1c-2,1.4-5.7,3.3-5.4,4.2c0.6,2.7,2.3,5.7,4.5,7.3c4.9,3.4,10.5,1.5,15.7,0.3 c17.7-4.2,30.6-15.2,41.2-29.2c17.3-22.9,27.8-49.3,39.1-75.4c8.2-18.8,16.2-37.8,25.5-56.1c6-11.7,15.5-20.9,27.3-28 c-21.2-5.8-42.3-8.2-63.5-6.3c-24,2.2-45.5,10.7-60.1,31.3c-7.6,10.7-10,23-7.3,36c0.6,2.8,1.9,6,3.9,7.8c2.3,2.2,5.9,4.3,8.8,4.2 c4.1-0.1,7.8-2.7,8.6-7.6c0.2-1.3,0.8-2.5,1.5-4.8c4.6,2.7,8.8,5.2,14,8.3c-3.3,1.7-5.3,2.8-6.6,3.5c2,3,3.9,6,5.9,8.9 c1-0.9,2.6-2.4,4.7-4.3c5.6,12.5,5.6,24.4-0.2,36.1c-7,14.2-18.9,22-34.1,25.7c-29.3,7.2-58.8-7.9-68.8-35.8 c-5.6-15.5-5.9-31.4-2-47.4c5.4-22.3,18.8-39.2,35.9-53.5c29.9-25,65.3-37.5,103-44.7c27.6-5.2,55.5-6.7,83.4-3.6 c26.6,2.9,52.9,7.7,79.3,12.2c21.8,3.8,43.4,9,65.8,7.5c0.7,0,1.3,0,2,0c11.1-1.2,14.4-7.9,7.9-17.2c16.6-5.1,31.8-4.1,46.2,6.1 c15.2,10.8,16.6,26.2,14.2,43.2c-0.2,0.2-1.8,1-2.4,2.3c-8.5,18.6-24.7,27-43,32.5c-17.3,5.2-35.1,5.1-52.7,2.3 c-13.5-2.2-26.9-5.1-41.7-7.9c2.8-4.3,4.6-7.3,6.8-10.1c4-5,3.3-11-2.3-14.5c-3.6-2.3-7.4-4.5-11.4-6c-5.9-2.2-8.3-6.3-8.6-12.2 c-0.1-2.8-0.8-5.6-1-8.4c-0.4-4.2-2.4-7.1-6.4-8.6c-4-1.4-7.1,0.1-9.8,2.9c-3.4,3.4-6.6,7.1-10.1,10.3c-1.3,1.2-3.4,2.2-5.1,2.1 c-5-0.1-10-0.5-14.8-1.4c-4.3-0.8-7.6,0.3-10.2,3.5c-2.7,3.3-2.5,7-0.7,10.7c0.8,1.6,1.6,3.2,2.5,5c-19.8,15.3-27.1,37.4-33.2,60.1 c-11.2,41.5-23.6,82.6-41.9,121.7c-8.2,17.5-18.2,33.8-30.8,48.4c-11.3,13.1-25.8,21.2-42.1,27.1c-21.9,7.9-43.2,8.7-65.3,1 c-7.8-2.7-15.4-4.9-22.1-10.2c-16.2-12.9-24.9-29.4-25.4-50C147.5,702.7,148,702.7,144.6,698z"></path> <path style="fill:#FFFFFF;" d="M525.4,887.7c12.6-1.8,24.5-3.8,36.5-5c18.2-1.9,36.2-0.5,53.2,7c4.4,1.9,8.4,5.2,12.1,8.4 c1.3,1.1,1.2,3.8,1.7,5.8c-2,0.4-4.1,1.4-5.9,1.1c-9-1.5-17.8-4.4-26.8-4.9c-15.4-0.9-30.8-1-46.2-0.2c-9.3,0.5-18.5,3.3-27.7,5.3 c-2.1,0.5-4,2-5.7,3.4c-6.4,5.5-12.2,11.9-19.3,16.3c-4.7,2.9-11.2,4-16.9,4.2c-7.5,0.3-10.6-5-8.4-12.1c2.4-7.9,8-13.4,14.9-17.3 c4.7-2.7,10-4.3,14.9-6.7c1.9-0.9,4.2-2.3,5-4c19-42.2,35.7-85.2,47.9-129.8c4.5-16.4,7.5-33.2,11.7-49.7c1.1-4.2,3.6-8.1,6.1-11.7 c2.6-3.8,6.9-4.6,11.2-3.1c4.3,1.5,5.1,5.2,5.3,9.2c0.7,12.4-2.4,24.2-5.7,35.9c-13.9,49.2-34.7,95.8-55.4,142.4 C527,883.9,526.3,885.7,525.4,887.7z M500.9,903.4c-10.8,1.8-20.7,10.3-19.8,17C490.1,917.7,495.1,910.9,500.9,903.4z"></path> <path style="fill:#FFFFFF;" d="M719,826.5c0,3.7-0.2,6.9,0,10c0.4,5.2,3.5,7.6,8.7,7.2c7.6-0.7,13.7-4.5,19.5-9.2 c1.3-1,2.5-2.1,3.7-3.1c0.5,0.3,0.9,0.4,1,0.6c4,9.4,4,9.5-4,15.9c-10.8,8.6-23.2,11.8-36.8,10.3c-9.5-1.1-17.2-11-16.6-22.3 c1.3-26.9,22-53.9,47.9-60.1c5-1.2,10.6-1.1,15.7-0.4c8.9,1.1,13.5,8.6,11.6,17.4c-2.3,10.3-9.2,17.1-17.7,22.4 c-8.6,5.4-18.1,8.7-28.2,10.1C722.2,825.5,720.8,826,719,826.5z M724.4,813.7c10.4-2.7,18.5-6.9,23-15.6c1.4-2.8,1.9-8.4,0.3-9.9 c-3.2-2.9-7.1,0.4-9.9,2.9C731.3,796.8,727.8,804.5,724.4,813.7z"></path> <path style="fill:#FFFFFF;" d="M631.4,862.2c0-16.1-0.1-31.7,0-47.3c0.1-9.6,0.5-19.3,0.6-28.9c0-2.5,0.6-4.1,3.1-4.7 c1.3-0.3,2.4-1.1,3.7-1.4c9.3-1.8,17.4-1.7,16.2,11.6c-1.2,13.7-2.1,27.5-3,41.2c-0.1,0.9,0,1.9,0.5,3c10.1-14,23.1-26.4,22.6-45.7 c-0.2-9,5.6-15.1,13.8-14.8c5,0.2,9.3,3.8,8.9,8.7c-0.5,5.5-1,11.6-3.7,16.1c-6.7,11-14.3,21.5-22.3,31.6 c-7.4,9.4-15.7,18-23.9,26.7c-1.8,1.9-4.9,3.1-7.5,3.6C637.2,862.7,633.9,862.2,631.4,862.2z"></path> <path style="fill:#FFFFFF;" d="M412.7,497.2c7.7,0.8,14.2,1.7,20.7,2c2.3,0.1,5-0.9,6.9-2.3c4-3,7.5-6.6,11.2-9.9 c1.6,5.6,2.7,11.1,4.9,16.2c1,2.4,4,4.2,6.4,5.7c3.9,2.3,8.2,4.1,12.2,6.3c0.9,0.5,2,1.6,2,2.2c-0.1,0.8-1.2,1.8-2.1,2.2 c-4.3,1.8-8.6,3.4-13.9,5.5c2.1,0.6,3.1,0.8,4.3,1.1c-0.5,0.6-0.8,1.2-1.1,1.3c-2.6,0.6-3.2,2.1-3.1,4.7c0.4,6.1,0.5,12.3,0.6,18.5 c0,1.3-0.2,2.5-0.3,4.6c-1.7-0.8-2.9-1-3.8-1.8c-4.6-3.8-9.4-7.4-13.6-11.7c-3.2-3.2-6.1-4.2-10.5-2.7c-6.9,2.3-14,4-21,5.9 c-1.6,0.4-3.4,0.6-6.4,1c1.4-2.7,2.2-4.3,3.1-5.7c3.9-6.2,7.9-12.3,11.6-18.5c0.8-1.3,1.3-3.5,0.8-4.9 C419,510.7,416.1,504.6,412.7,497.2z"></path> <path style="fill:#FFFFFF;" d="M510.7,822.5c-0.7,16.6-6.5,29.6-18.6,39.2c-14.1,11.2-30,13.5-47.1,7.7c-3.8-1.3-4.7-3.1-3-7 c4.5-10.2,8.9-20.4,18-27.6c8.7-6.8,18.7-10.2,29.7-10.8C496.4,823.6,503.1,823,510.7,822.5z"></path> <path style="fill:#FFFFFF;" d="M510.2,816.9c-11.6,2-22.7,1.8-33.8-0.5c-13.4-2.8-22.8-10.5-29.1-22.4c-1.1-2-2.1-4.1-3-6.2 c-4.2-9.7-4.2-9.8,5.8-13c26-8.4,54.1,3.8,60.1,36.3C510.5,812.8,510.2,814.6,510.2,816.9z"></path> <path style="fill:#FFFFFF;" d="M593.8,850.1c3.6-2.2,6-3.6,8.5-5.1c3.1,7.3,3,8.2-3,12.5c-6.2,4.4-12.9,7.3-20.8,6.8 c-7.3-0.5-10.7-4.7-8.4-11.5c7.6-21.8,15.3-43.6,23.3-65.2c1-2.7,3.5-5.3,5.9-7c3.7-2.6,8.1-3.1,12,0.1c3.9,3.1,4.2,7.2,2.6,11.7 c-6.1,17.4-12.2,34.8-18.2,52.3C595.2,846,594.7,847.3,593.8,850.1z"></path> <path style="fill:#FFFFFF;" d="M623,757.5c0.5,4.3-2,7.8-5.6,10.7c-6.3,5.1-11.9,2.9-13.2-5.1c-1-5.8,3-12.6,8.5-14.4 C619.1,746.7,623.1,749.8,623,757.5z"></path> </svg> 