<?xml version="1.0" encoding="UTF-8"?> <svg xmlns="http://www.w3.org/2000/svg" xmlns:xlink="http://www.w3.org/1999/xlink" version="1.1" id="Layer_1" x="0px" y="0px" viewBox="0 0 1000 1000" style="enable-background:new 0 0 1000 1000;" xml:space="preserve"> <path style="fill:#FFFFFF;" d="M377.4,635.5c-7.1-1.8-14.2-3.3-21.3-5.3c-24.3-7.1-35.4-20.9-35.5-45.7c-0.3-47-0.3-93.9,0-140.9 c0.1-25.5,14.8-47.1,40-50.9c23.4-3.5,48.1-3.4,71.5,0c24.6,3.6,35.2,20.1,35.5,45.1c0.3,25.9-0.2,51.9,0.2,77.8 c0.2,10.3-4.2,13.9-14.1,13.6c-18.2-0.5-36.4-0.1-54.6-0.7c-9.1-0.3-13.7,2.1-13.2,12.3c0.7,12.7-0.6,25.5,0.6,38.1 c0.4,4.5,5.8,8.5,8.9,12.7c3-4,8.1-7.8,8.6-12.2c1.2-10.1-0.7-20.6,0.7-30.7c0.6-4.1,6.2-10.4,9.8-10.6c17.1-1.1,34.3-0.5,51.9-0.5 c0,19.4,2.6,37.8-0.7,55.1c-4.2,22.1-21.6,33.9-43.3,39.1c-5.2,1.2-10.3,2.5-15.5,3.8C397.1,635.5,387.2,635.5,377.4,635.5z M386,489.1c13.3,3.7,19.1,0.9,18.3-12.5c-0.8-12.6,0.7-25.3-0.2-37.8c-0.3-4.5-4.9-8.7-7.5-13c-3.5,4.3-9.8,8.3-10.1,12.8 C385.3,455.1,386,471.7,386,489.1z"></path> <path style="fill:#FFFFFF;" d="M930.5,635.5c-0.4-0.3-0.7-0.8-1.2-0.9c-38.2-9.9-42.9-15.6-43.1-55.5c-0.3-44.5-0.1-89.1-0.1-133.6 c0-4.8,0-9.6,0-15.4c-9.2-0.5-17.3-0.9-26.9-1.5c0-9,0-17.2,0-25.4c-0.1-9.5,4.3-15.1,14.2-14c12.1,1.3,16.2-3,15.9-15.4 c-0.6-32.4-0.1-32.4,32.4-32.4c9.3,0,18.6,0,29.9,0c0,8.6,0,16.2,0,23.9c0,7.3,0,14.5,0,23.1c11.1,0.5,21.1,1,32.8,1.5 c0,6.6-0.6,12.4,0.1,18.1c2,14.7-3.6,21.2-18.8,18.8c-10.8-1.6-14.5,2.9-14.4,14c0.6,39.1,0.2,78.3,0.2,117.5c0,22.3,2.6,25,25,26.8 c2.9,0.2,5.7,0.5,12.5,1c-2.9,17-5.7,33.2-8.4,49.5C964,635.5,947.2,635.5,930.5,635.5z"></path> <path style="fill:#FFFFFF;" d="M22.5,532.7c18,2,36.1,5.6,54.1,5.4c11.7-0.2,26.1-2.9,34.5-10c30.9-26.4,66.4-23.3,102.4-19.8 c7.3,0.7,14.6,2.4,21.6,4.5c18.9,5.8,21.6,10.9,16.7,30.1c-12.8,50.6-56.3,89.2-101.3,89.8c-67.5,0.9-108-26.8-125.3-85.3 c-0.3-1.1-1.8-1.9-2.7-2.8C22.5,540.5,22.5,536.6,22.5,532.7z"></path> <path style="fill:#FFFFFF;" d="M22.5,482.7c9.6-23.8,20.2-46.8,41.4-63.3c34.6-26.9,73-32.3,113.5-18.7c42,14.1,65.9,45.4,75.4,87.9 c1,4.6,0.1,9.6,0.1,16c-32.7-12.6-65.4-14.8-98.4-9.9c-10,1.5-21.6,3.2-29,9.2c-29.8,23.7-62.6,18.7-95.8,12.8 c-2.4-0.4-4.8-1-7.2-1.5C22.5,504.2,22.5,493.4,22.5,482.7z"></path> <path style="fill:#FFFFFF;" d="M562,391.1c0-18.3,0-37.1,0-56.8c21.5,0,40.8,0,61.1,0c0.3,5.1,0.7,9.4,0.7,13.7 c0.2,88.5,0.2,177,0.9,265.5c0.1,12.6-2.9,18.4-16.3,16.3c-12.1-1.9-25.6,4.3-36.5-6.2c-1.2-1.2-6.1,2.1-9.2,2.1 c-18.3,0.3-37.1,3.1-54.7-0.4c-17-3.4-30.6-20.3-30.2-41.3c1-51.3,0.3-102.7,0.5-154c0.1-23.7,13.3-39.1,37-41 C529.6,387.8,544.3,390.2,562,391.1z M560.9,509.4c0-22.4,0.1-44.9-0.1-67.3c-0.1-6.3,2.4-15.2-8.6-15c-10.7,0.2-10,8.5-10,16 c0,44.4,0,88.8,0,133.3c0,6.9-0.7,15.7,9,14.5c3.7-0.5,8.9-9,9.2-14.1C561.5,554.3,560.9,531.9,560.9,509.4z"></path> <path style="fill:#FFFFFF;" d="M786.7,499.9c0-20.4,0.1-38.4,0-56.4c0-9.1-2.8-15.5-15.6-12c0,10.1,0,20.2,0,30.4 c0,38.1-0.4,76.3,0.4,114.4c0.1,5.2,6,10.2,9.2,15.3c2.6-4.9,7.1-9.6,7.5-14.6c1.1-13.6,0.3-27.4,0.4-41.1 c0.1-8.8,3.7-13.2,13.5-12.8c16.2,0.6,32.4,0.2,48.9,0.2c0,24,1.7,46.9-0.5,69.4c-1.8,18.1-15.7,31.1-32.9,33.2 c-23,2.8-47.1,3.2-70-0.3c-27.1-4.2-38.9-22.2-38.9-49.7c0-45.5,0-91,0-136.4c0-22.5,10.2-37.9,32-45.2c26.8-9.1,54.3-8.9,81.3-0.5 c19.5,6,29.9,20,30.6,40.4c0.5,17.1,1.1,34.3-0.4,51.3c-0.5,5.2-7.4,13.4-12,13.9C823.1,500.9,805.9,499.9,786.7,499.9z"></path> <path style="fill:#FFFFFF;" d="M696.4,389.3c0.4,5.5,0.9,9.3,0.9,13.1c0,70.9-0.2,141.7,0.3,212.6c0.1,11.4-2.8,16.1-14.8,15 c-10.7-1-21.6-0.4-32.4-0.1c-10.2,0.3-15.4-3.3-15.4-14.3c0.1-71.8-0.3-143.7,0.1-215.5c0-3.6,5.1-10,8.2-10.2 C660.7,388.8,678.3,389.3,696.4,389.3z"></path> <path style="fill:#FFFFFF;" d="M695,333.4c1.2,2.3,1.6,2.7,1.6,3.1C701,377,701,377,660.7,377c-8.7,0-17.3,0-27.1,0 c0-9.9-1.1-21,0.5-31.8c0.6-4.4,6.9-10.9,10.9-11.2C661.6,332.6,678.3,333.4,695,333.4z"></path> </svg> 