<?xml version="1.0" encoding="UTF-8"?> <svg xmlns="http://www.w3.org/2000/svg" xmlns:xlink="http://www.w3.org/1999/xlink" version="1.1" id="Layer_1" x="0px" y="0px" viewBox="0 0 1000 1000" style="enable-background:new 0 0 1000 1000;" xml:space="preserve"> <path style="fill:#FFFFFF;" d="M165,371.6c21.6,8.7,27.2,18.8,16.6,40.3c-11.5,23.4-10.3,46-6.1,70.5c3.1,17.7,3,36.4,1.1,54.3 c-2.1,20.3-15.8,33.8-34.9,40.4c-32.9,11.4-63.4,6.5-87.3-19.6c-21.3-23.2-37.1-50.1-42.6-81.5c-1.5-8.4,0.1-18.3,3.3-26.3 c4.9-12.2,17.2-18.5,29.1-16.4c8.4,1.5,18.8,9.4,22.1,17.1c5.9,13.9,6.2,30.1,10.7,44.8c4.1,13.7,9.3,27.4,16.4,39.7 c6.1,10.5,17.5,13.2,29.2,8.5c11.6-4.7,14.5-15.2,13.6-26.1c-0.7-8.4-4-16.7-6.5-24.9c-5.3-17.3-13.2-34.3-16-52 c-5.5-34.4,8.2-55.8,40.2-68.8C157.6,371.6,161.3,371.6,165,371.6z M146.7,385.7c-6.3,7-11.3,12.5-16.3,18c3.5,1.1,7.5,4,10.5,3.1 C149.4,404.4,153.4,398.7,146.7,385.7z"></path> <path style="fill:#FFFFFF;" d="M970.8,470.4c-7.1,1.5-7.9,6.1-8.5,12.8c-1.9,18.5-3.2,37.5-8.7,55.1c-9.4,30-28,38.8-58.8,30.7 c-9.5-2.5-18.4-7.2-29.4-11.6c5.3-6.6,8.4-11.9,12.9-15.4c3.1-2.4,8.1-2.7,12.4-3.2c2.1-0.3,4.4,1.1,6.6,1.7 c19.4,4.9,23.2,2.3,25.8-17.4c-10.7-1-22.1-0.2-32.1-3.5c-7.4-2.5-16-9.1-18.7-16c-3.8-9.7-2.1-21.4-3.9-32.1 c-1.6-10-4.7-19.7-7.5-31.3c18.9,0,34.3,0,51.3,0c-3.5,11.6,6.5,24.1-7.5,33.7c-2.6,1.8-2.2,13.2,0.9,16.3 c4.3,4.4,12.3,5.1,19.9,7.7c0-20.8,0-38.5,0-57.8c14.4,0,29.9,0,45.4,0C970.8,450.3,970.8,460.4,970.8,470.4z"></path> <path style="fill:#FFFFFF;" d="M359.7,569.3c-27,36.7-65.9,31.7-93.3,8.6c-15.7-13.3-17.4-33-5.2-53.4c7.3-12.1,16.1-23.3,23.6-35.3 c14.2-23,25.8-47,30.4-74.1c3.3-19.7,14.4-27.6,34.8-27.6c32.3,0.1,51.6,14.2,58.7,42.4c-15.6,6-31.2,11.9-49.4,18.9 c-0.1-0.3-1.3-3.8-3.4-10.1c-7.3,10.8-12.5,17.2-16.1,24.3c-9.6,19.1-18.4,38.6-27.5,58c-0.8,1.7-2.1,3.4-2,5 c0.4,6.5,1.4,12.9,2.1,19.4c5.8-1.7,13-1.9,17.2-5.5c9.3-7.8,17.1-17.2,26-26.6c3.3,3,7.7,6.8,13.1,11.6 c-8.3,10.4-16.4,20.6-25,31.4C349.2,561,354.1,564.9,359.7,569.3z M385.4,411.8c-11.4-14.4-20.4-14-30.1,0 C366.6,411.8,376,411.8,385.4,411.8z"></path> <path style="fill:#FFFFFF;" d="M235.6,463.9c8,0,16.2-1.1,23.9,0.4c5.8,1.1,11,5.5,16.5,8.4c-4,5.6-6.9,12.9-12.3,16.3 c-4.8,3.1-12.4,2.5-18.8,2.5c-10.4,0-12.3,3.4-11.7,14.2c1.1,22.9,0.8,46.2-2.1,69c-1.7,13.5-12.1,23.4-27.4,25.2 c-10.9,1.3-18.5-3.5-19.6-14.3c-0.9-8.8-0.8-18.5,1.8-26.8c10.2-32,11.8-64.6,8.1-97.5c-5.4-47.9,28.5-78.3,76.1-67.7 c16.2,3.6,28.2,16.1,28.3,29.4c0.1,13.8-12,27.8-27.9,31.3c-7.6,1.7-15.5,1.9-23.2,2.9c-4.1,0.5-8.2,1.3-12.3,2 C235.2,460.8,235.4,462.3,235.6,463.9z M271.9,406.7c-4.6,5.2-7.4,8.3-10.2,11.5c4.1,3.5,7.9,9.3,12.5,9.9c3.4,0.5,7.8-5.5,11.8-8.6 C281.9,415.9,277.9,412.2,271.9,406.7z"></path> <path style="fill:#FFFFFF;" d="M353.5,555.2c5.5-6.7,10.4-12.6,14.3-17.3c13.1,2.6,25.2,5.7,37.5,6.8c2,0.2,4.8-8.6,7.5-13.7 c-11.7-3-22-4.8-31.7-8.3c-16.1-5.8-25.8-17.8-27-34.7c-1.1-15.7,4.9-29.2,19.6-36.4c10.5-5.2,21.9-10.1,33.3-11.5 c16.3-1.9,33.1-0.5,52-0.5c-3.7,11.9,4.8,22.8-7,35.1c-6.7,6.9-3,23.6-4.2,35.8c-0.5,4.5-1.5,9-2.4,13.4 C435.4,572.6,402.3,586.4,353.5,555.2z M414.2,502.2c0-9.2,0.8-17.5-0.4-25.4c-0.5-2.9-6-7.4-8.9-7.1c-11,1-15.9,8.5-15,19 C390.8,499.9,398.2,503.9,414.2,502.2z"></path> <path style="fill:#FFFFFF;" d="M797.6,440.2c0,12.6,0,25.4,0,42.1c7-5.7,9.9-8.2,10.3-8.4c0-12.9,0-23,0-34.3c14.3,0,29.7,0,44.5,0 c11.1,24.2-10.7,36.9-18.7,54.6c7.2,8,8.4,22.4,24.9,20.1c0,9,0,17.5,0,27c-15.5,0-31.2,0-48.8,0c0.7-9.4,1.4-18,2.3-29.4 c-0.1-0.1-3.1-2.9-7-6.5c-3.3,2.8-6.6,5.6-7.3,6.2c0.7,11.6,1.3,20.4,2,30.3c-17.6,0-33.4,0-49.9,0c0-9.2,0-17.7,0-26.1 c21.1-3.8,27.2-18.1,13.8-34.7c-9.5-11.8-19.5-22.6-12.5-40.9C765.5,440.2,781.5,440.2,797.6,440.2z"></path> <path style="fill:#FFFFFF;" d="M693,468c-8.4,0.9-17,1.1-25.2,2.8c-24.3,5-24.3,5.3-34.6-19.5c27.5-13.9,55.9-16.7,84.5-5.3 c5.8,2.3,10.4,11.9,12,18.9c2.3,9.6,0.7,20,1.8,29.9c0.7,6.2-2.3,12.8,7.4,18c4.6,2.5,2.1,18.3,2.8,29.5c-27.7,0.1-53.7,3.2-79-5.9 c-17.1-6.2-25.5-16.5-25.1-30.4c0.4-13.5,9.8-24.2,26.8-28.9c9.4-2.6,19.2-3.6,28.8-5.3C693.2,470.5,693.1,469.3,693,468z M696.7,489.2c-9.4,3.8-17,6.5-24,10.3c-1.1,0.6-0.1,9,1.1,9.3c7.8,2.1,15.9,2.9,25,4.4C698.1,504.3,697.6,498.6,696.7,489.2z"></path> <path style="fill:#FFFFFF;" d="M570.3,545.5c-28-3.2-53.5-4.5-78.4-9.4c-17.8-3.5-26-15.6-25.9-29.4c0.1-14,9.8-25.1,27.5-29.9 c9.2-2.5,18.9-3.3,31.4-5.4c-4.7-1.8-7.1-3.7-9.4-3.5c-6.8,0.6-13.7,1.6-20.4,3.1c-23.8,5.5-23.8,5.6-32.5-18.3 c17.5-14.3,67.2-18.8,85.1-6.4c5.2,3.6,9,11.2,10.3,17.6c2.1,9.7,1,20,2.2,30c0.8,6.6-3,13.8,7.4,19.2 C572,515.3,569.5,530.8,570.3,545.5z M525.5,489c-9.8,4-17.4,6.6-24.4,10.4c-1.1,0.6-0.1,9,1.2,9.3c7.7,2.1,15.8,2.9,24.9,4.3 C526.6,504.6,526.2,499.3,525.5,489z"></path> <path style="fill:#FFFFFF;" d="M575.4,439.5c0.3-5.5,0.7-14.5,1.2-24c18.1,0,34.9,0,53.5,0c-2.2,11.4,6.4,23.7-7.3,33 c-2,1.4-0.6,7.8-0.6,11.9c0,11.9-0.4,23.8,0.2,35.6c0.3,5.9-2,11.5,5.8,17.4c4.9,3.8,2,17.7,2.6,28c-18.3,0-35,0-52.2,0 c-0.8-8.3-2.7-16.1-2-23.5c0.5-4.6,7-8.6,7.4-13.2c1.4-17.3,1.9-34.7,1.6-52C585.3,449.1,580.1,445.5,575.4,439.5z"></path> </svg> 