<?xml version="1.0" encoding="UTF-8"?> <svg xmlns="http://www.w3.org/2000/svg" xmlns:xlink="http://www.w3.org/1999/xlink" version="1.1" id="Layer_1" x="0px" y="0px" viewBox="0 0 1000 1000" style="enable-background:new 0 0 1000 1000;" xml:space="preserve"> <path style="fill:#FFFFFF;" d="M526,83.3c11.5,1.5,23,3.1,34.5,4.4c69.9,8,132.8,34,189.6,74.7c90.3,64.7,146.4,152.4,166.8,261 c20.9,111.5-1.2,215.6-65.1,309.8c-59.9,88.3-142.4,146.3-246.2,170.9C436.3,944.2,264.8,880,164.4,736.7c-4.6-6.5-4.5-11-0.4-17.8 c51.8-85.9,103.2-172,155-257.9c8.7-14.4,18.6-28,28.1-41.8c0.7-1,2.6-1.1,6.4-2.6c0,5.7-0.1,10.1,0,14.4c1.2,67.3,5,134.5,16.6,201 c5.5,31.3,14,61.7,30.4,89.5c29.9,50.7,86.1,60.8,131.3,22.9c32.7-27.4,56.6-62.2,77.1-98.8c28.8-51.4,55.3-104.2,82.8-156.5 c1.8-3.4,3.6-6.7,6.6-12.2c2.3,4,4,6.3,5.1,8.8c21.6,49.3,46.2,96.9,83.2,136.8c5.9,6.3,11.8,12.9,18.8,17.7 c3.6,2.5,9.7,1.2,14.6,1.7c-0.1-4.9,1.9-11.2-0.5-14.4c-40.2-53.5-57.3-115.7-69.1-179.9c-4.6-24.9-6.7-50.3-9.8-75.5 c-2.1-17.7-14.4-32.1-30.2-34.7c-18.5-3.1-33.5,5.3-41.9,22.9c-31.7,66.5-61.7,134-95.8,199.2c-20.4,38.9-47.1,74.5-71.6,111.2 c-4.7,7-12.1,12.2-18.4,18c-6.7,6.2-13.3,6.1-16.6-2.8c-8-21.4-18.1-42.6-22.1-64.9c-14.5-80.1-16.7-161.3-13.7-242.4 c1.9-52,6.7-103.9,10.3-155.9c1.1-15.6,0.3-30.6-11.7-42.6c-18.9-18.9-48-13-60.7,11.6c-24.3,47.2-47.7,95-74,141.1 c-55,96.4-116.1,188.9-179.4,280.1c-1.3,1.9-2.8,3.6-6.3,8.1c-3.6-13.5-7.6-24.7-9.5-36.1c-3.2-18.5-5-37.2-7.5-55.9 c-0.5-3.4-1.5-6.8-2.2-10.2c0-10.2,0-20.4,0-30.6c0.8-5.8,1.8-11.6,2.2-17.4c7.3-97.9,43.6-183.4,111.2-255 c64.1-68,142.2-110.4,234.6-125.8c16.8-2.8,33.9-4.6,50.8-6.9C500.8,83.3,513.4,83.3,526,83.3z"></path> </svg> 