<?xml version="1.0" encoding="UTF-8"?> <svg xmlns="http://www.w3.org/2000/svg" xmlns:xlink="http://www.w3.org/1999/xlink" version="1.1" id="Layer_1" x="0px" y="0px" viewBox="0 0 1000 1000" style="enable-background:new 0 0 1000 1000;" xml:space="preserve"> <path style="fill:#FFFFFF;" d="M573.1,838.8c-38.9-28.9-77.9-57.9-118.9-88.4c41.1-29.7,80.2-57.8,122.1-88.1 c0,61.7,0,119.1,0,176.5C575.2,838.8,574.2,838.8,573.1,838.8z"></path> <path style="fill:#FFFFFF;" d="M595.2,838.8c-1.1-15-3-30.1-3.2-45.1c-0.5-39-0.2-78.1-0.2-121c23.8,36,46.2,70,68,103.1 c-21,21.5-41.3,42.3-61.5,63C597.3,838.8,596.2,838.8,595.2,838.8z"></path> <path style="fill:#FFFFFF;" d="M439.9,733.8c-10.6-55.1-21.1-110.1-32.1-167.1c39.4-3.1,76.8-6.1,118-9.4 c-28.3,60.9-55.3,118.8-82.2,176.7C442.4,734,441.1,733.9,439.9,733.8z"></path> <path style="fill:#FFFFFF;" d="M727.7,632.5c-54.9-31.8-109.8-63.7-167.7-97.3c25.5-22.1,49.2-42.8,74.5-64.8 c33,53.6,64.9,105.6,96.9,157.6C730.2,629.5,729,631,727.7,632.5z"></path> <path style="fill:#FFFFFF;" d="M509.3,345c-29.1,7.9-57.3,15.6-88.2,24.1c2.9-57.2,5.6-112.2,8.5-169.6 C473.5,240.1,497.1,288.3,509.3,345z"></path> <path style="fill:#FFFFFF;" d="M660.3,759.1c-23.2-35.5-44.6-68.3-68.5-105.1c50.8,0,98,0,147.5,0 C713.7,688.1,687.8,722.4,660.3,759.1z"></path> <path style="fill:#FFFFFF;" d="M262.3,514.8c42-49.6,81.5-96.2,121-142.9c1.2,0.7,2.4,1.4,3.6,2c-4,25.1-8,50.1-12.1,75.2 c-3.2,19.1-7,38-9.6,57.2c-1.3,9.5-4.2,13.6-14.8,12.8C322.3,517.1,294.2,516.3,262.3,514.8z"></path> <path style="fill:#FFFFFF;" d="M511.8,434.9c-38.1,34.2-73.8,66.2-109.5,98.2c-1.2-0.5-2.4-1-3.7-1.5c7.3-49,14.7-98.1,22.5-150 C452.1,399.8,480.7,416.6,511.8,434.9z"></path> <path style="fill:#FFFFFF;" d="M397.2,351.6c-29-22.3-55.3-42.5-83.1-63.9c31.1-35.1,61.2-69,91.2-103c1.3,0.3,2.6,0.6,3.9,0.9 C405.3,239.8,401.4,293.9,397.2,351.6z"></path> <path style="fill:#FFFFFF;" d="M562.6,547.7c54,30.2,108.1,60.3,166.2,92.8c-8.2,1.5-11.5,2.6-14.8,2.7 c-38.2,1.5-76.5,3.1-114.7,4.1c-4.2,0.1-11.3-2.7-12.3-5.7c-9.8-30.2-18.7-60.6-27.8-91C560.4,549.6,561.5,548.7,562.6,547.7z"></path> <path style="fill:#FFFFFF;" d="M653.2,476.3c36.7,16.4,73.5,32.6,109.9,49.6c3.2,1.5,6.3,8.5,5.6,12.1c-6.2,31.6-13.3,63-21.2,99.4 c-34-55.2-65.8-106.7-97.5-158.2C651.1,478.3,652.1,477.3,653.2,476.3z"></path> <path style="fill:#FFFFFF;" d="M544.5,552.3c8.1,29.6,16.4,59.2,24,88.9c0.8,3.1-1.1,8.7-3.6,10.7c-33.8,26.5-67.9,52.6-102.1,78.7 c-0.9,0.7-2.8,0.2-6.6,0.5c28.1-60.7,55.6-120,83.1-179.3C541,552,542.7,552.1,544.5,552.3z"></path> <path style="fill:#FFFFFF;" d="M757.2,632.3c8.1-30.7,16.1-61.5,24.6-92.2c0.7-2.5,5.2-5.7,7.9-5.7c39.7,0.7,79.3,1.9,119,3 c0.6,1.5,1.2,2.9,1.8,4.4c-50,31-100,62.1-150.1,93.1C759.3,634.1,758.3,633.2,757.2,632.3z"></path> <path style="fill:#FFFFFF;" d="M541.3,436.5c48.3-7.3,94.6-14.2,140.8-21.2c0.6,1.3,1.3,2.5,1.9,3.8c-43,35-86,69.9-131.9,107.2 C548.2,494.8,544.9,466.8,541.3,436.5z"></path> <path style="fill:#FFFFFF;" d="M445.4,190.2c13.8,4.2,27.7,8.3,41.4,12.7c34.8,11.2,69.4,23,104.4,33.6c10.3,3.1,14.4,7.9,14.3,18.6 c-0.1,10.3,1.9,20.6,3.2,33.8c-8.1-2.3-14.3-4-20.5-5.8c-21-6.3-41.6-14.9-63.1-18.5c-43.3-7.2-55-47-82.4-70.5 C443.6,192.7,444.5,191.5,445.4,190.2z"></path> <path style="fill:#FFFFFF;" d="M628.9,244.5c28.6,1.4,54.7,2.7,82.4,4c6.1,31.1,12.1,61.7,18.8,95.8c-7.7-3-12.8-4.7-17.6-6.9 c-24.3-11.2-48.7-22.2-72.6-34.1c-4.6-2.3-10-8.1-10.4-12.7C628.1,276.1,628.9,261.4,628.9,244.5z"></path> <path style="fill:#FFFFFF;" d="M393.5,594.4c9.6,51.3,19.2,102.7,29.4,157.5c-30.8-13.9-58.5-26.5-88.6-40.1 c18.7-39.9,36.9-78.8,55.1-117.8C390.9,594.2,392.2,594.3,393.5,594.4z"></path> <path style="fill:#FFFFFF;" d="M279.7,541.4c31.6,1.6,60.8,3.1,93.1,4.7c-21,44.5-41.1,87.1-61.2,129.7c-1.2-0.1-2.4-0.2-3.6-0.3 C298.8,631.9,289.5,588.2,279.7,541.4z"></path> <path style="fill:#FFFFFF;" d="M272.2,299.8c-18.8-35.9-35.9-68.5-54.1-103.1c35.8-8.8,70-17.2,108.8-26.7 C308,214.7,290.8,255.5,272.2,299.8z"></path> <path style="fill:#FFFFFF;" d="M543.2,535.8c-40.2,2.4-78.5,4.6-116.8,6.9c-0.8-1.4-1.6-2.7-2.3-4.1c36-32.4,72.1-64.7,110.9-99.6 C537.8,473.4,540.4,503.8,543.2,535.8z"></path> <path style="fill:#FFFFFF;" d="M270.9,439.3c-12.1-36.5-24.5-73.9-38.4-115.9c40,15.3,76.2,29.2,111.8,42.8 C319.9,390.4,295.8,414.4,270.9,439.3z"></path> <path style="fill:#FFFFFF;" d="M783.7,526.8c13.3-28.1,24.4-51.5,37.1-78.1c32.4,26.3,63.3,51.4,96.2,78.1 C871.1,526.8,829.7,526.8,783.7,526.8z"></path> <path style="fill:#FFFFFF;" d="M813,443.5c-13.2,24.3-25.6,47.2-39.6,73c-21.8-37-42.2-71.6-62.8-106.7 C753.6,397.2,780.6,424.6,813,443.5z"></path> <path style="fill:#FFFFFF;" d="M775.4,631.1c49.4-29.7,98.8-59.4,151.2-90.8c-2.2,17.1-1.3,31.5-6.2,43.6 c-7.3,18-16.2,34.6-41.4,36.4c-34.2,2.5-68.1,9.9-102.1,15.2C776.3,634.1,775.9,632.6,775.4,631.1z"></path> <path style="fill:#FFFFFF;" d="M474.1,136.2c43.2,7.4,86.3,14.8,130.8,22.5c1.2,21.7,2.4,43,3.8,68.6 c-47.3-30.3-91.7-58.7-136.2-87.1C473.1,138.9,473.6,137.6,474.1,136.2z"></path> <path style="fill:#FFFFFF;" d="M740.9,355.1c-6.2-32.1-12.3-63.7-19.1-98.8c33.1,35.7,63.8,69,91.4,98.8 C795.2,355.1,769.1,355.1,740.9,355.1z"></path> <path style="fill:#FFFFFF;" d="M767.9,646.1c42-6.9,84.1-13.8,127.8-20.9c0,21.4,0,41.3,0,64c-42.9-13.4-85.4-26.6-127.9-39.9 C767.9,648.3,767.9,647.2,767.9,646.1z"></path> <path style="fill:#FFFFFF;" d="M700.8,413.8c20.7,33.8,40,65.2,59.2,96.6c-0.9,1.1-1.8,2.1-2.7,3.2c-36.8-16.4-73.5-32.9-113.4-50.7 C663.4,445.9,681.2,430.6,700.8,413.8z"></path> <path style="fill:#FFFFFF;" d="M351.2,144.8c22-6.3,44-12.8,66.1-18.5c3.4-0.9,8.3,0.8,11.6,2.9c32.1,19.9,63.9,40.1,95.8,60.3 c1.6,1,2.6,2.9,7,8c-63.1-17-121.9-32.8-180.8-48.7C350.9,147.5,351,146.2,351.2,144.8z"></path> <path style="fill:#FFFFFF;" d="M932,455.3c-33.4-5.5-66.8-10.9-100.1-17c-2.9-0.5-7.2-6.3-6.9-9.3c1.7-19.5,4.4-39,7.2-62.3 c35.4,29.7,68.4,57.3,101.3,84.9C933.1,452.8,932.6,454.1,932,455.3z"></path> <path style="fill:#FFFFFF;" d="M557.4,346.4c20.6-13.1,41.1-26.3,61.8-39.3c1.9-1.2,5.4-1.3,7.5-0.4c29.4,13,58.6,26.2,86.9,42.6 c-51.5,0-102.9,0-154.4,0C558.6,348.4,558,347.4,557.4,346.4z"></path> <path style="fill:#FFFFFF;" d="M642.8,365.8c-32.8,19.5-65.6,39.1-100.9,60.1c0-25.7,0-47.4,0-71c34,2.4,67,4.7,100,7 C642.2,363.2,642.5,364.5,642.8,365.8z"></path> <path style="fill:#FFFFFF;" d="M746.8,654.9c6.6,19.5,11.7,33.7,16.3,48c4.1,13.2-5.9,19.8-14.5,24.6c-24.6,13.7-50,25.9-75.1,38.7 c-1.2-1-2.5-2-3.7-2.9C694.5,728.4,719.3,693.5,746.8,654.9z"></path> <path style="fill:#FFFFFF;" d="M524,351.3c-7.5-26.7-14.2-50.8-22-78.6c34.6,10.4,66.2,19.9,102.2,30.7 C575.7,320.4,550.9,335.2,524,351.3z"></path> <path style="fill:#FFFFFF;" d="M434.1,750.8c33.2,26.5,62.9,50.1,92.5,73.7c-0.6,1.3-1.3,2.6-1.9,3.9c-26.8,1.5-53.6,2.9-82.3,4.5 C439.7,806.6,437.2,781.1,434.1,750.8z"></path> <path style="fill:#FFFFFF;" d="M946.8,469.3c-6.2,19.4-11.6,36.5-18,56.5c-30.8-25.7-59.6-49.8-88.5-73.9c0.7-1.3,1.4-2.6,2-4 C876.3,454.8,910.2,461.8,946.8,469.3z"></path> <path style="fill:#FFFFFF;" d="M131.9,600.7c35.8-18.4,68.6-35.2,101.4-52c0.9,0.9,1.9,1.9,2.8,2.8c-19.1,28.1-38.1,56.2-58.1,85.6 C162.6,625,148.5,613.8,131.9,600.7z"></path> <path style="fill:#FFFFFF;" d="M61.5,597.7c1.4-20.5,2.6-41.1,4.5-61.5c0.2-2.2,3.8-5.5,6-5.8c24.7-2.4,49.4-4.2,74.1-6.2 c0.6,1.2,1.2,2.5,1.9,3.7c-27.6,23.8-55.1,47.7-82.7,71.5C64,598.8,62.8,598.2,61.5,597.7z"></path> <path style="fill:#FFFFFF;" d="M691.6,404.1c-41,6.7-82,13.5-123,20.2c-0.5-1.3-1-2.6-1.5-3.9c20.4-12.2,40.8-24.4,61.2-36.5 c28.8-17.1,28.7-16.9,53.6,6c3.8,3.5,8.9,5.6,13.4,8.3C694,400.2,692.8,402.2,691.6,404.1z"></path> <path style="fill:#FFFFFF;" d="M755.5,655.4c42.5,12.9,80.6,24.4,118.8,36c-0.1,1.3-0.1,2.6-0.2,4c-32.1,3-64.3,6.2-96.5,8.7 c-2.3,0.2-6.1-3.5-7.1-6.2C765.6,685.3,761.5,672.5,755.5,655.4z"></path> <path style="fill:#FFFFFF;" d="M450.9,381.4c24.1-6.3,48.2-12.6,73.6-19.2c0,21,0,40.3,0,63.4c-25.8-14-50.1-27.2-74.4-40.4 C450.3,383.9,450.6,382.6,450.9,381.4z"></path> <path style="fill:#FFFFFF;" d="M752.2,363.2c26.6,0,49.4,0,73.3,0c-3.9,22.2-7.6,43.1-12,68.3C791.8,407.4,772.9,386.3,752.2,363.2z "></path> <path style="fill:#FFFFFF;" d="M624.1,180.6c29.9,20.5,56.7,38.8,83.5,57.2c-0.1,1-0.2,2.1-0.4,3.1c-4.6,0-9.2,0.3-13.8-0.1 c-18.2-1.5-36.4-2.7-54.5-5.2c-4.1-0.6-10.2-5.6-10.8-9.3C625.9,212.8,625.5,198.8,624.1,180.6z"></path> <path style="fill:#FFFFFF;" d="M110.4,382.8c2.3-17.8,4.3-33.5,6.9-53.8c24.9,22.4,46.9,42.2,68.9,61.9c-0.7,1.3-1.4,2.6-2.1,3.9 C160.3,390.9,136.5,387,110.4,382.8z"></path> <path style="fill:#FFFFFF;" d="M289.8,761.7c23.3,0,42.9,0,67,0c-18.7,21.9-35.1,41.2-53.9,63.2 C298.1,801.8,294.1,782.3,289.8,761.7z"></path> <path style="fill:#FFFFFF;" d="M144.8,293.5c-1.7-20.3-3.1-38.3-5-60.5c26.5,18.1,49.4,33.9,72.4,49.7c-0.1,1.3-0.3,2.6-0.4,3.9 C190.2,288.8,168.5,291,144.8,293.5z"></path> <path style="fill:#FFFFFF;" d="M187.6,197.6c-19.4,4.5-38.8,8.9-59.4,13.6c-6-18.7-11.5-35.9-17-53.1c0.8-1,1.7-2,2.5-3 c24.7,12.9,49.4,25.9,74.2,38.8C187.8,195.1,187.7,196.3,187.6,197.6z"></path> <path style="fill:#FFFFFF;" d="M218.7,614c19,9.7,35.5,18.1,56.3,28.7c-27.4,9.9-50.8,18.3-78.8,28.4 C204.6,649.9,211.2,633,218.7,614z"></path> <path style="fill:#FFFFFF;" d="M156.5,740.8c9.4-12,18.7-24,29.2-37.4c11.7,8.9,22.2,16.9,36,27.3c-23.4,4.9-43.2,9-62.9,13.1 C158,742.9,157.3,741.8,156.5,740.8z"></path> <path style="fill:#FFFFFF;" d="M156.1,479.6c7.4-6.4,14.5-13.4,22.5-18.8c3.2-2.1,9.8-2.6,13-0.7c10.2,6.1,19.5,13.7,32.3,23 c-23.9,0-44.2,0-64.4,0C158.4,481.9,157.2,480.8,156.1,479.6z"></path> <path style="fill:#FFFFFF;" d="M285.3,133.6c-24.5-2.5-45-4.6-65.9-6.7C235.1,97.5,250.4,98.5,285.3,133.6z"></path> </svg> 