<?xml version="1.0" encoding="UTF-8"?> <svg xmlns="http://www.w3.org/2000/svg" xmlns:xlink="http://www.w3.org/1999/xlink" version="1.1" id="Layer_1" x="0px" y="0px" viewBox="0 0 1000 1000" style="enable-background:new 0 0 1000 1000;" xml:space="preserve"> <path style="fill:#FFFFFF;" d="M8.1,548.6c0-33.2,0-66.4,0-99.6c327.7,0,655.5,0,983.2,0c0,33.2,0,66.4,0,99.6 C663.6,548.6,335.9,548.6,8.1,548.6z M481.8,529.9c0-12.5,0-24.9,0-37.6c0.6,0.7,1,1.2,1.3,1.6c9.1,11.7,18.2,23.4,27.3,35 c0.6,0.8,1.2,1.1,2.1,1.1c3.8-0.1,7.5,0,11.3,0c1.1,0,2.3,0,3.4,0c0-20.8,0-41.3,0-61.9c-5.4,0-10.6,0-16,0c0,12.5,0,24.8,0,37.6 c-0.7-0.9-1.2-1.6-1.7-2.2c-9-11.5-17.9-23-26.9-34.5c-0.4-0.5-1.3-0.9-2-1c-4.1-0.1-8.2,0-12.4,0c-0.8,0-1.6,0-2.4,0 c0,20.7,0,41.3,0,61.9C471.1,529.9,476.3,529.9,481.8,529.9z M65.9,531.3c1.9-0.3,5.7-0.6,9.2-1.7c12.5-3.7,20.4-12.1,22.6-24.9 c2.2-12.3-1.6-22.9-11.6-30.7c-9.5-7.4-20.6-8.8-32-5.8c-11.8,3-19.8,10.4-23.1,22.3c-3.2,11.9-0.5,22.5,8.2,31.3 C46,528.5,54.6,531,65.9,531.3z M827.5,483.7c-3.4-6.5-7.8-11.6-14.5-14.4c-5.3-2.2-10.8-2.8-16.4-2.4c-7.8,0.6-15,3-20.7,8.6 c-7.9,7.8-10.8,17.4-9.3,28.1c1.5,11.4,7.6,19.6,18.2,24.3c5.5,2.4,11.5,2.9,17.4,2.5c8.8-0.6,16.2-4.1,21.7-11.1 c4.2-5.3,5.9-11.4,6.5-18c0.2-2.2,0.2-4.3,0.4-6.6c-10.8,0-21.4,0-32,0c0,4.2,0,8.3,0,12.5c2.2,0,4.3,0,6.4,0c2.2,0,4.3,0,6.6,0 c-0.7,4-2.7,6.7-6.2,8.4c-5.2,2.6-12.5,1.5-16.8-2.4c-7.7-7-8-21-0.6-28.4c6-6,16-5.6,21.3,0.8c1,1.2,1.8,2.6,2.7,4.1 C817.3,487.9,822.3,485.8,827.5,483.7z M642,506.9c0.1,0,0.2,0,0.3-0.1c0.3,0.5,0.7,1,1,1.5c4.4,6.9,8.8,13.7,13.2,20.6 c0.5,0.8,1,1.1,1.9,1.1c5.8,0,11.7,0,17.5,0c0.4,0,0.7-0.1,1.2-0.1c-6.4-8.4-12.8-16.7-19.2-25.1c0.6-0.2,1.1-0.3,1.6-0.5 c4.5-1.4,8.1-4,10-8.4c3-7.1,2.4-14-1.9-20.3c-3.5-5.3-8.9-7.3-15.1-7.4c-8.5-0.1-17,0-25.5,0c-0.3,0-0.7,0.1-1,0.1 c0,20.6,0,41.2,0,61.8c5.4,0,10.6,0,16,0C642,522.2,642,514.5,642,506.9z M209.9,509.5c4.3,0,8.4,0.1,12.6,0 c8.9-0.2,15.9-5.6,17.7-13.8c0.7-3.4,0.6-7,0.6-10.4c-0.1-3.4-1.3-6.5-3.3-9.2c-4.1-5.4-9.6-7.9-16.3-8c-8.7-0.1-17.4,0-26.1-0.1 c-0.3,0-0.7,0-1.1,0.1c0,20.7,0,41.2,0,61.8c5.3,0,10.6,0,16,0C209.9,523.2,209.9,516.5,209.9,509.5z M923.7,524.2 c0.3,0.2,0.5,0.4,0.7,0.5c7.5,5.1,15.7,7.2,24.7,6.4c11.9-1.1,18.9-7.7,20.3-19c1-8.4-2.4-14.6-10.2-17.9c-2.8-1.2-5.8-1.9-8.7-2.9 c-1.8-0.6-3.7-1.2-5.4-2.2c-2.4-1.3-2.7-4.2-1-6.3c1.3-1.5,2.9-2.2,4.9-2.4c3.9-0.3,7.2,1,10.3,3.1c0.4,0.3,0.9,0.6,1.4,0.9 c2.2-4.3,4.3-8.3,6.4-12.5c-0.4-0.2-0.7-0.4-0.9-0.5c-6.2-3-12.7-4.7-19.6-4.5c-11.3,0.3-19.1,7.3-20.2,18.5 c-0.9,9.3,2.3,14.7,11.1,17.7c2.8,0.9,5.7,1.7,8.5,2.7c1.6,0.5,3.2,1.2,4.6,2.1c2.5,1.6,2.9,4.7,1.1,7.1c-1.2,1.6-3,2.3-4.9,2.6 c-4.3,0.5-8.3-0.7-11.9-3c-1.4-0.9-2.8-2-4.2-3C928.3,515.6,926,519.9,923.7,524.2z M334.9,468.1c0,20.7,0,41.3,0,61.8 c11.8,0,23.4,0,35,0c0-4.5,0-9,0-13.6c-6.4,0-12.7,0-19,0c0-3.6,0-7,0-10.6c6,0,12,0,17.9,0c0-4.6,0-9.1,0-13.7c-6,0-12,0-17.9,0 c0-3.5,0-6.8,0-10.4c6.4,0,12.7,0,19,0c0-4.6,0-9.1,0-13.6C358.2,468.1,346.6,468.1,334.9,468.1z"></path> <path style="fill:#FFFFFF;" d="M46.5,499.4c-0.1-12.3,12.4-20.3,24.3-15.6c7.5,2.9,11.8,10.3,10.6,17.9c-1.3,7.8-8,13.6-16.1,13.9 c-5.3,0.2-10-1.2-13.9-4.9C48.2,507.6,46.6,503.8,46.5,499.4z"></path> <path style="fill:#FFFFFF;" d="M642.1,480.6c2.7-0.1,5.4-0.2,8,0.8c2.9,1.1,4.6,3.7,4.6,6.8c0,3.2-1.6,5.8-4.6,6.7 c-2.5,0.7-5.2,0.9-8,1.4C642.1,490.7,642.1,485.7,642.1,480.6z"></path> <path style="fill:#FFFFFF;" d="M210,496.5c0-5.2,0-10.3,0-15.7c3,0.2,6,0.2,8.9,0.7c2.9,0.5,4.6,2.5,5,5.5c0.1,0.9,0.2,1.8,0.2,2.7 c-0.2,3.9-2.3,6.1-6.1,6.6c-0.9,0.1-1.8,0.2-2.7,0.2C213.6,496.5,211.9,496.5,210,496.5z"></path> </svg> 