<?xml version="1.0" encoding="UTF-8"?> <svg xmlns="http://www.w3.org/2000/svg" xmlns:xlink="http://www.w3.org/1999/xlink" version="1.1" id="Layer_1" x="0px" y="0px" viewBox="0 0 1000 1000" style="enable-background:new 0 0 1000 1000;" xml:space="preserve"> <path style="fill:#FFFFFF;" d="M116.1,164.7c44.9,0,89.3,0,134.3,0c0-4.1,0-7.6,0-11.2c-0.1-11.2,0.1-22.5-0.3-33.7 c-0.1-4.8,1.4-6.6,5.4-6c1.1,0.2,2.3,0,3.5,0c159.8,0,319.7,0,479.5,0c2.5,0,5,0,8.1,0c0,16.5,0,32.5,0,49.1c45.5,0,90.4,0,135.3,0 c0.3,1.2,0.7,1.9,0.7,2.6c0.8,45.2-1.8,90.1-12.4,133.9C847.6,392.8,798,462,725,510c-25.2,16.6-51.7,29.5-79.9,37.9 c-1.8,0.5-3.8,1.8-5,3.3c-21.9,26.7-47.4,48.3-72.5,70.6c-10.6,9.5-20.7,19.7-30,30.8c-11.9,14.1-17.4,31.8-17.6,51.3 c-0.3,25.7-0.1,51.4-0.1,77c0,0.7,0.2,1.5,0.3,2.6c7.7,1.8,15.6,3.3,23.3,5.4c16.6,4.6,32.6,11.1,45.7,24.2 c5.1,5,9.3,11.3,13.2,17.7c2,3.3,3.9,4.5,7.2,4.5c15-0.1,30-0.2,45,0c22.9,0.3,40.1,15.8,44.8,40.1c0.6,3.1,0.6,6.3,0.9,9.9 c-135.3,0-270,0-404.8,0c-1.7-20.5,13.2-42.9,32.3-48.2c4.6-1.3,9.5-1.7,14.3-1.7c14.6-0.2,29.3,0,44-0.2c1.9,0,4.7-0.8,5.5-2.3 c10.9-21.9,28.5-33.6,48.7-40.7c11.2-3.9,22.9-6.1,35.2-9.3c0-1.1,0-3.1,0-5.1c0-23.6-0.3-47.2,0.1-70.8c0.3-22.8-6-42.6-20.4-58 c-15.2-16.1-31.8-30.7-47.5-46.2c-17.2-17-34.1-34.5-51.3-51.6c-2-2-4.7-3.5-7.3-4.4c-68.6-23.6-126.8-65.1-171-130.4 c-31-45.8-49-97.9-57.3-154.8c-4.4-30.7-5.3-61.6-5-92.7C115.9,167.8,116,166.7,116.1,164.7z M296.3,164.6c0,2.5-0.1,4.3,0,6.2 c2,32.2,3.4,64.5,6.1,96.6c3.2,37.5,10.1,74.3,20,110.3c14.2,51.6,35.7,98.6,68.3,138.3c20.5,25,44.2,45.5,67.6,66.6 c12.1,11,23.1,23.4,34.5,35.4c2.4,2.5,4.3,5.6,6.7,8.9c14.1-20.8,31.5-36.4,49.1-51.6c9.3-8,18.4-16.3,27.5-24.7 c24.6-22.8,46.1-48.9,63.2-79.5c32.9-58.8,48-124.4,55.8-192.6c3.3-28.8,4.8-57.9,6.7-86.9c0.6-9,0.1-18,0.1-27.2 C566.7,164.6,431.9,164.6,296.3,164.6z M745,213.8c-5.5,90.1-18.4,177.5-54.7,258.6c49.2-28.5,87.9-69.1,113.7-124.9 c19.3-41.7,28.7-86.5,31.2-133.8C804.8,213.8,775.2,213.8,745,213.8z M307.3,473.3c-1.3-3.1-2.1-4.9-2.8-6.8 c-6.6-17.6-14.1-34.9-19.8-52.8c-19.6-61.9-28.3-126.4-32-191.8c-0.3-4.9-1.4-6.4-5.8-6.3c-26.6,0.2-53.3,0.1-79.9,0.1 c-1.6,0-3.2,0.2-4.8,0.3C165.8,315.1,209.4,416.4,307.3,473.3z"></path> <path style="fill:#FFFFFF;" d="M553.5,479.5c-36.2,0-72.5,0-110.7,0c20.2-19.9,39-39.2,45.2-67.5c-6.8,4.8-13,9.5-19.4,13.6 c-43.3,28.2-101.6,4.8-113.3-45.5c-5.3-22.9-1.2-44.1,15.7-60.9c16.6-16.6,33.8-32.8,52.3-47.3c26.6-20.9,53.4-41.4,75.2-68.7 c2.3,2,4.4,3.9,6.5,5.8c18.4,17.3,36.4,35.1,55.1,52c14,12.6,29.4,23.6,43.3,36.2c9.9,9,19.1,18.9,27.2,29.5 c19.8,26.1,17.8,60.5-4,85.1c-25.7,29.1-73,36.6-102.7,16c-5.6-3.9-10.3-9.1-15.4-13.8c7.2,27.1,23.7,47.5,46.2,63.7 C554.3,478.5,553.9,479,553.5,479.5z M453.2,276.8c-0.6,0.3-1.4,0.4-1.9,0.8c-13.7,11.1-27.8,21.8-40.9,33.6 c-7.5,6.7-13.9,14.7-19.9,22.8c-18.9,25.9-10.4,64.1,17.6,80.2c4.7,2.7,10,4.3,15.1,6.4c0.2-0.4,0.4-0.9,0.6-1.3 c-1.2-1.2-2.5-2.4-3.7-3.5c-28-26.6-31.1-61.2-7.9-92C424.6,307.1,437.6,291,453.2,276.8z"></path> </svg> 