<?xml version="1.0" encoding="UTF-8"?> <svg xmlns="http://www.w3.org/2000/svg" xmlns:xlink="http://www.w3.org/1999/xlink" version="1.1" id="Layer_1" x="0px" y="0px" viewBox="0 0 1000 1000" style="enable-background:new 0 0 1000 1000;" xml:space="preserve"> <path style="fill:#FFFFFF;" d="M810,396.9c7.1,1.6,10.6,4.7,10.5,13.3c-0.5,53.2-0.1,106.5-0.1,159.7c0,8.4-7.3,15.4-15.8,15.1 c-9-0.4-18.5-0.5-26.9-3.3c-4.7-1.5-8.2-7.8-11.3-12.5c-20.1-30.7-39.9-61.6-59.8-92.5c-3.4-5.2-6.8-10.5-10.3-15.6 c-0.5-0.7-1.6-0.9-4.5-2.3c0,9.1,0,16.8,0,24.6c0.1,29.8,0.3,59.6,0.4,89.4c0,8.4-5.1,13.5-13.5,12.5c-4.8-0.6-9.8-0.1-14.7-0.1 c-6.5-0.1-10.7-4.1-10.7-10.6c0-54,0-108,0-162c0-8.4,6.4-14.4,15-14.5c1.7,0,3.3-0.8,4.9-1.2c6.2,0,12.4,0,18.7,0 c3.4,2.3,7.6,3.9,9.9,7c6.3,8.6,11.9,17.9,17.7,26.9c19.3,29.7,38.5,59.4,57.8,89.1c0.7,1.1,2.4,1.7,4,2.9c0.4-1.9,0.6-2.6,0.6-3.4 c-0.1-35.5-0.4-71-0.2-106.5c0-5.3,2.2-10.6,3.4-16C793.5,396.9,801.7,396.9,810,396.9z"></path> <path style="fill:#FFFFFF;" d="M191.4,396.9c0.3,2.3,0.7,4.5,0.7,6.8c0,55.6,0,111.1,0,166.7c0,9.9-4.7,14.7-14.5,14.8 c-0.5,0-1,0-1.6,0c-28.6,0.1-28.2-0.1-43.3-24c-19.3-30.6-39.1-60.8-58.8-91.1c-2.5-3.9-5.1-7.8-7.7-11.7c-0.6,0.4-1.2,0.8-1.7,1.1 c0,11.2,0,22.4,0,33.6c0,28.6,0,57.1,0.3,85.7c0,4.8-1.4,6.5-6.1,6.5c-9.1-0.2-18.1-0.2-27.2,0c-4.7,0.1-6.2-1.6-6.2-6.4 c0.2-55.3,0.2-110.6,0-165.9c0-7.3,4.3-11.6,8.9-16.1c11.4,0,22.8,0,34.2,0c1.7,2.2,3.6,4.3,5.2,6.6c23,35.2,46,70.4,69,105.6 c2.9,4.5,5.9,9,8.9,13.5c0.7-0.2,1.3-0.5,2-0.7c0-10.6,0-21.2,0-31.8c0.1-31.1,0.3-62.1,0.4-93.2C166.6,396.9,179,396.9,191.4,396.9 z"></path> <path style="fill:#FFFFFF;" d="M334.4,396.9c-1.4,7.1-2.1,14.4-4.3,21.2c-4.9,15.4-5.1,15.2-21.7,15.2c-16.3,0-32.6,0.1-48.9,0 c-5.6-0.1-7.9,1.8-7.5,7.7c0.5,7.7,0.6,15.5,0,23.1c-0.5,6.6,1.9,8.7,8.2,8.6c16.1-0.2,32.1-0.1,48.2-0.1c2.7,0,5.4,0.3,8.4,0.5 c-2.3,9.3-4.4,17.6-6.5,26c-1.1,4.3-3.6,6.2-8.4,6c-14-0.3-28,0.1-41.9-0.2c-6-0.1-8.4,1.7-8.1,8c0.5,8.7,0.2,17.5,0.2,26.2 c0,10.5-0.1,10.5,10.8,10.5c22,0,44,0,66,0c2.7,0,5.5,0.3,8.8,0.5c-2.5,9.2-4.2,17.7-7.1,25.9c-2.1,5.8-6.5,9.4-13.6,9.4 c-32.4-0.2-64.7-0.1-97.1-0.1c-3.5,0-6.4,0.2-6.3-5.2c0.2-54.5,0.3-109.1,0-163.6c-0.1-9,2.3-15.4,10.4-19.6 C260.9,396.9,297.6,396.9,334.4,396.9z"></path> <path style="fill:#FFFFFF;" d="M628.2,396.9c4.9,5.2,4.4,10.5,1.3,16.7c-2.1,4.2-2.4,9.3-3.5,14c-1.1,4.9-3.9,6.4-8.9,6.3 c-19.4-0.3-38.8,0.1-58.2-0.3c-6.9-0.1-8.6,2.9-8.4,8.8c0.3,7.4,0.6,14.9,0.3,22.3c-0.3,5.9,2.1,7.8,7.7,7.7 c16-0.1,32.1,0.2,48.1-0.1c6.1-0.1,7.6,2.5,6.6,7.9C609,505,609,505.1,584,505.1c-8.8,0-17.6,0.1-26.4-0.1c-4.1-0.1-6.4,1.3-6.5,5.6 c-0.1,11-0.3,22.1-0.2,33.1c0,5.2,3.7,5.9,8.1,5.8c21.2-0.2,42.5-0.1,63.7-0.1c11,0,13.1,2.3,10,12.4c-2,6.6-4.7,13.1-8.2,19.1 c-1.3,2.2-5.4,4-8.3,4c-31.3,0.3-62.6,0.3-94-0.1c-5.5-0.1-10.1-3.1-10.1-9.8c0-24.4-1.1-48.9,0.4-73.3c0.9-14.6,5.8-29,9.3-43.4 c3.7-14.9,8.3-29.6,11.7-44.5c1.8-7.7,5.1-12.9,12.9-15c1.4-0.4,2.7-1.3,4-2C576.4,396.9,602.3,396.9,628.2,396.9z"></path> <path style="fill:#FFFFFF;" d="M985.7,396.9c6,2.7,8.6,5.9,6.5,13.7c-6,22.8-5.5,22.9-29.2,23.1c-6.5,0.1-12.9,0.3-19.4-0.2 c-6.2-0.4-8,2.1-8,8c0.1,42.9-0.1,85.9-0.3,128.8c0,10-4.6,14.5-14.6,14.6c-3.4,0.1-6.7,0-10.1,0.1c-9.6,0.1-12.7-2.7-12.8-12.6 c-0.2-32.1-0.2-64.3-0.1-96.4c0-12.1,0.2-24.1,0.4-36.2c0.1-6.4-4-6.7-8.8-6.7c-12.4,0.2-24.8-0.1-37.2,0.6c-7.9,0.5-9.9-4-10.6-10 c-0.5-4.3-0.5-8.7-0.4-13.1c0.2-7.8,4.8-12.1,12.8-12.1c39.1-0.2,78.2-0.4,117.2-0.7c2.8,0,5.5-0.7,8.3-1 C981.5,396.9,983.6,396.9,985.7,396.9z"></path> <path style="fill:#FFFFFF;" d="M500.7,396.9c0.5,1.4,1.6,3,1.3,4.2c-2.3,8.6-5,17.1-7.3,25.7c-1.3,4.7-3.5,6.5-8.8,6.3 c-11.9-0.5-23.8,0.1-35.7-0.2c-6.2-0.2-8.1,2.4-8.1,8.2c0.2,43.2,0.3,86.4,0.4,129.6c0,9.3-5,14.3-14.2,14.6 c-23.7,0.9-23.8,0.9-23.7-22.8c0.1-40.9,0.1-81.8,0.4-122.6c0-5.8-3-7-7.8-6.9c-13.5,0.1-26.9,0.1-40.4,0.1c-2.7,0-5.4-0.4-8.6-0.6 c2.1-8.2,4.1-15.6,5.8-22.9c1.5-6.4,5.9-10,11.5-12.4C410.6,396.9,455.7,396.9,500.7,396.9z"></path> </svg> 