<?xml version="1.0" encoding="UTF-8"?> <svg xmlns="http://www.w3.org/2000/svg" xmlns:xlink="http://www.w3.org/1999/xlink" version="1.1" id="Layer_1" x="0px" y="0px" viewBox="0 0 1000 1000" style="enable-background:new 0 0 1000 1000;" xml:space="preserve"> <path style="fill:#FFFFFF;" d="M941.7,639.1c0.3,0.3,0.6,0.6,1.3,1.2c-2.7,0.6-5.1,1.2-7.4,1.7c-5.2,1.1-10.4,2.2-15.6,3.4 c-0.7,0.2-1.4,0.6-1.8,1.1c-5.8,6.4-11.2,13.3-17.3,19.3c-14.4,14.3-31.1,25.2-49.8,33.3c-13.5,5.8-27.6,9.6-42,12.2 c-2.2,0.4-4.4,0.7-7.1,1.1c8.1,16.3,16.1,32.3,24.3,48.7c-1,0.1-1.6,0.2-2.2,0.2c-6.6,0-13.2,0-19.8,0c-1.5,0-2.5-0.3-3-1.9 c-0.7-2.2-2.3-3.5-4.3-4.4c-2.1-0.9-4-2.1-6.1-3c-1.7-0.7-2.7-1.9-3.4-3.6c-2.8-6.3-5.6-12.5-8.5-18.7c-0.2-0.4-0.4-0.8-1.1-1.1 c0,0.7,0,1.4,0,2.1c0,9.4,0,18.7,0,28.1c0,1.9-0.6,2.5-2.5,2.5c-5.8-0.1-11.6-0.1-17.3,0c-1.6,0-2.4-0.5-2.1-2.1 c0.3-1.5-0.5-2.2-1.8-2.9c-2.6-1.4-5-3.1-7.6-4.5c-1.2-0.7-1.5-1.5-1.5-2.8c0-11.4,0-22.7,0-34.1c0-0.8,0-1.5,0-2.6 c-15.1-2.1-29.7-5.8-44.4-11c-0.2,1.6-0.5,2.9-0.5,4.2c-0.1,5.4-0.3,10.8,0.1,16.1c0.3,4.5,1.2,9,1.8,13.4c0.3,2,1.5,2.1,3,1.5 c4.2-1.6,5.6-5.2,6.5-9.1c0.4-1.8,0.6-3.6,0.9-5.6c6,0,11.9,0,17.8,0c0.5,0,1,0.3,1.5,0.6c2.1,1.3,4.2,2.6,6.2,4 c1,0.6,2.3,0.9,2.2,2.6c0,0.2,1.3,0.4,1.9,0.8c0.6,0.3,1.5,0.9,1.5,1.3c-0.7,6.5-1.9,12.9-5.5,18.6c-4.4,6.9-10.7,10.8-18.6,12.2 c-7.7,1.3-15.4,1.2-22.7-1.9c-5.2-2.2-9-5.9-12.1-10.5c-1.9-2.8-4.4-5.1-6.3-7.8c-4.2-5.8-6-12.6-6.6-19.6c-0.7-7.6-0.7-15.3-0.9-23 c-0.1-3,0.5-6,0.7-9c0-0.5-0.1-1.2-0.4-1.4c-5.4-2.9-10.9-5.7-16.8-8.8c7.2,27.2,14.2,54,21.4,81.1c-0.9,0.1-1.5,0.2-2.1,0.3 c-6.2,0-12.4,0-18.6,0c-1.6,0-2.4-0.5-2.6-2.2c-0.3-2.6-1.6-4.5-3.6-6.3c-1.2-1.1-2.2-2.8-2.6-4.4c-1-3.3-1.5-6.7-2.2-10 c-0.3-1.4-1-2-2.4-1.9c-3.6,0.1-7.3,0.1-10.9,0c-1.6,0-2.3,0.6-2.6,2.2c-1.6,7-3.2,13.9-4.8,20.9c-0.3,1.1-0.6,1.7-1.9,1.7 c-6.5,0-12.9,0-19.4,0c-0.3,0-0.5-0.1-0.7-0.2c-0.1-0.2-0.3-0.4-0.2-0.4c1.4-3.1-0.2-5.4-1.9-7.6c-1.1-1.4-1.4-2.7-1-4.5 c3.7-14.6,7.4-29.3,11-44c3.8-15.4,7.5-30.7,11.2-45.9c-9.4-7.1-18.8-14-28-21.2c-8.9-7.1-17.6-14.5-26.2-22c-2.2-2-4.5-2.6-7.2-2.6 c-1.9,0-3.8,0-6,0c0-2.6,0.1-5.1-0.1-7.6c-0.1-0.9-0.5-2-1.2-2.6c-3.5-3.4-7.1-6.6-11-10.3c0,3.5,0.4,6.7-0.1,9.7 c-0.5,3.4-1.8,6.7-2.8,10c-0.1,0.3-0.7,0.6-1.1,0.7c-10.5,1.8-21,2.7-31.6,1.6c-15.8-1.6-30-6.9-42.1-17.3c-0.4-0.3-0.7-0.6-1.1-0.9 c-0.2-0.1-0.4-0.2-0.6-0.3c-5.4,4.9-10.7,9.8-16.1,14.8c-0.4,0.4-0.5,1.3-0.9,1.5c-1.4,1-2.9,1.9-4.2,2.9 c-10.8,8.8-21.3,18-32.3,26.5c-10.9,8.3-22.3,15.9-33.4,23.9c-0.5,0.3-0.8,1.4-0.6,1.9c6.8,27.2,13.6,54.3,20.5,81.4 c0.3,1.3,0.3,2.4-0.6,3.4c-0.5,0.6-1,1.3-1.5,2c-1.6,2-2.8,4.1-0.8,7c-1.4,0-2.1,0-2.8,0c-5.9,0-11.8-0.1-17.8,0.1 c-2.1,0.1-2.8-0.8-3.2-2.7c-1.4-6.6-3.1-13.1-4.5-19.7c-0.4-1.8-1.1-2.6-3-2.5c-3.2,0.1-6.5,0.1-9.7,0c-1.8-0.1-2.6,0.6-2.8,2.4 c-0.3,2.1-1,4.1-1.3,6.2c-0.5,3.9-2.1,7-5.2,9.6c-1.2,1-1.5,3.1-2.4,4.6c-0.4,0.7-1.1,1.9-1.6,1.9c-6.8,0.1-13.6,0.1-20.9,0.1 c6.3-24.5,12.6-48.8,19-73.5c-3.6,1.7-6.8,3.1-10,4.6c-13,5.8-26.3,10.6-40.1,14.2c-0.6,0.2-1.5,1-1.5,1.5c-0.1,8.9,0,17.9,0,26.8 c0,0.1,0.1,0.2,0.2,0.5c10.7,0,21.5,0,32.6,0c-0.4,3.3-1,6.4-1.1,9.5c-0.1,4.3-1.7,7.6-5.5,9.7c-2.1,1.1-3.4,2.9-3.3,5.5 c0,0.4-0.8,0.9-1.3,1.2c-0.3,0.2-0.8,0-1.2,0c-16.5,0-32.9,0-49.4,0c-2,0-2.6-0.5-2.6-2.5c0.1-14.5,0-28.9,0-43.4c0-0.8,0-1.6,0-2.6 c-1.3,0.2-2.3,0.3-3.2,0.4c0.3,3.4,0.9,6.7,0.9,10c0,10.7-4.3,18.9-13.9,24.2c-1,0.6-2,1.4-2.8,2.4c-5.5,6.8-12.7,10.5-21.2,11 c-11.7,0.6-23.5,0.4-35.3,0.6c-1.9,0-1.9-1.1-1.9-2.4c0-16.1,0-32.2,0.1-48.3c0-2-0.5-2.7-2.5-3.3c-22.4-6.1-42.8-16.1-60.9-30.7 c-18.9-15.1-33.7-33.6-45.4-54.7c-6.6-11.8-12.5-23.9-15.6-37.2c-1.7-7.3-3.2-14.7-4.2-22.1c-1.1-7.4-1.5-14.9-2.1-22.4 c-0.3-4.2-0.3-8.5-0.5-12.7c-0.1-2.2-0.4-4.5-0.4-6.7c0.2-7.9,0.2-15.8,0.9-23.7c1.2-15.3,3.4-30.5,8.7-45 c4.8-13.2,11.3-25.6,18.6-37.6c8.7-14,19-26.7,31.1-37.9c9.5-8.8,19.9-16.3,31.2-22.6c10.8-6.1,22.2-10.7,34.1-14.3 c1.7-0.5,3.3-1.1,5-1.5c0.6-0.1,1.2,0.3,2,0.5c0,0,0.2-0.3,0.6-1.2c-0.2,2.6-0.8,4.6-0.4,6.5c0.4,1.8-0.1,3.1-0.7,4.6 c-0.2,0.6,0.5,1.4,0.5,2.1c0.1,1.3,0.7,2.7-0.5,4c-0.2,0.2,0.2,1,0.1,1.4c-0.2,1.1-0.3,2.2-0.5,3.4c0.5-0.1,0.8-0.1,1.1-0.2 c0,1.7,0,3.4,0,5c-11.5,2.3-22.9,4.8-33.8,9.4c0.3,0.8,0.5,1.4,0.7,2.2c1.6-0.5,3.1-1.1,4.7-1.5c9-2.3,18-4.8,27.1-6.7 c5.5-1.1,11.2-1.3,16.8-1.8c3.8-0.3,7.6-0.8,11.4-0.8c4.6,0,9.3,0.4,13.9,0.8c3.1,0.2,6.2,0.5,9.3,0.8c4,0.5,8.1,0.8,12,1.7 c9,2,18.2,3.9,27,6.7c10.6,3.4,20.9,7.8,31.3,11.7c0.1,0,0.3,0,0.4,0c0.8-1.9-0.2-2.6-1.8-3.2c-9.3-3.5-18.4-7.6-27.9-10.6 c-9.3-3-18.9-5.1-28.4-7.5c-1.1-0.3-2.4-0.4-4.1-0.6c2.6-1.2-0.2-2.2,0.7-3.3c0.2,0.1,0.5,0.3,1,0.6c-0.2-0.8-0.1-1.9-0.4-1.9 c-1.4-0.4-0.3-1.3-0.5-1.7c-0.9-2.3,0.7-4.3,0-6.8c-0.7-2.4-1.1-5.5,0.5-8.1c0.1-0.2,0.1-0.6,0-0.8c-0.9-1.8-0.6-3.7-0.4-5.7 c0.1-0.9-0.3-1.8-0.6-2.8c0.7-0.2,1.2-0.3,1.7-0.4c-0.2-0.6-0.5-1.2-0.7-1.9c-0.2,0.2-0.4,0.5-0.3,0.4c-0.8-0.3-1.4-0.9-2.1-0.9 c-5.4-0.1-10.7,0-16.5,0c7.1-6.3,14.6-11.2,22.1-15c1.2,0.9,2,1.8,2.9,2.1c4.4,1.1,9,1.7,13.4,3c2.5,0.7,5,1,7.5,1.5 c1.3,0.3,2.5,0.4,3.6-0.8c2-2.2,4.1-4.3,6-6.5c0.5-0.5,0.6-1.5,0.7-2.2c0.1-2.8,0-5.6,0-8.8c-6,1.6-12,3.4-18,4.8 c-1.5,0.4-2.9,2.1-4.8,0.5c-0.3-0.3-1.6,0.5-2.4,0.9c-10.4,4.3-20,10-28.7,17.1c-0.8,0.7-1.7,1.3-2.5,2.1c-1.4,1.5-3.2,1.5-5,1.6 c-6.1,0.6-12.2,1.3-18.2,2c-1.5,0.2-3,0.3-5.1,0.5c1.2-5.3,2-10.3,3.4-15.1c2-7.1,5.1-13.8,9.8-19.6c4.1-5,8.3-10.1,13.2-14.3 c5.1-4.5,10.8-8.3,16.6-11.8c10.4-6.4,21.8-10.5,33.7-13.3c6-1.4,12.2-2.5,18.4-3c7.8-0.7,15.6-1.2,23.4-0.8 c7.6,0.4,15.2,1.7,22.7,3.1c5.8,1.1,11.6,2.5,17.2,4.5c6.4,2.2,12.5,5.2,18.8,7.9c0.6,0.2,1.2,0.2,1.9-0.1 c-19.1-10.7-39.5-16.4-61.4-17.2c0-6.6,0-13.2,0-20.2c26.3,1,50.3,8.4,72,23.8c-0.3-0.4-0.4-1-0.8-1.2c-4-2.7-7.8-5.6-11.9-7.9 c-7.3-4.2-15-7.6-23.1-10.1c-8-2.5-16.1-4.3-24.5-5.3c-8-1-16.1-1.5-24.1-1.1c-11.6,0.7-23.2,2.1-34.2,5.9 c-6.6,2.2-13.2,4.7-19.5,7.8c-8.8,4.2-16.7,9.9-24,16.4c-10,9-17.3,19.7-22.8,31.8c-0.4,0.9-0.6,1.8-1.1,2.6c-0.5,0.7-1.3,1.3-1.9,2 c-0.3-0.2-0.6-0.3-0.9-0.5c0.5-3.1,0.9-6.2,1.6-9.3c2.4-10.4,7.1-19.5,13.9-27.7c6.9-8.3,15-15.1,24.2-20.7 c8.4-5.2,17.4-9.3,26.8-12.1c7.2-2.1,14.4-3.9,21.7-5.2c10.1-1.8,20.5-1.7,30.7-1.3c6,0.2,12.1,0.8,17.9,2.1 c8.1,1.8,16.1,4.2,24,6.8c11.9,3.9,22.8,10.1,32.7,17.8c1.1,0.8,2.2,1.7,3.2,2.5c0.2-0.2,0.4-0.4,0.5-0.6c-1.4-1.3-2.7-2.8-4.2-4 c-5.7-4.5-11.8-8.5-18.4-11.8c-9.4-4.7-19.3-8.3-29.5-10.8c-7-1.7-14.1-3.2-21.4-3.5c-2.4-0.1-4.7-0.4-7.2-0.6c0-6.5,0-13.1,0-19.7 c18.1-0.9,60,6.6,88,38.1c-0.8-1-1.4-2.2-2.3-3.1c-2.4-2.5-4.9-4.8-7.2-7.4c-0.6-0.6-1-1.9-0.7-2.7c2-5.6,4.1-11.1,6.2-16.6 c0.2-0.5,0.3-1,0.2-1.6c-3.8,5.8-6.2,12.2-7.7,19.3c-0.4-0.6-0.9-0.9-0.9-1.2c0.6-6.4,0.7-12.8,2.6-19c1-3.1,2.4-6.2,2.9-9.4 c0.5-3.3,1.8-6.2,3.1-9.2c0.5-1.1,1-2.7,1.9-3.1c3.5-1.4,4.1-5.1,6.4-7.4c3.4-3.5,6.4-7.5,9.9-10.9c6.1-5.9,12.9-10.9,20.3-15 c1.5-0.8,3.1-1.7,4.9-2.7c-0.2,4.1-0.4,7.8-0.6,11.5c-0.1,1.9-0.3,3.8-0.3,5.7c0,2.1-0.5,3.5-2.7,4.5c-7.7,3.6-14.9,8.1-21,13.9 c-4.1,3.9-7.9,8.1-11.8,12.2c-0.4,0.4-0.6,1-0.8,1.5c0.1,0.1,0.3,0.2,0.4,0.3c1.2-1.3,2.5-2.6,3.7-3.9c2.7-2.7,5.2-5.7,8.1-8 c5.1-4,10.4-7.7,15.9-11.2c8.1-5.2,17-8.6,26.2-11.6c3.3-1.1,6.7-1.9,10-3c1-0.3,1.7-1.3,2.6-1.7c1-0.4,2.1-0.5,3.2-0.8 c0.3-6.7,0.6-13.5,0.8-20.7c-2.6,0.5-5.1,1-7.7,1.5c-0.1,0-0.1,0.1-0.2,0.1c-0.8,0-1.6,0-2.4-0.1c0.7-0.4,1.3-1,2-1.2 c2.5-0.6,5-1.2,7.5-1.7c0.5-0.1,1.2,0.5,1.8,0.5c1,0.1,2,0.1,3,0.1c4.4-0.4,8.8-0.8,13.2-1.2c1.3-0.1,2.6,0,3.9,0 c0,1.3-0.1,2.6-0.1,3.9c0,4.8-0.1,9.6,0,14.5c0,1.7-0.6,2.2-2.2,2.3c-3.8,0.2-7.6,0.5-11.4,0.8c-0.4,0-0.9,0.4-1.3,0.6 c0.1,0.2,0.1,0.4,0.2,0.7c1.1-0.1,2.2-0.4,3.4-0.4c6.8-0.2,13.6-0.6,20.4-0.3c9.9,0.4,19.7,1.6,29.4,3.9c11.4,2.7,22.4,6.5,32.7,12 c7.6,4,14.7,8.8,21.2,14.5c0.8,0.7,1.7,1.3,2.8,1.8c-0.6-0.9-1.2-1.8-1.9-2.5c-5.5-5.2-11.8-9.5-18.3-13.4 c-8-4.8-16.6-8.4-25.4-11.2c-5.6-1.8-11.4-3.2-17.2-4.3c-5.4-1-10.8-1.5-16.3-2.1c-3-0.3-6-0.3-9-0.4c-0.8,0-1.6,0.1-1.3-1.4 c0.2-1.2-0.3-2.4-0.3-3.7c-0.1-1.5,0-3.1,0.1-4.6c0-0.4,0.1-0.8,0-1.2c-0.2-2.3-0.5-4.5-0.8-6.8c-0.1-0.8,0-1.7,0-2.7 c32.8-0.1,62.1,9.4,87.1,31.4c-0.1-0.5-0.2-1-0.3-1.6c7.9,7.1,14.4,15.1,19.4,24.3c3.7,6.8,6.2,14,7.8,21.5c0.1,0.6-0.4,1.5-0.9,2.1 c-2.1,2.6-4.3,5.1-6.5,7.7c-0.3,0.3-0.4,0.7-0.3,1.2c2-2.2,4-4.4,6.1-6.5c2.8-2.8,5.6-5.7,8.7-8.2c7.2-5.9,15-10.8,23.4-14.7 c8.6-4,17.6-7.1,26.9-9.1c0.8-0.2,1.6-0.4,2.4-0.4c0.7,0,1.5,0.1,2.5,0.3c0.1-0.1,0.5-0.9,1.1-1c0.4-0.1,1,0.6,1.5,1 c0.2-1.1,2.1-1.8,4.2-1.9c4.5-0.3,9-0.7,13.8-1.1c-0.2,3.5-0.4,7-0.4,10.4c0,2.2,0,4.4,0.2,6.5c0.4,3.3,0.2,3.4-3,3.7 c-4.7,0.3-9.5,0.7-14.2,1.4c-6.8,1-22.1,4.8-31.9,9c-7.9,3.4-15.6,7.2-22.7,12.2c-5.9,4.2-11.4,8.8-16.4,14.1 c-1.3,1.4-2.5,3-3.7,4.6c-0.4,0.5-0.5,1.2-0.5,1.8c2.4-2.6,4.7-5.3,7.2-7.7c6-5.9,12.8-10.9,20-15.2c8.2-5,17-8.7,26.2-11.6 c8.3-2.6,16.8-4.6,25.5-5.8c10-1.4,20.1-1.5,30.1-1c10.7,0.4,21.3,2.7,31.6,5.8c8.4,2.5,16.4,5.9,24,10c6.4,3.5,12.4,7.6,17.9,12.4 c6.2,5.4,11.8,11.3,16.2,18.3c4.8,7.7,8.3,15.9,9.3,25c0.2,1.5,0.4,3.1,0.6,4.6c-0.7,0.1-1.3,0.1-2,0.2c-3-6.9-6.1-13.9-10.6-20 c-2.9-3.8-6-7.5-9.2-11.2c-5.1-5.8-11.1-10.5-17.5-14.7c-11.9-7.8-24.8-13.3-38.7-16.4c-6-1.3-12.2-2.3-18.4-2.9 c-6.8-0.6-13.7-1-20.5-0.8c-5.7,0.2-11.5,0.9-17.1,2c-6.7,1.2-13.3,2.6-19.8,4.6c-7.5,2.3-14.8,5.4-21.6,9.6 c-4.5,2.7-8.9,5.6-13.3,8.5c-2.2,1.5-4.2,3.3-6.1,5.1c-3.1,2.9-6.1,5.9-9,9c-1.2,1.3-2.2,2.9-3.2,4.5c23.8-27.6,54.6-39.7,90.3-41.5 c0,7,0,13.6,0,20.2c-2.5,0.2-5,0.3-7.5,0.6c-4,0.5-8,0.9-11.9,1.6c-10.5,1.7-20.7,4.8-30.6,8.9c-7.2,3-14.2,6.5-20.5,11.2 c-3.5,2.7-7.1,5.4-10.6,8.2c-0.6,0.5-0.9,1.3-0.9,2.2c3-2.3,5.9-4.8,9-7c6.3-4.6,13-8.4,20.2-11.4c5.2-2.1,10.5-4.3,15.8-6 c4.6-1.5,9.3-2.6,14.1-3.5c6.3-1.1,12.6-2,18.9-2.5c6.6-0.5,13.3-0.8,19.9-0.4c15.9,1,31.3,4.5,46,10.8c9.3,4,18,9.1,26,15.5 c6.7,5.4,12.7,11.5,17.5,18.7c5.1,7.5,8.3,15.8,10.2,24.6c0.3,1.6,0.4,3.2,0.4,4.9c0,0.6-0.6,1.2-0.9,1.7c-0.5-0.4-1.2-0.8-1.5-1.3 c-3.1-5.8-5.6-12-9.2-17.5c-7.9-12.4-18.7-21.9-31.3-29.5c-8.2-5-16.9-9.1-26.2-11.5c-6.7-1.8-13.5-3.3-20.3-4.5 c-8.7-1.6-17.5-2.1-26.3-1.6c-6,0.3-12,1.3-18,2c-9.4,1-18.3,3.9-27,7.3c-9.2,3.6-18,8.3-26,14.3c-1.6,1.2-3,2.4-4.3,4 c22.1-16.7,47.2-24.5,74.6-25.7c0,6.9,0,13.5,0,20.1c-3.5,0.4-7.2,0.7-10.8,1.1c-3.4,0.3-6.8,0.5-10.1,1.1c-3.4,0.6-6.7,1.7-10,2.7 c-3.5,1-7,2.1-10.4,3.2c-3.4,1.2-6.8,2.5-10.2,3.7c0.1,0.2,0.1,0.5,0.2,0.7c1.8-0.4,3.7-0.6,5.5-1.1c8.4-2.3,16.6-4.8,25-6.9 c3.9-1,8-1.4,12-1.7c7-0.5,13.9-1,20.9-0.8c7,0.3,14.1,1.1,21,2.4c6.6,1.2,13.1,2.9,19.5,5c12.7,4,24.3,10.3,34.8,18.5 c7.9,6.1,14.7,13.4,19.9,22c2.6,4.4,4.5,9.1,6.9,14.1c-2.5-0.2-4.4-0.3-6.3-0.5c-0.5-0.1-0.9-0.6-1.2-1.1c-4.5-6.9-9.6-13.3-15.7-19 c-6.1-5.7-12.7-10.5-19.9-14.6c-6.9-4-14.2-7.2-21.8-9.6c-7.5-2.4-15.1-4.4-23-5.2c-4.5-0.4-9.1-0.9-13.6-1.2 c-3.1-0.2-6.3-0.4-9.4-0.4c-1.5,0-3.1,0.2-4.9,0.4c4.2,5.8,8.2,11.4,12.4,17.3c0-5.5,0-10.7,0-15.7c1.3,0,2.4-0.1,3.4,0 c5.7,0.5,11.3,1.1,17,1.7c0.4,0,0.8,0.7,1.1,1.1c0,0,0,0.1,0,0.2c0.1,6.4,0.3,12.7,0.4,19.1c0,0.1-0.1,0.3-0.1,0.4 c-5.9-0.7-11.9-1.4-17.8-2.2c-0.1,0.3-0.2,0.6-0.3,0.9c0.7,0.4,1.3,1,2,1c14.2,0.7,27.9,3.9,41.1,9c10.1,3.8,19.4,9,28.1,15.4 c0.4,0.3,0.9,0.4,1.3,0.7c-0.1,0.2-0.3,0.4-0.4,0.6c-0.9,0-1.8,0-2.7,0c0,0.1,0,0.3,0,0.4c0.6,0,1.3,0.1,2.1,0.1 c0,2.5,0.2,5-0.1,7.4c-0.4,3.5,0.3,6.9,0,10.3c-0.1,1.3-0.7,2.6-1.1,4.1c0.5,0.9,1.5,2,0.7,3.8c-0.5,1.1-0.1,2.7,0.3,3.9 c0.9,2.6-1,2.6-2.5,2.9c-9.3,2-18.6,3.8-27.8,5.9c-2.6,0.6-5.1,1.6-7.7,2.3c-2.4,0.7-1.9,0.8-1.7,3c55.5-16.9,108.7-13.4,158.7,18.1 c1-1.2,0.9-2.2-0.4-2.9c-7.7-4.2-15.2-8.7-23-12.7c-4.8-2.4-10.1-4.1-15.2-6c-1.6-0.6-1.5-2.1-1.5-3c0.1-1.7,0.1-3.3-0.5-5 c-0.3-0.8,0.5-2,0.6-3c0.1-2.2,0.1-4.5,0.1-6.8c0-2.1,0-4.2,0-6.9c5.2,2.7,10.3,5,15,7.9c6.1,3.8,12.1,7.8,18,12 c3.9,2.8,7.7,6,11.2,9.3c4.6,4.2,9.1,8.6,13.2,13.2c7.1,7.9,13.4,16.6,18.9,25.7c5.8,9.4,11,19.2,15.1,29.4 c3.4,8.5,6.1,17.2,7.7,26.2c1.3,7.6,2.6,15.3,3.3,23c0.7,7.8,0.6,15.7,0.9,23.6c0,0.6,0.3,1.3,0.4,1.9c0,2.5,0,5,0,7.4 c-0.1,0.6-0.4,1.1-0.4,1.7c-0.2,3.8-0.2,7.5-0.5,11.3c-0.5,6-0.7,12.1-1.7,18.1c-1.6,10.1-3.6,20.2-5.8,30.2 c-2.7,12.3-8.6,23.4-14.7,34.3c-0.6,1.1-0.9,2.4-1.4,3.6c-0.3-0.2-0.7-0.4-0.9-0.7c-5.1-7.3-10.1-14.6-15.2-21.9 c-0.6-0.8-1.2-1.6-1.7-2.3c-0.1,0.1-0.2,0.2-0.4,0.3c8.5,12.5,17,24.9,25.6,37.6c-16.9,0-33.4,0-49.9-0.1c-0.7,0-1.6-0.6-2.1-1.2 c-1.2-1.6-2.1-3.3-3.1-4.9c-3.9-6.3-7.9-12.5-11.9-18.8c-1.6-2.5-3.3-5-5-7.5c-0.2,0.5-0.1,0.8,0.1,1.1 c6.4,10.2,12.8,20.4,19.2,30.6c0.8,1.2,1.6,1.6,2.9,1.6c16.5,0,33,0,49.5,0C940.5,639.5,941.1,639.2,941.7,639.1z M667.9,254.6 c0.1-0.1,0.3-0.3,0.4-0.4c-0.4-0.1-0.8-0.3-1.3-0.4c0,0.5,0,1,0,2C667.6,255,667.7,254.8,667.9,254.6L667.9,254.6z M846.5,599.6 c0.2-0.8,0.6-1.7,0.6-2.5c0.1-6.9,0-13.9,0-20.8c0-0.6,0.1-1.1,0.1-2c4.5,7.1,8.8,13.8,13.1,20.5c0.2-0.1,0.3-0.2,0.5-0.3 c-4.7-7.6-9.5-15.2-14.2-22.9c-0.3,7.7-0.4,15.3-0.3,22.9C846.3,596.2,846.4,597.9,846.5,599.6c-0.1,0.8-0.2,1.6-0.2,2.4 c0,11.4,0,22.8,0,34.3c0,0.7,0,1.5,0,2.2c-14.3,0-28.4,0-42.8,0c0-13,0-25.8,0-38.6c-0.1,0-0.3,0-0.4,0c0,13.2,0,26.3,0,39.5 c14.7,0,29.3,0,43.8,0c0.1-0.2,0.2-0.3,0.2-0.4c0-12.8,0-25.6,0-38.4C847.1,600.2,846.7,599.9,846.5,599.6z M326.1,602.1 c-0.4,0.5-0.6,1.2-1.1,1.6c-0.6,0.6-1.2,1.4-1.9,1.4c-4.2,0.3-8.5,0.3-12.7,0.5c-4.4,0.1-8.8,0.3-13.1,0.4c-0.4,0-0.8,0.2-1.2,0.2 c-3.6,0-7.3,0-10.9,0c0,0.2,0,0.1,0,0c3.7-10.4,7.5-20.7,11.2-31.1c5.1-14,10.2-28,15.2-42.1c1.7-4.6,1.6-4.6,6.4-4.7 c0.1,0,0.3,0.1,0.4,0c0.7-0.4,1.6-0.7,1.9-1.4c0.7-1.6,1.2-3.4,1.7-5.2c-1.6,0-3.1-0.2-4.5,0c-1.8,0.3-1.7-0.3-1.2-1.7 c1.5-4,2.8-8,4.2-12c1.6-4.3,3.2-8.6,5-12.8c0.3-0.7,1.3-1.2,2-1.4c1.2-0.2,2.5,0,3.7-0.1c0.4,0,1.1-0.4,1.2-0.7 c1.3-3.4,2.5-6.8,3.8-10.2c2.6-7,5.1-14,7.7-21c8.9,0,17.7,0,26.5,0c0.6,0,1.4,0.5,1.6,1c0.8,1.8,1.4,3.8,2.2,5.6c3,8,6,16,9.1,23.9 c0.2,0.5,0.9,1,1.4,1.1c1.3,0.2,2.5,0.1,3.8,0.1c0.9,0,1.5,0.1,1.9,1.3c2,5.5,4.3,10.9,6.4,16.3c1.3,3.2,2.3,6.5,3.6,10.1 c-2.3,0-4.3,0-6.3,0c0.7,2.1,0.9,4.2,2,5.7c1.4,1.9,3.8,0.4,5.7,0.9c0.6,0.1,1.3,0.6,1.5,1.1c3.1,7.9,6.1,15.8,9.1,23.7 c4.1,10.8,8.3,21.6,12.5,32.4c2.1,5.5,4.3,11,6.5,16.6c-1.2,0.2-2.3,0.4-3.3,0.5c-7.8,0.2-15.5,0.3-23.3,0.4c-4,0.1-8,0-12,0 c-0.7,0-1.5-0.4-2.2-0.6c0.4,0.7,1,1.4,1.7,1.4c1.3,0.1,2.7-0.3,4-0.3c8.5-0.2,17-0.3,25.5-0.4c3.4,0,6.8,0,10.5,0 c-1.1-2.9-2-5.6-3-8.2c-3.6-9.4-7.2-18.9-10.7-28.3c-3.6-9.4-7.2-18.7-10.7-28.1c-3.4-9-6.9-17.9-10.3-26.9 c-3.3-8.6-6.6-17.2-9.9-25.8c-3.5-9.2-7.1-18.5-10.5-27.7c-0.5-1.4-1.2-1.7-2.5-1.7c-10.1,0-20.2,0-30.4,0c-5.9,0-5.8,0-7.8,5.5 c-5.3,14.6-10.7,29.1-16,43.7c-5.4,14.7-10.8,29.4-16.1,44.1c-6,16.6-11.8,33.3-17.8,50c-0.9,2.6-1.8,5.1-2.9,8.1 c6.5-0.4,12.6-0.8,18.6-1.1c6.9-0.3,13.8-0.6,20.7-0.8c1.4,0,2.2-0.4,2.3-1.8C325.6,603.2,325.9,602.7,326.1,602.1 c2-5.8,4-11.6,5.9-17.4c0.3-1,0.7-1.4,1.8-1.4c6.6-0.1,13.3-0.2,19.9-0.4c2.6-0.1,5.2-0.3,7.8-0.4c7-0.2,14-0.3,21-0.4 c1.1,0,1.5,0.4,1.8,1.4c1.8,5.5,3.7,10.9,5.7,16.4c0.2,0.4,0.4,0.8,0.6,1.3c0.1-0.1,0.2-0.1,0.4-0.2c-2.2-6.6-4.4-13.1-6.6-19.9 c-2.2,0.2-4.3,0.5-6.4,0.6c-5.9,0.2-11.8,0.3-17.7,0.4c-8.2,0.2-16.5,0.3-24.7,0.4c-0.5,0-1.1,0.3-1.6,0.3c-2.3-0.3-2.7,1.3-3.2,3 c-1.4,4.8-3,9.5-4.5,14.2C326.1,600.6,326.1,601.4,326.1,602.1z M539.7,600.5c-0.9,0.8-0.4,2.6-2.2,2.7c-6.4,0.4-12.9,0.9-19.3,1.2 c-4,0.1-8.1-0.1-12.1-0.4c-4.2-0.3-8.4-1-12.7-1.6c-2.1-0.3-4.2-0.7-6.2-1.1c17.4,4.9,35,4.4,52.8,2.1 C539.8,602.4,539.7,601.4,539.7,600.5c0.1-1.4,0.2-2.9,0.2-4.3c0-2.9,0-5.8,0-8.7c0-5.7,0-11.5,0-17.4c-0.7,0-1.6-0.1-2.4,0 c-4.6,0.5-9.3,1.3-13.9,1.5c-4.5,0.2-9-0.1-13.5-0.4c-7.9-0.5-15.3-2.8-22.2-6.8c-7.9-4.7-13.3-11.4-16.3-20.1 c-2.5-7.4-2.9-15.1-1.5-22.9c1.6-8.8,5.4-16.2,12.2-22.1c8.7-7.6,19.2-10.8,30.4-11c9-0.2,18.1,0.7,27.1,1.2c0-10.7,0-21.9,0-33.1 c-1,0-1.9,0.1-2.8,0c-5.1-0.5-10.1-1.3-15.2-1.5c-5.5-0.2-11-0.1-16.4,0.4c-5.8,0.5-11.6,1.3-17.2,2.5c-13.7,2.9-26,9-36.5,18.2 c-6.7,5.9-12.2,12.9-16.2,21c-4.7,9.4-6.9,19.6-7.4,30c-0.4,7.2,0.4,14.3,2,21.2c3.6,15.6,12.1,28.2,24.5,38.1 c8.2,6.5,17.5,11.1,27.6,13.9c0.4,0.1,0.7,0.2,1.1,0.3c-3.6-1.7-7.3-2.8-10.9-4.4c-9.8-4.4-18.5-10.3-25.8-18.3 c-5.9-6.5-10.2-13.9-13.2-22.1c-2.1-5.6-3.3-11.4-4-17.3c-0.4-3-0.3-6-0.5-9c-0.1-1.5,0.5-2,1.9-1.9c1.5,0.1,3,0,4.6,0 c0.1-2.1,0.2-4.1,0.3-6.2c-1.9,0-3.8,0-5.9,0c0-0.6-0.1-1-0.1-1.4c0.1-0.7,0.3-1.5,0.4-2.2c0.7-7,3.1-13.4,5.9-19.8 c1.5-3.4,3.5-5.5,7.5-4.7c1.3,0.3,2.1-0.4,3-1.6c6.1-8.7,13.8-15.6,23.2-20.7c11.7-6.3,24.4-9.6,37.5-10.2 c8.5-0.4,17.1,0.2,25.7,0.4c0,7,0,13.5,0,20c-1.1,0-2.1,0-3.1,0c0-0.1,0-0.1,0-0.2c0.6,0,1.2-0.1,1.8-0.1c0-5.6,0-11.2,0-16.8 c-2.6-0.3-5.2-0.8-7.7-0.8c-6.7,0-13.4,0.1-20.2,0.4c-6.6,0.3-13.1,1.7-19.4,3.7c-10.3,3.2-19.6,8.2-27.5,15.3 c-6.8,6.1-12,13.6-15.4,22.2c-3.3,8.3-5,16.9-4.6,25.8c0.1,1.6,0.1,3.3,0,5c-0.1,1-0.8,2-0.7,2.9c0.2,2.4,0.7,4.8,1.2,7.2 c1.3,6.5,3.6,12.7,7,18.4c1.7,2.8,3.9,5.1,6.3,7.5c6.2,6,12.6,11.6,20.2,15.6c11.6,6.1,24,8.9,36.9,9.7c7.4,0.5,14.9-0.1,22.4-0.4 c0.6,0,1.6-0.8,1.6-1.3c0.1-5.3,0.1-10.6,0.1-16c-1.3,0-2.4-0.1-3.5,0c-3.5,0.2-6.9,0.9-10.4,0.7c-5.2-0.2-10.4-0.8-15.6-1.6 c-7.1-1.1-13.6-3.6-19.8-7.5c0.4-0.2,0.7-0.3,1.1-0.5c-6.3-4.1-11.2-9.3-15.2-15.6c-3.8-5.9-5.4-12.7-7.1-19.2 c-1.5-6.1-0.5-12.7,1.1-19c1.7-6.8,4.8-12.9,9.3-18.2c2.9-3.4,6.1-6.5,10.3-8.3c-1.3,1-2.6,2.1-4.2,3.3c4,0,7.6,0,11.7,0 c-5.6,3.3-10.1,7-13.6,11.8c-3.5,4.9-5.4,10.5-7,16.1c-2.2,0-4.2,0-6.2,0c-0.1,2.2-0.3,4.2-0.4,6.5c2.3,0,4.2,0,5.8,0 c0.6,4.6,0.9,9.1,1.8,13.5c2.3,11.1,8.6,19.4,18.5,24.9c8.7,4.8,18.1,6.8,27.9,6.6c5-0.1,10.1-0.5,15.1-0.8c2.5-0.2,5.1-0.5,7.8-0.7 c0,0.8,0,1.6,0,2.3c0,8.5,0,16.9,0,25.4C539.1,599.3,539.4,599.9,539.7,600.5z M682.6,600.8c1.3,1.8,2.6,3.6,4.2,5.9 c-2.8-0.2-5.1-0.5-7.4-0.6c-6.3-0.3-12.6-0.6-18.8-0.8c-5.9-0.2-11.8-0.3-17.7-0.4c-1.7,0-3.3-0.3-4.3-2c-0.4-0.8-1.2-1.5-1.8-2.2 c0.5,1.5,1.4,2.8,2.3,4c0.2,0.3,0.7,0.6,1.1,0.6c5.9,0.3,11.7,0.6,17.6,0.8c5.3,0.2,10.5,0.3,15.8,0.4c0.2,0,0.4,0,0.6,0 c4.5,0.3,8.9,0.6,14,0.9c-1.9-2.5-3.5-4.6-5.1-6.6C683.3,600.7,682.8,600.8,682.6,600.8c-0.2-0.5-0.2-1.3-0.5-1.7 c-3.2-4.5-6.4-9-9.7-13.5c-5.8-8-11.5-16-17.4-23.9c-8.3-11.1-16.6-22.1-24.9-33.2c-0.5-0.7-0.8-1.3,0-2.3 c4.3-5.1,8.4-10.2,12.6-15.4c6.5-8.1,12.9-16.2,19.4-24.3c6.1-7.7,12.3-15.3,18.4-23c0.9-1.1,2-2,2.7-2.7c2.1,6.4,0.8,12.8,0.5,19.3 c4.6-1.8,5.8-7.2,10.3-9.6c0,43,0,85.7,0,128.3c0.2,0,0.4,0,0.6,0c0-24.2,0-48.3,0-72.7c2.4,0,4.5,0,6.5,0c0-2.3,0-4.3,0-6.5 c-1.7,0-3.3-0.1-4.9,0c-1.3,0.1-1.7-0.5-1.7-1.7c0-8.1,0-16.2,0-24.4c0-1.3,0.6-1.7,1.8-1.6c1.4,0.1,2.9,0,4.3,0 c0.2-7.6,0.4-15.1,0.6-22.5c0.2,0,0.5,0,0.7,0c0,0.4,0.1,0.9,0.1,1.3c0,11.4,0.2,22.7-0.1,34.1c-0.2,11.2,0.4,22.3-0.6,33.5 c-0.9,10.1-0.2,20.4-0.2,30.5c0,0.5,0.1,1.3,0.2,1.3c1.6,0.3,1,1.5,1,2.3c0,8.5,0.1,16.9,0,25.4c0,1.6,0.6,2.2,2.1,2.2 c2.7,0.1,5.3,0.2,8,0.4c4.7,0.3,9.4,0.5,14.1,0.8c6.9,0.4,13.7,0.8,20.6,1.2c5.5,0.3,11,0.5,16.6,0.9c2.6,0.2,5.3,0.6,7.9,0.8 c2.8,0.2,5.5,0.3,8.3,0.4c0-6.7,0-13.2,0-19.5c-5.3-0.4-10.5-0.8-15.7-1c-8.2-0.5-16.5-0.9-24.7-1.2c-4.6-0.2-9.2-0.3-13.8-0.5 c-0.2,0-0.4-0.2-0.6-0.3c0-3.5,0-7,0-10.5c0-0.3,0.1-0.9,0.2-0.9c1.7-0.4,1-1.7,1-2.7c0-7.8,0-15.6,0-23.3c0-0.7,0-1.5,0-2.5 c3.6,0.2,6.8,0.5,10.1,0.6c7.8,0.3,15.6,0.6,23.4,0.8c5.3,0.2,10.5,0.3,15.8,0.4c0.3,0,0.7,0.1,1,0.1c3.2,0.8,3.9-0.1,3.3-3.3 c-0.5-2.9-0.9-5.9-1.1-8.9c-0.2-2.7,0-5.3,0-8c-2.4-0.2-4.7-0.5-6.9-0.6c-4.9-0.2-9.7-0.3-14.6-0.4c-7.7-0.2-15.4-0.3-23-0.4 c-3,0-6,0-9,0c0-13.2,0-26.2,0-39.1c6.5,0,12.9,0,19.2,0c0,0.1,0,0.2,0,0.4c-6,0-12,0-18,0c0,2.7,0,5.1,0,7.8c2,0,4,0,6.4,0 c0,8.1,0,15.9,0,24.3c5.6,0,10.8-0.1,16,0c5.5,0.1,11,0.3,16.4,0.4c6.8,0.2,13.6,0.3,20.4,0.4c0.2,0,0.4,0.1,0.5,0.1 c0,0.8,0,1.6,0,2.7c-20,0-39.8,0-59.6,0c0,0.2,0,0.5-0.1,0.7c0.8,0.2,1.6,0.4,2.4,0.5c5.5,0.2,11.1,0.3,16.6,0.4 c7.9,0.2,15.8,0.3,23.7,0.4c3.6,0.1,7.2,0.3,11,0.5c0,1.3,0,2.5,0,3.7c2.1,0,4,0,6,0c0,8.4,0,16.7,0,25.3c-1.8-0.2-3.4-0.5-5-0.5 c-6.9-0.3-13.8-0.6-20.7-0.8c-6-0.2-11.9-0.3-17.9-0.4c-0.5,0-0.9-0.2-1.4-0.2c-2.8,0-5.7,0-8.2,0c0,8.8,0,17.5,0,26.1 c4.9,0.3,9.3,0.7,13.8,1c8.5,0.5,17,0.9,25.6,1.2c3.6,0.2,7.2,0.2,10.9,0.4c1.5,0.1,3.1,0.4,4.5,0.6c0,11.4,0,22.7,0,34.1 c-1.3,0-2.5,0.1-3.7,0c-6.5-0.5-13-1.1-19.5-1.6c-3.9-0.3-7.9-0.6-11.8-0.8c-6.9-0.4-13.7-0.8-20.6-1.2c-4.4-0.3-8.8-0.6-13.3-0.8 c-6.3-0.3-12.7-0.5-19-0.9c-1.7-0.1-3.5-0.3-5.3-0.5c0-2.2,0-4.1,0-6.1c-0.2,0-0.3,0-0.5,0c-0.1,2.3-0.3,4.6-0.4,6.8 c2.6,0.2,4.9,0.5,7.1,0.6c7.8,0.4,15.5,0.8,23.3,1.3c4.4,0.2,8.7,0.5,13.1,0.8c6.7,0.4,13.3,0.8,20,1.2c5.2,0.3,10.5,0.5,15.7,0.9 c2.5,0.2,5,0.6,7.5,0.8c2.7,0.2,5.5,0.3,8.2,0.4c0-12.1,0-23.9,0-35.8c-3.9-0.3-7.9-0.7-11.8-0.9c-8-0.5-15.9-0.9-23.9-1.2 c-4.4-0.2-8.9-0.2-13.3-0.4c-1.9-0.1-3.7-0.4-5.5-0.6c0-8.2,0-16.3,0-24.7c2.6,0.2,5,0.4,7.4,0.5c3.3,0.2,6.7,0.3,10,0.4 c7.9,0.3,15.7,0.5,23.6,0.8c2.1,0.1,4.2,0.3,6.3,0.4c1.9,0.1,3.8,0,5.7,0c0-12.1,0-23.9,0-35.7c-2.9-0.2-5.8-0.5-8.6-0.6 c-7-0.2-14-0.3-21-0.4c-7.6-0.1-15.2-0.3-22.8-0.4c-0.2,0-0.4-0.1-0.6-0.2c0-7.6,0-15.2,0-22.7c18,0,35.9,0,53.8,0 c0-11.9,0-23.8,0-35.7c-1,0-1.8,0-2.6,0c-25.5,0-51.1,0-76.6,0c-1.7,0-2.6-0.6-3.4-2c-2.4-4.4-2.2-9-1.7-13.8c0.2-2,0.2-4.1,0.3-6.1 c-0.3-0.1-0.5-0.1-0.8-0.2c-1.2,1.4-2.4,2.8-3.6,4.1c-1.9,2-3.8,4.2-6,5.8c-3.2,2.4-6.9,3.5-11,3.4c-2.5,0-5.2-0.5-8.2,0.8 c2.6,2.9,5,5.7,7.8,8.8c-1.2,0.1-2,0.2-2.8,0.2c-13.1,0-26.3,0-39.4,0c-1.3,0-2.2,0.4-3,1.4c-3.7,4.7-7.5,9.4-11.2,14.2 c-4,5.1-8,10.2-12.1,15.3c-3.6,4.5-7.1,9-10.7,13.5c-1.5,1.9-3,3.7-4.8,5.8c-0.2-17.4-0.4-34.3-0.6-51.2c-13.3,0-26.3,0-39.5,0 c0,49,0,97.9,0,146.8c13.2,0.3,26.3,0.6,39.4,0.8c0-0.9,0-1.8,0-2.6c-0.1,0-0.1,0-0.2,0c-0.1,0.6-0.1,1.3-0.2,2.2 c-3.5-0.2-6.8-0.5-10.2-0.6c-6.6-0.2-13.2-0.3-19.7-0.4c-2.7-0.1-5.5-0.1-8.2-0.2c0-2.7-0.1-5.5-0.1-8.2c0-21.4,0-42.8,0-64.2 c0-0.8,0-1.6,0-2.6c2.2,0,4.2,0,6.1,0c0-2.3,0-4.3,0-6.6c-2.1,0-4,0-6.1,0c0-8.5,0-16.7,0-25c0-2.9,0-2.9,3-2.8c0.3,0,0.5,0,0.8,0.1 c2.2,0.2,2.4-1,2.4-2.8c-0.1-8.6,0-17.2,0-25.8c0-0.7,0-1.5,0-2.1c8.7,0,17.1,0,25.7,0c0,10.2,0,20.2,0,30.5c2.1,0,4.1,0,6.2,0 c0,6.1,0,11.9,0,18.1c3.7-4.7,7.1-8.9,10.5-13.3c2.5-3.3,5.2-6,9.8-5c0.6,0.1,1.6-0.3,2.1-0.8c1-1,1.7-2.2,2.6-3.3 c6.2-7.9,12.5-15.8,18.7-23.8c0.8-1,1.4-1.4,2.6-1.3c5.6,0.1,11.2,0,16.7,0c3.5,0,7,0,10.9,0c-7.7,9.8-15.2,19.2-22.9,29 c3,0,5.5,0,8.4,0c-1.4,1.8-2.5,3.4-3.8,4.9c-5.5,6.8-11,13.6-16.5,20.4c-1.3,1.6-2.5,3.2-4.9,2.8c-0.6-0.1-1.1-0.1-1.7-0.1 c-1.4,0-3.2-0.4-4,0.3c-2,1.7-3.4,3.9-5.4,6.3c2,0,3.5,0.1,5.1,0c1.9-0.2,3,0.4,4.3,2.1c10.6,14.4,21.4,28.7,32.1,43 C668.6,581.4,675.6,591.1,682.6,600.8z M811.2,464c0,1.1,0,1.9,0,2.7c0,18.1,0.1,36.2-0.1,54.3c-0.1,5.9,0.8,11.7-0.7,17.6 c-0.8,3.1-0.5,6.5-0.5,9.8c-0.1,5.6,0,11.3,0,16.9c0,1.4-0.1,3,0.5,4.2c1.2,2.6,0.7,5.2,0.7,7.7c0.1,17.1,0,34.3,0,51.4 c0,0.8,0,1.6,0,2.4c9.2,0,18.2,0,27.3,0c0-1,0-1.8,0-2.6c0-17.7,0-35.4,0-53.1c0-0.7-0.1-1.4,0.1-2c1.3-3.3,1.2-6.8,1.2-10.3 c-0.1-4.1,0-8.2,0-12.2c0-0.5,0.1-1,0.2-2c2.6,4.3,4.9,8.3,7.4,12.1c2.5,3.8,5.5,7.2,8.1,11c4.6,6.9,9.2,13.8,13.6,20.8 c7.8,12.3,15.5,24.8,23.3,37.1c0.6,1,1.3,1.4,2.6,1.4c9.6-0.1,19.3,0,28.9,0c0.5,0,1,0,1.6,0c-0.1-0.5-0.1-0.8-0.3-1 c-4.3-6.3-8.6-12.6-13-18.8c-7-10.1-14-20.2-20.8-30.3c-2.6-3.9-5.7-7.5-7.2-12.2c-1-3.1-3.6-5.7-5.5-8.5c5.1-1.6,10.2-2.8,14.9-4.8 c9.3-4,17.2-9.4,21.6-19.2c3.9-8.7,6.1-17.4,5.1-26.9c-0.4-4-0.8-8.1-1.7-12c-1.9-8.7-6.2-16.2-13.1-21.9 c-9.5-7.9-20.9-11.1-32.9-11.4c-19.7-0.5-39.4-0.1-59.1-0.1C812.9,464,812.2,464,811.2,464z M171.7,457.4c-2.1-0.2-4-0.3-6-0.5 c-6.9-0.7-13.8-1.6-20.7-2c-4.2-0.3-8.5,0-12.7,0.4c-5.4,0.5-10.8,1.1-16.1,2.1c-13.1,2.5-24.8,7.7-33.8,18 c-3.1,3.5-5.6,7.5-7.3,11.9c-2.9,7.4-4.1,15-3.4,23c0.5,6.1,1.9,11.8,4.5,17.3c4.6,9.9,12,17.5,20.9,23.4c8.7,5.8,17.7,11,26.6,16.6 c4.8,3,9.6,6,12.6,11c2.9,4.8,2.8,13.8-4.4,16.8c-4,1.7-8,2.7-12.3,2.8c-5.2,0.1-10.4,0.5-15.6,0.3c-7.1-0.3-14.2-1-21.4-1.6 c-1.9-0.1-3.7-0.2-5.6-0.3c0,1.9,0,3.7,0,5.6c0.1,0,0.2,0,0.3,0c0-1.6,0-3.1,0-4.8c1.3,0,2.4-0.1,3.4,0c6.6,0.5,13.1,1.3,19.7,1.6 c5.5,0.3,11,0,16.6,0.1c4.7,0,9.2-0.9,13.7-2.3c8.1-2.7,9.6-10.8,7-17c-1.9-4.7-5.7-7.7-9.8-10.3c-6.8-4.4-13.6-8.7-20.6-12.8 c-9.1-5.4-17.7-11.3-24.4-19.7c-1.7-2.2-3.2-4.5-5.1-7.3c3,0,5.3,0,7.8,0c-1.3-2.2-2.3-4.1-3.5-6c-0.2-0.3-0.6-0.5-0.9-0.5 c-1.4,0-2.8,0.1-4.2,0c-0.6-0.1-1.6-0.5-1.8-1c-2.3-5.3-2.7-11-2.9-16.7c0-2.1,0.6-4.1,0.7-6.2c0.3-3.8,0.3-3.9,4.2-3.9 c0.1,0,0.3,0,0.4,0c1.6,0.3,2.2-0.5,2.6-2c3.4-12.1,11.3-20.4,22.5-25.7c9.5-4.5,19.6-6.6,30-6.9c8.4-0.3,16.8,0.4,25.2,0.7 c2.3,0.1,4.5,0.6,6.8,0.9c0,6.1,0,12,0,17.9c0,2.1,0,4.3,0,6.4c0,1-0.1,1.8-1.5,1.2c-0.7-0.3-1.5-0.1-2.2-0.2c0-0.1,0-0.2,0-0.2 c0.6-0.1,1.3-0.1,2.1-0.2c0-7.3,0-14.5-0.1-21.7c0-0.4-0.7-1.2-1.2-1.3c-4.5-0.5-9-1.2-13.6-1.2c-8.5-0.1-17.1-0.3-25.6,1.1 c-8.6,1.5-16.8,3.7-24.3,8.3c-6.2,3.8-11.1,8.7-14.3,15.2c-3.9,7.8-4.6,16.1-3.7,24.7c1,10.3,6.9,18.1,12.9,25.8 c1.7,2.2,4,4,6.3,5.5c9,5.9,18.1,11.5,27.1,17.3c4.8,3.2,9.8,6.3,14.1,10.1c5.1,4.5,6.5,10.6,5.5,17.4c-1,6.8-4.9,11.2-10.9,14.1 c-6.5,3.2-13.5,3.6-20.5,4c-3.3,0.2-6.7-0.2-10-0.4c-4-0.1-8.1-0.2-12.1-0.4c-2.5-0.1-5-0.4-7.6-0.7c0,8.3,0,16.6,0,25.1 c1,0,2-0.1,2.9,0c7.5,0.5,15.1,1.2,22.6,1.6c4.3,0.2,8.6-0.1,12.9-0.4c3.4-0.2,6.9-0.6,10.3-1.3c6.3-1.3,12.4-2.9,18.3-5.5 c6.8-3.1,12.8-7.2,17.3-13c5.9-7.5,8.1-16.4,8.4-25.7c0.1-3.6-0.5-7.2-0.8-10.8c-0.2-2.2-0.2-4.5-0.8-6.6c-1.7-6.7-5.7-12-10.4-16.9 c-5.3-5.5-11.5-9.9-18-13.9c-0.4-0.2-0.9-0.3-1.3-0.4c-1.2-0.4-2.5-0.6-3.6-1.2c-3.7-2-7.3-4.1-10.8-6.3c-5.9-3.6-11.9-7-16.7-12.3 c-4.7-5.3-6.2-14.9-2.6-20.8c2.1-3.5,5.2-5.7,8.8-7.2c-2.1,1.6-4.1,3.2-6.2,4.8c0.1,0.2,0.2,0.3,0.3,0.5c1.6,0,3.3,0,4.9,0 c1.7,0,3.4,0,5.7,0c-1.1,0.6-1.7,0.9-2.2,1.2c-4.7,2.7-6.8,6.7-5.4,12.1c1.1,4,4,6.5,7.1,9c2.4,1.9,5,3.7,8,5.8c-3.4,0-6.2,0-9.1,0 c0,0.3,0,0.4,0,0.4c0.4,0.3,0.8,0.5,1.1,0.8c4.6,3.7,9.6,6,15.7,5c0.4-0.1,0.8-0.1,1.2,0c1.2,0.2,2.5,0.3,3.5,0.9 c9.7,5.6,18.8,11.8,26.1,20.4c4.7,5.5,8.2,11.5,10.4,18.3c1.9,5.7,2.8,11.6,2.3,17.7c-0.4,4.5-1.1,9-1.6,13.5 c-0.1,0.9-0.5,1.7-0.7,2.6c0.5,0,0.7-0.2,0.7-0.3c2.7-9.1,3.3-18.4,1.7-27.8c-1.6-9.3-5.6-17.4-11.7-24.5 c-4.9-5.6-10.5-10.7-17-14.6c-7.1-4.4-14.3-8.7-21.4-13c-4.8-2.9-9.7-5.6-13.3-10c-3.7-4.5-3.9-11.2,1.8-14.7 c4.5-2.8,9.5-3.3,14.6-3.4c4.9-0.1,9.9,0.1,14.8,0.4c3.2,0.2,6.3,0.8,9.5,1.2c2.9,0.3,5.9,0.6,9,0.9 C171.7,483.5,171.7,470.5,171.7,457.4z M435,420.5c0,0.1,0,0.1,0,0.2c1.5-2.4,3.2-4.6,4.4-7.2c4.5-9.6,5.7-19.6,3.4-30 c-1.9-8.3-6.1-15.1-13-20.2c-2.8-2.1-5.9-3.7-8.9-5.6c0.1-0.1,0.3-0.2,0.4-0.3c7.1-4.3,12-10.3,14.7-18.1c2.3-6.4,2.6-13.1,1.8-19.9 c-0.7-5.4-2.1-10.6-5.1-15.2c-4.5-7.1-10.8-12-18.4-15.4c-9.1-4.1-18.7-6-28.5-6.1c-19.1-0.3-38.3-0.1-57.4-0.1c-0.8,0-1.6,0-2.4,0 c-0.9,7-0.4,139.2,0.7,140.4c0-21.9,0-43.5,0-65.2c2.3,0,4.3,0,6.7,0c-0.2,4.4-0.7,8.7-0.5,13c0.3,7.1-0.1,14.2,0.9,21.5 c1.3,9.7,0.6,19.6,0.7,29.4c0,3,0,5.9,0,8.9c0,0.6,0.1,1.2,0.1,1.9c0.9,0,1.6,0,2.4,0c13.2,0,26.4,0,39.6,0c5.1,0,10.1-0.3,15.2-0.4 c6.8-0.2,13.4-1.7,19.7-4.3c6.2-2.5,11.7-6.3,16.1-11.5c6.8-8,8-17.8,8.3-27.6c0.3-6.8-3-12.5-7.6-17.4c-4.1-4.4-9.3-6.8-14.9-8.7 c-3.8-1.3-7.5-2.7-11.4-4.1c2.7-2.2,5.6-1,8.3-1.2c2.9-0.2,5.8,0,8.7,0c-0.1,0.1-0.3,0.4-0.5,0.7c0.6,0.3,1.2,0.7,1.9,1 c9.7,4,16.6,10.7,20.2,20.7c1.9,5.4,2.8,11,2,16.7c-0.5,3.7-0.7,7.6-1.9,11.1C439.4,412,437,416.2,435,420.5z M467.2,431.2 c26.4,0,52.6,0,78.8,0c0-6,0-11.9,0-18.1c-19,0-37.9,0-56.9,0c0-7.2,0-14.2,0-21.3c0-0.3,0-0.7,0.2-0.8c1.8-0.5,1-2,1-3 c0.1-1.9,0-3.9,0-5.8c0-4.1,0-8.2,0-12.5c18.6,0,36.9,0,55.3,0c0-0.9,0-1.6,0-2.3c-0.3-5-0.7-10.1-0.8-15.1c0-2-0.7-2.4-2.5-2.4 c-16.9,0.1-33.9,0-50.8,0c-0.8,0-1.6,0-2.4,0c0-14.2,0-28.1,0-42.1c1,0,1.8,0,2.6,0c16.9,0,33.9,0,50.8,0c2.1,0,2.8-0.6,2.6-2.7 c-0.2-2.2,0-4.4,0-6.6c0-3.1,0-6.1,0-9.3c-1.1,0-1.9,0-2.7,0c-19.7,0-39.4,0-59.1,0c-1.7,0-2.9-0.4-3.7-1.9 c3.8-0.2,7.5-0.6,11.3-0.6c17.7-0.1,35.4,0,53.1-0.1c1.8,0,2.4,0.4,2.4,2.3c-0.1,5.6,0,11.1,0,16.7c0,0.8,0,1.6,0,2.5 c-18.9,0-37.4,0-56,0c0,2.2,0,4.3,0,6.6c2.1,0,4,0,6.1,0c0,9.4,0,18.6,0,28.1c18.5,0,36.8,0,55.1,0c0,1.3,0,2.5,0,4 c-4.1,0-8,0-11.9,0c-3.9-0.1-7.8-0.3-11.7-0.3c-4.8,0-9.6,0.3-14.5,0.4c-7.2,0.1-14.5,0-21.7,0c-1,0-2.1-0.1-1.4,1.7 c18.3,0,36.6,0,55.2,0c0,2.7,0,5.2,0,7.9c2.3,0,4.3,0,6.5,0c0,5.7-0.1,11.3,0,16.8c0,2-0.5,2.6-2.5,2.6c-16.9-0.1-33.9,0-50.8,0 c-0.8,0-1.6,0-2.4,0c0,10.1,0,19.8,0,29.8c19,0,37.9,0,56.8,0c0.2,5.2,0.4,10.2,0.6,15.1c0.1,0,0.1,0,0.2,0c0-5.3,0-10.5,0-16 c-19,0-37.9,0-56.6,0c0-9.5,0-18.7,0-28.1c18.7,0,37,0,55.3,0c0-11.6,0-23,0-34.6c-18.5,0-36.8,0-55.6,0c0-3.3,0-6.5,0-9.6 c0-4.7,0-9.4,0-14c0-2.7,0-2.8,2.7-2.8c17,0,34,0,51,0c0.8,0,1.6,0,2.4,0c0-11.6,0-22.8,0-34.3c-0.6,0-1.2,0-1.7,0 c-25.8-0.1-51.6-0.3-77.4-0.4c-1.8,0-2.6-0.7-3-2.2c-0.6-2.1-1.1-4.3-1.6-6.5c-0.5-2.3-0.3-4.5-0.5-6.7c-0.1-1.2-0.1-2.9,0.6-3.5 c2-1.6,0.3-3.2,0.3-4.8c-1.9,1.6-3.8,3-5,5c-2.4,4.1-5.7,6.8-9.8,8.7c-4.3,1.9-8.8,2.4-13.5,1.8c-0.8-0.1-1.6,0.7-2.5,1 c0.3,0.7,0.6,1.4,1,2c2,2.3,4.3,4.5,6.1,7c4.3,5.7,4.1,12.2,3.1,18.9c-0.2,1.2-0.8,2.6,0.8,3.8c2.5-2.8,4.9-5.4,7.2-8.1 c0.3,0.1,0.5,0.2,0.8,0.3c0,41.5,0,83,0,124.5c0.3,0,0.6,0,0.8,0c0-21.7,0-43.3,0-65.2c2.4,0,4.5,0,6.8,0c-0.2-3.4-0.4-6.6-0.6-9.8 c-2,0-3.8,0-6.1,0c0-5.6,0-10.9,0-16.2c0-5.3-0.2-10.6,0.2-16.1c2.3,0,4.1,0,5.9,0c0.2-6.4,0.5-12.6,0.7-18.7c0.7,4.3,1,8.5,1,12.7 c0,5.3-0.3,10.7-0.4,16c-0.3,14.3-0.6,28.5-0.8,42.8c-0.1,3.4,0,6.9,0,10.3c0,1.8-0.5,3.5-0.3,5.3c0.2,2.9,0.9,5.8,1.1,8.7 c0.3,2.9,0.4,5.7,0.4,8.6C467.2,410.7,467.2,420.8,467.2,431.2z M326,576c1.1-0.2,2.2-0.5,3.2-0.5c4.4-0.2,8.8-0.3,13.1-0.4 c4.6-0.1,9.2-0.3,13.8-0.4c7.8-0.2,15.6-0.3,23.5-0.4c3.3,0,6.7,0,10.3,0c2.3,6.7,4.8,13.9,7.2,20.7c7.9,0,15.6,0,23.4,0 c-2.5-9.5-7.2-17.8-9.1-27.3c-1.3-6.6-4.5-12.9-7.2-19.2c-1.7-4-2.7-8.1-5.5-11.7c-2-2.6-2.6-6.1-3.8-9.3c-3.7-9.6-7.3-19.2-11-28.8 c-4.2-10.9-8.4-21.7-12.5-32.6c-0.4-1.1-0.8-1.6-2.1-1.6c-7.6,0.1-15.3,0.1-22.9,0c-1.3,0-1.9,0.5-2.3,1.5c-3.3,9-6.7,18-9.9,27.1 c-2.8,7.7-5.3,15.5-8.4,23.1c-3.1,7.5-5.4,15.3-9.2,22.6c-4.2,8.1-6.6,17-9.7,25.6c-0.9,2.4-1.1,5.1-1.7,7.6 c-1.7,6.7-4.4,13.1-6.7,19.7c-0.8,2.4-1.6,4.9-2.6,7.6c1.9-0.2,3.3-0.4,4.8-0.4c5-0.2,10-0.3,15-0.4c1.9-0.1,3.3-0.6,4-2.8 C321.7,588.9,323.9,582.5,326,576z M231.7,602.3c1,0,1.7,0,2.3,0c6.3-0.4,12.5-0.9,18.8-1.2c1.7-0.1,2.1-0.6,2.1-2.2 c-0.1-8.8,0-17.6,0-26.4c0-0.6-0.1-1.6,0.2-1.8c1.4-1,1.1-2.4,1-3.7c-0.3-10.9-0.2-21.7-1-32.6c-1-15.6-0.3-31.2-0.3-46.9 c0-5.2,0-5.2,5.3-4.1c-1.3,0-2.6,0-3.9,0c0,3.7,0,7.2,0,10.8c2.1,0,4,0,5.9,0c0,9.4,0,18.6,0,28.1c-2.1,0-4,0-5.9,0c0,2.1,0,4,0,6.2 c2.1,0,4,0,6.3,0c0,24.6,0,49,0,73.4c0.3,0,0.5,0,0.8,0c0-36.8,0-73.6,0-110.8c12.2,0,23.9,0,35.6,0c0-11.9,0-23.3,0-34.7 c-37.2,0-74.2,0-111.3,0c0,12,0,23.8,0,35.6c12,0,23.8,0,35.9,0c0,36.7,0,73.5,0,110.2c0.2,0,0.4,0,0.7,0c0-24.4,0-48.8,0-73.4 c2.4,0,4.5,0,6.3,0c0-2.3,0-4.3,0-6.4c-2.2,0-4.2,0-6,0c0-9.3,0-18.5,0-27.8c2.1,0,4,0,6,0c0-3.2,0-6.2,0-9.2c0-0.7,0.3-1.3,0.5-1.9 c0.6,0.3,0.7,0.5,0.7,0.7c0,9.1,0.2,18.2,0,27.3c-0.2,9,0.4,17.9-0.6,26.9c-1,9.3-0.5,18.8-0.6,28.2c0,0.3,0,0.7,0.1,1 c0.8,3,1.3,6.1,1.2,9.3c-0.2,4.5,0,8.9,0,13.4C231.7,594.1,231.7,598.1,231.7,602.3z M676.8,307.9c0-6.3,0-12.4,0-18.4 c-32.1,0-64,0-96.1,0c0,5.4,0.1,10.7,0,16c0,1.9,0.5,2.5,2.4,2.5c10.8-0.1,21.6,0,32.4,0c0.7,0,1.5,0,2,0c0.2,0.3,0.3,0.3,0.3,0.4 c0,8.4,0.2,16.8,0,25.2c-0.2,8.3,0.8,16.7-0.7,25.1c-0.7,4-0.7,8.2-0.5,12.3c0.4,7.1-0.8,14.1,1,21.3c1.2,5,0.6,10.5,0.6,15.8 c0.1,7.1,0,14.2,0,21.3c0,0.7,0,1.4,0,2.2c7.3,0,14.3,0,21.3,0c0.1-0.3,0.1-0.5,0.2-0.7c0.5-13.8-1-27.7,1.2-41.5 c0.6-3.6,0.2-7.3,0.1-11c-0.3-7.6-0.1-15.1-0.6-22.7c-0.9-15.1-0.5-30.2-0.6-45.3c0-0.7,0-1.4,0-2.2 C652.3,307.9,664.5,307.9,676.8,307.9z M668.3,465.6c-1.2,0-1.8,0-2.4,0c-7.2,0-14.5,0.1-21.7,0c-1.6,0-2.6,0.7-3.4,1.8 c-4.5,5.7-8.9,11.4-13.4,17.1c-6.3,7.9-12.8,15.8-19.1,23.7c-4.9,6.1-9.7,12.1-14.5,18.3c-0.4,0.5-0.5,1.6-0.3,2.1 c2.3,3.7,4.6,7.4,7.1,10.9c5.9,8.4,11.9,16.7,17.9,25c1.4,2,2.9,3.9,4.5,5.7c1.2,1.3,2.8,2.3,3.9,3.7c5.7,7.6,11.2,15.2,16.8,22.8 c0.3,0.4,0.8,0.7,1.2,0.8c2,0.2,4.1,0.4,6.1,0.4c5.5,0.2,11,0.3,16.4,0.4c1.2,0,2.4,0.2,4,0.4c-0.6-0.9-0.8-1.5-1.2-1.9 c-5.4-7.4-10.8-14.8-16.1-22.3c-1.4-2-2.2-4.5-3.6-6.5c-3.8-5.4-7.4-11-11.6-16c-4.1-5-7-11-12.5-15c-3.2-2.4-5.1-6.5-7.5-9.8 C635.3,506.6,651.6,486.3,668.3,465.6z M566.3,464.5c0,1,0,1.8,0,2.6c0,12,0.2,24.1-0.1,36.1c-0.2,11.9,1,23.9-0.7,35.8 c-0.6,4-0.6,8.1-0.4,12.1c0.2,6.8-0.3,13.6,0.9,20.5c1.2,6.9,0.5,14.1,0.7,21.1c0,0.8,0,1.6,0,2.7c7.7,0,15.1,0,22.7,0 c0-0.7,0-1.4,0-2.1c0-7,0-13.9,0-20.9c0-0.6,0-1.2,0.2-1.8c0.2-0.6,0.9-1.2,0.9-1.8c0.1-9.6,0.1-19.3,0-28.9c0-0.7-0.3-1.4-0.4-2.2 c-0.2-1-0.7-1.9-0.7-2.8c0-22.6,0-45.3,0-67.9c0-0.8,0-1.6,0-2.5C581.7,464.5,574.1,464.5,566.3,464.5z M236,700.2 c0.1-0.1,0.3-0.3,0.5-0.4c3.6-1.9,5.8-4.9,7.3-8.6c2.1-5.1,2.1-10.4,1-15.6c-1-5.2-3.6-9.6-8.3-12.7c-5-3.3-10.5-4.2-16.2-4.4 c-8.7-0.2-17.3-0.1-26-0.1c-0.6,0-1.2,0.1-1.7,0.1c0,30.3,0,60.5,0,90.7c8.7,0,17.2,0.1,25.8,0c3.2,0,6.4-0.3,9.5-0.8 c7.8-1.4,13.7-5.6,17.4-12.7c2.6-5,3.2-10.4,2.9-16c-0.3-5.6-2-10.6-6.1-14.6C240.3,703.3,238.1,701.9,236,700.2z M770.2,707.7 c6.4,13.9,12.8,27.8,19.2,41.6c5.9,0,11.5,0,17.3,0c-0.2-0.6-0.3-1-0.5-1.4c-4.8-10.1-9.5-20.3-14.3-30.4c-3.4-7.3-7-14.5-10.4-21.7 c-0.2-0.5-0.1-1.3,0.2-1.7c1.1-1.7,2.3-3.3,3.5-5c6-8.4,12-16.8,18-25.2c1.2-1.7,2.3-3.4,3.6-5.4c-6,0-11.5,0-17.1,0 c-0.6,0-1.5,0.4-1.9,1c-6.3,9.6-12.5,19.2-18.7,28.8c-2.2,3.4-4.5,6.6-6.7,10c-0.1,0-0.3-0.1-0.4-0.1c0-13.2,0-26.3,0-39.5 c-5.3,0-10.4,0-15.5,0c0,30.3,0,60.4,0,90.5c5.2,0,10.3,0,15.6,0c0-0.9,0-1.6,0-2.4c0-9,0-18,0-27c0-0.7,0.1-1.5,0.5-2.1 C765,714.4,767.6,711.1,770.2,707.7z M664.2,749.3c-3.9-15.4-7.7-30.5-11.5-45.7c-3.6-14.5-7.2-28.9-10.8-43.4 c-0.3-1.3-0.8-1.8-2.1-1.8c-5.6,0.1-11.1,0-16.7,0c-1.1,0-1.6,0.2-1.9,1.5c-1.3,5.8-2.8,11.6-4.2,17.4c-3.1,12.5-6.2,25-9.3,37.6 c-2.2,8.8-4.4,17.6-6.5,26.4c-0.6,2.6-1.1,5.2-1.7,7.9c5.3,0,10.5,0,15.6,0c1.7-7.6,3.3-15.1,5.1-22.5c0.2-0.7,0.9-1.7,1.4-1.7 c6.9-0.1,13.7-0.1,20.6-0.1c0.2,0.7,0.5,1.2,0.6,1.8c1.5,7.1,3,14.2,4.6,21.3c0.1,0.5,0.8,1.2,1.3,1.2 C653.7,749.4,658.9,749.3,664.2,749.3z M349.1,725c7,0,13.8,0,20.5,0.1c0.6,0,1.5,0.7,1.6,1.3c0.7,2.5,1.2,5.1,1.7,7.7 c1.1,5.1,2.3,10.2,3.4,15.3c5.6,0,11,0,16.5,0c-2.5-10-4.8-19.8-7.3-29.7c-2.1-8.3-4.2-16.5-6.3-24.8c-2.9-11.5-5.8-23.1-8.6-34.6 c-0.3-1.3-0.8-1.7-2-1.6c-5.6,0-11.1,0.1-16.7,0c-1.3,0-1.8,0.4-2.1,1.6c-0.7,3.2-1.4,6.3-2.2,9.4c-4.4,17.9-8.8,35.8-13.2,53.6 c-2.1,8.7-4.3,17.3-6.5,26.2c5,0,9.9,0,14.7-0.1c0.5,0,1.2-0.7,1.3-1.2c0.5-1.9,0.9-3.9,1.3-5.9C346.6,736.5,347.8,730.8,349.1,725z M729.4,685.2c-0.4-2.8-0.6-5.6-1.2-8.3c-2-8.8-6.6-15.5-15.6-18.2c-4.9-1.5-9.9-1.8-15.1-1.2c-5.7,0.8-10.7,2.9-14.7,6.9 c-4.3,4.2-6.6,9.6-8.3,15.3c-2.6,8.9-2.5,18-2.8,27.1c-0.2,4.8,0.7,9.6,1.2,14.4c0.6,6,2.1,11.8,5.1,17.1c2.9,5.2,7.1,9.1,12.8,10.9 c4.8,1.5,9.6,1.9,14.6,1.3c5.9-0.7,11.3-2.4,15.5-6.6c5.8-5.8,7.7-13.4,8.6-21.5c-5,0-9.9,0-14.7,0.1c-0.5,0-1.2,0.9-1.3,1.5 c-0.5,2.1-0.7,4.3-1.4,6.3c-2.6,7.6-10.2,9.7-15.8,6.2c-3.3-2-4.5-5.4-5.6-8.8c-2.2-7.1-2.2-14.5-2.4-21.7c-0.2-6.6,0.4-13.4,1.2-20 c0.6-4.8,1.9-9.5,5.7-13.1c4.6-4.3,13.2-3.2,15.8,2.5c1.4,3,2,6.3,3,9.7C718.8,685.2,724,685.2,729.4,685.2z M647.8,421.1 c0.2,0,0.5,0,0.7,0c0-35.1,0-70.3,0-105.5c12.4,0,24.7,0,37,0c0-11.5,0-22.8,0-34.1c-37.7,0-75.3,0-112.9,0c0,11.4,0,22.7,0,34.2 c12.4,0,24.6,0,37,0c0,35.4,0,70.5,0,105.7c0.2,0,0.5,0,0.7,0c0-21.7,0-43.4,0-65.3c2.5,0,4.6,0,6.8,0c-0.2-3.4-0.4-6.6-0.5-9.7 c-2,0-3.9,0-6.1,0c0-10.5,0-21,0-31.6c-12.4,0-24.6,0-36.7,0c0-0.2,0-0.3,0-0.5c14.3,0,28.5,0,42.8,0c0-2,0-4,0-6.2 c-12.4,0-24.7,0-37,0c0-6.8,0-13.3,0.1-19.8c0-0.5,0.8-1.5,1.3-1.5c4.4-0.1,8.8-0.1,13.2,0c2.7,0,5.4,0.3,8.1,0.3 c5.1,0,10.2-0.2,15.3-0.2c3.7,0,7.4,0.2,11.1,0.2c5.7,0,11.5-0.3,17.2-0.2c10.3,0,20.5,0.2,30.8,0.3c0.7,0,1.3,0,1.9,0 c0,7.2,0,14,0,21.1c-12.4,0-24.7,0-37,0c0,2,0,3.8,0,5.6c14.3,0,28.5,0,42.7,0c0.1,0.2,0.1,0.4,0.2,0.6c-0.6,0.1-1.2,0.4-1.8,0.4 c-10.9,0-21.8,0-32.6,0c-0.7,0-1.5,0-2.4,0c0,10.6,0,20.9,0,31.5c-2.2,0-4.1,0-6.1,0c-0.2,3.4-0.4,6.6-0.6,9.9c2.4,0,4.5,0,6.9,0 C647.8,378,647.8,399.6,647.8,421.1z M803,455.7c0,47.8,0,95.3,0,142.8c0.2,0,0.3,0,0.5,0c0-24.3,0-48.6,0-73.1c2.4,0,4.3,0,6.3,0 c0-2.2,0-4.1,0-6.2c-2.1,0-4,0-5.9,0c0-9.4,0-18.6,0-28.1c2.1,0,4,0,6.1,0c0-10,0-19.7,0-29.7c0.9,0,1.6,0,2.4,0 c11.6,0,23.3-0.1,34.9,0c10.6,0.1,21.3-0.7,31.8,0.8c6.6,0.9,12.9,2.6,18.8,5.7c8.3,4.3,14.9,10.5,18.6,19.1c1.4,3.2,3,4.3,6.1,3.7 c1.2-0.2,1.8,0.3,2.1,1.6c0.8,3.6,1.8,7.2,2.4,10.8c1,5.2,1.3,10.4,0.3,15.6c-2.1,0-4,0-5.9,0c-0.4,2.1-0.8,4.2-1.2,6.4 c2.2,0,4.3,0,6.7,0c-5.1,20.9-18.8,32.7-38.6,38.8c7.3,10.5,14.6,20.9,21.9,31.3c0.2-0.1,0.3-0.2,0.5-0.4 c-6.9-10.1-13.8-20.2-20.7-30.3c0.1-0.1,0.2-0.3,0.3-0.3c0.3-0.1,0.6-0.3,0.9-0.4c9.8-3.2,18.5-8.1,25.4-16c4.4-5,7.6-10.7,9.6-16.9 c2.5-8,3.2-16.2,2.2-24.5c-0.7-6-1.6-11.9-3.8-17.5c-4.3-11.3-11.7-19.8-22.5-25.4c-10.6-5.5-22-7.7-33.9-7.8 c-20.9-0.2-41.9,0-62.8,0C804.9,455.7,804.1,455.7,803,455.7z M314.8,736.5c-11,0-21.8,0-32.8,0c0-26.1,0-52,0-78c-5,0-9.7,0-14.5,0 c-1.2,0-1.6,0.5-1.6,1.6c0,1.3,0,2.6,0,3.9c0.1,27.9,0.3,55.8,0.4,83.7c0,0.5,0.1,1,0.1,1.6c15.5,0,30.9,0,46.5,0 C313.6,745.1,314.2,740.9,314.8,736.5z M197.5,318.1c0.2,0.1,0.4,0.2,0.6,0.4c5.2-7.6,10.7-14.9,17.7-21c7-6.1,14.6-11.2,23.1-15.7 c-0.3,6.4-0.7,12.4-0.9,18.4c0,1.4-0.5,2.1-1.8,2.7c-10.2,4.8-19.2,11.3-27.2,19.2c-0.9,0.9-1.6,2-2.3,2.9c0.2,0.2,0.3,0.3,0.5,0.5 c0.5-0.5,1-1,1.5-1.4c3.7-3.1,7.2-6.4,11-9.3c9.4-7.1,19.7-12.4,30.8-16.3c7.1-2.5,14.3-4.8,21.2-7.1c0.2-2.2,0.5-3.9,0.6-5.6 c0.2-4.7,0.3-9.3,0.5-14c0-0.6,0.6-1.5,1.1-1.6c3.3-0.5,6.7-1,10.1-1.3c2.9-0.3,5.9-0.2,8.8-0.6c1.4-0.2,1.5,0.2,1.5,1.3 c0,2.6,0,5.3,0,7.9c-0.1,3.2-0.3,6.4-0.4,9.7c0,1.5-0.5,2-2,2c-3.2,0-6.3,0.3-9.5,0.4c0.2,2.6,1.8,1.2,2.7,1.2 c5.5-0.1,11.1-0.4,16.6-0.3c4.1,0,8.2,0.4,12.2,0.8c2.7,0.2,3.5,0.1,4.6-1.4c-8.2-0.5-16.2-1-24.4-1.4c0.6-1.7,1-3.5,2-4.9 c1.5-2,3.4-3.7,5.2-5.4c0.7-0.7,2-1,2.4-1.8c0.7-1.5,1-3.1,1.3-4.7c0.2-1,0-2,0-3.3c4,0.4,7.7,0.6,11.3,1.1 c4.8,0.6,9.6,1.3,14.4,2.3c8.4,1.8,16.5,4.4,24.3,7.9c0.3,0.1,0.8-0.1,1.3-0.2c0-0.2,0-0.5,0.1-0.7c-5.3-2-10.6-4.4-16-6 c-6-1.8-12.2-3.2-18.5-4.2c-6.3-1-12.6-1.6-19-2c-3.6-0.2-7.2,0.2-10.9,0.3c-7.7,0.2-15.2,1.3-22.7,2.9c-9.1,1.9-17.9,4.7-26.4,8.7 c-8.9,4.1-17.1,9.1-24.6,15.5c-5.9,5.1-11.3,10.6-15.9,16.9C200.5,313.1,199,315.7,197.5,318.1z M465.5,171.8 c-2.4,0.5-5.2,0.8-7.8,1.6c-6.5,2-12.9,4.3-19.3,6.5c-0.5,0.2-1,0.9-1,1.4c-0.1,1.4,0.1,2.7-0.1,4.1c-0.3,2.1,1,4.4-0.7,6.4 c0,0,0.2,0.1,0.2,0.1c0.4,0,0.7,0,0.8,0c-0.2,1.8-0.4,3.6-0.6,5.4c0.3-0.2,0.5-0.4,1-0.8c-0.1,1.7,1,3.4-1.2,4.3 c-8.5,3.4-16.5,7.8-23.6,13.7c0.7,0.1,1.4-0.1,1.9-0.4c4.2-2.5,8.2-5.2,12.5-7.5c3.6-2,7.4-3.6,11.1-5.3c1-0.5,1.8-0.8,0.9-2.2 c4.1-1.3,8.1-2.7,12.1-3.8c3.8-1.1,7.7-1.8,11.5-2.8c0.8-0.2,2.1-1.1,2.1-1.6C465.6,184.6,465.5,178.2,465.5,171.8z M758.7,332 c-14.3-8.7-30-13.3-46.5-15.1c1.2,0.8,2.5,1.4,3.8,1.7c1.5,0.3,3.1,0.4,4.7,0.6c0,0.4,0.1,0.8,0.1,1.1c0,2.4-0.2,4.8,0.1,7.2 c0.5,3.5,3.4,5.7,5.1,8.5c0.1,0.2,0.8,0.1,1.2,0.1c8.9-1.4,17.8-2.9,27-4.4c0,0.1,0.1-0.4,0.2-0.6 C755.9,331.3,757.3,331.7,758.7,332z M445.5,211.4c0,0.3-0.1,0.5-0.1,0.8c1,0.6,2.1,1.2,3.1,1.9c0.9,0.6,1.8,1.4,2.7,2.1 c1.4,1,3.1,1.6,4.2,2.8c0.9,1.1,1.7,1.7,3,1.2c1.1-0.4,2.3-0.9,3.2-1.7c1.3-1,2.5-2.3,3.6-3.6c0.3-0.3,0.6-0.8,0.6-1.2 c0.1-2.5,0-4.9,0-8C458.9,207.7,452.2,209.5,445.5,211.4z M636.3,600.4c0.2-0.1,0.4-0.3,0.5-0.4c-13.2-18.1-26.3-36.1-39.6-54.4 c0,18.2,0,35.9,0,53.7c0.2,0,0.5,0,0.7,0c0-16.6,0-33.3,0-49.9c0.2-0.1,0.4-0.1,0.6-0.2C611.1,566.2,623.7,583.3,636.3,600.4z M487.4,190.1c-0.1,0.2-0.1,0.3-0.2,0.5c0.6,0.3,1.2,0.7,1.8,0.7c5.7,0.3,11.5,0.3,17.2,0.9c6.5,0.7,13,1.6,19.4,3 c11.1,2.4,21.7,6.3,31.8,11.4c0.5,0.2,1.1,0.2,1.7,0.2c-0.4-0.5-0.7-1.1-1.2-1.3c-6.9-3.6-14-6.5-21.4-8.9 c-11.4-3.7-23.2-5.5-35.1-6.5C496.8,189.8,492.1,190.1,487.4,190.1z M77.5,604.4c-0.2,0-0.4,0-0.6,0c0,0.7,0,1.3,0,2c0,9,0,18,0,27 c0,4.1,0,4.1,4,4.4c0.6,0.1,1.2,0.3,1.8,0.4c6.4,0.6,12.8,1.4,19.3,1.6c11.5,0.3,23,0.6,34.3-1.6c11.8-2.3,23-6,32.5-13.9 c6.6-5.4,11.5-12,14.3-20.1c0.1-0.3,0.2-0.7,0.2-1c-1.3,2.2-2.1,4.6-3.3,6.7c-3,5-6.4,9.5-10.9,13.3c-4.7,3.9-9.9,7-15.6,9.2 c-6.8,2.8-13.9,4.8-21.2,5.4c-5.4,0.5-10.8,1.5-16.2,1.5c-7.8,0-15.6-0.7-23.3-1.2c-4.9-0.3-9.9-0.8-15.2-1.3 C77.5,626,77.5,615.2,77.5,604.4z M481.6,202.2c0.2,1.5,1.2,1.6,2.4,1.6c3.7-0.1,7.5,0,11.2,0c7.6-0.2,15,0.7,22.5,2 c8.8,1.5,17.3,3.9,25.6,7.1c0.6,0.2,1.3,0,2,0C525,203.7,503.6,200.7,481.6,202.2z M555.6,183.7c-22.8-12.9-47.5-17.1-73.5-15.2 c8.2,0.7,16.5,0.9,24.8,1.5c8.5,0.6,16.7,2.5,24.9,4.8C540,177.1,547.8,180.3,555.6,183.7z M224.3,603.2c-0.2,0-0.3,0-0.5,0 c0,2.5,0,5.1,0,7.8c3.4-0.3,6.9-0.7,10.4-0.9c8-0.5,16.1-0.8,24.1-1.3c1.6-0.1,3.2-0.3,4.5-0.5c0-2.2,0-4.1,0-6.1 c-0.2,0-0.4,0-0.6,0c0,1.9,0,3.7,0,5.5c-2.7,0.2-5,0.5-7.4,0.6c-3.8,0.2-7.5,0.2-11.3,0.4c-2.7,0.2-5.4,0.6-8.1,0.7 c-3.7,0.1-7.3,0-11.2,0C224.3,607.7,224.3,605.5,224.3,603.2z M435.2,180.8c-6.6,0.9-30.2,18-31.8,23 C412.7,194.3,423.4,186.8,435.2,180.8z M288.3,301.3c0,0.1-0.1,0.3-0.1,0.4c1.1,0.2,2.1,0.6,3.2,0.7c5,0.1,10.1,0.1,15.1,0.1 c0.6,0,1.3-0.4,1.9-0.7c-0.1-0.2-0.1-0.3-0.2-0.5C301.6,301.3,294.9,301.3,288.3,301.3z M596.4,520.7c-2.3,0-4,0-5.7,0 c0,2.1,0,4,0,6.3C593.4,525.5,594.2,522.7,596.4,520.7z M647.5,439c0.2,0.1,0.4,0.1,0.5,0.2c1-1.7,0.1-3.7,0.3-5.5 c-0.2,0-0.4,0-0.6-0.1C647.7,435.4,647.6,437.2,647.5,439z M669.1,255.2c0,0-0.1-0.1-0.1-0.1c0,0-0.1,0.1-0.1,0.1 c0,0,0.1,0.1,0.1,0.1C669,255.3,669,255.2,669.1,255.2z"></path> <path style="fill:#FFFFFF;" d="M490.2,657.4c0.4,6.2,0.9,12.1,1.1,18.1c0.2,4.9,0,9.9,0,14.9c0,0.7,0,1.4,0,2.2 c0.2,0,0.3,0.1,0.5,0.1c3.5-5.4,7-10.9,10.5-16.3c3.7-5.7,7.5-11.4,11.2-17.2c0.8-1.3,1.8-1.8,3.4-1.8c5.7,0.1,11.4,0.1,17.1,0 c1.4,0,2.2,0.4,2.3,1.8c0.1,1.9,1.9,3.8-0.1,6.1c1.3,0.2,2.3,0.4,3.7,0.6c-2.2,2.9-4.2,5.7-6.2,8.4c-6.6,8.8-13.2,17.6-19.8,26.4 c-0.8,1-0.9,1.8-0.3,3.1c7.3,15.1,14.5,30.1,21.5,45.3c1.7,3.7,2.7,7.7,4.1,11.8c-0.5,0-1.2,0.1-1.8,0.1c-6.6,0-13.2,0-19.8,0 c-1.5,0-2.4-0.4-3-1.8c-5.6-11.9-11.3-23.7-17-35.5c-0.3-0.6-0.6-1.1-1.1-2.1c-2.5,3.2-5.4,5.3-5.3,9.8c0.4,9.1,0.1,18.2,0.1,27.3 c0,1.8-0.6,2.4-2.4,2.3c-2.1-0.1-4.1-0.1-6.2,0c-0.7,0.1-1.7,0.7-1.8,1.3c-7.9,28.9-20.1,56-32.1,83.3c-1.1,2.5-2.3,5-3.4,7.5 c-0.1,0.1,0,0.3-0.1,0.5c4-0.4,8-0.9,12-1.3c13.5-1.3,26.7-0.3,39.3,5.2c3.9,1.7,7.4,3.9,9.9,7.5c1.5,2.1,2.1,4.4,0.6,6.7 c-1.4,2.2-3.6,2.4-6,1.8c-5.7-1.4-11.4-2.8-17.2-3.9c-9.4-1.9-18.8-2.1-28.3-1.2c-5.2,0.5-10.3,1.4-15.5,2.2c-1.7,0.2-3,1-4.1,2.3 c-3.1,3.8-6.8,6.9-11.2,9.3c-4.1,2.3-8.4,3.7-13.2,2.9c-7.4-1.3-10.3-6.9-7.1-13.7c2.2-4.8,5.9-8.2,10.5-10.6 c2.7-1.4,5.6-2.5,8.5-3.4c1.4-0.5,2.3-1.2,2.9-2.5c5.9-14.6,12.1-29.1,17.8-43.7c6.2-16,10.9-32.4,14.8-49.1 c1.2-5.3,2.2-10.6,3.5-15.9c0.9-3.7,2.7-7,5.7-9.6c0.7-0.6,1-1.9,1-2.8c0.1-21.8,0-43.6,0.1-65.5c0-1.2,0-2.2,1.1-3.2 c0.9-0.8,0.8-2.8,1.1-4.2c0.7-3.6,0.6-3.6,4.3-3.6C480.7,657.4,485.4,657.4,490.2,657.4z M489.1,658.5c-5,0-9.7,0-14.4,0 c-1.3,0-1.3,0.9-1.3,1.9c0.1,24.4,0.3,48.8,0.4,73.2c0,0.5,0.3,1,0.7,1.8c1.3-2.3-0.8-5.1,1.2-5.8c4.7,0,8.4,0,12,0 c0,6.3,0,12.4,0,18.4c-1.5,0.2-2.8,0.3-4.1,0.5c0,0.3,0.1,0.5,0.1,0.8c1.7,0,3.4,0,5.3,0c0-0.9,0-1.6,0-2.3c0-9,0-18,0-27.1 c0-0.8,0.2-1.6,0.6-2.2c1.1-1.6,2.3-3.2,3.5-4.7c1.3-1.7,2.7-3.3,4.1-5.1c6.5,14.1,12.8,27.9,19.1,41.5c5.9,0,11.6,0,17.5,0 c-8.6-18.3-17.2-36.4-25.8-54.6c8.5-12,17-23.9,25.7-36.2c-6.1,0-11.5-0.1-17,0.1c-0.8,0-1.8,0.6-2.2,1.3 c-6.8,10.3-13.5,20.6-20.3,30.9c-1.7,2.5-3.3,5.1-5,7.6c-0.1-0.1-0.2-0.1-0.3-0.2C489.1,685.1,489.1,671.9,489.1,658.5z M438.2,856.3c1.8-3.8,3.6-7.4,5.2-11.2c4.4-9.9,8.8-19.8,13-29.8c3.4-8.1,6.9-16.2,9.9-24.5c3.5-9.7,6.6-19.5,9.6-29.3 c1.8-5.8,3.1-11.8,2.8-18c-0.1-1.5-0.5-3.3-1.5-4.5c-3-3.7-7.6-3.1-10.5,1.2c-2.6,3.9-3,8.4-4.1,12.8c-2.8,11.1-5.2,22.3-8.3,33.2 c-4.4,15.2-9.8,30-15.9,44.6c-2.9,6.9-5.7,13.9-8.8,20.8c-1.3,2.9-1.4,6.9-5.7,7.7c1.7-0.1,3.2-0.1,4-2.2c2.9-6.9,6.1-13.7,9.1-20.5 c1.5-3.4,3-6.9,4.3-10c3.2,0,6,0,9.2,0c-4.6,10.5-9.1,20.6-13.5,30.8c7.3-0.9,14.4-2.1,21.6-2.6c8-0.5,16-0.3,23.8,1.5 c6.3,1.5,12.3,3.5,17.5,7.5c1.3,1,2.8,2.2,2.2,4.7c-2.8-0.7-5.5-1.2-8.1-2c-8-2.4-16.2-3.6-24.5-4c-9.5-0.5-18.9,0.3-28.3,2 c-4,0.8-7.9,1.5-10.6,5.3c-1.8,2.5-4.4,4.3-6.7,6.4c0.1,0.1,0.2,0.3,0.3,0.4c2.3-2.1,4.7-4.2,7-6.4c1.3-1.2,2.3-3.2,3.7-3.5 c5.6-1.3,11.2-2.4,16.9-2.9c6.2-0.6,12.5-0.6,18.7-0.4c4,0.1,8.1,0.7,12.1,1.5c6,1.2,11.9,2.8,17.9,4.1c0.7,0.2,2,0.1,2.2-0.4 c0.4-0.6,0.2-1.7,0-2.5c-0.1-0.5-0.6-1.1-1-1.5c-2.2-1.7-4.4-3.7-6.9-5c-7.6-3.9-15.8-5.3-24.2-5.8c-4.2-0.3-8.5,0-12.7,0.4 C451.4,854.8,444.9,855.6,438.2,856.3z"></path> <path style="fill:#FFFFFF;" d="M461.1,721.9c-0.4,4.8-0.7,9.6-1.2,14.3c-1.8,14.6-11.3,24.3-26,26.1c-6.8,0.8-13.7,0.5-20.2-2.4 c-9.3-4.2-14.1-12-16.4-21.5c-1.2-5.1-1.8-10.4-2.1-15.7c-0.3-6.2-0.4-12.4,0-18.5c0.7-11.1,3.3-21.7,10.5-30.7c1.7-2.2,3-4.7,4.7-7 c6.2-8.2,14.9-10.8,24.7-10.3c5.7,0.3,11.1,1.7,15.7,5.2c5.4,4.1,8,9.9,9.3,16.4c0.8,4,1.4,8,0.2,12.2c-0.5,1.6,0,3.5,0.1,5.3 c0.1,1.4-0.5,1.8-1.8,1.8c-6,0-12,0-18,0c-1.2,0-1.8-0.4-1.9-1.6c-0.3-2.2-0.5-4.5-1.1-6.7c-1.5-5.7-4.6-7.2-8.8-6.9 c-5,0.4-8.2,4-8.3,8.8c-0.2,7.6-0.5,15.1-0.3,22.7c0.1,5.7,1,11.4,3.2,16.8c2.3,5.6,7.2,7.9,12.6,5.9c1.6-0.6,2.4-1.5,2.5-3.3 c0.1-1.4,0.5-2.5,1.6-3.7c1.3-1.5,1.7-3.8,2.3-5.8c0.4-1.3,0.9-1.7,2.3-1.7c5.4,0.1,10.7,0.1,16.1,0.1 C460.8,721.7,460.9,721.8,461.1,721.9z M460,685.2c-0.5-3.3-0.8-6.3-1.6-9.2c-1.8-7.2-5.5-13-12.5-16.2c-5.6-2.5-11.5-2.9-17.7-2.2 c-10,1.2-16.7,6.7-20.7,15.5c-3.8,8.1-4.7,16.9-5.1,25.7c-0.2,5.4,0.2,10.8,0.4,16.2c0.2,6.2,1.2,12.4,3.3,18.3 c2.7,7.7,7.4,13.6,15.5,16.2c5.3,1.7,10.8,2,16.3,1.1c5.2-0.8,9.9-2.9,13.8-6.8c3.9-3.9,6-8.8,7.3-14c0.6-2.3,0.7-4.7,1.1-7.1 c-5.6,0-10.7,0-15.7,0c-0.4,2.1-0.5,4.1-1.1,6c-2,6.4-4.9,9.4-11.1,9.6c-4.6,0.1-8.5-3.3-10.4-8.5c-2.2-6.1-2.6-12.5-2.8-18.8 c-0.2-6-0.1-12.1,0.4-18.1c0.4-4.5,1.3-9.1,2.5-13.5c1-3.5,2.9-6.6,6.7-8.1c5.3-2.2,11.5,0.1,13.4,5.4c1,2.8,1.6,5.8,2.4,8.7 C449.4,685.2,454.4,685.2,460,685.2z"></path> <path style="fill:#FFFFFF;" d="M383.5,843.6c2.3-4.9,4.3-9.7,6.8-14.2c4.6-8.1,11.9-12.4,21-14.4c-1-0.3-2-0.6-3-0.8 c-9.2-2.4-15.8-7.8-19.7-16.6c-1.4-3.2-2.9-6.3-4.5-9.5c-0.5-1.1-0.6-1.7,0.7-2.4c19.4-11.3,43.2-1.2,47.2,21.2 c1.9,10.4,0.9,20.3-5.2,29.1c-6.8,9.7-16.3,13.8-28.1,12.9C393.3,848.5,388.4,846.5,383.5,843.6z M392.7,842.8 c6.7,2.6,17.9,2.5,27.3-5.7c6.3-5.5,8.9-12.9,9.6-21.1c-1.9-0.2-3.5-0.6-5.1-0.5c-4.7,0.3-9.5,0.5-14.2,1.2 c-9.8,1.6-16.2,7.5-20.3,16.2c-0.5,1.2-0.9,2.4-1.4,3.6c3-5.7,6.2-11.2,11.7-14.8c5.5-3.6,11.6-5,18.6-5.2c-0.7,0.9-1,1.5-1.4,1.9 c-1.3,1.4-2.6,2.7-4,4c-1.5,1.5-0.3,3.3-0.5,4.9c-0.2,1.5,0.2,3.1,0.3,4.7c0,0.1-0.3,0.3-0.3,0.5c-0.1,0.5-0.3,1-0.2,1.4 c0.1,0.9,0.7,1.7,0.6,2.5c-0.2,1.6,0.2,3.8-1.6,4.4c-3.4,1.1-7,2.1-10.5,2.5C398.6,843.7,395.8,843.1,392.7,842.8z M386.5,786.5 c1.6,3.4,3,6.8,4.7,10c2.6,5.1,6.4,9.1,11.6,11.5c8.5,3.9,17.5,4.3,26.6,3.2c0.2-5.4-2.7-9.6-4.7-13.6c-1,3.7-2,7.7-3,11.6 c-0.3,1.3-1.2,1.9-2.6,1.7c-1.9-0.3-3.9-0.6-5.8-0.8c-6.3-0.8-11.8-3.1-16.4-7.6c-1.2-1.2-1.3-2-0.5-3.5c2.6-4.3,5.1-8.6,7.5-13 c0.8-1.5,2-1.7,3.4-1.5c0.7,0.1,1.4,0.4,2.1,0.6c4.3,1.3,8.1,3.5,11.3,6.6C415.4,783.8,399.4,779.1,386.5,786.5z"></path> <path style="fill:#FFFFFF;" d="M553.3,726.6c0.9,1.8,1.6,3.6,2.5,5.1c2,3.6,5.3,4.8,9.1,3.5c3.5-1.1,4.1-4.2,4.6-7.2 c0.4-2.3,0.5-4.6,0.5-7c0-20.2,0-40.5,0-60.7c0-0.8,0-1.6,0-2.6c0.5-0.1,1-0.2,1.4-0.2c5.2,0,10.5-0.1,15.7,0c0.7,0,1.7,0.6,2.1,1.1 c1.3,2,2.4,4.2,3.7,6.7c1.4-0.2,1.4,1.2,1.4,2.6c0,21.7,0,43.5,0,65.2c0,5.7-1,11.2-3.6,16.4c-3.1,6.2-8,10.3-14.7,11.9 c-8.6,2.1-17.2,2.1-25.3-2.3c-6.7-3.7-10.4-9.6-12.3-16.8c-0.2-0.6,0.7-1.4,1.3-2.5c-0.5-2-1.1-4.4-1.8-7.1 C543,730.9,548.1,728.8,553.3,726.6z M539.5,733.5c0,0.3-0.1,0.6,0,0.8c2.2,7.3,6.5,12.8,13.9,15.5c5,1.8,10.1,2,15.2,1.1 c4-0.7,7.8-2.1,10.9-5c5.5-5.2,7.4-12,7.8-19.2c0.4-6.7,0.1-13.5,0.1-20.2c0-15.1,0-30.1,0-45.2c0-0.7,0-1.5,0-2.3 c-5.5,0-10.7,0-16.1,0c0,0.9,0,1.8,0,2.6c0,20.4,0,40.7,0,61.1c0,2.4-0.4,4.9-0.9,7.2c-0.7,3.7-2.8,6.2-6.7,6.9 c-3.4,0.6-6-0.8-8-3.4c-1.2-1.6-2-3.4-3.1-5.3C548.2,729.9,543.9,731.7,539.5,733.5z"></path> <path style="fill:#FFFFFF;" d="M582.1,823.4c1.4,3.6,2.7,6.9,3.9,10.2c0.1,0.4,0,1-0.3,1.3c-6.6,8.3-20.5,14.6-31.9,10.7 c-6.5-2.2-10.6-8-10.7-14.8c-0.1-11,4.3-20.2,11.4-28.3c5.1-5.8,11.4-9.9,18.9-11.7c3.9-0.9,7.9-1.1,11.8-0.2 c7.6,1.6,11.2,7.5,9.2,15.1c-1.9,7.2-6.9,11.7-13.1,15c-5.2,2.8-10.7,4.5-16.6,5.2c-1.7,0.2-2,1-1.9,2.4c0.1,3.6,1.1,4.5,4.7,4 c4.6-0.7,8.1-3.5,11.5-6.4C580,825.2,580.9,824.4,582.1,823.4z M559.5,822.1c5.6-0.4,11.2-1.5,16.2-3.9c3.5-1.7,6.9-3.8,9.8-6.3 c3-2.6,4.8-6,5.3-10.2c0.3-3-0.3-5.4-2.4-7.4c-4-3.9-9.1-3.4-13.8-2.7c-10.6,1.7-18.2,8.2-24,17c-3.2,4.9-5.4,10.3-6.1,16.1 c-0.3,2.7-0.6,5.4,1,8c0-2.6,0-5.1,0-7.7c4.2,0,8,0,11.9,0c0.4,2.8,0.2,5.7,2.7,7.7C558.3,829.3,558.5,825.8,559.5,822.1z M579.4,826.8c-2.9,2-5.8,4-8.8,6.1c3.5-0.5,5.7-2.9,8.4-4.5c0.3,0.7,0.7,1.4,1,2.2c0.3,0.7,0.5,1.4,0.7,2.1 C581.6,831.8,581.3,830.6,579.4,826.8z"></path> <path style="fill:#FFFFFF;" d="M754.3,193.4c32.9,16,53.2,46.9,51.7,80.6c-1.1-8-4.3-15.2-8-22.2c-3.1-5.7-6.9-11-11.3-15.7 c-5.1-5.5-10.6-10.4-16.9-14.4c-4.2-2.7-8.6-5-12.9-7.5c-0.6-0.3-1.3-1-1.3-1.6c-0.5-6-0.9-12.1-1.3-18.1 C754.2,194.1,754.3,193.8,754.3,193.4z"></path> <path style="fill:#FFFFFF;" d="M806.1,308.2c-1.1-7.6-3.9-14.7-7.7-21.3c-2.9-4.9-6.1-9.7-9.7-14.2c-7.9-9.7-17.8-16.9-28.8-22.7 c-0.4-0.2-0.7-0.6-1-0.6c-3.5-0.7-3.6-3.5-3.7-6.1c-0.3-5-0.6-9.9-0.8-14.9c0-0.2,0.1-0.4,0.2-0.9c15.4,8,28.5,18.5,38.2,33 C802.2,275,806.4,291,806.1,308.2z"></path> <path style="fill:#FFFFFF;" d="M187.3,327.6c-2-36.9,23.9-67.2,51.6-79.9c-0.3,4.6-0.7,9.1-1,13.6c-0.1,1.5,0.1,3.1-0.1,4.5 c-0.1,0.9-0.7,2-1.4,2.4c-6.8,3.7-13.5,7.4-19.5,12.3c-5,4.1-10,8.2-13.8,13.5c-3.6,5.2-7.1,10.5-10.2,16 C190.1,315.5,188.2,321.4,187.3,327.6z"></path> <path style="fill:#FFFFFF;" d="M238.8,213.4c-0.3,6.4-0.5,12.6-1,18.8c0,0.7-1,1.5-1.7,2c-5.1,3.1-10.3,5.8-15.2,9.2 c-3.8,2.6-7.1,5.8-10.5,8.8c-7.9,7-13.7,15.5-18,25.1c-2.2,4.9-3.7,10.1-5.2,14.2C185.5,259.4,207.8,228.1,238.8,213.4z"></path> <path style="fill:#FFFFFF;" d="M754.2,261.9c29.6,14.6,49.8,41.8,51.5,71.2c-1.6,0.2-2.3-0.5-2.8-2c-3-8.3-7.4-15.8-12.9-22.5 c-3.7-4.4-7.9-8.5-12.2-12.2c-6.4-5.6-13.7-10-21.4-13.7c-0.4-0.2-0.9-0.7-0.9-1.2c-0.2-1.9-0.3-3.8-0.5-5.7c-0.3-4-0.6-8-0.8-12 C754.2,263.3,754.2,262.7,754.2,261.9z"></path> <path style="fill:#FFFFFF;" d="M503.5,846.7c0-7.3-0.1-14.3,0-21.3c0.1-9.3,0.3-18.7,0.6-28c0.2-5.7-0.8-4.3,4.3-6.1 c2.6-0.9,5.6-1.1,8.5-0.9c4,0.2,6.9,3.7,6.7,8c-0.1,4.9-0.7,9.7-1,14.6c-0.2,2.5-0.4,5.1-0.6,7.6c0.2,0.1,0.3,0.2,0.5,0.3 c1.6-2.5,3.3-4.8,4.8-7.4c2.6-4.6,4.4-9.3,3.9-14.8c-0.3-3.9,2.8-7.7,6.6-9c4.2-1.4,8.4-0.4,10.8,2.8c2.3,3.2,2.1,6.8,1.2,10.5 c-1.5,6.1-4.7,11.3-8.7,15.9c-8,9.3-16.5,18.3-24.7,27.3c-0.3,0.4-0.9,0.7-1.4,0.7C511.2,846.8,507.3,846.7,503.5,846.7z M527.2,825.7c-1.9,2.3-3.9,4.6-6.2,7.3c0.9-0.4,1.4-0.4,1.7-0.7c2.9-3.1,5.9-6.2,8.6-9.4c3.2-3.7,6.4-7.4,9.2-11.4 c2.8-4.1,5.5-8.4,5.6-13.6c0.1-2.7,0.1-5.5-2.8-6.9c-5-2.5-10.8,1.2-10.9,6.4c0,2.6,0,5.4-0.7,7.9c-1.9,6.5-5.7,12-9.8,17.3 c-1.5,1.9-2.9,3.8-4.3,5.7c-0.1-4.2,0.2-8.1,0.5-12c0.1-1.8,0.3-3.7,0.5-5.5c0.4-4.7,0.9-9.3,1.1-14c0.1-2.6-1.9-4.9-4.3-5.1 c-3-0.2-6-0.2-8.8,1.2c-0.4,0.2-0.9,0.9-0.9,1.3c-0.2,2-0.4,4.1-0.4,6.1c-0.2,10.4-0.3,20.7-0.4,31.1c0,0.5,0.1,1,0.2,1.4 c0.1,0,0.3,0,0.4,0c0.3-2.4,0.5-4.9,0.8-7.4c3.2,0,6.3,0,9.7,0c0,2,0,4,0,6C518.9,827.7,521.4,823.5,527.2,825.7z"></path> <path style="fill:#FFFFFF;" d="M487.7,829.7c1-0.5,1.6-0.8,2.4-1.2c0.8,3.1,1.5,6.1,2.2,9.1c0.1,0.4-0.1,1-0.4,1.3 c-5.5,5.5-11.8,9.2-20,7.6c-5.6-1-8-5.1-6.1-10.5c2.9-8.4,6-16.7,9-25.1c1.5-4.3,3.1-8.6,4.7-12.9c2-5.8,3.7-7.4,9.7-9.1 c-3.5-3.1-4.1-6.9-2.7-11.1c1.3-3.8,3.8-6.6,7.9-7.8c5.6-1.6,10.4,1.9,10.5,7.8c0.1,5.6-3.4,10.3-8.8,12c-0.3,0.1-0.6,0.2-1.2,0.4 c4.2,3.4,4.3,7.4,2.6,12c-3.2,8.6-6.2,17.2-9.2,25.9C488,828.5,487.9,828.9,487.7,829.7z M480.8,832.6c0.2,0,0.4,0.1,0.6,0.1 c1.5-4.1,3-8.3,4.5-12.4c2.7-7.8,5.5-15.6,8.1-23.4c0.8-2.5-0.9-5.5-3.3-6.3c-3.5-1.3-7.5,0.3-9.1,3.6c-1,2.1-1.7,4.4-2.5,6.6 c-2.9,7.8-5.7,15.6-8.6,23.5c-1,2.8-1.8,5.6-2.7,8.3c0.2,0.1,0.4,0.1,0.5,0.2c1.1-2.5,2.1-5,3.2-7.4c3.7,0,7.5,0,11.3,0 c-0.5,1.3-0.9,2.4-1.2,3.6C481.3,830.2,481.1,831.4,480.8,832.6z M487.8,779.8c-0.7,3.9,3,6.8,7.1,5c3-1.3,5.6-5.6,5.3-8.9 c-0.3-3-2.1-5.7-6.5-4.3C489.8,772.8,487.8,775.7,487.8,779.8z"></path> <path style="fill:#FFFFFF;" d="M793.9,331.8c-5.2-0.3-10.2-0.5-15.1-0.9c-1-0.1-2-1-2.9-1.7c-5.9-4.8-12.4-8.7-19.1-12.1 c-0.6-0.3-1.2-1.3-1.2-2c-0.4-5.1-0.6-10.2-0.9-15.3c-0.1-1.1-0.3-2.1-0.5-3.3C765.9,301,785.8,316.7,793.9,331.8z"></path> <path style="fill:#FFFFFF;" d="M720.8,236.8c-6.6-0.8-13.7-1.6-21.1-2.4c0-6.5,0-13.3,0-20.3c2,0.1,4.3,0.2,6.6,0.4 c4.3,0.5,8.6,1.1,12.9,1.6c1.5,0.1,1.7,0.9,1.7,2.1C720.7,224.5,720.8,230.8,720.8,236.8z"></path> <path style="fill:#FFFFFF;" d="M699.5,268.7c0-6.7,0-13.4,0-19.9c2.6,0,5.3-0.2,8,0c4,0.4,7.9,1,11.8,1.7c0.5,0.1,1.2,0.9,1.4,1.5 c0.2,0.7,0.1,1.5,0.1,2.3c0,5.7,0,11.4,0,17C714.1,270.4,707,269.6,699.5,268.7z"></path> <path style="fill:#FFFFFF;" d="M720.8,202.5c-6.8-0.8-13.8-1.5-21.1-2.3c-0.1-3.2-0.3-6.6-0.4-9.9c-0.1-3.4,0-6.7,0-9.9 c3.4,0,6.8-0.2,10.1,0.1c3.4,0.3,6.8,1,10.2,1.6c0.5,0.1,1.2,0.8,1.2,1.2C720.8,189.5,720.8,195.9,720.8,202.5z"></path> <path style="fill:#FFFFFF;" d="M293.8,199.4c0,7.2,0,13.9,0,20.5c-7.5,0.9-14.7,1.7-22,2.5c0.3-6.7,0.6-13.5,0.9-20.9 C279.7,200.8,286.7,200.1,293.8,199.4z"></path> <path style="fill:#FFFFFF;" d="M271.8,256.8c0.3-6.7,0.6-13.6,0.9-20.9c5.3-0.5,10.6-1,15.9-1.5c1.2-0.1,2.4-0.3,3.6-0.4 c1.2-0.1,1.9,0.2,1.9,1.6c-0.1,6.2,0,12.4,0,18.7C286.4,255.1,279.2,255.9,271.8,256.8z"></path> <path style="fill:#FFFFFF;" d="M185.8,331.3c0.1,3.4,0.1,3.4-3.1,3.9C182.4,331.1,182.4,331.1,185.8,331.3z"></path> <path style="fill:#FFFFFF;" d="M873.4,487.8c8.9,2,16.8,10.1,18.3,19.6c1.1,6.6,0.8,13.1-2.4,19.2c-2.4,4.6-5.8,8.3-10.5,10.4 c-2.4,1.1-5.2,1.4-7.8,1.7c-4.7,0.5-9.5,0.7-14.3,0.8c-5.6,0.1-11.1,0-17.3,0c-0.2-2.7-0.5-5.4-0.5-8.1c-0.2-14.2-0.3-28.4-0.4-42.6 c0-0.8,0-1.5,0-2.6c0.8,0,1.5,0,2.2,0c8.2,0,16.4-0.1,24.6,0.1C868,486.4,870.7,487.3,873.4,487.8c-2.7-0.3-5.5-1-8.3-1.1 c-7.7-0.2-15.4-0.1-23.1,0c-0.6,0-1.2,0.1-1.8,0.1c0,1.5,0,2.9,0,4.2c13,0,26,0,39.4,0C877.3,489.8,875.4,488.8,873.4,487.8z M846.3,533.3c7.5,0,14.7,0.4,21.9-0.2c3.2-0.2,6.8-1.6,9.1-3.7c3.4-3.1,6.4-5.7,11.3-4.1c0.7-2.3,1.2-4.3,1.8-6.5 c-2.1,0-4.1,0-5.6,0c-0.2-3.4-0.2-6.6-0.6-9.8c-1-7.6-7.3-14.1-14.8-14.9c-6.6-0.7-13.2-0.6-19.8-0.9c-1.1,0-2.1,0-3.3,0 c0,7.4,0,14.6,0,21.7c0,1.4-0.3,2.9-0.5,4.3c-2.1,0-3.8,0-5.7,0c-0.2,2.2-0.3,4.1-0.5,6.3c2.4,0,4.5,0,6.7,0 C846.3,528.3,846.3,530.9,846.3,533.3z"></path> <path style="fill:#FFFFFF;" d="M779.4,464.4c-6.5,0-12.7,0-18.9,0c-13.8,0-27.5,0-41.3,0c-2,0-3.4-0.5-4.5-2.4c21.9,0,43.8,0,65.9,0 c0,4.6,0,9.2,0,13.8c0,2.3,0,4.7,0,7c0,0.5-0.4,0.9-0.6,1.4c-0.2-0.1-0.4-0.1-0.6-0.2C779.4,477.6,779.4,471.1,779.4,464.4z"></path> <path style="fill:#FFFFFF;" d="M773.5,484.1c-5.4,0-10.8,0-16.2,0c0-0.1,0-0.1,0-0.2c5.4,0,10.9,0,16.3,0 C773.5,484,773.5,484.1,773.5,484.1z"></path> <path style="fill:#FFFFFF;" d="M356.5,415.6c0-7.8-1.1-15.8,0.3-23.5c1.4-7.7,0.1-15.3,1.2-23.2c0.6,0,1.3,0,2,0 c8.8,0,17.6,0,26.4,0c6.3,0,12.2,1.5,17.3,5.4c4.4,3.4,6.8,7.9,7.8,13.4c0.2,1.3,1,2.4,1.1,3.7c0.2,1.9,0.3,3.9,0,5.8 c-2.2,11.2-10.7,17.8-21.3,18.3C379.6,416.1,367.9,415.6,356.5,415.6z M364,408.4c0.3,0.1,0.5,0.1,0.6,0.1c7.6,0,15.1,0.2,22.7,0 c2.8-0.1,5.6-0.7,8.3-1.6c10.2-3.2,12.4-16.2,7.5-23.9c-3.2-5.1-8.2-7.4-14.1-7.5c-7.6-0.2-15.1,0-22.7,0c-0.7,0-1.5,0-2.3,0 C364,386.7,364,397.5,364,408.4z"></path> <path style="fill:#FFFFFF;" d="M405.8,356.3c2.6-1.3,5.2-2.7,7.9-3.9c8.8-4.2,14.1-11.1,15.8-20.5c1.6-9.1,0.2-17.9-5.5-25.5 c-4.9-6.5-11.8-10.2-19.4-12.5c-6.8-2-13.7-3-20.8-3c-15.9,0-31.7-0.2-47.6-0.4c-1.8,0-2,0.8-2,2.3c0,20.7,0,41.4,0,62.2 c0,0.8,0,1.6,0,2.4c-0.2,0-0.5,0-0.7,0c-0.2-3.1-0.5-6.1-0.7-9.4c-1.9,0-3.8,0-5.8,0c0-10.8,0-21.4,0-32.2c1.9,0,3.9,0,6,0 c0-9.1,0-18.1,0-27.3c0.9,0,1.7,0,2.5,0c15.8,0,31.7,0,47.5,0c8.5,0,16.9,1.2,24.9,4.1c10.7,3.9,19,11,22.4,22.7 c1.4,0,2.8,0.1,4.3,0c1.3-0.1,1.9,0.3,2.2,1.7c1,4.9,1,9.7,0.4,14.6c-0.7,5.5-2.5,10.5-5.8,14.9c-0.4,0.5-1.2,1.1-1.7,1 c-5.6-1.3-9.5,2.1-13.8,4.5c-3.1,1.7-6.5,3.2-9.7,4.8C406,356.6,405.9,356.4,405.8,356.3z"></path> <path style="fill:#FFFFFF;" d="M356.6,351.6c0-14.8,0-29.3,0-44.2c0.7,0,1.4,0,2.2,0c8.9,0,17.9-0.2,26.8,0 c8.5,0.2,15.7,3.3,20.4,10.8c2.8,4.5,3.5,9.5,2.7,14.8c-1.1,7.5-5.3,12.6-11.8,15.9c-3.5,1.8-7.3,2.6-11.1,2.6 C376,351.7,366.4,351.6,356.6,351.6z M357.8,307.8c0,2.8,0,5.2,0,7.7c2.1,0,4,0,6.2,0c0,9.6,0,19.2,0,29c7.4,0,14.5,0,21.6,0 c1.3,0,2.7-0.1,4-0.4c11.1-2.4,14.8-14.7,9.1-23c-1.7-2.5-4.5-4.1-6.6-6c3,0,6.4,0,10.2,0c-0.4-0.4-0.5-0.6-0.7-0.8 c-4.2-4.5-9.8-6.2-15.7-6.5c-6-0.3-12.1-0.1-18.2-0.1C364.5,307.8,361.2,307.8,357.8,307.8z M357.8,350c10.3,0,20.5,0.1,30.6-0.1 c2.4,0,4.7-1.2,7-1.8c0-0.2-0.1-0.4-0.1-0.6c-5.6,0-11.1,0-16.7,0c-5.7,0-11.5,0.2-17.2,0.1C357.7,347.6,357.6,347.6,357.8,350z"></path> <path style="fill:#FFFFFF;" d="M552.2,314.8c-4.1,0-8.2,0-12.2,0c0-0.1,0-0.1,0-0.2c4.1,0,8.2,0,12.2,0 C552.2,314.6,552.2,314.7,552.2,314.8z"></path> <path style="fill:#FFFFFF;" d="M383.1,557.1c-0.7,0.1-0.7,0.2-0.8,0.2c-11.3,0.1-22.5,0.3-33.8,0.4c-4.4,0.1-8.8,0.3-13.1,0.4 c-0.7,0-1.3,0-2.2,0c0.6-1.8,1.1-3.3,1.5-4.9c1.5-4.8,3.5-9.5,4.4-14.4c1.9-9.9,5.9-19,8.8-28.5c2.7-9,5.9-17.8,8.9-26.8 c0.1-0.3,0.3-0.6,1-1C366.3,507.4,374.7,532.2,383.1,557.1z M341.8,552.5c3.3-0.2,6.3-0.5,9.3-0.5c7.6-0.1,15.3,0,23.2,0 c-3-8.3-5.7-16-8.6-23.9c2.5,0,4.5,0,6.8,0c-0.8-2.2-1.5-4.2-2.2-6.2c-1.8,0-3.6,0.1-5.4-0.1c-0.6-0.1-1.5-0.6-1.8-1.1 c-0.8-1.8-1.5-3.6-2.1-5.4c-1.1-3.1-2.2-6.2-3.4-9.6c-2,5.7-3.9,11-5.7,16.2c-2,0-3.7,0-5.4,0c-0.5,0-1.3,0.2-1.4,0.5 c-0.7,1.8-1.3,3.6-1.9,5.7c2.4,0,4.5,0,6.8,0C347.2,536.2,344.5,544.1,341.8,552.5z M354.7,493.5c2,0,3.8,0,5.6,0 c-1-2.7-1.9-5.3-2.9-8.2C356.4,488.2,355.6,490.8,354.7,493.5z"></path> <path style="fill:#FFFFFF;" d="M292,462c0,6.7,0,13.2,0,19.7c0,0.5-0.5,0.9-0.8,1.4c-0.2-0.1-0.3-0.2-0.5-0.3c0-6.1,0-12.1,0-18.3 c-31.4,0-62.8,0-94.5,0c0,3.4,0,6.7,0,10.1c0,2.8,0,5.5,0,8.3c0,0.5-0.3,1-0.5,1.5c-0.2-0.1-0.4-0.1-0.5-0.2c0-7.3,0-14.6,0-22.1 C227.3,462,259.5,462,292,462z"></path> <path style="fill:#FFFFFF;" d="M261.5,483.1c7.6,0,15.3,0,22.9,0c0,0.1,0,0.1,0,0.2c-7.6,0-15.3,0-22.9,0 C261.5,483.2,261.5,483.1,261.5,483.1z"></path> <path style="fill:#FFFFFF;" d="M219.2,484.1c-5.4,0-10.8,0-16.2,0c0-0.1,0-0.1,0-0.2c5.4,0,10.9,0,16.3,0 C219.2,484,219.2,484.1,219.2,484.1z"></path> <path style="fill:#FFFFFF;" d="M511.8,480.2c3.5,0,7.1,0,10.6,0c0,0.1,0,0.1,0,0.2c-3.5,0-7,0-10.5,0 C511.9,480.3,511.9,480.2,511.8,480.2z"></path> <path style="fill:#FFFFFF;" d="M194,748.1c0-6.2,0-12.1,0-18.3c4.3,0,8.2,0,12.5,0c0,1.7,0,3.6,0,5.6c0,3.2,0,3.2,3.2,3.2 c3.4,0,6.7,0.1,10.1,0c5.4-0.3,9.9-2.2,12.2-7.5c0.8-1.7,2.1-1.5,3.5-1.3c0.3,0,0.5,0.1,0.8,0.1c1.9-0.2,3.8-0.6,5.7-0.6 c1.1-0.1,2.2,0.3,3.7,0.5c0.5,1.8-0.7,3.8-1.7,5.6c-4.7,8.9-12.6,12.6-22.3,12.7c-8.5,0.1-17,0-25.6,0 C195.5,748.1,194.7,748.1,194,748.1z"></path> <path style="fill:#FFFFFF;" d="M208.3,737.4c0-10.1,0-20,0-30c3.9,0,7.9-0.1,11.8,0c1.4,0.1,2.9,0.6,4.3,1c3.6,1.1,5.8,3.5,7,7 c1.6,4.5,1.7,9.1,0.1,13.7c-1.9,5.7-5.7,7.7-10.8,8.2C216.6,737.6,212.6,737.4,208.3,737.4z M209.5,736.1c1.7,0,3.4-0.1,5,0 c1.4,0.1,1.8-0.5,1.8-1.8c0-1.9,0-3.7,0-5.6c-0.2-4.3-3.2-8.2-6.8-8.6C209.5,725.4,209.5,730.6,209.5,736.1z"></path> <path style="fill:#FFFFFF;" d="M208.3,670.5c4.7,0.4,9.3,0.6,13.8,1.2c4.7,0.6,7.2,4,7.9,8.3c0.4,2.8,0.2,5.8-0.5,8.5 c-1.2,4.4-4.9,5.9-9,6.2c-4,0.3-8,0.1-12.1,0.1C208.3,686.8,208.3,679,208.3,670.5z"></path> <path style="fill:#FFFFFF;" d="M194.3,660.1c8.8,0,17.5-0.1,26.2,0.1c3.8,0.1,7.6,0.7,11.4,1.1c0,0.3,0,0.5,0,0.8 c-1.2,0.2-2.3,0.5-3.5,0.5c-5.5,0-11.1-0.2-16.6-0.2c-4.9-0.1-9.8-0.1-14.8-0.1c-0.3,0-0.6-0.1-0.8,0 C194.3,662.9,193.9,662,194.3,660.1z"></path> <path style="fill:#FFFFFF;" d="M805,748.1c-4.8,0-9.3,0-13.8,0c-0.5,0-1.2-0.4-1.4-0.9c-2.5-5.5-5-11.1-7.4-16.6 c-0.1-0.2,0-0.5,0-1.1c1.3,0.7,2.8,0.4,3.9,0.3c2.7-0.5,5.3,0.8,8,0.1c0.7-0.2,2,0.4,2.3,0.9c2.3,4.2,4.4,8.5,6.5,12.8 C803.6,745,804.2,746.4,805,748.1z"></path> <path style="fill:#FFFFFF;" d="M760.7,729.8c0,6,0,12,0,18.2c-4.4,0-8.6,0-12.9,0c0-3.8,0-7.4,0-11.1c0-1.6,0.1-3.3,0.1-4.9 c0-2.4,0.4-2.8,2.8-2.6c2.6,0.1,5.2,0.3,7.8,0.4C759.3,729.7,759.9,729.7,760.7,729.8z"></path> <path style="fill:#FFFFFF;" d="M803.6,660.1c-0.5,1.6-1.2,2.2-2.8,2.1c-4.3-0.2-8.5-0.1-12.8-0.1c0.4-1.7,1.4-2.1,3-2.1 C795.1,660.2,799.3,660.1,803.6,660.1z"></path> <path style="fill:#FFFFFF;" d="M760.9,660.3c-0.1,0.8-0.1,1.4-0.2,2c-4.3,0-8.3,0-12.5,0c-0.1-0.7-0.1-1.3-0.2-2 C752.3,660.3,756.4,660.3,760.9,660.3z"></path> <path style="fill:#FFFFFF;" d="M631.2,675.4c2.7,12.2,5.3,23.9,7.9,35.8c-5.1,0-10.1,0-15.4,0C626.1,699.4,628.6,687.7,631.2,675.4z M634.6,710.3c1.2,0,2.2,0,3.2,0c-0.5-2-0.9-3.8-1.4-5.6c-0.2,0-0.3,0-0.5,0C635.5,706.6,635,708.4,634.6,710.3z"></path> <path style="fill:#FFFFFF;" d="M645.9,729.8c0.8-0.2,1.6-0.4,2.4-0.6c0.2,0,0.5-0.2,0.6-0.1c1.9,1.5,4.1,0.7,6.1,0.5 c3.2-0.3,3.4,1.8,3.9,3.9c1.2,4.8,2.5,9.6,3.8,14.5c-4.7,0-9.3,0-14.1,0c-0.7-3.2-1.5-6.5-2.2-9.9c-0.5-2.2-0.9-4.3-1.2-6.5 c-0.1-0.7,0.1-1.5,0.1-2.3C645.5,729.5,645.7,729.6,645.9,729.8z"></path> <path style="fill:#FFFFFF;" d="M614.1,748c-4.4,0-8.6,0-13.3,0c0.6-2.4,1.2-4.7,1.8-7c0.8-3.2,1.6-6.5,2.5-9.7 c0.4-1.5,2-2.1,3.2-1.7c1.2,0.3,3.1,0.8,3.8,0.2c1.3-1,2.1,0.2,3.1-0.1c0.3-0.1,0.8,0.3,1.1,0.2c1.1-0.1,1.4,0.1,1.2,1 C616.4,736.6,615.2,742.3,614.1,748z"></path> <path style="fill:#FFFFFF;" d="M622,662.2c0.3-0.8,0.4-1.4,0.6-2.1c5.5,0,11,0,16.6,0c1.4,0,1.5,0.8,1.3,2.1 C634.3,662.2,628.3,662.2,622,662.2z"></path> <path style="fill:#FFFFFF;" d="M359.9,675.4c2.7,12.2,5.2,24,7.8,35.9c-5.3,0-10.3,0-15.5,0C354.8,699.3,357.3,687.5,359.9,675.4z M356.1,710.4c-0.4-1.7-0.8-3.1-1.1-4.5c-0.2,0-0.3,0.1-0.5,0.1c-0.3,1.4-0.7,2.8-1,4.4C354.3,710.4,355,710.4,356.1,710.4z"></path> <path style="fill:#FFFFFF;" d="M391.4,748c-4.9,0-9.5,0-14.1,0c-1.3-6.1-2.6-12.1-3.8-17.8c1.3-0.3,2.5-0.6,3.7-0.9 c0.2,0,0.4,0,0.6,0c2.5,0.2,5,0.3,7.5,0.6c0.5,0.1,1.4,0.5,1.5,0.9C388.3,736.4,389.8,742.1,391.4,748z"></path> <path style="fill:#FFFFFF;" d="M342.8,748c-4.5,0-8.8,0-13.3,0c1.5-5.9,3-11.6,4.5-17.3c0.2-0.9,0.8-1,1.4-1c2.4,0,4.8,0,7.2,0.1 c1.1,0.1,2.2-1.1,3.3,0c0.2,0.2,0.6,0.5,0.6,0.7C345.3,736.4,344,742.2,342.8,748z"></path> <path style="fill:#FFFFFF;" d="M369.1,660.2c0.2,0.6,0.4,1.1,0.6,2c-6.4,0-12.6,0-18.9,0c0.1-0.5,0.3-1.2,0.4-2 C357.2,660.2,363.1,660.2,369.1,660.2z"></path> <path style="fill:#FFFFFF;" d="M721.4,729.1c-0.7,0.3-0.9,0.4-0.9,0.5c2,0,4.1,0,6.3,0c-1.9,10.8-9.8,18.6-20.3,19.8 c-4.6,0.5-9.1,0.5-13.6-0.6c-6-1.4-10.8-5-13.7-10.5c-1.4-2.6-2.3-5.4-3.7-8.7c2.9,0,5.5,0,8.1,0c1.6,0,3.3,0.4,4.7,0 c1.5-0.4,1.6,0.4,2,1.3c1.5,3.3,3.5,6.1,7,7.5c5.2,2,11.2,0.6,14.5-4.7c0.5-0.8,0.9-1.7,1.3-2.5c0.6-1.2,1.3-1.7,2.9-1.5 C717.5,729.9,719.2,729.4,721.4,729.1z"></path> <path style="fill:#FFFFFF;" d="M688.3,662.3c7.3-5.2,22-4.7,28.5,0C707.2,662.3,697.9,662.3,688.3,662.3z"></path> <path style="fill:#FFFFFF;" d="M267.8,729.5c4.1,0,8,0,12.6,0c0.1,0.9,0.4,2.2,0.5,3.6c0.1,1.4,0,2.9,0,4.5c10.8,0,21.6,0,32.5,0 c-0.4,3-0.9,5.7-1,8.4c-0.1,1.6-0.6,2.1-2.2,2.1c-7.7-0.1-15.4,0-23.1,0c-6.4,0-12.8,0-19.2,0C267.8,741.7,267.8,735.4,267.8,729.5z "></path> <path style="fill:#FFFFFF;" d="M267.7,662.2c0-0.8,0-1.3,0-2c4.3,0,8.6,0,12.9,0c0.3,2,0.2,2.1-1.7,2 C275.2,662.2,271.6,662.2,267.7,662.2z"></path> <path style="fill:#FFFFFF;" d="M531.8,748.1c-4.5,0-8.9,0-13.3,0c-0.6,0-1.5-0.3-1.7-0.8c-2.6-5.6-5-11.3-7.5-16.9 c-0.1-0.3-0.1-0.6-0.2-0.8c2,0,4,0,5.9,0c0.8,0,1.6,0.2,2.4,0.3c1.3,0,2.7,0.3,3.9,0c1.3-0.3,1.9,0.1,2.4,1.1 c2.6,5.3,5.2,10.5,7.8,15.8C531.7,747.1,531.7,747.5,531.8,748.1z"></path> <path style="fill:#FFFFFF;" d="M514.7,662.5c0.8-2.1,2-2.4,3.7-2.4c4,0.1,8,0,12,0c0,2.3-1.9,2.2-3.1,2.3 C523.2,662.6,519.1,662.5,514.7,662.5z"></path> <path style="fill:#FFFFFF;" d="M487.7,660.2c0,0.7,0,1.2,0,2c-4.2,0-8.3,0-12.6,0c0-0.6-0.1-1.2-0.2-2 C479.2,660.2,483.4,660.2,487.7,660.2z"></path> <path style="fill:#FFFFFF;" d="M468.6,782c-4.2,0-7.9,0-11.8,0c1.2-4.6,2.4-8.9,3.4-13.2c1.7-7.6,3.2-15.3,5.1-22.8 c0.6-2.3,2.1-4.5,3.5-6.5c1.2-1.7,3-2.6,5.2-1.9c2.6,0.9,4.1,3,4.1,5.7c0.1,5.9-1.2,11.6-2.7,17.2C473.1,767.8,470.7,775,468.6,782z "></path> <path style="fill:#FFFFFF;" d="M444.2,729.9c3.1-0.3,6-0.5,9.5-0.8c-0.6,0.3-0.8,0.4-1.4,0.8c2-0.3,3.5-0.5,5.1-0.7 c-2.3,14.6-13.3,21.4-27.7,20.6c-11.6-0.7-19.7-6-23.2-19.7c2.4-0.2,4.8-0.5,7.2-0.5c2.2,0,4.4,0.2,6.7,0.3 c2.1,5.8,6.7,9.7,11.8,9.6C437.8,739.4,441.8,736.2,444.2,729.9z"></path> <path style="fill:#FFFFFF;" d="M446.9,662.3c-9.3,0-18.6,0-27.9,0C424.1,657.9,438.8,656.9,446.9,662.3z"></path> <path style="fill:#FFFFFF;" d="M404,784.2c-3.1,5.3-6,10.4-9.1,15.8c-3.2-4-5.2-8.5-7-13C391.7,784.4,398.5,783.2,404,784.2z"></path> <path style="fill:#FFFFFF;" d="M552.1,729.9c1.9,5,5.2,8.6,10.7,8.1c6-0.5,7.6-2.8,9.1-8.5c4.5,0,9,0,13.8,0 c-0.4,1.9-0.6,4.2-1.3,6.4c-1.1,3.3-2.8,6.4-5.4,8.9c-2.8,2.7-6.3,4.2-10,4.9c-4.4,0.8-9,0.8-13.3-0.4c-7.2-2-11.8-6.7-14.2-13.7 c-0.2-0.5,0.4-1.6,0.8-1.8C545.3,732.4,548.6,731.2,552.1,729.9z"></path> <path style="fill:#FFFFFF;" d="M586,660.2c0,0.7,0,1.2,0,1.7c-0.2,0.1-0.3,0.2-0.4,0.2c-3.8,0.1-7.7,0.4-11.5,0.4 c-1.4,0-1.3-1.2-1.1-2.3C577.3,660.2,581.6,660.2,586,660.2z"></path> <path style="fill:#FFFFFF;" d="M589.9,800.3c-3.1,0-5.9,0-8.8,0c-0.5,0-1.2-0.3-1.5-0.6c-2.4-2.4-4.2-3-7.1-1.1 c-3.8,2.4-7.8,1.3-11.8,1.8c-0.2,0-0.3-0.2-0.7-0.4c4-3.9,8.7-6.3,13.9-7.2c3.1-0.5,6.4-0.3,9.5,0 C586.8,793.1,588.5,795.3,589.9,800.3z"></path> <path style="fill:#FFFFFF;" d="M573.3,810.1c-2.3,2.5-5.4,3.4-8.4,4.5c-0.7,0.2-1.4,0.3-2.7,0.5c1.2-2.7,2.1-5.1,3.3-7.2 c1.8-3.2,3.6-6.4,7.1-8c1.2-0.6,2.7-0.8,4.1-0.8c0.5,0,1.4,0.8,1.5,1.3C578.8,803.9,576.7,808.6,573.3,810.1c0.6-0.7,1.3-1.4,2-2.2 c1.1-1.4,2.1-2.8,1.7-4.8c-3.4,1.1-7.1,5.2-8,9.2C570.4,811.5,571.9,810.8,573.3,810.1z"></path> <path style="fill:#FFFFFF;" d="M533.7,800.3c-0.3-3.3-0.6-6.5,2.9-8.3c2.1-1.1,4.4-1.7,6.4,0.1c2.7,2.3,2.3,5.2,1.4,8.3 C540.9,800.3,537.4,800.3,533.7,800.3z"></path> <path style="fill:#FFFFFF;" d="M506.4,800.5c0-0.9,0-1.9,0-2.8c0-3.9,1.2-5.2,5.2-5.4c0.8-0.1,1.6-0.1,2.5,0c3.6,0.3,5.8,4.4,4,7.5 c-0.2,0.4-1.1,0.7-1.6,0.7C513.1,800.6,509.9,800.5,506.4,800.5z"></path> <path style="fill:#FFFFFF;" d="M491.7,800.7c-3.7,0-7.2,0-10.7,0c0.3-3.9,1.7-8.3,5.8-9.4c2-0.6,3.7-0.2,5,1.1c1.3,1.3,1.9,3.1,1,5 C492.4,798.5,492.1,799.6,491.7,800.7z"></path> <path style="fill:#FFFFFF;" d="M497.8,780.2c-0.4,2.4-3.8,4.6-5.8,4.2c-1.8-0.3-3-1.6-3.3-3.7C491.7,780.6,494.8,780.4,497.8,780.2z "></path> <path style="fill:#FFFFFF;" d="M847.2,532.5c0-12.6,0-25.4,0-38c6.2,0,12.4,0,18.5,0c3.5,0,6.7,1,9.8,2.8c4.2,2.6,6.8,6.1,7.8,10.9 c1.2,5.8,0.8,11.4-2.6,16.6c-3.1,4.6-7.6,7.3-13,7.7C861,532.8,854.2,532.5,847.2,532.5z"></path> <path style="fill:#FFFFFF;" d="M364.7,407.8c0-3.6,0-7.1,0-10.5c0-6.4,0-12.8,0-19.2c0-1.6,0.4-2.2,2.1-2.1c6.3,0.1,12.7-0.1,19,0.1 c5.3,0.2,10.5,1,14.6,4.9c2.3,2.2,3.6,5,3.9,8c0.4,4.6,0.3,9.2-3,13.1c-2.5,3-5.8,4.8-9.5,5.2c-5.2,0.6-10.4,0.4-15.6,0.5 C372.5,407.8,368.8,407.8,364.7,407.8z"></path> <path style="fill:#FFFFFF;" d="M364.8,343.8c0-9.6,0-18.9,0-28.4c0.7,0,1.3-0.1,1.8-0.1c6,0,12.1-0.2,18.1,0 c5.6,0.2,10.9,1.7,13.9,6.9c4.5,8,1.3,18.2-8.3,20.6c-2.4,0.6-4.9,0.8-7.4,0.8C376.9,343.9,371,343.8,364.8,343.8z"></path> <path style="fill:#FFFFFF;" d="M372.9,550.8c-10.1,0-19.8,0-29.6,0c4.7-14,9.4-28.2,14.3-42.9C362.7,522.4,367.7,536.3,372.9,550.8z "></path> </svg> 