<?xml version="1.0" encoding="UTF-8"?> <svg xmlns="http://www.w3.org/2000/svg" xmlns:xlink="http://www.w3.org/1999/xlink" version="1.1" id="Layer_1" x="0px" y="0px" viewBox="0 0 1000 1000" style="enable-background:new 0 0 1000 1000;" xml:space="preserve"> <path style="fill:#FFFFFF;" d="M443.9,963.6c-0.8-3.7-3.8-3.5-6.6-4c-13.7-2.2-27.4-4.2-41.1-6.7c-23.1-4.3-45.4-11.3-67.4-19.4 c-56.2-20.7-106.5-51.2-151.4-90.6c-1.9-1.7-3.9-3.5-5.5-5.5c-1.7-2.2-0.8-4.1,2-4.8c0.8-0.2,1.7-0.2,2.6-0.2 c8.9-0.3,17.7-0.6,26.6-1c32.9-1.3,65.8-3.5,98.5-7.6c15.1-1.9,30.2-3.3,45.1-5.7c24.2-3.8,48.3-8,72.4-12.5 c17.5-3.3,34.9-7,52.1-11.2c22.7-5.6,45.4-11.5,67.9-17.9c22.7-6.4,45.3-13.3,67.8-20.6c21.6-7,43.2-14.4,64.5-22.4 c26.4-9.9,52.7-20,78.5-31.1c24.7-10.6,48.8-22.4,73-34c32.6-15.7,64.2-33.5,95.4-51.8c11.8-6.9,23.2-14.3,34.8-21.5 c0.4-0.2,0.7-0.5,1.1-0.7c2.1-1.1,4.4-3.2,6.4-0.9c1.1,1.3,1.1,4.1,0.6,6c-8.8,36.8-21.1,72.3-38.3,106.1 c-19.4,38-43.5,72.8-72.5,104.2c-33.6,36.5-72.1,66.7-115.2,91.3c-24,13.7-49,24.9-75,34.3c-29.1,10.5-58.9,17.6-89.4,22.6 c-4.7,0.8-9.5,1.2-14.2,1.8c-2.7,0.3-5.2,1-6.2,4C515,963.6,479.4,963.6,443.9,963.6z"></path> <path style="fill:#FFFFFF;" d="M28.7,402.1c3.6,0.3,4.2-2.3,4.9-4.9c3.3-12.3,6.6-24.7,10.2-36.9c5.3-18.1,12.5-35.5,20.3-52.7 c14.1-30.8,31.5-59.7,52.2-86.6c35.2-45.8,77.4-84,126.6-114.4c31.3-19.3,64.3-35,99.2-46.7c21.8-7.3,43.9-13.4,66.7-17 c9.4-1.5,19-2.3,28.2-4.7c13.3-3.4,26.6-2.8,40-2.8c22.5-0.1,45.1,0.2,67.6,0.5c3,0,5.9,1,8.9,1.5c2.6,0.5,5.1,1.2,7.7,1.5 c21.2,2.4,42,6.7,62.5,12.1c20.7,5.5,41,12.7,60.8,21c36.6,15.3,70.6,35,102.4,58.7c8.3,6.2,16.3,12.9,24.4,19.4 c0.2,0.1,0.4,0.3,0.5,0.4c1.8,1.8,4.9,3.5,3.4,6.3c-0.7,1.4-4,1.9-6.2,2.1c-18.8,1.5-37.6,2.5-56.4,4.2c-23.1,2.2-46.1,4.8-69.2,7.6 c-13.8,1.7-27.5,4-41.1,6.4c-22.6,4.1-45.2,8.1-67.7,12.8c-20.8,4.4-41.4,9.5-62,14.7c-16.6,4.2-33.1,8.8-49.6,13.5 c-11.2,3.2-22.4,6.9-33.5,10.4c-13.6,4.3-27.3,8.5-40.9,13c-16.6,5.6-33.2,11.4-49.7,17.5c-13.2,4.8-26.5,9.7-39.4,15.3 c-25.3,10.8-50.6,21.6-75.4,33.4c-26.2,12.5-52.1,25.7-77.7,39.4c-36.4,19.3-71.3,41.1-105.7,63.8c-3.8,2.5-7,5.9-12.1,5.4 C28.7,411.6,28.7,406.8,28.7,402.1z"></path> <path style="fill:#FFFFFF;" d="M284.4,349.4c0-4.8,2.8-5.9,5.3-7.2c14.8-7.7,29.4-15.9,44.5-23c30.2-14.2,60.4-28.5,91.1-41.5 c23.9-10.1,48.5-18.7,73.1-27.2c22.3-7.8,44.9-14.8,67.4-21.7c34-10.5,68.5-18.7,103.3-26.3c36.1-7.8,72.5-13.5,109-18.2 c17.8-2.3,35.8-3.7,53.7-5.6c6-0.7,10.7,0.9,15,5.6c29.3,31.2,53.7,65.8,73.5,103.6c14.6,27.9,26,57.1,34.7,87.4 c8.4,29.1,13.4,58.7,15.6,88.8c0.9,12.1,2,24.2,1.9,36.3c-0.1,13.6-1.5,27.2-2.4,40.8c-0.2,3.2-0.8,6.5-0.8,9.7 c-0.1,6.5-2.9,10.9-8.7,14c-18.3,10-36.1,20.7-54.6,30.2c-21.5,11.2-43.3,21.9-65.4,32c-23.6,10.8-47.6,21-71.7,30.8 c-15.8,6.4-32.1,11.9-48.3,17.3c-22.2,7.5-44.4,14.7-66.8,21.6c-13,4-26.2,7.6-39.5,10.8c-27.4,6.6-54.7,13.5-82.3,19.1 c-26.3,5.4-52.8,10.2-79.4,13.8c-28.8,3.9-57.7,7.1-86.8,7.8c-16.9,0.4-33.8,2.4-50.6,2c-38.3-1-76.8-2.2-114.5-9.7 c-29.8-5.9-59.2-13.5-86.5-27.5c-18.8-9.7-36.3-21.3-49.9-37.9c-17.8-21.6-25.7-46.2-23.3-74.2c1.9-21.8,9.4-41.7,19.7-60.7 c12.8-23.6,29.4-44.3,47.7-63.9c32.8-35,70.4-64.1,109.9-91c0.5-0.4,1.1-0.7,1.6-1.1c5.2-3.2,7.5-2,7.6,4.3c0.1,17.8,0,35.5,0,53.3 c0,27.9,0,55.9,0,83.8c0,1.7-0.1,3.5,0.1,5.2c0.5,4.1,2.1,5.8,6.1,6.3c1.5,0.2,3,0.1,4.5,0.1c43.2,0,86.3,0,129.5,0 c7.4,0,8.8-1.3,9-8.5c0.1-6.1,0.1-12.1,0-18.2c-0.1-7-1.5-8.2-8.6-8.2c-28,0-56,0-83.9,0c-0.9,0-1.7,0-2.6,0 c-9.6,0-10.4-0.9-10.4-10.4c0-7.6,0-15.2,0-22.7c0.1-8.9,1.4-10.3,10.1-10.3c23.4,0,46.8,0.1,70.3,0.1c0.7,0,1.3,0,2,0 c6.3-0.2,7.8-1.5,7.9-7.6c0.2-6.1,0.2-12.1,0-18.2c-0.2-6.5-1.6-7.9-8.3-7.9c-23.4,0-46.8,0-70.3,0c-2,0-3.9,0.1-5.8-0.1 c-3.9-0.4-5.6-1.9-5.7-5.8c-0.2-9.7-0.2-19.5,0.1-29.2c0.1-4.4,2.1-5.9,6.7-6.3c1.3-0.1,2.6-0.1,3.9-0.1c27.3,0,54.7,0.1,82,0.1 c6.9,0,8.6-1.5,8.8-8.2c0.1-6.1,0.1-12.1,0-18.2c-0.1-6.3-1.9-7.9-8.4-7.9c-23.9,0-47.7,0.1-71.6,0.1 C290.1,349.9,287.4,349.6,284.4,349.4z M575.8,479.4c0-9.5,0-19.1,0-28.6c0-1.7,0.1-3.5-0.2-5.2c-0.6-3.7-2.2-5.5-6-5.6 c-9.1-0.2-18.2-0.2-27.3,0.1c-4.4,0.1-6.2,2.2-6.6,6.5c-0.2,1.5,0,3,0,4.5c0.1,12.1,0.2,24.3,0.2,36.4c0,7.7-1.1,9.4-8.5,11.9 c-16.3,5.7-32.8,5.7-49.3,1.2c-5.1-1.4-10.2-4-14.6-7c-23.7-16-30.6-43.9-23-69.7c9.3-31.8,38.5-43.2,65.9-41.5 c14.9,0.9,28.2,6.4,39.6,16.2c3.9,3.4,6.5,3.4,10.4,0c6.1-5.3,12-10.6,17.8-16.2c3.7-3.5,3.7-6.1-0.1-9.3c-5.1-4.4-10.2-9-16-12.1 c-38.4-20.3-77.3-20.6-116-1c-24,12.2-38.7,32.5-45.6,58.1c-5.4,19.9-4.4,39.8,3,59.3c8.2,21.6,22.7,37.7,42.6,49 c19.3,10.9,40.3,15,62.5,13.8c23-1.2,44.3-7.3,64.1-19c5.1-3,7.4-6.8,7.2-12.7C575.6,498.9,575.8,489.1,575.8,479.4z M682.8,349.9 C682.8,349.9,682.8,349.8,682.8,349.9c-24.7,0-49.4,0-74.1,0c-1.3,0-2.6-0.1-3.9,0.1c-3.8,0.5-5.7,2.1-5.8,5.8 c-0.3,7.4-0.3,14.7,0,22.1c0.2,4.1,2.1,5.7,6.2,6.2c1.7,0.2,3.5,0.1,5.2,0.1c13.7,0,27.3-0.1,41,0c7.6,0,9.2,1.8,9.2,9.2 c-0.1,41.4-0.1,82.7-0.1,124.1c0,3.9-0.1,7.8,0,11.7c0.2,6.2,2.1,8.2,8.3,8.3c9.5,0.1,19.1,0.1,28.6,0c4.9-0.1,6.6-1.7,7-6.6 c0.1-1.3,0-2.6,0-3.9c0-44.2,0-88.4-0.1-132.5c0-1.1-0.1-2.2,0-3.2c0.4-4.9,1.9-6.6,6.7-7c1.7-0.1,3.5-0.1,5.2-0.1 c13.9,0,27.8,0.1,41.6,0c5.9,0,7.9-1.6,8.2-6.9c0.3-6.9,0.3-13.9,0-20.8c-0.2-4.5-2-6-6.6-6.4c-1.5-0.1-3-0.1-4.6-0.1 C730.9,349.9,706.9,349.9,682.8,349.9z M228.1,614.1C228.1,614.1,228.1,614.1,228.1,614.1c0,5,0,10,0,14.9c0,5-0.1,10,0,14.9 c0.1,6,1.8,7.8,7.8,7.9c8.9,0.1,17.8,0.2,26.7-0.2c8.5-0.3,16.8-1.8,24.4-5.9c12.4-6.7,19.2-20.2,18.5-33.5 c-1.1-18.9-14.4-33-33.3-34.9c-11.6-1.2-23.3-1.1-35-1.2c-7.3-0.1-9,1.8-9,9.4C228.1,595,228.1,604.5,228.1,614.1z M435.1,629 C435.1,629,435.1,629,435.1,629c0-3.2,0.2-6.5,0-9.7c-0.3-5.3-2-6.7-7.5-6.7c-5.9,0-7.6,1.4-8,6.9c-0.2,3.7,0,7.4-0.1,11 c-0.1,3.4-1.8,5.5-5,6.8c-9.5,3.9-23.1,0.4-29.5-7.7c-6.4-8.1-6.7-22.1-0.6-30.4c6.6-9.1,19.2-12.7,30.3-8.5c2.6,1,5.1,2.4,7.7,3.5 c4.2,1.8,8.6,0.1,10.9-4.2c1.7-3.2,0.7-5.5-3.9-8.2c-14.8-8.5-30-9.4-45.4-2.2c-21.7,10.2-30.5,40.7-10.2,61.2 c15.3,15.3,40,14.9,57.3,4.9c2.7-1.6,3.9-4,4-7C435.2,635.5,435.1,632.2,435.1,629z M635.8,651.9c8.4,0,9.7-2,6.6-8.9 c-9-19.7-18-39.4-26.9-59.1c-2.4-5.4-5.9-8-12-8c-5.9,0-9.6,2.3-12,7.9c-7.1,16.2-14.7,32.3-22.1,48.4c-1.9,4.1-4,8.2-5.7,12.3 c-1.8,4.3-0.3,6.7,4.2,7.3c6.9,1,9.7-0.6,12.8-7.1c0.6-1.4,1.3-2.7,1.9-4.1c1.4-3.4,3.9-5,7.6-4.9c8.7,0,17.3,0,26,0 c3.4,0,5.8,1.5,7.3,4.4c0.8,1.5,1.7,3.1,2.2,4.7C627.3,650.5,631.1,652.4,635.8,651.9z M525.3,576.1 C525.3,576.1,525.3,576.1,525.3,576.1c-8.7,0-17.3-0.1-26,0.1c-5.2,0.1-7.7,2.6-7.6,6.9c0.1,4,2.4,6.1,7.4,6.4 c3.2,0.2,6.5-0.1,9.7,0.1c5.2,0.3,6.9,1.9,7.3,7.1c0.2,1.7,0.1,3.5,0.1,5.2c-0.1,13.8-0.1,27.7-0.2,41.5c0,3.1,0,6.2,3.3,7.8 c7.7,3.8,14.6-0.4,14.6-8.8c0-14.5-0.1-29,0-43.5c0-7.8,1.7-9.4,9.6-9.4c3,0,6.1,0.2,9.1-0.2c3.9-0.5,5.9-2.9,5.9-6.5 c0-3.6-2.1-5.9-5.9-6.5c-1.7-0.3-3.5-0.2-5.2-0.2C540,576.1,532.7,576.1,525.3,576.1z M661.2,613.9c0,10.2-0.1,20.3,0,30.5 c0.1,5.3,1.7,6.9,6.9,7.4c0.9,0.1,1.7,0.1,2.6,0.1c12.4,0,24.7,0,37.1,0c1.5,0,3.1,0,4.5-0.3c3.7-0.8,5.5-3.4,5.1-7.1 c-0.4-3.7-2.6-5.8-7.2-6c-6.9-0.2-13.9,0-20.8,0c-9.9,0-11.2-1.2-11.1-11.2c0-0.6,0-1.3,0-1.9c0-13.6,0.1-27.3,0-40.9 c0-6.2-2.2-8.2-8.1-8.4c-6.7-0.2-9,2-9,8.7C661.1,594.5,661.2,604.2,661.2,613.9z M458.4,613.4c0,10.2,0,20.4,0,30.5 c0,2.6-0.2,6,2.6,6.7c3.4,0.9,7.3,1,10.7,0.3c3.5-0.8,3.6-4.4,3.6-7.5c0-19.5,0-39,0-58.5c0-1.3,0.2-2.8-0.3-3.8 c-0.8-1.6-2-3.6-3.5-4.3c-7.1-3.6-13.1,0.2-13.2,8C458.4,594.4,458.4,603.9,458.4,613.4z M342.8,613.9 C342.8,613.9,342.8,613.9,342.8,613.9c0-1.9,0-3.9,0-5.8c0-8,0.1-16,0-24c0-4.8-1.3-6.7-4.5-7.7c-8.2-2.6-13.2,0.9-13.2,9.5 c0,13.2,0,26.4,0,39.6c0,6.3-0.1,12.5,0,18.8c0.1,4.6,1.7,6.2,6.2,6.7c1.3,0.1,2.6,0.1,3.9,0c6.2-0.3,7.6-1.6,7.6-7.8 C342.8,633.4,342.8,623.7,342.8,613.9z"></path> <path style="fill:#FFFFFF;" d="M245.3,613.6c0-5.4-0.2-10.8,0-16.2c0.2-6,2-7.7,7.9-7.9c7.6-0.2,15.2-0.5,22.2,3.3 c9.1,4.8,12.6,12.7,12.3,22.5c-0.2,9.7-6.3,17.8-14.8,20.9c-6.9,2.5-14,2.6-21.2,2.2c-4.4-0.2-6.3-2.4-6.5-7.3 C245.1,625.3,245.3,619.4,245.3,613.6C245.3,613.6,245.3,613.6,245.3,613.6z"></path> <path style="fill:#FFFFFF;" d="M602.9,622.7c-2,0-3.9,0.2-5.8,0c-3.8-0.5-5.4-2.7-4.1-6.4c2-5.5,4.3-10.9,6.8-16.2 c0.6-1.3,2.6-2.8,3.8-2.7c1.2,0.1,2.7,1.9,3.4,3.3c2.2,4.5,4,9.1,5.9,13.7c2.3,5.7,0.8,8-5.5,8.3C606,622.8,604.5,622.8,602.9,622.7 C602.9,622.7,602.9,622.7,602.9,622.7z"></path> </svg> 