<?xml version="1.0" encoding="utf-8"?>
<!-- Generator: Adobe Illustrator 24.1.2, SVG Export Plug-In . SVG Version: 6.00 Build 0)  -->
<svg version="1.1" id="Layer_1" xmlns="http://www.w3.org/2000/svg" xmlns:xlink="http://www.w3.org/1999/xlink" x="0px" y="0px"
	 viewBox="0 0 249.8 44.6" style="enable-background:new 0 0 249.8 44.6;" xml:space="preserve">
<style type="text/css">
	.st0{fill:#FFFFFF;}
</style>
<g>
	<g>
		<path class="st0" d="M60.5,27.2c0,2.6-1.7,5.1-7.4,5.1s-7.4-2.5-7.4-5.1V15.6c0-2.6,1.7-5.1,7.4-5.1s7.4,2.5,7.4,5.1v1.5
			c0,0.6-0.2,0.8-0.7,0.8h-2.6c-0.6,0-0.8-0.2-0.8-0.8v-0.8c0-1.6-1.1-2.4-3.2-2.4c-2.1,0-3.2,0.8-3.2,2.4v10.1
			c0,1.6,1.1,2.4,3.2,2.4c2.1,0,3.2-0.8,3.2-2.4v-1.2c0-0.6,0.2-0.8,0.8-0.8h2.6c0.5,0,0.7,0.2,0.7,0.8V27.2z"/>
		<path class="st0" d="M71,10.8c0.6,0,0.8,0.3,1,0.8l5.8,19.8c0.2,0.5,0,0.8-0.6,0.8h-2.8c-0.5,0-0.8-0.3-0.9-0.8l-1.1-3.8h-5.8
			l-1.1,3.8c-0.2,0.5-0.4,0.8-0.9,0.8h-2.5c-0.6,0-0.8-0.3-0.6-0.8l5.9-19.8c0.2-0.5,0.4-0.8,1-0.8C68.4,10.8,71,10.8,71,10.8z
			 M70.5,20.6c-0.4-1.3-0.9-5.3-0.9-5.7c-0.1,0.4-0.6,4.4-1,5.7l-1.1,3.5h4L70.5,20.6z"/>
		<path class="st0" d="M95,31.3c0,0.5-0.2,0.8-0.8,0.8h-2.5c-0.4,0-0.6-0.1-0.7-0.4l-6-10.4c-0.8-1.4-1.2-2.4-1.3-2.5v12.5
			c0,0.5-0.2,0.8-0.8,0.8h-2.5c-0.6,0-0.8-0.3-0.8-0.8V11.5c0-0.5,0.2-0.8,0.8-0.8H83c0.3,0,0.5,0.1,0.7,0.3L90,21.9
			c0.5,0.9,1.1,2.2,1.1,2.2V11.5c0-0.5,0.2-0.8,0.8-0.8h2.5c0.6,0,0.8,0.3,0.8,0.8v19.8H95z"/>
		<path class="st0" d="M102.8,28.6h7c0.5,0,0.8,0.2,0.8,0.8v2c0,0.6-0.3,0.8-0.8,0.8H99.3c-0.5,0-0.7-0.3-0.7-0.8V11.6
			c0-0.6,0.2-0.8,0.8-0.8h2.7c0.6,0,0.8,0.3,0.8,0.8v17H102.8z"/>
		<path class="st0" d="M117,31.3c0,0.6-0.2,0.8-0.8,0.8h-2.7c-0.6,0-0.8-0.3-0.8-0.8V11.6c0-0.6,0.2-0.8,0.8-0.8h2.7
			c0.6,0,0.8,0.3,0.8,0.8V31.3z"/>
		<path class="st0" d="M125.5,15.6c0-2.6,1.9-5.1,7.6-5.1c5.7,0,7.6,2.5,7.6,5.1v11.6c0,2.6-1.9,5.1-7.6,5.1c-5.7,0-7.6-2.5-7.6-5.1
			C125.5,27.2,125.5,15.6,125.5,15.6z M136.5,16.4c0-1.6-1.3-2.4-3.4-2.4c-2.1,0-3.4,0.8-3.4,2.4v10.1c0,1.6,1.3,2.4,3.4,2.4
			c2.1,0,3.4-0.8,3.4-2.4V16.4z"/>
		<path class="st0" d="M149.4,18.7c0.2,0.5,0.5,1.5,0.5,1.7c0-0.1,0.3-1.2,0.6-1.7l3.3-7.2c0.2-0.4,0.4-0.8,0.9-0.8h2.7
			c0.5,0,0.8,0.3,0.6,0.8l-5.9,12.4v7.4c0,0.5-0.2,0.8-0.8,0.8h-2.7c-0.6,0-0.8-0.3-0.8-0.8v-6.9l-6-12.9c-0.2-0.5,0-0.8,0.5-0.8
			h3.1c0.5,0,0.8,0.3,0.9,0.8L149.4,18.7z"/>
		<path class="st0" d="M164,26.5c0,1.6,1.3,2.4,3.4,2.4c2.1,0,3.4-0.8,3.4-2.4V11.6c0-0.6,0.2-0.8,0.8-0.8h2.7
			c0.6,0,0.7,0.3,0.7,0.8v15.7c0,2.6-1.9,5.1-7.6,5.1c-5.7,0-7.6-2.5-7.6-5.1V11.6c0-0.6,0.2-0.8,0.8-0.8h2.7c0.5,0,0.8,0.3,0.8,0.8
			L164,26.5L164,26.5z"/>
		<path class="st0" d="M193.6,31.3c0,0.5-0.2,0.8-0.8,0.8h-2.5c-0.4,0-0.6-0.1-0.7-0.4l-6.1-10.4c-0.8-1.4-1.2-2.4-1.3-2.5v12.5
			c0,0.5-0.2,0.8-0.8,0.8h-2.5c-0.6,0-0.8-0.3-0.8-0.8V11.5c0-0.5,0.2-0.8,0.8-0.8h2.5c0.3,0,0.5,0.1,0.7,0.3l6.3,10.8
			c0.5,0.9,1.1,2.2,1.1,2.2V11.5c0-0.5,0.2-0.8,0.8-0.8h2.5c0.6,0,0.8,0.3,0.8,0.8V31.3z"/>
		<path class="st0" d="M201.5,28.6h7c0.5,0,0.8,0.2,0.8,0.8v2c0,0.6-0.3,0.8-0.8,0.8h-10.6c-0.5,0-0.7-0.3-0.7-0.8V11.6
			c0-0.6,0.2-0.8,0.8-0.8h2.7c0.6,0,0.8,0.3,0.8,0.8V28.6z"/>
		<path class="st0" d="M219.2,10.8c0.6,0,0.8,0.3,1,0.8l5.8,19.8c0.2,0.5,0,0.8-0.6,0.8h-2.8c-0.5,0-0.8-0.3-0.9-0.8l-1.1-3.8h-5.8
			l-1.1,3.8c-0.2,0.5-0.4,0.8-0.9,0.8h-2.5c-0.6,0-0.8-0.3-0.6-0.8l5.9-19.8c0.2-0.5,0.4-0.8,1-0.8
			C216.6,10.8,219.2,10.8,219.2,10.8z M218.7,20.6c-0.4-1.3-0.9-5.3-0.9-5.7c-0.1,0.4-0.6,4.4-1,5.7l-1.1,3.5h4L218.7,20.6z"/>
		<path class="st0" d="M232.2,24v7.3c0,0.6-0.2,0.8-0.8,0.8h-2.7c-0.6,0-0.8-0.3-0.8-0.8V11.6c0-0.6,0.2-0.8,0.8-0.8h6.6
			c5.7,0,7.6,2.5,7.6,5.1v3c0,1.9-0.9,3.6-3.5,4.5l3.4,7.9c0.2,0.5-0.2,0.8-0.7,0.8h-2.8c-0.4,0-0.6-0.3-0.8-0.8l-3.1-7.3h-0.2
			H232.2z M232.2,14.3v6.2h3.1c2.1,0,3.4-0.8,3.4-2.4v-1.5c0-1.6-1.3-2.4-3.4-2.4L232.2,14.3L232.2,14.3z"/>
	</g>
</g>
<g>
	<g>
		<path class="st0" d="M7.5,22.1c0-0.1,0-0.3,0-0.4v-0.3l0,0C7.9,12.7,15,5.8,23.8,5.8s15.9,6.9,16.3,15.6l0,0l0,0l0,0V22l0,0l0,0
			h3.3C43.3,11.4,34.5,2.7,23.8,2.7C13,2.7,4.3,11.4,4.2,22.1H7.5L7.5,22.1z"/>
	</g>
	<g>
		<path class="st0" d="M32.2,16.5l3.9-2.3c-1.2-1.8-2.7-3.4-4.6-4.6l-2.3,3.9C30.5,14.4,31.5,15.3,32.2,16.5z"/>
	</g>
	<g>
		<path class="st0" d="M33.9,21.4h4.5c-0.1-2.2-0.7-4.4-1.7-6.2l-3.9,2.3C33.4,18.7,33.8,20,33.9,21.4z"/>
	</g>
	<g>
		<path class="st0" d="M28.3,13l2.3-3.9c-1.9-1-4-1.6-6.3-1.7V12C25.8,12.1,27.1,12.4,28.3,13z"/>
	</g>
	<g>
		<path class="st0" d="M18.2,13.6L16,9.7c-1.8,1.2-3.4,2.7-4.6,4.6l3.9,2.3C16.1,15.3,17.1,14.4,18.2,13.6z"/>
	</g>
	<g>
		<path class="st0" d="M23.2,12V7.4c-2.3,0.1-4.4,0.7-6.3,1.7l2.3,3.9C20.4,12.4,21.8,12.1,23.2,12z"/>
	</g>
	<g>
		<path class="st0" d="M14.8,17.5l-3.9-2.3c-1,1.9-1.6,4-1.7,6.2h4.5C13.8,20,14.1,18.7,14.8,17.5z"/>
	</g>
	<g>
		<path class="st0" d="M40.1,22.1L40.1,22.1L40.1,22.1L40.1,22.1z"/>
	</g>
	<g>
		<polygon class="st0" points="40.1,22.1 40.1,22.1 40.1,22.1 		"/>
	</g>
	<g>
		<polygon class="st0" points="32.3,22.1 32.9,22.1 32.9,22.1 		"/>
	</g>
	<g>
		<path class="st0" d="M7.5,22c0,0.1,0,0.3,0,0.4v0.3l0,0c0.3,8.7,7.5,15.6,16.3,15.6s15.9-6.9,16.3-15.6l0,0l0,0l0,0V22l0,0l0,0
			h3.3c-0.1,10.7-8.9,19.4-19.6,19.4C13,41.4,4.3,32.7,4.2,22H7.5L7.5,22z"/>
	</g>
	<g>
		<path class="st0" d="M32.2,27.6l3.9,2.3c-1.2,1.8-2.7,3.4-4.6,4.6l-2.3-3.9C30.5,29.7,31.5,28.8,32.2,27.6z"/>
	</g>
	<g>
		<path class="st0" d="M33.9,22.7h4.5c-0.1,2.2-0.7,4.4-1.7,6.2l-3.9-2.3C33.4,25.4,33.8,24.1,33.9,22.7z"/>
	</g>
	<g>
		<path class="st0" d="M28.3,31.1l2.3,3.9c-1.9,1-4,1.6-6.3,1.7v-4.5C25.8,32.1,27.1,31.7,28.3,31.1z"/>
	</g>
	<g>
		<path class="st0" d="M18.2,30.5L16,34.4c-1.8-1.2-3.4-2.7-4.6-4.6l3.9-2.3C16.1,28.8,17.1,29.7,18.2,30.5z"/>
	</g>
	<g>
		<path class="st0" d="M23.2,32.1v4.5c-2.2,0-4.4-0.6-6.3-1.6l2.3-3.9C20.4,31.7,21.8,32.1,23.2,32.1z"/>
	</g>
	<g>
		<path class="st0" d="M14.8,26.6l-3.9,2.3c-1-1.9-1.6-4-1.7-6.2h4.5C13.8,24.1,14.1,25.4,14.8,26.6z"/>
	</g>
	<g>
		<path class="st0" d="M40.1,22L40.1,22L40.1,22L40.1,22z"/>
	</g>
	<g>
		<polygon class="st0" points="40.1,22 40.1,22 40.1,22 		"/>
	</g>
	<g>
		<polygon class="st0" points="32.3,22 32.9,22 32.9,22 		"/>
	</g>
	<g>
		<path class="st0" d="M32.9,22.1C32.9,22,32.9,22,32.9,22.1L32.9,22.1c0-0.3-0.1-0.5-0.3-0.6l0,0c-0.2-0.2-0.5-0.3-0.8-0.3
			s-0.6,0.1-0.8,0.3l0,0c-0.1,0.1-0.2,0.3-0.2,0.4l-4.3-0.3c0,0,0,0,0-0.1l0,0c0-0.1-0.1-0.2-0.1-0.3c-0.1-0.4-0.3-0.7-0.6-1
			c-0.1-0.1-0.2-0.2-0.3-0.3c-0.3-0.2-0.6-0.4-1-0.6c-0.1,0-0.2-0.1-0.3-0.1v-0.6L24,14.9c0.1,0,0.2-0.1,0.3-0.1
			c0.3-0.2,0.5-0.5,0.5-0.8c0-0.4-0.2-0.7-0.5-0.8C24.1,13.1,24,13,23.7,13c-0.2,0-0.4,0.1-0.6,0.2c-0.3,0.2-0.4,0.5-0.4,0.8
			s0.2,0.7,0.4,0.8c0.1,0.1,0.2,0.1,0.3,0.1l-0.3,3.8v0.6c-0.1,0-0.2,0.1-0.3,0.1c-0.4,0.1-0.7,0.3-1,0.6c-0.1,0.1-0.2,0.2-0.3,0.3
			c-0.3,0.3-0.4,0.6-0.6,1c0,0.1-0.1,0.2-0.1,0.3c0,0,0,0,0,0.1L16.5,22c0-0.2-0.1-0.3-0.2-0.4c-0.2-0.2-0.5-0.3-0.8-0.3
			s-0.6,0.1-0.8,0.3c-0.1,0.2-0.2,0.4-0.2,0.6l0,0l0,0l0,0l0,0l0,0l0,0c0,0.2,0.1,0.4,0.2,0.6c0.2,0.2,0.5,0.3,0.8,0.3
			s0.6-0.1,0.8-0.3c0.1-0.1,0.2-0.3,0.2-0.4l4.3,0.3c0,0,0,0,0,0.1s0.1,0.2,0.1,0.3c0.1,0.4,0.3,0.7,0.6,1c0.1,0.1,0.2,0.2,0.3,0.3
			c0.3,0.2,0.6,0.4,1,0.6c0.1,0,0.2,0.1,0.3,0.1v0.6l0.3,3.8c-0.1,0-0.2,0.1-0.3,0.1c-0.3,0.2-0.4,0.5-0.4,0.8s0.2,0.7,0.4,0.8
			c0.2,0.1,0.4,0.2,0.6,0.2s0.4-0.1,0.6-0.2c0.3-0.2,0.5-0.5,0.5-0.8c0-0.4-0.2-0.7-0.5-0.8c-0.1-0.1-0.2-0.1-0.3-0.1l0.3-3.8v-0.6
			c0.1,0,0.2-0.1,0.3-0.1c0.4-0.1,0.7-0.3,1-0.6c0.1-0.1,0.2-0.2,0.3-0.3c0.2-0.3,0.4-0.6,0.6-1c0-0.1,0.1-0.2,0.1-0.3l0,0
			c0,0,0,0,0-0.1l4.3-0.3c0,0.2,0.1,0.3,0.2,0.4l0,0c0.2,0.2,0.5,0.3,0.8,0.3s0.6-0.1,0.8-0.3l0,0C32.8,22.5,32.9,22.3,32.9,22.1
			L32.9,22.1L32.9,22.1z"/>
	</g>
	<g>
		<circle class="st0" cx="23.8" cy="22.1" r="1.2"/>
	</g>
</g>
</svg>
