<?xml version="1.0" encoding="utf-8"?>
<!-- Generator: Adobe Illustrator 24.1.2, SVG Export Plug-In . SVG Version: 6.00 Build 0)  -->
<svg version="1.1" id="Layer_1" xmlns="http://www.w3.org/2000/svg" xmlns:xlink="http://www.w3.org/1999/xlink" x="0px" y="0px"
	 viewBox="0 0 257 37.9" style="enable-background:new 0 0 257 37.9;" xml:space="preserve">
<style type="text/css">
	.st0{fill:#FFFFFF;}
	.st1{fill:#DA0E11;}
	.st2{fill:#F6EB1F;}
	.st3{fill:#F0C46D;}
	.st4{fill:none;}
	.st5{clip-path:url(#SVGID_2_);fill:url(#SVGID_3_);}
	.st6{clip-path:url(#SVGID_5_);fill:url(#SVGID_6_);}
	.st7{clip-path:url(#SVGID_8_);fill:url(#SVGID_9_);}
	.st8{fill:#FFD782;}
	.st9{fill:#DA1C4B;}
	.st10{fill:#8EC13F;}
	.st11{fill:#F9BB4B;}
	.st12{fill:#FFF69A;}
	.st13{fill:#E5E4CF;}
	.st14{fill:#143441;}
	.st15{clip-path:url(#SVGID_11_);fill:#F4F4E6;}
	.st16{clip-path:url(#SVGID_11_);fill:#FFFFFF;}
	.st17{fill:url(#SVGID_12_);}
	.st18{fill:url(#SVGID_13_);}
</style>
<g>
	<g>
		<path class="st0" d="M169.3,12.5c0.3-2.6,2.5-5.1,8.2-5.1c5.7,0,7.4,2.5,7.1,5.1l-1.3,11.6c-0.3,2.6-2.5,5.1-8.2,5.1
			c-5.7,0-7.4-2.5-7.1-5.1L169.3,12.5z M180.2,13.3c0.2-1.6-1-2.4-3.1-2.4c-2.1,0-3.4,0.8-3.6,2.4l-1.1,10.1c-0.2,1.6,1,2.4,3.1,2.4
			c2.1,0,3.5-0.8,3.6-2.4L180.2,13.3z M177.1,5.2C177,5.8,176.8,6,176.2,6h-1.5c-0.5,0-0.7-0.2-0.7-0.8l0.3-2.9
			c0.1-0.6,0.3-0.8,0.8-0.8h1.5c0.6,0,0.7,0.3,0.7,0.8L177.1,5.2z M181.4,5.2c-0.1,0.6-0.3,0.8-0.8,0.8h-1.5c-0.6,0-0.7-0.2-0.7-0.8
			l0.3-2.9c0.1-0.6,0.3-0.8,0.8-0.8h1.5c0.5,0,0.7,0.3,0.6,0.8L181.4,5.2z"/>
		<path class="st0" d="M199.5,7.6c0.6,0,0.8,0.2,0.7,0.8l-0.2,1.9c0,0.3-0.1,0.5-0.3,0.6l-9.6,14.5h8c0.5,0,0.8,0.2,0.7,0.8l-0.2,2
			c-0.1,0.6-0.3,0.8-0.9,0.8h-12.3c-0.6,0-0.8-0.2-0.7-0.8l0.2-2c0-0.3,0.1-0.4,0.2-0.5l9.7-14.5H188c-0.5,0-0.8-0.2-0.7-0.8l0.2-2
			c0.1-0.6,0.3-0.8,0.9-0.8H199.5z"/>
		<path class="st0" d="M201.4,29c-0.6,0-0.7-0.3-0.7-0.8l2.2-19.7c0.1-0.6,0.3-0.8,0.8-0.8h10.7c0.5,0,0.8,0.2,0.7,0.8l-0.2,2
			c-0.1,0.6-0.3,0.8-0.9,0.8h-7.2l-0.6,5.1h6.7c0.6,0,0.8,0.2,0.7,0.8l-0.2,1.9c-0.1,0.5-0.3,0.8-0.9,0.8h-6.7l-0.6,5.8h7.6
			c0.6,0,0.8,0.2,0.7,0.8l-0.2,2c-0.1,0.6-0.3,0.8-0.9,0.8H201.4z"/>
		<path class="st0" d="M220.6,25.5h7c0.5,0,0.8,0.2,0.7,0.8l-0.2,2c-0.1,0.6-0.3,0.8-0.9,0.8h-10.6c-0.5,0-0.6-0.3-0.6-0.8l2.2-19.7
			c0.1-0.6,0.3-0.8,0.8-0.8h2.7c0.6,0,0.7,0.3,0.7,0.8L220.6,25.5z"/>
	</g>
</g>
<g>
	<path class="st0" d="M28.6,9.2c-0.6,0.9-1.5,1.5-2.5,1.9c-1,0.4-2,0.5-3,0.6c-0.1,0-0.2,0-0.3,0c0,0.1,0,0.2-0.1,0.2
		c-0.2,1.2-0.4,2.3-0.5,3.5c-0.2,1.4-0.4,2.9-0.7,4.3c-0.2,1.4-0.4,2.9-0.7,4.3c-0.1,1-0.3,1.9-0.5,2.9c-0.1,0.5-0.2,1-0.5,1.5
		c-0.3,0.5-0.8,0.8-1.3,0.9c-0.5,0.1-0.9,0-1.3-0.3c-0.6,0.6-1.3,1.2-2,1.7c-0.7,0.5-1.5,0.9-2.3,1.3c0.4,0.4,0.9,0.7,1.4,0.8
		c0.5,0.2,1.1,0.3,1.7,0.4c0.3,0,0.5,0.1,0.8,0.1h2.3c0.1,0,0.2,0,0.2-0.1c1-0.1,1.9-0.3,2.7-0.8c1.7-0.9,2.9-2.1,3.5-4
		c0.1-0.2,0.1-0.4,0.2-0.6c0.4-1.5,0.6-3,0.9-4.5c0.2-1.6,0.5-3.1,0.7-4.7c0.2-1.6,0.5-3.2,0.7-4.7s0.5-3.2,0.7-4.7
		c0-0.1,0-0.1,0-0.2C28.7,9.1,28.7,9.1,28.6,9.2C28.6,9.2,28.6,9.2,28.6,9.2"/>
	<path class="st0" d="M62,9.2c-0.6,0.9-1.5,1.6-2.6,2c-0.9,0.4-1.9,0.5-3,0.5c-0.1,0-0.2,0-0.3,0c0,0.1,0,0.1,0,0.2
		c-0.2,1.2-0.4,2.3-0.5,3.5c-0.2,1.4-0.4,2.8-0.6,4.2c-0.2,1.4-0.4,2.9-0.7,4.3c-0.1,1-0.3,1.9-0.5,2.9c-0.1,0.6-0.3,1.1-0.5,1.6
		c-0.5,1-1.9,1.1-2.6,0.6c-0.6,0.6-1.3,1.2-2,1.7c-0.7,0.5-1.5,0.9-2.3,1.3c0.4,0.4,0.8,0.6,1.3,0.8c0.6,0.2,1.2,0.4,1.8,0.4
		c0.3,0,0.5,0.1,0.8,0.1h2.2c0.1,0,0.2,0,0.2-0.1c0.7-0.1,1.4-0.2,2-0.5c2.1-0.8,3.6-2.2,4.3-4.4c0.4-1.2,0.6-2.3,0.8-3.5
		c0.2-1.6,0.5-3.1,0.7-4.7c0.2-1.6,0.5-3.2,0.7-4.7c0.3-1.7,0.5-3.4,0.8-5.1c0.1-0.4,0.1-0.8,0.2-1.2C62.1,9.1,62.1,9.2,62,9.2"/>
	<path class="st2" d="M56.6,9c0.1,0,0.2,0,0.3,0c0.5,0,1-0.1,1.5-0.2c1-0.2,2-0.5,2.9-1.2c0.5-0.4,1-0.8,1.3-1.4H57
		C56.9,7.2,56.7,8.1,56.6,9"/>
	<path class="st2" d="M23.5,6.5c-0.1,0.7-0.2,1.4-0.3,2.1c0,0.1,0,0.2,0,0.3c0.1,0,0.1,0,0.2,0c0.9,0,1.8-0.1,2.7-0.4
		c1-0.3,1.9-0.8,2.6-1.6c0.2-0.2,0.3-0.4,0.5-0.7h-5.6C23.5,6.4,23.6,6.5,23.5,6.5"/>
	<path class="st0" d="M85.5,15.9c-0.7-3.1-2.5-5.3-5.5-6.3c-2.2-0.7-4.4-0.8-6.6-0.5c-3.7,0.6-6.5,2.5-8.4,5.7
		c-0.9,1.4-1.4,3-1.6,4.7c-0.2,1.4-0.2,2.7,0.1,4.1c0.7,3,2.4,5.2,5.3,6.3c1.4,0.6,2.9,0.7,4.5,0.7c0.7,0,1.5-0.1,2.3-0.2
		c3.8-0.6,6.6-2.7,8.5-6c0.8-1.3,1.2-2.8,1.4-4.3C85.7,18.7,85.8,17.3,85.5,15.9 M78.2,18.4c0,1.3-0.2,2.6-0.7,3.9
		c-0.3,0.9-0.8,1.6-1.5,2.2c-0.8,0.7-1.7,0.9-2.8,0.8c-1.1-0.1-1.8-0.8-2.2-1.7c-0.3-0.5-0.4-1.1-0.4-1.7c0-1.6,0.2-3.1,0.8-4.5
		c0.4-0.9,0.9-1.6,1.7-2.2c0.8-0.5,1.6-0.7,2.5-0.6c1,0.2,1.7,0.8,2.2,1.7c0.2,0.4,0.3,0.9,0.3,1.4C78.2,17.9,78.2,18.1,78.2,18.4"
		/>
	<path class="st0" d="M50.9,23.9c0.7-1.3,1-2.7,1.2-4.2c0.2-1.3,0.2-2.7-0.1-4c-0.4-1.9-1.3-3.4-2.8-4.7c-1.1-0.9-2.3-1.4-3.7-1.7
		c-1.7-0.4-3.5-0.5-5.2-0.2c-1.6,0.2-3.1,0.6-4.5,1.5c-2.9,1.7-4.8,4.2-5.7,7.5c-0.5,1.8-0.7,3.6-0.3,5.4c0.6,3.1,2.4,5.3,5.4,6.4
		c1.4,0.6,2.9,0.7,4.4,0.7c0.6,0,1.2-0.1,1.7-0.1c0.3,0,0.6-0.1,0.9-0.1C46.3,29.7,49.1,27.5,50.9,23.9 M43.9,22.6
		c-0.3,0.8-0.8,1.4-1.5,1.9c-0.8,0.6-1.7,0.8-2.7,0.7c-1.1-0.2-1.8-0.8-2.2-1.8c-0.3-0.7-0.4-1.4-0.4-2.5c0-1,0.2-2.3,0.7-3.6
		c0.4-1,1-1.8,1.8-2.4c0.8-0.5,1.6-0.7,2.5-0.6c1,0.1,1.7,0.8,2.2,1.7c0.3,0.5,0.4,1.1,0.4,1.7C44.8,19.5,44.6,21.1,43.9,22.6"/>
	<rect x="13" y="6.3" class="st4" width="132.7" height="27.1"/>
	<g>
		<defs>
			<path id="SVGID_1_" d="M131.4,9c-0.2,0-0.4,0-0.6,0c-0.5,0-0.9,0-1.4,0c-0.3,0-0.4,0.1-0.4,0.3c0,0.1,0,0.1,0,0.2
				c-0.2,1.1-0.3,2.1-0.5,3.2c-0.1,0.5-0.1,0.9-0.2,1.4c0,0.2,0,0.3,0.2,0.3c0.1,0,0.2,0,0.3,0c1.5,0,3.1,0,4.6,0c0.1,0,0.2,0,0.3,0
				c0,0.3-0.1,0.6-0.1,0.9c-0.4,2.6-0.8,5.1-1.2,7.7c-0.4,2.4-0.7,4.8-1.1,7.1c-0.1,0.5-0.1,0.5,0.4,0.5c1.5,0,3.1,0,4.6,0
				c0.5,0,0.5,0,0.6-0.5c0.2-1.4,0.4-2.9,0.6-4.3c0.2-1.6,0.5-3.1,0.7-4.7c0.3-1.8,0.6-3.6,0.8-5.5c0.1-0.4,0.1-0.9,0.2-1.3
				c0.1,0,0.2,0,0.3,0c1.6,0,3.1,0,4.7,0c0.1,0,0.2,0,0.3,0c0.2,0,0.3-0.1,0.3-0.3c0-0.1,0-0.1,0-0.2c0.2-1.2,0.4-2.5,0.6-3.7
				c0-0.2,0.1-0.5,0.1-0.7V9c-0.2,0-0.4,0-0.7,0C140.5,9,136,9,131.4,9"/>
		</defs>
		<clipPath id="SVGID_2_">
			<use xlink:href="#SVGID_1_"  style="overflow:visible;"/>
		</clipPath>
		
			<linearGradient id="SVGID_3_" gradientUnits="userSpaceOnUse" x1="-104.7003" y1="309.4784" x2="-104.3586" y2="309.4784" gradientTransform="matrix(-5.4989 93.4808 93.4808 5.4989 -29368.2891 8091.834)">
			<stop  offset="0" style="stop-color:#F6EB1F"/>
			<stop  offset="0.1671" style="stop-color:#F6E11F"/>
			<stop  offset="0.4539" style="stop-color:#F5C51F"/>
			<stop  offset="0.8234" style="stop-color:#F49920"/>
			<stop  offset="1" style="stop-color:#F48120"/>
		</linearGradient>
		<polygon class="st5" points="146.9,9.1 145.6,31.7 127,30.6 128.3,8 		"/>
	</g>
	<g>
		<defs>
			<path id="SVGID_4_" d="M85.2,9c-0.1,0-0.1,0-0.3,0c1.7,1.5,2.7,3.3,3.3,5.4h0.4c3.4,0,6.8,0,10.2,0c0.1,0,0.2,0,0.3,0
				c0.8,0,1.3,0.7,1.1,1.4c-0.1,0.6-0.5,1-1.1,1.2c-0.2,0.1-0.4,0.1-0.6,0.1c-3.2,0-6.3,0-9.5,0c-0.1,0-0.2,0-0.3,0
				c0.1,1.8-0.2,3.6-0.7,5.4h0.4c3.4,0,6.8,0,10.2,0c0.1,0,0.2,0,0.3,0c0.7,0.1,1.2,0.7,1.1,1.4c-0.1,0.7-0.7,1.2-1.4,1.3
				c-0.2,0-0.3,0-0.5,0c-3.7,0-7.3,0-11,0c-0.2,0-0.3,0-0.4,0.2c-1,2-2.5,3.7-4.3,5c0,0-0.1,0.1-0.2,0.2h0.4c4,0,8,0,12,0
				c1.7,0,3.4-0.2,5-0.4c0.9-0.1,1.8-0.4,2.5-0.9c2.3-1.5,3.5-3.6,3.3-6.3c-0.1-1.2-0.6-2.2-1.7-2.9c-0.5-0.3-1-0.6-1.6-0.8
				c-0.1,0-0.3-0.1-0.5-0.2c0.1-0.1,0.2-0.1,0.3-0.1c0.3-0.1,0.6-0.2,0.9-0.4c1.4-0.7,2.4-1.7,2.9-3.2c0.4-1,0.5-2.1,0.2-3.1
				c-0.4-1.4-1.4-2.4-2.8-2.9c-0.9-0.3-1.8-0.4-2.7-0.4c-2.3,0-4.5,0-6.8,0C90.7,9,87.9,9,85.2,9"/>
		</defs>
		<clipPath id="SVGID_5_">
			<use xlink:href="#SVGID_4_"  style="overflow:visible;"/>
		</clipPath>
		
			<linearGradient id="SVGID_6_" gradientUnits="userSpaceOnUse" x1="-104.7003" y1="310.3407" x2="-104.3586" y2="310.3407" gradientTransform="matrix(-5.4989 93.4808 93.4808 5.4989 -29491.5391 8084.584)">
			<stop  offset="0" style="stop-color:#F6EB1F"/>
			<stop  offset="0.1671" style="stop-color:#F6E11F"/>
			<stop  offset="0.4539" style="stop-color:#F5C51F"/>
			<stop  offset="0.8234" style="stop-color:#F49920"/>
			<stop  offset="1" style="stop-color:#F48120"/>
		</linearGradient>
		<polygon class="st6" points="107.4,9.1 106.1,32 80.9,30.6 82.3,7.6 		"/>
	</g>
	<g>
		<defs>
			<path id="SVGID_7_" d="M109.4,9.4c-0.2,1.1-0.3,2.1-0.4,3.2c-0.2,1.5-0.4,3-0.7,4.5c-0.2,1.5-0.5,3.1-0.7,4.6
				c-0.2,1.5-0.5,3.1-0.7,4.6c-0.2,1.3-0.4,2.6-0.6,3.9c-0.1,0.4-0.1,0.5,0.4,0.5c4,0,8,0,12,0c0.3,0,0.7,0,1,0c0.8,0,1.7,0,2.5,0
				c0.6,0,0.6-0.1,0.7-0.6c0.2-1.3,0.4-2.5,0.6-3.8c0-0.2,0.1-0.4,0.1-0.6c0-0.2-0.1-0.3-0.3-0.4c-0.1,0-0.2,0-0.3,0
				c-3.4,0-6.7,0-10.1,0h-0.4c0.1-0.9,0.3-1.8,0.4-2.7h0.4c1.6,0,3.2,0,4.8,0c0.4,0,0.4,0,0.5-0.4c0,0,0-0.1,0-0.1
				c0.2-1.4,0.4-2.9,0.6-4.3c0.1-0.6,0.1-0.6-0.5-0.6c-1.6,0-3.1,0-4.7,0h-0.3c0.1-0.9,0.3-1.8,0.4-2.7c0.1,0,0.2,0,0.3,0
				c1,0,2,0,3,0c2.5,0,5,0,7.6,0c0.3,0,0.4,0,0.4-0.4c0,0,0,0,0-0.1c0.2-1.5,0.4-3,0.7-4.5c0.1-0.5,0-0.5-0.4-0.5
				c-1.5,0-3.1,0-4.6,0c-3.8,0-7.5,0-11.3,0C109.5,9,109.4,9,109.4,9.4"/>
		</defs>
		<clipPath id="SVGID_8_">
			<use xlink:href="#SVGID_7_"  style="overflow:visible;"/>
		</clipPath>
		
			<linearGradient id="SVGID_9_" gradientUnits="userSpaceOnUse" x1="-104.7003" y1="309.8908" x2="-104.3586" y2="309.8908" gradientTransform="matrix(-5.4989 93.4808 93.4808 5.4989 -29427.5352 8088.3491)">
			<stop  offset="0" style="stop-color:#F6EB1F"/>
			<stop  offset="0.1671" style="stop-color:#F6E11F"/>
			<stop  offset="0.4539" style="stop-color:#F5C51F"/>
			<stop  offset="0.8234" style="stop-color:#F49920"/>
			<stop  offset="1" style="stop-color:#F48120"/>
		</linearGradient>
		<polygon class="st7" points="127.4,9.1 126.1,31.8 104.9,30.6 106.2,7.8 		"/>
	</g>
</g>
<polygon class="st2" points="156,12.7 158.2,17.1 163.1,17.8 159.5,21.2 160.4,26 156,23.7 151.7,26 152.5,21.2 149,17.8 
	153.9,17.1 "/>
<polygon class="st2" points="237,12.7 239.2,17.1 244,17.8 240.5,21.2 241.4,26 237,23.7 232.7,26 233.5,21.2 230,17.8 234.8,17.1 
	"/>
</svg>
