<?xml version="1.0" encoding="utf-8"?>
<!-- Generator: Adobe Illustrator 24.1.2, SVG Export Plug-In . SVG Version: 6.00 Build 0)  -->
<svg version="1.1" id="Layer_1" xmlns="http://www.w3.org/2000/svg" xmlns:xlink="http://www.w3.org/1999/xlink" x="0px" y="0px"
	 viewBox="0 0 257 48.7" style="enable-background:new 0 0 257 48.7;" xml:space="preserve">
<style type="text/css">
	.st0{fill:#FFFFFF;}
	.st1{fill:#BA1218;}
</style>
<g>
	<path class="st0" d="M59.7,23.7c-1.9-1.4-3.2-2.4-3.7-2.9c-0.3-0.3-0.7-0.7-1.1-1.2c-0.4-0.5-0.6-1.2-0.6-2c0-1.1,0.3-1.9,0.9-2.5
		s1.5-0.9,2.6-0.9c2.3,0,3.7,1.4,4.1,4.1h0.8v-4.1c0-0.2,0-0.3-0.1-0.4c-0.4-0.5-1.9-0.7-4.5-0.7c-1.9,0-3.5,0.5-4.8,1.3
		c-1.5,1-2.2,2.5-2.2,4.3c0,1.1,0.3,2,0.9,2.8c0.6,0.7,1.6,1.7,3.1,2.8c2.4,1.7,4,3,4.7,3.9c0.8,0.9,1.2,1.9,1.2,3.1
		c0,1.2-0.4,2.2-1.2,3s-1.8,1.2-3.1,1.2c-1.8,0-3.1-0.7-4.1-2.2c-0.4-0.6-0.7-1.6-0.9-3h-0.8v4.5c0,0.3,0.1,0.6,0.4,0.7
		c0.4,0.2,1.2,0.4,2.3,0.6s2.1,0.3,3,0.3c2.4,0,4.3-0.6,5.7-1.7c1.5-1.2,2.2-2.7,2.2-4.6c0-1.2-0.3-2.2-1-3.1
		C62.6,26.1,61.4,25,59.7,23.7z"/>
	<path class="st0" d="M76.5,19.6c-2.3,0-4.1,0.9-5.5,2.6v-2.6c-1.4,0.8-3.2,1.2-5.5,1.3v0.8h0.7c0.7,0,1.2,0.1,1.4,0.3
		c0.2,0.2,0.4,0.6,0.4,1.3v16.8c0,1.4-0.1,2.2-0.4,2.5s-1,0.5-2.2,0.7v0.8h8.8v-0.8c-1.6-0.2-2.6-0.4-2.9-0.7
		c-0.3-0.3-0.4-1.2-0.4-2.6v-4.4c1.2,0.5,2.5,0.7,3.6,0.7c2.5,0,4.5-0.9,6.1-2.6c1.6-1.7,2.4-4,2.4-6.7c0-2.3-0.6-4.2-1.8-5.5
		C80.1,20.2,78.5,19.6,76.5,19.6z M78.5,33.4c-0.9,1.3-2.2,2-3.9,2c-1.3,0-2.5-0.5-3.6-1.5v-5.7c0-1.7,0.1-3,0.2-3.8
		c0.5-2.2,1.8-3.3,3.8-3.3c1.5,0,2.7,0.6,3.6,1.8s1.3,2.8,1.3,4.9C79.9,30.3,79.5,32.1,78.5,33.4z"/>
	<path class="st0" d="M97.9,34.3c-0.4,0-0.7-0.2-0.9-0.5c-0.2-0.4-0.2-1-0.2-1.9v-7.2c0-1.8-0.4-3.1-1.3-3.9s-2.2-1.2-4.1-1.2
		c-1.5,0-2.9,0.3-4.1,0.8c-0.5,0.2-0.7,0.5-0.8,0.9L86,23.1c0,0.2,0,0.2,0.2,0.3l1,0.2c0.1,0,0.2,0,0.2,0c0.2,0,0.4-0.2,0.7-0.8
		c0.8-1.6,1.8-2.4,3-2.4c1.8,0,2.7,1.6,2.8,4.7l-3.5,1.4c-1.4,0.5-2.5,1-3.1,1.4c-1.6,1-2.5,2.3-2.5,4c0,1.3,0.4,2.3,1.2,3.1
		s1.8,1.2,3,1.2c0.7,0,1.5-0.3,2.3-0.9l2.5-1.7c0.1,0.9,0.3,1.7,0.8,2.6l4.6-1.5L99,33.8C98.5,34.2,98.2,34.3,97.9,34.3z M93.9,29.1
		c0,3.6-1.2,5.4-3.5,5.4c-0.8,0-1.4-0.2-1.9-0.7s-0.7-1.2-0.7-2c0-1.8,1.1-3.1,3.3-4.1c0.7-0.3,1.7-0.7,2.9-1.1L93.9,29.1L93.9,29.1
		z"/>
	<path class="st0" d="M116.6,34.3c-0.8,0-1.2-0.8-1.2-2.4V12.3c-1.7,0.7-3.6,1-5.5,1v0.9h0.9c0.6,0,1.1,0.1,1.3,0.3
		c0.2,0.2,0.4,0.7,0.4,1.6v4.1c-1.1-0.3-2.3-0.5-3.5-0.5c-2.6,0-4.7,0.8-6.3,2.4c-1.6,1.6-2.4,3.6-2.4,6.2c0,2.4,0.7,4.3,2.1,6
		c1.4,1.6,3.1,2.4,5.1,2.4c0.8,0,1.7-0.3,2.8-1l2.2-1.3v0.2c0.1,0.8,0.3,1.5,0.7,2.1l4.6-1.5l-0.2-0.9
		C117.2,34.2,116.9,34.3,116.6,34.3z M112.6,30.5c0,1.3-0.2,2.2-0.6,2.6s-0.9,0.8-1.5,1.1c-0.7,0.3-1.3,0.5-1.9,0.5
		c-1.7,0-3-0.9-3.9-2.6c-0.8-1.4-1.2-3.1-1.2-4.9c0-1.7,0.4-3.2,1.2-4.5c0.9-1.4,2.2-2.1,3.9-2.1c1.7,0,3,0.7,3.9,2L112.6,30.5
		L112.6,30.5z"/>
	<path class="st0" d="M132.2,23.7c-0.8-2.8-2.7-4.1-5.7-4.1c-2.2,0-4,0.7-5.3,2.2c-1.4,1.6-2.2,3.6-2.2,5.9c0,2.4,0.7,4.5,2.2,6.3
		c1.4,1.7,3.5,2.5,6.3,2.5h0.8l4.2-2l-0.5-1c-1.5,0.7-2.7,1.1-3.7,1.1c-1.2,0-2.2-0.2-3-0.7c-2.1-1.2-3.1-3.4-3.1-6.7h10.4
		C132.6,25.7,132.5,24.5,132.2,23.7z M127.8,26h-5.5c0.1-1,0.2-1.7,0.3-2.2c0.6-2.1,1.9-3.1,3.8-3.1c1,0,1.8,0.3,2.5,1s1,1.5,1,2.5
		C129.8,25.4,129.1,26,127.8,26z"/>
	<path class="st0" d="M150.3,20l-0.4-0.4c-1.4,0.3-2.9,0.5-4.6,0.5c-0.3,0-0.6,0-0.8,0c-0.9-0.3-1.8-0.4-2.8-0.4
		c-1.9,0-3.5,0.5-4.7,1.5s-1.8,2.3-1.8,4c0,2.3,1.2,4.1,3.7,5.1l-3.1,2.6c0,0,0,0.1,0,0.2s0,0.2,0,0.3c0,1,0.7,1.6,2.1,1.9l-3.4,1.8
		c-0.2,0.2-0.4,0.5-0.4,1.2c0,1.3,0.3,2.4,1,3.3c0.6,0.8,1.5,1.4,2.6,1.9c1.2,0.5,2.4,0.7,3.8,0.7c2.1,0,3.8-0.5,5.1-1.5
		c1.7-1.2,2.6-2.8,2.6-4.6c0-1.8-0.8-3.1-2.6-3.9c-0.8-0.3-2-0.6-3.6-0.9c-1.7-0.2-2.8-0.5-3.5-0.7c-0.4-0.2-0.7-0.4-0.7-0.8
		c0-0.4,0.3-0.8,0.9-1.3c0.6,0,1,0,1.3,0c1.8,0,3.3-0.5,4.5-1.6s1.8-2.4,1.8-3.9s-0.5-2.7-1.4-3.8h3.3L150.3,20z M139.2,35.4
		l3.2,0.6c0.7,0.1,1.4,0.3,2,0.4c1.5,0.5,2.3,1.4,2.3,2.9c0,1.1-0.5,2-1.4,2.7s-2.1,1.1-3.6,1.1s-2.7-0.4-3.6-1.2
		c-1-0.8-1.4-1.7-1.4-2.9c0-0.7,0.2-1.3,0.6-1.8C137.5,36.7,138.2,36.1,139.2,35.4z M141.7,29.7c-1,0-1.8-0.5-2.4-1.5
		c-0.6-1-1-2.2-1-3.7c0-1.3,0.3-2.3,0.8-3c0.6-0.7,1.3-1.1,2.3-1.1c0.9,0,1.7,0.4,2.2,1.3s0.8,2.1,0.8,3.7
		C144.4,28.3,143.5,29.7,141.7,29.7z"/>
	<path class="st0" d="M163.4,34.3c-0.4,0-0.7-0.2-0.9-0.5c-0.2-0.4-0.2-1-0.2-1.9v-7.2c0-1.8-0.4-3.1-1.3-3.9
		c-0.9-0.8-2.2-1.2-4.1-1.2c-1.5,0-2.9,0.3-4.1,0.8c-0.4,0.2-0.7,0.5-0.8,0.9l-0.5,1.8c0,0.2,0,0.2,0.2,0.3l1,0.2c0.1,0,0.2,0,0.2,0
		c0.2,0,0.4-0.2,0.7-0.8c0.8-1.6,1.8-2.4,3-2.4c1.8,0,2.7,1.6,2.8,4.7l-3.5,1.4c-1.4,0.5-2.5,1-3.1,1.4c-1.6,1-2.5,2.3-2.5,4
		c0,1.3,0.4,2.3,1.2,3.1c0.8,0.8,1.8,1.2,3,1.2c0.7,0,1.5-0.3,2.4-0.9l2.5-1.7c0.1,0.9,0.3,1.7,0.8,2.6l4.6-1.5l-0.2-0.9
		C164,34.2,163.6,34.3,163.4,34.3z M159.3,29.1c0,3.6-1.2,5.4-3.5,5.4c-0.8,0-1.4-0.2-1.9-0.7s-0.7-1.2-0.7-2c0-1.8,1.1-3.1,3.3-4.1
		c0.7-0.3,1.7-0.7,2.9-1.1v2.5H159.3z"/>
	<path class="st0" d="M191.6,32.1v-6.8c0-1.2-0.1-2-0.2-2.6c-0.5-2.1-1.9-3.1-4.4-3.1c-2.2,0-4.1,0.9-5.8,2.8
		c-0.5-1.1-1-1.8-1.6-2.2c-0.6-0.4-1.5-0.6-2.6-0.6c-2.4,0-4.3,0.9-5.9,2.8v-2.8c-1.4,0.8-3.3,1.3-5.5,1.4v0.8h0.7
		c0.7,0,1.2,0.1,1.5,0.3c0.2,0.2,0.4,0.6,0.4,1.3v8.7c0,1.4-0.1,2.3-0.3,2.6c-0.2,0.3-1,0.5-2.2,0.6v0.8h8.1v-0.8
		c-1.3-0.1-2.1-0.3-2.3-0.6c-0.2-0.3-0.3-1.1-0.3-2.6v-3.8c0-2.8,0.4-4.7,1.2-5.6c0.7-0.9,1.7-1.3,3.1-1.3c1.2,0,2,0.4,2.5,1.1
		c0.4,0.7,0.7,2,0.7,3.7v5.9c0,1.4-0.1,2.3-0.3,2.6c-0.2,0.3-1,0.5-2.2,0.6v0.8h8.1v-0.8c-1.3-0.1-2.1-0.3-2.3-0.6s-0.3-1.1-0.3-2.6
		v-3.8c0-1.4,0-2.4,0.1-2.9c0.2-1.1,0.5-2,1-2.7c0.7-0.9,1.7-1.4,3.1-1.4c1.2,0,2,0.4,2.5,1.1s0.7,2,0.7,3.7V32
		c0,1.4-0.1,2.3-0.3,2.6c-0.2,0.3-1,0.5-2.2,0.6V36h8.1v-0.7c-1.3-0.1-2.1-0.3-2.3-0.6C191.7,34.4,191.6,33.5,191.6,32.1z"/>
	<path class="st0" d="M198.9,17.4c0.5,0,1-0.2,1.3-0.5c0.4-0.3,0.6-0.8,0.6-1.3s-0.2-1-0.6-1.3c-0.4-0.4-0.8-0.6-1.3-0.6
		s-1,0.2-1.3,0.6c-0.4,0.4-0.6,0.8-0.6,1.3s0.2,1,0.6,1.4C197.9,17.3,198.4,17.4,198.9,17.4z"/>
	<path class="st0" d="M200.6,31.9V19.4c-1.4,0.8-3.3,1.3-5.5,1.4v0.8h0.7c0.7,0,1.2,0.1,1.5,0.3c0.2,0.2,0.4,0.6,0.4,1.3v8.7
		c0,1.4-0.1,2.3-0.3,2.6c-0.2,0.3-1,0.5-2.2,0.6v0.8h8.1v-0.8c-1.3-0.1-2.1-0.3-2.2-0.7C200.7,34.1,200.6,33.3,200.6,31.9z"/>
	<path class="st0" d="M221.1,31.9v-6.8c0-1.4-0.1-2.4-0.3-2.9c-0.7-1.8-2.2-2.7-4.5-2.7c-2.6,0-4.7,0.9-6.5,2.8v-2.8
		c-1.4,0.8-3.2,1.2-5.5,1.3v0.8h0.7c0.7,0,1.2,0.1,1.4,0.3c0.3,0.2,0.4,0.6,0.4,1.3V32c0,1.4-0.1,2.2-0.3,2.5s-1,0.5-2.2,0.7V36h8.1
		v-0.8c-1.3-0.2-2.1-0.4-2.3-0.7c-0.2-0.3-0.3-1.1-0.3-2.5v-4c0-1.4,0.1-2.6,0.2-3.3c0.5-2.3,2-3.5,4.4-3.5c1.4,0,2.3,0.4,2.8,1.1
		s0.8,2,0.8,3.7v6c0,1.4-0.1,2.2-0.2,2.5c-0.2,0.4-1,0.6-2.3,0.7V36h8.1v-0.8c-1.3-0.1-2.1-0.3-2.3-0.7
		C221.2,34.2,221.1,33.3,221.1,31.9z"/>
	<path class="st0" d="M241.1,19.8l-0.4-0.4c-1.4,0.3-2.9,0.5-4.6,0.5c-0.3,0-0.6,0-0.8,0c-0.9-0.3-1.8-0.4-2.8-0.4
		c-1.9,0-3.5,0.5-4.7,1.5s-1.8,2.3-1.8,4c0,2.3,1.2,4.1,3.7,5.1l-3.1,2.6c0,0,0,0.1,0,0.2s0,0.2,0,0.3c0,1,0.7,1.6,2.1,1.9l-3.4,1.8
		c-0.2,0.2-0.4,0.5-0.4,1.2c0,1.3,0.3,2.4,1,3.3c0.6,0.8,1.5,1.4,2.6,1.9c1.2,0.5,2.4,0.7,3.8,0.7c2.1,0,3.8-0.5,5.1-1.5
		c1.7-1.2,2.6-2.8,2.6-4.6s-0.8-3.1-2.6-3.9c-0.8-0.3-2-0.6-3.6-0.9c-1.7-0.2-2.8-0.5-3.5-0.7c-0.4-0.2-0.7-0.4-0.7-0.8
		s0.3-0.8,0.9-1.3c0.6,0,1,0,1.2,0c1.8,0,3.3-0.5,4.5-1.6s1.8-2.4,1.8-3.9s-0.5-2.7-1.4-3.8h3.3L241.1,19.8z M230,35.3l3.2,0.6
		c0.7,0.1,1.4,0.3,2,0.4c1.5,0.5,2.3,1.4,2.3,2.9c0,1.1-0.5,2-1.4,2.7S234,43,232.5,43s-2.7-0.4-3.6-1.2c-1-0.8-1.4-1.7-1.4-2.9
		c0-0.7,0.2-1.3,0.6-1.8C228.3,36.5,229,35.9,230,35.3z M232.5,29.5c-1,0-1.8-0.5-2.4-1.5s-1-2.2-1-3.7c0-1.3,0.3-2.3,0.8-3
		c0.6-0.7,1.3-1.1,2.3-1.1c0.9,0,1.7,0.4,2.2,1.3s0.8,2.1,0.8,3.7C235.2,28.1,234.3,29.5,232.5,29.5z"/>
</g>
<g>
	<path class="st1" d="M24.7,34.1l0.1-0.6l0.6,0.2c0.1,0,5.8,1.5,8.7-1c2.8-2.5,3.8-8.2,0.2-14C30.9,13.1,22.7,7.3,21.1,6.3
		C19.5,7.4,11.4,13.1,8,18.7c-3.6,5.8-2.5,11.6,0.2,14c2.9,2.6,8.6,1,8.7,1l0.6-0.2l0.1,0.6c0,0.1,0.3,3.4-2.1,6
		c-2,2.2-5.2,3.3-9.4,3.3v2c4.8,0,8.5-1.3,10.9-3.9c3-3.2,2.7-7.1,2.6-7.5l-0.3-2.9l-2.8,0.7c-1.2,0.3-5.1,0.9-6.9-0.6
		c-2.1-1.9-2.8-6.7,0.2-11.6c2.7-4.4,8.7-9,11.4-11c2.7,1.9,8.7,6.6,11.4,11c3,4.9,2.3,9.6,0.1,11.6c-1.7,1.5-5.6,0.9-6.9,0.6
		L23,31.1L22.8,34c0,0.4-0.3,4.3,2.6,7.5c2.4,2.6,6,3.9,10.9,3.9v-2c-4.3,0-7.4-1.1-9.4-3.3C24.4,37.5,24.7,34.2,24.7,34.1z"/>
	<path class="st1" d="M35.9,34.8c3.7-3.3,5.2-10.5,0.8-17.7C32.6,10.4,22.9,3.9,22.5,3.6l-1.3-0.9l-1.3,0.9
		C19.5,3.9,9.7,10.4,5.7,17.1c-4.4,7.2-3,14.4,0.8,17.7c2.2,2,5.3,2.3,7.7,2.2c-0.2,0.4-0.5,0.8-0.8,1.2c-1.4,1.5-3.8,2.3-7.2,2.3v2
		c4,0,6.9-1,8.7-3c1.6-1.7,1.9-3.8,1.9-4.7c-1.7,0.3-6.3,1-8.9-1.4c-3.1-2.8-4.3-8.9-0.4-15.3c3.8-6.3,13.3-12.6,13.6-12.8l0.3-0.2
		l0.3,0.2c0.4,0.3,9.8,6.5,13.6,12.8c3.9,6.3,2.7,12.5-0.4,15.3c-2.7,2.4-7.3,1.7-8.9,1.4c0,1,0.3,3,1.9,4.7c1.8,2,4.7,3,8.7,3v-2
		c-3.4,0-5.8-0.8-7.2-2.3c-0.3-0.4-0.6-0.8-0.8-1.2C30.7,37.2,33.7,36.8,35.9,34.8z"/>
</g>
<g>
	<path class="st0" d="M245.7,20.9h-1.5v-0.6h3.7v0.6h-1.5V25h-0.7V20.9z"/>
	<path class="st0" d="M249,20.3h1l1.5,3.6l0,0l1.5-3.6h1V25h-0.7v-3.9l0,0l-1.6,3.9h-0.4l-1.6-3.9l0,0V25H249V20.3z"/>
</g>
</svg>
