<?xml version="1.0" encoding="utf-8"?>
<!-- Generator: Adobe Illustrator 26.1.0, SVG Export Plug-In . SVG Version: 6.00 Build 0)  -->
<svg version="1.1" id="Layer_1" xmlns="http://www.w3.org/2000/svg" xmlns:xlink="http://www.w3.org/1999/xlink" x="0px" y="0px"
	 viewBox="0 0 358.8 60.6" style="enable-background:new 0 0 358.8 60.6;" xml:space="preserve">
<path style="fill:#9BD203;" d="M7.5,31c0.3-0.1,0.3-0.3,0.3-0.5c0.9-3.5,3-6.2,5.7-8.5c4.6-3.9,10.1-6.3,15.7-8.2
	c9.7-3.3,19.7-5.5,30-5.2c2.8,0.1,5.4,0.6,8,1.6c5.4,2.2,7.5,6.6,5.9,12.2c-1.2,4.1-3.6,7.5-6.3,10.7c-2.8,3.2-5.9,6-9.3,8.6
	c-0.2,0.2-0.4,0.5-1,0.4c0.4-0.5,0.7-0.9,1.1-1.3c3.5-4.2,6.3-8.7,7.7-14c1.5-6-0.5-10.8-5.8-13.9c-4.6-2.7-9.7-3.1-14.8-2
	c-7.6,1.6-14.5,4.7-19.7,10.7c-3.6,4.2-5.4,8.8-3.6,14.3c1.1,3.6,3.6,6.1,6.8,8c4.5,2.7,9.4,3.9,14.5,4.7c9.8,1.6,19.7,1.4,29.6,0.6
	c0.7-0.1,1.4,0,2.1,0.1c-1.6,0.4-3.2,0.7-4.8,1.1c-1.6,0.3-3.3,0.6-4.9,0.9c-10.6,2-21.2,2.3-31.9,1.1c-6.4-0.7-12.4-2.5-17.6-6.3
	c-3.5-2.6-6.2-5.8-7.3-10.1c0-0.2-0.2-0.3-0.3-0.4C7.5,34,7.5,32.5,7.5,31z"/>
<path style="fill:#9AD202;" d="M130.5,30.7c0,4.9,0,9.7,0,14.5c0,1.1-0.3,1.4-1.4,1.4c-2-0.1-4-0.1-6,0c-0.7,0-1-0.2-1-0.9
	c0-9.9,0-19.8,0-29.7c0-0.8,0.3-1,1.1-1c1.7,0,3.3,0.1,5,0c1,0,1.5,0.3,2,1.1c3.2,5.3,6.4,10.5,9.6,15.7c0.3,0.4,0.5,0.8,0.9,1.4
	c3.5-5.8,6.8-11.4,10.2-17.1c0.5-0.8,1-1.2,1.9-1.1c1.7,0.1,3.3,0.1,5,0c0.8,0,1.1,0.1,1.1,1.1c0,9.8,0,19.7,0,29.5c0,0.8-0.2,1-1,1
	c-2,0-4-0.1-6,0c-1,0-1.3-0.3-1.3-1.2c0-4.5,0-9.1-0.1-13.6c0-0.4,0-0.9,0-1.5c-0.5,0.2-0.7,0.7-0.9,1c-2.2,3.7-4.5,7.4-6.7,11.2
	c-0.4,0.7-0.9,0.9-1.8,1c-2.1,0.3-3.3-0.5-4.3-2.3c-1.7-3.2-3.7-6.2-5.6-9.2C131.3,31.5,131.1,31.1,130.5,30.7z"/>
<path style="fill:#9AD202;" d="M250.9,30c0,5.1,0,10.1,0,15.1c0,1-0.2,1.5-1.4,1.4c-2.1-0.1-4.2-0.1-6.3,0c-0.8,0-1.1-0.1-1.1-1
	c0-9.8,0-19.7,0-29.5c0-0.8,0.3-1.1,1-1c0,0,0.1,0,0.1,0c2,0,4.3-0.5,6.1,0.2c1.6,0.7,2.7,2.8,4,4.4c2.9,3.5,5.8,7,8.7,10.5
	c0.4,0.4,0.8,0.9,1.4,1.6c0-1,0-1.5,0-2c0-4.5,0-9,0-13.5c0-0.9,0.2-1.3,1.2-1.3c2.2,0.1,4.4,0,6.6,0c0.7,0,1.1,0.1,1.1,1
	c0,9.9,0,19.8,0,29.7c0,0.7-0.2,1-0.9,1c-1.9,0-3.8-0.1-5.7,0c-0.7,0-1.1-0.4-1.4-0.9c-4.1-4.9-8.2-9.8-12.3-14.7
	C251.7,30.6,251.5,30.2,250.9,30z"/>
<path style="fill:#9AD202;" d="M190,24.6c0-2.8,0-5.6,0-8.5c0-0.9,0.2-1.3,1.2-1.3c2.2,0.1,4.5,0,6.7,0c0.5,0,1,0,1,0.8
	c-0.1,6.3,0.4,12.7-0.2,19c-0.7,7.5-5.2,11.7-12.8,12.4c-3.4,0.3-6.7,0-9.8-1.6c-4.8-2.4-6.8-6.7-7-11.8c-0.2-5.9,0-11.8-0.1-17.7
	c0-0.9,0.4-1,1.1-1c2.2,0,4.5,0.1,6.7,0c0.9,0,1.2,0.3,1.2,1.2c0,5.3,0,10.6,0,15.9c0,1.4,0.1,2.8,0.6,4.1c0.9,2.4,2.7,3.6,5.5,3.6
	c2.8,0,4.5-1.2,5.3-3.6c0.5-1.6,0.6-3.2,0.6-4.8C190,29.1,190,26.9,190,24.6z"/>
<path style="fill:#9AD202;" d="M282.6,30.6c0-4.8,0-9.6,0-14.4c0-1,0.2-1.3,1.2-1.2c7.5,0,15,0,22.4,0c1,0,1.3,0.3,1.2,1.3
	c-0.1,1.5-0.1,3,0,4.4c0.1,1.1-0.4,1.3-1.3,1.3c-4.5-0.1-8.9,0-13.4,0c-1,0-1.4,0.3-1.3,1.3c0.1,1.3-0.5,2.9,0.2,3.7
	c0.8,0.8,2.5,0.2,3.8,0.3c3,0,6,0,9.1,0c0.8,0,1.1,0.2,1,1c-0.1,1.5-0.1,3.1,0,4.6c0,0.9-0.3,1.2-1.2,1.1c-3.8,0-7.6,0-11.4-0.1
	c-1.3,0-1.6,0.4-1.5,1.6c0.1,1,0.1,2,0,3c-0.1,1,0.3,1.2,1.2,1.2c4.7,0,9.4,0,14.1,0c1.1,0,1.3,0.3,1.3,1.3c-0.1,1.5-0.1,3.1,0,4.6
	c0,0.9-0.3,1.1-1.1,1.1c-7.7,0-15.4,0-23.1,0c-1,0-1.2-0.3-1.2-1.3C282.7,40.4,282.6,35.5,282.6,30.6z"/>
<path style="fill:#9AD202;" d="M79.1,46.5c-0.1-0.6,0.2-0.9,0.3-1.3c4.3-9.7,8.6-19.4,12.9-29.1c0.4-0.9,0.9-1.2,1.9-1.2
	c2.2,0.1,4.4,0.1,6.6,0c0.7,0,1.1,0.2,1.4,0.9c4.4,9.9,8.8,19.8,13.2,29.6c0.4,0.8,0.4,1.1-0.7,1.1c-2.4-0.1-4.8,0-7.3,0
	c-0.7,0-1.1-0.3-1.3-0.9c-0.5-1.4-1.2-2.8-1.7-4.2c-0.3-0.7-0.6-1-1.4-1c-3.9,0-7.7,0-11.6,0c-0.7,0-1,0.2-1.2,0.8
	c-0.6,1.5-1.2,3-1.8,4.5c-0.2,0.4-0.3,0.8-0.9,0.8C84.6,46.5,81.8,46.5,79.1,46.5z M101.3,33.7c-1.4-3.4-2.7-6.6-4.1-10
	c-1.4,3.5-2.7,6.7-4,10C95.9,33.7,98.5,33.7,101.3,33.7z"/>
<path style="fill:#9AD202;" d="M221.3,14.4c3.6,0,7.1,0.6,10.4,2.1c0.8,0.4,1.1,0.7,0.7,1.6c-0.7,1.4-1.3,2.9-1.8,4.3
	c-0.4,1.1-0.8,1.1-1.8,0.6c-2.7-1.3-5.5-2-8.5-1.8c-1.1,0.1-2.1,0.2-3,0.8c-1.6,1.1-1.5,3,0.3,3.8c2,0.9,4.1,1.2,6.2,1.7
	c1.8,0.4,3.5,0.8,5.2,1.6c5.8,2.6,7.1,9.7,2.5,14.1c-2.4,2.3-5.4,3.3-8.7,3.6c-5,0.5-9.9-0.2-14.5-2.4c-1.1-0.5-1.7-1-0.9-2.4
	c0.8-1.3,1.3-2.7,1.9-4.2c0.3-0.8,0.6-0.9,1.4-0.5c3.2,1.8,6.7,2.7,10.4,2.6c0.9,0,1.8-0.2,2.7-0.5c0.9-0.3,1.5-0.9,1.6-1.9
	c0-1.1-0.5-1.7-1.5-2.1c-2.5-1-5.1-1.4-7.6-2.1c-1-0.3-2-0.5-2.9-0.9c-3-1.2-5.4-3-5.8-6.5c-0.5-3.8,0.7-6.9,3.9-9.2
	c2.5-1.7,5.3-2.4,8.3-2.6C220.1,14.3,220.7,14.4,221.3,14.4z"/>
<path style="fill:#9BD203;" d="M328.2,14.9c4.3,0,8.6,0,13,0c1.1,0,1.3,0.3,1.3,1.3c-0.1,1.5-0.1,3.1,0,4.6c0.1,1.1-0.3,1.3-1.3,1.3
	c-2.4-0.1-4.7,0-7.1,0c-1.1,0-1.3,0.3-1.3,1.3c0,7.3,0,14.5,0,21.8c0,1-0.2,1.5-1.4,1.4c-2.1-0.1-4.3-0.1-6.4,0
	c-1,0-1.2-0.3-1.2-1.2c0-7.3,0-14.5,0.1-21.8c0-1.3-0.4-1.5-1.6-1.5c-2.4,0.1-4.7,0-7.1,0c-1,0-1.2-0.4-1.1-1.2
	c0.1-1.6,0.1-3.1,0-4.7c0-1,0.3-1.3,1.2-1.2C319.5,15,323.9,14.9,328.2,14.9z"/>
<path style="fill:#9AD202;" d="M28.9,29.3c0-6.3,5.1-11.4,11.5-11.3c6.3,0,11.5,5.1,11.5,11.4c0,6.3-5.2,11.4-11.6,11.4
	C34,40.7,28.9,35.6,28.9,29.3z"/>
</svg>
