<?xml version="1.0" encoding="utf-8"?>
<!-- Generator: Adobe Illustrator 26.1.0, SVG Export Plug-In . SVG Version: 6.00 Build 0)  -->
<svg version="1.1" id="Layer_1" xmlns="http://www.w3.org/2000/svg" xmlns:xlink="http://www.w3.org/1999/xlink" x="0px" y="0px"
	 viewBox="0 0 1056.6 202" style="enable-background:new 0 0 1056.6 202;" xml:space="preserve">
<rect x="57.6" y="67.4" style="fill:#FFFFFF;" width="298.2" height="75"/>
<path style="fill:#1382BF;" d="M537.7,190.6c-54.2,0-108.5,0-162.7,0c-1.1-0.4-2.2-0.9-3.4-1.2c-16.9-3.7-28.2-13.7-31.5-30.5
	c-1.4-7-3.9-7.5-9.7-7.5c-93.5,0.1-187,0.2-280.5-0.1c-5.9,0-12.9-2.1-17.3-5.8c-4.2-3.5-5.7-10.2-8.4-15.5c0-1.7,0-3.4,0-5.1
	c4.4-14.2,8.8-28.3,13.2-42.5c5.8-18.5,18-27.4,37.5-27.4c94.2,0,188.5-0.1,282.7,0.1c5.9,0,9.2-1.5,12.6-6.7
	c12-18.7,29.2-31.6,51.7-32c53.1-1,106.3-0.5,159.4-0.2c17.8,0.1,32.9,11.3,38.4,27c1.3,3.8,1.5,9.5,4.1,11.1c3.3,2,8.6,1,13,0.6
	c17.7-1.5,31.9,13.4,25.4,34.2c-3.4,11-7.1,22-10.1,33.1c-3.4,12.3-11.5,20.1-22.5,25.7c-8.8,4.5-18.1,3.7-27.3,3.5
	c-4.8-0.1-7.5,1.3-10.8,5.4c-6.2,7.8-13.6,14.9-21.3,21.3C561,185.6,549.3,188.2,537.7,190.6z M518.3,174c0,0.1,0,0.1,0,0.2
	c4.2,0,8.5-0.1,12.7,0c13.6,0.5,25.2-4.2,35.6-12.6c8.3-6.7,14.3-14.9,17.5-25c7.2-23.3,14.5-46.5,21.4-69.9
	c5.6-19-3.8-33.2-23.5-34.5c-12.8-0.9-25.8-0.9-38.7,0.1c-22.5,1.7-39.7,16.4-46.2,38.1c-2.2,7.4-4.7,14.8-6.9,22.3
	c-5.1,17.1-11,34.1-15.1,51.4c-3.7,15.9,7.2,28.9,23.6,29.9C505.2,174.4,511.8,174,518.3,174z M496.5,32.2c-3,0-5.1,0-7.2,0
	c-20.7,0-41.5,0-62.2,0c-19.7,0-39.6,12.3-46.2,30.8c-9.2,26.2-17.5,52.7-25,79.4c-4.9,17.5,6.9,31.6,25.1,31.8
	c10.6,0.1,21.2-0.6,31.7,0.1c25,1.8,45.2-17.7,51.1-37.6c3.9-13.3,8.2-26.5,12.2-39.8c0.7-2.3,1.2-4.7,2-7.8c-16.9,0-32.9,0-49,0.1
	c-1.1,0-2.8,1.2-3.1,2.3c-2.9,8.3-5.5,16.7-8.5,26.1c5.7,0,10.4,0,16.1,0c-2.2,7-3.9,13-5.9,18.9c-0.3,0.9-1.6,2.2-2.5,2.2
	c-10.6,0.2-21.3,0.1-32.7,0.1c7.4-23.6,14.4-46.1,21.8-68.4c0.5-1.6,4.2-2.9,6.4-3c19.7-0.2,39.4-0.1,59.1-0.3
	c2.1,0,5.6-1.1,6.1-2.6C489.6,54.2,492.8,43.6,496.5,32.2z M190.1,131.9c4.4,0,8,0.3,11.5-0.2c1.4-0.2,3.4-1.9,3.8-3.2
	c4.4-13.8,8.8-27.6,12.8-41.5c1.9-6.6-2.6-12.2-9.6-12.6c-4.4-0.2-8.9-0.1-13.3-0.1c-11.2,0-18.8,5.5-22.1,16.1
	c-3.3,10.6-6.6,21.2-9.8,31.9c-0.9,2.9-1.5,5.9-2.2,8.9c13.3,1.8,13.3,1.8,17-9.7c0.4-1.2,0.4-2.7,1.2-3.5c1.4-1.5,3.1-3.3,4.9-3.6
	c3.2-0.6,6.6-0.2,10.9-0.2C193.4,120.3,192,125.4,190.1,131.9z M57.6,132.9c6.4-2.8,13.2,3.4,16.1-5.7c3.1-9.6,3.2-9.6,13.7-9.6
	c1.7,0,3.4,0,5.1-0.2c7.7-0.9,13.6-4.8,16.7-11.9c2.6-5.9,4.5-12.2,6.1-18.5c1.6-6.7-2.4-12.2-9-12.4c-10.1-0.4-20.2-0.1-30.7-0.1
	C69.7,93.5,64,112.2,57.6,132.9z M227.5,131.8c13.9,1,14.1,1.1,16.8-8.7c1.1-3.9,3.4-5.1,7-6.7c4.5-2,9.7-5.6,11.6-9.8
	c4.5-10,7.3-20.9,11.1-32.2c-3,0-4.9,0.3-6.7,0c-5.9-1-8.7,1.3-10,7.1c-1.3,6.1-3.5,12.1-5.5,18.1c-0.5,1.5-2.1,3.4-3.5,3.6
	c-3.8,0.5-7.7,0.2-12.3,0.2c3-10.1,5.6-19.1,8.5-28.8c-2.9,0-5,0.3-7-0.1c-5.8-1.1-8.2,1.6-9.4,7c-1.3,5.7-3.4,11.3-5.1,16.9
	c-3.8,12.4-3,14.5,8.1,20.7C229.9,123.1,228.8,127.3,227.5,131.8z M141.3,74.1c-2.8,0-4.5,0.2-6.1,0c-6.3-1-9.2,1.3-10.8,7.8
	c-2.8,11.4-6.9,22.5-10.4,33.7c-1.7,5.3-3.2,10.7-4.9,16.4c14.8,0,28.7,0,43.1,0c2.9-9.3,5.8-18.6,8.8-28c-13-2.2-13.3-2.1-17.2,9.3
	c-1.1,3.4-2.9,4.7-6.4,4.4c-2.8-0.3-5.7-0.1-9.3-0.1C132.6,102.7,136.8,88.9,141.3,74.1z M314.1,132.2c4.4,0,8,0.3,11.5-0.1
	c1.4-0.2,3.4-1.6,3.8-3c3-9,5.9-18,8.3-27.1c1.8-7.1-1.5-12.5-8.1-13.1c-6.7-0.6-13.8-1.2-20.1,0.6c-5.2,1.5-11.4,5.4-13.6,10
	c-4.8,10.1-7.4,21.2-11,32c13.9,2,13.9,2,17.6-9.9c0.8-2.4,1.5-4.8,2.3-7.2c3.7-12,3.7-12,16.5-10.7c0.2,0,0.4,0.2,1.1,0.6
	C319.8,113.1,317.1,122.1,314.1,132.2z M277.4,91c5.1,0,9.5,0.2,13.8-0.1c1.2-0.1,2.9-1.6,3.4-2.8c1.6-4.3,2.7-8.7,4.1-13.4
	c-5.8,0-10.9,0-16.5,0C280.7,79.9,279.2,85,277.4,91z"/>
<path d="M511.7,138.9c7.4-23.6,14.4-46,21.6-68.3c0.4-1.3,2.5-3.1,3.8-3.1c10.3-0.3,20.6-0.1,32.1-0.1c-1.2,4.3-2.2,7.8-3.3,11.2
	c-5.7,18.4-11.5,36.8-17,55.3c-1.1,3.6-2.5,5.2-6.5,5.1C532.5,138.7,522.6,138.9,511.7,138.9z"/>
<path style="fill:#1382BF;" d="M202,89.1c-1.4,14.1-2.3,14.8-16.7,13.8C185.6,89.4,187.9,87.4,202,89.1z"/>
<path style="fill:#1382BF;" d="M99.7,88.9c-2,15-2.5,15.4-17.2,14.2C82.7,89.2,84.7,87.4,99.7,88.9z"/>
<path d="M368.5,47.8c0,0-12.3,25.7-30.1,110.5c0,0,2.2,26,36.7,32.3l160.9-0.6c0,0,32.7,0.6,58.4-33.8l27.7-102.5
	c0,0,0-30.1-34.4-37.8H420.2C420.2,15.8,392.1,14.1,368.5,47.8z"/>
<path style="fill:#E11A27;" d="M607.1,50.4c0,4.2,0,8.4,0,12.6c-0.5,1.1-1.1,2.2-1.4,3.4c-7.1,23.2-14.1,46.4-21.4,69.6
	c-6.5,20.8-26.6,37.1-47.2,38c-12.8,0.5-25.7,0.4-38.5,0c-13-0.5-22.3-8.8-23.7-21c-0.6-5.1-0.1-10.6,1.3-15.5
	c6.9-23.5,13.9-47,21.7-70.2c6.4-19.1,20.3-31,40-34.2c11.7-1.9,23.9-0.7,35.9-1.3C589,30.9,601.1,35.1,607.1,50.4z M512.2,138.6
	c10.6,0,20-0.1,29.5,0.1c3.8,0.1,5.5-1.1,6.6-4.9c4.7-16.1,9.8-32,14.8-48c1.8-5.7,3.6-11.4,5.6-18c-11.3,0-21.3-0.1-31.4,0.1
	c-1.2,0-3.1,1.5-3.5,2.7C526.6,92.9,519.6,115.2,512.2,138.6z"/>
<path style="fill:#E11A27;" d="M497.1,32.3c-3.6,11.5-6.8,22-10.5,32.4c-0.5,1.5-3.8,2.9-5.8,2.9c-19.4,0.2-38.7,0.3-58.1,0
	c-5-0.1-7.4,1.3-8.9,6.3c-5.7,19.1-11.8,38-17.7,56.9c-0.7,2.2-1.2,4.4-2.1,7.7c10.8,0,21,0.1,31.1-0.1c0.9,0,2.3-1.2,2.7-2.1
	c2-5.7,3.7-11.5,5.8-18.4c-5.7,0-10.4,0-16.1,0c3.1-9.7,5.7-18.2,8.7-26.6c0.4-1.2,2.4-2.6,3.7-2.6c16-0.2,31.9-0.1,48.7-0.1
	c-0.5,2.5-0.7,4.3-1.2,6c-4.3,14.2-8.6,28.4-13.1,42.6c-7.3,23.3-25.9,36.8-50.4,36.8c-10.5,0-21.1,0.1-31.6,0
	c-18.9-0.1-30.9-14.1-25.8-32.1c7.5-26.6,15.8-52.9,24.9-79c6.4-18.3,26.4-30.9,45.8-31c21.1-0.1,42.1,0,63.2,0
	C492.2,32,494.1,32.1,497.1,32.3z"/>
</svg>
