<?xml version="1.0" encoding="utf-8"?>
<!-- Generator: Adobe Illustrator 26.1.0, SVG Export Plug-In . SVG Version: 6.00 Build 0)  -->
<svg version="1.1" id="Layer_1" xmlns="http://www.w3.org/2000/svg" xmlns:xlink="http://www.w3.org/1999/xlink" x="0px" y="0px"
	 viewBox="0 0 358.8 60.6" style="enable-background:new 0 0 358.8 60.6;" xml:space="preserve">
<path style="fill:#1A4EB6;" d="M144.5,39.8c0,4.4,0,8.8,0,13.2c0,0.6-0.1,0.8-0.7,0.7c-0.9-0.1-1.8-0.1-2.6,0
	c-0.6,0-0.7-0.2-0.7-0.7c0-3.9,0-7.9,0-11.8c0-4.9,0-9.7,0-14.6c0-0.6-0.1-0.8-0.7-0.7c-0.9,0.1-1.8,0-2.7,0c-0.4,0-0.6-0.1-0.6-0.5
	c0-1,0-2,0-3c0-0.4,0.1-0.5,0.5-0.5c0.9,0,1.8,0,2.8,0c0.6,0,0.7-0.2,0.7-0.7c0-2.2,0-4.4,0-6.6c0-0.6,0.2-0.7,0.7-0.7
	c0.9,0,1.8,0,2.8,0c0.4,0,0.5,0.1,0.5,0.6c0,2.3,0,4.5,0,6.8c0,0.5,0.1,0.7,0.6,0.7c2.2,0,4.5,0,6.7,0c0.5,0,0.6,0.1,0.6,0.6
	c0,0.9,0,1.8,0,2.7c0,0.6-0.2,0.7-0.8,0.7c-2.2,0-4.4,0-6.6,0c-0.5,0-0.6,0.1-0.6,0.7C144.5,31,144.5,35.4,144.5,39.8z"/>
<path style="fill:#1A4EB6;" d="M196.2,29.8c0-7.7,0-15.3,0-23c0-0.6,0.2-0.8,0.8-0.8c0.8,0.1,1.7,0.1,2.5,0c0.6,0,0.7,0.2,0.7,0.7
	c0,4,0,7.9,0,11.9c0,11.5,0,22.9,0,34.4c0,0.6-0.2,0.8-0.8,0.8c-0.8-0.1-1.7-0.1-2.5,0c-0.6,0-0.7-0.2-0.7-0.7c0-6.3,0-12.6,0-18.9
	C196.2,32.6,196.2,31.2,196.2,29.8z"/>
<path style="fill:#1A4EB6;" d="M65,37.8c0-3.7,0-7.3,0-11c0-1.5,0-2.9-0.1-4.4c0-0.5,0.1-0.6,0.6-0.6c3.6,0,7.2,0,10.9,0
	c0.4,0,0.6,0.1,0.6,0.5c0,1,0,1.9,0,2.9c0,0.5-0.2,0.6-0.6,0.6c-2.2,0-4.4,0-6.6,0c-0.6,0-0.8,0.2-0.8,0.8c0,8.8,0,17.5,0,26.3
	c0,0.7-0.2,0.9-0.8,0.8c-0.8-0.1-1.7,0-2.5,0c-0.5,0-0.7-0.1-0.7-0.6c0-2.3,0-4.6,0-6.8C65,43.4,65,40.6,65,37.8z"/>
<path style="fill:#1A4EB6;" d="M128.6,37.8c0,5,0,10.1,0,15.1c0,0.7-0.2,0.8-0.8,0.8c-0.9,0-1.8,0-2.7,0c-0.4,0-0.5-0.1-0.5-0.5
	c0-0.1,0-0.2,0-0.3c0-10.1,0-20.1,0-30.2c0-0.6,0.1-0.9,0.8-0.8c0.8,0.1,1.7,0.1,2.6,0c0.5,0,0.6,0.2,0.6,0.7
	C128.6,27.6,128.6,32.7,128.6,37.8z"/>
<path style="fill:#1A4EB6;" d="M126.6,17.9c-0.6,0-1.5,0.2-1.8-0.1c-0.4-0.4-0.1-1.2-0.1-1.9c0-0.5,0-1,0-1.5c0-0.4,0.1-0.5,0.5-0.5
	c1,0,2,0,3,0c0.3,0,0.5,0.1,0.4,0.4c0,1,0,2.1,0,3.1c0,0.3-0.1,0.5-0.4,0.4C127.6,17.9,127.1,17.9,126.6,17.9
	C126.6,17.9,126.6,17.9,126.6,17.9z"/>
<path style="fill:#1A4EB6;" d="M33.5,6C19.7,5.9,9.1,17.2,9.3,29.9C9.1,42.7,19.7,53.6,32.9,53.7C45.8,53.9,57,43.5,57,29.8
	C57,16.8,46.3,6.1,33.5,6z M33.1,49.8C22.3,49.8,13.3,40.9,13.2,30C13.2,19,22,10,33,10c11,0,19.9,8.8,20,19.8
	C53.1,40.8,44.2,49.7,33.1,49.8z"/>
<path style="fill:#1A4EB6;" d="M112.8,27.5c-2.8-3.3-6.4-5.1-10.7-5.5c-5.2-0.4-9.6,1.4-13.2,5.3c0-0.4,0-0.6,0-0.9
	c0-6.5,0-13.1,0-19.6c0-0.6-0.2-0.8-0.8-0.7C87.2,6,86.4,6,85.6,6c-0.6,0-0.8,0.1-0.8,0.8c0,9.6,0,19.3,0,28.9c0,5.8,0,11.5,0,17.3
	c0,0.7,0.2,0.9,0.8,0.8c0.8-0.1,1.7,0,2.6,0c0.5,0,0.6-0.1,0.6-0.6c0-1.5,0-3,0-4.7c6.6,7.2,17.1,6.7,23.1,0.8
	C117.9,43.3,118.3,33.9,112.8,27.5z M100.7,49.8c-6.6,0-11.9-5.4-11.9-12.1c0-6.5,5.4-11.8,12-11.8c6.6,0,11.9,5.4,11.9,11.9
	C112.7,44.5,107.3,49.8,100.7,49.8z"/>
<path style="fill:#1A4EB6;" d="M188.2,37.9c0-5.1,0-10.2,0-15.3c0-0.5-0.1-0.7-0.7-0.7c-0.9,0-1.7,0-2.6,0c-0.6,0-0.8,0.1-0.8,0.7
	c0.1,1.5,0,2.9,0,4.5c-6.9-7.5-17.7-6.4-23.4-0.4c-5.6,5.9-5.9,15.1-0.6,21.4c2.7,3.2,6.2,5.1,10.4,5.5c5.3,0.5,9.8-1.3,13.6-5.2
	c0,1.7,0,3.2,0,4.8c0,0.4,0.1,0.6,0.5,0.5c0.9,0,1.8-0.1,2.6,0c0.6,0,0.8-0.1,0.8-0.8C188.2,47.9,188.2,42.9,188.2,37.9z
	 M172.3,49.8c-6.6,0-11.9-5.4-11.9-12c0-6.6,5.4-11.9,12-11.9c6.7,0,12,5.7,11.9,12.2C184.1,44.5,178.8,49.8,172.3,49.8z"/>
</svg>
