<?xml version="1.0" encoding="utf-8"?>
<!-- Generator: Adobe Illustrator 24.1.2, SVG Export Plug-In . SVG Version: 6.00 Build 0)  -->
<svg version="1.1" id="Layer_1" xmlns="http://www.w3.org/2000/svg" xmlns:xlink="http://www.w3.org/1999/xlink" x="0px" y="0px"
	 viewBox="0 0 257 60.9" style="enable-background:new 0 0 257 60.9;" xml:space="preserve">
<style type="text/css">
	.st0{fill:#FFFFFF;}
	.st1{fill:#36B34A;}
</style>
<g>
	<path class="st0" d="M162.5,56.8c-7.1-0.3-12.2-0.4-17.2-0.9c-6.3-0.6-9.8-4.6-9.8-10.9c0-5.3,0-10.6,0-15.9c0-5.2,3-9,8.1-10.4
		c1.4-0.4,3-0.7,4.5-0.7c9,0,18-0.1,27.1,0.3c6.4,0.3,9.4,3.5,9.7,9.7c0.3,6.3,0.2,12.5,0,18.8c-0.2,5.1-2.3,7.7-7.4,8.5
		C171.8,56.3,166.2,56.5,162.5,56.8z M160.2,27.8c-2.4,0-4.7,0-7.1,0c-4.1-0.1-5.8,1.5-6,5.7c-0.1,2.8,0,5.5,0,8.4
		c0,3.3,0.6,4,3.9,4.1c5.3,0.2,10.8,0.3,16.1,0.3c4.3,0,5.7-0.8,6-3.9c0.4-3.6,0.3-7.2,0-10.8c-0.2-2.6-1.9-3.7-4.6-3.7
		C165.9,27.8,163.1,27.8,160.2,27.8z"/>
	<path class="st0" d="M237.7,56.1c-5.9,0-11.8,0.1-17.5-0.1c-0.7,0-1.6-1-2.2-1.7c-5.8-7.9-11.7-15.8-17.4-23.7
		c-0.2-0.2-0.4-0.4-0.9-1.1c0,9.1,0,17.7,0,26.4c-3.6,0-7,0-10.4,0c0-12.7,0-25.2,0-38c5.6,0,11.3-0.1,16.8,0.1
		c0.7,0,1.4,0.9,1.9,1.5c5.6,7.8,11.3,15.7,16.9,23.5c0.3,0.4,0.7,0.9,1.3,1.7c0-9.2,0-17.9,0-26.8c3.9,0,7.5,0,11.4,0
		C237.7,30.6,237.7,43.2,237.7,56.1z"/>
	<path class="st0" d="M99.1,56.2c-3.9,0-7.4,0-11.1,0c0-12.7,0-25.3,0-38.2c0.7,0,1.4,0,2.3,0c9.7,0,19.6,0,29.3,0
		c1.9,0,3.9,0.2,5.8,0.5c4.2,0.7,6.3,2.9,6.7,7.1c0.2,2.6,0.2,5.1,0.1,7.7c-0.2,3.7-1.2,4.9-4.9,6.2c-0.3,0.1-0.5,0.3-0.8,0.4
		c4.9,1.8,6,3.6,6,8.8c0,2.5,0,4.9,0,7.7c-3.7,0-7.2,0-10.7-0.1c-0.3,0-0.9-0.8-1-1.3c-0.1-1.5,0-3-0.1-4.5c0-3.1-1-4.5-4-4.7
		c-5.5-0.3-11.1-0.3-16.6-0.3c-0.4,0-1.2,1-1.2,1.5C99,49.8,99.1,52.9,99.1,56.2z M98.3,36.9c6.7,0,13.2,0,19.7,0
		c1.8,0,2.9-1.1,3.2-2.9c0.2-1.1,0.1-2.3,0.2-3.4c0.1-2.3-1-3.5-3.2-3.5c-6.6-0.1-13.1,0-19.8,0C98.3,30.4,98.3,33.4,98.3,36.9z"/>
	<path class="st0" d="M53.1,4.6c-3.4,6.8-6.6,13.2-9.8,19.6c-5,10-10.1,20-15.2,30.1c-0.7,1.5-1.6,2.1-3.3,1.9c-3-0.1-6,0-9.4,0
		c0.5-1.1,0.8-1.8,1.1-2.6c7.9-15.8,15.9-31.5,23.7-47.3c0.7-1.4,1.5-1.9,3.1-1.8C46.6,4.7,49.7,4.6,53.1,4.6z"/>
	<path class="st0" d="M37.4,40.4c1.4-2.9,2.7-5.4,4-7.9c0.3-0.5,0.8-1.1,1.3-1.4c8.4-4.4,16.8-8.8,25.3-13.3c0.1-0.1,0.3,0,0.7-0.1
		c0,3.6,0.1,7.2-0.1,10.8c0,0.5-0.9,1.2-1.6,1.5c-4.6,1.9-9.2,3.8-13.8,5.6c-0.6,0.2-1,0.8-1.6,1.2c0.5,0.4,1,1,1.6,1.2
		c4.5,1.7,9,3.5,13.5,5.1c1.3,0.5,1.8,1.1,1.8,2.6c-0.1,3.4,0,6.8,0,10.5C58,51,47.9,45.7,37.4,40.4z"/>
	<path class="st0" d="M83.9,56.2c-4.2,0-8.2,0-12.4,0c0-8.1,0-16,0-24.1c4.1,0,8.2,0,12.4,0C83.9,40,83.9,48,83.9,56.2z"/>
	<path class="st0" d="M71.4,29c0-3.8,0-7.4,0-11.1c4.2,0,8.2,0,12.4,0c0,3.7,0,7.3,0,11.1C79.8,29,75.7,29,71.4,29z"/>
	<polygon class="st1" points="39.7,2.6 28.1,2.6 1.8,55.5 13.4,55.5 	"/>
	<rect x="241.3" y="45.1" class="st1" width="11" height="11"/>
</g>
</svg>
