<?xml version="1.0" encoding="utf-8"?>
<!-- Generator: Adobe Illustrator 24.1.2, SVG Export Plug-In . SVG Version: 6.00 Build 0)  -->
<svg version="1.1" id="Layer_1" xmlns="http://www.w3.org/2000/svg" xmlns:xlink="http://www.w3.org/1999/xlink" x="0px" y="0px"
	 viewBox="0 0 257 89.6" style="enable-background:new 0 0 257 89.6;" xml:space="preserve">
<style type="text/css">
	.st0{fill:#FFFFFF;}
	.st1{fill:#EC1C24;}
</style>
<g>
	<path class="st0" d="M59.6,86.2c-0.8-0.1-1.5-0.2-2.4-0.3c-3.6-0.5-7-2-9.9-4.4c-3.3-2.7-5.3-6.4-6-10.5c-0.5-3.4-0.4-6.8,0.7-10.1
		c1.6-4.9,4.8-8.5,9.6-10.5c5.9-2.5,11.9-2.4,18,0.1c1.5,0.7,3,1.5,4.2,2.7c0.1,0.1,0.3,0.3,0.4,0.4c-0.1,0.2-0.2,0.3-0.3,0.4
		c-0.8,1.1-1.4,2.2-2.2,3.3c-0.8,1.2-2,1.5-3.3,0.8c-0.1-0.1-0.3-0.2-0.4-0.3c-2.7-1.8-5.8-2.4-9.1-2.1c-2.5,0.2-4.7,1.3-6.4,3.3
		c-0.9,1.1-1.6,2.3-2,3.6c-1.1,3.4-1.1,6.9,0.2,10.3c1.4,3.8,4.3,6,8.2,6.6c2.3,0.3,4.5,0.1,6.6-0.8c0.2-0.1,0.3-0.1,0.5-0.2
		c0-1.9,0-3.7,0-5.6c-0.2,0-0.4,0-0.7,0c-1,0-2.1,0-3.1,0c-0.5,0-1-0.2-1.3-0.7c-0.1-0.2-0.2-0.5-0.2-0.8c0-1.5,0-3.1,0-4.6
		c0,0,0-0.1,0.1-0.1c4.3,0,8.7,0,12.9,0c0.1,0.4,0.2,13.6,0.1,15.6c-1.4,1-3,1.9-4.6,2.5c-2,0.8-3.9,1.1-5.9,1.3
		c-0.1,0-0.3,0.1-0.4,0.1C62,86.2,60.8,86.2,59.6,86.2z"/>
	<path class="st1" d="M253.9,8c-0.7,1-1.4,2.1-2.1,3.1c-0.1,0.2-0.3,0.4-0.4,0.8c-0.7,0.9-1.6,1.1-2.6,0.8c-0.3-0.1-0.7-0.3-1-0.5
		c-1.5-0.9-3.1-1.6-4.8-1.9c-2.2-0.3-4.3-0.3-6.4,0.3c-3,1-4.9,3.2-6,6c-0.8,2.1-1,4.3-0.8,6.6c0.1,1.6,0.4,3.3,1.2,4.8
		c1.6,3.5,4.4,5.5,8.2,6c2.2,0.3,4.4,0.1,6.5-0.8c0.5-0.2,0.7-0.2,0.7-0.9c0-1.4,0-2.8,0-4.3c0-0.2,0-0.4,0-0.7c-0.2,0-0.4,0-0.5,0
		c-1,0-2,0-3,0c-0.3,0-0.7,0-0.9-0.1c-0.5-0.1-0.9-0.5-0.9-1.1c0-1.6,0-3.3,0-4.9c4.3,0,8.7,0,12.9,0c0,0.2,0,0.3,0,0.5
		c0,4.8,0,9.5,0,14.3c0,0.4-0.1,0.7-0.4,0.9c-2.6,1.9-5.7,3-8.9,3.4c-3.4,0.4-6.8,0.3-10.1-0.7c-4.3-1.2-7.9-3.6-10.4-7.3
		c-1.6-2.5-2.6-5.1-3-8.2c-0.3-3.3-0.1-6.6,1.1-9.6c2.1-5.4,5.9-8.8,11.3-10.5c2.8-0.9,5.8-1.1,8.9-0.9c2.3,0.2,4.4,0.7,6.6,1.5
		c1.8,0.7,3.3,1.6,4.7,3c0.1,0.1,0.3,0.2,0.4,0.3C253.9,7.7,253.9,7.9,253.9,8z"/>
	<path class="st0" d="M201.2,86.2c-0.7-0.1-1.3-0.2-2-0.3c-2.7-0.5-5.3-1.5-7.6-3.1c-0.7-0.4-1.2-0.9-1.8-1.4
		c0.1-0.2,0.2-0.3,0.2-0.4c0.8-1.1,1.4-2.3,2.2-3.4c0.8-1.2,2-1.5,3.3-0.9c0.7,0.3,1.3,0.8,2,1.2c1.1,0.7,2.2,1.2,3.4,1.4
		c1.3,0.2,2.6,0.2,3.9-0.1c1.8-0.5,2.6-1.6,2.7-3.4c0-0.2,0-0.5,0-0.8c0-0.9-0.3-1.5-1-2.1c-0.5-0.5-1.3-1-2.1-1.2
		c-1.3-0.4-2.6-0.9-3.8-1.2c-1.4-0.4-2.8-0.9-4.3-1.5c-3.1-1.5-4.7-3.9-5.1-7.3c-0.3-2.2-0.1-4.4,1-6.4c1.4-2.7,3.6-4.5,6.5-5.6
		c1.8-0.7,3.6-0.9,5.5-0.9c3.1,0.1,5.9,0.8,8.5,2.2c0.9,0.4,1.6,1,2.3,1.6c0,0.1-0.1,0.2-0.1,0.4c-0.5,1.1-1.2,2.3-1.9,3.4l-0.1,0.1
		c-0.8,1.3-1.8,1.6-3.2,0.9c-1.1-0.5-2.1-1.1-3.2-1.5c-1.5-0.7-3.2-0.7-4.8-0.2c-1.9,0.5-2.8,2.1-2.6,4.1c0.1,0.5,0.3,1.1,0.8,1.4
		c0.5,0.4,1.1,0.8,1.6,1.1c0.9,0.4,1.8,0.8,2.6,1c2.1,0.7,4.1,1.3,6,2.2c2.1,1,3.6,2.5,4.6,4.6c0.5,1.4,0.8,2.8,0.7,4.3
		c-0.1,3.7-1.4,6.8-4.4,9.1c-1.8,1.4-3.8,2.2-6.1,2.6c-0.4,0.1-0.8,0.1-1.2,0.2C203.2,86.2,202.2,86.2,201.2,86.2z"/>
	<path class="st1" d="M108.1,8.3c1.1-0.8,2.2-1.5,3.3-2.3c0.4,4.7,0.9,9.4,1.3,14.1c-4.4-2-8.5-3.9-12.9-5.9
		c0.9-0.8,1.9-1.3,2.7-2.1c-0.2-0.2-0.4-0.3-0.7-0.4c-5-3.5-11.8-2.7-15.9,2c-1.6,1.9-3.2,3.8-4.7,5.8c-2.8,3.7-5.9,7.2-9.3,10.5
		c-3.2,3.1-6.7,5.8-10.6,7.9c-1.6,0.9-3.4,1.6-5.3,1.9c-0.7,0.1-1.3,0.1-2.1,0.1c-8.9,0-16.5-6.1-18.2-14.9
		C33.9,14.9,40.3,6,49.2,3.7C55.6,2,61.3,3.6,66.4,7.9c1.6,1.6,3.2,3.4,4.8,5c0,0,0.1,0.1,0.1,0.2c-1.4,1.6-2.8,3.3-4.4,5
		c-0.1-0.2-0.2-0.3-0.3-0.5c-1.3-1.4-2.5-2.8-3.8-4.2c-1.9-1.9-4.1-3.2-6.7-3.7c-3.9-0.8-7.4,0.3-10.3,3C43.3,15,42,17.9,42,21.3
		c0,6.1,4.5,10.7,9.7,11.7c2,0.3,3.8,0.1,5.6-0.7c2.2-0.9,4.2-2.2,6-3.7c2-1.5,3.7-3.2,5.4-5c4.2-4.6,8.1-9.3,12-14
		c2.8-3.4,6.4-5.6,10.6-6.4c6-1.1,11.4,0.3,16,4.4C107.7,7.9,107.9,8.1,108.1,8.3z"/>
	<path class="st0" d="M122.7,61.5c0,0.1,0,0.3,0,0.4c0,1.2,0.1,2.3,0.1,3.5c0,6.5,0,12.9,0,19.4c0,0.2,0,0.4,0,0.8c-2.5,0-5,0-7.6,0
		c0-12.3,0-24.4,0-36.7c0.2,0,0.4,0,0.7,0c2.1,0,4.1,0,6.1,0c1.3,0,2.2,0.5,2.8,1.8c3.2,6.2,6.4,12.5,9.5,18.8c0.5,1,0.9,2,1.4,3.1
		c0.1,0.1,0.1,0.2,0.2,0.4c0.1-0.1,0.1-0.1,0.1-0.2c0.8-2.2,2-4.3,3-6.2c2.7-5.3,5.4-10.6,8.1-15.9c0.1-0.2,0.2-0.4,0.3-0.7
		c0.3-0.5,0.9-0.8,1.4-0.9c0.3,0,0.7,0,1,0c2,0,4.1,0,6,0c0.2,0,0.4,0,0.7,0c0,12.3,0,24.4,0,36.7c-0.4,0.1-6.6,0.2-7.6,0
		c0-8,0-16,0-24.1c-0.1,0.2-0.2,0.3-0.3,0.5c-3,5.8-6,11.6-9,17.4c-0.1,0.2-0.2,0.4-0.3,0.7c-0.5,1-1.4,1.6-2.5,1.8
		c-0.7,0.1-1.3,0.1-2,0c-1.2-0.1-2.1-0.8-2.6-1.9c-1-1.9-2-3.7-2.8-5.6c-2.1-4.2-4.3-8.3-6.4-12.4C123,61.9,122.9,61.7,122.7,61.5
		L122.7,61.5z"/>
	<path class="st1" d="M126.6,15.7c0,0.7,0.1,1.3,0.1,2c0,0.7,0.1,1.4,0.1,2.1c0,6.5,0,12.9,0,19.4c0,0.2,0,0.4,0,0.8
		c-2.5,0-4.9,0-7.3,0c-0.1-0.4-0.1-35.9,0-36.7c0.1,0,0.3,0,0.4,0c2,0,4.1,0,6,0c0.2,0,0.5,0,0.8,0c1,0,1.5,0.5,2,1.3
		c0.5,1,1,2.1,1.5,3.1c2.7,5.3,5.4,10.6,8.1,15.9c0.5,1,0.9,2,1.4,3.1c0.1,0.2,0.2,0.3,0.3,0.7c0.1-0.1,0.1-0.2,0.2-0.2
		c1-2.5,2.3-4.9,3.6-7.3c2.5-4.9,5-9.9,7.6-14.8c0.1-0.2,0.2-0.4,0.4-0.7c0.3-0.4,0.8-0.8,1.3-0.8c0.3,0,0.7-0.1,1.1-0.1
		c2.1,0,4.2,0,6.1,0c0.1,0,0.3,0,0.4,0c0,12.3,0,24.4,0,36.7c-2.4,0-4.9,0-7.4,0c0-8.1-0.1-16.1,0.1-24.3c-0.1,0.2-0.2,0.4-0.3,0.7
		c-3.1,5.9-6.1,11.9-9.2,17.9c-0.4,1-1.1,1.6-2.2,1.9c-1,0.2-2,0.2-2.8,0c-1-0.2-1.6-0.9-2.1-1.8c-0.9-1.8-1.9-3.5-2.7-5.3
		c-2.2-4.3-4.5-8.7-6.7-12.9C127,16.1,126.8,15.8,126.6,15.7C126.7,15.7,126.7,15.7,126.6,15.7z"/>
	<path class="st1" d="M3.1,40.1c0-12.3,0-24.4,0-36.7c0.2,0,0.3,0,0.4,0c4.6,0,9.2,0,13.8,0c2.2,0,4.5,0.2,6.6,1
		c0.9,0.3,1.9,0.7,2.6,1.2c2.3,1.3,3.5,3.4,3.9,5.9c0.2,1.2,0.2,2.4-0.1,3.7c-0.3,1.4-1,2.6-2.1,3.6c-0.9,0.9-2,1.5-3.1,2
		c-0.2,0.1-0.4,0.2-0.8,0.3c0.2,0.1,0.3,0.1,0.4,0.2c0.9,0.3,1.8,0.7,2.6,1c2.5,1.3,3.8,3.4,3.9,6.2c0.2,4.7-2.3,8.5-6.9,10.4
		c-2.1,0.9-4.3,1.2-6.6,1.2c-4.8,0-9.7,0-14.6,0C3.4,40.1,3.3,40.1,3.1,40.1z M11.6,24.5c-0.1,0.7-0.1,8.7,0,9.1c0.1,0,0.2,0,0.3,0
		c2,0,4.1,0,6,0c0.7,0,1.4-0.1,2.1-0.3c1.3-0.4,2.3-1.2,2.7-2.5c0.3-1.1,0.4-2.3,0.1-3.4C22.7,26.3,22,25.5,21,25
		c-0.8-0.3-1.6-0.5-2.4-0.5c-2.2,0-4.5,0-6.7,0C11.8,24.4,11.7,24.5,11.6,24.5z M11.6,18.7c0.1,0,0.2,0.1,0.2,0.1c2,0,4.1,0,6-0.1
		c0.7,0,1.4-0.2,2.1-0.4c1.3-0.4,2-1.4,2.2-2.7c0.1-0.8,0.1-1.6,0-2.4c-0.3-1.9-1.2-2.7-3-3.2c-0.7-0.1-1.3-0.2-2-0.2
		c-1.6,0-3.4,0-5,0c-0.1,0-0.3,0-0.5,0C11.6,12.7,11.6,15.6,11.6,18.7z"/>
	<path class="st1" d="M208.2,3.3c2.5,0,4.9,0,7.3,0c0.1,0.4,0.2,35.8,0,36.7c-0.2,0-0.3,0-0.5,0c-1.2,0-2.4,0-3.6,0
		c-1.4,0-2.5-0.5-3.4-1.6c-1.5-2-3.1-3.9-4.6-5.9c-4.1-5-8-10.1-12-15.2c-0.1-0.1-0.2-0.3-0.4-0.5c0.1,7.8,0,15.4,0.1,23.1
		c-0.4,0.1-6.7,0.2-7.4,0c0-12.2,0-24.4,0-36.7c0.2,0,0.3,0,0.4,0c1.3,0,2.6,0,3.9,0c0.3,0,0.7,0,1.1,0.1c0.4,0,0.9,0.2,1.2,0.7
		c0.3,0.3,0.7,0.7,0.9,1c5.6,7,11.1,14,16.6,20.9c0.1,0.2,0.3,0.3,0.5,0.7c0-0.2,0-0.3,0-0.4c-0.1-1.1-0.2-2.1-0.2-3.2
		c0-6.4,0-12.7,0-19.1C208.2,3.8,208.2,3.6,208.2,3.3z"/>
	<path class="st0" d="M112.4,85.7c-0.3,0-0.5,0-0.7,0c-2,0-3.9,0-5.9,0c-1.5,0-2.5-0.7-3.1-2.2c-0.7-1.8-1.2-3.5-1.8-5.3
		c-0.1-0.2-0.2-0.5-0.3-0.8c-4.7,0-9.3,0-14,0c-0.3,1-0.7,2.1-1.1,3.1c-0.3,1.1-0.7,2.1-1.1,3.2c-0.4,1.2-1.4,2-2.7,2
		c-2.1,0-4.2,0-6.4,0c-0.1,0-0.2,0-0.4,0c4.7-12.3,9.5-24.4,14.2-36.7c3,0,5.8,0,8.8,0C102.9,61.2,107.6,73.4,112.4,85.7z
		 M98.7,71.6c-1.6-4.9-3.4-9.9-5-14.8c-1.6,4.9-3.3,9.9-5,14.8C92,71.6,95.3,71.6,98.7,71.6z"/>
	<path class="st0" d="M163.9,48.9c7.9,0,15.8,0,23.7,0c0,2.2,0,4.4,0,6.6c-5,0-10,0-15,0c0,2.8,0,5.7,0,8.5c3.8,0,7.7,0,11.5,0
		c0,2.2,0,4.2,0,6.4c-3.8,0-7.7,0-11.5,0c-0.1,0.5-0.2,7.7-0.1,8.8c5,0,10,0,15,0c0,2.2,0,4.4,0,6.6c-7.9,0-15.8,0-23.7,0
		C163.9,73.5,163.9,61.2,163.9,48.9z"/>
	<path class="st1" d="M176.4,40.1c-2.7,0-5.6,0-8.4,0c0-12.3,0-24.4,0-36.7c2.8,0,5.6,0,8.4,0C176.5,3.8,176.5,39.4,176.4,40.1z"/>
	<path class="st1" d="M78.4,31.2c1.6-1.8,3.1-3.4,4.6-5c0.2,0.2,0.5,0.4,0.8,0.7c1.4,1.3,2.7,2.6,4.4,3.7c1.5,1.2,3.3,2,5.3,2.4
		c2.3,0.4,4.6,0.1,6.7-0.9c3.5-1.6,5.7-4.4,6.7-8.1c0-0.1,0.1-0.2,0.1-0.4c2,1,3.9,1.9,6,2.7c-0.1,0.3-0.1,0.5-0.2,0.9
		c-2.4,6.6-7.1,10.7-14,12.2c-5.4,1.1-10.3-0.1-14.6-3.5c-1.6-1.3-3.3-2.7-4.8-4.2C78.9,31.5,78.6,31.4,78.4,31.2z"/>
</g>
</svg>
