<?xml version="1.0" encoding="utf-8"?>
<!-- Generator: Adobe Illustrator 24.1.2, SVG Export Plug-In . SVG Version: 6.00 Build 0)  -->
<svg version="1.1" id="Layer_1" xmlns="http://www.w3.org/2000/svg" xmlns:xlink="http://www.w3.org/1999/xlink" x="0px" y="0px"
	 viewBox="0 0 1045.6 142" style="enable-background:new 0 0 1045.6 142;" xml:space="preserve">
<style type="text/css">
	.st0{fill:#FFFFFF;}
</style>
<g id="XMLID_2312_">
	<path id="XMLID_2766_" class="st0" d="M881.1,8c0,9.9,0,19.6,0,29.5c20.1,0,40.3,0,60.3,0c0,33,0,65.9,0,98.9c10.7,0,21.3,0,32,0
		c0-33,0-65.9,0-98.9c20.1,0,40.3,0,60.3,0c0-9.9,0-19.6,0-29.5C982.9,8,932,8,881.1,8z"/>
	<path id="XMLID_2845_" class="st0" d="M202.3,82.7c14.8,0,29.6,0,44.4,0c-7.5-11-15-21.8-22.5-32.8C217,60.9,209.5,71.9,202.3,82.7
		z"/>
	<path id="XMLID_2850_" class="st0" d="M6,4.5c0,44,0,87.9,0,131.7c180.9,0,361.9,0,542.8,0c5-7.5,10-14.8,15-22.3
		c28.5,0,56.9,0,85.4,0c5.1,7.5,10.2,14.8,15.3,22.3c12.1,0,24.2,0,36.5,0c-30.3-44-60.3-87.9-90.8-131.7C408.9,4.5,207.5,4.5,6,4.5
		z M83.9,118.7c-14.2-1.1-29-5-40-14.4c-19.1-16.2-19.6-49.2-1.1-65.9c11-10.4,26.3-14.8,41.1-16.1c21.2-1.6,44,1.1,61.1,14.8
		c-3.7,4.6-7.5,9.4-11,14c-14.5-12.4-34.7-13.6-52.9-11.5c-10,1.1-20.7,5-26.3,13.9C45.6,68.2,49.9,92.1,67.9,98
		c19.4,6.2,41.6,5.5,59.9-3.5c0-4.6,0-9.5-0.2-14.4c-14.7,0-29.5,0-44.1,0c0-5.9,0-11.6,0-17.7c21,0,42,0,63.1,0
		c0,13.4,0,27,0.2,40.4C129.2,117.3,105.6,120.3,83.9,118.7z M270.7,117.4c-3.8-5.7-7.9-11.5-11.8-17.2c-22.8,0-45.6,0-68.4,0
		c-3.8,5.9-7.6,11.5-11.6,17.3c-7.1,0-14.4,0-21.5,0c22.5-32.8,43.6-66.4,67.1-98.6c23.7,32.2,45.6,65.8,68.4,98.6
		C285.5,117.4,278.2,117.4,270.7,117.4z M437.1,117.4c-6.7,0-13.2,0-20.1,0c0-18.8,0-37.6,0-56.2c-14,13.1-27.7,27-42.2,39.8
		c-14.7-13.2-29.3-26.7-44-40c0,18.8,0,37.7,0,56.4c-6.8,0-13.4,0-20.1-0.2c0.2-32,0-64.2,0.2-96.2c4.2,1.1,7.9,3,11,6.2
		c17.7,16.4,35.4,32.5,53.2,48.9c17.3-16.5,34.6-32.8,51.8-49.4c2.7-3,6.5-4.5,10.2-5.7C437.3,53.1,437.1,85.3,437.1,117.4z
		 M567.6,41.5c-26,0-51.9,0-77.9,0c0,6.3,0,12.6,0,18.9c21.8,0,43.6,0,65.5,0c-3.8,5.9-7.6,11.8-11.5,17.7c-18,0-36,0-54,0
		c0,7.1,0,14.2,0,21.3c13.2,0,26.7,0,40.1,0c-4,6.2-7.9,12.1-12,18.1c-16.2-0.2-32.2,0-48.4-0.2c0-31.4,0-62.7,0-94.1
		c36.7,0,73.4,0,110.1,0C575.7,29.4,571.6,35.3,567.6,41.5z M582.9,85.4c7.6-11.5,15.3-22.8,22.9-34.1c7.9,11.3,15.6,22.8,23.4,34.1
		C613.9,85.4,598.4,85.4,582.9,85.4z"/>
	<path id="XMLID_2864_" class="st0" d="M852,77.3c17.2-14,17.2-44.4-1-57.7C837.2,9.6,819.5,8.3,802.9,8c-29.3-0.2-58.4,0-87.6,0
		c0,42.7,0,85.5,0,128.2c10.7,0,21.3,0,32,0c0-15.2,0-30.4,0-45.7c15.3,0,30.9,0,46.2,0c13.9,15.2,27.7,30.6,41.6,45.7
		c13.4,0,27,0,40.4,0c-14.7-16.2-29.3-32.5-44.1-48.7C838.6,85,846.1,82.6,852,77.3z M819.3,62.7l-72,0.2V37.1l72-0.2
		c7.1,0,12.9,5.9,12.9,12.9C832.2,56.8,826.4,62.7,819.3,62.7z"/>
</g>
</svg>
