<?xml version="1.0" encoding="utf-8"?>
<!-- Generator: Adobe Illustrator 24.1.2, SVG Export Plug-In . SVG Version: 6.00 Build 0)  -->
<svg version="1.1" id="Layer_1" xmlns="http://www.w3.org/2000/svg" xmlns:xlink="http://www.w3.org/1999/xlink" x="0px" y="0px"
	 viewBox="0 0 1019 232" style="enable-background:new 0 0 1019 232;" xml:space="preserve">
<style type="text/css">
	.st0{fill:#FFFFFF;}
</style>
<g>
	<path id="Path_38_" class="st0" d="M44.4,82.4c-3,16.5-5.7,31.5-8.5,46.7H14.4c6.7-37.9,13.3-75.4,19.9-112.9h117
		c-3.1,19.6,1.3,16.4-17.6,16.6c-23.4,0.2-46.9,0.1-70.3,0.1c-3.3,0-6.5,0-10.3,0c-1.9,11-3.7,21.2-5.7,32.6h88.8
		c-0.9,6.2-1.6,11.2-2.4,17H44.4V82.4z"/>
	<path id="Path_36_" class="st0" d="M180,15.7l21.3,0.5c-3,17.6-5.9,34.9-8.9,52.1c-1.9,10.9-3.9,21.8-6,32.7
		c-1.4,7.4,2.4,11.2,9.2,11.3c26.1,0.3,52.2,0.3,78.3,0c7.9-0.1,11.2-5.7,12.5-13c4.3-24.8,8.7-49.6,13.1-74.3
		c0.5-2.9,1.1-5.7,1.7-8.8h21.3c-4.3,24.9-8.6,49.2-12.8,73.6c-0.7,3.8-1.3,7.7-2.1,11.5c-4.1,20.2-13.6,28.1-34.1,28.2
		c-26.7,0.2-53.4,0.4-80.1-0.1c-24.1-0.4-32.5-12.1-27.8-32.7c5.8-25.4,9.2-51.3,13.6-76.9C179.4,18.6,179.5,17.1,180,15.7z"/>
	<path id="Path_34_" class="st0" d="M481.3,67.3c-3,15.5-5,29.7-8.8,43.4c-3.1,11-13.3,15.4-23.7,16.7c-12.7,1.6-25.7,1.9-38.5,1.9
		c-15.9,0-31.8,0.1-47.6-1.6c-17.2-1.8-22.5-10.5-19.5-27.4c3.5-19.4,7.1-38.9,10.4-58.4c1.7-10.4,7.1-18,17-21.3
		c7.3-2.4,15.1-4.6,22.7-4.7c30-0.5,60-0.2,90.1-0.2c1.5,0,2.9-0.2,4.4,0c-1.3,16.6-1.3,17-17.6,17c-25.2,0-50.4,0-75.6,0
		c-15.6,0-18.2,2.2-20.8,16.9c-2.9,16.5-5.8,33-8.7,49.5c-1.7,9.6,0.4,12.8,10.4,13c21,0.4,42,0.4,63,0c10.9-0.2,13.8-3.2,15.8-14.3
		c1.3-7.4,2.5-14.7,3.7-22.1c1.1-7.4,3.7-8.6,10.3-8.6C472.4,67.2,475.8,67.3,481.3,67.3z"/>
	<path id="Path_40_" class="st0" d="M657.5,129.4c-7.5,0-14,0.6-20.4-0.3c-2.4-0.3-5.2-3.5-6.4-6c-12-24.5-23.6-49.2-35.4-73.8
		c-1.4-2.9-2.9-5.8-4.9-9.8c-14,16.6-27.5,32.6-40.9,48.6c-8.9,10.6-17.7,21.7-26.5,31.8c-5.7,6.5-10.6,9.3-18.3,10
		c-1,0.1-8.8-0.1-13.8-0.5c1.9-2.7,3.6-4.6,5-6.2c28.7-34,57.3-67.9,86.1-101.8c8.1-9.5,19.1-8.3,24.4,2.7
		c16.3,33.4,32.6,66.8,48.9,100.2C655.9,125.6,656.4,126.9,657.5,129.4z"/>
	<path id="Path_32_" class="st0" d="M677.6,129.3c0.9-5,2-10.9,3-16.9h18.9c26.4,0,52.9,0,79.3,0c12.6,0,15.9-2.9,18.1-15.1
		c3.3-18.5,1.9-20.2-16.9-20.2c-20.7,0-41.5,0.1-62.2-0.1c-5-0.1-10.2-0.7-15.1-2c-11-3-16.2-10.9-15.4-22.2
		c1.7-23.3,12.9-36,36.1-36.7c33.9-1.1,67.8-0.3,101.7-0.3c1,16.1,0.2,17-14.6,17c-27.9,0-55.9,0-83.8,0c-7.1,0-13.3,1.5-15.8,9.2
		c-4.4,13.6-1,18,13.5,18.2c24,0.2,48.1-0.1,72,0.9c19.3,0.8,26.5,11.1,23,29.9c-0.4,2.1-0.6,4.2-1,6.2c-3.4,20.8-14.3,31.5-35.8,32
		c-19.4,0.5-50.7,0.6-74.1,0.5C691.2,129.6,678.2,129.5,677.6,129.3z"/>
	<path id="Shape_75_" class="st0" d="M920.1,129.4c-13.2,0-26.4,0.2-39.6-0.1c-5.4-0.2-10.7-1.1-15.8-2.7c-9.5-3-14.9-9.9-13.4-19.7
		c3.4-23.1,7.2-46.2,12.3-68.9c3.2-14,16.4-21.9,34.5-22.1c28.2-0.4,56.5-0.5,84.7,0c21.3,0.4,28.9,10.3,25.5,31.3
		c-2.9,17.7-6,35.5-9.2,53.1c-3.4,18.7-16,28.6-37.4,29C947.8,129.6,934,129.4,920.1,129.4z M922.8,112.4c13.2,0,26.4,0,39.6,0
		c7.9,0,13.4-3.3,14.8-11.4c3.3-18.6,6.5-37.2,9.5-55.8c1.5-9.1-1.1-12.2-10.4-12.2c-26.1-0.2-52.3-0.1-78.4,0
		c-8.3,0-13.4,3.7-14.9,12.4c-3.1,18.3-6.6,36.6-9.8,54.9c-1.5,8.7,1.4,12.1,10.8,12.3C897,112.6,909.9,112.4,922.8,112.4z"/>
	<path id="Shape_77_" class="st0" d="M140.4,108.3c-1.3-1.9-3.2-2.9-5.3-2.9c-1.1,0-2.1,0.3-3,0.9s-1.4,1.3-1.9,2
		c-1.2,1.6-1.4,3.8-0.6,5.7c0.2,0.4,0.4,0.9,0.7,1.3c-0.1,0.2-0.2,0.5-0.4,0.7c-0.2,0.4-0.4,0.7-0.6,1.1c-0.8,1.3-1.7,2.5-3,4
		c-0.7,0.8-1.3,1.3-1.9,1.6c-0.1,0-0.2,0.1-0.2,0.1c-0.2,0.1-0.4,0.1-0.6,0.1c-0.6,0-1.1-0.3-1.8-1c-0.5-0.5-0.9-1.2-1.4-2
		c-0.1-0.2-0.2-0.4-0.3-0.6c-0.3-0.5-0.5-0.9-0.8-1.4c-0.2-0.6-0.5-1.1-0.7-1.7c0.5-0.5,0.8-1,1.2-1.6c0.5-0.8,0.7-1.7,0.7-2.6
		c0-1.3-0.4-2.5-1.2-3.5c-1-1.2-2.4-2-4.1-2.4c-1.5-0.3-3.1,0-4.4,0.9c-1.3,0.9-2.3,2.3-2.5,3.8c-0.1,0.6-0.2,1.4,0,2.2
		c0.2,0.7,0.5,1.3,0.8,1.9l0.1,0.2c0.4,0.7,0.9,1.4,1.6,1.9c-0.1,0.6-0.3,1.3-0.5,1.9c-0.4,1-0.8,2-1.3,3.1l-0.2,0.3
		c-0.3,0.7-0.7,1.3-1.3,1.8c-0.2,0.2-0.4,0.4-0.7,0.5l0,0c-0.1,0.1-0.3,0.1-0.4,0.1c-0.5,0.1-0.9,0-1.3-0.2
		c-0.8-0.3-1.5-0.8-2.5-1.6c-1-0.9-2-1.8-2.9-2.9c-1.5-1.8-2.8-3.2-3.9-4.5c-0.5-0.6-1-1.2-1.5-1.8c-0.1-0.1-0.2-0.2-0.3-0.4
		c0.2-0.5,0.3-1,0.5-1.5c0.4-1.6,0-3.3-0.9-4.7c-1-1.5-2.5-2.4-4.3-2.6c-1.2-0.1-2.2,0.2-2.9,0.5c-0.3,0.1-0.5,0.2-0.7,0.3l0,0
		c-0.5,0.3-1,0.6-1.4,1c-0.8,0.9-1.4,2-1.6,3.2c-0.2,1.1,0,2.2,0.2,2.9c0.3,1.3,1.1,2.4,2.2,3.2c0.7,0.5,1.5,0.9,2.3,1.1
		c0,0.2,0.1,0.3,0.1,0.4c0,0.2,0.1,0.4,0.2,0.6c0.2,0.8,0.4,1.5,0.5,2.2c0.3,1.6,0.5,2.9,0.7,4.2c0.3,2.6,0.3,4.7,0.1,6.7
		c0,0.6-0.2,1.2-0.5,1.8c-0.3,0.6-0.7,0.8-0.9,0.9l0,0c-0.5,0.2-1.2,0.3-2,0.1c-0.3,0-0.6-0.1-0.9-0.2s-0.6-0.2-0.9-0.2
		c-1.3-0.3-2.3-0.6-3.1-1c-0.7-0.3-1.4-0.8-2-1.3c0-1-0.2-2-0.6-2.9c-0.3-0.6-0.6-1.1-0.9-1.7s-0.8-1-1.4-1.4
		c-0.6-0.3-1.3-0.6-2.1-0.8c-1.4-0.4-3-0.1-4.2,0.7c-1.8,1.3-2.8,3.1-2.9,5.3c0,1.5,0.5,3,1.5,4.3c0.8,1,1.9,1.6,3.3,1.9
		c0.7,0.1,1.4,0.2,2.1,0.1c0.2,0.4,0.4,0.7,0.6,1.1s0.4,0.9,0.6,1.3c0.1,0.2,0.2,0.4,0.2,0.6c0,0.1,0.1,0.2,0.1,0.3
		c0,0.2,0.1,0.4,0.1,0.6c0.1,0.4,0.2,0.8,0.3,1.3c0.2,0.8,0.3,1.3,0.2,1.8c0,0.5-0.3,0.9-0.6,1.1c-0.3,0.2-0.6,0.4-0.9,0.5
		c-0.2,0.1-0.3,0.1-0.5,0.2s-0.3,0.1-0.5,0.2c-1.6,0-2.8,0-4.1-0.1c-1.3-0.1-2.6-0.3-3.9-0.6c0-0.2-0.1-0.3-0.2-0.5
		c-0.4-1.1-1.2-2.1-2.3-2.9c-1.5-1.2-3.4-1.5-5.2-0.9c-1.4,0.5-2.7,1.4-3.4,2.8c-0.6,1.1-0.8,2.3-0.6,3.5c0.1,0.9,0.5,1.8,1.1,2.7
		c0.9,1.4,2.3,2.3,3.9,2.7c1.1,0.2,2.3,0.1,3.4-0.3l2.2,2.1l0.8,0.7l1.2,1.1l1.4,1.3l1.2,1.1c0.3,0.3,0.6,0.6,0.9,0.8
		c0.4,0.4,0.9,0.8,1.3,1.2c0.5,0.4,0.9,0.9,1.4,1.3l0.9,0.9l1,0.9c0.5,0.5,0.9,0.9,1.4,1.3c0.5,0.5,1.1,1,1.6,1.5l1.1,1
		c0.3,0.3,0.6,0.6,1,0.9c0.5,0.4,0.9,0.8,1.3,1.3c0.4,0.4,0.8,0.8,1.2,1.1c0.3,0.3,0.6,0.6,0.9,0.9c0.4,0.4,0.9,0.8,1.3,1.3
		c0.5,0.5,1,1,1.5,1.5c0.3,0.3,0.5,0.5,0.8,0.8l0.7,0.6c1.1,1.1,2.3,0.7,2.6,0.5c0.2-0.1,0.4-0.2,0.5-0.3l0.1-0.1
		c0.2-0.2,0.4-0.3,0.6-0.5c0.3-0.3,0.7-0.5,1-0.8c0.8-0.6,1.7-1.3,2.6-1.9s1.8-1.2,2.8-1.8l0.8-0.5c0.8-0.5,1.5-0.9,2.2-1.3
		c0.8-0.5,1.7-1,2.7-1.5c0.7-0.4,1.5-0.8,2.2-1.2l0.3-0.2c0.5-0.3,1-0.5,1.6-0.8l0.6-0.3c0.8-0.4,1.6-0.8,2.4-1.1l0.3-0.2
		c0.9-0.4,1.9-0.8,2.8-1.2l1.3-0.5l0.6-0.2c1.1-0.5,2.2-0.9,3.3-1.4c0.2-0.1,0.4-0.2,0.7-0.3c0.2-0.1,0.3-0.1,0.4-0.2
		c0.7-0.3,1.3-0.5,2-0.8l0.9-0.4l0.8-0.3c0.3-0.1,0.5-0.2,0.8-0.3c0.3-0.1,0.7-0.2,1-0.3l1-0.3c0.2-0.1,0.4-0.1,0.6-0.2
		c0.2-0.1,0.5-0.2,0.7-0.2c0.4-0.1,0.9-0.3,1.3-0.4l0.8-0.2c0.2-0.1,0.4-0.1,0.7-0.2c0.4-0.1,0.7-0.2,1.1-0.3
		c0.7-0.2,1.5-0.4,2.3-0.6s1.7-0.4,2.6-0.6c0.3-0.1,0.7-0.2,1.1-0.2l2.3-0.5l-0.2-2.3c0-0.3,0-0.6-0.1-1c0-0.6-0.1-1.2-0.1-1.8
		c-0.1-1.5-0.2-3.1-0.3-4.7c-0.1-2.1-0.2-4.1-0.3-6.1c-0.1-2.2-0.1-4.4-0.2-6.5c0-1.9,0-3.9-0.1-5.8s0-3.7,0-5.6c0-0.8,0-1.5,0-2.3
		c0-0.3,0-0.6,0-0.8c0.6-0.3,1.2-0.8,1.8-1.3c1-0.9,1.5-1.9,1.6-3C141.7,111.2,141.3,109.6,140.4,108.3z M133.8,118
		c0,0.8,0,1.5,0,2.3c0,1.9,0,3.8,0,5.7c0,1.9,0,3.9,0.1,5.8c0,2.1,0.1,4.4,0.2,6.6c0.1,2,0.2,4.1,0.3,6.2c0.1,1.6,0.2,3.2,0.3,4.7
		c0,0.5,0.1,1,0.1,1.5c-0.9,0.2-1.7,0.4-2.5,0.6s-1.6,0.4-2.4,0.6c-0.4,0.1-0.8,0.2-1.2,0.4c-0.2,0.1-0.4,0.1-0.6,0.2
		c-0.2,0.1-0.5,0.2-0.7,0.2c-0.5,0.1-0.9,0.3-1.4,0.4c-0.3,0.1-0.6,0.2-0.9,0.3c-0.2,0.1-0.3,0.1-0.5,0.2l-1,0.3
		c-0.4,0.1-0.7,0.2-1.1,0.3c-0.4,0.1-0.7,0.2-1,0.4l-0.8,0.3l-0.9,0.4l-2,0.8l-0.4,0.2c-0.3,0.1-0.5,0.2-0.8,0.3
		c-1.1,0.5-2.2,0.9-3.3,1.4l-0.6,0.2l-1.3,0.5c-0.9,0.4-1.9,0.8-2.8,1.2l-0.3,0.2c-0.9,0.4-1.7,0.8-2.6,1.2l-0.6,0.3
		c-0.6,0.3-1.2,0.6-1.7,0.9l-0.3,0.2c-0.7,0.4-1.5,0.8-2.3,1.2c-1,0.6-1.9,1.1-2.8,1.6c-0.8,0.4-1.5,0.9-2.3,1.4
		c-0.3,0.2-0.6,0.3-0.8,0.5c-0.9,0.6-1.9,1.2-2.9,1.9c-0.9,0.6-1.8,1.3-2.7,2l-0.5,0.4l-0.3-0.3c-0.5-0.5-1-1-1.6-1.5
		c-0.4-0.4-0.9-0.8-1.3-1.3l-0.9-0.8c-0.4-0.4-0.8-0.8-1.2-1.1c-0.5-0.4-0.9-0.9-1.4-1.3c-0.3-0.3-0.6-0.6-1-0.9l-1.1-1
		c-0.5-0.5-1.1-1-1.6-1.6c-0.5-0.5-1-0.9-1.4-1.4l-1-0.9l-0.9-0.9c-0.5-0.4-0.9-0.9-1.4-1.3c-0.4-0.4-0.9-0.8-1.3-1.2l-0.9-0.8
		c-0.4-0.4-0.8-0.7-1.2-1.1l-1.4-1.3c-0.4-0.4-0.8-0.7-1.2-1.1l-0.8-0.7l-1.5-1.3c1,0.2,2.1,0.3,3.1,0.4c1.3,0.1,2.7,0.1,4.4,0.1
		c0.8,0,1.6-0.3,2-0.5c0.2-0.1,0.4-0.2,0.7-0.3c0.7-0.3,1.4-0.7,2-1.2c1.2-1,1.9-2.4,2.1-3.9c0.2-1.4-0.1-2.6-0.3-3.5
		c-0.1-0.3-0.2-0.6-0.2-1c0-0.2-0.1-0.5-0.2-0.7c-0.1-0.3-0.2-0.6-0.3-0.9c-0.1-0.2-0.1-0.4-0.2-0.5c-0.2-0.6-0.5-1.1-0.7-1.7
		c0.3,0.2,0.5,0.3,0.8,0.4c1.5,0.7,3,1.1,4.1,1.3c0.2,0,0.5,0.1,0.7,0.2c0.4,0.1,0.8,0.2,1.3,0.3c1.6,0.3,3,0.2,4.3-0.4
		c1.3-0.5,2.4-1.5,3.1-2.9c0.5-1,0.8-2,0.9-3.3c0.3-2.3,0.2-4.7-0.1-7.7c-0.2-1.5-0.5-3.1-0.7-4.5c-0.1-0.6-0.3-1.1-0.4-1.7
		c0.2,0.3,0.4,0.5,0.6,0.8c1.1,1.3,2.4,2.8,3.9,4.6c1,1.2,2.2,2.4,3.4,3.4c0.9,0.7,2.1,1.7,3.7,2.3c1.1,0.5,2.4,0.6,3.6,0.4
		c0.5-0.1,0.9-0.2,1.3-0.4l0,0c0.7-0.3,1.4-0.8,2-1.4c0.9-0.9,1.7-2,2.2-3.2l0.2-0.3c0.5-1.1,0.9-2.2,1.3-3.3c0.2-0.6,0.4-1.3,0.6-2
		c0.2,0.4,0.3,0.8,0.5,1.2c0.3,0.7,0.6,1.3,1,1.9c0.1,0.2,0.2,0.3,0.3,0.5c0.5,0.9,1.2,2,2.1,2.9c1.4,1.4,2.9,2.2,4.6,2.2
		c0.8,0,1.6-0.1,2.3-0.4c0.2-0.1,0.3-0.1,0.5-0.2c1.6-0.7,2.8-1.9,3.5-2.7c1.5-1.7,2.6-3.2,3.4-4.6c0.3-0.4,0.5-0.9,0.7-1.3
		c0-0.1,0.1-0.1,0.1-0.2C133.8,117.8,133.8,117.9,133.8,118L133.8,118z"/>
	<path id="Path_69_" class="st0" d="M126.1,204.7l1.3-1.7c0.5-0.8,0.7-1.8,0.7-3l2.4-25.5v-1.2c0-0.6-0.1-1.3-0.3-1.9
		s-0.5-1.3-0.9-1.8h21.6l-0.6,6.6c-0.6-1.4-1.6-2.4-2.8-3s-3-0.8-5.3-0.8h-5.4l-1.1,12.4h4.1h2.8l1.8-0.6c0.8-0.3,1.3-0.7,1.6-0.9
		c0.4-0.4,0.7-0.8,1-1.3l-0.7,8.2c-0.6-1.1-1.4-1.8-2.3-2.2s-2.3-0.5-4.2-0.5h-4.3l-1.2,12.5v1.1c0,0.9,0.1,1.6,0.4,2.1l1,1.5
		L126.1,204.7L126.1,204.7z"/>
	<path id="Path_70_" class="st0" d="M171.5,200.8l-1.8,1.7c-2.1,1.9-5,2.8-8.5,2.8c-2.7,0-4.7-0.6-6.3-1.7c-1.5-1.1-2.3-2.6-2.3-4.5
		c0-0.6,0-1.2,0.1-1.6c0-0.4,0.2-1.4,0.3-2.9l2.4-14.7l0.2-2.1c0-0.7-0.3-1.7-0.8-3h6.9l-2.9,18.6l-0.3,2.2l-0.2,1.8
		c0,3.1,1.9,4.6,5.7,4.6c1.4,0,2.6-0.2,3.6-0.6c1.1-0.5,2-1.1,2.8-2c0.7-0.7,1.2-1.4,1.4-2.1c0.3-0.6,0.5-1.8,0.8-3.5l2.3-14.1
		l0.2-2.1c0-0.6-0.3-1.6-0.8-3h6.8l-3.9,25.1l-0.3,2.1c0,0.6,0.3,1.5,0.9,2.5h-7L171.5,200.8z"/>
	<path id="Path_71_" class="st0" d="M195.7,203.5c-1.9,1.2-3.8,1.8-5.7,1.8c-1.5,0-2.8-0.4-3.7-1.2s-1.4-1.9-1.4-3.3l0.5-3.7l3-19.3
		h-2.6l1.1-2.8h2l1-6l5.8-1.7l-1.3,7.8h5.6l-1,2.8h-5l-3.1,19.8l-0.3,2.2c0,1.5,0.7,2.2,2.1,2.2c1.2,0,2.4-0.7,3.7-2.1L195.7,203.5z
		"/>
	<path id="Path_72_" class="st0" d="M219.5,200.8l-1.8,1.7c-2.1,1.9-5,2.8-8.5,2.8c-2.7,0-4.7-0.6-6.3-1.7c-1.5-1.1-2.3-2.6-2.3-4.5
		c0-0.6,0-1.2,0.1-1.6c0-0.4,0.2-1.4,0.3-2.9l2.4-14.7l0.2-2.1c0-0.7-0.3-1.7-0.8-3h6.9l-2.9,18.6l-0.3,2.2l-0.2,1.8
		c0,3.1,1.9,4.6,5.7,4.6c1.4,0,2.6-0.2,3.6-0.6c1.1-0.5,2-1.1,2.8-2c0.7-0.7,1.2-1.4,1.4-2.1c0.3-0.6,0.5-1.8,0.8-3.5l2.3-14.1
		l0.2-2.1c0-0.6-0.3-1.6-0.8-3h6.8l-3.9,25.1l-0.3,2.1c0,0.6,0.3,1.5,0.9,2.5h-7L219.5,200.8z"/>
	<path id="Path_73_" class="st0" d="M230.7,204.7c0.8-0.9,1.3-1.5,1.5-2.1c0.2-0.5,0.5-1.4,0.7-2.6l3.3-20.2l0.1-2.1
		c0-0.6-0.2-1.6-0.6-2.8h6.8l-0.7,4.2l2.3-2.1l2.2-1.3l2.2-0.8c0.9-0.2,1.9-0.3,2.9-0.3l-1.2,7.6c-0.5-1.2-1.1-2.1-1.6-2.5
		c-0.6-0.4-1.3-0.6-2.1-0.6c-1.5,0-2.8,0.5-3.8,1.6s-1.6,2.7-2,4.9l-2.3,14.3l-0.2,2.3c0,0.3,0,0.6,0.1,1l0.6,1.4L230.7,204.7z"/>
	<path id="Shape_92_" class="st0" d="M278.1,186.2h-21.2l-0.8,3.8l-0.2,2.9c0,6.3,2.7,9.5,8.2,9.5c2.2,0,4.6-0.8,7.3-2.2l2.2-1.5
		c0.7-0.5,1.3-1,1.8-1.6l-1.8,4.7l-1.7,1.1c-3,1.8-6.2,2.8-9.4,2.8c-3.9,0-6.9-1.1-9.1-3.4s-3.2-5.4-3.2-9.4c0-5.1,1.7-9.4,5.1-13
		s7.5-5.3,12.4-5.3c3.2,0,5.7,0.9,7.7,2.7c2,1.8,3,4.2,3,7.2L278.1,186.2L278.1,186.2z M261,179.1c-0.7,0.6-1.3,1.3-1.9,2.1l-1.5,3
		h12.7c0.6,0,1.1-0.2,1.5-0.7c0.5-0.4,0.7-1,0.7-1.9c0-1.4-0.5-2.6-1.5-3.5s-2.4-1.4-4.1-1.4C264.7,176.7,262.7,177.5,261,179.1z"/>
	<path id="Path_74_" class="st0" d="M328.6,169.6l-0.4,7.7c-0.4-0.9-0.9-1.7-1.5-2.5c-0.4-0.6-0.9-1.1-1.4-1.5
		c-1.8-1.4-4-2.1-6.7-2.1c-3.9,0-7,1.7-9.5,5c-2.4,3.3-3.6,7.8-3.6,13.3c0,4.2,0.8,7.5,2.5,9.8c1.7,2.4,4.1,3.6,7.1,3.6
		c1.2,0,2.1-0.1,2.8-0.3c0.7-0.2,1.8-0.7,3.3-1.4l1-10.7l0.1-1.1c0-0.9-0.1-1.5-0.3-1.9l-0.9-1.7h9.3c-0.5,0.7-1,1.5-1.4,2.3
		c-0.3,0.8-0.5,1.6-0.6,2.4l-0.9,10.1v0.8c0,0.5,0.1,1.1,0.3,1.6l-2.5,0.8c-1.9,0.5-3.9,1-5.8,1.3c-1.8,0.3-3.6,0.4-5.4,0.4
		c-4.6,0-8.3-1.4-11.1-4.4c-2.8-2.9-4.2-6.8-4.2-11.7c0-5.6,1.8-10.5,5.5-14.6s8.1-6.1,13.3-6.1h2.2l2.3,0.5l2.6,0.5l1.5,0.1
		L328.6,169.6z"/>
	<path id="Shape_93_" class="st0" d="M364.4,176.1c-0.2,0.4-0.4,0.6-0.5,0.8c-0.2,0.4-0.5,0.8-0.6,1.2l-0.7,3.3l-3.2,19.9v2.3
		c0,0.1,0.1,0.3,0.2,0.4c0.1,0.3,0.3,0.5,0.4,0.7h-5.7l-0.3-2.1c0-0.7,0.1-1.4,0.3-2.1l-1,1l-0.6,0.6c-1.1,1-2.4,1.8-3.8,2.3
		c-0.7,0.2-1.4,0.4-2.1,0.6s-1.5,0.2-2.2,0.3c-2.9,0-5.2-1-7-3.1c-1.7-2.1-2.6-4.9-2.6-8.4c0-5.5,1.8-10.1,5.4-13.7
		s8.2-5.5,13.9-5.5c1.4,0,2.8,0.1,4.2,0.4l3.8,0.8L364.4,176.1z M352.9,199.3c0.8-0.9,1.3-1.6,1.5-2.2s0.5-1.9,0.9-3.8l1.9-11.4
		l0.2-2.1c0-2.4-1.4-3.5-4.1-3.5c-3.3,0-6.3,1.6-8.7,4.8c-2.5,3.2-3.7,7.1-3.7,11.6c0,3,0.6,5.2,1.7,6.8s2.7,2.4,4.8,2.3
		C349.3,201.9,351.2,201.1,352.9,199.3z"/>
	<path id="Path_75_" class="st0" d="M365.2,204.7c0.2-0.3,0.5-0.5,0.6-0.8c0.3-0.4,0.6-0.9,0.9-1.4c0.2-0.4,0.4-1.3,0.6-2.5l3.3-20
		l0.2-2.3c0-0.6-0.2-1.4-0.7-2.6h6.9l-0.5,3.3l2.2-1.7c2.4-1.4,5.1-2.2,7.9-2.2c1.3,0,2.5,0.2,3.7,0.6c1.1,0.4,1.9,0.8,2.4,1.4
		c0.5,0.5,1.1,1.5,1.7,2.9l1.9-1.8c2.6-2.1,5.5-3.1,8.9-3.1c2.4,0,4.3,0.6,5.8,1.7c1.5,1,2.3,2.4,2.3,4.2L413,184l-2.6,16l-0.2,2.1
		c0,0.6,0.4,1.5,1.2,2.6h-7.6l1.1-5.1l0.7-3.7l1.6-10.2l0.5-3.3c0-1.5-0.5-2.7-1.4-3.5c-0.9-0.9-2.1-1.3-3.6-1.3
		c-2.4,0-4.3,0.6-5.8,1.9s-2.5,3.2-2.9,5.6l-2.4,15l-0.2,2.1l0.2,1.2l0.8,1.4H385l1.6-8.1l1.7-10.4l0.5-4c0-3.1-1.7-4.6-5.1-4.6
		c-2.5,0-4.5,0.7-6,2.1c-0.7,0.5-1.2,1.2-1.6,2c-0.3,0.7-0.6,1.9-0.9,3.5l-2.4,14.8l-0.2,2.1c0,0.4,0,0.8,0.1,1.2l0.7,1.4
		L365.2,204.7z"/>
	<path id="Shape_94_" class="st0" d="M415.8,204.7c1.4-1.4,2.2-2.9,2.5-4.6l3.2-20.2l0.2-2.3c0-0.4,0-0.8-0.1-1.2
		c-0.2-0.5-0.4-1-0.6-1.4h6.8l-3.9,25.1l-0.3,2.2c0,0.6,0.3,1.4,0.8,2.4H415.8L415.8,204.7z M423.1,165.6c0-1,0.4-1.9,1.2-2.6
		c0.7-0.7,1.7-1.1,2.7-1.1c0.8,0,1.6,0.3,2.2,1c0.7,0.7,1,1.5,1,2.5s-0.4,1.9-1.1,2.6c-0.4,0.3-0.8,0.6-1.2,0.8
		c-0.5,0.2-1.1,0.3-1.6,0.3c-0.9,0-1.7-0.3-2.3-1C423.4,167.3,423.1,166.5,423.1,165.6z"/>
	<path id="Path_76_" class="st0" d="M428.8,204.7c0.8-0.9,1.3-1.7,1.5-2.2s0.5-1.4,0.7-2.6l3.3-20l0.2-2.3c0-0.6-0.2-1.5-0.6-2.6
		h6.9l-0.6,3.5l1.7-1.4c2.4-1.7,5.2-2.6,8.4-2.6c2.6,0,4.7,0.5,6.3,1.6s2.4,2.5,2.4,4.5l-0.4,3.3l-2.6,16.3l-0.2,2.1
		c0,0.6,0,1.1,0.1,1.2l0.8,1.3h-7.5l1-3.7c0.4-1.5,0.7-3.1,1-4.6l1.7-10.6l0.4-3.4c0-3-1.8-4.6-5.3-4.6h-2l-1.8,0.5l-1.6,0.8
		c-0.4,0.2-0.8,0.5-1.2,0.8c-0.7,0.6-1.3,1.4-1.7,2.2c-0.4,0.8-0.7,2.1-1,3.8l-2.2,14.1l-0.2,2.2c0,0.5,0.3,1.3,0.8,2.4L428.8,204.7
		z"/>
	<path id="Shape_95_" class="st0" d="M460.8,217.7l5.1-4.3c0,3.9,1.7,5.8,5.3,5.8c2.2,0,4.2-0.9,5.9-2.7c1.8-1.8,2.9-4,3.4-6.6
		l1.5-9.4l-1.6,1.6c-2.4,2.1-5.2,3.1-8.2,3.1c-2.9,0-5.2-1.1-7-3.2s-2.7-4.9-2.7-8.4c0-5.6,1.8-10.2,5.4-13.8s8.2-5.4,13.9-5.4
		c1.4,0,2.8,0.1,4.2,0.4l3.8,0.8l2.2,0.5l-1.1,1.9l-0.6,3.3l-4.1,25.6c-0.7,4.6-2.5,8.3-5.4,11.2c-2.9,2.9-6.3,4.3-10.2,4.3
		c-1.4,0-2.7-0.2-4-0.6c-0.8-0.2-1.4-0.4-1.9-0.6s-0.9-0.4-1.4-0.7C462.8,220,462,219.1,460.8,217.7z M480.8,199.3
		c0.8-0.9,1.3-1.7,1.5-2.2s0.5-1.8,0.8-3.8L485,182l0.3-2.1c0-2.4-1.4-3.5-4.1-3.5c-3.5,0-6.4,1.6-8.9,4.8
		c-2.4,3.2-3.7,7.1-3.7,11.6c0,3,0.6,5.2,1.7,6.8c1.1,1.6,2.7,2.4,4.9,2.3C477.2,201.9,479.1,201.1,480.8,199.3z"/>
	<path id="Path_77_" class="st0" d="M511.2,202.9l0.6-7.4c0.3,0.8,0.5,1.4,0.7,1.9s0.4,0.9,0.6,1.3c0.4,0.8,0.9,1.5,1.5,2.1
		c1.4,1.5,3.2,2.2,5.3,2.2s3.9-0.7,5.3-2c1.4-1.3,2.1-3,2.1-5c0-1.4-0.5-2.7-1.4-3.8l-1-1l-1.2-1.1l-2.9-2.2
		c-2.4-1.8-4.1-3.4-5.1-4.9c-0.9-1.4-1.4-3.1-1.4-4.7c0-2.6,1.1-4.8,3.2-6.7c2.1-1.8,4.7-2.8,7.8-2.8c1.1,0,2.2,0.2,3.3,0.4l2.9,0.8
		h1c0.3,0,0.8-0.2,1.4-0.5l-0.7,7.8c-1-4.1-3.3-6.1-6.9-6.1c-1.6,0-3,0.5-4.1,1.5s-1.6,2.3-1.6,3.9c0,1.1,0.4,2.2,1.3,3.3
		s2.2,2.4,4.2,3.9l2.8,2.1c1.6,1.2,2.8,2.5,3.6,3.8s1.2,2.8,1.2,4.3c0,3.2-1.3,5.9-3.9,8.1c-2.6,2.2-5.7,3.4-9.3,3.4
		c-1.2,0-2.5-0.1-3.7-0.4l-2.7-0.8L511.2,202.9z"/>
	<path id="Shape_96_" class="st0" d="M538.4,190.1c0.6-4.4,2.8-8.2,6.4-11.2c1.7-1.4,3.6-2.6,5.7-3.4c2.1-0.8,4.4-1.1,6.6-1.1
		c3.9,0,7.1,1.2,9.6,3.6s3.8,5.5,3.8,9.3c0,4.9-1.8,9.1-5.4,12.8c-3.6,3.6-7.9,5.4-12.9,5.4c-4.1,0-7.4-1.2-9.9-3.7
		s-3.8-5.7-3.8-9.7L538.4,190.1z M544.6,192.7v1.5c0.3,2.8,1.1,5.1,2.5,6.7s3.2,2.4,5.4,2.4c3.3,0,6-1.5,8.3-4.5s3.4-6.6,3.4-10.8
		c0-3.7-0.7-6.6-2.1-8.5c-1.3-2-3.2-3-5.8-3c-3.4,0-6.3,1.5-8.5,4.6C545.7,184.2,544.6,188,544.6,192.7z"/>
	<path id="Path_78_" class="st0" d="M572.2,204.7c0.7-0.8,1.1-1.5,1.4-1.9c0.2-0.5,0.5-1.4,0.8-2.8l5.8-36.6l0.2-2.2
		c0-0.4,0-0.7-0.1-1.1c-0.2-0.6-0.4-1.1-0.6-1.7h6.7l-6.5,41.7l-0.2,2.1c0,0.7,0.2,1.5,0.6,2.5H572.2z"/>
	<path id="Path_79_" class="st0" d="M606.7,200.8l-1.8,1.7c-2.1,1.9-5,2.8-8.5,2.8c-2.7,0-4.7-0.6-6.3-1.7c-1.5-1.1-2.3-2.6-2.3-4.5
		c0-0.6,0-1.2,0.1-1.6s0.2-1.4,0.3-2.9l2.4-14.7l0.2-2.1c0-0.7-0.3-1.7-0.8-3h6.9l-2.9,18.6l-0.3,2.2l-0.2,1.8
		c0,3.1,1.9,4.6,5.7,4.6c1.4,0,2.6-0.2,3.6-0.6c1.1-0.5,2-1.1,2.8-2c0.7-0.7,1.2-1.4,1.4-2.1c0.3-0.6,0.5-1.8,0.8-3.5l2.3-14.1
		l0.2-2.1c0-0.6-0.3-1.6-0.8-3h6.8l-3.9,25.1l-0.3,2.1c0,0.6,0.3,1.5,0.9,2.5h-7L606.7,200.8z"/>
	<path id="Path_80_" class="st0" d="M630.8,203.5c-1.9,1.2-3.8,1.8-5.7,1.8c-1.5,0-2.8-0.4-3.7-1.2s-1.4-1.9-1.4-3.3l0.5-3.7l3-19.3
		h-2.6l1.1-2.8h2l1-6l5.8-1.7l-1.3,7.8h5.6l-1,2.8h-5l-3.1,19.8l-0.3,2.2c0,1.5,0.7,2.2,2.1,2.2c1.2,0,2.4-0.7,3.7-2.1L630.8,203.5z
		"/>
	<path id="Shape_97_" class="st0" d="M632.8,204.7c1.4-1.4,2.2-2.9,2.5-4.6l3.2-20.2l0.2-2.3c0-0.4,0-0.8-0.1-1.2
		c-0.2-0.5-0.4-1-0.6-1.4h6.8l-3.9,25.1l-0.3,2.2c0,0.6,0.3,1.4,0.8,2.4H632.8z M640,165.6c0-1,0.4-1.9,1.2-2.6
		c0.7-0.7,1.7-1.1,2.7-1.1c0.8,0,1.6,0.3,2.2,1c0.7,0.7,1,1.5,1,2.5s-0.4,1.9-1.1,2.6c-0.4,0.3-0.8,0.6-1.2,0.8
		c-0.5,0.2-1.1,0.3-1.6,0.3c-0.9,0-1.7-0.3-2.3-1C640.3,167.3,640,166.5,640,165.6z"/>
	<path id="Shape_98_" class="st0" d="M647.5,190.1c0.6-4.4,2.8-8.2,6.4-11.2c1.7-1.4,3.6-2.6,5.7-3.4c2.1-0.8,4.4-1.1,6.6-1.1
		c3.9,0,7.1,1.2,9.6,3.6s3.8,5.5,3.8,9.3c0,4.9-1.8,9.1-5.4,12.8c-3.6,3.6-7.9,5.4-12.9,5.4c-4.1,0-7.4-1.2-9.9-3.7
		s-3.8-5.7-3.8-9.7L647.5,190.1L647.5,190.1L647.5,190.1z M653.6,192.7v1.5c0.3,2.8,1.1,5.1,2.5,6.7s3.2,2.4,5.4,2.4
		c3.3,0,6-1.5,8.3-4.5s3.4-6.6,3.4-10.8c0-3.7-0.7-6.6-2.1-8.5c-1.3-2-3.2-3-5.8-3c-3.4,0-6.3,1.5-8.5,4.6
		C654.8,184.2,653.6,188,653.6,192.7L653.6,192.7z"/>
	<path id="Path_81_" class="st0" d="M681.2,204.7c0.8-0.9,1.3-1.7,1.5-2.2s0.5-1.4,0.7-2.6l3.3-20l0.2-2.3c0-0.6-0.2-1.5-0.6-2.6
		h6.9l-0.6,3.5l1.7-1.4c2.4-1.7,5.2-2.6,8.4-2.6c2.6,0,4.7,0.5,6.3,1.6s2.4,2.5,2.4,4.5l-0.4,3.3l-2.6,16.3l-0.2,2.1
		c0,0.6,0,1.1,0.1,1.2l0.8,1.3h-7.5l1-3.7c0.4-1.5,0.7-3.1,1-4.6l1.7-10.6l0.4-3.4c0-3-1.8-4.6-5.3-4.6h-1.7l-1.8,0.5L695,179
		c-0.4,0.2-0.8,0.5-1.2,0.8c-0.7,0.6-1.3,1.4-1.7,2.2c-0.4,0.8-0.7,2.1-1,3.8l-2.2,14.1l-0.2,2.2c0,0.5,0.3,1.3,0.8,2.4L681.2,204.7
		z"/>
	<path id="Path_82_" class="st0" d="M713.5,203.4l1.1-7.1c1,2.5,2.1,4.3,3.2,5.3s2.5,1.6,4.2,1.6c1.8,0,3.2-0.6,4.2-1.7
		c1.1-1.1,1.6-2.5,1.6-4.2c0-1.1-0.3-2-0.8-2.7c-0.3-0.4-0.7-0.8-1.2-1.1l-2.7-1.7c-2.2-1.3-3.9-2.5-4.9-3.8c-1-1.2-1.5-2.6-1.5-4.1
		c0-2.7,1.1-5,3.3-6.8s5.1-2.7,8.5-2.7h1.5c0.6,0,1.1,0.1,1.6,0.2c0.7,0.1,1.3,0.3,1.8,0.4s1.2,0.4,2.1,0.7l-1,6.1
		c-0.6-1.5-1.3-2.6-1.9-3.4c-1.1-1.1-2.7-1.8-4.2-1.7c-1.5,0-3,0.5-4.1,1.5s-1.7,2.4-1.7,3.9c0,0.8,0.3,1.6,0.8,2.2
		c0.5,0.7,1.5,1.4,3,2.2l1.8,1c2.2,1.3,3.7,2.4,4.5,3.4s1.3,2.3,1.3,3.8c0,3.1-1.2,5.7-3.6,7.8c-2.4,2.1-5.4,3.2-8.8,3.2
		c-1.1,0-2.3-0.2-3.4-0.4C716.8,205,715.3,204.4,713.5,203.4z"/>
</g>
</svg>
