<?xml version="1.0" encoding="UTF-8"?> <svg xmlns="http://www.w3.org/2000/svg" xmlns:xlink="http://www.w3.org/1999/xlink" version="1.1" id="Layer_1" x="0px" y="0px" viewBox="0 0 1000 1000" style="enable-background:new 0 0 1000 1000;" xml:space="preserve"> <path style="fill:#FFFFFF;" d="M644.5,360c3.7,0.9,7.4,1.7,10.9,2.8c11.7,3.8,16.4,12.5,11.1,23.7c-6.8,14.4-14.9,28.2-22.7,42.1 c-4.9,8.9-10.2,17.6-15.3,26.4c-9.9,17.3-25.4,27.6-44.6,28.5c-31.6,1.5-63.3,0.4-95.8,0.4c1-2.5,1.4-4.3,2.3-5.8 c21.5-37.8,43.1-75.6,64.7-113.4c1-1.7,2.2-3.1,3.4-4.7C587.3,360,615.9,360,644.5,360z M542.3,451.9c12.5,0,23.1-0.5,33.7,0.2 c10.2,0.7,17.6-3.9,22.7-11.6c8-12,15.1-24.7,22.1-37.4c3.3-5.9,1-9.3-5.8-9.4c-11.6-0.2-23.2-0.2-34.8,0.1c-1.9,0-4.5,1.1-5.4,2.5 C564.2,414.1,553.8,432,542.3,451.9z"></path> <path style="fill:#FFFFFF;" d="M541.2,360c-0.5,1.4-0.6,3.6-1.6,4.2c-15,9.3-30,18.6-45.2,27.6c-2.5,1.5-6,1.8-9,1.9 c-17.7,0.2-35.4,0.1-53.1,0.1c-12.8,0-15.1,1.9-19.3,16.2c15.2,0,30.1,0,47.3,0c-2.8,2.5-3.8,3.7-5,4.4c-9.9,6-19.6,12.5-30,17.7 c-5.6,2.8-12.2,4.5-18.4,4.8c-12.2,0.7-14.7,2.2-18.4,15.8c34.5,0,68.6,0,104.8,0c-6.2,10.9-11.3,20.1-16.8,29.1 c-0.9,1.5-3.5,2.8-5.4,2.8c-45.1-0.1-90.1-0.3-135.2-0.6c-0.7,0-1.4-0.4-2.9-0.9c23.4-41.2,46.6-82.1,69.8-123 C449.1,360,495.1,360,541.2,360z"></path> <path style="fill:#FFFFFF;" d="M387,360c-1,1.6-1.7,3.8-3.1,4.7c-14.5,9.1-29.2,18.1-43.9,26.9c-2.5,1.5-5.9,2-8.9,2.1 c-18.4,0.2-36.8,0.5-55.2-0.1c-7.6-0.3-12.4,1.9-14.9,9c-0.7,2-1.9,3.8-3.7,7.2c16.1,0,31.1,0,46.1,0c0.2,0.7,0.4,1.4,0.6,2.1 c-3.8,2.6-7.6,5.4-11.5,7.7c-7.9,4.7-15.8,9.5-24,13.6c-4.2,2.1-9.2,4.1-13.6,3.6c-11.8-1.5-18.3,3.4-21.1,15.4 c34.1,0,68.3,0,102.4,0c0.5,0.7,1.1,1.4,1.6,2c-5.6,9.6-11.1,19.3-16.9,28.8c-0.6,1.1-3,1.5-4.6,1.5c-45.3-0.2-90.6-0.5-135.9-0.8 c-0.2,0-0.4-0.2-1.2-0.6c0.3-1.1,0.5-2.5,1.1-3.5c22-38.7,44-77.4,66-116.1c0.7-1.3,1.6-2.4,2.5-3.6C294.8,360,340.9,360,387,360z"></path> <path style="fill:#FFFFFF;" d="M183.3,360c2.6,0.5,5.1,1.2,7.7,1.6c14.4,2.1,20.9,12.3,14.9,25.5c-5.6,12-12.5,23.5-19,35 c-10.6,19-21.5,37.8-32.1,56.9c-2.3,4-5,6-9.8,5.8c-9.6-0.3-19.1-0.1-30.4-0.1c4.9-8.8,8.8-15.7,12.7-22.6 c10.5-18.5,21-37,31.4-55.6c5.5-9.8,3.5-13.2-7.4-13.3c-9.4-0.1-18.9,0.3-28.3-0.1c-5.3-0.2-8.2,1.5-10.8,6.2 c-14.8,26.4-30,52.5-44.9,78.8c-2.7,4.8-5.7,7.1-11.4,6.7c-9.4-0.7-18.8-0.8-28.3-1.1c0-0.5,0-1,0-1.5c1-1.3,2.1-2.4,2.9-3.8 c9.3-16.3,18.5-32.8,27.9-49.1c13.4-23.2,27-46.2,40.5-69.3C127,360,155.2,360,183.3,360z"></path> <path style="fill:#FFFFFF;" d="M834,535.1c-20.1,21.6-39.1,41.7-57.6,62.1c-4,4.3-8,6.1-13.8,6c-18.8-0.3-37.6-0.1-56.4-0.1 c-0.2-0.7-0.5-1.4-0.7-2c2-2.2,3.9-4.5,6-6.7c33.3-35.8,66.7-71.7,100.1-107.4c3.4-3.6,4.1-6.6,2.4-11.4 c-12.2-34.9-24.1-69.9-36.1-104.9c-0.9-2.7-1.7-5.4-2.9-9c21.7,0,42.5-0.1,63.3,0.2c1.6,0,3.9,3.1,4.7,5.2 c6.8,18.7,13.3,37.4,19.8,56.2c0.6,1.6,1.2,3.1,1.8,4.7c5.3-5.1,10.7-9.9,15.7-15.2c14.6-15.5,28.9-31.4,43.7-46.7 c2.3-2.4,6.5-4.2,9.9-4.3c19.5-0.4,39.1-0.2,60.3-0.2c-4,4.8-6.8,8.6-10,12c-32.1,34.6-64.3,69.3-96.6,103.8 c-3.2,3.4-4.1,6.2-2.5,10.8c12.3,35.5,24.4,71,36.5,106.6c0.8,2.2,1.4,4.5,2.4,7.5c-2.4,0.3-4.2,0.8-6,0.8 c-17.9,0.1-35.9-0.1-53.8,0.1c-4.9,0.1-7.1-1.6-8.7-6.4C848.7,576.6,841.5,556.6,834,535.1z"></path> <path style="fill:#FFFFFF;" d="M689.5,568.7c1,12.2-5.7,21.8-12.5,28.5c-4.5,4.5-15.4,2.6-23.4,3.6c-0.3-0.8-0.6-1.6-0.9-2.4 c2.8-5.8,5.5-11.5,8.9-18.5c-10.9,0-20.9-0.2-30.8,0.2c-1.4,0.1-3.1,2.7-4.1,4.4c-10.2,17.1-10.1,17.2-30.1,15.1 c-0.7-0.1-1.3-0.4-2.6-0.8c0.8-1.6,1.4-3.1,2.1-4.5c13.7-24,27.4-47.9,40.9-71.9c2.2-3.8,4.5-5.5,9-5.4c16.7,0.3,33.5,0,50.2,0.2 c3.8,0.1,7.7,1,11.2,2.5c4.8,2.2,7.9,6.7,6.1,11.8C708.4,545.9,702,559.7,689.5,568.7z M641.8,557.9c9.7,0,17.9,0.3,26-0.1 c7.4-0.4,11.7-5.1,13.9-11.9c1.3-4,0.3-6.7-4.6-6.6c-7,0-14-0.1-21,0c-1.5,0-3.5,0.8-4.2,1.9C648.6,546.2,645.7,551.4,641.8,557.9z"></path> <path style="fill:#FFFFFF;" d="M536.6,600.1c-6.5,0-13.1,0.3-19.6-0.1c-11.7-0.6-17.2-8.6-11.8-18.8c8.6-16.2,17.9-32.1,27.9-47.4 c7.3-11.2,19.2-16,32.4-16.7c11.1-0.5,22.3-0.2,33.4,0c2.8,0,5.8,0.7,8.5,1.7c6.7,2.3,10.3,8.7,7,14.9c-9.3,17.5-18.6,35-29.4,51.5 c-6.8,10.3-18.4,14.6-30.9,14.7c-5.8,0.1-11.6,0-17.4,0C536.6,600.1,536.6,600.1,536.6,600.1z M549.7,579.7c5.1-1.8,12.5-2.2,15.7-6 c6.9-8.1,11.9-18,17.2-27.4c0.7-1.3-1.4-5.9-3-6.4c-14.1-4.3-27.4,1.4-34.5,14.3c-1.6,3-3.7,5.7-5,8.8c-1.7,4.1-2.9,8.4-4.3,12.6 C540.1,576.8,544.3,578.1,549.7,579.7z"></path> <path style="fill:#FFFFFF;" d="M480.2,552.1c-8.1,4.8-16.1,9.8-24.3,14.4c-2.2,1.2-5.2,1.9-7.6,1.4c-7.6-1.3-11.4,2.4-14.3,8.8 c-2.6,5.7-6.5,10.8-9.1,16.5c-2.7,5.6-6.5,7.7-12.6,7.1c-4.7-0.5-9.5-0.1-15.3-0.1c1.1-2.8,1.4-4.4,2.2-5.7 c13.8-23.9,27.5-47.9,41.5-71.6c1.4-2.4,4.8-5.2,7.3-5.3c28.4-0.4,56.7-0.2,85.1-0.2c0.9,0,1.7,0.2,2.7,1.1 c-15.2,9-27.6,23.8-48.1,21.1c-7.9-1-16,0.4-24-0.3c-7.8-0.8-10.8,3.2-13.1,10.7c10.1,0,19.6,0,29.1,0 C479.9,550.7,480,551.4,480.2,552.1z"></path> </svg> 