<?xml version="1.0" encoding="UTF-8"?> <svg xmlns="http://www.w3.org/2000/svg" xmlns:xlink="http://www.w3.org/1999/xlink" version="1.1" id="Layer_1" x="0px" y="0px" viewBox="0 0 1000 1000" style="enable-background:new 0 0 1000 1000;" xml:space="preserve"> <path style="fill:#FFFFFF;" d="M523.7,631.7c3.7,18.7-3.9,34.5-12.7,49.8c-2.7,4.7-7.6,8.1-11.2,12.4c-2.4,2.8-4.2,5.9-6.4,8.8 c-1.5,2-2.9,4.8-5,5.8c-9.5,4.2-19.5,7.2-28.8,11.9c-14.3,7.2-29.1,10.3-45.1,8.5c-19.4-2.2-37.8-6.8-52.8-20.1 c-2.9-2.6-4.8-6.4-7-9.8c-7.9-12.3-17.6-23.9-23.2-37.2c-25.9-61.9,12.2-116.2,61.7-128.4c54.3-13.3,107.7,7.1,125.6,59.6 c4.2,12.3,4.9,25.7,7.3,38.6C525.3,631.6,524.5,631.6,523.7,631.7z M423.8,561.1c-18.8-0.2-35.6,5.3-47.4,20.2 c-15.5,19.5-19.4,42.2-15.3,66.6c4.4,25.5,17.2,42.3,43.8,48.4c19.1,4.4,36.9,1,54.2-5.1c6.9-2.4,14.6-9.5,17.2-16.3 c5-13.2,7.2-27.5,9.6-41.6C492.5,595.8,462.5,561.1,423.8,561.1z"></path> <path style="fill:#FFFFFF;" d="M681.9,723.4c-0.6-1.9-0.9-2.4-0.8-2.5c15.7-15.2,10.5-34.9,11-53c0.7-23.6,0.2-47.3-0.5-71 c-0.3-12-0.2-23.8-9.7-34.4c-4.3-4.8-2.1-15.3-3-24.6c29.9,0,58.5-0.1,87,0.1c5.4,0,10.9,0.7,16.2,1.9c39.8,8.7,63,36.1,68.4,76.5 c2.8,21.5,0.1,41.1-10.5,59.3c-4.7,8.2-12.8,14.3-18.9,21.8c-8.4,10.4-20.9,11.6-31.8,16.7C753.8,730.9,717.3,718.5,681.9,723.4z M813.1,629.9c1.2-17.1-3.1-33.7-14.7-46.9c-17.3-19.6-41-21.5-65.2-19.4c-2.1,0.2-5.4,4-5.4,6.2c-0.4,36.1-0.7,72.3-0.3,108.4 c0.1,8.9,4.2,16.5,15.2,16.1c9.3-0.4,18.8-0.2,27.9-2C795.9,687.3,815.2,663.2,813.1,629.9z"></path> <path style="fill:#FFFFFF;" d="M573.6,378.1c4.5,1,7.2,1.6,10.6,2.4c0.7-5.4-9.4-13.3,3.9-14.6c-7.9-6.1,0.1-9.1,2.5-10.3 c8.8-4.3,19.4-5,25.3-14.7c0.8-1.3,4.7-1.1,7.1-1c5.7,0.2,11.5,1.1,17.1,0.7c1.9-0.1,3.5-3.4,5.5-4.8c1.8-1.3,4-3.1,6-3.1 c48.3-1.7,84.2,19.6,100.3,65.7c2.1,5.9,1.7,12.7,2.6,19.1c1.1,7.8,2.7,15.5,3.2,23.4c0.2,3.2-1.5,6.7-2.9,9.9 c-0.8,2-3.5,3.4-3.8,5.3c-3.9,19.5-18.9,31.8-32.4,42.8c-22.1,18.1-48.6,25.3-78.4,21c-37.2-5.3-60.5-27.1-77.5-58.2 c-0.9-1.6-1.5-3.7-1.5-5.5c0-13.1-1.4-26.5,0.6-39.3C564,403.6,569.5,391,573.6,378.1z M594.8,423.4c0.8,0,1.6,0,2.4,0 c-0.4,5.9-0.8,11.8-1.1,17.8c-0.2,5.1-2.2,11.3,0,15c5.3,8.6,15.7,14.9,18.5,23.9c5.1,16.1,17.6,17,29.8,19.3 c18.4,3.4,36.8,2.8,51.2-11c8.3-7.9,15.7-16.9,17.6-29.3c2.7-18.4,1.8-36.1-2-54.6c-5.3-26.2-33.1-40.8-54.2-40.6 c-13.8,0.1-24.9,9.9-39,7.8c-4.5-0.7-17.1,17.4-17.2,22.3c-0.5,14-1.2,14.8-15.2,14c0,7.5,0,15,0,22.5c0.8,0.5,1.6,1.1,2.4,1.6 C590.3,429.2,592.6,426.3,594.8,423.4z"></path> <path style="fill:#FFFFFF;" d="M925.8,524.7c-10.4-13.3-20.8-26.6-31.3-39.8c-3-3.7-6.1-7.8-10.1-10.2 c-14.2-8.5-28.1-16.9-37.8-30.8c-3.3-4.7-8.1-8.6-12.9-11.8c-6.1-4-13-6.1-12.1-16c0.2-2.7-6.2-6-10.6-9.9 c1.1,37.2-4.4,74.2,2.7,109.9c-11.3,1.3-24.3,2.8-35.1,4c0.1-19.6,0.2-39,0.3-58.4c0.3-40.5,0.7-81.1,1.1-121.6 c0-0.9,0.5-1.7,1.7-5.2c42.1,37.4,76,80.9,117.9,120.7c0-22,0.2-42.2-0.1-62.2c-0.1-10.4-0.9-20.6-12.9-25.7c-1.7-0.7-2-6.3-2-9.7 c0.5-17.2,0.6-17.2,17.8-17.1c14,0.1,28,0,43.5,0c-2.1,11,4.7,22.1-6.7,31.9c-5,4.3-7.5,13.5-7.8,20.6c-1.1,21.9-0.6,44-0.8,65.9 c0,3.6,1,8.2-0.8,10.5c-7.3,9-4.2,17.2-1.4,26.8c2.4,8.2,0.5,17.6,0.5,26.5C928,523.7,926.9,524.2,925.8,524.7z"></path> <path style="fill:#FFFFFF;" d="M291.3,540c0,9,0,19.3,0,31.4c-4.3-1-8.3-1.2-11.8-2.7c-21.2-9.5-42.8-12.2-65.3-5 c-23.6,7.6-40.1,31.2-41.9,57.1c-1.2,17.3,2.3,33.6,8.9,48.7c4.1,9.3,12.5,20.5,21.4,23.3c20.6,6.4,42.6,11.3,63.7-0.1 c1.6-0.9,3.7-3.1,3.6-4.7c-0.3-14.2-0.6-28.5-1.9-42.7c-0.4-4.4-3.8-8.6-6.3-13.9c14.2-4.2,29.2-0.7,45.4-2c0,19.2,0,37.9,0,56.6 c0,2.6,0,5.2-0.2,7.8c-0.6,7.2,0.8,19.3-2.3,20.6c-10.3,4.3-22.3,4.8-33.7,6.7c-2.8,0.5-6.9-0.7-8.5,0.9c-9.1,8.9-20.5,7.1-31.1,6.5 c-22-1.2-43.1-6.1-60.4-20.9c-21.4-18.3-34.6-40.9-35.8-69.9c-1.4-33.7,8.3-62.8,33.9-85.8c23-20.7,50.7-24.1,79.9-20.8 c7.9,0.9,15.6,3.8,23.4,5.5C278.5,537.8,284.5,538.7,291.3,540z"></path> <path style="fill:#FFFFFF;" d="M178.1,331.9c38.2,0,75.5,0.1,112.8-0.1c6.1,0,8.9,1.6,8.7,8.2c-0.2,8.5,0.6,17.1-1,25.9 c-1-2.5-2-4.9-3.8-9.2c-1.7,3.5-2.7,5.5-3.2,6.4c-14.9-4.1-29.7-5.1-44.8-2.9c-4.4,0.7-9,0.9-13.5,0.5c-5.8-0.6-7.3,1-4.9,6.4 c2.7,6.2,3.5,11.6-0.7,18.6c-5.9,10,0.1,17.5,11.7,17.6c10.9,0.1,21.8,1,32.6,0.1c4.7-0.4,9.1-4.5,13.7-6.8c2.1-1.1,4.3-2,6.6-3.1 c0,17.4,0,33.9,0,52.5c-2.7-3.7-4.4-5.7-5.6-7.9c-3.2-5.6-6.7-7.7-14-6.4c-8.8,1.6-18.3,1.3-27.1-0.2c-15.3-2.6-17.1-2.1-16.5,13.6 c0.4,10.7,1.9,21.5,3.5,32.1c0.3,1.7,3.7,4.2,5.8,4.2c14.1,0.2,28.3-0.2,42.4-0.1c3.6,0,7.2,1.3,12.5,2.4c1.3-0.9,4.4-3.1,8.7-6 c0.6,5.8,2.8,11.1,1.2,14.9c-2.5,6.2-7.1,11.6-11.4,16.9c-1.1,1.3-4.2,1.3-6.4,1.3c-17.6,0.4-35.7,3.2-52.5-0.1 c-12.1-2.4-21.5,0.3-32.5,2.5c-8.1,1.6-17.4-2.5-27.7-4.3c19.2-9.4,15.5-27.3,16.6-42.6c1.9-25.9,2.2-51.9,2.4-77.8 c0.1-11,1.2-23.1-12.2-28.9c-1.1-0.5-1.5-3.4-1.5-5.2C178,347.2,178.1,339.8,178.1,331.9z"></path> <path style="fill:#FFFFFF;" d="M478.9,435.1c0,14.8,0.4,30.3-0.1,45.9c-0.8,25.3-11.1,35.5-36.1,33.4c-3.2-0.3-6.9-0.5-9.5,0.8 c-22.5,11.3-45.2,7.2-65.4-3.6c-16.6-8.9-31.4-22.2-44.6-35.9c-6.3-6.6-9.2-18.4-9.9-28.1c-1-15,0.7-30.3,2.6-45.3 c0.8-6.3,4.8-12.3,8.1-18c5.7-10.1,9.7-23.1,18.4-29c13.6-9.1,30.5-13.6,46.2-19.3c5.5-2,11.7-2.6,17.6-2.6c9,0.1,17.6-0.3,26.7,5 c7,4.1,18,1.6,29.1,2.1c0,10.1,0,22.8,0,36.5c-2.8-1.2-6.2-2.6-9.5-4c-10.7-4.5-21.3-9.1-32-13.4c-2.3-0.9-5.4-1.4-7.6-0.7 c-12,3.9-24.3,7.4-35.7,12.7c-24.4,11.3-33.2,42.2-29.8,62.9c4.3,25.6,16.9,47.6,40.2,61.9c10.9,6.7,45.1,5.7,54.2-2.1 c1.3-1.1,2.1-3.3,2.2-5c1-12.1-2.9-22.2-9.6-32.6c-3.9-6.1-1.9-16.1-1.9-24.3c0-0.6,5.7-1.9,8.7-1.6 C453,432,464.9,433.5,478.9,435.1z"></path> <path style="fill:#FFFFFF;" d="M607.5,537.4c-13.5,4.6-15.3,13.6-15.4,24.5c0,31.4-1,62.8-1.2,94.3c-0.1,9.8,0.3,19.7,1.9,29.3 c0.5,3.1,5.4,7.7,8.5,7.9c12.3,0.9,24.8,1.7,36.9-0.2c7.5-1.2,14.3-7.3,22.1-11.6c-1.1,12.5-2.1,25.2-3.7,37.8 c-0.2,1.5-3.5,3.6-5.5,3.6c-9.4,0.4-18.8,0.2-29.4,0.2c0.9-2.3,1.4-3.5,2.2-5.5c-2.4-0.4-5-0.9-8.6-1.5c1.9,2.6,3,4.2,5.8,8 c-12.5-6-22.2-4-32.9-2c-14.9,2.8-30.7,0.7-49.7,0.7c20.1-13,16.6-30.8,16.8-47.4c0.3-25.3,0.3-50.6,0-75.9 c-0.2-13.9-0.9-27.8-2-41.6c-0.7-8.5-3.2-16.6-13.3-19.1C544.3,533.9,595.3,532.5,607.5,537.4z"></path> <path style="fill:#FFFFFF;" d="M172,479.2c-3.9,9.6-7.7,19.3-11.8,28.8c-0.6,1.3-3.2,2.5-4.8,2.4c-11.7-1-23.4-2.5-35.1-3.6 c-3.8-0.3-7.7-0.2-11.5,0.2c-15.3,1.6-30.5,3.4-44.4,4.9c1.1-12.4,2.8-22.9,2.9-33.4c0.3-29.8-0.1-59.6-0.3-89.4 c-0.1-10.8-1-21.3-10.7-28.6c-1.5-1.1-2.3-3.8-2.4-5.8c-0.3-7.4-0.1-14.8-0.1-22.5c20.2,0,40.2,0,61.8,0 c-1.6,10.7,5.4,21.8-6.5,31.6c-4.5,3.7-6.4,12.8-6.5,19.4c-0.6,27.2-0.1,54.4,0.1,81.7c0,3.2,0.4,6.5,0.9,9.6 c1.4,7.8,4.5,13.1,14,13.9c18.3,1.6,36.2,3.1,50.9-11.9C169.7,477.4,170.8,478.3,172,479.2z"></path> <path style="fill:#FFFFFF;" d="M487.4,333c14.5,0.9,28.3,1.7,42.1,2.5c1,0.1,2,0,2.9-0.1c18.7-1.2,18.9-1.2,17.7,17.7 c-0.2,2.9-2.8,5.7-4.5,8.4c-3,4.6-7.8,8.8-8.8,13.8c-1.5,7.6,1,15.7-4,23.2c-1.2,1.8,3.6,6.8,4.1,10.5c1.4,10.5,2.4,21.1,2.7,31.6 c0.5,14.6,0.1,29.2,0.2,43.8c0.1,10.3,1.4,20.2,13,25.5c-10.7,0.6-21.4,1.9-32.1,1.6c-10.4-0.2-20.7-1.9-32.4-3.2 c10.9-8.1,10.1-19.6,10.3-30c0.7-29.2,0.4-58.3,0.4-87.5c0-7-0.1-14.1-0.9-21c-0.3-2.6-2.4-6.5-4.4-7c-10.1-2.7-7.9-10-7.2-16.9 C486.7,342.1,487,338.2,487.4,333z"></path> </svg> 