<?xml version="1.0" encoding="UTF-8"?> <svg xmlns="http://www.w3.org/2000/svg" xmlns:xlink="http://www.w3.org/1999/xlink" version="1.1" id="Layer_1" x="0px" y="0px" viewBox="0 0 1000 1000" style="enable-background:new 0 0 1000 1000;" xml:space="preserve"> <path style="fill:#FFFFFF;" d="M971.4,388.1c3.9,0,6.5,3.8,4.9,7.3l-47.6,105c-16.4,36-31.4,49-62.8,49h-9c-3,0-5.4-2.3-5.4-5.2 v-24.4c0-2.9,2.4-5.2,5.4-5.2h6.1c16,0,20.8-4,26.5-18.7l-46.8-100.5c-1.6-3.4,1-7.3,4.9-7.3h33.5c2.2,0,4.2,1.3,5,3.3l24.5,61.4 l22.8-61.3c0.8-2.1,2.8-3.4,5.1-3.4H971.4z"></path> <path style="fill:#FFFFFF;" d="M835.4,393.2v107.1c0,2.9-2.4,5.2-5.4,5.2h-23.4c-2.2,0-4.1-1.3-5-3.2l-2.2-5.1 c-10,7.8-22.5,12.3-36.7,12.3c-37.2,0-63.7-26.2-63.7-62.8c0-36.4,26.6-62.3,63.7-62.3c14.3,0,27.1,4.6,37.1,12.6l2.8-6 c0.9-1.9,2.8-3,4.9-3H830C832.9,388,835.4,390.3,835.4,393.2z M795.5,446.9c0-15.3-11.5-26.7-27.2-26.7c-15.8,0-27.2,11.5-27.2,26.7 c0,15.3,11.5,26.8,27.2,26.8C784,473.7,795.5,462.2,795.5,446.9z"></path> <path style="fill:#FFFFFF;" d="M651.8,363.8l23.5-17.1c0.9-0.7,2.1-1,3.2-1h7.6c3,0,5.4,2.3,5.4,5.2v149.6c0,2.9-2.4,5.2-5.4,5.2 H655c-3,0-5.4-2.3-5.4-5.2V367.9C649.6,366.3,650.4,364.7,651.8,363.8z"></path> <path style="fill:#FFFFFF;" d="M547.9,512.8v31.4c0,2.9-2.4,5.2-5.4,5.2H535c-1.2,0-2.3-0.4-3.2-1c-6.1-4.4-16.8-12.2-23.5-17.1 c-1.4-1-2.1-2.5-2.1-4.2v-41.9l14.2,11.9C528,504.2,537.4,509.5,547.9,512.8z"></path> <path style="fill:#FFFFFF;" d="M498.8,350.9v57.7l-14.2-12c-7.7-7.1-17.1-12.4-27.6-15.6v-13c0-1.6,0.8-3.2,2.2-4.2 c6.2-4.5,17.4-12.6,23.5-17.1c0.9-0.7,2.1-1,3.2-1h7.6C496.4,345.7,498.8,348,498.8,350.9z"></path> <path style="fill:#FFFFFF;" d="M574.2,384.3c-28.8,0-51.8,13.9-62.1,35.5l36.1,30.3c-0.1-1-0.2-2.1-0.2-3.2 c0-15.5,10.9-26.3,26.2-26.3c8.1,0,15,3,19.6,8.2c0.4,0.5,0.9,1,1.3,1.5c0.1,0.1,0.2,0.2,0.3,0.3c0.1,0.2,0.2,0.3,0.4,0.5 c0.1,0.2,0.2,0.3,0.3,0.5c0.1,0.1,0.2,0.3,0.3,0.4c0.1,0.2,0.3,0.4,0.4,0.6c0.1,0.1,0.2,0.3,0.2,0.4c0.1,0.2,0.3,0.5,0.4,0.7 c0.1,0.1,0.1,0.2,0.2,0.4c0.1,0.3,0.3,0.5,0.4,0.8c0.1,0.1,0.1,0.2,0.2,0.3c0.1,0.3,0.2,0.6,0.4,0.8c0,0.1,0.1,0.2,0.1,0.3 c0.1,0.3,0.2,0.6,0.3,0.9c0,0.1,0.1,0.2,0.1,0.3c0.1,0.3,0.2,0.6,0.3,1c0,0.1,0,0.2,0.1,0.2c0.1,0.4,0.2,0.7,0.3,1.1 c0,0.1,0,0.1,0,0.2c0.1,0.4,0.2,0.8,0.3,1.2c0,0,0,0.1,0,0.1c0.3,1.8,0.5,3.6,0.5,5.5c0,15.5-10.9,26.3-26.2,26.3 c-8.1,0-13.5-3.3-19.7-8.2l-75-63c-12.1-11.1-29.1-17.7-48.9-17.7c-39.6,0-68.1,26.2-68.1,62.6c0,15.8,5.4,29.8,14.8,40.4 c0,0,0.1,0.1,0.1,0.1c0.2,0.2,0.3,0.4,0.5,0.6c0.2,0.2,0.4,0.4,0.5,0.6c0,0,0,0.1,0.1,0.1c12.2,13,30.5,20.8,52.1,20.8 c28.7,0,51.7-13.9,62.1-35.5l-36-30.3c0.1,1,0.2,2.1,0.2,3.1c0,15.5-10.9,26.3-26.2,26.3c-8.1,0-15-3-19.7-8.2 c-0.5-0.5-1-1.1-1.4-1.7c0,0-0.1-0.1-0.1-0.1c-0.2-0.2-0.3-0.5-0.5-0.7c-0.1-0.1-0.1-0.2-0.2-0.3c-0.1-0.2-0.3-0.4-0.4-0.6 c-0.1-0.1-0.2-0.3-0.3-0.4c-0.1-0.2-0.2-0.4-0.3-0.6c-0.1-0.2-0.2-0.3-0.3-0.5c-0.1-0.2-0.2-0.4-0.3-0.6c-0.1-0.2-0.2-0.3-0.2-0.5 c-0.1-0.2-0.2-0.4-0.3-0.6c-0.1-0.2-0.2-0.3-0.2-0.5c-0.1-0.2-0.2-0.4-0.3-0.6c-0.1-0.2-0.1-0.3-0.2-0.5c-0.1-0.2-0.2-0.5-0.2-0.7 c0-0.2-0.1-0.3-0.1-0.5c-0.1-0.2-0.2-0.5-0.2-0.7c0-0.2-0.1-0.3-0.1-0.5c-0.1-0.3-0.1-0.5-0.2-0.8c0-0.1-0.1-0.3-0.1-0.4 c-0.1-0.3-0.1-0.6-0.2-0.9c0-0.1,0-0.2,0-0.3c-0.1-0.3-0.1-0.7-0.2-1c0-0.1,0-0.1,0-0.2c-0.2-1.2-0.2-2.5-0.2-3.8 c0-15.5,10.9-26.3,26.2-26.3c8.1,0,14.2,3.7,19.6,8.2l75,63c11,10.1,26.1,16.5,43.7,17.5v0c0.3,0,0.6,0,0.9,0c0.3,0,0.7,0,1,0 c0.4,0,0.8,0,1.2,0c0.4,0,0.8,0,1.2,0c0.3,0,0.6,0,0.9,0c39.5,0,68.1-26.3,68.1-62.6C642.3,410.5,613.7,384.3,574.2,384.3z"></path> <path style="fill:#FFFFFF;" d="M314.6,363.8l23.5-17.1c0.9-0.7,2.1-1,3.2-1h7.6c3,0,5.4,2.3,5.4,5.2v149.6c0,2.9-2.4,5.2-5.4,5.2 h-31.1c-3,0-5.4-2.3-5.4-5.2V367.9C312.4,366.3,313.2,364.7,314.6,363.8z"></path> <path style="fill:#FFFFFF;" d="M168.2,446.9c0-36.4,28.5-62.6,68.1-62.6c39.5,0,68.1,26.2,68.1,62.6c0,36.3-28.6,62.6-68.1,62.6 C196.7,509.5,168.2,483.2,168.2,446.9z M236.3,473.2c15.3,0,26.2-10.7,26.2-26.3c0-15.4-10.9-26.3-26.2-26.3 c-15.3,0-26.2,10.7-26.2,26.3C210.1,462.4,221.1,473.2,236.3,473.2z"></path> <path style="fill:#FFFFFF;" d="M96.3,384.5c37.4,0,63.8,26,63.8,62.5c0,36.5-26.4,62.5-63.8,62.5c-14.2,0-26.8-4.6-36.7-12.6 l-2.5,5.6c-0.9,1.9-2.8,3.1-4.9,3.1H30.1c-3,0-5.4-2.3-5.4-5.2V367.9c0-1.6,0.8-3.2,2.1-4.2l23.5-17.1c0.9-0.7,2.1-1,3.2-1h7.1 c3,0,5.4,2.3,5.4,5.2v41.7C74.8,387.4,85,384.5,96.3,384.5z M117.9,447c0-15.3-11.5-26.8-27.2-26.8S63.5,431.6,63.5,447 c0,15.2,11.5,26.7,27.2,26.7C106.2,473.7,117.9,462.2,117.9,447z"></path> </svg> 