<?xml version="1.0" encoding="utf-8"?>
<!-- Generator: Adobe Illustrator 26.1.0, SVG Export Plug-In . SVG Version: 6.00 Build 0)  -->
<svg version="1.1" id="Layer_1" xmlns="http://www.w3.org/2000/svg" xmlns:xlink="http://www.w3.org/1999/xlink" x="0px" y="0px"
	 viewBox="0 0 1056.6 202" style="enable-background:new 0 0 1056.6 202;" xml:space="preserve">
<g id="Livello_1_1_">
</g>
<g id="Layer_1_00000121280000816817959920000000882230360127541942_">
</g>
<path style="fill:#F80000;" d="M93.9,195.6c-0.2-0.8-0.8-0.7-1.4-0.8c-2.8-0.5-5.6-0.9-8.5-1.4c-4.8-0.9-9.3-2.3-13.9-4
	c-11.6-4.3-21.9-10.5-31.2-18.6c-0.4-0.4-0.8-0.7-1.1-1.1c-0.3-0.5-0.2-0.8,0.4-1c0.2,0,0.4,0,0.5,0c1.8-0.1,3.7-0.1,5.5-0.2
	c6.8-0.3,13.5-0.7,20.3-1.6c3.1-0.4,6.2-0.7,9.3-1.2c5-0.8,9.9-1.6,14.9-2.6c3.6-0.7,7.2-1.4,10.7-2.3c4.7-1.1,9.3-2.4,14-3.7
	c4.7-1.3,9.3-2.7,14-4.2c4.5-1.4,8.9-3,13.3-4.6c5.4-2,10.8-4.1,16.2-6.4c5.1-2.2,10.1-4.6,15-7c6.7-3.2,13.2-6.9,19.6-10.7
	c2.4-1.4,4.8-3,7.2-4.4c0.1,0,0.1-0.1,0.2-0.2c0.4-0.2,0.9-0.7,1.3-0.2c0.2,0.3,0.2,0.8,0.1,1.2c-1.8,7.6-4.3,14.9-7.9,21.8
	c-4,7.8-9,15-14.9,21.5c-6.9,7.5-14.8,13.7-23.7,18.8c-4.9,2.8-10.1,5.1-15.4,7.1c-6,2.2-12.1,3.6-18.4,4.6c-1,0.2-1.9,0.2-2.9,0.4
	c-0.6,0.1-1.1,0.2-1.3,0.8C108.5,195.6,101.2,195.6,93.9,195.6z"/>
<path style="fill:#F80000;" d="M8.4,80c0.7,0.1,0.9-0.5,1-1c0.7-2.5,1.4-5.1,2.1-7.6c1.1-3.7,2.6-7.3,4.2-10.8
	c2.9-6.3,6.5-12.3,10.7-17.8c7.2-9.4,15.9-17.3,26.1-23.6c6.4-4,13.2-7.2,20.4-9.6c4.5-1.5,9-2.8,13.7-3.5c1.9-0.3,3.9-0.5,5.8-1
	c2.7-0.7,5.5-0.6,8.2-0.6c4.6,0,9.3,0,13.9,0.1c0.6,0,1.2,0.2,1.8,0.3c0.5,0.1,1,0.2,1.6,0.3c4.4,0.5,8.6,1.4,12.9,2.5
	c4.3,1.1,8.4,2.6,12.5,4.3c7.5,3.1,14.5,7.2,21.1,12.1c1.7,1.3,3.4,2.7,5,4c0,0,0.1,0.1,0.1,0.1c0.4,0.4,1,0.7,0.7,1.3
	c-0.2,0.3-0.8,0.4-1.3,0.4c-3.9,0.3-7.7,0.5-11.6,0.9c-4.8,0.5-9.5,1-14.2,1.6c-2.8,0.4-5.7,0.8-8.5,1.3c-4.7,0.8-9.3,1.7-13.9,2.6
	c-4.3,0.9-8.5,2-12.8,3c-3.4,0.9-6.8,1.8-10.2,2.8c-2.3,0.7-4.6,1.4-6.9,2.1c-2.8,0.9-5.6,1.7-8.4,2.7c-3.4,1.2-6.8,2.4-10.2,3.6
	c-2.7,1-5.4,2-8.1,3.1C59,56,53.8,58.2,48.7,60.6c-5.4,2.6-10.7,5.3-16,8.1c-7.5,4-14.7,8.5-21.8,13.1c-0.8,0.5-1.5,1.2-2.5,1.1
	C8.4,82,8.4,81,8.4,80z"/>
<path style="fill:#F80000;" d="M483.1,121.2c-0.5,0.1-1,0.2-1.4,0.2c-7.6,0-15.3,0-22.9,0c-0.4,0-0.7,0-1.1,0
	c-0.8-0.1-1.1-0.4-1.2-1.2c0-0.3,0-0.6,0-0.9c0-13,0-26,0-39c0-1.5,0.3-1.8,1.8-1.8c2,0,3.9,0,5.9,0c1.4,0,1.7,0.4,1.7,1.8
	c0,10.5,0,21,0,31.6c0,0.3,0,0.6,0,0.9c0.1,0.7,0.5,1,1.1,1.1c0.2,0,0.4,0,0.5,0c5.2,0,10.4,0,15.5-0.1
	C483.1,116.2,483.1,118.7,483.1,121.2z"/>
<path style="fill:#F80000;" d="M61,69.2c0-1,0.6-1.2,1.1-1.5c3-1.6,6-3.3,9.2-4.7c6.2-2.9,12.4-5.9,18.7-8.5c4.9-2.1,10-3.8,15-5.6
	c4.6-1.6,9.2-3,13.9-4.5c7-2.2,14.1-3.9,21.3-5.4c7.4-1.6,14.9-2.8,22.4-3.7c3.7-0.5,7.4-0.8,11-1.2c1.2-0.1,2.2,0.2,3.1,1.1
	c6,6.4,11,13.5,15.1,21.3c3,5.7,5.3,11.7,7.1,18c1.7,6,2.8,12.1,3.2,18.3c0.2,2.5,0.4,5,0.4,7.5c0,2.8-0.3,5.6-0.5,8.4
	c0,0.7-0.2,1.3-0.2,2c0,1.3-0.6,2.2-1.8,2.9c-3.8,2.1-7.4,4.3-11.2,6.2c-4.4,2.3-8.9,4.5-13.5,6.6c-4.9,2.2-9.8,4.3-14.7,6.3
	c-3.3,1.3-6.6,2.4-10,3.6c-4.6,1.5-9.1,3-13.7,4.5c-2.7,0.8-5.4,1.6-8.1,2.2c-5.6,1.4-11.3,2.8-16.9,3.9c-5.4,1.1-10.9,2.1-16.3,2.8
	c-5.9,0.8-11.9,1.5-17.9,1.6c-3.5,0.1-7,0.5-10.4,0.4c-7.9-0.2-15.8-0.4-23.6-2c-6.1-1.2-12.2-2.8-17.8-5.7c-3.9-2-7.5-4.4-10.3-7.8
	c-3.7-4.4-5.3-9.5-4.8-15.3c0.4-4.5,1.9-8.6,4.1-12.5c2.6-4.9,6.1-9.1,9.8-13.1c6.7-7.2,14.5-13.2,22.6-18.7
	c0.1-0.1,0.2-0.2,0.3-0.2c1.1-0.7,1.6-0.4,1.6,0.9c0,3.7,0,7.3,0,11c0,5.8,0,11.5,0,17.3c0,0.4,0,0.7,0,1.1c0.1,0.8,0.4,1.2,1.3,1.3
	c0.3,0,0.6,0,0.9,0c8.9,0,17.8,0,26.7,0c1.5,0,1.8-0.3,1.8-1.8c0-1.2,0-2.5,0-3.7c0-1.4-0.3-1.7-1.8-1.7c-5.8,0-11.5,0-17.3,0
	c-0.2,0-0.4,0-0.5,0c-2,0-2.1-0.2-2.1-2.1c0-1.6,0-3.1,0-4.7c0-1.8,0.3-2.1,2.1-2.1c4.8,0,9.6,0,14.5,0c0.1,0,0.3,0,0.4,0
	c1.3,0,1.6-0.3,1.6-1.6c0-1.2,0-2.5,0-3.7c0-1.3-0.3-1.6-1.7-1.6c-4.8,0-9.6,0-14.5,0c-0.4,0-0.8,0-1.2,0c-0.8-0.1-1.2-0.4-1.2-1.2
	c0-2,0-4,0-6c0-0.9,0.4-1.2,1.4-1.3c0.3,0,0.5,0,0.8,0c5.6,0,11.3,0,16.9,0c1.4,0,1.8-0.3,1.8-1.7c0-1.2,0-2.5,0-3.7
	c0-1.3-0.4-1.6-1.7-1.6c-4.9,0-9.8,0-14.7,0C62.2,69.3,61.7,69.2,61,69.2z M121,95.9c0-2,0-3.9,0-5.9c0-0.4,0-0.7,0-1.1
	c-0.1-0.8-0.5-1.1-1.2-1.1c-1.9,0-3.7,0-5.6,0c-0.9,0-1.3,0.5-1.4,1.3c0,0.3,0,0.6,0,0.9c0,2.5,0,5,0,7.5c0,1.6-0.2,1.9-1.7,2.5
	c-3.3,1.2-6.8,1.2-10.1,0.2c-1.1-0.3-2.1-0.8-3-1.4c-4.9-3.3-6.3-9-4.7-14.3c1.9-6.5,7.9-8.9,13.6-8.5c3.1,0.2,5.8,1.3,8.2,3.3
	c0.8,0.7,1.3,0.7,2.1,0c1.2-1.1,2.5-2.2,3.7-3.3c0.8-0.7,0.8-1.2,0-1.9c-1-0.9-2.1-1.9-3.3-2.5c-7.9-4.2-15.9-4.2-23.9-0.2
	c-4.9,2.5-8,6.7-9.4,12c-1.1,4.1-0.9,8.2,0.6,12.2c1.7,4.5,4.7,7.8,8.8,10.1c4,2.2,8.3,3.1,12.9,2.8c4.7-0.2,9.1-1.5,13.2-3.9
	c1-0.6,1.5-1.4,1.5-2.6C121,99.9,121,97.9,121,95.9z M143.1,69.3C143.1,69.3,143.1,69.3,143.1,69.3c-5.1,0-10.2,0-15.3,0
	c-0.3,0-0.5,0-0.8,0c-0.8,0.1-1.2,0.4-1.2,1.2c-0.1,1.5-0.1,3,0,4.5c0,0.8,0.4,1.2,1.3,1.3c0.4,0,0.7,0,1.1,0c2.8,0,5.6,0,8.4,0
	c1.6,0,1.9,0.4,1.9,1.9c0,8.5,0,17,0,25.5c0,0.8,0,1.6,0,2.4c0,1.3,0.4,1.7,1.7,1.7c2,0,3.9,0,5.9,0c1,0,1.4-0.4,1.4-1.4
	c0-0.3,0-0.5,0-0.8c0-9.1,0-18.2,0-27.3c0-0.2,0-0.4,0-0.7c0.1-1,0.4-1.4,1.4-1.4c0.4,0,0.7,0,1.1,0c2.9,0,5.7,0,8.6,0
	c1.2,0,1.6-0.3,1.7-1.4c0.1-1.4,0.1-2.9,0-4.3c0-0.9-0.4-1.2-1.4-1.3c-0.3,0-0.6,0-0.9,0C153,69.3,148,69.3,143.1,69.3z M49.5,123.7
	C49.5,123.7,49.5,123.7,49.5,123.7c0,1,0,2,0,3.1c0,1,0,2.1,0,3.1c0,1.2,0.4,1.6,1.6,1.6c1.8,0,3.7,0,5.5,0c1.7-0.1,3.4-0.4,5-1.2
	c2.5-1.4,4-4.2,3.8-6.9c-0.2-3.9-3-6.8-6.9-7.2c-2.4-0.2-4.8-0.2-7.2-0.3c-1.5,0-1.8,0.4-1.9,1.9C49.4,119.7,49.5,121.7,49.5,123.7z
	 M92.1,126.7C92.1,126.7,92.1,126.7,92.1,126.7c0-0.7,0-1.3,0-2c-0.1-1.1-0.4-1.4-1.5-1.4c-1.2,0-1.6,0.3-1.6,1.4c0,0.8,0,1.5,0,2.3
	c0,0.7-0.4,1.1-1,1.4c-2,0.8-4.8,0.1-6.1-1.6c-1.3-1.7-1.4-4.6-0.1-6.3c1.4-1.9,4-2.6,6.2-1.7c0.5,0.2,1,0.5,1.6,0.7
	c0.9,0.4,1.8,0,2.2-0.9c0.3-0.7,0.1-1.1-0.8-1.7c-3-1.8-6.2-1.9-9.4-0.4c-4.5,2.1-6.3,8.4-2.1,12.6c3.1,3.2,8.2,3.1,11.8,1
	c0.6-0.3,0.8-0.8,0.8-1.4C92.1,128.1,92.1,127.4,92.1,126.7z M133.4,131.4c1.7,0,2-0.4,1.4-1.8c-1.8-4.1-3.7-8.1-5.5-12.2
	c-0.5-1.1-1.2-1.7-2.5-1.6c-1.2,0-2,0.5-2.5,1.6c-1.5,3.3-3,6.7-4.5,10c-0.4,0.8-0.8,1.7-1.2,2.5c-0.4,0.9-0.1,1.4,0.9,1.5
	c1.4,0.2,2-0.1,2.6-1.5c0.1-0.3,0.3-0.6,0.4-0.8c0.3-0.7,0.8-1,1.6-1c1.8,0,3.6,0,5.4,0c0.7,0,1.2,0.3,1.5,0.9
	c0.2,0.3,0.4,0.6,0.5,1C131.6,131.1,132.4,131.5,133.4,131.4z M110.6,115.8C110.6,115.8,110.6,115.8,110.6,115.8c-1.8,0-3.6,0-5.4,0
	c-1.1,0-1.6,0.5-1.6,1.4c0,0.8,0.5,1.3,1.5,1.3c0.7,0,1.3,0,2,0c1.1,0.1,1.4,0.4,1.5,1.5c0,0.4,0,0.7,0,1.1c0,2.9,0,5.7,0,8.6
	c0,0.6,0,1.3,0.7,1.6c1.6,0.8,3-0.1,3-1.8c0-3,0-6,0-9c0-1.6,0.3-1.9,2-1.9c0.6,0,1.3,0,1.9,0c0.8-0.1,1.2-0.6,1.2-1.3
	c0-0.7-0.4-1.2-1.2-1.3c-0.3-0.1-0.7,0-1.1,0C113.7,115.8,112.1,115.8,110.6,115.8z M138.6,123.6c0,2.1,0,4.2,0,6.3
	c0,1.1,0.4,1.4,1.4,1.5c0.2,0,0.4,0,0.5,0c2.5,0,5.1,0,7.6,0c0.3,0,0.6,0,0.9-0.1c0.8-0.2,1.1-0.7,1-1.5c-0.1-0.8-0.5-1.2-1.5-1.2
	c-1.4,0-2.9,0-4.3,0c-2,0-2.3-0.3-2.3-2.3c0-0.1,0-0.3,0-0.4c0-2.8,0-5.6,0-8.4c0-1.3-0.4-1.7-1.7-1.7c-1.4,0-1.9,0.4-1.9,1.8
	C138.6,119.6,138.6,121.6,138.6,123.6z M96.9,123.5c0,2.1,0,4.2,0,6.3c0,0.5,0,1.2,0.5,1.4c0.7,0.2,1.5,0.2,2.2,0.1
	c0.7-0.2,0.7-0.9,0.7-1.5c0-4,0-8,0-12c0-0.3,0-0.6-0.1-0.8c-0.2-0.3-0.4-0.7-0.7-0.9c-1.5-0.7-2.7,0-2.7,1.6
	C96.9,119.6,96.9,121.6,96.9,123.5z M73.1,123.6C73.1,123.6,73.1,123.6,73.1,123.6c0-0.4,0-0.8,0-1.2c0-1.6,0-3.3,0-4.9
	c0-1-0.3-1.4-0.9-1.6c-1.7-0.5-2.7,0.2-2.7,1.9c0,2.7,0,5.4,0,8.1c0,1.3,0,2.6,0,3.9c0,1,0.3,1.3,1.3,1.4c0.3,0,0.5,0,0.8,0
	c1.3-0.1,1.6-0.3,1.6-1.6C73.1,127.6,73.1,125.6,73.1,123.6z"/>
<path style="fill:#F80000;" d="M260,99.8c0-6.5,0-13.1,0-19.6c0-1.5,0.3-1.8,1.8-1.8c4.7,0,9.5,0,14.2,0c4.1,0,7.9,1.3,11.3,3.5
	c4.4,2.8,7,7,7.9,12c0.7,3.9,0.8,7.8,0,11.7c-0.8,3.8-2.6,7.1-5.3,9.9c-1.6,1.7-3.6,2.7-5.7,3.7c-3.2,1.5-6.6,2.3-10.2,2.2
	c-4,0-8,0-12,0c-1.7,0-1.9-0.2-1.9-1.9C260,112.9,260,106.4,260,99.8z M269.1,99.8C269.1,99.8,269.1,99.8,269.1,99.8c0,4,0,8,0,12
	c0,1.6,0.3,2,2,2c1.7,0,3.4-0.1,5.1-0.3c4.4-0.7,7.5-3.1,9-7.4c1-2.9,1-5.9,0.8-8.9c-0.1-1.5-0.5-3.1-1-4.5c-1-2.9-3-4.9-5.9-6
	c-2.8-1-5.7-0.9-8.6-0.8c-0.8,0-1.2,0.5-1.3,1.3c0,0.3,0,0.6,0,0.9C269.1,92,269.1,95.9,269.1,99.8z"/>
<path style="fill:#F80000;" d="M356.7,108.5c0,3.1,0,6.2,0,9.2c0,1.7-0.3,2-2,2.5c-5,1.4-10.1,1.9-15.2,1.8
	c-4.9-0.1-9.2-1.9-12.7-5.4c-1.9-1.9-3.1-4.4-4-6.9c-2-5.5-2.2-11.1-0.8-16.7c1.6-6.1,5.2-10.8,11.2-13.4c3.1-1.3,6.3-1.9,9.6-2
	c4.2,0,8.2,0.5,12.1,1.9c1.6,0.6,1.8,1,1.1,2.6c-0.6,1.3-1.1,2.7-1.7,4.1c-0.6,1.3-1,1.5-2.3,0.9c-3.4-1.6-7.1-2-10.7-1.5
	c-3.7,0.5-6.6,2.6-8.4,6c-3.1,5.9-2.8,11.8,0.1,17.6c1.7,3.3,4.6,4.8,8.2,5c1.6,0.1,3.2-0.1,4.8-0.3c1.4-0.1,1.7-0.6,1.8-2
	c0-1.7,0-3.5,0-5.2c0-1.5-0.4-1.8-1.8-1.8c-1.5,0-3,0-4.6,0c-1.5,0-1.8-0.3-1.8-1.7c0-1.5,0-2.9,0-4.4c0-1.4,0.3-1.6,1.7-1.6
	c4.5,0,9,0,13.5,0c1.7,0,2,0.3,2,2.1C356.7,102.3,356.7,105.4,356.7,108.5C356.7,108.5,356.7,108.5,356.7,108.5z"/>
<path style="fill:#F80000;" d="M431.1,111.2c-2.1,0-4.2,0-6.3,0c-1.4,0-1.7,0.2-2.1,1.6c-0.7,2.4-1.4,4.8-2.2,7.2
	c-0.3,1.1-0.7,1.4-1.8,1.4c-2.3,0-4.6,0-7,0c-1.2,0-1.5-0.5-1.1-1.6c1.2-3.5,2.5-7.1,3.7-10.6c1.5-4.3,3-8.6,4.5-12.9
	c1.5-4.2,3-8.4,4.5-12.6c0.4-1.3,0.9-2.5,1.3-3.8c0.5-1.4,0.9-1.8,2.4-1.8c2.6,0,5.2,0,7.8,0c1.4,0,1.9,0.3,2.4,1.7
	c2,5.8,4.1,11.6,6.1,17.4c1.9,5.4,3.9,10.8,5.8,16.2c0.7,1.9,1.4,3.9,2.1,5.8c0.1,0.2,0.2,0.4,0.2,0.6c0.2,1-0.1,1.4-1.1,1.5
	c-0.4,0-0.9,0-1.3,0c-1.8,0-3.7,0-5.5,0c-1.4,0-1.7-0.3-2.1-1.6c-0.7-2.4-1.5-4.8-2.2-7.1c-0.4-1.2-0.7-1.4-1.9-1.4
	C435.2,111.2,433.2,111.2,431.1,111.2z M431.3,86.9c-0.1,0-0.3,0-0.4,0c-0.2,0.5-0.5,1-0.7,1.5c-0.8,2.5-1.5,5-2.3,7.5
	c-0.6,1.9-1.2,3.7-1.7,5.6c-0.4,1.3,0,1.8,1.3,1.8c2.5,0,5,0,7.5,0c1.2,0,1.5-0.4,1.1-1.6c-0.4-1.3-0.8-2.6-1.2-4
	c-1-3.3-2-6.6-3.1-10C431.7,87.5,431.4,87.2,431.3,86.9z"/>
<path style="fill:#F80000;" d="M402.2,103.8c0,5.2,0,10.3,0,15.5c0,0.2,0,0.4,0,0.7c-0.1,1.1-0.4,1.5-1.5,1.5c-2.1,0-4.1,0-6.2,0
	c-1.2,0-1.5-0.4-1.5-1.6c0-0.8,0-1.5,0-2.3c0-9.8,0-19.6,0-29.4c0-0.4,0-0.8-0.1-1.2c-0.2-0.8-1-0.8-1.6-0.8c-2.5,0-5,0-7.5,0
	c-0.4,0-0.7,0-1.1,0c-0.9-0.1-1.3-0.4-1.4-1.3c-0.1-1.7-0.1-3.5,0-5.2c0-0.8,0.4-1.1,1.2-1.2c0.4,0,0.7,0,1.1,0c9.4,0,18.7,0,28.1,0
	c0.3,0,0.5,0,0.8,0c1,0.1,1.4,0.4,1.4,1.4c0,1.6,0,3.1,0,4.7c0,1.3-0.4,1.7-1.7,1.7c-2.5,0-5,0-7.5,0c-0.4,0-0.8,0-1.2,0
	c-0.8,0.1-1.2,0.5-1.3,1.3c0,0.2,0,0.4,0,0.7C402.2,93.3,402.2,98.5,402.2,103.8C402.2,103.8,402.2,103.8,402.2,103.8z"/>
<path style="fill:#F80000;" d="M366.1,99.7c0-6.5,0-12.9,0-19.4c0-1.6,0.3-1.9,1.8-1.9c1.9,0,3.8,0,5.8,0c1.5,0,1.8,0.3,1.8,1.8
	c0,2.3,0,4.6,0,7c0,10.7,0,21.4,0,32.1c0,0.2,0,0.4,0,0.7c-0.1,1.2-0.4,1.5-1.6,1.5c-2,0-3.9,0-5.9,0c-1.5,0-1.9-0.4-1.9-1.9
	c0-4.9,0-9.7,0-14.6C366.2,103.2,366.2,101.4,366.1,99.7C366.2,99.7,366.1,99.7,366.1,99.7z"/>
<path style="fill:#F80000;" d="M303.9,99.7c0-6.5,0-12.9,0-19.4c0-1.6,0.3-1.9,1.8-1.9c1.9,0,3.8,0,5.6,0c1.4,0,1.7,0.3,1.7,1.8
	c0,13.1,0,26.1,0,39.2c0,0.3,0,0.6,0,0.9c-0.1,0.8-0.4,1.1-1.2,1.1c-2.2,0-4.4,0-6.6,0c-0.9,0-1.2-0.4-1.3-1.2c0-0.4,0-0.7,0-1.1
	C303.9,112.6,303.9,106.1,303.9,99.7C303.9,99.7,303.9,99.7,303.9,99.7z"/>
<path style="fill:#F80000;" d="M53,123.6c0-1.1,0-2.2,0-3.3c0-1.2,0.4-1.6,1.6-1.6c1.6,0,3.1-0.1,4.6,0.7c1.9,1,2.6,2.6,2.5,4.6
	c0,2-1.3,3.7-3,4.3c-1.4,0.5-2.9,0.5-4.4,0.5c-0.9,0-1.3-0.5-1.3-1.5C53,126,53,124.8,53,123.6C53,123.6,53,123.6,53,123.6z"/>
<path style="fill:#F80000;" d="M126.6,125.4c-0.4,0-0.8,0-1.2,0c-0.8-0.1-1.1-0.6-0.8-1.3c0.4-1.1,0.9-2.2,1.4-3.3
	c0.1-0.3,0.5-0.6,0.8-0.6c0.3,0,0.6,0.4,0.7,0.7c0.4,0.9,0.8,1.9,1.2,2.8c0.5,1.2,0.2,1.7-1.1,1.7
	C127.2,125.5,126.9,125.4,126.6,125.4C126.6,125.4,126.6,125.4,126.6,125.4z"/>
</svg>
