<?xml version="1.0" encoding="utf-8"?>
<!-- Generator: Adobe Illustrator 24.1.2, SVG Export Plug-In . SVG Version: 6.00 Build 0)  -->
<svg version="1.1" id="Layer_1" xmlns="http://www.w3.org/2000/svg" xmlns:xlink="http://www.w3.org/1999/xlink" x="0px" y="0px"
	 viewBox="0 0 257 33.3" style="enable-background:new 0 0 257 33.3;" xml:space="preserve">
<style type="text/css">
	.st0{fill:#2A91AD;}
	.st1{fill:#FFFFFF;}
</style>
<path class="st0" d="M82.1,2.4c4.3,0,8.5,0,12.8,0c1,0,1.7,0.7,1.6,1.7c0,0.3-0.2,0.7-0.4,0.9c-0.5,0.6-1.1,1.2-1.7,1.7
	c-6.5,6.5-13,13-19.4,19.5c-1.4,1.4-2.9,3-4.4,4.5c-0.9,0.9-2.1,0.8-2.6-0.2c-0.2-0.2-0.2-0.6-0.2-0.9c0-8.5,0-17,0-25.5
	c0-0.9,0.7-1.7,1.7-1.7C73.7,2.4,77.9,2.4,82.1,2.4z"/>
<path class="st0" d="M50.3,2.4c4.3,0,8.5,0,12.8,0c0.7,0,1.4,0.4,1.5,0.9c0.2,0.6,0.1,1.3-0.4,1.8c-3.5,3.5-7,7-10.5,10.5
	s-6.9,7-10.5,10.5c-1.5,1.5-3,3-4.5,4.5c-0.5,0.6-1.2,0.8-1.9,0.4c-0.7-0.3-0.9-0.9-0.9-1.6c0-8.5,0-17,0-25.4
	c0-0.9,0.6-1.8,1.8-1.8C41.9,2.4,46.1,2.4,50.3,2.4z"/>
<path class="st0" d="M32.7,16.8c0,4.3,0,8.5,0,12.8c0,0.7-0.2,1.2-0.9,1.5c-0.6,0.2-1.3,0.1-1.8-0.4c-3.3-3.3-6.5-6.5-9.7-9.8
	c-2.1-2.1-4.2-4.2-6.3-6.3c-3.2-3.2-6.4-6.3-9.5-9.5C3.4,4,4,2.8,4.9,2.4c0.2-0.1,0.6-0.1,0.9-0.1c8.3,0,16.6,0,24.9,0
	c0.2,0,0.6,0,0.9,0.1c0.7,0.2,1,0.8,1,1.4C32.7,8.2,32.7,12.5,32.7,16.8z"/>
<path class="st1" d="M116.5,15.8c-2.1,4.2-4.2,8.5-6.4,12.5c-0.4,0.6-0.6,1.5-1,1.9c-0.2,0.4-0.8,0.6-1.3,0.8c-1.3,0-2.5,0-3.8,0
	c-0.6,0-1-0.2-1-1c0-8.7,0-17.6,0-26.3c0-0.8,0.2-1,1-1c1.5,0,3,0,4.7,0c0,5.7,0,11.2,0,16.7h0.2c1.3-2.3,2.3-4.7,3.6-7
	c0.6-1.3,1.3-2.5,1.9-3.8c0.2-0.4,0.8-0.6,1.3-0.8c1.9-0.4,3,0.4,3.8,2.3c1.3,3.2,3,6.1,4.4,9.3c0.2-0.6,0.2-0.8,0.2-1.3
	c0-4.8,0-9.5,0-14.4c0-0.8,0.2-1.3,1.3-1.3s2.1,0,3.2,0c0.8,0,1.3,0.2,1.3,1c0,2.7,0,5.7,0,8.5c0,5.7,0,11.4,0,17.1
	c0,1.3-0.4,1.5-1.7,1.5c-3.8,0-3.8,0-5.7-3.4c-1.9-3.6-3.8-7.4-5.7-11C116.9,16.5,116.7,16.3,116.5,15.8z"/>
<path class="st1" d="M247.5,20.1c0-5.5,0-10.6,0-15.7c0-1.7,0-1.7,1.7-1.7c1,0,2.3,0,3.4,0c0,0,0.2,0,0.4,0c0,9.3,0,18.8,0,28.4
	c-1.5,0-2.7,0-4.2,0c-0.4,0-0.8-0.4-1-0.8c-3.2-5.1-6.4-9.9-9.5-15c-0.2-0.4-0.4-0.6-0.8-1.3c0,3,0,5.7,0,8.2s0,5.1,0,7.4
	c0,1-0.2,1.5-1.5,1.3c-0.8,0-1.9,0-3,0c-1.3,0.2-1.3-0.4-1.3-1.5c0-8.1,0-16.1,0-24.2c0-3,0-3,3-3c1.3,0,2.1,0,2.7,1.3
	c3,5.1,6.1,9.9,9.3,15C246.9,19.5,247.1,19.6,247.5,20.1z"/>
<path class="st1" d="M181.7,16.9c0-4.2,0-8.5,0-12.7c0-1,0.2-1.5,1.5-1.5c3.6,0.2,7.2,0,10.8,0.2c5.3,0.4,8.1,4,8.5,8.7
	c0.4,3.6,0.4,7.2,0,10.6c-0.6,5.7-3.8,8.7-9.9,8.9c-3.2,0.2-6.5,0-9.7,0c-1,0-1-0.4-1-1.3C181.7,25.6,181.7,21.3,181.7,16.9z
	 M187.6,7.6c0,6.1,0,12.1,0,18c0,0.2,0.6,0.6,0.8,0.6c1.5,0,3,0,4.4-0.2c1.7-0.2,3-1.3,3.4-3c1-4,0.8-8.1,0.2-12.1
	c-0.2-1.5-1-3-2.7-3.2C191.8,7.6,189.7,7.8,187.6,7.6z"/>
<path class="st1" d="M225.5,31.1c-3,0-3,0-3.8-2.7c-0.8-2.5-0.8-2.5-3.6-2.5c-1.9,0-3.6,0-5.5,0c-0.8,0-1.3,0.2-1.5,1
	c-0.2,1-0.8,2.1-1,3.2c-0.2,0.8-0.8,1-1.5,1c-1.3,0-2.7,0-4,0c-0.8,0-0.8-0.2-0.6-1c1.3-3.8,2.5-7.6,4-11.2c1.7-5.1,3.6-9.9,5.3-15
	c0.2-0.8,0.8-1.3,1.7-1c0.8,0,1.9,0,2.7,0c1.3-0.2,1.7,0.4,2.1,1.5c2.3,7.2,4.8,14.2,7.4,21.2c0.4,1.5,1,3,1.5,4.4
	c0.4,1,0,1.3-0.8,1.3C227,31.1,226.3,31.1,225.5,31.1z M219.3,20.7c-1-3.2-1.9-6.1-3-9.1c-0.2,0-0.2,0-0.4,0c-1,3-1.9,6.1-3,9.3
	C215.3,20.7,217.2,20.7,219.3,20.7z"/>
<path class="st1" d="M132.5,31.1c0.2-0.4,0.2-0.8,0.2-1c3-8.7,6.1-17.4,9.1-26c0.2-0.8,0.6-1.3,1.7-1c0.4,0,0.8,0,1.5,0
	c3,0,3,0,4,2.7c2.7,8.1,5.5,16.1,8.5,24.2c0.4,1.5,0.4,1.5-1,1.5c-1,0-2.3,0-3.4,0c-0.8,0-1.3-0.2-1.5-1c-0.2-1.3-0.6-2.3-1-3.4
	c-0.2-0.6-0.4-0.8-1.3-0.8c-2.5,0-5.1,0-7.4,0c-0.6,0-1,0.2-1.3,0.8c-0.4,1.3-0.8,2.5-1.3,3.6c-0.2,0.4-0.6,0.6-1,0.6
	C136.1,31.3,134.4,31.1,132.5,31.1z M148.2,20.9c-1-3.2-1.9-6.1-3-9.3c-0.2,0-0.2,0-0.4,0c-1,3-1.9,6.1-3,9.3
	C144,20.9,145.9,20.9,148.2,20.9z"/>
<path class="st1" d="M170,7.6c-0.8,0-1.5,0-2.1,0c-2.7,0-5.5,0-8.1,0c-0.8,0-1.3-0.2-1-1.3c0-0.8,0-1.7,0-2.5s0.2-1.3,1.3-1.3
	c5.5,0,11,0,16.3,0c1,0,1.3,0.4,1.3,1.3c0.4,3-1.5,5.1-2.7,7.2c-2.5,4.7-5.3,9.3-8.1,14c-0.2,0.2-0.2,0.6-0.4,1c3.8,0,7.6,0,11.4,0
	c0,1.7,0,3.2,0,4.8c-1.3,0-2.5,0-3.8,0c-4.7,0-9.1,0-13.7,0c-1,0-1.3-0.2-1.5-1.5c-0.4-2.5,1.3-4.4,2.3-6.4c3-5.1,5.9-9.9,8.9-15
	C169.8,8.2,170,8.2,170,7.6z"/>
</svg>
