<?xml version="1.0" encoding="utf-8"?>
<!-- Generator: Adobe Illustrator 24.1.2, SVG Export Plug-In . SVG Version: 6.00 Build 0)  -->
<svg version="1.1" id="Layer_1" xmlns="http://www.w3.org/2000/svg" xmlns:xlink="http://www.w3.org/1999/xlink" x="0px" y="0px"
	 viewBox="0 0 204.5 141.4" style="enable-background:new 0 0 204.5 141.4;" xml:space="preserve">
<style type="text/css">
	.st0{fill:#FFFFFF;}
</style>
<g id="XMLID_16_">
	<g id="XMLID_3_">
		<g id="XMLID_134_">
			<path id="XMLID_145_" class="st0" d="M74.7,55.3l-3.7,7c-4.2-2.2-7.9-3.5-10.8-3.5c-2,0-3.3,0.7-3.3,2.4c0,4.6,18,2.4,18,14.3
				c0,7-6.1,11-14.5,11c-5.7,0-11.2-1.8-15.4-4.8l3.5-7c4,2.6,8.3,4.2,12.1,4.2c2.2,0,3.7-0.7,3.7-2.4c0-5-17.8-2.4-17.6-14.5
				c0-7,5.9-10.8,13.8-10.8C65.7,51.6,70.5,52.9,74.7,55.3z"/>
			<path id="XMLID_142_" class="st0" d="M111.2,63.9v22.4h-10.8v-4c-2.2,2.9-5.9,4.4-10.5,4.4c-7.2,0-11.6-4.4-11.6-10.8
				s4.6-10.3,13.2-10.3h9v-0.4c0-3.3-2.2-5.5-6.6-5.5c-2.9,0-6.6,1.1-10.3,2.9l-3.1-7.2c5.3-2.4,10.1-4,15.8-4
				C105.7,51.6,111.2,56.2,111.2,63.9z M100.4,74.6v-3.1h-6.8c-3.3,0-5,1.1-5,3.7c0,2.4,1.8,4.2,4.8,4.2
				C96.9,79.2,99.7,77.5,100.4,74.6z"/>
			<path id="XMLID_140_" class="st0" d="M119.3,86.3V39.1h11v47h-11V86.3z"/>
			<path id="XMLID_138_" class="st0" d="M165.8,55.3l-3.7,7c-4.2-2.2-7.9-3.5-10.8-3.5c-2,0-3.3,0.7-3.3,2.4c0,4.6,18,2.4,18,14.3
				c0,7-6.1,11-14.5,11c-5.7,0-11.2-1.8-15.4-4.8l3.5-7c4,2.6,8.3,4.2,12.1,4.2c2.2,0,3.7-0.7,3.7-2.4c0-5-17.8-2.4-17.6-14.5
				c0-7,5.9-10.8,13.8-10.8C156.6,51.6,161.4,52.9,165.8,55.3z"/>
			<path id="XMLID_135_" class="st0" d="M202.3,63.9v22.4h-10.8v-4c-2.2,2.9-5.9,4.4-10.5,4.4c-7.2,0-11.6-4.4-11.6-10.8
				s4.6-10.3,13.2-10.3h9v-0.4c0-3.3-2.2-5.5-6.6-5.5c-2.9,0-6.6,1.1-10.3,2.9l-3.1-7.2c5.3-2.4,10.1-4,15.8-4
				C196.6,51.6,202.1,56.2,202.3,63.9z M191.3,74.6v-3.1h-6.8c-3.3,0-5,1.1-5,3.7c0,2.4,1.8,4.2,4.8,4.2
				C187.8,79.2,190.6,77.5,191.3,74.6z"/>
		</g>
	</g>
	<g id="XMLID_2_">
		<g id="XMLID_211_">
			<path id="XMLID_231_" class="st0" d="M101.7,95.1v7.9h-3.1v-7.9h-3.1v-2.4h9.2v2.4H101.7z"/>
			<path id="XMLID_229_" class="st0" d="M108.7,95.1v1.5h4.8V99h-4.8v1.8h5.5v2.4h-8.7V92.6h8.6v2.5H108.7L108.7,95.1z"/>
			<path id="XMLID_227_" class="st0" d="M125.2,94.4l-1.8,2.2c-0.7-0.9-1.5-1.3-2.4-1.3c-1.3,0-2.4,1.1-2.4,2.6s1.1,2.6,2.4,2.6
				c0.9,0,1.8-0.4,2.4-1.1l1.8,2c-1.1,1.3-2.9,2-4.4,2c-3.1,0-5.5-2.2-5.5-5.5c0-3.1,2.4-5.3,5.7-5.3
				C122.6,92.6,124.1,93.3,125.2,94.4z"/>
			<path id="XMLID_225_" class="st0" d="M133.1,103.2v-4h-3.7v4h-3.1V92.6h3.1v4.2h3.7v-4.2h3.1v10.5L133.1,103.2L133.1,103.2z"/>
			<path id="XMLID_223_" class="st0" d="M145.2,103.2l-4.4-5.7v5.7h-2.9V92.6h2.6l4.4,5.9v-5.9h2.9v10.5L145.2,103.2L145.2,103.2z"
				/>
			<path id="XMLID_220_" class="st0" d="M160.3,97.9c0,3.1-2.4,5.3-5.7,5.3s-5.7-2.2-5.7-5.3s2.4-5.3,5.7-5.3
				C157.9,92.6,160.3,94.8,160.3,97.9z M152.2,97.9c0,1.5,1.1,2.9,2.6,2.9c1.3,0,2.4-1.1,2.4-2.9c0-1.5-1.1-2.6-2.4-2.6
				C153.3,95.1,152.2,96.4,152.2,97.9z"/>
			<path id="XMLID_218_" class="st0" d="M169.1,100.5v2.6h-7.5V92.6h3.1v7.9H169.1L169.1,100.5z"/>
			<path id="XMLID_215_" class="st0" d="M181,97.9c0,3.1-2.4,5.3-5.7,5.3s-5.7-2.2-5.7-5.3s2.4-5.3,5.7-5.3S181,94.8,181,97.9z
				 M172.6,97.9c0,1.5,1.1,2.9,2.6,2.9c1.3,0,2.4-1.1,2.4-2.9c0-1.5-1.1-2.6-2.4-2.6C174,95.1,172.6,96.4,172.6,97.9z"/>
			<path id="XMLID_213_" class="st0" d="M199,103.2h-3.1v-3.3l-4-7.2h3.1l2.2,4.2l2.2-4.2h3.1l-3.7,7.2v3.3H199z"/>
			<path id="XMLID_212_" class="st0" d="M187.1,99.2h1.8v1.1c-0.7,0.2-1.1,0.4-1.5,0.4c-1.5,0-2.6-1.1-2.6-2.9
				c0-1.5,1.1-2.6,2.6-2.6c0.9,0,2,0.4,2.6,1.1l1.8-2.2c-1.1-0.9-2.9-1.5-4.4-1.5c-3.3,0-5.9,2.2-5.9,5.3s2.4,5.3,5.7,5.3
				c1.5,0,3.3-0.7,4.4-1.3v-2.6v-1.5v-0.7h-4.4L187.1,99.2L187.1,99.2z"/>
		</g>
	</g>
	<polygon id="XMLID_39_" class="st0" points="131.6,27.6 131.6,3.5 3.8,3.5 3.8,139.4 131.6,139.4 131.6,115.3 119.3,115.3 
		119.3,127.1 16.3,127.1 16.3,15.8 119.3,15.8 119.3,27.6 	"/>
</g>
</svg>
