<?xml version="1.0" encoding="utf-8"?>
<!-- Generator: Adobe Illustrator 26.1.0, SVG Export Plug-In . SVG Version: 6.00 Build 0)  -->
<svg version="1.1" id="Layer_1" xmlns="http://www.w3.org/2000/svg" xmlns:xlink="http://www.w3.org/1999/xlink" x="0px" y="0px"
	 viewBox="0 0 358.8 60.6" style="enable-background:new 0 0 358.8 60.6;" xml:space="preserve">
<g>
	<g>
		<defs>
			<rect id="SVGID_1_" x="3.6" y="1.8" width="209.9" height="56.8"/>
		</defs>
		<clipPath id="SVGID_00000157272514507106005630000009572815973836808124_">
			<use xlink:href="#SVGID_1_"  style="overflow:visible;"/>
		</clipPath>
		<g style="clip-path:url(#SVGID_00000157272514507106005630000009572815973836808124_);">
			<g>
				<defs>
					<rect id="SVGID_00000136397988062998516820000010760254329892825229_" x="3.6" y="1.8" width="209.9" height="56.8"/>
				</defs>
				<clipPath id="SVGID_00000075142153379017522420000014267571184811875764_">
					<use xlink:href="#SVGID_00000136397988062998516820000010760254329892825229_"  style="overflow:visible;"/>
				</clipPath>
				<path style="clip-path:url(#SVGID_00000075142153379017522420000014267571184811875764_);fill:#FFFFFF;" d="M14.2,44.2
					c0-0.1-0.1-0.1-0.2-0.1h-2.1c-0.1,0-0.1,0-0.2,0.1L3.6,58.3c0,0.1,0,0.1,0,0.2c0,0.1,0.1,0.1,0.2,0.1H6c0.1,0,0.1,0,0.2-0.1
					c0,0,1.4-2.3,1.5-2.5h10.8c0.1,0.2,1.5,2.5,1.5,2.5c0,0.1,0.1,0.1,0.2,0.1h2.2c0.1,0,0.1,0,0.2-0.1c0-0.1,0-0.1,0-0.2L14.2,44.2
					z M17.1,53.7H8.9c0.3-0.5,3.8-6.6,4.1-7.1C13.3,47.1,16.8,53.2,17.1,53.7"/>
			</g>
			<g>
				<defs>
					<rect id="SVGID_00000138569808164996599710000004677779913535928974_" x="3.6" y="1.8" width="209.9" height="56.8"/>
				</defs>
				<clipPath id="SVGID_00000129922994074058919210000014475074421928135080_">
					<use xlink:href="#SVGID_00000138569808164996599710000004677779913535928974_"  style="overflow:visible;"/>
				</clipPath>
				<path style="clip-path:url(#SVGID_00000129922994074058919210000014475074421928135080_);fill:#FFFFFF;" d="M36.9,44.6
					c-1.2-0.4-3-0.5-5.3-0.5h-7.4c-0.1,0-0.2,0.1-0.2,0.2v14.1c0,0.1,0.1,0.2,0.2,0.2H26c0.1,0,0.2-0.1,0.2-0.2v-5.9h5.3
					c2.3,0,4.1-0.2,5.3-0.5c2.2-0.6,3.3-1.8,3.3-3.7C40.1,46.5,39,45.2,36.9,44.6 M37.9,48.3c0,1.3-1.9,1.9-5.6,1.9h-6v-3.8h5.9
					c2,0,3.4,0.2,4.4,0.5C37.4,47.2,37.9,47.7,37.9,48.3"/>
			</g>
			<g>
				<defs>
					<rect id="SVGID_00000126285550732489595680000013979527713639091389_" x="3.6" y="1.8" width="209.9" height="56.8"/>
				</defs>
				<clipPath id="SVGID_00000163055771261692692890000011506600478189658251_">
					<use xlink:href="#SVGID_00000126285550732489595680000013979527713639091389_"  style="overflow:visible;"/>
				</clipPath>
				<path style="clip-path:url(#SVGID_00000163055771261692692890000011506600478189658251_);fill:#FFFFFF;" d="M56.7,45.5
					c-1.5-1-3.6-1.5-6.3-1.5c-2.7,0-4.9,0.5-6.3,1.5c-1.8,1.2-2.6,3.1-2.6,5.8c0,2.6,0.9,4.6,2.6,5.8c1.5,0.9,3.6,1.4,6.3,1.4
					c2.7,0,4.9-0.5,6.3-1.4c1.8-1.2,2.6-3.1,2.6-5.8C59.3,48.7,58.4,46.7,56.7,45.5 M55.1,55.4c-1,0.6-2.6,0.9-4.7,0.9
					c-2.2,0-3.8-0.3-4.8-0.9c-1.3-0.7-1.9-2.1-1.9-4.1c0-2,0.7-3.4,1.9-4.1c1-0.6,2.6-0.9,4.8-0.9c2.1,0,3.7,0.3,4.7,0.9
					c1.3,0.8,2,2.1,2,4.1C57,53.3,56.4,54.7,55.1,55.4"/>
			</g>
			<g>
				<defs>
					<rect id="SVGID_00000147913453271437730510000001725576579004016799_" x="3.6" y="1.8" width="209.9" height="56.8"/>
				</defs>
				<clipPath id="SVGID_00000026121736122685600410000009458604774057047457_">
					<use xlink:href="#SVGID_00000147913453271437730510000001725576579004016799_"  style="overflow:visible;"/>
				</clipPath>
				<path style="clip-path:url(#SVGID_00000026121736122685600410000009458604774057047457_);fill:#FFFFFF;" d="M75.7,56.3h-12v-12
					c0-0.1-0.1-0.2-0.2-0.2h-1.9c-0.1,0-0.2,0.1-0.2,0.2v14.1c0,0.1,0.1,0.2,0.2,0.2h14.1c0.1,0,0.2-0.1,0.2-0.2v-1.9
					C75.9,56.4,75.8,56.3,75.7,56.3"/>
			</g>
			<g>
				<defs>
					<rect id="SVGID_00000029749999814468028090000017978991171967515051_" x="3.6" y="1.8" width="209.9" height="56.8"/>
				</defs>
				<clipPath id="SVGID_00000125574146804378487310000005941775620694739632_">
					<use xlink:href="#SVGID_00000029749999814468028090000017978991171967515051_"  style="overflow:visible;"/>
				</clipPath>
				<path style="clip-path:url(#SVGID_00000125574146804378487310000005941775620694739632_);fill:#FFFFFF;" d="M91.8,56.3h-12v-12
					c0-0.1-0.1-0.2-0.2-0.2h-1.9c-0.1,0-0.2,0.1-0.2,0.2v14.1c0,0.1,0.1,0.2,0.2,0.2h14.1c0.1,0,0.2-0.1,0.2-0.2v-1.9
					C92,56.4,91.9,56.3,91.8,56.3"/>
			</g>
			<g>
				<defs>
					<rect id="SVGID_00000046297671905256627550000006097462035889020346_" x="3.6" y="1.8" width="209.9" height="56.8"/>
				</defs>
				<clipPath id="SVGID_00000160151517642927702660000010641765213973140103_">
					<use xlink:href="#SVGID_00000046297671905256627550000006097462035889020346_"  style="overflow:visible;"/>
				</clipPath>
				<path style="clip-path:url(#SVGID_00000160151517642927702660000010641765213973140103_);fill:#FFFFFF;" d="M107.2,45.5
					c-1.5-1-3.6-1.5-6.3-1.5c-2.7,0-4.9,0.5-6.3,1.5c-1.8,1.2-2.6,3.1-2.6,5.8c0,2.6,0.9,4.6,2.6,5.8c1.5,0.9,3.6,1.4,6.3,1.4
					c2.7,0,4.9-0.5,6.3-1.4c1.8-1.2,2.6-3.1,2.6-5.8C109.9,48.7,109,46.7,107.2,45.5 M105.6,55.4c-1,0.6-2.6,0.9-4.7,0.9
					c-2.2,0-3.8-0.3-4.8-0.9c-1.3-0.7-1.9-2.1-1.9-4.1c0-2,0.7-3.4,1.9-4.1c1-0.6,2.6-0.9,4.8-0.9c2.2,0,3.7,0.3,4.7,0.9
					c1.3,0.8,2,2.1,2,4.1C107.6,53.3,106.9,54.7,105.6,55.4"/>
			</g>
			<g>
				<defs>
					<rect id="SVGID_00000123427140746924549660000010515183186249362058_" x="3.6" y="1.8" width="209.9" height="56.8"/>
				</defs>
				<clipPath id="SVGID_00000130648328728160388030000009184283057467574703_">
					<use xlink:href="#SVGID_00000123427140746924549660000010515183186249362058_"  style="overflow:visible;"/>
				</clipPath>
				<path style="clip-path:url(#SVGID_00000130648328728160388030000009184283057467574703_);fill:#E4E9F2;" d="M136.7,50.2h-8.1
					c-0.1,0-0.2,0.1-0.2,0.2v1.9c0,0.1,0.1,0.2,0.2,0.2h6v2c-0.6,0.8-1.5,1.3-2.6,1.6c-0.4,0.1-0.9,0.2-1.4,0.2
					c-0.5,0-1.2,0.1-1.8,0.1c-2.1,0-3.7-0.3-4.8-0.9c-1.3-0.7-1.9-2.1-1.9-4.1c0-2,0.7-3.3,1.9-4.1c1-0.6,2.6-0.9,4.8-0.9
					c1.5,0,2.6,0.1,3.4,0.3c1.2,0.3,2.1,0.9,2.7,1.8c0,0.1,0.1,0.1,0.2,0.1l1.7-0.8c0,0,0.1-0.1,0.1-0.1c0,0,0-0.1,0-0.1
					c-1.3-2.3-4-3.4-8.1-3.4c-2.7,0-4.9,0.5-6.3,1.5c-1.8,1.2-2.6,3.1-2.6,5.8c0,2.6,0.9,4.6,2.6,5.8c1.5,1,3.6,1.4,6.3,1.4
					c2.4,0,4.4-0.4,5.9-1.2v1c0,0.1,0.1,0.2,0.2,0.2h1.9c0.1,0,0.2-0.1,0.2-0.2v-8C136.9,50.3,136.8,50.2,136.7,50.2"/>
			</g>
			<g>
				<defs>
					<rect id="SVGID_00000121246122020082898330000013672294277028797629_" x="3.6" y="1.8" width="209.9" height="56.8"/>
				</defs>
				<clipPath id="SVGID_00000168080193954395930760000005437912037861981356_">
					<use xlink:href="#SVGID_00000121246122020082898330000013672294277028797629_"  style="overflow:visible;"/>
				</clipPath>
				<path style="clip-path:url(#SVGID_00000168080193954395930760000005437912037861981356_);fill:#E4E9F2;" d="M156.8,58.3
					l-8.1-14.1c0-0.1-0.1-0.1-0.2-0.1h-2.1c-0.1,0-0.1,0-0.2,0.1l-8.1,14.1c0,0.1,0,0.1,0,0.2c0,0.1,0.1,0.1,0.2,0.1h2.2
					c0.1,0,0.1,0,0.2-0.1c0,0,1.4-2.3,1.5-2.5h10.8c0.1,0.2,1.5,2.5,1.5,2.5c0,0.1,0.1,0.1,0.1,0.1h2.2c0.1,0,0.1,0,0.2-0.1
					C156.8,58.4,156.8,58.3,156.8,58.3 M151.5,53.7h-8.2c0.3-0.5,3.8-6.6,4.1-7.1C147.7,47.1,151.2,53.2,151.5,53.7"/>
			</g>
			<g>
				<defs>
					<rect id="SVGID_00000126304310458466466310000003245606230481184934_" x="3.6" y="1.8" width="209.9" height="56.8"/>
				</defs>
				<clipPath id="SVGID_00000052817055795893308550000006232680281996426391_">
					<use xlink:href="#SVGID_00000126304310458466466310000003245606230481184934_"  style="overflow:visible;"/>
				</clipPath>
				<path style="clip-path:url(#SVGID_00000052817055795893308550000006232680281996426391_);fill:#E4E9F2;" d="M175.9,44.1H174
					c-0.1,0-0.1,0-0.2,0.1c0,0-6.5,11.3-6.8,11.8c-0.3-0.5-6.8-11.8-6.8-11.8c0-0.1-0.1-0.1-0.2-0.1h-1.9c-0.1,0-0.2,0.1-0.2,0.2
					v14.1c0,0.1,0.1,0.2,0.2,0.2h1.9c0.1,0,0.2-0.1,0.2-0.2v-9.5c0.6,1,5.6,9.6,5.6,9.6c0,0.1,0.1,0.1,0.2,0.1h2.1
					c0.1,0,0.1,0,0.2-0.1c0,0,5-8.6,5.6-9.6v9.5c0,0.1,0.1,0.2,0.2,0.2h1.9c0.1,0,0.2-0.1,0.2-0.2V44.3
					C176,44.2,176,44.1,175.9,44.1"/>
			</g>
			<g>
				<defs>
					<rect id="SVGID_00000127765950195040456330000008669745342052041375_" x="3.6" y="1.8" width="209.9" height="56.8"/>
				</defs>
				<clipPath id="SVGID_00000135650217211157549470000005252731355372697520_">
					<use xlink:href="#SVGID_00000127765950195040456330000008669745342052041375_"  style="overflow:visible;"/>
				</clipPath>
				<path style="clip-path:url(#SVGID_00000135650217211157549470000005252731355372697520_);fill:#E4E9F2;" d="M193.3,46.4
					c0.1,0,0.2-0.1,0.2-0.2v-1.9c0-0.1-0.1-0.2-0.2-0.2h-14.1c-0.1,0-0.2,0.1-0.2,0.2v14.1c0,0.1,0.1,0.2,0.2,0.2h14.1
					c0.1,0,0.2-0.1,0.2-0.2v-1.9c0-0.1-0.1-0.2-0.2-0.2h-12v-3.8h12c0.1,0,0.2-0.1,0.2-0.2v-1.9c0-0.1-0.1-0.2-0.2-0.2h-12v-3.8
					L193.3,46.4L193.3,46.4z"/>
			</g>
			<g>
				<defs>
					<rect id="SVGID_00000044176871926083320700000008869255015217003152_" x="3.6" y="1.8" width="209.9" height="56.8"/>
				</defs>
				<clipPath id="SVGID_00000027581347460493218280000005471016196433465734_">
					<use xlink:href="#SVGID_00000044176871926083320700000008869255015217003152_"  style="overflow:visible;"/>
				</clipPath>
				<path style="clip-path:url(#SVGID_00000027581347460493218280000005471016196433465734_);fill:#E4E9F2;" d="M210.2,50.7
					c-1.2-0.4-3-0.5-5.3-0.5l-2.5,0c-0.7,0-1.2-0.1-1.6-0.1c-1.9-0.3-2.9-0.9-2.9-1.7c0-1.3,2.1-1.9,6.1-1.9l2.5,0
					c0.7,0,1.2,0.1,1.6,0.1c1.8,0.2,2.9,0.7,3.2,1.5c0,0.1,0.1,0.1,0.2,0.1l1.9-0.5c0,0,0.1,0,0.1-0.1c0,0,0-0.1,0-0.1
					c-0.4-1.5-1.7-2.4-3.8-2.9c-1.1-0.2-2.8-0.4-5-0.4c-2.5,0-4.3,0.2-5.5,0.5c-2.3,0.6-3.5,1.9-3.5,3.7c0,1.8,1.1,3,3.2,3.6
					c1.2,0.4,3,0.5,5.2,0.5l2.6,0c0.7,0,1.2,0.1,1.6,0.1c2,0.3,3,0.9,3,1.8c0,1.3-2,1.9-6.1,1.9l-2.4,0c-0.7,0-1.2-0.1-1.6-0.1
					c-1.8-0.2-2.9-0.7-3.2-1.4c0-0.1-0.1-0.1-0.2-0.1l-1.9,0.5c0,0-0.1,0-0.1,0.1c0,0,0,0.1,0,0.1c0.4,1.4,1.7,2.4,3.8,2.8
					c1.1,0.2,2.8,0.3,5,0.3c2.5,0,4.3-0.2,5.5-0.5c2.3-0.6,3.5-1.9,3.5-3.7C213.5,52.6,212.4,51.3,210.2,50.7"/>
			</g>
		</g>
	</g>
	<g>
		<defs>
			<rect id="SVGID_00000123435082707563974190000017848651993781605253_" x="3.6" y="1.8" width="209.9" height="56.8"/>
		</defs>
		<clipPath id="SVGID_00000131358778453372589110000000484209436104870276_">
			<use xlink:href="#SVGID_00000123435082707563974190000017848651993781605253_"  style="overflow:visible;"/>
		</clipPath>
		<g style="clip-path:url(#SVGID_00000131358778453372589110000000484209436104870276_);">
			<g>
				<defs>
					<path id="SVGID_00000090282661287854034700000013859149330130934437_" d="M114.5,31.5C114.5,31.5,114.5,31.5,114.5,31.5
						L114.5,31.5z M115.3,31.5c0,0,0.6-0.4,6.1,4.4c5.5,4.9,7.2,6.2,7.2,6.2s-1-1.1-6.3-7.1c-4.4-4.9-4.6-5.9-4.5-6L115.3,31.5z
						 M107.6,35.2c-4.9,5.5-6.2,7.2-6.2,7.2s1.1-1,7-6.4c4.9-4.4,5.8-4.6,6-4.6L112,29C112,29,112.4,29.7,107.6,35.2 M115.2,26.2
						L115.2,26.2C115.1,26.1,115.1,26.2,115.2,26.2 M107.5,22.5c4.4,4.9,4.6,5.9,4.6,6l2.4-2.4c0,0-0.6,0.4-6.2-4.4
						c-5.5-4.9-7.2-6.2-7.2-6.2S102.1,16.5,107.5,22.5 M121.2,21.6c-4.9,4.4-5.8,4.6-6,4.6l2.4,2.4c0,0-0.4-0.6,4.4-6.2
						c4.9-5.5,6.2-7.2,6.2-7.2S127.1,16.2,121.2,21.6"/>
				</defs>
				<clipPath id="SVGID_00000125580144684887444600000004138217549854067347_">
					<use xlink:href="#SVGID_00000090282661287854034700000013859149330130934437_"  style="overflow:visible;"/>
				</clipPath>
				
					<linearGradient id="SVGID_00000168085463616150863160000016732200903232756637_" gradientUnits="userSpaceOnUse" x1="-1231.0487" y1="936.035" x2="-1230.9381" y2="936.035" gradientTransform="matrix(70.8715 167.9997 -167.9997 70.8715 244612.1094 140500.1875)">
					<stop  offset="0" style="stop-color:#FAB430"/>
					<stop  offset="0.4551" style="stop-color:#E78E07"/>
					<stop  offset="1" style="stop-color:#E58205"/>
				</linearGradient>
				
					<polygon style="clip-path:url(#SVGID_00000125580144684887444600000004138217549854067347_);fill:url(#SVGID_00000168085463616150863160000016732200903232756637_);" points="
					124.5,5.4 138.3,38.3 105.3,52.2 91.4,19.3 				"/>
			</g>
		</g>
	</g>
	<g>
		<defs>
			<rect id="SVGID_00000160888808863329524440000015301581294027326390_" x="3.6" y="1.8" width="209.9" height="56.8"/>
		</defs>
		<clipPath id="SVGID_00000014612900448274191700000011149461504040475528_">
			<use xlink:href="#SVGID_00000160888808863329524440000015301581294027326390_"  style="overflow:visible;"/>
		</clipPath>
		<g style="clip-path:url(#SVGID_00000014612900448274191700000011149461504040475528_);">
			<g>
				<defs>
					<path id="SVGID_00000170984178846432987240000002966196720486087068_" d="M115.8,31.4c1,0.4,3,2,5.8,4.4
						c1.6,1.4,2.9,2.6,3.9,3.4c-0.9-1-2-2.3-3.5-3.9c-3.1-3.4-4.1-5-4.5-5.7L115.8,31.4z M107.8,35.4c-1.4,1.6-2.6,2.9-3.4,3.9
						c1-0.9,2.2-2,3.9-3.5c2.8-2.5,4.7-4,5.7-4.5l-1.7-1.7C111.6,30.9,109.6,33.3,107.8,35.4 M107.7,22.3c3.1,3.4,4.1,5,4.5,5.7
						l1.7-1.7c-1-0.4-3-2-5.8-4.4c-1.6-1.4-2.9-2.6-3.9-3.4C105.1,19.4,106.3,20.6,107.7,22.3 M121.4,21.8c-2.8,2.5-4.7,4-5.7,4.5
						l1.7,1.7c0.5-1.3,2.6-3.7,4.4-5.8c1.4-1.6,2.5-2.9,3.4-3.9C124.3,19.2,123,20.3,121.4,21.8"/>
				</defs>
				<clipPath id="SVGID_00000111872961311951971130000010698800878557786269_">
					<use xlink:href="#SVGID_00000170984178846432987240000002966196720486087068_"  style="overflow:visible;"/>
				</clipPath>
				
					<linearGradient id="SVGID_00000106830567972930492710000001960546470823846062_" gradientUnits="userSpaceOnUse" x1="-1229.1356" y1="936.2466" x2="-1229.025" y2="936.2466" gradientTransform="matrix(55.0444 130.4818 -130.4818 55.0444 189933.0156 108868.6562)">
					<stop  offset="0" style="stop-color:#FAEB48"/>
					<stop  offset="6.430000e-02" style="stop-color:#FCDC33"/>
					<stop  offset="0.1335" style="stop-color:#FCD122"/>
					<stop  offset="0.2049" style="stop-color:#FCC916"/>
					<stop  offset="0.2809" style="stop-color:#FCC711"/>
					<stop  offset="0.6685" style="stop-color:#F39040"/>
					<stop  offset="1" style="stop-color:#ED683C"/>
				</linearGradient>
				
					<polygon style="clip-path:url(#SVGID_00000111872961311951971130000010698800878557786269_);fill:url(#SVGID_00000106830567972930492710000001960546470823846062_);" points="
					122.3,10.7 133.1,36.2 107.5,47 96.7,21.5 				"/>
			</g>
		</g>
	</g>
	<g>
		<defs>
			<rect id="SVGID_00000016063882913984174510000017472457925801396651_" x="3.6" y="1.8" width="209.9" height="56.8"/>
		</defs>
		<clipPath id="SVGID_00000013912099367985450840000005769954702337696646_">
			<use xlink:href="#SVGID_00000016063882913984174510000017472457925801396651_"  style="overflow:visible;"/>
		</clipPath>
		<g style="clip-path:url(#SVGID_00000013912099367985450840000005769954702337696646_);">
			<g>
				<defs>
					<rect id="SVGID_00000134209474630453305930000003254792564065379737_" x="3.6" y="1.8" width="209.9" height="56.8"/>
				</defs>
				<clipPath id="SVGID_00000127757942749931721080000016432079599343741573_">
					<use xlink:href="#SVGID_00000134209474630453305930000003254792564065379737_"  style="overflow:visible;"/>
				</clipPath>
				<g style="opacity:0.29;clip-path:url(#SVGID_00000127757942749931721080000016432079599343741573_);">
					<g>
						<g>
							<defs>
								<rect id="SVGID_00000135691626949317304810000016749142504737733544_" x="110.5" y="29.9" width="3.4" height="3.1"/>
							</defs>
							<clipPath id="SVGID_00000019675079612362543500000004632831796966066310_">
								<use xlink:href="#SVGID_00000135691626949317304810000016749142504737733544_"  style="overflow:visible;"/>
							</clipPath>
							<g style="clip-path:url(#SVGID_00000019675079612362543500000004632831796966066310_);">
								<g>
									<defs>
										<path id="SVGID_00000093885635972608788340000003005581389535611778_" d="M111.8,29.9l-1.3,1.8c0,0,1.2-0.1,1.6,1.2
											l1.9-1.4L111.8,29.9z"/>
									</defs>
									<clipPath id="SVGID_00000031887166010990094750000008866551504151253917_">
										<use xlink:href="#SVGID_00000093885635972608788340000003005581389535611778_"  style="overflow:visible;"/>
									</clipPath>
									
										<linearGradient id="SVGID_00000122701989603848168050000016337457994665698714_" gradientUnits="userSpaceOnUse" x1="-1186.9651" y1="864.2878" x2="-1186.8545" y2="864.2878" gradientTransform="matrix(-8.3011 11.0813 -11.0813 -8.3011 -162.931 20358.2871)">
										<stop  offset="0" style="stop-color:#000000"/>
										<stop  offset="0.1566" style="stop-color:#0D0D0D"/>
										<stop  offset="0.2863" style="stop-color:#292929"/>
										<stop  offset="0.4065" style="stop-color:#424241"/>
										<stop  offset="0.5209" style="stop-color:#5B5B5A"/>
										<stop  offset="0.6313" style="stop-color:#797978"/>
										<stop  offset="0.7386" style="stop-color:#9B9B9A"/>
										<stop  offset="0.8434" style="stop-color:#C1C0C0"/>
										<stop  offset="0.9437" style="stop-color:#E8E8E7"/>
										<stop  offset="1" style="stop-color:#FFFFFF"/>
									</linearGradient>
									
										<polygon style="clip-path:url(#SVGID_00000031887166010990094750000008866551504151253917_);fill:url(#SVGID_00000122701989603848168050000016337457994665698714_);" points="
										115.3,31 112.6,34.6 109,31.9 111.7,28.2 									"/>
								</g>
							</g>
						</g>
					</g>
				</g>
			</g>
			<g>
				<defs>
					<rect id="SVGID_00000131337840421997358870000016051140512455682691_" x="3.6" y="1.8" width="209.9" height="56.8"/>
				</defs>
				<clipPath id="SVGID_00000028316745828748175530000001887893073391844534_">
					<use xlink:href="#SVGID_00000131337840421997358870000016051140512455682691_"  style="overflow:visible;"/>
				</clipPath>
				<g style="opacity:0.29;clip-path:url(#SVGID_00000028316745828748175530000001887893073391844534_);">
					<g>
						<g>
							<defs>
								<rect id="SVGID_00000115510537641509871920000018000071587558252193_" x="110.2" y="24.4" width="3.6" height="3.7"/>
							</defs>
							<clipPath id="SVGID_00000124879481617126912170000012105263902852893098_">
								<use xlink:href="#SVGID_00000115510537641509871920000018000071587558252193_"  style="overflow:visible;"/>
							</clipPath>
							<g style="clip-path:url(#SVGID_00000124879481617126912170000012105263902852893098_);">
								<g>
									<defs>
										<path id="SVGID_00000073682575744922626660000017649699942704337548_" d="M113.7,25.8l-2.2-1.5c0,0,0.3,0.8-1.4,1.2
											L112,28L113.7,25.8z"/>
									</defs>
									<clipPath id="SVGID_00000114754348747138185330000001705611258081876110_">
										<use xlink:href="#SVGID_00000073682575744922626660000017649699942704337548_"  style="overflow:visible;"/>
									</clipPath>
									
										<linearGradient id="SVGID_00000050633201833406445000000001452393979324403122_" gradientUnits="userSpaceOnUse" x1="-1346.8463" y1="883.9175" x2="-1346.7357" y2="883.9175" gradientTransform="matrix(-6.9438 -7.6244 7.6244 -6.9438 -15978.9785 -4104.2529)">
										<stop  offset="0" style="stop-color:#000000"/>
										<stop  offset="0.1566" style="stop-color:#0D0D0D"/>
										<stop  offset="0.2863" style="stop-color:#292929"/>
										<stop  offset="0.4065" style="stop-color:#424241"/>
										<stop  offset="0.5209" style="stop-color:#5B5B5A"/>
										<stop  offset="0.6313" style="stop-color:#797978"/>
										<stop  offset="0.7386" style="stop-color:#9B9B9A"/>
										<stop  offset="0.8434" style="stop-color:#C1C0C0"/>
										<stop  offset="0.9437" style="stop-color:#E8E8E7"/>
										<stop  offset="1" style="stop-color:#FFFFFF"/>
									</linearGradient>
									
										<polygon style="clip-path:url(#SVGID_00000114754348747138185330000001705611258081876110_);fill:url(#SVGID_00000050633201833406445000000001452393979324403122_);" points="
										111.8,29.8 108.3,26 112.1,22.6 115.6,26.4 									"/>
								</g>
							</g>
						</g>
					</g>
				</g>
			</g>
			<g>
				<defs>
					<rect id="SVGID_00000041993513726617246500000017029165618378125205_" x="3.6" y="1.8" width="209.9" height="56.8"/>
				</defs>
				<clipPath id="SVGID_00000051385913869544902750000000755095853438849680_">
					<use xlink:href="#SVGID_00000041993513726617246500000017029165618378125205_"  style="overflow:visible;"/>
				</clipPath>
				<g style="opacity:0.29;clip-path:url(#SVGID_00000051385913869544902750000000755095853438849680_);">
					<g>
						<g>
							<defs>
								<rect id="SVGID_00000097489518578852433210000012223499401201911963_" x="115.8" y="25" width="2.9" height="2.7"/>
							</defs>
							<clipPath id="SVGID_00000145752416286564213820000012466497282653480103_">
								<use xlink:href="#SVGID_00000097489518578852433210000012223499401201911963_"  style="overflow:visible;"/>
							</clipPath>
							<g style="clip-path:url(#SVGID_00000145752416286564213820000012466497282653480103_);">
								<g>
									<defs>
										<path id="SVGID_00000168835324623844037900000008476835312095540660_" d="M118,27.7l0.7-1.2c0,0-1.2-0.1-1.5-1.5l-1.4,1
											L118,27.7z"/>
									</defs>
									<clipPath id="SVGID_00000038405257810629687470000014567945853717693615_">
										<use xlink:href="#SVGID_00000168835324623844037900000008476835312095540660_"  style="overflow:visible;"/>
									</clipPath>
									
										<linearGradient id="SVGID_00000033337395395089740700000009380510651774862751_" gradientUnits="userSpaceOnUse" x1="-1290.8826" y1="1044.2874" x2="-1290.772" y2="1044.2874" gradientTransform="matrix(7.6197 -6.7287 6.7287 7.6197 2926.2664 -16616.4258)">
										<stop  offset="0" style="stop-color:#000000"/>
										<stop  offset="0.1566" style="stop-color:#0D0D0D"/>
										<stop  offset="0.2863" style="stop-color:#292929"/>
										<stop  offset="0.4065" style="stop-color:#424241"/>
										<stop  offset="0.5209" style="stop-color:#5B5B5A"/>
										<stop  offset="0.6313" style="stop-color:#797978"/>
										<stop  offset="0.7386" style="stop-color:#9B9B9A"/>
										<stop  offset="0.8434" style="stop-color:#C1C0C0"/>
										<stop  offset="0.9437" style="stop-color:#E8E8E7"/>
										<stop  offset="1" style="stop-color:#FFFFFF"/>
									</linearGradient>
									
										<polygon style="clip-path:url(#SVGID_00000038405257810629687470000014567945853717693615_);fill:url(#SVGID_00000033337395395089740700000009380510651774862751_);" points="
										114.4,26.2 117.4,23.6 120,26.5 117,29.1 									"/>
								</g>
							</g>
						</g>
					</g>
				</g>
			</g>
			<g>
				<defs>
					<rect id="SVGID_00000152228964844611656010000001381656120167335320_" x="3.6" y="1.8" width="209.9" height="56.8"/>
				</defs>
				<clipPath id="SVGID_00000160890970996981466940000001065992192278877107_">
					<use xlink:href="#SVGID_00000152228964844611656010000001381656120167335320_"  style="overflow:visible;"/>
				</clipPath>
				<g style="opacity:0.29;clip-path:url(#SVGID_00000160890970996981466940000001065992192278877107_);">
					<g>
						<g>
							<defs>
								<rect id="SVGID_00000134930164204038428120000001517924150713709203_" x="116.1" y="29.6" width="3.4" height="3.3"/>
							</defs>
							<clipPath id="SVGID_00000000201811497237292650000011394649585478777249_">
								<use xlink:href="#SVGID_00000134930164204038428120000001517924150713709203_"  style="overflow:visible;"/>
							</clipPath>
							<g style="clip-path:url(#SVGID_00000000201811497237292650000011394649585478777249_);">
								<g>
									<defs>
										<path id="SVGID_00000093171473059747344880000017734577612094954670_" d="M116.1,31.8l1.8,1.2c0,0,0.1-0.8,1.6-1.1
											l-1.7-2.3L116.1,31.8z"/>
									</defs>
									<clipPath id="SVGID_00000092456850511377585970000015031655009470699917_">
										<use xlink:href="#SVGID_00000093171473059747344880000017734577612094954670_"  style="overflow:visible;"/>
									</clipPath>
									
										<linearGradient id="SVGID_00000018923960488007255550000001053420555475820166_" gradientUnits="userSpaceOnUse" x1="-1151.4111" y1="984.8929" x2="-1151.3005" y2="984.8929" gradientTransform="matrix(8.6236 8.3962 -8.3962 8.6236 18315.7578 1204.7377)">
										<stop  offset="0" style="stop-color:#000000"/>
										<stop  offset="0.1566" style="stop-color:#0D0D0D"/>
										<stop  offset="0.2863" style="stop-color:#292929"/>
										<stop  offset="0.4065" style="stop-color:#424241"/>
										<stop  offset="0.5209" style="stop-color:#5B5B5A"/>
										<stop  offset="0.6313" style="stop-color:#797978"/>
										<stop  offset="0.7386" style="stop-color:#9B9B9A"/>
										<stop  offset="0.8434" style="stop-color:#C1C0C0"/>
										<stop  offset="0.9437" style="stop-color:#E8E8E7"/>
										<stop  offset="1" style="stop-color:#FFFFFF"/>
									</linearGradient>
									
										<polygon style="clip-path:url(#SVGID_00000092456850511377585970000015031655009470699917_);fill:url(#SVGID_00000018923960488007255550000001053420555475820166_);" points="
										117.8,27.9 121.2,31.2 117.9,34.6 114.5,31.3 									"/>
								</g>
							</g>
						</g>
					</g>
				</g>
			</g>
		</g>
	</g>
	<g>
		<defs>
			<rect id="SVGID_00000085938533552102011570000013765649336746002332_" x="3.6" y="1.8" width="209.9" height="56.8"/>
		</defs>
		<clipPath id="SVGID_00000111179610146938455250000013625047995191415962_">
			<use xlink:href="#SVGID_00000085938533552102011570000013765649336746002332_"  style="overflow:visible;"/>
		</clipPath>
		<g style="clip-path:url(#SVGID_00000111179610146938455250000013625047995191415962_);">
			<g>
				<defs>
					<path id="SVGID_00000168830629912391153080000012177354536686329476_" d="M114.2,15.1c-0.2,4.2-0.5,7.2-0.7,9.1
						c-0.3,2.4-0.8,3-3.3,3.3c-2,0.3-5.1,0.6-9.1,0.8C93.8,28.8,88,29,88,29s5.2,0.1,13.2,0.5c4.5,0.2,7.6,0.6,9.5,0.8
						c2,0.3,2.5,0.9,2.8,2.8c0,0.1,0.7,5.6,0.9,9.6c0.5,7.4,0.7,13.3,0.7,13.3s0.1-5.2,0.5-13.3c0.3-4.7,0.6-7.9,0.8-9.8
						c0.3-1.8,0.9-2.3,3.2-2.6c2-0.3,5.1-0.6,9.1-0.8c7.3-0.5,13.2-0.7,13.2-0.7s-5.2-0.1-13.2-0.5c-4.5-0.2-7.7-0.6-9.5-0.8
						c-1.9-0.3-2.5-0.9-2.7-2.7c-0.3-2-0.6-5.3-0.9-9.6c-0.5-7.4-0.7-13.3-0.7-13.3S114.7,7,114.2,15.1"/>
				</defs>
				<clipPath id="SVGID_00000101782513611321815690000015762745587435798159_">
					<use xlink:href="#SVGID_00000168830629912391153080000012177354536686329476_"  style="overflow:visible;"/>
				</clipPath>
				
					<linearGradient id="SVGID_00000126321981541478800070000015486807373463715225_" gradientUnits="userSpaceOnUse" x1="-1235.1647" y1="934.5887" x2="-1235.0541" y2="934.5887" gradientTransform="matrix(0 489.4277 -489.4277 0 457528.5 604525.625)">
					<stop  offset="0" style="stop-color:#FAEB48"/>
					<stop  offset="6.430000e-02" style="stop-color:#FCDC33"/>
					<stop  offset="0.1335" style="stop-color:#FCD122"/>
					<stop  offset="0.2049" style="stop-color:#FCC916"/>
					<stop  offset="0.2809" style="stop-color:#FCC711"/>
					<stop  offset="0.6685" style="stop-color:#F39040"/>
					<stop  offset="0.8876" style="stop-color:#ED683C"/>
					<stop  offset="1" style="stop-color:#E83F3B"/>
				</linearGradient>
				
					<rect x="88" y="1.8" style="clip-path:url(#SVGID_00000101782513611321815690000015762745587435798159_);fill:url(#SVGID_00000126321981541478800070000015486807373463715225_);" width="53.9" height="54.1"/>
			</g>
		</g>
	</g>
	<g>
		<defs>
			<rect id="SVGID_00000155110056722533323620000005660296370627307932_" x="3.6" y="1.8" width="209.9" height="56.8"/>
		</defs>
		<clipPath id="SVGID_00000161608897818843219900000005092517882122330530_">
			<use xlink:href="#SVGID_00000155110056722533323620000005660296370627307932_"  style="overflow:visible;"/>
		</clipPath>
		<g style="clip-path:url(#SVGID_00000161608897818843219900000005092517882122330530_);">
			<g>
				<defs>
					<rect id="SVGID_00000137822603596488279220000013650724111365104829_" x="3.6" y="1.8" width="209.9" height="56.8"/>
				</defs>
				<clipPath id="SVGID_00000132083515560043601040000012999354877822856357_">
					<use xlink:href="#SVGID_00000137822603596488279220000013650724111365104829_"  style="overflow:visible;"/>
				</clipPath>
				<path style="clip-path:url(#SVGID_00000132083515560043601040000012999354877822856357_);fill:#A05216;" d="M115,55.9
					c0-0.1-0.2-6-0.7-13.3c-0.3-4.1-0.9-9.5-0.9-9.6c-0.3-1.9-0.8-2.4-2.8-2.7c-1.8-0.2-4.9-0.5-9.5-0.8C93.2,29.1,88,29,88,29l0,0
					c0.1,0,6-0.2,13.2-0.7c4.1-0.3,7.2-0.6,9.1-0.8c1.3-0.2,2-0.4,2.5-0.9c0.5-0.5,0.7-1.3,0.8-2.4c0.3-2.6,0.6-5.7,0.7-9.1
					c0.4-8,0.5-13.2,0.5-13.3l0,0c0,0.1,0.2,6,0.7,13.3c0.3,4.4,0.6,7.6,0.9,9.6c0.3,1.8,0.8,2.4,2.7,2.7c1.8,0.2,5,0.5,9.5,0.8
					c7.9,0.4,13.2,0.5,13.2,0.5l0,0c-0.1,0-6,0.2-13.2,0.7c-4,0.3-7.2,0.6-9.1,0.8c-2.3,0.3-2.9,0.8-3.2,2.6c-0.2,1.8-0.6,5-0.8,9.8
					C115.1,50.5,115.1,55.8,115,55.9L115,55.9z M88.6,29c1.6,0,6.3,0.1,12.6,0.5c4.6,0.2,7.7,0.6,9.5,0.8c1.9,0.3,2.5,0.9,2.8,2.8
					c0,0,0.6,5.5,0.9,9.6c0.4,5.9,0.6,10.9,0.7,12.6c0-1.7,0.1-6.3,0.5-12.6c0.3-4.7,0.6-7.9,0.8-9.8c0.3-1.8,0.9-2.3,3.2-2.6
					c1.9-0.2,5-0.6,9.1-0.8c5.9-0.4,10.8-0.6,12.6-0.7c-1.6,0-6.3-0.1-12.6-0.5c-4.6-0.2-7.7-0.6-9.5-0.8c-1.9-0.3-2.5-0.9-2.8-2.8
					c-0.3-2-0.6-5.2-0.9-9.6c-0.4-5.9-0.6-10.9-0.7-12.6c0,1.7-0.1,6.3-0.5,12.6c-0.2,3.4-0.4,6.5-0.7,9.1c-0.1,1.1-0.3,1.9-0.8,2.4
					c-0.4,0.5-1.1,0.7-2.5,0.9c-1.9,0.2-5,0.6-9.1,0.8C95.3,28.7,90.3,28.9,88.6,29"/>
			</g>
		</g>
	</g>
	<g>
		<defs>
			<rect id="SVGID_00000034084250355881839570000013310159715988379324_" x="3.6" y="1.8" width="209.9" height="56.8"/>
		</defs>
		<clipPath id="SVGID_00000054965210570609290000000014271528528215785375_">
			<use xlink:href="#SVGID_00000034084250355881839570000013310159715988379324_"  style="overflow:visible;"/>
		</clipPath>
		<g style="clip-path:url(#SVGID_00000054965210570609290000000014271528528215785375_);">
			<g>
				<defs>
					<path id="SVGID_00000079474762684089984720000000450250699965898907_" d="M114.5,15.1c-0.2,3.4-0.4,6.5-0.7,9.1
						c-0.3,2.6-0.9,3.2-3.5,3.5c-1.9,0.2-5,0.6-9.1,0.8c-2.1,0.1-4.2,0.3-6,0.4c1.7,0.1,3.7,0.2,6,0.3c4.6,0.2,7.7,0.6,9.5,0.8
						c2.1,0.3,2.7,1,3,3c0,0,0.7,5.6,0.9,9.6c0.1,2.1,0.3,4.2,0.3,6c0.1-1.7,0.2-3.8,0.3-6c0.3-4.7,0.6-7.9,0.8-9.8
						c0.3-1.9,1-2.5,3.4-2.8c1.9-0.2,5-0.6,9.1-0.9c2.1-0.1,4.2-0.3,5.9-0.4c-1.7-0.1-3.7-0.2-6-0.3c-4.6-0.2-7.7-0.6-9.6-0.8
						c-2-0.3-2.7-1-3-3c-0.3-2-0.6-5.2-0.9-9.6c-0.1-2.1-0.3-4.2-0.3-6C114.7,10.8,114.6,12.9,114.5,15.1"/>
				</defs>
				<clipPath id="SVGID_00000089573072264030256800000003549359486478713789_">
					<use xlink:href="#SVGID_00000079474762684089984720000000450250699965898907_"  style="overflow:visible;"/>
				</clipPath>
				
					<linearGradient id="SVGID_00000057830967248952001080000009823333147819261070_" gradientUnits="userSpaceOnUse" x1="-1231.9683" y1="936.6379" x2="-1231.8577" y2="936.6379" gradientTransform="matrix(105.7714 183.509 -183.509 105.7714 302297.75 127026.8281)">
					<stop  offset="0" style="stop-color:#F7EC68"/>
					<stop  offset="0.4551" style="stop-color:#FFD808"/>
					<stop  offset="1" style="stop-color:#F6A119"/>
				</linearGradient>
				
					<polygon style="clip-path:url(#SVGID_00000089573072264030256800000003549359486478713789_);fill:url(#SVGID_00000057830967248952001080000009823333147819261070_);" points="
					124.7,-7.9 151.6,38.7 105,65.5 78.2,18.9 				"/>
			</g>
		</g>
	</g>
	<g>
		<defs>
			<rect id="SVGID_00000052070997105742657290000014506342822164031672_" x="3.6" y="1.8" width="209.9" height="56.8"/>
		</defs>
		<clipPath id="SVGID_00000092447778418361089940000012394108954431043980_">
			<use xlink:href="#SVGID_00000052070997105742657290000014506342822164031672_"  style="overflow:visible;"/>
		</clipPath>
		<g style="clip-path:url(#SVGID_00000092447778418361089940000012394108954431043980_);">
			<g>
				<defs>
					<rect id="SVGID_00000030452019538496735280000003341127056537950377_" x="3.6" y="1.8" width="209.9" height="56.8"/>
				</defs>
				<clipPath id="SVGID_00000057863564292304385320000015311093633036625319_">
					<use xlink:href="#SVGID_00000030452019538496735280000003341127056537950377_"  style="overflow:visible;"/>
				</clipPath>
				<path style="clip-path:url(#SVGID_00000057863564292304385320000015311093633036625319_);fill:#FFFFFF;" d="M96.2,28.9
					c0,0,2.1-0.1,5.3-0.4c1.6-0.1,3.4-0.3,5.4-0.5c1-0.1,2-0.2,3-0.3c0.5-0.1,1-0.1,1.5-0.3c0.3-0.1,0.5-0.1,0.7-0.2
					c0.2-0.1,0.4-0.3,0.6-0.4c0.2-0.2,0.3-0.4,0.4-0.6c0.1-0.2,0.2-0.5,0.2-0.7c0.1-0.5,0.2-1,0.2-1.6c0.1-1,0.2-2.1,0.3-3
					c0.2-2,0.3-3.8,0.4-5.4c0.2-3.2,0.3-5.3,0.3-5.3s-0.1,2.1-0.2,5.3c0,0.8-0.1,1.7-0.1,2.6c-0.1,0.9-0.1,1.9-0.2,2.9
					c-0.1,1-0.2,2-0.3,3.1c-0.1,0.5-0.1,1-0.2,1.6c-0.1,0.3-0.1,0.5-0.2,0.8c-0.1,0.2-0.3,0.5-0.5,0.7c-0.2,0.2-0.4,0.3-0.7,0.5
					c-0.2,0.1-0.5,0.2-0.8,0.3c-0.5,0.1-1,0.2-1.6,0.3c-1,0.1-2.1,0.2-3,0.3c-1,0.1-1.9,0.2-2.9,0.2c-0.9,0.1-1.8,0.1-2.6,0.2
					C98.3,28.8,96.2,28.9,96.2,28.9"/>
			</g>
			<g>
				<defs>
					<rect id="SVGID_00000152983962338054966510000017006282345020610728_" x="3.6" y="1.8" width="209.9" height="56.8"/>
				</defs>
				<clipPath id="SVGID_00000171719495029550731150000012964226493503757975_">
					<use xlink:href="#SVGID_00000152983962338054966510000017006282345020610728_"  style="overflow:visible;"/>
				</clipPath>
				<path style="clip-path:url(#SVGID_00000171719495029550731150000012964226493503757975_);fill:#FFFFFF;" d="M133.6,28.8
					c0,0-2.1,0.1-5.3,0.4c-1.6,0.1-3.4,0.3-5.4,0.5c-1,0.1-2,0.2-3,0.3c-0.5,0.1-1,0.1-1.5,0.3c-0.3,0.1-0.5,0.1-0.7,0.2
					c-0.2,0.1-0.4,0.3-0.6,0.4c-0.2,0.2-0.3,0.4-0.4,0.6c-0.1,0.2-0.2,0.5-0.2,0.7c-0.1,0.5-0.2,1-0.2,1.6c-0.1,1-0.2,2.1-0.3,3
					c-0.2,2-0.3,3.8-0.4,5.4c-0.2,3.2-0.3,5.3-0.3,5.3s0.1-2.1,0.2-5.3c0-0.8,0.1-1.7,0.1-2.6c0.1-0.9,0.1-1.9,0.2-2.9
					c0.1-1,0.2-2,0.3-3.1c0.1-0.5,0.1-1,0.2-1.6c0.1-0.3,0.1-0.5,0.2-0.8c0.1-0.2,0.3-0.5,0.5-0.7c0.2-0.2,0.4-0.3,0.7-0.5
					c0.2-0.1,0.5-0.2,0.8-0.3c0.5-0.1,1-0.2,1.6-0.3c1-0.1,2.1-0.2,3-0.3c1-0.1,1.9-0.2,2.9-0.2c0.9-0.1,1.8-0.1,2.6-0.2
					C131.4,28.9,133.6,28.8,133.6,28.8"/>
			</g>
			<g>
				<defs>
					<rect id="SVGID_00000112620171042443251980000001608908156694499491_" x="3.6" y="1.8" width="209.9" height="56.8"/>
				</defs>
				<clipPath id="SVGID_00000000198395057783819780000007547880294030869644_">
					<use xlink:href="#SVGID_00000112620171042443251980000001608908156694499491_"  style="overflow:visible;"/>
				</clipPath>
				<g style="opacity:0.4;clip-path:url(#SVGID_00000000198395057783819780000007547880294030869644_);">
					<g>
						<g>
							<defs>
								<rect id="SVGID_00000043416469930881594000000002151649871793662593_" x="107.3" y="9.1" width="7.6" height="39.3"/>
							</defs>
							<clipPath id="SVGID_00000121993241779535268410000004283345787173784245_">
								<use xlink:href="#SVGID_00000043416469930881594000000002151649871793662593_"  style="overflow:visible;"/>
							</clipPath>
							<path style="clip-path:url(#SVGID_00000121993241779535268410000004283345787173784245_);fill:#FFFFFF;" d="M114.8,9.1
								l0.2,39.3c0,0-0.5-8.9-1.3-15.9c-0.4-3.4-6.3-4.3-6.3-4.3s2.6-0.3,3.5-0.4c1.6-0.2,2.6-0.7,2.8-2.4
								C114.5,17.6,114.8,9.1,114.8,9.1"/>
						</g>
					</g>
				</g>
			</g>
		</g>
	</g>
</g>
</svg>
