<?xml version="1.0" encoding="utf-8"?>
<!-- Generator: Adobe Illustrator 24.1.2, SVG Export Plug-In . SVG Version: 6.00 Build 0)  -->
<svg version="1.1" id="Layer_1" xmlns="http://www.w3.org/2000/svg" xmlns:xlink="http://www.w3.org/1999/xlink" x="0px" y="0px"
	 viewBox="0 0 257 52.4" style="enable-background:new 0 0 257 52.4;" xml:space="preserve">
<style type="text/css">
	.st0{fill:url(#SVGID_1_);}
	.st1{fill:#FFFFFF;}
</style>
<g id="cIAnt5.tif">
	<g>
		<g>
			
				<linearGradient id="SVGID_1_" gradientUnits="userSpaceOnUse" x1="4.1608" y1="17.2689" x2="52.4883" y2="17.2689" gradientTransform="matrix(1 0 0 -1 0 44.1102)">
				<stop  offset="0" style="stop-color:#00B0CF"/>
				<stop  offset="1" style="stop-color:#B8449D"/>
			</linearGradient>
			<path class="st0" d="M20.3,19.7c3.4,0.2,6.6,0.1,9.9,0.1c4.7,0,9.6-0.1,14.4,0c4.4,0,7.5,2.4,7.7,6.8c0.3,7.5,0.2,15,0.1,22.5
				c0,0.8-1.2,2.2-1.8,2.2c-8.9-0.1-17.7,0.4-26.4-0.8c-8.9-1.2-14.9-7.5-19-15.6c6,3.5,12.7,2.8,19.3,2.8c3.6,0,7.3,0.1,10.9-0.2
				l0.1-3.5c-6.8-0.2-13.7-0.1-20.6-0.2C6.6,33.6,4.2,31.3,4.2,23.3c0-5.7,0.1-11.3-0.1-17c-0.1-2.8,0.8-4,3.8-4
				c6.8,0.2,13.7-0.1,20.6,0c9.4,0.1,19.9,7.7,23.5,17c-9.9-5.2-31.6-3.2-31.7-3.2L20.3,19.7L20.3,19.7z"/>
		</g>
	</g>
</g>
<g>
	<path class="st1" d="M63.9,40.6c-1.5-0.6-2.7-1.4-3.6-2.2l0.7-1.2c0.9,0.9,1.9,1.6,3.4,2.1c1.4,0.5,2.9,0.9,4.4,0.9
		c2.2,0,3.9-0.4,5-1.2s1.7-2,1.7-3.2c0-1-0.2-1.9-0.9-2.5c-0.6-0.6-1.4-1.1-2.2-1.4c-0.9-0.4-2.1-0.6-3.6-1
		c-1.7-0.4-3.1-0.9-4.1-1.2c-1-0.4-1.9-1-2.6-1.9s-1.1-2-1.1-3.4c0-1.1,0.2-2.1,0.9-3.1c0.6-1,1.5-1.7,2.7-2.2s2.7-0.9,4.6-0.9
		c1.2,0,2.5,0.2,3.7,0.6s2.4,0.9,3.2,1.5l-0.6,1.4c-0.9-0.6-2-1.1-3.1-1.5c-1.1-0.4-2.2-0.5-3.4-0.5c-2.1,0-3.7,0.4-4.8,1.2
		c-1.1,0.9-1.6,2-1.6,3.4c0,1,0.2,1.9,0.9,2.5c0.6,0.6,1.4,1.1,2.2,1.4c0.9,0.4,2.1,0.7,3.6,1.1c1.7,0.4,3.1,0.9,4.1,1.2
		c1,0.4,1.9,1,2.6,1.9c0.7,0.7,1.1,1.9,1.1,3.2c0,1.1-0.2,2.1-0.9,3.1c-0.6,0.9-1.5,1.6-2.9,2.2c-1.2,0.5-2.9,0.9-4.6,0.9
		C67,41.5,65.4,41.1,63.9,40.6z"/>
	<path class="st1" d="M95.3,24.9c1.2,0.7,2.4,1.7,3.1,3.1c0.7,1.4,1.1,2.9,1.1,4.6c0,1.7-0.4,3.2-1.1,4.6c-0.7,1.4-1.7,2.4-3.1,3.1
		c-1.2,0.7-2.7,1.1-4.4,1.1c-1.5,0-2.9-0.4-4.1-1.1c-1.2-0.7-2.2-1.7-2.9-3v10.4h-1.6V23.9H84V28c0.7-1.4,1.6-2.4,2.9-3.1
		s2.6-1.1,4.2-1.1C92.6,23.8,94.1,24.2,95.3,24.9z M94.5,39c1.1-0.6,1.9-1.5,2.5-2.6s0.9-2.4,0.9-3.7c0-1.4-0.2-2.7-0.9-3.7
		c-0.6-1.1-1.5-2-2.5-2.6c-1.1-0.6-2.2-0.9-3.6-0.9s-2.5,0.2-3.6,0.9c-1,0.6-1.9,1.5-2.5,2.6c-0.6,1.1-0.9,2.4-0.9,3.7
		c0,1.4,0.2,2.7,0.9,3.7c0.6,1.1,1.5,2,2.5,2.6s2.2,0.9,3.6,0.9C92.2,40,93.3,39.6,94.5,39z"/>
	<path class="st1" d="M104.5,19.3c-0.2-0.2-0.4-0.6-0.4-1s0.1-0.7,0.4-1c0.2-0.2,0.6-0.4,1-0.4c0.4,0,0.7,0.1,1,0.4
		c0.2,0.2,0.4,0.6,0.4,1s-0.1,0.7-0.4,1c-0.2,0.2-0.6,0.4-1,0.4C105.2,19.7,104.8,19.6,104.5,19.3z M104.7,23.9h1.6v17.4h-1.6V23.9z
		"/>
	<path class="st1" d="M126.9,25.7c1.2,1.2,1.9,3.1,1.9,5.5v10.2h-1.6v-9.9c0-2-0.5-3.5-1.5-4.5c-1-1-2.4-1.5-4.1-1.5
		c-2,0-3.6,0.6-4.8,1.9c-1.1,1.2-1.7,2.9-1.7,4.8v9.2h-1.6V23.9h1.6v3.7c0.6-1.2,1.5-2.1,2.6-2.9c1.2-0.7,2.6-1,4.2-1
		C123.9,23.8,125.7,24.4,126.9,25.7z"/>
	<path class="st1" d="M138,40.3c-1.4-0.7-2.4-1.7-3.1-3.1s-1.1-2.9-1.1-4.5c0-1.7,0.4-3.2,1.1-4.5c0.7-1.4,1.7-2.4,3.1-3.1
		c1.4-0.7,2.7-1.1,4.5-1.1c1.7,0,3.1,0.4,4.5,1.1c1.4,0.7,2.4,1.7,3.1,3.1c0.7,1.4,1.1,2.9,1.1,4.5c0,1.7-0.4,3.2-1.1,4.5
		c-0.7,1.4-1.7,2.4-3.1,3.1c-1.4,0.7-2.7,1.1-4.5,1.1C140.7,41.5,139.3,41.1,138,40.3z M146.1,39c1-0.6,1.9-1.5,2.5-2.6
		c0.6-1.1,0.9-2.4,0.9-3.7c0-1.4-0.2-2.7-0.9-3.7c-0.6-1.1-1.5-2-2.5-2.6c-1-0.6-2.2-0.9-3.6-0.9c-1.4,0-2.5,0.2-3.6,0.9
		c-1,0.6-1.9,1.5-2.5,2.6c-0.6,1.1-0.9,2.4-0.9,3.7c0,1.4,0.2,2.7,0.9,3.7c0.6,1.1,1.5,2,2.5,2.6s2.2,0.9,3.6,0.9
		C143.8,40,144.9,39.6,146.1,39z"/>
	<path class="st1" d="M182.8,25.7c1.2,1.2,1.9,3.1,1.9,5.5v10.2h-1.6v-9.9c0-2-0.5-3.5-1.4-4.5c-1-1-2.2-1.5-4-1.5
		c-2,0-3.5,0.6-4.6,1.9c-1.1,1.2-1.7,2.9-1.7,4.8v9.2h-1.6v-9.9c0-2-0.5-3.5-1.4-4.5c-1-1-2.2-1.5-4-1.5c-2,0-3.5,0.6-4.6,1.9
		c-1.1,1.2-1.7,2.9-1.7,4.8v9.2h-1.6V23.9h1.6v3.7c0.6-1.2,1.5-2.1,2.6-2.9c1.1-0.6,2.5-1,4.1-1c1.6,0,2.9,0.4,4,1.1
		c1.1,0.7,1.9,1.7,2.4,3.1c0.6-1.2,1.5-2.2,2.7-3.1c1.2-0.7,2.6-1.1,4.4-1.1C180,23.8,181.6,24.4,182.8,25.7z"/>
	<path class="st1" d="M206.2,33h-14.9c0,1.4,0.4,2.6,1,3.6c0.6,1,1.5,1.9,2.6,2.5c1.1,0.6,2.4,0.9,3.7,0.9c1.1,0,2.1-0.2,3.1-0.6
		c1-0.4,1.7-1,2.4-1.9l1,1.1c-0.7,0.9-1.7,1.6-2.9,2.1c-1.1,0.5-2.4,0.7-3.7,0.7c-1.7,0-3.2-0.4-4.6-1.1c-1.4-0.7-2.4-1.7-3.1-3.1
		c-0.7-1.4-1.1-2.9-1.1-4.6c0-1.7,0.4-3.2,1.1-4.5c0.7-1.4,1.7-2.4,3-3.1s2.7-1.1,4.2-1.1c1.6,0,3,0.4,4.2,1.1s2.2,1.7,3,3.1
		c0.7,1.4,1.1,2.9,1.1,4.5L206.2,33z M194.7,26c-1,0.5-1.7,1.2-2.4,2.2c-0.6,1-0.9,2.1-1,3.4h13.3c-0.1-1.2-0.4-2.4-1-3.4
		c-0.6-1-1.4-1.7-2.4-2.2c-1-0.5-2.1-0.9-3.2-0.9C196.8,25.3,195.7,25.6,194.7,26z"/>
	<path class="st1" d="M225,25.7c1.2,1.2,1.9,3.1,1.9,5.5v10.2h-1.6v-9.9c0-2-0.5-3.5-1.5-4.5c-1-1-2.4-1.5-4.1-1.5
		c-2,0-3.6,0.6-4.8,1.9c-1.1,1.2-1.7,2.9-1.7,4.8v9.2h-1.6V23.9h1.6v3.7c0.6-1.2,1.5-2.1,2.6-2.9c1.2-0.7,2.6-1,4.2-1
		C222,23.8,223.7,24.4,225,25.7z"/>
	<path class="st1" d="M244.5,25.4c1.1,1.1,1.7,2.7,1.7,4.8v11.1h-1.6v-3.1c-0.5,1-1.4,1.9-2.4,2.4c-1.1,0.6-2.4,0.9-3.9,0.9
		c-1.9,0-3.5-0.5-4.6-1.4c-1.1-0.9-1.6-2.1-1.6-3.6c0-1.5,0.5-2.6,1.5-3.5c1-0.9,2.6-1.4,5-1.4h6v-1.4c0-1.6-0.5-2.9-1.4-3.7
		c-0.9-0.9-2.1-1.2-3.9-1.2c-1.1,0-2.2,0.2-3.4,0.6c-1,0.4-2,0.9-2.6,1.6l-0.9-1.2c0.9-0.7,1.9-1.4,3.1-1.9c1.2-0.4,2.5-0.6,3.9-0.6
		C241.6,23.8,243.4,24.4,244.5,25.4z M242.3,39.1c1-0.6,1.7-1.6,2.2-2.9V33h-5.8c-1.7,0-3,0.2-3.7,0.9c-0.7,0.6-1.1,1.5-1.1,2.6
		s0.4,2,1.2,2.6c0.9,0.6,2,1,3.6,1C240,40.1,241.3,39.7,242.3,39.1z"/>
	<path class="st1" d="M253.1,16.7h1.6v24.6h-1.6V16.7z"/>
</g>
</svg>
