<?xml version="1.0" encoding="utf-8"?>
<!-- Generator: Adobe Illustrator 24.1.2, SVG Export Plug-In . SVG Version: 6.00 Build 0)  -->
<svg version="1.1" id="Layer_1" xmlns="http://www.w3.org/2000/svg" xmlns:xlink="http://www.w3.org/1999/xlink" x="0px" y="0px"
	 viewBox="0 0 245.7 82.8" style="enable-background:new 0 0 245.7 82.8;" xml:space="preserve">
<style type="text/css">
	.st0{fill:#FFFFFF;}
	.st1{fill:#FAE307;}
	.st2{fill:#FAE409;}
</style>
<g>
	<path class="st0" d="M25.2,80.6c0-12.5,0-24.6,0-37.1c0.4,0,0.8,0,1,0c6.9,0,14,0,20.9,0c0.8,0,1.5,0.2,1.7,1
		c0.4,1.9,1.3,3.6,1.3,5.4c0.2,5.9,0,11.7,0.2,17.3c0.2,7.5-5.9,13.6-13.4,13.4C33.4,80.4,29.4,80.6,25.2,80.6z M33.8,45.9
		c0,8.8,0,17.3,0,26.1c1.5,0,2.7,0,4,0c2.3,0,4.2-1.7,4.2-4c0-6.1,0-12.1,0-18.2c0-2.3-1.7-4-4-4C36.7,45.9,35.3,45.9,33.8,45.9z"/>
	<path class="st0" d="M25.4,2.9c5,0.2,10,0,14.8,0.6c5.4,0.8,9.4,6.3,9.4,11.7c0,6.1,0,11.9,0,18c0,2.3-0.4,4.4-1.7,6.3
		c-0.2,0.4-0.6,0.6-1,0.6c-7.1,0-14.2,0-21.3,0h-0.2C25.4,27.8,25.4,15.5,25.4,2.9z M33.6,37.6c1.3,0,2.3,0,3.3,0c2.3,0,4-1.7,4.2-4
		c0-0.8,0-1.5,0-2.3c0-5.2,0-10.3,0-15.5c0-2.1-1-3.8-2.7-4.2c-1.5-0.4-3.1-0.2-4.8-0.4C33.6,20.3,33.6,28.8,33.6,37.6z"/>
	<path class="st1" d="M144.2,43.4c2.7,0,5.4,0,8.2,0c0,0.6,0,1,0,1.5c0,7.5,0,15.2,0,22.7c0,2.7,1.9,4.6,4.6,4.4
		c2.3-0.2,3.8-2.1,3.8-4.6c0-6.9,0-13.8,0-20.9c0-1,0-2.1,0-3.3c2.7,0,5.4,0,8.4,0c0,0.4,0,0.8,0,1c0,7.7,0,15.5,0,23.4
		c0,7.5-5.9,13-13.2,12.8c-6.1-0.2-11.7-5.5-11.7-11.5c-0.2-8.4,0-16.9,0-25.2C144,43.6,144,43.6,144.2,43.4z"/>
	<path class="st1" d="M169.1,40.1c-2.9,0-5.4,0-8.4,0c0-0.6,0-1,0-1.5c0-7.5,0-14.8,0-22.3c0-2.3-1-4-2.9-4.6
		c-2.9-0.8-5.4,1-5.7,4.2c0,7.3,0,14.8,0,22.1c0,0.6,0,1.3,0,2.1c-2.7,0-5.4,0-8.2,0c0-0.4,0-0.6,0-1c0-8,0-15.9,0-23.6
		c0-5.9,4.2-10.9,10-12.1c7.7-1.7,15,4.2,15,12.1c0,7.7,0,15.5,0,23.2C169.1,39,169.1,39.4,169.1,40.1z"/>
	<path class="st1" d="M121.5,43.2c4.6,0,8.8,0,13.2,0c0.4,0,1,0.4,1.3,0.6c2.5,3.1,3.3,6.9,3.3,10.9c0,4.6,0,9.2-0.2,13.8
		c-0.2,6.3-5.2,11.3-11.3,11.9s-11.9-3.3-13.4-9.2c-0.6-2.9-0.4-6.1-0.6-9.2c2.9,0,5.7,0,8.4,0c0,1.9,0,3.8,0,5.7
		c0,3.1,2.9,5.2,5.7,4.2c1.7-0.6,2.7-1.9,2.7-3.6c0-4.4,0-8.6-0.2-13c-0.2-3.3-1.9-6.3-4.6-8.4C124.4,45.7,123.2,44.7,121.5,43.2z"
		/>
	<path class="st1" d="M139.2,21.5c-2.9,0-5.4,0-8.4,0c0-1.3,0-2.5,0-3.8c0-0.8,0-1.9-0.2-2.7c-0.4-2.1-2.1-3.6-4-3.6
		c-2.1,0-4,1.5-4.2,3.6c-0.2,4.8-0.6,9.6,0.4,14.4c0.6,2.9,2.1,5.4,4.4,7.3c1.3,1,2.7,2.3,3.8,3.6c-0.4,0-0.6,0-1,0
		c-3.8,0-7.5,0-11.1,0c-0.8,0-1.5-0.4-1.9-1c-2.3-3.3-2.9-6.9-2.9-10.9c0-4.4,0-8.6,0-13c0-5.9,4.2-10.9,10-12.1
		c7.7-1.7,15,4.2,15,12.1C139.2,17.3,139.2,19.4,139.2,21.5z"/>
	<path class="st0" d="M56.6,40.1c0-12.3,0-24.6,0-36.9c7.3,0,14.4,0,21.7,0c0,2.7,0,5.4,0,8.4c-4.4,0-8.8,0-13.4,0
		c0,8.8,0,17.3,0,26.1c4.4,0,8.8,0,13.4,0c0,0.8,0,1.7,0,2.5C71.2,40.1,63.8,40.1,56.6,40.1z"/>
	<path class="st1" d="M196.6,37.6c0,1,0,1.7,0,2.5c-7.3,0-14.6,0-21.9,0c0-12.3,0-24.6,0-36.9c7.3,0,14.6,0,21.9,0
		c0,2.7,0,5.4,0,8.4c-0.4,0-0.8,0-1.3,0c-3.8,0-7.5,0-11.1,0c-0.6,0-1,0.2-1,1c0,8.2,0,16.3,0,24.4c0,0.2,0,0.2,0,0.6
		C187.6,37.6,192,37.6,196.6,37.6z"/>
	<path class="st0" d="M78.3,80.6c-7.3,0-14.4,0-21.7,0c0-12.3,0-24.6,0-37.1c7.1,0,14.4,0,21.7,0c0,0.8,0,1.7,0,2.5
		c-4.4,0-8.8,0-13.4,0c0,8.8,0,17.3,0,26.1c4.4,0,8.8,0,13.4,0C78.3,74.9,78.3,77.6,78.3,80.6z"/>
	<path class="st0" d="M92.5,11.5c-2.7,0-5.4,0-8.4,0c0-2.7,0-5.4,0-8.4c8,0,16.1,0,24.2,0c0,2.7,0,5.4,0,8.4c-2.5,0-4.8,0-7.5,0
		c0,9.6,0,19,0,28.6c-2.9,0-5.7,0-8.6,0C92.5,30.5,92.5,21.1,92.5,11.5z"/>
	<path class="st1" d="M208.3,40.1c0-9.6,0-19,0-28.6c-2.7,0-5.7,0-8.4,0c0-2.7,0-5.2,0-7.7c0-0.2,0.6-0.6,1-0.6c4,0,7.7,0,11.7,0
		c3.3,0,6.7,0,10.3,0c0.4,0,0.8,0,1.5,0c0,2.7,0,5.4,0,8.4c-2.5,0-4.8,0-7.5,0c0,9.6,0,19.2,0,28.6
		C213.9,40.1,211.2,40.1,208.3,40.1z"/>
	<path class="st1" d="M174.7,43.4c7.3,0,14.6,0,21.9,0c0,0.8,0,1.7,0,2.7c-4.4,0-8.8,0-13.4,0c0,11.5,0,23,0,34.4
		c-2.9,0-5.7,0-8.6,0C174.7,68,174.7,55.8,174.7,43.4z"/>
	<path class="st0" d="M92.5,43.4c2.9,0,5.4,0,8.4,0c0,12.3,0,24.6,0,37.1c-2.7,0-5.4,0-8.4,0C92.5,68,92.5,55.8,92.5,43.4z"/>
	<path class="st1" d="M208.3,43.4c2.7,0,5.4,0,8.4,0c0,12.3,0,24.6,0,37.1c-2.7,0-5.4,0-8.4,0C208.3,68,208.3,55.8,208.3,43.4z"/>
	<path class="st2" d="M2.9,27.3c4.8,5,9.6,9.8,14,14.4c-4.4,4.6-9.2,9.4-14,14.4C2.9,46.6,2.9,37.1,2.9,27.3z"/>
	<path class="st2" d="M242.1,56.4c-4.8-5-9.6-9.8-14-14.6c4.4-4.6,9.2-9.4,14-14.4C242.1,36.9,242.1,46.6,242.1,56.4z"/>
</g>
</svg>
