<?xml version="1.0" encoding="utf-8"?>
<!-- Generator: Adobe Illustrator 24.3.0, SVG Export Plug-In . SVG Version: 6.00 Build 0)  -->
<svg version="1.1" id="Layer_1" xmlns="http://www.w3.org/2000/svg" xmlns:xlink="http://www.w3.org/1999/xlink" x="0px" y="0px"
	 viewBox="0 0 2196.4 295.5" style="enable-background:new 0 0 2196.4 295.5;" xml:space="preserve">
<g>
	<path style="fill:#FFFFFF;" d="M71.9,3.9c7.2,4.5,42,29.9,72.9,108.9h5.3c0,0-41.6-103.1-78.3-109.5V3.1h-2.7v220
		c0.9-0.6,1.7-1.2,2.7-1.7L71.9,3.9L71.9,3.9z"/>
	<path style="fill:#FFFFFF;" d="M135.9,237.2c4.7,0,6.4-1.5,11.6-6.4c6-5.8,15.2-14.7,32-14.7s26,8.8,32,14.7
		c5.1,5,6.9,6.4,11.6,6.4s6.4-1.5,11.6-6.4c6-5.8,15.2-14.7,32-14.7v-8.2H97.3v8.5c13.6,1.6,21.5,9.2,26.9,14.4
		C129.4,235.8,131.1,237.2,135.9,237.2z"/>
	<path style="fill:#FFFFFF;" d="M223,277.2c-7.6,0-11.1-3.3-16.2-8.3c-5.9-5.7-13.2-12.8-27.4-12.8c-14.2,0-21.5,7.1-27.4,12.8
		c-5.2,5-8.6,8.3-16.2,8.3c-7.6,0-11.1-3.3-16.2-8.3c-5.9-5.7-13.2-12.8-27.4-12.8c-14.2,0-21.5,7.1-27.4,12.8
		c-5.2,5-8.6,8.3-16.2,8.3s-11.1-3.3-16.2-8.3c-5.9-5.7-13.2-12.8-27.4-12.8v16c7.6,0,11.1,3.3,16.2,8.3
		c5.9,5.7,13.2,12.8,27.4,12.8c14.2,0,21.5-7.1,27.4-12.8c5.1-5,8.6-8.3,16.2-8.3c7.6,0,11.1,3.3,16.2,8.3
		c5.9,5.7,13.2,12.8,27.4,12.8s21.5-7.1,27.4-12.8c5.1-5,8.6-8.3,16.2-8.3c7.6,0,11.1,3.3,16.2,8.3c5.9,5.7,13.2,12.8,27.4,12.8
		c14.2,0,21.5-7.1,27.4-12.8c5.1-5,8.6-8.3,16.2-8.3v-16c-14.2,0-21.5,7.1-27.4,12.8C234.1,273.9,230.7,277.2,223,277.2z"/>
	<path style="fill:#FFFFFF;" d="M266.6,222.7c-14.2,0-21.5,7.1-27.4,12.8c-5.1,5-8.6,8.3-16.2,8.3c-7.6,0-11.1-3.3-16.2-8.3
		c-5.9-5.7-13.2-12.8-27.4-12.8c-14.2,0-21.5,7.1-27.4,12.8c-5.1,5-8.6,8.3-16.2,8.3c-7.6,0-11.1-3.3-16.2-8.3
		c-5.9-5.7-13.2-12.8-27.4-12.8c-14.2,0-21.5,7.1-27.4,12.8c-5.1,5-8.6,8.3-16.2,8.3c-7.6,0-11.1-3.3-16.2-8.3
		c-5.9-5.7-13.2-12.8-27.4-12.8v16c7.6,0,11.1,3.3,16.2,8.3c5.9,5.7,13.2,12.8,27.4,12.8c14.2,0,21.5-7.1,27.4-12.8
		c5.1-5,8.6-8.3,16.2-8.3c7.6,0,11.1,3.3,16.2,8.3c5.9,5.7,13.2,12.8,27.4,12.8s21.5-7.1,27.4-12.8c5.1-5,8.6-8.3,16.2-8.3
		c7.6,0,11.1,3.3,16.2,8.3c5.9,5.7,13.2,12.8,27.4,12.8c14.2,0,21.5-7.1,27.4-12.8c5.1-5,8.6-8.3,16.2-8.3L266.6,222.7L266.6,222.7z
		"/>
	<ellipse style="fill:#FFFFFF;" cx="198.1" cy="56.9" rx="20.2" ry="20.2"/>
	<path style="fill:#FFFFFF;" d="M139.5,123.9c0,4.5,3.7,8.2,8.2,8.2h21h0.3v-0.3l26.8-26.8l3.1,3.1l-26.9,26.9v14.4h-5h-23.7v23.7
		v31.6h23.7V173h57.5v-23.7v-41.7c0-14.5-11.8-26.3-26.3-26.3c-13.9,0-25.3,10.8-26.2,24.5l-9.8,9.8h-14.5
		C143.2,115.7,139.5,119.3,139.5,123.9z"/>
	<rect x="175" y="177" style="fill:#FFFFFF;" width="56.4" height="26.8"/>
</g>
<g>
	<path style="fill:#FFFFFF;" d="M299.9,211c-3.9,0-5.2-1.7-5.2-5.7V68.8c0-3.9,1.3-5.7,5.2-5.7h39.8c39.4,0,52.6,14.6,52.6,32.8
		v12.8c0,10.7-5,19.1-16.3,24.4c14.8,5.2,23,14.4,23,26.3v17.2c0,18.3-13.3,34.4-52.6,34.4H299.9z M324.1,86.6v37.8h16.3
		c13.9,0,22.8-5.2,22.8-16.3v-7.6c0-10.9-8.9-13.9-23.5-13.9H324.1z M324.1,146.6v40.9h22.4c14.6,0,23.7-5.2,23.7-16.1v-9.8
		c0-9.3-9.1-15-23.7-15H324.1z"/>
	<path style="fill:#FFFFFF;" d="M471.7,63.1c3.9,0,5.9,1.7,7,5.4l40.4,137c1.1,3.5-0.2,5.4-3.9,5.4h-19.6c-3.7,0-5.2-2-6.3-5.4
		l-7.6-26.5h-40.4l-7.6,26.5c-1.1,3.5-2.6,5.4-6.5,5.4h-17.6c-3.9,0-5.2-2-4.1-5.4l40.7-137c1.1-3.7,2.8-5.4,6.7-5.4H471.7z
		 M468,131.6c-2.8-8.9-6.1-36.7-6.3-39.6c-0.4,2.8-4.1,30.2-6.7,39.4l-7.4,24.4h27.6L468,131.6z"/>
	<path style="fill:#FFFFFF;" d="M561.5,186.6H610c3.7,0,5.4,1.3,5.4,5.2v13.7c0,3.9-1.7,5.4-5.4,5.4h-73.3c-3.3,0-4.6-2-4.6-5.7
		V68.8c0-3.9,1.3-5.7,5.2-5.7h18.9c3.9,0,5.2,1.7,5.2,5.7V186.6z"/>
	<path style="fill:#FFFFFF;" d="M659.8,205.3c0,3.9-1.3,5.7-5.2,5.7h-18.9c-3.9,0-5.2-1.7-5.2-5.7V68.8c0-3.9,1.3-5.7,5.2-5.7h18.9
		c3.9,0,5.2,1.7,5.2,5.7V205.3z"/>
	<path style="fill:#FFFFFF;" d="M793.3,205.6c2,2.6,1.1,5.4-2.8,5.4h-24.1c-3.7,0-5.9-2.8-7.8-5.4l-40.9-57h-3.7v57
		c0,3.7-1.3,5.4-5.2,5.4h-18.9c-3.9,0-5.2-1.7-5.2-5.4v-137c0-3.7,1.3-5.4,5.2-5.4h18.9c3.9,0,5.2,1.7,5.2,5.4v58.5h3.5l38.7-58.5
		c2-3,4.8-5.4,8.7-5.4H785c3.9,0,4.6,2.6,2.6,5.4l-45.4,67.2L793.3,205.6z"/>
	<path style="fill:#FFFFFF;" d="M857.7,220.8c11.3,0,19.1,5.4,19.1,17.8c0,12.6-7.8,18.3-19.1,18.3h-25.9c-3.9,0-5.4-1.5-5.4-5.4
		v-4.3c0-3.9,1.5-5.2,5.4-5.2h21.3c2.4,0,4.1-0.9,4.1-3.3c0-2.4-1.7-3.5-4.1-3.5h-16.3c-6.5,0-8-2.8-6.7-7.2l4.6-16.5
		c-26.3-4.1-34.6-18.7-34.6-34.1V96.8c0-18.3,11.7-35.4,51.1-35.4s51.1,17.2,51.1,35.4v10.4c0,3.9-1.3,5.4-5,5.4h-18
		c-3.9,0-5.4-1.5-5.4-5.4V102c0-10.9-7.6-16.3-22.2-16.3s-22,5.4-22,16.3v70c0,10.9,7.4,16.3,22,16.3s22.2-5.4,22.2-16.3v-8.3
		c0-3.9,1.5-5.4,5.4-5.4h18c3.7,0,5,1.5,5,5.4v13.5c0,18-11.3,34.8-48.9,35.4l-2.2,8H857.7z"/>
	<path style="fill:#FFFFFF;" d="M950.1,205.3c0,3.9-1.3,5.7-5.2,5.7h-18.9c-3.9,0-5.2-1.7-5.2-5.7V68.8c0-3.9,1.3-5.7,5.2-5.7h18.9
		c3.9,0,5.2,1.7,5.2,5.7V205.3z"/>
	<path style="fill:#FFFFFF;" d="M1004.2,186.6h48.5c3.7,0,5.4,1.3,5.4,5.2v13.7c0,3.9-1.7,5.4-5.4,5.4h-73.3c-3.3,0-4.6-2-4.6-5.7
		V68.8c0-3.9,1.3-5.7,5.2-5.7H999c3.9,0,5.2,1.7,5.2,5.7V186.6z"/>
	<path style="fill:#FFFFFF;" d="M1102.5,205.3c0,3.9-1.3,5.7-5.2,5.7h-18.9c-3.9,0-5.2-1.7-5.2-5.7V68.8c0-3.9,1.3-5.7,5.2-5.7h18.9
		c3.9,0,5.2,1.7,5.2,5.7V205.3z"/>
	<path style="fill:#FFFFFF;" d="M1236,205.6c2,2.6,1.1,5.4-2.8,5.4H1209c-3.7,0-5.9-2.8-7.8-5.4l-40.9-57h-3.7v57
		c0,3.7-1.3,5.4-5.2,5.4h-18.9c-3.9,0-5.2-1.7-5.2-5.4v-137c0-3.7,1.3-5.4,5.2-5.4h18.9c3.9,0,5.2,1.7,5.2,5.4v58.5h3.5l38.7-58.5
		c2-3,4.8-5.4,8.7-5.4h20.2c3.9,0,4.6,2.6,2.6,5.4l-45.4,67.2L1236,205.6z"/>
	<path style="fill:#FFFFFF;" d="M1321,211c-3.9,0-5.7-1.7-6.7-5.4l-40.7-137c-1.1-3.5,0.2-5.4,4.1-5.4h20.7c3.7,0,5.2,2,6.3,5.4
		l21.1,73.9c3.3,11.7,5.2,31.5,5.2,31.5s2.6-19.8,5.9-31.3l21.1-74.1c1.1-3.5,2.6-5.4,6.5-5.4h18.9c3.7,0,5,2,3.9,5.4l-40.4,137
		c-1.1,3.7-3,5.4-7,5.4H1321z"/>
	<path style="fill:#FFFFFF;" d="M1405.6,211c-3.9,0-5.2-1.7-5.2-5.7V68.8c0-3.9,1.3-5.7,5.2-5.7h74.4c3.7,0,5.4,1.3,5.4,5.2V82
		c0,3.9-1.7,5.4-5.4,5.4h-50.2v35.2h46.5c3.9,0,5.7,1.3,5.7,5.2v13c0,3.7-1.7,5.2-5.7,5.2h-46.5v40.4h52.4c3.9,0,5.4,1.3,5.4,5.2
		v13.7c0,3.9-1.5,5.4-5.4,5.4H1405.6z"/>
	<path style="fill:#FFFFFF;" d="M1597.4,63.1c3.9,0,5.9,1.7,7,5.4l40.4,137c1.1,3.5-0.2,5.4-3.9,5.4h-19.6c-3.7,0-5.2-2-6.3-5.4
		l-7.6-26.5h-40.4l-7.6,26.5c-1.1,3.5-2.6,5.4-6.5,5.4h-17.6c-3.9,0-5.2-2-4.1-5.4l40.7-137c1.1-3.7,2.8-5.4,6.7-5.4H1597.4z
		 M1593.7,131.6c-2.8-8.9-6.1-36.7-6.3-39.6c-0.4,2.8-4.1,30.2-6.7,39.4l-7.4,24.4h27.6L1593.7,131.6z"/>
	<path style="fill:#FFFFFF;" d="M1680.7,211c-3.9,0-5.7-1.7-6.7-5.4l-40.7-137c-1.1-3.5,0.2-5.4,4.1-5.4h20.7c3.7,0,5.2,2,6.3,5.4
		l21.1,73.9c3.3,11.7,5.2,31.5,5.2,31.5s2.6-19.8,5.9-31.3l21.1-74.1c1.1-3.5,2.6-5.4,6.5-5.4h18.9c3.7,0,5,2,3.9,5.4l-40.4,137
		c-1.1,3.7-3,5.4-7,5.4H1680.7z"/>
	<path style="fill:#FFFFFF;" d="M1858.5,177.3c0,18.3-11.7,35.4-51.1,35.4s-51.1-17.2-51.1-35.4V96.8c0-18.3,11.7-35.4,51.1-35.4
		s51.1,17.2,51.1,35.4v10.4c0,3.9-1.3,5.4-5,5.4h-18c-3.9,0-5.4-1.5-5.4-5.4V102c0-10.9-7.6-16.3-22.2-16.3s-22,5.4-22,16.3v70
		c0,10.9,7.4,16.3,22,16.3s22.2-5.4,22.2-16.3v-8.3c0-3.9,1.5-5.4,5.4-5.4h18c3.7,0,5,1.5,5,5.4V177.3z"/>
	<path style="fill:#FFFFFF;" d="M1906.4,205.3c0,3.9-1.3,5.7-5.2,5.7h-18.9c-3.9,0-5.2-1.7-5.2-5.7V68.8c0-3.9,1.3-5.7,5.2-5.7h18.9
		c3.9,0,5.2,1.7,5.2,5.7V205.3z"/>
	<path style="fill:#FFFFFF;" d="M1960.5,186.6h48.5c3.7,0,5.4,1.3,5.4,5.2v13.7c0,3.9-1.7,5.4-5.4,5.4h-73.3c-3.3,0-4.6-2-4.6-5.7
		V68.8c0-3.9,1.3-5.7,5.2-5.7h18.9c3.9,0,5.2,1.7,5.2,5.7V186.6z"/>
	<path style="fill:#FFFFFF;" d="M2058.8,205.3c0,3.9-1.3,5.7-5.2,5.7h-18.9c-3.9,0-5.2-1.7-5.2-5.7V68.8c0-3.9,1.3-5.7,5.2-5.7h18.9
		c3.9,0,5.2,1.7,5.2,5.7V205.3z"/>
	<path style="fill:#FFFFFF;" d="M2192.3,205.6c2,2.6,1.1,5.4-2.8,5.4h-24.1c-3.7,0-5.9-2.8-7.8-5.4l-40.9-57h-3.7v57
		c0,3.7-1.3,5.4-5.2,5.4h-18.9c-3.9,0-5.2-1.7-5.2-5.4v-137c0-3.7,1.3-5.4,5.2-5.4h18.9c3.9,0,5.2,1.7,5.2,5.4v58.5h3.5l38.7-58.5
		c2-3,4.8-5.4,8.7-5.4h20.2c3.9,0,4.6,2.6,2.6,5.4l-45.4,67.2L2192.3,205.6z"/>
</g>
</svg>
