<?xml version="1.0" encoding="utf-8"?>
<!-- Generator: Adobe Illustrator 26.1.0, SVG Export Plug-In . SVG Version: 6.00 Build 0)  -->
<svg version="1.1" id="Layer_1" xmlns="http://www.w3.org/2000/svg" xmlns:xlink="http://www.w3.org/1999/xlink" x="0px" y="0px"
	 viewBox="0 0 1056.6 202" style="enable-background:new 0 0 1056.6 202;" xml:space="preserve">
<path style="fill:#FF8200;" d="M45.5,108.2c-3.1-8.3-1.9-14.8,7.4-17.7c0.4-3.5-2.8-4.2-4.7-5.6c-5.3-3.7-10.7-7.4-16.4-10.5
	c-4.5-2.4-8.4-5.3-11.4-9.4c-0.9-1.3-1.4-3.3-1.2-4.8c0.4-3.6,8.1-10.6,11.4-10c3.5,0.7,6.9,2.6,10,4.4c5.6,3.3,11,6.9,16.5,10.3
	c4.2,2.7,8.4,5.4,12.6,8c4.1,2.5,8.3,4.8,12.4,7.2c4.4,2.6,8.9,5.1,13.2,7.9c2.6,1.7,3.8,1.2,5-1.5c1.7-3.8,3.9-7.4,6-11
	c2.3-3.9,4.6-7.8,7.3-11.4c4.1-5.3,8.4-10.2,15.8-11c7.6-0.9,13.6,5.4,12.5,11.5c-0.6,3.2-3,6.4-5.4,8.8c-6.1,6.3-8.9,13.8-9.7,22.2
	c-0.6,6.8-0.7,13.6-0.4,20.4c0.2,4.6-2.7,7.2-5.1,10.1c-7.5,9.4-15.3,18.6-23,27.8c-2.7,3.3-5.2,6.9-8,10.1
	c-2.3,2.6-5.5,1.9-8.4,1.2c-7.1-1.7-13.6-4.7-19.8-8.3c-7.5-4.4-15.2-8.7-22.4-13.7c-2.9-2-6.2-5.1-5.5-9.4c0.4-2.4,1.2-5.4,3-6.9
	c2.2-1.9,1.7-3.5,0.8-5.3C35.7,116,38.7,109.6,45.5,108.2z"/>
<path style="fill:#FF8200;" d="M618.2,133.7c-2.5-2.1-3.6-0.1-5.4,0.8c-3.1,1.8-6.5,4-9.9,4.2c-7.4,0.4-14.8-0.1-22.2-0.7
	c-2.6-0.2-5.1-1.7-7.5-2.8c-6.7-3.3-12.2-7.9-16.7-14.2c-8.2-11.7-9.6-24.6-7.9-38c0.9-6.7,3.9-12.9,7.6-18.8
	c3.7-6,8.6-10.5,14.3-14.1c8-5.1,17.2-6.6,26.6-5.5c1.3,0.1,3.1,1.7,3.6,3c1.2,3.1,1.7,6.5,2.6,9.7c1.2,3.9,2.7,7.6,3.7,11.5
	c0.6,2,0.5,4.1,0.9,7.2c-4.8-3.6-9.3-2.6-13.6-2.2c-5.7,0.5-11.8,7.9-13.4,13.5c-1.1,4-0.7,7.5,0.5,10.9c1.6,4.6,4.5,8.6,9.2,10.3
	c3.2,1.2,6.6,2,10,2.1c8.4,0.1,15.8-6.8,16-15.2c0.4-14.6,0.4-29.1,0.5-43.7c0-4.4,0.4-4.9,4.7-4.9c7.7,0,15.3,0,23,0
	c3,0,4.5,0.8,4.4,4.4c-0.2,27.2-0.1,54.4,0,81.6c0,3.6-1.3,4.6-4.7,4.5c-7.7-0.2-15.3-0.1-23,0C618.9,137.3,616.6,137.2,618.2,133.7
	z"/>
<path style="fill:#FF8200;" d="M349.7,47.3c1.3-0.2,2.4-0.4,3.4-0.4c8.2,0,16.3,0,24.5,0c2.3,0,3.2,0.8,3.2,3.2
	c-0.1,28.1,0,56.1-0.1,84.2c0,0.9-0.2,1.9-0.3,3c-10.1,0-20.1,0-30.3,0c-0.2-1.4-0.4-2.8-0.8-5.1c-2.3,1.3-4.3,2.6-6.4,3.5
	c-3.3,1.4-6.7,3.1-10.2,3.6c-4.9,0.6-10.1,0.9-14.9,0.1c-5-0.9-9.9-2.9-14.5-5.1c-5.8-2.7-10.2-7.3-13.9-12.4
	c-2.4-3.2-3.8-7.1-5.7-10.7c-3.4-6.3-2.8-13.4-3.2-20.1c-0.3-4.6,1.2-9.5,2.5-14.1c1.1-3.8,3.1-7.3,4.8-10.8
	c3.4-6.8,8.9-11.6,15.1-15.7c8.2-5.4,17.4-6.5,26.9-5.7c0.7,0.1,1.4,0.4,1.7,0.4c1.6,4.3,3.2,8.2,4.6,12.2c1,2.9,1.7,5.9,2.6,8.8
	c0.6,2,1.5,3.8,2,5.8c0.3,1.1,0.1,2.3,0.1,2.7c-3.9-0.3-7.6-0.6-11.3-0.9c-5-0.4-13.7,5.5-15.1,11.2c-0.6,2.5-1.7,4.9-1.9,7.4
	c-0.3,6.2,3,10.7,7.5,14.4c3.6,2.9,7.8,4.9,12.6,4.2c6.5-1.1,12.1-3.1,15.4-10c1.5-3.2,1.8-6.1,1.8-9.2c0.1-13.5,0-27,0-40.4
	C349.7,49.9,349.7,48.7,349.7,47.3z"/>
<path style="fill:#FF8200;" d="M457.8,137c-1.2-5.5-0.8-24.7,0.6-28.2c5.1,0,10.3,0,15.5,0c7.3,0,12.3-4.3,16.9-9.3
	c6.6-7.3,7-16.4,7-25.6c0-4.2,0.3-8.7-0.7-12.7c-2.2-9.1-6.5-16.8-15.8-21c-6.6-3-13.2-2.2-19.9-2.2c-3.4,0-4.3-1.4-4.3-4.2
	c0-6.7,0.1-13.4,0-20c0-3.3,1.2-4.7,4.8-4.4c4.7,0.4,9.5-0.2,14.2,0.4c17.6,2.1,33.5,7.9,44.5,22.6c3.5,4.6,5.6,10.3,7.9,15.8
	c4.7,11.1,5,22.9,3.8,34.6c-0.8,7.5-2.5,14.9-5.8,22c-3.9,8.4-9.3,15.3-16.4,20.6c-4.6,3.5-10.4,5.4-15.7,7.8
	c-11.4,5-23.5,4.3-35.6,4.2C458.5,137.2,458.3,137.1,457.8,137z"/>
<path style="fill:#FF8200;" d="M418.3,73.3c0-19.8,0.1-39.6-0.1-59.4c0-3.3,1.1-4.6,4.4-4.5c8.8,0.1,17.5,0.1,26.3,0
	c3.2,0,4.4,1.2,4.4,4.5c-0.1,39.7-0.1,79.4,0,119.1c0,3.4-1.1,4.3-4.4,4.3c-8.8-0.2-17.5-0.2-26.3,0c-3.3,0.1-4.4-0.9-4.4-4.3
	C418.3,113.1,418.3,93.2,418.3,73.3z"/>
<path style="fill:#FF8200;" d="M208.4,137.2c0-1.9,0-3.3,0-4.7c0-28.7,0.1-57.3-0.1-86c0-3.6,1-4.6,4.5-4.5c8.5,0.2,17,0.1,25.6,0.1
	c4,0,4.5,0.7,4,4.6c-0.2,1.2-0.1,2.4-0.1,3.6c0,25.9,0,51.7,0,77.6c0,0.5,0,1,0,1.5c0.2,7.9,0.2,7.9-8,7.9
	C225.8,137.2,217.4,137.2,208.4,137.2z"/>
<path style="fill:#FF8200;" d="M225.3,9.4c15.1,0,30.2,0.1,45.3-0.1c3.7,0,4.6,1.3,4.6,4.6c-0.2,6.6-0.1,13.1,0,19.7
	c0,2.9-0.8,4.3-4.2,4.3c-30.5-0.1-60.9-0.1-91.4,0c-3.2,0-4.3-1-4.2-4.2c0.2-6.8,0.2-13.6,0-20.4c-0.1-3.3,1.1-4.1,4.2-4.1
	C194.8,9.5,210,9.4,225.3,9.4z"/>
<path style="fill:#FF8200;" d="M93.5,173.6c6.3-8,12.3-15.7,18.3-23.3c6.3-7.9,12.4-15.9,18.9-23.5c4.5-5.2,4.4-7.2,12.1-2.3
	c4.5,2.8,8.7,6.2,13.1,9.2c1.1,0.7,2.4,1.2,3.4,2c3.7,3,3.6,6,0.2,10.1c-5.8,6.9-11.5,13.8-17.2,20.8c-6,7.5-11.9,15.1-17.9,22.6
	c-3.3,4.2-6.3,4.2-11.1,0.5c-4.7-3.6-9.7-6.8-14.5-10.4C97.1,177.8,95.6,175.8,93.5,173.6z"/>
<path style="fill:#FF8200;" d="M403,175.7c-1.6,3.3-3.5,6.5-4.7,10c-0.9,2.5-2.6,2.7-4.5,2.7c-2,0-3.9-0.1-4.7-2.8
	c-1-3.2-2.9-6.1-4.4-9.1c-0.5,0.1-0.9,0.3-1.4,0.4c-0.1,1.2-0.3,2.4-0.3,3.7c0,2.5,0.1,5.1,0.2,7.6c0,2.7-0.4,4.7-4,4.4
	c-3.4-0.3-5.1-1.5-5.1-4.6c0-8.5,0.1-17,0-25.5c0-2.2,0.8-3.4,2.8-3.3c3.2,0.2,7.1-1.8,9.3,2c2.1,3.8,3.6,7.9,5.5,11.8
	c0.6,1.3,1.7,2.3,2.6,3.4c0.7-1.1,1.4-2.2,2-3.3c1.7-3.8,3.2-7.6,5.1-11.3c1.3-2.6,9.1-3.9,11.4-2c0.5,0.4,0.8,1.4,0.8,2.2
	c0.1,8.9,0.1,17.7,0.1,26.6c0,3.5-2.2,3.9-5.1,4.1c-3.3,0.2-4-1.4-3.9-4.1c0-4.1,0-8.2,0-12.3C403.9,176,403.5,175.9,403,175.7z"/>
<path style="fill:#FF8200;" d="M539.4,174.4c-0.1,1.1-0.3,2.2-0.4,3.3c0,3.6,0,7.3,0.1,10.9c0.1,3.4-2,3.8-4.8,3.9
	c-2.9,0.1-4.4-0.7-4.4-3.7c0-9,0.1-18,0-27c0-2,0.9-2.8,2.9-2.8c3.9-0.1,7.1,0,9.4,4.2c2.5,4.7,6.2,8.8,9.9,13.9
	c1.4-6,0.1-11.8,0.9-18.1c2.3,0,4.5-0.2,6.7,0.1c0.8,0.1,1.9,1.5,1.9,2.3c0.1,9.3,0.1,18.7,0.1,28c0,2.1-1,2.7-3.1,3
	c-5.8,0.9-7.8-3.1-10.3-6.8c-2.6-3.9-5.2-7.7-7.8-11.5C540.2,174.3,539.8,174.4,539.4,174.4z"/>
<path style="fill:#FF8200;" d="M236.3,167.9c-4.5-3.5-12.7-3.1-16.2,0.6c-2.8,3-3,9-0.4,12.8c1.9,2.9,8.6,5.6,11.5,4
	c1.3-0.7,1.5-3.4,2.4-5.6c-2.1-0.2-3-0.3-4-0.3c-2,0-3.6-0.3-3.5-2.9c0.1-2.6,0.9-3.9,3.6-3.8c2.7,0.1,5.4,0.3,8,0
	c3.4-0.4,4.2,1.4,4.1,4.2c-0.1,1.8-0.1,3.6,0,5.5c0,7.4-2,9.6-9.4,10.3c-7.5,0.8-14.2-0.4-19.8-6.2c-6-6.2-5.8-16.8,0.4-22.8
	c6.4-6.1,18.8-7.4,26.6-2.4c2,1.3,2.1,2,0.5,3.4C238.9,165.7,237.7,166.7,236.3,167.9z"/>
<path style="fill:#FF8200;" d="M637.9,179.4c-1,0-1.9,0-2.7,0c-2.1,0.1-3.6-0.2-3.4-2.9c0.1-2.3,0.3-4.1,3.3-3.9
	c3.2,0.2,6.3,0.1,9.5,0c2.1-0.1,2.9,0.9,2.9,2.8c0,3.8,0.2,7.5-0.1,11.3c-0.1,1.1-0.9,2.7-1.9,3.1c-5,2.5-10.2,4-16,2.8
	c-7.1-1.5-15.9-7.2-15.7-17.1c0.2-9,6.8-15,14.1-16.7c7.1-1.6,13,0,20.1,4.1c-2.2,1.8-4.1,3.3-6.1,4.9c-3.6-2.9-7.8-2.7-12-1.9
	c-5.8,1-8.3,8.6-5.6,13.8c2.1,4.2,5.4,5.5,9.3,5.9C638.5,186,639.3,184.7,637.9,179.4z"/>
<path style="fill:#FF8200;" d="M317.1,192.5c-1-2.7-1.3-6.2-3-7.3c-2.4-1.5-6-1.3-9.1-1.5c-1.2-0.1-2.4,0.9-3.6,1.5
	c-0.3,0.1-0.2,0.9-0.3,1.4c-1.2,4.9-4.7,7.1-9.4,5.9c-1.7-0.4-2-3.6-0.9-5.9c1.5-3,2.7-6.2,4-9.3c1.7-4.1,3.5-8.2,5.2-12.2
	c0.1-0.3,0.5-0.6,0.6-0.9c0.7-1.5,1.2-4.2,2.2-4.4c3.1-0.7,6.5-0.4,9.7-0.4c0.6,0,1.6,0.5,1.8,1c1.6,4.2,3,8.5,4.7,12.7
	c1.8,4.5,4,8.7,5.8,13.2c0.6,1.6,0.8,3.6,0.4,5.2c-0.1,0.6-2.4,0.9-3.7,1C320.1,192.6,318.8,192.5,317.1,192.5z M310.4,177.4
	c-0.2-2.7-0.1-4.6-0.5-6.5c-0.3-1.9-2.2-3.1-3.3-1.5c-1.2,1.8-1.1,4.6-1,6.9C305.6,176.7,308.4,177,310.4,177.4z"/>
<path style="fill:#FF8200;" d="M475.3,159.4c0,11,0,21.8,0,32.8c-2.9,0-5.5,0-8.4,0c0-10.8,0-21.7,0-32.8
	C469.5,159.4,472.2,159.4,475.3,159.4z"/>
<path style="fill:#FF8200;" d="M101.9,48.3c-1-1.8-2.5-3.3-2.3-4.4c0.9-3.9,2.4-7.6,3.7-11.4c1.1-3.1,2.3-6.1,3.6-9.2
	c0.7-1.6,1.4-3.3,2.6-4.4c0.7-0.7,2.8-0.8,3.6-0.2c0.9,0.7,1.9,2.7,1.6,3.6c-2.3,6.3-4.9,12.4-7.5,18.6c-0.7,1.8-1.4,3.6-2.3,5.3
	C104.5,46.9,103.5,47.2,101.9,48.3z"/>
<path style="fill:#FF8200;" d="M61.7,47.7c-1.9-4.1-3.5-7.1-4.9-10.3c-0.8-1.8-1.5-3.7-1.9-5.6c-0.9-4.3-4.6-8-2.8-12.9
	c4.6-1.1,5.2-0.6,6.5,3.8c0.8,2.7,2.5,5.1,3.6,7.8c1.1,2.6,1.8,5.2,2.7,7.8c0.5,1.4,1.2,2.7,1.6,4.2c0.3,1.1,0.6,3.1,0.2,3.4
	C65.3,46.7,63.4,47.1,61.7,47.7z"/>
<path style="fill:#FF8200;" d="M80.3,12.3c5.3-1.1,6.6-0.1,6.6,4.6c0,6.8,0.1,13.6-0.1,20.4c-0.1,1.6-1.2,3.5-2.3,4.7
	c-1.4,1.5-4-0.1-4.1-2.6c-0.2-4.1-0.1-8.3-0.1-12.4C80.3,22.2,80.3,17.3,80.3,12.3z"/>
</svg>
