<?xml version="1.0" encoding="utf-8"?>
<!-- Generator: Adobe Illustrator 26.1.0, SVG Export Plug-In . SVG Version: 6.00 Build 0)  -->
<svg version="1.1" id="Layer_1" xmlns="http://www.w3.org/2000/svg" xmlns:xlink="http://www.w3.org/1999/xlink" x="0px" y="0px"
	 viewBox="0 0 358.8 60.6" style="enable-background:new 0 0 358.8 60.6;" xml:space="preserve">
<path style="fill:#A94AC5;" d="M31.3,3c0.2,0,0.3,0,0.5,0.1c2,0.9,4,1.8,6,2.7c2,0.9,3.9,1.8,5.9,2.7c0.2,0.1,0.4,0.1,0.6,0
	c3.8-0.9,7.6-1.9,11.3-2.8c0.2-0.1,0.4-0.1,0.6-0.1c0.1,0.1,0,0.2,0,0.3c0,3.8,0,7.7,0,11.5c0,0.1,0,0.2,0,0.2
	c0,0.1-0.1,0.2-0.2,0.2c-0.1,0-0.3,0-0.4,0c-12.9,0-25.8,0-38.7,0c-0.7,0-0.6-0.1-0.6,0.6c0,7.6,0,15.2,0,22.8
	c0,0.6-0.1,0.5,0.5,0.6c4.8,1.6,9.5,3.1,14.3,4.7c0.2,0.1,0.4,0.1,0.6,0c4.7-1.6,9.4-3.1,14.1-4.7c0,0,0.1,0,0.1,0
	c0.2,0,0.3-0.2,0.3-0.4c0-1.6,0-3.1,0-4.7c0-0.4,0-0.4-0.4-0.4c-4.4,0-8.8,0-13.2,0c-2.1,0-4.3,0-6.4,0c-0.5,0-0.5,0-0.5-0.4
	c0-3,0-6.1,0-9.1c0-0.1,0-0.2,0-0.2c0-0.1,0.1-0.2,0.2-0.2c0.1,0,0.2,0,0.3,0c9.8,0,19.7,0,29.5,0c0.6,0,0.5-0.1,0.5,0.5
	c0,7.1,0,14.2,0,21.2c0,0.1,0,0.1,0,0.2c0,0.2-0.1,0.3-0.3,0.4c-1.1,0.4-2.1,0.8-3.2,1.2c-5,1.9-9.9,3.8-14.9,5.6
	c-2,0.8-4,1.5-6,2.3c-0.1,0.1-0.3,0.1-0.4,0.2c-0.1,0-0.1,0-0.2,0c-2.1-0.7-4-1.5-6.1-2.2c-4.3-1.6-8.5-3.2-12.7-4.8
	c-1.9-0.7-3.9-1.4-5.8-2.2c-0.2-0.1-0.4-0.1-0.5-0.3c0-14.3,0-28.7,0-43c0.2-0.1,0.4,0,0.6,0c3.6,0.9,7.2,1.9,10.9,2.8
	c0.4,0.1,0.7,0.1,1.1-0.1c4-1.7,8-3.4,12-5.1C31,3,31.1,3,31.3,3z"/>
<path style="fill:#FFFFFF;" d="M167.7,47.7c-0.1,0.4-0.4,0.5-0.8,0.5c-0.9,0-1.7,0-2.6,0c-0.6,0-0.9-0.2-0.9-0.9c0-0.7,0-1.4,0-2.2
	c0-2.4,0-4.8,0-7.3c0-0.1,0-0.2,0-0.3c0-0.1,0-0.1-0.1-0.1c-0.1,0-0.1,0-0.1,0.1c0,0.1-0.1,0.2-0.1,0.3c-0.8,3.2-1.6,6.4-2.3,9.6
	c-0.2,0.6-0.4,0.8-1,0.8c-0.5,0-0.9,0-1.4,0c-0.6,0-0.9-0.2-1-0.8c-0.8-3.2-1.6-6.4-2.3-9.6c0-0.1,0-0.4-0.2-0.4
	c-0.2,0-0.1,0.3-0.1,0.4c0,3.1,0,6.2,0,9.3c0,0.9-0.2,1-1,1c-0.8,0-1.6,0-2.4,0c-0.1,0-0.3,0-0.4,0c-0.3-0.1-0.5-0.3-0.5-0.6
	c0-0.1,0-0.2,0-0.3c0-5.2,0-10.4,0-15.7c0-0.1,0-0.1,0-0.2c0-0.5,0.2-0.7,0.7-0.7c1.7,0,3.5,0,5.2,0c0.5,0,0.7,0.2,0.8,0.7
	c0.3,1.1,0.6,2.3,0.8,3.4c0.3,1.2,0.6,2.4,0.9,3.6c0,0,0,0.1,0,0.1c0,0.1,0,0.3,0.2,0.3c0.1,0,0.1-0.2,0.2-0.3c0.3-1,0.5-2,0.8-3.1
	c0.3-1.3,0.7-2.7,1-4c0.1-0.6,0.3-0.7,0.9-0.7c1.7,0,3.3,0,5,0c0.2,0,0.3,0,0.5,0.1c0.2,0.1,0.2,0.3,0.3,0.4
	C167.7,36.6,167.7,42.1,167.7,47.7z"/>
<path style="fill:#FFFFFF;" d="M95.8,17.8c0-2.6,0-5.2,0-7.7c0-0.1,0-0.2,0-0.3c0-0.4,0.2-0.6,0.6-0.7c0.1,0,0.2,0,0.3,0
	c1.6,0,3.1,0,4.7,0c0.1,0,0.2,0,0.2,0c0.5,0,0.7,0.2,0.8,0.6c0.2,0.8,0.4,1.7,0.6,2.5c0.4,1.5,0.8,3.1,1.1,4.6c0,0.1,0,0.4,0.2,0.4
	c0.2,0,0.2-0.2,0.2-0.4c0.5-2,1-4.1,1.5-6.1c0.1-0.3,0.2-0.7,0.2-1c0.1-0.5,0.4-0.7,0.9-0.7c1.7,0,3.4,0,5.1,0
	c0.6,0,0.8,0.2,0.8,0.8c0,0.7,0,1.5,0,2.2c0,4.5,0,8.9,0,13.4c0,0.1,0,0.2,0,0.3c0,0.6-0.2,0.8-0.8,0.8c-0.9,0-1.8,0-2.6,0
	c-0.7,0-0.9-0.2-0.9-0.9c0-2.4,0-4.8,0-7.2c0-0.8,0-1.5,0-2.3c0-0.1,0.1-0.4-0.1-0.4c-0.2,0-0.2,0.2-0.2,0.3
	c-0.5,1.8-0.9,3.7-1.3,5.5c-0.3,1.4-0.7,2.8-1,4.2c-0.1,0.5-0.4,0.7-0.9,0.7c-0.5,0-1,0-1.4,0c-0.7,0-0.9-0.2-1-0.8
	c-0.5-1.9-0.9-3.9-1.4-5.8c-0.3-1.3-0.6-2.6-0.9-3.9c0-0.1,0-0.3-0.2-0.3c-0.2,0-0.1,0.2-0.1,0.4c0,3.1,0,6.3,0,9.4c0,0.8-0.2,1-1,1
	c-0.8,0-1.6,0-2.4,0c-0.1,0-0.2,0-0.3,0c-0.4-0.1-0.6-0.3-0.6-0.7c0-0.1,0-0.2,0-0.3C95.8,23,95.8,20.4,95.8,17.8z"/>
<path style="fill:#FFFFFF;" d="M102.8,39.4c0,2.6,0,5.2,0,7.8c0,0.1,0,0.2,0,0.3c0,0.4-0.2,0.6-0.6,0.7c-0.1,0-0.2,0-0.3,0
	c-1.1,0-2.2,0-3.3,0c-0.7,0-0.9-0.1-1.1-0.8c-1.1-2.6-2.1-5.2-3.2-7.8c-0.1-0.1-0.1-0.3-0.2-0.4c0,0-0.1-0.1-0.1-0.1
	c-0.1,0-0.1,0.1-0.1,0.1c0,0.1,0,0.3,0,0.4c0,2.5,0,5.1,0,7.6c0,0.8-0.2,1-1,1c-0.8,0-1.6,0-2.4,0c-0.2,0-0.3,0-0.5,0
	c-0.2-0.1-0.4-0.2-0.4-0.5c0-0.2,0-0.3,0-0.5c0-5.2,0-10.4,0-15.6c0-0.1,0-0.2,0-0.2c0-0.5,0.2-0.7,0.8-0.7c1.2,0,2.5,0,3.7,0
	c0.5,0,0.8,0.3,1,0.7c0.7,1.6,1.3,3.3,2,4.9c0.4,1,0.8,2.1,1.3,3.1c0.1,0.1,0.1,0.3,0.2,0.3c0.2,0,0.1-0.2,0.1-0.4
	c0-2.6,0-5.1,0-7.7c0-0.8,0.2-1,1-1c0.8,0,1.6,0,2.4,0c0.1,0,0.3,0,0.4,0c0.3,0,0.5,0.2,0.6,0.6c0,0.1,0,0.3,0,0.4
	C102.8,34.2,102.8,36.8,102.8,39.4z"/>
<path style="fill:#FFFFFF;" d="M66.1,39.4c0-2.6,0-5.2,0-7.7c0-0.1,0-0.1,0-0.2c0-0.7,0.2-0.9,0.9-0.9c0.9,0,1.7,0,2.6,0
	c0.1,0,0.3,0,0.4,0c0.3,0,0.4,0.2,0.5,0.5c0,0.2,0,0.3,0,0.5c0,1.5,0,3,0,4.5c0,0.1,0,0.2,0,0.3c0,0.1,0.1,0.2,0.2,0.1
	c0.1-0.1,0.1-0.2,0.2-0.2c1.2-1.7,2.5-3.4,3.7-5.1c0.3-0.4,0.7-0.6,1.2-0.6c1.1,0,2.2,0,3.3,0c0.1,0,0.3,0,0.4,0
	c0.4,0.1,0.6,0.3,0.4,0.7c-0.1,0.2-0.2,0.3-0.3,0.4c-1.6,2.2-3.2,4.3-4.7,6.5c-0.1,0.1-0.1,0.2-0.2,0.3c-0.1,0.1-0.1,0.2,0,0.4
	c0.1,0.1,0.1,0.2,0.1,0.2c1.7,2.7,3.5,5.3,5.2,8c0.1,0.1,0.2,0.2,0.2,0.4c0.2,0.4,0,0.6-0.4,0.7c-0.1,0-0.3,0-0.4,0
	c-1.1,0-2.3,0-3.4,0c-0.5,0-0.9-0.2-1.1-0.6c-1-1.5-1.9-3-2.9-4.5c-0.3-0.4-0.3-0.4-0.6,0c-0.3,0.4-0.5,0.7-0.8,1.1
	c-0.2,0.2-0.2,0.4-0.2,0.7c0,0.8,0,1.5,0,2.3c0,0.1,0,0.2,0,0.3c0,0.5-0.2,0.7-0.7,0.7c-1,0-1.9,0-2.9,0c-0.5,0-0.7-0.3-0.7-0.8
	c0-1.4,0-2.9,0-4.3C66.1,41.8,66.1,40.6,66.1,39.4z"/>
<path style="fill:#FFFFFF;" d="M105.3,39.4c0-1.1,0-2.2,0-3.4c0-0.7,0.1-1.4,0.3-2.1c0.5-1.7,1.7-2.9,3.4-3.4c1.7-0.5,3.3-0.5,5,0
	c2,0.6,3.2,1.9,3.7,3.9c0.1,0.4,0.2,0.8,0.2,1.2c0,0.4-0.2,0.7-0.6,0.8c-1,0.2-2,0.5-3,0.7c-0.4,0.1-0.6-0.1-0.7-0.5
	c-0.1-0.2-0.1-0.5-0.1-0.7c-0.2-0.8-0.7-1.3-1.5-1.3c-0.4,0-0.7,0-1.1,0.1c-0.5,0.1-0.8,0.4-1,0.9c-0.1,0.3-0.2,0.6-0.2,0.9
	c-0.1,1.5,0,3.1,0,4.6c0,0.5,0,1,0.1,1.5c0,0.3,0.1,0.6,0.2,0.8c0.2,0.5,0.5,0.8,1,0.9c0.5,0.1,1,0.1,1.5,0c0.7-0.2,1-0.7,1.1-1.4
	c0-0.3,0.2-0.7,0-0.9c-0.2-0.2-0.5-0.1-0.8-0.1c-0.2,0-0.5,0-0.7,0c-0.4,0-0.7-0.3-0.7-0.7c0-0.7,0-1.4,0-2.1c0-0.5,0.2-0.7,0.7-0.7
	c0.1,0,0.2,0,0.3,0c1.5,0,3.1,0,4.6,0c0.1,0,0.3,0,0.4,0c0.3,0.1,0.5,0.2,0.6,0.6c0,0.1,0,0.1,0,0.2c0,1.3,0,2.7,0,4
	c0,0.6-0.1,1.3-0.3,1.9c-0.5,1.6-1.6,2.7-3.3,3.2c-1.8,0.6-3.6,0.6-5.4,0c-1.9-0.6-3-1.9-3.4-3.8c-0.2-0.7-0.2-1.4-0.2-2.1
	C105.3,41.3,105.3,40.4,105.3,39.4C105.3,39.4,105.3,39.4,105.3,39.4z"/>
<path style="fill:#FFFFFF;" d="M65.9,17.8c0-1.1,0-2.3,0-3.4c0-0.7,0.1-1.4,0.3-2.1c0.5-1.8,1.7-2.9,3.4-3.4c1.7-0.5,3.4-0.5,5.1,0
	c2,0.6,3.1,1.9,3.6,3.8c0.1,0.4,0.2,0.8,0.2,1.2c0,0.6-0.1,0.8-0.7,0.9c-0.8,0.2-1.5,0.3-2.3,0.5c-0.2,0-0.4,0.1-0.5,0.1
	c-0.4,0.1-0.7-0.1-0.8-0.5c-0.1-0.3-0.1-0.5-0.1-0.8c-0.2-0.7-0.6-1.1-1.4-1.2c-0.3,0-0.7,0-1,0c-0.6,0.1-1,0.4-1.2,1
	c-0.1,0.3-0.2,0.6-0.2,0.9c-0.1,1.9-0.1,3.9,0,5.8c0,0.3,0.1,0.6,0.2,0.9c0.2,0.6,0.5,0.9,1.1,1c0.5,0.1,0.9,0.1,1.4,0
	c0.6-0.1,1-0.5,1.2-1.1c0.1-0.3,0.1-0.7,0.1-1c0-0.1,0-0.2-0.2-0.2c-0.4,0-0.8,0-1.2,0c-0.6,0-0.9-0.2-0.9-0.9c0-0.6,0-1.2,0-1.8
	c0-0.6,0.2-0.9,0.9-0.9c1.6,0,3.2,0,4.8,0c0.6,0,0.8,0.2,0.8,0.8c0,1.4,0,2.8,0,4.1c0,0.6-0.2,1.2-0.3,1.7c-0.6,1.7-1.8,2.8-3.6,3.3
	c-1.6,0.4-3.1,0.4-4.7,0c-2.1-0.6-3.3-1.9-3.8-4c-0.1-0.5-0.2-1-0.2-1.6C65.9,20,65.9,18.9,65.9,17.8z"/>
<path style="fill:#FFFFFF;" d="M115.9,17.7c0-2.6,0-5.2,0-7.8c0-0.1,0-0.3,0-0.4c0-0.3,0.2-0.5,0.5-0.6c0.1,0,0.3,0,0.4,0
	c3.4,0,6.8,0,10.2,0c0.1,0,0.1,0,0.2,0c0.6,0,0.8,0.2,0.8,0.8c0,0.9,0,1.8,0,2.7c0,0.6-0.3,0.8-0.8,0.8c-1.9,0-3.8,0-5.8,0
	c-0.1,0-0.3,0-0.4,0c-0.4,0.1-0.5,0.3-0.6,0.6c0,0.3,0,0.6,0,1c0,0.4,0.3,0.7,0.7,0.7c0.1,0,0.2,0,0.3,0c1.2,0,2.3,0,3.5,0
	c0.1,0,0.3,0,0.4,0c0.3,0.1,0.4,0.2,0.5,0.5c0,0.1,0,0.3,0,0.4c0,0.8,0,1.6,0,2.4c0,0.1,0,0.2,0,0.3c0,0.4-0.2,0.6-0.6,0.6
	c-0.1,0-0.2,0-0.3,0c-1.1,0-2.3,0-3.4,0c-0.1,0-0.2,0-0.3,0c-0.4,0-0.6,0.2-0.6,0.6c0,0.4,0,0.7,0,1.1c0,0.3,0.2,0.5,0.5,0.6
	c0.2,0,0.3,0,0.5,0c1.9,0,3.7,0,5.6,0c0.7,0,1,0.2,1,1c0,0.8,0,1.6,0,2.4c0,0.1,0,0.3,0,0.4c-0.1,0.3-0.2,0.5-0.6,0.5
	c-0.1,0-0.3,0-0.4,0c-3.3,0-6.7,0-10,0c-0.8,0-1-0.2-1-1C115.9,23,115.9,20.4,115.9,17.7z"/>
<path style="fill:#FFFFFF;" d="M136.4,26.9c-1.1,0-2-0.1-3-0.5c-1.9-0.7-3-2.1-3.5-4.1c-0.1-0.3-0.1-0.6-0.1-0.8
	c0-0.5,0.1-0.7,0.6-0.8c1-0.2,2-0.4,2.9-0.7c0.4-0.1,0.7,0.1,0.8,0.5c0,0.1,0,0.1,0,0.2c0.2,1.3,1.2,1.9,2.3,1.8
	c0.5,0,0.9-0.1,1.3-0.4c0.8-0.5,0.8-1.2,0.1-1.7c-0.3-0.3-0.7-0.4-1-0.6c-0.8-0.3-1.7-0.7-2.5-1c-0.6-0.3-1.2-0.6-1.8-0.9
	c-1.7-1.2-2.5-2.8-2.2-4.8c0.3-2.1,1.5-3.5,3.5-4.2c1-0.3,2.1-0.4,3.1-0.4c0.9,0.1,1.8,0.2,2.6,0.6c1.9,0.8,3,2.3,3.3,4.4
	c0,0.1,0,0.1,0,0.2c0,0.5-0.2,0.8-0.7,0.9c-0.5,0.1-0.9,0.2-1.4,0.3c-0.4,0.1-0.9,0.2-1.3,0.3c-0.1,0-0.2,0-0.3,0
	c-0.3,0-0.4-0.1-0.5-0.4c0-0.1-0.1-0.2-0.1-0.3c-0.3-1.3-1.9-2.1-3.1-1.4c-0.7,0.4-0.7,1-0.2,1.5c0.3,0.2,0.6,0.4,1,0.6
	c0.7,0.3,1.5,0.6,2.2,0.9c0.7,0.3,1.4,0.6,2.1,1.1c0.5,0.3,1,0.7,1.4,1.2c0.8,0.9,1.2,2,1.2,3.3c0,0.4-0.1,0.8-0.3,1.2
	c-0.7,2-2.2,3.2-4.2,3.7C137.9,26.9,137.1,26.9,136.4,26.9z"/>
<path style="fill:#FFFFFF;" d="M82.4,39.4c0-2.5,0-5.1,0-7.6c0-0.1,0-0.2,0-0.2c0-0.7,0.2-0.9,0.9-0.9c0.8,0,1.6,0,2.4,0
	c0.1,0,0.3,0,0.4,0c0.2,0,0.4,0.2,0.4,0.4c0,0.2,0,0.3,0,0.5c0,5.2,0,10.4,0,15.7c0,0.1,0,0.2,0,0.3c0,0.4-0.3,0.7-0.7,0.7
	c-1,0-1.9,0-2.9,0c-0.4,0-0.7-0.3-0.7-0.7c0-0.1,0-0.2,0-0.3C82.4,44.5,82.4,42,82.4,39.4z"/>
<path style="fill:#FFFFFF;" d="M93.1,15c0-0.8-0.1-1.6-0.2-2.5c-0.4-1.9-1.5-3.2-3.4-3.6c-1.7-0.4-3.5-0.4-5.2,0
	c-1.8,0.5-2.8,1.6-3.2,3.4c-0.2,0.8-0.2,1.6-0.2,2.5c0,3.6,0,7.2,0,10.8c0,0.1,0,0.3,0,0.4c0.1,0.3,0.3,0.5,0.6,0.6
	c0.1,0,0.2,0,0.3,0c0.9,0,1.7,0,2.6,0c0.1,0,0.2,0,0.3,0c0.3-0.1,0.5-0.2,0.6-0.5c0-0.1,0-0.3,0-0.4c0-0.6,0-1.3,0-1.9
	c0-0.6,0.2-0.8,0.8-0.8c0.7,0,1.4,0,2.1,0c0.6,0,0.8,0.2,0.8,0.8c0,0.2,0,0.4,0,0.6c0,0.5,0,1,0,1.5c0,0.5,0.2,0.7,0.7,0.8
	c0.1,0,0.2,0,0.3,0c0.7,0,1.5,0,2.2,0c0.8,0,1-0.2,1-1.1c0-2,0-3.9,0-5.9C93.1,18.1,93.1,16.5,93.1,15z M88.8,17.7
	c0,0.7-0.2,0.9-0.9,0.9c-0.6,0-1.3,0-1.9,0c-0.7,0-0.9-0.2-0.9-0.9c0-0.5,0-1,0-1.5c0,0,0,0,0,0c0-0.5,0-1.1,0-1.6
	c0-0.8,0.4-1.2,1.2-1.3c0.5,0,1-0.1,1.5,0.1c0.5,0.1,0.8,0.4,0.8,0.9c0,0.2,0.1,0.5,0.1,0.7C88.8,15.9,88.8,16.8,88.8,17.7z"/>
<path style="fill:#FFFFFF;" d="M133,36.1c0-0.6-0.1-1.3-0.2-1.9c-0.4-1.7-1.4-2.8-3.1-3.3c-0.6-0.2-1.3-0.3-2-0.3
	c-2.1-0.1-4.2,0-6.3,0c-0.6,0-1,0.1-1,1c0,2.6,0,5.2,0,7.8c0,2.7,0,5.3,0,8c0,0.6,0.2,0.8,0.8,0.8c1.9,0,3.9,0,5.8,0
	c0.8,0,1.6-0.1,2.4-0.3c1.8-0.4,2.9-1.5,3.3-3.3c0.2-0.6,0.2-1.3,0.2-2C133,40.4,133,38.3,133,36.1z M128.5,42.9
	c-0.1,0.5-0.4,0.7-0.9,0.8c-0.4,0.1-0.8,0.1-1.2,0.1c-0.3,0-0.6,0-0.9,0c-0.6,0-0.8-0.2-0.8-0.8c0-1.2,0-2.4,0-3.6
	c0-1.1,0-2.2,0-3.4c0-0.1,0-0.2,0-0.2c0-0.7,0.2-0.9,0.9-0.9c0.6,0,1.2,0,1.9,0c0.7,0.1,1,0.3,1.1,1c0,0.2,0,0.4,0,0.7
	c0,1.8,0,3.7,0,5.5C128.6,42.4,128.5,42.7,128.5,42.9z"/>
<path style="fill:#FFFFFF;" d="M147.9,36.5c0-0.7,0-1.4-0.2-2.1c-0.4-2-1.6-3.3-3.5-3.9c-1.7-0.5-3.5-0.5-5.2,0
	c-1.7,0.5-2.8,1.6-3.4,3.3c-0.2,0.7-0.3,1.4-0.3,2.1c0,2.3,0,4.6,0,6.8c0,0.5,0.1,1.1,0.2,1.6c0.4,1.9,1.5,3.3,3.4,3.8
	c1.8,0.6,3.6,0.6,5.4,0c1.6-0.5,2.7-1.7,3.2-3.3c0.2-0.7,0.3-1.4,0.3-2.1c0-1.1,0-2.2,0-3.4c0,0,0,0,0,0
	C147.9,38.4,147.9,37.5,147.9,36.5z M143.5,42.4c0,0.3-0.1,0.6-0.2,0.9c-0.2,0.5-0.5,0.8-1,0.9c-0.5,0.1-1,0.1-1.6,0
	c-0.5-0.1-0.8-0.4-1-0.9c-0.1-0.3-0.2-0.6-0.2-0.9c-0.1-2-0.1-4,0-6c0-0.3,0.1-0.6,0.2-0.8c0.2-0.6,0.5-0.9,1.1-1
	c0.5-0.1,1-0.1,1.5,0c0.5,0.1,0.8,0.4,1,0.9c0.1,0.3,0.1,0.6,0.2,0.9c0.1,1,0,2,0.1,3.1C143.5,40.4,143.6,41.4,143.5,42.4z"/>
</svg>
