<?xml version="1.0" encoding="utf-8"?>
<!-- Generator: Adobe Illustrator 25.3.1, SVG Export Plug-In . SVG Version: 6.00 Build 0)  -->
<svg version="1.1" id="Layer_1" xmlns="http://www.w3.org/2000/svg" xmlns:xlink="http://www.w3.org/1999/xlink" x="0px" y="0px"
	 viewBox="0 0 358.8 60.6" style="enable-background:new 0 0 358.8 60.6;" xml:space="preserve">
<path style="fill:#FFFFFF;" d="M117.4,57.5c0-12.1,0-24.2,0-36.3c0-0.2,0-0.4,0.1-0.6c2.5-0.3,4.9-0.5,7.5-0.8c0,1.6,0,3,0,4.9
	c0.6-0.7,0.9-1.2,1.3-1.6c2.7-3.2,7.3-4.2,11.6-2.3c5.2,2.2,7.9,6.4,8.7,11.8c1,7.1-3.7,14.2-10.7,15.8c-1.9,0.4-4,0.3-5.9,0.1
	c-1.7-0.2-3.1-1.1-4.4-2.7c0,3.9,0,7.4,0,11c-2.4,0.3-4.7,0.6-7,0.9C118.2,57.5,117.8,57.5,117.4,57.5z M131.8,27.1
	c-3.6,0-6.7,3.3-6.7,7c0,3.8,3.1,7.1,6.7,7.1c3.6,0,6.7-3.3,6.7-7C138.5,30.4,135.4,27.1,131.8,27.1z"/>
<path style="fill:#FFFFFF;" d="M199.2,57.5c-2-0.2-3.9-0.5-5.9-0.7c-0.4,0-0.8-0.1-1.3-0.1c0.2-0.5,0.4-0.9,0.6-1.3
	c1.6-3.1,3.1-6.3,4.7-9.4c0.4-0.8,0.4-1.5,0-2.3c-3.1-6.8-6.1-13.6-9.1-20.5c-0.2-0.5-0.4-0.9-0.7-1.5c2.7-0.7,5.3-1.3,8-2
	c2.2,5.3,4.3,10.6,6.6,16.1c2.2-5.5,4.4-10.7,6.5-16.1c2.7,0.6,5.3,1.3,7.9,1.9c0,0.2,0,0.3,0,0.5c-0.2,0.3-0.4,0.5-0.5,0.8
	c-5,11.2-10.1,22.5-15.1,33.7c-0.1,0.3-0.2,0.6-0.3,0.9C200.1,57.5,199.7,57.5,199.2,57.5z"/>
<path style="fill:#FFFFFF;" d="M99.7,57.5c-2-0.2-4-0.5-6-0.7c-0.4,0-0.7-0.1-1.3-0.1c0.2-0.5,0.3-0.9,0.5-1.2
	c1.6-3.1,3.1-6.3,4.7-9.4c0.4-0.8,0.5-1.5,0.1-2.3c-3.1-6.9-6.2-13.9-9.3-20.8c-0.2-0.4-0.3-0.7-0.5-1.2c2.7-0.7,5.3-1.3,8-2
	c2.2,5.3,4.4,10.6,6.6,16.1c2.2-5.5,4.4-10.7,6.5-16.1c2.6,0.7,5.2,1.3,7.9,2c-5.4,12-10.7,23.9-16,35.8
	C100.5,57.5,100.1,57.5,99.7,57.5z"/>
<path style="fill:#FFFFFF;" d="M24.7,10.8c10.7,0,19.3,8.3,19.3,18.8c0,10.5-8.6,19-19.3,19c-10.6,0-19.3-8.5-19.3-18.9
	C5.4,19.2,14,10.8,24.7,10.8z M24.8,40.3c5.5,0,10.3-5,10.3-10.7c0-5.7-4.8-10.7-10.4-10.7c-5.5,0-10.3,5-10.3,10.7
	C14.4,35.4,19.2,40.4,24.8,40.3z"/>
<path style="fill:#FFFFFF;" d="M72,47.4c-2.7,0.3-5.3,0.5-8.1,0.8c0-0.5,0-1,0-1.4c0-4.9,0-9.7,0-14.6c0-0.7,0-1.4-0.1-2
	c-0.4-2-1.8-3.1-3.9-3.1c-2.1,0-3.5,1-3.9,3.1c-0.1,0.7-0.2,1.3-0.2,2c0,4.6,0,9.2,0,13.7c0,0.4,0,0.9,0,1.4
	c-2.8,0.3-5.4,0.6-8.1,0.8c0-9.3,0-18.4,0-27.6c2.4-0.3,4.9-0.5,7.4-0.8c0,1.3,0,2.5,0,3.9c0.3-0.1,0.4-0.2,0.4-0.2
	c2.7-3.6,6.2-4.3,10.3-3.2c4,1.1,5.9,4.2,6.1,8C72.3,34.5,72,40.9,72,47.4z"/>
<path style="fill:#FFFFFF;" d="M166.7,28.2c0.4-2.4,0.7-4.6,1.1-6.8c0-0.3,0.4-0.6,0.7-0.6c4-1.1,8-1.5,12-0.3c3.8,1.2,6,4,6.1,7.9
	c0.1,6.2,0,12.3,0,18.5c0,0.1,0,0.2-0.1,0.5c-2.3,0.3-4.6,0.6-7.1,0.8c0-0.9,0-1.6,0-2.8c-1.8,2.5-4.2,3.2-6.8,3.2
	c-2.4,0-4.6-0.5-6.5-2.1c-3.2-2.7-4.1-8.7-1.8-12.4c2.8-4.4,7.9-5.2,14.4-2.4c0.7-3-0.8-4.9-3.8-5.1C172.3,26.4,169.6,27,166.7,28.2
	z M175,35.2c-1.9,0-3.4,0.8-3.9,2.3c-0.5,1.4-0.1,3,1.1,3.9c1.4,1.1,3.9,1.2,5.4,0.1c1.3-0.9,1.8-2.4,1.3-3.9
	C178.4,36.1,177,35.2,175,35.2z"/>
<path style="fill:#FFFFFF;" d="M85.9,47.3c-2.7,0.3-5.3,0.5-8,0.8c0-12.4,0-24.7,0-37.2c2.7-0.3,5.3-0.6,8-0.8
	C85.9,22.6,85.9,34.9,85.9,47.3z"/>
<path style="fill:#FFFFFF;" d="M159.1,47.3c-0.2,0-0.4,0.1-0.6,0.1c-2.4,0.2-4.8,0.5-7.4,0.8c0-12.4,0-24.7,0-37.2
	c2.6-0.3,5.2-0.6,8-0.8C159.1,22.6,159.1,34.9,159.1,47.3z"/>
</svg>
