<?xml version="1.0" encoding="utf-8"?>
<!-- Generator: Adobe Illustrator 24.1.2, SVG Export Plug-In . SVG Version: 6.00 Build 0)  -->
<svg version="1.1" id="Layer_1" xmlns="http://www.w3.org/2000/svg" xmlns:xlink="http://www.w3.org/1999/xlink" x="0px" y="0px"
	 viewBox="0 0 1041.9 241" style="enable-background:new 0 0 1041.9 241;" xml:space="preserve">
<style type="text/css">
	.st0{fill:#FFFFFF;}
</style>
<path class="st0" d="M309.9,157c-0.1,10.1-3.5,19.3-6.8,28.5c-0.4,1-1.8,1.8-2.9,2.3c-17.6,8.7-36.3,13.5-55.5,16.5
	c-35.2,5.5-70.5,5.3-105.9,3.6c-17.7-0.8-35.3-2.4-52.5-6.9c-4.8-1.3-9.6-3.3-14-5.6c-4.3-2.3-4.8-6.2-1.2-9.7
	c3-2.9,6.6-5.2,9.9-7.7c0.3,0.3,0.5,0.5,0.8,0.8c-0.5,0.8-1,1.6-1.5,2.4c-1.9,2.7-1.6,5.4,1,7.2c2.4,1.7,5,3.6,7.8,4.1
	c8,1.6,16.1,2.7,24.2,3.9c0.7,0.1,1.4-0.4,2.8-0.8c-3.9-4.6-7.5-8.8-11-13c-20.3-24.7-36.4-51.7-45.1-82.7
	c-5.5-19.7-8.8-39.7-4.8-60.2C58.1,23.7,67.6,16,84.1,15.5c11.3-0.3,22.1,1.9,32.5,5.8c23.3,8.5,46.3,17.9,69.8,26
	c52,18.1,100.1,10,144.2-22.8c0.3-0.2,0.7-0.3,1.4-0.7c12,22.2,9.6,44.6,0.9,67c0-0.6-0.1-1.3,0-1.9c0.1-0.8,0.4-1.5,0.6-2.3
	c4-15.3,4-30.6-0.4-45.9c-1.3-4.3-2.5-4.7-6.4-2.4c-24.5,14.4-50.6,24.3-79,27.4c-19.6,2.1-38.9-0.7-58.1-4.7
	c-25.5-5.4-49.5-14.9-73.6-24.5c-9.1-3.6-18.6-6.3-28.5-5.1c-11.7,1.4-20.2,9.7-22.2,21.4c-2.1,12.4-0.9,24.7,1.6,36.9
	c4.6,22.8,12.6,44.4,26.5,63.2c9.2,12.4,20.8,21.8,34.4,29.4c21.3,11.8,44.1,16.5,68,17.3c33.9,1.1,66.5-5.4,98.3-16.4
	c2.4-0.8,5-2.8,6.2-4.9c3-5.4,5.4-11.2,8-16.9C308.9,160,309.4,158.5,309.9,157z"/>
<path class="st0" d="M33,168.9c-3.1,2.4-6.5,4.6-9.3,7.4c-2.7,2.6-5.3,5.4-7.2,8.6c-3.8,6.4-2.4,12,3.8,16.2
	c8.9,6,19.1,8.9,29.3,11.5c21.8,5.6,44.1,8.6,66.5,10.9c31.3,3.1,62.6,4.1,94,2.9c19.5-0.8,39-2.1,58.4-4.1
	c31.3-3.2,62.4-8.5,92-19.7c9.4-3.6,18.3-8.8,27-13.8c3.4-1.9,6.1-5.3,8.6-8.4c4.1-5.1,4.3-9.9-0.6-14.3
	c-5.4-4.8-11.8-8.5-17.8-12.5c-2.2-1.5-4.8-2.5-7.1-3.7c0.2-0.4,0.4-0.9,0.5-1.3c7.6,3,15.3,5.6,22.7,9.1c4.4,2.1,8.5,5.1,12,8.5
	c6.1,5.8,6.3,11.9,1.2,18.8c-4.9,6.6-11.8,10.6-18.8,14.2c-18.1,9.3-37.5,14.7-57.1,19.3c-25.3,6-51,10.4-76.9,12.5
	c-24.6,2.1-49.3,3.4-73.9,4.8c-9.2,0.5-18.5,0.8-27.7,0.4c-35.1-1.2-70.2-3-104.6-11.1c-12.8-3-25.6-6.4-36.7-13.9
	c-13.9-9.4-15-18.2-2.4-29.3C15.8,175.8,24,171.7,33,168.9z"/>
<path class="st0" d="M507.3,82.8c-4,9.5-8.1,19-12.1,28.6c-1.4,3.2-2.6,6.5-4.1,9.6c-0.5,1-1.9,1.6-2.8,2.4
	c-0.2-0.3-0.4-0.5-0.6-0.8c0.7-3.6,1.6-7.2,1.9-10.9c0.3-3.4-2.3-6.4-5.8-6.6c-5.8-0.4-11.7-0.6-17.5-0.6c-1.1,0-2.6,1.2-3.1,2.2
	c-6.1,13.6-12,27.3-18,40.9c-1.8,4.1-0.5,7.9,4.9,7.6c9.2-0.6,18.5,0,27.6-1.3c14-2.1,23.6-11.2,31.7-22.2c0.8-1.1,2.2-1.9,3.3-2.8
	c0.3,0.3,0.6,0.6,1,0.9c-4.2,8.4-8.8,16.7-12.5,25.3c-2.2,5.1-5.1,6.4-10.5,6.3c-24.2-0.3-48.4-0.1-72.7-0.1c-2,0-3.9,0-5.9,0
	c-0.3-4.1,3.3-3.7,5.1-3.7c7.4,0,11.1-4.6,13.7-10.4c8.8-19.6,17.3-39.3,25.9-59c3.6-8.2,7-16.4,10.5-24.6c0.1-0.4,0.3-0.7,0.5-1.1
	c2.7-8.4,1-10.8-7.9-11.4c-0.6,0-1.3-0.2-1.9-0.3c-0.1-3,1.9-2.9,3.9-2.9c23,0,46.1,0,69.2,0c2.7,0,5.5,0,9.1,0
	c-4,9.3-7.7,18-11.5,26.7c-0.2,0.5-1.5,0.5-2.8,0.8c0.3-2,0.5-3.4,0.8-4.9c1.7-8.3-1.8-14.7-10.1-15.6c-9.4-1-18.9-0.6-28.3-0.6
	c-1,0-2.6,1.2-3,2.2c-5.5,12.3-11,24.6-16.3,37c-0.6,1.5-0.7,3.2-1.3,5.9c7.9-0.8,15-1,21.9-2.5c6.6-1.4,10.2-7,13.6-12.5
	c0.7-1.1,2.1-1.9,3.1-2.8C506.5,82,506.9,82.4,507.3,82.8z"/>
<path class="st0" d="M601.9,196.3c-1.1,0.6-2.2,1.7-3.4,1.8c-12,0.1-23.9,0.1-37.3,0.1c1.5-1.6,2.1-2.5,3-3.2
	c0.5-0.4,1.2-0.4,1.9-0.4c6.4-0.4,10.3-3.9,12.8-9.6c5.7-13.1,11.5-26.1,17.3-39.1c6-13.7,12-27.5,18-41.2c0.9-2,1.7-4.1,2.3-6.2
	c1-3.5-0.6-5.6-4.1-5.8c-2-0.1-4.1,0-7.1,0c0.9-1.2,1.5-2.8,2.4-2.9c8.8-1.5,17.6-2.8,27.1-4.3c-2.2,5.4-4.3,10.3-6.3,15.2
	c0.4,0.3,0.8,0.6,1.2,0.9c1.5-1.2,3-2.4,4.4-3.6c6.1-5.4,12.5-10.1,20.6-11.9c11.9-2.6,20.1,3.7,20.3,15.8c0.2,8.3-2.5,15.9-6.5,23
	c-8.3,14.8-19,27.4-34.7,34.7c-9.3,4.3-19,5.9-28.9,1.1c-0.8-0.4-3.1,0.7-3.5,1.6c-3.8,8.4-7.5,16.8-10.9,25.4
	c-1.5,3.6,0.1,5.9,4,6.8c1.1,0.3,2.3,0.4,3.5,0.5c1.1,0.1,2.3,0.2,3.4,0.4C601.6,195.5,601.7,195.9,601.9,196.3z M660.8,107.2
	c0.5-11.8-5.2-16.1-13.9-12.9c-9.7,3.5-17,10.4-21.9,19c-7,12.3-12.7,25.4-18.8,38.3c-0.4,0.9,0.3,3,1.2,3.8
	c4.6,4.5,12.6,5.3,19.3,2.2c9.6-4.5,16.3-12.2,22-20.9C654.9,126.8,660.1,116.5,660.8,107.2z"/>
<path class="st0" d="M970.9,163.3c-15.6,0.2-25.1-10.2-22.1-27c4.3-24.4,26.4-46.3,50.8-50.4c8.3-1.4,16.4-0.4,22.5,6.6
	c4.8,5.6,5.4,12.3,4.4,19c-3.3,23.8-25,46.5-48.5,51.1C975.6,163,973.3,163,970.9,163.3z M961.7,143.7c-0.3,8.9,1.5,12.8,6.9,14.6
	c4.4,1.5,8.9,1.1,13.1-1.3c7.4-4.1,12.5-10.4,17.2-17.2c7.8-11.2,13.4-23.3,14.6-37c0.9-9.7-4.7-15.1-14.1-13.4
	c-3.4,0.6-6.9,2.4-9.7,4.4c-9.6,7.1-15.8,17-21.1,27.5C964.8,129,962.1,136.9,961.7,143.7z"/>
<path class="st0" d="M801.3,143.7c-9.7,8.3-19.9,16-32.7,18.6c-4.7,1-9.9,1-14.7,0.1c-11.5-2.2-15.4-14.9-13.8-23
	c3.8-20.7,16-35.6,33.4-46.6c8.7-5.5,18.4-8.2,28.9-7.2c4.5,0.4,8.8,1.4,11,6.1c2.3,4.9,0.6,9.3-2.2,13.4
	c-7.9,11.6-19.9,16.6-32.7,20.2c-5.7,1.6-11.7,2.4-17.5,3.2c-5.1,0.8-8.5,7.7-6.5,13.9c3.4,10.8,12.6,15.3,23.2,10.8
	c6.7-2.9,13-6.7,19.5-10c1.2-0.6,2.5-0.8,3.8-1.1C801.1,142.6,801.2,143.1,801.3,143.7z M757.4,124.7c2.4,0,4.1,0.3,5.6-0.1
	c5.2-1.2,10.5-2.1,15.3-4.1c9.4-3.8,17.8-9.1,22.6-18.6c1.7-3.4,2.9-7,0.5-10.3c-2.6-3.5-6.8-2.5-10.5-2.1c-0.4,0-0.7,0.3-1.1,0.5
	C773.3,95.7,764.5,108.8,757.4,124.7z"/>
<path class="st0" d="M591.8,85.9c-2.6,7.8-5.1,15.6-7.9,23.3c-0.3,0.8-1.9,1-3.5,1.9c0-4,0.2-7.1,0-10.2
	c-0.4-6.9-5.6-11.3-10.9-11.5c-7.2-0.2-12.6,3.6-12.9,10.5c-0.1,3.3,1.6,7,3.3,10c2.5,4.7,5.8,8.9,8.6,13.4c5.2,8.4,7,17.1,1.3,26
	c-6.2,9.6-15.1,14.6-26.6,13.8c-4.3-0.3-8.6-1.9-12.7-3.4c-3.4-1.3-5.9-1-8.4,1.6c-1,1-2.3,1.6-3.5,2.4c-0.3-0.3-0.5-0.6-0.8-0.9
	c2.6-8.2,5.2-16.5,8-24.6c0.3-0.9,1.5-1.5,2.2-2.2c0.5,0.9,1.3,1.8,1.4,2.8c0.2,3.1-0.1,6.3,0.4,9.3c0.9,5.6,4.1,9.6,9.8,10.8
	c7,1.4,13.6,0.6,18.1-5.8c3.8-5.3,3.3-11.1,0.2-16.5c-4-7-8.5-13.6-12.3-20.7c-7.1-13.6,4.8-29.4,19.3-30.3
	c5.6-0.4,10.5,1.6,15.3,3.7c3.5,1.5,5.3-0.1,7.5-1.9c1-0.8,2.2-1.4,3.2-2.1C591.2,85.3,591.5,85.6,591.8,85.9z"/>
<path class="st0" d="M805.9,163.8c0.5-2.2,0.7-3.4,1.1-4.6c2.3-7,4.6-14,7-21c0.3-1,1.4-1.6,2.2-2.5c0.5,1,1.2,2,1.3,3.1
	c0.5,3.8,0.3,7.8,1.2,11.5c1.8,8.1,11,10.5,19.6,8.1c7.3-2,12.4-10.4,9.6-17c-3.1-7.2-7.4-13.9-11.5-20.6c-6-9.9-6-18.2,0-26.4
	c6.8-9.3,21-11.3,28.2-6.7c4.1,2.6,8.4,3.5,12-1.4c0.5-0.7,1.9-0.7,3.8-1.3c-2.9,8.6-5.4,16.3-8.2,23.9c-0.3,0.8-1.7,1.3-2.9,2.1
	c-0.4-4.5-0.4-8.3-1-12c-0.9-5.2-4.1-8.6-9.3-9.6c-4.8-0.9-9.2,0.5-12.1,4.5c-3.2,4.5-2.9,9.3,0,13.9c3.2,5,6.6,10,9.7,15
	c5.3,8.4,7.1,17.2,1.7,26.1c-6,9.8-15.2,14.9-26.8,14.1c-3.9-0.3-7.8-1.5-11.6-2.9c-4.9-1.8-6.5-1.7-10.3,2
	C808.7,162.8,807.6,163,805.9,163.8z"/>
<path class="st0" d="M946.2,86.3c-2.5,7.4-4.8,14.7-7.4,22c-0.4,1-1.8,1.7-3.2,3.1c-0.4-4.9-0.5-8.7-1.1-12.4
	c-0.8-5-3.8-8.5-8.9-9.5c-4.7-0.8-9.2,0.2-12.2,4.3c-3.2,4.3-3.3,9-0.5,13.5c3.7,6.1,8,11.9,11.4,18.1c8.9,16.4-2,35.9-20.7,37.5
	c-6.3,0.5-12.3-0.1-18.1-3.1c-3.4-1.8-6.7-1.9-9.1,2c-0.5,0.9-2,1.1-4.2,2.2c1.8-6.1,3.2-11,4.7-15.9c1-3.2,2.1-6.4,3.1-9.5
	c0.6-2,1.6-3.3,4.3-1.8c0,3.5-0.3,7.1,0.1,10.7c0.8,7.3,5.8,11.3,13.1,11.6c6.1,0.2,11.4-0.9,15-6.3c3.4-5,3.1-10.4,0.4-15.4
	c-3.6-6.6-7.8-12.9-11.6-19.4c-4.4-7.6-3.9-15.1,0.8-22.4c5.7-8.8,18.3-12.7,27.8-8.4c1.3,0.6,2.6,1.2,3.8,1.9
	c3.1,1.6,5.6,1,8.1-1.4c1-1,2.4-1.6,3.6-2.5C945.6,85.5,945.9,85.9,946.2,86.3z"/>
<path class="st0" d="M704.9,123.2c2.7-3.6,5.3-7.3,8.1-10.7c7.3-9,14.9-17.7,24.8-24c2.4-1.5,5.4-2.4,8.3-2.8
	c3.2-0.4,5.3,2.1,4.5,4.8c-1.4,4.9-3.6,9.6-6.1,14c-0.7,1.3-3.9,2.2-5.4,1.7c-1.4-0.4-2.7-2.9-3-4.7c-0.7-3.4-2.4-4.7-5.2-2.5
	c-3.5,2.7-6.7,5.7-9.7,9c-13.7,14.8-24.8,31.2-31.8,50.2c-0.9,2.4-2,3.6-4.8,3.3c-2.4-0.3-4.9-0.1-7.4-0.1c-0.4,0-0.7-0.1-1.5-0.3
	c3.6-8.3,7.2-16.4,10.7-24.6c5.2-12.1,10.6-24.2,15.6-36.5c2.2-5.4,0.4-7.4-5.3-7.3c-1.5,0-3.1,0.2-5.9,0.3c1.1-1.6,1.6-3.1,2.4-3.2
	c8.9-1.5,17.8-2.8,27.4-4.3c-5.7,12.8-11.2,25-16.6,37.2C704.2,122.8,704.5,123,704.9,123.2z"/>
<path class="st0" d="M337.3,127.2c6.8-8.1,13.9-16.1,20.4-24.4C370.6,86.3,381.4,68.5,389,49c1.8-4.7,2.8-9.8,3.4-14.7
	c1.2-8.9-3.8-15.3-13.1-16.5c-4.8-0.6-9.8,0.1-14.7,0.4c-2,0.1-4,0.8-6.4,0.3c1.6-0.8,3.2-1.9,4.9-2.5c5.7-2.1,11.3-4.7,17.3-5.9
	c13.6-2.6,25.6,6.1,23.1,22.3c-2,13-8.1,24.4-14.4,35.6C376.1,91.4,358.4,110.8,337.3,127.2z"/>
<path class="st0" d="M676.2,202.8c-3.1,0.3-5.8,0.8-8.5,0.8c-6.8,0-12-5-12.2-11.6c-0.2-6.8,4.8-12.1,11.9-12.1
	c5,0,9.9,0.4,15.1,0.7c0,7.5,0.2,15.2-0.1,22.9c-0.2,4-2.6,7.1-6.6,8.4c-6,1.9-12,2-17.4-2c-1-0.8-1.7-2-2.5-3
	c0.2-0.4,0.3-0.9,0.5-1.3c2.8,0.5,5.7,0.5,8.2,1.5C669.6,208.8,674.5,207.4,676.2,202.8z M669.1,198c4.7,0,7.3-2,7.3-6
	c0.1-4-2.6-6.3-7.4-6.4c-4.2,0-6.6,2-6.7,5.8C662.3,195.8,664.5,198,669.1,198z"/>
<path class="st0" d="M818.9,203.4c0-7.8,0-15.3,0-22.8c5.3-0.2,10.4-0.8,15.4-0.5c2.4,0.1,4.7,1.8,7.5,2.9c2.5-2.9,6.5-3.5,10.8-2.8
	c3.5,0.6,5.7,2.9,5.9,6.3c0.4,5.1,0.3,10.2,0.1,15.2c0,1-1.6,2.5-2.7,2.7c-1.9,0.4-3.5-0.5-3.5-3c0.1-3.5-0.1-7,0-10.5
	c0.1-3.2-1.1-5.3-4.4-5.8c-2.9-0.4-5.6,2.2-5.8,5.6c-0.2,3.4-0.2,6.8-0.1,10.1c0.1,2.5-0.8,3.6-3.3,3.7c-2.9,0.2-3.1-1.6-3.1-3.8
	c-0.1-3.9-0.2-7.8-0.5-11.7c-0.2-2.3-1.4-3.5-3.8-3.4c-2.5,0-5,0.1-5.5,3c-0.6,3.2-0.7,6.4-0.8,9.7
	C824.9,204.2,825,204.2,818.9,203.4z"/>
<path class="st0" d="M763.6,203.3c-0.7,0.3-1.8,1.2-2.3,0.9c-4.2-2.4-8.3,0.2-12.3,0.2c-6.8,0-12.3-5.6-12.3-12.4
	c0-6.8,4.9-12,11.9-12c2.5,0,5,1.5,7.5,1.5c2.3,0,4.7-1.1,7.6-1.9C763.6,187.9,763.6,195.3,763.6,203.3z M750.3,199
	c4.6,0,7.5-2.6,7.6-7c0.1-3.9-3.1-7-7.2-7.1c-4-0.1-7.6,3.2-7.6,7.2C742.9,196,746,198.9,750.3,199z"/>
<path class="st0" d="M918.4,193.5c-0.1,5,4.9,7.7,10.3,5.1c2.9-1.4,4.9-0.7,7.2,0.6c0.1,0,0.1,0.2,0.1,0.3
	c-3.7,5.1-12.1,6.5-18.2,3.2c-5.5-3-8.2-9.2-5.6-14.9c3.3-7.2,7.4-8.8,17.1-7.5c4.5,0.6,10.3,7,8.7,13.2
	C931.5,193.5,925,193.5,918.4,193.5z M931.5,188.4c-4.1-5.2-10.5-4.9-12.7,0.2c2.1,0.2,4.1,0.6,6.2,0.6
	C926.9,189.1,929,188.7,931.5,188.4z"/>
<path class="st0" d="M1008.3,182.7c-2.1,6.4-6.5,1.9-10.1,3.5c0.7,0.9,1.1,1.9,1.9,2.4c1.2,0.8,2.6,1.2,3.9,1.8
	c3.2,1.6,5.6,3.8,4.8,7.9c-0.7,3.3-4,5.8-8.1,6c-3.8,0.2-7.1-1-9.8-4.1c1.2-1.3,2.3-2.4,3.6-3.8c2.7,1.4,5.5,4.4,9.2,0.3
	c-2.2-1.2-3.9-2.4-5.8-3.3c-4.8-2.3-7.2-5.7-6.2-8.7c1.2-3.6,5.4-5.6,10.5-4.6C1004.3,180.6,1006.3,181.8,1008.3,182.7z"/>
<path class="st0" d="M1043.6,108.2c-6.9-0.1-12.4-5.7-12.4-12.7c0-9.3,6.9-12.6,13.9-13c6-0.4,11.7,6.5,11.6,13.2
	C1056.6,102.8,1050.8,108.3,1043.6,108.2z M1043.6,105.8c7.3,0,11.2-3.5,11.2-10c0-6.5-5-11.7-11.1-11.6
	c-6.1,0.1-10.9,5.2-10.9,11.4C1032.9,102.3,1036.6,105.8,1043.6,105.8z"/>
<path class="st0" d="M1046.2,96.7c1.1,1.7,2.2,3.5,3.3,5.2c-0.3,0.3-0.6,0.6-0.9,0.9c-1.9-2-3.8-4-6.1-6.4c-0.5,2.4-0.8,4.3-1.2,6.1
	c-0.4,0-0.8,0-1.1-0.1c0-4.5,0-8.9,0-14.6c2.8,0.9,5.6,1.3,7.6,2.8c0.8,0.6-0.4,3.7-0.7,5.7C1046.7,96.5,1046.5,96.6,1046.2,96.7z
	 M1041.9,94.7c0.4,0.3,0.8,0.5,1.2,0.8c1-1.2,1.9-2.4,2.9-3.6c-1.2-0.7-2.5-1.3-4.1-2.2C1041.9,92,1041.9,93.4,1041.9,94.7z"/>
</svg>
