<?xml version="1.0" encoding="utf-8"?>
<!-- Generator: Adobe Illustrator 25.3.1, SVG Export Plug-In . SVG Version: 6.00 Build 0)  -->
<svg version="1.1" id="Layer_1" xmlns="http://www.w3.org/2000/svg" xmlns:xlink="http://www.w3.org/1999/xlink" x="0px" y="0px"
	 viewBox="0 0 358.8 60.6" style="enable-background:new 0 0 358.8 60.6;" xml:space="preserve">
<path style="fill:#FFFFFF;" d="M53.9,30.9H50c0,0,0,0,0,0h-2.5c-0.2-0.2-0.4-0.3-0.7-0.5c-0.2-0.1-0.3-0.2-0.5-0.3
	c-0.1-0.7-0.5-1.5-1.7-2.2c-0.7-0.4-1.6-0.7-2.7-1c-0.9-0.2-2-0.4-3.1-0.5V6.9h0c0-0.9-0.6-1.7-1.7-2.2C36.2,4.3,35,4,33.8,4
	s-2.4,0.2-3.2,0.7c-1.1,0.5-1.7,1.3-1.7,2.2h0v19.6c-1,0.1-2,0.3-2.9,0.5c-1.1,0.3-2.1,0.6-2.7,1c-1.2,0.7-1.6,1.5-1.7,2.2
	c-0.2,0.1-0.3,0.2-0.5,0.3c-0.2,0.2-0.5,0.3-0.7,0.5h0c0,0,0,0,0,0h-6.6c-2.2,0-4,1.8-4,4v17.5c0,2.2,1.8,4,4,4h40.2
	c2.2,0,4-1.8,4-4V34.9C57.9,32.7,56.1,30.9,53.9,30.9z M53.9,32.7c1.2,0,2.2,1,2.2,2.2v7.2c0,1.2-1,2.2-2.2,2.2H13.7
	c-1.2,0-2.2-1-2.2-2.2v-7.2c0-1.2,1-2.2,2.2-2.2h5.5c0,0.2-0.1,0.4-0.1,0.6c0,0.1,0,0.2,0,0.3c-0.2,0.1-0.4,0.2-0.6,0.3
	c-1.1,0.7-1.7,1.6-1.7,2.5c0,0.3,0.1,0.6,0.2,0.8c-1.1,0.3-2,0.6-2.7,0.8c-0.5,0.2-2.1,0.9-2.1,2.3c0,0.7,0.4,1.7,2.4,2.5
	c1.3,0.5,3,0.7,4.7,0.7c3.3,0,5.6-0.5,8.6-1.9c1.9,0.2,3.8,0.3,5.8,0.3c4.4,0,8.5-0.5,11.6-1.4c1.6-0.5,2.8-1,3.7-1.6
	c1.1-0.7,1.7-1.6,1.7-2.5c0-0.9-0.6-1.8-1.7-2.5c-0.2-0.1-0.4-0.2-0.6-0.3c0-0.1,0-0.2,0-0.3c0-0.2,0-0.4-0.1-0.6L53.9,32.7
	L53.9,32.7z M33.8,5.8c2.1,0,3.1,0.8,3.1,1.1s-1.1,1.1-3.1,1.1c-2.1,0-3.1-0.8-3.1-1.1C30.7,6.6,31.7,5.8,33.8,5.8z M30.6,9.1
	c0.9,0.4,2,0.6,3.2,0.6v20.1c-2.3,0-3-0.9-3.2-1.2V9.1z M28.8,28.3v0.6l0,0.1c0,0.1,0.2,0.8,1,1.4c0.9,0.8,2.2,1.2,3.9,1.2
	c1.7,0,3-0.4,4-1.2c0.7-0.6,0.9-1.3,1-1.4l0-0.1v-0.6c3.5,0.4,5.9,1.3,5.9,2.2c0,1.4-4.8,2.5-10.7,2.5s-10.7-1.1-10.7-2.5
	C23.2,29.5,25.5,28.7,28.8,28.3z M21.9,31.9c0.3,0.4,0.7,0.7,1.3,1.1c0.7,0.4,1.6,0.7,2.7,1c2.1,0.5,5,0.8,8,0.8s5.8-0.3,8-0.8
	c1.1-0.3,2.1-0.6,2.7-1c0.6-0.3,1-0.7,1.3-1.1c0.7,0.4,1,0.9,1,1.3c0,1.9-5.8,3.4-13,3.4s-13-1.5-13-3.4
	C20.9,32.8,21.3,32.3,21.9,31.9z M21,36.1c0.8,0.5,1.9,0.9,3.3,1.3c2.6,0.7,6,1.1,9.7,1.1s7.1-0.4,9.7-1.1c1.4-0.4,2.5-0.8,3.3-1.3
	c0.5-0.3,0.8-0.6,1.1-0.9c0.9,0.5,1.2,1,1.2,1.3c0,0.5-0.9,1.5-4.1,2.4c-3,0.9-6.9,1.3-11.1,1.3c-2,0-4-0.1-5.9-0.3
	c-0.2,0-0.3,0-0.5,0.1c-2.8,1.3-5,1.8-8.1,1.8c-1.5,0-2.9-0.2-4-0.6c-1.1-0.4-1.4-0.7-1.4-0.8c0,0,0.2-0.3,1.2-0.7
	c0.2-0.1,0.4-0.2,0.6-0.2c0.3,0.8,2,1.4,4.1,1.4c2.3,0,4.1-0.7,4.1-1.6v-0.8c0-0.9-1.8-1.6-4.1-1.6c-0.4,0-0.8,0-1.1,0.1
	c-0.1-0.1-0.2-0.3-0.2-0.4c0-0.3,0.3-0.7,1.2-1.3C20.2,35.5,20.5,35.8,21,36.1z M53.9,54.6h-0.5c0.5-0.5,0.8-1.2,0.8-2v-5.1
	c-0.1,0-0.2,0-0.3,0H13.7c0,0,0,0,0,0v5.1c0,0.8,0.3,1.5,0.8,2h-0.8c-1.2,0-2.2-1-2.2-2.2v-7c0.6,0.4,1.4,0.7,2.2,0.7h40.2
	c0.8,0,1.6-0.2,2.2-0.7v7C56.1,53.6,55.1,54.6,53.9,54.6z"/>
<g>
	<path style="fill:#FFFFFF;" d="M93.9,41.4h-5.3l-2.1-5h-9.4l-2.1,5h-5.2l8.5-20.1c0.3-0.7,0.8-1.2,1.4-1.6c0.7-0.4,1.4-0.6,2.1-0.6
		c0.8,0,1.5,0.2,2.1,0.6c0.7,0.4,1.2,0.9,1.4,1.6L93.9,41.4z M85.1,33l-3.3-7.8L78.6,33H85.1z"/>
	<path style="fill:#FFFFFF;" d="M108.9,22.4h-6.7v19h-5v-19h-6.7V19h18.4V22.4z"/>
	<path style="fill:#FFFFFF;" d="M129.6,41.4h-5.3l-2.1-5h-9.4l-2.1,5h-5.2l8.5-20.1c0.3-0.7,0.8-1.2,1.4-1.6
		c0.7-0.4,1.4-0.6,2.1-0.6c0.8,0,1.5,0.2,2.1,0.6c0.7,0.4,1.2,0.9,1.4,1.6L129.6,41.4z M120.8,33l-3.3-7.8l-3.3,7.8H120.8z"/>
	<path style="fill:#FFFFFF;" d="M150.7,41.4h-5.9l-6.9-7.2c-1-1-1.5-1.8-1.5-2.3c0-1,0.5-1.8,1.6-2.4c0,0,0.3-0.1,0.8-0.3
		c0.5-0.2,1.2-0.4,2.2-0.8c2.6-0.9,3.8-2,3.8-3.2c0-0.9-0.5-1.5-1.5-2.1c-0.8-0.5-1.7-0.7-2.7-0.7h-5v19h-5V21.3
		c0-0.7,0.4-1.2,1.2-1.7c0.7-0.4,1.4-0.6,2.1-0.6h6.7c2,0,4,0.5,5.8,1.4c2.3,1.2,3.4,2.6,3.4,4.4c0,1.7-1,3.3-2.9,4.6
		c-1.6,1.1-3.3,1.8-5.3,2.2L150.7,41.4z"/>
	<path style="fill:#FFFFFF;" d="M158.9,41.4h-5V19h5V41.4z"/>
	<path style="fill:#FFFFFF;" d="M193.1,35.2c0,1.9-1.1,3.4-3.4,4.6c-1.9,1-3.8,1.5-5.9,1.5c-2,0-4-0.5-5.9-1.5
		c-2.2-1.2-3.3-2.7-3.3-4.6V25.2c0-1.9,1.1-3.4,3.3-4.6c1.9-1,3.8-1.5,5.9-1.5c2.1,0,4,0.5,5.9,1.5c2.2,1.2,3.4,2.7,3.4,4.6V35.2z
		 M188,35.2V25.2c0-0.9-0.5-1.6-1.5-2.1c-0.8-0.5-1.7-0.7-2.7-0.7c-0.9,0-1.8,0.2-2.7,0.7c-1,0.5-1.5,1.2-1.5,2.1v10.1
		c0,0.9,0.5,1.5,1.5,2.1c0.9,0.5,1.7,0.7,2.7,0.7c0.9,0,1.8-0.2,2.7-0.7C187.5,36.8,188,36.1,188,35.2z"/>
	<path style="fill:#FFFFFF;" d="M215.7,19l-8.8,11.7v10.6h-5V30.8L193.1,19h5.9l5.4,7.3l5.5-7.3H215.7z"/>
	<path style="fill:#FFFFFF;" d="M235.2,35.2c0,1.9-1.1,3.4-3.3,4.6c-1.9,1-3.8,1.5-5.9,1.5c-2,0-4-0.5-5.9-1.5
		c-2.2-1.2-3.4-2.7-3.4-4.6V19h5v16.2c0,0.9,0.5,1.5,1.5,2.1c0.9,0.5,1.8,0.7,2.7,0.7c0.9,0,1.8-0.2,2.7-0.7c1-0.5,1.5-1.2,1.5-2.1
		V19h5V35.2z"/>
	<path style="fill:#FFFFFF;" d="M257.8,39.1c0,0.7-0.4,1.2-1.1,1.7c-0.6,0.4-1.3,0.6-2,0.6c-1.3,0-2.4-0.7-3.3-2.2l-7-11.3v13.6h-5
		V21.3c0-0.7,0.4-1.2,1.1-1.7c0.6-0.4,1.3-0.6,2-0.6c1.3,0,2.4,0.7,3.3,2.2l7,11.3V19h5V39.1z"/>
	<path style="fill:#FFFFFF;" d="M278.3,41.4h-13c-0.7,0-1.5-0.2-2.2-0.6c-0.8-0.4-1.2-1-1.2-1.7V19h5v19h11.3V41.4z"/>
	<path style="fill:#FFFFFF;" d="M302.4,41.4h-5.3l-2.1-5h-9.4l-2.1,5h-5.2l8.5-20.1c0.3-0.7,0.8-1.2,1.4-1.6
		c0.7-0.4,1.4-0.6,2.1-0.6c0.8,0,1.5,0.2,2.1,0.6c0.7,0.4,1.2,0.9,1.4,1.6L302.4,41.4z M293.6,33l-3.3-7.8l-3.3,7.8H293.6z"/>
	<path style="fill:#FFFFFF;" d="M323.6,41.4h-5.9l-6.9-7.2c-1-1-1.5-1.8-1.5-2.3c0-1,0.5-1.8,1.6-2.4c0,0,0.3-0.1,0.8-0.3
		c0.5-0.2,1.2-0.4,2.2-0.8c2.6-0.9,3.8-2,3.8-3.2c0-0.9-0.5-1.5-1.5-2.1c-0.8-0.5-1.7-0.7-2.7-0.7h-5v19h-5V21.3
		c0-0.7,0.4-1.2,1.2-1.7c0.7-0.4,1.4-0.6,2.1-0.6h6.7c2,0,4,0.5,5.8,1.4c2.3,1.2,3.4,2.6,3.4,4.4c0,1.7-1,3.3-2.9,4.6
		c-1.6,1.1-3.3,1.8-5.3,2.2L323.6,41.4z"/>
	<path style="fill:#FFFFFF;" d="M331.8,41.4h-5V19h5V41.4z"/>
</g>
<rect x="153.9" y="12.9" style="fill:#FFFFFF;" width="5" height="3.3"/>
</svg>
