<?xml version="1.0" encoding="utf-8"?>
<!-- Generator: Adobe Illustrator 24.1.2, SVG Export Plug-In . SVG Version: 6.00 Build 0)  -->
<svg version="1.1" id="Layer_1" xmlns="http://www.w3.org/2000/svg" xmlns:xlink="http://www.w3.org/1999/xlink" x="0px" y="0px"
	 viewBox="0 0 192 34.9" style="enable-background:new 0 0 192 34.9;" xml:space="preserve">
<style type="text/css">
	.st0{fill:#FFFFFF;}
</style>
<g>
	<g>
		<rect x="17.7" y="25.8" class="st0" width="6.2" height="5.8"/>
		<path class="st0" d="M10.5,18.1h6.2v-5.8h-6.2C10.5,12.4,10.5,18.1,10.5,18.1z M11.1,13.7l0.6-0.7l1.8,1.6l1.8-1.6l0.6,0.7
			l-1.8,1.6l1.8,1.6l-0.6,0.7l-1.8-1.6l-1.8,1.6l-0.6-0.7l1.8-1.6L11.1,13.7z"/>
		<rect x="17.7" y="19.1" class="st0" width="6.2" height="5.8"/>
		<rect x="17.7" y="12.4" class="st0" width="6.2" height="5.8"/>
		<rect x="3.3" y="12.4" class="st0" width="6.2" height="5.8"/>
		<rect x="3.3" y="25.8" class="st0" width="6.2" height="5.8"/>
		<path class="st0" d="M10.5,24.8h6.2V19h-6.2C10.5,19,10.5,24.8,10.5,24.8z M11.1,20.4l0.6-0.7l1.8,1.6l1.8-1.6l0.6,0.7l-1.8,1.6
			l1.8,1.6l-0.6,0.7l-1.8-1.6l-1.8,1.6l-0.6-0.7l1.8-1.6L11.1,20.4z"/>
		<rect x="3.3" y="19.1" class="st0" width="6.2" height="5.8"/>
		<rect x="24.9" y="19.1" class="st0" width="6.2" height="5.8"/>
		<path class="st0" d="M10.5,31.6h6.2v-5.8h-6.2C10.5,25.8,10.5,31.6,10.5,31.6z M11.1,27.2l0.6-0.7l1.8,1.6l1.8-1.6l0.6,0.7
			l-1.8,1.6l1.8,1.6L15.4,31l-1.8-1.6L11.8,31l-0.6-0.7l1.8-1.6L11.1,27.2z"/>
		<rect x="24.9" y="25.8" class="st0" width="6.2" height="5.8"/>
		<rect x="24.9" y="12.4" class="st0" width="6.2" height="5.8"/>
		<rect x="24.5" y="6.1" class="st0" width="1.9" height="2.9"/>
		<path class="st0" d="M9.6,8.1H8.2v1h1.4c0.3,0,0.5-0.2,0.5-0.5S9.9,8.1,9.6,8.1z"/>
		<path class="st0" d="M3.3,3.8v7.7h27.8V3.8H3.3z M11,8.5c0,0.8-0.6,1.4-1.4,1.4H7.7c-0.3,0-0.5-0.2-0.5-0.4v-2V5.7
			c0-0.3,0.2-0.5,0.5-0.5h1.9c0.8,0,1.4,0.6,1.4,1.4c0,0.4-0.1,0.7-0.4,1C10.9,7.8,11,8.2,11,8.5z M12.9,10h-1V5.2h1V10z M17.7,9.5
			c0,0.2-0.1,0.4-0.4,0.4c-0.1,0-0.1,0-0.1,0c-0.1,0-0.3-0.1-0.4-0.2l-2-2.7V10h-1V5.7c0-0.2,0.1-0.4,0.4-0.4c0.2-0.1,0.4,0,0.6,0.1
			l2,2.7V5.2h1L17.7,9.5L17.7,9.5z M22.5,6.6h-1V6.1h-1.9V9h1.9v-1h-1V7.1h1.4c0.3,0,0.5,0.2,0.5,0.5v1.9c0,0.3-0.2,0.5-0.5,0.5H19
			c-0.3,0-0.5-0.2-0.5-0.5V5.7c0-0.3,0.2-0.5,0.5-0.5h2.9c0.3,0,0.5,0.2,0.5,0.5L22.5,6.6L22.5,6.6z M27.3,9.5
			c0,0.3-0.2,0.5-0.5,0.5h-2.9c-0.3,0-0.5-0.2-0.5-0.5V5.7c0-0.3,0.2-0.5,0.5-0.5h2.9c0.3,0,0.5,0.2,0.5,0.5V9.5z"/>
		<path class="st0" d="M9.6,6.1H8.2v1h1.4c0.3,0,0.5-0.2,0.5-0.5C10.1,6.4,9.9,6.1,9.6,6.1z"/>
	</g>
	<g>
		<path class="st0" d="M42.6,13.3c0.3,0,0.5,0.1,0.5,0.5v1.3c0,0.3-0.2,0.5-0.5,0.5h-3V27c0,0.3-0.1,0.5-0.5,0.5h-1.8
			c-0.3,0-0.5-0.2-0.5-0.5V15.7h-3c-0.3,0-0.5-0.1-0.5-0.5v-1.3c0-0.3,0.1-0.5,0.5-0.5H42.6z"/>
		<path class="st0" d="M44,16.5c0-1.7,1.3-3.5,5.1-3.5c3.8,0,5.1,1.6,5.1,3.5v7.8c0,1.7-1.3,3.5-5.1,3.5c-3.8,0-5.1-1.6-5.1-3.5
			V16.5z M51.3,17.1c0-1.1-0.9-1.6-2.3-1.6s-2.3,0.5-2.3,1.6v6.7c0,1.1,0.9,1.6,2.3,1.6s2.3-0.5,2.3-1.6V17.1z"/>
		<path class="st0" d="M69,27c0,0.3-0.1,0.5-0.5,0.5h-1.7c-0.3,0-0.5-0.2-0.5-0.5v-8c0,0.1-0.4,1.3-0.6,1.9l-1.4,3.9
			c-0.1,0.3-0.3,0.5-0.6,0.5H62c-0.3,0-0.5-0.2-0.6-0.5l-1.8-4.2c-0.2-0.4-0.4-1.4-0.4-1.5V27c0,0.3-0.1,0.5-0.5,0.5H57
			c-0.3,0-0.5-0.2-0.5-0.5V13.8c0-0.3,0.1-0.5,0.5-0.5h1.6c0.3,0,0.3,0.1,0.4,0.3l3.2,7.3c0.2,0.5,0.5,1.5,0.5,1.5s0.3-0.9,0.5-1.4
			l3.1-7.3c0.1-0.2,0.2-0.2,0.4-0.2h1.7c0.3,0,0.5,0.2,0.5,0.5V27H69z"/>
		<path class="st0" d="M71.9,27.5c-0.3,0-0.5-0.2-0.5-0.5V13.8c0-0.3,0.1-0.5,0.5-0.5h3.8c3.8,0,5.1,1.4,5.1,3.1v1.2
			c0,1.1-0.4,1.8-1.6,2.4c1.4,0.5,2.3,1.4,2.3,2.5v1.6c0,1.7-1.3,3.3-5.1,3.3h-4.4V27.5z M74.3,15.6v3.7h1.6c1.3,0,2.2-0.5,2.2-1.6
			v-0.8c0-1.1-0.9-1.3-2.3-1.3C75.8,15.6,74.3,15.6,74.3,15.6z M74.3,21.3v3.9h2.2c1.4,0,2.3-0.5,2.3-1.5v-1c0-0.9-0.9-1.4-2.3-1.4
			C76.5,21.3,74.3,21.3,74.3,21.3z"/>
		<path class="st0" d="M88.5,13.3c0.3,0,0.5,0.2,0.6,0.5L93,27c0.1,0.3,0,0.5-0.3,0.5h-1.8c-0.3,0-0.5-0.2-0.6-0.5l-0.8-2.6h-3.9
			L84.9,27c-0.1,0.3-0.2,0.5-0.6,0.5h-1.7c-0.3,0-0.5-0.2-0.4-0.5L86,13.8c0.1-0.3,0.3-0.5,0.6-0.5H88.5z M88.1,19.9
			c-0.3-0.9-0.5-3.6-0.6-3.8c0,0.3-0.4,2.9-0.6,3.8l-0.8,2.4h2.7L88.1,19.9z"/>
		<path class="st0" d="M97.2,25.2h4.6c0.3,0,0.5,0.1,0.5,0.5V27c0,0.3-0.2,0.5-0.5,0.5h-7c-0.3,0-0.4-0.2-0.4-0.5V13.8
			c0-0.3,0.1-0.5,0.5-0.5h1.8c0.3,0,0.5,0.2,0.5,0.5v11.3H97.2z"/>
		<path class="st0" d="M109.1,13.3c0.3,0,0.5,0.2,0.6,0.5l3.9,13.2c0.1,0.3,0,0.5-0.3,0.5h-1.9c-0.3,0-0.5-0.2-0.6-0.5l-0.8-2.6H106
			l-0.8,2.6c-0.1,0.3-0.2,0.5-0.6,0.5h-1.7c-0.3,0-0.5-0.2-0.4-0.5l3.9-13.2c0.1-0.3,0.3-0.5,0.6-0.5H109.1z M108.6,19.9
			c-0.3-0.9-0.5-3.6-0.6-3.8c0,0.3-0.4,2.9-0.6,3.8l-0.8,2.4h2.7L108.6,19.9z"/>
		<path class="st0" d="M130.2,19c0.3,0,0.5,0.1,0.5,0.5v1.2c0,0.3-0.2,0.5-0.5,0.5H129v2.9c0,1.7-1.2,3.5-5.4,3.5
			c-4.2,0-5.4-1.6-5.4-3.3v-1.8c0-1.1,0.4-1.9,1.7-2.4c-1.2-0.4-1.6-1.1-1.6-2.2v-1.5c0-1.7,1-3.3,4.6-3.3c3.8,0,4.7,1.6,4.7,3.5
			v0.6c0,0.3-0.1,0.5-0.4,0.5h-1.7c-0.3,0-0.5-0.2-0.5-0.5v-0.3c0-1.1-0.5-1.5-1.9-1.5c-1.4,0-1.9,0.5-1.9,1.5v0.5
			c0,1.1,0.6,1.5,2.1,1.5h7V19z M126.3,23.9v-2.6h-3.2c-1.4,0-2.1,0.4-2.1,1.5v1.1c0,1.1,0.9,1.5,2.7,1.5
			C125.5,25.4,126.3,24.8,126.3,23.9z"/>
		<path class="st0" d="M142.6,16.8c0-1.1-0.6-1.5-2.1-1.5c-1.4,0-2.1,0.4-2.1,1.5v0.3c0,0.8,0.5,1,0.9,1.1l3.7,1.3
			c1.4,0.5,2.5,1.5,2.5,3v1.6c0,1.7-1.2,3.5-5,3.5s-5-1.6-5-3.5v-1.3c0-0.3,0.1-0.5,0.5-0.5h1.7c0.3,0,0.5,0.2,0.5,0.5v1
			c0,1.1,0.8,1.5,2.3,1.5c1.4,0,2.3-0.4,2.3-1.5v-0.6c0-0.9-0.9-1.2-1.7-1.5l-3.2-1.2c-1-0.3-1.9-1.4-1.9-2.7v-1.2
			c0-1.7,1.1-3.5,4.7-3.5c3.7,0,4.9,1.6,4.9,3.5v0.9c0,0.3-0.1,0.5-0.5,0.5h-1.7c-0.3,0-0.4-0.2-0.4-0.5v-0.6H142.6z"/>
		<path class="st0" d="M152.7,13.3c0.3,0,0.5,0.2,0.6,0.5l3.9,13.2c0.1,0.3,0,0.5-0.3,0.5H155c-0.3,0-0.5-0.2-0.6-0.5l-0.8-2.6h-3.9
			L149,27c-0.1,0.3-0.2,0.5-0.6,0.5h-1.7c-0.3,0-0.5-0.2-0.4-0.5l3.9-13.2c0.1-0.3,0.3-0.5,0.6-0.5H152.7z M152.3,19.9
			c-0.3-0.9-0.5-3.6-0.6-3.8c0,0.3-0.4,2.9-0.6,3.8l-0.8,2.4h2.7L152.3,19.9z"/>
		<path class="st0" d="M168.6,27c0,0.3-0.1,0.5-0.5,0.5h-1.6c-0.3,0-0.3-0.1-0.4-0.2l-4-6.9c-0.5-1-0.9-1.6-0.9-1.7V27
			c0,0.3-0.1,0.5-0.5,0.5H159c-0.3,0-0.5-0.2-0.5-0.5V13.8c0-0.3,0.1-0.5,0.5-0.5h1.6c0.2,0,0.3,0.1,0.4,0.2l4.2,7.2
			c0.3,0.6,0.8,1.5,0.8,1.5v-8.4c0-0.3,0.1-0.5,0.5-0.5h1.6c0.3,0,0.5,0.2,0.5,0.5V27H168.6z"/>
		<path class="st0" d="M176.3,13.3c0.3,0,0.5,0.2,0.6,0.5l3.9,13.2c0.1,0.3,0,0.5-0.3,0.5h-1.8c-0.3,0-0.5-0.2-0.6-0.5l-0.8-2.6
			h-3.9l-0.8,2.6c-0.1,0.3-0.2,0.5-0.6,0.5h-1.7c-0.3,0-0.5-0.2-0.4-0.5l3.9-13.2c0.1-0.3,0.3-0.5,0.6-0.5H176.3z M175.9,19.9
			c-0.3-0.9-0.5-3.6-0.6-3.8c0,0.3-0.4,2.9-0.6,3.8l-0.8,2.4h2.7L175.9,19.9z"/>
		<path class="st0" d="M184.9,25.2h4.6c0.3,0,0.5,0.1,0.5,0.5V27c0,0.3-0.2,0.5-0.5,0.5h-7c-0.3,0-0.4-0.2-0.4-0.5V13.8
			c0-0.3,0.1-0.5,0.5-0.5h1.8c0.3,0,0.5,0.2,0.5,0.5v11.3H184.9z"/>
	</g>
</g>
</svg>
