<?xml version="1.0" encoding="utf-8"?>
<!-- Generator: Adobe Illustrator 26.1.0, SVG Export Plug-In . SVG Version: 6.00 Build 0)  -->
<svg version="1.1" id="Layer_1" xmlns="http://www.w3.org/2000/svg" xmlns:xlink="http://www.w3.org/1999/xlink" x="0px" y="0px"
	 viewBox="0 0 2196.4 295.5" style="enable-background:new 0 0 2196.4 295.5;" xml:space="preserve">
<g>
	<path style="fill:#FFFFFF;" d="M327.4,230.8c-4,0-6.8-0.9-8.6-2.7c-1.8-1.8-2.6-4.8-2.6-8.9V169L279,72.5
		c-3.3-8.9,0.3-13.4,11-13.4c5.7,0,9.8,0.5,12.3,1.5c2.5,1,4.3,3.7,5.6,8l23.1,71l22.9-71c1.3-4.3,3.1-7,5.4-8
		c2.3-1,6.4-1.5,12.3-1.5c10.6,0,14.3,4.5,11,13.4l-37.2,97v49.6c0,4.1-0.8,7.1-2.5,8.9c-1.7,1.8-4.5,2.7-8.5,2.7H327.4z"/>
	<path style="fill:#FFFFFF;" d="M474.2,183.3V70.8c0-7.8,3.7-11.7,11.2-11.7h6.7c7.5,0,11.2,3.9,11.2,11.7v118.7
		c0,13.7-4.5,24.4-13.5,32.1c-9,7.7-21.3,11.6-37.1,11.6c-15.4,0-27.7-3.9-36.7-11.6c-9.1-7.7-13.6-18.4-13.6-32.1V70.8
		c0-4.1,0.9-7.1,2.6-8.9c1.7-1.8,4.6-2.7,8.6-2.7h6.7c7.5,0,11.2,3.9,11.2,11.7v112.5c0,15.4,7.1,23.1,21.2,23.1
		C467.1,206.4,474.2,198.7,474.2,183.3z M447,29.8v8.3c0,8-3.7,11.9-11.2,11.9h-7.6c-7.5,0-11.2-4-11.2-11.9V30
		c0-4.3,0.9-7.4,2.6-9.2c1.7-1.8,4.6-2.7,8.6-2.7h7.6c4,0,6.8,0.9,8.6,2.7C446.2,22.7,447,25.6,447,29.8z M488.1,29.8v8.3
		c0,4.3-0.9,7.4-2.6,9.2c-1.8,1.8-4.6,2.7-8.6,2.7h-7.6c-4,0-6.8-1-8.5-2.9c-1.7-1.9-2.5-4.9-2.5-9.1V30c0-4.3,0.8-7.4,2.5-9.2
		c1.7-1.8,4.5-2.7,8.5-2.7h7.6c4,0,6.8,0.9,8.6,2.7C487.2,22.7,488.1,25.6,488.1,29.8z"/>
	<path style="fill:#FFFFFF;" d="M560.3,70.8v66l37-69.6c1.9-3.7,4-5.9,6.3-6.8c2.3-0.9,6.2-1.3,11.8-1.3h5.2c3.7,0,6,1,7.2,2.9
		c1.1,1.9,0.7,4.7-1.2,8.3l-38.6,72.5l36.7,68.7c2.9,5.2,4.3,9.5,4.3,12.9c0,4.3-3.3,6.4-9.8,6.4h-5.2c-4,0-7.3-0.8-9.9-2.3
		c-2.6-1.5-5.2-4.8-7.7-9.9l-36-69.1v69.6c0,4.1-0.9,7.1-2.6,8.9c-1.8,1.8-4.6,2.7-8.6,2.7h-6.7c-4,0-6.8-0.9-8.6-2.7
		c-1.8-1.8-2.6-4.8-2.6-8.9V70.8c0-4.1,0.9-7.1,2.6-8.9c1.7-1.8,4.6-2.7,8.6-2.7h6.7C556.6,59.1,560.3,63,560.3,70.8z"/>
	<path style="fill:#FFFFFF;" d="M702.1,130.4l10.3,3.8c10.8,4,18,9.3,21.7,16c3.7,6.7,5.5,17.2,5.5,31.5v5.2
		c0,16.1-3.7,27.8-11,35.2c-7.3,7.4-18.3,11.1-32.9,11.1h-10.3c-13.7,0-24-2.8-31-8.3c-7-5.6-10.5-14.5-10.5-26.7v-11.9
		c0-6.8,3.3-10.3,9.8-10.3h9.1c6.2,0,9.3,3.3,9.3,10v3.6c0,6.8,1.2,11.7,3.5,14.7c2.3,2.9,6,4.4,11.1,4.4h8.1
		c5.4,0,9.5-1.5,12.3-4.4c2.8-2.9,4.2-8.1,4.2-15.6V179c0-10.5-5.1-17.3-15.3-20.5l-11.2-3.6c-15.4-4.8-25.7-10.4-30.9-16.8
		c-5.2-6.4-7.7-17.8-7.7-34v-5.2c0-13.8,3.6-24.3,10.8-31.5c7.2-7.2,17.6-10.7,31.1-10.7h4.1c14.6,0,25.5,3.2,32.5,9.5
		c7.1,6.4,10.6,14.9,10.6,25.7v11.4c0,3.5-0.8,6-2.3,7.6c-1.5,1.6-4,2.4-7.5,2.4h-10c-5.6,0-8.3-2.9-8.3-8.8v-6
		c0-6.4-1.2-10.8-3.5-13.5c-2.3-2.6-6-3.9-11.1-3.9h-3.8c-5.1,0-8.7,1.4-10.8,4.3c-2.1,2.9-3.2,8-3.2,15.3v3.8
		c0,7.2,1.6,12.2,4.8,15C682.7,122.5,690.2,126.1,702.1,130.4z"/>
	<path style="fill:#FFFFFF;" d="M773,59.1h63.9c4,0,6.8,0.9,8.6,2.7c1.7,1.8,2.6,4.8,2.6,8.9v0.7c0,4.5-0.8,7.7-2.5,9.7
		c-1.7,2-4.6,3-8.7,3h-46v46h32.9c4,0,6.8,1,8.6,2.9c1.7,1.9,2.6,5.1,2.6,9.5v1c0,4.1-0.9,7.1-2.6,8.8c-1.8,1.8-4.6,2.6-8.6,2.6
		h-32.9v50.8h46c7.5,0,11.2,3.9,11.2,11.7v1c0,4.5-0.8,7.6-2.5,9.5c-1.7,1.9-4.6,2.9-8.7,2.9H773c-4,0-6.8-0.9-8.6-2.7
		c-1.8-1.8-2.6-4.8-2.6-8.9V70.8c0-4.1,0.9-7.1,2.6-8.9C766.1,60,769,59.1,773,59.1z"/>
	<path style="fill:#FFFFFF;" d="M898.1,70.8v134.9h45.3c4,0,6.8,0.9,8.6,2.7c1.7,1.8,2.6,4.8,2.6,8.9v1c0,4.5-0.8,7.6-2.5,9.5
		s-4.6,2.9-8.7,2.9h-63.2c-4.1,0-7.1-0.9-8.8-2.7c-1.8-1.8-2.6-4.8-2.6-8.9V70.8c0-7.8,3.8-11.7,11.4-11.7h6.4
		C894.3,59.1,898.1,63,898.1,70.8z"/>
	<path style="fill:#FFFFFF;" d="M1016.4,230.8H982c-4,0-6.8-0.9-8.6-2.7c-1.8-1.8-2.6-4.8-2.6-8.9V70.8c0-4.1,0.9-7.1,2.6-8.9
		c1.7-1.8,4.6-2.7,8.6-2.7h33.9c19.9,0,34.2,4.6,43,13.9s13.2,23.2,13.2,41.6v60.6c0,19.2-4.4,33.3-13.1,42.2
		C1050.3,226.3,1036.1,230.8,1016.4,230.8z M1015.9,84.1h-16v121.6h16.5c18.8,0,28.1-10.6,28.1-31.9v-57.7
		C1044.5,94.8,1035,84.1,1015.9,84.1z"/>
	<path style="fill:#FFFFFF;" d="M1127.5,30v8.3c0,8-3.7,11.9-11.2,11.9h-7.6c-7.5,0-11.2-4-11.2-11.9v-8.1c0-4.3,0.9-7.3,2.6-9.2
		c1.7-1.8,4.6-2.7,8.6-2.7h7.6c4,0,6.8,0.9,8.6,2.7C1126.6,22.9,1127.5,25.9,1127.5,30z M1127,70.8v148.3c0,4.1-0.9,7.1-2.6,8.9
		c-1.8,1.8-4.6,2.7-8.6,2.7h-6.7c-4,0-6.8-0.9-8.6-2.7c-1.8-1.8-2.6-4.8-2.6-8.9V70.8c0-4.1,0.9-7.1,2.6-8.9
		c1.7-1.8,4.6-2.7,8.6-2.7h6.7C1123.3,59.1,1127,63,1127,70.8z"/>
	<path style="fill:#FFFFFF;" d="M1184.4,70.8v66l37-69.6c1.9-3.7,4-5.9,6.3-6.8c2.3-0.9,6.2-1.3,11.8-1.3h5.2c3.7,0,6,1,7.2,2.9
		c1.1,1.9,0.7,4.7-1.2,8.3l-38.6,72.5l36.7,68.7c2.9,5.2,4.3,9.5,4.3,12.9c0,4.3-3.3,6.4-9.8,6.4h-5.2c-4,0-7.3-0.8-9.9-2.3
		c-2.6-1.5-5.2-4.8-7.7-9.9l-36-69.1v69.6c0,4.1-0.9,7.1-2.6,8.9c-1.8,1.8-4.6,2.7-8.6,2.7h-6.7c-4,0-6.8-0.9-8.6-2.7
		c-1.8-1.8-2.6-4.8-2.6-8.9V70.8c0-4.1,0.9-7.1,2.6-8.9c1.7-1.8,4.6-2.7,8.6-2.7h6.7C1180.7,59.1,1184.4,63,1184.4,70.8z"/>
	<path style="fill:#FFFFFF;" d="M1313.7,248.4h-1c-2.7,0-4.6-0.9-5.8-2.6c-1.2-1.8-0.9-4.6,0.8-8.6l2.4-4.5
		c-11.9-1.3-21.2-5-27.9-11.3c-6.7-6.3-10-14.7-10-25.4v-102c0-11.8,4.3-20.9,13-27.4c8.7-6.5,20.5-9.8,35.6-9.8
		c14.6,0,26.1,3.3,34.6,9.8c8.4,6.5,12.6,15.7,12.6,27.4v15.5c0,7.8-3.7,11.7-11.2,11.7h-7.4c-5.9,0-8.8-3.9-8.8-11.7v-10
		c0-5.9-1.8-10.3-5.2-13.2c-3.5-2.9-8.3-4.4-14.5-4.4c-13,0-19.5,5.9-19.5,17.6v91.1c0,6.2,1.6,10.7,4.8,13.5
		c3.2,2.8,8.1,4.2,14.8,4.2c13.2,0,19.8-5.9,19.8-17.6v-10.3c0-7.6,2.9-11.4,8.8-11.4h7.4c7.5,0,11.2,3.9,11.2,11.7V196
		c0,11.1-3.9,19.9-11.7,26.2c-7.8,6.4-18.5,9.9-32.2,10.7l-2.1,4.3c7,0.3,12,1.8,15.1,4.5c3.1,2.7,4.6,7,4.6,12.9
		c0,6.8-2.4,11.7-7.2,14.7c-4.8,2.9-12.5,4.4-23.1,4.4h-3.6c-3.5,0-5.9-0.4-7.3-1.2c-1.4-0.8-2-2.5-2-5.2c0-5.1,2.1-7.6,6.2-7.6h6.9
		c4,0,6.6-0.4,7.9-1.2c1.3-0.8,1.9-2.4,1.9-4.8c0-1.9-0.6-3.3-1.7-4.1C1318.8,248.8,1316.7,248.4,1313.7,248.4z"/>
	<path style="fill:#FFFFFF;" d="M1404,59.1h63.9c4,0,6.8,0.9,8.6,2.7c1.7,1.8,2.6,4.8,2.6,8.9v0.7c0,4.5-0.8,7.7-2.5,9.7
		c-1.7,2-4.6,3-8.7,3h-46v46h32.9c4,0,6.8,1,8.6,2.9c1.7,1.9,2.6,5.1,2.6,9.5v1c0,4.1-0.9,7.1-2.6,8.8c-1.8,1.8-4.6,2.6-8.6,2.6
		h-32.9v50.8h46c7.5,0,11.2,3.9,11.2,11.7v1c0,4.5-0.8,7.6-2.5,9.5s-4.6,2.9-8.7,2.9H1404c-4,0-6.8-0.9-8.6-2.7
		c-1.8-1.8-2.6-4.8-2.6-8.9V70.8c0-4.1,0.9-7.1,2.6-8.9C1397.2,60,1400,59.1,1404,59.1z"/>
	<path style="fill:#FFFFFF;" d="M1568,70.8v66l37-69.6c1.9-3.7,4-5.9,6.3-6.8c2.3-0.9,6.2-1.3,11.8-1.3h5.2c3.7,0,6,1,7.2,2.9
		c1.1,1.9,0.7,4.7-1.2,8.3l-38.6,72.5l36.7,68.7c2.9,5.2,4.3,9.5,4.3,12.9c0,4.3-3.3,6.4-9.8,6.4h-5.2c-4,0-7.3-0.8-9.9-2.3
		c-2.6-1.5-5.2-4.8-7.7-9.9l-36-69.1v69.6c0,4.1-0.9,7.1-2.6,8.9c-1.8,1.8-4.6,2.7-8.6,2.7h-6.7c-4,0-6.8-0.9-8.6-2.7
		c-1.8-1.8-2.6-4.8-2.6-8.9V70.8c0-4.1,0.9-7.1,2.6-8.9c1.7-1.8,4.6-2.7,8.6-2.7h6.7C1564.3,59.1,1568,63,1568,70.8z"/>
	<path style="fill:#FFFFFF;" d="M1731.1,220.5l-5.7-26h-44.8l-5.7,26c-1,4.3-2.5,7.1-4.6,8.3c-2.1,1.3-5.8,1.9-10.8,1.9h-3.1
		c-8.7,0-12-4.3-9.8-12.9l37-150.2c1.3-5.7,4.8-8.6,10.7-8.6h17.6c5.9,0,9.5,2.9,10.7,8.6l37,150.2c2.2,8.6-1,12.9-9.8,12.9h-3.1
		c-4.9,0-8.5-0.6-10.7-1.9C1733.7,227.6,1732.1,224.8,1731.1,220.5z M1703,92.7l-16.7,75.3h33.1L1703,92.7z"/>
	<path style="fill:#FFFFFF;" d="M1854.4,205.7c7.5,0,11.2,3.9,11.2,11.7c0,4.8-0.8,8.2-2.4,10.3c-1.6,2.1-4.5,3.1-8.6,3.1h-78.9
		c-3,0-5.1-0.8-6.3-2.4c-1.2-1.6-1.8-4.8-1.8-9.5c0-3.2,0.8-7,2.4-11.6c1.6-4.5,3.2-8.6,4.9-12.2c1.7-3.6,4.6-9.7,8.9-18.2
		l35.8-74.6c1.9-4.9,5.1-11,9.5-18.1h-46.7c-4,0-6.8-1-8.6-3c-1.8-2-2.6-5.2-2.6-9.7v-0.7c0-4.1,0.9-7.1,2.6-8.9
		c1.7-1.8,4.6-2.7,8.6-2.7h66.5c4.4,0,7.7,0.9,9.7,2.6c2,1.8,3,4.8,3,9.3c0,1.6-0.2,3.4-0.7,5.5c-0.5,2.1-1.3,4.6-2.5,7.6
		c-1.2,3-2.2,5.4-3,7.3c-0.8,1.8-2.2,4.8-4.2,8.9c-2,4.1-3.3,6.9-3.9,8.3l-35,75.6c-3.5,7.6-7.6,14.8-12.2,21.5H1854.4z"/>
	<path style="fill:#FFFFFF;" d="M1958.3,220.5l-5.7-26h-44.8l-5.7,26c-1,4.3-2.5,7.1-4.6,8.3c-2.1,1.3-5.8,1.9-10.8,1.9h-3.1
		c-8.7,0-12-4.3-9.8-12.9l37-150.2c1.3-5.7,4.8-8.6,10.7-8.6h17.6c5.9,0,9.5,2.9,10.7,8.6l37,150.2c2.2,8.6-1,12.9-9.8,12.9h-3.1
		c-4.9,0-8.5-0.6-10.7-1.9C1960.9,227.6,1959.3,224.8,1958.3,220.5z M1930.2,92.7l-16.7,75.3h33.1L1930.2,92.7z"/>
	<path style="fill:#FFFFFF;" d="M2030.1,127.5v91.6c0,4.1-0.9,7.1-2.6,8.9c-1.8,1.8-4.6,2.7-8.6,2.7h-3.3c-4,0-6.8-0.9-8.6-2.7
		c-1.8-1.8-2.6-4.8-2.6-8.9V70.5c0-7.6,3.7-11.4,11-11.4h4.3c3.7,0,6.4,0.7,8.1,2.1c1.7,1.4,4,4.5,6.7,9.3l38.6,73.2
		c4.3,8.3,8.2,16.1,11.7,23.6l-0.2-6V70.8c0-7.8,3.8-11.7,11.4-11.7h3.3c7.5,0,11.2,3.9,11.2,11.7v148.5c0,4-0.9,6.9-2.6,8.7
		c-1.8,1.8-4.6,2.7-8.6,2.7h-1.4l-0.2-0.2v0.2h-1.2c-4.1,0-7.3-0.8-9.4-2.3c-2.1-1.5-4.5-4.7-7-9.7l-37.9-72
		c-4.3-7.9-8.3-16.5-12.2-25.5L2030.1,127.5z"/>
</g>
<path style="fill:#FFFFFF;" d="M244.8,42.9c-0.2-0.9-0.9-1.6-1.8-1.8c-29.3-7.2-96.9,18.4-133.6,55c-6.5,6.5-12.5,13.5-17.8,21.1
	c-11.3-1-22.6-0.2-32.2,4c-27.2,12-35.1,43.2-37.3,56.6c-0.4,2.6,1.3,5.1,3.9,5.6c0.4,0.1,0.9,0.1,1.3,0l43.7-4.8
	c0,3.3,0.2,6.6,0.6,9.9c0.2,2.3,1.2,4.4,2.8,6l16.9,16.9c1.6,1.6,3.7,2.6,6,2.9c3.3,0.4,6.5,0.6,9.8,0.6l-4.8,43.6
	c-0.3,2.6,1.6,5,4.3,5.3c0.4,0,0.9,0,1.3,0c13.4-2.1,44.7-10.1,56.6-37.3c4.2-9.6,5.1-20.9,4.1-32.1c7.5-5.3,14.6-11.3,21.1-17.8
	C226.5,139.8,251.8,73.6,244.8,42.9z M153,132.7c-9.4-9.4-9.4-24.6,0-33.9c9.4-9.4,24.6-9.4,33.9,0s9.4,24.6,0,33.9c0,0,0,0,0,0
	C177.6,142.1,162.4,142.1,153,132.7C153,132.7,153,132.7,153,132.7z"/>
<path style="fill:#FFFFFF;" d="M90.2,223.5c-2.7,2.7-7.1,3.8-12.4,4.7c-11.9,2-22.4-8.2-20.2-20.3c0.8-4.6,3.2-10.9,4.7-12.4
	c0.9-0.8,0.9-2.2,0-3.1c-0.5-0.5-1.2-0.7-1.9-0.6c-6.6,0.8-12.8,3.8-17.6,8.6C31.1,212.1,30,255.8,30,255.8s43.7-1.1,55.4-12.9
	c4.7-4.7,7.8-10.9,8.6-17.6C94.2,223.2,91.6,222,90.2,223.5z"/>
</svg>
