<?xml version="1.0" encoding="utf-8"?>
<!-- Generator: Adobe Illustrator 26.1.0, SVG Export Plug-In . SVG Version: 6.00 Build 0)  -->
<svg version="1.1" id="Layer_1" xmlns="http://www.w3.org/2000/svg" xmlns:xlink="http://www.w3.org/1999/xlink" x="0px" y="0px"
	 viewBox="0 0 1056.6 202" style="enable-background:new 0 0 1056.6 202;" xml:space="preserve">
<g id="Livello_1_1_">
</g>
<g id="Layer_1_00000121280000816817959920000000882230360127541942_">
</g>
<g>
	<path style="fill:#FFFFFF;" d="M278.9,71.5h23.6l3.2,50h-16.4l-0.2-7.5h-14.5l-3.3,7.5h-16.9L278.9,71.5z M288.8,102.4l-0.4-17.2
		h-0.7l-7.8,17.2H288.8z"/>
	<path style="fill:#FFFFFF;" d="M316.7,84.5h15l-0.6,4.1h0.7c3.1-3.9,7.2-4.7,10-4.7c7,0,9,2.5,9,7.6c0,2-0.6,5.6-1.3,9.1l-4.5,21
		h-15.5l3.9-18.6c0.5-2.3,0.9-4.6,0.9-5.5c0-1.4-0.5-1.5-1.7-1.5c-2.8,0-3,0.4-4.2,6l-4.2,19.6h-15.5L316.7,84.5z"/>
	<path style="fill:#FFFFFF;" d="M357.8,114.2c0-2.2,0.4-4.9,1.2-8.6l2.2-10.2h-6.1l2.3-10.9h6.1l2.3-10.8h15.8l-2.3,10.8h7.4
		l-2.3,10.9h-7.4l-2.5,12c-0.1,0.7-0.3,1.3-0.3,2c0,1.7,1.5,2.2,7.1,2.2l-2.1,10C362.8,121.5,357.8,121.3,357.8,114.2z"/>
	<path style="fill:#FFFFFF;" d="M392.4,84.5h15.8l-7.8,37.1h-15.8L392.4,84.5z M396,67.5h15.8l-2.3,11h-15.8L396,67.5z"/>
	<path style="fill:#FFFFFF;" d="M418.2,67.5h15.6L427.2,98h0.7l10.4-13.5h16.6l-15,18.2l7.6,18.9h-16.6l-4.9-13.4h-0.7l-2.8,13.4
		h-15.5L418.2,67.5z"/>
	<path style="fill:#FFFFFF;" d="M481.4,71.5h23.3l0.6,23.5h0.7l10.5-23.5h23.2l-10.7,50h-16.2l6-28.1H518l-12.7,28.1H494l-0.7-28.1
		h-0.8l-6,28.1h-15.7L481.4,71.5z"/>
	<path style="fill:#FFFFFF;" d="M543.9,84.5h15.8l-7.8,37.1h-15.8L543.9,84.5z"/>
	<path style="fill:#FFFFFF;" d="M558.8,121.1l2-9.9c3.6,0.3,7.8,0.5,10,0.5c3.6,0,5.6,0,6.6-0.4c0.8-0.3,1-0.8,1-1.7
		c0-0.5-0.6-0.7-3.3-1.1l-8.4-1.2c-3.4-0.5-4.6-2.5-4.6-5.7c0-1.7,0.4-3.9,0.9-6.3c2.3-10.5,8.1-11.4,18.7-11.4
		c5.2,0,11.2,0.4,14.2,1l-2,9.9c-4.1-0.3-8.1-0.5-9.7-0.5c-3.6,0-5.5,0.1-6.3,0.5c-0.6,0.3-0.7,0.7-0.7,1.5c0,0.7,0.4,0.7,2.8,1
		l7.2,1.1c3.5,0.5,6.2,1.5,6.2,6.4c0,1.3-0.2,3.1-0.7,4.9c-2.5,11.8-8.1,12.4-18,12.4C569.4,122.1,562.8,121.7,558.8,121.1z"/>
	<path style="fill:#FFFFFF;" d="M603.6,84.5h15.8l-7.8,37.1h-15.8L603.6,84.5z"/>
	<path style="fill:#FFFFFF;" d="M625.8,84.5h15l-1,6.2h0.7c3.2-5.5,5.9-6.8,12.6-6.8l-2.9,13.5c-9.7,0-12,1.8-14.1,11.7l-2.7,12.4
		H618L625.8,84.5z"/>
	<path style="fill:#FFFFFF;" d="M671.6,110.9c0-3.7,1.2-8.6,2.4-15.1c3.9-20.2,5.3-24.9,26.2-24.9c15.5,0,20.1,2.9,20.1,11.3
		c0,3.8-0.9,8.6-2.3,15c-4.7,20.3-5.4,24.9-26,24.9C676.3,122.1,671.6,119.2,671.6,110.9z M701.1,96.5c1.2-5.5,1.8-8.9,1.8-10.8
		c0-2.6-1.2-2.7-4.1-2.7c-5.1,0-5.2,0.3-7.9,13.4c-1.2,5.7-2,9-2,10.9c0,2.5,1.2,2.5,4.1,2.5C698.2,110,698.3,109.7,701.1,96.5z"/>
	<path style="fill:#FFFFFF;" d="M719.7,135.4l2-9.8h9.6c8,0,8.2,0,9.4-5.6c0.3-1.2,0.5-2.5,0.8-3.8h-0.7c-3.1,3.9-6.8,4.7-9.5,4.7
		c-7.2,0-9.4-2.8-9.4-7.8c0-1.9,0.3-4.1,0.9-6.6l4.7-22h15.6l-3.9,18.4c-0.5,2.4-0.8,3.9-0.8,4.7c0,1.3,0.6,1.3,2,1.3
		c2.5,0,2.7-0.1,4-6l3.9-18.4h15.6l-7,33.1c-2.6,12.4-3.6,19-23.8,19C728.2,136.5,722.6,136.1,719.7,135.4z"/>
	<path style="fill:#FFFFFF;" d="M764.5,114.3c0-2,0.7-5.6,1.4-9.1l4.4-20.7h15.5l-3.9,18.6c-0.5,2.3-0.9,4.6-0.9,5.5
		c0,1.4,0.5,1.5,1.7,1.5c2.8,0,3-0.4,4.2-6l4.2-19.5h15.5l-7.8,37.1h-15l0.6-4.1h-0.7c-3.1,3.9-7.2,4.7-10,4.7
		C766.5,122.1,764.5,119.5,764.5,114.3z"/>
	<path style="fill:#FFFFFF;" d="M813.1,84.5h15l-0.6,4.1h0.7c3.1-3.9,7.2-4.7,10-4.7c7,0,9,2.5,9,7.6c0,2-0.6,5.6-1.3,9.1l-4.5,21
		h-15.5l3.9-18.6c0.5-2.3,0.9-4.6,0.9-5.5c0-1.4-0.5-1.5-1.7-1.5c-2.8,0-3,0.4-4.2,6l-4.2,19.6h-15.5L813.1,84.5z"/>
	<path style="fill:#FFFFFF;" d="M859.4,67.5h15.8l-11.4,54h-15.8L859.4,67.5z"/>
	<path style="fill:#FFFFFF;" d="M871.9,113.3c0-2.6,0.3-6,1.2-10.2c3.1-15.1,7-19.2,14.4-19.2c4,0,7.7,0.5,9.6,4.2h0.7l1.2-3.7H914
		l-7.8,37.1h-15l0.7-4.1H891c-2.6,3.9-6,4.7-9.3,4.7C875.1,122.1,871.9,120.1,871.9,113.3z M893.3,108.3c0.7-2,2.3-9,2.3-10.8
		c0-1.5-0.5-1.6-2.4-1.6c-3,0-3.1,0.1-4.6,7.1c-0.7,2.9-0.9,4.6-0.9,5.7c0,1.4,0.7,1.5,2.5,1.5C892.2,110.1,892.7,110,893.3,108.3z"
		/>
	<path style="fill:#FFFFFF;" d="M920.6,84.5h15l-1,6.2h0.7c3.2-5.5,5.9-6.8,12.6-6.8L945,97.4c-9.7,0-12,1.8-14.1,11.7l-2.7,12.4
		h-15.5L920.6,84.5z"/>
	<path style="fill:#FFFFFF;" d="M952.4,84.5h15.8l-7.8,37.1h-15.8L952.4,84.5z"/>
</g>
<g>
	<path style="fill:#FFFFFF;" d="M189.7,90.4c17-11.3,25.5,4.2,25.5,4.2s0,0-1.4-19.8c0.1,0.8-17.1-2.9-19-3.5
		c-12-4-24.9-6.3-36.6-11.2c-24.8-10.5-51.5-15-77.5-5.1C41.1,67.8,15.6,72,15.6,72L10,69.2L8.6,81.9c0,0,0,0,8.5-1.4
		c58,9.9,42.5,42.5,9.9,34c28.3,8.5,39.6,65.1,39.6,65.1s-1.4-45.3-1.4-79.3c11.3,7.1,55.2,59.4,73.6,73.6
		c18.4,14.2,53.8,19.8,69.4-8.5c11.3-25.5-11.3-39.6-28.3-35.4c-16.5,4.1-20.2,30.8-2.5,36.2c0.8,0.2,1.6,0.4,2.5,0.4
		c6.3,0.1,13-6.1,13.1-12.4c0-2.8-1.1-5.6-2.8-7.8c-1.1-1.4-5.5-5.7-7.5-5.1c26.9-8.5,18.4,36.8-9.9,32.6
		c-42.5-7.1-77.8-58-86.3-67.9C118.9,115.9,172.7,101.7,189.7,90.4z M43.9,77.7c0,0,15.8-9.4,41.5-13.9c-3,3.1-4.7,6.9-4.7,11.1
		c0,10.2,10.5,18.4,23.3,18.4s23.3-8.2,23.3-18.4c0-5.1-2.7-9.8-7-13.1c20.1,1.1,43.2,6.2,67.8,18.8
		C109.1,115.9,73.7,94.7,43.9,77.7z"/>
	<path style="fill:#FFFFFF;" d="M7.1,49.4c1.2,2.9,1.4,4.8,1.4,7.9c0,0.4,0,0.8,0.4,1.1c0.3,0.3,0.7,0.3,1,0.3
		c14.1,0.8,27.6-1.6,41.3-4.6c9.3-2,18.4-4.3,27.6-6.8c9-2.5,17.8-5.2,27.2-5.9c18.8-1.4,37.3,3.5,55.4,7.9c9.7,2.4,19,6.5,28.8,8.6
		c7.8,1.7,15.4,1.2,23.3,0.2c2.4-0.3,1.4-1.9,1-3.9c-0.2-0.9-0.3-2-0.6-2.9c0-0.2-0.3-0.7-0.2-0.6c0,0-19.8,0-41-7.1
		c-3.3-1.1-6.5-3-9.8-4.3c-4.4-1.7-8.9-3.2-13.4-4.5c-11.4-3.2-23.1-5.2-34.9-5.8c-12.9-0.6-25.8,0.4-38.4,3.3
		c-6.3,1.4-12.4,3.3-18.4,5.7c-6,2.4-11.6,5.6-17.7,7.8c-10,3.7-21.1,4.4-31.5,2C8.6,47.9,7.1,49.3,7.1,49.4z"/>
</g>
</svg>
