<?xml version="1.0" encoding="utf-8"?>
<!-- Generator: Adobe Illustrator 26.1.0, SVG Export Plug-In . SVG Version: 6.00 Build 0)  -->
<svg version="1.1" id="Layer_1" xmlns="http://www.w3.org/2000/svg" xmlns:xlink="http://www.w3.org/1999/xlink" x="0px" y="0px"
	 viewBox="0 0 1056.6 202" style="enable-background:new 0 0 1056.6 202;" xml:space="preserve">
<g id="Livello_1_1_">
</g>
<g id="Layer_1_00000121280000816817959920000000882230360127541942_">
</g>
<g id="Livello_1_00000131326708485008664530000001860102819276108163_">
</g>
<g id="Layer_1_00000098937991800348658390000004814509184992672424_">
</g>
<g>
	<path style="fill:#FFFFFF;" d="M232.3,109.6c4.5-12.8,9.5-27.5,12.3-35.5c-1.9-1.5-3.8-2.6-5.9-3.8c-0.9-0.7-0.5-2,0.6-2l23.5,0
		c3,0,5,2.8,3.9,5.5L260.1,93l32.7-0.1l8.5-24.7l22.4,0l-22,63.1c-0.7,1.8-2,2.8-3.9,2.8l-19.3,0l8.6-25.2l-38.8,0.1
		c-1.1,0-1.5,1.2-0.7,1.8l4.8,4.3c-5.2,13.1-4.3,19.2-9.5,19.2l-19.3,0C223.8,133.3,227.8,122.5,232.3,109.6z"/>
	<path style="fill:#FFFFFF;" d="M338.4,73.9c-1.9-1.5-3.7-2.6-5.8-3.8c-1.1-0.7-0.6-2,0.5-2l29.4-0.1l-21.8,63.1
		c-0.7,1.8-2,2.8-3.9,2.8l-19.2,0C321.3,122.8,333.5,88.9,338.4,73.9z"/>
	<path style="fill:#FFFFFF;" d="M355.9,134.1c1.2-3.7,4.5-12.9,5.8-16.2c0.3-1.1,1-1.6,1.6-2.1L413.1,84l-41.6,0.1
		c0.7-1.6,1.2-3.1,1.5-4.5c0.7-2.5,1.5-5,1.8-5.6l-5.7-3.9c-0.9-0.7-0.5-1.8,0.6-1.8l78.5-0.1c-1.1,3-4.3,11.5-5.5,14.8
		c-0.5,0.9-1.1,1.6-1.7,2l-52,33.5l46.6-0.1l-4.5,13.1c-0.7,1.8-2.2,2.8-4,2.8L355.9,134.1L355.9,134.1z"/>
	<path style="fill:#FFFFFF;" d="M463.1,73.6l-5.7-3.9c-0.9-0.7-0.4-1.8,0.7-1.8l29.2-0.1c-7.9,23.2-12.3,35.3-15,43.5l-0.9,0.7
		c-0.7,0.7-2,1.7-4.3,3.9c-0.7,0.7-0.3,1.8,0.7,1.8l40.3-0.1c-1.1,2.8-3.4,9.3-4.6,13.1c-0.7,1.8-2,2.8-3.9,2.8l-57.2,0.1
		C453.9,99.7,458.3,87.8,463.1,73.6z"/>
	<path style="fill:#FFFFFF;" d="M534.1,73.5c-1.9-1.5-3.7-2.6-5.8-3.8c-1.1-0.7-0.6-2,0.5-2l29.4-0.1l-21.8,63.1
		c-0.7,1.8-2,2.8-3.9,2.8l-19.2,0C517,122.5,529.2,88.5,534.1,73.5z"/>
</g>
<g>
	<path style="fill:#FFFFFF;" d="M583.1,133.5c5.2-14.3,16.8-47.5,20.8-59.3l-5.6-3.8c-0.8-0.7-0.4-1.8,0.7-1.8l23.9,0
		c2.5,0,4.2,2.4,3.4,4.7l-4.3,12.6l24.5-16.5c0.8-0.5,1.6-0.8,2.3-0.8l24.6,0l-35.3,23.4l13,36.2c1.1,2.6-1,5.5-3.8,5.5l-19.1,0
		c-1.8-5.3-6.3-18.8-7.5-22.8l1.8-6.5c0.2-0.8-0.8-1.5-1.5-1.2l-6.4,3.9l-8,23.8c-0.7,1.8-2.2,2.8-3.9,2.8L583.1,133.5L583.1,133.5z
		"/>
	<path style="fill:#FFFFFF;" d="M684.8,74.1l-5.6-3.8c-0.8-0.7-0.5-1.8,0.6-1.8l81.6-0.1c-2.9,8.5-17.2,50.7-20.8,62.2
		c-0.7,1.8-1.9,2.8-3.8,2.8l-19.2,0l5.7-15.7l-31.6,0.1l-4.4,12.9c-0.7,1.8-1.9,2.8-3.8,2.8l-19.1,0
		C668.1,121.9,680.7,86.7,684.8,74.1z M696.2,104.4l31.3-0.1l6.2-18.2c0.6-1.5-0.1-2.2-1.9-2.2L698.5,84c-1.1,0-1.3,1.2-0.7,1.8
		l3.8,3.4L696.2,104.4z"/>
	<path style="fill:#FFFFFF;" d="M754.8,133.2c1.1-3.7,4.4-12.6,5.7-16c0.2-1.1,1-1.5,1.6-2.1l48.9-31.3L770,83.9
		c0.7-1.5,1.1-3.1,1.5-4.4c0.8-2.5,1.5-4.9,1.8-5.6l-5.6-3.8c-0.8-0.7-0.5-1.8,0.6-1.8l77.4-0.1c-1.1,2.9-4.2,11.4-5.5,14.5
		c-0.5,0.8-1.1,1.5-1.6,1.9l-51.2,32.9l45.9-0.1l-4.4,12.9c-0.7,1.8-2.2,2.8-3.9,2.8L754.8,133.2L754.8,133.2z"/>
	<path style="fill:#FFFFFF;" d="M858.1,73.7l-5.6-3.8c-0.8-0.7-0.5-1.8,0.6-1.8l81.6-0.1c-2.9,8.5-17.2,50.7-20.8,62.2
		c-0.7,1.8-1.9,2.8-3.8,2.8l-19.2,0l5.7-15.7l-31.3,0.1l-4.4,12.9c-0.7,1.8-1.9,2.8-3.8,2.8l-19,0C841.5,121.6,854,86.3,858.1,73.7z
		 M869.5,104.1l31.3-0.1l6.2-18.2c0.6-1.5-0.1-2.2-1.9-2.2l-33.3,0.1c-1.1,0-1.3,1.2-0.7,1.8l3.8,3.4L869.5,104.1z"/>
	<path style="fill:#FFFFFF;" d="M930,132.9c2.9-8.8,15.3-44.1,20.5-59.3l-5.6-3.8c-1.1-0.7-0.5-1.8,0.6-1.8l28.9-0.1l20.4,42
		l1.8-13.7l9.8-28.4l21.8,0l-21.4,62.2c-0.7,1.8-1.9,2.8-3.8,2.8l-17.8,0c-1.9-4.2-7-13.7-11.4-22.3c-2.6-5.2-5.4-10.4-8.4-16.2
		c-0.4,0.8-13.1,37.6-12.3,35.8c-0.7,1.8-1.9,2.8-3.8,2.8L930,132.9L930,132.9L930,132.9z"/>
</g>
<path style="fill:#FFFFFF;" d="M119.6,74.4c0-5.8,0-11.4,0-17c-1.2,0-2.3,0-3.4,0c-1.7,0.1-3.5,0.1-5.2,0.3
	c-2.8,0.3-5.7,0.8-8.5,1.3c-3.2,0.6-6.3,1.6-9.4,2.8c-3,1.2-5.9,2.7-8.6,4.5c-1.4,0.9-2.7,1.9-4,3c-2.3,1.9-4.4,4.2-6.2,6.6
	c-0.8,1-1.5,2.2-2.2,3.3c-0.3,0.5-0.6,1-1,1.5c0.2-0.8,0.3-1.6,0.5-2.3c0.3-1.1,0.6-2.2,1-3.3c0.4-1.2,0.8-2.5,1.3-3.7
	c0.6-1.5,1.2-3,1.8-4.4c0.4-1,1-1.9,1.5-2.9c0.4-0.8,0.9-1.7,1.4-2.5c1.1-1.6,2.2-3.1,3.3-4.6c1.3-1.7,2.8-3.3,4.4-4.7
	c1.5-1.3,3-2.6,4.7-3.7c1.8-1.2,3.7-2.2,5.7-3.2c2.5-1.2,5.2-2.1,8-2.7c1.7-0.4,3.5-0.7,5.2-1c3.1-0.5,6.3-0.6,9.4-0.5
	c0.1,0,0.2,0,0.4-0.1c0-5.6,0-11.2,0-17c9.9,8.4,19.7,16.7,29.6,25.1C139.3,57.6,129.5,66,119.6,74.4z"/>
<path style="fill:#FFFFFF;" d="M110,9.9c50.3,0.1,91.2,41,91.1,91.2c-0.1,50.3-41,91.1-91.1,91.1c-50.3-0.1-91.2-41-91.1-91.2
	C19.1,50.6,59.9,9.8,110,9.9z M48.4,44.7C35,59.7,27.7,77.1,26.6,97.2c3.8,0,7.5,0,11.3,0c0,2.6,0,5,0,7.6c-3.8,0-7.5,0-11.3,0
	c1.1,20.1,8.4,37.5,21.8,52.5c2.7-2.7,5.3-5.3,7.8-7.9c1.8,1.8,3.5,3.6,5.4,5.4c-2.5,2.5-5.2,5.1-7.8,7.8
	c31.3,29.1,81.1,29.1,112.4-0.1c-2.6-2.6-5.3-5.2-7.9-7.8c1.8-1.8,3.6-3.6,5.5-5.5c2.6,2.6,5.2,5.3,7.8,8
	c7.3-8.1,12.9-17.2,16.7-27.3c3-8.1,4.7-16.4,5.1-25.1c-3.8,0-7.5,0-11.2,0c0-2.6,0-5,0-7.6c1.9,0,3.8,0,5.6,0c1.8,0,3.7,0,5.6,0
	c-1.1-20.1-8.4-37.5-21.8-52.5c-2.7,2.7-5.3,5.3-7.8,7.9c-1.8-1.8-3.5-3.6-5.3-5.4c1.2-1.2,2.6-2.5,3.9-3.8c1.3-1.3,2.6-2.6,4-4
	c-15-13.4-32.4-20.7-52.5-21.8c0,3.8,0,7.5,0,11.3c-2.6,0-5,0-7.6,0c0-3.8,0-7.5,0-11.3C86.1,18.7,68.7,26,53.6,39.4
	c2.7,2.7,5.4,5.3,7.9,7.9c-1.8,1.8-3.5,3.5-5.3,5.3C53.7,50,51.1,47.4,48.4,44.7z"/>
<g>
	<path style="fill:#FFFFFF;" d="M76.2,97.2l-2.1,2.7l2.1,1.6l-0.1,7.9c0,0.2-0.1,0.5-0.2,0.7c-0.1,0.2-0.3,0.3-0.6,0.4l-19,4.9
		c-0.3,0.1-0.5,0-0.8-0.1c-0.3-0.1-0.4-0.4-0.5-0.6c0-0.1,0-0.2,0-0.3l0.1-7.3l8.4-2.2l0,2.2l4.2-1.1l0-2.2l-2.1,0.5l0-4.3l2.1-0.6
		l0-2.2l-4.2,1.1l0,2.2l-8.4,2.2l0.1-7.9c0-0.2,0.1-0.5,0.2-0.6c0.1-0.2,0.3-0.3,0.6-0.4l19-4.9c0.3-0.1,0.6,0,0.8,0.1
		s0.4,0.4,0.5,0.6c0,0,0,0.1,0,0.1c0,0,0,0.1,0,0.1L76.2,97.2z"/>
	<path style="fill:#FFFFFF;" d="M91.2,84.6l8.4-2.2l-0.1,10.1l-4.2,1.1l1.8,0l2.4,1.9l0,8.7l-8.4,2.2l0.1-6.5L89,98.3l-2.1,2.7
		l0,6.5l-8.4,2.2l0.1-8.7l2.1-2.7l-2.1-1.6l0.1-8.7l8.4-2.2l0,6.6l2.1,1.6l2.1-2.7L91.2,84.6z"/>
</g>
<g>
	<path style="fill:#FFFFFF;" d="M61.6,153.9l2.5-20.4l-2.9,0.4l1-8.7l14.6-2.1l-3.5,29.2L61.6,153.9z"/>
	<path style="fill:#FFFFFF;" d="M107.1,118.8c0.4-0.1,0.8,0,1.1,0.3c0.3,0.2,0.5,0.5,0.5,0.9c0,0.1,0,0.1,0,0.2c0,0.1,0,0.1,0,0.2
		l-3.2,26.2c0,0.3-0.2,0.6-0.4,0.8c-0.2,0.2-0.5,0.3-0.8,0.4l-26.2,3.7c-0.4,0.1-0.7,0-1.1-0.3c-0.3-0.2-0.5-0.5-0.5-0.9
		c0-0.2,0-0.3,0-0.4l3.2-26.2c0-0.3,0.1-0.6,0.4-0.8c0.2-0.2,0.5-0.4,0.8-0.4L107.1,118.8z M96.2,128.7l-5.8,0.8L89,141.2l5.8-0.8
		L96.2,128.7z"/>
	<path style="fill:#FFFFFF;" d="M139.1,114.2c0.4-0.1,0.8,0,1.1,0.3c0.3,0.2,0.5,0.5,0.5,0.9c0,0.1,0,0.1,0,0.2s0,0.1,0,0.2
		l-3.2,26.2c0,0.3-0.2,0.6-0.4,0.8c-0.2,0.2-0.5,0.3-0.8,0.4l-26.2,3.7c-0.4,0.1-0.7,0-1.1-0.3c-0.3-0.2-0.5-0.5-0.5-0.9
		c0-0.2,0-0.3,0-0.4l3.2-26.2c0-0.3,0.1-0.6,0.4-0.8c0.2-0.2,0.5-0.4,0.8-0.4L139.1,114.2z M128.2,124.1l-5.8,0.8l-1.4,11.7l5.8-0.8
		L128.2,124.1z"/>
	<path style="fill:#FFFFFF;" d="M161.5,111l11.6-1.7l-1.6,13.6l-5.8,0.8l2.4,0.3l2.9,2.8l-1.4,11.7l-11.6,1.7l1.1-8.7l-2.6-2.5
		l-3.3,3.3l-1,8.7l-11.6,1.7L142,131l3.2-3.3l-2.6-2.5l1.4-11.7l11.6-1.7l-1.1,8.8l2.6,2.5l3.2-3.3L161.5,111z"/>
</g>
<g>
	<path style="fill:#FFFFFF;" d="M147.1,85.5c0.3,0.1,0.6,0.2,0.8,0.5c0.2,0.3,0.2,0.6,0.2,0.9c0,0.1-0.1,0.2-0.1,0.3l-5.8,11.5
		c-0.1,0.3-0.3,0.4-0.6,0.6c-0.3,0.1-0.5,0.1-0.8,0.1l-24.2-5l3.5-6.9l15.1,3.1l1.2-2.3l-13.5-2.8c-0.3-0.1-0.6-0.2-0.8-0.5
		c-0.2-0.3-0.2-0.6-0.2-0.9c0-0.1,0.1-0.2,0.1-0.3l6.2-12.3l25.1,5.2l-3.5,6.9l-15.1-3.1l-1.2,2.3L147.1,85.5z"/>
	<path style="fill:#FFFFFF;" d="M171.3,80.4l10.1,2.1L176,93.1l-5-1l1.9,1l1.5,3.2l-4.6,9.2l-10.1-2.1l3.5-6.9l-1.4-2.8l-3.7,1.8
		l-3.4,6.9l-10.1-2.1l4.6-9.2l3.6-1.8l-1.4-2.8l4.6-9.2l10.1,2.1l-3.5,6.9l1.4,2.8l3.6-1.7L171.3,80.4z"/>
</g>
</svg>
