<?xml version="1.0" encoding="utf-8"?>
<!-- Generator: Adobe Illustrator 24.1.2, SVG Export Plug-In . SVG Version: 6.00 Build 0)  -->
<svg version="1.1" id="Layer_1" xmlns="http://www.w3.org/2000/svg" xmlns:xlink="http://www.w3.org/1999/xlink" x="0px" y="0px"
	 viewBox="0 0 294.6 60.6" style="enable-background:new 0 0 294.6 60.6;" xml:space="preserve">
<style type="text/css">
	.st0{fill:#FFFFFF;}
</style>
<g>
	<path class="st0" d="M53,53.6c0-14.4,0-28.8,0-43.2c10.4,0,20.9,0,31.3,0c0,2.4,0,4.7,0,7.1c-7.7,0-15.4,0-23.1,0
		c0,3.5,0,6.9,0,10.3c5.1,0,10.2,0,15.4,0c0,2.4,0,4.7,0,7.1c-5.1,0-10.2,0-15.4,0c0,3.9,0,7.7,0,11.6c8,0,15.9,0,23.9,0
		c0,2.4,0,4.7,0,7.1C74.4,53.6,63.7,53.6,53,53.6z"/>
	<path class="st0" d="M224.9,38.3c0-3.5,0.8-6.7,2.8-9.6c2.1-3.1,5-5.1,8.6-6c3.6-0.9,7.1-0.8,10.5,0.5c4,1.5,6.9,4.3,8.4,8.3
		c1.7,4.3,1.8,8.8,0.1,13.1c-1.9,4.7-5.4,7.7-10.4,8.9c-3.6,0.9-7.3,0.8-10.8-0.6c-4.6-1.9-7.4-5.3-8.7-10
		C225.1,41.4,225,39.8,224.9,38.3z M233.2,38.3c0,0.7,0.1,1.4,0.2,2.1c0,0.4,0.1,0.8,0.2,1.2c0.8,3.5,3.1,5.6,6.4,5.9
		c3.4,0.3,6.5-1.2,7.8-4.8c0.9-2.6,0.9-5.3,0.3-7.9c-0.4-1.7-1.1-3.1-2.4-4.3c-1.5-1.3-3.3-1.8-5.2-1.7c-2.7,0.1-4.8,1.4-6,3.8
		C233.5,34.4,233.2,36.3,233.2,38.3z"/>
	<path class="st0" d="M127.9,22.1c3.4,0.1,6.5,0.9,9.3,2.8c3.1,2.1,5,5.1,5.9,8.7c1,3.9,0.8,7.7-0.8,11.4c-2.2,4.9-6,7.8-11.3,8.8
		c-3.7,0.7-7.3,0.4-10.7-1.3c-4.4-2.1-6.9-5.7-7.9-10.4c-0.8-3.7-0.6-7.3,0.9-10.8c2.1-4.8,5.8-7.7,11-8.8
		C125.5,22.3,126.7,22.3,127.9,22.1z M135.5,38.3c-0.1-0.9-0.1-1.8-0.3-2.7c-0.3-1.6-0.8-3.1-1.9-4.4c-1.5-1.8-3.5-2.5-5.8-2.4
		c-3.2,0.1-5.4,1.7-6.5,4.6c-1.2,3.1-1.2,6.3-0.1,9.4c0.6,1.7,1.7,3.1,3.3,4c1.4,0.7,2.9,0.9,4.4,0.7c2.6-0.3,4.6-1.6,5.7-4
		C135.2,41.9,135.5,40.1,135.5,38.3z"/>
	<path class="st0" d="M288,53.6c-2.7,0-5.4,0-8.1,0c0-0.2,0-0.3,0-0.5c0-5.9,0-11.8,0-17.7c0-0.9-0.1-1.8-0.4-2.7
		c-0.5-1.9-1.7-3.1-3.8-3.4c-1.8-0.3-3.6,0-5,1.3c-1.1,1-1.7,2.3-2.1,3.7c-0.3,1.3-0.4,2.7-0.4,4c0,5,0,9.9,0,14.9
		c0,0.1,0,0.3,0,0.5c-2.7,0-5.4,0-8.1,0c0-10.2,0-20.5,0-30.7c2.7,0,5.4,0,8.1,0c0,1.6,0,3.2,0,4.8c0,0,0,0,0.1,0
		c0.1-0.1,0.1-0.2,0.2-0.3c1.7-3.3,4.4-5,8-5.2c2-0.1,4,0.1,5.8,1.1c2.4,1.2,3.9,3.2,4.7,5.7c0.7,1.9,0.9,3.8,0.9,5.8
		c0,6.2,0,12.3,0,18.5C288,53.3,288,53.4,288,53.6z"/>
	<path class="st0" d="M168.3,22.9c0,0.2,0,0.4,0,0.5c0,5.8,0,11.6,0,17.5c0,1.1,0.1,2.2,0.6,3.3c0.8,2,2.3,3,4.4,3.2
		c1.2,0.1,2.3,0,3.3-0.6c1.3-0.7,2-1.9,2.5-3.2c0.6-1.6,0.7-3.2,0.7-4.8c0-5.1,0-10.2,0-15.3c0-0.1,0-0.3,0-0.5c2.7,0,5.4,0,8.1,0
		c0,10.2,0,20.5,0,30.7c-2.7,0-5.4,0-8.1,0c0-1.4,0-2.8,0-4.2c-0.4,0.5-0.7,1.1-1,1.5c-1.4,1.8-3.3,2.8-5.5,3.2
		c-2.4,0.3-4.7,0.1-6.9-0.9c-2.8-1.3-4.4-3.6-5.4-6.4c-0.6-1.8-0.8-3.7-0.8-5.5c0-6,0-12,0-18c0-0.1,0-0.2,0-0.3
		C162.9,22.9,165.5,22.9,168.3,22.9z"/>
	<path class="st0" d="M113.3,22.8c-0.5,1.5-1.1,2.9-1.6,4.4c-3.2,8.7-6.3,17.3-9.5,26c-0.1,0.4-0.3,0.5-0.7,0.4c-2.2,0-4.4,0-6.6,0
		c-0.1,0-0.3,0-0.4,0c-3.9-10.2-7.9-20.5-11.8-30.7c0.2,0,0.3,0,0.4,0c2.5,0,5.1,0,7.6,0c0.3,0,0.4,0.1,0.5,0.4
		c2.3,6.9,4.7,13.8,7,20.7c0,0.1,0.1,0.2,0.1,0.3c0.4-1.1,0.7-2.2,1.1-3.3c1.9-5.9,3.7-11.8,5.6-17.7c0.1-0.3,0.2-0.4,0.5-0.4
		c2.4,0,4.9,0,7.3,0C113,22.8,113.2,22.8,113.3,22.8z"/>
	<path class="st0" d="M191,29.4c0-2.2,0-4.4,0-6.5c1.4,0,2.9,0,4.4,0c0-0.2,0-0.4,0-0.5c0-1.7,0-3.3,0-5c0-0.1,0.1-0.3,0.2-0.4
		c2.5-1.4,5-2.8,7.5-4.2c0.1,0,0.1,0,0.2-0.1c0,3.4,0,6.8,0,10.2c2,0,4,0,6,0c0,2.2,0,4.4,0,6.5c-2,0-4,0-6.1,0c0,0.2,0,0.3,0,0.4
		c0,4.9,0,9.9,0,14.8c0,0.2,0,0.4,0,0.6c0.2,1,0.8,1.6,2,1.6c1.1,0,2.2,0,3.3,0c0.1,0,0.3,0,0.5,0c0,2.2,0,4.5,0,6.7
		c-0.1,0-0.2,0-0.4,0c-2,0-3.9,0-5.9,0c-1.1,0-2.2-0.2-3.3-0.5c-2.1-0.7-3.3-2.1-3.7-4.2c-0.2-1.1-0.4-2.2-0.4-3.3
		c0-5.2,0-10.5,0-15.7c0-0.1,0-0.3,0-0.5C193.9,29.4,192.5,29.4,191,29.4z"/>
	<path class="st0" d="M155.5,53.6c-2.7,0-5.4,0-8.1,0c0-14.6,0-29.2,0-43.8c2.7,0,5.4,0,8.1,0C155.5,24.3,155.5,38.9,155.5,53.6z"/>
	<path class="st0" d="M213.2,22.8c2.7,0,5.4,0,8.1,0c0,10.2,0,20.5,0,30.7c-2.7,0-5.4,0-8.1,0C213.2,43.3,213.2,33.1,213.2,22.8z"/>
	<path class="st0" d="M221.4,10.4c0,2.6,0,5.2,0,7.9c-2.8,0-5.6,0-8.4,0c0-2.6,0-5.2,0-7.9C215.8,10.4,218.6,10.4,221.4,10.4z"/>
	<g>
		<path class="st0" d="M35.3,32.2c-2.9,0.2-5.7,0.5-8.5,1.2C20.4,35,15.4,38.4,12,44.1c-1.4,2.3-2.5,4.7-3.5,7.1
			c-0.4,0.9-0.8,1.9-1.2,2.8c0.1,0.1,0.1,0.1,0.2,0.1c5.5,2.8,11.3,3.8,17.4,2.5c6.4-1.4,11.4-4.8,15.1-10.1c2.7-3.9,4.1-8.3,4.6-13
			c0-0.4,0.1-0.7,0.1-1.1C41.5,32.1,38.4,32,35.3,32.2z"/>
		<path class="st0" d="M11.6,17.7c1.3,2.2,2.7,4.2,4.6,5.9l0,0c0,0,1.1,1.3,3.8,2.8c2.4,1.4,4.9,2.3,7.6,2.9
			c0.2,0.1,0.5,0.1,0.7,0.1c0,0,0,0,0,0c4.2,0.9,9.5,1.3,16.4,0.7c-0.8-9-4.3-16.5-12.3-21.3C24.2,4.1,15.7,4.4,7.3,8.5
			c0.2,0.5,0.4,0.8,0.5,1.2C9,12.4,10.1,15.1,11.6,17.7z"/>
	</g>
</g>
</svg>
