<?xml version="1.0" encoding="UTF-8"?> <!-- Generator: Adobe Illustrator 24.2.3, SVG Export Plug-In . SVG Version: 6.00 Build 0) --> <svg xmlns="http://www.w3.org/2000/svg" xmlns:xlink="http://www.w3.org/1999/xlink" version="1.1" id="Layer_1" x="0px" y="0px" viewBox="0 0 64 64" style="enable-background:new 0 0 64 64;" xml:space="preserve"> <style type="text/css"> .st0{fill:#FFFFFF;} </style> <g> <path class="st0" d="M32.6,63.3c-0.7,0-1.3-0.1-2-0.4l-27-10.4c-2.8-1.1-4.3-4.3-3.2-7.1l10.4-27c0.5-1.4,1.6-2.5,2.9-3.1 c1.4-0.6,2.9-0.6,4.2-0.1l27,10.4c1.4,0.5,2.5,1.6,3.1,2.9c0.6,1.4,0.6,2.9,0.1,4.2l-10.4,27C37,61.9,34.9,63.3,32.6,63.3z M16,16.6c-0.5,0-1,0.1-1.5,0.3c-0.9,0.4-1.6,1.2-2,2.1L2.1,46c-0.7,1.9,0.2,4.1,2.2,4.9l27,10.4c1.9,0.7,4.1-0.2,4.9-2.2l10.4-27 c0.4-0.9,0.3-2-0.1-2.9c-0.4-0.9-1.2-1.6-2.1-2l-27-10.4C16.9,16.7,16.5,16.6,16,16.6z"></path> <path class="st0" d="M19.5,22.6c-1.6-0.6-3.5,0.2-4.1,1.8c-0.6,1.6,0.2,3.5,1.8,4.1c1.6,0.6,3.5-0.2,4.1-1.8 C21.9,25,21.1,23.2,19.5,22.6z"></path> <path class="st0" d="M12,42.1c-1.6-0.6-3.5,0.2-4.1,1.8c-0.6,1.6,0.2,3.5,1.8,4.1c1.6,0.6,3.5-0.2,4.1-1.8 C14.4,44.6,13.6,42.7,12,42.1z"></path> <path class="st0" d="M25.5,36.1c-1.6-0.6-3.5,0.2-4.1,1.8c-0.6,1.6,0.2,3.5,1.8,4.1s3.5-0.2,4.1-1.8C27.9,38.6,27.1,36.7,25.5,36.1 z"></path> <path class="st0" d="M39,30.1c-1.6-0.6-3.5,0.2-4.1,1.8c-0.6,1.6,0.2,3.5,1.8,4.1c1.6,0.6,3.5-0.2,4.1-1.8 C41.4,32.5,40.6,30.7,39,30.1z"></path> <ellipse transform="matrix(0.9125 -0.4092 0.4092 0.9125 -18.8509 17.0185)" class="st0" cx="30.3" cy="52.6" rx="3.2" ry="3.2"></ellipse> <path class="st0" d="M48.7,42.7c-0.4,0-0.8-0.3-0.9-0.8c0-0.5,0.3-0.9,0.8-1l10-0.9c1-0.1,1.9-0.5,2.5-1.3c0.6-0.7,0.9-1.7,0.8-2.7 L59.4,8c-0.2-2-2-3.5-4-3.3l-28,2.5c-1,0.1-1.9,0.5-2.5,1.3c-0.6,0.7-0.9,1.7-0.8,2.7l0.2,2.2c0,0.5-0.3,0.9-0.8,0.9 c-0.5,0-0.9-0.3-1-0.8l-0.2-2.2c-0.1-1.4,0.3-2.8,1.2-3.9c0.9-1.1,2.2-1.8,3.7-1.9l28-2.5c3-0.3,5.6,1.9,5.9,4.9l2.5,28 c0.1,1.4-0.3,2.8-1.2,3.9c-0.9,1.1-2.2,1.8-3.7,1.9L48.7,42.7C48.7,42.6,48.7,42.7,48.7,42.7z"></path> <path class="st0" d="M41.8,10.4c-1.7,0.2-2.9,1.7-2.8,3.3c0.2,1.7,1.7,2.9,3.3,2.8c1.7-0.2,2.9-1.7,2.8-3.3 C45,11.5,43.5,10.3,41.8,10.4z"></path> <path class="st0" d="M52.9,19.6c-1.7,0.2-2.9,1.7-2.8,3.3c0.2,1.7,1.7,2.9,3.3,2.8c1.7-0.2,2.9-1.7,2.8-3.3 C56.1,20.7,54.6,19.5,52.9,19.6z"></path> </g> </svg> 