<?xml version="1.0" encoding="UTF-8"?> <!-- Generator: Adobe Illustrator 22.0.0, SVG Export Plug-In . SVG Version: 6.00 Build 0) --> <svg xmlns="http://www.w3.org/2000/svg" xmlns:xlink="http://www.w3.org/1999/xlink" version="1.1" id="Layer_1" x="0px" y="0px" viewBox="0 0 1000 1000" style="enable-background:new 0 0 1000 1000;" xml:space="preserve"> <g> <path style="fill:#FFFFFF;" d="M496.1,116.4L762.3,803L640.7,925.1H351.4L227.7,803L496.1,116.4z M496.1,51.7L200.4,809.3 l141.5,139.4h308.9l138.9-139.4L496.1,51.7z"></path> <path style="fill:#FFFFFF;" d="M476.6,633.1c-40-25.8-166.8,33.1-166.8,33.1l-49.5,126.3l59.5,60 C334,838.3,539.2,674.1,476.6,633.1z"></path> <path style="fill:#FFFFFF;" d="M507.6,206.4c0,0-31.6,96.3-60.5,182c-40.5,118.9-27.9,152.6,26.3,135.7 c77.9-23.7,134.2-63.1,152.6,24.2c19.5,101-73.7,197.8-154.2,269.9c-34.7,31-75.2,61-100,78.9h259.9l103.7-105.8L507.6,206.4z"></path> </g> </svg> 