<?xml version="1.0" encoding="utf-8"?>
<!-- Generator: Adobe Illustrator 26.1.0, SVG Export Plug-In . SVG Version: 6.00 Build 0)  -->
<svg version="1.1" id="Layer_1" xmlns="http://www.w3.org/2000/svg" xmlns:xlink="http://www.w3.org/1999/xlink" x="0px" y="0px"
	 viewBox="0 0 1056.6 202" style="enable-background:new 0 0 1056.6 202;" xml:space="preserve">
<g id="Livello_1_1_">
</g>
<g id="Layer_1_00000121280000816817959920000000882230360127541942_">
</g>
<g>
	<path style="fill:#FFFFFF;" d="M258.4,109.7c0-3.3,0.7-7.6,1.7-12.7c4.1-19.5,8.6-24.9,27.7-24.9c5.5,0,13.2,0.7,18.7,1.7
		l-2.4,11.3c-4.4-0.5-10.2-0.9-12.8-0.9c-11.3,0-11.8,0.3-14.5,13.4c-0.9,4.4-1.5,7.4-1.5,9.5c0,3.4,1.6,4.2,5.5,4.2
		c0.5,0,2.1-0.1,3.2-0.1l1.6-7.8h-4.8l2.3-11h19.6l-6.2,29.1c-5.5,0.9-13.1,1.5-18.4,1.5C264.1,123.3,258.4,119.8,258.4,109.7z"/>
	<path style="fill:#FFFFFF;" d="M304.2,114.6c0-2.6,0.6-6.1,1.5-10.4c3.4-15.6,4.4-19.1,21-19.1c13.4,0,17.4,2.1,17.4,8.8
		c0,2.6-0.5,6.1-1.5,10.3c-3.5,15.6-4.6,19.1-21.1,19.1C308.2,123.3,304.2,121.2,304.2,114.6z M327.3,104.2c0.7-3.3,1-5.3,1-6.5
		c0-1.5-0.8-1.7-2.5-1.7c-3.1,0-3.1,0.4-4.7,8.2c-0.7,3.5-1.1,5.5-1.1,6.6c0,1.5,0.7,1.6,2.5,1.6C325.6,112.4,325.7,112,327.3,104.2
		z"/>
	<path style="fill:#FFFFFF;" d="M361.6,118.6h-0.8l-1.2,4.1h-15l11.4-54h15.6l-4.4,20.6h0.7c2.8-3.7,6.1-4.2,8.8-4.2
		c6.8,0,10,2.1,10,9c0,2.6-0.3,6-1.2,10.2c-3.1,15.2-7,19-14.5,19C366.9,123.3,362.9,122.5,361.6,118.6z M370.1,104.2
		c0.6-2.8,0.9-4.6,0.9-5.6c0-1.5-0.7-1.5-2.5-1.5c-1.7,0-2.5,0.1-3.1,1.5c-0.7,1.7-2.4,9.6-2.4,11.1c0,1.5,0.7,1.6,2.5,1.6
		C368.5,111.3,368.5,111.1,370.1,104.2z"/>
	<path style="fill:#FFFFFF;" d="M398.3,68.7h15.8l-11.4,54h-15.8L398.3,68.7z"/>
	<path style="fill:#FFFFFF;" d="M416.9,85.6h15.8l-7.8,37.1h-15.8L416.9,85.6z M420.5,68.7h15.8l-2.3,11h-15.8L420.5,68.7z"/>
	<path style="fill:#FFFFFF;" d="M439.2,85.6h15l-0.6,4.1h0.7c3.1-3.9,7.2-4.7,10-4.7c7,0,9,2.5,9,7.6c0,2-0.6,5.6-1.3,9.1l-4.5,21
		h-15.5l3.9-18.6c0.5-2.3,0.9-4.6,0.9-5.5c0-1.4-0.5-1.5-1.7-1.5c-2.8,0-3,0.4-4.2,6l-4.2,19.6h-15.5L439.2,85.6z"/>
	<path style="fill:#FFFFFF;" d="M495.9,112.1c0-3.7,1.2-8.6,2.4-15.1c3.9-20.2,5.3-24.9,26.2-24.9c15.5,0,20.1,2.9,20.1,11.3
		c0,3.8-0.9,8.6-2.3,15c-4.7,20.3-5.4,24.9-26,24.9C500.6,123.3,495.9,120.4,495.9,112.1z M525.4,97.7c1.2-5.5,1.8-8.9,1.8-10.8
		c0-2.6-1.2-2.7-4.1-2.7c-5.1,0-5.2,0.3-7.9,13.4c-1.2,5.7-2,9-2,10.9c0,2.5,1.2,2.5,4.1,2.5C522.4,111.1,522.5,110.8,525.4,97.7z"
		/>
	<path style="fill:#FFFFFF;" d="M544,136.6l2-9.8h9.6c8,0,8.2,0,9.4-5.6c0.3-1.2,0.5-2.5,0.8-3.8h-0.7c-3.1,3.9-6.8,4.7-9.5,4.7
		c-7.2,0-9.4-2.8-9.4-7.8c0-1.9,0.3-4.1,0.9-6.6l4.7-22h15.6l-3.9,18.4c-0.5,2.4-0.8,3.9-0.8,4.7c0,1.3,0.6,1.3,2,1.3
		c2.5,0,2.7-0.1,4-6l3.9-18.4h15.6l-7,33.1c-2.6,12.4-3.6,19-23.8,19C552.4,137.7,546.9,137.2,544,136.6z"/>
	<path style="fill:#FFFFFF;" d="M588.8,115.4c0-2,0.7-5.6,1.4-9.1l4.4-20.7h15.5l-3.9,18.6c-0.5,2.3-0.9,4.6-0.9,5.5
		c0,1.4,0.5,1.5,1.7,1.5c2.8,0,3-0.4,4.2-6l4.2-19.6h15.5l-7.8,37.1h-15l0.6-4.1h-0.7c-3.1,3.9-7.2,4.7-10,4.7
		C590.7,123.3,588.8,120.7,588.8,115.4z"/>
	<path style="fill:#FFFFFF;" d="M637.4,85.6h15l-0.6,4.1h0.7c3.1-3.9,7.2-4.7,10-4.7c7,0,9,2.5,9,7.6c0,2-0.6,5.6-1.3,9.1l-4.5,21
		h-15.5l3.9-18.6c0.5-2.3,0.9-4.6,0.9-5.5c0-1.4-0.5-1.5-1.7-1.5c-2.8,0-3,0.4-4.2,6l-4.2,19.6h-15.5L637.4,85.6z"/>
	<path style="fill:#FFFFFF;" d="M683.7,68.7h15.8l-11.4,54h-15.8L683.7,68.7z"/>
	<path style="fill:#FFFFFF;" d="M696.1,114.5c0-2.6,0.3-6,1.2-10.2c3.1-15.1,7-19.2,14.4-19.2c4,0,7.7,0.5,9.6,4.2h0.7l1.2-3.7h15.1
		l-7.8,37.1h-15l0.7-4.1h-0.8c-2.6,3.9-6,4.7-9.3,4.7C699.3,123.3,696.1,121.3,696.1,114.5z M717.5,109.5c0.7-2,2.3-9,2.3-10.8
		c0-1.5-0.5-1.6-2.4-1.6c-3,0-3.1,0.1-4.6,7.1c-0.7,2.9-0.9,4.6-0.9,5.7c0,1.4,0.7,1.5,2.5,1.5C716.5,111.3,717,111.1,717.5,109.5z"
		/>
	<path style="fill:#FFFFFF;" d="M744.8,85.6h15l-1,6.2h0.7c3.2-5.5,5.9-6.8,12.6-6.8l-2.9,13.5c-9.7,0-12,1.8-14.1,11.7l-2.7,12.4
		H737L744.8,85.6z"/>
	<path style="fill:#FFFFFF;" d="M776.6,85.6h15.8l-7.8,37.1h-15.8L776.6,85.6z"/>
</g>
<path style="fill:#FFFFFF;" d="M70.4,49.8c0.7-2.3,1.3-4.5,1.9-6.7c1.2-3.9,2.5-7.8,3.8-11.7c2-5.7,5.8-9.7,11.1-12.4
	c4-2.1,8.3-3.3,12.7-4.3c5-1.1,10-1.8,15.1-2.2c1.1-0.1,2.3,0.2,3.4,0.3c4.9,0.6,9.8,1.3,14.6,2.5c3.7,1,7.4,2.2,10.8,4
	c4.9,2.7,8.4,6.6,10.4,11.9c2,5.5,3.6,11.1,5.2,16.7c0.2,0.5,0.3,1,0.5,1.7c17.1-9.5,35.4-15.2,54.7-18.4c-0.8,1.1-1.5,2.1-2.1,3.1
	c-5.7,8.3-11.5,16.6-17.2,24.9c-8.8,12.9-17.3,25.9-25.3,39.3c-5,8.5-9.8,17-13.8,26.1c-1.4,3.1-2.6,6.3-3.4,9.6
	c0,0.2-0.2,0.4-0.4,0.5c-3.7,0.5-6.4,2.6-8.5,5.5c-2.5,3.4-3.7,7.2-4.4,11.3c-0.5,2.7-0.6,5.5-0.1,8.2c0.3,2,0.6,4,0.5,6.1
	c-0.2,2.7-1.1,5.1-3.1,7.1c-0.3,0.4-0.5,0.7-0.5,1.2c-0.2,5.2-3.1,8.9-7.1,11.9c-4.1,3.1-8.7,5.2-13.6,6.5c-0.3,0.1-0.6,0.1-0.9,0
	c-4.5-1.1-8.7-2.7-12.5-5.5c-4.4-3.3-7.3-7.5-8.2-13c0-0.3-0.2-0.7-0.5-1c-2.7-2.8-3.4-6.2-3.1-9.9c0.2-2.1,0.6-4.1,0.7-6.2
	c0.2-5.5-1.1-10.7-4-15.5c-1.4-2.4-3.2-4.4-5.8-5.6c-1.1-0.5-2.3-0.7-3.4-1.1c-0.2-0.1-0.4-0.2-0.5-0.4c-2.3-8.5-6.4-16.3-10.5-24
	C57.7,93.3,47,77.1,36.1,61c-6.6-9.7-13.3-19.3-20-29c-0.1-0.2-0.2-0.3-0.4-0.6C35,34.6,53.3,40.3,70.4,49.8z M95.2,66
	c-0.2-0.1-0.3-0.3-0.4-0.4c-1-0.9-2-1.8-3-2.6c-2.8-2.1-5.8-3.7-9.4-4c-4-0.3-7.8,2-9.2,5.6c-1.2,3-0.2,6.1,2.5,7.7
	c0.9,0.5,1.3,0.5,2.1-0.1c0.3-0.2,0.6-0.5,0.9-0.7c0.7-0.4,1.5-1,2.3-1.2c1.4-0.4,2.7,0,3.9,0.7c1.5,0.9,2.9,1.8,4.2,2.9
	c3.1,2.8,6,5.7,9,8.6c0.9,0.8,1.7,1.8,2.7,2.6c1.4,1.1,3,1.6,4.8,1.3c2.7-0.5,4.6-3.1,4.3-6c-0.2-1.3-0.6-2.5-0.9-3.6
	c1.6,1.5,2.4,3.7,3.3,5.8c2-0.7,3.9-0.7,5.8,0c0.9-2.1,1.7-4.2,3.3-5.8c-0.2,0.6-0.4,1.2-0.6,1.8c-0.6,2-0.5,4,0.7,5.8
	c1.8,2.5,5.1,2.9,7.8,1c0.8-0.6,1.5-1.3,2.1-2c3.3-3.3,6.5-6.7,10.2-9.7c1.5-1.2,3-2.4,4.8-3c1.9-0.7,3.7-0.5,5.2,0.9
	c0.3,0.3,0.7,0.6,1,0.8c0.6,0.5,1.2,0.5,1.9,0.1c2.4-1.4,3.5-3.9,2.9-6.6c-0.8-3.8-4.5-7.1-9.6-6.7c-2.9,0.2-5.5,1.2-7.7,2.9
	c-3.6,2.7-7.2,5.6-10.8,8.4c-0.9,0.7-1.8,1.4-2.8,2.2c0.8-1.7,1.6-3.2,2.3-4.7c3.1-7.1,4.9-14.4,4.2-22.2c-0.4-4.8-1.8-9.3-4.3-13.4
	c-3.3-5.3-7.8-9.2-13.1-12.2c-0.3-0.2-0.7-0.2-1-0.1c-3.9,0.6-7.8,1.1-11.7,1.8c-4,0.7-7.9,1.8-11.6,3.5c-4,1.9-6.8,4.7-8.4,8.9
	c-1.8,4.9-3.2,9.9-4.6,14.9c-0.4,1.3-0.7,2.6-1.1,3.9c4.1,0.2,7.8,1.4,11.1,3.8C91.4,59.1,93.7,62.2,95.2,66z M75.4,78.3
	c-2.9,3.9-4,8-2.9,12.7c1,4.1,3.1,7.6,5.6,11c0,0,0.1,0,0.1,0c0.2-0.8,0.3-1.5,0.7-2.2c0.6-1.5,1.8-2.1,3.4-1.9c1.6,0.2,2.8,1,4,2
	c1.6,1.4,3.1,2.8,4.6,4.2c5.2,4.9,11.2,8.8,17.8,11.7c0.2,0.1,0.3,0.1,0.5,0.2c-0.1-1.8-0.4-3.4-1.3-4.8c-0.7-1-1.6-1.7-2.9-1.9
	c-0.2,0-0.5-0.3-0.6-0.5c-1.2-1.7-1.6-3.6-1.3-5.6c0.1-0.5,0.2-1.1,0.3-1.6c0.2,1.9,0.5,3.6,1.6,5.2c1.5-1.3,2.5-0.8,3.3,0
	c0.4,0.4,0.8,0.9,1,1.4c0.7,1.6,1.4,3.3,1.9,5c0.4,1.3,0.5,2.6,0.7,4c0.2,1.5,1.3,2.6,3,2.7c1.8,0.1,3.1-0.9,3.4-2.4
	c0.3-1.8,0.6-3.6,1-5.3c0.5-1.8,1.1-3.5,2.3-5c1.1-1.4,2.1-1.5,3.5-0.3c0,0,0.1,0,0.2,0c1.1-1.6,1.5-3.3,1.4-5.2
	c0-1.6-0.7-2.6-2.1-3.1c-1.5-0.5-3.2,0-3.9,1.2c-0.5,0.9-0.9,1.9-1.3,2.8c-0.2,0.5-0.3,1-0.4,1.5c-0.1,0-0.1,0-0.2,0
	c0-0.4,0-0.9,0-1.3c0-2.5,0.1-5,1.3-7.3c0.1-0.2,0.1-0.4,0.1-0.5c-0.3-2.6-2.5-4.6-5.1-4.6c-2.5,0-4.7,2-5,4.6c0,0.2,0,0.3,0.1,0.5
	c1.4,2.8,1.3,5.8,1.2,8.8c-0.1-0.3-0.2-0.7-0.3-1.1c-0.6-2.6-1.5-5.1-3.2-7.2c-1.5-1.8-3.3-3-5.7-2.9c-0.3,0-0.7,0.2-0.9,0.4
	c-2.7,2.6-6,3.4-9.6,3.2c3-1,5.1-2.9,6.5-5.8c-4.7,0.3-9.2-0.3-13.3-2.5C80.6,85.9,77.5,82.6,75.4,78.3z M63,86.2
	C63,86.2,63,86.2,63,86.2c1.8-9.1,3.6-18.1,5.4-27.1c0.1-0.4,0-0.6-0.4-0.7c-9.1-5.2-18.5-9.8-28.3-13.4c-1.5-0.5-3-1-4.4-1.5
	C44.6,57.7,53.8,72,63,86.2z M101.1,172.8c0.2,1.3,0.7,2.5,1.4,3.6c2.5,3.8,5.8,6.5,9.9,8.3c1.9,0.8,3.8,0.8,5.7-0.1
	c3.2-1.5,5.9-3.6,8.2-6.4c1.1-1.3,2-2.8,2.5-4.4c0.1-0.3,0.2-0.7,0.2-1.1c-1.6-0.3-3.1-0.7-4.6-1.6c0.3-0.1,0.4-0.1,0.6-0.2
	c1.8-0.4,3.5-0.9,5.1-1.9c1.8-1.1,2.5-2.7,2.4-4.7c0-0.5-0.1-1-0.2-1.5c-0.4-2.4-0.9-4.8-0.8-7.2c0,0-0.1,0-0.1-0.1
	c-0.7,1.5-0.8,3-0.9,4.6c-0.1,0.7-0.2,1.4-0.6,1.9c-0.6,0.7-1.4,1.4-2.2,1.9c-2.4,1.4-5.1,1.8-7.8,1.9c-2.1,0.1-4.3,0.1-6.4,0
	c-2.3-0.1-4.5-0.2-6.8-0.5c-2.1-0.3-4.1-0.9-5.8-2.3c-1-0.8-1.6-1.9-1.6-3.3c0-1-0.2-2-0.4-3c-0.1-0.5-0.3-1-0.5-1.4
	c-0.1,0.6,0,1.2-0.1,1.7c-0.3,2-0.6,4.1-0.8,6.1c-0.4,3,0.3,4.8,3.3,6.2c0.9,0.4,1.9,0.7,2.9,1c0.6,0.2,1.2,0.3,1.8,0.5
	c0,0.1,0,0.2,0,0.2C104.1,171.8,102.7,172.3,101.1,172.8z M128.2,123.7c0.3,0.2,0.7,0.4,1.2,0.6c1.2,0.4,2.3,0.4,3.2-0.7
	c0.5-0.7,1.1-1.2,1.6-1.9c2.3-3.2,3.6-6.8,4.6-10.6c0.3-1,0.4-2,0.7-3c-0.6,0.3-1.1,0.8-1.6,1.2c-2.1,1.9-4.1,3.8-6.6,5.1
	c-3.3,1.6-6.7,3.2-10,4.8c-0.3,0.2-0.6,0.4-0.8,0.7c-2.3,3.9-8.3,3.9-10.6,0c-0.2-0.3-0.4-0.5-0.7-0.7c-1-0.5-2-0.9-2.9-1.3
	c-5.1-2.2-10-4.7-13.9-8.7c-0.4-0.4-0.9-0.8-1.4-1.3c0,0.2,0,0.3,0,0.4c0.7,4,2,7.9,3.9,11.4c0.9,1.6,1.9,3.1,3.3,4.3
	c0.3,0.3,0.8,0.4,1.2,0.5c1.1,0.1,2-0.2,2.9-0.9c0.1,0.3,0.2,0.5,0.2,0.7c0.5,1.4,1.1,2.8,2.5,3.6c0.3,0.2,0.8,0.3,1.2,0.2
	c1-0.2,1.8-0.9,2.5-1.8c0,0.2,0.1,0.4,0.1,0.5c0.2,1.6,1.1,2.8,2.5,3.6c0.4,0.3,0.8,0.3,1.3,0.1c1.2-0.5,2.1-1.3,2.6-2.6
	c0.5,1.5,1.5,2.3,2.8,2.7c0.2,0.1,0.6,0.1,0.8,0c1.3-0.6,2.2-1.6,2.7-3c0.1-0.4,0.2-0.8,0.2-1.1c0.3,0.3,0.5,0.5,0.8,0.7
	c1.9,1.4,2.7,1.4,4-0.3C127.2,125.9,127.6,124.8,128.2,123.7z M194.9,43.5c0,0,0-0.1,0-0.1c-0.2,0.1-0.4,0.1-0.6,0.2
	c-11.2,3.8-21.8,8.9-32,14.7c-0.4,0.2-0.5,0.4-0.4,0.8c1,4.9,2,9.9,3,14.9c0.2,1,0.4,2,0.7,3.1c4-4.4,7.9-8.8,11.8-13.1
	c0,0,0-0.1-0.1-0.1c-2.8,0.7-5.6,1.4-8.4,2c0,0,0-0.1,0-0.1C177.4,58.4,186.2,50.9,194.9,43.5z M151.9,102c0.1-0.1,0.1-0.1,0.2-0.2
	c2-2.8,3.8-5.7,4.9-8.9c1.6-4.3,1.3-8.5-0.9-12.6c-0.4-0.7-0.9-1.3-1.4-2.1c-2.1,4.4-5.1,7.7-9.3,9.9c-4.1,2.2-8.6,2.9-13.3,2.6
	c0.7,1.7,1.8,3.1,3.2,4.1c1.3,1,2.7,1.8,4.4,1.7c2.9-0.2,5.8-0.4,8.7-0.7c1.5-0.2,2.3,0.2,2.7,1.7C151.4,99,151.6,100.5,151.9,102z
	 M109.6,154.8c-0.2-0.2-0.3-0.4-0.4-0.6c-0.7-0.7-1.4-1.3-2.1-1.9c-0.4-0.3-0.8-0.2-1.2,0c-1.1,0.6-1.8,1.9-1.5,3.1
	c0.4,1.7,1,3.4,1.5,5.1c0.4,1.2,1.3,2,2.5,2.3c0.6,0.2,1.3,0.4,1.9,0.4c2.9,0.1,5.7,0.1,8.6,0.1c0.8,0,1.6-0.2,2.4-0.4
	c1.4-0.3,2.5-1,3-2.5c0.5-1.6,1.1-3.3,1.5-4.9c0.3-1.2-0.1-2.3-1-3c-0.7-0.6-1.1-0.7-1.8-0.1c-0.7,0.5-1.2,1.2-1.8,1.8
	c-0.2,0.2-0.3,0.3-0.4,0.5c-2.1-1.9-3.3-2.1-5.5,0.3C112.9,152.7,111.8,152.8,109.6,154.8z M101.3,151.1
	C101.3,151.1,101.3,151,101.3,151.1c0.1-0.1,0-0.2,0-0.3c-0.9-4.6-2.2-9.2-3.7-13.7c-4-12.1-9.2-23.7-14.7-35.1
	c0-0.1-0.1-0.2-0.2-0.2c0,0-0.1,0-0.1,0c2.1,6.6,4.1,13.3,6.2,19.9c0,0-0.1,0-0.1,0c-1.5-1.7-3-3.4-4.4-5.1c0,0-0.1,0-0.1,0.1
	c0.8,3,1.7,6.1,2.5,9.1c0,0-0.1,0-0.1,0c-2.3-2.5-4.7-4.9-7.1-7.4c0,0,0,0-0.1,0.1c4.5,6.5,9.1,13,13.6,19.5
	c-2-5.2-3.9-10.3-5.8-15.5c0.1,0,0.2-0.1,0.2-0.1C92.1,132,96.7,141.5,101.3,151.1z M147.6,101.7c0,0-0.1,0-0.1,0
	c-0.1,0.2-0.2,0.4-0.3,0.5c-3.1,6.8-6.2,13.5-9.1,20.3c-3.2,7.6-6,15.3-8.1,23.3c-0.5,1.8-0.8,3.6-1.2,5.4c0,0,0,0,0.1,0
	c4.6-9.6,9.2-19.1,13.8-28.7c0.1,0,0.2,0.1,0.2,0.1c-1.9,5.2-3.9,10.3-5.8,15.4c4.6-6.5,9.1-13.1,13.7-19.6c0,0,0,0-0.1,0
	c-2.4,2.5-4.8,5-7.2,7.5c0,0-0.1,0-0.1-0.1c0.8-3,1.7-6.1,2.5-9.1c0,0-0.1,0-0.1-0.1c-1.5,1.7-2.9,3.4-4.4,5.1c0.9-3.4,2-6.7,3-10.1
	C145.5,108.4,146.6,105,147.6,101.7z M82.4,73.2c0.2,4.4,1.2,8.2,4.4,11.2c3.1,2.9,6.9,3.4,11.1,3.2c-0.2-0.2-0.2-0.3-0.3-0.5
	c-2.2-2.4-4.4-4.8-6.7-7.1c-2.2-2.1-4.5-4.1-6.8-6C83.5,73.7,83,73.5,82.4,73.2z M132.3,87.6c4.3,0.2,8.2-0.4,11.3-3.4
	c3-3,4-6.7,4.1-11c-0.5,0.3-0.9,0.4-1.3,0.7c-0.9,0.7-1.9,1.4-2.7,2.1c-3.8,3.3-7.3,7-10.7,10.7C132.8,87,132.6,87.2,132.3,87.6z"/>
</svg>
