<?xml version="1.0" encoding="utf-8"?>
<!-- Generator: Adobe Illustrator 24.3.0, SVG Export Plug-In . SVG Version: 6.00 Build 0)  -->
<svg version="1.1" id="Layer_1" xmlns="http://www.w3.org/2000/svg" xmlns:xlink="http://www.w3.org/1999/xlink" x="0px" y="0px"
	 viewBox="0 0 257 88.7" style="enable-background:new 0 0 257 88.7;" xml:space="preserve">
<path style="fill:#FFFFFF;" d="M28.1,43c1.3-3.3,2.2-6.8,2.6-10.3h-0.2c-4.8,0-15.6,3.7-23.3,3.7c-0.7,0-1.5,0-2.2,0
	C8.7,50,8.5,69.6,7.8,84.1l-0.2,2.2H17c-2.8-7.2-4-14.7-3.9-22.4v-1.5c2.9-0.6,5.5-1.7,8.3,1.7L22,53.8c-2.6,1.7-5.5,2.4-8.6,2
	C12.1,52.9,13,45.3,13.8,42C18,40.8,23.2,39.3,28.1,43z M52.7,42.1l3.5-0.9l-0.9-5.3c-20.7,3.1-23.7,3.7-23.7,3.9l1.3,6.6l2.4-0.4
	c0.6,13.6-2.4,34.1-4.6,40l6.2,2l3.5-17.8l8.4-1.5l2.9,18.5l7.3-1.7C53.6,72.5,52.5,47,52.7,42.1z M47.8,61.3
	C45.4,61.7,43,62,40.6,62l-0.2-15.1c0.2-0.2,0.4-0.2,0.6-0.2c2-0.4,4.2-0.7,6.4-0.9c0,5.1,0.2,10.1,0.2,15.1L47.8,61.3z M88,35.1
	c-2,0.2-4,0.6-5.9,1.1v1.5c0,9,0.6,22.2,0.6,31.4c-4.4-5-11.9-20.2-13.4-28.6h-6.6c1.5,15.6-1.1,29-3.1,39.8l8.3,2
	c-0.7-9.5,0.2-13.2,0.7-23.1c0.4,0.7,12.9,20.7,15.2,25.2h5.1C88,68.3,86.3,51.2,88,35.1z M125.1,41.3l-0.4-7.2
	c0.2,1.7-27,4.8-32.7,3.1c-0.2,3.3,0.2,6.8,0.9,9.9l10.8-1.5c3.9,11.2,2.9,29.4,3.3,40h8.6c-3.5-8.1-4.4-27.9-4.4-38.4v-2.7
	C114.2,43,121.2,42.2,125.1,41.3z M148.9,42.1l3.5-0.9l-0.9-5.3c-20.7,3.1-23.7,3.7-23.7,3.9l1.3,6.6l2.4-0.4
	c0.6,13.6-2.4,34.1-4.6,40l6.2,2l3.5-17.8l8.6-1.5l2.9,18.5l7.3-1.7C149.8,72.5,148.9,47,148.9,42.1z M144,61.3
	c-2.4,0.4-4.8,0.7-7.2,0.7l-0.2-15.1c0.2-0.2,0.4-0.2,0.6-0.2c2-0.4,4.2-0.7,6.4-0.9c0,5.1,0.4,10.1,0.4,15.1V61.3z M164.9,47.9
	c-0.2-2.9,2-5.3,5-5.5c0.2,0,0.6,0,0.7,0c0.9,0,4.8,0.4,4.8,2.4c0,1.7-1.3,2.4-1.3,4c0,1.8,1.7,3.3,3.5,3.3l0,0
	c3.1,0,5.1-3.1,5.1-6.8c0-2.9-2.4-5-5.1-6.1c-0.2-2.9-0.7-7.7-1.3-10.5c-0.7-3.9-1.7-7.7-3.1-11.2c-0.2,0.4-0.4,0.7-0.4,1.1
	c0.7,3.5,1.3,7.2,1.5,10.8c0.2,2.8,0.4,6.2,0.4,8.8c-1.1-0.2-2-0.4-3.1-0.4c-7.2,0-14.5,4.2-14.5,15.1c0,13.6,19.8,6.1,19.8,21.1
	c0,4.4-3.5,8.1-7.9,8.1h-0.2c-3.3,0-5.9-2.6-6.1-5.9c2.2,1.5,4.2-0.4,4.2-3.3c0-3.5-3.9-5.1-6.1-5.1c-3.5,0-5.9,2.8-5.9,7.2
	c0,7.2,7,10.5,11.7,10.5c7.5,0,17.8-5.9,17.8-16.5c0-0.6,0-1.1-0.2-1.7C182.9,52,164.9,59.5,164.9,47.9L164.9,47.9z"/>
<path style="fill:#FFFFFF;" d="M217.6,33.8c-3.5,0-5.3,0.4-8.1,0.2c-1.5,8.4-5.1,25.9-8.6,33.4l-6.6-31.9l-0.7-0.4
	c-0.6-2.9-0.7-5.9-0.9-8.8c0.2-4.4-0.4-8.8-1.5-13c-0.7-2.4-2.8-4.4-5.1-5c-2.8-0.2-5.5,0.4-7.9,1.8c-3.3,1.8-7.7,3.9-11,2.8
	c-3.5-1.3-6.6-3.3-9.2-5.9c-2.4-3.1-5.7-5.1-9.5-5.9c-4.4-0.7-9.9-0.6-13,1.1c-4,2-7.3,5.7-9.2,10.1c-2.2,5.3-1.8,10.1-2.9,13
	c-0.7,2-2.9,2.6-7,3.5c-2.4,0.6-13.8,1.7-16.5,2c-2.9,0.4-5.7,1.5-8.1,3.1c-1.5,1.5,0.7,0.2,0.7,0.2c2.4-1.1,5-1.8,7.7-2.2
	c6.1-0.9,12.1-1.1,17.3-1.7c4.2-0.6,6.6-0.2,7.3-4c0.7-3.9,1.3-10.5,2.4-13.2c1.1-2.8,4.6-8.1,8.8-9.5c3.9-1.1,8.3-1.3,12.3-0.4
	c3.1,1.3,6.1,3.1,8.6,5.5c2.2,2.2,7,5.5,10.3,5.5c4,0.4,8.3-0.6,11.6-2.8c2.2-1.7,5.1-2.2,7.9-1.3c1.1,0.6,2.8,1.8,3.1,5.7
	c0.7,4.8,1.3,9.9,1.7,14c0.2,1.7,0.4,3.3,0.7,4.6l-3.3-1.5c-0.4-2-0.9-6.6-1.5-8.6c-0.4-2.2-0.9-4.4-1.7-6.6c-0.7-2-1.7-2.2-1.7-2.2
	c0.2,0.7,0.4,1.5,0.6,2.2c0.6,2.4,0.9,4.6,1.1,7c0.2,2,0.6,5.1,0.7,7.2l-1.5-0.4l0.4,1.1c1.8,5.3,5,13.6,0.6,54l8.4-0.4
	c-2.2-6.1-1.7-24.2-1.5-28.6l8.1,25.5c0,0.4,0.2,0.9,0.6,0.9s0.4-0.4,7.2-27.4c1.7,4.8,2.6,9.9,2.4,15.1c0,3.7-0.2,7.3-0.7,11
	l9.5,0.9C217.4,77.7,211.7,45.6,217.6,33.8L217.6,33.8z M244.2,42.1l3.5-0.9l-0.9-5.3c-20.7,3.1-23.7,3.7-23.7,3.9l1.3,6.6l2.4-0.4
	c0.6,13.6-2.4,34.1-4.6,40l6.2,2l3.5-17.8l8.4-1.5l2.9,18.5l7.3-1.7C244.9,72.5,244,47,244.2,42.1z M239.1,61.3
	c-2.4,0.4-4.8,0.7-7.2,0.7l-0.2-15.1c0.2-0.2,0.4-0.2,0.6-0.2c2-0.4,4.2-0.7,6.4-0.9c0,5.1,0.4,10.1,0.4,15.1V61.3z"/>
<path style="fill:#FFFFFF;" d="M205.3,26.1c1.8-0.2,3.1-1.5,3.3-3.3v3.1l1.5,0.7c-0.2-1.5-0.4-4-0.6-5.5l1.7-0.2l-0.2-2.6l-6.6,1.8
	l0.4,1.5l2.2-0.2v0.4c0,1.3-0.4,2.8-1.7,2.8c-1.8,0-2.6-3.9-2.6-5.3c-0.2-2.8,0.4-7.3,3.5-7.3c2,0,2.8,3.5,1.7,4.4
	c0.2-1.1,0-2-1.1-2c-0.7,0-0.9,0.9-0.9,1.7c0,1.1,0.6,1.8,1.7,1.8c1.7,0,2.4-1.8,2.4-3.5c0-2.6-1.3-4.4-3.7-4.4c-4,0-5.9,5-5.9,9
	v0.9C200.9,22.6,202.2,26.3,205.3,26.1z"/>
<path style="fill:#FFFFFF;" d="M218,12l1.1-0.4l-0.4-1.7c-2.4,0.2-5,0.7-7.3,1.3l0.4,2l0.7-0.2c0.2,4.2-0.4,8.4-1.5,12.5l2,0.7
	l1.1-5.5l2.6-0.4l0.9,5.7l2.2-0.6C218.3,21.5,218,13.4,218,12z M216.3,17.8c-0.7,0.2-1.5,0.2-2.2,0.2v-4.6h0.2
	c0.7-0.2,1.3-0.2,2-0.2V17.8L216.3,17.8z M223.6,25.7c-0.6-2.9-0.7-5.9-0.4-9l2.6,7.9c0,0.2,0,0.2,0.2,0.2s0.2,0,2.2-8.4
	c0.6,1.5,0.7,3.1,0.7,4.8c0,1.1,0,2.4-0.2,3.5l2.9,0.4c-0.7-1.8-2.4-11.9-0.7-15.6c-1.1,0-1.7,0.2-2.6,0c-0.6,3.5-1.5,7-2.8,10.5
	l-2-10.1l-2.9-1.3l0.2,0.4c0.6,1.7,1.5,4.2,0.2,16.9h2.6V25.7z M240.7,24.6l0.2-2.8c-1.7,0.7-3.7,1.1-5.5,1.1H235
	c-0.4-1.7-0.4-3.3-0.2-5c1.1-0.4,2.4-0.6,3.5-0.2l-0.2-2.2c-1.1,0.6-2.4,0.6-3.5,0.2v-0.9c0,0,0.2-1.8,0.2-2.2
	c1.3-0.2,2.4-0.2,3.7,0h0.2l0.2-2.6c-2,0.4-4.2,0.6-6.2,0.6v1.5c0.6,4.4,0.4,8.8-0.6,13C234.7,25.4,238.5,24.6,240.7,24.6
	L240.7,24.6z M245.5,25.4c2.9,0,5.3-2.2,5.5-5.1v-0.6c-0.4-4.8-6.1-2.4-6.1-5.9c0-0.9,0.7-1.7,1.5-1.7c0.2,0,0.2,0,0.4,0
	c0.4,0,1.5,0.2,1.5,0.7s-0.4,0.7-0.4,1.3s0.6,1.1,1.1,0.9l0,0c0.9,0,1.7-0.9,1.7-2.2c0-1.7-2.4-2.4-3.5-2.4c-2.4-0.2-4.4,1.7-4.6,4
	c0,0.2,0,0.6,0,0.7c0,4.2,6.2,1.8,6.2,6.6c0,1.5-1.1,2.6-2.4,2.6h-0.2c-1.1,0-1.8-0.7-1.8-1.8c0.7,0.4,1.3,0,1.3-1.1
	s-1.1-1.7-1.8-1.7c-1.1,0-1.8,0.9-1.8,2.2C242,24.1,243.7,25.4,245.5,25.4z M130,25.7c1.7,2,6.6,8.1,12.9,9c6.2,0.9,7.5-3.9,8.3-4.6
	c2.4-4.2,4.8-8.6,6.8-13c0.7-1.8,0.9-6.1-1.8-4.4c-2.8,1.7-4.4,3.3-6.6,5c-1.8,1.3-3.3,2.6-5.1,3.9c-1.1,0.7-2.4,1.3-3.9,1.3
	c-2.4,0-5.5-0.7-8.1-0.7C128.9,21.7,128.4,23.9,130,25.7z"/>
<path style="fill:#FFFFFF;" d="M135.7,19.5c3.1,0,4.4-3.1,4.2-5.9s-1.5-6.1-5-5.7c-1.5,0.2-3.5,2.4-3.5,5.7
	C131.5,16.4,132.8,19.5,135.7,19.5z M144.5,12.9c0.7,0,1.3-1.5,2.8-2.2c1.8-0.6,3.7-0.9,5.7-0.9c1.7-0.2,2-0.6,1.8-1.1
	c-0.4-1.1-1.5-1.8-3.1-2c-1.3-0.2-2.6,0-3.7,0.6c-1.5,0.6-2.8,1.7-3.5,3.1C144,11.6,143.8,12.9,144.5,12.9z"/>
</svg>
