<?xml version="1.0" encoding="utf-8"?>
<!-- Generator: Adobe Illustrator 24.1.2, SVG Export Plug-In . SVG Version: 6.00 Build 0)  -->
<svg version="1.1" id="Layer_1" xmlns="http://www.w3.org/2000/svg" xmlns:xlink="http://www.w3.org/1999/xlink" x="0px" y="0px"
	 viewBox="0 0 257 47.1" style="enable-background:new 0 0 257 47.1;" xml:space="preserve">
<style type="text/css">
	.st0{fill:#FFFFFF;}
	.st1{fill:#D71920;}
</style>
<g id="Logo" transform="translate(-27 108)">
	<path id="Logo_Type_White" class="st0" d="M272.2-82.4l6.8,11.1h-7.8l-6.4-10.4h-0.1v10.4h-7v-26.9h10.5c2.4-0.1,4.8,0.6,6.8,2
		c1.8,1.6,2.7,3.9,2.6,6.2c0,1.8-0.5,3.6-1.6,5C275.2-83.6,273.8-82.6,272.2-82.4z M269.9-91.3c-0.3-0.4-0.7-0.8-1.1-1
		c-0.5-0.2-1-0.4-1.5-0.5c-0.6-0.1-1.2-0.1-1.8-0.1h-0.7v6.7h0.7c0.6,0,1.2,0,1.8-0.1c0.5-0.1,1.1-0.2,1.5-0.5
		c0.5-0.2,0.8-0.6,1.1-1C270.4-88.9,270.4-90.2,269.9-91.3L269.9-91.3z M238-98.2h15.3v6H245v4.3h8.3v6.1H245v4.3h8.3v6.1H238V-98.2
		z M136.6-92.3h-8.3v4.3h8.3v6.1h-8.3v4.3h8.3v6.1h-15.3v-26.9h15.3V-92.3z M110.6-71.3l-6.4-10.4h-0.1v10.4h-7v-26.9h10.5
		c2.4-0.1,4.8,0.6,6.8,2c1.8,1.6,2.7,3.9,2.6,6.2c0,1.8-0.5,3.6-1.6,5c-1,1.4-2.6,2.4-4.3,2.6l7.3,11.1H110.6z M109.3-91.3
		c-0.3-0.4-0.7-0.8-1.1-1c-0.5-0.2-1-0.4-1.5-0.5c-0.6-0.1-1.2-0.1-1.8-0.1h-0.7v6.7h0.7c0.6,0,1.2,0,1.8-0.1
		c0.5-0.1,1.1-0.2,1.5-0.5c0.5-0.2,0.8-0.6,1.1-1C109.8-88.9,109.8-90.2,109.3-91.3L109.3-91.3z M155-97.2c1.5,0.7,2.9,1.7,4.1,2.9
		c1.2,1.3,2.1,2.7,2.7,4.3c1.3,3.4,1.3,7.1,0,10.5c-0.6,1.6-1.6,3.1-2.7,4.3c-1.2,1.2-2.5,2.2-4.1,2.9c-1.5,0.7-3.2,1-4.9,1H141
		v-26.9h9.2C151.8-98.2,153.5-97.9,155-97.2L155-97.2z M147.4-92.3v15.1h1.5c0.9,0,1.9-0.1,2.8-0.4c1.8-0.6,3.2-2,3.8-3.7
		c0.4-1.1,0.6-2.2,0.6-3.3c0.1-2-0.6-4-1.9-5.5c-1.4-1.4-3.2-2.1-5.2-2L147.4-92.3z M192-92.3h-5.8v21h-7v-21h-5.8v-5.9H192V-92.3z
		 M203.3-71.3h-7v-27h7V-71.3z M211.3-94.5c1.2-1.2,2.7-2.2,4.3-2.8c1.8-0.6,3.6-1,5.5-1c2.4-0.1,4.7,0.6,6.8,1.8
		c2,1.3,3.6,3.1,4.5,5.3l-6.2,2.6c-0.4-1.2-1.1-2.2-2.1-2.9c-1-0.7-2.1-1.1-3.3-1.1c-1,0-1.9,0.2-2.7,0.7c-0.8,0.4-1.5,1.1-2.1,1.8
		c-0.6,0.8-1,1.7-1.3,2.6c-0.6,1.9-0.6,3.9,0,5.8c0.3,0.9,0.7,1.8,1.3,2.6c0.6,0.7,1.3,1.4,2.1,1.8c0.9,0.4,1.8,0.7,2.8,0.7
		c1.3,0.1,2.6-0.4,3.6-1.1c1-0.8,1.6-2,1.6-3.2h-5.3v-5.2h12.9c0,1.9-0.2,3.7-0.5,5.6c-0.4,1.6-1,3.1-2,4.4
		c-1.1,1.6-2.7,2.9-4.4,3.7c-1.8,0.8-3.8,1.2-5.9,1.2c-1.8,0-3.7-0.3-5.4-1c-1.6-0.6-3-1.5-4.2-2.7c-1.2-1.2-2.1-2.6-2.8-4.2
		c-0.7-1.7-1-3.6-1-5.4c0-1.9,0.3-3.8,1-5.6C209.1-91.8,210.1-93.3,211.3-94.5L211.3-94.5z"/>
	<path id="Logo_Symbol_Red_on_Black" class="st1" d="M68-92.3c0,0.7,0,1.6-1.1,1.9c-0.7,0.2-1.5-0.7-1.6-1.4c0.3-0.5,0.8-0.8,1.3-1
		C67.8-93.1,68-93.2,68-92.3z M48.4-90.4c-1.1-0.4-1.1-1.2-1.1-1.9c0-0.9,0.3-0.8,1.3-0.4c0.5,0.2,1,0.5,1.3,1
		C49.9-91.1,49.1-90.2,48.4-90.4L48.4-90.4z M74.3-69c0.7-0.3,1.3-0.8,1.9-1.3c2.7-2.9,3.2-6.1,3.5-9.9c0.1-1,0.1-2,0.1-3
		c0-0.2,0-0.9,0.1-0.9c0.2,0.2,0.4,0.5,0.5,0.8c0.3,0.9,0.5,1.8,0.6,2.8c0.3,1.8,0.4,3.7,0.2,5.6c-0.1,0.6-0.3,1.3-0.6,1.8
		c-1.7,2.8-3.5,5.4-5.3,8.1c-0.1,0.2-0.3-0.2-0.4-0.3l-0.1-0.1c-0.4-0.2-0.6-0.2-0.7-0.1s-0.1,0.2-0.2,0.4c-0.4,0.9-1.2,2.4-1.7,3.3
		c-0.1,0.1-0.3,0.2-0.4,0.1c-0.1-0.1-0.2-0.2-0.2-0.3c0-1,0-2.1,0-3.1c0-0.7,0-1.5-0.9-1.5s-0.9,0.8-0.9,1.4c0,0.6,0,1.2,0,1.9
		c0,0.2-0.1,0.3-0.3,0.3c-0.1,0-0.1,0-0.2,0c-0.7-0.6-1.6-1-2.4-1.3c-1.4-0.6-3-0.4-4.3,0.5l0.2-0.2c1.1-1,2.5-1.4,4-1.1
		C67.2-65,67.6-65,68-65c0.2,0,0.3-0.2,0.3-0.3v-0.1c-0.5-1.5-2.3-6.8,1.3-8.6c0.1,0,0.2-0.1,0.2-0.2c0.1-1,1.9-5.2-2.9-8
		c-1,0.7-1.9,2.3-3.1,3.3c2.1,0.5,3.2-0.8,4.3-1.7c-0.4,2.5-2.3,2.6-3.9,3.5c1.3-0.6,2.6,0.2,4.2-0.6c-1.1,2.2-3.4,1.1-4.8,2.2
		c1.3,0.9,2.5,0.4,3.8,0.3c0.3,0,0.7,0,1,0c-0.3,0.4-0.6,0.8-1,1.1c-0.5,0.4-1,0.6-1.6,0.8c-0.6,0.2-1.2,0.2-1.8,0
		c-1.7-0.5-3.4-1.2-5.1-1.9c-0.3-0.2-0.6-0.4-0.7-0.8c-0.1-0.5,0-1.1,0-1.7c-0.1-0.7,0.3-1.4,1.1-1.5c1.6-0.4,3-1.4,4-2.7
		c0.3-0.5,0.6-1,0.7-1.6l0,0c0-0.5-0.1-1-0.3-1.5c-0.1-0.4-0.1-0.8,0-1.2v-0.1l0,0l0,0l0.3-1.5c0.1-0.5,0.4-0.9,0.8-1.1l0.1-0.1
		l0.1-0.1c0.6-0.3,1.3-0.6,2-0.8c2.5-1,4.3-3,5.1-5.5c0.3-0.8,0.4-1.7,0.2-2.6c-0.2,0.5-0.6,1.4-0.8,1.9c-0.3,0.8-1,1.3-1.9,1.2
		c-2.2,0-4.4,0.4-5.6,2.7c-0.5,1.3-1.5,2.3-2.7,2.9c0-0.7,0.1-1.4,0.3-2c-1-0.4-0.6-1-0.1-1.6c0.8-0.8,1.5-1.6,2.3-2.5
		c-0.7-0.2-1.3-0.5-1.8-1h4.4v-0.1c-1.3-0.2-2.6-0.7-3.8-1.4c2-1.3,6.3-0.6,7-0.9c0-0.2-0.6-0.3-1.2-0.5c-1.4-0.4-1.9-0.5-3.3-0.9
		s-2.7-0.9-4-1.6H67c-2-1.1-4.1-1.8-6.4-2.1c-1.3-0.1-2.2-0.1-3-0.1v-0.4v0.4c-0.8,0-1.7,0-3,0.1c-2.2,0.3-4.4,1-6.4,2.1H54
		c-1.3,0.7-2.6,1.2-4,1.6s-1.9,0.5-3.3,0.9c-0.6,0.2-1.2,0.3-1.2,0.5c0.7,0.2,5-0.4,7,0.9c-1.2,0.7-2.5,1.1-3.8,1.4v0.1h4.4
		c-0.5,0.5-1.1,0.8-1.8,1c0.8,0.9,1.6,1.7,2.3,2.5c0.6,0.6,1,1.2-0.1,1.6c0.2,0.6,0.3,1.3,0.3,2c-1.2-0.6-2.2-1.7-2.7-2.9
		c-1.2-2.3-3.4-2.7-5.6-2.7c-0.8,0.1-1.6-0.4-1.9-1.2c-0.2-0.5-0.6-1.4-0.8-1.9c-0.2,0.9-0.1,1.8,0.2,2.6c0.8,2.5,2.7,4.6,5.1,5.5
		c0.7,0.2,1.4,0.5,2,0.8l0.1,0.1c0,0,0.1,0,0.1,0.1c0.4,0.3,0.7,0.7,0.8,1.1l0.3,1.5l0,0l0,0v0.1c0.1,0.4,0.1,0.8,0,1.2
		c-0.2,0.5-0.3,1-0.3,1.5l0,0c0.1,0.6,0.4,1.1,0.7,1.6c1,1.3,2.4,2.3,4,2.7c0.7,0.1,1.2,0.8,1.1,1.5c-0.1,0.6,0.1,1.2,0,1.7
		c-0.1,0.4-0.3,0.6-0.7,0.8c-1.7,0.7-3.4,1.3-5.1,1.9c-0.6,0.2-1.2,0.1-1.8,0c-0.6-0.2-1.1-0.4-1.6-0.8c-0.4-0.3-0.7-0.7-1-1.1
		c0.3-0.1,0.7-0.1,1,0c1.2,0.1,2.4,0.6,3.8-0.3c-1.4-1.1-3.6-0.1-4.8-2.2c1.6,0.8,2.9,0.1,4.2,0.6c-1.5-0.9-3.5-1.1-3.9-3.5
		c1,0.9,2.1,2.2,4.3,1.7c-1.2-1-2.1-2.6-2.9-3.3c-4.9,2.8-3.1,7-2.9,8c0,0.1,0.1,0.2,0.2,0.2c3.5,1.8,1.8,7.1,1.3,8.6
		c0,0.1,0,0.2,0,0.3c0.1,0.1,0.1,0.1,0.2,0.1c0.4,0,0.8,0,1.2-0.1c1.4-0.3,2.9,0.1,4,1.1l0.2,0.2c-1.3-0.9-2.9-1-4.3-0.5
		c-0.9,0.3-1.7,0.8-2.4,1.3c-0.1,0.1-0.3,0-0.4-0.1c0,0,0-0.1,0-0.2c0-0.7,0-1.3,0-1.9c0-0.7,0-1.4-0.9-1.4s-0.9,0.8-0.9,1.5
		c0,1,0,2.1,0,3.1c0,0.2-0.1,0.3-0.3,0.3c-0.1,0-0.2-0.1-0.3-0.2c-0.5-0.9-1.3-2.4-1.7-3.3c-0.1-0.1-0.1-0.2-0.2-0.4
		c-0.2-0.1-0.4-0.1-0.7,0.1l-0.1,0.1c-0.1,0.1-0.2,0.5-0.4,0.3c-1.8-2.8-3.6-5.3-5.3-8.1c-0.3-0.6-0.5-1.2-0.6-1.8
		c-0.2-1.9-0.1-3.7,0.2-5.6c0.1-0.9,0.3-1.9,0.6-2.8c0.1-0.3,0.3-0.6,0.5-0.8c0.1,0,0.1,0.7,0.1,0.9c0.1,1,0,2,0.1,3
		c0.3,3.8,0.8,7.1,3.5,9.9c0.5,0.6,1.2,1,1.9,1.3c0.2,0.1,0.3,0,0.4-0.2c0-0.1,0-0.2,0-0.2c-0.8-1.7-1.7-3.3-2.3-5
		c-0.7-1.8-1.1-3.6-1.6-5.4c0-0.2,0-0.3,0.2-0.4c0.1,0,0.1,0,0.2,0c0.4,0.1,0.9,0.3,1.3,0.5c0.2,0.1,0.3,0,0.4-0.2
		c0-0.1,0-0.1,0-0.2c-0.6-1.6-2.2-6.7-2.2-6.7c0.1,0.1,1.1,1.5,1.1,1.7c0.8,1.2,1.5,2.6,2,3.9c0.3,0.7,0.5,1.2,0.6,1.5
		c0.1,0.1,0.1,0.3,0,0.3c-1.4,1.2-0.3,3.4,0.3,4.1c0.8,1,1.4,2.1,1.7,3.3c0.1,0.2,0.2,0.6,0.3,1c0.1,0.2,0.2,0.2,0.4,0.2
		c0.1,0,0.2-0.2,0.2-0.3c-0.1-1.6-0.4-3.7-0.9-4.2c-0.8-0.7-0.6-3.3,0.3-3.8c0.8-0.4,1-0.9,0.6-1.6c-0.1-0.1,0-0.3,0.1-0.4l0,0
		l3.8-2.2c0.1-0.1,0.2-0.3,0.1-0.4c0-0.1-0.1-0.1-0.2-0.2c-1.3-0.1-2.6,0.3-3.7,1.1c-0.8,0.5-1.8,0.2-2.3-0.6
		c-0.1-0.1-0.1-0.2-0.2-0.4c-0.1-0.2-0.1-0.4-0.2-0.6c0-0.2,0.1-0.3,0.3-0.4c1.9-0.5,2.2-0.6,2.3-1.1c0-0.2-0.1-0.3-0.3-0.3l0,0
		c-0.7,0.1-1.3,0-1.9-0.2c-0.4-0.4-0.6-0.8-0.7-1.4c0-0.2,0-0.3,0.2-0.4c0.1,0,0.1,0,0.2,0c0.7,0.3,0.8,0.3,1.2,0
		c0.1-0.1,0.2-0.3,0.1-0.4l0,0c-0.1-0.1-0.2-0.2-0.3-0.3c-1.4-1.1-3.5-7-3.4-8.8c-0.6,0.5-1,1.1-1.2,1.8c-1.5-0.6-2.6-0.8-2.4-2.8
		l1.6,0.8c0,0,0.1-0.6-0.8-1.3c-1.9-1.5-2.1-3.6-2.2-5.8c-0.1-1.1,0.7-2,1.8-2.1c0.4,0,0.8,0.1,1.2,0.3c3.6,1.7,8.6,3.4,12.6,2.9
		h0.1l0,0l0,0c2.5-0.5,5.1-0.8,7.7-0.8l0,0c2.6,0,5.2,0.3,7.7,0.8l0,0l0,0h0.1c4.1,0.5,9-1.2,12.6-2.9c0.9-0.6,2.1-0.3,2.7,0.7
		c0.2,0.4,0.3,0.8,0.3,1.2c0.2,2.1,0,4.1-1.9,5.7c-0.9,0.7-0.8,1.3-0.8,1.3l1.6-0.8c0.2,2.1-0.9,2.2-2.4,2.8
		c-0.2-0.7-0.6-1.3-1.2-1.8c0.1,1.8-2,7.7-3.4,8.8c-0.1,0.1-0.2,0.2-0.3,0.3c-0.1,0.1-0.1,0.2-0.1,0.2c0,0.1,0.1,0.2,0.1,0.2
		c0.4,0.3,0.5,0.3,1.2,0c0.2-0.1,0.3,0,0.4,0.2c0,0.1,0,0.1,0,0.2c-0.1,0.5-0.3,1-0.7,1.4c-0.6,0.2-1.3,0.3-1.9,0.2
		c-0.2,0-0.3,0.1-0.3,0.3l0,0c0.1,0.6,0.4,0.7,2.3,1.1c0.2,0,0.3,0.2,0.3,0.4c-0.1,0.2-0.1,0.4-0.2,0.6c-0.3,0.9-1.2,1.4-2.1,1.1
		c-0.1,0-0.2-0.1-0.3-0.2c-1-0.8-2.4-1.2-3.7-1.1c-0.2,0-0.3,0.2-0.3,0.4c0,0.1,0.1,0.2,0.2,0.2l3.8,2.2c0.1,0.1,0.2,0.3,0.1,0.4
		l0,0c-0.4,0.7-0.2,1.2,0.6,1.6c0.9,0.5,1.1,3,0.3,3.8c-0.5,0.5-0.8,2.6-0.9,4.2c0,0.2,0.1,0.3,0.3,0.3c0.1,0,0.2-0.1,0.3-0.2
		c0.1-0.4,0.2-0.7,0.3-1c0.3-1.2,0.9-2.3,1.7-3.3c0.6-0.7,1.7-2.9,0.3-4.1c-0.1-0.1-0.1-0.2,0-0.3c0.1-0.3,0.4-0.8,0.6-1.5
		c0.6-1.4,1.3-2.7,2-3.9c0.1-0.1,1-1.5,1.1-1.7c0,0-1.7,5.1-2.2,6.9c0,0.2,0,0.3,0.2,0.4c0.1,0,0.1,0,0.2,0c0.4-0.2,0.9-0.4,1.3-0.5
		c0.2-0.1,0.3,0,0.4,0.2c0,0.1,0,0.1,0,0.2c-0.5,1.8-1,3.6-1.6,5.4c-0.7,1.7-1.5,3.3-2.3,5c-0.1,0.2,0,0.3,0.1,0.4
		C74.1-68.9,74.2-68.9,74.3-69L74.3-69z M49.2-82.5L49-82.4C49.1-82.4,49.1-82.5,49.2-82.5L49.2-82.5z M42.3-104.9
		c0.3,0.1,0.6,0.1,0.9,0.2C42.9-104.7,42.6-104.8,42.3-104.9L42.3-104.9z M41.9-104.4c-4.2-0.3-3.5,2.8-2.6,4.7l0.7,1.1
		c0,0,0.1,0.1,0.1,0.2l0,0l0,0c1.1,2.5,1.9,7.8,7,9.8c-0.2-0.1-0.4-0.2-0.6-0.4c-1.5-1.2-2.7-2.8-3.5-4.5c-2.3-4.6-1.7-7.4-2-8.6
		c0.4,0.2,2,0.5,2.3,0.6c0-0.1-2.7-1.3-3.5-1.7c0.3-0.2,0.7-0.4,1.2-0.4c1.8-0.2,2.5,0.4,3.6,0.5c0.8,0.1,1.6,0,2.3-0.2L41.9-104.4z
		 M66.1-82.5c0.1,0,0.1,0.1,0.2,0.1L66.1-82.5z M72.1-104.6c0.3-0.1,0.6-0.1,0.9-0.2C72.7-104.8,72.4-104.7,72.1-104.6L72.1-104.6z
		 M75.2-98.5L75.2-98.5C75.2-98.5,75.3-98.5,75.2-98.5c0-0.1,0.1-0.1,0.1-0.2l0.7-1.1c0.8-1.9,1.6-5-2.6-4.7l-5,1.2
		c0.8,0.2,1.5,0.3,2.3,0.2c1.2-0.2,1.8-0.7,3.6-0.5c0.4,0.1,0.8,0.2,1.2,0.4c-0.8,0.4-3.6,1.6-3.5,1.7c0.3-0.1,1.9-0.4,2.3-0.6
		c-0.3,1.1,0.3,4-2,8.6c-0.9,1.7-2.1,3.2-3.5,4.5c-0.2,0.1-0.4,0.3-0.6,0.4C73.3-90.7,74.2-96,75.2-98.5L75.2-98.5z M57.6-82.2
		c-0.6,0-1.3,0-2.1,0s-1.5-0.1-2.2-0.4c-0.4-0.3-0.6-0.8-0.5-1.2c0-0.6,0.9-1.1,0.9-1.1c0,1.5,1.3,1.9,4,1.9l0,0c2.7,0,4-0.4,4-1.9
		c0,0,0.8,0.5,0.9,1.1c0.1,0.5-0.1,1-0.5,1.2c-0.7,0.3-1.5,0.4-2.2,0.4C58.9-82.2,58.3-82.2,57.6-82.2L57.6-82.2L57.6-82.2z
		 M57.7-66.2c0.1,2-3.3,2.1-6.2,0.4c-0.2-0.6,0.2-1.7-0.2-1.9c-0.5-0.3-1.3,0.1-1.8,0.4c-0.5,0.4-0.8,1-1.3,1.4
		c0.2-3.1,3.3-5.8,7.9-6.1c0.5,0,1-0.1,1.5-0.1s1,0,1.5,0.1c4.7,0.3,7.7,3,7.9,6.1c-0.5-0.4-0.8-1-1.3-1.3c-0.5-0.3-1.3-0.8-1.8-0.4
		c-0.3,0.2,0,1.3-0.2,1.9C61-64,57.6-64.2,57.7-66.2z"/>
</g>
</svg>
