<?xml version="1.0" encoding="utf-8"?>
<!-- Generator: Adobe Illustrator 24.1.2, SVG Export Plug-In . SVG Version: 6.00 Build 0)  -->
<svg version="1.1" id="Layer_1" xmlns="http://www.w3.org/2000/svg" xmlns:xlink="http://www.w3.org/1999/xlink" x="0px" y="0px"
	 viewBox="0 0 7272.1 1727.2" style="enable-background:new 0 0 7272.1 1727.2;" xml:space="preserve">
<style type="text/css">
	.st0{fill:#F29022;}
	.st1{fill:#FFFFFF;}
</style>
<path class="st0" d="M670.9,685.4c-174.7,10.9-96.9,238.4,96.9,226.9C957.8,900.3,858.3,674,670.9,685.4z"/>
<path class="st0" d="M597.5,544.5c-311.8,0-563.6,251.8-563.6,563.6s251.9,563.6,563.6,563.6s563.6-251.8,563.6-563.6l0,0
	C1161.8,797.7,909.3,544.5,597.5,544.5z M597.5,1613.7C318.9,1613.7,92,1388,92,1109.4s225.7-505.6,504.3-505.6
	s505.6,225.7,505.6,504.3l0,0C1101.9,1388,876.2,1613.7,597.5,1613.7z M581,151.2C446.5,252.6,470.1,407.4,470.1,407.4
	S385.2,188.8,276.2,55.5c-15.3,171.5,38.9,400.4,38.9,400.4S247.6,314.4,78,306.1c138.3,80.3,192.5,224.4,205.3,263.3
	c82.9-51,177.2-80.3,275.4-82.9C549.1,450.2,510.2,297.2,581,151.2z"/>
<path class="st1" d="M1386.6,1181.8v209.5h-86.1V850h184.6c61.2,0,108.7,14.7,140.4,44.2c31.7,29.4,46.4,71.3,46.4,120
	c0,52.1-17,90.6-48.7,120c-31.7,29.4-79.3,44.2-140.4,44.2L1386.6,1181.8L1386.6,1181.8z M1583.6,1017.6c0-29.4-7.9-54.4-24.9-69.1
	s-44.2-24.9-81.5-24.9h-90.6v186.8h86.1C1546.2,1110.5,1583.6,1078.8,1583.6,1017.6L1583.6,1017.6z M2030.9,1391.3L1895,1175.1
	h-61.2v216.3h-86.1V850.1h189.1c61.2,0,108.7,14.7,140.4,44.2c31.7,29.4,46.4,69.1,46.4,120c0,41.9-12.5,75.9-34,103.1
	c-24.9,27.2-58.9,44.2-103.1,52.1l142.7,218.6L2030.9,1391.3L2030.9,1391.3z M1833.9,1112.8h96.3c71.3,0,105.3-31.7,105.3-94
	c0-29.4-7.9-52.1-24.9-69.1s-44.2-24.9-81.5-24.9h-96.3L1833.9,1112.8L1833.9,1112.8z M2528,1272.4h-228.7l-41.9,117.8h-94
	l199.3-531.1h100.8l199.3,531.1h-94L2528,1272.4z M2503.1,1206.8l-88.3-253.7l-88.3,253.7H2503.1z M3104.4,893.1
	c41.9,31.7,73.6,79.3,86.1,130.2h-90.6c-12.5-29.4-31.7-54.4-58.9-69.1c-29.4-17-61.2-27.2-96.3-27.2c-31.7,0-63.4,7.9-90.6,24.9
	c-27.2,14.7-48.7,39.6-61.2,66.8c-14.7,31.7-22.6,66.8-22.6,103.1c0,37.4,7.9,73.6,22.6,105.3c14.7,29.4,37.4,52.1,63.4,69.1
	c29.4,17,63.4,24.9,96.3,24.9c41.9,0,83.8-14.7,115.5-41.9s52.1-66.8,58.9-113.2h-199.3v-63.4h270.6v83.8
	c-4.5,39.6-19.3,75.9-41.9,108.7c-22.6,31.7-52.1,58.9-88.3,79.3c-39.6,19.3-81.5,29.4-125.7,29.4c-48.7,0-96.3-12.5-140.4-34
	c-39.6-22.6-71.3-56.6-94-98.5c-44.2-90.6-44.2-194.8,0-285.4c22.6-41.9,54.4-73.6,94-98.5c41.9-24.9,90.6-37.4,138.2-34
	C3008.2,844.4,3060.3,861.4,3104.4,893.1L3104.4,893.1z M3815.6,859.1v531.1h-88.3V991.6l-155.1,398.6h-75.9l-155.1-398.6v398.6
	h-86.1v-530h105.3l176.7,425.8l172.1-425.8C3709.2,859.1,3815.6,859.1,3815.6,859.1z M4243.7,1272.4H4015l-41.9,117.8h-94
	l199.3-531.1h100.8l199.3,531.1h-94L4243.7,1272.4z M4218.7,1206.8l-88.3-253.7l-88.3,253.7H4218.7z M4749.8,850v71.3h-150.6v470
	h-88.3v-470h-150.6V850L4749.8,850L4749.8,850z M4885.7,850v541.3h-86.1V850L4885.7,850L4885.7,850z M5377.2,895.3
	c44.2,34,75.9,83.8,88.3,138.2h-94c-12.5-31.7-31.7-58.9-61.2-79.3c-29.4-19.3-66.8-29.4-103.1-29.4c-29.4,0-58.9,7.9-86.1,24.9
	c-27.2,17-46.4,39.6-58.9,69.1c-29.4,66.8-29.4,140.4,0,203.8c12.5,27.2,34,52.1,58.9,69.1c27.2,14.7,56.6,24.9,86.1,24.9
	c37.4,0,71.3-10.2,103.1-29.4c27.2-19.3,48.7-46.4,61.2-75.9h94c-12.5,54.4-44.2,103.1-88.3,138.2c-44.2,34-98.5,48.7-165.3,48.7
	c-46.4,0-94-12.5-135.9-34c-39.6-22.6-71.3-56.6-90.6-98.5c-41.9-90.6-41.9-194.8,0-285.4c19.3-39.6,52.1-73.6,90.6-98.5
	c41.9-24.9,88.3-37.4,135.9-34C5278.7,844.4,5333,861.4,5377.2,895.3L5377.2,895.3z M5739.5,1181.8v209.5h-87.2V850h184.6
	c61.2,0,108.7,14.7,140.4,44.2c31.7,29.4,46.4,71.3,46.4,120c0,52.1-17,90.6-48.7,120s-79.3,44.2-140.4,44.2L5739.5,1181.8
	L5739.5,1181.8z M5933.1,1017.6c0-29.4-7.9-54.4-24.9-69.1s-44.2-24.9-81.5-24.9h-88.3v186.8h86.1
	C5896.9,1110.5,5933.1,1078.8,5933.1,1017.6L5933.1,1017.6z M6172.1,1322.3h186.8v69.1H6086V850.1h86.1V1322.3z M6757.5,1272.4
	h-228.7l-41.9,117.8h-94l199.3-531.1H6693l199.3,531.1h-94L6757.5,1272.4z M6732.6,1206.8l-88.3-253.7l-88.3,253.7H6732.6z
	 M7242.2,850l-180.1,344.3v197h-88.3v-197L6793.7,850h100.8l123.4,251.4L7141.3,850L7242.2,850L7242.2,850z"/>
<g>
	<path class="st1" d="M1907.5,407.7h-570.9c-32.2,0-61.6,26.4-61.6,61.6v244.4c0,32.2,26.4,61.6,61.6,61.6h570.9
		c32.2,0,61.6-26.4,61.6-61.6V469.3C1969.1,436.1,1940.7,407.7,1907.5,407.7L1907.5,407.7z M1928,713.7c0,9.8-7.8,20.5-20.5,20.5
		h-570.9c-9.8,0-20.5-7.8-20.5-20.5V469.3c0-9.8,7.8-20.5,20.5-20.5h570.9c9.8,0,20.5,7.8,20.5,20.5V713.7z"/>
	<path class="st1" d="M1458.8,652.1h-61.6V509.4c0-9.8-7.8-20.5-20.5-20.5c-9.8,0-20.5,7.8-20.5,20.5v163.2
		c0,12.7,7.8,20.5,20.5,20.5h81.1c12.7,0,20.5-7.8,20.5-20.5C1478.3,659.9,1469.5,652.1,1458.8,652.1L1458.8,652.1z"/>
	<path class="st1" d="M1540.9,488.8c-9.8,0-20.5,7.8-20.5,20.5v163.2c0,12.7,7.8,20.5,20.5,20.5s20.5-7.8,20.5-20.5V509.4
		C1561.4,499.5,1550.6,488.8,1540.9,488.8L1540.9,488.8z"/>
	<path class="st1" d="M1865.4,529.9c9.8,0,20.5-7.8,20.5-20.5c0-9.8-7.8-20.5-20.5-20.5h-81.1c-12.7,0-20.5,7.8-20.5,20.5v163.2
		c0,12.7,7.8,20.5,20.5,20.5h81.1c9.8,0,20.5-7.8,20.5-20.5c0-9.8-7.8-20.5-20.5-20.5h-61.6V611h61.6c9.8,0,20.5-7.8,20.5-20.5
		c0-9.8-7.8-20.5-20.5-20.5h-61.6v-41.1h61.6V529.9z"/>
	<path class="st1" d="M1708,491.8c-9.8-2-22.5,3.9-24.4,14.7l-20.5,84.1l-20.5-84.1c-2-9.8-14.7-18.5-24.4-14.7
		c-9.8,2-18.5,14.7-14.7,24.4l41.1,163.2c2,7.8,9.8,16.7,20.5,16.7c10.7,0,18.5-5.8,20.5-16.7l41.1-163.2
		C1724.7,503.5,1717.8,493.7,1708,491.8L1708,491.8z"/>
</g>
</svg>
