<?xml version="1.0" encoding="utf-8"?>
<!-- Generator: Adobe Illustrator 26.1.0, SVG Export Plug-In . SVG Version: 6.00 Build 0)  -->
<svg version="1.1" id="Layer_1" xmlns="http://www.w3.org/2000/svg" xmlns:xlink="http://www.w3.org/1999/xlink" x="0px" y="0px"
	 viewBox="0 0 1056.6 202" style="enable-background:new 0 0 1056.6 202;" xml:space="preserve">
<g id="Livello_1_1_">
</g>
<g>
	<path style="fill:#FFFFFF;" d="M244.8,111.7c0-3.2,0.6-7.5,1.7-12.7l5.7-27h17l-6.3,29.8c-0.7,3.3-1.1,5.2-1.1,6.5
		c0,1.8,0.9,2,3.1,2c3.8,0,3.9-0.4,5.6-8.4l6.3-29.8h17l-5.7,27c-4.1,19.3-5,23.5-25.1,23.5C248.6,122.5,244.8,119.6,244.8,111.7z"
		/>
	<path style="fill:#FFFFFF;" d="M291.8,111.6L309,95.7h-12.9l2.3-10.9h32.9l-2.2,10.3L311.9,111h14l-2.3,10.9h-33.9L291.8,111.6z"/>
	<path style="fill:#FFFFFF;" d="M331.2,113.7c0-2.6,0.3-6,1.2-10.2c3.1-15.1,7-19.2,14.4-19.2c4,0,7.7,0.5,9.6,4.2h0.7l1.2-3.7h15.1
		l-7.8,37.1h-15l0.7-4.1h-0.8c-2.6,3.9-6,4.7-9.3,4.7C334.4,122.5,331.2,120.5,331.2,113.7z M352.7,108.7c0.7-2,2.3-9,2.3-10.8
		c0-1.5-0.5-1.6-2.4-1.6c-3,0-3.1,0.1-4.6,7.1c-0.7,2.9-0.9,4.6-0.9,5.7c0,1.4,0.7,1.5,2.5,1.5C351.6,110.5,352.1,110.4,352.7,108.7
		z"/>
	<path style="fill:#FFFFFF;" d="M383.5,67.9h15.6l-6.5,30.5h0.7l10.4-13.5h16.6l-15,18.2l7.6,18.9h-16.6l-4.9-13.4h-0.7l-2.8,13.4
		h-15.5L383.5,67.9z"/>
	<path style="fill:#FFFFFF;" d="M446.7,71.9h18.5c15.4,0,20,2.6,20,11c0,3.7-0.9,8.5-2,14.8c-4.2,20-5.2,24.3-26.5,24.3h-20.6
		L446.7,71.9z M457.4,109.8c6.1,0,6.2-0.5,8.8-12.8c1.1-5.1,1.7-8.1,1.7-10c0-2.8-1.5-2.9-5.1-2.9h-1.7l-5.5,25.7H457.4z"/>
	<path style="fill:#FFFFFF;" d="M485.8,113.8c0-2.6,0.6-6.1,1.5-10.4c3.4-15.6,4.4-19.1,21-19.1c13.4,0,17.4,2.1,17.4,8.8
		c0,2.6-0.5,6.1-1.5,10.3c-3.5,15.6-4.6,19.1-21.1,19.1C489.8,122.5,485.8,120.4,485.8,113.8z M508.9,103.4c0.7-3.3,1-5.3,1-6.5
		c0-1.5-0.8-1.7-2.5-1.7c-3.1,0-3.1,0.4-4.7,8.2c-0.7,3.5-1.1,5.5-1.1,6.6c0,1.5,0.7,1.6,2.5,1.6
		C507.1,111.6,507.2,111.2,508.9,103.4z"/>
	<path style="fill:#FFFFFF;" d="M524.9,135.8l2-9.8h9.5c8.6,0,8.9-0.1,10-5.5c0.2-1.2,0.7-2.3,0.9-3.4h-0.7c-3.3,3.7-6,4.2-10.5,4.2
		c-5.7,0-8.7-2-8.7-8.8c0-2.5,0.4-5.7,1.3-9.8c3.1-14.8,6.3-18.4,15-18.4c3.9,0,7.4,0.8,8.8,4.7h0.8l1.2-4.1h15l-7,33.1
		c-2.8,13.4-4.6,19-24,19C533.7,136.9,528,136.4,524.9,135.8z M541.9,74.3c0-1.3,0.2-2.7,0.6-4.2h8.1c-0.1,0.6-0.3,1.2-0.3,1.7
		c0,1.1,0.7,1.8,3.1,1.8c3.7,0,4.1-1.6,4.5-3.5h8.1c-1.2,6.5-3.7,11-13.8,11C544.5,81.1,541.9,78.5,541.9,74.3z M548.9,107.5
		c0.7-2,2-8.5,2-9.8s-0.7-1.5-2.4-1.5c-3.1,0-3.1,0.1-4.4,6.5c-0.6,2.6-0.9,4.1-0.9,5.1c0,1.4,0.7,1.5,2.5,1.5
		C547.7,109.3,548.3,109.2,548.9,107.5z"/>
	<path style="fill:#FFFFFF;" d="M570.2,114.6c0-2,0.7-5.6,1.4-9.1l4.4-20.7h15.5l-3.9,18.6c-0.5,2.3-0.9,4.6-0.9,5.5
		c0,1.4,0.5,1.5,1.7,1.5c2.8,0,3-0.4,4.2-6l4.2-19.6h15.5l-7.8,37.1h-15l0.6-4.1h-0.7c-3.1,3.9-7.2,4.7-10,4.7
		C572.2,122.5,570.2,119.9,570.2,114.6z"/>
	<path style="fill:#FFFFFF;" d="M632.8,111.3c0-3.7,1.2-8.6,2.4-15.1c3.9-20.2,5.3-24.9,26.2-24.9c15.5,0,20.1,2.9,20.1,11.3
		c0,3.8-0.9,8.6-2.3,15c-4.7,20.3-5.4,24.9-26,24.9C637.5,122.5,632.8,119.6,632.8,111.3z M662.3,96.9c1.2-5.5,1.8-8.9,1.8-10.8
		c0-2.6-1.2-2.7-4.1-2.7c-5.1,0-5.2,0.3-7.9,13.4c-1.2,5.7-2,9-2,10.9c0,2.5,1.2,2.5,4.1,2.5C659.3,110.4,659.5,110.1,662.3,96.9z"
		/>
	<path style="fill:#FFFFFF;" d="M680.9,135.8l2-9.8h9.6c8,0,8.2,0,9.4-5.6c0.3-1.2,0.5-2.5,0.8-3.8H702c-3.1,3.9-6.8,4.7-9.5,4.7
		c-7.2,0-9.4-2.8-9.4-7.8c0-1.9,0.3-4.1,0.9-6.6l4.7-22h15.6l-3.9,18.4c-0.5,2.4-0.8,3.9-0.8,4.7c0,1.3,0.6,1.3,2,1.3
		c2.5,0,2.7-0.1,4-6l3.9-18.4H725l-7,33.1c-2.6,12.4-3.6,19-23.8,19C689.3,136.9,683.8,136.4,680.9,135.8z"/>
	<path style="fill:#FFFFFF;" d="M725.7,114.6c0-2,0.7-5.6,1.4-9.1l4.4-20.7H747l-3.9,18.6c-0.5,2.3-0.9,4.6-0.9,5.5
		c0,1.4,0.5,1.5,1.7,1.5c2.8,0,3-0.4,4.2-6l4.2-19.6h15.5l-7.8,37.1h-15l0.6-4.1h-0.7c-3.1,3.9-7.2,4.7-10,4.7
		C727.6,122.5,725.7,119.9,725.7,114.6z"/>
	<path style="fill:#FFFFFF;" d="M774.3,84.8h15l-0.6,4.1h0.7c3.1-3.9,7.2-4.7,10-4.7c7,0,9,2.5,9,7.6c0,2-0.6,5.6-1.3,9.1l-4.5,21
		h-15.5l3.9-18.6c0.5-2.3,0.9-4.6,0.9-5.5c0-1.4-0.5-1.5-1.7-1.5c-2.8,0-3,0.4-4.2,6l-4.2,19.6h-15.5L774.3,84.8z"/>
	<path style="fill:#FFFFFF;" d="M820.6,67.9h15.8l-11.4,54h-15.8L820.6,67.9z"/>
	<path style="fill:#FFFFFF;" d="M833,113.7c0-2.6,0.3-6,1.2-10.2c3.1-15.1,7-19.2,14.4-19.2c4,0,7.7,0.5,9.6,4.2h0.7l1.2-3.7h15.1
		l-7.8,37.1h-15l0.7-4.1h-0.8c-2.6,3.9-6,4.7-9.3,4.7C836.2,122.5,833,120.5,833,113.7z M854.5,108.7c0.7-2,2.3-9,2.3-10.8
		c0-1.5-0.5-1.6-2.4-1.6c-3,0-3.1,0.1-4.6,7.1c-0.7,2.9-0.9,4.6-0.9,5.7c0,1.4,0.7,1.5,2.5,1.5C853.4,110.5,853.9,110.4,854.5,108.7
		z"/>
	<path style="fill:#FFFFFF;" d="M881.7,84.8h15l-1,6.2h0.7c3.2-5.5,5.9-6.8,12.6-6.8l-2.9,13.5c-9.7,0-12,1.8-14.1,11.7l-2.7,12.4
		h-15.5L881.7,84.8z"/>
	<path style="fill:#FFFFFF;" d="M913.5,84.8h15.8l-7.8,37.1h-15.8L913.5,84.8z"/>
</g>
<path style="fill:#FFFFFF;" d="M213,29.7c-65.5,4.1-131.1,4.1-196.6,0c-0.8-0.1-1.2,0.5-0.7,1.2c1.8,2.9,3.6,5.8,5.4,8.7
	c0.5,0.7,1.6,1.3,2.4,1.4c2.1,0.1,4.3,0.2,6.4,0.3c1.1,1.8,2.1,3.6,3.2,5.5c1,1.7,1.9,3.3,2.9,5c0.4,0.7,1.5,1.4,2.3,1.4
	c6.8,0.2,13.6,0.4,20.5,0.5l-0.4,16.3H41.8c-0.9,0-1.5,0.7-1.5,1.5v9.3c0,0.9,0.7,1.5,1.5,1.5h16.3l-2.3,94.6c0,0.9,0.7,1.6,1.5,1.6
	h12.4c0.9,0,1.6-0.7,1.6-1.6l2.3-94.6h82.1l2.3,94.6c0,0.9,0.7,1.6,1.6,1.6H172c0.9,0,1.5-0.7,1.5-1.6l-2.3-94.6h16.3
	c0.9,0,1.5-0.7,1.5-1.5v-9.3c0-0.9-0.7-1.5-1.5-1.5H171l-0.4-16.3c6.9-0.1,13.7-0.3,20.5-0.5c0.9,0,1.9-0.6,2.3-1.4l0,0
	c1-1.7,1.9-3.3,2.9-5c1.1-1.8,2.1-3.6,3.2-5.5c2.6-0.1,5.3-0.3,8-0.4c0.9,0,2-0.7,2.4-1.4c1.3-2.9,2.6-5.8,3.8-8.6
	C214.1,30.2,213.8,29.6,213,29.7z M74.4,53.9c10.8,0.2,21.7,0.3,32.6,0.3v15.8H74L74.4,53.9z M155.4,69.9h-33V54.2
	c10.9,0,21.8-0.1,32.6-0.3L155.4,69.9z"/>
</svg>
