<?xml version="1.0" encoding="utf-8"?>
<!-- Generator: Adobe Illustrator 24.1.2, SVG Export Plug-In . SVG Version: 6.00 Build 0)  -->
<svg version="1.1" id="Capa_1" xmlns="http://www.w3.org/2000/svg" xmlns:xlink="http://www.w3.org/1999/xlink" x="0px" y="0px"
	 viewBox="0 0 510.1 92.5" style="enable-background:new 0 0 510.1 92.5;" xml:space="preserve">
<style type="text/css">
	.st0{enable-background:new    ;}
	.st1{fill:#FFFFFF;}
</style>
<g>
	<g class="st0">
		<path class="st1" d="M105.3,61.9c0.5,0.7,0.3,1.4-0.7,1.4h-6.2c-1,0-1.5-0.7-2-1.4L85.8,47.2h-1v14.7c0,1-0.3,1.4-1.3,1.4h-4.9
			c-1,0-1.3-0.4-1.3-1.4V26.6c0-1,0.3-1.4,1.3-1.4h4.9c1,0,1.3,0.4,1.3,1.4v15.1h0.9l10-15.1c0.5-0.8,1.2-1.4,2.2-1.4h5.2
			c1,0,1.2,0.7,0.7,1.4L92.2,43.9L105.3,61.9z"/>
		<path class="st1" d="M123.7,25.2c1,0,1.5,0.4,1.8,1.4l10.4,35.3c0.3,0.9-0.1,1.4-1,1.4h-5c-1,0-1.3-0.5-1.6-1.4l-2-6.8h-10.4
			l-2,6.8c-0.3,0.9-0.7,1.4-1.7,1.4h-4.5c-1,0-1.3-0.5-1.1-1.4l10.5-35.3c0.3-1,0.7-1.4,1.7-1.4C118.8,25.2,123.7,25.2,123.7,25.2z
			 M122.7,42.8c-0.7-2.3-1.6-9.5-1.6-10.2c-0.1,0.7-1.1,7.8-1.7,10.1l-1.9,6.3h7.1L122.7,42.8z"/>
		<path class="st1" d="M140.9,63.3c-0.9,0-1.2-0.5-1.2-1.5V26.6c0-1,0.3-1.5,1.3-1.5h12.2c10.1,0,13.7,4.4,13.7,9.1V54
			c0,4.7-3.5,9.1-13.7,9.1h-12.3V63.3z M147.3,31.4V57h6c3.8,0,6.1-1.4,6.1-4.2V35.6c0-2.8-2.3-4.2-6.1-4.2
			C153.3,31.4,147.3,31.4,147.3,31.4z"/>
		<path class="st1" d="M180.8,61.8c0,1-0.3,1.5-1.3,1.5h-4.9c-1,0-1.3-0.4-1.3-1.5V26.6c0-1,0.3-1.5,1.3-1.5h4.9
			c1,0,1.3,0.4,1.3,1.5V61.8z"/>
		<path class="st1" d="M214.9,61.9c0,1-0.3,1.4-1.3,1.4h-4.4c-0.7,0-1-0.2-1.3-0.7L197,44c-1.5-2.5-2.2-4.4-2.2-4.5v22.4
			c0,1-0.3,1.4-1.3,1.4H189c-1,0-1.3-0.4-1.3-1.4V26.6c0-1,0.3-1.4,1.3-1.4h4.4c0.6,0,1,0.2,1.2,0.6l11.3,19.3
			c1,1.6,1.9,3.9,1.9,3.9V26.6c0-1,0.3-1.4,1.3-1.4h4.4c1,0,1.3,0.4,1.3,1.4v35.3H214.9z"/>
		<path class="st1" d="M229.3,57h12.5c1,0,1.4,0.3,1.4,1.3v3.5c0,1-0.4,1.4-1.4,1.4h-18.9c-0.8,0-1.2-0.5-1.2-1.5V26.6
			c0-1,0.3-1.5,1.3-1.5h4.9c1,0,1.3,0.4,1.3,1.5L229.3,57L229.3,57z"/>
		<path class="st1" d="M261.5,25.2c1,0,1.5,0.4,1.8,1.4l10.4,35.3c0.3,0.9-0.1,1.4-1,1.4h-5c-1,0-1.3-0.5-1.6-1.4l-2-6.8h-10.4
			l-2,6.8c-0.3,0.9-0.7,1.4-1.7,1.4h-4.5c-1,0-1.3-0.5-1.1-1.4l10.5-35.3c0.3-1,0.7-1.4,1.7-1.4C256.6,25.2,261.5,25.2,261.5,25.2z
			 M260.6,42.8c-0.7-2.3-1.6-9.5-1.6-10.2c-0.1,0.7-1.1,7.8-1.7,10.1l-1.9,6.3h7.1L260.6,42.8z"/>
		<path class="st1" d="M285.1,48.8v13.1c0,1-0.3,1.5-1.3,1.5h-4.9c-1,0-1.3-0.4-1.3-1.5V26.6c0-1,0.3-1.5,1.3-1.5h11.8
			c10.1,0,13.6,4.4,13.6,9.1v5.3c0,3.3-1.7,6.4-6.2,8.1l6.1,14.1c0.4,0.9-0.3,1.5-1.3,1.5H298c-0.8,0-1-0.6-1.4-1.5L291,48.8h-0.3
			H285.1z M285.1,31.4v11h5.6c3.8,0,6.1-1.4,6.1-4.2v-2.6c0-2.8-2.3-4.2-6.1-4.2C290.7,31.4,285.1,31.4,285.1,31.4z"/>
		<path class="st1" d="M348.2,61.9c0.5,0.7,0.3,1.4-0.7,1.4h-6.2c-1,0-1.5-0.7-2-1.4l-10.5-14.7h-1v14.7c0,1-0.3,1.4-1.3,1.4h-4.9
			c-1,0-1.3-0.4-1.3-1.4V26.6c0-1,0.3-1.4,1.3-1.4h4.9c1,0,1.3,0.4,1.3,1.4v15.1h0.9l10-15.1c0.5-0.8,1.2-1.4,2.2-1.4h5.2
			c1,0,1.2,0.7,0.7,1.4L335,43.9L348.2,61.9z"/>
		<path class="st1" d="M358.8,53.2c0,2.8,2.2,4.2,6,4.2s6.1-1.4,6.1-4.2V26.6c0-1,0.3-1.5,1.3-1.5h4.9c1,0,1.3,0.4,1.3,1.5v28
			c0,4.7-3.5,9.1-13.6,9.1s-13.6-4.4-13.6-9.1v-28c0-1,0.4-1.5,1.4-1.5h4.9c1,0,1.3,0.4,1.3,1.5L358.8,53.2L358.8,53.2z"/>
		<path class="st1" d="M392.6,57h12.5c1,0,1.4,0.3,1.4,1.3v3.5c0,1-0.4,1.4-1.4,1.4h-18.9c-0.8,0-1.2-0.5-1.2-1.5V26.6
			c0-1,0.3-1.5,1.3-1.5h4.9c1,0,1.3,0.4,1.3,1.5V57H392.6z"/>
		<path class="st1" d="M418.1,53.2c0,2.8,2.2,4.2,6,4.2s6.1-1.4,6.1-4.2V26.6c0-1,0.3-1.5,1.3-1.5h4.9c1,0,1.3,0.4,1.3,1.5v28
			c0,4.7-3.5,9.1-13.6,9.1s-13.6-4.4-13.6-9.1v-28c0-1,0.4-1.5,1.4-1.5h4.9c1,0,1.3,0.4,1.3,1.5L418.1,53.2L418.1,53.2z"/>
		<path class="st1" d="M445.7,63.3c-1,0-1.3-0.4-1.3-1.5V26.6c0-1,0.3-1.5,1.3-1.5H456c10.1,0,13.6,3.8,13.6,8.5v3.3
			c0,2.7-1.3,4.9-4.2,6.3c3.8,1.3,5.9,3.7,5.9,6.8v4.4c0,4.7-3.4,8.9-13.6,8.9C457.7,63.3,445.7,63.3,445.7,63.3z M451.9,31.2V41
			h4.2c3.6,0,5.9-1.3,5.9-4.2v-2c0-2.8-2.3-3.6-6.1-3.6C455.9,31.2,451.9,31.2,451.9,31.2z M451.9,46.7v10.5h5.8
			c3.8,0,6.1-1.3,6.1-4.1v-2.5c0-2.4-2.4-3.9-6.1-3.9H451.9z"/>
		<path class="st1" d="M484,53.2c0,2.8,2.2,4.2,6,4.2s6.1-1.4,6.1-4.2V26.6c0-1,0.3-1.5,1.3-1.5h4.9c1,0,1.3,0.4,1.3,1.5v28
			c0,4.7-3.5,9.1-13.6,9.1s-13.6-4.4-13.6-9.1v-28c0-1,0.4-1.5,1.4-1.5h4.9c1,0,1.3,0.4,1.3,1.5L484,53.2L484,53.2z M488.8,20.8
			c0,1-0.3,1.4-1.3,1.4h-2.7c-1,0-1.3-0.4-1.3-1.4v-5.2c0-1,0.4-1.5,1.3-1.5h2.7c1,0,1.3,0.4,1.3,1.5V20.8z M496.6,20.8
			c0,1-0.3,1.4-1.3,1.4h-2.7c-1,0-1.3-0.4-1.3-1.4v-5.2c0-1,0.3-1.5,1.3-1.5h2.7c1,0,1.3,0.4,1.3,1.5V20.8z M423,20.8
			c0,1-0.3,1.4-1.3,1.4H419c-1,0-1.3-0.4-1.3-1.4v-5.2c0-1,0.4-1.5,1.3-1.5h2.7c1,0,1.3,0.4,1.3,1.5V20.8z M430.8,20.8
			c0,1-0.3,1.4-1.3,1.4h-2.7c-1,0-1.3-0.4-1.3-1.4v-5.2c0-1,0.3-1.5,1.3-1.5h2.7c1,0,1.3,0.4,1.3,1.5V20.8z"/>
	</g>
	<path class="st1" d="M66.4,61.2c1.9-0.7,3.6-1.7,5.2-3c0.4-0.3,0.6-0.9,0.4-1.4c-0.1-0.5-0.5-0.8-1-0.9c-0.4-0.2-4.6-2.9-4.6-19.4
		v-6.8c0-15.1-12.2-27.3-27.3-27.3S11.8,14.6,11.8,29.7c0,0.1,0,0.2,0,0.3v6.4c0,16.6-4.2,19.2-4.6,19.4c-0.5,0.1-0.9,0.4-1,0.9
		s0.1,1.1,0.5,1.4c1.5,1.3,3.2,2.3,5.1,3C6,63.9,2.3,69.7,2.3,76.2v8.2c0,3,2.4,5.4,5.4,5.4h62.9c3,0,5.4-2.4,5.4-5.4v-8.2
		C76,69.7,72.3,63.8,66.4,61.2L66.4,61.2z M40.5,87v-2.7C40.4,83.5,39.8,83,39,83c-0.7,0.1-1.2,0.6-1.3,1.3V87h-6.3
		c-4.6-5.7-9.9-14.5-11.1-24.6c1.8,0,3.6-0.4,5.3-1c-0.1,0.3-0.1,0.7-0.1,1c0,2.3,1.8,4.1,4.1,4.1c1.1,0,2.2-0.5,3-1.3l2.5,1.1
		c0,0.1,0,0.2,0,0.3c0,2.3,1.8,4.1,4.1,4.1s4.1-1.8,4.1-4.1c0-0.1,0-0.2,0-0.3l2.5-1.1c1.5,1.7,4.1,1.8,5.8,0.3
		c0.9-0.8,1.3-1.9,1.3-3c0-0.4,0-0.7-0.1-1.1c1.7,0.6,3.5,1,5.3,1C56.9,72.5,51.4,81.2,46.9,87H40.5z M17.6,62.5
		C18.7,72.4,23.5,81,28,87.1H13.5c1.4-8,2.2-16.2,2.3-24.3C16.4,62.6,17,62.6,17.6,62.5z M39.2,54.3c2.9,0,5.7-0.7,8.3-2
		c-0.1,2.1,0.4,4.3,1.5,6.1h-0.2c-2.3,0-4.1,1.8-4.1,4.1l0,0c0,0.1,0,0.2,0,0.3l-2.5,1.1c-1.5-1.7-4.1-1.8-5.8-0.2
		c-0.1,0.1-0.2,0.2-0.2,0.2l-2.5-1.1c0-0.1,0-0.2,0-0.3c0-2.3-1.8-4.1-4.1-4.1h-0.1c1-1.9,1.6-4,1.5-6.1
		C33.5,53.6,36.3,54.3,39.2,54.3L39.2,54.3z M50.1,62.4c0,0.8-0.6,1.4-1.4,1.4c-0.8,0-1.4-0.6-1.4-1.4c0-0.8,0.6-1.4,1.4-1.4l0,0
		C49.5,61.1,50.1,61.7,50.1,62.4L50.1,62.4z M40.5,66.5c0,0.8-0.6,1.4-1.4,1.4c-0.8,0-1.4-0.6-1.4-1.4s0.6-1.4,1.4-1.4l0,0
		C39.9,65.2,40.5,65.8,40.5,66.5z M29.6,61.1c0.8,0,1.4,0.6,1.4,1.4c0,0.8-0.6,1.4-1.4,1.4s-1.4-0.6-1.4-1.4l0,0
		C28.2,61.7,28.8,61.1,29.6,61.1z M60.7,62.5c0.6,0,1.2,0.1,1.8,0.3c0.2,8.1,1,16.3,2.3,24.3H50.3C54.8,81,59.6,72.4,60.7,62.5z
		 M11.7,54.6c1.9-3.9,2.9-10,2.9-18.2v-6.8c0-0.1,0-0.2,0-0.3C14.7,15.7,25.7,4.8,39.3,4.9s24.5,11.2,24.4,24.7v6.7
		c0,8.2,1,14.3,2.9,18.2c0.4,0.9,1,1.8,1.7,2.5c-2.6,1.7-5.6,2.5-8.7,2.5h-0.4c-9.1,0-9.1-4.2-9.1-9.1v-0.1c5.2-4,8.2-10.2,8.1-16.8
		c0.1-6.2-2.6-12-7.3-16.1c-0.3-0.2-0.6-0.3-0.9-0.3c-0.3,0-0.5,0.1-0.8,0.2c-9.5,6.2-20.7,9.5-32,9.4c-0.7,0-1.4,0.6-1.4,1.4
		c0,0.7,0.6,1.4,1.4,1.4l0,0c11.6,0.1,22.9-3.1,32.7-9.2c3.6,3.5,5.6,8.3,5.6,13.3c0,9.8-7.3,17.7-16.3,17.7s-16.4-8-16.4-17.7
		c0.1-0.8-0.5-1.4-1.3-1.5s-1.4,0.5-1.5,1.3c0,0.1,0,0.2,0,0.3c0,6.6,3,12.8,8.2,16.9l0,0c0,4.9,0,9.1-9.1,9.1H19
		c-0.1,0-0.2,0-0.3,0h-0.1c-3.1,0-6.1-0.9-8.7-2.5C10.7,56.4,11.3,55.5,11.7,54.6L11.7,54.6z M5,84.3v-8.2c0-5.4,3.1-10.3,8-12.5
		c-0.2,7.8-1,15.7-2.4,23.4H7.7C6.2,87,5,85.8,5,84.3z M73.3,84.3c0,1.5-1.2,2.7-2.7,2.7h-3c-1.3-7.7-2.1-15.6-2.4-23.4
		c4.9,2.2,8.1,7.1,8.1,12.5V84.3z"/>
</g>
</svg>
