<?xml version="1.0" encoding="utf-8"?>
<!-- Generator: Adobe Illustrator 25.4.1, SVG Export Plug-In . SVG Version: 6.00 Build 0)  -->
<svg version="1.0" id="Layer_1" xmlns="http://www.w3.org/2000/svg" xmlns:xlink="http://www.w3.org/1999/xlink" x="0px" y="0px"
	 viewBox="0 0 764 140.7" style="enable-background:new 0 0 764 140.7;" xml:space="preserve">
<style type="text/css">
	.st0{fill-rule:evenodd;clip-rule:evenodd;fill:#FFFFFF;}
	.st1{fill:#FFFFFF;}
</style>
<g>
	<g>
		<path class="st0" d="M0,0.1h111.9v140.6H0V0.1z M27,119.3V25.6h27.7c9.7,0,17.2,2.2,22.6,6.4s8.1,10.7,8.1,19.2
			c0.1,4.1-0.9,8.2-2.9,11.9c-2.1,3.5-5.2,6.2-8.9,7.8c4.5,0.9,8.5,3.6,11,7.5c2.4,4.1,3.7,8.8,3.5,13.6c0,9-2.6,15.8-7.7,20.4
			s-12.5,6.9-22.1,6.9H27z M44.1,77.9v26.8H57c3.9,0,6.7-1.1,8.7-3.2c2-2.1,2.9-5.3,2.9-9.6c0-4.5-0.8-7.9-2.5-10.3S61.9,78,58.3,78
			L44.1,77.9L44.1,77.9z M44.1,65.2h10.1c3.7-0.1,6.6-1.2,8.6-3.3c2-2.1,3-5.1,3-9c0-4.4-1-7.6-3.1-9.6s-5.2-3.1-9.3-3.1h-9.3V65.2z
			"/>
	</g>
	<path class="st1" d="M194.3,103.8c-2.1,3.8-5.6,7.2-10.5,10.2c-4.8,3-11,4.5-18.5,4.5c-9.8,0-17.8-3-23.8-8.9s-9-14.5-9-25.5V56.3
		c0-10.9,2.9-19.3,8.6-25.2s13.3-8.9,22.7-8.9c9.6,0,16.9,2.4,21.9,7.2c5.1,4.8,7.8,11.6,8.1,20.3l-0.1,0.4h-12.4
		c-0.2-5.9-1.7-10.4-4.6-13.4s-7.1-4.6-12.8-4.6s-10.2,2-13.5,6.2s-4.9,10.1-4.9,17.9v28c0,8,1.8,14.1,5.3,18.3s8.4,6.3,14.5,6.3
		c4.5,0,7.9-0.8,10.4-2.3c2.3-1.4,4.2-3.4,5.5-5.8V79.4h-16v-9.5h29.1V103.8z"/>
	<polygon class="st1" points="225.9,140.6 219.4,140.6 219.4,0 225.9,0 	"/>
	<polygon class="st1" points="340.2,140.6 333.7,140.6 333.7,0 340.2,0 	"/>
	<polygon class="st1" points="454.1,140.6 447.6,140.6 447.6,0 454.1,0 	"/>
	<polygon class="st1" points="568.4,140.6 561.9,140.6 561.9,0 568.4,0 	"/>
	<polygon class="st1" points="682.7,140.6 676.2,140.6 676.2,0 682.7,0 	"/>
	<path class="st1" d="M267.1,85H291l-11.7-41h-0.4L267.1,85z M293.9,95.4H264l-6.8,23.6h-13.3l28.8-93.7h12.6l28.6,93.7h-13.2
		L293.9,95.4L293.9,95.4z"/>
	<polygon class="st1" points="371.8,25.3 393.7,101.8 394.1,101.8 416,25.3 432.9,25.3 432.9,119 419.9,119 419.9,83 421.1,47 
		420.7,46.9 398.2,119 389.6,119 367.1,47 366.7,47 367.9,83 367.9,119 355,119 355,25.3 	"/>
	<polygon class="st1" points="514.1,119 501.1,119 501.1,25.3 514.1,25.3 	"/>
	<polygon class="st1" points="654.6,119 641.7,119 606.1,49.3 605.7,49.4 605.7,119 592.7,119 592.7,25.3 605.7,25.3 641.3,94.8 
		641.7,94.7 641.7,25.3 654.6,25.3 	"/>
	<path class="st1" d="M764,104.3c-2.1,3.8-5.6,7.2-10.5,10.2c-4.8,3-11,4.5-18.5,4.5c-9.8,0-17.8-3-23.8-8.9s-9-14.5-9-25.5V56.8
		c0-10.9,2.9-19.3,8.6-25.2s13.3-8.9,22.7-8.9c9.6,0,16.9,2.4,21.9,7.2c5.1,4.8,7.8,11.6,8.1,20.3l-0.1,0.4H751
		c-0.2-5.9-1.7-10.4-4.6-13.4s-7.1-4.6-12.8-4.6s-10.2,2-13.5,6.2s-4.9,10.1-4.9,17.9v28c0,8,1.8,14.1,5.3,18.3s8.4,6.3,14.5,6.3
		c4.5,0,7.9-0.8,10.4-2.3c2.3-1.4,4.2-3.4,5.5-5.8V79.9h-16v-9.5H764V104.3z"/>
</g>
</svg>
