<?xml version="1.0" encoding="utf-8"?>
<!-- Generator: Adobe Illustrator 26.1.0, SVG Export Plug-In . SVG Version: 6.00 Build 0)  -->
<svg version="1.1" id="Layer_1" xmlns="http://www.w3.org/2000/svg" xmlns:xlink="http://www.w3.org/1999/xlink" x="0px" y="0px"
	 viewBox="0 0 358.8 60.6" style="enable-background:new 0 0 358.8 60.6;" xml:space="preserve">
<path style="fill:#FFFFFF;" d="M204.6,58.6c-1.5-0.3-3.1-0.6-4.6-0.9c-1-0.2-1.5-0.7-1.4-1.8c0.1-1.6,0-3.3,0-4.8
	c2.6,0.4,5.1,0.9,7.6,1c5.2,0.1,7.1-2.4,6.3-7.2c-2.2,0.7-4.4,1.9-6.7,2.1c-5.8,0.6-9.9-2.9-11.1-9.2c-0.8-3.9-0.5-7.8,0.5-11.6
	c1.4-5.3,5.2-8,10.5-9c4.5-0.8,8.9-0.3,13.2,1.2c0.6,0.2,1.3,1.2,1.3,1.9c0.1,8.8,0.1,17.7,0,26.5c-0.1,6.8-3.5,10.5-10.2,11.5
	c-0.3,0-0.6,0.2-0.9,0.4C207.7,58.6,206.1,58.6,204.6,58.6z M212.7,30.6c0-1.6,0.1-3.2,0-4.7c0-0.5-0.4-1.2-0.8-1.4
	c-3.4-1.8-8-0.1-8.8,3.6c-0.6,2.6-0.7,5.4-0.4,8.1c0.3,3.2,2.3,4.6,5.4,4.3c2.7-0.3,4.7-2.4,4.7-5.3
	C212.7,33.6,212.7,32.1,212.7,30.6z"/>
<path style="fill:#FFFFFF;" d="M342.5,39.7c-2.3,5.5-5.1,7.4-11.2,7.4c-0.8,0-1.7,0-2.5-0.2c-7.7-1.5-6.2-0.6-6-7.8
	c2.6,0.6,5.2,1.3,7.9,1.9c0.6,0.1,1.5,0.2,2-0.2c0.8-0.5,1.7-1.3,1.9-2.1c0.1-0.7-0.5-1.9-1.2-2.3c-1.9-1-4-1.7-6-2.6
	c-4.1-1.8-6-4.8-5.7-9c0.3-4.2,2.8-6.9,7-7.7c3.6-0.7,7-0.1,10.4,1c0.5,0.2,1.1,1,1.2,1.5c0.2,1.5,0.1,3.1,0.1,4.9
	c-2-0.5-3.7-1.1-5.5-1.5c-2.8-0.6-4.9,0.1-5.4,1.7c-0.4,1.4,0.7,2.5,3.8,3.6c1,0.4,1.9,0.7,2.9,1c3.5,1,5.2,3.6,6.5,6.6
	C342.5,37.2,342.5,38.4,342.5,39.7z"/>
<path style="fill:#FFFFFF;" d="M73.8,27.9c0,11.1-8.6,19.7-19.7,19.7c-11,0-19.7-8.7-19.7-19.5c0-11,8.8-19.7,19.8-19.7
	C65.2,8.3,73.8,17,73.8,27.9z M62.8,27.9c-0.1-4.7-4-8.6-8.8-8.6c-4.8,0.1-8.6,4-8.6,8.7c0,4.7,4,8.6,8.8,8.5
	C59,36.5,62.9,32.6,62.8,27.9z"/>
<path style="fill:#FFFFFF;" d="M257.7,47c-2.6,0-4.9,0-7.5,0c0-2.1,0-4,0-6c0-6.9,0-13.9,0-20.8c0-1.1,0.2-1.7,1.5-2
	c1.8-0.3,3.6-0.9,5.5-1.5c0,1.3,0,2.5,0,4.2c2.5-2.7,5.1-4.1,8.3-4.2c3.4-0.1,6.1,1.1,7.6,4.6c1.9-2.7,4.4-4.3,7.6-4.5
	c5.2-0.4,8.5,1.4,9.4,6.6c0.3,1.8,0.4,3.7,0.4,5.5c0.1,6,0,11.9,0,18c-2.6,0-4.9,0-7.6,0c0-3.7,0-7.5,0-11.2c0-2.5,0.1-4.9,0-7.4
	c-0.2-3.6-1.2-4.8-4-4.8c-2.8,0.1-4.7,2.1-4.7,5.2c0,6,0,12.1,0,18.2c-2.6,0-5,0-7.7,0c0-4.3,0-8.5,0-12.8c0-2.1,0-4.2-0.2-6.4
	c-0.3-3.4-1.3-4.4-4-4.3c-2.5,0.1-4.6,2.3-4.7,4.9c0,5.4,0,10.8,0,16.3C257.7,45.4,257.7,46.1,257.7,47z"/>
<path style="fill:#FFFFFF;" d="M127.2,5.5c0,4.8,0,9.3,0,14.1c2.9-2.3,6-3.2,9.4-2.6c3.4,0.6,5.9,2.3,7.2,5.5
	c2.3,5.8,2.3,11.7-0.2,17.4c-2.1,5-6.7,6.9-11.7,7c-3.6,0.1-7.3-0.8-11-1.3c-1.2-0.2-1.6-0.9-1.6-2.2c0-11.4,0-22.9,0-34.3
	c0-1.2,0.4-1.7,1.5-2C122.9,6.7,124.8,6.1,127.2,5.5z M137.7,31.5c-0.2-1.3-0.3-2.7-0.7-4c-0.7-2.7-2.6-3.8-5.5-3.5
	c-2.4,0.3-4.4,2.3-4.4,4.7c-0.1,3.3-0.1,6.6,0,9.9c0,0.6,0.7,1.4,1.3,1.6c4.5,1.4,7.8-0.5,8.7-5.2C137.4,33.9,137.5,32.7,137.7,31.5
	z"/>
<path style="fill:#FFFFFF;" d="M301.6,33.8c0.1,4.2,3.1,7,7.5,7c2.8,0,5.6-0.7,8.5-1.1c0,0.6,0,1.3,0,2.1c0,4.3,0,4.4-4.2,4.8
	c-2.9,0.3-6,0.5-8.8,0c-5.3-0.9-8.9-4.3-10.1-9.6c-1-4.4-1-8.8,0.9-13.1c3.1-7.1,14.4-9.7,20.3-4.6c1.3,1.1,2.5,2.8,2.8,4.4
	c0.7,3.2,0.7,6.6,1,10.1C313.1,33.8,307.4,33.8,301.6,33.8z M312.1,29c0.3-2.2-0.2-4.1-1.9-5.4c-1.8-1.3-3.8-1.1-5.7,0
	c-2,1.2-2.7,3.1-2.7,5.4C305.3,29,308.6,29,312.1,29z"/>
<path style="fill:#FFFFFF;" d="M245.6,47c-2.4,0-4.4,0-6.6,0c-0.2-0.6-0.4-1.1-0.5-1.6c-1.9,0.5-3.6,1.2-5.5,1.5
	c-4.2,0.7-8-1.3-9.4-4.7c-1.6-3.9-0.5-8.5,3.1-10.7c2.3-1.4,5-2.1,7.6-2.9c1.2-0.4,2.4-0.3,3.6-0.5c0.7-3.2-0.5-5-3.7-4.9
	c-3.1,0.1-6.2,0.8-9.5,1.2c0-1.5-0.1-3.2,0-5c0-0.4,0.6-1.1,1-1.2c4.1-1.2,8.3-2,12.6-1.3c4.6,0.8,7,3.4,7.1,7.9
	C245.7,32.2,245.6,39.5,245.6,47z M238.3,33.9c-2.1,0.3-4.3,0.4-6.2,1c-0.8,0.2-1.9,1.5-1.8,2.3c0.1,1,1,2.2,1.9,2.8
	c1.5,0.9,3.2,0.5,4.6-0.5C238.5,38.2,239,36.5,238.3,33.9z"/>
<path style="fill:#FFFFFF;" d="M173.5,33.8c-6,0-11.7,0-17.5,0c-0.1,3.4,1.8,6.2,5.3,6.6c3.4,0.4,6.9-0.2,10.6-0.4
	c0,1.2,0,3.1,0,4.9c0,0.3-0.5,0.9-0.8,1c-5.9,1.4-11.8,2.4-17.3-1.3c-1-0.7-1.9-1.6-2.7-2.5c-4.1-5.1-4-15.8,0.2-20.9
	c4.2-5,14.1-5.8,19-1.5c2.2,1.9,3,4.6,3.2,7.4C173.6,29.1,173.5,31.3,173.5,33.8z M166.4,29.1c0.3-2.4-0.1-4.3-2.1-5.6
	c-1.9-1.2-3.9-0.9-5.6,0.2c-1.8,1.2-2.5,3.1-2.5,5.3C159.7,29.1,162.9,29.1,166.4,29.1z"/>
<path style="fill:#FFFFFF;" d="M94.7,46.3c-1.4,0-3.1-1-4.1-3.1c-3.9-8.7-7.8-17.3-11.6-26c-1.3-3-0.1-6,2.7-7.2
	c2.8-1.2,5.8,0,7.2,3c3.9,8.5,7.7,17.1,11.5,25.7C102.1,42.5,99.6,46.3,94.7,46.3z"/>
<path style="fill:#FFFFFF;" d="M29.8,40.5c0,3-1.7,5.1-4,5.7c-2.6,0.6-5.1-0.5-6.3-3.1c-2.7-5.8-5.2-11.6-7.8-17.4
	c-1.2-2.7-2.4-5.4-3.6-8.1c-1.4-3.3-0.5-6.4,2.4-7.7c2.9-1.3,5.9,0,7.4,3.2c3.8,8.4,7.6,16.9,11.3,25.3
	C29.6,39.3,29.7,40.2,29.8,40.5z"/>
<path style="fill:#FFFFFF;" d="M190,46.4c-1.8,0.2-3.4,0.6-5.1,0.6c-5.1,0-7.9-2.9-8-8c0-9.3,0-18.5,0-27.8c0-1.3,0.3-2,1.7-2.2
	c1.9-0.4,3.7-1,5.9-1.5c0,3.1,0,6.1,0,9.3c2,0,3.7,0,5.4,0c0,2.2,0,4.2,0,6.4c-1.7,0-3.4,0-5.1,0c0,5-0.1,9.8,0.1,14.5
	c0.1,1.7,1.5,2.4,3.2,2.2c0.6-0.1,1.2-0.2,1.9-0.3C190,41.9,190,44,190,46.4z"/>
</svg>
