<?xml version="1.0" encoding="utf-8"?>
<!-- Generator: Adobe Illustrator 26.1.0, SVG Export Plug-In . SVG Version: 6.00 Build 0)  -->
<svg version="1.1" id="Layer_1" xmlns="http://www.w3.org/2000/svg" xmlns:xlink="http://www.w3.org/1999/xlink" x="0px" y="0px"
	 viewBox="0 0 1056.6 202" style="enable-background:new 0 0 1056.6 202;" xml:space="preserve">
<path style="fill:#FFFFFF;" d="M18.8,24.6c1.7-4.6,5.2-7.6,9.7-5.4c2.3,1.1,4.1,5.6,4.1,8.6c0.4,15.2,0.2,30.4,0.2,46.6
	c3.5-2.9,6.3-5.4,9.3-7.6c18-12.7,41.8-10.3,58,5.8c24.3,24.1,22.5,70.2-3.4,92.5c-16.6,14.2-40.2,14.5-57.2,0.8
	c-1.9-1.6-3.7-3.2-6.7-5.8c0,3.2-0.1,5.5,0,7.8c0.2,4.8-0.1,9.2-6.8,9.1c-6.2-0.1-6.5-4.2-6.4-8.8c0.1-11,0-22,0-32.9
	c0-34.1,0-68.2-0.1-102.2c0-2.4-0.6-4.8-0.9-7.2C18.8,25.5,18.8,25,18.8,24.6z M32.9,116.1c0,18.3,5.5,31.2,16.5,39.5
	c12.5,9.6,27.1,9,38.8-1.6c20.4-18.3,20.3-55.3-0.2-73.3c-12.3-10.9-28.9-11-40.9,0.4C36.7,90.8,31.5,102.8,32.9,116.1z"/>
<path style="fill:#FFFFFF;" d="M231.8,122.5c-26.4,0-52.3,0-78.6,0c0.5,12.8,4.6,23.4,12.9,32.1c12,12.6,28.9,12.1,40.1-1.1
	c3.7-4.3,6.2-9.8,9-14.9c2-3.8,4.5-6.3,9.1-4.7c4.6,1.6,5.4,5.3,4,9.3c-6,16.5-16.3,29.3-34.2,33.2c-17,3.7-31-2.8-41.6-16.3
	c-17-21.9-18.3-57.1-2.7-80.2c10.1-15,24.1-23,42.6-20.5c16.3,2.2,27.2,12.4,34.2,26.7C231.9,97.2,233.6,109.1,231.8,122.5z
	 M217.6,108.7c0.7-18.9-15.3-36.6-32.2-36.1c-15.8,0.4-32.3,19.5-30.9,36.1C175.4,108.7,196.3,108.7,217.6,108.7z"/>
<path style="fill:#FFFFFF;" d="M569,118.8c0.7,11.6-2.6,22.8-8.9,33.2c-19.1,31.2-58.5,32.3-79.4,2.1c-15.3-22-13.8-55.8,3.4-76.5
	c22.4-27.1,61.2-22,78.1,10.2C567.1,97.2,569,105.7,569,118.8z M555.6,119.1c0-13.9-3.9-25.5-13.2-35.1
	c-12.7-13.2-30.8-13.6-44.1-1.2c-19,17.8-19.2,52.5-0.4,70.4c13,12.3,30.8,12.3,43.7-0.3C551.4,143.5,555.4,131.6,555.6,119.1z"/>
<path style="fill:#FFFFFF;" d="M609.9,74.4c6-3.6,10.8-6.9,16-9.5c10.5-5.1,21.6-6.4,32.9-3c14.8,4.5,23.1,16.3,23.1,31.8
	c0,24.9,0,49.8,0,74.7c0,4.6-0.2,8.7-6.4,8.8c-6.6,0.1-7-4.1-7-9c0.1-22.7-0.5-45.3,0.2-67.9c0.7-23.7-18.8-32.4-36.9-22.2
	c-7.5,4.2-13.7,10.8-20,16.8c-1.4,1.4-1.6,4.5-1.6,6.8c-0.1,21.7-0.1,43.5-0.1,65.3c0,4.9-0.4,9.1-7,9c-6.2-0.1-6.4-4.2-6.4-8.8
	c0-33.9,0-67.7-0.1-101.6c0-4.8,1.3-7.8,6.8-7.8c5.5,0,6.9,3.1,6.7,7.8C609.8,68.2,609.9,70.9,609.9,74.4z"/>
<path style="fill:#FFFFFF;" d="M276,69.6c0,8.8,0,16.6,0,24.4c0,19,0.3,38.1-0.1,57.1c-0.1,6.9,2.6,10,9.2,10.3
	c4.3,0.3,8.6,0.7,12.8,1c4.7,0.3,6.9,2.6,6.7,7.3c-0.2,4.6-2.9,6.5-7.1,6.1c-7.6-0.7-15.3-0.9-22.7-2.8c-9.3-2.4-12.1-7.3-12.1-16.8
	c0-26.2,0-52.4,0-78.6c0-2.4,0-4.8,0-8.1c-3.8,0-6.8-0.1-9.9,0c-5,0.2-9.3-0.4-9.2-6.8c0.1-6.5,4.7-6.6,9.5-6.5c2.9,0.1,5.8,0,9.6,0
	c0-10.1,0.1-19.7-0.1-29.2c-0.1-4.9,0.8-8.5,6.8-8.5c6.1,0,6.8,3.8,6.7,8.6c-0.1,9.4,0,18.8,0,29.2c7.2,0,13.8,0.1,20.5,0
	c4.7-0.1,8,1.1,8,6.6c0,5.4-3.1,6.8-7.9,6.7C290.1,69.4,283.6,69.6,276,69.6z"/>
<path style="fill:#FFFFFF;" d="M410.5,105.2c10.3-14.5,20.4-28.5,30.5-42.5c1.4-1.9,3.4-4.2,5.4-4.6c2.3-0.4,6.6,0.6,7.1,1.9
	c0.9,3,1.2,7.3-0.4,9.8c-7.8,11.8-16.2,23.2-24.5,34.6c-9.4,13.1-9.4,13,0,26.2c8,11.1,15.9,22.3,23.9,33.4c2.9,4,4.8,8.4,0.3,11.8
	c-4.8,3.6-8.6,0.9-11.8-3.6c-24.2-34-48.6-67.9-72.8-101.9c-2.7-3.8-4.1-8.1,0.1-11.3c4.3-3.2,8.3-1.4,11.3,3
	C389.7,76.4,400,90.6,410.5,105.2z"/>
<path style="fill:#FFFFFF;" d="M341.1,117.1c0,16.8-0.1,33.6,0.1,50.4c0,4.8-0.9,8.4-6.9,8.3c-5.6-0.1-6.5-3.5-6.5-8.1
	c0.1-34.1,0.1-68.1,0-102.2c0-4.6,1-7.9,6.6-8c6-0.1,6.9,3.6,6.8,8.4C341.1,83.1,341.1,100.1,341.1,117.1z"/>
<path style="fill:#FFFFFF;" d="M403.6,137.3c-1.3,2.7-1.9,4.6-3.1,6.3c-7,9.8-14.3,19.6-21.2,29.5c-2.9,4.2-6.8,5.6-10.9,2.9
	c-4.1-2.8-3.4-7.1-0.9-10.7c7.2-10.3,14.3-20.7,22.1-30.5c1.7-2.1,6.1-3,9.3-2.9C400.6,132,402.1,135.5,403.6,137.3z"/>
<path style="fill:#FFFFFF;" d="M334,21.5c6.4,0.1,10,3.7,9.8,10.1c-0.1,6.4-3.6,9.8-10.2,9.7c-6.5-0.1-9.8-3.5-9.8-10.1
	C323.9,24.7,327.4,21.4,334,21.5z"/>
</svg>
