<?xml version="1.0" encoding="utf-8"?>
<!-- Generator: Adobe Illustrator 24.3.0, SVG Export Plug-In . SVG Version: 6.00 Build 0)  -->
<svg version="1.1" id="Layer_1" xmlns="http://www.w3.org/2000/svg" xmlns:xlink="http://www.w3.org/1999/xlink" x="0px" y="0px"
	 viewBox="0 0 481.9 151.5" style="enable-background:new 0 0 481.9 151.5;" xml:space="preserve">
<path style="fill:#FFFFFF;" d="M188.6,85.7c0,4.6,3.6,8.1,8,8.1c1,0,2-0.2,4.3-1.1l3.4,8.3c-3.3,1.3-5.4,1.7-7.7,1.7
	c-9.4,0-17.1-7.6-17.1-17.1V30.3h9.1v13.9h15.7v9h-15.7V85.7z"/>
<path style="fill:#FFFFFF;" d="M210.3,85.7V58c0-9.5,7.7-17.1,17.1-17.1s17.1,7.6,17.1,17.1v27.7c0,9.5-7.7,17.1-17.1,17.1
	C218,102.8,210.3,95.2,210.3,85.7 M227.4,49.8c-4.3,0-8,3.7-8,8.1v27.7c0,4.4,3.7,8.1,8,8.1c4.4,0,8-3.6,8-8.1V58
	C235.5,53.4,231.9,49.8,227.4,49.8"/>
<path style="fill:#FFFFFF;" d="M296.1,56.1c0-3.4-2.8-6.3-6.3-6.3c-3.4,0-6.3,2.9-6.3,6.3v45.5h-9V56.1c0-3.4-2.8-6.3-6.3-6.3
	c-3.4,0-6.3,2.9-6.3,6.3v45.5h-9V56.1c0-8.5,6.8-15.3,15.3-15.3c4.2,0,8,1.6,10.8,4.4c2.7-2.8,6.5-4.4,10.7-4.4
	c8.6,0,15.4,6.8,15.4,15.3v45.5h-9.1L296.1,56.1L296.1,56.1z"/>
<path style="fill:#FFFFFF;" d="M353.6,58c0-4.4-3.6-8-8-8c-4.3,0-8,3.6-8,8v43.7h-9.1V19h9.1v23.8c2.4-1.3,5.1-2.1,8-2.1
	c9.4,0,17.1,7.6,17.1,17.1v43.7h-9.1L353.6,58L353.6,58z"/>
<path style="fill:#FFFFFF;" d="M370.8,85.7V58c0-9.5,7.7-17.1,17.1-17.1c9.4,0,17.1,7.6,17.1,17.1v27.7c0,9.5-7.7,17.1-17.1,17.1
	C378.5,102.8,370.8,95.2,370.8,85.7 M387.9,49.8c-4.3,0-8,3.7-8,8.1v27.7c0,4.4,3.7,8.1,8,8.1c4.4,0,8-3.6,8-8.1V58
	C396,53.4,392.4,49.8,387.9,49.8"/>
<path style="fill:#FFFFFF;" d="M430.2,49.8c-4.3,0-8,3.7-8,8.1v43.7h-9V58c0-9.5,7.6-17.1,17-17.1c6,0,11.6,3.1,15.3,9.4l-7.7,4.6
	C435.7,51.3,433.2,49.8,430.2,49.8"/>
<path style="fill:#FFFFFF;" d="M472.9,58c0-4.4-3.7-8.1-8-8.1c-4.4,0-8,3.6-8,8.1v43.7h-9.1V58c0-9.5,7.7-17.1,17.1-17.1
	s17,7.6,17,17.1v43.7h-9V58z"/>
<path style="fill:#FFFFFF;" d="M255.3,144.8V129c0-3.7,3-6.7,6.7-6.7c2.7,0,5.1,1.6,6.3,4.5l-2.9,1.3c-0.7-1.7-2-2.5-3.4-2.5
	c-1.9,0-3.5,1.6-3.5,3.5v15.8c0,1.9,1.6,3.5,3.5,3.5c1.9,0,3.5-1.6,3.5-3.5v-3.4h-5.1v-3.2h8.2v6.6c0,3.7-3,6.7-6.7,6.7
	C258.3,151.5,255.3,148.5,255.3,144.8"/>
<path style="fill:#FFFFFF;" d="M293,142.2h-7v8.9h-3.2v-22c0-3.7,3-6.7,6.7-6.7c3.7,0,6.7,3,6.7,6.7v22H293L293,142.2L293,142.2z
	 M289.5,125.6c-1.9,0-3.5,1.6-3.5,3.5v9.9h7v-9.9C293,127.1,291.4,125.6,289.5,125.6"/>
<polygon style="fill:#FFFFFF;" points="324.6,132.4 320.2,145.1 318.5,145.1 314.1,132.4 314.1,151.1 310.9,151.1 310.9,122.7 
	314.1,122.7 319.3,137.9 324.6,122.7 327.8,122.7 327.8,151.1 324.6,151.1 "/>
<rect x="344.9" y="122.7" style="fill:#FFFFFF;" width="3.2" height="28.4"/>
<polygon style="fill:#FFFFFF;" points="368.1,132 368.1,151.1 364.9,151.1 364.9,122.7 368,122.7 375,141.8 375,122.7 378.2,122.7 
	378.2,151.1 375.1,151.1 "/>
<path style="fill:#FFFFFF;" d="M392.8,144.8V129c0-3.7,3-6.7,6.7-6.7c2.7,0,5.1,1.6,6.3,4.5l-2.9,1.3c-0.7-1.7-2-2.5-3.4-2.5
	c-1.9,0-3.5,1.6-3.5,3.5v15.8c0,1.9,1.6,3.5,3.5,3.5c1.9,0,3.5-1.6,3.5-3.5v-3.4h-5.1v-3.2h8.2v6.6c0,3.7-3,6.7-6.7,6.7
	C395.8,151.5,392.8,148.5,392.8,144.8"/>
<rect style="fill:none;" width="481.9" height="151.5"/>
<g>
	<g>
		<defs>
			<path id="SVGID_1_" d="M22.3,21.9C-7.3,51.3-7.5,99.1,21.9,128.7c-5.5-5.5-5.5-14.5,0.1-19.9c5.5-5.5,14.4-5.5,19.9,0.1
				c-18.4-18.5-18.3-48.5,0.2-66.9c18.5-18.4,48.5-18.3,66.9,0.2c0,0,0,0,0,0c5.5,5.5,14.4,5.6,19.9,0.1s5.6-14.4,0.1-19.9
				C114.3,7.4,94.9,0,75.5,0C56.3,0,37,7.3,22.3,21.9"/>
		</defs>
		<clipPath id="SVGID_2_">
			<use xlink:href="#SVGID_1_"  style="overflow:visible;"/>
		</clipPath>
		
			<linearGradient id="SVGID_3_" gradientUnits="userSpaceOnUse" x1="112.6317" y1="-1.7866" x2="113.6317" y2="-1.7866" gradientTransform="matrix(-126.7927 79.2289 79.2289 126.7927 14552.2744 -8674.2236)">
			<stop  offset="0" style="stop-color:#C7E3F8"/>
			<stop  offset="0.28" style="stop-color:#26B1E7"/>
			<stop  offset="1" style="stop-color:#223B86"/>
		</linearGradient>
		<polygon style="clip-path:url(#SVGID_2_);fill:url(#SVGID_3_);" points="94.7,-63.8 -65.3,36.1 32.4,192.5 192.4,92.6 		"/>
	</g>
</g>
<g>
	<g>
		<defs>
			<path id="SVGID_4_" d="M129,42.2c-5.5,5.5-14.4,5.5-19.9-0.1c18.4,18.5,18.3,48.5-0.2,66.9c-18.5,18.4-48.5,18.3-66.9-0.2
				c0,0,0,0,0,0c0,0-0.1-0.1-0.1-0.1c-0.3-0.3-0.6-0.6-0.9-0.8c0,0,0,0,0,0c-0.4-0.3-0.7-0.6-1.1-0.8c0,0,0,0-0.1,0
				c-0.4-0.2-0.7-0.5-1.1-0.7c0,0-0.1,0-0.1,0c-4.1-2.1-8.9-2.1-13,0c-0.1,0.1-0.3,0.2-0.4,0.2c-0.7,0.4-1.3,0.8-1.9,1.3
				c-0.4,0.3-0.7,0.6-1.1,1c-5.5,5.5-5.6,14.4-0.1,19.9c29.4,29.6,77.2,29.8,106.8,0.4c29.6-29.4,29.8-77.2,0.4-106.8
				C134.6,27.8,134.5,36.8,129,42.2"/>
		</defs>
		<clipPath id="SVGID_5_">
			<use xlink:href="#SVGID_4_"  style="overflow:visible;"/>
		</clipPath>
		
			<linearGradient id="SVGID_6_" gradientUnits="userSpaceOnUse" x1="111.3683" y1="-1.0025" x2="112.3683" y2="-1.0025" gradientTransform="matrix(126.7927 -79.2289 -79.2289 -126.7927 -14177.2715 8827.2412)">
			<stop  offset="0" style="stop-color:#C7E3F8"/>
			<stop  offset="0.28" style="stop-color:#26B1E7"/>
			<stop  offset="1" style="stop-color:#223B86"/>
		</linearGradient>
		<polygon style="clip-path:url(#SVGID_5_);fill:url(#SVGID_6_);" points="56.3,222.3 219.7,120.2 118.6,-41.5 -44.7,60.5 		"/>
	</g>
</g>
</svg>
