<?xml version="1.0" encoding="utf-8"?>
<!-- Generator: Adobe Illustrator 24.1.2, SVG Export Plug-In . SVG Version: 6.00 Build 0)  -->
<svg version="1.1" id="Layer_1" xmlns="http://www.w3.org/2000/svg" xmlns:xlink="http://www.w3.org/1999/xlink" x="0px" y="0px"
	 viewBox="0 0 257 112" style="enable-background:new 0 0 257 112;" xml:space="preserve">
<style type="text/css">
	.st0{fill:#F4BA06;}
	.st1{fill:#FFFFFF;}
</style>
<path class="st0" d="M4.2,107.5c1.1-4.6,2.1-9.1,3.1-13.7c1.3-6.2,1.2-6.2,7.2-6.2h189.8h2.9V88c-4.2,0.4-8.4,1-12.6,1.3
	c-14.4,1.5-28.8,2.9-43.4,4.3c-12.5,1.3-25.1,2.4-37.6,3.7c-14,1.4-28,2.9-42,4.2c-11,1.2-22.2,2.1-33.2,3.3
	c-11.5,1.2-22.8,2.3-34.3,3.6L4.2,107.5z"/>
<path class="st1" d="M177.9,5c1.2,25.1,2.1,50.3,3.3,75.5h-26.1V70.2h-10.2c-1.4,3.4-2.8,6.9-4.2,10.4h-25.4
	c1.3-2.9,2.3-5.6,3.6-8.4c9.9-22,19.7-43.9,29.5-65.7c0.4-1.1,1-1.5,2.1-1.5c8.8,0.1,17.5,0,26.3,0C177.1,4.8,177.4,4.9,177.9,5z
	 M158,34.2l-0.3-0.1c-2,5-3.9,10-5.9,15.2h5.6C157.6,44.2,157.8,39.1,158,34.2L158,34.2z"/>
<path class="st1" d="M209.9,80.4h-25.4c3.2-15.2,6.3-30.3,9.3-45.5c1.9-9.3,3.8-18.6,5.6-27.9c0.2-1.7,1-2.3,2.9-2.3
	c11.9,0.1,23.9-0.1,35.8,0.1c3,0,5.8,0.4,8.7,1.3c5.8,1.8,8.9,6.4,8.7,12.4c-0.2,7.8-1.8,15.6-4.8,22.8c-3.9,9.3-11.9,13-21.6,13.4
	c-4,0.1-8.1,0.1-12.2-0.1c-1.5-0.1-2,0.4-2.2,1.9C213.2,64.5,211.5,72.4,209.9,80.4z M219,35.5c4.5,0.5,6.9-0.4,7.7-3.1
	c0.6-2,1.2-3.9,1.5-6c1-5.6,0-6.6-5.6-6.2c-0.1,0-0.2,0.1-0.4,0.3C221.1,25.5,220,30.3,219,35.5z"/>
<path class="st1" d="M60.8,60c-1.5,7-2.9,13.7-4.2,20.5H10.3C15.5,55.4,20.7,30.2,25.9,5H52c-3.7,18.2-7.4,36.5-11.2,55H60.8z"/>
<path class="st1" d="M71.8,25.1c1.4-6.7,2.8-13.5,4.2-20.3h52c-0.5,2.9-1.1,5.6-1.6,8.4c-0.7,3.6-1.4,7.1-2.2,10.6
	c-0.1,0.6-1,1.5-1.6,1.5c-16.8,0.1-33.4,0.1-50.2,0.1C72.2,25.3,72.1,25.2,71.8,25.1z"/>
<path class="st1" d="M60.3,80.5c1.5-7,2.9-13.7,4.2-20.5h52.3c-0.4,2.3-0.7,4.5-1.2,6.6c-0.7,4-1.7,8.3-2.5,12.3
	c-0.2,0.7-0.8,1.3-1.6,1.5C94.6,80.5,77.5,80.5,60.3,80.5z"/>
<path class="st1" d="M118.3,52.6H66c1.4-6.9,2.8-13.5,4.2-20.3h52.2L118.3,52.6z"/>
</svg>
