<?xml version="1.0" encoding="utf-8"?>
<!-- Generator: Adobe Illustrator 24.1.2, SVG Export Plug-In . SVG Version: 6.00 Build 0)  -->
<svg version="1.1" id="Layer_1" xmlns="http://www.w3.org/2000/svg" xmlns:xlink="http://www.w3.org/1999/xlink" x="0px" y="0px"
	 viewBox="0 0 251.7 77.1" style="enable-background:new 0 0 251.7 77.1;" xml:space="preserve">
<style type="text/css">
	.st0{clip-path:url(#SVGID_2_);}
	.st1{fill:#2F98D5;}
	.st2{fill:#F9AE00;}
	.st3{fill:#E40E20;}
	.st4{fill:#FFFFFF;}
</style>
<g>
	<g>
		<g>
			<defs>
				<path id="SVGID_1_" d="M20.3,64.8c-2.2-3.1-2.4-6.4,0.2-10.9s11-10.1,11-10.1s4.9-2.6,4.9-5.2c0-0.1,0-0.1,0-0.2
					c0-0.1,0-0.1,0-0.2c0-2.6-4.9-5.2-4.9-5.2l0,0c-0.4-0.3-8.5-5.8-11-10.1c-2.6-4.5-2.4-7.7-0.2-10.9S27.8,6.9,36,7.4
					s17.2,3,23.9,9.1c0,0-5.8-10.2-20.5-13.1s-26,3-32.5,8.9c-1.7,1.6-2.6,3.1-2.9,4.5c-0.8,4,3,7.4,6,10.4c4.1,3.9,6,7.8,6,11.3
					s-1.8,7.4-6,11.3c-3.1,3-6.9,6.4-6,10.3c0.3,1.4,1.2,3,2.9,4.5c6.5,5.9,17.8,11.7,32.5,8.9C54.2,70.5,60,60.3,60,60.3
					c-6.8,6.1-15.7,8.6-23.9,9.1C27.8,70,22.4,68,20.3,64.8z"/>
			</defs>
			<clipPath id="SVGID_2_">
				<use xlink:href="#SVGID_1_"  style="overflow:visible;"/>
			</clipPath>
			<g class="st0">
				<path class="st1" d="M14.4,25.2l17.1,7.9c-0.4-0.3-8.5-5.8-11-10.1c-2.6-4.5-2.4-7.7-0.2-10.9s7.5-5.2,15.7-4.7s17.2,3,23.9,9.1
					c0,0-5.8-10.2-20.5-13.1s-26,3-32.5,8.9c-1.7,1.6-2.6,3.1-2.9,4.5C4.3,21.2,14.4,25.2,14.4,25.2z"/>
				<path class="st2" d="M20.3,64.8c-2.2-3.1-2.4-6.4,0.2-10.9s11-10.1,11-10.1l-17.1,8c0,0-10.2,3.9-10.3,8.3
					c0.3,1.4,1.2,3,2.9,4.5c6.5,5.9,17.8,11.7,32.5,8.9C54.2,70.6,60,60.4,60,60.4C53.2,66.5,44.2,69,36,69.5
					C27.8,70,22.4,68,20.3,64.8z"/>
				<path class="st3" d="M14.4,51.8l17.1-8c0,0,4.9-2.6,4.9-5.2c0-0.1,0-0.1,0-0.2c0-0.1,0-0.1,0-0.2c0-2.6-4.9-5.2-4.9-5.2l0,0
					l-17.1-7.9c0,0-10.2-3.9-10.3-8.3c-0.8,3.9,3,7.4,6,10.3c4.1,3.9,6,7.8,6,11.3s-1.8,7.4-6,11.3c-3.1,3-6.9,6.4-6,10.3
					C4.3,55.8,14.4,51.8,14.4,51.8z"/>
			</g>
		</g>
	</g>
</g>
<g>
	<path class="st4" d="M47.6,41.6c0,0.7,0.3,1.3,1,1.6c0.7,0.3,1.6,0.6,2.8,0.6c1,0,2.2,0,3.2-0.1s2.1-0.2,3-0.3
		c0.9-0.1,1.5-0.2,1.6-0.2c0.1,2-0.3,3.4-1.1,4.3c-0.9,0.8-2.6,1.3-5.3,1.3c-3.7,0-6.4-0.7-8.2-2.3c-1.7-1.5-2.6-4.1-2.6-7.8
		c0-1.8,0.2-3.4,0.7-4.7c0.5-1.3,1.1-2.3,2.1-2.9c0.9-0.7,2-1.1,3-1.4c1.1-0.2,2.4-0.5,3.9-0.5c2.9,0,4.9,0.6,6.3,1.8
		c1.4,1.3,2.1,3.1,2.1,5.7c0,1-0.2,1.8-0.6,2.4s-0.9,1-1.5,1.3c-0.7,0.2-1.4,0.3-2.3,0.5c-0.9,0.1-1.7,0.1-2.6,0.1s-1.8,0-2.8,0.1
		C49.2,41.1,48.2,41.3,47.6,41.6z M47.3,37.9c0.3-0.2,1-0.5,2-0.6c0.9-0.1,1.7-0.1,2.5-0.1c0.8,0,1.5-0.2,2.1-0.5
		c0.6-0.3,0.9-0.8,0.9-1.5c0-0.6-0.5-1-1.4-1.5c-1.3-0.6-2.6-0.6-3.8-0.1C47.7,34.3,47,35.7,47.3,37.9z"/>
	<path class="st4" d="M82.2,35.6v12.6c-0.8,0-1.5,0-2.1,0c-0.6,0-1.1-0.2-1.6-0.3c-0.5-0.1-0.9-0.6-1.1-1s-0.3-1-0.3-1.7v-7.5v-0.1
		v-1.8c-0.3-1.7-2-2.3-4.7-2c-1.5,0.2-2.3,0.3-2.5,0.5C70,34.6,70,35,70,35.6V45c0,0.7-0.1,1.3-0.3,1.7c-0.2,0.5-0.7,0.8-1.1,1
		c-0.5,0.2-1,0.3-1.6,0.3s-1.3,0.1-2.1,0V31.3c0-1.5,2.4-2.3,7.2-2.4C78.8,28.8,82.2,31,82.2,35.6z"/>
	<path class="st4" d="M100.3,21.6c0.3,0.2,0.8,0.5,1.3,0.5c0.6,0.1,1,0.1,1.4,0.1c0.5,0,0.8,0.1,1.3,0.2c0.5,0.1,0.7,0.5,0.9,0.9
		c0.2,0.5,0.3,1.1,0.3,2.1v20.3c0,0-0.1,0.1-0.3,0.3c-0.2,0.2-0.3,0.5-0.6,0.6s-0.5,0.3-0.9,0.6c-0.5,0.2-0.9,0.5-1.5,0.6
		c-0.6,0.1-1.3,0.2-2.2,0.3c-0.9,0.1-2,0.2-3,0.2c-3.6,0-6.1-0.8-7.7-2.3c-1.5-1.5-2.3-4.1-2.3-7.7c0-1.4,0.2-2.6,0.6-3.7
		c0.3-1,0.8-2,1.5-2.6c0.6-0.7,1.4-1.3,2.2-1.7c0.8-0.5,1.7-0.8,2.5-0.9c0.8-0.2,1.7-0.2,2.6-0.2c1.7,0,3,0.2,3.8,0.8L100.3,21.6
		L100.3,21.6z M100.3,38.8v-4.9c-0.3-0.1-0.7-0.2-1-0.2c-0.3-0.1-0.8-0.1-1.4-0.1c-0.6,0-1,0-1.5,0c-0.5,0-0.9,0.2-1.5,0.5
		c-0.5,0.2-0.9,0.6-1.3,0.9c-0.3,0.3-0.7,0.9-0.9,1.6c-0.2,0.7-0.3,1.5-0.3,2.4c0,0.9,0.1,1.6,0.5,2.3c0.2,0.7,0.6,1.1,1,1.5
		c0.3,0.3,0.9,0.6,1.5,0.8c0.6,0.1,1.1,0.2,1.6,0.3c0.5,0,1,0,1.5,0c0.6,0,0.9-0.1,1.1-0.1s0.5-0.1,0.6-0.1l0,0
		C100.3,43.4,100.3,41.9,100.3,38.8z"/>
	<path class="st4" d="M110.4,38.6c0-0.1,0-0.3,0-0.6s0-0.7,0.1-1.4c0.1-0.7,0.2-1.3,0.3-2c0.2-0.6,0.5-1.3,0.9-2.1
		c0.5-0.7,1-1.4,1.7-2c0.7-0.6,1.6-1,2.8-1.4c1.1-0.3,2.4-0.6,3.9-0.6c1,0,2,0.1,2.9,0.2c0.9,0.1,1.6,0.3,2.3,0.7s1.1,0.6,1.7,1
		c0.5,0.5,0.9,0.8,1.3,1.3c0.3,0.3,0.6,0.9,0.8,1.4c0.2,0.6,0.3,1,0.5,1.4c0.1,0.3,0.2,0.9,0.2,1.4c0,0.6,0.1,0.9,0.1,1.3
		c0,0.2,0,0.7,0,1c0,0.5,0,0.7,0,0.7c0,0.3,0,0.7,0,1c0,0.3-0.1,0.8-0.2,1.4c-0.1,0.7-0.2,1.3-0.5,1.7c-0.2,0.5-0.6,1-1,1.6
		c-0.5,0.6-1,1.1-1.6,1.5c-0.6,0.3-1.4,0.7-2.4,1c-1,0.2-2.1,0.5-3.3,0.5c-1.3,0-2.4-0.1-3.4-0.2c-1-0.1-1.8-0.3-2.5-0.7
		c-0.7-0.2-1.3-0.6-1.8-1c-0.6-0.5-0.9-0.9-1.3-1.4c-0.3-0.5-0.6-1-0.8-1.8s-0.3-1.4-0.5-2.1C110.5,40.3,110.4,39.5,110.4,38.6z
		 M115.6,38.9c0.1,0.8,0.1,1.5,0.3,2c0.2,0.5,0.3,0.9,0.7,1.4c0.3,0.5,0.8,0.8,1.5,1s1.5,0.3,2.5,0.3c0.8,0,1.5-0.1,2.1-0.3
		c0.6-0.2,1-0.6,1.3-0.9c0.2-0.3,0.5-0.7,0.7-1.1c0.1-0.5,0.2-0.8,0.2-1c0-0.2,0-0.5,0-0.8c0,0,0-0.1,0-0.3c0-0.2,0-0.3,0-0.6
		c0-0.2,0-0.3,0-0.7c0-0.3-0.1-0.6-0.1-0.8c0-0.2-0.1-0.5-0.2-0.8c-0.1-0.3-0.2-0.6-0.3-0.8c-0.1-0.2-0.3-0.5-0.6-0.7
		c-0.2-0.2-0.5-0.5-0.8-0.6c-0.3-0.1-0.7-0.2-1-0.3c-0.5-0.1-0.9-0.1-1.4-0.1c-0.9,0-1.7,0.1-2.3,0.3c-0.7,0.2-1.1,0.6-1.4,0.9
		c-0.3,0.3-0.6,0.8-0.7,1.3c-0.1,0.6-0.2,0.9-0.2,1.3c0,0.3,0,0.7,0,1.1C115.6,38.8,115.6,38.9,115.6,38.9z"/>
	<path class="st4" d="M147.5,29c0,0,0,0.3,0,0.7c0,0.5,0,0.8,0,1.3c0,0.3-0.1,0.8-0.2,1.3c-0.1,0.5-0.5,0.8-0.8,1.1
		c-0.5,0.2-1,0.5-1.6,0.5c-0.9,0-1.7,0-2.3,0.1c-0.6,0.1-1,0.2-1.4,0.6c-0.5,0.2-0.7,0.7-0.8,1.1c-0.1,0.5-0.2,1.1-0.2,2.1v11
		c-0.5-0.3-0.9-0.6-1.6-0.7c-0.7-0.2-1.3-0.3-1.7-0.3c-0.5-0.1-0.9-0.3-1.3-0.8c-0.3-0.5-0.6-1.1-0.6-2v-9.3c0-0.1,0-0.3,0-0.6
		s0-0.6,0.1-1c0.1-0.5,0.2-0.8,0.3-1.3c0.1-0.5,0.3-0.9,0.7-1.4c0.3-0.5,0.7-0.9,1.1-1.3c0.5-0.3,1-0.7,1.7-0.9
		c0.7-0.2,1.5-0.3,2.4-0.3c1.5,0,2.6,0,3.4,0c0.7,0,1.1,0,1.3,0s0.2,0,0.3,0C146.6,29,146.9,29,147.5,29z"/>
	<path class="st4" d="M156.8,55.8c-0.5-0.3-0.9-0.5-1.6-0.6c-0.7,0-1.3-0.1-1.7-0.1s-0.9-0.2-1.3-0.7c-0.3-0.5-0.6-1.3-0.6-2.4V31.7
		c0,0,0.1-0.1,0.3-0.3s0.3-0.5,0.6-0.6c0.1-0.1,0.5-0.3,0.9-0.6c0.5-0.2,0.9-0.5,1.5-0.6c0.6-0.1,1.3-0.2,2.2-0.3
		c0.9-0.1,2-0.2,3-0.2c3.6,0,6.1,0.8,7.7,2.3c1.5,1.5,2.3,4.1,2.3,7.7c0,1.7-0.2,3.2-0.8,4.5s-1.3,2.2-2.2,2.9c-0.9,0.7-2,1.1-3,1.5
		s-2.2,0.5-3.3,0.5c-1.6,0-2.9-0.1-3.8-0.5L156.8,55.8L156.8,55.8z M156.8,38.6v4.9c0.3,0.1,0.8,0.2,1.1,0.2
		c0.5,0.1,0.9,0.1,1.6,0.2c0.7,0,1.3,0,1.8-0.2c0.6-0.2,1-0.5,1.6-0.8c0.5-0.3,0.9-0.9,1.3-1.6c0.3-0.7,0.5-1.7,0.5-2.8
		c0-0.9-0.1-1.6-0.5-2.3c-0.3-0.7-0.6-1.1-1-1.5c-0.3-0.3-0.9-0.6-1.5-0.8c-0.6-0.2-1.1-0.2-1.6-0.3c-0.5-0.1-0.9,0-1.6,0
		c-0.6,0.1-1,0.1-1.1,0.1s-0.3,0.1-0.6,0.1l0,0C156.8,34,156.8,35.5,156.8,38.6z"/>
	<path class="st4" d="M180.1,29.7c1.1-0.5,3-0.7,5.6-0.7c1.3,0,2.4,0.2,3.3,0.7c0.9,0.5,1.6,0.9,2,1.5c0.3,0.6,0.7,1.3,0.9,2
		s0.3,1.3,0.3,1.6c0,0.3,0,0.7,0,0.9v12.6c-3.4,0.5-5.2-0.6-5.2-3.2c0-0.9,0-2.2,0-3.8c0-3.4-0.1-5.5-0.5-6.3
		c-0.3-0.7-1.4-1.1-3.2-1.1c-1.1,0-2.3,0.2-3.4,0.6v10.7c0,1.4-0.3,2.3-1.3,2.8c-0.9,0.5-2.2,0.6-3.9,0.5V21.2
		c0.5,0.3,0.9,0.5,1.6,0.6c0.7,0,1.3,0.1,1.7,0.1s0.9,0.2,1.3,0.7c0.3,0.5,0.6,1.3,0.6,2.4L180.1,29.7L180.1,29.7z"/>
	<path class="st4" d="M198.2,27.1c-0.6-0.6-0.8-1.3-0.8-2c0-0.8,0.2-1.4,0.8-2s1.1-0.8,2-0.8c0.8,0,1.4,0.2,2,0.8
		c0.6,0.6,0.8,1.1,0.8,2s-0.2,1.4-0.8,2c-0.6,0.6-1.1,0.8-2,0.8C199.3,27.9,198.7,27.5,198.2,27.1z M202.6,32.5c0-1.1-0.2-2-0.6-2.4
		c-0.3-0.5-0.8-0.7-1.3-0.7c-0.5,0-1,0-1.7-0.1c-0.7,0-1.3-0.2-1.6-0.6v19.5c1.7,0.1,3-0.1,3.9-0.5c0.9-0.3,1.4-1.4,1.3-2.8V32.5
		L202.6,32.5z"/>
	<path class="st4" d="M225.3,35.6v12.6c-0.8,0-1.5,0-2.1,0c-0.6,0-1.1-0.2-1.6-0.3c-0.6-0.2-0.9-0.6-1.1-1c-0.2-0.5-0.3-1-0.3-1.7
		v-7.5v-0.1v-1.8c-0.3-1.7-2-2.3-4.7-2c-1.5,0.2-2.3,0.3-2.5,0.5c0.1,0.3,0.1,0.8,0.1,1.4V45c0,0.7-0.1,1.3-0.3,1.7s-0.7,0.8-1.1,1
		c-0.5,0.2-1,0.3-1.6,0.3s-1.3,0.1-2.1,0V31.3c0-1.5,2.4-2.3,7.2-2.4C221.8,28.8,225.3,31,225.3,35.6z"/>
	<path class="st4" d="M231.6,33.9c0-0.1,0-0.1,0-0.2s0-0.3,0-0.7c0-0.3,0-0.7,0.1-0.9c0-0.3,0.2-0.7,0.3-1c0.2-0.3,0.3-0.7,0.7-0.9
		c0.3-0.2,0.7-0.5,1.1-0.7c0.5-0.2,1-0.2,1.7-0.2c0.2,0,0.6,0,0.9,0c0.6,0,1.3,0,1.8,0c0.6,0,1.3,0,2,0.1c0.7,0,1.3,0.1,1.8,0.3
		c0.6,0.1,1.1,0.3,1.7,0.6c0.6,0.2,1,0.6,1.5,1c0.5,0.5,0.8,0.9,1.1,1.5s0.6,1.3,0.8,2.1c0.2,0.8,0.2,1.7,0.2,2.8v0.2V38v0v0.2v0.2
		v0.2V39v0.3v0.3v0.5v0.6V41c0,0.9-0.1,1.8-0.3,2.5s-0.5,1.4-0.8,1.8s-0.7,0.9-1.1,1.3c-0.5,0.3-0.9,0.7-1.3,0.8
		c-0.3,0.2-0.9,0.3-1.4,0.5c-0.6,0.1-0.9,0.1-1.3,0.2c-0.3,0-0.7,0-1,0h-4.8c-0.1,0-0.2,0-0.3,0s-0.3,0-0.8-0.1
		c-0.3,0-0.7-0.1-1-0.2c-0.3-0.1-0.7-0.3-1.1-0.6c-0.5-0.2-0.8-0.6-1-0.9c-0.3-0.3-0.6-0.8-0.8-1.4c-0.2-0.6-0.3-1.3-0.3-2
		c0-1.3,0.1-2.3,0.5-3.2c0.3-0.9,0.8-1.5,1.5-2c0.7-0.5,1.4-0.8,2.2-1c0.8-0.2,1.7-0.2,3-0.2c2,0,3.3-0.1,4.1-0.3
		c0.7-0.2,1-0.7,1-1.3c0-0.8-0.8-1.3-2.3-1.6c-1.5-0.2-3.1-0.3-4.8-0.2C233.7,33.3,232.4,33.5,231.6,33.9z M242.5,39
		c-0.1,0.1-0.2,0.2-0.3,0.5c-0.1,0.2-0.6,0.3-1.1,0.7c-0.6,0.2-1.3,0.3-1.8,0.3c-1.1,0-2.1,0.1-2.8,0.5c-0.7,0.2-1,0.7-1,1.1
		c0,0.6,0.2,1,0.8,1.4c0.5,0.3,1.5,0.5,3,0.5c0.6,0,1.1,0,1.4,0c0.3,0,0.7-0.1,0.9-0.2c0.3-0.1,0.5-0.3,0.6-0.5s0.2-0.5,0.3-0.9
		c0.1-0.5,0.1-0.9,0.1-1.3C242.5,40.6,242.5,40,242.5,39z"/>
</g>
</svg>
