<?xml version="1.0" encoding="utf-8"?>
<!-- Generator: Adobe Illustrator 26.1.0, SVG Export Plug-In . SVG Version: 6.00 Build 0)  -->
<svg version="1.1" id="Layer_1" xmlns="http://www.w3.org/2000/svg" xmlns:xlink="http://www.w3.org/1999/xlink" x="0px" y="0px"
	 viewBox="0 0 1048.6 197" style="enable-background:new 0 0 1048.6 197;" xml:space="preserve">
<g>
	<path style="fill:#FFFFFF;" d="M64.9,31.2c1-2,3.1-2,5.1-2c14.3,0,29.6,0,43.9,0c1,0,2,0,3.1,0c-1,2-2,5.1-2,7.1
		c-7.1,19.4-14.3,38.8-21.4,58.1c-1,4.1,0,5.1,4.1,5.1c10.2,0,20.4,0,30.6,0c1,0,2,0,3.1,0c-2,4.1-4.1,7.1-6.1,11.2
		c-11.2,20.4-21.4,40.8-32.6,61.2c-3.1,6.1-7.1,13.3-10.2,19.4c-1,1-2,2-4.1,1c-2,0-3.1-2-3.1-3.1c-1-12.2-2-24.5-3.1-35.7
		c-1-17.3-2-34.7-3.1-52c-1-14.3-2-29.6-3.1-43.9c0-6.1-1-11.2-1-17.3v-1C64.9,35.3,64.9,33.2,64.9,31.2z"/>
	<path style="fill:#FFFFFF;" d="M989,125c-1,4.1-3.1,8.2-6.1,11.2c-6.1,6.1-13.3,9.2-21.4,11.2c-11.2,2-22.4,1-32.6-4.1
		c-10.2-5.1-17.3-13.3-19.4-25.5c9.2,0,18.4,0,27.5,0c3.1,7.1,10.2,10.2,19.4,8.2c1,0,2-1,3.1-1c4.1-3.1,4.1-9.2,0-11.2
		c-5.1-2-10.2-3.1-15.3-5.1c-5.1-2-10.2-3.1-15.3-4.1c-9.2-3.1-15.3-9.2-16.3-19.4c-1-11.2,3.1-20.4,12.2-25.5
		c15.3-8.2,30.6-9.2,46.9-1C981.9,63.8,987,73,989,84.2v1c-9.2,0-17.3,0-25.5,0c-3.1-8.2-9.2-12.2-18.4-9.2c-3.1,1-5.1,3.1-6.1,5.1
		c0,3.1,1,6.1,4.1,7.1c6.1,2,11.2,3.1,17.3,5.1c5.1,2,11.2,4.1,16.3,6.1c6.1,3.1,10.2,9.2,11.2,16.3c0,0,0,0,0,1
		C989,118.9,989,122,989,125z"/>
	<path style="fill:#FFFFFF;" d="M693.2,135.2c0,12.2,0,25.5,0,37.7c-9.2,0-18.4,0-28.6,0c0-39.8,0-78.5,0-118.3c9.2,0,18.4,0,28.6,0
		c0,4.1,0,8.2,0,12.2c1,0,1-1,1-1c8.2-9.2,18.4-13.3,30.6-12.2c16.3,1,30.6,13.3,35.7,30.6c4.1,16.3,3.1,31.6-5.1,45.9
		c-12.2,20.4-36.7,22.4-51,13.3C699.3,141.3,696.3,138.3,693.2,135.2z M733,100.5c0-2,0-3.1,0-5.1c-1-8.2-5.1-14.3-13.3-16.3
		c-8.2-3.1-15.3-1-21.4,5.1c-6.1,6.1-6.1,14.3-5.1,22.4c1,7.1,6.1,13.3,13.3,15.3c7.1,2,14.3,1,19.4-4.1
		C730.9,113.8,733,107.7,733,100.5z"/>
	<path style="fill:#FFFFFF;" d="M505.5,107.7c0,9.2,6.1,17.3,15.3,17.3c6.1,0,11.2-1,15.3-5.1c0-1,1-1,2-1c9.2,0,19.4,0,28.6,0
		c0,0,0,0,1,0c-2,8.2-7.1,14.3-13.3,19.4c-8.2,6.1-17.3,9.2-27.5,9.2c-8.2,0-16.3-1-23.5-4.1c-13.3-6.1-21.4-17.3-23.5-31.6
		c-2-10.2-2-20.4,2-30.6c6.1-16.3,18.4-25.5,35.7-28.6c10.2-1,19.4,0,28.6,4.1c13.3,6.1,21.4,17.3,23.5,31.6c1,6.1,1,12.2,0,18.4
		C547.3,107.7,525.9,107.7,505.5,107.7z M505.5,92.4c11.2,0,23.5,0,34.7,0c1-7.1-6.1-14.3-13.3-15.3C513.7,75,506.5,83.2,505.5,92.4
		z"/>
	<path style="fill:#FFFFFF;" d="M837,146.4c-9.2,0-18.4,0-27.5,0c0-30.6,0-61.2,0-91.8c9.2,0,18.4,0,27.5,0c0,4.1,0,7.1,0,11.2
		c0,0,0,0,1,0c1-1,1-2,2-2c13.3-14.3,43.9-14.3,56.1,7.1c3.1,5.1,4.1,11.2,5.1,17.3c0,19.4,0,37.7,0,57.1c0,1,0,1,0,2
		c-9.2,0-18.4,0-27.5,0c0-1,0-2,0-3.1c0-16.3,0-32.6,0-50c0-10.2-8.2-19.4-21.4-16.3c-7.1,1-12.2,7.1-13.3,14.3c0,7.1,0,14.3,0,20.4
		c0,10.2,0,21.4,0,31.6C837,145.4,837,146.4,837,146.4z"/>
	<path style="fill:#FFFFFF;" d="M575.9,118.9c9.2,0,17.3,0,26.5,0c1,0,1,1,2,1c2,4.1,6.1,7.1,11.2,7.1c3.1,0,5.1,0,8.2-1
		c3.1-1,5.1-3.1,5.1-6.1c0-3.1-1-5.1-4.1-6.1c-6.1-2-11.2-3.1-17.3-5.1c-5.1-1-9.2-3.1-14.3-5.1c-19.4-8.2-17.3-32.6-4.1-42.8
		c8.2-6.1,16.3-8.2,26.5-8.2c8.2,0,17.3,1,24.5,6.1c9.2,6.1,14.3,14.3,15.3,25.5c-9.2,0-17.3,0-25.5,0c-1-2-2-5.1-4.1-6.1
		c-4.1-4.1-12.2-5.1-17.3-2c-4.1,3.1-4.1,9.2,0,11.2c5.1,2,10.2,3.1,15.3,5.1c6.1,2,12.2,3.1,17.3,6.1c8.2,4.1,13.3,11.2,14.3,20.4
		c1,11.2-4.1,19.4-13.3,24.5c-7.1,4.1-15.3,5.1-22.4,5.1c-11.2,0-21.4-2-29.6-8.2c-6.1-5.1-10.2-11.2-12.2-18.4
		C576.9,120.9,576.9,119.9,575.9,118.9L575.9,118.9z"/>
	<path style="fill:#FFFFFF;" d="M377,55.7c10.2,0,20.4,0,30.6,0c6.1,21.4,13.3,42.8,19.4,64.3l0,0c0-1,1-1,1-2
		c6.1-20.4,12.2-39.8,18.4-60.2c0-2,1-2,3.1-2c8.2,0,16.3,0,24.5,0c1,0,2,0,3.1,0c-1,4.1-2,7.1-4.1,10.2
		c-9.2,26.5-18.4,53-28.6,79.6c-1,1-1,2-3.1,2c-10.2,0-20.4,0-30.6,0c-2,0-2,0-3.1-2c-9.2-25.5-17.3-51-26.5-75.5
		C381.1,64.8,379,59.7,377,55.7z"/>
	<path style="fill:#FFFFFF;" d="M139.3,146.4c4.1-8.2,9.2-16.3,13.3-24.5c8.2-15.3,16.3-30.6,24.5-45.9c2-3.1,1-6.1-3.1-6.1
		c-9.2,0-18.4,0-27.5,0c-1,0-2,0-3.1,0c1-4.1,3.1-8.2,4.1-11.2c3.1-9.2,7.1-18.4,10.2-27.5c0-1,1-2,3.1-2c14.3,0,28.6,0,42.8,0
		c1,0,2,0,3.1,0c2,1,2,2,2,4.1c-3.1,15.3-7.1,30.6-10.2,46.9c-5.1,21.4-10.2,42.8-15.3,64.3c0,2-1,3.1-3.1,3.1
		C166.9,146.4,153.6,146.4,139.3,146.4z"/>
	<path style="fill:#FFFFFF;" d="M265.8,146.4c0-39.8,0-78.5,0-117.3c9.2,0,18.4,0,27.5,0c0,29.6,0,59.2,0,89.8c12.2,0,24.5,0,36.7,0
		c0,9.2,0,19.4,0,28.6C308.6,146.4,287.2,146.4,265.8,146.4z"/>
	<path style="fill:#FFFFFF;" d="M367.8,146.4c-9.2,0-18.4,0-28.6,0c0-30.6,0-61.2,0-91.8c9.2,0,18.4,0,28.6,0
		C367.8,85.2,367.8,115.8,367.8,146.4z"/>
	<path style="fill:#FFFFFF;" d="M770.7,54.6c9.2,0,18.4,0,27.5,0c0,30.6,0,61.2,0,91.8c-9.2,0-18.4,0-27.5,0
		C770.7,115.8,770.7,86.3,770.7,54.6z"/>
</g>
</svg>
