<?xml version="1.0" encoding="utf-8"?>
<!-- Generator: Adobe Illustrator 26.1.0, SVG Export Plug-In . SVG Version: 6.00 Build 0)  -->
<svg version="1.1" id="Layer_1" xmlns="http://www.w3.org/2000/svg" xmlns:xlink="http://www.w3.org/1999/xlink" x="0px" y="0px"
	 viewBox="0 0 1056.6 202" style="enable-background:new 0 0 1056.6 202;" xml:space="preserve">
<g id="Livello_1_1_">
</g>
<g>
	<path style="fill:#FFFFFF;" d="M263.7,85.3h-12.2l2.8-12.8h41.5l-2.8,12.8h-12.3l-7.9,37.2h-17L263.7,85.3z"/>
	<path style="fill:#FFFFFF;" d="M296.6,85.5h15l-1,6.2h0.7c3.2-5.5,5.9-6.8,12.6-6.8L321,98.4c-9.7,0-12,1.8-14.1,11.7l-2.7,12.4
		h-15.5L296.6,85.5z"/>
	<path style="fill:#FFFFFF;" d="M321.9,114.4c0-2.6,0.6-6.1,1.5-10.4c3.4-15.6,4.4-19.1,21-19.1c13.4,0,17.4,2.1,17.4,8.8
		c0,2.6-0.5,6.1-1.5,10.3c-3.5,15.6-4.6,19.1-21.1,19.1C325.9,123.1,321.9,121,321.9,114.4z M345,104c0.7-3.3,1-5.3,1-6.5
		c0-1.5-0.8-1.7-2.5-1.7c-3.1,0-3.1,0.4-4.7,8.2c-0.7,3.5-1.1,5.5-1.1,6.6c0,1.5,0.7,1.6,2.5,1.6C343.2,112.2,343.3,111.9,345,104z"
		/>
	<path style="fill:#FFFFFF;" d="M370.1,85.5h15l-0.7,4.1h0.8c2.6-3.9,6-4.7,9.3-4.7c6.6,0,9.8,2,9.8,8.8c0,2.6-0.3,6-1.2,10.2
		c-3.1,15.1-7,19.2-14.4,19.2c-4,0-7.7-0.5-9.6-4.2h-0.7l-3.8,18.2h-15.6L370.1,85.5z M387.8,104c0.7-2.9,0.9-4.6,0.9-5.7
		c0-1.4-0.7-1.5-2.5-1.5c-2,0-2.5,0.1-3.1,1.8c-0.7,2-2.3,9.2-2.3,10.8c0,1.5,0.5,1.6,2.4,1.6C386.2,111.1,386.3,111,387.8,104z"/>
	<path style="fill:#FFFFFF;" d="M412.4,85.5h15.8l-7.8,37.1h-15.8L412.4,85.5z M415.9,68.6h15.8l-2.3,11h-15.8L415.9,68.6z"/>
	<path style="fill:#FFFFFF;" d="M438.2,68.6h15.6L447.2,99h0.7l10.4-13.5h16.6l-15,18.2l7.6,18.9h-16.6l-4.9-13.4h-0.7l-2.8,13.4
		h-15.5L438.2,68.6z"/>
	<path style="fill:#FFFFFF;" d="M470.2,114.3c0-2.6,0.3-6,1.2-10.2c3.1-15.1,7-19.2,14.4-19.2c4,0,7.7,0.5,9.6,4.2h0.7l1.2-3.7h15.1
		l-7.8,37.1h-15l0.7-4.1h-0.8c-2.6,3.9-6,4.7-9.3,4.7C473.4,123.1,470.2,121.2,470.2,114.3z M491.6,109.3c0.7-2,2.3-9,2.3-10.8
		c0-1.5-0.5-1.6-2.4-1.6c-3,0-3.1,0.1-4.6,7.1c-0.7,2.9-0.9,4.6-0.9,5.7c0,1.4,0.7,1.5,2.5,1.5C490.6,111.1,491.1,111,491.6,109.3z"
		/>
	<path style="fill:#FFFFFF;" d="M522.5,68.6h15.8l-11.4,54h-15.8L522.5,68.6z"/>
	<path style="fill:#FFFFFF;" d="M555.1,111.9c0-3.7,1.2-8.6,2.4-15.1c3.9-20.2,5.3-24.9,26.2-24.9c15.5,0,20.1,2.9,20.1,11.3
		c0,3.8-0.9,8.6-2.3,15c-4.7,20.3-5.4,24.9-26,24.9C559.8,123.1,555.1,120.2,555.1,111.9z M584.6,97.5c1.2-5.5,1.8-8.9,1.8-10.8
		c0-2.6-1.2-2.7-4.1-2.7c-5.1,0-5.2,0.3-7.9,13.4c-1.2,5.7-2,9-2,10.9c0,2.5,1.2,2.5,4.1,2.5C581.6,111,581.8,110.7,584.6,97.5z"/>
	<path style="fill:#FFFFFF;" d="M603.2,136.4l2-9.8h9.6c8,0,8.2,0,9.4-5.6c0.3-1.2,0.5-2.5,0.8-3.8h-0.7c-3.1,3.9-6.8,4.7-9.5,4.7
		c-7.2,0-9.4-2.8-9.4-7.8c0-1.9,0.3-4.1,0.9-6.6l4.7-22h15.6l-3.9,18.4c-0.5,2.4-0.8,3.9-0.8,4.7c0,1.3,0.6,1.3,2,1.3
		c2.5,0,2.7-0.1,4-6l3.9-18.4h15.6l-7,33.1c-2.6,12.4-3.6,19-23.8,19C611.6,137.5,606.1,137.1,603.2,136.4z"/>
	<path style="fill:#FFFFFF;" d="M648,115.3c0-2,0.7-5.6,1.4-9.1l4.4-20.7h15.5l-3.9,18.6c-0.5,2.3-0.9,4.6-0.9,5.5
		c0,1.4,0.5,1.5,1.7,1.5c2.8,0,3-0.4,4.2-6l4.2-19.6h15.5l-7.8,37.1h-15l0.6-4.1H667c-3.1,3.9-7.2,4.7-10,4.7
		C649.9,123.1,648,120.5,648,115.3z"/>
	<path style="fill:#FFFFFF;" d="M696.6,85.5h15l-0.6,4.1h0.7c3.1-3.9,7.2-4.7,10-4.7c7,0,9,2.5,9,7.6c0,2-0.6,5.6-1.3,9.1l-4.5,21
		h-15.5l3.9-18.6c0.5-2.3,0.9-4.6,0.9-5.5c0-1.4-0.5-1.5-1.7-1.5c-2.8,0-3,0.4-4.2,6l-4.2,19.6h-15.5L696.6,85.5z"/>
	<path style="fill:#FFFFFF;" d="M742.9,68.6h15.8l-11.4,54h-15.8L742.9,68.6z"/>
	<path style="fill:#FFFFFF;" d="M755.3,114.3c0-2.6,0.3-6,1.2-10.2c3.1-15.1,7-19.2,14.4-19.2c4,0,7.7,0.5,9.6,4.2h0.7l1.2-3.7h15.1
		l-7.8,37.1h-15l0.7-4.1h-0.8c-2.6,3.9-6,4.7-9.3,4.7C758.5,123.1,755.3,121.2,755.3,114.3z M776.8,109.3c0.7-2,2.3-9,2.3-10.8
		c0-1.5-0.5-1.6-2.4-1.6c-3,0-3.1,0.1-4.6,7.1c-0.7,2.9-0.9,4.6-0.9,5.7c0,1.4,0.7,1.5,2.5,1.5C775.7,111.1,776.2,111,776.8,109.3z"
		/>
	<path style="fill:#FFFFFF;" d="M804,85.5h15l-1,6.2h0.7c3.2-5.5,5.9-6.8,12.6-6.8l-2.9,13.5c-9.7,0-12,1.8-14.1,11.7l-2.7,12.4
		h-15.5L804,85.5z"/>
</g>
<path style="fill:#FFFFFF;" d="M189.5,57.3l6.4,2.1l-4.4-5.1c-18.8-22.1-40.1-21.1-50.8-18.6c7.1-6.6,13.8-9.4,13.9-9.4l6.4-2.6
	l-6.8-1c-13.6-2-21.7,3.5-26.1,8.5c-2.1,2.4-3.6,4.9-4.6,6.9c-7.1-14.7-18.3-19.6-26.9-21c-10-1.7-18.4,0.9-18.8,1l-7.8,2.4l8.1,1.2
	c11.3,1.7,20.1,8.5,25.3,13.7c-13.1-4.7-24.4-2.6-32.1,0.3c-9.9,3.7-15.9,9.6-16.1,9.8l-3.7,3.6l5.2-0.4c12.3-1.1,23.1,0.1,31,1.5
	C73.2,52.4,63.4,60.6,57.3,68c-8.5,10.3-11.7,20.9-11.9,21.4l-2,6.8l5.1-5c13.8-13.3,36-18.8,47.8-20.9c-3.4,3.4-5.9,7.8-7.2,13.2
	C87.5,89.9,88,95.2,88,95.5l0.7,7.1l2.9-6.5c4.2-9.4,11.2-15.5,17.3-19.2c-3,20.6-6.2,57.9,1.1,100.3c-4.5,2.3-7.8,6.4-9.2,11.2
	l-0.7,2.4h37.4l-0.7-2.4c-1.3-4.4-4.1-8.1-8-10.5c-2.6-8.6-6-22.4-8-39.9c-2.2-20.5-1.9-41.1,1-61.4c10.4,12,15.6,34.9,15.7,35.2
	l1.3,6.2l2.2-5.9c3.2-8.5,5.9-21.2,0.9-32.9c-0.9-2-1.8-3.7-2.8-5.2c21.6,8.7,38.8,28.2,39,28.5l4.4,5.1l-1.1-6.6
	c-3.8-21.8-14.1-33.8-22.2-40c-4.2-3.2-8.2-5.3-11.3-6.6C166.1,49.6,189.3,57.2,189.5,57.3z"/>
</svg>
