<?xml version="1.0" encoding="utf-8"?>
<!-- Generator: Adobe Illustrator 22.0.0, SVG Export Plug-In . SVG Version: 6.00 Build 0)  -->
<svg version="1.1" id="Layer_1" xmlns="http://www.w3.org/2000/svg" xmlns:xlink="http://www.w3.org/1999/xlink" x="0px" y="0px"
	 viewBox="0 0 1056.6 202" style="enable-background:new 0 0 1056.6 202;" xml:space="preserve">
<g>
	<path style="fill:#FFFFFF;" d="M268.1,155.3c-6.1,0-11.9-1.2-17.1-3.5c-5.3-2.3-10-6-13.9-10.9l7.1-6c2.8,3.6,6.4,6.6,10.5,8.7
		c4.2,2.2,8.8,3.2,13.8,3.2c3,0,5.7-0.5,8.3-1.5c2.5-1,4.5-2.3,6.4-4c1.7-1.6,3-3.7,4-6s1.4-4.6,1.4-7.3c0-2.4-0.4-4.4-1.3-6.4
		c-0.9-1.8-2-3.3-3.5-4.6c-1.4-1.3-3.1-2.6-5.1-3.6c-1.9-1-4-1.9-6.3-2.8l-11.1-4.3c-2.6-1-5.1-2.2-7.5-3.6
		c-2.4-1.4-4.4-2.9-6.4-4.9c-1.8-1.9-3.2-4.1-4.3-6.8c-1.1-2.5-1.6-5.5-1.6-9.1c0-3.3,0.8-6.7,2.2-9.6c1.4-2.9,3.3-5.4,5.8-7.7
		c2.5-2.2,5.3-3.8,8.7-5.1c3.3-1.3,7-1.8,10.9-1.8c5.5,0,10.2,0.8,14,2.4c3.7,1.6,7.3,3.8,10.6,6.8l-6,6.9c-2.5-2.4-5.2-4.2-8.3-5.5
		c-2.9-1.3-6.5-1.9-10.4-1.9c-2.5,0-4.9,0.4-7,1.1c-2,0.8-3.9,1.8-5.5,3.2c-1.6,1.4-2.8,3-3.8,5c-0.9,1.8-1.4,3.9-1.4,6.3
		c0,2,0.4,3.9,1.2,5.5c0.8,1.6,1.8,2.9,3,4.2c1.3,1.2,2.8,2.3,4.5,3.2c1.7,1,3.7,1.7,5.6,2.6l10.8,4.3c2.8,1.1,5.4,2.4,8.1,3.8
		c2.6,1.4,4.9,3.1,7,5.2c2.2,2,3.6,4.4,4.7,7.2c1.2,2.7,1.7,6,1.7,9.8c0,3.8-0.8,7.4-2.3,10.7c-1.5,3.2-3.7,6.3-6.5,8.7
		c-2.7,2.5-5.8,4.3-9.6,5.7C276.2,154.7,272.2,155.3,268.1,155.3z"/>
	<path style="fill:#FFFFFF;" d="M310.7,59.2h30c3.1,0,6.1,0.2,9.1,0.8c2.9,0.5,5.4,1.3,7.7,2.4c4.2,2.3,7.8,5.5,10.7,9.8
		c2.9,4.3,4.3,9.6,4.3,15.7c0,3.6-0.4,7-1.4,10c-1,3-2.2,5.7-3.8,8.2c-1.6,2.4-3.3,4.4-5.4,6.1c-2,1.6-4.2,2.9-6.6,3.8
		c-1.9,0.6-4.1,1.1-6.6,1.4c-2.3,0.2-5.1,0.3-8.5,0.3h-19.5v35.8h-9.8L310.7,59.2z M340.2,109.5c2.5,0,4.5,0,6.1-0.1
		c1.5-0.1,3.1-0.4,4.9-1.1c1.5-0.5,3-1.4,4.3-2.6c1.3-1.2,2.5-2.7,3.6-4.3c1.1-1.7,1.8-3.7,2.5-5.8c0.6-2.2,0.9-4.5,0.9-7.1
		c0-4.6-0.9-8.5-2.7-11.4c-1.8-2.9-4-5.2-6.8-6.7c-3-1.7-7.2-2.6-12.4-2.6h-20.1v41.8L340.2,109.5z"/>
	<path style="fill:#FFFFFF;" d="M384.7,145.3H443v8.4h-58.1L384.7,145.3z M384.8,59.2H443v8.4h-58.1V59.2z M384.8,101h55.9v8.5
		h-55.9V101z"/>
	<path style="fill:#FFFFFF;" d="M492.4,54.8l42.2,98.8h-10.8l-31.4-75.1l-31.7,75.1h-10.8L492.4,54.8z"/>
	<path style="fill:#FFFFFF;" d="M554.2,153.6h-9.8V59.1H578c3,0,6,0.2,8.8,0.6c2.8,0.4,5.4,1.3,7.9,2.5c4.4,2.3,8.2,5.5,11,10
		c2.8,4.4,4.2,9.7,4.2,15.6c0,4.3-0.6,8.2-2,11.6c-1.4,3.5-3,6.6-5.2,9.1c-2,2.5-4.4,4.4-7.2,5.8c-2.7,1.4-5.3,2.3-8.1,2.5
		c4,6.1,8,12.2,11.9,18.3c3.9,6.1,7.8,12.1,11.7,18.2h-11.8c-3.8-6-7.7-11.9-11.3-17.9c-3.8-6-7.6-12-11.3-18v-8.4
		c2.8,0,5.1,0,6.9-0.1c1.6-0.1,3.5-0.4,5.4-1.1c1.6-0.5,3.1-1.4,4.5-2.6c1.4-1.3,2.5-2.7,3.6-4.4c1-1.7,1.7-3.7,2.3-6
		c0.5-2.2,0.9-4.4,0.9-6.8c0-4.4-0.9-8.2-2.5-11.2c-1.6-3-4-5.3-6.9-7c-1.7-1-3.7-1.6-5.7-1.9c-2.2-0.4-4.3-0.5-6.8-0.5h-23.8
		L554.2,153.6z"/>
	<path style="fill:#FFFFFF;" d="M707.5,145.3h58.2v8.3h-58.1L707.5,145.3z"/>
	<path style="fill:#FFFFFF;" d="M765.8,59.2h-58.1v8.4h58.1V59.2z"/>
	<path style="fill:#FFFFFF;" d="M763.5,101h-55.9v8.5h55.9V101z"/>
	<path style="fill:#FFFFFF;" d="M682.4,59.2V101h-50.8V59.2h-9.7v94.4h9.7v-44.1h50.8v44.1h9.8V59.2H682.4z"/>
	<path style="fill:#FFFFFF;" d="M815.6,54.8l42.2,98.8H847l-31.4-75.1L784,153.6h-10.8L815.6,54.8z"/>
	<path style="fill:#FFFFFF;" d="M867.6,59.2h26.6c1.7,0,3.8,0.1,6.4,0.2c2.5,0.1,4.7,0.4,7.1,0.9c5.2,1,10,2.7,14.6,5.2
		c4.5,2.5,8.5,5.7,11.9,9.7c3.3,3.9,6,8.6,8,13.7c1.9,5.1,2.9,11,2.9,17.1c0,5.8-0.9,11.3-2.6,16.3c-1.7,5-4.2,9.5-7.3,13.5
		c-3,4-6.8,7.4-11.1,10.1c-4.2,2.7-9,4.7-13.8,6c-2.3,0.6-4.5,1.1-7.2,1.2c-2.5,0.2-5.3,0.2-8.4,0.2h-26.9L867.6,59.2z M894,145.3
		c2.7,0,5.2-0.1,7.6-0.2c2.3-0.2,4.4-0.5,6.5-1.1c4-1,7.7-2.7,11-5c3.3-2.3,6.3-5.1,8.5-8.4c2.4-3.2,4.2-6.9,5.5-10.9
		c1.3-4,1.9-8.4,1.9-13.1c0-5.1-0.6-9.8-2-14c-1.4-4.2-3.2-8-5.7-11.2c-2.5-3.2-5.5-6-9.1-8.1c-3.5-2.2-7.4-3.7-11.5-4.6
		c-1.8-0.4-3.9-0.6-6.3-0.9c-2.3-0.1-4.4-0.2-6.4-0.2h-16.5v77.7H894z"/>
	<path style="fill:#FFFFFF;" d="M957.3,130.2c-6.6,0-11.9,5.3-11.9,11.9c0,6.6,5.3,11.9,11.9,11.9c6.6,0,11.9-5.3,11.9-11.9
		C969.2,135.5,963.9,130.2,957.3,130.2z M957.3,151.7c-5.3,0-9.6-4.3-9.6-9.6c0-5.3,4.3-9.6,9.6-9.6c5.3,0,9.6,4.3,9.6,9.6
		C966.9,147.3,962.6,151.7,957.3,151.7z"/>
	<path style="fill:#FFFFFF;" d="M962.2,148.4l-3.7-4.1c1.9-0.4,3.2-2.4,3.2-4.3c0-2.7-2.3-4.4-4.9-4.4h-4.4v12.9h1.8v-4h2.4l3.5,3.9
		H962.2L962.2,148.4z M954.3,137.1h2.3c2.3,0,3.5,1.3,3.5,2.9c0,1.6-1.3,2.9-3.5,2.9h-2.3V137.1z"/>
	<path style="fill:#FFFFFF;" d="M152,21.3L206.5,162l-24.9,25h-59.3L97,162L152,21.3z M152,8L91.4,163.3l29,28.6h63.3l28.5-28.6
		L152,8z"/>
	<path style="fill:#FFFFFF;" d="M148,127.2c-8.2-5.3-34.2,6.8-34.2,6.8l-10.1,25.9l12.2,12.3C118.8,169.2,160.8,135.6,148,127.2z"/>
	<path style="fill:#FFFFFF;" d="M154.3,39.7c0,0-6.5,19.7-12.4,37.3c-8.3,24.4-5.7,31.3,5.4,27.8c16-4.9,27.5-12.9,31.3,5
		c4,20.7-15.1,40.6-31.6,55.3c-7.1,6.4-15.4,12.5-20.5,16.2h53.3l21.2-21.7L154.3,39.7z"/>
</g>
</svg>
