<?xml version="1.0" encoding="utf-8"?>
<!-- Generator: Adobe Illustrator 26.1.0, SVG Export Plug-In . SVG Version: 6.00 Build 0)  -->
<svg version="1.1" id="Layer_1" xmlns="http://www.w3.org/2000/svg" xmlns:xlink="http://www.w3.org/1999/xlink" x="0px" y="0px"
	 viewBox="0 0 1056.6 202" style="enable-background:new 0 0 1056.6 202;" xml:space="preserve">
<path style="fill:#FFFFFF;" d="M488.4,36.3c-0.6,15.4-1.6,30.9-1.8,46.4c-0.4,29.5-0.3,59-0.5,88.5c0,0.8-0.2,1.5-0.5,3.2
	c-6,0-12,0.4-17.9-0.2c-1.9-0.1-4.7-2.3-5.3-4.2c-4.1-11.8-7.5-23.9-11.7-35.7c-1.3-3.8-4-7-7.7-10.5c-0.1,16.9-0.3,33.9-0.4,51.4
	c-8.8-0.1-16.8-0.2-24.6-0.3c-0.1-22.3-0.2-43.8-0.4-65.4c-0.2-22.4-0.5-44.8-0.7-67.1c0-3-0.3-6.2,0.3-9.1c0.3-1.6,2-4,3.3-4.1
	c6.6-0.4,13.2-0.6,19.7,0.1c1.9,0.2,4.2,3.5,4.9,5.8c3.9,12.2,7.4,24.6,11.1,37c0.8,2.8,1.8,5.7,4.5,8.4c0.2-16.6,0.3-33.2,0.5-50.9
	c9.3,0.2,18.1,0.3,26.8,0.5C488.2,32.2,488.3,34.2,488.4,36.3z"/>
<path style="fill:#FFFFFF;" d="M763.7,174c-8.5,0-16.3,0.3-24.1-0.3c-1.5-0.1-3.7-3.7-3.8-5.8c-0.6-14-0.7-28-1.1-42
	c-0.1-2.8-0.3-5.5-1.9-8.6c-1.5,6.4-3.8,12.7-4.5,19.1c-0.7,6.6-5.3,4.9-8.8,5.4c-3.9,0.5-7.5,0.7-8.8-4.6
	c-1.4-5.8-3.6-11.4-5.5-17.1c-0.8,0-1.6,0.2-2.5,0.2c0.9,17.4,1.9,34.8,2.8,52.3c-10.5,0.6-18.9,1-28.3,1.5
	c-0.3-48.5-0.6-96.3-0.9-145.5c9,0.3,17.8,0.3,26.4,1.2c1.8,0.2,3.7,3.8,4.5,6.1c3.5,10.3,6.6,20.7,10,31.1c0.6,1.9,1.7,3.6,2.9,6.1
	c4.3-13.3,8.6-25.7,12.3-38.3c1.4-4.8,3.5-6.9,9-6.6c6.8,0.4,13.6-0.5,20.8-0.9C762.6,76.6,763.1,124.6,763.7,174z"/>
<path style="fill:#FFFFFF;" d="M802.2,29.1c6.9-0.4,13.3-1.4,19.5-0.7c3,0.3,7.1,3.4,8.1,6.1c4,11.4,7,23.3,10.4,34.9
	c0.8,2.8,1.9,5.5,4.5,8.2c0.3-1.5,0.8-2.9,0.9-4.5c0.1-12.2,0.2-24.4,0-36.7c-0.1-5.3,1.1-7.6,7.2-7.6c20.3,0,19.7-0.2,19.3,20.2
	c-0.7,36.7-0.7,73.3-1.1,110c-0.1,4.5-0.4,9.1-0.6,14.7c-6.5,0-12.6,0.6-18.5-0.3c-2.2-0.3-4.7-3.5-5.6-5.9
	c-5.1-13.4-9.8-27.1-14.8-40.6c-0.7-1.8-1.8-3.4-3.8-4.8c-0.1,17.2-0.2,34.3-0.4,52.3c-8.7,0-16.7,0-24.5-0.1
	C802.4,125.4,802.2,77.5,802.2,29.1z"/>
<path style="fill:#FFFFFF;" d="M642.5,120.1c-14.1-1.1-14.1-1.1-14.1,11.6c0,14-0.2,27.9-0.3,41.7c-8.9,0.5-17.4,0.9-26.7,1.4
	c0.1-34,0.2-67,0.3-100c0-6.3-0.4-12.7,0.1-18.9c1.4-17.9,15.8-29.5,33.7-28.7c21.8,0.9,30.9,12.7,31.9,33.3
	c1.9,37.1,1,74.3,1.3,111.5c0,0.8-0.4,1.5-0.6,2.4c-7.3,0.4-14.5,1-21.8,1.1c-5.8,0.1-4.3-4.4-4.3-7.8
	C642.3,152,642.4,136.2,642.5,120.1z M627.1,92.1c14.4,1.9,14.6,1.7,14.7-10.3c0-1.3,0.2-2.5,0.2-3.8c-0.1-4.8,0.5-9.8-0.9-14.2
	c-0.8-2.4-4.9-4.8-7.7-5.1c-1.8-0.2-5.3,3.7-5.5,6C627.2,73.8,627.3,82.9,627.1,92.1z"/>
<path style="fill:#FFFFFF;" d="M93,176.5c-8.4-0.1-16.5-0.2-24.2-0.3c-1-18.5-2-36.4-3-55.3c-3.1-0.1-7.1-0.2-12.2-0.4
	c-0.2,18.6-0.4,36.6-0.6,55.3c-8.8-0.2-17.3-0.3-24.9-0.4c-0.7-12.5-1.8-24.7-1.9-36.8c-0.2-26.6-0.1-53.3,0.3-79.8
	C27,39.8,40.4,28.4,60.6,28.3c22.9,0,32.3,15.2,32.9,39c1,34.4,0.2,68.7,0.1,103.1C93.5,172.4,93.2,174.4,93,176.5z M52.4,93.2
	c3.9,0.2,7.2,0.8,10.4,0.5c1.6-0.1,4.2-1.9,4.2-2.9c0.1-8.7,0.2-17.6-0.8-26.2c-0.2-2-5.1-4.7-7.9-4.7c-2,0-5.6,3.8-5.8,6.1
	C51.9,74.8,52.3,83.6,52.4,93.2z"/>
<path style="fill:#FFFFFF;" d="M265,175.7c-8.5-0.3-16.3-0.5-24.8-0.8c0.1-48.9,0.2-97.2,0.2-146.5c15.2,0.3,29.4,0,43.6,1.1
	c11,0.9,19.7,10.4,20.4,22.4c0.7,12.1,0.3,24.4-1.4,36.4c-0.9,6-5.7,11.5-9.1,17.9c16,20,7.2,44.5,10.3,67.4
	c-9.1,0.5-17.1,0.9-24.9,1.3c-0.6-12-0.9-23.4-2-34.7c-0.6-5.9-2.5-11.8-4.4-17.4c-0.5-1.6-3.4-2.5-6.8-4.6
	C265.8,138.6,265.4,156.8,265,175.7z M267,57.4c-0.2,9.1-0.4,18.2-0.6,27.3c11.2,0.7,11.8,0.1,12.3-9.1c0-1.4,0.2-3,0.6-4.3
	C282.1,62.8,276.8,56.3,267,57.4z"/>
<path style="fill:#FFFFFF;" d="M344.3,147.1c0-31.3-0.4-59.2,0-87.2c0.3-18.6,14.3-31.9,32.1-31.9c19.6,0.1,34.1,12.3,34.4,30
	c0.5,29.3,0.4,58.6,0,87.9c-0.2,12.1-5.8,21.7-17.1,26.8c-12.2,5.5-24.1,4.3-35.6-2.7C348.1,164,344.7,154.6,344.3,147.1z
	 M387.9,118.6c-0.8-3.8-1.9-7-2-10.2c-0.3-15.5,0-31.1-0.8-46.6c-0.1-2.7-4-7.1-6.4-7.3c-2.5-0.1-6,3.4-7.8,6.1
	c-1.3,2-0.8,5.4-0.8,8.2c-0.3,11.2-0.6,22.4-0.6,33.6c0.1,13.7,0.7,27.5,1,41.2c0.1,5,3.5,6.5,7.7,6.6c4.3,0.1,6.4-2.1,6.4-6.5
	c0-6.4,0.1-12.7,0.7-19C385.6,122.2,387.3,119.9,387.9,118.6z"/>
<path style="fill:#FFFFFF;" d="M593.1,77.2c-9.8,0.5-17.8,1-26.8,1.4c0-5.5,0.3-10.5-0.3-15.4c-0.3-2.6-2.5-5.1-3.8-7.6
	c-2.9,1.9-6.2,3.3-8.6,5.6c-1.1,1.1-0.7,3.9-0.7,5.9c0.2,23.1,0.4,46.3,0.7,69.5c0,2.3-0.6,5.5,0.7,6.6c2.5,2.3,5.9,4.1,9.2,4.9
	c1,0.3,4.1-3.4,4.2-5.5c0.7-7.8,0.5-15.6,0.8-23.9c-8.7,0.4-8.7-4.7-8.6-10.5c0.5-15.8,0.3-15.7,16.8-15.4
	c16.9,0.4,17.1,0.4,16.8,17.2c-0.2,12.2-0.8,24.4-0.8,36.7c-0.1,20.9-18.8,29.5-33.5,28.4c-19.8-1.5-33-17.7-32.6-37.9
	c0.4-24.4,0.6-48.8,0.5-73.3c0-13,3.5-24.3,15.2-31.3c12.4-7.4,25.3-6,37.5,0.8c8.3,4.6,10.8,13.1,11.9,21.8
	C592.7,62.5,592.7,69.8,593.1,77.2z"/>
<path style="fill:#FFFFFF;" d="M921.5,118.9c-2.9-0.8-5-1.4-7.6-2c-0.3-6.5-1-13-0.9-19.6c0-1.6,2.3-4.5,3.8-4.5
	c8.7-0.5,17.3-0.4,26-0.2c1.2,0,3.3,2.1,3.3,3.2c-0.1,18.9,0.5,37.9-1,56.7c-1.1,13.8-18,23.6-32.8,22.6
	c-22.2-1.4-32.1-20.8-32.1-39.1c0-23.7,0.5-47.3,0-71c-0.6-25.8,15.9-40.8,41.2-36.5c13.5,2.3,21.5,10.7,23.5,25.5
	c1,7.4,0.9,15,1.4,23c-8.9,0.5-15.9,0.9-23,1.2c-1,0.1-2-0.2-4.1-0.4c0.1-5.4,0.7-10.6,0.1-15.7c-0.3-2.4-2.6-4.6-4-6.9
	c-2.9,1.8-6.4,3.1-8.6,5.6c-1.4,1.5-0.8,4.9-0.8,7.4c0.2,23.1,0.4,46.3,0.7,69.5c0,1.8-0.4,4.4,0.6,5.1c2.7,2.2,5.9,4.3,9.2,5
	c1,0.3,4.1-3.9,4.3-6.1C921.5,134.1,921.3,126.5,921.5,118.9z"/>
<path style="fill:#FFFFFF;" d="M126.8,119.8c0,18.6,0,36.5,0,54.5c-8,0.4-16.4,0.9-23.3,1.3c-1-18.7-2.5-36.4-2.8-54.1
	c-0.3-23.4,0.4-46.7,0.6-70.1c0.1-5.4,0.3-10.7,0.1-16c-0.2-4.1,1.4-6.3,5.6-6.2c12.5,0.3,25,0,37.4,1.2
	c10.5,0.9,19.8,10.2,20.4,20.5c0.8,13.9,1.3,28.1-0.1,41.9c-1.9,18.6-10.8,25.7-29.5,26.7C132.9,119.4,130.6,119.6,126.8,119.8z
	 M126.8,92c6.5,1.3,12.1,1.9,12.3-5.6c0.4-9.4,0.2-18.8-0.6-28.2c-0.2-1.8-4-4.2-6.3-4.4c-1.5-0.1-4.8,3-4.9,4.9
	C126.8,69.6,126.9,80.6,126.8,92z"/>
<path style="fill:#FFFFFF;" d="M174.4,29.3c19.2,0,37.7,0,56.7,0c0,9.6,0.1,18.8,0.1,28.1c-10.2,0.6-19.6,1.1-29.8,1.6
	c0.5,9,1,18.1,1.5,28.1c6.7,0.3,14,0.5,21.7,0.8c0,8.7,0,16.7,0,24.9c-7.7,0.4-14.7,0.8-23.1,1.2c0.6,10.6,1.1,21.3,1.7,32.5
	c8.9,0.1,18.3,0.2,28.7,0.3c-0.1,9.4-0.1,18.4-0.2,28.3c-19.2,0-38.1,0.1-58.2,0.1C173.9,126.7,174.1,78.2,174.4,29.3z"/>
<path style="fill:#FFFFFF;" d="M311.4,30.4c1.3-0.6,1.8-1,2.2-1.1c26.8-1.3,22.3-3.2,22.5,20.2c0.1,18.4,0.5,36.6,0.6,55
	c0.1,21.1,0,42.3,0.3,63.4c0.1,5.7-2.3,7.8-7.8,7.7c-5.3-0.2-10.6-0.1-16.9-0.2C312,126.8,311.7,78.4,311.4,30.4z"/>
<path style="fill:#FFFFFF;" d="M771.2,174.4c-0.3-49.2-0.6-97-1-145.2c8.1-0.4,15.8-0.9,24.8-1.3c0.4,49,0.7,97.2,1,146.4
	C787.1,174.4,779.5,174.4,771.2,174.4z"/>
</svg>
