<?xml version="1.0" encoding="utf-8"?>
<!-- Generator: Adobe Illustrator 26.1.0, SVG Export Plug-In . SVG Version: 6.00 Build 0)  -->
<svg version="1.1" id="Layer_1" xmlns="http://www.w3.org/2000/svg" xmlns:xlink="http://www.w3.org/1999/xlink" x="0px" y="0px"
	 viewBox="0 0 1056.6 202" style="enable-background:new 0 0 1056.6 202;" xml:space="preserve">
<path style="fill:#FFFFFF;" d="M14.3,153c0-34.7,0-69.4,0-104.1c342.7,0,685.4,0,1028,0c0,34.7,0,69.4,0,104.1
	C699.6,153,357,153,14.3,153z M509.6,133.5c0-13.1,0-26,0-39.4c0.6,0.7,1,1.2,1.4,1.7c9.5,12.2,19,24.4,28.5,36.6
	c0.6,0.8,1.2,1.1,2.2,1.1c3.9-0.1,7.9,0,11.8,0c1.2,0,2.4,0,3.5,0c0-21.7,0-43.2,0-64.7c-5.6,0-11.1,0-16.8,0c0,13,0,25.9,0,39.3
	c-0.8-1-1.3-1.6-1.8-2.3c-9.4-12-18.7-24.1-28.2-36.1c-0.4-0.5-1.3-1-2-1c-4.3-0.1-8.6,0-12.9,0c-0.8,0-1.7,0-2.5,0
	c0,21.7,0,43.2,0,64.7C498.4,133.5,503.8,133.5,509.6,133.5z M74.7,134.9c2-0.3,5.9-0.7,9.7-1.8c13.1-3.9,21.3-12.7,23.7-26.1
	c2.3-12.9-1.7-24-12.2-32.1c-10-7.7-21.5-9.2-33.5-6.1C50,72,41.6,79.7,38.3,92.1c-3.4,12.4-0.5,23.5,8.5,32.7
	C53.8,132,62.9,134.6,74.7,134.9z M871,85.1c-3.5-6.8-8.1-12.1-15.2-15.1c-5.5-2.3-11.3-2.9-17.2-2.5c-8.2,0.6-15.7,3.2-21.6,9
	c-8.3,8.1-11.2,18.1-9.7,29.4c1.6,11.9,8,20.5,19.1,25.4c5.8,2.6,12,3.1,18.2,2.7c9.2-0.6,16.9-4.3,22.7-11.6
	c4.4-5.5,6.2-11.9,6.8-18.8c0.2-2.3,0.3-4.5,0.4-6.9c-11.3,0-22.3,0-33.4,0c0,4.4,0,8.7,0,13.1c2.3,0,4.5,0,6.7,0c2.3,0,4.5,0,6.9,0
	c-0.7,4.2-2.9,7-6.5,8.8c-5.4,2.7-13.1,1.5-17.6-2.5c-8-7.3-8.4-22-0.7-29.7c6.2-6.2,16.7-5.9,22.3,0.8c1.1,1.3,1.8,2.8,2.8,4.3
	C860.3,89.5,865.6,87.3,871,85.1z M677,109.4c0.1,0,0.2,0,0.3-0.1c0.3,0.5,0.7,1,1,1.6c4.6,7.2,9.2,14.4,13.8,21.6
	c0.5,0.8,1,1.1,2,1.1c6.1,0,12.2,0,18.3,0c0.4,0,0.7-0.1,1.3-0.1c-6.7-8.8-13.4-17.5-20.1-26.2c0.7-0.2,1.1-0.4,1.6-0.5
	c4.8-1.5,8.5-4.2,10.5-8.8c3.1-7.4,2.5-14.6-2-21.2c-3.7-5.5-9.3-7.7-15.7-7.8c-8.9-0.1-17.8,0-26.6-0.1c-0.4,0-0.7,0.1-1.1,0.1
	c0,21.6,0,43.1,0,64.6c5.6,0,11.1,0,16.7,0C677,125.4,677,117.4,677,109.4z M225.3,112.1c4.5,0,8.8,0.1,13.1,0
	c9.3-0.3,16.6-5.8,18.5-14.4c0.8-3.5,0.7-7.3,0.6-10.9c-0.1-3.5-1.4-6.8-3.5-9.6c-4.2-5.7-10.1-8.3-17-8.4
	c-9.1-0.1-18.2-0.1-27.3-0.1c-0.4,0-0.7,0-1.1,0.1c0,21.6,0,43.1,0,64.7c5.6,0,11.1,0,16.7,0C225.3,126.4,225.3,119.4,225.3,112.1z
	 M971.6,127.5c0.3,0.3,0.5,0.4,0.8,0.6c7.8,5.3,16.5,7.5,25.8,6.6c12.4-1.1,19.8-8,21.2-19.9c1.1-8.8-2.5-15.3-10.7-18.8
	c-2.9-1.2-6.1-2-9.1-3.1c-1.9-0.7-3.9-1.3-5.7-2.3c-2.5-1.4-2.9-4.4-1.1-6.6c1.3-1.6,3.1-2.3,5.1-2.5c4-0.4,7.5,1,10.8,3.2
	c0.5,0.3,0.9,0.6,1.4,1c2.3-4.5,4.5-8.7,6.7-13c-0.4-0.2-0.7-0.4-1-0.6c-6.5-3.1-13.2-4.9-20.5-4.7c-11.8,0.3-20,7.6-21.1,19.3
	c-0.9,9.7,2.4,15.4,11.6,18.5c2.9,1,5.9,1.8,8.9,2.8c1.7,0.6,3.4,1.2,4.9,2.2c2.6,1.7,3,5,1.1,7.4c-1.3,1.7-3.1,2.4-5.2,2.7
	c-4.5,0.5-8.6-0.7-12.4-3.1c-1.5-0.9-2.9-2.1-4.4-3.2C976.4,118.5,974,123,971.6,127.5z M355.9,68.8c0,21.6,0,43.1,0,64.6
	c12.3,0,24.4,0,36.6,0c0-4.7,0-9.4,0-14.2c-6.7,0-13.3,0-19.8,0c0-3.8,0-7.3,0-11.1c6.3,0,12.5,0,18.7,0c0-4.8,0-9.5,0-14.3
	c-6.3,0-12.5,0-18.7,0c0-3.7,0-7.2,0-10.9c6.7,0,13.2,0,19.9,0c0-4.9,0-9.5,0-14.2C380.3,68.8,368.2,68.8,355.9,68.8z"/>
<path style="fill:#FFFFFF;" d="M54.5,101.5c-0.1-12.8,13-21.2,25.4-16.3c7.9,3.1,12.4,10.8,11.1,18.7c-1.3,8.1-8.4,14.2-16.8,14.5
	c-5.6,0.2-10.5-1.3-14.5-5.2C56.2,110.1,54.5,106.2,54.5,101.5z"/>
<path style="fill:#FFFFFF;" d="M677.2,81.8c2.9-0.1,5.7-0.2,8.4,0.8c3,1.2,4.8,3.8,4.8,7.1c0,3.3-1.7,6.1-4.8,7
	c-2.6,0.8-5.4,0.9-8.3,1.4C677.2,92.5,677.2,87.2,677.2,81.8z"/>
<path style="fill:#FFFFFF;" d="M225.4,98.5c0-5.5,0-10.7,0-16.4c3.2,0.2,6.3,0.2,9.3,0.7c3.1,0.5,4.8,2.6,5.2,5.7
	c0.1,0.9,0.2,1.9,0.2,2.8c-0.2,4-2.4,6.3-6.4,6.9c-0.9,0.1-1.9,0.2-2.8,0.2C229.1,98.6,227.3,98.5,225.4,98.5z"/>
</svg>
