<?xml version="1.0" encoding="utf-8"?>
<!-- Generator: Adobe Illustrator 22.0.0, SVG Export Plug-In . SVG Version: 6.00 Build 0)  -->
<svg version="1.1" id="Layer_1" xmlns="http://www.w3.org/2000/svg" xmlns:xlink="http://www.w3.org/1999/xlink" x="0px" y="0px"
	 viewBox="0 0 192 42.3" style="enable-background:new 0 0 192 42.3;" xml:space="preserve">
<path style="fill:#FFFFFF;" d="M31.8,41.2l13-9.6c0.4-0.3,0.7-0.8,0.7-1.3c0.1-0.5-0.1-1-0.4-1.4l-3.5-4l4.7-7.2
	c0.3-0.5,0.4-1.1,0.2-1.6c-0.2-0.5-0.6-0.9-1.2-1.1l-1.5-0.4l2.6-4.7c0.3-0.6,0.3-1.4-0.2-2c-0.4-0.6-1.2-0.8-1.9-0.6l-4.2,1.1
	l1.3-4.8c0.2-0.6,0-1.3-0.5-1.8c-0.5-0.5-1.2-0.6-1.8-0.4L19.7,7l-0.4-2.8c-0.1-0.7-0.6-1.2-1.2-1.4c-0.6-0.2-1.3-0.1-1.8,0.4
	l-15,13.9c-0.4,0.3-0.6,0.8-0.6,1.3c0,0.5,0.2,1,0.5,1.3l4.1,4.2L1,34.2c-0.2,0.6-0.2,1.2,0.2,1.7s0.9,0.8,1.5,0.8h5.4v2.2
	c0,0.7,0.4,1.3,0.9,1.6c0.6,0.3,1.3,0.3,1.8-0.1l9.8-6.3l-0.1,4.2c0,0.6,0.3,1.2,0.9,1.6c0.5,0.3,1.2,0.4,1.8,0.1l5.2-2.8l0.5,2.9
	c0.1,0.6,0.5,1.1,1.1,1.4c0.2,0.1,0.5,0.1,0.7,0.1C31.1,41.6,31.5,41.5,31.8,41.2L31.8,41.2z M5.1,18.5l1.1-1.1
	c0.3,0.3,0.7,0.5,1.2,0.5h0.8v3.8L5.1,18.5z M22.2,25c0,0.9-0.7,1.7-1.7,1.7s-1.7-0.8-1.7-1.7v-5.6c0-0.9,0.7-1.7,1.7-1.7
	s1.7,0.8,1.7,1.7V25z M29.8,32.5c-0.3,0-0.6,0.1-0.9,0.2l-4.7,2.5l0.1-4.5c0-0.6-0.3-1.1-0.7-1.5c1.3-1,2.2-2.5,2.2-4.3v-5.6
	c0-2.9-2.4-5.3-5.3-5.3s-5.3,2.4-5.3,5.3V25c0,2.7,2,5,4.6,5.3l-8.2,5.3v-0.7c0-1-0.8-1.8-1.8-1.8H5.4l2.8-6.7v1.9
	c0,1,0.8,1.8,1.8,1.8s1.8-0.8,1.8-1.8V16.1c0-1-0.8-1.8-1.8-1.8H9.6l6.6-6.1l0.2,1.5c0.1,0.5,0.4,1,0.8,1.3c0.4,0.3,1,0.4,1.5,0.2
	l18.4-5.4l-1.3,4.6c-0.2,0.6,0,1.3,0.4,1.7c0.4,0.5,1.1,0.7,1.7,0.5l3.3-0.8l-1.7,3.1c-0.3,0.5-0.3,1-0.1,1.6c0.2,0.5,0.6,0.9,1.2,1
	l1.3,0.4l-2,3v-1.5c0-2.9-2.4-5.3-5.3-5.3s-5.3,2.4-5.3,5.3V25c0,2.9,2.4,5.3,5.3,5.3c1.9,0,3.6-1,4.5-2.6l1.8,2.1L32,36.6l-0.4-2.5
	c-0.1-0.6-0.5-1.1-1-1.3C30.4,32.6,30.1,32.5,29.8,32.5L29.8,32.5z M36.4,19.4V25c0,0.9-0.7,1.7-1.7,1.7c-0.9,0-1.7-0.8-1.7-1.7
	v-5.6c0-0.9,0.7-1.7,1.7-1.7C35.7,17.6,36.4,18.4,36.4,19.4z"/>
<g>
	<path style="fill:#FFFFFF;" d="M55.2,27.2c0.1,0.2,0.1,0.4-0.2,0.4h-1.8c-0.3,0-0.4-0.2-0.6-0.4l-3-4.2h-0.3v4.2
		c0,0.3-0.1,0.4-0.4,0.4h-1.4c-0.3,0-0.4-0.1-0.4-0.4V17.1c0-0.3,0.1-0.4,0.4-0.4h1.4c0.3,0,0.4,0.1,0.4,0.4v4.3h0.3l2.9-4.3
		c0.1-0.2,0.4-0.4,0.6-0.4h1.5c0.3,0,0.3,0.2,0.2,0.4l-3.4,5L55.2,27.2z"/>
	<path style="fill:#FFFFFF;" d="M60.3,16.7c0.3,0,0.4,0.1,0.5,0.4l3,10.1c0.1,0.3,0,0.4-0.3,0.4h-1.4c-0.3,0-0.4-0.1-0.5-0.4l-0.6-2
		h-3l-0.6,2c-0.1,0.3-0.2,0.4-0.5,0.4h-1.3c-0.3,0-0.4-0.1-0.3-0.4l3-10.1c0.1-0.3,0.2-0.4,0.5-0.4H60.3z M60,21.8
		c-0.2-0.7-0.5-2.7-0.5-2.9c0,0.2-0.3,2.2-0.5,2.9l-0.5,1.8h2L60,21.8z"/>
	<path style="fill:#FFFFFF;" d="M70.6,16.7c0.3,0,0.4,0.1,0.4,0.4v1c0,0.1,0,0.2-0.1,0.3l-4.1,7.4h4.1c0.3,0,0.4,0.1,0.4,0.4v1
		c0,0.3-0.1,0.4-0.4,0.4h-6.3c-0.3,0-0.4-0.1-0.4-0.4v-1c0-0.1,0-0.2,0.1-0.3l4.1-7.4h-3.5c-0.3,0-0.4-0.1-0.4-0.4v-1
		c0-0.3,0.1-0.4,0.4-0.4H70.6z"/>
	<path style="fill:#FFFFFF;" d="M74.5,27.2c0,0.3-0.1,0.4-0.4,0.4h-1.4c-0.3,0-0.4-0.1-0.4-0.4V17.1c0-0.3,0.1-0.4,0.4-0.4h1.4
		c0.3,0,0.4,0.1,0.4,0.4V27.2z"/>
	<path style="fill:#FFFFFF;" d="M87.1,27.2c0.1,0.2,0.1,0.4-0.2,0.4h-1.8c-0.3,0-0.4-0.2-0.6-0.4l-3-4.2h-0.3v4.2
		c0,0.3-0.1,0.4-0.4,0.4h-1.4c-0.3,0-0.4-0.1-0.4-0.4V17.1c0-0.3,0.1-0.4,0.4-0.4h1.4c0.3,0,0.4,0.1,0.4,0.4v4.3h0.3l2.9-4.3
		c0.1-0.2,0.4-0.4,0.6-0.4h1.5c0.3,0,0.3,0.2,0.2,0.4l-3.4,5L87.1,27.2z"/>
	<path style="fill:#FFFFFF;" d="M92.3,16.7c0.3,0,0.4,0.1,0.5,0.4l3,10.1c0.1,0.3,0,0.4-0.3,0.4H94c-0.3,0-0.4-0.1-0.5-0.4l-0.6-2
		h-3l-0.6,2c-0.1,0.3-0.2,0.4-0.5,0.4h-1.3c-0.3,0-0.4-0.1-0.3-0.4l3-10.1c0.1-0.3,0.2-0.4,0.5-0.4H92.3z M92,21.8
		c-0.2-0.7-0.5-2.7-0.5-2.9c0,0.2-0.3,2.2-0.5,2.9l-0.5,1.8h2L92,21.8z"/>
	<path style="fill:#FFFFFF;" d="M102.5,16.7c0.3,0,0.4,0.1,0.4,0.4v1c0,0.1,0,0.2-0.1,0.3l-4.1,7.4h4.1c0.3,0,0.4,0.1,0.4,0.4v1
		c0,0.3-0.1,0.4-0.4,0.4h-6.3c-0.3,0-0.4-0.1-0.4-0.4v-1c0-0.1,0-0.2,0.1-0.3l4.1-7.4h-3.5c-0.3,0-0.4-0.1-0.4-0.4v-1
		c0-0.3,0.1-0.4,0.4-0.4H102.5z"/>
	<path style="fill:#FFFFFF;" d="M108.3,16.7c0.3,0,0.4,0.1,0.5,0.4l3,10.1c0.1,0.3,0,0.4-0.3,0.4h-1.4c-0.3,0-0.4-0.1-0.5-0.4
		l-0.6-2h-3l-0.6,2c-0.1,0.3-0.2,0.4-0.5,0.4h-1.3c-0.3,0-0.4-0.1-0.3-0.4l3-10.1c0.1-0.3,0.2-0.4,0.5-0.4H108.3z M108.1,21.8
		c-0.2-0.7-0.5-2.7-0.5-2.9c0,0.2-0.3,2.2-0.5,2.9l-0.5,1.8h2L108.1,21.8z"/>
	<path style="fill:#FFFFFF;" d="M120.6,27.2c0,0.3-0.1,0.4-0.4,0.4H119c-0.2,0-0.3,0-0.4-0.2l-3.1-5.3c-0.4-0.7-0.6-1.3-0.6-1.3v6.4
		c0,0.3-0.1,0.4-0.4,0.4h-1.3c-0.3,0-0.4-0.1-0.4-0.4V17.1c0-0.3,0.1-0.4,0.4-0.4h1.3c0.2,0,0.3,0,0.3,0.2l3.2,5.5
		c0.3,0.5,0.5,1.1,0.5,1.1v-6.4c0-0.3,0.1-0.4,0.4-0.4h1.3c0.3,0,0.4,0.1,0.4,0.4V27.2z"/>
	<path style="fill:#FFFFFF;" d="M125,19.2c0-1.4,1-2.6,3.9-2.6c2.9,0,3.9,1.3,3.9,2.6v6c0,1.4-1,2.6-3.9,2.6c-2.9,0-3.9-1.3-3.9-2.6
		V19.2z M130.7,19.6c0-0.8-0.7-1.2-1.7-1.2c-1.1,0-1.7,0.4-1.7,1.2v5.2c0,0.8,0.6,1.2,1.7,1.2c1.1,0,1.7-0.4,1.7-1.2V19.6z"/>
	<path style="fill:#FFFFFF;" d="M137.3,20.8c0.1,0.3,0.3,0.8,0.3,0.9c0-0.1,0.2-0.6,0.3-0.9l1.7-3.7c0.1-0.2,0.2-0.4,0.5-0.4h1.4
		c0.3,0,0.4,0.1,0.3,0.4l-3,6.4v3.8c0,0.3-0.1,0.4-0.4,0.4h-1.4c-0.3,0-0.4-0.1-0.4-0.4v-3.5l-3.1-6.6c-0.1-0.2,0-0.4,0.3-0.4h1.6
		c0.3,0,0.4,0.2,0.5,0.4L137.3,20.8z"/>
	<path style="fill:#FFFFFF;" d="M144.7,24.8c0,0.8,0.6,1.2,1.7,1.2s1.8-0.4,1.8-1.2v-7.6c0-0.3,0.1-0.4,0.4-0.4h1.4
		c0.3,0,0.4,0.1,0.4,0.4v8c0,1.4-1,2.6-3.9,2.6s-3.9-1.3-3.9-2.6v-8c0-0.3,0.1-0.4,0.4-0.4h1.4c0.3,0,0.4,0.1,0.4,0.4V24.8z"/>
	<path style="fill:#FFFFFF;" d="M159.9,27.2c0,0.3-0.1,0.4-0.4,0.4h-1.3c-0.2,0-0.3,0-0.4-0.2l-3.1-5.3c-0.4-0.7-0.6-1.3-0.6-1.3
		v6.4c0,0.3-0.1,0.4-0.4,0.4h-1.3c-0.3,0-0.4-0.1-0.4-0.4V17.1c0-0.3,0.1-0.4,0.4-0.4h1.3c0.2,0,0.3,0,0.3,0.2l3.2,5.5
		c0.3,0.5,0.5,1.1,0.5,1.1v-6.4c0-0.3,0.1-0.4,0.4-0.4h1.3c0.3,0,0.4,0.1,0.4,0.4V27.2z"/>
	<path style="fill:#FFFFFF;" d="M163.9,25.8h3.6c0.3,0,0.4,0.1,0.4,0.4v1c0,0.3-0.1,0.4-0.4,0.4h-5.4c-0.2,0-0.3-0.1-0.3-0.4V17.1
		c0-0.3,0.1-0.4,0.4-0.4h1.4c0.3,0,0.4,0.1,0.4,0.4V25.8z"/>
	<path style="fill:#FFFFFF;" d="M173.1,16.7c0.3,0,0.4,0.1,0.5,0.4l3,10.1c0.1,0.3,0,0.4-0.3,0.4h-1.4c-0.3,0-0.4-0.1-0.5-0.4
		l-0.6-2h-3l-0.6,2c-0.1,0.3-0.2,0.4-0.5,0.4h-1.3c-0.3,0-0.4-0.1-0.3-0.4l3-10.1c0.1-0.3,0.2-0.4,0.5-0.4H173.1z M172.8,21.8
		c-0.2-0.7-0.5-2.7-0.5-2.9c0,0.2-0.3,2.2-0.5,2.9l-0.5,1.8h2L172.8,21.8z"/>
	<path style="fill:#FFFFFF;" d="M179.7,23.5v3.7c0,0.3-0.1,0.4-0.4,0.4h-1.4c-0.3,0-0.4-0.1-0.4-0.4V17.1c0-0.3,0.1-0.4,0.4-0.4h3.4
		c2.9,0,3.9,1.3,3.9,2.6v1.5c0,0.9-0.5,1.8-1.8,2.3l1.7,4.1c0.1,0.3-0.1,0.4-0.4,0.4h-1.4c-0.2,0-0.3-0.2-0.4-0.4l-1.6-3.7h-0.1
		H179.7z M179.7,18.5v3.2h1.6c1.1,0,1.7-0.4,1.7-1.2v-0.8c0-0.8-0.7-1.2-1.7-1.2H179.7z"/>
	<path style="fill:#FFFFFF;" d="M189,27.2c0,0.3-0.1,0.4-0.4,0.4h-1.4c-0.3,0-0.4-0.1-0.4-0.4V17.1c0-0.3,0.1-0.4,0.4-0.4h1.4
		c0.3,0,0.4,0.1,0.4,0.4V27.2z"/>
</g>
</svg>
