<?xml version="1.0" encoding="utf-8"?>
<!-- Generator: Adobe Illustrator 24.1.2, SVG Export Plug-In . SVG Version: 6.00 Build 0)  -->
<svg version="1.1" id="Layer_1" xmlns="http://www.w3.org/2000/svg" xmlns:xlink="http://www.w3.org/1999/xlink" x="0px" y="0px"
	 viewBox="0 0 1056.6 295" style="enable-background:new 0 0 1056.6 295;" xml:space="preserve">
<style type="text/css">
	.st0{fill:#FFFFFF;}
	.st1{enable-background:new    ;}
</style>
<g>
	<path class="st0" d="M69.4,148.2c0.3,44.3,32.6,79.5,77.1,84.2c7.6,0.8,17.9-0.1,17.1,11.3c-0.9,11.6-11.4,8.7-18.7,8.4
		c-47-2.3-87.7-41.5-94.6-90.8c-6.6-47.2,22-94.5,66.9-110.8c32.4-11.7,63.3-9,92.7,9.1c2.3,1.4,4.5,3.1,6.8,4.7
		c5.9,4.2,9.8,9.4,4.6,16.3c-5,6.6-10.3,3-16.2,0c-12.1-6.1-24.4-13.4-37.4-15.8C116.4,55.1,69.1,96.1,69.4,148.2z"/>
	<path class="st0" d="M457.9,146.9c0.1,35.8-25.2,61.9-59.9,62.1c-34.6,0.2-60.3-26-60.5-61.6c-0.2-35.6,25.2-61.8,60-61.9
		C432.7,85.5,457.9,111.1,457.9,146.9z M437.4,147.1c-0.1-25.6-16.3-43-39.9-42.8c-23,0.1-39.3,17.6-39.3,42.4
		c0,25.5,16.3,43.5,39.3,43.5C421,190.1,437.5,172.2,437.4,147.1z"/>
	<path class="st0" d="M223.4,153.1c-0.2,13.6-6.8,30.3-20.5,44.1c-5.3,5.3-11.4,9.2-17.8,2.8c-6.3-6.3-1.6-11.5,3.3-16.5
		c20-20.7,20.4-49.9,1.2-70.1c-17.8-18.9-46.8-20.6-67.1-4.1c-22.4,18.3-24.3,52.4-4.2,73c1.2,1.2,2.4,2.4,3.7,3.6
		c4.9,4.7,6.5,10.1,1.5,15.3c-5,5.1-10.5,3.3-15.6-0.9c-22.1-18-29.9-53.6-17.6-80.6C104.3,89.3,136,73,168.2,79.7
		C200.5,86.5,223.4,114.6,223.4,153.1z"/>
	<path class="st0" d="M153.6,287C79,286.7,17.1,226.7,16.5,153.6c0-4.3,1.4-10.1,4.3-12.6c6.5-5.6,14.5,0.4,14.9,10.8
		c0.7,23.5,7.6,45,21.1,64.4c37.6,54.4,111.6,67.5,165.7,29.5c0.8-0.6,1.6-1.2,2.5-1.9c6.1-4.6,12.9-10.7,19.3-1.8
		c6.5,9-2.2,13.5-7.9,17.9C213.5,277.5,183.5,287.1,153.6,287z"/>
	<path class="st0" d="M154.1,8.5C228.3,9.6,290,69.7,291.3,143.3c0.1,7.4-1.7,13.8-10.1,13.7c-7.8,0-9.5-6.2-9.9-13.1
		C268,66.9,199.3,15.3,124,33.2c-6.9,1.6-13.8,2.2-16.1-6c-2.3-8.3,3.6-11.9,10.7-13.2C130.4,11.9,142.3,10.3,154.1,8.5z"/>
	<path class="st0" d="M985.3,206.4c-7,0-12.5,0-18.8,0c0-40,0-79.8,0-120.3c5.8,0,11.8,0,18.5,0c0,14.5,0,28.8,0,42.7
		c8.3-2.2,15.9-5.4,23.7-5.9c15.7-1,27.5,9,28.4,24.8c1,19.3,0.2,38.7,0.2,58.5c-6.1,0-11.5,0-18.5,0c0-16.4,0.3-32.7-0.1-49
		c-0.3-13-9.4-19.5-21.5-16.1c-9.1,2.6-11.8,9.8-11.8,18.3C985.2,174.8,985.3,190.1,985.3,206.4z"/>
	<path class="st0" d="M628.8,171c-19.4,0-38.2,0-58.1,0c0.1,10.5,5.3,16.4,13.8,19.8c10.9,4.4,19.4,0.9,29.3-12.4
		c4.6,1.5,9.6,3.1,14.6,4.8c-6.8,20.7-26.9,30.4-48.2,24.1c-22-6.5-34.1-29.3-28.1-53.3c5.5-22.2,25.1-35,47.4-30.8
		C620.6,127.2,632.6,146,628.8,171z M571.7,156.2c12.7,0,25.3,0,38.1,0c-1.9-12.1-7.9-17.4-19-17.4
		C580,138.9,573.6,144.5,571.7,156.2z"/>
	<path class="st0" d="M785.9,166.8c-0.3,25-18.6,42.7-43.3,42.2c-23.9-0.5-41.2-19-40.9-43.8c0.3-25.3,18.1-42.9,42.9-42.6
		C769.2,123,786.3,141.2,785.9,166.8z M721.2,166.4c0.2,14.8,9.7,25.4,22.7,25.3c13.4,0,22.8-11,22.7-26.4
		c-0.2-15-9.6-25.3-22.7-25.1C729.9,140.3,721,150.7,721.2,166.4z"/>
	<path class="st0" d="M848.2,125.4c6.5,0,12.2,0,18.7,0c0,26.9,0,53.4,0,80.7c-6.5-0.9-14.8,5.5-18.1-2.8c-9.5,1.9-18.7,5.4-27.6,5
		c-14.9-0.7-25.2-12.7-25.7-28.4c-0.6-17.8-0.1-35.5-0.1-54.1c6,0,11.6,0,19.1,0c0,7.4,0,15,0,22.7c0,9.2-0.3,18.5,0.4,27.7
		c0.9,10.5,7.2,15.6,17,15.2c9.7-0.4,15.5-6.2,15.8-16.5c0.3-13,0-26,0.1-39C847.7,132.5,848,129.1,848.2,125.4z"/>
	<path class="st0" d="M488.7,206.3c-6.8,0-12.2,0-18.4,0c0-26.8,0-53.3,0-81.1c6.5,1.9,15.7-6.3,19.1,7.1c1-0.6,2.2-1.2,3.2-2
		c9.8-8.6,21-9.9,32.6-5c11.5,4.8,16,14.9,16.3,26.5c0.6,17.8,0.2,35.5,0.2,54.1c-6.3,0-12.3,0-19.5,0c0-15.7,0.2-31.4-0.1-47.1
		c-0.2-12.5-5.6-18.2-16-18.3c-10.9-0.1-17.1,6.6-17.4,19.7C488.5,175.2,488.7,190.2,488.7,206.3z"/>
	<path class="st0" d="M658.8,206.1c0-33.3,0-65.7,0-99.3c-13.1,0-25.2,0-37.9,0c0-6.8,0-12.4,0-18.5c32.2,0,63.9,0,96.1,0
		c0,5.8,0,11.2,0,18c-12.1,0-24.6,0-38.2,0c0,34,0,66.7,0,99.9C672,206.1,666.3,206.1,658.8,206.1z"/>
	<path class="st0" d="M955.5,149.4c-5.5,2-10.3,3.8-14.9,5.5c-13.4-16-26.4-18.7-36.8-8c-9.8,10-9.3,29.9,1.1,39.1
		c10.8,9.6,24.7,6.4,36.1-9.1c5,1.9,10.2,3.8,15.4,5.8c-7,19.8-25.2,30-45.2,25.9c-21.1-4.3-34.7-22.7-33.7-45.2
		c1-21.3,15.7-38,35.5-40.3C934,120.4,950.2,130.2,955.5,149.4z"/>
	<path class="st0" d="M258.4,152.2c-1.8,31.8-14.7,58-39.7,78c-5.6,4.5-11.6,7.3-17,0.5c-5.1-6.4-1.2-11.5,4.1-15.7
		c20.4-16.4,31.3-37.7,33-63.6c0.5-7,1.7-13.7,10.8-12.9C257.5,139.3,258.8,145.4,258.4,152.2z"/>
	<g class="st1">
		<path class="st0" d="M360.5,239.4h6.8c4.1,0,6.6,2.3,6.6,5.8v0c0,3.9-3.1,5.9-6.9,5.9h-3.4v5.6h-3V239.4z M367.1,248.4
			c2.3,0,3.7-1.3,3.7-3.1v0c0-2.1-1.5-3.1-3.7-3.1h-3.5v6.2H367.1z"/>
		<path class="st0" d="M386,239.4h7.7c2.2,0,3.9,0.6,5,1.7c0.9,1,1.4,2.2,1.4,3.7v0c0,2.8-1.7,4.6-4.1,5.2l4.7,6.6h-3.6l-4.3-6H389
			v6h-3V239.4z M393.5,248c2.2,0,3.6-1.1,3.6-2.9v0c0-1.9-1.3-2.9-3.6-2.9H389v5.8H393.5z"/>
		<path class="st0" d="M412.8,239.4h12.8v2.7h-9.8v4.5h8.7v2.7h-8.7v4.6h9.9v2.7h-13V239.4z"/>
		<path class="st0" d="M438.4,239.4h3.2l5.3,8.2l5.3-8.2h3.2v17.3h-3v-12.4l-5.5,8.2h-0.1l-5.4-8.1v12.4h-3V239.4z"/>
		<path class="st0" d="M469,239.4h3v17.3h-3V239.4z"/>
		<path class="st0" d="M485.4,249.3v-10h3v9.8c0,3.2,1.6,4.9,4.4,4.9c2.7,0,4.4-1.6,4.4-4.8v-10h3v9.8c0,5.2-2.9,7.8-7.4,7.8
			C488.3,257,485.4,254.4,485.4,249.3z"/>
		<path class="st0" d="M513.4,239.4h3.2l5.3,8.2l5.3-8.2h3.2v17.3h-3v-12.4l-5.5,8.2h-0.1l-5.4-8.1v12.4h-3V239.4z"/>
		<path class="st0" d="M560.2,239.4h3.2l5.3,8.2l5.3-8.2h3.2v17.3h-3v-12.4l-5.5,8.2h-0.1l-5.4-8.1v12.4h-3V239.4z"/>
		<path class="st0" d="M589.9,248.1L589.9,248.1c0-4.9,3.8-9,9.1-9c5.3,0,9,4,9,8.9v0c0,4.8-3.8,9-9.1,9
			C593.6,257,589.9,252.9,589.9,248.1z M604.8,248.1L604.8,248.1c0-3.4-2.4-6.2-5.9-6.2c-3.4,0-5.8,2.7-5.8,6.1v0
			c0,3.4,2.4,6.1,5.9,6.1C602.4,254.2,604.8,251.4,604.8,248.1z"/>
		<path class="st0" d="M620.7,239.4h7.8c2,0,3.5,0.5,4.5,1.5c0.8,0.8,1.2,1.7,1.2,2.9v0c0,2.1-1.2,3.2-2.5,3.9
			c2.1,0.7,3.4,1.8,3.4,4.2v0c0,3.1-2.5,4.7-6.4,4.7h-8V239.4z M631.1,244.3c0-1.4-1.1-2.2-3-2.2h-4.4v4.6h4.2
			C629.8,246.7,631.1,245.9,631.1,244.3L631.1,244.3z M632.1,251.6c0-1.5-1.2-2.3-3.6-2.3h-4.8v4.7h5
			C630.8,254,632.1,253.2,632.1,251.6L632.1,251.6z"/>
		<path class="st0" d="M647.7,239.4h3v17.3h-3V239.4z"/>
		<path class="st0" d="M664.3,239.4h3v14.5h9.1v2.8h-12.1V239.4z"/>
		<path class="st0" d="M688.6,239.4h12.8v2.7h-9.8v4.5h8.7v2.7h-8.7v4.6h9.9v2.7h-13V239.4z"/>
		<path class="st0" d="M729.8,248.1L729.8,248.1c0-4.9,3.7-9,8.9-9c3,0,4.9,0.8,6.7,2.4l-1.9,2.3c-1.3-1.1-2.7-1.8-4.8-1.8
			c-3.2,0-5.6,2.8-5.6,6.1v0c0,3.6,2.3,6.2,5.9,6.2c1.7,0,3.1-0.5,4.2-1.3v-3.2h-4.4V247h7.4v7.3c-1.7,1.5-4.2,2.7-7.2,2.7
			C733.3,257,729.8,253.1,729.8,248.1z"/>
		<path class="st0" d="M765.1,239.2h2.8l7.6,17.4h-3.2l-1.8-4.2h-8.2l-1.8,4.2h-3.1L765.1,239.2z M769.4,249.8l-3-6.9l-3,6.9H769.4z
			"/>
		<path class="st0" d="M787.4,239.4h3.2l5.3,8.2l5.3-8.2h3.2v17.3h-3v-12.4l-5.5,8.2h-0.1l-5.4-8.1v12.4h-3V239.4z"/>
		<path class="st0" d="M817.9,239.4h12.8v2.7h-9.8v4.5h8.7v2.7h-8.7v4.6h9.9v2.7h-13V239.4z"/>
		<path class="st0" d="M842.3,254.2l1.8-2.2c1.7,1.5,3.3,2.3,5.5,2.3c1.9,0,3.1-0.9,3.1-2.2v0c0-1.2-0.7-1.9-3.9-2.6
			c-3.7-0.9-5.8-2-5.8-5.2v0c0-3,2.5-5,5.9-5c2.5,0,4.5,0.8,6.3,2.2l-1.6,2.3c-1.6-1.2-3.1-1.8-4.7-1.8c-1.8,0-2.8,0.9-2.8,2.1v0
			c0,1.3,0.8,1.9,4.1,2.7c3.6,0.9,5.5,2.2,5.5,5.1v0c0,3.3-2.5,5.2-6.2,5.2C846.8,256.9,844.4,256,842.3,254.2z"/>
	</g>
</g>
</svg>
