<?xml version="1.0" encoding="utf-8"?>
<!-- Generator: Adobe Illustrator 26.1.0, SVG Export Plug-In . SVG Version: 6.00 Build 0)  -->
<svg version="1.1" id="Layer_1" xmlns="http://www.w3.org/2000/svg" xmlns:xlink="http://www.w3.org/1999/xlink" x="0px" y="0px"
	 viewBox="0 0 1052.4 365.2" style="enable-background:new 0 0 1052.4 365.2;" xml:space="preserve">
<path style="fill:#FFFFFF;" d="M328,191.2v30.7h-25.6v-98.9h43.3c21.4,0,35.9,12,35.9,34.1s-14.6,34-36,34L328,191.2L328,191.2z
	 M343,144.8H328v24.8H343c9.3,0,13.5-5,13.5-12.4S352.3,144.8,343,144.8L343,144.8z"/>
<path style="fill:#FFFFFF;" d="M418.3,221.9H393V117.3h25.2V221.9z"/>
<path style="fill:#FFFFFF;" d="M470.5,178.3c0-5.6-5.2-9.6-15.5-9.6c-6.9,0-14,1.7-19.8,5.2v-20.3c6-3.2,15.6-5.6,25.9-5.6
	c21.4,0,33.7,10.2,33.7,29.3v44.7h-24.3v-3.7c-2.4,2.4-9.3,5-17.1,5c-14.3,0-26.5-8-26.5-23.4c0-14,12.2-23,27.8-23
	c6.1,0,12.9,1.9,15.8,4V178.3L470.5,178.3z M470.5,197.4c-1.6-3-5.6-5-10.2-5c-5,0-10,2.1-10,6.9c0,4.9,5,7.1,10,7.1
	c4.5,0,8.5-1.9,10.2-4.9V197.4L470.5,197.4z"/>
<path style="fill:#FFFFFF;" d="M517.3,247.5l10.6-27.4l-27-70.7h26.2l13.8,41.2l13.5-41.2h25.1l-37.3,98L517.3,247.5L517.3,247.5z"
	/>
<path style="fill:#FFFFFF;" d="M651.4,200.8L626,165.4v56.6h-25.2v-98.8h23.9l27,40.3l27.2-40.3h23.8v98.8h-25.4v-56.6l-25.2,35.4
	L651.4,200.8L651.4,200.8z"/>
<path style="fill:#FFFFFF;" d="M756.7,177.8c0-5.6-5.2-9.6-15.5-9.6c-6.9,0-14,1.7-19.8,5.2v-20.3c6-3.2,15.6-5.6,25.9-5.6
	c21.4,0,33.7,10.2,33.7,29.3v44.7h-24.3v-3.7c-2.4,2.4-9.3,5-17.1,5c-14.3,0-26.5-8-26.5-23.4c0-14,12.2-23,27.8-23
	c6.1,0,12.9,1.9,15.8,4V177.8L756.7,177.8z M756.7,196.9c-1.6-3-5.6-5-10.2-5c-5,0-10,2.1-10,6.9c0,4.9,5,7.1,10,7.1
	c4.5,0,8.5-1.9,10.2-4.9V196.9L756.7,196.9z"/>
<path style="fill:#FFFFFF;" d="M826.5,222.1h-25.1v-52.8h-12.6v-19.6h12.6v-19.9h25.1v19.9h14.2v19.6h-14.2V222.1z"/>
<path style="fill:#FFFFFF;" d="M899.9,173.7c-3-1.6-6.5-2.3-10.5-2.3c-6.9,0-11.6,3-12.9,8.2v42.5h-25.2v-72.4h25.2v6.5
	c3.6-4.9,9.2-8,16.4-8c3.2,0,5.8,0.6,6.9,1.3V173.7L899.9,173.7z"/>
<path style="fill:#FFFFFF;" d="M922.7,143.6c-7.7,0-14.3-5.3-14.3-13.5s6.6-13.7,14.3-13.7c7.7,0,14.3,5.3,14.3,13.7
	S930.4,143.6,922.7,143.6z M935.3,222.1H910v-72.4h25.2V222.1z"/>
<path style="fill:#FFFFFF;" d="M995.6,185.1l25.4,37h-27.4l-12.4-18.8l-12.4,18.8h-26.1l25.2-36.9l-24.1-35.6H971l11.3,17.4
	l11.5-17.4h26.1L995.6,185.1L995.6,185.1z"/>
<path style="fill:#FFFFFF;" d="M159.2,60.6c-65,0-117.6,52.6-117.6,117.6s52.6,117.6,117.6,117.6s117.6-52.7,117.6-117.6
	S224.1,60.6,159.2,60.6 M122.8,273.5c-18.1,8.9-46.5-11.7-63.4-46s-16-69.4,2.1-78.3s46.5,11.7,63.4,46S140.9,264.6,122.8,273.5
	 M89,106.3c0-22.1,31.4-40,70.3-40s70.3,17.9,70.3,40s-31.4,40-70.3,40S89,128.4,89,106.3 M176.4,274.2
	c-19.3-13.5-17.1-49.9,4.9-81.1s55.4-45.7,74.7-32.2c19.3,13.5,17.1,49.9-4.9,81.1S195.7,287.7,176.4,274.2"/>
<path style="fill:#FFFFFF;" d="M206.3,98c2.8,1.9,2.2,5-1.4,6.9c-3.6,1.9-8.9,2-11.8,0.1c-0.3-0.2-0.5-0.4-0.7-0.6l0,0l-18.9,0.1
	c-0.9,1-2.2,2.1-3.8,2.9c-1.5,0.8-3.2,1.4-4.9,1.8l-2.8,11.6c0.3,0.1,0.6,0.3,0.9,0.5c3,2,2.3,5.3-1.7,7.4s-9.8,2.3-12.8,0.3
	c-3-2-2.2-5.4,1.9-7.5c0.4-0.2,0.8-0.4,1.2-0.5l0,0l2.8-11.5c-1.7-0.4-3.4-1-4.7-1.8c-1.2-0.8-2-1.6-2.5-2.6l-20.6,0.1
	c-0.3,0.2-0.7,0.4-1.1,0.6c-4.2,2.1-10.2,2.1-13.3,0.1c-3.1-2.1-2.1-5.4,2.1-7.4c4.2-2,10.1-2,13.1,0c0.3,0.2,0.5,0.4,0.8,0.6h20.1
	c1-1.1,2.3-2.1,4-2.9c1.6-0.8,3.2-1.4,5-1.7l2.7-11.1c-0.3-0.1-0.6-0.3-0.9-0.5c-2.9-1.9-2.1-5,1.7-6.9c3.8-1.8,9.2-1.7,12.1,0.2
	c2.8,1.9,2.2,5-1.6,6.8c-0.3,0.2-0.7,0.3-1.1,0.5l0,0l-2.5,10.8c1.7,0.4,3.2,1,4.5,1.8c1.2,0.8,1.9,1.6,2.5,2.5h19.1
	c0.3-0.2,0.6-0.4,1-0.6C198.3,96.1,203.5,96.1,206.3,98L206.3,98z"/>
</svg>
