<?xml version="1.0" encoding="utf-8"?>
<!-- Generator: Adobe Illustrator 25.3.1, SVG Export Plug-In . SVG Version: 6.00 Build 0)  -->
<svg version="1.1" id="Layer_1" xmlns="http://www.w3.org/2000/svg" xmlns:xlink="http://www.w3.org/1999/xlink" x="0px" y="0px"
	 viewBox="0 0 358.8 60.6" style="enable-background:new 0 0 358.8 60.6;" xml:space="preserve">
<path style="fill:#FFFFFF;" d="M184.22,18.35c-0.19,1.73-0.34,3.47-0.57,5.2c-0.44,3.45-0.93,6.89-1.39,10.33
	c-0.08,0.59-0.23,0.98-0.99,0.94c-2.75-0.16-5.51-0.28-8.26-0.33c-0.88-0.02-1.25-0.29-1.44-1.16c-1.61-7.38-3.27-14.75-4.9-22.13
	c-0.54-2.44-1.05-4.88-1.59-7.39c0.32-0.05,0.56-0.12,0.8-0.12c2.51-0.01,5.02,0.01,7.53-0.02c0.63-0.01,0.85,0.2,0.95,0.83
	c0.8,5.6,1.64,11.2,2.46,16.79c0.11,0.77,0.15,1.55,0.25,2.6c1.08-6.88,2.13-13.49,3.17-20.14c2.77,0,5.36,0,8.19,0
	c1.09,6.51,2.19,13.05,3.29,19.59c0.05,0.01,0.09,0.02,0.14,0.03c0.05-0.43,0.09-0.86,0.15-1.29c0.65-4.83,1.29-9.65,1.95-14.48
	c0.14-1.06,0.29-2.13,0.51-3.18c0.06-0.28,0.43-0.71,0.67-0.72c2.72-0.04,5.45-0.01,8.17,0c0.06,0,0.12,0.07,0.27,0.16
	c-0.4,2.02-0.81,4.08-1.22,6.14c-0.96,4.77-1.92,9.54-2.88,14.31c-0.69,3.44-1.37,6.88-2.11,10.32c-0.06,0.26-0.49,0.62-0.75,0.62
	c-2.83-0.04-5.66-0.14-8.49-0.23c-0.59-0.02-0.97-0.2-1.09-0.91c-0.72-4.49-1.5-8.97-2.24-13.45c-0.13-0.76-0.19-1.54-0.28-2.31
	C184.42,18.35,184.32,18.35,184.22,18.35z"/>
<path style="fill:#FFFFFF;" d="M100.77,23.23c0,2.83,0,5.66,0,8.35c-3.04,0-5.96,0-8.98,0c0-9.39,0-18.57,0-27.9
	c1.36,0,2.71,0,4.06,0c1.36,0,2.73,0.04,4.09-0.02c0.79-0.03,1.06,0.2,1.04,1.02c-0.1,3.97-0.14,7.95-0.2,11.93
	c0,0.26,0.03,0.52,0.24,0.81c0.83-2.26,1.67-4.52,2.5-6.78c0.77-2.08,1.53-4.17,2.34-6.23c0.12-0.3,0.49-0.69,0.75-0.7
	c3.04-0.05,6.08-0.03,9.28-0.03c-0.95,2.17-1.84,4.23-2.75,6.27c-1.42,3.2-2.89,6.38-4.27,9.6c-0.19,0.44-0.14,1.12,0.07,1.57
	c1.56,3.45,3.19,6.88,4.79,10.31c0.09,0.19,0.13,0.39,0.22,0.69c-1.53,0-2.97,0.03-4.41-0.01c-1.43-0.03-2.86-0.15-4.29-0.19
	c-0.61-0.02-0.94-0.19-1.17-0.82c-0.98-2.64-2.03-5.26-3.05-7.89C100.94,23.21,100.85,23.22,100.77,23.23z"/>
<path style="fill:#FFFFFF;" d="M13.56,3.73c3.02,0,5.98,0,9.06,0c0.02,0.4,0.05,0.78,0.05,1.16c0,3.3,0.02,6.59-0.01,9.89
	c-0.01,0.76,0.15,1.14,1,1.07c1.06-0.09,2.51,0.31,3.09-0.24c0.56-0.52,0.27-2,0.28-3.05c0.03-2.62,0.04-5.23-0.01-7.85
	c-0.01-0.77,0.16-1.08,1-1.06c2.44,0.05,4.87,0.02,7.31,0.02c0.28,0,0.56,0.05,0.95,0.09c0,0.4,0,0.75,0,1.09
	c0,7.74,0,15.48,0,23.22c0,1.3,0,1.27-1.34,1.2c-2.32-0.12-4.65-0.22-6.97-0.25c-0.8-0.01-0.97-0.34-0.94-1.04
	c0.04-0.97-0.03-1.94,0.02-2.9c0.03-0.72-0.25-0.94-0.94-0.9c-0.86,0.05-1.72,0.04-2.58,0c-0.66-0.03-0.89,0.22-0.87,0.87
	c0.04,1.21,0.01,2.42,0.01,3.79c-3.09-0.13-6.07-0.26-9.11-0.39C13.56,20.17,13.56,11.98,13.56,3.73z"/>
<path style="fill:#FFFFFF;" d="M119.1,26.81c0.68,0.56,1.28,1.06,1.89,1.56c1.46,1.19,3.02,2.13,4.99,1.54
	c1.69-0.51,2.24-2.06,1.14-3.45c-0.74-0.93-1.74-1.68-2.68-2.44c-2.18-1.75-4.13-3.64-5-6.42c-1.67-5.35,1.22-13.52,8.66-14.48
	c2.65-0.34,5.11,0.38,7.45,1.54c0.21,0.1,0.44,0.41,0.44,0.63c0.03,3.25,0.02,6.5,0.02,9.99c-0.69-0.75-1.2-1.36-1.77-1.91
	c-1.03-0.99-2.18-1.74-3.69-1.73c-0.99,0.01-1.8,0.39-2.19,1.28c-0.37,0.85-0.15,1.74,0.55,2.36c0.99,0.88,2.04,1.68,3.08,2.5
	c1.96,1.56,3.72,3.27,4.45,5.77c0.88,2.97,0.58,5.87-0.51,8.73c-0.25,0.66-0.73,0.78-1.36,0.75c-3.97-0.17-7.94-0.33-11.91-0.49
	c-0.97-0.04-1.94-0.02-2.9-0.1c-0.24-0.02-0.65-0.31-0.65-0.48C119.09,30.22,119.1,28.49,119.1,26.81z"/>
<path style="fill:#FFFFFF;" d="M87.42,27.43c-0.09,1.39-0.16,2.54-0.23,3.57c-2.4,0-4.65,0.05-6.9-0.01c-3.4-0.1-6.79-0.3-10.19-0.4
	c-0.72-0.02-1.08-0.22-1.33-0.92c-1.39-3.85-1.69-7.8-1.25-11.85c0.39-3.61,1.45-6.97,3.85-9.74C75.28,3.56,80.22,2.18,86,3.6
	c0.74,0.18,1.06,0.49,1.04,1.31c-0.05,2.62-0.02,5.23-0.02,7.85c0,0.27-0.04,0.54-0.07,0.9c-0.67-0.47-1.21-0.92-1.82-1.26
	c-2.33-1.31-5.03-0.7-6.56,1.48c-1.72,2.46-1.92,5.29-1.72,8.14c0.1,1.37,0.37,2.8,0.88,4.06c1.45,3.57,4.83,4.55,8.1,2.48
	C86.28,28.29,86.7,27.95,87.42,27.43z"/>
<path style="fill:#FFFFFF;" d="M62.3,38.84c-3.13,0-6.06,0.02-8.99-0.03c-0.24,0-0.61-0.45-0.69-0.75c-0.22-0.9-0.27-1.84-0.49-2.74
	c-0.08-0.3-0.47-0.73-0.74-0.74c-1.61-0.07-3.23-0.07-4.83,0c-0.28,0.01-0.69,0.44-0.77,0.75c-0.23,0.9-0.28,1.84-0.5,2.74
	c-0.07,0.3-0.45,0.74-0.7,0.74c-2.93,0.05-5.86,0.03-8.94,0.03c0.16-0.82,0.27-1.51,0.43-2.19c0.43-1.81,0.9-3.61,1.3-5.43
	c0.16-0.74,0.5-0.99,1.25-0.96c6.69,0.28,13.37,0.52,20.06,0.78c2,0.08,2.02,0.09,2.42,1.93C61.51,34.85,61.87,36.74,62.3,38.84z"/>
<path style="fill:#FFFFFF;" d="M97.41,56.56c-0.17,0.13-0.2,0.17-0.23,0.17c-2.77,0.25-2.77,0.25-3.14-2.47
	c-0.15-1.1-0.34-2.19-0.53-3.28c-0.02-0.09-0.12-0.16-0.27-0.37c-0.74,1.78-1.45,3.48-2.14,5.18c-0.2,0.5-0.31,1.01-1.05,1
	c-0.77-0.01-0.81-0.58-1-1.06c-0.57-1.46-1.13-2.94-1.7-4.4c-0.08-0.22-0.23-0.41-0.49-0.85c-0.3,1.93-0.62,3.59-0.79,5.27
	c-0.09,0.87-0.46,1.09-1.23,1.02c-0.6-0.05-1.2-0.01-1.95-0.01c0.18-1.26,0.33-2.38,0.51-3.49c0.41-2.43,0.86-4.86,1.24-7.3
	c0.11-0.68,0.33-0.98,1.08-0.98c2.13-0.01,2.14-0.04,2.89,1.92c0.49,1.28,0.96,2.58,1.56,4.18c0.7-1.85,1.34-3.35,1.82-4.9
	c0.3-0.96,0.78-1.26,1.77-1.21c1.78,0.09,1.76,0.03,2.04,1.77c0.49,2.97,1,5.92,1.51,8.89C97.36,55.95,97.38,56.27,97.41,56.56z"/>
<path style="fill:#FFFFFF;" d="M66.07,31.57c2.23,0,4.4-0.04,6.58,0.01c3.43,0.09,6.86,0.26,10.3,0.35
	c0.78,0.02,1.06,0.17,0.95,1.05c-0.18,1.42-0.11,2.86-0.25,4.28c-0.04,0.41-0.34,1.02-0.68,1.15c-6.66,2.61-13.6,0-16.83-6.55
	C66.09,31.78,66.09,31.67,66.07,31.57z"/>
<path style="fill:#FFFFFF;" d="M152.2,49.84c0,2.18-0.04,4,0.02,5.83c0.03,0.82-0.18,1.21-1.06,1.11c-0.6-0.06-1.21-0.01-1.91-0.01
	c0-3.91,0-7.75,0-11.65c1.65-0.25,3.12-0.33,4.23,1.45c1.13,1.8,2.59,3.39,4.16,5.01c0.02-0.32,0.07-0.65,0.07-0.97
	c0.01-1.58,0.02-3.15,0-4.73c-0.01-0.65,0.23-0.88,0.88-0.87c2.71,0.05,2.18-0.25,2.21,2.1c0.03,2.86-0.03,5.73,0.03,8.59
	c0.02,0.88-0.29,1.03-1.1,1.1c-1.42,0.12-2.4-0.27-3.22-1.52c-1.04-1.58-2.3-3.01-3.47-4.5C152.84,50.53,152.62,50.31,152.2,49.84z"
	/>
<path style="fill:#FFFFFF;" d="M25.14,50.15c0.53,3.3-1.25,5.97-4.39,6.75c-3.29,0.82-6.33-0.79-7.4-3.9
	c-1.09-3.16,0.34-6.56,3.28-7.83c3.03-1.31,6.46-0.17,8.02,2.79c-0.84,0.36-1.67,0.75-2.52,1.04c-0.17,0.06-0.54-0.24-0.72-0.45
	c-1.55-1.83-4-1.42-4.84,0.83c-0.59,1.59-0.28,3.31,0.78,4.29c1.41,1.29,3.58,0.87,4.28-0.98c-0.76-0.04-1.48-0.08-2.16-0.12
	c-0.08-0.1-0.15-0.16-0.16-0.21c-0.25-2.19-0.25-2.19,1.93-2.19C22.52,50.15,23.8,50.15,25.14,50.15z"/>
<path style="fill:#FFFFFF;" d="M193.43,52.67c-0.28-0.02-0.56-0.06-0.84-0.07c-1.39-0.03-1.86-0.65-1.42-2
	c0.06-0.2,0.4-0.42,0.61-0.43c1.58-0.04,3.15-0.05,4.73,0.01c0.23,0.01,0.61,0.45,0.63,0.72c0.27,3.11-2.01,5.84-5.06,6.1
	c-3.82,0.33-6.64-1.69-7.02-5.03c-0.38-3.33,0.9-5.76,3.58-6.85c3.07-1.24,6.44-0.1,7.91,2.82c-0.84,0.36-1.66,0.74-2.51,1.06
	c-0.15,0.05-0.46-0.12-0.59-0.28c-1.26-1.41-2.1-1.68-3.43-1.1c-1.17,0.52-1.96,2.09-1.82,3.62c0.23,2.51,2.35,3.88,4.34,2.77
	c0.42-0.23,0.71-0.69,1.06-1.05C193.55,52.87,193.49,52.77,193.43,52.67z"/>
<path style="fill:#FFFFFF;" d="M10.25,38.84c0-3.22,0-6.32,0-9.48c1.17,0,2.33-0.02,3.48,0c1.5,0.03,3,0.12,4.5,0.12
	c0.84,0,1.22,0.25,1.19,1.18c-0.06,2.4-0.02,4.8-0.02,7.2c0,0.47,0.06,0.98-0.65,0.98C15.94,38.84,13.12,38.84,10.25,38.84z"/>
<path style="fill:#FFFFFF;" d="M33,38.76c-3.14,0-6.16,0-9.3,0c0-2.36,0-4.65,0-6.93c0-2.08,0-2.06,2.05-1.98
	c2.04,0.08,4.08,0.15,6.11,0.18c0.82,0.02,1.19,0.24,1.17,1.18C32.95,33.71,33,36.21,33,38.76z"/>
<path style="fill:#FFFFFF;" d="M115.84,33.19c5.49,0.21,10.83,0.41,16.51,0.62c-0.54,0.78-0.87,1.34-1.28,1.84
	c-3.06,3.7-7.09,4.27-11.5,3.44c-1.02-0.19-2.02-0.5-2.99-0.86c-0.31-0.11-0.69-0.55-0.7-0.86
	C115.79,36.05,115.84,34.73,115.84,33.19z"/>
<path style="fill:#FFFFFF;" d="M88.46,38.84c0-2.22,0-4.34,0-6.57c1.33,0,2.64-0.03,3.94,0.01c1.46,0.04,2.93,0.09,4.39,0.23
	c0.28,0.03,0.74,0.44,0.76,0.69c0.11,1.6,0.15,3.21,0.13,4.82c0,0.27-0.36,0.78-0.57,0.78C94.26,38.85,91.41,38.84,88.46,38.84z"/>
<path style="fill:#FFFFFF;" d="M113.51,38.84c-1.87,0-3.47,0-5.07,0c-1.14,0-2.3-0.09-3.43,0.02c-1.15,0.11-1.74-0.29-2.09-1.4
	c-0.5-1.59-1.16-3.12-1.82-4.84c1.5,0.07,2.83,0.15,4.16,0.19c1.61,0.05,3.22,0.06,4.82,0.14c0.3,0.01,0.74,0.2,0.86,0.44
	C111.8,35.11,112.59,36.86,113.51,38.84z"/>
<path style="fill:#FFFFFF;" d="M145.14,34.65c-0.22,1.22-0.41,2.42-0.67,3.6c-0.05,0.23-0.38,0.56-0.59,0.56
	c-2.92,0.04-5.85,0.03-9.05,0.03c0.41-1.64,0.76-3.14,1.17-4.62c0.04-0.14,0.42-0.27,0.63-0.25c2.74,0.14,5.48,0.31,8.23,0.48
	C144.92,34.45,144.98,34.53,145.14,34.65z"/>
<path style="fill:#FFFFFF;" d="M161.56,38.84c-3.13,0-6.03,0.02-8.92-0.03c-0.27-0.01-0.71-0.45-0.78-0.76
	c-0.24-1.08-0.34-2.18-0.53-3.47c0.75,0,1.44-0.02,2.14,0c2.11,0.07,4.22,0.19,6.33,0.23c0.69,0.01,1.03,0.2,1.12,0.94
	C161.05,36.73,161.32,37.69,161.56,38.84z"/>
<path style="fill:#FFFFFF;" d="M121.44,50.85c0-1.61,0.02-3.22-0.01-4.83c-0.01-0.71,0.17-1.04,0.96-1.02
	c2.59,0.06,2.12-0.23,2.14,2.07c0.03,2.86-0.02,5.73,0.03,8.6c0.01,0.83-0.19,1.14-1.07,1.11c-2.47-0.08-2.01,0.24-2.05-2.06
	C121.42,53.43,121.44,52.14,121.44,50.85z"/>
<path style="fill:#FFFFFF;" d="M178.7,35.54c0.03,0.28,0.06,0.38,0.05,0.48c-0.24,2.82-0.24,2.82-3.06,2.82
	c-1.79,0-3.57-0.02-5.36,0.01c-0.67,0.01-1.06-0.13-1.17-0.89c-0.12-0.87-0.37-1.73-0.61-2.8C172.01,35.3,175.35,35.42,178.7,35.54z
	"/>
<path style="fill:#FFFFFF;" d="M183.97,35.74c3.39,0.12,6.61,0.24,9.77,0.35c0.08,0.2,0.14,0.27,0.13,0.33
	c-0.32,2.42-0.32,2.42-2.74,2.42c-1.86,0-3.72-0.03-5.58,0.02c-0.77,0.02-1.21-0.15-1.24-1.02
	C184.28,37.19,184.11,36.54,183.97,35.74z"/>
<path style="fill:#FFFFFF;" d="M163.73,32.77c-0.39-1.89-0.8-3.78-1.19-5.67c-1.59-7.57-3.17-15.14-4.79-22.7
	c-0.06-0.29-0.54-0.69-0.82-0.7c-3.3-0.05-6.59-0.02-9.89-0.04c-0.58,0-0.81,0.22-0.91,0.79c-0.18,0.98-0.45,1.95-0.68,2.93
	c-1.66,6.89-3.32,13.77-4.97,20.66c-0.4,1.66-0.77,3.33-1.19,5.14c8.23,0.31,16.34,0.61,24.65,0.92
	C163.85,33.59,163.81,33.17,163.73,32.77z M149.76,26.15c0.65-4.16,1.28-8.22,1.92-12.29c0.06,0,0.12-0.01,0.18-0.01
	c0.51,4.05,1.02,8.1,1.55,12.3C152.18,26.15,151.02,26.15,149.76,26.15z"/>
<path style="fill:#FFFFFF;" d="M63.79,29.4c-1.74-8.23-3.49-16.46-5.2-24.69c-0.16-0.77-0.4-1.07-1.22-1.06
	c-3.12,0.05-6.23,0.04-9.35,0c-0.71-0.01-1.04,0.23-1.19,0.9c-0.34,1.57-0.73,3.14-1.1,4.7c-1.18,4.94-2.37,9.88-3.55,14.82
	c-0.42,1.76-0.82,3.52-1.26,5.43c7.72,0.29,15.28,0.57,23,0.86C63.85,29.88,63.84,29.64,63.79,29.4z M50.5,26.15
	c0.65-4.13,1.29-8.17,1.93-12.21c0.07,0,0.13,0,0.2,0.01c0.5,4.05,1,8.1,1.51,12.21C52.89,26.15,51.73,26.15,50.5,26.15z"/>
<path style="fill:#FFFFFF;" d="M59.84,56.44c-1.15-3.08-2.26-6.17-3.47-9.22c-1.08-2.71-0.27-2.12-3.21-2.22
	c-0.73-0.03-1.1,0.22-1.34,0.9c-0.64,1.78-1.35,3.54-2.01,5.31c-0.68,1.79-1.34,3.59-2.07,5.55c1.05,0,1.93,0.04,2.81-0.03
	c0.23-0.02,0.6-0.32,0.63-0.54c0.23-1.44,1.15-1.7,2.39-1.53c0.49,0.06,1,0.05,1.5,0c0.7-0.06,1.03,0.2,1.19,0.9
	c0.1,0.43,0.43,1.08,0.74,1.13c0.92,0.15,1.87,0.05,2.75,0.05C59.83,56.51,59.85,56.47,59.84,56.44z M52.59,52.25
	c0.4-1.12,0.76-2.15,1.12-3.17c0.09-0.01,0.18-0.01,0.27-0.02c0.37,1.04,0.74,2.07,1.14,3.19C54.25,52.25,53.48,52.25,52.59,52.25z"
	/>
</svg>
