<?xml version="1.0" encoding="utf-8"?>
<!-- Generator: Adobe Illustrator 24.1.2, SVG Export Plug-In . SVG Version: 6.00 Build 0)  -->
<svg version="1.1" id="Layer_1" xmlns="http://www.w3.org/2000/svg" xmlns:xlink="http://www.w3.org/1999/xlink" x="0px" y="0px"
	 viewBox="0 0 1056.6 329" style="enable-background:new 0 0 1056.6 329;" xml:space="preserve">
<style type="text/css">
	.st0{fill:#FFFFFF;}
	.st1{fill:#01A3FB;}
</style>
<g>
	<path class="st0" d="M638.7,114.5c-3.5-10-8.9-18.6-15.7-25.4c-6.7-7-15.4-12.4-25.4-16.2s-21.3-5.7-34-5.7
		c-5.4,0-10.8,0.3-16.7,0.8c-5.7,0.5-11.3,1.1-17,1.9c-5.7,0.8-10.8,1.6-15.9,2.7c-5.1,1.1-9.7,2.2-13.5,3.2v187.6l43.7-0.3v-41.6
		c4.9,2.2,10,3.8,15.4,5.1c5.4,1.1,11.1,1.6,17,1.6c11.1,0,20.8-1.9,29.2-5.9c8.4-3.8,15.4-9.4,21.1-16.5c5.7-7,10-15.4,13-25.4
		c3-9.7,4.3-20.8,4.3-32.7C644.4,135.8,642.5,124.5,638.7,114.5z M568.5,191.4c-4.6,0-8.9-0.5-13.5-1.9c-4.3-1.1-8.1-2.7-10.8-4.3
		v-79.1c2.2-0.3,4.9-0.8,8.1-1.1s7-0.5,10.8-0.5c11.9,0,21.1,4,27,12.1s9.2,18.9,9.2,32.4C599.6,177.4,589,191.4,568.5,191.4z"/>
	<path class="st0" d="M673,177.1c0,8.1,0.8,15.7,2.4,22.1c1.6,6.5,4.9,12.1,9.4,16.7s10.8,8.1,18.9,10.8c3.8,1.1,8.1,2.2,13,2.7V7.1
		H673V177.1L673,177.1z"/>
	<path class="st0" d="M875.5,104c-2.2-7.8-5.9-14.6-11.1-20.2c-5.1-5.4-12.1-9.7-20.8-12.7c-8.6-3-19.4-4.3-32.4-4.3
		c-5.1,0-10.3,0.3-15.1,0.8c-5.1,0.5-9.7,1.1-14.3,1.6c-4.6,0.8-8.6,1.3-12.4,2.4c-3.8,0.8-7,1.6-9.7,2.4l5.7,35.4
		c5.4-1.9,11.6-3.5,18.9-4.6s14.6-1.6,22.1-1.6c11.3,0,19.2,2.2,23.8,6.7c3.5,3.5,5.7,8.1,6.5,13.8c-1.3-0.3-3-0.5-4.6-0.5
		c-4.9-0.5-10.3-0.8-16.2-0.8c-9.2,0-17.8,0.8-26.5,2.7c-8.4,1.9-15.9,4.6-22.4,8.6s-11.9,9.4-15.7,16.2c-4,6.7-5.9,14.8-5.9,24.6
		c0,10.3,1.6,18.6,5.1,25.6s8.4,12.7,14.6,17c6.5,4.3,13.8,7.6,22.7,9.4c7.6,1.6,15.7,2.4,24.6,2.7l0,0h1.9c1.1,0,1.9,0,2.7,0
		c3.2,0,6.5-0.3,9.4-0.3c10-0.3,18.9-1.3,26.5-2.4c11.3-1.9,20-3.5,26.5-4.9v-91.3C878.7,120.7,877.7,111.8,875.5,104z M836.6,192.8
		c-1.1,0-2.2,0.3-3.5,0.3c-4.3,0.3-8.6,0.3-13.2,0.3c-8.6,0-15.4-1.3-20.5-4.3c-4.9-3-7.6-8.1-7.6-15.4c0-3.8,0.8-7,2.4-9.4
		s4-4.6,7-5.9s6.5-2.4,10.3-3c3.8-0.5,8.1-0.8,12.4-0.8c3.2,0,6.7,0.3,10.5,0.5c0.5,0,1.3,0,1.9,0.3v37.5h0.3V192.8z"/>
	<path class="st0" d="M1050.7,70.8c-8.9,29.7-18.1,57.8-27.8,83.7c-9.7,26.2-20.2,51.3-31.6,75.9c-0.3,0.5-0.5,1.1-0.8,1.9
		c-6.2,13.5-11.6,23.8-16.2,31.3h-43.2c5.7-9.7,13-23.8,21.9-43.7c0.3-0.3,0.3-0.8,0.5-1.1c-10-19.4-20-41.6-30-65.9
		s-19.4-51.8-28.3-82.1h46.4c1.9,7.6,4.3,15.9,7,24.8c2.7,8.9,5.4,18.1,8.4,27c3,9.2,5.9,18.1,8.9,26.7c2.7,7.6,5.4,14.6,7.8,21.1
		c10.3-27,18.4-52.6,24-72.1c0.3-0.8,0.5-1.6,0.8-2.4c1.9-6.7,3.5-12.7,5.1-18.6c0.5-2.2,1.1-4.3,1.3-5.9l0,0c0,0,0,0,0-0.3h45.6
		v-0.3H1050.7z"/>
</g>
<g>
	<path class="st1" d="M5.9,149.3c0-13.8,2.2-25.6,6.2-35.9c4.3-10.3,9.7-18.9,16.7-25.6c6.7-6.7,14.8-12.1,23.8-15.7
		s18.1-5.4,27.5-5.4c21.9,0,39.4,6.7,52.1,20.2s19.2,33.2,19.2,59.1c0,2.4,0,5.4-0.3,8.4s-0.3,5.7-0.5,8.1H51
		c1.1,8.9,5.1,16.2,12.7,21.6s17.5,7.8,30,7.8c8.1,0,15.9-0.8,23.8-2.2c7.8-1.3,14-3.2,18.9-5.4l5.9,35.6c-2.4,1.1-5.4,2.4-9.4,3.5
		s-8.4,2.2-13,3c-4.9,0.8-10,1.6-15.4,2.2c-5.4,0.5-11.1,0.8-16.5,0.8c-14,0-25.9-2.2-36.4-6.2c-10.3-4-18.9-9.7-25.6-17
		s-11.9-15.7-15.1-25.4C7.5,171.2,5.9,160.7,5.9,149.3z M108.7,132.6c-0.3-3.8-0.8-7.3-1.9-10.8s-2.7-6.7-5.1-9.4
		c-2.2-2.7-5.1-5.1-8.6-6.7c-3.5-1.9-7.8-2.7-12.7-2.7c-4.9,0-9.2,0.8-12.7,2.4c-3.5,1.6-6.5,3.8-8.9,6.7c-2.4,2.7-4,5.9-5.4,9.4
		c-1.3,3.5-2.2,7.3-2.7,11.1H108.7z"/>
	<path class="st1" d="M219.7,225.5c-10-19.7-20.2-42.7-30.5-68.8c-10.3-26.2-20.2-54.8-29.4-85.9h46.4c1.9,7.6,4.3,15.9,7,24.8
		c2.7,8.9,5.4,17.8,8.4,27s5.7,18.1,8.6,26.7c3,8.6,5.7,16.5,8.4,23.5c2.4-7,5.4-14.8,8.4-23.5c3-8.6,5.9-17.5,8.6-26.7
		c3-9.2,5.7-18.1,8.4-27c2.7-8.9,4.9-17.3,7-24.8h45.4c-9.2,31-18.9,59.7-29.4,85.9c-10.3,26.2-20.5,49.1-30.5,68.8H219.7z"/>
	<path class="st1" d="M474,147.7c0,12.1-1.9,23.2-5.4,33.5c-3.5,10-8.6,18.6-15.4,25.9c-6.7,7.3-14.6,12.7-24,16.7
		s-19.7,5.9-31.3,5.9c-11.3,0-21.6-1.9-31-5.9s-17.3-9.4-24-16.7c-6.7-7.3-11.9-15.7-15.7-25.9c-3.8-10-5.7-21.3-5.7-33.5
		c0-12.1,1.9-23.2,5.7-33.2c3.8-10,9.2-18.6,15.9-25.6c6.7-7,14.8-12.4,24-16.5c9.2-4,19.4-5.9,30.5-5.9s21.3,1.9,30.8,5.9
		c9.2,4,17.3,9.4,24,16.5c6.7,7,11.9,15.7,15.7,25.6C472.1,124.5,474,135.6,474,147.7z M429.5,147.7c0-13.5-2.7-24-8.1-31.9
		s-13-11.6-23.2-11.6c-10,0-17.8,3.8-23.2,11.6c-5.4,7.8-8.4,18.4-8.4,31.9s2.7,24.3,8.4,32.1c5.4,7.8,13.2,11.9,23.2,11.9
		s17.8-4,23.2-11.9S429.5,161.5,429.5,147.7z"/>
</g>
<g>
	<g>
		<path class="st0" d="M130.6,299.1H149v-6.2h-18.4v-10.3h20.8v-6.7h-29.2v41.8h30.5v-6.5h-22.1
			C130.6,311.2,130.6,299.1,130.6,299.1z M212.7,303.6c-1.3-2.2-3.2-4.6-5.1-7c-1.9-2.4-3.8-5.1-5.9-7.6c-1.9-2.4-4-4.9-5.9-7.3
			s-3.8-4.3-5.7-5.9h-6.7v41.8h8.1v-30c1.9,1.9,3.8,4.3,5.7,6.7s4,5.1,5.9,7.8c1.9,2.7,3.8,5.4,5.7,7.8c1.9,2.7,3.5,5.1,4.9,7.3h7
			v-41.6h-8.1v27.8h0.1V303.6z M250.5,282.6h13.8V318h8.1v-35.4h13.8v-6.7h-35.6L250.5,282.6L250.5,282.6z M323.9,299.1h18.4v-6.2
			h-18.4v-10.3h20.8v-6.7h-28.9v41.8h30.5v-6.5h-22.1v-12.1L323.9,299.1L323.9,299.1z M406.5,308.2c-1.1-1.6-2.2-3-3.2-4.3
			c-1.1-1.3-1.9-2.4-2.7-3.2c5.9-1.9,8.9-5.9,8.9-11.6c0-4.6-1.6-7.8-5.1-10.3c-3.5-2.2-8.4-3.2-14.8-3.2c-1.9,0-3.8,0-5.9,0.3
			s-4.3,0.5-6.5,0.8V318h8.1v-15.9h5.1c0.5,0,0.8,0,1.6,0c0.8,1.1,1.6,2.2,2.7,3.2c1.1,1.3,1.9,2.4,3,4c1.1,1.3,1.9,2.7,3,4.3
			c1.1,1.3,1.9,3,2.7,4.3h9.2c-0.8-1.6-1.6-3.2-2.7-4.9C408.7,311.2,407.6,309.6,406.5,308.2z M400.3,292.3
			c-0.5,0.8-1.3,1.6-2.4,2.2s-2.2,0.8-3.8,1.1c-1.6,0.3-3.2,0.3-5.1,0.3h-3.5v-13.6c1.3,0,3-0.3,4.9-0.3c1.6,0,3,0,4.3,0.3
			s2.4,0.5,3.5,1.1c1.1,0.5,1.6,1.3,2.2,2.2c0.5,0.8,0.8,1.9,0.8,3.2C400.9,290.1,400.6,291.5,400.3,292.3z M437.3,282.6h13.8V318
			h8.1v-35.4H473v-6.7h-36v6.7H437.3z M528.6,294.7c-1.3-3.5-3-6.5-4.3-9.7c-1.3-3-3-5.9-4.3-9.2h-7.8c-1.6,3-3,5.9-4.3,9.2
			c-1.3,3-3,6.2-4.3,9.7s-3,7-4.3,10.8c-1.6,3.8-3.2,7.8-4.9,12.4h8.4c0.5-1.6,1.3-3.2,1.9-4.9c0.5-1.6,1.3-3.2,1.9-4.9h18.9
			c0.5,1.6,1.3,3.2,1.9,4.9c0.5,1.6,1.3,3.2,1.9,4.9h8.9c-1.6-4.6-3.2-8.6-4.9-12.4C531.5,301.5,529.9,298,528.6,294.7z
			 M508.3,301.8c1.3-3.5,2.7-7,4-10s2.4-5.7,3.5-7.8c1.1,2.2,2.2,4.6,3.2,7.8c1.3,3,2.7,6.5,4,10H508.3z M566.6,317.7h8.1v-41.8
			h-8.1V317.7z M638.2,303.6c-1.3-2.2-3.2-4.6-5.1-7c-1.9-2.4-3.8-5.1-5.9-7.6c-1.9-2.4-4-4.9-5.9-7.3s-3.8-4.3-5.7-5.9h-6.7v41.8
			h8.1v-30c1.9,1.9,3.8,4.3,5.7,6.7s4,5.1,5.9,7.8c1.9,2.7,3.8,5.4,5.7,7.8c1.9,2.7,3.5,5.1,4.9,7.3h7v-41.6h-8.1v27.8h0.1V303.6z
			 M726.7,296.1c-0.3-3.5-0.5-7-1.1-10.5c-0.3-3.5-0.8-6.7-1.1-9.7h-7.3c-1.1,1.6-1.9,3.5-3.2,5.7c-1.1,2.2-2.4,4.6-3.5,7
			s-2.4,4.9-3.5,7.3s-2.2,4.9-3.2,7c-1.1-2.2-2.2-4.3-3.2-7c-1.1-2.4-2.4-4.9-3.5-7.3s-2.4-4.9-3.5-7c-1.1-2.2-2.2-4-3.2-5.7h-7.6
			c-0.3,3-0.8,5.9-1.1,9.4s-0.5,7-1.1,10.5c-0.3,3.5-0.5,7.3-0.8,11.1c-0.3,3.8-0.5,7.3-0.5,10.8h8.1c0.3-4.9,0.3-10,0.5-15.1
			c0.3-5.1,0.5-10.3,1.1-14.8c0.5,0.8,1.1,1.9,1.6,3.2c0.5,1.3,1.3,2.7,2.2,4.3c0.8,1.6,1.3,3,2.2,4.6c0.8,1.6,1.6,3.2,2.2,4.6
			c0.8,1.6,1.3,3,1.9,4.3c0.5,1.3,1.1,2.4,1.6,3.2h6.2c0.5-0.8,1.1-2.2,1.6-3.2c0.5-1.3,1.3-2.7,1.9-4.3c0.8-1.6,1.3-3,2.2-4.6
			c0.8-1.6,1.6-3.2,2.2-4.6c0.8-1.6,1.3-3,2.2-4.3c0.5-1.3,1.1-2.4,1.6-3.2c0.5,4.9,0.8,9.7,1.1,14.8c0.3,5.1,0.5,10.3,0.5,15.1h8.1
			c-0.3-3.5-0.3-7-0.5-10.5C727.3,303.4,727,299.9,726.7,296.1z M769.1,299.1h18.4v-6.2h-18.4v-10.3h20.8v-6.7H761v41.8h30.5v-6.5
			h-22.1v-12.1L769.1,299.1L769.1,299.1z M851.5,303.6c-1.3-2.2-3.2-4.6-5.1-7c-1.9-2.4-3.8-5.1-5.9-7.6c-1.9-2.4-4-4.9-5.9-7.3
			s-3.8-4.3-5.7-5.9H822v41.8h8.1v-30c1.9,1.9,3.8,4.3,5.7,6.7c1.9,2.4,4,5.1,5.9,7.8c1.9,2.7,3.8,5.4,5.7,7.8
			c1.9,2.7,3.5,5.1,4.9,7.3h7v-41.6h-8.1v27.8h0.3V303.6z M889,275.8v6.5h13.8v35.4h8.1v-35.4h13.8v-6.5H889z"/>
	</g>
</g>
</svg>
