<?xml version="1.0" encoding="utf-8"?>
<!-- Generator: Adobe Illustrator 26.1.0, SVG Export Plug-In . SVG Version: 6.00 Build 0)  -->
<svg version="1.1" id="Layer_1" xmlns="http://www.w3.org/2000/svg" xmlns:xlink="http://www.w3.org/1999/xlink" x="0px" y="0px"
	 viewBox="0 0 1056.6 202" style="enable-background:new 0 0 1056.6 202;" xml:space="preserve">
<path style="fill:#E6007D;" d="M165.9,5.6c-2.4,7.8-4.7,15.6-7.1,23.3c-0.7,2.1-1.6,4.1-2.1,6.3c-1.5,6.1-3.5,11.6-9.9,14.7
	c-2.9,1.4-4.7,4.8-7.7,7.9c-1.4-1.6-2.7-3.7-4.5-4.9c-3.7-2.6-7.5-6.3-11.5-6.7c-10.6-1-21.5-0.9-32.2-0.4
	c-5.6,0.2-10.6,3.1-12.7,8.9c-1.3,3.7-3.7,4.4-7.4,4.4c-17.8-0.2-35.6-0.2-53.5-0.2c0-17.7,0-35.4,0-53.3
	C66.8,5.6,116.3,5.6,165.9,5.6z"/>
<path style="fill:#FBAF17;" d="M269.7,143.4c0-9.6,0-18.4,0-27.2c3.2-0.4,6.2-1.1,9.2-1.2c6.7-0.2,8.6-4.4,8.6-10
	c0.1-12.1,0.3-24.1,0-36.2c-0.2-6,3.4-7.3,7.9-7.2c6.4,0.1,12.9,0.7,19.8,1.2c0,3.7,0,7.4,0,11.2c6.8,1.7,12.5-0.1,17.5-3.8
	c20.9-15.5,49.1-10.1,61.6,14.2c6.3,12.3,6.7,25.4-1.5,38.7c-9,14.6-21.3,21.5-37.4,20.2c-16-1.3-28.7-9.3-35.3-24.9
	c-0.9-2.1-2.1-4.2-4-7.7c-3.3,11.3-6.1,21-15.5,27.3C291.1,144.3,280.9,143.7,269.7,143.4z M369.4,102.6
	c-0.1-8.4-4.6-12.3-14.1-12.3c-5.3,0-9.8,6-9.7,12.8c0.1,6.7,5.4,11.5,12.6,11.4C366.3,114.5,369.5,111.1,369.4,102.6z"/>
<path style="fill:#FBAF17;" d="M183.7,144.2c-7.5,0-14.3-0.3-21.2,0.1c-4.8,0.3-6.2-1.9-6.1-6c0.1-9.3,0.3-18.5,0.4-27.8
	c0-1.5-0.4-3-0.7-4.5c-0.5-0.3-1.1-0.5-1.6-0.8c-5,6.3-10,12.6-15.8,19.7c-5.7-7.1-11.2-13.8-16.6-20.6c-0.6,0-1.3,0.1-1.9,0.1
	c-1.4,12.6,0.1,25.5-0.9,38.8c-9.4,0.6-18.7,1.2-28.5,1.8c0-27.8,0-54.9,0-82.7c9.8,0.5,19.4,0.3,28.8,1.8c3.2,0.5,5.9,4.8,8.5,7.8
	c3.5,4.1,6.5,8.5,10.4,13.6c5.9-7.3,10.9-13.7,16.1-20c1.1-1.3,2.7-3,4.1-3.1c7.5-0.4,15-0.4,22.5-0.1c1.1,0,2.9,2.7,2.9,4.1
	c0.1,16.6-0.2,33.3-0.3,49.9C183.6,125.1,183.7,133.9,183.7,144.2z"/>
<path style="fill:#FBAF17;" d="M266.9,102.5c2.1,25.7-20.3,41-38.1,40.7c-25.9-0.3-41.1-17.5-41.8-39.4
	c-0.7-22.3,16.4-40.2,39.1-41.5C248.3,61,269.5,80.3,266.9,102.5z M239,100.7c0.1-7-3.7-10.3-12-10.4c-6.4-0.1-11.4,5.4-11.5,12.7
	c-0.1,7,5,12.7,11.5,12.7C234,115.8,238.9,109.7,239,100.7z"/>
<path style="fill:#FBAF17;" d="M462.6,62.6c0.5,0.7,0.8,1,0.9,1.4c2.1,23.9,0.9,19.5-17.5,19.7c-4.2,0-8.5,0.1-12.7,0.7
	c-1.4,0.2-2.5,2.3-3.8,3.5c1.3,1.2,2.5,3.3,3.8,3.5c4.8,0.4,9.7,0.1,14.6,0.2c12.4,0.2,19,4.5,20.8,16.6c1.1,7.8-0.2,16.3-2,24.2
	c-1.9,8-9,11-16.8,11.2c-12.6,0.3-25.1,0-37.7,0.1c-3.5,0-6.2-0.4-5.3-5c0.2-1.1-0.6-2.3-0.7-3.5c-1.3-11.8,0.1-13.3,11.6-13.4
	c5.7,0,11.4,0.2,17-0.4c1.9-0.2,3.5-2.6,5.3-4c-1.9-1.3-3.6-3.6-5.6-3.8c-4.7-0.6-9.5-0.5-14.3-0.2c-12.1,0.7-18.3-10.6-19.3-20
	c-0.5-4.2-0.2-8.5,0-12.7c0.3-8.3,7.9-17.6,16-17.9C432.2,62.2,447.5,62.6,462.6,62.6z"/>
<path style="fill:#E6007D;" d="M75.6,77.4c0.1,2.1,0.4,4.2,0.4,6.3c0,19.6,0,39.1,0.1,58.7c0,12.6,5.8,18.3,18.7,18.3
	c5.2,0,10.5,0,17.1,0c-2.4,7.4-4.5,13.7-6.6,20.1c-5.8,17.2-5.8,17.2-24,17.2c-16.2,0-32.4,0-50,0C45.5,157.1,59.4,117.1,73.3,77
	C74.1,77.2,74.9,77.3,75.6,77.4z"/>
</svg>
