<?xml version="1.0" encoding="utf-8"?>
<!-- Generator: Adobe Illustrator 22.1.0, SVG Export Plug-In . SVG Version: 6.00 Build 0)  -->
<svg version="1.1" id="Layer_1" xmlns="http://www.w3.org/2000/svg" xmlns:xlink="http://www.w3.org/1999/xlink" x="0px" y="0px"
	 viewBox="0 0 192 42.3" style="enable-background:new 0 0 192 42.3;" xml:space="preserve">
<g>
	<path style="fill:#FFFFFF;" d="M99.1,40.8"/>
</g>
<g>
	<path style="fill:#FFFFFF;" d="M22.8,13.3c1.1,1.4,4.2,4.4,4.2,6.3c0,1.6-1.6,2.8-3.1,2.1l0.5,2.1h-3.4l0.5-2.1
		c-1.5,0.8-3.1-0.5-3.1-2.1C18.5,17.6,21.6,14.7,22.8,13.3 M15.9,7.9l0.2,0.9h-1.5l0.2-0.9c-0.7,0.3-1.4-0.2-1.4-0.9
		c0-0.8,1.4-2.2,1.9-2.8c0.5,0.6,1.9,1.9,1.9,2.8C17.3,7.7,16.6,8.2,15.9,7.9z M10.9,35.9h23.7V1.1H10.9V35.9z M39.8,13.9l-1.5-0.2
		l0.3-0.9c-0.7,0.3-1.3-0.4-1.2-1.1c0.1-0.8,1.6-2,2.2-2.5c0.4,0.7,1.6,2.1,1.5,3c-0.1,0.7-0.9,1.2-1.5,0.7L39.8,13.9z M35.7,5.6V37
		H16.4l-0.2,1.2l23.4,2.9l4.3-34.6L35.7,5.6z M28.2,30.2c0-0.7,0.7-1.2,1.4-0.9l-0.2-0.9h1.5l-0.2,0.9c0.7-0.3,1.4,0.2,1.4,0.9
		c0,0.8-1.4,2.2-1.9,2.8C29.6,32.4,28.2,31.1,28.2,30.2z"/>
</g>
<g>
	<path style="fill:#FFFFFF;" d="M48.4,30.7c-0.6,0-0.7-0.2-0.7-0.8V10.6c0-0.6,0.2-0.8,0.7-0.8H54c5.5,0,7.4,2.1,7.4,4.6v1.8
		c0,1.5-0.7,2.7-2.3,3.4c2.1,0.7,3.2,2,3.2,3.7v2.4c0,2.6-1.9,4.8-7.4,4.8H48.4z M51.8,13.2v5.3h2.3c2,0,3.2-0.7,3.2-2.3v-1.1
		c0-1.5-1.3-2-3.3-2H51.8z M51.8,21.6v5.8h3.2c2.1,0,3.3-0.7,3.3-2.3v-1.4c0-1.3-1.3-2.1-3.3-2.1H51.8z"/>
	<path style="fill:#FFFFFF;" d="M69.2,27.2H76c0.5,0,0.8,0.2,0.8,0.7v1.9c0,0.6-0.2,0.8-0.8,0.8H65.7c-0.5,0-0.6-0.3-0.6-0.8V10.6
		c0-0.6,0.2-0.8,0.7-0.8h2.7c0.6,0,0.7,0.2,0.7,0.8V27.2z"/>
	<path style="fill:#FFFFFF;" d="M86.5,9.8c0.6,0,0.8,0.2,1,0.8l5.7,19.3c0.2,0.5,0,0.8-0.6,0.8h-2.8c-0.5,0-0.7-0.3-0.9-0.8L88,26.2
		h-5.7l-1.1,3.7c-0.2,0.5-0.4,0.8-0.9,0.8h-2.5c-0.6,0-0.7-0.3-0.6-0.8l5.7-19.3c0.2-0.5,0.4-0.8,0.9-0.8H86.5z M86,19.5
		c-0.4-1.3-0.9-5.2-0.9-5.6c-0.1,0.4-0.6,4.3-0.9,5.5l-1,3.4H87L86,19.5z"/>
	<path style="fill:#FFFFFF;" d="M108.8,25.9c0,2.6-1.7,5-7.2,5c-5.5,0-7.2-2.4-7.2-5V14.6c0-2.6,1.7-5,7.2-5c5.5,0,7.2,2.4,7.2,5
		v1.5c0,0.6-0.2,0.8-0.7,0.8h-2.5c-0.6,0-0.8-0.2-0.8-0.8v-0.7c0-1.5-1.1-2.3-3.1-2.3s-3.1,0.8-3.1,2.3v9.9c0,1.5,1,2.3,3.1,2.3
		s3.1-0.8,3.1-2.3V24c0-0.6,0.2-0.8,0.8-0.8h2.5c0.5,0,0.7,0.2,0.7,0.8V25.9z"/>
	<path style="fill:#FFFFFF;" d="M126.7,29.9c0.3,0.4,0.2,0.8-0.4,0.8h-3.4c-0.5,0-0.8-0.4-1.1-0.8l-5.8-8h-0.5v8
		c0,0.5-0.2,0.8-0.7,0.8h-2.7c-0.6,0-0.7-0.2-0.7-0.8V10.6c0-0.5,0.2-0.8,0.7-0.8h2.7c0.6,0,0.7,0.2,0.7,0.8v8.2h0.5l5.4-8.2
		c0.3-0.4,0.7-0.8,1.2-0.8h2.8c0.6,0,0.6,0.4,0.4,0.8l-6.4,9.5L126.7,29.9z"/>
	<path style="fill:#FFFFFF;" d="M130.5,25.2c0,1.5,0.8,2.3,2.6,2.3c1.8,0,2.4-0.8,2.4-2.3V10.6c0-0.6,0.2-0.8,0.7-0.8h2.7
		c0.6,0,0.7,0.2,0.7,0.8v15.3c0,2.6-1.4,5-6.6,5c-5.1,0-6.7-2.4-6.7-5v-1.8c0-0.6,0.2-0.8,0.8-0.8h2.6c0.6,0,0.7,0.2,0.7,0.8V25.2z"
		/>
	<path style="fill:#FFFFFF;" d="M150.5,9.8c0.6,0,0.8,0.2,1,0.8l5.7,19.3c0.2,0.5,0,0.8-0.6,0.8h-2.8c-0.5,0-0.7-0.3-0.9-0.8
		l-1.1-3.7h-5.7l-1.1,3.7c-0.2,0.5-0.4,0.8-0.9,0.8h-2.5c-0.6,0-0.7-0.3-0.6-0.8l5.7-19.3c0.2-0.5,0.4-0.8,0.9-0.8H150.5z M150,19.5
		c-0.4-1.3-0.9-5.2-0.9-5.6c-0.1,0.4-0.6,4.3-0.9,5.5l-1,3.4h3.9L150,19.5z"/>
	<path style="fill:#FFFFFF;" d="M172.8,25.9c0,2.6-1.7,5-7.2,5s-7.2-2.4-7.2-5V14.6c0-2.6,1.7-5,7.2-5s7.2,2.4,7.2,5v1.5
		c0,0.6-0.2,0.8-0.7,0.8h-2.5c-0.6,0-0.8-0.2-0.8-0.8v-0.7c0-1.5-1.1-2.3-3.1-2.3s-3.1,0.8-3.1,2.3v9.9c0,1.5,1,2.3,3.1,2.3
		s3.1-0.8,3.1-2.3V24c0-0.6,0.2-0.8,0.8-0.8h2.5c0.5,0,0.7,0.2,0.7,0.8V25.9z"/>
	<path style="fill:#FFFFFF;" d="M190.7,29.9c0.3,0.4,0.2,0.8-0.4,0.8h-3.4c-0.5,0-0.8-0.4-1.1-0.8l-5.8-8h-0.5v8
		c0,0.5-0.2,0.8-0.7,0.8h-2.7c-0.6,0-0.7-0.2-0.7-0.8V10.6c0-0.5,0.2-0.8,0.7-0.8h2.7c0.6,0,0.7,0.2,0.7,0.8v8.2h0.5l5.4-8.2
		c0.3-0.4,0.7-0.8,1.2-0.8h2.8c0.6,0,0.6,0.4,0.4,0.8l-6.4,9.5L190.7,29.9z"/>
</g>
</svg>
