<?xml version="1.0" encoding="utf-8"?>
<!-- Generator: Adobe Illustrator 24.1.2, SVG Export Plug-In . SVG Version: 6.00 Build 0)  -->
<svg version="1.1" id="layer" xmlns="http://www.w3.org/2000/svg" xmlns:xlink="http://www.w3.org/1999/xlink" x="0px" y="0px"
	 viewBox="0 0 1056.6 203" style="enable-background:new 0 0 1056.6 203;" xml:space="preserve">
<style type="text/css">
	.st0{fill:#FFFFFF;}
</style>
<g>
	<path class="st0" d="M379.2,89.4c-3.5,0-7.2,0.7-10.5,1.9c-3.4,1.3-6.5,3.1-9.2,5.3c-2.6,2.4-4.8,5.2-6.5,8.5
		c-1.6,3.3-2.5,7.2-2.5,11.5c0,4.2,0.8,8.2,2.5,11.5c1.6,3.3,3.6,6.2,6.5,8.5c2.6,2.4,5.8,4.1,9.2,5.3c3.4,1.3,6.8,1.9,10.5,1.9
		c3.5,0,7.2-0.7,10.5-1.9c3.4-1.3,6.5-3.1,9.2-5.3c2.6-2.4,4.8-5.2,6.5-8.5c1.6-3.3,2.5-7.2,2.5-11.5c0-4.2-0.8-8.1-2.5-11.5
		c-1.6-3.3-3.9-6.2-6.5-8.5c-2.6-2.4-5.8-4.1-9.2-5.3C386.3,90.2,382.8,89.4,379.2,89.4 M379.2,159.7c-6.5,0-12.6-0.8-18.3-2.4
		c-5.8-1.6-10.8-4.2-15.2-7.9c-4.2-3.5-7.6-8.2-10.2-13.5c-2.5-5.5-3.6-11.8-3.6-19.1s1.3-13.8,3.6-19.2c2.5-5.5,5.9-10,10.2-13.5
		c4.2-3.5,9.3-6.2,15.1-8.1c5.8-1.8,11.9-2.7,18.3-2.7s12.6,0.9,18.3,2.7c5.8,1.8,10.8,4.5,15.1,8.1c4.2,3.5,7.9,8.2,10.2,13.5
		c2.5,5.5,3.6,11.9,3.6,19.2c0,7.3-1.3,13.8-3.6,19.1c-2.5,5.5-5.9,10-10.2,13.5c-4.2,3.5-9.3,6.2-15.2,7.9
		C391.8,158.9,385.6,159.7,379.2,159.7"/>
	<path class="st0" d="M563.1,89.4c-3.5,0-7.2,0.7-10.5,1.9c-3.4,1.3-6.5,3.1-9.2,5.3c-2.6,2.4-4.8,5.2-6.5,8.5
		c-1.6,3.3-2.5,7.2-2.5,11.5c0,4.4,0.8,8.2,2.5,11.5c1.6,3.3,3.6,6.2,6.5,8.5c2.6,2.4,5.8,4.1,9.2,5.3c3.4,1.3,7.1,1.9,10.5,1.9
		c3.5,0,7.2-0.7,10.5-1.9c3.4-1.3,6.5-3.1,9.2-5.3c2.6-2.4,4.8-5.2,6.5-8.5c1.6-3.3,2.5-7.2,2.5-11.5c0-4.4-0.8-8.1-2.5-11.5
		c-1.6-3.3-3.9-6.2-6.5-8.5c-2.6-2.4-5.8-4.1-9.2-5.3C570.1,90.2,566.6,89.4,563.1,89.4 M563.1,159.7c-6.5,0-12.6-0.8-18.3-2.4
		c-5.8-1.6-10.8-4.2-15.2-7.9c-4.2-3.5-7.6-8.2-10.2-13.5c-2.5-5.5-3.9-11.8-3.9-19.1s1.3-13.8,3.9-19.2c2.5-5.5,5.9-10,10.2-13.5
		c4.2-3.5,9.3-6.2,15.1-8.1c5.8-1.8,11.9-2.7,18.3-2.7c6.5,0,12.6,0.9,18.3,2.7c5.8,1.8,10.8,4.5,15.1,8.1
		c4.2,3.5,7.9,8.2,10.2,13.5c2.5,5.5,3.6,11.9,3.6,19.2c0,7.3-1.3,13.8-3.6,19.1c-2.5,5.5-5.9,10-10.2,13.5
		c-4.2,3.5-9.3,6.2-15.2,7.9C575.8,158.9,569.5,159.7,563.1,159.7"/>
</g>
<polygon class="st0" points="299.3,169.2 231.4,90.7 231.4,169.2 210.8,169.2 210.8,59.1 232.3,59.1 297.6,134.5 297.6,59.1 
	318.2,59.1 318.2,169.2 "/>
<polygon class="st0" points="479.9,159 462,159 425.2,74.2 445.7,74.2 471.1,133.3 496.3,74.2 516.7,74.2 "/>
<polygon class="st0" points="840.4,159 840.4,90.5 810.7,90.5 810.7,74.2 889,74.2 889,90.5 859.4,90.5 859.4,159 "/>
<rect x="903.1" y="74.2" class="st0" width="19.3" height="84.7"/>
<path class="st0" d="M785.2,122.2l-11.6-27.3l-11.6,27.3H785.2z M801,159l-8.8-20.6h-37l-8.8,20.6h-19.1l37.4-84.7h17.8l37.4,84.7
	H801z"/>
<g>
	<path class="st0" d="M999.2,169.9c-8.1,0-16-1.1-23.5-3.3c-7.5-2.2-14.2-5.8-20-10.5s-10.5-10.6-13.8-17.5
		c-3.4-6.8-5.1-15.2-5.1-24.6c0-9.2,1.6-17.4,5.1-24.3c3.3-7.1,8-13.1,13.8-17.6c5.8-4.7,12.5-8.4,20-10.7
		c7.5-2.4,15.4-3.5,23.5-3.5c16.6,0,31.9,5.5,42,9.8c1.1,0.5,7.9,3.4,7.9,3.4l-10.5,17.4l-1.5-0.9c-10.2-6.2-22-10.1-32.7-11.4
		c-1.9-0.2-3.5-0.2-5.2-0.2h-0.8h-0.5c-4.9,0.1-9.9,0.9-14.3,2.5c-4.9,1.6-9.3,4.1-13.1,7.4c-3.6,3.2-6.7,7.3-8.9,11.8
		c-2.2,4.7-3.3,10-3.3,16s1.1,11.4,3.3,16c2.2,4.7,5.2,8.6,8.9,11.8c3.6,3.2,8.1,5.6,13.1,7.4c4.9,1.6,10.2,2.5,15.8,2.5
		c17.6,0,32.5-8.1,41.8-14.9l1.6-1.1l9.3,16l-1.4,0.9c-11.6,7.4-29.5,16.6-48,17.6C1001.4,169.6,1000.3,169.9,999.2,169.9"/>
</g>
<polygon class="st0" points="698.1,74.2 670.4,124.6 642.8,74.2 624.2,74.2 624.2,159 641,159 641,106.3 670.4,159.3 700,106.3 
	700,159 716.9,159 716.9,74.2 "/>
<g>
	<path class="st0" d="M184,28.4c-5.6-8.6-16.8-14.7-34.3-18.5c-13.5-2.9-30.3-4.5-49-4.5c-18.6,0-35.5,1.5-48.9,4.5
		c-17.5,3.8-28.8,9.8-34.2,18.5c-9.2,14.2-7,34.8-4.6,58.8c0.5,4.4,0.9,9,1.3,13.3c0.8,8.8,2.5,26.3,5.8,43
		c4.7,24.4,9.7,33,13.2,37.4c14.5,18.4,55.4,19.7,67.6,19.7s53-1.4,67.6-19.7c3.4-4.4,8.6-12.9,13.2-37.4c3.2-16.9,5-34.2,5.8-43
		c0.3-4.4,0.8-9,1.3-13.3C191,63.3,193.1,42.6,184,28.4 M181.9,86.5c-0.5,4.4-0.9,9-1.3,13.5c-0.8,8.7-2.5,25.8-5.7,42.4
		c-4.4,23-8.9,30.7-11.9,34.4c-12.9,16.4-54.1,17.3-62.3,17.3c-8.1,0-49.3-0.8-62.3-17.3c-3-3.8-7.5-11.4-11.9-34.4
		c-3.2-16.5-4.9-33.6-5.7-42.4c-0.4-4.5-0.8-9.1-1.3-13.5c-2.3-22.7-4.3-42.3,3.6-54.5c4.6-7.1,14.4-12.2,30.1-15.6
		c13-2.8,29.4-4.3,47.5-4.3s34.5,1.4,47.5,4.3c15.7,3.4,25.5,8.5,30.1,15.6C186.2,44.3,184.2,63.9,181.9,86.5 M100.8,21.8
		c34.9,0,63.2,5.8,69.5,15.5c7.4,11.4,2.9,36.9,0.7,61.9c-2.2,25-7.4,61.4-15.5,71.7c-7.1,9-32.3,13.5-54.7,13.5
		c-22.4,0-47.6-4.6-54.7-13.5c-8.2-10.3-13.4-46.7-15.6-71.7c-2.1-25-6.7-50.5,0.7-61.9C37.6,27.6,65.9,21.8,100.8,21.8 M49.3,56.5
		c-0.9,0.5-1.4,2.2-1.4,2.2l-1,4.4c0,0-0.3,1.1,0.3,2.5c0.7,1.4,5.1,2.2,5.1,2.2s7.7,1.2,10.9,5c3.1,3.8,1.9,9.1,1.9,9.1l-8.4,41.2
		c0,0-0.8,4-2.9,5.9c-2,1.9-5.5,2-5.5,2s-2,0.1-3.3,0.6c-1.1,0.5-1.4,2.3-1.4,2.3l-0.5,2.7c0,0-0.3,1.1,0.3,2.1
		c0.7,1,2.5,1.2,2.5,1.2l42.6,0.3c0,0,1.3-0.1,2-0.8s0.8-2.2,0.8-2.2l0.7-3.9c0,0,0.3-1.2-0.3-1.9c-0.7-0.8-1.3-0.8-3.2-1.2
		c-2-0.5-3.2-1-5.1-2.6c-2.4-2-1.6-5.8-1.6-5.8l3.7-20.7c0,0,0.5-1.5,1.4-1.4c1.4,0.1,2,1.4,2,1.4l20.3,36.3c0,0,0.7,1.2,1.8,2
		c1,0.8,3.5,0.8,3.5,0.8l34.2-0.3c0,0,1.7,0.1,2.6-0.7c1.1-0.9,1.4-2.4,1.4-2.4l0.7-3c0,0,0.5-1.4-0.2-2.7c-0.8-1.6-3.7-2-7.1-2.9
		c-2.5-0.8-5.7-2.5-6.8-4.2c-0.8-1.2,0-3.6,0-3.6l11.4-46.9c0,0,0.3-2,2.3-3.9c1.8-1.8,6.6-2.8,6.6-2.8s1.2-0.3,2-0.9
		c0.5-0.5,0.8-1.6,0.8-1.6l1.3-5.1c0,0,0.3-1.3-0.4-2.2c-0.7-0.8-2.5-0.8-2.5-0.8h-39.2c0,0-1.3-0.1-2.5,0.9
		c-1.1,0.9-1.3,1.9-1.3,1.9l-0.9,4.2c0,0-0.3,1,0.1,1.9c0.5,1,1.5,1.1,1.5,1.1l1.6,0.3c0,0,3.1,0.6,4.6,2.2c1.6,1.6,0.8,5.7,0.8,5.7
		l-5.7,27.4L99.1,62.3c0,0-0.6-1.8-2.9-4.1c-2.2-2.2-5.7-2-5.7-2H51.8C51.9,56,50.3,56,49.3,56.5"/>
</g>
</svg>
