<?xml version="1.0" encoding="utf-8"?>
<!-- Generator: Adobe Illustrator 24.1.2, SVG Export Plug-In . SVG Version: 6.00 Build 0)  -->
<svg version="1.1" id="Layer_1" xmlns="http://www.w3.org/2000/svg" xmlns:xlink="http://www.w3.org/1999/xlink" x="0px" y="0px"
	 viewBox="0 0 257 78.2" style="enable-background:new 0 0 257 78.2;" xml:space="preserve">
<style type="text/css">
	.st0{fill:#FFFFFF;}
</style>
<g>
	<path class="st0" d="M42.6,4.2c2.5,0,4.9,0.2,7.3,0.7c0.2,0,0.5,0.2,0.6,0.4C55.2,13.7,62,19.4,71,22.6c1.2,0.4,2.5,0.7,3.8,1.1
		c0.2,0.1,0.5,0.2,0.6,0.4c2,3.7,3.2,7.7,3.8,11.8c0,0.2-0.1,0.4-0.2,0.6c-2.4,2.6-4.4,5.4-6,8.6c-1.9,3.8-3.1,7.8-3.7,12
		c-0.4,2.9-0.4,5.9,0,8.8c0,0.2-0.1,0.5-0.3,0.7c-3,3.1-6.4,5.5-10.3,7.4c-0.2,0.1-0.5,0.1-0.7,0c-5.5-2.5-11.2-3.6-17.2-3.3
		C36,70.9,31.4,72,27,74c-0.3,0.1-0.5,0.1-0.8,0c-3.6-1.8-6.9-4-9.7-6.9c-0.2-0.1-0.3-0.4-0.2-0.7c0.9-7.1-0.1-13.9-3.1-20.3
		c-1.8-3.8-4.1-7.1-7-10.1C6.1,35.8,6,35.5,6,35.3c0.6-3.9,1.8-7.6,3.6-11.1c0.2-0.4,0.4-0.6,0.9-0.7c10.5-2.6,18.4-8.6,23.8-18
		C34.5,5.2,34.7,5,35,5C37.5,4.5,40,4.2,42.6,4.2z M42.6,67.7c15.1,0,27.2-12.1,27.1-27.2c-0.1-14.8-12.4-26.8-27.6-26.6
		c-14.7,0.3-26.8,12.2-26.6,27.3C15.7,55.9,27.7,67.7,42.6,67.7z"/>
	<path class="st0" d="M150.7,39c0-5.4,0-10.7,0-16.1c0-0.5,0-0.9,0.1-1.4c0.2-1.1,1-1.8,2.1-1.9c0.4-0.1,0.8-0.1,1.2-0.1
		c4.3,0,8.6,0,12.9,0h0.1c2.3,0,3.3,1,3.3,3.3c0,10.9,0,21.8,0,32.6c0,0.3,0,0.7-0.1,1c-0.3,1.4-1.2,2.2-2.7,2.2
		c-4.7,0-9.4,0-14.1,0c-1.8,0-2.7-1-2.8-2.8c0-0.2,0-0.5,0-0.7C150.7,49.8,150.7,44.4,150.7,39z M156.6,24.6c0,9.7,0,19.4,0,29
		c2.7,0,5.3,0,8,0c0-9.7,0-19.3,0-29C161.9,24.6,159.3,24.6,156.6,24.6z"/>
	<path class="st0" d="M231.9,58.6c0-13,0-26,0-39.1c0.2,0,0.4,0,0.6,0c5,0,10,0,15,0c2.5,0,3.4,0.9,3.4,3.4c0,4.9,0,9.9,0,14.8
		c0,1.8-0.8,2.8-2.6,3c-0.6,0.1-1.3,0.1-1.9,0.1c-0.3,0-0.6,0-1,0c2.1,5.9,4.3,11.8,6.4,17.7c-0.2,0-0.3,0-0.4,0c-1.7,0-3.5,0-5.2,0
		c-0.3,0-0.5-0.1-0.6-0.4c-2-5.8-4.1-11.6-6.2-17.5c-0.1-0.3-0.1-0.7-0.1-1.1c0-0.9,0-1.8,0-2.7c1.9,0,3.8,0,5.7,0
		c0-4.2,0-8.2,0-12.4c-2.4,0-4.8,0-7.3,0c0,11.3,0,22.6,0,34C235.8,58.6,233.9,58.6,231.9,58.6z"/>
	<path class="st0" d="M101.2,37c0-4.2,0-8.3,0-12.4c-2.4,0-4.9,0-7.3,0c0,11.4,0,22.7,0,34c-2,0-3.9,0-5.8,0c0-13,0-26,0-39.1
		c0.2,0,0.4,0,0.6,0c5,0,10,0,15,0c0.1,0,0.2,0,0.4,0c2.1,0.1,3.1,1.1,3.1,3.2c0,5,0,10.1,0,15.1c0,1.8-0.8,2.8-2.6,3
		c-0.7,0.1-1.3,0.1-2,0.1c-0.3,0-0.5,0-0.8,0c2.1,5.9,4.3,11.8,6.4,17.7c-0.2,0-0.4,0-0.6,0c-1.7,0-3.3,0-5,0
		c-0.4,0-0.5-0.1-0.7-0.4c-2-5.8-4.1-11.6-6.2-17.4c0-0.1-0.1-0.3-0.1-0.4c0-1.1,0-2.2,0-3.4C97.4,37,99.3,37,101.2,37z"/>
	<path class="st0" d="M141.2,58.6c-1.9,0-3.8,0-5.8,0c-2.5-13-5-26-7.5-39.1c2,0,3.9,0,5.9,0c1.5,9.6,3.2,19.1,4.5,28.2
		c0.2-1.2,0.4-2.9,0.7-4.6c0.7-4.1,1.3-8.2,2-12.3c0.6-3.7,1.2-7.3,1.8-11c0-0.1,0.2-0.4,0.3-0.4c1.8,0,3.6,0,5.5,0
		C146.2,32.6,143.7,45.6,141.2,58.6z"/>
	<path class="st0" d="M190.1,19.5c2,0,3.9,0,5.9,0c1.5,9.5,3.2,19,4.5,28c1.5-9,3-18.5,4.6-28c1.9,0,3.9,0,5.8,0
		c-0.3,1.5-0.6,3-0.8,4.4c-1.1,5.8-2.2,11.7-3.4,17.5c-1.1,5.6-2.1,11.2-3.2,16.8c0,0.2-0.1,0.4-0.4,0.4c-1.8,0-3.6,0-5.5,0
		C195.1,45.6,192.6,32.6,190.1,19.5z"/>
	<path class="st0" d="M212.9,19.5c5.3,0,10.7,0,16,0c0,1.7,0,3.4,0,5.1c-3.4,0-6.8,0-10.2,0c0,3.8,0,7.6,0,11.4c2.9,0,5.8,0,8.7,0
		c0,1.7,0,3.4,0,5.1c-2.9,0-5.8,0-8.7,0c0,4.1,0,8.2,0,12.3c3.4,0,6.8,0,10.3,0c0,1.7,0,3.4,0,5.1c-0.2,0-0.4,0-0.5,0
		c-5,0-10,0-15,0c-0.5,0-0.6-0.1-0.6-0.6c0-12.7,0-25.3,0-38C212.9,19.9,212.9,19.7,212.9,19.5z"/>
	<path class="st0" d="M126.3,19.5c0,1.7,0,3.4,0,5.1c-3.4,0-6.7,0-10.2,0c0,3.8,0,7.6,0,11.4c2.9,0,5.8,0,8.7,0c0,1.7,0,3.4,0,5.1
		c-2.9,0-5.8,0-8.7,0c0,4.1,0,8.2,0,12.3c3.4,0,6.8,0,10.3,0c0,1.8,0,3.4,0,5.1c-5.4,0-10.7,0-16.1,0c0-13,0-26,0-39.1
		C115.7,19.5,121,19.5,126.3,19.5z"/>
	<path class="st0" d="M173.9,19.5c1.9,0,3.8,0,5.8,0c0,11.3,0,22.5,0,33.9c3.2,0,6.3,0,9.5,0c0,1.8,0,3.5,0,5.2
		c-5.1,0-10.2,0-15.3,0C173.9,45.6,173.9,32.6,173.9,19.5z"/>
	<path class="st0" d="M173.3,68.6c0,1.3,0.1,2.6,0,3.8c-0.1,0.9-0.7,1.3-1.7,1.3c-1.8,0-3.6,0-5.5,0c-0.5,0-1,0-1.5,0
		c-1,0-1.6-0.5-1.6-1.6c0-2,0-4.1,0-6.1c0-1,0.5-1.5,1.6-1.5c2.4,0,4.8,0,7.1,0c1.2,0,1.8,0.9,1.6,2.1c0,0.1-0.1,0.2-0.2,0.3
		c-0.4,0.1-0.8,0.2-1.3,0.3c0-0.5,0-0.9,0-1.3c-2.5,0-4.8,0-7.3,0c0,2.2,0,4.5,0,6.7c2.4,0,4.8,0,7.2,0c0-0.9,0-1.8,0-2.7
		c-1.2,0-2.4,0-3.7,0c0-0.4,0-0.7,0-1.1C169.8,68.6,171.5,68.6,173.3,68.6z"/>
	<path class="st0" d="M251.1,69.7c-1.3,0-2.5,0-3.8,0c0-0.4,0-0.8,0-1.1c1.8,0,3.5,0,5.3,0c-0.1,1.4-0.1,2.7-0.2,4.1
		c-0.1,0.7-0.7,1.1-1.5,1.1c-1,0-2,0-3,0c-1.3,0-2.5,0-3.8,0s-1.9-0.4-1.9-1.7c-0.1-2,0-4,0-6c0-1.1,0.6-1.5,1.7-1.6
		c1.9,0,3.8,0,5.7,0c0.3,0,0.7,0,1,0c1.5,0.1,2.1,0.8,1.8,2.3c-0.5,0.1-0.9,0.2-1.5,0.3c0-0.5,0-0.9,0-1.3c-0.2,0-0.4,0-0.5,0
		c-2.1,0-4.2,0-6.3,0c-0.4,0-0.5,0.1-0.5,0.5c0,1.9,0,3.9,0,5.8c0,0.4,0.1,0.5,0.5,0.5c2.1,0,4.2,0,6.4,0c0.4,0,0.5-0.1,0.5-0.5
		C251.1,71.3,251.1,70.6,251.1,69.7z"/>
	<path class="st0" d="M202.2,70.5c0.6-0.9,1.2-1.7,1.7-2.5c0.7-1,1.4-2,2.1-3c0.3-0.4,0.6-0.6,1.1-0.6c0.2,0,0.4,0,0.7,0
		c0,3.1,0,6.2,0,9.3c-0.4,0-0.9,0-1.3,0c0-2.4,0-4.9,0-7.4c-0.2,0.3-0.3,0.5-0.5,0.7c-1.1,1.7-2.3,3.4-3.4,5c-0.3,0.4-0.5,0.4-0.8,0
		c-1.3-1.8-2.7-3.7-4.1-5.5c0,2.4,0,4.8,0,7.2c-0.4,0-0.8,0-1.3,0c0-3.1,0-6.1,0-9.2c0.8-0.2,1.3-0.1,1.8,0.7
		C199.5,67,200.9,68.7,202.2,70.5z"/>
	<path class="st0" d="M233.5,71.6c0-2.3,0-4.7,0-7.1c0.4,0,0.8,0,1.3,0c0,3.1,0,6.1,0,9.2c-0.4,0.1-0.8,0.1-1.2-0.3
		c-2.3-2.1-4.7-4.3-7-6.4c-0.2-0.2-0.4-0.4-0.6-0.6c0,2.4,0,4.8,0,7.2c-0.4,0-0.9,0-1.3,0c0-3.1,0-6.1,0-9.2c0.5-0.1,1,0,1.4,0.4
		c2.1,1.9,4.2,3.8,6.3,5.7C232.7,70.9,233.1,71.3,233.5,71.6z"/>
	<path class="st0" d="M178.8,73.8c0.3-0.5,0.5-0.9,0.7-1.3c1.4-2.5,2.8-5,4.1-7.6c0.2-0.3,0.4-0.4,0.7-0.5c0.9-0.1,1.4,0.2,1.8,1
		c1.4,2.6,2.8,5.1,4.2,7.6c0.1,0.2,0.2,0.4,0.3,0.6c-0.5,0-1,0-1.5,0c-0.1,0-0.3-0.2-0.4-0.3c-0.3-0.5-0.6-1.1-0.9-1.6
		c-0.1-0.2-0.3-0.3-0.5-0.3c-1.9,0-3.7,0-5.6,0c-0.2,0-0.4,0.2-0.5,0.3c-0.3,0.5-0.5,1-0.8,1.5c-0.1,0.3-0.3,0.5-0.7,0.4
		C179.5,73.7,179.2,73.8,178.8,73.8z M184.6,65.5c-0.8,1.6-1.7,3.1-2.5,4.7c1.7,0,3.3,0,5,0C186.3,68.7,185.5,67.1,184.6,65.5z"/>
	<path class="st0" d="M215.5,64.5c0.5,0,1,0,1.5,0c0,3.1,0,6.1,0,9.2c-0.5,0-0.9,0-1.5,0C215.5,70.7,215.5,67.6,215.5,64.5z"/>
	<path class="st0" d="M42.2,54c-1.4,0-2.7,0-3.9,0c-0.1,0-0.3-0.2-0.4-0.4c-1.1-2.9-2.1-5.9-3.1-8.8c-0.2-0.6-0.4-1.2-0.6-1.7
		c-0.6-1.3-0.6-2.6-0.5-4c1.3,0,2.6,0,3.9,0c0-2.9,0-5.7,0-8.5c-1.7,0-3.3,0-5,0c0,7.8,0,15.6,0,23.4c-1.4,0-2.7,0-4,0
		c0-8.9,0-17.9,0-26.9c0.2,0,0.3,0,0.5,0c3.4,0,6.9,0,10.3,0c1.6,0,2.3,0.7,2.3,2.3c0,3.4,0,6.8,0,10.1c0,1.5-0.6,2.2-2.1,2.3
		c-0.5,0-1,0-1.7,0C39.2,45.9,40.7,49.9,42.2,54z"/>
	<path class="st0" d="M50.1,39.6c2.3,0,4.6,0,6.9,0c0,0.2,0,0.4,0,0.5c0,3.9,0,7.8,0,11.6c0,0.1,0,0.2,0,0.3c-0.1,1.3-0.7,1.9-2,2
		c-3.1,0-6.2,0-9.4,0c-1.3,0-2-0.7-2-2c0-7.6,0-15.3,0-22.9c0-1.3,0.7-2,2-2c3.1,0,6.2,0,9.4,0c1.2,0,1.9,0.6,2,1.9
		c0.1,2.1,0,4.2,0,6.3c-1.3,0-2.6,0-4,0c0-1.6,0-3.1,0-4.7c-1.8,0-3.5,0-5.2,0c0,6.6,0,13.3,0,19.9c0.1,0,0.2,0,0.3,0
		c1.5,0,3,0,4.4,0c0.3,0,0.5-0.1,0.5-0.4c0-2.2,0-4.5,0-6.7c0-0.3-0.1-0.4-0.4-0.4c-0.8,0-1.6,0-2.5,0
		C50.1,41.8,50.1,40.7,50.1,39.6z"/>
</g>
</svg>
