<?xml version="1.0" encoding="utf-8"?>
<!-- Generator: Adobe Illustrator 24.1.2, SVG Export Plug-In . SVG Version: 6.00 Build 0)  -->
<svg version="1.1" id="Layer_1" xmlns="http://www.w3.org/2000/svg" xmlns:xlink="http://www.w3.org/1999/xlink" x="0px" y="0px"
	 viewBox="0 0 257 45.7" style="enable-background:new 0 0 257 45.7;" xml:space="preserve">
<style type="text/css">
	.st0{fill:#FFFFFF;}
	.st1{fill:url(#SVGID_1_);}
</style>
<g>
	<g>
		<g>
			<path class="st0" d="M20.4,11.5c0.5,0,0.9,0.2,0.9,0.9v2.1c0,0.6-0.3,0.9-0.9,0.9h-4.8v18.1c0,0.6-0.2,0.9-0.9,0.9h-2.9
				c-0.6,0-0.9-0.3-0.9-0.9V15.4H6.2c-0.6,0-0.9-0.2-0.9-0.9v-2.1c0-0.6,0.2-0.9,0.9-0.9H20.4z"/>
			<path class="st0" d="M27.4,28.3c0,1.7,1.4,2.6,3.6,2.6s3.6-0.9,3.6-2.6V12.4c0-0.6,0.2-0.9,0.9-0.9h2.9c0.6,0,0.7,0.3,0.7,0.9
				v16.7c0,2.8-2,5.4-8.1,5.4S23,31.9,23,29.1V12.4c0-0.6,0.2-0.9,0.9-0.9h2.9c0.5,0,0.9,0.3,0.9,0.9v15.9H27.4z M30.3,9
				c0,0.6-0.2,0.9-0.9,0.9h-1.6C27.3,9.8,27,9.6,27,9V5.8c0.1-0.5,0.3-0.9,1-0.9h1.6c0.6,0,0.7,0.3,0.7,0.9V9z M35,9
				c0,0.6-0.2,0.9-0.7,0.9h-1.6c-0.6,0-0.9-0.2-0.9-0.9V5.8c0-0.6,0.2-0.9,0.9-0.9h1.6c0.5,0,0.7,0.3,0.7,0.9V9z"/>
			<path class="st0" d="M47.3,25.6v7.8c0,0.6-0.2,0.9-0.9,0.9h-2.9c-0.6,0-0.9-0.3-0.9-0.9v-21c0-0.6,0.2-0.9,0.9-0.9h7
				c6.1,0,8.1,2.7,8.1,5.4v3.2c0,2-1,3.8-3.7,4.8l3.6,8.4c0.2,0.5-0.2,0.9-0.7,0.9h-3c-0.4,0-0.6-0.3-0.9-0.9l-3.3-7.8h-0.2
				C50.5,25.6,47.3,25.6,47.3,25.6z M47.3,15.3v6.6h3.3c2.2,0,3.6-0.9,3.6-2.6v-1.6c0-1.7-1.4-2.6-3.6-2.6h-3.3V15.3z"/>
			<path class="st0" d="M78.8,33.4c0.3,0.4,0.2,0.9-0.4,0.9h-3.7c-0.5,0-0.9-0.4-1.2-0.9l-6.3-8.7h-0.6v8.7c0,0.5-0.2,0.9-0.9,0.9
				h-2.9c-0.6,0-0.9-0.3-0.9-0.9v-21c0-0.5,0.2-0.9,0.9-0.9h2.9c0.6,0,0.9,0.3,0.9,0.9v8.9H67l6-8.9c0.3-0.4,0.7-0.9,1.4-0.9h3.1
				c0.6,0,0.7,0.4,0.4,0.9l-7,10.3L78.8,33.4z"/>
			<path class="st0" d="M88.7,35.7c1.7,0,3,0.9,3,2.8s-1.2,2.8-3,2.8h-3.9c-0.6,0-0.9-0.2-0.9-0.9v-0.6c0-0.6,0.2-0.9,0.9-0.9H88
				c0.3,0,0.6-0.1,0.6-0.5c0-0.3-0.3-0.5-0.6-0.5h-2.6c-1,0-1.3-0.4-1.1-1.1l0.7-2.6c-4-0.6-5.3-2.9-5.3-5.2V16.6
				c0-2.8,1.8-5.4,7.9-5.4s7.9,2.7,7.9,5.4v1.6c0,0.6-0.2,0.9-0.7,0.9h-2.8c-0.6,0-0.9-0.2-0.9-0.9v-0.9c0-1.7-1.2-2.6-3.4-2.6
				c-2.2,0-3.4,0.9-3.4,2.6v10.8c0,1.7,1.2,2.6,3.4,2.6c2.2,0,3.4-0.9,3.4-2.6v-1.3c0-0.6,0.2-0.9,0.9-0.9h2.8
				c0.5,0,0.7,0.2,0.7,0.9v2c0,2.8-1.7,5.3-7.6,5.4l-0.3,1.3h1V35.7z"/>
			<path class="st0" d="M99.1,34.2c-0.6,0-0.9-0.3-0.9-0.9v-21c0-0.6,0.2-0.9,0.9-0.9h11.4c0.5,0,0.9,0.2,0.9,0.9v2.1
				c0,0.6-0.3,0.9-0.9,0.9h-7.7v5.4h7.1c0.6,0,0.9,0.2,0.9,0.9v2c0,0.5-0.3,0.9-0.9,0.9h-7.1v6h8.1c0.6,0,0.9,0.2,0.9,0.9v2.1
				c0,0.6-0.2,0.9-0.9,0.9L99.1,34.2L99.1,34.2z"/>
			<path class="st0" d="M135.6,29c0,2.8-1.8,5.4-7.9,5.4c-6.1,0-7.9-2.7-7.9-5.4V16.6c0-2.8,1.8-5.4,7.9-5.4c6.1,0,7.9,2.7,7.9,5.4
				v1.6c0,0.6-0.2,0.9-0.7,0.9h-2.8c-0.6,0-0.9-0.2-0.9-0.9v-0.9c0-1.7-1.2-2.6-3.4-2.6s-3.4,0.9-3.4,2.6v10.8
				c0,1.7,1.2,2.6,3.4,2.6s3.4-0.9,3.4-2.6v-1.3c0-0.6,0.2-0.9,0.9-0.9h2.8c0.5,0,0.7,0.2,0.7,0.9V29z"/>
			<path class="st0" d="M146.8,11.5c0.6,0,0.9,0.3,1.1,0.9l6.2,21.1c0.2,0.5,0,0.9-0.6,0.9h-3c-0.5,0-0.9-0.3-1-0.9l-1.2-4h-6.2
				l-1.2,4c-0.2,0.5-0.4,0.9-1,0.9h-2.7c-0.6,0-0.9-0.3-0.6-0.9l6.3-21.1c0.2-0.5,0.4-0.9,1.1-0.9H146.8z M146.2,22.1
				c-0.4-1.4-1-5.6-1-6.1c-0.1,0.4-0.6,4.7-1.1,6.1l-1.2,3.7h4.3L146.2,22.1z"/>
			<path class="st0" d="M166.1,17.3c0-1.6-1.1-2.4-3.2-2.4c-2.1,0-3.3,0.7-3.3,2.4v0.5c0,1.2,0.9,1.6,1.4,1.8l5.9,2
				c2.2,0.9,3.9,2.3,3.9,4.8V29c0,2.8-2,5.4-8,5.4s-8-2.7-8-5.4v-2.1c0-0.6,0.2-0.9,0.9-0.9h2.8c0.6,0,0.9,0.3,0.9,0.9v1.5
				c0,1.6,1.3,2.4,3.5,2.4c2.2,0,3.5-0.7,3.5-2.4v-1.1c0-1.4-1.4-1.9-2.9-2.4l-5.2-1.9c-1.6-0.6-3.1-2.3-3.1-4.3v-2
				c0-2.8,1.7-5.4,7.6-5.4s7.7,2.7,7.7,5.4V18c0,0.5-0.2,0.9-0.9,0.9h-2.8c-0.5,0-0.7-0.3-0.7-0.9L166.1,17.3L166.1,17.3z"/>
			<path class="st0" d="M178.2,33.4c0,0.6-0.2,0.9-0.9,0.9h-2.9c-0.6,0-0.9-0.3-0.9-0.9v-21c0-0.6,0.2-0.9,0.9-0.9h2.9
				c0.6,0,0.9,0.3,0.9,0.9V33.4z"/>
			<path class="st0" d="M198.2,33.4c0,0.5-0.2,0.9-0.9,0.9h-2.7c-0.4,0-0.6-0.1-0.7-0.4l-6.5-11.1c-0.9-1.5-1.3-2.6-1.4-2.7v13.3
				c0,0.5-0.2,0.9-0.9,0.9h-2.7c-0.6,0-0.9-0.3-0.9-0.9v-21c0-0.5,0.2-0.9,0.9-0.9h2.7c0.3,0,0.5,0.1,0.7,0.3l6.7,11.5
				c0.5,1,1.2,2.3,1.2,2.3V12.4c0-0.5,0.2-0.9,0.9-0.9h2.7c0.6,0,0.9,0.3,0.9,0.9L198.2,33.4L198.2,33.4z"/>
			<path class="st0" d="M201.8,16.6c0-2.8,2-5.4,8.1-5.4c6.1,0,8.1,2.7,8.1,5.4V29c0,2.8-2,5.4-8.1,5.4c-6.1,0-8.1-2.7-8.1-5.4V16.6
				z M213.5,17.5c0-1.7-1.4-2.6-3.6-2.6c-2.2,0-3.6,0.9-3.6,2.6v10.8c0,1.7,1.4,2.6,3.6,2.6s3.6-0.9,3.6-2.6V17.5z"/>
		</g>
	</g>
	<g>
		
			<linearGradient id="SVGID_1_" gradientUnits="userSpaceOnUse" x1="221.2716" y1="25.872" x2="254.7757" y2="25.872" gradientTransform="matrix(1 0 0 -1 0 47)">
			<stop  offset="0" style="stop-color:#CF1400"/>
			<stop  offset="1" style="stop-color:#CF1400"/>
		</linearGradient>
		<circle class="st1" cx="238" cy="21.1" r="16.7"/>
		<g>
			<polygon class="st0" points="245.7,16.9 247.6,19.4 250.7,18.6 248.8,21.1 250.7,24 247.6,22.8 245.7,25.7 245.7,22.3 
				242.3,21.1 245.7,20.3 			"/>
			<path class="st0" d="M237.2,28.8c-4.2,0-7.6-3.4-7.6-7.6s3.4-7.6,7.6-7.6c2.8,0,5.4,1.4,6.5,4c-1.4-3.4-4.8-5.9-8.8-5.9
				c-5.4,0-9.6,4.2-9.6,9.6s4.2,9.6,9.6,9.6c4,0,7.3-2.5,8.8-5.9C242.5,27.3,240,28.8,237.2,28.8z"/>
		</g>
	</g>
</g>
</svg>
