<?xml version="1.0" encoding="utf-8"?>
<!-- Generator: Adobe Illustrator 26.1.0, SVG Export Plug-In . SVG Version: 6.00 Build 0)  -->
<svg version="1.1" id="Layer_1" xmlns="http://www.w3.org/2000/svg" xmlns:xlink="http://www.w3.org/1999/xlink" x="0px" y="0px"
	 viewBox="0 0 1056.6 202" style="enable-background:new 0 0 1056.6 202;" xml:space="preserve">
<g>
	<path style="fill:#FFFFFF;" d="M236.9,105.6l-8.6-33.9h16.9l2.9,18.6h0.5l10.9-18.6h17.3l-23,33.9l-3.5,16.1h-17L236.9,105.6z"/>
	<path style="fill:#FFFFFF;" d="M271.3,113.5c0-2.6,0.3-6,1.2-10.2c3.1-15.1,7-19.2,14.4-19.2c4,0,7.7,0.5,9.6,4.2h0.7l1.2-3.7h15.1
		l-7.8,37.1h-15l0.7-4.1h-0.8c-2.6,3.9-6,4.7-9.3,4.7C274.5,122.3,271.3,120.4,271.3,113.5z M292.7,108.5c0.7-2,2.3-9,2.3-10.8
		c0-1.5-0.5-1.6-2.4-1.6c-3,0-3.1,0.1-4.6,7.1c-0.7,2.9-0.9,4.6-0.9,5.7c0,1.4,0.7,1.5,2.5,1.5C291.6,110.3,292.1,110.2,292.7,108.5
		z"/>
	<path style="fill:#FFFFFF;" d="M313.3,111.4l17.2-15.8h-12.9l2.3-10.9h32.9L350.6,95l-17.2,15.8h14l-2.3,10.9h-33.9L313.3,111.4z"
		/>
	<path style="fill:#FFFFFF;" d="M373,111.1c0-3.7,1.2-8.6,2.4-15.1c3.9-20.2,5.3-24.9,26.2-24.9c15.5,0,20.1,2.9,20.1,11.3
		c0,3.8-0.9,8.6-2.3,15c-4.7,20.3-5.4,24.9-26,24.9C377.7,122.3,373,119.4,373,111.1z M402.5,96.7c1.2-5.5,1.8-8.9,1.8-10.8
		c0-2.6-1.2-2.7-4.1-2.7c-5.1,0-5.2,0.3-7.9,13.4c-1.2,5.7-2,9-2,10.9c0,2.5,1.2,2.5,4.1,2.5C399.5,110.2,399.6,109.9,402.5,96.7z"
		/>
	<path style="fill:#FFFFFF;" d="M421.1,135.6l2-9.8h9.6c8,0,8.2,0,9.4-5.6c0.3-1.2,0.5-2.5,0.8-3.8h-0.7c-3.1,3.9-6.8,4.7-9.5,4.7
		c-7.2,0-9.4-2.8-9.4-7.8c0-1.9,0.3-4.1,0.9-6.6l4.7-22h15.6l-3.9,18.4c-0.5,2.4-0.8,3.9-0.8,4.7c0,1.3,0.6,1.3,2,1.3
		c2.5,0,2.7-0.1,4-6l3.9-18.4h15.6l-7,33.1c-2.6,12.4-3.6,19-23.8,19C429.5,136.7,424,136.3,421.1,135.6z"/>
	<path style="fill:#FFFFFF;" d="M465.8,114.5c0-2,0.7-5.6,1.4-9.1l4.4-20.7h15.5l-3.9,18.6c-0.5,2.3-0.9,4.6-0.9,5.5
		c0,1.4,0.5,1.5,1.7,1.5c2.8,0,3-0.4,4.2-6l4.2-19.5h15.5l-7.8,37.1h-15l0.6-4.1h-0.7c-3.1,3.9-7.2,4.7-10,4.7
		C467.8,122.3,465.8,119.7,465.8,114.5z"/>
	<path style="fill:#FFFFFF;" d="M514.5,84.7h15l-0.6,4.1h0.7c3.1-3.9,7.2-4.7,10-4.7c7,0,9,2.5,9,7.6c0,2-0.6,5.6-1.3,9.1l-4.5,21
		h-15.5l3.9-18.6c0.5-2.3,0.9-4.6,0.9-5.5c0-1.4-0.5-1.5-1.7-1.5c-2.8,0-3,0.4-4.2,6l-4.2,19.6h-15.5L514.5,84.7z"/>
	<path style="fill:#FFFFFF;" d="M560.8,67.7h15.8l-11.4,54h-15.8L560.8,67.7z"/>
	<path style="fill:#FFFFFF;" d="M573.2,113.5c0-2.6,0.3-6,1.2-10.2c3.1-15.1,7-19.2,14.4-19.2c4,0,7.7,0.5,9.6,4.2h0.7l1.2-3.7h15.1
		l-7.8,37.1h-15l0.7-4.1h-0.8c-2.6,3.9-6,4.7-9.3,4.7C576.4,122.3,573.2,120.4,573.2,113.5z M594.6,108.5c0.7-2,2.3-9,2.3-10.8
		c0-1.5-0.5-1.6-2.4-1.6c-3,0-3.1,0.1-4.6,7.1c-0.7,2.9-0.9,4.6-0.9,5.7c0,1.4,0.7,1.5,2.5,1.5C593.5,110.3,594,110.2,594.6,108.5z"
		/>
	<path style="fill:#FFFFFF;" d="M621.9,84.7h15l-1,6.2h0.7c3.2-5.5,5.9-6.8,12.6-6.8l-2.9,13.5c-9.7,0-12,1.8-14.1,11.7l-2.7,12.4
		H614L621.9,84.7z"/>
	<path style="fill:#FFFFFF;" d="M653.7,84.7h15.8l-7.8,37.1h-15.8L653.7,84.7z"/>
</g>
<g id="Livello_70">
	<path style="fill:#FFFFFF;" d="M51,95.4H30.7c-3.7,0-6.8,3-6.8,6.7s3,6.7,6.8,6.7H51c3.7,0,6.8-3,6.8-6.7
		C57.7,98.4,54.7,95.4,51,95.4 M70.9,125.6C84,148.2,113,156,135.6,142.9c22.7-13,30.4-41.9,17.3-64.5S110.9,48,88.2,61.1
		C65.6,74.1,57.8,103,70.9,125.6 M62.5,66L44.9,55.9c-3.2-1.9-7.4-0.7-9.2,2.5c-1.9,3.2-0.8,7.4,2.5,9.2l17.6,10.1
		c3.2,1.9,7.4,0.7,9.2-2.5C66.8,72,65.7,67.8,62.5,66 M87.3,46L77.2,28.5c-1.9-3.2-6-4.3-9.2-2.5c-3.2,1.9-4.3,6-2.5,9.2l10.2,17.5
		c1.9,3.2,6,4.3,9.2,2.5C88.1,53.4,89.2,49.2,87.3,46 M120.1,21.7c0-3.7-3-6.7-6.8-6.7c-3.7,0-6.8,3-6.8,6.7V42c0,3.7,3,6.7,6.8,6.7
		c3.7,0,6.8-3,6.8-6.7V21.7L120.1,21.7z M156.8,27.4c-3.2-1.9-7.4-0.7-9.2,2.5l-10.2,17.5c-1.9,3.2-0.8,7.4,2.5,9.2
		c3.2,1.9,7.4,0.8,9.2-2.5l10.2-17.5C161.1,33.4,160,29.2,156.8,27.4 M168.2,77.5l17.6-10.1c3.2-1.9,4.3-6,2.5-9.2
		c-0.5-0.8-1.1-1.5-1.8-2c-2.1-1.6-5.1-1.9-7.5-0.5l-17.6,10.1c-3.2,1.9-4.3,6-2.5,9.2c0.5,0.8,1.1,1.5,1.8,2
		C162.8,78.7,165.8,78.9,168.2,77.5 M172.9,108.7h20.3c3.7,0,6.8-3,6.8-6.7s-3-6.7-6.8-6.7h-20.3c-3.7,0-6.8,3-6.8,6.7
		S169.2,108.7,172.9,108.7 M161.4,138.3l17.6,10.1c3.2,1.9,7.4,0.7,9.2-2.5c1.9-3.2,0.8-7.4-2.5-9.2l-17.6-10.1
		c-3.2-1.9-7.4-0.7-9.2,2.5C157,132.3,158.1,136.5,161.4,138.3 M136.5,158l10.2,17.5c1.9,3.2,6,4.3,9.2,2.5c3.2-1.9,4.3-6,2.5-9.2
		l-10.2-17.5c-1.9-3.2-6-4.3-9.2-2.5C135.8,150.6,134.7,154.8,136.5,158 M106.6,183.8c0,3.7,3,6.7,6.8,6.7c3.7,0,6.8-3,6.8-6.7
		v-20.2c0-3.7-3-6.7-6.8-6.7c-3.7,0-6.8,3-6.8,6.7V183.8z M68.7,179.5c3.2,1.9,7.4,0.7,9.2-2.5l10.2-17.5c1.9-3.2,0.8-7.4-2.5-9.2
		c-3.2-1.9-7.4-0.8-9.2,2.5l-10.2,17.5C64.4,173.5,65.5,177.6,68.7,179.5 M35.7,146c1.9,3.2,6,4.3,9.2,2.5l17.6-10.1
		c2.4-1.4,3.7-4.1,3.3-6.7c-0.1-0.9-0.4-1.7-0.9-2.6c-1.9-3.2-6-4.3-9.2-2.5l-17.6,10.1c-2.4,1.4-3.7,4.1-3.3,6.7
		C35,144.3,35.3,145.2,35.7,146"/>
</g>
<g id="Livello_1_1_">
</g>
</svg>
