<?xml version="1.0" encoding="utf-8"?>
<!-- Generator: Adobe Illustrator 24.1.2, SVG Export Plug-In . SVG Version: 6.00 Build 0)  -->
<svg version="1.1" id="Layer_1" xmlns="http://www.w3.org/2000/svg" xmlns:xlink="http://www.w3.org/1999/xlink" x="0px" y="0px"
	 viewBox="0 0 105.4 33.3" style="enable-background:new 0 0 105.4 33.3;" xml:space="preserve">
<style type="text/css">
	.st0{fill:#FFFFFF;}
</style>
<g>
	<g>
		<path class="st0" d="M23.9,29.8c0.6,0,1.1,0,1.6,0l0,0c-0.2,0.1-0.4,0.3-0.6,0.4c-1.9,1.2-4,1.9-6.2,2.2c-4.8,0.6-9-0.7-12.7-3.9
			c-1.8-1.6-3.2-3.5-4.1-5.7c-0.6-1.3-0.9-2.7-1.1-4.1c-0.2-1.3-0.2-2.6,0-3.9c0.3-2.3,1-4.4,2.2-6.4C3.3,8,3.6,7.6,3.9,7.2
			c0-0.1,0.1-0.1,0.2-0.1c0.5,0,1,0,1.5,0c0.1,0,0.2,0,0.2,0.2c0,0.6,0,1.2,0,1.8c0,0.1,0,0.2-0.1,0.3c-1.1,1.6-1.8,3.4-2.1,5.3
			c-0.3,2-0.2,3.9,0.4,5.8c0.7,2.4,2,4.4,3.9,6.1c0.8,0.7,1.7,1.4,2.7,1.9c1.5,0.8,3.2,1.3,4.9,1.4c1.9,0.2,3.8-0.1,5.7-0.7
			c0.9-0.3,1.8-0.8,2.7-1.4c0,0,0,0,0.1-0.1C23.9,28.3,23.9,29.1,23.9,29.8z"/>
		<path class="st0" d="M25.6,11.9H6.3c-1,0-1.8,0.8-1.8,1.8v7.2c0,1,0.8,1.8,1.8,1.8h19.3c1,0,1.8-0.8,1.8-1.8v-7.2
			C27.4,12.7,26.6,11.9,25.6,11.9z M10.4,15.1c-0.6,1.1-1.4,2.9-1.6,4c0.3,0,0.5,0.3,0.5,0.6c0,0.3-0.3,0.6-0.6,0.6H7.5
			c-0.3,0-0.6-0.3-0.6-0.6s0.3-0.6,0.6-0.6h0.1C7.8,18,8.5,16.5,9,15.5H8.1c0,0.3-0.3,0.6-0.6,0.6c-0.3,0-0.6-0.3-0.6-0.6v-0.6
			c0-0.3,0.3-0.6,0.6-0.6h2.4c0.2,0,0.4,0.1,0.5,0.3C10.5,14.7,10.5,15,10.4,15.1z M12.9,20.9c0,0.3-0.3,0.6-0.6,0.6
			s-0.6-0.3-0.6-0.6v-7.2c0-0.3,0.3-0.6,0.6-0.6s0.6,0.3,0.6,0.6V20.9z M17.7,15.1c-0.6,1.1-1.4,2.9-1.6,4c0.3,0,0.5,0.3,0.5,0.6
			c0,0.3-0.3,0.6-0.6,0.6h-1.2c-0.3,0-0.6-0.3-0.6-0.6s0.3-0.6,0.6-0.6h0.1c0.2-1.1,0.9-2.6,1.4-3.6h-0.8c0,0.3-0.3,0.6-0.6,0.6
			s-0.6-0.3-0.6-0.6v-0.6c0-0.3,0.3-0.6,0.6-0.6h2.4c0.2,0,0.4,0.1,0.5,0.3C17.7,14.7,17.8,15,17.7,15.1z M20.1,20.9
			c0,0.3-0.3,0.6-0.6,0.6c-0.3,0-0.6-0.3-0.6-0.6v-7.2c0-0.3,0.3-0.6,0.6-0.6c0.3,0,0.6,0.3,0.6,0.6V20.9z M24.9,15.1
			c-0.6,1.1-1.4,2.9-1.6,4c0.3,0,0.5,0.3,0.5,0.6c0,0.3-0.3,0.6-0.6,0.6H22c-0.3,0-0.6-0.3-0.6-0.6s0.3-0.6,0.6-0.6l0,0
			c0.2-1.1,0.9-2.6,1.4-3.6h-0.8c0,0.3-0.3,0.6-0.6,0.6c-0.3,0-0.6-0.3-0.6-0.6v-0.6c0-0.3,0.3-0.6,0.6-0.6h2.4
			c0.2,0,0.4,0.1,0.5,0.3C25,14.7,25,15,24.9,15.1z"/>
		<path class="st0" d="M31.6,11v6.5c0,0.3-0.3,0.6-0.6,0.6h-1.1c0,0.2,0,0.3-0.1,0.5c-0.2,1.8-0.8,3.5-1.8,5
			c-0.2,0.3-0.4,0.5-0.5,0.8s0,0.6,0,0.9c0,0.4,0,0.7,0,1.1c0.6,0,1.2,0,1.7,0c0.1,0,0.1-0.1,0.2-0.1c0.9-1.1,1.6-2.4,2.1-3.7
			c1-2.7,1.3-5.5,0.9-8.3C32.3,13.1,32,12,31.6,11z"/>
		<path class="st0" d="M29.9,10.5c-0.7-0.2-1.2-0.9-1.2-1.7c0-0.5,0.2-1,0.6-1.3c-1.8-2.6-4.2-4.4-7.1-5.6c-1.3-0.5-2.6-0.8-4-1
			c-1.5-0.2-3.1-0.1-4.6,0.1c-2.2,0.4-4.2,1.2-6.1,2.4L7.4,3.5c0.6,0,1.1,0,1.6,0c0,0.7,0,1.4,0,2.2c0.1-0.1,0.2-0.1,0.2-0.1
			c2-1.3,4.2-2,6.5-2.1c1.9-0.1,3.7,0.2,5.5,0.9c2.6,1,4.7,2.7,6.2,5.1c1.4,2.2,2.1,4.6,2.1,7.2h0.4C29.9,16.7,29.9,10.5,29.9,10.5z
			"/>
		<path class="st0" d="M30.8,7c-0.5,0-0.9,0.2-1.2,0.5C29.2,7.8,29,8.3,29,8.8c0,0.8,0.5,1.5,1.2,1.7v6.1h-0.4H29v-1.8
			c0-0.8-0.5-1.5-1.2-1.7v8.2c0.7-0.2,1.2-0.9,1.2-1.7v-1.8h0.7h1.1c0.3,0,0.6-0.3,0.6-0.6v-6.5v-0.3c0.7-0.2,1.2-0.9,1.2-1.7
			C32.6,7.8,31.8,7,30.8,7z"/>
		<path class="st0" d="M24.9,28.9c0-0.1,0-0.1,0-0.1c0-1.9,0-3.8,0-5.7c0-0.4,0.2-0.7,0.6-0.8c0.3-0.1,0.7,0,0.9,0.3
			c0.1,0.2,0.2,0.4,0.2,0.6c0,1.3,0,2.6,0,3.9c0,0.3,0,0.3,0.3,0.3c1.3,0,2.6,0,3.9,0c0.6,0,1.1,0.6,0.8,1.2
			c-0.2,0.3-0.4,0.5-0.8,0.5c-1.6,0-3.3,0-4.9,0C25.5,28.9,25.2,28.9,24.9,28.9z"/>
		<path class="st0" d="M8.4,4.5c0,0.1,0,0.1,0,0.2c0,1.9,0,3.8,0,5.7c0,0.5-0.4,0.9-0.8,0.9c-0.5,0-0.8-0.4-0.8-0.9
			c0-1.3,0-2.6,0-3.9c0-0.3-0.1-0.3-0.3-0.3c-1.3,0-2.6,0-3.9,0c-0.7,0-1-0.7-0.8-1.2c0.1-0.4,0.3-0.5,0.7-0.5c0.5,0,1,0,1.5,0
			c1.4,0,2.8,0,4.2,0C8.2,4.5,8.3,4.5,8.4,4.5z"/>
	</g>
	<g>
		<path class="st0" d="M41.7,8c0.3,0,0.4,0.1,0.4,0.4v1.1c0,0.3-0.1,0.4-0.4,0.4h-4.5v2.9h4.2c0.3,0,0.4,0.1,0.4,0.4v1.1
			c0,0.3-0.1,0.4-0.4,0.4h-4.2v4.9c0,0.3-0.1,0.5-0.4,0.5h-1.5c-0.3,0-0.4-0.1-0.4-0.5V8.5C34.9,8.2,35,8,35.3,8H41.7z"/>
		<path class="st0" d="M45.9,15.5v4.1c0,0.3-0.1,0.5-0.4,0.5H44c-0.3,0-0.4-0.1-0.4-0.5V8.5C43.6,8.2,43.7,8,44,8h3.7
			c3.2,0,4.3,1.4,4.3,2.9v1.7c0,1-0.5,2-2,2.6l1.9,4.5c0.1,0.3-0.1,0.5-0.4,0.5H50c-0.2,0-0.3-0.2-0.4-0.5l-1.7-4.1h-0.1h-1.9V15.5z
			 M45.9,10v3.5h1.8c1.2,0,1.9-0.4,1.9-1.3v-0.8c0-0.9-0.7-1.3-1.9-1.3L45.9,10L45.9,10z"/>
		<path class="st0" d="M54.2,20.1c-0.3,0-0.4-0.1-0.4-0.5V8.5c0-0.3,0.1-0.5,0.4-0.5h6.1c0.3,0,0.4,0.1,0.4,0.4v1.1
			c0,0.3-0.1,0.4-0.4,0.4h-4.1v2.9H60c0.3,0,0.5,0.1,0.5,0.4v1.1c0,0.3-0.1,0.4-0.5,0.4h-3.8V18h4.3c0.3,0,0.4,0.1,0.4,0.4v1.2
			c0,0.3-0.1,0.4-0.4,0.4h-6.3V20.1z"/>
		<path class="st0" d="M62.8,20.1c-0.3,0-0.4-0.1-0.4-0.5V8.5c0-0.3,0.1-0.5,0.4-0.5h6.1c0.3,0,0.4,0.1,0.4,0.4v1.1
			c0,0.3-0.1,0.4-0.4,0.4h-4.1v2.9h3.8c0.3,0,0.5,0.1,0.5,0.4v1.1c0,0.3-0.1,0.4-0.5,0.4h-3.8V18h4.3c0.3,0,0.4,0.1,0.4,0.4v1.2
			c0,0.3-0.1,0.4-0.4,0.4h-6.3V20.1z"/>
		<path class="st0" d="M76.7,11.1c0-0.9-0.6-1.3-1.7-1.3c-1.2,0-1.7,0.4-1.7,1.3v0.3c0,0.6,0.4,0.9,0.7,1l3.1,1.1
			c1.2,0.4,2.1,1.2,2.1,2.6v1.4c0,1.5-1,2.9-4.2,2.9s-4.2-1.4-4.2-2.9v-1.1c0-0.3,0.1-0.5,0.4-0.5h1.5c0.3,0,0.4,0.1,0.4,0.5v0.8
			c0,0.9,0.7,1.3,1.9,1.3c1.2,0,1.9-0.4,1.9-1.3v-0.6c0-0.7-0.7-1-1.5-1.3l-2.8-1C71.7,14,71,13.1,71,12v-1c0-1.5,0.9-2.9,4-2.9
			s4.1,1.4,4.1,2.9v0.7c0,0.3-0.1,0.4-0.4,0.4h-1.5c-0.3,0-0.4-0.1-0.4-0.4v-0.6H76.7z"/>
		<path class="st0" d="M83.2,15.8v3.8c0,0.3-0.1,0.5-0.4,0.5h-1.5c-0.3,0-0.4-0.1-0.4-0.5V8.5C80.9,8.2,81,8,81.3,8H85
			c3.2,0,4.3,1.4,4.3,2.9v2c0,1.5-1.1,2.9-4.3,2.9C85,15.8,83.2,15.8,83.2,15.8z M83.2,10v3.8H85c1.2,0,1.9-0.4,1.9-1.3v-1.2
			c0-0.9-0.7-1.3-1.9-1.3H83.2z"/>
		<path class="st0" d="M93.1,19.6c0,0.3-0.1,0.5-0.4,0.5h-1.5c-0.3,0-0.4-0.1-0.4-0.5V8.5c0-0.3,0.1-0.5,0.4-0.5h1.5
			c0.3,0,0.4,0.1,0.4,0.5V19.6z"/>
		<path class="st0" d="M103.7,19.6c0,0.3-0.1,0.4-0.4,0.4h-1.4c-0.2,0-0.3-0.1-0.4-0.2l-3.4-5.9c-0.5-0.8-0.7-1.4-0.7-1.4v7.1
			c0,0.3-0.1,0.4-0.4,0.4h-1.4c-0.3,0-0.4-0.1-0.4-0.4V8.4c0-0.3,0.1-0.4,0.4-0.4H97c0.2,0,0.3,0.1,0.4,0.2l3.6,6.1
			c0.3,0.5,0.6,1.2,0.6,1.2V8.4c0-0.3,0.1-0.4,0.4-0.4h1.4c0.3,0,0.4,0.1,0.4,0.4L103.7,19.6L103.7,19.6z"/>
	</g>
	<g>
		<path class="st0" d="M38.9,23c0-0.5-0.4-0.9-1.2-0.9c-0.8,0-1.2,0.3-1.2,0.9v0.1c0,0.4,0.3,0.5,0.5,0.6l2.1,0.8
			c0.8,0.3,1.4,0.8,1.4,1.7v0.9c0,1-0.6,1.9-2.8,1.9c-2.1,0-2.8-0.9-2.8-1.9v-0.8c0-0.3,0.1-0.3,0.3-0.3h1c0.3,0,0.3,0.1,0.3,0.3V27
			c0,0.6,0.4,0.9,1.3,0.9c0.8,0,1.3-0.3,1.3-0.9v-0.4c0-0.5-0.5-0.6-1-0.9l-1.8-0.6c-0.5-0.3-1-0.8-1-1.5v-0.6c0-1,0.6-1.9,2.7-1.9
			c2.1,0,2.7,0.9,2.7,1.9v0.5c0,0.3-0.1,0.3-0.3,0.3h-1c-0.3,0-0.3-0.1-0.3-0.3V23H38.9z"/>
		<path class="st0" d="M44.6,20.9c0.3,0,0.3,0.1,0.4,0.3l2.2,7.5c0,0.1,0,0.3-0.3,0.3h-1c-0.3,0-0.3-0.1-0.4-0.3l-0.4-1.4h-2.2
			l-0.4,1.4c0,0.1-0.1,0.3-0.4,0.3h-0.9c-0.3,0-0.3-0.1-0.3-0.3l2.2-7.5c0-0.3,0.1-0.3,0.4-0.3H44.6z M44.4,24.7
			c-0.1-0.5-0.4-2.1-0.4-2.2c0,0.1-0.3,1.7-0.4,2.2L43.3,26h1.5L44.4,24.7z"/>
		<path class="st0" d="M51.8,20.9c0.3,0,0.3,0.1,0.3,0.3V22c0,0.3-0.1,0.3-0.3,0.3h-1.7v6.4c0,0.3-0.1,0.3-0.3,0.3h-1
			c-0.3,0-0.3-0.1-0.3-0.3v-6.4h-1.7c-0.3,0-0.3-0.1-0.3-0.3v-0.8c0-0.3,0.1-0.3,0.3-0.3H51.8z"/>
		<path class="st0" d="M54.4,28.7c0,0.3-0.1,0.3-0.3,0.3h-1c-0.3,0-0.3-0.1-0.3-0.3v-7.5c0-0.3,0.1-0.3,0.3-0.3h1
			c0.3,0,0.3,0.1,0.3,0.3V28.7z"/>
		<path class="st0" d="M67.3,20.9c0.3,0,0.3,0.1,0.4,0.3l2.2,7.5c0,0.1,0,0.3-0.3,0.3h-1c-0.3,0-0.3-0.1-0.4-0.3l-0.4-1.4h-2.2
			l-0.4,1.4c0,0.1-0.1,0.3-0.4,0.3h-0.9c-0.3,0-0.3-0.1-0.3-0.3l2.2-7.5c0-0.3,0.1-0.3,0.4-0.3H67.3z M67.1,24.7
			c-0.1-0.5-0.4-2.1-0.4-2.2c0,0.1-0.3,1.7-0.4,2.2L66,26h1.5L67.1,24.7z"/>
		<path class="st0" d="M72.2,27.6h2.6c0.3,0,0.3,0.1,0.3,0.3v0.8c0,0.3-0.1,0.3-0.3,0.3h-4c-0.1,0-0.3-0.1-0.3-0.3v-7.5
			c0-0.3,0.1-0.3,0.3-0.3h1c0.3,0,0.3,0.1,0.3,0.3v6.4H72.2z"/>
		<g>
			<path class="st0" d="M61.4,28.6c0,0.2-0.1,0.3-0.3,0.3h-1c-0.2,0-0.2,0-0.3-0.1l-2.3-4c-0.3-0.5-0.5-0.9-0.5-1v4.8
				c0,0.2-0.1,0.3-0.3,0.3h-1c-0.2,0-0.3-0.1-0.3-0.3V21c0-0.2,0.1-0.3,0.3-0.3h1c0.1,0,0.2,0,0.3,0.1l2.4,4.2
				c0.2,0.4,0.4,0.8,0.4,0.8V21c0-0.2,0.1-0.3,0.3-0.3h1c0.2,0,0.3,0.1,0.3,0.3V28.6z"/>
		</g>
	</g>
</g>
</svg>
