<?xml version="1.0" encoding="utf-8"?>
<!-- Generator: Adobe Illustrator 24.1.2, SVG Export Plug-In . SVG Version: 6.00 Build 0)  -->
<svg version="1.1" id="Layer_1" xmlns="http://www.w3.org/2000/svg" xmlns:xlink="http://www.w3.org/1999/xlink" x="0px" y="0px"
	 viewBox="0 0 257 96" style="enable-background:new 0 0 257 96;" xml:space="preserve">
<style type="text/css">
	.st0{fill-rule:evenodd;clip-rule:evenodd;fill:#18305A;}
	.st1{fill-rule:evenodd;clip-rule:evenodd;fill:#FDE423;}
</style>
<g id="Page-1">
	<g id="platipus_color">
		<path id="Rounded_Rectangle_1" class="st0" d="M9.9,16.8h233.6L256.1,6v81c0,5-4,9-9,9H9.9c-2.4,0-4.7-1-6.4-2.6
			c-1.7-1.7-2.6-4-2.6-6.4V25.8c0-2.4,0.9-4.7,2.6-6.4C5.2,17.7,7.5,16.8,9.9,16.8z"/>
		<path id="platipus" class="st1" d="M42.9,65.6c0.9-0.5,1.6-1.2,2.2-2.1c0.6-0.9,1-1.9,1.2-3s0.3-2.3,0.3-3.5s-0.1-2.3-0.4-3.5
			c-0.2-1.1-0.6-2.1-1.2-3.1c-0.6-0.9-1.3-1.6-2.2-2.2c-1-0.6-2.1-0.9-3.3-0.8c-1.2,0-2.3,0.2-3.3,0.8c-0.9,0.5-1.6,1.3-2.2,2.1
			c-0.6,0.9-1,2-1.2,3c-0.2,1.2-0.3,2.4-0.3,3.5c0,1.2,0.1,2.3,0.4,3.5c0.2,1.1,0.6,2.1,1.2,3C36.1,66.3,39.8,67.2,42.9,65.6z
			 M32.4,42.1v3.8h0.1c0.9-1.5,2.2-2.7,3.8-3.5c1.6-0.7,3.3-1.1,5-1.1c2.1-0.1,4.1,0.4,6,1.3c1.6,0.8,3.1,2,4.2,3.5
			c1.1,1.5,2,3.2,2.5,5.1c0.5,2,0.8,4,0.8,6c0,1.9-0.3,3.9-0.8,5.7c-0.5,1.8-1.3,3.4-2.4,4.9c-1.1,1.4-2.5,2.6-4,3.4
			c-1.8,0.9-3.7,1.3-5.7,1.3c-1.7,0-3.5-0.4-5-1.1s-2.8-1.9-3.8-3.3H33v14h-8.1v-40H32.4z M67.3,30.9v40.8h-8.1V30.9H67.3z
			 M80.9,51.2c0.2-1.6,0.7-2.7,1.6-3.4s2.2-1,3.8-1c0.7,0,1.4,0,2,0.1s1.1,0.3,1.7,0.6c0.5,0.3,0.9,0.7,1.1,1.2
			c0.3,0.6,0.5,1.4,0.4,2.1c0.1,0.7-0.2,1.4-0.7,1.9c-0.6,0.5-1.4,0.8-2.2,1c-1,0.2-2.1,0.4-3.1,0.5c-1.2,0.1-2.4,0.3-3.6,0.5
			s-2.4,0.4-3.6,0.8c-1.1,0.3-2.2,0.8-3.2,1.5s-1.7,1.6-2.3,2.6c-0.6,1.3-0.9,2.7-0.9,4.1c0,1.4,0.2,2.7,0.8,3.9
			c0.5,1.1,1.2,2,2.1,2.7s2,1.3,3.2,1.6c1.3,0.4,2.6,0.5,3.9,0.5c1.8,0,3.6-0.3,5.4-0.8c1.7-0.5,3.3-1.5,4.6-2.8
			c0,0.5,0.1,1,0.2,1.5s0.2,0.9,0.4,1.4h8.2c-0.5-0.8-0.7-1.8-0.8-2.7c-0.2-1.3-0.2-2.5-0.2-3.8V49.7c0-1.8-0.4-3.2-1.2-4.3
			c-0.8-1.1-1.9-2-3.1-2.5c-1.3-0.6-2.7-1-4.2-1.2s-3-0.3-4.5-0.3c-1.6,0-3.3,0.2-4.9,0.5c-1.5,0.3-3,0.8-4.4,1.6
			c-1.3,0.8-2.4,1.8-3.2,3c-0.9,1.4-1.4,3.1-1.4,4.7L80.9,51.2L80.9,51.2z M91.5,60.2c0,0.6-0.1,1.2-0.1,1.8
			c-0.1,0.8-0.4,1.6-0.8,2.3c-0.5,0.8-1.1,1.5-1.9,1.9C87.8,66.7,86.6,67,85,67c-0.6,0-1.3-0.1-1.9-0.2s-1.1-0.3-1.6-0.6
			c-0.5-0.3-0.8-0.7-1.1-1.2c-0.3-0.6-0.4-1.2-0.4-1.8c0-0.7,0.1-1.3,0.4-1.9c0.3-0.5,0.6-0.9,1.1-1.2c0.5-0.3,1-0.6,1.5-0.8
			c0.6-0.2,1.2-0.3,1.8-0.5c0.6-0.1,1.3-0.2,1.9-0.3c0.6-0.1,1.3-0.2,1.9-0.3c0.6-0.1,1.1-0.2,1.7-0.4c0.5-0.1,0.9-0.4,1.3-0.7v3.1
			H91.5z M121.5,42.1v5.4h-5.9v14.6c0,1.4,0.2,2.3,0.7,2.7c0.5,0.5,1.4,0.7,2.7,0.7c0.5,0,0.9,0,1.3-0.1c0.4,0,0.8-0.1,1.2-0.2v6.3
			c-0.8,0.1-1.5,0.2-2.3,0.2s-1.7,0.1-2.5,0.1c-1.2,0-2.4-0.1-3.6-0.3c-1-0.1-2-0.5-3-1c-0.9-0.5-1.6-1.2-2-2.1
			c-0.5-1.1-0.8-2.4-0.7-3.6V47.6h-4.9v-5.4h4.9v-8.9h8.1v8.9L121.5,42.1L121.5,42.1z M125,37.6v-6.7h8.1v6.7H125L125,37.6z
			 M133.1,42.1v29.5H125V42.1H133.1L133.1,42.1z M157.1,65.6c0.9-0.5,1.6-1.2,2.2-2.1c0.6-0.9,1-1.9,1.2-3s0.3-2.3,0.3-3.5
			s-0.1-2.3-0.4-3.5c-0.2-1.1-0.6-2.1-1.2-3.1c-0.6-0.9-1.3-1.6-2.2-2.2c-1-0.6-2.1-0.9-3.3-0.8c-1.2,0-2.3,0.2-3.3,0.8
			c-0.9,0.5-1.6,1.3-2.2,2.1c-0.6,0.9-1,2-1.2,3c-0.2,1.2-0.3,2.4-0.3,3.5c0,1.2,0.1,2.3,0.4,3.5c0.2,1.1,0.6,2.1,1.2,3
			C150.3,66.3,154.1,67.2,157.1,65.6L157.1,65.6z M146.6,42.1v3.8h0.1c0.9-1.5,2.2-2.7,3.8-3.5c1.6-0.7,3.3-1.1,5-1.1
			c2.1-0.1,4.1,0.4,6,1.3c1.6,0.8,3.1,2,4.2,3.5c1.1,1.5,2,3.2,2.5,5.1c0.5,2,0.8,4,0.8,6c0,1.9-0.3,3.9-0.8,5.7
			c-0.5,1.8-1.3,3.4-2.4,4.9c-1.1,1.4-2.5,2.6-4,3.4c-1.8,0.9-3.7,1.3-5.7,1.3c-1.7,0-3.5-0.4-5-1.1s-2.8-1.9-3.8-3.3H147v14h-8.1
			v-40H146.6z M193.2,71.7v-4.1H193c-0.9,1.6-2.3,2.9-4,3.7c-1.6,0.7-3.3,1.1-5,1.1c-1.8,0.1-3.6-0.2-5.3-0.9
			c-1.3-0.5-2.4-1.3-3.3-2.4c-0.8-1.1-1.4-2.4-1.7-3.8c-0.3-1.6-0.5-3.3-0.5-5V42.1h8.1v16.7c0,2.4,0.4,4.3,1.1,5.5
			c0.8,1.2,2.1,1.8,4,1.8c2.2,0,3.8-0.7,4.8-2c1-1.3,1.5-3.5,1.5-6.5V42.1h8.1v29.5L193.2,71.7L193.2,71.7z M213.3,64.3
			c0.3,0.6,0.8,1.1,1.4,1.5c0.6,0.4,1.3,0.7,2,0.9c0.8,0.2,1.5,0.3,2.3,0.3c0.6,0,1.2-0.1,1.8-0.2s1.2-0.3,1.7-0.6
			c0.5-0.3,0.9-0.7,1.3-1.1c0.4-0.5,0.5-1.2,0.5-1.8c0-1.2-0.8-2.1-2.4-2.7c-2.2-0.8-4.5-1.4-6.8-1.8c-1.2-0.3-2.3-0.6-3.5-0.9
			c-1.1-0.3-2.1-0.8-3-1.4s-1.6-1.3-2.1-2.2c-0.6-1-0.8-2.1-0.8-3.3c-0.1-1.6,0.3-3.3,1.1-4.7c0.7-1.2,1.7-2.2,2.9-2.9
			c1.3-0.7,2.7-1.2,4.1-1.5c1.5-0.3,3.1-0.4,4.7-0.4c1.6,0,3.1,0.2,4.6,0.5c1.4,0.3,2.8,0.8,4,1.5s2.2,1.7,2.9,2.9
			c0.8,1.4,1.3,2.9,1.4,4.5h-7.7c-0.1-1.6-0.7-2.6-1.8-3.2c-1.2-0.6-2.5-0.9-3.8-0.8c-0.5,0-1,0-1.5,0.1c-0.5,0-1,0.2-1.5,0.4
			c-0.4,0.2-0.8,0.5-1.1,0.8c-0.3,0.4-0.5,0.9-0.5,1.5c0,0.7,0.3,1.3,0.8,1.8c0.6,0.5,1.3,0.9,2.1,1.1c1,0.3,1.9,0.6,2.9,0.8
			c1.1,0.2,2.2,0.5,3.4,0.7c1.2,0.3,2.3,0.6,3.5,1c1.1,0.4,2.1,0.9,3,1.5s1.6,1.4,2.1,2.3c0.6,1.1,0.8,2.3,0.8,3.5
			c0.2,3.3-1.5,6.3-4.2,8.1c-1.3,0.8-2.8,1.4-4.3,1.7c-1.6,0.3-3.3,0.5-4.9,0.5c-1.7,0-3.4-0.2-5-0.5c-1.5-0.3-3-0.9-4.4-1.7
			c-1.3-0.8-2.3-1.9-3.1-3.2c-0.9-1.5-1.3-3.2-1.3-4.9h7.7C212.7,62.9,212.9,63.6,213.3,64.3z"/>
	</g>
</g>
</svg>
