<?xml version="1.0" encoding="utf-8"?>
<!-- Generator: Adobe Illustrator 26.1.0, SVG Export Plug-In . SVG Version: 6.00 Build 0)  -->
<svg version="1.1" id="Layer_1" xmlns="http://www.w3.org/2000/svg" xmlns:xlink="http://www.w3.org/1999/xlink" x="0px" y="0px"
	 viewBox="0 0 1056.6 202" style="enable-background:new 0 0 1056.6 202;" xml:space="preserve">
<g>
	<path style="fill:#FFFFFF;" d="M60.1,82H47.9c-3.6,0-6.1,2.4-6.1,6.1c0,3,2.4,5.5,4.9,6.1c-3,5.5-4.9,11.5-4.9,18.2
		c0,3.6,2.4,6.1,6.1,6.1s6.1-2.4,6.1-6.1c0-6.1,2.4-12.1,6.7-16.4l3.6-3.6c1.8-1.8,2.4-4.3,1.2-6.7C64.9,83.2,62.5,82,60.1,82z"/>
	<path style="fill:#FFFFFF;" d="M108.7,82H96.5c-3.6,0-6.1,2.4-6.1,6.1c0,3,2.4,5.5,4.9,6.1c-3,5.5-4.9,11.5-4.9,18.2
		c0,3.6,2.4,6.1,6.1,6.1c3.6,0,6.1-2.4,6.1-6.1c0-6.1,2.4-12.1,6.7-16.4l3.6-3.6c1.8-1.8,2.4-4.3,1.2-6.7
		C113.5,83.2,111.1,82,108.7,82z"/>
	<path style="fill:#FFFFFF;" d="M145.1,118.5c3.6,0,6.1-2.4,6.1-6.1c0-6.1,2.4-12.1,6.7-16.4l3.6-3.6c1.8-1.8,2.4-4.3,1.2-6.7
		c-0.6-2.4-3-3.6-5.5-3.6h-12.1c-3.6,0-6.1,2.4-6.1,6.1c0,3,2.4,5.5,4.9,6.1c-3,5.5-4.9,11.5-4.9,18.2
		C139,116,141.5,118.5,145.1,118.5z"/>
	<path style="fill:#FFFFFF;" d="M199.8,15.2c-10.3,0-18.2,7.9-18.2,18.2c0,7.9,4.9,14.6,12.1,17v62h-12.1V69.9V57.7
		c0-23.7-18.8-42.5-42.5-42.5H66.1c-23.7,0-42.5,18.8-42.5,42.5v12.2v60.7v48.6c0,3.6,2.4,6.1,6.1,6.1h145.8c3.6,0,6.1-2.4,6.1-6.1
		v-48.6v-6.1h18.2c3.6,0,6.1-2.4,6.1-6.1v-68c7.3-2.4,12.1-9.1,12.1-17C218,23.1,210.1,15.2,199.8,15.2z M84.4,75.9h36.4v48.6H84.4
		V75.9z M35.8,75.9h36.5v48.6H35.8V75.9z M126.9,161H78.3c-3.6,0-6.1-2.4-6.1-6.1s2.4-6.1,6.1-6.1h48.6c3.6,0,6.1,2.4,6.1,6.1
		S130.5,161,126.9,161z M169.4,124.5h-36.5V75.9h36.5V124.5z"/>
</g>
<g>
	<path style="fill:#FFFFFF;" d="M253.4,113l-12.3-48.8h24.4l4.2,26.8h0.7l15.7-26.8H311L277.9,113l-5,23.2h-24.5L253.4,113z"/>
	<path style="fill:#FFFFFF;" d="M316,64.3h52.7L365,81.8h-28.4l-2,9.6h23.4l-3.7,17.1H331l-2.2,10.4h28.4l-3.8,17.5h-52.6L316,64.3z
		"/>
	<path style="fill:#FFFFFF;" d="M378,64.3h25.5l8.1,27.8h0.7l6-27.8h22.8l-15.4,72h-23l-9.4-33.6h-0.6l-7.2,33.6h-22.7L378,64.3z"/>
	<path style="fill:#FFFFFF;" d="M451.4,64.3h24.5l-15.4,72h-24.4L451.4,64.3z M459.2,44.4h17.2l-2.8,13h-17.2L459.2,44.4z"/>
	<path style="fill:#FFFFFF;" d="M502.1,121c0-5.3,1.7-12.4,3.5-21.8c5.5-29.1,7.6-35.8,37.7-35.8c22.3,0,29,4.2,29,16.2
		c0,5.4-1.3,12.4-3.3,21.7c-6.7,29.3-7.7,35.8-37.5,35.8C508.9,137.1,502.1,132.9,502.1,121z M544.6,100.3c1.7-8,2.6-12.8,2.6-15.5
		c0-3.8-1.8-3.9-6-3.9c-7.3,0-7.4,0.4-11.4,19.4c-1.8,8.3-2.8,13-2.8,15.7c0,3.6,1.8,3.7,6,3.7C540.3,119.6,540.5,119.2,544.6,100.3
		z"/>
	<path style="fill:#FFFFFF;" d="M593.1,113l-12.3-48.8h24.4l4.2,26.8h0.7l15.7-26.8h24.9L617.6,113l-5,23.2h-24.5L593.1,113z"/>
	<path style="fill:#FFFFFF;" d="M645,121.5c0-4.6,0.8-10.8,2.4-18.3l8.3-38.9h24.5l-9.1,42.9c-1,4.7-1.6,7.5-1.6,9.3
		c0,2.6,1.3,2.8,4.5,2.8c5.4,0,5.6-0.6,8.1-12.1l9.1-42.9h24.5l-8.3,38.9c-6,27.8-7.2,33.9-36.1,33.9
		C650.5,137.1,645,132.9,645,121.5z"/>
	<path style="fill:#FFFFFF;" d="M726.3,64.3h25.5l8.1,27.8h0.7l6-27.8h22.8l-15.4,72h-23l-9.4-33.6H741l-7.2,33.6H711L726.3,64.3z"
		/>
	<path style="fill:#FFFFFF;" d="M799.7,64.3h24.5l-11.4,53.6h24.1l-4,18.4h-48.4L799.7,64.3z"/>
	<path style="fill:#FFFFFF;" d="M868.5,64.3h34l4.6,72h-23.5l-0.3-10.8h-20.8l-4.8,10.8h-24.4L868.5,64.3z M882.7,108.8L882.1,84
		h-0.9L870,108.8H882.7z"/>
	<path style="fill:#FFFFFF;" d="M927.1,64.3h35.8c15.9,0,20.5,4.6,20.5,13.9c0,3.1-0.5,6.9-1.5,11.2c-2.1,9.3-3.5,16.1-12.6,20
		l4.1,26.9h-24.6l-2.1-24h-1.9h-3.6l-5.1,24h-24.4L927.1,64.3z M949.2,96.1c6,0,6.9-0.3,8.4-7.3c0.4-2.1,0.7-3.7,0.7-4.7
		c0-2.3-1.4-2.7-6.1-2.7h-4.3l-3.1,14.8H949.2z"/>
</g>
</svg>
