<?xml version="1.0" encoding="utf-8"?>
<!-- Generator: Adobe Illustrator 24.1.2, SVG Export Plug-In . SVG Version: 6.00 Build 0)  -->
<svg version="1.1" id="Layer_1" xmlns="http://www.w3.org/2000/svg" xmlns:xlink="http://www.w3.org/1999/xlink" x="0px" y="0px"
	 viewBox="0 0 204.5 48.8" style="enable-background:new 0 0 204.5 48.8;" xml:space="preserve">
<style type="text/css">
	.st0{fill:#FFFFFF;}
	.st1{fill:#FFD782;}
	.st2{fill:#DA1C4B;}
	.st3{fill:#8EC13F;}
	.st4{fill:#F9BB4B;}
	.st5{fill:#FFF69A;}
	.st6{fill:#E5E4CF;}
	.st7{fill:#143441;}
	.st8{clip-path:url(#SVGID_2_);fill:#F4F4E6;}
	.st9{clip-path:url(#SVGID_4_);fill:#FFFFFF;}
	.st10{fill:url(#SVGID_5_);}
</style>
<g>
	<g>
		<path class="st0" d="M59.7,21.2c0.4,0,0.6,0.2,0.6,0.6v1.6c0,0.5-0.2,0.6-0.6,0.6h-3.6v13.8c0,0.5-0.2,0.7-0.6,0.7h-2.2
			c-0.5,0-0.6-0.2-0.6-0.7V24.1H49c-0.5,0-0.6-0.2-0.6-0.6v-1.6c0-0.5,0.2-0.6,0.6-0.6L59.7,21.2L59.7,21.2z"/>
		<path class="st0" d="M65.1,34c0,1.3,1,1.9,2.7,1.9s2.8-0.6,2.8-1.9V21.9c0-0.5,0.2-0.7,0.6-0.7h2.2c0.5,0,0.6,0.2,0.6,0.7v12.7
			c0,2.1-1.6,4.1-6.2,4.1s-6.2-2-6.2-4.1V21.9c0-0.5,0.2-0.7,0.6-0.7h2.2c0.4,0,0.6,0.2,0.6,0.7V34H65.1z M67.3,19.2
			c0,0.5-0.2,0.6-0.6,0.6h-1.2c-0.4,0-0.6-0.2-0.6-0.6v-2.4c0-0.5,0.2-0.7,0.6-0.7h1.2c0.5,0,0.6,0.2,0.6,0.7V19.2z M70.8,19.2
			c0,0.5-0.2,0.6-0.6,0.6H69c-0.5,0-0.6-0.2-0.6-0.6v-2.4c0-0.5,0.2-0.7,0.6-0.7h1.2c0.4,0,0.6,0.2,0.6,0.7
			C70.8,16.8,70.8,19.2,70.8,19.2z"/>
		<path class="st0" d="M80.2,31.9v5.9c0,0.5-0.2,0.7-0.6,0.7h-2.2c-0.5,0-0.6-0.2-0.6-0.7v-16c0-0.5,0.2-0.7,0.6-0.7h5.3
			c4.6,0,6.2,2,6.2,4.1v2.4c0,1.5-0.8,2.9-2.8,3.7l2.7,6.4c0.2,0.4-0.1,0.7-0.6,0.7H86c-0.4,0-0.5-0.3-0.6-0.7l-2.5-5.9h-0.2
			L80.2,31.9L80.2,31.9z M80.2,24.1v5h2.5c1.7,0,2.7-0.6,2.7-1.9V26c0-1.3-1-1.9-2.7-1.9H80.2z"/>
		<path class="st0" d="M104.1,37.9c0.2,0.3,0.1,0.6-0.3,0.6H101c-0.4,0-0.7-0.3-0.9-0.6l-4.8-6.7h-0.4v6.7c0,0.4-0.2,0.6-0.6,0.6H92
			c-0.5,0-0.6-0.2-0.6-0.6v-16c0-0.4,0.2-0.6,0.6-0.6h2.2c0.5,0,0.6,0.2,0.6,0.6v6.8h0.4l4.5-6.8c0.2-0.4,0.6-0.6,1-0.6h2.4
			c0.5,0,0.5,0.3,0.3,0.6l-5.3,7.9L104.1,37.9z"/>
		<path class="st0" d="M111.7,39.7c1.3,0,2.2,0.6,2.2,2.1s-0.9,2.1-2.2,2.1h-3c-0.5,0-0.6-0.2-0.6-0.6v-0.5c0-0.5,0.2-0.6,0.6-0.6
			h2.5c0.3,0,0.5-0.1,0.5-0.4c0-0.3-0.2-0.4-0.5-0.4h-1.9c-0.8,0-0.9-0.3-0.8-0.8l0.5-1.9c-3.1-0.5-4-2.2-4-4v-9.4
			c0-2.1,1.4-4.1,6-4.1s6,2,6,4.1v1.2c0,0.5-0.2,0.6-0.6,0.6h-2.1c-0.5,0-0.6-0.2-0.6-0.6v-0.6c0-1.3-0.9-1.9-2.6-1.9
			s-2.6,0.6-2.6,1.9V34c0,1.3,0.9,1.9,2.6,1.9s2.6-0.6,2.6-1.9v-1c0-0.5,0.2-0.6,0.6-0.6h2.1c0.4,0,0.6,0.2,0.6,0.6v1.6
			c0,2.1-1.3,4.1-5.7,4.1l-0.3,0.9h0.7C111.7,39.6,111.7,39.7,111.7,39.7z"/>
		<path class="st0" d="M119.7,38.5c-0.5,0-0.6-0.2-0.6-0.7v-16c0-0.5,0.2-0.7,0.6-0.7h8.7c0.4,0,0.6,0.2,0.6,0.6v1.6
			c0,0.5-0.2,0.6-0.6,0.6h-5.9V28h5.4c0.5,0,0.7,0.2,0.7,0.6v1.5c0,0.4-0.2,0.6-0.7,0.6h-5.4v4.7h6.1c0.5,0,0.6,0.2,0.6,0.6v1.6
			c0,0.5-0.2,0.6-0.6,0.6h-8.9C119.7,38.2,119.7,38.5,119.7,38.5z"/>
		<path class="st0" d="M139.2,31.9v5.9c0,0.5-0.2,0.7-0.6,0.7h-2.2c-0.5,0-0.6-0.2-0.6-0.7v-16c0-0.5,0.2-0.7,0.6-0.7h5.3
			c4.6,0,6.2,2,6.2,4.1v2.4c0,1.5-0.8,2.9-2.8,3.7l2.7,6.4c0.2,0.4-0.1,0.7-0.6,0.7H145c-0.4,0-0.5-0.3-0.6-0.7l-2.5-5.9h-0.2
			L139.2,31.9L139.2,31.9z M139.2,24.1v5h2.5c1.7,0,2.7-0.6,2.7-1.9V26c0-1.3-1-1.9-2.7-1.9H139.2z"/>
		<path class="st0" d="M153.7,34c0,1.3,1,1.9,2.7,1.9s2.8-0.6,2.8-1.9V21.9c0-0.5,0.2-0.7,0.6-0.7h2.2c0.5,0,0.6,0.2,0.6,0.7v12.7
			c0,2.1-1.6,4.1-6.2,4.1s-6.2-2-6.2-4.1V21.9c0-0.5,0.2-0.7,0.6-0.7h2.2c0.4,0,0.6,0.2,0.6,0.7L153.7,34L153.7,34z"/>
		<path class="st0" d="M168.8,35.7h5.7c0.4,0,0.6,0.2,0.6,0.6v1.6c0,0.5-0.2,0.6-0.6,0.6h-8.6c-0.4,0-0.5-0.2-0.5-0.7v-16
			c0-0.5,0.2-0.7,0.6-0.7h2.2c0.5,0,0.6,0.2,0.6,0.7V35.7z"/>
		<path class="st0" d="M177.5,38.5c-0.5,0-0.6-0.2-0.6-0.7v-16c0-0.5,0.2-0.7,0.6-0.7h8.7c0.4,0,0.6,0.2,0.6,0.6v1.6
			c0,0.5-0.2,0.6-0.6,0.6h-5.9V28h5.4c0.5,0,0.7,0.2,0.7,0.6v1.5c0,0.4-0.2,0.6-0.7,0.6h-5.4v4.7h6.1c0.5,0,0.6,0.2,0.6,0.6v1.6
			c0,0.5-0.2,0.6-0.6,0.6h-8.9L177.5,38.5L177.5,38.5z"/>
		<path class="st0" d="M199.1,21.2c0.4,0,0.6,0.2,0.6,0.6v1.6c0,0.5-0.2,0.6-0.6,0.6h-3.6v13.8c0,0.5-0.2,0.7-0.6,0.7h-2.2
			c-0.5,0-0.6-0.2-0.6-0.7V24.1h-3.6c-0.5,0-0.6-0.2-0.6-0.6v-1.6c0-0.5,0.2-0.6,0.6-0.6L199.1,21.2L199.1,21.2z"/>
	</g>
</g>
<g>
	<path class="st1" d="M44.5,27.4c0,11.4-9.2,20.6-20.6,20.6S3.3,38.8,3.3,27.4S12.5,6.8,23.9,6.8S44.5,16,44.5,27.4L44.5,27.4z"/>
	<path class="st2" d="M41.7,27.4c0,9.8-7.9,17.8-17.8,17.8s-17.8-8-17.8-17.8s8-17.7,17.8-17.7S41.7,17.6,41.7,27.4L41.7,27.4z"/>
	<path class="st3" d="M37.4,27.4c0,7.5-6,13.5-13.5,13.5s-13.5-6-13.5-13.5s6-13.5,13.5-13.5S37.4,20,37.4,27.4L37.4,27.4z"/>
	<path class="st1" d="M32.4,27.4c0,4.7-3.8,8.5-8.5,8.5s-8.5-3.8-8.5-8.5s3.8-8.5,8.5-8.5c2.3,0,4.4,0.9,6,2.5
		C31.5,23,32.4,25.2,32.4,27.4L32.4,27.4z"/>
	<path class="st4" d="M28.2,26H28c-0.4-1.2-1.4-2.2-2.6-2.6v-0.2c0-0.8-0.6-1.4-1.4-1.4s-1.4,0.6-1.4,1.4v0.2
		c-1.2,0.4-2.2,1.4-2.6,2.6h-0.2c-0.8,0-1.4,0.6-1.4,1.4s0.6,1.4,1.4,1.4H20c0.4,1.2,1.4,2.2,2.6,2.6v0.2c0,0.8,0.6,1.4,1.4,1.4
		s1.4-0.6,1.4-1.4v-0.2c1.2-0.4,2.2-1.4,2.6-2.6h0.2c0.8,0,1.4-0.6,1.4-1.4S28.9,26,28.2,26L28.2,26z"/>
	<path class="st5" d="M25.3,27.4c0,0.8-0.6,1.4-1.4,1.4s-1.4-0.6-1.4-1.4s0.6-1.4,1.4-1.4S25.3,26.6,25.3,27.4L25.3,27.4z"/>
	<path class="st6" d="M23.9,35.9c-0.7,0-1.4-0.1-2.1-0.3v5.1c1.4,0.2,2.9,0.2,4.3,0v-5.1C25.3,35.8,24.6,35.9,23.9,35.9L23.9,35.9z"
		/>
	<path class="st6" d="M31.2,31.8c-0.7,1.2-1.7,2.1-2.8,2.8l3.6,3.6c1.1-0.8,2-1.8,2.8-2.8L31.2,31.8z"/>
	<path class="st6" d="M37.2,25.3h-5.1c0.4,1.4,0.4,2.9,0,4.3h5.1C37.5,28.1,37.5,26.7,37.2,25.3L37.2,25.3z"/>
	<path class="st6" d="M31.2,23l3.6-3.6c-0.8-1.1-1.8-2-2.8-2.8l-3.6,3.6C29.5,20.9,30.5,21.8,31.2,23L31.2,23z"/>
	<path class="st6" d="M23.9,18.9c0.7,0,1.4,0.1,2.1,0.3v-5.1c-1.4-0.2-2.9-0.2-4.3,0v5.1C22.5,19,23.2,18.9,23.9,18.9L23.9,18.9z"/>
	<path class="st6" d="M19.5,20.1l-3.6-3.6c-1.1,0.8-2,1.8-2.8,2.8l3.6,3.6C17.3,21.8,18.3,20.9,19.5,20.1L19.5,20.1z"/>
	<path class="st6" d="M15.4,27.4c0-0.7,0.1-1.4,0.3-2.1h-5.1c-0.2,1.4-0.2,2.9,0,4.3h5.1C15.5,28.9,15.4,28.1,15.4,27.4L15.4,27.4z"
		/>
	<path class="st6" d="M16.6,31.8L13,35.4c0.8,1.1,1.8,2,2.8,2.8l3.6-3.6C18.3,34,17.3,33,16.6,31.8L16.6,31.8z"/>
	<path class="st7" d="M10.4,27.4c0-0.7,0.1-1.4,0.2-2.1H6.3c-0.2,1.4-0.2,2.8,0,4.3h4.3C10.5,28.8,10.4,28.1,10.4,27.4L10.4,27.4z"
		/>
	<path class="st7" d="M15.9,16.6l-3-3c-1.1,0.8-2,1.8-2.8,2.8l3,3C13.9,18.3,14.8,17.4,15.9,16.6L15.9,16.6z"/>
	<path class="st7" d="M23.9,13.9c0.7,0,1.4,0.1,2.1,0.2V9.8c-1.4-0.2-2.8-0.2-4.3,0v4.3C22.5,14,23.2,13.9,23.9,13.9L23.9,13.9z"/>
	<path class="st7" d="M34.7,19.4l3-3c-0.8-1.1-1.8-2-2.8-2.8l-3,3C33,17.4,33.9,18.3,34.7,19.4L34.7,19.4z"/>
	<path class="st7" d="M41.5,25.3h-4.3c0.2,1.4,0.2,2.9,0,4.3h4.3C41.7,28.1,41.7,26.7,41.5,25.3L41.5,25.3z"/>
	<path class="st7" d="M34.7,35.4c-0.8,1.1-1.8,2-2.8,2.8l3,3c1.1-0.8,2-1.8,2.8-2.8L34.7,35.4z"/>
	<path class="st7" d="M23.9,40.9c-0.7,0-1.4-0.1-2.1-0.2V45c1.4,0.2,2.8,0.2,4.3,0v-4.3C25.3,40.8,24.6,40.9,23.9,40.9L23.9,40.9z"
		/>
	<path class="st7" d="M13.1,35.4l-3,3c0.8,1.1,1.8,2,2.8,2.8l3-3C14.8,37.5,13.9,36.5,13.1,35.4L13.1,35.4z"/>
	<g>
		<g>
			<g>
				<defs>
					<rect id="SVGID_1_" x="2.5" y="6.1" width="42.7" height="42.7"/>
				</defs>
				<clipPath id="SVGID_2_">
					<use xlink:href="#SVGID_1_"  style="overflow:visible;"/>
				</clipPath>
				<path class="st8" d="M31.7,42.3c0,0.8-0.6,1.4-1.4,1.4s-1.4-0.6-1.4-1.4c0-0.8,0.6-1.4,1.4-1.4C31.1,40.9,31.7,41.5,31.7,42.3
					L31.7,42.3z"/>
			</g>
		</g>
		<g>
			<g>
				<defs>
					<rect id="SVGID_3_" x="2.5" y="6.1" width="42.7" height="42.7"/>
				</defs>
				<clipPath id="SVGID_4_">
					<use xlink:href="#SVGID_3_"  style="overflow:visible;"/>
				</clipPath>
				<path class="st9" d="M23.9,6.1c-8.6,0-16.4,5.2-19.7,13.2S2.7,36.4,8.8,42.5s15.3,7.9,23.2,4.6c8-3.3,13.2-11.1,13.2-19.7
					C45.2,15.7,35.7,6.1,23.9,6.1L23.9,6.1z M23.9,47.3c-8,0-15.3-4.8-18.4-12.3S4.2,19,9.8,13.4S24.1,6,31.5,9s12.3,10.3,12.3,18.4
					C43.8,38.4,34.9,47.3,23.9,47.3L23.9,47.3z"/>
			</g>
		</g>
	</g>
	<path d="M26,27.4c0-0.9-0.5-1.6-1.3-2c-0.8-0.3-1.7-0.1-2.3,0.5c-0.6,0.6-0.8,1.5-0.5,2.3s1.1,1.3,2,1.3C25.1,29.5,26,28.6,26,27.4
		L26,27.4z M23.2,27.4c0-0.3,0.2-0.5,0.4-0.7c0.3-0.1,0.6,0,0.8,0.2c0.2,0.2,0.3,0.5,0.2,0.8s-0.4,0.4-0.7,0.4
		C23.5,28.1,23.2,27.8,23.2,27.4L23.2,27.4z"/>
	<path d="M23.9,9C16.4,9,9.7,13.4,6.8,20.3s-1.3,14.8,4,20.1s13.2,6.9,20.1,4s11.4-9.6,11.4-17.1C42.4,17.2,34.1,9,23.9,9L23.9,9z
		 M36.8,16.3l-2,2c-0.6-0.7-1.2-1.3-1.8-1.8l2-2C35.6,15.1,36.3,15.7,36.8,16.3L36.8,16.3z M22.7,30.8c-1-0.4-1.8-1.1-2.2-2.2
		c-0.1-0.3-0.4-0.5-0.7-0.5h-0.2c-0.4,0-0.7-0.3-0.7-0.7c0-0.4,0.3-0.7,0.7-0.7h0.2c0.3,0,0.6-0.2,0.7-0.5c0.4-1,1.1-1.8,2.2-2.2
		c0.3-0.1,0.5-0.4,0.5-0.7v-0.2c0-0.4,0.3-0.7,0.7-0.7c0.4,0,0.7,0.3,0.7,0.7v0.2c0,0.3,0.2,0.6,0.5,0.7c1,0.4,1.8,1.1,2.2,2.2
		c0.1,0.3,0.4,0.5,0.7,0.5h0.2c0.4,0,0.7,0.3,0.7,0.7c0,0.4-0.3,0.7-0.7,0.7H28c-0.3,0-0.6,0.2-0.7,0.5c-0.4,1-1.1,1.8-2.2,2.2
		c-0.3,0.1-0.5,0.4-0.5,0.7v0.2c0,0.4-0.3,0.7-0.7,0.7c-0.4,0-0.7-0.3-0.7-0.7v-0.2C23.2,31.1,23,30.9,22.7,30.8L22.7,30.8z
		 M21.1,18.6c-0.5,0.2-1,0.4-1.5,0.6L17,16.7c1.2-0.8,2.6-1.4,4.1-1.7V18.6z M23.2,19.6v1.5c-0.8,0.3-1.3,1-1.4,1.8
		c-1,0.5-1.9,1.3-2.4,2.4c-0.8,0.1-1.5,0.6-1.8,1.4h-1.5C16.5,23,19.4,20,23.2,19.6L23.2,19.6z M18.4,20c-0.7,0.5-1.3,1.1-1.8,1.8
		L14,19.3c0.5-0.7,1.2-1.3,1.8-1.8L18.4,20z M15.7,23.1c-0.3,0.5-0.5,1-0.6,1.5h-3.7c0.3-1.4,0.9-2.8,1.7-4.1L15.7,23.1z M14.8,26
		c-0.2,0.9-0.2,1.9,0,2.8h-3.6c-0.1-0.9-0.1-1.9,0-2.8H14.8z M15.1,30.3c0.2,0.5,0.4,1,0.6,1.5l-2.6,2.6c-0.8-1.2-1.4-2.6-1.7-4.1
		C11.4,30.3,15.1,30.3,15.1,30.3z M16.5,33c0.5,0.7,1.1,1.3,1.8,1.8l-2.5,2.5c-0.7-0.5-1.3-1.2-1.8-1.8L16.5,33z M16.1,28.1h1.5
		c0.3,0.8,1,1.3,1.8,1.4c0.5,1,1.3,1.9,2.4,2.4c0.1,0.8,0.6,1.5,1.4,1.8v1.5C19.4,34.8,16.5,31.9,16.1,28.1L16.1,28.1z M31.7,26.7
		h-1.5c-0.3-0.8-1-1.3-1.8-1.4c-0.5-1-1.3-1.9-2.4-2.4c-0.1-0.8-0.6-1.5-1.4-1.8v-1.5C28.4,20,31.3,23,31.7,26.7L31.7,26.7z
		 M29.4,20l2.5-2.5c0.7,0.5,1.3,1.2,1.8,1.8l-2.5,2.5C30.7,21.2,30.1,20.6,29.4,20L29.4,20z M24.6,33.7c0.8-0.3,1.3-1,1.4-1.8
		c1-0.5,1.9-1.3,2.4-2.4c0.8-0.1,1.5-0.6,1.8-1.4h1.5c-0.3,3.7-3.3,6.7-7.1,7.1C24.6,35.2,24.6,33.7,24.6,33.7z M26.7,36.2
		c0.5-0.2,1-0.4,1.5-0.6l2.6,2.6c-1.2,0.8-2.6,1.4-4.1,1.7V36.2z M29.4,34.8c0.7-0.5,1.3-1.1,1.8-1.8l2.5,2.5
		c-0.5,0.7-1.2,1.3-1.8,1.8L29.4,34.8z M32.1,31.7c0.3-0.5,0.5-1,0.6-1.5h3.7c-0.3,1.4-0.9,2.8-1.7,4.1L32.1,31.7z M33,28.8
		c0.2-0.9,0.2-1.9,0-2.8h3.6c0.1,0.9,0.1,1.9,0,2.8H33z M32.7,24.6c-0.2-0.5-0.4-1-0.6-1.5l2.6-2.6c0.8,1.2,1.4,2.6,1.7,4.1H32.7z
		 M26.7,10.6c2.6,0.4,5,1.5,7.1,3l-2,2c-1.5-1-3.3-1.8-5.1-2.1C26.7,13.5,26.7,10.6,26.7,10.6z M26.7,15c1.4,0.3,2.8,0.9,4.1,1.7
		l-2.6,2.6c-0.5-0.3-1-0.5-1.5-0.6V15z M22.5,10.4c0.5,0,0.9-0.1,1.4-0.1s1,0,1.4,0.1v2.8c-0.5,0-0.9-0.1-1.4-0.1s-1,0-1.4,0.1V10.4
		z M22.5,14.7c0.9-0.1,1.9-0.1,2.8,0v3.6c-0.9-0.2-1.9-0.2-2.8,0V14.7z M21.1,10.6v2.9c-1.8,0.4-3.6,1.1-5.1,2.1l-2-2
		C16,12.1,18.5,11,21.1,10.6L21.1,10.6z M12.8,14.5l2,2c-0.7,0.6-1.3,1.2-1.8,1.8l-2-2C11.5,15.7,12.2,15.1,12.8,14.5L12.8,14.5z
		 M10.1,17.4l2,2c-1,1.5-1.8,3.3-2.1,5.1H7.1C7.5,22,8.6,19.6,10.1,17.4L10.1,17.4z M6.9,27.4c0-0.5,0-1,0.1-1.4h2.8
		c0,0.5-0.1,0.9-0.1,1.4s0,1,0.1,1.4H6.9C6.9,28.4,6.9,27.9,6.9,27.4L6.9,27.4z M10.1,37.4c-1.5-2.1-2.6-4.6-3-7.1H10
		c0.4,1.8,1.1,3.6,2.1,5.1L10.1,37.4z M11,38.5l2-2c0.6,0.7,1.2,1.3,1.8,1.8l-2,2C12.2,39.8,11.5,39.2,11,38.5L11,38.5z M21.1,44.2
		c-2.6-0.4-5-1.5-7.1-3l2-2c1.5,1,3.3,1.8,5.1,2.1V44.2z M21.1,39.9c-1.4-0.3-2.8-0.9-4.1-1.7l2.6-2.6c0.5,0.3,1,0.5,1.5,0.6V39.9z
		 M25.3,44.4c-0.5,0-0.9,0.1-1.4,0.1s-1,0-1.4-0.1v-2.8c0.5,0,0.9,0.1,1.4,0.1s1,0,1.4-0.1V44.4z M25.3,40.1c-0.9,0.1-1.9,0.1-2.8,0
		v-3.6c0.9,0.2,1.9,0.2,2.8,0V40.1z M28.7,43.8c-0.7,0.2-1.3,0.3-2,0.5v-2.9c0.8-0.2,1.5-0.4,2.2-0.7c-0.5,0.4-0.8,0.9-0.8,1.5
		C28.1,42.7,28.3,43.3,28.7,43.8L28.7,43.8z M30.3,43c-0.3,0-0.5-0.2-0.7-0.4s0-0.6,0.2-0.8s0.5-0.3,0.8-0.2S31,42,31,42.3
		C31,42.7,30.7,43,30.3,43L30.3,43z M32.4,42.2c-0.1-1.1-1-2-2.1-2c-0.1,0-0.2,0-0.3,0c0.6-0.3,1.3-0.6,1.8-1l2,2
		C33.4,41.6,32.9,41.9,32.4,42.2L32.4,42.2z M35,40.3l-2-2c0.7-0.6,1.3-1.2,1.8-1.8l2,2C36.3,39.2,35.6,39.8,35,40.3L35,40.3z
		 M37.7,37.4l-2-2c1-1.5,1.8-3.3,2.1-5.1h2.9C40.3,32.8,39.2,35.3,37.7,37.4L37.7,37.4z M40.9,27.4c0,0.5,0,1-0.1,1.4H38
		c0-0.5,0.1-0.9,0.1-1.4s0-1-0.1-1.4h2.8C40.9,26.5,40.9,26.9,40.9,27.4L40.9,27.4z M40.7,24.6h-2.9c-0.4-1.8-1.1-3.6-2.1-5.1l2-2
		C39.2,19.6,40.3,22,40.7,24.6L40.7,24.6z"/>
</g>
<g>
	<linearGradient id="SVGID_5_" gradientUnits="userSpaceOnUse" x1="29.0198" y1="11.75" x2="43.0469" y2="11.75">
		<stop  offset="0" style="stop-color:#CF1400"/>
		<stop  offset="1" style="stop-color:#CF1400"/>
	</linearGradient>
	<circle class="st10" cx="36" cy="11.7" r="7"/>
	<g>
		<polygon class="st0" points="39.2,9.9 40,11 41.3,10.6 40.5,11.8 41.3,12.9 40,12.5 39.2,13.6 39.2,12.2 37.9,11.7 39.2,11.3 		
			"/>
		<path class="st0" d="M35.7,14.9c-1.8,0-3.2-1.4-3.2-3.2c0-1.8,1.4-3.2,3.2-3.2c1.2,0,2.2,0.6,2.8,1.6c-0.6-1.4-2-2.4-3.7-2.4
			c-2.2,0-4,1.8-4,4c0,2.2,1.8,4,4,4c1.7,0,3.1-1,3.7-2.4C37.9,14.3,36.9,14.9,35.7,14.9z"/>
	</g>
</g>
</svg>
