<?xml version="1.0" encoding="UTF-8"?> <svg xmlns="http://www.w3.org/2000/svg" xmlns:xlink="http://www.w3.org/1999/xlink" version="1.1" id="Layer_1" x="0px" y="0px" viewBox="0 0 1000 1000" style="enable-background:new 0 0 1000 1000;" xml:space="preserve"> <path style="fill:#FFFFFF;" d="M896.4,747.8c-8.8,34.5-30,59.7-60.4,77c-32.4,18.5-67.6,13-94.1-13.1c-25-24.6-36.8-55.6-42.4-89.3 c-13.8-83.9-0.7-164.8,26.9-244.2c5.9-17.1,12.7-33.9,18.3-51.5c-6.3,8.5-12.7,16.8-18.9,25.4c-47.2,64.8-81.9,135.9-107.2,211.8 c-4.9,14.6-10.4,29.1-16.9,43c-10.6,22.8-29.1,37-53.5,42.6c-25.7,6-52.3-8.9-64.1-35c-12.7-28.1-16.4-58.1-16.9-88.4 c-0.4-21.1,1.4-42.3,1.4-63.6c-3.5,20.1-8.4,40-10.1,60.2c-3,36.4-4.1,72.9-5.8,109.4c-0.4,10-3,13.6-12.8,15.5 c-29.9,5.7-61.6-16.4-66.3-46.5c-4.1-26.6,1.1-52.4,8.5-77.8c27.1-92.9,72.1-176.4,133-251.5c4-4.9,8.8-9.2,13-14 c7.5-8.5,17-9.7,27.4-8.2c9,1.3,13,6.5,10.6,15.3c-3.7,13.7-8.2,27.1-12.7,40.6c-13.4,40.5-25,81.5-28.7,124.1 c-3.2,37.2-2.4,74.4,8.3,110.5c2.2,7.3,7,13.9,11.9,20.3c9.4-35,23.2-67.1,39.7-98c39.6-74.6,87.9-142.7,151.2-199.3 c16.1-14.4,34.9-25.9,53.3-37.5c7.1-4.5,16.4-6.5,24.9-7.5c12.7-1.5,19.3,5.1,17.1,17.6c-2.8,15.3-6.4,30.7-11.7,45.3 c-26.3,73.3-44.2,148.1-42.7,226.6c0.5,29.8,5.2,59,15.9,86.9c8.2,21.4,21.5,38.3,43,48.1c15.4,7,30.4,7.3,44.8-2.5 c5.5-3.8,10.8-5.7,16,0.4C896.4,742.9,896.4,745.4,896.4,747.8z"></path> <path style="fill:#FFFFFF;" d="M126.6,353.8c17.8-17.4,35.1-35.3,53.5-52c9-8.2,20.1-14.1,30.2-21.1c0.8,0.9,1.6,1.7,2.4,2.6 c-3.5,3.4-6.8,6.9-10.4,10.2c-9.4,8.8-18.9,17.6-28.3,26.4c-1.1,1-2,2.3-2.8,3.6c-6.2,10.6-2.3,18.3,10,19.3 c6.6,0.5,13.3,0.1,19.4,0.1c1,0.9,1.6,1.2,1.8,1.7c4.1,13,4.3,13.7-8.9,17.1c-13.7,3.5-27.7,6.8-41.7,7.9c-8.2,0.7-16.8-3-25.2-4.7 C126.6,361.1,126.6,357.5,126.6,353.8z"></path> <path style="fill:#FFFFFF;" d="M370,426.4c-17.2,18.1-35.2,35.6-51.3,54.6c-15.7,18.7-29.6,38.9-43.9,58.8 c-6.9,9.6-11.4,11.5-20.8,4.9c-17.2-12.1-31.1-27.2-30.2-49.6c0.4-9.3,4.5-19.6,9.9-27.3c20.4-28.8,47.7-50.4,77.1-69.5 c41.9-27.3,85.4-51.8,133.6-66.3c11.4-3.4,23.7-4.4,35.7-5.5c4.8-0.4,10.3,1.2,14.7,3.5c4.4,2.3,7.3,6.8,2.7,11.9 c-30.7,34.2-55.2,72.7-77.6,112.5c-37.2,66.1-62.5,136.5-75.5,211.2c-3.3,19-4.5,38.4-6.6,57.6c-1.4,12.4-4.8,15.6-17.3,16 c-33.9,1-61.6-24.5-62.6-58.3c-0.9-30.3,8.5-58.4,19.5-86c22.6-56.3,52.7-108.6,88.5-157.6c2.1-2.9,4.1-5.9,6.1-8.9 C371.3,427.7,370.6,427,370,426.4z"></path> <path style="fill:#FFFFFF;" d="M444.9,161.5c10.5-3.7,20.9-7.9,31.7-10.9c22.3-6.2,44.7-12.2,67.3-17.4c7.2-1.7,15.1-1.4,22.6-0.7 c11.3,1,15.1,8.6,9.6,18.5c-3.1,5.4-6.9,10.8-11.5,15c-29.9,27.1-62.4,50.7-97.8,70.3c-33.5,18.5-66.2,38.5-100.4,55.5 c-36,17.8-73.5,32.9-110.4,49c-9.6,4.2-11.5,2.8-12.7-7.1c10.9-3.9,22.1-7.8,34.3-12.1c-42.2-43.1-51.7-91.5-20.1-142.8 c24.2-39.3,63.3-55.5,108.6-47.5c53.7,9.5,83.1,44.8,91.1,99.5c4.2-2.5,8-4.2,11.1-6.8c18.3-15.1,36.8-29.9,54.5-45.7 c6-5.3,12.3-12.4,8.1-21.8c-3.1-6.9-17.1-9.9-27.2-7.2c-17.4,4.8-34.8,9.4-52.2,14c-1.9,0.5-3.9,0.4-5.8,0.6 C445.4,163.2,445.2,162.4,444.9,161.5z M419.8,206.8c0.6,6.3,2.4,11.8,1.2,16.6c-2.7,10.9-12.4,9.6-21.5,8.9 c6.1,9.3,12.6,11.9,20.1,8.8c9.6-4,15.5-14.6,12.5-24.3C430.1,210.6,426.3,205.3,419.8,206.8z M360.1,167.6 c13.7-8.8,20.3-5.8,23.5,9.3c7.1-2.7,6.2-9.1,4.4-13.7c-2.5-6.6-9-10-16.1-9C365.6,155.2,360.4,158.5,360.1,167.6z M290.3,245.9 c-2.5-7.2-8.4-7.6-13.9-6c-7,2.1-10.9,7.9-10.6,15c0.2,4.6,1.7,10.3,9,9.6C269.9,255.8,272.9,247,290.3,245.9z M308.9,165 c-1.3,0.1-2.6,0.3-3.9,0.4c-2,3-5.5,5.9-5.7,9.1c-0.3,4.8,3.4,8.9,8.5,7.5c3.1-0.9,7.3-5,7.4-7.7C315.3,171.2,311.2,168,308.9,165z"></path> <path style="fill:#FFFFFF;" d="M453.7,254.6c1.9,23.6-23.2,64.7-59,81.8c-31.2,14.8-78.7,12-96.4-3.8 C349.8,306.8,401.5,280.9,453.7,254.6z M364.3,323.8c0.7,6.2,5.2,8,10.7,7.3c5.2-0.7,9.3-3.5,8.4-8.4 C376.6,323.1,370.6,323.4,364.3,323.8z"></path> <path style="fill:#FFFFFF;" d="M239.6,341.5c0,9.6-7.7,17.7-16.8,17.8c-8.5,0-14.1-5.2-14-12.9c0.2-9.9,7.4-18.1,16.2-18.4 C233.6,327.6,239.6,333.1,239.6,341.5z"></path> <path style="fill:#FFFFFF;" d="M206.9,252.6c-1.7-2.5-5.8-5.9-5.9-9.5c-0.1-6.7,5-11.3,11.7-10.5c3.1,0.4,7.6,5,8,8.1 C221.5,247.6,216.7,251.4,206.9,252.6z"></path> <path style="fill:#FFFFFF;" d="M499.9,174.5c-4.2,2.9-6.9,6-9.7,6.1c-2,0.1-4.1-3.7-6.2-5.8c2.6-2.4,4.9-5.7,8-6.8 C493.3,167.5,496.3,171.4,499.9,174.5z"></path> </svg> 