<?xml version="1.0" encoding="UTF-8"?> <!-- Generator: Adobe Illustrator 24.3.0, SVG Export Plug-In . SVG Version: 6.00 Build 0) --> <svg xmlns="http://www.w3.org/2000/svg" xmlns:xlink="http://www.w3.org/1999/xlink" version="1.1" id="Layer_1" x="0px" y="0px" viewBox="0 0 500 500" style="enable-background:new 0 0 500 500;" xml:space="preserve"> <path style="fill:#FFFFFF;" d="M439.2,154.4h-41.4c-24.7,0-42.7,18.4-42.7,42.7v151.9H402V204.1c0-5,3.3-10.9,10.9-10.9h10.9 c7.9,0,10.9,4.6,10.9,10.9v40.2h-24.7v38.5h24.7v66.5h47.3V197C481.9,172.8,463.5,154.4,439.2,154.4L439.2,154.4z"></path> <path style="fill:#FFFFFF;" d="M218.3,197.5v151.5h47.3v-77.8h52.7v-38.9h-52.7v-27.6c0-5,3.3-11.3,11.3-11.3h61.1v-38.9h-76.6 C236.7,154.4,218.3,172.8,218.3,197.5L218.3,197.5z"></path> <rect x="153.9" y="154.4" style="fill:#FFFFFF;" width="47.3" height="195"></rect> <path style="fill:#FFFFFF;" d="M17.5,197.5v151.5h47.3v-77.8h52.7v-38.9H64.7v-27.6c0-5,3.3-11.3,11.3-11.3h61.1v-38.9H60.6 C35.9,154.4,17.5,172.8,17.5,197.5L17.5,197.5z"></path> </svg> 