<?xml version="1.0" encoding="UTF-8"?> <!-- Generator: Adobe Illustrator 24.3.0, SVG Export Plug-In . SVG Version: 6.00 Build 0) --> <svg xmlns="http://www.w3.org/2000/svg" xmlns:xlink="http://www.w3.org/1999/xlink" version="1.1" id="Layer_1" x="0px" y="0px" viewBox="0 0 500 500" style="enable-background:new 0 0 500 500;" xml:space="preserve"> <g> <path style="fill:#FFFFFF;" d="M134.8,359.2c1.3,0,1.9,0.4,1.7,1.8l-0.6,5c-0.1,1.3-0.8,1.8-2.1,1.8h-8.2l-4.1,32.7 c-0.2,1.3-0.6,1.9-2,1.9h-6.9c-1.3,0-1.8-0.6-1.7-1.9l4.1-32.7h-8.1c-1.3,0-1.9-0.5-1.7-1.8l0.6-5c0.1-1.3,0.8-1.8,2.1-1.8H134.8z"></path> <path style="fill:#FFFFFF;" d="M149.4,376.2h11.5l1.8-15.1c0.2-1.3,0.8-1.9,2.1-1.9h6.9c1.3,0,1.7,0.6,1.5,1.9l-4.8,39.4 c-0.2,1.3-0.6,1.9-2,1.9h-6.8c-1.3,0-1.8-0.6-1.7-1.9l2-15.7h-11.5l-2,15.7c-0.2,1.3-0.6,1.9-2,1.9h-6.8c-1.3,0-1.8-0.6-1.7-1.9 l4.8-39.4c0.2-1.3,0.8-1.9,2.1-1.9h6.9c1.3,0,1.7,0.6,1.5,1.9L149.4,376.2z"></path> <path style="fill:#FFFFFF;" d="M198.7,359.2c1.3,0,1.9,0.6,2.1,1.9l6.7,39.4c0.2,1.2-0.3,1.9-1.6,1.9H199c-1.3,0-1.8-0.7-2-1.9 l-0.9-6.1h-10.6l-2.4,6.1c-0.4,1.2-1.1,1.9-2.4,1.9h-6.5c-1.3,0-1.7-0.7-1.1-1.9l16.3-39.4c0.6-1.3,1.3-1.9,2.6-1.9H198.7z M194.3,382.7c-0.6-4.9-0.4-13.2-0.4-13.3c-0.1,0.4-2.3,9.7-3.8,13.3l-1.4,3.4h6L194.3,382.7z"></path> <path style="fill:#FFFFFF;" d="M222.5,400.5c-0.2,1.3-0.6,1.9-2,1.9h-6.9c-1.3,0-1.8-0.6-1.7-1.9l4.8-39.4c0.2-1.3,0.8-1.9,2.1-1.9 h6.9c1.3,0,1.7,0.6,1.5,1.9L222.5,400.5z"></path> <path style="fill:#FFFFFF;" d="M271.7,359.2c1.3,0,1.9,0.4,1.7,1.8l-0.6,5c-0.2,1.3-0.8,1.8-2.1,1.8h-14.6l-1,8.3h13.5 c1.3,0,1.8,0.4,1.7,1.8l-0.6,5c-0.2,1.3-0.8,1.8-2.2,1.8H254l-2,15.9c-0.2,1.3-0.6,1.9-2,1.9h-6.9c-1.3,0-1.8-0.6-1.7-1.9l4.8-39.4 c0.2-1.3,0.8-1.9,2.1-1.9L271.7,359.2L271.7,359.2z"></path> <path style="fill:#FFFFFF;" d="M284.7,400.5c-0.2,1.3-0.6,1.9-2,1.9h-6.9c-1.3,0-1.8-0.6-1.7-1.9l4.8-39.4c0.2-1.3,0.8-1.9,2.1-1.9 h6.9c1.3,0,1.7,0.6,1.5,1.9L284.7,400.5z"></path> <path style="fill:#FFFFFF;" d="M323.7,378.9c1.5,0,1.8,0.7,1.7,1.8l-1.4,11.4c-0.7,5.5-4.4,10.9-16.7,10.9 c-10.8,0-14.7-4.6-14.7-9.7c0-0.4,0.1-1.1,0.1-1.7l2.7-22c0.6-5.5,4.4-10.9,16.7-10.9c10.8,0,14.7,4.6,14.7,9.7 c0,0.4-0.1,1-0.1,1.7l-0.2,1.7c-0.1,1.3-0.7,1.9-2,1.9H318c-1.3,0-1.8-0.8-1.6-1.9l0.1-0.4c0.1-0.4,0.1-0.8,0.1-1 c0-2.1-1.8-3.1-4.8-3.1c-3.1,0-5.5,1.2-5.9,4.1l-2.3,18.3c-0.1,0.4-0.1,1-0.1,1.3c0,2.4,1.8,3.4,4.8,3.4c3.4,0,5.5-1.2,5.8-4.1 l0.3-2.7h-5.2c-1.3,0-1.8-0.6-1.7-1.8l0.6-5c0.1-1.3,0.8-1.8,2.1-1.8L323.7,378.9L323.7,378.9z"></path> <path style="fill:#FFFFFF;" d="M343.2,376.2h11.5l1.8-15.1c0.2-1.3,0.8-1.9,2.1-1.9h6.9c1.3,0,1.7,0.6,1.5,1.9l-4.8,39.4 c-0.2,1.3-0.6,1.9-2,1.9h-6.9c-1.3,0-1.8-0.6-1.7-1.9l2-15.7h-11.5l-2,15.7c-0.2,1.3-0.6,1.9-2,1.9h-6.9c-1.3,0-1.8-0.6-1.7-1.9 l4.8-39.4c0.2-1.3,0.8-1.9,2.1-1.9h6.9c1.3,0,1.7,0.6,1.5,1.9L343.2,376.2z"></path> <path style="fill:#FFFFFF;" d="M400.2,359.2c1.3,0,1.9,0.4,1.7,1.8l-0.6,5c-0.1,1.3-0.8,1.8-2.1,1.8h-8.1l-4.1,32.7 c-0.2,1.3-0.6,1.9-2,1.9h-6.9c-1.3,0-1.8-0.6-1.7-1.9l4.1-32.7h-8.1c-1.3,0-1.9-0.5-1.7-1.8l0.6-5c0.1-1.3,0.8-1.8,2.1-1.8H400.2z"></path> <path style="fill:#FFFFFF;" d="M137.2,440.5c1.5,0,1.8,0.6,1.7,1.8l-0.6,4.6c-0.2,1.3-0.8,1.8-2.2,1.8h-3.2l-0.9,7.5 c-0.7,5.5-4.4,10.9-18.5,10.9c-12.5,0-16.4-4.4-16.4-9.4c0-0.4,0.1-1,0.1-1.7l0.6-4.5c0.4-3.5,2.2-5.7,6-7.2 c-2.7-1-3.8-2.9-3.8-5.3c0-0.2,0-0.8,0.1-1.1l0.6-4.5c0.6-5.5,3.8-10.6,15.9-10.6c10.6,0,14.2,4.5,14.2,9.5c0,0.1,0,0.7-0.1,1.4 l-0.3,2.3c-0.2,1.3-0.7,1.9-2,1.9h-6.5c-1.5,0-1.7-0.7-1.6-1.9l0.1-0.8c0.1-0.6,0.1-0.8,0.1-1c0-2.2-1.7-3.2-4.5-3.2 c-3.1,0-4.8,1.2-5.1,4.1l-0.1,1.1c-0.1,0.5-0.1,0.7-0.1,0.8c0,2.2,1.9,3.3,4.8,3.3h21.7V440.5z M122,454.8l0.7-6h-9 c-3.4,0-5.5,1.1-5.8,4.1l-0.2,1.8c-0.1,0.6-0.1,0.8-0.1,1c0,2.7,3.8,3.2,6.8,3.2C119.1,458.9,121.6,457.7,122,454.8z"></path> <path style="fill:#FFFFFF;" d="M186.9,464.8c0.5,1,0.2,1.9-1.1,1.9h-8.7c-1.3,0-2-1-2.5-1.9l-8.1-15.6h-0.8l-1.9,15.6 c-0.1,1.3-0.6,1.9-2,1.9h-6.9c-1.3,0-1.8-0.6-1.7-1.9l4.8-39.4c0.2-1.3,0.8-1.9,2.1-1.9h6.9c1.3,0,1.7,0.6,1.5,1.9l-2,16.2h0.4 l11.7-16.2c0.8-1.1,1.9-1.9,3.2-1.9h7.5c1.3,0,1.4,0.8,0.6,1.9l-14.4,19.3L186.9,464.8z"></path> <path style="fill:#FFFFFF;" d="M201.9,464.8c-0.2,1.3-0.6,1.9-2,1.9H193c-1.3,0-1.8-0.6-1.7-1.9l4.8-39.4c0.2-1.3,0.8-1.9,2.1-1.9 h6.9c1.3,0,1.7,0.6,1.5,1.9L201.9,464.8z"></path> <path style="fill:#FFFFFF;" d="M241.2,456.3c-0.6,5.5-4.4,10.9-16.7,10.9c-10.8,0-14.7-4.6-14.7-9.7c0-0.4,0.1-1,0.1-1.7l2.7-22 c0.6-5.5,4.4-10.9,16.7-10.9c10.7,0,14.7,4.6,14.7,9.6c0,0.4-0.1,1-0.1,1.7l-0.3,2.5c-0.2,1.3-0.6,1.9-2,1.9h-6.5 c-1.4,0-1.8-0.8-1.7-1.9l0.1-0.7c0.1-0.4,0.1-1,0.1-1.2c0-2.3-2-3.3-4.9-3.3c-3.1,0-5.4,1.2-5.8,4.1l-2.3,18.2 c-0.1,0.5-0.1,1-0.1,1.2c0,2.5,2.1,3.5,5,3.5c3.1,0,5.3-1.2,5.7-4.1l0.3-2c0.2-1.3,0.8-1.9,2.1-1.9h6.5c1.5,0,1.7,0.8,1.5,1.9 L241.2,456.3z"></path> <path style="fill:#FFFFFF;" d="M279.9,464.8c0.5,1,0.2,1.9-1.1,1.9h-8.7c-1.3,0-2-1-2.5-1.9l-8.1-15.6h-0.9l-1.9,15.6 c-0.1,1.3-0.6,1.9-2,1.9h-6.9c-1.3,0-1.8-0.6-1.7-1.9l4.8-39.4c0.2-1.3,0.8-1.9,2.1-1.9h6.9c1.3,0,1.7,0.6,1.5,1.9l-2,16.2h0.4 l11.7-16.2c0.8-1.1,1.9-1.9,3.2-1.9h7.5c1.3,0,1.4,0.8,0.6,1.9l-14.4,19.3L279.9,464.8z"></path> <path style="fill:#FFFFFF;" d="M297.5,466.7c-1,0-1.8-0.4-1.7-1.9l4.8-39.4c0.2-1.3,0.8-1.9,2.1-1.9h11.6c10.7,0,15.3,4.1,15.3,9.2 c0,0.4-0.1,1-0.1,1.6l-0.4,3c-0.4,3.4-2.1,5.2-5.1,6.8c3.4,1.4,5.7,4.4,5.7,7.2c0,0.3-0.1,0.8-0.1,1.3l-0.5,4.1 c-0.7,5.5-4.9,10-17.2,10L297.5,466.7L297.5,466.7z M308.3,448.6l-1.1,9.8h5.4c3.1,0,5.9-0.8,6.3-3.7l0.2-1.6 c0.1-0.4,0.1-0.8,0.1-1c0-2.2-1.8-3.6-5.2-3.6h-5.7V448.6z M310.4,431.7l-1.1,9.2h3.3c2.9,0,6-0.9,6.3-3.9l0.1-1.2 c0.1-0.8,0.1-1,0.1-1.1c0-2.4-2.2-3-5.1-3H310.4z"></path> <path style="fill:#FFFFFF;" d="M337,433.8c0.6-5.5,5-10.9,17.2-10.9c10.8,0,15.3,4.7,15.3,9.7c0,0.4-0.1,1.1-0.1,1.7l-2.7,22 c-0.6,5.5-5,10.9-17.3,10.9c-10.8,0-15.3-4.6-15.3-9.7c0-0.4,0.1-1,0.1-1.7L337,433.8z M358.8,436.2c0.1-0.6,0.1-1,0.1-1.2 c0-2.5-2.2-3.5-5.4-3.5c-2.8,0-5.8,1.2-6.2,4.1l-2.3,18.2c-0.1,0.5-0.1,1-0.1,1.2c0,2.5,2.3,3.5,5.5,3.5c3.1,0,5.7-1.2,6.1-4.1 L358.8,436.2z"></path> <path style="fill:#FFFFFF;" d="M403.7,464.8c0.4,1,0.2,1.9-1.1,1.9h-7.8c-1.3,0-2-0.9-2.5-1.9l-5.1-11.3l-7,11.3 c-0.6,1-1.5,1.9-2.9,1.9h-7.5c-1.2,0-1.2-1.2-0.5-2.2l13.7-20.3l-8.3-18.6c-0.5-1.1-0.3-2.1,1-2.1h7.8c1.3,0,2,0.8,2.5,1.9 l4.5,10.1l6.7-10.1c0.8-1.1,1.7-1.9,3-1.9h7.4c1.3,0,1.4,0.8,0.6,1.9l-13.7,19L403.7,464.8z"></path> </g> <path style="fill:#FFFFFF;" d="M237.6,194.2c-0.2-0.3-0.3-0.6-0.4-0.8c-2-5.6-3.4-11.4-4.7-17.2c-0.6-2.6,0.1-5.3-0.2-8 s-2.1-4.6-3.1-7c-1-2.3-1.2-4.9-1.4-7.3c-0.3-3.7-0.2-7.5,0-11.3l4.6-41.7c6.5-19.6-6.5-19.1-13.4-18.3c-5.4,0.6-11.2,6.3-15.3,9.4 c-3,2.3-5.9,4.7-8.8,7.1c-2.5,2.1-5.4,5.7-8.5,6.9c-3.7,1.4-2.6,5.4-5.2,7.6c-2.1,1.7-5.3,1.6-7.6,3.2c-1.7-2.1-3.9-4.3-6.2-5.8 c-1.3-0.9,3.8-1.7,4-1.8c3-0.3,3.8,0.2,5.5-2.7c1.2-2.1,2.1-4.4,3-6.6c1.2-2.8,2.6-5.4,3.2-8.4c1-5.4,1.2-9.3,4.4-14 c1.7-2.6,6.2-6.6,6.4-9.9c0,0,15.1,0.7,7.8-12c-3.1-5.4-8-5.4-12.8-2.2c2-4.6,6.1-8.9,2.3-13.9c-1.5-2-3.6-2.9-5.8-3.9 c-17.5-8.4-14.7,6.2-14.7,6.2c-10.5-6.6,2.2,12.5-0.5,15c-3,2.7-3.4,13.7-3.4,13.7c-2.2,2.2-3.4,5.1-4.1,8.1 c-0.3,1.4,0.1,3.3-0.6,4.6c-0.5,0.9-3-0.5-3.9-0.4c-0.8,0.1-1.8,0.4-2.4-0.3c-1.1-1.2-1.8-3-2.3-4.4c-0.6-1.7-1.3-2.3-2.7-3.2 c-0.6-0.4-1-2.5-1.1-3.1c2.9,1.3,8.6-7.5,9.7-9.6c1.3-2.2,2-4.6,2.3-7.1c0.8-6.1-0.5-12.4-6.3-15.6c-3.3-1.8-9.6-4.8-13.4-3.9 c-4.6,1-8.5,5.2-10.9,9c-3.1,4.8-0.9,8.8-1.9,13.9c-0.6,3.6-3.5,6.2-5.3,9.3c-2.4,4.2-4.5,7.1-7.8,10.7c-4.7,5.2-7.7,11.9-5.8,19 c1.5,5.9,4.7,10.4,6.2,16.4c3.3,13.1,29.7,30.5,29.7,30.5c0,0.3,0,1.9,0,8.7c0,3.8,2.5,7.1,4.7,10.1c1.9,2.7,5.3,5.4,4,9 c-1.6,4.5-0.1,4.8,4.2,6.6c-1.1,1.2-0.8,3.5-0.2,5c2.1,5.4,3.7,7.4,2.1,13.3c-1,3.7-1.1,7.5-0.8,11.3c0.4,6.3,1.6,12.7,3.1,18.8 c-11,3.8-15.3,14.1-15.3,25.1c0,1.8-3.6,22.5-5.4,23.9c-1.8,1.4-1.4,11.7-9.4,19.3c-8,7.6,0.7,9.8,6.2,14.5 c3.4,2.9,5.8,6.8,7.9,10.7c1.9,3.4,1.8,4.4,5.6,3c2.7-1,6.2,0.7,9,0.5c1.4-0.1,2.9,0,3.6-1.4c2.7-4.7-8-3-9.8-5.1 c-1.9-2.3-1.1-5.5-1.6-8.2c-0.5-2.3-1.7-4.3-1.7-6.8c0-6.7,0.3-12.2,2.8-18.5c2.2-5.6,5-11,7.8-16.4c0.7-1.3,1.3-2.5,2-3.8 c0,0,11.2-27.7,15.9-29.5s2.4-7.7,2.4-7.7c2.8-9.8,5.8-19.7,7.8-29.8c1.1-5.7,1.3-14.5,5.1-19.1c2.3-2.8,6-5.2,6.6-9 c-2.9-1.2-1.2-6.5-0.7-8.6c1.1-4.6,0.8-6.8-0.7-11.2c-1.3-3.6,2.3-6.3,3.6-9.8c1-2.5,1.8-5,2.5-7.6c-0.1,4.1,1.5,8,2.3,12 c0.4,2.2,4.9,20.6,2,21.1c-3.3,0.5-5.2,9.3-2.5,10.9c2.7,1.6,8.7,4.9,13.6,17.7c4.9,12.8,13.6,8.2,17.2,7.9 C242.6,201.6,238.9,196.5,237.6,194.2z"></path> <path style="fill:#FFFFFF;" d="M419.2,104.5c-2.6-4.5-7-7.7-12.3-6.9c-4.3,0.6-10.3,3.1-12.5,6.7c-1.8,3-2.3,6.2-3.3,9.6 c-0.6,2.2-1.3,4.5-1.5,6.8c0,0.6,0.7,5.8,0.4,6.1c0,0-5.2,2.6-6.7,3.3s-4.4-3.3-4.4-3.3s-1.5-3.3-8.1-4.8 c-6.7-1.5-26.7,11.1-30.7,12.6c-3.2,1.2-8.8-1.8-11-3.1c-0.1-0.4-0.2-0.6-0.2-0.6v-5.6c0,0,5.5-8.5,0.7-15.9 c-3.4-5.2-7.8-7.9-14.1-8c-5.5-0.1-10.6,2.7-12.2,8.2c-1.5,5.1,1.7,9.8,4.8,13.8c0.4,0.5,0.8,1,1.2,1.5c2.4,3,4.3,6.4,6.7,9.4 c4.6,6,10.7,8.7,17.6,11.2c2.2,0.8,4.8,2,7.2,2c1.4,0,3.7-0.3,6.3-0.8c-2,1.9-2.3,4.6-3.7,7.1c-1.8-3.5-11.7-2.8-15.3-5.1 c-6.6-4.4-11.7-10.8-18.2-15.4c-6.1-4.3-12.6-8.4-17.7-13.9c-5-5.5-8.7-11.6-14.2-16.8c-5.4-5-7.6-12.1-12.1-17.8 c-1.4-1.7-2.9-3.2-4.5-4.7c-2.9-2.6-6.1-4.8-9.1-7.1c-2.6-2-4.2-5.2-7-6.9c-4.6-2.8-5.2,2.6-8.4,4.5c-1.4-1.9-3-3.9-3.7-4.6 c-1.6-1.6,3.5-21.3,4-24s-6.2-1.9-8.9,0.3s-3.5,6.4-4.6,8.9c-1.7,4-0.8,6.7-7.1,13c-6.2,6.2,2.5,7.8,4.4,7.5 c1.4-0.2,6.5,4.5,9.2,7.1c-0.6,1-1.1,2-1.7,2.5c-0.7,0.6-1.9,1.3-1.3,2.4c0.5,0.9,1.7,1.7,2.3,2.4c11.2,12,24.3,23.1,33.8,36.6 c10,14.2,15.7,31.3,28.1,43.8c3.1,3.1,6.4,5.7,8.3,9.8c2.9,6.1,2.6,13.1,4.8,19.4c6.1,17.8-1.1,32.1-1.5,49.5 c-0.2,7.4,1.7,14.3,2.7,21.6c1,7.2,0.8,14.7,0.1,21.9c-0.9,8.3,5.6,17.3,2.5,25.3c-1,2.5,5.8,2.8,12.5,2.3 c-0.1,3.7-0.4,9.5-1.4,10.3c-1.5,1.1-6.4,8.1,2.2,8.1s13.4,1.5,13.8,4.1s5.9,3.3,9.3,3c3.3-0.4,8.5-4.4,6.3-5.9 s-19.3-11.5-19.3-13.7c0-1.2-0.5-4.6-0.9-7.2c1.4-0.3,2.3-0.6,2.3-0.9c0.4-1.5,1.5-19.3-0.4-22.6c-3.5-6.2-1.9-14.4-1.5-21.1 c0.5-8.1,1.5-16.1,3.1-24.1c0.9-4.9-0.1-9.7,0.2-14.6c0.2-4.9,2.7-8.4,3.9-12.9c0.8-3,0.4-4.8,2.4-7.3c1.1-1.3,11.4-17.3,7.1-17.8 c6.5,0.6,13.3,0.6,19.7-1.1c3.4-0.9,7.6-2.2,9.9-5c0.2,2.5-0.1,5.7-0.8,8.1c-1.6,5.3-1.9,11.8,5.6,10.7c6.1-0.9,10.5-6,12.3-11.6 c1.8-5.4,3.1-11,7.1-15.4c3.7-4.1,9.1-6.8,10.1-12.8c0.7-4.7-2.8-8.4-3.2-12.9c-0.2-2.6,1.7-5,2-7.5c0.5-4.9-3.7-5.1-5.6-8.8 c-0.8-1.6,0.7-3.2,0.4-3.3c-0.1,0-0.2,0-0.3,0c2.5-0.3,4.2-2.6,6-3.8c5.3-3.6,8-8.7,9.2-14.6C420.9,111.6,421.1,107.7,419.2,104.5z"></path> </svg> 