<?xml version="1.0" encoding="UTF-8"?> <!-- Generator: Adobe Illustrator 24.3.0, SVG Export Plug-In . SVG Version: 6.00 Build 0) --> <svg xmlns="http://www.w3.org/2000/svg" xmlns:xlink="http://www.w3.org/1999/xlink" version="1.1" id="Layer_1" x="0px" y="0px" viewBox="0 0 500 500" style="enable-background:new 0 0 500 500;" xml:space="preserve"> <path style="fill-rule:evenodd;clip-rule:evenodd;fill:#FFFFFF;" d="M423.8,157.8C405,119,367.3,80.9,327.7,64.6 C264.9,33.2,178,43.6,123.6,85.7c-68,51.8-96.1,133.8-74.7,216.7c14.8,64,76.2,124.6,139.8,140.5c80.2,20.3,163.4-4.4,215.2-71.4 C450.1,314.9,457.9,222.9,423.8,157.8z M389.1,367.4c-47,54-111.3,78-182.3,65.1c-42.5-10.7-84.7-29.6-111.7-69.1 C50.8,310.9,43,221.8,75.9,161.5C111.8,93.1,182.4,54.3,258.2,59.1c46.2,4.8,86.5,23.3,121.3,55.8c14.8,17,27,35.1,36.6,54.4 C445.3,231.4,433.8,316.4,389.1,367.4z"></path> <path style="fill-rule:evenodd;clip-rule:evenodd;fill:#FFFFFF;" d="M376.9,134.9h-4.8c-2.2-1.1-6.3-1.5-6.3-4.8 c0.7-1.5,2.2-1.5,3-2.2c-3.3-2.2-1.5-6.3-3-9.2c-5.5-1.8-1.1,4.8-4.8,6.3c-5.9-0.7-10.4,1.8-14.8-2.2l1.5-1.5 c-0.4-0.7-2.2-1.8-3.7-1.5c-1.1,7-7.8,2.6-13.3,3.7c-4.8-1.1-1.5-4.4-2.2-7.8c-1.5,0.4-2.6-0.4-3.7-0.7c-0.4,9.6-11.1,4.8-17,6.3 c-6.3-3-19.6,3.3-18.5-8.5c-4.4-1.1-7.4,1.5-10,3.7c-12.6-7.4-15.2,13.3-25.5,6.3c-0.7-4.4,0.7-8.1,3-11.5 c5.9-6.3-1.1-13.3-2.2-19.2c-5.9-13.7-23.3-18.5-35.9-11.5c-13.7,6.7-15.2,22.2-14.1,35.9c-0.7,1.5-2.6,0.4-3.7,0.7 c-11.1,8.1-18.5,20.3-26.3,31.1c-1.1,27-6.3,52.1-13.3,76.9c1.1,1.1,3,0.4,3.7,1.5c-6.3,7.4,2.2,14.4,1.5,22.6 c-8.9,26.3-17.4,52.5-22.6,79.9c-3,6.7-10,6.3-14.8,9.2c-6.7,10.4-17.4,18.9-20.3,31.1c4.4,8.9,3,22.2,13.3,26.3 c5.2,10,14.4,1.1,21.8,1.5c4.1-7-1.1-14.1-1.5-21.1c7-3,16.6-0.4,24-2.2c5.5-12.6,10.4-25.1,17-37.3c4.8-20,11.8-39.2,21.1-56.9 c1.8-1.5-0.7-4.4,2.2-5.5c12.6,3.3,18.9,17.4,27,26.3c3.3,9.6,15.2,15.9,20.3,24.8c4.8,18.5,8.9,37.3,14.8,55.1 c1.1,9.6-3.3,18.9,5.5,25.5c11.1,7,22.9,18.9,37.3,10.7v-10c-4.1-12.2-16.6-21.1-14.8-35.9c3-20-8.1-33.6-5.5-53.6 c-7.4-7.4-10-17-17-24.8c-2.2-5.5-9.6-8.9-9.2-15.5c1.5-1.5,3-3.3,4.8-3.7c0-9.2-8.1-15.5-13.3-21.8c-4.4-7.4-12.6-13.3-16.3-21.1 l-6.3,1.5c-0.4-4.8-2.2-9.2-1.5-14.8c0.4-3.3,4.1-5.5,7.8-4.8c1.8-7,1.1-15.2,2.2-22.6c1.8-3.7,6.3-2.2,9.2-3c6.3,2.6,11.8-1.1,17-3 l0.7,0.7c1.8,0.7,2.6-1.5,3.7-2.2c10.7,3.3,13.3-10.7,21.1-14.8l14.8,3c2.2,0,3.7-1.1,3-3.7c1.5-4.1-3-8.5,0.7-10.7 c5.2,12.2,8.1,24.8,16.3,35.9c2.6-0.4,4.4-1.8,6.3-3.7c-6.3-11.1-12.9-22.9-12.6-35.9c3,0.4,4.8,3.3,7.8,3.7c1.5-1.8,3-5.5,6.3-4.8 c4.4-20,27-10,40.3-14.8C377.3,136,376.5,135.6,376.9,134.9z M256,153.7c-3-0.4-6.3-1.5-7.8-3.7l12.6-10c6.7-0.7,12.6,1.1,18.5,1.5 C274.8,150.4,260.4,142.3,256,153.7z"></path> </svg> 