<?xml version="1.0" encoding="UTF-8"?> <!-- Generator: Adobe Illustrator 24.3.0, SVG Export Plug-In . SVG Version: 6.00 Build 0) --> <svg xmlns="http://www.w3.org/2000/svg" xmlns:xlink="http://www.w3.org/1999/xlink" version="1.1" id="Layer_1" x="0px" y="0px" viewBox="0 0 500 500" style="enable-background:new 0 0 500 500;" xml:space="preserve"> <path style="fill:none;stroke:#FFFFFF;stroke-width:17.318;stroke-miterlimit:10;" d="M385,472.1H126.8c-43.2,0-78.5-35.3-78.5-78.5 V135.4c0-43.2,35.3-78.5,78.5-78.5H385c43.2,0,78.5,35.3,78.5,78.5v258.2C463.6,436.8,428.2,472.1,385,472.1z"></path> <text transform="matrix(1 0 0 1 83.796 363.8305)" style="fill:#FFFFFF; font-family:'EurostileNextLTPro-Bold'; font-size:165.944px;">APP</text> <g> <g> <path style="fill:#FFFFFF;" d="M121,164.9c-2,2-3.9,3.9-6.9,4.9c-2.9,1-4.9,1-7.9,1h-1c0,0,0,0,0,1c0,2.9-1,5.9-1,8.8 c-1,3.9-1,7.9-2,10.8c-1,3.9-1,7.9-2,11.8c0,2.9-1,4.9-1,7.9c0,1-1,2.9-1,3.9c-1,1-2,2-3.9,2c-1,0-2,0-3.9-1c-2,2-2.9,2.9-4.9,4.9 c-2,1-3.9,2.9-5.9,3.9c1,1,2,2,3.9,2c1,1,2.9,1,3.9,1c1,0,1,0,2,0c2,0,3.9,0,5.9,0c0,0,0,0,1,0c2.9,0,4.9-1,6.9-2 c4.9-2,7.9-5.9,8.8-10.8c0-1,0-1,1-2c1-3.9,2-7.9,2-11.8c1-3.9,1-7.9,2-12.8c1-3.9,1-7.9,2-12.8C120,173.7,121,168.8,121,164.9 C121.9,164.9,121.9,164.9,121,164.9C121.9,164.9,121,164.9,121,164.9L121,164.9z"></path> <path style="fill:#FFFFFF;" d="M209.3,164.9c-2,2-3.9,3.9-6.9,4.9c-2.9,1-4.9,1-7.9,1h-1l0,0c0,2.9-1,5.9-1,8.8 c-1,3.9-1,7.9-2,10.8c-1,3.9-1,7.9-2,11.8c0,2.9-1,4.9-1,7.9c0,1-1,2.9-1,3.9c-1,2.9-4.9,2.9-6.9,1c-2,2-2.9,2.9-4.9,4.9 c-2,1-3.9,2.9-5.9,3.9c1,1,2,2,2.9,2c2,1,2.9,1,4.9,1c1,0,1,0,2,0c2,0,3.9,0,5.9,0c0,0,0,0,1,0c2,0,3.9-1,4.9-1 c5.9-2,9.8-5.9,10.8-11.8c1-2.9,2-5.9,2-8.8c1-3.9,1-7.9,2-12.8c1-3.9,1-7.9,2-12.8c1-4.9,1-8.8,2-13.7 C209.3,166.8,209.3,165.9,209.3,164.9L209.3,164.9z"></path> <path style="fill:#FFFFFF;" d="M194.6,163.9C195.6,163.9,195.6,163.9,194.6,163.9c2,0,3.9,0,4.9,0c2.9,0,4.9-1,7.9-2.9 c1-1,2.9-2,2.9-3.9c-4.9,0-9.8,0-14.7,0C195.6,160,195.6,161.9,194.6,163.9z"></path> <path style="fill:#FFFFFF;" d="M108.2,158c0,2-1,3.9-1,5.9v1l0,0c2,0,4.9,0,6.9-1c2.9-1,4.9-2,6.9-3.9c0-1,1-1,1-2 C118,157,113.1,157,108.2,158C108.2,157,108.2,158,108.2,158z"></path> <path style="fill:#FFFFFF;" d="M271.2,182.5c-2-7.9-6.9-13.7-14.7-16.7c-5.9-2-11.8-2-17.7-1c-9.8,2-16.7,6.9-22.6,14.7 c-2,3.9-3.9,7.9-3.9,12.8c-1,3.9-1,6.9,0,10.8c2,7.9,6.9,13.7,13.7,16.7c3.9,1,7.9,2,11.8,2c2,0,3.9,0,5.9-1 c9.8-2,17.7-6.9,22.6-15.7c2-3.9,2.9-7.9,3.9-11.8C271.2,189.4,272.1,186.5,271.2,182.5z M251.5,189.4c0,3.9-1,6.9-2,9.8 c-1,2-2,3.9-3.9,5.9c-2,2-4.9,2-6.9,2c-2.9,0-4.9-2-5.9-4.9c-1-1-1-2.9-1-4.9c0-3.9,0-7.9,2-11.8c1-2,2.9-3.9,4.9-5.9 c2-1,3.9-2,6.9-2c2.9,0,4.9,2,5.9,4.9c1,1,1,2,1,3.9C251.5,187.5,251.5,188.4,251.5,189.4z"></path> <path style="fill:#FFFFFF;" d="M179.9,203.2c2-3.9,2.9-6.9,2.9-10.8s0-6.9,0-10.8c-1-4.9-2.9-8.8-6.9-11.8c-2.9-2-5.9-3.9-9.8-4.9 c-4.9-1-8.8-1-13.7-1c-3.9,1-7.9,2-11.8,3.9c-7.9,4.9-12.8,10.8-14.7,19.6c-1,4.9-2,9.8-1,14.7c2,7.9,5.9,13.7,13.7,16.7 c3.9,1,7.9,2,11.8,2c2,0,2.9,0,4.9,0c1,0,2,0,2,0C168.1,218.9,175,213,179.9,203.2z M161.2,200.2c-1,2-2,3.9-3.9,4.9 c-2,2-4.9,2-6.9,2c-2.9,0-4.9-2-5.9-4.9c-1-2-1-3.9-1-6.9s1-5.9,2-9.8c1-2.9,2.9-4.9,4.9-5.9c2-1,3.9-2,6.9-2c2.9,0,4.9,2,5.9,4.9 c1,1,1,2.9,1,4.9C164.2,192.4,163.2,196.3,161.2,200.2z"></path> </g> <g> <path style="fill:#FFFFFF;" d="M427.2,163.9c-11.8,0-23.6,0-35.3,0c-2,0-3.9,0-4.9,0c-1,0-1,0-1,1l0,0c0,2.9-1,5.9-1,8.8 c0,1,0,2.9-1,3.9c0,1,0,1,1,1h1c3.9,0,7.9,0,11.8,0h1c0,1,0,2,0,2c-1,6.9-2,13.7-2.9,20.6c-1,5.9-2,12.8-2.9,18.7c0,1,0,1,1,1 c3.9,0,7.9,0,11.8,0c1,0,1,0,2-1c1-3.9,1-7.9,2-10.8c1-3.9,1-7.9,2-12.8c1-4.9,1-9.8,2-14.7c0-1,0-2,1-3.9h1c3.9,0,7.9,0,12.8,0 c0,0,0,0,1,0c1,0,1,0,1-1c0,0,0,0,0-1c1-2.9,1-6.9,2-9.8c0-1,0-1,0-2c0-1,0-1,0-2C429.2,163.9,428.2,163.9,427.2,163.9z"></path> <path style="fill:#FFFFFF;" d="M317.3,165.9c-2-1-4.9-1-6.9-1c-13.7,0-26.5,0-40.2,0c0,0,0,0-1,0c4.9,3.9,6.9,8.8,8.8,13.7h1 c8.8,0,17.7,0,26.5,0h1c2,0,2.9,2,2.9,3.9c0,2-1,2.9-2.9,2.9c-1,0-1,0-2,0c-7.9,0-16.7,0-24.5,0h-1c0,4.9-1,9.8-2,13.7h1 c8.8,0,17.7,0,26.5,0h1c2,0,2.9,2,2.9,3.9c0,2-2,2.9-3.9,2.9h-1c-9.8,0-19.6,0-28.5,0c0,0-1,0-1,1c-2.9,4.9-6.9,9.8-11.8,12.8l0,0 h1c10.8,0,20.6,0,31.4,0c4.9,0,8.8,0,12.8-1c2,0,4.9-1,6.9-2c5.9-3.9,8.8-9.8,8.8-16.7c0-2.9-2-5.9-3.9-7.9c-1-1-2.9-2-3.9-2h-1h1 c1,0,2-1,2-1c3.9-2,5.9-4.9,7.9-8.8c1-2.9,1-5.9,0-7.9C323.2,168.8,321.2,166.8,317.3,165.9z"></path> <path style="fill:#FFFFFF;" d="M377.2,163.9c-3.9,0-7.9,0-11.8,0c-9.8,0-19.6,0-29.5,0c-1,0-1,0-1,1c0,2.9-1,5.9-1,8.8 c-1,3.9-1,7.9-2,11.8c-1,3.9-1,7.9-2,11.8c-1,3.9-1,7.9-2,11.8c-1,2.9-1,6.9-2,9.8c0,1,0,1,1,1c10.8,0,21.6,0,31.4,0 c2.9,0,5.9,0,9.8,0c2,0,2,0,2-2c0-2.9,1-6.9,1-9.8c0-1,0-1,0-2c0-1,0-1-1-1h-1c-8.8,0-17.7,0-26.5,0h-1c0-2,1-4.9,1-6.9h1 c3.9,0,8.8,0,12.8,0c1,0,1,0,1-1l0,0c1-3.9,1-7.9,2-11.8c0-2,0-2-1-2c-3.9,0-7.9,0-12.8,0c0,0,0,0-1,0c0-2,1-4.9,1-6.9h1 c2.9,0,4.9,0,7.9,0c6.9,0,13.7,0,19.6,0c1,0,1,0,1-1l0,0C376.2,171.7,376.2,167.8,377.2,163.9 C378.2,164.9,378.2,163.9,377.2,163.9z"></path> </g> </g> </svg> 