<?xml version="1.0" encoding="UTF-8"?> <!-- Generator: Adobe Illustrator 24.3.0, SVG Export Plug-In . SVG Version: 6.00 Build 0) --> <svg xmlns="http://www.w3.org/2000/svg" xmlns:xlink="http://www.w3.org/1999/xlink" version="1.1" id="Layer_1" x="0px" y="0px" viewBox="0 0 500 500" style="enable-background:new 0 0 500 500;" xml:space="preserve"> <g> <path style="fill:#FFFFFF;" d="M257.3,87.8c-11.2,0-19.7-9.2-19.7-19.7c0-11.2,9.2-19.7,19.7-19.7c11.2,0,19.7,9.2,19.7,19.7 C277.1,79.2,267.9,87.8,257.3,87.8z M257.3,58.8c-5.3,0-9.2,3.9-9.2,9.2s3.9,9.2,9.2,9.2c5.3,0,9.2-3.9,9.2-9.2 C266.5,62.8,262.6,58.8,257.3,58.8z"></path> <g> <rect x="424.5" y="246.4" style="fill:#FFFFFF;" width="27" height="27"></rect> <path style="fill:#FFFFFF;" d="M452.1,274h-29v-29h29V274z M425.2,272.7h25.7v-25.7h-25.7V272.7z"></path> </g> <path style="fill:#FFFFFF;" d="M444.3,236.5h-11.8c0-90.2-73.7-163.9-163.9-163.9V61.4C365.9,61.4,444.3,139.8,444.3,236.5z"></path> </g> <g> <path style="fill:#FFFFFF;" d="M252.1,448.5c-11.2,0-19.7-9.2-19.7-19.7c0-11.2,9.2-19.7,19.7-19.7c11.2,0,19.7,9.2,19.7,19.7 C272.5,439.9,263.2,448.5,252.1,448.5z M252.1,419.5c-5.3,0-9.2,3.9-9.2,9.2c0,5.3,3.9,9.2,9.2,9.2c5.3,0,9.2-3.9,9.2-9.2 C261.9,423.5,257.3,419.5,252.1,419.5z"></path> <g> <rect x="58.1" y="223.7" style="fill:#FFFFFF;" width="27" height="27"></rect> <path style="fill:#FFFFFF;" d="M86.2,251.7h-29v-29h29V251.7z M58.5,249.7h25.7V224H58.5V249.7z"></path> </g> <path style="fill:#FFFFFF;" d="M240.2,435.3c-96.8,0-175.1-78.3-175.1-175.1H77c0,90.2,73.7,163.9,163.9,163.9v11.2H240.2z"></path> </g> <path style="fill:#FFFFFF;" d="M389,162.1c-0.7-1.3-1.3-2-2.6-2.6l-19.7-7.2l-3.3-5.9c-1.3-2-3.3-3.3-5.3-3.9l-19.1-3.9 c-5.3-1.3-9.9,1.3-13.2,5.3l-27.6,42.1c-2,3.3-5.3,5.3-8.6,5.3c-13.2,2-39.5,5.9-63.8,5.3c-11.8,0-23,1.3-33.6,5.3 c-3.3,1.3-6.6,2.6-9.2,3.9c-5.3,0-36.9-1.3-42.1,19.7c-4.6,19.7,9.9,39.5,11.8,42.1v0.7c-0.7,11.8-0.7,13.8-8.6,19.1 c-16.5,9.2-20.4,14.5-20.4,15.1c-0.7,0.7-0.7,1.3-0.7,2l-1.3,40.2c0,1.3,0.7,2,1.3,3.3c0.7,0.7,2,1.3,2.6,1.3h17.1 c1.3,0,2.6-0.7,3.3-2c0.7-1.3,0.7-2.6,0.7-3.9l-0.7-1.3c-1.3-3.3-3.9-6.6-7.2-7.9c0.7-8.6,2.6-24.4,11.8-28.3 c3.9-2,9.9-4.6,15.1-8.6c0.7,3.9,1.3,7.9,0.7,11.2c-0.7,2,1.3,4.6,3.3,4.6h0.7c2,0,3.9-1.3,3.9-3.3c0.7-5.3,0.7-11.2-1.3-17.8 c1.3-0.7,2.6-2,3.3-2.6c10.5-8.6,17.1-17.8,19.7-27c0.7-2.6,2.6-8.6,3.3-9.2c2-3.3,4.6-5.9,7.9-7.2c3.9-1.3,7.9-1.3,11.8,0.7 l40.2,18.4c9.9,4.6,21.1,7.2,32.3,7.2c5.3,24.4,2.6,42.1,1.3,48.7c-0.7,3.3,0,6.6,1.3,9.2l7.9,15.1c0.7,1.3,2,2,3.9,2h16.5 c1.3,0,2.6-0.7,3.3-2c0.7-1.3,0.7-2.6,0-3.9l-1.3-2.6c-1.3-2.6-3.9-4.6-7.2-5.9l-2.6-7.2l3.3-55.9c0-3.9,1.3-7.2,3.3-9.9 c3.9-6.6,9.2-17.8,8.6-34.9c-0.7-19.7,12.5-42.1,17.1-48.7l22.4,1.3c6.6,0.7,12.5-2.6,15.8-8.6l2-3.3 C389,164.1,389.6,162.8,389,162.1z M148.7,227.3c2-8.6,11.8-11.2,20.4-12.5c-7.9,6.6-12.5,15.1-13.8,25c-0.7,5.3-1.3,9.2-1.3,13.2 C150,246.4,146.7,236.5,148.7,227.3z M370.5,169.4l-24.4-1.3c-2,0-3.9-1.3-5.9-2.6l-3.9-5.3c-1.3-2-3.9-2-5.9-0.7 c-2,1.3-2,3.9-0.7,5.9l3.9,5.3c1.3,2,3.3,3.3,5.3,3.9c-5.9,9.2-17.1,30.9-16.5,50.7c0.7,15.8-4.6,25.7-7.2,29.6 c-2.6,3.9-3.9,9.2-4.6,13.8l-3.3,57.3c0,0.7,0,1.3,0,1.3l3.3,10.5c0,0.7,0.7,1.3,1.3,2h-2.6l-6.6-13.2c-0.7-1.3-0.7-2.6-0.7-3.9 c2.6-11.8,5.9-43.4-11.2-82.9c-0.7-2-3.3-3.3-5.3-2c-2,0.7-3.3,3.3-2,5.3c3.3,7.2,5.9,14.5,7.2,21.1c-9.2-0.7-18.4-2.6-27-6.6 l-40.2-18.4c-5.9-2.6-12.5-2.6-17.8-0.7l0,0c1.3-3.3,2.6-5.3,2.6-5.3c0.7-2,0-4.6-2-5.3c-2-0.7-4.6,0-5.3,2 c0,0.7-5.3,11.2-11.2,30.9c-2,6.6-9.9,23-41.5,38.8c-17.1,7.9-16.5,37.5-16.5,38.8s0.7,2.6,2,3.3h-4.6l0.7-34.2 c2-2,6.6-5.9,17.1-12.5c12.5-7.2,12.5-13.2,12.5-25.7c0-6.6,0.7-15.1,2-27.6c2-14.5,12.5-25,31.6-31.6c9.9-3.3,20.4-5.3,30.9-4.6 c25,0.7,51.3-2.6,65.2-5.3c5.9-0.7,11.2-3.9,14.5-9.2l27.6-42.1c0.7-1.3,2.6-2,3.9-2l-0.7,0.7c-1.3,2-1.3,3.9,0,5.9 c0.7,0.7,2,1.3,2.6,1.3c1.3,0,2-0.7,3.3-1.3l3.9-4.6l9.9,2l1.3,2c-1.3,0.7-2.6,2.6-2.6,4.6c0,2,2,3.3,3.9,3.3h0.7l3.9-0.7l15.8,5.3 C377.1,168.1,373.8,169.4,370.5,169.4z"></path> </svg> 