<?xml version="1.0" encoding="UTF-8"?> <!-- Generator: Adobe Illustrator 24.3.0, SVG Export Plug-In . SVG Version: 6.00 Build 0) --> <svg xmlns="http://www.w3.org/2000/svg" xmlns:xlink="http://www.w3.org/1999/xlink" version="1.1" id="Layer_1" x="0px" y="0px" viewBox="0 0 500 500" style="enable-background:new 0 0 500 500;" xml:space="preserve"> <g> <g> <path style="fill:#FFFFFF;" d="M112.5,94.4c8.9-11.1,25.9-11.1,35.5,0l38.5,46.6l45.1,55.5c4.4,5.2,0.7,12.6-5.9,12.6h-95.5H35.5 c-6.7,0-10.4-7.4-5.9-12.6L74.7,141L112.5,94.4z"></path> </g> <g> <path style="fill:#FFFFFF;" d="M22.9,246.8v-8.1c0-7.4,5.9-13.3,13.3-13.3H225c7.4,0,13.3,5.9,13.3,13.3v8.1 c0,7.4-5.9,13.3-13.3,13.3H35.5C28.1,260.1,22.9,254.2,22.9,246.8z"></path> </g> </g> <g> <g> <path style="fill:#FFFFFF;" d="M388.5,363c-8.9,11.1-25.9,11.1-35.5,0l-38.5-46.6l-45.1-55.5c-4.4-5.2-0.7-12.6,5.9-12.6H370h94.7 c6.7,0,10.4,7.4,5.9,12.6l-45.1,55.5L388.5,363z"></path> </g> <g> <path style="fill:#FFFFFF;" d="M478.8,211.3v8.1c0,7.4-5.9,13.3-13.3,13.3H276.8c-7.4,0-13.3-5.9-13.3-13.3v-8.1 c0-7.4,5.9-13.3,13.3-13.3h188.7C472.9,198,478.8,203.9,478.8,211.3z"></path> </g> </g> </svg> 