<?xml version="1.0" encoding="UTF-8"?> <!-- Generator: Adobe Illustrator 24.3.0, SVG Export Plug-In . SVG Version: 6.00 Build 0) --> <svg xmlns="http://www.w3.org/2000/svg" xmlns:xlink="http://www.w3.org/1999/xlink" version="1.1" id="Layer_1" x="0px" y="0px" viewBox="0 0 500 500" style="enable-background:new 0 0 500 500;" xml:space="preserve"> <g> <path style="fill:#FFFFFF;" d="M264,94.4c-12.1,0-21.3-9.9-21.3-21.3c0-12.1,9.9-21.3,21.3-21.3c12.1,0,21.3,9.9,21.3,21.3 C285.3,85.1,275.4,94.4,264,94.4z M264,63.1c-5.7,0-9.9,4.3-9.9,9.9s4.3,9.9,9.9,9.9c5.7,0,9.9-4.3,9.9-9.9 C274,67.4,269.7,63.1,264,63.1z"></path> <g> <rect x="444.4" y="265.5" style="fill:#FFFFFF;" width="29.1" height="29.1"></rect> <path style="fill:#FFFFFF;" d="M474.2,295.3H443v-31.2h31.2V295.3z M445.1,293.9h27.7v-27.7h-27.7V293.9z"></path> </g> <path style="fill:#FFFFFF;" d="M465.7,254.9h-12.8c0-97.3-79.5-176.8-176.8-176.8V66C381.2,66,465.7,150.5,465.7,254.9z"></path> </g> <g> <path style="fill:#FFFFFF;" d="M258.3,483.5c-12.1,0-21.3-9.9-21.3-21.3c0-12.1,9.9-21.3,21.3-21.3c12.1,0,21.3,9.9,21.3,21.3 C280.4,474.3,270.4,483.5,258.3,483.5z M258.3,452.3c-5.7,0-9.9,4.3-9.9,9.9s4.3,9.9,9.9,9.9c5.7,0,9.9-4.3,9.9-9.9 C269,456.5,264,452.3,258.3,452.3z"></path> <g> <rect x="49.1" y="241.1" style="fill:#FFFFFF;" width="29.1" height="29.1"></rect> <path style="fill:#FFFFFF;" d="M79.4,271.2H48.1V240h31.2V271.2z M49.6,269.1h27.7v-27.7H49.6V269.1z"></path> </g> <path style="fill:#FFFFFF;" d="M245.6,469.3c-104.4,0-188.9-84.5-188.9-188.9h12.8c0,97.3,79.5,176.8,176.8,176.8v12.1H245.6z"></path> </g> <g> <g> <path style="fill:#FFFFFF;" d="M222.1,361.4l46.2-49c0,0,1.4-1.4,0.7-2.1c0-0.7-3.6-3.6-4.3-4.3c-0.7-0.7-3.6-3.6-4.3-4.3 c-0.7,0-2.1,0.7-2.1,0.7l-49,46.2c0,0-1.4-1.4-2.8,1.4c-1.4,2.8,4.3,7.8,5,8.5s5.7,6.4,8.5,5C224.2,362.8,222.1,361.4,222.1,361.4 z"></path> <g> <rect x="287.3" y="189.6" transform="matrix(0.7057 -0.7085 0.7085 0.7057 -37.0371 291.5468)" style="fill:#FFFFFF;" width="90.2" height="1.4"></rect> <rect x="285.7" y="193.1" transform="matrix(0.7082 -0.7061 0.7061 0.7082 -38.6065 294.1411)" style="fill:#FFFFFF;" width="101.6" height="1.4"></rect> <rect x="284.6" y="196.3" transform="matrix(0.7082 -0.7061 0.7061 0.7082 -40.0956 297.094)" style="fill:#FFFFFF;" width="109.4" height="1.4"></rect> <polygon style="fill:#FFFFFF;" points="299.5,244.2 298.8,243.5 382.6,159 383.3,159.7 "></polygon> <rect x="282.8" y="204.9" transform="matrix(0.7082 -0.7061 0.7061 0.7082 -44.7449 303.048)" style="fill:#FFFFFF;" width="122.9" height="1.4"></rect> <polygon style="fill:#FFFFFF;" points="303.1,253.4 302.4,252.7 391.8,163.3 392.6,164 "></polygon> <rect x="287.1" y="211" transform="matrix(0.705 -0.7092 0.7092 0.705 -46.6299 311.3832)" style="fill:#FFFFFF;" width="127.8" height="1.4"></rect> <rect x="288.9" y="213.9" transform="matrix(0.7076 -0.7066 0.7066 0.7076 -47.9714 313.3448)" style="fill:#FFFFFF;" width="131.4" height="1.4"></rect> <rect x="288.4" y="187.4" transform="matrix(0.7073 -0.7069 0.7069 0.7073 -36.993 286.811)" style="fill:#FFFFFF;" width="78.8" height="1.4"></rect> <rect x="336.7" y="239.3" transform="matrix(0.7071 -0.7071 0.7071 0.7071 -57.9067 340.3094)" style="fill:#FFFFFF;" width="90.2" height="1.4"></rect> <polygon style="fill:#FFFFFF;" points="343.6,271.9 342.8,271.2 414.6,199.5 415.3,200.2 "></polygon> <rect x="320.4" y="233" transform="matrix(0.7074 -0.7068 0.7068 0.7074 -55.4372 333.4773)" style="fill:#FFFFFF;" width="109.4" height="1.4"></rect> <rect x="311.7" y="230.5" transform="matrix(0.7071 -0.7071 0.7071 0.7071 -54.8214 330.0872)" style="fill:#FFFFFF;" width="118.6" height="1.4"></rect> <rect x="305.4" y="228" transform="matrix(0.7074 -0.7068 0.7068 0.7074 -54.334 326.1653)" style="fill:#FFFFFF;" width="122.9" height="1.4"></rect> <rect x="300.5" y="224.4" transform="matrix(0.7084 -0.7058 0.7058 0.7084 -52.7145 322.6012)" style="fill:#FFFFFF;" width="127.1" height="1.4"></rect> <polygon style="fill:#FFFFFF;" points="315.9,266.9 315.1,266.2 406,175.3 406.8,176 "></polygon> <rect x="292.1" y="217.9" transform="matrix(0.7074 -0.7068 0.7068 0.7074 -49.8196 316.8159)" style="fill:#FFFFFF;" width="131.4" height="1.4"></rect> <polygon style="fill:#FFFFFF;" points="357,272.6 356.3,271.9 411.7,216.5 413.1,217.2 "></polygon> <rect x="393.4" y="150.4" transform="matrix(0.7071 -0.7071 0.7071 0.7071 -11.7827 331.332)" style="fill:#FFFFFF;" width="1.4" height="58.9"></rect> <rect x="388.4" y="148.2" transform="matrix(0.7071 -0.7071 0.7071 0.7071 -15.1611 328.6396)" style="fill:#FFFFFF;" width="1.4" height="68.9"></rect> <polygon style="fill:#FFFFFF;" points="413.1,215.1 357,159 357.8,158.3 413.9,214.4 "></polygon> <polygon style="fill:#FFFFFF;" points="408.9,219.4 352.8,163.3 353.5,162.5 409.6,218.6 "></polygon> <polygon style="fill:#FFFFFF;" points="408.9,227.2 346.4,164.7 347.1,164 409.6,226.5 "></polygon> <rect x="372.4" y="151.1" transform="matrix(0.7071 -0.7071 0.7071 0.7071 -30.7123 321.8417)" style="fill:#FFFFFF;" width="1.4" height="93.7"></rect> <rect x="368.5" y="155.5" transform="matrix(0.7071 -0.7071 0.7071 0.7071 -34.976 320.3557)" style="fill:#FFFFFF;" width="1.4" height="93.7"></rect> <rect x="365.7" y="159" transform="matrix(0.7071 -0.7071 0.7071 0.7071 -39.2567 319.7887)" style="fill:#FFFFFF;" width="1.4" height="96.6"></rect> <rect x="361.1" y="162" transform="matrix(0.7071 -0.7071 0.7071 0.7071 -42.9585 317.5448)" style="fill:#FFFFFF;" width="1.4" height="97.3"></rect> <rect x="357.7" y="165.9" transform="matrix(0.7071 -0.7071 0.7071 0.7071 -46.717 316.2655)" style="fill:#FFFFFF;" width="1.4" height="97.3"></rect> <rect x="353.5" y="168.6" transform="matrix(0.7071 -0.7071 0.7071 0.7071 -50.4075 314.2784)" style="fill:#FFFFFF;" width="1.4" height="98.7"></rect> <rect x="319.2" y="223.4" transform="matrix(0.7071 -0.7071 0.7071 0.7071 -85.1114 300.2767)" style="fill:#FFFFFF;" width="1.4" height="58.9"></rect> <polygon style="fill:#FFFFFF;" points="348.5,275.5 300.2,226.5 300.9,225.7 349.2,274 "></polygon> <rect x="328" y="206.3" transform="matrix(0.7071 -0.7071 0.7071 0.7071 -77.7585 304.5075)" style="fill:#FFFFFF;" width="1.4" height="79.5"></rect> <rect x="331.4" y="202.4" transform="matrix(0.7071 -0.7071 0.7071 0.7071 -73.9856 305.7774)" style="fill:#FFFFFF;" width="1.4" height="79.5"></rect> <rect x="334.9" y="193" transform="matrix(0.7071 -0.7071 0.7071 0.7071 -69.5636 306.8127)" style="fill:#FFFFFF;" width="1.4" height="88.8"></rect> <rect x="340.1" y="187.9" transform="matrix(0.7071 -0.7071 0.7071 0.7071 -66.1703 309.7605)" style="fill:#FFFFFF;" width="1.4" height="93.7"></rect> <rect x="343.5" y="184" transform="matrix(0.7071 -0.7071 0.7071 0.7071 -62.4151 311.0429)" style="fill:#FFFFFF;" width="1.4" height="93.7"></rect> <polygon style="fill:#FFFFFF;" points="381.2,260.5 313,192.4 313.7,191.7 381.9,259.8 "></polygon> <rect x="351.4" y="173.5" transform="matrix(0.7071 -0.7071 0.7071 0.7071 -53.9263 314.0577)" style="fill:#FFFFFF;" width="1.4" height="97.3"></rect> </g> <path style="fill:#FFFFFF;" d="M392.6,254.2c26.3-26.3,31.2-64.6,10.7-85.2c-20.6-20.6-58.9-16.3-85.2,10.7 c-14.9,14.9-22.7,34.1-23.4,51.1c-2.1,12.8-8.5,46.9-34.1,72.4l4.3,4.3l0,0l0,0l0,0l0,0l4.3,4.3c24.1-24.1,56.1-31.2,70.3-33.4 C357,277.6,376.9,269.8,392.6,254.2z M400.4,171.8c18.5,18.5,13.5,53.3-10.7,77.4s-58.9,29.1-77.4,10.7s-13.5-53.3,10.7-77.4 C347.1,157.6,381.9,153.3,400.4,171.8z M315.1,278.3c-2.1,0-19.2,7.8-25.6,11.4c-5.7,3.6-8.5,2.8-9.9,2.8l0,0c0,0,0,0-0.7,0 c0-0.7-0.7-4.3,2.8-9.9c3.6-6.4,11.4-23.4,11.4-25.6c0-2.1,1.4-5,2.8-2.1c1.4,2.8,4.3,7.1,6.4,9.2c0.7,0.7,1.4,2.1,2.1,2.8 c1.4,1.4,2.1,2.1,3.6,2.8c2.8,2.1,5.7,4.3,8.5,5.7C320.1,276.9,317.3,278.3,315.1,278.3z"></path> <path style="fill:#FFFFFF;" d="M405.3,170.4c17.8,21.3,12.1,57.5-13.5,82.4c-15.6,15.6-35.5,23.4-53.3,23.4 c-13.5,2.1-45.4,9.9-70.3,33.4l-2.8-2.8l0,0l4.3,4.3c24.1-24.1,56.1-31.2,70.3-33.4c17.8,0,37.6-7.8,53.3-23.4 C418.8,228.6,423.8,191.7,405.3,170.4z"></path> <path style="fill:#FFFFFF;" d="M305.2,266.9c1.4,1.4,2.1,2.1,3.6,2.8c2.8,2.1,5.7,4.3,8.5,5.7l0,0c0-0.7-0.7-0.7-1.4-1.4 c-2.1-1.4-5.7-3.6-8.5-5.7c-1.4-0.7-2.1-2.1-3.6-2.8c-0.7-0.7-1.4-2.1-2.1-2.8l0,0c0.7,0.7,0.7,0.7,1.4,1.4 C303.8,264.8,304.5,266.2,305.2,266.9z"></path> <path style="fill:#FFFFFF;" d="M323,181.7c24.1-24.1,58.9-29.1,77.4-10.7c0.7,0.7,0.7,0.7,1.4,1.4c-0.7-0.7-1.4-2.1-2.1-2.8 c-18.5-18.5-53.3-13.5-77.4,10.7c-23.4,23.4-28.4,56.8-12.1,76C294.6,237.8,299.5,205.2,323,181.7z"></path> <path style="fill:#FFFFFF;" d="M281.8,281.8c3.6-6.4,11.4-23.4,11.4-25.6c0-1.4,0.7-3.6,2.1-2.8c-1.4-2.8-2.8-0.7-2.8,2.1 c0,2.1-7.8,19.2-11.4,25.6c-3.6,5.7-2.8,9.2-2.8,9.9c0,0,0,0,0.7,0l0,0l0,0C278.9,289.7,278.9,286.8,281.8,281.8z"></path> <path style="fill:#FFFFFF;" d="M264,305.3L264,305.3L264,305.3L264,305.3l-3.6-3.6l0,0l4.3,4.3l0,0L264,305.3L264,305.3z"></path> <path style="fill:#FFFFFF;" d="M315.1,278.3c2.1,0,5-1.4,2.1-2.8c0,0.7-1.4,1.4-3.6,1.4c-2.1,0-19.2,7.8-25.6,11.4 c-5,2.8-8.5,2.8-9.2,2.8v0.7c0,0,0,0,0.7,0l0,0c0.7,0,4.3,0.7,9.9-2.8C296,286.1,313,278.3,315.1,278.3z"></path> <path style="fill:#FFFFFF;" d="M275.4,302.4c6.4-7.8,4.3-9.9,4.3-9.9l-0.7-0.7l0,0l0,0l0,0l0,0l-0.7-0.7c0,0-2.1-1.4-9.9,4.3 c-7.8,6.4-9.2,6.4-9.2,6.4l4.3,4.3l0,0l4.3,4.3C269,311.7,269.7,310.3,275.4,302.4z"></path> <g> <g> <g> <path style="fill:#FFFFFF;" d="M222.1,361.4l46.2-49c0,0,0,0,0.7-0.7l0,0c0,0,0.7-1.4,6.4-9.2c6.4-7.8,4.3-9.9,4.3-9.9 l-0.7-0.7l0,0l0,0l0,0l0,0l-0.7-0.7c0,0,0,0-0.7,0c0,1.4-0.7,4.3-5,9.2c-6.4,7.8-6.4,9.2-6.4,9.2l0,0c0,0.7-0.7,0.7-0.7,0.7 l-46.2,49c0,0,1.4,1.4-1.4,2.8c-1.4,0.7-4.3-1.4-6.4-2.8c1.4,1.4,5.7,6.4,8.5,5C224.2,362.8,222.1,361.4,222.1,361.4z"></path> </g> <g> <path style="fill:#FFFFFF;" d="M210.8,357.1c0.7,0.7,0.7,0.7,1.4,1.4C211.5,357.8,210.8,357.1,210.8,357.1L210.8,357.1z"></path> </g> <g> <path style="fill:#FFFFFF;" d="M211.5,357.8c0,0,0.7,0.7,1.4,1.4l0,0C212.9,358.5,212.2,358.5,211.5,357.8z"></path> </g> </g> </g> <g> <g> <path style="fill:#FFFFFF;" d="M259.8,303.2c0,0,1.4-0.7,3.6,1.4c2.1,2.1,2.8,2.8,2.8,2.8l-2.1,2.1l-2.8-2.8 c0,0-1.4-1.4-2.8-1.4L259.8,303.2z"></path> <path style="fill:#FFFFFF;" d="M269,312.4c0,0,0.7-1.4-1.4-3.6c-2.1-2.1-2.8-2.8-2.8-2.8l-2.1,2.1l2.8,2.8c0,0,1.4,1.4,1.4,2.8 L269,312.4z"></path> </g> </g> <g> <path style="fill:#FFFFFF;" d="M259.8,302.4c0,0,1.4-0.7,3.6,1.4c2.1,2.1,2.8,2.8,2.8,2.8l-2.1,2.1l-2.8-2.1c0,0-1.4-1.4-2.8-1.4 L259.8,302.4z"></path> <path style="fill:#FFFFFF;" d="M269,311.7c0,0,0.7-1.4-1.4-3.6c-2.1-2.1-2.8-2.8-2.8-2.8l-2.1,2.1l2.8,2.8c0,0,1.4,1.4,1.4,2.8 L269,311.7z"></path> </g> <path style="fill:#FFFFFF;" d="M266.9,314.5c0,0-1.4,1.4-5-0.7c-3.6-2.1-9.2-4.3-10.7-2.1c0,0,2.1-0.7,6.4,0.7 C261.2,313.8,264.7,315.9,266.9,314.5C266.1,315.2,266.9,314.5,266.9,314.5"></path> <path style="fill:#FFFFFF;" d="M261.2,320.2c0,0-1.4,1.4-5-0.7c-3.6-2.1-9.2-4.3-11.4-2.8c0,0,2.1-0.7,6.4,0.7 C256.2,319.5,259.8,321.6,261.2,320.2C260.5,320.2,261.9,319.5,261.2,320.2"></path> <path style="fill:#FFFFFF;" d="M256.2,325.9c0,0-1.4,1.4-5-0.7c-3.6-2.1-9.9-5-11.4-2.8c0,0,2.1-0.7,6.4,1.4 C250.5,325.2,254.1,327.3,256.2,325.9C255.5,326.6,256.2,325.9,256.2,325.9"></path> <path style="fill:#FFFFFF;" d="M249.1,333c0,0-1.4,1.4-5-0.7c-3.6-2.1-9.9-5-12.1-3.6c0,0,2.1-0.7,7.1,1.4 C243.4,332.3,247,334.4,249.1,333C248.4,333.7,249.1,333,249.1,333"></path> <path style="fill:#FFFFFF;" d="M242,340.8c0,0-1.4,1.4-5.7-1.4c-3.6-2.1-10.7-5-12.1-3.6c0,0,2.1-0.7,7.1,1.4 C236.3,340.1,239.9,342.2,242,340.8C241.3,341.5,242,340.8,242,340.8"></path> <path style="fill:#FFFFFF;" d="M234.9,347.9c0,0-1.4,1.4-5.7-1.4c-4.3-2.1-10.7-5.7-12.8-4.3c0,0,2.1-0.7,7.1,1.4 C229.2,347.2,232.8,349.3,234.9,347.9C234.2,348.6,234.9,347.9,234.9,347.9"></path> <path style="fill:#FFFFFF;" d="M229.2,354.3c0,0-1.4,1.4-5.7-1.4c-4.3-2.8-11.4-5.7-12.8-4.3c0,0,2.1-0.7,7.1,2.1 C222.8,353.6,227.1,355.7,229.2,354.3C228.5,355,229.2,354.3,229.2,354.3"></path> <path style="fill:#FFFFFF;" d="M207.9,350c0,0,2.1,7.1,13.5,14.2c0,0-1.4,2.1-5.7-1.4l-7.8-8.5C207.9,354.3,206.5,352.2,207.9,350 z"></path> </g> <g> <path style="fill:#FFFFFF;" d="M304.5,349.3l-49-46.2c0,0-1.4-1.4-2.1-0.7c-0.7,0-3.6,3.6-4.3,4.3c-0.7,0.7-3.6,3.6-4.3,4.3 c0,0.7,0.7,2.1,0.7,2.1l46.2,49c0,0-1.4,1.4,1.4,2.8c2.8,1.4,7.8-4.3,8.5-5c0.7-0.7,6.4-5.7,5-8.5 C305.9,347.9,304.5,349.3,304.5,349.3z"></path> <g> <rect x="133.4" y="194.1" transform="matrix(0.7068 -0.7074 0.7074 0.7068 -129.9224 164.9999)" style="fill:#FFFFFF;" width="1.4" height="90.2"></rect> <rect x="136.3" y="184.9" transform="matrix(0.7058 -0.7084 0.7084 0.7058 -126.6567 166.4047)" style="fill:#FFFFFF;" width="1.4" height="101.5"></rect> <rect x="139.6" y="178.2" transform="matrix(0.7066 -0.7076 0.7076 0.7066 -123.6145 167.5972)" style="fill:#FFFFFF;" width="1.4" height="109.4"></rect> <polygon style="fill:#FFFFFF;" points="187.3,272.6 186.6,273.3 102.1,189.5 102.8,188.8 "></polygon> <rect x="148.2" y="166.5" transform="matrix(0.7068 -0.7074 0.7074 0.7068 -117.6138 172.1745)" style="fill:#FFFFFF;" width="1.4" height="122.9"></rect> <rect x="151.1" y="160.8" transform="matrix(0.7074 -0.7068 0.7068 0.7074 -114.1481 172.9816)" style="fill:#FFFFFF;" width="1.4" height="127.1"></rect> <rect x="153.8" y="156.8" transform="matrix(0.7076 -0.7066 0.7066 0.7076 -110.7638 173.6864)" style="fill:#FFFFFF;" width="1.4" height="127.8"></rect> <polygon style="fill:#FFFFFF;" points="204.4,264.1 203.7,264.8 111.3,171.8 112,171.1 "></polygon> <rect x="130.1" y="204.4" transform="matrix(0.7074 -0.7068 0.7068 0.7074 -134.0496 163.8134)" style="fill:#FFFFFF;" width="1.4" height="78.8"></rect> <rect x="182.1" y="144.7" transform="matrix(0.7093 -0.7049 0.7049 0.7093 -80.6679 184.0347)" style="fill:#FFFFFF;" width="1.4" height="90.2"></rect> <rect x="179" y="142.3" transform="matrix(0.7066 -0.7076 0.7076 0.7066 -83.9303 183.8057)" style="fill:#FFFFFF;" width="1.4" height="101.5"></rect> <rect x="175.7" y="141.9" transform="matrix(0.7074 -0.7069 0.7069 0.7074 -87.3407 182.2509)" style="fill:#FFFFFF;" width="1.4" height="109.4"></rect> <rect x="173.8" y="141.8" transform="matrix(0.7082 -0.7061 0.7061 0.7082 -91.0967 181.88)" style="fill:#FFFFFF;" width="1.4" height="118.6"></rect> <polygon style="fill:#FFFFFF;" points="215.7,248.5 215,249.2 127.7,161.8 128.4,161.1 "></polygon> <polygon style="fill:#FFFFFF;" points="212.9,252.7 212.2,253.4 122.7,163.3 123.4,162.5 "></polygon> <rect x="163.7" y="146.8" transform="matrix(0.7066 -0.7076 0.7076 0.7066 -100.8903 178.1888)" style="fill:#FFFFFF;" width="1.4" height="127.8"></rect> <rect x="161.1" y="148.7" transform="matrix(0.7076 -0.7066 0.7066 0.7076 -104.1985 177.0301)" style="fill:#FFFFFF;" width="1.4" height="131.4"></rect> <rect x="186.9" y="147.6" transform="matrix(0.7074 -0.7068 0.7068 0.7074 -77.2664 187.3346)" style="fill:#FFFFFF;" width="1.4" height="78.8"></rect> <rect x="93.7" y="177.4" transform="matrix(0.7071 -0.7071 0.7071 0.7071 -89.8735 139.2362)" style="fill:#FFFFFF;" width="58.9" height="1.4"></rect> <polygon style="fill:#FFFFFF;" points="150.4,159 102.1,208 101.4,207.3 149.7,158.3 "></polygon> <polygon style="fill:#FFFFFF;" points="158.2,159 102.1,215.1 101.4,214.4 157.5,158.3 "></polygon> <polygon style="fill:#FFFFFF;" points="162.5,163.3 106.4,219.4 105.7,217.9 161.8,161.8 "></polygon> <rect x="94.2" y="193.1" transform="matrix(0.7071 -0.7071 0.7071 0.7071 -96.4113 154.7782)" style="fill:#FFFFFF;" width="88.8" height="1.4"></rect> <polygon style="fill:#FFFFFF;" points="175.2,166.1 108.5,232.1 107.8,231.4 174.5,165.4 "></polygon> <rect x="98.8" y="202.2" transform="matrix(0.7071 -0.7071 0.7071 0.7071 -100.8523 162.4276)" style="fill:#FFFFFF;" width="93.7" height="1.4"></rect> <rect x="102.2" y="205.1" transform="matrix(0.7071 -0.7071 0.7071 0.7071 -101.4243 166.7062)" style="fill:#FFFFFF;" width="96.6" height="1.4"></rect> <rect x="105.7" y="209.1" transform="matrix(0.7071 -0.7071 0.7071 0.7071 -103.1569 170.617)" style="fill:#FFFFFF;" width="97.3" height="1.4"></rect> <rect x="109.1" y="213" transform="matrix(0.7071 -0.7071 0.7071 0.7071 -104.9378 174.1673)" style="fill:#FFFFFF;" width="97.3" height="1.4"></rect> <polygon style="fill:#FFFFFF;" points="196.6,183.9 127,253.4 126.2,252.7 195.8,183.1 "></polygon> <polygon style="fill:#FFFFFF;" points="217.9,231.4 176,273.3 175.2,272.6 217.1,230.7 "></polygon> <polygon style="fill:#FFFFFF;" points="218.6,223.6 169.6,271.9 168.9,271.2 217.9,222.2 "></polygon> <rect x="149.6" y="242.8" transform="matrix(0.7071 -0.7071 0.7071 0.7071 -116.7025 205.2051)" style="fill:#FFFFFF;" width="79.5" height="1.4"></rect> <rect x="145.7" y="239.3" transform="matrix(0.7071 -0.7071 0.7071 0.7071 -115.4161 201.4453)" style="fill:#FFFFFF;" width="79.5" height="1.4"></rect> <rect x="136.7" y="235.4" transform="matrix(0.7071 -0.7071 0.7071 0.7071 -113.8917 197.2226)" style="fill:#FFFFFF;" width="88.8" height="1.4"></rect> <rect x="131.1" y="230.6" transform="matrix(0.7071 -0.7071 0.7071 0.7071 -111.4504 193.6278)" style="fill:#FFFFFF;" width="93.7" height="1.4"></rect> <rect x="127.2" y="227.2" transform="matrix(0.7071 -0.7071 0.7071 0.7071 -110.1617 189.8665)" style="fill:#FFFFFF;" width="93.7" height="1.4"></rect> <rect x="120.9" y="224.4" transform="matrix(0.7071 -0.7071 0.7071 0.7071 -109.592 185.5895)" style="fill:#FFFFFF;" width="96.6" height="1.4"></rect> <rect x="117.2" y="219.8" transform="matrix(0.7071 -0.7071 0.7071 0.7071 -107.3486 181.8837)" style="fill:#FFFFFF;" width="97.3" height="1.4"></rect> </g> <path style="fill:#FFFFFF;" d="M197.3,178.9c-26.3-26.3-64.6-31.2-85.2-10.7s-16.3,58.9,10.7,85.2c14.9,14.9,34.1,22.7,51.1,23.4 c12.8,2.1,46.9,8.5,72.4,34.1l4.3-4.3l0,0l0,0l0,0l0,0l4.3-4.3c-24.1-24.1-31.2-56.1-33.4-70.3 C221.4,214.4,212.9,194.5,197.3,178.9z M114.9,171.8c18.5-18.5,53.3-13.5,77.4,10.7s29.1,58.9,10.7,77.4s-53.3,13.5-77.4-10.7 C100.7,225,96.4,190.2,114.9,171.8z M221.4,257c0,2.1,7.8,19.2,11.4,25.6c3.6,5.7,2.8,8.5,2.8,9.9l0,0c0,0,0,0,0,0.7 c-0.7,0-4.3,0.7-9.9-2.8c-6.4-3.6-23.4-11.4-25.6-11.4s-5-1.4-2.1-2.8c2.8-1.4,7.1-4.3,9.2-6.4c0.7-0.7,2.1-1.4,2.8-2.1 c1.4-1.4,2.1-2.1,2.8-3.6c2.1-2.8,4.3-5.7,5.7-8.5C220,252,221.4,254.2,221.4,257z"></path> <path style="fill:#FFFFFF;" d="M113.5,166.8c21.3-17.8,57.5-12.1,82.4,13.5c15.6,15.6,23.4,35.5,23.4,53.3 c2.1,13.5,9.9,45.4,33.4,70.3l-2.8,2.8l0,0l4.3-4.3c-24.1-24.1-31.2-56.1-33.4-70.3c0-17.8-7.8-37.6-23.4-53.3 C171.7,153.3,134.8,148.3,113.5,166.8z"></path> <path style="fill:#FFFFFF;" d="M210,266.9c1.4-1.4,2.1-2.1,2.8-3.6c2.1-2.8,4.3-5.7,5.7-8.5l0,0c-0.7,0-0.7,0.7-1.4,1.4 c-1.4,2.1-3.6,5.7-5.7,8.5c-0.7,1.4-2.1,2.1-2.8,3.6c-0.7,0.7-2.1,1.4-2.8,2.1l0,0c0.7-0.7,0.7-0.7,1.4-1.4 C207.9,268.4,209.3,267.6,210,266.9z"></path> <path style="fill:#FFFFFF;" d="M125.5,249.2c-24.1-24.1-29.1-58.9-10.7-77.4c0.7-0.7,0.7-0.7,1.4-1.4c-0.7,0.7-2.1,1.4-2.8,2.1 C95,191,100,225.7,124.1,249.9c23.4,23.4,56.8,28.4,76,12.1C180.9,277.6,148.3,271.9,125.5,249.2z"></path> <path style="fill:#FFFFFF;" d="M225,289.7c-6.4-3.6-23.4-11.4-25.6-11.4c-1.4,0-3.6-0.7-2.8-2.1c-2.8,1.4-0.7,2.8,2.1,2.8 c2.1,0,19.2,7.8,25.6,11.4c5.7,3.6,9.2,2.8,9.9,2.8c0,0,0,0,0-0.7l0,0l0,0C232.8,293.2,229.9,292.5,225,289.7z"></path> <path style="fill:#FFFFFF;" d="M249.1,308.1C249.1,308.1,248.4,308.1,249.1,308.1C248.4,308.1,248.4,308.1,249.1,308.1 L249.1,308.1l-3.6,3.6l0,0l4.3-4.3l0,0L249.1,308.1L249.1,308.1z"></path> <path style="fill:#FFFFFF;" d="M221.4,257c0-2.1-1.4-5-2.8-2.1c0.7,0,1.4,1.4,1.4,3.6c0,2.1,7.8,19.2,11.4,25.6 c2.8,5,2.8,8.5,2.8,9.2h0.7c0,0,0,0,0-0.7l0,0c0-0.7,0.7-4.3-2.8-9.9C229.2,275.5,221.4,259.1,221.4,257z"></path> <path style="fill:#FFFFFF;" d="M245.6,296.1c-7.8-6.4-9.9-4.3-9.9-4.3l-0.7,0.7l0,0l0,0l0,0l0,0l-0.7,0.7c0,0-1.4,2.1,4.3,9.9 c6.4,7.8,6.4,9.2,6.4,9.2l4.3-4.3l0,0l4.3-4.3C254.8,303.2,253.4,302.4,245.6,296.1z"></path> <g> <g> <g> <path style="fill:#FFFFFF;" d="M304.5,349.3l-49-46.2c0,0,0,0-0.7-0.7l0,0c0,0-1.4-0.7-9.2-6.4c-7.8-6.4-9.9-4.3-9.9-4.3 l-0.7,0.7l0,0l0,0l0,0l0,0l-0.7,0.7c0,0,0,0,0,0.7c1.4,0,4.3,0.7,9.2,5c7.8,6.4,9.2,6.4,9.2,6.4l0,0c0.7,0,0.7,0.7,0.7,0.7 l49,46.2c0,0,1.4-1.4,2.8,1.4c0.7,1.4-1.4,4.3-2.8,6.4c1.4-1.4,6.4-5.7,5-8.5C305.9,347.9,304.5,349.3,304.5,349.3z"></path> </g> <g> <path style="fill:#FFFFFF;" d="M300.2,361.4c0.7-0.7,0.7-0.7,1.4-1.4C300.9,360.7,300.2,360.7,300.2,361.4L300.2,361.4z"></path> </g> <g> <path style="fill:#FFFFFF;" d="M301.7,360c0,0,0.7-0.7,1.4-1.4l0,0C302.4,359.3,301.7,360,301.7,360z"></path> </g> </g> </g> <g> <g> <path style="fill:#FFFFFF;" d="M246.3,312.4c0,0-0.7-1.4,1.4-3.6c2.1-2.1,2.8-2.8,2.8-2.8l2.1,2.1l-2.8,3.6c0,0-1.4,1.4-1.4,2.8 L246.3,312.4z"></path> <path style="fill:#FFFFFF;" d="M255.5,303.2c0,0-1.4-0.7-3.6,1.4c-2.1,2.1-2.8,2.8-2.8,2.8l2.1,2.1l2.8-2.8c0,0,1.4-1.4,2.8-1.4 L255.5,303.2z"></path> </g> </g> <g> <path style="fill:#FFFFFF;" d="M245.6,312.4c0,0-0.7-1.4,1.4-3.6c2.1-2.1,2.8-2.8,2.8-2.8l2.1,2.1l-2.8,2.8c0,0-1.4,1.4-1.4,2.8 L245.6,312.4z"></path> <path style="fill:#FFFFFF;" d="M254.8,303.2c0,0-1.4-0.7-3.6,1.4c-2.1,2.1-2.8,2.8-2.8,2.8l2.1,2.1l2.8-2.8c0,0,1.4-1.4,2.8-1.4 L254.8,303.2z"></path> </g> <path style="fill:#FFFFFF;" d="M257.6,305.3c0,0,1.4,1.4-0.7,5c-2.1,3.6-4.3,9.2-2.1,10.7c0,0-0.7-2.1,0.7-6.4 C256.9,310.3,259,307.4,257.6,305.3C258.3,306,257.6,305.3,257.6,305.3"></path> <path style="fill:#FFFFFF;" d="M263.3,310.3c0,0,1.4,1.4-0.7,5c-2.1,3.6-4.3,9.2-2.8,11.4c0,0-0.7-2.1,0.7-6.4 C262.6,315.9,264.7,312.4,263.3,310.3C264,311,263.3,310.3,263.3,310.3"></path> <path style="fill:#FFFFFF;" d="M269,315.9c0,0,1.4,1.4-0.7,5s-5,9.9-2.8,11.4c0,0-0.7-2.1,1.4-6.4 C268.3,321.6,270.4,318.1,269,315.9C269.7,316.6,269,315.9,269,315.9"></path> <path style="fill:#FFFFFF;" d="M276.1,323c0,0,1.4,1.4-0.7,5c-2.1,3.6-5,9.9-3.6,12.1c0,0-0.7-2.1,1.4-7.1 C275.4,328.7,278.2,325.2,276.1,323C276.8,323.7,276.1,323,276.1,323"></path> <path style="fill:#FFFFFF;" d="M283.9,330.1c0,0,1.4,1.4-1.4,5.7c-2.1,3.6-5,10.7-3.6,12.1c0,0-0.7-2.1,1.4-7.1 C283.2,335.8,285.3,332.3,283.9,330.1C284.6,330.8,283.9,330.1,283.9,330.1"></path> <path style="fill:#FFFFFF;" d="M291,337.2c0,0,1.4,1.4-1.4,5.7c-2.1,4.3-5.7,10.7-4.3,12.8c0,0-0.7-2.1,1.4-7.1 C290.3,342.9,293.1,339.4,291,337.2C291.7,338,291,337.2,291,337.2"></path> <path style="fill:#FFFFFF;" d="M297.4,342.9c0,0,1.4,1.4-1.4,5.7c-2.8,4.3-5.7,11.4-4.3,12.8c0,0-0.7-2.1,2.1-7.1 C296.7,348.6,299.5,345.1,297.4,342.9C298.1,343.6,297.4,342.9,297.4,342.9"></path> <path style="fill:#FFFFFF;" d="M293.1,364.2c0,0,7.1-2.1,14.2-13.5c0,0,2.1,1.4-1.4,5.7l-7.8,7.8 C297.4,364.2,295.3,365.6,293.1,364.2z"></path> </g> </g> </svg> 