<?xml version="1.0" encoding="UTF-8"?> <!-- Generator: Adobe Illustrator 24.3.0, SVG Export Plug-In . SVG Version: 6.00 Build 0) --> <svg xmlns="http://www.w3.org/2000/svg" xmlns:xlink="http://www.w3.org/1999/xlink" version="1.1" id="Layer_1" x="0px" y="0px" viewBox="0 0 500 500" style="enable-background:new 0 0 500 500;" xml:space="preserve"> <g> <path style="fill:none;stroke:#FFFFFF;stroke-width:3.6466;stroke-miterlimit:10;" d="M91.4,199c1.5-3.3,0-6.6-3.3-8 c-3.3-1.5-6.6,0-8,3.3c-1.5,3.3,0,6.6,3.3,8C86.6,203.7,89.9,202.3,91.4,199z"></path> <path style="fill:none;stroke:#FFFFFF;stroke-width:3.6466;stroke-miterlimit:10;" d="M86.3,269.7c3.3,0,6.2-2.6,6.2-6.2 c0-3.3-2.6-6.2-6.2-6.2c-3.3,0-6.2,2.6-6.2,6.2C80.1,266.8,83,269.7,86.3,269.7z"></path> <path style="fill:none;stroke:#FFFFFF;stroke-width:3.6466;stroke-miterlimit:10;" d="M216.1,394.1c-1.5,3.3,0,6.6,3.3,8 c3.3,1.5,6.6,0,8-3.3s0-6.6-3.3-8C220.8,389.7,217.5,391.2,216.1,394.1z"></path> <path style="fill:none;stroke:#FFFFFF;stroke-width:3.6466;stroke-miterlimit:10;" d="M282.5,395.9c0,3.3,2.6,6.2,6.2,6.2 c3.3,0,6.2-2.6,6.2-6.2c0-3.3-2.6-6.2-6.2-6.2C285,389.7,282.5,392.6,282.5,395.9z"></path> <path style="fill:none;stroke:#FFFFFF;stroke-width:3.6466;stroke-miterlimit:10;" d="M426.9,262.8c1.5-3.3,0-6.6-3.3-8 c-3.3-1.5-6.6,0-8,3.3c-1.5,3.3,0,6.6,3.3,8C422.1,267.2,425.8,265.7,426.9,262.8z"></path> <path style="fill:none;stroke:#FFFFFF;stroke-width:3.6466;stroke-miterlimit:10;" d="M414.8,193.9c0,3.3,2.6,6.2,6.2,6.2 c3.3,0,6.2-2.6,6.2-6.2c0-3.3-2.6-6.2-6.2-6.2C417.4,187.7,414.8,190.2,414.8,193.9z"></path> <path style="fill:none;stroke:#FFFFFF;stroke-width:3.6466;stroke-miterlimit:10;" d="M290.8,63c1.5-3.3,0-6.6-3.3-8 c-3.3-1.5-6.6,0-8,3.3c-1.5,3.3,0,6.6,3.3,8C286.1,67.7,289.7,66.3,290.8,63z"></path> <path style="fill:none;stroke:#FFFFFF;stroke-width:3.6466;stroke-miterlimit:10;" d="M224.8,61.5c0-3.3-2.6-6.2-6.2-6.2 c-3.3,0-6.2,2.6-6.2,6.2c0,3.3,2.6,6.2,6.2,6.2C221.9,67.4,224.8,64.8,224.8,61.5z"></path> <path style="fill:none;stroke:#FFFFFF;stroke-width:3.6466;stroke-miterlimit:10;" d="M165,397v36.8h173.2V397 C277,432.4,206.6,416.7,165,397z"></path> <path style="fill:none;stroke:#FFFFFF;stroke-width:3.6466;stroke-miterlimit:10;" d="M345.2,437.1H154.8 c-7.7,0-13.5,6.2-13.5,13.5c0,7.7,6.2,13.5,13.5,13.5h190.4c7.7,0,13.5-6.2,13.5-13.5C358.7,443,352.5,437.1,345.2,437.1z M291.9,445.9h-74c-0.7,0-1.5-0.7-1.5-1.5s0.7-1.5,1.5-1.5h74c0.7,0,1.5,0.7,1.5,1.5C293.4,445.5,292.7,445.9,291.9,445.9z M340.8,445.9h-37.9c-0.7,0-1.5-0.7-1.5-1.5s0.7-1.5,1.5-1.5h37.9c0.7,0,1.5,0.7,1.5,1.5C341.9,445.5,341.5,445.9,340.8,445.9z"></path> <path style="fill:none;stroke:#FFFFFF;stroke-width:3.6466;stroke-miterlimit:10;" d="M253.6,360.2c17.1,0,33.9-3.3,50-9.8 l-50-121.8L203,350C219,356.5,236.1,360.2,253.6,360.2z"></path> <path style="fill:none;stroke:#FFFFFF;stroke-width:3.6466;stroke-miterlimit:10;" d="M253.6,97.3c-17.1,0-33.9,3.3-50,9.8l0,0 l50,121.4L304,107.5C287.9,100.5,270.8,97.3,253.6,97.3z"></path> <path style="fill:none;stroke:#FFFFFF;stroke-width:3.6466;stroke-miterlimit:10;" d="M132.2,278.5l121.4-50l-121.4-50.3 C118.7,210.7,118.7,246.4,132.2,278.5z"></path> <polygon style="fill:none;stroke:#FFFFFF;stroke-width:3.6466;stroke-miterlimit:10;" points="438.2,204.1 433.4,205.6 408.6,213.2 358.3,228.9 384.9,235.8 386,236.2 408.6,242.4 433.8,249 438.2,250 452.4,228.5 "></polygon> <path style="fill:none;stroke:#FFFFFF;stroke-width:3.6466;stroke-miterlimit:10;" d="M384.6,218c-1.1-13.5-4.4-26.6-9.5-39.4 l-121.4,50l0,0l121.4,50.3l0,0c5.5-13.1,8.8-27,9.8-40.5l-27-7.3l-9.1-2.6l9.1-2.9L384.6,218z"></path> <path style="fill:none;stroke:#FFFFFF;stroke-width:3.6466;stroke-miterlimit:10;" d="M408.3,210.7c-1.8-13.9-5.1-27.7-10.6-41.2 c-15.7-38.3-45.6-68.6-84.2-84.6c-19.3-8-39.4-12-59.8-12s-40.1,4-59.4,11.7c-38.3,15.7-68.6,45.6-84.6,84.2 c-16,38.3-16,80.6-0.4,119.2c16,38.3,45.9,68.6,84.2,84.6c19.3,7.7,39.4,12,60.2,12c20.4,0,40.1-4,59.4-11.7 c38.3-15.7,68.6-45.6,84.6-84.2c5.8-14.2,9.5-28.8,11.3-43.4l-21.2-5.8c-1.1,13.9-4.4,27.7-9.8,40.8 c-14.6,32.8-40.1,58.7-73.3,72.2c-16.4,6.6-33.5,10.2-51.1,10.2c-17.9,0-35-3.6-51.8-10.2c-32.8-13.9-58.7-39.7-72.2-72.9 s-13.5-69.6,0.4-102.5c13.5-33.2,39.4-58.7,72.6-72.6c16.4-6.6,33.5-10.2,51.1-10.2c17.9,0,35,3.6,51.8,10.2 c33.2,13.9,58.7,39.7,72.6,72.6c5.1,12.8,8.4,26.3,9.5,39.4L408.3,210.7z M192.7,359.8c1.1-2.2,3.3-2.9,5.5-1.8 c11.3,5.5,23.3,8.8,35.7,10.6c2.2,0.4,3.6,2.2,3.6,4.4c-0.4,2.2-2.2,3.6-4,3.6h-0.4c-13.1-1.8-26.3-5.5-38.3-10.9 C192.7,364.2,192,361.6,192.7,359.8z M130.8,306.6c1.8-1.5,4.4-0.7,5.8,1.1c12.4,17.5,28.1,32.1,43,40.5c1.8,1.1,2.6,3.6,1.5,5.5 c-0.7,1.5-2.2,2.2-3.6,2.2c-0.7,0-1.5,0-1.8-0.4c-16-8.8-32.8-24.4-45.6-43C128.6,310.2,128.9,307.7,130.8,306.6z M374.7,147.9 c-0.7,0.4-1.5,0.7-2.2,0.7c-1.5,0-2.6-0.7-3.3-1.8c-15-21.5-35.7-37.9-60.2-48.1c-22.6-9.5-47.4-12.8-71.1-9.8 c-2.2,0.4-4.4-1.5-4.4-3.6c-0.4-2.2,1.5-4.4,3.6-4.4c25.2-3.3,51.4,0.4,75.1,10.2c25.9,10.6,47.8,28.4,63.8,51.1 C377.3,143.9,376.5,146.5,374.7,147.9z"></path> <path style="fill:none;stroke:#FFFFFF;stroke-width:3.6466;stroke-miterlimit:10;" d="M421,298.5L421,298.5l-21.2-8.8l0,0 c-16.4,38.7-46.7,69.3-86.1,85.3l8.8,21.2l0,0c-22.2,9.1-45.2,13.9-68.9,13.9c-24.1,0-47.4-4.7-69.6-13.9l8.8-21.2l0,0 c-39-16.4-69.3-46.7-85.7-86.1l0,0l-21.2,8.8c-18.6-44.9-18.2-94.1,0.4-138.9l21.2,8.8c16.4-39,46.7-69.3,86.1-85.7l0,0l-9.1-21.2 l0,0c22.2-9.1,45.6-13.5,69.3-13.5c24.1,0,47.4,4.7,69.6,13.9l0,0l-8.8,21.2l0,0c39,16.4,69.3,46.7,85.7,86.1l0,0l21.2-8.8 c5.8,14.2,9.8,28.8,11.7,43.4l2.6-0.7c-2.2-15-6.2-29.5-12-43.8c-18.6-45.6-54-81-99.6-99.9c-22.2-9.5-46.3-14.2-70.4-14.2 s-47.8,4.7-70,13.9c-45.6,18.6-81,54-99.9,99.6s-19,95.5-0.4,140.8c18.6,45.6,54,81,99.6,99.9c22.6,9.5,46.3,14.2,70.7,14.2 c24.1,0,47.8-4.7,70-13.9c45.6-18.6,81-54,99.9-99.6c6.2-15.3,10.6-31,12.8-47l-2.6-0.7C431.2,267.6,427.2,283.2,421,298.5z M392.2,126.8c3.3-1.5,6.6,0.4,8,3.3c1.5,3.3-0.4,6.6-3.3,8c-3.3,1.5-6.6-0.4-8-3.3C387.8,131.5,389.3,127.9,392.2,126.8z M343,81.6c2.6-2.6,6.2-2.2,8.8,0c2.6,2.6,2.2,6.2,0,8.8c-2.2,2.6-6.2,2.2-8.8,0C340.4,87.8,340.4,83.8,343,81.6z M155.2,81.9 c3.3-1.5,6.6,0.4,8,3.3c1.5,3.3-0.4,6.6-3.3,8c-3.3,1.5-6.6-0.4-8-3.3C150.4,86.7,151.9,83,155.2,81.9z M106.3,130.8 c2.6-2.6,6.2-2.2,8.8,0c2.6,2.6,2.2,6.2,0,8.8c-2.6,2.6-6.2,2.2-8.8,0C103.8,137,104.1,133,106.3,130.8z M123.1,344.1 c-3.3,1.5-6.6-0.4-8-3.3c-1.5-3.3,0.4-6.6,3.3-8c3.3-1.5,6.6,0.4,8,3.3C127.8,339.4,126,343,123.1,344.1z M164.3,375.9 c-2.6,2.6-6.2,2.2-8.8,0c-2.6-2.6-2.2-6.2,0-8.8c2.6-2.6,6.2-2.2,8.8,0C166.5,369.7,166.5,373.3,164.3,375.9z"></path> </g> </svg> 