<?xml version="1.0" encoding="UTF-8"?> <!-- Generator: Adobe Illustrator 24.3.0, SVG Export Plug-In . SVG Version: 6.00 Build 0) --> <svg xmlns="http://www.w3.org/2000/svg" xmlns:xlink="http://www.w3.org/1999/xlink" version="1.1" id="Layer_1" x="0px" y="0px" viewBox="0 0 500 500" style="enable-background:new 0 0 500 500;" xml:space="preserve"> <g> <path style="fill-rule:evenodd;clip-rule:evenodd;fill:#FFFFFF;" d="M236.3,39.2c70,0,126.8,94.8,126.8,211.6 s-56.8,211.7-126.8,211.7s-126.8-94.8-126.8-211.6S166.3,39.2,236.3,39.2L236.3,39.2z M236.3,43.5c67.6,0,122.5,92.9,122.5,207.4 s-54.9,207.3-122.5,207.3s-122.5-92.9-122.5-207.4S168.7,43.5,236.3,43.5L236.3,43.5z"></path> <path style="fill-rule:evenodd;clip-rule:evenodd;fill:#FFFFFF;" d="M208,231.8c-1.6,0.7-3.2,1.5-4.7,2.3l-39.2-73.3 c3.8-3,7.7-5.8,11.8-8.4L208,231.8L208,231.8z"></path> <path style="fill-rule:evenodd;clip-rule:evenodd;fill:#FFFFFF;" d="M196.9,237.8c-1.6,1.1-3.2,2.2-4.7,3.4l-47.4-60.9 c2.8-3.7,5.9-7.2,9.2-10.5L196.9,237.8L196.9,237.8z"></path> <path style="fill-rule:evenodd;clip-rule:evenodd;fill:#FFFFFF;" d="M186.9,245.7c-1.5,1.4-2.9,2.8-4.2,4.3l-51.6-46.9 c1.9-4.1,4-8.1,6.3-12L186.9,245.7L186.9,245.7z"></path> <path style="fill-rule:evenodd;clip-rule:evenodd;fill:#FFFFFF;" d="M178.4,255.2c-1.2,1.6-2.4,3.3-3.4,5.1l-51.9-32.7 c0.9-4.2,2-8.4,3.3-12.4L178.4,255.2L178.4,255.2z"></path> <path style="fill-rule:evenodd;clip-rule:evenodd;fill:#FFFFFF;" d="M171.7,266.4c-0.9,1.8-1.7,3.5-2.4,5.4l-48.5-20.2 c0-0.2,0-0.5,0-0.7c0-3.8,0.2-7.5,0.5-11.1L171.7,266.4L171.7,266.4z"></path> <path style="fill-rule:evenodd;clip-rule:evenodd;fill:#FFFFFF;" d="M167.1,278.1c-0.5,1.8-1,3.6-1.3,5.4l-42.6-9.5 c-0.7-3.4-1.2-6.9-1.6-10.4L167.1,278.1L167.1,278.1z"></path> <path style="fill-rule:evenodd;clip-rule:evenodd;fill:#FFFFFF;" d="M164.6,290.9c-0.2,1.7-0.3,3.5-0.3,5.3l-34.8-1.4 c-1.2-3-2.4-6.1-3.4-9.3L164.6,290.9L164.6,290.9z"></path> <path style="fill-rule:evenodd;clip-rule:evenodd;fill:#FFFFFF;" d="M164.4,303.4c0.1,1.8,0.3,3.5,0.6,5.3l-26.5,3.6 c-1.6-2.5-3.1-5.2-4.5-7.8L164.4,303.4L164.4,303.4z"></path> <path style="fill-rule:evenodd;clip-rule:evenodd;fill:#FFFFFF;" d="M166.4,316.1c0.5,1.8,1,3.6,1.6,5.3l-18.5,5.6 c-1.9-2.1-3.6-4.3-5.4-6.6L166.4,316.1L166.4,316.1z"></path> <path style="fill-rule:evenodd;clip-rule:evenodd;fill:#FFFFFF;" d="M170.4,327.8c0.7,1.6,1.5,3.2,2.3,4.7l-11.2,6.3 c-1.8-1.6-3.6-3.2-5.3-4.8L170.4,327.8L170.4,327.8z"></path> <path style="fill-rule:evenodd;clip-rule:evenodd;fill:#FFFFFF;" d="M176.5,338.8c1,1.5,2.1,3,3.2,4.4l-6.1,4.7 c-1.9-1.2-3.8-2.5-5.6-3.9L176.5,338.8L176.5,338.8z"></path> <path style="fill-rule:evenodd;clip-rule:evenodd;fill:#FFFFFF;" d="M184.2,348.4c1.4,1.4,2.8,2.8,4.3,4.1l-2.1,2.5c-2-1-4-2-5.9-3 L184.2,348.4L184.2,348.4z"></path> <path style="fill-rule:evenodd;clip-rule:evenodd;fill:#FFFFFF;" d="M194.2,357.1c1.4,1,2.8,2,4.3,2.9c-1.7-0.6-3.4-1.2-5-1.9 L194.2,357.1L194.2,357.1z"></path> <path style="fill-rule:evenodd;clip-rule:evenodd;fill:#FFFFFF;" d="M220.5,227.7c-1.9,0.4-3.7,0.9-5.5,1.5L191.3,157 c4.3,2.2,9.4,4.1,15.1,5.6L220.5,227.7L220.5,227.7z"></path> <path style="fill-rule:evenodd;clip-rule:evenodd;fill:#FFFFFF;" d="M233.3,226c-2,0.1-3.9,0.3-5.8,0.5l-8.3-61.4 c3.7,0.5,7.6,0.8,11.6,1L233.3,226L233.3,226z"></path> <path style="fill-rule:evenodd;clip-rule:evenodd;fill:#FFFFFF;" d="M297,152.5c4.1,2.5,8.1,5.3,11.8,8.4l-39,72.9 c-1.6-0.8-3.2-1.5-4.8-2.2L297,152.5L297,152.5z"></path> <path style="fill-rule:evenodd;clip-rule:evenodd;fill:#FFFFFF;" d="M318.8,169.9c3.3,3.3,6.3,6.8,9.1,10.5l-47,60.4 c-1.5-1.2-3.1-2.3-4.8-3.4L318.8,169.9L318.8,169.9z"></path> <path style="fill-rule:evenodd;clip-rule:evenodd;fill:#FFFFFF;" d="M335.4,191.4c2.3,3.9,4.4,7.8,6.3,12l-51.1,46.4 c-1.4-1.5-2.8-2.9-4.3-4.3L335.4,191.4L335.4,191.4z"></path> <path style="fill-rule:evenodd;clip-rule:evenodd;fill:#FFFFFF;" d="M346.3,215.4c1.3,4,2.4,8.2,3.2,12.4l-51.2,32.3 c-1.1-1.8-2.3-3.5-3.5-5.1L346.3,215.4L346.3,215.4z"></path> <path style="fill-rule:evenodd;clip-rule:evenodd;fill:#FFFFFF;" d="M351.3,239.6c0.4,3.7,0.5,7.4,0.5,11.2c0,0.2,0,0.4,0,0.5 L303.9,271c-0.7-1.8-1.6-3.6-2.5-5.4L351.3,239.6L351.3,239.6z"></path> <path style="fill-rule:evenodd;clip-rule:evenodd;fill:#FFFFFF;" d="M351.1,263.6c-0.4,3.5-0.9,6.9-1.6,10.3l-41.9,9 c-0.4-1.8-0.9-3.6-1.4-5.4L351.1,263.6L351.1,263.6z"></path> <path style="fill-rule:evenodd;clip-rule:evenodd;fill:#FFFFFF;" d="M346.7,284.8c-1,3.1-2.1,6.2-3.3,9.2l-34.3,1 c-0.1-1.8-0.2-3.6-0.4-5.4L346.7,284.8L346.7,284.8z"></path> <path style="fill-rule:evenodd;clip-rule:evenodd;fill:#FFFFFF;" d="M338.8,304.3c-1.4,2.6-2.9,5.2-4.4,7.7l-25.8-3.6 c0.2-1.7,0.4-3.5,0.5-5.2L338.8,304.3L338.8,304.3z"></path> <path style="fill-rule:evenodd;clip-rule:evenodd;fill:#FFFFFF;" d="M329,319.7c-1.7,2.2-3.4,4.4-5.2,6.5l-18-5.6 c0.6-1.8,1.1-3.5,1.5-5.4L329,319.7L329,319.7z"></path> <path style="fill-rule:evenodd;clip-rule:evenodd;fill:#FFFFFF;" d="M317.7,332.9c-1.7,1.7-3.4,3.3-5.2,4.8l-11.2-6.2 c0.8-1.5,1.5-3.1,2.2-4.7L317.7,332.9L317.7,332.9z"></path> <path style="fill-rule:evenodd;clip-rule:evenodd;fill:#FFFFFF;" d="M305.9,343c-1.8,1.3-3.6,2.6-5.4,3.9l-5.9-4.8 c1.1-1.4,2.1-2.9,3.1-4.4L305.9,343L305.9,343z"></path> <path style="fill-rule:evenodd;clip-rule:evenodd;fill:#FFFFFF;" d="M293.6,351.2c-1.9,1.1-3.8,2.1-5.8,3.1l-2-2.4 c1.5-1.3,2.9-2.7,4.2-4.2L293.6,351.2L293.6,351.2z"></path> <path style="fill-rule:evenodd;clip-rule:evenodd;fill:#FFFFFF;" d="M282.7,356.7c-1.6,0.7-3.3,1.4-5,2l-0.2-0.4 c1.4-1,2.8-2,4.2-3.1L282.7,356.7L282.7,356.7z"></path> <path style="fill-rule:evenodd;clip-rule:evenodd;fill:#FFFFFF;" d="M281.6,157L258,229c-1.8-0.6-3.7-1-5.5-1.4l14.1-65 C272.2,161.1,277.3,159.3,281.6,157L281.6,157z"></path> <path style="fill-rule:evenodd;clip-rule:evenodd;fill:#FFFFFF;" d="M253.7,165.1l-8.3,61.3c-1.9-0.2-3.9-0.4-5.8-0.5l2.5-59.9 C246.1,165.9,250,165.6,253.7,165.1L253.7,165.1z"></path> <path style="fill-rule:evenodd;clip-rule:evenodd;fill:#FFFFFF;" d="M236.3,230.2c37.7,0,68.2,30.6,68.2,68.2 c0,37.7-30.6,68.2-68.2,68.2s-68.2-30.6-68.2-68.2C168.1,260.7,198.6,230.2,236.3,230.2L236.3,230.2z M236.3,233.6 c35.8,0,64.8,29,64.8,64.8s-29,64.8-64.8,64.8s-64.8-29-64.8-64.8C171.5,262.6,200.5,233.6,236.3,233.6L236.3,233.6z"></path> <path style="fill-rule:evenodd;clip-rule:evenodd;fill:#FFFFFF;" d="M210.3,144.7l-5.4,3.4l-2.1-1.4l6.8-4.4h3.6v15.1h-2.9V144.7 L210.3,144.7z M231.1,151.1l-0.1,0.1c-0.5,0.3-1.2,0.4-1.7,0.5c-1,0.1-2.1,0.2-3.1,0.2c-1.3,0-2.7-0.1-4-0.4 c-0.9-0.3-1.8-0.7-2.4-1.5c-0.6-0.8-0.8-1.9-0.8-2.9c0-0.8,0.1-1.6,0.5-2.3c0.3-0.7,0.8-1.2,1.4-1.5c0.7-0.4,1.5-0.6,2.3-0.8 c1.1-0.2,2.2-0.2,3.3-0.2c1.4,0,2.9,0.1,4.3,0.4c1,0.2,1.9,0.7,2.5,1.6c0.7,0.9,0.8,2.2,0.8,3.3v2.7c0,1.2,0,2.5-0.3,3.7 c-0.2,0.9-0.6,1.7-1.2,2.3c-0.7,0.6-1.5,1-2.4,1.1c-1.3,0.3-2.7,0.3-4,0.3c-1,0-2,0-2.9-0.1c-0.7-0.1-1.5-0.2-2.2-0.4 c-0.6-0.2-1.2-0.6-1.6-1.2c-0.4-0.6-0.6-1.3-0.6-2.1c0-0.1,0-0.2,0-0.3s0-0.1,0-0.2V153h2.9v0.4c0,0.1,0,0.1,0,0.2v0.1 c0,0.3,0,0.6,0.2,0.8c0.1,0.2,0.4,0.3,0.6,0.4c0.4,0.2,0.9,0.2,1.3,0.3c0.8,0.1,1.5,0.1,2.3,0.1c0.9,0,1.8,0,2.6-0.2 c0.5-0.1,1-0.2,1.4-0.5c0.3-0.2,0.6-0.6,0.7-1c0.2-0.6,0.2-1.3,0.2-2V151.1L231.1,151.1z M231.1,147c0-0.5-0.1-1.2-0.4-1.7 c-0.3-0.4-0.8-0.6-1.3-0.7c-0.9-0.2-2-0.2-2.9-0.2s-2,0-2.8,0.3c-0.5,0.1-1,0.3-1.3,0.8c-0.3,0.4-0.4,1.1-0.4,1.6 c0,0.4,0,0.9,0.2,1.3c0.1,0.3,0.4,0.6,0.7,0.7c0.4,0.2,0.9,0.4,1.4,0.4c0.8,0.1,1.6,0.1,2.3,0.1c0.9,0,2,0,2.9-0.3 c0.5-0.1,1-0.3,1.3-0.7C231.1,148.2,231.1,147.5,231.1,147L231.1,147z M241,155.1h11.9v2.2h-14.8v-3.1c0-0.8,0.1-1.5,0.5-2.2 c0.4-0.6,0.9-1,1.5-1.3c0.7-0.3,1.4-0.5,2.2-0.6c1-0.2,2-0.2,3-0.3s2.2-0.1,3.2-0.3c0.4-0.1,0.8-0.3,1.1-0.6 c0.3-0.4,0.4-1.3,0.4-1.8s-0.1-1.1-0.4-1.6c-0.3-0.4-0.8-0.7-1.3-0.8c-0.8-0.3-1.8-0.3-2.7-0.3c-0.9,0-2.1,0-3,0.3 c-0.5,0.1-1,0.4-1.3,0.8c-0.3,0.4-0.3,1-0.3,1.5v1h-3v-0.4c0-0.8,0.1-1.8,0.4-2.6c0.3-0.7,0.7-1.3,1.3-1.7c0.7-0.5,1.5-0.7,2.3-0.9 c1.2-0.2,2.4-0.3,3.6-0.3c1.3,0,2.7,0.1,4,0.5c1,0.3,1.8,0.8,2.4,1.6s0.8,1.9,0.8,2.9c0,0.8-0.1,1.6-0.4,2.3 c-0.3,0.6-0.7,1.1-1.2,1.5c-0.6,0.4-1.3,0.6-2.1,0.7c-1.1,0.2-2.2,0.3-3.2,0.4c-0.9,0.1-1.8,0.1-2.7,0.2c-0.4,0-0.8,0.1-1.2,0.3 c-0.3,0.1-0.6,0.3-0.8,0.6s-0.3,0.8-0.3,1.2v0.8H241z M270.6,149.6c0.1,0.1,0.3,0.1,0.4,0.2c0.5,0.3,1,0.7,1.3,1.2 c0.3,0.6,0.3,1.2,0.3,1.8c0,0.8-0.1,1.6-0.4,2.3c-0.3,0.6-0.7,1.1-1.3,1.5c-0.7,0.4-1.6,0.6-2.3,0.7c-1.2,0.2-2.4,0.2-3.6,0.2 c-1,0-2,0-3-0.1c-0.8-0.1-1.6-0.3-2.3-0.6c-0.7-0.3-1.2-0.7-1.6-1.4s-0.6-1.5-0.6-2.3c0-0.3,0-0.6,0-0.9v-0.4h2.9v1.3 c0,0.4,0.1,1,0.3,1.3c0.3,0.3,0.8,0.5,1.2,0.6c0.9,0.2,2.1,0.2,3,0.2s1.8,0,2.7-0.1c0.4-0.1,1-0.2,1.3-0.4c0.2-0.1,0.4-0.3,0.5-0.6 c0.1-0.4,0.2-0.9,0.2-1.3c0-0.6-0.1-1.2-0.7-1.6c-0.7-0.4-2-0.5-2.8-0.5H263v-2.2h2.9c0.6,0,1.3,0,2-0.1c0.3,0,0.7-0.1,0.9-0.3 c0.2-0.1,0.3-0.3,0.4-0.5c0.1-0.4,0.1-0.9,0.1-1.3c0-0.6-0.3-1.1-0.8-1.4c-0.8-0.5-2.5-0.5-3.5-0.5c-0.9,0-1.9,0-2.8,0.3 c-0.4,0.1-0.9,0.4-1.2,0.8c-0.3,0.5-0.3,1.1-0.3,1.6v0.4h-2.9V147c0-1,0.2-2,0.7-2.9c0.6-0.8,1.4-1.3,2.3-1.6 c1.3-0.4,2.8-0.5,4.1-0.5c1.3,0,2.8,0.1,4.1,0.4c0.9,0.3,1.8,0.7,2.5,1.4c0.6,0.7,0.8,1.5,0.8,2.4c0,0.7-0.1,1.4-0.4,2 C271.6,148.9,271.2,149.3,270.6,149.6C270.6,149.5,270.6,149.6,270.6,149.6L270.6,149.6z"></path> <polygon style="fill-rule:evenodd;clip-rule:evenodd;fill:#FFFFFF;" points="236.3,318.9 257.6,303.4 249.5,278.3 223.1,278.3 215,303.4 "></polygon> <path style="fill-rule:evenodd;clip-rule:evenodd;fill:#FFFFFF;" d="M235.5,339l19.2,13.1L252,360c-5,1.3-10.3,1.9-15.7,1.9 c-6.1,0-12-0.9-17.6-2.5l-2.5-7.3L235.5,339L235.5,339z"></path> <path style="fill-rule:evenodd;clip-rule:evenodd;fill:#FFFFFF;" d="M275.9,314l18.3-13.7l5.3,4.9c-1.3,12-5.9,23.1-13,32.1 l-7.4-0.4L275.9,314L275.9,314z"></path> <path style="fill-rule:evenodd;clip-rule:evenodd;fill:#FFFFFF;" d="M262.1,266.5l-6-22.8l6.3-3.3c10.5,4.7,19.5,12.3,26,21.6 l-3.5,8.5L262.1,266.5L262.1,266.5z"></path> <path style="fill-rule:evenodd;clip-rule:evenodd;fill:#FFFFFF;" d="M211.7,265.2l-22.7-0.1l-1.6-7.3c7.3-8.7,16.8-15.5,27.7-19.3 l7.2,5.5L211.7,265.2L211.7,265.2z"></path> <path style="fill-rule:evenodd;clip-rule:evenodd;fill:#FFFFFF;" d="M196.5,314.2l-3.8,23.2l-6.2,0.4c-7.3-9.2-12.1-20.5-13.3-32.8 l4.9-4.6L196.5,314.2L196.5,314.2z"></path> <g> <path style="fill-rule:evenodd;clip-rule:evenodd;fill:#FFFFFF;" d="M236.3,371.5c-54.7,0-100.9-36.4-115.7-86.3 c9.5,94.8,57.7,167,115.7,167S342.5,380,352,285.2C337.2,335.1,291,371.5,236.3,371.5z M203.7,428.2c-1.5-0.7-2.9-1.3-4.4-2 c0-9.9,0-22,0-31.9h-2.9v25.3c0,2.4-1.5,3.4-3.4,2.2c-0.9-0.6-1.5-0.9-2.8-2.4v-2.9c0.6,0.2,1.1,0.3,1.5,0 c0.4-0.2,0.5-0.8,0.5-1.5l-0.1-25.6h11.6L203.7,428.2z M214.2,425.9c-0.3,3.5-1.2,5.7-3.4,5.7c-1.2,0-3.1-0.8-4.2-2.3 c0-2.3,0-2.4,0-4.6c0.3,0.3,0.7,0.5,1.1,0.6c1.1,0.3,1.1-0.7,1-2l-4-33.9h5l1.9,25.4c0,0,0,0,0.1,0l1.7-25.4h4.5L214.2,425.9z M223.6,435l-4.4-1.1v-44.5h8.9v5.8h-4.5V435z M236.2,436.4l-0.7-11.9l-3.3-0.1l-0.5,11.9l-4.4-0.5l3.8-46.4h6.1l3.3,46.9 L236.2,436.4z M253.5,434l-4.4,1v-22.1l-2.9,0.1v22.5l-4.4,0.6v-46.8h4.4v17.6h2.9v-17.5h4.4V434z M267.8,402.5l-4.4,0.6v-6.7 c0-0.9,0-2.4-1.3-2.4c-1.3,0.1-1.3,1.5-1.3,2.5v28.7c0,1,0.1,2.7,1.5,2.1c1-0.5,1.1-1.7,1.1-2.8v-8.4l4.4-1.5v10.1 c-0.3,3.7-1,5.7-5.2,7.4c-5.8,2.3-6.2-1.3-6.2-5.2v-30.1c0-3.8-0.2-7.6,5.9-7.6c3.9,0,5.5,2,5.5,5.6V402.5z M278.3,423.1 l-2.3-13.4l-1.2,4.6v11.4l-4.2,2v-38.4h4.2v14.5l3.1-14.5h4.8l-4.1,15.2L283,420L278.3,423.1z"></path> <polygon style="fill-rule:evenodd;clip-rule:evenodd;fill:#FFFFFF;" points="233.8,397.6 232.6,417.7 235,417.8 "></polygon> </g> <g> <polygon style="fill-rule:evenodd;clip-rule:evenodd;fill:#FFFFFF;" points="215.6,69.9 212.2,101.3 219.2,100.1 216,69.9 "></polygon> <path style="fill-rule:evenodd;clip-rule:evenodd;fill:#FFFFFF;" d="M289.2,91.1v10.5c0,0.9,0,3.7,2.4,6.1 c1.6,1.6,3.8,2.8,5.6,4.1v-17c-1.2-2.2-2.6-3.6-3.9-4.9C290.7,87.3,289.2,89.1,289.2,91.1z"></path> <path style="fill-rule:evenodd;clip-rule:evenodd;fill:#FFFFFF;" d="M255,67.3c-0.6-0.1-3.2-0.6-3.8-0.7v26 c0.5,0.1,3.2,0.6,3.8,0.7c1.1,0.2,1.9,0,2.4-0.6s0.8-1.7,0.8-3.3c0-4.5,0-12.8,0-17.3c0-1.6-0.2-2.8-0.8-3.5 C257,67.9,256.1,67.4,255,67.3z"></path> <path style="fill-rule:evenodd;clip-rule:evenodd;fill:#FFFFFF;" d="M236.3,49.5c-58,0-106.2,72.2-115.7,167 c14.8-49.9,61-86.3,115.7-86.3s100.9,36.4,115.7,86.3C342.5,121.7,294.3,49.5,236.3,49.5z M195.4,88.4c0,1.5-0.1,3-0.4,4.5 c-0.3,1.5-0.8,2.9-1.5,4.4c-0.7,1.4-1.7,2.9-3,4.3s-2.9,2.9-4.9,4.3v0.4c2-1,3.6-1.5,4.9-1.7c1.3-0.1,2.3,0.1,3,0.7 s1.2,1.4,1.5,2.6c0.3,1.1,0.4,2.5,0.4,4v7.7c0,2.8-0.3,6-1.9,9.5c-0.9,1.9-2.3,3.4-4.1,4.7c-4,3-11.2,6.8-20.1,11.8 c-4.7,2.6-7.1-0.4-7.1-4l0.1-8.8l12.8-10v9.1c0,1.5,1.5,2.7,3.9,1.3c2.8-1.7,3.4-4.5,3.4-6.3v-10.2c0-2.5-1.9-2.6-3.9-1.2l-4,2.8 l-0.4-7.2l4.2-3.3c2.3-1.7,4.1-4.9,4.1-8v-8c0-2.4-1.1-3.7-3.5-2c-1.7,1.2-3.4,4.2-3.4,6.3l0.1,9.6l-12.5,12.4v-8.9 c0-3.3,1.8-8.7,2.9-10.6c3.7-6.5,13.4-17.9,21.1-22.6c5.8-3.5,8.4,0.3,8.4,5.9v6.5H195.4z M222,125.8l-1.9-16.8l-8.9,1.8 l-1.8,17.2l-11.9,3.5l9.3-69.2l18.5-5.7l10.1,68.4L222,125.8z M270.7,97c0,5.6-2.6,7.5-9.2,6.2l-10.2-2v24.7l-12.9-0.8V55.7 l16.1,2.8c2.1,0.4,4.2,1,6.1,1.7c1.9,0.8,3.6,1.4,5.2,2.7c1.5,1.3,2.7,2.9,3.6,4.8s1.3,4.2,1.3,6.7 C270.7,79.2,270.7,92.4,270.7,97z M297.1,141.1l-0.1-22.9l-9.1,18.4l-13.4-5.1l10.5-21.7c-1.4-1.3-4-3.5-5-5 c-1.1-1.5-1.9-3.1-2.5-4.7c-0.6-1.7-0.9-3.4-0.9-5.3V79.7c0-7.9,5.8-8.3,12.2-2.7c9.3,8.1,15,16.2,20.3,24.3l0.1,47L297.1,141.1z"></path> </g> </g> </svg> 