<?xml version="1.0" encoding="UTF-8"?> <!-- Generator: Adobe Illustrator 24.3.0, SVG Export Plug-In . SVG Version: 6.00 Build 0) --> <svg xmlns="http://www.w3.org/2000/svg" xmlns:xlink="http://www.w3.org/1999/xlink" version="1.1" id="Layer_1" x="0px" y="0px" viewBox="0 0 126 126" style="enable-background:new 0 0 126 126;" xml:space="preserve"> <style type="text/css"> .st0{fill:#FFFFFF;} </style> <path class="st0" d="M108.8,25.4V24c-37.2-38.9-91.7-10.2-91.7,4.5s20.2,16.3,20.2,33.5c0,0.3,0,0.6,0,0.9c0,0.3,0,0.6,0,0.9 c0,17.2-20.2,18.8-20.2,33.5s54.5,43.4,91.7,4.5v-1.4c-41.6,27.3-64.9,10.8-67,3.4c-6.2-22.3,29.2-33.8,28.8-40.7c0-0.1,0-0.2,0-0.2 c0-0.1,0-0.2,0-0.2c0.4-6.9-35.1-18.4-28.8-40.7C43.9,14.6,67.2-1.8,108.8,25.4z"></path> </svg> 