<?xml version="1.0" encoding="UTF-8"?> <!-- Generator: Adobe Illustrator 24.3.0, SVG Export Plug-In . SVG Version: 6.00 Build 0) --> <svg xmlns="http://www.w3.org/2000/svg" xmlns:xlink="http://www.w3.org/1999/xlink" version="1.1" id="Layer_1" x="0px" y="0px" viewBox="0 0 500 500" style="enable-background:new 0 0 500 500;" xml:space="preserve"> <g> <polygon style="fill:#FFFFFF;" points="265.3,169.1 260.3,169.1 260.3,335.1 265.3,335.1 265.3,303.2 325.6,303.2 325.6,284 278.7,284 278.7,261.3 318.9,261.3 318.9,242 278.7,242 278.7,220.2 325.6,220.2 325.6,201 265.3,201 "></polygon> <polygon style="fill:#FFFFFF;" points="77.5,263.8 59.9,236.2 38.1,201.8 38.1,201 19.7,201 19.7,303.2 39.8,303.2 39.8,240.4 54.9,264.7 79.2,303.2 97.6,303.2 97.6,201 77.5,201 "></polygon> <polygon style="fill:#FFFFFF;" points="109.4,303.2 175.6,303.2 175.6,284 129.5,284 129.5,261.3 168.9,261.3 168.9,242 129.5,242 129.5,220.2 175.6,220.2 175.6,201 109.4,201 "></polygon> <polygon style="fill:#FFFFFF;" points="184,221.1 207.4,221.1 207.4,303.2 227.6,303.2 227.6,221.1 251,221.1 251,201 184,201 "></polygon> <polygon style="fill:#FFFFFF;" points="392.7,263.8 375.9,236.2 354.1,201.8 353.3,201 335.7,201 335.7,303.2 355.8,303.2 355.8,240.4 370.9,264.7 395.2,303.2 412.8,303.2 412.8,201 392.7,201 "></polygon> <polygon style="fill:#FFFFFF;" points="421.2,201 421.2,221.1 444.7,221.1 444.7,303.2 464.8,303.2 464.8,221.1 488.3,221.1 488.3,201 "></polygon> </g> </svg> 