<?xml version="1.0" encoding="UTF-8"?> <!-- Generator: Adobe Illustrator 24.3.0, SVG Export Plug-In . SVG Version: 6.00 Build 0) --> <svg xmlns="http://www.w3.org/2000/svg" xmlns:xlink="http://www.w3.org/1999/xlink" version="1.1" id="Layer_1" x="0px" y="0px" viewBox="0 0 500 500" style="enable-background:new 0 0 500 500;" xml:space="preserve"> <g> <path style="fill:#FFFFFF;" d="M103.4,449c-33.1,0-54.1-15.8-60.1-41.3c-6-24,4.5-48.1,31.6-60.1c36.8-16.5,73.6-31.6,107.4-54.1 c21.8-14.3,41.3-30.8,60.8-48.1c11.3-9.8,9-16.5-1.5-24.8c-32.3-26.3-68.4-45.8-108.2-57.1c-12.8-3.8-26.3-7.5-38.3-12.8 c-32.3-14.3-42.8-35.3-33.1-63.9c9.8-27.8,40.6-45.8,69.9-39.1c28.5,6,46.6,25.5,60.8,48.8c19.5,31.6,39.8,63.1,64.6,91.6 c21.8,24,25.5,24,46.6,0c25.5-30,54.8-57.1,72.9-93.2c9.8-20.3,28.5-25.5,49.6-20.3c18,4.5,30.8,15,32.3,35.3 c1.5,22.5-12,35.3-30.8,41.3c-31.6,11.3-59.3,28.5-86.4,47.3c-38.3,27-38.3,39.1,3,62.4c24,13.5,48.8,26.3,75.1,34.6 c21.8,6.8,32.3,18.8,33.8,39.8c1.5,18-9,31.6-24.8,39.8c-18,9.8-36.8,10.5-54.8-1.5c-12-8.3-18.8-19.5-22.5-32.3 c-9-30.8-33.1-50.3-54.1-72.1c-11.3-11.3-19.5-5.3-29.3,2.3c-41.3,33.1-66.1,77.4-87.9,123.9c-13.5,27.8-34.6,46.6-65.4,52.6 C110.2,448.2,104.9,449,103.4,449z M72.6,103.4c0,20.3,18,41.3,39.1,40.6c27.8-1.5,55.6,0.8,83.4,3.8c7.5,0.8,14.3-3,9.8-9.8 c-18-27.8-29.3-60.8-62.4-76.6C109.4,46.3,72.6,68.1,72.6,103.4z M445.2,110.2c0-18.8-15.8-30.8-34.6-27 c-12,2.3-44.3,42.1-44.3,54.1c0,5.3,3,5.3,6.8,7.5c16.5,9.8,58.6-1.5,69.1-18C445.2,121.4,445.2,116.2,445.2,110.2z"></path> <path style="fill:#FFFFFF;" d="M72.6,103.4c0-35.3,36.8-57.8,69.9-42.1c33.1,15,44.3,48.8,62.4,76.6c4.5,6.8-2.3,10.5-9.8,9.8 c-27.8-3-55.6-4.5-83.4-3.8C90.7,144.7,72.6,123.7,72.6,103.4z"></path> <path style="fill:#FFFFFF;" d="M445.2,110.2c0,6,0,11.3-3.8,17.3c-10.5,16.5-52.6,27-69.1,18c-3-1.5-6.8-2.3-6.8-7.5 c0-12,32.3-51.8,44.3-54.1C430.2,79.4,445.2,91.4,445.2,110.2z"></path> </g> </svg> 