<?xml version="1.0" encoding="UTF-8"?> <!-- Generator: Adobe Illustrator 24.3.0, SVG Export Plug-In . SVG Version: 6.00 Build 0) --> <svg xmlns="http://www.w3.org/2000/svg" xmlns:xlink="http://www.w3.org/1999/xlink" version="1.1" id="Layer_1" x="0px" y="0px" viewBox="0 0 500 500" style="enable-background:new 0 0 500 500;" xml:space="preserve"> <path style="fill:none;stroke:#FFFFFF;stroke-width:7.1574;stroke-miterlimit:10;" d="M315.4,45.7H170.7 c-33.1,0-59.8,26.7-59.8,59.8V381c0,33.1,26.7,59.8,59.8,59.8h144.7c33.1,0,59.8-26.7,59.8-59.8V105.5 C375.2,72.3,348.5,45.7,315.4,45.7z"></path> <path style="fill:#FFFFFF;" d="M353.4,298.6L353.4,298.6L265.3,93.4c-20.2,0-25.1,0-45.3,0l-87.3,205.3h67.1l42.8-120.4l20.2,55.8 h-20.2l-11.3,34.7H275l10.5,29.9H353.4"></path> <path style="fill:#FFFFFF;" d="M140,394.8L140,394.8c-3.2-1.6-5.7-2.4-7.3-4c0-0.8,0-0.8,0-0.8l4.8-5.7c0,0,0.8-0.8,0.8,0 c4,2.4,7.3,4,11.3,4c4.8,0,7.3-1.6,7.3-4.8c0-2.4-1.6-4-6.5-4.8h-2.4c-8.9-1.6-13.7-5.7-13.7-12.9c0-4,1.6-7.3,4-9.7 c2.4-2.4,6.5-4,11.3-4c5.7,0,10.5,1.6,14.5,4.8c0.8,0,0.8,0.8,0,0.8l-4,5.7c0,0.8,0,0.8-0.8,0.8c-3.2-2.4-6.5-4-9.7-4 c-4,0-6.5,2.4-6.5,4.8c0,2.4,2.4,4,7.3,4.8l1.6,0.8c9.7,1.6,13.7,5.7,13.7,12.9c0,8.1-6.5,12.9-17,12.9 C145.7,396.4,143.3,395.6,140,394.8"></path> <path style="fill:#FFFFFF;" d="M172.4,353.6L172.4,353.6c0-0.8,0-0.8,0.8-0.8h27.5c0.8,0,0.8,0,0.8,0.8v6.5c0,0.8,0,0.8-0.8,0.8 h-18.6c-0.8,0-0.8,0-0.8,0.8v8.1c0,0,0,0.8,0.8,0.8h15.4c0.8,0,0.8,0,0.8,0.8v6.5c0,0.8,0,0.8-0.8,0.8h-15.4c-0.8,0-0.8,0-0.8,0v8.9 c0,0.8,0,0.8,0.8,0.8h18.6c0.8,0,0.8,0,0.8,0.8v7.3c0,0.8,0,0.8-0.8,0.8h-27.5c-0.8,0-0.8,0-0.8-0.8V353.6"></path> <path style="fill:#FFFFFF;" d="M233,395.6L233,395.6c-0.8,0-0.8,0-0.8-0.8l-7.3-16.2h-5.7c-0.8,0-0.8,0.8-0.8,0.8v15.4 c0,0.8,0,0.8-0.8,0.8h-8.1c-0.8,0-0.8,0-0.8-0.8v-42c0-0.8,0-0.8,0.8-0.8h17c4,0,8.1,1.6,10.5,4c2.4,2.4,4,5.7,4,9.7 c0,5.7-3.2,9.7-8.1,12.1l8.9,17c0,0,0,0.8-0.8,0.8H233 M226.5,371.3L226.5,371.3c4,0,6.5-2.4,6.5-5.7c0-2.4-2.4-4.8-6.5-4.8h-7.3 c-0.8,0-0.8,0-0.8,0.8v9.7c0,0,0,0.8,0.8,0.8h7.3V371.3z"></path> <path style="fill:#FFFFFF;" d="M249.9,353.6L249.9,353.6C249.9,352.8,249.9,352.8,249.9,353.6l8.1-0.8c0.8,0,0.8,0,0.8,0.8v42 c0,0.8,0,0.8-0.8,0.8h-8.1c-0.8,0-0.8,0-0.8-0.8v-42"></path> <path style="fill:#FFFFFF;" d="M267.7,353.6L267.7,353.6C267.7,352.8,267.7,352.8,267.7,353.6l28.3-0.8c0,0,0.8,0,0.8,0.8v6.5 c0,0.8-0.8,0.8-0.8,0.8h-18.6c0,0-0.8,0-0.8,0.8v8.1l0.8,0.8h15.4c0.8,0,0.8,0,0.8,0.8v6.5c0,0.8-0.8,0.8-0.8,0.8h-15.4h-0.8v8.9 c0,0.8,0.8,0.8,0.8,0.8H296c0,0,0.8,0,0.8,0.8v7.3c0,0.8-0.8,0.8-0.8,0.8h-28.3c0,0-0.8,0-0.8-0.8v-42.8"></path> <path style="fill:#FFFFFF;" d="M331.6,353.6L331.6,353.6c0-0.8,0-0.8,0.8-0.8h7.3c0.8,0,0.8,0,0.8,0.8l15.4,42c0,0.8,0,0.8-0.8,0.8 h-8.1c-0.8,0-0.8,0-0.8-0.8l-2.4-7.3h-15.4l-2.4,7.3c0,0.8,0,0.8-0.8,0.8H317c0,0,0,0,0-0.8L331.6,353.6 M330.8,379.4h9.7l-4.8-15.4 h-0.8L330.8,379.4z"></path> <polyline style="fill:#FFFFFF;" points="135.2,319.6 207.9,319.6 207.9,328.5 135.2,328.5 135.2,319.6 "></polyline> <polyline style="fill:#FFFFFF;" points="207.9,319.6 279.8,319.6 279.8,328.5 207.9,328.5 207.9,319.6 "></polyline> <polyline style="fill:#FFFFFF;" points="279.8,319.6 352.6,319.6 352.6,328.5 279.8,328.5 279.8,319.6 "></polyline> </svg> 