<?xml version="1.0" encoding="UTF-8"?> <!-- Generator: Adobe Illustrator 24.3.0, SVG Export Plug-In . SVG Version: 6.00 Build 0) --> <svg xmlns="http://www.w3.org/2000/svg" xmlns:xlink="http://www.w3.org/1999/xlink" version="1.1" id="Layer_1" x="0px" y="0px" viewBox="0 0 500 500" style="enable-background:new 0 0 500 500;" xml:space="preserve"> <g> <path style="fill:#FFFFFF;" d="M255.1,69c-11.6,0-20.6-9.6-20.6-20.6c0-11.6,9.6-20.6,20.6-20.6c11.6,0,20.6,9.6,20.6,20.6 C275.6,60.1,266,69,255.1,69z M255.1,38.9c-5.5,0-9.6,4.1-9.6,9.6s4.1,9.6,9.6,9.6s9.6-4.1,9.6-9.6C264.6,43,260.5,38.9,255.1,38.9 z"></path> <g> <rect x="429.1" y="234.2" style="fill:#FFFFFF;" width="28.1" height="28.1"></rect> <path style="fill:#FFFFFF;" d="M457.9,263h-30.2v-30.2h30.2V263z M429.8,261.6h26.7v-26.7h-26.7V261.6z"></path> </g> <path style="fill:#FFFFFF;" d="M449.7,223.9h-12.3c0-93.9-76.7-170.6-170.6-170.6V41.6C368.1,41.6,449.7,123.2,449.7,223.9z"></path> </g> <g> <path style="fill:#FFFFFF;" d="M249.6,444.6c-11.6,0-20.6-9.6-20.6-20.6c0-11.6,9.6-20.6,20.6-20.6c11.6,0,20.6,9.6,20.6,20.6 C270.8,435.6,261.2,444.6,249.6,444.6z M249.6,414.4c-5.5,0-9.6,4.1-9.6,9.6c0,5.5,4.1,9.6,9.6,9.6s9.6-4.1,9.6-9.6 C259.9,418.5,255.1,414.4,249.6,414.4z"></path> <g> <rect x="47.6" y="210.6" style="fill:#FFFFFF;" width="28.1" height="28.1"></rect> <path style="fill:#FFFFFF;" d="M76.9,239.7H46.7v-30.2h30.2V239.7z M48.1,237.6h26.7v-26.7H48.1V237.6z"></path> </g> <path style="fill:#FFFFFF;" d="M237.2,430.9C136.5,430.9,55,349.3,55,248.6h12.3c0,93.9,76.7,170.6,170.6,170.6v11.6H237.2z"></path> </g> <path style="fill:#FFFFFF;" d="M270.8,128c-58.2-10.3-113.8,28.1-124,86.3c-10.3,58.2,28.1,113.8,86.3,124s113.8-28.1,124-86.3 C368.1,193.8,329.1,138.3,270.8,128z M282.5,136.2c25.4,7.5,45.9,24.7,58.2,46.6l0,0v0.7c0,0,0,0,0-0.7c0,1.4,0,2.7-0.7,4.8 c0,2.1,0,3.4-0.7,5.5c-7.5-3.4-17.8-5.5-28.8-5.5c-4.8-6.9-24-23.3-31.5-26.7c-0.7-8.2-2.1-17.8-3.4-22.6 C277.7,137.6,279.7,136.9,282.5,136.2z M293.4,227.3c4.1,6.9,14.4,24.7,14.4,39.1c-10.3,13.7-19.2,24.7-27.4,32.2 c-6.9,0.7-14.4,0.7-22.6-0.7c-6.9-1.4-13-2.7-16.4-4.1c-2.1-0.7-4.1-1.4-4.8-2.1c0,0,0,0-0.7,0c-6.2-12.3-10.3-26-13.7-37.7 c4.1-8.9,11.6-17.8,17.1-23.3c2.7-2.7,5.5-5.5,8.9-8.2c1.4-1.4,2.1-2.1,2.7-2.7c4.1,0.7,8.2,1.4,12.3,1.4c6.9,0.7,14.4,2.1,22.6,3.4 c2.1,0,3.4,0.7,5.5,0.7C292.7,226,293.4,226.6,293.4,227.3z M200.9,145.8c17.8-10.3,39.1-15.8,61-13.7l0,0c3.4,2.1,6.2,3.4,9.6,5.5 c1.4,4.8,3.4,15.1,4.1,23.3c-9.6,2.1-28.8,11.6-34.3,15.1c-6.2-3.4-14.4-6.2-22.6-7.5c-6.9-1.4-13-1.4-17.1-0.7 C200.9,162.2,200.2,153.3,200.9,145.8z M201.6,171.1c4.1-0.7,9.6-0.7,17.1,0.7v-0.7l0,0v0.7l0,0c8.2,1.4,16.4,4.1,21.9,7.5 c0.7,2.7,1.4,6.2,2.1,8.9c2.1,9.6,4.8,19.9,7.5,29.5c-6.2,4.8-22.6,19.2-29.5,34.3c-5.5-0.7-11-2.1-16.4-2.7 c-3.4-0.7-7.5-1.4-10.3-2.1c-2.7-0.7-4.8-0.7-6.9-1.4c-4.8-7.5-8.2-18.5-10.3-26c-1.4-4.8-2.1-8.9-2.1-11.6c0-1.4-0.7-2.7-0.7-3.4 C182.4,191,192,180.7,201.6,171.1z M165.3,284.2L165.3,284.2c-11.6-19.9-17.1-44.5-12.3-69.2c0.7-4.8,2.1-10.3,4.1-15.1 c4.8,2.1,11,3.4,13.7,4.8c0.7,6.2,4.1,28.1,13,41.8c-4.1,6.9-11,19.2-9.6,30.8C170.8,279.4,168,281.5,165.3,284.2L165.3,284.2 L165.3,284.2z M222.8,329.4L222.8,329.4c-24-7.5-43.2-22.6-56.2-43.2c2.7-2.1,5.5-4.8,8.2-6.9c4.8,8.2,21.9,25.4,30.8,28.8 C210.5,317.8,217.4,324.6,222.8,329.4C222.8,329.4,223.5,329.4,222.8,329.4C223.5,329.4,222.8,329.4,222.8,329.4z M273.6,331.5 c-12.3,2.7-25.4,2.7-39.1,0.7c-1.4,0-3.4-0.7-4.8-1.4c-6.2-4.1-15.1-11.6-21.2-22.6c6.2-1.4,20.6-8.2,27.4-15.1 c3.4,1.4,12.3,4.8,21.9,6.2c8.2,1.4,15.8,2.1,22.6,1.4c3.4,9.6,6.9,15.1,11.6,17.8c-4.1,4.1-9.6,7.5-15.1,11 C275.6,330.8,274.9,331.5,273.6,331.5z M283.2,329.4c4.1-2.7,8.2-6.2,11.6-8.9c4.8-0.7,11-2.7,18.5-6.2 C304.4,320.5,294.1,326,283.2,329.4z M313.3,266.4c-0.7,0-2.1,0-2.1-0.7c-0.7-15.8-11.6-34.9-15.8-41.8c7.5-9.6,13.7-21.2,15.8-34.3 c5.5,0,10.3,0.7,14.4,1.4c5.5,0.7,10.3,2.7,14.4,4.8c5.5,8.9,11,24,12.3,36.3c0,0,0,0.7,0,1.4c-0.7,5.5-4.8,23.3-16.4,34.9 C331.1,267.8,320.2,267.1,313.3,266.4z M352.4,250.6c-3.4,17.8-11,33.6-21.9,46.6c4.8-9.6,7.5-18.5,7.5-27.4 c9.6-10.3,13.7-23.3,15.8-32.2C353.7,242.4,353,246.5,352.4,250.6z"></path> </svg> 