<?xml version="1.0" encoding="UTF-8"?> <!-- Generator: Adobe Illustrator 24.3.0, SVG Export Plug-In . SVG Version: 6.00 Build 0) --> <svg xmlns="http://www.w3.org/2000/svg" xmlns:xlink="http://www.w3.org/1999/xlink" version="1.1" id="Layer_1" x="0px" y="0px" viewBox="0 0 500 500" style="enable-background:new 0 0 500 500;" xml:space="preserve"> <g> <path style="fill:#FFFFFF;" d="M468.7,207.8c-2.4,6.6-4.8,12.1-6.9,17.7c-7.6,20.1-15.6,40.2-23.6,59.9 c-5.9,14.5-20.4,20.4-35,13.9c0.7-4.2,1-8.7,1.7-12.8c3.8,0.3,6.9,0.7,10,0.7c4.2,0,6.9-1.7,8.7-5.5c1.4-2.8,2.4-5.5,3.5-8.3 c0.3-1.4,0.7-3.1,0-4.2c-7.3-17-14.5-34.3-21.8-51.3c0-0.3-0.3-0.3-1-1c-0.7,1.4-1.4,2.4-1.7,3.5c-5.9,14.9-11.8,29.4-17.3,44.7 c-1.7,4.8-4.2,6.6-9,5.9c-3.5-0.3-6.6,0-10.4,0c-8.3-20.8-17-41.2-25.6-62.7c5.5,0,10.4-0.3,15.2,0c1,0,2.4,1.7,3.1,3.1 c4.5,11.4,9,23.2,13.5,34.6c0.7,1.4,1,2.8,2.1,5.2c1.4-3.1,2.1-5.5,3.1-7.6c4.2-10.7,8.3-21.1,12.1-31.9c1-3.1,2.8-3.8,5.9-3.8 c6.2,0.3,12.5,0.3,18.7,0c3.5,0,5.2,1,6.2,4.2c4.2,10.7,8.7,21.5,12.8,31.9c0.7,1.7,1.4,3.5,2.8,6.6c1-2.4,1.7-3.5,2.1-4.8 c4.2-11.4,8.3-22.9,12.1-34.3c1-2.8,2.1-4.2,5.2-3.8C460.1,208.2,463.9,207.8,468.7,207.8z"></path> <path style="fill:#FFFFFF;" d="M33.4,291.3c3.1-4.2,5.9-8.3,9.4-12.5c1.4,1,2.8,1.7,4.2,2.8c5.2,3.8,11.4,5.9,18,5.9 c11.8-0.3,17.7-5.5,19-17.3c0.3-2.1,0-4.2,0-7.3c-8.7,8-18.4,9.7-29.1,6.9c-7.6-1.7-13.5-6.2-17.7-12.8 c-8.7-13.2-5.5-34.3,6.2-44.3c9-7.6,29.4-10.7,40.9,2.4c0.3,0,0.7-0.3,0.7-0.3c0.3-2.4,0.3-6.6,1.4-6.6c4.2-0.7,8.3-0.3,12.5-0.3 c0.3,0,1.4,1.7,1.4,2.8c0,19.4,0.7,39.1-0.3,58.5c-0.7,20.1-12.1,31.2-32.6,31.9C55.2,302.4,43.4,300.3,33.4,291.3z M67,220.7 c-11.1,0-18.7,7.3-18.7,18.4c0,10,7.6,18,18,18c11.1,0,18.7-7.6,18.7-18.4S77.7,220.7,67,220.7z"></path> <path style="fill:#FFFFFF;" d="M189.6,269.5c-0.7,0.7-0.7,0.7-1,0.7c-14.9,1.7-14.9,1.7-14.9-13.2c0-14.9,0-29.8,0-44.7 c0-3.5,0.7-5.2,4.5-4.8c3.5,0.3,6.6,0,10.4,0c0,2.8,0,5.2,0,7.3c5.5-6.2,12.1-9.4,20.1-9c8,0.3,14.5,3.1,18.7,11.1 c5.2-8.3,12.8-11.4,21.8-11.1c10.4,0.3,17.7,5.9,20.1,16.3c1,4.5,1,9.4,1,14.2c0,11.1,0,22.2,0,33.3c-5.2,0-10.4,0-15.9,0 c0-1.7,0-3.5,0-5.2c0-10.7,0-21.8,0-32.6c0-6.9-3.8-11.1-9.4-11.8c-6.9-0.7-12.1,2.4-14.2,9c-0.7,2.8-1,5.9-1,8.7 c0,9.4,0,18.4,0,27.7c0,3.1-0.7,4.5-4.2,4.5c-11.4,0-11.4,0-11.4-11.4c0-8.7,0-17.3,0-25.6s-3.1-12.1-9-12.8 c-7.6-0.7-13.2,3.1-14.9,10.4c-0.7,2.4-0.7,4.8-0.7,7.3C189.2,249.1,189.6,259.4,189.6,269.5z"></path> <path style="fill:#FFFFFF;" d="M338.2,259.4c-8.7,12.8-28.4,16.6-43.6,8.7c-14.2-7.6-20.4-25.3-14.5-40.9 c5.9-15.6,23.6-24.2,40.5-19.7c14.2,3.8,22.9,19.4,20.4,37.4c-15.6,0-30.8,0-47.1,0c1,6.6,3.8,11.1,9.4,13.2 c7.6,3.1,14.9,2.1,20.8-3.8c2.8-2.8,4.5-2.8,7.3-0.3C333.3,255.6,335.7,257.4,338.2,259.4z M325,232.8c0.3-9-6.2-14.5-15.6-14.5 c-9,0.3-15.2,6.2-14.9,14.5C304.6,232.8,314.6,232.8,325,232.8z"></path> <path style="fill:#FFFFFF;" d="M111,215.5c3.8-2.1,7.6-5.5,11.8-6.2c7.3-1.4,14.9-2.4,22.2-1.7c10.7,0.7,18,8.3,18.7,19 c0.7,14.5,0.3,29.1,0.3,44.3c-3.8,0-7.6,0-11.4,0c-0.7,0-1.7-1.4-2.1-2.1c-0.3-1.4-0.3-2.8-0.3-5.5c-7.3,8-15.6,10.4-25.3,9 c-10-1.7-16.6-8-17.7-16.6c-1-9.7,3.8-17.7,14.2-20.4c8-2.1,16.3-2.4,24.6-3.1c4.5-0.3,5.9-1.7,3.8-5.5c-1.7-2.8-4.5-5.5-7.6-6.6 c-6.6-2.4-13.2-1-18.7,2.8c-3.5,2.4-5.2,1.7-7.6-1c-1.4-1.4-3.1-2.4-4.5-3.8C111,216.8,111,216.2,111,215.5z M141.8,241.8 c-5.2,1.4-10.7,2.4-15.6,4.5c-4.5,2.1-4.8,8-1,11.1c6.9,6.2,20.8,2.1,23.2-6.6C150.4,244.2,149.1,242.5,141.8,241.8z"></path> </g> </svg> 