<?xml version="1.0" encoding="UTF-8"?> <!-- Generator: Adobe Illustrator 24.3.0, SVG Export Plug-In . SVG Version: 6.00 Build 0) --> <svg xmlns="http://www.w3.org/2000/svg" xmlns:xlink="http://www.w3.org/1999/xlink" version="1.1" id="Layer_1" x="0px" y="0px" viewBox="0 0 500 500" style="enable-background:new 0 0 500 500;" xml:space="preserve"> <path style="fill:none;stroke:#FFFFFF;stroke-width:9.5097;stroke-miterlimit:10;" d="M129.4,175.2c-8.7-8.7-8.7-23.4,0-32.1 s23.4-8.7,32.1,0s8.7,23.4,0,32.1C152.8,183.9,138.1,183.9,129.4,175.2z"></path> <path style="fill:none;stroke:#FFFFFF;stroke-width:9.5097;stroke-miterlimit:10;" d="M225.1,164.5c-8.7-8.7-8.7-23.4,0-32.1 c8.7-8.7,23.4-8.7,32.1,0c8.7,8.7,8.7,23.4,0,32.1C248.5,173.2,233.8,173.2,225.1,164.5z"></path> <path style="fill:none;stroke:#FFFFFF;stroke-width:9.5097;stroke-miterlimit:10;" d="M169.5,243.5c-8.7-8.7-8.7-23.4,0-32.1 c8.7-8.7,23.4-8.7,32.1,0c8.7,8.7,8.7,23.4,0,32.1C192.3,252.9,178.2,252.9,169.5,243.5z"></path> <circle style="fill:none;stroke:#FFFFFF;stroke-width:9.5097;stroke-miterlimit:10;" cx="130.7" cy="222.1" r="22.8"></circle> <path style="fill:none;stroke:#FFFFFF;stroke-width:9.5097;stroke-miterlimit:10;" d="M223.8,237.5c-13.4-13.4-13.4-36.2,0-49.5 c13.4-13.4,36.2-13.4,49.5,0c13.4,13.4,13.4,36.2,0,49.5C259.9,251.5,237.8,251.5,223.8,237.5z"></path> <ellipse transform="matrix(0.1602 -0.9871 0.9871 0.1602 -0.6692 424.6364)" style="fill:none;stroke:#FFFFFF;stroke-width:9.5097;stroke-miterlimit:10;" cx="249.2" cy="212.7" rx="15.4" ry="15.4"></ellipse> <g> <rect x="348.4" y="56.1" transform="matrix(0.7071 -0.7071 0.7071 0.7071 39.9698 287.0445)" style="fill:none;stroke:#FFFFFF;stroke-width:9.5096;stroke-miterlimit:9.9999;" width="36.2" height="78.3"></rect> <line style="fill:none;stroke:#FFFFFF;stroke-width:9.5097;stroke-miterlimit:10;" x1="395.2" y1="121.7" x2="367.7" y2="94.2"></line> </g> <g> <g> <line style="fill:none;stroke:#FFFFFF;stroke-width:9.5097;stroke-miterlimit:10;" x1="274" y1="237.5" x2="340.9" y2="305.1"></line> <line style="fill:none;stroke:#FFFFFF;stroke-width:9.5097;stroke-miterlimit:10;" x1="156.8" y1="120.3" x2="223.8" y2="187.9"></line> </g> <g> <line style="fill:none;stroke:#FFFFFF;stroke-width:9.5097;stroke-miterlimit:10;" x1="223.8" y1="237.5" x2="156.8" y2="305.1"></line> <line style="fill:none;stroke:#FFFFFF;stroke-width:9.5097;stroke-miterlimit:10;" x1="340.9" y1="120.3" x2="274" y2="187.9"></line> </g> </g> <path style="fill:none;stroke:#FFFFFF;stroke-width:9.5097;stroke-miterlimit:10;" d="M281.4,133c-8.7-8.7-8.7-23.4,0-32.1 c8.7-8.7,23.4-8.7,32.1,0s8.7,23.4,0,32.1C304.8,142.4,290.1,142.4,281.4,133z"></path> <path style="fill:none;stroke:#FFFFFF;stroke-width:9.5097;stroke-miterlimit:10;" d="M233.1,111.6c-8.7-8.7-8.7-23.4,0-32.1 c8.7-8.7,23.4-8.7,32.1,0c8.7,8.7,8.7,23.4,0,32.1C255.9,121,241.9,121,233.1,111.6z"></path> <path style="fill:none;stroke:#FFFFFF;stroke-width:9.5097;stroke-miterlimit:10;" d="M330.9,204.7c-8.7-8.7-8.7-23.4,0-32.1 c8.7-8.7,23.4-8.7,32.1,0c8.7,8.7,8.7,23.4,0,32.1S339.6,213.4,330.9,204.7z"></path> <path style="fill:none;stroke:#FFFFFF;stroke-width:9.5097;stroke-miterlimit:10;" d="M338.3,266.9c-8.7-8.7-8.7-23.4,0-32.1 c8.7-8.7,23.4-8.7,32.1,0c8.7,8.7,8.7,23.4,0,32.1C361.7,275.6,347,275.6,338.3,266.9z"></path> <g> <path style="fill:none;stroke:#FFFFFF;stroke-width:9.5097;stroke-miterlimit:10;" d="M248.5,276.3L213.7,362 c22.8,5.4,46.9,5.4,69.6,0L248.5,276.3z"></path> <path style="fill:none;stroke:#FFFFFF;stroke-width:9.5097;stroke-miterlimit:10;" d="M357,104.2c-59.6-59.6-156.7-59.6-216.9,0 c-59.6,59.6-59.6,156.7,0,216.9c13.4,13.4,29.5,24.1,46.2,31.5l54.9-134.6c2.7-6.7,12.1-6.7,15.4,0l54.9,134.6 c16.7-7.4,32.1-18.1,45.5-31.5C417.3,261.6,417.3,164.5,357,104.2z"></path> </g> <path style="fill:#FFFFFF;" d="M345,423.6h-41.5L248.5,289l-54.9,134.6h-41.5l84.4-207.6c2-4.7,6.7-8,12.1-8l0,0 c5.4,0,10,3.3,12.1,8L345,423.6z M310.1,414.2h21.4l-79-194.2c-0.7-2-2.7-2-3.3-2l0,0c-0.7,0-2.7,0-3.3,2l-79,194.2h21.4l60.9-150 L310.1,414.2z"></path> <path style="fill:none;stroke:#FFFFFF;stroke-width:9.5097;stroke-miterlimit:10;" d="M379.8,447.7H118c-8,0-14.7-6.7-14.7-14.7l0,0 c0-8,6.7-14.7,14.7-14.7h261.8c8,0,14.7,6.7,14.7,14.7l0,0C394.5,441.7,387.8,447.7,379.8,447.7z"></path> <line style="fill:none;stroke:#FFFFFF;stroke-width:9.5097;stroke-miterlimit:10;" x1="50.4" y1="447.7" x2="442.7" y2="447.7"></line> </svg> 