<?xml version="1.0" encoding="UTF-8"?> <!-- Generator: Adobe Illustrator 24.3.0, SVG Export Plug-In . SVG Version: 6.00 Build 0) --> <svg xmlns="http://www.w3.org/2000/svg" xmlns:xlink="http://www.w3.org/1999/xlink" version="1.1" id="Layer_1" x="0px" y="0px" viewBox="0 0 500 500" style="enable-background:new 0 0 500 500;" xml:space="preserve"> <g> <path style="fill:#FFFFFF;" d="M149,228.1c-2.7,8.6-7.8,15.7-15.6,20.9c7.8,5.2,12.9,12.3,15.6,21c2.7-8.7,7.7-15.8,15.5-21 C156.7,243.8,151.7,236.7,149,228.1z"></path> <path style="fill:#FFFFFF;" d="M224.6,241.7c0.2-0.8,0.3-1.5,0.3-2.3c0-5.2-4.3-9.5-9.5-9.5c-5.3,0-9.5,4.3-9.5,9.5 c0,0.8,0.1,1.5,0.3,2.3c-5.3,0-9.5,4.2-9.5,9.4c0,5.3,4.3,9.5,9.5,9.5c3.3,0,6.2-1.6,7.9-4.2v0.9c-1.5,4.1-3.9,7.8-7.2,10.8 c5.7,0,11.3,0,17.1,0c-3.4-3-5.9-6.6-7.3-10.8v-0.9c1.7,2.6,4.6,4.2,7.9,4.2c5.3,0,9.5-4.2,9.5-9.5 C234,245.9,229.8,241.7,224.6,241.7z"></path> <path style="fill:#FFFFFF;" d="M353.6,124.3H143.2c-68.7,0-124.8,56.1-124.8,124.7c0,68.7,56.2,124.8,124.8,124.8h210.4 c68.7,0,124.8-56.2,124.8-124.8C478.5,180.3,422.3,124.3,353.6,124.3z M377.1,131c2.6,0.5,5.1,1.2,7.6,1.8v23 c-2.5-0.8-5-1.5-7.6-2.2V131z M243.9,128.7h7.5v22h-7.5V128.7z M112.2,132.8c2.5-0.6,5-1.3,7.6-1.8v22.6c-2.6,0.6-5.1,1.4-7.6,2.2 V132.8z M119.8,367c-2.6-0.5-5.1-1.1-7.6-1.8v-23c2.5,0.8,5,1.5,7.6,2.2V367z M251.4,369.3h-7.5v-22.1h7.5V369.3z M384.6,365.2 c-2.5,0.7-5,1.3-7.6,1.8v-22.6c2.6-0.6,5.1-1.4,7.6-2.2V365.2z M353.6,342.7H143.2c-51.6,0-93.8-42.2-93.8-93.8 s42.2-93.8,93.8-93.8h210.4c51.6,0,93.8,42.2,93.8,93.8C447.4,300.6,405.2,342.7,353.6,342.7z"></path> <path style="fill:#FFFFFF;" d="M353.6,163H143.2c-47.3,0-86.1,38.7-86.1,86s38.8,86.1,86.1,86.1h210.4c47.3,0,86.1-38.8,86.1-86.1 S400.9,163,353.6,163z M178.3,286.7c0,2.3-1.9,4.2-4.3,4.2h-50.1c-2.3,0-4.2-1.9-4.2-4.2v-75.4c0-2.4,1.9-4.3,4.2-4.3H174 c2.4,0,4.3,1.9,4.3,4.3V286.7z M244.7,286.7c0,2.3-2,4.2-4.3,4.2h-50.2c-2.3,0-4.3-1.9-4.3-4.2v-75.4c0-2.4,2-4.3,4.3-4.3h50.1 c2.3,0,4.3,1.9,4.3,4.3L244.7,286.7L244.7,286.7z M311,286.7c0,2.3-2,4.2-4.3,4.2h-50.1c-2.3,0-4.3-1.9-4.3-4.2v-75.4 c0-2.4,2-4.3,4.3-4.3h50.1c2.3,0,4.3,1.9,4.3,4.3V286.7L311,286.7z M377.2,286.7c0,2.3-1.9,4.2-4.2,4.2h-50.1 c-2.3,0-4.3-1.9-4.3-4.2v-75.4c0-2.4,2-4.3,4.3-4.3H373c2.3,0,4.2,1.9,4.2,4.3V286.7z"></path> <path style="fill:#FFFFFF;" d="M347.9,227.5c-9.8,9-19.6,17.8-19.6,26.8c0,4.9,4.4,9,9.9,9c4.2,0,6.6-1.7,8.8-5.1 c-1.5,4.7-4.1,8.8-7.8,12.2c5.9,0,11.8,0,17.7,0c-3.8-3.3-6.4-7.4-7.9-12.2c2.2,3.4,4.6,5.1,8.9,5.1c5.4,0,9.9-4.1,9.9-9 C367.6,245.4,357.8,236.5,347.9,227.5z"></path> <path style="fill:#FFFFFF;" d="M290.1,233.1c-4.3,0-6.5,2-8.6,5.9c-2.1-4-4.2-5.9-8.5-5.9c-4.7,0-8.5,3.6-8.5,8 c0,7.9,8.5,15.9,17.1,23.9c8.6-8,17.1-16,17.1-23.9C298.7,236.7,294.8,233.1,290.1,233.1z"></path> </g> </svg> 