<?xml version="1.0" encoding="UTF-8"?> <!-- Generator: Adobe Illustrator 24.3.0, SVG Export Plug-In . SVG Version: 6.00 Build 0) --> <svg xmlns="http://www.w3.org/2000/svg" xmlns:xlink="http://www.w3.org/1999/xlink" version="1.1" id="Layer_1" x="0px" y="0px" viewBox="0 0 500 500" style="enable-background:new 0 0 500 500;" xml:space="preserve"> <g> <path style="fill:#FFFFFF;" d="M247.9,73.3c-11.9,0-21-9.8-21-21c0-11.9,9.8-21,21-21c11.9,0,21,9.8,21,21 C268.9,64.2,259.1,73.3,247.9,73.3z M247.9,42.5c-5.6,0-9.8,4.2-9.8,9.8s4.2,9.8,9.8,9.8c5.6,0,9.8-4.2,9.8-9.8 C257.7,46.7,253.5,42.5,247.9,42.5z"></path> <g> <rect x="425.5" y="241.8" style="fill:#FFFFFF;" width="28.7" height="28.7"></rect> <path style="fill:#FFFFFF;" d="M454.9,271.2h-30.8v-30.8h30.8V271.2z M426.2,269.8h27.3v-27.3h-27.3V269.8z"></path> </g> <path style="fill:#FFFFFF;" d="M446.5,231.3h-12.6c0-95.8-78.3-174.1-174.1-174.1V45.3C363.3,45.3,446.5,128.6,446.5,231.3z"></path> </g> <g> <path style="fill:#FFFFFF;" d="M242.3,456.5c-11.9,0-21-9.8-21-21c0-11.9,9.8-21,21-21c11.9,0,21,9.8,21,21 C264,447.4,254.2,456.5,242.3,456.5z M242.3,425.8c-5.6,0-9.8,4.2-9.8,9.8c0,5.6,4.2,9.8,9.8,9.8c5.6,0,9.8-4.2,9.8-9.8 C252.8,430,247.9,425.8,242.3,425.8z"></path> <g> <rect x="36.2" y="217.8" style="fill:#FFFFFF;" width="28.7" height="28.7"></rect> <path style="fill:#FFFFFF;" d="M66.1,247.4H35.3v-30.8h30.8V247.4z M36.7,245.3H64v-27.3H36.7V245.3z"></path> </g> <path style="fill:#FFFFFF;" d="M229.7,442.5c-102.8,0-186-83.2-186-186h12.6c0,95.8,78.3,174.1,174.1,174.1v11.9H229.7z"></path> </g> <path style="fill:#FFFFFF;" d="M143.7,280.3c-14.7,0-26.6,11.9-26.6,26.6c0,14.7,11.9,26.6,26.6,26.6c14.7,0,26.6-11.9,26.6-26.6 C170.3,292.2,158.4,280.3,143.7,280.3L143.7,280.3z M143.7,283.1c13.3,0,23.8,10.5,23.8,23.8s-10.5,23.8-23.8,23.8 c-13.3,0-23.8-10.5-23.8-23.8S131.1,283.1,143.7,283.1L143.7,283.1z"></path> <path style="fill:#FFFFFF;" d="M233.2,106.2c-20.3,0.7-37.8,6.3-49,13.3c-10.5,6.3-23.8,16.8-34.3,32.2s-17.5,35-15.4,58.7 c4.9,51.7,43.4,87.4,80.4,89.5h0.7l0,0c6.3-2.8,28.7-15.4,51.7-28.7c23.1-13.3,46.2-27.3,55.2-32.9h0.7v-0.7 c15.4-31.5,9.1-82.5-31.5-114C275.2,109,253.5,104.8,233.2,106.2L233.2,106.2z M233.2,109c19.6-0.7,40.6,3.5,57.3,16.8 c39.2,30.8,44.8,79.7,30.1,109.8c-9.1,5.6-32.2,19.6-55.2,32.2c-23.1,13.3-44.8,25.9-51.1,28.7c-35-2.1-72.7-37.1-76.9-86.7 c-2.1-23.1,4.9-42,14.7-56.6c9.8-14.7,23.1-25.2,32.9-31.5C196.1,115.3,213.6,109.7,233.2,109L233.2,109z"></path> <path style="fill:#FFFFFF;" d="M317.8,237.6c-7,12.6-17.5,28-17.5,42.7c0,7,3.5,15.4,7.7,23.1c4.2,8.4,9.8,16.8,14,23.8 c7.7,12.6,12.6,18.9,16.1,23.1s6.3,6.3,9.1,11.2c0,0.7,0.7,1.4,0,2.1s-1.4,2.8-2.8,4.2c-2.8,2.8-7,6.3-11.2,9.1 c-4.2,2.8-9.1,4.9-13.3,6.3c-2.1,0.7-3.5,0.7-4.9,0.7c-1.4,0-1.4-0.7-2.1-0.7c-5.6-9.1-4.2-16.1-17.5-41.3 c-4.2-7.7-9.1-16.8-14-23.8c-4.9-7.7-10.5-14-16.1-16.8c-11.9-5.6-30.1-5.6-47.6-5.6v2.8c17.5,0,35.7,0.7,46.2,5.6 c4.9,2.1,10.5,8.4,15.4,15.4c4.9,7,9.1,16.1,14,23.8c13.3,24.5,11.9,31.5,17.5,41.3c0.7,1.4,2.8,2.1,4.2,2.1c1.4,0,3.5,0,5.6-0.7 c4.2-1.4,9.1-3.5,14-6.3c4.9-2.8,9.1-6.3,11.9-9.8c1.4-1.4,2.8-3.5,3.5-4.9c0.7-1.4,0.7-3.5,0-4.9c-2.8-4.9-5.6-7.7-9.1-11.2 c-3.5-4.2-8.4-9.8-16.1-23.1c-4.2-7-9.8-15.4-14-23.1c-4.2-8.4-7.7-16.1-7.7-21.7c0-12.6,9.8-28.7,16.8-41.3L317.8,237.6z"></path> <path style="fill:#FFFFFF;" d="M264.7,270.5l-1.4,0.7l63.6,110.5l1.4-0.7L264.7,270.5z"></path> <path style="fill:#FFFFFF;" d="M278.7,262.1l-1.4,0.7l63.6,110.5l1.4-0.7L278.7,262.1z"></path> <path style="fill:#FFFFFF;" d="M261.2,273.3h-2.1l4.2,28h2.1L261.2,273.3z"></path> <path style="fill:#FFFFFF;" d="M282.2,260l-1.4,1.4l21,14.7l1.4-1.4L282.2,260z"></path> </svg> 