<?xml version="1.0" encoding="UTF-8"?> <!-- Generator: Adobe Illustrator 24.3.0, SVG Export Plug-In . SVG Version: 6.00 Build 0) --> <svg xmlns="http://www.w3.org/2000/svg" xmlns:xlink="http://www.w3.org/1999/xlink" version="1.1" id="Layer_1" x="0px" y="0px" viewBox="0 0 500 500" style="enable-background:new 0 0 500 500;" xml:space="preserve"> <g> <path style="fill:#FFFFFF;" d="M103.4,362.5c3.6-20.2,9.4-25.2,17.3-31.7l2.2-1.4c7.2-5.8,20.9-9.4,34.6-7.2 c-15.9-21.6-25.2-48.3-25.2-77.1c0-72.8,59.1-131.9,131.9-131.9c41.8,0,79.3,19.5,103.8,50.5c13,2.9,26.7-0.7,31.7-5l2.2-1.4 c7.2-5.8,11.5-9.4,14.4-26.7c2.9-18-11.5-33.2-11.5-33.2c-0.7-0.7-0.7-1.4-0.7-2.2c-36.8-33.9-85.8-54.8-139.8-54.8 C151,39.6,59.4,131.8,59.4,245c0,47.6,16.6,91.5,44,126.1C102.7,368.2,102.7,365.3,103.4,362.5z"></path> <path style="fill:#FFFFFF;" d="M424.1,116c0.7,4.3,1.4,10.1,0.7,15.1c-3.6,20.2-9.4,25.2-17.3,31.7l-2.2,1.4 c-5.8,5-15.9,7.9-26.7,7.9c-1.4,0-2.9,0-4.3,0c13.7,20.9,21.6,46.1,21.6,72.8c0,72.8-59.1,131.9-131.9,131.9 c-39.6,0-75-17.3-98.7-44.7c-15.1-5.8-31.7-2.2-37.5,2.9l-2.2,1.4c-7.2,5.8-11.5,9.4-14.4,26.7c-1.4,8.6,1.4,15.9,4.3,21.6 c37.5,39.6,90.1,64.1,149.2,64.1c113.2,0,205.4-91.5,205.4-205.4C469.5,196,453,151.3,424.1,116z"></path> </g> </svg> 