<?xml version="1.0" encoding="UTF-8"?> <!-- Generator: Adobe Illustrator 24.3.0, SVG Export Plug-In . SVG Version: 6.00 Build 0) --> <svg xmlns="http://www.w3.org/2000/svg" xmlns:xlink="http://www.w3.org/1999/xlink" version="1.1" id="Layer_1" x="0px" y="0px" viewBox="0 0 500 500" style="enable-background:new 0 0 500 500;" xml:space="preserve"> <path style="fill:#FFFFFF;" d="M94.3,28.1c-5.3,0-9.5,4.2-9.5,9.5c0,1.9,0.8,4.2,1.9,5.7l27,35.7v26.6l-0.4-0.8 c-46.3,34.9-75.9,90.3-75.9,152.6c0,60,27.7,113.1,70.6,148.4l-20.9,27.7c-3,4.2-2.3,10.2,1.9,13.3c1.5,1.1,3.8,1.9,5.7,1.9h268 c2.7,0,5.7-1.1,7.2-3.4l47.8-57.3c3.4-4.2,2.7-10.2-1.1-13.7c-1.9-1.5-3.8-2.3-6.1-2.3h-28.8c23.9-31.9,38.3-71.7,38.3-115 c0-105.5-85.8-191.3-191.3-191.3c-3,0-6.5,0-9.5,0.4V37.5c0-5.3-4.2-9.5-9.5-9.5H94.3z M113.2,47.4h86.2v335.2 c0,5.3,4.2,9.5,9.5,9.5h180.7l-31.9,38.3H113.2l17.1-23.2c1.1-1.5,1.9-3.8,1.9-5.7V75.9c0-1.9-0.8-4.2-1.9-5.7L113.2,47.4z M228.3,85.4c95.3,0,172.3,77.1,172.3,172.3c0,44.4-16.7,84.3-44,115h-27c31.9-28.1,52-69.1,52-115c0-84.7-68.7-153.4-153.4-153.4 c-3,0-6.5,0-9.5,0.4v-19C221.8,85.8,224.8,85.4,228.3,85.4z M228.3,123.7c74,0,134,60,134,134c0,47.8-25.1,90-62.6,113.5l0,0 c-0.8,0.4-1.5,0.8-2.3,1.1h-78.6V124.1C221.8,124.1,225.2,123.7,228.3,123.7z M113.2,129.4v27.3c-23.5,27-38.3,62.3-38.3,101 s14.4,74,38.3,101V386C77.9,354.9,55.9,309,55.9,257.7C55.9,206.8,78.3,160.9,113.2,129.4z M113.2,189v137.8 c-12.1-20.1-19-43.7-19-68.7S101.1,209.1,113.2,189z"></path> </svg> 