<?xml version="1.0" encoding="UTF-8"?> <!-- Generator: Adobe Illustrator 24.3.0, SVG Export Plug-In . SVG Version: 6.00 Build 0) --> <svg xmlns="http://www.w3.org/2000/svg" xmlns:xlink="http://www.w3.org/1999/xlink" version="1.1" id="Layer_1" x="0px" y="0px" viewBox="0 0 500 500" style="enable-background:new 0 0 500 500;" xml:space="preserve"> <g> <g> <path style="fill:#FFFFFF;" d="M159.9,355.9c-4,0-7.1-3.2-7.1-7.1V82.4c0-4,3.2-7.1,7.1-7.1h184.2c4,0,7.1,3.2,7.1,7.1v233.2 c0,4-3.2,7.1-7.1,7.1s-7.1-3.2-7.1-7.1V89.5H167v259.3C167,352.8,163.8,355.9,159.9,355.9z"></path> <path style="fill:#FFFFFF;" d="M135.4,332.2c-3.2,0-6.3-2.4-7.1-5.5L80.8,142.5c-0.8-1.6,0-4,0.8-5.5c0.8-1.6,2.4-3.2,4.7-3.2 l47.4-10.3c4-0.8,7.9,1.6,8.7,5.5c0.8,4-1.6,7.9-5.5,8.7l-40.3,8.7l45.9,177.1c0.8,4-1.6,7.9-4.7,8.7 C136.9,332.2,136.2,332.2,135.4,332.2z"></path> <path style="fill:#FFFFFF;" d="M110.9,335.4c-2.4,0-4.7-1.6-6.3-4L41.3,208.1c-0.8-1.6-0.8-4-0.8-5.5c0.8-1.6,1.6-3.2,3.2-4 L69,185.2c3.2-1.6,7.9-0.8,9.5,3.2c1.6,3.2,0.8,7.9-3.2,9.5l-18.2,10.3l60.1,117c1.6,3.2,0.8,7.9-3.2,9.5 C113.2,335.4,111.6,335.4,110.9,335.4z"></path> <path style="fill:#FFFFFF;" d="M374.9,300.6c-0.8,0-0.8,0-1.6,0c-4-0.8-6.3-4.7-4.7-8.7l37.2-145.5l-40.3-8.7 c-4-0.8-6.3-4.7-5.5-8.7c0.8-4,4.7-6.3,8.7-5.5l47.4,10.3c1.6,0.8,3.2,1.6,4.7,3.2c0.8,1.6,1.6,4,0.8,5.5l-40.3,152.6 C380.4,298.2,378.1,300.6,374.9,300.6z"></path> <path style="fill:#FFFFFF;" d="M388.4,341.7c-0.8,0-2.4,0-3.2-0.8c-3.2-1.6-4.7-6.3-3.2-9.5l63.2-123.3l-19-10.3 c-4-1.6-5.5-5.5-4-9.5c1.6-3.2,6.3-4.7,9.5-3.2l25.3,13.4c1.6,0.8,3.2,2.4,3.2,4c0.8,1.6,0.8,4-0.8,5.5l-66.4,129.7 C393.1,340.1,390.7,341.7,388.4,341.7z"></path> <path style="fill:#FFFFFF;" d="M287.2,246l-25.3-74.3c-0.8-1.6-2.4-2.4-4-2.4H246c-1.6,0-3.2,0.8-4,2.4L216.8,246 c-0.8,1.6,0,2.4,0.8,4c0.8,0.8,1.6,1.6,3.2,1.6H231c1.6,0,3.2-0.8,4-2.4l7.1-20.6h20.6l7.1,20.6c0.8,1.6,2.4,2.4,4,2.4H284 c1.6,0,2.4-0.8,3.2-1.6C287.2,249.2,287.9,247.6,287.2,246z M251.6,195.5L251.6,195.5C252.4,195.5,252.4,195.5,251.6,195.5 l6.3,16.6H246L251.6,195.5z"></path> <path id="XMLID_3_" style="fill-rule:evenodd;clip-rule:evenodd;fill:#FFFFFF;" d="M199.4,110.1c-4.7-11.1-17.4-7.9-18.2,4 c0,7.1,5.5,10.3,10.3,12.6c4,2.4,7.1,5.5,7.9,7.1c0-1.6,4-4.7,7.9-7.1c4-3.2,10.3-5.5,10.3-12.6 C216.8,101.4,203.4,99.8,199.4,110.1z"></path> <g> <path style="fill:#FFFFFF;" d="M174.9,451.6H79.2c-4,0-7.1-3.2-7.1-7.1v-95.7c0-4,3.2-7.1,7.1-7.1h95.7c4,0,7.1,3.2,7.1,7.1v95.7 C182,448.4,178.8,451.6,174.9,451.6z M86.4,437.4h81.4v-81.4H86.4V437.4z"></path> <path style="fill:#FFFFFF;" d="M174.9,387.6H82.4c-4,0-7.1-3.2-7.1-7.1s3.2-7.1,7.1-7.1h92.5c4,0,7.1,3.2,7.1,7.1 S178.8,387.6,174.9,387.6z"></path> <path style="fill:#FFFFFF;" d="M174.9,419.2H82.4c-4,0-7.1-3.2-7.1-7.1s3.2-7.1,7.1-7.1h92.5c4,0,7.1,3.2,7.1,7.1 S178.8,419.2,174.9,419.2z"></path> </g> <path style="fill:#FFFFFF;" d="M270.6,407.3c-4,0-7.1-3.2-7.1-7.1v-84.6c0-4,3.2-7.1,7.1-7.1h95.7c4,0,7.1,3.2,7.1,7.1v61.7 c0,4-3.2,7.1-7.1,7.1c-4,0-7.1-3.2-7.1-7.1v-54.5h-81.4v77.5C277.7,404.2,274.5,407.3,270.6,407.3z"></path> <path style="fill:#FFFFFF;" d="M366.2,387.6h-94.9c-4,0-7.1-3.2-7.1-7.1s3.2-7.1,7.1-7.1h94.9c4,0,7.1,3.2,7.1,7.1 S370.2,387.6,366.2,387.6z"></path> <path style="fill:#FFFFFF;" d="M366.2,355.1h-94.9c-4,0-7.1-3.2-7.1-7.1s3.2-7.1,7.1-7.1h94.9c4,0,7.1,3.2,7.1,7.1 S370.2,355.1,366.2,355.1z"></path> <g> <path style="fill:#FFFFFF;" d="M296.6,472.9H201c-4,0-7.1-3.2-7.1-7.1v-64c0-4,3.2-7.1,7.1-7.1h95.7c4,0,7.1,3.2,7.1,7.1v64 C303.8,469.8,300.6,472.9,296.6,472.9z M208.1,458.7h81.4v-49.8h-81.4V458.7z"></path> <path style="fill:#FFFFFF;" d="M296.6,441.3h-92.5c-4,0-7.1-3.2-7.1-7.1s3.2-7.1,7.1-7.1h92.5c4,0,7.1,3.2,7.1,7.1 S300.6,441.3,296.6,441.3z"></path> </g> <path style="fill:#FFFFFF;" d="M432.6,451.6H337c-4,0-7.1-3.2-7.1-7.1v-64c0-4,3.2-7.1,7.1-7.1h95.7c4,0,7.1,3.2,7.1,7.1v64 C439.7,448.4,436.6,451.6,432.6,451.6z M344.1,437.4h81.4v-49.8h-81.4V437.4z"></path> <path style="fill:#FFFFFF;" d="M432.6,419.2H297.4c-4,0-7.1-3.2-7.1-7.1s3.2-7.1,7.1-7.1h135.2c4,0,7.1,3.2,7.1,7.1 S436.6,419.2,432.6,419.2z"></path> <path style="fill:#FFFFFF;" d="M337,451.6h-38.7c-4,0-7.1-3.2-7.1-7.1c0-4,3.2-7.1,7.1-7.1H337c4,0,7.1,3.2,7.1,7.1 C344.1,448.4,340.9,451.6,337,451.6z"></path> </g> <g> <path style="fill:#FFFFFF;" d="M57.1,44.5c-4,0-7.1-3.2-7.1-7.1v-3.2c0-4,3.2-7.1,7.1-7.1s7.1,3.2,7.1,7.1v3.2 C64.2,41.3,61.1,44.5,57.1,44.5z"></path> <path style="fill:#FFFFFF;" d="M57.1,80c-4,0-7.1-3.2-7.1-7.1v-3.2c0-4,3.2-7.1,7.1-7.1s7.1,3.2,7.1,7.1v3.2 C64.2,76.9,61.1,80,57.1,80z"></path> <path style="fill:#FFFFFF;" d="M40.5,61.1h-3.2c-4,0-7.1-3.2-7.1-7.1s3.2-7.1,7.1-7.1h3.2c4,0,7.1,3.2,7.1,7.1 C47.6,57.9,44.5,61.1,40.5,61.1z"></path> <path style="fill:#FFFFFF;" d="M76.1,61.1h-2.4c-4,0-7.1-3.2-7.1-7.1s3.2-7.1,7.1-7.1h3.2c4,0,7.1,3.2,7.1,7.1 C83.2,57.9,80,61.1,76.1,61.1z"></path> </g> <g> <path style="fill:#FFFFFF;" d="M443.7,69.7c-4,0-7.1-3.2-7.1-7.1v-3.2c0-4,3.2-7.1,7.1-7.1s7.1,3.2,7.1,7.1v3.2 C450.8,66.6,447.6,69.7,443.7,69.7z"></path> <path style="fill:#FFFFFF;" d="M443.7,105.3c-4,0-7.1-3.2-7.1-7.1V95c0-4,3.2-7.1,7.1-7.1s7.1,3.2,7.1,7.1v3.2 C450.8,102.2,447.6,105.3,443.7,105.3z"></path> <path style="fill:#FFFFFF;" d="M427.1,86.4h-3.2c-4,0-7.1-3.2-7.1-7.1s3.2-7.1,7.1-7.1h3.2c4,0,7.1,3.2,7.1,7.1 C434.2,83.2,431,86.4,427.1,86.4z"></path> <path style="fill:#FFFFFF;" d="M462.7,86.4h-3.2c-4,0-7.1-3.2-7.1-7.1s3.2-7.1,7.1-7.1h3.2c4,0,7.1,3.2,7.1,7.1 C469.8,83.2,466.6,86.4,462.7,86.4z"></path> </g> <circle style="fill-rule:evenodd;clip-rule:evenodd;fill:#FFFFFF;" cx="110.1" cy="87.9" r="11.1"></circle> <circle style="fill-rule:evenodd;clip-rule:evenodd;fill:#FFFFFF;" cx="389.9" cy="46.8" r="11.1"></circle> </g> </svg> 