<?xml version="1.0" encoding="UTF-8"?> <!-- Generator: Adobe Illustrator 24.3.0, SVG Export Plug-In . SVG Version: 6.00 Build 0) --> <svg xmlns="http://www.w3.org/2000/svg" xmlns:xlink="http://www.w3.org/1999/xlink" version="1.1" id="Layer_1" x="0px" y="0px" viewBox="0 0 500 500" style="enable-background:new 0 0 500 500;" xml:space="preserve"> <g> <g> <path style="fill:#FFFFFF;" d="M257,458.3c-112.5,0-204.3-91.8-204.3-204.3S144.6,49.8,257,49.8s204.3,91.8,204.3,204.3 S369.5,458.3,257,458.3z M257,81.2c-95.1,0-172.9,77.7-172.9,172.9S161.9,426.9,257,426.9s172.9-77.7,172.9-172.9 S352.1,81.2,257,81.2z"></path> </g> <g> <path style="fill:#FFFFFF;" d="M185.9,274.7c-13.2,0-24-10.8-24-24c0-13.2,10.8-24,24-24s24,10.8,24,24 C209.9,264,199.1,274.7,185.9,274.7z M185.9,242.5c-4.1,0-7.4,3.3-7.4,7.4s3.3,7.4,7.4,7.4s7.4-3.3,7.4-7.4 C193.3,245.8,190,242.5,185.9,242.5z"></path> </g> <g> <path style="fill:#FFFFFF;" d="M259.5,274.7c-13.2,0-24-10.8-24-24c0-13.2,10.8-24,24-24s24,10.8,24,24 C284.3,264,273.6,274.7,259.5,274.7z M259.5,242.5c-4.1,0-7.4,3.3-7.4,7.4s3.3,7.4,7.4,7.4c4.1,0,7.4-3.3,7.4-7.4 C267.8,245.8,264.5,242.5,259.5,242.5z"></path> </g> <g> <path style="fill:#FFFFFF;" d="M333.9,274.7c-13.2,0-24-10.8-24-24c0-13.2,10.8-24,24-24c13.2,0,24,10.8,24,24 C357.9,264,347.2,274.7,333.9,274.7z M333.9,242.5c-4.1,0-7.4,3.3-7.4,7.4s3.3,7.4,7.4,7.4s7.4-3.3,7.4-7.4 C341.4,245.8,338.1,242.5,333.9,242.5z"></path> </g> </g> </svg> 