<?xml version="1.0" encoding="UTF-8"?> <!-- Generator: Adobe Illustrator 24.3.0, SVG Export Plug-In . SVG Version: 6.00 Build 0) --> <svg xmlns="http://www.w3.org/2000/svg" xmlns:xlink="http://www.w3.org/1999/xlink" version="1.1" id="Layer_1" x="0px" y="0px" viewBox="0 0 500 500" style="enable-background:new 0 0 500 500;" xml:space="preserve"> <g> <g> <path style="fill:#FFFFFF;" d="M251.5,444.3c-83.2,0-150.6-68.1-150.6-150.6c0-83.2,68.1-150.6,150.6-150.6S402,211.2,402,293.7 S334.6,444.3,251.5,444.3z M251.5,154.9c-76.3,0-138.2,62.6-138.2,138.2c0,76.3,62.6,138.2,138.2,138.2s138.2-62.6,138.2-138.2 S327.8,154.9,251.5,154.9z"></path> <path style="fill:#FFFFFF;" d="M226.7,206.4c-2.8,0-5.5-2.1-6.2-4.8l-6.2-21.3c-0.7-1.4,0-3.4,0.7-4.8c0.7-1.4,2.1-2.7,3.4-2.7 c21.3-6.2,43.3-6.2,64.6,0c1.4,0.7,2.8,1.4,3.4,2.7c0.7,1.4,1.4,3.4,0.7,4.8l-6.2,21.3c-0.7,3.4-4.1,5.5-7.6,4.1 C258.3,201.6,242.5,201.6,226.7,206.4C228.1,206.4,227.4,206.4,226.7,206.4z M251.5,191.3c6.9,0,13.7,0.7,20.6,2.1l2.8-10.3 c-15.1-3.4-30.9-3.4-46.1,0l2.8,10.3C237.7,192,244.6,191.3,251.5,191.3z"></path> <path style="fill:#FFFFFF;" d="M158.6,275.2c-0.7,0-1.4,0-1.4,0L136,269c-3.4-0.7-5.5-4.1-4.1-7.6c2.8-11,6.9-20.6,13.1-30.2 c5.5-9.6,12.4-17.9,19.2-25.4c2.1-2.1,6.2-2.1,8.9,0l15.8,15.8c1.4,1.4,2.1,2.8,2.1,4.1s-0.7,3.4-2.1,4.1 c-5.5,5.5-10.3,11.7-14.4,18.6c-4.1,6.9-6.9,14.4-8.9,21.3C163.5,273.1,161.4,275.2,158.6,275.2z M144.9,258.7l10.3,2.8 c2.1-6.9,4.8-13.1,8.9-18.6c3.4-6.2,7.6-11.7,12.4-16.5l-8.2-7.6c-5.5,5.5-9.6,12.4-13.8,18.6 C149.7,244.2,147.6,251.1,144.9,258.7z"></path> <path style="fill:#FFFFFF;" d="M183.4,231.2c-1.4,0-3.4-0.7-4.1-2.1L163.5,214c-1.4-1.4-2.1-2.7-2.1-4.1c0-1.4,0.7-3.4,2.1-4.1 c7.6-7.6,15.8-14.4,25.4-19.2c9.6-4.8,19.2-9.6,30.2-12.4c3.4-0.7,6.9,1.4,7.6,4.1l6.2,21.3c0.7,1.4,0,3.4-0.7,4.8 c-0.7,1.4-2.1,2.7-3.4,2.7c-7.6,2.1-14.4,5.5-21.3,8.9c-6.9,4.1-13.8,8.9-18.6,14.4C186.1,230.5,184.8,231.2,183.4,231.2 L183.4,231.2z M176.5,209.9l7.6,7.6c5.5-4.8,11-8.9,16.5-12.4c6.2-3.4,12.4-6.2,18.6-8.9l-2.8-8.9c-7.6,2.8-14.4,5.5-21.3,9.6 C188.2,200.2,182,204.4,176.5,209.9z"></path> <path style="fill:#FFFFFF;" d="M365.6,330.2c-0.7,0-1.4,0-1.4,0l-21.3-6.2c-3.4-0.7-5.5-4.1-4.1-7.6c2.1-8.2,3.4-15.1,3.4-23.4 c0-7.6-1.4-15.1-3.4-23.4c-0.7-3.4,1.4-6.9,4.1-7.6l21.3-6.2c1.4-0.7,3.4,0,4.8,0.7c1.4,0.7,2.8,2.1,2.8,3.4 c2.8,11,4.1,21.3,4.1,32.3c0,11-1.4,21.3-4.1,32.3c-0.7,1.4-1.4,2.8-2.8,3.4C367.6,330.2,367,330.2,365.6,330.2z M351.1,313.7 l10.3,2.8c1.4-8.2,2.8-15.1,2.8-23.4c0-7.6-0.7-15.1-2.8-23.4l-10.3,2.8c1.4,6.9,2.1,14.4,2.1,20.6 C353.2,300.6,352.5,306.8,351.1,313.7z"></path> <path style="fill:#FFFFFF;" d="M319.5,231.2L319.5,231.2c-1.4,0-3.4-0.7-4.1-2.1c-5.5-5.5-11.7-10.3-18.6-14.4 c-6.9-4.1-14.4-6.9-21.3-8.9c-3.4-0.7-5.5-4.1-4.1-7.6l6.2-21.3c0.7-3.4,4.1-5.5,7.6-4.1c11,2.8,20.6,6.9,30.2,12.4 s17.9,12.4,25.4,19.2c1.4,1.4,2.1,2.8,2.1,4.1s-0.7,3.4-2.1,4.1L325,228.4C322.3,230.5,320.9,231.2,319.5,231.2z M283.8,196.1 c6.9,2.1,13.1,4.8,18.6,8.9c6.2,3.4,11.7,7.6,16.5,12.4l7.6-7.6c-5.5-5.5-12.4-9.6-18.6-13.8c-6.2-4.1-14.4-7.6-21.3-9.6 L283.8,196.1z"></path> <path style="fill:#FFFFFF;" d="M344.3,275.2c-1.4,0-2.1,0-2.8-0.7c-1.4-0.7-2.8-2.1-2.8-3.4c-2.1-7.6-5.5-14.4-8.9-21.3 c-4.1-6.9-8.9-13.8-14.4-18.6c-1.4-1.4-2.1-2.7-2.1-4.1c0-1.4,0.7-3.4,2.1-4.1l15.8-15.8c1.4-1.4,2.8-2.1,4.1-2.1l0,0 c1.4,0,3.4,0.7,4.1,2.1c7.6,7.6,14.4,15.8,19.2,25.4s9.6,19.2,12.4,30.2c0.7,3.4-1.4,6.9-4.1,7.6l-21.3,4.8 C345.6,275.2,345,275.2,344.3,275.2z M327.8,225.7c4.8,5.5,8.9,11,12.4,16.5c3.4,6.2,6.2,12.4,8.9,18.6l10.3-2.8 c-2.8-7.6-5.5-14.4-9.6-21.3c-4.1-6.9-8.9-13.8-13.8-18.6L327.8,225.7z"></path> <path style="fill:#FFFFFF;" d="M251.5,418.2c-11,0-21.3-1.4-32.3-4.1c-1.4-0.7-2.8-1.4-3.4-2.8c-0.7-1.4-1.4-3.4-0.7-4.8l6.2-21.3 c0.7-3.4,4.1-5.5,7.6-4.1c15.1,4.1,30.9,4.1,46.1,0c3.4-0.7,6.9,1.4,7.6,4.1l6.2,21.3c0.7,1.4,0,3.4-0.7,4.8 c-0.7,1.4-2.1,2.8-3.4,2.8C272.8,416.8,262.5,418.2,251.5,418.2z M228.1,403.7c15.1,3.4,30.9,3.4,46.1,0l-2.8-10.3 c-14.4,2.8-27.5,2.8-41.2,0L228.1,403.7z"></path> <path style="fill:#FFFFFF;" d="M282.4,414.1c-2.8,0-5.5-2.1-6.2-4.8l-6.2-21.3c-0.7-3.4,1.4-6.9,4.1-7.6 c7.6-2.1,14.4-5.5,21.3-8.9c6.9-4.1,13.8-8.9,18.6-14.4c2.8-2.8,6.2-2.8,8.9,0l15.8,15.8c1.4,1.4,2.1,2.8,2.1,4.1 s-0.7,3.4-2.1,4.1c-7.6,7.6-15.8,14.4-25.4,19.2c-9.6,5.5-19.2,9.6-30.3,12.4C283.1,414.1,282.4,414.1,282.4,414.1z M283.8,390.7 l2.8,10.3c7.6-2.8,14.4-5.5,21.3-9.6s13.8-8.9,18.6-13.8l-6.9-7.6c-5.5,4.8-11,8.9-16.5,12.4C296.1,385.9,290.6,388.6,283.8,390.7 z"></path> <path style="fill:#FFFFFF;" d="M137.3,330.2c-1.4,0-2.1,0-3.4-0.7c-1.4-0.7-2.8-2.1-2.8-3.4c-2.8-11-4.1-21.3-4.1-32.3 c0-11,1.4-21.3,4.1-32.3c0.7-1.4,1.4-2.8,2.8-3.4c1.4-0.7,3.4-1.4,4.8-0.7l21.3,6.2c3.4,0.7,5.5,4.1,4.1,7.6 c-2.1,8.2-3.4,15.1-3.4,23.4c0,7.6,1.4,15.1,3.4,23.4c0.7,3.4-1.4,6.9-4.1,7.6l-21.3,6.2C138,330.2,137.3,330.2,137.3,330.2z M141.5,270.4c-1.4,8.2-2.8,15.1-2.8,23.4c0,7.6,0.7,15.1,2.8,23.4l10.3-2.8c-1.4-6.9-2.1-14.4-2.1-20.6c0-6.9,0.7-13.8,2.1-20.6 L141.5,270.4z"></path> <path style="fill:#FFFFFF;" d="M220.5,414.1c-0.7,0-1.4,0-1.4,0c-11-2.8-20.6-6.9-30.2-13.1c-9.6-5.5-17.9-12.4-25.4-19.2 c-1.4-1.4-2.1-2.8-2.1-4.1c0-1.4,0.7-3.4,2.1-4.1l15.8-15.8c2.8-2.8,6.2-2.8,8.9,0c5.5,5.5,11.7,10.3,18.6,14.4 c6.9,4.1,14.4,6.9,21.3,8.9c1.4,0.7,2.8,1.4,3.4,2.8s1.4,3.4,0.7,4.8l-6.2,21.3C226,412,223.3,414.1,220.5,414.1z M176.5,376.9 c6.2,5.5,12.4,9.6,18.6,13.8c6.9,4.1,14.4,7.6,21.3,9.6l2.8-10.3c-6.9-2.1-13.1-4.8-18.6-8.9c-6.2-3.4-11.7-7.6-16.5-12.4 L176.5,376.9z"></path> <path style="fill:#FFFFFF;" d="M335.3,383.8c-1.4,0-3.4-0.7-4.1-2.1l-15.8-15.8c-2.8-2.8-2.8-6.2,0-8.9 c5.5-5.5,10.3-11.7,14.4-18.6c4.1-6.9,6.9-14.4,8.9-21.3c0.7-1.4,1.4-2.8,2.8-3.4c1.4-0.7,3.4-1.4,4.8-0.7l21.3,6.2 c3.4,0.7,5.5,4.1,4.1,7.6c-2.8,11-6.9,20.6-12.4,30.2c-5.5,9.6-12.4,17.9-19.2,25.4C338.8,383.1,336.7,383.8,335.3,383.8z M327.8,361.8l7.6,7.6c5.5-5.5,9.6-12.4,13.8-18.6c4.1-6.9,7.6-14.4,9.6-21.3l-10.3-3.4c-2.1,6.9-4.8,13.1-8.9,18.6 C336,350.8,331.9,356.3,327.8,361.8z"></path> <path style="fill:#FFFFFF;" d="M167.6,383.8L167.6,383.8c-1.4,0-3.4-0.7-4.1-2.1c-7.6-7.6-14.4-15.8-19.2-25.4 c-5.5-9.6-9.6-19.2-12.4-30.2c-0.7-3.4,1.4-6.9,4.1-7.6l21.3-6.2c3.4-0.7,6.9,1.4,7.6,4.1c2.1,7.6,5.5,14.4,8.9,21.3 c4.1,6.9,8.9,13.8,14.4,18.6c1.4,1.4,2.1,2.8,2.1,4.1s-0.7,3.4-2.1,4.1l-15.1,16.5C171,383.1,169.6,383.8,167.6,383.8z M144.9,328.8c2.8,7.6,5.5,14.4,9.6,21.3c4.1,6.9,8.9,13.8,13.8,18.6l7.6-7.6c-4.8-5.5-8.9-11-12.4-16.5 c-3.4-5.5-6.9-11.7-9.6-18.6L144.9,328.8z"></path> <path style="fill:#FFFFFF;" d="M292,340.5c-1.4,0-3.4-0.7-4.1-2.1l-81.8-81.8c-2.8-2.8-2.8-6.2,0-8.9c2.7-2.8,6.2-2.8,8.9,0 l81.8,81.8c2.8,2.8,2.8,6.2,0,8.9C295.5,339.8,293.4,340.5,292,340.5z"></path> <path style="fill:#FFFFFF;" d="M210.2,340.5c-1.4,0-3.4-0.7-4.1-2.1c-2.8-2.8-2.8-6.2,0-8.9l81.8-81.8c2.8-2.8,6.2-2.8,8.9,0 c2.8,2.8,2.8,6.2,0,8.9l-82.5,81.8C213.6,339.8,211.6,340.5,210.2,340.5z"></path> <path style="fill:#FFFFFF;" d="M297.5,258c-3.4,3.4-8.3,3.4-11.7,0s-3.4-8.2,0-11.7s8.3-3.4,11.7,0C301,249.7,301,255.2,297.5,258 z"></path> <path style="fill:#FFFFFF;" d="M292,266.9c-4.1,0-7.6-1.4-10.3-4.1c-5.5-5.5-5.5-14.4,0-19.2s14.4-5.5,19.2,0 c5.5,5.5,5.5,14.4,0,19.2C299.6,264.9,296.1,266.9,292,266.9z M292,250.4c0,0-0.7,0-1.4,0.7c-0.7,0.7-0.7,2.1,0,2.8 c1.4,1.4,2.1,0.7,2.8,0c0.7-0.7,0.7-2.1,0-2.8C292.7,250.4,292,250.4,292,250.4z"></path> <path style="fill:#FFFFFF;" d="M215.7,258c-3.4,3.4-8.2,3.4-11.7,0s-3.4-8.2,0-11.7s8.2-3.4,11.7,0 C219.1,249.7,219.1,255.2,215.7,258z"></path> <path style="fill:#FFFFFF;" d="M210.2,266.9c-4.1,0-7.6-1.4-10.3-4.1c-5.5-5.5-5.5-14.4,0-19.2c5.5-5.5,14.4-5.5,19.2,0 c5.5,5.5,5.5,14.4,0,19.2C217.8,264.9,214.3,266.9,210.2,266.9z M210.2,250.4c0,0-0.7,0-1.4,0.7c-0.7,0.7-0.7,2.1,0,2.8 c1.4,1.4,2.1,0.7,2.8,0s0.7-2.1,0-2.8C210.9,250.4,210.9,250.4,210.2,250.4z"></path> <path style="fill:#FFFFFF;" d="M297.5,339.8c-3.4,3.4-8.3,3.4-11.7,0s-3.4-8.3,0-11.7s8.3-3.4,11.7,0 C301,332.2,301,336.4,297.5,339.8z"></path> <path style="fill:#FFFFFF;" d="M292,348.1c-4.1,0-7.6-1.4-10.3-4.1c-2.8-2.8-4.1-6.2-4.1-9.6c0-4.1,1.4-7.6,4.1-10.3 c5.5-5.5,14.4-5.5,19.2,0c2.8,2.8,4.1,6.2,4.1,10.3c0,4.1-1.4,7.6-4.1,10.3C299.6,346.7,295.5,348.1,292,348.1z M292,332.9 c-0.7,0-0.7,0-1.4,0.7c-0.7,0.7-0.7,0.7-0.7,1.4c0,0,0,0.7,0.7,1.4c0.7,0.7,2.1,0.7,2.8,0c0.7-0.7,0.7-1.4,0.7-1.4s0-0.7-0.7-1.4 C292.7,332.9,292,332.9,292,332.9z"></path> <path style="fill:#FFFFFF;" d="M215.7,339.8c-3.4,3.4-8.2,3.4-11.7,0s-3.4-8.3,0-11.7s8.2-3.4,11.7,0 C219.1,332.2,219.1,336.4,215.7,339.8z"></path> <path style="fill:#FFFFFF;" d="M210.2,348.1c-4.1,0-7.6-1.4-10.3-4.1s-4.1-6.2-4.1-9.6c0-4.1,1.4-7.6,4.1-10.3 c5.5-5.5,14.4-5.5,19.2,0c2.8,2.8,4.1,6.2,4.1,10.3c0,4.1-1.4,7.6-4.1,10.3C217.8,346.7,214.3,348.1,210.2,348.1z M210.2,332.9 c-0.7,0-0.7,0-1.4,0.7c-0.7,0.7-0.7,1.4-0.7,1.4s0,0.7,0.7,1.4c0.7,0.7,1.4,1.4,2.8,0c0.7-0.7,0.7-1.4,0.7-1.4s0-0.7-0.7-1.4 C210.9,332.9,210.9,332.9,210.2,332.9z"></path> <path style="fill:#FFFFFF;" d="M263.8,280.7c6.9,6.9,6.9,17.9,0,25.4c-6.9,6.9-17.9,6.9-25.4,0c-6.9-6.9-6.9-17.9,0-25.4 C246,274.5,257,274.5,263.8,280.7z"></path> <path style="fill:#FFFFFF;" d="M251.5,317.1c-6.9,0-12.4-2.8-16.5-6.9c-4.8-4.8-6.9-11-6.9-16.5c0-6.9,2.8-12.4,6.9-16.5 c8.9-8.9,24.8-8.9,33.7,0c9.6,9.6,9.6,24.1,0,33.7C263.1,315.1,258.3,317.1,251.5,317.1z M251.5,281.4c-3.4,0-6.2,1.4-8.2,3.4 c-2.1,2.1-3.4,5.5-3.4,8.2c0,3.4,1.4,6.2,3.4,8.2c4.8,4.8,12.4,4.8,16.5,0c4.8-4.8,4.8-12.4,0-16.5 C257.6,282.7,254.9,281.4,251.5,281.4z"></path> </g> <polygon style="fill:#FFFFFF;" points="46.6,39.4 107.1,137.7 79.6,137.7 104.3,214 44.5,115.7 72,115.7 "></polygon> <polygon style="fill:#FFFFFF;" points="450.8,39.4 390.3,137.7 417.8,137.7 393.1,214 452.9,115.7 426.1,115.7 "></polygon> </g> </svg> 