<?xml version="1.0" encoding="UTF-8"?> <!-- Generator: Adobe Illustrator 24.3.0, SVG Export Plug-In . SVG Version: 6.00 Build 0) --> <svg xmlns="http://www.w3.org/2000/svg" xmlns:xlink="http://www.w3.org/1999/xlink" version="1.1" id="Layer_1" x="0px" y="0px" viewBox="0 0 500 500" style="enable-background:new 0 0 500 500;" xml:space="preserve"> <path style="fill:#FFFFFF;" d="M99.9,284l-74.5,43v85.7l74.5,43l74.5-43V327L99.9,284z M149.4,398.5l-49.5,28.6l-49.5-28.6v-57.1 l49.5-28.6l49.5,28.6v19.2l-16.6,9.4l-35.4,20.2l-16.6-9.4v-19.2l21-11.9l16.6,9.4l14.5-8.3l-33.3-19.2l-32.9,19.2v38.3l32.9,19.2 l32.9-19.2l16.6-9.4L149.4,398.5z"></path> <g> <path style="fill:#FFFFFF;" d="M411.1,120.2c-42.7,19.2-71.2,56-71.2,98.7c0,40.8,26.7,76.6,66.5,96.1 c22.8-27.1,36.5-62.2,36.5-100.5C442.5,179.1,431,146.2,411.1,120.2z"></path> <path style="fill:#FFFFFF;" d="M321.4,218.9c0-48.1,31.1-90.4,77.4-113.1c-28.6-29.3-68.3-47.4-112.4-47.4 c-44.1,0-83.9,18.1-112.1,47.4c46.3,22.8,77.4,65.1,77.4,113.1c0,46.3-28.6,86.8-71.6,110.2c27.8,26,65.4,41.9,106.6,41.9 s78.4-15.9,106.6-41.9C350,305.6,321.4,264.8,321.4,218.9z"></path> <path style="fill:#FFFFFF;" d="M233.2,218.9c0-42.3-28.9-79.5-71.2-98.7c-20.2,26-31.8,58.9-31.8,94.3c0,38.3,13.7,73.4,36.5,100.5 C206.5,295.2,233.2,259.4,233.2,218.9z"></path> </g> </svg> 