<?xml version="1.0" encoding="UTF-8"?> <!-- Generator: Adobe Illustrator 24.3.0, SVG Export Plug-In . SVG Version: 6.00 Build 0) --> <svg xmlns="http://www.w3.org/2000/svg" xmlns:xlink="http://www.w3.org/1999/xlink" version="1.1" id="Layer_1" x="0px" y="0px" viewBox="0 0 500 500" style="enable-background:new 0 0 500 500;" xml:space="preserve"> <path style="fill:#FFFFFF;" d="M221.5,75.8c-4.3,0-7.9,3.3-8.6,7.6c0,0-1,3.6-3,5.9c-2,2.3-4,3.3-6.3,3.3h-23.4l0,0 c-0.7-0.7-1.6-2.3-2-3.3l0,0c-1.3-3-4.3-5.3-7.6-5.3H85.2c-4.6,0-8.6,4-8.6,8.6v68.1c0,26.7,7.9,58.6,8.6,60.6v13.2l-5.9,5.6 c-1.6,1.6-2.6,4-2.6,6.3v33.9c0,2.3,1,4.3,2.6,5.9l5.9,5.9v37.5L77,354c-0.7,1.6-0.7,3.3-0.3,4.6l7.9,31.6l-7.6,23 c-1.6,4.6,1,9.2,5.3,10.9c1,0.3,1.6,0.3,2.6,0.3h119.2c2.3,0,4.3-1,5.9-2.6l1-1c0.3,0.7,0.3,0.7,1,1.3c3.6,4.6,8.9,10.5,17.8,10.5 h25.7c7.2,0,12.2-3,16.5-5.3c4.3-2.3,7.6-3.3,8.9-3.3h42.5c2.3,0,4.3-1,5.9-2.6l2-2c1.3,1.3,2.6,3,3.6,4.3c1.3,1.6,3,3.6,4.9,5.3 c2,1.6,5.3,3.3,8.9,3.3h42.5c4.6,0,8.6-4,8.6-8.6v-5.3l23.4,5.9c4.6,1,9.2-1.6,10.2-6.3c0.3-0.7,0.3-1.3,0.3-2c0,0-0.7-84,0-127.4 c0-2.3-1-4.6-2.6-6.3l-5.9-5.9v-39.2c0-2.3-1-4.3-2.6-5.9l-4.3-4.3l5.3-10.2l7.6-7.6c1.6-1.6,2.6-3.6,2.6-5.9c0-8.6,0-34.2,0-42.8 c0-0.7,0-1.3-0.3-2l-7.6-30.9l7.2-14.2c0.7-1.3,1-2.6,1-4V92.6c0-4.6-4-8.6-8.6-8.6h-33.9c-2.6,0-5.6,0.7-8.6,1.6v-1.6 c0-4.6-4-8.6-8.6-8.6h-50.7c-6.6,0-13.5,2-17.4,6.9c-2.6,3-3.6,6.6-4.9,10.2h-7.6C293,92,293,92,292.3,91c-1.6-2.3-3-5.6-3-6.9 c0-4.6-4-8.6-8.6-8.6h-59.3V75.8z M226.5,92.6h49.1c1,2.6,1.6,5.9,2.6,7.9c2.6,4,5.3,6.6,5.3,6.6c1.6,1.6,3.6,2.6,5.9,2.6h17.1 c3.6,0,6.9-2.6,8.2-5.9c1.6-5.9,3.3-8.9,4-9.9c0.7-0.7,0.7-1,4.9-1h42.5v8.6c0,4.6,4,8.6,8.6,8.6c2.3,0,4.6-1,5.9-2.6 c3.6-3.6,5.6-5.3,6.3-5.6c0.7-0.3,1.3-0.3,4.6-0.3h25.7v6.6l-7.6,15.1c-1,2-1,4-0.7,5.9l8.2,32.9c0,8.6,0,28.3,0,38.2l-5.9,5.9 c-0.7,0.7-1.3,1.3-1.6,2.3l-8.6,17.1c-1.6,3.3-1,7.2,1.6,9.9l5.9,5.9v39.2c0,2.3,1,4.3,2.6,5.9l5.9,5.9c-0.3,40.8,0,101.4,0,113.3 l-23.4-5.9c-4.6-1-9.2,1.6-10.2,6.3c-0.3,0.7-0.3,1.3-0.3,2v8.6h-32.9c-0.3-0.3-1-1-2-2c-2.3-3-5.6-7.6-10.5-12.5 c-3.3-3.3-8.6-3.3-12.2,0l-5.9,5.9h-38.5c-7.2,0-12.2,3-16.5,5.3c-4.3,2-7.6,3.3-8.9,3.3h-25.7c0.3,0-2-1-4.3-4 c-2.3-3-4.3-6.9-4.9-8.2c-2-4.3-7.2-5.9-11.2-4c-1,0.3-1.6,1-2.3,1.6l-5.9,5.9H97.1l4.6-14.5c0.7-1.6,0.7-3.3,0.3-4.6l-7.9-31.6 l7.6-23c0.3-1,0.3-1.6,0.3-2.6v-43.1c0-2.3-1-4.3-2.6-5.9l-5.9-5.9v-27l5.6-5.6c1.6-1.6,2.6-4,2.6-6.3v-17.4c0-0.7,0-1.3-0.3-2 c0,0-8.2-33.9-8.2-57.6v-59.6h72.8c0.7,1,0.7,1.6,1.6,2.6c2.3,2.6,5.9,5.9,11.5,5.9h24.7c8.6,0,15.1-4.6,19.4-9.5 C225.2,97.9,225.2,95.3,226.5,92.6z M332.8,135.4c-1,0-1.6,0.3-2.6,0.3l-51.7,17.1c-4.6,1.3-6.9,6.3-5.3,10.9c0.7,1.6,1.6,3.3,3,4.3 l69.1,51c3.6,2.6,9.2,2,11.9-1.6c0.7-1,1.3-2.3,1.6-3.6l8.6-51c0.7-3.3-1-6.6-3.6-8.6l-26-17.1C336.1,135.8,334.5,135.4,332.8,135.4 z M167.9,135.4c-0.7,0-1,0-1.6,0.3l-31.9,7.9c-4.6,1-7.2,5.6-6.3,10.2c0.3,1.3,1,2.6,1.6,3.6l174.8,205.1c1.6,2,4,3,6.6,3h39.8 c3.3,0,6.6-2,7.9-5.3l23.7-55.3c1.6-3.6,0.3-7.9-2.6-10.2L173.5,137.1C171.8,135.8,169.8,135.1,167.9,135.4z M166.2,153.2 l198.2,151.1l-19.1,43.8H315L151.7,156.8L166.2,153.2z M331.8,153.2l17.8,11.9l-5.3,31.9l-44.8-32.9L331.8,153.2z M153.4,271.7 c-3.6,0-6.9,2.6-7.9,6.3l-17.1,59.6c-1,3.3,0.3,6.9,3,9.2l33.9,25.7c2.3,1.6,5.3,2.3,7.9,1.3l51-17.1c4.6-1.6,6.9-6.3,5.3-10.9 c-0.3-1.3-1-2.3-2-3.3L159.3,274C157.7,272.4,155.7,271.4,153.4,271.7z M157.7,296.4l48.1,48.1l-33.9,11.2l-25.7-19.4L157.7,296.4z"></path> </svg> 