<?xml version="1.0" encoding="UTF-8"?> <!-- Generator: Adobe Illustrator 24.3.0, SVG Export Plug-In . SVG Version: 6.00 Build 0) --> <svg xmlns="http://www.w3.org/2000/svg" xmlns:xlink="http://www.w3.org/1999/xlink" version="1.1" id="Layer_1" x="0px" y="0px" viewBox="0 0 500 500" style="enable-background:new 0 0 500 500;" xml:space="preserve"> <g id="coin_1_"> <path id="inset_shadow__x2F__x29__1_" style="opacity:0.2;fill:#FFFFFF;enable-background:new ;" d="M317.5,178.2h5l-47.3,65.4 c0,0.5,0,0.5,0,1.1l49.5,70.4h-2.2c-30.8,0-37.4,0-38,0v-0.5l-29.1-41.2l-0.6-0.5c0,0-0.5,0-0.5,0.5L224,314.6h-8.2 c-0.6,0-0.6,0-0.6,0.5l-42.9,62.7c-0.6,0.5,0,1.1,0,1.6c19.8,13.8,52.8,22.5,82.5,22.5c85.8,0,155.6-69.9,155.6-155.6 c0-45.1-20.9-89.1-57.2-120.5l0,0h-0.5l0,0c0,0-0.5,0-0.5,0.6l-35.2,50.1c0,0.6,0,0.6,0,1.1C316.9,177.6,316.9,178.2,317.5,178.2 M317.5,177.1l34.6-50.6l0,0c36.3,31.3,57.2,75.3,57.2,120.4c0,85.2-69.3,154.6-154.5,154.6c-29.1,0-62.7-9.4-81.9-22.5l42.9-62.7 h8.2l30.2-41.8l28.6,40.7l0.5,0.5c0.5,0.5,0.5,0.5,38.5,0.5h4.9l-50.6-72l48.4-67.1C324.6,177.1,317.5,177.1,317.5,177.1z"></path> <path id="inset_shadow__x28__x2F__1_" style="opacity:0.2;fill:#FFFFFF;enable-background:new ;" d="M153,365.7L153,365.7 c0.6,0,0.6,0,0.6-0.5l34.6-50.6c0-0.5,0-0.5,0-1.1c0-0.5-0.6-0.5-1.1-0.5h-4.9L230,248c0-0.5,0-0.5,0-1.1l-49.5-70.4h2.2 c30.8,0,37.4,0,37.9,0v0.6l28.6,40.7l0.6,0.6c0,0,0.6,0,0.6-0.6l30.2-41.2h8.2c0.6,0,0.6,0,0.6-0.6l45.1-61v-0.6 c0-0.6,0-0.6-0.5-0.6c-18.7-14.3-55-24.7-83-24.7c-86.3,0-155.6,69.8-155.6,155.7c0,45.1,20.9,89.1,56.6,120.5l0,0 C152.5,365.7,152.5,365.7,153,365.7 M153,364.6L153,364.6c-36.3-31.4-57.2-74.8-57.2-119.9c0-85.3,69.8-154.6,154.5-154.6 c28.1,0,64.3,10.5,84.1,24.2l-45.1,61.1h-8.2l-30.3,41.8l-29.1-40.7l-0.6-0.6c-0.6-0.6-0.6-0.6-38.5-0.6h-3.9l50.6,72.1l-48.4,67.1 h7.1L153,364.6z"></path> <g id="shine_5_"> <g> <g> <path id="SVGID_7_" style="fill:#FFFFFF;" d="M276.2,243.6l48.4-67.1h-7.1l29.1-42.3c15.4,12.6,28.1,28.6,37.4,46.2 c-6.6-3.3-15.4-5.5-28-5.5c-34.1,0-41.2,18.7-41.2,34.6v23.6c0,1.6,1.1,3.9,2.8,4.4c1.6,0.6,3.9,0.6,5.5-0.6l28-20.3 c1.1-1.1,2.2-2.2,2.2-3.9v-11c0-1.6,0-2.2,2.8-2.2c4.4,0,3.9,1.1,3.9,2.8v14.3c0,0,0,3.3-10.5,11.6l-21.4,16.5h-0.6 c-8.8,8.2-13.8,16.5-13.8,24.2v5.5l-19.8-4.9L276.2,243.6z M396.7,281.6c2.2-10.5,4.4-22,4.4-33.5c0-9.4-1.1-18.7-2.2-27.5v0.6 c0,7.7-4.9,15.4-13.8,23.1c0,0,0,0-0.5,0l-21.5,16.5c-6.6,5.5-9.9,11-9.9,15.4v3.3h39.6C393.9,279.9,395.6,280.5,396.7,281.6 L396.7,281.6z M129.9,199.1h-7.2c-2.8,0-4.9-1.6-4.9-4.4v-6.6c-3.3,6.1-5.5,12.1-7.2,18.7l24.8,8.8v-11 C136,201.3,136,199.1,129.9,199.1z M221.2,176L221.2,176l29.1,41.2l30.2-41.8h8.2l39.6-53.3c-22-13.8-48.4-21.5-76.4-21.5 c-55,0-102.9,31.3-128.1,74.8h25.9c19.8,0,31.3,10.4,31.3,31.4v23.6l47.8,16.5l-50.6-71.5h3.8 C220.7,175.4,220.7,175.4,221.2,176z"></path> </g> </g> <g> <g> <path id="SVGID_9_" style="fill:#FFFFFF;" d="M276.2,243.6l48.4-67.1h-7.1l29.1-42.3c15.4,12.6,28.1,28.6,37.4,46.2 c-6.6-3.3-15.4-5.5-28-5.5c-34.1,0-41.2,18.7-41.2,34.6v23.6c0,1.6,1.1,3.9,2.8,4.4c1.6,0.6,3.9,0.6,5.5-0.6l28-20.3 c1.1-1.1,2.2-2.2,2.2-3.9v-11c0-1.6,0-2.2,2.8-2.2c4.4,0,3.9,1.1,3.9,2.8v14.3c0,0,0,3.3-10.5,11.6l-21.4,16.5h-0.6 c-8.8,8.2-13.8,16.5-13.8,24.2v5.5l-19.8-4.9L276.2,243.6z M396.7,281.6c2.2-10.5,4.4-22,4.4-33.5c0-9.4-1.1-18.7-2.2-27.5v0.6 c0,7.7-4.9,15.4-13.8,23.1c0,0,0,0-0.5,0l-21.5,16.5c-6.6,5.5-9.9,11-9.9,15.4v3.3h39.6C393.9,279.9,395.6,280.5,396.7,281.6 L396.7,281.6z M129.9,199.1h-7.2c-2.8,0-4.9-1.6-4.9-4.4v-6.6c-3.3,6.1-5.5,12.1-7.2,18.7l24.8,8.8v-11 C136,201.3,136,199.1,129.9,199.1z M221.2,176L221.2,176l29.1,41.2l30.2-41.8h8.2l39.6-53.3c-22-13.8-48.4-21.5-76.4-21.5 c-55,0-102.9,31.3-128.1,74.8h25.9c19.8,0,31.3,10.4,31.3,31.4v23.6l47.8,16.5l-50.6-71.5h3.8 C220.7,175.4,220.7,175.4,221.2,176z"></path> </g> </g> </g> </g> <path style="fill:#FFFFFF;" d="M355.4,123.7c-0.5-0.5-1.1-0.5-2.2-1.6l-1.6-1.7l-41.8,60.5h7.1l-45.6,62.7l47.9,67.6 c-12.6,0-28.6,0-32.5,0l-31.3-44.5l-33,45.1h-8.8l-46.2,67.7l1.6,1.1c19.8,14.3,55,24.8,85.8,24.8c87.5,0,159-70.9,159-158.9 C413.2,200.7,392.3,155.6,355.4,123.7z M348.8,286h44.5v16.5h-72.6v-31.4c0-6.6,3.9-13.2,11.5-20.4l21.5-16.5 c8.2-6.6,12.1-12.1,12.1-15.4V204c0-4.9-3.3-7.7-9.4-7.7c-5.5,0-8.2,2.2-8.2,7.1v11l-28,20.4v-23.7c0-19.2,12.1-29.1,36.3-29.1 c24.8,0,36.9,7.7,36.9,22.6v18.1c0,6.1-3.9,12.6-11.5,19.2l-21.5,16.5c-7.7,6.6-11.5,13.2-11.5,19.2L348.8,286z"></path> <path style="fill:#FFFFFF;" d="M338.9,112.2c-20.4-14.8-58.3-26.4-88-26.4c-87.4,0-158.9,71.5-158.9,159 c0,46.2,20.9,90.8,57.7,122.6c0.6,0.5,1.1,0.5,2.2,1.6l1.7,1.6l41.8-60.5h-7.2l45.7-62.7L186,179.8c12.6,0,28.6,0,32.4,0l31.4,44.6 l32.4-44.6h8.2l49-66L338.9,112.2z M176.1,301.9L176.1,301.9h-34.7v-97.3c0-7.1-3.8-10.4-11.6-10.4h-7.2v-13.2h27.5 c17.1,0,25.8,8.8,25.8,26.4C176.1,207.3,176.1,301.9,176.1,301.9z"></path> </svg> 