<?xml version="1.0" encoding="UTF-8"?> <!-- Generator: Adobe Illustrator 24.3.0, SVG Export Plug-In . SVG Version: 6.00 Build 0) --> <svg xmlns="http://www.w3.org/2000/svg" xmlns:xlink="http://www.w3.org/1999/xlink" version="1.1" id="Layer_1" x="0px" y="0px" viewBox="0 0 500 500" style="enable-background:new 0 0 500 500;" xml:space="preserve"> <g> <path style="fill:#FFFFFF;" d="M249.2,80.1c-10.9,0-19.3-9-19.3-19.3c0-10.9,9-19.3,19.3-19.3c10.9,0,19.3,9,19.3,19.3 C268.4,71.8,259.5,80.1,249.2,80.1z M249.2,51.9c-5.1,0-9,3.9-9,9s3.9,9,9,9c5.1,0,9-3.9,9-9C258.2,55.7,254.3,51.9,249.2,51.9z"></path> <g> <rect x="412.4" y="235" style="fill:#FFFFFF;" width="26.3" height="26.3"></rect> <path style="fill:#FFFFFF;" d="M439.4,262h-28.3v-28.3h28.3V262z M413,260.7h25.1v-25.1H413V260.7z"></path> </g> <path style="fill:#FFFFFF;" d="M431.7,225.4h-11.6c0-88-72-160-160-160V54.4C355.2,54.4,431.7,130.9,431.7,225.4z"></path> </g> <g> <path style="fill:#FFFFFF;" d="M244,432.3c-10.9,0-19.3-9-19.3-19.3c0-10.9,9-19.3,19.3-19.3c10.9,0,19.3,9,19.3,19.3 C263.9,423.9,255,432.3,244,432.3z M244,404c-5.1,0-9,3.9-9,9s3.9,9,9,9c5.1,0,9-3.9,9-9C253.7,407.9,249.2,404,244,404z"></path> <g> <rect x="54.7" y="212.9" style="fill:#FFFFFF;" width="26.3" height="26.3"></rect> <path style="fill:#FFFFFF;" d="M82.1,240.1H53.8v-28.3h28.3V240.1z M55.1,238.2h25.1v-25.1H55.1V238.2z"></path> </g> <path style="fill:#FFFFFF;" d="M232.5,419.4C138,419.4,61.5,343,61.5,248.5h11.6c0,88,72,160,160,160v10.9H232.5z"></path> </g> <path style="fill-rule:evenodd;clip-rule:evenodd;fill:#FFFFFF;" d="M289.7,285.8c5.8,8.4,8.4,21.2,9.6,31.5v2.6l-2.6,1.3 c-13.5,7.7-28.9,11.6-45,12.2l-10.9,0.6l7.7-7.7c12.9-12.2,23.8-25.7,33.4-40.5l3.2-5.1L289.7,285.8z M227.3,331.4 c-19.3-4.5-37.3-14.8-50.8-28.9l-3.9-3.9c34.1-16.7,68.8-28.3,104.7-21.2l-3.9,5.8c-12.2,18-26.3,34.1-43.1,48.2l-1.3,1.3 L227.3,331.4z M307,307c-1.9-10.9-5.8-23.8-14.1-31.5l-2.6-1.9l1.3-3.2c2.6-3.9,4.5-8.4,6.4-12.9l1.9-3.9l3.9,2.6 c10.9,6.4,21.8,14.8,29.6,24.4l1.9,1.9l-1.3,2.6c-5.8,9-12.2,17.4-20.6,24.4l-5.8,4.5L307,307z M305.1,242.1c1.9-4.5,3.2-9,4.5-13.5 l1.3-3.9l3.9,0.6c9.6,1.9,19.3,1.9,28.9,0.6l4.5-0.6v4.5c0,1.3,0,3.2,0,4.5c0,10.9-1.9,21.8-5.8,32.1l-1.9,6.4l-4.5-4.5 c-8.4-8.4-18.6-16.1-28.9-21.8l-3.2-1.9L305.1,242.1z M313.4,211.9c2.6-12.2,3.9-25.1,4.5-37.9V163l7.1,8.4 c9.6,11.6,16.7,25.7,20.6,40.5l1.3,4.5l-4.5,0.6c-8.4,1.3-17.4,1.9-25.7,0l-3.9-0.6L313.4,211.9z M283.2,191.3 c-7.1-9-14.1-17.4-22.5-25.1c-14.1-12.9-25.7-21.8-46.3-25.7l14.1-3.2c7.1-1.3,13.5-1.9,20.6-1.9c20.6,0,40.5,6.4,57.8,18.6l1.3,1.3 v1.9c1.3,16.1,0,32.8-3.2,48.8l-1.3,7.1C296.1,206.1,289.7,199,283.2,191.3z M154.1,206.1c7.1-23.8,23.1-44.3,45-57.2l1.3-0.6 c18-1.3,33.4,7.7,47.6,18.6c10.9,8.4,19.9,18.6,28.3,29.6c7.7,9.6,14.8,18.6,25.7,24.4l-0.6,3.2c-1.3,3.9-2.6,8.4-3.9,12.2l-1.3,4.5 l-4.5-1.9c-40.5-18.6-89.3-25.7-133.7-27.6h-5.1L154.1,206.1z M165.6,287.7c-10.3-16.1-15.4-34.1-15.4-52.7c0-3.2,0-7.1,0.6-10.3 l0.6-3.9h3.9c43.7,1.9,93.2,9,133.7,27.6l3.9,1.9l-1.9,3.9c-1.9,4.5-4.5,9-6.4,12.9l-1.3,2.6l-3.2-0.6c-34.7-9-77.1,4.5-108.6,20.6 l-3.2,1.9L165.6,287.7z"></path> </svg> 