<?xml version="1.0" encoding="UTF-8"?> <!-- Generator: Adobe Illustrator 24.3.0, SVG Export Plug-In . SVG Version: 6.00 Build 0) --> <svg xmlns="http://www.w3.org/2000/svg" xmlns:xlink="http://www.w3.org/1999/xlink" version="1.1" id="Layer_1" x="0px" y="0px" viewBox="0 0 500 500" style="enable-background:new 0 0 500 500;" xml:space="preserve"> <g> <path style="fill:#FFFFFF;stroke:#FFFFFF;stroke-width:1.9926;stroke-miterlimit:10;" d="M229,78.5v0.7c0,14,0,28.1,0,41.4 c-2,2-6,1.3-6.7,4.7h-0.7c-1.3,0-2,0-2.7,1.3l0,0c-0.7,0.7-0.7,0.7-1.3,1.3l0,0c-0.7,0.7-0.7,1.3-1.3,1.3c-1.3,2.7-3.3,4.7-1.3,7.4 c4,7.4,12,7.4,18.7,9.4c-0.7,2-1.3,4-1.3,6.7c0,10,0,20.7,0,30.7c0,2,0,4-0.7,6c-6-1.3-11.4-2.7-17.4-4c-4.7-2-10-4-15.4-4.7v-0.7 c2-2,2-4.7,2-7.4c0-30.1,0-60.2,0-90.2c4-1.3,8-2.7,11.4-4C219,78.5,224.3,78.5,229,78.5z"></path> <path style="fill:#FFFFFF;stroke:#FFFFFF;stroke-width:1.9926;stroke-miterlimit:10;" d="M73.2,263.7c-0.7-12.7-1.3-26.1-2-38.8 c-0.7-15.4-1.3-30.7-2-45.5c-1.3-22.1,9.4-37.4,26.7-48.8c11.4-7.4,24.1-12,36.8-17.4c0,4,0,7.4,0,11.4c-2,0.7-3.3,1.3-4,4l0,0 c-0.7,0-1.3,0-1.3,0.7l0,0c-0.7,0-1.3,0.7-1.3,1.3c0,2.7-3.3,4.7,0,7.4c2.7,4,8,5.3,12,7.4c-1.3,1.3-2,2.7-2,4.7 c0,3.3,0,7.4,0,10.7c-2.7-0.7-6-1.3-8.7-2c-5.3-2-10.7-4-16-4.7c-4.7-1.3-9.4-3.3-14-4.7c-4-1.3-4.7,2-6,4c-0.7,2,1.3,2.7,3.3,3.3 c4.7,1.3,9.4,3.3,14.7,4c4.7,2.7,10,4,15.4,4.7c5.3,2.7,10.7,4,16.7,5.3c2,0.7,4,1.3,6,2c0,2-1.3,3.3-2.7,4.7 c-5.3,6-11.4,12-16.7,18c-1.3,1.3-2.7,2-2.7,4h-0.7c-0.7-0.7-1.3-0.7-2-0.7c-3.3-1.3-7.4-2.7-10.7-3.3c-9.4-2-14,0-13.4,10 c0.7,10.7,0.7,21.4,1.3,31.4c0,1.3-0.7,2.7-2,3.3c-4.7,4.7-9.4,9.4-14,14.7C80.6,259,78.6,263,73.2,263.7z"></path> <path style="fill:#FFFFFF;stroke:#FFFFFF;stroke-width:1.9926;stroke-miterlimit:10;" d="M276.4,91.2c16,3.3,32.1,7.4,47.5,12 c-2.7,4-0.7,8.7-1.3,12.7c-0.7,4,1.3,4,4.7,3.3c7.4-1.3,14-1.3,21.4,0c5.3,0.7,10,2,14,4.7c2.7,1.3,5.3,3.3,4.7,6.7 c-4-4.7-8.7-6.7-14-8.7c-10.7-2.7-22.1-2.7-32.8,0c-4.7,1.3-9.4,2.7-12.7,6.7c-2,2-3.3,4-1.3,7.4c0,2,2,3.3,3.3,4c4,2,8,4,12.7,4.7 c0,12,0,23.4,0,35.4c-13.4,8-28.1,14-43.4,16c0-17.4,0-35.4,0-52.8c0-2,0.7-4.7-2.7-4.7c0.7-0.7,1.3-2,1.3-2.7c2-2.7,0-4.7-1.3-6.7 c1.3-2.7-1.3-1.3-2-2l-0.7-0.7c0-0.7,0-0.7,0-1.3c2-1.3,2-4,2-6C276.4,110.6,276.4,100.6,276.4,91.2z"></path> <path style="fill:#FFFFFF;stroke:#FFFFFF;stroke-width:1.9926;stroke-miterlimit:10;" d="M424.8,147.4c-0.7,0-0.7,0-1.3,0 C423.5,147.4,424.2,147.4,424.8,147.4c0-1.3-0.7-2-0.7-2.7c0-0.7,0-0.7-0.7-1.3l0,0l0,0l0,0l0,0l0,0l0,0c-2.7-10-10-15.4-19.4-18 c6.7,6.7,6.7,10-2.7,15.4c-9.4,5.3-19.4,10-28.7,15.4c-5.3,2.7-11.4,6-16.7,8.7c-10.7,5.3-22.1,10.7-32.8,16.7 c-13.4,8-28.1,14-43.4,16c-5.3,1.3-10.7,1.3-16,1.3c0.7,4-4,6.7-4,10.7c8.7,4,15.4,10,20.1,18.7c4,5.3,6,11.4,6,18 c0,10,0,20.1,0,30.1s0,20.1,0,30.1c0,5.3,0,10,0,15.4c2-0.7,6-4,8-8c-2,3.3-5.3,7.4-8,8c0,9.4,0,19.4,0,28.7 c1.3,1.3,0.7,3.3,0.7,5.3c0,9.4,0.7,18.7,0,28.1c-1.3,13.4-0.7,26.1-0.7,39.4c0,10-8.7,19.4-19.4,21.4c-2.7,0.7-4.7,0.7-6.7,2 c4,0.7,8,2,11.4,2.7c16,2,31.4,0,44.8-10c2-1.3,4-2.7,6-4c27.4-22.1,54.1-44.1,82.2-66.2c10-8,15.4-18,16.7-30.1 c2.7-18.7,2-37.4,2.7-56.1c1.3-33.4,2-66.8,2.7-100.3C425.5,169.4,426.8,158.1,424.8,147.4z M402.1,337.2c-2.7,4-6,7.4-10,9.4 c-2,2-3.3,3.3-5.3,5.3c-4.7,3.3-6,2.7-6.7-2.7c-1.3-10.7-3.3-20.7-5.3-31.4c0-0.7-0.7-1.3-0.7-2c-8,6-16,11.4-23.4,17.4 c-1.3,1.3-2,2.7-2.7,4c-2.7,14.7-5.3,28.7-7.4,43.4c-0.7,5.3-3.3,10-8,13.4c-3.3,2.7-6.7,5.3-10,8c-1.3,1.3-2.7,2.7-4.7,1.3 c-2-1.3-1.3-3.3-1.3-4.7c1.3-6.7,2.7-14,4-20.7c4-18.7,8-38.1,10.7-57.5c1.3-6.7,2.7-14,4-20.7c2.7-12.7,4.7-26.1,7.4-39.4 c2.7-12,4.7-24.7,7.4-36.8c0.7-6.7,4.7-10.7,10-13.4c4-2.7,7.4-4.7,12-4.7c4.7,0,6.7,2,7.4,6c2.7,16.7,6,33.4,8.7,49.5 c4,21.4,8,42.8,12,63.5C400.8,328.5,401.4,332.5,402.1,337.2c1.3-1.3,1.3-2,1.3-3.3C403.4,334.5,403.4,335.9,402.1,337.2z M416.8,144c-0.7,0-1.3,0.7-2,0.7C415.5,144,416.1,144,416.8,144z"></path> <path style="fill:#FFFFFF;stroke:#FFFFFF;stroke-width:1.9926;stroke-miterlimit:10;" d="M202.2,82.5c0,30.1,0,60.2,0,90.2 c0,2.7,0.7,5.3-2,7.4c-6.7-1.3-12.7-4-19.4-4c-0.7-2-2.7-2-4-2.7c-4.7-2-10-3.3-15.4-4.7c0-7.4-0.7-14,0.7-21.4 c2.7-0.7,6-0.7,8.7-1.3c6.7-2,13.4-3.3,16.7-9.4c2.7-2,0-4,0-5.3c-0.7-0.7-0.7-0.7-1.3-1.3l0,0c0-1.3-0.7-2-2-2l0,0 c0-0.7-0.7-0.7-1.3-0.7l0,0c-0.7,0-0.7-0.7-1.3-0.7l0,0c-2.7-4-8-4-11.4-6c0.7-2,1.3-3.3,0.7-5.3c0-6.7,0.7-12.7-0.7-19.4 C182.2,91.2,191.5,85.9,202.2,82.5z"></path> <path style="fill:#FFFFFF;stroke:#FFFFFF;stroke-width:1.9926;stroke-miterlimit:10;" d="M276.4,91.2c0,9.4,0,18.7,0,28.1 c0,2,0,4.7-2,6c-7.4-4.7-15.4-6-24.1-6.7c-7.4-0.7-14,0.7-21.4,2c0-14,0-28.1,0-41.4C245,82.5,261.1,87.2,276.4,91.2z"></path> <path style="fill:#FFFFFF;stroke:#FFFFFF;stroke-width:1.9926;stroke-miterlimit:10;" d="M403.4,125.3c6.7,6.7,6.7,10-2.7,15.4 c-9.4,5.3-19.4,10-28.7,15.4c-5.3,2.7-11.4,6-16.7,8.7c0-6.7,0-13.4,0-20.1c4.7-2,9.4-3.3,12-8c1.3-0.7,0.7-2,1.3-3.3 c0.7-0.7,0.7-1.3-0.7-2l0,0c0-4-2.7-5.3-4.7-6.7c-4.7-2.7-9.4-4-14-4.7c0.7-3.3-1.3-6.7,1.3-10C368,114.6,386.1,118.6,403.4,125.3z "></path> <path style="fill:#FFFFFF;stroke:#FFFFFF;stroke-width:1.9926;stroke-miterlimit:10;" d="M77.2,344.5c-0.7-7.4-1.3-14.7-1.3-22.1 c-0.7-7.4-0.7-14-0.7-21.4c2,0,3.3-1.3,4.7-2.7c6-6,12-12.7,18-18.7c2-2,3.3-4,2.7-6.7c0,0.7,0.7,0.7,0.7,1.3 c0.7,15.4,1.3,31.4,2,46.8c-5.3,0.7-7.4,5.3-10,8.7C88.6,335.2,83.9,341.2,77.2,344.5z"></path> <path style="fill:#FFFFFF;stroke:#FFFFFF;stroke-width:1.9926;stroke-miterlimit:10;" d="M101.3,273c0,2.7-0.7,4.7-2.7,6.7 c-6,6-12,12.7-18,18.7c-2,2-3.3,3.3-5.3,2.7c-0.7-12.7-1.3-24.7-2-37.4c4.7-0.7,7.4-4.7,10-8c4.7-5.3,9.4-10,14-14.7 c1.3-1.3,2-2,2-3.3c0,0.7,0.7,2,0.7,2.7C100.6,251,100.6,262.3,101.3,273z"></path> <path style="fill:#FFFFFF;stroke:#FFFFFF;stroke-width:1.9926;stroke-miterlimit:10;" d="M104.7,346.5c-4,1.3-6,4.7-8.7,7.4 c-4.7,4.7-9.4,10-13.4,14.7c-4-7.4-4.7-15.4-5.3-24.1c6.7-3.3,10.7-9.4,16-14.7c3.3-3.3,5.3-7.4,10-8.7 C104,329.8,105.3,338.5,104.7,346.5z"></path> <path style="fill:#FFFFFF;stroke:#FFFFFF;stroke-width:1.9926;stroke-miterlimit:10;" d="M172.2,95.2c1.3,6.7,0.7,12.7,0.7,19.4 c0,2,0,4-0.7,5.3c-13.4-2-26.7-2-39.4,3.3c0-4,0-7.4,0-11.4C146.1,107.3,159.5,101.2,172.2,95.2z"></path> <path style="fill:#FFFFFF;stroke:#FFFFFF;stroke-width:1.9926;stroke-miterlimit:10;" d="M350,110.6c-2.7,2.7-0.7,6.7-1.3,10 c-7.4-1.3-14-1.3-21.4,0c-3.3,0.7-5.3,0-4.7-3.3c0.7-4-1.3-8.7,1.3-12.7C332.6,106.6,341.3,107.3,350,110.6z"></path> <path style="fill:#FFFFFF;stroke:#FFFFFF;stroke-width:1.9926;stroke-miterlimit:10;" d="M423.5,144c0-0.7,0-0.7-0.7-1.3 C423.5,143.3,423.5,144,423.5,144z"></path> <path style="fill:#FFFFFF;stroke:#FFFFFF;stroke-width:1.9926;stroke-miterlimit:10;" d="M279.1,197.5c-5.3,1.3-10.7,1.3-16,1.3 c-10-2-20.1-4.7-30.1-8.7c1.3-2,0.7-4,0.7-6c0-10,0-20.7,0-30.7c0-2,0-4.7,1.3-6.7c14.7,1.3,28.7,2,41.4-7.4 c3.3,0.7,2.7,2.7,2.7,4.7C279.1,162.1,279.1,179.4,279.1,197.5z"></path> <path style="fill:#FFFFFF;stroke:#FFFFFF;stroke-width:1.9926;stroke-miterlimit:10;" d="M233,189.5c9.4,4,19.4,6.7,30.1,8.7 c0.7,4-4,6.7-4,10.7c-8.7-3.3-18-6.7-26.7-8.7c-6-2-12.7-4.7-19.4-6v-0.7c-0.7-3.3,3.3-4.7,2.7-8C221.6,186.8,227,188.1,233,189.5z "></path> <path style="fill:#FFFFFF;stroke:#FFFFFF;stroke-width:1.9926;stroke-miterlimit:10;" d="M180.9,176.1c6.7,0,12.7,3.3,19.4,4v0.7 c-2,2-4,4.7-4,7.4c-0.7,0-1.3,0-2,0c-5.3-2.7-10.7-4-16-6C178.2,180.1,180.9,178.8,180.9,176.1z"></path> <path style="fill:#FFFFFF;stroke:#FFFFFF;stroke-width:1.9926;stroke-miterlimit:10;" d="M196.2,188.8c0-3.3,2-5.3,4-7.4 c5.3,0.7,10.7,2.7,15.4,4.7c0,3.3-3.3,4.7-2.7,8C206.9,192.8,201.6,190.1,196.2,188.8z"></path> <path style="fill:#FFFFFF;stroke:#FFFFFF;stroke-width:1.9926;stroke-miterlimit:10;" d="M274.4,127.3c-17.4-8-34.8-8-52.1-1.3 c0.7-4,4.7-2.7,6.7-4.7c7.4-1.3,14-2.7,21.4-2c8.7,0.7,16.7,2,24.1,6.7C274.4,126.6,274.4,126.6,274.4,127.3z"></path> <path style="fill:#FFFFFF;stroke:#FFFFFF;stroke-width:1.9926;stroke-miterlimit:10;" d="M222.3,126c-0.7,0.7-1.3,1.3-2.7,1.3 C220.3,126,221,126,222.3,126z"></path> <path style="fill:#FFFFFF;stroke:#FFFFFF;stroke-width:1.9926;stroke-miterlimit:10;" d="M219.6,127.3c0,0.7-0.7,0.7-1.3,1.3 C219,128,219,127.3,219.6,127.3z"></path> <path style="fill:#FFFFFF;stroke:#FFFFFF;stroke-width:1.9926;stroke-miterlimit:10;" d="M219,128c-0.7,0.7-0.7,1.3-1.3,1.3 C218.3,128.6,218.3,128.6,219,128z"></path> <path style="fill:#FFFFFF;stroke:#FFFFFF;stroke-width:1.9926;stroke-miterlimit:10;" d="M178.2,182.8c5.3,2,11.4,3.3,16,6 c-1.3,4-4,6.7-6.7,9.4c-10,10-20.1,20.7-29.4,31.4c-2.7,2.7-4.7,6-8.7,6.7c0-4-0.7-8-0.7-12.7c0-6-1.3-10.7-6.7-14.7 c-1.3-2.7-4.7-4-7.4-4.7c-3.3-1.3-6.7-2-10-4c0-2,1.3-3.3,2.7-4c5.3-6,11.4-12,16.7-18c1.3-1.3,2.7-2.7,2.7-4.7 C157.5,176.1,168.2,179.4,178.2,182.8z"></path> <path style="fill:#FFFFFF;stroke:#FFFFFF;stroke-width:1.9926;stroke-miterlimit:10;" d="M125.4,200.2c3.3,2,6.7,2.7,10,4 c2.7,1.3,6,2,7.4,4.7c-6.7-2-12.7-4-19.4-6c-4.7-2-8.7-4-13.4-3.3c-5.3,0.7-8,2.7-7.4,8.7c0.7,12,1.3,24.1,2,36.1 c1.3,26.1,2.7,52.1,4,78.9c0.7,11.4,0,22.1,2,33.4c-0.7,0.7-1.3,1.3-2,0c-1.3-3.3-2.7-6-3.3-9.4c0.7-8.7-0.7-16.7-1.3-24.7 c-0.7-15.4-1.3-31.4-2-46.8c0-0.7-0.7-0.7-0.7-1.3c-0.7-10.7-0.7-22.1-1.3-32.8c0-0.7-0.7-2-0.7-2.7c-0.7-10.7-0.7-21.4-1.3-31.4 c-0.7-10,4-12,13.4-10c4,0.7,7.4,2,10.7,3.3c0.7,0.7,1.3,0.7,2,0.7C124.7,200.2,124.7,200.2,125.4,200.2z"></path> <path style="fill:#FFFFFF;stroke:#FFFFFF;stroke-width:1.9926;stroke-miterlimit:10;" d="M138.7,145.4c8,2.7,16,2,24.1,2 c-2,6.7-0.7,14-0.7,21.4c-5.3-0.7-10.7-3.3-16.7-4c-2-2.7-6-1.3-8.7-4c0-3.3,0-7.4,0-10.7C136.7,148,137.4,146,138.7,145.4z"></path> <path style="fill:#FFFFFF;stroke:#FFFFFF;stroke-width:1.9926;stroke-miterlimit:10;" d="M145.4,164.7c6,0.7,10.7,3.3,16.7,4 c5.3,1.3,10,3.3,15.4,4.7c1.3,0.7,3.3,0,4,2.7c0,2.7-2.7,4-2.7,6.7c-10-3.3-20.7-6.7-30.7-9.4c-2-0.7-4-1.3-6-2 C141.4,168.1,144.1,166.7,145.4,164.7z"></path> <path style="fill:#FFFFFF;stroke:#FFFFFF;stroke-width:1.9926;stroke-miterlimit:10;" d="M110,160.7c-5.3,0-10-2.7-14.7-4 c-2,0-4.7-0.7-3.3-2.7c0.7-2,2-5.3,6-4c4.7,1.3,9.4,3.3,14,4.7C112,156.7,109.3,158.1,110,160.7z"></path> <path style="fill:#FFFFFF;stroke:#FFFFFF;stroke-width:1.9926;stroke-miterlimit:10;" d="M145.4,164.7c-1.3,2-4,4-4,6.7 c-5.3-1.3-11.4-3.3-16.7-5.3c0-2.7,2.7-4,2.7-6.7c2.7,0.7,6,1.3,8.7,2C138.7,163.4,142.8,162.1,145.4,164.7z"></path> <path style="fill:#FFFFFF;stroke:#FFFFFF;stroke-width:1.9926;stroke-miterlimit:10;" d="M128,158.7c0,2.7-2.7,4-2.7,6.7 c-5.3-0.7-10.7-2-15.4-4.7c-0.7-2.7,2.7-4,2-6.7C117.4,155.4,122.7,156.7,128,158.7z"></path> <path style="fill:#FFFFFF;stroke:#FFFFFF;stroke-width:1.9926;stroke-miterlimit:10;" d="M124,200.2c-0.7,0-1.3,0-2-0.7 C122.7,199.5,123.4,199.5,124,200.2z"></path> <path style="fill:#FFFFFF;stroke:#FFFFFF;stroke-width:1.9926;stroke-miterlimit:10;" d="M128.7,128c0,0.7-0.7,0.7-1.3,0.7 C128,128,128,128,128.7,128z"></path> <path style="fill:#FFFFFF;stroke:#FFFFFF;stroke-width:1.9926;stroke-miterlimit:10;" d="M128,128.6c-0.7,0.7-0.7,0.7-1.3,1.3 C126.7,129.3,127.4,128.6,128,128.6z"></path> <path style="fill:#FFFFFF;stroke:#FFFFFF;stroke-width:1.9926;stroke-miterlimit:10;" d="M355.3,144.7c0,6.7,0,13.4,0,20.1 c-10.7,5.3-22.1,10.7-32.8,16.7c0-12,0-23.4,0-35.4C333.9,147.4,344.6,147.4,355.3,144.7z"></path> <path style="fill:#FFFFFF;stroke:#FFFFFF;stroke-width:1.9926;stroke-miterlimit:10;" d="M277.1,130c-0.7-0.7-1.3-1.3-2-2 C276.4,128,278.4,127.3,277.1,130z"></path> <path style="fill:#FFFFFF;stroke:#FFFFFF;stroke-width:1.9926;stroke-miterlimit:10;" d="M187.5,130c-0.7-0.7-1.3-1.3-2-2 C186.9,128,187.5,128.6,187.5,130z"></path> <path style="fill:#FFFFFF;stroke:#FFFFFF;stroke-width:1.9926;stroke-miterlimit:10;" d="M184.9,127.3c-0.7,0-1.3,0-1.3-0.7 C184.2,126.6,184.2,126.6,184.9,127.3z"></path> <path style="fill:#FFFFFF;stroke:#FFFFFF;stroke-width:1.9926;stroke-miterlimit:10;" d="M185.5,128c-0.7,0-1.3,0-1.3-0.7 C185.5,127.3,185.5,127.3,185.5,128z"></path> <path style="fill:#FFFFFF;stroke:#FFFFFF;stroke-width:1.9926;stroke-miterlimit:10;" d="M188.9,131.3c-0.7-0.7-0.7-0.7-1.3-1.3 C188.2,130,188.2,130.6,188.9,131.3z"></path> <path style="fill:#FFFFFF;stroke:#FFFFFF;stroke-width:1.9926;stroke-miterlimit:10;" d="M368.7,134c0-0.7,0-1.3-0.7-2 C368.7,132,369.3,132.7,368.7,134z"></path> <path style="fill:#FFFFFF;stroke:#FFFFFF;stroke-width:1.9926;stroke-miterlimit:10;" d="M212.9,194.1c0,2-0.7,3.3-2,4 c-10,10.7-20.1,20.7-29.4,31.4c-8.7,9.4-17.4,18.7-26.1,27.4c-1.3,1.3-3.3,2.7-5.3,3.3c0-8-0.7-16.7-0.7-24.7c4-0.7,6-4,8.7-6.7 c9.4-10.7,19.4-21.4,29.4-31.4c2.7-2.7,5.3-5.3,6.7-9.4c0.7,0,1.3,0,2,0c5.3,1.3,10.7,4,16,4.7 C212.9,193.5,212.9,194.1,212.9,194.1z"></path> <path style="fill:#FFFFFF;stroke:#FFFFFF;stroke-width:1.9926;stroke-miterlimit:10;" d="M369.3,276.4c-0.7-2.7-0.7-6-1.3-8.7 c-1.3-8-2.7-15.4-4-23.4c-3.3,1.3-1.3,3.3-2,5.3c-0.7,2-0.7,4-1.3,6c0,0.7,0,1.3,0,2.7c-2,10-3.3,19.4-5.3,29.4c0,1.3-2,4,0,4.7 c2,0.7,3.3-1.3,4.7-2c2-1.3,4-2.7,5.3-3.3C369.3,283.7,370.7,280.4,369.3,276.4z"></path> <g> <path style="fill:#FFFFFF;stroke:#FFFFFF;stroke-width:1.9926;stroke-miterlimit:10;" d="M285.8,355.9c0-1.3,0.7-3.3-0.7-4.7 c-4,2-6.7,5.3-10,8.7c-8.7,9.4-17.4,18.7-26.1,28.1c-0.7,0.7-2,1.3-3.3,2c2,4.7,4.7,9.4,6.7,14c0.7,2,2,4,0.7,6 c-1.3,2-4,0.7-6,0.7c-3.3,0-5.3-2.7-8.7-2.7c-3.3,6-8.7,10-13.4,15.4c-2,2.7-6,4.7-6.7,8c13.4,4.7,26.7,10.7,40.8,14 c2-0.7,4.7-1.3,6.7-2c10-2,18.7-10.7,18.7-20.7c0.7-12.7,0-26.1,0.7-38.8C285.8,374,285.8,365.3,285.8,355.9z"></path> <path style="fill:#FFFFFF;stroke:#FFFFFF;stroke-width:1.9926;stroke-miterlimit:10;" d="M225,422.1c4.7-5.3,9.4-9.4,13.4-15.4 c-7.4-2.7-14-5.3-21.4-8c-6-2-11.4-5.3-14.7-11.4c-2.7-4.7-4.7-10-7.4-14.7c-6.7-15.4-14.7-29.4-22.1-44.8 c-2.7-6.7-6-13.4-8.7-19.4c-2-3.3-3.3-6.7-4.7-10c-3.3-2.7-1.3-6.7-2-9.4c6-12,15.4-21.4,22.7-32.8c4.7-7.4,10-14.7,15.4-22.1 c2.7-3.3,5.3-4.7,9.4-3.3c3.3,0,6.7,1.3,10,2.7c8.7,2.7,17.4,5.3,26.1,8c3.3,0.7,6,2.7,8,5.3c-0.7,2-2,4-3.3,5.3 c-12,14.7-24.1,29.4-36.1,44.1c-1.3,2-3.3,3.3-3.3,6l0,0c-0.7,3.3,0.7,8.7,2,12c4.7,9.4,9.4,18,13.4,26.7 c3.3,6.7,6.7,12.7,10,19.4l0,0c4.7,9.4,9.4,18.7,14,28.1c1.3,0,2.7-0.7,3.3-2c8.7-9.4,17.4-18.7,26.7-28.1c3.3-3.3,6-6.7,10-8.7 c0-9.4,0-19.4,0-28.7c0-5.3,0-10,0-15.4h-0.7c0-9.4,0-18.7,0-27.4c0-10,0-20.1,0-30.1c0-6.7-1.3-15.4-5.3-20.7 c-4.7-8.7-11.4-14-20.1-18.7c-8.7-3.3-18-6.7-26.7-8.7l0,0c-6-2-12.7-4.7-19.4-6c0,2-0.7,3.3-2,4c-10,10.7-20.1,20.7-29.4,31.4 c-8.7,9.4-17.4,18.7-26.1,27.4c-1.3,1.3-3.3,2.7-5.3,3.3c0,8,0.7,15.4,0.7,23.4c0.7,20.1,2,40.8,3.3,60.8c0,5.3,0.7,10.7,0.7,16 c0.7,9.4-4.7,12.7-13.4,10c-4-1.3-7.4-2.7-11.4-4c-3.3-1.3-6.7-2.7-10-4c-4.7-1.3-9.4-2-11.4-7.4c-0.7,0.7-1.3,1.3-2,0 c-1.3-3.3-2.7-6-3.3-9.4c-4,1.3-6,4.7-8.7,7.4c-4.7,4.7-9.4,10-13.4,14.7c0,0.7,0,1.3,0.7,2c5.3,12,15.4,17.4,27.4,20.7 c16,6,32.8,12.7,48.8,18c6,2,11.4,4,17.4,6c13.4,4.7,26.7,9.4,40.8,14.7C219,426.8,222.3,424.8,225,422.1z M156.8,287.1 c0-0.7,0-1.3,0-2C156.8,285.7,156.8,286.4,156.8,287.1z M222.3,232.2c-4-1.3-8-2.7-12-4l0,0C213.6,229.6,217.6,230.9,222.3,232.2 c2.7,0.7,5.3,1.3,8,2C227.6,233.6,225,232.9,222.3,232.2z M231.7,202.2v-0.7C232.3,201.5,232.3,201.5,231.7,202.2z M231.7,202.8 c0,0.7-0.7,0.7-0.7,1.3C231,203.5,231,203.5,231.7,202.8z"></path> </g> </g> </svg> 