<?xml version="1.0" encoding="UTF-8"?> <!-- Generator: Adobe Illustrator 24.3.0, SVG Export Plug-In . SVG Version: 6.00 Build 0) --> <svg xmlns="http://www.w3.org/2000/svg" xmlns:xlink="http://www.w3.org/1999/xlink" version="1.1" id="Layer_1" x="0px" y="0px" viewBox="0 0 500 500" style="enable-background:new 0 0 500 500;" xml:space="preserve"> <g> <path style="fill:#FFFFFF;" d="M348.7,142c-6.4,5.6-11.2,10.4-16.8,14c-2.4,1.6-6.4,1.2-9.2,0.4c-80.5-23.6-159.4-14.8-237.1,12.8 c-2.4,0.8-4.4,2-6.8,3.2c0.4,2.4,0.8,4.8,0.8,7.2c0,7.2-3.6,13.6-10.4,14.4c-5.2,0.4-13.2-1.6-15.6-5.6c-2.8-4-2.4-12,0-16.8 c2.8-6.4,10.8-8.4,16.8-4.8c6.4,3.6,10.8,1.2,16-1.6c39.6-20.4,82.5-28.4,126.5-32.8c11.2-1.2,22.4-2.8,34-3.2 c31.6-1.2,62.5,4.4,93.7,10C341.9,140,344.3,140.8,348.7,142z"></path> <path style="fill:#FFFFFF;" d="M82,285c-12-0.4-23.2,0-34-2c-18.8-3.2-28-18.8-20.8-36.8c4-10,13.6-13.2,23.2-14.4 c8.4-0.8,16.8-0.4,24.8-0.4c5.6,0,11.6,0.4,17.2-0.4c7.2-0.8,9.2,2,9.2,8.8c-0.4,14.8-0.4,29.6,0,44.5c0,8.8-4,14.4-11.6,17.2 c-8.4,2.8-17.2,4.8-26,5.6c-10.4,0.8-20.8,0.4-31.6,0c-2,0-4-2-6-2.8c1.2-2,2.4-4.8,4-5.6c3.6-1.6,7.6-2.4,11.6-2.4 c9.6-0.4,19.2,0,28.8-0.8C77.2,295,82.8,293,82,285z M64.4,274.2c15.2,0,18.4-2.4,18.4-16c0-14.4-2.8-17.2-18-17.2 c-14.4,0-18,2.8-18.4,14.4C46,272.2,48,274.2,64.4,274.2z"></path> <path style="fill:#FFFFFF;" d="M194.2,285c-1.6,0.4-2.8,1.6-4.4,1.6c-16.8-0.4-33.2,0-50.1-1.6c-16-1.6-22-8.4-22-20.8 c-0.4-22,3.6-28.8,21.2-31.6c11.6-1.6,23.2-1.6,34.8,0c6,0.8,12.4,4.8,16.4,9.2c3.2,3.6,4.4,10.4,3.2,15.2c-0.8,3.2-7.6,6-11.6,6.4 c-11.2,0.8-22.8,0-34,0.4c-3.2,0-6.4,2.8-9.6,4c3.2,2.8,6,7.2,9.2,7.6c11.2,1.2,22.8,0.8,34,1.2C186.9,276.2,192.6,277,194.2,285z M157.3,253c4,0,8,0.4,12,0c2,0,3.6-1.6,5.6-2.4c-1.2-2-1.6-4.8-3.2-6c-5.2-4.4-24.4-4.8-30-0.4c-1.6,1.2-2.8,4-2.8,6 c0,0.8,3.2,2.4,4.8,2.8C148.1,253.4,152.5,253,157.3,253z"></path> <path style="fill:#FFFFFF;" d="M437.6,266.6c-8.8,0-17.2,0-26,0c-5.2,0-7.2-2-7.2-7.2c0-3.2,0-6-0.4-9.2 c-1.2-15.2-1.2-15.2,14.4-18c12-2.4,24.4-4,36.4-6.4c6-1.2,9.6,0,10.8,6.4c1.6,8.4,3.6,16.8,5.2,25.2c1.2,6-1.2,9.2-8,9.2 C454.1,266.6,446.1,266.6,437.6,266.6z"></path> <path style="fill:#FFFFFF;" d="M211,257c0-6.4-0.4-13.2,0.4-19.2c0.4-2.4,4-6,6.4-6.4c14-0.4,28-0.8,42.5,0 c5.6,0.4,11.6,2,16.8,4.4c7.2,2.8,10.8,8.4,10.4,16.8c-0.4,8,0,16,0,24c0,4,2.4,10.4-5.6,10c-6.8-0.4-13.2-1.6-13.6-10.4 c0-7.2-0.4-14,0-21.2c0.4-8-3.6-12-11.2-12.8c-3.2-0.4-6-0.8-9.2-0.8c-14,0-17.2,3.2-17.2,17.6c0,6,0,12.4,0,18.4 c0,4,1.6,9.6-5.6,9.2c-6.4-0.4-13.6-0.4-13.6-10C211,270.2,211,263.4,211,257z"></path> <path style="fill:#FFFFFF;" d="M458.5,220.5c-18,3.2-35.6,6.4-53.7,8.8c-2,0.4-5.2-2-6-4c-3.6-6.8-6.8-14-10.8-22.4 c15.2-5.6,30-10.8,44.9-16c1.2-0.4,4,0.4,4.8,1.6c7.6,9.2,15.2,18.8,22.8,28.4C459.7,217.7,459.3,218.9,458.5,220.5z"></path> <path style="fill:#FFFFFF;" d="M428.8,182.5c-12.8,4.8-26,9.6-38.8,14c-2,0.8-5.6,0-7.6-1.2c-6-4.8-11.6-10-19.2-16.4 c12.4-7.2,22.4-13.2,32-18.4c1.2-0.8,3.2-0.8,4.4,0c10,6,20.4,12.4,30.4,18.4C429.6,180.1,429.2,181.3,428.8,182.5z"></path> <path style="fill:#FFFFFF;" d="M304.3,257.4c0-5.6,0-11.2,0-16.8c0-4-1.6-9.2,5.2-9.6c6.4,0,13.6,0.4,14,8.4 c0.8,14,0.4,28.4,0,42.5c0,1.6-4,4.4-6,4.4c-6,0-12.4-1.2-13.2-8.8C303.9,271,304.3,264.2,304.3,257.4L304.3,257.4z"></path> <path style="fill:#FFFFFF;" d="M360.3,261.4c0,5.2,0,10.4,0,15.6c0,4.4,1.2,10.4-6.4,9.6c-6.4-0.4-12.8-1.6-13.2-10 c-0.4-12,0-24,0-36c0-4.4-0.8-10,6.4-9.6c6.4,0.4,12.8,1.2,12.8,9.6C360.3,247.8,359.9,254.6,360.3,261.4 C359.9,261.4,359.9,261.4,360.3,261.4z"></path> <path style="fill:#FFFFFF;" d="M335.5,161.3c16-19.6,27.2-20.4,54.9-4c-10.4,6-20,11.6-29.6,16.8c-1.2,0.8-3.6-0.4-5.2-1.2 C349.5,169.3,342.7,165.3,335.5,161.3z"></path> <path style="fill:#FFFFFF;" d="M319.1,226.5c-8.4-1.6-15.2-2-14.8-10.4c0-2,4.4-4.8,6.4-4.8c6.4-0.4,12.8,1.6,12.4,9.6 C323.5,222.9,320.3,224.9,319.1,226.5z"></path> <path style="fill:#FFFFFF;" d="M355.9,226.1c-8.4-1.2-14.8-1.6-14.8-9.2c0-2,4-5.6,6.4-6c6-0.4,12,1.2,12,9.2 C359.5,222.5,356.7,224.5,355.9,226.1z"></path> </g> </svg> 