<?xml version="1.0" encoding="UTF-8"?> <!-- Generator: Adobe Illustrator 24.3.0, SVG Export Plug-In . SVG Version: 6.00 Build 0) --> <svg xmlns="http://www.w3.org/2000/svg" xmlns:xlink="http://www.w3.org/1999/xlink" version="1.1" id="Layer_1" x="0px" y="0px" viewBox="0 0 500 500" style="enable-background:new 0 0 500 500;" xml:space="preserve"> <g id="TIME_1_"> <g> <g> <path style="fill:#FFFFFF;" d="M102.8,367.8c-2.4-4.8-4.4-10.1-6.9-14.9c0,0-0.8-2.4-1.6-2.8c-0.4-1.6,1.6-2,1.6-2 c15.8-6.9,31.9-12.9,48.5-17.8c2-0.4,2,2.4,2.8,4.4c1.6,4.8,2.4,10.1,4,14.9c-3.6-2.8-8.1-4-12.5-2.4c-2,0.4-4.4,1.6-6.5,2 c0.8,3.6,2.4,6.9,3.6,10.5c0.8,3.6,4,4.4,4.4,4.4c-0.4,0.8-0.8,2.4-0.8,4.4c0,2,0.4,3.6,0.8,5.7c0.8,2.4,1.6,4.8,2.4,7.7 c0.4,0.8,0.8,1.6,1.6,2.4c2,4,6.1,6.1,6.9,6.1c0,0-6.5,2-11.7,4c-6.1,2.4-8.9,4.4-8.9,4.4s1.6-4.8,0-9.7c-1.6-3.6-2.4-6.5-4-10.1 c-0.4-2-1.6-3.6-2.8-4.8c-0.8-1.6-2.4-2.4-3.6-2.4c0.4,0,2-2.8,0.4-6.5s-2.4-6.9-4-10.1c-2.4,0.8-4.8,2-7.7,2.8 c-0.8,0.4-1.6,0.4-2.4,0.8c-0.4,0.4-1.6,0.8-2,1.6c-0.4,0.4-0.8,0.8-1.6,2c-0.4,0.4-0.4,1.6-0.8,2.4 C102.4,365.3,102.4,366.1,102.8,367.8z"></path> <path style="fill:#FFFFFF;" d="M184.8,381.9c0,0,0.4-0.4,0.8-1.6c0.4-0.8,0.8-2,0.8-3.6c0-0.8,0-2,0-2.8c0-0.8,0-2-0.4-2.8 c-0.4-2.8-0.8-6.1-1.6-8.9c-0.4-2-0.8-3.6-2-4.8c-0.8-1.6-2-2.4-2.4-3.6c0.4,0,2.4-3.6,1.6-6.5c-0.8-4.8-2-9.7-2.4-14.5 c-0.8-6.1-2.4-8.5-6.5-9.7c4-0.8,8.1-1.6,12.1-2.4c4-0.4,8.5-1.6,12.9-2c-1.6,0.8-2.4,2.4-2.8,4.4c-0.4,2-0.4,4-0.4,5.7 c0.4,4.8,1.6,10.5,2,15.8c0,2.4,2.8,6.1,3.6,5.7c-0.4,0.8-0.8,2.4-1.6,4c-0.4,2-0.4,3.6,0,5.7c0.4,2.8,0.8,6.1,0.8,8.9 c0.4,2,0.8,3.6,1.6,5.7c0.8,1.6,2,2.8,3.6,3.6c0,0-4,0.4-10.1,1.6C190.5,379.9,185.6,381.1,184.8,381.9z"></path> <path style="fill:#FFFFFF;" d="M226.4,315.7c6.9-0.4,14.1-0.4,21.8-0.4c2,0,2,0,4,0.4c2.8,0.8,4.8,4.8,5.7,6.5 c3.6,8.1,6.9,16.2,10.1,24.2c4.8-6.9,9.7-14.1,14.9-20.6c0.4-0.8,3.6-4,4.4-4.8c2-1.6,4.4-2,5.7-1.6c6.9,0.8,13.7,2,20.2,3.6 c-1.6,0.4-2.8,1.6-4.4,2.8c-0.8,1.6-2,3.6-2,4.8c-0.8,4.8-2,10.1-2.8,14.9c0,0.8-0.4,2-0.4,2.4c0,2.4,1.6,4.4,2,4.4 c-0.8,0.4-2,1.6-2.8,3.6c-0.8,1.6-1.6,3.6-2,4.8c-0.4,2.8-0.8,6.1-1.6,8.9c-0.4,2-0.4,3.6,0,5.7c0.4,2,0.8,3.6,2,4.4 c-6.9-1.6-13.7-2.4-20.6-3.6c1.6-0.4,2.4-2,3.6-3.6c1.2-1.6,1.6-3.6,2-5.7c1.6-10.1,2.8-20.2,4.4-30.3 c-9.7,12.1-18.2,25-25.8,38.4c-4.8-14.1-10.5-27.9-17-41.2c0,10.1-0.4,20.2-0.4,30.3c0,2,0.4,3.6,0.8,5.7c0.4,2,1.6,2.8,2.8,4 c-6.9,0-13.7,0-20.6,0c1.6-0.8,2.4-2,2.8-4s0.8-3.6,0.8-5.7c0-2.8,0-6.1,0-8.9c0-2-0.4-3.6-0.8-5.7c-0.4-1.6-1.6-2.8-2-3.6 c0.4,0,2.4-2,2.4-4.4c0-0.4,0-1.6,0-2.4c0-4.4,0-8.9-0.4-13.7c0-2.4-0.4-4.8-2-6.9C229.7,317.7,228.5,316.1,226.4,315.7z"></path> <path style="fill:#FFFFFF;" d="M339.1,329c4.4,1.6,10.5,2.8,18.2,5.7c11.7,4,23.8,8.9,34.7,14.1c-2.8,6.1-5.7,11.7-8.5,17.8 c-0.4-2.4-1.6-4-2.4-5.7s-2.4-2.4-4.4-3.6c-6.5-2.8-12.9-5.7-19.8-8.1c-0.8,2.8-2,6.1-3.6,8.9c6.1,2.4,12.5,4.4,18.6,7.7 c-1.6,3.6-2.8,7.7-4.8,10.9c-6.1-2.4-12.1-4.8-18.2-6.9c-0.8,2.8-2,5.7-2.8,8.5c5.7,2,11.7,4.4,17,6.9c2,0.8,4,0.8,6.1,0.4 c2.4-0.4,4.4-0.8,6.5-2.4c-1.6,2-2.4,4-3.6,6.5c-1.2,2.4-2.4,6.1-4,10.5c-0.8,2.8-4,1.6-6.1,0.4c-12.9-6.1-26.3-10.5-40-14.5 c1.6-0.4,6.1-1.6,8.5-7.7c0.8-2.8,2-5.7,2.4-8.5c0.4-2,0.8-3.6,0.8-5.7s-0.4-2.8-0.8-4c0.4,0,2.8-0.8,4-2.8 c0-0.4,0.4-1.6,0.8-2.4c1.6-4.4,2.8-9.7,4.4-14.1c0.4-2.4,0.8-4,0.4-6.5C343.2,331.8,341.1,330.2,339.1,329z"></path> </g> </g> </g> <g> <g> <linearGradient id="SVGID_4_" gradientUnits="userSpaceOnUse" x1="10.7037" y1="-224.469" x2="494.6686" y2="-224.469" gradientTransform="matrix(1 0 0 -1 0 -18)"> <stop offset="0" style="stop-color:#FBCA42"></stop> <stop offset="0.1485" style="stop-color:#D26D22"></stop> <stop offset="0.5024" style="stop-color:#F7CC24"></stop> <stop offset="0.5032" style="stop-color:#FFE8A6"></stop> <stop offset="0.683" style="stop-color:#FFDB3D"></stop> <stop offset="0.8207" style="stop-color:#FFFFFF"></stop> <stop offset="0.9972" style="stop-color:#FFDA66"></stop> </linearGradient> <path style="fill:url(#SVGID_4_);" d="M94.8,172.3c0,0,1.6-6.5,0.4-15.3c-2.8-21-19.4-23.4-26.3-22.6s-17.8,3.2-24.2,21.4 c-2,6.5-4.4,17.8-2,35.1c1.2,7.7,6.1,11.3,6.1,11.7c0,0.8-2.4,1.6-5.3,8.1c-1.6,4.4-2.8,17-0.4,29.5c2.4,13.7,5.3,27.1,14.5,34.3 c9.3,7.3,21.4,3.2,25.8,0.4c10.1-6.5,11.7-19.8,11.3-27.1C93.6,227.2,80.6,222,80.6,222s16.2-11.7,24.2,10.9 c1.2-0.4,7.3-0.8,8.9,5.3c-3.2,0-4.8,2.4-4.4,15.3c0.4,16.6-4.4,42-42,43.6c-42,2-44.8-63.4-46-68.7c-1.6-7.7-4-15.8-8.1-21.8 c-0.8-1.2-2.8-3.2-2.8-3.6s4.4-3.2,6.1-8.1c3.6-8.1,4.8-21.8,6.1-31.5c1.2-12.9,6.1-29.9,21.8-40.8c11.7-8.1,21-7.7,28.7-5.3 s15.8,6.9,21,13.3c5.7,7.3,6.9,6.1,11.3,2.4c2,3.6,3.6,5.7-0.4,12.1c-0.8,0.8,3.6,6.1,1.6,12.5C102.8,171.1,94.8,172.3,94.8,172.3 z"></path> <linearGradient id="SVGID_8_" gradientUnits="userSpaceOnUse" x1="10.7037" y1="-236.077" x2="494.6686" y2="-236.077" gradientTransform="matrix(1 0 0 -1 0 -18)"> <stop offset="0" style="stop-color:#FBCA42"></stop> <stop offset="0.1485" style="stop-color:#D26D22"></stop> <stop offset="0.5024" style="stop-color:#F7CC24"></stop> <stop offset="0.5032" style="stop-color:#FFE8A6"></stop> <stop offset="0.683" style="stop-color:#FFDB3D"></stop> <stop offset="0.8207" style="stop-color:#FFFFFF"></stop> <stop offset="0.9972" style="stop-color:#FFDA66"></stop> </linearGradient> <path style="fill:url(#SVGID_8_);" d="M140.8,268c-0.4,0.4-1.6,4.8-7.7,6.9c-10.9,3.2-14.5-0.8-14.5-1.2c3.2-4,4-10.1,5.7-15.3 c1.6-6.9,2-13.7,2.4-20.6c0-6.1,0-12.1-0.4-17.8c-0.4-4-1.2-6.9-1.6-8.9c-0.8-1.6-1.6-3.2-2-4c-0.8-0.8-1.2-1.6-2-2 c-1.2-0.8-1.2-1.2-1.2-1.6s0.4-0.8,0.8-1.2c0.4-0.4,1.2-1.2,2-2s1.6-2.4,2-4c2.4-7.3,2-15.8,2-23.4c-0.4-8.1-0.4-16.6-2.8-24.6 c-1.2-4.4-2.8-10.1-6.1-13.7c10.5-3.2,20.2,3.2,21.8,5.3c2.4-1.2,27.1-6.5,42.4,3.2c8.1,5.3,11.7,16.6,12.1,19.8 c0.4,3.6,0.4,5.3,1.2,7.3c1.2,4,4,7.3,4.4,7.7c0,0-1.6,0.8-3.6,4.4c-1.2,2-1.2,4.4-2.4,7.3c-3.6,9.7-14.5,13.3-17.4,13.3 c5.3,2,17.8,8.9,17.8,28.7c0,4.8-1.2,18.2,2,30.7c2.8,11.3,19,27.9,46.4,29.1c32.7,1.6,54.1-16.2,55.7-19.8 c5.3,8.5-2,18.6-8.5,19.8c-0.8,5.3-3.6,11.7-7.3,11.7c-0.4-2.8-2.8-7.3-12.1-4.8c-8.5,2-23.4,4-37.6,2 c-29.9-4-48.1-21.4-52.5-32.7c-6.1,1.6-9.3-2.4-9.3-3.6c6.5-2.4,8.5-18.6,5.7-35.1c-2-11.3-10.5-17-16.2-17.8 c-5.7-0.8-11.7-0.8-14.1-0.4c0,8.5-0.4,15.3-0.4,23.8c0,6.9,0.4,13.7,1.2,20.2c1.2,7.7,8.1,10.9,8.1,10.9S148.5,273.7,140.8,268z M159.8,156.1c-4.4-0.4-16.2,0.4-16.2,1.2c0.4,13.7,0.8,22.6,1.2,36.3c13.3,0.4,27.9,0,29.9-16.2 C176.8,165,171.1,156.9,159.8,156.1z"></path> <linearGradient id="SVGID_11_" gradientUnits="userSpaceOnUse" x1="10.7037" y1="-220.234" x2="494.6686" y2="-220.234" gradientTransform="matrix(1 0 0 -1 0 -18)"> <stop offset="0" style="stop-color:#FBCA42"></stop> <stop offset="0.1485" style="stop-color:#D26D22"></stop> <stop offset="0.5024" style="stop-color:#F7CC24"></stop> <stop offset="0.5032" style="stop-color:#FFE8A6"></stop> <stop offset="0.683" style="stop-color:#FFDB3D"></stop> <stop offset="0.8207" style="stop-color:#FFFFFF"></stop> <stop offset="0.9972" style="stop-color:#FFDA66"></stop> </linearGradient> <path style="fill:url(#SVGID_11_);" d="M269.2,257.1c-3.6,1.2-8.9,1.2-12.5-1.2c-3.2-2.4-4.4-6.1-4-8.1c4.4-0.8,8.1-1.6,8.1-1.6 s-2-14.9-6.9-31.1c0,0-8.9,1.2-14.1,0c-6.5,23.4-7.3,31.1-7.3,31.1s2.4,1.2,8.1,1.6c-3.2,6.9-8.5,10.5-13.3,8.9 c-13.7,10.1-23.4,0.4-23.4,0.4s8.9-1.6,15.8-20.6c5.7-16.2,5.3-19.8,5.7-23.4c-0.8-0.4-4-2-6.9-1.6c-4,0.8-5.3,3.6-3.2,5.7 c-10.1,4.4-17.4-10.5-8.5-17c7.3-5.7,15.3,0.4,21.4,2c2.8-10.1,4-15.8,6.9-25.8c1.6-5.7,2.8-11.3,2.8-17c0-4-2.4-10.5-5.3-14.5 c0,0,1.2-2,6.5-1.6c6.5,0.4,8.1,4.4,8.9,5.7c4.4-4.8,11.3-5.7,14.1-6.1c4.8-0.8,9.3,1.2,10.1,2c-2.4,4-4.4,8.9-4.4,14.9 c0,4.8,0.8,11.7,2,16.6c0.8,4.4,2,8.5,3.2,12.1c1.2,3.6,2.4,6.5,3.6,8.1s2,2.8,3.2,4c0.8,0.8,1.6,1.6,2.4,2 c0.4,0.4,0.8,0.8,0.8,1.2c0,0.4,0,0.8-0.4,1.2c-0.4,0.4-0.8,0.8-1.2,1.6c-1.2,1.2-2.4,4-2.4,8.5c0.4,8.5,0.4,17,3.6,24.6 c2.4,6.9,6.9,13.3,13.3,17.4C291.5,260.3,282.6,266,269.2,257.1z M252.7,208.6c0,0,4.8-5.7,4.8-12.1c0-5.7-4-11.3-10.5-11.3 c-7.3,0-10.9,5.7-10.5,12.1c0,4,2.4,6.9,4.4,9.3C247.4,207.8,252.7,208.6,252.7,208.6z"></path> <linearGradient id="SVGID_12_" gradientUnits="userSpaceOnUse" x1="10.7037" y1="-226.4245" x2="494.6686" y2="-226.4245" gradientTransform="matrix(1 0 0 -1 0 -18)"> <stop offset="0" style="stop-color:#FBCA42"></stop> <stop offset="0.1485" style="stop-color:#D26D22"></stop> <stop offset="0.5024" style="stop-color:#F7CC24"></stop> <stop offset="0.5032" style="stop-color:#FFE8A6"></stop> <stop offset="0.683" style="stop-color:#FFDB3D"></stop> <stop offset="0.8207" style="stop-color:#FFFFFF"></stop> <stop offset="0.9972" style="stop-color:#FFDA66"></stop> </linearGradient> <path style="fill:url(#SVGID_12_);" d="M387.6,240.5c1.6,10.5-2,19.4-6.9,23c7.7,5.3,4,14.1,0.8,17c0,0-7.7-8.1-40-16.2 c-18.6-4.8-23.8,1.2-29.9-5.7c-5.7,4-10.1,2.8-10.1,2.8s3.2-10.5,1.2-17c7.7-6.1,13.7-16.2,15.8-22.2c1.6-4.8,3.2-10.1,3.6-15.3 c0-1.2,0-2.4-0.4-3.6c-0.4-0.8-0.8-1.6-0.8-1.6s0.8-0.8,2-1.6c1.2-1.2,2.8-2.4,4.8-4.4s3.6-4.4,5.7-6.9c2-2.8,3.6-6.5,5.3-10.5 c1.6-4.4,6.9-20.2,6.9-20.2s-27.5-2.8-34.3,5.7c-8.5,10.1-7.7,16.6-6.9,21c-11.7,2.8-9.3-22.6-4.8-30.7c-4-8.1,4-13.7,4-13.7 s0.4,5.3,6.9,6.1c7.7,1.2,17-3.6,21.8-5.3c17.4-6.1,27.5-2.8,27.9,0.8c4.8-6.5,14.1-5.3,15.3-5.7c0,0-7.7,15.3-4.4,22.2 c-4.4,1.6-6.9,1.2-10.5,9.7c-3.2,6.9-11.3,27.1-11.7,32.3c0,1.2,0.4,2.8,1.2,5.3c0,0.4-1.6,1.2-3.6,3.2c-2.4,2.4-3.6,4-5.3,6.5 s-14.1,30.3-13.3,31.1c11.7-2.8,25.8,8.9,36.3,5.7c15.3-5.3,14.5-19.8,14.5-19.8S386,230,387.6,240.5z"></path> <linearGradient id="SVGID_13_" gradientUnits="userSpaceOnUse" x1="10.7037" y1="-221.6371" x2="494.6686" y2="-221.6371" gradientTransform="matrix(1 0 0 -1 0 -18)"> <stop offset="0" style="stop-color:#FBCA42"></stop> <stop offset="0.1485" style="stop-color:#D26D22"></stop> <stop offset="0.5024" style="stop-color:#F7CC24"></stop> <stop offset="0.5032" style="stop-color:#FFE8A6"></stop> <stop offset="0.683" style="stop-color:#FFDB3D"></stop> <stop offset="0.8207" style="stop-color:#FFFFFF"></stop> <stop offset="0.9972" style="stop-color:#FFDA66"></stop> </linearGradient> <path style="fill:url(#SVGID_13_);" d="M466.3,181.6c18.2-1.2,21-12.5,10.5-23.4c-10.1-10.5-13.3-15.8-17-22.6 c-2.4,8.5-10.9,34.3-13.7,48.5c-1.2,5.3-1.6,13.3-0.8,15.8c0.8,3.2,3.2,5.3,3.2,6.5c0,0.4-1.2,1.2-1.6,1.6 c-5.7,4-8.5,10.9-9.7,17.8c-1.2,7.3-0.8,14.9-0.8,22.2c0,9.7-0.4,20.2,1.2,29.9c1.2,8.1,2,16.6,7.7,21.8 c-12.1,2.8-23.8-8.9-26.7-15.3c-4.8,2.8-14.1,1.6-14.5,0.8c3.6-4.8,7.7-12.5,8.9-18.2c1.2-8.1,1.2-14.1,1.2-22.2 c0-6.5,0-14.9-1.2-21.4c-0.8-3.2-1.6-6.1-2.8-8.1c-1.2-2-2.4-3.6-3.2-4.8c-1.2-1.2-2.4-2.4-3.6-3.6s-2.8-2.4-2.8-3.2 s1.2-1.6,2.4-3.2c1.2-1.6,2-4.4,2-9.7c0-6.5-2-25.4-6.1-35.9c-3.2-7.3-7.7-14.1-14.1-18.6c0-0.4,3.6-6.1,7.7-8.1 c4.4-2.4,9.7-2,13.3,1.6c3.2-6.9,9.3-6.1,10.1-4.4c-1.6,4-2.4,7.7-2,16.2c0.4,11.7,2.8,25,4.4,36.8c0.8,7.3,6.9,21.8,7.3,21.8 c1.2,0,8.5-21.8,10.1-28.7c3.6-12.9,9.3-29.5,11.7-42.4c1.6-7.7-1.6-11.7-4-12.9c1.2-4.8,9.7-4,11.3-1.2 c2.8-8.1,12.9-8.1,15.8-6.1c-5.7,10.5,2,30.3,14.5,42.4c12.1,11.7,11.3,22.6,8.1,28.7C484.9,194.5,468,184,466.3,181.6z"></path> </g> <g> <path style="fill:#FFFFFF;" d="M94.8,172.3c0,0,1.6-6.5,0.4-15.3c-2.8-21-19.4-23.4-26.3-22.6s-17.8,3.2-24.2,21.4 c-2,6.5-4.4,17.8-2,35.1c1.2,7.7,6.1,11.3,6.1,11.7c0,0.8-2.4,1.6-5.3,8.1c-1.6,4.4-2.8,17-0.4,29.5c2.4,13.7,5.3,27.1,14.5,34.3 c9.3,7.3,21.4,3.2,25.8,0.4c10.1-6.5,11.7-19.8,11.3-27.1C93.6,227.2,80.6,222,80.6,222s16.2-11.7,24.2,10.9 c1.2-0.4,7.3-0.8,8.9,5.3c-3.2,0-4.8,2.4-4.4,15.3c0.4,16.6-4.4,42-42,43.6c-42,2-44.8-63.4-46-68.7c-1.6-7.7-4-15.8-8.1-21.8 c-0.8-1.2-2.8-3.2-2.8-3.6s4.4-3.2,6.1-8.1c3.6-8.1,4.8-21.8,6.1-31.5c1.2-12.9,6.1-29.9,21.8-40.8c11.7-8.1,21-7.7,28.7-5.3 s15.8,6.9,21,13.3c5.7,7.3,6.9,6.1,11.3,2.4c2,3.6,3.6,5.7-0.4,12.1c-0.8,0.8,3.6,6.1,1.6,12.5C102.8,171.1,94.8,172.3,94.8,172.3 z"></path> <path style="fill:#FFFFFF;" d="M140.8,268c-0.4,0.4-1.6,4.8-7.7,6.9c-10.9,3.2-14.5-0.8-14.5-1.2c3.2-4,4-10.1,5.7-15.3 c1.6-6.9,2-13.7,2.4-20.6c0-6.1,0-12.1-0.4-17.8c-0.4-4-1.2-6.9-1.6-8.9c-0.8-1.6-1.6-3.2-2-4c-0.8-0.8-1.2-1.6-2-2 c-1.2-0.8-1.2-1.2-1.2-1.6s0.4-0.8,0.8-1.2c0.4-0.4,1.2-1.2,2-2s1.6-2.4,2-4c2.4-7.3,2-15.8,2-23.4c-0.4-8.1-0.4-16.6-2.8-24.6 c-1.2-4.4-2.8-10.1-6.1-13.7c10.5-3.2,20.2,3.2,21.8,5.3c2.4-1.2,27.1-6.5,42.4,3.2c8.1,5.3,11.7,16.6,12.1,19.8 c0.4,3.6,0.4,5.3,1.2,7.3c1.2,4,4,7.3,4.4,7.7c0,0-1.6,0.8-3.6,4.4c-1.2,2-1.2,4.4-2.4,7.3c-3.6,9.7-14.5,13.3-17.4,13.3 c5.3,2,17.8,8.9,17.8,28.7c0,4.8-1.2,18.2,2,30.7c2.8,11.3,19,27.9,46.4,29.1c32.7,1.6,54.1-16.2,55.7-19.8 c5.3,8.5-2,18.6-8.5,19.8c-0.8,5.3-3.6,11.7-7.3,11.7c-0.4-2.8-2.8-7.3-12.1-4.8c-8.5,2-23.4,4-37.6,2 c-29.9-4-48.1-21.4-52.5-32.7c-6.1,1.6-9.3-2.4-9.3-3.6c6.5-2.4,8.5-18.6,5.7-35.1c-2-11.3-10.5-17-16.2-17.8 c-5.7-0.8-11.7-0.8-14.1-0.4c0,8.5-0.4,15.3-0.4,23.8c0,6.9,0.4,13.7,1.2,20.2c1.2,7.7,8.1,10.9,8.1,10.9S148.5,273.7,140.8,268z M159.8,156.1c-4.4-0.4-16.2,0.4-16.2,1.2c0.4,13.7,0.8,22.6,1.2,36.3c13.3,0.4,27.9,0,29.9-16.2 C176.8,165,171.1,156.9,159.8,156.1z"></path> <path style="fill:#FFFFFF;" d="M269.2,257.1c-3.6,1.2-8.9,1.2-12.5-1.2c-3.2-2.4-4.4-6.1-4-8.1c4.4-0.8,8.1-1.6,8.1-1.6 s-2-14.9-6.9-31.1c0,0-8.9,1.2-14.1,0c-6.5,23.4-7.3,31.1-7.3,31.1s2.4,1.2,8.1,1.6c-3.2,6.9-8.5,10.5-13.3,8.9 c-13.7,10.1-23.4,0.4-23.4,0.4s8.9-1.6,15.8-20.6c5.7-16.2,5.3-19.8,5.7-23.4c-0.8-0.4-4-2-6.9-1.6c-4,0.8-5.3,3.6-3.2,5.7 c-10.1,4.4-17.4-10.5-8.5-17c7.3-5.7,15.3,0.4,21.4,2c2.8-10.1,4-15.8,6.9-25.8c1.6-5.7,2.8-11.3,2.8-17c0-4-2.4-10.5-5.3-14.5 c0,0,1.2-2,6.5-1.6c6.5,0.4,8.1,4.4,8.9,5.7c4.4-4.8,11.3-5.7,14.1-6.1c4.8-0.8,9.3,1.2,10.1,2c-2.4,4-4.4,8.9-4.4,14.9 c0,4.8,0.8,11.7,2,16.6c0.8,4.4,2,8.5,3.2,12.1c1.2,3.6,2.4,6.5,3.6,8.1s2,2.8,3.2,4c0.8,0.8,1.6,1.6,2.4,2 c0.4,0.4,0.8,0.8,0.8,1.2c0,0.4,0,0.8-0.4,1.2c-0.4,0.4-0.8,0.8-1.2,1.6c-1.2,1.2-2.4,4-2.4,8.5c0.4,8.5,0.4,17,3.6,24.6 c2.4,6.9,6.9,13.3,13.3,17.4C291.5,260.3,282.6,266,269.2,257.1z M252.7,208.6c0,0,4.8-5.7,4.8-12.1c0-5.7-4-11.3-10.5-11.3 c-7.3,0-10.9,5.7-10.5,12.1c0,4,2.4,6.9,4.4,9.3C247.4,207.8,252.7,208.6,252.7,208.6z"></path> <path style="fill:#FFFFFF;" d="M387.6,240.5c1.6,10.5-2,19.4-6.9,23c7.7,5.3,4,14.1,0.8,17c0,0-7.7-8.1-40-16.2 c-18.6-4.8-23.8,1.2-29.9-5.7c-5.7,4-10.1,2.8-10.1,2.8s3.2-10.5,1.2-17c7.7-6.1,13.7-16.2,15.8-22.2c1.6-4.8,3.2-10.1,3.6-15.3 c0-1.2,0-2.4-0.4-3.6c-0.4-0.8-0.8-1.6-0.8-1.6s0.8-0.8,2-1.6c1.2-1.2,2.8-2.4,4.8-4.4s3.6-4.4,5.7-6.9c2-2.8,3.6-6.5,5.3-10.5 c1.6-4.4,6.9-20.2,6.9-20.2s-27.5-2.8-34.3,5.7c-8.5,10.1-7.7,16.6-6.9,21c-11.7,2.8-9.3-22.6-4.8-30.7c-4-8.1,4-13.7,4-13.7 s0.4,5.3,6.9,6.1c7.7,1.2,17-3.6,21.8-5.3c17.4-6.1,27.5-2.8,27.9,0.8c4.8-6.5,14.1-5.3,15.3-5.7c0,0-7.7,15.3-4.4,22.2 c-4.4,1.6-6.9,1.2-10.5,9.7c-3.2,6.9-11.3,27.1-11.7,32.3c0,1.2,0.4,2.8,1.2,5.3c0,0.4-1.6,1.2-3.6,3.2c-2.4,2.4-3.6,4-5.3,6.5 s-14.1,30.3-13.3,31.1c11.7-2.8,25.8,8.9,36.3,5.7c15.3-5.3,14.5-19.8,14.5-19.8S386,230,387.6,240.5z"></path> <path style="fill:#FFFFFF;" d="M466.3,181.6c18.2-1.2,21-12.5,10.5-23.4c-10.1-10.5-13.3-15.8-17-22.6 c-2.4,8.5-10.9,34.3-13.7,48.5c-1.2,5.3-1.6,13.3-0.8,15.8c0.8,3.2,3.2,5.3,3.2,6.5c0,0.4-1.2,1.2-1.6,1.6 c-5.7,4-8.5,10.9-9.7,17.8c-1.2,7.3-0.8,14.9-0.8,22.2c0,9.7-0.4,20.2,1.2,29.9c1.2,8.1,2,16.6,7.7,21.8 c-12.1,2.8-23.8-8.9-26.7-15.3c-4.8,2.8-14.1,1.6-14.5,0.8c3.6-4.8,7.7-12.5,8.9-18.2c1.2-8.1,1.2-14.1,1.2-22.2 c0-6.5,0-14.9-1.2-21.4c-0.8-3.2-1.6-6.1-2.8-8.1c-1.2-2-2.4-3.6-3.2-4.8c-1.2-1.2-2.4-2.4-3.6-3.6s-2.8-2.4-2.8-3.2 s1.2-1.6,2.4-3.2c1.2-1.6,2-4.4,2-9.7c0-6.5-2-25.4-6.1-35.9c-3.2-7.3-7.7-14.1-14.1-18.6c0-0.4,3.6-6.1,7.7-8.1 c4.4-2.4,9.7-2,13.3,1.6c3.2-6.9,9.3-6.1,10.1-4.4c-1.6,4-2.4,7.7-2,16.2c0.4,11.7,2.8,25,4.4,36.8c0.8,7.3,6.9,21.8,7.3,21.8 c1.2,0,8.5-21.8,10.1-28.7c3.6-12.9,9.3-29.5,11.7-42.4c1.6-7.7-1.6-11.7-4-12.9c1.2-4.8,9.7-4,11.3-1.2 c2.8-8.1,12.9-8.1,15.8-6.1c-5.7,10.5,2,30.3,14.5,42.4c12.1,11.7,11.3,22.6,8.1,28.7C484.9,194.5,468,184,466.3,181.6z"></path> </g> </g> </svg> 