<?xml version="1.0" encoding="UTF-8"?> <!-- Generator: Adobe Illustrator 24.3.0, SVG Export Plug-In . SVG Version: 6.00 Build 0) --> <svg xmlns="http://www.w3.org/2000/svg" xmlns:xlink="http://www.w3.org/1999/xlink" version="1.1" id="Layer_1" x="0px" y="0px" viewBox="0 0 500 500" style="enable-background:new 0 0 500 500;" xml:space="preserve"> <path style="fill:#FFFFFF;" d="M441.7,294.6c-6.9,0-13.7,0-20.6,0c-10.3,0-14.5-5-13-14.9c1.5-9.2,3.1-17.9,4.6-27.1 c1.5-8,6.9-13.4,15.3-13.4c15.3-0.4,30.5-0.4,45.8,0c8.8,0.4,12.6,5.7,11.1,14.1c-1.5,8.8-3.1,17.6-4.6,26.3 c-1.9,9.5-7.6,14.5-17.6,14.9C455.8,294.6,448.9,294.6,441.7,294.6z M443.2,285c6.1,0,12.6,0,18.7,0c3.8,0,6.1-1.5,6.9-5.3 c1.5-8.8,3.1-17.2,4.6-26c0.4-3.4-0.8-5.3-4.2-5.3c-13,0-25.6,0-38.6,0c-3.1,0-5.3,1.5-5.7,5c-1.5,8.8-3.1,17.6-4.6,26.3 c-0.8,3.8,0.8,5.3,4.6,5.3C431,285,437.1,285,443.2,285z"></path> <path style="fill:#FFFFFF;" d="M352.7,294.6c-8,0-16,0-24.1,0c-1.1,0-3.4-1.5-3.4-2.3c-0.4-2.7-0.4-5.7,3.1-6.9 c1.5-0.4,3.1-0.4,4.2-0.4c13.7,0,27.1,0,40.9,0c6.5,0,11.5-6.9,8.4-12.6c-0.8-1.5-3.8-3.1-6.1-3.1c-9.5-0.4-19.5,0-29,0 c-0.4,0-0.8,0-0.8,0c-11.8,0-16.4-3.1-16.8-10.7c-0.4-11.8,6.1-19.5,17.2-19.5c12.6-0.4,25.2,0,37.8,0c3.1,0,5.7-0.4,8.8,0 c1.1,0,3.4,1.5,3.4,2.3c0,2.7,0.4,5.7-3.1,6.9c-1.5,0.4-3.1,0.4-4.2,0.4c-13.4,0-26.7,0-40.1,0c-1.9,0-4.6,0.4-5.7,1.5 c-1.5,1.9-1.9,5-1.9,7.6c0,1.1,3.4,2.3,5.3,2.3c8.8,0.4,17.6,0,26,0c3.4,0,6.5,0.4,9.9,0.8c9.2,1.1,12.2,5,11.1,14.1 c-1.5,14.5-7.3,19.9-21.8,19.9C365.7,294.6,359.2,294.6,352.7,294.6L352.7,294.6z"></path> <path style="fill:#FFFFFF;" d="M207.2,238.8c7.3,0,14.5,0,21.8,0c1.9,0,4.6-0.8,4.2,2.7c-0.4,2.7,0.4,6.5-4.6,6.5 c-2.3,0-4.2,0-6.5,0c-11.8,0-23.7,0-35.1,0c-6.1,0-7.3,0.8-8.4,6.9c-1.5,8-2.7,16.4-4.2,24.4c-0.8,3.4,0.4,5.3,4.2,5.3 c10.7,0,21,0,31.7,0c3.1,0,5-1.9,5.7-5c0.8-4.2,1.5-8.4,2.3-13c0.8-3.8,3.8-4.6,9.2-3.8c3.8,0.8,2.3,3.4,2.3,5.3 c-0.4,4.2-1.1,8-1.9,11.8c-1.5,8.4-6.5,13-16.4,13.4c-12.2,0.4-24.8,0.4-37,0c-9.5-0.4-13-5.3-11.5-14.5c1.5-8,3.1-16.4,4.2-24.4 c1.9-11.1,6.9-15.7,17.9-16C192.7,238.8,200,238.8,207.2,238.8L207.2,238.8z"></path> <path style="fill:#FFFFFF;" d="M110.2,294.6c-6.9,0-13.7,0-20.6,0c-10.3,0-14.5-5-13-14.9c1.9-11.8,4.2-24.1,6.1-35.9 c0.8-4.2,7.3-6.9,10.7-4.2c0.8,0.8,0.8,2.7,0.8,3.8c-1.9,11.1-3.8,22.1-5.7,32.8c-1.5,7.6-0.4,8.8,7.3,8.8c9.9,0,19.9,0,30.2,0 c7.3,0,8.4-1.1,9.5-8.4c1.9-10.7,3.4-21,5.3-31.7c1.1-5.7,5-8,10.7-5.7c0.8,0.4,1.5,1.9,1.5,3.1c-2.3,14.1-4.6,27.9-7.6,42 c-1.5,6.9-6.5,10.3-14.1,10.3C124.4,294.9,117.5,294.6,110.2,294.6L110.2,294.6z"></path> <path style="fill:#FFFFFF;" d="M42.6,238.8c8,0,16,0,24.4,0c1.9,0,4.6-0.8,4.2,2.7c-0.4,2.7,0,6.1-4.2,6.5c-5,0.4-9.9,0-14.9,0 c-7.6,0-15.7,0-23.3,0c-3.4,0-5.3,1.1-5.7,5v0.4c-1.9,8.8-1.9,9.2,7.3,9.2s18.3,0,27.5,0c2.3,0,6.1-1.5,6.5,3.1 c0.4,5-1.1,6.1-6.9,6.5c-10.7,0-21,0-31.7,0c-4.2,0-6.1,1.1-6.5,5.3c-0.4,4.6-1.5,9.2-2.3,13.7c-0.8,3.4-3.8,4.6-9.2,3.4 c-3.8-0.8-2.3-3.4-1.9-5.3c2.7-15.3,5.3-30.5,8-45.8c0.4-3.4,1.9-4.2,5.3-4.2C26.2,238.8,34.6,238.8,42.6,238.8z"></path> <path style="fill:#FFFFFF;" d="M234.7,293.8c1.1-1.9,1.9-3.1,2.7-3.8c13.4-15.7,26.7-31.7,40.1-47.4c5-5.7,10.7-5.3,14.1,1.5 c7.3,14.9,14.5,29.8,21.8,45.1c0.8,1.5,1.1,3.1,1.5,4.2c-8.8,2.7-11.8,1.5-15.7-6.1c-5-10.3-9.9-20.2-14.5-30.5 c-2.3-4.6-2.7-4.6-5.7-0.8c-9.2,11.1-19.1,21.8-27.9,33.2C246.5,295.3,241.6,294.9,234.7,293.8z"></path> </svg> 