<?xml version="1.0" encoding="UTF-8"?> <!-- Generator: Adobe Illustrator 24.3.0, SVG Export Plug-In . SVG Version: 6.00 Build 0) --> <svg xmlns="http://www.w3.org/2000/svg" xmlns:xlink="http://www.w3.org/1999/xlink" version="1.1" id="Layer_1" x="0px" y="0px" viewBox="0 0 500 500" style="enable-background:new 0 0 500 500;" xml:space="preserve"> <path style="fill:#FFFFFF;" d="M269.6,431c-76.9,0-139.3-57.7-139.3-129.3s62.3-129.3,138.6-130c76.9,0,139.3,57.7,139.3,129.3 C408.9,372.6,347.2,431,269.6,431z M145.6,301c0,64.3,55,116.1,124,116.1c68.3,0,124.7-51.7,124.7-115.4s-55.7-116.1-124-116.1 C201.3,185.6,145.6,237.3,145.6,301z"></path> <path style="fill:#FFFFFF;" d="M143.6,117.9c23.9,1.3,41.1,12.6,55,30.5c-5.3-29.2-10.6-57.7-8-86.9c19.9,23.2,33.8,49.1,46.4,76.3 c0-21.9,8-40.5,26.5-53.7c-4,10.6-7.3,21.2-8,32.5c-1.3,13.3,0,26.5,4,39.1c0.7,2.7,0,3.3-2.7,3.3c-21.2,1.3-41.8,6.6-59.7,16.6 c-3.3,2-4,1.3-5.3-2C181.4,150.4,166.8,131.2,143.6,117.9z"></path> <path style="fill:#FFFFFF;" d="M308.1,256.6c-15.3-0.7-29.2-5.3-38.5-17.2c-2-2.7-4-6-4.6-8.6c-4-11.9,2-21.9,14.6-25.2 c17.9-4.6,39.1,2,50.4,15.9c2,2,3.3,4.6,4.6,7.3c6,11.9,0.7,21.9-12.6,25.9C317.4,255.9,312.7,256.6,308.1,256.6z"></path> </svg> 