<?xml version="1.0" encoding="UTF-8"?> <!-- Generator: Adobe Illustrator 24.3.0, SVG Export Plug-In . SVG Version: 6.00 Build 0) --> <svg xmlns="http://www.w3.org/2000/svg" xmlns:xlink="http://www.w3.org/1999/xlink" version="1.1" id="Layer_1" x="0px" y="0px" viewBox="0 0 500 500" style="enable-background:new 0 0 500 500;" xml:space="preserve"> <g> <path style="fill:#FFFFFF;" d="M319.6,126.3l-131.4,271c0,0-18.2-3.1-45.3-27.7s-27-45.9-27-45.9L391.9,198c0,0,3.1-8.8-28.9-40.9 C329.7,124.4,319.6,126.3,319.6,126.3z"></path> <path style="fill:#FFFFFF;" d="M188.2,401.7h-0.6c-0.6,0-19.5-3.8-47.2-28.9c-28.3-25.8-28.3-47.8-28.3-49c0-1.3,0.6-3.1,2.5-3.8 L253,257.1l64.1-132.7c0.6-1.3,1.3-1.9,2.5-1.9c3.1-0.6,14.5,0,46.5,31.4c30.2,30.2,30.8,41.5,29.6,44.6c-0.6,1.3-1.3,1.9-1.9,2.5 l-135.2,61.6l-67.3,136.5C190.7,400.5,189.5,401.7,188.2,401.7z M119.7,326.3c1.3,5.7,5.7,22.6,25.8,40.9 c20.1,18.2,34.6,24.5,40.9,26.4l60.4-125.1L119.7,326.3z M321.5,130.7l-59.1,121.4l123.9-56.6c-1.3-3.8-6.3-14.5-27.7-35.8 C337.2,137.6,325.9,132,321.5,130.7z M387.5,197.3L387.5,197.3L387.5,197.3z"></path> </g> <path style="fill:#FFFFFF;" d="M253.6,311.2c-28.3,0-51.6-23.3-51.6-51.6s23.3-51.6,51.6-51.6s51.6,23.3,51.6,51.6 S281.9,311.2,253.6,311.2z M253.6,215c-24.5,0-44,19.5-44,44s19.5,44,44,44s44-19.5,44-44C297.6,235.1,277.5,215,253.6,215z"></path> <circle style="fill:#FFFFFF;" cx="251.7" cy="261.5" r="28.9"></circle> <path style="fill:#FFFFFF;" d="M251.7,420.6c-87.4,0-159.1-71.7-159.1-159.1s71.7-159.1,159.1-159.1s159.1,71.7,159.1,159.1 S339.1,420.6,251.7,420.6z M251.7,115.6c-80.5,0-145.9,65.4-145.9,145.9s65.4,145.9,145.9,145.9S397.6,342,397.6,261.5 S332.2,115.6,251.7,115.6z"></path> <path style="fill:#FFFFFF;" d="M251.7,372.8c-1.9,0-3.8-1.9-3.8-3.8s1.9-3.8,3.8-3.8c57.2,0,103.8-46.5,103.8-103.8 s-46.5-103.8-103.8-103.8c-1.9,0-3.8-1.9-3.8-3.8s1.9-3.8,3.8-3.8c61.6,0,111.3,50.3,111.3,111.3C363,323.1,313.3,372.8,251.7,372.8 z"></path> <path style="fill:#FFFFFF;" d="M252.3,457.1c-44.6,0-86.8-14.5-121.4-42.1c-2.5-2.5-3.1-6.3-1.3-8.8c2.5-2.5,6.3-3.1,8.8-1.3 c32.7,25.8,71.7,39.6,113.2,39.6c3.8,0,6.3,3.1,6.3,6.3C258,453.9,256.1,457.1,252.3,457.1z"></path> <path style="fill:#FFFFFF;" d="M404.5,154c-1.9,0-3.8-0.6-5-2.5c-35.2-47.2-88.7-73.6-147.1-73.6c-3.8,0-6.3-3.1-6.3-6.3 s3.1-6.3,6.3-6.3c31.4,0,61.6,7.5,89.3,21.4c26.4,13.8,50.3,33.3,67.9,57.9c1.9,3.1,1.3,6.9-1.3,8.8C407,154,405.8,154,404.5,154z"></path> <g> <path style="fill:#FFFFFF;" d="M192,165.9c-3.1,0-6.9,0-10.7,0.6c-22.6,3.8-34.6,20.1-37.1,37.7h0.6c5-6.9,13.8-12.6,25.8-12.6 c18.9,0,32.1,13.8,32.1,34.6c0,19.5-13.2,37.7-35.2,37.7c-22.6,0-37.7-17.6-37.7-45.3c0-20.8,7.5-37.7,18.2-47.8 c8.8-8.8,20.8-13.8,34-15.7c4.4-0.6,7.5-0.6,10.7-0.6v11.3H192z M188.2,227.5c0-15.1-8.8-24.5-22-24.5c-8.8,0-17,5-20.8,13.2 c-0.6,1.9-1.3,3.8-1.3,6.3c0,17.6,8.2,30.8,23.3,30.8C179.4,252.7,188.2,242.6,188.2,227.5z"></path> </g> </svg> 