<?xml version="1.0" encoding="UTF-8"?> <!-- Generator: Adobe Illustrator 24.3.0, SVG Export Plug-In . SVG Version: 6.00 Build 0) --> <svg xmlns="http://www.w3.org/2000/svg" xmlns:xlink="http://www.w3.org/1999/xlink" version="1.1" id="Layer_1" x="0px" y="0px" viewBox="0 0 500 500" style="enable-background:new 0 0 500 500;" xml:space="preserve"> <g> <path style="fill-rule:evenodd;clip-rule:evenodd;fill:#FFFFFF;" d="M305.9,321.9c1.2-1.2,2.3-1.8,3.5-2.9c1.2-1.2,2.3-1.8,2.9-2.9 c0.6-0.6,1.8-0.6,2.3-0.6c3.5,0,5.9,2.3,4.7,5.9c0,1.2-0.6,2.3-1.2,2.9c-1.2,1.8-1.8,2.9-2.9,4.7l0.6,0.6c5.9,2.3,10.6,5.9,15.3,10 c4.1,3.5,8.2,6.5,11.7,9.4c3.5,2.9,7.6,6.5,11.2,10c4.1,4.1,8.8,7.6,12.9,11.7c4.1,3.5,7.6,7,11.2,11.2c2.3,2.9,5.3,5.3,7.6,7.6 c3.5,3.5,7,6.5,11.2,8.8c3.5,2.3,7,3.5,11.2,5.3c0.6,0,1.2,0,1.8,0.6c2.9,0,5.9,0.6,8.8,0.6c1.8,0,3.5,1.2,5.3,2.3 c1.2,1.2,1.2,1.8,1.2,3.5c0,2.3-0.6,4.1-2.3,5.9c-2.3,2.3-4.7,3.5-7.6,5.3c-5.3,2.3-10.6,3.5-15.9,5.3c-1.8,0.6-4.1,1.2-5.9,0.6 c-2.3,0-4.7,0-7-0.6c-2.9-0.6-5.3-1.8-7.6-3.5c-4.7-2.9-9.4-6.5-14.1-10.6c-5.3-4.7-9.4-10-13.5-15.3c-2.3-3.5-5.3-6.5-8.2-10 c-1.8-2.9-4.1-5.3-6.5-7.6c-2.3-2.9-4.7-5.3-7.6-8.2c-2.9-2.9-5.3-5.3-8.2-7.6c-2.3-2.3-4.7-4.1-7.6-6.5c-1.2-1.2-2.9-1.8-4.1-2.9 c-2.3-1.2-4.7-2.3-7-3.5c-1.8-0.6-3.5-1.2-5.3-0.6c-1.2,0-2.3,0-3.5,0c-0.6,0.6-1.2,1.2-1.8,1.8c-0.6,0.6-1.2,1.2-2.3,1.8 c-1.8,0.6-2.9,0-4.1-1.2c-0.6,0.6-0.6-0.6-0.6-1.8c0-1.2,0-1.8,0.6-2.9c0-0.6,0.6-1.8,0.6-2.3c-1.2-1.2-2.3-2.3-3.5-2.9 c-1.8-1.2-2.9-2.3-4.7-3.5c-4.1-2.9-7.6-5.9-11.2-8.8c-1.8-1.2-2.9-2.3-4.7-3.5c-2.3-1.8-4.7-3.5-6.5-5.3c-3.5-2.9-7-5.9-10.6-8.8 c-5.3-4.1-10.6-8.2-15.9-12.9c-1.8-1.8-4.1-3.5-5.9-4.7c-0.6-0.6-1.2-1.2-2.3-1.2l-0.6-0.6c-0.6-1.2-2.3-2.3-3.5-3.5 c-4.1-2.9-8.2-6.5-12.3-9.4c-4.1-2.9-8.2-6.5-12.3-10c-2.3-1.8-5.3-4.1-7.6-5.9c-2.3-1.8-4.7-3.5-6.5-5.3s-4.1-3.5-5.9-5.3 c-1.8-1.8-3.5-3.5-5.3-5.3c-0.6-0.6-1.8-1.8-2.3-2.3c-0.6-0.6-0.6-0.6-1.2-0.6c-1.8-0.6-2.3-1.8-3.5-2.9c-0.6-1.2-1.8-1.8-2.3-2.9 c-4.1-4.7-8.2-8.8-12.3-13.5c-5.9-7-11.7-14.1-16.4-21.7c-2.3-4.1-4.7-7.6-7-11.7c-1.2-1.8-1.8-4.1-2.3-5.9 c-1.8-5.3-3.5-10.6-5.9-15.9c-1.2-2.9-2.3-5.9-2.9-8.8c-1.2-2.9-2.3-5.9-3.5-9.4c-1.2-3.5-2.9-7-4.1-10.6c0-0.6-0.6-1.2-0.6-1.8 c-5.3-5.9-7-12.9-9.4-20c-0.6-2.3-1.2-4.7-1.8-7c-1.2-3.5-1.8-7.6-2.3-11.7c0-0.6,0-1.2-0.6-1.8c-1.8-4.7-1.8-8.8-1.8-13.5v-0.6 c0.6-2.3,0.6-5.3,0.6-7.6c0-1.2,0-1.8,0.6-2.9c0.6-1.2,1.8-1.2,1.8,0c0.6,1.2,1.2,1.8,1.8,2.9c0.6,1.8,1.8,4.1,2.9,5.9 c2.9,5.3,6.5,11.2,10,16.4c2.3,3.5,5.3,7,8.2,10c0.6,0.6,1.2,1.2,1.8,1.8c1.8,2.9,4.1,5.9,6.5,8.8c0,0,0,0,0.6,0.6 c2.9,4.1,6.5,7.6,9.4,11.7c4.1,5.9,8.8,11.2,13.5,17c3.5,4.1,7.6,7.6,11.7,11.2c0.6,0.6,1.2,0.6,1.2,0.6c2.9,1.8,5.9,2.9,8.8,4.7 c2.3,1.2,4.7,1.8,7,2.3c0.6,0,1.2,0,1.8,0c1.8,0,2.9-0.6,4.7-0.6c0.6,0,1.8,0.6,1.8,1.2c0.6,1.2,0.6,1.8,0.6,2.9 c0,2.9,0.6,5.3,1.8,7.6s1.8,5.3,2.3,7.6c0.6,2.3,1.8,4.1,2.3,6.5c2.3,5.3,4.1,10,6.5,15.3c0.6,1.8,1.8,4.1,2.3,5.9 c1.8,3.5,4.1,6.5,5.9,10c1.2,1.8,2.3,3.5,3.5,5.3c1.2,1.8,2.3,3.5,4.1,5.3c0.6,0.6,1.2,1.2,1.8,1.8c2.9,3.5,5.9,7.6,8.8,11.2 c2.9,2.9,5.9,6.5,8.2,9.4c1.2,1.2,2.3,2.3,3.5,4.1l0.6,0.6c4.7,3.5,8.8,8.2,12.9,12.3c1.2,1.2,2.3,2.3,3.5,3.5 c4.1,3.5,8.2,7.6,12.9,11.2c7,5.9,14.7,11.7,22.3,17c1.8,1.2,3.5,2.9,5.3,4.1c1.2,1.2,2.9,2.3,4.1,3.5c0.6,0.6,1.2,0.6,1.2,1.2 c2.3,1.2,4.7,2.3,7,3.5C302.9,320.7,304.1,321.3,305.9,321.9z M302.4,325.4c-0.6-0.6-1.8-1.2-2.3-1.8c-5.3-2.9-10.6-5.9-15.9-9.4 c-6.5-4.1-12.9-8.8-19.4-14.1c-1.2-0.6-2.3-1.8-2.9-2.3c-1.8-1.2-3.5-2.9-5.3-4.7c-0.6-1.2-1.8-1.8-2.3-2.3 c-2.9-2.9-5.3-5.9-8.2-8.8c-3.5-3.5-7-7.6-10.6-10.6c-1.2-0.6-1.8-1.8-2.9-2.3c-4.1-4.1-8.2-8.8-12.3-12.9 c-1.2-1.2-2.3-1.8-2.9-2.9c-3.5-4.7-6.5-9.4-10-13.5c-0.6-0.6-1.2-1.8-1.8-2.3c-2.3-2.3-3.5-4.7-5.3-7c-0.6-1.2-1.8-2.3-2.3-3.5 c-1.2-2.3-2.3-4.1-3.5-6.5c-1.2-2.9-2.9-5.9-4.1-8.8c-0.6-1.8-1.8-3.5-2.9-4.7c-0.6-1.2-1.2-2.3-1.8-3.5c-0.6-2.3-1.2-4.7-2.3-6.5 c-1.2-1.8-1.8-4.1-2.3-6.5c-1.2-3.5-2.3-7-3.5-10.6c-0.6-1.8-1.2-2.9-2.9-3.5c-0.6-0.6-1.2-0.6-2.3-1.2c-3.5-1.8-7.6-3.5-11.2-5.3 c-3.5-1.2-6.5-2.9-9.4-5.3c-4.1-2.3-7-5.3-10-8.8c-2.9-2.9-5.3-6.5-7.6-9.4c-3.5-4.7-7.6-10-11.2-14.7c-4.1-5.9-8.8-11.2-12.9-17 c-4.7-5.9-8.2-11.2-11.2-16.4c-1.8-2.9-4.1-5.9-6.5-8.8c0,0,0,0-0.6,0c0,1.8,1.2,3.5,1.2,5.3c2.9,7.6,5.3,14.7,8.2,21.7 c1.8,4.7,4.1,10,5.9,14.7c1.8,3.5,3.5,7,4.7,10.6c1.2,2.9,2.3,6.5,4.1,9.4c1.8,2.9,3.5,6.5,4.7,9.4c4.1,7.6,8.8,14.7,13.5,21.1 c1.2,1.8,2.3,2.9,2.9,4.7c0,0.6,0.6,1.2,1.2,1.8c3.5,4.7,6.5,10,10,14.7c1.8,2.3,2.9,4.7,4.7,7c2.3,3.5,5.3,6.5,7.6,9.4 c2.3,2.9,5.3,6.5,8.2,9.4c1.8,1.8,4.1,3.5,5.3,5.9c3.5,3.5,6.5,7,10,10.6c1.8,1.8,3.5,3.5,5.3,5.3c2.3,2.3,5.3,5.3,7.6,7.6 c1.8,1.8,4.1,2.9,5.9,5.3c3.5,3.5,7.6,6.5,11.2,10c4.1,3.5,8.8,7,13.5,10.6c2.3,1.8,4.1,3.5,6.5,5.3c2.9,2.3,5.3,4.7,8.2,7 c2.9,2.3,5.9,4.7,8.8,7c2.9,2.3,5.9,4.7,8.2,7c1.8,1.8,4.1,3.5,5.9,4.7c1.2,1.2,2.3,1.8,3.5,2.9c1.8,1.2,2.9,2.9,4.7,4.1 c5.3,4.1,10.6,8.2,15.9,12.3c0.6,0.6,1.8,1.2,2.3,0.6C296.5,333,299.4,329.5,302.4,325.4z M289.4,339.5c0-0.6-0.6-0.6-0.6-0.6 c-1.8-1.2-2.9-2.3-4.1-3.5c-4.7-4.1-9.4-7.6-14.1-11.7c-4.7-4.1-9.4-8.2-14.7-11.7c-2.9-2.3-6.5-5.3-9.4-7.6 c-2.3-1.8-4.1-4.1-6.5-5.9c-2.9-2.3-5.3-5.3-8.2-7l-0.6-0.6c-2.3-1.8-4.1-3.5-6.5-5.9c-5.3-4.1-10.6-8.2-15.3-12.9 c-2.9-2.9-6.5-5.9-10-8.8c-2.9-2.9-5.9-5.3-8.8-8.2c-2.3-2.3-4.7-4.7-7-6.5c-1.2-1.2-1.8-1.8-2.9-2.9c-2.3-2.3-4.7-4.7-7-7.6 c-4.1-4.1-8.2-8.2-11.7-12.9c-0.6-0.6-1.2-1.2-1.8-1.8c-3.5-4.1-7-8.2-10.6-12.3c-4.1-5.3-7.6-10.6-11.7-16.4 c-2.9-4.1-5.9-8.8-9.4-12.3c-0.6-1.2-1.8-2.3-2.3-2.9c-1.8-2.9-3.5-5.9-4.7-9.4c-0.6-1.2-1.2-2.3-1.8-3.5 c-2.3-4.1-4.7-8.2-6.5-12.9c0.6-1.8,0-2.9-0.6-4.1c-1.8-3.5-3.5-7-5.3-10.6c-0.6-1.2-1.2-2.3-1.8-3.5c-1.8-4.1-2.9-8.2-4.7-12.3 c-1.8-5.3-4.1-10-5.9-15.3c0-2.3-0.6-3.5-1.2-5.3c-1.2-3.5-2.3-6.5-3.5-9.4c0-0.6,0-1.2-0.6-1.2c-0.6,0.6,0,1.8,0,2.3 c0,2.3,0.6,4.1,0.6,6.5c1.2,6.5,2.9,12.9,4.7,19.4c0.6,2.9,1.8,5.3,2.3,8.2c1.2,5.9,3.5,11.2,5.9,16.4c0.6,1.2,1.2,2.3,1.8,4.1 c2.3,6.5,4.7,13.5,7.6,20c1.8,3.5,2.9,7,4.1,10.6c0.6,1.8,1.2,2.9,1.8,4.7c1.2,2.3,2.3,4.7,2.9,7c0,1.2,0.6,1.8,1.2,2.3 c1.2,2.3,1.8,4.7,3.5,7c2.9,3.5,5.3,7,8.2,10.6c4.7,5.9,8.8,11.7,14.1,17c0.6,0.6,0.6,0.6,1.2,1.2c2.9,2.9,5.9,6.5,8.8,9.4 c2.9,2.9,5.9,5.3,8.2,8.2c3.5,3.5,7.6,7.6,11.7,10.6c1.8,1.8,3.5,2.9,5.3,4.7c1.8,1.8,3.5,2.9,5.3,4.7c0.6,0.6,1.8,1.8,2.3,2.3 c2.9,2.3,6.5,5.3,10,7.6c0.6,0.6,1.2,1.2,1.8,1.2c2.3,0.6,3.5,2.3,5.3,3.5c2.9,2.9,6.5,5.3,9.4,7.6c2.3,2.3,5.3,4.1,7.6,6.5 c6.5,5.3,12.9,11.2,19.4,16.4c4.1,3.5,7.6,6.5,11.7,9.4c7,5.3,13.5,10.6,20.6,15.9c2.3,1.8,4.7,4.1,7,5.9c0.6,0.6,1.8,1.2,2.9,1.2 C287.7,342.4,288.9,340.7,289.4,339.5z M342.9,383.5c0.6-0.6,1.2-1.2,1.8-1.8c1.8-2.3,3.5-4.7,5.3-7c2.3-3.5,3.5-7,3.5-10.6 c-0.6-0.6-0.6-0.6-1.2-1.2c-0.6-0.6-0.6-0.6-1.2-1.2c-1.8,2.9-3.5,6.5-5.9,8.8c-1.8,2.9-4.1,5.9-6.5,8.2 C339.9,380.6,341.1,382.4,342.9,383.5z M368.1,412.3c1.2,1.2,1.8,1.8,2.3,2.3c1.2,0.6,1.2,1.2,2.3,0c2.3-1.2,4.7-2.9,6.5-5.3 c3.5-4.1,6.5-8.8,8.2-13.5c-0.6-0.6-1.2-1.2-2.9-1.8c-1.8,3.5-4.1,7-6.5,10.6C375.2,407.6,371.7,410,368.1,412.3z M379.9,390.6 c0,0.6-0.6,1.2-0.6,1.2c-0.6,2.3-1.8,4.1-2.9,6.5c-2.9,4.7-5.9,8.8-11.2,11.2c0.6,1.2,0.6,1.2,2.3,1.8c5.9-2.3,14.7-11.7,15.9-18.2 c-0.6-0.6-1.2-1.2-1.8-1.8C380.5,390.6,380.5,390.6,379.9,390.6z M327,342.4c-1.2-0.6-2.3-1.8-3.5-2.3c-0.6,1.2-0.6,2.9-1.2,4.1 s-1.8,1.8-2.9,1.8c-0.6,1.2-0.6,2.3-1.2,3.5c-0.6,1.2-2.3,1.2-2.9,1.8c-0.6,1.8-0.6,3.5-1.2,5.3c0.6,0.6,1.2,0.6,1.8,1.2 C319.4,355.3,325.9,347.1,327,342.4z M363.4,407.6c2.3-0.6,2.9-1.2,4.7-2.3c3.5-3.5,6.5-7,8.8-11.2c0.6-1.8,1.8-3.5,2.3-5.3 c-0.6-0.6-1.2-0.6-1.8-1.2c-1.2,1.2-1.8,1.8-2.3,2.3c0,1.2,0,2.3-1.2,2.9l-0.6,0.6c0,1.2-1.2,1.8-1.8,2.9c0,2.9,0,2.9-2.9,3.5 c-1.2,1.8-1.2,1.8-4.1,2.3c-1.2,1.2-1.8,1.8-2.9,2.9C361.7,406.4,362.3,407,363.4,407.6z M350.5,392.9c0.6-0.6,1.2-0.6,1.8-0.6 c2.9-2.3,5.9-5.3,7.6-8.8c1.8-2.9,2.9-5.9,4.1-9.4c-0.6-0.6-0.6-1.8-1.8-1.8c-1.8,4.1-1.2,2.9-4.7,4.7c0,0.6,0.6,0.6,0.6,1.2 c1.2,2.9,0,5.3-2.9,5.9c-0.6,0-1.2,0.6-2.3,0.6c0,0.6,0,0.6,0,0.6c0,2.9-0.6,3.5-2.9,4.7c-0.6,0-1.2,0-1.2,0.6 C349.3,391.7,349.9,392.3,350.5,392.9z M383.4,422.9c1.8,1.2,2.9,1.2,4.7,0c2.9-2.3,4.7-5.3,7-7.6l0.6-0.6c0-1.2,0.6-1.2,1.2-2.3 c1.2-2.3,2.9-4.1,3.5-7c-0.6-0.6-1.2-1.2-2.3-1.2c-1.2,2.3-2.3,4.7-3.5,7c-0.6,1.2-1.2,2.3-2.3,3.5c-2.3,2.3-4.7,4.1-7,6.5 C384,421.7,384,422.3,383.4,422.9z M342.9,354.2c-0.6,0.6-1.2,1.2-1.8,1.8c-0.6,0.6-0.6,0.6-0.6,1.2c0,1.2-0.6,1.8-1.8,2.3 c-0.6,0-0.6,0.6-0.6,1.2c0,1.8-1.2,2.3-2.3,2.9c0,1.8-0.6,2.9-1.8,3.5l-0.6,0.6c0,1.8-1.2,2.3-2.9,2.3c1.2,1.8,1.2,1.8,2.9,2.3 c1.8-1.8,2.9-3.5,4.7-5.3c0.6-0.6,1.2-1.8,1.8-2.3c2.3-2.3,4.1-5.3,5.3-8.8C344.1,354.7,343.5,354.7,342.9,354.2z M369.9,380.6 c-0.6-0.6-1.2-1.8-2.3-2.3c-0.6,0.6-0.6,1.2-0.6,1.8c-1.2,2.3-1.8,4.1-2.9,6.5c-1.8,3.5-4.1,6.5-8.2,8.2c-1.2,0.6-2.3,0.6-2.9,2.3 c0.6,0.6,1.2,1.2,1.8,1.8c3.5-2.3,6.5-4.1,8.8-7C367,388.2,368.7,384.7,369.9,380.6z M351.7,394.1c0,0.6,0.6,1.2,1.2,1.2 c2.3-1.2,4.1-2.3,5.9-4.1c2.3-2.3,4.1-4.7,5.3-7c1.2-2.3,1.8-4.7,2.3-7.6c-0.6-0.6-1.2-0.6-1.8-1.2c-1.2,0.6-1.2,1.8-1.2,2.9 c-1.8,5.3-4.7,10-9.4,13.5C353.5,392.9,352.3,393.5,351.7,394.1z M394.6,401.7c-0.6,1.2-0.6,2.3-1.2,2.9c-0.6,0.6-0.6,1.8-1.2,2.3 c-2.3,2.9-4.7,6.5-7.6,8.8c-1.8,1.8-3.5,2.9-5.3,4.1v0.6c0.6,0.6,1.2,0.6,2.3,1.2c3.5-2.9,6.5-5.9,9.4-8.8c0.6-0.6,0.6-0.6,1.2-1.2 c1.8-2.9,2.9-5.9,4.7-8.8C395.7,402.9,395.2,402.9,394.6,401.7z M354.6,366.5c0,0.6,0,0.6-0.6,0.6c-1.2,4.1-2.9,7.6-5.9,11.2 c-1.2,1.8-2.9,3.5-4.1,5.3c-0.6,0.6-0.6,1.2-0.6,1.8c0.6,0.6,0.6,0.6,1.2,1.2c0.6-1.2,1.2-1.8,1.8-2.3c0.6-1.2,1.8-1.2,2.3-1.8 c0-0.6,0-0.6,0-0.6c0-1.8,0.6-2.9,1.8-3.5c1.2-0.6,1.8-1.2,2.9-1.8c0-0.6-0.6-0.6-0.6-1.2c-1.2-2.9-0.6-4.1,2.3-5.3 c0.6,0,0.6-0.6,1.2-0.6C357,367.7,355.8,366.5,354.6,366.5z M329.4,343.6c-4.1,6.5-5.3,9.4-11.2,15.3c0.6,0.6,1.2,0.6,1.8,1.2 c4.7-4.7,8.8-9.4,10.6-15.9l-0.6-0.6C330,344.2,330,344.2,329.4,343.6z M336.4,375.9c1.2,1.8,1.8,1.8,2.9,0.6 c1.8-2.3,3.5-4.7,5.3-7c1.2-1.2,1.8-2.9,2.9-4.7c0.6-1.2,1.8-2.9,2.3-4.1c0.6-0.6,0-1.2-1.2-1.2 C345.2,365.9,340.5,370.6,336.4,375.9z M335.3,374.7c4.1-5.3,8.8-10.6,12.3-17c-0.6-0.6-1.2-0.6-1.8-1.2c-1.2,2.3-2.3,4.1-3.5,5.9 c-1.2,1.8-2.9,3.5-4.1,5.3c-1.2,1.8-2.9,3.5-4.1,5.3c0,0.6,0.6,0.6,0.6,1.2C334.7,374.7,335.3,374.7,335.3,374.7z M401,422.9 c2.3-0.6,2.3-0.6,3.5-1.8c1.8-1.8,3.5-4.1,4.7-6.5c1.2-1.8,1.8-3.5,1.8-5.9c-0.6,0-1.2,0-2.3-0.6c0.6,1.8,0,2.9-1.8,3.5 c0,2.9,0,2.9-2.3,4.1l0,0c-0.6,1.2-0.6,1.8-0.6,2.3c-0.6,0.6-1.8,1.2-2.3,1.2C401,421.7,401,422.3,401,422.9z M322.3,361.8 c0.6,0.6,1.2,1.2,1.8,0.6c0.6-0.6,1.2-0.6,1.2-1.2c3.5-3.5,6.5-7.6,8.8-12.3c0-0.6,0.6-1.2,0.6-1.8c-1.2-0.6-1.8-0.6-2.3,0 c-0.6,0.6-0.6,1.2-0.6,1.8c-0.6,1.8-1.8,3.5-2.9,5.3C326.4,356.5,324.1,359.4,322.3,361.8z M301.2,331.3c2.3,0.6,4.1,1.8,5.9,1.8 c1.8-1.2,2.9-2.3,3.5-3.5c-1.8-1.2-4.1-1.8-6.5-1.8C303.5,328.3,302.4,329.5,301.2,331.3z M422.2,411.1c-0.6-1.2-1.8-1.2-2.9-1.8 c-0.6,1.8-1.2,2.9-1.8,4.7c-0.6,1.8-1.2,2.9-2.3,4.7c1.2-0.6,2.3-0.6,2.9-1.2C421.6,415.8,421.6,416.4,422.2,411.1z M293,341.8 c0.6,0.6,1.2,0.6,1.8,1.2c0.6,0.6,1.2,0.6,1.8,1.2c0.6-0.6,1.2-1.8,1.8-2.3c0.6-0.6,1.8-1.2,2.3-2.3c-1.8-1.2-2.9-1.2-4.7-1.2 c-0.6,0-0.6,0-1.2,0.6C294.1,339.5,293,340.7,293,341.8z M305.9,326c2.3,0.6,4.1,1.8,5.9,2.3c1.2-1.2,1.8-1.8,2.3-2.9 c0-0.6,0.6-0.6,0.6-1.2c-1.8-1.2-3.5-1.2-5.3-1.2c-0.6,0-1.2,0-1.8,0.6C307.6,324.2,307.1,325.4,305.9,326z M305.3,339.5 C305.3,339.5,305.9,339.5,305.3,339.5c1.2,1.8,2.3,2.3,2.3,3.5c0.6,1.2,0.6,2.3,0.6,3.5c0,1.2,0,2.3,0,4.1c1.2-0.6,1.8-1.2,2.9-1.8 c-0.6-1.8-0.6-1.8-0.6-4.1c0-0.6,0-1.2-0.6-1.8c-0.6-1.8-1.8-3.5-3.5-4.1c0,0-0.6,0-1.2,0C305.9,338.9,305.9,338.9,305.3,339.5z M300,332.4c-1.2,1.2-2.3,2.3-2.9,3.5c1.8,0.6,2.9,1.2,4.7,1.8c1.2-1.2,2.3-2.3,3.5-3.5C303.5,333,301.8,333,300,332.4z M314.7,340.7c0.6-0.6,1.2-1.2,1.8-1.8c0.6-0.6,1.2-1.2,1.8-1.8c-1.8-1.8-4.1-2.3-6.5-3.5c-0.6-0.6-1.2,0-1.8,1.2 C312.3,336.5,312.9,338.3,314.7,340.7z M400.4,407c-0.6,1.2-0.6,1.8-1.2,2.9c1.8,0.6,3.5,1.2,5.3,1.8c0.6,0,1.8,0,2.3-0.6 c-0.6-1.8-0.6-2.3-1.8-2.9C404,407.6,402.2,407,400.4,407z M395.2,417c1.8,1.2,3.5,1.8,5.3,2.3c0.6,0,1.2,0,1.8,0 c0.6,0,0.6-0.6,0.6-0.6c0-0.6,0-0.6,0-1.2l0,0c-1.8-1.2-3.5-2.3-5.9-2.3C395.7,415.2,395.7,415.8,395.2,417z M389.9,408.2 c-1.8-2.3-1.8-2.3-5.3-4.1c-0.6,0.6-1.2,1.2-1.8,2.3c1.2,1.8,2.9,2.3,4.7,3.5C388.7,409.4,389.3,408.8,389.9,408.2z M392.2,404.1 c-1.2-1.8-2.9-2.9-4.7-4.1c-0.6,0.6-0.6,1.8-1.2,2.3c1.8,1.8,3.5,2.9,4.7,4.1C391.6,406.4,391.6,405.3,392.2,404.1z M397.5,412.9 c1.2,0.6,2.3,1.2,3.5,1.8c0.6,0,1.2,0.6,1.8,0.6h0.6c1.2,0,1.8-0.6,1.8-1.2c0-1.2-0.6-1.2-1.2-1.8c-1.2-0.6-2.9-1.2-4.1-1.2 C398.7,411.1,398.7,411.1,397.5,412.9z M410.4,420.5c1.2,0.6,1.2,0,1.8-0.6c2.3-2.9,4.1-6.5,4.7-10c-0.6-0.6-1.2-0.6-1.8,0 c-0.6,0.6-0.6,1.8-1.2,2.3c-1.2,2.3-2.3,4.7-3.5,7C411,419.9,411,419.9,410.4,420.5z M362.3,395.9c1.8,1.2,2.9,2.3,4.7,2.9 c0.6,0,1.2,0,1.8,0c0.6,0,0.6-0.6,1.2-0.6c0-0.6,0-1.2-0.6-1.2c-1.2-0.6-2.3-1.2-3.5-2.3c-0.6,0-1.2-0.6-1.8-0.6 C364,394.1,363.4,394.7,362.3,395.9z M288.9,347.7c1.2,0.6,1.8,1.2,2.9,1.2c1.8-0.6,2.3-2.3,3.5-3.5c-1.2-1.2-1.2-1.2-3.5-1.8 C290.6,344.8,289.4,345.9,288.9,347.7z M315.9,323c0.6-0.6,1.2-1.8,1.2-2.3s0-1.2-0.6-1.2c-0.6-0.6-2.3-0.6-3.5,0 c0,0-0.6,0-0.6,0.6c-0.6,0.6-1.2,1.2-1.8,1.8C312.3,322.4,314.1,322.4,315.9,323z M330,358.9c1.2,1.2,2.3,1.8,3.5,2.9 c0,0,0.6,0.6,1.2,0.6s1.2,0,1.8-0.6c0-0.6,0-1.2-0.6-1.8c-1.2-1.2-2.3-1.8-4.1-2.9C331.1,357.1,331.1,357.7,330,358.9z M369.9,386.5c1.2,0.6,2.3,1.2,3.5,1.8c0.6,0.6,1.8,0,1.8-0.6c0.6-0.6,0.6-1.2,0-1.8c-1.2-1.2-2.3-2.3-4.1-2.9 C370.5,384.1,369.9,384.7,369.9,386.5z M332.9,354.7c1.2,1.2,2.3,2.3,4.1,2.9c0.6,0.6,1.8,0.6,2.3-0.6c0.6-0.6,0.6-1.2-0.6-1.8 c-1.2-1.2-2.3-1.8-4.1-2.3h-0.6l-0.6,0.6C332.9,354.2,332.9,354.2,332.9,354.7z M312.3,344.8c1.2-1.2,1.2-1.2,1.2-1.8 c-0.6-2.9-1.8-5.3-4.7-7c-0.6,0.6-1.2,0.6-1.2,1.8C310,339.5,311.8,341.2,312.3,344.8z M304.7,340.7c-0.6,0.6-0.6,0.6-0.6,1.2 c1.8,2.3,1.8,4.7,1.2,7.6v0.6v0.6c0.6,0,0.6,0,1.2,0.6C308.2,347.1,307.6,343,304.7,340.7z M384.6,414.1c-1.2-1.2-2.9-2.3-4.1-2.9 c-0.6,0.6-1.8,1.2-1.8,1.8c1.2,1.2,2.9,2.3,4.7,2.9C383.4,415.2,384.6,414.7,384.6,414.1z M392.8,419.9c1.2,0.6,2.3,1.2,3.5,1.8 c0.6,0,1.2,0.6,2.3,0.6c0.6,0,1.2,0,1.2-1.2c-1.8-1.8-4.1-1.8-5.9-2.9C393.4,418.8,393.4,419.4,392.8,419.9z M366.4,400.6V400 c-1.2-1.8-3.5-2.3-5.3-3.5c-0.6,0.6-1.2,1.2-1.8,1.2c1.2,0.6,1.8,1.2,2.9,2.3C363.4,401.7,365.2,401.1,366.4,400.6z M324.7,364.1 c1.2,1.2,1.8,1.8,2.9,2.9c0.6,0.6,1.2,0.6,1.2,0.6c0.6,0.6,1.2,0,1.8,0c0.6-0.6,0-1.2-0.6-1.8c-0.6-0.6-1.8-1.2-2.3-1.8 c-0.6-0.6-1.2-0.6-1.8-1.2C325.9,363.6,325.3,363.6,324.7,364.1z M377.5,412.9c-1.2,0.6-1.8,1.2-2.3,1.8c1.8,1.8,3.5,2.3,5.3,2.9 c0.6-0.6,0.6-0.6,1.2-1.2C380.5,415.2,378.7,414.7,377.5,412.9z M336.4,349.5c-1.2,0.6-1.2,1.2-1.2,2.3c1.2,0.6,1.8,1.8,2.9,2.3 c0.6,0.6,1.2,0.6,2.3,0.6c0,0,0.6,0,0.6-0.6v-0.6C339.4,351.8,338.2,350,336.4,349.5z M327.6,361.2c1.2,1.2,2.3,1.8,3.5,2.9 c0.6,0.6,1.2,0.6,1.2,0.6c0.6,0,1.2,0,1.2-0.6V363c-1.2-1.2-2.9-2.3-4.7-3.5C328.8,360.6,328.2,360.6,327.6,361.2z M356.4,400 c0,0.6,0,0.6,0.6,1.2c0.6,0.6,1.2,1.2,1.8,1.8l0.6,0.6c0.6,0,1.2,0.6,1.8,0.6l0.6-0.6c0,0,0-0.6,0-1.2c-0.6-0.6-1.8-1.8-2.3-2.3 C358.2,398.8,358.2,398.8,356.4,400z M387.5,398.8c1.8,1.2,2.9,2.9,4.7,4.1h0.6c0-0.6,0.6-1.2,0.6-1.8c-0.6-0.6-1.8-1.2-2.3-1.8 c-0.6-0.6-1.2-1.8-2.3-1.8C388.1,397.6,387.5,398.2,387.5,398.8z M367.6,389.4c1.8,1.2,2.9,1.8,4.7,2.9h0.6c0.6,0,1.2-0.6,0.6-1.2 c0,0,0-0.6-0.6-0.6c-1.2-1.2-2.3-1.8-4.1-2.3C368.1,388.2,368.1,388.8,367.6,389.4z M387.5,411.1c-1.8-1.2-3.5-2.3-4.7-3.5 c-0.6,0.6-0.6,0.6-0.6,1.2c0,0,0,0.6,0,1.2c1.2,1.2,2.9,2.3,4.7,2.9C386.3,412.3,386.9,411.7,387.5,411.1z M365.8,392.3 c1.8,1.2,2.9,1.8,4.1,2.3h0.6c0.6,0,0.6,0,1.2-0.6c0,0,0-0.6,0-1.2c0-0.6-0.6-0.6-0.6-0.6c-1.2-0.6-2.3-1.2-4.1-1.8 C366.4,391.2,366.4,391.7,365.8,392.3z M300.6,344.8c-1.2,1.8-2.3,2.3-3.5,4.1c1.8,0,2.9,0,4.1,0 C302.4,347.1,302.4,347.1,300.6,344.8z M414,409.4c-1.2-0.6-1.2,0-1.8,0.6c-0.6,3.5-2.3,7-4.7,10c0,0-0.6,0.6,0,0.6 C409.8,419.4,412.8,414.1,414,409.4z M389.3,423.5c1.2,1.2,2.3,1.2,3.5,1.2c0.6,0,1.2,0,1.2-0.6c0.6-0.6,0.6-1.2,0-1.8 c-0.6-0.6-1.8-1.2-2.9-1.2C390.5,422.3,389.9,422.3,389.3,423.5z M372.8,416.4c1.2,1.8,2.9,2.3,4.7,2.9c0.6,0.6,1.2,0,1.8-1.2 c-1.8-1.2-2.9-1.8-4.7-2.3C373.4,415.8,373.4,416.4,372.8,416.4z M358.2,371.8c-1.2,0-1.8,0.6-1.8,1.8c0,0.6-0.6,1.2,0,1.8 c0.6,0.6,1.2,0.6,1.8,0.6s1.2-0.6,1.8-1.8c0-0.6,0-1.2,0-1.8C358.7,371.8,358.2,371.8,358.2,371.8z M320.6,341.8 c0-0.6-1.2-1.8-2.3-1.2c-0.6,0-1.2,0.6-1.2,1.2c0,0.6,0,1.2,0.6,1.2c0.6,0,1.2,0.6,1.8,0.6S320.6,342.4,320.6,341.8z M303.5,349.5 c1.2-1.2,1.2-1.8,1.2-2.9s0-1.8-0.6-2.9c0-0.6-0.6-0.6-1.8,0c0.6,1.2,1.2,1.8,1.2,2.9C303.5,347.1,303.5,348.3,303.5,349.5z M290.6,349.5c-0.6,0-1.8-0.6-2.3-0.6c-0.6,0-1.2,0.6-1.2,1.8c0,0.6,0.6,0.6,1.2,0.6C289.4,351.2,290,350.6,290.6,349.5z M350.5,387.1c0,0,0.6-0.6,0.6-1.2s-1.2-1.2-2.3-1.2c-0.6,0-0.6,0.6-0.6,1.2C348.8,387.1,349.3,387.6,350.5,387.1z M352.9,381.8 c0.6,0,1.2,0.6,1.2,0.6c0.6,0,1.2-0.6,0.6-1.2c0-0.6-0.6-1.2-1.2-0.6C353.5,380,352.9,381.2,352.9,381.8z M311.8,351.8 c-1.2,0-1.2,0.6-1.2,1.2l0.6,0.6c0.6,0,1.2-0.6,1.2-1.2S312.3,351.8,311.8,351.8z M314.7,345.9c-0.6,0.6-0.6,1.2-0.6,1.8 s0.6,0.6,1.2,0.6s1.2-0.6,0.6-1.2C315.9,346.5,315.3,346.5,314.7,345.9z M395.7,424.1c0.6,0,0.6,0,1.2,0c0,0,0,0,0-0.6 c-0.6,0-0.6,0-1.2,0C395.7,424.1,395.7,424.1,395.7,424.1z"></path> <path style="fill-rule:evenodd;clip-rule:evenodd;fill:#FFFFFF;" d="M302.4,325.4c-2.9,4.1-6.5,7.6-10,10.6c-1.2,0-1.8,0-2.3-0.6 c-5.3-4.1-10.6-8.2-15.9-12.3c-1.8-1.2-2.9-2.9-4.7-4.1c-1.2-1.2-2.3-1.8-3.5-2.9c-1.8-1.8-4.1-2.9-5.9-4.7c-2.9-2.3-5.9-4.7-8.2-7 c-2.9-2.3-5.9-4.7-8.8-7c-2.9-2.3-5.3-4.7-8.2-7c-2.3-1.8-4.1-3.5-6.5-5.3c-4.7-3.5-8.8-7-13.5-10.6c-3.5-2.9-7.6-6.5-11.2-10 c-1.8-1.8-4.1-3.5-5.9-5.3c-2.9-2.3-5.3-5.3-7.6-7.6c-1.8-1.8-3.5-3.5-5.3-5.3c-3.5-3.5-6.5-7-10-10.6c-1.2-2.3-3.5-3.5-5.3-5.9 c-2.9-2.9-5.3-6.5-8.2-9.4c-2.3-2.9-5.3-6.5-7.6-9.4c-1.8-2.3-3.5-4.7-4.7-7c-3.5-4.7-6.5-10-10-14.7c-0.6-0.6-0.6-1.2-1.2-1.8 c-0.6-1.8-1.8-2.9-2.9-4.7c-5.3-6.5-9.4-14.1-13.5-21.1c-1.8-2.9-3.5-6.5-4.7-9.4c-1.8-2.9-2.9-5.9-4.1-9.4 c-1.8-3.5-3.5-7-4.7-10.6c-2.3-4.7-4.1-9.4-5.9-14.7c-4.1-8.2-6.5-15.3-8.8-22.9c-0.6-1.8-1.2-3.5-1.2-5.3c0,0,0,0,0.6,0 c2.3,2.9,4.7,5.3,6.5,8.8c2.9,5.3,6.5,10.6,10,15.3c4.1,5.9,8.8,11.2,12.9,17c3.5,4.7,7.6,10,11.2,14.7c2.3,3.5,5.3,6.5,7.6,9.4 c2.9,3.5,6.5,6.5,10,8.8c2.9,1.8,6.5,3.5,9.4,5.3c3.5,1.8,7.6,3.5,11.2,5.3c0.6,0.6,1.8,0.6,2.3,1.2c1.2,0.6,2.3,2.3,2.9,3.5 c1.2,3.5,2.3,7,3.5,10.6c0.6,2.3,1.2,4.1,2.3,6.5s1.8,4.1,2.3,6.5c0.6,1.2,0.6,2.3,1.8,3.5c1.2,1.2,1.8,2.9,2.9,4.7 c1.2,2.9,2.9,5.9,4.1,8.8c1.2,2.3,2.3,4.1,3.5,6.5c0.6,1.2,1.8,2.3,2.3,3.5c1.8,2.3,3.5,5.3,5.3,7c0.6,0.6,1.2,1.8,1.8,2.3 c3.5,4.7,6.5,9.4,10,13.5c0.6,1.2,1.8,2.3,2.9,2.9c4.1,4.1,8.2,8.8,12.3,12.9c0.6,0.6,1.8,1.8,2.9,2.3c4.1,3.5,7,7,10.6,10.6 c2.9,2.9,5.9,5.9,8.2,8.8c0.6,0.6,1.8,1.8,2.3,2.3c1.8,1.8,3.5,3.5,5.3,4.7c1.2,0.6,2.3,1.8,2.9,2.3c5.9,5.3,12.3,10,19.4,14.1 c5.3,3.5,10.6,6.5,15.9,9.4C300.6,324.2,301.8,324.8,302.4,325.4z"></path> <path style="fill-rule:evenodd;clip-rule:evenodd;fill:#FFFFFF;" d="M289.4,339.5c-1.2,1.2-1.8,2.9-2.9,4.1c-1.2,0-1.8-0.6-2.9-1.2 c-2.3-1.8-4.7-4.1-7-5.9c-7-5.3-13.5-10.6-20.6-15.9c-4.1-2.9-7.6-6.5-11.7-9.4c-6.5-5.3-12.9-11.2-19.4-16.4 c-2.3-2.3-5.3-4.1-7.6-6.5c-2.9-2.3-6.5-4.7-9.4-7.6c-1.8-1.2-2.9-2.9-5.3-3.5c-0.6,0-1.2-0.6-1.8-1.2c-3.5-2.3-6.5-5.3-10-7.6 c-0.6-0.6-1.8-1.8-2.3-2.3c-1.8-1.8-3.5-2.9-5.3-4.7c-1.8-1.8-3.5-3.5-5.3-4.7c-4.1-2.9-7.6-7-11.7-10.6c-2.9-2.9-5.9-5.3-8.2-8.2 c-2.9-2.9-5.9-6.5-8.8-9.4c-0.6-0.6-0.6-0.6-1.2-1.2c-5.3-5.3-9.4-11.2-14.1-17c-2.9-3.5-5.3-7-8.2-10.6c-1.8-2.3-2.3-4.7-3.5-7 c-0.6-0.6-0.6-1.8-1.2-2.3c-0.6-2.3-1.8-4.7-2.9-7c-0.6-1.8-1.2-2.9-1.8-4.7c-1.2-3.5-2.9-7-4.1-10.6c-2.9-6.5-5.3-12.9-7.6-20 c-0.6-1.2-1.2-2.3-1.8-4.1c-2.3-5.3-4.7-11.2-5.9-16.4c0-2.3-1.2-5.3-1.8-7.6c-1.8-6.5-3.5-12.9-4.7-19.4c0-2.3-0.6-4.1-0.6-6.5 c0-0.6-0.6-1.8,0-2.3c0.6,0,0.6,0.6,0.6,1.2c1.2,2.9,2.3,5.9,3.5,9.4c0.6,1.8,1.2,3.5,1.8,5.3c1.8,5.3,4.1,10.6,5.9,15.3 c1.8,4.1,2.9,8.2,4.7,12.3c0.6,1.2,1.2,2.3,1.8,3.5c1.8,3.5,3.5,7,5.3,10.6c0.6,1.2,1.2,2.3,1.8,3.5c1.8,4.7,3.5,8.8,6.5,12.9 c0.6,1.2,1.2,2.3,1.8,3.5c1.8,2.9,2.9,5.9,4.7,9.4c0.6,1.2,1.2,2.3,2.3,2.9c3.5,4.1,6.5,8.2,9.4,12.3c3.5,5.3,7.6,11.2,11.7,16.4 c3.5,4.1,6.5,8.2,10.6,12.3c0.6,0.6,1.2,1.2,1.8,1.8c3.5,4.7,7.6,8.8,11.7,12.9c2.3,2.3,4.7,4.7,7,7.6c1.2,1.2,1.8,1.8,2.9,2.9 c2.3,2.3,4.7,4.7,7,6.5c2.9,2.9,5.9,5.3,8.8,8.2c3.5,2.9,6.5,5.9,10,8.8c4.7,4.7,10,8.8,15.3,12.9c2.3,1.8,4.1,3.5,6.5,5.9l0.6,0.6 c3.5,1.8,5.9,4.7,8.2,7c2.3,1.8,4.1,4.1,6.5,5.9c2.9,2.9,6.5,5.3,9.4,7.6c4.7,4.1,9.4,8.2,14.7,11.7c4.7,4.1,9.4,7.6,14.1,11.7 c1.2,1.2,2.9,2.3,4.1,3.5C289.4,338.3,289.4,338.9,289.4,339.5z"></path> <path style="fill-rule:evenodd;clip-rule:evenodd;fill:#FFFFFF;" d="M342.9,383.5c-1.8-1.2-2.3-2.3-3.5-4.1 c2.3-2.9,4.1-5.9,6.5-8.2c1.8-2.9,3.5-5.9,5.9-8.8c0.6,0.6,1.2,0.6,1.2,1.2c0.6,0.6,0.6,0.6,1.2,1.2c0,4.1-1.2,7.6-3.5,10.6 c-1.8,2.3-3.5,4.7-5.3,7C344.1,382.4,343.5,382.9,342.9,383.5z"></path> <path style="fill-rule:evenodd;clip-rule:evenodd;fill:#FFFFFF;" d="M368.1,412.3c3.5-2.3,7-4.7,10-7.6c2.3-2.9,4.7-6.5,6.5-10.6 c1.2,0.6,1.8,1.2,2.9,1.8c-1.8,5.3-4.7,9.4-8.2,13.5c-1.8,2.3-4.1,3.5-6.5,5.3c-1.2,0.6-1.8,0.6-2.3,0 C369.3,414.1,368.7,413.5,368.1,412.3z"></path> <path style="fill-rule:evenodd;clip-rule:evenodd;fill:#FFFFFF;" d="M379.9,390.6c0.6,0,0.6,0,0.6,0.6c0.6,0.6,1.2,1.2,1.8,1.8 c-1.8,6.5-10,15.9-15.9,18.2c-1.2-0.6-1.2-0.6-2.3-1.8c5.3-2.3,8.2-6.5,11.2-11.2c1.2-1.8,2.3-4.1,2.9-6.5 C379.3,391.2,379.9,391.2,379.9,390.6z"></path> <path style="fill-rule:evenodd;clip-rule:evenodd;fill:#FFFFFF;" d="M327,342.4c-1.8,4.7-7.6,12.9-11.2,15.3 c-0.6-0.6-1.2-1.2-1.8-1.2c0.6-1.8,0.6-3.5,1.2-5.3c0.6-0.6,2.3,0,2.9-1.8c0.6-1.2,0.6-2.3,1.2-3.5c1.2-0.6,2.3-0.6,2.9-1.8 c0.6-1.2,0.6-2.3,1.2-4.1C324.7,341.2,325.9,341.8,327,342.4z"></path> <path style="fill-rule:evenodd;clip-rule:evenodd;fill:#FFFFFF;" d="M363.4,407.6c-0.6-0.6-1.8-1.2-1.8-2.3 c1.2-1.2,1.8-1.8,2.9-2.9c2.9-0.6,2.9-0.6,4.1-2.3c2.9-0.6,2.9-0.6,2.9-3.5c0.6-0.6,1.8-1.2,1.8-2.9l0.6-0.6 c1.2-0.6,1.2-1.8,1.2-2.9c0.6-0.6,1.8-1.8,2.3-2.3c0.6,0.6,1.2,0.6,1.8,1.2c-0.6,1.8-1.2,3.5-2.3,5.3c-2.3,4.1-5.3,7.6-8.8,11.2 C366.4,406.4,365.8,407,363.4,407.6z"></path> <path style="fill-rule:evenodd;clip-rule:evenodd;fill:#FFFFFF;" d="M350.5,392.9c-0.6-0.6-1.2-1.2-1.8-1.8c0-0.6,0.6-0.6,1.2-0.6 c2.3-1.2,2.9-1.8,2.9-4.7v-0.6c0.6,0,1.2,0,2.3-0.6c2.9-0.6,4.1-2.9,2.9-5.9c0-0.6-0.6-0.6-0.6-1.2c2.9-1.8,2.3-0.6,4.7-4.7 c1.2,0,1.2,1.2,1.8,1.8c-1.2,2.9-2.3,6.5-4.1,9.4c-1.8,3.5-4.7,5.9-7.6,8.8C351.7,392.3,351.1,392.3,350.5,392.9z"></path> <path style="fill-rule:evenodd;clip-rule:evenodd;fill:#FFFFFF;" d="M383.4,422.9c0.6-0.6,0.6-0.6,1.2-1.2c2.3-2.3,4.7-4.1,7-6.5 c1.2-1.2,1.8-2.3,2.3-3.5c1.2-2.3,2.3-4.7,3.5-7c1.2,0,1.8,0.6,2.3,1.2c-0.6,2.3-2.3,4.7-3.5,7c-0.6,0.6-1.2,1.2-1.2,2.3 c0,0,0,0.6-0.6,0.6c-2.3,2.3-4.1,5.3-7,7.6C386.3,424.1,385.2,424.1,383.4,422.9z"></path> <path style="fill-rule:evenodd;clip-rule:evenodd;fill:#FFFFFF;" d="M342.9,354.2c0.6,0.6,1.2,0.6,1.8,1.2 c-1.2,3.5-2.9,6.5-5.3,8.8c-0.6,0.6-1.2,1.8-1.8,2.3c-1.8,1.8-2.9,3.5-4.7,5.3c-1.8-1.2-1.8-1.2-2.9-2.3c1.2,0,2.3-1.2,2.9-2.3 l0.6-0.6c1.8-0.6,2.3-1.8,1.8-3.5c1.2-0.6,2.3-1.2,2.3-2.9c0-0.6,0.6-0.6,0.6-1.2c1.2-0.6,1.8-1.2,1.8-2.3c0-0.6,0.6-0.6,0.6-1.2 C341.7,355.3,342.3,354.7,342.9,354.2z"></path> <path style="fill-rule:evenodd;clip-rule:evenodd;fill:#FFFFFF;" d="M369.9,380.6c-1.2,4.1-3.5,7.6-5.9,10.6 c-2.3,2.9-5.3,5.3-8.8,7c-0.6-0.6-1.2-1.2-1.8-1.8c0.6-1.2,1.8-1.8,2.9-2.3c3.5-1.8,5.9-4.7,8.2-8.2c1.2-1.8,1.8-4.1,2.9-6.5 c0-0.6,0.6-1.2,0.6-1.8C369.3,378.8,369.3,380,369.9,380.6z"></path> <path style="fill-rule:evenodd;clip-rule:evenodd;fill:#FFFFFF;" d="M351.7,394.1c0.6-0.6,1.8-1.2,2.3-2.3c4.7-3.5,7-8.2,9.4-13.5 c0.6-1.2,0.6-1.8,1.2-2.9c0.6,0.6,1.2,0.6,1.8,1.2c-0.6,2.3-1.8,4.7-2.3,7.6c-1.2,2.9-2.9,5.3-5.3,7c-1.8,1.8-4.1,2.9-5.9,4.1 C352.3,395.3,351.7,395.3,351.7,394.1z"></path> <path style="fill-rule:evenodd;clip-rule:evenodd;fill:#FFFFFF;" d="M394.6,401.7c0.6,0.6,1.2,1.2,1.8,1.2 c-1.8,2.9-2.9,5.9-4.7,8.8c0,0.6-0.6,1.2-1.2,1.2c-2.9,2.9-5.9,5.9-9.4,8.8c-0.6-0.6-1.2-0.6-2.3-1.2c0-0.6,0-0.6,0-0.6 c1.8-1.2,3.5-2.9,5.3-4.1c2.9-2.3,5.3-5.9,7.6-8.8c0.6-0.6,0.6-1.8,1.2-2.3C394,404.1,394,403.5,394.6,401.7z"></path> <path style="fill-rule:evenodd;clip-rule:evenodd;fill:#FFFFFF;" d="M354.6,366.5c1.2,0.6,1.8,1.2,2.9,2.3 c-0.6,0.6-1.2,0.6-1.2,0.6c-2.9,1.2-3.5,2.9-2.3,5.3c0,0.6,0.6,0.6,0.6,1.2c-1.2,0.6-1.8,1.2-2.9,1.8c-1.2,0.6-1.8,1.8-1.8,3.5v0.6 c-0.6,0.6-1.8,0.6-2.3,1.8c-0.6,0.6-1.2,1.8-1.8,2.3c-0.6-0.6-0.6-0.6-1.2-1.2c0-0.6,0.6-1.2,0.6-1.8c1.2-1.8,2.3-3.5,4.1-5.3 c2.9-3.5,4.7-7,5.9-11.2C354.6,367.1,354.6,366.5,354.6,366.5z"></path> <path style="fill-rule:evenodd;clip-rule:evenodd;fill:#FFFFFF;" d="M329.4,343.6c0.6,0,0.6,0,1.2,0.6l0.6,0.6 c-1.8,6.5-5.9,11.2-10.6,15.9c-0.6-0.6-1.2-1.2-1.8-1.2C323.5,353,325.3,350.6,329.4,343.6z"></path> <path style="fill-rule:evenodd;clip-rule:evenodd;fill:#FFFFFF;" d="M336.4,375.9c4.1-5.3,8.8-10.6,11.7-16.4 c1.2,0,1.8,0.6,1.2,1.2c-0.6,1.2-1.2,2.9-2.3,4.1c-1.2,1.8-1.8,2.9-2.9,4.7c-1.8,2.3-3.5,4.7-5.3,7 C338.2,378.2,337.6,377.7,336.4,375.9z"></path> <path style="fill-rule:evenodd;clip-rule:evenodd;fill:#FFFFFF;" d="M335.3,374.7c-0.6,0-0.6-0.6-0.6-0.6s-0.6-0.6-0.6-1.2 c1.8-1.8,2.9-3.5,4.1-5.3c1.8-1.8,2.9-3.5,4.1-5.3c1.2-1.8,2.3-4.1,3.5-5.9c0.6,0.6,1.2,1.2,1.8,1.2 C344.6,364.7,339.9,369.4,335.3,374.7z"></path> <path style="fill-rule:evenodd;clip-rule:evenodd;fill:#FFFFFF;" d="M401,422.9c0-1.2,0-1.8,0-2.3c0.6-0.6,1.8-0.6,2.3-1.2 s0.6-1.8,0.6-2.3l0,0c2.3-1.2,2.3-1.2,2.3-4.1c1.8-0.6,2.3-1.8,1.8-3.5c1.2,0,1.8,0,2.3,0.6c0,2.3-0.6,4.1-1.8,5.9 c-1.2,2.3-2.9,4.1-4.7,6.5C404,422.9,403.4,422.9,401,422.9z"></path> <path style="fill-rule:evenodd;clip-rule:evenodd;fill:#FFFFFF;" d="M322.3,361.8c2.3-2.9,4.1-5.3,6.5-7.6c1.2-1.8,2.3-3.5,2.9-5.3 c0-0.6,0.6-1.2,0.6-1.8c0.6-1.2,1.2-1.2,2.3,0c0,0.6-0.6,1.2-0.6,1.8c-2.3,4.7-5.3,8.8-8.8,12.3c-0.6,0.6-1.2,0.6-1.2,1.2 C322.9,363,322.3,362.4,322.3,361.8z"></path> <path style="fill-rule:evenodd;clip-rule:evenodd;fill:#FFFFFF;" d="M301.2,331.3c1.2-1.2,2.3-2.3,2.9-3.5c2.3,0,4.7,0.6,6.5,1.8 c-1.2,1.8-2.3,2.9-3.5,3.5C305.3,332.4,303.5,331.8,301.2,331.3z"></path> <path style="fill-rule:evenodd;clip-rule:evenodd;fill:#FFFFFF;" d="M422.2,411.1c-0.6,5.3-0.6,4.7-4.1,6.5 c-0.6,0.6-1.8,0.6-2.9,1.2c1.2-1.8,1.8-3.5,2.3-4.7c0.6-1.8,1.2-2.9,1.8-4.7C420.4,410,421.6,410,422.2,411.1z"></path> <path style="fill-rule:evenodd;clip-rule:evenodd;fill:#FFFFFF;" d="M293,341.8c0.6-1.8,1.2-2.3,2.3-3.5c0,0,0.6-0.6,1.2-0.6 c1.8,0,3.5,0,4.7,1.2c-0.6,1.2-1.8,1.8-2.3,2.3c-0.6,0.6-1.2,1.8-1.8,2.3c-0.6-0.6-1.2-0.6-1.8-1.2 C294.1,343,293.5,342.4,293,341.8z"></path> <path style="fill-rule:evenodd;clip-rule:evenodd;fill:#FFFFFF;" d="M305.9,326c0.6-1.2,1.8-1.8,2.3-2.3c0.6-0.6,1.2-0.6,1.8-0.6 c1.8,0,3.5,0,5.3,1.2c0,0.6-0.6,0.6-0.6,1.2c-0.6,1.2-1.8,1.8-2.3,2.9C310,327.7,308.2,327.1,305.9,326z"></path> <path style="fill-rule:evenodd;clip-rule:evenodd;fill:#FFFFFF;" d="M305.3,339.5c0-0.6,0.6-0.6,0.6-1.2c0.6,0,0.6,0,1.2,0 c1.8,1.2,2.3,2.3,3.5,4.1c0,0.6,0.6,1.2,0.6,1.8c0,2.3,0,2.3,0.6,4.1c-0.6,0.6-1.8,1.2-2.9,1.8c-0.6-1.2,0-2.9,0-4.1 c0-1.2-0.6-2.3-0.6-3.5C307.6,341.8,306.5,340.7,305.3,339.5C305.9,339.5,305.3,339.5,305.3,339.5z"></path> <path style="fill-rule:evenodd;clip-rule:evenodd;fill:#FFFFFF;" d="M300,332.4c1.8,0.6,3.5,0.6,5.3,1.8c-1.2,1.8-2.3,2.3-3.5,3.5 c-1.8-0.6-2.9-1.2-4.7-1.8C298.2,334.8,298.8,333.6,300,332.4z"></path> <path style="fill-rule:evenodd;clip-rule:evenodd;fill:#FFFFFF;" d="M314.7,340.7c-1.2-2.3-2.3-4.1-4.7-5.3 c0.6-1.2,1.2-1.8,1.8-1.2c2.3,1.2,4.1,1.8,6.5,3.5c-0.6,0.6-1.2,1.2-1.8,1.8C315.9,339.5,315.3,340.1,314.7,340.7z"></path> <path style="fill-rule:evenodd;clip-rule:evenodd;fill:#FFFFFF;" d="M400.4,407c1.8,0.6,2.9,0.6,4.7,1.2c1.2,0.6,1.8,1.2,1.8,2.9 c-0.6,0.6-1.2,0.6-2.3,0.6c-1.8-0.6-3.5-1.2-5.3-1.8C399.9,408.8,400.4,407.6,400.4,407z"></path> <path style="fill-rule:evenodd;clip-rule:evenodd;fill:#FFFFFF;" d="M395.2,417c0.6-1.2,1.2-1.8,1.2-2.3c2.3,0.6,4.1,1.2,5.9,2.3 l0,0c0,0.6,0.6,0.6,0,1.2l-0.6,0.6c-0.6,0-1.2,0-1.8,0C398.1,418.8,396.9,418.2,395.2,417z"></path> <path style="fill-rule:evenodd;clip-rule:evenodd;fill:#FFFFFF;" d="M389.9,408.2c-0.6,0.6-1.2,1.2-1.8,1.8 c-1.8-1.2-3.5-1.8-4.7-3.5c0-1.2,1.2-1.8,1.8-2.3C388.1,405.8,388.1,405.8,389.9,408.2z"></path> <path style="fill-rule:evenodd;clip-rule:evenodd;fill:#FFFFFF;" d="M392.2,404.1c0,1.2-0.6,1.8-1.2,2.9c-1.2-1.2-3.5-2.3-4.7-4.1 c0.6-0.6,0.6-1.8,1.2-2.3C389.3,401.1,390.5,402.9,392.2,404.1z"></path> <path style="fill-rule:evenodd;clip-rule:evenodd;fill:#FFFFFF;" d="M397.5,412.9c0.6-1.8,1.2-2.3,2.3-1.8c1.2,0.6,2.9,0.6,4.1,1.2 c0.6,0,1.2,0.6,1.2,1.8c0,0.6-1.2,1.2-1.8,1.2h-0.6c-0.6,0-1.2-0.6-1.8-0.6C399.9,414.1,398.7,413.5,397.5,412.9z"></path> <path style="fill-rule:evenodd;clip-rule:evenodd;fill:#FFFFFF;" d="M410.4,420.5c0-0.6,0-0.6,0.6-1.2c1.8-2.3,2.9-4.7,3.5-7 c0.6-0.6,0.6-1.8,1.2-2.3c0.6-0.6,1.2-0.6,1.8,0c-1.2,3.5-2.3,7-4.7,10C412.2,420.5,411.6,420.5,410.4,420.5z"></path> <path style="fill-rule:evenodd;clip-rule:evenodd;fill:#FFFFFF;" d="M362.3,395.9c0.6-0.6,1.2-1.2,1.8-1.8c0.6,0.6,1.2,0.6,1.8,0.6 c1.2,0.6,2.3,1.2,3.5,2.3c0.6,0.6,0.6,1.2,0.6,1.2c0,0.6-0.6,0.6-1.2,0.6c-0.6,0-1.2,0-1.8,0C365.8,397.6,364,396.4,362.3,395.9z"></path> <path style="fill-rule:evenodd;clip-rule:evenodd;fill:#FFFFFF;" d="M288.9,347.7c0.6-1.8,1.8-2.9,2.3-4.1c2.3,0.6,2.3,0.6,3.5,1.8 c-1.2,1.2-1.8,2.3-3.5,3.5C291.2,348.3,290,348.3,288.9,347.7z"></path> <path style="fill-rule:evenodd;clip-rule:evenodd;fill:#FFFFFF;" d="M315.9,323c-1.8-0.6-3.5-1.2-5.9-1.2c0.6-0.6,1.2-1.2,1.8-1.8 l0.6-0.6c1.2-0.6,2.9-0.6,3.5,0c0,0.6,0.6,0.6,0.6,1.2C317,321.9,316.5,322.4,315.9,323z"></path> <path style="fill-rule:evenodd;clip-rule:evenodd;fill:#FFFFFF;" d="M330,358.9c0.6-1.2,1.2-1.8,1.8-2.3c1.2,1.2,2.9,2.3,4.1,2.9 c0.6,0.6,0.6,1.2,0.6,1.8c0,0.6-1.2,1.2-1.8,0.6c-0.6,0-0.6,0-1.2-0.6C332.3,360.6,331.7,359.4,330,358.9z"></path> <path style="fill-rule:evenodd;clip-rule:evenodd;fill:#FFFFFF;" d="M369.9,386.5c0-1.2,0.6-2.3,1.2-2.9c1.8,0.6,2.9,1.8,4.1,2.9 c0.6,0.6,0.6,1.2,0,1.8c-0.6,0.6-1.2,0.6-1.8,0.6C372.3,387.6,371.1,387.1,369.9,386.5z"></path> <path style="fill-rule:evenodd;clip-rule:evenodd;fill:#FFFFFF;" d="M332.9,354.7c0-0.6,0.6-0.6,0.6-1.2l0.6-0.6h0.6 c1.2,0.6,2.3,1.8,4.1,2.3c0.6,0.6,1.2,1.2,0.6,1.8s-1.8,0.6-2.3,0.6C335.3,357.1,334.1,355.9,332.9,354.7z"></path> <path style="fill-rule:evenodd;clip-rule:evenodd;fill:#FFFFFF;" d="M312.3,344.8c-0.6-3.5-2.3-5.3-4.7-7c0-0.6,0.6-1.2,1.2-1.8 c2.3,1.8,4.1,3.5,4.7,7C313.5,343.6,313.5,343.6,312.3,344.8z"></path> <path style="fill-rule:evenodd;clip-rule:evenodd;fill:#FFFFFF;" d="M304.7,340.7c2.9,2.3,3.5,6.5,1.8,10.6c-0.6,0-0.6,0-1.2-0.6 c0-0.6,0-0.6,0-0.6v-0.6c0.6-2.3,0.6-5.3-1.2-7.6C303.5,341.2,304.1,341.2,304.7,340.7z"></path> <path style="fill-rule:evenodd;clip-rule:evenodd;fill:#FFFFFF;" d="M384.6,414.1c0,1.2-1.2,1.2-1.8,1.8c-1.8-0.6-2.9-1.8-4.7-2.9 c0-1.2,0.6-1.8,1.8-1.8C381.7,411.7,383.4,412.3,384.6,414.1z"></path> <path style="fill-rule:evenodd;clip-rule:evenodd;fill:#FFFFFF;" d="M392.8,419.9c0.6-0.6,1.2-1.2,1.2-1.8c2.3,0.6,4.1,1.2,5.3,2.9 c0,0.6-0.6,1.2-1.2,1.2c-0.6,0-1.8,0-2.3-0.6C395.2,421.7,394,421.1,392.8,419.9z"></path> <path style="fill-rule:evenodd;clip-rule:evenodd;fill:#FFFFFF;" d="M366.4,400.6c-1.2,0.6-2.9,1.2-4.1-0.6 c-0.6-0.6-1.8-1.2-2.9-2.3c0.6-0.6,1.2-1.2,1.8-1.2c1.8,1.2,3.5,1.8,5.3,3.5C366.4,400,366.4,400.6,366.4,400.6z"></path> <path style="fill-rule:evenodd;clip-rule:evenodd;fill:#FFFFFF;" d="M324.7,364.1c0.6-0.6,1.2-0.6,1.8-1.2c0.6,0.6,1.2,0.6,1.8,1.2 c0.6,0.6,1.8,1.2,2.3,1.8c0.6,0.6,0.6,1.2,0.6,1.8c-0.6,0.6-1.2,0.6-1.8,0c-0.6,0-1.2-0.6-1.2-0.6 C326.4,365.9,325.9,365.3,324.7,364.1z"></path> <path style="fill-rule:evenodd;clip-rule:evenodd;fill:#FFFFFF;" d="M377.5,412.9c1.2,1.8,2.9,2.3,4.1,3.5 c-0.6,0.6-1.2,0.6-1.2,1.2c-1.8-0.6-3.5-1.2-5.3-2.9C375.8,414.7,377,414.1,377.5,412.9z"></path> <path style="fill-rule:evenodd;clip-rule:evenodd;fill:#FFFFFF;" d="M336.4,349.5c1.8,1.2,2.9,2.3,4.7,4.1v0.6l-0.6,0.6 c-0.6,0-1.2-0.6-2.3-0.6c-1.2-0.6-2.3-1.2-2.9-2.3C334.7,350.6,335.3,349.5,336.4,349.5z"></path> <path style="fill-rule:evenodd;clip-rule:evenodd;fill:#FFFFFF;" d="M327.6,361.2c0.6-0.6,1.2-1.2,1.8-1.8c1.8,1.2,2.9,2.3,4.7,3.5 v1.2c0,0-0.6,0.6-1.2,0.6s-1.2-0.6-1.2-0.6C330,363.6,328.8,362.4,327.6,361.2z"></path> <path style="fill-rule:evenodd;clip-rule:evenodd;fill:#FFFFFF;" d="M356.4,400c1.8-1.2,1.8-1.2,2.9,0c0.6,0.6,1.8,1.2,2.3,2.3 c0,0,0,0.6,0,1.2l-0.6,0.6c-0.6,0-1.2,0-1.8-0.6l-0.6-0.6c-0.6-0.6-1.2-1.2-1.8-1.8C357,400.6,357,400,356.4,400z"></path> <path style="fill-rule:evenodd;clip-rule:evenodd;fill:#FFFFFF;" d="M387.5,398.8c0.6-0.6,0.6-1.2,1.2-1.8c1.2,0.6,1.8,1.2,2.3,1.8 c0.6,0.6,1.8,1.2,2.3,1.8c0,0.6-0.6,1.2-0.6,1.8c-0.6,0-0.6,0-0.6,0C390.5,401.7,388.7,400.6,387.5,398.8z"></path> <path style="fill-rule:evenodd;clip-rule:evenodd;fill:#FFFFFF;" d="M367.6,389.4c0.6-0.6,0.6-1.2,1.2-1.8c1.8,0.6,2.9,1.2,4.1,2.3 l0.6,0.6c0.6,0.6,0,1.2-0.6,1.2h-0.6C370.5,391.2,369.3,390.6,367.6,389.4z"></path> <path style="fill-rule:evenodd;clip-rule:evenodd;fill:#FFFFFF;" d="M387.5,411.1c-0.6,0.6-1.2,1.2-1.2,1.8 c-1.8-0.6-3.5-1.8-4.7-2.9c0-0.6,0-0.6,0-1.2s0.6-0.6,0.6-1.2C384,408.8,385.8,410,387.5,411.1z"></path> <path style="fill-rule:evenodd;clip-rule:evenodd;fill:#FFFFFF;" d="M365.8,392.3c0.6-0.6,1.2-1.2,1.2-1.2c1.2,0.6,2.3,1.2,4.1,1.8 c0.6,0,0.6,0.6,0.6,0.6s0,0.6,0,1.2c0,0-0.6,0.6-1.2,0.6h-0.6C368.7,394.1,367,393.5,365.8,392.3z"></path> <path style="fill-rule:evenodd;clip-rule:evenodd;fill:#FFFFFF;" d="M300.6,344.8c1.8,2.3,1.8,2.3,1.2,4.1c-1.2,0-2.9,0-4.1,0 C297.7,347.1,299.4,345.9,300.6,344.8z"></path> <path style="fill-rule:evenodd;clip-rule:evenodd;fill:#FFFFFF;" d="M414,409.4c-1.2,4.7-4.1,9.4-6.5,11.7c-0.6-0.6,0-0.6,0-0.6 c2.3-2.9,4.1-6.5,4.7-10C412.8,410,412.8,409.4,414,409.4z"></path> <path style="fill-rule:evenodd;clip-rule:evenodd;fill:#FFFFFF;" d="M389.3,423.5c1.2-0.6,1.8-1.2,2.3-1.8c1.2,0,1.8,0.6,2.9,1.2 c0.6,0.6,0.6,1.2,0,1.8c-0.6,0-0.6,0.6-1.2,0.6C391.6,424.6,390.5,424.1,389.3,423.5z"></path> <path style="fill-rule:evenodd;clip-rule:evenodd;fill:#FFFFFF;" d="M372.8,416.4c0.6,0,1.2-0.6,1.2-0.6c1.8,0.6,3.5,1.8,4.7,2.3 c-0.6,1.2-1.2,1.8-1.8,1.2C375.8,418.8,374,418.2,372.8,416.4z"></path> <path style="fill-rule:evenodd;clip-rule:evenodd;fill:#FFFFFF;" d="M358.2,371.8c0,0,0.6,0,1.2,0.6c0.6,0.6,0.6,1.2,0,1.8 c0,0.6-0.6,1.2-1.8,1.8c-0.6,0-1.2,0-1.8-0.6c-0.6-0.6,0-1.2,0-1.8C356.4,372.4,357,371.8,358.2,371.8z"></path> <path style="fill-rule:evenodd;clip-rule:evenodd;fill:#FFFFFF;" d="M320.6,341.8c0,0.6-0.6,1.8-1.2,1.8c-0.6,0-1.2,0-1.8-0.6 c-0.6,0-0.6-0.6-0.6-1.2s0.6-0.6,1.2-1.2C319.4,340.1,320.6,340.7,320.6,341.8z"></path> <path style="fill-rule:evenodd;clip-rule:evenodd;fill:#FFFFFF;" d="M303.5,349.5c0-1.2,0-2.3,0-3.5c0-1.2-0.6-1.8-1.2-2.9 c1.2-0.6,1.8-0.6,1.8,0c0.6,1.2,0.6,1.8,0.6,2.9C304.1,347.7,304.7,348.9,303.5,349.5z"></path> <path style="fill-rule:evenodd;clip-rule:evenodd;fill:#FFFFFF;" d="M290.6,349.5c-0.6,1.2-1.2,1.8-2.3,1.8c-0.6,0-1.2-0.6-1.2-0.6 c0-0.6,0.6-1.8,1.2-1.8S290,349.5,290.6,349.5z"></path> <path style="fill-rule:evenodd;clip-rule:evenodd;fill:#FFFFFF;" d="M350.5,387.1c-1.2,0.6-1.8,0-2.3-1.2c0-0.6,0-1.2,0.6-1.2 c1.2,0,2.3,0.6,2.3,1.2S350.5,387.1,350.5,387.1z"></path> <path style="fill-rule:evenodd;clip-rule:evenodd;fill:#FFFFFF;" d="M352.9,381.8c0-0.6,0-1.8,1.2-1.8c0.6,0,1.2,0,1.2,0.6 c0,0.6,0,1.2-0.6,1.2C354,382.4,353.5,381.8,352.9,381.8z"></path> <path style="fill-rule:evenodd;clip-rule:evenodd;fill:#FFFFFF;" d="M311.8,351.8l0.6,0.6c0,0.6-0.6,1.2-1.2,1.2c0,0-0.6,0-0.6-0.6 C310.6,352.4,311.2,351.8,311.8,351.8z"></path> <path style="fill-rule:evenodd;clip-rule:evenodd;fill:#FFFFFF;" d="M314.7,345.9c0.6,0.6,1.2,0.6,1.2,1.2s0,1.2-0.6,1.2 s-1.2-0.6-1.2-0.6C314.1,347.1,314.7,346.5,314.7,345.9z"></path> <path style="fill-rule:evenodd;clip-rule:evenodd;fill:#FFFFFF;" d="M395.7,424.1c0-0.6,0-0.6,0-0.6c0.6,0,0.6,0,1.2,0v0.6 C396.3,424.1,396.3,424.1,395.7,424.1z"></path> </g> <g> <path style="fill-rule:evenodd;clip-rule:evenodd;fill:#FFFFFF;" d="M209.6,320.1c2.3-1.2,4.7-2.9,7-3.5c0.6,0,1.2-0.6,1.2-1.2 c1.2-1.2,2.9-2.3,4.1-3.5c1.8-1.2,3.5-2.9,5.3-4.1c7.6-5.3,15.3-11.2,22.3-17c4.1-3.5,8.2-7,12.9-11.2c1.2-1.2,2.3-2.3,3.5-3.5 c4.1-4.1,8.2-8.8,12.9-12.3l0.6-0.6c1.2-1.2,2.3-2.3,3.5-4.1c2.9-2.9,5.9-5.9,8.2-9.4c2.9-3.5,5.9-7.6,8.8-11.2 c0.6-0.6,1.2-1.2,1.8-1.8c1.8-1.8,2.9-3.5,4.1-5.3c1.2-1.8,2.3-3.5,3.5-5.3c1.8-3.5,4.1-6.5,5.9-10c1.2-1.8,1.8-4.1,2.3-5.9 c2.3-5.3,4.1-10,6.5-15.3c1.2-2.3,1.8-4.1,2.3-6.5c0.6-2.3,1.2-5.3,2.3-7.6c1.2-2.3,1.8-5.3,1.8-7.6c0-1.2,0.6-1.8,0.6-2.9 c0-0.6,1.2-1.2,1.8-1.2c1.8,0,2.9,0.6,4.7,0.6c0.6,0,1.2,0,1.8,0c2.3-0.6,4.7-1.2,7-2.3c2.9-1.8,5.9-2.9,8.8-4.7 c0.6,0,1.2-0.6,1.2-0.6c4.1-3.5,8.2-7,11.7-11.2c4.7-5.3,9.4-11.2,13.5-17c2.9-4.1,7-7.6,9.4-11.7c0,0,0-0.6,0.6-0.6 c2.3-2.9,4.7-5.3,6.5-8.8c0.6-0.6,1.2-1.2,1.8-1.8c2.3-3.5,5.3-6.5,7.6-10c3.5-5.3,7-11.2,10.6-16.4c1.2-1.8,2.3-3.5,2.9-5.9 c0.6-1.2,0.6-1.8,1.2-2.9c0.6-0.6,1.8-1.2,1.8,0c0.6,1.2,1.2,1.8,1.2,2.9c0,2.3,0,5.3,0.6,7.6v0.6c0,4.1,0,8.8-1.8,12.9 c0,0.6,0,1.2-0.6,1.8c-0.6,4.1-1.2,8.2-2.3,12.3c-0.6,2.3-1.2,4.7-1.8,7c-1.8,7-4.1,14.1-7,20.6c0,0.6-0.6,1.2-0.6,1.8 c-1.2,3.5-2.9,7-4.1,10.6c-1.2,2.9-2.3,5.9-3.5,9.4c-1.2,2.9-1.8,5.9-2.9,8.8c-2.3,5.3-4.1,10.6-5.9,15.9c-0.6,1.8-1.8,4.1-2.3,5.9 c-1.8,4.1-4.7,7.6-7,11.7c-4.7,7.6-10.6,14.7-16.4,21.7c-4.1,4.7-8.2,8.8-12.3,13.5c-0.6,1.2-1.8,1.8-2.3,2.9 c-1.2,1.2-1.8,2.3-3.5,2.9c-0.6,0-0.6,0.6-1.2,0.6c-0.6,0.6-1.8,1.8-2.3,2.3c-1.8,1.8-3.5,3.5-5.3,5.3c-1.8,1.8-4.1,3.5-5.9,5.3 c-1.8,2.3-4.7,3.5-6.5,5.3c-2.3,1.8-5.3,4.1-7.6,5.9c-4.1,3.5-8.2,6.5-12.3,10c-5.3,2.9-9.4,5.9-14.1,8.8c-1.2,1.2-2.3,1.8-3.5,3.5 c0,0.6-0.6,0.6-0.6,0.6c-1.2,0-1.8,0.6-2.3,1.2c-1.8,1.8-4.1,3.5-5.9,4.7c-5.3,4.1-10.6,8.2-15.9,12.9c-3.5,2.9-7,5.9-10.6,8.8 c-2.3,1.8-4.7,3.5-6.5,5.3c-1.8,1.2-2.9,2.3-4.7,3.5c-3.5,2.9-7.6,5.9-11.2,8.8c-1.8,1.2-2.9,2.3-4.7,3.5c-1.2,1.2-2.9,1.8-3.5,2.9 c0,1.2,0.6,1.8,0.6,2.3c0,1.2,0,1.8,0.6,2.9c0,1.2,0,1.8-0.6,2.9c-0.6,1.8-2.3,2.3-4.1,1.2c-0.6-0.6-1.8-1.2-2.3-1.8 c-0.6-0.6-1.2-1.2-1.8-1.8c-1.2,0-2.3,0-3.5,0c-1.8-0.6-3.5,0-5.3,0.6c-2.3,1.2-4.7,2.3-7,3.5c-1.8,0.6-2.9,1.8-4.1,2.9 c-2.3,1.8-5.3,4.1-7.6,6.5c-2.9,2.3-5.9,5.3-8.2,7.6c-2.3,2.3-5.3,5.3-7.6,8.2c-1.8,2.9-4.1,5.3-6.5,7.6c-2.3,3.5-5.3,6.5-8.2,10 c-4.1,5.3-8.8,10.6-13.5,15.3c-4.1,4.1-8.8,7.6-14.1,10.6c-2.3,1.8-4.7,2.9-7.6,3.5c-2.3,0.6-4.7,0.6-7,0.6s-4.1,0-5.9-0.6 c-5.3-1.8-10.6-2.9-15.9-5.3c-2.9-1.2-5.3-2.9-7.6-5.3c-1.8-1.8-2.3-3.5-2.3-5.9c0-1.2,0.6-2.3,1.2-3.5c1.2-1.2,2.9-2.3,5.3-2.3 c2.9,0,5.9-0.6,8.8-0.6c0.6,0,1.2,0,1.8-0.6c2.9-1.8,7-2.9,10-5.3c4.1-2.3,7.6-5.9,11.2-8.8c2.3-2.3,5.3-5.3,7.6-7.6 c3.5-4.1,7-7.6,11.2-11.2c4.1-4.1,8.8-7.6,12.9-11.7c3.5-3.5,7.6-6.5,11.2-10c4.1-3.5,8.2-6.5,11.7-9.4c4.7-4.1,10-7,15.3-10 l0.6-0.6c-1.2-1.8-2.3-2.9-2.9-4.7c-0.6-1.2-1.2-1.8-1.2-2.9c-1.2-4.1,1.8-5.9,4.7-5.9c0.6,0,1.8,0,2.3,0.6 c1.2,0.6,2.3,1.8,2.9,2.9c1.2,1.2,2.3,1.8,3.5,2.9C207.2,321.3,208.4,320.7,209.6,320.1z M219,336c1.2,0,1.8,0,2.3-0.6 c5.3-4.1,10.6-8.2,15.9-12.3c1.8-1.2,2.9-2.9,4.7-4.1c1.2-1.2,2.3-1.8,3.5-2.9c1.8-1.8,4.1-2.9,5.9-4.7c2.9-2.3,5.9-4.7,8.2-7 c2.9-2.3,5.9-4.7,8.8-7c2.9-2.3,5.3-4.7,8.2-7c2.3-1.8,4.1-3.5,6.5-5.3c4.7-3.5,8.8-7,13.5-10.6c3.5-2.9,7.6-6.5,11.2-10 c1.8-1.8,4.1-3.5,5.9-5.3c2.9-2.3,5.3-5.3,7.6-7.6c1.8-1.8,3.5-3.5,5.3-5.3c3.5-3.5,6.5-7,10-10.6c1.2-2.3,3.5-3.5,5.3-5.9 c2.9-2.9,5.3-6.5,8.2-9.4c2.3-2.9,5.3-6.5,7.6-9.4c1.8-2.3,3.5-4.7,4.7-7c3.5-4.7,6.5-10,10-14.7c0.6-0.6,0.6-1.2,1.2-1.8 c0.6-1.8,1.8-2.9,2.9-4.7c5.3-6.5,9.4-14.1,13.5-21.1c1.8-2.9,3.5-6.5,4.7-9.4c1.8-2.9,2.9-5.9,4.1-9.4c1.8-3.5,3.5-7,4.7-10.6 c2.3-4.7,4.1-9.4,5.9-14.7c4.1-8.2,6.5-15.3,8.8-22.9c0.6-1.8,1.2-3.5,1.2-5.3c0,0,0,0-0.6,0c-2.3,2.9-4.7,5.3-6.5,8.8 c-2.9,5.3-6.5,10.6-10,15.3c-4.1,5.9-8.8,11.2-12.9,17c-3.5,4.7-7.6,10-11.2,14.7c-2.3,3.5-5.3,6.5-7.6,9.4 c-2.9,3.5-6.5,6.5-10,8.8c-2.9,1.8-6.5,3.5-9.4,5.3c-3.5,1.8-7.6,3.5-11.2,5.3c-0.6,0.6-1.8,0.6-2.3,1.2c-1.2,0.6-2.3,2.3-2.9,3.5 c-1.2,3.5-2.3,7-3.5,10.6c-0.6,2.3-1.2,4.1-2.3,6.5c-1.2,2.3-1.8,4.1-2.3,6.5c-0.6,1.2-0.6,2.3-1.8,3.5c-1.2,1.2-1.8,2.9-2.9,4.7 c-1.2,2.9-2.9,5.9-4.1,8.8c-1.2,2.3-2.3,4.1-3.5,6.5c-0.6,1.2-1.8,2.3-2.3,3.5c-1.8,2.3-3.5,5.3-5.3,7c-0.6,0.6-1.2,1.8-1.8,2.3 c-3.5,4.7-6.5,9.4-10,13.5c-0.6,1.2-1.8,2.3-2.9,2.9c-4.1,4.1-8.2,8.8-12.3,12.9c-0.6,0.6-1.8,1.8-2.9,2.3c-4.1,3.5-7,7-10.6,10.6 c-2.9,2.9-5.9,5.9-8.2,8.8c-0.6,0.6-1.8,1.8-2.3,2.3c-1.8,1.8-3.5,3.5-5.3,4.7c-1.2,0.6-2.3,1.8-2.9,2.3 c-5.9,5.3-12.3,10-19.4,14.1c-5.3,3.5-10.6,6.5-15.9,9.4c-0.6,0.6-1.8,1.2-2.3,1.8C211.9,329.5,214.8,333,219,336z M224.8,343 c1.2,0,1.8-0.6,2.9-1.2c2.3-1.8,4.7-4.1,7-5.9c7-5.3,13.5-10.6,20.6-15.9c4.1-2.9,7.6-6.5,11.7-9.4c6.5-5.3,12.9-11.2,19.4-16.4 c2.3-2.3,5.3-4.1,7.6-6.5c2.9-2.3,6.5-4.7,9.4-7.6c1.8-1.2,2.9-2.9,5.3-3.5c0.6,0,1.2-0.6,1.8-1.2c3.5-2.3,6.5-5.3,10-7.6 c0.6-0.6,1.8-1.8,2.3-2.3c1.8-1.8,3.5-2.9,5.3-4.7c1.8-1.8,3.5-3.5,5.3-4.7c4.1-2.9,7.6-7,11.7-10.6c2.9-2.9,5.9-5.3,8.2-8.2 c2.9-2.9,5.9-6.5,8.8-9.4c0.6-0.6,0.6-0.6,1.2-1.2c5.3-5.3,9.4-11.2,14.1-17c2.9-3.5,5.3-7,8.2-10.6c1.8-2.3,2.3-4.7,3.5-7 c0.6-0.6,0.6-1.8,1.2-2.3c0.6-2.3,1.8-4.7,2.9-7c0.6-1.8,1.2-2.9,1.8-4.7c1.2-3.5,2.9-7,4.1-10.6c2.9-6.5,5.3-12.9,7.6-20 c0.6-1.2,1.2-2.3,1.8-4.1c2.3-5.3,4.7-11.2,5.9-16.4c0.6-2.9,1.8-5.3,2.3-8.2c1.8-6.5,3.5-12.9,4.7-19.4c0.6-1.8,0.6-4.1,1.2-5.9 c0-0.6,0.6-1.8,0-2.3c-0.6,0-0.6,0.6-0.6,1.2c-1.2,2.9-2.3,6.5-3.5,9.4c-0.6,1.8-1.2,3.5-1.8,5.3c-1.8,5.3-4.1,10.6-5.9,15.3 c-1.8,4.1-2.9,8.2-4.7,12.3c-0.6,1.2-1.2,2.3-1.8,3.5c-1.8,3.5-3.5,7-5.3,10.6c-0.6,1.2-1.2,2.3-1.8,3.5c-1.8,4.7-3.5,8.8-6.5,12.9 c-0.6,1.2-1.2,2.3-1.8,3.5c-1.8,2.9-2.9,5.9-4.7,9.4c-0.6,1.2-1.2,2.3-2.3,2.9c-3.5,4.1-6.5,8.2-9.4,12.3 c-3.5,5.3-7.6,11.2-11.7,16.4c-3.5,4.1-6.5,8.2-10.6,12.3c-0.6,0.6-1.2,1.2-1.8,1.8c-3.5,4.7-7.6,8.8-11.7,12.9 c-2.3,2.3-4.7,4.7-7,7.6c-1.2,1.2-1.8,1.8-2.9,2.9c-2.3,2.3-4.7,4.7-7,6.5c-2.9,2.9-5.9,5.3-8.8,8.2c-3.5,2.9-6.5,5.9-10,8.8 c-4.7,4.7-10,8.8-15.3,12.9c-2.3,1.8-4.1,3.5-6.5,5.9l-0.6,0.6c-3.5,1.8-5.9,4.7-8.2,7c-2.3,1.8-4.1,4.1-6.5,5.9 c-2.9,2.9-6.5,5.3-9.4,7.6c-4.7,4.1-9.4,8.2-14.7,11.7c-4.7,4.1-9.4,7.6-14.1,11.7c-1.2,1.2-2.9,2.3-4.1,3.5l-0.6,0.6 C222.5,340.7,223.7,342.4,224.8,343z M172,379.4c-2.3-2.9-4.1-5.9-6.5-8.2c-1.8-2.9-3.5-5.9-5.9-8.8c-0.6,0.6-1.2,0.6-1.2,1.2 c-0.6,0.6-0.6,0.6-1.2,1.2c0,4.1,1.2,7.6,3.5,10.6c1.8,2.3,3.5,4.7,5.3,7c0.6,0.6,1.2,1.2,1.8,1.8 C170.2,382.4,171.4,380.6,172,379.4z M133.8,404.7c-2.3-2.9-4.7-6.5-6.5-10.6c-1.8,0.6-2.3,1.2-2.9,1.8c1.8,5.3,4.7,9.4,8.2,13.5 c1.8,2.3,4.1,3.5,6.5,5.3c1.2,0.6,1.8,0.6,2.3,0c0.6-0.6,1.2-1.2,2.3-2.3C139.7,410,136.1,407.6,133.8,404.7z M130.3,390.6 c-0.6,0.6-1.2,1.2-1.8,1.8c1.8,6.5,10,15.9,15.9,18.2c1.2-0.6,1.2-0.6,2.3-1.8c-5.3-2.3-8.2-6.5-11.2-11.2 c-1.2-1.8-2.3-4.1-2.9-6.5c0-0.6-0.6-0.6-0.6-1.2C130.9,390.6,130.9,390.6,130.3,390.6z M194.9,357.7c0.6-0.6,1.2-1.2,1.8-1.2 c0-1.8-0.6-3.5-0.6-5.9c-0.6-0.6-2.3,0-2.9-1.8c-0.6-1.2-0.6-2.3-1.2-3.5c-1.2-0.6-2.3-0.6-2.9-1.8c-0.6-1.2-0.6-2.3-1.2-4.1 c-1.2,0.6-2.3,1.8-3.5,2.3C185.5,347.1,191.9,355.3,194.9,357.7z M149.7,405.3c-1.2-1.2-1.8-1.8-2.9-2.9c-2.3-0.6-2.3-0.6-3.5-2.3 c-2.9-0.6-2.9-0.6-2.9-3.5c-0.6-0.6-1.8-1.2-1.8-2.9l-0.6-0.6c-1.2-0.6-1.2-1.8-1.2-2.9c-0.6-0.6-1.8-1.8-2.3-2.3 c-0.6,0.6-1.2,0.6-1.8,1.2c0.6,1.8,1.2,3.5,2.3,5.3c2.3,4.1,5.3,7.6,8.8,11.2c1.2,1.2,2.3,1.8,4.7,2.3 C149.1,407,149.7,406.4,149.7,405.3z M162.6,391.2c0-0.6-0.6-0.6-1.2-0.6c-2.3-1.2-2.9-1.8-2.9-4.7v-0.6c-0.6,0-1.2,0-2.3-0.6 c-2.9-0.6-4.1-2.9-2.9-5.9c0-0.6,0.6-0.6,0.6-1.2c-2.9-1.8-2.3-0.6-4.7-4.7c-1.2,0-1.2,1.2-1.8,1.8c1.2,2.9,2.3,6.5,4.1,9.4 c1.8,3.5,4.7,5.9,7.6,8.8c0.6,0.6,1.2,0.6,1.8,0.6C161.4,392.3,162,391.7,162.6,391.2z M126.7,421.7c-2.3-2.3-4.7-4.1-7-6.5 c-1.2-1.2-1.8-2.3-2.3-3.5c-1.2-2.3-2.3-4.7-3.5-7c-1.2,0-1.8,0.6-2.3,1.2c0.6,1.8,2.3,4.1,3.5,5.9c0.6,0.6,1.2,1.2,1.2,2.3 c0,0,0,0.6,0.6,0.6c2.3,2.3,4.1,5.3,7,7.6c1.8,1.2,2.9,1.8,4.7,0C127.3,422.3,127.3,421.7,126.7,421.7z M166.7,355.3 c1.2,3.5,2.9,6.5,5.3,8.8c0.6,0.6,1.2,1.8,1.8,2.3c1.8,1.8,2.9,3.5,4.7,5.3c1.8-1.2,1.8-1.2,2.9-2.3c-1.2,0-2.3-1.2-2.9-2.3 l-0.6-0.6c-1.8-0.6-2.3-1.8-1.8-3.5c-1.2-0.6-2.3-1.2-2.3-2.9c0-0.6-0.6-0.6-0.6-1.2c-1.2-0.6-1.8-1.2-1.8-2.3 c0-0.6-0.6-0.6-0.6-1.2c-0.6-0.6-1.2-1.2-1.8-1.8C167.9,354.7,167.3,354.7,166.7,355.3z M147.3,391.2c2.3,2.9,5.3,5.3,8.8,7 c0.6-0.6,1.2-1.2,1.8-1.8c-0.6-1.2-1.8-1.8-2.9-2.3c-3.5-1.8-5.9-4.7-8.2-8.2c-1.2-1.8-1.8-4.1-2.9-6.5c0-0.6-0.6-1.2-0.6-1.8 c-1.2,0.6-1.8,1.8-2.3,2.3C142.6,384.7,144.4,388.2,147.3,391.2z M157.3,392.3c-4.7-3.5-7-8.2-9.4-13.5c-0.6-1.2-0.6-1.8-1.2-2.9 c-0.6,0.6-1.2,0.6-1.8,1.2c0.6,2.3,1.8,4.7,2.3,7.6c1.2,2.9,2.9,5.3,5.3,7c1.8,1.8,4.1,2.9,5.9,4.1c0.6,0,1.2,0,1.2-1.2 C159,393.5,157.9,392.9,157.3,392.3z M115,403.5c1.8,2.9,2.9,5.9,4.7,8.8c0,0.6,0.6,1.2,1.2,1.2c2.9,2.9,5.9,5.9,9.4,8.8 c0.6-0.6,1.2-0.6,2.3-1.2c0-0.6,0-0.6,0-0.6c-1.8-1.2-3.5-2.9-5.3-4.1c-2.9-2.3-5.3-5.9-7.6-8.8c-0.6-0.6-0.6-1.8-1.2-2.3 c-0.6-0.6-0.6-1.8-1.2-2.9C115.6,402.9,115.6,402.9,115,403.5z M153.8,368.8c0.6,0.6,1.2,0.6,1.2,0.6c2.9,1.2,3.5,2.9,2.3,5.3 c0,0.6-0.6,0.6-0.6,1.2c1.2,0.6,1.8,1.2,2.9,1.8c1.2,0.6,1.8,1.8,1.8,3.5v0.6c0.6,0.6,1.8,0.6,2.3,1.8c0.6,0.6,1.2,1.8,1.8,2.3 c0.6-0.6,0.6-0.6,1.2-1.2c0-0.6-0.6-1.2-0.6-1.8c-1.2-1.8-2.3-3.5-4.1-5.3c-2.9-3.5-4.7-7-5.9-11.2c0,0,0-0.6-0.6-0.6 C155.5,366.5,154.4,367.7,153.8,368.8z M181.4,344.2l-0.6,0.6c1.8,6.5,5.9,11.2,10.6,15.9c0.6-0.6,1.2-1.2,1.8-1.2 c-5.3-5.9-7-8.8-11.2-15.3C181.4,344.2,181.4,344.2,181.4,344.2z M162.6,359.4c-1.2,0-1.8,0.6-1.2,1.2c0.6,1.2,1.2,2.9,2.3,4.1 c1.2,1.8,1.8,2.9,2.9,4.7c1.8,2.3,3.5,4.7,5.3,7c1.2,1.2,1.8,1.2,2.9-0.6C170.8,370.6,166.1,365.9,162.6,359.4z M176.7,374.1 c0,0,0.6-0.6,0.6-1.2c-1.8-1.8-2.9-3.5-4.1-5.3c-1.8-1.8-2.9-3.5-4.1-5.3c-1.2-1.8-2.3-4.1-3.5-5.9c-0.6,0.6-1.2,1.2-1.8,1.2 c2.9,6.5,7.6,11.2,12.3,17C176.1,374.7,176.7,374.7,176.7,374.1z M110.3,420.5c-0.6,0-1.8-0.6-2.3-1.2c-0.6-0.6-0.6-1.8-0.6-2.3 l0,0c-2.3-1.2-2.3-1.2-2.3-4.1c-1.8-0.6-2.3-1.8-1.8-3.5c-1.2,0-1.8,0-2.3,0.6c0,2.3,0.6,4.1,1.8,5.9c1.2,2.3,2.9,4.1,4.7,6.5 c1.2,1.2,1.2,1.2,3.5,1.8C110.3,422.3,110.3,421.7,110.3,420.5z M183.1,354.2c-1.2-1.8-2.3-3.5-2.9-5.3c0-0.6-0.6-1.2-0.6-1.8 c-0.6-1.2-1.2-1.2-2.3,0c0,0.6,0.6,1.2,0.6,1.8c2.3,4.7,5.3,8.8,8.8,12.3c0.6,0.6,1.2,0.6,1.2,1.2c0.6,0.6,1.2,0,1.8-0.6 C187.2,359.4,184.9,356.5,183.1,354.2z M207.2,327.7c-2.3,0-4.7,0.6-6.5,1.8c1.2,1.8,2.3,2.9,3.5,3.5c1.8-0.6,3.5-1.2,5.9-1.8 C209,329.5,207.8,328.3,207.2,327.7z M93.3,418.2c1.2,0.6,1.8,0.6,2.9,1.2c-1.2-1.8-1.8-3.5-2.3-4.7c-0.6-1.8-1.2-2.9-1.8-4.7 c-1.2,0-2.3,0.6-2.9,1.8C89.7,416.4,89.7,415.8,93.3,418.2z M216.6,338.9c0,0-0.6-0.6-1.2-0.6c-1.8,0-3.5,0-4.7,1.2 c0.6,1.2,1.8,1.8,2.3,2.3s1.2,1.8,1.8,2.3c0.6-0.6,1.2-0.6,1.8-1.2c0.6-0.6,1.2-0.6,1.8-1.2C218.4,340.7,217.2,339.5,216.6,338.9z M203.1,323.6c-0.6-0.6-1.2-0.6-1.8-0.6c-1.8,0-3.5,0-5.3,1.2c0,0.6,0.6,0.6,0.6,1.2c0.6,1.2,1.8,1.8,2.3,2.9 c1.8-0.6,4.1-1.8,5.9-2.3C204.3,325.4,203.7,324.2,203.1,323.6z M205.4,338.3c-0.6,0-0.6,0-1.2,0c-1.8,1.2-2.3,2.3-3.5,4.1 c0,0.6-0.6,1.2-0.6,1.8c0,2.3,0,2.3-0.6,4.1c0.6,0.6,1.8,1.2,2.9,1.8c0.6-1.2,0-2.9,0-4.1c0-1.2,0.6-2.3,0.6-3.5 c0.6-1.2,1.2-2.3,2.3-3.5c0,0,0.6,0,0.6-0.6C205.4,338.9,205.4,338.9,205.4,338.3z M206,334.8c1.2,1.8,2.3,2.3,3.5,3.5 c1.8-0.6,2.9-1.2,4.7-1.8c-0.6-1.8-1.8-2.3-2.9-3.5C209.6,333,207.2,333,206,334.8z M201.3,335.4c-0.6-1.2-1.2-1.8-1.8-1.2 c-2.3,1.2-4.1,1.8-6.5,3.5c0.6,0.6,1.2,1.2,1.8,1.8c0.6,0.6,1.2,1.2,1.8,1.8C198.4,338.3,199,336.5,201.3,335.4z M106.2,408.2 c-1.2,0.6-1.8,1.2-1.8,2.9c0.6,0.6,1.2,0.6,2.3,0.6c1.8-0.6,3.5-1.2,5.3-1.8c-0.6-1.2-0.6-1.8-1.2-2.9 C109.1,407,107.4,407.6,106.2,408.2z M115,414.7c-2.3,0.6-4.1,1.2-5.9,2.3l0,0c0,0.6-0.6,0.6,0,1.2l0.6,0.6c0.6,0,1.2,0,1.8,0 c1.8-0.6,3.5-1.2,5.3-2.3C115.6,415.8,115.6,415.2,115,414.7z M123.2,410.5c1.8-1.2,3.5-1.8,4.7-3.5c0-1.2-1.2-1.8-1.8-2.3 c-2.9,1.2-3.5,1.8-5.3,4.1C122,408.8,122.6,409.4,123.2,410.5z M120.9,407c1.2-1.2,3.5-2.3,4.7-4.1c-0.6-0.6-0.6-1.8-1.2-2.3 c-2.3,1.2-3.5,2.3-4.7,4.1C119.1,405.3,119.7,406.4,120.9,407z M111.5,411.1c-1.2,0.6-2.9,0.6-4.1,1.2c-0.6,0-1.2,0.6-1.2,1.8 c0,0.6,1.2,1.2,1.8,1.2h0.6c0.6,0,1.2-0.6,1.8-0.6c1.2-0.6,2.3-1.2,3.5-1.8C112.7,411.1,112.7,411.1,111.5,411.1z M100.3,419.4 c-1.8-2.3-2.9-4.7-3.5-7c-0.6-0.6-0.6-1.8-1.2-2.3c-0.6-0.6-1.2-0.6-1.8,0c1.2,3.5,2.3,7,4.7,10c0.6,0.6,0.6,1.2,1.8,0.6 C100.3,419.9,100.3,419.9,100.3,419.4z M146.7,393.5c-0.6,0.6-1.2,0.6-1.8,0.6c-1.2,0.6-2.3,1.2-3.5,2.3c-0.6,0.6-0.6,1.2-0.6,1.2 c0,0.6,0.6,0.6,1.2,0.6s1.2,0,1.8,0c1.8-0.6,2.9-1.8,4.7-2.9C147.9,394.7,147.3,394.1,146.7,393.5z M219.5,343.6 c-2.3,0.6-2.3,0.6-3.5,1.8c1.2,1.2,1.8,2.3,3.5,3.5c0.6-0.6,1.8-0.6,2.9-1.2C221.9,345.9,220.7,344.8,219.5,343.6z M201.3,321.9 c-0.6-0.6-1.2-1.2-1.8-1.8l-0.6-0.6c-1.2-0.6-2.9-0.6-3.5,0c0,0.6-0.6,0.6-0.6,1.2c0,1.2,0,1.8,1.2,2.3 C197.2,322.4,199,322.4,201.3,321.9z M179.6,356.5c-1.2,1.2-2.9,2.3-4.1,2.9c-0.6,0.6-0.6,1.2-0.6,1.8c0,0.6,1.2,1.2,1.8,0.6 c0.6,0,0.6,0,1.2-0.6c1.2-0.6,2.3-1.8,3.5-2.9C180.2,357.7,180.2,357.1,179.6,356.5z M140.3,382.9c-1.8,0.6-2.9,1.8-4.1,2.9 c-0.6,0.6-0.6,1.2,0,1.8c0.6,0.6,1.2,0.6,1.8,0.6c1.2-0.6,2.3-1.2,3.5-1.8C141.4,384.7,140.8,384.1,140.3,382.9z M177.8,353.6 C177.8,353.6,177.8,353,177.8,353.6c-0.6-0.6-1.2-0.6-1.2-0.6c-1.2,0.6-2.3,1.8-4.1,2.3c-0.6,0.6-1.2,1.2-0.6,1.8 c0.6,0.6,1.8,0.6,2.3,0.6c1.2-1.2,2.3-1.8,4.1-2.9C178.4,354.2,178.4,354.2,177.8,353.6z M203.7,337.7c0-0.6-0.6-1.2-1.2-1.8 c-2.3,1.8-4.1,3.5-4.7,7c0,1.2,0,1.2,1.2,1.8C199.6,341.2,201.3,339.5,203.7,337.7z M204.9,351.2c0.6,0,0.6,0,1.2-0.6 c0-0.6,0-0.6,0-0.6v-0.6c-0.6-2.3-0.6-5.3,1.2-7.6c0.6-0.6,0-1.2-0.6-1.2C203.7,343,203.1,347.1,204.9,351.2z M128.5,415.8 c1.8-0.6,2.9-1.8,4.7-2.9c0-1.2-0.6-1.8-1.8-1.8c-1.8,1.2-3.5,1.8-4.1,2.9C126.7,414.7,127.9,415.2,128.5,415.8z M117.3,418.2 c-1.8,1.2-4.1,1.2-5.3,3.5c0,0.6,0.6,1.2,1.2,1.2c0.6,0,1.8,0,2.3-0.6c1.2-0.6,2.3-1.2,3.5-1.8 C117.9,419.4,117.9,418.8,117.3,418.2z M149.1,400c0.6-0.6,1.8-1.2,2.9-2.3c-0.6-0.6-1.2-1.2-1.8-1.2c-1.8,1.2-3.5,1.8-5.3,3.5v0.6 C146.1,401.1,147.9,401.7,149.1,400z M184.9,363c-0.6,0.6-1.2,0.6-1.8,1.2c-0.6,0.6-1.8,1.2-2.3,1.8c-0.6,0.6-0.6,1.2-0.6,1.8 c0.6,0.6,1.2,0.6,1.8,0c0.6,0,1.2-0.6,1.2-0.6c1.2-0.6,1.8-1.8,2.9-2.9C186.1,363.6,185.5,363.6,184.9,363z M129.7,417 c0.6,0.6,1.2,0.6,1.2,1.2c1.8-0.6,3.5-1.2,5.3-2.9c-0.6-0.6-1.2-1.2-2.3-1.8C132.6,414.7,130.9,415.2,129.7,417z M170.8,353v0.6 l0.6,0.6c0.6,0,1.2-0.6,2.3-0.6c1.2-0.6,2.3-1.2,2.9-2.3c0-1.2-0.6-1.8-1.2-2.3C173.1,350,172,351.8,170.8,353z M182,360 c-1.8,1.2-2.9,2.3-4.7,3.5v1.2c0,0,0.6,0.6,1.2,0.6s1.2-0.6,1.2-0.6c1.2-0.6,2.3-1.8,3.5-2.9C183.1,360.6,182.5,360.6,182,360z M152,399.4c-0.6,0.6-1.8,1.2-2.3,2.3c0,0,0,0.6,0,1.2l0.6,0.6c0.6,0,1.2,0,1.8-0.6l0.6-0.6c0.6-0.6,1.2-1.2,1.8-1.8 c0,0,0.6-0.6,0.6-1.2C153.2,398.8,153.2,398.8,152,399.4z M122.6,397c-1.2,0.6-1.8,1.2-2.3,1.8c-0.6,0.6-1.8,1.2-2.3,1.8 c0,0.6,0.6,1.2,0.6,1.8c0.6,0,0.6,0,0.6,0c1.8-1.2,3.5-2.3,4.7-4.1C123.8,398.2,123.2,397.6,122.6,397z M142.6,387.6 c-1.8,0.6-2.9,1.2-4.1,2.3l-0.6,0.6c-0.6,0.6,0,1.2,0.6,1.2h0.6c1.8-0.6,2.9-1.2,4.7-2.9C143.2,388.8,143.2,388.2,142.6,387.6z M125.6,412.9c1.8-0.6,3.5-1.8,4.7-2.9c0-0.6,0-0.6,0-1.2c0-0.6-0.6-0.6-0.6-1.2c-1.8,1.2-2.9,2.3-4.7,3.5 C124.4,411.7,125,412.3,125.6,412.9z M144.4,391.2c-1.2,0.6-2.3,1.2-4.1,1.8c-0.6,0-0.6,0.6-0.6,0.6s0,0.6,0,1.2 c0,0,0.6,0.6,1.2,0.6h0.6c1.2-0.6,2.9-1.8,4.1-2.3C145,391.7,145,391.2,144.4,391.2z M210.1,348.9c1.2,0,2.9,0,4.1,0 c-0.6-1.8-2.3-2.3-3.5-4.1C209,347.1,209,347.1,210.1,348.9z M103.8,421.1c0.6-0.6,0-0.6,0-0.6c-2.3-2.9-4.1-6.5-4.7-10 c0-0.6-0.6-1.2-1.8-0.6C98.6,414.1,100.9,419.4,103.8,421.1z M120.3,421.7c-1.2,0-1.8,0.6-2.9,1.2c-0.6,0.6-0.6,1.2,0,1.8 c0.6,0,0.6,0.6,1.2,0.6c1.2,0,2.3-0.6,3.5-1.2C121.5,422.3,120.9,422.3,120.3,421.7z M137.3,415.8c-1.8,0.6-3.5,1.8-4.7,2.3 c0.6,1.2,1.2,1.2,1.8,1.2c1.8-0.6,2.9-1.8,4.7-2.9C137.9,416.4,137.9,415.8,137.3,415.8z M152,371.8c-0.6,0.6-0.6,1.2,0,1.8 c0,0.6,0.6,1.2,1.8,1.8c0.6,0,1.2,0,1.8-0.6c0.6-0.6,0-1.2,0-1.8s-0.6-1.2-1.8-1.8C153.2,371.8,152.6,371.8,152,371.8z M191.9,343 c0.6,0,1.2,0,1.8-0.6c0.6,0,0.6-0.6,0.6-1.2s-0.6-0.6-1.2-1.2c-1.2,0-2.3,0.6-2.3,1.2C190.2,342.4,191.4,343.6,191.9,343z M208.4,346.5c0-1.2,0.6-1.8,1.2-2.9c-1.2-0.6-1.8-0.6-1.8,0c-0.6,1.2-0.6,1.8-0.6,2.9s0,1.8,1.2,2.9 C207.8,348.3,207.8,347.1,208.4,346.5z M223.1,351.2c0.6,0,1.2-0.6,1.2-0.6c0-0.6-0.6-1.8-1.2-1.8s-1.2,0.6-2.3,0.6 C221.3,350.6,221.9,351.2,223.1,351.2z M163.2,385.9c0-0.6,0-1.2-0.6-1.2c-1.2,0-2.3,0.6-2.3,1.2s0.6,0.6,0.6,1.2 C162,387.6,162.6,387.1,163.2,385.9z M157.3,380c-0.6,0-1.2,0-1.2,0.6c0,0.6,0,1.2,0.6,1.2c0.6,0,1.2,0,1.2-0.6 C158.5,381.2,157.9,380,157.3,380z M198.4,352.4c0,0.6,0.6,1.2,1.2,1.2c0,0,0.6,0,0.6-0.6c0-0.6,0-1.2-1.2-1.2 C199,351.8,199,351.8,198.4,352.4z M194.9,347.1c0,0.6,0,1.2,0.6,1.2s1.2-0.6,1.2-0.6c0-0.6-0.6-0.6-0.6-1.8 C196.1,346.5,195.5,346.5,194.9,347.1z M115.6,423.5c-0.6,0-0.6,0-1.2,0v0.6c0.6,0,0.6,0,1.2,0 C115.6,424.1,115.6,424.1,115.6,423.5z"></path> <path style="fill-rule:evenodd;clip-rule:evenodd;fill:#FFFFFF;" d="M209,325.4c2.9,4.1,6.5,7.6,10,10.6c1.2,0,1.8,0,2.3-0.6 c5.3-4.1,10.6-8.2,15.9-12.3c1.8-1.2,2.9-2.9,4.7-4.1c1.2-1.2,2.3-1.8,3.5-2.9c1.8-1.8,4.1-2.9,5.9-4.7c2.9-2.3,5.9-4.7,8.2-7 c2.9-2.3,5.9-4.7,8.8-7c2.9-2.3,5.3-4.7,8.2-7c2.3-1.8,4.1-3.5,6.5-5.3c4.7-3.5,8.8-7,13.5-10.6c3.5-2.9,7.6-6.5,11.2-10 c1.8-1.8,4.1-3.5,5.9-5.3c2.9-2.3,5.3-5.3,7.6-7.6c1.8-1.8,3.5-3.5,5.3-5.3c3.5-3.5,6.5-7,10-10.6c1.2-2.3,3.5-3.5,5.3-5.9 c2.9-2.9,5.3-6.5,8.2-9.4c2.3-2.9,5.3-6.5,7.6-9.4c1.8-2.3,3.5-4.7,4.7-7c3.5-4.7,6.5-10,10-14.7c0.6-0.6,0.6-1.2,1.2-1.8 c0.6-1.8,1.8-2.9,2.9-4.7c5.3-6.5,9.4-14.1,13.5-21.1c1.8-2.9,3.5-6.5,4.7-9.4c1.8-2.9,2.9-5.9,4.1-9.4c1.8-3.5,3.5-7,4.7-10.6 c2.3-4.7,4.1-9.4,5.9-14.7c4.1-8.2,6.5-15.3,8.8-22.9c0.6-1.8,1.2-3.5,1.2-5.3c0,0,0,0-0.6,0c-2.3,2.9-4.7,5.3-6.5,8.8 c-2.9,5.3-6.5,10.6-10,15.3c-4.1,5.9-8.8,11.2-12.9,17c-3.5,4.7-7.6,10-11.2,14.7c-2.3,3.5-5.3,6.5-7.6,9.4 c-2.9,3.5-6.5,6.5-10,8.8c-2.9,1.8-6.5,3.5-9.4,5.3c-3.5,1.8-7.6,3.5-11.2,5.3c-0.6,0.6-1.8,0.6-2.3,1.2c-1.2,0.6-2.3,2.3-2.9,3.5 c-1.2,3.5-2.3,7-3.5,10.6c-0.6,2.3-1.2,4.1-2.3,6.5c-1.2,2.3-1.8,4.1-2.3,6.5c-0.6,1.2-0.6,2.3-1.8,3.5c-1.2,1.2-1.8,2.9-2.9,4.7 c-1.2,2.9-2.9,5.9-4.1,8.8c-1.2,2.3-2.3,4.1-3.5,6.5c-0.6,1.2-1.8,2.3-2.3,3.5c-1.8,2.3-3.5,5.3-5.3,7c-0.6,0.6-1.2,1.8-1.8,2.3 c-3.5,4.7-6.5,9.4-10,13.5c-0.6,1.2-1.8,2.3-2.9,2.9c-4.1,4.1-8.2,8.8-12.3,12.9c-0.6,0.6-1.8,1.8-2.9,2.3c-4.1,3.5-7,7-10.6,10.6 c-2.9,2.9-5.9,5.9-8.2,8.8c-0.6,0.6-1.8,1.8-2.3,2.3c-1.8,1.8-3.5,3.5-5.3,4.7c-1.2,0.6-2.3,1.8-2.9,2.3 c-5.9,5.3-12.3,10-19.4,14.1c-5.3,3.5-10.6,6.5-15.9,9.4C210.7,324.2,209.6,324.8,209,325.4z"></path> <path style="fill-rule:evenodd;clip-rule:evenodd;fill:#FFFFFF;" d="M221.9,339.5c1.2,1.2,1.8,2.9,2.9,4.1c1.2,0,1.8-0.6,2.9-1.2 c2.3-1.8,4.7-4.1,7-5.9c7-5.3,13.5-10.6,20.6-15.9c4.1-2.9,7.6-6.5,11.7-9.4c6.5-5.3,12.9-11.2,19.4-16.4c2.3-2.3,5.3-4.1,7.6-6.5 c2.9-2.3,6.5-4.7,9.4-7.6c1.8-1.2,2.9-2.9,5.3-3.5c0.6,0,1.2-0.6,1.8-1.2c3.5-2.3,6.5-5.3,10-7.6c0.6-0.6,1.8-1.8,2.3-2.3 c1.8-1.8,3.5-2.9,5.3-4.7c1.8-1.8,3.5-3.5,5.3-4.7c4.1-2.9,7.6-7,11.7-10.6c2.9-2.9,5.9-5.3,8.2-8.2c2.9-2.9,5.9-6.5,8.8-9.4 c0.6-0.6,0.6-0.6,1.2-1.2c5.3-5.3,9.4-11.2,14.1-17c2.9-3.5,5.3-7,8.2-10.6c1.8-2.3,2.3-4.7,3.5-7c0.6-0.6,0.6-1.8,1.2-2.3 c0.6-2.3,1.8-4.7,2.9-7c0.6-1.8,1.2-2.9,1.8-4.7c1.2-3.5,2.9-7,4.1-10.6c2.9-6.5,5.3-12.9,7.6-20c0.6-1.2,1.2-2.3,1.8-4.1 c2.3-5.3,4.7-11.2,5.9-16.4c0.6-2.9,1.8-5.3,2.3-8.2c1.8-6.5,3.5-12.9,4.7-19.4c0.6-1.8,0.6-4.1,1.2-5.9c0-0.6,0.6-1.8,0-2.3 c-0.6,0-0.6,0.6-0.6,1.2c-1.2,2.9-2.3,6.5-3.5,9.4c-0.6,1.8-1.2,3.5-1.8,5.3c-1.8,5.3-4.1,10.6-5.9,15.3c-1.8,4.1-2.9,8.2-4.7,12.3 c-0.6,1.2-1.2,2.3-1.8,3.5c-1.8,3.5-3.5,7-5.3,10.6c-0.6,1.2-1.2,2.3-1.8,3.5c-1.8,4.7-3.5,8.8-6.5,12.9c-0.6,1.2-1.2,2.3-1.8,3.5 c-1.8,2.9-2.9,5.9-4.7,9.4c-0.6,1.2-1.2,2.3-2.3,2.9c-3.5,4.1-6.5,8.2-9.4,12.3c-3.5,5.3-7.6,11.2-11.7,16.4 c-3.5,4.1-6.5,8.2-10.6,12.3c-0.6,0.6-1.2,1.2-1.8,1.8c-3.5,4.7-7.6,8.8-11.7,12.9c-2.3,2.3-4.7,4.7-7,7.6 c-1.2,1.2-1.8,1.8-2.9,2.9c-2.3,2.3-4.7,4.7-7,6.5c-2.9,2.9-5.9,5.3-8.8,8.2c-3.5,2.9-6.5,5.9-10,8.8c-4.7,4.7-10,8.8-15.3,12.9 c-2.3,1.8-4.1,3.5-6.5,5.9l-0.6,0.6c-3.5,1.8-5.9,4.7-8.2,7c-2.3,1.8-4.1,4.1-6.5,5.9c-2.9,2.9-6.5,5.3-9.4,7.6 c-4.7,4.1-9.4,8.2-14.7,11.7c-4.7,4.1-9.4,7.6-14.1,11.7c-1.2,1.2-2.9,2.3-4.1,3.5C221.9,338.3,221.9,338.9,221.9,339.5z"></path> <path style="fill-rule:evenodd;clip-rule:evenodd;fill:#FFFFFF;" d="M168.4,383.5c1.8-1.2,2.3-2.3,3.5-4.1 c-2.3-2.9-4.1-5.9-6.5-8.2c-1.8-2.9-3.5-5.9-5.9-8.8c-0.6,0.6-1.2,0.6-1.2,1.2c-0.6,0.6-0.6,0.6-1.2,1.2c0,4.1,1.2,7.6,3.5,10.6 c1.8,2.3,3.5,4.7,5.3,7C167.3,382.4,167.9,382.9,168.4,383.5z"></path> <path style="fill-rule:evenodd;clip-rule:evenodd;fill:#FFFFFF;" d="M143.2,412.3c-3.5-2.3-7-4.7-10-7.6c-2.3-2.9-4.7-6.5-6.5-10.6 c-1.2,0.6-1.8,1.2-2.3,1.8c1.8,5.3,4.7,9.4,8.2,13.5c1.8,2.3,4.1,3.5,6.5,5.3c1.2,0.6,1.8,0.6,2.3,0 C142,414.1,142.6,413.5,143.2,412.3z"></path> <path style="fill-rule:evenodd;clip-rule:evenodd;fill:#FFFFFF;" d="M131.4,390.6c-0.6,0-0.6,0-0.6,0.6c-0.6,0.6-1.2,1.2-1.8,1.8 c1.8,6.5,10,15.9,15.9,18.2c1.2-0.6,1.2-0.6,2.3-1.8c-5.3-2.3-8.2-6.5-11.2-11.2c-1.2-1.8-2.3-4.1-2.9-6.5 C132,391.2,131.4,391.2,131.4,390.6z"></path> <path style="fill-rule:evenodd;clip-rule:evenodd;fill:#FFFFFF;" d="M184.3,342.4c1.8,4.7,7.6,12.9,11.2,15.3 c0.6-0.6,1.2-1.2,1.8-1.2c-0.6-1.8-1.2-3.5-1.2-5.9c-0.6-0.6-2.3,0-2.9-1.8c-0.6-1.2-0.6-2.3-1.2-3.5c-1.2-0.6-2.3-0.6-2.9-1.8 c-0.6-1.2-0.6-2.3-1.2-4.1C186.7,341.2,185.5,341.8,184.3,342.4z"></path> <path style="fill-rule:evenodd;clip-rule:evenodd;fill:#FFFFFF;" d="M147.9,407.6c0.6-0.6,1.8-1.2,1.8-2.3 c-1.2-1.2-1.8-1.8-2.9-2.9c-2.3-0.6-2.3-0.6-3.5-2.3c-2.9-0.6-2.9-0.6-2.9-3.5c-0.6-0.6-1.8-1.2-1.8-2.9l-0.6-0.6 c-1.2-0.6-1.2-1.8-1.2-2.9c-0.6-0.6-1.8-1.8-2.3-2.3c-0.6,0.6-1.2,0.6-1.8,1.2c0.6,1.8,1.2,3.5,2.3,5.3c2.3,4.1,5.3,7.6,8.8,11.2 C145,406.4,145.5,407,147.9,407.6z"></path> <path style="fill-rule:evenodd;clip-rule:evenodd;fill:#FFFFFF;" d="M160.8,392.9c0.6-0.6,1.2-1.2,1.8-1.8c0-0.6-0.6-0.6-1.2-0.6 c-2.3-1.2-2.9-1.8-2.9-4.7v-0.6c-0.6,0-1.2,0-2.3-0.6c-2.9-0.6-4.1-2.9-2.9-5.9c0-0.6,0.6-0.6,0.6-1.2c-2.9-1.8-2.3-0.6-4.7-4.7 c-1.2,0-1.2,1.2-1.8,1.8c1.2,2.9,2.3,6.5,4.1,9.4c1.8,3.5,4.7,5.9,7.6,8.8C159.6,392.3,160.2,392.3,160.8,392.9z"></path> <path style="fill-rule:evenodd;clip-rule:evenodd;fill:#FFFFFF;" d="M127.9,422.9c-0.6-0.6-0.6-0.6-1.2-1.2c-2.3-2.3-4.7-4.1-7-6.5 c-1.2-1.2-1.8-2.3-2.3-3.5c-1.2-2.3-2.3-4.7-3.5-7c-1.2,0-1.8,0.6-2.3,1.2c0.6,1.8,2.3,4.1,3.5,5.9c0.6,0.6,1.2,1.2,1.2,2.3 c0,0,0,0.6,0.6,0.6c2.3,2.3,4.1,5.3,7,7.6C125,424.1,126.2,424.1,127.9,422.9z"></path> <path style="fill-rule:evenodd;clip-rule:evenodd;fill:#FFFFFF;" d="M168.4,354.2c-0.6,0.6-1.2,0.6-1.8,1.2 c1.2,3.5,2.9,6.5,5.3,8.8c0.6,0.6,1.2,1.8,1.8,2.3c1.8,1.8,2.9,3.5,4.7,5.3c1.8-1.2,1.8-1.2,2.9-2.3c-1.2,0-2.3-1.2-2.9-2.3 l-0.6-0.6c-1.8-0.6-2.3-1.8-1.8-3.5c-1.2-0.6-2.3-1.2-2.3-2.9c0-0.6-0.6-0.6-0.6-1.2c-1.2-0.6-1.8-1.2-1.8-2.3 c0-0.6-0.6-0.6-0.6-1.2C169.6,355.3,169,354.7,168.4,354.2z"></path> <path style="fill-rule:evenodd;clip-rule:evenodd;fill:#FFFFFF;" d="M141.4,380.6c1.2,4.1,3.5,7.6,5.9,10.6c2.3,2.9,5.3,5.3,8.8,7 c0.6-0.6,1.2-1.2,1.8-1.8c-0.6-1.2-1.8-1.8-2.9-2.3c-3.5-1.8-5.9-4.7-8.2-8.2c-1.2-1.8-1.8-4.1-2.9-6.5c0-0.6-0.6-1.2-0.6-1.8 C142,378.8,142,380,141.4,380.6z"></path> <path style="fill-rule:evenodd;clip-rule:evenodd;fill:#FFFFFF;" d="M159.6,394.1c-0.6-0.6-1.8-1.2-2.3-2.3 c-4.7-3.5-7-8.2-9.4-13.5c-0.6-1.2-0.6-1.8-1.2-2.9c-0.6,0.6-1.2,0.6-1.8,1.2c0.6,2.3,1.8,4.7,2.3,7.6c1.2,2.9,2.9,5.3,5.3,7 c1.8,1.8,4.1,2.9,5.9,4.1C159,395.3,159.6,395.3,159.6,394.1z"></path> <path style="fill-rule:evenodd;clip-rule:evenodd;fill:#FFFFFF;" d="M116.8,401.7c-0.6,0.6-1.2,1.2-1.8,1.2 c1.8,2.9,2.9,5.9,4.7,8.8c0,0.6,0.6,1.2,1.2,1.2c2.9,2.9,5.9,5.9,9.4,8.8c0.6-0.6,1.2-0.6,2.3-1.2c0-0.6,0-0.6,0-0.6 c-1.8-1.2-3.5-2.9-5.3-4.1c-2.9-2.3-5.3-5.9-7.6-8.8c-0.6-0.6-0.6-1.8-1.2-2.3C117.3,404.1,117.3,403.5,116.8,401.7z"></path> <path style="fill-rule:evenodd;clip-rule:evenodd;fill:#FFFFFF;" d="M156.7,366.5c-1.2,0.6-1.8,1.2-2.9,2.3 c0.6,0.6,1.2,0.6,1.2,0.6c2.9,1.2,3.5,2.9,2.3,5.3c0,0.6-0.6,0.6-0.6,1.2c1.2,0.6,1.8,1.2,2.9,1.8c1.2,0.6,1.8,1.8,1.8,3.5v0.6 c0.6,0.6,1.8,0.6,2.3,1.8c0.6,0.6,1.2,1.8,1.8,2.3c0.6-0.6,0.6-0.6,1.2-1.2c0-0.6-0.6-1.2-0.6-1.8c-1.2-1.8-2.3-3.5-4.1-5.3 c-2.9-3.5-4.7-7-5.9-11.2C156.7,367.1,156.7,366.5,156.7,366.5z"></path> <path style="fill-rule:evenodd;clip-rule:evenodd;fill:#FFFFFF;" d="M182,343.6c-0.6,0-0.6,0-1.2,0.6l-0.6,0.6 c1.8,6.5,5.9,11.2,10.6,15.9c0.6-0.6,1.2-1.2,1.8-1.2C187.8,353,186.1,350.6,182,343.6z"></path> <path style="fill-rule:evenodd;clip-rule:evenodd;fill:#FFFFFF;" d="M174.9,375.9c-4.1-5.3-8.8-10.6-11.7-16.4 c-1.2,0-1.8,0.6-1.2,1.2c0.6,1.2,1.2,2.9,2.3,4.1c1.2,1.8,1.8,2.9,2.9,4.7c1.8,2.3,3.5,4.7,5.3,7 C173.1,378.2,173.7,377.7,174.9,375.9z"></path> <path style="fill-rule:evenodd;clip-rule:evenodd;fill:#FFFFFF;" d="M176.1,374.7c0.6,0,0.6-0.6,0.6-0.6s0.6-0.6,0.6-1.2 c-1.8-1.8-2.9-3.5-4.1-5.3c-1.8-1.8-2.9-3.5-4.1-5.3c-1.2-1.8-2.3-4.1-3.5-5.9c-0.6,0.6-1.2,1.2-1.8,1.2 C166.7,364.7,171.4,369.4,176.1,374.7z"></path> <path style="fill-rule:evenodd;clip-rule:evenodd;fill:#FFFFFF;" d="M110.3,422.9c0-1.2,0-1.8,0-2.3c-0.6,0-1.8-0.6-2.3-1.2 c-0.6-0.6-0.6-1.8-0.6-2.3l0,0c-2.3-1.2-2.3-1.2-2.3-4.1c-1.8-0.6-2.3-1.8-1.8-3.5c-1.2,0-1.8,0-2.3,0.6c0,2.3,0.6,4.1,1.8,5.9 c1.2,2.3,2.9,4.1,4.7,6.5C107.4,422.9,108,422.9,110.3,422.9z"></path> <path style="fill-rule:evenodd;clip-rule:evenodd;fill:#FFFFFF;" d="M189,361.8c-2.3-2.9-4.1-5.3-6.5-7.6c-1.2-1.8-2.3-3.5-2.9-5.3 c0-0.6-0.6-1.2-0.6-1.8c-0.6-1.2-1.2-1.2-2.3,0c0,0.6,0.6,1.2,0.6,1.8c2.3,4.7,5.3,8.8,8.8,12.3c0.6,0.6,1.2,0.6,1.2,1.2 C188.4,363,189,362.4,189,361.8z"></path> <path style="fill-rule:evenodd;clip-rule:evenodd;fill:#FFFFFF;" d="M210.1,331.3c-1.2-1.2-2.3-2.3-2.9-3.5c-2.3,0-4.7,0.6-6.5,1.8 c1.2,1.8,2.3,2.9,3.5,3.5C206,332.4,207.8,331.8,210.1,331.3z"></path> <path style="fill-rule:evenodd;clip-rule:evenodd;fill:#FFFFFF;" d="M89.2,411.1c0.6,5.3,0.6,4.7,4.1,6.5c1.2,1.2,1.8,1.2,2.9,1.8 c-1.2-1.8-1.8-3.5-2.3-4.7c-0.6-1.8-1.2-2.9-1.8-4.7C90.9,410,89.7,410,89.2,411.1z"></path> <path style="fill-rule:evenodd;clip-rule:evenodd;fill:#FFFFFF;" d="M218.4,341.8c-0.6-1.8-1.2-2.3-2.3-3.5c0,0-0.6-0.6-1.2-0.6 c-1.8,0-3.5,0-4.7,1.2c0.6,1.2,1.8,1.8,2.3,2.3c0.6,0.6,1.2,1.8,1.8,2.3c0.6-0.6,1.2-0.6,1.8-1.2 C217.2,343,217.8,342.4,218.4,341.8z"></path> <path style="fill-rule:evenodd;clip-rule:evenodd;fill:#FFFFFF;" d="M205.4,326c-0.6-1.2-1.8-1.8-2.3-2.3c-0.6-0.6-1.2-0.6-1.8-0.6 c-1.8,0-3.5,0-5.3,1.2c0,0.6,0.6,0.6,0.6,1.2c0.6,1.2,1.8,1.8,2.3,2.9C201.3,327.7,203.1,327.1,205.4,326z"></path> <path style="fill-rule:evenodd;clip-rule:evenodd;fill:#FFFFFF;" d="M206,339.5c0-0.6-0.6-0.6-0.6-1.2c-0.6,0-0.6,0-1.2,0 c-1.8,1.2-2.3,2.3-3.5,4.1c0,0.6-0.6,1.2-0.6,1.8c0,2.3,0,2.3-0.6,4.1c0.6,0.6,1.8,1.2,2.9,1.8c0.6-1.2,0-2.9,0-4.1 c0-1.2,0.6-2.3,0.6-3.5C203.7,341.8,204.9,340.7,206,339.5C205.4,339.5,206,339.5,206,339.5z"></path> <path style="fill-rule:evenodd;clip-rule:evenodd;fill:#FFFFFF;" d="M211.3,332.4c-1.8,0.6-3.5,0.6-5.3,1.8 c1.2,1.8,2.3,2.3,3.5,3.5c1.8-0.6,2.9-1.2,4.7-1.8C213.1,334.8,212.5,333.6,211.3,332.4z"></path> <path style="fill-rule:evenodd;clip-rule:evenodd;fill:#FFFFFF;" d="M196.6,340.7c1.2-2.3,2.3-4.1,4.7-5.3 c-0.6-1.2-1.2-1.8-1.8-1.2c-2.3,1.2-4.1,1.8-6.5,3.5c0.6,0.6,1.2,1.2,1.8,1.8C195.5,339.5,196.1,340.1,196.6,340.7z"></path> <path style="fill-rule:evenodd;clip-rule:evenodd;fill:#FFFFFF;" d="M110.9,407c-1.8,0.6-2.9,0.6-4.7,1.2c-1.2,0.6-1.8,1.2-1.8,2.9 c0.6,0.6,1.2,0.6,2.3,0.6c1.8-0.6,3.5-1.2,5.3-1.8C111.5,408.8,110.9,407.6,110.9,407z"></path> <path style="fill-rule:evenodd;clip-rule:evenodd;fill:#FFFFFF;" d="M116.2,417c-0.6-1.2-1.2-1.8-1.2-2.3c-2.3,0.6-4.1,1.2-5.9,2.3 l0,0c0,0.6-0.6,0.6,0,1.2l0.6,0.6c0.6,0,1.2,0,1.8,0C112.7,418.8,114.4,418.2,116.2,417z"></path> <path style="fill-rule:evenodd;clip-rule:evenodd;fill:#FFFFFF;" d="M121.5,408.2c0.6,0.6,1.2,1.2,1.8,1.8c1.8-1.2,3.5-1.8,4.7-3.5 c0-1.2-1.2-1.8-1.8-2.3C123.2,405.8,123.2,405.8,121.5,408.2z"></path> <path style="fill-rule:evenodd;clip-rule:evenodd;fill:#FFFFFF;" d="M119.1,404.1c0,1.2,0.6,1.8,1.2,2.9c1.2-1.2,3.5-2.3,4.7-4.1 c-0.6-0.6-0.6-1.8-1.2-2.3C122,401.1,120.9,402.9,119.1,404.1z"></path> <path style="fill-rule:evenodd;clip-rule:evenodd;fill:#FFFFFF;" d="M113.8,412.9c-0.6-1.8-1.2-2.3-2.3-1.8s-2.9,0.6-4.1,1.2 c-0.6,0-1.2,0.6-1.2,1.8c0,0.6,1.2,1.2,1.8,1.2h0.6c0.6,0,1.2-0.6,1.8-0.6C111.5,414.1,112.7,413.5,113.8,412.9z"></path> <path style="fill-rule:evenodd;clip-rule:evenodd;fill:#FFFFFF;" d="M100.9,420.5c0-0.6,0-0.6-0.6-1.2c-1.8-2.3-2.9-4.7-3.5-7 c-0.6-0.6-0.6-1.8-1.2-2.3c-0.6-0.6-1.2-0.6-1.8,0c1.2,3.5,2.3,7,4.7,10C99.1,420.5,99.7,420.5,100.9,420.5z"></path> <path style="fill-rule:evenodd;clip-rule:evenodd;fill:#FFFFFF;" d="M149.1,395.9c-0.6-0.6-1.2-1.2-1.8-1.8 c-0.6,0.6-1.2,0.6-1.8,0.6c-1.2,0.6-2.3,1.2-3.5,2.3c-0.6,0.6-0.6,1.2-0.6,1.2c0,0.6,0.6,0.6,1.2,0.6c0.6,0,1.2,0,1.8,0 C145.5,397.6,147.3,396.4,149.1,395.9z"></path> <path style="fill-rule:evenodd;clip-rule:evenodd;fill:#FFFFFF;" d="M222.5,347.7c-0.6-1.8-1.8-2.9-2.3-4.1 c-2.3,0.6-2.3,0.6-3.5,1.8c1.2,1.2,1.8,2.3,3.5,3.5C220.1,348.3,221.3,348.3,222.5,347.7z"></path> <path style="fill-rule:evenodd;clip-rule:evenodd;fill:#FFFFFF;" d="M195.5,323c1.8-0.6,3.5-1.2,5.9-1.2c-0.6-0.6-1.2-1.2-1.8-1.8 l-0.6-0.6c-1.2-0.6-2.9-0.6-3.5,0c0,0.6-0.6,0.6-0.6,1.2C194.3,321.9,194.9,322.4,195.5,323z"></path> <path style="fill-rule:evenodd;clip-rule:evenodd;fill:#FFFFFF;" d="M181.4,358.9c-0.6-1.2-1.2-1.8-1.8-2.3 c-1.2,1.2-2.9,2.3-4.1,2.9c-0.6,0.6-0.6,1.2-0.6,1.8c0,0.6,1.2,1.2,1.8,0.6c0.6,0,0.6,0,1.2-0.6C179,360.6,179.6,359.4,181.4,358.9 z"></path> <path style="fill-rule:evenodd;clip-rule:evenodd;fill:#FFFFFF;" d="M141.4,386.5c0-1.2-0.6-2.3-1.2-2.9c-1.8,0.6-2.9,1.8-4.1,2.9 c-0.6,0.6-0.6,1.2,0,1.8c0.6,0.6,1.2,0.6,1.8,0.6C139.1,387.6,140.3,387.1,141.4,386.5z"></path> <path style="fill-rule:evenodd;clip-rule:evenodd;fill:#FFFFFF;" d="M178.4,354.7c0-0.6-0.6-0.6-0.6-1.2l-0.6-0.6h-0.6 c-1.2,0.6-2.3,1.8-4.1,2.3c-0.6,0.6-1.2,1.2-0.6,1.8c0.6,0.6,1.8,0.6,2.3,0.6C176.1,357.1,177.3,355.9,178.4,354.7z"></path> <path style="fill-rule:evenodd;clip-rule:evenodd;fill:#FFFFFF;" d="M199,344.8c0.6-3.5,2.3-5.3,4.7-7c0-0.6-0.6-1.2-1.2-1.8 c-2.3,1.8-4.1,3.5-4.7,7C197.8,343.6,197.8,343.6,199,344.8z"></path> <path style="fill-rule:evenodd;clip-rule:evenodd;fill:#FFFFFF;" d="M206.6,340.7c-2.9,2.3-3.5,6.5-1.8,10.6c0.6,0,0.6,0,1.2-0.6 c0-0.6,0-0.6,0-0.6v-0.6c-0.6-2.3-0.6-5.3,1.2-7.6C207.8,341.2,207.2,341.2,206.6,340.7z"></path> <path style="fill-rule:evenodd;clip-rule:evenodd;fill:#FFFFFF;" d="M126.7,414.1c0,1.2,1.2,1.2,1.8,1.8c1.8-0.6,2.9-1.8,4.7-2.9 c0-1.2-0.6-1.8-1.8-1.8C129.7,411.7,127.9,412.3,126.7,414.1z"></path> <path style="fill-rule:evenodd;clip-rule:evenodd;fill:#FFFFFF;" d="M118.5,419.9c-0.6-0.6-1.2-1.2-1.2-1.8 c-1.8,1.2-4.1,1.2-5.3,3.5c0,0.6,0.6,1.2,1.2,1.2c0.6,0,1.8,0,2.3-0.6C116.2,421.7,117.3,421.1,118.5,419.9z"></path> <path style="fill-rule:evenodd;clip-rule:evenodd;fill:#FFFFFF;" d="M145,400.6c1.2,0.6,2.9,1.2,4.1-0.6c0.6-0.6,1.8-1.2,2.9-2.3 c-0.6-0.6-1.2-1.2-1.8-1.2c-1.8,1.2-3.5,1.8-5.3,3.5C145,400,145,400.6,145,400.6z"></path> <path style="fill-rule:evenodd;clip-rule:evenodd;fill:#FFFFFF;" d="M186.7,364.1c-0.6-0.6-1.2-0.6-1.8-1.2 c-0.6,0.6-1.2,0.6-1.8,1.2c-0.6,0.6-1.8,1.2-2.3,1.8c-0.6,0.6-0.6,1.2-0.6,1.8c0.6,0.6,1.2,0.6,1.8,0c0.6,0,1.2-0.6,1.2-0.6 C184.9,365.9,185.5,365.3,186.7,364.1z"></path> <path style="fill-rule:evenodd;clip-rule:evenodd;fill:#FFFFFF;" d="M133.8,412.9c-1.2,1.8-2.9,2.3-4.1,3.5 c0.6,0.6,1.2,0.6,1.2,1.2c1.8-0.6,3.5-1.2,5.3-2.9C135,414.7,134.4,414.1,133.8,412.9z"></path> <path style="fill-rule:evenodd;clip-rule:evenodd;fill:#FFFFFF;" d="M174.9,349.5c-1.8,1.2-2.9,2.3-4.7,4.1v0.6l0.6,0.6 c0.6,0,1.2-0.6,2.3-0.6c1.2-0.6,2.3-1.2,2.9-2.3C176.7,350.6,176.1,349.5,174.9,349.5z"></path> <path style="fill-rule:evenodd;clip-rule:evenodd;fill:#FFFFFF;" d="M183.7,361.2c-0.6-0.6-1.2-1.2-1.8-1.8 c-1.8,1.2-2.9,2.3-4.7,3.5v1.2c0,0,0.6,0.6,1.2,0.6s1.2-0.6,1.2-0.6C181.4,363.6,182.5,362.4,183.7,361.2z"></path> <path style="fill-rule:evenodd;clip-rule:evenodd;fill:#FFFFFF;" d="M154.9,400c-1.8-1.2-1.8-1.2-2.9,0c-0.6,0.6-1.8,1.2-2.3,2.3 c0,0,0,0.6,0,1.2l0.6,0.6c0.6,0,1.2,0,1.8-0.6l0.6-0.6c0.6-0.6,1.2-1.2,1.8-1.8C154.4,400.6,154.4,400,154.9,400z"></path> <path style="fill-rule:evenodd;clip-rule:evenodd;fill:#FFFFFF;" d="M123.8,398.8c-0.6-0.6-0.6-1.2-1.2-1.8 c-1.2,0.6-1.8,1.2-2.3,1.8c-0.6,0.6-1.8,1.2-2.3,1.8c0,0.6,0.6,1.2,0.6,1.8c0.6,0,0.6,0,0.6,0C120.9,401.7,122,400.6,123.8,398.8z"></path> <path style="fill-rule:evenodd;clip-rule:evenodd;fill:#FFFFFF;" d="M143.8,389.4c-0.6-0.6-0.6-1.2-1.2-1.8 c-1.8,0.6-2.9,1.2-4.1,2.3l-0.6,0.6c-0.6,0.6,0,1.2,0.6,1.2h0.6C140.8,391.2,142,390.6,143.8,389.4z"></path> <path style="fill-rule:evenodd;clip-rule:evenodd;fill:#FFFFFF;" d="M123.8,411.1c0.6,0.6,1.2,1.2,1.2,1.8c1.8-0.6,3.5-1.8,4.7-2.9 c0-0.6,0-0.6,0-1.2s-0.6-0.6-0.6-1.2C127.3,408.8,125.6,410,123.8,411.1z"></path> <path style="fill-rule:evenodd;clip-rule:evenodd;fill:#FFFFFF;" d="M145.5,392.3c-0.6-0.6-1.2-1.2-1.2-1.2 c-1.2,0.6-2.3,1.2-4.1,1.8c-0.6,0-0.6,0.6-0.6,0.6s0,0.6,0,1.2c0,0,0.6,0.6,1.2,0.6h0.6C142.6,394.1,144.4,393.5,145.5,392.3z"></path> <path style="fill-rule:evenodd;clip-rule:evenodd;fill:#FFFFFF;" d="M210.7,344.8c-1.8,2.3-1.8,2.3-1.2,4.1c1.2,0,2.9,0,4.1,0 C213.7,347.1,211.9,345.9,210.7,344.8z"></path> <path style="fill-rule:evenodd;clip-rule:evenodd;fill:#FFFFFF;" d="M97.4,409.4c1.2,4.7,4.1,9.4,6.5,11.7c0.6-0.6,0-0.6,0-0.6 c-2.3-2.9-4.1-6.5-4.7-10C98.6,410,98.6,409.4,97.4,409.4z"></path> <path style="fill-rule:evenodd;clip-rule:evenodd;fill:#FFFFFF;" d="M122,423.5c-1.2-0.6-1.8-1.2-2.3-1.8c-1.2,0-1.8,0.6-2.9,1.2 c-0.6,0.6-0.6,1.2,0,1.8c0.6,0,0.6,0.6,1.2,0.6C119.7,424.6,120.9,424.1,122,423.5z"></path> <path style="fill-rule:evenodd;clip-rule:evenodd;fill:#FFFFFF;" d="M138.5,416.4c-0.6,0-1.2-0.6-1.2-0.6c-1.8,0.6-3.5,1.8-4.7,2.3 c0.6,1.2,1.2,1.2,1.8,1.2C135.6,418.8,137.3,418.2,138.5,416.4z"></path> <path style="fill-rule:evenodd;clip-rule:evenodd;fill:#FFFFFF;" d="M153.2,371.8c0,0-0.6,0-1.2,0.6c-0.6,0.6-0.6,1.2,0,1.8 c0,0.6,0.6,1.2,1.8,1.8c0.6,0,1.2,0,1.8-0.6c0.6-0.6,0-1.2,0-1.8C154.9,372.4,154.4,371.8,153.2,371.8z"></path> <path style="fill-rule:evenodd;clip-rule:evenodd;fill:#FFFFFF;" d="M190.8,341.8c0,0.6,0.6,1.8,1.2,1.8c0.6,0,1.2,0,1.8-0.6 c0.6,0,0.6-0.6,0.6-1.2s-0.6-0.6-1.2-1.2C191.9,340.1,190.8,340.7,190.8,341.8z"></path> <path style="fill-rule:evenodd;clip-rule:evenodd;fill:#FFFFFF;" d="M207.8,349.5c0-1.2,0-2.3,0-3.5c0-1.2,0.6-1.8,1.2-2.9 c-0.6,0-1.2,0-1.2,0.6c-0.6,1.2-0.6,1.8-0.6,2.9S206.6,348.9,207.8,349.5z"></path> <path style="fill-rule:evenodd;clip-rule:evenodd;fill:#FFFFFF;" d="M220.7,349.5c0.6,1.2,1.2,1.8,2.3,1.8c0.6,0,1.2-0.6,1.2-0.6 c0-0.6-0.6-1.8-1.2-1.8S221.3,349.5,220.7,349.5z"></path> <path style="fill-rule:evenodd;clip-rule:evenodd;fill:#FFFFFF;" d="M160.8,387.1c1.2,0.6,1.8,0,2.3-1.2c0-0.6,0-1.2-0.6-1.2 c-1.2,0-2.3,0.6-2.3,1.2S160.8,387.1,160.8,387.1z"></path> <path style="fill-rule:evenodd;clip-rule:evenodd;fill:#FFFFFF;" d="M158.5,381.8c0-0.6,0-1.8-1.2-1.8c-0.6,0-1.2,0-1.2,0.6 c0,0.6,0,1.2,0.6,1.2C157.3,382.4,157.9,381.8,158.5,381.8z"></path> <path style="fill-rule:evenodd;clip-rule:evenodd;fill:#FFFFFF;" d="M199.6,351.8l-0.6,0.6c0,0.6,0.6,1.2,1.2,1.2 c0,0,0.6,0,0.6-0.6C200.8,352.4,200.2,351.8,199.6,351.8z"></path> <path style="fill-rule:evenodd;clip-rule:evenodd;fill:#FFFFFF;" d="M196.6,345.9c-0.6,0.6-1.2,0.6-1.2,1.2s0,1.2,0.6,1.2 s1.2-0.6,1.2-0.6C197.2,347.1,196.6,346.5,196.6,345.9z"></path> <path style="fill-rule:evenodd;clip-rule:evenodd;fill:#FFFFFF;" d="M115.6,424.1c0-0.6,0-0.6,0-0.6c-0.6,0-0.6,0-1.2,0v0.6 C115,424.1,115,424.1,115.6,424.1z"></path> </g> </svg> 