<?xml version="1.0" encoding="UTF-8"?> <!-- Generator: Adobe Illustrator 24.3.0, SVG Export Plug-In . SVG Version: 6.00 Build 0) --> <svg xmlns="http://www.w3.org/2000/svg" xmlns:xlink="http://www.w3.org/1999/xlink" version="1.1" id="Layer_1" x="0px" y="0px" viewBox="0 0 500 500" style="enable-background:new 0 0 500 500;" xml:space="preserve"> <path style="fill-rule:evenodd;clip-rule:evenodd;fill:#FFFFFF;" d="M153.8,116.4c-5.1,4.4-10.1,9.2-15,14.4 c-32.4,34.9-49.4,77-50.8,126.4c1.3,61.7,22.2,111.1,62.8,148.3c14.4,12.3,27.7,20.9,40.1,25.6l-1.1,5.7 c-22.9-9.1-43.8-23.1-62.6-41.9c-36.6-36.4-54.9-80.4-54.9-132.1c0-51.6,18.3-95.6,54.9-132.1c7.9-7.9,16.1-14.9,24.6-21.1 L153.8,116.4z"></path> <path style="fill-rule:evenodd;clip-rule:evenodd;fill:#FFFFFF;" d="M362.3,106.2c10.4,7,20.2,15.1,29.6,24.5 c36.6,36.5,54.8,80.5,54.8,132.1s-18.3,95.7-54.8,132.2c-13.9,13.8-28.8,25.1-44.9,33.6l-2.8-5.1c10.2-5.3,22.3-14.5,36.2-27.6 c33.3-34.9,50-80.6,50.2-137.2c-0.1-2.5-0.2-5-0.4-7.5c-3.2-46.1-19.4-86.4-48.8-121.1c-6.8-7.3-14.1-13.3-21.9-18.2L362.3,106.2z"></path> <path style="fill-rule:evenodd;clip-rule:evenodd;fill:#FFFFFF;" d="M283.9,52.6l62,35.5c-1.1,2.3-2.2,4.5-3.2,6.7 c-40.9,87.5-56,172.1-45.3,253.6c-26.2-94.2-32.2-184.8-18-271.6C280.7,68.8,282.2,60.6,283.9,52.6z"></path> <path style="fill-rule:evenodd;clip-rule:evenodd;fill:#FFFFFF;" d="M256.4,362.9c-0.5-2.2-1.1-4.3-1.6-6.4 c19.7,36,39.1,64.6,58.4,85.9c-13,3.7-26.5,6.1-40.6,6.9C268.4,418.9,263,390.1,256.4,362.9z"></path> <path style="fill-rule:evenodd;clip-rule:evenodd;fill:#FFFFFF;" d="M171.8,97.2c-0.7-3.4-1.5-6.9-2.2-10.3l94.8-37.8 c-1.1,9.1-2,18-2.8,26.9c-9.4,105.1-0.8,197.1,25.7,275.9c10.3,30.7,23.4,59.4,39.2,86.1l-0.1,0.1C253.9,353,202.4,239.4,171.8,97.2 z"></path> <path style="fill-rule:evenodd;clip-rule:evenodd;fill:#FFFFFF;" d="M246.4,365.4c6.3,26.9,10.1,55,11.4,84.3 c-16.4-0.1-31.9-2.1-46.8-5.9c13-46.7,16.1-98.6,9.2-155.6c10.3,22.6,18.5,46.2,24.6,70.8C245.4,361.1,245.9,363.3,246.4,365.4z"></path> </svg> 