<?xml version="1.0" encoding="UTF-8"?> <!-- Generator: Adobe Illustrator 24.3.0, SVG Export Plug-In . SVG Version: 6.00 Build 0) --> <svg xmlns="http://www.w3.org/2000/svg" xmlns:xlink="http://www.w3.org/1999/xlink" version="1.1" id="Layer_1" x="0px" y="0px" viewBox="0 0 500 500" style="enable-background:new 0 0 500 500;" xml:space="preserve"> <g> <path style="fill:#FFFFFF;" d="M420,77.8L420,77.8H153.4c-24.5,0-44.1,19.6-44.1,44.1v233.2h-51c-3.9,0-6.9,2.9-6.9,6.9v32.3 c0,31.4,25.5,56.8,56.8,56.8h8.8h164.6h49c32.3,0,58.8-26.5,58.8-58.8V362V189.5h66.6c3.9,0,6.9-2.9,6.9-6.9v-60.8 C464.1,97.4,444.5,77.8,420,77.8z M281.8,436.5H117.2h-8.8c-23.5,0-42.1-18.6-42.1-42.1v-25.5H275v25.5c0,14.7,5.9,29.4,16.7,40.2 c1,1,2,2,2,2H281.8z M375.9,121.9L375.9,121.9V362v30.4c0,24.5-20.6,45.1-45.1,45.1c-11.8,0-21.6-3.9-29.4-12.7 c-7.8-7.8-12.7-18.6-12.7-29.4V362c0-3.9-2.9-6.9-6.9-6.9H124V121.9c0-16.7,13.7-29.4,29.4-29.4h234.2 C380.8,99.3,375.9,110.1,375.9,121.9z M450.4,174.8h-59.8v-52.9c0-16.7,13.7-29.4,29.4-29.4l0,0l0,0c16.7,0,29.4,13.7,29.4,29.4 v52.9H450.4z"></path> <path style="fill:#FFFFFF;" d="M172.1,313h154.8c3.9,0,6.9-2.9,6.9-6.9s-2.9-6.9-6.9-6.9H172.1c-3.9,0-6.9,2.9-6.9,6.9 S168.1,313,172.1,313z"></path> <path style="fill:#FFFFFF;" d="M205.4,241.4L205.4,241.4l37.2,26.5c1,1,2.9,1,3.9,1s2.9,0,3.9-1l37.2-26.5l0,0 c11.8-8.8,18.6-22.5,18.6-36.3v-49c0-2.9-2-4.9-3.9-6.9l-52.9-25.5c-2-1-3.9-1-5.9,0l-52.9,25.5c-2.9,1-3.9,3.9-3.9,6.9v49 C186.8,218.9,193.6,232.6,205.4,241.4z M201.5,160.1l45.1-22.5l45.1,22.5v45.1c0,9.8-4.9,18.6-12.7,24.5l-33.3,23.5l-33.3-23.5 c-7.8-5.9-12.7-14.7-12.7-24.5v-45.1H201.5z"></path> <path style="fill:#FFFFFF;" d="M234.8,214c1,1,2.9,2,4.9,2c2,0,3.9-1,4.9-2l27.4-26.5c2.9-2.9,2.9-6.9,0-9.8s-6.9-2.9-9.8,0 l-22.5,21.6l-9.8-9.8c-2.9-2.9-6.9-2.9-9.8,0s-2.9,6.9,0,9.8L234.8,214z"></path> </g> </svg> 