<?xml version="1.0" encoding="UTF-8"?> <!-- Generator: Adobe Illustrator 24.3.0, SVG Export Plug-In . SVG Version: 6.00 Build 0) --> <svg xmlns="http://www.w3.org/2000/svg" xmlns:xlink="http://www.w3.org/1999/xlink" version="1.1" id="Layer_1" x="0px" y="0px" viewBox="0 0 500 500" style="enable-background:new 0 0 500 500;" xml:space="preserve"> <path style="fill:#FFFFFF;" d="M206.7,38.3c-22.1,29.1-33.8,61-34.3,98.7c49.1-14.1,98-24,149.6-27.7c-5,19.1-3.3,36.7,6.2,54.3 c-50.8,4.4-99.6,11.1-148.3,24.5c14.8,42.9,41.1,74.3,82,92c40.8,17.7,81.2,14.2,120.6-5.7c-31.3,32.7-69.2,47.9-114.3,43.4 c-26.9-2.7-50.4-13.8-72-30c-5.4-4-13.8-5-20.9-5.5c-31.8-2.4-63.4-6.1-93-18.9c-7.4-3.2-14.7-7.6-21-12.6 c-15.8-12.6-18.8-30.1-6.6-46.1c7.8-10.1,17.6-19.4,28.2-26.4c14.7-9.7,30.8-17.7,46.9-25c7.8-3.5,11.5-7.3,12.9-15.9 c6.2-37.6,24.3-68.6,53.4-93.2c2.3-2,4.9-3.7,7.4-5.5C204.1,38.3,204.9,38.5,206.7,38.3z M186.8,278.7c-23.4-23.7-36.2-49.6-44-81.4 c-16.8,9.5-33.1,16.9-47.3,27.1c-17.6,12.7-15.7,27.3,4,36.9C126.1,274.4,155,276.6,186.8,278.7z"></path> <path style="fill:#FFFFFF;" d="M375.5,79c-25.7,0.3-46.7,23.4-46.5,51.3c0.2,27.8,21.6,50.6,47.4,50.4c25.7-0.2,47.4-23.5,47.4-50.8 C423.8,102.2,401.5,78.7,375.5,79z M360.2,116.1c-6.4,0-11.5-5.1-11.5-11.5s5.1-11.5,11.5-11.5s11.5,5.1,11.5,11.5 S366.6,116.1,360.2,116.1z"></path> <g> <path style="fill:#FFFFFF;" d="M123.3,375.6c1.5,0,1.8,0.7,1.7,1.8l-1.4,11.4c-0.7,5.5-4.4,10.9-16.7,10.9 c-10.8,0-14.7-4.6-14.7-9.7c0-0.4,0.1-1.1,0.1-1.7l2.7-22c0.6-5.5,4.4-10.9,16.7-10.9c10.8,0,14.7,4.6,14.7,9.7 c0,0.4-0.1,1-0.1,1.7l-0.2,1.7c-0.1,1.3-0.7,1.9-2,1.9h-6.5c-1.3,0-1.8-0.8-1.6-1.9l0.1-0.4c0.1-0.4,0.1-0.8,0.1-1 c0-2.1-1.8-3.1-4.8-3.1c-3.1,0-5.5,1.2-5.9,4.1l-2.3,18.3c-0.1,0.4-0.1,1-0.1,1.3c0,2.4,1.8,3.4,4.8,3.4c3.4,0,5.5-1.2,5.8-4.1 l0.3-2.7h-5.2c-1.3,0-1.8-0.6-1.7-1.8l0.6-5c0.1-1.3,0.8-1.8,2.1-1.8L123.3,375.6L123.3,375.6z"></path> <path style="fill:#FFFFFF;" d="M139.8,397.2c-0.2,1.3-0.6,1.9-2,1.9h-6.9c-1.3,0-1.8-0.6-1.7-1.9l4.8-39.4c0.2-1.3,0.8-1.9,2.1-1.9 h6.9c1.3,0,1.7,0.6,1.5,1.9L139.8,397.2z"></path> <path style="fill:#FFFFFF;" d="M149.1,399.1c-1,0-1.8-0.4-1.7-1.9l4.8-39.4c0.2-1.3,0.8-1.9,2.1-1.9h11.6c10.7,0,15.3,4.1,15.3,9.2 c0,0.4-0.1,1-0.1,1.6l-0.4,3c-0.4,3.4-2.1,5.2-5.1,6.8c3.4,1.4,5.7,4.4,5.7,7.2c0,0.3-0.1,0.8-0.1,1.3l-0.5,4.1 c-0.7,5.5-4.9,10-17.2,10L149.1,399.1L149.1,399.1z M159.9,381l-1.1,9.8h5.4c3.1,0,5.9-0.8,6.3-3.7l0.2-1.6c0.1-0.4,0.1-0.8,0.1-1 c0-2.2-1.8-3.6-5.2-3.6h-5.7V381z M162,364.1l-1.1,9.2h3.3c2.9,0,6-0.9,6.3-3.9l0.1-1.2c0.1-0.8,0.1-1,0.1-1.1c0-2.4-2.2-3-5.1-3 H162z"></path> <path style="fill:#FFFFFF;" d="M212.6,381.7l4.3,15.4c0.3,1.2-0.7,1.9-2,1.9h-6.8c-1.1,0-1.4-0.9-1.7-1.9l-3.9-14h-4.8l-1.7,14 c-0.1,1.3-0.6,1.9-2,1.9h-6.9c-1.1,0-1.8-0.4-1.7-1.9l4.8-39.4c0.2-1.3,0.8-1.9,2.1-1.9h13.2c10.9,0,15.4,4.8,15.4,10.2 c0,0.3-0.1,1-0.1,1.5l-0.6,5C219.8,376.3,217.8,379.9,212.6,381.7z M200.1,364.4l-1.3,10.1h5.1c3.3,0,5.8-1,6.3-3.9l0.2-1.3 c0.1-0.5,0.1-0.9,0.1-1.1c0-2.5-1.7-3.8-5.1-3.8L200.1,364.4L200.1,364.4z"></path> <path style="fill:#FFFFFF;" d="M246.6,355.9c1.3,0,1.9,0.6,2.1,1.9l6.7,39.4c0.2,1.2-0.3,1.9-1.6,1.9h-7c-1.3,0-1.8-0.7-2-1.9 l-0.9-6.1h-10.6l-2.4,6.1c-0.4,1.2-1.1,1.9-2.4,1.9H222c-1.3,0-1.7-0.7-1.1-1.9l16.3-39.4c0.6-1.3,1.3-1.9,2.6-1.9H246.6z M242.2,379.4c-0.6-4.9-0.4-13.2-0.4-13.3c-0.1,0.4-2.3,9.7-3.8,13.3l-1.4,3.4h6L242.2,379.4z"></path> <path style="fill:#FFFFFF;" d="M271.2,390.5h12.5c1.3,0,1.9,0.4,1.7,1.8l-0.6,5c-0.2,1.3-0.8,1.8-2.1,1.8h-21.4 c-1.1,0-1.5-0.6-1.4-1.9l4.8-39.4c0.2-1.3,0.8-1.9,2.1-1.9h6.9c1.3,0,1.7,0.6,1.5,1.9L271.2,390.5z"></path> <path style="fill:#FFFFFF;" d="M315.2,355.9c1.3,0,1.9,0.4,1.7,1.8l-0.6,5c-0.1,1.3-0.8,1.8-2.1,1.8h-8.1l-4.1,32.7 c-0.2,1.3-0.6,1.9-2,1.9h-6.9c-1.3,0-1.8-0.6-1.7-1.9l4.1-32.7h-8.1c-1.3,0-1.9-0.5-1.7-1.8l0.6-5c0.1-1.3,0.8-1.8,2.1-1.8H315.2z"></path> <path style="fill:#FFFFFF;" d="M335.8,355.9c1.3,0,1.9,0.6,2.1,1.9l6.7,39.4c0.2,1.2-0.3,1.9-1.6,1.9h-6.9c-1.3,0-1.8-0.7-2-1.9 l-0.9-6.1h-10.6l-2.4,6.1c-0.4,1.2-1.1,1.9-2.4,1.9h-6.5c-1.3,0-1.7-0.7-1.1-1.9l16.3-39.4c0.6-1.3,1.3-1.9,2.6-1.9H335.8z M331.4,379.4c-0.6-4.9-0.4-13.2-0.4-13.3c-0.1,0.4-2.3,9.7-3.8,13.3l-1.4,3.4h6L331.4,379.4z"></path> <path style="fill:#FFFFFF;" d="M376.2,381.7l4.3,15.4c0.3,1.2-0.7,1.9-2,1.9h-6.8c-1.1,0-1.4-0.9-1.7-1.9l-3.9-14h-4.8l-1.7,14 c-0.1,1.3-0.6,1.9-2,1.9h-6.8c-1.1,0-1.8-0.4-1.7-1.9l4.8-39.4c0.2-1.3,0.8-1.9,2.1-1.9h13.2c10.9,0,15.4,4.8,15.4,10.2 c0,0.3-0.1,1-0.1,1.5l-0.6,5C383.4,376.3,381.4,379.9,376.2,381.7z M363.7,364.4l-1.3,10.1h5.1c3.3,0,5.8-1,6.3-3.9l0.2-1.3 c0.1-0.5,0.1-0.9,0.1-1.1c0-2.5-1.7-3.8-5.1-3.8L363.7,364.4L363.7,364.4z"></path> <path style="fill:#FFFFFF;" d="M31.5,430.5c0.6-5.5,5-10.9,17.2-10.9c10.8,0,15.3,4.7,15.3,9.7c0,0.4-0.1,1.1-0.1,1.7l-2.7,22 c-0.6,5.5-5,10.9-17.3,10.9c-10.8,0-15.3-4.6-15.3-9.7c0-0.4,0.1-1,0.1-1.7L31.5,430.5z M53.2,432.9c0.1-0.6,0.1-1,0.1-1.2 c0-2.5-2.2-3.5-5.4-3.5c-2.8,0-5.8,1.2-6.2,4.1l-2.3,18.2c-0.1,0.5-0.1,1-0.1,1.2c0,2.5,2.3,3.5,5.5,3.5c3.1,0,5.7-1.2,6.1-4.1 L53.2,432.9z"></path> <path style="fill:#FFFFFF;" d="M79.3,448.7l-1.6,12.8c-0.2,1.3-0.6,1.9-2,1.9h-6.9c-1.3,0-1.8-0.6-1.7-1.9l4.8-39.4 c0.2-1.3,0.8-1.9,2.1-1.9h13.3c10.9,0,15.1,4.8,15.1,10.2c0,0.6,0,0.8-0.1,2l-0.6,5.8c-0.7,6.2-4.8,10.5-17.2,10.5H79.3z M81.7,428.7l-1.4,11.4h5.1c3.3,0,5.9-0.8,6.3-3.8l0.3-2.6c0.1-0.6,0.1-1,0.1-1.1c0-2.5-1.3-3.9-5.1-3.9H81.7z"></path> <path style="fill:#FFFFFF;" d="M106.1,463.4c-1.3,0-1.8-0.6-1.7-1.9l4.8-39.4c0.2-1.3,0.8-1.9,2.1-1.9H133c1.3,0,1.9,0.4,1.7,1.8 l-0.6,5c-0.2,1.3-0.8,1.8-2.1,1.8h-13.1l-1,8.3H130c1.3,0,1.8,0.4,1.7,1.8l-0.6,4.6c-0.2,1.3-0.8,1.8-2.1,1.8h-12.1l-1.2,9.5h13.7 c1.3,0,1.9,0.4,1.7,1.8l-0.6,5c-0.2,1.3-0.8,1.8-2.1,1.8L106.1,463.4L106.1,463.4z"></path> <path style="fill:#FFFFFF;" d="M168.9,461.5c-0.2,1.3-0.6,1.9-2,1.9h-6c-1,0-1.5-0.3-1.7-0.9l-8.1-16.9c-1.1-2.4-2-5.7-2-5.7 l-2.7,21.6c-0.2,1.3-0.6,1.9-2,1.9h-6.2c-1.3,0-1.8-0.6-1.7-1.9l4.8-39.4c0.2-1.3,0.8-1.9,2.1-1.9h6c0.9,0,1.3,0.3,1.6,0.8l8.5,18 c1,2.1,1.6,4.5,1.7,4.8l2.6-21.6c0.2-1.3,0.8-1.9,2.1-1.9h6.2c1.3,0,1.7,0.6,1.5,1.9L168.9,461.5z"></path> <path style="fill:#FFFFFF;" d="M211.6,431.9v-0.4c0-2.6-1.8-3.6-4.6-3.6c-2.9,0-5,1.1-5.4,4l-0.1,0.6v0.4c0,1.7,1.1,2.1,1.7,2.4 l10.2,3.6c4.1,1.5,6.8,4.6,6.8,8.6c0,0.4-0.1,0.9-0.1,1.6l-0.4,3.9c-0.6,5.5-4.7,10.9-16.8,10.9c-10.9,0-15.1-4.7-15.1-9.8 c0-0.3,0-0.7,0.1-1.6l0.4-3.8c0.1-1.3,0.8-1.9,2.1-1.9h6.6c1.3,0,1.7,0.7,1.5,1.9l-0.3,2.4c-0.1,0.4-0.1,0.8-0.1,1.1 c0,2.5,2.2,3.4,5.3,3.4s5.5-1.1,6-4l0.1-0.8c0.1-0.4,0.1-0.7,0.1-0.8c0-2-3-3.2-5-3.9l-8.7-3.4c-2.5-1-5-3.8-5-7.4 c0-0.4,0.1-1,0.1-1.6l0.4-3.2c0.6-5.5,4.1-10.9,16-10.9c10.7,0,14.4,4.7,14.4,9.6c0,0.3,0,0.5-0.1,1.3l-0.3,2.4 c-0.1,1.3-0.8,1.9-2.1,1.9h-6.6c-1.2,0-1.7-0.4-1.5-1.9L211.6,431.9z"></path> <path style="fill:#FFFFFF;" d="M257,461.5c-0.2,1.3-0.6,1.9-2,1.9h-6c-1,0-1.5-0.3-1.7-0.9l-8.1-16.9c-1.1-2.4-2-5.7-2-5.7 l-2.7,21.6c-0.2,1.3-0.6,1.9-2,1.9h-6.2c-1.3,0-1.8-0.6-1.7-1.9l4.8-39.4c0.2-1.3,0.8-1.9,2.1-1.9h6c0.9,0,1.3,0.3,1.6,0.8l8.5,18 c1,2.1,1.6,4.5,1.7,4.8l2.6-21.6c0.2-1.3,0.8-1.9,2.1-1.9h6.2c1.3,0,1.7,0.6,1.5,1.9L257,461.5z"></path> <path style="fill:#FFFFFF;" d="M267.9,430.5c0.6-5.5,5-10.9,17.2-10.9c10.8,0,15.3,4.7,15.3,9.7c0,0.4-0.1,1.1-0.1,1.7l-2.7,22 c-0.6,5.5-5,10.9-17.3,10.9c-10.8,0-15.3-4.6-15.3-9.7c0-0.4,0.1-1,0.1-1.7L267.9,430.5z M289.7,432.9c0.1-0.6,0.1-1,0.1-1.2 c0-2.5-2.2-3.5-5.4-3.5c-2.8,0-5.8,1.2-6.2,4.1l-2.3,18.2c-0.1,0.5-0.1,1-0.1,1.2c0,2.5,2.3,3.5,5.5,3.5c3.1,0,5.7-1.2,6.1-4.1 L289.7,432.9z"></path> <path style="fill:#FFFFFF;" d="M306.8,430.5c0.6-5.5,5-10.9,17.2-10.9c10.8,0,15.3,4.7,15.3,9.7c0,0.4-0.1,1.1-0.1,1.7l-2.7,22 c-0.6,5.5-5,10.9-17.3,10.9c-10.8,0-15.3-4.6-15.3-9.7c0-0.4,0.1-1,0.1-1.7L306.8,430.5z M328.5,432.9c0.1-0.6,0.1-1,0.1-1.2 c0-2.5-2.2-3.5-5.4-3.5c-2.8,0-5.8,1.2-6.2,4.1l-2.3,18.2c-0.1,0.5-0.1,1-0.1,1.2c0,2.5,2.3,3.5,5.5,3.5c3.1,0,5.7-1.2,6.1-4.1 L328.5,432.9z"></path> <path style="fill:#FFFFFF;" d="M376.1,461.5c0.5,1,0.2,1.9-1.1,1.9h-8.7c-1.3,0-2-1-2.5-1.9l-8.1-15.6h-0.8l-1.9,15.6 c-0.1,1.3-0.6,1.9-2,1.9h-6.9c-1.3,0-1.8-0.6-1.7-1.9l4.8-39.4c0.2-1.3,0.8-1.9,2.1-1.9h6.9c1.3,0,1.7,0.6,1.5,1.9l-2,16.2h0.4 l11.7-16.2c0.8-1.1,1.9-1.9,3.2-1.9h7.5c1.3,0,1.4,0.8,0.6,1.9l-14.4,19.3L376.1,461.5z"></path> <path style="fill:#FFFFFF;" d="M382.3,463.4c-1.3,0-1.8-0.6-1.7-1.9l4.8-39.4c0.2-1.3,0.8-1.9,2.1-1.9h21.7c1.3,0,1.9,0.4,1.7,1.8 l-0.6,5c-0.2,1.3-0.8,1.8-2.1,1.8h-13.1l-1,8.3h12.1c1.3,0,1.8,0.4,1.7,1.8l-0.6,4.6c-0.2,1.3-0.8,1.8-2.1,1.8h-12.1l-1.2,9.5h13.7 c1.3,0,1.9,0.4,1.7,1.8l-0.6,5c-0.2,1.3-0.8,1.8-2.1,1.8L382.3,463.4L382.3,463.4z"></path> <path style="fill:#FFFFFF;" d="M439.9,446l4.3,15.4c0.3,1.2-0.7,1.9-2,1.9h-6.8c-1.1,0-1.4-0.9-1.7-1.9l-3.9-14H425l-1.7,14 c-0.1,1.3-0.6,1.9-2,1.9h-6.9c-1.1,0-1.8-0.4-1.7-1.9l4.8-39.4c0.2-1.3,0.8-1.9,2.1-1.9h13.2c10.9,0,15.4,4.8,15.4,10.2 c0,0.3-0.1,1-0.1,1.5l-0.6,5C447.1,440.6,445.1,444.2,439.9,446z M427.4,428.7l-1.3,10.1h5.1c3.3,0,5.8-1,6.3-3.9l0.2-1.3 c0.1-0.5,0.1-0.9,0.1-1.1c0-2.5-1.7-3.8-5.1-3.8L427.4,428.7L427.4,428.7z"></path> </g> </svg> 