<?xml version="1.0" encoding="UTF-8"?> <!-- Generator: Adobe Illustrator 24.3.0, SVG Export Plug-In . SVG Version: 6.00 Build 0) --> <svg xmlns="http://www.w3.org/2000/svg" xmlns:xlink="http://www.w3.org/1999/xlink" version="1.1" id="Layer_1" x="0px" y="0px" viewBox="0 0 500 500" style="enable-background:new 0 0 500 500;" xml:space="preserve"> <path id="path1934" style="fill:#FFFFFF;" d="M443.6,416.3c-19.8-0.4-33.4,5.8-33.4,11.1c0,5.8,0.4,10.3,0.8,13.2 c0.4,0.8,1.2,4.1,4.1,6.2c4.5,4.1,13.6,7,26,7c17.3,0,27.2-4.9,30.1-7.8c3.3-3.3,3.3-4.9,3.7-6.6c0-2.5,0-12-0.4-12.8 C473.7,422.1,461.4,416.3,443.6,416.3L443.6,416.3z M304.3,280.7c0,0-16.9-19-20.2-23.5c3.7-3.7,16.1-13.6,16.9-14 c1.2,1.2,13.2,4.1,17.3,4.9h-0.4h0.4C317.9,258.8,304.3,280.7,304.3,280.7z M255.3,194.5c-2.5,3.3-5.4,8.2-5.8,9.1 c-19-30.9-24.7-48.6-28-60.6c4.9-1.2,11.5-4.9,15.7-12.8c8.2-2.1,14-16.5,14-16.5s14,30.9,17.7,39.6 C266.8,159.5,258.1,178,255.3,194.5L255.3,194.5z M496.8,384.6c-1.6-6.6-5.4-14.4-9.9-23.1c-2.5-4.9-5.8-4.9-10.7-3.3 c-4.5,2.1-40,19-58.5,23.5c-5.4,1.6-10.7,1.2-19-4.1c-7.8-5.4-58.5-56.1-63.9-60.6c0,0,3.3-5.8,8.2-17.7c0.8-2.1,3.7-4.9,4.5-7.4 c1.6,0.8,15.7,10.3,23.9,11.5c6.6,1.2,47.4,6.6,47.4,15.3c0.4,0.4,7,21,13.6,26.4c2.5,1.6,4.9,0.8,6.6,0.4c1.2,2.1,3.7,3.3,4.5,2.5 c1.2-0.8,1.6-4.1,1.6-7.4c1.6-2.9,4.9-10.7,4.1-18.1c-3.3-22.7-8.7-25.1-14-30.5c-5.4-5.4-21.8-19.8-30.1-25.1 c-5.8-4.1-16.1-6.6-16.1-6.6l-8.2-35c0,0,3.3-37.1-1.6-68.4c-2.9-14-9.1-26-19-35.5c0.4-1.6,8.7-15.7,0-33.4 c-1.2-2.5-4.5-6.2-8.2-8.2c-6.6-3.3-13.6-5.8-21-4.5c-4.5,0.8-10.7,4.9-10.7,4.9s-14.8-4.9-26.8-8.2c-11.1-2.5-13.6-11.5-24.3-14 c-10.7-2.9-16.1-1.6-23.5,2.5c-11.5,6.6-29.3,19.8-31.3,21.8c-3.3,3.3-3.3,8.7-3.7,14c-2.9,1.6-16.1,7.4-19,10.3 c-2.9,2.5-5.4,5.8-4.5,11.1c0.8,4.9,4.1,14.8,8.7,23.1c1.6,3.3,4.5,5.4,7.4,5.4s7-0.4,7-0.4s19.8,49.1,32.6,68.8 c0,0.8-7.4,26.8-8.7,31.3c-4.5,5.8-12.8,13.6-12.8,27.2c-0.4,2.1-1.6,3.3-1.6,3.3s-7.4,2.1-11.5,11.1c-4.5,9.1-15.3,26.4-19.4,36.7 c-2.9,6.6,0.4,12,0.4,12s-15.3,15.7-19,19c-6.6,6.6-4.9,16.9-4.9,16.9l-2.5,9.9c-0.8,1.2,0.4,3.3,2.5,2.1c2.5-1.2,9.5-5.4,9.5-5.4 s8.7,2.1,14-3.3c7.8-7.8,19.8-23.5,23.1-26.8c7-5.8,19-17.7,28-33c5.4-9.5,11.5-19.8,12-21c0.8-2.1,2.9-2.1,3.7-2.9 c7.4-3.7,23.1-16.1,21.4-25.6c3.3,4.5,21.4,25.1,21.4,25.1s-8.7,9.1-4.1,17.3c3.3,5.4,16.1,12,24.3,15.3c8.7,3.3,11.1,2.9,12,2.1 c8.7,7.8,48.6,49.9,66.4,66c8.7,8.2,18.5,9.5,25.6,9.1c21.4-0.4,65.5-4.9,68.8-4.9C491.9,394.9,500.1,394,496.8,384.6"></path> <path style="fill:#FFFFFF;" d="M118.8,180.1L16.6,239v117.9l102.2,58.9L221,356.9V239L118.8,180.1z M187.2,337.2l-68,39.2l-68-39.2 v-78.7l68-39.2l68,39.2v26.4L164.6,298l-48.6,28l-22.7-13.2v-26.4l28.9-16.5l23.1,13.2l19.8-11.5l-46.2-26L73.5,272v52.4l45.3,26.4 l45.3-26.4l22.7-13.2L187.2,337.2z"></path> </svg> 