<?xml version="1.0" encoding="UTF-8"?> <!-- Generator: Adobe Illustrator 24.3.0, SVG Export Plug-In . SVG Version: 6.00 Build 0) --> <svg xmlns="http://www.w3.org/2000/svg" xmlns:xlink="http://www.w3.org/1999/xlink" version="1.1" id="Layer_1" x="0px" y="0px" viewBox="0 0 500 500" style="enable-background:new 0 0 500 500;" xml:space="preserve"> <g> <g> <path style="fill:#FFFFFF;" d="M344.2,110.2c-3.6,0-6.5,2.2-8.6,5c-10.1-2.2-25.9-3.6-33-4.3c-5,0-14.4,0-23,0 c-2.9-2.9-6.5-4.3-11.5-5.7c0-0.7,0-1.4-0.7-2.2c3.6-2.9,5.7-7.2,5.7-12.2c0-9.3-7.2-16.5-16.5-16.5c-9.3,0-16.5,7.2-16.5,16.5 c0,5,2.2,9.3,5.7,12.9c0,0.7,0,1.4,0,2.2c-4.3,1.4-8.6,3.6-11.5,5.7c-8.6,0-18,0-23,0c-7.2,0.7-22.3,2.2-33,3.6 c-1.4-2.9-5-5-8.6-5c-5,0-9.3,4.3-9.3,9.3c0,5,4.3,9.3,9.3,9.3c3.6,0,6.5-2.2,8.6-5c10.8,1.4,26.6,2.9,33,3.6c5,0,14.4,0,23,0 c1.4,1.4,4.3,2.9,6.5,4.3c-2.2,13.6-4.3,27.3-5,35.2c-1.4,19.4,0,76.9,0,76.9h12.2h16.5h12.2c0,0,1.4-58.2,0-76.9 c-0.7-7.9-2.9-21.6-5-35.2c2.9-1.4,5-2.9,6.5-4.3c8.6,0,18,0,23,0c7.2-0.7,22.3-2.2,33-3.6c1.4,2.9,5,5,8.6,5c5,0,9.3-4.3,9.3-9.3 C354.2,114.6,349.9,110.2,344.2,110.2z"></path> </g> <g> <path style="fill:#FFFFFF;" d="M403.1,310.7c-38.8,18-90.5,27.3-145.8,27.3c-54.6,0-106.3-10.1-145.8-27.3 c-28-12.9-47.4-28.7-56.8-46.7c0,12.2,0,24.4,0,29.5c0,51,90.5,92.7,202.6,92.7c111.3,0,202.6-41.7,202.6-92.7V264 C450.5,281.9,431.1,297.7,403.1,310.7z"></path> </g> <g> <path style="fill:#FFFFFF;" d="M406.7,261.1c-2.2-5.7-5.7-10.1-10.8-12.9c-0.7,0-0.7-0.7-1.4-0.7c-1.4-0.7-2.9-0.7-4.3-1.4 c-1.4,0-2.9-0.7-4.3-0.7c-12.2,0-23,10.1-23,23c0,2.9,0.7,5,1.4,7.2c0,0.7,0.7,2.2,1.4,2.9c0,0,0,0.7,0.7,0.7 c3.6,7.2,11.5,11.5,19.4,11.5c5,0,9.3-1.4,12.9-4.3c5.7-4.3,10.1-10.8,10.1-18.7C408.1,266.1,407.4,264,406.7,261.1z M393,285.5 c-2.2,0.7-4.3,1.4-7.2,1.4c-6.5,0-12.2-3.6-15.8-9.3c0-0.7-0.7-0.7-0.7-1.4c-0.7-0.7-0.7-2.2-1.4-2.9c-0.7-0.7-0.7-2.9-0.7-4.3 c0-10.1,7.9-18,18-18c0.7,0,2.2,0,2.9,0c1.4,0,2.9,0.7,4.3,1.4c0.7,0,0.7,0.7,1.4,0.7c2.9,1.4,5.7,4.3,7.2,7.9 c1.4,2.2,2.2,5,2.2,8.6C403.8,276.2,399.5,282.6,393,285.5z"></path> </g> <g> <path style="fill:#FFFFFF;" d="M282.4,149c1.4,7.9,2.2,14.4,2.2,18c0,2.9,0.7,7.2,0.7,11.5c5,0.7,10.1,0.7,15.1,1.4 c13.6,2.2,26.6,5,38.1,8.6c11.5,3.6,22.3,8.6,30.2,13.6c8.6,5,15.1,10.8,19.4,17.2c4.3,5.7,6.5,12.9,6.5,19.4c0,2.9-0.7,5-1.4,7.9 c0.7,0,0.7,0.7,1.4,0.7c0.7-2.9,1.4-5,1.4-7.9h40.9c0,7.9-2.9,15.8-8.6,23.7l-23-3.6c0.7,2.2,1.4,5,1.4,7.9 c0,7.9-3.6,14.4-10.1,18.7l4.3,1.4c-10.8,6.5-23,12.2-37.4,17.2l-24.4-15.1c9.3-2.9,17.2-7.2,25.1-10.8c0,0,0-0.7-0.7-0.7 c-5.7,5-15.1,9.3-25.1,12.2c-11.5,3.6-24.4,7.2-38.1,8.6c-13.6,2.2-28,2.9-42.4,2.9l0,0c-15.1,0-29.5-1.4-42.4-2.9 c-13.6-2.2-26.6-5-38.1-8.6c-11.5-3.6-22.3-8.6-30.2-13.6c-8.6-5-15.1-11.5-19.4-17.2c-4.3-5.7-6.5-12.9-6.5-19.4 s2.2-12.9,6.5-19.4c4.3-6.5,11.5-12.2,19.4-17.2c8.6-5,18.7-10.1,30.2-13.6c11.5-3.6,24.4-7.2,38.1-8.6c5-0.7,10.1-1.4,15.1-1.4 v-0.7c-5,0.7-9.3,0.7-14.4,1.4l-12.9-18c9.3-1.4,18.7-2.2,28-2.9c0.7-2.9,0.7-6.5,1.4-10.1c-99.9,4.3-178.2,43.1-178.2,90.5 c0,51,90.5,91.9,202.6,91.9c111.3,0,202.6-40.9,202.6-91.9C459.8,192.9,382.2,154.1,282.4,149z M338.4,188.5 c-10.8-3.6-23-6.5-35.9-8.6l12.9-18c16.5,2.9,33,6.5,47.4,10.8L338.4,188.5z M389.4,219.4c-4.3-5.7-10.8-11.5-18.7-16.5l33-10.8 c10.1,6.5,18.7,13.6,24.4,21.6L389.4,219.4z M149.5,174.2l24.4,15.1c-10.8,3.6-20.1,7.9-28.7,12.9l-33-10.8 C122.9,184.9,135.8,179.2,149.5,174.2z M84.8,215.1l38.8,5.7c-4.3,5.7-6.5,12.2-6.5,18H76.2C76.9,230.9,79.8,223,84.8,215.1z M125.1,260.4c4.3,5.7,10.8,11.5,18.7,16.5l-33,10.8c-10.1-6.5-18.7-13.6-24.4-21.6L125.1,260.4z M199.8,317.8 c-16.5-2.9-33-6.5-47.4-10.8l24.4-15.1c10.8,3.6,23,6.5,35.9,8.6L199.8,317.8z M259.4,322.2v-18.7c13.6,0,26.6-0.7,39.5-2.9 l12.9,18C294.6,320.7,277.4,322.2,259.4,322.2z"></path> </g> </g> </svg> 