<?xml version="1.0" encoding="UTF-8"?> <!-- Generator: Adobe Illustrator 25.0.0, SVG Export Plug-In . SVG Version: 6.00 Build 0) --> <svg xmlns="http://www.w3.org/2000/svg" xmlns:xlink="http://www.w3.org/1999/xlink" version="1.1" id="Layer_1" x="0px" y="0px" viewBox="0 0 500 500" style="enable-background:new 0 0 500 500;" xml:space="preserve"> <g> <path style="fill:#FFFFFF;" d="M221.5,97.1c5.9,22.2,7.3,43.7,18.8,62.1c7.1,0.7,6.6-6.6,7.6-9.5c5.4-16.7,11.6-33.2,13.6-51.7 c13-1.1,23.3,5.7,35.2,9.6c0.7,18.3-7.1,33.7-13.4,51.2c20.9-4.5,34.2-18.3,48-32.7c10.9,6.9,18,17.6,28.6,26.1 c-21.5,23.1-46.6,38-75.4,47.8c-0.1-0.1-1.3-1.2-3-2.7c-3.3,1.6-6.9,3.3-11.4,5.5c10.5,9.4,20.7,18.4,30.9,27.5 c23.7-19.8,48-37.6,78.5-46.4c4,11.8,7.8,22.6,11.9,34.7c-18.5,6.9-35.7,14.9-52.2,29.5c18.6,1.8,33.4,10.3,49.4,7.6 c1.9,1.9,3.1,3,4.7,4.7c1.6,11.6-3.2,22.3-6.9,34.2c-28-0.1-54-8.5-78.5-20.1c-24.6-11.7-47.8-26.3-65.4-49.5 c-40.2,42.3-88.3,64.8-144.3,70.3c-5.7-13-9.4-25.1-7.6-39.6c17.8,2.8,34.1-4.6,53-7.8c-15.3-13.6-31.1-23-49.9-28.1 c-1.8-13.2,6.3-23.1,10.8-35.4c16.4,2.9,29.9,13,44.2,20.3c11.3,5.8,20.6,15.7,30.9,23.9c10.6-7.3,24.5-12.8,32.2-26.5 c-5.8-3.6-14-1.6-20.7-5c-8-4-16.4-7.3-24.2-11.6c-7.5-4.1-14.9-8.5-21.7-13.7c-7.1-5.4-13.4-11.7-19.6-17.2 c2.1-15.6,17-18.3,23.7-27c8.3,0.7,9,9.1,14.3,12.7c5.8,4,11.7,8,17.9,11.4c5.5,3,11.4,5.2,18.4,8.3c-3.6-10.5-7-19.1-9.5-28 c-2-7.4-2.8-15.1-4.2-22.4C196.3,99.8,209,100.1,221.5,97.1z"></path> <path style="fill:#FFFFFF;" d="M278.7,264.7c11.3,5.6,21.1,10.5,32.2,16c-5.4,8-10.3,16.2-16,23.7c-8.8,11.5-17.9,22.7-27.3,33.7 c-4.3,5-6.4,10.2-6.3,16.7c0.2,13.9,0.1,27.8,0.1,41.3c-1.5,1.5-2.6,2.6-4.3,4.3c-10.5,0-21.7,0-34.3,0c-0.4-8.3-0.1-17.2-0.2-26.1 c0-8.6,0-17.2,0-26c-8.5-11.2-17.6-22.4-25.7-34.2c-7.8-11.2-19.3-19.9-23.7-33.7c10.7-5.3,20.5-10.2,31.1-15.5 c14.6,13.4,23.8,31.4,37.2,46.7C254,295.8,266,280.7,278.7,264.7z"></path> </g> </svg> 