<?xml version="1.0" encoding="UTF-8"?> <!-- Generator: Adobe Illustrator 24.3.0, SVG Export Plug-In . SVG Version: 6.00 Build 0) --> <svg xmlns="http://www.w3.org/2000/svg" xmlns:xlink="http://www.w3.org/1999/xlink" version="1.1" id="Layer_1" x="0px" y="0px" viewBox="0 0 500 500" style="enable-background:new 0 0 500 500;" xml:space="preserve"> <g> <path style="fill:#FFFFFF;" d="M206.5,77.1c0.3,1,1,1.3,1.7,2c7.3,7.3,14.5,14.5,21.5,21.5c5.6,5.6,11.2,11.2,16.9,16.9 c0.3,1,1,1.7,1.7,2.3c10.9,10.9,21.5,21.5,32.4,32.4c2,2,4.3,4.3,6.3,6.3c0,0.3,0.3,0.3,0.3,0.7c26.8,26.8,53.9,53.9,80.7,80.7 c0,0.3,0,0.3-0.3,0.7c-8.3,7.9-16.2,16.2-24.5,24.5c-17.5,17.9-35.7,36.4-54.2,54.9c-0.7,0.7-2,1-0.3,2.6 c12.9,12.9,25.8,25.5,38.4,38.4c1,1,1.7,1,2.6,0c12.9-13.2,26.1-26.1,39.3-39.3c8.9-8.9,18.2-17.9,27.1-27.1 c4.6-4.6,9.3-9.3,13.9-13.9c0.3-0.3,1-0.7,1.3-1c10.9-11.9,16.2-26.1,15.5-42c-0.7-15.2-6.6-28.1-17.5-38.7 c-10.2-10.2-20.5-20.5-30.7-30.7c-3-3-6-6-9.3-8.9c-0.3-0.3-0.7-1-1.3-1.3c-26.1-26.1-52.2-52.2-78.4-78c-0.3-0.3-1-1-1.3-1.3 l-0.3-0.3c-0.3-0.3-0.3-0.7-0.7-0.7c-12.9-12.9-25.8-25.8-38.7-38.7c-1.7-2.3-2.3-1.7-3.3-0.7c-12.2,12.6-24.8,24.8-37,37.4 C207.5,76.1,206.8,76.5,206.5,77.1z"></path> <path style="fill:#FFFFFF;" d="M124.8,320.8c-1.3-1.3-3-2.6-4.3-4.3c-12.9-12.9-25.8-25.5-38-38.4c-8.6-9.3-13.2-20.5-14.2-33.1 c0-0.3,0-0.7-0.3-1c0-3,0-5.6,0-8.6s0.3-6,1-8.9c2.3-10.6,7.6-19.8,15.2-27.4c13.2-13.2,26.5-26.5,40-40c0.3-0.3,0.7-0.3,1-0.7 c0,1,0,2,0,3c0,25.1,0,49.9,0,75.1c0,1-0.3,2,0.3,2.6c0,0.3,0,0.3-0.3,0.7c-1,0.7-0.7,1.7-0.7,2.6c0,25.1,0,49.9,0,75.1 C124.8,318.5,124.8,319.5,124.8,320.8z"></path> <path style="fill:#FFFFFF;" d="M124.8,320.8c0-1,0-2.3,0-3.3c0-25.1,0-49.9,0-75.1c0-1-0.7-2,0.7-2.6c12.9,12.9,26.1,26.1,39,39.3 c1.3,1.3,2,0.7,2.6-0.3c12.6-12.6,24.8-25.1,37.4-37.4c0.7-0.7,1.3-1,1.7-1.7c0.3,0.3,0.7,0.7,1,1c12.9,12.9,25.5,25.5,38.4,38.4 c0.7,0.7,1,1,1.7,1c-3.3,3.6-6.9,6.9-10.2,10.6c-10.2,10.2-20.2,20.2-30.4,30.4c-0.3,0-0.7,0.3-0.7,1c-1,0-1.7,1-2.3,1.7 c-11.9,11.9-23.8,23.8-36,36c-0.7,0.7-1.3,1.3-2.3,2c-2.3-2.3-4.6-4.3-6.6-6.6C147.3,344,136,333,125.1,321.8 C125.1,321.1,124.8,320.8,124.8,320.8z"></path> <path style="fill:#FFFFFF;" d="M287.8,77.5c0.3,0.3,1,0.7,1.3,1.3c26.1,26.1,52.2,52.2,78.4,78c0.3,0.3,1,1,1.3,1.3c0,1,0,2,0,3 c0,25.1,0,50.3,0,75.7c0,1,0.3,1.7-0.3,2.6c-26.8-26.8-53.9-53.9-80.7-80.7c0,0-0.3-0.3-0.3-0.7c0-15.5,0-31.1,0.3-46.6 C288.1,100.3,287.8,89,287.8,77.5z"></path> <path style="fill:#FFFFFF;" d="M368.8,321.1c-13.2,13.2-26.1,26.1-39.3,39.3c-1,1-1.7,1.3-2.6,0c-12.9-12.9-25.5-25.8-38.4-38.4 c-1.3-1.3-0.3-2,0.3-2.6c18.2-18.5,36.7-36.7,54.9-55.2c8.3-8.3,16.2-16.2,24.5-24.5h0.3c0,25.8,0,51.6,0,77.4 C368.5,318.8,368.8,320.2,368.8,321.1z"></path> <path style="fill:#FFFFFF;" d="M368.5,240.5L368.5,240.5c-0.3-0.3-0.3-0.3,0-0.7c0.3-1,0.3-1.7,0.3-2.6c0-25.1,0-50.3,0-75.7 c0-1,0-2,0-3c3,3,6,6,9.3,8.9c10.2,10.2,20.5,20.5,30.7,30.7c10.9,10.6,16.9,23.5,17.5,38.7c0.7,16.2-4.6,30.1-15.5,42 c-0.3,0.3-1,0.7-1.3,1c-0.7-0.7-1.3-1.3-2-2c-12.2-12.2-24.1-24.1-36.4-36.4C370.5,241.1,369.8,240.1,368.5,240.5z"></path> <path style="fill:#FFFFFF;" d="M125.8,239.1c-0.7-0.7-0.3-1.7-0.3-2.6c0-25.1,0-49.9,0-75.1c0-1,0-2,0-3l0,0c1,0,2,0,3,0 c20.2,0,40.3,0,60.2,0c6,0,11.6,0,17.5,0c0.3,0.7-0.3,1-1,1.3c-26.1,26.1-52.2,52.2-78.4,78.4C126.4,238.5,126.1,238.8,125.8,239.1 z"></path> <path style="fill:#FFFFFF;" d="M247.5,280.1c-0.7,0-1.3-0.7-1.7-1c-12.9-12.9-25.5-25.5-38.4-38.4c-0.3-0.3-0.7-0.7-1-1 c6.9-6.9,13.9-14.2,21.2-21.2c6-6,11.9-11.9,17.9-17.9c1-1.3,1.7-1.3,3,0c12.6,12.6,25.1,25.5,38,38c0.7,0.7,2,1,0.7,2.3 C273.6,254,260.4,266.9,247.5,280.1z"></path> <path style="fill:#FFFFFF;" d="M206.1,321.8c0-0.3,0.3-0.7,0.7-1c5.6,5.6,11.2,11.2,16.5,16.9c7.9,7.9,15.5,15.9,23.5,23.8 c-0.7,0.7-1,1.3-1.7,2c-12.2,12.2-24.5,24.5-36.7,36.7c-0.7,0.7-1.3,1.3-2,2l-0.3-0.3C206.1,375.4,206.1,348.6,206.1,321.8z"></path> <path style="fill:#FFFFFF;" d="M287.8,77.5c0,11.2,0,22.8,0,34.1c-0.3,15.5-0.3,31.1-0.3,46.6c-2-2-4.3-4.3-6.3-6.3 c-10.9-10.9-21.5-21.5-32.4-32.4c-0.7-0.7-1.3-1.3-1.7-2.3c0.7-0.7,1.3-1.3,2-2c12.2-12.2,24.5-24.5,36.7-36.7c0.7-0.7,1-1.3,1.7-2 l0,0C287.5,77.5,287.8,77.5,287.8,77.5z"></path> <path style="fill:#FFFFFF;" d="M368.5,240.5c1.3,0,1.7,1,2.3,1.7c12.2,12.2,24.5,24.1,36.4,36.4c0.7,0.7,1.3,1.3,2,2 c-4.6,4.6-9.3,9.3-13.9,13.9c-8.9,8.9-18.2,17.9-27.1,27.1c0-1.3,0-2.3,0-3.6C368.5,292,368.5,266.3,368.5,240.5z"></path> <path style="fill:#FFFFFF;" d="M206.5,402.5c0.7-0.7,1.3-1.3,2-2c12.2-12.2,24.5-24.5,36.7-36.7c0.7-0.7,1.3-1.3,1.7-2 c0.7,0.7,1.7,1.3,2.3,2.3c12.2,12.2,24.5,24.5,36.7,36.7c0.7,0.7,1.7,1,1.7,2c-26.5,0-52.6,0-79,0 C207.8,402.5,207.1,402.5,206.5,402.5L206.5,402.5z"></path> <path style="fill:#FFFFFF;" d="M206.5,77.1c0.3-1,1-1.3,1.3-1.7c12.6-12.6,25.1-24.8,37.4-37.4c1-1,1.7-2,3-0.3 c12.9,12.9,25.8,25.8,38.7,38.7c0.3,0.3,0.3,0.7,0.7,0.7l0,0C260.4,77.1,233.6,77.1,206.5,77.1z"></path> <path style="fill:#FFFFFF;" d="M206.5,77.1c26.8,0,53.9,0,80.7,0c-0.7,0.7-1,1.3-1.7,2c-12.2,12.2-24.5,24.5-36.7,36.7 c-0.7,0.7-1.3,1.3-2,2c-5.6-5.6-11.2-11.2-16.9-16.9c-7.3-7.3-14.5-14.5-21.5-21.5C207.5,78.5,206.8,78.1,206.5,77.1z"></path> <path style="fill:#FFFFFF;" d="M206.1,158.5c-6,0-11.6,0-17.5,0c-20.2,0-40.3,0-60.2,0c-1,0-2,0-3,0c5-5,9.6-9.9,14.5-14.5 c8.3-8.3,16.2-16.2,24.5-24.5c1-1,1.7-1.3,2.6-0.3c12.9,12.9,25.8,25.8,38.7,38.7C205.8,157.8,205.8,158.1,206.1,158.5z"></path> <path style="fill:#FFFFFF;" d="M206.5,402.5c0.7,0,1.3,0,2,0c26.5,0,52.6,0,79,0c0,0.7-1,1-1.3,1.7c-12.6,12.6-25.1,25.1-37.7,37.7 c-1,1-1.3,1.7-2.6,0.3c-12.9-12.9-25.8-25.8-38.7-38.7C206.8,402.8,206.5,402.8,206.5,402.5z"></path> <path style="fill:#FFFFFF;" d="M206.1,321.8c0,26.8,0,53.2,0,80c-2.6-2.6-5.3-5.3-8.3-7.9c-10.2-10.2-20.5-20.5-30.7-30.7 c-0.7-0.7-1.3-1.3-1.7-2c1-0.3,1.3-1.3,2.3-2c11.9-11.9,23.8-23.8,36-36C204.5,323.1,204.8,322.1,206.1,321.8z"></path> </g> </svg> 