<?xml version="1.0" encoding="UTF-8"?> <!-- Generator: Adobe Illustrator 24.3.0, SVG Export Plug-In . SVG Version: 6.00 Build 0) --> <svg xmlns="http://www.w3.org/2000/svg" xmlns:xlink="http://www.w3.org/1999/xlink" version="1.1" id="Layer_1" x="0px" y="0px" viewBox="0 0 500 500" style="enable-background:new 0 0 500 500;" xml:space="preserve"> <path style="fill:#FFFFFF;" d="M112,451.2l-30.6-34.6V407l88.4-158.9h49.5v203.1H112z M136.5,216.6H81.4V115.1L136.5,216.6z M81.4,248.1h56.5L81.4,355.8V248.1z M112,13.5h106.8V217h-49.5l-88-151.4V48.5L112,13.5z"></path> <path style="opacity:0.6;fill:#FFFFFF;enable-background:new ;" d="M249.4,451.2V248.1h49L386.9,407v9.6l-30.6,34.6 C356.2,451.2,249.4,451.2,249.4,451.2z M386.9,115.1v101.5h-55.1L386.9,115.1z M386.9,355.8l-56.5-107.7h56.5V355.8z M386.9,48.1 v17.1L298.5,217h-49V13.5h107.2L386.9,48.1z"></path> </svg> 