<?xml version="1.0" encoding="UTF-8"?> <!-- Generator: Adobe Illustrator 24.1.2, SVG Export Plug-In . SVG Version: 6.00 Build 0) --> <svg xmlns="http://www.w3.org/2000/svg" xmlns:xlink="http://www.w3.org/1999/xlink" version="1.1" id="Layer_1" x="0px" y="0px" viewBox="0 0 100 100" style="enable-background:new 0 0 100 100;" xml:space="preserve"> <g> <path style="fill:#FFFFFF;" d="M83.5,34.8c0.9,1.4,1.5,2.3,3.3,1.9c0.9-0.2,1-0.3,0.7-1.1c-0.7-2.1-1.4-4.3-2-6.4 c-0.6-2-1.4-3.7-2.6-5.4c-1.5-2.2-2.9-4.4-4.3-6.6c-0.2,0-0.4,0-0.6,0c-0.6,0.9-0.7,1.8-0.4,2.9C78.9,25.2,80.6,30.2,83.5,34.8z M78.4,18.4c0.3-0.1,0.4,0.3,0.6,0.5c1.5,2.3,3.1,4.6,4.6,6.9c0.1,0.2,0.2,0.4,0.3,0.5c0.1,0.2,0.1,0.5-0.1,0.6 c-0.2,0.2-0.4-0.1-0.5-0.2c-1.7-2.2-3.4-4.4-4.9-6.7c-0.2-0.3-0.2-0.6-0.3-0.8C78.1,18.9,78.1,18.5,78.4,18.4z"></path> <path style="fill:#FFFFFF;" d="M2.9,64.5c0.7-0.3,1.5-0.6,2.2-1c0.7-0.4,1.1-0.3,1.7,0.3c2.1,2,4.2,4,6.2,6 c0.7,0.7,1.3,0.8,2.1,0.2c-0.1-0.2-0.3-0.4-0.4-0.6c-1.8-1.9-3.6-3.8-5.4-5.8c-0.6-0.7-0.5-0.9,0.3-1.1c0.8-0.2,1.4,0.2,2,0.6 c1.5,1.1,3,2.1,4.8,2.7c1,0.3,2.1,0.3,3.2,0.6c-0.8,0.4-1.6,0.8-2.4,1.3c-0.6,0.3-0.9,0.7-0.6,1.3c0.3,0.7,0.8,0.1,1.1,0 c5.7-2.3,11.4-4.7,17.1-7.1c1.1-0.5,2-0.5,2.8,0.4c0.8,1,1.8,1,3,0.6c6.6-2.3,13.2-4.8,19.5-7.7c1.7-0.8,3.5-0.3,5.3-0.4 c-0.2,0.5-0.6,0.5-0.8,0.6C53,59.9,41.1,64.4,28.9,68c-4.9,1.5-9.7,2.9-14.8,3.2c-0.7,0-1.3,0.5-1.9,0.7C12,72,11.8,72,11.9,72.3 c0.2,0.8,1.4,1.5,2.2,1.3c0.4-0.1,0.8-0.4,0.9,0.2c0.4,1.3,1.2,1.2,2.2,0.8c9.3-2.9,18.6-5.8,27.9-8.8c9-2.9,18.1-5.5,26.9-9.2 c4.4-1.9,8.9-3.7,12.9-6.3c2.8-1.8,3.2-3.2,2-6.3c-1-2.4-2-4.7-3.1-7.1c-0.9-1.9-2-2.6-4.2-2.2c-4.2,0.6-8.2,2-12.3,3.2 c-2.2,0.6-4.2,0.7-6.2-0.4c-1.6-0.9-3.1-0.7-4.7-0.1c-3.1,1.3-5.9,3-8.6,5c-0.8,0.6-1.1,1.4-1.3,2.3c-0.2,0.8,0,1.1,0.8,1.1 c1.8,0.1,3.7,0.3,5.5,0.5c0.8,0.1,1.5,0,2.4-0.5c6-3.3,12.1-6.4,18.6-8.5c1.7-0.6,3.5-1,5.3-1c0.7,0,1.2,0.3,1.4,1 c0.3,0.8,0.6,1.6,0.9,2.4c1,2.3,2,4.5,3.2,6.7c0.1,0.2,0.4,0.5,0.1,0.7c-0.3,0.3-0.6,0.2-0.9,0c-0.1-0.1-0.3-0.2-0.4-0.3 c-0.5-0.6-1-0.5-1.7-0.1c-3.1,1.9-6.4,3.6-9.7,5.2c-2,1-3.9,1.3-5.9,0.1c-0.1,0-0.1-0.1-0.2-0.1c-0.5-0.1-0.7-0.3-0.4-0.9 c0.4-0.9,0.2-1.2-0.8-1.4c-0.5-0.1-1-0.2-1.5-0.2c-10.8-1.6-21.5-3.1-32.3-4.5c-2.4-0.3-4.6,0.3-6.5,1.9c-0.6,0.5-0.8,0.9-0.1,1.5 c0.5,0.4,0.9,0.9,1.4,1.4c0.6,0.6,1.1,1.5,1.9,1.8c0.8,0.3,1.6-0.6,2.5-0.9c0.3-0.1,0.6-0.4,0.8,0c0.2,0.4,0.3,0.9-0.2,1.2 c-0.2,0.1-0.4,0.2-0.5,0.3c-1.8,0.9-3.4,2-5.3,2.7c-2.1,0.8-2.4,2.4-2.5,4.3c0.5,0.1,0.7-0.2,1.1-0.4c2.2-1.1,4.4-2.1,6.5-3.2 c0.8-0.4,1.6-0.1,1.8,0.6c0.2,0.7-0.5,0.6-0.9,0.9c-0.3,0.2-0.7,0.4-1,0.6c-0.5,0.2-0.6,0.6-0.4,1c0.3,0.5,0.6,0.1,0.9,0 c2.4-1.1,4.7-2.2,7.1-3.3c0.3-0.1,0.7-0.6,0.9-0.1c0.2,0.4-0.2,0.7-0.6,0.9c-0.3,0.2-0.7,0.4-1,0.6c-4.1,2.2-8.4,4.2-12.5,6.3 c-2.4,1.2-4.4,1-6.5-0.5c-0.9-0.7-1.8-1.3-2.7-1.9c-1.1-0.8-2.2-1.6-3.3-2.4c-2.1-1.5-6.4-0.7-7.9,1.4c-0.2,0.3-0.3,0.7-0.1,1 c0.2,0.3,0.5,0,0.7-0.1C5.3,60,6,59.6,6.8,59.3c0.3-0.1,0.7-0.6,0.9-0.1c0.3,0.5-0.3,0.6-0.6,0.8c-1.2,0.6-2.4,1.3-3.6,1.9 c-1.1,0.5-1.3,1.2-1.2,2.2C2.3,64.6,2.5,64.7,2.9,64.5z M54,42.3c-1.5,1-3,0.9-4.8,0.5c2.8-2.9,6.7-4.1,9.2-2.8 C56.9,40.8,55.3,41.4,54,42.3z M62.8,40.2c-1.2,0.6-2.4,1.2-3.6,1.9c-0.3,0.1-0.6,0.3-0.8-0.1c-0.2-0.4,0.1-0.6,0.4-0.7 c0.4-0.2,0.9-0.5,1.3-0.7c0.2-0.1,0.4-0.2,0.5-0.5c0-0.4-0.3-0.4-0.5-0.5c-0.9-0.4-1.8-0.7-2.9-1.2c0.9-0.6,1.6-0.7,2.3-0.4 c1.1,0.4,2.3,0.9,3.4,1.4c0.2,0.1,0.5,0.2,0.5,0.5C63.2,40,63,40.1,62.8,40.2z M31.7,46.5c-0.3-0.1-0.6-0.1-0.7-0.6 c1.8,0.2,3.6,0.5,5.3,0.7c8.9,1.2,17.8,2.5,26.7,3.7c0.4,0.1,1-0.1,1.2,0.4c0.1,0.5-0.4,0.8-0.7,1.1c-0.7,0.6-1.5,0.8-2.5,0.6 C51.2,50.4,41.4,48.4,31.7,46.5z"></path> <path style="fill:#FFFFFF;" d="M89.5,41.5c-0.4,0.4-0.7,1-1.1,1.2c-0.7,0.4-0.6,0.8-0.4,1.4c0.8,2.4,1.5,4.8,2.2,7.3 c0.2,0.6,0.4,1.2,0.7,1.7c1.8,2.7,3.6,5.4,5.4,8.2c0.5,0.7,0.9,0.6,1.3-0.1c0.2-0.3,0.2-0.7,0.2-1.2c0-0.1,0-0.3-0.1-0.4 c-1.4-6.5-4.1-12.3-7.5-17.9C89.9,41.1,89.7,41.2,89.5,41.5z M91.5,51.7c2,2.6,3.9,4.9,5.5,7.5c0.3,0.5,0.3,1-0.1,1.4 C95.4,59.4,91.3,52.8,91.5,51.7z"></path> <path style="fill:#FFFFFF;" d="M69.4,42.3c-3.4,1.4-6.9,2.8-10.3,4.2c-0.2,0.1-0.5,0.1-0.7,0.4c0.2,0.1,0.5,0.2,0.7,0.2 c3,0.6,5.9,1.2,8.9,1.7c2.3,0.4,2.3,0.4,3.4-1.6c1.3-2.5,1.3-2.5-0.5-4.6C70.3,42.1,70,42,69.4,42.3z"></path> <path style="fill:#FFFFFF;" d="M76,38.1c-0.6,1.5-0.8,3-1.5,4.4c-0.4-0.5-0.8-1-1.2-1.5c-0.4-0.6-0.9-0.2-1.3,0 c-0.5,0.3,0,0.6,0.2,0.8c0.3,0.5,0.7,1,1.1,1.4c0.6,0.6,0.6,1.2,0.3,1.9c-0.5,1.3-1.2,2.5-1.9,3.8c1.9-0.4,2.9-1.5,3.3-3.3 c0.6,0.3,0.8,0.7,1,1.1c0.4,0.5,0.8,0.1,1.2-0.1c0.5-0.3,0-0.6-0.1-0.8c-0.2-0.3-0.4-0.6-0.7-0.9c-0.8-0.7-0.9-1.6-0.7-2.6 C76,41,76.2,39.7,76,38.1z"></path> <path style="fill:#FFFFFF;" d="M86.2,37.1c-0.9,0-1.1,0.3-0.8,1.1c0.6,1.2,1.1,2.5,1.7,3.7c0.3,0.6,0.7,0.7,1.2,0.2 c1.1-1.1,2-2.3,2.6-3.7c0.3-0.7,0.1-1-0.6-1.2c-0.8-0.2-1.7-0.1-2.5-0.2C87.2,37.1,86.7,37.1,86.2,37.1z M90.1,38.1 c-1.1,0.5-2.1,1.1-3.3,1.4c-0.7,0.2-0.7-0.8-0.9-1.3c-0.2-0.6,0.3-0.5,0.6-0.5C87.8,37.6,88.9,37.6,90.1,38.1z"></path> </g> </svg> 