<?xml version="1.0" encoding="UTF-8"?> <!-- Generator: Adobe Illustrator 24.3.0, SVG Export Plug-In . SVG Version: 6.00 Build 0) --> <svg xmlns="http://www.w3.org/2000/svg" xmlns:xlink="http://www.w3.org/1999/xlink" version="1.1" id="Layer_1" x="0px" y="0px" viewBox="0 0 500 500" style="enable-background:new 0 0 500 500;" xml:space="preserve"> <path style="fill:#FFFFFF;" d="M296.9,446.5c0.8-9.2,1.5-20,1.5-20s-2.3-5.4-3.8-8.5c-1.5-3.8,0-3.1,0.8-4.6c0,0,0.8-4.6-2.3-8.5 c-3.1-3.8-9.2-17.7-10-17.7s2.3-3.8,2.3-3.8l-5.4-12.3c0,0-32.3-23.8-45.4-36.1c-13.1-12.3-38.4-54.6-40.7-55.4 c-2.3-0.8-6.9,0.8-6.9,0.8s-1.5-3.8-3.1-10c-0.8-3.1-5.4-13.1-9.2-22.3c-3.8-9.2-6.9-18.5-6.9-21.5c0-5.4,0-13.1,1.5-19.2 c1.5-5.4,9.2-13.8,8.5-13.8c-0.8,0-1.5-3.1-1.5-3.1s-6.2,3.8-13.1-2.3c-7.7-6.2-1.5-23.1,11.5-55.4c13.8-32.3,19.2-38.4,22.3-40.7 c2.3-2.3,3.8-3.1,4.6-3.1c3.8,0,10.8,0,13.8-0.8l1.5-2.3l13.1-0.8c0,0,8.5-0.8,5.4-21.5c0,0-3.1-6.9-3.1-8.5c0-1.5,1.5-3.1,2.3-3.8 c4.6-4.6,4.6-3.8,5.4-16.9l6.2-4.6l3.8-3.1h-63c-15.4,0-27.7,12.3-27.7,27.7v385.9c0,15.4,12.3,27.7,27.7,27.7h116.1 C302.3,468.7,296.9,461.8,296.9,446.5z M210.8,444.9h-16.1l-10-43.8v43.8h-10.8v-56.1h18.5l6.9,36.1v-36.1H210v56.1H210.8z M246.2,404.9c0,5.4-1.5,9.2-10,10.8l0,0c6.9,0.8,10,3.1,10,12.3v4.6c0,9.2-5.4,12.3-16.1,12.3h-15.4v-56.1H230 c8.5,0,16.1,3.1,16.1,11.5V404.9z M270,444.9l-1.5-15.4h-6.2l-2.3,15.4h-12.3l10-56.1h17.7l7.7,56.1H270z"></path> <path style="fill:#FFFFFF;" d="M230,397.2h-1.5v15.4h1.5c2.3,0,3.1-0.8,3.1-3.8v-8.5C233.1,398,232.3,397.2,230,397.2z"></path> <path style="fill:#FFFFFF;" d="M230,419.5h-1.5v17.7h1.5c2.3,0,3.1-0.8,3.1-2.3v-12.3C233.1,419.5,232.3,419.5,230,419.5z"></path> <polygon style="fill:#FFFFFF;" points="263.1,421.9 267.7,421.9 265.4,398.8 "></polygon> <path style="fill:#FFFFFF;" d="M311.5,284.2c-18.5,0-33.8-15.4-33.8-33.8c0-14.6,9.2-26.9,22.3-31.5c0.8-1.5,2.3-3.1,2.3-3.1 s-1.5-4.6-6.2-10.8s-10-22.3-12.3-27.7c-1.5-5.4-5.4-30-6.2-30c-0.8-0.8-1.5,0-5.4,1.5c-4.6,1.5-7.7,8.5-9.2,12.3 c-1.5,3.1-8.5,23.1-9.2,23.1c-0.8,0,1.5,2.3,1.5,2.3s4.6,3.1,6.2,4.6c1.5,1.5,12.3,42.3,12.3,42.3l-3.1,4.6c0,0,0.8,3.8,1.5,9.2 c1.5,5.4,3.1,13.1,4.6,19.2c3.8,13.1,7.7,33.1,7.7,33.1s5.4,9.2,10,19.2c4.6,9.2,10,45.4,10,45.4c0,0.8,7.7,13.1,8.5,18.5 s-2.3,16.9-2.3,16.9s0.8,8.5,0.8,10.8c0.8,1.5,0.8,4.6,2.3,6.2s1.5,6.2,1.5,7.7c0,1.5,7.7,26.1,7.7,28.4c0,3.1-5.4,10.8-6.9,12.3 c-0.8,0-3.8,3.8-3.8,3.8c15.4-0.8,26.9-13.1,26.9-27.7V266.6C335.3,277.3,323.8,284.2,311.5,284.2z"></path> <path style="fill:#FFFFFF;" d="M313.1,27.5H270c0.8,0.8,10,6.9,12.3,8.5c1.5,2.3,0.8,6.2,0,10s-3.1,9.2-3.1,9.2s-1.5,3.1-0.8,3.8 c0.8,0.8,0.8,2.3,0.8,2.3s-5.4,10-6.2,10.8c-0.8,0.8-7.7,13.1-10,13.8c-0.8,0-1.5,3.1-0.8,3.8c1.5,0.8,6.9,5.4,6.9,5.4l3.1,0.8 l6.9,4.6c0,0,0.8,2.3,3.8,3.8c3.1,1.5,10,8.5,14.6,13.8c3.8,5.4,5.4,18.5,5.4,27.7c0.8,10,4.6,30.8,5.4,32.3 c0.8,1.5,7.7,17.7,8.5,21.5c1.5,3.8,2.3,13.1,2.3,13.1l6.2,7.7c6.2,3.1,11.5,7.7,15.4,13.8V55.1C340.7,39.8,328.4,27.5,313.1,27.5z"></path> </svg> 