<?xml version="1.0" encoding="UTF-8"?> <!-- Generator: Adobe Illustrator 24.3.0, SVG Export Plug-In . SVG Version: 6.00 Build 0) --> <svg xmlns="http://www.w3.org/2000/svg" xmlns:xlink="http://www.w3.org/1999/xlink" version="1.1" id="Layer_1" x="0px" y="0px" viewBox="0 0 500 500" style="enable-background:new 0 0 500 500;" xml:space="preserve"> <path style="fill:#FFFFFF;" d="M310.6,78.1C248,189.9,186.5,300.7,123.9,411.4C35.8,348.9,9.1,220.7,74.7,125.3 c69.7-100.5,206.1-122,302.5-48.2s97.4,197.9,54.4,266.6C391.6,255.5,351.6,167.3,310.6,78.1z"></path> <path style="fill:#FFFFFF;" d="M188.6,443.2c41-94.3,81-186.6,122-281c9.2,20.5,17.4,39,25.6,58.5c22.6,51.3,46.1,102.6,68.7,153.8 c2.1,4.1,2.1,7.2-2.1,11.3c-44.1,46.1-98.5,68.7-163.1,67.7C223.4,451.4,206,448.3,188.6,443.2z"></path> </svg> 