<?xml version="1.0" encoding="UTF-8"?> <!-- Generator: Adobe Illustrator 24.3.0, SVG Export Plug-In . SVG Version: 6.00 Build 0) --> <svg xmlns="http://www.w3.org/2000/svg" xmlns:xlink="http://www.w3.org/1999/xlink" version="1.1" id="Layer_1" x="0px" y="0px" viewBox="0 0 500 500" style="enable-background:new 0 0 500 500;" xml:space="preserve"> <g> <path style="fill:#FFFFFF;" d="M270.9,371.3h-42.4c-7.7,0-13.9-6.2-13.9-13.9v-10c0-3,2.4-5.5,5.5-5.5c3,0,5.5,2.4,5.5,5.5v10 c0,1.7,1.4,3,3,3h42.4c1.7,0,3-1.4,3-3v-26c0-1.7-1.4-3-3-3h-42.4c-7.7,0-13.9-6.2-13.9-13.9v-26c0-7.7,6.2-13.9,13.9-13.9h42.4 c7.7,0,13.9,6.2,13.9,13.9v10c0,3-2.4,5.5-5.5,5.5c-3,0-5.5-2.4-5.5-5.5v-10c0-1.7-1.4-3-3-3h-42.4c-1.7,0-3,1.4-3,3v26 c0,1.7,1.4,3,3,3h42.4c7.7,0,13.9,6.2,13.9,13.9v26C284.8,365,278.6,371.3,270.9,371.3z"></path> <path style="fill:#FFFFFF;" d="M249.7,378.5c-3,0-5.5-2.4-5.5-5.5V272.7c0-3,2.4-5.5,5.5-5.5c3,0,5.5,2.4,5.5,5.5V373 C255.2,376.1,252.7,378.5,249.7,378.5z"></path> <path style="fill:#FFFFFF;" d="M249.7,401.2c-43.2,0-78.3-35.1-78.3-78.3c0-43.2,35.1-78.3,78.3-78.3c43.2,0,78.3,35.1,78.3,78.3 C328,366.1,292.9,401.2,249.7,401.2z M249.7,255.5c-37.2,0-67.4,30.2-67.4,67.4c0,37.2,30.2,67.4,67.4,67.4 c37.2,0,67.4-30.2,67.4-67.4C317.1,285.7,286.9,255.5,249.7,255.5z"></path> <path style="fill:#FFFFFF;" d="M358.3,315.7c-5.3,0-10.6-0.5-15.8-1.6c-2.9-0.6-4.9-3.5-4.2-6.4c0.6-3,3.5-4.9,6.4-4.2 c4.4,0.9,9,1.4,13.6,1.4c37.2,0,67.4-30.2,67.4-67.4c0-37.2-30.2-67.4-67.4-67.4c-37.2,0-67.4,30.2-67.4,67.4c0,3-2.4,5.5-5.5,5.5 c-3,0-5.5-2.4-5.5-5.5c0-43.2,35.1-78.3,78.3-78.3c43.2,0,78.3,35.1,78.3,78.3C436.5,280.6,401.4,315.7,358.3,315.7z"></path> <path style="fill:#FFFFFF;" d="M141.2,315.7c-43.2,0-78.3-35.1-78.3-78.3c0-43.2,35.1-78.3,78.3-78.3c43.2,0,78.3,35.1,78.3,78.3 c0,3-2.4,5.5-5.5,5.5c-3,0-5.5-2.4-5.5-5.5c0-37.2-30.2-67.4-67.4-67.4c-37.2,0-67.4,30.2-67.4,67.4c0,37.2,30.2,67.4,67.4,67.4 c3.7,0,7.5-0.3,11.1-0.9c2.9-0.5,5.8,1.5,6.3,4.5c0.5,3-1.5,5.8-4.5,6.3C149.8,315.3,145.5,315.7,141.2,315.7z"></path> <path style="fill:#FFFFFF;" d="M141.2,170c-3,0-5.5-2.4-5.5-5.5V73.7c0-3,2.4-5.5,5.5-5.5c3,0,5.5,2.4,5.5,5.5v90.9 C146.6,167.6,144.2,170,141.2,170z"></path> <path style="fill:#FFFFFF;" d="M176.9,179.6c-3,0-5.5-2.4-5.5-5.5V83.2c0-3,2.4-5.5,5.5-5.5c3,0,5.5,2.4,5.5,5.5v90.9 C182.3,177.1,179.9,179.6,176.9,179.6z"></path> <path style="fill:#FFFFFF;" d="M105.5,179.6c-3,0-5.5-2.4-5.5-5.5V83.2c0-3,2.4-5.5,5.5-5.5c3,0,5.5,2.4,5.5,5.5v90.9 C110.9,177.1,108.5,179.6,105.5,179.6z"></path> <path style="fill:#FFFFFF;" d="M358.3,170c-3,0-5.5-2.4-5.5-5.5V73.7c0-3,2.4-5.5,5.5-5.5c3,0,5.5,2.4,5.5,5.5v90.9 C363.7,167.6,361.3,170,358.3,170z"></path> <path style="fill:#FFFFFF;" d="M322.6,179.6c-3,0-5.5-2.4-5.5-5.5V83.2c0-3,2.4-5.5,5.5-5.5c3,0,5.5,2.4,5.5,5.5v90.9 C328,177.1,325.6,179.6,322.6,179.6z"></path> <path style="fill:#FFFFFF;" d="M394,179.6c-3,0-5.5-2.4-5.5-5.5V83.2c0-3,2.4-5.5,5.5-5.5c3,0,5.5,2.4,5.5,5.5v90.9 C399.4,177.1,397,179.6,394,179.6z"></path> <path style="fill:#FFFFFF;" d="M236.4,235.3c-3,0-5.5-2.4-5.5-5.5v-33.7h-33.9c-3,0-5.5-2.4-5.5-5.5c0-3,2.4-5.5,5.5-5.5h39.3 c3,0,5.5,2.4,5.5,5.5v39.1C241.9,232.9,239.4,235.3,236.4,235.3z"></path> <path style="fill:#FFFFFF;" d="M263,235.3c-3,0-5.5-2.4-5.5-5.5v-39.1c0-3,2.4-5.5,5.5-5.5h39.3c3,0,5.5,2.4,5.5,5.5 c0,3-2.4,5.5-5.5,5.5h-33.9v33.7C268.5,232.9,266,235.3,263,235.3z"></path> <path style="fill:#FFFFFF;" d="M380.3,281.1c-2.5,0-5.1-0.8-7.2-2.5L359,268.1c-0.4-0.3-1-0.3-1.4,0l-14.1,10.5 c-4.3,3.2-9.9,3.3-14.2,0.2c-4.4-3.1-6.3-8.8-4.7-14l5.4-17.1c0.2-0.7,0-1.4-0.5-1.8l-14.1-10.5c-4.4-3.3-6.1-8.8-4.3-14 c1.7-5.1,6.2-8.4,11.6-8.4H340c0.5,0,1-0.4,1.2-1l5.4-17.1c1.7-5.2,6.2-8.6,11.6-8.6c5.4,0,10,3.4,11.6,8.6l5.4,17.1 c0.2,0.6,0.7,1,1.2,1h17.4c5.3,0,9.9,3.3,11.6,8.4c1.7,5.2,0,10.7-4.3,14c0,0-14.1,10.5-14.1,10.5c-0.5,0.4-0.7,1.1-0.5,1.8 l5.4,17.1c1.6,5.2-0.2,10.9-4.7,14C385.1,280.4,382.7,281.1,380.3,281.1z M358.3,256.9c2.5,0,5.1,0.8,7.2,2.4l14.1,10.5 c0.2,0.2,0.7,0.5,1.4,0c0.3-0.2,0.9-0.8,0.6-1.8l-5.4-17.1c-1.6-5.1,0.2-10.6,4.4-13.8l14.1-10.5c0.8-0.6,0.7-1.4,0.5-1.8 c-0.3-1-1-1-1.2-1h-17.4c-5.3,0-10-3.5-11.6-8.6l-5.4-17.1c-0.1-0.2-0.3-1-1.2-1c-0.9,0-1.1,0.8-1.2,1l-5.4,17.1 c-1.6,5.2-6.3,8.6-11.6,8.6h-17.4c-0.2,0-0.9,0-1.2,1c-0.1,0.4-0.3,1.2,0.5,1.8l14.1,10.5c4.2,3.2,6,8.7,4.4,13.8l-5.4,17.1 c-0.3,1,0.2,1.6,0.6,1.8c0.7,0.5,1.1,0.1,1.4,0l14.1-10.5C353.2,257.8,355.7,256.9,358.3,256.9z"></path> <path style="fill:#FFFFFF;" d="M163.2,281.1c-2.5,0-5.1-0.8-7.2-2.5l-14.1-10.5c-0.4-0.3-1-0.3-1.4,0l-14.1,10.5 c-4.3,3.2-9.9,3.3-14.2,0.2c-4.4-3.1-6.3-8.8-4.7-14l5.4-17.1c0.2-0.7,0-1.4-0.5-1.8l-14.1-10.5c-4.4-3.3-6.1-8.8-4.3-14 c1.7-5.1,6.2-8.4,11.6-8.4h17.4c0.5,0,1-0.4,1.2-1l5.4-17.1c1.7-5.2,6.2-8.6,11.6-8.6c5.4,0,10,3.4,11.6,8.6l5.4,17.1 c0.2,0.6,0.7,1,1.2,1h17.4c5.3,0,9.9,3.3,11.6,8.4c1.7,5.2,0,10.7-4.3,14L170,246c-0.5,0.4-0.7,1.1-0.5,1.8l5.4,17.1 c1.6,5.2-0.2,10.9-4.7,14C168,280.4,165.6,281.1,163.2,281.1z M141.2,256.9c2.5,0,5.1,0.8,7.2,2.4l14.1,10.5c0.2,0.2,0.7,0.5,1.4,0 c0.3-0.2,0.9-0.8,0.6-1.8l-5.4-17.1c-1.6-5.1,0.2-10.6,4.4-13.8l14.1-10.5c0.8-0.6,0.7-1.4,0.5-1.8c-0.3-1-1-1-1.2-1h-17.4 c-5.3,0-10-3.5-11.6-8.6l-5.4-17.1c-0.1-0.2-0.3-1-1.2-1c-0.9,0-1.1,0.8-1.2,1l-5.4,17.1c-1.6,5.2-6.3,8.6-11.6,8.6h-17.4 c-0.2,0-0.9,0-1.2,1c-0.1,0.4-0.3,1.2,0.5,1.8c0,0,14.1,10.5,14.1,10.5c4.2,3.2,6,8.7,4.4,13.8l-5.4,17.1c-0.3,1,0.2,1.6,0.6,1.8 c0.7,0.5,1.1,0.1,1.4,0l14.1-10.5C136.1,257.8,138.6,256.9,141.2,256.9z"></path> </g> </svg> 