<?xml version="1.0" encoding="UTF-8"?> <!-- Generator: Adobe Illustrator 24.3.0, SVG Export Plug-In . SVG Version: 6.00 Build 0) --> <svg xmlns="http://www.w3.org/2000/svg" xmlns:xlink="http://www.w3.org/1999/xlink" version="1.1" id="Layer_1" x="0px" y="0px" viewBox="0 0 500 500" style="enable-background:new 0 0 500 500;" xml:space="preserve"> <g> <path style="fill:#FFFFFF;" d="M252.6,72.1C157.4,72.7,79.8,151.6,81,247.5c1.3,95.8,79.5,172.8,176,172.2 c95.2-1.3,172.2-78.9,171.6-174.1C427.9,147.9,350.3,71.5,252.6,72.1z M249.5,373.9c0,6.9-0.6,7.5-6.9,3.8 c-35.7-20.7-70.8-41.3-106.5-61.4c-5-3.1-6.9-6.3-6.9-11.9c0-40.7,0-82,0-122.7c0-1.9,0-3.8,0.6-6.9c14.4,8.1,27.6,15.7,40.7,23.2 c23.8,13.8,47.6,27.6,71.4,41.3c5.6,3.1,8.1,7.5,8.1,14.4C249.5,293.2,249.5,333.9,249.5,373.9z M248.2,229.3 c-33.2-19.4-67-38.8-100.2-57.6c-3.8-2.5-8.8-3.8-12.5-8.1c38.8-16.3,76.4-31.9,114-48.2c3.1-1.3,5.6-1.3,9.4,0 c35.7,15,72,30.1,107.7,45.1c1.9,0.6,5.6,1.3,5.6,3.8c0,2.5-3.1,2.5-5,3.8c-35.7,20.7-71.4,40.7-107.1,61.4 C255.7,233,252.6,231.8,248.2,229.3z M376,315.1c-36.9,20.7-73.3,42-109.6,63.2c-1.3,0.6-3.1,1.3-5.6,2.5c0-9.4,0-17.5,0-25.7 c0-35.1,0-70.8,0-105.8c0-4.4,0.6-6.9,5-8.8c37.6-21.3,74.5-42.6,112.1-63.9c0.6-0.6,1.3-0.6,1.9-0.6c1.9,1.3,1.3,3.1,1.3,4.4 c0,42,0,83.9,0,125.9C380.3,310.1,379.7,312.6,376,315.1z"></path> <path style="fill:#FFFFFF;" d="M171.2,302.6c-0.6,3.8-1.3,6.9-4.4,9.4c-3.8,1.9-6.9,0.6-9.4-1.3c-8.1-6.3-12.5-14.4-13.8-24.4 c-0.6-3.8,0.6-7.5,4.4-9.4c3.8-1.9,6.9,0,9.4,1.9C166.2,283.8,169.3,292.5,171.2,302.6z"></path> <path style="fill:#FFFFFF;" d="M202.5,250c0-2.5,0-6.3,3.8-8.1s6.9-0.6,9.4,1.3c8.8,6.3,13.8,15,13.2,25.7c0,8.1-5.6,11.3-13.2,6.9 C208.8,271.2,202.5,260,202.5,250z"></path> <path style="fill:#FFFFFF;" d="M200,284.4c0,3.8,0,7.5-3.8,10c-3.8,1.9-6.9,0-10-1.9c-8.8-6.3-12.5-15-12.5-25 c0-7.5,6.3-11.3,12.5-6.9C194.4,265.6,198.7,273.8,200,284.4z"></path> <path style="fill:#FFFFFF;" d="M254.5,176.1c-7.5,0-14.4-1.3-20-5.6c-6.3-4.4-6.3-9.4,0-14.4c10-7.5,32.6-7.5,42,0 c6.3,5,5,11.3-1.9,15C268.9,174.8,261.4,176.1,254.5,176.1z"></path> <path style="fill:#FFFFFF;" d="M334.6,270.6c-0.6,8.1-3.8,15-10,20c-3.1,2.5-6.9,5-11.3,3.1c-4.4-1.9-5.6-6.3-5.6-10.6 c0-8.1,3.1-15,9.4-20c3.1-3.1,6.9-5.6,11.9-3.8C334,260.6,334.6,265.6,334.6,270.6z"></path> <path style="fill:#FFFFFF;" d="M362.8,219.3c-0.6,8.1-4.4,15.7-12.5,21.3c-6.3,3.8-11.3,1.9-13.8-5c-2.5-9.4,4.4-24.4,13.2-28.2 C357.8,204.2,362.8,209.3,362.8,219.3z"></path> <path style="fill:#FFFFFF;" d="M362.8,293.8c-1.9,8.8-4.4,17.5-13.8,21.9c-6.3,3.1-11.3,0.6-12.5-6.3c-1.9-8.1,3.8-21.3,11.3-25.7 c3.1-1.9,6.9-3.1,10.6-1.3C362.2,284.4,362.2,288.8,362.8,293.8z"></path> <path style="fill:#FFFFFF;" d="M305.2,322.6c-0.6,8.8-3.8,16.3-11.9,21.9c-7.5,5-14.4,1.3-14.4-6.9c-0.6-8.8,2.5-16.9,10-22.5 c3.1-2.5,6.9-5,11.3-3.1C304.6,313.8,305.8,318.2,305.2,322.6z"></path> <path style="fill:#FFFFFF;" d="M279.5,260c0.6-8.8,3.8-15.7,10.6-20.7c3.1-2.5,6.9-3.8,11.3-1.9c3.8,1.9,4.4,5.6,4.4,9.4 c0,8.1-3.1,15-8.8,20.7c-3.1,3.1-6.9,6.3-11.9,4.4C280.1,270,278.9,265,279.5,260z"></path> </g> </svg> 