<?xml version="1.0" encoding="UTF-8"?> <!-- Generator: Adobe Illustrator 24.3.0, SVG Export Plug-In . SVG Version: 6.00 Build 0) --> <svg xmlns="http://www.w3.org/2000/svg" xmlns:xlink="http://www.w3.org/1999/xlink" version="1.1" id="Layer_1" x="0px" y="0px" viewBox="0 0 500 500" style="enable-background:new 0 0 500 500;" xml:space="preserve"> <g> <path style="fill:#FFFFFF;" d="M390,240.3c-5.1,0-9.3,0-14.4,0c-1.7-10.1-6.8-17.7-18.6-16.9c-10.1,0.8-15.2,7.6-16.9,16.9 c-5.1,0-9.3,0-14.4,0c-5.1-13.5-9.3-17.7-18.6-16.9c-9.3,0.8-14.4,5.1-16.9,16.9c-5.1,0-9.3,0-14.4,0c-0.8-11,6.8-23.6,16.9-28.7 c16-7.6,28.7-3.4,39.7,10.1c11-12.7,23.6-17.7,38.8-11C384.1,216.7,389.2,226.8,390,240.3z"></path> <path style="fill:#FFFFFF;" d="M82.7,244.6c5.1,0,10.1,0,15.2,0c0,7.6,1.7,15.2,7.6,20.3c5.1,4.2,11,5.1,16.9,4.2 c12.7-0.8,20.3-8.4,21.1-24.5c5.1,0,9.3,0,14.4,0c0.8,12.7-2.5,24.5-13.5,32.1c-13.5,10.1-29.6,10.1-43.9,2.5 C86.9,272.4,82.7,259.8,82.7,244.6z"></path> <path style="fill:#FFFFFF;" d="M158.7,240.3c-4.2,0-9.3,0-14.4,0c-3.4-12.7-12.7-17.7-25.3-16.9c-11,0.8-16,4.2-21.1,16.9 c-4.2,0-9.3,0-13.5,0c-0.8-16,15.2-32.1,34.6-32.1C138.4,207.4,155.3,217.5,158.7,240.3z"></path> <path style="fill:#FFFFFF;" d="M67.5,240.3c-5.1,0-9.3,0-12.7,0c-3.4-5.1-5.1-11.8-9.3-13.5c-6.8-3.4-15.2-3.4-23.6-5.1 c0,6.8,0,12.7,0,17.7c-5.1,0-10.1,0-16,0c0-10.1,0-19.4,0-28.7c0-0.8,2.5-2.5,3.4-2.5c9.3,0,18.6-0.8,27.9,0 c16,0.8,27,11.8,29.6,26.2C67.5,236.1,67.5,237.8,67.5,240.3z"></path> <path style="fill:#FFFFFF;" d="M189.9,244.6c0,8.4,0,16,0,24.5c11,0,21.1,0,31.2,0c0,5.1,0,9.3,0,14.4c-15.2,0-30.4,0-45.6,0 c0-12.7,0-26.2,0-39.7C180.7,244.6,184.9,244.6,189.9,244.6z"></path> <path style="fill:#FFFFFF;" d="M473.6,240.3c-5.1,0-10.1,0-15.2,0c0-5.9,0-11,0-16.9c-5.9,0-11.8,0-16.9,0 c-0.8-0.8-0.8-0.8-0.8-1.7c-0.8-14.4-0.8-14.4,12.7-14.4c11,0,21.1,0,32.1,0c4.2,0,5.9,1.7,5.9,5.9c0,3.4,0,5.9,0,10.1 c-5.9,0-11.8,0-17.7,0C473.6,228.5,473.6,234.4,473.6,240.3z"></path> <path style="fill:#FFFFFF;" d="M408.6,244.6c5.1,0,9.3,0,14.4,0c0,13.5,0,26.2,0,39.7c-5.1,0-9.3,0-14.4,0 C408.6,270.7,408.6,258.1,408.6,244.6z"></path> <path style="fill:#FFFFFF;" d="M5.9,244.6c5.9,0,10.1,0,15.2,0c0,12.7,0,26.2,0,39.7c-4.2,0-8.4,0-12.7,0c-0.8,0-2.5-1.7-2.5-2.5 C5.9,269,5.9,257.2,5.9,244.6z"></path> <path style="fill:#FFFFFF;" d="M390,284.2c-5.1,0-9.3,0-14.4,0c0-12.7,0-26.2,0-39.7c5.1,0,9.3,0,14.4,0 C390,258.1,390,270.7,390,284.2z"></path> <path style="fill:#FFFFFF;" d="M53.2,244.6c5.1,0,9.3,0,14.4,0c0,12.7,0,25.3,0,38.8c-4.2,0-9.3,0-14.4,0 C53.2,270.7,53.2,258.1,53.2,244.6z"></path> <path style="fill:#FFFFFF;" d="M240.6,284.2c0-13.5,0-26.2,0-39.7c5.1,0,9.3,0,14.4,0c0,13.5,0,26.2,0,39.7 C251.6,284.2,245.7,284.2,240.6,284.2z"></path> <path style="fill:#FFFFFF;" d="M290.4,284.2c-5.1,0-9.3,0-14.4,0c0-13.5,0-26.2,0-39.7c5.1,0,9.3,0,14.4,0 C290.4,257.2,290.4,270.7,290.4,284.2z"></path> <path style="fill:#FFFFFF;" d="M325.9,244.6c5.1,0,9.3,0,14.4,0c0,13.5,0,26.2,0,39.7c-5.1,0-9.3,0-14.4,0 C325.9,270.7,325.9,258.1,325.9,244.6z"></path> <path style="fill:#FFFFFF;" d="M472.8,284.2c-5.1,0-9.3,0-14.4,0c0-12.7,0-26.2,0-39.7c4.2,0,9.3,0,14.4,0 C472.8,257.2,472.8,270.7,472.8,284.2z"></path> <path style="fill:#FFFFFF;" d="M423,240.3c-5.1,0-9.3,0-14.4,0c0-10.1,0-20.3,0-30.4c0-0.8,1.7-1.7,3.4-1.7c3.4,0,7.6,0,11.8,0 C423,218.4,423,229.4,423,240.3z"></path> <path style="fill:#FFFFFF;" d="M189.1,240.3c-5.1,0-9.3,0-14.4,0c0-11,0-21.1,0-32.1c5.1,0,9.3,0,14.4,0 C189.1,218.4,189.1,229.4,189.1,240.3z"></path> <path style="fill:#FFFFFF;" d="M240.6,208.3c5.1,0,9.3,0,14.4,0c0,11,0,21.1,0,32.1c-5.1,0-9.3,0-14.4,0 C240.6,229.4,240.6,219.2,240.6,208.3z"></path> <path style="fill:#FFFFFF;" d="M130,330.7c0,5.1-4.2,7.6-9.3,5.9c-7.6-2.5-11-9.3-9.3-17.7c1.7-7.6,7.6-11,15.2-9.3 c1.7,0,2.5,0.8,4.2,1.7c-0.8,1.7-0.8,2.5-1.7,4.2c0-0.8-0.8-0.8-0.8-1.7c-3.4,0.8-8.4,0.8-10.1,3.4c-1.7,2.5-1.7,7.6-0.8,11 C119,334.1,124.9,331.5,130,330.7z"></path> <path style="fill:#FFFFFF;" d="M381.6,310.4c-3.4,8.4-10.1,15.2-8.4,25.3c-2.5,0-3.4,0-5.9,0c2.5-10.1-4.2-16.9-8.4-25.3 c5.1-0.8,5.1-0.8,11,9.3c1.7-2.5,2.5-5.1,4.2-7.6c1.7-1.7,4.2-2.5,5.9-3.4C380.8,309.6,380.8,310.4,381.6,310.4z"></path> <path style="fill:#FFFFFF;" d="M280.3,314.6c-2.5,0-4.2,0-6.8,0c0-1.7,0-2.5,0-4.2c6.8,0,12.7,0,19.4,0c0,1.7,0,2.5,0,4.2 c-2.5,0-4.2,0-6.8,0.8c0,6.8,0,13.5,0,21.1c-1.7,0-3.4,0-5.9,0.8C280.3,329,280.3,322.2,280.3,314.6z"></path> <path style="fill:#FFFFFF;" d="M206,335.7c-1.7,0-3.4,0-5.1,0c0-8.4,0-16.9,0-26.2c1.7,0,3.4,0,5.1,0 C206,318.9,206,327.3,206,335.7z"></path> </g> </svg> 