<?xml version="1.0" encoding="UTF-8"?> <!-- Generator: Adobe Illustrator 24.3.0, SVG Export Plug-In . SVG Version: 6.00 Build 0) --> <svg xmlns="http://www.w3.org/2000/svg" xmlns:xlink="http://www.w3.org/1999/xlink" version="1.1" id="Layer_1" x="0px" y="0px" viewBox="0 0 500 500" style="enable-background:new 0 0 500 500;" xml:space="preserve"> <g> <path style="fill:#FFFFFF;" d="M40,215.4c4.8,0,8.8,0.4,12.1,1.2s6,2,8,3.6s3.6,3.6,4.8,6c1.2,2.4,1.6,4.8,1.6,7.6 c0,1.6-0.4,3.2-0.8,4.4c-0.4,1.6-1.2,2.8-2,4c-0.8,1.2-2,2.4-3.6,3.6c-1.6,1.2-3.2,2-5.2,2.8c4.4,1.2,8,2.8,10.1,5.2 c2,2.4,3.2,5.6,3.2,9.7c0,2.8-0.4,5.6-1.6,8c-1.2,2.4-2.8,4.8-4.8,6.4c-2,2-4.8,3.2-8,4.4c-3.2,1.2-6.8,1.6-10.9,1.6H14.7v-68.8H40 z M30.4,227.5v16.9h8.4c1.6,0,3.2,0,4.8-0.4s2.8-0.8,3.6-1.2c1.2-0.8,1.6-1.6,2.4-2.4c0.4-1.2,0.8-2.4,0.8-4s-0.4-2.8-0.8-4 c-0.4-1.2-1.2-2-2-2.8s-2-1.2-3.2-1.6c-1.2-0.4-2.8-0.4-4.8-0.4L30.4,227.5L30.4,227.5z M41.7,272.5c2,0,4-0.4,5.2-0.8 c1.2-0.4,2.4-1.2,3.2-2c0.8-0.8,1.2-2,1.6-2.8c0.4-1.2,0.4-2,0.4-3.2c0-1.2,0-2.4-0.4-3.2c-0.4-1.2-0.8-2-1.6-2.4 c-0.8-0.8-2-1.2-3.2-1.6c-1.2-0.4-2.8-0.4-4.8-0.4H30.4v17.3h11.3V272.5z M310.3,215.4v69.2h-14.1v-39.8c0-0.8,0-2,0-2.8 c0-1.2,0-2,0.4-3.2l-18.5,35.4c-0.4,1.2-1.2,2-2.4,2.4c-1.2,0.4-2,0.8-3.2,0.8h-2c-1.2,0-2.4-0.4-3.2-0.8c-0.8-0.4-1.6-1.2-2.4-2.4 l-18.5-35.8c0,1.2,0,2.4,0.4,3.2c0,1.2,0,2,0,2.8v39.8h-14.1v-68.8h12.1c0.8,0,1.2,0,2,0c0.4,0,0.8,0,1.2,0.4 c0.4,0,0.8,0.4,1.2,0.8c0.4,0.4,0.8,0.8,0.8,1.2l17.7,35c0.8,1.2,1.2,2.4,2,3.6c0.4,1.2,1.2,2.4,1.6,4c0.4-1.2,1.2-2.8,1.6-4 c0.4-1.2,1.2-2.4,2-3.6l17.7-35c0.4-0.4,0.8-1.2,0.8-1.2c0.4-0.4,0.8-0.4,1.2-0.8c0.4,0,0.8-0.4,1.2-0.4c0.4,0,1.2,0,2,0 L310.3,215.4L310.3,215.4z M340.1,284.6H324v-69.2h16.1V284.6z M413.7,215.4v69.2h-8.4c-1.2,0-2.4-0.4-3.2-0.4 c-0.8-0.4-1.6-1.2-2.4-2L367,240.7c0,1.2,0.4,2.4,0.4,3.6c0,1.2,0,2.4,0,3.2v37h-14.1v-69.2h8.4c0.8,0,1.2,0,1.6,0 c0.4,0,0.8,0,1.2,0.4c0.4,0,0.8,0.4,1.2,0.8c0.4,0.4,0.8,0.8,1.2,1.2l33,41.4c0-1.2-0.4-2.4-0.4-4c0-1.6,0-2.4,0-3.6V215 L413.7,215.4L413.7,215.4z M460.4,248.8h24.5v29.4c-3.6,2.4-7.2,4.4-11.3,5.6c-4,1.2-8,1.6-12.5,1.6c-5.6,0-10.9-0.8-15.7-2.8 c-4.8-1.6-8.8-4.4-12.1-7.2c-3.2-3.2-6-6.8-7.6-11.3c-2-4.4-2.8-8.8-2.8-14.1c0-5.2,0.8-10.1,2.4-14.1c1.6-4.4,4-8,7.2-11.3 c3.2-3.2,7.2-5.6,11.7-7.2c4.4-1.6,9.7-2.4,15.3-2.4c2.8,0,5.6,0.4,8,0.8c2.4,0.4,4.8,1.2,6.8,2c2,0.8,4,2,6,2.8 c1.6,1.2,3.2,2.4,4.8,3.6l-4.8,7.2c-0.8,1.2-1.6,1.6-2.8,2s-2.4,0-3.6-0.8s-2.4-1.6-3.6-2c-1.2-0.4-2.4-1.2-3.6-1.2 c-1.2-0.4-2.4-0.4-3.6-0.8c-1.2-0.4-2.8-0.4-4.4-0.4c-2.8,0-5.6,0.4-8,1.6c-2.4,1.2-4.4,2.4-6,4.4s-2.8,4.4-4,6.8 c-0.8,2.8-1.2,5.6-1.2,8.8c0,3.6,0.4,6.8,1.6,9.7c1.2,2.8,2.4,5.2,4.4,7.2c2,2,4,3.6,6.8,4.4c2.4,1.2,5.6,1.6,8.4,1.6 c2,0,3.6,0,5.2-0.4c1.6-0.4,3.2-0.8,4.4-1.6v-10.5h-6.8c-1.2,0-2-0.4-2.4-0.8c-0.4-0.4-0.8-1.2-0.8-2V248.8L460.4,248.8z M209.4,253.2c-2,10.5-11.3,18.1-21.7,18.1h-0.4c-1.6,0-3.2,0-7.2-1.6s-5.2-2.8-8-5.2c-1.6-1.2-4.4-4-6.8-6c-2.4,2.8-8,8.8-8.4,9.3 c2,2.4,7.2,6.8,9.3,8.4l-0.4-0.4c4.4,4,10.1,6.4,16.5,7.6c2,0.4,3.6,0.4,5.2,0.4c1.6,0,3.2,0,4.8-0.4c13.7-1.6,25.3-11.7,29-24.9 L209.4,253.2L209.4,253.2z"></path> <path style="fill:#FFFFFF;" d="M170.4,234.7c4-4.8,10.1-7.6,16.9-7.6c5.2,0,10.1,2,14.1,4.8l-5.2,3.6l24.5,11.3l-2.8-26.5l-6.4,4.4 c-6.4-6.4-14.9-10.1-24.1-10.1c-10.9,0-20.1,4.8-26.5,12.5l0,0c-0.4,0.4-19.3,23.7-27.4,31.4c-0.4,0.4-0.8,0.8-1.2,1.2 c0,0,0,0-0.4,0.4c-0.4,0.4-1.2,0.8-1.6,1.6l-0.4,0.4c-0.4,0.4-1.2,0.8-1.6,1.2l-0.4,0.4c-0.4,0.4-0.8,0.4-1.2,0.8l-0.4,0.4 l-0.4,0.4c-0.4,0.4-0.8,0.8-1.2,0.8c0,0-0.4,0-0.4,0.4l-1.2,0.8c0,0-0.4,0-0.4,0.4c-0.4,0.4-0.8,0.4-1.2,0.8c0,0-0.4,0-0.4,0.4 c-0.4,0.4-0.8,0.4-0.8,0.4c-2.4,1.2-4,2-5.6,2.4c-1.6,0.4-2.8,0.8-5.2,0.8c-12.5-0.4-22.1-11.3-21.3-23.7 c0.8-10.9,9.7-19.7,20.5-20.5c6.8-0.4,13.3,2.4,17.7,7.2c0.8,0.8,6.8,7.6,8.4,9.3c2.4-2.4,8-9.3,8.4-9.7c-1.2-1.6-5.6-6.4-6-6.8 c-6.8-7.6-16.5-12.5-27.4-12.1c-18.1,0.4-33,14.5-34.2,32.6c-1.2,19.3,13.7,35.4,32.2,36.6c0.8,0,3.6,0,5.2,0s3.2-0.4,4.4-0.8 c2-0.4,4-1.6,4-1.6h0.4c0.4,0,0.8-0.4,1.2-0.4c0,0,0.4,0,0.4-0.4c0.4-0.4,0.8-0.4,1.2-0.8c0,0,0.4,0,0.4-0.4c1.2-0.8,2.4-1.2,4-2.4 l0.4-0.4c0.4-0.4,0.8-0.8,1.6-0.8c0.4,0,0.4-0.4,0.8-0.4c0.4-0.4,1.2-0.8,1.6-1.2c0.4,0,0.4-0.4,0.8-0.4c0.4-0.4,1.2-0.8,1.6-1.2 l0.4-0.4c0,0,0,0,0.4-0.4c0.8-0.4,1.6-1.2,2.4-2l0.4-0.4c0.4-0.4,1.2-1.2,2-1.6c0.4-0.4,0.4-0.4,0.8-0.8l0.4-0.4 c0.4-0.4,0.8-0.8,1.2-1.2s7.2-7.2,12.1-12.9C160.3,247.6,165.1,240.7,170.4,234.7L170.4,234.7z"></path> </g> </svg> 