<?xml version="1.0" encoding="UTF-8"?> <!-- Generator: Adobe Illustrator 24.3.0, SVG Export Plug-In . SVG Version: 6.00 Build 0) --> <svg xmlns="http://www.w3.org/2000/svg" xmlns:xlink="http://www.w3.org/1999/xlink" version="1.1" id="Layer_1" x="0px" y="0px" viewBox="0 0 500 500" style="enable-background:new 0 0 500 500;" xml:space="preserve"> <g> <g> <path style="fill:#FFFFFF;" d="M111.2,276.8c4-2,8.1-3.4,12.1-4.7C94.4,104.8,93.8,109.5,98.5,108.9l105.5-18.8l2.7-13.4 L95.8,96.1C87,97.5,81.7,106.2,83,114.9L111.2,276.8z"></path> <rect x="113.9" y="157.3" transform="matrix(0.9848 -0.1735 0.1735 0.9848 -27.7947 24.8126)" style="fill:#FFFFFF;" width="28.2" height="28.2"></rect> <rect x="149.6" y="151.2" transform="matrix(0.9848 -0.1736 0.1736 0.9848 -26.2187 30.9258)" style="fill:#FFFFFF;" width="28.2" height="28.2"></rect> <polygon style="fill:#FFFFFF;" points="188.5,174.7 193.9,145.8 183.1,147.2 187.8,175.4 "></polygon> <rect x="120.6" y="192.8" transform="matrix(0.9848 -0.1736 0.1736 0.9848 -33.8749 26.5324)" style="fill:#FFFFFF;" width="28.2" height="28.2"></rect> <polygon style="fill:#FFFFFF;" points="184.5,199.6 181.8,184.1 153.6,189.5 158.9,217 181.8,213 "></polygon> <rect x="126.7" y="228.5" transform="matrix(0.9848 -0.1735 0.1735 0.9848 -39.9501 28.1044)" style="fill:#FFFFFF;" width="28.2" height="28.2"></rect> <polygon style="fill:#FFFFFF;" points="180.4,221.1 160.3,225.1 165,252.6 175.1,250.6 "></polygon> <path style="fill:#FFFFFF;" d="M159.6,268.8l-1.3-6.7l-27.5,4.7l0.7,2.7C140.8,268.1,150.2,267.4,159.6,268.8z"></path> <path style="fill:#FFFFFF;" d="M171.7,271.5l2-12.1l-7.4,1.3l2,9.4C169.7,270.8,170.4,270.8,171.7,271.5z"></path> <rect x="222.9" y="131.4" transform="matrix(0.1739 -0.9848 0.9848 0.1739 52.5162 353.6077)" style="fill:#FFFFFF;" width="28.2" height="28.2"></rect> <rect x="259.1" y="137.1" transform="matrix(0.1738 -0.9848 0.9848 0.1738 76.7716 394.0167)" style="fill:#FFFFFF;" width="28.2" height="28.2"></rect> <rect x="294.5" y="143.4" transform="matrix(0.1737 -0.9848 0.9848 0.1737 99.8555 434.0894)" style="fill:#FFFFFF;" width="28.2" height="28.2"></rect> <rect x="329.9" y="149.7" transform="matrix(0.1735 -0.9848 0.9848 0.1735 122.9618 474.1901)" style="fill:#FFFFFF;" width="28.2" height="28.2"></rect> <rect x="366" y="156.1" transform="matrix(0.1738 -0.9848 0.9848 0.1738 146.3747 514.9542)" style="fill:#FFFFFF;" width="28.2" height="28.2"></rect> <rect x="216.6" y="166.8" transform="matrix(0.1736 -0.9848 0.9848 0.1736 12.484 376.7336)" style="fill:#FFFFFF;" width="28.2" height="28.2"></rect> <rect x="252.7" y="173.2" transform="matrix(0.1738 -0.9848 0.9848 0.1738 35.9528 417.5135)" style="fill:#FFFFFF;" width="28.2" height="28.2"></rect> <rect x="288.1" y="179.5" transform="matrix(0.1735 -0.9848 0.9848 0.1735 59.0744 457.6331)" style="fill:#FFFFFF;" width="28.2" height="28.2"></rect> <rect x="323.5" y="185.8" transform="matrix(0.1734 -0.9848 0.9848 0.1734 82.1631 497.7244)" style="fill:#FFFFFF;" width="28.2" height="28.2"></rect> <rect x="359.6" y="192.2" transform="matrix(0.1738 -0.9848 0.9848 0.1738 105.5655 538.4328)" style="fill:#FFFFFF;" width="28.2" height="28.2"></rect> <rect x="210.3" y="202.2" transform="matrix(0.1736 -0.9848 0.9848 0.1736 -27.5766 399.7833)" style="fill:#FFFFFF;" width="28.2" height="28.2"></rect> <rect x="246.4" y="208.6" transform="matrix(0.1739 -0.9848 0.9848 0.1739 -4.1335 440.5436)" style="fill:#FFFFFF;" width="28.2" height="28.2"></rect> <rect x="317.2" y="221.2" transform="matrix(0.1738 -0.9848 0.9848 0.1738 42.0124 520.703)" style="fill:#FFFFFF;" width="28.2" height="28.2"></rect> <rect x="353.3" y="227.6" transform="matrix(0.1735 -0.9848 0.9848 0.1735 65.566 561.6229)" style="fill:#FFFFFF;" width="28.2" height="28.2"></rect> <rect x="203.9" y="238.3" transform="matrix(0.1735 -0.9848 0.9848 0.1735 -68.3824 423.3)" style="fill:#FFFFFF;" width="28.2" height="28.2"></rect> <rect x="240" y="244.7" transform="matrix(0.1737 -0.9848 0.9848 0.1737 -44.9169 464.0783)" style="fill:#FFFFFF;" width="28.2" height="28.2"></rect> <rect x="275.5" y="250.3" transform="matrix(0.1735 -0.9848 0.9848 0.1735 -21.0734 503.7579)" style="fill:#FFFFFF;" width="28.2" height="28.2"></rect> <path style="fill:#FFFFFF;" d="M339.6,270.1l2-10.7l-27.5-4.7l-4.7,27.5l2.7,0.7C320.2,276.8,329.6,272.8,339.6,270.1z"></path> <path style="fill:#FFFFFF;" d="M376.6,270.1l0.7-4l-27.5-4.7l-1.3,8.1C357.1,267.4,366.5,268.1,376.6,270.1z"></path> <path style="fill:#FFFFFF;" d="M198.6,284.2c4.7,3.4,9.4,7.4,13.4,12.1c4.7-2.7,9.4-4.7,14.1-6.7l2.7-13.4l-27.5-4.7L198.6,284.2z "></path> <path style="fill:#FFFFFF;" d="M263.7,285.6l0.7-2.7l-28.2-4.7l-2,9.4c6-1.3,12.8-2,19.5-2C257,284.9,260.4,285.6,263.7,285.6z"></path> <path style="fill:#FFFFFF;" d="M298.7,293.6l0.7-4.7l-27.5-4.7l-0.7,2.7c8.7,2,16.8,5.4,24.9,9.4 C296.7,295.6,298,294.3,298.7,293.6z"></path> <path style="fill:#FFFFFF;" d="M191.2,279.5l35.6-200.9c0-1.3,1.3-2.7,3.4-2.7c0.7,0,179.4,31.6,180,31.6c2,0,2.7,2,2.7,4 L384,271.5c4,1.3,8.1,2.7,12.1,4.7L425,113.6c1.3-8.7-4-17.5-13.4-18.8C220.1,61.2,232.2,63.2,230.1,63.2 c-8.1,0-14.8,5.4-16.1,13.4l-34.9,197.5C183.1,275.5,187.1,277.5,191.2,279.5z"></path> <path style="fill:#FFFFFF;" d="M312.1,217.7l-27.5-4.7l-4.7,27.5l27.5,4.7L312.1,217.7z M300,239.2l-5.4-4l-6.7,2l2-6.7l-4-5.4 h6.7l4-5.4l2,6.7l6.7,2l-5.4,4V239.2z"></path> </g> <g> <g> <path style="fill:#FFFFFF;" d="M254.3,346c-14.8,0-14.1,0-15.5,0c-4.7,2-4,8.7,1.3,8.7h17.5c-7.4,10.1-10.7,21.5-12.8,33.6 c-0.7,4.7,6.7,7.4,8.7,2v-0.7c1.3-12.8,6.7-24.9,13.4-33.6c2-2.7,5.4-5.4,2-8.7C269.1,346,269.8,346,254.3,346z"></path> <path style="fill:#FFFFFF;" d="M254.3,293.6c-42.3,0-76.6,34.3-76.6,76.6s34.3,76.6,76.6,76.6c41.7-0.7,75.9-34.9,75.9-76.6 C330.2,327.9,296,293.6,254.3,293.6z M254.3,424c-30.2,0-54.4-24.2-54.4-54.4c0-30.2,24.2-54.4,54.4-54.4s54.4,24.2,54.4,54.4 C308.1,399.8,283.9,424,254.3,424z"></path> <path style="fill:#FFFFFF;" d="M254.3,322.5c-26.2,0-47.7,21.5-47.7,47.7c0,26.2,21.5,47.7,47.7,47.7s47.7-21.5,47.7-47.7 C301.4,344,280.5,322.5,254.3,322.5z M254.3,411.2c-22.8,0-41.7-18.8-41.7-41.7s18.8-41.7,41.7-41.7s41.7,18.8,41.7,41.7 C295.3,393.1,277.2,411.2,254.3,411.2z"></path> </g> <g> <path style="fill:#FFFFFF;" d="M121.3,375.6c12.1,0,18.1,0.7,16.8-4.7c-0.7-2-2-3.4-4-4h-2c0-16.8,0-20.8,0-34.3 c0-2-2.7-6-8.7-2.7c-8.7,5.4-4,11.4,0,10.7v26.2C117.3,366.9,115.9,375.6,121.3,375.6z"></path> <path style="fill:#FFFFFF;" d="M163.6,353.4c0,1.3,0,2.7,0,4c-3.4,0-4.7,0-6.7,0l11.4-19.5c0.7-1.3,1.3-2.7,1.3-4 c0-2-1.3-3.4-2.7-4c-3.4-1.3-6,2-8.1,5.4c-4.7,8.7-10.7,19.5-11.4,20.2c-3.4,4.7-4,9.4,1.3,10.1c1.3,0,13.4,0,14.8,0 c0,2-0.7,6.7,1.3,9.4c1.3,2,2.7,2.7,4.7,1.3c-0.7-9.4,0-18.8,2.7-28.2C170.4,344.7,163,344.7,163.6,353.4z"></path> <path style="fill:#FFFFFF;" d="M94.4,352.7c0-49,60.5-73.2,94.1-36.9c4.7-5.4,10.1-10.7,16.1-14.8 c-47-50.4-132.3-17.5-132.3,51.7c0,42.3,34.3,76.6,76.6,76.6c13.4,0,25.5-3.4,36.9-9.4c-4-6-8.1-12.1-10.7-19.5 C138.8,419.9,94.4,394.4,94.4,352.7z"></path> <path style="fill:#FFFFFF;" d="M181.1,326.5c1.3-2,2-3.4,3.4-5.4c-28.9-32.2-83.3-12.1-83.3,31.6c0,36.9,39.6,59.8,71.2,41 c-0.7-2-1.3-4-1.3-6c-27.5,17.5-63.8-2-63.8-34.9C107.2,313.8,156.2,296.3,181.1,326.5z"></path> </g> <g> <path style="fill:#FFFFFF;" d="M371.9,346.7c0.7-2,0.7-4,0-5.4c-1.3-8.7-8.1-13.4-16.8-10.7c-3.4,1.3-4.7,2.7-7.4,4.7 c-7.4,6-2,10.7,0,10.7c4.7,0,7.4-6.7,12.8-6.7c2,0,7.4,5.4-1.3,11.4c-4,2.7-10.1,5.4-12.8,12.8c-1.3,3.4-1.3,5.4-2,8.1 c-0.7,2,0,4,1.3,5.4c1.3,1.3,1.3,1.3,20.2,1.3c3.4,0,6-2,8.7-4.7c2-2.7,0-7.4-3.4-7.4c-2,0-2.7,0.7-4.7,2.7l0,0 c0,0-0.7,0-0.7,0.7c0,0,0,0,0.7-0.7c-4.7,1.3-11.4,0.7-12.8,0.7C355.1,358.1,369.2,358.8,371.9,346.7z"></path> <path style="fill:#FFFFFF;" d="M303.4,301c6,4,11.4,9.4,16.1,14.8c33.6-36.3,94.1-12.1,94.1,36.9c0,41.7-44.3,67.2-80.6,47.7 c-2.7,6.7-6,13.4-10.7,19.5c50.4,27.5,112.9-8.7,112.9-67.2C435.7,283.5,350.4,250.6,303.4,301z"></path> <path style="fill:#FFFFFF;" d="M335.6,393.7c31.6,18.1,71.2-4,71.2-41c0-43.7-54.4-64.5-83.3-31.6c1.3,2,2,3.4,3.4,5.4 c24.2-30.2,73.9-12.8,73.9,26.2c0,32.9-36.3,52.4-63.8,34.9C336.3,389.7,335.6,391.7,335.6,393.7z"></path> </g> </g> </g> </svg> 