<?xml version="1.0" encoding="UTF-8"?> <!-- Generator: Adobe Illustrator 24.3.0, SVG Export Plug-In . SVG Version: 6.00 Build 0) --> <svg xmlns="http://www.w3.org/2000/svg" xmlns:xlink="http://www.w3.org/1999/xlink" version="1.1" id="Layer_1" x="0px" y="0px" viewBox="0 0 500 500" style="enable-background:new 0 0 500 500;" xml:space="preserve"> <path style="fill:#FFFFFF;" d="M389.8,147.8l-3.2,149.4C386.6,297.2,381.8,238.2,389.8,147.8z"></path> <polygon style="fill:#FFFFFF;" points="418.1,21.8 434.2,34 423.7,423.1 407.6,441.7 "></polygon> <path style="fill:#FFFFFF;" d="M125.8,101L82.2,379.5l325.4,61.4l10.5-419L125.8,101z M354.3,388.4l-242.2-35.5l0.8-9.7 c44.4,3.2,48.4,0,51.7-29.9l14.5-147.7c3.2-33.1-0.8-33.9-41.2-27.5l0.8-9.7l240.6-57.3c-1.6,12.1-2.4,44.4-4,69.4l-16.1,4.8 c-2.4-19.4-6.5-28.3-12.9-37.1c-6.5-8.9-21-8.9-60.6,0l-41.2,8.9c-17,3.2-17.8,4.8-19.4,17l-8.1,91.2l49.2-3.2 c48.4-3.2,51.7-7.3,61.4-38.8l15.3-1.6l-10.5,89.6h-15.3c-3.2-32.3-6.5-34.7-52.5-32.3l-49.2,2.4l-8.1,75.1 c-1.6,18.6,0,27.5,8.9,33.1c8.9,6.5,26.6,8.9,51.7,12.1c38.8,4.8,54.1,3.2,67-8.1c9.7-8.9,21.8-25,32.3-43.6l15.3,2.4 C376.9,327.8,360.8,373.9,354.3,388.4z"></path> </svg> 