<?xml version="1.0" encoding="UTF-8"?> <!-- Generator: Adobe Illustrator 24.3.0, SVG Export Plug-In . SVG Version: 6.00 Build 0) --> <svg xmlns="http://www.w3.org/2000/svg" xmlns:xlink="http://www.w3.org/1999/xlink" version="1.1" id="Layer_1" x="0px" y="0px" viewBox="0 0 500 500" style="enable-background:new 0 0 500 500;" xml:space="preserve"> <g> <g> <path style="fill-rule:evenodd;clip-rule:evenodd;fill:#FFFFFF;" d="M267.5,110.9l-7.8-58.5c0,0,60.7-10.1,100.6,29.8l-38,46.4 C322.4,128.7,303,109.3,267.5,110.9L267.5,110.9z"></path> <path style="fill-rule:evenodd;clip-rule:evenodd;fill:#FFFFFF;" d="M312.3,146.6l40.5-42.8c0,0,46,40.9,40.1,97l-59.9-0.3 C333,200.5,335.8,173.2,312.3,146.6L312.3,146.6z"></path> <path style="fill-rule:evenodd;clip-rule:evenodd;fill:#FFFFFF;" d="M312.5,204.4l58.8,5c0,0-3.3,61.5-50.9,91.8l-37.2-47.1 C283.2,254.1,306.3,239.4,312.5,204.4L312.5,204.4z"></path> <path style="fill-rule:evenodd;clip-rule:evenodd;fill:#FFFFFF;" d="M267.4,240.5l32.7,49.1c0,0-50.1,35.7-103.5,17.4l13.7-58.4 C210.3,248.6,236.2,257.5,267.4,240.5L267.4,240.5z"></path> <path style="fill-rule:evenodd;clip-rule:evenodd;fill:#FFFFFF;" d="M211.1,227.7l-18,56.2c0,0-59.2-17-78.1-70.2l54.2-25.6 C169.2,188.1,178.3,213.9,211.1,227.7L211.1,227.7z"></path> <path style="fill-rule:evenodd;clip-rule:evenodd;fill:#FFFFFF;" d="M186,175.7l-55.2,20.9c0,0-23.6-56.8,6.2-104.8l53.8,26.5 C190.8,118.3,176.4,141.5,186,175.7L186,175.7z"></path> <path style="fill-rule:evenodd;clip-rule:evenodd;fill:#FFFFFF;" d="M211,123.7l-50.7-30.1c0,0,29.8-53.9,85.8-60.4l12.8,58.6 C259,91.7,231.8,94.9,211,123.7L211,123.7z"></path> <path style="fill:#FFFFFF;" d="M295.6,155.8c-2.2-5.5-5.6-10.5-9.8-14.8c-4.3-4.3-9.2-7.6-14.8-9.8c-5.4-2.2-11-3.3-16.8-3.3 c-5.8,0-11.5,1.1-16.8,3.3c-5.5,2.2-10.5,5.6-14.8,9.8c-4.3,4.3-7.6,9.2-9.8,14.8c-2.2,5.4-3.3,11-3.3,16.8s1.1,11.5,3.3,16.8 c2.2,5.5,5.6,10.5,9.8,14.8c4.3,4.3,9.2,7.6,14.8,9.8c5.4,2.2,11,3.3,16.8,3.3c5.8,0,11.5-1.1,16.8-3.3c5.5-2.2,10.5-5.5,14.8-9.8 s7.6-9.2,9.8-14.8c2.2-5.4,3.3-11,3.3-16.8S297.8,161.2,295.6,155.8z M270,133.9c5,2,9.7,5.1,13.8,9.1c3.7,3.7,6.5,7.9,8.6,12.4 c-2.5-1.7-5.2-3.1-8-4.3c-0.4-0.2-0.9-0.3-1.3-0.5l-13.2-14.8C270,135.2,270,134.6,270,133.9z M253.1,138.1 c2.9-0.3,5.9-0.6,8.8-0.8c1.8-0.1,3.6-0.2,5.5,0l13.4,15.1c-0.5,1.5-0.9,2.9-1.4,4.3c-0.9,2.5-2,5-3,7.4l-19.4,2 c-0.2-0.3-0.5-0.6-0.7-0.9c-2.3-2.6-4.6-5.2-6.9-7.8c0,0,0,0,0.1-0.1c-0.9-0.9-1.9-1.9-2.8-2.8l5.4-16.3 C252.3,138.3,252.7,138.2,253.1,138.1z M219.1,153.8c0.7-1.8,1.3-3.6,2.1-5.3c0.6-1.3,1.2-2.6,2-3.9c0.5-0.5,1-1,1.5-1.5 c4.7-4.7,10.3-8.1,16.3-10.1c0,0-0.1,0.1-0.1,0.2c0.1,0,0.1,0.1,0.1,0.1c3,1,5.7,2.6,8.3,4.4l-5,15.2h-0.1c-1,0.4-2.1,0.8-3.1,1.3 c-4.2,1.9-8.3,4-12.1,6.5l-10-5.9C218.9,154.4,219,154.1,219.1,153.8z M221.2,191.7c-0.2-0.1-0.3-0.2-0.5-0.3 c-2.2-1.4-4.1-2.9-5.9-4.7c-2.7-7.5-3.1-15.7-1.4-23.5c0.8-1.6,1.8-3.2,2.9-4.7c0.3-0.5,0.6-1,1-1.4l10.1,6c0,0.1,0,0.2,0,0.3 c0,5.4,0.5,10.8,1.6,16.1c0,0,0,0,0,0.1L221.2,191.7z M233.4,208.9l16.9,3c0.1,0.1,0.3,0.2,0.4,0.2c1.7,0.9,3.5,1.6,5.4,2.2 C248.2,214.8,240.3,212.9,233.4,208.9z M251.5,208c-0.3,0.4-0.6,0.7-0.9,1.1l-19.9-3.6c-2.3-2.8-4.4-5.8-6.2-9 c-0.5-0.8-1-1.6-1.4-2.5l7.8-12.2c0.2,0,0.4,0.1,0.6,0.1c4.9,1.3,9.9,2.2,14.9,3c0.3,0,0.5,0.1,0.7,0.1l9.4,16.2 C254.8,203.5,253.2,205.8,251.5,208z M274.6,198.2c-5.2,1-10.5,1.5-15.8,1.5l-9.6-16.7c1.5-2.8,3-5.6,4.5-8.4c1-1.9,2-3.8,3-5.7 l19.9-2c2.4,3.6,4.8,7.2,6.8,11.1c0.4,0.7,0.7,1.4,1.1,2.2l-9.6,18C274.7,198.2,274.7,198.2,274.6,198.2z M283.8,202.2 c-1.6,1.6-3.3,3-5,4.3c-0.3-2.3-0.8-4.6-1.5-6.9l10-18.6c2.8-1.3,5.4-2.7,7.9-4.4c0.3-0.2,0.6-0.5,0.8-0.8 C295.2,185.5,291.1,194.9,283.8,202.2z"></path> </g> <g> <polygon style="fill-rule:evenodd;clip-rule:evenodd;fill:#FFFFFF;" points="52.8,356.3 74.5,356.3 74.5,427.7 101.3,427.7 101.3,448.2 74.5,448.2 52.8,448.2 52.8,427.7 "></polygon> <path style="fill-rule:evenodd;clip-rule:evenodd;fill:#FFFFFF;" d="M184.4,379.4h-16.5v7.2c-6.3-5.6-14.5-9-23.6-9 c-19.6,0-35.6,16-35.6,35.7s15.9,35.7,35.6,35.7c9,0,17.3-3.4,23.6-9v9h16.5V379.4L184.4,379.4z M147.4,394.6 c9.9,0,17.9,8.1,17.9,18s-8,18-17.9,18s-17.9-8.1-17.9-18C129.4,402.7,137.5,394.6,147.4,394.6L147.4,394.6z"></path> <path style="fill-rule:evenodd;clip-rule:evenodd;fill:#FFFFFF;" d="M369.4,379.4h-16.5v7.2c-6.3-5.6-14.5-9-23.6-9 c-19.6,0-35.6,16-35.6,35.7s15.9,35.7,35.6,35.7c9,0,17.3-3.4,23.6-9c0,0-0.5,1-1.4,2.5c-2.6,4.3-9,12.6-19,12.6 c-13.4,0-15.6-5.5-15.6-5.5l-21.1,0.4c12.6,34.1,68.4,31.3,73.5-1.1v-8.3v-61.2H369.4z M332.3,394.6c9.9,0,17.9,8.1,17.9,18 s-8,18-17.9,18s-17.9-8.1-17.9-18C314.4,402.7,322.4,394.6,332.3,394.6L332.3,394.6z"></path> <path style="fill-rule:evenodd;clip-rule:evenodd;fill:#FFFFFF;" d="M455.6,379.4h-16.5v7.2c-6.3-5.6-14.5-9-23.6-9 c-19.6,0-35.6,16-35.6,35.7s15.9,35.7,35.6,35.7c9,0,17.3-3.4,23.6-9v9h16.5V379.4L455.6,379.4z M418.5,394.6 c9.9,0,17.9,8.1,17.9,18s-8,18-17.9,18s-17.9-8.1-17.9-18C400.6,402.7,408.6,394.6,418.5,394.6L418.5,394.6z"></path> <polygon style="fill-rule:evenodd;clip-rule:evenodd;fill:#FFFFFF;" points="263,378.6 283.8,378.6 283.8,447.9 263,447.9 "></polygon> <path style="fill-rule:evenodd;clip-rule:evenodd;fill:#FFFFFF;" d="M273.4,344.6c6.7,0,12.1,5.4,12.1,12.1s-5.4,12.1-12.1,12.1 s-12.1-5.4-12.1-12.1C261.4,350,266.8,344.6,273.4,344.6L273.4,344.6z"></path> <polygon style="fill-rule:evenodd;clip-rule:evenodd;fill:#FFFFFF;" points="203.5,356.3 225.2,356.3 225.2,427.7 252,427.7 252,448.2 225.2,448.2 203.5,448.2 203.5,427.7 "></polygon> </g> </g> </svg> 