<?xml version="1.0" encoding="UTF-8"?> <!-- Generator: Adobe Illustrator 24.3.0, SVG Export Plug-In . SVG Version: 6.00 Build 0) --> <svg xmlns="http://www.w3.org/2000/svg" xmlns:xlink="http://www.w3.org/1999/xlink" version="1.1" id="Layer_1" x="0px" y="0px" viewBox="0 0 500 500" style="enable-background:new 0 0 500 500;" xml:space="preserve"> <path style="fill:#FFFFFF;" d="M417,196.5c-19.3,0-34.5,15.2-34.5,34.5s15.2,34.5,34.5,34.5c0.7,0,1.4,0,2.1,0v2.1v60.7v53.8 c0,13.1-11,24.2-24.2,24.2H57.5c-13.1,0-24.2-11-24.2-24.2V164.7c0-13.1,11-24.2,24.2-24.2h337.4c13.1,0,24.2,11,24.2,24.2v29.7v2.1 H417z M129.3,328.3c1.4,3.5,2.8,8.3,4.8,13.8c-8.3-4.1-33.8,7.6-43.5,10.4c0,0-4.8-4.8-8.3-6.2c-1.4-0.7-5.5,0-7.6,1.4 c-0.7-0.7-1.4-1.4-2.1,0.7c-0.7,1.4-0.7,1.4,0.7,2.1c-0.7,0.7-0.7,1.4-1.4,2.1c-0.7,0-1.4-0.7-2.1,0.7c-1.4,2.1-0.7,2.1,0,2.1 c-2.8,5.5-6.9,8.3-9.7,13.8c-0.7,0-1.4-0.7-2.1,1.4c-0.7,1.4,0,2.1,0.7,2.1c0,2.1-0.7,3.5-0.7,4.8c0,0-1.4,0-2.1,1.4 c0,2.1,0,2.8,1.4,2.8c0,0.7,0,2.1,0,3.5c0.7,3.5,3.5,4.1,5.5,2.8c9-6.9,15.9-11,20.7-15.2c13.1-1.4,49.7-3.5,60-4.8 c5.5,0.7,20.7-13.1,21.4-17.9c0-9,0-14.5-0.7-21.4c-0.7-5.5-0.7-11.7-1.4-20.7l2.8-0.7v-18.6h4.8c0,0,0,0,0.7-2.1 c13.1,1.4,37.3,5.5,53.1,4.1c2.8,0,5.5,0.7,7.6,3.5c4.1,3.5,33.8,6.9,59.3,6.9c3.5,8.3,9.7,9.7,9.7,9.7c0.7,0,0.7,0,2.1-0.7 c0.7,0.7,1.4,1.4,2.8,0.7s1.4-1.4,0.7-2.1l1.4-0.7c0.7,0.7,1.4,1.4,2.8,0.7s1.4-0.7,0.7-2.1c2.8-1.4,17.3-12.4,17.3-12.4 c0.7,0.7,0.7,0.7,1.4,0.7s2.1-1.4,2.1-1.4c0-0.7,0-0.7-0.7-1.4l2.8-2.1c0.7,0.7,0.7,0.7,1.4,0.7s1.4-0.7,1.4-1.4 c0-0.7,0-0.7-0.7-1.4l1.4-2.1c-0.7-2.8-3.5-2.8-6.2-2.1c-6.2,0.7-24.2,3.5-31.1,2.8c-13.1-4.1-62.1-22.8-64.9-23.5 c-3.5-1.4-6.2-1.4-9-1.4c-13.1-6.9-38-12.4-40.7-13.1c-0.7,0-0.7-1.4-0.7-2.1c0,0-11-2.1-20-2.1c1.4-6.2,4.1-25.5,4.1-31.7 c1.4,0.7,2.1,1.4,4.1,1.4c2.8,0,6.2-2.1,10.4-3.5c2.1-0.7,2.1,0.7,3.5-0.7c2.8-1.4,4.1-6.2,7.6-9c2.8-2.1,4.8-1.4,6.2-3.5 c2.1-3.5,0.7-6.2,0-10.4c-1.4-6.2-2.1-10.4-6.9-13.8c-3.5-2.8-6.9-4.1-11.7-4.1c-5.5,0-15.2,2.8-20.7,15.9 c-5.5-3.5-8.3-4.8-14.5-7.6c-11-4.1-46.9,3.5-51.1,5.5c0,2.1,0,3.5,0,3.5s-4.1,0-6.2,2.8c-8.3,12.4-17.9,29-17.9,29 c-3.5,0.7-5.5,3.5-7.6,6.9c-1.4,3.5-3.5,4.1-6.9,6.2c-2.8,0.7-1.4,3.5,0,3.5c2.8,0,4.8-1.4,7.6-3.5c-1.4,4.1-6.2,7.6-6.9,9 c0.7,2.1,6.2,5.5,13.1,0c2.1-2.1,4.8-3.5,6.2-5.5c0.7-1.4,1.4-5.5,2.1-9c1.4-0.7,13.8-11.7,22.1-20.7c0,0,17.9-3.5,26.2-4.8 c0,0-6.9,3.5-13.1,5.5c-11,40.7-10.4,58.7-4.1,60c-4.1,8.3,5.5,40.7,11,54.5l2.8,0.7C126.5,319.3,127.2,322,129.3,328.3"></path> <path style="fill:#FFFFFF;" d="M439.8,231c0,11.7-9.7,22.1-21.4,22.1c-11.7,0-21.4-9.7-21.4-22.1c0-11.7,9.7-22.1,21.4-22.1 C430.8,209.6,439.8,219.2,439.8,231z"></path> </svg> 