<?xml version="1.0" encoding="UTF-8"?> <!-- Generator: Adobe Illustrator 24.3.0, SVG Export Plug-In . SVG Version: 6.00 Build 0) --> <svg xmlns="http://www.w3.org/2000/svg" xmlns:xlink="http://www.w3.org/1999/xlink" version="1.1" id="Layer_1" x="0px" y="0px" viewBox="0 0 500 500" style="enable-background:new 0 0 500 500;" xml:space="preserve"> <path style="fill:#FFFFFF;" d="M386.5,326.5c-5.7-14.1-21.7-19.8-35.1-15.3l-56.9,19.2c0-2.6-0.6-4.5-1.3-7c-2.6-7-7.7-12.8-14.1-16 l-78.6-39.6c-10.2-5.1-22.4-6.4-33.9-3.2l-23,6.4c-1.9-13.4-14.1-23.6-28.1-23.6H77.3c-5.1,0-9.6,4.5-9.6,9.6v131 c0,5.1,4.5,9.6,9.6,9.6h56.9c5.1,0,9.6-4.5,9.6-9.6v-5.1l48.6,24.3c21.7,10.9,47.3,12.1,70.9,1.9l108-46 C385.8,357.2,392.2,340.6,386.5,326.5z M125.2,378.3H86.9V265.8h28.7c5.1,0,9.6,4.5,9.6,9.6V378.3z M364.1,345.7l-108,46 c-17.9,7.7-38.3,7-54.9-1.9l-56.9-28.1v-70.9l28.1-8.3c7-1.9,14.1-1.3,20.4,1.9l77.9,39c4.5,2.6,6.4,7.7,4.5,12.8 c-2.6,4.5-8.3,6.4-12.8,4.5l-46.6-23c-12.1-5.7-26.2-2.6-34.5,7.7c-3.2,3.8-2.6,10.2,1.3,13.4c3.8,3.2,10.2,2.6,13.4-1.3 c2.6-3.2,7.7-4.5,11.5-2.6l46.6,23c10.2,5.1,23,3.8,31.3-4.5l72.2-24.3c4.5-1.3,10.2,0.6,12.1,5.1 C371.1,338.7,368.6,343.8,364.1,345.7z"></path> <g> <g> <g> <path style="fill:#FFFFFF;" d="M420.3,189.2c-1.3-1.9-1.3-4.5,0-6.4l8.9-19.2c5.1-10.2,1.3-23-9.6-28.7l-18.5-9.6 c-1.9-1.3-3.2-3.2-3.8-5.1l-2.6-21.1c-1.9-11.5-12.8-19.2-24.3-17.9l-21.1,3.2c-2.6,0-4.5-0.6-6.4-1.9l-14.7-14.7 c-8.3-8.3-21.7-8.3-30,0L283,82.5c-1.9,1.3-3.8,2.6-6.4,1.9l-21.1-3.2c-11.5-1.9-22.4,6.4-24.3,17.9l-3.8,20.4 c-0.6,2.6-1.9,3.8-3.8,5.1l-18.5,9.6c-10.2,5.7-14.7,17.9-9.6,28.7l8.9,19.2c1.3,1.9,1.3,4.5,0,6.4l-8.9,19.2 c-5.1,10.2-1.3,23,9.6,28.7l18.5,9.6c1.9,1.3,3.2,3.2,3.8,5.1l3.8,20.4c1.9,10.2,10.9,17.9,21.1,17.9c1.3,0,1.9,0,3.2,0l21.1-3.2 c2.6,0,4.5,0.6,6.4,1.9l15.3,14.7c4.5,3.8,9.6,6.4,15.3,6.4c5.1,0,10.9-1.9,15.3-6.4l15.3-14.7c1.9-1.3,3.8-2.6,6.4-1.9l21.1,3.2 c11.5,1.9,22.4-6.4,24.3-17.9l3.8-20.4c0.6-2.6,1.9-3.8,3.8-5.1l18.5-9.6c10.2-5.7,14.7-17.9,9.6-28.7L420.3,189.2z M284.3,121.5 c14.7,0,26.2,11.5,26.2,26.2s-11.5,26.2-26.2,26.2c-14.7,0-26.2-11.5-26.2-26.2S270.2,121.5,284.3,121.5z M270.8,237.7 c-1.3,1.3-3.2,1.9-5.1,1.9s-3.8-0.6-5.1-1.9c-2.6-2.6-2.6-7,0-10.2l94.5-94.5c2.6-2.6,7-2.6,10.2,0c2.6,2.6,2.6,7,0,10.2 L270.8,237.7z M341.8,249.9c-14.7,0-26.2-11.5-26.2-26.2s11.5-26.2,26.2-26.2c14.7,0,26.2,11.5,26.2,26.2 S356.4,249.9,341.8,249.9z"></path> </g> </g> <circle style="fill:#FFFFFF;" cx="284.9" cy="147.7" r="15.3"></circle> <circle style="fill:#FFFFFF;" cx="342.4" cy="225" r="15.3"></circle> </g> </svg> 