<?xml version="1.0" encoding="UTF-8"?> <!-- Generator: Adobe Illustrator 24.1.2, SVG Export Plug-In . SVG Version: 6.00 Build 0) --> <svg xmlns="http://www.w3.org/2000/svg" xmlns:xlink="http://www.w3.org/1999/xlink" version="1.1" id="Layer_1" x="0px" y="0px" viewBox="0 0 100 100" style="enable-background:new 0 0 100 100;" xml:space="preserve"> <g> <path style="fill:#FFFFFF;" d="M60,16.5c-0.5-0.4-1.3-0.4-1.7,0.1c-0.4,0.5-0.4,1.3,0.1,1.7c1.1,0.9,2,2,2.9,3.1l-3.5,10.8 l-7.1,2.6l-10.1-7.3v-7.8l9.2-6.7c1.6,0.6,3.1,1.4,4.6,2.3c0.6,0.4,1.3,0.2,1.7-0.4c0.4-0.6,0.2-1.3-0.4-1.7 c-4.9-3.1-10.5-4.7-16.3-4.7c-5.4,0-10.6,1.4-15.3,4c-4.5,2.6-8.3,6.2-11,10.6c-0.4,0.6-0.2,1.3,0.4,1.7c0.2,0.1,0.4,0.2,0.6,0.2 c0.4,0,0.8-0.2,1-0.6c0.2-0.3,0.3-0.5,0.5-0.8l2.9,8.9l-7.6,5.5c0.1-3.2,0.8-6.3,2-9.2c0.2-0.6-0.1-1.3-0.7-1.6 c-0.6-0.2-1.3,0.1-1.6,0.7c-1.4,3.6-2.2,7.4-2.2,11.3c0,17,13.8,30.8,30.8,30.8s30.8-13.8,30.8-30.8C70.2,30.7,66.5,22.3,60,16.5 L60,16.5z M63.3,54.7l-11.4,0L47.6,49l3.9-11.9l7.1-2.6l9.2,6.7C67.4,46.1,65.9,50.7,63.3,54.7L63.3,54.7z M63.1,23.8 c2.8,4.3,4.5,9.2,4.7,14.4l-7.6-5.5L63.1,23.8z M45.4,48h-12l-3.7-11.4l9.7-7l9.7,7L45.4,48z M47,12.1l-7.6,5.5l-7.6-5.5 c2.5-0.7,5-1,7.6-1C42,11,44.5,11.4,47,12.1L47,12.1z M17.5,21.4c2.2-2.7,4.9-4.9,7.8-6.6c1.2-0.7,2.4-1.3,3.6-1.7l9.2,6.7v7.8 l-10.1,7.3L21,32.2L17.5,21.4z M20.2,34.5l7.1,2.6L31.2,49l-4.4,5.7H15.5c-2.5-4-4.1-8.6-4.4-13.5L20.2,34.5z M17.2,57.1h9.3 l2.9,8.9C24.6,64.2,20.4,61.1,17.2,57.1L17.2,57.1z M48.9,66.1l0.7-2.3c0.2-0.6-0.1-1.3-0.8-1.5c-0.6-0.2-1.3,0.1-1.5,0.8L46.1,67 c-2.1,0.5-4.4,0.8-6.7,0.8c-2.5,0-4.8-0.3-7.1-0.9l-3.5-10.8l4.4-5.7h12.5l4.1,5.3L49,58.2c-0.2,0.6,0.1,1.3,0.8,1.5 c0.1,0,0.3,0.1,0.4,0.1c0.5,0,1-0.3,1.2-0.8l0.6-1.9l9.7,0C58.3,61.2,53.9,64.4,48.9,66.1L48.9,66.1z M48.9,66.1"></path> <path style="fill:#FFFFFF;" d="M32,71.3c-0.5-0.5-1.2-0.5-1.7,0c-0.5,0.5-0.5,1.2,0,1.7l10.8,10.8c0.2,0.2,0.5,0.4,0.9,0.4 c0.3,0,0.6-0.1,0.9-0.4c0.5-0.5,0.5-1.2,0-1.7L32,71.3z M32,71.3"></path> <path style="fill:#FFFFFF;" d="M48.7,71.6c-0.5-0.5-1.2-0.5-1.7,0c-0.5,0.5-0.5,1.2,0,1.7l10.5,10.5c0.2,0.2,0.5,0.4,0.9,0.4 c0.3,0,0.6-0.1,0.9-0.4c0.5-0.5,0.5-1.2,0-1.7L48.7,71.6z M48.7,71.6"></path> <path style="fill:#FFFFFF;" d="M85.7,62.1c0.3,0,0.6-0.1,0.9-0.4c0.5-0.5,0.5-1.2,0-1.7L76,49.5c-0.5-0.5-1.2-0.5-1.7,0 c-0.5,0.5-0.5,1.2,0,1.7l10.5,10.5C85,62,85.3,62.1,85.7,62.1L85.7,62.1z M85.7,62.1"></path> <path style="fill:#FFFFFF;" d="M86.2,46.4c0.2,0.2,0.5,0.4,0.9,0.4c0.3,0,0.6-0.1,0.9-0.4c0.5-0.5,0.5-1.2,0-1.7L74.5,31.3 c-0.5-0.5-1.2-0.5-1.7,0c-0.5,0.5-0.5,1.2,0,1.7L86.2,46.4z M86.2,46.4"></path> <path style="fill:#FFFFFF;" d="M85.3,75.2c0.2,0.2,0.5,0.4,0.9,0.4c0.3,0,0.6-0.1,0.9-0.4c0.5-0.5,0.5-1.2,0-1.7L80.6,67 c-0.5-0.5-1.2-0.5-1.7,0c-0.5,0.5-0.5,1.2,0,1.7L85.3,75.2z M85.3,75.2"></path> <g> <path style="fill:#FFFFFF;" d="M64.9,75.7c-0.5-0.5-1.2-0.5-1.7,0c-0.5,0.5-0.5,1.2,0,1.7l6.4,6.4c0.2,0.2,0.5,0.4,0.9,0.4 c0.3,0,0.6-0.1,0.9-0.4c0.5-0.5,0.5-1.2,0-1.7L64.9,75.7z M64.9,75.7"></path> <path style="fill:#FFFFFF;" d="M91,89.3l-25-25c-0.5-0.5-1.2-0.5-1.7,0c-0.5,0.5-0.5,1.2,0,1.7l25,25c0.2,0.2,0.5,0.4,0.9,0.4 c0.3,0,0.6-0.1,0.9-0.4C91.5,90.6,91.5,89.8,91,89.3L91,89.3z M91,89.3"></path> </g> </g> </svg> 