<?xml version="1.0" encoding="UTF-8"?> <!-- Generator: Adobe Illustrator 24.3.0, SVG Export Plug-In . SVG Version: 6.00 Build 0) --> <svg xmlns="http://www.w3.org/2000/svg" xmlns:xlink="http://www.w3.org/1999/xlink" version="1.1" id="Layer_1" x="0px" y="0px" viewBox="0 0 500 500" style="enable-background:new 0 0 500 500;" xml:space="preserve"> <path style="fill-rule:evenodd;clip-rule:evenodd;fill:#FFFFFF;" d="M435.6,239.6c0-101.8-82.7-184.5-184.5-184.5 S66.7,137.9,66.7,239.6c0,27.3,5.7,53.4,16.5,77l0,0c29.3,63,93.5,107.5,167.9,107.5s138.7-43.9,167.9-107.5h-11.4h11.4 C429.2,293,435.6,267,435.6,239.6z M392.4,315.9L392.4,315.9c-27.3,49.6-80.1,84-141.2,84s-113.9-33.7-141.2-84 c-12.7-22.9-19.7-49-19.7-77c0-88.4,71.9-160.3,160.9-160.3c88.4,0,160.3,71.9,160.3,160.9C411.4,267,404.4,293.7,392.4,315.9z M192.6,236.4c-43.9-11.4-62.3-29.9-68.1-42c0-1.3-1.3-1.3-1.9-0.6c-6.4,14.6-8.3,25.4-8.3,42.6s2.5,29.9,8.9,44.5 c1.3,1.3,1.9,1.3,2.5,0c4.5-10.8,18.4-27.3,66.1-42.6C194.5,238.3,194.5,237.1,192.6,236.4z M251.8,102.2 c-36.3,0-71.9,15.3-97.3,40.1c-9.5,10.8-20.4,24.8-3.2,41.3c29.3,29.3,93.5,45.2,150.1,52.8c-56.6,7-120.2,28-149.5,53.4 c-8.9,8.3-10.8,17.8-8.3,26.7l0,0c1.9,7,6.4,14,10.2,19.1c21,23.5,61.1,41.3,99.2,41.3c40.1,0,85.2-22.9,111.3-60.4l0,0 c6.4-8.9,11.4-19.1,15.3-29.9c0.6-3.2-3.8-3.8-8.9-3.2c-20.4,1.3-49,12.1-69.3,33.1h50.2h-50.2c-8.3,8.3-14.6,17.8-19.1,29.3 c-5.1,12.1-16.5,20.4-30.5,20.4c-24.8,0-29.3-19.7-27.3-28c1.3-7,5.1-14,10.2-21l0,0c29.9-40.1,111.9-70,150.1-70 c2.5,0,3.8-2.5,3.8-5.1c0-3.8,0-6.4,0-9.5c-0.6-3.8-4.5-4.5-6.4-4.5c-42-0.6-145.7-45.2-156.5-90.3c-1.9-7,1.3-25.4,27.3-24.8 c17.8,0.6,24.8,12.7,29.9,21.6c15.3,28,54.1,50.2,86.5,54.7c5.1,0.6,8.9,0,6.4-5.1C358,139.1,303.9,102.2,251.8,102.2z"></path> </svg> 