<?xml version="1.0" encoding="UTF-8"?> <!-- Generator: Adobe Illustrator 24.3.0, SVG Export Plug-In . SVG Version: 6.00 Build 0) --> <svg xmlns="http://www.w3.org/2000/svg" xmlns:xlink="http://www.w3.org/1999/xlink" version="1.1" id="Layer_1" x="0px" y="0px" viewBox="0 0 500 500" style="enable-background:new 0 0 500 500;" xml:space="preserve"> <g> <path style="fill:#FFFFFF;" d="M235.7,445.1c-2.7-1.7-5.8-3.4-8.6-5.2c0-1.4,0-2.7,0-4.1c0-42.6,0-85.2,0-127.8c10,0,19.6,0,29.5,0 c0.3,0,0.7,0.3,1,0.3c0,1,0,2.4,0,3.4c0,9.3,0,18.9,0,28.2c-0.3,1.7-0.7,3.4-0.7,5.5c0,26.5,0,52.9,0,79.4c0,2.7,0.3,5.5,0.7,8.2 c-6.2,3.4-12,7.2-18.2,10.6c-1,0.3-1.7,1-2.4,1.7C236.4,445.1,236.1,445.1,235.7,445.1z"></path> <path style="fill:#FFFFFF;" d="M100.7,367.1c-0.3,0-0.3,0-0.7,0c0-53.6,0-107.5,0-161.1c0.3,0,0.3,0,0.7,0c0,0.7,0,1.4,0,1.7 C100.7,260.6,100.7,313.8,100.7,367.1z"></path> <path style="fill:#FFFFFF;" d="M100.7,205.6c-0.3,0-0.3,0-0.7,0c0-3.8,0-7.9,0-11.7c0.3,0,0.3,0,0.7,0 C100.7,198.1,100.7,201.9,100.7,205.6z"></path> <path style="fill:#FFFFFF;" d="M156,398.7c-3.8-2.1-7.9-4.5-11.7-6.5c-5.8-3.4-11.7-6.9-17.5-10.3c-1-0.3-1.7-1-2.4-1.7 c1.4-1.4,1.4-3.1,1.4-5.2c0-51.9,0-104.1,0-156c0.3,0,0.7,0,1.4,0c5.8,0.7,10-4.5,10-9.3c-0.3-13.1,0-26.5,0-39.5c0-1,0-2.1,0-3.1 c0.7-5.2,4.8-8.6,9.6-8.2c4.8,0.3,8.6,4.1,8.6,9.3c0,4.5,0.3,8.9,0,13.1c-0.3,3.1,0.7,5.8,2.7,8.2c0,1.4,0,3.1,0,4.5 c0,66.3,0,132.6,0,198.9c0,1,0.3,1.7,0,2.7C157.1,397,156.7,398,156,398.7z"></path> <path style="fill:#FFFFFF;" d="M346.3,381.2c-0.7,0.7-1.4,1.4-2.1,2.1c-6.5,3.8-13.1,7.2-19.2,11c-2.1,1-4.1,2.4-6.2,3.4 c0-70.8,0-141.2,0-211.9c0-0.7,0-1.7,0-2.4c-0.3-1-0.7-2.1-1.4-3.1c0-1.7,0-3.1,0.3-4.8c1-4.8,4.8-7.9,10-7.2 c4.5,0.3,7.9,4.1,7.9,8.9c0,5.8,0,11.3,0,17.2c0,1.4,0,2.7,0,4.1c0,6.9,2.7,10,9.3,10.6c0,55.3,0,111,0,166.3c0,0.7,0,1.7,0,2.4 C345.3,378.4,346,379.8,346.3,381.2z"></path> <path style="fill:#FFFFFF;" d="M317.5,180.2c0.3,1,1,2.1,1.4,3.1c0.3,0.7,0,1.7,0,2.4c0,70.8,0,141.2,0,211.9 c-5.2,3.1-10.6,6.2-15.8,9.3c-3.8,2.1-7.9,4.5-11.7,6.5c0-24.4,0-48.8,0-73.2c2.7,0,5.5-0.3,8.9-0.3c0-8.6,0-17.2,0-25.4 c0-8.2,0-16.8,0-25.1c0-8.6,0-16.8,0-25.4c0-8.2,0.3-16.8,0-25.4c-2.4,0-4.1,0-6.2,0c0-35.7,0-71.5,0-107.2 c4.1,1.4,5.8,4.5,5.8,8.9c0,5.8,0,11.7,0,17.2c0,6.5,0,13.1,0,19.6c0,2.1,0.3,4.1,1.7,5.8c4.1,5.8,11.7,4.1,14.8-0.3 C316.8,181.6,317.1,180.9,317.5,180.2z"></path> <path style="fill:#FFFFFF;" d="M156,398.7c0.3-1,1-1.7,1.4-2.7c0.3-0.7,0-1.7,0-2.7c0-66.3,0-132.6,0-198.9c0-1.4,0-3.1,0-4.5 c2.7,2.1,5.5,3.4,8.9,2.1c3.8-1,6.2-3.8,6.5-7.6c0.3-1.7,0.3-3.1,0.3-4.8c0-17.2,0-34.7,0-51.9c0-1,0-2.1,0-3.1 c0-2.7,1.4-4.8,3.4-6.2c2.7,0.3,2.1,2.1,2.1,3.8c0,38.8,0,77.3,0,116.1c-2.1,0-4.1,0-6.2,0.3c-0.7,4.1-0.3,98.9,0.3,101.3 c5.8,0,12,0,18.2,0c0,13.1,0,25.8,0,38.8c0,13.4,0,26.8,0,40.2c-1.7-1-3.8-2.1-5.5-3.1c-9.6-5.5-18.9-11-28.5-16.5 C156.7,399.4,156.4,399,156,398.7z"></path> <path style="fill:#FFFFFF;" d="M346.3,381.2c-0.3-1.4-1-2.7-1.4-3.8c-0.3-0.7,0-1.7,0-2.4c0-55.3,0-111,0-166.3 c2.1-0.3,4.1-1,5.8-2.4c1.7-1.7,2.7-3.8,3.1-6.5c0-2.1,0-4.1,0.3-6.2c0.7-4.5,4.8-7.6,9.3-7.2c4.8,0.3,8.2,4.1,8.6,8.6 c0,0.7,0,1.7,0,2.4c0,55.3,0,111,0,166.3c0,2.4-0.7,3.8-2.7,5.2c-7.2,3.8-14.4,7.9-21.3,12C347.4,380.8,347,380.8,346.3,381.2z"></path> <path style="fill:#FFFFFF;" d="M125.8,219.4c0,51.9,0,104.1,0,156c0,1.7,0,3.8-1.4,5.2c-4.1-2.1-7.9-4.5-12-6.5 c-4.1-2.4-7.9-4.5-11.7-6.9c0-53.2,0-106.1,0-159.4c0-0.7,0-1.4,0-1.7c0-3.8,0-7.6,0-11.7c1.4-3.1,3.4-5.5,7.2-6.5c0.3,0,0.7,0,1,0 c0.7,0.7,1.7,0.7,2.4,0c5.2,1.4,7.9,4.1,7.9,9.6c0,4.1,0,8.6,0,12.7c-0.3,4.5,2.1,7.2,5.8,9.3C125.1,219,125.5,219.4,125.8,219.4z"></path> <path style="fill:#FFFFFF;" d="M243,155.1c2.1-2.4,2.4-5.5,2.4-8.6c0-11,0-22,0-33c0-3.4,1.4-6.2,4.5-8.2c4.5-2.7,12.4-1,13.4,7.2 c0,1.4,0,3.1,0,4.5c0,10.6,0,21.3,0,31.9c0,1,0,2.4,0,3.4c0,3.8,1,6.9,4.1,9.3c0,1.4,0,2.7,0,4.1c0,24.4,0,48.4,0,72.8 c-3.1,0-6.5,0-10,0.3c0,11.3,0,22.7,0,34c-4.8,0-8.9,0-13.4,0c0-37.8,0-75.9,0-113.7c0-1,0-1.7,0-2.7 C244,155.8,243.3,155.5,243,155.1z"></path> <path style="fill:#FFFFFF;" d="M198,172.3c0.3,0,1,0,1.4,0c4.8,0.7,10-3.1,10-9.6c0-8.6,0-17.2,0-25.4c0-2.4,0.3-4.8,2.1-6.5 c2.4-2.7,5.5-4.1,8.9-3.1c3.4,0.7,5.8,2.7,6.9,6.5c-1,0-1.7,0.3-1.7,1.4c0,1,0,1.7,0,2.7c0,45,0,90,0,134.7c-3.4,0-6.9,0-10.6-0.3 c0-11.3,0-22.3,0-34c-5.8,0-11.3,0-17.2,0C198,216.3,198,194.3,198,172.3z"></path> <path style="fill:#FFFFFF;" d="M291.4,340c0,24.4,0,48.8,0,73.2c-4.8,2.7-9.6,5.8-14.4,8.6c-6.5,3.8-12.7,7.2-19.2,11 c-0.3-2.7-0.7-5.5-0.7-8.2c0-26.5,0-52.9,0-79.4c0-1.7,0.3-3.4,0.7-5.5c4.1,0,8.6,0,12.7,0C277.6,340,284.5,340,291.4,340z"></path> <path style="fill:#FFFFFF;" d="M267.7,238.6c0-24.4,0-48.4,0-72.8c0-1.4,0-2.7,0-4.1c0.7,0.3,1,0.3,1.7,0.7 c5.8,2.1,12-2.1,12.4-8.2c0-4.8,0-9.6,0-14.4c0-2.4,0.7-4.8,2.7-6.5c2.7-2.7,5.8-3.4,9.6-2.1c0,35.7,0,71.5,0,107.2 C284.9,238.6,276.3,238.6,267.7,238.6z"></path> <path style="fill:#FFFFFF;" d="M225.4,272.6c0-45,0-90,0-134.7c0-1,0-1.7,0-2.7s0.7-1.4,1.7-1.4c0,3.1,0.3,6.2,0.3,9.3 c0,2.1,0,3.8,0,5.8c0.3,7.6,8.6,11,14.1,7.2c0.3-0.3,1-0.7,1.4-1c0.3,0.3,1,0.7,1,1c0.3,1,0,1.7,0,2.7c0,37.8,0,75.9,0,113.7 C238.1,272.6,231.6,272.6,225.4,272.6z"></path> <path style="fill:#FFFFFF;" d="M198,172.3c0,22,0,44,0,66.3c-6.2,0-12.7,0-18.9,0c0-38.8,0-77.3,0-116.1c0-1.7,0.3-3.8-2.1-3.8 c2.7-2.4,6.2-2.4,9.3-1c3.4,1.4,5.2,4.5,5.2,8.2c0,4.8,0,9.3,0,14.1c0,7.2,0,14.4,0,21.6c0,4.8,1.4,8.6,5.8,10.6 C197.3,172,197.6,172,198,172.3z"></path> <path style="fill:#FFFFFF;" d="M245.4,65.8c0-4.5,0-8.6,0-13.1c0-5.5,6.2-9.6,11.3-7.9c4.1,1.4,6.5,4.1,6.5,8.2 c0.3,8.9,0.3,18.2,0,27.1c0,5.2-3.8,8.2-8.9,8.6c-4.1,0.3-9.3-4.1-8.9-8.9c0-0.3,0-0.3,0-0.7C245.4,74.8,245.4,70.3,245.4,65.8 L245.4,65.8z"></path> <path style="fill:#FFFFFF;" d="M209.3,90.6c0-4.8,0-9.3,0-14.1c0.3-5.2,4.5-8.9,9.3-8.2c6.2,0.7,8.6,4.8,8.6,8.9 c0,8.9,0,17.5,0,26.5c0,5.2-3.8,8.9-8.9,8.9s-8.9-3.4-8.9-8.6C209.3,99.5,209.3,95,209.3,90.6L209.3,90.6z"></path> <path style="fill:#FFFFFF;" d="M290.7,119.4c-5.8,0.3-9.3-5.2-9.3-8.9c0-5.2,4.1-9.3,9.3-8.9c4.8,0,8.9,4.1,8.9,8.9 C300,115.3,295.5,119.4,290.7,119.4z"></path> <path style="fill:#FFFFFF;" d="M218.2,52.1c-5.2,0-8.9-4.1-8.9-9.3c0-5.5,5.2-8.9,9.3-8.9c4.8,0.3,8.9,4.1,8.9,8.9 C227.5,48.3,223.4,52.1,218.2,52.1z"></path> <path style="fill:#FFFFFF;" d="M111,187.4c-0.7,0.7-1.7,0.7-2.4,0C109.7,187.4,110.4,187.4,111,187.4z"></path> <path style="fill:#FFFFFF;" d="M191.1,419c0-13.4,0-26.8,0-40.2c0-13.1,0-25.8,0-38.8c7.9,0,15.8,0,23.7-0.3c0-1.4,0-2.7,0-3.8 c0-9.3,0-18.5,0-27.8c0-0.3,0.3-0.3,0.3-0.7c3.8,0,7.9,0,11.7,0c0,42.6,0,85.2,0,127.8c0,1.4,0,2.7,0,4.1 c-5.2-3.1-10.3-5.8-15.5-8.9C204.8,427.2,198,423.1,191.1,419z"></path> <path style="fill:#FFFFFF;" d="M215.1,308.3c0-0.3,0.3-0.3,0.3-0.7C215.5,308,215.1,308,215.1,308.3z"></path> </g> </svg> 