<?xml version="1.0" encoding="UTF-8"?> <!-- Generator: Adobe Illustrator 24.3.0, SVG Export Plug-In . SVG Version: 6.00 Build 0) --> <svg xmlns="http://www.w3.org/2000/svg" xmlns:xlink="http://www.w3.org/1999/xlink" version="1.1" id="Layer_1" x="0px" y="0px" viewBox="0 0 500 500" style="enable-background:new 0 0 500 500;" xml:space="preserve"> <g> <path style="fill:none;stroke:#FFFFFF;stroke-width:15.9717;stroke-miterlimit:10;" d="M309.1,312.2l-155.7,63.1 c-4,1.6-8.8,0-10.4-4L59.1,163.7c-1.6-4,0-8.8,4-10.4l155.7-63.1c4-1.6,8.8,0,10.4,4L313.8,301C315.4,305.8,313,309.8,309.1,312.2z "></path> <path style="fill:none;stroke:#FFFFFF;stroke-width:15.9717;stroke-miterlimit:10;" d="M345.8,167.7l74.3,20c4,1.6,6.4,5.6,5.6,9.6 L360.2,412c-1.6,4-5.6,6.4-9.6,5.6l-171.7-49.5"></path> <path style="fill:none;stroke:#FFFFFF;stroke-width:15.9717;stroke-miterlimit:10;" d="M242,111.8h95.8c4.8,0,8,3.2,8,8v223.6 c0,4.8-3.2,8-8,8H210"></path> <path style="fill:none;stroke:#FFFFFF;stroke-width:15.9717;stroke-linecap:round;stroke-linejoin:round;stroke-miterlimit:10;" d=" M189.3,291.4c2.4-1.6,10.4-8,16.8-11.2c6.4-2.4,16.8-4,20-4"></path> <path style="fill:none;stroke:#FFFFFF;stroke-width:15.9717;stroke-linecap:round;stroke-linejoin:round;stroke-miterlimit:10;" d=" M196.5,256.3c8.8,3.2,24-3.2,28.7-8.8c7.2-8,8.8-17.6,4-28c-8-20-50.3-20-60.7-31.9c1.6,16-28.7,44.7-20.8,65.5 c4,10.4,12,16,22.4,16.8C176.5,270.7,192.5,264.3,196.5,256.3z"></path> </g> </svg> 