<?xml version="1.0" encoding="UTF-8"?> <!-- Generator: Adobe Illustrator 24.3.0, SVG Export Plug-In . SVG Version: 6.00 Build 0) --> <svg xmlns="http://www.w3.org/2000/svg" xmlns:xlink="http://www.w3.org/1999/xlink" version="1.1" id="Layer_1" x="0px" y="0px" viewBox="0 0 500 500" style="enable-background:new 0 0 500 500;" xml:space="preserve"> <path style="fill:#FFFFFF;" d="M251.6,49.6c-95.9,0-175.7,66.7-196.9,156.5c0,1,0,1,0,1l0,0c-3,14.1-5,28.3-5,43.4 c0,111.1,90.9,202,202,202s202-90.9,202-202S362.7,49.6,251.6,49.6z M302.1,185c10.1-5,22.2-8.1,33.3-8.1c42.4,0,99,41.4,102,74.7 c0,45.4-17.2,87.9-44.4,120.2C381.9,301.1,344.5,235.5,302.1,185z M434.4,212.2c-23.2-27.3-63.6-49.5-98-49.5 c-15.1,0-30.3,4-43.4,11.1c-9.1-10.1-18.2-19.2-27.3-28.3c30.3-17.2,65.6-30.3,107.1-37.4C403.1,134.5,425.3,170.8,434.4,212.2z M251.6,64.8c0,6.1-3,19.2-18.2,37.4c-3,3-6.1,6.1-9.1,9.1C205.1,97.1,188,87,172.8,81.9C197,70.8,223.3,64.8,251.6,64.8L251.6,64.8 z M244.5,111.2c17.2-21.2,21.2-36.4,21.2-46.5c33.3,3,63.6,14.1,89.9,31.3c-39.4,8.1-72.7,21.2-102,38.4 c-6.1-5.1-12.1-11.1-18.2-15.1C239.5,117.3,242.5,114.3,244.5,111.2z M153.6,92c10.1,0,31.3,8.1,58.6,27.3 c-28.3,18.2-68.7,31.3-97,40.4c-4,1-8.1,2-11.1,3c-9.1,3-16.2,6.1-22.2,10.1C97.1,140.5,122.3,111.2,153.6,92z M68.8,210.2 c1-4,9.1-23.2,38.4-32.3c3-1,7.1-2,11.1-3c31.3-10.1,74.7-23.2,105-44.4c6.1,4,11.1,9.1,17.2,14.1c-97,62.6-136.3,165.6-147.5,205 c-18.2-28.3-28.3-62.6-28.3-99C64.7,237.5,65.7,223.3,68.8,210.2z M103.1,365.8c5-22.2,39.4-142.4,149.5-212.1 c9.1,9.1,18.2,18.2,27.3,28.3c-5,4-9.1,7.1-13.1,12.1c-15.1,17.2-32.3,48.5-27.3,101c7.1,76.8-5.1,132.3-15.1,141.4 C175.8,429.4,132.4,403.1,103.1,365.8z M240.5,437.5c14.1-27.3,18.2-89.9,13.1-144.4c-4-38.4,5.1-68.7,24.2-89.9 c4-4,8.1-7.1,12.1-11.1c43.4,51.5,81.8,119.2,91.9,192.9c-33.3,32.3-79.8,52.5-130.3,52.5C247.5,438.5,244.5,438.5,240.5,437.5z"></path> </svg> 