<?xml version="1.0" encoding="UTF-8"?> <!-- Generator: Adobe Illustrator 24.3.0, SVG Export Plug-In . SVG Version: 6.00 Build 0) --> <svg xmlns="http://www.w3.org/2000/svg" xmlns:xlink="http://www.w3.org/1999/xlink" version="1.1" id="Layer_1" x="0px" y="0px" viewBox="0 0 500 500" style="enable-background:new 0 0 500 500;" xml:space="preserve"> <path style="fill:#FFFFFF;" d="M178.2,388.8h116.4l19.4,38.8H158.8L178.2,388.8z"></path> <g> <path style="fill:#FFFFFF;" d="M418.5,149.5c-2.5,0-4.8-1.5-5.9-3.8c-14.2-30.6-36.1-57-63.5-76.6c-2.9-2.1-3.6-6.1-1.5-9 c2.1-2.9,6.1-3.6,9-1.5c29.3,20.9,52.6,49.1,67.8,81.7c1.5,3.2,0.1,7.1-3.2,8.6C420.3,149.3,419.4,149.5,418.5,149.5L418.5,149.5z"></path> <path style="fill:#FFFFFF;" d="M407,84.9c-1.9,0-3.6-0.8-4.9-2.2c-7.9-9.1-16.6-17.5-25.8-25.1c-2.8-2.2-3.3-6.3-1.1-9.1 c2.2-2.8,6.3-3.3,9.1-1.1c0.1,0.1,0.1,0.1,0.2,0.2c9.8,8.1,19,17,27.3,26.6c2.3,2.7,2.1,6.8-0.6,9.1 C410.1,84.3,408.6,84.9,407,84.9z"></path> <path style="fill:#FFFFFF;" d="M424,106.9c-2.2,0-4.2-1.1-5.4-2.8l-1.7-2.5c-2-2.9-1.3-7,1.7-9c2.9-2,6.9-1.3,8.9,1.6l1.8,2.7 c2,3,1.2,7-1.7,9C426.5,106.5,425.2,106.9,424,106.9z"></path> </g> <path style="fill:#FFFFFF;" d="M293.3,89.7c-36.5-15.1-77.4-15.1-113.9,0l57,137.4L293.3,89.7z"></path> <polygon style="fill:#FFFFFF;" points="120,227.1 48.9,181.9 48.9,272.4 "></polygon> <g> <path style="fill:#FFFFFF;" d="M89.1,207.5c-1.7,13-1.7,26.2,0,39.3l30.9-19.6L89.1,207.5z"></path> <path style="fill:#FFFFFF;" d="M99,170.2c-4,9.6-6.8,19.4-8.7,29.5l33.6,21.4l9.6,6.1l-9.6,6.1l-33.6,21.4 c1.9,10,4.7,19.9,8.7,29.5l137.4-56.9L99,170.2z"></path> </g> <g> <path style="fill:#FFFFFF;" d="M236.4,52.5c-81.9,0-150.5,56.3-169.4,132.3l23.3,14.8c12.9-69,73.3-121.3,146.1-121.3 c82.2,0,148.7,66.6,148.7,148.7s-66.6,148.7-148.7,148.7c-72.8,0-133.2-52.3-146.1-121.3L67,269.4c18.9,76,87.6,132.3,169.4,132.3 c96.4,0,174.6-78.2,174.6-174.6S332.8,52.5,236.4,52.5z"></path> </g> <path style="fill:#FFFFFF;" d="M373.9,170.2l-137.4,56.9l137.4,56.9C388.9,247.6,388.9,206.7,373.9,170.2L373.9,170.2z"></path> <path style="fill:#FFFFFF;" d="M179.5,364.6c36.5,15.1,77.4,15.1,113.9,0l-57-137.4L179.5,364.6z"></path> </svg> 