<?xml version="1.0" encoding="UTF-8"?> <!-- Generator: Adobe Illustrator 24.3.0, SVG Export Plug-In . SVG Version: 6.00 Build 0) --> <svg xmlns="http://www.w3.org/2000/svg" xmlns:xlink="http://www.w3.org/1999/xlink" version="1.1" id="Layer_1" x="0px" y="0px" viewBox="0 0 500 500" style="enable-background:new 0 0 500 500;" xml:space="preserve"> <path style="fill:#FFFFFF;" d="M37.2,229.5c4.8,0,9.6,0,14.4,0c0.8,0,2,0,2.8,0.4c1.2,0.8,2.4,2.4,2,3.6c-1.6,8-3.6,16-5.2,24 c-0.8,2.8-3.2,4.8-6,4.4c-5.2,0-10,0-15.2,0c-2,0-4-1.2-3.6-3.2v-0.4c0-1.2,0.4-2.8,0.8-4c1.6-6.8,2.8-13.2,4.4-20 C31.6,231.9,34.4,229.5,37.2,229.5 M441.3,164.3c2-0.4,4-0.4,6-0.4c10.4,0,20.4,0,30.8,0c0.8,0,2,0.8,2.4,1.6c0,0.4,0,1.2,0,2 c-4.4,19.6-8.8,39.2-13.2,58.9c-0.4,1.6-2,3.2-3.6,2.8c-2,0-4,0-6,0c-1.2,0-2.4-1.6-2-2.8c1.6-6.4,2.8-12.4,4.4-18.8 c0.4-1.2,0.4-2.4-0.4-3.2c-0.4-0.8-1.6-0.8-2.4-0.8c-4.4,0-8.8,0-12.8,0c-1.6,0-2.8-2-2-3.6c1.6-3.6,4.4-6.8,8-8.8 c3.2-1.6,7.2-2,10.8-2c1.6,0,2.8-1.2,3.2-2.4c0.8-4,2-7.6,2.4-11.6c0.4-1.6-1.2-2.8-2.4-2.8c-5.6,0-11.2,0-16.4,0 c-1.6,0-2.8,0.8-3.6,2c-0.4,0.4-0.4,1.2-0.8,2c-3.6,16.4-7.2,32.4-11.2,48.9c0,1.2-0.8,2.4-2,3.2c-0.8,0.4-1.6,0.8-2.8,0.4 c-3.2,0-6.8,0-10,0c-1.2,0-2.4-1.2-2.4-2.4c0-0.4,0-0.8,0.4-1.2c3.2-13.6,6.4-27.2,9.2-41.2c0.8-4,1.6-8,3.6-11.6 C431.3,168.3,436.1,165.1,441.3,164.3 M385.6,172.7c-1.2,0.4-2.4,1.6-2.8,2.8c-2.8,12.4-5.6,25.2-8.4,37.6c-0.4,2-1.2,3.6-1.2,5.6 c0,1.2,1.2,2,2.4,2c5.2,0,10.8,0,16,0c0.8,0,1.2,0,2,0c1.2-0.4,2.4-1.6,2.8-2.8c0.8-3.6,1.6-7.2,2.4-11.2c0.4-1.2-0.4-2.8-2-2.8 c-4.4,0-9.2,0-13.6,0c-1.2,0-2.8-1.2-2.4-2.4c0.4-2,1.6-4,3.2-5.6c3.2-4,8-5.6,13.2-6c1.6,0,3.6,0,5.2-0.8c0.8-0.4,1.2-1.2,1.6-2 c0.8-3.2,1.6-6.8,2.4-10c0-1.2,0.4-2.4,0-3.2c-0.8-1.2-2-1.2-3.2-1.2C396.4,172.7,390.8,172.7,385.6,172.7 M380,164.7 c2.8-0.4,5.6-0.4,8.4-0.4c9.6,0,19.2,0,28.8,0c1.2,0,2.4,1.2,2.4,2.4c0,0.4-0.4,1.2-0.4,1.6c-1.2,4.8-2,9.6-3.2,14 c-0.4,2.4-1.2,4.8-2.4,7.2c-1.6,3.2-4.4,5.6-7.6,7.2c2.4,2,4,4.8,4.4,8c0.4,2-0.4,4-0.4,6c-0.8,4-1.6,7.6-3.6,11.2 c-2.8,4.8-8,7.6-13.6,7.6c-12,0-23.6,0-35.6,0c-1.2,0-2-0.8-2.4-2c0-0.8,0.4-1.6,0.4-2.4c3.2-14,6.4-27.6,9.6-41.6 c0.8-2.4,0.8-5.2,2-7.6c1.2-3.2,3.2-6,6-8C374,166.3,377.2,165.1,380,164.7 M318.7,164.3c2-0.4,4-0.4,6-0.4c10,0,20.4,0,30.4,0 c1.2,0,2,0.4,2.4,1.6c0.4,0.4,0,1.2,0,1.6c-4,19.2-8,38.4-12.4,57.3c-0.4,1.6-0.4,3.2-2,4.4c-0.8,0.8-2.4,0.8-3.6,0.8 c-1.6,0-3.6,0-5.2,0c-1.2-0.4-2-1.6-1.6-2.8c3.6-16.4,7.6-32.4,11.2-48.9c0.4-1.2,0.4-2,0.4-3.2c0-0.4-0.4-1.2-0.8-1.6 c-1.6-1.2-4.4,0-4.8,2c-2,8.8-4,17.2-6,26c-0.4,2-2.4,2.8-4.4,2.8c-1.6,0-3.6,0-5.2,0c-1.2,0-2.4-1.6-2-2.8c2-8.4,3.6-16.8,5.6-25.6 c0.4-0.8,0-2-0.8-2.4c-1.6-0.8-3.6-0.4-4.4,1.2c-0.4,0.8-0.8,2-0.8,2.8c-3.6,16.4-7.2,32.8-11.2,48.9c-0.4,1.6-2,3.2-3.6,3.2 c-3.6,0-7.2,0-10.8,0c-1.2,0-2.4-1.6-2-2.8c3.6-16.4,7.2-32.4,11.2-48.9c1.2-4,3.2-8,6.8-10.4C313.1,165.9,315.9,164.7,318.7,164.3 M257.5,164.3c2.4-0.4,5.2,0,7.6,0c9.6,0,18.8,0,28.4,0c0.8,0,2,0.8,2.4,1.6c0.4,1.2,0,2.4-0.4,3.6c-4,18.8-8.4,37.6-12.8,56.5 c-0.4,1.6-1.6,3.2-3.2,3.6c-2,0-4.4,0-6.4,0c-1.6,0-2.4-1.6-2-2.8c1.2-5.6,2.4-10.8,3.6-16.4c0.4-1.6,0.8-2.8,0.8-4.4 c0-1.2-1.2-2-2.4-2c-4.4,0-8.8,0-13.2,0c-1.6,0-2.4-2-2-3.2c2-4.8,6-8.4,10.8-10c2-1.2,4.8-1.2,7.6-1.2c1.6,0,2.8-1.2,3.2-2.4 c0.8-4,2-7.6,2.4-11.6c0.4-1.2-0.8-2.8-2.4-2.8c-5.6,0-11.2,0-16.8,0c-1.6,0-3.6,1.2-4,2.8c-3.6,16.8-7.6,33.6-11.6,50.5 c-0.4,1.6-2,3.2-3.6,3.2c-3.6,0-7.2,0-10.8,0c-1.6,0-2.8-1.6-2.4-2.8c3.6-15.2,6.8-30.4,10.4-45.6c0.4-2,0.8-4.4,2-6.4 c1.2-2.8,3.2-5.2,6-7.2C251.5,165.5,254.3,164.7,257.5,164.3 M206.6,164.3c0.8,0,1.2,0,2,0c3.2,0,6.4,0,9.6,0c1.2,0,2.8,1.2,2.4,2.8 c-3.2,14.4-6.4,29.2-10,43.6c-0.4,1.2-0.4,2,0,3.2c0.4,0.8,0.8,1.2,2,1.2c4.4,0,8.8,0,13.2,0c1.6,0,3.2,1.6,2.4,3.2 c-1.2,3.2-3.2,6-6,8c-2.8,2-6.8,3.2-10.4,3.2c-6.4,0-12.8,0-19.2,0c-1.6,0-2.8-1.2-2.4-2.8c4.4-19.6,9.2-39.6,13.6-59.3 C204.2,165.9,205.4,164.7,206.6,164.3 M154.6,164.3c1.6-0.4,3.2-0.4,5.2-0.4c10.4,0,21.2,0,31.6,0c1.2,0,2,0.8,2.4,2 c0,0.8,0,1.6-0.4,2.4c-4,18.8-8.4,37.2-12.8,55.7c-0.4,1.2-0.4,2.8-1.2,3.6c-0.8,0.8-2,1.2-2.8,1.2c-2,0-4,0-6,0 c-1.2,0-2.4-1.6-2-2.8c1.6-6.4,2.8-12.8,4.4-19.2c0.4-1.6-0.4-3.2-2-3.6c-4.4,0-9.2,0-13.6,0c-1.6,0-2.4-2-2-3.2 c1.2-3.2,3.2-5.6,6-7.6c2.4-1.6,5.2-2.8,8-3.2c2-0.4,3.6-0.4,5.6-0.4c1.6,0,2.8-1.2,3.2-2.4c0.8-3.6,1.6-7.2,2.4-10.8 c0-0.8,0.4-1.6,0-2.4c-0.4-0.8-1.6-1.2-2.8-1.2c-5.6,0-11.2,0-16.4,0c-1.6,0-3.2,1.6-3.6,3.2c-4.8,17.6-8.4,34.4-12.4,50.9 c-0.4,1.6-2,3.2-3.6,3.2c-3.6,0-7.2,0-10.8,0c-1.2,0-2.4-1.2-2-2.8c3.6-15.2,6.8-30.4,10.4-46.1c0.4-2,0.8-4.4,2-6.4 c1.2-2.4,2.4-4.4,4.4-6C148.2,166.3,151.4,164.7,154.6,164.3 M110.9,164.3c0.4,0,1.2,0,1.6,0c5.2,0,10.4,0,15.6,0 c2,0,3.6,1.6,3.6,3.6c0,0.4-0.4,1.2-0.4,1.6c-1.6,6.8-3.2,13.6-4.4,20c-0.8,4-3.2,7.6-6,10c-4.4,3.6-9.6,6.4-15.2,8 c-4.4,1.2-9.2,2.4-13.6,3.2c-0.4,0-0.8,0.4-1.2,0.4c-0.4,0.4,0,0.8,0.4,0.8c1.2,0.4,2.4,0.4,4,0.4c4,0.8,8,2,11.6,4 c2,1.2,4,2.4,5.6,4.4c2.8,3.2,4.4,8,4,12.4c-1.2,8-3.2,16-5.2,24c-0.4,2-2,3.6-4,4.4c-1.2,0.4-2.4,0.4-3.6,0.4c-4.8,0-9.6,0-14,0 c-2,0-4-2-3.6-4c1.2-5.2,2.4-10.4,3.6-15.6c0.4-2.8,1.2-6,0.8-8.8c-0.4-2.8-1.2-5.6-3.2-7.2c-2.4-2-5.2-3.6-8.4-4.8 c-2.8-0.8-6-1.2-8.8-2.4c-1.2-0.4-2.4-1.2-3.2-2.4c-1.6-2.4-1.6-5.6-0.4-8c0.8-1.2,2-2,3.2-2.8c2.4-1.2,5.2-1.6,7.6-2 c5.2-0.8,10.4-1.6,14.8-3.6c3.2-1.6,6-3.6,8-6.4c0.8-0.8,1.2-2,1.6-3.2c1.6-7.6,3.2-15.2,5.2-22.8 C106.9,166.7,108.9,164.7,110.9,164.3 M50.9,164.3c0.8-0.4,2,0,2.8,0c4.8,0,9.6,0,14.4,0c2,0,3.6,2,3.2,4c-1.6,8-3.6,16-5.2,24 c-0.8,2.8-3.2,4.4-6,4.4c-4.8,0-10,0-14.8,0c-1.2,0-2.8-0.4-3.6-1.6c-0.4-0.8-0.4-2-0.4-3.2c1.6-7.6,3.2-14.8,5.2-22.4 c0-0.8,0.4-1.6,0.8-2C47.7,165.9,49.3,164.7,50.9,164.3"></path> <path style="fill:#FFFFFF;" d="M372,239.6c5.2,0,10.4,0,15.6,0c-0.4,1.2-0.4,2.4-0.8,3.6c-4,0-7.6,0-11.6,0c-0.4,2-0.8,4-1.2,5.6 c3.6,0,7.2,0,10.8,0c-0.4,1.2-0.4,2.4-0.8,3.6c-3.6,0-7.2,0-11.2,0c-0.4,2-0.8,4-1.2,6c4,0,8,0,11.6,0c-0.4,1.2-0.4,2.4-0.8,3.6 c-5.2,0-10.8,0-16,0C368.8,254.8,370.4,247.2,372,239.6 M282.7,262.4c1.6-7.6,3.2-15.2,4.4-22.8c1.6,0,2.8,0,4.4,0 c1.6,6,2.8,11.6,4.4,17.6c3.6-6,7.6-11.6,11.2-17.6c1.6,0,2.8,0,4.4,0c-1.6,7.6-3.2,15.2-4.4,22.8c-1.2,0-2.8,0-4,0 c1.2-5.2,2-10.8,3.2-16c-3.2,5.2-6.4,10.8-9.6,16c-1.2,0-2.4,0-3.6,0c-1.2-5.2-2-10.8-3.2-16c-1.2,5.2-2,10.8-3.2,16 C285.5,262.4,284.3,262.4,282.7,262.4 M199.8,262.4c4.8-7.6,9.6-15.2,14.4-22.8c1.6,0,3.2,0,4.4,0c1.6,7.6,3.6,15.2,5.2,22.8 c-1.6,0-2.8,0-4.4,0c-0.4-2-0.8-4-1.2-6.4c-2.4,0-5.2,0-7.6,0c0.8-1.2,1.6-2.4,2-3.6c1.6,0,3.2,0,4.8,0c-0.8-2.8-1.2-5.6-2-8.4 c-1.2,1.6-2,3.6-3.2,5.2c-2.8,4.4-5.2,8.8-8,13.2C203,262.4,201.4,262.4,199.8,262.4 M449.3,240.8c4.4-2,9.6-1.6,14.4-0.4 c-0.4,1.2-0.4,2.4-0.8,4c-3.6-1.2-7.2-1.6-10.8-0.8c-1.6,0.4-2.8,1.6-2.8,3.6c0,0.8,0.4,1.6,1.2,2c2.4,0.4,4.8,0,7.2,0.4 c1.2,0.4,2.4,0.8,3.2,2c0.8,0.8,0.8,2.4,0.8,3.6c-0.4,2-0.8,4-2.4,5.2c-1.6,1.6-3.6,2.4-6,2.8c-3.6,0.4-6.8,0-10.4-0.8 c0.4-1.2,0.4-2.4,0.8-4c2.4,0.8,5.2,1.2,8,1.2c1.2,0,2.4,0,3.6-0.8c1.2-0.8,2-2,2-3.6c0-0.8-0.4-1.6-1.2-1.6c-2.4-0.4-5.2,0-7.6-0.4 c-1.6-0.4-2.8-1.2-3.2-2.8C444.5,246.4,446.1,242.4,449.3,240.8 M136.1,239.6c3.2-0.4,6.8-0.4,10,0.8c-0.4,1.2-0.4,2.4-0.8,4 c-2.8-1.2-6-1.6-9.2-0.8c-1.6,0.4-3.2,1.2-4.4,2.4c-2,2-2.4,5.2-2.4,8c0,1.6,0.8,3.6,2.4,4.4c2,1.2,4.8,1.2,6.8,0.8 c0.4-2.4,0.8-4.4,1.2-6.8c1.6,0,2.8,0,4.4,0c-0.8,3.2-1.2,6.4-2,9.6c-4,1.2-8.4,1.6-12.4,0.4c-3.2-0.8-4.8-4-4.8-7.2 c0-3.6,0.8-7.6,3.2-10.4C130.1,241.6,132.9,240,136.1,239.6 M47.3,203.9c2.8-0.4,6,0.4,8,2.4c1.6,1.6,2.8,4,2.8,6.4 c0,2.8-1.2,5.6-3.2,7.6c-1.2,1.2-3.2,2-5.2,2.4c-3.6,0.4-7.6-1.2-9.2-4.4c-1.2-2-1.6-4.4-1.2-6.8C40,207.5,43.2,204.7,47.3,203.9"></path> </svg> 