<?xml version="1.0" encoding="UTF-8"?> <!-- Generator: Adobe Illustrator 24.3.0, SVG Export Plug-In . SVG Version: 6.00 Build 0) --> <svg xmlns="http://www.w3.org/2000/svg" xmlns:xlink="http://www.w3.org/1999/xlink" version="1.1" id="Layer_1" x="0px" y="0px" viewBox="0 0 500 500" style="enable-background:new 0 0 500 500;" xml:space="preserve"> <g> <path style="fill:#FFFFFF;" d="M248.6,57.3c-13,0-23-10.7-23-23c0-13,10.7-23,23-23c13,0,23,10.7,23,23 C271.6,47.3,260.8,57.3,248.6,57.3z M248.6,23.5c-6.1,0-10.7,4.6-10.7,10.7S242.4,45,248.6,45c6.1,0,10.7-4.6,10.7-10.7 S254.7,23.5,248.6,23.5z"></path> <g> <rect x="443.5" y="242.2" style="fill:#FFFFFF;" width="31.5" height="31.5"></rect> <path style="fill:#FFFFFF;" d="M475.7,274.5H442v-33.8h33.8V274.5z M444.3,272.9h29.9V243h-29.9V272.9z"></path> </g> <path style="fill:#FFFFFF;" d="M466.5,230.7h-13.8c0-105.1-86-191.1-191.1-191.1v-13C375.2,26.6,466.5,117.9,466.5,230.7z"></path> </g> <g> <path style="fill:#FFFFFF;" d="M242.4,477.8c-13,0-23-10.7-23-23c0-13,10.7-23,23-23c13,0,23,10.7,23,23 C266.2,467.9,255.5,477.8,242.4,477.8z M242.4,444.1c-6.1,0-10.7,4.6-10.7,10.7s4.6,10.7,10.7,10.7c6.1,0,10.7-4.6,10.7-10.7 C253.9,448.7,248.6,444.1,242.4,444.1z"></path> <g> <rect x="16.3" y="215.8" style="fill:#FFFFFF;" width="31.5" height="31.5"></rect> <path style="fill:#FFFFFF;" d="M49,248.4H15.3v-33.8H49V248.4z M16.8,246.1h29.9v-29.9H16.8V246.1z"></path> </g> <path style="fill:#FFFFFF;" d="M228.6,462.5c-112.8,0-204.1-91.3-204.1-204.1h13.8c0,105.1,86,191.1,191.1,191.1v13H228.6z"></path> </g> <g> <g> <path style="fill:#FFFFFF;" d="M419.7,211.5L419.7,211.5c-52.2,17.7-80.6-71.4-133.5-51.4h-0.8c-3.8,30.7-15.3,62.9-33.8,92.9h0.8 c61.4-16.9,72.1,65.2,133.5,51.4l0,0h0.8c18.4-29.9,29.9-61.4,33.8-92.9C420.5,211.5,419.7,211.5,419.7,211.5z M402.8,214.6 c-0.8,6.1-2.3,12.3-3.8,18.4c-5.4,0-10.7-1.5-15.3-3.8c1.5-6.1,3.1-12.3,3.8-19.2C392.8,213.1,397.5,213.8,402.8,214.6z M363.7,240.7c2.3-6.1,3.8-12.3,5.4-18.4c4.6,3.1,9.2,6.1,13.8,7.7c-1.5,6.1-3.8,12.3-5.4,18.4 C372.9,246.1,368.3,243.8,363.7,240.7z M337.6,219.2c2.3-6.1,3.8-12.3,5.4-19.2c4.6,3.8,8.4,7.7,13,11.5c-1.5,6.1-3.1,13-5.4,19.2 C346,226.1,342.2,222.3,337.6,219.2z M310.7,200c1.5-6.1,3.1-12.3,4.6-19.2c4.6,2.3,9.2,4.6,13.8,7.7c-1.5,6.1-3.1,13-4.6,19.2 C319.9,204.6,315.3,202.3,310.7,200z M304.6,218.4c-4.6-2.3-10-3.8-15.3-3.8c2.3-6.1,4.6-12.3,6.1-18.4c5.4,0.8,10.7,1.5,15.3,3.8 C308.4,206.2,306.9,212.3,304.6,218.4z M373.7,202.3c-0.8,6.1-2.3,13-3.8,19.2c-4.6-3.1-9.2-6.9-13-10.7c1.5-6.1,3.1-13,3.8-19.2 C364.5,195.4,369.1,199.3,373.7,202.3z M346.8,180.1c-0.8,6.9-2.3,13-3.8,19.2c-4.6-3.8-9.2-7.7-13.8-10.7 c1.5-6.1,2.3-13,3.1-19.2C337.6,172.4,342.2,176.2,346.8,180.1z M318.4,161.7c-0.8,6.1-1.5,13-3.1,19.2c-4.6-2.3-10-3.1-15.3-3.8 c1.5-6.1,2.3-12.3,3.1-18.4C308.4,158.6,313,159.3,318.4,161.7z M283.1,179.3c6.1-1.5,11.5-2.3,16.9-2.3 c-1.5,6.1-3.1,12.3-4.6,18.4c-5.4-0.8-10.7,0-16.9,2.3C280,191.6,281.6,185.4,283.1,179.3z M271.6,216.1 c6.1-1.5,12.3-2.3,17.7-1.5c-2.3,6.1-4.6,12.3-7.7,17.7c-5.4-0.8-11.5,0-18.4,2.3C266.2,228.4,268.5,222.3,271.6,216.1z M272.4,249.9c3.1-5.4,6.1-11.5,9.2-17.7c5.4,0.8,10.7,1.5,15.3,3.8c-3.1,6.1-5.4,11.5-9.2,16.9 C283.1,251.4,277.7,249.9,272.4,249.9z M314.6,271.4c-3.8-3.8-8.4-6.9-12.3-10c3.1-5.4,6.1-11.5,9.2-16.9 c-4.6-3.1-9.2-6.1-13.8-7.7c3.1-6.1,5.4-11.5,7.7-17.7c4.6,2.3,9.2,4.6,13.8,8.4c2.3-6.1,4.6-12.3,6.1-18.4 c4.6,3.1,9.2,6.9,13,10.7c-1.5,6.1-3.8,12.3-6.1,18.4c-4.6-3.8-8.4-7.7-13-10.7c-2.3,6.1-4.6,12.3-7.7,17.7 c4.6,3.1,8.4,6.9,13,10.7C320.7,260.7,317.6,266,314.6,271.4z M338.4,292.9c-4.6-3.1-8.4-6.9-12.3-10c3.1-5.4,6.9-10.7,9.2-16.1 c-3.8-3.8-8.4-7.7-12.3-10.7c3.1-5.4,5.4-11.5,7.7-17.7c4.6,3.8,8.4,7.7,12.3,11.5c2.3-6.1,4.6-12.3,6.9-18.4 c4.6,3.8,8.4,7.7,13,10.7c-2.3,6.1-4.6,12.3-6.9,17.7c-4.6-3.1-8.4-6.9-13-10l0,0c-2.3,6.1-5.4,11.5-8.4,17.7l0,0 c3.8,3.8,8.4,6.9,13,10C345.3,281.4,342.2,287.5,338.4,292.9z M368.3,305.2c-5.4-0.8-10.7-2.3-15.3-4.6c3.8-5.4,6.9-10.7,10-16.9 c-4.6-2.3-9.2-4.6-13.8-7.7c3.1-5.4,6.1-11.5,8.4-17.7c4.6,3.1,9.2,6.1,13.8,7.7c2.3-6.1,4.6-11.5,6.9-17.7 c4.6,2.3,10,3.1,15.3,3.1c-2.3,6.1-4.6,12.3-6.9,17.7c-5.4,0-10.7-1.5-15.3-3.8l0,0c-2.3,6.1-5.4,11.5-8.4,17.7l0,0 c4.6,2.3,10,3.1,15.3,3.8C375.2,293.7,371.4,299,368.3,305.2z M396.7,285.2c-6.9,2.3-13,2.3-18.4,2.3c3.1-6.1,6.1-11.5,8.4-17.7 c5.4,0,11.5-0.8,18.4-2.3C402.1,273.7,399.8,279.8,396.7,285.2z M411.3,249.1c-6.1,2.3-12.3,3.1-17.7,2.3 c2.3-6.1,3.8-12.3,5.4-18.4c5.4,0,10.7-0.8,16.9-2.3C415.1,236.9,413.6,243,411.3,249.1z"></path> <rect x="154.2" y="237.4" transform="matrix(0.3411 -0.94 0.94 0.3411 -59.8612 396.4007)" style="fill:#FFFFFF;" width="197.2" height="6.9"></rect> </g> <g> <path style="fill:#FFFFFF;" d="M65.9,211.5c3.8,31.5,15.3,62.9,33.8,92.9h0.8l0,0c60.6,13.8,71.4-67.5,133.5-51.4h0.8 c-18.4-29.9-29.9-61.4-33.8-92.9h-0.8c-53-20-81.3,69.1-133.5,51.4l0,0C66.7,211.5,65.9,211.5,65.9,211.5z M98.9,210.8 c0.8,6.1,2.3,13,3.8,19.2c-4.6,2.3-10,3.1-15.3,3.8c-1.5-6.1-3.1-12.3-3.8-18.4C88.9,213.8,93.5,213.1,98.9,210.8z M108.9,248.4 c-2.3-6.1-3.8-12.3-5.4-18.4c4.6-2.3,9.2-4.6,13.8-7.7c1.5,6.1,3.8,12.3,5.4,18.4C118.1,243.8,113.5,246.1,108.9,248.4z M135.8,230c-2.3-6.1-3.8-12.3-5.4-19.2c4.6-3.8,8.4-7.7,13-11.5c1.5,6.1,3.1,13,5.4,19.2C144.2,222.3,140.4,226.1,135.8,230z M161.8,207.7c-1.5-6.1-3.1-12.3-4.6-19.2c4.6-3.1,9.2-6.1,13.8-7.7c1.5,6.1,3.1,13,4.6,19.2C171.1,202.3,166.5,204.6,161.8,207.7 z M175.7,200c4.6-2.3,10-3.8,15.3-3.8c1.5,6.1,3.8,12.3,6.1,18.4c-5.4,0.8-10.7,1.5-15.3,3.8C179.5,212.3,178,206.2,175.7,200z M126.5,191.6c0.8,6.9,2.3,13,3.8,19.2c-4.6,3.8-9.2,7.7-13,10.7c-1.5-6.1-3.1-13-3.8-19.2C117.3,199.3,121.9,195.4,126.5,191.6z M154.2,169.3c0.8,6.9,2.3,13,3.1,19.2c-4.6,3.1-9.2,6.9-13.8,10.7c-1.5-6.1-2.3-13-3.8-19.2C144.2,176.2,148.8,172.4,154.2,169.3 z M183.3,158.6c0.8,6.1,1.5,12.3,3.1,18.4c-5.4,0-10.7,1.5-15.3,3.8c-1.5-6.1-2.3-13-3.1-19.2C173.4,159.3,178,158.6,183.3,158.6z M208.7,197.7c-6.1-1.5-11.5-2.3-16.9-2.3c-1.5-6.1-3.1-12.3-4.6-18.4c5.4,0,10.7,0.8,16.9,2.3 C204.8,185.4,206.4,191.6,208.7,197.7z M223.2,234.6c-6.9-1.5-12.3-2.3-18.4-2.3c-3.1-6.1-5.4-12.3-7.7-17.7 c5.4-0.8,11.5,0,17.7,1.5C217.9,222.3,220.2,228.4,223.2,234.6z M198.7,253.7c-3.1-5.4-6.1-11.5-9.2-16.9c4.6-2.3,10-3.8,15.3-3.8 c3.1,6.1,6.1,11.5,9.2,17.7C208.7,249.9,203.3,251.4,198.7,253.7z M163.4,254.5c3.8-3.8,8.4-6.9,13-10.7 c-3.1-6.1-5.4-11.5-7.7-17.7c-4.6,3.1-8.4,6.9-13,10.7c-2.3-6.1-4.6-12.3-6.1-18.4c4.6-3.8,8.4-7.7,13-10.7 c1.5,6.1,3.8,12.3,6.1,18.4c4.6-3.1,9.2-6.1,13.8-8.4c2.3,6.1,4.6,12.3,7.7,17.7c-4.6,2.3-9.2,4.6-13.8,7.7 c3.1,6.1,6.1,11.5,9.2,16.9c-4.6,3.1-8.4,6.9-12.3,10C168.8,266,165.7,260.7,163.4,254.5z M138.1,276c4.6-3.1,8.4-6.9,13-10l0,0 c-3.1-5.4-5.4-11.5-8.4-17.7l0,0c-3.8,3.8-8.4,6.9-13,10c-2.3-6.1-4.6-11.5-6.9-17.7c4.6-3.1,9.2-6.9,13-10.7 c2.3,6.1,4.6,12.3,6.9,18.4c3.8-3.8,8.4-7.7,12.3-11.5c2.3,6.1,5.4,11.5,7.7,17.7c-3.8,3.8-8.4,7.7-12.3,10.7 c3.1,5.4,6.1,11.5,9.2,16.1c-3.8,3.8-8.4,6.9-12.3,10C144.2,287.5,141.1,281.4,138.1,276z M108.9,287.5c5.4,0,10.7-1.5,15.3-3.8 l0,0c-3.1-5.4-6.1-11.5-8.4-17.7l0,0c-4.6,2.3-10,3.1-15.3,3.8c-2.3-6.1-4.6-12.3-6.9-17.7c5.4,0,10.7-1.5,15.3-3.1 c2.3,6.1,4.6,12.3,6.9,17.7c4.6-2.3,9.2-4.6,13.8-7.7c2.3,6.1,5.4,11.5,8.4,17.7c-4.6,3.1-9.2,6.1-13.8,7.7 c3.1,5.4,6.1,11.5,10,16.9c-4.6,2.3-10,3.8-15.3,4.6C115,299,112,293.7,108.9,287.5z M82,267.6c6.1,2.3,12.3,3.1,18.4,2.3 c2.3,6.1,5.4,12.3,8.4,17.7c-5.4,0-11.5,0-18.4-2.3C87.4,279.8,84.3,273.7,82,267.6z M70.5,230.7c6.1,2.3,11.5,3.1,16.9,2.3 c1.5,6.1,3.1,12.3,5.4,18.4c-5.4,0-11.5-0.8-17.7-2.3C73.6,243,71.3,236.9,70.5,230.7z"></path> <rect x="230.2" y="142.5" transform="matrix(0.94 -0.3411 0.3411 0.94 -68.2458 94.1655)" style="fill:#FFFFFF;" width="6.9" height="197.2"></rect> </g> </g> </svg> 