<?xml version="1.0" encoding="UTF-8"?> <!-- Generator: Adobe Illustrator 24.3.0, SVG Export Plug-In . SVG Version: 6.00 Build 0) --> <svg xmlns="http://www.w3.org/2000/svg" xmlns:xlink="http://www.w3.org/1999/xlink" version="1.1" id="Layer_1" x="0px" y="0px" viewBox="0 0 500 500" style="enable-background:new 0 0 500 500;" xml:space="preserve"> <path style="fill:#FFFFFF;" d="M244.9,43.3c-114.5,0-206.8,93.3-206.8,206.8s93.3,206.8,206.8,206.8s206.8-93.3,206.8-206.8 S359.5,43.3,244.9,43.3z M253,253.1c8.1-6.1,32.4-21.3,65.9-27.4c0,33.5-7.1,157.1-89.2,215.9c-22.3-2-43.6-7.1-62.8-16.2 C256.1,371.7,254.1,275.4,253,253.1z M244.9,250.1L244.9,250.1L244.9,250.1L244.9,250.1z M243.9,240.9c-9.1-4.1-33.5-17.2-55.8-41.6 c29.4-16.2,139.9-71,231.1-30.4c9.1,19.3,14.2,39.5,17.2,60.8C345.3,179.1,262.2,228.8,243.9,240.9z M341.2,83.8 c-107.4-7.1-169.3,26.4-191.6,41.6c-3-12.2-4.1-26.4-3-40.5c28.4-17.2,61.8-27.4,98.3-27.4C280.4,57.5,312.9,67.6,341.2,83.8z M131.4,95c2,104.4,86.2,151,106.4,160.2c1,10.1,2,39.5-9.1,71c-27.4-16.2-131.8-84.1-142.9-184.5C99,123.3,114.2,107.1,131.4,95z M53.4,253.1C101,348.4,159.8,383.9,184.1,395c-9.1,8.1-20.3,15.2-32.4,22.3C92.9,384.9,54.4,323,53.4,253.1z M343.3,414.3 c58.8-89.2,60.8-157.1,58.8-183.5c11.2,4.1,23.3,9.1,34.5,17.2c0,1,0,1,0,2C436.5,320,399,380.8,343.3,414.3z"></path> </svg> 