<?xml version="1.0" encoding="UTF-8"?> <!-- Generator: Adobe Illustrator 24.3.0, SVG Export Plug-In . SVG Version: 6.00 Build 0) --> <svg xmlns="http://www.w3.org/2000/svg" xmlns:xlink="http://www.w3.org/1999/xlink" version="1.1" id="Layer_1" x="0px" y="0px" viewBox="0 0 500 500" style="enable-background:new 0 0 500 500;" xml:space="preserve"> <g> <g> <path style="fill:#FFFFFF;" d="M37.7,317.9c0,5.9-1.7,9.3-4.2,11.8c-1.7,2.5-5.1,2.5-8.5,2.5c-4.2,0-7.6-1.7-10.2-5.1 c-2.5-3.4-3.4-6.8-3.4-10.2c0-4.2,0.8-8.5,3.4-11.8c1.7-1.7,2.5-2.5,4.2-3.4c1.7-0.8,3.4-1.7,5.9-1.7c2.5,0,4.2,0.8,6.8,0.8 c1.7,0.8,3.4,1.7,4.2,2.5c0.8,0.8,0.8,0.8,0.8,1.7c0,0.8,0,0.8-0.8,1.7c-0.8,0.8-0.8,0.8-1.7,0.8s-0.8,0-1.7-0.8 c-1.7-0.8-2.5-1.7-3.4-2.5c-1.7-0.8-2.5-0.8-4.2-0.8c-3.4,0-5.9,1.7-7.6,4.2c-1.7,2.5-2.5,5.1-2.5,8.5c0,4.2,1.7,7.6,3.4,10.2 c1.7,1.7,3.4,2.5,5.9,2.5c1.7,0,3.4-0.8,4.2-0.8c3.4-1.7,5.1-4.2,5.1-8.5v-1.7h-5.1c-0.8,0-1.7-0.8-1.7-1.7c0-1.7,0.8-1.7,1.7-1.7 h6.8C36.8,314.5,37.7,316.2,37.7,317.9L37.7,317.9z"></path> <path style="fill:#FFFFFF;" d="M486.2,317.9c0,5.9-1.7,9.3-4.2,11.8c-1.7,1.7-4.2,2.5-8.5,2.5c-4.2,0-7.6-1.7-10.2-5.1 s-3.4-6.8-3.4-10.2c0-4.2,0.8-8.5,3.4-11.8c1.7-1.7,2.5-2.5,4.2-3.4c1.7-0.8,3.4-1.7,5.9-1.7c2.5,0,4.2,0.8,6.8,0.8 c1.7,0.8,3.4,1.7,4.2,2.5c0.8,0.8,0.8,0.8,0.8,1.7c0,0.8,0,0.8-0.8,1.7c-0.8,0.8-0.8,0.8-1.7,0.8s-0.8,0-1.7-0.8 c-1.7-0.8-2.5-1.7-3.4-2.5c-1.7-0.8-2.5-0.8-4.2-0.8c-3.4,0-5.9,1.7-7.6,4.2c-1.7,2.5-2.5,5.1-2.5,8.5c0,4.2,1.7,7.6,3.4,10.2 c1.7,1.7,3.4,2.5,5.9,2.5c1.7,0,3.4-0.8,4.2-0.8c3.4-1.7,5.1-4.2,5.1-8.5v-1.7h-5.9c-0.8,0-1.7-0.8-1.7-1.7c0-1.7,0.8-1.7,1.7-1.7 h6.8c1.7,0,2.5,0.8,2.5,2.5L486.2,317.9L486.2,317.9z"></path> <path style="fill:#FFFFFF;" d="M228.1,330.6c0,1.7-0.8,2.5-1.7,2.5s-1.7-0.8-1.7-1.7l-3.4-25.4l-7.6,25.4 c-0.8,0.8-1.7,0.8-2.5,0.8c-0.8,0-1.7-0.8-1.7-1.7l-7.6-25.4l-3.4,25.4c0,1.7-0.8,1.7-2.5,1.7c-0.8,0-1.7-0.8-1.7-2.5 c0-0.8,0-0.8,0-0.8l4.2-26.2c0-0.8,0.8-1.7,0.8-1.7l1.7-0.8c0.8,0,1.7,0,1.7,0.8c0.8,0.8,0.8,0.8,0.8,1.7l6.8,22.9l0,0l6.8-22.9 c0-0.8,0.8-0.8,0.8-1.7c0.8-0.8,0.8-0.8,1.7-0.8s1.7,0,1.7,0.8c0.8,0.8,0.8,0.8,0.8,1.7L228.1,330.6z"></path> <path style="fill:#FFFFFF;" d="M299.2,330.6c0,1.7-0.8,2.5-1.7,2.5c-1.7,0-1.7-0.8-1.7-1.7v-27.9c0-1.7,0.8-1.7,1.7-1.7 c0.8,0,1.7,0.8,1.7,1.7V330.6z"></path> <path style="fill:#FFFFFF;" d="M392.3,330.6c0,1.7-0.8,1.7-1.7,1.7c-0.8,0-1.7-0.8-2.5-1.7l-16.9-23.7v22.9c0,1.7-0.8,1.7-1.7,1.7 c-0.8,0-1.7,0-1.7-0.8v-27.9c0-1.7,0.8-1.7,1.7-1.7c0.8,0,1.7,0.8,2.5,1.7l16.1,23.7l0,0v-22.9c0-0.8,0-0.8,0.8-1.7 c0.8-0.8,0.8-0.8,1.7-0.8c1.7,0,1.7,0.8,1.7,1.7V330.6L392.3,330.6z"></path> <path style="fill:#FFFFFF;" d="M129.1,331.5c0,0.8-0.8,1.7-1.7,1.7c-0.8,0-0.8,0-1.7-0.8c-0.8,0-0.8,0-0.8-0.8l-1.7-5.9h-14.4 l-2.5,5.9c-0.8,0.8-0.8,1.7-1.7,1.7c-0.8,0-1.7-0.8-1.7-1.7v-0.8v-0.8l10.2-27.1c0.8-0.8,0.8-1.7,0.8-1.7s0.8-0.8,1.7-0.8 c0.8,0,0.8,0,1.7,0.8c0.8,0.8,0.8,0.8,0.8,1.7l10.2,27.1C129.1,330.6,129.1,331.5,129.1,331.5 M122.3,322.1l-5.9-16.9l0,0 l-6.8,16.9H122.3z"></path> </g> <g> <g> <circle style="fill:#FFFFFF;" cx="409.2" cy="196.9" r="12.7"></circle> <path style="fill:#FFFFFF;" d="M487.1,196.9c0,6.8-5.9,12.7-12.7,12.7s-12.7-5.9-12.7-12.7s5.9-12.7,12.7-12.7 C481.1,184.2,487.1,190.1,487.1,196.9z"></path> <circle style="fill:#FFFFFF;" cx="409.2" cy="257.8" r="12.7"></circle> <path style="fill:#FFFFFF;" d="M487.1,257.8c0,6.8-5.9,12.7-12.7,12.7s-12.7-5.9-12.7-12.7c0-6.8,5.9-12.7,12.7-12.7 C481.1,245.1,487.1,251.1,487.1,257.8z"></path> <path style="fill:#FFFFFF;" d="M454.9,227.4c0,6.8-5.9,12.7-12.7,12.7s-12.7-5.9-12.7-12.7s5.9-12.7,12.7-12.7 S454.9,220.6,454.9,227.4z"></path> </g> <g> <path style="fill:#FFFFFF;" d="M376.2,267.1l-34.7-81.2l0,0c-0.8-0.8-0.8-1.7-1.7-1.7l0,0H333h-0.8h-6.8l0,0 c-0.8,0-1.7,0.8-1.7,1.7l0,0L289,267.1v0.8c0,0.8,0.8,1.7,1.7,1.7h15.2c0.8,0,1.7-0.8,1.7-1.7l0,0l7.6-18.6h36.4l7.6,18.6l0,0 c0.8,0.8,0.8,1.7,1.7,1.7h15.2c0.8,0,1.7-0.8,1.7-1.7C377,268,377,267.1,376.2,267.1z M319.5,234.1l12.7-33l12.7,33H319.5z"></path> <path style="fill:#FFFFFF;" d="M130.8,210.4c0.8-3.4,2.5-4.2,2.5-4.2s1.7-3.4,5.9-5.1c4.2-1.7,7.6-1.7,7.6-1.7h30.5 c0.8,0,1.7-0.8,1.7-1.7v-11c0-0.8-0.8-1.7-1.7-1.7h-33.9l0,0c-18.6,0-33.9,16.9-33.9,36.4v5.1v0.8v0.8v0.8v5.1 c0,20.3,15.2,36.4,33.9,36.4l0,0h33.9c0.8,0,1.7-0.8,1.7-1.7V257c0-0.8-0.8-1.7-1.7-1.7h-30.5c0,0-4.2,0-7.6-1.7 c-4.2-1.7-5.9-5.1-5.9-5.1s-1.7-1.7-2.5-4.2c-0.8-3.4-0.8-7.6-0.8-7.6V235h48.2c0.8,0,1.7-0.8,1.7-1.7v-11.8 c0-0.8-0.8-1.7-1.7-1.7h-48.2v-0.8C129.9,218,130.8,213.8,130.8,210.4z"></path> <path style="fill:#FFFFFF;" d="M236.6,268.8h27.9c0.8,0,1.7-0.8,1.7-1.7v-11c0-0.8-0.8-1.7-1.7-1.7h-25.4c0,0-3.4,0-6.8-1.7 c-3.4-1.7-5.1-5.1-5.1-5.1s-1.7-1.7-1.7-5.1c0-2.5,0-6.8,0-6.8v-8.5v-41.5l0,0c0-0.8-0.8-1.7-1.7-1.7h-14.4 c-0.8,0-1.7,0.8-1.7,1.7c0,0,0,0,0,0.8v40.6l0,0v5.9l0,0v8.5v0.8C208.6,257,221.3,268.8,236.6,268.8"></path> <path style="fill:#FFFFFF;" d="M85.9,267.1L85.9,267.1l-19.5-33l0,0l0,0c10.2-2.5,16.9-9.3,16.9-24.5 c0.8-20.3-13.5-24.5-30.5-25.4h-4.2H12.3c-0.8,0-1.7,0.8-1.7,1.7l0,0v81.2l0,0c0,0.8,0.8,1.7,1.7,1.7h14.4c0.8,0,1.7-0.8,1.7-1.7 v-31.3h20.3L67.3,268l0,0c0.8,0.8,1.7,1.7,2.5,1.7h15.2l0,0l0,0c0.8,0,1.7-0.8,1.7-1.7C85.9,268,85.9,267.1,85.9,267.1z M53.7,220.6l-4.2,0.8H28.4v-22h21.2h4.2c9.3,0,12.7,4.2,12.7,10.2C65.6,216.4,63.1,220.6,53.7,220.6z"></path> </g> </g> </g> </svg> 