<?xml version="1.0" encoding="UTF-8"?> <!-- Generator: Adobe Illustrator 24.3.0, SVG Export Plug-In . SVG Version: 6.00 Build 0) --> <svg xmlns="http://www.w3.org/2000/svg" xmlns:xlink="http://www.w3.org/1999/xlink" version="1.1" id="Layer_1" x="0px" y="0px" viewBox="0 0 500 500" style="enable-background:new 0 0 500 500;" xml:space="preserve"> <g> <path style="fill-rule:evenodd;clip-rule:evenodd;fill:#FFFFFF;" d="M252.3,140.2c21.2,6.1,37.2,8.3,37.2,8.3 c-9.1-9.1-17.4-18.2-24.3-27.3c12.1-17.4,22-29.6,22-29.6c-12.9,3-25.8,6.1-36.4,9.9c-10.6-15.2-15.9-25.8-15.9-25.8 c-3,11.4-4.5,22.7-5.3,33.4c-17.4,6.8-28.8,12.1-28.8,12.1c9.9,4.5,19.7,8.3,28.8,11.4c1.5,20.5,6.1,34.9,6.1,34.9 C240.2,159.2,246.3,149.3,252.3,140.2L252.3,140.2z"></path> <path style="fill-rule:evenodd;clip-rule:evenodd;fill:#FFFFFF;" d="M349.4,134.9c-3,4.5-7.6,7.6-12.1,9.9c-0.8-14.4-3-27.3-3-27.3 c-4.5,12.1-9.1,22.7-13.6,31.8c-15.9,2.3-31.1,0-31.1,0c8.3,9.9,15.2,15.9,20.5,19.7c-7.6,13.6-13.6,20.5-13.6,20.5 c11.4-2.3,19.7-6.8,26.5-11.4c3,2.3,5.3,3.8,7.6,7.6c0,0,4.5-6.1,6.1-21.2C347.1,150.1,349.4,134.9,349.4,134.9L349.4,134.9z"></path> <path style="fill-rule:evenodd;clip-rule:evenodd;fill:#FFFFFF;" d="M344.1,94.7c-5.3-11.4-12.1-19.7-19.7-25.8 C317.5,55.3,310,48.4,310,48.4c0.8,3,0,6.8-0.8,10.6c-16.7-8.3-31.8-9.1-31.8-9.1c9.9,6.1,18.2,14.4,25.8,22 c-6.8,10.6-15.9,20.5-15.9,20.5c12.1-2.3,21.2-3.8,28.8-3.8c11.4,15.9,18.2,29.6,18.2,29.6c0-10.6-0.8-20.5-3-28.8 C341,90.9,344.1,94.7,344.1,94.7L344.1,94.7z"></path> <path style="fill-rule:evenodd;clip-rule:evenodd;fill:#FFFFFF;" d="M277.4,50c-8.3-3.8-15.9-6.8-22.7-9.1 C263.7,33.3,272,31,272,31c-14.4-0.8-27.3,2.3-37.9,6.1c-15.9-1.5-25.8,1.5-25.8,1.5c2.3,1.5,4.5,5.3,6.1,9.1 c-13.6,9.1-19.7,18.2-19.7,18.2c8.3-3.8,16.7-6.8,25-9.1c0.8,1.5,1.5,3,3,5.3c5.3,8.3,11.4,14.4,11.4,14.4 c2.3-10.6,6.1-18.2,9.9-25C262.9,49.2,277.4,50,277.4,50L277.4,50z"></path> <path style="fill-rule:evenodd;clip-rule:evenodd;fill:#FFFFFF;" d="M176.5,81.8c5.3-4.5,11.4-9.9,18.2-15.2c0,0-6.8,0-13.6,1.5 c4.5-11.4,9.9-18.2,9.9-18.2s-30.3,21.2-36.4,60.7c0,0,2.3-6.8,11.4-17.4c3.8,7.6,7.6,12.9,7.6,12.9 C173.5,96.2,174.2,88.6,176.5,81.8L176.5,81.8z"></path> <path style="fill-rule:evenodd;clip-rule:evenodd;fill:#FFFFFF;" d="M200.8,122c-10.6,0-19,1.5-25,2.3c-2.3-10.6-2.3-19-2.3-19 c-5.3,7.6-8.3,15.9-10.6,22.7c-7.6,3-9.1,5.3-9.1,5.3c1.5,3.8,3.8,7.6,6.1,11.4c-0.8,16.7,4.5,28.1,4.5,28.1 c1.5-6.1,3.8-11.4,6.8-16.7c9.1,6.8,18.2,12.1,18.2,12.1c-4.5-7.6-7.6-15.9-9.9-24.3C189.4,131.1,200.8,122,200.8,122L200.8,122z"></path> <path style="fill-rule:evenodd;clip-rule:evenodd;fill:#FFFFFF;" d="M252.3,208.4c0,0-9.1-3.8-21.2-10.6c0.8-7.6,1.5-17.4,3.8-29.6 c0,0-9.9,9.9-22.7,17.4c-7.6-5.3-15.2-11.4-23.5-18.2c0,0,3.8,11.4,10.6,24.3c-6.8,2.3-13.6,3.8-20.5,2.3c0,0,7.6,9.9,31.1,13.6 c6.8,7.6,14.4,14.4,23.5,16.7c0,0-3-3-3.8-14.4C237.2,209.2,244.7,209.2,252.3,208.4L252.3,208.4z"></path> <path style="fill-rule:evenodd;clip-rule:evenodd;fill:#FFFFFF;" d="M295.6,207.7c2.3-9.1,0.8-18.2,0.8-18.2 c-6.1,8.3-12.1,15.2-17.4,19.7c-14.4,0.8-25.8-0.8-25.8-0.8s6.8,6.8,13.6,10.6c-9.9,6.1-16.7,6.8-16.7,6.8 c43.2,0.8,69.8-27.3,69.8-27.3C312.2,203.1,303.9,206.2,295.6,207.7L295.6,207.7z"></path> <path style="fill-rule:evenodd;clip-rule:evenodd;fill:#FFFFFF;" d="M204.6,322.9c10.6-12.9,27.3-20.5,44.7-20.5 c18.2,0,34.9,8.3,46.3,21.2l3-3c-11.4-13.6-29.6-22.7-48.5-22.7s-36.4,8.3-47.8,22L204.6,322.9L204.6,322.9z"></path> <polygon style="fill-rule:evenodd;clip-rule:evenodd;fill:#FFFFFF;" points="244.7,291.1 227.3,294.9 222.8,273.7 240.2,269.9 241,273.7 229.6,276.7 230.3,280.5 241,278.2 241.7,282.8 231.1,285 231.9,289.6 244,287.3 "></polygon> <polygon style="fill-rule:evenodd;clip-rule:evenodd;fill:#FFFFFF;" points="278.1,277.4 267.5,275.2 266.7,279.7 277.4,282 276.6,285.8 266,284.3 263.7,292.6 258.4,291.1 262.2,269.9 278.9,273.7 "></polygon> <path style="fill-rule:evenodd;clip-rule:evenodd;fill:#FFFFFF;" d="M303.1,313.8l-5.3-4.5l0.8-4.5l-9.1-6.1l-3,1.5l-6.1-3 l21.2-12.9l6.1,3.8L303.1,313.8L303.1,313.8L303.1,313.8z M301.6,290.3l-7.6,5.3l6.1,4.5L301.6,290.3L301.6,290.3z"></path> <path style="fill-rule:evenodd;clip-rule:evenodd;fill:#FFFFFF;" d="M206.8,304.7c-3.8,3-10.6,5.3-15.2,0l-6.8-9.1l4.5-3.8l6.8,9.1 c2.3,3,5.3,2.3,8.3,0.8c2.3-2.3,3.8-4.5,1.5-7.6l-6.8-9.1l4.5-3.8l6.8,9.1C214.4,295.6,212.1,301,206.8,304.7L206.8,304.7z"></path> <path style="fill-rule:evenodd;clip-rule:evenodd;fill:#FFFFFF;" d="M324.4,292.6c-19-19.7-44.7-31.8-74.3-31.8 s-56.1,12.9-75.1,32.6l-3-3c19.7-20.5,47-33.4,78.1-33.4c30.3,0,57.6,12.9,77.3,32.6L324.4,292.6L324.4,292.6z"></path> <path style="fill-rule:evenodd;clip-rule:evenodd;fill:#FFFFFF;" d="M345.6,379.1c-12.9,0-20.5-10.6-20.5-22.7 c0-12.1,9.1-21.2,21.2-21.2c13.6,0,21.2,10.6,21.2,22C366.8,370.7,357,379.1,345.6,379.1L345.6,379.1L345.6,379.1z M344.8,341.1 c-8.3,0-10.6,7.6-10.6,12.9c0,7.6,3,19,12.9,19c6.8,0,10.6-6.1,10.6-12.9C357.7,351.8,354.7,341.1,344.8,341.1L344.8,341.1z"></path> <path style="fill-rule:evenodd;clip-rule:evenodd;fill:#FFFFFF;" d="M266,372.2c0,2.3,0.8,3,4.5,3.8v1.5c-3.8,0-6.8-0.8-9.1-0.8 s-5.3,0-7.6,0.8V376c2.3-0.8,3-1.5,3-4.5v-31.8c0-1.5-0.8-3-3-3v-1.5h19c12.1,0,16.7,6.1,16.7,13.6c0,8.3-6.1,12.9-14.4,12.9 c-3,0-7.6-1.5-7.6-3c0-0.8,0.8-0.8,0.8-0.8c0.8,0,1.5,0,2.3,0c6.8,0,9.9-3.8,9.9-9.1c0-6.1-3.8-7.6-9.1-7.6l-3.8,0.8L266,372.2 L266,372.2L266,372.2z M266,372.2L266,372.2L266,372.2L266,372.2z"></path> <path style="fill-rule:evenodd;clip-rule:evenodd;fill:#FFFFFF;" d="M301.6,339.6c0-1.5-0.8-3-3-3v-1.5c3,0,5.3,0.8,7.6,0.8 s5.3,0,7.6-0.8v1.5c-2.3,0-3,0.8-3,3v34.1c0,1.5,0.8,3,3,3v1.5c-3,0-5.3-0.8-7.6-0.8s-5.3,0-7.6,0.8v-1.5c2.3,0,3-0.8,3-3V339.6 L301.6,339.6z"></path> <path style="fill-rule:evenodd;clip-rule:evenodd;fill:#FFFFFF;" d="M380.5,339.6c0-1.5-0.8-3-3-3v-1.5c3,0,5.3,0.8,7.6,0.8 c1.5,0,3.8,0,6.1-0.8l18.2,28.8l0,0v-23.5c0-3-2.3-3.8-3.8-3.8v-1.5c2.3,0,4.5,0.8,6.1,0.8c2.3,0,4.5,0,6.1-0.8v1.5 c-2.3,0-3,0.8-3,3v38.7h-6.8l-22-34.1l0,0v28.1c0,3,2.3,3.8,3.8,3.8v1.5c-2.3,0-4.5-0.8-6.1-0.8c-2.3,0-4.5,0-6.1,0.8V376 c2.3,0,3-0.8,3-3L380.5,339.6L380.5,339.6z"></path> <path style="fill-rule:evenodd;clip-rule:evenodd;fill:#FFFFFF;" d="M431.3,363.1c1.5,7.6,6.1,10.6,13.6,10.6 c3.8,0,9.9-1.5,9.9-6.1c0-3.8-3.8-5.3-7.6-6.1l-4.5-1.5c-6.8-2.3-13.6-4.5-13.6-12.9c0-10.6,9.9-13.6,19.7-13.6 c4.5,0,8.3,0.8,12.1,2.3c0,4.5,0,9.1,0.8,12.1h-1.5c-1.5-6.1-6.1-9.1-12.1-9.1c-3,0-9.1,0.8-9.1,6.1c0,3.8,3,4.5,6.1,5.3l6.8,2.3 c6.8,2.3,12.9,4.5,12.9,12.9c0,9.1-9.1,13.6-19.7,13.6c-4.5,0-9.9-0.8-14.4-2.3c0-5.3,0-9.9-0.8-13.6H431.3L431.3,363.1 L431.3,363.1z M431.3,363.1L431.3,363.1L431.3,363.1L431.3,363.1z"></path> <path style="fill-rule:evenodd;clip-rule:evenodd;fill:#FFFFFF;" d="M92.3,339.6c0-1.5-0.8-3-3-3v-1.5c3,0,5.3,0.8,7.6,0.8 c2.3,0,5.3,0,7.6-0.8v1.5c-2.3,0-3,0.8-3,3v12.9h15.9v-12.9c0-1.5-0.8-3-3-3v-1.5c3,0,5.3,0.8,7.6,0.8c2.3,0,5.3,0,7.6-0.8v1.5 c-2.3,0-3,0.8-3,3v34.1c0,1.5,0.8,3,3,3v1.5c-3,0-5.3-0.8-7.6-0.8c-2.3,0-5.3,0-7.6,0.8v-1.5c2.3,0,3-0.8,3-3v-15.2h-15.9v15.2 c0,1.5,0.8,3,3,3v1.5c-3,0-5.3-0.8-7.6-0.8c-2.3,0-5.3,0-7.6,0.8v-1.5c2.3,0,3-0.8,3-3L92.3,339.6L92.3,339.6L92.3,339.6z M92.3,339.6L92.3,339.6L92.3,339.6L92.3,339.6z"></path> <path style="fill-rule:evenodd;clip-rule:evenodd;fill:#FFFFFF;" d="M154.5,359.3c1.5-4.5,3.8-9.9,5.3-15.2l0,0 c1.5,6.8,2.3,10.6,3.8,15.2H154.5L154.5,359.3L154.5,359.3z M138.6,378.3c2.3,0,4.5-0.8,6.8-0.8s4.5,0,6.8,0.8v-1.5 c-2.3,0-3-0.8-3-2.3c0-0.8,0-1.5,0.8-2.3l3-7.6h12.9l2.3,6.1c0,0.8,0.8,2.3,0.8,3c0,1.5-0.8,2.3-3,2.3v1.5c3,0,5.3-0.8,8.3-0.8 c3,0,5.3,0,8.3,0.8V376c-2.3-0.8-3-1.5-3.8-4.5l-12.1-37.2c-2.3,0-3.8,0.8-6.1,0.8c-2.3,0-3.8,0-6.1-0.8v1.5c1.5,0,2.3,0.8,2.3,1.5 c0,0.8-0.8,1.5-0.8,2.3l-12.9,32.6c-0.8,1.5-1.5,3-3,3L138.6,378.3L138.6,378.3L138.6,378.3z"></path> <path style="fill-rule:evenodd;clip-rule:evenodd;fill:#FFFFFF;" d="M194.7,345.7c0-1.5,0-3.8,0-6.1s-0.8-2.3-3-2.3v-1.5 c2.3,0,4.5,0.8,6.8,0.8s4.5,0,6.8-0.8l11.4,30.3l9.9-30.3c2.3,0,4.5,0.8,6.8,0.8s4.5,0,6.8-0.8v1.5c-2.3,0-2.3,0.8-2.3,3 c0,1.5,0,4.5,0.8,6.8l2.3,28.1c0,1.5,2.3,2.3,3,2.3v1.5c-3,0-5.3-0.8-8.3-0.8c-3,0-5.3,0-8.3,0.8v-1.5c3-0.8,3.8-0.8,3.8-3.8 c0-1.5,0-4.5-0.8-6.8l-1.5-19.7l0,0l-10.6,31.8h-5.3l-12.1-32.6l0,0l-0.8,19c0,3,0,5.3,0,6.8c0,3,0,3.8,4.5,4.5v1.5 c-2.3,0-5.3-0.8-7.6-0.8s-4.5,0-6.8,0.8v-1.5c2.3,0,3.8-0.8,3.8-3.8L194.7,345.7L194.7,345.7z"></path> <path style="fill-rule:evenodd;clip-rule:evenodd;fill:#FFFFFF;" d="M79.4,376c-4.5,3.8-10.6,4.5-15.2,4.5 c-15.2,0-24.3-12.1-24.3-24.3c0-12.9,9.1-25,25.8-25c6.1,0,9.9,0.8,12.1,1.5c0,5.3,0,9.9,0.8,14.4h-1.5c-2.3-6.1-6.1-9.1-12.1-9.1 c-8.3,0-14.4,6.8-14.4,17.4c0,8.3,6.8,17.4,15.9,17.4c3.8,0,9.9-2.3,13.6-5.3L79.4,376L79.4,376z"></path> <path style="fill-rule:evenodd;clip-rule:evenodd;fill:#FFFFFF;" d="M150,401.8c0-1.5-0.8-2.3-2.3-2.3V398c2.3,0,4.5,0,6.1,0 c2.3,0,5.3,0,6.8,0v1.5c-2.3,0-3,1.5-3,3v24.3h9.1c3,0,4.5-1.5,5.3-5.3h1.5c-0.8,3-1.5,6.8-1.5,9.9h-25v-1.5c1.5,0,2.3-0.8,2.3-2.3 v-25.8H150z"></path> <path style="fill-rule:evenodd;clip-rule:evenodd;fill:#FFFFFF;" d="M181.8,401.8c0-1.5-0.8-2.3-2.3-2.3V398h25.8 c0,3,0,5.3,0.8,7.6h-2.3c-0.8-3-1.5-3.8-3.8-3.8h-10.6v9.9h6.8c2.3,0,2.3-0.8,3-2.3h1.5c0,1.5,0,3.8,0,4.5c0,1.5,0,3.8,0,4.5h-1.5 c0-1.5-0.8-2.3-3-2.3h-6.8v10.6h11.4c3,0,3.8-0.8,4.5-5.3h1.5c-0.8,3.8-0.8,6.8-0.8,9.9h-26.5v-1.5c1.5,0,2.3-0.8,2.3-2.3V401.8 L181.8,401.8z"></path> <path style="fill-rule:evenodd;clip-rule:evenodd;fill:#FFFFFF;" d="M212.9,429.9c1.5,0,2.3-0.8,2.3-2.3l9.9-25 c0-0.8,0.8-1.5,0.8-2.3s-0.8-1.5-2.3-1.5v-1.5c1.5,0,3,0,4.5,0c1.5,0,3,0,4.5,0l9.1,28.8c0.8,2.3,1.5,3,3,3v1.5c-2.3,0-4.5,0-6.1,0 c-2.3,0-4.5,0-6.8,0v-1.5c1.5,0,2.3-0.8,2.3-2.3c0-0.8,0-1.5-0.8-2.3l-1.5-4.5H222l-2.3,6.1c0,0.8-0.8,1.5-0.8,1.5 c0,0.8,0.8,1.5,2.3,1.5v1.5c-1.5,0-3.8,0-5.3,0s-3.8,0-5.3,0L212.9,429.9L212.9,429.9L212.9,429.9z M231.9,417 c-0.8-3-2.3-6.8-3-11.4l0,0c-1.5,3.8-3,8.3-3.8,11.4H231.9L231.9,417z"></path> <path style="fill-rule:evenodd;clip-rule:evenodd;fill:#FFFFFF;" d="M272.8,420c0-2.3-0.8-2.3-3-2.3v-1.5c2.3,0,3.8,0,6.1,0 s4.5,0,6.8,0v1.5c-1.5,0-3,0.8-3,3v11.4h-3l-1.5-3c-3,3-6.8,3.8-9.9,3.8c-9.1,0-15.2-7.6-15.2-16.7c0-10.6,7.6-17.4,18.2-17.4 c3.8,0,7.6,0.8,9.9,2.3c0,2.3,0,5.3,0,9.1h-1.5c-0.8-4.5-4.5-6.8-9.1-6.8c-6.8,0-10.6,5.3-10.6,12.1c0,6.1,3.8,13.6,9.1,13.6 c3.8,0,5.3-1.5,5.3-3.8L272.8,420L272.8,420L272.8,420z M272.8,420L272.8,420L272.8,420L272.8,420z"></path> <path style="fill-rule:evenodd;clip-rule:evenodd;fill:#FFFFFF;" d="M292.5,401.8c0-1.5-0.8-2.3-2.3-2.3V398c1.5,0,3.8,0,6.1,0 s4.5,0,6.8,0v1.5c-2.3,0-3,0.8-3,2.3v19c0,6.1,2.3,6.8,6.1,6.8s6.1-1.5,6.1-6.8v-19c0-2.3-0.8-2.3-3-2.3V398c2.3,0,3.8,0,6.8,0 c2.3,0,4.5,0,6.1,0v1.5c-1.5,0-2.3,0.8-2.3,2.3V420c0,9.1-4.5,12.1-13.6,12.1c-9.1,0-13.6-3-13.6-11.4V401.8L292.5,401.8 L292.5,401.8z M292.5,401.8L292.5,401.8L292.5,401.8L292.5,401.8z"></path> <path style="fill-rule:evenodd;clip-rule:evenodd;fill:#FFFFFF;" d="M333.5,401.8c0-1.5-0.8-2.3-2.3-2.3V398H357c0,3,0,5.3,0.8,7.6 h-2.3c-0.8-3-1.5-3.8-3.8-3.8H341v9.9h6.8c2.3,0,2.3-0.8,3-2.3h1.5c0,1.5,0,3.8,0,4.5c0,1.5,0,3.8,0,4.5h-1.5c0-1.5-0.8-2.3-3-2.3 H341v10.6h11.4c3,0,3.8-0.8,4.5-5.3h1.5c-0.8,3.8-0.8,6.8-0.8,9.9h-26.5v-1.5c1.5,0,2.3-0.8,2.3-2.3V401.8L333.5,401.8z"></path> <path style="fill-rule:evenodd;clip-rule:evenodd;fill:#FFFFFF;" d="M366.1,445c3,0,6.1-2.3,6.1-6.1c0-3.8-3-6.1-6.1-6.1 c-3,0-6.1,2.3-6.1,6.1C360,442.8,363,445,366.1,445L366.1,445L366.1,445z M360.8,439c0-3,2.3-5.3,4.5-5.3c3,0,4.5,2.3,4.5,5.3 c0,3-2.3,5.3-4.5,5.3S360.8,442,360.8,439L360.8,439z M364.6,439.7h1.5l1.5,3h1.5l-2.3-3c0.8,0,1.5-0.8,1.5-2.3s-0.8-2.3-2.3-2.3 h-2.3v6.8h0.8L364.6,439.7L364.6,439.7L364.6,439.7z M364.6,438.2v-1.5h1.5c0.8,0,1.5,0,1.5,0.8s-0.8,0.8-1.5,0.8L364.6,438.2 L364.6,438.2z"></path> </g> </svg> 