<?xml version="1.0" encoding="UTF-8"?> <!-- Generator: Adobe Illustrator 24.3.0, SVG Export Plug-In . SVG Version: 6.00 Build 0) --> <svg xmlns="http://www.w3.org/2000/svg" xmlns:xlink="http://www.w3.org/1999/xlink" version="1.1" id="Layer_1" x="0px" y="0px" viewBox="0 0 500 500" style="enable-background:new 0 0 500 500;" xml:space="preserve"> <g> <g> <path style="fill:#FFFFFF;" d="M21.1,336.7h-2.2c0-0.5,0.2-1.9,0.4-2.5c-1.2,2.2-2.7,2.9-4.4,2.9c-3.9,0-4.8-3-3.8-8.1l3-14.3 c1.1-5.3,2.9-7.7,6.9-7.7c5.1,0,5.5,4.2,4.8,7.4l-0.1,0.6h-2.7l0.1-0.7c0.5-2.8,0.3-5-2.4-5c-1.9,0-3,1.2-3.9,5.3l-3,14.4 c-0.7,3.6-0.5,5.6,1.9,5.6c2.8,0,3.8-2.8,4.8-7.7l0.8-3.7h-3.5l0.5-2.4h6.1L21.1,336.7z"></path> <path style="fill:#FFFFFF;" d="M49.7,326.9l-3.5,9.8h-2.8c2.3-6,8.3-22.6,10.9-29.3h4l-1.4,29.3h-2.7l0.5-9.8H49.7z M54.8,324.4 c0.3-6,0.6-11.9,0.9-14.5h-0.1c-0.5,2.1-2.9,8.8-5,14.5H54.8z"></path> <path style="fill:#FFFFFF;" d="M95.4,324.1c1.2-5.5,2.5-11,3.2-14.1h0c-1.8,4.9-6.9,17.8-10.3,26.6h-2.7c0.4-7.5,1-21.6,1.3-26.6 h-0.1c-0.6,3.4-1.9,9.9-3,14.9l-2.4,11.7h-2.6l6.2-29.3h4.1c-0.3,9.4-0.7,20.4-1.1,24h0c1.2-3.5,6.2-15.9,9.5-24h4.1l-6.2,29.3 h-2.7L95.4,324.1z"></path> <path style="fill:#FFFFFF;" d="M128.1,307.4l-6.2,29.3h-2.7l6.2-29.3H128.1z"></path> <path style="fill:#FFFFFF;" d="M145.5,336.7l6.2-29.3h3.4c0.3,7.2,1.1,22.4,1.1,24.1h0.1c0.7-4.1,1.5-8.4,2.5-13.1l2.3-11h2.6 l-6.2,29.3h-3.2c-0.3-6.4-1.1-22.3-1.1-24.7h0c-0.6,3.8-1.4,8.4-2.6,13.7l-2.3,11H145.5z"></path> <path style="fill:#FFFFFF;" d="M192.4,336.7h-2.2c0-0.5,0.2-1.9,0.4-2.5c-1.2,2.2-2.7,2.9-4.4,2.9c-3.9,0-4.8-3-3.8-8.1l3-14.3 c1.1-5.3,2.9-7.7,6.9-7.7c5.1,0,5.5,4.2,4.8,7.4l-0.1,0.6h-2.7l0.1-0.7c0.5-2.8,0.3-5-2.4-5c-1.9,0-3,1.2-3.9,5.3l-3,14.4 c-0.7,3.6-0.5,5.6,1.9,5.6c2.8,0,3.8-2.8,4.8-7.7l0.8-3.7h-3.5l0.5-2.4h6.1L192.4,336.7z"></path> </g> <path style="fill:#FFFFFF;" d="M128.3,293l15.9-100.3h21.2c13.4,0,23.3,3.1,29.6,9.4s9.5,15.9,9.5,28.9c0,10.1-1.6,19.8-4.7,29.2 s-7.2,16.6-12.1,21.6c-4.1,4.1-8.6,7-13.9,8.7c-5.2,1.7-13.4,2.6-24.5,2.6L128.3,293L128.3,293z M160.4,268.3 c0.2,0,0.4,0.1,0.6,0.1c0.2,0,0.5,0,0.9,0c1.7,0,3.2-0.4,4.7-1.2c1.5-0.8,2.7-1.9,3.8-3.2c1.7-2.2,3.2-6.7,4.8-13.4 c1.5-6.7,2.3-13.5,2.3-20.2c0-4.3-0.7-7.5-2.1-9.6c-1.4-2-3.6-3.2-6.8-3.4L160.4,268.3z"></path> <path style="fill:#FFFFFF;" d="M204.6,293l15.9-100.3h23.6c14.9,0,25.1,1.9,30.7,5.8s8.4,10.6,8.4,19.9c0,8.2-1.8,14.9-5.3,20.2 s-8.7,8.8-15.3,10.4l12.4,43.9h-29.7l-6.3-40.5l-6.3,40.5L204.6,293C204.6,293,204.6,293,204.6,293z M241.5,237.4h1.5 c4.3,0,7.5-1.3,9.8-4c2.3-2.7,3.4-6.5,3.4-11.6c0-2.9-0.7-5-2.2-6.4c-1.4-1.4-3.7-2.1-6.8-2.1c-0.2,0-0.5,0-0.9,0.1 c-0.5,0-0.8,0.1-1.1,0.1L241.5,237.4z"></path> <path style="fill:#FFFFFF;" d="M335.9,293l15.9-100.3h28l-6.6,41.9l22.1-41.9h28.5L396,239l12.7,54h-30.4l-7.1-45.6L364,293 L335.9,293C335.9,293,335.9,293,335.9,293z"></path> <path style="fill:#FFFFFF;" d="M411.7,293l15.9-100.3h49.7l-3.8,24.3h-21.6l-2.1,12.8h19.6l-3.6,23.5h-19.6l-2.3,13.8h21.7 l-4.1,25.9H411.7z"></path> <g> <path style="fill:#FFFFFF;" d="M135.6,217l3.8-24.3H89.8l-0.3,2.2c0.1,0.1,0.2,0.1,0.4,0.2c6.8,4.7,10.2,12.6,10.2,23.4 c0,9-2,16.6-6,22.5c-3.4,5-7.9,8.6-13.6,10.8l0,0.2L91.9,293h31.7l4.1-25.9h-21.7l2.3-13.8h19.6l3.6-23.5h-19.6L114,217L135.6,217 L135.6,217z"></path> </g> <path style="fill:#FFFFFF;" d="M17.1,293l15.9-100.3h23.6c14.9,0,25.1,1.9,30.7,5.8c5.6,3.9,8.4,10.6,8.4,19.9 c0,8.2-1.8,14.9-5.3,20.2c-3.6,5.3-8.7,8.8-15.3,10.4L87.5,293H57.8l-6.3-40.5L45.1,293L17.1,293L17.1,293z M54,237.4h1.5 c4.3,0,7.5-1.3,9.8-4c2.3-2.7,3.4-6.5,3.4-11.6c0-2.9-0.7-5-2.2-6.4c-1.4-1.4-3.7-2.1-6.8-2.1c-0.2,0-0.5,0-0.9,0.1 c-0.5,0-0.8,0.1-1.1,0.1L54,237.4z"></path> <g> <path style="fill:#FFFFFF;" d="M335.9,293l-7.1-100.3h-33.1l-9,23.8c0,0.7,0.1,1.3,0.1,1.9c0,8.9-2,16.4-6,22.3 c-1.5,2.3-3.4,4.3-5.5,6l-5.6,14.9l8.9,31.4h8l4.4-14.8h16.5l-0.1,14.8H335.9z M297.1,258l11.5-37.2l-0.3,37.2H297.1z"></path> </g> <path style="fill:#FFFFFF;" d="M343.1,303.8c0,0,16.9,0,16.4,0c-0.5,0-21.1,31.3-21.1,31.3l-7.6-5.9l-3.7-0.9L343.1,303.8z"></path> <path style="fill:#FFFFFF;" d="M329.3,331.6c0.4,0.1,60.2,46,60.2,46l7.2,19.4l-125.3-64.8l-7.9-20.4L329.3,331.6z"></path> <path style="fill:#FFFFFF;" d="M265.6,310.8l19,5.3c0,0-1.4-6.3-8.3-7.7C269.6,306.9,265.6,310.8,265.6,310.8z"></path> <path style="fill:#FFFFFF;" d="M392,378.6c0,0,0.1,0.3,0.3,0.7c1.3,3.6,6.7,18.9,6.7,18.9l11.7-16.4c0,0-1.6-4.8-9.4-5.7 C393.6,375.2,392,378.6,392,378.6z"></path> <g> <path style="fill:#FFFFFF;" d="M463,114c11.6,0,21.6,6.7,25.6,16.1l6-8.7c0,0-6.2-23.2-29.7-16.6l-6.4,9.6 C460,114.1,461.5,114,463,114z"></path> <path style="fill:#FFFFFF;" d="M431.5,161.3c11.3,0,20.9,6.2,25.2,15.1l30.2-43.9c-3.2-9.3-12.7-16-23.9-16 c-2.3,0-4.5,0.4-6.6,0.9l-29.6,44.3C428.4,161.4,430,161.3,431.5,161.3z"></path> <path style="fill:#FFFFFF;" d="M431.5,163.8c-2.4,0-4.6,0.4-6.7,0.9l-12.1,18.1h39.6l2.7-4C451.6,170.1,442.4,163.8,431.5,163.8z"></path> </g> </g> </svg> 