<?xml version="1.0" encoding="UTF-8"?> <!-- Generator: Adobe Illustrator 24.3.0, SVG Export Plug-In . SVG Version: 6.00 Build 0) --> <svg xmlns="http://www.w3.org/2000/svg" xmlns:xlink="http://www.w3.org/1999/xlink" version="1.1" id="Layer_1" x="0px" y="0px" viewBox="0 0 500 500" style="enable-background:new 0 0 500 500;" xml:space="preserve"> <g> <g> <path style="fill:#FFFFFF;" d="M410.5,124.7H104.8c-5,0-9.4,1.3-13.8,3.1l166,166l37.1-35.8l0,0l0,0l130.2-130.2 C420.5,126,415.5,124.7,410.5,124.7z"></path> </g> </g> <g> <g> <path style="fill:#FFFFFF;" d="M440,142.9L317.4,265.6L440,388.2c1.9-4.4,3.1-8.8,3.1-13.8v-217 C443.2,152.4,441.9,147.3,440,142.9z"></path> </g> </g> <g> <g> <path style="fill:#FFFFFF;" d="M75.9,142.9c-2.5,4.4-3.8,9.4-3.8,14.5V375c0,5,1.3,9.4,3.1,13.8l122.6-122.6L75.9,142.9z"></path> </g> </g> <g> <g> <path style="fill:#FFFFFF;" d="M302.3,281.3l-37.1,35.8c-1.9,1.9-5,3.1-7.5,3.1c-2.5,0-5.7-1.3-7.5-3.1l-35.8-35.8L91,403.9 c4.4,1.9,8.8,3.1,13.8,3.1h305.6c5,0,9.4-1.3,13.8-3.1L302.3,281.3z"></path> </g> </g> </svg> 