<?xml version="1.0" encoding="UTF-8"?> <!-- Generator: Adobe Illustrator 24.3.0, SVG Export Plug-In . SVG Version: 6.00 Build 0) --> <svg xmlns="http://www.w3.org/2000/svg" xmlns:xlink="http://www.w3.org/1999/xlink" version="1.1" id="Layer_1" x="0px" y="0px" viewBox="0 0 500 500" style="enable-background:new 0 0 500 500;" xml:space="preserve"> <g> <path style="fill:#FFFFFF;" d="M493.4,176.4c0,52.7,0,104.6,0,157.3c0,0.9-0.9,1.7-0.9,1.7c-1.7,5.2-5.2,8.6-10.4,10.4 c-0.9,0-1.7,0.9-1.7,0.9c-153.8,0-307.7,0-461.5,0c-1.7,0-3.5,0-4.3-0.9c-5.2-2.6-8.6-6.1-9.5-11.2c-0.9-1.7-0.9-4.3-0.9-6.1 c0-38,0-75.2,0-113.2c0-0.9,0-1.7,0-2.6c0.9-8.6,7.8-15.6,16.4-16.4c1.7,0,3.5,0,5.2,0c127.1,0,254.1,0,381.2,0 c19.9,0,38.9,0,58.8,0c2.6,0,5.2-0.9,6.9-2.6c6.1-5.2,12.1-10.4,18.2-15.6C491.7,177.2,492.6,176.4,493.4,176.4z M64.8,293.9 c0.9,0.9,1.7,0.9,1.7,1.7c10.4,9.5,26.8,7.8,33.7-5.2c6.9-12.1,6.1-24.2-0.9-36.3c-7.8-13-26.8-12.1-33.7-3.5l-0.9,0.9 c0-1.7,0-3.5-0.9-6.1c-3.5,0-6.9,0-11.2,0c-0.9,0-1.7,0-2.6,0c-0.9,4.3-0.9,69.1,0,71.7c4.3,0,8.6,0,13.8,0 C64.8,310.3,64.8,302.6,64.8,293.9z M271.3,246.4c-0.9,4.3-0.9,69.1,0,71.7c4.3,0,8.6,0,13.8,0c0-7.8,0-15.6,0-24.2 c0.9,0.9,1.7,0.9,1.7,1.7c10.4,9.5,26.8,7.8,33.7-5.2c6.9-12.1,6.1-24.2-0.9-36.3c-7.8-13-26.8-12.1-33.7-3.5l-0.9,0.9 c0-1.7,0-3.5-0.9-6.1c-3.5,0-6.9,0-11.2,0C273.1,246.4,272.2,246.4,271.3,246.4z M158.1,262.8c0-0.9,0.9-1.7,0.9-2.6 c0.9-2.6,2.6-4.3,5.2-4.3c3.5-0.9,6.9-0.9,10.4,0c2.6,0.9,3.5,3.5,3.5,6.1s-1.7,4.3-3.5,4.3c-2.6,0.9-5.2,0.9-7.8,1.7 c-5.2,0.9-9.5,1.7-14.7,2.6c-6.9,1.7-9.5,6.9-9.5,13.8c0,6.9,3.5,12.1,9.5,14.7c4.3,1.7,8.6,1.7,13,0.9c4.3-0.9,9.5-2.6,13-6.1 c0.9,1.7,0.9,2.6,1.7,4.3c5.2,0,9.5,0,14.7,0c-1.7-6.9-1.7-13-1.7-19.9c0-6.1,0-12.1,0-19c0-8.6-3.5-13-12.1-15.6 c-7.8-1.7-15.6-1.7-23.3,0c-4.3,0.9-7.8,3.5-10.4,6.1c-2.6,2.6-3.5,6.1-3.5,10.4C148.6,262.8,152.9,262.8,158.1,262.8z M371.6,246.4c0,1.7,0,3.5,0,4.3c0,8.6,0,16.4,0,25.1c0,2.6-0.9,6.1-1.7,8.6c-1.7,4.3-5.2,6.1-10.4,5.2c-4.3,0-6.1-2.6-7.8-6.9 c-0.9-1.7-0.9-4.3-0.9-6.1c0-8.6,0-16.4,0-25.1c0-1.7,0-2.6,0-4.3c-5.2,0-9.5,0-14.7,0c0,6.1,0,12.1,0,18.2c0,6.9,0,13,0,19.9 c0,6.1,2.6,12.1,8.6,14.7c7.8,3.5,19,2.6,25.1-4.3c0-0.9,0.9-0.9,1.7-1.7c0,2.6,0,4.3,0,6.1c4.3,0,9.5,0,13.8,0 c0-18.2,0-35.4,0-52.7C381.1,246.4,376.8,246.4,371.6,246.4z M445,261.1c-0.9-7.8-4.3-12.1-11.2-14.7c-3.5-0.9-6.9-1.7-9.5-1.7 c-6.1-0.9-12.1,0-18.2,2.6c-6.1,3.5-8.6,8.6-7.8,14.7c0,6.1,4.3,9.5,8.6,11.2c1.7,0.9,2.6,0.9,4.3,1.7c3.5,0.9,6.9,1.7,9.5,2.6 c2.6,0.9,5.2,1.7,7.8,2.6c3.5,1.7,3.5,6.1,0.9,8.6c-4.3,3.5-13,2.6-16.4-0.9c-0.9-1.7-1.7-3.5-2.6-5.2c-4.3,0-8.6,0-13,0 c0,6.1,1.7,10.4,6.9,13.8c3.5,2.6,7.8,4.3,13,4.3c7.8,0.9,15.6,0,22.5-3.5c6.1-3.5,8.6-9.5,7.8-15.6c0-6.1-4.3-9.5-10.4-12.1 c-1.7-0.9-3.5-0.9-5.2-1.7c-3.5-0.9-6.9-1.7-9.5-2.6c-1.7-0.9-4.3-0.9-6.1-2.6c-3.5-1.7-3.5-6.1,0-7.8c3.5-1.7,6.9-1.7,10.4,0 c3.5,0.9,4.3,3.5,5.2,6.1c0,0,0,0,0.9,0.9C436.4,261.1,440.7,261.1,445,261.1z M223.8,255.9c3.5,0,6.9,0,10.4,0c0-3.5,0-6.9,0-10.4 c-3.5,0-6.9,0-10.4,0c0-5.2,0-10.4,0-15.6c-5.2,0-9.5,0-14.7,0c0,5.2,0,10.4,0,15.6c-3.5,0-6.1,0-8.6,0c0,3.5,0,6.1,0,9.5 c2.6,0,5.2,0,8.6,0c0,1.7,0,3.5,0,4.3c0,6.1,0,11.2,0,17.3c0,4.3,0,7.8,0,12.1c0,3.5,1.7,6.9,5.2,7.8c6.1,3.5,13,2.6,19.9,1.7 c0-4.3,0-7.8,0-11.2c-1.7,0-3.5,0-4.3,0c-4.3,0-5.2-0.9-5.2-6.1c0-5.2,0-11.2,0-16.4C223.8,263.7,223.8,260.2,223.8,255.9z M115.8,298.2c5.2,0,9.5,0,14.7,0c0-24.2,0-48.4,0-73.5c-5.2,0-9.5,0-14.7,0C115.8,250.7,115.8,274,115.8,298.2z M258.4,298.2 c0-18.2,0-35.4,0-52.7c-5.2,0-9.5,0-14.7,0c0,18.2,0,35.4,0,52.7C248.9,298.2,253.2,298.2,258.4,298.2z M243.7,225.6 c0,4.3,0,7.8,0,12.1c5.2,0,9.5,0,14.7,0c0-4.3,0-7.8,0-12.1C253.2,225.6,248.9,225.6,243.7,225.6z"></path> <path style="fill:#FFFFFF;" d="M90.7,274c-0.9,2.6-0.9,6.1-1.7,8.6c-1.7,4.3-5.2,6.9-10.4,6.9c-5.2,0-8.6-1.7-11.2-6.9 c-3.5-6.9-2.6-13.8,0-20.7c1.7-4.3,6.1-6.9,10.4-6.9c4.3,0,8.6,2.6,10.4,6.1C89.8,265.4,89.8,269.7,90.7,274z"></path> <path style="fill:#FFFFFF;" d="M311.1,274c-0.9,3.5-0.9,6.1-2.6,9.5c-1.7,4.3-5.2,6.9-10.4,6.9c-5.2,0-8.6-1.7-11.2-6.1 c-3.5-6.9-3.5-14.7,0-21.6c1.7-4.3,5.2-6.1,10.4-6.1c4.3,0,8.6,2.6,10.4,6.1C310.2,265.4,311.1,269.7,311.1,274z"></path> <path style="fill:#FFFFFF;" d="M177.1,274c0,3.5,0,6.9-0.9,9.5c-0.9,3.5-3.5,6.1-6.9,6.1c-2.6,0.9-6.1,0.9-8.6,0 c-2.6,0-4.3-2.6-5.2-5.2c0-2.6,0-5.2,2.6-6.9c1.7-0.9,3.5-1.7,5.2-1.7C168.5,275.8,172.8,274,177.1,274z"></path> </g> </svg> 