<?xml version="1.0" encoding="UTF-8"?> <!-- Generator: Adobe Illustrator 24.3.0, SVG Export Plug-In . SVG Version: 6.00 Build 0) --> <svg xmlns="http://www.w3.org/2000/svg" xmlns:xlink="http://www.w3.org/1999/xlink" version="1.1" id="Layer_1" x="0px" y="0px" viewBox="0 0 500 500" style="enable-background:new 0 0 500 500;" xml:space="preserve"> <g> <path style="fill:#FFFFFF;" d="M186.4,386.7c-7.4-0.7-14.8-3-21.5-6.7c-8.2-3.7-15.6-9.6-21.5-15.6c-3-3-5.9-6.7-8.9-10.4 c-0.7-0.7-1.5-1.5-3-1.5c-3,0-6.7,0-9.6,0c-20.8,0-41.6,0-62.3,0c-0.7,0-1.5,0-2.2,0c0,0-0.7,0-0.7-0.7c0-0.7,0-0.7,0-1.5 c0-18.6,0-37.1,0-56.4c0-2.2,0-2.2,2.2-2.2c5.2,0,9.6,0,14.8,0c2.2,0,2.2,0,2.2-2.2c0-11.9,0-23.7,0-35.6c0-0.7,0-1.5,0-2.2 c0-0.7,0.7-0.7,1.5-1.5c0.7,0,0.7,0,1.5,0c22.3,0,44.5,0,66.8,0c3,0,2.2,0,2.2,3c0,11.9,0,23.7,0,35.6c0,3,0,3,3,3 c5.9,0,11.9,0,18.6,0c2.2,0,2.2,0,2.2-2.2c0-0.7,0-1.5,0-2.2c0-33.4,0-67.5,0-100.9c0-0.7,0-1.5,0-2.2c0-0.7,0-0.7-0.7-0.7 s-0.7,0-1.5,0c-5.9,0-12.6,0-18.6,0c-0.7,0-0.7,0-1.5,0s-0.7,0-0.7,1.5c0,0.7,0,1.5,0,2.2c0,12.6,0,26,0,38.6c0,0.7,0,0.7,0,1.5 c0,1.5,0,1.5-1.5,1.5c-0.7,0-0.7,0-1.5,0c-18.6,0-37.1,0-55.7,0c-3.7,0-7.4,0-11.1,0c-0.7,0-0.7,0-1.5,0c-0.7,0-0.7,0-0.7-0.7 s0-1.5,0-2.2c0-12.6,0-26,0-38.6c0-3,0-3-3-3c-4.5,0-9.6,0-14.1,0c-0.7,0-1.5,0-2.2,0s-0.7,0-0.7-0.7s0-0.7,0-1.5 c0-19.3,0-37.9,0-57.1c0-0.7,0-0.7,0-1.5c0.7-0.7,1.5,0,2.2,0c29.7,0,58.6,0,88.3,0s60.1,0,89.8,0c0.7,0,2.2-0.7,3,0.7 c-14.1,31.9-28.2,64.6-42.3,96.5c0,0,0,0,0,0.7c2.2,0,4.5,0,6.7,0c3.7,0,8.2,0.7,11.9,1.5c13.4,3,26,8.2,37.9,16.3 c14.8,11.1,23.7,25.2,28.2,43c2.2,8.2,2.2,16.3,2.2,24.5c0,8.9-1.5,17.1-3.7,25.2c-3,10.4-8.9,20-15.6,28.9 c-11.1,12.6-25.2,20.8-41.6,25.2c-4.5,0.7-8.9,1.5-12.6,2.2c-0.7,0-1.5,0-2.2,0c-0.7,0-1.5,0-2.2,0c-5.2,0-10.4,0-15.6,0 c-0.7-0.7-1.5,0-2.2,0C187.9,386.7,187.2,387.5,186.4,386.7z"></path> <path style="fill:#FFFFFF;" d="M188.7,386.7c0.7,0,1.5,0,2.2,0.7C190.1,387.5,189.4,387.5,188.7,386.7 C188.7,387.5,188.7,387.5,188.7,386.7L188.7,386.7z"></path> <path style="fill:#FFFFFF;" d="M206.5,387.5c0.7-0.7,1.5-0.7,2.2-0.7l0,0l0,0C208,387.5,207.2,387.5,206.5,387.5z"></path> <path style="fill:#FFFFFF;" d="M208.7,387.5C208.7,387.5,208.7,386.7,208.7,387.5c0.7-0.7,1.5-0.7,2.2-0.7c0,0,0,0,0,0.7 C210.2,387.5,209.4,387.5,208.7,387.5z"></path> <path style="fill:#FFFFFF;" d="M188.7,386.7C188.7,386.7,188.7,387.5,188.7,386.7c-0.7,0.7-1.5,0.7-1.5,0.7s0,0,0-0.7 C187.2,386.7,187.9,386.7,188.7,386.7z"></path> <path style="fill:#FFFFFF;" d="M345.3,123.2c0.7,0,1.5,0,2.2,0c28.9,0,57.9,0,86.8,0c0.7,0,2.2,0,3,0c0.7,0,1.5,0,2.2,0 c7.4,0,14.1,0,21.5,0c0.7,0,1.5,0,2.2,0c0.7,0,0.7,0,0.7,0.7c0,0.7,0,0.7,0,1.5c0,18.6,0,37.1,0,55.7v0.7c0,1.5,0,1.5-1.5,1.5 c-0.7,0-1.5,0-2.2,0c-22.3,0-43.8,0-66.1,0c-1.5,0-2.2,0-3.7,0c-0.7,0-0.7,0-1.5,0.7c-5.9,0.7-11.9,1.5-17.1,3.7 c-3,0.7-5.2,3-8.2,4.5c-6.7,3.7-11.9,8.9-16.3,15.6c-3,4.5-5.2,8.9-6.7,14.1c-1.5,5.9-2.2,12.6-1.5,18.6c0.7,4.5,0.7,9.6,2.2,14.1 c2.2,6.7,5.2,11.9,9.6,17.1c5.2,6.7,12.6,11.9,20,14.8c3.7,1.5,8.2,2.2,11.9,3c7.4,0.7,14.8,0.7,22.3,0.7c17.1,0,33.4,0,50.5,0 c2.2,0,3.7,0,5.9,0c1.5,0,1.5,0,1.5,2.2c0,0.7,0,0.7,0,1.5c0,8.9,0,18.6,0,27.5c0,8.9,0,17.8,0,27.5c0,3.7,0,3-3,3 c-54.2,0-108.4,0-162.5,0c-0.7,0-0.7,0-1.5,0h-0.7c0-0.7,0-0.7,0-0.7c6.7-8.2,11.1-17.1,14.8-26.7c2.2-7.4,3.7-14.1,5.2-21.5 c0.7-7.4,1.5-15.6,1.5-23c-0.7-11.9-2.2-23-6.7-34.1c-4.5-11.9-11.1-22.3-20.8-31.2c-7.4-6.7-15.6-12.6-25.2-16.3 c-7.4-3-14.8-5.9-23-7.4c-3-0.7-5.9-0.7-8.9-1.5c0-0.7,0-1.5,0-1.5c4.5-11.1,8.9-22.3,13.4-33.4v-0.7c0-0.7,0.7-0.7,0.7-0.7 c0.7,0,0.7,0,1.5,0c7.4,0,14.1,0,21.5,0c17.8,0,36.4,0,54.2,0c3,0,2.2,0,3.7-2.2c4.5-8.2,8.9-17.1,13.4-25.2 C345.3,124,345.3,124,345.3,123.2z"></path> <path style="fill:#FFFFFF;" d="M429.1,228.6c-11.1,0-22.3,0-33.4,0c-3,0-3,0-3,3c0,5.9,0,11.1,0,17.1c0,0.7,0,1.5,0,2.2 c0,0.7,0,0.7,0.7,0.7c0.7,0,1.5,0,2.2,0c17.1,0,34.1,0,50.5,0c3,0,3,0,3,3c0,3.7,0,8.2,0,11.9c0,0.7,0,0.7,0,1.5c0,0,0,0.7-0.7,0.7 c-0.7,0-0.7,0-1.5,0c-15.6,0-31.2,0-46.8,0c-8.9,0-17.1-2.2-24.5-7.4c-5.2-3.7-8.9-8.9-11.1-14.8c-1.5-3.7-1.5-8.2-0.7-11.9 c0-2.2,0.7-3.7,0.7-5.2c2.2-8.2,7.4-14.1,15.6-17.8c3.7-1.5,8.2-2.2,12.6-3c3,0,6.7,0,9.6-0.7c20,0,40.1,0,59.4,0c3.7,0,3,0,3,3 c0,5.2,0,10.4,0,15.6c0,0.7,0,1.5,0,2.2c0,0.7,0,0.7-0.7,0.7c-0.7,0-1.5,0-2.2,0C452.1,228.6,440.3,228.6,429.1,228.6z"></path> </g> </svg> 