<?xml version="1.0" encoding="UTF-8"?> <!-- Generator: Adobe Illustrator 24.3.0, SVG Export Plug-In . SVG Version: 6.00 Build 0) --> <svg xmlns="http://www.w3.org/2000/svg" xmlns:xlink="http://www.w3.org/1999/xlink" version="1.1" id="Layer_1" x="0px" y="0px" viewBox="0 0 500 500" style="enable-background:new 0 0 500 500;" xml:space="preserve"> <g> <g> <path style="fill:#FFFFFF;" d="M52.4,208.3C59.1,186.6,70,169,84.2,167c27.7-3.4,59.6,43.3,65,97.5c5.4,50.1-6.8,104.9-33.8,108.3 c-16.9,2-32.5-4.7-44-31.1c18.3,5.4,42-2,42-2c8.1-27.1,8.1-77.2,8.1-77.2c-16.9-45.3-35.9-66.3-35.9-66.3S66.6,200.1,52.4,208.3z "></path> </g> <path style="fill:#FFFFFF;" d="M74,313.8c-10.8,1.4-21.7-14.9-24.4-35.9c-2.7-21,4.1-39.3,14.9-40.6s21.7,14.9,24.4,35.9 C91.6,294.2,84.8,312.5,74,313.8z"></path> <path style="fill:#FFFFFF;" d="M321,209.6c2,19.6-11.5,37.9-31.1,39.9c-19.6,2-37.2-12.2-39.3-31.8s11.5-37.9,31.1-39.9 C301.4,175.8,319,190,321,209.6z"></path> <g> <path style="fill:#FFFFFF;" d="M386,202.8c-6.8-60.2-58.9-103.5-115-97.5c-56.8,6.8-97.5,60.9-90.7,120.5 c6.1,51.4,44.7,91.4,92,96.8c0,0-0.7-10.2-2-21c-1.4-10.2-2.7-20.3-2.7-20.3l-12.2,1.4c0,0-14.2-13.5-25-29.1 c-10.2-14.9-17.6-31.8-17.6-31.8s5.4-18.3,12.2-35.9s15.6-33.2,15.6-33.2s16.2-4.1,33.8-6.1c18.3-2,37.2-2,37.2-2 s12.9,12.9,23,27.7c10.8,15.6,19.6,33.2,19.6,33.2s-2,16.9-9.5,34.5c-6.8,17.6-18.9,35.2-18.9,35.2l-10.8,2c0,0,1.4,9.5,2,19.6 c0.7,10.8,1.4,21,1.4,21C363,301.7,392.1,254.3,386,202.8z"></path> </g> <path style="fill:#FFFFFF;" d="M365,112.2c-26.4-23.7-48-42-47.4-43.3c0-0.7,6.8,2,16.9,7.4c6.1,2.7,21,11.5,37.9,26.4 c27.1,23.7,41.3,49.4,40.6,50.8C413.1,155.5,391.4,135.8,365,112.2z"></path> <g> <path style="fill:#FFFFFF;" d="M177.6,65.5c-14.2,4.7-26.4,10.8-37.2,17.6c14.9-2.7,43.3-9.5,69.7-25.7 C201.9,58,188.4,61.4,177.6,65.5z"></path> <path style="fill:#FFFFFF;" d="M273.7,59.4c-1.4-2.7-18.9-6.1-42-4.7c4.7,0.7,9.5,2,12.9,4.1l-50.8,23l-60.9,16.2 c0,0-3.4,0-7.4-4.1c-15.6,12.2-25.7,23-25.7,25.7c0.7,5.4,42-4.7,90-21C237.8,81.7,275,64.1,273.7,59.4z"></path> </g> <path style="fill:#FFFFFF;" d="M410.4,273.2c6.1-44.7,15.6-81.2,19.6-79.9c2.7,0.7,14.2,39.9,8.1,84.6c-5.4,37.2-23,77.2-30.5,76.5 C402.2,354.4,404.3,317.9,410.4,273.2z"></path> <g> <path style="fill:#FFFFFF;" d="M210,441.1c-22.3-4.7-33.8-13.5-36.5-25.7c-6.8-27.1,36.5-51.4,90.7-59.6 c49.4-7.4,91.4,8.1,96.1,26.4c3.4,14.2-3.4,25.7-22.3,37.9c3.4-18.9,0.7-31.1,0.7-31.1c-27.7-7.4-71.1-11.5-71.1-11.5 c-46.7,17.6-67,33.8-67,33.8S201.9,427.5,210,441.1z"></path> </g> <path style="fill:#FFFFFF;" d="M312.2,417.4c1.4,9.5-14.2,20.3-35.2,23.7c-21,3.4-39.3-1.4-40.6-11.5c-1.4-9.5,14.2-20.3,35.2-23.7 C292.6,403.2,310.9,407.9,312.2,417.4z"></path> </g> </svg> 