<?xml version="1.0" encoding="UTF-8"?> <!-- Generator: Adobe Illustrator 24.3.0, SVG Export Plug-In . SVG Version: 6.00 Build 0) --> <svg xmlns="http://www.w3.org/2000/svg" xmlns:xlink="http://www.w3.org/1999/xlink" version="1.1" id="Layer_1" x="0px" y="0px" viewBox="0 0 500 500" style="enable-background:new 0 0 500 500;" xml:space="preserve"> <path style="fill:#FFFFFF;" d="M368,305.5c8.2-2.9,15.7-7.3,22.3-13c1.7-1.4,2.5-3.8,1.9-5.9c-0.5-2-2.1-3.6-4.2-4 c-1.8-1-19.8-12.3-19.8-83.9v-29.2c0-65.1-52.8-117.9-117.9-117.9c-65.1,0-117.9,52.8-117.9,117.9c-0.1,0.5-0.1,1,0,1.5v27.5 c0,71.6-18,82.9-19.8,83.9c-2.1,0.4-3.7,1.9-4.2,4c-0.6,2.3,0.3,4.7,2.1,6.1c6.5,5.7,14,10.1,22.1,13.1 c-25.3,11.5-41.5,36.7-41.5,64.5v35.3c0,13,10.5,23.5,23.5,23.5h271.3c13,0,23.5-10.5,23.5-23.5v-35.5 C409.4,342.2,393.2,317,368,305.5L368,305.5z M256.1,417.1v-11.7c-0.3-3.3-3.2-5.7-6.4-5.4c-2.9,0.3-5.1,2.5-5.4,5.4v11.8H217 c-19.7-24.8-42.9-62.4-47.8-106.3c7.8-0.2,15.4-1.6,22.7-4.3c-0.4,1.4-0.6,2.9-0.6,4.4c0,9.8,7.9,17.7,17.7,17.7 c4.9,0,9.6-2.1,13-5.7l10.7,4.7c0,0.4,0,0.8,0,1.1c0,9.8,7.9,17.7,17.7,17.7s17.7-7.9,17.7-17.7c0-0.4,0-0.8,0-1.1l10.6-4.7 c6.6,7.2,17.8,7.7,25,1.1c3.7-3.4,5.7-8.1,5.7-13.1c0-1.6-0.2-3.2-0.6-4.7c7.3,2.7,14.9,4.2,22.7,4.4 c-4.7,43.8-28.2,81.4-47.8,106.3L256.1,417.1z M157.4,311.3c4.7,42.8,25.3,79.9,44.8,105.9h-62.7c5.9-34.7,9.3-69.8,10-105 C152,311.7,154.7,311.4,157.4,311.3z M250.3,275.6c12.4,0,24.7-3,35.7-8.7c-0.3,9.2,1.9,18.4,6.3,26.4h-0.8 c-9.8,0-17.7,7.9-17.7,17.6c0,0,0,0,0,0c0,0.4,0,0.8,0,1.1l-10.6,4.7c-6.6-7.2-17.8-7.6-25-1c-0.4,0.3-0.7,0.7-1,1l-10.6-4.7 c0-0.4,0-0.8,0-1.1c0-9.8-7.9-17.7-17.7-17.7h-0.5c4.5-8,6.7-17.1,6.3-26.3C225.7,272.6,237.8,275.6,250.3,275.6L250.3,275.6z M297.3,310.9c0,3.3-2.7,5.9-5.9,5.9c-3.3,0-5.9-2.7-5.9-5.9c0-3.3,2.7-5.9,5.9-5.9c0,0,0,0,0,0C294.7,305,297.3,307.6,297.3,310.9 C297.3,310.9,297.3,310.9,297.3,310.9z M256,328.6c0,3.3-2.6,5.9-5.9,6c-3.3,0-5.9-2.6-6-5.9c0-3.3,2.6-5.9,5.9-6c0,0,0.1,0,0.1,0 C253.4,322.7,256,325.4,256,328.6z M209,305.1c3.3,0,5.9,2.6,6,5.9c0,3.3-2.6,5.9-5.9,6c-3.3,0-5.9-2.6-6-5.9c0,0,0,0,0,0 C203.1,307.8,205.7,305.1,209,305.1z M343.2,311.3c2.7,0.2,5.3,0.6,7.9,1.1c0.7,35.1,4.1,70.2,10,104.8h-62.7 C317.8,390.9,338.7,353.9,343.2,311.3z M131.6,277.2c8.4-16.8,12.6-43.2,12.6-78.5v-29.3c0-0.5,0-0.9,0-1.4 c0.4-58.6,48.2-105.8,106.8-105.4c58.6,0.4,105.8,48.2,105.4,106.8v29.1c0,35.3,4.2,61.7,12.6,78.5c1.9,4,4.4,7.8,7.4,11 c-11.2,7.2-24.3,11-37.6,11h-1.8c-39.3,0-39.3-18.2-39.3-39.3c0-0.1,0-0.3,0-0.4c22.4-17.3,35.3-44,35.1-72.3 c0.3-26.6-11.2-52-31.3-69.4c-1.1-1-2.5-1.5-3.9-1.4c-1.2,0-2.3,0.3-3.3,0.9C253.1,144,205,158.1,156,157.6c-3.2,0-5.9,2.6-5.9,5.9 c0,3.2,2.6,5.9,5.9,5.9c0,0,0,0,0,0c49.9,0.4,98.8-13.4,141.1-39.9c15.5,15.1,24.2,35.9,24,57.6c0,42.3-31.7,76.6-70.5,76.6 S180,229.3,180,187.1c0.3-3.3-2.1-6.1-5.4-6.4c-3.3-0.3-6.1,2.1-6.4,5.4c0,0.4,0,0.7,0,1.1c-0.4,28.3,12.5,55.1,34.9,72.5l0,0 c0,21.1,0,39.3-39.3,39.3h-0.4c-0.4,0-0.7,0-1.1,0H162c-13.3-0.1-26.4-3.9-37.6-11c3-3.3,5.5-7,7.4-11L131.6,277.2z M102.9,405.3 v-35.5c0-23.2,13.5-44.3,34.7-53.9c-0.9,33.8-4.3,67.6-10.2,100.9h-12.7C108.2,416.9,103,411.8,102.9,405.3z M397.7,405.3 c0,6.5-5.3,11.8-11.8,11.8h-12.8c-5.8-33.4-9.2-67.2-10.2-101.1c21.2,9.5,34.8,30.6,34.8,53.9V405.3z"></path> </svg> 