<?xml version="1.0" encoding="UTF-8"?> <!-- Generator: Adobe Illustrator 24.3.0, SVG Export Plug-In . SVG Version: 6.00 Build 0) --> <svg xmlns="http://www.w3.org/2000/svg" xmlns:xlink="http://www.w3.org/1999/xlink" version="1.1" id="Layer_1" x="0px" y="0px" viewBox="0 0 500 500" style="enable-background:new 0 0 500 500;" xml:space="preserve"> <g> <path style="fill:#FFFFFF;" d="M402.5,180.9c2.5,2.5,6.6,2.5,9.9,0l9.9-9.9c2.5-2.5,2.5-6.6,0-9.9l-21.5-21.5 c-2.5-2.5-6.6-2.5-9.9,0l-9.9,9.9c-2.5,2.5-2.5,6.6,0,9.9l0.8,0.8l-6.6,6.6c-17.3-13.2-37.1-22.3-60.2-24.8v-12.4h7.4 c4.1,0,6.6-3.3,6.6-6.6v-19.8c0-4.1-3.3-6.6-6.6-6.6h-42.9c-4.1,0-6.6,3.3-6.6,6.6v19.8c0,4.1,3.3,6.6,6.6,6.6h7.4v12.4 c-22.3,2.5-42.9,11.6-60.2,24.8l-6.6-6.6l0.8-0.8c2.5-2.5,2.5-6.6,0-9.9l-9.1-9.1c-2.5-2.5-6.6-2.5-9.9,0l-21.4,21.4 c-2.5,2.5-2.5,6.6,0,9.9l9.9,9.9c2.5,2.5,6.6,2.5,9.9,0l0.8-0.8l6.6,6.6c-15.7,20.6-25.6,46.2-25.6,73.4 c0,66,53.6,119.6,119.6,119.6s119.6-53.6,119.6-119.6c0-28.1-9.9-53.6-25.6-73.4L402.5,180.9L402.5,180.9z M301,352.5 c-50.3,0-91.6-41.2-91.6-91.6s41.2-91.6,91.6-91.6s91.6,41.2,91.6,91.6S351.3,352.5,301,352.5L301,352.5z"></path> <path style="fill:#FFFFFF;" d="M100.5,293.1c-6.6,0-11.5,4.9-11.5,11.6c0,6.6,5,11.5,11.5,11.5h64.3c1.7,0,2.5,0,3.3-0.8 c-3.3-7.4-5.8-14.8-7.4-23.1L100.5,293.1L100.5,293.1z"></path> <path style="fill:#FFFFFF;" d="M168.2,205.6c-0.8,0-2.5-0.8-3.3-0.8H63.4c-6.6,0-11.5,4.9-11.5,11.5c0,6.6,4.9,11.6,11.5,11.6h97.3 C162.4,221.3,164.9,213,168.2,205.6L168.2,205.6z"></path> <path style="fill:#FFFFFF;" d="M157.5,260.9c0-4.1,0-8.2,0.8-11.6H79.9c-6.6,0-11.5,4.9-11.5,11.6c0,6.6,5,11.6,11.5,11.6h77.6 C157.5,269.1,157.5,265,157.5,260.9L157.5,260.9z"></path> <path style="fill:#FFFFFF;" d="M358.8,227.1c-1.6-3.3-5.8-5-9.9-2.5l-41.2,20.6c-4.9-1.6-10.7-1.6-16.5,0.8 c-8.2,4.9-11.6,16.5-6.6,24.7c4.9,8.2,16.5,11.6,24.8,6.6c4.9-3.3,8.2-8.2,9.1-13.2l38-26.4C359.6,234.5,360.4,230.4,358.8,227.1 L358.8,227.1z M308.4,262.5c-0.8,4.1-5.8,6.6-9.9,5.8s-6.6-5.8-5.8-9.9c0.8-4.1,5.8-6.6,9.9-5.8 C307.6,254.3,310.1,258.4,308.4,262.5L308.4,262.5z"></path> <path style="fill:#FFFFFF;" d="M326.6,215.5c3.3,1.7,8.2,0.8,9.9-2.5c1.6-3.3,0.8-8.2-2.5-9.9c-3.3-1.7-8.2-0.8-9.9,2.5 c-1.7,2.5-0.8,5,0,7.4C324.9,213.9,325.8,214.7,326.6,215.5L326.6,215.5z"></path> <path style="fill:#FFFFFF;" d="M301,208.1c4.1,0,7.4-3.3,7.4-7.4s-3.3-7.4-7.4-7.4s-7.4,3.3-7.4,7.4c0,1.7,0,2.5,0.8,4.1 C295.2,207.3,297.7,208.9,301,208.1L301,208.1z"></path> <path style="fill:#FFFFFF;" d="M301.8,313.7c-4.1,0-7.4,3.3-7.4,7.4c0,1.6,0,2.5,0.8,3.3c1.6,2.5,4.1,4.1,6.6,3.3 c4.1,0,7.4-3.3,7.4-7.4C309.3,317,306,313.7,301.8,313.7L301.8,313.7z"></path> <path style="fill:#FFFFFF;" d="M327.4,306.3c-3.3,1.6-5,6.6-2.5,9.9c1.6,3.3,6.6,5,9.9,2.5c3.3-1.6,5-6.6,2.5-9.9 C335.7,305.4,331.5,303.8,327.4,306.3L327.4,306.3z"></path> <path style="fill:#FFFFFF;" d="M357.1,284c-3.3-1.7-8.2-0.8-9.9,2.5c-1.6,2.5-0.8,4.9,0,7.4c0.8,0.8,1.7,1.6,2.5,2.5 c3.3,1.6,8.2,0.8,9.9-2.5C362.1,290.6,360.4,285.6,357.1,284L357.1,284z"></path> <path style="fill:#FFFFFF;" d="M248.2,261.7c0-4.1-3.3-7.4-7.4-7.4s-7.4,3.3-7.4,7.4c0,1.7,0,2.5,0.8,3.3c1.7,2.5,4.1,4.1,6.6,3.3 C245.7,269.1,249,265.8,248.2,261.7L248.2,261.7z"></path> <path style="fill:#FFFFFF;" d="M245.7,284.8c-3.3,1.6-5,6.6-2.5,9.9c1.7,3.3,6.6,4.9,9.9,2.5c3.3-1.7,5-6.6,2.5-9.9 C254,284,249,283.2,245.7,284.8L245.7,284.8z"></path> <path style="fill:#FFFFFF;" d="M353.8,260.9c0,1.6,0,2.5,0.8,4.1c1.7,2.5,4.1,3.3,6.6,3.3c4.1,0,7.4-3.3,7.4-7.4s-3.3-7.4-7.4-7.4 C357.1,252.6,353.8,256.8,353.8,260.9L353.8,260.9z"></path> <path style="fill:#FFFFFF;" d="M244.9,237.8c3.3,1.7,8.2,0.8,9.9-2.5c1.6-3.3,0.8-8.2-3.3-9.9c-3.3-1.7-8.2-0.8-9.9,2.5 c-1.7,2.5-0.8,4.9,0,7.4C243.3,236.1,244.1,237.8,244.9,237.8L244.9,237.8z"></path> <path style="fill:#FFFFFF;" d="M274.6,215.5L274.6,215.5L274.6,215.5L274.6,215.5c4.1-2.5,4.9-6.6,2.5-9.9 c-1.6-3.3-6.6-4.9-9.9-2.5l0,0l0,0c-3.3,1.7-4.9,6.6-2.5,9.9C266.4,217.2,270.5,218,274.6,215.5L274.6,215.5z"></path> <path style="fill:#FFFFFF;" d="M275.4,307.1c-3.3-1.6-8.2-0.8-9.9,2.5c-1.7,2.5-0.8,4.9,0,7.4c0.8,0.8,1.6,1.6,2.5,2.5 c3.3,1.7,8.2,0.8,9.9-2.5C280.4,312.9,278.7,308.7,275.4,307.1L275.4,307.1z"></path> </g> </svg> 