<?xml version="1.0" encoding="UTF-8"?> <!-- Generator: Adobe Illustrator 24.3.0, SVG Export Plug-In . SVG Version: 6.00 Build 0) --> <svg xmlns="http://www.w3.org/2000/svg" xmlns:xlink="http://www.w3.org/1999/xlink" version="1.1" id="Layer_1" x="0px" y="0px" viewBox="0 0 500 500" style="enable-background:new 0 0 500 500;" xml:space="preserve"> <g> <path style="fill:#FFFFFF;" d="M412.1,130c22.5,0,44.5,0,67,0c5.4,0,9,3.6,8.5,9c0,1.8-1.3,3.6-2.2,4.5c-2.7,3.1-5.8,6.3-9,9 C442.2,186.6,408,220.8,374.3,255c-7.6,7.6-15.3,15.7-22.9,23.4c-4.5,4.5-10.8,4-13.5-1.3c-0.9-1.3-0.9-3.1-0.9-4.5 c0-44.5,0-89,0-134c0-4.5,3.6-9,9-9C367.5,130.4,389.6,130,412.1,130z"></path> <path style="fill:#FFFFFF;" d="M244.8,130c22.5,0,44.5,0,67,0c3.6,0,7.2,2.2,8.1,4.9c1.3,3.1,0.4,6.7-2.2,9.4 c-18.4,18.4-36.9,36.9-55.3,55.3c-18.4,18.4-36.4,36.9-54.9,55.3c-8.1,8.1-15.7,15.7-23.8,23.8c-2.7,3.1-6.3,4-9.9,2.2 c-3.6-1.8-4.9-4.5-4.9-8.5c0-44.5,0-89,0-133.1c0-4.5,3.1-9.4,9.4-9.4C200.7,130.4,222.7,130,244.8,130z"></path> <path style="fill:#FFFFFF;" d="M152.6,206c0,22.5,0,44.5,0,67c0,3.6-1.3,6.3-4.9,8.1c-3.1,1.3-6.7,0.4-9.4-2.2 c-17.1-17.1-34.2-34.2-50.8-51.3c-11.2-11.2-22-22-33.3-33.3C37.5,177.6,20.8,161,4.2,144.4c-5.8-5.8-2.7-12.1,2.2-14.4 c1.3-0.4,3.1-0.4,4.9-0.4c43.6,0,87.2,0,130.9,0c1.3,0,3.1,0,4.5,0.4c3.6,0.9,5.4,4,5.4,7.6C152.6,160.5,152.6,183.5,152.6,206z"></path> <path style="fill:#FFFFFF;" d="M197.6,339.5c-4.5,9-9,18-13.5,26.5c-0.9,1.3-1.3,3.1-2.2,4c-0.4,0.9-1.8,1.3-2.7,1.8 c-2.7,0-5.4,0-8.1,0c-1.3,0-2.2-0.4-2.2-2.2c0-18.4,0-37.3,0-55.8c0-1.8,0.4-2.2,2.2-2.2c3.1,0,6.3,0,9.9,0c0,12.1,0,23.8,0,35.5 h0.4c2.7-4.9,4.9-9.9,7.6-14.8c1.3-2.7,2.7-5.4,4-8.1c0.4-0.9,1.8-1.3,2.7-1.8c4-0.9,6.3,0.9,8.1,4.9c2.7,6.7,6.3,13,9.4,19.8 c0.4-1.3,0.4-1.8,0.4-2.7c0-10.3,0-20.2,0-30.6c0-1.8,0.4-2.7,2.7-2.7s4.5,0,6.7,0c1.8,0,2.7,0.4,2.7,2.2c0,5.8,0,12.1,0,18 c0,12.1,0,24.3,0,36.4c0,2.7-0.9,3.1-3.6,3.1c-8.1,0-8.1,0-12.1-7.2c-4-7.6-8.1-15.7-12.1-23.4C198.5,340.9,198,340.4,197.6,339.5z "></path> <path style="fill:#FFFFFF;" d="M475.9,348.5c0-11.7,0-22.5,0-33.3c0-3.6,0-3.6,3.6-3.6c2.2,0,4.9,0,7.2,0c0,0,0.4,0,0.9,0 c0,19.8,0,40,0,60.3c-3.1,0-5.8,0-9,0c-0.9,0-1.8-0.9-2.2-1.8c-6.7-10.8-13.5-21.1-20.2-31.9c-0.4-0.9-0.9-1.3-1.8-2.7 c0,6.3,0,12.1,0,17.5c0,5.4,0,10.8,0,15.7c0,2.2-0.4,3.1-3.1,2.7c-1.8,0-4,0-6.3,0c-2.7,0.4-2.7-0.9-2.7-3.1c0-17.1,0-34.2,0-51.3 c0-6.3,0-6.3,6.3-6.3c2.7,0,4.5,0,5.8,2.7c6.3,10.8,13,21.1,19.8,31.9C474.6,347.2,475,347.6,475.9,348.5z"></path> <path style="fill:#FFFFFF;" d="M336.1,341.8c0-9,0-18,0-27c0-2.2,0.4-3.1,3.1-3.1c7.6,0.4,15.3,0,22.9,0.4 c11.2,0.9,17.1,8.5,18,18.4c0.9,7.6,0.9,15.3,0,22.5c-1.3,12.1-8.1,18.4-21.1,18.9c-6.7,0.4-13.9,0-20.7,0c-2.2,0-2.2-0.9-2.2-2.7 C336.1,360.2,336.1,351.2,336.1,341.8z M348.7,322c0,13,0,25.6,0,38.2c0,0.4,1.3,1.3,1.8,1.3c3.1,0,6.3,0,9.4-0.4 c3.6-0.4,6.3-2.7,7.2-6.3c2.2-8.5,1.8-17.1,0.4-25.6c-0.4-3.1-2.2-6.3-5.8-6.7C357.6,322,353.2,322.4,348.7,322z"></path> <path style="fill:#FFFFFF;" d="M429.1,371.9c-6.3,0-6.3,0-8.1-5.8c-1.8-5.4-1.8-5.4-7.6-5.4c-4,0-7.6,0-11.7,0 c-1.8,0-2.7,0.4-3.1,2.2c-0.4,2.2-1.8,4.5-2.2,6.7c-0.4,1.8-1.8,2.2-3.1,2.2c-2.7,0-5.8,0-8.5,0c-1.8,0-1.8-0.4-1.3-2.2 c2.7-8.1,5.4-16.2,8.5-23.8c3.6-10.8,7.6-21.1,11.2-31.9c0.4-1.8,1.8-2.7,3.6-2.2c1.8,0,4,0,5.8,0c2.7-0.4,3.6,0.9,4.5,3.1 c4.9,15.3,10.3,30.1,15.7,45c0.9,3.1,2.2,6.3,3.1,9.4c0.9,2.2,0,2.7-1.8,2.7C432.3,371.9,430.9,371.9,429.1,371.9z M416.1,349.9 c-2.2-6.7-4-13-6.3-19.3c-0.4,0-0.4,0-0.9,0c-2.2,6.3-4,13-6.3,19.8C407.6,349.9,411.6,349.9,416.1,349.9z"></path> <path style="fill:#FFFFFF;" d="M231.7,371.9c0.4-0.9,0.4-1.8,0.4-2.2c6.3-18.4,13-36.9,19.3-55.3c0.4-1.8,1.3-2.7,3.6-2.2 c0.9,0,1.8,0,3.1,0c6.3,0,6.3,0,8.5,5.8c5.8,17.1,11.7,34.2,18,51.3c0.9,3.1,0.9,3.1-2.2,3.1c-2.2,0-4.9,0-7.2,0 c-1.8,0-2.7-0.4-3.1-2.2c-0.4-2.7-1.3-4.9-2.2-7.2c-0.4-1.3-0.9-1.8-2.7-1.8c-5.4,0-10.8,0-15.7,0c-1.3,0-2.2,0.4-2.7,1.8 c-0.9,2.7-1.8,5.4-2.7,7.6c-0.4,0.9-1.3,1.3-2.2,1.3C239.4,372.4,235.8,371.9,231.7,371.9z M265,350.3c-2.2-6.7-4-13-6.3-19.8 c-0.4,0-0.4,0-0.9,0c-2.2,6.3-4,13-6.3,19.8C256,350.3,260.1,350.3,265,350.3z"></path> <path style="fill:#FFFFFF;" d="M311.3,322c-1.8,0-3.1,0-4.5,0c-5.8,0-11.7,0-17.1,0c-1.8,0-2.7-0.4-2.2-2.7c0-1.8,0-3.6,0-5.4 c0-1.8,0.4-2.7,2.7-2.7c11.7,0,23.4,0,34.6,0c2.2,0,2.7,0.9,2.7,2.7c0.9,6.3-3.1,10.8-5.8,15.3c-5.4,9.9-11.2,19.8-17.1,29.7 c-0.4,0.4-0.4,1.3-0.9,2.2c8.1,0,16.2,0,24.3,0c0,3.6,0,6.7,0,10.3c-2.7,0-5.4,0-8.1,0c-9.9,0-19.3,0-29.2,0 c-2.2,0-2.7-0.4-3.1-3.1c-0.9-5.4,2.7-9.4,4.9-13.5c6.3-10.8,12.6-21.1,18.9-31.9C310.9,323.3,311.3,323.3,311.3,322z"></path> </g> </svg> 