<?xml version="1.0" encoding="UTF-8"?> <!-- Generator: Adobe Illustrator 24.3.0, SVG Export Plug-In . SVG Version: 6.00 Build 0) --> <svg xmlns="http://www.w3.org/2000/svg" xmlns:xlink="http://www.w3.org/1999/xlink" version="1.1" id="Layer_1" x="0px" y="0px" viewBox="0 0 500 500" style="enable-background:new 0 0 500 500;" xml:space="preserve"> <g> <path style="fill:#FFFFFF;" d="M263.1,57.6c-12.5,0-22.1-10.3-22.1-22.1c0-12.5,10.3-22.1,22.1-22.1c12.5,0,22.1,10.3,22.1,22.1 C285.2,48,274.9,57.6,263.1,57.6z M263.1,25.1c-5.9,0-10.3,4.4-10.3,10.3s4.4,10.3,10.3,10.3s10.3-4.4,10.3-10.3 C273.4,29.6,269,25.1,263.1,25.1z"></path> <g> <rect x="450.5" y="235.5" style="fill:#FFFFFF;" width="30.3" height="30.3"></rect> <path style="fill:#FFFFFF;" d="M481.5,266.5h-32.5V234h32.5V266.5z M451.3,265h28.8v-28.8h-28.8V265z"></path> </g> <path style="fill:#FFFFFF;" d="M472.7,224.4h-13.3c0-101.1-82.7-183.8-183.8-183.8V28.1C384.9,28.1,472.7,115.9,472.7,224.4z"></path> </g> <g> <path style="fill:#FFFFFF;" d="M257.2,462.1c-12.5,0-22.1-10.3-22.1-22.1c0-12.5,10.3-22.1,22.1-22.1c12.5,0,22.1,10.3,22.1,22.1 C280.1,452.5,269.7,462.1,257.2,462.1z M257.2,429.6c-5.9,0-10.3,4.4-10.3,10.3c0,5.9,4.4,10.3,10.3,10.3c5.9,0,10.3-4.4,10.3-10.3 C268.2,434,263.1,429.6,257.2,429.6z"></path> <g> <rect x="39.4" y="210.4" style="fill:#FFFFFF;" width="30.3" height="30.3"></rect> <path style="fill:#FFFFFF;" d="M71.2,241.4H38.7v-32.5h32.5V241.4z M40.2,239.2H69v-28.8H40.2V239.2z"></path> </g> <path style="fill:#FFFFFF;" d="M243.9,447.3c-108.5,0-196.3-87.8-196.3-196.3h13.3c0,101.1,82.7,183.8,183.8,183.8L243.9,447.3 L243.9,447.3z"></path> </g> <path style="fill-rule:evenodd;clip-rule:evenodd;fill:#FFFFFF;" d="M273.4,114.4c0,0-1.5-3-1.5-5.9c-0.7-3-8.9-8.1-8.9-8.1 s-2.2-5.9-7.4-11.1c1.5,2.2,3,5.2,3,7.4c0,0-3-5.9-4.4-7.4c0,0,0.7,5.9-5.9,3.7c-6.6-3-12.5-11.1-12.5-11.1s-0.7-3,8.9,0 c-10.3-4.4-13.3-3.7-13.3-3.7s-0.7,1.5-3,3c-0.7,3-0.7,8.1,3.7,14.8c0,0-5.2-5.2-5.9-10.3c0,0,0,6.6,3,11.8c0,0-4.4-3.7-5.2-9.6 c0,0-0.7,5.2,3.7,11.1c0,0-4.4-3.7-5.9-8.1c0,0,0,4.4,2.2,8.1c0,0-3.7-3-4.4-9.6c-0.7,1.5-1.5,3-2.2,4.4c-2.2,5.9-3,5.2-4.4,5.9 s-1.5,2.2,4.4,6.6c5.9,4.4,8.1,8.9,12.5,17.7c0,0-9.6-11.8-12.5-13.3l-1.5,0.7c0,0-2.2-3.7-7.4-3.7c0,0,9.6,3.7,11.8,14 c0,0-3.7-8.9-12.5-12.5c0,0,7.4,3.7,8.1,12.5c0,0-2.2-13.3-14.8-11.8c0,0-5.9,3-8.9,3c0,0-1.5,0-3,3.7c-1.5,3.7-6.6,12.5-8.9,14 c0,0-0.7,1.5-1.5,9.6c0,2.2-0.7,3.7-0.7,4.4c2.2-3.7,6.6-11.8,9.6-17c3.7-8.1,5.9-11.8,16.2-14.8c0,0-6.6,3-9.6,11.8 c0,0,3-3.7,7.4-5.2c0,0-5.9,4.4-6.6,8.9c0,0,0,2.2,0.7,4.4c0.7-1.5,1.5-2.2,3.7-3.7c0,0-7.4,5.9,1.5,10.3h-3c0,0,3.7,2.2,8.1,1.5 c0,0,0,2.2,3,4.4c3,2.2,5.2-6.6,5.2-6.6s-0.7,4.4,1.5,6.6c3,2.2,7.4,1.5,7.4,1.5s-2.2-0.7-2.2-5.9c0,0,0.7,5.9,5.2,6.6 c0,0-8.1,2.2-14.8-2.2l-5.9-3.7l0.7,1.5c0,0-5.2,0-6.6-2.2c-1.5-1.5-4.4-5.2-3.7-8.9c-1.5-0.7-3.7-3.7-3.7-6.6c0,0-4.4,3.7-1.5,11.1 c0,0-4.4,7.4-12.5,12.5c-0.7,1.5-0.7,2.2-1.5,3.7c-1.5,3.7-0.7,6.6-0.7,7.4s-1.5,4.4-2.2,8.1l0.7,8.1c0,0,0,1.5-2.2,3.7 c-2.2,1.5-1.5,3-1.5,3s2.2,3.7,2.2,3c0.7-0.7,2.2-1.5,2.2-2.2c0-0.7,0,3,0,4.4s0,3.7,1.5,5.9c1.5,3,1.5,13.3,12.5,16.2 c0,0,1.5,0,8.1,4.4c5.9,4.4,11.1,3.7,11.1,3.7s-3-5.2,1.5-11.1c0,0-1.5,5.9-1.5,8.9c0,0,1.5-10.3,13.3-8.1c0,0-11.8,3-11.8,9.6 c0,0,1.5-3,4.4-1.5c0,0-3.7,1.5-5.2,5.2s-2.2,9.6-2.2,9.6s-15.5,5.2-27.3,9.6c-11.8,4.4-46.5,22.1-46.5,22.1s-1.5,4.4,0.7,4.4v-3.7 c0,0,3-0.7,3.7-1.5c0,2.2,19.2-8.1,19.2-8.1l5.2,8.1c0,0-12.5,4.4-20.7,5.2c0,0,8.9,0,22.1-3.7c0,0,21.4,0.7,26.6,3 c0,0-2.2,2.2-3,5.9c0,0,0-2.2,0-3c0,0-2.2,3-1.5,7.4c0.7,4.4,4.4,5.9,4.4,5.9s-2.2-2.2-3-4.4c0,0,1.5,3,5.9,4.4 c4.4,1.5,15.5,2.2,17.7,2.2c0-4.4,0-11.8,0-11.8c0-0.7-2.2-14.8-2.2-16.2s0.7-3.7,0-5.9c0-2.2-3.7-15.5-3.7-15.5s3,5.2,11.1,9.6 h-4.4l5.9,4.4l-6.6-1.5c0,0,3.7,6.6,8.9,9.6h-4.4l5.2,3.7c0,0-6.6,3-8.1,8.1c0,0,2.2-5.9,14-1.5c0,0,8.1-1.5,14-0.7 c0.7,0,1.5,0,1.5,0.7c-4.4,0-6.6,1.5-6.6,1.5c9.6-3,12.5,3,7.4,5.9c0,0,2.2-5.2-4.4-3.7s-15.5,5.9-15.5,5.9h0.7l-5.2,3l5.9,5.2 c0,0-3.7,1.5-8.9,2.2c0,0.7-1.5,3.7-1.5,6.6l-3,1.5c-3.7-2.2-8.9-4.4-14-5.2c-5.2-0.7-10.3-0.7-15.5,0.7c4.4-0.7,16.2,0,25.8,6.6 c-1.5,0.7-3,1.5-5.2,3c-19.9-14-50.9-2.2-59,31.7c-6.6,27.3,6.6,53.1,29.5,57.6c15.5,3,31.7-5.2,42.8-18.5 c-25.8,19.9-43.5,11.1-43.5,11.1c43.5,0,62-36.2,55.4-63.5c0,0,0.7,0,0.7,0.7c0,0-1.5-1.5,0-3.7c1.5-1.5,3,0.7,3,0.7s0-0.7-0.7-2.2 l6.6-6.6c0,0-1.5,3-1.5,2.2c0,0,2.2-1.5,1.5-1.5l-3,3c0,0,6.6-5.2,8.1-6.6c0,0-8.1,8.1-9.6,10.3c-1.5,2.2-1.5,3-3.7,3 c0,0,2.2,1.5,3.7-2.2c1.5-3,4.4-4.4,5.9-3c1.5,1.5-1.5,4.4-5.2,5.2c0,0,3.7,0.7,5.2-0.7c0,0-0.7,1.5-3,1.5c0,0,2.2,0,3.7-1.5 c0,0-0.7,0.7-1.5,1.5c0,0,4.4-0.7,4.4-5.2c0,0,0,1.5-1.5,3c0,0,0.7,0,0.7-4.4s0-4.4,0-4.4l0.7,1.5c0,0,2.2-3.7,4.4-4.4 c1.5-0.7,3.7,0.7,3.7,0.7s-5.9,3.7-7.4,6.6c0,0,7.4-6.6,11.1-5.2s6.6,3.7,10.3,1.5c3.7-2.2,24.4-8.9,30.3-16.2s6.6-26.6,6.6-26.6 l0.7,2.2c0,0,4.4-7.4,3-11.8l-0.7-1.5c0,0-1.5-0.7-3,0.7c0,0,0,3.7-0.7,7.4l-3.7-15.5c0,0,3,3,3.7,4.4c0,0,0.7,1.5,3.7,2.2 c3,0.7,3,0,3.7-1.5c0,0,0,1.5-0.7,2.2c0,0,1.5,0,1.5-2.2v-1.5l2.2,0.7l5.2-5.2c0,0,0-19.2,5.9-25.1c0,0,0.7,1.5,3.7,1.5l5.2,6.6 c-4.4,7.4-8.1,16.2-10.3,26.6c-4.4,28.8,20.7,52.4,48,45c0,0-14.8,8.1-35.4-3c7.4,6.6,17,11.1,28,11.1c26.6,0,52.4-23.6,57.6-53.1 c5.2-29.5-13.3-53.1-39.9-53.1c0,0,53.1,17,27.3,68.6c23.6-52.4-31-79.7-63.5-54.6c0-0.7-0.7-2.2-2.2-4.4c-1.5-2.2-14-14-15.5-15.5 l8.9,10.3c-18.5-14.8-25.1-30.3-25.1-30.3l11.1,13.3l-1.5-2.2l1.5-4.4c0,0,23.6-14,35.4-15.5c0,0,15.5,2.2,28.8,7.4c0,0-0.7,2.2-3,3 c0,0,5.2-2.2,3.7-3.7c-2.2-2.2-25.1-8.9-30.3-8.1c-5.2,0.7-33.2,13.3-33.2,13.3l14-8.1c0,0-14.8,5.2-16.2,6.6 c-2.2,1.5-5.2,2.2-5.2,2.2s-13.3-16.2-15.5-19.2c-2.2-3-8.9-5.9-15.5-8.1c11.1,7.4,14.8,8.1,24.4,21.4 c-15.5,5.9-20.7-24.4-30.3-22.9c-2.2,0-3,0.7-3,0.7s-3.7-0.7-4.4-2.2c-0.7-1.5-1.5-3-3-2.2h-0.7c0,0-3-2.2-4.4-2.2 c-1.5,0-3-0.7-3-0.7s3,0,0.7-3c-2.2-3-5.2-3.7-5.2-3.7c-0.7,0-3,1.5-4.4,1.5c-0.7,0-5.9-5.2-5.9-5.2l3,2.2l-3-5.2c0,0,0,0,1.5-0.7 l0,0c-5.9,1.5-8.1-8.9-8.1-8.9l-3-8.9l5.2,11.1c0,0,0.7-3,1.5-3l-2.2-5.9l3,4.4c0.7,0.7-3.7-7.4-3.7-7.4l5.2,7.4l-0.7-2.2l5.2,8.1 c0,0.7,0,1.5,0.7,1.5s1.5-0.7,2.2-3c1.5-3,0.7-2.2,0.7-2.2s0-2.2-3-2.2s-5.2-3.7-5.9-4.4c-0.7-0.7-6.6-11.1-6.6-13.3l1.5,0.7 c0,0-0.7,3.7,3,6.6L238,110c0,0,3.7,6.6,5.9,5.9c2.2-0.7,4.4-2.2,5.2-0.7c0,0-2.2,1.5-1.5,3.7c0.7,2.2,2.2,0.7,2.2,1.5 c0.7,0.7,0.7-2.2,1.5-3c0.7-0.7,5.2-5.2,5.2-5.2s3,0,3-1.5c0,0,0,0.7-0.7,1.5c0,0,1.5,0,2.2-2.2c0.7-2.2,0.7-1.5,0.7-1.5l8.1,3 l-7.4-3.7l0,0c0,0-5.2-5.2-6.6-5.2c-1.5,0-5.9-0.7-7.4-2.2s-5.9-3.7-5.9-3.7s2.2-1.5,3-1.5c1.5,0,9.6,4.4,11.8,5.9 c2.2,1.5,5.2,3,5.2,3l0,0l9.6,3.7C271.9,107.8,271.2,112.2,273.4,114.4L273.4,114.4z M274.1,243.6c16.2,14,8.1,29.5-1.5,42.8 c8.9-13.3,7.4-28,7.4-28l-14,15.5l9.6-16.2L274.1,243.6L274.1,243.6z M337.6,238.4l2.2,3c0,0-4.4,9.6-3.7,14.8c0,0,0.7-8.1,5.2-12.5 l5.9,7.4c0,0-0.7,1.5-2.2,2.2s0,0.7-0.7,1.5c-0.7,0.7-0.7,0.7-0.7,1.5s2.2,0.7,1.5,2.2c-0.7,0.7-2.2-1.5-2.2-1.5s-0.7-1.5-1.5-0.7 s0,2.2,0,2.2s-0.7,0-1.5,0.7c0,0.7,0.7,0.7,2.2,0.7c1.5-0.7,1.5,0,1.5,0s0,0.7,0.7,1.5c0.7,0.7,2.2,1.5,2.2,1.5s-1.5-0.7-2.2,0 c-0.7,0.7-5.2,0.7-5.9-8.1c0,0-1.5,7.4,4.4,9.6c0,0-1.5,0-1.5,0.7c0,0.7,0.7,2.2,0.7,2.2s0-1.5,2.2-3c0,0-1.5,1.5-1.5,2.2 c0,0,0.7-0.7,1.5-1.5c0,0-0.7,1.5-0.7,2.2c0,0,0.7-1.5,1.5-1.5c0,0,0,0.7,0.7,0.7c0,0-1.5,2.2,1.5,4.4c2.2,2.2,5.2,2.2,5.9,0 c0,0,0.7,2.2,3.7,0.7c0,0,3,3.7,5.9,2.2l3-2.2c0,0,4.4,0.7,5.9-0.7c2.2-1.5,3-3.7,3-3.7s1.5-2.2,3-2.2s2.2-1.5,2.2-3.7 c0-2.2,0-3,0-3s3.7-3.7,3-6.6c-0.7-3-0.7-3-0.7-3s0-1.5,0-4.4s-3-4.4-3-4.4s-0.7-3-2.2-4.4s-4.4-0.7-4.4-0.7s-3.7-1.5-4.4-2.2 c-0.7,0-2.2,0.7-3.7,1.5s-1.5,0-4.4,0c-3,0-3.7,1.5-3.7,1.5l-1.5-3c0,0,0.7-0.7,0-2.2c-0.7,1.5,1.5,1.5,1.5,0.7s-1.5-2.2-2.2-2.2 c-0.7,0-1.5,1.5-1.5,1.5l-3.7-4.4c7.4-5.9,17-9.6,25.8-9.6c20.7,0,34,17.7,30.3,39.9c-3.7,22.1-22.9,39.9-43.5,39.9 c-5.2,0-9.6-0.7-13.3-3l0,0c0,0-25.8-4.4-19.9-50.2c0,0-1.5,11.8,2.2,22.9c0-3,0-6.6,0.7-9.6C332.5,250.2,334.7,244.3,337.6,238.4 L337.6,238.4z M335.4,222.2c-0.7,0.7-0.7,0.7-1.5,1.5c-3-5.9-5.2-10.3-5.2-10.3C331,216.3,333.2,219.2,335.4,222.2L335.4,222.2z M342.8,232.5c5.9,9.6,9.6,15.5,9.6,15.5s-2.2,1.5-7.4-4.4c-1.5-1.5-3-4.4-5.2-8.1C341.3,234,342,233.3,342.8,232.5L342.8,232.5z M346.5,265.7c0,0,3-1.5,1.5-3.7c-1.5-2.2-1.5-3-1.5-3s1.5,0.7,2.2,3C350.2,264.3,349.4,266.5,346.5,265.7L346.5,265.7z M358.3,262.8c0,0,1.5-0.7,3-1.5c0,0,2.2,2.2,6.6,0c4.4-2.2,5.2-5.2,5.2-5.2s1.5,1.5,0.7,2.2l-0.7-0.7c0,0-1.5,4.4-3.7,5.2 C367.1,265,364.9,263.5,358.3,262.8L358.3,262.8z M364.9,269.4c-3,3-8.1,0-8.1,0l0.7,1.5c-3-1.5-4.4-5.2-3.7-5.2 c0.7,0.7,3.7-0.7,3.7-0.7s2.2,0.7,5.2,0.7C365.7,265.7,364.9,269.4,364.9,269.4L364.9,269.4z M376,256.9c0,0,2.2,3-0.7,5.9 c-2.2,3-7.4,5.2-7.4,5.2s2.2-3.7,3-5.2C371.6,261.3,373.8,261.3,376,256.9L376,256.9z M360.5,243.6c0,0,2.2,3,0.7,3.7 c-0.7,0.7-3-0.7-3-0.7S362,247.3,360.5,243.6L360.5,243.6z M371.6,242.9c0,0-3,3-3.7,3c-0.7,0-3-3.7-3-3.7S367.9,242.1,371.6,242.9 L371.6,242.9z M376,243.6c0,0,0.7,0,2.2,0.7c0.7,0.7,1.5,3,1.5,4.4c0,1.5,0.7,3,0.7,5.9c0,3-2.2,2.2-3,0s-3-10.3-3-10.3L376,243.6 L376,243.6z M373.8,246.6c0,0,2.2,4.4,1.5,5.9c-0.7,1.5-3,0-3,0l-1.5-4.4L373.8,246.6L373.8,246.6z M364.2,240.6 c0,0,1.5-3.7,4.4-3.7c3,0,7.4,2.2,7.4,3c0,0.7-2.2,2.2-3,2.2C372.3,241.4,364.2,240.6,364.2,240.6L364.2,240.6z M358.3,244.3l1.5-3 l-1.5-1.5l-3,1.5c0,0,0,0,3-2.2s3-2.2,3-2.2s0.7,3,0,3.7C360.5,242.1,358.3,244.3,358.3,244.3L358.3,244.3z M209.2,320.4l1.5,4.4 l-9.6,11.8c0,0,0-5.9,0-7.4s-2.2-3-2.2-3L209.2,320.4L209.2,320.4z M198.1,306.3l4.4,2.2l-15.5,14.8c0,0-5.2-3-12.5,0.7 c0,0,5.2-1.5,10.3,0l-5.2,5.2l-0.7-5.2c0,0-5.2-1.5-10.3,3.7c0,0,2.2-4.4,10.3-8.9C187.1,315.2,198.1,306.3,198.1,306.3L198.1,306.3 z M195.9,304.9c-3,2.2-5.9,4.4-8.1,5.9c-7.4,5.9-21.4,12.5-24.4,22.1c-3,8.9-4.4,19.2,5.2,26.6c0,0,11.8,8.1,24.4-10.3 c0,0,0.7,1.5,3.7-0.7c3-2.2,6.6-6.6,6.6-6.6s-2.2,0-2.2-3.7c0,0,1.5,1.5,2.2,0.7c0.7,0,4.4-4.4,8.9-9.6c0.7,4.4,0,8.9-0.7,13.3 c-4.4,18.5-20.7,31.7-36.9,28.8c-8.1-1.5-14.8-7.4-18.5-14.8l0,0c0,0-8.9-17.7-1.5-37.6c0,0-0.7,5.2,0,13.3 c5.2-18.5,20.7-31,36.2-28C193,304.1,194.4,304.1,195.9,304.9L195.9,304.9z M217.3,322.6c0.7-0.7,1.5-1.5,2.2-3 c0.7,4.4,0.7,9.6,0,15.5C219.5,330.7,218.8,327,217.3,322.6L217.3,322.6z M225.4,313.7c2.2-2.2,3-3.7,3-3.7s1.5,0.7,0,2.2 c-0.7,0.7-1.5,0.7-1.5,0.7s3,0,3-3c0,0,0.7,3-2.2,4.4c0,0-0.7,0.7-0.7,1.5C226.2,315.2,225.4,314.5,225.4,313.7L225.4,313.7z M268.2,199.3c0,0,11.8-8.1,22.9-9.6c0,0-14,21.4-11.1,39.9c0,0-9.6-8.9-8.1-20.7c0,0-2.2,3-1.5,9.6c0,0-3-7.4,3-13.3 c0,0-4.4,2.2-6.6,7.4c0,0-0.7-8.9,8.1-13.3h-3L268.2,199.3L268.2,199.3z M294.8,187.5c0,0-14.8,0.7-31.7,15.5 c0,0,8.9-10.3,17.7-15.5c0,0-7.4,3-10.3,5.9c0,0,5.2-5.9,12.5-8.1C289.6,183.1,288.9,183.8,294.8,187.5L294.8,187.5z M322.9,197.8 l-1.5-2.2c3.7-0.7,13.3-6.6,13.3-6.6c11.8-8.1,28.8-10.3,28.8-10.3c-16.2,2.2-28,15.5-31.7,16.2 C328.8,195.6,323.6,197.1,322.9,197.8L322.9,197.8z M299.2,189c3-2.2,5.9-0.7,5.9-0.7l20.7,24.4c-3,1.5-4.4,3-4.4,3 c1.5-1.5,4.4-1.5,4.4-1.5c-5.2,1.5-5.9,5.9-5.9,5.9c-0.7-2.2,0-3.7,0-3.7C312.5,206.7,305.9,197.8,299.2,189L299.2,189z M282.3,166.1l17,15.5c0,0-3.7,1.5-4.4,2.2c0,0-3-1.5-4.4-0.7l-10.3-12.5l6.6,8.9l-7.4-8.1C278.6,171.3,277.8,168.3,282.3,166.1 L282.3,166.1z M232.8,146.9c-1.5-0.7-1.5-3-1.5-4.4s3-2.2,3-2.2c-1.5,0.7-2.2,3.7-2.2,3.7c1.5-3.7,5.2-4.4,6.6-4.4 c1.5,0,3,0.7,3,0.7c3.7-0.7,4.4,2.2,5.2,2.2c1.5,0,3-1.5,4.4-1.5s3,3,3,3c-1.5-1.5-3.7-2.2-4.4-1.5c-0.7,0.7-0.7,2.2-1.5,2.2 s-2.2-1.5-3,0c-0.7,0.7-3-0.7-3.7-1.5s-1.5,0.7-1.5,3.7s-1.5,8.9-1.5,8.9c-0.7-0.7,0-5.2,0-5.2c1.5-6.6-2.2-7.4-2.2-7.4 c1.5,0,1.5,1.5,1.5,1.5C235.8,141.7,232.8,146.2,232.8,146.9c0-2.2,0.7-3.7,0.7-3.7C232.1,144.7,232.8,146.9,232.8,146.9 L232.8,146.9z M224.7,162.4L224.7,162.4c0.7-0.7,3-2.2,8.1-3c6.6,0,17.7,3.7,17.7,3.7l-6.6,0.7c0,0,2.2,5.9,8.9,8.1 c6.6,3,8.9,6.6,11.1,6.6c1.5,0,5.9,1.5,5.9,1.5s-1.5-4.4-3-5.9c0,0,5.9,3.7,8.1,4.4c2.2,0.7,4.4,0.7,4.4,0.7v3c0,0-8.1,2.2-11.1,5.9 c0,0-1.5,3-3.7,4.4c-2.2,1.5-4.4,4.4-5.2,5.2s-2.2,0-2.2,0s-5.9,6.6-7.4,7.4l0,0l-14.8,14l-4.4,23.6c0,0-1.5-14.8-3-17.7 c0,0,3.7,0.7,3,0c-1.5,0-5.2-5.2-5.2-5.2s3.7,0.7,4.4-0.7c0-0.7-4.4-6.6-4.4-6.6l10.3-0.7l11.8-8.1c-2.2-1.5-8.9-4.4-8.9-4.4 l3.7,0.7c0,0-1.5-4.4-7.4-5.9c0,0-3.7-3-5.2-4.4s-2.2-5.2-8.1-8.1c-5.9-3-6.6-3.7-6.6-3.7s5.9,2.2,6.6,3c0,0-3-4.4-3-5.9 c0,0,0.7-0.7,1.5-2.2c0-1.5-3.7-4.4-11.8-6.6c0,0,8.9,0,14.8-6.6c0,0-0.7,0.7-9.6,1.5c0,0,7.4-1.5,12.5-5.9c0,0-5.2,3-22.1-3.7 c0,0,19.9,4.4,27.3,0.7l-3,7.4c-5.9,3-7.4,10.3-7.4,10.3C222.5,163.2,224.7,162.4,224.7,162.4L224.7,162.4z M283,183.1 c0,0-3,0.7-3.7,0.7v-3c0,0,2.2,0.7,3,0s1.5-3.7,1.5-3.7C283,179.4,283,183.1,283,183.1L283,183.1z M210.7,112.2 c0,0,5.2,3.7,5.2,10.3c0,0-0.7,2.2-0.7,3.7c0,0.7,5.2,4.4,9.6,7.4c0,0,3,0.7,4.4,3c0,0-2.2-1.5-4.4,1.5c0,0,0-1.5,1.5-2.2 c0,0-3.7-0.7-5.2,3c0,0,0-2.2,2.2-3c0,0-4.4,1.5-4.4,5.2c0,0-0.7-3.7,3-6.6c0,0-3.7-3-8.1-1.5c0,0,2.2-1.5,5.9-0.7 c0,0-3.7-4.4-9.6-4.4c0,0,2.2-0.7,4.4,0c0,0-4.4-3.7-11.1-2.2c0,0,4.4-2.2,9.6,0.7c0,0-2.2-5.2-10.3-4.4c0,0,5.2-2.2,10.3,0.7 c0,0-2.2-4.4-7.4-6.6c0,0,5.2,0.7,7.4,4.4C214.4,116.7,213.6,115.9,210.7,112.2L210.7,112.2z M250.5,108.5c-0.7,1.5-3,3.7-5.2,5.2 l-4.4,0.7c2.2,0.7,0,0,0,0s-0.7-0.7-1.5-1.5l8.1-6.6C249.1,107.1,249.8,107.8,250.5,108.5L250.5,108.5z M246.8,105.6l-7.4,5.9 c-0.7-1.5-2.2-3-2.2-3.7c-0.7-1.5,0-3,3-4.4C242.4,102.6,244.6,104.8,246.8,105.6L246.8,105.6z M254.2,112.2c0,0-4.4,3.7-5.9,5.9 c0,0-0.7-0.7-0.7-1.5c0.7-0.7,5.2-5.2,5.2-5.2S254.2,111.5,254.2,112.2z"></path> </svg> 