<?xml version="1.0" encoding="UTF-8"?> <!-- Generator: Adobe Illustrator 24.3.0, SVG Export Plug-In . SVG Version: 6.00 Build 0) --> <svg xmlns="http://www.w3.org/2000/svg" xmlns:xlink="http://www.w3.org/1999/xlink" version="1.1" id="Layer_1" x="0px" y="0px" viewBox="0 0 500 500" style="enable-background:new 0 0 500 500;" xml:space="preserve"> <g> <g> <path style="fill:#FFFFFF;" d="M253.8,24.3c-120.9,0-219.1,98.1-219.1,219.1s98.1,219.1,219.1,219.1s219.1-98.1,219.1-219.1 C472.9,124.2,374.8,24.3,253.8,24.3z M253.8,443.1c-110.4,0-199.8-89.4-199.8-199.8S143.4,43.6,253.8,43.6S453.6,133,453.6,243.4 S364.2,443.1,253.8,443.1z"></path> <path style="fill:#FFFFFF;" d="M267.9,245.1c0,7-7,14-14,14c-7,0-14-7-14-14c0-7,7-14,14-14C260.8,231.1,267.9,236.4,267.9,245.1z "></path> <path style="fill:#FFFFFF;" d="M253.8,41.8c-21,0-61.3,96.4-61.3,133.2s28,66.6,61.3,66.6c33.3,0,61.3-29.8,61.3-66.6 S274.9,41.8,253.8,41.8z M253.8,238.1c-31.5,0-57.8-28-57.8-63.1c0-17.5,8.8-49.1,22.8-78.9c15.8-35,29.8-50.8,35-50.8 c7,0,21,15.8,35,50.8c14,29.8,22.8,61.3,22.8,78.9C311.7,210.1,285.4,238.1,253.8,238.1z"></path> <path style="fill:#FFFFFF;" d="M152.2,69.9c-17.5,10.5-5.3,113.9,12.3,145.5c19.3,31.5,57.8,43.8,87.6,26.3s38.6-56.1,19.3-89.4 C253.8,120.7,169.7,59.4,152.2,69.9z M250.3,239.9c-28,15.8-64.8,5.3-82.4-26.3c-8.8-14-15.8-47.3-19.3-80.6 c-3.5-38.6,0-57.8,5.3-61.3c5.3-3.5,24.5,3.5,56.1,26.3c26.3,19.3,50.8,42.1,59.6,56.1C287.1,185.5,278.4,222.3,250.3,239.9z"></path> <path style="fill:#FFFFFF;" d="M78.6,143.5c-10.5,17.5,52.6,101.6,84.1,119.2c31.5,19.3,71.8,8.8,89.4-19.3 c17.5-29.8,5.3-68.3-26.3-87.6C192.5,138.2,89.1,126,78.6,143.5z M248.6,241.6c-15.8,28-54.3,36.8-84.1,19.3 c-14-8.8-36.8-31.5-56.1-59.6c-22.8-31.5-29.8-50.8-26.3-56.1c3.5-5.3,24.5-8.8,61.3-5.3c33.3,3.5,64.8,10.5,80.6,19.3 C253.8,176.8,264.4,213.6,248.6,241.6z"></path> <path style="fill:#FFFFFF;" d="M50.6,245.1c0,21,96.4,61.3,133.2,61.3s66.6-28,66.6-61.3s-29.8-61.3-66.6-61.3 C146.9,182,50.6,224.1,50.6,245.1z M246.8,245.1c0,31.5-28,57.8-63.1,57.8c-17.5,0-49.1-8.8-78.9-22.8c-35-15.8-50.8-29.8-50.8-35 c0-7,15.8-21,50.8-35c29.8-14,61.3-22.8,78.9-22.8C218.8,185.5,246.8,211.8,246.8,245.1z"></path> <path style="fill:#FFFFFF;" d="M78.6,346.8c10.5,17.5,113.9,5.3,145.5-12.3c31.5-19.3,43.8-57.8,26.3-87.6s-56.1-38.6-89.4-19.3 C131.2,245.1,68.1,327.5,78.6,346.8z M248.6,248.6c15.8,28,5.3,64.8-26.3,82.4c-14,8.8-47.3,15.8-80.6,19.3 c-38.6,3.5-57.8,0-61.3-5.3c-3.5-5.3,3.5-24.5,26.3-56.1c19.3-26.3,42.1-50.8,56.1-59.6C194.3,211.8,232.8,220.6,248.6,248.6z"></path> <path style="fill:#FFFFFF;" d="M152.2,420.4c17.5,10.5,101.6-52.6,119.2-84.1c19.3-31.5,8.8-71.8-19.3-89.4 c-29.8-17.5-68.3-5.3-87.6,26.3C146.9,306.5,134.7,409.9,152.2,420.4z M250.3,250.4c28,15.8,36.8,54.3,19.3,84.1 c-8.8,14-31.5,36.8-59.6,56.1c-31.5,22.8-50.8,29.8-56.1,26.3c-5.3-1.8-8.8-22.8-5.3-61.3c3.5-33.3,10.5-64.8,19.3-80.6 C185.5,245.1,222.3,234.6,250.3,250.4z"></path> <path style="fill:#FFFFFF;" d="M253.8,446.7c21,0,61.3-96.4,61.3-133.2s-28-66.6-61.3-66.6c-33.3,0-61.3,29.8-61.3,66.6 S232.8,446.7,253.8,446.7z M253.8,250.4c31.5,0,57.8,28,57.8,63.1c0,17.5-8.8,49.1-22.8,78.9c-15.8,35-29.8,50.8-35,50.8 c-7,0-21-15.8-35-50.8c-14-29.8-22.8-61.3-22.8-78.9C196,280.2,222.3,250.4,253.8,250.4z"></path> <path style="fill:#FFFFFF;" d="M355.5,420.4c17.5-10.5,5.3-113.9-12.3-145.5c-19.3-31.5-57.8-43.8-87.6-26.3S217,304.7,236.3,338 C253.8,367.8,338,430.9,355.5,420.4z M257.3,250.4c28-15.8,64.8-5.3,82.4,26.3c8.8,14,15.8,47.3,19.3,80.6 c3.5,38.6,0,57.8-5.3,61.3c-5.3,3.5-24.5-3.5-56.1-26.3c-26.3-19.3-50.8-42.1-59.6-56.1C220.5,304.7,229.3,266.2,257.3,250.4z"></path> <path style="fill:#FFFFFF;" d="M429.1,346.8c10.5-17.5-52.6-101.6-84.1-119.2c-31.5-19.3-71.8-8.8-89.4,19.3 c-17.5,29.8-5.3,68.3,26.3,87.6C315.2,352,418.6,364.3,429.1,346.8z M259.1,248.6c15.8-28,54.3-36.8,84.1-19.3 c14,8.8,36.8,31.5,56.1,59.6c22.8,31.5,29.8,50.8,26.3,56.1c-3.5,5.3-24.5,8.8-61.3,5.3c-33.3-3.5-64.8-10.5-80.6-19.3 C253.8,313.5,243.3,276.7,259.1,248.6z"></path> <path style="fill:#FFFFFF;" d="M457.1,245.1c0-21-96.4-61.3-133.2-61.3s-66.6,28-66.6,61.3s29.8,61.3,66.6,61.3 S457.1,266.2,457.1,245.1z M260.8,245.1c0-31.5,28-57.8,63.1-57.8c17.5,0,49.1,8.8,78.9,22.8c35,15.8,50.8,29.8,50.8,35 c0,7-15.8,21-50.8,35c-29.8,14-61.3,22.8-78.9,22.8C288.9,303,260.8,276.7,260.8,245.1z"></path> <path style="fill:#FFFFFF;" d="M429.1,143.5c-10.5-17.5-113.9-5.3-145.5,12.3c-31.5,19.3-43.8,57.8-26.3,87.6 c17.5,29.8,56.1,38.6,89.4,19.3C376.5,245.1,439.6,161,429.1,143.5z M259.1,241.6c-15.8-28-5.3-64.8,26.3-82.4 c14-8.8,47.3-15.8,80.6-19.3c38.6-3.5,57.8,0,61.3,5.3c3.5,5.3-3.5,24.5-26.3,56.1c-19.3,26.3-42.1,50.8-56.1,59.6 C313.4,278.4,274.9,269.7,259.1,241.6z"></path> <path style="fill:#FFFFFF;" d="M355.5,69.9C338,59.4,253.8,122.5,236.3,154c-19.3,31.5-8.8,71.8,19.3,89.4 c29.8,17.5,68.3,5.3,87.6-26.3C360.7,183.8,373,80.4,355.5,69.9z M257.3,239.9c-28-15.8-36.8-54.3-19.3-84.1 c8.8-14,31.5-36.8,59.6-56.1c31.5-22.8,50.8-29.8,56.1-26.3c5.3,1.8,8.8,22.8,5.3,59.6c-3.5,33.3-10.5,64.8-19.3,80.6 C322.2,243.4,285.4,255.6,257.3,239.9z"></path> </g> </g> </svg> 