<?xml version="1.0" encoding="UTF-8"?> <!-- Generator: Adobe Illustrator 24.3.0, SVG Export Plug-In . SVG Version: 6.00 Build 0) --> <svg xmlns="http://www.w3.org/2000/svg" xmlns:xlink="http://www.w3.org/1999/xlink" version="1.1" id="Layer_1" x="0px" y="0px" viewBox="0 0 500 500" style="enable-background:new 0 0 500 500;" xml:space="preserve"> <g> <path style="fill:#FFFFFF;" d="M97.9,270l7.9,16.7c-4.8-10.3-15.1-16.7-27-16.7H97.9z"></path> <path style="fill:#FFFFFF;" d="M202.9,270l7.9,16.7c-4.8-10.3-15.1-16.7-27-16.7H202.9z"></path> <path style="fill:#FFFFFF;" d="M307.8,270l7.9,16.7c-4.8-10.3-15.1-16.7-27-16.7H307.8z"></path> <path style="fill:#FFFFFF;" d="M255.3,210.4l7.9,16.7c-4.8-10.3-15.1-16.7-27-16.7H255.3z"></path> <path style="fill:#FFFFFF;" d="M150.4,210.4l7.9,16.7c-4.8-10.3-15.1-16.7-27-16.7H150.4z"></path> <path style="fill:#FFFFFF;" d="M202.9,150l7.9,16.7c-4.8-10.3-15.1-16.7-27-16.7H202.9z"></path> </g> <path style="fill:#FFFFFF;" d="M465.2,328.9l-15.1-74.7c0-0.8-0.8-1.6-0.8-2.4l0,0l0,0l-74.7-127.2c-1.6-2.4-4-4-6.4-4H255.3 c-4,0-7.2,3.2-7.2,7.2c0,1.6,0,2.4,0.8,3.2l6.4,11.9h-97.8c-3.2,0-5.6,1.6-6.4,4l-27.8,55.6h-17.5c-3.2,0-5.6,1.6-6.4,4l-27.8,55.6 H52.6c-3.2,0-5.6,1.6-6.4,4L16,325.7c-1.6,4,0,7.9,3.2,10.3c0.8,0.8,2.4,0.8,3.2,0.8h434.9c4,0,7.2-3.2,7.2-7.2 C465.2,329.7,465.2,328.9,465.2,328.9z M387.3,175.4l42.1,72.3h-42.1l-35.8-61.2c3.2,0.8,6.4,0.8,8.7,0.8 C372.2,187.4,382.5,182.6,387.3,175.4z M375.4,165.1c0,3.2-5.6,7.2-15.1,7.2c-9.5,0-15.1-4.8-15.1-7.2c0-3.2,5.6-7.2,15.1-7.2 C369.8,158,375.4,161.9,375.4,165.1z M363.5,134.9l4.8,7.9c-2.4-0.8-5.6-0.8-7.9-0.8c-11.9,0-22.3,5.6-27,12.7l-11.9-20.7h42.1 V134.9z M262.5,157.2l23.1,45.3h-48.5l-22.3-45.3H262.5z M214.8,217.6h35.8l22.3,45.3h-80.3L214.8,217.6z M180.6,253.4l-17.5-35.8 h35.8L180.6,253.4z M267.3,217.6h26.2l23.1,45.3h-27L267.3,217.6z M162.3,157.2h35.8l22.3,45.3h-80.3L162.3,157.2z M109.9,217.6 h35.8l22.3,45.3H87.6L109.9,217.6z M35.1,322.5l22.3-45.3h35.8l22.3,45.3H35.1z M109.9,277.2h35.8L128.1,313L109.9,277.2z M140.1,322.5l22.3-45.3h35.8l22.3,45.3H140.1z M214.8,277.2h35.8L233.1,313L214.8,277.2z M245,322.5l22.3-45.3H303l22.3,45.3H245z M342,322.5l-22.3-45.3h4.8l23.1,45.3H342z M267.3,134.9H303l70.8,120.8l-15.9,54.1L267.3,134.9z M370.6,322.5l18.3-59.6h48.5 l11.9,59.6H370.6z"></path> <path style="fill:#FFFFFF;" d="M390.5,217.6h15.1v15.1h-15.1V217.6z"></path> </svg> 