<?xml version="1.0" encoding="UTF-8"?> <!-- Generator: Adobe Illustrator 24.3.0, SVG Export Plug-In . SVG Version: 6.00 Build 0) --> <svg xmlns="http://www.w3.org/2000/svg" xmlns:xlink="http://www.w3.org/1999/xlink" version="1.1" id="Layer_1" x="0px" y="0px" viewBox="0 0 500 500" style="enable-background:new 0 0 500 500;" xml:space="preserve"> <g id="Group" transform="translate(190.000000, 38.000000)"> <path id="Fill-1_1_" style="fill-rule:evenodd;clip-rule:evenodd;fill:#FFFFFF;" d="M235.2,88.3c-1.9-1.3-3.2-1.9-5.2-1.9 c-3.2,0-5.8,1.3-7.7,3.9L172,165c-3.2,4.5-1.9,10.3,2.6,13.5c1.9,1.3,3.2,1.9,5.2,1.9c3.2,0,5.8-1.3,7.7-3.9l50.3-74.8 C240.4,97.3,239.1,91.5,235.2,88.3"></path> <path id="Fill-3" style="fill-rule:evenodd;clip-rule:evenodd;fill:#FFFFFF;" d="M195.9,378.5l-53.5-116.7 c-1.3-3.2-5.2-5.8-8.4-5.8c-1.3,0-2.6,0-3.9,0.6c-4.5,2.6-6.4,8.4-4.5,12.9l53.5,116.7c1.3,3.2,5.2,5.8,8.4,5.8 c1.3,0,2.6,0,3.9-0.6C195.9,388.8,197.8,383,195.9,378.5"></path> <path id="Fill-5" style="fill-rule:evenodd;clip-rule:evenodd;fill:#FFFFFF;" d="M78.5,303.7c0-0.6,0-1.3,0-1.3v-11.6 c0-0.6,0-0.6,0-1.3l0,0c0-18.7-14.2-33.5-32.2-33.5l0,0l0,0H23.1c-5.2,0-9,4.5-9,9.7s3.9,9.7,9,9.7h23.2l0,0l0,0 c7.7,0,13.5,6.4,13.5,14.2c0,0.6,0,0.6,0,1.3l0,0v10.3v0.6c0,7.7-5.8,14.2-13.5,14.2l0,0l0,0H23.1c-5.2,0-9,4.5-9,9.7 c0,5.2,3.9,9.7,9,9.7h23.2l0,0l0,0C63.7,335.9,77.9,321.7,78.5,303.7"></path> <path id="Fill-6_1_" style="fill-rule:evenodd;clip-rule:evenodd;fill:#FFFFFF;" d="M-34.3,255.9c-18.1,0-32.2,14.8-32.2,33.5 c0,5.2,3.9,9.7,9,9.7c5.2,0,9-4.5,9-9.7c0-7.7,5.8-14.2,13.5-14.2c7.7,0,13.5,6.4,13.5,14.2c0,5.2,3.9,9.7,9,9.7c5.2,0,9-4.5,9-9.7 C-2.1,270.8-16.3,255.9-34.3,255.9"></path> <path id="Fill-7" style="fill-rule:evenodd;clip-rule:evenodd;fill:#FFFFFF;" d="M-11.1,348.8c-5.2,0-9,4.5-9,9.7 c0,7.7-5.8,14.2-13.5,14.2c-7.7,0-13.5-6.4-13.5-14.2c0-5.2-3.9-9.7-9-9.7c-5.2,0-9,4.5-9,9.7c0,18.7,14.2,33.5,32.2,33.5 s32.2-14.8,32.2-33.5C-2.1,353.3-6,348.8-11.1,348.8"></path> <path id="Fill-9" style="fill-rule:evenodd;clip-rule:evenodd;fill:#FFFFFF;" d="M-73,87c-18.1,0-32.2,14.8-32.2,33.5 c0,5.2,3.9,9.7,9,9.7c5.2,0,9-4.5,9-9.7c0-7.7,5.8-14.2,13.5-14.2c7.7,0,13.5,6.4,13.5,14.2c0,5.2,3.9,9.7,9,9.7c5.2,0,9-4.5,9-9.7 C-40.8,101.8-55.6,87-73,87"></path> <path id="Fill-10_1_" style="fill-rule:evenodd;clip-rule:evenodd;fill:#FFFFFF;" d="M-50.4,179.8c-5.2,0-9,4.5-9,9.7 c0,7.7-5.8,14.2-13.5,14.2c-7.7,0-13.5-6.4-13.5-14.2c0-5.2-3.9-9.7-9-9.7c-5.2,0-9,4.5-9,9.7c0,18.7,14.2,33.5,32.2,33.5 c2.6,0,5.2-0.6,7.7-0.6l7.1,13.5c1.9,3.2,4.5,5.2,7.7,5.2l0,0c1.3,0,3.2-0.6,4.5-1.3c4.5-2.6,6.4-8.4,3.9-13.5l-7.7-14.2 c5.2-5.8,8.4-14.2,8.4-23.2C-40.8,184.4-45.3,179.8-50.4,179.8"></path> <path id="Fill-12_1_" style="fill-rule:evenodd;clip-rule:evenodd;fill:#FFFFFF;" d="M148.2,179.8c-5.2,0-9,4.5-9,9.7 c0,7.7-5.8,14.2-13.5,14.2s-13.5-6.4-13.5-14.2c0-5.2-3.9-9.7-9-9.7c-5.2,0-9,4.5-9,9.7c0,18.7,14.2,33.5,32.2,33.5 s32.2-14.8,32.2-33.5C157.8,184.4,153.3,179.8,148.2,179.8"></path> <path id="Fill-13" style="fill-rule:evenodd;clip-rule:evenodd;fill:#FFFFFF;" d="M30.8,179.8c-5.2,0-9,4.5-9,9.7 c0,7.7-5.8,14.2-13.5,14.2c-7.7,0-13.5-6.4-13.5-14.2c0-5.2-3.9-9.7-9-9.7c-5.2,0-9,4.5-9,9.7c0,18.7,14.2,33.5,32.2,33.5 s32.2-14.8,32.2-33.5C39.8,184.4,36,179.8,30.8,179.8"></path> <path id="Fill-14" style="fill-rule:evenodd;clip-rule:evenodd;fill:#FFFFFF;" d="M125.6,87c-18.1,0-32.2,14.8-32.2,33.5 c0,5.2,3.9,9.7,9,9.7c5.2,0,9-4.5,9-9.7c0-7.7,5.8-14.2,13.5-14.2s13.5,6.4,13.5,14.2c0,5.2,3.9,9.7,9,9.7c5.2,0,9-4.5,9-9.7 C157.8,101.8,143,87,125.6,87"></path> <path id="Fill-15" style="fill-rule:evenodd;clip-rule:evenodd;fill:#FFFFFF;" d="M-56.9,304.9c-0.6,0-1.3,0-1.9,0l33.5,49.7 c1.9-6.4,7.1-11,14.2-11c0.6,0,0.6,0,1.3,0l-32.9-49C-44.6,300.4-50.4,304.9-56.9,304.9"></path> <path id="Fill-16" style="fill-rule:evenodd;clip-rule:evenodd;fill:#FFFFFF;" d="M188.8,130.2V96c0-5.2-3.9-9.7-9-9.7 c-5.2,0-9,4.5-9,9.7v61.9L188.8,130.2"></path> <path id="Fill-17" style="fill-rule:evenodd;clip-rule:evenodd;fill:#FFFFFF;" d="M102.4,174c3.2,0,7.1,1.3,9,3.2v-45.1 c-2.6,1.9-5.8,3.2-9,3.2s-7.1-1.3-9-3.2v45.1C95.9,175.3,99.2,174,102.4,174"></path> <path id="Fill-18" style="fill-rule:evenodd;clip-rule:evenodd;fill:#FFFFFF;" d="M197.2,368.1V265.6c0-5.2-3.9-9.7-9-9.7 c-5.2,0-9,4.5-9,9.7v61.3L197.2,368.1"></path> <path id="Fill-19" style="fill-rule:evenodd;clip-rule:evenodd;fill:#FFFFFF;" d="M23.1,310.7h9v-29.7h-9c-3.2,0-6.4-1.3-9-3.2 v36.8C16,312,19.8,310.7,23.1,310.7"></path> <path id="Fill-20" style="fill-rule:evenodd;clip-rule:evenodd;fill:#FFFFFF;" d="M100.4,255.9c-5.2,0-9,4.5-9,9.7v116.7 c0,5.2,3.9,9.7,9,9.7c5.2,0,9-4.5,9-9.7V265.6C109.5,260.4,105.6,255.9,100.4,255.9"></path> <path id="Fill-21" style="fill-rule:evenodd;clip-rule:evenodd;fill:#FFFFFF;" d="M179.1,186.3c-3.2,0-5.8-0.6-8.4-2.6l-0.6-0.6v31 c0,5.2,3.9,9.7,9,9.7c5.2,0,9-4.5,9-9.7v-31C186.2,185,183,186.3,179.1,186.3"></path> <path id="Fill-22" style="fill-rule:evenodd;clip-rule:evenodd;fill:#FFFFFF;" d="M66.9,87c-5.2,0-9,4.5-9,9.7v116.7 c0,5.2,3.9,9.7,9,9.7c5.2,0,9-4.5,9-9.7V96.7C75.9,90.9,71.4,87,66.9,87"></path> <path id="Fill-23" style="fill-rule:evenodd;clip-rule:evenodd;fill:#FFFFFF;" d="M211.4,150.2l-12.3,18.1l22.6,49 c1.3,3.2,5.2,5.8,8.4,5.8c1.3,0,2.6,0,3.9-0.6c4.5-2.6,6.4-8.4,4.5-12.9L211.4,150.2"></path> <path id="Fill-24" style="fill-rule:evenodd;clip-rule:evenodd;fill:#FFFFFF;" d="M124.3,280.4v101.9c0,5.2,3.9,9.7,9,9.7 c5.2,0,9-4.5,9-9.7v-61.3L124.3,280.4"></path> <path id="Fill-25" style="fill-rule:evenodd;clip-rule:evenodd;fill:#FFFFFF;" d="M23.1,341.1c-3.2,0-6.4-1.3-9-3.2v44.5 c0,5.2,3.9,9.7,9,9.7c5.2,0,9-4.5,9-9.7v-41.3H23.1"></path> <path id="Fill-26" style="fill-rule:evenodd;clip-rule:evenodd;fill:#FFFFFF;" d="M-15,174c3.2,0,7.1,1.3,9,3.2V96 c0-5.2-3.9-9.7-9-9.7c-5.2,0-9,4.5-9,9.7v81.9C-22.1,175.3-18.9,174-15,174"></path> <g id="Group-30" transform="translate(0.000000, 0.265734)"> <path id="Fill-27" style="fill-rule:evenodd;clip-rule:evenodd;fill:#FFFFFF;" d="M30.8,173.6c3.2,0,7.1,1.3,9,3.2V95.5 c0-5.2-3.9-9.7-9-9.7c-5.2,0-9,4.5-9,9.7v81.3C23.7,175.5,26.9,173.6,30.8,173.6"></path> <path id="Fill-29" style="fill-rule:evenodd;clip-rule:evenodd;fill:#FFFFFF;" d="M-96.2,173.6c3.2,0,7.1,1.3,9,3.2v-45.1 c-2.6,1.9-5.8,3.2-9,3.2s-7.1-1.3-9-3.2v45.1C-102.7,175.5-99.5,173.6-96.2,173.6"></path> </g> <path id="Fill-31" style="fill-rule:evenodd;clip-rule:evenodd;fill:#FFFFFF;" d="M-50.4,136c-3.9,0-7.1-1.3-9-3.2v45.1 c2.6-1.9,5.8-3.2,9-3.2c3.2,0,7.1,1.3,9,3.2v-45.1C-43.4,134.7-46.6,136-50.4,136"></path> </g> </svg> 