<?xml version="1.0" encoding="UTF-8"?> <!-- Generator: Adobe Illustrator 24.3.0, SVG Export Plug-In . SVG Version: 6.00 Build 0) --> <svg xmlns="http://www.w3.org/2000/svg" xmlns:xlink="http://www.w3.org/1999/xlink" version="1.1" id="Layer_1" x="0px" y="0px" viewBox="0 0 500 500" style="enable-background:new 0 0 500 500;" xml:space="preserve"> <g> <path style="fill:#FFFFFF;" d="M361.9,135.5c-24.5,1.3-47.7,1.3-70.1,4.3c-37.8,4.7-53.8,21.9-55,60.2c-0.9,29.2-0.9,58,0,87.3 c0.9,46,16.8,62.8,64.1,67.1c19.4,1.7,39.1,0.4,66.2,0.4c-34,33.5-62.4,62.4-91.6,90.3c-12,11.6-24.5,7.7-35.7-3 c-61.1-59.8-121.7-120-182.7-179.7c-6-6-12-11.6-8.2-21.9c9-23.2,65.8-61.5,92.4-61.5c23.2-0.4,46.9,1.7,68.8-9.9 c9.9-5.2,21.9-12.9,20.2-23.6c-2.2-15.1-17.6-7.3-27.1-8.2c-14.6-1.3-29.2-0.4-52.5-0.4c33.1-31.8,61.5-59.3,90.3-86.4 c13.3-12.5,26.2-11.2,38.7,0.9C306.4,78.7,333.5,106.6,361.9,135.5z"></path> <path style="fill:#FFFFFF;" d="M362.3,178.9c40.4-14.2,66.6,16.8,93.3,45.1c9.9,10.3,18.1,23.2,7.3,35.3 c-25.8,29.2-48.2,60.2-98,57.2c-80.4-5.2-80.8-1.3-80.8-76.1C284,178.9,284,178.9,362.3,178.9z"></path> </g> </svg> 