<?xml version="1.0" encoding="UTF-8"?> <!-- Generator: Adobe Illustrator 24.3.0, SVG Export Plug-In . SVG Version: 6.00 Build 0) --> <svg xmlns="http://www.w3.org/2000/svg" xmlns:xlink="http://www.w3.org/1999/xlink" version="1.1" id="Layer_1" x="0px" y="0px" viewBox="0 0 500 500" style="enable-background:new 0 0 500 500;" xml:space="preserve"> <g> <path style="fill:#FFFFFF;" d="M51.7,314.1c0-24.6,0-48.3,0-72.8c0.8,0,1.6,0,2,0c13.5,0,27.4,0,40.9,0c1.6,0,2.9,0.4,3.3,2 c0.8,3.7,2.5,7,2.5,10.6c0.4,11.5,0,22.9,0.4,34c0.4,14.7-11.5,26.6-26.2,26.2C67.7,313.7,59.9,314.1,51.7,314.1z M68.5,246.1 c0,17.2,0,34,0,51.2c2.9,0,5.3,0,7.8,0c4.5,0,8.2-3.3,8.2-7.8c0-11.9,0-23.7,0-35.6c0-4.5-3.3-7.8-7.8-7.8 C74.2,246.1,71.4,246.1,68.5,246.1z"></path> <path style="fill:#FFFFFF;" d="M52.1,161.8c9.8,0.4,19.6,0,29.1,1.2c10.6,1.6,18.4,12.3,18.4,22.9c0,11.9,0,23.3,0,35.2 c0,4.5-0.8,8.6-3.3,12.3c-0.4,0.8-1.2,1.2-2,1.2c-13.9,0-27.8,0-41.7,0h-0.4C52.1,210.5,52.1,186.4,52.1,161.8z M68.1,229.8 c2.5,0,4.5,0,6.5,0c4.5,0,7.8-3.3,8.2-7.8c0-1.6,0-2.9,0-4.5c0-10.2,0-20.1,0-30.3c0-4.1-2-7.4-5.3-8.2c-2.9-0.8-6.1-0.4-9.4-0.8 C68.1,195.8,68.1,212.6,68.1,229.8z"></path> <path style="fill:#FFFFFF;" d="M285,241.2c5.3,0,10.6,0,16,0c0,1.2,0,2,0,2.9c0,14.7,0,29.9,0,44.6c0,5.3,3.7,9,9,8.6 c4.5-0.4,7.4-4.1,7.4-9c0-13.5,0-27,0-40.9c0-2,0-4.1,0-6.5c5.3,0,10.6,0,16.4,0c0,0.8,0,1.6,0,2c0,15.1,0,30.3,0,45.8 c0,14.7-11.5,25.4-25.8,25C296,313.3,285,303,285,291.2c-0.4-16.4,0-33.2,0-49.5C284.6,241.6,284.6,241.6,285,241.2z"></path> <path style="fill:#FFFFFF;" d="M333.7,234.7c-5.7,0-10.6,0-16.4,0c0-1.2,0-2,0-2.9c0-14.7,0-29.1,0-43.8c0-4.5-2-7.8-5.7-9 c-5.7-1.6-10.6,2-11.1,8.2c0,14.3,0,29.1,0,43.4c0,1.2,0,2.5,0,4.1c-5.3,0-10.6,0-16,0c0-0.8,0-1.2,0-2c0-15.6,0-31.1,0-46.2 c0-11.5,8.2-21.3,19.6-23.7c15.1-3.3,29.5,8.2,29.5,23.7c0,15.1,0,30.3,0,45.4C333.7,232.6,333.7,233.4,333.7,234.7z"></path> <path style="fill:#FFFFFF;" d="M240.4,240.8c9,0,17.2,0,25.8,0c0.8,0,2,0.8,2.5,1.2c4.9,6.1,6.5,13.5,6.5,21.3c0,9,0,18-0.4,27 c-0.4,12.3-10.2,22.1-22.1,23.3s-23.3-6.5-26.2-18c-1.2-5.7-0.8-11.9-1.2-18c5.7,0,11.1,0,16.4,0c0,3.7,0,7.4,0,11.1 c0,6.1,5.7,10.2,11.1,8.2c3.3-1.2,5.3-3.7,5.3-7c0-8.6,0-16.8-0.4-25.4c-0.4-6.5-3.7-12.3-9-16.4 C246.1,245.7,243.7,243.7,240.4,240.8z"></path> <path style="fill:#FFFFFF;" d="M275.2,198.3c-5.7,0-10.6,0-16.4,0c0-2.5,0-4.9,0-7.4c0-1.6,0-3.7-0.4-5.3c-0.8-4.1-4.1-7-7.8-7 c-4.1,0-7.8,2.9-8.2,7c-0.4,9.4-1.2,18.8,0.8,28.2c1.2,5.7,4.1,10.6,8.6,14.3c2.5,2,5.3,4.5,7.4,7c-0.8,0-1.2,0-2,0 c-7.4,0-14.7,0-21.7,0c-1.6,0-2.9-0.8-3.7-2c-4.5-6.5-5.7-13.5-5.7-21.3c0-8.6,0-16.8,0-25.4c0-11.5,8.2-21.3,19.6-23.7 c15.1-3.3,29.5,8.2,29.5,23.7C275.2,190.1,275.2,194.2,275.2,198.3z"></path> <path style="fill:#FFFFFF;" d="M113.1,234.7c0-24.1,0-48.3,0-72.4c14.3,0,28.2,0,42.6,0c0,5.3,0,10.6,0,16.4c-8.6,0-17.2,0-26.2,0 c0,17.2,0,34,0,51.2c8.6,0,17.2,0,26.2,0c0,1.6,0,3.3,0,4.9C141.8,234.7,127.4,234.7,113.1,234.7z"></path> <path style="fill:#FFFFFF;" d="M387.7,229.8c0,2,0,3.3,0,4.9c-14.3,0-28.6,0-43,0c0-24.1,0-48.3,0-72.4c14.3,0,28.6,0,43,0 c0,5.3,0,10.6,0,16.4c-0.8,0-1.6,0-2.5,0c-7.4,0-14.7,0-21.7,0c-1.2,0-2,0.4-2,2c0,16,0,31.9,0,47.9c0,0.4,0,0.4,0,1.2 C370.1,229.8,378.7,229.8,387.7,229.8z"></path> <path style="fill:#FFFFFF;" d="M155.7,314.1c-14.3,0-28.2,0-42.6,0c0-24.1,0-48.3,0-72.8c13.9,0,28.2,0,42.6,0c0,1.6,0,3.3,0,4.9 c-8.6,0-17.2,0-26.2,0c0,17.2,0,34,0,51.2c8.6,0,17.2,0,26.2,0C155.7,303,155.7,308.3,155.7,314.1z"></path> <path style="fill:#FFFFFF;" d="M183.5,178.6c-5.3,0-10.6,0-16.4,0c0-5.3,0-10.6,0-16.4c15.6,0,31.5,0,47.5,0c0,5.3,0,10.6,0,16.4 c-4.9,0-9.4,0-14.7,0c0,18.8,0,37.2,0,56.1c-5.7,0-11.1,0-16.8,0C183.5,215.9,183.5,197.4,183.5,178.6z"></path> <path style="fill:#FFFFFF;" d="M410.6,234.7c0-18.8,0-37.2,0-56.1c-5.3,0-11.1,0-16.4,0c0-5.3,0-10.2,0-15.1c0-0.4,1.2-1.2,2-1.2 c7.8,0,15.1,0,22.9,0c6.5,0,13.1,0,20.1,0c0.8,0,1.6,0,2.9,0c0,5.3,0,10.6,0,16.4c-4.9,0-9.4,0-14.7,0c0,18.8,0,37.7,0,56.1 C421.7,234.7,416.4,234.7,410.6,234.7z"></path> <path style="fill:#FFFFFF;" d="M344.7,241.2c14.3,0,28.6,0,43,0c0,1.6,0,3.3,0,5.3c-8.6,0-17.2,0-26.2,0c0,22.5,0,45,0,67.5 c-5.7,0-11.1,0-16.8,0C344.7,289.5,344.7,265.4,344.7,241.2z"></path> <path style="fill:#FFFFFF;" d="M183.5,241.2c5.7,0,10.6,0,16.4,0c0,24.1,0,48.3,0,72.8c-5.3,0-10.6,0-16.4,0 C183.5,289.5,183.5,265.4,183.5,241.2z"></path> <path style="fill:#FFFFFF;" d="M410.6,241.2c5.3,0,10.6,0,16.4,0c0,24.1,0,48.3,0,72.8c-5.3,0-10.6,0-16.4,0 C410.6,289.5,410.6,265.4,410.6,241.2z"></path> <path style="fill:#FFFFFF;" d="M7.9,209.7c9.4,9.8,18.8,19.2,27.4,28.2c-8.6,9-18,18.4-27.4,28.2C7.9,247.4,7.9,228.9,7.9,209.7z"></path> <path style="fill:#FFFFFF;" d="M476.9,266.6c-9.4-9.8-18.8-19.2-27.4-28.6c8.6-9,18-18.4,27.4-28.2 C476.9,228.5,476.9,247.4,476.9,266.6z"></path> </g> </svg> 