<?xml version="1.0" encoding="UTF-8"?> <!-- Generator: Adobe Illustrator 24.3.0, SVG Export Plug-In . SVG Version: 6.00 Build 0) --> <svg xmlns="http://www.w3.org/2000/svg" xmlns:xlink="http://www.w3.org/1999/xlink" version="1.1" id="Layer_1" x="0px" y="0px" viewBox="0 0 500 500" style="enable-background:new 0 0 500 500;" xml:space="preserve"> <g> <path style="fill:#FFFFFF;" d="M324.5,428h-229V77.7h109.4v-12h-23.1c-2.6,0-4.3-1.7-4.3-4.3c0-0.9,0.9-2.6,0.9-3.4 c0.9-0.9,1.7-0.9,3.4-0.9h23.9c0.9-4.3,1.7-7.7,4.3-12h-106c-19.7,0-35,15.4-35,35v367.4c0,19.7,15.4,35,35,35H316 c19.7,0,35-15.4,35-35V223.8h-26.5V428z M210,469.9c-8.5,0-15.4-6.8-15.4-15.4s6.8-15.4,15.4-15.4c8.5,0,15.4,6.8,15.4,15.4 S218.6,469.9,210,469.9z"></path> <path style="fill:#FFFFFF;" d="M293.8,129.8c0-2.6-2.6-5.1-5.1-5.1c-2.6,0-5.1,2.6-5.1,5.1c0,2.6,2.6,5.1,5.1,5.1 C291.2,134.9,293.8,132.4,293.8,129.8z"></path> <path style="fill:#FFFFFF;" d="M297.2,126.4c2.6,0,5.1-2.6,5.1-5.1s-2.6-5.1-5.1-5.1s-5.1,2.6-5.1,5.1 C292.1,123.8,294.6,126.4,297.2,126.4z"></path> <path style="fill:#FFFFFF;" d="M297.2,133.2c-2.6,0-5.1,2.6-5.1,5.1c0,2.6,2.6,5.1,5.1,5.1s5.1-2.6,5.1-5.1 S300.6,133.2,297.2,133.2z"></path> <path style="fill:#FFFFFF;" d="M305.7,124.7c-2.6,0-5.1,2.6-5.1,5.1c0,2.6,2.6,5.1,5.1,5.1s5.1-2.6,5.1-5.1 C311.7,127.2,309.2,124.7,305.7,124.7z"></path> <path style="fill:#FFFFFF;" d="M393.8,127.2h-5.1v-5.1c0-2.6-1.7-4.3-4.3-4.3c-2.6,0-4.3,1.7-4.3,4.3v5.1H375 c-2.6,0-4.3,1.7-4.3,4.3c0,2.6,1.7,4.3,4.3,4.3h5.1v5.1c0,2.6,1.7,4.3,4.3,4.3c2.6,0,4.3-1.7,4.3-4.3v-5.1h5.1 c2.6,0,4.3-1.7,4.3-4.3C398,128.9,396.3,127.2,393.8,127.2z"></path> <path style="fill:#FFFFFF;" d="M430.5,27.3H245.9c-19.7,0-35.9,16.2-35.9,35.9v199.9l41-45.3h178.6c19.7,0,35.9-16.2,35.9-35.9V64 C466.4,43.5,450.2,27.3,430.5,27.3z M380.1,181.1c-7.7,0-15.4-4.3-20.5-12c-1.7-2.6-3.4-5.1-4.3-7.7c-11.1,2.6-23.1,2.6-33.3,0 c-6,12.8-14.5,19.7-24.8,19.7c-4.3,0-7.7-0.9-11.1-3.4c-3.4-1.7-6.8-5.1-9.4-8.5c-6.8-8.5-10.3-21.4-10.3-35.9 c0-26.5,13.7-47.9,30.8-47.9c8.5,0,16.2,5.1,22.2,13.7c5.1-1.7,10.3-2.6,16.2-2.6c-0.9-10.3,2.6-18.8,12-23.9 c4.3-2.6,9.4-3.4,13.7-6c6-2.6,5.1-8.5,4.3-14.5c-0.9-4.3,6-5.1,6.8-0.9c1.7,10.3,0,18.8-11.1,22.2c-5.1,1.7-12,3.4-15.4,8.5 c-5.1,5.1-6,10.3-5.1,15.4c6,0,12,0.9,17.9,2.6c6-8.5,13.7-13.7,22.2-13.7c7.7,0,15.4,4.3,20.5,12c6.8,8.5,10.3,22.2,10.3,35.9 C411.7,159.7,398,181.1,380.1,181.1z"></path> </g> </svg> 