<?xml version="1.0" encoding="UTF-8"?> <!-- Generator: Adobe Illustrator 24.3.0, SVG Export Plug-In . SVG Version: 6.00 Build 0) --> <svg xmlns="http://www.w3.org/2000/svg" xmlns:xlink="http://www.w3.org/1999/xlink" version="1.1" id="Layer_1" x="0px" y="0px" viewBox="0 0 500 500" style="enable-background:new 0 0 500 500;" xml:space="preserve"> <g> <path style="fill:none;stroke:#FFFFFF;stroke-width:18.2573;stroke-miterlimit:10;" d="M116.2,435c0,0,108.5,0,136.9,0 c21.8,0,108.3-27.9,116.9-34c8.3-5.9,59.3-64.2,71.9-81.4c-3.4-8.2-15.8-16.1-33-14.1c-20,2.3-45,40.2-45.8,41l-61,13.8 c-1.9-0.4-23.6-7.3-44.1-12.7c-7.1-1.9-18.7-17.7-18.7-19c0-7.5,2.7-7.2,15.4-13.8c8.4-4.4,34.5-9.1,43.7-30 c8.4-19.2,3-37.9-31.2-24.3c-14.1,5.6-74.8,23-101,33.6c-11.2,6.6-23.4,23.4-31.8,31.4h-18.3"></path> <path style="fill:none;stroke:#FFFFFF;stroke-width:18.2573;stroke-miterlimit:10;" d="M417.5,79c0-20.2-16.3-36.5-36.5-36.5 c-20.2,0-36.5,16.3-36.5,36.5c0,20.2,16.3,36.5,36.5,36.5C401.1,115.5,417.5,99.2,417.5,79z"></path> <path style="fill:none;stroke:#FFFFFF;stroke-width:18.2573;stroke-miterlimit:10;" d="M298.8,161.2c0-20.2-16.3-36.5-36.5-36.5 c-20.2,0-36.5,16.3-36.5,36.5c0,20.2,16.3,36.5,36.5,36.5C282.4,197.7,298.8,181.4,298.8,161.2z"></path> <path style="fill:none;stroke:#FFFFFF;stroke-width:18.2573;stroke-miterlimit:10;" d="M408.3,225.1c0-20.2-16.3-36.5-36.5-36.5 c-20.2,0-36.5,16.3-36.5,36.5c0,20.2,16.3,36.5,36.5,36.5C392,261.6,408.3,245.3,408.3,225.1z"></path> <rect x="43.2" y="298.1" style="fill:none;stroke:#FFFFFF;stroke-width:18.2573;stroke-miterlimit:10;" width="73" height="155.2"></rect> <line style="fill:none;stroke:#FFFFFF;stroke-width:18.2573;stroke-miterlimit:10;" x1="79.7" y1="325.5" x2="79.7" y2="352.9"></line> </g> </svg> 