<?xml version="1.0" encoding="UTF-8"?> <!-- Generator: Adobe Illustrator 24.3.0, SVG Export Plug-In . SVG Version: 6.00 Build 0) --> <svg xmlns="http://www.w3.org/2000/svg" xmlns:xlink="http://www.w3.org/1999/xlink" version="1.1" id="Layer_1" x="0px" y="0px" viewBox="0 0 500 500" style="enable-background:new 0 0 500 500;" xml:space="preserve"> <g> <path style="fill:#FFFFFF;" d="M153.6,308.1c2.7,0,5.3-0.3,7.9-0.9c4.9-1.1,9.5-3.3,13.4-6.4l-3.6,19.3c-0.6,3.1,2.9,5.4,5.5,3.5 c6-4.2,13.4-6,20.7-4.9c3.1,0.5,5.2-3,3.4-5.5l-11.4-15.9c16.3,3.1,32.4-5.8,38.5-21.2c6-15.4,0.2-33-13.9-41.7l-52.4-32.5 c-1.7-1-3.8-0.5-4.9,1.2l-32.4,52.7c-6.6,10.6-6.9,23.9-0.8,34.8C129.7,301.3,141.2,308,153.6,308.1L153.6,308.1z M179.6,314 l2.8-14.6l8.6,12C187,311.6,183.2,312.5,179.6,314L179.6,314z M127.1,279.9c-1.7-7.1-0.4-14.5,3.4-20.6l30.5-49.7l49.4,30.6 c12.7,7.9,16.7,24.6,8.9,37.4c-7.8,12.8-24.5,16.9-37.3,9.2c-0.7-0.4-1.6-0.6-2.5-0.4l-0.3,0.1c-1,0.2-1.8,0.8-2.3,1.6 c-5.8,9.4-16.7,14.3-27.6,12.5C138.4,298.9,129.6,290.7,127.1,279.9L127.1,279.9z M127.1,279.9"></path> <path style="fill:#FFFFFF;" d="M111.3,201.8l-18.7-32.1c-0.9-1.5-3.1-1.8-5.2-1.3c-2,0.5-3.9,1.7-4,3.5l-2.5,37.1 c0,0.2,0,0.4,0,0.6c0.4,1.8,3.3,2.4,5.2,1.9c1.2-0.3,2.1-0.9,2.1-2l0.4-7.8l12.6-2.9l3.8,6.8c0.5,1,1.5,1.1,2.8,0.9 c1.9-0.4,4.2-2.3,3.8-4C111.4,202.1,111.4,201.9,111.3,201.8L111.3,201.8z M88.7,195.6l0.8-18l8.7,15.8L88.7,195.6z M88.7,195.6"></path> <g> <path style="fill:#FFFFFF;" d="M333.1,201.8h-27v-31.8h-31.5v-24.9h31.5v-31.8h27v31.8h31.3v24.9h-31.3V201.8z"></path> <path style="fill:#FFFFFF;" d="M436.6,115.1H415v34.4l8.9-8.9h26.4l15.8,15.4v56.9l-15.6,15.4h-49.6l-15.6-15.8V105.5l15.4-15.8 h49.8l15.8,15.8v23.2l-29.7,4.8V115.1z M415,165.9v36.9h21.6v-36.9H415z"></path> </g> <g> <path style="fill:#FFFFFF;" d="M320.1,214.1c-2.1,0-4.2-0.1-6.3-0.4l0.9,162.9c0,9.9-7.9,17.9-17.8,18l-114.7,0.6l98.1-23 c5.4-1.3,10.1-4.7,13.1-9.4c2.9-4.7,3.9-10.5,2.6-15.9l-47.5-202.7l16.9-0.1c0.6-2.4,1.4-4.8,2.3-7.1l-20.8,0.1l-1.6-7 c-2.7-11.3-14-18.4-25.3-15.7l-154,36.1c-11.3,2.7-18.3,14-15.7,25.3L101,392.6c2.2,9.5,10.7,16.2,20.5,16.3 c1.6,0,3.3-0.2,4.8-0.6l25.1-5.9l145.6-0.8c13.8-0.1,24.8-11.3,24.8-25.1L320.9,214C320.6,214,320.4,214.1,320.1,214.1z M150.5,395.4c-0.3,0-0.5,0.1-0.8,0.2l-25,5.9c-3.6,0.8-7.4,0.2-10.6-1.7c-3.2-2-5.4-5.1-6.2-8.7L57.1,174.2 c-1.8-7.5,2.9-15.1,10.4-16.8l154-36.1c1.1-0.2,2.1-0.4,3.2-0.4c6.5,0,12.1,4.5,13.6,10.8l50.7,216.8c1.8,7.5-2.9,15.1-10.4,16.8 L150.5,395.4z"></path> </g> <g> <path style="fill:#FFFFFF;" d="M320.1,217.6c-33,0-59.8-26.8-59.8-59.8s26.8-59.8,59.8-59.8s59.8,26.8,59.8,59.8 S353.1,217.6,320.1,217.6z M320.1,104.9c-29.1,0-52.8,23.7-52.8,52.8s23.7,52.8,52.8,52.8s52.8-23.7,52.8-52.8 S349.2,104.9,320.1,104.9z"></path> </g> </g> </svg> 