<?xml version="1.0" encoding="UTF-8"?> <!-- Generator: Adobe Illustrator 24.3.0, SVG Export Plug-In . SVG Version: 6.00 Build 0) --> <svg xmlns="http://www.w3.org/2000/svg" xmlns:xlink="http://www.w3.org/1999/xlink" version="1.1" id="Layer_1" x="0px" y="0px" viewBox="0 0 500 500" style="enable-background:new 0 0 500 500;" xml:space="preserve"> <g id="cIAnt5.tif"> <g> <path style="fill:#FFFFFF;" d="M169.6,202.3c28,1.6,55.9,0.8,83.9,0.8c40,0,80.7-0.8,120.7,0c37.6,0,63.1,20.8,64.7,57.5 c2.4,63.1,1.6,126.3,0.8,189.4c0,6.4-10.4,18.4-15.2,18.4c-74.3-0.8-149.4,3.2-222.2-7.2c-75.1-10.4-125.5-63.1-159.8-131.1 c51.1,29.6,107.1,23.2,162.2,23.2c30.4,0,61.5,0.8,91.9-1.6l0.8-29.6c-57.5-1.6-115.1-0.8-173.4-1.6c-69.5-0.8-89.5-20-89.5-87.9 c0-47.9,0.8-95.1-0.8-143c-0.8-24,6.4-34.4,32-33.6c57.5,1.6,115.1-0.8,173.4,0c79.1,0.8,167.8,64.7,197.4,143 c-83.1-44-266.1-27.2-266.9-27.2V202.3z"></path> </g> </g> </svg> 