<?xml version="1.0" encoding="UTF-8"?> <!-- Generator: Adobe Illustrator 24.3.0, SVG Export Plug-In . SVG Version: 6.00 Build 0) --> <svg xmlns="http://www.w3.org/2000/svg" xmlns:xlink="http://www.w3.org/1999/xlink" version="1.1" id="Layer_1" x="0px" y="0px" viewBox="0 0 500 500" style="enable-background:new 0 0 500 500;" xml:space="preserve"> <path style="fill:#FFFFFF;" d="M352.7,158.1c0,3.7,3.1,6.8,6.8,6.8c3.7,0,6.8-3.1,6.8-6.8c0-3.7-3.1-6.8-6.8-6.8 C355.8,151.2,352.7,154.3,352.7,158.1z"></path> <path style="fill:#FFFFFF;" d="M379.3,238c0,8.7-0.6,17.3-2.5,25.4c-0.6,3.7,1.9,7.4,5,8.1c0.6,0,0.6,0,1.2,0c3.1,0,6.2-2.5,6.8-5.6 c1.9-9.3,3.1-18.6,3.1-27.9c0-21.1-4.3-41.5-13.6-60.1c-1.9-3.1-5.6-5-8.7-3.1c-3.1,1.9-5,5.6-3.1,8.7 C375,200.8,379.3,219.4,379.3,238z"></path> <path style="fill:#FFFFFF;" d="M281.4,298h-6.8v-86.7c0-3.7-3.1-6.8-6.8-6.8h-53.3c-3.7,0-6.8,3.1-6.8,6.8V238 c0,3.7,3.1,6.8,6.8,6.8h6.8V298h-6.8c-3.7,0-6.8,3.1-6.8,6.8v26.6c0,3.7,3.1,6.8,6.8,6.8h66.9c3.7,0,6.8-3.1,6.8-6.8v-26.6 C288.2,301.1,285.1,298,281.4,298z M275.2,324.7H222v-13.6h6.8c3.7,0,6.8-3.1,6.8-6.8V238c0-3.7-3.1-6.8-6.8-6.8H222v-13h40.3v86.7 c0,3.7,3.1,6.8,6.8,6.8h6.8v13H275.2z"></path> <path style="fill:#FFFFFF;" d="M248.6,191.5c14.9,0,26.6-11.8,26.6-26.6s-11.8-26.6-26.6-26.6S222,150,222,164.9 S233.7,191.5,248.6,191.5z M248.6,151.2c7.4,0,13.6,6.2,13.6,13.6s-6.2,13.6-13.6,13.6s-13.6-6.2-13.6-13.6S241.2,151.2,248.6,151.2 z"></path> <path style="fill:#FFFFFF;" d="M248.6,67.6c-92.3,0-171,78-171,170.3c0,31.6,9.3,65,24.2,90.4l-24.2,71.8c-0.6,2.5,0,5,1.9,6.8 c1.9,1.9,4.3,2.5,6.8,1.9l71.8-24.2c25.4,15.5,58.8,24.2,90.4,24.2c92.3,0,171-78.7,171-171C418.9,146.3,340.3,67.6,248.6,67.6z M248.6,395.9c-30.4,0-62.6-8.7-86.1-24.2c-1.9-1.2-3.7-1.2-5.6-0.6l-62.6,20.4l20.4-61.9c0.6-1.9,0.6-3.7-0.6-5.6 C99.3,300.5,90,268.3,90,238c0-85.5,71.8-157.3,157.3-157.3S405.9,153.1,405.9,238S333.5,395.9,248.6,395.9z"></path> </svg> 