<?xml version="1.0" encoding="UTF-8"?> <!-- Generator: Adobe Illustrator 24.1.2, SVG Export Plug-In . SVG Version: 6.00 Build 0) --> <svg xmlns="http://www.w3.org/2000/svg" xmlns:xlink="http://www.w3.org/1999/xlink" version="1.1" id="Layer_1" x="0px" y="0px" viewBox="0 0 100 100" style="enable-background:new 0 0 100 100;" xml:space="preserve"> <g> <path style="fill:#FFFFFF;" d="M88.4,48C88.4,48,88.4,48,88.4,48C88.4,48,88.4,48,88.4,48C88.4,48,88.4,48,88.4,48z"></path> <path style="fill:#FFFFFF;" d="M82.3,37.2C82.3,37.2,82.3,37.2,82.3,37.2C82.3,37.2,82.3,37.2,82.3,37.2 C82.3,37.2,82.3,37.2,82.3,37.2z"></path> <polygon style="fill:#FFFFFF;" points="94.5,37.7 94.5,37.7 94.5,37.7 "></polygon> <path style="fill:#FFFFFF;" d="M14.6,62.5L14.6,62.5C14.6,62.5,14.6,62.5,14.6,62.5C14.6,62.5,14.6,62.5,14.6,62.5z"></path> <polygon style="fill:#FFFFFF;" points="13.6,59.8 13.6,59.8 13.6,59.8 "></polygon> <path style="fill:#FFFFFF;" d="M14.8,62.4L14.8,62.4C14.8,62.4,14.8,62.4,14.8,62.4C14.8,62.3,14.8,62.4,14.8,62.4z"></path> <polygon style="fill:#FFFFFF;" points="47.3,60 47.3,60 47.3,60 "></polygon> <path style="fill:#FFFFFF;" d="M82.5,37.1L82.5,37.1C82.4,37.1,82.4,37.1,82.5,37.1C82.4,37.1,82.4,37.1,82.5,37.1z"></path> <polygon style="fill:#FFFFFF;" points="49.8,48 49.8,48 49.8,48 "></polygon> <polygon style="fill:#FFFFFF;" points="77.4,41.2 77.4,41.2 77.4,41.2 "></polygon> <path style="fill:#FFFFFF;" d="M34.4,65.7c-0.1,0-0.1,0-0.2,0c-0.5,0-0.9,0-1.4,0c-0.6,0-1.2,0-1.8,0.1c-0.9,0-1.7,0.1-2.6,0.1 c-0.2,0-0.4,0-0.6,0c-0.4,0-0.8,0-1.2,0c-0.1,0-0.3,0-0.4,0c-0.9,0-1.7,0.1-2.6,0.1c-1,0-2,0.1-2.9,0.1c-0.1,0-0.2,0-0.3,0 c0,0-0.1,0-0.1,0c-0.3,0-0.6,0-0.9,0.1c0,0,0,0,0,0c-0.1,0-0.2,0-0.3,0c-0.2,0-0.5,0-0.7,0c0,0,0,0-0.1,0c-0.1,0-0.1,0-0.2,0 c-0.8,0-1.7,0.1-2.5,0.1c-0.3,0-0.6,0-0.9,0.1c-0.7,0.1-1.4,0.1-2.1,0.2c-0.6,0-1.3,0.1-1.9,0.1c-0.1,0-0.1,0-0.2,0 c-0.2,0-0.4,0-0.6,0C9.4,67,9,67,8.6,67.1c-0.6,0-1.1,0.1-1.7,0.1c0,0-0.1,0-0.1,0c0,0,0,0,0,0c0,0,0,0-0.1,0c-0.1,0-0.1,0-0.2,0 c-0.2,0-0.3,0-0.5,0c0,0,0,0,0,0c-0.4,0-0.8,0.1-1.2,0.1c-0.8,0.1-1.6,0.1-2.3,0.2c-0.2,0-0.4,0-0.7,0.1c-0.1,0-0.1,0-0.1,0.1 c0,0.1-0.1,0.2,0,0.3c0.1,0.1,0.2,0,0.2,0c0,0,0.1,0,0.1,0c1-0.1,2-0.2,3.1-0.3c0.4,0,0.7,0,1.1-0.1c0.2,0,0.3,0,0.5,0c0,0,0,0,0,0 c0.1,0,0.1,0,0.2,0c0.2,0,0.3,0,0.5,0c0.6,0,1.2-0.1,1.9-0.2c0.4,0,0.9,0,1.3-0.1c0,0,0,0,0,0c0.1,0,0.3,0,0.4,0 c0.4,0,0.7-0.1,1.1-0.1c0.7,0,1.4-0.1,2.1-0.1c0.4,0,0.7,0,1.1-0.1c0.8-0.1,1.6-0.1,2.4-0.2c0.3,0,0.5,0,0.8-0.1c0.2,0,0.5,0,0.7,0 c0,0,0,0,0,0c0.1,0,0.2,0,0.3,0c0.3,0,0.5,0,0.8,0c0,0,0,0,0,0c0.1,0,0.1,0,0.2,0c0.2,0,0.4,0,0.7,0c0.1,0,0.2,0,0.3,0c0,0,0,0,0,0 c0.1,0,0.2,0,0.3,0c0.4,0,0.7,0,1.1-0.1c0.8,0,1.6-0.1,2.3-0.1c1.2,0,2.3-0.1,3.5-0.1c0.2,0,0.5,0,0.7,0c0.5,0,1,0,1.5,0 c0.1,0,0.3,0,0.4,0c1,0,2.1-0.1,3.1-0.1c0,0,0.1,0,0.1,0c0.2,0,0.2,0,0.2-0.2C34.6,65.8,34.6,65.7,34.4,65.7z"></path> <path style="fill:#FFFFFF;" d="M68.3,32.8C68.3,32.8,68.2,32.8,68.3,32.8c-0.9,0-1.8,0.1-2.6,0.1c-0.7,0-1.4,0-2,0.1 c-0.1,0-0.1,0-0.2,0c-0.1,0-0.1,0-0.1,0.1c0,0,0,0.1,0,0.1c0,0.1,0,0.2,0.2,0.2c0.1,0,0.2,0,0.2,0c0.8,0,1.7-0.1,2.5-0.1 c0.5,0,1.1,0,1.6-0.1c1.1,0,2.2-0.1,3.3-0.1c0.9,0,1.7-0.1,2.6-0.1c1,0,2-0.1,3-0.1c0.1,0,0.2,0,0.3,0c0.1,0,0.1,0,0.2,0 c0.3,0,0.6,0,0.8-0.1c0,0,0,0,0,0c0.3,0,0.6,0,0.9,0c0.8,0,1.6-0.1,2.3-0.1c0.8,0,1.5-0.1,2.3-0.1c0.3,0,0.6,0,0.9-0.1 c0.7-0.1,1.4-0.1,2.1-0.2c0.6,0,1.2-0.1,1.8-0.1c0.1,0,0.1,0,0.2,0c0.2,0,0.4,0,0.5,0c1.1-0.1,2.3-0.2,3.4-0.3c0.1,0,0.2,0,0.2,0 c0.1,0,0.1,0,0.2,0c0.2,0,0.3,0,0.5,0c0,0,0,0,0,0c0,0,0.1,0,0.1,0c0.2,0,0.3,0,0.5,0c0,0,0,0,0,0c0,0,0.1,0,0.1,0 c0.5,0,1.1-0.1,1.6-0.1c0,0,0.1,0,0.1,0c0.1,0,0.1-0.1,0.1-0.1c0,0,0-0.1,0-0.1c0-0.1,0-0.2-0.2-0.2c-0.4,0-0.8,0.1-1.2,0.1 c-0.3,0-0.6,0-0.8,0.1c-0.2,0-0.3,0-0.5,0c0,0,0,0,0,0c-0.1,0-0.1,0-0.2,0c-0.2,0-0.3,0-0.5,0c0,0,0,0,0,0c0,0-0.1,0-0.1,0 c-0.2,0-0.3,0-0.5,0c-0.9,0.1-1.8,0.1-2.6,0.2c-0.4,0-0.8,0.1-1.2,0.1c-0.1,0-0.3,0-0.4,0c-0.9,0.1-1.8,0.1-2.7,0.2 c-1,0.1-2,0.1-3.1,0.2c-0.3,0-0.7,0-1,0.1c-0.9,0.1-1.8,0.1-2.7,0.2c-0.2,0-0.5,0-0.7,0.1c-0.3,0-0.5,0-0.8,0c0,0,0,0-0.1,0 c-0.1,0-0.1,0-0.2,0c-0.7,0-1.4,0.1-2.1,0.1c-0.4,0-0.7,0-1.1,0c-1,0-2.1,0.1-3.1,0.1C70,32.7,69.1,32.8,68.3,32.8z"></path> <polygon style="fill:#FFFFFF;" points="82.5,37.1 82.5,37.1 82.5,37.1 "></polygon> <polygon style="fill:#FFFFFF;" points="82.5,37.1 82.5,37.1 82.5,37.1 "></polygon> <path style="fill:#FFFFFF;" d="M1.9,31.5c0.1,0,0.2,0,0.2,0c0.6,0.1,1.1,0.1,1.7,0.2c0.4,0,0.8,0.1,1.2,0.1c0,0,0,0,0,0 c0.2,0,0.3,0,0.5,0c0.1,0,0.1,0,0.2,0c0,0,0.1,0,0.1,0c0.3,0,0.6,0,0.8,0.1C7.4,31.9,8,32,8.6,32.1c0.5,0,0.9,0.1,1.4,0.1 c0,0,0,0,0,0c0.1,0,0.2,0,0.2,0c0.9,0.1,1.9,0.1,2.8,0.2c0.3,0,0.6,0,1,0.1c0.8,0.1,1.5,0.1,2.3,0.2c0.5,0,1.1,0.1,1.6,0.1 c0.3,0,0.6,0,0.9,0c0.3,0.1,0.5,0.1,0.8,0.1c0.1,0,0.1,0,0.2,0c0.3,0.1,0.6,0.1,0.9,0.1c0.1,0,0.1,0,0.2,0c0.1,0,0.2,0,0.3,0 c0.8,0,1.5,0.1,2.3,0.1c0.9,0,1.7,0.1,2.6,0.1c1,0,1.9,0.1,2.9,0.1c1.2,0,2.3,0.1,3.5,0.1c0.6,0,1.3,0,1.9,0.1c0.1,0,0.2,0,0.2,0 c0,0,0.1,0,0.1-0.1c0,0,0-0.1,0-0.1c0-0.2,0-0.3-0.3-0.3c-0.3,0-0.6,0-0.9,0c-1.3,0-2.6-0.1-3.9-0.1c-0.8,0-1.6-0.1-2.3-0.1 c-0.5,0-1,0-1.4-0.1c-0.7,0-1.4-0.1-2.1-0.1c-0.6,0-1.2-0.1-1.8-0.1c-0.3,0-0.5,0-0.8,0c-0.1,0-0.1,0-0.2,0 c-0.3-0.1-0.6-0.1-0.8-0.1c-0.1,0-0.1,0-0.2,0c-0.3-0.1-0.5-0.1-0.8-0.1l0,0c0,0,0,0,0,0h0c0,0-0.1,0-0.1,0c-0.5,0-1-0.1-1.6-0.1 c-0.5,0-0.9,0-1.4-0.1c-1-0.1-2-0.1-3-0.2c-0.8-0.1-1.6-0.1-2.4-0.2c-0.1,0-0.3,0-0.4,0c-0.4-0.1-0.9-0.1-1.3-0.1 c-0.6-0.1-1.2-0.1-1.8-0.2c-0.4,0-0.8-0.1-1.2-0.1c-0.1,0-0.1,0-0.2,0c-0.2-0.1-0.3-0.1-0.5,0c-0.3-0.1-0.5-0.1-0.8-0.1 c-0.8-0.1-1.7-0.2-2.5-0.2c-0.1,0-0.1,0-0.2,0c0,0-0.1,0-0.1,0c0,0.1,0,0.2,0,0.3C1.7,31.5,1.8,31.4,1.9,31.5z"></path> <path style="fill:#FFFFFF;" d="M66.7,66.9c-0.3,0-0.6,0-0.9,0c-0.1,0-0.1,0-0.1,0.1c0,0.1,0,0.3,0,0.4c0,0.1,0,0.3,0,0.4 c0,0.1,0,0.1,0.1,0.2c0.3,0,0.6,0,0.9,0c0.1,0,0.1,0,0.1-0.1c0-0.3,0-0.6,0-0.9C66.8,67,66.8,66.9,66.7,66.9z"></path> <path style="fill:#FFFFFF;" d="M32.4,67.1c0-0.1,0-0.1-0.1-0.2c-0.3,0-0.6,0-0.9,0c-0.1,0-0.1,0-0.1,0.2c0,0.3,0,0.6,0,0.9 c0,0.1,0,0.2,0.2,0.2c0.3,0,0.6,0,0.9,0c0.1,0,0.2,0,0.2-0.2c0-0.1,0-0.3,0-0.4c0,0,0,0,0,0C32.4,67.4,32.4,67.2,32.4,67.1z"></path> <path style="fill:#FFFFFF;" d="M94.2,68.6c-0.1,0-0.3,0-0.4,0c0,0,0,0,0,0c-0.1,0-0.3,0-0.4,0c-0.1,0-0.1,0-0.2,0.1 c0,0.3,0,0.6,0,0.9c0,0.1,0,0.1,0.1,0.1c0.3,0,0.6,0,0.9,0c0.1,0,0.1,0,0.1-0.1c0-0.3,0-0.6,0-0.9C94.4,68.6,94.3,68.6,94.2,68.6z"></path> <path style="fill:#FFFFFF;" d="M93.4,30.5c0.1,0,0.3,0,0.4,0c0,0,0,0,0,0c0.1,0,0.2,0,0.3,0c0.3,0,0.3,0,0.3-0.3c0-0.2,0-0.4,0-0.5 c0-0.1,0-0.1,0-0.2c0-0.1,0-0.1-0.1-0.1c-0.3,0-0.6,0-0.9,0c-0.1,0-0.1,0-0.1,0.1c0,0.3,0,0.6,0,0.9C93.2,30.5,93.3,30.5,93.4,30.5 z"></path> <path style="fill:#FFFFFF;" d="M10.7,68.1c-0.3,0-0.6,0-0.9,0c-0.1,0-0.1,0-0.1,0.2c0,0.1,0,0.3,0,0.4c0,0,0,0,0,0 c0,0.2,0,0.3,0,0.5c0,0.1,0,0.1,0.1,0.1c0.3,0,0.6,0,0.9,0c0.1,0,0.1,0,0.1-0.1c0-0.3,0-0.6,0-0.9C10.9,68.1,10.8,68.1,10.7,68.1z"></path> <path style="fill:#FFFFFF;" d="M30,67c-0.2,0-0.4,0-0.6,0c-0.1,0-0.1,0-0.2,0c-0.1,0-0.1,0-0.1,0.2c0,0.3,0,0.6,0,0.9 c0,0.1,0,0.1,0.1,0.1c0.3,0,0.6,0,0.9,0c0.1,0,0.1,0,0.1-0.1c0-0.1,0-0.3,0-0.4c0,0,0,0,0,0c0-0.1,0-0.3,0-0.4 C30.2,67.1,30.1,67,30,67z"></path> <path style="fill:#FFFFFF;" d="M81,31.5c0.3,0,0.6,0,0.9,0c0.1,0,0.1,0,0.1-0.2c0-0.1,0-0.3,0-0.4c0,0,0,0,0,0c0-0.2,0-0.3,0-0.5 c0-0.1,0-0.1-0.1-0.1c-0.3,0-0.6,0-0.9,0c-0.1,0-0.1,0-0.1,0.1c0,0.3,0,0.6,0,0.9C80.9,31.4,80.9,31.5,81,31.5z"></path> <path style="fill:#FFFFFF;" d="M4.7,68.6c-0.1,0-0.3,0-0.4,0c0,0,0,0,0,0c-0.1,0-0.3,0-0.4,0c-0.1,0-0.2,0-0.2,0.2 c0,0.1,0,0.2,0,0.3c0,0.2,0,0.4,0,0.5c0,0.1,0,0.1,0.1,0.1c0.3,0,0.6,0,0.9,0c0.1,0,0.1-0.1,0.1-0.1c0-0.3,0-0.6,0-0.9 C4.8,68.6,4.8,68.6,4.7,68.6z"></path> <path style="fill:#FFFFFF;" d="M89.3,30.9c0.3,0,0.6,0,0.9,0c0.1,0,0.1,0,0.1-0.1c0-0.3,0-0.6,0-0.9c0-0.1,0-0.1-0.1-0.1 c-0.3,0-0.6,0-0.9,0c-0.1,0-0.1,0-0.1,0.1c0,0.1,0,0.3,0,0.4c0,0,0,0,0,0c0,0.2,0,0.3,0,0.5C89.2,30.8,89.2,30.9,89.3,30.9z"></path> <path style="fill:#FFFFFF;" d="M65.8,32.2c0.1,0,0.3,0,0.4,0c0,0,0,0,0,0c0.1,0,0.2,0,0.3,0c0,0,0,0,0.1,0c0.2,0,0.2,0,0.2-0.2 c0-0.2,0-0.4,0-0.6c0-0.1,0-0.2,0-0.2c0-0.1,0-0.1-0.1-0.1c-0.3,0-0.6,0-0.9,0c-0.1,0-0.1,0-0.1,0.1c0,0.3,0,0.6,0,0.9 C65.6,32.1,65.7,32.2,65.8,32.2z"></path> <path style="fill:#FFFFFF;" d="M22.6,31.8c0.1,0,0.3,0,0.4,0c0,0,0,0,0,0c0.1,0,0.3,0,0.4,0c0.1,0,0.1,0,0.1-0.1c0-0.3,0-0.6,0-0.9 c0-0.1,0-0.1-0.2-0.1c-0.3,0-0.6,0-0.8,0c-0.1,0-0.2,0-0.2,0.2c0,0.3,0,0.6,0,0.8C22.4,31.8,22.4,31.8,22.6,31.8z"></path> <path style="fill:#FFFFFF;" d="M90.2,68.2c-0.3,0-0.6,0-0.9,0c-0.1,0-0.1,0-0.1,0.1c0,0.3,0,0.6,0,0.9c0,0.1,0,0.1,0.1,0.1 c0.1,0,0.3,0,0.4,0c0,0,0,0,0,0c0.1,0,0.3,0,0.4,0c0.1,0,0.2,0,0.2-0.2c0-0.3,0-0.6,0-0.9C90.3,68.3,90.3,68.2,90.2,68.2z"></path> <path style="fill:#FFFFFF;" d="M25.7,67.3c0-0.1,0-0.2-0.2-0.2c-0.3,0-0.6,0-0.8,0c-0.1,0-0.1,0-0.1,0.1c0,0.3,0,0.6,0,0.9 c0,0.1,0,0.1,0.1,0.1c0.3,0,0.6,0,0.8,0c0.1,0,0.2,0,0.2-0.2c0-0.1,0-0.3,0-0.4c0,0,0,0,0,0C25.7,67.6,25.8,67.5,25.7,67.3z"></path> <path style="fill:#FFFFFF;" d="M34.4,66.9c-0.1,0-0.3,0-0.4,0c0,0,0,0,0,0c-0.1,0-0.3,0-0.4,0c-0.1,0-0.1,0-0.1,0.1 c0,0.3,0,0.6,0,0.9c0,0.1,0,0.1,0.1,0.1c0.3,0,0.6,0,0.9,0c0.1,0,0.2,0,0.2-0.2c0-0.3,0-0.5,0-0.8C34.6,66.9,34.6,66.9,34.4,66.9z"></path> <path style="fill:#FFFFFF;" d="M71.1,67.1c-0.1,0-0.3,0-0.4,0c0,0,0,0,0,0c-0.1,0-0.3,0-0.4,0c-0.1,0-0.1,0-0.2,0.1 c0,0.3,0,0.6,0,0.9c0,0.1,0,0.1,0.1,0.1c0.3,0,0.6,0,0.9,0c0.1,0,0.1,0,0.1-0.1c0-0.3,0-0.6,0-0.9C71.2,67.1,71.2,67.1,71.1,67.1z"></path> <path style="fill:#FFFFFF;" d="M88.2,68.1c-0.3,0-0.6,0-0.9,0c-0.1,0-0.1,0-0.1,0.1c0,0.1,0,0.3,0,0.4c0,0.1,0,0.3,0,0.4 c0,0.1,0,0.1,0.1,0.1c0.3,0,0.6,0,0.9,0c0.1,0,0.1,0,0.1-0.1c0-0.3,0-0.6,0-0.9C88.3,68.1,88.2,68.1,88.2,68.1z"></path> <path style="fill:#FFFFFF;" d="M85.2,31.2c0.1,0,0.3,0,0.4,0c0,0,0,0,0,0c0.2,0,0.3,0,0.5,0c0.1,0,0.1,0,0.1-0.1c0-0.3,0-0.6,0-0.9 c0-0.1,0-0.1-0.1-0.1c-0.3,0-0.6,0-0.9,0c-0.1,0-0.2,0-0.2,0.2c0,0.3,0,0.5,0,0.8c0,0,0,0.1,0,0.1C85.1,31.1,85.1,31.2,85.2,31.2z"></path> <path style="fill:#FFFFFF;" d="M14.3,31.4c0.1,0,0.2,0,0.4,0c0.4,0,0.4,0,0.4-0.4c0-0.1,0-0.1,0-0.2c0,0,0,0,0,0c0-0.1,0-0.3,0-0.4 c0,0,0,0,0-0.1c0-0.1,0-0.1-0.1-0.1c-0.3,0-0.6,0-0.8,0c-0.1,0-0.2,0-0.2,0.2c0,0.2,0,0.4,0,0.5C13.9,31.4,13.8,31.4,14.3,31.4z"></path> <path style="fill:#FFFFFF;" d="M86.1,67.9c-0.3,0-0.6,0-0.9,0c-0.1,0-0.1,0-0.1,0.2c0,0.1,0,0.3,0,0.4c0,0,0,0,0,0 c0,0.1,0,0.3,0,0.4c0,0.1,0,0.2,0.2,0.2c0.3,0,0.6,0,0.8,0c0.1,0,0.1,0,0.1-0.1c0-0.3,0-0.6,0-0.9C86.2,68,86.2,67.9,86.1,67.9z"></path> <path style="fill:#FFFFFF;" d="M76.7,31.7c0.1,0,0.3,0,0.4,0c0,0,0,0,0,0c0.1,0,0.3,0,0.4,0c0.1,0,0.2,0,0.2-0.2c0-0.2,0-0.4,0-0.6 c0-0.1,0-0.1,0-0.2c0-0.1,0-0.1-0.2-0.1c-0.3,0-0.6,0-0.9,0c-0.1,0-0.1,0-0.1,0.1c0,0.3,0,0.6,0,0.9C76.6,31.7,76.7,31.7,76.7,31.7 z"></path> <path style="fill:#FFFFFF;" d="M29.1,32.1c0.3,0,0.6,0,0.8,0c0.1,0,0.2,0,0.2-0.2c0-0.1,0-0.3,0-0.4c0,0,0,0,0,0c0-0.1,0-0.3,0-0.4 c0-0.1,0-0.2-0.2-0.2c-0.3,0-0.6,0-0.8,0C29,31,29,31,29,31.1c0,0.3,0,0.6,0,0.9C29,32.1,29,32.1,29.1,32.1z"></path> <path style="fill:#FFFFFF;" d="M16.1,31.5c0.1,0,0.3,0,0.4,0c0,0,0,0,0,0c0.1,0,0.3,0,0.4,0c0.1,0,0.1,0,0.2-0.1c0-0.3,0-0.6,0-0.9 c0-0.1,0-0.1-0.1-0.1c-0.3,0-0.6,0-0.9,0c-0.1,0-0.1,0-0.1,0.1c0,0.3,0,0.6,0,0.9C16,31.4,16,31.5,16.1,31.5z"></path> <path style="fill:#FFFFFF;" d="M84,67.8c-0.1,0-0.3,0-0.4,0c0,0,0,0,0,0c-0.1,0-0.3,0-0.4,0c-0.1,0-0.1,0-0.1,0.1 c0,0.3,0,0.6,0,0.8c0,0.1,0,0.2,0.2,0.2c0.3,0,0.6,0,0.8,0c0.1,0,0.2,0,0.2-0.2c0-0.3,0-0.5,0-0.8C84.2,67.8,84.1,67.8,84,67.8z"></path> <path style="fill:#FFFFFF;" d="M96.2,68.8c-0.3,0-0.6,0-0.9,0c-0.1,0-0.1,0-0.1,0.1c0,0.3,0,0.6,0,0.9c0,0.1,0,0.1,0.1,0.1 c0.3,0,0.6,0,0.9,0c0.1,0,0.1,0,0.1-0.1c0-0.2,0-0.3,0-0.5c0,0,0,0,0,0c0-0.1,0-0.3,0-0.4C96.3,68.8,96.3,68.8,96.2,68.8z"></path> <path style="fill:#FFFFFF;" d="M14.9,67.8c-0.3,0-0.6,0-0.9,0c-0.1,0-0.1,0-0.1,0.1c0,0.3,0,0.6,0,0.9c0,0.1,0,0.1,0.2,0.1 c0.1,0,0.3,0,0.4,0c0,0,0,0,0,0c0.1,0,0.3,0,0.4,0c0.1,0,0.2,0,0.2-0.2c0-0.3,0-0.6,0-0.9C15,67.8,15,67.8,14.9,67.8z"></path> <path style="fill:#FFFFFF;" d="M20.4,31.7c0.3,0,0.6,0,0.9,0c0.1,0,0.1,0,0.1-0.1c0-0.1,0-0.3,0-0.4c0,0,0,0,0,0c0-0.1,0-0.3,0-0.4 c0-0.1,0-0.2-0.2-0.2c-0.3,0-0.5,0-0.8,0c-0.1,0-0.2,0-0.2,0.2c0,0.3,0,0.6,0,0.9C20.2,31.7,20.3,31.7,20.4,31.7z"></path> <path style="fill:#FFFFFF;" d="M18.3,31.6c0.3,0,0.6,0,0.9,0c0.1,0,0.1,0,0.1-0.2c0-0.1,0-0.3,0-0.4c0,0,0,0,0,0c0-0.1,0-0.3,0-0.4 c0-0.1,0-0.2-0.2-0.2c-0.3,0-0.6,0-0.8,0c-0.1,0-0.1,0-0.2,0.1c0,0.3,0,0.6,0,0.9C18.1,31.6,18.2,31.6,18.3,31.6z"></path> <path style="fill:#FFFFFF;" d="M3.6,30.4c0,0.1,0,0.1,0.1,0.1c0.3,0,0.6,0,0.9,0c0.1,0,0.1,0,0.1-0.1c0-0.3,0-0.6,0-0.9 c0-0.1,0-0.1-0.1-0.1c-0.3,0-0.6,0-0.9,0c-0.1,0-0.1,0-0.1,0.1c0,0.1,0,0.3,0,0.4c0,0,0,0,0,0C3.6,30.1,3.6,30.2,3.6,30.4z"></path> <path style="fill:#FFFFFF;" d="M78.9,31.6c0.3,0,0.6,0,0.9,0c0.1,0,0.1,0,0.1-0.2c0-0.1,0-0.3,0-0.4c0,0,0,0,0,0c0-0.1,0-0.3,0-0.4 c0-0.1,0-0.2-0.2-0.2c-0.3,0-0.6,0-0.8,0c-0.1,0-0.2,0-0.2,0.1c0,0.3,0,0.6,0,0.9C78.8,31.6,78.8,31.6,78.9,31.6z"></path> <path style="fill:#FFFFFF;" d="M24.7,31.9c0.3,0,0.6,0,0.9,0c0.1,0,0.1,0,0.1-0.1c0-0.1,0-0.3,0-0.4c0,0,0,0,0,0c0-0.1,0-0.3,0-0.4 c0-0.1,0-0.2-0.2-0.2c-0.2,0-0.4,0-0.6,0c-0.1,0-0.1,0-0.2,0c-0.1,0-0.1,0-0.1,0.2c0,0.3,0,0.6,0,0.9 C24.6,31.9,24.6,31.9,24.7,31.9z"></path> <path style="fill:#FFFFFF;" d="M5.8,30.7c0.3,0,0.6,0,0.9,0c0.1,0,0.1,0,0.2-0.2c0-0.1,0-0.3,0-0.4c0,0,0,0,0,0c0-0.1,0-0.3,0-0.4 c0-0.1,0-0.1-0.1-0.1c-0.3,0-0.6,0-0.9,0c-0.1,0-0.1,0-0.1,0.2c0,0.3,0,0.6,0,0.9C5.6,30.7,5.7,30.7,5.8,30.7z"></path> <path style="fill:#FFFFFF;" d="M91.3,30.7c0.1,0,0.3,0,0.4,0c0,0,0,0,0,0c0.1,0,0.3,0,0.4,0c0.1,0,0.1,0,0.1-0.1c0-0.1,0-0.3,0-0.4 c0-0.2,0-0.3,0-0.5c0-0.1,0-0.1-0.1-0.1c-0.3,0-0.6,0-0.9,0c-0.1,0-0.1,0-0.1,0.1c0,0.3,0,0.6,0,0.9C91.2,30.7,91.2,30.7,91.3,30.7 z"></path> <path style="fill:#FFFFFF;" d="M83.1,31.3c0.3,0,0.6,0,0.9,0c0.1,0,0.1,0,0.1-0.1c0-0.3,0-0.6,0-0.9c0-0.1-0.1-0.1-0.2-0.1 c-0.1,0-0.3,0-0.4,0c0,0,0,0,0,0c-0.1,0-0.3,0-0.4,0c-0.1,0-0.2,0-0.2,0.2c0,0.3,0,0.6,0,0.8C83,31.3,83,31.3,83.1,31.3z"></path> <path style="fill:#FFFFFF;" d="M87.3,31c0.2,0,0.4,0,0.7,0c0.1,0,0.2,0,0.2,0c0.1,0,0.1,0,0.1-0.1c0-0.3,0-0.6,0-0.9 c0-0.1,0-0.1-0.1-0.1c-0.1,0-0.3,0-0.4,0c0,0,0,0,0,0c-0.1,0-0.3,0-0.4,0c-0.1,0-0.2,0-0.2,0.2c0,0.3,0,0.6,0,0.8 C87.1,31,87.2,31,87.3,31z"></path> <path style="fill:#FFFFFF;" d="M92.2,68.4c-0.1,0-0.3,0-0.4,0c0,0,0,0,0,0c-0.1,0-0.3,0-0.4,0c-0.1,0-0.1,0-0.1,0.1 c0,0.3,0,0.6,0,0.9c0,0.1,0,0.1,0.2,0.1c0.3,0,0.6,0,0.8,0c0.1,0,0.2,0,0.2-0.2c0-0.3,0-0.6,0-0.8C92.4,68.5,92.3,68.4,92.2,68.4z"></path> <path style="fill:#FFFFFF;" d="M6.8,68.6c0-0.1,0-0.2-0.2-0.2c-0.3,0-0.5,0-0.8,0c-0.1,0-0.2,0-0.2,0.2c0,0.3,0,0.6,0,0.8 c0,0.1,0,0.2,0.2,0.2c0.3,0,0.5,0,0.8,0c0.1,0,0.2,0,0.2-0.2c0-0.1,0-0.3,0-0.4c0,0,0,0,0,0C6.8,68.9,6.8,68.7,6.8,68.6z"></path> <path style="fill:#FFFFFF;" d="M9.9,31c0.3,0,0.5,0,0.8,0c0,0,0.1,0,0.1,0c0.1,0,0.1-0.1,0.1-0.1c0-0.1,0-0.3,0-0.4c0,0,0,0,0,0 c0-0.1,0-0.3,0-0.4c0-0.1,0-0.2-0.2-0.2c-0.3,0-0.5,0-0.8,0c-0.1,0-0.2,0-0.2,0.2c0,0.3,0,0.5,0,0.8C9.7,31,9.8,31,9.9,31z"></path> <path style="fill:#FFFFFF;" d="M63.5,32.2c0.1,0,0.3,0,0.4,0c0,0,0,0,0,0c0.1,0,0.3,0,0.4,0c0.1,0,0.2,0,0.2-0.2c0-0.3,0-0.5,0-0.8 c0-0.1,0-0.2-0.2-0.2c-0.3,0-0.5,0-0.8,0c-0.1,0-0.2,0-0.2,0.2c0,0.3,0,0.5,0,0.8c0,0,0,0.1,0,0.1C63.4,32.2,63.5,32.2,63.5,32.2z"></path> <path style="fill:#FFFFFF;" d="M7.8,30.9c0.3,0,0.6,0,0.8,0c0.1,0,0.1,0,0.2-0.1c0-0.3,0-0.6,0-0.9c0-0.1,0-0.1-0.1-0.1 c-0.1,0-0.3,0-0.4,0c0,0,0,0,0,0c-0.2,0-0.3,0-0.5,0c-0.1,0-0.1,0-0.1,0.1c0,0.3,0,0.6,0,0.9C7.7,30.8,7.7,30.9,7.8,30.9z"></path> <path style="fill:#FFFFFF;" d="M8.7,68.2c-0.1,0-0.3,0-0.4,0c-0.2,0-0.3,0-0.5,0c-0.1,0-0.1,0-0.1,0.1c0,0.3,0,0.6,0,0.9 c0,0.1,0,0.1,0.2,0.1c0.1,0,0.3,0,0.4,0c0,0,0,0,0,0c0.1,0,0.3,0,0.4,0c0.1,0,0.2,0,0.2-0.1c0-0.3,0-0.6,0-0.9 C8.8,68.3,8.8,68.2,8.7,68.2z"></path> <path style="fill:#FFFFFF;" d="M21.3,67.4c-0.3,0-0.6,0-0.9,0c-0.1,0-0.1,0.1-0.1,0.1c0,0.3,0,0.6,0,0.9c0,0.1,0,0.1,0.1,0.1 c0.1,0,0.3,0,0.4,0c0,0,0,0,0,0c0.1,0,0.3,0,0.4,0c0.1,0,0.1,0,0.1-0.1c0,0,0,0,0-0.1c0-0.3,0-0.5,0-0.8 C21.4,67.4,21.4,67.4,21.3,67.4z"></path> <path style="fill:#FFFFFF;" d="M2.7,68.8c-0.3,0-0.6,0-0.9,0c-0.1,0-0.1,0-0.1,0.1c0,0.2,0,0.3,0,0.5c0,0,0,0,0,0 c0,0.2,0,0.3,0,0.5c0,0.1,0,0.1,0.1,0.1c0.3,0,0.6,0,0.9,0c0.1,0,0.1,0,0.1-0.1c0-0.3,0-0.6,0-0.9C2.8,68.8,2.8,68.8,2.7,68.8z"></path> <path style="fill:#FFFFFF;" d="M12.8,67.9c-0.1,0-0.3,0-0.4,0c0,0,0,0,0,0c-0.1,0-0.3,0-0.4,0c-0.1,0-0.1,0-0.1,0.1 c0,0.1,0,0.2,0,0.4c0,0.2,0,0.3,0,0.5c0,0.1,0,0.2,0.2,0.2c0.3,0,0.5,0,0.8,0c0.1,0,0.2,0,0.2-0.2c0-0.3,0-0.6,0-0.9 C12.9,68,12.9,67.9,12.8,67.9z"></path> <path style="fill:#FFFFFF;" d="M69,67.2c0-0.1,0-0.1-0.1-0.1c-0.3,0-0.6,0-0.9,0c-0.1,0-0.2,0-0.2,0.2c0,0.3,0,0.6,0,0.9 c0,0.1,0,0.1,0.1,0.1c0.3,0,0.6,0,0.9,0c0.1,0,0.2-0.1,0.2-0.2c0-0.1,0-0.3,0-0.4c0,0,0,0,0,0C69,67.4,69,67.3,69,67.2z"></path> <path style="fill:#FFFFFF;" d="M95.3,30.3c0.3,0,0.6,0,0.9,0c0.1,0,0.1,0,0.1-0.1c0-0.3,0-0.6,0-0.9c0-0.1,0-0.1-0.2-0.2 c-0.3,0-0.5,0-0.8,0c0,0,0,0-0.1,0c-0.1,0-0.1,0-0.1,0.1c0,0.1,0,0.3,0,0.4c0,0,0,0,0,0c0,0.2,0,0.3,0,0.5 C95.2,30.3,95.2,30.3,95.3,30.3z"></path> <path style="fill:#FFFFFF;" d="M1.8,30.3c0.3,0,0.5,0,0.8,0c0,0,0,0,0,0c0.1,0,0.1,0,0.1-0.2c0-0.3,0-0.6,0-0.9 c0-0.1,0-0.1-0.1-0.1c-0.2,0-0.3,0-0.5,0c0,0,0,0,0,0c-0.1,0-0.3,0-0.4,0c-0.1,0-0.2,0-0.2,0.1c0,0.3,0,0.6,0,0.9 C1.7,30.3,1.7,30.3,1.8,30.3z"></path> <path style="fill:#FFFFFF;" d="M82,67.8c0-0.1,0-0.1-0.1-0.1c-0.1,0-0.2,0-0.4,0c-0.2,0-0.3,0-0.5,0c-0.1,0-0.2,0-0.2,0.2 c0,0.3,0,0.6,0,0.8c0,0.1,0,0.1,0.1,0.1c0.3,0,0.6,0,0.9,0c0.1,0,0.1,0,0.1-0.1c0-0.1,0-0.3,0-0.4c0,0,0,0,0,0 C82,68.1,82,67.9,82,67.8z"></path> <path style="fill:#FFFFFF;" d="M17,67.6c-0.3,0-0.5,0-0.8,0c-0.1,0-0.2,0-0.2,0.2c0,0.3,0,0.5,0,0.8c0,0.1,0,0.2,0.1,0.2 c0.3,0,0.6,0,0.9,0c0.1,0,0.1,0,0.1-0.2c0-0.1,0-0.3,0-0.4c0,0,0,0,0,0c0-0.1,0-0.3,0-0.4C17.1,67.7,17.1,67.7,17,67.6z"></path> <path style="fill:#FFFFFF;" d="M79.8,67.5c-0.3,0-0.6,0-0.8,0c-0.1,0-0.1,0-0.2,0.2c0,0.2,0,0.4,0,0.6c0,0.1,0,0.1,0,0.2 c0,0.1,0,0.1,0.1,0.1c0.3,0,0.6,0,0.8,0c0.1,0,0.2,0,0.2-0.2c0-0.1,0-0.3,0-0.4c0,0,0,0,0,0c0-0.1,0-0.3,0-0.4 C79.9,67.6,79.9,67.5,79.8,67.5z"></path> <path style="fill:#FFFFFF;" d="M19.1,67.5c-0.3,0-0.6,0-0.9,0c-0.1,0-0.2,0-0.2,0.2c0,0.3,0,0.5,0,0.8c0,0.1,0,0.2,0.2,0.2 c0.1,0,0.3,0,0.4,0c0,0,0,0,0,0c0.1,0,0.3,0,0.4,0c0.1,0,0.2,0,0.2-0.2c0-0.3,0-0.5,0-0.8C19.3,67.6,19.2,67.5,19.1,67.5z"></path> <path style="fill:#FFFFFF;" d="M77.6,67.4c-0.3,0-0.6,0-0.9,0c-0.1,0-0.2,0-0.2,0.1c0,0.3,0,0.6,0,0.9c0,0.1,0.1,0.1,0.2,0.1 c0.1,0,0.3,0,0.4,0c0,0,0,0,0,0c0.1,0,0.3,0,0.4,0c0.1,0,0.2,0,0.2-0.2c0-0.3,0-0.5,0-0.8C77.8,67.4,77.7,67.4,77.6,67.4z"></path> <path style="fill:#FFFFFF;" d="M75.5,67.3c-0.3,0-0.6,0-0.9,0c-0.1,0-0.1,0-0.1,0.1c0,0.3,0,0.6,0,0.9c0,0.1,0,0.1,0.1,0.1 c0.1,0,0.3,0,0.4,0c0,0,0,0,0,0c0.1,0,0.3,0,0.4,0c0.1,0,0.2,0,0.2-0.2c0-0.3,0-0.5,0-0.8c0,0,0,0,0-0.1 C75.6,67.3,75.6,67.3,75.5,67.3z"></path> <path style="fill:#FFFFFF;" d="M73.3,67.2c-0.3,0-0.6,0-0.9,0c-0.1,0-0.2,0-0.2,0.2c0,0.3,0,0.6,0,0.9c0,0.1,0,0.1,0.1,0.1 c0.1,0,0.3,0,0.4,0c0,0,0,0,0,0c0.1,0,0.3,0,0.4,0c0.1,0,0.2,0,0.2-0.2c0-0.3,0-0.6,0-0.9C73.4,67.2,73.4,67.2,73.3,67.2z"></path> <path style="fill:#FFFFFF;" d="M27.8,67.1c-0.3,0-0.6,0-0.9,0c-0.1,0-0.1,0-0.2,0.1c0,0.3,0,0.6,0,0.9c0,0.1,0,0.1,0.2,0.1 c0.1,0,0.3,0,0.4,0c0,0,0,0,0,0c0.1,0,0.3,0,0.4,0c0.1,0,0.1,0,0.2-0.1c0-0.3,0-0.6,0-0.9C27.9,67.1,27.9,67.1,27.8,67.1z"></path> <path style="fill:#FFFFFF;" d="M70.1,31.9c0,0.1,0.1,0.1,0.1,0.1c0.3,0,0.6,0,0.9,0c0.1,0,0.1,0,0.1-0.1c0-0.1,0-0.3,0-0.4 c0,0,0,0,0,0c0-0.1,0-0.3,0-0.4c0-0.1,0-0.1-0.1-0.1c-0.3,0-0.6,0-0.9,0c-0.1,0-0.2,0.1-0.2,0.2C70.1,31.3,70.1,31.6,70.1,31.9 C70.1,31.9,70.1,31.9,70.1,31.9z"></path> <path style="fill:#FFFFFF;" d="M26.9,32c0.1,0,0.3,0,0.4,0c0,0,0,0,0,0c0.1,0,0.3,0,0.4,0c0.1,0,0.2,0,0.2-0.2c0-0.3,0-0.5,0-0.8 c0-0.1,0-0.2-0.2-0.2c-0.3,0-0.6,0-0.9,0c-0.1,0-0.2,0-0.2,0.1c0,0.3,0,0.6,0,0.9C26.8,32,26.8,32,26.9,32z"></path> <path style="fill:#FFFFFF;" d="M72.4,31.9c0.3,0,0.6,0,0.9,0c0.1,0,0.1,0,0.1-0.1c0-0.3,0-0.6,0-0.9c0-0.1-0.1-0.1-0.2-0.1 c-0.1,0-0.3,0-0.4,0c0,0,0,0,0,0c-0.1,0-0.3,0-0.4,0c-0.1,0-0.1,0-0.1,0.1c0,0.3,0,0.6,0,0.9C72.3,31.9,72.3,31.9,72.4,31.9z"></path> <path style="fill:#FFFFFF;" d="M68,32.1c0.3,0,0.6,0,0.9,0c0.1,0,0.1,0,0.1-0.1c0-0.3,0-0.6,0-0.9c0-0.1,0-0.1-0.1-0.1 c-0.1,0-0.3,0-0.4,0c0,0,0,0,0,0c-0.1,0-0.3,0-0.4,0c-0.1,0-0.2,0-0.2,0.2c0,0.3,0,0.6,0,0.9C67.9,32.1,67.9,32.1,68,32.1z"></path> <path style="fill:#FFFFFF;" d="M74.6,31.8c0.1,0,0.3,0,0.4,0c0,0,0,0,0,0c0.1,0,0.3,0,0.4,0c0.1,0,0.1,0,0.1-0.1c0-0.3,0-0.6,0-0.9 c0-0.1-0.1-0.1-0.2-0.1c-0.3,0-0.6,0-0.8,0c-0.1,0-0.1,0-0.1,0.1c0,0.3,0,0.6,0,0.8C74.5,31.8,74.5,31.8,74.6,31.8z"></path> <path style="fill:#FFFFFF;" d="M11.8,31.1c0,0.1,0.1,0.1,0.1,0.1c0.1,0,0.3,0,0.4,0c0,0,0,0,0,0c0.1,0,0.3,0,0.4,0 c0.1,0,0.1,0,0.1-0.1c0-0.3,0-0.6,0-0.9c0-0.1,0-0.1-0.2-0.1c-0.3,0-0.6,0-0.9,0c-0.1,0-0.1,0-0.1,0.1 C11.8,30.5,11.8,30.8,11.8,31.1C11.8,31.1,11.8,31.1,11.8,31.1z"></path> <path style="fill:#FFFFFF;" d="M23.4,67.3c-0.2,0-0.5,0-0.7,0c0,0-0.1,0-0.1,0c-0.1,0-0.1,0-0.1,0.1c0,0.1,0,0.3,0,0.4c0,0,0,0,0,0 c0,0.1,0,0.3,0,0.4c0,0.1,0,0.2,0.1,0.2c0.3,0,0.6,0,0.9,0c0.1,0,0.1,0,0.1-0.2c0-0.3,0-0.6,0-0.9C23.6,67.3,23.5,67.3,23.4,67.3z"></path> <polygon style="fill:#FFFFFF;" points="37.3,69.3 37.3,69.3 37.3,69.3 "></polygon> <polygon style="fill:#FFFFFF;" points="37.3,69.3 37.3,69.3 37.3,69.3 "></polygon> <polygon style="fill:#FFFFFF;" points="34.9,40.6 34.9,40.6 34.9,40.6 "></polygon> <polygon style="fill:#FFFFFF;" points="81.3,48.1 81.3,48.1 81.3,48.1 "></polygon> <polygon style="fill:#FFFFFF;" points="81.3,48.1 81.3,48.1 81.3,48.1 "></polygon> <polygon style="fill:#FFFFFF;" points="81.1,48 81.1,48 81.1,48 "></polygon> <polygon style="fill:#FFFFFF;" points="14.8,62.4 14.8,62.4 14.8,62.4 "></polygon> <polygon style="fill:#FFFFFF;" points="14.6,62.5 14.6,62.5 14.6,62.5 "></polygon> <path style="fill:#FFFFFF;" d="M17.7,57.6C17.7,57.5,17.7,57.5,17.7,57.6L17.7,57.6L17.7,57.6C17.7,57.5,17.7,57.5,17.7,57.6z"></path> <polygon style="fill:#FFFFFF;" points="14.8,62.4 14.8,62.4 14.8,62.4 "></polygon> <polygon style="fill:#FFFFFF;" points="14.6,62.5 14.6,62.5 14.6,62.5 "></polygon> <polygon style="fill:#FFFFFF;" points="76.3,39.7 76.3,39.7 76.3,39.7 "></polygon> <polygon style="fill:#FFFFFF;" points="75.7,39.1 75.7,39.1 75.7,39.1 "></polygon> <polygon style="fill:#FFFFFF;" points="44.2,48.5 44.2,48.5 44.2,48.5 "></polygon> <polygon style="fill:#FFFFFF;" points="44,49 44,49 44,49 "></polygon> <path style="fill:#FFFFFF;" d="M33.6,32.2c0.1,0,0.3,0,0.4,0c0,0,0,0,0,0c0.1,0,0.3,0,0.4,0c0.1,0,0.1,0,0.1-0.1c0-0.3,0-0.6,0-0.9 c0-0.1,0-0.1-0.2-0.2c-0.2,0-0.4,0-0.5,0c-0.1,0-0.2,0-0.3,0c-0.1,0-0.1,0-0.1,0.1c0,0.3,0,0.6,0,0.8 C33.5,32.2,33.5,32.2,33.6,32.2z"></path> <path style="fill:#FFFFFF;" d="M31.3,32.2c0.3,0,0.6,0,0.9,0c0.1,0,0.1,0,0.1-0.1c0-0.1,0-0.3,0-0.4c0,0,0,0,0,0c0-0.1,0-0.3,0-0.4 c0-0.1,0-0.2-0.2-0.2c-0.3,0-0.6,0-0.8,0c-0.1,0-0.1,0-0.1,0.1c0,0.3,0,0.6,0,0.9C31.2,32.1,31.3,32.2,31.3,32.2z"></path> <polygon style="fill:#FFFFFF;" points="49.8,48 49.8,48 49.8,48 "></polygon> <polygon style="fill:#FFFFFF;" points="77.4,41.2 77.4,41.2 77.4,41.2 "></polygon> <path style="fill:#FFFFFF;" d="M19.8,39.7L19.8,39.7C19.8,39.7,19.8,39.7,19.8,39.7L19.8,39.7z"></path> <polygon style="fill:#FFFFFF;" points="49.8,48 49.8,48 49.8,48 "></polygon> <polygon style="fill:#FFFFFF;" points="77.4,41.2 77.4,41.2 77.4,41.2 "></polygon> <polygon style="fill:#FFFFFF;" points="49.8,48 49.8,48 49.8,48 "></polygon> <polygon style="fill:#FFFFFF;" points="77.4,41.2 77.4,41.2 77.4,41.2 "></polygon> <path style="fill:#FFFFFF;" d="M44.8,61.4L44.8,61.4C44.8,61.4,44.8,61.4,44.8,61.4z"></path> <polygon style="fill:#FFFFFF;" points="44.8,61.4 44.8,61.4 44.8,61.4 "></polygon> <polygon style="fill:#FFFFFF;" points="49.8,48 49.8,48 49.8,48 "></polygon> <path style="fill:#FFFFFF;" d="M47.8,39.2C47.8,39.2,47.8,39.2,47.8,39.2L47.8,39.2C47.8,39.2,47.8,39.2,47.8,39.2z"></path> <polygon style="fill:#FFFFFF;" points="77.4,41.2 77.4,41.2 77.4,41.2 "></polygon> <path style="fill:#FFFFFF;" d="M47.8,39.2l0.1-0.2C47.8,39.1,47.9,39.2,47.8,39.2C47.8,39.2,47.8,39.2,47.8,39.2z"></path> <path style="fill:#FFFFFF;" d="M45.5,51.8l-0.1,0.4c0,0.1-0.1,0.2-0.1,0.3L45.1,53L45.5,51.8C45.5,51.8,45.5,51.8,45.5,51.8z"></path> <polygon style="fill:#FFFFFF;" points="46.6,48.2 45.9,50.5 45.9,50.5 46.6,48.2 "></polygon> <polygon style="fill:#FFFFFF;" points="77.4,41.2 77.4,41.2 77.4,41.2 "></polygon> <polygon style="fill:#FFFFFF;" points="77.4,41.2 77.4,41.2 77.4,41.2 "></polygon> <polygon style="fill:#FFFFFF;" points="77.4,41.2 77.4,41.2 77.4,41.2 "></polygon> <path style="fill:#FFFFFF;" d="M54.7,51.2C54.7,51.2,54.7,51.2,54.7,51.2L54.7,51.2C54.7,51.2,54.7,51.2,54.7,51.2z"></path> <path style="fill:#FFFFFF;" d="M55.1,52.3C55.1,52.3,55.1,52.3,55.1,52.3L55.1,52.3C55.1,52.3,55.1,52.3,55.1,52.3z"></path> <path style="fill:#FFFFFF;" d="M56.6,56.2c0,0.1,0.1,0.1,0.1,0.2l-0.1-0.4C56.5,56.1,56.6,56.2,56.6,56.2z"></path> <path style="fill:#FFFFFF;" d="M55.1,52.1C55.1,52.2,55.1,52.2,55.1,52.1L55.1,52.1C55,52.1,55.1,52.1,55.1,52.1z"></path> <polygon style="fill:#FFFFFF;" points="54.8,51.5 54.8,51.5 54.8,51.5 "></polygon> <path style="fill:#FFFFFF;" d="M54.9,51.7C54.9,51.7,54.9,51.7,54.9,51.7L54.9,51.7C54.9,51.6,54.9,51.6,54.9,51.7z"></path> <polygon style="fill:#FFFFFF;" points="55,52 55,52 55,52 "></polygon> <polygon style="fill:#FFFFFF;" points="55.2,52.4 55.2,52.4 55.2,52.4 "></polygon> <polygon style="fill:#FFFFFF;" points="77.4,41.2 77.4,41.2 77.4,41.2 "></polygon> <path style="fill:#FFFFFF;" d="M55.1,52.3L55.1,52.3C55.2,52.4,55.2,52.4,55.1,52.3C55.2,52.4,55.1,52.3,55.1,52.3z"></path> <path style="fill:#FFFFFF;" d="M55.2,52.4l1.4,3.6c-0.4-1-0.8-2.1-1.1-3.1C55.3,52.8,55.3,52.6,55.2,52.4z"></path> <path style="fill:#FFFFFF;" d="M54.7,51.1c0,0,0-0.1-0.1-0.1L54.7,51.1C54.7,51.2,54.7,51.1,54.7,51.1z"></path> <path style="fill:#FFFFFF;" d="M54.8,51.3C54.8,51.3,54.8,51.3,54.8,51.3c0-0.1,0-0.1,0-0.1l0.1,0.3c0,0,0,0,0-0.1 C54.8,51.4,54.8,51.3,54.8,51.3z"></path> <path style="fill:#FFFFFF;" d="M54.9,51.8L54.9,51.8C54.9,51.8,54.9,51.8,54.9,51.8L55,52c0,0,0,0,0-0.1C55,51.9,55,51.8,54.9,51.8 z"></path> <path style="fill:#FFFFFF;" d="M55.1,52.2L55.1,52.2C55.1,52.3,55.1,52.3,55.1,52.2C55.1,52.2,55.1,52.2,55.1,52.2z"></path> <path style="fill:#FFFFFF;" d="M54.8,51.5l0.1,0.1c0,0,0,0,0,0C54.8,51.6,54.8,51.5,54.8,51.5z"></path> <path style="fill:#FFFFFF;" d="M55,52l0.1,0.1c0,0,0,0,0,0C55,52,55,52,55,52z"></path> <path style="fill:#FFFFFF;" d="M58.9,60.5c-0.1,0-0.2,0-0.4-0.1C58.7,60.4,58.8,60.4,58.9,60.5z"></path> <polygon style="fill:#FFFFFF;" points="77.4,41.2 77.4,41.2 77.4,41.2 "></polygon> <polygon style="fill:#FFFFFF;" points="58.6,60.4 58.6,60.4 58.6,60.4 "></polygon> <polygon style="fill:#FFFFFF;" points="77.4,41.2 77.4,41.2 77.4,41.2 "></polygon> <polygon style="fill:#FFFFFF;" points="77.4,41.2 77.4,41.2 77.4,41.2 "></polygon> <polygon style="fill:#FFFFFF;" points="77.4,41.2 77.4,41.2 77.4,41.2 "></polygon> <polygon style="fill:#FFFFFF;" points="74.5,38.4 74.5,38.4 74.5,38.4 "></polygon> <path style="fill:#FFFFFF;" d="M68.1,62C68.1,62,68.1,62,68.1,62L68.1,62C68.1,62,68.1,62,68.1,62z"></path> <polygon style="fill:#FFFFFF;" points="94.5,37.7 94.5,37.7 94.5,37.7 "></polygon> <path style="fill:#FFFFFF;" d="M82.3,37.2C82.3,37.2,82.3,37.2,82.3,37.2C82.3,37.2,82.3,37.2,82.3,37.2 C82.3,37.2,82.3,37.2,82.3,37.2z"></path> <path style="fill:#FFFFFF;" d="M88.4,48C88.4,48,88.4,48,88.4,48C88.4,48,88.4,48,88.4,48C88.4,48,88.4,48,88.4,48z"></path> <polygon style="fill:#FFFFFF;" points="78.1,62.8 78.1,62.8 78.1,62.8 "></polygon> <path style="fill:#FFFFFF;" d="M88.4,48C88.4,48,88.4,48,88.4,48C88.4,48,88.4,48,88.4,48C88.4,48,88.4,48,88.4,48z"></path> <path style="fill:#FFFFFF;" d="M82.3,37.2C82.3,37.2,82.3,37.2,82.3,37.2C82.3,37.2,82.3,37.2,82.3,37.2 C82.3,37.2,82.3,37.2,82.3,37.2z"></path> <polygon style="fill:#FFFFFF;" points="94.5,37.7 94.5,37.7 94.5,37.7 "></polygon> <path style="fill:#FFFFFF;" d="M88.4,48C88.4,48,88.4,48,88.4,48C88.4,48,88.4,48,88.4,48C88.4,48,88.4,48,88.4,48z"></path> <polygon style="fill:#FFFFFF;" points="94.5,37.7 94.5,37.7 94.5,37.7 "></polygon> <path style="fill:#FFFFFF;" d="M82.3,37.2C82.3,37.2,82.3,37.2,82.3,37.2C82.3,37.2,82.3,37.2,82.3,37.2 C82.3,37.2,82.3,37.2,82.3,37.2z"></path> <path style="fill:#FFFFFF;" d="M88.4,48C88.4,48,88.4,48,88.4,48C88.4,48,88.4,48,88.4,48C88.4,48,88.4,48,88.4,48z"></path> <path style="fill:#FFFFFF;" d="M82.3,37.2C82.3,37.2,82.3,37.2,82.3,37.2C82.3,37.2,82.3,37.2,82.3,37.2 C82.3,37.2,82.3,37.2,82.3,37.2z"></path> <polygon style="fill:#FFFFFF;" points="94.5,37.7 94.5,37.7 94.5,37.7 "></polygon> <path style="fill:#FFFFFF;" d="M82.3,37.2C82.3,37.2,82.3,37.2,82.3,37.2C82.3,37.2,82.3,37.2,82.3,37.2 C82.3,37.2,82.3,37.2,82.3,37.2z"></path> <polygon style="fill:#FFFFFF;" points="84.2,60.8 84.2,60.8 84.2,60.8 "></polygon> <path style="fill:#FFFFFF;" d="M88.4,48C88.4,48,88.4,48,88.4,48C88.4,48,88.4,48,88.4,48C88.4,48,88.4,48,88.4,48z"></path> <path style="fill:#FFFFFF;" d="M96.3,57c0-0.4-0.1-0.8-0.2-1.2c0-0.1,0-0.2-0.1-0.3c-0.1-0.1-0.1-0.2-0.1-0.3 c-0.1-0.2-0.1-0.3-0.2-0.5c-0.1-0.2-0.1-0.4-0.3-0.5v0c0,0,0,0,0,0c0,0,0-0.1-0.1-0.1l0,0c0,0,0,0-0.1-0.1c0,0,0,0,0-0.1 c0,0,0,0-0.1-0.1v0c0,0,0-0.1-0.1-0.1h0c0,0,0,0-0.1-0.1c0,0,0,0,0-0.1c0,0,0,0-0.1-0.1c-0.1-0.1-0.2-0.3-0.3-0.4 c-0.2-0.3-0.5-0.5-0.7-0.7c0,0,0,0,0,0c-0.2-0.2-0.4-0.4-0.7-0.6c-0.1-0.1-0.2-0.2-0.3-0.3c-0.3-0.3-0.6-0.5-0.9-0.8 c-0.3-0.3-0.6-0.5-1-0.8c0,0,0,0,0,0c-0.1-0.1-0.2-0.1-0.2-0.2c-0.4-0.3-0.7-0.6-1.1-0.9c-0.4-0.3-0.8-0.6-1.2-0.9c0,0,0,0-0.1-0.1 l0,0c0,0,0,0,0,0c0,0-0.1,0-0.1-0.1c0,0,0,0,0,0v0c-0.1-0.1-0.1-0.1-0.2-0.2c-0.5-0.4-1-0.7-1.5-1.1c-0.3-0.2-0.7-0.5-1-0.7 c-0.1,0-0.1-0.1-0.2-0.1c-0.4-0.3-0.8-0.6-1.1-1c-0.1-0.1-0.2-0.3-0.3-0.4c0,0-2.8-4.4,1.5-5.1c0,0,3.8-1.4,4.7,4.1c0,0,0,0,0,0 c0.2,0,0.4,0,0.5,0c0.5,0,0.9,0,1.4-0.1c0.5,0,0.6,0,0.9-0.4v-7.7c-0.7,0.1-1.3,0.2-2,0.3c-0.1,0-0.1,0-0.2,0.1 c-0.1,0.1,0,0.1,0,0.2c0,0.2,0,0.2-0.3,0.2c0,0,0,0,0,0c-0.5-0.2-1.1-0.2-1.6-0.3c-0.7,0-1.3,0.1-2,0.2c-0.1,0-0.3,0-0.4,0.1 c0,0,0,0,0,0c0,0,0,0,0,0c0,0,0,0,0,0c-0.2,0-0.4,0-0.6,0.1c-0.4,0-0.8,0.1-1.2,0.2c-0.5,0.1-1,0.2-1.4,0.5c0,0,0,0,0,0 c0,0,0,0,0,0c0,0-0.1,0-0.1,0c0,0,0,0,0,0c0,0,0,0,0,0s0,0,0,0l0,0c0,0,0,0-0.1,0c0,0,0,0,0.1,0c0,0-0.1,0-0.1,0.1 c0,0-0.1,0-0.1,0.1c0,0-0.1,0-0.1,0.1c0,0-0.1,0-0.1,0.1l0,0c0,0,0,0,0,0c0,0,0,0,0,0c0,0-0.1,0-0.1,0c0,0,0,0,0,0l0,0 c0,0,0,0-0.1,0c0,0,0,0,0,0c0,0,0,0-0.1,0c0,0,0,0,0,0l0,0c0,0,0,0-0.1,0c0,0,0,0,0.1,0c0,0-0.1,0-0.1,0.1c0,0,0,0,0,0l0,0 c0,0,0,0-0.1,0.1c0,0,0,0,0,0c0,0,0,0,0.1,0c0,0-0.1,0-0.1,0c0,0,0,0,0,0c-0.1,0-0.2,0.1-0.3,0.2c-0.3,0.2-0.5,0.4-0.8,0.6 C81.1,38,81,38.1,81,38.2c-0.1,0.1-0.3,0.3-0.4,0.4v0c-0.4,0.3-0.6,0.7-0.9,1.1c0,0,0,0-0.1,0.1c0,0,0,0,0,0.1c0,0,0,0-0.1,0.1 c0,0,0,0,0,0.1c-0.2,0.3-0.4,0.6-0.5,1c-0.2,0.3-0.2,0.6-0.3,0.9c-0.1,0.2-0.1,0.4-0.1,0.7c0,0.4,0,0.9,0,1.3c0,0.1,0,0.2,0.1,0.3 c0,0.3,0.1,0.6,0.2,0.9c0,0,0,0,0,0.1c0,0,0,0.1,0.1,0.1c0,0,0,0,0,0.1c0,0,0,0.1,0.1,0.1c0.1,0.2,0.2,0.4,0.3,0.6v0 c0.2,0.4,0.4,0.7,0.7,1l0,0c0,0,0,0,0.1,0.1l0,0c0,0,0,0,0.1,0.1l0,0c0,0,0,0,0.1,0.1c0.2,0.3,0.5,0.5,0.8,0.7v0c0,0,0,0,0,0 c0,0,0,0,0,0l0,0c0,0,0,0,0.1,0.1c0,0,0,0,0.1,0.1l0,0c0,0,0,0,0,0c0,0,0,0,0,0c0,0,0.1,0,0.1,0.1l0,0c0,0,0,0,0,0c0,0,0,0,0.1,0.1 l0,0c0,0,0,0,0.1,0.1l0,0c0,0,0,0,0,0c0.5,0.4,1,0.8,1.6,1.2c0.2,0.1,0.3,0.2,0.5,0.4c0.1,0.1,0.2,0.1,0.2,0.2 c0.2,0.2,0.4,0.3,0.6,0.5c0.2,0.2,0.4,0.3,0.6,0.5h0c0,0,0.1,0.1,0.1,0.1c0.3,0.2,0.6,0.5,0.8,0.7c0.1,0.1,0.3,0.3,0.4,0.3 c0,0,0,0,0,0c0.1,0.1,0.2,0.2,0.3,0.3c0.1,0.1,0.2,0.1,0.2,0.2c0.3,0.2,0.6,0.5,0.9,0.7c0.4,0.3,0.8,0.7,1.1,1l0,0 c0,0,0.8,0.5,1.3,1.7c0,0,0,0.1,0,0.1c0,0,0,0,0,0c0,0,0,0,0,0c0,0,0,0.1,0,0.1c0,0,0,0,0,0.1c0,0,0,0,0,0c0.4,1.1,0.5,2.7-0.6,4.9 c0,0-1.9,3-5.6-0.4c0,0,0,0,0,0c0,0-1.4-0.8-2.8-4.2l-3.2-0.1v6.2c0,0,3.1-0.1,9.8,1.4c0.4,0,0.8,0.1,1.1,0.1 c1.4,0.1,2.8-0.1,4-0.9c0.5-0.3,1-0.6,1.3-1.1c0.1-0.1,0.1-0.1,0.2-0.2c0.3-0.3,0.5-0.6,0.7-1c0,0,0,0,0-0.1c0,0,0,0,0,0 c0,0,0,0,0-0.1l0,0c0,0,0,0,0,0c0,0,0-0.1,0-0.1c0,0,0,0,0,0c0,0,0,0,0,0l0,0c0,0,0,0,0,0c0.1-0.2,0.2-0.4,0.3-0.6c0,0,0-0.1,0-0.1 c0,0,0,0,0-0.1c0,0,0-0.1,0.1-0.1c0,0,0,0,0-0.1c0,0,0-0.1,0.1-0.1c0,0,0-0.1,0.1-0.1c0,0,0,0,0-0.1c0-0.1,0.1-0.1,0.1-0.2 c0,0,0-0.1,0.1-0.1c0,0,0-0.1,0-0.1h0c0-0.1,0.1-0.2,0.1-0.2c0,0,0-0.1,0-0.1c0.1-0.3,0.1-0.7,0.1-1C96.3,57.6,96.3,57.3,96.3,57z M82.8,36.9C82.8,36.9,82.9,36.9,82.8,36.9C82.9,36.9,82.8,36.9,82.8,36.9z M82.9,36.8C82.9,36.8,83,36.8,82.9,36.8 C83,36.8,82.9,36.8,82.9,36.8z M83,36.8C83.1,36.7,83.1,36.7,83,36.8C83.1,36.7,83.1,36.7,83,36.8z M88.4,48 C88.4,48,88.4,48,88.4,48C88.4,48,88.4,48,88.4,48C88.4,48,88.4,48,88.4,48z"></path> <polygon style="fill:#FFFFFF;" points="14.5,55.2 14.5,55.2 14.5,55.2 "></polygon> <g> <path style="fill:#FFFFFF;" d="M48.8,30.8c-0.2-0.4-0.4-0.8-0.6-1.2c0-0.1-0.1-0.1-0.1-0.2c0,0,0-0.1-0.1-0.1 c-0.4-0.7-0.7-1.4-1.1-2.2c0,0-0.1-0.1-0.1-0.1c0-0.1-0.1-0.2-0.1-0.2c-0.3-0.6-0.7-1.3-1-1.9c0-0.1-0.1-0.2-0.1-0.2 c-0.1-0.2-0.2-0.5-0.4-0.7c0-0.1-0.1-0.1-0.1-0.1c-0.1,0-0.1,0-0.2,0c-0.6,0.2-1.1,0.3-1.7,0.5c-0.2,0-0.3,0.1-0.5,0.2v0 c-0.5,0.1-0.9,0.2-1.4,0.4c0,0-0.1,0-0.1,0c0,0,0,0,0,0c0,0,0,0,0,0c-0.1,0-0.1,0-0.2,0c0,0,0,0,0,0c-0.3,0.1-0.6,0.1-0.9,0.2 c-0.3,0.1-0.6,0.2-0.9,0.2c-0.3,0.1-0.6,0.2-0.9,0.3c-0.1,0-0.2,0.1-0.3,0.2c-0.1,0.1-0.2,0.3-0.3,0.4l0,0c0,0,0,0-0.1,0.1 c0,0-0.1,0.1-0.1,0.1c0,0,0,0,0,0c0,0,0,0-0.1,0.1c0,0.1-0.1,0.1-0.1,0.2c-0.6,0.9-1.2,1.8-1.9,2.7c-0.2,0.3-0.2,0.2,0,0.5 c0.6,1.2,1.2,2.4,1.8,3.5c0,0.1,0.1,0.1,0.1,0.2c0.1,0.1,0.1,0.2,0.2,0.3c0.1,0.2,0.2,0.3,0.3,0.5c0,0,0.1,0.1,0.1,0.1 c0,0.1,0.1,0.2,0.1,0.2c0.3,0.6,0.6,1.2,0.9,1.7c0.1,0.2,0.1,0.2,0.4,0.2c0.2,0,0.4-0.1,0.6-0.1c0.1,0,0.3-0.1,0.4-0.1 c0,0,0,0,0,0c0.1,0,0.1,0,0.2,0c0.6-0.1,1.2-0.3,1.8-0.4c0,0,0.1,0,0.1-0.1c0.1,0,0.1,0,0.2,0c0.7-0.2,1.3-0.3,2-0.5 c0.1,0,0.1,0,0.2-0.1h0c0.5-0.1,1-0.2,1.6-0.4c0.1,0,0.1,0,0.1-0.1c0-0.1,0.1-0.1,0.1-0.2l2.2-3.8C48.9,30.9,48.8,30.8,48.8,30.8z M38,28.3c0,0.1-0.1,0.1-0.2,0.2c-0.1,0.1-0.1,0.1-0.2,0.1c0,0,0,0-0.1,0c-0.1,0-0.1,0.1-0.2,0.1c-0.3,0.2-0.7,0.3-1.1,0.3 c0,0,0,0,0,0c0,0-0.1,0-0.1,0c0,0,0,0,0,0c0-0.1,0-0.3,0.1-0.4c0.1-0.1,0.3-0.2,0.4-0.3c0.3-0.2,0.6-0.3,0.9-0.4c0,0,0.1,0,0.1,0 c0.1,0,0.1,0,0.2,0C38.1,28,38.1,28.1,38,28.3z M39.3,27.2c-0.3-0.1,0-0.4,0-0.4c0.1-0.2,0.3-0.3,0.5-0.4c0,0,0,0,0,0 c0.3-0.1,0.5-0.2,0.8-0.3c0,0,0,0,0,0c0.1,0,0.1,0,0.2,0c0.1,0,0.1,0,0.2,0c0.2,0,0.2,0.1,0.2,0.3c0,0.1-0.1,0.1-0.1,0.1 c0,0,0,0-0.1,0.1c-0.3,0.2-0.6,0.4-1,0.5C39.8,27.2,39.6,27.3,39.3,27.2z M41.3,33.3c-0.2,0-0.4,0-0.5,0c0,0-0.1,0-0.1-0.1 c0,0-0.1,0-0.1-0.1c-0.2-0.1-0.4-0.3-0.6-0.5c-0.1-0.1-0.1-0.2-0.2-0.3c-0.1-0.5,0.1-0.9,0.6-1c0.3-0.1,0.6,0,0.9,0.1 c0,0,0.1,0,0.1,0.1c0.1,0,0.1,0.1,0.2,0.1c0.1,0.1,0.1,0.1,0.2,0.2c0.1,0.1,0.2,0.3,0.3,0.5C42.1,32.8,41.8,33.2,41.3,33.3z M44.4,24.6c-0.1,0.1-0.2,0.2-0.3,0.3c-0.2,0.1-0.3,0.2-0.5,0.3c0,0-0.1,0-0.1,0.1c0,0-0.1,0-0.1,0.1c0,0,0,0-0.1,0c0,0,0,0,0,0 c0,0-0.1,0-0.1,0c-0.2,0-0.4,0.1-0.5,0.1c-0.1,0-0.3,0-0.3-0.1c0-0.1,0.1-0.2,0.1-0.3c0.1-0.1,0.2-0.2,0.4-0.3 c0.2-0.1,0.3-0.2,0.5-0.2c0,0,0,0,0.1,0c0,0,0,0,0.1,0c0,0,0,0,0.1,0c0,0,0,0,0,0c0,0,0.1,0,0.1,0c0,0,0,0,0.1,0c0,0,0,0,0.1,0 c0,0,0,0,0.1,0c0,0,0.1,0,0.1,0c0.1,0,0.3,0,0.4,0c0,0,0.1,0,0.1,0C44.5,24.4,44.5,24.5,44.4,24.6z M45.8,26.6 c-0.1,0.3-0.5-0.1-0.5-0.1c0,0,0,0-0.1-0.1c0,0,0,0,0,0c-0.8-1-0.4-1.7-0.4-1.7c0,0,0,0,0.1-0.1c0.1-0.1,0.3,0,0.4,0 c0,0,0.1,0,0.1,0.1c0,0,0.1,0.1,0.1,0.1c0.2,0.3,0.3,0.6,0.4,0.9c0,0.1,0,0.3,0,0.4C45.9,26.3,45.9,26.5,45.8,26.6 C45.9,26.6,45.8,26.6,45.8,26.6L45.8,26.6z M47.1,33.6c0,0.1,0,0.2-0.1,0.3C46.9,34,46.8,34,46.7,34c-0.1,0-0.2-0.1-0.3-0.2 c-0.3-0.4-0.5-0.9-0.5-1.4c0-0.1,0-0.2,0.1-0.3c0.1-0.2,0.2-0.2,0.4-0.1c0,0,0,0,0.1,0.1c0,0,0,0,0,0c0,0,0,0,0,0 c0,0,0.1,0,0.1,0.1c0,0,0,0,0,0l0,0c0,0,0,0,0,0.1c0.2,0.2,0.3,0.5,0.4,1c0,0.2,0,0.3,0,0.3C47.1,33.5,47.1,33.5,47.1,33.6z"></path> <polygon style="fill:#FFFFFF;" points="44.9,24.7 44.9,24.7 44.9,24.7 44.9,24.7 44.9,24.7 44.9,24.7 44.9,24.7 "></polygon> </g> <path style="fill:#FFFFFF;" d="M61.2,31.5c-0.1-0.9-0.1-1.8-0.2-2.7c0-0.4-0.1-0.9-0.1-1.3c0-0.5-0.1-0.9-0.1-1.3 c0-0.1,0-0.2,0-0.3c0-0.1-0.1-0.1-0.1-0.1c0,0-0.1,0-0.1,0c0,0-0.1,0-0.1,0c0,0,0,0-0.1,0c0,0,0,0-0.1,0c0,0-0.1,0-0.1,0 c-0.6-0.2-1.1-0.3-1.7-0.5c-0.4-0.1-0.8-0.2-1.2-0.3c-0.1,0-0.1,0-0.2-0.1c-0.4-0.1-0.8-0.2-1.2-0.3c-0.1,0-0.1,0-0.2,0 c-0.2-0.1-0.4-0.1-0.7-0.2c-0.3-0.1-0.6-0.2-0.9-0.2c-0.3-0.1-0.6-0.2-0.9-0.2c-0.1,0-0.2-0.1-0.2-0.1c0,0,0,0-0.1,0 c-0.1,0-0.1,0.1-0.2,0.2c-0.9,1.2-1.7,2.4-2.6,3.5c0,0.1-0.1,0.1-0.1,0.2c-0.1,0.2-0.3,0.3-0.4,0.5c0,0.1,0,0.2,0,0.3 c0,1.3,0,2.6,0,3.9c0,0.2,0,0.4,0,0.6c0,0.4,0,0.8,0,1.2c0,0.1,0,0.3,0,0.4c0,0.2,0,0.3,0,0.5c0,0.1,0,0.1,0.1,0.1l3.1,0.7 c0,0,0.1,0,0.1,0c0.1,0,0.1,0.1,0.2,0l0,0l0,0l0,0c0,0,0,0,0,0l0.2,0c0,0,0,0,0,0l0,0l0,0l0,0c0.1,0,0.1,0.1,0.2,0l0,0l0,0l0,0 c0,0,0,0,0,0l3.5,0.7c0.1,0,0.1,0,0.2-0.1c0.1-0.1,0.2-0.1,0.2-0.2l0,0c0,0,0,0,0.1-0.1c0,0,0,0,0.1-0.1c0,0,0,0,0.1-0.1 c0,0,0,0,0.1-0.1l0,0c0,0,0,0,0.1-0.1l0,0c0,0,0,0,0,0c0,0,0,0,0.1-0.1l0,0c0.1,0,0.1-0.1,0.2-0.1c0,0,0,0,0,0c0,0,0.1,0,0.1-0.1 c0,0,0,0,0.1-0.1c0,0,0,0,0.1-0.1c0,0,0,0,0.1-0.1c0,0,0,0,0.1-0.1c0,0,0,0,0.1-0.1h0c0,0,0,0,0.1-0.1l0,0c0,0,0,0,0.1-0.1l0,0 c0,0,0,0,0.1-0.1l0,0c0.1,0,0.1-0.1,0.2-0.1c0,0,0,0,0,0c0,0,0.1,0,0.1-0.1c0,0,0,0,0.1-0.1c0,0,0,0,0.1-0.1c0,0,0,0,0.1-0.1 c0,0,0,0,0.1-0.1c0,0,0,0,0.1-0.1l0,0c0,0,0,0,0.1-0.1l0,0c0,0,0,0,0.1-0.1l0,0c0,0,0,0,0.1-0.1l0,0c0,0,0,0,0,0c0,0,0,0,0.1,0l0,0 l0,0c0,0,0,0,0.1-0.1c0,0,0,0,0.1-0.1c0,0,0,0,0.1-0.1c0,0,0,0,0.1-0.1c0,0,0,0,0.1-0.1c0,0,0,0,0.1-0.1c0.1-0.1,0.2-0.2,0.3-0.3 c0.2-0.2,0.3-0.3,0.5-0.5c0.2-0.2,0.4-0.3,0.5-0.5c0.1,0,0.1-0.1,0.1-0.2C61.3,32.5,61.2,32,61.2,31.5z M58.8,26.2 c0,0,0.7-0.4,1.3,0.4c0,0,0.4,0.4,0.2,1c0,0-0.4,0.6-1.2,0.1C59.1,27.8,58,27.1,58.8,26.2z M56.6,27.7c0,0,0.7-0.4,1.4,0.4 c0,0,0.4,0.4,0.2,1c0,0-0.4,0.7-1.3,0.2C57,29.4,55.8,28.6,56.6,27.7z M51.9,31.2c0-0.9,0.5-1.4,0.5-1.4c0,0,0,0,0,0c0,0,0,0,0,0 c0,0,0,0,0,0c0,0,0,0,0,0c0.1-0.2,0.2,0,0.3,0.1c0,0,0,0,0,0.1c0,0,0,0.1,0,0.1c0.2,1.6-0.6,1.9-0.6,1.9c-0.3,0-0.2-0.4-0.2-0.4 c0,0,0,0,0,0c0,0,0-0.1,0-0.1c0,0,0,0,0,0C51.9,31.3,51.9,31.3,51.9,31.2C51.9,31.3,51.9,31.3,51.9,31.2 C51.9,31.2,51.9,31.2,51.9,31.2z M50.1,29.9c0,0.1-0.1,0.1-0.1,0c0,0,0,0,0,0c-0.1,0-0.2-0.1-0.2-0.2c0-0.2-0.1-0.3,0-0.5 c0-0.4,0.1-0.7,0.2-1c0,0,0-0.1,0-0.1c0.1-0.5,0.4-0.4,0.4-0.4l0,0c0.1,0,0.1,0,0.1,0.1c0,0.1,0.1,0.2,0.1,0.3c0,0.5-0.1,1-0.3,1.5 C50.3,29.7,50.2,29.8,50.1,29.9C50.2,29.9,50.2,29.9,50.1,29.9z M52.6,35C52.6,35,52.6,35,52.6,35C52.6,35.1,52.6,35.1,52.6,35 c-0.1,0.1-0.1,0.1-0.1,0.2c0,0,0,0-0.1,0.1c0,0,0,0,0,0c0,0,0,0,0,0c0,0,0,0-0.1,0c0,0,0,0,0,0c0,0,0,0,0,0 c-0.2,0.1-0.3,0.1-0.3,0.1l0,0c-0.1,0-0.1,0-0.2,0.1c-0.3,0-0.6,0-0.9-0.1c-0.1,0-0.3-0.1-0.3-0.2c-0.1-0.1-0.1-0.3,0-0.4 c0.1-0.1,0.2-0.1,0.3-0.2c0.1,0,0.2-0.1,0.3-0.1h0c0.3,0,0.6,0,0.8,0c0,0,0,0,0,0c0,0,0,0,0,0c0,0,0,0,0.1,0c0.1,0,0.2,0.1,0.3,0.1 c0.1,0,0.2,0.1,0.3,0.2c0,0.1,0.1,0.1,0.1,0.2C52.6,34.9,52.6,35,52.6,35z M53.7,33.9C53.7,33.9,53.7,33.9,53.7,33.9 C53.7,33.9,53.7,33.9,53.7,33.9L53.7,33.9C53.7,34,53.7,34,53.6,34l0,0c0,0,0,0-0.1,0.1c-0.3,0.1-0.7,0.2-1.1,0.2 c-0.2,0-0.4-0.1-0.6-0.1c0,0,0,0,0,0c-0.2-0.1-0.3-0.2-0.4-0.4c0-0.1,0-0.1,0.1-0.2c0.1-0.1,0.1-0.2,0.3-0.2 c0.1-0.1,0.3-0.1,0.4-0.1c0.4-0.1,0.7-0.1,1.1,0.1c0.1,0,0.3,0.1,0.4,0.2C53.8,33.5,53.8,33.7,53.7,33.9z M55,32.6 c0,0,0,0.1-0.1,0.1c0,0,0,0,0,0.1c0,0,0,0,0,0c0,0,0,0,0,0l0,0c0,0,0,0-0.1,0c0,0,0,0,0.1,0c0,0-0.1,0-0.1,0.1c0,0,0,0,0,0 c-0.5,0.3-1,0.3-1.5,0.2c-0.1,0-0.2-0.1-0.4-0.1c-0.2-0.1-0.4-0.3-0.3-0.6c0,0,0,0,0,0c0,0,0,0,0-0.1l0,0c0,0,0,0,0,0 c0,0,0,0,0-0.1l0,0c0,0,0,0,0,0c0,0,0,0,0.1,0l0,0c0,0,0,0,0.1-0.1c0,0,0,0,0,0l0,0c0,0,0.1,0,0.1,0c0,0,0,0,0,0c0,0,0,0,0.1,0 c0,0,0,0,0.1,0c0,0,0,0,0,0c0.1,0,0.1,0,0.2,0c0.2,0,0.4,0,0.7,0c0.2,0,0.4,0.1,0.6,0.1c0.1,0,0.2,0.1,0.2,0.1 C55,32.2,55.1,32.4,55,32.6z M54.6,31.2c0,0-1.2-0.8-0.3-1.7c0,0,0.8-0.5,1.5,0.5c0,0,0.4,0.4,0.2,1.1C56,31,55.5,31.7,54.6,31.2z M57.6,36.2c-0.1,0.1-0.2,0.2-0.3,0.2c-0.2,0.1-0.5,0.1-0.7,0.1c-0.2,0-0.5,0-0.7-0.1c-0.1,0-0.2-0.1-0.3-0.1 c-0.2-0.1-0.2-0.3,0-0.5c0.1-0.1,0.2-0.1,0.3-0.2c0.5-0.2,0.9-0.2,1.4,0c0.1,0,0.2,0.1,0.3,0.2C57.8,36,57.8,36.1,57.6,36.2z M58.9,35.1c-0.1,0.1-0.2,0.2-0.3,0.2c-0.5,0.2-1.1,0.2-1.6,0c-0.2-0.1-0.3-0.2-0.4-0.3c0-0.1,0-0.1,0-0.2c0-0.1,0.1-0.2,0.3-0.3 c0.1,0,0.2-0.1,0.2-0.1c0.1,0,0.1,0,0.2-0.1c0.2,0,0.5,0,0.7,0c0.2,0,0.4,0.1,0.6,0.1c0.1,0,0.2,0.1,0.3,0.2 C59,34.8,59,34.9,58.9,35.1z M60.3,33.9C60.2,34,60.1,34,60,34.1c-0.1,0.1-0.3,0.1-0.4,0.1c-0.4,0.1-0.7,0.1-1.1,0 c-0.2,0-0.3-0.1-0.4-0.2c-0.2-0.2-0.2-0.3,0-0.5c0.1-0.1,0.2-0.2,0.3-0.2c0.2-0.1,0.5-0.1,0.8-0.1c0.2,0,0.5,0,0.7,0.1 c0.1,0,0.2,0.1,0.3,0.2C60.4,33.6,60.4,33.7,60.3,33.9z"></path> <path style="fill:#FFFFFF;" d="M96.3,67.8c-8.6-1.2-30.8-2-32.8-2.1c-0.1,0-0.2,0.1-0.2,0.2c0,0.2,0,0.2,0.2,0.2c0.1,0,0.1,0,0.2,0 c1,0,2.1,0.1,3.1,0.1c0.1,0,0.2,0,0.3,0c0.1,0,0.2,0,0.2,0c0.5,0,1,0,1.5,0c1.1,0.1,2.1,0.1,3.2,0.1c0.7,0,1.3,0.1,2,0.1 c0.5,0,1,0.1,1.6,0.1c0.3,0,0.5,0,0.8,0c0.1,0,0.1,0,0.2,0c0.3,0.1,0.6,0.1,0.9,0.1c0.1,0,0.1,0,0.2,0c0,0,0,0,0.1,0 c0.3,0.1,0.5,0,0.8,0c0.3,0,0.5,0,0.8,0.1c0.4,0,0.9,0,1.3,0.1c0.8,0,1.6,0.1,2.3,0.2c0.4,0,0.8,0,1.3,0.1c0.9,0.1,1.9,0.1,2.8,0.2 c0.2,0,0.3,0,0.5,0c0.4,0.1,0.7,0.1,1.1,0.1c0.9,0.1,1.9,0.2,2.8,0.2c0.2,0,0.3,0,0.5,0l0,0l0,0c0,0,0,0,0,0c0.2,0,0.3,0,0.5,0 c0.1,0,0.1,0,0.2,0c0,0,0,0,0,0c0.1,0,0.3,0,0.5,0c0.3,0.1,0.5,0.1,0.8,0.1c0.7,0.1,1.4,0.1,2.1,0.2C96.3,68.1,96.4,68.1,96.3,67.8 C96.4,67.8,96.3,67.8,96.3,67.8z"></path> <polygon style="fill:#FFFFFF;" points="37.6,69.6 37.6,69.6 37.6,69.6 "></polygon> <polygon style="fill:#FFFFFF;" points="37.7,69.4 37.7,69.4 37.7,69.4 "></polygon> <polygon style="fill:#FFFFFF;" points="48.7,65.7 48.7,65.7 48.7,65.7 "></polygon> <polygon style="fill:#FFFFFF;" points="48.7,65.7 48.7,65.7 48.7,65.7 "></polygon> <polygon style="fill:#FFFFFF;" points="48.6,65.8 48.6,65.8 48.6,65.8 "></polygon> <polygon style="fill:#FFFFFF;" points="41.7,75 41.7,75 41.7,75 "></polygon> <polygon style="fill:#FFFFFF;" points="41.7,75.1 41.7,75.1 41.7,75.1 "></polygon> <polygon style="fill:#FFFFFF;" points="42.1,71.9 42.1,71.8 42.1,71.8 "></polygon> <polygon style="fill:#FFFFFF;" points="52.9,69.3 52.9,69.3 52.9,69.3 "></polygon> <polygon style="fill:#FFFFFF;" points="61.9,67.4 61.9,67.4 61.9,67.4 "></polygon> <polygon style="fill:#FFFFFF;" points="61.9,67.6 61.9,67.6 61.9,67.6 61.9,67.6 61.9,67.6 61.9,67.6 61.9,67.6 "></polygon> <polygon style="fill:#FFFFFF;" points="61.9,67.6 61.9,67.6 61.9,67.6 61.9,67.6 "></polygon> <polygon style="fill:#FFFFFF;" points="53.2,68.9 53.2,68.9 53.2,68.9 "></polygon> <path style="fill:#FFFFFF;" d="M61.6,66.8C61.6,66.8,61.6,66.9,61.6,66.8c-0.6,0.6-1.4,1.3-1.8,1.6c0,0,0,0,0,0c0,0,0,0,0,0 c0,0,0,0,0,0c-0.1,0.1-0.1,0.1-0.2,0.2c0,0,0,0,0,0l0,0c-0.2,0.2-0.4,0.3-0.7,0.5c-0.3,0.2-0.6,0.4-0.9,0.5c0,0,0,0,0,0 c0,0,0,0,0,0c0,0,0,0-0.1,0c-0.1,0-0.2,0.1-0.2,0.1c-0.1,0-0.1,0-0.1,0c-0.1,0-0.2,0-0.3,0c0,0,0,0,0,0c0,0-0.1,0-0.1,0l0,0 c-0.1,0-0.2-0.2-0.1-0.4c0-0.2,0.1-0.4,0.2-0.6c0-0.1,0.1-0.2,0.3-0.3c0.3,0,0.5-0.1,0.7-0.2c0.6-0.2,1.2-0.5,1.7-0.9 c0.2-0.2,0.4-0.4,0.6-0.6c0.2-0.2,0.3-0.5,0.3-0.7c0-0.1,0-0.1,0-0.2c0-0.1-0.1-0.2-0.1-0.3c-0.2-0.4-0.5-0.6-0.9-0.6 c-0.2,0-0.4,0-0.6,0.1c-0.2,0.1-0.4,0.1-0.5,0.2c-0.1,0.1-0.3,0.2-0.5,0.3c-0.1,0.1-0.2,0.1-0.3,0.2c-0.4,0.3-0.8,0.6-1.1,1 c-0.1,0.1-0.1,0.1-0.2,0.2c-0.1,0.1-0.2,0.2-0.2,0.3c-0.1,0.1-0.2,0.2-0.2,0.3c0,0,0,0,0,0.1c0,0,0,0,0,0.1c0,0,0,0,0,0.1 c0,0,0,0,0,0c0,0,0,0,0,0.1c0,0,0,0,0,0c0,0,0,0,0,0.1c0,0,0,0,0,0.1c-0.2,0.4-0.3,0.9-0.3,1.4c0,0.1,0,0.2,0.1,0.3 c0,0.1,0.5,0.9,1.1,1c0.3,0,0.6,0,1-0.1c0.2-0.1,0.5-0.2,0.7-0.3c0.3-0.2,0.6-0.4,0.9-0.6l0,0c0,0,0.2-0.2,0.6-0.5 c0.1,0,0.1-0.1,0.2-0.1c0.1-0.1,0.1-0.1,0.2-0.2c0.6-0.5,1.3-1.2,1.6-1.7c0,0,0,0,0,0c0,0,0,0,0,0c0,0,0,0,0-0.1c0,0,0,0,0,0 c0,0,0-0.1,0-0.1C62,66.8,61.9,66.7,61.6,66.8z M58.1,67.1c0.3-0.4,0.7-0.8,1.2-1.1c0.1-0.1,0.2-0.1,0.3-0.1c0,0,0,0,0,0 c0,0,0,0,0,0c0,0,0,0.1,0,0.1c0,0.1,0,0.1-0.1,0.2c-0.3,0.5-0.7,0.9-1.2,1.2c-0.2,0.1-0.3,0.2-0.5,0.2C57.9,67.4,58,67.3,58.1,67.1 z"></path> <path style="fill:#FFFFFF;" d="M56.5,64.9c-0.2,0-0.3,0-0.5,0.1c-0.4,0.2-0.7,0.4-1,0.7c0,0,0,0,0,0c-0.8,0.8-2.7,3-2.7,3 c0,0-0.1,0.1-0.1,0c0,0,0-0.1,0-0.1c0.2-0.6,0.4-1.2,0.7-1.7c0.1-0.2,0.2-0.4,0.3-0.7c0.1-0.5-0.3-0.7-0.3-0.7 c-0.1,0-0.2-0.1-0.4,0c-0.2,0-0.4,0.1-0.6,0.3c-0.2,0.2-0.3,0.3-0.4,0.5c-0.2,0.3-0.3,0.7-0.5,1.1c0,0.1-0.1,0.2-0.1,0.3 c0,0.1-0.1,0.2-0.1,0.4c-0.2,0.6-0.3,1.2-0.4,1.8c0,0.3,0,0.6,0,0.9c0.4,0.9,1.1,0.3,1.1,0.3c0.9-1.4,2.9-3.5,2.9-3.5l0,0 c0.3-0.4,0.6-0.7,1-1c0.2-0.2,0.5-0.4,0.8-0.6c0.1-0.1,0.3-0.1,0.4-0.1c0.1,0,0.3,0,0.4-0.1c0,0,0-0.1,0-0.2 C57.1,65.2,56.8,65,56.5,64.9z"></path> <ellipse transform="matrix(0.6138 -0.7895 0.7895 0.6138 -31.2809 64.4082)" style="fill:#FFFFFF;" cx="50.2" cy="64.2" rx="0.8" ry="0.7"></ellipse> <path style="fill:#FFFFFF;" d="M49.9,68.9c0.1-0.4,0-0.5-0.1-0.5c0,0,0,0-0.1,0c-0.2,0-0.5,0.2-0.7,0.4c0,0-0.1,0.1-0.1,0.1 c-0.2,0.2-0.4,0.3-0.6,0.5c0,0,0-0.1,0-0.1c0-0.1,0.1-0.1,0.1-0.2c0.3-0.6,0.6-1.2,1-1.7c0.2-0.4,0.4-0.7,0.6-1.1c0,0,0,0,0-0.1 c0.1-0.1,0.1-0.4,0-0.6c-0.1-0.1-0.1-0.1-0.1-0.1c-0.8-0.4-1.2,0.3-1.2,0.3L46.9,69c-0.2,0.3-0.3,0.6-0.4,1c0,0.1,0,0.2,0,0.4 c0,0.1,0,0.2,0.1,0.3c0.1,0.2,0.4,0.6,1,0.3c0.1,0,0.1-0.1,0.1-0.1c0,0,0.1-0.1,0.1-0.1C47.9,70.7,49.1,69.6,49.9,68.9z"></path> <path style="fill:#FFFFFF;" d="M51.7,74.5c0-0.1-0.1-0.2-0.1-0.3c0,0-0.1-0.1-0.1-0.1c-0.6-0.9-1.7-1.2-1.7-1.2 c-0.5-0.2-1.1-0.3-1.7-0.3c-0.9-0.1-1.9,0-2.8,0.1c-0.5,0.1-1.1,0.2-1.6,0.3c-0.1,0-0.1,0-0.2,0c-0.1,0-0.2,0.1-0.3,0.1 c-0.1,0-0.2,0.1-0.3,0.1c0,0,0,0,0,0l0,0c0,0-0.1,0-0.1,0c-0.1,0-0.1,0-0.1-0.1c0,0,0-0.1,0.1-0.1l0,0c0,0,0,0,0-0.1 c0-0.1,0.1-0.1,0.1-0.2c0,0,0-0.1,0.1-0.1l0,0c0,0,0,0,0,0c0.9-1.7,4.4-8.4,5.2-10.5c0.1-0.3,0.2-0.7,0.3-1c0.1-0.7-0.1-1-0.2-1.1 c-0.1,0-0.2-0.1-0.3-0.1c-0.2,0-0.3,0.1-0.4,0.2c-0.2,0.1-0.3,0.3-0.4,0.5c0,0,0,0,0,0.1l0,0c0,0,0,0-0.1,0.1 c-0.2,0.5-0.4,1-0.6,1.5c-0.9,2-2.5,5.6-3.8,8.3c-0.2,0.3-0.3,0.6-0.5,1c0,0,0,0,0,0c-0.5,0.9-0.9,1.7-1.1,2.1c0,0-0.1,0-0.1,0l0,0 c0,0-0.1,0-0.1,0.1c0,0,0,0,0,0c0,0-0.1,0-0.1,0.1c0,0,0,0-0.1,0c0,0,0,0-0.1,0c0,0,0,0,0,0v0c-0.4,0.1-0.8,0.4-1.2,0.7 c-0.2,0.1-0.3,0.2-0.4,0.4c-0.1,0.1-0.2,0.3-0.3,0.5c0,0,0,0.1,0,0.1c0,0.2,0.1,0.8,1.2,0.7c0.1,0,0.2-0.1,0.4-0.1 c0.4-0.1,0.7-0.3,1-0.6c0,0,0,0,0,0l0,0c0,0,0,0,0.1-0.1l0,0c0,0,0,0,0.1-0.1l0,0c0,0,0,0,0.1-0.1l0,0c0,0,0,0,0.1-0.1l0,0 c0,0,0,0,0.1-0.1l0,0c0,0,0,0,0.1-0.1l0,0c0,0,0,0,0.1-0.1l0,0c0,0,0,0,0.1-0.1c0,0,0,0,0.1-0.1c0,0,0,0,0.1-0.1l0,0c0,0,0,0,0-0.1 c0,0,0,0,0,0v0c0,0,0,0,0,0c0,0,0.1-0.1,0.1-0.1c0.1-0.1,0.2-0.2,0.3-0.3c0.2-0.1,0.4-0.1,0.6-0.2l0,0c0,0,0.5-0.1,1.3-0.3 c0,0,0.1,0,0.1,0c1.4-0.2,3.4-0.4,5.4,0c0,0,0.2,0,0.5,0.1c0,0,0.1,0,0.1,0c0.3,0.1,0.6,0.3,1.1,0.5C51.6,74.6,51.6,74.6,51.7,74.5 L51.7,74.5C51.7,74.5,51.7,74.5,51.7,74.5C51.7,74.5,51.7,74.5,51.7,74.5z"></path> <path style="fill:#FFFFFF;" d="M37.8,71.1C37.8,71.1,37.8,71.1,37.8,71.1c0.1,0,0.1,0,0.2,0.1C38,71.1,37.9,71.1,37.8,71.1z"></path> <path style="fill:#FFFFFF;" d="M38.3,71.2C38.3,71.2,38.3,71.2,38.3,71.2C38.3,71.2,38.3,71.2,38.3,71.2z"></path> <path style="fill:#FFFFFF;" d="M37.4,70.9c-0.1-0.1-0.2-0.1-0.3-0.2C37.1,70.8,37.2,70.8,37.4,70.9C37.4,70.9,37.4,70.9,37.4,70.9z "></path> <g> <polygon style="fill:#FFFFFF;" points="38.3,67.2 38.3,67.2 38.3,67.2 "></polygon> <path style="fill:#FFFFFF;" d="M41.8,68.1c0-0.3,0-0.5-0.1-0.8c-0.1-0.5-0.5-1.3-1.3-1.9c-1.2-0.8-2.5-0.4-2.9-0.2c0,0,0,0-0.1,0 c0,0,0,0,0,0c0,0,0,0,0,0l0,0c0,0,0,0,0,0.1c0,0,0.5,2.1,2.2,2.8c0,0,0,0-0.1,0c-0.2,0.1-0.5,0.2-0.6,0.3c0,0,0,0,0,0c0,0,0,0,0,0 l0,0c-0.6,0.4-1.5,1.2-1.8,2.3c0.1,0.1,0.2,0.1,0.3,0.2c0,0,0,0,0,0c0.1,0.1,0.2,0.1,0.4,0.2c0,0,0,0,0,0c0.1,0,0.2,0,0.2,0.1 c0.1,0,0.2,0,0.3,0.1c0,0,0,0,0.1,0c0.4,0,1,0,1.6-0.2c0.4-0.2,0.7-0.4,1-0.7c0,0,0,0,0,0c0.1-0.1,0.1-0.2,0.2-0.3 c0.2-0.3,0.4-0.7,0.6-1.2c0-0.1,0.1-0.3,0.1-0.4l0,0c0,0,0,0,0-0.1l0,0c0,0,0,0,0,0C41.8,68.2,41.8,68.1,41.8,68.1z"></path> </g> <polygon style="fill:#FFFFFF;" points="14.5,55.2 14.5,55.2 14.5,55.2 "></polygon> <polygon style="fill:#FFFFFF;" points="12.6,42.1 12.6,42.1 12.6,42.1 "></polygon> <path style="fill:#FFFFFF;" d="M17.7,56.3c0-0.4,0-0.7,0-1.1c0-0.1,0-0.1,0-0.2v0h0c0,0-0.1-0.1-0.2-0.1c-0.1,0-0.2,0-0.3,0 c-0.3,0-0.6,0-0.8,0c0,0-0.1,0-0.1,0h-1.7c0,0-0.1,0-0.1,0.1v2c0,0,0,0,0,0c0,0.2,0,0.4,0,0.7c-0.6,2-1.7,3.2-2.4,3.8c0,0,0,0,0,0 c0,0-0.1,0.1-0.1,0.1c-0.3,0.2-0.5,0.3-0.6,0.4c0,0,0,0-0.1,0C8.5,63,7,59.2,7,59.2l0,0c0-0.1,0-0.1,0-0.2c0-0.7,0-1.3,0-2 c0-0.1,0-0.3,0-0.4c0-0.9,0-1.8,0-2.8c0-0.1,0-0.3,0-0.4c0-0.2,0-0.4,0-0.6c0-0.7,0-1.5,0-2.2c0-0.2,0-0.5,0-0.7l0,0v-6v-1.6v-0.7 v-1.3l0.2-1c0.3-0.8,1.1-2,3.1-1.6c0,0,1.4,0.3,1.9,2.8c0,0.1,0,0.3,0.1,0.4c0,0,0.1,1.9,1.8,1.9c0,0,2,0.3,3-0.3 c0.9-0.4-0.3-2.7-0.9-3.6l0,0c0,0-1.2-3.4-7.5-3.2l0,0c-0.4,0-0.8-0.1-1.3,0c-0.5,0-1,0.1-1.5,0.2c0,0-0.1,0-0.1,0c0,0,0,0-0.1,0 c0,0-0.1,0-0.1,0c0,0,0,0,0,0c0,0,0,0,0,0c-0.4,0.1-0.8,0.3-1.2,0.5c0,0,0,0-0.1,0l0,0c0,0,0,0-0.1,0.1c0,0,0,0,0,0c0,0,0,0-0.1,0 l0,0c0,0,0,0-0.1,0.1c0,0,0,0,0,0c-0.3,0.2-0.5,0.4-0.7,0.6c0,0,0,0-0.1,0.1l0,0c0,0,0,0-0.1,0.1c0,0,0,0,0,0c0,0,0,0,0,0 c-0.1,0.1-0.2,0.2-0.3,0.3c0,0,0,0-0.1,0.1l0,0c0,0,0,0,0,0C3,37.8,2.9,37.9,2.9,38c0,0,0,0,0,0c0,0.1-0.1,0.1-0.1,0.2 c-0.2,0.3-0.3,0.6-0.4,0.9c-0.4,0.8-0.5,1.6-0.6,2.5c0,0.6,0,1.2,0,1.8c0,0,0,0,0,0c0,0.9,0,1.9,0,2.8l0,0v12.5 c0,0,0.1,3.2,3.4,4.9c0,0,0,0,0.1,0c0,0,0.1,0,0.1,0.1l0,0c0.8,0.4,1.6,0.7,2.5,0.7c0.5,0,1.1,0,1.6-0.1c0.3-0.1,0.7-0.1,1-0.2 c0,0,0,0,0,0c0.1,0,0.2,0,0.3,0c0.9-0.2,1.8-0.5,2.7-0.9c0.3-0.2,0.7-0.3,1-0.5c0,0,0.1,0,0.1-0.1l0,0c0,0,0,0,0.1-0.1l0,0 c0,0,0,0,0.1,0c0,0,0,0-0.1,0c0,0,0.1,0,0.1-0.1c0,0,0,0,0,0c0,0,0,0,0,0l0,0c0,0,0,0,0.1-0.1c0,0,0,0,0,0l0,0c0,0,0,0,0,0 c0,0,0,0-0.1,0c0,0,0.1,0,0.1,0c0,0,0,0,0,0c0,0,0,0,0,0h0c0,0,0,0,0,0l0,0c0,0,0,0,0.1-0.1c0,0,0,0,0,0c0.1,0,0.2-0.1,0.2-0.2 c0.3-0.2,0.5-0.4,0.7-0.6c0,0,0,0,0-0.1l0,0c0,0,0,0,0.1-0.1l0,0v0c0,0,0,0,0,0c0.2-0.2,0.4-0.4,0.5-0.6h0c0.2-0.1,0.3-0.3,0.3-0.5 c0.1-0.1,0.2-0.3,0.2-0.4c0,0,0.1-0.1,0.1-0.1c0.1-0.4,0.3-0.7,0.4-1.1c0.1-0.4,0.2-0.8,0.2-1.2c0,0,0,0,0,0.1c0,0,0-0.1,0-0.1 C17.7,57.1,17.7,56.7,17.7,56.3z M14.5,55.2C14.5,55.2,14.5,55.2,14.5,55.2C14.5,55.2,14.5,55.2,14.5,55.2 C14.5,55.2,14.5,55.2,14.5,55.2z"></path> <path style="fill:#FFFFFF;" d="M75.9,40.7c-0.1-0.2-1-2.5-6-2.8c-1.5,0-3.1,0-4.5,0.1c-0.4,0-0.8,0.1-1.2,0c-0.1,0-0.2,0-0.3,0 c-0.1,0-0.2,0-0.3,0c-0.4,0-0.8,0-1.2,0c-0.4,0-0.9,0-1.3,0.1c-0.1,0-0.2,0-0.2,0l0,0c-0.1,0-0.2,0-0.2,0c-0.2,0-0.5,0-0.7,0 c-0.1,0-0.1,0-0.2,0c0,0-0.1,0-0.1,0c0,0-0.1,0.1-0.1,0.1c-0.3,0.3-0.7,0.6-1,1c0,0-0.1,0.1-0.1,0.2c2.2-0.3,2,1.8,2,1.8v18.7 c0,0-0.4,0.7-1.5,0.5c-0.1,0-0.2,0-0.4-0.1c0,0,0,0,0,0v0c-0.3-0.1-0.5-0.2-0.5-0.2l-0.4-0.9c-0.1-0.4-0.3-0.7-0.4-1.1 c0,0,0-0.1,0-0.1l-0.6-1.7c0-0.1-0.1-0.1-0.1-0.2c0,0,0-0.1-0.1-0.1l-1.4-3.6c0,0,0,0,0,0c0,0,0,0,0,0l0-0.1c0,0,0,0,0,0 c0,0,0,0,0,0l0-0.1c0,0,0-0.1,0-0.1c0,0,0,0,0,0L55,52c0,0,0,0,0,0c0,0,0,0,0,0l-0.1-0.2c0,0,0-0.1,0-0.1c0,0,0,0,0,0l-0.1-0.1 c0,0,0,0,0,0c0,0,0,0,0,0l-0.1-0.3c0,0,0,0,0,0c0,0,0,0,0,0L54.6,51c-0.1-0.2-0.1-0.4-0.2-0.6c-0.4-1-0.7-1.9-1.1-2.9 c-0.2-0.6-0.5-1.3-0.7-1.9c0,0,0-0.1-0.1-0.1c0,0,0,0,0-0.1c0,0,0-0.1-0.1-0.1c0,0,0,0,0-0.1h0c-0.1-0.2-0.2-0.4-0.2-0.7 c-0.1-0.2-0.2-0.4-0.2-0.7l0,0c0,0,0-0.1-0.1-0.1c0,0,0,0,0-0.1c0,0,0,0-0.1-0.1c0,0,0,0,0-0.1c0,0,0-0.1-0.1-0.1 c-0.1-0.3-0.2-0.5-0.3-0.8c0,0,0,0,0-0.1c0,0,0,0,0-0.1c0,0,0-0.1,0-0.1c-0.3-0.8-0.6-1.5-0.9-2.3l0,0l0,0 c-0.1-0.2-0.1-0.4-0.2-0.6c0-0.1,0-0.1-0.1-0.2L50,38.6c0,0,0-0.1,0-0.1c0,0,0,0,0,0l0,0l0,0c0,0-0.1-0.1-0.1-0.1c0,0-0.1,0-0.1,0 c-0.5,0-1,0-1.4,0c-0.2,0-0.3,0.1-0.3,0.3c0,0.1,0,0.2,0,0.3l-0.1,0.2c0,0,0,0,0,0c0,0,0,0,0,0L40,60.1c-1.2,0.7-2.5,0-2.5,0 l-2.9-6.5v0c-0.3-0.7-0.7-1.5-1-2.2c-0.1-0.1-0.1-0.2,0-0.3l0,0l0,0c0,0,0,0,0,0c0.4-0.5,5.6-6.5,0.2-11.3c0,0,0,0,0,0 c-1.8-1.4-3.7-1.9-4-2c-0.1,0-0.1,0-0.2,0c-0.9,0-1.9-0.1-3-0.2c0,0-0.1,0-0.1,0c0,0-0.1,0-0.1,0c0,0-0.1,0-0.1,0 c-0.1,0-0.3,0-0.4,0c-0.1,0-0.2,0-0.3,0c0,0-0.1,0-0.1,0c-0.1,0-0.2,0-0.2,0c0,0,0,0,0,0c0,0,0,0,0,0c0,0,0,0,0,0 c-0.1,0-0.2,0-0.4,0c0,0,0,0,0,0c0,0-0.1,0-0.1,0c-0.1,0-0.1,0-0.2,0c0,0,0,0-0.1,0c0,0,0,0,0,0c0,0,0,0,0,0h0c-0.1,0-0.2,0-0.3,0 c0,0-0.1,0-0.1,0c0,0-0.1,0-0.1,0c0,0-0.1,0-0.1,0c0,0,0,0,0,0h0c-0.3,0-0.6-0.1-0.9-0.1c-0.2,0-0.4,0-0.6-0.1c0,0-0.1,0-0.1,0 c-0.1,0-0.2,0-0.4,0c-0.1,0-0.2,0-0.3,0c-0.3,0-0.6-0.1-1-0.1c-0.3,0-0.6,0-0.9-0.1c-0.5,0-0.9-0.1-1.4-0.1c0,0-0.1,0-0.1,0 c-0.1,0-0.1,0-0.2,0.1c0,0.2,0,0.5,0.1,0.7C18,37.8,18,37.9,18,38c0.1,0.3,0.2,0.5,0.3,0.8c0,0,0,0,0,0.1c0,0,0,0,0,0.1 c0,0.1,0.1,0.1,0.1,0.2c0,0.1,0.1,0.2,0.3,0.2c0.3,0,0.6,0.1,0.9,0.1c0,0.1,0.1,0.2,0.1,0.2l0,0l0,0c0,0.1,0,0.1,0,0.2 c0,0.9,0,1.9,0,2.8c0,0.3,0,0.6,0,0.9c0,0.5,0,1,0,1.6c0,0.3,0,0.6,0,0.9c0,0.4,0,0.9,0,1.3c0,1,0,2,0,3.1c0,0.4,0,0.7,0,1.1 c0,0,0,0,0,0l0,0c0,0.3,0,0.6,0,0.9h0c0,0.3,0,0.6,0,0.9c0,0,0,0,0,0c0,0.5,0,0.9,0,1.4c0,0,0,0,0,0l0,0.1c0,0,0,0,0,0c0,0,0,0,0,0 c0,0.6,0,1.2,0,1.8h0c0,0.4,0,0.8,0,1.2c0,0.1,0,0.1,0,0.2l0,3.5c0,0-1.4,0.1-1.9,1.1l0,0.1c0,0.1,0,0.1,0,0.2c0,0.1,0,0.2,0.2,0.2 c0.2,0,0.5,0,0.7-0.1c0.9-0.1,1.9-0.2,2.8-0.3c0.9-0.1,1.8-0.2,2.7-0.2c0.2,0,0.4,0,0.6,0c0.2-0.1,0.4,0,0.6,0c0.1,0,0.2,0,0.2,0 c0,0,0,0,0,0c0.2,0,0.4,0,0.6,0c0,0,0.1,0,0.2,0c0.2-0.1,0.4,0,0.6,0l0,0c0.1-0.2,0.1-0.3,0.1-0.5c0-0.1-0.1-0.1-0.1-0.1 c0,0-0.1,0-0.1,0c0,0,0,0,0,0c-0.1,0-0.2,0-0.2,0c-0.5-0.1-0.9-0.3-1.2-0.7c0-0.1,0-0.2-0.1-0.3c0-1,0-1.9,0-2.9c0-1.2,0-2.4,0-3.6 c0-0.9,0-1.7,0-2.6h2.6l4.5,10.3c0,0,6.3-0.6,12.4-0.5c0,0,0-0.1,0-0.1c0-0.3,0-0.6,0-0.9c0-0.1-0.1-0.2-0.2-0.2 c-0.1,0-0.3,0-0.4,0c-0.2,0-0.2-0.1-0.2-0.3c0,0,0-0.1,0-0.1c0-0.2,0.1-0.3,0.1-0.5c0-0.1,0-0.2,0.1-0.3c0.1-0.3,0.1-0.5,0.2-0.8 c0.2-0.6,0.3-1.2,0.5-1.9c0.1-0.2,0.1-0.2,0.3-0.2c0.5,0,1,0,1.5,0c1.3,0,2.7,0,4,0c0.1,0,0.2,0,0.2,0c0.1,0,0.2,0.1,0.3,0.2 c0,0,0,0.1,0,0.1c0.2,0.7,0.4,1.4,0.6,2.2c0.1,0.3,0.2,0.6,0.2,0.9c0,0,0,0,0,0.1c0,0,0,0.1,0.1,0.1c0,0,0,0,0,0.1 c0,0.1,0,0.2,0,0.3c0,0,0,0-0.1,0.1c-0.2,0-0.4,0-0.7,0c-0.1,0-0.2,0.1-0.2,0.2c0,0.3,0,0.6,0,1c0,0.1,0.1,0.2,0.2,0.2 c0,0,5.1-0.3,16.6,0.6c0,0,0,0,0.1,0c0,0,0,0,0,0v0c0-0.4,0-0.8,0-1.2c-2.1-0.2-1.9-0.6-1.9-0.6l0-7.8c0,0,0-0.1,0-0.1 c0-0.2,0.1-0.2,0.2-0.2c0.1,0,0.1,0,0.2,0c0.2,0,0.4,0,0.6,0c0.8,0,1.6,0,2.4,0c0.8,0,1.5-0.1,2.3-0.3c0.7-0.2,1.4-0.5,2.1-0.9 C76.9,47.9,76.9,43.4,75.9,40.7z M31.4,42.4L31.4,42.4l0,5c0,0-0.3,2-2.7,2.4c-0.1,0-0.2,0-0.2,0l-3.1-0.1v-1.2c0,0,0,0,0,0 c0-0.5,0-1,0-1.6c0,0,0,0,0,0c0,0,0,0,0,0v-0.5c0,0,0,0,0,0c0,0,0-0.1,0-0.1c0,0,0,0,0,0v-3.9c0,0,0,0,0,0c0-1.1,0-2.2,0-3.3 c0,0,0,0,0,0l3,0.1c2.3,0.6,2.9,2,3,2.7c0,0,0,0,0,0.1v0.3C31.4,42.4,31.4,42.4,31.4,42.4z M51.2,54.1c-0.3-0.1-0.5,0-0.8,0 c-1.8,0-3.7,0-5.5,0c0,0,0,0-0.1,0l0.2-0.8c0-0.1,0.1-0.2,0.1-0.3l0.2-0.6c0-0.1,0.1-0.2,0.1-0.3l0.1-0.4c0,0,0,0,0,0l0.4-1.3 c0,0,0,0,0,0l0.7-2.3c0,0,0,0,0,0l0.5-1.6c0-0.1,0.1-0.2,0.1-0.4l0.4-1.3c0,0,0,0,0,0c0.1-0.2,0.1-0.4,0.2-0.7 c0.1-0.2,0.1-0.4,0.2-0.5c0,0,0-0.1,0-0.1l3.3,10.5C51.3,54.1,51.2,54.1,51.2,54.1z M71,48c0,0,0,1.2-2.2,2h-2.5l0-2.6 c0-0.2,0-0.4,0-0.5c0,0,0,0,0-0.1l0-2.3c0-0.5,0-1,0-1.5c0,0,0,0,0,0v-2.4h2.7c0,0,2.1,0.4,2.1,2.4V48z"></path> </g> </svg> 