<?xml version="1.0" encoding="UTF-8"?> <!-- Generator: Adobe Illustrator 24.3.0, SVG Export Plug-In . SVG Version: 6.00 Build 0) --> <svg xmlns="http://www.w3.org/2000/svg" xmlns:xlink="http://www.w3.org/1999/xlink" version="1.1" id="Layer_1" x="0px" y="0px" viewBox="0 0 500 500" style="enable-background:new 0 0 500 500;" xml:space="preserve"> <g> <g> <path style="fill:#FFFFFF;" d="M55,269.9v157.2c0,14.5,11.8,26.2,26.2,26.2h131V269.9H55z"></path> </g> </g> <g> <g> <path style="fill:#FFFFFF;" d="M421.8,165.2h-82.9c5.9-4.1,11.1-8.1,14.6-11.7c21.1-21.2,21.1-55.8,0-77.1 c-20.5-20.7-56.3-20.6-76.8,0c-11.4,11.4-41.5,57.8-37.3,88.8h-1.9c4.1-31-26-77.4-37.3-88.8c-20.5-20.6-56.3-20.6-76.8,0 c-21.1,21.2-21.1,55.8,0,77.1c3.6,3.6,8.7,7.6,14.6,11.7H55c-14.4,0-26.2,11.8-26.2,26.2v39.3c0,7.2,5.9,13.1,13.1,13.1h170.3 v-52.4h52.4v52.4h170.3c7.2,0,13.1-5.9,13.1-13.1v-39.3C448,176.9,436.2,165.2,421.8,165.2z M210.7,164.3c0,0-1.1,0.9-4.8,0.9 c-18.1,0-52.7-18.8-63.9-30.2c-11-11.1-11-29.1,0-40.1c5.3-5.3,12.4-8.3,19.9-8.3c7.5,0,14.5,2.9,19.8,8.3 C199.2,112.6,216.8,158,210.7,164.3z M271,165.2c-3.7,0-4.8-0.8-4.8-0.9c-6.1-6.3,11.4-51.7,29.1-69.4c10.6-10.7,29-10.7,39.7,0 c11,11.1,11,29.1,0,40.1C323.6,146.4,289.1,165.2,271,165.2z"></path> </g> </g> <g> <g> <path style="fill:#FFFFFF;" d="M264.6,269.9v183.4h131c14.5,0,26.2-11.7,26.2-26.2V269.9H264.6z"></path> </g> </g> </svg> 