<?xml version="1.0" encoding="UTF-8"?> <!-- Generator: Adobe Illustrator 24.3.0, SVG Export Plug-In . SVG Version: 6.00 Build 0) --> <svg xmlns="http://www.w3.org/2000/svg" xmlns:xlink="http://www.w3.org/1999/xlink" version="1.1" id="Layer_1" x="0px" y="0px" viewBox="0 0 500 500" style="enable-background:new 0 0 500 500;" xml:space="preserve"> <path style="fill:#FFFFFF;" d="M332.4,303.6H292c-1.8-9-6.2-17.4-12.5-24.1v-26.9c14.7-13.4,23.2-32.3,23.3-52.2v-2.8 c9.4-0.8,16.4-9,15.6-18.4c-0.4-5.2-3.2-10-7.6-12.8c9.5-27.1,8.9-56.7-1.8-83.4l-3.2-8c2.3-4.5,3.5-9.5,3.5-14.6v-8.5 c0-2.6-2.2-4.7-4.8-4.7c-0.5,0-1.1,0.1-1.6,0.3c-23,9.5-93.3,0.9-101.3,0c-2.4-0.3-4.8-0.2-7.1,0.3c-9.5,2.2-16.3,10.7-16.2,20.5 c0,6.4-5.2,11.6-11.6,11.6c-7.5,0-14.2,4.6-17,11.5l-0.6,1.6c-8.7,21.8-8.7,46.1,0,67.9l2.6,6.5c-7.3,6-8.3,16.8-2.3,24.1 c2.9,3.5,7.2,5.8,11.8,6.1v2.8c0.1,19.9,8.5,38.9,23.3,52.2v27.1c-6.3,6.7-10.7,15-12.5,24.1h-40.4c-29.3-0.1-53.1,23.6-53.1,52.9 c0,0,0,0,0,0v81.7c0,2.6,2.1,4.7,4.7,4.7h297.3c2.6,0,4.7-2.1,4.7-4.7v-81.7C385.3,327.3,361.6,303.7,332.4,303.6z M274.5,339.4 L256,326.8c0.6-1.5,0.9-3.1,0.9-4.7v-5.3c3.7-1.2,7.8-0.7,11.2,1.2c2.3,1.2,5.2,0.2,6.4-2.1c1.1-2.3,0.3-5-1.9-6.3 c-4.8-2.6-10.3-3.5-15.6-2.5v-1.3c0-1.6-0.3-3.2-0.9-4.7l18.6-12.8C286.8,303,286.8,324.5,274.5,339.4z M244.2,293h-24.3 c-1.8,0-3.5,0.4-5.1,1.1c-0.1-0.1-0.2-0.2-0.3-0.2l-20.6-14.2v-19.7c23.2,14.8,52.8,14.8,76,0v19.7l-20.6,14.2l-0.3,0.2 c-1.6-0.7-3.3-1.1-5.1-1.1L244.2,293z M247.5,305.8v7.7c0,0.3,0,0.5,0,0.8v7.6c0,1.8-1.5,3.3-3.3,3.3h-24.3c-1.8,0-3.3-1.5-3.3-3.3 v-16.2c0-1.8,1.5-3.3,3.3-3.3l0,0h24.2c1.8,0,3.3,1.5,3.3,3.3l0,0L247.5,305.8z M157.8,96.3l0.7-1.6c1.3-3.4,4.6-5.6,8.2-5.6 c11.6,0,21.1-9.4,21.1-21.1c-0.2-6.2,4.7-11.4,11-11.5c0.6,0,1.2,0,1.8,0.1c12.3,1.6,71.2,8.4,99.5,1.5v1.9 c0,12.7-10.2,22.9-22.9,23h-31c-2.6,0-4.7,2.1-4.7,4.7c0,2.6,2.1,4.7,4.7,4.7h31c8.2,0,16.2-3.2,22.2-8.8l1,2.6 c9.5,23.6,10.5,49.7,2.8,74v-14.5c0-21.2-11.7-40.6-30.4-50.5c-2.3-1.2-5.2-0.3-6.4,2c-0.1,0.2-0.2,0.4-0.3,0.6v0.5 c-3.4,12.9-19,22.3-36.7,22.3c-16.3,0-31-8-35.8-19.6l0,0c-1-2.4-3.7-3.7-6.1-2.7c-0.3,0.1-0.7,0.3-1,0.5 c-15.5,10.6-24.7,28.2-24.7,47v17.5h-0.9l-2.5-6.2c-7.8-19.5-7.8-41.3,0-60.9L157.8,96.3z M170.6,200.2v-7.5c0-2.6-2.1-4.7-4.7-4.7 h-3.3c-4.2,0-7.6-3.4-7.6-7.6s3.4-7.6,7.6-7.6h3.3c2.6,0,4.7-2.1,4.7-4.7v-22.2c0-13.8,5.9-26.9,16.3-35.9 c7.8,12.3,23.7,20.3,41.9,20.3c19.6,0,37-9.5,43.8-23.7c13.1,8.8,20.9,23.6,20.9,39.4v22.2c0,2.6,2.1,4.7,4.7,4.7h3.3 c4.2,0,7.6,3.4,7.6,7.6s-3.4,7.6-7.6,7.6h-3.3c-2.6,0-4.7,2.1-4.7,4.7v7.5c-0.9,33.9-29.2,60.6-63.1,59.6 c-32.6-0.9-58.7-27.1-59.6-59.6H170.6z M189.6,288.1l18.5,12.7c-0.6,1.5-1,3.1-1,4.7v1.5c-5.4-1.2-11.1-0.3-15.9,2.6 c-2.5,0.9-3.8,3.6-2.9,6.1s3.6,3.8,6.1,2.9c0.6-0.2,1.1-0.5,1.5-0.9c3.3-1.8,7.3-2.2,10.9-0.9v4.7c0,1.6,0.4,3.2,1,4.7l-18.3,13.2 c-12.2-14.9-12.2-36.3,0-51.2L189.6,288.1z M138,433.6v-31.2c0-2.6-2.1-4.7-4.7-4.7s-4.7,2.1-4.7,4.7v31.2H88.1v-77 c0-24,19.5-43.5,43.5-43.5h18.2l42.7,120.5L138,433.6z M202.7,433.6L160,313.1h11.2c-0.3,13.4,4.9,26.3,14.3,35.8 c1.6,1.6,4.1,1.8,6,0.6l23.1-15.7c0.1,0,0.2,0,0.3,0c1.6,0.7,3.3,1.1,5.1,1h24.2c1.7,0,3.5-0.3,5.1-1h0.3l23.1,15.7 c1.9,1.3,4.4,1,6-0.6c9.5-9.5,14.7-22.4,14.5-35.7h11.1l-42.7,120.5L202.7,433.6z M375.9,433.6h-40.4v-31.2c0-2.6-2.1-4.7-4.7-4.7 s-4.7,2.1-4.7,4.7v31.2h-54.7L314,313.1h18.1c24,0.1,43.5,19.5,43.5,43.5L375.9,433.6z"></path> <path style="fill:#FFFFFF;" d="M220.4,92.5h8.6c2.6,0,4.7-2.1,4.7-4.7c0-2.6-2.1-4.7-4.7-4.7h-8.6c-2.6,0-4.7,2.1-4.7,4.7 C215.6,90.4,217.8,92.5,220.4,92.5z"></path> <path style="fill:#FFFFFF;" d="M231.8,359.9c4.9,0,8.8-4,8.8-8.8c0-2.3-0.9-4.5-2.5-6.1c-3.4-3.5-9-3.5-12.4-0.1 c-3.5,3.4-3.5,9-0.1,12.4C227.2,359,229.5,359.9,231.8,359.9z"></path> <path style="fill:#FFFFFF;" d="M231.8,388.1c4.9,0,8.8-4,8.8-8.8c0-2.3-0.9-4.5-2.5-6.1c-3.4-3.5-9-3.5-12.4-0.1 c-3.5,3.4-3.5,9-0.1,12.4C227.2,387.2,229.5,388.1,231.8,388.1z"></path> <path style="fill:#FFFFFF;" d="M231.8,416.2c3.6,0,6.8-2.1,8.1-5.4c1.9-4.4-0.2-9.6-4.7-11.4c-2.2-0.9-4.6-0.9-6.8,0 c-4.5,1.9-6.5,7.1-4.6,11.5C225.3,414.1,228.4,416.2,231.8,416.2z"></path> </svg> 