<?xml version="1.0" encoding="UTF-8"?> <!-- Generator: Adobe Illustrator 24.3.0, SVG Export Plug-In . SVG Version: 6.00 Build 0) --> <svg xmlns="http://www.w3.org/2000/svg" xmlns:xlink="http://www.w3.org/1999/xlink" version="1.1" id="Layer_1" x="0px" y="0px" viewBox="0 0 500 500" style="enable-background:new 0 0 500 500;" xml:space="preserve"> <g> <path style="fill:#FFFFFF;" d="M280,107.5c2.8,0,5.6,0,9,0c7.6,0,12.5,6.3,10.4,13.9c-2.1,9-5.6,18.8-8.3,27.8 c-2.1,6.9-4.2,13.2-6.3,20.1c-0.7,1.4-0.7,2.1-2.8,2.1c-4.2,0-7.6,0-11.8,0c-2.1,0-2.1-0.7-1.4-2.1c1.4-4.9,2.8-9.7,4.9-14.6 c0.7-2.1,0-2.8-2.1-2.8c-3.5,0-6.9,0-10.4,0c-2.1,0-2.8,0.7-3.5,2.8c-1.4,4.9-3.5,9.7-4.9,15.3c-0.7,1.4-1.4,1.4-3.5,1.4 c-3.5,0-7.6,0-11.1,0c-1.4,0-2.1-0.7-1.4-2.1c4.9-15.3,9-31.3,14.6-46.6c2.8-9,11.8-15.3,21.5-15.3 C275.2,107.5,278,107.5,280,107.5L280,107.5z M270.3,139.5c8.3,0,8.3,0,10.4-7.6c0-0.7,0.7-1.4,0.7-1.4c2.1-6.9,2.1-6.9-4.9-6.9 c-2.8,0-6.3-1.4-8.3,0.7c-2.1,1.4-2.1,5.6-2.8,8.3c-0.7,2.8-2.8,5.6-1.4,6.9C264.1,140.2,268.2,139.5,270.3,139.5z"></path> <path style="fill:#FFFFFF;" d="M153.6,155.4c-2.8,0-6.9-1.4-9,0.7c-2.1,2.1-2.1,5.6-3.5,9c-2.1,6.9-2.1,6.9-9,6.9 c-2.1,0-4.2,0-6.3,0c-2.1-0.7-2.1-0.7-1.4-3.5c2.8-8.3,5.6-17.4,8.3-26.4c3.5-11.1,6.9-21.5,9.7-32.7c0.7-2.1,1.4-2.8,3.5-2.8 c9.7,0,19.5,0,29.2,0c9,0,13.9,6.3,11.8,15.3c-1.4,5.6-3.5,11.8-5.6,17.4c-2.8,7.6-11.8,16-21.5,15.3 C157.8,155.4,156.4,155.4,153.6,155.4z M157.1,139.5c8.3,0,8.3,0,10.4-7.6c0-0.7,0.7-1.4,0.7-2.1c2.1-6.9,2.1-6.9-5.6-6.9 c-2.8,0-6.3-0.7-8.3,0.7c-2.1,1.4-2.1,4.9-2.8,7.6c-0.7,2.1-2.8,5.6-1.4,6.9C151.5,140.8,155,139.5,157.1,139.5z"></path> <path style="fill:#FFFFFF;" d="M318.3,171.4c-2.1,0-4.2,0-6.3,0c-2.1,0-2.1-0.7-1.4-2.1c1.4-3.5,2.1-7.6,3.5-11.1 c0.7-2.1,0-2.8-1.4-2.8c-7.6-1.4-11.1-6.9-9-14.6c2.8-10.4,6.3-20.8,9.7-32c0.7-1.4,1.4-1.4,2.8-1.4c3.5,0,7.6,0,11.1,0 c2.1,0,2.8,0.7,2.1,2.8c-2.8,9-5.6,18.1-8.3,26.4c-0.7,2.1,0,2.8,2.1,2.8c3.5,0,7.6,0,11.1,0c2.1,0,2.8-0.7,2.8-2.1 c2.8-9,5.6-18.1,8.3-27.1c0.7-2.1,1.4-2.8,2.8-2.1c3.5,0,7.6,0,11.1,0c2.1,0,2.1,0.7,2.1,2.1c-3.5,10.4-6.3,20.8-9.7,30.6 c-2.8,8.3-9,13.2-18.1,14.6c-1.4,0-2.1,0.7-2.8,2.1c-0.7,3.5-2.1,7.6-3.5,11.1c-0.7,2.1-1.4,3.5-4.2,2.8 C321,171.4,319.6,171.4,318.3,171.4z"></path> <path style="fill:#FFFFFF;" d="M203.6,171.4c-6.9,0-14.6,0-21.5,0c-2.1,0-2.1-0.7-2.1-2.1c6.3-20.1,12.5-39.6,18.8-59.8 c0.7-1.4,1.4-2.1,2.8-2.1c3.5,0,7.6,0,11.1,0c2.1,0,2.1,0.7,2.1,2.8c-4.2,13.9-8.3,27.8-12.5,41.7c-1.4,3.5-1.4,3.5,2.8,3.5 c3.5,0,6.3,0,9.7,0c2.1,0,2.8-0.7,3.5-2.1c1.4-4.2,2.8-7.6,3.5-11.8c0.7-1.4,1.4-2.1,2.8-2.1c3.5,0,7.6,0,11.1,0 c1.4,0,2.8,0,2.1,2.1c-2.8,9.7-6.3,18.8-9,28.5c-1.4,1.4-2.1,1.4-3.5,1.4C218.2,171.4,210.6,171.4,203.6,171.4z"></path> <path style="fill:#FFFFFF;" d="M414.8,139.5c-4.9,0-9.7,0-13.9,0c-2.1,0-2.1,1.4-2.1,2.1c-2.8,9-5.6,18.1-8.3,27.1 c-0.7,2.1-1.4,2.8-3.5,2.8c-3.5,0-7.6,0-11.1,0c-2.1,0-2.8,0-2.1-2.1c3.5-10.4,6.3-20.1,9-30.6c2.8-9,11.8-15.3,21.5-15.3 c5.6,0,10.4,0,16,0c8.3,0,13.2,6.3,11.1,13.9c-2.8,11.1-6.3,21.5-9.7,32.7c0,1.4-0.7,1.4-2.1,1.4c-4.2,0-7.6,0-11.8,0 c-2.1,0-2.8-0.7-2.1-2.8c2.8-8.3,5.6-17.4,7.6-26.4C414.1,142.2,414.8,140.8,414.8,139.5z"></path> <path style="fill:#FFFFFF;" d="M389.1,107.5c-2.1,6.3-3.5,11.8-4.9,17.4c0,1.4-0.7,1.4-2.1,1.4c-4.9,0-9.7,0-14.6,0 c-2.1,0-2.1-0.7-1.4-2.1c1.4-4.9,2.8-9.7,4.2-14.6c0-0.7,0.7-2.1,2.1-2.1C377.3,107.5,382.9,107.5,389.1,107.5z"></path> <path style="fill:#FFFFFF;" d="M366.2,183.2c10.4,0,20.1-0.7,30.6,0c16.7,0.7,30.6,11.8,34,27.8c2.1,7.6,1.4,15.3-0.7,22.9 c-11.1,36.1-20.8,72.3-33.4,107.7c-10.4,31.3-34,49.3-66.7,54.9c-1.4,0-2.8,0-4.2,0c-18.1,0-36.8,0-54.9,0 c-25.7-0.7-41.7-20.8-36.8-45.9c4.2-20.8,11.8-41,18.1-61.1c4.9-17.4,10.4-34.7,16-52.1c9.7-31.3,40.3-54.2,73-54.9 C349.5,183.2,357.9,183.2,366.2,183.2L366.2,183.2z M316.2,344.4c7.6,0,15.3,0,22.9,0c2.1,0,3.5-0.7,4.2-2.8 c10.4-33.4,20.8-67.4,31.3-100.7c0.7-2.8,0.7-4.2-2.8-4.2c-15.3,0-29.9,0-45.2,0c-2.8,0-3.5,0.7-4.2,2.8 c-10.4,33.4-20.8,67.4-31.3,100.7c-1.4,3.5,0,4.2,3.5,4.2C301.6,343.7,308.5,344.4,316.2,344.4z"></path> <path style="fill:#FFFFFF;" d="M209.9,183.2c17.4,0,35.4,0,52.8,0c3.5,0,4.2,0.7,2.8,4.2c-4.9,15.3-9.7,30.6-14.6,45.9 c-0.7,2.8-2.1,3.5-4.9,3.5c-32.7,0-64.6,0-97.3,0c-2.8,0-4.2,0.7-4.9,3.5c-10.4,33.4-20.8,66.7-31.3,99.4c-1.4,3.5-0.7,4.2,3.5,4.2 c14.6,0,28.5,0,43.1,0c2.8,0,4.2-0.7,4.9-3.5c2.1-8.3,4.9-16,7.6-24.3c1.4-3.5,0-4.2-3.5-4.2c-5.6,0-11.1,0-16.7,0 c-2.1,0-3.5-0.7-2.1-3.5c4.2-12.5,8.3-25,11.8-37.5c0.7-2.1,1.4-2.8,3.5-2.8c23.6,0,47.9,0,71.6,0c2.1,0,3.5,0,2.8,3.5 c-7.6,24.3-13.9,49.3-22.9,73.7c-9.7,27.1-29.2,44.5-57.7,50.7c-2.8,0.7-6.3,0.7-9,0.7c-20.1,0-40.3,0.7-59.8,0 c-18.8-0.7-34-16.7-34.7-35.4c0-9,2.8-18.1,5.6-26.4c10.4-33.4,20.8-66.7,31.3-99.4c9.7-29.9,39.6-52.1,70.9-52.1 C177.9,183.2,193.9,183.2,209.9,183.2z"></path> </g> </svg> 