<?xml version="1.0" encoding="UTF-8"?> <!-- Generator: Adobe Illustrator 24.3.0, SVG Export Plug-In . SVG Version: 6.00 Build 0) --> <svg xmlns="http://www.w3.org/2000/svg" xmlns:xlink="http://www.w3.org/1999/xlink" version="1.1" id="Layer_1" x="0px" y="0px" viewBox="0 0 500 500" style="enable-background:new 0 0 500 500;" xml:space="preserve"> <path style="fill:#FFFFFF;" d="M284.1,32.7c-60.9-8-120.6,8-170,46c-48.3,36.8-79.3,90.8-87.3,151.7c-8,60.9,8,120.6,46,170 s90.8,79.3,151.7,87.3c10.3,1.1,20.7,2.3,29.9,2.3c8,0,16.1,0,23-1.1c1.1,0,1.1,0,1.1,0l0,0c102.3-11.5,188.4-90.8,202.2-197.6 C498.9,164.9,409.3,48.8,284.1,32.7z M254.2,46.5c9.2,0,18.4,1.1,28.7,2.3c77,10.3,139,60.9,167.8,127.5 c-19.5-9.2-49.4-16.1-89.6,2.3c-71.2,32.2-125.2,51.7-178.1,12.6c-20.7-14.9-32.2-46-28.7-75.8c2.3-26.4,16.1-48.3,37.9-58.6 C211.7,50,232.4,46.5,254.2,46.5z M85.3,388.9c-18.4-24.1-31-50.6-37.9-78.1c8-10.3,27.6-18.4,51.7-14.9c23,3.4,79.3,23,102.3,128.7 c4.6,21.8,14.9,36.8,25.3,46h-1.1C170.3,463.6,119.8,434.9,85.3,388.9z M465.6,287.8C453,387.8,371.4,462.4,276,471.6 c-9.2,0-46-1.1-57.4-50.6c-26.4-114.9-90.8-136.7-116-141.3c-21.8-3.4-43.7,1.1-57.4,11.5c-3.4-19.5-3.4-40.2-1.1-59.7 c6.9-56.3,35.6-105.7,80.4-140.2c8-5.7,16.1-11.5,24.1-16.1c-6.9,11.5-10.3,24.1-11.5,37.9c-3.4,35.6,10.3,72.4,35.6,90.8 c24.1,18.4,49.4,25.3,74.7,25.3c41.4,0,81.6-18.4,119.5-35.6c51.7-24.1,85,1.1,91.9,8C466.8,229.2,469.1,257.9,465.6,287.8z"></path> </svg> 