<?xml version="1.0" encoding="UTF-8"?> <!-- Generator: Adobe Illustrator 24.3.0, SVG Export Plug-In . SVG Version: 6.00 Build 0) --> <svg xmlns="http://www.w3.org/2000/svg" xmlns:xlink="http://www.w3.org/1999/xlink" version="1.1" id="Layer_1" x="0px" y="0px" viewBox="0 0 500 500" style="enable-background:new 0 0 500 500;" xml:space="preserve"> <g> <path style="fill:#FFFFFF;" d="M171.2,271.4c-8.5-13.1-11.8-34-12.4-39.9c-2.6-1.3-8.5-2.6-13.1-4.6c-2,4.6-3.3,9.8-3.9,14.4 c-4.6,23.5,0.7,47.1,11.8,66c2.6-2.6,5.2-4.6,8.5-6.5C160.7,289.7,167.2,278,171.2,271.4z"></path> <path style="fill:#FFFFFF;" d="M164.6,245.9c2,7.2,5.2,17.6,9.8,24.8c2,0.7,3.9,0.7,6.5,1.3c2.6,0.7,6.5,1.3,9.8,2 c5.2,0.7,10.5,2,15.7,2.6c6.5-14.4,22.2-28.1,28.1-32.7c-2.6-9.1-5.2-19-7.2-28.1c-0.7-2.6-1.3-5.9-2-8.5 c-5.2-3.3-13.1-5.9-20.9-7.2c-7.2-1.3-12.4-1.3-16.3-0.7c-9.1,9.1-18.3,19-26.1,32c0,0.7,0.7,2,0.7,3.3 C162.7,237.4,163.3,241.4,164.6,245.9z"></path> <path style="fill:#FFFFFF;" d="M192.1,330.2c-8.5-3.3-24.8-19.6-29.4-27.4c-2.6,2-5.2,4.6-7.8,6.5c12.4,19.6,30.7,34,53.6,41.2 C203.2,345.9,196.6,339.4,192.1,330.2z"></path> <path style="fill:#FFFFFF;" d="M263.3,323.1c-6.5,0.7-13.7,0-21.6-1.3c-9.1-1.3-17.6-4.6-20.9-5.9c-6.5,6.5-20.3,13.1-26.1,14.4 c5.9,10.5,14.4,17.6,20.3,21.6c1.3,0.7,3.3,1.3,4.6,1.3c13.1,2,25.5,2,37.3-0.7c1.3,0,2-0.7,3.3-2c5.2-3.3,10.5-6.5,14.4-10.5 C269.8,337.4,266.6,332.2,263.3,323.1z"></path> <path style="fill:#FFFFFF;" d="M204.5,196.9c7.8,1.3,15.7,3.9,21.6,7.2c5.2-3.3,23.5-12.4,32.7-14.4c-0.7-7.8-2.6-17.6-3.9-22.2 c-3.3-2-5.9-3.3-9.1-5.2c-20.9-2-41.2,3.3-58.2,13.1c-0.7,7.2,0,15.7,0.7,20.9C192.1,195.6,197.9,195.6,204.5,196.9z"></path> <path style="fill:#FFFFFF;" d="M232.6,248.6c-3.3,2.6-5.9,5.2-8.5,7.8c-5.2,5.2-12.4,13.7-16.3,22.2c3.3,11.1,7.2,24.2,13.1,35.9 c0.7,0,0.7,0,0.7,0c0.7,0.7,2.6,1.3,4.6,2c3.3,1.3,9.1,2.6,15.7,3.9c7.8,1.3,15,1.3,21.6,0.7c7.8-7.2,16.3-17.6,26.1-30.7 c0-13.7-9.8-30.7-13.7-37.3c0-0.7-0.7-1.3-2-2c-2,0-3.3-0.7-5.2-0.7c-7.8-1.3-15-2.6-21.6-3.3c-3.9,0-7.8-0.7-11.8-1.3 C234.5,246.6,233.9,247.2,232.6,248.6z"></path> <path style="fill:#FFFFFF;" d="M311,319.8c10.5-12.4,17.6-27.4,20.9-44.4c0.7-3.9,1.3-7.8,1.3-12.4c-2,8.5-5.9,20.9-15,30.7 C318.2,302.1,315.6,310.6,311,319.8z"></path> <path style="fill:#FFFFFF;" d="M265.3,166.2c-2.6,0.7-4.6,1.3-6.5,2c1.3,4.6,2.6,13.7,3.3,21.6c7.2,3.3,25.5,19,30.1,25.5 c10.5,0,20.3,2,27.4,5.2c0.7-2,0.7-3.3,0.7-5.2c0.7-2,0.7-3.3,0.7-4.6C309.1,189.7,289.4,173.4,265.3,166.2z"></path> <path style="fill:#FFFFFF;" d="M306.4,218.5c-3.9-0.7-8.5-1.3-13.7-1.3c-2,12.4-7.8,23.5-15,32.7c3.9,6.5,14.4,24.8,15,39.9 c0,0.7,1.3,0.7,2,0.7c6.5,0.7,17,1.3,21.6,2c11.1-11.1,15-28.1,15.7-33.3c0-0.7,0-1.3,0-1.3c-1.3-11.8-6.5-26.1-11.8-34.6 C316.2,221.1,311.7,219.1,306.4,218.5z"></path> <path style="fill:#FFFFFF;" d="M265.9,350.5c10.5-3.3,20.3-8.5,28.8-14.4c-7.2,3.3-13.1,5.2-17.6,5.9 C273.8,344.6,269.8,347.9,265.9,350.5z"></path> <path style="fill:#FFFFFF;" d="M453.6,186.7l-150.2-21.8L236.3,28.8l-67.2,136.1L19,186.7l108.7,105.9l-25.6,149.6l134.3-70.6 l134.3,70.6l-25.6-149.6L453.6,186.7z M336.5,276.7c-9.8,55.6-62.7,92.2-118.3,82.3c-55.6-9.8-92.2-62.7-82.3-118.3 c9.8-55.6,62.7-92.2,118.3-82.3C309.7,168.2,347,221.1,336.5,276.7z"></path> </g> </svg> 