<?xml version="1.0" encoding="UTF-8"?> <!-- Generator: Adobe Illustrator 24.3.0, SVG Export Plug-In . SVG Version: 6.00 Build 0) --> <svg xmlns="http://www.w3.org/2000/svg" xmlns:xlink="http://www.w3.org/1999/xlink" version="1.1" id="Layer_1" x="0px" y="0px" viewBox="0 0 500 500" style="enable-background:new 0 0 500 500;" xml:space="preserve"> <g> <g> <path style="fill:#FFFFFF;" d="M229.4,362.5c0,4.4,1.4,7.7,4.2,10.1c2.8,2.4,6.3,3.6,10.5,3.6c5.7,0,10.7-1.4,14.8-4.3 c4.2-2.9,6.2-7.8,6.2-14.7v-13.7c-11.9,0.7-20.8,2.4-26.8,5.2C232.4,351.5,229.4,356.1,229.4,362.5z"></path> </g> <g> <path style="fill:#FFFFFF;" d="M405.8,211.9c2.8,2.4,6.3,3.6,10.5,3.6c5.7,0,10.7-1.4,14.8-4.3c4.2-2.9,6.2-7.8,6.2-14.7v-13.7 c-11.9,0.7-20.8,2.4-26.8,5.2c-6,2.8-9,7.4-9,13.8C401.6,206.1,403,209.5,405.8,211.9z"></path> </g> <g> <path style="fill:#FFFFFF;" d="M294.3,238.9c-0.3,0.9-0.5,1.9-0.5,3c0,4.4,1.7,7.8,5.1,10.2c3.4,2.5,8.6,3.7,15.6,3.7 c4.6,0,8.5-0.3,11.5-0.8c3-0.5,5.4-1.3,7.2-2.1c1.8-0.9,3-1.9,3.8-3.2c0.7-1.2,1.1-2.5,1.1-3.9c0-2.6-1.1-4.6-3.3-5.9 c-2.2-1.4-6.5-2.2-13.1-2.5l-9.4-0.4c-2.7-0.3-5.6-0.4-8.5-0.5c-2.9-0.1-5.6-0.2-8.1-0.3C295.1,237.1,294.6,238,294.3,238.9z"></path> </g> <g> <path style="fill:#FFFFFF;" d="M316.7,146.9c-4.9,0-9,1.7-12.3,5.1c-3.3,3.4-4.9,8.9-4.9,16.6c0,8.1,1.5,13.7,4.4,17.1 c2.9,3.3,7.2,5,12.8,5c4.8,0,8.7-1.7,11.8-5c3.1-3.3,4.6-9,4.6-17.1c0-7.6-1.5-13.2-4.6-16.6C325.4,148.6,321.5,146.9,316.7,146.9 z"></path> </g> <g> <path style="fill:#FFFFFF;" d="M444.6,333.8l24.6-31.3l17.1-21.8L475,244.2v-13.5v-59.1c0-7.1-0.8-13.7-2.3-19.4 c-1.7-6.6-4.6-12.2-8.5-16.7c-3-3.6-6.6-6.7-10.7-9.1c-3.6-2.1-7.5-3.8-11.4-5.1c-3.7-1.2-7.4-2-11-2.5c-3.5-0.5-6.8-0.8-9.9-0.8 c-8.2,0-15.9,0.8-22.8,2.4c-6.6,1.5-12.6,3.4-17.9,5.7v-6.2H367h-21.5h-6.1l-1.5,1.7c-6.5-2.4-13.6-3.6-21.2-3.6 c-7.7,0-14.9,1.2-21.4,3.6c-6.8,2.4-12.7,5.9-17.6,10.4c-4.8,4.4-8.7,9.6-11.4,15.6c-2-4.4-4.6-8.4-7.7-11.9 c-4.8-5.5-10.7-9.9-17.7-13c-6.9-3.1-14.9-4.7-23.7-4.7c-8.6,0-16.6,1.7-24,5c-7.3,3.3-13.7,7.8-19,13.4 c-5.3,5.7-9.4,12.4-12.3,20c0,0.1,0,0.1-0.1,0.2l-2.6-54.9L158.6,89h-12.8h-22.1h-8.2l-3.8,7.3l-24.2,47.3L63.2,96.3L59.5,89h-8.2 H27.3H14.4l-0.5,12.9L8.8,230.2l-0.6,14l21.8,23h69.9c-1.5,1.5-2.9,3-4.3,4.6c-6.2,7.4-11,16-14.2,25.6 c-3.1,9.4-4.7,19.4-4.7,29.8c0,9.7,1.2,18.9,3.7,27.5c2.5,8.9,6.3,16.9,11.3,23.9c5.1,7.1,11.4,13.1,18.8,17.8 c1,0.6,1.9,1.2,2.9,1.7l4,21.6l2.2,12.1l1.5,8.1l7.9,2.3c3.2,0.9,6.3,1.5,9.4,1.8c2.7,0.2,4.8,0.4,6.6,0.4 c10.7,0,19.4-2.5,25.9-7.3c7.4-5.6,11.5-13.6,11.5-22.5c0-4.2-0.9-8.1-2.6-11.7c6.3-1.9,11.8-4.2,16.4-6.9l5.2-3.1 c1.5,1.5,3.1,3,4.9,4.3c4.7,3.5,10.1,6.1,16,7.8c5.5,1.6,11.4,2.3,17.4,2.3c8.1,0,16-1.4,23.3-4.1c1.9-0.7,3.7-1.6,5.5-2.5 l2.5,4.4h7.9h10.2h8.8h4.6h8.8h24.1h8.3h5.1h15.2h2.1H378h24.1h13.5v-13.5v-4.5l5.5,10.6l3.8,7.3h8.2h27.2h22.5l-10.6-19.8 L444.6,333.8z M90.1,211.5h-8.8l-35.8-67.7l-3.3,87H22.2l5.1-128.3h23.9l36.2,70.6l36.2-70.6h22.1l6.1,128.3h-25l-3.3-85.5 L90.1,211.5z M172.3,391.1c-7,1.8-14.5,2.7-22.5,2.7h-0.2l-0.8,4.3c6.7,0.7,11.8,2.5,15.2,5.5c3.5,3,5.2,6.7,5.2,11.1 c0,4.8-2,8.7-6.1,11.8c-4.1,3.1-10,4.6-17.8,4.6c-1.4,0-3.2-0.1-5.4-0.3c-2.3-0.2-4.5-0.6-6.9-1.3l-2.2-12.1 c2.7,0.8,5.2,1.4,7.4,1.6c2.2,0.3,3.7,0.4,4.5,0.4c4.4,0,7.3-0.5,8.7-1.6c1.4-1.1,2.1-2.5,2.1-4.1c0-1.9-0.7-3.4-2-4.6 c-1.4-1.2-3.7-1.9-7-2.4c-1.2-0.1-2.3-0.2-3.3-0.2c-1,0-1.8,0.1-2.5,0.2l-2.7-3.5l2-10.4c-7.6-1.4-14.4-3.9-20.4-7.7 c-5.9-3.8-10.9-8.5-15-14.2s-7.2-12.3-9.3-19.7c-2.1-7.4-3.2-15.4-3.2-23.8c0-9,1.3-17.5,4-25.6c2.7-8,6.5-15.1,11.7-21.2 c5.1-6.1,11.4-10.9,18.9-14.5c7.5-3.6,16-5.4,25.6-5.4c7.4,0,14.4,0.9,21,2.6c6.6,1.7,11.7,3.7,15.2,6l-1.4,21.5 c-4.4-2.7-9.2-4.9-14.6-6.5c-5.4-1.6-10.9-2.5-16.7-2.5c-4.4,0-8.6,0.7-12.7,2c-4.1,1.4-7.6,3.4-10.6,6.1 c-4.5,4.1-7.7,9.3-9.7,15.7c-2,6.3-3,13.1-3,20.2c0,14.9,3,26.5,8.9,34.8c5.9,8.3,15,12.5,27.1,12.5c7,0,13.2-0.7,18.6-2.3 c5.5-1.5,10.5-3.6,15.1-6.3l2,20.1C185.1,387.1,179.3,389.4,172.3,391.1z M199.9,229.6c-5.9-2.3-11-5.7-15.2-10.2 c-4.2-4.5-7.5-10-9.9-16.5c-2.4-6.5-3.6-13.8-3.6-22c0-7.1,1.1-13.6,3.4-19.6c2.3-6,5.4-11.2,9.5-15.6c4.1-4.4,9-7.8,14.6-10.3 c5.7-2.5,11.8-3.8,18.5-3.8c7,0,13,1.2,18.2,3.5c5.2,2.3,9.5,5.5,13,9.5c3.5,4,6.1,8.8,7.8,14.3c1.7,5.5,2.6,11.4,2.6,17.7 c0,0.8,0,2.1-0.1,4c-0.1,1.8-0.2,4.3-0.5,7.5h-60.6c0.7,8.6,3.1,15.3,7.3,20.2c4.2,4.8,10.6,7.3,19.3,7.3c4.4,0,9.1-0.6,14.2-1.8 c5.1-1.2,10.4-3.2,15.9-5.9l1.6,18.2c-4.8,2-10.2,3.8-16.3,5.1c-6.1,1.4-12.7,2-20,2C212.5,233,205.9,231.9,199.9,229.6z M289.4,391.5h-10.2l-7.2-12.7c-3.1,5.6-7.6,9.5-13.4,11.7c-5.8,2.2-12,3.3-18.5,3.3c-4.8,0-9.3-0.6-13.7-1.8 c-4.4-1.2-8.3-3.1-11.7-5.6c-3.4-2.5-6.1-5.7-8.2-9.5c-2-3.8-3.1-8.3-3.1-13.5c0-6.3,1.6-11.6,4.9-16c3.3-4.4,7.7-7.9,13.3-10.7 c5.6-2.8,12.1-4.9,19.6-6.2c7.5-1.4,15.5-2.2,23.9-2.5c0-2.3-0.3-4.6-0.9-7c-0.6-2.3-1.7-4.2-3.2-5.7c-1.5-1.5-3.5-2.8-6.1-3.8 c-2.6-1-6.1-1.5-10.4-1.5c-4.4,0-9.1,0.6-14.1,1.8c-5,1.2-10.3,3.2-15.8,5.9l-1.6-18.2c4.8-2,10.2-3.8,16.2-5.1 c6-1.4,12.6-2,19.9-2c2.5,0,5.1,0.2,8,0.6c2.9,0.4,5.8,1.1,8.8,2c3,1,5.9,2.3,8.7,3.9c2.8,1.6,5.2,3.7,7.3,6.1 c2.6,3,4.5,6.8,5.7,11.5c1.2,4.6,1.8,10,1.8,16V391.5z M363.1,311.1c-1-0.1-1.8-0.2-2.7-0.3c-0.8-0.1-1.8-0.1-2.9-0.1 c-2.7,0-5.6,0.5-8.6,1.4c-3,1-5.6,2.8-7.8,5.5c-1.1,1.4-2,2.8-2.7,4.3c-0.7,1.5-1.2,3.3-1.6,5.3s-0.7,4.4-0.8,7.1 c-0.1,2.7-0.2,5.8-0.2,9.3v47.9h-24.1v-97.4h10.2l6.8,14.5h0.2c1.1-1.8,2.5-3.6,4.1-5.4c1.6-1.8,3.3-3.3,4.9-4.4 c3.5-2.5,7.1-4.2,10.7-5.1c3.6-1,7.6-1.4,12-1.4c0.5,0,1.3,0,2.1,0.1c0.9,0.1,1.5,0.2,1.9,0.3L363.1,311.1z M367,143.6l-15.3,4.9 c3.7,6,5.5,12.6,5.5,19.9c0,5.3-1,10.3-2.9,14.8c-1.9,4.6-4.6,8.5-8.2,11.8c-3.5,3.3-7.8,5.9-12.9,7.8c-5,1.9-10.6,2.9-16.8,2.9 c-4.9,0-9.2-0.5-12.9-1.4l-8,11.1c2.6,0.3,5.8,0.5,9.5,0.6c3.7,0.1,6.7,0.3,8.9,0.4l8.8,0.4c8.2,0.4,14.7,1.4,19.4,3 c4.8,1.6,8.3,3.5,10.6,5.8c2.2,2.2,3.9,5,5,8.5c1.2,3.5,1.6,7.2,1.3,11.2c-0.7,8.2-4.5,14.4-11.6,18.7c-7,4.3-18.5,6.4-34.3,6.4 c-8.6,0-16.2-1-22.9-3.1c-5.7-1.9-10.2-4.5-13.3-7.8c-3.1-3.3-4.7-7.3-4.7-12.1c0-1.5,0.2-3.1,0.5-4.7c0.3-1.6,0.9-3.1,1.5-4.5 l10.4-3.9c-4.1-1.2-6.9-2.8-8.4-4.7c-1.5-1.9-2.2-4.4-2.2-7.6c0-4,2.2-8.7,6.8-14.1l8.4-9.8c-4.6-3.3-8.2-7.4-10.5-12.5 c-2.4-5-3.6-10.8-3.6-17.2c0-5.3,1-10.2,3-14.7c2-4.5,4.8-8.4,8.4-11.7c3.6-3.3,8-5.8,13.1-7.7s10.7-2.8,16.9-2.8 c9.5,0,17.7,2.3,24.6,6.8l4.3-4.9H367V143.6z M375.6,202.5c0-6.3,1.6-11.6,4.9-16c3.3-4.4,7.7-7.9,13.3-10.7 c5.6-2.8,12.1-4.9,19.6-6.2c7.5-1.4,15.5-2.2,23.9-2.5c0-2.3-0.3-4.6-0.9-7c-0.6-2.3-1.7-4.2-3.2-5.7c-1.5-1.5-3.5-2.8-6.1-3.8 c-2.6-1-6.1-1.5-10.4-1.5c-4.4,0-9.1,0.6-14.1,1.8c-5,1.2-10.3,3.2-15.8,5.9l-1.6-18.2c4.8-2,10.2-3.8,16.2-5.1 c6-1.4,12.6-2,19.9-2c2.5,0,5.1,0.2,8,0.6c2.9,0.4,5.8,1.1,8.8,2c3,1,5.9,2.3,8.7,3.9c2.8,1.6,5.2,3.7,7.3,6.1 c2.6,3,4.5,6.8,5.7,11.5c1.2,4.6,1.8,10,1.8,16v59.1h-10.2l-7.2-12.7c-3.1,5.6-7.6,9.5-13.4,11.7c-5.8,2.2-12,3.3-18.5,3.3 c-4.8,0-9.3-0.6-13.7-1.8c-4.4-1.2-8.3-3.1-11.7-5.6c-3.4-2.5-6.1-5.7-8.2-9.5C376.7,212.2,375.6,207.7,375.6,202.5z M433,391.5 l-23.3-45.4h-7.6v45.4H378V265.1l24.1-4.5v73.9l31.3-40.3h25.2l-30.1,38.3l31.7,59.1H433z"></path> </g> <g> <path style="fill:#FFFFFF;" d="M233.8,170.2c0-8-1.5-13.9-4.6-17.5c-3.1-3.6-7.1-5.4-12-5.4c-2.7,0-5.2,0.6-7.5,1.8 c-2.3,1.2-4.4,3.4-6.4,6.5c-2.7,4.1-4.5,9.5-5.3,16.2h35.8V170.2z"></path> </g> </g> </svg> 