<?xml version="1.0" encoding="UTF-8"?> <!-- Generator: Adobe Illustrator 24.3.0, SVG Export Plug-In . SVG Version: 6.00 Build 0) --> <svg xmlns="http://www.w3.org/2000/svg" xmlns:xlink="http://www.w3.org/1999/xlink" version="1.1" id="Layer_1" x="0px" y="0px" viewBox="0 0 500 500" style="enable-background:new 0 0 500 500;" xml:space="preserve"> <g id="Symbols"> <g id="Logo" transform="translate(-10.000000, -10.000000)"> <g transform="translate(10.000000, 10.000000)"> <path id="Fill-1" style="fill-rule:evenodd;clip-rule:evenodd;fill:#FFFFFF;" d="M41.3,309.4v-8.8h23.4v10.2 c0,9.5,3.7,13.9,11,13.9l0,0c7.3,0,11-4.4,11-13.9c0-5.1-1.5-10.2-4.4-14.6c-2.9-4.4-6.6-8.8-11-12.4l-11.7-11.7 c-5.1-4.4-8.8-9.5-11.7-15.3c-2.9-5.8-5.1-13.2-5.1-20.5c0-11.7,2.9-20.5,9.5-26.3c5.8-5.8,14.6-9.5,24.8-9.5s18.3,2.9,24.1,9.5 c5.8,5.8,8.8,15.3,8.8,26.3v4.4H86.6v-5.8c0-9.5-3.7-13.9-11-13.9c-7.3,0-11,3.7-11,13.2c0,3.7,0.7,7.3,2.2,11 c1.5,3.7,3.7,6.6,6.6,9.5c2.9,2.9,5.8,5.8,8.8,8.8c2.9,2.9,6.6,5.8,9.5,8.8c2.9,2.9,5.8,6.6,8.8,9.5c2.9,3.7,4.4,7.3,6.6,12.4 c1.5,5.1,2.2,10.2,2.2,15.3c0,11.7-2.9,20.5-8.8,26.3c-5.8,5.8-13.9,9.5-24.1,9.5s-19-2.9-24.8-9.5 C44.2,329.8,41.3,321.1,41.3,309.4"></path> <path id="Fill-4" style="fill-rule:evenodd;clip-rule:evenodd;fill:#FFFFFF;" d="M143.6,269.9h11c3.7,0,6.6-0.7,8-2.9 c2.2-2.2,2.9-5.8,2.9-10.2v-21.2c0-5.1-0.7-8-2.9-10.2c-2.2-2.2-4.4-2.9-8-2.9h-11V269.9z M120.9,343.7V201.2h32.9 c22.7,0,33.6,11.7,33.6,35.1v18.3c0,23.4-11,35.1-33.6,35.1h-11V343h-21.9V343.7z"></path> <path id="Fill-6" style="fill-rule:evenodd;clip-rule:evenodd;fill:#FFFFFF;" d="M221,265.5h8.8c4.4,0,8-1.5,10.2-3.7 c2.2-2.2,3.7-5.8,3.7-11.7v-13.9c0-9.5-3.7-14.6-11.7-14.6h-11V265.5z M198.4,343.7V201.2H232c11.7,0,19.7,2.9,25.6,8 c5.1,5.1,8,13.9,8,24.8v11c0,14.6-5.1,24.1-14.6,29.2c10.2,4.4,14.6,14.6,14.6,30.7v21.9v0.7c0,7.3,0.7,12.4,2.2,16.1h-22.7 c-1.5-4.4-2.2-10.2-2.2-17.5v-22.7c0-6.6-1.5-11-3.7-13.9c-2.2-2.9-5.8-4.4-11-4.4h-8V343h-21.9V343.7z"></path> <polygon id="Fill-8" style="fill-rule:evenodd;clip-rule:evenodd;fill:#FFFFFF;" points="281,343.7 303.6,343.7 303.6,201.2 281,201.2 "></polygon> <path id="Fill-10" style="fill-rule:evenodd;clip-rule:evenodd;fill:#FFFFFF;" d="M342.4,323.2h13.2c3.7,0,6.6-0.7,8.8-2.9 s2.9-5.8,2.9-11v-12.4c0-6.6-1.5-11-3.7-13.9c-2.2-2.2-5.8-3.7-11-3.7h-10.2V323.2z M342.4,258.9h8.8c4.4,0,8-1.5,10.2-3.7 c2.2-2.2,3.7-5.8,3.7-11.7v-8c0-9.5-3.7-14.6-11.7-14.6h-11C342.4,220.9,342.4,258.9,342.4,258.9z M319.7,343.7V201.2h34.3 c11.7,0,19.7,2.9,25.6,8c5.1,5.1,8,13.9,8,24.8v5.1c0,14.6-5.1,24.1-14.6,28.5c11,4.4,16.8,14.6,16.8,30.7v11.7 c0,11-2.9,19.7-8.8,24.8c-5.8,5.8-14.6,8.8-25.6,8.8H319.7z"></path> <polygon id="Fill-11" style="fill-rule:evenodd;clip-rule:evenodd;fill:#FFFFFF;" points="403,343.7 403,201.2 464.4,201.2 464.4,221.7 425.7,221.7 425.7,261.1 456.4,261.1 456.4,281.6 425.7,281.6 425.7,323.2 464.4,323.2 464.4,343.7 "></polygon> <polygon id="Fill-12" style="fill-rule:evenodd;clip-rule:evenodd;fill:#FFFFFF;" points="40.5,372.9 464.4,372.9 464.4,353.2 40.5,353.2 "></polygon> </g> </g> </g> </svg> 