<?xml version="1.0" encoding="UTF-8"?> <!-- Generator: Adobe Illustrator 24.3.0, SVG Export Plug-In . SVG Version: 6.00 Build 0) --> <svg xmlns="http://www.w3.org/2000/svg" xmlns:xlink="http://www.w3.org/1999/xlink" version="1.1" id="Layer_1" x="0px" y="0px" viewBox="0 0 500 500" style="enable-background:new 0 0 500 500;" xml:space="preserve"> <g> <path style="fill:#FFFFFF;" d="M287.4,33.2c0.8,13.2,2.3,24.8,3.1,37.9c7.7-8.5,13.9-15.5,20.1-22.5c0.8,0.8,0.8,0.8,1.5,1.5 c-3.1,13.2-5.4,26.3-8.5,40.3c-44.9-10.8-88.3-6.2-129.3,16.3c-6.2-13.2-11.6-25.6-18.6-40.3c9.3,6.2,17,10.8,26.3,17 c-1.5-13.2-3.9-24-5.4-37.2c13.9,10.1,27.1,18.6,40.3,27.9c4.6-13.2,9.3-26.3,13.9-40.3c7.7,12.4,14.7,24,22.5,36.4 C264.9,58,275.8,46.4,287.4,33.2z"></path> <path style="fill:#FFFFFF;" d="M364.1,184.2c0,0-0.8,0-1.5,0c-0.8,1.5-0.8,3.1-2.3,6.2c-4.6-4.6-8.5-8.5-11.6-12.4 c4.6-5.4,5.4-10.1,0.8-14.7c-6.2-6.2-9.3,3.1-13.2,3.9c-3.9-2.3-7.7-4.6-10.8-6.2c-0.8,0.8-1.5,1.5-2.3,2.3 c10.1,10.1,19.4,20.1,29.4,31c-7.7-0.8-13.9-1.5-20.9-1.5c-7,0-13.2,2.3-20.1,3.1c-4.6-5.4-10.1-10.8-15.5-16.3 c-8.5-9.3-9.3-9.3-3.9-20.1c0,0,0-0.8-0.8-1.5c-3.9,2.3-7.7,3.9-12.4,6.2c-25.6-13.2-37.2-13.2-49.6,1.5c9.3,7,19.4,10.1,31,9.3 c7.7-0.8,14.7,1.5,20.1,7.7c4.6,5.4,10.1,10.8,14.7,15.5c-16.3,0-31.8,0.8-47.2,0c-12.4-0.8-23.2-6.2-29.4-17.8 c-3.1-7-4.6-14.7-16.3-12.4c7-10.1,15.5-14.7,25.6-19.4c-3.1-2.3-5.4-3.9-7.7-5.4c13.2-10.8,27.9-17,44.1-19.4 c3.9-0.8,9.3,0,12.4,1.5c9.3,4.6,18.6,10.8,28.7,17c1.5-5.4,3.1-10.1,5.4-17c13.9,10.1,27.9,19.4,41,28.7 c-2.3-8.5-4.6-17.8-7.7-27.1c-0.8-2.3-3.1-3.9-4.6-5.4c-11.6-9.3-24.8-14.7-38.7-18.6c-1.5,0-3.1,0-3.9-0.8 c0.8,4.6,2.3,9.3,3.1,13.9c-0.8,0-0.8,0.8-1.5,0.8c-3.1-2.3-5.4-5.4-8.5-7.7c-7.7-7.7-17-12.4-28.7-11.6 c-12.4,1.5-24.8,1.5-36.4,3.9c-13.2,3.1-26.3,7.7-38.7,11.6c0,0.8,0,1.5,0,2.3c7.7,3.1,14.7,7,18.6,17c-3.9-1.5-6.2-2.3-9.3-3.1 c-13.9-4.6-24.8,1.5-27.1,16.3c-0.8,3.9-0.8,7.7,0,11.6c0.8,5.4,2.3,10.1,3.1,14.7c-14.7-10.1-16.3-24.8-12.4-41.8 c-21.7,17-37.9,36.4-49.6,59.6c6.2,0.8,10.8,2.3,17,3.1c-18.6,24.8-30.2,51.9-33.3,82.9c10.1-3.1,18.6-5.4,27.9-8.5 c-4.6,35.6-4.6,69.7,10.8,103c19.4-15.5,33.3-34.1,47.2-53.4c0.8,1.5,1.5,2.3,1.5,2.3c0.8,1.5,0.8,3.1,1.5,4.6 c7,26.3,4.6,51.9-0.8,77.4c-1.5,6.2,0,8.5,5.4,10.8c25.6,11.6,52.7,13.2,79,5.4c14.7-4.6,28.7-11.6,44.1-17.8 c1.5,5.4,3.1,11.6,5.4,19.4c17-11.6,31-24.8,41-41.8c10.1-17,15.5-35.6,18.6-56.5c4.6,5.4,8.5,9.3,13.2,13.9 C405.9,279.5,396.6,229.9,364.1,184.2z M279.7,264c-4.6-10.1-10.1-19.4-15.5-29.4c13.2-10.1,25.6-18.6,41-23.2 c3.1-0.8,7,0.8,10.1,1.5c2.3,0.8,3.9,2.3,6.2,3.9c3.1,2.3,9.3,3.1,9.3,6.2c1.5,6.2,0.8,13.2,0.8,20.1c0,0.8-0.8,1.5-1.5,2.3 c-12.4,10.1-24,20.1-40.3,24C285.1,269.4,282,268.7,279.7,264z M334.6,315.9c-0.8,0-1.5,0-2.3,0.8c-0.8-7-1.5-13.9-2.3-21.7 c-7.7,3.9-14.7,7-20.9,10.8c-3.9,1.5-6.2,0.8-7.7-3.1c-2.3-5.4-5.4-10.8-7-13.9c11.6-7,21.7-14.7,32.5-20.1 c5.4-2.3,13.9-3.9,17.8-1.5c4.6,3.1,8.5,11.6,8.5,17.8C350.9,296.5,344.7,307.4,334.6,315.9z M361,264.8 c-10.8-12.4-20.9-23.2-17-41c0-1.5,1.5-3.1,3.1-3.9c3.9-3.1,7.7-5.4,12.4-8.5C366.4,229.2,368.7,246.2,361,264.8z"></path> </g> </svg> 