<?xml version="1.0" encoding="UTF-8"?> <!-- Generator: Adobe Illustrator 24.3.0, SVG Export Plug-In . SVG Version: 6.00 Build 0) --> <svg xmlns="http://www.w3.org/2000/svg" xmlns:xlink="http://www.w3.org/1999/xlink" version="1.1" id="Layer_1" x="0px" y="0px" viewBox="0 0 500 500" style="enable-background:new 0 0 500 500;" xml:space="preserve"> <g> <path style="fill:#FFFFFF;" d="M254.5,89.9c-10.9,0-19.1-8.9-19.1-19.1c0-10.9,8.9-19.1,19.1-19.1c10.9,0,19.1,8.9,19.1,19.1 C273.6,81.6,264.7,89.9,254.5,89.9z M254.5,61.8c-5.1,0-8.9,3.8-8.9,8.9c0,5.1,3.8,8.9,8.9,8.9c5.1,0,8.9-3.8,8.9-8.9 C263.4,65.6,259.6,61.8,254.5,61.8z"></path> <g> <rect x="416.6" y="243.7" style="fill:#FFFFFF;" width="26.2" height="26.2"></rect> <path style="fill:#FFFFFF;" d="M443.4,270.5h-28.1v-28.1h28.1V270.5z M417.2,269.2h24.9v-24.9h-24.9V269.2z"></path> </g> <path style="fill:#FFFFFF;" d="M435.8,234.1h-11.5c0-87.5-71.5-158.9-158.9-158.9V64.3C359.8,64.3,435.8,140.3,435.8,234.1z"></path> </g> <g> <path style="fill:#FFFFFF;" d="M249.4,439.7c-10.9,0-19.1-8.9-19.1-19.1c0-10.9,8.9-19.1,19.1-19.1c10.9,0,19.1,8.9,19.1,19.1 C269.1,431.4,260.2,439.7,249.4,439.7z M249.4,411.6c-5.1,0-8.9,3.8-8.9,8.9c0,5.1,3.8,8.9,8.9,8.9c5.1,0,8.9-3.8,8.9-8.9 C258.9,415.4,254.5,411.6,249.4,411.6z"></path> <g> <rect x="61.3" y="221.7" style="fill:#FFFFFF;" width="26.2" height="26.2"></rect> <path style="fill:#FFFFFF;" d="M88.5,248.8H60.4v-28.1h28.1V248.8z M61.7,246.9h24.9V222H61.7V246.9z"></path> </g> <path style="fill:#FFFFFF;" d="M237.9,426.9c-93.8,0-169.8-76-169.8-169.8h11.5c0,87.5,71.5,158.9,158.9,158.9v10.9H237.9z"></path> </g> <g> <g> <g> <path style="fill:#FFFFFF;" d="M266,185.6l-12.1-1.9l-5.1-10.9c-1.9-3.8-5.1-3.8-7,0l-5.1,10.9l-12.1,1.9 c-4.5,0.6-5.1,3.2-1.9,6.4l8.9,8.3l-1.9,12.1c-0.6,4.5,1.9,5.7,5.7,3.8l10.9-5.7l10.9,5.7c3.8,1.9,6.4,0,5.7-3.8l-1.9-12.1 l8.9-8.3C271.1,189.5,269.8,186.3,266,185.6z"></path> <path style="fill:#FFFFFF;" d="M342.6,150.5h-36.4v-17.9H183.6v17.9h-36.4c-3.2,0-6.4,2.6-6.4,6.4v32.6 c0,19.1,15.3,34.5,34.5,34.5h12.8c5.1,10.9,13.4,21.1,22.3,28.7l2.6,1.9c8.3,6.4,12.8,16.6,12.8,26.8v14H264v-16.6 c0-8.9,4.5-17.9,11.5-23.6l4.5-3.2c8.9-7.7,17.2-17.2,22.3-28.7h12.1c19.1,0,34.5-15.3,34.5-34.5v-33.2 C348.9,153.1,345.7,150.5,342.6,150.5z M175.3,208c-10.2,0-18.5-8.3-18.5-18.5v-23.6H183v38.3c0,1.3,0,2.6,0,3.8H175.3z M266,227.1c-37,19.8-74-17.2-54.3-54.3c2.6-5.1,7-9.6,12.1-12.1c37-19.8,74,17.2,54.3,54.3C275.5,220.1,271.1,224.6,266,227.1z M333,189.5c0,10.2-8.3,18.5-18.5,18.5h-8.3c0-1.3,0-2.6,0-3.8v-38.3h26.2v23.6H333z M308.7,350.3H296v-20.4 c0-9.6-7.7-17.9-17.9-17.9h-66.4c-9.6,0-17.9,7.7-17.9,17.9v20.4h-12.8v19.1h127.7V350.3z M273.6,331.2v12.8h-56.8v-12.8H273.6z"></path> </g> </g> </g> </svg> 