<?xml version="1.0" encoding="UTF-8"?> <!-- Generator: Adobe Illustrator 24.3.0, SVG Export Plug-In . SVG Version: 6.00 Build 0) --> <svg xmlns="http://www.w3.org/2000/svg" xmlns:xlink="http://www.w3.org/1999/xlink" version="1.1" id="Layer_1" x="0px" y="0px" viewBox="0 0 500 500" style="enable-background:new 0 0 500 500;" xml:space="preserve"> <g> <path style="fill:#FFFFFF;" d="M247.1,74.4c-11.2,0-19.7-9.2-19.7-19.7c0-11.2,9.2-19.7,19.7-19.7c11.2,0,19.7,9.2,19.7,19.7 C266.8,65.8,257.6,74.4,247.1,74.4z M247.1,45.4c-5.3,0-9.2,3.9-9.2,9.2s3.9,9.2,9.2,9.2s9.2-3.9,9.2-9.2 C256.3,49.4,252.3,45.4,247.1,45.4z"></path> <g> <rect x="414.2" y="232.9" style="fill:#FFFFFF;" width="27" height="27"></rect> <path style="fill:#FFFFFF;" d="M441.8,260.5h-28.9v-28.9h28.9V260.5z M414.8,259.2h25.7v-25.7h-25.7V259.2z"></path> </g> <path style="fill:#FFFFFF;" d="M433.9,223h-11.8c0-90.1-73.7-163.8-163.8-163.8V48C355.6,48,433.9,126.3,433.9,223z"></path> </g> <g> <path style="fill:#FFFFFF;" d="M241.8,434.9c-11.2,0-19.7-9.2-19.7-19.7c0-11.2,9.2-19.7,19.7-19.7c11.2,0,19.7,9.2,19.7,19.7 C262.2,426.3,253,434.9,241.8,434.9z M241.8,405.9c-5.3,0-9.2,3.9-9.2,9.2c0,5.3,3.9,9.2,9.2,9.2c5.3,0,9.2-3.9,9.2-9.2 C251.7,409.9,247.1,405.9,241.8,405.9z"></path> <g> <rect x="47.9" y="210.3" style="fill:#FFFFFF;" width="27" height="27"></rect> <path style="fill:#FFFFFF;" d="M76,238.2H47.1v-28.9H76V238.2z M48.4,236.2H74v-25.7H48.4V236.2z"></path> </g> <path style="fill:#FFFFFF;" d="M230,421.7c-96.7,0-175-78.3-175-175h11.8c0,90.1,73.7,163.8,163.8,163.8v11.2H230z"></path> </g> <path style="fill-rule:evenodd;clip-rule:evenodd;fill:#FFFFFF;" d="M271.4,176.3l-2.6,0.7l3.9,2C272.7,179,271.4,176.3,271.4,176.3 M291.2,181.6h-3.9c0,0,0-0.7,0-2c0-1.3-0.7-2.6-0.7-2.6s1.3,1.3,2,2C289.2,179.6,291.2,181.6,291.2,181.6z M333.9,254.6 c0,0,3.9-1.3,7.9-0.7c3.9,0.7,6.6,1.3,7.9,2s2,0.7,2.6,0.7c0.7,0.7,2.6,3.9,4.6,7.2c2,3.9,3.3,6.6,3.9,9.2c0.7,2,0,4.6,0.7,5.3 c0.7,0.7,2.6,2,2,3.3c0,1.3-0.7,1.3-0.7,1.3s-2.6,0-2.6,1.3c-0.7,1.3,0,1.3-0.7,2c0,0.7-0.7,2-0.7,2s-6.6-5.9-7.2-7.9 c-0.7-2-0.7-2-2.6-3.3c-1.3-1.3-3.3-5.9-5.9-8.6c-2.6-2.6-3.3-3.3-4.6-5.3C337.9,261.9,333.9,254.6,333.9,254.6z M295.8,167.8 c0,0,0.7,0.7,0.7,2c0,0.7,0.7,2.6,1.3,3.3s2,1.3,2,1.3s6.6-2,7.9-2.6c2-0.7,3.3-0.7,3.9-0.7c0.7,0,3.9-2,4.6-2.6 c1.3-0.7,0,0,1.3-0.7c1.3,0,4.6,0,5.3,0c0.7,0,2-1.3,2.6-1.3s2,0,2,0s1.3-0.7,3.3-0.7c2,0,4.6,0.7,5.3,0c0.7,0,2.6-0.7,2.6-0.7 s-2-1.3-3.9-0.7c-2,0.7-3.9,0.7-3.9,0.7s3.9-1.3,5.9-1.3c2,0,3.3,0,3.9,0h0.7c0,0-1.3-0.7-3.3-0.7c-2.6,0-4.6,1.3-6.6,2 c-2,0-4.6-2-4.6-2s2.6,1.3,3.9,1.3c1.3,0,2.6-1.3,4.6-2c2-0.7,5.9,0,7.2,0c0.7,0-1.3-0.7-2.6-0.7s-3.9,0-5.3,0 c-0.7,0-1.3-0.7-1.3-0.7s0.7,0,2,0c0.7,0,3.3-0.7,4.6-0.7s0.7,0,1.3,0s3.3,0.7,3.3,0.7s0-0.7-2-1.3c-2,0-3.3,0-4.6,0s-2-1.3-2-1.3 s1.3,0.7,2,0.7c0.7,0,2.6-0.7,5.9-0.7c3.3,0,5.3,1.3,5.3,1.3s-1.3-1.3-2.6-1.3c-1.3-0.7-3.3-0.7-3.3-0.7s2.6-0.7,3.9,0 c1.3,0.7,3.3,2,3.3,2s-2-2.6-2-3.3c0-1.3,0-2,0-2l2.6,1.3v-1.3l2,1.3c0,0,0-0.7,2-1.3c2-0.7,2.6,0,2.6,0s-0.7-0.7-2-0.7 s-3.3,0.7-3.3,0.7s0.7-1.3,2.6-1.3c2,0,5.3,1.3,5.3,1.3s-0.7-1.3-2.6-1.3c-2-0.7-3.9,0-3.9,0s1.3-1.3,3.3-0.7c2,0,5.9,3.9,5.9,3.9 s-2-2.6-3.3-3.3s-2.6-0.7-2.6-0.7s2.6-0.7,3.9,1.3c2,1.3,3.9,5.3,4.6,5.3c0.7,0.7,1.3,0,2,0.7s1.3,1.3,1.3,1.3s4.6,3.3,5.9,5.3 c1.3,1.3,3.3,3.9,3.9,5.3c0.7,1.3,1.3,2,2.6,3.9c1.3,2.6,3.3,3.9,3.3,3.9s1.3,0,2,1.3c0,0.7,0,1.3,0,1.3s5.9,6.6,7.2,8.6 c1.3,1.3,3.9,2,3.9,3.9c0,2-2,3.3-2.6,4.6c0,1.3-0.7,2.6-1.3,3.9c-1.3,1.3-3.3,1.3-3.9,1.3c0-0.7,0,0-0.7,0.7c-0.7,0.7-2,0-2.6,0 c-0.7,0-3.3,1.3-4.6,0c-0.7-1.3-0.7-2-1.3-2.6c0-0.7-1.3-0.7-2-1.3c-1.3-0.7-5.3-3.3-5.9-2.6c-0.7,0-0.7,0.7-2,0.7 c-0.7,0-1.3-0.7-1.3-0.7s-0.7-1.3-1.3-1.3s-0.7,0.7-2,0.7s-2.6-0.7-2.6-1.3l0.7-0.7c0,0,1.3,0.7,2,0.7c0.7,0,1.3-0.7,1.3-0.7 s-0.7-0.7-2-0.7s-5.3,0.7-7.2,0c-2-0.7-5.3-2-5.3-2s0,0.7-1.3,0.7s-2-0.7-2.6-0.7c-0.7,0-6.6,2-9.9,7.2c-3.3,4.6-7.9,11.2-9.2,12.5 c-0.7,0.7-1.3,0.7-1.3,0.7s1.3,7.2,0,13.8s-2.6,10.5-2.6,10.5s12.5,4.6,17.8,5.3s9.9,1.3,11.8,3.9c2,2.6,3.3,3.3,3.9,5.3 c0.7,2,0,2,1.3,4.6c1.3,2.6,7.9,13.2,8.6,15.8c0.7,2.6,0,3.9,0,7.2c0,3.3,0.7,7.9,0,10.5c-0.7,2-1.3,3.9-1.3,3.9s2.6,2,4.6,2.6 c2,0.7,3.3,0.7,4.6,1.3c1.3,0.7,7.9,3.9,7.9,4.6c0.7,0.7-5.3,3.9-7.9,5.3c-2.6,0.7-3.9-0.7-5.3-0.7c-0.7,0-2-0.7-2-2s0-3.3-2.6-3.3 c-2.6,0-3.9,0.7-5.3,0c-1.3-0.7-4.6-3.9-5.9-5.9c-1.3-2-9.9-11.2-11.8-12.5c-1.3-1.3-5.3-2-6.6-3.3s-7.9-8.6-8.6-8.6 c0,0-11.2-9.9-13.8-12.5s-2-2-3.3-2c-1.3-0.7-4.6,0-5.9-0.7c-0.7-0.7-2.6-3.9-2.6-3.9s-14.5,5.3-26.3,5.3c-11.2,0-25-2-40.8-7.2 c-15.8-5.3-20.4-7.2-23-6.6s-2.6,0.7-2.6,3.3s-0.7,2.6-2.6,6.6c-2,3.9-5.3,11.8-5.9,15.8c-1.3,4.6-2.6,7.9-4.6,11.2 c-1.3,3.3-3.3,7.2-3.3,11.2c-0.7,3.9,0.7,10.5,3.9,15.1c2.6,3.9,9.2,12.5,9.2,12.5s-0.7-0.7,0,0c0.7,1.3,2.6,1.3,3.3,2 c0.7,0,2,0,3.3,0s3.3-0.7,3.9,1.3c1.3,2,1.3,2.6,1.3,2.6s-3.3,0.7-4.6,0.7c-2,0-2,0-2.6-0.7c-0.7-0.7-2.6-0.7-3.3,0 c-1.3,0-2.6,0.7-4.6,0c-1.3-0.7-15.8-21.7-18.4-25c-2-3.3-5.9-7.9-5.9-9.9c0-2.6,4.6-16.4,5.3-19.7c0.7-3.9-1.3-8.6-2-9.2 c-0.7-0.7,0.7,0.7-0.7-0.7c-1.3-1.3-4.6-5.9-4.6-5.9s-6.6,3.9-8.6,5.3s-4.6,2.6-5.9,4.6c-1.3,2.6-5.9,7.2-9.9,11.2 c-3.3,3.3-5.9,6.6-6.6,8.6c-0.7,2-5.3,3.3-7.2,6.6c-2,2.6-8.6,12.5-10.5,16.4c-2,3.9-2,5.3-3.9,6.6c-2,1.3-4.6,3.3-5.3,5.3 c-0.7,1.3,0,2.6-2,4.6c-2,2-3.3,2-3.9,2s-2-5.9-3.3-7.2s1.3-1.3,2.6-2.6s2.6-4.6,2.6-5.3c0-0.7,0,0,0-0.7c0-0.7,3.3-4.6,4.6-5.3 c1.3-0.7,4.6-6.6,7.2-11.8c2.6-5.3,7.2-12.5,7.9-15.1c0.7-3.3,0.7-5.3,2-6.6c1.3-1.3,2.6-1.3,4.6-4.6c2-2.6,7.2-8.6,8.6-11.2 c1.3-2.6,3.3-6.6,3.3-10.5s-0.7-13.2-0.7-15.8s0.7-4.6,0.7-4.6s-3.9,1.3-5.3,5.9c-0.7,3.9,1.3,11.8-2.6,17.1s-13.8,5.3-13.8,5.3 s8.6-0.7,11.2-4.6c2.6-3.9,2-7.9,1.3-8.6c-0.7-0.7-1.3-2.6-1.3-2.6s-1.3,2.6-2,3.9c-0.7,1.3,0,2.6-3.3,5.3c-3.3,2.6-7.9,4.6-7.9,4.6 s2.6-1.3,5.3-3.3s3.9-7.2,3.9-7.2s-1.3,3.3-3.9,4.6c-2.6,1.3-5.9,2-5.9,2s5.3-2,6.6-3.9c1.3-2,2-2.6,2-2.6s-2.6,2.6-5.3,3.9 c-2.6,0.7-5.9,0.7-5.9,0.7s3.9-0.7,6.6-2c2.6-2,3.3-2.6,3.3-2.6s-2.6,2.6-6.6,3.3s-5.9,0-5.9,0s5.3,0.7,9.2-2 c3.9-2.6,3.3-3.3,4.6-7.9c1.3-4.6,3.9-8.6,3.9-8.6s-4.6,2-6.6,6.6s-2,8.6-2,8.6s-2-2.6,0.7-7.9c2.6-5.3,4.6-7.2,4.6-7.2 s-4.6,3.9-6.6,7.9c-1.3,3.9-2,6.6-2,6.6s0-3.9,0-5.9c0.7-2,0-0.7,0.7-2c0.7-1.3,2.6-3.9,2.6-3.9s-3.3,2.6-6.6,5.3 c-3.9,3.3-4.6,3.9-4.6,3.9s1.3-2.6,3.3-3.9c2-1.3,5.3-3.9,5.3-4.6c0.7-0.7,0,0,0.7-0.7s1.3-1.3,1.3-1.3s-9.9,5.9-14.5,9.2 c-4.6,3.3-7.2,7.2-11.2,11.8c-3.3,4.6-7.2,7.2-7.2,7.2s3.3-2.6,4.6-3.9c1.3-1.3,1.3-2.6,1.3-2.6s-5.9,3.9-7.2,7.2 c-1.3,3.3-1.3,5.3-1.3,5.3s-0.7-2-0.7-3.3s0.7-4.6,0.7-4.6s-2,2-2,3.3s0,2.6,0,2.6s3.9-2,3.9-3.9c0.7-2.6,0.7-2.6,0.7-2.6 s-0.7,0-2,1.3c-0.7,1.3-1.3,3.9-1.3,3.9s0-2.6,0-4.6s1.3-3.3,1.3-3.3s-1.3,0.7-3.3,0s-3.3-4.6-3.3-4.6s0.7,2,3.3,2s5.3-2,5.3-3.3 s1.3-3.9,1.3-3.9s-2,2-4.6,2.6c-2.6,0-5.9-2.6-5.9-2.6s2,2,4.6,2s3.9-0.7,4.6-2c0.7-1.3,1.3-2.6,2.6-3.3s2-1.3,2-1.3s-2.6,0-3.9,1.3 c-1.3,1.3-3.3,2.6-5.9,2.6s-3.9-2.6-3.9-2.6s1.3,1.3,3.9,2c2.6,0,3.9-2,5.9-3.3c2-1.3,5.9-2,5.9-2s-2.6-0.7-4.6,0.7 c-2,1.3-3.3,3.3-5.3,3.3s-3.9-1.3-3.9-1.3s2,1.3,3.9,0.7c1.3-0.7,3.9-3.3,6.6-5.3c2.6-1.3,6.6-2,6.6-2s-3.3-1.3-6.6,0.7 c-2.6,2-3.9,5.3-6.6,5.3c-2.6,0.7-4.6-0.7-4.6-0.7s2.6,0.7,3.9,0c2-0.7,2.6-3.3,5.9-6.6c3.3-2.6,11.8-2.6,11.8-2.6s-3.9-1.3-7.9,0 c-3.3,1.3-5.9,3.3-5.9,3.3s2-3.3,5.9-4.6c3.9-1.3,6.6-0.7,10.5-1.3c4.6-0.7,11.8-3.3,11.8-3.3s-3.9,0-8.6,0.7c-4.6,1.3-7.2,2-7.2,2 s3.3-2,6.6-2.6s7.9-0.7,7.9-0.7s-2.6-1.3-7.2,0c-4.6,1.3-7.9,2.6-10.5,3.3c-2.6,0-3.9,0-3.9,0s2,0,6.6-1.3c3.9-1.3,7.2-3.3,10.5-3.9 s8.6,0,8.6,0s0-1.3-4.6-1.3s-7.2,2-7.2,2s2-2,6.6-2.6c5.3-0.7,7.9,0,7.9,0s-1.3-1.3-4.6-1.3c-2.6,0-5.9,0.7-5.9,0.7s1.3-0.7,3.3-1.3 c1.3,0,5.9,0,5.9,0s-1.3-0.7-3.9-1.3c-2,0-4.6,0.7-4.6,0.7s1.3-1.3,3.3-1.3c2.6,0,4.6,1.3,6.6,1.3c2,0,3.3,0,3.3,0s-3.3,0-4.6-0.7 c-1.3-0.7-2-1.3-3.9-2c-2,0-3.3,0.7-3.3,0.7s2-1.3,3.9-1.3c2,0,3.3,1.3,4.6,1.3c1.3,0.7,5.3,0,5.3,0s-3.3,0-4.6-0.7 c-1.3-0.7-3.9-2-4.6-2s-2,0.7-2,0.7s2-0.7,3.3-0.7c2,0,2.6,1.3,4.6,2c2,0,3.3,0,3.3,0s-2-1.3-2.6-2c-0.7-0.7-3.3,0-3.3,0 s1.3-0.7,2.6-0.7c1.3,0,3.9,3.3,6.6,2c2.6-0.7,6.6-4.6,11.8-6.6c5.9-2,10.5-2,10.5-2s-6.6-0.7-11.2,1.3c-3.9,2-7.2,3.9-7.2,3.9 s2-2.6,7.9-5.3c5.3-2,12.5-1.3,15.1-2c3.3-0.7,5.3-3.3,9.2-3.9s3.9-0.7,7.9-2c4.6-1.3,7.9-3.3,11.2-3.9s15.1,1.3,15.8,1.3 c1.3,0,0.7,0,1.3,0s3.9,1.3,3.9,1.3s0.7,0,1.3-0.7s1.3,0,2.6,0c1.3,0,1.3,0,1.3,0s1.3-0.7,2.6-0.7c1.3,0,4.6,0.7,6.6,1.3 c1.3,0.7,3.3,0.7,5.9,1.3c2.6,0,7.9,1.3,10.5,0.7c2.6-0.7,4.6-1.3,5.3-2c0.7,0,0,0,0.7-0.7c0.7-0.7,1.3-0.7,2-1.3 c0.7-0.7,4.6-2,4.6-2s0-1.3-0.7-1.3c-0.7,0-19.7-4.6-19.7-5.3c-0.7,0,1.3,0-0.7,0c-2-0.7-8.6-2.6-9.9-7.2s0-7.9,0.7-9.9 c1.3-2,3.3-3.9,3.9-4.6s3.3-2.6,3.3-2.6s-2-1.3-1.3-3.3c0.7-2,2.6-3.3,5.3-4.6c3.3-0.7,6.6-0.7,7.9-0.7c1.3-0.7,3.9-2,5.9-2 c2,0,2.6,0,4.6,0c2,0,5.3,0,5.9-0.7c0.7-0.7,1.3-2,2.6-2s2,1.3,3.3,1.3s6.6,0,9.9,0.7c2.6,0.7,5.3,4.6,5.3,4.6s0.7,0,1.3,0 s0.7,0,1.3,0c0,0-1.3-0.7-1.3-2c0-1.3,0-1.3,0-1.3s0,1.3,0.7,2c0.7,0.7,1.3,0.7,1.3,0.7s-0.7-0.7-0.7-2c0-0.7,0.7-1.3,0.7-1.3 s-0.7,0.7,0,1.3c0.7,0.7,1.3,1.3,1.3,1.3s2-1.3,2-2c0-0.7,0-1.3,0.7-2c0.7-0.7,2.6-2.6,7.2-3.3c3.9-0.7,8.6,0.7,10.5,3.9 c2,3.3,2.6,6.6,2,9.2s-2,3.9-2,3.9s-0.7,2-1.3,2.6c-0.7,0.7-3.3,1.3-3.3,0.7c-0.7,0,0,0-0.7,0c-0.7,0-2.6,0-3.3,0 c-0.7,0-1.3,0-1.3,0s-3.3,0.7-3.9,0.7c-0.7,0-2,0-2.6,0C295.8,167.8,295.8,167.8,295.8,167.8z"></path> </svg> 