<?xml version="1.0" encoding="UTF-8"?> <!-- Generator: Adobe Illustrator 24.3.0, SVG Export Plug-In . SVG Version: 6.00 Build 0) --> <svg xmlns="http://www.w3.org/2000/svg" xmlns:xlink="http://www.w3.org/1999/xlink" version="1.1" id="Layer_1" x="0px" y="0px" viewBox="0 0 500 500" style="enable-background:new 0 0 500 500;" xml:space="preserve"> <g> <path style="fill-rule:evenodd;clip-rule:evenodd;fill:#FFFFFF;" d="M187.9,65.7c-3.1,2.3-6.1,5.4-8.4,8.4 c-18.4,19.9-28.3,43.6-29.1,71.9c0.8,35.2,13,63.5,35.9,84.9c8.4,6.9,16.1,12.2,22.9,14.5l-0.8,3.1c-13-5.4-25.2-13-35.9-23.7 c-20.7-20.7-31.4-45.9-31.4-75.7c0-29.1,10.7-54.3,31.4-75.7c4.6-4.6,9.2-8.4,13.8-12.2L187.9,65.7z M307.2,59.6 c6.1,3.8,11.5,8.4,16.8,13.8c20.7,20.7,31.4,45.9,31.4,75.7s-10.7,54.3-31.4,75.7c-7.6,7.6-16.8,14.5-25.2,19.1l-1.5-3.1 c6.1-3.1,13-8.4,20.7-16.1c19.1-19.9,28.3-45.9,28.3-78c0-1.5,0-3.1,0-4.6c-1.5-26-11.5-49-27.5-68.8c-3.8-3.8-8.4-7.6-12.2-10.7 L307.2,59.6z"></path> <path style="fill-rule:evenodd;clip-rule:evenodd;fill:#FFFFFF;" d="M262.1,29l35.2,19.9c-0.8,1.5-1.5,2.3-1.5,3.8 c-22.9,49.7-32.1,97.9-26,144.6c-15.3-53.5-18.4-105.6-9.9-155.3C260.6,38.2,261.3,33.6,262.1,29z M246.8,205.7 c0-1.5-0.8-2.3-0.8-3.8c11.5,20.7,22.2,36.7,33.7,49c-7.6,2.3-15.3,3.8-22.9,3.8C253.7,237.8,250.6,221.7,246.8,205.7z M331.7,318.1l-3.1,3.1c-10.7-10.7-22.9-19.1-36.7-24.5c-14.5-6.1-29.1-9.2-45.1-9.2c-15.3,0-30.6,3.1-45.1,9.2 c-13.8,6.1-26,14.5-35.9,25.2l-3.1-3.1c10.7-11.5,23.7-19.9,37.5-26c14.5-6.1,30.6-9.9,46.7-9.9c16.1,0,32.1,3.1,46.7,9.2 C308,298.2,320.2,306.6,331.7,318.1z M305.7,322.7l-18.4,12.2l-5.4-3.1l26-16.8c1.5-0.8,2.3-0.8,3.1,0l0.8,0.8 c1.5,0.8,1.5,2.3,1.5,3.8l-8.4,29.8l-4.6-4.6l1.5-6.1l-5.4-4.6l4.6-3.1l2.3,1.5L305.7,322.7z M283.5,300.5l-0.8,5.4l-10.7-3.1 c-1.5,0-2.3,0-3.1,0s-1.5,1.5-1.5,3.1l-0.8,3.1l13,3.1l-1.5,5.4l-13-3.8l-3.1,12.2l-3.8-0.8c-1.5-0.8-1.5-1.5-1.5-3.1l4.6-18.4 c0.8-3.1,2.3-4.6,4.6-6.1c2.3-0.8,4.6-0.8,6.9,0L283.5,300.5z M337.1,244.7L337.1,244.7l3.1,6.9l0,0l3.1-6.9l0,0l0,0h0.8v0.8v7.6 l0,0l0,0h-0.8l0,0v-6.9l0,0l-2.3,5.4l0,0l0,0l0,0h-0.8l-2.3-6.1v6.9h-1.5v-8.4v-0.8L337.1,244.7L337.1,244.7L337.1,244.7z M334.8,245.5L334.8,245.5h-2.3v7.6l0,0l0,0h-0.8l0,0v-7.6h-3.1v-0.8L334.8,245.5L334.8,245.5L334.8,245.5L334.8,245.5z M377.6,389.3l-6.9,17.6h13L377.6,389.3z M330.9,454.3v6.9H347v7.6h-16.1v6.9h18.4v7.6h-26.8v-36.7h26.8v7.6H330.9z M285.8,446.6 h8.4v22.9c0,1.5,0,2.3,0.8,3.1c0,0.8,0.8,1.5,1.5,2.3c1.5,1.5,3.1,2.3,5.4,2.3c2.3,0,3.8-0.8,5.4-2.3c1.5-1.5,1.5-3.1,1.5-5.4 v-22.9h8.4v22.9c0,2.3,0,4.6-0.8,6.9c-0.8,2.3-1.5,3.8-3.1,4.6c-3.1,3.1-6.9,3.8-11.5,3.8c-4.6,0-8.4-1.5-11.5-3.8 c-1.5-1.5-2.3-3.1-3.1-4.6c-0.8-2.3-0.8-3.8-0.8-6.9v-22.9H285.8z M347,376.3c3.8,3.1,6.1,8.4,6.1,14.5c0,3.1-0.8,6.1-1.5,8.4 c-0.8,2.3-2.3,4.6-4.6,6.1c-3.8,3.1-9.2,5.4-14.5,5.4h-9.9v19.9h-13.8v-58.9h23.7C338.6,370.9,343.2,372.4,347,376.3z M337.8,395.4 c1.5-1.5,2.3-3.1,2.3-5.4c0-2.3-0.8-3.8-2.3-5.4c-1.5-1.5-3.1-2.3-6.1-2.3h-9.2v14.5h9.2C334,397.7,336.3,396.9,337.8,395.4z M393.7,429.8l-4.6-10.7h-22.2l-4.6,10.7H347l23.7-58.9h13.8l23.7,58.9H393.7z M222.3,469.6h8.4l-4.6-11.5L222.3,469.6z M145.8,446.6h8.4v29.8h18.4v7.6h-26.8V446.6z M102.2,383.1v10.7h25.2v12.2h-25.2v11.5h28.3v12.2H88.5v-58.9h41.3v12.2 C129.8,383.1,102.2,383.1,102.2,383.1z M257.5,447.4c2.3-0.8,4.6-1.5,7.6-1.5c2.3,0,4.6,0,6.1,0.8c1.5,0.8,3.8,1.5,5.4,2.3 c1.5,0.8,3.1,2.3,3.8,3.8c0.8,1.5,1.5,3.1,2.3,4.6l-8.4,2.3c0-0.8-0.8-1.5-1.5-2.3c-0.8-0.8-0.8-1.5-2.3-2.3 c-0.8-0.8-1.5-0.8-2.3-1.5c-0.8,0-2.3-0.8-3.1-0.8c-3.1,0-5.4,0.8-6.9,3.1c-0.8,0.8-1.5,2.3-2.3,3.8c-0.8,1.5-0.8,3.1-0.8,4.6 c0,1.5,0,3.8,0.8,4.6c0.8,1.5,1.5,3.1,2.3,3.8s2.3,1.5,3.8,2.3c1.5,0.8,3.1,0.8,4.6,0.8c3.8,0,6.1-1.5,8.4-3.8v-2.3h-11.5v-6.9 h19.1v14.5c-0.8,1.5-2.3,2.3-3.8,3.8c-1.5,0.8-2.3,1.5-3.8,2.3c-2.3,1.5-6.1,2.3-9.9,2.3c-3.1,0-5.4-0.8-7.6-1.5 c-2.3-0.8-4.6-2.3-6.1-3.8c-1.5-1.5-3.1-3.8-3.8-6.1c-0.8-2.3-1.5-5.4-1.5-7.6c0-6.1,1.5-10.7,5.4-14.5 C253.7,449.7,255.2,448.2,257.5,447.4z M222.3,446.6h9.2l15.3,37.5h-9.9l-3.1-6.9h-14.5l-3.1,6.9h-9.9L222.3,446.6z M202.4,446.6 v7.6h-17.6v6.9h16.1v7.6h-16.1v6.9h18.4v7.6h-26.8v-36.7H202.4z M186.4,406.8c0,3.8-0.8,7.6-1.5,10.7c-1.5,3.1-3.1,5.4-5.4,7.6 c-4.6,3.8-10.7,6.1-17.6,6.1c-6.9,0-13-2.3-17.6-6.1c-2.3-2.3-3.8-4.6-5.4-7.6c-0.8-3.1-1.5-6.1-1.5-10.7v-35.9h13.8v35.9 c0,2.3,0,3.8,0.8,5.4c0.8,1.5,1.5,3.1,2.3,3.8c2.3,2.3,4.6,3.1,8.4,3.1c3.8,0,6.1-0.8,8.4-3.1c2.3-2.3,3.1-4.6,3.1-9.2v-35.9h13.8 v35.9H186.4z M225.4,390c0-4.6-2.3-6.9-7.6-6.9h-9.9v13h9.9C222.3,396.1,225.4,393.8,225.4,390z M262.1,387 c-1.5,1.5-2.3,3.8-3.1,6.1c-0.8,2.3-0.8,4.6-0.8,7.6s0,5.4,0.8,7.6c0.8,2.3,1.5,3.8,3.1,6.1c3.1,3.1,6.9,4.6,10.7,4.6 c4.6,0,8.4-1.5,10.7-4.6c3.1-3.1,4.6-7.6,4.6-13.8c0-3.1,0-5.4-0.8-7.6c-0.8-2.3-1.5-3.8-3.1-6.1c-3.1-3.1-6.9-4.6-10.7-4.6 C268.2,381.6,264.4,383.1,262.1,387z M243.7,400c0-2.3,0-4.6,0.8-6.9c0.8-6.1,3.8-11.5,7.6-15.3c5.4-5.4,12.2-8.4,20.7-8.4 c8.4,0,15.3,3.1,20.7,8.4c3.1,3.1,4.6,6.1,6.1,9.9c1.5,3.8,2.3,7.6,2.3,12.2c0,4.6-0.8,9.2-2.3,12.2c-1.5,3.8-3.1,6.9-6.1,9.9 c-3.1,3.1-6.1,4.6-9.2,6.1c-3.8,1.5-7.6,2.3-11.5,2.3c-4.6,0-8.4-0.8-11.5-2.3c-3.8-1.5-6.9-3.8-9.2-6.1 C246.8,416.8,243.7,409.1,243.7,400z M239.2,390c0,0.8,0,1.5,0,3.1c-0.8,6.1-4.6,10.7-10.7,13.8l13,23.7h-15.3l-11.5-22.2h-6.9 v21.4H194v-58.9H217c6.1,0,11.5,1.5,15.3,5.4C236.9,379.3,239.2,383.9,239.2,390z M246.8,331.1c9.9,0,19.9,2.3,29.1,6.1 c9.2,3.8,16.8,9.9,22.9,17.6l-3.8,3.1c-6.1-6.9-13-12.2-21.4-16.1s-17.6-6.1-27.5-6.1s-19.1,2.3-27.5,6.1 c-8.4,3.8-15.3,9.2-21.4,16.1l-3.1-3.1c6.9-7.6,14.5-13,22.9-17.6C226.9,333.4,236.9,331.9,246.8,331.1z M216.2,301.3 c0-1.5,0-2.3,1.5-2.3l18.4-3.8l0.8,5.4l-14.5,3.1l1.5,6.9l13-3.1l0.8,5.4l-13,3.1l0.8,3.1c0,1.5,0.8,2.3,1.5,3.1 c0.8,0.8,1.5,0.8,3.1,0l10.7-2.3l0.8,5.4l-10.7,2.3c-6.1,1.5-9.9-0.8-10.7-6.9L216.2,301.3z M172.6,325.8l4.6-3.8l10.7,12.2 c1.5,2.3,3.8,3.1,5.4,3.8c1.5,0,3.8,0,5.4-1.5c1.5-1.5,3.1-3.1,3.1-4.6c0-2.3-0.8-3.8-2.3-6.1l-10.7-12.2l4.6-3.8l11.5,13.8 c2.3,2.3,3.1,5.4,3.1,9.2s-2.3,6.1-5.4,9.2c-3.1,2.3-6.1,3.8-9.9,3.1c-3.1,0-6.1-1.5-8.4-4.6L172.6,325.8z"></path> <path style="fill-rule:evenodd;clip-rule:evenodd;fill:#FFFFFF;" d="M198.6,54.2c-0.8-2.3-0.8-3.8-1.5-6.1l54.3-21.4 c-0.8,5.4-0.8,9.9-1.5,15.3c-5.4,60.4-0.8,112.4,14.5,157.6c6.1,17.6,13,33.7,22.2,49l0,0C245.3,200.3,215.4,135.3,198.6,54.2z M240.7,207.2c3.8,15.3,6.1,31.4,6.9,48.2c-9.2,0-18.4-1.5-26.8-3.1c7.6-26.8,9.2-56.6,5.4-88.7c6.1,13,10.7,26,13.8,40.5 C239.9,204.9,240.7,206.4,240.7,207.2z"></path> </g> </svg> 