<?xml version="1.0" encoding="UTF-8"?> <!-- Generator: Adobe Illustrator 24.3.0, SVG Export Plug-In . SVG Version: 6.00 Build 0) --> <svg xmlns="http://www.w3.org/2000/svg" xmlns:xlink="http://www.w3.org/1999/xlink" version="1.1" id="Layer_1" x="0px" y="0px" viewBox="0 0 500 500" style="enable-background:new 0 0 500 500;" xml:space="preserve"> <path style="fill:#FFFFFF;" d="M360.5,139.4h-339v220.4h236.3l25.1-37.5h142.8l23.8,34.8l1.8,2.6h60.4l-6.6-9.7L360.5,139.4z M256.4,241.3v62.6l-1.8,1.3c-19.8,17.2-49.4,26-87.7,26c-66.6,0-106.7-30.4-106.7-81.1c0-26,11-47.2,31.3-61.7 c19-13.2,45-20.3,75.4-20.3c37,0,63,7.5,82.9,22.9l3.5,3.1l-3.1,3.5L237,213.9l-3.1,4l-3.5-3.1c-12.8-11-28.7-18.1-64.4-18.1 c-47.2,0-71,17.6-71,52.9c0,35.7,23.4,52.9,71,52.9c25.1,0,44.1-4.4,57.8-13.2v-23.4h-72.7v-29.5h105.8v4.8H256.4z M314.2,274.8 L353,217l39.7,57.8H314.2z"></path> </svg> 