<?xml version="1.0" encoding="UTF-8"?> <!-- Generator: Adobe Illustrator 24.3.0, SVG Export Plug-In . SVG Version: 6.00 Build 0) --> <svg xmlns="http://www.w3.org/2000/svg" xmlns:xlink="http://www.w3.org/1999/xlink" version="1.1" id="Layer_1" x="0px" y="0px" viewBox="0 0 500 500" style="enable-background:new 0 0 500 500;" xml:space="preserve"> <g> <path style="fill:#FFFFFF;" d="M198.8,205.2c3.3,0.7,5.9,0,8.5-2.6s4.6-5.2,5.2-9.8c0.7-3.9,0.7-7.9-1.3-11.1 c-1.3-3.3-3.9-5.2-6.5-5.9c-3.3-0.7-5.9,0-9.2,2.6c-2.6,2.6-4.6,5.2-5.9,9.8c-0.7,3.9-0.7,7.9,1.3,11.1 C193.5,202.6,195.5,204.6,198.8,205.2z"></path> <path style="fill:#FFFFFF;" d="M130,238c3.3,0.7,5.9,0,9.2-2.6c2.6-2.6,4.6-5.2,5.9-9.8c0.7-3.9,0.7-7.9-1.3-11.1 c-1.3-3.3-3.9-5.2-7.2-5.9c-3.3-0.7-5.9,0-8.5,2.6s-4.6,5.2-5.2,9.8c-0.7,3.9-0.7,7.9,1.3,11.1C124.8,235.3,126.7,237.3,130,238z"></path> <path style="fill:#FFFFFF;" d="M197.4,91.3c-16.4,5.2-32.1,13.1-45.2,22.3c26.8-9.2,56.3-6.5,79.2,9.8 c39.9,28.8,46.5,88.4,14.4,132.9c-32.7,45.2-91,58.3-131,29.5c-15.7-11.1-26.2-27.5-30.8-45.2c-0.7,18.3,1.3,36.7,7.2,55 c26.8,85.8,117.9,133.6,203.6,106.7c85.8-26.8,133.6-117.9,106.7-203.6C374.2,112.2,283.2,64.4,197.4,91.3z"></path> <path style="fill:#FFFFFF;" d="M114.9,279.9c36.7,26.2,90.4,15.1,119.8-26.2c29.5-40.6,23.6-95.6-13.1-121.8 c-26.2-19-60.9-18.3-89.7-1.3c-26.8,26.2-43.9,60.2-47.8,97.6C87.4,248.4,97.9,267.4,114.9,279.9z M187.6,162.7 c6.5-5.2,13.8-7.2,21.6-5.2c7.9,2,13.8,6.5,17.7,14.4c3.9,7.9,4.6,16.4,3.3,24.9c-0.7,3.3-2,6.5-3.3,9.8c-1.3,3.3-4.6,7.9-9.2,14.4 l-34,49.1l-12.4-11.8l23.6-33.4c-7.2-1.3-13.1-6.5-17-13.8c-3.9-7.9-4.6-16.4-2.6-26.2C176.5,175.7,180.4,167.9,187.6,162.7z M105.8,217.7c0.7-3.3,2-6.5,3.3-9.8c1.3-3.3,4.6-7.9,9.2-14.4l34-49.1l12.4,11.8l-23.6,34c7.2,1.3,13.1,6.5,17,13.8 c3.9,7.9,4.6,16.4,2.6,26.2c-2,9.2-6.5,16.4-13.1,22.3c-6.5,5.2-13.8,7.2-21.6,5.2c-7.9-2-13.8-6.5-17.7-14.4 C104.5,234.7,103.8,226.8,105.8,217.7z"></path> </g> </svg> 