<?xml version="1.0" encoding="UTF-8"?> <!-- Generator: Adobe Illustrator 24.3.0, SVG Export Plug-In . SVG Version: 6.00 Build 0) --> <svg xmlns="http://www.w3.org/2000/svg" xmlns:xlink="http://www.w3.org/1999/xlink" version="1.1" id="Layer_1" x="0px" y="0px" viewBox="0 0 500 500" style="enable-background:new 0 0 500 500;" xml:space="preserve"> <g> <path style="fill:#FFFFFF;" d="M373,433.4H153.9c-3.3,0-6.6-2-7.9-4.6c-1.3-3.3-0.7-6.6,1.3-9.2l41.6-50.2c1.3-2,4-3.3,6.6-3.3 h132.6c2.6,0,4.6,1.3,6.6,2.6l44.9,50.2c2,2.6,2.6,5.9,1.3,9.2C379.6,431.4,376.3,433.4,373,433.4z M172.4,416.2h181.5l-29.7-33 H199.5L172.4,416.2z"></path> <path style="fill:#FFFFFF;" d="M263.5,399.1c-14.5,0-29-2-42.9-5.9c-42.9-11.2-78.5-38.9-101-77.2c-21.8-38.3-27.7-83.2-16.5-126 c19.8-72.6,85.1-122.7,160.4-122.7c14.5,0,29,2,42.9,5.9c42.9,11.2,78.5,38.3,101,77.2c22.4,38.3,27.7,83.2,16.5,126 C404,348.3,338.7,399.1,263.5,399.1z M263.5,84.3c-67.3,0-126,45.5-143.9,110.2c-10.6,38.3-5.3,78.5,14.5,112.8 s52.1,59.4,90.4,69.3c12.5,3.3,25.7,5.3,38.9,5.3c67.3,0,126-45.5,143.9-110.2c10.6-38.3,5.3-78.5-14.5-112.8s-52.1-59.4-90.4-69.3 C289.2,85.6,276.7,84.3,263.5,84.3z"></path> <path style="fill:#FFFFFF;" d="M222.6,393.8c-0.7,0-1.3,0-2,0c-4.6-1.3-7.3-5.9-5.9-10.6l81.2-304.9c1.3-4.6,5.9-7.3,10.6-5.9 c4.6,1.3,7.3,5.9,5.9,10.6l-81.2,304.2C229.8,391.2,226.5,393.8,222.6,393.8z"></path> <path style="fill:#FFFFFF;" d="M304.4,393.8c-4,0-7.3-2.6-8.6-6.6L214.6,83c-1.3-4.6,1.3-9.2,5.9-10.6c4.6-1.3,9.2,1.3,10.6,5.9 l81.2,304.2c1.3,4.6-1.3,9.2-5.9,10.6C305.7,393.8,305,393.8,304.4,393.8z"></path> <path style="fill:#FFFFFF;" d="M375,352.9c-2,0-4.6-0.7-5.9-2.6L146,127.9c-3.3-3.3-3.3-8.6,0-11.9c3.3-3.3,8.6-3.3,11.9,0 l222.4,222.4c3.3,3.3,3.3,8.6,0,11.9C379,352.2,377,352.9,375,352.9z"></path> <path style="fill:#FFFFFF;" d="M415.2,282.3c-0.7,0-1.3,0-2,0L109,200.4c-4.6-1.3-7.3-5.9-5.9-10.6c1.3-4.6,5.9-7.3,10.6-5.9 l304.2,81.8c4.6,1.3,7.3,5.9,5.9,10.6C422.5,279.6,419.2,282.3,415.2,282.3z"></path> <path style="fill:#FFFFFF;" d="M111.7,282.3c-4,0-7.3-2.6-8.6-6.6c-1.3-4.6,1.3-9.2,5.9-10.6L413.3,184c4.6-1.3,9.2,1.3,10.6,5.9 c1.3,4.6-1.3,9.2-5.9,10.6l-304.2,81.8C113,282.3,112.3,282.3,111.7,282.3z"></path> <path style="fill:#FFFFFF;" d="M151.9,352.9c-2,0-4.6-0.7-5.9-2.6c-3.3-3.3-3.3-8.6,0-11.9l223.1-223.1c3.3-3.3,8.6-3.3,11.9,0 c3.3,3.3,3.3,8.6,0,11.9L157.9,350.3C156.6,352.2,154.6,352.9,151.9,352.9z"></path> <path style="fill:#FFFFFF;" d="M263.5,351.6c-10.6,0-20.5-1.3-31-4c-30.4-7.9-56.1-27.7-71.9-55.4s-19.8-59.4-11.9-90.4 C162.5,150.3,210,114,263.5,114c10.6,0,20.5,1.3,31,4c63.4,17.2,101,82.5,83.8,145.8C364.4,315.9,316.9,351.6,263.5,351.6z M263.5,131.2c-46.2,0-86.5,31-98.3,75.2c-7.3,26.4-3.3,53.5,9.9,77.2c13.9,23.8,35.6,40.3,62,47.5c8.6,2.6,17.8,3.3,26.4,3.3 c46.2,0,86.5-31,98.3-75.2c14.5-54.1-17.8-110.2-71.9-124.7C281.3,132.5,272,131.2,263.5,131.2z"></path> <path style="fill:#FFFFFF;" d="M386.9,467.1H140.1c-4.6,0-8.6-4-8.6-8.6v-33.7c0-4.6,4-8.6,8.6-8.6h246.8c4.6,0,8.6,4,8.6,8.6v33.7 C395.5,463.1,391.5,467.1,386.9,467.1z M148.6,449.9h229.7v-16.5H148.6V449.9z"></path> <polygon style="fill:#FFFFFF;" points="263.5,96.2 241.7,53.3 285.2,53.3 "></polygon> <path style="fill:#FFFFFF;" d="M263.5,104.8c-3.3,0-5.9-2-7.9-4.6l-21.8-42.9c-1.3-2.6-1.3-5.9,0.7-8.6c2-2.6,4.6-4,7.3-4h43.6 c3.3,0,5.9,1.3,7.3,4c1.3,2.6,2,5.9,0.7,8.6l-21.8,42.9C269.4,102.8,266.8,104.8,263.5,104.8z"></path> <path style="fill:#FFFFFF;" d="M263.5,218.9c-7.9,0-13.9,6.6-13.9,13.9c0,7.9,6.6,13.9,13.9,13.9c7.9,0,13.9-6.6,13.9-13.9 C277.3,224.9,271.4,218.9,263.5,218.9z M263.5,229.5c2,0,3.3,1.3,3.3,3.3c0,2-1.3,3.3-3.3,3.3s-3.3-1.3-3.3-3.3 C260.2,231.5,261.5,229.5,263.5,229.5z"></path> </g> </svg> 