<?xml version="1.0" encoding="UTF-8"?> <!-- Generator: Adobe Illustrator 24.1.2, SVG Export Plug-In . SVG Version: 6.00 Build 0) --> <svg xmlns="http://www.w3.org/2000/svg" xmlns:xlink="http://www.w3.org/1999/xlink" version="1.1" id="Layer_1" x="0px" y="0px" viewBox="0 0 100 100" style="enable-background:new 0 0 100 100;" xml:space="preserve"> <g> <path style="fill:#FFFFFF;" d="M41.2,63.5c-0.9-0.3-2,0.1-2.3,1.1c-0.3,0.9,0.1,2,1.1,2.3c0.9,0.3,2-0.1,2.3-1.1 C42.6,64.8,42.2,63.8,41.2,63.5L41.2,63.5z M41.2,63.5"></path> <path style="fill:#FFFFFF;" d="M84.2,24L55,13.3c-2.8-1-5.9,0.4-7,3.2l-3.9,10.6H17.4c-3,0-5.4,2.4-5.4,5.4v48.7 c0,3.2,2.6,5.8,5.8,5.8h31.2c3,0,5.4-2.4,5.4-5.4v-4.7l9.6,3.5c0.6,0.2,1.2,0.3,1.9,0.3c2.2,0,4.3-1.4,5.1-3.6l16.8-45.8 C88.8,28.4,87.3,25.1,84.2,24L84.2,24z M51.4,81.6c0,1.4-1.1,2.5-2.5,2.5H17.8c-1.6,0-2.9-1.3-2.9-2.9V32.5c0-1.4,1.1-2.5,2.5-2.5 h25.7l-7,19.1c-1.5-1.7-2.6-2.9-2.7-3c-0.3-0.3-0.7-0.5-1.1-0.5c-0.4,0-0.8,0.2-1.1,0.5c-2.7,2.9-9,9.9-9,12.6 c0,3.3,2.8,5.9,6.3,5.9c0.9,0,1.7-0.2,2.5-0.5c0,2.4,1.4,4.7,3.8,5.5l16.7,6.1L51.4,81.6L51.4,81.6z M32.1,60 c-0.4,0.1-0.7,0.2-0.9,0.5c-0.6,0.8-1.6,1.3-2.7,1.3c-1.8,0-3.3-1.3-3.3-3c0.1-1.2,3.6-5.6,7.2-9.5c0.7,0.7,1.6,1.8,2.6,2.9 c0,0,0,0,0.1,0L32.1,60z M85,30.4L68.2,76.2c-0.5,1.3-1.9,2-3.2,1.5L35.7,67c-1.5-0.5-2.3-2.2-1.7-3.7l16.8-45.7 c0.5-1.3,1.9-2,3.2-1.5l29.3,10.7C84.7,27.3,85.5,28.9,85,30.4L85,30.4z M85,30.4"></path> <path style="fill:#FFFFFF;" d="M66,72.5c-0.9-0.3-2,0.1-2.3,1.1c-0.3,0.9,0.1,2,1.1,2.3c0.9,0.3,2-0.1,2.3-1.1 C67.4,73.9,66.9,72.9,66,72.5L66,72.5z M66,72.5"></path> <path style="fill:#FFFFFF;" d="M47.2,81.7c0.9,0.3,2-0.1,2.3-1.1c0.3-0.9-0.1-2-1.1-2.3c-0.9-0.3-2,0.1-2.3,1.1 C45.8,80.4,46.2,81.4,47.2,81.7L47.2,81.7z M47.2,81.7"></path> <path style="fill:#FFFFFF;" d="M62.6,35.8c-0.4-0.1-0.8-0.1-1.2,0.1c-3.5,1.8-11.9,6.2-12.8,8.7c-0.6,1.5-0.4,3.1,0.3,4.6 c0.7,1.4,2,2.5,3.5,3.1c0.8,0.3,1.7,0.4,2.5,0.4l-1.3,3.7c-0.3,0.8,0.1,1.6,0.9,1.9c0.2,0.1,0.3,0.1,0.5,0.1c0.6,0,1.2-0.4,1.4-1 l1.3-3.5c0.6,0.5,1.2,0.9,2,1.2c0.7,0.3,1.5,0.4,2.3,0.4c0.8,0,1.7-0.2,2.4-0.5c1.5-0.6,2.7-1.8,3.2-3.3c0.9-2.6-2.6-11.3-4.2-15 C63.3,36.3,63,36,62.6,35.8L62.6,35.8z M64.8,50.6c-0.3,0.7-0.8,1.3-1.6,1.6c-0.8,0.3-1.7,0.3-2.6,0c-0.8-0.3-1.4-0.8-1.8-1.5 l0.1-0.2c0.3-0.8-0.1-1.6-0.9-1.9c-0.7-0.3-1.5,0.1-1.8,0.8c-0.8,0.4-1.8,0.5-2.8,0.2c-0.9-0.3-1.5-0.9-1.9-1.7 c-0.4-0.7-0.4-1.5-0.2-2.3c0.5-1.1,5.3-4,10-6.4C63.3,44.1,65.1,49.5,64.8,50.6L64.8,50.6z M64.8,50.6"></path> <path style="fill:#FFFFFF;" d="M25.1,39.5v-6.6c0-0.8-0.7-1.5-1.5-1.5c-0.8,0-1.5,0.7-1.5,1.5v6.6c0,0.4-0.3,0.7-0.7,0.7 c-0.4,0-0.7-0.3-0.7-0.7c0-0.8-0.7-1.5-1.5-1.5c-0.8,0-1.5,0.7-1.5,1.5c0,2,1.6,3.7,3.7,3.7C23.5,43.2,25.1,41.5,25.1,39.5 L25.1,39.5z M25.1,39.5"></path> <path style="fill:#FFFFFF;" d="M52.8,29.2l0.4-0.6l2.6,0.9V30c0,0.8,0.7,1.5,1.5,1.5c0.8,0,1.5-0.7,1.5-1.5v-8.8 c0-0.6-0.4-1.2-1-1.4c-0.6-0.2-1.2,0-1.6,0.5l-5.6,7c-0.5,0.6-0.4,1.6,0.2,2.1C51.4,29.9,52.3,29.8,52.8,29.2L52.8,29.2z M55.8,26.5l-0.7-0.2l0.7-0.8V26.5z M55.8,26.5"></path> </g> </svg> 