<?xml version="1.0" encoding="UTF-8"?> <!-- Generator: Adobe Illustrator 24.3.0, SVG Export Plug-In . SVG Version: 6.00 Build 0) --> <svg xmlns="http://www.w3.org/2000/svg" xmlns:xlink="http://www.w3.org/1999/xlink" version="1.1" id="Layer_1" x="0px" y="0px" viewBox="0 0 500 500" style="enable-background:new 0 0 500 500;" xml:space="preserve"> <path style="fill:#FFFFFF;" d="M118.3,66.4C244.1-0.3,406.1,70.6,418,240.2C185,258.8,157.2,154.2,118.3,66.4z"></path> <path style="fill:#FFFFFF;" d="M118.3,431.8c125.8,66.7,287.8-3.4,300.5-173.9C185,238.6,157.2,344,118.3,431.8z"></path> <path style="fill:#FFFFFF;" d="M374.9,119.6C314.1,41.1,205.3,18.3,118.3,67.2c34.6,78.5,60.8,170.5,233.8,175.5 C372.4,205.6,380.8,162.6,374.9,119.6L374.9,119.6z M160.5,344.9c5.1,0,10.1,0.8,15.2,0.8c67.5,0,130-33.8,168-89.5 C239,261.3,190.9,298.5,160.5,344.9L160.5,344.9z"></path> </svg> 