<?xml version="1.0" encoding="UTF-8"?> <!-- Generator: Adobe Illustrator 24.3.0, SVG Export Plug-In . SVG Version: 6.00 Build 0) --> <svg xmlns="http://www.w3.org/2000/svg" xmlns:xlink="http://www.w3.org/1999/xlink" version="1.1" id="Layer_1" x="0px" y="0px" viewBox="0 0 500 500" style="enable-background:new 0 0 500 500;" xml:space="preserve"> <path style="fill:#FFFFFF;" d="M244.4,62.1C141.1,62.1,58,146.1,58,248.5S142,434.9,244.4,434.9s186.4-83.2,186.4-186.4 S347.6,62.1,244.4,62.1z M308.3,410.2c-17.4,7.3-36.6,11-56.7,11.9c31.1-27.4,53-68.5,64-120.6c7.3-34.7,8.2-64,8.2-76.8 c14.6-1.8,30.2-0.9,47.5,2.7C374.1,244.8,377.8,316.1,308.3,410.2z M199.6,370c-14.6-6.4-79.5-37.5-126.1-146.2 c2.7-19.2,9.1-37.5,17.4-54.8c8.2,40.2,32.9,79.5,72.2,115.1c26.5,24.7,52.1,40.2,62.1,45.7C219.7,343.5,211.5,357.2,199.6,370z M251.7,252.1c7.3-5.5,29.2-19.2,59.4-24.7c0,30.2-6.4,141.6-80.4,194.6c-20.1-1.8-39.3-6.4-56.7-14.6 C254.4,359,253.5,272.2,251.7,252.1z M244.4,248.5L244.4,248.5L244.4,248.5L244.4,248.5z M243.5,241.2c-8.2-3.7-30.2-15.5-50.3-37.5 c26.5-14.6,126.1-64,208.3-27.4c8.2,17.4,12.8,35.6,15.5,54.8C334.8,185.4,259.9,230.2,243.5,241.2z M391.5,158 c-39.3-12.8-85.9-11-136.2,4.6c-33.8,10.1-59.4,24.7-70.4,30.2c-9.1-11.9-16.4-25.6-21.9-42c14.6-11,75.8-49.3,191-35.6 C368.7,126.9,381.4,141.6,391.5,158z M331.2,99.5c-96.9-6.4-152.6,23.8-172.7,37.5c-2.7-11-3.7-23.8-2.7-36.6 c25.6-15.5,55.7-24.7,88.6-24.7C276.4,75.8,305.6,84,331.2,99.5z M142.9,108.7c1.8,94.1,77.7,136.2,96,144.4 c0.9,9.1,1.8,35.6-8.2,64C206,303.3,111,242.1,101.8,150.7C112.8,135.2,126.5,120.5,142.9,108.7z M71.7,252.1 c42.9,85.9,96,117.9,117.9,127.9c-8.2,7.3-18.3,13.7-29.2,20.1C108.2,370,72.6,315.2,71.7,252.1z M333,397.4 c53-80.4,54.8-141.6,53-165.4c10.1,3.7,21,8.2,31.1,15.5c0,0.9,0,0.9,0,1.8C418,311.5,384.2,367.3,333,397.4z"></path> </svg> 