<?xml version="1.0" encoding="UTF-8"?> <!-- Generator: Adobe Illustrator 24.3.0, SVG Export Plug-In . SVG Version: 6.00 Build 0) --> <svg xmlns="http://www.w3.org/2000/svg" xmlns:xlink="http://www.w3.org/1999/xlink" version="1.1" id="Layer_1" x="0px" y="0px" viewBox="0 0 500 500" style="enable-background:new 0 0 500 500;" xml:space="preserve"> <path style="fill:#FFFFFF;" d="M243.6,30.8c-114.8,0-208.7,93.9-208.7,208.7c0,27.1,5.2,53.2,14.6,77.2l0,0c0,0,1,3.1,3.1,7.3 c20.9,45.9,57.4,83.5,103.3,104.3c0,0,0,0,1,0l0,0c26.1,12.5,55.3,18.8,86.6,18.8c114.8,0,208.7-93.9,208.7-208.7 C452.2,124.7,358.3,30.8,243.6,30.8z M356.3,330.2c-4.2-10.4-13.6-34.4-27.1-57.4c5.2-10.4,19.8-38.6,24-73 c14.6-4.2,36.5-9.4,44.9-11.5c6.3,6.3,20.9,26.1,26.1,57.4c-6.3,38.6-25,64.7-28.2,68.9C382.3,322.9,365.6,328.1,356.3,330.2z M150.7,365.7c-31.3-18.8-48-54.2-50.1-60.5c0-6.3,0-37.6,14.6-60.5c9.4-2.1,33.4-6.3,63.6-9.4c15.6,20.9,42.8,48,52.2,56.3 c-4.2,12.5-13.6,44.9-15.6,63.6C189.3,363.6,159.1,365.7,150.7,365.7z M408.4,175.8c-1-23-5.2-40.7-10.4-52.2 c23,30.3,37.6,67.8,38.6,108.5C429.3,199.8,413.6,182.1,408.4,175.8z M316.6,72.5c-3.1-4.2-8.3-11.5-17.7-18.8 c23,7.3,43.8,17.7,62.6,32.3C342.7,77.7,323.9,74.6,316.6,72.5z M287.4,138.3c25,19.8,45.9,49,51.1,57.4 c-3.1,32.3-17.7,61.6-21.9,69.9c-11.5,2.1-49,10.4-75.1,16.7c-9.4-9.4-36.5-35.5-51.1-55.3c2.1-10.4,10.4-45.9,23-72 C220.6,150.8,250.9,141.4,287.4,138.3z M256.1,46.5c27.1,10.4,41.7,27.1,46.9,34.4c-6.3,11.5-15.6,33.4-19.8,42.8 c-36.5,3.1-65.7,12.5-76.2,16.7c-7.3-6.3-27.1-21.9-49-31.3c3.1-10.4,12.5-34.4,33.4-55.3c15.6-4.2,33.4-6.3,50.1-6.3 C247.8,45.4,251.9,46.5,256.1,46.5z M164.3,63.1c-13.6,18.8-18.8,36.5-20.9,44.9c-9.4,5.2-36.5,20.9-55.3,50.1c-4.2-1-11.5-1-19.8-1 C89.2,115.3,122.6,81.9,164.3,63.1z M63.1,171.6c8.3,0,16.7,0,21.9,1c0,11.5,3.1,37.6,15.6,66.8C87.1,260.3,85,287.4,85,300 c-10.4,0-18.8,1-24,1c-6.3-19.8-10.4-40.7-10.4-61.6C50.6,215.5,54.8,192.5,63.1,171.6z M163.3,414.7c-3.1-2.1-6.3-3.1-8.3-5.2 c-2.1-10.4-1-21.9,0-29.2c12.5-1,40.7-3.1,65.7-10.4c8.3,6.3,31.3,21.9,60.5,27.1c0,7.3,0,19.8-2.1,32.3c-11.5,2.1-23,3.1-34.4,3.1 C215.4,432.5,188.3,426.2,163.3,414.7z M293.7,425.2c1-12.5,1-24,1-30.3c11.5-5.2,39.6-19.8,59.5-50.1c7.3-1,24-5.2,40.7-14.6 c1,6.3,2.1,16.7,0,26.1C370.9,390.7,335.4,414.7,293.7,425.2z"></path> </svg> 