<?xml version="1.0" encoding="UTF-8"?> <!-- Generator: Adobe Illustrator 25.4.1, SVG Export Plug-In . SVG Version: 6.00 Build 0) --> <svg xmlns="http://www.w3.org/2000/svg" xmlns:xlink="http://www.w3.org/1999/xlink" version="1.0" id="Layer_1" x="0px" y="0px" viewBox="0 0 111.9 140.7" style="enable-background:new 0 0 111.9 140.7;" xml:space="preserve"> <style type="text/css"> .st0{fill-rule:evenodd;clip-rule:evenodd;fill:#FFFFFF;} </style> <g> <path class="st0" d="M0,0.1h111.9v140.6H0V0.1z M27,119.3V25.6h27.7c9.7,0,17.2,2.2,22.6,6.4s8.1,10.7,8.1,19.2 c0.1,4.1-0.9,8.2-2.9,11.9c-2.1,3.5-5.2,6.2-8.9,7.8c4.5,0.9,8.5,3.6,11,7.5c2.4,4.1,3.7,8.8,3.5,13.6c0,9-2.6,15.8-7.7,20.4 s-12.5,6.9-22.1,6.9H27z M44.1,77.9v26.8H57c3.9,0,6.7-1.1,8.7-3.2c2-2.1,2.9-5.3,2.9-9.6c0-4.5-0.8-7.9-2.5-10.3S61.9,78,58.3,78 L44.1,77.9L44.1,77.9z M44.1,65.2h10.1c3.7-0.1,6.6-1.2,8.6-3.3c2-2.1,3-5.1,3-9c0-4.4-1-7.6-3.1-9.6s-5.2-3.1-9.3-3.1h-9.3V65.2z"></path> </g> </svg> 