<?xml version="1.0" encoding="UTF-8"?> <!-- Generator: Adobe Illustrator 24.1.2, SVG Export Plug-In . SVG Version: 6.00 Build 0) --> <svg xmlns="http://www.w3.org/2000/svg" xmlns:xlink="http://www.w3.org/1999/xlink" version="1.1" id="Layer_1" x="0px" y="0px" viewBox="0 0 100 64.3" style="enable-background:new 0 0 100 64.3;" xml:space="preserve"> <style type="text/css"> .st0{fill:#FFFFFF;} </style> <g> <path class="st0" d="M50.6,50.9c-0.2,0-0.5,0-0.7,0c-0.1,0-0.3,0-0.4-0.1c-0.7-0.1-1.3-0.3-1.9-0.6c-3.3-1.4-6.6-2.8-9.9-4.1 c-1.5-0.6-2.9-1.2-4.4-1.8c-0.1,0-0.2-0.1-0.3-0.1c-1.1,0.1-2.3,0.1-3.4,0.2c-1.1,0.1-2.2,0.1-3.2,0.2c-1.1,0.1-2.2,0.1-3.3,0.2 c-1.1,0.1-2.2,0.1-3.2,0.2c-1.1,0.1-2.2,0.1-3.3,0.2c-1.1,0.1-2.1,0.1-3.2,0.2c-1.1,0.1-2.2,0.1-3.3,0.2c-1,0.1-2,0.1-3,0.2 c-0.3,0-0.7,0-1,0.1c-0.5,0-1,0.1-1.5,0.1c-0.7,0-1.3-0.3-1.7-0.9C2.5,44.4,2.3,44,2,43.6c-0.1-0.1-0.1-0.3-0.1-0.4 c0-0.1-0.1-0.2-0.1-0.2c0-0.2,0-0.4,0-0.5c0-0.1,0.1-0.3,0.1-0.4c1.1-4.2,2.2-8.4,3.3-12.6c0.3-1.2,1.2-2,2.4-2.2 c0.1,0,0.3,0,0.4-0.1c0,0,0-0.1,0-0.1c-0.2-1.2-0.4-2.4-0.6-3.5c-0.2-0.8-0.2-1.7-0.1-2.5c0.2-0.9,0.6-1.7,1.2-2.4 c0.7-0.7,1.5-1,2.5-0.8c0.8,0.1,1.6,0.3,2.4,0.4c1.4,0.2,2.8,0.5,4.2,0.7c1.4,0.2,2.8,0.5,4.2,0.7c1.5,0.3,3,0.5,4.5,0.8 c1.4,0.2,2.8,0.5,4.3,0.7c1.5,0.3,3,0.5,4.5,0.8c1.7,0.3,3.3,0.6,5,0.9c1.8,0.3,3.5,0.6,5.3,0.9c1.8,0.3,3.6,0.6,5.4,0.9 c0.1,0,0.2,0,0.4,0c4.9-1.3,9.7-2.6,14.6-3.9c4.6-1.3,9.3-2.5,13.9-3.8c3.8-1,7.6-2.1,11.4-3.1c0.4-0.1,0.9-0.2,1.3-0.3 c0.2,0,0.4,0,0.6,0c0,0,0.1,0,0.1,0c0.7,0.1,1.3,0.5,1.7,1.1c0.3,0.5,0.5,1,0.7,1.6c0.4,0.9,0.3,1.9,0.1,2.9 c-0.2,0.8-0.4,1.6-0.6,2.4c-0.1,0.3-0.2,0.6-0.2,0.9c0.2,0,0.3,0,0.5,0c1,0,1.7,0.5,2.2,1.4c0,0.1,0.1,0.1,0.1,0.2 c0.5,0.7,0.5,1.4,0.4,2.2c-0.3,1.1-0.6,2.2-0.8,3.3c-0.6,2.5-1.3,4.9-1.9,7.4c-0.2,0.7-0.4,1.4-0.6,2.2c-0.3,1.1-1.4,2-2.6,2.1 c-0.9,0-1.8,0.1-2.7,0.1c-0.2,0-0.4,0-0.5,0.2c0,0-0.1,0.1-0.1,0.1c-0.4,0.4-1,0.7-1.5,0.9c-0.2,0.1-0.5,0.1-0.7,0.2 c0,0.1,0,0.3,0,0.4c0,0.1,0.1,0.2,0.2,0.1c0.2,0,0.3-0.1,0.4-0.1c0.3-0.1,0.5-0.3,0.7-0.5c0.1-0.1,0.2-0.2,0.3-0.2 c0.1,0.3,0.3,0.7,0.4,1c-0.2,0.2-0.3,0.3-0.5,0.5c-0.6,0.5-1.4,0.8-2.2,0.8c-0.6-0.1-1-0.4-1.1-0.9c-0.1-0.2-0.1-0.5-0.1-0.7 c0-0.5,0.2-0.9,0.4-1.3c0,0,0-0.1,0.1-0.1c-0.1-0.1-0.2,0-0.2,0.1c-0.2,0.2-0.3,0.5-0.5,0.7c-0.7,0.8-1.4,1.6-2.1,2.4 c0,0-0.1,0.1-0.2,0.1c-0.3,0-0.6,0-0.9,0.1c0,0-0.1,0-0.1,0c0-1.1,0-2.1,0.1-3.2c-0.3,0-0.6,0-0.9,0c-0.2,0.6-0.4,1.1-0.6,1.7 c0.1,0,0.1-0.1,0.2-0.1c0.1,0.3,0.1,0.5,0.2,0.7c0,0.1,0,0.2-0.1,0.3c-0.3,0.3-0.6,0.5-1,0.7c-0.3,0.1-0.5,0.1-0.8,0 c-0.3-0.1-0.5-0.3-0.5-0.7c0-0.1,0-0.2,0.1-0.3c0.2-0.7,0.5-1.3,0.7-2c0-0.1,0-0.1,0-0.2c-0.3,0-0.6,0-0.9,0.1 c-0.6,1.3-1.1,2.6-1.7,3.9c0,0,0.1,0,0.1,0c0.4-0.1,0.7-0.1,1.1-0.2c0.9-0.1,1.8-0.1,2.7,0.1c0.4,0.1,0.9,0.3,1.3,0.5 c0.2,0.1,0.3,0.3,0.4,0.5c0.1,0.3-0.1,0.6-0.5,0.6c-0.2,0-0.3,0-0.5-0.1c-0.6-0.1-1.1-0.2-1.7-0.2c-1.2-0.1-2.3,0.1-3.5,0.4 c-0.1,0-0.2,0.1-0.3,0.2c-0.3,0.4-0.7,0.8-1.2,1c-0.3,0.2-0.7,0.3-1,0.2c-0.5,0-0.8-0.3-0.7-0.8c0-0.1,0.1-0.3,0.1-0.4 c0.1-0.2,0.2-0.4,0.4-0.5c0.4-0.4,0.8-0.6,1.3-0.8c0.1,0,0.2-0.1,0.2-0.2c0.6-1.3,1.1-2.6,1.6-3.9c0-0.1,0-0.1,0.1-0.2 c-0.4,0-0.7,0-1.1,0.1c0.1,0.7,0,1.3-0.3,1.9c-0.3,0.6-0.7,1.1-1.4,1.4c-0.9,0.5-1.8,0.4-2.8-0.1c0-0.1,0-0.1,0.1-0.2 c0.1-0.3,0.2-0.6,0.4-0.8c0.4-0.8,1-1.4,1.9-1.7c0,0,0.1,0,0.2-0.1c-0.4-0.1-0.7-0.2-1-0.3c-0.1,0-0.2,0-0.2,0c-0.2,0-0.4,0-0.6,0 c-0.7,0-1.4,0.1-2.1,0.1c-0.2,0-0.5,0.1-0.7,0.2c-1.2,0.6-2.5,1.3-3.7,1.9c-2.3,1.2-4.7,2.4-7,3.5c-1.3,0.7-2.7,1.4-4,2 c-0.7,0.4-1.5,0.7-2.3,0.9C51,50.8,50.8,50.8,50.6,50.9z M76.1,35.3c0.1,0,0.3,0,0.4,0c0.4,0,0.8,0,1.2-0.1c0.2,0,0.3,0,0.5-0.1 c0.2-0.1,0.5-0.2,0.7,0c0.1,0.1,0.2,0.1,0.4,0.1c0.1,0,0.1,0,0.2,0c0.3,0,0.5-0.2,0.5-0.5c-0.4-0.1-0.8-0.2-1.2-0.3 c-0.5-0.1-0.9-0.4-1.1-0.9c-0.1-0.3-0.3-0.5-0.4-0.8c-0.1-0.2-0.2-0.5-0.2-0.7c0-0.6,0.2-1.1,0.3-1.6c0,0,0-0.1,0-0.1 c0.4-0.6,0.9-0.9,1.6-1c0.3,0,0.6,0,0.9,0c0.6,0,1.2-0.1,1.7-0.1c0.5,0,0.9,0,1.4-0.1c0.1,0.2,0.2,0.5,0.4,0.7 c0.1,0.1,0.1,0.2,0,0.3c-0.1,0.4-0.2,0.7-0.3,1.1c0,0.1-0.1,0.3-0.1,0.4c0,0,0,0-0.1,0c-1,0.1-2.1,0.1-3.1,0.2 c-0.1,0-0.3,0-0.4,0.1c0.1,0,0.1,0,0.2,0.1c0.3,0.1,0.7,0.2,1,0.3c0.5,0.1,0.8,0.4,1,0.9c0.1,0.3,0.3,0.5,0.4,0.8 c0.1,0.3,0.2,0.6,0.1,0.9c-0.1,0.5-0.2,0.9-0.4,1.4c-0.1,0.4-0.3,0.7-0.6,1c-0.3,0.3-0.6,0.4-1,0.5c-0.3,0-0.5,0-0.8,0.1 c-0.2,0-0.4,0-0.6,0c-0.1,0.2-0.2,0.5-0.2,0.7c0,0.3-0.2,0.5-0.3,0.8c-0.1,0.2-0.1,0.4-0.2,0.7c0.1,0,0.1,0,0.1,0 c0.3,0,0.6,0,0.9,0c0,0,0.1,0,0.1,0c0.1-0.1,0.3-0.1,0.5-0.2c0,0,0,0,0-0.1c-0.2-0.2-0.3-0.4-0.2-0.7c0-0.2,0.2-0.4,0.3-0.6 c0.2-0.2,0.4-0.4,0.6-0.4c0.5,0,0.7,0.3,0.8,0.7c0,0.5-0.3,0.9-0.7,1.1c-0.1,0-0.1,0-0.2,0.1c0.1,0.1,0.1,0.1,0.2,0.1 c0.1,0,0.3,0,0.4,0c0.3,0,0.5,0,0.8-0.1c0.3-0.1,0.5-0.1,0.8,0c0,0,0.1,0,0.1,0c0.3,0,0.5,0,0.8,0c0.2,0,0.4,0,0.6-0.2 c0.3-0.2,0.7-0.2,1,0c0,0,0.1,0,0.2,0c0.4,0,0.7,0,1.1,0c0.4,0,0.8,0,1.1-0.2c0.4-0.1,0.8-0.2,1.2,0c0.2,0.1,0.3,0.1,0.5,0.1 c0.3,0,0.6,0,0.9,0c0.5,0,0.9-0.1,1.4-0.1c0.9,0,1.6-0.6,1.8-1.4c0.1-0.5,0.3-1.1,0.4-1.6c1-3.6,1.9-7.3,2.9-10.9 c0-0.2,0.1-0.4,0.1-0.6c0-0.8-0.6-1.3-1.4-1.3c-0.5,0-1,0.1-1.5,0.1c-0.4,0-0.9,0-1.3,0.1c-0.5,0-1,0.1-1.4,0.1 c-0.5,0-1,0.1-1.5,0.1c-0.5,0-1,0.1-1.5,0.1c-0.3,0-0.7,0-1,0.1c-0.5,0-1,0.1-1.4,0.1c-0.3,0-0.7,0-1,0.1c-0.5,0-1,0.1-1.4,0.1 c-0.3,0-0.7,0-1,0.1c-0.5,0-1,0.1-1.5,0.1c-0.3,0-0.7,0-1,0.1c-0.5,0-0.9,0.1-1.4,0.1c-0.3,0-0.7,0-1,0.1c-0.5,0-0.9,0-1.4,0.1 c-0.4,0-0.7,0-1.1,0.1c-0.5,0-1,0.1-1.4,0.1c-0.4,0-0.9,0-1.3,0.1c-0.7,0-1.4,0.1-2.2,0.1c-0.9,0.1-1.8,0.1-2.7,0.1 c-0.7,0-1.4,0.1-2.2,0.1c-0.6,0-1.3,0.1-1.9,0.1c-0.7,0-1.4,0.1-2.2,0.1c-0.6,0-1.3,0.1-1.9,0.1c-0.8,0-1.6,0.1-2.3,0.1 c-0.6,0-1.2,0.1-1.9,0.1c-0.7,0-1.5,0.1-2.2,0.1c-0.6,0-1.2,0.1-1.8,0.1c-0.7,0-1.4,0.1-2.1,0.1c-1,0-1.9,0.1-2.9,0.1 c-0.7,0-1.5,0.1-2.2,0.1c-0.6,0-1.2,0.1-1.7,0.1c-0.7,0-1.4,0.1-2.1,0.1c-0.6,0-1.3,0.1-1.9,0.1c-1,0.1-2,0.1-3,0.2 c-1.3,0.1-2.6,0.1-3.8,0.2c-0.6,0-1.3,0.1-1.9,0.1c-0.6,0-1.1,0.1-1.7,0.1c-0.4,0-0.8,0-1.3,0.1c-0.5,0-1,0.1-1.4,0.1 c-0.5,0-1,0-1.5,0.1c-0.5,0-1,0.1-1.5,0.1c-0.4,0-0.9,0-1.3,0.1c-0.5,0-1,0.1-1.4,0.1c-0.5,0-1,0-1.5,0.1c-0.5,0-1,0.1-1.5,0.1 c-0.5,0-0.9,0-1.4,0.1c-0.5,0-1,0.1-1.4,0.1c-0.5,0-1,0.1-1.5,0.1c-0.5,0-1,0.1-1.4,0.1c-0.3,0-0.7,0-1,0.1c-0.5,0-0.9,0.1-1.4,0.1 c-0.9,0-1.6,0.6-1.9,1.4c-0.6,2.3-1.2,4.6-1.8,6.8c-0.4,1.7-0.9,3.4-1.3,5c-0.1,0.3-0.2,0.6-0.2,1c-0.1,0.8,0.3,1.5,1.2,1.6 c0.2,0,0.5,0,0.7,0c0.5,0,1-0.1,1.5-0.1c0.3,0,0.7,0,1-0.1c0.5,0,0.9-0.1,1.4-0.1c0.5,0,0.9,0,1.4-0.1c0.6,0,1.3-0.1,1.9-0.1 c0.3,0,0.6,0,1-0.1c0.5,0,1-0.1,1.5-0.1c0.3,0,0.7,0,1-0.1c0.5,0,1-0.1,1.4-0.1c0.5,0,0.9,0,1.4-0.1c0.6,0,1.2-0.1,1.9-0.1 c0.3,0,0.7,0,1-0.1c0.5,0,0.9,0,1.4-0.1c0.3,0,0.7,0,1-0.1c0.5,0,1-0.1,1.4-0.1c0.3,0,0.7,0,1-0.1c0.5,0,1-0.1,1.5-0.1 c0.3,0,0.7,0,1-0.1c0.5,0,0.9-0.1,1.4-0.1c0.5,0,0.9,0,1.4-0.1c0.6,0,1.3-0.1,1.9-0.1c0.3,0,0.6,0,1-0.1c0.5,0,1-0.1,1.5-0.1 c0.5,0,0.9,0,1.4-0.1c0.6,0,1.3-0.1,1.9-0.1c0.3,0,0.6,0,1-0.1c0.5,0,1-0.1,1.5-0.1c0.3,0,0.7,0,1-0.1c0.5,0,1-0.1,1.4-0.1 c0.5,0,0.9,0,1.4-0.1c0.6,0,1.3-0.1,1.9-0.1c0.3,0,0.7,0,1-0.1c0.5,0,1-0.1,1.4-0.1c0.3,0,0.7,0,1-0.1c0.5,0,1-0.1,1.4-0.1 c0.5,0,0.9,0,1.4-0.1c0.6,0,1.2-0.1,1.9-0.1c0.6,0,1.3-0.1,1.9-0.1c0.5,0,1,0,1.4-0.1c0.3,0,0.7,0,1-0.1c0.5,0,0.9-0.1,1.4-0.1 c0.5,0,0.9,0,1.4-0.1c0.6,0,1.2-0.1,1.9-0.1c0.6,0,1.2-0.1,1.8-0.1c0.7,0,1.5-0.1,2.2-0.1c0.6,0,1.2-0.1,1.8-0.1c0.2,0,0.3,0,0.5,0 c0-0.1-0.1-0.2-0.1-0.3c0.1-0.1,0.2-0.1,0.3-0.2c1.1-0.6,2.3-0.6,3.2,0.2c0.1,0.1,0.2,0.1,0.2,0.1c0.5,0,1-0.1,1.5-0.1 c0.3,0,0.5,0,0.8-0.1c0.2-0.7,0.5-1.5,0.6-2.2c-0.3,0-0.6,0-0.9,0.1c-0.1-0.2-0.3-0.4-0.4-0.6c-0.1-0.1-0.1-0.3-0.1-0.4 C75.8,36.4,76,35.8,76.1,35.3z M41.4,25.3C41.4,25.2,41.4,25.2,41.4,25.3c-0.5-0.1-0.9-0.1-1.4-0.1c-0.9-0.1-1.8-0.1-2.7-0.2 c-0.9-0.1-1.7-0.1-2.6-0.2c-1.1-0.1-2.1-0.2-3.2-0.3c-0.9-0.1-1.9-0.1-2.8-0.2c-0.6-0.1-1.3-0.1-1.9-0.2C26,24,25.1,24,24.3,23.9 c-0.7-0.1-1.3-0.1-2-0.2c-0.9-0.1-1.7-0.1-2.6-0.2c-0.7-0.1-1.3-0.1-2-0.2c-0.8-0.1-1.7-0.1-2.5-0.2c-0.7-0.1-1.3-0.1-2-0.2 c-0.3,0-0.7,0-1,0c-1,0.2-1.6,0.7-1.7,1.8c-0.1,0.5,0,1,0,1.5c0,0.2,0.1,0.4,0.1,0.6c0.1,0,0.1,0,0.1,0c0.6,0,1.1-0.1,1.7-0.1 c1-0.1,1.9-0.1,2.9-0.2c0.7,0,1.4-0.1,2-0.1c0.9-0.1,1.9-0.1,2.8-0.2c0.7,0,1.4-0.1,2.1-0.1c1.2-0.1,2.5-0.1,3.7-0.2 c0.7,0,1.4-0.1,2-0.1c1.2-0.1,2.4-0.1,3.6-0.2c1-0.1,1.9-0.1,2.9-0.2c1.2-0.1,2.4-0.1,3.6-0.2c1-0.1,1.9-0.1,2.9-0.2 C41.1,25.3,41.3,25.3,41.4,25.3z M61.3,24.2C61.3,24.2,61.3,24.2,61.3,24.2c0,0,0.1,0,0.1,0c0.4,0,0.7,0,1.1-0.1 c1.1-0.1,2.2-0.1,3.3-0.2c1-0.1,1.9-0.1,2.9-0.2c1-0.1,1.9-0.1,2.9-0.2c0.7,0,1.3-0.1,2-0.1c1-0.1,2-0.1,2.9-0.2 c0.6,0,1.3-0.1,1.9-0.1c1.2-0.1,2.4-0.1,3.6-0.2c0.8,0,1.5-0.1,2.3-0.1c1.1-0.1,2.3-0.1,3.4-0.2c1-0.1,1.9-0.1,2.9-0.1 c0.3,0,0.5,0,0.8,0c0.2,0,0.2,0,0.2-0.2c0-0.2,0.1-0.4,0.1-0.6c0.1-0.5,0.1-1,0.1-1.5c-0.1-0.6-0.3-1-0.8-1.2 c-0.4-0.2-0.8-0.2-1.3-0.1c-1.6,0.3-3.1,0.6-4.7,0.8c-1.6,0.3-3.2,0.6-4.8,0.9c-1.5,0.3-3,0.5-4.5,0.8c-1.7,0.3-3.4,0.6-5.1,0.9 c-1.4,0.3-2.9,0.5-4.3,0.8c-1.4,0.3-2.9,0.5-4.3,0.8C62,24,61.6,24.1,61.3,24.2z M41.3,43.7C41.3,43.7,41.3,43.8,41.3,43.7 c0.1,0.1,0.2,0.1,0.2,0.2c1.7,0.9,3.4,1.8,5.1,2.7c0.8,0.4,1.6,0.9,2.4,1.3c0.3,0.2,0.7,0.2,1.1,0.2c0.4,0,0.8-0.2,1.1-0.4 c0.3-0.2,0.6-0.3,0.8-0.5c2.4-1.5,4.8-2.9,7.2-4.4c0,0,0.1-0.1,0.1-0.1c0,0,0,0-0.1,0c-0.4,0-0.9,0-1.3,0.1c-0.5,0-1,0.1-1.4,0.1 c-0.5,0-0.9,0-1.4,0.1c-0.5,0-1,0.1-1.5,0.1c-0.5,0-0.9,0-1.4,0.1c-0.6,0-1.2,0.1-1.9,0.1c-0.5,0-0.9,0-1.4,0.1 c-0.5,0-1,0.1-1.4,0.1c-0.5,0-0.9,0-1.4,0.1c-0.5,0-1,0.1-1.5,0.1c-0.5,0-0.9,0-1.4,0.1c-0.5,0-1,0.1-1.5,0.1 C41.7,43.7,41.5,43.7,41.3,43.7z M79,35.9c0-0.1,0-0.2,0-0.3c0-0.2-0.1-0.4-0.3-0.5c-0.2-0.1-0.4,0-0.5,0.1 c-0.3,0.3-0.4,0.6-0.5,0.9c-0.1,0.5-0.2,0.9-0.3,1.4c-0.2,0.9-0.5,1.9-0.8,2.8c-0.3,0.8-0.6,1.7-0.9,2.5c-0.4,1.1-0.8,2.1-1.3,3.2 c-0.1,0.1-0.1,0.2-0.2,0.2c-0.2,0.1-0.5,0.2-0.7,0.3c-0.5,0.2-0.8,0.6-1,1c-0.1,0.3,0,0.6,0.3,0.7c0.3,0.1,0.6,0,0.8-0.1 c0.5-0.2,1-0.6,1.3-1.1c0.1-0.1,0.2-0.2,0.3-0.2c0.5-0.2,1-0.2,1.5-0.3c0.4-0.1,0.8-0.1,1.1-0.1c0.4,0,0.9,0,1.3,0 c0.4,0.1,0.8,0.1,1.2,0.2c0.2,0.1,0.5,0.1,0.7,0.1c0.2,0,0.3-0.1,0.2-0.3c-0.1-0.1-0.1-0.2-0.2-0.3c-0.3-0.2-0.7-0.4-1-0.5 c-0.3-0.1-0.6-0.1-0.8-0.1c-0.4,0-0.9-0.1-1.3,0c-0.5,0-1,0.2-1.5,0.2c-0.2,0-0.3,0.1-0.5,0.1c-0.2,0-0.2-0.1-0.2-0.2 c0-0.1,0.1-0.2,0.1-0.3c0.4-1,0.9-2.1,1.3-3.1c0.4-0.9,0.7-1.9,1.1-2.8c0.3-0.8,0.6-1.6,0.8-2.5C78.9,36.6,79,36.3,79,35.9z M88,42.6c-0.1,0.1-0.2,0.1-0.3,0.2c-0.2,0.1-0.4,0.3-0.6,0.4c-0.2,0.1-0.4,0.2-0.6,0.1c-0.2,0-0.4-0.1-0.4-0.4c0-0.2,0-0.4,0-0.6 c0-0.1,0.1-0.2,0.2-0.2c0.5-0.1,1.1-0.3,1.5-0.5c0.4-0.2,0.7-0.5,0.9-0.9c0.2-0.3,0.2-0.6,0.2-0.9c0-0.3-0.3-0.5-0.7-0.5 c-0.7,0-1.2,0.2-1.8,0.5c-0.5,0.4-0.9,0.8-1.2,1.4c-0.3,0.5-0.4,1-0.4,1.6c0,0.6,0.6,1.1,1.1,1.1c0.8,0,1.5-0.3,2-0.9 c0.1-0.1,0.1-0.2,0.1-0.3C88.1,42.8,88.1,42.7,88,42.6z M81.4,43.5C81.4,43.5,81.4,43.5,81.4,43.5c0,0.2,0,0.4,0,0.6 c0,0.2,0.1,0.2,0.2,0.2c0.1,0,0.3,0,0.4,0c0.1,0,0.1-0.1,0.2-0.1c0.2-0.2,0.3-0.4,0.5-0.5c0.4-0.5,0.8-1,1.3-1.4 c0.4-0.5,0.7-0.9,1-1.5C85,40.5,85,40.3,85,40c0-0.3-0.2-0.5-0.5-0.5c-0.2,0-0.3,0-0.5,0.2c-0.2,0.2-0.3,0.4-0.2,0.6 c0,0.4-0.1,0.8-0.3,1.1c-0.2,0.5-0.6,0.9-0.9,1.4c0,0-0.1,0.1-0.1,0.1c0,0-0.1,0-0.1,0c0,0-0.1-0.1-0.1-0.1c0-0.4,0-0.8,0.1-1.2 c0-0.4,0.1-0.9,0.1-1.3c0-0.1,0-0.1,0-0.2c0-0.1-0.1-0.3-0.3-0.3c-0.2,0-0.5,0-0.7,0.1c-0.1,0.1-0.2,0.1-0.2,0.3c0,0.4,0,0.8,0,1.2 C81.4,42.1,81.4,42.8,81.4,43.5z M74.6,42c0-0.3-0.1-0.6-0.2-0.9c-0.2-0.6-0.6-1-1.2-1.3c-0.8-0.3-1.5-0.3-2.3,0.1 c-0.1,0.1-0.2,0.1-0.1,0.3c0.1,0.3,0.3,0.6,0.5,0.9c0.1,0.2,0.3,0.4,0.5,0.5c0.3,0.2,0.6,0.3,1,0.4C73.3,42.2,73.9,42.1,74.6,42z M71.8,45.2c0.3,0,0.6,0,0.8-0.1c0.8-0.3,1.3-0.8,1.7-1.5c0.1-0.2,0.2-0.5,0.2-0.8c0-0.3-0.1-0.3-0.3-0.3c-0.5,0-1,0.1-1.5,0.2 c-0.7,0.2-1.2,0.6-1.6,1.2c-0.2,0.3-0.3,0.6-0.4,0.9c-0.1,0.1,0,0.1,0.1,0.2C71.2,45.1,71.5,45.2,71.8,45.2z M79.2,43.8 c0-0.1,0-0.2,0-0.2c0.4-1,0.7-2.1,1.1-3.1c0.1-0.3-0.1-0.5-0.4-0.6c-0.3,0-0.6,0.1-0.7,0.5c-0.1,0.3-0.2,0.7-0.3,1 c-0.3,0.8-0.6,1.7-0.9,2.5c0,0.1,0,0.2-0.1,0.3c0,0.2,0.1,0.3,0.3,0.4c0.2,0,0.4,0,0.6,0c0.3-0.1,0.6-0.2,0.8-0.4 c0.2-0.1,0.2-0.2,0-0.4C79.5,43.6,79.4,43.8,79.2,43.8z M79.8,38.8C79.8,38.9,79.8,38.9,79.8,38.8c0,0.4,0.3,0.6,0.6,0.5 c0.4-0.2,0.6-0.5,0.5-0.9c0-0.2-0.3-0.4-0.5-0.3C80.1,38.1,79.8,38.5,79.8,38.8z M82.9,42.3C82.9,42.3,82.9,42.3,82.9,42.3 c0.2-0.2,0.4-0.5,0.5-0.8c-0.2,0-0.3,0-0.5,0C82.9,41.8,82.9,42,82.9,42.3z"></path> <path class="st0" d="M34.9,34.2c-0.7,0-1.4,0.1-2.1,0.1c-0.5,2-1,4-1.5,6c-0.6,0-1.2,0.1-1.8,0.1c0-0.1-0.1-0.1-0.1-0.2 c-0.1-0.1-0.1-0.3-0.2-0.4c-0.2-0.3-0.2-0.5-0.1-0.9c0.8-2.9,1.5-5.8,2.2-8.7c0.1-0.5,0.3-1,0.4-1.6c0-0.1,0-0.1,0.1-0.2 c0.6,0,1.2-0.1,1.8-0.1c0.1,0.3,0.3,0.5,0.4,0.8c0,0.1,0,0.2,0,0.2c-0.2,0.6-0.3,1.3-0.5,1.9c0,0,0,0.1,0,0.2c0.3,0,0.6,0,0.8-0.1 c0.3,0,0.5,0,0.8,0c0.8,0,1.3,0.3,1.7,1c0.1,0.2,0.2,0.5,0.3,0.7c0.2,0.4,0.2,0.8,0.1,1.2c-0.3,1.3-0.7,2.6-1,3.8 c-0.1,0.5-0.3,1-0.4,1.5c0,0.1,0,0.1-0.1,0.2c-0.6,0-1.2,0.1-1.8,0.1c-0.1-0.3-0.3-0.6-0.4-0.9c0,0,0-0.1,0-0.1 c0.4-1.5,0.8-3,1.2-4.5C34.8,34.5,34.8,34.3,34.9,34.2z"></path> <path class="st0" d="M89.9,37.1c-0.4,0-0.8,0-1.2,0.1c-0.1,0-0.3,0-0.4,0c-0.2,0-0.2,0-0.3-0.2c-0.1-0.2-0.3-0.4-0.3-0.7 c0,0-0.1,0-0.1-0.1c0.4-1.7,0.9-3.3,1.3-5c-0.7,0-1.4,0.1-2.1,0.1c-0.5,2-1,4-1.5,6c-0.1,0-0.1,0-0.2,0c-0.5,0-1,0.1-1.5,0.1 c-0.1,0-0.2,0-0.2-0.1c-0.1-0.2-0.2-0.4-0.3-0.6c0,0-0.1-0.1-0.1-0.1C84,33,85,29.4,85.9,25.7c0.6,0,1.2-0.1,1.8-0.1 c0.1,0.2,0.2,0.5,0.3,0.7c0.1,0.2,0.1,0.3,0,0.5c-0.2,0.6-0.3,1.1-0.4,1.7c0,0.1,0,0.2-0.1,0.3c0.1,0,0.1,0,0.2,0 c0.5,0,1-0.1,1.6-0.1c0.7,0,1.2,0.3,1.5,0.9c0.1,0.3,0.3,0.5,0.4,0.8c0.2,0.4,0.2,0.8,0.1,1.2c-0.4,1.4-0.7,2.8-1.1,4.2 c-0.1,0.4-0.2,0.8-0.3,1.2C89.9,37,89.9,37.1,89.9,37.1z"></path> <path class="st0" d="M14.3,41.3c-0.1-0.3-0.3-0.6-0.4-0.9c0,0,0-0.1,0-0.1c0.2-0.9,0.4-1.7,0.7-2.6c0.2-0.6,0.6-1,1.2-1.2 c1.1-0.4,2.2-0.8,3.3-1.2c0.1,0,0.1-0.1,0.2-0.1c-0.1,0-0.1,0-0.2,0c-0.8,0-1.6,0.1-2.3,0.1c-0.1,0-0.2,0-0.3,0.2 c-0.1-0.1-0.1-0.1-0.2-0.2c-0.1-0.3-0.3-0.5-0.4-0.8c0,0,0-0.1,0-0.2c0.1-0.5,0.3-1.1,0.4-1.6c0.1,0,0.2,0,0.3,0 c0.7,0,1.4-0.1,2-0.1c0.4,0,0.9-0.1,1.3-0.1c0.8-0.1,1.4,0.3,1.7,1.1c0.1,0.2,0.1,0.3,0.2,0.5c0.3,0.5,0.3,1,0.2,1.5 c-0.4,1.5-0.8,3-1.2,4.6c-0.1,0.2-0.1,0.4-0.2,0.7c0,0.2,0,0.2-0.2,0.2c-0.6,0-1.1,0.1-1.7,0.1c-0.7,0-1.5,0.1-2.2,0.1 c-0.7,0-1.4,0.1-2.1,0.1C14.4,41.3,14.3,41.3,14.3,41.3z M19.1,37c-0.1,0-0.2,0.1-0.3,0.1c-0.8,0.3-1.6,0.6-2.4,0.9 c-0.3,0.1-0.4,0.3-0.3,0.6c0.9-0.1,1.8-0.1,2.7-0.2C18.9,37.9,19,37.5,19.1,37z"></path> <path class="st0" d="M70.3,32.3c-0.2-0.3-0.3-0.6-0.4-0.8c0,0,0-0.1,0-0.1c0.1-0.6,0.3-1.1,0.4-1.7c0.4,0,0.8,0,1.2-0.1 c0.6,0,1.2-0.1,1.8-0.1c0.3,0,0.6,0,0.9,0c0.6,0,1,0.3,1.3,0.9c0.1,0.3,0.3,0.6,0.4,0.9c0.2,0.4,0.2,0.8,0.1,1.2 c-0.4,1.5-0.8,3-1.2,4.6c-0.1,0.3-0.1,0.6-0.2,1c-2.1,0.1-4.2,0.2-6.3,0.4c-0.1-0.2-0.2-0.4-0.3-0.6c-0.1-0.2-0.1-0.4-0.1-0.6 c0.2-0.7,0.4-1.5,0.6-2.2c0.2-0.7,0.6-1.2,1.3-1.4c1.1-0.4,2.1-0.8,3.2-1.1c0.1,0,0.2-0.1,0.3-0.1c0,0,0,0,0,0 C72.2,32.2,71.3,32.3,70.3,32.3z M73.2,34.1c-0.1,0-0.1,0-0.1,0c-0.8,0.3-1.7,0.6-2.5,0.9c-0.3,0.1-0.3,0.2-0.4,0.6 c0.9-0.1,1.8-0.1,2.7-0.2C72.9,35,73,34.5,73.2,34.1z"></path> <path class="st0" d="M15.2,29.5c0.1,0.3,0.3,0.5,0.4,0.8c0,0.1,0.1,0.2,0,0.2c-0.1,0.5-0.3,1-0.4,1.6c0,0,0,0,0,0.1 c-0.3,0-0.7,0-1,0.1c-0.8,0-1.6,0.1-2.3,0.1c-0.3,0-0.4,0.1-0.5,0.4c-0.5,2-1,3.9-1.5,5.9c0,0.1,0,0.1-0.1,0.2c1-0.1,2-0.1,3.1-0.2 c0.1,0.3,0.3,0.5,0.4,0.8c0,0.1,0,0.1,0,0.2c-0.1,0.5-0.3,1.1-0.4,1.6c-0.3,0-0.5,0-0.8,0.1c-0.8,0-1.7,0.1-2.5,0.1 c-0.5,0-1-0.1-1.3-0.5c-0.1-0.1-0.2-0.3-0.3-0.5c-0.1-0.3-0.3-0.5-0.4-0.8c-0.2-0.4-0.2-0.7-0.1-1.1c0.3-1.4,0.7-2.7,1-4.1 c0.3-1.1,0.6-2.3,0.9-3.4c0.2-0.8,1-1.4,1.8-1.4c0.7,0,1.4-0.1,2.1-0.1c0.4,0,0.8,0,1.3-0.1C14.6,29.5,14.9,29.5,15.2,29.5z"></path> <path class="st0" d="M59.2,38.8c-0.3,0-0.6,0-1,0.1c-0.7,0-1.5,0.1-2.2,0.1c-0.2,0-0.5,0-0.7-0.1c-0.5-0.1-0.8-0.5-1-0.9 c-0.1-0.2-0.2-0.4-0.3-0.6c-0.2-0.4-0.3-0.8-0.2-1.2c0.2-1,0.5-1.9,0.7-2.9c0.4-1.5,0.8-3.1,1.2-4.6c0.2-0.8,0.9-1.4,1.8-1.4 c1.1-0.1,2.3-0.1,3.4-0.2c0.2,0,0.5,0,0.7,0c0,0.1,0,0.2,0,0.2c0.1,0.1,0.2,0.1,0.2,0.2c0.2,0.2,0.3,0.4,0.2,0.7 c-0.1,0.5-0.2,0.9-0.4,1.4c0,0,0,0.1,0,0.1c-0.3,0-0.5,0-0.8,0.1c-0.8,0-1.7,0.1-2.5,0.1c0,0-0.1,0-0.1,0c-0.3,0-0.4,0.1-0.5,0.4 c-0.1,0.3-0.2,0.7-0.2,1c-0.4,1.6-0.8,3.3-1.3,4.9c0,0.1,0,0.2-0.1,0.3c1-0.1,2-0.1,3.1-0.2c0.1,0.3,0.3,0.5,0.4,0.8 c0,0,0,0.1,0,0.1C59.5,37.7,59.3,38.3,59.2,38.8z"></path> <path class="st0" d="M29.2,31.9c0.1,0.3,0.3,0.5,0.4,0.8c0,0.1,0,0.1,0,0.2c-0.1,0.5-0.3,1-0.4,1.5c0,0,0,0.1,0,0.1 c-1.2,0.1-2.4,0.1-3.5,0.2c0,0,0,0,0,0.1c0.1,0,0.1,0,0.2,0.1c0.3,0.1,0.6,0.1,0.9,0.2c0.6,0.1,1,0.5,1.2,1.2 c0,0.1,0.1,0.2,0.1,0.3c0.3,0.4,0.4,0.9,0.3,1.5c-0.1,0.4-0.2,0.8-0.3,1.2c-0.2,0.6-0.5,1.1-1.1,1.3c-0.2,0.1-0.3,0.1-0.5,0.1 c-1,0.1-2,0.1-3,0.2c-0.4,0-0.7,0-1.1,0.1c-0.1,0-0.1,0-0.2,0c-0.1-0.2-0.1-0.3-0.2-0.5c-0.1-0.1,0-0.3-0.2-0.4 c0.1-0.6,0.3-1.1,0.4-1.7c0.2,0,0.4,0,0.6,0c0.9-0.1,1.8-0.1,2.7-0.2c0.2,0,0.3,0,0.4-0.2c-0.2,0-0.3-0.1-0.5-0.1 c-0.3-0.1-0.5-0.1-0.8-0.3c-0.3-0.1-0.6-0.4-0.7-0.7c-0.2-0.4-0.4-0.7-0.5-1.1c-0.2-0.4-0.3-0.8-0.2-1.3c0.1-0.3,0.1-0.5,0.2-0.8 c0.2-0.8,0.9-1.3,1.5-1.4c0.2,0,0.4,0,0.6,0c0.6,0,1.1-0.1,1.7-0.1c0.7,0,1.4-0.1,2.1-0.1C29.1,31.9,29.2,31.9,29.2,31.9z"></path> <path class="st0" d="M62.4,30.1c0.2,0,0.3,0,0.5,0c0.6,0,1.1-0.1,1.7-0.1c0.6,0,1.2-0.1,1.7-0.1c0.3,0,0.6,0,0.9,0 c0.6,0,1,0.3,1.3,0.9c0.1,0.3,0.3,0.5,0.4,0.8c0.2,0.4,0.3,0.8,0.1,1.3c0,0.2-0.1,0.3-0.1,0.5c-0.2,0-0.4,0-0.6,0 c-0.4,0-0.7,0-1.1,0.1c-0.1,0-0.2,0-0.2-0.1c-0.1-0.2-0.2-0.4-0.3-0.6c0-0.1-0.1-0.1-0.2-0.1c-0.8,0-1.5,0.1-2.3,0.1 c0,0-0.1,0-0.1,0c-0.5,2-1,4-1.5,6c-0.6,0-1.2,0.1-1.8,0.1c-0.1-0.2-0.2-0.4-0.3-0.6c0-0.1,0-0.1,0-0.2c0-0.1,0-0.1-0.1-0.2 C61.1,35.3,61.7,32.7,62.4,30.1z"></path> <path class="st0" d="M41.6,38.2c-0.2,0-0.4,0-0.6,0c-0.4,0-0.8-0.2-1-0.6c-0.2-0.3-0.4-0.7-0.5-1c-0.1-0.3-0.2-0.6-0.1-0.9 c0.2-1,0.5-1.9,0.7-2.9c0-0.2,0.1-0.4,0.2-0.6c0.2-0.6,0.6-1,1.2-1c0.3,0,0.6,0,0.9-0.1c0.5,0,0.9-0.1,1.4-0.1c0.6,0,1,0.2,1.3,0.8 c0.1,0.2,0.2,0.4,0.3,0.7c0.2,0.3,0.2,0.7,0.1,1.1c-0.3,1.1-0.5,2.1-0.8,3.2c-0.2,0.7-0.8,1.3-1.6,1.3 C42.6,38.1,42.1,38.2,41.6,38.2C41.6,38.2,41.6,38.2,41.6,38.2z M43.5,33.4c-0.1,0-0.2,0-0.2,0c-0.3,0-0.6,0-1,0.1 c-0.3,0-0.3,0.1-0.4,0.3c-0.2,0.7-0.3,1.3-0.5,2c0,0.1,0,0.1,0,0.2c0.4,0,0.8,0,1.2-0.1c0.2,0,0.3-0.1,0.3-0.3 c0.1-0.4,0.2-0.8,0.3-1.3C43.4,34,43.5,33.7,43.5,33.4z"></path> <path class="st0" d="M52.2,33.7c-0.5,0-0.9,0.1-1.4,0.1c-0.1-0.2-0.2-0.5-0.4-0.7c-0.7,0-1.3,0.1-2,0.1c-0.4,1.6-0.8,3.2-1.2,4.8 c-0.5,0-0.9,0.1-1.4,0.1c-0.1-0.2-0.2-0.5-0.3-0.7c0,0-0.1-0.1-0.1-0.1c0-0.1,0-0.1,0-0.2c0.2-0.7,0.4-1.4,0.5-2.1 c0.3-1.2,0.6-2.4,0.9-3.7c0,0,0-0.1,0-0.2c0.1,0,0.2,0,0.3,0c0.6,0,1.1-0.1,1.7-0.1c0.5,0,1-0.1,1.5-0.1c0.6,0,1.1,0.3,1.3,0.8 c0.1,0.2,0.2,0.5,0.3,0.7c0.1,0.3,0.2,0.5,0.1,0.8C52.3,33.3,52.3,33.5,52.2,33.7z"></path> <path class="st0" d="M88,40.3c0,0.2-0.1,0.4-0.2,0.6c-0.2,0.3-0.5,0.5-0.9,0.6c0,0,0,0-0.1,0c-0.1,0-0.2,0.1-0.2,0 c0-0.1,0-0.2,0-0.2c0.1-0.4,0.3-0.8,0.7-1c0.1-0.1,0.3-0.2,0.5-0.2C87.9,40,88,40.1,88,40.3z"></path> </g> </svg> 