<?xml version="1.0" encoding="UTF-8"?> <!-- Generator: Adobe Illustrator 25.4.1, SVG Export Plug-In . SVG Version: 6.00 Build 0) --> <svg xmlns="http://www.w3.org/2000/svg" xmlns:xlink="http://www.w3.org/1999/xlink" version="1.0" id="Layer_1" x="0px" y="0px" viewBox="0 0 100 100" style="enable-background:new 0 0 100 100;" xml:space="preserve"> <style type="text/css"> .st0{fill:#FFFFFF;} </style> <path d="M3772.6-478.1c0-9.1-0.5-18.2,0.1-27.2c0.6-8.6-3-12.4-11.2-13.8c-9.6-1.8-19-4.5-29.7-7.1c0-29.2-2.5-58.3,1.4-86.6 c1.3-9.5,18.7-16.8,28.8-25.1c0.6-0.5,1.9-0.1,2.9-0.2c27.5-2.6,25.8-1.9,36.2,23.6c11.2,27.3,4.1,53.9,1.7,80.9 c-0.3,3.4-5.5,8.5-9.1,9.2c-16.3,3.2-19.7,13.2-17.7,27.6c0.8,6.1,0.1,12.4,0.1,18.6C3775-478.2,3773.8-478.1,3772.6-478.1z M3786.2-610c-18.7,29.1-18.2,34.3,5.8,56.9C3795.2-572.9,3799.4-591.8,3786.2-610z M3787.4-545.6c-6.2-8.8-12.7-18-20.4-29 c-6.1,12.6-11,22.8-15.7,32.6C3765.1-532.5,3776.8-531.4,3787.4-545.6z M3766.8-585c6.8-13.2,12.5-24.1,18.1-35 c-0.9-1.4-1.8-2.9-2.7-4.3c-11.4,3-22.7,6-36.5,9.6C3753.8-603.3,3759.5-595.3,3766.8-585z M3747.6-600c0,17.7,0,32.5,0,48.9 C3766.1-578.4,3766.1-578.4,3747.6-600z"></path> <path d="M3881.4-522.1c-8.3,3.2-13.1-0.4-16.6-9.5c-8.7-23-18.3-45.8-29.7-68.1c0,25.2,0,50.4,0,76.7c-5.4,1.3-10.4,2.5-15.6,3.7 c0-37.3,0-73.3,0-109c12.5-6.5,19.8-5.2,24.8,7.8c5.9,15.3,13.9,29.7,23.7,43.9c-1.5-20.1-2.9-40.1-4.4-60.7c6,0,10.7,0,17.8,0 C3881.4-598.8,3881.4-561.3,3881.4-522.1z"></path> <path d="M3555.1-571.1c3.3-3.8,6-7,8.8-10.2c15.4,5.5,3.7,12.8,1.4,22c4.4,2.6,9.8,5.3,14.5,8.8c3.8,2.8,6.9,6.6,10.3,10 c-1.3,1.8-2.7,3.6-4,5.5c-9.5-3.8-19-7.7-29.7-12c-4,6.4-8.7,14.3-13.8,22c-6.1,9.3-19,12-27.8,4.9c-12.6-10.1-24.6-20.9-38-32.4 c14.7-11.3,28.5-22,44.2-34.1c-20.8-12-18.2-29-11-48.2c10.7,1.4,21.7,2.8,33.1,4.3c0,11.5,2.7,23-0.6,32.4 C3537.2-583.3,3546.8-578.7,3555.1-571.1z M3499.7-548.4c10.2,6.7,19.2,12.5,28.9,18.9c6.9-10.3,13.1-19.6,19.7-29.6 c-6.4-6.5-12.5-12.7-18.1-18.3C3519.9-567.6,3510.4-558.6,3499.7-548.4z M3519.9-621.9c-3,16.5-2,18.5,13.1,25.6 C3533.3-607.1,3540.7-620.4,3519.9-621.9z"></path> <path d="M3662.1-572.3c-5.7-17.5-11.1-34.1-16.9-52.1c14.9-7,29.3-14.1,44.1-20.5c2.2-0.9,6.5,0.7,8.7,2.5 c6.4,5.3,12.2,11.2,18.8,17.6c-4.9,4.5-9.1,8.3-13.4,12.2c-8.9-5-12.8-21.1-27.4-13c-4,2.2-8.8,7-9.3,11c-1.1,8.5,0.4,17.4,0.9,27.9 c10.3-1.3,19.5-1.7,28.3-3.9c8.9-2.2,11.5,1.5,15.1,8.8c8.6,17.4,9.2,33-0.8,50.9c-6.7,12-7.2,27.5-9.8,38.6 c-0.9-4.6-2.6-13-4.6-22.9c-22.6,1.1-44.9,0.8-47.8-30.6c4.6-5.8,9.4-6.4,15.1,2.5c7.1,10.9,24.3,16,32.3,10.7 c8.7-5.8,10.8-27.1,2.8-36.8c-2.5-3-7.9-4.8-12.1-4.9C3678.4-574.8,3670.7-573.2,3662.1-572.3z"></path> <path d="M3388.5-557.9c7,9.1,14.1,18.3,21,27.2c-18,18.8-4,41.7-12.7,61.7c0-13.4,2.1-27.3-0.5-40.2c-3-14.9-9.1-29.5-16-43.1 c-1.9-3.8-11.7-3.6-19.1-5.5c0,14.3,0,25.9,0,38.1c-5.5,0.7-10.2,1.4-15.5,2.1c0-37.9,0-75,0-115c15.2,0,29.3-0.1,43.3,0.1 c1.6,0,4.3,1.4,4.7,2.7c6.4,19.7,17.4,39.2,7.6,60.6C3399.3-565,3393.7-562.4,3388.5-557.9z M3361.5-622.5c0,20,0,34.9,0,50.5 c11.5,2.3,23.2,6.3,30.4-4.4c9.1-13.6,0.1-26.8-7.1-37.6C3381.4-619.2,3370.7-619.4,3361.5-622.5z"></path> <path d="M3899.9-575.9c1.1-15.8,1.9-30.3,3.4-44.8c0.3-2.5,3.5-5.4,6.1-6.8c3.4-1.8,7.5-2.4,11.2-3.4c26.2-7.1,26.2-7.1,42.6,16.8 c-2.6,3.1-5.4,6.3-9.2,10.8c-10.5-18.6-24.2-15.2-39-6.6c0,2.1,0.2,4.5,0,6.9c-1.6,14.5,4.3,20.6,19.3,18.3c10.2-1.6,18.8,0,23,12.2 c4.3,12.6,17.1,24.1,1.2,37.1c-1.1,0.9-1.8,2.3-2.7,3.5c-19.6,25.4-40.2,24.4-58-2.8c-1.6-2.4-3.1-4.9-5.4-8.5 c2.8-3.3,5.8-6.8,6.6-7.7c11.2,7.2,20.3,14.8,30.8,19.3c8.3,3.6,20.3-6.8,22.5-17.1c1.6-7.4-8.2-21.7-16.1-22.9 C3924.9-573.1,3913.6-574.3,3899.9-575.9z"></path> <path d="M3102.8-558.2c-10.1,0.6-20.8,1.2-30.8,1.8c-9.5,12.1,5.5,34.4-18.3,40.4c0-38.7,0-75.5,0-112.6c15,0,28.6-0.4,42.1,0.3 c2.6,0.1,6,4.2,7.3,7.2C3111.8-600.5,3113.6-579.7,3102.8-558.2z M3088.9-616.6c-5.7,3.2-15.3,5.5-16.2,9.7 c-2.7,12.6-2.1,26-2.8,39.1C3103.2-567.3,3107.9-578.6,3088.9-616.6z"></path> <path d="M3173.9-492.8c-2-8.9-3.9-17.5-5.9-26.5c-11,0-21.2,0-33,0c0-35,0-69.4,0-105.9c14.2-2.2,29.4-4.5,46.9-7.2 c-1.4,7.2-2.4,12.5-3.1,15.8c-10.6,8.9-32.2-5.6-32.5,19.6c10.3,0.6,19.4,1.2,28.5,1.8c0.4,1.7,0.9,3.4,1.3,5.2 c-8.6,2.5-17.2,4.9-27.3,7.8c-0.2,4.1-0.4,9.2-0.7,15.5c5.2,0.4,9.4,0.7,13.6,1c0.8,1.1,1.6,2.1,2.5,3.2c-3.1,2.5-6.1,5.1-9.4,7.3 c-1.4,1-3.5,1-5.3,1.5c0,6.9,0,13.2,0,21.3c11.6,0,22.6,0,33.5,0C3179.8-518.4,3177-506,3173.9-492.8z"></path> <path d="M3312.4-564.2c-5.7,0.8-11.5,1.5-18.2,2.4c0,10.2,0,19.7,0,30.7c10.9-2,21.3-4,33-6.2c0,5.8,0,10.7,0,17.2 c-14.9,0.8-29.9,1.7-47.2,2.7c0-36.9,0-72.8,0-109.8c14.2-1.3,29.2-2.7,45.5-4.1c0.5,4.7,1,8.9,1.7,14.4c-10.9,0.6-21,1.1-32.2,1.6 c0,13.5,0,26.5,0,37.9c7,3,13.5,5.7,19.9,8.4C3314.1-567.4,3313.3-565.8,3312.4-564.2z"></path> <path d="M3243.7-519.9c-4.3,0.3-8.6,0.6-15.3,1.1c0-31.2,0-61.6,0-93.4c-10.2-0.8-18.3-1.4-31.4-2.5c5.3-6,8-12.1,11.3-12.4 c18.9-1.8,38-2.2,57-3c6.1,22.1-11.9,15.2-21.6,19.4C3243.7-581.3,3243.7-551.5,3243.7-519.9z"></path> <g> <path class="st0" d="M50.4,22.7c-5.9,0.5-9.3,3.6-12.4,7.3c-0.7,0.9-2.4,1.4-3.6,1.3c-5.8-0.4-10.5,2.9-15.6,4.7 c-0.6,0.2-1,1.2-1.3,1.9c-0.2,0.4,0,1-0.1,1.5c-1.5,8.2-0.9,15.7,7.2,21.2c-0.4,0.2-0.7,0.4-1.1,0.6c-3.7-1-7.4-1.9-11.1-3 c-0.8-0.2-1.6-0.8-2-1.5c-2.5-4-5-8-7.4-12C2.7,44,2.8,42.9,3,42.1c1.3-5.8,2.5-11.6,4.1-17.3c0.4-1.5,1.6-2.9,2.8-3.9 c1.3-1.1,3.1-1.7,4.4-2.8c7.3-5.9,15.4-7.5,24.4-4.8c1.9,0.6,3.8,1.5,5.3,2.8C46.1,17.8,47.8,20,50.4,22.7z"></path> <path class="st0" d="M80,61.3c0.9-2.2,1.2-3.6,1.9-4.7c3.7-6.2,3.6-12.5,0.7-19c-1.6-3.6-7.8-7.1-11.7-6.1c-0.8,0.2-2,0.4-2.6,0 c-5-3.2-10-6.5-15.1-9.9c3.2-3.6,6.7-7.3,13.1-8.5c7.2-1.3,12.9-0.2,19.3,3.5c6.1,3.5,9.7,7.6,10,14.5c0,0.9,0.2,1.7,0.6,2.5 c2.9,6.8-0.1,12.8-2.7,18.8c-0.4,0.8-1.2,1.6-2,2.1C87.8,56.6,84.3,58.7,80,61.3z"></path> <path class="st0" d="M51.8,41.8c0.1,0.7,0.2,1.4,0.4,2.1c0.9,4.2,2.3,8.1,7,9.6c2.1,0.7,2.8,2,2.5,4.2c-0.4,4-0.6,8.1-0.9,12.5 c-2.1-0.4-3.9-0.7-5.6-1.2c-1.9-0.6-2.5-4.3-1.1-6.7c0.5-1,1.2-1.9,1.8-2.8c0.6-0.9,1.2-1.9,2.1-3.2c-4.7,0-9.1,0-14,0 c2.5,3.6,6.8,6.9,4.7,11.5c-0.9,2-4.7,2.6-7.7,4C40.4,66,40,60.9,39.5,55.5c7.6-1.6,10.9-6.6,10.9-14.3 C50.9,41.4,51.3,41.6,51.8,41.8z"></path> <path class="st0" d="M41.7,75.4c3-1.3,5.7-2.7,8.5-3.6c1-0.3,2.4,0.1,3.5,0.5c5.8,2.3,11.5,4.7,17.4,7.2c1.2-2.5,2.3-4.8,3.5-7.3 c2.9,1.6,5.5,3.2,8.4,4.8c-0.8,1.8-1.3,3.4-2.1,5c-1.6,3.1-4.4,4-7.7,2.7c-3.7-1.5-7.4-2.9-11-4.5c-3.5-1.5-6.6-2.4-10.6-0.8 C47.8,80.7,44.7,78,41.7,75.4z"></path> <path class="st0" d="M36.9,35.9c4.5,0.3,8.5,3.6,8.3,7c-0.3,4.4-4.6,8.3-9.2,8.3c-2.8,0-6.7-4.9-6.5-8.1 C29.9,38.3,32.6,35.7,36.9,35.9z"></path> <path class="st0" d="M41.2,82.3c6.8,6.4,13.5,2.4,20.3-0.2c0.3,3.7,0.6,6.9,0.9,10C53,95.5,44.7,92.6,41.2,82.3z"></path> <path class="st0" d="M42.7,32c6.4-5.8,14.3-5.4,17.3,1.1C54,38.5,48.1,39.5,42.7,32z"></path> <path class="st0" d="M72.1,53.4c1.6,3,3.1,5.9,5.1,9.7c-4.2-0.4-7.5-0.8-10.6-1.1C65.6,57.2,67.6,54.8,72.1,53.4z"></path> <path class="st0" d="M34.6,55.8c-0.5,6.6-0.5,6.6-8.9,7c0.6-1.5,1.1-3,1.7-4.4c0.5-1.3,1.2-2.7,1.8-4.2 C31.1,54.8,32.8,55.3,34.6,55.8z"></path> <path class="st0" d="M80.3,6.5c0.7,1.7,1.3,3,1.9,4.2c-2.6-0.8-5.1-1.6-7.9-2.5C76.2,7.7,78,7.2,80.3,6.5z"></path> <path class="st0" d="M63.5,35.9c-4.4-0.3-7.1,2.4-7.4,7.2c-0.2,3.2,3.7,8.1,6.5,8.1c4.5,0.1,8.8-3.8,9.2-8.3 C72,39.6,68.1,36.2,63.5,35.9z M67.9,47.1L67.9,47.1l-0.2,0l-0.4,0l-0.2,0l-0.6,0h-0.2l-0.6,0l-0.1,0L65.5,47l-0.1-0.1l-0.2-0.3 l-0.1-0.1l-0.2-0.4l-0.1-0.2L64,44.6h-0.1l-0.4,0.7l-0.1,0.2L63.2,46l-0.1,0.2l-0.3,0.3l-0.1,0.2l-0.3,0.5l-0.1,0h-0.2L60.9,47 l-0.2,0l-0.5,0l-0.2,0L60,47l0-0.1l0.1-0.1l1.1-1.6l0.1-0.2l0.3-0.5l0.1-0.1l0.3-0.5l0.1-0.1l0.3-0.5l0.1-0.1l0-0.1L62.5,43 l-0.3-0.5l-0.1-0.1l-0.3-0.5l-0.1-0.1l-0.3-0.5l-0.1-0.1l-0.4-0.6l-0.3-0.5l-0.1-0.1l-0.3-0.5l0-0.1l0,0v-0.1l0.1-0.1h0.3l0.2,0 l1.4,0l0.2,0l0.2,0l0.1,0.1l0.1,0.2l0,0.1l0.1,0.2l0.3,0.5l0.1,0.2l0.3,0.5l0.1,0.2l0.3,0.5l0.1,0.1l0.1-0.1l0.3-0.5l0.1-0.2 l0.2-0.5l0.1-0.2l0.3-0.4l0.1-0.2l0.2-0.3l0.1-0.1l0.1-0.1l0.1-0.1l0.2,0l0.2,0l0.4,0l0.2,0l0.5,0h0.5l0.2,0l0.1,0.1l-0.1,0.1 l-0.1,0.2l-0.1,0.2l-0.4,0.5l-0.4,0.6l-0.1,0.1l-0.3,0.6l-0.1,0.1l-0.4,0.6l-0.1,0.1L65.4,43l-0.1,0.1l0,0.1l0.3,0.3l0.1,0.1 l0.5,0.7l0.4,0.6l0.1,0.1l0.4,0.6l0.1,0.1l0.5,0.7l0.1,0.1l0.1,0.1l0.1,0.2V47.1z"></path> </g> </svg> 