<?xml version="1.0" encoding="UTF-8"?> <!-- Generator: Adobe Illustrator 24.0.3, SVG Export Plug-In . SVG Version: 6.00 Build 0) --> <svg xmlns="http://www.w3.org/2000/svg" xmlns:xlink="http://www.w3.org/1999/xlink" version="1.1" id="Layer_1" x="0px" y="0px" viewBox="0 0 64 64" style="enable-background:new 0 0 64 64;" xml:space="preserve"> <style type="text/css"> .st0{fill:#363635;} .st1{fill:none;stroke:#FFFFFF;stroke-width:1.2628;stroke-linecap:round;stroke-linejoin:round;stroke-miterlimit:10;} .st2{fill:none;stroke:#FFFFFF;stroke-width:1.6837;stroke-linecap:round;stroke-linejoin:round;stroke-miterlimit:10;} .st3{fill:#FFFFFF;} .st4{fill:none;stroke:#FFFFFF;stroke-width:1.5117;stroke-linecap:round;stroke-linejoin:round;stroke-miterlimit:10;} .st5{fill:none;stroke:#FFFFFF;stroke-width:2;stroke-miterlimit:10;} .st6{fill:none;stroke:#FFFFFF;stroke-width:2;stroke-linecap:round;stroke-linejoin:round;stroke-miterlimit:10;} </style> <g> <polygon class="st4" points="47.7,46.8 47.7,39.4 45,36.6 45,11.5 15.3,11.5 15.3,36.6 12.5,39.4 12.5,46.8 "></polygon> <rect x="19" y="24.5" class="st4" width="7.4" height="11.1"></rect> <rect x="26.4" y="24.5" class="st4" width="7.4" height="11.1"></rect> <rect x="33.8" y="24.5" class="st4" width="7.4" height="11.1"></rect> <rect x="19" y="15.2" class="st4" width="22.3" height="5.6"></rect> <polyline class="st4" points="44,48.6 44,53.3 15.3,53.3 15.3,48.6 "></polyline> <path class="st4" d="M52.4,32.9H45v-5.6h7.4c1,0,1.9,0.8,1.9,1.9V31C54.2,32,53.4,32.9,52.4,32.9z"></path> <circle class="st4" cx="51.4" cy="16.2" r="2.8"></circle> <line class="st4" x1="51.4" y1="18.9" x2="51.4" y2="27.3"></line> </g> </svg> 