<?xml version="1.0" encoding="UTF-8"?> <svg xmlns="http://www.w3.org/2000/svg" xmlns:xlink="http://www.w3.org/1999/xlink" version="1.1" id="Layer_1" x="0px" y="0px" viewBox="0 0 1000 1000" style="enable-background:new 0 0 1000 1000;" xml:space="preserve"> <path style="fill:#FFFFFF;" d="M54.9,338.8c11.3,0.1,22.8,1.6,33.9-0.1c19.2-2.9,21.9-2.2,26.6,16.6c3.4,13.6,6.8,27.2,8.6,41 c1.4,10.5,5.3,14.8,16.2,14.6c22.5-0.3,26.5-3.2,25-25.4c-1.5-22.9-4.3-45.8-6.5-68.7c-0.6-6.4-1.8-13-0.7-19.1 c0.7-3.8,5-9.1,8.3-9.7c11.6-2,23.5-2.9,35.3-2.8c3.3,0,9.4,5,9.5,7.8c1.7,64.5,2.7,128.9,3.8,193.4c0,0.8-0.6,1.6-1.1,3 c-11.8,1.1-23.9,2.3-37.7,3.6c-2.9-18.5-5.6-36.3-8.5-54.9c-11.1,0.8-21.5,1.6-33,2.5c3.6,22.7,7.1,44.1,10.2,63.3 c-7.7,0-14.2-0.9-20.4,0.2c-19.2,3.5-19.6,3.9-24.8-14.4C87.6,446.9,76.2,404,64,361.4c-1.8-6.2-6-11.7-9.1-17.5 C54.9,342.2,54.9,340.5,54.9,338.8z"></path> <path style="fill:#FFFFFF;" d="M505,705.4c-14.6,20.8-29.1,40.6-42.5,61c-5.1,7.7-9.2,9.5-17.3,4.8c-9.5-5.6-19.7-9.9-29.5-15.1 c-6.7-3.6-10.2-8.3-5.5-16.3c16.9-28.8,33.5-57.8,51.2-88.3c-15.1-20.8-31.4-43.6-48.2-65.9c-3.8-5-5.9-7.9,1-11.8 c15.7-8.8,31-18.5,46.9-26.8c15.3-8,19.9-5.5,28.2,10.4c4.6,8.8,10.3,17.1,15.8,26.2c13.6-17.3,26.2-33.1,38.4-49.2 c6.4-8.4,12.9-9.2,21.4-3c13.3,9.7,27,18.7,40.5,28.1c8.7,6.1,7.9,12.3,1.3,20c-17.5,20.3-34.5,41.2-51.9,61.7 c-6.1,7.2-7.4,11.8-0.2,21.2c19.5,25.5,36.6,52.9,54,80c1.7,2.6,0.1,10-2.5,12.2c-8.7,7.4-18.8,13.2-28,20 c-7.8,5.8-13.7,4.4-19.6-3.1c-16.1-20.4-32.7-40.5-49.1-60.7C508.6,709.2,507.1,707.7,505,705.4z"></path> <path style="fill:#FFFFFF;" d="M887.1,475.5c14.7,18.4,32,30.2,53.8,35.2c14.4,3.3,16.2,5.9,12.8,19.7c-1.1,4.5-2.3,8.9-3.5,13.3 c-1.2,4.1-2.5,8.1-4.4,14.2c-50.2-2.8-83.7-32.6-114.1-69.6c-2.9,6.3-6,13.1-9.7,21.2c-10.9-2.6-21.9-5.3-34.7-8.3 c1-7.6,1.5-15,3.1-22.1c9.2-43.3,18.6-86.6,28.4-129.8c0.7-3.2,5.7-7.5,8.9-7.7c31.6-1.6,62.6,0.1,91.3,16.4 c22,12.5,37.7,36,32.8,54.3c-7.2,26.8-22.6,47.1-49.4,57.3C898,471.4,893.7,473,887.1,475.5z M894.8,426.5c-2.6-9.7-2.9-18-7-23.6 c-4.1-5.7-11.6-9.6-18.4-12.2c-2.2-0.9-8.8,4.1-10.2,7.7c-4.7,12-8,24.6-12.6,39.6C865,439.1,880.6,434.2,894.8,426.5z"></path> <path style="fill:#FFFFFF;" d="M522.5,481c-13.7-1.4-25.2-2.1-36.5-4.1c-3.3-0.6-7.6-4.5-8.5-7.7c-9-31.7-17.4-63.5-26.5-97 c-8.8,34.6-17.3,68.3-26.4,103.9c-14.9-3.4-28.6-6.5-43.6-9.9c9.4-59.9,18.6-118.5,28.3-179.9c19.5,3.1,37.6,5.8,55.5,9.2 c2.4,0.5,5.1,4.4,5.9,7.2c6.8,24.4,13.1,48.9,22.6,73.9c2.2-12.5,4.3-25.1,6.5-37.6c1.8-10.4,3.8-20.9,5.5-31.3 c1.2-7.5,6-8.6,12.1-7c11.9,3.1,23.5,7.5,35.5,9.4c9.7,1.5,9.4,6,7.6,13.3c-8.8,35.1-17.5,70.2-26,105.4 C530.3,445.8,526.5,463.1,522.5,481z"></path> <path style="fill:#FFFFFF;" d="M572.4,473.4c0-64.7,0-128.2,0-193.1c-18.4,0-34.4,0-51.5,0c0-20.3,0-39.3,0-59.4 c16.6,0.9,33.1,1.4,49.5,2.6c33.2,2.5,66.4,5.8,99.6,8c11.6,0.8,16.5,5.1,13.9,16.7c-0.6,2.5-0.8,5.1-1.1,7.6 c-2.5,22-2.5,21.9-24.8,21c-7-0.3-14.1,0.5-21.1-0.3c-11.7-1.4-13.3,5.4-13.9,14.6c-2.9,45-6.2,90-9.2,135 c-0.8,11.7-1,23.5-1.2,35.2c-0.2,13.4-7.8,19.1-21.4,15.7C586,476,580.7,475.1,572.4,473.4z"></path> <path style="fill:#FFFFFF;" d="M753.3,386.6c2.4,1.8,3,2,3,2.3c4.6,28.1,4.3,28.3-24.9,29.4c-9.2,0.4-18.4,1.9-26.8,2.9 c-0.9,1.2-1.4,1.5-1.4,1.9c-2.8,32.4-1,33.9,30.9,27.1c8.2-1.8,16.8-3.1,25.1-2.9c2.7,0.1,6.7,5.7,7.5,9.4c1.5,6.9,1.2,14.2,1.8,23 c-11.9,1.1-24.5,2.3-37,3.5c-17,1.5-33.9,3.1-50.9,4.3c-9.9,0.7-16.8-2.8-18.4-13.7c-3.3-21.8-7-43.6-10.4-65.4 c-3.2-20.5-6.2-41-9.2-61.5c-0.1-0.8-0.4-1.7-0.6-2.5c-3.3-19.1-0.1-23,18.7-26.2c24.7-4.2,49.3-8.9,73.8-14 c8.1-1.7,12.5,0.9,14.5,8.1c1.4,4.9,2.2,10,2.6,15.1c2,29.9,2,29.9-29.1,29.6c-24.6-0.3-28.1,3.9-21.8,28.6c0.6,2.5,6.9,5.2,10.4,5 C725.8,389.7,740.5,387.9,753.3,386.6z"></path> <path style="fill:#FFFFFF;" d="M376.3,394.6c-0.8,29.7-10.4,56.3-34.6,75.7c-21,16.9-62.4,13.7-83.7-13.6 c-10.3-13.2-15.4-27.6-15.9-44.7c-0.7-26.4,3.8-51.4,13.2-75.9c2.6-6.8,5.3-8.8,12.2-5.9c9,3.8,18.5,6.5,27.5,10.4 c14.4,6.3,14.8,8.9,10.8,24c-4.6,17-8.8,34.2-11.2,51.5c-0.7,4.9,4.6,14,9,15.4c4.6,1.4,13-2.6,17-6.8c11.6-12.5,12.9-28.9,13-45.2 c0-7.3-1.1-14.5-0.8-21.8c0.2-5.4,0.9-14.9,3.1-15.4c10.1-2.4,20.8-3.1,31.2-2.3c2.5,0.2,5.7,8.3,6.3,13 C375,366.6,375.4,380.2,376.3,394.6z"></path> </svg> 