<?xml version="1.0" encoding="UTF-8"?> <svg xmlns="http://www.w3.org/2000/svg" xmlns:xlink="http://www.w3.org/1999/xlink" version="1.1" id="Layer_1" x="0px" y="0px" viewBox="0 0 1000 1000" style="enable-background:new 0 0 1000 1000;" xml:space="preserve"> <path style="fill:#FFFFFF;" d="M193.3,216c21.7,0,43.4,0,59.9,0c0,13.4-2.4,27.3,0.5,40.1c5.9,25.5,14.6,50.2,25,75.1 c4.2-37.6,40.3-74.4-3.3-114.6c22.1,0,40.1,0,53.1,0c-11.1,40.2,14.7,75.1,18,113.4c2.3,0.1,4.6,0.2,7,0.3 c8.7-28.4,19.3-56.5,24.8-85.5c1.4-7.2-13.3-17.5-21.6-27.5c35.7,0,72.7,0,108.3,0c-27.4,21.3-15.4,54.8-16.8,82.2 c-1.4,26.9-18.6,61.8,17.3,83.6c-22.2,2-45.1,4-63.9,5.7c40.8-49.1,10.6-107.5,17.9-163.5c-26,0-30.2,14.6-34.3,29.3 c-12.1,42.8-24.3,85.7-36.4,128.5c-2.7,0.7-5.4,1.4-8.2,2.1c-3.9-6.5-9.2-12.5-11.3-19.5c-8.3-28-15.7-56.3-25.1-91 c-10,44.2-18.3,81.3-28.1,124.7c-7.1-10-11.4-13.8-12.9-18.6c-12.2-38.7-24.5-77.4-35.6-116.4C219.7,236.2,215.8,229.8,193.3,216z"></path> <path style="fill:#FFFFFF;" d="M640,226.7c-7.4-1.4-12.9-2.5-25.4-4.9c36.8-12.2,66.5-16.2,98.2-6.7c39.4,11.9,62.6,57,53.8,103.9 c-5.5,29.4-17.8,59.3-51.7,66.8c-28,6.3-57.1,7.3-84.7,10.5c3.9-10.5,9.4-18.8,9.5-27.2C640.4,322.4,640,275.6,640,226.7z M670.5,221.3c0,38.1-0.3,75.2,0.2,112.2c0.1,8.9,2.7,18,4.9,26.8c2.3,9.1,5.5,17.9,8.3,26.9c10.8-4,21.9-7.3,32.1-12.5 c3.8-1.9,5.8-7.9,7.9-12.3c17.1-34.8,18.6-71.5,4.6-106.4C716.6,226.2,705.5,215.2,670.5,221.3z"></path> <path style="fill:#FFFFFF;" d="M258.9,466.7c2.7,3.9,5.3,7.8,8,11.7c2.2-2.4,6.6-6.3,6.1-6.9c-6.3-9.3-11.5-20.7-20.4-26.2 c-8.3-5.2-22.1-7.9-30.8-4.6c-17.1,6.5-20.3,26.5-6.7,38.8c12.1,10.9,26.8,19.6,41.4,27.1c32.6,16.6,41.2,42.2,27.8,78 c-11.2,29.9-52.3,43.1-79.8,25.6c-9.4-6-15.4-23.4-15.7-35.7c-0.2-7.4,12.8-16.9,21.8-21.9c4.4-2.5,16.3,1.2,19.4,5.8 c2.9,4.2,0.8,15.3-3.2,19.7c-4.4,4.9-13.4,5.6-20.4,8.1c-0.9-2.4-1.9-4.8-2.8-7.3c5.5-2.3,11-4.6,16.4-6.9c0.1-1.5,0.8-4,0.4-4.2 c-5.1-2.1-10.3-3.9-15.4-5.8c-0.6,11.2-5.4,29.7-1.1,32.1c13.6,7.5,30.7,12.3,46,11.5c8.2-0.5,22.8-15.3,22.1-22.4 c-1.3-13.4-9.2-28.3-18.9-38c-9.5-9.4-24.5-13.3-37.5-18.8c-19.1-8.1-29.9-22.3-27.9-42.7c2.2-21.7,7.2-44.4,31.5-52.2 c19.3-6.2,40.3-4.2,52,14.4c6.3,9.9,5.5,24.9,5.3,37.6c0,2-13.8,3.9-21.3,5.8c-1.4-7.4-2.8-14.9-4.3-22.3 C253.6,466.6,256.3,466.6,258.9,466.7z"></path> <path style="fill:#FFFFFF;" d="M613.5,390.2c-46.6-3.3-90.6-6.4-132.5-9.3c5.1-3.4,16.9-7,20.1-14.4c4.1-9.3,1.7-21.6,1.2-32.6 c-1.4-32.7-2.9-65.4-5.3-98c-0.5-6.6-5.4-12.9-8.6-20c16.9,0,35,0,53.6,0c-23.3,34-12.9,72.3-12.2,109.4c0.1,6.6,1.9,13.1,3.2,19.6 c2.5,12.3-8.1,30.7,16.1,32.9c21.3,1.9,39.9-10.5,44.7-31.3c1.9-8.2,3.4-16.4,9.2-23.7C606.5,345.3,610,367.8,613.5,390.2z"></path> <path style="fill:#FFFFFF;" d="M473.9,836.9c-7.5,16.8-12.4,27.7-17.2,38.6c-11.4-33.3,0.7-62.1,26.9-77.7 c39.6-23.6,44.2-57.8,38.2-95.5c-2.5-15.6-16.6-29.4-25.4-44c-9,5.6-23.8,9.8-25.7,17.2c-4.8,18.4-3.9,38.4-4.4,57.8 c0,1.7,9.5,5.9,10.5,4.9c5.5-5.5,9.7-12.3,9.9-22.8c-5.4,2.6-10.9,5.2-16.3,7.9c-1.9-2.1-3.8-4.3-5.7-6.4 c8.2-6.9,16.4-13.7,24.6-20.6c4.4,8.8,14.7,21.4,11.9,25.7c-7.7,12.2-19.3,26.7-32,30.1c-21,5.5-24.4-13.7-20.8-28.6 c5.4-22.5,9.7-48.2,23.5-65.2c21.7-26.6,49.8-11.8,71.7,4.4c19.9,14.7,25.4,66.6,9.4,89.9c-9.5,13.9-24.7,24.1-38.2,34.9 c-12.7,10.2-26.6,19-41,29.2c50.5,36,50.5,36,83.8-7.5c2.9,1,5.7,2,8.6,3c-6.6,18.7-7.9,43.9-21,54.7 C513.5,893.4,492.1,865.5,473.9,836.9z"></path> <path style="fill:#FFFFFF;" d="M664.1,442.4c11.9,16.8,23.8,33.7,35.7,50.5c1.8,0,3.5,0.1,5.3,0.1c-1.4-18.9-2.7-37.9-4.1-56.6 c-60.2,0-118.4,0-181.4,0c43.9,28.1,15.3,67.6,25.4,100.1c-2.1,0.9-4.2,1.7-6.3,2.6c-5.1-6.3-10.9-12.3-15.3-19.1 c-16.3-25.1-31.7-50.7-48.4-75.5c-10.9-16.1-41.1-14.4-49-2.7c7.8,10.8,19.6,19.7,20.1,29.1c2.1,41.3,0.9,82.8,0.9,123.9 c-29.1,3.7-34.7,1.7-39.8-16.1c-7.7-27.1-14-54.6-21.7-81.6c-6.3-22.5-13.8-44.7-20.7-67c-13.5,29.1-19.7,59-30.6,87.1 c-12.2,31.5-9.5,70.6-49.1,92.5c22.2-3.4,39.1-6,55.2-8.4c-7-5-19.9-12.4-19.3-13.9c6.3-14.2,14-28.2,23.7-40.2 c1.4-1.8,19.1,4.2,22.9,10.5c11.5,19.3,22.5,41-5.5,49.9c37.3,0,78.4,0,115.2,0c-39.7-32.7-10.8-78.1-19.7-116.5 c31.4,37.6,54,80.9,93.5,116.1c8.8-58-7.2-110.9,11.5-160.8c2.3-0.1,4.5-0.2,6.8-0.2c2.7,16.3,5.3,32.6,8,49 c9.5-21.9,11.6-45.9,47.8-51c0,33.3,0.3,64.9-0.1,96.6c-0.4,27.9,10.3,61.5-32.8,68.5c29.4,0,58.8,0,88.2,0 c-18.1-4.9-27.1-12.6-25.4-32.5c1.8-22,0.7-44.3,0.7-66.5c0.1-21.5,0-43.1,0-64.6C658.7,444.5,661.4,443.5,664.1,442.4z M376.7,525 c-0.1,0.4-0.2,0.7-0.4,1c-0.3,0.3-0.8,0.4-1.2,0.5c-5.5,0.9-11.2,0.6-16.5-0.9c-2.1-0.6-4.5-1.6-5.1-3.7c-0.4-1.3,0-2.6,0.3-3.9 c0.9-3.4,5.6-33.2,12.7-28.5c0.8,0.5,1.2,1.5,1.6,2.4c3.4,8.4,6.1,17,8.1,25.9C376.6,520.1,377.1,522.6,376.7,525z"></path> <path style="fill:#FFFFFF;" d="M809.2,567.3c-12.4-45.5-24.6-91-36.9-136.6c-2.2,0.2-4.4,0.4-6.7,0.5c-7.7,26.8-13.3,54.4-23.6,80.2 c-13.4,33.6-9.2,76.8-56.3,99.2c25.8-3.5,44.5-5.9,59.3-7.9c-5.2-6.9-15.2-14.3-14.4-20.2c4.6-34.4,9.4-37.5,41-34.1 c5.1,16,10.2,32.2,15.4,48.5c-8.3,4.5-15,8.2-22.5,12.3c29.1-1.9,56-3.6,82.9-5.3c0.4-2.2,0.8-4.4,1.2-6.6 C822.1,602.9,814.4,586.4,809.2,567.3z M777.2,525.7c-0.1,0.3-0.2,0.7-0.5,1c-0.3,0.3-0.8,0.4-1.2,0.4c-5.5,0.5-11.2-0.1-16.5-2 c-2.1-0.7-4.3-1.9-4.8-4.1c-0.3-1.3,0.1-2.6,0.5-3.9c1.1-3.3,7.7-32.8,14.5-27.6c0.8,0.6,1.1,1.5,1.4,2.5c2.9,8.6,5,17.4,6.4,26.3 C777.5,520.8,777.8,523.3,777.2,525.7z"></path> </svg> 