<?xml version="1.0" encoding="UTF-8"?> <svg xmlns="http://www.w3.org/2000/svg" xmlns:xlink="http://www.w3.org/1999/xlink" version="1.1" id="Layer_1" x="0px" y="0px" viewBox="0 0 100 100" style="enable-background:new 0 0 100 100;" xml:space="preserve"> <path style="fill:#FFFFFF;" d="M81.5,40.6c7.7-1.4,14.3,3.5,16,10.1c1.8,7.1-2.1,14.1-8.8,16.4c-2.5,0.9-5.1,1-7.7,0.4 c-2.6-0.6-4.9-1.9-6.8-3.8c-1.9-1.9-3-4.2-3.6-6.9c-0.5,0.8-1,1.5-1.5,2.2c-2.3,3.2-5.2,5.7-8.7,7.4c-0.3,0.1-0.3,0.3-0.2,0.5 c0.6,1.9,1.1,3.8,1.6,5.7c0.1,0.2,0.1,0.3,0.4,0.3c0.8,0,1.6-0.1,2.4,0.2c1.5,0.4,3.1,2,2.9,4.4c-0.2,1.6-1.3,3.2-3.3,3.6 c-0.3,0.1-0.6,0.1-0.9,0.1c-8.9,0-17.7,0-26.6,0c-2.1,0-3.8-1.3-4.2-3.3c-0.5-2.3,1.2-4.5,3.4-4.8c0.7-0.1,1.4-0.1,2.1-0.1 c0.6-2.1,1.2-4.1,1.8-6.2C31.1,62,26.6,54.9,26.3,45.1c-2.8,2.2-6.1,3.3-9.7,3.2c-3.6-0.2-6.8-1.6-9.4-4.1c-4.4-4.2-5.6-11-3-16.4 c2.8-5.8,8.7-8.9,14.6-8.2c6.4,0.7,11.3,5.4,12.6,11.3c5.2-6.2,11.8-9.4,19.9-8.9c8.1,0.5,14.3,4.5,18.8,11.2 c1.3-2.1,3.2-3.3,5.7-3.4c1.7-0.1,3.2,0.5,4.6,1.6C82.7,33.2,83.8,37.1,81.5,40.6z M67.5,33.2C67.6,33.2,67.6,33.2,67.5,33.2 c-0.5-0.7-0.9-1.4-1.5-2c-4-4.5-9-6.9-14.9-7.3c-2.1-0.1-4.1,0-6.1,0.5C39.4,25.9,35,29,31.8,33.9c-0.1,0.1-0.1,0.3-0.1,0.4 c-0.1,2.8-1,5.5-2.6,7.8c-0.4,0.6-0.6,1.2-0.6,1.8c0,1.1,0,2.2,0.1,3.2c0.1,1.7,0.4,3.3,1,4.9c1.7,5.1,4.9,9,9.5,11.8 c0.4,0.3,0.9,0.5,1.4,0.8c0.2-0.7,0.4-1.4,0.6-2c0.2-0.7,0.4-1.3,0.6-2c-0.1,0-0.2-0.1-0.2-0.1c-1.7-0.8-2.6-2.4-2.3-4.2 c0.3-2.4,2.6-3.9,4.6-3.5c0.1,0,0.2-0.1,0.3-0.2c0.1-0.3,0.2-0.6,0.3-0.9c0.1-0.3,0-0.5-0.2-0.7c-1-1.1-1.6-2.4-1.9-3.9 c-0.1-0.3-0.2-0.4-0.4-0.5c-1.9-0.7-3-2.6-2.6-4.5c0.5-2.7,3.4-4.1,5.7-3c0.2,0.1,0.3,0.1,0.4-0.1c0.7-0.5,1.4-0.9,2.2-1.2 c1-0.4,2.1-0.6,3.2-0.4c0.1,0,0.2-0.1,0.3-0.2c0.7-1.7,2.5-2.8,4.5-2.5c2.2,0.4,3.8,2.7,3.3,4.9c-0.2,0.9-0.7,1.6-1.3,2.3 c0,0.3,0.2,0.4,0.4,0.3c0.4,0,0.8,0,1.2,0c0.2,0,0.3-0.1,0.3-0.2c0.3-1,0.5-2,0.8-3c0.3-1,0.6-2.1,0.8-3.1c0.4-1.6,1.6-2.5,3.3-2.5 C65.2,33.2,66.4,33.2,67.5,33.2z M94.6,54.1c0-5.8-4.7-10.5-10.5-10.5c-5.7,0-10.5,4.7-10.5,10.5c0,5.8,4.7,10.6,10.6,10.5 C89.9,64.6,94.6,59.9,94.6,54.1z M17.3,44.9c6.1,0,11-5,11-11c0-6.1-5-11.1-11.1-11c-6.2,0.1-11,5.1-10.9,11.1 C6.2,40,11.2,44.9,17.3,44.9z M44.7,72.9c0-0.3,0.1-0.5,0.1-0.8c0.1-1,0.2-2,0.3-3c0.1-1.1,0.2-2.1,0.3-3.2c0.1-0.8,0.2-1.7,0.5-2.4 c0.8-1.8,2.5-2.8,4.4-2.7c1.8,0.2,3.3,1.4,3.8,3.3c0.3,1.1,0.4,2.2,0.5,3.3c0.2,1.5,0.3,3,0.4,4.5c0,0.4,0.1,0.7,0.1,1.1 c1.5,0,3,0,4.6,0c-2-6.8-3.9-13.6-5.9-20.4c-2.6,1.5-5.2,1.4-7.9,0.1c-2,6.8-3.9,13.6-5.9,20.4C41.6,72.9,43.2,72.9,44.7,72.9z M59.5,64.5c0.1,0,0.1,0,0.2-0.1c3.6-1.9,6.4-4.5,8.6-7.9c1.8-2.9,2.8-6,3.1-9.4c0.1-1.8,0.1-3.6-0.2-5.4c0-0.3-0.1-0.6-0.3-0.8 c-0.2-0.4-0.5-0.7-0.7-1c-0.1-0.1-0.2-0.2-0.4-0.2c-1.1,0-2.1,0-3.2,0c-0.2,0-0.3,0.1-0.3,0.3c-0.4,1.6-0.9,3.2-1.3,4.9 c-0.2,0.7-0.3,1.4-0.6,2c-0.6,1.3-1.8,1.8-3.1,1.8c-1.2,0-2.4,0-3.6,0c-0.2,0-0.3,0-0.4,0.2c-0.3,0.8-0.8,1.4-1.4,2 c-0.1,0.1-0.1,0.2-0.1,0.3c0.4,1.5,0.8,3,1.3,4.4c0,0.1,0.1,0.2,0.2,0.2c0.2,0,0.4,0,0.6,0.1c2.3,0.2,4.1,2.7,3.5,4.9 c-0.3,1.1-0.9,1.9-1.8,2.5c-0.1,0.1-0.2,0.2-0.2,0.3C59.3,64,59.4,64.2,59.5,64.5z M49.9,75c-3.1,0-6.2,0-9.3,0c-1.4,0-2.9,0-4.3,0 c-1,0-1.8,1-1.8,2c0,1,0.9,1.9,1.9,1.9c9.1,0,18.1,0,27.2,0c1.2,0,2.1-1.2,1.9-2.4c-0.2-0.9-1-1.6-2.1-1.6C58.8,75,54.4,75,49.9,75z M80.6,36.5c0.1-2.4-1.8-4.7-4.7-4.7c-2.5,0-4.6,2.1-4.7,4.5c-0.1,2.7,2.1,4.9,4.7,4.9C78.6,41.3,80.7,39,80.6,36.5z M69.2,35.4 c0,0-0.1,0-0.2,0c-1.7,0-3.3,0-5,0c-0.7,0-1.1,0.3-1.3,1c-0.6,2.3-1.2,4.6-1.9,6.9c-0.2,0.7-0.5,1-1.3,1c-3.2,0-6.4,0-9.6,0 c-0.7,0-1.2,0.5-1.2,1.2c0,0.7,0.5,1.2,1.2,1.2c3.8,0,7.6,0,11.3,0c0.1,0,0.3,0,0.4,0c0.6-0.1,0.8-0.6,0.9-1.2 c0.6-2.3,1.2-4.5,1.8-6.8c0.2-0.6,0.5-0.9,1.2-0.9c0.6,0,1.2,0,1.8,0c0.6,0,1.2,0,1.7,0C69.2,36.9,69.2,36.1,69.2,35.4z M54.9,42.1 c-1.3-2.2-4-3.3-6.7-2.6c-2.4,0.7-4.7,3-4.4,6.4c0.2,2.6,2.3,5.1,5.5,5.4c1.9,0.2,4.9-1.2,5.5-2.8c-0.1,0-0.3,0-0.4,0 c-1.5,0-2.9,0-4.4,0c-0.3,0-0.6,0-0.9-0.1c-1.8-0.4-2.9-2-2.5-3.8c0.2-1.3,1.5-2.5,2.9-2.6c1.6-0.1,3.3,0,4.9,0 C54.6,42.1,54.8,42.1,54.9,42.1z M53,72.9c-0.1-1.1-0.2-2.1-0.3-3.2c-0.1-1.3-0.3-2.6-0.4-3.9c-0.1-0.7-0.1-1.3-0.5-1.9 c-0.6-0.9-1.6-1.3-2.6-1c-0.9,0.3-1.5,1-1.6,1.9c-0.2,0.9-0.2,1.9-0.3,2.8c-0.1,1.4-0.3,2.7-0.4,4.1c0,0.4-0.1,0.8-0.1,1.2 C48.9,72.9,50.9,72.9,53,72.9z M55.9,40c0.6-0.6,0.8-1.4,0.4-2.1c-0.3-0.7-1.1-1.2-1.9-1.2c-0.8,0-1.5,0.5-1.7,1.1 C54,38.2,55,39,55.9,40z M43.1,54.8c-0.9-0.2-1.8,0.5-2.1,1.4c-0.3,0.9,0.2,2.1,1,2.3C42.4,57.2,42.8,56,43.1,54.8z M43.2,40.7 c-0.7-0.3-1.8,0.4-2.2,1.3c-0.3,0.9,0.1,2,0.8,2.2C42.1,43,42.5,41.8,43.2,40.7z M57.6,58.1c0.3,1.1,0.6,2.2,1,3.3 c0.5-0.5,0.7-1.1,0.6-1.8C59,58.8,58.5,58.3,57.6,58.1z M73.5,45.2c0.6-0.6,1.2-1.3,1.8-1.9c-0.5-0.1-1.2-0.3-1.9-0.4 C73.4,43.7,73.5,44.4,73.5,45.2z"></path> <path style="fill:#FFFFFF;" d="M45.8,33.8c0,2.3-1.8,4.1-4.1,4.1c-2.4,0-4.2-2-4.1-4.2c0-2.2,1.9-4.1,4.1-4 C44.2,29.7,45.9,31.8,45.8,33.8z M41.7,35.8c0.9,0.1,2-0.7,2-2c0-1.1-0.9-2-2-2c-1.1,0-2.1,0.9-2,2C39.7,34.9,40.6,35.8,41.7,35.8z"></path> <path style="fill:#FFFFFF;" d="M34.8,54.7c-2.2,0-4.1-1.9-4.1-4.1c0-2.4,2-4.1,4.1-4.1c2.1,0,4.1,1.7,4.1,4.1 C38.9,52.9,37.1,54.6,34.8,54.7z M34.8,52.6c1.1,0,2-0.9,2-1.9c0.1-1.1-0.8-2.1-2-2.1c-1.1,0-2,0.9-2,2 C32.8,51.7,33.6,52.6,34.8,52.6z"></path> <path style="fill:#FFFFFF;" d="M76.2,57.1c0.3-0.8,0.6-1.6,1-2.4c3.8,1.6,7.6,3.1,11.4,4.7c-0.3,0.8-0.6,1.6-1,2.4 C83.8,60.2,80,58.6,76.2,57.1z"></path> <path style="fill:#FFFFFF;" d="M86.1,49.8c0.2-0.6,0.5-1.2,0.7-1.8c1.8,0.7,3.5,1.4,5.3,2.2c-0.4,0.7-0.4,1.5-1.1,2 c-1.8,1.4-3.2,3.1-4.2,5c0,0,0,0.1-0.1,0.1c-0.7-0.3-1.4-0.6-2.1-0.9c0.5-1.4,2.5-3.6,4.8-5.4C88.3,50.7,87.2,50.3,86.1,49.8z"></path> <path style="fill:#FFFFFF;" d="M84.8,47c-1.1,2.7-2.2,5.5-3.4,8.2c-0.7-0.3-1.4-0.6-2.1-0.9c0.8-1.9,1.5-3.7,2.3-5.6 c-0.5-0.2-1-0.4-1.6-0.6c0.2-0.4,0.3-0.8,0.5-1.3c1,0.3,1.9,0.6,2.7-0.4C83.8,46.6,84.3,46.8,84.8,47z"></path> <path style="fill:#FFFFFF;" d="M17.6,33.6c0.7-0.2,1.4-0.4,2.1-0.6c0.1,0.1,0.1,0.2,0.1,0.2c0.2,0.4,0.4,0.5,0.8,0.4 c0.3-0.1,0.5-0.4,0.4-0.8c-0.1-0.5-0.3-1.1-0.4-1.6c-0.2,0.3-0.4,0.6-0.6,0.7c-1.1,0.7-2.5,0.9-3.2-0.8c-0.4-0.8-0.6-1.6-0.6-2.5 c0-1.1,0.6-1.9,1.6-2.3c0.5-0.2,1-0.3,1.5-0.4c1.1-0.2,1.9,0.3,2.5,1.3c0.2,0.4,0.5,0.9,0.6,1.4c0.3,1.1,0.7,2.2,0.9,3.3 c0.2,0.9,0.1,1.7-0.7,2.4c-1,0.8-2.1,1.1-3.4,1C18.4,35,17.9,34.4,17.6,33.6z M20.1,29.7C20.1,29.7,20.1,29.7,20.1,29.7 c-0.1-0.6-0.3-1.3-0.6-1.9c-0.2-0.4-0.4-0.5-0.7-0.4c-0.3,0.1-0.5,0.3-0.4,0.7c0.1,0.6,0.3,1.2,0.6,1.8c0.1,0.4,0.4,0.4,0.7,0.4 C19.9,30.3,20.1,30.1,20.1,29.7z"></path> <path style="fill:#FFFFFF;" d="M9.8,30.7c0-1.3,0.5-2.1,1.7-2.5c0.5-0.2,1-0.3,1.5-0.4c1-0.1,1.8,0.5,2.3,1.3 c0.8,1.3,1.2,2.8,1.5,4.3c0.1,0.4,0.1,0.8,0.1,1.2c0,0.9-0.4,1.5-1.2,1.9c-0.6,0.3-1.3,0.6-2.1,0.6c-1,0-1.6-0.5-2.1-1.3 c-0.7-1.2-1.1-2.5-1.4-3.8C9.9,31.6,9.9,31.2,9.8,30.7z M14.7,34.8c0-0.2-0.1-0.4-0.1-0.7c-0.3-1.1-0.6-2.2-1-3.2 c-0.1-0.4-0.3-0.8-0.5-1.1c-0.1-0.3-0.4-0.4-0.7-0.3c-0.3,0.1-0.5,0.3-0.4,0.6c0,0.3,0.1,0.6,0.2,0.9c0.3,1.2,0.7,2.3,1.1,3.5 c0.1,0.3,0.2,0.5,0.4,0.8c0.2,0.3,0.4,0.4,0.7,0.3C14.6,35.4,14.7,35.2,14.7,34.8z"></path> <path style="fill:#FFFFFF;" d="M24.4,35.1c0.3,0.9,0.5,1.7,0.8,2.5c-4.1,1.3-8.2,2.5-12.3,3.8c-0.3-0.8-0.5-1.7-0.8-2.5 C16.2,37.7,20.3,36.4,24.4,35.1z"></path> <path style="fill:#FFFFFF;" d="M51,56.9c0,0.3,0,0.6,0,0.9c0,0.6-0.5,1-1,1c-0.5,0-1-0.3-1-0.9c-0.1-0.7-0.1-1.3,0-2 c0.1-0.6,0.6-0.9,1.1-0.9c0.6,0.1,0.9,0.5,1,1.1C51,56.4,51,56.7,51,56.9z"></path> <path style="fill:#FFFFFF;" d="M68.1,52.9c0,2.3-1.8,4.1-4.1,4.1c-2.3,0-4.1-1.9-4.1-4.2c0-2.2,1.9-4.1,4.2-4 C66.4,48.8,68.1,50.7,68.1,52.9z M64,50.8c-1.2,0-2,0.9-2,2c0,1.1,0.9,2,2,2c1.1,0,2-0.9,2-2C66,51.7,65.1,50.8,64,50.8z"></path> </svg> 