<?xml version="1.0" encoding="UTF-8"?> <svg xmlns="http://www.w3.org/2000/svg" xmlns:xlink="http://www.w3.org/1999/xlink" version="1.1" id="Layer_1" x="0px" y="0px" viewBox="0 0 1000 1000" style="enable-background:new 0 0 1000 1000;" xml:space="preserve"> <path style="fill:#FFFFFF;" d="M982.5,396.4c-5.5,4.4-11.1,8.6-16.5,13.1c-11.3,9.7-22.8,19.2-33.7,29.3 c-12.6,11.8-24.8,24-36.9,36.3c-15.3,15.7-30.4,31.5-45.2,47.6c-6.4,7.1-11.1,15.8-17.6,22.8c-4.4,4.7-10.4,9.8-16.2,10.7 c-11.3,1.7-23.1,0.5-34.7,0.5c-0.3-1.1-0.7-2.1-1-3.2c28.7-28.8,57.3-57.6,85.9-86.3c-7.8-8.2-16-16.8-24.2-25.4 c13.5,0.5,27.4-6.1,40.4,3c1.7,1.2,6.7-0.1,8.5-1.9c12.1-11.6,23.7-23.8,35.6-35.6c1.9-1.9,4.5-3.2,6.9-4.9 c-1.7-7.2,6.3-8.6,9.1-13.3c13.2,0,26.4,0,39.6,0C982.5,391.6,982.5,394,982.5,396.4z"></path> <path style="fill:#FFFFFF;" d="M792,475.1c5.2,10.2,9.8,19.2,14.9,29.2c-10.1,0-19.1,0.2-28-0.2c-1.8-0.1-4.1-2.1-5.1-3.8 c-4.3-7.8-8.2-15.8-12.3-23.7c-0.6-1.2-1.9-2.1-3.6-3.9c-3.2,9.6-6,18.4-9.3,27.1c-0.7,1.9-3.4,4.4-5.2,4.4 c-32.7,0.3-65.4,0.2-99.1,0.2c6.8-19.6,12.9-38.7,20.1-57.3c1.3-3.3,7.5-6.5,11.6-6.6c18.5-0.7,37.2-1.2,55.7,0 c21.1,1.4,42.1-1,63.1,0c8,0.3,16.1-0.1,24,0.4c1.2,0.1,3.6,3.4,3.3,4.5c-2.7,8.9-5.7,17.8-9.2,26.4c-0.7,1.7-4.3,2.8-6.7,3.1 C802,475.4,797.7,475.1,792,475.1z M720.6,504.4c7.1-21.1,13.6-40.2,20-59.2c-0.6-0.5-1.2-1-1.9-1.5c-5.4,7.5-13.1,6.8-20.6,6.7 c-9-0.1-18.1-0.1-27.1,0c-1.7,0-4.5,0.5-4.9,1.5c-2.1,4.9-3.6,10-5.6,16.1c17.2,0,32.8,0,48.3,0c0,7.9-3.4,10.7-10.8,10.2 c-8.3-0.6-16.6-0.1-24.9-0.1c-16.9,0-16.9,0-21.4,15.7c-0.1,0.4,0.2,0.9,0.3,1.8c12.1,0,24.3,0.3,36.5-0.1 C714.2,495.3,718.5,496.1,720.6,504.4z M800.1,450.4c-9.1,0-17.6,0-26.1,0c-11.2,0-13.2,2.6-10.6,14.6c8.1,0,16.3,0.3,24.4-0.1 C798.8,464.5,800.5,462.4,800.1,450.4z"></path> <path style="fill:#FFFFFF;" d="M411.2,439.3c23.3,0,47,0,70.6,0c4.3,0,4.9,2.4,3.6,5.8c-5.6,14.6-11.4,29.2-16.9,43.9 c-1.9,4.9-3.2,10-4.8,15.3c-17.1,0-33.7,0.1-50.3-0.1c-1.8,0-3.9-1.4-5.5-2.7c-10.5-8.5-15-17.7-7.5-31.3 C405.6,461.2,407.5,450.5,411.2,439.3z M462.9,450.1c-5.3,0-8.7-0.1-12.1,0c-7.8,0.2-17.6-2.2-22.8,1.6c-5.4,4-6.2,14-8.9,21.4 c-1.2,3.3-3,7-2.6,10.2c1.3,9.5,21.3,17.2,29.2,11.7c0.5-0.4,0.8-1.2,1.1-1.8C452,479.4,457.2,465.5,462.9,450.1z"></path> <path style="fill:#FFFFFF;" d="M97,440.8c-3.3,9.8-6.1,18-9.3,27.4c10.6,0,20.3,0.2,29.9-0.2c1.7-0.1,4-2.3,4.7-4.1 c2.3-5.3,4.2-10.9,5.8-16.4c1.4-4.9,3.9-7.4,9.4-6.7c3.8,0.5,7.6,0.1,12.6,0.1c-5.8,17.2-11,33.2-16.6,49.2 c-5.3,15.2-5.5,15.1-21.8,14.5c-0.7,0-1.4-0.2-3.1-0.5c3-8.7,5.8-17.2,9.1-27c-10.9,0-20.8-0.2-30.7,0.2c-1.4,0-3.2,2.5-3.8,4.2 c-2.3,5.9-4.4,11.8-6,17.9c-1.2,4.4-3.5,5.7-7.8,5.4c-4.3-0.3-8.7-0.1-14.2-0.1c2.5-7.2,4.7-13.5,6.9-19.8 c4.3-12.1,8.9-24.1,12.8-36.4c1.8-5.8,4.6-8.5,10.9-7.7C89.1,441.1,92.5,440.8,97,440.8z"></path> <path style="fill:#FFFFFF;" d="M229,442.2c-5.6,4.4-11.1,8.1-19.1,7.6c-9.5-0.6-19,0.3-28.6,0.2c-5.3,0-8.7,1.4-9.5,7.3 c-0.4,3.2-2,6.3-3.4,10.3c16.3,0,31.9,0,48.5,0c-1.1,4-2,7-3,10.4c-16.5,0-32.6,0-49.1,0c-1.6,5.4-3.1,10.4-5.2,17.6 c13.1,0,25.2,0.3,37.3-0.1c6.4-0.2,9.4,2.6,10.8,8.8c-24.3,0-48.3,0-73.3,0c2.9-8.3,5.5-15.7,8.2-23.2c4.3-12,8.6-24.1,13.3-36 c0.8-2.1,3.9-4.6,6-4.6c22.2-0.3,44.3-0.2,66.5-0.2C228.6,440.9,228.8,441.6,229,442.2z"></path> <path style="fill:#FFFFFF;" d="M572.1,440.3c-4,12-8.2,23.1-11.5,34.5c-1.8,6.2-4.9,8-11.3,7.7c-12.4-0.6-24.9,0-37.4-0.3 c-4.8-0.1-7,1.7-8.2,6.1c-1.3,5.3-3.1,10.5-4.7,15.6c-6.9,0-13.4,0-20.7,0c5.9-16.6,11.4-32.6,17.2-48.4c5.5-15.2,5.6-15.2,22-15.2 C535.3,440.3,553.1,440.3,572.1,440.3z M509,472.2c10.9,0,20.8,0.1,30.8-0.1c1.2,0,3.1-1.4,3.6-2.6c2.3-6,4.2-12.1,6.7-19.3 c-10.9,0-20.6-0.1-30.3,0.1c-1.5,0-3.7,1.5-4.2,2.8C513.2,459,511.3,465.2,509,472.2z"></path> <path style="fill:#FFFFFF;" d="M333.1,495.5c17.6,0,33.6,0,51.3,0c-5,5.5-8.3,9.1-14.9,9c-19.5-0.4-39.1-0.2-59.4-0.2 c7.6-21.6,14.9-42.7,22.3-63.9c23,0,46.7,0,70.5,0c-4.6,5.7-9.2,9.2-16.5,8.8c-10.5-0.7-21-0.1-31.5-0.3c-3.9-0.1-5.9,0.9-7.2,5.1 C343.4,467.3,338.4,480.4,333.1,495.5z"></path> <path style="fill:#FFFFFF;" d="M610.6,504.1c-7.6,0-14.4,0-22.3,0c4.1-10.5,8-20.5,11.8-30.5c1.7-4.5,3.4-9,4.9-13.6 c1.7-5.2,0.2-8.4-5.9-8.3c-2.7,0-5.4,0.2-8.1-0.1c-6-0.7-9.6-3.8-9.5-10.8c25.5,0,50.7,0,77,0c-3.9,5.2-7.3,9.6-14.2,9.7 c-15.5,0.3-15.6,0.3-20.9,15.3C619.1,478.3,615,491.1,610.6,504.1z"></path> <path style="fill:#FFFFFF;" d="M213.6,504.4c5.5-14.8,10.7-28.5,15.5-42.4c2.1-6.2,3.3-12.8,5.2-20.2c5.4,0,12.6,0,20.5,0 c-5.6,17.5-11.2,34.6-17.1,53.2c13.6,0,26.3,0,40.6,0c-4.4,6.4-7.7,9.7-14.4,9.5C247.5,504.1,231.1,504.4,213.6,504.4z"></path> <path style="fill:#FFFFFF;" d="M324.3,441.5c-7.2,21.4-14,41.9-21,62.6c-6.4,0-12.7,0-20.3,0c2.4-6.9,4.6-13.2,6.9-19.6 c4.2-11.5,9-22.7,12.4-34.4c2-6.8,5.3-9.6,12.3-8.7C317.5,441.8,320.4,441.5,324.3,441.5z"></path> <path style="fill:#FFFFFF;" d="M891.5,489.9c6.4-5.7,11.9-10.9,17.7-15.7c1.2-1,4.5-1.5,5.4-0.7c8.7,7.6,17.2,15.5,25.6,23.4 c0.7,0.7,0.8,2.1,1.6,4.4c-12.5,0-24.4,1-36-0.5C901.1,500.3,897.2,494.4,891.5,489.9z"></path> <path style="fill:#FFFFFF;" d="M46.9,481.9c-0.6,16.5-9,22.4-26.7,17.7C29.7,493.4,38.1,487.8,46.9,481.9z"></path> <path style="fill:#FFFFFF;" d="M313.3,433.5c4.1-4.9,9-10.9,14.8-17.9c0.9,6.7,1.6,11.9,2.5,17.9 C323.7,433.5,317.2,433.5,313.3,433.5z"></path> </svg> 