<?xml version="1.0" encoding="UTF-8"?> <svg xmlns="http://www.w3.org/2000/svg" xmlns:xlink="http://www.w3.org/1999/xlink" version="1.1" id="Layer_1" x="0px" y="0px" viewBox="0 0 1000 1000" style="enable-background:new 0 0 1000 1000;" xml:space="preserve"> <path style="fill:#FFFFFF;" d="M34.3,606.2c1-8.7,2.1-17.4,2.9-26.1c0.9-10.2,0.9-20.5,2.3-30.6c1.1-8.2,3.8-16.1,5.5-24.3 c0.7-3.3,0.7-6.8,1-10.1c1.8-19,3.6-38,5.4-57.1c1.2-12.3,2.3-24.6,3.9-36.9c1.8-13.3,3.8-15.1,17.2-14.5 c35.8,1.6,69.8,9.5,99.9,30.2c45.9,31.6,46.8,93.7,17.7,130c-19.3,24.1-45.4,36.2-74.1,43.6c-23.8,6.2-48,5.7-72.2,2.5 c-3.4-0.4-6.4-3.5-9.6-5.3C34.3,607.1,34.3,606.6,34.3,606.2z M95.5,546.5c14.2,4.8,38.2-8.7,43.9-19.8c12-23.4,1.8-47-23.5-54.3 c-6.5-1.9-10.5,0.9-11.4,7.7c-1.4,11.3-2.8,22.5-4.3,33.8C98.8,524.8,97.1,535.7,95.5,546.5z"></path> <path style="fill:#FFFFFF;" d="M591.2,632.8c5.4-8.2,10.3-14.1,13.4-20.8c2.3-5,3.8-11.3,3.1-16.7c-0.5-4-4.7-8.2-8.3-10.8 c-5-3.7-10.9-6.1-17.1-9.5c0.8,5.4,2.1,10.3,2.3,15.2c0.2,6.7,0.1,13.6-0.8,20.2c-0.7,5.1-4.7,7.9-10.1,7.3c-2.5-0.3-5.8-0.9-7-2.6 c-0.9-1.2,1.2-4.5,1.9-6.8c0.7-2.2,2-4.3,2.2-6.6c0.6-6.8,1.3-13.6,1-20.4c-0.2-5.3-2.1-10.6-2.9-15.9c-0.6-3.7-0.7-7.4-1-11.2 c-0.2-2.5-0.2-5.1-0.9-7.4c-3.5-10.7-7.1-21.5-3.4-32.7c1.6-4.9,5-9.3,9.1-13.5c4,15.1,1.3,30.2,3.1,45c0.6,0.2,1.2,0.4,1.9,0.6 c4.8-6.5,10.4-12.6,13.9-19.7c1.7-3.4-0.5-8.9-1.5-13.3c-1.4-5.9-2.8-11.9-5.2-17.4c-2.3-5.4-5.8-10.4-9-16c9-3.6,18.5-3,27.4,0.4 c8.6,3.3,16.7,7.8,24.7,12.3c3.1,1.8,5,2.1,8.3,0.3c23.4-13,46.8-25.8,70.5-38.3c4.2-2.2,5.9-4.3,6-9.3c0.4-16.6,2.9-32.9,9.6-48.3 c5.9-13.5,14.8-24,30-27.3c1.2-0.3,2.2-1.1,3.4-1.3c8.9-1.7,12.5-6.7,10.9-15.8c-0.7-3.9-1.1-8.3,4.1-10.5c1-0.4,1.5-3.2,1.5-5 c0.2-6.6,0-13.1,0.1-19.7c0.3-12,6.7-18.3,18.5-19.1c4.7-0.3,10.1,2.3,13.9-3.9c1-1.6,6.8-0.2,11-0.2c0,9,0,17.9,0,27.1 c-3.9,0-7.7,0-12.1,0c0.4-5.6-3.7-6.7-7.8-5.2c-2.8,1-6.4,4.1-6.9,6.7c-1,5.9-0.3,12.1-0.3,18.6c11.4,1,5.3,10.6,8,17.2 c7.7-2.4,15.3-4.4,22.8-7.2c8.3-3,23.9,3.3,27.5,13.3c3.6,10.1,5,21.1,7,31.8c0.5,2.8,0.1,5.8,0.1,9.4c3.1,0,5.7,0.1,8.2,0 c18.1-0.6,36,0.7,53.5,5.8c39.5,11.7,58,36.4,56.7,77.3c-1.2,39-13.3,73.9-42.3,101.6c-19.1,18.2-41.9,29.6-67.4,36.1 c-4.1,1-7.9,3.3-11.8,5.1c-4,1.8-7.8,4.8-11.9,5.3c-19.5,2.2-38.6,8-58.5,5.2c-21-3-42-6.7-63.1-8.7c-8.5-0.8-16.9-1.1-25.2-3.6 c-7.8-2.4-14.4-5.6-17.5-13.9c-0.6-1.7-2.8-3.1-4.5-4c-13.4-6.6-25.3-8.3-36.8,5.3c-5.6,6.6-15.2,10.3-23.6,13.7 C604.7,633.2,598.3,632.3,591.2,632.8z M852.7,504.8c0-14.7-11.6-26.8-25.9-26.9c-14.6-0.2-26.6,12-26.6,27 c0,14.7,11.6,26.8,25.9,26.9C840.7,531.9,852.7,519.7,852.7,504.8z M747.8,533.2c11.3-0.2,20.4-9.9,20.1-21.6 c-0.2-11.4-9.3-20.6-20.3-20.6c-11.3,0-20.6,9.5-20.5,21.2C727.1,523.8,736.4,533.3,747.8,533.2z M684.3,546.3 c9.7,0.2,17.8-7.6,17.9-17.3c0.1-9.4-7.3-17.2-16.8-17.6c-9.7-0.4-17.9,7.2-18.2,16.9C666.8,538,674.6,546.1,684.3,546.3z M778.2,404.8c7.9,0,14.3-6.4,14.5-14.2c0.2-8.1-6.5-14.9-14.6-14.8c-7.9,0-14.3,6.4-14.5,14.2C763.4,398.1,770.1,404.8,778.2,404.8 z"></path> <path style="fill:#FFFFFF;" d="M418.4,601c10.2,1,20.4,1.9,31.9,3c-0.8,8.9-1.3,17.2-2.5,25.4c-0.7,4.9-3.8,7.6-9.1,7 c-16.3-1.9-32.7-3.5-49-5.7c-6-0.8-9.1-4.4-8.9-11c0.9-25,2.1-49.9,1.8-74.9c-0.1-8.1,2.2-17.6-4.3-24.3c-13.4,30.6-27.2,61-40,91.9 c-7.6,18.2-19.7,16.1-34.1,7.8c-3.2-1.9-5.3-7.5-6-11.7c-1.7-10.7-2.2-21.7-3.4-32.5c-1.3-11.4-3.3-22.8-4.2-34.2 c-0.7-8.1-0.1-16.3-1.2-24.9c-4.1,6.9-6.8,14.7-17.7,12c-2.9,17.4-5.7,34.3-8.3,51.2c-0.4,2.9-1.5,6.6,3.5,8.1 c1.4,0.4,2.3,4.1,2.7,6.3c0.4,2.1,0.1,4.4-0.2,6.5c-2.1,17.4-6.3,20.3-23.2,16.5c-8.2-1.9-16.4-3.8-24.7-5.6 c-6.5-1.5-9.8-4.6-9.2-12.1c1.1-12.9,4-17,16.2-19.3c2.3-17.3,4.7-34.9,6.8-52.6c0.2-1.6-1.8-4.1-3.4-5.1 c-7.4-4.2-10.3-20.8-4.1-26.8c1.2-1.2,3.4-2,5.2-2.1c15.4-0.2,30.9-0.4,46.3-0.1c2.4,0,4.7,3.2,7.2,3.7c4,0.7,8.3,0.5,12.4,0.4 c2.4,0,4.8-0.5,7.3-0.7c14.5-0.9,18,2,18.2,16.1c0.3,20.2,0.1,40.3,0.1,60.5c0.8,0.1,1.5,0.2,2.3,0.2c3.8-15.5,7.6-31,11.4-46.4 c1.3-5.1,2.4-10.4,4.3-15.3c2.8-6.9,7.8-10.6,15.9-10.1c10.1,0.7,18.4,4.1,22.7,9.3c7.5-1.2,13.8-2.8,20.3-3.3 c12.6-0.9,25.2-1.3,37.9-1.6c10.2-0.2,17.8,9.8,15.3,19.9c-3.1,12.5-5.4,14.4-18.4,14.4c-7.5,0-15.1,0-23.1,0 c-0.4,2.3-0.8,4.3-1.3,6.4c-1.3,6.5,1,9.8,8.1,8.8c1.7-0.2,3.4,0,5.1,0c16.2,0.2,19.8,4.1,16.3,19.6c-0.6,2.7-5.6,5.8-9,6.3 c-6.6,1-13.5,0.3-20.6,0.3c0,5.4,0,11.6,0,17.2L418.4,601z"></path> <path style="fill:#FFFFFF;" d="M236.2,343.2c1-3.9,1.8-7.9,3-11.7c2-6.5,4.1-12.9,6.3-19.3c3.7-10.5,7.3-21.1,11.4-31.5 c3-7.6,9.1-10.3,17-9.6c0.7,0.1,1.5,0.2,2.2,0.2c23.9,2.7,28.9,10.6,20.2,32.7c-10.5,26.4-21.3,52.7-31.6,79.2 c-1.5,3.8-1.8,8.5-1.3,12.6c2.8,19.7,6.3,39.4,9,59.1c2.1,15.1-1.9,20.7-16.7,25c-5.4,1.6-10.9,2.7-16.3,3.9 c-14.2,3-22.2-1.9-24.9-16.1c-2.8-14.5-4.5-29.2-6.8-43.7c-1.1-7.4-1.9-15-3.6-22.3c-0.9-3.8-2.6-7.9-5.2-10.7 c-18.9-20.6-38.2-40.9-57.3-61.4c-13.1-14-12.3-20.2,4.1-29.9c7.5-4.5,15.1-8.8,23-12.6c12.2-5.9,18.5-4.8,26.9,5.8 c10.4,13.2,19.9,27,29.8,40.5c2.4,3.3,5.2,6.4,7.8,9.6C234.1,343.1,235.1,343.1,236.2,343.2z"></path> <path style="fill:#FFFFFF;" d="M638.4,386.2c2.7-7.8,5.1-14.3,7.2-20.9c2.4-7.9,8.9-5.2,14-5.3c5-0.1,8,2.7,8.6,7.9 c1.3,10.3,2.8,20.6,4.3,31.9c2.2-8.3,4.2-15.9,6.3-23.5c1.5-5.3,3.2-10.6,4.5-16c1.6-7,7.7-10.5,13-10c5.9,0.6,11.6,5.1,16.7,8.8 c1.3,0.9,0.6,5.6-0.3,8.2c-8.9,26.9-18,53.8-27.2,80.7c-1.9,5.5-5.4,9-12,7.9c-9.2-1.5-14.1-6-15.2-14c-1.2-9.7-2.6-19.4-5.3-29.2 c-2.7,9.3-5.6,18.6-8.1,27.9c-2.3,8.4-7.9,13-16,14.9c-8.7,2.1-12.8-0.7-14.3-9.6c-2.7-15.9-5.4-31.7-8-47.6 c-2.2-13.5-4.4-27-6.5-40.5c-0.3-1.8,0-4,1-5.5c3.3-4.9,23.2-8.5,27.9-4.8c2.2,1.7,3.9,5,4.4,7.8C635.3,365.2,636.6,375,638.4,386.2 z"></path> <path style="fill:#FFFFFF;" d="M523.9,594.9c4.7,8.8,9.2,17,13.5,25.3c7.6,14.6,1.6,24.7-15.2,25.3c-2.6,0.1-5.3-0.2-8.9-0.4 c-4.1-13.1-8.2-26.4-12.3-39.6c-14.5,4.5-11.7,0.9-12.1,14.6c0,0.5,0,1,0,1.5c0,18.4-4.8,22.7-23.5,21.1c-5.2-0.5-7.4-3.2-7.1-8.1 c0.5-8.3,1.1-16.5,1.8-24.8c0.8-10.4,1.6-20.7,2.6-31.1c1.4-15.7,2.7-31.3,4.4-46.9c0.7-6.2,4.7-10,11.2-10.2 c14.9-0.6,29.7,0.1,43.6,6c17,7.1,29.3,20.6,25.4,37.7c-2.7,11.8-10.1,20.5-19.8,27.5C526.3,593.3,525.3,594,523.9,594.9z M488.8,580c11.8-0.6,21.6-3.2,27.8-13.6c2.6-4.3,2-7.5-1.6-10.8c-4.9-4.4-17.5-7-23.2-4.1c-1.5,0.7-2.8,3.2-2.8,4.9 C488.6,563.9,488.8,571.4,488.8,580z"></path> <path style="fill:#FFFFFF;" d="M599.7,395.4c-0.8,12.2-1.7,25.8-9.9,37.5c-19.6,28.1-57.1,27.7-77.6,0.1 c-11.5-15.5-13.3-45.2-0.6-62.5c20.2-27.4,50.3-32.3,76.8-6.7C594.6,369.8,599.8,384.7,599.7,395.4z M532.6,404.6 c-0.5,7.9,2.7,14.2,10,18.3c5.8,3.2,11.5,3.5,17-0.3c9.8-6.9,11.8-26.3,3.8-35.3c-1.5-1.8-3.7-3.2-5.8-4.2 C545.2,377.7,532.7,388.4,532.6,404.6z"></path> <path style="fill:#FFFFFF;" d="M322.5,385.7c6-0.5,11.6-0.9,17.1-1.3c5.8-0.4,8.8,2.5,8.9,8c0.1,5.8,2.4,12.9-6.6,14.5 c-5.7,1-11.5,1.4-17.7,2.2c0.6,4.5,1.2,8.4,1.9,13.3c6.5-1.1,12.7-2.2,18.8-3.1c11-1.7,15.1,0.1,16.3,13.9c0,0.5,0,1-0.1,1.5 c-1.1,18-1.7,18.6-19.8,18.5c-9-0.1-18-0.1-27-0.4c-11.7-0.4-15.1-3.6-16-15.3c-1.1-14.5-2.3-29-2.8-43.6 c-0.4-10.8,0.1-21.6,0.6-32.4c0.5-9.8,3.4-12.1,13.5-13.2c10-1.1,20-2.7,29.9-4.2c6.9-1,12.3,2,13.2,7.8c2,12.4-0.3,16.8-9.5,18.1 c-4.3,0.6-8.7,1.1-13,1.9C319.8,373.7,319.5,374.3,322.5,385.7z"></path> <path style="fill:#FFFFFF;" d="M396.6,427.6c7.6-0.6,14.5-1.2,21.4-1.6c1.8-0.1,3.9-0.5,5.5,0.1c9.8,4.4,3.3,13.9,5.9,20.7 c0.4,0.9-4.7,5.5-7.6,5.8c-13.2,1.6-26.6,2.5-39.9,3.4c-6,0.4-9.8-2.6-10.2-8.8c-0.9-13.7-1.6-27.5-2.3-41.3 c-0.7-15-1.4-30-1.8-45.1c-0.2-8.3,2.1-10.6,10.4-11.7c1.7-0.2,3.4-0.6,5-0.8c12-1.6,16.1,2.1,16.1,13.9c-0.1,18.9,0,37.8-0.1,56.8 C398.9,421.5,397.6,424,396.6,427.6z"></path> <path style="fill:#FFFFFF;" d="M468,425.6c6.8-0.8,12.3-1.3,17.9-2.1c10.1-1.4,14.2,1.9,14.2,11.9c0.1,14.6-2,16.6-16.6,17.6 c-9.2,0.6-18.4,1.5-27.6,2.3c-10.7,1-13.8-0.8-14.8-11.8c-1.4-15.9-1.9-32-2.3-48c-0.3-10.7,0.3-21.3,0.5-32 c0.1-9.4,1.8-11.3,11.2-12.3c1.7-0.2,3.4-0.2,5.1-0.4c9.4-1.5,12.5,1.1,12.3,10.4c-0.3,17.5-0.7,34.9-0.8,52.4 C467.1,417.5,467.7,421.3,468,425.6z"></path> </svg> 