<?xml version="1.0" encoding="UTF-8"?> <svg xmlns="http://www.w3.org/2000/svg" xmlns:xlink="http://www.w3.org/1999/xlink" version="1.1" id="Layer_1" x="0px" y="0px" viewBox="0 0 1000 1000" style="enable-background:new 0 0 1000 1000;" xml:space="preserve"> <path style="fill:#FFFFFF;" d="M10,568c0.4-1.1,0.9-2.3,1.3-3.4c0.5-1.6,0.8-3.2,2.6-4.6c0.8,1,1.6,1.8,2.3,2.7 c3,4.2,6.7,7.3,11.8,8.4c7.9,1.7,14.7-0.3,20.5-5.9c3.2-3.1,5.4-6.8,7.4-10.7c3.7-7.3,6.4-15,8.6-22.9c2.1-7.9,4-15.8,5.9-23.7 c0.5-1.9,0.8-3.8,0.9-5.8c0.4-4.6-0.6-7.4-4.2-12.4c5.4-3.3,8.6-8.5,10.9-14.2c1.9-4.7,3.4-9.5,4.5-14.5c3.2-14.9,6.3-29.9,9.2-44.9 c0.8-4,1-8.2,0.8-12.3c-0.4-8.7-6.6-14.4-15.3-14.6c-2,0-4.1,0-6.1,0c-0.6-2,0.6-3.1,1.6-4.2c3.6-3.7,8.2-5.4,13.2-6.4 c5.3-1.1,10.5-0.2,15.7,0.9c4.9,1,9.5,0.9,14.4-0.5c10.7-3,21.7-4.4,32.8-3.4c11.3,1,21.6,4.4,30.2,12.2c5.8,5.3,8.9,12.1,11,19.4 c3.3,11.1,3.4,22.4,1.6,33.7c-0.5,3.2-1.1,6.3-2,9.4c-3,10.5-7.9,20.1-14,29.2c-6.8,10.3-15.8,18.2-26.5,24.1 c-9.1,5.1-19,6.7-29.3,6.1c-3.7-0.2-6.7-1.7-8.8-5c-1.7-2.6-3-2.5-4.2,0.4c-0.7,1.7-1.2,3.5-1.7,5.3c-3.5,11.8-6.8,23.6-10.6,35.3 c-3.8,11.9-9.4,22.9-17.8,32.3c-5.4,6.1-11.8,10.9-19.3,14.2c-4.1,1.8-8.3,2.4-12.7,2.1c-3.8-0.2-7.6-0.6-11.4-0.4 c-9.2,0.6-20-8.3-21.8-17.5c-0.3-1.3-0.8-2.5-1.2-3.8C10,571.3,10,569.7,10,568z M161.9,426.2c0-1.8,0.1-3.5,0-5.3 c-0.1-1.2-0.4-2.5-0.6-3.7c-2.1-10.1-8.5-16.4-18.6-18.3c-1.6-0.3-3.3-0.5-4.9-0.5c-3.4,0-6.8,0.4-9.9,1.9c-2.2,1.1-2.6,1.8-2.1,4.2 c0.7,3.6,0.3,7.2-0.5,10.7c-3.6,15.7-7.2,31.4-10.7,47.1c-0.7,3.2-1.1,6.5-1.3,9.8c-0.2,2.3,0.8,4.4,3.1,5.2 c6.1,2.1,12.3,2.8,18.4,0.2c5.6-2.4,10.3-6.1,13.9-11.1c3.7-5.1,6.2-10.7,8.5-16.4C160.2,442.3,162.1,434.5,161.9,426.2z"></path> <path style="fill:#FFFFFF;" d="M524.1,223.2c2.2,0.2,4.5,0.4,6.7,0.4c4.9,0.1,4.9,0,6.7,4.6c2.4,6,3.7,12.3,4.5,18.6 c1.1,8.3,1.9,16.6,2.6,24.9c1.1,12.8,0.9,25.6,0.3,38.4c-0.7,15.6-2.2,31.1-6.6,46.1c-0.4,1.4-0.9,2.8-1.4,4.1 c-0.1,0.4-0.4,0.7-0.7,1.3c-0.9,0.1-2,0.2-3,0.2c-20.2,0-40.5,0-60.7,0c-3.3,0-3.3,0-4.3-3.1c-2.9-9.2-4.5-18.6-5.6-28.2 c-2-17.1-2.4-34.2-1.7-51.3c0.6-14.9,1.8-29.7,5.4-44.1c0.7-3,1.9-5.9,2.9-8.8c0.7-1.8,1.9-2.7,4-2.6c2.5,0.2,5,0,7.4-0.1 c0.8,0,1.6-0.3,2.3-0.4C496.9,223.2,510.5,223.2,524.1,223.2z M505.7,245.8c-1.9-1.5-3.7-2.9-5.5-4.3c-2.6-2.1-5.6-2-8.5-1 c-2.1,0.7-2.5,2-1.7,4.1c0.2,0.6,0.7,1.6,0.4,2c-1.1,1.6-0.3,2.9,0.4,4.3c1.4,2.9,2.1,5.8,1.3,9c-1.9,7.6-3.7,15.2-5.6,22.8 c-0.9,3.5-1.8,6.9-2.7,10.5c-0.9-0.1-1.6-0.1-2.1-0.3c-2.4-1-4.7-2-7.4-3.2c-0.3,1.2-0.8,2.3-0.8,3.4c0.1,2.4,0.5,4.8,0.7,7.2 c0,0.5-0.2,1-0.2,1.5c0,2.8,0,5.7,0.1,8.5c0,0.4,0.5,0.8,0.8,1.4c1.5-0.9,2.9-1.7,4.9-2.8c-0.6,2.8-1.1,5-1.6,7.2 c-2.1,7.7-4.3,15.4-10.7,20.9c-0.9,0.7-0.8,1.6-0.3,2.5c0.3,0.5,0.7,1,1.1,1.6c-0.9,1.1-2.3,2.1-1.1,3.8c0.9,1.3,2.2,1.5,3.5,1.5 c0.6,0,1.3-0.1,1.8-0.4c2-1,4.1-2,6-3.2c1.3-0.8,2.3-1.9,3.5-2.9c4.8,7.3,9.1,8.2,12.1,2.4c-1.9-1.4-1.4-3.2-0.1-4.9 c-0.6-0.9-1.1-1.7-1.5-2.5c-1.5-2.7-2.6-5.5-2.4-8.5c0.3-6.3,1.8-12.4,3.5-18.6c4.5,0,8.9,0,13.6,0c1.4,6.2,2.9,12.3,4.1,18.4 c0.5,2.9-0.1,5.9-1.7,8.3c-1.2,1.9-1.7,3.4-0.2,5c-0.6,1.2-1.1,2.1-1.5,2.9c0.8,1.7,1.9,2.8,3.6,3.3c3.9,1.1,8-0.2,10.5-3.5 c0.6-0.8,1.2-1.6,1.7-2.3c1.7,1.5,3.1,2.8,4.7,4c2.6,1.9,5.5,2.8,8.8,2.2c3.4-0.6,4.1-2.1,2-5c-0.1-0.1-0.1-0.4-0.1-0.6 c1.8-2.4,1.7-2.4-0.1-4.6c-1.3-1.6-2.6-3.3-3.6-5.1c-4.4-8-7-16.5-7.9-25.6c-0.3-2.9,0.1-5.8,2.2-8.2c0.3-0.4,0.4-0.9,0.6-1.4 c-0.6-0.7-1-1.4-1.5-2c0.6-1,1.1-2,1.7-3.1c-0.6-0.7-1.1-1.3-1.7-1.9c-2.7-2.5-4.8-5.5-5.9-9c-1.3-4.2-2.6-8.5-3.6-12.8 c-0.9-4.1-1-8.4-0.5-12.6c0.3-2.5,1.7-4.9,0.6-7.6c-0.1-0.3,0.2-0.8,0.3-1.2c0.9-3.8-1.2-6-5-5.3C510.6,241,507.3,243,505.7,245.8z"></path> <path style="fill:#FFFFFF;" d="M772,426.8c3.1-1.3,5.9-1.2,8.8-0.5c0.7,0.2,1.4,0.4,2,0.8c4.4,2.3,8.8,1.9,13-0.4 c4.8-2.6,10-3.1,15.4-2.5c1.9,0.2,3.7,1.1,5.8,1.8c-0.6,0.8-0.9,1.2-1.3,1.6c-4,3.8-6.4,8.6-8,13.8c-0.4,1.2-0.3,2.7-1.7,3.5 c-0.4,0.2-0.5,1.1-0.5,1.7c-1.2,7.9-2.3,15.9-3.6,24.5c1.3-0.9,2.3-1.4,3.1-2c5-3.8,9.2-8.3,13.2-13c2.9-3.4,5.7-6.8,8.6-10.2 c0.8-1,2-1.7,1.8-3.4c0-0.5,0.8-1.1,1.3-1.7c1.7-1.8,3.4-3.6,5.1-5.4c3-3.3,3-3.9,0.8-7.6c3.3-1.1,6.6-1.5,10-0.7 c2.6,0.6,5.2,1.3,7.8,2.1c2.2,0.6,4.3,0.6,6.3-0.3c2.6-1.1,5.1-2.3,7.8-3.1c2.4-0.8,5-1.4,7.5-1.6c3.4-0.2,6.1,1.3,8.2,3.6 c-4.7,4-9,8.5-14.1,11.7c-6.7,4.3-11.6,10.4-17.3,15.7c-4.6,4.3-8.8,9-13,13.7c-3.8,4.2-7.1,8.7-7.3,14.6c-0.1,3.7-0.1,7.5,0.2,11.1 c0.8,8.5,1.7,17,3,25.5c1.9,13.1,4.5,26,9.7,38.3c7.4,17.6,20.8,27,39.6,28.8c4.3,0.4,8.6,0.1,13,0.1c1.3,0,2.6-0.1,4.4-0.2 c-0.6,1-0.9,1.7-1.3,2.1c-2.5,1.9-4.9,4.2-7.8,5.6c-15.7,7.8-31.8,8.3-48,1.8c-9.7-3.9-16.5-11.1-21.9-19.9 c-5.5-9-8.7-18.9-11.3-29.1c-2.7-10.9-4.1-22.1-5.1-33.3c-0.2-1.7-0.2-3.5-0.5-5.2c-0.3-1.9-1.8-2.5-3.4-1.4 c-0.5,0.3-0.9,0.8-1.4,1.3c-5.7,5.5-9.8,11.9-11.9,19.6c-1.8,6.6-3.2,13.3-3.5,20.1c-0.3,5.7,0.3,11.3,2.2,16.8 c0.2,0.7,0.4,1.4,0.6,2.1c-1.7,1.5-3.5,1.4-5.3,0.8c-6-2-11.8-1.3-17.6,0.7c-2.4,0.9-5,1.4-7.5,1.9c-2.7,0.5-5.3,0-8.1-1.4 c0-0.3-0.1-0.6,0.1-0.9c4.3-7,6.3-14.8,7.9-22.7c1.5-7.5,2.9-15,4.3-22.5c0.9-5.1,0.2-9.9-3.2-14.2c1.1-0.9,2.2-1.8,3.2-2.5 c3.5-2.7,5.6-6.2,6.4-10.6c1.3-7,2.8-13.9,4-21c1.5-8.7,2.7-17.5,4.1-26.3c0.2-1,0.7-2-0.5-2.8c-0.3-0.2-0.3-1-0.2-1.5 C776.6,438.3,776,432.2,772,426.8z"></path> <path style="fill:#FFFFFF;" d="M683.7,425.8c-4.1,4.8-6.6,9.8-7.3,15.5c-0.7,5.2-0.1,10.3,1.2,15.3c0.5,2.1,1.2,4.2,1.9,6.2 c0.4,1.3,1.2,2.5,0.4,4.1c-0.3,0.6,0.2,1.8,0.6,2.6c2.5,5.3,5.1,10.6,7.7,15.9c3.1,6.4,6.2,12.9,8.1,19.8c0.7,2.5,0.7,2.4,3.1,2.5 c1-6.5,1.8-13.1,2.9-19.6c0.3-2,1.2-4,1.6-6c2.1-9.6,4.2-19.1,6.1-28.7c0.4-2.1,1.4-4.3-0.2-6.4c-0.2-0.3,0-1,0-1.5 c0.3-6.2,0.1-12.4-3-18.1c2.8-2.6,6-3.4,9.3-2.1c5.1,2,10.1,1.6,15.2,0c2.3-0.7,4.5-1.4,6.9-1.9c5.2-1.3,9.6,0.2,13.3,4 c-1.6,1.5-3.4,2.8-4.5,4.5c-2,3.2-3.5,6.7-5.3,10.1c-0.8,1.5-0.8,3.3-2.4,4.5c-0.9,0.7-1.1,2.4-1.4,3.7c-1.5,6.8-2.9,13.7-4.6,20.5 c-2.1,8.6-2.5,17.3-3.1,26.1c-0.1,1.4-0.2,2.9-0.4,4.3c-0.6,3.2,0.6,5.6,2.9,7.7c0.4,0.3,0.6,0.8,1.3,1.6c-1.3,1.2-2.8,2.2-3.9,3.5 c-2.5,2.9-4.1,6.4-5.4,10c-2.3,6.5-3.2,13.2-4.2,19.9c-0.5,3.1-0.9,6.1-1.2,9.2c-0.5,5.2-0.3,10.3,2.7,14.9 c-1.4,1.8-3.2,2.4-5.1,1.8c-5.9-1.9-11.9-0.7-17.8-0.4c-1.9,0.1-3.9,0-5.8-0.3c-2.3-0.4-2.8-1.1-3-3.6c-0.4-5.2-0.7-10.5-1.3-15.7 c-1.3-10.7-5-20.6-10.7-29.8c-4.9-7.8-9.7-15.6-13.2-24.2c-0.1-0.2-0.3-0.3-0.6-0.5c-1.6,1.2-2.3,3.1-2.8,4.9 c-1,4.2-2.1,8.4-2.7,12.7c-1.5,10.9-4.6,21.4-6.9,32.1c-1.2,5.4-1.7,10.8-0.4,16.3c0.4,1.9,1.2,3.7,1.9,5.9 c-0.9,0.1-1.8,0.3-2.6,0.3c-0.8,0-1.7-0.1-2.4-0.4c-5.6-2-11.1-1.4-16.7,0.3c-4.6,1.3-9.3,2.1-14.1,1.1c-1.3-0.3-2.5-0.8-3.9-1.3 c7.6-7.3,10.5-16.4,12.4-25.9c1.5-7.5,2.5-15.1,3.7-22.6c0.4-2.9-0.3-5.5-2.2-7.8c-0.8-1-1.6-1.9-2.4-3c0.5-0.6,0.8-1.3,1.3-1.8 c3.9-3.8,6.2-8.5,7.9-13.5c2.3-6.8,4-13.7,5-20.7c0.2-1.3,0.7-2.6-0.8-3.6c-0.2-0.1,0-1.2,0.1-1.7c1.1-6.7,2.3-13.4,3.5-20.1 c1-5.8,1.8-11.7,0.4-17.5c-0.3-1.4,0.3-2.3,1.2-2.8c0.7-0.4,1.9-0.4,2.7,0c1,0.4,1.3,1.6,0.9,2.7c-0.9,2.4,0,4.4,1.1,6.5 c0.6,1.2,1.2,2.4,1.8,3.6c1.2,2.3,2.4,2.5,4.4,0.8c0.8-0.7,1.5-1.7,2.3-2.5c3-3.4,5.9-6.9,8.9-10.3c0.6-0.7,1.7-1.3,2.6-1.4 c3.9-0.4,7.8-0.7,11.7-0.8C680.8,424.7,682,425.3,683.7,425.8z"></path> <path style="fill:#FFFFFF;" d="M513.5,567.1c-2.5,2.3-5.2,2.3-8.2,1.9c-3.4-0.5-6.9-0.7-10.9-1.1c0,0-0.4-0.6-0.7-1.2 c-3.4-6.1-10.6-7.2-15.7-2.5c-0.8,0.8-1.5,1.8-2.3,2.5c-0.3,0.3-1,0.1-1.6,0.1c0-0.5-0.1-0.7,0-0.9c6.1-7.4,8.7-16.3,10.9-25.4 c1.7-7.2,3-14.6,4.5-21.8c0.7-3.4,1.5-6.9,2.2-10.3c0.2-1.2,0.8-2.3-0.5-3.4c-0.4-0.3-0.2-1.4-0.2-2.1c0-1.2,0-2.4,0-4 c-1.5,0.4-2.6,0.5-3.6,1c-3.3,1.7-6.4,3.8-9.9,5.1c-5.4,2.1-10.4,5.6-16.4,6c-2.1,0.1-4.3-0.2-6.4-0.4c-0.7-0.1-1.4-0.3-2.5-0.6 c-1,2.5-2.3,4.9-2.9,7.4c-2.6,10-5.2,20-7.3,30.1c-1.2,5.7-1,11.6,2.5,16.7c0.2,0.3,0.3,0.7,0.4,1.2c-2.2,2.3-4.8,2.8-7.7,2.5 c-1.2-0.1-2.4-0.4-3.7-0.6c-4.1-0.8-8.2-0.5-12.3,0.3c-5,1-10.1,1-15-0.3c-1.3-0.3-2.5-0.9-3.7-1.5c0.1-0.5,0.1-0.9,0.3-1.1 c6.6-7.1,10.3-15.7,12.4-24.9c1.5-6.6,2.6-13.4,3.8-20.1c0.5-2.7-0.2-5.3-1-7.9c-0.2-0.6-0.5-1.4-0.9-1.5c-2.1-0.6-2.2-2.8-3.7-3.7 c0.1-0.4,0-0.6,0.1-0.8c5.9-6.1,8.9-13.5,10.7-21.6c0.3-1.2,0.4-2.5,0.8-3.6c0.3-0.9-0.1-2.4,1.7-2.3c0.2,0,0.6-0.8,0.7-1.2 c1.2-5.8,2.3-11.7,3.4-17.5c-1.2-5.5,1.4-10.6,1.6-16c0.3-6.2-0.2-12.2-2.9-17.8c-0.3-0.5-0.4-1.1-0.7-1.9c2.6-0.5,5-0.1,7.1,0.7 c6.9,2.4,13.7,2.4,20.7,0.5c6-1.7,12.2-1.9,18.4-0.4c0.5,0.1,0.9,0.3,1.8,0.5c-1.4,1.6-2.3,3-3.6,4.1c-3.3,2.9-5.4,6.5-6.9,10.5 c-1.3,3.6-2.3,7.3-3.5,10.9c-0.7,2.2-0.6,4.6-2.2,6.6c-0.8,1-0.7,2.8-0.9,4.2c-1.4,8.6-2.9,17.2-4.4,26.1c1.2-0.1,2.5,0,3.8-0.3 c3-0.9,5.9-1.9,8.7-3.1c2.9-1.3,5.7-2.9,8.5-4.5c0.7-0.4,2.2-0.4,1.4-2c0-0.1,0.7-0.7,1.1-0.9c4-2,8.2-3.3,12.8-3.4 c2.9-0.1,3.2-0.1,3.8-2.9c1.4-5.8,2.6-11.7,3.6-17.6c0.8-5,1.2-10,1.7-15.1c0-0.4-0.1-1,0.1-1.2c1.8-1.6,1.1-3.5,0.9-5.4 c-0.1-1.4,0.3-2.8,0.4-4.1c2.6-0.8,4.8,0.2,7,0.5c2.4,0.3,4.9,0.8,7.3,0.9c1.3,0.1,2.2,0.6,2.8,1.6c2.1,3.4,4.2,6.8,6.4,10.2 c0.6,1,1.3,2.1,2.2,2.9c0.9,0.8,2,0.4,2.4-0.8c0.3-0.9,0.5-1.8,0.5-2.7c0-4.6,0-9.2,0-14c3.1-1.4,6.4,0.1,10.4-0.4 c-1.2,2.1-2.2,3.6-3,5.2c-0.6,1.1-1.6,2.1-0.8,3.6c0.2,0.3-0.2,1-0.4,1.4c-4.4,9.8-6.5,20.2-8.5,30.7c-1.7,8.5-3.2,17-4.7,25.6 c-0.5,2.9-0.4,6-0.6,8.9c-0.1,1.1-0.4,2.2-0.3,3.3c0.2,1.3,0.7,2.5,1.1,3.7c0.2,0.5,0.4,0.9,0.7,1.5c-0.7,0.5-1.2,1-1.8,1.3 c-2.8,1.6-4.4,4.1-5,7.1c-2.3,11.4-4.6,22.9-6.9,34.3C510.1,557.2,510.3,562.3,513.5,567.1z"></path> <path style="fill:#FFFFFF;" d="M228.6,424.8c3.8,0,7.2,0.3,10.6-0.1c6.7-0.7,13.3-1.7,19.9-2.8c8.2-1.5,16-0.6,23.4,3.4 c1.6,0.9,3.2,1.9,4.6,3.1c1.7,1.3,2.6,3.1,2.7,5.6c-1.3,0.1-2.5,0.1-3.7,0.3c-4.8,0.7-8.4,3.1-10.2,7.6c-1.3,3-2.2,6.2-2.7,9.5 c-0.6,3.9-0.8,7.8-0.9,11.7c-0.2,8.3-0.2,16.5-0.5,24.8c-0.1,2.5-1.3,5-0.6,7.6c0.2,0.9-0.1,1.9,1,2.3c0.3,0.1,0.5,0.8,0.6,1.3 c1.4,5.6,1.4,5.6,4.9,9.5c-3.4,2.9-4.4,7-5.1,11.2c-0.3,2.4-1.8,4.5-1.7,7c0.2,4.2,0,8.5,0.2,12.7c0.2,7.4,0.3,14.9,1.9,22.2 c0.4,2,1,4,1.5,6.1c-1.7,1.4-3.7,1.2-5.6,0.9c-5.8-1-11.5-0.6-17.1,1.2c-3.8,1.2-7.7,1.4-11.6,0.3c-0.5-0.1-0.9-0.4-1.5-0.7 c6.2-9.1,6.7-19.4,7-29.8c0.1-2.3,0.2-4.5,0.1-6.8c-0.1-2.7-1.3-3.5-3.8-2.6c-5.3,1.9-10.6,4.1-16.1,5.6c-3.7,1-7.7,1.3-11.6,1.7 c-4.8,0.4-8.4,2.6-11,6.6c-2,3-4.1,6-5.9,9.1c-2.1,3.7-3.2,7.6-2,11.9c0.1,0.3-0.1,0.6-0.1,1c-8.4-0.6-16.6,1.1-24.9,2 c-5.2,0.5-10.4,1.1-15.7,0.4c-7-1-11.3-4.9-12.4-11.8c-0.1-1,0-2,0-2.9c0.5-0.1,0.8-0.3,0.9-0.2c10.4,4.3,20.9,1.7,28.1-7 c4.2-5.1,7.1-10.9,10.1-16.6c0.2-0.4,0.5-0.9,0.3-1.1c-1.2-1.8,0.3-3.1,0.9-4.5c0.9-2,1.9-3.9,2.7-5.9c1-2.5,0.8-4.8-1.3-6.8 c-0.4-0.3-0.5-0.8-0.7-1.1c3.2-2.5,5.9-5.7,9.3-7.2c3.5-1.5,5.8-4.1,6.9-7c1.7-4.7,4.8-8.5,7-12.7c6.4-12.1,13.2-24.1,18.5-36.8 C227.8,439.6,229.6,432.5,228.6,424.8z M221.8,514.9c3.7-2.8,7.5-3.5,11.1-4.6c2.8-0.8,5.5-1.7,8.2-2.7c1.6-0.6,2.4-1.7,2.3-3.6 c0-1.6-0.1-3.6,0.8-4.7c1.9-2.3,1.3-4.9,0.6-6.9c-0.6-1.7-0.8-3.2-0.9-4.9c-0.1-3.9-0.1-7.8-0.2-11.8c-0.1-2.7-0.4-5.4-0.6-8.7 c-0.5,1-0.8,1.3-0.9,1.6c-3.2,7.1-6.4,14.3-9.7,21.4c-0.5,1.1-1.5,1.9-2.1,2.9c-1.2,2.1-2.8,4.3-3.1,6.6c-0.2,1.6-0.6,3.1-1.2,4.5 c-1.1,2.6-2.3,5.1-3.3,7.7C222.4,512.5,222.2,513.4,221.8,514.9z"></path> <path style="fill:#FFFFFF;" d="M871,505.8c1.6-1.2,3.4-2.3,5-3.6c2.3-1.9,3.8-4.2,4.4-7.2c1.7-9.4,3.4-18.9,5.4-28.2 c1.9-8.9,5.4-17.1,11.4-24.1c2.4-5.5,7.2-8.5,12-11.4c4.9-3,10.1-5.1,15.6-6.6c14.4-3.8,28.6-3.4,42.4,2.6c2.3,1,4.4,2.3,6.4,3.7 c2,1.4,4.3,2.6,4.7,5.4c0.1,0.5,0.8,0.9,1.2,1.4c3.9,4.9,5.9,10.5,6.1,16.8c0.4,9.8-1.4,19.3-3.4,28.8c-0.6,2.7-1,5.5-1.7,8.2 c-1,4.2,0,7.7,2.8,10.9c0.3,0.3,0.5,0.6,0.9,1.1c-5.7,8.2-8.2,17.9-11.5,27.2c-7.6,21.5-23.4,32.8-45.2,36.7 c-8.4,1.5-16.9,1.1-25.2-0.7c-15-3.3-26.6-14.8-28.3-31.7c-0.4-3.6,0.2-7.4,0.6-11.1C875.4,515.9,874.8,512.4,871,505.8z M945.5,502.9c4.7-3.4,7.1-7.7,8.2-12.8c0.4-1.7,0.8-3.4,1.2-5.1c1.6-7.5,3.1-14.9,2.8-22.6c-0.4-12.2-9-18-18.5-17.6 c-6.5,0.2-11.9,3-16.4,7.7c-4.5,4.7-7,10.5-8.4,16.7c-1.5,6.4-2.7,12.9-3.7,19.4c-0.7,4.4-0.8,8.9,2.7,12.3 c-3.8,3.7-5.4,5.6-6.4,8.9c-1.9,6.7-3.2,13.5-2.7,20.5c0.4,5.6,2.7,10.2,8.2,12.6c7.3,3.1,17.7,3.1,24.8-4.7c1.5-1.7,3-3.5,4.1-5.4 c3.7-6.2,6.1-12.8,7.1-20C949,508.9,948.9,505.7,945.5,502.9z"></path> <path style="fill:#FFFFFF;" d="M375.3,516.3c3-1,5.5,0,7.7,1.2c5.7,3.2,8.8,8.2,9.8,14.6c1,6.4-0.7,12.3-4.2,17.7 c-6.3,9.6-15.3,15.5-26.5,18c-13.7,3.1-27.1,2.2-40-3.5c-4.9-2.1-9.2-5.1-13-8.9c-6.8-7.1-9.6-15.7-9.4-25.4c0-2.1,0.4-4.1,0.4-6.2 c0-2.2,1-4.5-0.9-6.4c-0.1-0.1-0.1-0.4-0.1-0.6c-0.4-2-0.5-4.1-1.2-6c-0.6-1.8-1.7-3.4-2.7-5.3c0.7-0.7,1.4-1.4,2-2.2 c3-3.3,5.2-7.2,6.7-11.4c0.4-1.3,0.3-2.8,2.1-3.5c0.4-0.1,0.3-1.9,0.3-2.9c0-0.6-0.4-1.2-0.3-1.7c1.6-8.2,2.8-16.5,4.9-24.6 c3.3-12.7,10.2-23.2,21.3-30.6c8.7-5.8,18.4-8.6,28.9-8.9c6.5-0.2,13,0.2,19.3,2c12.4,3.4,22,10.5,27.4,22.3 c4.8,10.4,3.8,20.5-2.7,29.9c-1.3,1.8-3.1,3.3-4.7,4.9c-0.3,0.3-0.6,0.6-1,0.7c-5.9,1.8-11.4,5-17.9,4c-1.9-0.3-3.9-0.5-5.8-0.9 c-1.9-0.4-3.8-1-5.6-1.5c-3.1-1-5.5-5.2-5-9.2c1.8-0.2,3.6-0.2,5.4-0.7c2.3-0.5,4.7-1.1,6.7-2.1c4.9-2.5,6.6-7.4,5-12.6 c-2.6-8-10.9-12.8-19.1-10.9c-7.8,1.8-13.6,6.2-17.2,13.5c-3.1,6.2-5,12.9-6.8,19.5c-0.5,1.9-0.3,4.1-2.3,5.5 c-0.5,0.3-0.7,1.9-0.4,2.3c1.5,1.4,0.8,3.1,0.7,4.6c-0.1,2.5,0.4,4.6,2.4,6.4c0.9,0.8,1.5,1.9,2,2.5c-2.5,2.9-4.8,5.5-6.9,8.3 c-1,1.4-1.5,3.1-2.3,4.7c-0.7,1.3-0.6,3.1-2.2,4c-0.3,0.2-0.3,0.7-0.4,1.1c-1.2,6-1.2,11.9,1.9,17.4c3,5.4,7.9,8,13.8,8.8 c5.8,0.8,11.5,0.1,17-2c7.7-2.9,14.4-11.1,12.9-22.6C375.4,518.6,375.4,517.5,375.3,516.3z"></path> <path style="fill:#FFFFFF;" d="M606.5,318.4c-0.6,0.7-1.2,1.4-1.8,2.3c0.4,0.7,0.8,1.2,1.2,1.8c2,3.3,1.2,6.8-2.2,9.3 c-2.5,1.8-7.2,1.1-9.2-1.4c-1.5-1.8-2.1-3.7-1.6-6.3c1.3-7.3,5.2-12.9,10.2-18c1-1,2.1-1.9,3.1-2.8c-0.1-2.1-1.6-3.9,0-5.6 c0.1-0.1,0-0.6-0.2-0.9c-1.2-2.2-0.7-4.5-0.3-6.7c2.3-12.1,6.8-23.4,13.7-33.6c0.4-0.6,0.8-1.3,0.8-1.9c0-2.4,0.3-4.9-0.3-7.1 c-0.5-2.1-3-2.7-5.2-1.7c-1.1,0.5-2.1,1.3-3.1,2c-5,3.7-10,3.9-15.2,0.5c-4.2-2.6-8.7-3.8-13.6-2.9c-3.1,0.6-4.6,1.4-7.6,4.3 c-1-0.9-2.1-1.8-3.2-2.7c-2-1.7-4.3-2.5-6.9-2.2c-1.3,0.1-2.4,0.5-3.1,2.1c0.7,0.8,1.5,1.7,2.3,2.7c-0.8,0.7-1.5,1.4-2.4,2.2 c2.4,2.4,4.6,4.9,5.4,8.2c0.8,3.7-1,6.4-3.5,9.1c0.7,0.8,1.4,1.6,2.2,2.5c-0.6,0.8-1.2,1.6-1.8,2.5c2.3,2.9,4,2.8,9.9-0.6 c5.9,3.4,7.1,3.5,9.6,0.8c-0.6-0.8-1.1-1.6-1.7-2.5c0.8-0.6,1.6-1.2,2.4-1.8c-1.2-1.9-2.3-3.1-3-4.6c-1.1-2.2-0.6-3.4,1.6-4.4 c3.3-1.5,8.4-0.4,10.9,2.3c1.6,1.8,1.9,3.8,1.5,6.1c-1,5.5-3.9,10-7.4,14.1c-1.2,1.4-2.6,2.6-3.9,4c-0.5,0.6-1.4,1.5-1.2,2 c0.7,1.8-0.1,3.7,0.3,5.3c0.7,3.1,0.1,6-0.8,8.8c-1.1,3.5-2.3,7.1-3.9,10.4c-3.4,7.1-7.3,13.9-12.5,19.9c-0.6,0.7-1.2,1.5-1.9,2 c-1.9,1.4-2.6,3.1-1.8,5.4c0.2,0.6-0.1,1.4-0.3,2.1c-0.7,3.5,1.7,5.7,5.1,4.7c1.8-0.6,3.5-1.7,5.2-2.7c1.5-0.8,3-1.8,4.6-2.4 c4-1.6,7.9-1.4,11.6,0.9c3.3,2,6.9,2.8,10.6,2.8c4.4,0.1,7.3-1.4,11.8-5.6c2.8,3.5,5.6,6.9,11,3.3c-0.2,1.1-0.3,1.9-0.6,2.6 c-1.3,3.5-2.6,7-3.8,10.5c-0.6,1.7-1.6,2.4-3.4,2.4c-13.8,0.4-27.7,0.9-41.5,1.3c-7.3,0.2-14.7,0.4-22,0.6c-1,0-2,0-3.3,0 c0.2-0.8,0.2-1.3,0.4-1.8c4.2-9,6.1-18.6,7.8-28.3c3.2-17.7,3.5-35.5,2.5-53.4c-0.8-13.4-2.7-26.7-6-39.7c-1.1-4.4-3.2-8.4-5.2-12.5 c-0.2-0.4-0.4-0.9-0.8-1.6c1-0.1,1.8-0.2,2.6-0.1c9.2,0.4,18.4,0.6,27.6,1.1c12.5,0.7,24.9,1.7,37.4,2.4c1.6,0.1,2.2,1,2.7,2.2 c2.1,5.4,4.5,10.7,6.2,16.2c3.2,10.4,4.9,21.1,5.9,31.9c0.9,9.5,0.8,19,0.4,28.5c-0.4,9-1.7,17.9-3.7,26.6c-0.1,0.5-0.3,1-0.6,1.6 c-1.6,0-3.1,0-4.7,0c-2.3-5.3-0.8-9.9,2.6-14.3c-0.5-0.7-1.1-1.4-1.7-2.2c0.5-0.9,1.1-1.8,1.7-2.8c-2.4-2.8-4.2-2.6-8.8,1.1 c-1.8-1.1-3.5-3.1-6-2.6c-1,0.2-1.9,1-2.9,1.6C605.5,316.6,606,317.5,606.5,318.4z"></path> <path style="fill:#FFFFFF;" d="M550.3,416.8c-0.9,2.4-1.9,4.7-2.6,7.2c-0.5,2-1.3,3.4-3.7,3.6c-0.5-2.5,0.3-5,1.3-7.1 c1.7-3.8,1.7-7.2-0.8-10.6c-0.1-0.2-0.2-0.3-0.5-0.8c-1.7-0.1-3.6-0.3-5.5-0.4c-0.1-0.2-0.1-0.5-0.2-0.7c1.1-0.6,2.2-1.3,3.4-1.9 c1.4-0.7,2.2-1.6,2.2-3.3c0-1.3,0.4-2.7,0.9-3.9c0.5-1.2,0.3-2.1-0.5-2.8c-2-1.8-4-3.6-6.1-5.2c-4.2-3.2-8.5-6.2-12.7-9.4 c-0.5-0.3-0.8-0.8-0.9-1.8c0.7,0.2,1.5,0.2,2.1,0.6c4.1,2.3,8.1,4.6,12.1,6.9c2.2,1.3,4.5,2.6,6.8,3.8c2.4,1.2,4.7,1.6,7-1 c0-1.8,0-3.9,0-6.3c1.6,0.7,1.9,2.1,2.6,3.1c0.7,1.1,1.5,1.6,2.8,1.5c3.7-0.4,6.9,0.6,9.8,2.9c1.3,1,2.5,1.1,4,0.4 c6.4-2.6,13.1-3.8,20-3.4c6.6,0.4,12.8,2.1,18.6,5.1c0.3,0.2,0.6,0.5,1,0.8c-1.6,1.7-3,1.7-5,0.9c-9.2-4-18.7-4.6-28.4-2 c-1.1,0.3-2.1,0.7-3.2,1.1c-0.6,0.2-1.1,0.5-1.5,1.3c1-0.3,2-0.5,3-0.8c4.5-1.4,9-2.4,13.7-2.1c16.9,0.9,29.4,8.8,36.8,24.1 c1.1,2.3,1.1,5.1,2,7.6c4.1,11,1.4,21-3.8,30.8c-1.3,2.4-2.8,4.4-6.1,4c-1-0.1-2.3,1.2-3.2,2.2c-0.6,0.7-1.1,2-0.8,2.7 c0.5,1.3,1.6,2.4,2.5,3.5c0.4,0.6,1,1.1,1.5,1.7c-0.1,0.2-0.3,0.4-0.4,0.6c-0.7-0.3-1.5-0.5-2.1-0.9c-1.9-1.4-3.4-0.8-5,0.5 c-2.5,1.9-5.4,2.7-8.4,3.5c-0.2,0.1-0.5-0.3-1-0.5c0.7-0.6,1.3-1,1.9-1.5c-1.1-1.1-2.2-2.1-3.5-3.4c-0.7,2-1.1,3.4,1.4,4.4 c-3.8,1.8-7.2,2.2-10.7,2.3c-12.8,0.4-23.3-4.6-32.4-13.5c-4.9-4.7-7.8-10.2-9.4-16.6c-1.9-7.1-1.7-14.3,0.3-21.4 c0.5-1.9,1.1-3.7,1.6-5.6C550.7,417,550.5,416.9,550.3,416.8z M578.7,407.7c12.9-3.5,24.5-1.7,33,9.1c8.6,10.8,8.3,22.5,1.7,34.4 c0.7-0.4,1.1-0.8,1.4-1.2c2.2-3.3,3.4-7,4.2-10.9c0.5-2.3,1.2-2.9,3.6-3.1c0.2-16.8-6.7-28.3-23.1-33.9c-1.1,1-2.3,2-3.3,2.9 c-1-0.2-1.8-0.3-2.6-0.4c-4.2-0.6-8.4-0.4-12.5,0.8C580.1,405.6,578.8,405.7,578.7,407.7z M592.2,464.5c0-0.1,0-0.3-0.1-0.4 c-2.4-0.3-4.8-0.4-7.2-0.9c-2.4-0.5-4.9-1.1-7.1-2.1c-2.2-1-4.4-2.3-6.3-3.8c-1.9-1.4-3.5-3.2-5.2-4.8c-0.1,0.1-0.2,0.2-0.3,0.4 c1.5,1.7,3,3.4,4.7,5.3c-0.6,0.4-1.3,0.9-1.8,1.3c-0.2,2.1,1,3.1,2.5,4c7.3,4.5,15.2,5.5,23.5,4.6c0.4,0,0.8-0.4,1.2-0.6 c-5.8,0.1-11.6,0.5-17.2-2c1.2-1.5,2.3-2,4-1.7C585.9,464.1,589,464.2,592.2,464.5z M559.8,442c1.9,3,2.5,6.3,4.9,8.6 c-4.5-8.1-5.5-16.5-2.7-25.4c0.1-0.3-0.1-0.7-0.3-1.6c-1.8,2.4-1.9,4.6-2.3,6.8c-1.4,0.6-2.7,1.3-4.1,1.9c0,3.8,0.4,7.5,1.9,11.2 C558.2,442.9,558.9,442.5,559.8,442z M576.8,401.2c2.8-0.6,5.1-1.2,7.3-1.7c0.1-1.6,0.2-3,0.2-4.3c-2.4-0.5-7.5,0.6-7.4,1.5 c0.5,0.1,0.9,0.2,1.4,0.3C579.2,398.7,577.8,399.7,576.8,401.2z M617,458.5c-3.1-1.4-0.6-3.1-0.6-5c-1.9,1.8-3.2,3.4-2.3,6 C614.9,459.3,615.7,459,617,458.5z M554.4,416.9c-0.2,0.3-0.4,0.6-0.6,0.9c0.8,0.4,0.9,1.9,2.8,1 C555.8,418.1,555.1,417.5,554.4,416.9z M603.4,398.5c-0.2-0.1-0.4-0.3-0.5-0.4c-0.4,0.5-0.9,0.9-1.3,1.5c-0.1,0.1,0.2,0.4,0.4,0.9 C602.5,399.7,603,399.1,603.4,398.5z M586.7,395.8c-1.1,0.9-1.1,0.9-0.7,2.6C586.3,397.2,586.5,396.5,586.7,395.8z M609.6,401.8 c-0.2-0.2-0.4-0.4-0.5-0.6c-0.5,0.5-1.1,1-1.6,1.5c0.1,0.2,0.3,0.3,0.4,0.5C608.5,402.7,609,402.2,609.6,401.8z M604.4,400.9 c0.2,0.2,0.4,0.4,0.6,0.6c0.5-0.5,1-1,1.6-1.5c-0.2-0.2-0.5-0.5-0.7-0.7C605.4,399.8,604.9,400.3,604.4,400.9z M598.1,398.8 c0.2,0.1,0.3,0.3,0.5,0.4c0.3-0.2,0.7-0.4,0.8-0.7c0.2-0.3,0.2-0.8,0.3-1.1c-0.1,0-0.2-0.1-0.4-0.1 C598.9,397.7,598.5,398.3,598.1,398.8z M594.9,398.1c0.2,0.1,0.5,0.2,0.7,0.4c0.3-0.7,0.7-1.4,1-2c-0.2-0.1-0.4-0.2-0.6-0.3 C595.7,396.8,595.3,397.5,594.9,398.1z M597.5,469.6c-0.2,0-0.5,0-0.7,0c0,0.5,0.1,1,0.1,1.5c0.1,0,0.3,0,0.4,0 C597.4,470.6,597.4,470.1,597.5,469.6z M610.3,404.2c0.1,0.2,0.2,0.4,0.3,0.6c0.5-0.3,1-0.6,1.5-1c-0.1-0.1-0.2-0.3-0.2-0.4 C611.4,403.7,610.9,404,610.3,404.2z M593.2,396.1c-0.2-0.1-0.5-0.2-0.7-0.3c-0.2,0.7-0.5,1.3-0.7,2c0.2,0.1,0.4,0.2,0.6,0.2 C592.7,397.4,593,396.7,593.2,396.1z M589.9,396c-0.2-0.1-0.5-0.2-0.7-0.3c-0.2,0.7-0.4,1.3-0.6,2c0.2,0.1,0.3,0.1,0.5,0.2 C589.3,397.2,589.6,396.6,589.9,396z"></path> <path style="fill:#FFFFFF;" d="M658.1,334.7c0.4,0.7,0.7,1.4,1.1,2.1c-1.6,2.9-0.9,4.4,2.3,4.6c3,0.2,5.4-1.3,7.5-3.1 c1.1-0.9,2.1-1.9,3.1-2.9c4.7,5.7,8,6.2,11.9,1.4c-0.4-1.3-1.4-2.7-0.2-4.3c0.2-0.2-0.1-1-0.4-1.4c-2.5-4.7-2.2-9.7-1.7-14.8 c0.7-6.3,3.2-11.5,8.5-15.5c-2-1.9,0-3.8-0.2-6.1c4.6,1.9,9.1,3.6,13.8,5.6c-0.2,3-0.4,5.8-0.7,8.7c-1.4,11-3.4,21.8-7.4,32.2 c-1.5,3.9-3.7,7.6-5.5,11.4c-0.7,1.3-1.8,1.9-3.2,2c-18.3,1.3-36.7,2.7-55,4c-1,0.1-2,0-3.3,0c0.4-0.8,0.5-1.3,0.8-1.7 c3.6-6.2,5.8-13,7.6-19.9c2.9-11.2,4.1-22.7,4.5-34.3c0.4-13.1-0.3-26-2.7-38.8c-1.3-6.9-3-13.7-5.2-20.4c-1.3-4.2-3.8-8-5.8-11.9 c-0.4-0.8-0.9-1.6-1.5-2.7c2.9,0.3,5.4,0.4,8,0.7c11,1.3,21.9,2.7,32.9,4.1c5,0.7,10,1.6,15,2.4c1.9,0.3,3.9,0.8,5.8,0.8 c4.4-0.1,6.9,2.3,8.7,5.8c2.4,4.7,3.8,9.8,4.8,15c1.7,8.5,2.6,17.1,2.6,25.8c0,1,0.1,2,0.2,3.4c10-4.8,20-8.5,29.9-12.4 c0.1,0.2,0.2,0.4,0.3,0.6c-0.8,0.4-1.6,0.9-2.5,1.3c-10,4.2-20,8.5-29.9,12.7c-3.6,1.5-7.2,3-10.8,4.5c-0.6,0.2-1.2,0.3-1.9,0.5 c-1.2-2.4-1.6-4.7-1.2-7.2c1.2-7.9,4.2-15.1,8.5-21.8c0.8-1.2,1.8-2.2,0.9-3.9c-0.2-0.3,0.3-1.1,0.5-1.6c0.6-1.6,0.3-2.6-1.3-3.1 c-1.8-0.6-3.7-0.7-5.2,0.9c-1.2,1.3-2.3,2.6-3.5,4c-0.6-1.2-1.1-2.3-1.7-3.3c-1.8-2.7-4.7-3.1-7.2-1c-0.9,0.8-1.6,1.6-0.9,2.9 c0.1,0.3,0.3,0.7,0.2,0.9c-1.7,2.4,0.3,4.5,0.4,6.7c0.2,2.4,0.4,4.7,0.2,7.1c-0.6,5-1.4,10-2.2,15c-0.1,0.6-0.5,1.2-1,2.5 c-0.6-1.3-1-2-1.2-2.7c-1.6-7.3-3.2-14.5-4.5-21.8c-0.5-2.7-0.1-5.5-0.2-8.2c0-0.7-0.1-1.5-0.5-2c-1.7-2-4-2.9-6.6-2.7 c-1.5,0.1-2.3,1.2-2.9,2.5c-0.4,0.9-0.6,1.9-0.9,3.1c-1.8-1.5-3.6-2.9-5.3-4.2c-2.5-1.9-5.2-2.9-8.4-2.5c-1,0.2-2,0.7-3.5,1.2 c1,1.3,1.7,2.1,2.4,3c-0.6,0.5-1.2,1.1-2.1,2c0.8,0.8,1.5,1.5,2.3,2.2c6.1,5.5,11.7,11.4,14.9,19.2c0.4,1,0.8,2.1,1.2,3.2 c1.4,4.2,2.1,8.3-1.7,11.8c0.5,0.9,0.8,1.5,1.3,2.4c-0.3,0.6-0.8,1.4-1.2,2.2c0.2,0.4,0.3,0.7,0.5,0.9c1.1,1,2.2,1.9,3.2,2.9 c3,3.1,4.7,6.5,4.1,11.1c-0.8,6.2-2.8,11.8-6.7,16.7C659.2,333,658.7,333.8,658.1,334.7z"></path> <path style="fill:#FFFFFF;" d="M459.8,224.6c-1,2.1-2,4.2-2.9,6.4c-0.9,2.3-2,4.6-2.6,6.9c-3.1,12.2-5.4,24.6-6.1,37.2 c-0.4,6.7-0.8,13.4-0.8,20.1c0,17.7,1.9,35.2,6.6,52.4c1.2,4.6,3,9,4.7,13.7c-0.8,0.1-1.7,0.2-2.6,0.2c-12.5-0.3-25-0.5-37.5-0.9 c-9.1-0.3-18.2-0.7-27.2-0.9c-1.8,0-3-0.5-3.7-2.1c-1-2.3-2.3-4.6-3.1-7c-3.9-12-5.8-24.5-6.9-37c-0.9-10.1-0.9-20.2-0.3-30.3 c0.9-15.5,3.2-30.8,8.5-45.5c1-2.6,2.2-5.1,3.4-7.6c0.7-1.4,1.7-2,3.4-2.1c8.3-0.5,16.7-1.2,25-1.8c9.1-0.6,18.1-1.2,27.2-1.5 C449.8,224.4,454.7,224.6,459.8,224.6z M442.3,269.8c-3.5-3-4.1-6.9-4.3-11.1c-0.2-3.1-1.5-5.9-4-7.7c-2.4-1.8-5-3.6-8.5-2.7 c-0.6,0.2-1.5,0-2.1-0.3c-2.9-1.5-6-1.2-9.1-1.1c-5.2,0.1-10,1.3-13.7,5.4c-0.1,0.1-0.4,0.1-0.3,0.1c-2-1.3-3.6-2.8-5.5-3.7 c-2.5-1.2-5.2-1.2-7.8,0c-1.8,0.9-2.1,1.9-1.1,3.7c0.2,0.4,0.4,0.7,0.6,1c-0.4,0.8-0.8,1.5-1.1,2.2c4.1,6.5,4.6,7.4,4.5,12.7 c0,4-0.4,8-0.8,12c-0.4,4.4-1.8,8.5-4.7,11.9c-0.2,0.2-0.2,0.6-0.3,0.9c0.5,0.7,1,1.5,1.5,2.2c-1.2,2.4-1,2.2,0.1,4.2 c1.3,2.3,2.5,4.8,3.1,7.3c0.7,3.4,1.1,7,1.1,10.4c0,6.1-0.1,12.3-4.6,17.2c0.5,1,0.9,1.8,1.3,2.5c-1.6,2.8-1,4.4,2.1,5.2 c2.9,0.7,5.5,0.1,7.6-2.2c0.7-0.8,1.4-1.7,2.1-2.5c1.3,1.2,2.5,2.4,3.7,3.4c2.1,1.7,4.5,2.6,7.2,2.3c3.6-0.4,4.3-1.9,2.3-5 c0.5-0.8,0.9-1.5,1.4-2.4c-0.4-0.6-0.8-1.1-1.2-1.5c-2.6-3.2-4.3-6.7-5-10.8c-1.2-6.9-1.2-13.8-1-20.7c0-0.2,0.2-0.3,0.3-0.5 c0.2-0.1,0.4-0.2,0.6-0.2c1.9,0,3.7-0.1,5.6-0.1c3.5,0,4.1,0.4,5.2,3.6c0.3,1,0.6,2,0.8,3c0.5,3.1,0.9,6.1,1.3,9.2 c0.7,5.8,1.6,11.4,3.6,16.9c3.6,10.3,12.2,12.6,21.2,9.9c1.9-0.6,3.8-1.5,5-3.3c-0.9-0.9-1.8-1.7-2.6-2.5c0.9-0.8,1.7-1.6,2.6-2.4 c-0.8-0.7-1.5-1.3-2.2-1.9c-2.9-2.6-4.9-5.9-5.8-9.7c-0.9-3.7-1.3-7.5-2-11.3c-1.3-6.8-1.3-14.1-6.4-19.8c2.3-2.5,3.9-5.2,4.3-8.5 c0.4-3.7,1.8-7,4.4-9.7c0.2-0.2,0.3-0.5,0.5-0.9c-0.5-0.7-1-1.5-1.5-2.3C441,271.6,441.5,270.9,442.3,269.8z"></path> <path style="fill:#FFFFFF;" d="M360.2,301.7c-4.9-2.2-8.8,0.1-12.5,2.7c-6-3-6.7-3-12.1,0.1c0.8,0.1,1.5,0.1,1.8,0.3 c1,0.8,2.6,1.6,2.8,2.6c1.1,4.4,1.8,8.8,2.6,13.3c0.1,0.8,0.1,1.6,0.1,2.5c0,2.5-1.2,3.8-3.6,4.1c-4.9,0.6-7.7-1-9.3-5.7 c-1.4-4.1-1.9-8.5-1.9-12.8c0-3.5,1.1-6.7,3.7-9.3c0.4-0.4,0.8-0.9,1.2-1.5c-0.5-0.8-1-1.4-1.4-2.1c0.4-0.7,0.8-1.4,1.3-2.1 c-0.3-0.5-0.6-1-0.9-1.3c-2.1-1.8-3.1-4.1-3.7-6.7c-1.1-4.7-1-9.4,0.3-14.1c1.3-4.4,5.8-6.6,10.1-4.9c1.8,0.7,2.6,2,2.4,4.1 c-0.2,3.7-1.3,7.1-3.5,10.1c-1.1,1.5-2.2,3-3.4,4.7c1.8,1.3,1.2,2.8,0.3,4.3c1.8,1.9,4,1.9,6.1,1.5c1.7-0.3,3.5-0.8,5-1.6 c1.5-0.8,2.7-0.6,4,0.3c2.1,1.4,4.4,2.3,7,2.3c1.2,0,2.3-0.4,3.7-0.7c-0.6-1.3-0.9-2.1-1.3-2.9c0.4-0.5,0.8-1,1.1-1.4 c-0.1-0.3,0-0.5-0.1-0.7c-2.3-3.3-3.1-6.9-2.9-10.9c0.1-2.4,0.1-4.8,0.1-7.1c0.1-6.7-3.1-11.4-9.1-13.8c-7-2.8-14.4-3.7-21.8-2 c-6.7,1.6-11.4,5.8-13.6,12.3c-1.1,3.3-1.5,6.8-2.1,10.3c-0.5,3.3-0.7,6.6-1.2,9.8c-0.3,1.6-1,3.1-1.7,5 c-12.3-5.2-24.2-10.3-36.1-15.3c0.1-0.2,0.2-0.5,0.3-0.7c5.1,1.5,10,3.8,14.9,5.8c4.9,2,9.8,4.1,14.9,6.3c0.3-4,0.5-7.7,0.9-11.5 c0.8-8.9,2.3-17.6,5.6-25.9c1.5-3.6,3.6-6.9,5.5-10.4c0.7-1.3,1.9-2,3.5-2.2c8-1,15.9-2.2,23.9-3.2c10-1.3,20.1-2.4,30.1-3.5 c2.6-0.3,5.2-0.5,7.9-0.7c0,0.6,0,0.8-0.1,1c-6.1,9.8-9.2,20.7-11.4,31.9c-2.8,14.2-3.7,28.4-2.8,42.8c0.4,6.3,0.6,12.6,1.7,18.8 c1.7,10.4,3.9,20.7,8.9,30.2c0.8,1.5,1.6,2.9,2.4,4.3c0,0.1,0,0.2,0,0.4c-2.2,0-4.4,0.1-6.6,0c-13.3-0.9-26.6-1.8-39.9-2.7 c-3.8-0.3-7.6-0.8-11.4-1c-1.6-0.1-2.6-0.8-3.5-2.1c-3-4.2-5.1-8.7-6.9-13.5c-3.8-9.9-5.9-20.2-7-30.7c-0.3-2.7-0.5-5.3-0.7-7.8 c3-1.8,3.2-1.8,5.2,0.4c2.1,2.4,3,5.4,3.6,8.5c0.6,2.8,1,5.7,1.3,8.6c1.4,13.5,10.5,21.9,24.1,22.3c5,0.1,9.9-0.6,14.5-2.7 c5.4-2.5,8.2-6.8,8-12.8c-0.1-3.1-0.3-6.2-0.5-9.3c-0.2-2.8-0.2-5.6,1.4-8.1c0.3-0.5,0.6-1.4,0.4-1.6 C358.3,304.5,359.9,303.5,360.2,301.7z"></path> <path style="fill:#FFFFFF;" d="M447.6,689.6c9.6-0.8,18.7-1.9,27.9-2.4c9.2-0.4,18.3,1,27.1,4.2c4.2,1.5,8.2,3.4,11.4,6.7 c0.8,0.9,1.6,1.9,2,3c0.7,1.7-0.3,2.8-2.3,2.5c-1.5-0.2-3-0.6-4.5-1.1c-14-4.1-28.3-6-42.9-4.8c-7.2,0.6-14.3,1.9-21.4,3.1 c-1.1,0.2-2.2,1.1-3,1.9c-3.2,3.6-6.6,6.9-10.6,9.4c-3.9,2.5-8.1,4.1-12.9,3.5c-5.2-0.6-7.3-3.8-5.6-8.7c1.2-3.6,3.6-6.2,6.5-8.5 c3.9-3,8.4-4.9,13.1-6c1.7-0.4,2.6-1.2,3.3-2.8c12.1-26.9,23-54.3,30.9-82.9c1.8-6.4,3.1-12.8,4.8-19.2c1.4-5.5,2.9-10.9,4.3-16.4 c0.7-2.7,2.4-4.5,4.5-6.1c1.8-1.4,3.9-1.6,5.8-0.5c1.9,1.1,3.6,2.6,3.4,5.1c-0.3,4.1-0.4,8.2-1,12.3c-2.4,16.6-8.7,32-15,47.3 c-7.8,19.2-16.3,38.1-24.6,57.2C448.5,687.6,448,688.6,447.6,689.6z M432.8,697.9c-0.3-0.1-0.5-0.3-0.7-0.2 c-5.4,1.2-10,3.8-13.7,7.9c-0.6,0.7-1,1.6-1.2,2.5c-0.3,1.7,0.9,2.7,2.6,2.4c0.5-0.1,1-0.3,1.4-0.5c4.6-2.7,8.4-6.2,11.1-10.9 C432.7,698.7,432.7,698.3,432.8,697.9z"></path> <path style="fill:#FFFFFF;" d="M551.2,483.7c2.7-0.9,4.2,0.4,5.7,1.4c2.7,1.7,5.3,3.7,8.1,5.1c10.6,5.2,21.7,6.9,33.4,3.8 c1.6-0.4,3.2-0.7,4.8-1c0.5-0.1,1,0.1,1.4,0.2c0.7,1.2,0.1,1.9-0.7,2.5c-1.7,1.3-3.4,2.7-5.3,3.8c-4.2,2.4-6.9,6-8.3,10.4 c-1.8,5.6-3.1,11.3-4.4,17c-1.4,6.1-2.6,12.3-3.7,18.5c-0.9,4.8-1.5,9.6-0.4,14.4c0.6,2.4,1.6,4.6,2.5,7.2c-0.7,1.1-2.1,1.6-3.6,1.6 c-1.5,0-3.2,0-4.6-0.5c-5.2-1.7-10.3-1.4-15.6-0.2c-5,1.1-10,1.3-15-0.3c-0.5-0.2-0.9-0.4-1.2-0.5c2.1-2.7,4.2-5.2,5.9-7.9 c2.3-3.7,3.5-7.9,4.3-12.2c1.1-6.5,2.1-13,3-19.5c0.8-5.7,1.6-11.4,2-17.2c0.3-3.2,0-6.4-0.3-9.6c-0.2-2.2-1.3-4.1-2.6-5.9 c-1.6-2.1-3.1-4.4-4.4-6.7C551.6,486.7,551.5,485.2,551.2,483.7z"></path> <path style="fill:#FFFFFF;" d="M575.8,654.3c-0.8,2.6-1,5.2-0.2,7.9c0.8,2.6,2.3,3.7,5,3.8c4,0.1,7.5-1.4,10.7-3.5 c1.8-1.2,3.5-2.5,5.5-4.1c0.8,1.9,1.6,3.7,2.1,5.5c0.2,0.5-0.2,1.4-0.6,1.9c-5.5,5.5-12,9-19.9,9.7c-1.8,0.2-3.7,0.1-5.6,0 c-7.4-0.5-12.7-5.7-13.4-13c-0.4-3.8,0.1-7.4,1.3-11c3.9-12.4,11.2-22,23.1-27.7c5.2-2.4,10.6-3.4,16.3-2.4c6.9,1.1,10,5.9,8.5,12.8 c-0.7,3.2-2.4,5.9-4.6,8.3c-4.4,4.8-10,7.6-16.2,9.3C584,652.8,580,653.4,575.8,654.3z M578.8,646.1c5.6-1,9.8-3.1,13.3-6.5 c1.1-1.1,2.1-2.6,2.7-4.1c0.8-1.9,1.7-4.3-0.1-5.8c-1.9-1.5-4.2-0.3-6,1C583.7,634.6,581.3,640,578.8,646.1z"></path> <path style="fill:#FFFFFF;" d="M517.4,675.4c-0.1-1.3-0.1-2.2-0.1-3.1c0.3-15.7,0.6-31.4,0.9-47.1c0-1.6,0.5-2.5,2-3 c2.7-0.9,5.3-1.7,8.2-1.1c3.6,0.8,5.2,2.5,5.1,6.2c-0.1,4.3-0.6,8.6-0.9,13c-0.5,6.3-1,12.5-1.5,19.3c0.8-0.8,1.3-1.2,1.7-1.7 c4-5.2,8.2-10.4,11.1-16.4c1.9-3.9,3.3-7.9,3-12.4c-0.4-4.8,2.1-8,6-9c5.4-1.3,9.5,1.5,9.1,7.9c-0.3,3.5-1.6,6.8-3.3,9.9 c-3.2,5.9-7.3,11.2-11.9,16.2c-6,6.6-12.1,13-18.1,19.5c-1.2,1.3-2.5,1.9-4.3,1.8C522.1,675.3,519.9,675.4,517.4,675.4z"></path> <path style="fill:#FFFFFF;" d="M437.6,642.4c-7.4,0.6-14.6,0.6-21.7-1.2c-8.4-2.1-14.7-6.8-18.8-14.4c-1.8-3.5-3.4-7-5.1-10.5 c5.3-4.7,19.1-6.1,28.4-1.5C430.7,619.9,438.4,631.9,437.6,642.4z"></path> <path style="fill:#FFFFFF;" d="M437,647.7c-0.6,12.1-6.6,21-16.7,26.5c-9.1,5-18.7,4-28.2-0.7c3-7.6,5.9-14.9,12.4-20 c1.5-1.2,3.3-2,5.1-2.7c8.3-3.4,17-3.9,25.8-3.5C435.9,647.4,436.4,647.6,437,647.7z"></path> <path style="fill:#FFFFFF;" d="M493,666.6c2.2-1.2,3.8-2.1,5.7-3.2c0.4,1.5,0.9,2.9,1.1,4.3c0.1,0.5-0.5,1.3-1,1.8 c-4.5,3.9-9.6,6.4-15.8,5.9c-5.1-0.4-7.3-3.4-5.6-8.2c4-11.4,8.2-22.7,12.2-34c0.9-2.6,1.8-5.3,2.8-7.9c1.2-3.2,3.5-5,6.9-5.5 c4.7-0.7,8.3,3.3,7.1,7.9c-0.5,1.8-1.2,3.5-1.8,5.3c-3.6,10-7.1,20-10.7,30C493.7,663.9,493.4,664.9,493,666.6z"></path> <path style="fill:#FFFFFF;" d="M653.5,418.7c-1.2-4.3-1.3-8,0.5-11.8c2.5-5.4,4.2-11.3,7.8-16.1c4-5.4,9.1-9.8,15.5-12.5 c6.3-2.6,12.5-2,18.7,0.5c3.5,1.5,6.8,3.4,9.6,6.3C684.5,390.8,667.3,401.8,653.5,418.7z"></path> <path style="fill:#FFFFFF;" d="M525.1,427.2c-4.1-7.7-9.2-14.4-15.5-20.4c-6.2-5.9-13.7-9.7-21.2-14.4c1.9-1.9,4-3.1,6.3-3.9 c6.5-2.4,12.4-1.5,17.7,3c4.7,4,7.9,8.9,9.6,14.9C524,413.2,525.4,420,525.1,427.2z"></path> <path style="fill:#FFFFFF;" d="M297.8,289.3c-8.7,4.5-17,8.8-25.3,13.1c-1.6-3.5-2-21.4-0.6-25.5C280.4,281,288.9,285.1,297.8,289.3 z"></path> <path style="fill:#FFFFFF;" d="M734.7,277c0.8,7.3,0.5,19.4-0.6,25.6c-8.4-4.4-16.7-8.7-25.5-13.2C717.5,285.1,726,281.1,734.7,277z "></path> <path style="fill:#FFFFFF;" d="M499.2,609.1c0.1-4.1,2.7-7.8,6.4-9c3.9-1.3,7.2,1,7.2,5c0,4-1.7,7.2-5.4,9.1 C503.1,616.4,499.2,613.9,499.2,609.1z"></path> <path style="fill:#FFFFFF;" d="M500.4,278.4c1.1,5.1,2.2,10.2,3.4,15.5c-2.6,0-5,0-7.6,0c1.2-5.3,2.3-10.4,3.4-15.5 C499.9,278.4,500.1,278.4,500.4,278.4z"></path> <path style="fill:#FFFFFF;" d="M405.7,287.5c0-3.1-0.1-5.7,0-8.4c0.1-4.1,0.4-8.2,0.5-12.3c0-1.6,0.7-2.5,2.1-3 c2.4-0.9,4.9-1.8,7.5-1c2.9,0.8,4.2,2.7,4.1,5.6c-0.2,4.1-0.6,8.2-0.8,12.3c-0.1,2-1.1,3.5-2.8,4.5 C413.2,287.1,409.7,287.6,405.7,287.5z"></path> </svg> 