<?xml version="1.0" encoding="UTF-8"?> <svg xmlns="http://www.w3.org/2000/svg" xmlns:xlink="http://www.w3.org/1999/xlink" version="1.1" id="Layer_1" x="0px" y="0px" viewBox="0 0 1000 1000" style="enable-background:new 0 0 1000 1000;" xml:space="preserve"> <path style="fill:#FFC200;" d="M550.1,461.3c3.6,26.7,10.7,51.8,21,76.6c-20.5-4.8-40.8-4.8-61.5,0c10.4-24.7,17.3-49.9,21.1-76.5 c-3.6,2.9-6.7,5.7-10.1,8.1c-42.1,30.4-101.8,6.1-109.8-45c-5.9-37.6,5.5-69.9,34.1-95.5c16.3-14.5,33-28.5,49.4-43 c14.4-12.8,28.2-26.3,39.1-42.4c2.5-3.6,4.6-7.4,6.4-10.5c5,7.3,9.7,15.2,15.4,22.2c10.5,13.3,23.1,24.6,35.9,35.5 c15.1,12.9,30.3,25.9,45.3,38.7c20,17.1,30.8,39.1,34.2,64.9c2.5,18.4,1,36.5-8.7,52.7c-14.9,25.2-37.6,36.8-66.8,35.1 c-16.6-1-30.8-7.9-42.9-19.1C551.9,462.7,551.3,462.2,550.1,461.3z"></path> <path style="fill:#FFC200;" d="M295.9,539.9c-4.8,0.6-9.5,1.2-14.8,1.9c0-1.3,0-2.4,0-3.3c0-145.6,0-291.2,0-436.8 c0-30.2,22.9-53,52.9-53c137.3,0,274.6,0,411.9,0c16.6,0,30.4,6.3,41.1,19c8.7,10.3,12.1,22.3,12.1,35.7c0,71.6,0,143.4,0,215 c0,49.2,0,217,0,266.1c0,2.2-0.6,3.7-2.4,5.2c-4,3.2-7.8-5.1-12.4-1.3c0-1.9,0-3.2,0-4.4c0-125,0-356.9,0-482 c0-17.7-10.5-32.4-26.9-37.2c-3.2-1-6.7-1.5-10.1-1.5c-138.3-0.1-276.5-0.1-414.9,0c-19.9,0-36.7,16.9-36.7,36.9 c0,145.2,0,290.4,0,435.6C295.9,537,295.9,538.2,295.9,539.9z"></path> <path style="fill:#FFC200;" d="M216.3,561.2c-2.5-9-4.8-17.6-7.2-26.4c-13.6-50.7-27.2-101.4-40.8-152 c-11.4-42.6-22.8-85-34.1-127.6c-2-7.5-4.4-15.1-5.2-22.7c-3-25.3,13.2-48.9,38-55.6c28.2-7.7,56.5-15.2,84.8-22.8 c3.3-0.9,6.4-0.9,8.8,1.9c1.8,2.1,2.4,4.7,1.3,7.4c-1.1,2.7-3.1,4-5.9,4.7c-28.1,7.5-56.3,15.1-84.5,22.7 c-20.4,5.5-32.4,25.6-27.1,46c16.9,63.5,34,126.9,51,190.4c10.6,39.6,21.2,79.2,31.8,118.9c0.6,2.6,1.3,5.1,2,7.6 c0.4,1.3,0.3,2.1-1.2,2.7C224.4,557.8,220.6,559.5,216.3,561.2z"></path> <path style="fill:#FFC200;" d="M343.1,167.2c3.1,5.8,8.6,9.6,13.4,13.9c3.6,3.2,7.3,6.2,8.7,11.3c1.8,6.6,0.7,12.5-3.6,16 c-4.7,3.7-9.6,3.7-16.9-0.3c1.2,4.4,2.1,8.3,3.2,12.4c-3.3,0-6.5,0-10.1,0c1.1-4.1,2.1-8,3.3-12.5c-3.8,2.5-7.3,4-11.2,3.2 c-7.8-1.5-12.1-9.6-9.7-17.6c1.6-5.6,5.2-9.1,9.3-12.6c2.5-2,4.9-4.1,7.3-6.4C339.1,172.2,341,169.7,343.1,167.2z"></path> <path style="fill:#FFC200;" d="M224.4,336.2c-3.3,0.9-6.4,1.7-9.8,2.7c0-4.1,0-8.1,0-12.5c-2.2,1.6-3.8,3.3-5.9,4.2 c-8.9,3.8-17.4-1.9-18.2-12.1c-0.3-4.6,0.9-8.9,3.5-12.6c2.2-3.2,4.5-6.3,6.5-9.7c1.9-3.1,3.4-6.5,5.2-9.9c6,5.8,14.2,8.1,21.6,12.3 c5.9,3.2,8.9,8.4,9.2,15c0.5,8.1-7.6,14.4-15.6,12.4c-0.9-0.2-1.6-0.5-3.3-1.1C220.3,329,222.3,332.5,224.4,336.2z"></path> <path style="fill:#FFC200;" d="M345.9,90.8c5.2,14.1,10.4,28.2,15.5,42.2c0.5,1.4,1.2,2.7,1.6,4.1c1.4,4,3.4,7.1,8.2,7 c0,1.3,0,2.2,0,3.3c-8.1,0-16.1,0-24.4,0c0-1,0-2,0-3.1c0.7-0.2,1.5-0.3,2.2-0.5c1.9-0.5,2.8-1.7,2.1-3.7c-1.1-3.1-2.1-6.3-3.3-9.3 c-0.2-0.6-1.4-1.3-2.1-1.3c-4.2-0.1-8.3-0.1-12.6,0c-0.9,0-2,1-2.4,1.7c-1.1,2.5-1.9,5.1-2.7,7.7c-0.9,3-0.3,4.1,2.9,4.7 c2.2,0.4,3.1,1.3,2.2,3.7c-6.2,0-12.5,0-18.9,0c0-1.1,0-1.9,0-3.3c6,0.3,7.6-4.1,9.3-8.4c5.3-13.6,10.9-27.1,16.1-40.6 C341.1,92,342.7,90.7,345.9,90.8z M333.1,124.3c4.4,0,8.3,0,12.7,0c-2-5.9-4-11.5-5.9-17.2c-0.2,0-0.4,0-0.6,0 C337.4,112.8,335.3,118.4,333.1,124.3z"></path> <path style="fill:#FFC200;" d="M198.9,209.7c0.3,1.2,0.5,2,0.7,2.8c-0.1,0.2-0.2,0.4-0.3,0.5c-5.3,2.6-5.5,2.8-4.1,8.4 c3,11.5,6.2,23.1,9,34.8c2.6,10.7-1.6,20.5-10.5,26.2c-0.5,0.3-1.2,0.6-1.9,1.1c-0.6-0.9-1.3-1.7-2.1-2.8c6.7-4.9,5.7-11.7,4.1-18.2 c-3.1-12.8-6.5-25.7-10.1-38.4c-1.4-5.1-2.2-5.5-8.8-4.7c-0.2-1-0.5-1.9-0.9-3C182.4,214,190.5,211.9,198.9,209.7z"></path> <g> <path style="fill:#FFC200;" d="M214.1,828.9c5.5-1,18-2.1,29.5-2.1c14.3,0,22,1.3,29,4.8c7,3.3,12.5,9.6,12.5,18.9 c0,8.2-4.9,15.8-15.9,19.7v0.3c10.6,2.7,19.3,10.6,19.3,23.2c0,8.8-4.5,15.7-10.7,20.4c-7.3,5.3-19.2,8.2-38.8,8.2 c-11.6,0-19.9-0.8-24.8-1.5V828.9z M236,864.2h7.8c12.8,0,18.9-4.4,18.9-11.1c0-7.2-6.1-10.4-16.3-10.4c-5.4,0-8.4,0.3-10.3,0.7 L236,864.2L236,864.2z M236,905.6c2.3,0.4,5.2,0.4,9.5,0.4c10.3,0,19.6-3.5,19.6-13.4c0-9.3-9-12.7-20.7-12.7h-8.3L236,905.6 L236,905.6z"></path> <path style="fill:#FFC200;" d="M303,821.8h22.1V921H303V821.8z"></path> <path style="fill:#FFC200;" d="M384.7,921.1l-1.3-6.7H383c-4.7,5.4-12.2,8.4-20.9,8.4c-15,0-23.3-10.4-23.3-20.8 c0-17.6,15.8-26.4,42.8-26.3V875c0-3.1-1.6-8.6-13.4-8.6c-7.4,0-15.6,2.7-20.4,5.4l-4.1-14c5-2.9,14.7-6.3,28.1-6.3 c23.3,0,31.7,13,31.7,29.7v23.2c0,6.8,0.4,13.2,1.1,16.7L384.7,921.1L384.7,921.1z M382.2,889.3c-12.8-0.1-21.5,2.8-21.5,10.4 c0,5,3.6,7.8,9,7.8c5.9,0,10.7-4.1,12.1-8.4c0.3-1.2,0.4-2.6,0.4-3.8V889.3z"></path> <path style="fill:#FFC200;" d="M477,919.3c-4.5,2.1-12.4,3.6-21.4,3.6c-23.6,0-38.4-14-38.4-34.9c0-19.5,14-36.2,41.4-36.2 c6,0,12.9,1,18.2,3l-3.6,16.1c-2.9-1.4-7.1-2.5-13.5-2.5c-12,0-19.8,7.8-19.7,18.7c0,12.6,9.4,18.8,20.2,18.8c5.8,0,10.3-1,14-2.5 L477,919.3z"></path> <path style="fill:#FFC200;" d="M512,881.6h0.3c1.7-2.5,3.6-5.3,5.3-7.7l15.4-20.6h27.2l-26.9,27.2l31.3,40.7h-27.8l-18.7-27.9 l-6.1,7v20.9h-22.1v-99.4H512V881.6z"></path> <path style="fill:#FFC200;" d="M556.6,933.3c6.2-0.5,10.9-2,13.7-4.8c3.3-3.3,4.6-8.9,4.6-23.5v-52h22.1v57.6 c0,14.6-3.3,24.3-9.7,30.6c-6.7,6.3-17.1,9.1-28.4,9.1L556.6,933.3z M597.5,834c0,5.8-4.4,10.8-12,10.8c-7.2,0-11.7-4.9-11.7-10.8 c0-6,4.5-10.8,11.9-10.8C593.2,823.3,597.4,828,597.5,834z"></path> <path style="fill:#FFC200;" d="M656.1,921.1l-1.3-6.7h-0.5c-4.7,5.4-12.2,8.4-20.9,8.4c-15,0-23.3-10.4-23.3-20.8 c0-17.6,15.8-26.4,42.8-26.3V875c0-3.1-1.6-8.6-13.4-8.6c-7.4,0-15.6,2.7-20.4,5.4l-4.1-14c5-2.9,14.7-6.3,28.1-6.3 c23.3,0,31.7,13,31.7,29.7v23.2c0,6.8,0.4,13.2,1.1,16.7L656.1,921.1L656.1,921.1z M653.6,889.3c-12.8-0.1-21.5,2.8-21.5,10.4 c0,5,3.6,7.8,9,7.8c5.9,0,10.7-4.1,12.1-8.4c0.3-1.2,0.4-2.6,0.4-3.8V889.3z"></path> <path style="fill:#FFC200;" d="M748.4,919.3c-4.5,2.1-12.4,3.6-21.4,3.6c-23.6,0-38.4-14-38.4-34.9c0-19.5,14-36.2,41.4-36.2 c6,0,12.9,1,18.2,3l-3.6,16.1c-2.9-1.4-7.1-2.5-13.5-2.5c-12,0-19.8,7.8-19.7,18.7c0,12.6,9.4,18.8,20.2,18.8c5.8,0,10.3-1,14-2.5 L748.4,919.3z"></path> <path style="fill:#FFC200;" d="M783.5,881.6h0.3c1.7-2.5,3.6-5.3,5.3-7.7l15.4-20.6h27.2l-26.9,27.2l31.3,40.7h-27.8l-18.7-27.9 l-6.1,7v20.9h-22.1v-99.4h22.1V881.6z"></path> </g> <path style="fill:#FFC200;" d="M148.7,793.2c14.6-6.5,27.2-15.7,38.3-27c12.6,5.9,23.2,1.6,27-11.9c2.7-9.4,4-19.3,5.5-29 c5.7-36.6,11.3-73.1,16.9-109.7c0.4-2.9,1.7-3.5,4.3-3.5c10.1-0.2,19.9-2,29.2-6.2c8-3.6,14.7-9,20.7-15.8c-1,7-2,14-3.1,21 c-6.1,40.1-12.1,80.2-18.4,120.2c-1.5,9.4-3.5,18.8-6.2,27.9c-7.7,26.9-27.1,40.5-53.7,45.5c-1.3,0.2-2.6,0.6-3.8,0.9 c-8.6,0-17.1,0-25.7,0c-11-2-21.9-4.4-31-11.5C148.7,793.8,148.7,793.5,148.7,793.2z"></path> <path style="fill:#FFC200;" d="M480.9,805.6c-5.2-1.1-10.5-1.8-15.4-3.6c-5.5-1.9-10.5-4.9-16.4-7.7c7.8-4.7,14.7-8.4,21-12.9 c6.3-4.5,12.1-9.8,18.3-14.8c1.7,0.6,3.5,1.5,5.5,1.9c8.1,1.7,16.2-1.5,18.9-9.4c3.3-9.8,5.4-20.1,7.1-30.3 c6.2-38.6,12-77.2,18-116.4c20.6-0.8,39.9-4.9,53.7-22.6c-0.5,3.2-0.9,6.4-1.4,9.5c-0.5,3.3-0.9,6.7-1.4,10 c-6.1,40.1-12.1,80.2-18.4,120.3c-1.6,9.8-3.6,19.7-6.3,29.3c-7.8,27-27.2,40.8-54,45.8c-1.1,0.2-2.2,0.6-3.3,0.9 C498,805.6,489.5,805.6,480.9,805.6z"></path> <path style="fill:#FFC200;" d="M413,586.9c11.5,1.9,23.2,2.8,34.3,5.8c31.1,8.3,51.6,32.4,54.7,64.3c3.2,32.7-5.1,62.4-26.6,87.8 c-19.1,22.6-44.1,33.6-73.3,36.1c-14.7,1.3-29.2,0.7-43.5-3.1c-36.7-9.9-59.1-38.6-58.6-77.8c0.5-41.8,17.7-75.2,54.3-97.4 c16.1-9.8,35.3-14.5,58.5-14.6C412.8,587.6,412.9,587.2,413,586.9z M435.4,673.1c-0.2-3.5-0.2-7.1-0.6-10.5 c-2.3-21.3-22.8-32.1-41.8-22.1c-8.7,4.6-14.7,11.7-18.5,20.6c-6.4,14.8-8.6,30.2-6.9,46.1c2.5,23.5,26.2,33.9,45.7,20.4 c6.6-4.6,11.3-10.7,14.4-18C432.6,697.9,435,685.8,435.4,673.1z"></path> <path style="fill:#FFC200;" d="M690.6,781.4c-16.1-0.2-31.7-2.2-46.2-9.2c-25.2-12-39.1-32.5-42.6-59.3 c-5.7-44.5,14.7-89.9,55.6-111.5c32.9-17.4,67.6-18.5,102.2-4.7c24.8,10,38.3,30,42.5,55.6c7.3,43.7-12.2,93.6-56.1,116.6 C728.5,778,709.8,781.4,690.6,781.4z M736,671.6c0-1.9,0.1-3.8,0-5.7c-1-18.8-13.6-30.8-31-28.7c-12.3,1.5-21.3,8.7-27,19.2 c-9,16.8-11.9,35-9,53.8c2.5,15.6,14.1,24.5,29.9,23c15.2-1.4,24.3-11,30-24.2C734,697.1,735.8,684.4,736,671.6z"></path> <path style="fill:#FFC200;" d="M541.8,587.6c1.1-7.8,2.2-15.6,3.3-23.6c16.6,0,33.1,0,49.4,0C590.3,576.1,567.6,588.9,541.8,587.6z"></path> <path style="fill:#FFC200;" d="M240.8,587.5c1.2-8,2.3-15.7,3.5-23.5c16.5,0,32.9,0,49.4,0C287.8,578.2,262.8,589.2,240.8,587.5z"></path> </svg> 