<?xml version="1.0" encoding="UTF-8"?> <svg xmlns="http://www.w3.org/2000/svg" xmlns:xlink="http://www.w3.org/1999/xlink" version="1.1" id="Layer_1" x="0px" y="0px" viewBox="0 0 1000 1000" style="enable-background:new 0 0 1000 1000;" xml:space="preserve"> <path style="fill:#FFFFFF;" d="M937.3,486.7c-13.6-2-27.1-4.2-40.7-6c-8.7-1.1-17.4-1.4-26.1-2.4c-8.6-1-17.2-2.5-26.2-3.9 c0-9.5,0-18.5,0-28c3.6,0,6.8,0,10.9,0c0-50.2,0-100,0-149.9c-3.3,0-6.6,0-11.3,0c0-8.4-0.2-17.1,0.2-25.7c0.1-1.6,1.8-4.1,3.2-4.4 c19.3-4.7,38.8-9.2,59.8-14.1c0,10.4,0.9,19.8-0.5,28.8c-0.4,2.7-7.3,4.2-10.9,6.8c-2.5,1.8-6.2,4.5-6.2,6.7 c-0.2,50.3,0.1,100.6,0.3,150.9c0,0.6,0.4,1.3,0.8,2.4c4.1,0.3,8.4,0.6,13.6,0.9c0-10.5,0-20.1,0-31.1c11.6,0,22.3,0,33,0 C937.3,440.7,937.3,463.7,937.3,486.7z"></path> <path style="fill:#FFFFFF;" d="M556.3,663.2c0.5-9,0.9-17,1.3-25.6c14,0,27.7,0,43.1,0c0,9.7,0.3,19.4-0.2,29 c-0.1,2.3-2.8,5.1-5,6.4c-8.7,5.2-17.6,10-26.7,14.5c-3.2,1.6-7,2.4-10.6,2.5c-6.4,0.3-12.9-0.6-19.3-0.3 c-18.8,1-37.1,0.5-51.8-14.7c-5.8,43.3-24.3,80.8-41.1,119.9c23-1.1,45.7-4.6,63.8,14.2c-2.4-0.1-4.7-0.3-7.1-0.4 c-18.4-0.5-36.8-1.4-55.2-1.3c-3.7,0-7.6,3.2-11.2,5.3c-5.2,3-9.9,7.2-15.4,8.9c-3.2,1-10.1-0.7-11-2.9c-1.4-3.4,0.9-8.4,1.7-12.6 c0.1-0.5,0.9-1.2,1.4-1.3c24.8-5.4,26.6-28.3,33.4-46c8.8-22.9,14.3-47,21.6-70.5c1.5-5,4.7-9.4,6.7-14.2c1.5-3.5,3.1-7.4,3.2-11.1 c0.3-26,1.1-52.1-0.3-78c-0.6-11.5,5.2-15.6,13-20.7c24.1-15.8,51.1-9.4,76.7-8.9c10.2,0.2,20.3,9.4,30.3,14.8 c1.4,0.7,2.4,3.3,2.4,5c0.2,9.4,0.1,18.7,0.1,28.6c-14.6,0-28.3,0-42.9,0c0-7.6,0-14.9,0-22.9c-11.8,0-22.8,0-35.1,0 c0,19.5-0.1,38.6,0,57.8c0.2,24.5,0.3,24.5,24.4,24.4C549.5,663.2,552.2,663.2,556.3,663.2z"></path> <path style="fill:#FFFFFF;" d="M226.3,689.7c0-9.1,0-16.8,0-25.5c5.7-0.4,11.3-0.8,17.6-1.2c0-27.3,0-54.5,0-82.4 c-5.5-0.2-10.8-0.5-17.7-0.8c-0.4-6.7-1.3-13.5-1-20.2c0.1-1.6,4.1-4.3,6.3-4.3c33.2-0.3,66.4-1.6,99.4,0.6 c11.3,0.7,22.1,10.4,32.9,16.4c1.2,0.7,0.9,4.3,1,6.6c0.1,28.7,0.1,57.5-0.1,86.2c0,2.5-0.5,6.5-2.1,7.2 c-13.4,6.3-24.1,18-40.9,17.6C290.3,689.1,258.9,689.7,226.3,689.7z M321.2,580.3c-9.5,0-18.2,0.3-26.9-0.1c-6.2-0.3-8.4,1.9-8.3,8 c0.2,16.5,0,33,0,49.5c0,8.3,0,16.6,0,25.2c12.7,0,23.7,0,35.2,0C321.2,635.5,321.2,608.7,321.2,580.3z"></path> <path style="fill:#FFFFFF;" d="M633.5,580.2c-5.5,0-10.6,0-16.3,0c0-8.4,0-16.2,0-24.8c45.3,0,90.5,0,136.6,0c0,14.3,0,28.5,0,43.3 c-13.1,0-26,0-39.7,0c0-6.3,0-11.9,0-18.2c-12.3,0-24,0-36.2,0c0,8.5,0,16.8,0,26.4c13.4,0,26.7,0,40.3,0c0,9.5,0,17.6,0,27.2 c-13.8,0-26.8,0-40.3,0c0,10.7,0,20,0,30.1c11.8,0,23.1,0,35.5,0c0-6.5,0-13.4,0-21.3c13.9,0,26.8,0,40.5,0c0,14.6,0,28.9,0,43.9 c-45.6,0-91.1,0-137.2,0c0-7.4,0-14.6,0-22.7c5.6-0.5,10.8-1,16.9-1.6C633.5,635.4,633.5,608.5,633.5,580.2z"></path> <path style="fill:#FFFFFF;" d="M41.8,252.3c14.3,3.8,27.2,7.3,40.1,10.7c15.8,4.2,31.7,8.1,47.5,12.6c2.3,0.7,5.4,4.1,5.5,6.4 c0.5,16.5,0.3,32.9,0.3,51c-10.4-1.8-19.8-3.4-29-4.9c-0.8-9.1-0.6-17.6-2.7-25.6c-0.5-2.1-7.7-2.5-12.5-3.9c0,18.5,0,35.9,0,56.1 c5-2.2,8.9-3.9,12.8-5.6c-0.3-0.6-0.6-1.3-0.9-1.9c7.6,0.8,15.3,1.6,23.5,2.5c0,14.6,0,28.6,0,42.5c-12.7,4.7-23.9-0.5-35.4-7.3 c0,22.9,0,43.8,0,64.8c4.5-0.5,8.4-0.9,13.3-1.4c0,10.2,0,19.8,0,30c-20.4,2.5-40.6,5.1-62.5,7.8c0-10.1-0.9-19.9,0.6-29.2 c0.4-2.7,7.5-4.3,13.1-7.2c0-0.4,0.4-3,0.4-5.6c0-47.6-0.1-95.2-0.1-142.8c0-6.1,0.3-11.5-8.4-11.9c-1.9-0.1-5.1-4.2-5.3-6.7 C41.4,273.3,41.8,263.8,41.8,252.3z"></path> <path style="fill:#FFFFFF;" d="M237.2,380.3c0,18.2,0,36.5,0,54.7c0,13.1-15.1,29.7-28.2,30.7c-10.1,0.8-20.3,1.1-30.4,1.1 c-11.9,0-28.6-18.3-28.4-29.9c0.5-40.1,0.8-80.2,1-120.3c0.1-22.2,15.5-34.8,37.3-30.5c6.8,1.3,13.7,2.4,20.6,3.7 c11.6,2.2,28.9,23.6,29,35.7c0,18.2,0,36.5,0,54.7C237.7,380.3,237.4,380.3,237.2,380.3z M186.3,316.7c0,41.5,0,82.1,0,122.7 c5.6,0,10.5,0,17.4,0c0-36.3,0-72,0-107.6C203.7,317.4,202,315.9,186.3,316.7z"></path> <path style="fill:#FFFFFF;" d="M726.4,439.3c0,8,0,16.1,0,25.7c-18-1.1-35.6-2.1-53.7-3.2c0-9,0-17,0-25.6c3.4-0.5,6.6-1,9.8-1.5 c-1.8-19.9-2-20-14.7-20.2c-16.4-0.2-16.4-0.2-18.8,19.5c2.7,0.5,5.5,1.1,8.9,1.7c0,7.9,0,15.8,0,25.3c-18.4-0.8-36.3-1.6-54.8-2.4 c0-8.6,0-16.2,0-24.7c9.1,1.6,11-4.3,12.7-11.3c7-28.4,14.6-56.6,21.3-85c1.6-7,0.2-14.6,0.2-22c0-5.7,0-11.3,0-17.6 c20-1.9,38.7-3.7,60.4-5.8c-1.8,10.2-3.6,19-4.9,27.7c-0.3,2.2,0.5,4.6,1,6.8c7.5,33.8,14.9,67.6,22.8,101.2c1,4.2,4.5,7.7,6.9,11.5 C724.4,439.4,725.4,439.4,726.4,439.3z M675.3,388.3c-2.9-10.1-5.6-19.5-8.9-31.2c-3.5,11.8-6.4,21.2-9.3,31.2 C663.6,388.3,668.8,388.3,675.3,388.3z"></path> <path style="fill:#FFFFFF;" d="M577.4,381.2c17.6,5,14.8,18.7,14.6,31.4c-0.1,3.4-0.7,6.9,0.1,10.1c4.1,17.2-8.9,24.3-19.2,33 c-1.2,1-3.1,1.5-4.6,1.5c-25.2,0.1-50.5,0.1-76.3,0.1c0-9.2,0-16.5,0-24.2c3.9-0.5,7.5-0.9,11.8-1.4c0-32.6,0-65.2,0-98.5 c-3.4-0.3-6.9-0.7-11-1.1c0-8.3,0-16.2,0-25.2c12.2-0.7,24.3-1.5,36.3-1.9c7.4-0.2,15.1,1.5,22.2,0.1c16.2-3,26.8,5.5,36.9,15.7 c6,6,5.3,45.8-0.9,51.6C584.5,375.2,581.6,377.6,577.4,381.2z M556.5,432.3c0-12.8,0-25.1,0-37.7c-5.8,0-11,0-16.6,0 c0,12.8,0,25,0,37.7C545.6,432.3,550.6,432.3,556.5,432.3z M539.7,368.6c6.3,0,11.4,0,16.8,0c0-12.5,0-24.1,0-35.5 c-5.9,0-11.1,0-16.8,0C539.7,345.3,539.7,356.6,539.7,368.6z"></path> <path style="fill:#FFFFFF;" d="M348.9,383.2c0,16.2,0,32.4,0,48.6c0,11.6-13.7,26.9-25.6,27.8c-11.8,0.9-23.7,2.4-35.3,1.4 c-5.8-0.5-11.2-6.1-16.7-9.5c-9.3-5.7-11.5-14-11.3-24.7c0.8-35.7,0.5-71.5,0.6-107.2c0-5.9,16.6-20.9,23.6-20.5 c13.8,0.9,27.5,2.2,41.2,3.9c8.2,1.1,23.7,21.2,23.7,29.6c0,16.9,0,33.7,0,50.6C349,383.2,348.9,383.2,348.9,383.2z M297.1,327.3 c0,35.7,0,70.8,0,106.5c5.1,0,10,0,15.5,0c0-35,0-69.5,0-104.3C307.4,328.7,302.7,328,297.1,327.3z"></path> <path style="fill:#FFFFFF;" d="M750.8,310.6c-5.1-0.2-8.4-0.4-12.6-0.6c0-7.4-0.4-14.5,0.2-21.4c0.2-2.2,3-5.6,4.9-5.9 c19.2-2.8,38.4-5.1,59.1-7.8c0,8.8,0.4,16.5-0.3,24.1c-0.2,1.9-3.4,4.4-5.6,5c-3.5,0.8-7.3,0.2-11.9,0.2c0,45.9,0,91.3,0,137.3 c5,0,9.2,0,14.1,0c0-8.2,0-16.2,0-25c11,0,21.2,0,32.3,0c0,18.2,0,36.6,0,56.7c-30.7-2.6-61-5.1-92.1-7.7c0-8,0-16.6,0-25.7 c3.8,0,7.4,0,11.8,0C750.8,396.6,750.8,354,750.8,310.6z"></path> <path style="fill:#FFFFFF;" d="M440.5,431.9c5.6,0.7,9.1,1.2,13.1,1.7c0,7.5,0,14.4,0,23c-19.9,0-39.6,0-60.1,0c0-6.4,0-14,0-22.3 c3.4-0.4,7-0.7,11.2-1.2c0.3-1.7,1-3.5,1-5.4c0-29.4,0.1-58.8-0.3-88.2c0-3.1-2.4-6.3-3.7-9.4c-1.3,0.3-2.6,0.7-3.8,1 c-0.3,6.2-0.7,12.4-1.1,19.3c-10.3,0-20.5,0-31.3,0c0-15.2,0-29.6,0-44.3c38.1,0,76,0,114.7,0c0,16,0,30.7,0,46.1 c-9.5,0-19.1,0-29.9,0c0-6,0-12.3,0-18.7c-6.4-1.6-9.9-1.7-9.8,5.7C440.6,369.8,440.5,400.5,440.5,431.9z"></path> <path style="fill:#FFFFFF;" d="M384.2,689.2c0-8.3,0-16.6,0-25.2c6-0.3,11.3-0.7,17.2-1c0-27.4,0-54.3,0-81.9 c-5.6-0.3-10.9-0.6-17-1c0-8.2,0-16.1,0-24.8c26,0,51.6,0,78,0c0,7.9,0,15.7,0,24.6c-5.4,0.3-11,0.7-17.3,1.1c0,27.1,0,54,0,81.6 c5.7,0.4,11.3,0.9,17.4,1.3c0,8.3,0,16.3,0,25.1C436.7,689.2,410.9,689.2,384.2,689.2z"></path> <path style="fill:#FFFFFF;" d="M517.1,537.3c0-20.8,0-40.5,0-61.5c12.7,0,25.2-0.4,37.5,0.1c9.7,0.4,15.9,6.2,16.5,15.8 c0.6,10.1,0.8,20.3,0,30.4c-0.6,8.2-5.9,14.4-14.1,15C543.9,538,530.8,537.3,517.1,537.3z M528.7,525.3c6.8,0,14.5,0.3,22.1-0.2 c1.9-0.1,5-2.9,5.1-4.5c0.5-9.9,0.2-19.8,0.2-30.3c-9.6,0-17.2,0-25.4,0C530.1,501.9,529.4,513.4,528.7,525.3z"></path> <path style="fill:#FFFFFF;" d="M304.2,539.2c0.3-11.1,5-13.3,12.7-12.9c7.4,0.4,14.9,0,22.2-1c2.5-0.3,4.6-3.5,6.9-5.4 c-2.1-1.8-3.9-4.7-6.3-5.1c-6.3-1-12.8-0.8-19.2-1.5c-11.3-1.2-17.4-7.7-17.5-18.3c-0.1-10.8,5.3-17.4,17.1-18.3 c11.7-0.9,23.4-0.2,35.7-0.2c-0.2,9.1-3.5,13.8-13.3,12.4c-5.3-0.8-10.8-0.3-16.2-0.3c-4.6-0.1-10,0.2-8.5,6.4 c0.7,2.6,5.7,5.3,9.1,5.9c4.9,1,10.1,0.1,15.1,0.1c12.5,0.2,19.3,6.5,19.7,18.1c0.4,11.5-6.1,19.3-18,19.9 C330.8,539.7,317.7,539.2,304.2,539.2z"></path> <path style="fill:#FFFFFF;" d="M677.1,507.3c0,27.8-2.9,30.6-30.6,30.2c-20-0.3-24.9-5.2-25-25.2c0-5-0.1-10.1-0.1-15.1 c0.1-13.9,5.1-19.3,19.1-20.9c1-0.1,2-0.3,3-0.3C668.8,475.3,679.2,475.2,677.1,507.3z M662.5,491c-8-0.6-14-1.4-20-1.3 c-2.3,0-6.6,1.7-6.6,2.8c-0.6,10.3-1.6,20.9,0.5,30.7c0.5,2.1,13.2,2.1,20.2,2c2,0,5.5-3.9,5.7-6.2C662.9,510,662.5,500.9,662.5,491 z"></path> <path style="fill:#FFFFFF;" d="M442.3,475.9c6,0.3,9.6,0.4,14.7,0.6c0,12.9,0.5,25.3-0.2,37.6c-0.5,8.9,3.2,10.9,11.3,10.5 c7.4-0.4,13.4-0.1,12.7-10.5c-0.8-10.1,0.1-20.3-0.3-30.4c-0.2-5.8,1-8.9,7.6-8.8c5.9,0.1,7.3,2.9,7.2,8.3 c-0.3,11.8,0,23.7-0.3,35.5c-0.3,12.7-6.2,18.3-18.8,18.9c-3.4,0.1-6.8,0.2-10.1,0.1c-18.5-0.6-23.8-6.1-23.8-24.7 C442.3,501,442.3,488.9,442.3,475.9z"></path> <path style="fill:#FFFFFF;" d="M530.9,761.2c3.1-8.8,5.7-17.9,9.6-26.3c1.6-3.3,6.1-5.3,9.3-7.9c2,3.4,6.3,7.4,5.6,10 c-2.1,7.2-5.6,14.3-9.9,20.4c-5,7.1-11,13.7-17.5,19.5c-4,3.6-9.6,5.4-15.6,8.7c0-19.4-0.3-35.8,0.4-52.1c0.1-1.6,6.3-4.5,9-3.9 c2.7,0.6,6.2,4.8,6.4,7.7c0.5,7.6-0.7,15.2-1.2,22.9C528.3,760.6,529.6,760.9,530.9,761.2z"></path> <path style="fill:#FFFFFF;" d="M393.1,538.4c0-16.4,0-32,0-48.5c-5.7-0.3-12.7-0.7-20.6-1.2c0-3.8,0-7.6,0-12.3 c17.6,0,34.7,0,52.6,0c0,4,0,7.9,0,12.9c-5.4,0.5-11,1.1-17.7,1.7c0,15.5,0,31.1,0,47.4C401.8,538.4,397.4,538.4,393.1,538.4z"></path> <path style="fill:#FFFFFF;" d="M434.7,750.5c-20.6,5.4-37.9-3.4-44-22c-1.8-5.5,7.4-10.9,15.9-8.9C424,723.4,434.9,734,434.7,750.5z "></path> <path style="fill:#FFFFFF;" d="M433.7,755.6c-0.7,23.5-22.9,36.7-42.8,25.4C393.5,762.3,408,751.4,433.7,755.6z"></path> <path style="fill:#FFFFFF;" d="M481,783.2c-8.8,0-10.9-2.7-8.1-11.1c4.2-12.3,8.1-24.7,13.3-36.6c1.6-3.5,7.6-7.8,10.8-7.3 c6,1,5.9,7,4,12.2c-2.2,6.3-4.8,12.5-6.6,18.8c-1.3,4.5-6.4,8.5,0.1,14.1C498.2,776.4,489.8,783.2,481,783.2z"></path> <path style="fill:#FFFFFF;" d="M604,537.3c-14.8,1.2-14.9,1.2-14.9-11.9c0-16.1,0-32.2,0-49.5c5.2-0.4,9.7-0.7,14.9-1.1 C604,496,604,516.3,604,537.3z"></path> <path style="fill:#FFFFFF;" d="M508.4,710.1c-1.3,4.4-2,9.1-4.3,12.9c-0.8,1.4-7.3,1.6-8,0.5c-1.7-2.8-3.2-8.1-1.8-10 c2.3-3,7.2-4.1,10.9-6C506.4,708.4,507.4,709.2,508.4,710.1z"></path> <path style="fill:#FFFFFF;" d="M576.2,761.6c7.2-3.2,14.6-6.7,20.4-11.8c2.9-2.6,4.4-9.8,2.9-13.4c-1.4-3.2-7.7-5.6-12-5.9 c-12.3-1.1-20.3,6.9-28.1,15.2c-7.4,7.9-10.2,24.5-4.5,31.9c5.5,7.1,19.6,7.8,29.6,1.3c2.8-1.8,5.1-4.3,7.7-6.5 c-2.1-5.6-3.9-8.9-10-3.8c-2.9,2.4-7.4,3-10.9,4.4C567.4,765.2,571.3,763.7,576.2,761.6z M566.6,752.1c0,0,6.4-12,14.3-12.4 c7.9-0.4,4.9,6,4.9,6S578.7,757.4,566.6,752.1z"></path> </svg> 