<?xml version="1.0" encoding="UTF-8"?> <!-- Generator: Adobe Illustrator 25.3.1, SVG Export Plug-In . SVG Version: 6.00 Build 0) --> <svg xmlns="http://www.w3.org/2000/svg" xmlns:xlink="http://www.w3.org/1999/xlink" version="1.1" id="Layer_1" x="0px" y="0px" viewBox="0 0 1000 1000" style="enable-background:new 0 0 1000 1000;" xml:space="preserve"> <path style="fill:#FFFFFF;" d="M820,837.1c-28.8,0-57.6-0.5-86.3,0.3c-12.2,0.3-18.9-8.5-18.6-18.7c0.5-16.2,0.4-32.5,0-48.7 c-0.3-12.4,7.8-19.1,19.1-19.4c10.3-0.2,20.6-0.1,30.9-0.1c14.5,0,28.9-0.1,43.4,0c3.8,0,7.6,0.6,11.4,0.9c0,7.3,0,14.6,0,21.9 c-22.4,0.2-44.9,0.5-67.3,0.6c-6.4,0-7.9,0.7-8.1,7c-0.3,8.9-0.3,17.9-0.1,26.8c0.1,4.9,2.2,6.6,7.3,6.6c10.6,0,21.3,0,31.9,0.1 c3.2,0,6.4-0.1,6.4-4.3c-0.1-4-3.3-3.9-6.2-3.9c-8,0-16,0-24,0.1c-4.5,0-7.4-1.4-7.4-6.5c0-3.5,0.2-7-0.2-10.4c-0.5-5,2-6.7,6.3-6.7 c20.5,0.1,40.9,0.3,61.4,0.5C820,801.3,820,819.2,820,837.1z"></path> <path style="fill:#FFFFFF;" d="M820,727.6c-1.4,0.8-3,1.3-4.1,2.4c-4.7,4.9-10,7.7-17.1,7.6c-20.8-0.3-41.6-0.5-62.3,0 c-12.9,0.3-22.7-8.3-22.9-21.3c-0.2-13.6-0.3-27.2-0.1-40.8c0.1-5.4,0.8-10.9,1.7-16.2c1.1-6.2,6.3-10.4,12.6-10.4 c25.4,0,50.9,0,76.3-0.1c4.8,0,9.3,0.2,12,5.1c0.6,1,2.5,1.2,3.9,1.8C820,679.8,820,703.7,820,727.6z M767.8,711.5 C767.8,711.5,767.8,711.5,767.8,711.5c5.2-0.1,10.3-0.4,15.4,0c4.9,0.4,6.8-1.8,6.9-6.2c0.1-9.1,0.1-18.2,0.1-27.3 c0-2.8-1.2-4.9-4.4-4.9c-12.1,0-24.3-0.1-36.4,0.2c-1.5,0-4.1,2.5-4.1,3.9c-0.3,9.9-0.2,19.9,0.1,29.8c0.1,3.3,2.3,4.7,5.8,4.6 C756.8,711.4,762.3,711.5,767.8,711.5z"></path> <path style="fill:#FFFFFF;" d="M174.2,148.8c7.7,0,13.2,0,18.8,0c192.3,0,384.5,0,576.8,0c29.8,0,43.6,14.2,43.6,44.6 c0.1,132.4,0,264.9,0.3,397.3c0,11.4-4.9,14.8-15.3,14.7c-36.8-0.2-73.5-0.1-110.3-0.1c-157.1,0-314.2-0.5-471.3,0.6 c-18.3,0.1-29-8.6-40.2-18.8c-2.9-2.6-2.1-9.8-2.2-14.9c-0.1-73.7-0.1-147.3-0.1-221c0-62.4,0-124.8,0-187.2 C174.2,159.8,174.2,155.5,174.2,148.8z M492.9,461.7c0,0,0-0.1,0-0.1c68.3,0,136.5,0,204.8,0c9.1,0,17.1-1.5,24.1-8.6 c10.8-11,16.5-23.7,16.6-38.8c0.1-51.1,0.8-102.3-0.3-153.4c-0.7-33-16.2-49.3-50.5-49.6c-65.4-0.6-130.9-0.1-196.3-0.1 c-64.6,0-129.2-0.1-193.9,0c-30.5,0-50,19.4-49.9,49.2c0,51.5,0.1,103,0,154.6c0,30.1,16.3,46.8,46.7,46.9 C360.4,461.8,426.7,461.7,492.9,461.7z M492.9,546.8c71.9,0,143.7,0.1,215.6-0.1c6.4,0,13.4,0,18.8-2.6c4.3-2.1,8.3-7.9,9.1-12.6 c0.6-3.2-3.8-9.4-7.3-10.7c-7.7-2.9-16.2-4.9-24.3-4.9c-142.5-0.3-285-0.3-427.5,0c-7,0-14.7,1.5-20.8,4.7c-4,2-8.3,8.5-8,12.5 c0.4,4.3,5.4,10,9.7,11.6c6.1,2.4,13.4,2.1,20.3,2.1C350,546.9,421.5,546.8,492.9,546.8z"></path> <path style="fill:#FFFFFF;" d="M365.7,649c14.2,0,28.3-0.1,42.5,0c7.2,0,8.1,1,7.9,8c-0.1,2.8,0.1,5.7-0.1,8.5 c-0.5,5.7-3,7.8-8.8,7.8c-19.8-0.1-39.6-0.3-59.4-0.4c-1.7,0-3.5-0.2-4.9,0.3c-1.3,0.5-2.3,1.9-3.4,3c1.2,1,2.2,2.4,3.6,2.8 c1.7,0.5,3.6,0.3,5.5,0.3c14.6,0,29.3,0,43.9,0c10.1,0,10.2,0.1,10.2,10.4c0,2.5-0.2,5,0.1,7.5c0.4,4.7-1.6,6.6-6.3,6.6 c-15.5-0.1-31-0.1-46.4,0c-2.2,0-4.4-0.3-6.5,0.3c-1.5,0.4-2.6,2-3.9,3c1.2,1.4,2.1,3.4,3.6,4c1.9,0.8,4.2,0.5,6.4,0.5 c19.3-0.1,38.6-0.2,57.9-0.2c6.1,0,8.7,2.6,8.7,8.8c-0.1,3.6,0,7.3-0.3,10.9c-0.4,4.3-3.1,6.6-7.3,6.6c-27.3,0-54.6,0.1-81.9-0.2 c-9.3-0.1-18-9.2-18-18.5c-0.1-18.1-0.1-36.2,0-54.3c0.1-9.1,7-15.6,16.2-15.7C338.4,649,352,649,365.7,649z"></path> <path style="fill:#FFFFFF;" d="M231,837.1c-13.1,0-26.3,0-39.4,0c-8.5,0-16.4-6.9-16.5-15.2c-0.3-18.2-0.7-36.5,0.1-54.7 c0.5-10.6,7.4-16.6,20.3-16.7c20.5-0.2,40.9-0.1,61.4-0.1c5.2,0,10.3,0.1,15.5-0.1c4.8-0.3,6.8,2.1,7,6.4c0.2,3.8,0.1,7.6,0.1,11.4 c-0.1,4-2.1,6-6.3,6c-20.6-0.1-41.3,0-61.9-0.3c-4.8-0.1-6.8,1.5-6.8,6.1c0,9.5-0.1,18.9-0.1,28.4c0,4.2,2.1,6.2,6.6,6.1 c10.8-0.2,21.6,0,32.4,0c3,0,6.2-0.5,6.2-4.1c0.1-3.9-3.2-4-6.2-4c-7.7,0-15.3,0-23,0.1c-5.8,0.1-7-1-7.3-6.8 c-0.2-4-0.1-7.9-0.2-11.9c-0.1-3.4,1.9-4.9,5-4.9c19,0,37.9,0,56.9,0c3.3,0,4.6,1.9,4.6,5.2c-0.1,14.6-0.1,29.2,0,43.8 c0,4.2-2.3,5.4-6,5.4C259.2,837.1,245.1,837.1,231,837.1z"></path> <path style="fill:#FFFFFF;" d="M626.6,649c13.6,0,27.3,0,40.9,0c9.2,0,16.9,6.9,17.3,16.1c0.4,7.9,0.4,15.9,0,23.9 c-0.4,8.4-7.6,16.6-16,18.8c-5.5,1.5-5.9,3-2,7.3c4.2,4.7,8.5,9.3,12.4,14.3c1.3,1.6,2.2,4.4,1.7,6.2c-0.3,1.1-3.6,1.8-5.6,2 c-4.6,0.3-9.4-0.5-14,0.1c-6.8,1-11-2.5-14.8-7.1c-5.1-6.3-10-12.8-15.4-18.9c-1.5-1.7-4.3-3.1-6.6-3.3c-16.3-1-16.3-0.9-16.2,15.1 c0.1,14,0.1,14-14.1,14c-3.3,0-6.7,0.1-10,0c-5.9-0.2-7.2-1.5-7.4-7.5c-0.1-2.5,0-5,0-7.5c-0.1-22.6,0-45.1-0.2-67.7 c0-4.4,1.8-5.9,6-5.9C597.3,649,611.9,649,626.6,649z M630.7,673C630.7,673,630.7,673.1,630.7,673c-5.3,0-10.6-0.1-15.9,0.1 c-3.1,0.1-6.3,0.7-6.3,4.8c0.1,3.9,3.1,4.9,6.3,4.9c10.6,0.2,21.2,0.1,31.9,0.1c3.2,0,5.5-1.6,5.6-5c0.1-3.6-2.4-4.8-5.6-4.8 C641.3,673,636,673,630.7,673z"></path> <path style="fill:#FFFFFF;" d="M224,649c14,0,28,0,41.9,0c6.6,0,11.3,3,13,9.3c3.8,13.5,4.3,27.2-1,40.4c-2.2,5.5-7.8,7.9-13.3,9.4 c-4.9,1.3-5.2,2.3-1.9,6.1c4.3,4.8,8.8,9.5,12.8,14.6c1.5,1.8,1.7,4.6,2.5,7c-2.1,0.6-4.2,1.7-6.3,1.8c-4.6,0.3-9.4-0.5-14,0.2 c-6,0.8-9.9-2-13.3-6.1c-5.3-6.3-10.3-13-15.9-19.1c-1.8-2-4.8-3.5-7.4-4c-3.7-0.7-7.6-0.2-11.4-0.2c-4-0.1-5.7,1.9-5.6,5.8 c0.2,5.5,0.2,10.9,0.1,16.4c-0.1,6.3-1.2,7.2-7.4,7.1c-4.8-0.1-9.7,0-14.5-0.1c-7.1,0-8.2-1-8.2-8c-0.1-19.1,0-38.1,0-57.2 c0-5.8,0.1-11.6-0.1-17.4c-0.2-4.3,1.6-6,5.9-6C194.7,649.1,209.4,649,224,649z M226.7,682.8c0,0,0,0.1,0,0.1c5.5,0,11-0.1,16.5,0 c3.5,0.1,6-1.1,6.2-4.8c0.2-3.9-2.2-5.1-5.8-5.1c-11.1,0-22.3,0-33.4,0c-3.2,0-5.7,0.9-5.7,4.6c0,3.8,2.2,5.2,5.8,5.2 C215.7,682.8,221.2,682.8,226.7,682.8z"></path> <path style="fill:#FFFFFF;" d="M417.5,798.8c0-10.3-0.1-20.6,0-30.9c0.1-8.4,4-13.9,12.1-16c4.4-1.2,9.3-1.9,13.8-1.3 c3,0.4,6.3,3.2,8.1,5.8c7.2,10.9,13.8,22.2,20.7,33.3c2.2,3.5,4.2,2.6,6-0.2c4.7-7.2,9.3-14.5,14-21.7c2.5-3.9,5-7.8,7.4-11.8 c4.8-8,12.3-6.1,19.2-4.9c7.1,1.2,12.7,5.1,13.9,12.9c0.4,2.6,0.6,5.3,0.6,7.9c0.1,19.7,0,39.5,0.2,59.2c0,3.7-1.4,5.8-5.1,5.8 c-6.3,0.1-12.6,0.1-19,0c-4-0.1-5.9-1.9-5.8-6.2c0.3-8.4,0.3-16.9,0.1-25.4c0-1.8-1.6-3.5-2.5-5.2c-1.4,1.2-3.1,2.2-4.1,3.7 c-6.3,9.7-12.3,19.7-18.6,29.3c-2.7,4.1-4.3,3.8-6.8-0.2c-5.3-8.8-10.8-17.4-16.2-26.2c-1-1.5-1.6-3.3-2.7-4.7 c-1-1.3-2.5-2.3-3.7-3.4c-0.8,1.5-2.2,3-2.3,4.5c-0.1,8.8-0.1,17.6,0.1,26.4c0.1,6.4-0.6,7.4-6.8,7.5c-5.7,0.1-11.3-0.1-17,0.1 c-4.3,0.1-5.9-1.7-5.8-6C417.5,820.4,417.4,809.6,417.5,798.8C417.4,798.8,417.4,798.8,417.5,798.8z"></path> <path style="fill:#FFFFFF;" d="M348.4,750.5c10.1,0,20.3-0.1,30.4,0c14.8,0.1,21.8,7.1,21.8,21.7c0.1,19.9,0.1,39.8,0.3,59.7 c0,3.4-1.8,5-4.8,5.1c-6.8,0.2-13.6,0.2-20.5,0.1c-3.1-0.1-4.6-2.1-4.5-5.4c0.2-5,0.3-9.9,0.2-14.9c-0.1-5.8-1.8-7.6-7.4-7.6 c-10.5-0.1-21-0.1-31.4,0c-5.7,0.1-7.4,1.8-7.6,7.5c-0.1,4.6,0,9.3,0.3,13.9c0.3,4.5-1.5,6.6-5.9,6.6c-5.8,0-11.6,0.1-17.5,0 c-4.1-0.1-6.2-1.8-6.1-6.5c0.2-18.9,0.1-37.8,0.2-56.7c0-2.5-0.1-5,0.4-7.4c1.9-10.3,8.3-15.7,19.2-15.9 C326.4,750.3,337.4,750.5,348.4,750.5C348.4,750.5,348.4,750.5,348.4,750.5z M347.9,785.6c5.5,0,11,0.1,16.4,0c3.9-0.1,7-1.3,6.8-6 c-0.1-4.5-3.3-5.4-6.9-5.4c-10.8-0.1-21.6-0.1-32.4,0c-3.6,0-6.7,0.9-6.8,5.5c-0.1,4.7,2.9,5.9,6.8,6 C337.3,785.6,342.6,785.6,347.9,785.6z"></path> <path style="fill:#FFFFFF;" d="M669.2,801.6c0.4-3.1,0.8-4.6,0.7-6.1c-0.1-12.4-0.2-24.9-0.3-37.3c-0.1-5.8,2-7.8,7.7-7.8 c4.7,0,9.3-0.1,14,0c5.3,0.1,7.5,2.1,7.6,7.1c0.1,21.1,0.2,42.1-0.1,63.2c-0.1,10-7.3,15.5-17.3,16.6c-11.8,1.3-19.6-2.8-26.1-12.6 c-7.4-11-16.3-20.9-24.6-31.3c-0.8-1-1.8-2-3-2.6c-1.1-0.6-2.8-1.2-3.6-0.7c-0.8,0.4-1,2.2-1,3.4c0,12.4,0,24.9,0.3,37.3 c0.1,4-1.5,6-5.4,6.1c-6.2,0.1-12.3,0.1-18.5,0c-3.8-0.1-5.5-2.1-5.4-6.1c0.2-19.7,0.1-39.5,0.2-59.2c0-14.4,6.5-20.7,20.9-21.4 c7.7-0.4,13.2,1.6,17.9,8c8.8,12.2,18.4,23.9,27.9,35.6C663.1,796.5,665.7,798.4,669.2,801.6z"></path> <path style="fill:#FFFFFF;" d="M495.8,649c15.5,0,30.9,0,46.4,0c8,0,8.6,0.7,8.3,8.4c-0.1,2.5,0.1,5,0,7.5c-0.2,6.1-2.5,8.3-8.7,8.3 c-7.8,0-15.6-0.1-23.4-0.1c-5.5,0-6.5,1.2-6.5,6.8c0.1,16.4,0.1,32.8,0.1,49.2c0,7.3-1.2,8.3-8.4,8.4c-4.7,0-9.3,0-14,0 c-6.9,0.1-8.2-0.9-8.2-7.9c-0.1-16.2,0-32.5,0-48.7c0-6.5-0.8-7.7-7.3-7.8c-8.1-0.1-16.3-0.2-24.4,0c-4.9,0.1-7-2.1-7.1-6.8 c0-3.8,0.1-7.6-0.2-11.4c-0.3-4.3,1.7-6,5.9-5.9C464.2,649,480,649,495.8,649z"></path> <path style="fill:#FFFFFF;" d="M578,794.3c0,12.3-0.1,24.5,0.1,36.8c0.1,4-1.5,6-5.5,6c-6.2,0.1-12.3,0-18.5,0c-4.3,0-6-2-6-6.5 c0.2-23.5,0.1-47.1,0.1-70.6c0-7.8,1.6-9.4,9.2-9.4c4,0,8,0,12,0c6.7-0.1,8.5,1.7,8.5,8.5C578,770.7,578,782.5,578,794.3 C578,794.3,578,794.3,578,794.3z"></path> <path style="fill:#FFFFFF;" d="M283.6,335.7c0-24.9,0.4-49.9-0.2-74.8c-0.3-11.2,3.3-16.2,15.2-16c28.2,0.5,56.5,0,84.8,0.2 c16.5,0.1,18.7,2.7,18.7,19.1c0.1,48.7-0.1,97.4,0.4,146c0.1,11.1-4.7,15.5-15,15.6c-30.7,0.1-61.4,0.1-92,0.2 c-9.8,0-12-5.9-12-14.3c0.1-25.3,0.1-50.7,0.1-76C283.5,335.7,283.5,335.7,283.6,335.7z M337.5,304.2c-1.8,0-5.5-1-8.2,0.2 c-3.8,1.7-6.9,4.9-10.3,7.5c3.3,2.3,6.4,5.1,9.9,6.9c4.2,2.2,12.6,3.3,12.7,5.3c0.3,5.4-2.4,11.1-4.7,16.3 c-2.1,4.7-6.2,8.6-7.7,13.4c-0.9,2.9,1.6,6.9,2.5,10.4c3.8-1.3,9.2-1.5,11-4.2c5.5-8.2,10-17.1,14.3-26.1 C368.4,310.4,365.2,305.4,337.5,304.2z"></path> <path style="fill:#FFFFFF;" d="M429.2,334.6c0-24.5,0.3-49.1-0.1-73.6c-0.2-11.5,4.5-16,15.8-15.9c30.3,0.2,60.6,0.1,90.8-0.1 c9.2-0.1,13.1,4,13.1,13.1c-0.1,51.5,0,103,0.2,154.5c0,9-3.8,13.4-13,13.4c-31.1-0.1-62.2-0.1-93.3-0.1c-10.4,0-13.9-5.3-13.8-15.3 c0.4-25.3,0.1-50.7,0.1-76C429.1,334.6,429.1,334.6,429.2,334.6z M488.4,304.5C488.4,304.5,488.4,304.5,488.4,304.5 c-5.2,0-10.6-0.8-15.6,0.3c-2.7,0.6-6.6,4.2-6.7,6.6c0,2.3,3.7,5.4,6.5,6.9c2.2,1.2,5.5,0.6,8.3,0.8c8.4,0.7,13.3,3.8,8.5,13 c-3.3,6.3-7.6,12.1-9.9,18.7c-1.6,4.5-0.7,10-0.9,15c3.9-2,9.3-2.9,11.5-6.1c5.7-8,9.1-17.6,15.1-25.4c5.4-7,12.3-14.5,6.4-22.1 c-3.8-5-13.6-5.3-20.7-7.7C490.1,304.3,489.2,304.5,488.4,304.5z"></path> <path style="fill:#FFFFFF;" d="M698.6,335.8c0,24.9-0.4,49.9,0.2,74.8c0.2,9.8-4.1,15-13.1,15.1c-30.7,0.4-61.4,0.4-92.1,0.1 c-8.7-0.1-12.6-5.3-12.6-14.3c0.2-50.3,0.4-100.6,0.2-150.9c0-10.7,4.3-15.7,15-15.6c28.7,0.1,57.3-0.1,86,0.1 c12.9,0.1,15.9,3.7,16,17c0.1,24.6,0,49.1,0,73.7C698.4,335.8,698.5,335.8,698.6,335.8z M639,302c-0.3,0.7-0.6,1.5-1,2.2 c-1.2,0-2.6-0.4-3.6,0.1c-5.3,2.3-10.4,4.9-15.7,7.4c4.8,2.4,9.7,4.9,14.5,7.3c3,1.5,8.4,2.6,8.7,4.5c0.6,4.3-0.2,9.5-2.2,13.5 c-3.1,6.4-8,11.9-11.6,18.1c-3.8,6.6-0.6,10.9,6.2,9.5c4.2-0.9,8.1-5.6,11-9.4c3.5-4.6,6.7-9.9,8.5-15.4c3-9.1,7.5-19.2,6-27.9 C659.1,307.4,646.4,305.2,639,302z"></path> </svg> 