<?xml version="1.0" encoding="UTF-8"?> <!-- Generator: Adobe Illustrator 25.3.1, SVG Export Plug-In . SVG Version: 6.00 Build 0) --> <svg xmlns="http://www.w3.org/2000/svg" xmlns:xlink="http://www.w3.org/1999/xlink" version="1.1" id="Layer_1" x="0px" y="0px" viewBox="0 0 1000 1000" style="enable-background:new 0 0 1000 1000;" xml:space="preserve"> <path style="fill:#FFFFFF;" d="M51.8,683.5c1.3-6.9,2.5-13.8,3.9-20.6c0.3-1.3,1.4-3.3,2.4-3.6c21.2-4.4,41.5-13.4,63.8-11.4 c6.1,0.6,12.3,1.4,18.2,2.7c3.8,0.9,7.2,2.5,5.3,8.1c-0.9,2.8,0.7,6.4,0.9,9.6c0.4,5.3,0.6,10.5,1,16.9c-6.6,0-12.4-0.1-18.2,0 c-4.9,0.1-5.9-3.9-6.1-7c-0.3-5.6-3.1-6.3-7.7-5.9c-8.2,0.6-16.5,0.8-24.7,1.6c-3.5,0.3-7.6,0.7-8.2,5.8c-0.6,5,2.2,8.1,6.3,9.1 c6.3,1.6,12.9,2.1,19.4,3.2c9.9,1.7,19.8,4.7,29.7,4.9c10.8,0.2,12.9,7.8,17.7,14.4c6.8,9.3,4.5,19.1,5.2,29.1 c-12.3,4.9-24.3,10.1-36.6,14.3c-14.3,4.9-29,2.2-43.5,0.9c-6.5-0.6-13-2.4-19.5-2.8c-4.2-0.3-5.4-2.5-5.5-5.7 c-0.3-4.9-0.1-9.8-0.1-13.3c12.6-0.7,25.1-1.4,37.7-2.1c0.8,3.7,1.8,8.2,2.9,12.8c-0.1,0-1,0-2.3,0c0.4,0.7,0.5,1.3,1,1.6 c11.9,6.7,22.3,0,33.4-3.4c-7.8-6.9-6.6-15.8-5.4-23.7c0.6-4.2-0.6-5.2-3.2-5.8c-8.6-2-17.2-4-25.9-5.3c-7.6-1.2-15.6-0.5-22.9-2.5 c-5.5-1.6-10.2-6.1-15.2-9.3c-1.3-0.8-2.7-1.7-4-2.5C51.8,690,51.8,686.7,51.8,683.5z"></path> <path style="fill:#FFFFFF;" d="M944.8,703.8c6.4-1,10.7,2.6,16.1,7.2c7.3,6.2,9.2,13.4,9.6,21.6c0.3,5.4-0.4,10.8-0.9,16.1 c-0.1,0.7-2.2,2-2.7,1.8c-8.9-4.5-17.7,0.1-26.5,0.1c-4.1,0-8.2,0.9-13.7,1.6c0-3.8,0.7-8.7-0.2-13.3c-1.4-7.3-2.6-15.1-6.4-21.3 c-3.3-5.4-10.9-4.2-16.7-4.9c3.9,13.2-0.6,24.8-2.3,36.9c-12.8-1.3-24.8-2.5-37.7-3.8c-0.7-7.6-2.2-16.3-2.2-24.9 c0-5.7,3-11.4,3.2-17.1c0.4-21.1,0.2-42.2,0.2-64.7c12.5,0,24.3,1.2,35.8-0.3c12.1-1.6,23.6-0.8,35,2.9c9.7,3.1,18.7,7.4,22.1,18.2 c2.6,8.3,2.6,16.7-1,24.5C953.3,691.4,948.6,697.7,944.8,703.8z M895.7,687.9c1.4,0.4,2.2,0.6,3,0.8c7.2,2.2,13.8,0.6,17.3-4.2 c4.2-5.9,4.9-13.2,1.6-18.1c-3.3-5-11.6-8.1-18.1-6.1c-1.6,0.5-3.6,2.9-3.7,4.6C895.5,672.4,895.7,680,895.7,687.9z"></path> <path style="fill:#FFFFFF;" d="M386.9,718.4c5.4,2,11.9,4.1,17.9,7c2.6,1.2,4.2,4.3,6.4,6.3c0.4,0.3,1.7-0.3,3.9-2 c3.8,8.6,7.5,17.2,11.7,26.8c-7,0.7-12,1.3-17,1.6c-8.8,0.6-17.7,0.8-26.5,1.4c-3.9,0.3-5.7-0.7-5.6-5c0.2-8.3,0.1-16.7,0.1-25.7 c-9.4,0-17.4-0.1-25.4,0.1c-3,0.1-5.1,9.3-4,13.6c1.2,4.7,1.8,9.7,1.9,14.5c0,1.2-2.6,3.2-4.3,3.5c-4.7,0.7-9.5,0.6-14.2,0.9 c-10.8,0.8-15.3-1.5-14.9-11.9c0.5-10.8,0.6-21.6,0-32.3c-0.5-9-3-17.8-3.5-26.8c-0.6-11.2,0-22.4-0.1-33.7c0-3.6,1.1-5.2,4.9-5.4 c10.7-0.6,21.4-1.3,32-2.3c14-1.3,26.8,2.6,39,8.8c8.6,4.3,14.8,10.5,17.2,20.2c0.7,3,3.9,5.4,5.4,8.3c1.7,3.4,4.2,7.1,0,10.6 c-6,4.9-12.1,9.8-18,14.8C391,714.2,388.4,717,386.9,718.4z M361,699.3c1.3-4.8,1.9-9.1,3.5-12.9c3-7.4,1.9-10.2-5.8-11.4 c-2.5-0.4-5.2-0.1-8.8-0.1c0.4,4.8,1.3,9.2,1,13.5c-0.3,4.5,5.5,10.2-2.4,13.8c5.8-1.1,12.2,2.4,18-3.7 C364.4,698.8,363.4,699,361,699.3z"></path> <path style="fill:#FFFFFF;" d="M794.6,756.4c-7-0.6-14-0.8-20.9-1.8c-12.1-1.6-20.7-10.1-30.6-16c-6.1-3.7-7.9-10.2-8.8-16.6 c-0.8-5.9,1.3-12.4-0.5-17.9c-6.3-19.9,3.8-34,14.6-48.9c8.2-11.3,19.2-13.1,31.1-13.4c10.3-0.3,20.6,0.5,30.8,1.2 c1.6,0.1,3.7,2.2,4.6,3.9c5.2,9.7,10,19.6,15.3,29.2c1.6,2.9,5.3,4.9,6.4,7.9c1.3,3.5,1.6,7.8,1.1,11.6c-0.7,5.6-3.4,11-3.7,16.5 c-0.2,4,1.6,7.9-0.1,12.2c-3.3,8.1-5.9,16.4-9.1,24.6c-0.5,1.2-2,2.5-3.3,2.8c-8.9,2.1-17.8,3.9-26.7,5.8 C794.8,757.1,794.7,756.8,794.6,756.4z M763.5,696.1c-0.5,8.8,2.5,16.2,7,23.3c1.8,2.7,14.5,3.4,15.6,0.5c1.5-4,2.3-8.3,2.8-12.5 c0.2-1.3-1.8-2.9-1.9-4.3c-0.3-7.7-0.4-15.4-0.3-23c0.1-2.3,1.8-4.7,1.8-7c0-3.1,0-7.3-1.9-9.2c-2.9-2.9-14.2,0.2-17.6,3 c-4.3,3.6-2.5,7.7-2.6,12C766.4,684.7,764.6,690.4,763.5,696.1z M768.5,726.2c0,0.6,0,1.1,0,1.7c8.4,2.7,16.8,0.6,25.2-1.7 C785.3,726.2,776.9,726.2,768.5,726.2z M759.6,693.1c-7.7,2.7-14.7-1.2-21.1,2.4c6.6,0.9,12.4,1.7,18.7,2.6 C757.4,697.6,758.1,696.1,759.6,693.1z"></path> <path style="fill:#FFFFFF;" d="M233.6,649.1c11.8,0,23.6,0,35.4,0c5.3,0,7.8,2.8,8.3,8c0.7,7.3,0.4,15,2.9,21.7 c3.8,10.2,4.3,20.4,3.6,30.7c-0.6,9.2,1.4,19.3-4.8,27.4c-4.3,5.6-9,11.1-14.3,15.6c-2.4,2-6.9,1.8-10.5,2.2 c-4.8,0.6-9.7,1.2-14.6,1.2c-6.6,0-13.3-0.8-19.9-0.8c-3.2,0-6.5,1.6-9.7,1.4c-7.7-0.4-12.9-4.6-15.8-11.7c-2.9-7-6-14.1-8.8-21.1 c-0.6-1.6-0.5-3.5-0.8-5.4c3.1,0.5,5.6,0.9,8.2,1.3c0.1-2.9-7.1-1.1-3-5.8c-8-2.7-4.3-9.8-5.4-14.9c-0.8-3.7-0.2-7.8,0.2-11.6 c0.7-8.2,1.9-16.5,2.3-24.7c0.1-1.5-2.5-3.2-4.3-5.3c0.5-2,1.1-4.7,1.9-8.3c8.7,0.9,17.5,1.8,27.4,2.9c1.1,11.2,2.5,22.4,3.3,33.5 c0.5,6.6,1.7,13.7-0.2,19.8c-3.6,11.9-0.7,23,1.5,34.3c0.2,0.8-0.6,1.8-1,3c5.4,4.5,14.4,5.9,20.6,1.8c1.8-1.2,2-5.3,2.5-8.1 c1.4-7.6,2.9-15.2,3.5-22.8c0.4-4.5-0.7-9.2-1.1-13.7c-0.3-3.3-0.9-6.6-0.8-9.9c0.3-8.9,0.7-17.8,1.6-26.7c0.4-3.9-1.2-5.5-4.5-6.6 C234.3,655.3,231.4,654,233.6,649.1z"></path> <path style="fill:#FFFFFF;" d="M614.6,649c13,0,25.7,0,38.4,0c-0.4,16.2,2.2,31.3,10.2,45.4c2,3.5,2.5,7.7,3.8,11.6 c0.9,2.8,2,5.5,4,8.3c7.1-22.1,9.5-44.9,12.4-68c8.7,0,17.6,0,27,0c-1.5,9.6-2.9,19.3-4.6,28.9c-2.2,12.7-5.8,25.4-6.3,38.2 c-0.3,6.3,0.6,12.5-1.8,18.7c-2.7,6.8-4.8,13.9-7.5,20.7c-0.6,1.4-2.8,3-4.3,3.1c-12.8,0.2-25.6,0.3-38.4,0c-2,0-4.9-1.7-5.9-3.4 c-5.2-9.6-10.6-19.3-14.6-29.4c-1.9-4.6-0.3-10.4-1.4-15.5c-0.9-4.6-4-8.9-4.7-13.5c-2.1-12.7-3.4-25.5-5.1-38.3 C615.4,653.5,615,651.3,614.6,649z"></path> <path style="fill:#FFFFFF;" d="M437,649.2c8.6,0,18.1,0,28,0c2.7,10.4,5,20.9,8.2,31.3c1.6,5.2,5.5,9.7,7.1,14.9 c1.9,6.6,5.6,12.9,3.1,20.6c-0.5,1.6,5,5.1,7.7,7.7c0.4-0.5,0.8-0.9,1.2-1.4c0-9.1-0.7-18.3,0.2-27.3c1-9.9,3.5-19.7,5.1-29.6 c0.5-3.5,0.1-7.2,0.1-11.1c7,0,13.8,0,21.3,0c4.6,17.7,6.2,36.2,0.7,54c-2.1,6.7,3,12.3-0.8,18.3c-4.9,7.6-5.8,17.2-12.5,23.8 c-0.3,0.3-0.6,0.7-0.6,1c-0.3,8.3-6.4,10.5-12.9,11.2c-5.9,0.6-12-0.1-17.9-0.2c-1.4,0-2.8-0.3-4.1,0c-7.9,1.4-14.6-3-15.9-10.5 c-1.3-7.7-2.5-15.4-4.3-23c-3.2-13.3-6.8-26.5-10.1-39.8c-0.7-2.7-0.5-5.6-0.7-8.5C438.9,670.4,438,660.1,437,649.2z"></path> <path style="fill:#FFFFFF;" d="M551.7,653c12.1-1.4,23.8-2.8,37.3-4.3c0.4,6.9,0.7,13.4,1.3,19.9c0.5,5.6,1.3,11.1,1.8,16.6 c0.2,2.6,0.3,5.3,0,8c-0.8,7.9-1.9,15.5,1.2,23.4c2.3,5.8,3,12.2-1.6,18.1c-1.3,1.7-0.6,5.2-0.4,7.8c1.5,17-4.3,22.3-21.5,19.5 c-9.2-1.5-11.6-4.3-13.5-13.7c-1.4-6.8-4.1-13.4-5.5-20.3c-0.8-3.7-0.3-7.7-0.2-11.5c0.1-5.7,0.3-11.5,0.5-17.2 c0.3-9.2,0.6-18.5,0.7-27.7C551.8,665.2,551.7,658.8,551.7,653z M558.3,735.9c1.8,2.4,2.8,4.2,4.3,5.7c0.5,0.5,2.2-0.1,2.8,0.5 c5.4,4.7,6.6,4.6,12.2,0.4c1.1-0.8,3.2-0.1,4.8-0.4c1.3-0.2,2.9-0.5,3.6-1.4c0.6-0.9,0.4-2.5,0.3-3.8c-0.1-1.3-0.6-2.7-1.2-5.4 C578,740.3,568.7,735.5,558.3,735.9z"></path> <path style="fill:#FFFFFF;" d="M305.7,603.7c2-2.9,3.4-6.9,6.2-8.4c2.6-1.4,6.6-0.3,10-0.3c29,0,30.4,0.2,35.2-27.8 c5.4-31.4,8-63.2,12.2-98c-29.2,8.1-34.8,29.7-40.7,51.4c-11-18.3-10.2-32.3,3-59.8c-19.5,0.3-28.5,7.9-41.7,32.9 c-0.7-14.9-4.9-30.9-0.7-44.2c2.5-8,17.7-13.9,28.2-16.8c10.3-2.8,21.9-0.6,34.4-0.6c-5.8-11.8-14.6-19.2-33.3-18.3 c9.5-7.8,16.3-13.3,24-19.6c9.8,7.5,19.3,14.7,25.4,19.3c13.9-9,26.1-16.8,38.1-24.9c2.4-1.6,4.4-4.6,5.4-7.3 c15.4-45.9,33.9-58.7,82.9-57.2c3.7,0.1,7.4,0,13.4,0c-17.1-13.2-34.8-19.5-52.8-13.3c-16.4,5.6-30.9,16.6-46.1,25.1 c6.6-27.9,30.6-40,54.6-52.1c-0.4-1.1-0.7-2.3-1.1-3.4c-12.4-2.1-24.9-4.2-37.3-6.3c32.4-12,62.3,0.4,95.1,10 c-6.3-7.1-10.7-12.1-15.6-17.6c2.7-3.6,5.3-6.9,9.1-11.8c-17.2-4.8-33.2-9.2-51.4-14.3c5.3-3.7,8.9-6.2,13.2-9.2 c-4-3.4-7.2-6-10.3-8.7c0.3-1,0.6-2,0.9-3.1c17.6,3,36.6,2.8,52.3,10c15.7,7.1,28.1,21.5,43.4,33.9c14.5-30.8,43.1-30.9,70-33.3 c6.4-0.6,13.3,4.7,20,7.3c-0.3,1.4-0.5,2.9-0.8,4.3c-4.6,0.7-9.2,1.4-12.1,1.9c10,8.7,20.3,17.6,30.6,26.6c-0.9,1.4-1.8,2.8-2.6,4.2 c-29-11.9-50,4.4-69.6,16.7c21.1,1.6,44.1,0.9,65.8,5.8c21.9,4.9,41.7,16.5,55.7,40.5c-9.4-1.6-15.3-2.6-22.3-3.8 c8.8,27.1,16.3,53.7,1.5,81.1c-6.4-14.5-12-27.9-18.1-41c-4.9-10.4-13.4-14.7-24.9-16.9c-9.9-1.8-19-8.2-28.9-12.8 c8.3,20.7,21.1,41.3,24.2,63.2c3.1,21.7-6.4,43.8-19,65.8c-3.1-25.2-5.8-47.2-8.6-69.3c-1.7,0-3.5,0-5.2,0 c-5,15.8-10,31.6-15.1,47.3c-1.9-0.1-3.8-0.1-5.7-0.2c2.8-27.9-4.6-52.3-20.9-73.6c-1.5,0.2-2.9,0.3-4.4,0.5 c0,24.4-3.7,49.5,0.8,73.1c8,41.1,21.2,81.2,31.8,121.8c4.6,17.6,14.2,26,33.1,22.4c5.9-1.1,13.5-2,11.8,8.5 C534.7,603.7,420.2,603.7,305.7,603.7z M508.8,548.8c-1.6,0.5-3.2,1.1-4.8,1.6c0,12.4-0.4,24.9,0.3,37.3c0.1,2.5,4.2,6.8,6.6,6.9 c21.5,0.5,43.1,0.3,66.9,0.3c-25-73-37.2-145.3-37.8-219.9c-4.5,7-7.2,14.1-10.4,21c-2.9,6.4-5.8,17.9-9.4,18.2 c-20.4,1.6-14.6,17.1-16.3,28c-1.2,7.4-0.4,13.7-8.1,19.6c-11.3,8.6-9.8,26.8,0.6,36.9c3.7,3.6,7.1,7.6,9.8,10.5 c-7.2,3.3-13.9,6.3-20.5,9.4c51.9,6.3,62.2,27.7,46.8,49.8C524.7,561.8,516.7,555.3,508.8,548.8z M385.6,483.2 c-6.7,39-12.9,75.2-19.2,111.8c14.7,0,30.1,0,43.5,0c0.8-12.1,1.5-23.1,2.3-36.1c-5.6,3.6-10.2,6.5-16.2,10.3 c-1.2-16-5.1-30.6,8.1-42.7c1.8-1.6,2.7-6.4,1.6-8.5C399.5,506.4,392.5,495.1,385.6,483.2z M394.4,423.3c11.4,0,20.2,0.7,28.7-0.3 c3.7-0.4,8-3.6,10.4-6.8c12.5-16.9,24.4-34.3,36.7-51.4c2.3-3.2,5.2-5.9,10.3-11.5c-6.3,0.8-8.8,0.6-10.8,1.4 C437.2,367.8,420.1,397.9,394.4,423.3z M416.7,458.1c-1.5,1.7-3,3.3-4.4,5c18.1,16.8,36.1,33.7,56,52.2c3.9-4.4,7.5-8.5,11.2-12.7 c-6.3-11.4-12-21.9-19.5-35.5c-1.7,8.7-2.6,13.7-3.9,20.3C442.2,477,429.4,467.5,416.7,458.1z M503.6,594.2 c-10.3-14-18.9-25.6-27.4-37.2c-1.7,0.3-3.4,0.6-5.1,0.9c-1,11.8-2,23.5-3.1,36.3C480,594.2,490,594.2,503.6,594.2z M438.7,594.4 c8,0,14.1,0,21.6,0c-2.4-8.7-4.7-16.6-8.1-28.8C446.7,577.3,443,585.2,438.7,594.4z M436.5,425.8c6.9,5,11.5,8.3,18,13 c-1.2-8.8-2.1-14.9-3.4-23.9C445,419.4,441.5,422,436.5,425.8z"></path> </svg> 