<?xml version="1.0" encoding="UTF-8"?> <!-- Generator: Adobe Illustrator 25.3.1, SVG Export Plug-In . SVG Version: 6.00 Build 0) --> <svg xmlns="http://www.w3.org/2000/svg" xmlns:xlink="http://www.w3.org/1999/xlink" version="1.1" id="Layer_1" x="0px" y="0px" viewBox="0 0 1000 1000" style="enable-background:new 0 0 1000 1000;" xml:space="preserve"> <path style="fill:#FFFFFF;" d="M973,585.6c-1,3.9-1.7,7.8-2.9,11.7c-3.5,11.5-12.5,19.1-22.1,18.7c-7.8-0.3-13.2-5.4-17.4-11 c-5.6-7.5-10.3-15.8-15.3-23.8c-1.9-3-3.2-6.9-5.8-9c-2-1.6-6.5-2.2-8.5-1c-4.6,2.8-8.6,6.7-12.4,10.5c-5.7,5.8-10.6,12.6-16.8,17.8 c-8.3,7.1-18.2,8.5-28.9,5.1c-12-3.8-15.6-15.1-14.1-23.9c6.7-38.2,20.9-73.8,41.9-106.4c5.3-8.2,11.1-16.5,18.5-22.7 c19.1-16,41.1-14.9,56.3,7.4c9,13.3,14,28.3,17,43.8c3.5,18.1,5.8,36.4,8.7,54.6c0.5,3.3,1.2,6.6,1.9,10 C973,573.5,973,579.5,973,585.6z M900.1,519.9c0.8,4.4,1.2,9.2,2.7,13.5c0.8,2.5,3.2,5.6,5.4,6.1c2,0.5,5.7-1.4,7.1-3.4 c7.7-11.1,9.6-23.4,5.6-36.4c-1.4-4.7-4.7-9.1-9.7-8.8c-4.6,0.2-7.2,5-8.2,9.3C901.5,506.5,901,513,900.1,519.9z"></path> <path style="fill:#FFFFFF;" d="M47.5,527.6c0-11.4-0.3-22.8,0.1-34.2c0.2-6.4,1.8-12.7,2.7-19c0.6-4,1-8.1,2-12.1 c3.1-13.5,13-19,25.5-20.2c12-1.2,24.2-2.2,36.2-1.8c13.4,0.5,26,4.2,35.5,14.7c5.4,6,8.2,13.2,9.3,21.2c1.4,10.6,1.5,21-0.8,31.5 c-0.2,1,1.1,2.8,2.1,3.4c5.4,3.2,11.4,5.6,16.3,9.3c3.8,2.8,6.9,7,9.3,11.1c3.6,6.1,7.4,12.1,6.3,20.1 c-2.2,15.5-10.6,26.8-22.7,35.7c-18.7,13.9-39.8,22.3-62.7,26.3c-10.6,1.9-21.3,2.2-31.9-0.7c-3.4-1-6-2.6-7.7-6.2 c-1.2-2.5-3.8-4.4-6-6.3c-8.3-6.8-12.1-15.9-12.5-26.1c-0.5-15.6-0.1-31.3-0.1-47C48.1,527.6,47.8,527.6,47.5,527.6z M106.5,567.1 c2.9,0.4,6.4,1.9,9.2,1c7-2.2,13.7-5.1,20.3-8.3c4.3-2.1,6.2-5.9,5.6-10.9c-1-8.3-5.5-13.2-14-15.1c-0.8,0.9-1.2,2.1-2,2.2 c-1.3,0.3-2.8,0-4.2,0.1c-14.8,1.6-19.5,5-17.8,20.4C104,559.9,105.4,563.2,106.5,567.1z M92.7,492.1c0.9,3.3,1.6,7.6,3.3,11.5 c2,4.8,5.2,6,8.9,4.3c4.9-2.3,8.8-9.6,8.2-15.7c-0.8-8.2-4.4-13.3-10.6-15c-4.3-1.2-7.2,0.3-8.2,4.6C93.6,484.8,93.4,488,92.7,492.1 z"></path> <path style="fill:#FFFFFF;" d="M262.9,389.2c-20.1-0.2-38.5-5.1-54.2-18.1c-4.3-3.5-8.1-8.2-10.8-13c-7.2-12.8-0.8-24.8,12.9-29.1 c11.4-3.6,21.9,0.2,32,5.4c7.6,3.9,15.3,8.1,23.3,10.8c4.9,1.6,10.9,1.5,16.1,0.6c8.2-1.5,10.8-12.5,4.8-18.3 c-6.1-5.9-14.3-7-21.9-9c-12.9-3.4-26.1-5.5-38.7-9.8c-18.2-6.1-31.8-17.8-36.4-37.4c-4.2-17.7-0.8-34.8,15.7-48.4 c13.4-11.1,29.3-15.9,46.4-18c16.8-2,32.8-0.6,47.9,7.5c8.5,4.6,15.3,10.8,18.4,20.4c2.5,7.7-0.4,11.8-8.4,12.3 c-7.4,0.4-13.7-2.8-20.3-5.3c-9.8-3.7-19.6-7.7-29.7-10.5c-9.9-2.8-18.4,0.8-22.9,8c-3.5,5.7-3.2,10.8,1,16.1 c6,7.6,14.8,10.1,23.4,12.9c14.7,4.8,30.1,7.7,43.8,15.3c15.5,8.5,27.3,20,32.2,37.6c4.3,15.3-1.1,28.3-9.4,40.2 c-11.9,16.9-29.2,25.5-49.4,28.5C273.6,388.6,268.2,388.7,262.9,389.2z"></path> <path style="fill:#FFFFFF;" d="M789.3,266.1c-16.7,0-19.3,1.5-22.9,18.2c-2.4,11-3.3,22.3-4.5,33.6c-2.1,19.4-3.8,38.8-5.8,58.2 c-0.2,2.1-1.3,4.2-1.9,6.3c-2.4,8.5-9.6,10.8-16.8,11.8c-2.8,0.4-6.7-2.4-9-4.9c-6.1-6.5-7.6-15.2-8.2-23.5 c-1.2-15.7-1.8-31.5-1.7-47.3c0.2-17.2,1.4-34.3,2.3-51.5c0.3-5.6-1.5-7.5-7.1-8.6c-6.3-1.3-13-2.5-18.5-5.6 c-10.5-5.9-13.7-19.3-11.9-27.4c2.3-10.7,10.8-15.8,20.8-18.1c5.9-1.3,12.2-1.9,18.3-1.9c15.2,0,30.4-0.1,45.5,1.1 c9.6,0.7,19.4,2.5,28.4,5.7c18.4,6.5,23.1,26.1,18.3,41.6c-2.5,8.1-8.9,12.3-17.5,12.4C794.4,266.1,791.9,266.1,789.3,266.1z"></path> <path style="fill:#FFFFFF;" d="M615.7,535.9c1.3,7.8,2.6,15.7,4.1,23.5c2,10.4,4.9,20.7,6.2,31.3c1.1,9.8-2,19.6-11.6,22 c-5.1,1.2-9.4-0.1-13.4-2.8c-7.6-5.3-11.7-13.1-14.9-21.4c-7.3-18.9-7.2-38.8-6.8-58.7c0.2-11.1,1.3-22,4.6-32.6 c4.4-13.7,16.6-19.1,29.6-12.6c11.1,5.5,18.7,14.9,26.6,23.9c2.7,3.1,5.4,6.1,9.3,8.8c0-1.8,0-3.5,0-5.3c0.2-10.7,1.8-21,8.1-29.9 c2.4-3.5,6.1-6.4,9.8-8.6c6.1-3.7,14.3-1.4,18.3,4.5c6.7,9.9,9.1,21.2,10.6,32.7c1.6,12.5,2.5,25,3.9,37.5c1.7,14.8,3,29.5-1,44.3 c-3.6,13-12.3,16.8-23.9,9.7c-11.1-6.8-20-15.9-27.7-26.2c-9.3-12.5-18.4-25.1-27.6-37.7c-0.8-1-1.7-2-2.5-3 C616.9,535.4,616.3,535.6,615.7,535.9z"></path> <path style="fill:#FFFFFF;" d="M356.5,267.7c-1,0.1-2.1,0.2-3.2,0.3c-0.2-0.4-0.5-0.7-0.5-0.9c1.6-7.2,4-14,9.8-18.9 c7.3-6.2,17.3-3.3,19.1,6.1c1.2,6.4,1.3,13.2,1.1,19.7c-0.2,11-1,22.1-1.5,33.1c-0.1,1.4,0.6,2.9,1.1,5.6c3.3-3.3,5.9-5.7,8.4-8.3 c3.1-3.2,5.9-6.6,9-9.8c5.3-5.3,11.5-5.6,17.3-0.7c5.5,4.6,10.6,9.7,15.5,14.3c0-6.8-0.2-14.7,0-22.5c0.4-13.4,4.1-25.7,12.2-36.6 c7.4-9.9,18-9.5,22.3,1.9c3.4,8.8,5.3,18.5,5.9,27.9c1.2,22.5,0.1,44.9-4.5,67c-1.3,6.3-4,12.5-6.8,18.4c-8.1,17.5-25.3,16-35.8,5.8 c-7-6.8-12-14.9-15.6-24c-1-2.6-3-4.9-4.6-7.3c-1.8,2.4-4.1,4.5-5.5,7.2c-3,5.7-4.9,12-8.3,17.5c-3.7,6.1-7.9,12.2-12.9,17.2 c-6.4,6.4-14.8,5.3-21.5-0.9c-6.5-6-9.3-13.8-9.8-21.8c-1-16.2-1.2-32.5-0.7-48.7c0.3-11.3,2.3-22.5,3.5-33.8 C351,271.6,352,268.6,356.5,267.7z"></path> <path style="fill:#FFFFFF;" d="M371.7,530.3c-0.6,4.9-1.5,9.8-1.8,14.7c-0.8,13.7-1.1,27.4-2,41.1c-0.4,5.5-2.3,10.8-6.6,14.6 c-7.5,6.5-18,4.5-23.4-5.5c-3.4-6.2-6-13.3-6.7-20.3c-1.5-14.5-1.8-29.2,2.6-43.4c3.9-12.4,7-25.1,11.6-37.2c2.3-5.9,6.7-11.2,11-16 c4.8-5.5,16-5.3,22.9-0.6c7.4,5,12.2,12.2,16.3,19.8c3.7,6.8,6.7,13.9,10.7,20.5c2.4,4,6,7.4,9.1,11c0.5-0.2,1-0.5,1.5-0.7 c1-5,2.3-10,2.9-15.1c1.1-9.7,4.1-18.7,10.2-26.4c3.7-4.6,8.6-6.3,14.4-4.5c5.8,1.9,8.9,6.2,10.2,12c4.3,17.8,1.3,35.3-1.8,52.8 c-2.7,15.3-5.2,30.6-8.9,45.6c-1.6,6.3-5.4,12.3-9.2,17.8c-4.1,5.8-11.4,6.6-17.2,2.4c-8.4-6-14.5-14.3-18.7-23.5 c-8.2-18-15.4-36.4-23.1-54.6c-0.6-1.5-1.4-3-2.1-4.5C373,530.2,372.4,530.2,371.7,530.3z"></path> <path style="fill:#FFFFFF;" d="M261.4,605.7c-28.7-0.2-52.9-21-57.9-46.7c-2.9-15.2-2.4-30,3.8-44.2c8.4-19.4,24.5-29.3,44.4-33.8 c17.5-3.9,34.4-2.2,49.1,8.5c6,4.4,11.1,10.7,15.1,17c8.4,13.2,8.9,28.1,7.5,43.3c-2.8,30.4-22.1,45.7-49.3,53.6 C269.2,604.9,264,605.3,261.4,605.7z M280.7,551.3c-0.9-13.5-2.5-25.1-7.7-35.7c-1.6-3.3-5.4-6.6-8.8-7.4c-2-0.4-5.7,3.7-7.5,6.6 c-6.4,9.5-7.7,20.2-5.6,31.2c2.1,10.7,7.8,19.2,17.4,24.6c5.1,2.9,8.1,1.7,9.4-4C279.2,561,280,555.3,280.7,551.3z"></path> <path style="fill:#FFFFFF;" d="M472.8,346.6c1.5-12.6,2.9-25.2,4.5-37.7c1.5-11.6,3-23.2,4.9-34.7c1.2-7.2,2.6-14.4,4.9-21.3 c2.3-7.1,8.9-9.2,15.5-9.4c21.5-0.6,42.2,3.7,62.3,11c9.9,3.6,15,13.5,14.2,24.2c-0.4,5-3.9,8.7-8.9,8.3 c-10.1-0.8-20.1-2.2-30.2-3.3c-7.7-0.8-15.5-1.3-21.5,4.8c-1.6,1.6-3.3,5-2.6,6.3c1,1.9,4.1,3.3,6.5,3.5c4.9,0.5,9.8,0.2,14.7,0.2 c7.7,0,14.2,2.8,19.5,8.3c5.6,5.8,3.5,13.9-4.3,15.3c-6.7,1.2-13.6,1.5-20.5,2c-8.9,0.7-16.5,3.6-20.9,11.9 c-3.2,6.1,1.3,13.7,8.3,13.7c4.2,0,8.3-1,12.5-1.4c6.1-0.5,12.3-1.6,18.4-1.2c8.3,0.5,13.5,6.6,13.8,14.9c0.1,3.5,0.1,7.1,0,10.6 c-0.1,5.1-5.6,10.7-12.4,12.3c-12.7,3-25.6,2.5-38.4,0.6c-6.2-0.9-12.4-1.8-18.4-3.4c-16.5-4.5-19.2-10.9-21-26.2 c-0.4-3-0.1-6-0.1-9C473.3,346.7,473,346.6,472.8,346.6z"></path> <path style="fill:#FFFFFF;" d="M484.9,493.5c6.3-4.4,12.2-8.9,18.6-12.7c13.5-8,26.2-5.2,35.6,7.5c9.6,12.9,14.4,27.9,18.1,43.2 c3.6,14.8,6.7,29.7,9,44.8c1,6.9-0.3,14.1-1.3,21.1c-0.4,2.7-2.3,5.7-4.2,7.7c-6.6,6.9-13.7,8.7-20.1,2c-5.8-6.1-10.4-13.3-15.5-20 c-1.1-1.5-1.9-3.3-2.9-4.8c-4-5.6-9.1-6.2-13.9-1.2c-4,4.2-7.1,9.2-10.7,13.8c-6.8,8.7-15.5,14.3-26.9,14.4c-7.5,0-11.8-4-13.2-11.3 c-2.5-12.6,0.9-24.5,3.9-36.5c5.2-20.3,11.4-40.3,22-58.6C485,500,487.8,497.4,484.9,493.5z M525,533.7c0.4-5.8-0.9-11-5-15.6 c-4.2-4.6-7.6-4.1-10.2,2.2c-4,10.1-2.4,20.4,1.1,30.4c0.5,1.4,3,3,4.6,3c1.6,0,3.6-1.4,4.7-2.8C524.3,546,525.4,540,525,533.7z"></path> <path style="fill:#FFFFFF;" d="M621.9,387.4c-9.8-0.2-19.3-1.7-24.3-10.9c-3.9-7.2-7.3-15.1-8.6-23.1c-3.1-18.9-4.9-38.1-6.9-57.2 c-1-9.1-1.6-18.3-1.9-27.4c-0.3-9,4.1-15.3,12.8-17.6c8.3-2.2,16.9-4.1,25.5-4.5c13-0.6,26.2-0.5,39.2,0.7c10.3,0.9,17,9,17.9,18.4 c0.6,6.2-1.7,10.4-7.8,11.6c-8.2,1.5-16.6,1.8-24.8,3.1c-6,0.9-12,2.1-17.7,4.1c-4.4,1.6-7.4,5.2-8,10.3c-0.5,4,1.2,6.2,5.3,5.9 c4.1-0.4,8.1-1.1,12.1-1.9c6.9-1.4,13.8-3.7,20.9-1.3c1.8,0.6,3.6,1.2,5.2,2.2c7,4.4,7.1,11.3-0.4,15c-5.7,2.8-12.1,4.1-17.9,6.7 c-5.3,2.4-11,5-15.2,8.9c-2.8,2.6-4.2,7.7-4.6,11.8c-0.6,6.1,5.5,10.1,12.4,8.4c4.2-1,8.3-2.8,12.3-4.7c6.4-3,12.9-6.3,20.2-5.4 c3.4,0.4,7.2,1.8,9.6,4c9.8,9.2,7.8,25.6-4.1,31.8c-6.4,3.3-13.5,6-20.6,7.4C642.4,385.7,632.1,386.2,621.9,387.4z"></path> <path style="fill:#FFFFFF;" d="M759.7,576.5c7.9-0.7,15.1-1.5,22.3-1.9c6.3-0.3,12.8-1,18.9,0.2c9.1,1.8,11.3,11.5,5.2,19.3 c-6.5,8.2-15.7,11.6-25.4,13.1c-19.1,3-38.1,2-56.5-4.6c-7.6-2.7-15.3-5.7-18.8-13.9c-0.9-2-1.1-4.8-0.4-6.8 c4.7-12.9,14.9-21.5,24.5-30.7c10.2-9.7,20.1-19.7,29.6-30c4.7-5.1,3.4-8.6-3.3-10.6c-7.6-2.3-15.7-3.3-23.1-5.9 c-4.9-1.8-9.5-5.1-13.6-8.5c-4-3.2-4.2-9.2-0.1-12.4c3.7-2.9,8.5-5.8,12.9-6c13.2-0.6,26.5-0.5,39.6,0.7c8.7,0.8,17.3,3.9,25.8,6.4 c11,3.3,15.9,13.1,11.8,23.7c-4.7,12.3-12.5,22.7-21.2,32.5c-9.4,10.6-18.3,21.7-27.4,32.6C760.1,574.1,760.2,574.8,759.7,576.5z"></path> <path style="fill:#FFFFFF;" d="M808.3,788.8c-7.8-0.6-14.9-1.3-21.9-1.6c-2.7-0.1-4.2-1.1-5.4-3.5c-5.9-12-12-24-18-36 c-0.5-0.9-0.9-1.8-1.8-3.5c-1.2,13.8-2.3,26.6-3.5,40.1c-8.7-0.6-17.2-1.2-26.1-1.9c2.2-29.3,4.4-58.1,6.7-88.1 c8.6,0.7,17.2,1.3,25.7,2.4c1.1,0.1,2.3,2.4,3,3.9c5.9,12.3,11.8,24.6,17.7,36.8c0.4,0.8,0.9,1.6,1.9,3.5c1.4-14.7,2.6-28.2,4-42.2 c8.9,0.8,17.4,1.7,26.7,2.5C814.2,730.7,811.3,759.7,808.3,788.8z"></path> <path style="fill:#FFFFFF;" d="M284.6,693.1c8.2-0.5,16.2-1.3,24.2-1.4c1.6,0,3.7,2.1,4.8,3.7c7.6,11.2,15.1,22.6,22.5,33.9 c0.5,0.7,1,1.4,2.5,2c-0.8-13.6-1.6-27.2-2.4-41.3c9.3-0.4,17.9-0.8,26.9-1.3c1.2,29.4,2.4,58.4,3.7,88c-8.1,0.3-16.1,0.7-24.1,0.8 c-1.1,0-2.6-1.4-3.4-2.5c-8.3-11.6-16.5-23.3-25.5-34.8c0.7,12.9,1.4,25.8,2.2,39c-8.1,0.6-15.5,1.2-22.9,1.6c-1,0-2.9-1.5-3-2.5 c-2.1-27.9-4-55.8-5.9-83.7C284.2,694.3,284.4,694,284.6,693.1z"></path> <path style="fill:#FFFFFF;" d="M381.1,776.1c0-7.8,0.1-15.1,0-22.5c-0.1-7.4-0.7-14.8-0.8-22.3c-0.1-7,0.7-14.1,0.2-21.1 c-0.5-7.2-2-14.2-3.1-22c7.4-0.4,13.5-0.9,19.6-1c11.4-0.2,22.8-0.7,34.1-0.1c11.4,0.6,19.1,7.5,22.6,18.1c5.4,16.2,6.2,32.7,1,49.2 c-4.1,13-14.5,20.1-28.1,20.4C412,775,397.3,775.6,381.1,776.1z M406.8,712.6c0,13,0,24.9,0,37.4c5-0.3,9.2-0.7,13.4-0.8 c4.9-0.1,8-2.6,9.6-7c2.6-7.2,2.6-14.5,0-21.7c-1.7-4.7-5.1-7.5-10.2-7.8C415.4,712.5,411.2,712.6,406.8,712.6z"></path> <path style="fill:#FFFFFF;" d="M823.2,790.6c3-29.2,6-58.1,9-87.7c7.8,0.8,15.3,1.5,22.8,2.3c8.6,1,17.3,1.7,25.9,3.1 c14,2.4,22.7,11.4,24.4,25.9c1.7,14.8,0.4,29.5-5.8,43.2c-6.6,14.6-17.8,19.9-33.8,17.6C852,793,838.1,792.1,823.2,790.6z M856.2,732.4c-1.5,12.2-2.9,23.7-4.4,35.8c8.6,0.1,17.4,5.6,23.3-3.6c4.9-7.5,6.4-16.6,2.8-24.6C874,731.4,864.9,732.7,856.2,732.4 z"></path> <path style="fill:#FFFFFF;" d="M171.2,687c-1.5,8.8-3,16-3.8,23.3c-0.3,3-1.4,3.5-4.1,3.7c-8.1,0.5-16.2,1.8-23.4,6.1 c-10.1,5.9-14,15.1-11.7,27.4c1.9,10.3,10,18.6,20.7,19.6c7.7,0.7,15.6-0.3,23.4-0.6c0.9,0,1.9,0,3.2,0c0.7,7.2,1.5,14.3,2,21.5 c0.1,1.2-1.3,3.4-2.3,3.6c-16.1,3.1-32.3,4.6-47.9-1.9c-15.6-6.6-23.9-19.3-27.2-35.4c-4-19.1-1.5-36.8,13.5-50.8 c9.6-9,21.5-13.4,34.4-15C155.5,687.4,163.1,687.4,171.2,687z"></path> <path style="fill:#FFFFFF;" d="M215.4,787.1c-8.4,0.8-16.6,1.5-25.5,2.3c3.1-12.5,6-24.2,9-35.9c4.3-16.5,8.7-33,12.9-49.5 c0.9-3.6,1.9-5.6,6.4-5.6c5.8,0.1,11.6-1,17.5-1.7c3-0.4,4.9,0.4,6.3,3.4c9.8,21.7,19.9,43.3,29.8,64.9c2.5,5.4,4.6,10.9,7.1,16.9 c-8.4,0.7-16.4,1.5-24.3,1.8c-1,0-2.4-2.2-3.1-3.6c-4-7.8-4-7.9-12.5-7.3c-5.5,0.3-11.1,0.4-16.5,1.2c-1.7,0.2-3.8,2-4.5,3.6 C216.7,780.3,216.3,783.5,215.4,787.1z M238.8,746.8c-3.2-7.3-6.3-14.3-9.9-22.4c-2.1,8.6-3.9,15.9-5.9,24 C228.5,747.8,233.3,747.3,238.8,746.8z"></path> <path style="fill:#FFFFFF;" d="M720.6,781.5c-8.3-0.5-15.8-0.7-23.1-1.5c-1.5-0.2-3.7-2.6-3.9-4.2c-0.9-6.3-3.8-9.5-10.5-9.3 c-6.1,0.1-12.3-0.9-18.4-1c-1.2,0-2.9,1.5-3.5,2.7c-4.9,10-4.8,9.9-16.2,8.9c-4.2-0.4-8.5-0.1-13.9-0.1c3.6-6.2,3.3-13.4,8.9-16.9 c0.7-3.1,0.9-6.1,2-8.8c6.6-15.9,13.2-31.8,20.2-47.6c1.6-3.7,4.4-7.1,7.2-10c1.1-1.2,3.8-1.1,5.8-1.1c5.2,0,10.4,0.6,15.5,0.5 c3.1-0.1,4.4,1,5.2,3.9c6.4,21.8,13,43.4,19.5,65.2C717.1,768.2,718.7,774.5,720.6,781.5z M685.7,740.5c-2.1-7.7-4.1-14.7-6.4-22.9 c-3.4,8.1-6.3,15.3-9.4,22.9C675.4,740.5,680.1,740.5,685.7,740.5z"></path> <path style="fill:#FFFFFF;" d="M627.3,750.8c-2.5,8.2-4.7,15.7-7.2,23.1c-0.3,0.8-1.7,1.8-2.6,1.8c-18.6-0.3-37.2-0.8-56.8-1.3 c0.6-34.4,1.3-68.6,1.9-103c9.1,0,17.6,0,26.9,0c-0.3,4.7-0.7,9.2-0.7,13.7c-0.2,9.8-0.1,19.6-0.3,29.4c-0.2,9.6-0.6,19.2-0.9,28.9 c-0.3,6.4-0.3,6.4,6.4,6.5C604.9,750.1,615.8,750.5,627.3,750.8z"></path> <path style="fill:#FFFFFF;" d="M547.3,685.4c-4.1,6-7.4,10.9-10.8,15.7c-7.3,10.3-14.7,20.5-21.8,30.9c-1.4,2.1-2.2,4.9-2.3,7.4 c-0.2,11.2-0.1,22.4-0.1,34c-8.8,0-17.3,0-27,0c0-8.5-0.7-17.2,0.2-25.7c0.9-9.4-2.5-16.6-7.9-23.8c-8.7-11.4-16.6-23.3-24.9-35 c-0.4-0.6-0.7-1.3-1.8-3.2c10.4,0,19.8-0.1,29.2,0.1c1.1,0,2.5,1.6,3.3,2.8c5.2,8.3,10.2,16.7,15.5,25.4c4.8-8.1,9.5-15.8,13.9-23.8 c2-3.6,4.2-5.2,8.5-5C529.4,685.7,537.6,685.4,547.3,685.4z"></path> </svg> 