<?xml version="1.0" encoding="UTF-8"?> <!-- Generator: Adobe Illustrator 24.3.0, SVG Export Plug-In . SVG Version: 6.00 Build 0) --> <svg xmlns="http://www.w3.org/2000/svg" xmlns:xlink="http://www.w3.org/1999/xlink" version="1.1" id="Layer_1" x="0px" y="0px" viewBox="0 0 228.6 173.4" style="enable-background:new 0 0 228.6 173.4;" xml:space="preserve"> <polygon style="fill:#FFFFFF;" points="17.3,41.5 32.7,39.7 31.2,61.6 37.3,61.6 39.1,39.7 54.3,38.2 49.7,97.4 34.5,97.4 35.8,75.5 29.1,75.5 27.8,99.2 12.9,99.2 "></polygon> <polygon style="fill:#FFFFFF;" points="103.7,33.8 118.7,32.5 115.3,77.6 127.9,77.6 127.9,90.9 98.1,92.5 "></polygon> <polygon style="fill:#FFFFFF;" points="135.4,31.2 150.6,29.9 147.8,74.2 159.1,74.2 159.1,88.1 131,89.7 "></polygon> <polygon style="fill:#FFFFFF;" points="167.6,28.7 197.4,26.1 197.4,38.2 182.5,39.2 182.5,49.2 194.1,49.2 193.6,62.5 180.2,62.5 180.2,72.9 193.3,72.9 193.1,86.1 162.9,87.6 "></polygon> <path style="fill:#FFFFFF;" d="M44.8,105.6H29.4c0,0-19-2.3-20.6,21.4l-2.1,26.5c0,0,0.5,9.8,10,11.8h6.9c0,0,13.9-1.5,17.5-3.6 l2.3-33.7l-17.8,0.5v12.9l3.9-0.3l-0.8,11.6c0,0-8.2,2.6-7.5-5.4l1.3-20.3c0,0,0.2-9.8,9.1-9.7l13.1,0.2V105.6z"></path> <path style="fill:#FFFFFF;" d="M81.3,101.1l-22,1.9l-14.5,58.7H59l2.1-11l10.4-0.2l0.4,10l15.4-2.3L81.3,101.1z M63.4,138.1 l5.8-22.8l1.7,22.8H63.4z"></path> <polygon style="fill:#FFFFFF;" points="90,158.6 95.1,101.1 117.4,98.2 118.7,133.3 127.9,97.2 149.5,95.7 145.1,154.4 129.8,155.1 133.3,115.4 123.6,155.9 111.1,156.3 108.4,116.7 104.3,157.1 "></polygon> <polygon style="fill:#FFFFFF;" points="155.9,94.7 185.6,92 185.6,104.6 169.8,106.1 169.4,115.4 181.2,115.4 180.2,128.1 168,128.1 167.1,139.1 181.7,138.1 181.4,151.3 150.8,153.2 "></polygon> <path style="fill:#FFFFFF;" d="M221.7,89.7h-18c0,0-14.7,1.7-14.5,17.8l0,5.4v5.7c0,0-1.1,7.2,10,6.9c0,0,7.2-0.6,6.2,5.2 c0,0,0.6,5.9-4.3,6.6c-4.9,0.7-13.7,0-13.7,0l-0.5,11.9h19.5c0,0,14.6,0,14.7-21.4c0,0,1.5-12.8-6.3-14.6h-7c0,0-5.2,1.2-4.2-6.9 c0,0-1.1-5.4,6.3-5.2c7.3,0.2,11.8,0,11.8,0V89.7z"></path> <path style="fill:#FFFFFF;" d="M68.1,11.8c0,0-6.1,6.7-3.4,11.1s7.8,3.2,7.8,3.2s7.8-2.7,5.7-10.8s-5.3-7-5.3-7S70.4,21.9,68.1,11.8 z"></path> <path style="fill:#FFFFFF;" d="M86,10.8c0,0-6.1,6.7-3.4,11.1s7.8,3.2,7.8,3.2s7.8-2.7,5.7-10.8s-5.3-7-5.3-7S88.4,20.9,86,10.8z"></path> <path style="fill:#FFFFFF;" d="M86.5,35.1H73.9c0,0-13.8,2.6-14.7,15.7l-2.3,35c0,0,0.3,8.8,7.5,9.5h14.9c0,0,11.3-1.5,13.9-13.4 l3.3-36.8C96.5,45.1,96.8,35.6,86.5,35.1z M81.5,51.8c0,0-2.2,25-2.3,26.8c-0.1,1.8-1.4,4.6-4.8,4.5C71.1,83,72,78.7,72,78.7 l2.4-26.9c0,0,0.4-5.3,4.2-4.6C82.5,47.8,81.5,51.8,81.5,51.8z"></path> </svg> 