<?xml version="1.0" encoding="UTF-8"?> <!-- Generator: Adobe Illustrator 25.3.1, SVG Export Plug-In . SVG Version: 6.00 Build 0) --> <svg xmlns="http://www.w3.org/2000/svg" xmlns:xlink="http://www.w3.org/1999/xlink" version="1.1" id="Layer_1" x="0px" y="0px" viewBox="0 0 1000 1000" style="enable-background:new 0 0 1000 1000;" xml:space="preserve"> <path style="fill:#FFFFFF;" d="M21.4,410.2c0,0,120.2-1.8,122,0c1.8,1.8,38.8,13.6,38.8,13.6v21.5h-51.7l-20.1,3.6l17.9,5.7v23h53.8 v36.6H129v56H42.2l36.6-12.9l5.7-6.5V437.5l-20.8-6.5l11.5-5.7L21.4,410.2z"></path> <polygon style="fill:#FFFFFF;" points="182.2,412.4 251.8,412.4 251.8,550.2 236,554.5 251.8,561 251.8,570.3 210.2,570.3 210.2,430.3 196.5,421.7 204.4,417.4 "></polygon> <path style="fill:#FFFFFF;" d="M281.9,412.4h100.5v39.5h-38.8c0,0-14.4,3.6-25.1,13.6l-17.2,3.6l11.5,4.3c0,0-9.3,49.5,27.3,51.7 l0.7-25.8l-15.8-7.9h43.1l14.4,5v55.3l-6.6,2.8l-8.5,3.6l7.9,5c0,0-68.2,26.6-102.6-41.6s40.9-101.2,40.9-101.2L281.9,412.4z"></path> <polygon style="fill:#FFFFFF;" points="393.9,412.4 464.3,412.4 464.3,467.7 510.9,467.7 510.9,426 482.9,412.4 555.4,412.4 555.4,570.3 513.8,570.3 513.8,527.2 545.4,510.7 464.3,510.7 464.3,561 480.1,570.3 393.9,570.3 418.3,561.7 406.8,554.5 420.5,552.4 420.5,427.5 "></polygon> <polygon style="fill:#FFFFFF;" points="574.1,412.4 682.5,412.4 694.7,418.1 694.7,458.3 658.8,458.3 658.8,570.3 609.3,570.3 609.3,471.3 579.6,471.3 625.8,455.5 574.1,455.5 "></polygon> <polygon style="fill:#FFFFFF;" points="811.7,472.5 811.7,510.7 756.8,510.7 756.8,535.1 789.4,535.1 811.7,541.6 811.7,570.3 673.1,570.3 712.6,563.9 688.9,558.1 710.5,552.4 711.9,420.3 701.9,412.4 785.8,412.4 811.7,421 811.7,446.8 734.9,446.8 756.8,452.6 756.8,472.5 "></polygon> <path style="fill:#FFFFFF;" d="M919.4,570.3h63.2l-19.4-5.7l-44.5-62.5c0,0,34.5-0.7,34.5-40.9s-35.9-48.8-35.9-48.8H808.1l27.3,7.9 v150h59.9l-16.2-9.3v-52.4L919.4,570.3z M878.8,475.2v-24.4l-21.2-8.3h52.8c0,0,23.3,17.9,0,32.7H878.8z"></path> </svg> 