<?xml version="1.0" encoding="UTF-8"?> <!-- Generator: Adobe Illustrator 25.3.1, SVG Export Plug-In . SVG Version: 6.00 Build 0) --> <svg xmlns="http://www.w3.org/2000/svg" xmlns:xlink="http://www.w3.org/1999/xlink" version="1.1" id="Layer_1" x="0px" y="0px" viewBox="0 0 1000 1000" style="enable-background:new 0 0 1000 1000;" xml:space="preserve"> <path style="fill:#FFFFFF;" d="M529.5,605.5c0-50.4-0.1-100.8-0.1-151.1c0-0.8,0.2-1.6,0.4-2.7c10.4-1.1,20.6-2.3,31.4-3.5 c0,6.5,0,12.7,0,20.2c2.3-3,3.7-5,5.2-6.8c11.4-13.3,30.4-17.4,48.4-9.8c21.8,9.2,33,26.7,36.3,49.3c4.4,29.7-15.5,59-44.7,65.7 c-7.8,1.8-16.5,1.1-24.6,0.3c-7-0.7-13-4.6-18.2-11.4c0,16.1,0,31,0,46c-10.1,1.3-19.5,2.5-29,3.8 C532.8,605.5,531.1,605.5,529.5,605.5z M589.6,479.1c-15,0-27.9,13.5-28,29.3c0,15.6,13,29.4,27.8,29.5c14.9,0,27.9-13.6,27.9-29.3 C617.4,492.8,604.5,479.1,589.6,479.1z"></path> <path style="fill:#FFFFFF;" d="M870.1,605.5c-8.2-1-16.4-2-24.7-2.9c-1.6-0.2-3.2-0.3-5.6-0.5c0.9-2.1,1.6-3.7,2.4-5.2 c6.5-13.1,12.9-26.2,19.6-39.1c1.8-3.4,1.7-6.2,0.1-9.7c-12.8-28.4-25.4-56.8-38.1-85.3c-0.9-2-1.7-3.9-2.8-6.4 c11.1-2.7,22-5.4,33.4-8.2c9.1,22.1,18,44.1,27.5,67.1c9.3-22.9,18.2-44.8,27.2-66.9c11.2,2.7,22.1,5.3,33,7.9c0,0.7,0,1.3,0,2 c-0.7,1.1-1.5,2-2.1,3.2c-20.9,46.8-41.9,93.6-62.8,140.4c-0.5,1.2-0.7,2.5-1.1,3.7C874.1,605.5,872.1,605.5,870.1,605.5z"></path> <path style="fill:#FFFFFF;" d="M455.6,605.5c-8.4-1-16.8-2-25.2-2.9c-1.5-0.2-3-0.3-5.3-0.5c0.8-2,1.4-3.6,2.1-5.1 c6.5-13.1,12.8-26.2,19.5-39.1c1.8-3.4,1.9-6.1,0.3-9.7c-13-28.8-25.8-57.7-38.6-86.6c-0.7-1.5-1.3-3-2.2-5.2 c11.2-2.8,22.1-5.4,33.3-8.2c9.1,22.3,18.1,44.2,27.5,67.1c9.2-22.8,18.1-44.7,27.2-67c10.9,2.7,21.6,5.4,33,8.3 c-22.3,49.9-44.5,99.4-66.6,148.9C458.9,605.5,457.2,605.5,455.6,605.5z"></path> <path style="fill:#FFFFFF;" d="M143.3,411.2c44.6,0,80.4,34.8,80.5,78.3c0.1,43.7-36,79.1-80.6,79.1C98.9,568.6,63,533.3,63,489.7 C63,446.1,98.6,411.2,143.3,411.2z M143.6,534.2c22.9-0.1,42.8-20.8,42.8-44.4c0-23.9-20.1-44.6-43.2-44.6 c-22.8,0.1-42.8,20.7-42.8,44.4C100.3,513.5,120.5,534.4,143.6,534.2z"></path> <path style="fill:#FFFFFF;" d="M340.5,563.4c-11.1,1.1-22,2.3-33.6,3.4c0-2.2,0-4,0-5.7c0-20.2,0-40.5,0-60.7c0-2.8,0-5.7-0.6-8.4 c-1.8-8.5-7.6-13-16.4-13c-8.8,0-14.4,4.4-16.3,13c-0.6,2.7-0.8,5.6-0.8,8.4c-0.1,19.1,0,38.1,0,57.2c0,1.8,0,3.6,0,5.7 c-11.5,1.2-22.5,2.3-33.8,3.5c0-38.6,0-76.6,0-115.1c10.2-1.2,20.2-2.3,30.9-3.5c0,5.4,0,10.6,0,16.3c1.1-0.6,1.6-0.7,1.8-1 c11-15,25.9-18.1,43-13.4c16.8,4.6,24.7,17.3,25.4,33.2C341.4,509.8,340.5,536.3,340.5,563.4z"></path> <path style="fill:#FFFFFF;" d="M734.9,483.6c1.6-10.2,2.9-19.3,4.6-28.4c0.2-1.1,1.8-2.4,3-2.7c16.6-4.6,33.4-6.3,50.1-1.1 c15.8,4.8,25.1,16.6,25.4,33.1c0.4,25.7,0.1,51.4,0.1,77.1c0,0.5-0.2,1-0.4,1.9c-9.6,1.1-19.2,2.3-29.4,3.5c0-3.6,0-6.8,0-11.5 c-7.6,10.4-17.3,13.3-28.2,13.2c-9.9,0-19.1-2.2-26.9-8.8c-13.5-11.4-17-36.3-7.4-51.6c11.5-18.2,33.1-21.8,59.9-10.1 c2.7-12.6-3.1-20.2-15.9-21.1C757.9,476.3,746.7,478.6,734.9,483.6z M769.5,512.8c-8.1,0-14.1,3.5-16.4,9.7 c-2.1,5.9-0.3,12.3,4.5,16.1c5.9,4.6,16.3,4.8,22.5,0.6c5.2-3.6,7.4-10.1,5.4-16.2C783.4,516.5,777.5,512.8,769.5,512.8z"></path> <path style="fill:#FFFFFF;" d="M398.3,563.4c-11.2,1.2-22.2,2.3-33.5,3.4c0-51.8,0-103.1,0-154.9c11.1-1.2,22.1-2.3,33.5-3.5 C398.3,460.2,398.3,511.6,398.3,563.4z"></path> <path style="fill:#FFFFFF;" d="M703,563.3c-1,0.1-1.7,0.3-2.5,0.4c-10.1,1-20.2,2.1-30.7,3.1c0-51.6,0-102.9,0-154.8 c10.8-1.1,21.8-2.3,33.2-3.5C703,460.2,703,511.6,703,563.3z"></path> </svg> 