<?xml version="1.0" encoding="UTF-8"?> <!-- Generator: Adobe Illustrator 25.3.1, SVG Export Plug-In . SVG Version: 6.00 Build 0) --> <svg xmlns="http://www.w3.org/2000/svg" xmlns:xlink="http://www.w3.org/1999/xlink" version="1.1" id="Layer_1" x="0px" y="0px" viewBox="0 0 1000 1000" style="enable-background:new 0 0 1000 1000;" xml:space="preserve"> <path style="fill:#FFFFFF;" d="M244.8,431c-10.9,11.3-20.9,21.7-31.1,32.3c-5.9-4.9-11-9.6-16.5-13.8 c-31.1-23.5-74.8-24.1-105.3-1.8c-41.2,30.2-42.9,92.9-2.9,125c28.1,22.5,59.2,26.2,92.1,11.9c13.9-6,22.3-17.8,29.2-32 c-23.1,0-45.3,0-68,0c0-14.5,0-28.3,0-42.4c39.6,0,78.9,0,119,0c0,6.2-0.1,12.2,0,18.2c0.2,11.7-1.5,23-6.4,33.6 c-3.5,7.5-7.9,14.6-11.9,22c-8,15-20.1,26.3-34.2,34.8c-10.2,6.2-21.8,10.9-33.4,13.8c-19.9,4.9-40.4,4.8-60.6,0.7 c-9.9-2-19.8-4.4-29.2-8.1c-7.6-3-14.7-7.7-21.5-12.4c-4.8-3.3-8.7-7.8-13-11.7c-2.8-2.5-6.1-4.7-8.5-7.6c-3.1-3.7-5.7-7.9-8.4-11.9 c-1.5-2.3-2.6-5-4.3-7.1c-4.8-6-6.2-13.4-9-20.3c-5.7-14.1-7.2-28.9-7-43.7c0.4-22.7,6-44.5,18.5-63.9 c22.5-34.9,54.5-54.9,96.3-58.3c33.7-2.8,65.4,3.2,93.2,23.4C230,417.3,237.2,424.4,244.8,431z"></path> <path style="fill:#FFFFFF;" d="M634.5,631.6c-10.3,0-19.6,0.2-28.9-0.2c-1.3,0-3.3-2.4-3.6-3.9c-5.6-31.6-10.9-63.2-16.3-94.9 c-0.4-2.5-0.9-4.9-1.6-8.9c-1.3,3-2.1,4.8-2.7,6.6c-10.8,32.1-21.7,64.1-32.3,96.2c-1.3,3.9-2.9,5.4-7.1,5.1 c-6.4-0.4-12.9-0.3-19.4,0c-3.4,0.1-4.9-0.9-6-4.3c-10.6-32.3-21.5-64.5-32.3-96.8c-0.5-1.6-1.3-3.2-3.2-4.8 c-6.1,35.1-12.2,70.2-18.4,105.5c-10.8,0-21.3,0-32.1,0c10-57.4,19.9-114.6,29.9-172.2c10.3,0,20.2-0.1,30,0.2 c1.2,0,2.9,2.3,3.4,3.8c10.5,31.2,20.9,62.5,31.3,93.7c2.2,6.7,4.6,13.4,8.1,20.2c1.2-3.3,2.6-6.6,3.7-10 c11.6-34.3,23.2-68.5,34.5-102.8c1.4-4.2,3.4-5.4,7.6-5.2c7.5,0.4,15.1-0.1,22.6,0.3c1.4,0.1,3.7,2,4,3.4 c8.1,46.9,15.9,93.9,23.8,140.8C631.2,612.6,632.8,621.7,634.5,631.6z"></path> <path style="fill:#FFFFFF;" d="M251,631.6c5.8-15,11.2-29.1,16.7-43.2c16-41.4,32-82.7,47.8-124.1c1.5-3.9,3.2-5.5,7.6-5.3 c9.5,0.4,19,0.1,28.6,0.1c22.1,57.4,44.1,114.5,66.4,172.4c-11.4,0-22,0.1-32.7-0.2c-1.1,0-2.5-2.2-3.1-3.6 c-3.7-9.4-7.4-18.9-10.8-28.4c-1.1-3.1-2.6-4.3-6.1-4.3c-20.3,0.2-40.5,0.2-60.8,0c-3.7,0-5.3,1.1-6.6,4.5 c-3.6,9.7-7.5,19.3-11.5,28.8c-0.6,1.4-2.6,3.1-4,3.1C272.3,631.7,262.1,631.6,251,631.6z M335.5,506.3c-0.5,0-1,0.1-1.5,0.1 c-7.2,18.7-14.5,37.4-21.9,56.4c15.3,0,30.1,0,45.2,0C350,543.6,342.7,524.9,335.5,506.3z"></path> <path style="fill:#FFFFFF;" d="M910.9,571c-8.2,12.6-16.1,24.5-23.9,36.4c-4.6,7-9.2,14.1-14,21c-1,1.4-2.9,3-4.4,3 c-11.2,0.3-22.5,0.1-34.8,0.1c6.9-10.6,13.3-20.3,19.7-30.1c12.1-18.4,24.1-36.8,36.3-55c1.9-2.8,1.8-4.8,0-7.6 c-16.9-25.5-33.6-51-50.3-76.6c-0.5-0.7-0.9-1.5-2-3.2c7.9,0,15.2,0.8,22.3-0.2c10.9-1.4,17.6,2.4,22.9,12.1 c7,12.8,15.8,24.6,23.8,36.9c1.2,1.9,2.6,3.7,4.4,6.2c6.7-10.2,13.1-19.8,19.4-29.4c5-7.6,9.9-15.3,15.1-22.8c0.9-1.4,3-2.7,4.5-2.8 c11.1-0.2,22.2-0.1,34.3-0.1c-4,6.1-7.5,11.6-11,17c-13.7,20.9-27.4,41.8-41.3,62.6c-2,3-1.9,5.1,0.1,8.1 c17.7,26.6,35.2,53.4,52.8,80.1c0.8,1.2,1.5,2.4,2.8,4.7c-4.4,0-8.2,0-12,0c-7,0-14,0.2-21-0.1c-2.1-0.1-4.8-1.5-5.9-3.2 C936.2,609.6,923.9,590.8,910.9,571z"></path> <path style="fill:#FFFFFF;" d="M646.2,631.2c20.5-46.7,40.8-92.9,61.5-139.9c-19,0-37.3,0-56,0c0-10.8,0-21.1,0-31.8 c34.4,0,68.9,0,104.1,0c-20.4,46.4-40.7,92.8-61.4,140c19.4,0,38.1,0,57.1,0c0,10.9,0,21.1,0,31.7 C716.5,631.2,681.7,631.2,646.2,631.2z"></path> <path style="fill:#FFFFFF;" d="M812.1,631.4c-10.9,0-21.3,0-32.1,0c0-57.3,0-114.5,0-172c10.6,0,21.2,0,32.1,0 C812.1,516.5,812.1,573.8,812.1,631.4z"></path> <path style="fill:#FFFFFF;" d="M824.2,456c-19.2-11.4-37.5-11.6-55.9-0.9c-1.2-5.3,3.9-15.5,8.1-18.6c11.2-8.1,23.2-10,35-2.6 C818.7,438.6,823.9,445.8,824.2,456z"></path> </svg> 