<?xml version="1.0" encoding="UTF-8"?> <!-- Generator: Adobe Illustrator 25.3.1, SVG Export Plug-In . SVG Version: 6.00 Build 0) --> <svg xmlns="http://www.w3.org/2000/svg" xmlns:xlink="http://www.w3.org/1999/xlink" version="1.1" id="Layer_1" x="0px" y="0px" viewBox="0 0 1000 1000" style="enable-background:new 0 0 1000 1000;" xml:space="preserve"> <path style="fill:#FFFFFF;" d="M674.5,575.3c-6.7-2.1-13.5-3.8-19.9-6.3c-22.5-8.6-40.9-33.4-40-58.9c0.3-7-0.4-14.2,1.5-20.8 c2.7-9.3,4.7-19.1,11.5-26.9c6.8-7.8,14.2-14.8,23.5-19.6c9.7-4.8,19.9-7.2,30.7-7.5c16.3-0.5,31.7,2.9,46,10.8 c3.9,2.2,5.3,4.2,2.7,8.5c-5.7,9.5-10.9,19.2-16.2,28.9c-1.8,3.4-3.9,2.5-6.5,0.9c-9.3-5.6-19.2-8-30-5.4 c-8.5,2.1-18.8,11.3-19.5,21.9c-0.2,2.1-0.3,4.3-0.6,6.4c-0.4,3.4,0.2,6,2.1,9.3c11.6,20.6,36.9,18.5,50.3,8.3 c1-0.8,2.1-1.6,3.6-2.7c3.9,6.8,7.7,13.3,11.5,19.9c2.5,4.5,4.7,9.2,7.6,13.4c2.5,3.6,0.8,5.7-2,7c-7.6,3.4-15.3,6.7-23.2,9.5 c-4.3,1.5-8.9,2.2-13.3,3.2C687.8,575.3,681.2,575.3,674.5,575.3z"></path> <path style="fill:#FFFFFF;" d="M206.3,438.5c11,0,22-0.1,32.9,0.1c1.4,0,3,1.8,3.9,3.1c10.2,14.7,20.2,29.5,30.3,44.2 c0.6,0.8,1.2,1.6,2.1,2.9c5.1-7.4,10-14.6,14.9-21.8c5.8-8.6,11.6-17.4,17.5-26c0.8-1.2,2.4-2.7,3.7-2.7c11.1-0.2,22.2-0.1,33.5-0.1 c0,44.3,0,88.2,0,132.7c-14.3,0-28.1,0-42.7,0c0-15,0-29.6,0-44.2c-0.4-0.1-0.8-0.1-1.2-0.2c-8.4,12.2-16.8,24.3-25.8,37.3 c-8.8-12.8-17.2-25.1-25.6-37.3c-0.4,0.1-0.8,0.1-1.1,0.2c0,14.5,0,29.1,0,44.2c-14.5,0-28.2,0-42.4,0 C206.3,527.1,206.3,483.2,206.3,438.5z"></path> <path style="fill:#FFFFFF;" d="M537.3,574.4c-18.7,0.4-34-6.1-47.9-17.6c-9.9-8.1-17.2-17.8-20.1-29.7c-7-29.1-0.6-54.6,22.4-75.4 c29.9-27.1,87.4-22.5,109.1,25.9c6.3,26.6,10.3,53.1-12.2,74.7C576.4,564,561.2,575,537.3,574.4z M536.3,532.6 c13.5,0,27.8-11.8,27.9-22.3c0.2-22.5-13.5-31.9-27.8-31.9c-17.7,0-27.5,12.3-26.5,34.7C510.3,522,523.4,534,536.3,532.6z"></path> <path style="fill:#FFFFFF;" d="M764.6,487.7c5.8-13.5,6.1-16.5,9.9-24.8c3.1-6.8,5.5-14,8-21c0.9-2.6,2.3-3.5,5.1-3.5 c8.1,0.1,16.3,0,24.4-0.4c3.4-0.2,5.1,0.9,6.2,4.1c8.4,23.5,16.7,46.9,25.4,70.3c6.7,18,14,35.7,21,53.5c0.6,1.5,1,3.1,1.8,5.4 c-14,0-27.1,0.1-40.2-0.1c-1.1,0-2.6-1.6-3.2-2.8c-1.1-2-1.5-4.4-2.6-6.4c-0.6-1.1-2-2.4-3.1-2.5c-12.4-0.2-24.9-0.1-37.2-0.1 c-4.3,12-4.3,12-16.9,12c-9.6,0-19.1,0-29.6,0c3.6-9.4,7-18,10.2-26.6c3.2-8.6,6.1-17.3,9.2-25.9c2.8-7.8,5.9-15.6,8.6-23.5 M806.7,528.9c-2.3-7.3-4.4-13.5-6.8-21.1c-2.4,7.7-4.4,14-6.7,21.1C797.7,528.9,801.8,528.9,806.7,528.9z"></path> <path style="fill:#FFFFFF;" d="M915.9,571.1c-15.2,0-29.2,0-44.4,0c0-32.6,0-64.7,0-97.3c-8.6,0-16,0-23.9,0c0-11.9,0-23.3,0-35 c30.8,0,61.5,0,92.6,0c0,11.1,0.1,22-0.2,32.8c0,0.9-2.4,2.4-3.7,2.5c-6.4,0.3-12.8,0.1-20.4,0.1 C915.9,506.7,915.9,538.9,915.9,571.1z"></path> <path style="fill:#FFFFFF;" d="M103.1,536.5c12.4,0,24,0,36.9,0c0,4.7,0,9.3,0,13.8c-0.1,5.8-0.2,11.6-0.2,17.4c0,2.2,0,3.9-3,3.9 c-25.6-0.1-51.2,0-77.4,0c0-44.3,0-88.4,0-132.7c14.5,0,28.9,0,43.7,0C103.1,471.3,103.1,503.6,103.1,536.5z"></path> <path style="fill:#FFFFFF;" d="M191.8,571.4c-15,0-29.5,0-44.8,0c-1.4-44-1-88-0.4-132.5c14.9,0,29.9,0,45.1,0 C191.8,482.9,191.8,526.8,191.8,571.4z"></path> <path style="fill:#FFFFFF;" d="M448.2,499.7c-0.5-0.4-0.8-1-1.1-1.4c13-10.8,9.9-34.3,2.8-43.8c-8.8-11.8-21.2-15.4-34.9-15.8 c-15.3-0.4-30.6-0.1-45.9-0.1c-3.3,0-6.6,0-10.1,0c0,44.4,0,88.1,0,132.4c2.1,0.3,3.7,0.7,5.4,0.7c16.3-0.1,32.6-0.2,48.9-0.2 c9.2,0,18.2-1.1,26.6-5.4c9.7-5,18.6-11.4,20.6-22.6C463.4,527.2,462.1,511.5,448.2,499.7z M401,477.6c0.1-3.6,0-7.2,0-11.1 c7.4-0.9,11.7,0.8,13.5,5.4c2.1,5.2-1.8,11.3-7.5,11.5c-2.1,0.1-4.3,0-6.4,0C400.8,481.5,401,479.5,401,477.6z M408.8,539.5 c-2.7,0.1-5.5,0-8.2,0.1c0.2-2.5,0.4-4.9,0.4-7.4c0.1-4.6,0-9.2,0-14.1c9.4-1.2,14.8,1,17.2,6.8C421,531.6,416,539.3,408.8,539.5z"></path> </svg> 