<?xml version="1.0" encoding="UTF-8"?> <!-- Generator: Adobe Illustrator 25.3.1, SVG Export Plug-In . SVG Version: 6.00 Build 0) --> <svg xmlns="http://www.w3.org/2000/svg" xmlns:xlink="http://www.w3.org/1999/xlink" version="1.1" id="Layer_1" x="0px" y="0px" viewBox="0 0 1000 1000" style="enable-background:new 0 0 1000 1000;" xml:space="preserve"> <path style="fill:#FFFFFF;" d="M41.7,616.5c4.8-6,9.9-11.8,14.4-18.1c6.3-8.8,12.1-17.9,18.3-26.8c2.7-3.9,6-5.9,11.6-5.9 c69,0.6,138.1,1,207.1,1c112.6,0,225.2-0.3,337.9-0.5c38.4-0.1,76.7-0.3,115.1,0.1c7.7,0.1,11.4-3.4,15.1-9.2 c7-11,14.4-21.8,22-32.5c27.3-38.3,54.8-76.4,82.1-114.6c10.7-14.9,21.1-30,31.8-45.3c-6.6-4.7-12.8-9.1-20.3-14.4 c11.8-6.5,22.7-12.5,33.8-18.4c18.7-10,37.5-19.8,56.1-29.9c2.1-1.1,3.4-3.7,5.1-5.7c2.1,0,4.2,0,6.2,0 c-4.3,37.7-8.6,75.5-13.1,115.8c-8.9-5.6-16.3-10.3-24-15.2c-7.7,10.5-15.1,20.3-22.2,30.4c-28.9,40.9-57.8,81.9-86.5,122.9 c-17.5,25.1-38.6,46.1-67.4,57.9c-6.3,2.6-7.8,5.8-7.7,12c0.3,22,0.1,44,0.1,66c0,2.7-0.3,5.5-0.4,8c-11.5,2.4-19.9,0.9-26.4-9.6 c-7.7-12.2-17.2-23.3-26-34.8c-2.2-2.9-4.6-5.8-6.9-8.7c-0.7,0.2-1.4,0.5-2.1,0.7c0,17.6,0,35.2,0,52.7c-7.7,0-14.1,0-21.3,0 c0-25,0-49.4,0-73.6c-5.8,0-10.8,0-16.6,0c0,25,0,49.2,0,73.4c-7.4,0-13.9,0-21.3,0c0-24.9,0-49.2,0-73.6c-18.6,0-36.3,0-54.3,0 c0,18.5,0,36.5,0,54.8c15.1,0,29.5,0,44.5,0c0,6.5,0,12.5,0,19c-22.4,0-44.3,0-67.2,0c0-25,0-49.4,0-73.8c-5.5,0-10,0-15.3,0 c1.7,10.5-1,18.9-9.7,25.3c1.6,1.1,2.5,1.9,3.6,2.5c10,5.5,12.8,14.4,11.5,25c-1.4,10.6-8.2,18-17.8,19.1 c-20.1,2.3-40.5,2.5-61.6,3.5c0-26.6,0-51.1,0-75.5c-5.3,0-10,0-15.4,0c0,24.9,0,49.3,0,73.8c-7.4,0-14,0-21.5,0 c0-18.5,0-36.4,0-54.3c-0.5-0.1-1-0.2-1.5-0.4c-7.7,11.5-15.5,23.1-23.7,35.3c-8.4-12.6-15.9-23.8-23.4-35.1 c-0.5,0.1-1.1,0.3-1.6,0.4c0,17.9,0,35.8,0,54c-7.5,0-14.1,0-21.3,0c0-12.7,0-24.8,0-36.9c0-12.1,0-24.2,0-36.2 c-13.3-2.7-13.7-2.3-13.9,9.6c-0.1,11.4,0.1,22.8-1,34.1c-1.5,14.3-9.5,24.9-23.5,29c-25.6,7.5-58,0.2-56.9-40c0.3-11,0-22.1,0-33.4 c-4.4,0-7.8,0-11.8,0c3.6,18.1,1.3,33.3-17.5,41.5c7.3,10.8,14.4,21.2,21.8,32.2c-14.8,2-28,3.4-34.4-13.2c-1-2.6-3.5-4.6-4.6-7.1 c-4.1-8.9-11.1-9.6-20.2-7.3c0,9.1,0,18.3,0,27.9c-7.5,0-14.1,0-21.1,0c-0.2-2.7-0.4-5-0.4-7.2c0-20.2-0.1-40.4,0.1-60.6 c0.1-4.9-1.4-6.4-6.5-6.9c-8.9-1-11.9,6-16.7,10.4c-21-12.1-34-12.3-43.3-0.8c-9.1,11.2-8.9,27.9,0.5,38.6 c10.2,11.6,21.7,11.2,43.5-1.8c4.3,4.5,8.7,9.1,12.9,13.5c-13,16.7-39.7,21.9-59.6,12.4c-10-4.8-17.5-12.3-21.9-22.2 c-7.5-16.6-5.6-33.1,2.8-48.8c-16.5,0-32.2,0-47.9,0C41.7,619.6,41.7,618.1,41.7,616.5z M288.3,620.6c0,13.9-0.7,27.3,0.2,40.6 c0.7,9.6,7.9,15,17.4,15.4c8.8,0.4,17.6-4.3,18.3-12.3c1.2-14.4,0.3-29,0.3-43.7C312.4,620.6,300.3,620.6,288.3,620.6z M199.9,646.2 c8.1,0,15.8,0.5,23.4-0.2c6.3-0.6,10.4-4.8,10.7-11.4c0.3-6.9-3.6-11.7-10.3-12.3c-7.8-0.8-15.8-0.2-23.8-0.2 C199.9,630.4,199.9,638,199.9,646.2z M491.1,675.3c10,0,19.2,0.2,28.5-0.1c5.1-0.2,8.8-3.8,7.8-8.6c-0.6-3.2-4.5-7.9-7.3-8.2 c-9.6-1-19.3-0.4-29-0.4C491.1,664,491.1,669.4,491.1,675.3z M735.3,617.6c-9.2,0.9-17.9,1.7-27.7,2.6c9.6,12.5,18.2,23.8,27.7,36.2 C735.3,642.5,735.3,630.3,735.3,617.6z M491.3,621.4c0,6,0,11.6,0,17.3c7.6,0,14.8,0.4,21.9-0.1c5.2-0.4,9.6-2.9,9.3-9.1 c-0.3-5.9-4.7-7.7-9.6-7.9C506,621.2,499.1,621.4,491.3,621.4z M395.9,620.6c4.5,7.2,8,13.1,12.1,19.6c4.1-6.8,7.8-12.7,12-19.6 C411.4,620.6,404.6,620.6,395.9,620.6z"></path> <path style="fill:#FFFFFF;" d="M754.6,333.8c-30,29.7-58.6,58.1-87.6,86.8c31.2,35.8,61,69.9,90.8,104.1c-0.5,0.9-1,1.7-1.5,2.6 c-10.7,0-21.6-0.9-32.2,0.2c-14.5,1.5-24.3-3.1-33.4-15c-15.6-20.5-33.6-39.1-50-58.9c-3-3.6-4.7-9.1-5-13.8 c-0.7-11.1,0.2-22.3-0.4-33.4c-0.3-6.3,2.1-10.8,6.1-15.1c16.5-17.5,32.8-35.1,49.6-52.3c2.7-2.8,7.4-4.8,11.2-5 C719.1,333.5,735.9,333.8,754.6,333.8z"></path> <path style="fill:#FFFFFF;" d="M487.4,334.2c0,10.9,0.2,21.2-0.2,31.5c-0.1,1.7-1.9,4.5-3.4,4.9c-28.4,7.8-42.3,42.3-38.1,67.8 c1.6,10,5.1,20,9.7,29c6.3,12.5,17.3,20.3,31.8,23.2c0,11.7,0,23.2,0,34.7c-33.9,3.9-83.8-31.8-88.4-87.1 C393.8,377.2,443.5,333.7,487.4,334.2z"></path> <path style="fill:#FFFFFF;" d="M312.1,493.1c23-4.7,28.9-11.1,29.2-34.3c0.5-36.2,0.3-72.5,0.4-108.7c0-4.9,0-9.7,0-15 c15.4,0,29.8,0,44.8,0c0,4.7,0,9.3,0,13.9c0,38.8,0.3,77.7-0.1,116.5c-0.2,17.4-3.6,33.9-17.2,46.6c-16,15-35.8,18.3-57.2,19.2 C312.1,518.2,312.1,505.9,312.1,493.1z"></path> <path style="fill:#FFFFFF;" d="M233.2,335.6c13.6,0,27.5,0,41.9,0c0.1,2.3,0.3,4.3,0.3,6.3c0.5,40.6,0.8,81.2,1.4,121.8 c0.3,17.1,7.4,25.2,24,29c1.9,0.4,4.9,2.7,4.9,4.3c0.4,11,0.2,22.1,0.2,33.1c-33.1,2.3-71.8-14.5-72.6-54.4 C232.5,429.2,233.2,382.7,233.2,335.6z"></path> <path style="fill:#FFFFFF;" d="M129.3,526.6c-14.7,0-28.9,0-44.2,0c0-63.9,0-127.6,0-192c14.7,0,29,0,44.2,0 C129.3,398.5,129.3,462,129.3,526.6z"></path> <path style="fill:#FFFFFF;" d="M630.5,335.4c0,63.7,0,127,0,190.7c-14.8,0-29.2,0-44.2,0c0-63.5,0-126.8,0-190.7 C601.2,335.4,615.3,335.4,630.5,335.4z"></path> <path style="fill:#FFFFFF;" d="M827.7,456.5C805.4,415,784.1,375.2,762,334c17,0,32.2-0.1,47.3,0.2c1.7,0,4,2.2,4.8,3.9 c12.9,25.6,25.6,51.2,38.2,76.9c0.8,1.6,1.3,4.4,0.5,5.6C845,432.1,836.9,443.4,827.7,456.5z"></path> <path style="fill:#FFFFFF;" d="M575.4,463.9c0.3,35-38.9,64.7-81.7,62c0-10.6-0.2-21.4,0.2-32.1c0-1.2,2.9-3.2,4.7-3.4 c15.8-1.8,27.1-9.1,33-24.4c0.7-1.8,4.1-3.8,6.2-3.7C550.1,462.4,562.5,463.2,575.4,463.9z"></path> <path style="fill:#FFFFFF;" d="M575.7,396.6c-13.1,0.7-25.7,1.6-38.3,2c-1.9,0.1-5-2-5.8-3.8c-6.2-15.8-18.4-23-34.5-24.7 c-1-0.1-2-0.5-3.1-0.9c0-11.4,0-22.7,0-33.9C531.9,329,572.5,359,575.7,396.6z"></path> <path style="fill:#FFFFFF;" d="M219.8,490c0,12,0,23.8,0,36.2c-28.2,0-56,0-84.4,0c0-11.9,0-23.7,0-36.2 C163.1,490,190.9,490,219.8,490z"></path> <path style="fill:#FFFFFF;" d="M854,613.9c-4.3,5.3-8.4,10.2-12.9,15.7c-2.9-1.8-5.7-3.5-8.6-5.1c-12.9-7.1-26.2-5-35.1,5.6 c-8.6,10.2-8.6,26.6,0,37.3c7.7,9.7,23.2,13,34.5,6.2c3.2-2,4-7.9,6.6-13.6c-9,0-15.1,0-21.8,0c0-6.4,0-12.2,0-18.5 c13.1,0,26.2,0,40.3,0c0,12.8,0.1,25.4-0.1,38c0,1.4-0.8,3.1-1.9,4c-20.3,18-65.6,20.9-81.8-12.6c-10.4-21.5-4.2-47.4,14.5-61.3 C806.4,595.8,835.7,597.4,854,613.9z"></path> </svg> 