<?xml version="1.0" encoding="UTF-8"?> <!-- Generator: Adobe Illustrator 22.0.0, SVG Export Plug-In . SVG Version: 6.00 Build 0) --> <svg xmlns="http://www.w3.org/2000/svg" xmlns:xlink="http://www.w3.org/1999/xlink" version="1.1" id="Layer_1" x="0px" y="0px" viewBox="0 0 1000 1000" style="enable-background:new 0 0 1000 1000;" xml:space="preserve"> <g> <g> <g> <path style="fill:#FFFFFF;" d="M318.2,557.1c0-37.5-34.1-68-75.9-68h0h0l-63.2,0v20.1h9.2v152.1l54.3,0v-36.2 c8,0,15.9-1.2,23.4-3.4l23.5,39.6h23.8l-28.6-47.9C305.5,600.9,318.2,579.7,318.2,557.1z M298,557.1c0,26.2-24.8,47.6-55.4,47.8 l0-95.5C273.2,509.5,298,530.9,298,557.1z"></path> </g> <g> <polygon style="fill:#FFFFFF;" points="711.1,489.5 711.1,509.6 742.1,509.6 742.1,661.7 795.8,661.7 795.8,509.6 828.5,509.6 828.5,489.5 "></polygon> </g> <g> <polygon style="fill:#FFFFFF;" points="582.7,509.6 592.4,509.6 592.4,661.7 695.6,661.7 695.6,641.2 645.8,641.2 645.8,577.2 684.6,577.2 684.6,556.9 645.8,556.9 645.8,509.6 695.6,509.6 695.6,489.5 582.7,489.5 "></polygon> </g> <g> <polygon style="fill:#FFFFFF;" points="523.6,489.5 460.5,489.5 460.5,509.6 470.1,509.6 470.1,661.7 572.9,661.7 572.9,641.2 523.6,641.2 "></polygon> </g> <g> <path style="fill:#FFFFFF;" d="M392.9,641.4h-2v0.1h-7c-3.9,0-5.7-0.5-8.2-1.2c-0.4-0.1-0.8-0.2-1.2-0.3c-4.1-1.4-7.9-3.7-11-6.8 c-5.3-5.2-8.2-12.4-8.1-19.8l0-123.9h-21.5v123.8c0,13.2,5.1,25.6,14.4,35c5.1,5.1,11.4,9.1,18.3,11.5c0,0,12.3,2.9,16,2.9 c0.4,0,10.1,0.1,10.1,0.1c0.9,0,10.7-0.4,14.1-1.2l4.7-1.3c7.4-2.4,14.1-6.5,19.4-12.1c9.3-9.2,14.4-22,14.2-35l0-123.7h-52.1 V641.4z"></path> </g> </g> <g> <g> <path style="fill:#FFFFFF;" d="M494.2,352.1c0-30-27.2-54.3-60.7-54.3h0h0l-50.5,0v16h7.4v121.6l43.4,0v-29 c6.4,0,12.7-0.9,18.7-2.7l18.8,31.7h18.9l-22.8-38.3C484.1,387.1,494.2,370.2,494.2,352.1z M478.1,352.1 c0,21-19.9,38.1-44.3,38.2l0-76.4C458.2,314,478.1,331.1,478.1,352.1z M431,309.9L431,309.9L431,309.9L431,309.9z"></path> </g> <g> <path style="fill:#FFFFFF;" d="M592.4,391.5c-5.9-6.7-12.5-12.6-19.8-17.6l-0.1-0.1l-0.1-0.1l-1-0.6l46-75.5h-18.8l-41.2,67.6 c-0.4-0.2-0.7-0.3-1.1-0.5l0-67.1l-49.5,0v18.1h7.6v119.6h41.9l0-52.5l7.5,4.4c6.1,4.2,11.7,9.2,16.6,14.8 c7.9,9,13.8,19.3,17.7,30.6l0.9,2.7h16.8l-1.6-5.1C609.6,415.8,602.3,402.8,592.4,391.5z"></path> </g> <g> <polygon style="fill:#FFFFFF;" points="738.4,313.8 746.1,313.8 746.1,435.4 828.5,435.4 828.5,419 788.8,419 788.8,367.8 819.8,367.8 819.8,351.6 788.8,351.6 788.8,313.8 828.5,313.8 828.5,297.8 738.4,297.8 "></polygon> </g> <g> <path style="fill:#FFFFFF;" d="M686.3,313.9c0.9,0,1.8,0,2.7,0.1c0.2,0,0.4,0,0.5,0l0.5,0l0.3,0c0.4,0,0.9,0.1,1.3,0.1 c0.3,0,0.5,0.1,0.8,0.1l0.4,0.1l0.4,0c0.3,0,0.6,0.1,0.9,0.1c0.4,0,0.7,0.1,1.1,0.2l0.4,0.1l0.4,0.1c0.2,0,0.5,0.1,0.7,0.1 c0.4,0.1,0.8,0.2,1.3,0.3l0.2,0.1l0.4,0.1c0.2,0,0.4,0.1,0.6,0.1c0.5,0.1,1.1,0.3,1.6,0.4l0.3,0.1c0.2,0,0.3,0.1,0.5,0.1 c0.6,0.2,1.1,0.3,1.7,0.5l0.3,0.1l0.4,0.1c0.6,0.2,1.1,0.4,1.7,0.6l0.2,0.1l0.3,0.1c0.6,0.2,1.2,0.5,1.8,0.7l0.2,0.1l0.3,0.1 c0.6,0.3,1.2,0.6,1.8,0.9l0.2,0.1l0.2,0.1c0.6,0.3,1.2,0.6,1.8,1l0.3,0.2c0.6,0.4,1.3,0.7,1.9,1.1l0.1,0.1l0.1,0.1 c0.6,0.4,1.3,0.8,1.9,1.3l0.1,0.1c0.7,0.5,1.3,1,1.9,1.4l0.1,0.1c0.6,0.5,1.3,1,1.9,1.6c0.7,0.6,1.3,1.1,1.9,1.7l3.1,2.9 l10.4-12.5l-2.7-2.5c-5.9-5.5-12.4-9.7-19.4-12.7c-12.1-5.2-22.5-5.3-27.4-5.4c-10.6-0.1-18.7,2.1-22.3,3.2 c-9.7,3-17.6,7.6-22,10.9c-0.8,0.6-6.9,5.3-6.9,5.3c-3.8,3.6-7.2,7.5-10,11.6c-2.2,3.1-4.1,6.4-5.7,9.8 c-1.6,3.5-2.9,7.1-3.9,10.8c-1.4,5.5-2.2,11.3-2.2,17.3c0,6.2,0.8,12.3,2.3,17.9c0.5,1.9,1.1,3.8,1.8,5.6c1,2.8,2.3,5.5,3.7,8.1 c1.3,2.4,2.8,4.7,4.4,6.9c2.7,3.8,5.9,7.4,9.5,10.8c3.9,3.3,9.1,7.1,15.6,10.5c10.7,5.5,20.7,7.6,27.6,8.5v6.6l-10.2,5.6l1.4,3.3 l0.5,1.2c2.8,6.7,9,10.6,16.7,10.6c8,0,16.5-5.5,16.5-15.8c0-4.8-1.9-9-5.2-12c13.2-2.1,25-7.9,35.1-17.2l2.7-2.5l-10.4-12.5 l-3.1,2.9c-0.6,0.6-1.3,1.1-1.9,1.7c-0.6,0.5-1.3,1.1-1.9,1.6l-0.1,0.1c-0.6,0.5-1.3,1-1.9,1.4l-0.1,0.1 c-0.6,0.5-1.3,0.9-1.9,1.3l-0.1,0.1l-0.1,0.1c-0.6,0.4-1.2,0.8-1.9,1.1l-0.2,0.1l-0.1,0.1c-0.6,0.3-1.2,0.7-1.8,1l-0.2,0.1 l-0.2,0.1c-0.6,0.3-1.2,0.6-1.8,0.9l-0.3,0.1l-0.2,0.1c-0.6,0.3-1.2,0.5-1.8,0.7l-0.3,0.1l-0.3,0.1c-0.6,0.2-1.1,0.4-1.7,0.6 l-0.4,0.1l-0.3,0.1c-0.5,0.2-1.1,0.3-1.6,0.5c-0.2,0-0.3,0.1-0.5,0.1l-0.3,0.1c-0.5,0.1-1.1,0.3-1.6,0.4c-0.2,0-0.4,0.1-0.6,0.1 l-0.3,0.1l-0.2,0c-0.4,0.1-0.9,0.2-1.3,0.3c-0.2,0-0.5,0.1-0.7,0.1l-0.4,0.1l-0.3,0.1c-0.3,0.1-0.7,0.1-1.1,0.2 c-0.3,0-0.6,0.1-0.9,0.1l-0.4,0l-0.4,0.1c-0.3,0-0.5,0.1-0.8,0.1c-0.4,0-0.9,0.1-1.3,0.1l-0.3,0l-0.5,0c-0.2,0-0.4,0-0.5,0 c-0.9,0-1.8,0.1-2.7,0.1c-11,0-21.1-3.2-30-9.4v-86.4C665.3,317.1,675.3,313.9,686.3,313.9z M687.7,447.2c-0.1,0.1-0.5,0.2-1,0.2 c-1.7,0-2.5-0.5-3.2-2l-0.3-0.6h2c2.5,0,2.5,0.6,2.5,1.7C687.8,447,687.7,447.2,687.7,447.2z"></path> </g> <g> <polygon style="fill:#FFFFFF;" points="174.1,313.8 198.9,313.8 198.9,435.4 241.8,435.4 241.8,313.8 268,313.8 268,297.8 174.1,297.8 "></polygon> </g> <g> <path style="fill:#FFFFFF;" d="M361.3,287.4c0-6-4.9-10.8-10.8-10.8c-6,0-10.8,4.9-10.8,10.8c0,4.8,3.2,9,7.6,10.3h-19.9v120.6 h-1.6v0.1h-5.6c-3.1,0-4.5-0.4-6.6-0.9c-0.3-0.1-0.6-0.2-1-0.3c-3.3-1.1-6.3-2.9-8.7-5.4c-4.2-4.1-6.5-9.9-6.4-15.7l0-98 c0.4,0,0.8,0.1,1.2,0.1c6,0,10.8-4.9,10.8-10.8c0-6-4.9-10.8-10.8-10.8c-6,0-10.8,4.9-10.8,10.8c0,4.8,3.2,9,7.6,10.3h-15v98.3 c0,10.5,4.1,20.3,11.5,27.8c4.1,4.1,9.1,7.2,14.6,9.2c4.3,1.1,9.7,2,16,2.3c7.9,0.3,14.6-0.7,19.6-1.8c3.7-1.3,9.8-4,15.4-9.6 c7.4-7.3,11.5-17.5,11.3-27.8l0-98.3h-15C358.1,296.4,361.3,292.3,361.3,287.4z"></path> </g> </g> </g> <g> <path style="fill:#FFFFFF;" d="M860.1,98.4l-153.2,4.3l3.5-4c1.2-0.1,2.2-0.5,3.3-0.8c1.1-0.4,2.2-0.7,3.1-1.4 c0.9-0.7,1.7-1.6,2.3-2.6c0.6-1,1.1-2,1.4-3.1c-0.3,1.1-0.8,2.1-1.4,3.1c-0.6,1-1.4,1.8-2.3,2.5c-0.9,0.7-2,0.9-3.1,1.3 c-1.1,0.3-2.2,0.7-3.3,0.8l-0.1,0l0,0l-4,4.3l-37.9,1.1c0.6-1.2,0.7-2.9,0.7-4.3c0-1.9-0.2-3.5-0.4-4.9c-0.2-1.8-0.4-3.4,0.1-3.9 c0.6-0.5,2.4-0.6,5.4,0c1.1,0.2,1.8-0.2,2.3-0.5c1.6-1.2,1.7-4.1,1.8-6.8c0.1-1.2,0.1-2.6,0.4-3.2c0.4-1,4.8-5.7,1.7-8.3 c-2.2-1.7,0.2,0.5-1.6,0.5c0,0,3.2,1.9-2,6.9c-0.7,0.7-0.5,2.3-0.5,3.9c-0.1,1.8-0.2,4.6-1,5.2c-0.1,0.1-0.3,0.2-0.6,0.1 c-3.9-0.7-6-0.5-7.2,0.6c-1.3,1.2-1.1,3.2-0.8,5.7c0.2,1.4,0.4,2.9,0.4,4.7c0,3.2-0.7,3.6-0.7,3.6c-0.2,0.1-0.6-0.1-0.9-0.4 c-0.5-1.8-1.3-3.4-2.3-5c-1-1.5-2.4-2.9-4.2-3.7c-0.9-0.4-1.7-0.6-2.5-0.9c-0.8-0.3-1.6-0.6-2.4-1c-1.5-0.7-2.9-1.5-4.3-2.5 l1.2-8.3l0.1-0.6l-0.4,0.5c-0.3,0.4-0.8,0.8-1.2,1c-0.2,0.1-0.5,0.2-0.7,0.1c-0.2-0.1-0.4-0.3-0.5-0.5c-0.6-1-1-2-1.3-3.1 c0.2,1.1,0.6,2.2,1.1,3.2c0.1,0.2,0.3,0.5,0.6,0.7c0.3,0.1,0.6,0.1,0.9,0c0.4-0.2,0.7-0.4,1-0.6l-1.6,8l0,0.2l0.2,0.1 c1.4,1.1,2.9,2.1,4.5,2.9c0.8,0.4,1.6,0.8,2.4,1.2c0.8,0.4,1.7,0.7,2.4,1c1.4,0.7,2.6,2,3.4,3.4c0.8,1.2,1.3,2.7,1.7,4l-0.6,1.3 l-161.4,4.5l-145.6-4.1c-1-2.8-2.5-5.7-2.7-6.2l-0.7-1.4l-0.9,1.2c-1.2,1.5-4,4.7-6.8,6l-4.7-0.1c-1.5-0.7-2.1-1.7-3-3.2 c-0.6-1-1.4-2.3-2.6-3.7c-0.8-1-1.5-1.7-1.7-2.1c0.3-0.4,0.7-1.2,0.6-3.1c0-1.9,0.6-2.6,1-3.3c0.7-0.9,1.2-1.9-0.4-3.3 c-0.3-0.3-0.8-0.8-1.4-1.4c-1.9-2.1-4.5-5-7-4c-1.8,0.8-2.5,0.1-4-1.5c-1.7-1.7-4-2.7-8.9-3.9c0,0,6,3.7,7.5,5.3 c1.5,1.6,3.1,3.2,6.1,1.9c1.2-0.5,3.5,2.1,4.8,3.5c0.6,0.6,1.1,1.2,1.5,1.6c0.2,0.2,0.3,0.3,0.3,0.3c-0.1,0.1-0.2,0.2-0.2,0.3 c-0.6,0.7-1.5,2-1.4,4.5c0,1.5-0.2,1.9-0.4,2.2c-0.7,1.1-0.4,1.5,1.9,4.2c1.1,1.4,1.8,2.5,2.5,3.5c0.5,0.8,0.9,1.5,1.5,2.1l-9-0.3 c-0.1,0-0.2-0.1-0.3-0.1c-0.6-0.3-1.3-0.6-1.8-1l-2.1-2.3l-0.2-0.2l-0.2,0c-1.5,0-3,0-4.5,0c-0.7,0-1.5-0.1-2.2-0.1 c-0.4,0-0.7-0.1-1.1-0.1c-0.2,0-0.4-0.1-0.5-0.1c-0.1,0-0.2-0.1-0.2-0.1c0-0.1,0-0.1-0.1-0.2c-0.1-0.1-0.2-0.2-0.3-0.2 c-0.2,0-0.3,0-0.4,0c-0.2,0-0.4,0.1-0.5,0.1c-0.3,0-0.5-0.1-0.7-0.4c-0.1-0.3-0.1-0.6-0.2-1c-0.1-0.4-0.2-0.8-0.3-1.1 c-0.7-1.4-1.8-2.5-3-3.4c1.1,1,2.1,2.1,2.7,3.5c0.1,0.3,0.2,0.7,0.2,1c0,0.3,0,0.8,0.2,1.2c0.1,0.2,0.2,0.4,0.4,0.6 c0.2,0.1,0.5,0.2,0.7,0.2c0.2,0,0.4-0.1,0.6-0.1c0,0,0.1,0,0.1,0c0,0,0,0.1,0,0.1c0,0.1,0.1,0.1,0.1,0.1c0.1,0.1,0.1,0.1,0.2,0.1 c0.1,0.1,0.2,0.1,0.3,0.1c0.2,0.1,0.4,0.1,0.6,0.2c0.4,0.1,0.8,0.2,1.1,0.2c0.8,0.1,1.5,0.2,2.3,0.3c1.4,0.1,2.8,0.2,4.2,0.3 l1.8,2.2l0,0l0,0c0,0,0,0,0.1,0l-182.2-5.1l-21.3,78.3l21.3,78.3l358.8-9.2l358,9.2l0.8,0l21.3-78.1l0.1-0.3L860.1,98.4z M672.3,111.8c-0.1,0.1-0.2,0.2-0.2,0.3l0,0l0,0.1c-0.7,1.4-1.8,2.6-3.1,3.4c-0.5,0.3-1,0.5-1.5,0.7c-0.2-1.2-1-2.8-2-4.3 L672.3,111.8z M663,112.1c1.3,2.1,2.2,3.9,2.4,4.7c-4.3,1.1-8.6,3.6-8.2,7.4c-0.5,0.5-1.5,0.8-2.7,1.1c-1.3,0.4-2.8,0.9-4.1,1.7 c-1.7,1.1-3,3.4-3.8,4.8c-0.3,0.5-0.5,0.9-0.7,1.1c-0.4,0.5-0.6,1.1-0.5,1.8c0.2,1.5,1.8,3.1,2.8,3.9H620v0v3.2 c8.7,0,9.7,11.2,9.7,13v0.3c-0.7,0.1-1.4,0.2-2.2,0.2c-0.4,0-0.8,0-1.2,0s-0.7-0.1-1-0.2c-0.3-0.1-0.5-0.2-0.7-0.4 c-0.2-0.2-0.4-0.4-0.6-0.7c-0.1-0.1-0.2-0.3-0.3-0.4l-0.3-0.4c-0.2-0.3-0.3-0.6-0.5-0.8c-0.2-0.3-0.4-0.6-0.6-1 c-0.2-0.3-0.3-0.5-0.5-0.8c-0.4-0.6-0.8-1.2-1.3-1.7c-0.2-0.2-0.4-0.4-0.6-0.5c-0.1-0.1-0.2-0.2-0.3-0.3c-0.3-0.2-0.7-0.5-1.1-0.7 c-0.1-0.1-0.2-0.1-0.4-0.2c-0.1,0-0.2-0.1-0.3-0.1c0,0,0,0,0,0c-0.1-0.1-0.3-0.1-0.4-0.1c0,0,0,0,0,0v0c-0.1,0-0.2-0.1-0.3-0.1 c-0.5-0.1-0.9-0.2-1.4-0.2c0,0,0,0,0,0l-0.1,0c0,0,0,0,0,0c-0.3,0-0.6,0-0.9,0c-0.3,0-0.6,0-0.9,0.1c-0.3,0.1-0.6,0.1-0.8,0.2 c-0.2,0.1-0.5,0.2-0.7,0.3c-0.4,0.2-0.8,0.4-1.2,0.7c-0.4,0.2-0.7,0.5-1.1,0.7c-0.7,0.5-1.3,1-2,1.4c-0.2,0.1-0.3,0.2-0.5,0.3 c-0.2,0.1-0.4,0.2-0.5,0.2c-0.2,0.1-0.4,0.1-0.5,0.2c-0.2,0.1-0.4,0.1-0.5,0.1l-0.2,0c-0.3,0.1-0.6,0.2-0.9,0.2 c-0.2,0-0.3,0-0.5,0.1c-0.2,0-0.3,0-0.5,0c-0.5,0-1.1,0-1.7-0.1c0.8-3.9,3.1-9.5,9.2-9.5v-3.2v0h-29.9v0v3.2 c8.1,0,9.7,9.9,9.7,12.6v0.9l-0.2,0.2c-0.1,0.2-0.3,0.3-0.4,0.5c-0.1,0.1-0.1,0.2-0.2,0.2l-0.3,0.2c-0.2,0.2-0.4,0.3-0.6,0.4 c-0.2,0.1-0.4,0.3-0.6,0.4c-0.2,0.1-0.4,0.2-0.7,0.4c-0.4,0.2-0.9,0.4-1.3,0.6c-1,0.2-2.1,0.2-3.3,0.2c-0.6,0-1.3,0-2,0.1 c-0.3,0-0.7,0.1-1.1,0.2c-0.2,0-0.4,0.1-0.5,0.2c-0.2,0.1-0.4,0.2-0.5,0.3l-0.1,0.1c-0.2,0.2-0.4,0.3-0.6,0.5 c-0.2,0.1-0.5,0.3-0.7,0.5l-1.6,0.9l-0.8,0.5c-0.3,0.2-0.6,0.4-0.8,0.6l-0.3,0.3l-0.2,0.1c0,0.1-0.2,0.2-0.2,0.2 c-0.3,0.4-0.4,0.7-0.4,1c-0.1,0.6,0,1.1,0,1.6c0,0.5,0.1,1,0.1,1.5c0,0.5,0,0.9,0,1.4c0,0.2-0.1,0.4-0.2,0.6c0,0.1-0.1,0.2-0.1,0.2 c-0.1,0.1-0.1,0.1-0.2,0.2l-0.1,0.1l-0.2,0.3c-0.1,0.1-0.2,0.2-0.2,0.3c-0.1,0.1-0.2,0.2-0.3,0.2c-0.1,0.1-0.2,0.1-0.3,0.2 c-0.2,0.1-0.4,0.2-0.7,0.3c-0.3,0.1-0.5,0.2-0.8,0.2c-0.6,0.1-1.3,0.3-2,0.4c-0.3,0.1-0.7,0.1-1,0.2l-24.5-33h-20.2v0v3.2 c8.7,0,9.7,11.2,9.7,13v7.6c-0.2-0.1-0.4-0.3-0.6-0.4c-0.3-0.2-0.5-0.4-0.8-0.5c-0.2-0.1-0.3-0.2-0.5-0.3c-0.2-0.1-0.3-0.2-0.5-0.3 c-0.2-0.1-0.4-0.2-0.6-0.2l-0.3-0.1l-0.4-0.1c-0.2-0.1-0.5-0.1-0.8-0.1c-0.2,0-0.3,0-0.5,0c-0.3-0.1-0.6-0.1-1-0.1 c-0.4,0-0.8,0-1.2,0.1c-0.8,0.1-1.5,0.3-2.1,0.6c-1.2,0.5-2.2,1.1-3.1,1.8c-0.1,0-0.2,0.1-0.3,0.1c-0.2,0.1-0.4,0.2-0.5,0.3 c-0.3,0.2-0.6,0.4-0.8,0.6c-0.5,0.4-0.8,0.8-1.1,1.2c-0.7,0.8-1.2,1.6-1.8,2.3l-0.1,0.1l-0.4,0.4c-0.1,0.1-0.4,0.3-0.5,0.4 c-0.2,0.1-0.4,0.2-0.6,0.4c-0.2,0.1-0.4,0.2-0.7,0.3c-0.5,0.2-1,0.4-1.5,0.7c-0.1,0.1-0.3,0.1-0.4,0.2l-0.5,0.3 c-0.2,0.1-0.3,0.2-0.4,0.3l-0.3,0.2l0,0c-0.1-0.1-0.2-0.1-0.4-0.2c-0.1,0-0.2-0.1-0.4-0.1c-1.1-0.8-2.2-1.4-3.6-1.8 c-0.7-0.2-1.5-0.4-2.4-0.4c-0.4,0-0.9,0-1.3,0.1c-0.3,0.1-0.7,0.2-1,0.3c-0.2,0-0.4,0-0.5,0c-0.3,0.1-0.6,0.1-0.9,0.2l-0.4,0.2 l-0.3,0.2c-0.2,0.1-0.4,0.3-0.6,0.4c-0.2,0.1-0.4,0.3-0.5,0.4c-0.2,0.1-0.3,0.3-0.5,0.4c-0.3,0.3-0.6,0.6-0.8,0.8 c-0.5,0.5-1,1-1.5,1.5c-0.3,0.2-0.5,0.4-0.8,0.6l-0.4,0.2l-0.4,0.2l-0.2,0.1l-0.1,0c-1.4,0.9-2.9,1.8-4.4,2.5 c-0.7,0.4-1.5,0.7-2.2,0.9c-0.4,0.1-0.7,0.2-1.1,0.2c-0.3,0.1-0.7,0.1-1,0.1l-0.2,0l-0.1,0v-35.4h14.2c1.8,0,13.1,0.9,13.1,9.7h3.2 v-12.8h-71.5v12.8h3.2c0-9.5,13.5-9.7,13.5-9.7h13.9v37.8l-0.1,0.1c-0.3,0.3-0.5,0.5-0.7,0.8c-0.2,0.3-0.4,0.5-0.5,0.8 c-0.1,0.3-0.3,0.5-0.4,0.8c-0.1,0.3-0.2,0.5-0.3,0.8c-0.3,1-0.5,2-0.8,3c-0.1,0.5-0.2,1-0.3,1.4c-0.1,0.2-0.1,0.5-0.2,0.7 c-0.1,0.2-0.1,0.5-0.2,0.7c-0.1,0.2-0.1,0.4-0.2,0.6c-0.1,0.2-0.2,0.4-0.3,0.5l-0.2,0.2c-0.1,0.1-0.1,0.1-0.2,0.2l-0.1,0.1 l-0.1,0.1c-0.1,0-0.1,0.1-0.2,0.1l0,0l-0.1,0.1c-0.1,0.1-0.2,0.1-0.4,0.2c-0.1,0-0.3,0.1-0.4,0.1c-0.1,0-0.3,0.1-0.4,0.1 c-0.2,0-0.3,0-0.5,0c-0.6,0-1.4-0.3-2.1-0.5c-0.7-0.3-1.4-0.6-2.2-0.9c-0.4-0.2-0.8-0.3-1.2-0.5c-0.2-0.1-0.5-0.1-0.7-0.2 c-0.2-0.1-0.4-0.1-0.6-0.1c-0.4-0.1-0.8-0.2-1.2-0.3c-0.4-0.1-0.8-0.1-1.2-0.1c-0.8-0.1-1.5-0.1-2.2-0.2c-0.3,0-0.7-0.1-0.9-0.2 c-0.3-0.1-0.6-0.2-0.8-0.3c-0.1-0.1-0.2-0.1-0.3-0.2c-0.1-0.1-0.2-0.2-0.3-0.3c-0.1-0.1-0.2-0.2-0.3-0.3l-0.2-0.3l-0.1-0.2 c-0.1-0.1-0.1-0.2-0.2-0.2c-0.1-0.1-0.1-0.2-0.2-0.3c-0.1-0.2-0.2-0.5-0.3-0.7c-0.1-0.5-0.2-1.1-0.2-1.8c0-0.6,0-1.3,0-1.9 c0-0.7,0-1.3-0.2-2.1c-0.1-0.4-0.2-0.8-0.6-1.2c-0.1-0.1-0.2-0.2-0.3-0.3l-0.2-0.2l-0.4-0.3c-0.3-0.2-0.6-0.4-0.9-0.6l-0.9-0.5 l-1.8-1c-0.3-0.2-0.6-0.3-0.8-0.5c-0.3-0.2-0.5-0.3-0.8-0.5l-0.1-0.1c-0.2-0.1-0.4-0.2-0.6-0.3c-0.2-0.1-0.4-0.1-0.6-0.2 c-0.4-0.1-0.8-0.1-1.2-0.1c-0.8,0-1.5,0.1-2.1,0.1c-1.3,0.1-2.6,0.3-3.6,0.2c-0.5-0.2-1-0.4-1.5-0.6c-0.3-0.1-0.5-0.2-0.8-0.4 c-0.2-0.1-0.5-0.3-0.7-0.4c-0.2-0.1-0.5-0.3-0.6-0.5l-0.3-0.3c-0.1-0.1-0.2-0.2-0.3-0.3c-0.2-0.2-0.4-0.4-0.5-0.6l-0.5-0.6 l-0.1-0.1l-0.1-0.1l-2.8-1.8l-2.7-1.7l-0.2-0.1l-0.1,0l-0.4-0.1V155c0-2.2,1.2-13.1,9.7-13.1v-3.2h-29.9v3.2 c8.7,0,9.7,11.4,9.7,13.1v12.2c-0.2,0-0.3-0.1-0.5-0.1c-0.2-0.1-0.4-0.1-0.6-0.2c-0.2-0.1-0.4-0.2-0.6-0.3c-0.8-0.4-1.6-1-2.4-1.5 c-0.4-0.3-0.8-0.5-1.3-0.8c-0.4-0.3-0.9-0.5-1.4-0.7c-0.2-0.1-0.5-0.2-0.8-0.3c-0.3-0.1-0.6-0.1-0.9-0.2c-0.3-0.1-0.6,0-1,0 c-0.3,0-0.6,0.1-0.9,0.2c0,0,0,0,0,0l-0.1,0c0,0,0,0,0,0c-0.5,0.1-1,0.3-1.5,0.5c-0.3,0.1-0.5,0.2-0.7,0.4 c-0.2,0.1-0.5,0.3-0.7,0.5c-0.4,0.3-0.8,0.7-1.1,1.1c-0.3,0.4-0.6,0.8-0.9,1.2c-0.5,0.8-0.9,1.6-1.2,2.4c-0.3,0.8-0.6,1.6-0.9,2.4 c-0.1,0.4-0.3,0.8-0.4,1.2l-0.2,0.6c-0.1,0.2-0.2,0.4-0.3,0.6c-0.2,0.3-0.4,0.7-0.6,0.9c-0.2,0.3-0.5,0.5-0.7,0.6 c-0.6,0.3-1.4,0.4-2.3,0.5c-0.9,0-1.8,0-2.7,0l0,0l0,0l-2,0.1c-0.1,0-0.2,0-0.4,0c0.1-0.7-0.1-1.4-0.3-1.9c-0.3-0.6-0.6-1.1-1-1.6 l0,0l0,0c-0.2-0.2-0.5-0.4-0.7-0.5c-0.1-0.1-0.2-0.1-0.4-0.2l-0.4-0.1c-0.3-0.1-0.5-0.1-0.7-0.1c-0.2,0-0.5,0-0.7-0.1 c-0.2,0-0.5,0-0.7,0c-0.2,0-0.5,0-0.7,0c-0.5,0-0.9,0.1-1.4,0.1c-0.9,0.1-1.8,0.2-2.7,0.3c-0.8,0.1-1.6,0.2-2.3,0.2 c0,0-0.1-0.1-0.1-0.1c-0.1-0.1-0.2-0.2-0.2-0.3c-0.1-0.1-0.1-0.2-0.2-0.4c0-0.1-0.1-0.3-0.1-0.4c-0.1-0.6-0.1-1.3-0.1-2 c0-0.6,0.1-1.1,0.1-1.7l0,0c0,0,0-0.1,0-0.2c0-0.1,0-0.2,0-0.4c0-0.4,0-0.8-0.1-1.2c0,0,0,0,0,0c-0.1-1.7-0.5-4.6-1.2-7.6V155 c0-2.2,1.2-13.1,9.7-13.1v-3.2h-16.2c-0.4-0.4-0.7-0.8-1-1.1c-0.8-1-2-1.6-3.1-2.2c-1.4-0.7-2.2-1.2-2.2-2l-0.1-5.1l-0.7-0.2 c-1.5-0.3-5.5-1.6-6.7-3.6c-0.3-0.5-0.4-1.1-0.3-1.6c1.2-5,2.1-7.8,2.8-9.6c0.1-0.3,0.2-0.6,0.3-0.8l145.2,4.1L663,112.1z M789.2,142c0.6,0,1.2,0,1.8,0c2.8,0,5.5,0.3,8.2,0.9c-0.2,0.9-0.3,1.8-0.5,2.6c-0.1,0.6-0.3,1.2-0.6,1.8c-0.3,0.5-0.7,1.1-1.5,1.2 c-0.3-0.1-0.7-0.2-1-0.3c-0.3-0.1-0.7-0.3-1-0.4c-0.7-0.3-1.3-0.6-1.9-1l-1.9-1c-0.3-0.2-0.6-0.3-1-0.5c-0.3-0.2-0.6-0.3-1-0.5 l-1-0.5c-0.4-0.1-0.7-0.3-1.1-0.4c-0.7-0.2-1.5-0.4-2.2-0.6c-0.5-0.2-1-0.3-1.6-0.5c0.9-0.2,1.8-0.4,2.7-0.5 C786.9,142.2,788.1,142.1,789.2,142z M775.1,142c-3.8,1.7-7.4,3.9-10.6,6.8c-0.5,0.5-1,0.9-1.5,1.4c-3.7,3.7-6.5,8-8.5,12.5 c-0.1,0-0.1,0-0.2,0c-0.8,0-1.7,0-2.5-0.1c-0.4-0.1-0.8-0.1-1.2-0.2c-0.2-0.1-0.4-0.1-0.5-0.2c-0.2-0.1-0.3-0.2-0.4-0.3 c-0.2-0.3,0-0.6,0-0.9c0.1-0.3,0.2-0.6,0.1-0.9c0-0.3-0.2-0.6-0.5-0.8c-0.2-0.1-0.4-0.2-0.5-0.3c-0.2-0.1-0.4-0.2-0.6-0.2 c-0.2-0.1-0.4-0.1-0.6-0.1c-0.2,0-0.4,0-0.6,0c-0.2,0-0.4,0-0.6,0.1c-0.2,0.1-0.4,0.1-0.6,0.2c-0.4,0.2-0.7,0.4-0.9,0.6 c-0.3,0.2-0.5,0.5-0.7,0.7c-0.4,0.5-0.8,1-1.1,1.5c-0.5-0.2-1-0.4-1.6-0.6l-1.7-0.5c-0.6-0.2-1.1-0.4-1.7-0.6 c-0.3-0.1-0.5-0.2-0.7-0.4c-0.1-0.1-0.2-0.1-0.3-0.2l-0.1-0.1l0,0c0,0,0,0,0,0l0,0l-0.1-0.1V158c0,0,0-0.1,0-0.1 c0.2-0.4,0.4-0.8,0.7-1.2c0.2-0.4,0.5-0.8,0.6-1.3c0.1-0.2,0.1-0.5,0.1-0.7c0-0.1,0-0.2,0-0.4l-0.1-0.4l-0.1-0.2l-0.3,0.1 c-0.3,0.1-0.6,0.2-0.9,0.2c0.2-3.1,1.8-12.2,9.6-12.2v-2.1l0.7,0.4l1.2,0.6l1.3,0.4c0.4,0.1,0.9,0.2,1.3,0.3 c0.2,0.1,0.5,0.1,0.7,0.1l0.7,0.1c0.2,0,0.5,0.1,0.7,0.1l0.7,0.1c0.2,0,0.5,0,0.7,0l0.7,0c0.4,0,0.9,0,1.3,0c0.4,0,0.8,0.1,1.2,0.1 c0.4,0,0.8,0,1.2,0c0.4,0,0.8-0.1,1.2-0.1c0.2,0,0.4,0,0.6-0.1l0.6-0.1c0.4-0.1,0.8-0.2,1.1-0.3c0.4-0.1,0.7-0.2,1.1-0.4l0.5-0.2 c0.2-0.1,0.3-0.2,0.5-0.2l1-0.5c0.4-0.2,0.8-0.3,1.1-0.5c0.4-0.2,0.7-0.4,1-0.6c0.7-0.4,1.2-0.9,1.9-1.4c0.3-0.2,0.6-0.4,1-0.6 c0.3-0.2,0.7-0.4,1.1-0.5c0.2-0.1,0.4-0.1,0.6-0.1c0.2,0,0.4-0.1,0.6-0.1c0.2,0,0.4,0,0.6,0c0.2,0,0.4,0,0.6,0 c0.4,0.1,0.9,0.1,1.3,0.2c0.2,0,0.4,0.1,0.6,0.1c0.2,0.1,0.4,0.1,0.5,0.2c0.3,0.2,0.6,0.4,0.8,0.7c0.2,0.3,0.4,0.5,0.6,0.8 c0.5,0.7,0.9,1.5,1.4,2.2C777.9,140.9,776.5,141.4,775.1,142z M736.9,154.4c0.1,0,0.2,0,0.3,0c0.2,0,0.4-0.1,0.6-0.2l0,0.1 c0,0.1,0,0.2,0,0.3c0,0.2,0,0.4-0.1,0.6c-0.1,0.4-0.3,0.8-0.6,1.3c-0.1,0.2-0.2,0.3-0.3,0.5v-2.2 C736.9,154.8,736.9,154.6,736.9,154.4z M736.7,138.7c0-0.1,0.1-0.2,0.1-0.3c0-0.1,0.1-0.2,0.2-0.3c0.1-0.1,0.1-0.2,0.2-0.3 c0.1-0.1,0.2-0.2,0.2-0.2c0.1-0.1,0.2-0.1,0.3-0.2l0.1-0.1c0.5-0.5,0.8-1,1.1-1.5l0.9-1.5c0.3-0.5,0.6-1,1-1.4 c0.1-0.1,0.2-0.2,0.3-0.3c0.1-0.1,0.2-0.2,0.3-0.3c0.1-0.1,0.2-0.1,0.4-0.2c0.1,0,0.2-0.1,0.3-0.1l0.3,0.3c0.1,0.1,0.3,0.3,0.4,0.4 l0.3,0.4l0.3,0.5c0.3,0.6,0.6,1.3,0.8,1.9c0.2,0.7,0.5,1.3,0.7,2c0.1,0.3,0.3,0.7,0.5,1c0,0,0,0.1,0.1,0.1H736.7z M725.5,149.3 c0.3,0.9,0.5,1.8,0.6,2.6c0.1,0.3,0.1,0.6,0.1,0.9c0.1,0.7,0.1,1.3,0.1,1.7v0.2l-0.2,0l-0.9-0.2c-0.2,0-0.4-0.1-0.7-0.1 c-0.2-0.5-0.4-1-0.6-1.6c-0.1-0.3-0.2-0.6-0.4-0.9c-0.1-0.1-0.1-0.3-0.3-0.4c-0.1-0.2-0.2-0.3-0.4-0.4c-0.2-0.1-0.3-0.3-0.6-0.3 c-0.2-0.1-0.4-0.2-0.7-0.2c-0.2,0-0.4-0.1-0.7-0.1c-0.2,0-0.4,0-0.6,0c-0.4,0-0.8,0.1-1.2,0.1c-0.2,0-0.4,0-0.6,0.1 c0.3-0.1,0.6-0.3,0.8-0.4l0.9-0.4l0.9-0.5l0.8-0.5l1.7-0.9l0.9-0.5C725.1,148.1,725.3,148.7,725.5,149.3z M719.5,151.2 c0.4-0.1,0.8-0.1,1.1-0.1c0.2,0,0.4,0,0.6,0c0.2,0,0.4,0,0.5,0c0.2,0,0.3,0.1,0.5,0.1c0.1,0,0.3,0.1,0.4,0.2 c0.1,0.1,0.2,0.2,0.3,0.3c0.1,0.1,0.2,0.2,0.2,0.4c0.1,0.3,0.2,0.5,0.4,0.8c0.2,0.6,0.4,1.1,0.6,1.7l0.1,0.1l0.2,0 c0.3,0,0.5,0.1,0.8,0.1l0.9,0.2l0.4,0.1v48.2l-47.9-64.7h-20.2v0v3.2c8.7,0,9.7,11.2,9.7,13v21.4l-0.2,0c-0.1,0-0.3,0-0.4,0 c-0.5,0-0.9,0-1.4,0c0,0,0,0-0.1,0c-0.1,0-0.2,0-0.2,0c-0.2,0-0.4-0.1-0.7-0.1c-0.3-0.1-0.6-0.2-0.8-0.3c-0.2-0.1-0.5-0.3-0.7-0.4 l-0.6-0.5l-0.1-0.1l0,0l0,0l-0.1,0.1c-0.4,0.3-0.8,0.6-1.4,0.8c-0.5,0.2-1.1,0.3-1.7,0.2c-0.9-0.1-1.6-0.7-1.9-1.4 c-0.1-0.2-0.1-0.3-0.1-0.5c0-0.1,0-0.1,0-0.2c0-0.1,0-0.3,0-0.5c0-0.2,0.1-0.4,0.2-0.6c0.1-0.2,0.3-0.4,0.4-0.6 c0.2-0.2,0.3-0.4,0.5-0.6c0.2-0.2,0.5-0.5,0.7-0.8c0.1-0.1,0.2-0.3,0.3-0.4c0.1-0.1,0.2-0.3,0.3-0.4c0.1-0.2,0.1-0.3,0.2-0.5 c0-0.1,0.1-0.3,0-0.4c0-0.2-0.1-0.5-0.2-0.7c-0.1-0.1-0.1-0.2-0.2-0.3l-0.2-0.2l-0.2-0.1c-0.2-0.1-0.4-0.2-0.6-0.2 c-0.4-0.2-0.8-0.3-1.1-0.4c-1.2-0.4-2.3-0.7-3.5-1c-0.4-0.1-0.8-0.2-1.2-0.4c-0.6-0.2-1.2-0.5-1.8-0.7c-0.1-0.1-0.2-0.1-0.4-0.2 c-0.1,0-0.1-0.1-0.2-0.1c-0.2-0.1-0.4-0.2-0.7-0.2c0,0-0.1,0-0.1,0c-0.3-0.1-0.7,0-1,0.1c-0.6,0.2-1.2,0.4-1.7,0.6 c-1,0.3-1.9,0.7-2.8,1.1c-0.2,0.1-0.3,0.1-0.5,0.2c-0.1,0-0.2,0.1-0.3,0.1c-1,0.4-2,0.6-3,0.5c-0.1,0-0.2,0-0.3-0.1v-5.1 c0.1-0.6,0.2-1.1,0.3-1.7c0-0.5,0-0.9-0.2-1.4c0-0.1-0.1-0.1-0.1-0.2v-3.6c0-0.5,0.1-1.6,0.3-2.9c0.1,0,0.2,0,0.3,0 c0.2,0,0.4,0,0.6,0c0.6,0,1.3,0,1.9-0.1l0.2,0l0.1,0l0.1-0.1c0.2-0.1,0.4-0.3,0.5-0.4c0,0,0.1-0.1,0.1-0.1c0.1-0.1,0.2-0.2,0.2-0.4 c0,0,0,0,0-0.1c0-0.1,0.1-0.2,0.1-0.3c0,0,0-0.1,0-0.1c0-0.2,0.1-0.3,0.1-0.5c0,0,0,0,0,0l0,0c0-0.6,0-1.1-0.1-1.7c0,0,0-0.1,0-0.1 c0,0,0,0,0,0c-0.1-0.6-0.2-1.1-0.3-1.6c0,0,0,0,0,0c0-0.1,0-0.3,0-0.4c0-0.2,0.1-0.4,0.2-0.6c0.2-0.2,0.4-0.3,0.8-0.3 c0.2,0,0.5-0.1,0.7-0.1l1.6-0.1c0.5,0,1.1-0.1,1.6-0.1c0.3,0,0.6-0.1,0.8-0.1c0.2,0,0.3-0.1,0.5-0.1l0.3-0.1 c0.1-0.1,0.3-0.1,0.4-0.2l0.4-0.4l-0.6-0.3c-0.4-0.2-0.8-0.5-1.3-0.7c-0.4-0.2-0.9-0.5-1.2-0.7c-0.1-0.1-0.2-0.2-0.3-0.2 c0.4-0.1,0.9-0.1,1.4-0.1v-2.5c0.3-0.4,0.5-0.9,0.9-1.3c0.3-0.4,0.7-0.7,1.2-1c0.1,0,0.2-0.1,0.4-0.2c0.1,0,0.2-0.1,0.4-0.1 c0.1,0,0.3-0.1,0.4-0.1l0.4,0l0.2,0l0.1,0c0.4-0.1,0.7-0.2,1.1-0.4l1-0.4c0.6-0.3,1.3-0.6,1.9-0.9l0.9-0.4l0.9-0.4 c0.3-0.1,0.6-0.2,0.9-0.3c0.3-0.1,0.6-0.1,1-0.2l2.2-0.2c0.4,0,0.7,0,1.1,0l1.1,0l0.5,0l0.5,0l1.1,0.1c0.4,0,0.7,0.1,1,0.1l1,0.2 l0.1,0l0,0c1.5,0,2.9-0.2,4.2-0.2c0.3,0,0.7,0,1,0c0.3,0,0.6,0,0.9,0.1c0.3,0,0.6,0.1,0.9,0.2c0.3,0.1,0.6,0.2,0.8,0.3l0,0l0.1,0 c0.1,0,0.3,0.1,0.4,0.1c0.1,0.1,0.2,0.1,0.3,0.2c0.2,0.1,0.4,0.3,0.5,0.5c0.3,0.4,0.5,0.9,0.7,1.4c0.2,0.5,0.4,1,0.6,1.5 c0.2,0.5,0.5,1,0.9,1.5l0,0l0,0c0.2,0.2,0.4,0.4,0.6,0.5c0.2,0.2,0.5,0.3,0.7,0.5c0.5,0.3,1,0.5,1.5,0.7l1.5,0.6 c0.5,0.2,1,0.4,1.4,0.6c0.1,0.1,0.2,0.1,0.3,0.2c0.1,0.1,0.1,0.1,0.2,0.2c0.1,0.2,0.3,0.4,0.4,0.5c0.1,0.1,0.3,0.2,0.4,0.3 c0.1,0.1,0.3,0.2,0.5,0.2c0.3,0.1,0.7,0.2,0.9,0.2l0.8,0.1c0.3,0,0.5,0.1,0.8,0.1c0.5,0.1,1.1,0.3,1.6,0.4l0,0l0.1,0l0.8,0.1 l0.8,0.2l0.7,0.3l0.7,0.3c0.5,0.2,1,0.5,1.5,0.7c0.3,0.1,0.6,0.2,0.8,0.3c0.3,0.1,0.5,0.1,0.8,0.2l0.7,0.3c0.2,0.1,0.4,0.2,0.5,0.4 c0.1,0.1,0.1,0.2,0.2,0.2c0.1,0.1,0.1,0.2,0.1,0.3c0,0.1,0.1,0.2,0.2,0.4c0,0.1,0.1,0.2,0.2,0.4c0.2,0.3,0.4,0.4,0.7,0.6 c0.2,0.1,0.3,0.2,0.4,0.2c0.1,0.1,0.3,0.1,0.4,0.2c0.3,0.1,0.6,0.2,0.9,0.3c0.3,0.1,0.6,0.2,1,0.2c1.3,0.3,2.6,0.4,3.8,0.5 c1.3,0.1,2.5,0.2,3.7,0.4l0,0l0,0l1.1,0.1c0.4,0,0.7,0,1.1,0c0.4,0,0.7-0.1,1.1-0.1c0.4,0,0.7-0.2,1.1-0.3 C717.2,151.3,719.1,151.2,719.5,151.2z M647.2,142.3c0.1,0.2,0.2,0.3,0.4,0.4c0.1,0.1,0.2,0.2,0.3,0.2c0.4,0.3,0.9,0.5,1.3,0.7 c0.1,0,0.1,0.1,0.2,0.1c-0.1,0-0.1,0-0.2,0c-0.5,0-1,0.1-1.6,0.1L646,144c-0.3,0-0.6,0.1-0.8,0.1c-0.1,0-0.3,0.1-0.5,0.1 c-0.1,0-0.3,0.1-0.4,0.1c0,0-0.3,0.2-0.4,0.3c0,0-0.2,0.4-0.2,0.5c-0.1,0.1-0.1,0.1-0.2,0.2l-0.4-0.1 C644.2,143.9,645.5,142.8,647.2,142.3C647.2,142.3,647.2,142.3,647.2,142.3z M643.3,148.2c0,0.2,0,0.3,0.1,0.5c0,0.2,0,0.4,0,0.5 c0,0.2,0,0.3,0,0.5c0,0.1,0,0.2-0.1,0.4c0,0.1-0.1,0.2-0.1,0.3c0,0,0,0,0,0.1c0,0.1-0.1,0.1-0.1,0.2c0,0-0.1,0.1-0.1,0.1 c-0.3,0-0.7,0-1,0.1c-0.4,0-0.7,0-1.1,0c0,0,0,0,0,0c0.4-1.7,1.1-3.7,2.3-5.3c0,0,0,0.1,0,0.1c0,0.3,0,0.6,0,0.9c0,0,0,0,0,0 C643.1,147.1,643.2,147.7,643.3,148.2z M576.1,167c0-0.5-0.1-1-0.1-1.5c0-0.5-0.1-1,0-1.4c0-0.2,0.1-0.4,0.2-0.4c0,0,0,0,0.1-0.1 l0.2-0.1l0.3-0.3c0.2-0.2,0.4-0.3,0.6-0.5l0.7-0.5l1.6-0.9c0.3-0.2,0.5-0.3,0.8-0.5c0.2-0.1,0.5-0.3,0.7-0.5c0.1,0,0.1-0.1,0.2-0.1 c0.1,0,0.2-0.1,0.3-0.1c0.2-0.1,0.5-0.1,0.7-0.1c0.5-0.1,1.1-0.1,1.7-0.1c1.2,0,2.5,0,3.9-0.3l0.1,0l0.1-0.1c0.5-0.2,1-0.5,1.5-0.7 c0.3-0.1,0.5-0.3,0.8-0.4c0.2-0.1,0.5-0.3,0.7-0.5c0.1-0.1,0.2-0.2,0.3-0.3v22.1c-0.4,0-0.9,0-1.3,0.1c-0.2,0-0.5,0.1-0.7,0.1 l-0.6,0.2c-0.4,0.2-0.8,0.3-1.1,0.5c-1.3,0.7-2.4,1.6-3.5,2.4l-3.1-0.7l-1.7-0.5c-0.5-0.2-1.2-0.3-1.6-0.5 c-0.5-0.2-1.1-0.4-1.5-0.6l-0.1-0.1c0,0-0.1-0.1-0.1-0.1c-0.1,0-0.1-0.1-0.2-0.2c0-0.1-0.1-0.2-0.2-0.3l-0.2-0.3 c-0.2-0.4-0.5-0.8-0.8-1.2c-0.3-0.4-0.5-0.8-0.8-1.2c-0.6-0.8-1.2-1.6-2-2.3c-0.4-0.4-0.8-0.7-1.6-1c-0.2-0.1-0.3-0.1-0.4-0.2 l-0.1,0l0,0l0,0l-0.1,0l-0.1,0l-0.8-1c0.2,0,0.3-0.1,0.5-0.1c0.7-0.1,1.4-0.2,2.1-0.4c0.4-0.1,0.7-0.2,1.1-0.3 c0.4-0.1,0.7-0.3,1.1-0.5c0.2-0.1,0.3-0.2,0.5-0.3c0.1-0.1,0.3-0.2,0.4-0.4c0.1-0.1,0.3-0.3,0.3-0.4l0.3-0.4 c0.1-0.1,0.2-0.2,0.3-0.3c0.1-0.1,0.2-0.3,0.2-0.4c0.1-0.3,0.2-0.6,0.2-0.9C576.1,168,576.1,167.5,576.1,167z M574.4,180.3 l-2.5-3.4c0.4,0.4,0.7,0.8,1,1.2c0.3,0.4,0.6,0.8,0.8,1.1C573.9,179.6,574.2,180,574.4,180.3z M543.5,144l21.4,28.8 c-0.1,0-0.2,0.1-0.3,0.1c-0.7,0.3-1.3,0.6-1.9,0.9c-0.6,0.3-1.3,0.5-1.9,0.6c-0.2,0-0.3,0-0.4,0c-0.1,0-0.3,0-0.4,0 c-0.1,0-0.2,0-0.4-0.1c-0.1,0-0.2-0.1-0.3-0.1l-0.1,0l0,0c-0.1,0-0.1-0.1-0.2-0.1l-0.1,0l-0.1-0.1c-0.1,0-0.1-0.1-0.2-0.1l-0.2-0.2 c-0.1-0.1-0.2-0.2-0.3-0.4c-0.1-0.1-0.2-0.3-0.3-0.4c-0.1-0.1-0.2-0.3-0.2-0.5c-0.1-0.2-0.1-0.3-0.2-0.5c-0.1-0.3-0.3-0.7-0.4-1.1 c-0.3-0.7-0.5-1.5-0.9-2.2c-0.1-0.2-0.2-0.4-0.3-0.6c-0.1-0.2-0.3-0.4-0.4-0.6c-0.1-0.2-0.4-0.4-0.5-0.6c-0.2-0.2-0.5-0.3-0.7-0.5 l-0.1-0.1l-0.2,0c-0.4-0.1-0.9-0.2-1.3-0.2c-0.4,0-0.8-0.1-1.2-0.1c-0.8-0.1-1.6-0.1-2.4-0.1l-2.3-0.1l-1.1-0.1l-1.1-0.1l-0.2,0 l-0.2,0c-0.1,0-0.2,0-0.3,0V144z M565.7,174.2c0,0,0.1,0,0.1-0.1l0.1,0.2c-0.4,0.1-0.8,0.2-1.2,0.3 C565.1,174.5,565.4,174.3,565.7,174.2z M575.3,181.5c0,0,0.1,0.1,0.1,0.1l0.2,0.1c0.6,0.3,1.2,0.4,1.7,0.6c0.6,0.2,1.2,0.3,1.7,0.5 l1.7,0.4l3.5,0.7l0.3,0.1l0.2-0.2c1.1-0.9,2.2-1.9,3.5-2.6c0.3-0.2,0.7-0.3,1-0.5l0.5-0.2c0.2-0.1,0.4-0.1,0.5-0.1 c0.4-0.1,0.7-0.1,1.1-0.1v22.9L575.3,181.5z M431.3,207.6c0.1,1.5,0.5,3,0.2,4.5c-0.4,0-0.7,0-1.1,0c-0.4,0-0.7,0-1.1-0.1 c-3.9-3.8-4-11.2-4-11.2v-32.6l2.2,1.4l2.5,1.7l0.5,0.6c0.2,0.3,0.4,0.5,0.6,0.7c0.1,0.1,0.2,0.2,0.3,0.3l0.4,0.3 c0.2,0.2,0.5,0.4,0.8,0.6c0.3,0.2,0.6,0.3,0.8,0.5c0.3,0.2,0.6,0.3,0.9,0.4c0.6,0.3,1.2,0.5,1.7,0.7l0.2,0.1l0.2,0 c1.5,0.1,2.9-0.1,4.2-0.2c0.6-0.1,1.3-0.1,1.9-0.1c0.3,0,0.6,0,0.8,0.1c0.1,0,0.2,0,0.3,0.1c0.1,0,0.2,0.1,0.2,0.1 c0.3,0.2,0.6,0.4,0.8,0.6c0.3,0.2,0.6,0.4,0.9,0.5l1.8,1l0.8,0.5c0.2,0.2,0.5,0.3,0.7,0.5l0.4,0.3l0.2,0.2c0.1,0.1,0,0.1,0.1,0.1 c0.1,0.1,0.2,0.3,0.2,0.5c0.1,0.5,0.1,1.1,0.1,1.7c0,0.6,0,1.3,0,2c0,0.7,0.1,1.4,0.2,2.1c0.1,0.4,0.2,0.7,0.4,1.1 c0.1,0.2,0.2,0.4,0.3,0.5c0.1,0.1,0.2,0.2,0.3,0.4l0.3,0.5c0.1,0.2,0.3,0.3,0.4,0.5c0.1,0.2,0.3,0.3,0.5,0.4 c0.2,0.1,0.4,0.2,0.6,0.4c0.4,0.2,0.8,0.4,1.2,0.5c0.4,0.1,0.8,0.2,1.3,0.3c0.8,0.1,1.6,0.2,2.4,0.2c0.4,0,0.7,0.1,1,0.1 c0.3,0,0.6,0.1,0.9,0.2l0.3,0.1c0.2,0,0.3,0,0.5,0.1c0.2,0.1,0.3,0.1,0.5,0.1c0.3,0.1,0.7,0.3,1.1,0.4c0.3,0.1,0.7,0.3,1,0.4 c-1.2-0.2-2.4-0.5-3.9-0.4c-0.4,0-0.8,0.1-1.2,0.3l-0.3,0.1l-0.1,0.1l-0.1,0l0,0l0,0l-0.1,0c-0.1,0.1-0.3,0.1-0.4,0.3 c-0.7,0.5-1.1,1-1.6,1.6c-0.8,1.1-1.4,2.2-1.9,3.3c-0.3,0.6-0.5,1.1-0.8,1.7c-0.2,0.5-0.5,1.1-0.7,1.7l-0.1,0.4 c0,0.1-0.1,0.3-0.1,0.4c0,0.1-0.1,0.2-0.1,0.3c0,0,0,0.1-0.1,0.1l-0.1,0.1c-0.4,0.3-1,0.6-1.6,0.9c-0.5,0.3-1.2,0.6-1.7,0.8 l-1.8,0.8l-3.3,1.3c-1.2-0.9-2.5-1.9-4.1-2.7c-0.4-0.2-0.8-0.4-1.3-0.5l-0.7-0.2c-0.2-0.1-0.5-0.1-0.7-0.1c-0.5,0-1,0-1.5,0.1 c-0.3,0-0.5,0.2-0.7,0.2c-0.3,0.1-0.5,0.2-0.7,0.4c-0.2,0.1-0.4,0.3-0.6,0.4c-0.2,0.2-0.4,0.3-0.6,0.5c-0.3,0.3-0.6,0.8-0.7,1.3 C431.2,206,431.3,206.8,431.3,207.6z M379.4,183.7c0.1,1.2,0.5,2.3,1,3.5c0.2,0.5,0.6,1.1,1,1.6c0.4,0.5,0.7,0.9,0.9,1.4 c0.1,0.5-0.1,0.9-0.5,1.4l-0.3,0.3l-0.4,0.3c-0.3,0.2-0.5,0.3-0.8,0.4c-1.2,0.4-2.5,0.1-3.7-0.3c-0.9-0.3-1.8-0.7-2.7-1V180h6.3 C379.4,181.2,379.3,182.5,379.4,183.7z M386.1,176c0,0.1,0,0.2-0.1,0.4l0,0.1c0,0-0.1,0-0.1,0h-12v-4.4c0,0,0,0.1,0.1,0.1 c0.1,0.2,0.3,0.4,0.4,0.6c0.2,0.2,0.4,0.3,0.6,0.5l0.1,0.1l0.3,0c1,0,1.9-0.1,2.8-0.2c0.9-0.1,1.8-0.2,2.6-0.3 c0.4,0,0.9-0.1,1.3-0.1c0.4,0,0.8,0,1.2,0c0.2,0,0.4,0,0.6,0c0.2,0,0.4,0,0.5,0.1l0.2,0.1l0.2,0.1c0.1,0,0.2,0.1,0.3,0.2 c0.3,0.4,0.6,0.9,0.8,1.3C386,175.1,386.1,175.6,386.1,176z M414.8,168.9v7.7h-18.7c0.5-0.3,0.9-0.6,1.2-1c0.3-0.4,0.6-0.8,0.8-1.3 c0.1-0.2,0.2-0.4,0.3-0.6l0.3-0.6c0.2-0.4,0.3-0.8,0.5-1.2c0.3-0.8,0.6-1.6,0.9-2.3c0.3-0.8,0.7-1.5,1.1-2.2 c0.2-0.3,0.5-0.7,0.7-0.9c0.3-0.3,0.5-0.6,0.8-0.8c0.1-0.1,0.3-0.2,0.5-0.3c0.2-0.1,0.3-0.2,0.5-0.3c0.3-0.2,0.7-0.2,1.1-0.3l0.1,0 l0,0c0.2,0,0.4-0.1,0.6-0.1c0.2,0,0.4,0,0.6,0c0.2,0,0.4,0,0.6,0.1c0.2,0.1,0.4,0.1,0.6,0.2c0.4,0.2,0.8,0.4,1.2,0.6 c0.4,0.2,0.8,0.5,1.2,0.7c0.8,0.5,1.6,1.1,2.5,1.6c0.2,0.1,0.5,0.2,0.7,0.4c0.2,0.1,0.5,0.2,0.8,0.3c0.3,0.1,0.6,0.2,0.8,0.2 C414.5,168.9,414.7,168.9,414.8,168.9z M351.9,100.4c0.5,1.1,1.2,2.5,1.7,3.9l-5.6-0.2C349.6,102.9,351,101.4,351.9,100.4z M854,246.7l-1.9,0l-350.7-9l-352.6,9.1l-19.1-70l19.1-70l205.4,5.8c0,0.1-0.1,0.2-0.1,0.3c-0.6,1.9-1.6,4.7-2.8,9.8 c-0.3,1.1-0.1,2.1,0.5,3.1c1.5,2.5,5.5,3.8,7.2,4.3l0.1,3.7c0,2,1.8,2.9,3.3,3.6c0.9,0.5,1.8,0.9,2.4,1.6h-11.1v3.2 c7.7,0,9.3,8.9,9.6,12.2l-0.9-0.2l-1-0.4c-0.7-0.3-1.4-0.6-2.1-0.9l-1.1-0.4l-1.1-0.4c-0.4-0.1-0.8-0.2-1.2-0.3 c-0.4,0-0.9-0.1-1.3-0.1l-2.4,0.1c-0.4,0-0.8,0.1-1.2,0.1l-1.3,0.2l-0.6,0.1l-0.6,0.1l-1.2,0.3c-0.4,0.1-0.8,0.2-1.2,0.4l-1.1,0.4 c-1.4,0.2-2.8,0.2-4.4,0.3c-0.4,0-0.8,0.1-1.2,0.1c-0.4,0.1-0.8,0.2-1.2,0.3c-0.4,0.1-0.8,0.3-1.2,0.5c-0.4,0.2-0.7,0.4-1,0.6 c-0.2,0.1-0.4,0.2-0.5,0.3c-0.2,0.1-0.4,0.3-0.6,0.4c-0.4,0.3-0.6,0.7-0.8,1c-0.2,0.4-0.3,0.7-0.4,1.1c-0.1,0.4-0.2,0.7-0.2,1 c-0.1,0.7-0.3,1.3-0.4,2c-0.2,0.6-0.4,1.2-0.7,1.8c-0.2,0.2-0.3,0.4-0.5,0.6c-0.2,0.2-0.4,0.4-0.6,0.6c-0.4,0.4-0.9,0.7-1.4,1 l-1.6,1c-0.5,0.3-1.1,0.7-1.6,1.2c-0.1,0.1-0.2,0.2-0.4,0.4c-0.1,0.1-0.2,0.3-0.3,0.4c-0.2,0.3-0.3,0.5-0.4,0.8 c-0.1,0.1-0.1,0.1-0.2,0.2c-0.1,0.1-0.2,0.1-0.2,0.2c-0.2,0.1-0.4,0.2-0.8,0.3l-0.9,0.3c-0.3,0.1-0.6,0.2-0.9,0.3 c-0.6,0.2-1.2,0.5-1.8,0.8l-0.9,0.3l-0.9,0.5l-0.8,0.5l-0.8,0.6c-0.5,0.4-1,0.8-1.5,1.1c-0.2,0.2-0.5,0.3-0.8,0.5 c-0.3,0.1-0.5,0.2-0.8,0.4l-0.1,0.1l0,0c-0.3,0.2-0.6,0.4-0.9,0.6c-0.3,0.3-0.6,0.5-0.8,0.9c-0.1,0.2-0.2,0.3-0.3,0.5 c-0.1,0.2-0.1,0.3-0.1,0.5c0,0.2-0.1,0.3-0.1,0.4c0,0.1-0.1,0.3-0.1,0.4c-0.1,0.2-0.3,0.4-0.5,0.7c-0.1,0.1-0.2,0.2-0.3,0.3 c-0.1,0.1-0.2,0.2-0.4,0.3c-0.2,0.2-0.5,0.3-0.8,0.5c-0.3,0.1-0.6,0.3-0.9,0.4c-1.2,0.5-2.6,0.8-3.9,1.1c-1.3,0.3-2.7,0.7-4,1.1 l-1.1,0.2c-0.4,0.1-0.7,0.1-1.1,0.1c-0.4,0.1-0.7,0-1.1,0c-0.4,0-0.7-0.1-1-0.2c-1.4-0.3-2.7-0.9-4-1.5l-1-0.4l-1-0.5l-1.9-0.9 l-3.8-1.9l-0.4-0.3c-0.2-0.1-0.4-0.2-0.6-0.3c-0.1,0-0.2-0.1-0.3-0.1v-20c0.9-1.4,2-2.5,3.3-3.8c7-7,16.3-10.5,25.7-10.5 c9.3,0,18.6,3.5,25.7,10.5h2.2v-17h-3.2c0,0-1.2,9.6-9.5,6.3c-4.8-1.9-10.1-3-15.2-3c-10.1,0-20.2,3.9-27.9,11.6 c-5.5,5.5-9.1,12.2-10.6,19.3c-0.1-0.2-0.2-0.4-0.3-0.7c-0.1-0.2-0.1-0.3-0.2-0.5c-0.1-0.1-0.2-0.3-0.3-0.4 c-0.1-0.1-0.3-0.3-0.4-0.4c-0.1-0.1-0.3-0.2-0.5-0.2c-0.5-0.5-0.8-1-1.2-1.6l-1.1-1.8c-0.4-0.6-0.8-1.2-1.3-1.7 c-0.1-0.1-0.3-0.3-0.4-0.4c-0.2-0.1-0.3-0.3-0.5-0.3c-0.2-0.1-0.4-0.2-0.6-0.3c-0.2-0.1-0.5-0.1-0.7-0.1l-0.2,0l-0.1,0.1 c-0.2,0.2-0.3,0.4-0.5,0.6c-0.1,0.2-0.3,0.4-0.4,0.6c-0.2,0.4-0.4,0.9-0.6,1.3c-0.3,0.9-0.5,1.8-0.7,2.7c-0.2,0.9-0.3,1.8-0.5,2.7 c-0.1,0.4-0.2,0.9-0.4,1.3c-0.1,0.2-0.2,0.4-0.3,0.6c-0.1,0.2-0.3,0.3-0.4,0.5l0,0l0,0l-1,1l-1.1,0.8l-1.2,0.7 c-0.2,0.1-0.4,0.2-0.6,0.3v-19.6c0-2.1,1.2-13,9.7-13v-3.2h-29.9v3.2c8.7,0,9.7,11.2,9.7,13v21.6c-0.1,0-0.2,0-0.3,0l-0.6-0.1 c-0.4,0-0.8-0.1-1.2-0.2c-0.4-0.1-0.8-0.2-1.2-0.3l-0.6-0.2c-0.2-0.1-0.4-0.1-0.6-0.2l-1.1-0.5l0,0l0,0c-0.4-0.2-0.8-0.3-1.2-0.5 c-0.4-0.2-0.8-0.4-1.2-0.6c-0.7-0.5-1.4-1-2.2-1.5c-0.4-0.3-0.7-0.5-1.2-0.7c-0.4-0.2-0.9-0.4-1.3-0.5c-0.2-0.1-0.5-0.1-0.7-0.1 c-0.2,0-0.5,0-0.7,0c-0.3,0-0.5,0-0.7,0.1c-0.2,0-0.5,0.1-0.7,0.2c-0.5,0.1-1,0.3-1.4,0.5c-0.2,0.1-0.5,0.1-0.7,0.3 c-0.2,0.1-0.4,0.3-0.6,0.4c-0.4,0.3-0.7,0.7-0.9,1.1c-0.2,0.4-0.4,0.8-0.6,1.2l-1,2.5c-0.2,0.4-0.3,0.8-0.5,1.2 c-0.2,0.4-0.4,0.8-0.7,1.1c-0.3,0.3-0.5,0.6-0.9,0.8c-0.3,0.2-0.6,0.5-1,0.7c-0.7,0.4-1.4,0.8-2.2,1.2c-0.8,0.4-1.5,0.7-2.3,1.1 c-0.4,0.2-0.7,0.4-1.1,0.6l-1,0.7c-0.3,0.2-0.7,0.5-1,0.8c-0.3,0.3-0.7,0.5-1,0.8l-1.9,1.6c-0.6,0.5-1.3,1-2,1.5 c-0.3,0.3-0.7,0.4-1,0.7c-0.3,0.2-0.7,0.4-1.1,0.5c-0.8-0.1-1.4-0.7-1.8-1.4c-0.4-0.7-0.6-1.4-0.8-2.2c-0.4-1.5-0.7-3.1-1.3-4.6 c-0.3-0.7-0.7-1.4-1.1-2.1l-1.1-2.1l-1.1-2.1c-0.4-0.7-0.7-1.4-1.1-2.1c-0.4-0.7-1-1.2-1.7-1.8c-0.6-0.5-1.3-1-2-1.5 c-1.4-0.9-2.8-1.8-4.4-2.5c-0.1-0.1-0.3-0.1-0.4-0.2v-12.9c0,0,0-1.9,0.6-4.3c0.1-0.4,0.2-0.8,0.3-1.2c0.1-0.4,0.3-0.8,0.4-1.3 c1.2-3.4,3.7-6.7,8.4-6.7v-3.2h0v0h-28.4v0h0v3.2c0.3,0,0.5,0,0.8,0c1.8,0.2,3.2,0.8,4.4,1.8c1,0.8,1.8,1.9,2.4,3 c0.1,0.2,0.2,0.4,0.3,0.6c0.2,0.4,0.3,0.8,0.5,1.1c0.1,0.2,0.1,0.4,0.2,0.6c0.3,0.8,0.5,1.5,0.6,2.2c0.1,0.4,0.1,0.7,0.2,1 s0.1,0.6,0.1,0.9c0.1,0.9,0.1,1.5,0.1,1.9v13.1c-0.3,0.2-0.6,0.3-0.8,0.5l-0.9,0.5c-0.3,0.2-0.7,0.3-1,0.5c-0.3,0.2-0.7,0.3-1,0.4 c-0.3,0.1-0.7,0.2-1,0.3c-0.4,0.1-0.7,0.2-1.1,0.2c-0.4,0-0.7,0.1-1.1,0.1c-0.7,0.1-1.4,0.1-2.2,0.1c0.7,0,1.4,0,2.2-0.1 c0.4,0,0.7-0.1,1.1-0.1c0.4-0.1,0.7-0.1,1.1-0.2c0.4-0.1,0.7-0.2,1.1-0.3c0.3-0.1,0.7-0.3,1-0.4c0.3-0.2,0.7-0.3,1-0.5l0.9-0.5l0,0 c0.3-0.2,0.5-0.3,0.8-0.5v32.8c0,0,0,0.8-0.2,2.1c0,0.3-0.1,0.7-0.2,1c-0.3,2-1.1,4.6-2.5,6.7c-0.3,0.4-0.5,0.7-0.9,1.1 c-0.8,0.9-1.7,1.6-2.9,2c-0.9,0.4-1.9,0.6-3.1,0.6v3.2h0h55.9h0v-12.8h0h-3.2c0,2.7-1.1,4.6-2.6,6c-1.4,1.2-3.1,2.1-4.8,2.6 c-0.2,0.1-0.4,0.1-0.6,0.2c-0.4,0.1-0.8,0.2-1.2,0.3c-0.4,0.1-0.8,0.2-1.1,0.2c-0.4,0.1-0.7,0.1-1,0.2c-1.3,0.2-2.1,0.2-2.1,0.2 h-20.6v-46.1c0.1,0.1,0.3,0.1,0.4,0.1c1.5,0.7,3,1.6,4.3,2.5c0.7,0.5,1.3,1,1.9,1.5c0.6,0.5,1.2,1.1,1.6,1.8 c0.4,0.7,0.7,1.4,1.1,2.1l1.1,2.1l1.1,2.1c0.4,0.7,0.8,1.4,1.1,2.1c0.6,1.4,0.9,3,1.3,4.5c0.2,0.8,0.4,1.5,0.8,2.2 c0.4,0.7,1,1.4,2,1.5l0,0l0,0c0.4-0.2,0.8-0.3,1.2-0.6c0.4-0.2,0.7-0.4,1.1-0.7c0.7-0.5,1.3-1,2-1.5l1.9-1.6c0.3-0.3,0.6-0.5,1-0.8 c0.3-0.3,0.6-0.5,1-0.8l1-0.7c0.3-0.2,0.7-0.4,1.1-0.6c0.7-0.4,1.5-0.7,2.3-1.1c0.8-0.4,1.5-0.8,2.3-1.2c0.4-0.2,0.7-0.5,1-0.7 c0.3-0.3,0.6-0.6,0.9-0.9l0,0l0,0c1.1-1.5,1.6-3.3,2.3-4.9c0.2-0.4,0.4-0.8,0.6-1.2c0.2-0.4,0.5-0.7,0.8-1c0.2-0.1,0.3-0.3,0.6-0.4 c0.2-0.1,0.4-0.2,0.6-0.3c0.4-0.2,0.9-0.3,1.4-0.4c0.2-0.1,0.5-0.1,0.7-0.1c0.2-0.1,0.5-0.1,0.7-0.1c0.2,0,0.5,0,0.7,0 c0.2,0,0.4,0,0.7,0.1c0.4,0.1,0.8,0.3,1.2,0.5c0.4,0.2,0.8,0.4,1.1,0.7c0.7,0.5,1.4,1,2.2,1.5c0.4,0.2,0.8,0.5,1.2,0.7 c0.4,0.2,0.8,0.4,1.3,0.5l1.1,0.5c0.2,0.1,0.4,0.2,0.6,0.2l0.6,0.2c0.4,0.1,0.8,0.3,1.2,0.4c0.4,0.1,0.8,0.2,1.3,0.2l0.7,0.1 c0.1,0,0.3,0,0.4,0v24.4c0,1.8-0.9,13-9.7,13v3.2h29.9v-3.2c-7.3,0-9.3-7.9-9.6-11.5c0.3-0.1,0.6-0.1,0.9-0.2 c0.4-0.1,0.9-0.3,1.3-0.5c0.4-0.2,0.8-0.4,1-0.9c0.2-0.4,0-0.8-0.1-1.2c-0.1-0.4-0.2-0.7-0.2-1.1c0-0.4,0.1-0.8,0.4-1.1 c0.2-0.2,0.3-0.3,0.5-0.4c0.2-0.1,0.4-0.2,0.6-0.3c0.2-0.1,0.4-0.2,0.6-0.2c0.2-0.1,0.4-0.1,0.6-0.1c0.2,0,0.4,0,0.6,0 c0.2,0.1,0.4,0.1,0.6,0.2c0.4,0.1,0.7,0.4,1,0.6c0.3,0.3,0.6,0.5,0.8,0.8c0.5,0.6,1,1.2,1.5,1.9l0.1,0.1l0.1-0.1 c0.5-0.4,1.1-0.7,1.7-1l1.8-0.9c0.6-0.3,1.2-0.6,1.8-1c0.3-0.2,0.6-0.4,0.8-0.6c0.1-0.1,0.3-0.3,0.3-0.4l0.1-0.1l0,0c0-0.1,0,0,0,0 l0-0.1l0.1-0.2c0.2-0.6,0.1-1.3-0.2-1.8c-0.2-0.6-0.6-1.1-0.9-1.6c-0.3-0.5-0.6-1-0.8-1.5c-0.1-0.3-0.1-0.5-0.2-0.8 c0-0.1,0-0.3,0-0.4l0-0.1c0.2,0.1,0.4,0.1,0.7,0.1c0.2,0,0.3,0,0.5,0c1.8,5.9,5.1,11.4,9.7,16.1c15.5,15.3,40.4,15.3,55.7,0v-13.1 c0-2.2,1.2-13.1,9.7-13.1v-3.2h-22.5v3.2c8.3,0,9.7,10.3,9.7,12.8v12.2c-14.2,13-36.6,12.8-50.4-0.9c-1.3-1.2-2.3-2.4-3.3-3.7 v-10.5c0,0,0,0,0,0c0.3,0.1,0.8,0.2,1,0.2c0.1,0,0.1,0,0.3,0l0.3-0.1l0.5-0.1l0.9-0.3l0.9-0.3c0.3-0.1,0.6-0.2,0.9-0.3l0.3-0.1 l0-0.2c0.2-0.8,0.3-1.5,0.5-2.3c0.1-0.4,0.2-0.8,0.3-1.1c0.1-0.2,0.1-0.4,0.2-0.5c0.1-0.2,0.2-0.3,0.3-0.4c0.1-0.1,0.2-0.3,0.4-0.3 c0.1-0.1,0.3-0.2,0.5-0.2c0.2-0.1,0.4-0.1,0.6-0.1c0.2,0,0.4-0.1,0.6-0.1c0.4,0,0.8,0,1.3,0c0.4,0,2.6-0.1,2.9,0 c0.4,0.1,0.8,0.2,1.2,0.2c0.4,0,0.8,0.1,1.2,0c0.4,0,0.8,0,1.2-0.1l1.2-0.3l0,0l0,0c1.3-0.4,2.6-0.8,4-1.1c1.3-0.3,2.7-0.6,4.1-1.2 c0.3-0.1,0.7-0.3,1-0.4c0.3-0.2,0.6-0.3,1-0.6c0.2-0.1,0.3-0.2,0.5-0.3c0.1-0.1,0.2-0.2,0.4-0.4c0.2-0.3,0.5-0.6,0.7-0.9 c0.1-0.2,0.2-0.3,0.2-0.5c0.1-0.2,0.1-0.3,0.1-0.5c0-0.2,0.1-0.3,0.1-0.4c0-0.1,0.1-0.2,0.2-0.3c0.1-0.2,0.3-0.4,0.5-0.6l0.8-0.5 c0.3-0.1,0.6-0.3,0.9-0.4c0.3-0.2,0.6-0.3,0.9-0.5c0.5-0.4,1.1-0.8,1.6-1.1l0.7-0.5l0.8-0.5l0.8-0.4l0.8-0.3l0.1,0l0,0 c0.6-0.2,1.1-0.5,1.7-0.7c0.3-0.1,0.6-0.2,0.9-0.3l0.9-0.3c0.3-0.1,0.7-0.2,1-0.4c0.2-0.1,0.4-0.2,0.5-0.4c0.1-0.2,0.3-0.3,0.4-0.5 c0.2-0.3,0.3-0.5,0.4-0.8c0-0.1,0.1-0.2,0.2-0.3c0.1-0.1,0.2-0.2,0.3-0.3c0.4-0.4,0.9-0.7,1.4-1l1.6-1c0.5-0.3,1.1-0.7,1.6-1.1 c0.2-0.2,0.5-0.4,0.7-0.7c0.2-0.2,0.4-0.5,0.6-0.8l0,0l0,0c0.3-0.7,0.6-1.4,0.8-2.1c0.2-0.7,0.3-1.4,0.5-2c0.1-0.7,0.3-1.3,0.6-1.9 c0.1-0.3,0.3-0.5,0.5-0.7c0.1-0.1,0.2-0.2,0.3-0.3c0.1-0.1,0.3-0.1,0.4-0.2l0.1-0.1l0,0c0.3-0.2,0.5-0.4,0.8-0.5 c0.3-0.1,0.6-0.3,0.9-0.4c0.3-0.1,0.7-0.2,1-0.2c0.3-0.1,0.7-0.1,1.1-0.1c1.4-0.1,2.9,0,4.5-0.3l0.1,0l0.1,0l1.1-0.4 c0.4-0.1,0.7-0.3,1.1-0.3l1.1-0.3l0.6-0.1l0.6-0.1l1.1-0.2c0.4,0,0.8-0.1,1.2-0.1l2.4-0.1c0.3,0,0.7,0,1,0.1 c0.3,0.1,0.7,0.1,1.1,0.2l1,0.3l1,0.4c0.7,0.3,1.4,0.6,2.1,0.9l1.1,0.4c0.4,0.1,0.8,0.2,1.2,0.3l0.1,0l0.2,0l0,0v38.8 c-0.5,0.3-1,0.5-1.6,0.8c-0.6,0.3-1.2,0.7-1.8,1.1l-0.2,0.2l-0.2,0.2c-0.1,0.2-0.1,0.3-0.2,0.4c-0.1,0.3-0.2,0.7-0.2,1 c0,0.6,0.3,1.2,0.7,1.7c0.4,0.5,0.8,0.9,1.2,1.4c0.4,0.4,0.8,0.9,1.1,1.3c0.1,0.2,0.2,0.5,0.3,0.8c0,0.3,0.1,0.6,0,0.9 c0,1.1-0.7,2.4-2,2.8c-0.6,0.2-1.3,0.2-1.9,0c-0.6-0.2-1.1-0.5-1.6-0.9l-0.1-0.1l-0.1,0.1l-0.6,0.8c-0.2,0.2-0.5,0.4-0.7,0.7 c-0.3,0.2-0.6,0.4-0.8,0.5c-0.3,0.1-0.6,0.3-0.9,0.4c-0.7,0.2-1.3,0.2-2,0.3l-2.1,0c-0.7,0-1.4,0-2.1,0.2c-0.7,0.1-1.3,0.5-1.9,0.9 c-0.5,0.5-1,1-1.2,1.6c-0.2,0.6-0.2,1.2-0.1,1.8c0.1,0.6,0.2,1.2,0.3,1.8c0,0.6-0.1,1.2-0.5,1.7c-0.4,0.6-0.9,0.9-1.5,1.3 c-0.6,0.4-1.2,0.7-1.8,1c-1.3,0.5-2.6,1-4,1.3c-1.3,0.4-2.7,0.7-4,1.1c1.3-0.4,2.7-0.7,4-1.1c1.3-0.4,2.7-0.8,4-1.3 c0.6-0.3,1.3-0.6,1.9-0.9c0.6-0.4,1.2-0.8,1.5-1.3c0.4-0.5,0.5-1.2,0.5-1.8c0-0.6-0.2-1.2-0.3-1.8c-0.1-0.6-0.1-1.2,0.1-1.8 c0.1-0.3,0.2-0.6,0.5-0.8c0.2-0.3,0.5-0.5,0.7-0.7c0.5-0.4,1.1-0.7,1.8-0.9c0.7-0.2,1.4-0.2,2-0.2l2.1,0c0.7,0,1.4,0,2.1-0.3 c0.4-0.1,0.7-0.2,1-0.4c0.3-0.2,0.6-0.4,0.9-0.6c0.3-0.2,0.5-0.5,0.8-0.7l0.5-0.6c0.5,0.4,0.9,0.7,1.5,0.9c0.6,0.2,1.4,0.3,2.1,0 c0.7-0.2,1.3-0.7,1.7-1.3c0.4-0.6,0.5-1.2,0.6-1.8c0-0.3,0-0.6,0-0.9c-0.1-0.3-0.2-0.6-0.3-0.9c-0.3-0.5-0.7-1-1.2-1.4 c-0.8-0.9-1.7-1.7-1.8-2.9c0-0.3,0-0.5,0.1-0.8c0.1-0.1,0.1-0.3,0.2-0.4l0.1-0.1l0.2-0.1c0.5-0.4,1.1-0.7,1.7-1 c0.4-0.2,0.9-0.4,1.3-0.7v6.6c0,2.2-1.2,13.1-9.7,13.1v3.2h29.9v-3.2c-9.5,0-9.7-13.5-9.7-13.5v-9.1c0.8,0.3,1.6,0.6,2.4,0.9 c1.2,0.4,2.6,0.8,4.1,0.3c0.4-0.1,0.7-0.3,1-0.5l0.4-0.3c0.2-0.1,0.3-0.3,0.4-0.4c0.2-0.3,0.5-0.5,0.6-0.9c0.2-0.3,0.1-0.7,0.1-1.1 c-0.2-0.7-0.6-1.1-0.9-1.6c-0.4-0.5-0.7-0.9-0.9-1.5c-0.4-1.1-0.8-2.2-0.9-3.3c-0.1-1.1,0-2.3,0.6-3.3c0-0.1,0.1-0.1,0.2-0.2h33.8 v21.3c0,2.1-1.2,13-9.7,13v3.2h18.5l0.1,0.3c0.5,1.3,1,2.5,1,3.9c0,0.3,0,0.7-0.2,1c-0.2,0.3-0.5,0.5-0.9,0.6 c-0.8,0.1-1.5,0-2.3-0.2c0.7,0.2,1.5,0.4,2.3,0.2c0.4-0.1,0.7-0.3,0.9-0.7c0.2-0.3,0.2-0.7,0.2-1c0-0.7-0.1-1.4-0.3-2 c-0.2-0.7-0.4-1.3-0.6-1.9l-0.1-0.2H435v-3.2c-2.1,0-3.7-0.7-5-1.7c0.1,0,0.3,0,0.4,0c0.5,0,0.9,0,1.4,0l0.3,0l0.1-0.2 c0.4-1.7,0.1-3.3,0-4.9c0-0.8-0.1-1.6,0.2-2.3c0.1-0.4,0.2-0.6,0.6-1c0.3-0.2,0.6-0.6,0.9-0.7c0.2-0.1,0.3-0.2,0.5-0.3 c0.2-0.1,0.4-0.2,0.6-0.2c0.4-0.1,0.8-0.1,1.2-0.1c0.2,0,0.4,0,0.6,0.1l0.6,0.2c0.4,0.1,0.8,0.3,1.1,0.5c1.5,0.8,2.7,1.8,4.1,2.8 l0.2,0.2l0.3-0.1l3.7-1.4l1.8-0.8c0.6-0.3,1.2-0.5,1.8-0.8c0.6-0.3,1.1-0.6,1.8-1l0.2-0.2c0.1-0.1,0.2-0.2,0.2-0.2 c0.2-0.2,0.2-0.3,0.3-0.5c0.1-0.2,0.1-0.3,0.2-0.5l0.2-0.4c0.2-0.5,0.4-1.1,0.7-1.6c0.2-0.5,0.5-1.1,0.8-1.6c0.5-1.1,1.1-2.1,1.8-3 c0.2-0.2,0.4-0.4,0.6-0.6c0.2-0.2,0.4-0.4,0.6-0.5c0.1-0.1,0.2-0.1,0.4-0.2l0,0l0,0l0,0l0.1,0l0.2-0.1c0.2-0.1,0.5-0.1,0.8-0.1 c1.1-0.1,2.3,0.2,3.6,0.4c0.6,0.1,1.3,0.2,2.1,0.2c0.2,0,0.4,0,0.6,0c0.2,0,0.4,0,0.6-0.1c0.3,0,0.5-0.1,0.7-0.2 c0.5-0.1,1-0.3,1.2-0.3c0.3,0,0.6-0.1,0.9-0.1c0.3-0.1,0.6-0.2,0.9-0.3c0.2-0.1,0.5-0.2,0.7-0.4c0.3-0.2,0.7-0.4,0.9-0.7l0.4-0.4 c0.1-0.1,0.2-0.3,0.3-0.4c0.2-0.3,0.3-0.5,0.4-0.8c0.1-0.3,0.2-0.5,0.3-0.8c0.1-0.3,0.2-0.5,0.2-0.8c0.1-0.3,0.1-0.5,0.2-0.8 c0.1-0.5,0.2-1,0.3-1.5c0.2-0.7,0.3-1.4,0.5-2v17.6c0,2.5-1.4,12.7-9.7,12.7v3.2h29.9v-3.2c-8.1,0-9.7-9.9-9.7-12.6v-22.4l0.2,0 c0.5,0,0.9,0,1.3-0.1c0.5-0.1,1-0.2,1.5-0.3c0.9-0.3,1.8-0.6,2.7-1c1.6-0.8,3.2-1.7,4.6-2.6l0.5-0.2c0.2-0.1,0.4-0.2,0.6-0.3 c0.4-0.2,0.7-0.5,1.1-0.8c0.7-0.5,1.2-1.1,1.7-1.6c0.3-0.3,0.5-0.5,0.8-0.8c0.1-0.1,0.3-0.2,0.4-0.3c0.1-0.1,0.2-0.2,0.4-0.3 c0.1-0.1,0.2-0.2,0.3-0.2l0.2-0.1l0.1-0.1c0.1-0.1,0.2,0,0.3-0.1c0.1,0,0.2,0,0.2,0l0.7-0.1c0.2-0.1,0.4-0.2,0.7-0.2 c0.2,0,0.5-0.1,0.8,0c0.5,0,1.1,0.1,1.6,0.3c1.1,0.4,2.2,0.9,3.1,1.6l0.6,0.2c0.1,0,0.1,0,0.2,0.1c0.1,0,1,0.5,1.3,0.7l2.1-1.5 c0,0,0,0,0,0l0.2-0.1c0.1-0.1,0.2-0.2,0.3-0.2c0.1,0,0.2-0.1,0.2-0.1c0.1,0,0.2-0.1,0.3-0.2c0.5-0.2,1-0.4,1.6-0.7 c0.3-0.1,0.5-0.3,0.8-0.4c0.3-0.2,0.5-0.3,0.8-0.5c0.2-0.2,0.5-0.4,0.7-0.6l0.6-0.6c0.7-0.8,1.3-1.6,1.9-2.3c0.3-0.4,0.6-0.7,0.9-1 c0.2-0.1,0.3-0.3,0.5-0.4c0.1-0.1,0.1-0.1,0.2-0.1c0.1,0,0.1,0,0.2-0.1l0.5-0.2c0.8-0.6,1.7-1.2,2.7-1.6c0.5-0.2,1-0.3,1.5-0.4 c0.2,0,0.5,0,0.7,0c0.2,0,0.4,0,0.6,0.1l0.7,0c0.1,0,0.1,0,0.2,0c0.1,0,0.2,0,0.2,0l0.1,0l0.2,0.1c0.1,0,0.2,0.1,0.3,0.1 c0.1,0,0.2,0.1,0.4,0.2c0.1,0.1,0.2,0.1,0.4,0.2c0.3,0.2,0.5,0.3,0.8,0.5c0.5,0.4,1.1,0.7,1.7,1.1c0.1,0.1,0.3,0.1,0.5,0.2v37.1 c0,0.5,0,1.2-0.2,2.1c0,0.3-0.1,0.6-0.2,0.9c-0.1,0.5-0.2,1-0.4,1.5c-0.1,0.4-0.2,0.7-0.3,1.1c-0.1,0.4-0.3,0.7-0.4,1.1 c-0.5,1.1-1.1,2.1-1.9,3.1c-0.4,0.5-0.8,0.9-1.3,1.3c-0.3,0.2-0.7,0.5-1,0.7c-1.1,0.6-2.4,1-4,1v3.2h29.9v-3.2 c-8.1,0-9.7-9.9-9.7-12.6v-34.5c0.2,0,0.4,0,0.6-0.1l1,0.1l1.2,0.1l2.3,0.1c0.8,0,1.5,0.1,2.3,0.1c0.4,0,0.7,0.1,1.1,0.1 c0.3,0,0.5,0.1,0.8,0.1c0.1,0.1,0.2,0.1,0.2,0.2c0.1,0.1,0.2,0.2,0.3,0.4c0.1,0.1,0.2,0.3,0.3,0.4c0.1,0.2,0.2,0.3,0.3,0.5 c0.3,0.6,0.6,1.3,0.9,2.1c0.1,0.4,0.3,0.7,0.4,1.1c0.1,0.2,0.1,0.4,0.2,0.6c0.1,0.2,0.2,0.4,0.3,0.6c0.1,0.2,0.2,0.4,0.4,0.6 c0.1,0.2,0.3,0.4,0.5,0.6c0.1,0.1,0.2,0.2,0.3,0.3l0.4,0.3c0.2,0.2,0.6,0.3,0.9,0.4c0.2,0.1,0.4,0.1,0.6,0.2c0.3,0,2.9,0.3,3.4,0.3 c0.2,0,0.4,0,0.5,0c0.2,0,0.4,0,0.5,0c0.7-0.1,1.3-0.2,1.9-0.4c0.5-0.1,1-0.3,1.5-0.4l31.3,42.2h13.6v-3.2c-1.6,0-2.9-0.4-4-1 c-0.4-0.2-0.7-0.4-1-0.7c-0.5-0.4-0.9-0.8-1.3-1.3c-0.8-0.9-1.4-2-1.9-3.1c-0.2-0.4-0.3-0.7-0.4-1.1c-0.1-0.4-0.2-0.7-0.3-1.1 c-0.1-0.5-0.3-1.1-0.4-1.5c-0.1-0.3-0.1-0.6-0.2-0.9c-0.1-0.9-0.2-1.6-0.2-2.1v-15.8c0.1,0,0.2-0.1,0.3-0.1 c0.2-0.1,0.3-0.2,0.5-0.3l0.5-0.3c0.2-0.1,0.3-0.2,0.5-0.3l0.2-0.2c0.1,0.2,0.1,0.3,0.1,0.5c0,0.3,0,0.5-0.1,0.8 c-0.1,0.5-0.2,1-0.4,1.5l-1,3c-0.2,0.5-0.3,1-0.4,1.5c-0.1,0.5-0.2,1-0.1,1.6c0.1,0.3,0.1,0.5,0.3,0.8c0.2,0.2,0.5,0.4,0.9,0.4 c0.7,0,1.4-0.2,2-0.4c-0.6,0.2-1.3,0.4-2,0.4c-0.4,0-0.7-0.2-0.8-0.4c-0.2-0.2-0.2-0.5-0.3-0.7c-0.1-1,0.3-2.1,0.6-3.1l1.1-3 c0.2-0.5,0.3-1,0.4-1.5c0-0.3,0.1-0.5,0.1-0.8c0-0.3,0-0.5-0.2-0.8l-0.1-0.2l-0.2,0.1l-0.5,0.3c-0.2,0.1-0.3,0.2-0.5,0.3l-0.5,0.3 c-0.2,0.1-0.3,0.2-0.5,0.2c0,0-0.1,0-0.1,0v-30.6c0-0.4,0-1.2,0.2-2.3c0.6,0.1,1.3,0.1,2,0.1c0.2,0,0.4,0,0.6,0 c0.2,0,0.4,0,0.7-0.1c0.4-0.1,0.8-0.2,1.2-0.3c0.2,0,0.5-0.1,0.7-0.2c0.2-0.1,0.5-0.2,0.7-0.3c0.2-0.1,0.5-0.2,0.7-0.3 c0.2-0.1,0.4-0.2,0.6-0.3c0.8-0.5,1.4-1,2.1-1.5c0.3-0.2,0.7-0.5,1-0.7c0.3-0.2,0.7-0.4,1-0.6c0.2-0.1,0.4-0.2,0.5-0.2 c0.2-0.1,0.4-0.1,0.5-0.2c0.2-0.1,0.4,0,0.5-0.1c0.2,0,0.3,0,0.5,0l0,0l0.1,0c0.3,0,0.7,0.1,1,0.2c0.2,0,0.3,0.1,0.5,0.2 c0.2,0.1,0.3,0.1,0.5,0.2c0.2,0.1,0.3,0.2,0.4,0.2s0.3,0.2,0.4,0.3c0.3,0.2,0.5,0.4,0.7,0.7c0.2,0.2,0.4,0.5,0.6,0.7 c0.2,0.3,0.4,0.5,0.6,0.8c0.4,0.5,0.7,1.1,1,1.7c0.2,0.3,0.3,0.6,0.5,0.9l0.3,0.4c0.1,0.1,0.1,0.2,0.2,0.3c0,0.1,0.1,0.1,0.1,0.2 c0.1,0.1,0.2,0.3,0.4,0.4s0.3,0.3,0.5,0.4c0.3,0.3,0.8,0.6,1.3,0.7c0.3,0.1,0.5,0.1,0.8,0.2c0.3,0,0.5,0.1,0.7,0.1 c0.2,0,0.5,0,0.7,0s0.5,0,0.7,0c0.7,0,1.3-0.1,2-0.2v45c0,1.8-0.9,13-9.7,13v3.2h29.9h0v-3.2c-2,0-3.6-0.6-4.9-1.6 c-3.9-2.9-4.7-9-4.7-11v-34.5c0.1,0,0.1,0,0.2,0c0.2,0,0.3,0,0.5,0c0.4,0,0.7,0,1.1-0.1c0.2,0,0.5-0.1,0.7-0.2c0.1,0,0.1,0,0.2-0.1 c0.4-0.1,0.8-0.3,1.2-0.4c1.1-0.5,2.1-1,3.2-1.3c0.6-0.2,1.1-0.4,1.6-0.6c0.1,0,0.3-0.1,0.4-0.1s0.2,0,0.4,0c0,0,0.1,0,0.1,0 c0.2,0.1,0.4,0.1,0.7,0.2c0.6,0.2,1.2,0.5,1.8,0.8c0.5,0.2,1,0.4,1.5,0.5c0.6,0.2,1.2,0.3,1.8,0.5c0.6,0.2,1.2,0.3,1.7,0.5 c0.3,0.1,0.6,0.2,0.8,0.3c0.3,0.1,0.5,0.2,0.8,0.3l0.1,0.1l0,0l0.1,0.1c0.1,0.1,0.1,0.2,0.2,0.3c0.1,0.2,0.2,0.4,0.2,0.6 c0,0.4-0.2,0.8-0.4,1.2s-0.6,0.8-1,1.1c-0.3,0.3-0.5,0.6-0.8,0.9c-0.1,0.1-0.1,0.2-0.2,0.3c-0.1,0.2-0.2,0.4-0.2,0.6 c0,0,0,0.1,0,0.1c0,0,0,0,0,0l0,0c0,0,0,0,0,0c0,0.1,0,0.3,0,0.4c0,0.1,0,0.2,0,0.2c0.1,0.4,0.2,0.7,0.4,1c0.1,0.1,0.2,0.2,0.3,0.3 c0.4,0.4,1,0.7,1.6,0.8c0.2,0,0.3,0,0.5,0c0.5,0,1-0.1,1.4-0.3c0.1-0.1,0.3-0.1,0.4-0.2c0.3-0.2,0.6-0.4,0.9-0.6l0.5,0.4 c0.2,0.2,0.5,0.3,0.8,0.5c0.3,0.1,0.6,0.2,0.9,0.3c0.3,0.1,0.6,0.2,1,0.2c0.3,0,0.6,0.1,1,0c0.3,0,0.6,0,1-0.1l0.2,0v25.3 c0,0.5,0,1.2-0.2,2.1c0,0.3-0.1,0.6-0.2,0.9c-0.1,0.5-0.2,1-0.4,1.5c-0.1,0.4-0.2,0.7-0.3,1.1c-0.1,0.4-0.3,0.7-0.4,1.1 c-0.5,1.1-1.1,2.1-1.9,3.1c-0.4,0.5-0.8,0.9-1.3,1.3c-0.3,0.2-0.7,0.5-1,0.7c-1.1,0.6-2.4,1-4,1v3.2h29.9v-3.2 c-8.1,0-9.7-9.9-9.7-12.6v-18.6c0,0,0,0,0,0c1.2,0.3,2.5,0.5,3.7,0.6c1.3,0.2,2.5,0.3,3.8,0.4c0,0,0,0,0,0c0,0,0,0,0,0 c-1.3-0.2-2.5-0.3-3.8-0.4c-0.4-0.1-0.8-0.1-1.3-0.2c-0.8-0.1-1.7-0.3-2.5-0.5c0,0,0,0-0.1,0V144l54.6,73.6h13.6v-3.2 c-1.6,0-2.9-0.4-4-1c-0.4-0.2-0.7-0.4-1-0.7c-0.5-0.4-0.9-0.8-1.3-1.3c-0.8-0.9-1.4-2-1.9-3.1c-0.2-0.4-0.3-0.7-0.4-1.1 c-0.1-0.4-0.2-0.7-0.3-1.1c-0.1-0.5-0.3-1.1-0.4-1.5c-0.1-0.3-0.1-0.6-0.2-0.9c-0.1-0.9-0.2-1.6-0.2-2.1v-41.9 c0.1,0,0.1,0.1,0.2,0.1c0.3,0.2,0.5,0.3,0.8,0.4c0.6,0.2,1.1,0.4,1.7,0.6l1.7,0.5c0.6,0.2,1.2,0.3,1.7,0.6l0.1,0.1l0.1-0.1 c0.4-0.5,0.8-1.1,1.2-1.6c0.2-0.3,0.4-0.5,0.7-0.7c0.3-0.2,0.5-0.4,0.9-0.6c0.2-0.1,0.4-0.1,0.5-0.2c0.2,0,0.4-0.1,0.6-0.1 c0.2,0,0.4,0,0.6,0c0.2,0,0.4,0.1,0.6,0.1c0.2,0,0.4,0.1,0.5,0.2c0.2,0.1,0.4,0.1,0.5,0.2c0.3,0.2,0.5,0.5,0.5,0.8 c0,0.3-0.1,0.6-0.1,0.9c-0.1,0.3-0.2,0.6,0,0.9c0.2,0.3,0.6,0.4,1,0.6c0.4,0.1,0.8,0.2,1.2,0.2c0.8,0.1,1.7,0.1,2.5,0.1 c0.1,0,0.1,0,0.2,0c-2.3,5.5-3.3,11.3-3,17.2c0.1,1.3,0.2,2.5,0.4,3.8c0.1,0.6,0.2,1.2,0.3,1.9c0.2,1.2,0.5,2.5,0.9,3.7 c0.2,0.6,0.4,1.2,0.6,1.8c0.4,1.2,0.9,2.4,1.4,3.6c0.3,0.6,0.6,1.2,0.9,1.7c1.8,3.4,4.1,6.7,7,9.6c2.9,2.9,6.1,5.2,9.6,7 c5.7,3,12,4.5,18.3,4.5c6.9,0,13.9-1.8,20-5.4c2.8-1.6,5.4-3.7,7.8-6.1v-13.1c0-1,0.2-3.6,1.2-6.3c0.3-0.8,0.6-1.5,1-2.2 c0.3-0.5,0.7-1.1,1-1.6c1.4-1.8,3.5-3.1,6.4-3.1v-3.2h0H806h0v3.2c3.1,0,5.3,1.4,6.7,3.4c0.4,0.5,0.7,1,1,1.5 c0.2,0.4,0.4,0.7,0.5,1.1c0.1,0.2,0.2,0.4,0.2,0.5c0.2,0.6,0.4,1.1,0.5,1.6c0.5,2,0.7,3.8,0.7,4.6v12.2c-0.4,0.4-0.9,0.8-1.3,1.2 c-0.1,0.1-0.3,0.2-0.4,0.4c-0.3,0.3-0.6,0.5-0.9,0.7c-0.2,0.1-0.4,0.3-0.5,0.4c-0.3,0.2-0.6,0.4-0.9,0.6c-0.2,0.1-0.4,0.3-0.6,0.4 c-0.3,0.2-0.6,0.4-0.9,0.6c-0.2,0.1-0.4,0.2-0.6,0.4c-0.3,0.2-0.6,0.3-0.9,0.5c-0.2,0.1-0.4,0.2-0.7,0.3c-0.3,0.2-0.6,0.3-0.9,0.4 c-0.2,0.1-0.5,0.2-0.7,0.3c-0.3,0.1-0.6,0.3-0.9,0.4c-0.2,0.1-0.5,0.2-0.7,0.3c-0.3,0.1-0.6,0.2-0.9,0.3c-0.2,0.1-0.5,0.2-0.7,0.3 c-0.3,0.1-0.6,0.2-0.9,0.3c-0.2,0.1-0.5,0.2-0.7,0.2c-0.3,0.1-0.6,0.2-0.9,0.3c-0.3,0.1-0.5,0.1-0.8,0.2c-0.3,0.1-0.6,0.1-0.9,0.2 c-0.3,0.1-0.5,0.1-0.8,0.2c-0.3,0.1-0.6,0.1-0.9,0.2c-0.3,0-0.5,0.1-0.8,0.1c-0.3,0-0.6,0.1-0.9,0.1c-0.3,0-0.5,0.1-0.8,0.1 c-0.3,0-0.6,0.1-0.9,0.1c-0.3,0-0.5,0-0.8,0.1c-0.3,0-0.6,0-0.9,0c-0.3,0-0.5,0-0.8,0c-0.3,0-0.6,0-0.9,0c-0.3,0-0.6,0-0.9,0 c-0.3,0-0.5,0-0.8,0c-0.3,0-0.6,0-0.9-0.1c-0.3,0-0.5,0-0.8-0.1c-0.3,0-0.6-0.1-0.9-0.1c-0.3,0-0.5-0.1-0.8-0.1 c-0.3,0-0.6-0.1-0.9-0.2c-0.3,0-0.5-0.1-0.8-0.1c-0.3-0.1-0.6-0.1-0.9-0.2c-0.3-0.1-0.5-0.1-0.8-0.2c-0.3-0.1-0.6-0.2-0.9-0.2 c-0.3-0.1-0.5-0.1-0.8-0.2c-0.3-0.1-0.6-0.2-0.9-0.3c-0.3-0.1-0.5-0.2-0.8-0.2c-0.3-0.1-0.6-0.2-0.9-0.3c-0.2-0.1-0.5-0.2-0.7-0.3 c-0.3-0.1-0.6-0.3-0.9-0.4c-0.2-0.1-0.5-0.2-0.7-0.3c-0.3-0.1-0.6-0.3-0.9-0.4c-0.2-0.1-0.5-0.2-0.7-0.3c-0.3-0.2-0.6-0.3-0.9-0.5 c-0.2-0.1-0.4-0.2-0.7-0.4c-0.3-0.2-0.6-0.4-0.9-0.5c-0.2-0.1-0.4-0.3-0.6-0.4c-0.3-0.2-0.6-0.4-0.9-0.6c-0.2-0.1-0.4-0.3-0.6-0.4 c-0.3-0.2-0.6-0.4-0.9-0.7c-0.2-0.1-0.4-0.3-0.5-0.4c-0.3-0.3-0.6-0.5-0.9-0.8c-0.1-0.1-0.3-0.3-0.4-0.4c-0.5-0.4-0.9-0.8-1.3-1.3 c-0.3-0.3-0.6-0.6-0.9-0.9c-0.6-0.6-1.1-1.2-1.6-1.8c-0.3-0.3-0.5-0.6-0.7-0.9v-43.8c0.2-0.3,0.5-0.7,0.7-1c0.5-0.6,1-1.2,1.6-1.9 c0.3-0.3,0.6-0.6,0.9-0.9c0.9-0.9,1.8-1.7,2.7-2.5c3.8-3.1,8-5.3,12.5-6.6c0.6-0.2,1.3-0.4,2-0.5c0.6,0.2,1.3,0.5,1.9,0.6 c0.7,0.2,1.5,0.4,2.2,0.6c0.4,0.1,0.7,0.2,1,0.4l1,0.5c0.3,0.1,0.6,0.3,1,0.5c0.3,0.2,0.6,0.3,1,0.5l1.9,1c0.6,0.3,1.3,0.7,1.9,1 c0.3,0.2,0.7,0.3,1,0.4c0.3,0.1,0.7,0.2,1.1,0.3l0,0l0,0c0.9-0.2,1.4-0.8,1.7-1.4c0.3-0.6,0.4-1.2,0.6-1.8c0.2-0.9,0.3-1.8,0.5-2.6 c6.3,1.5,12.3,4.6,17.2,9.5h2.2v-17h-3.2c0,0,0,0,0,0.1c0,0,0,0,0,0c0,0,0,0.1,0,0.2c0,0,0,0,0,0.1c0,0.1,0,0.2-0.1,0.3 c0,0,0,0,0,0c0,0.1-0.1,0.2-0.1,0.4c0,0,0,0,0,0.1c0,0.1-0.1,0.3-0.1,0.4c0,0,0,0.1,0,0.1c0,0.2-0.1,0.3-0.2,0.5c0,0,0,0.1,0,0.1 c-0.1,0.2-0.1,0.4-0.2,0.5c0,0,0,0,0,0c-0.1,0.2-0.2,0.4-0.3,0.6c0,0,0,0.1-0.1,0.1c-0.1,0.2-0.2,0.4-0.3,0.6c0,0,0,0.1-0.1,0.1 c-0.1,0.2-0.2,0.4-0.4,0.6c0,0,0,0,0,0.1c-0.1,0.2-0.3,0.3-0.4,0.5c0,0,0,0.1-0.1,0.1c-0.2,0.2-0.3,0.3-0.5,0.5 c0,0-0.1,0.1-0.1,0.1c-0.2,0.1-0.4,0.3-0.6,0.4c0,0-0.1,0-0.1,0.1c-0.2,0.1-0.4,0.2-0.7,0.3c0,0,0,0-0.1,0 c-0.2,0.1-0.5,0.1-0.8,0.2c0,0-0.1,0-0.1,0c-0.3,0-0.5,0.1-0.8,0.1c-0.1,0-0.2,0-0.2,0c-0.1,0-0.3,0-0.4,0c-0.1,0-0.2,0-0.3,0 c-0.1,0-0.3,0-0.5-0.1c-0.1,0-0.2,0-0.3-0.1c-0.2,0-0.3-0.1-0.5-0.1c-0.1,0-0.2,0-0.3-0.1c-0.3-0.1-0.5-0.2-0.8-0.3 c-0.6-0.2-1.2-0.5-1.8-0.7c-0.6-0.2-1.2-0.4-1.9-0.6c-0.6-0.2-1.2-0.4-1.9-0.5l0.7-1.4l0.8-1.7c0.3-0.6,0.5-1.2,0.8-1.7 c0.3-0.5,0.8-1,1.3-1.5c0.5-0.5,1.1-0.9,1.6-1.4c1.2-0.9,2.4-1.7,3.7-2.4c0.3-0.2,0.7-0.3,1-0.5l1.1-0.4c0.8-0.2,1.5-0.5,2.4-0.6 c0.4-0.1,0.8-0.1,1.2-0.1c0.4,0,0.8,0,1.2,0.1c0.4,0,0.8,0.2,1.2,0.2c0.4,0.1,0.8,0.3,1.1,0.4l0,0l0.9,0.3c0.3,0.1,0.6,0.2,0.9,0.3 c0.3,0.1,0.6,0.1,1,0.2c0.3,0.1,0.7,0.1,1,0.2c0.3,0,0.7,0,1,0.1c0.3,0,0.7,0,1,0c0.7,0,1.3-0.1,2-0.2c-0.7,0.1-1.3,0.1-2,0.2 c-0.3,0-0.7,0-1,0c-0.3,0-0.7,0-1-0.1c-0.3-0.1-0.7-0.1-1-0.2c-0.3-0.1-0.6-0.1-1-0.2c-0.3-0.1-0.6-0.2-0.9-0.3l-0.9-0.3 c-0.4-0.1-0.7-0.3-1.1-0.4c-0.4-0.1-0.8-0.2-1.2-0.3c-0.4,0-0.8-0.1-1.3-0.1c-0.4,0-0.8,0-1.2,0.1c-0.8,0.1-1.6,0.3-2.4,0.6 c-0.4,0.1-0.8,0.3-1.1,0.4c-0.4,0.2-0.7,0.3-1.1,0.5c-1.4,0.7-2.6,1.5-3.8,2.4c-0.6,0.4-1.1,0.9-1.7,1.4c-0.5,0.5-1,1-1.4,1.5 c-0.3,0.6-0.6,1.1-0.8,1.7l-0.8,1.7l-0.7,1.4c-3.1-0.8-6.3-1.2-9.5-1.2c-3,0-6,0.4-9,1c-0.3,0.1-0.5,0.1-0.8,0.2 c-0.5,0.1-1,0.3-1.5,0.4c-0.1-0.1-0.2-0.3-0.3-0.4l-1.1-1.8c-0.2-0.3-0.4-0.6-0.6-0.9c-0.2-0.3-0.6-0.5-0.9-0.8 c-0.2-0.1-0.4-0.2-0.6-0.3c-0.2-0.1-0.4-0.1-0.7-0.2c-0.4-0.1-0.9-0.2-1.3-0.2c-0.2,0-0.5,0-0.7,0c-0.2,0-0.5,0-0.7,0 c-0.2,0-0.5,0-0.7,0.1c-0.2,0-0.5,0.1-0.7,0.2c-0.4,0.1-0.8,0.3-1.2,0.5c-0.4,0.2-0.7,0.4-1,0.7c-0.6,0.5-1.2,0.9-1.9,1.4 c-0.3,0.2-0.6,0.4-1,0.6c-0.3,0.2-0.7,0.3-1.1,0.5l0,0l0,0l-1,0.5c-0.2,0.1-0.3,0.2-0.5,0.2l-0.5,0.2c-0.3,0.1-0.7,0.3-1.1,0.4 c-0.4,0.1-0.7,0.2-1.1,0.3l-0.6,0.1c-0.2,0-0.4,0.1-0.6,0.1c-0.4,0.1-0.8,0.1-1.2,0.1c-0.4,0-0.8,0-1.2,0c-0.4,0-0.8-0.1-1.2-0.1 l0,0l0,0c-0.4,0-0.9,0-1.3,0l-0.7,0c-0.2,0-0.4,0-0.7,0l-0.7-0.1c-0.2,0-0.4,0-0.7-0.1l-0.7-0.1c-0.2,0-0.4-0.1-0.6-0.1 c-0.4-0.1-0.8-0.2-1.3-0.3l-1.2-0.4l-1.1-0.5l-1-0.7l0,0l0,0c0,0,0,0,0,0v-0.5v0h-0.5c-0.1-0.1-0.1-0.2-0.2-0.3 c-0.2-0.3-0.3-0.6-0.5-0.9c-0.3-0.6-0.5-1.3-0.7-2c-0.2-0.7-0.5-1.3-0.8-2c-0.2-0.3-0.4-0.7-0.6-1c-0.1-0.2-0.3-0.3-0.4-0.5 c-0.2-0.1-0.3-0.3-0.5-0.4l-0.1-0.1l-0.1,0c-0.2,0-0.5,0.1-0.6,0.1c-0.2,0.1-0.4,0.2-0.5,0.3c-0.2,0.1-0.3,0.2-0.4,0.3 c-0.1,0.1-0.2,0.2-0.3,0.3c-0.4,0.5-0.7,1-1,1.5l-0.9,1.5c-0.3,0.5-0.6,0.9-1,1.3c-0.1,0.1-0.3,0.1-0.4,0.2 c-0.2,0.1-0.3,0.2-0.4,0.3c-0.1,0.1-0.2,0.2-0.2,0.4c-0.1,0.1-0.1,0.3-0.2,0.4c-0.1,0.2-0.1,0.3-0.2,0.5h-19.2v0v3.2 c1,0,1.9,0.2,2.7,0.4c0.2,0.1,0.4,0.1,0.6,0.2c2,0.9,3.4,2.5,4.4,4.3l-1.1,0.6l-1.7,0.9l-0.8,0.5l-0.8,0.4 c-1.2,0.6-2.3,1.2-3.5,1.5c-0.3,0.1-0.6,0.2-0.9,0.2c-0.3,0-0.6,0.1-1,0.1c-0.3,0-0.7,0-1,0l-1-0.1c-1.3-0.2-2.5-0.3-3.8-0.5 c-1.3-0.1-2.5-0.2-3.7-0.5c-0.3-0.1-0.6-0.1-0.8-0.2c-0.3-0.1-0.6-0.2-0.8-0.3c-0.1-0.1-0.2-0.1-0.3-0.2c-0.1-0.1-0.3-0.2-0.3-0.2 c-0.2-0.2-0.4-0.3-0.5-0.5c-0.1-0.1-0.1-0.2-0.2-0.3c-0.1-0.1-0.1-0.2-0.1-0.3c0-0.1-0.1-0.2-0.2-0.4c-0.1-0.1-0.1-0.3-0.3-0.4 c-0.2-0.3-0.5-0.4-0.8-0.6c-0.3-0.1-0.6-0.3-0.9-0.4l0,0l-0.1,0c-0.2-0.1-0.5-0.1-0.8-0.2c-0.2-0.1-0.5-0.2-0.7-0.3 c-0.5-0.2-1-0.5-1.5-0.7l-0.8-0.4l-0.8-0.3l-0.9-0.3l-0.9-0.2c-0.6-0.1-1.1-0.3-1.7-0.4c-0.3-0.1-0.6-0.1-0.9-0.2l-0.8-0.1 c-0.3,0-0.5-0.1-0.7-0.1c-0.1,0-0.2-0.1-0.2-0.1c-0.1-0.1-0.1-0.1-0.2-0.1c-0.1-0.2-0.3-0.4-0.4-0.5c-0.1-0.1-0.2-0.2-0.3-0.3 c-0.1-0.1-0.2-0.2-0.4-0.3c-0.5-0.3-1-0.5-1.6-0.7l-1.5-0.6c-0.5-0.2-1-0.4-1.4-0.6c-0.2-0.1-0.4-0.2-0.6-0.4 c-0.2-0.1-0.3-0.3-0.5-0.4c-0.3-0.4-0.6-0.9-0.8-1.3c-0.2-0.5-0.4-1-0.6-1.5c-0.1-0.3-0.2-0.5-0.3-0.8c-0.1-0.3-0.3-0.5-0.5-0.8 c-0.2-0.3-0.4-0.5-0.8-0.7c-0.2-0.1-0.4-0.2-0.5-0.3c-0.2-0.1-0.3-0.1-0.5-0.2c-0.3-0.1-0.6-0.3-1-0.4c-0.4-0.1-0.7-0.2-1.1-0.2 c-0.4-0.1-0.7-0.1-1.1-0.1c-0.4,0-0.7,0-1.1,0c-1.4,0.1-2.7,0.2-4,0.2l-1-0.2c-0.4-0.1-0.8-0.1-1.1-0.2l-1.1-0.1l-0.6,0l-0.6,0 l-1.2,0c-0.4,0-0.8,0-1.1,0l-2.2,0.2c-0.4,0.1-0.8,0.1-1.2,0.2c-0.4,0.1-0.7,0.2-1.1,0.3l-1,0.4l-1,0.4c-0.6,0.3-1.2,0.6-1.8,0.9 l-0.9,0.4l-0.9,0.3l-0.4,0c-0.2,0-0.4,0.1-0.6,0.1c-0.2,0-0.4,0.1-0.6,0.2c-0.2,0-0.4,0.1-0.5,0.2c-0.2,0.1-0.3,0.2-0.5,0.3 c-0.2,0.1-0.3,0.2-0.4,0.3c-0.1,0.1-0.2,0.2-0.4,0.3c0,0-0.1,0.1-0.1,0.1c-1-0.8-2.2-2-2.3-2.8c0-0.1,0-0.2,0-0.2 c0.3-0.3,0.5-0.8,0.9-1.4c0.7-1.3,1.8-3.3,3.1-4.1c1.1-0.7,2.4-1.1,3.6-1.5c1.6-0.5,3.2-1,4-2.2l0.2-0.4l-0.1-0.4 c-0.6-3.2,4.8-5,6.5-5.4c0.5-0.1,1-0.2,1.5-0.4c0.9-0.3,1.7-0.7,2.5-1.2c1.6-1,2.9-2.5,3.7-4.2l0,0.1c0.3-0.5,0.7-0.9,1.1-1.3 l179.4-5l19.1,70L854,246.7z M273.5,190.4c0,0.3,0.1,0.6,0.2,0.9c0.2,0.6,0.5,1.1,0.8,1.6c0.3,0.5,0.6,1,0.9,1.5 c0.2,0.5,0.4,1.1,0.2,1.6l-0.1,0.2l0,0c0,0,0,0,0,0l0,0l-0.1,0.1c-0.1,0.2-0.2,0.2-0.3,0.3c-0.2,0.2-0.5,0.4-0.8,0.6 c-0.6,0.4-1.2,0.7-1.7,1l-1.8,0.9c-0.6,0.3-1.1,0.6-1.6,1c-0.5-0.6-0.9-1.2-1.4-1.8c-0.3-0.3-0.6-0.6-0.9-0.9 c-0.3-0.2-0.7-0.5-1.1-0.6c-0.2-0.1-0.4-0.1-0.7-0.2c-0.2,0-0.5,0-0.7,0c-0.2,0-0.5,0.1-0.7,0.1c-0.2,0.1-0.4,0.2-0.6,0.3 c-0.2,0.1-0.4,0.2-0.6,0.3c-0.2,0.1-0.4,0.3-0.6,0.4c-0.3,0.3-0.5,0.8-0.5,1.2c0,0.4,0.1,0.8,0.3,1.2c0.1,0.4,0.3,0.8,0.1,1.1 c-0.1,0.2-0.2,0.3-0.4,0.5c-0.2,0.1-0.3,0.3-0.6,0.4c-0.4,0.2-0.8,0.4-1.3,0.5c-0.3,0.1-0.6,0.1-0.9,0.2c0-0.4-0.1-0.7-0.1-1v-26.7 c0.3-0.1,0.6-0.3,0.9-0.4l1.3-0.7l1.2-0.9l1-1c0,0,0,0,0,0l0,0l0,0c0,0,0,0,0,0l0,0l0,0c0.2-0.2,0.3-0.4,0.5-0.6 c0.1-0.2,0.2-0.4,0.3-0.7c0.2-0.4,0.3-0.9,0.4-1.4c0.2-0.9,0.4-1.8,0.6-2.7c0.2-0.9,0.4-1.8,0.7-2.6l0.2-0.6l0.3-0.6 c0.1-0.2,0.2-0.4,0.4-0.6l0.3-0.4c0.1,0,0.2,0,0.3,0.1c0.2,0,0.3,0.1,0.4,0.2c0.1,0.1,0.3,0.2,0.4,0.3c0.1,0.1,0.2,0.2,0.4,0.3 c0.5,0.5,0.8,1.1,1.2,1.6l1.1,1.8c0.4,0.6,0.8,1.2,1.3,1.7l0.2,0.1c0.1,0.1,0.2,0.1,0.3,0.2c0.1,0.1,0.2,0.2,0.3,0.3 c0.1,0.1,0.2,0.2,0.2,0.4c0.1,0.1,0.1,0.3,0.2,0.4c0.3,0.6,0.4,1.2,0.6,1.8c0,0.1,0,0.1,0.1,0.2c-1.1,6.1-0.7,12.3,1.1,18.2 c-0.4,0-0.7-0.1-1.1-0.2l-0.3-0.1l0,0.3l-0.1,0.5C273.5,190.1,273.5,190.3,273.5,190.4z M283.8,177.2l0.3,0.2l0.4,0.3l0.1,0.1l0,0 l3.8,2l1.9,0.9l1,0.5l1,0.5l1,0.4c0.3,0.1,0.6,0.3,0.9,0.4c-0.2,0-0.4,0-0.6,0c-0.4,0-0.9,0-1.4,0c-0.2,0-0.5,0.1-0.7,0.1 c-0.2,0.1-0.5,0.1-0.7,0.2c-0.2,0.1-0.5,0.2-0.7,0.4c-0.2,0.1-0.4,0.3-0.6,0.5c-0.1,0.2-0.3,0.4-0.4,0.6c-0.1,0.2-0.2,0.4-0.2,0.6 c-0.1,0.4-0.2,0.8-0.3,1.2c-0.1,0.7-0.3,1.4-0.4,2.1c-0.2,0.1-0.5,0.1-0.7,0.2l-0.9,0.3l-0.9,0.3l-0.4,0.1l-0.2,0.1l-0.2,0 c-0.2,0-0.3,0-0.4,0c-0.1,0-0.2,0-0.4-0.1c-0.1,0-0.2-0.1-0.3-0.1V177.2z"></path> <path style="fill:#FFFFFF;" d="M517.9,168.1L517.9,168.1C517.9,168.1,517.8,168.2,517.9,168.1L517.9,168.1z"></path> <path style="fill:#FFFFFF;" d="M558.2,175.6l0.2,0.1C558.3,175.6,558.3,175.6,558.2,175.6C558.2,175.6,558.2,175.6,558.2,175.6z"></path> <path style="fill:#FFFFFF;" d="M470.3,192.2C470.2,192.2,470.2,192.2,470.3,192.2l0.1-0.1C470.3,192.1,470.3,192.1,470.3,192.2z"></path> </g> <path style="fill:#FFFFFF;" d="M647.7,716.3c-16.2-3.7-33.2-5.6-51.9-5.6c-31,0-62.3,5.1-92.6,10.1c-29.7,4.9-60.5,9.9-90.4,9.9 c-17.7,0-33.7-1.7-48.9-5.2l-8.2-1.9v8.4v59.3v59.3V910v5.3l5.2,1.2c16.2,3.7,33.2,5.6,51.9,5.6c31.1,0,62.3-5.1,92.6-10.1 c29.7-4.9,60.5-9.9,90.4-9.9c17.7,0,33.7,1.7,48.9,5.2l8.2,1.9v-8.4v-59.3v-59.3v-59.3v-5.3L647.7,716.3z M443.1,869.1 c-28.4,0-51.5-23.9-51.5-53.3c0-29.5,23-53.3,51.5-53.3c16.4,0,31.1,8,40.5,20.4c-7.3-5.7-16.6-9.2-26.6-9.2 c-23.6,0-42.8,18.8-42.8,42.1c0,23.2,19.2,42.1,42.8,42.1c10.1,0,19.3-3.4,26.6-9.2C474.2,861.1,459.6,869.1,443.1,869.1z M506,824.5l-10.3,15.3l-0.6-18.4l-17.7-5.1l17.3-6.3l-0.6-18.4l11.4,14.5l17.3-6.3l-10.3,15.3l11.4,14.5L506,824.5z"></path> </svg> 