<?xml version="1.0" encoding="UTF-8"?> <svg xmlns="http://www.w3.org/2000/svg" xmlns:xlink="http://www.w3.org/1999/xlink" version="1.1" id="Layer_1" x="0px" y="0px" viewBox="0 0 1000 1000" style="enable-background:new 0 0 1000 1000;" xml:space="preserve"> <path style="fill:#FFFFFF;" d="M32.2,354.2c25.3-11.5,51-21.3,79.6-19.4c14.8,1,26.9,6.6,39,15.6c15.6,11.5,16.1,27.3,12.1,40.9 c-5.3,18.3-13.8,36.9-32.7,46.9c-8.6,4.6-17.4,9-26.2,13.2c-6.6,3.1-4.2,9.3-3.6,13.3c2.1,13.7,5.7,27.1,8.8,40.7 c-10.8,10.4-25.4,8.9-39.1,12.6c-3.4-14.3-6.6-27.9-9.8-41.5c-8.8-37.7-17.5-75.4-26.3-113c-0.4-1.8-1.3-3.4-1.9-5.2 C32.2,356.9,32.2,355.5,32.2,354.2z M80.6,370.4c2.8,14.9,5.7,29.6,8.5,44.3c14-2,23.9-7.4,27.6-20.3c2.4-8.3-0.5-15.6-7-21.1 C101.4,366.4,92,366.6,80.6,370.4z"></path> <path style="fill:#FFFFFF;" d="M398.4,390.1c-4.4-31.9-8.6-62-12.9-92.5c14.3-1.1,27.9-2.1,42.3-3.1c0.5,15.8,1,30.4,1.6,45.1 c0.9,22.1,2.1,44.1,2.6,66.2c0.4,17.2,0.1,34.4,0.1,52.2c-13.4-0.5-26.6,3.4-38.8,11.9c-7.5-15.7-14.8-30.9-22.1-46.1 c-7.3-15.1-14.6-30.2-22.1-45.2c-0.9-1.8-3-3-4.6-4.5c-0.9,0.4-1.8,0.8-2.7,1.2c3.4,31.6,6.8,63.1,10.3,95.2 c-13.7-5.3-28-5.7-42.7-0.8c-1.2-13.7-2.4-26.7-3.5-39.8c-1.6-19.3-3.3-38.5-4.8-57.8c-1.7-20.9-3.2-41.9-4.8-62.8 c-0.2-3.1-0.5-6,4-6.4c16.3-1.3,32.6-2.7,48.9-4.3c4.3-0.4,6.3,1.5,7.8,5c6.6,16.4,12.8,32.9,19.9,49c5.2,11.9,11.5,23.4,17.3,35.1 C394.5,388.4,395.6,388.6,398.4,390.1z"></path> <path style="fill:#FFFFFF;" d="M480.3,293.2c22.3,0,43,0.1,63.8-0.1c3.7,0,5.4,0.3,6.4,4.8c6,26.7,12.9,53.2,18.8,79.9 c3.6,16.3,5.8,33,8.8,49.4c1.9,10.5,3.4,21.1,6,31.5c1.4,5.5,4.8,10.6,7.9,17.2c-11,0-20.2,0-29.5,0c-4.1-15.5-4.1-15.5-25.6-16.8 c0.2-8.2-5.5-9.1-11.9-9.1c-6.9,0-13.9,0.5-20.8-0.2c-7.6-0.7-12.9,0.6-12.3,8.5c-9.3,1.4-18.1,2.2-26.6,4.1 c-3.9,0.9-7,6.5-11.5,2.4c-1.9-1.7-2.3-5.1-3.4-7.7c-1,0.8-2,1.6-3,2.4C458.1,404.5,469.1,349.6,480.3,293.2z M527.9,410.3 c0-0.8,0.2-2.4,0-4c-3.7-20.1-7.4-40.2-11.2-60.3c-0.2-1.3-1.7-2.3-2.6-3.5c-1.4,1.2-3.7,2.2-4.1,3.7c-2.1,7.2-4,14.4-5.4,21.8 c-2.6,13.3-4.9,26.7-6.8,40.1c-0.3,1.8,2.5,6,3.6,5.9C509.8,413.2,518.4,411.7,527.9,410.3z"></path> <path style="fill:#FFFFFF;" d="M261,415.8c-8.6,0.7-17,1.6-25.5,2c-5.3,0.3-8.1,1.8-7.8,7.8c0.5,8.1,0.1,16.3,0.1,25.8 c21.6-1.8,42.5-3.4,63.6-5.1c1.3,8.7,2.4,16.2,3.4,23.6c1.7,11.3-2.3,15.8-14,16c-5.7-9.8-8-10.7-19.4-8.7 c-5.4,0.9-10.9,1.1-16.4,1.8c-8.2,1.1-16.5,1.9-22,9.5c-1,1.4-2.8,2.3-4.5,3.6c-8.1-9.5-18.2-2.7-28-3.7 c-2.6-15.9-5.1-31.8-7.7-47.7c-5.6-35-11.2-70-16.9-105.1c-1.7-10.2-1.9-10.7,8.2-12.7c30.5-6,61.2-11.6,91.8-17.3 c1.7-0.3,3.6,0,5.7,0c1.9,12.8,3.8,25.4,5.8,39c-9.3,1.2-18.6,2.5-27.8,3.7c-6.4,0.9-12.8,2.1-19.2,2.5c-6.3,0.4-10.1,2.3-9.7,9.5 c0.2,2.9-1.1,5.8-1.1,8.7c0.3,20-3,15.4,16.6,15.4c7.1,0,14.1-1.4,21.6-2.2C259,393,259.9,403.8,261,415.8z"></path> <path style="fill:#FFFFFF;" d="M826.9,316.3c17.7,2.6,34.8,5.2,52,7.7c0.7,9.3,1.6,18.1,2,27c0.6,13.8,0.9,27.6,1.5,41.4 c0.1,1.6,1.2,3.2,2.1,4.6c0.8,1.2,1.8,2.3,2.8,3.4c1.2-1.2,2.8-2.2,3.5-3.7c9.5-19.5,19-38.9,28-58.5c2.3-4.9,4.3-6.3,9.8-4.8 c16.2,4.4,32.7,8.2,49.9,12.4c-8,9.6-15.8,18.7-23.4,28.1c-16.4,20.2-32.2,41-49.4,60.5c-8.9,10.1-9.7,22.1-12.1,33.9 c-1.9,9.1-3.2,18.3-4.9,28.2c-15-2.8-29.7-5.5-45.1-8.4c2-11.7,3.1-23.5,6.3-34.6c4.4-15.3,2.6-29.9-1.3-44.8 c-7.3-28.3-14.2-56.8-21.1-85.2C826.9,321.5,827.1,319.4,826.9,316.3z"></path> <path style="fill:#FFFFFF;" d="M760.8,475.1c-15.2,0.8-30.7-12.1-46.1,3.2c5.3-42.5,10.4-83.9,15.6-126.3 c-10.2-1.2-19.9-2.5-29.7-3.4c-4.9-0.4-6.9-1.6-6.1-7.2c1.9-12.9,3.1-26,4.7-39.8c15.6,1.8,30.5,3.4,45.5,5.1 c13.3,1.5,26.5,2.8,39.8,4.4c10.3,1.2,20.5,2.6,30.7,4.4c1.6,0.3,4.1,3.4,4,5.1c-1.3,13.6-3.1,27.1-4.9,41.2 c-10.6-1.6-20.4-2.8-30.1-4.5c-3.9-0.7-6.5,0.3-7.2,4.1c-2.1,12-4.1,24-5.9,36.1c-1.7,11.3-3,22.6-4.4,33.8 c-1.4,10.6-2.7,21.2-4.1,31.7C762.2,467.4,761.4,471.6,760.8,475.1z"></path> <path style="fill:#FFFFFF;" d="M697.9,443.6c-0.8,8.3-1.6,16.5-2.4,25.5c-11-5.5-21.5-8.4-32.9-6.9c-10.9,1.5-20.5,5.8-29,12.9 c-2.5,2.1-6.3,3.2-9.6,3.4c-5.5,0.2-11.1-1.3-16.5-0.9c-7.5,0.4-8.6-2.8-8.2-9.5c1.6-31.3,2.6-62.6,4-94c1.2-26.2,2.7-52.4,4.1-78.9 c15.7,0.7,31,1.5,47,2.2c-0.5,10.4-0.8,20.4-1.5,30.4c-0.6,7.9-2,15.8-2.6,23.7c-1.9,24.8-3.6,49.7-5.5,74.5 c-0.5,6.7-0.9,11.3,8.8,11.7C668,438.4,682.2,441.4,697.9,443.6z"></path> <path style="fill:#FFFFFF;" d="M273.5,482.8c6.2,37,12.4,73.5,18.7,110.8c-10.2,1.3-19.9,2.5-30,3.8c-2.7-15.7-5.3-30.7-8.1-46.6 c-9.5,1.3-18.7,2.5-28.6,3.9c2.7,15.9,5.2,31,7.8,47c-10.4,1.9-20.5,3.7-30.8,5.5c-6.6-36.5-13.1-72.3-19.8-109 c10.6-1.8,20.3-3.4,30.6-5.2c2.2,10.4,4.4,20.4,6.3,30.5c0.7,3.7,1.8,5.2,5.9,4.3c8.1-1.6,16.3-2.7,25-4.1 c-2.3-11.1-4.4-21.3-6.6-31.5c-0.8-3.7-0.4-6,4.4-6.4C256.7,485.2,264.8,483.9,273.5,482.8z"></path> <path style="fill:#FFFFFF;" d="M626.8,535.3c-0.7-19.1,4.5-36,15.6-50.7c8.9-11.9,21.2-18,36.2-16c17.8,2.3,29.7,13.3,35.1,29.6 c9.3,28.5,4.8,55.7-12.8,80c-16,22.2-47.5,22.2-64.5-4.7C628.9,561.6,625.9,548.6,626.8,535.3z M687.9,527.5 c-1.6-8.9-2.1-15.6-4.2-21.8c-1.1-3.3-5-7.3-8.1-7.7c-3.1-0.3-8.2,2.7-9.6,5.6c-8.4,17-10.9,35-6.2,53.6c1.2,4.6,3.6,9.8,9,8.7 c4.1-0.9,9.3-4.5,10.7-8.2C683.3,547.5,685.5,536.5,687.9,527.5z"></path> <path style="fill:#FFFFFF;" d="M292.1,530.4c-0.7-13.5,2.5-25.8,8.9-37.1c14.6-26,47.8-27.3,67-5.6c19.2,21.6,20.2,68.1,1.9,90.5 c-4.1,5-8.6,9-15.5,9.3c-2,0.1-4.1,0.8-6.1,1.3c-21.3,4.6-37.4-2.9-47.6-22.2C294.7,555,291.3,543.1,292.1,530.4z M353.9,538.9 c-2.8-10.1-5.3-20.7-8.9-30.9c-1.6-4.4-5.8-9.2-11-7.2c-3.6,1.4-7.8,6-8.2,9.6c-1.3,10.2-1.6,20.6-0.7,30.8 c0.7,6.8,3.3,13.9,6.7,19.9c4.1,7.2,12.2,7,15.9-0.4C350.7,554.5,351.6,547.1,353.9,538.9z"></path> <path style="fill:#FFFFFF;" d="M762.2,481.9c-3.3,23.4-6.8,46.3-9.5,69.2c-0.6,5.3,0.5,11.1,2.2,16.2c2.5,7.5,10,9.7,15.3,4 c4.8-5.1,8.7-11.8,10.9-18.5c6.7-19.5,6.9-40.1,8.3-60.4c0.1-2,0.3-4,0.4-6.4c9.7,1,18.8,2,28.8,3c-1.1,13.1-1.5,26-3.3,38.6 c-2.8,19.6-6,39.1-17,56.3c-9.7,15.1-23.6,22-39.6,18.8c-18.6-3.7-29.8-15.3-33.1-33.1c-4.9-26.6,0.2-52.4,6.4-78.1 c3.6-14.8,3.9-14.7,19.1-11.7C755.4,480.8,759.6,481.4,762.2,481.9z"></path> <path style="fill:#FFFFFF;" d="M478.3,524.6c0.3,16.6-3.1,31.5-12.1,44.7c-1.5,2.3-4.9,4.2-7.7,4.5c-14,1.5-28.1,2.8-42.1,3.4 c-3.6,0.1-8.2-1.6-10.7-4.1c-17.6-17.2-20.2-39.1-16.7-61.9c1.4-9.2,5.2-18.5,9.8-26.7c15.3-27.6,54.2-25.7,70.7,3.1 C476.2,499.2,478.6,512,478.3,524.6z M418.1,524.5c2,9.3,3.4,18.9,6.4,27.9c1,3.1,6,7.1,9,6.9c3.5-0.1,8.6-3.7,9.9-6.9 c7-17.9,6-35.9-2.4-53.1c-1.4-3-6.3-5.7-9.7-5.9c-2.5-0.1-6.7,3.7-7.6,6.6C421.1,507.8,419.9,516,418.1,524.5z"></path> <path style="fill:#FFFFFF;" d="M173.7,533.9c-9.4,3.4-18.4,6.7-27.4,10c-6.8-9.5-13-10-18.4-1.6c-4.1,6.5-1,12.8,6.7,12.9 c9.9,0.1,19.9-0.5,29.8,0c18.6,0.9,28.4,15.7,22.3,33.4c-6.2,18.2-20.9,26.2-38.4,30.2c-13,3-25.7,0.8-38.4-2.5 c-4.8-1.2-6.4-3.4-4.1-8.3c2.9-6.2,5.2-12.7,7.9-19.3c11.8,3.2,23.6,5.7,35.4,1.1c2.3-0.9,4-3.2,6-4.9c-0.2-0.7-0.3-1.3-0.5-2 c-3.9-0.5-7.8-1.2-11.8-1.6c-10.8-1-21.7-1.3-32.3-3.1c-11-1.8-16.1-9.9-17.2-21c-3-28.9,24.3-50.9,48.9-51.8 C159.1,504.8,170.4,514.7,173.7,533.9z"></path> <path style="fill:#FFFFFF;" d="M825.9,613.8c5.8-29.4,11.5-58.4,17.4-88.2c-7.2-1.4-14.3-2.7-22.4-4.2c1.7-10.1,3.4-19.7,5.3-30.5 c9.3,1.6,18,3,26.8,4.7c14,2.6,28,5.5,42,7.9c4.5,0.8,5.5,2.5,4.6,7c-1.6,7.8-2.4,15.8-3.6,24.5c-6.1-1.2-11.6-2.3-17.2-3.3 c-4.3-0.8-6.9-0.7-7.9,5.2c-4.1,25.4-9.1,50.6-13.5,76c-0.9,5.5-3,6.8-8.3,5.4C842,616.3,834.7,615.4,825.9,613.8z"></path> <path style="fill:#FFFFFF;" d="M502,496.7c-6.9,0-14.2,0-21.8,0c0-10.1,0-19.7,0-29.8c24.9,0,49.2,0,74.5,0c0.5,9.5,0.9,19,1.5,29.3 c-8.3,0-15.8,0-23.8,0c0,26.2,0,51.7,0,78c-10.1-0.5-19.7-0.9-30.3-1.4c0-12.7,0-25.3,0-37.9C502,522.4,502,509.8,502,496.7z"></path> <path style="fill:#FFFFFF;" d="M461.4,666.1c-7.3,0-13.7,0-21.3,0c0-7.8,0.1-15.6,0-23.3c-0.2-12.2-0.3-24.5-0.9-36.7 c-0.2-4.7,1.7-6.9,5.8-7.7c6.8-1.2,13.6-2.7,20.5-3.1c13.2-0.8,23.3,4.8,27.6,14.5c4.5,10.2,1.7,21-8.3,31 c3.6,6.1,7.4,12.4,11.7,19.6c-6.7,1.6-12.8,3.3-19,4.5c-1.1,0.2-3.3-1.3-3.9-2.5c-1.8-3.5-2.7-7.4-4.6-10.8c-1.2-2.3-3.5-4-5.3-5.9 c-0.8,2.3-2.1,4.6-2.4,7C461.1,656.8,461.4,661,461.4,666.1z M461.5,630.1c6-0.3,11-1.9,11.4-7.5c0.2-3.1-2.2-7.3-4.8-9.3 c-3-2.3-6.7-1.6-6.6,3.8C461.6,621.2,461.5,625.3,461.5,630.1z"></path> <path style="fill:#FFFFFF;" d="M337.8,666.1c7-0.9,13.2-1.2,19.2-2.6c2.1-0.5,3.6-3.3,5.4-5c-2.3-0.4-4.6-0.8-6.9-1.2 c-0.4-0.1-0.9,0.2-1.3,0.3c-8.3,2.8-15.8,1.6-21.2-5.6c-5.9-7.9-6.6-16.6-1.9-25.4c5.5-10.2,21.7-18,33.3-15.9 c1.3,0.2,3.2,1.4,3.5,2.5c1.4,5.5,2.3,11.2,3.4,16.7c-18.5,3.8-18.5,3.8-21.7,9.3c3.1,0,5.7,0.5,8-0.1c13.1-3.1,19.1-1.6,23.6,6.4 c5.8,10.2,4.3,22.7-3.7,30.6c-9.5,9.4-21.2,10.4-33.6,8.7c-1.3-0.2-3-2.1-3.3-3.6C339.5,676.3,338.8,671.1,337.8,666.1z"></path> <path style="fill:#FFFFFF;" d="M558.8,599.3c14.8,1.9,28.7,3.6,43.6,5.5c-1.1,6.2-2.1,11.9-3.1,17.3c-7.2,2.7-15.4-4.1-22.9,4.2 c6.3,1.1,10.7,1.9,15.6,2.8c-1.1,5-2.1,9.6-2.8,12.9c-4.9,4.7-13.6-4.9-15.5,6.7c6.6,1,12.9,2,19.7,3c-1.3,7.1-2.5,13.8-3.8,20.9 c-13.8-1.4-27-2.8-40.9-4.3C552.1,645.3,555.4,622.8,558.8,599.3z"></path> <path style="fill:#FFFFFF;" d="M500.5,665.8c1.8-23.7,3.5-46.4,5.2-69.8c14.8,0.8,29,1.5,44,2.3c-0.7,6.1-1.3,11.7-1.9,17 c-6.7,3.8-15.7-2.5-22.7,6.2c6.1,0.7,10.3,1.2,15.5,1.8c-0.5,4.7-1,9.4-1.5,13.5c-4.4,4.3-13.3-3.2-15.4,7.4 c6.9,0.5,13.1,1,20.1,1.6c-0.7,7.2-1.4,13.7-2.1,20C527.9,665.8,514.5,665.8,500.5,665.8z"></path> <path style="fill:#FFFFFF;" d="M657.3,615.8c-1.6,7.3-2.9,13.3-4.3,20.1c-4.6-0.4-9.1-0.8-14-1.3c-4,14.6-7.9,29-11.9,43.8 c-6.8-0.9-13.1-1.8-20.2-2.8c2.7-15,5.4-29.6,8.2-44.6c-4.6-0.8-8.6-1.5-13.6-2.4c1.5-7.3,2.9-14.3,4.5-22.6 C623,609.3,639.9,612.5,657.3,615.8z"></path> <path style="fill:#FFFFFF;" d="M378.9,607.2c17.7-2.9,34.3-5.5,51.3-8.3c0.9,7.2,1.8,13.6,2.6,19.6c-0.7,0.7-0.9,1.2-1.3,1.3 c-12.4,3-12.4,3-11.4,15.9c0.8,10.6,1.6,21.1,2.5,32.3c-6.6,1.4-12.8,2.8-19.9,4.4c-2.4-15.2-4.7-29.7-7.1-44.7 c-4.5,0.8-8.7,1.5-13.7,2.3C380.9,622.4,380,615.3,378.9,607.2z"></path> <path style="fill:#FFFFFF;" d="M553.5,538.2c0-8.4,0-16.1,0-23.5c21.1,0,41.7,0,63.2,0c-0.6,9.3-1,17.4-1.6,26.5 C594.5,540.2,574.4,539.2,553.5,538.2z"></path> <path style="fill:#FFFFFF;" d="M867.2,611.5c0-6.8,5-12.1,11.4-12.3c6.8-0.1,12.9,5.8,13,12.7c0.2,6.5-5.2,12.6-11.1,12.8 C872.1,624.9,867.3,620.1,867.2,611.5z"></path> <path style="fill:#FFFFFF;" d="M888.4,579.2c-6.4,0.1-12.3-5.6-12.5-12.1c-0.2-7.9,4.5-13.6,11.4-13.7c7-0.1,12.8,5.4,13.1,12.4 C900.7,572.9,895.2,579,888.4,579.2z"></path> </svg> 