<?xml version="1.0" encoding="UTF-8"?> <svg xmlns="http://www.w3.org/2000/svg" xmlns:xlink="http://www.w3.org/1999/xlink" version="1.1" id="Layer_1" x="0px" y="0px" viewBox="0 0 1000 1000" style="enable-background:new 0 0 1000 1000;" xml:space="preserve"> <path style="fill:#FFFFFF;" d="M743.4,732.8c-0.5-2.2-1.6-4.4-1.6-6.6c-0.1-109-0.1-218-0.1-326.9c0-1.7,0.2-3.4,0.3-5.4 c1.4-0.2,2.6-0.6,3.8-0.6c33.1,0,66.3-0.4,99.4,0.3c51.8,1.1,95.6,45.8,96.3,97.5c0.1,5.3,0.4,10.7,0.7,16c0,14.2,0,28.4,0,42.6 c-0.4,10.1-0.8,20.3-1.2,31.1c-16.3,0-31.8,0-48.8,0c2.9,2.1,4.4,3.2,6,4.3c20.8,14.8,34.8,34.2,40.7,59.1 c1.4,5.8,2.2,11.7,3.3,17.6c0,23.6,0,47.3,0,70.9c-17.6,0-35.3,0-52.9,0c-0.3-2.5-0.9-5-0.9-7.6c-0.1-11.2,0-22.3-0.1-33.5 c-0.2-20.6-6.2-39.6-19.2-55.5c-19.6-24.1-47.4-37.5-73.1-54c-0.2,0.6-0.6,1.2-0.6,1.7c-0.1,42.9-0.1,85.8-0.3,128.7 c0,6.7-0.9,13.4-1.5,20.1C776.9,732.8,760.2,732.8,743.4,732.8z M888.3,526.5c0-8.9,0.2-17,0-25.1c-0.7-27.5-20.7-50.5-48-53.8 c-13.4-1.6-27-0.8-40.5-1.2c-4.3-0.1-4.7,2.5-4.7,5.9c0.2,22.3,0.2,44.6,0.3,66.9c0,2.3,0,4.6,0,7.3 C826.6,526.5,857,526.5,888.3,526.5z"></path> <path style="fill:#FFFFFF;" d="M597.5,732.8c-3.3-0.7-6.6-1.5-9.9-2.2c-46.9-9.7-79.8-48.1-80.1-95.8c-0.6-78.9-0.2-157.8-0.2-236.7 c0-1.3,0.2-2.5,0.3-4.3c2-0.2,3.9-0.5,5.7-0.5c33.4,0,66.7-0.1,100.1,0.2c44.8,0.4,86.4,36.9,92.6,81.1c0.9,6.8,1.4,13.7,1.4,20.5 c0.1,76.5,0.1,153.1,0,229.6c0,2.7-0.9,5.3-1.4,8C669.8,732.8,633.6,732.8,597.5,732.8z M561,447.7c-0.1,0.4-0.4,1.2-0.4,2 c0.1,58-0.4,116.1,0.5,174.1c0.4,28.1,18.8,49.1,46.3,54c13.4,2.4,27.4,0.7,41.2,1.2c4.6,0.2,5.8-1.5,5.8-5.9 c-0.1-57,0.1-113.9-0.2-170.9c-0.1-26.3-20.1-50.6-46.2-54.1C592.7,446,577.1,447.7,561,447.7z"></path> <path style="fill:#FFFFFF;" d="M277.2,732.8c0-31.6,0.1-63.2,0.1-94.8c0-77.6,0-155.2,0-232.8c0-2.3,0-4.7,0-8.1 c16.7,3.8,32.6,7.5,49.2,11.3c0,41.2,0,83.6,0,126.7c32.1,0,63.6,0,95.5,0c0-45.7,0-91.9,0-139.1c16.8,0,33.2,0,50.3,0 c0,111.8,0,223.2,0,335c-17.5,0-34.6,0-51.2,0c0.7-5,2-9.9,2-14.9c0.2-24.7,0.1-49.4,0.1-74.2c0-9.5,0.4-19.1-0.1-28.6 c-0.4-7.8-1.9-15.5-3-23.5c-31.6,0-62,0-93.7,0c0,47.6,0,95.2,0,142.8c-0.9,0-1.7,0-2.6,0c-8.7-0.3-17.5-0.8-26.2-0.9 c-6.3,0-12.7,0.6-19,0.9C278.1,732.8,277.6,732.8,277.2,732.8z M418.9,538.4c0-0.3-0.1-0.6-0.1-0.9c-27.6,0-55.1,0-82.7,0 c0,0.3,0,0.6,0,0.9C363.7,538.4,391.3,538.4,418.9,538.4z"></path> <path style="fill:#FFFFFF;" d="M188.2,730.6c0-15,0-28.9,0-42.8c0-92.8,0-185.7-0.1-278.5c0-7-0.6-13.9-9.2-16.9 c-4.1-1.4-7.5-4.7-11.3-7.2c-6.7-4.4-10.8-4-16.7,1.1c-16.6,14.5-31.6,30.4-44.7,48.1c-5.3,7.2-6.3,7.5-11.3-0.1 c-8.1-12-15-24.8-22.6-37.1c-9.7-15.6-15.5-32.6-18.6-50.6c-5.5-32.2-2.2-63.2,13.2-92.4c2.1-3.9,4.1-7.8,6.4-11.6 c5.5-9.2,7.3-9.4,15.3-3c27.1,21.8,56.5,39.9,88.7,53.3c9.1,3.8,16.3-1.1,17.4-11.2c0.3-3.1,1.2-6.3,2.6-9.1 c1.7-3.2,4.1-4.6,6.2,0.1c0.6,1.2,1.8,2.9,2.9,3.1c2.9,0.5,6.1-0.2,8.9,0.5c2.7,0.7,5.2,2.6,8.3,4.3c0.7-2.8,1.1-4.7,1.6-6.7 c0.6-0.2,1.2-0.5,1.9-0.7c1.2,2.5,3.1,4.9,3.4,7.4c1,9.4,7.2,17.7,15.8,20c1.1,0.3,2.5-0.1,3.8-0.4c28.3-6.8,56.7-13.5,84.9-20.5 c5.7-1.4,11.1-4,16.5-6.2c3.1-1.3,10.6,2.7,12.1,7.9c2.4,8.3,4.3,16.9,5.4,25.5c0.9,6.8,0.6,13.8,0.1,20.6 c-1.2,15.1-2.5,30.2-4.4,45.3c-1.1,8.8-12.3,13.8-21.3,11.2c-11.6-3.3-23.6-5.5-35.3-8.3c-16.4-4-32.8-8.1-49.2-12.2 c-5.5-1.4-11-3-16.6-3.9c-1.1-0.2-3.7,2.4-3.8,3.9c-0.5,4.7-0.3,9.4-0.3,14.2c-0.3,114.5-0.5,229-0.8,343.5c0,10.1,1.4,9.4-9.2,9.5 C215,730.7,202.1,730.6,188.2,730.6z"></path> <path style="fill:#FFFFFF;" d="M940.6,301.1c0,23.3,0,46.1,0,69.5c-3.6-1.1-7-5.6-9.9,1.4c2.8,0.2,5.3,0.3,8.4,0.5 c0,3.9,0,8.4,0,14.1c-2.1-1.4-3.9-2.2-5.3-3.5c-18.7-18.4-41.9-26.9-67.2-30.5c-38.1-5.4-76.4-2.2-114.7-2.3 c-107.8-0.4-215.6-0.3-323.4-0.4c-4.2,0-8.5,0-13.3,0c0-16.4,0-32.4,0-48.7C590.4,301.1,765.3,301.1,940.6,301.1z"></path> <path style="fill:#FFFFFF;" d="M384.8,301.8c0.9-0.6,1.1-0.7,1.3-0.8c13.8-1.5,13.8-1.5,13.8,12.1c0,10.9-0.1,21.9,0.1,32.8 c0.1,3.9-1.8,5-5.1,4.6c-3.6-0.4-9.6,2.1-9.9-3.7C384.4,331.7,384.8,316.5,384.8,301.8z"></path> </svg> 