<?xml version="1.0" encoding="UTF-8"?> <svg xmlns="http://www.w3.org/2000/svg" xmlns:xlink="http://www.w3.org/1999/xlink" version="1.1" id="Layer_1" x="0px" y="0px" viewBox="0 0 1000 1000" style="enable-background:new 0 0 1000 1000;" xml:space="preserve"> <path style="fill:#FFFFFF;" d="M978,393.6c-2.7,14.4-5.1,27.7-7.7,41c-7.4,38.4-14.9,76.8-22.2,115.3c-0.8,4.5-2.2,6.2-7.1,6.2 c-67.5,0-135,0.2-202.4,0.3c-1.7,0-3.3-0.2-5.9-0.4c0.9-5.5,1.7-10.8,2.7-15.9c9.3-47.5,18.6-94.9,27.7-142.4c0.9-4.7,3.4-4.8,7-4.8 c46.2,0.3,92.5,0.5,138.7,0.7c20.4,0.1,40.8,0,61.2,0C972.3,393.6,974.6,393.6,978,393.6z M892.2,419c-15,0-29.3,0.3-43.5-0.1 c-5.4-0.1-8.9,1.3-11.7,6.1c-4.4,7.5-9.5,14.4-15.4,23.1c-2.4-9.4-4.3-17.1-6.4-24.6c-0.5-1.7-2.2-4.2-3.4-4.2 c-8.3-0.4-16.5-0.2-25.5-0.2c5,17.4,9.9,33.6,14.2,49.9c0.7,2.6,0,6.3-1.5,8.5c-8.1,11.7-16.6,23.1-25,34.7 c-4.2,5.8-8.5,11.7-13.3,18.5c6.9,0,12.6-0.7,18.1,0.1c9.9,1.4,16-2.3,20.5-11c3.1-6,7.5-11.2,12.1-17.9c2.6,9.4,4.5,17.1,7,24.6 c0.5,1.7,2.8,3.8,4.3,3.9c7.9,0.4,15.9,0.2,24.6,0.2c-5.1-16.8-9.9-33-15-49.1c-1.4-4.4-1.1-7.7,1.7-11.5 c10-13.5,19.6-27.2,29.3-40.9c0.9-1.3,2.1-2.3,3-3.4c0.6,0.5,0.9,0.5,0.9,0.7c4,19.5,8.1,38.9,11.9,58.4c0.7,3.4,0.6,7.1-0.1,10.5 c-2.3,11.7-4.9,23.2-7.5,35.2c8.9,0,17.2,0,26.1,0c1.7-8.1,3.7-15.9,5-23.9c1.8-11.2,5.9-21.1,12.4-30.4 c9.1-13.1,17.2-26.8,25.7-40.2c3.3-5.2,6.6-10.5,10.5-16.7c-7.9,0-14.6-0.4-21.2,0.2c-2.6,0.2-5.9,2-7.3,4.1 c-6.6,9.7-12.7,19.8-19,29.6c-0.9,1.4-2.1,2.6-3.9,4.9C897.2,444.1,894.7,431.9,892.2,419z"></path> <path style="fill:#FFFFFF;" d="M336.6,484.1c0,16.7,0.2,31.8-0.1,46.9c-0.3,17-14,26.7-30.2,21.8c-9.2-2.7-15-10.2-15-21.6 c-0.3-36.4-0.3-72.9,0-109.3c0.1-9.8,4-18,14.1-21.7c10.1-3.7,19.6-1.3,27.1,7.7c14.8,17.9,29.3,36.2,43.9,54.3 c1.4,1.8,2.9,3.5,5.7,5c0-3,0-6,0-9c0-12.1-0.2-24.3,0.1-36.4c0.5-16.9,13.6-26.5,29.6-22.1c10,2.7,15.7,11.1,15.7,23.7 c0.1,28.5,0.1,57,0.1,85.5c0,7.3,0.1,14.7-0.1,22c-0.3,9.7-3.8,17.6-13.6,21.4c-9.9,3.8-19.7,1.8-27-6.3 c-5.9-6.5-11.2-13.5-16.7-20.4c-10-12.4-19.8-24.9-29.8-37.4C339.6,487.2,338.6,486.2,336.6,484.1z"></path> <path style="fill:#FFFFFF;" d="M712.1,476.4c0.2,24.3-6,46.5-25.3,62.4c-25.1,20.7-54,22.5-83,10.4c-27.7-11.5-39.3-35.3-41.9-63.8 c-1.9-20.5,1.5-40.2,13.2-57.6c16.8-25,48.7-36.3,80.8-28.9c32.4,7.4,54.3,34.3,56.1,68.8C712.2,470.5,712.1,473.4,712.1,476.4z M608.1,477.2c2,7.1,3.3,15.3,6.6,22.5c4.1,9.1,12,13.6,22.3,13.5c10.6,0,18.3-4.9,22.7-14.1c6.8-14.1,6.9-28.7,1-43.2 c-4.6-11.3-12.6-16.4-24.4-16.2c-10.9,0.1-19.4,5.9-23.3,16.9C610.8,462.8,609.9,469.5,608.1,477.2z"></path> <path style="fill:#FFFFFF;" d="M484.2,443.6c9.4-10.2,17.6-19.2,26-28.2c4-4.3,7.9-8.8,12.6-12.3c9.2-7,21.2-5.6,29.7,3 c7.8,7.9,9.1,18.9,1.5,27.9c-8.9,10.5-19,20.1-28.8,29.9c-2.3,2.4-5.1,4.3-8.3,6.9c8.8,9.6,16.7,18.2,24.5,26.8 c5.5,6,11.1,12,16.6,18.1c8.3,9.4,8.9,22.6,1.5,30.9c-7.6,8.5-22.8,10.5-31.9,2.2c-11.4-10.4-21.4-22.4-32-33.7 c-3.4-3.7-6.7-7.5-11.4-12.8c0,7.2,0,12.7,0,18.1c0,3.6,0,7.1,0,10.7c-0.2,13.9-8.8,22.9-22.1,23.1c-13.4,0.2-22.8-8.9-23-22.9 c-0.3-17.6-0.1-35.2-0.1-52.8c0-18.6-0.1-37.3,0.1-55.9c0.2-17.2,13.3-27.2,29.6-22.8c9.4,2.5,15.3,10.4,15.5,21.2 C484.4,428,484.2,435,484.2,443.6z"></path> <path style="fill:#FFFFFF;" d="M60.6,508c0,8.3,0.2,15.8,0,23.2c-0.4,16-12.4,25.4-28,22.2c-10.2-2.1-16.8-9.5-16.8-20.5 c-0.2-37.5-0.2-74.9,0-112.4c0.1-11.6,9.3-20.2,21.3-20.4c14.7-0.3,29.4-0.6,44.1,0.1c33.9,1.6,56.5,31.6,49.5,65.3 c-5.6,27.4-23.7,42.2-51.9,42.5C73,508,67.2,508,60.6,508z M60.9,466.2c8.7-0.2,17.4,2.3,22.7-6.5c2.7-4.5,2.6-9.5-0.9-13.4 c-6-6.9-14-4.2-21.8-4.3C60.9,450.3,60.9,457.9,60.9,466.2z"></path> <path style="fill:#FFFFFF;" d="M182.8,510.2c10.3,0,19.7-0.3,29.1,0.1c8.8,0.3,16.1,3.8,19.3,12.6c3.1,8.6,2.9,17.6-4.6,23.7 c-4.4,3.6-10.8,6-16.5,6.3c-16.4,0.8-32.8,0.5-49.2,0.2c-14.5-0.3-23.3-8.8-23.4-23.2c-0.3-35.8-0.2-71.6,0-107.4 c0.1-9.9,3.9-18.2,13.9-21.9c9.2-3.4,17.8-2.2,25.1,4.9c5.2,5,6.2,11.7,6.2,18.5c0,26.2,0,52.4,0,78.5 C182.8,504.6,182.8,506.9,182.8,510.2z"></path> <path style="fill:#FFFFFF;" d="M279.6,476.6c0,18,0.2,36,0,54c-0.2,17.5-14.9,27.4-31.1,21.5c-7.7-2.8-11.9-8.4-12.9-16.3 c-0.8-6-1-12.1-1-18.1c-0.1-30.1,0-60.3,0.1-90.4c0-2.7,0.3-5.4,0.6-8.1c1.7-16,12.7-20.3,22.8-20.1c13,0.2,21.4,9.5,21.6,22.9 C279.7,440.1,279.6,458.4,279.6,476.6z"></path> <path style="fill:#FFFFFF;" d="M288.4,356.7c-0.1,17.8-13.8,31.5-31.5,31.5c-17.8,0-31.9-14.2-31.7-32.1c0.1-17.6,13.9-31.1,31.9-31 C274.9,325.2,288.5,338.8,288.4,356.7z"></path> </svg> 