<?xml version="1.0" encoding="UTF-8"?> <svg xmlns="http://www.w3.org/2000/svg" xmlns:xlink="http://www.w3.org/1999/xlink" version="1.1" id="Layer_1" x="0px" y="0px" viewBox="0 0 1000 1000" style="enable-background:new 0 0 1000 1000;" xml:space="preserve"> <path style="fill:#FFFFFF;" d="M919.4,668.2c-12.7-4.6-27.5-6.4-37.6-14.2c-20.9-16.3-18-41.1-17.2-65.6c14.3,0,28,0,43.1,0 c0.6,9,0,18.7,2.2,27.7c1.2,4.9,7.2,8.7,11.1,13c2.8-4.7,8.9-10.5,7.8-14c-3.4-10.8-8.1-21.8-15-30.6c-7.1-9.2-17.7-15.5-26.2-23.7 c-22.3-21.6-28.2-45.4-17.1-68c9.7-19.8,33.3-29.1,62.8-24.7c30.1,4.5,41.5,24.1,36.2,63.9c-11.9,0-23.9,0-36.5,0 c-0.3-5.6,0.6-10.8-1.2-14.9c-1.9-4.4-5.6-9-9.8-10.9c-2.6-1.2-10.1,1.6-10.6,3.7c-1.1,4.5-0.7,11.5,2.2,14.4 c10.4,10.7,21.6,21,33.5,30c31.6,23.7,31.6,61.3,17,91.1c-4.4,8.9-17.9,13.7-27.7,19.5c-3.9,2.3-9.2,2.3-13.8,3.3 C921.5,668.2,920.5,668.2,919.4,668.2z"></path> <path style="fill:#FFFFFF;" d="M268.3,663.8c0-65,0-125.6,0-191.7c13.9,0,26.9,0,41.9,0c0,65.4,0,126.3,0,191.7 C296.2,663.8,282.2,663.8,268.3,663.8z"></path> <path style="fill:#FFFFFF;" d="M132.9,331.8c0,31.6,0,63.2,0,95.9c-7.5,0-14.1,0-22.6,0c0-12.1,0.3-24.3-0.3-36.5 c-0.1-2.5-3.5-4.9-5.3-7.4c-1.3,2.4-3.7,4.9-3.8,7.3c-0.4,11.7-0.2,23.5-0.2,36.4c-7.4,0-14,0-22.6,0c0-31.8,0-63.8,0-95.9 c7.5,0,15,0,22.6,0c0,9.6-0.3,19.2,0.3,28.8c0.1,2.3,3,4.4,4.6,6.6c1.6-2.2,4.4-4.3,4.6-6.6c0.5-9.6,0.2-19.2,0.3-28.8 C117.8,331.8,125.3,331.8,132.9,331.8z"></path> <path style="fill:#FFFFFF;" d="M187.7,331.8c0,5.8,0,11.7,0,18.4c-7.5,0.6-14.2,1.2-21.7,1.9c0,4.9,0,9.4,0,14.8 c6.8,0.3,13.1,0.6,20.5,0.9c0,5.7,0,11.3,0,18c-6.2,0.5-12.9,1.1-20.5,1.7c0,7,0,13.6,0,21.3c6.7,0.3,12.9,0.6,20.9,1 c0.3,5.6,0.5,11.2,0.8,17.9c-14.9,0-29.1,0-45.2,0c0-32,0-64,0-96C157.6,331.8,172.6,331.8,187.7,331.8z"></path> <path style="fill:#FFFFFF;" d="M71.6,331.8c0,5.4,0,10.7,0,17.4c-13.7-0.3-13.2,9-13,18.9c0.4,19.8,0.1,39.6,0.1,60 c-6.7,0-11.9,0-19.3,0c0-12.5,0-25.2,0-37.9c0-12.3,0-24.6,0-38.3c-4.8-0.3-8.9-0.5-12.9-0.7c0-6.3,0-12.6,0-19.4 C41.5,331.8,56.6,331.8,71.6,331.8z"></path> <path style="fill:#FFFFFF;" d="M503.6,471.2c0,65.2,0,128.2,0,192.5c-13.6,0-26.6,0-41.7,0c0-47,0-94.4,0-141.9 c-33.5,43.7-12.3,94.5-21.4,142.2c-13.1,0-26.8,0-41.3,0c-9.6-46.7,12.2-98.2-20.3-142.5c0,46.9,0,93.9,0,142.1 c-14.5,0-27.6,0-41.8,0c0-63.4,0-127.2,0-192.8c17.1,0,34.2-0.6,51.1,0.4c4.2,0.3,9.3,5,11.8,9.1c7.2,11.6,13.4,23.8,19.3,34.6 c9.4-14.2,16-35,29.6-42C463.1,465.5,484.1,471.2,503.6,471.2z"></path> <path style="fill:#FFFFFF;" d="M529.5,661.7c0-63.8,0-126.2,0-190.2c26.1,0,51.7-1.1,77.1,0.5c12.7,0.8,23.1,9.4,26.2,23 c4.7,21.2,7.1,42.4-5.9,62c15.5,22.3,9.9,47.6,7.6,71.7c-2.3,24.1-15,33-40,33.1C573,661.8,551.6,661.7,529.5,661.7z M572.3,576.5 c0,16.3,0,32.6,0,48.9c17.9-0.5,21.4-4.8,21.2-24.7C593.3,580.9,589.7,576.8,572.3,576.5z M572,507.5c0,11.4,0,22.9,0,34.5 c13.5,2.5,21.5-1.2,21.7-15.7C593.8,510.6,589.1,506.3,572,507.5z"></path> <path style="fill:#FFFFFF;" d="M140.2,471.6c13.4,0,26.1,0,40.6,0c0,21.9,0,43.7,0,66.3c7.3,0,12.8,0,19.5,0c0-22,0-43.4,0-65.9 c14.2,0,27.3,0,41.3,0c0,63.6,0,127,0,191.6c-12.7,0-25.7,0-40.6,0c0-28.9,0-58.2,0-88.4c-7.3,0-12.8,0-19.5,0c0,28.5,0,59.7,0,88.7 c-14.2,0-27.3,0-41.3,0C140.2,601.5,140.2,535.8,140.2,471.6z"></path> <path style="fill:#FFFFFF;" d="M807.2,506.1c0,11.8,0,21.3,0,32.5c13.6,0,26.7,0,40.6,0c0,12.3,0,22.9,0,35.2c-13,0-26.1,0-40.2,0 c0,18.1,0,34.4,0,52c13.3,0,26,0,39.8,0c0,13.2,0,25.2,0,38.2c-28.2,0-56.3,0-85.1,0c0-64,0-127.4,0-192c28.1,0,56.2,0,85.3,0 c0,11,0,21.9,0,34C834.3,506.1,821.6,506.1,807.2,506.1z"></path> <path style="fill:#FFFFFF;" d="M662.8,471.5c14.5,0,28.3,0,43.2,0c0,51.1,0,101.5,0,153.7c14.2,0,27.3,0,41.4,0 c0,13.8,0,25.8,0,38.8c-27.9,0-55.6,0-84.6,0C662.8,600.7,662.8,536.9,662.8,471.5z"></path> <path style="fill:#FFFFFF;" d="M94.8,664.4c-14.3,0-25.9,0-39.2,0c0-51.5,0-105.6,0-157.5c-8.9,0-16.2,0-24.7,0c0-12,0-23,0-35 c30.1,0,60.3,0,91.4,0c0,10.9,0,21.4,0,33.7c-8.4,0-17.2,0-27.6,0C94.8,558,94.8,612.2,94.8,664.4z"></path> </svg> 