<?xml version="1.0" encoding="UTF-8"?> <svg xmlns="http://www.w3.org/2000/svg" xmlns:xlink="http://www.w3.org/1999/xlink" version="1.1" id="Layer_1" x="0px" y="0px" viewBox="0 0 1000 1000" style="enable-background:new 0 0 1000 1000;" xml:space="preserve"> <path style="fill:#FFFFFF;" d="M687.3,264.6c2.8,4.2,5.7,8.4,8.3,12.8c0.3,0.6-0.5,2-1,2.9c-8.2,14.8-16.4,29.7-24.8,44.5 c-6.7,11.9-13.9,23.5-20.6,35.4c-6.6,11.8-12.6,23.8-19.3,35.5c-2.4,4.1-5.9,7.6-9.1,11.2c-0.6,0.6-2.8,0.8-3.3,0.3 c-5.4-6.2-12.7-5.8-19.8-5.5c-7.7,0.3-15.5,1.4-23.2,1.5c-6.6,0.1-8.7,4.9-10.1,9.5c-4.2,14.2-8.9,28.3-9.2,43.5 c-0.1,6.4-2.3,12.8-3.6,19.7c-0.5,0.2-2,0.5-4,1.1c-3.8-7.6-7.7-15.2-11.5-22.8c-7.9-15.9-15.8-31.8-23.6-47.8 c-1.1-2.3-2.3-3-4.8-2.9c-6.7,0.2-13.5-0.2-20.2-0.1c-7.5,0.1-14.9,0.2-22.3,0.7c-2,0.1-4,1.7-5.9,2.8c-1.6,0.9-3,2.1-5.5,4 c-0.2-3.9-0.3-6.4-0.5-9.3c-1.9,0-3.5,0-5.2,0c-22.8,0-45.7-0.2-68.5,0.2c-4.7,0.1-7.3-1.6-9.3-5.4c-6.3-11.7-12.8-23.4-19.3-35 c-5.5-9.9-11.3-19.6-16.8-29.6c-5.3-9.7-10.2-19.6-15.5-29.3c-4-7.3-8.3-14.5-12.7-21.6c-1.7-2.8-1.9-5.3,0.3-7.9 c2.5-2.8,4.9-5.7,7.3-8.5c0.9,0,1.8,0,2.8,0c1.9,0.4,3.7,1.1,5.6,1.1c30.5,0.1,61,0,91.5,0.1c2.4,0,4.9,0.4,7.2,1.1 c11.8,3.6,23.6,7.4,35.3,11.1c1,0.3,2.2,0.8,2.6,1.6c4,6.6,7.9,13.3,11.6,20c3.4,6.2,6.5,12.7,9.9,18.9c4.5,8.2,9,16.5,13.7,24.6 c1.7,2.9,4.1,5.5,6.5,8.7c3.8-6.6,7.3-12.3,10.5-18.2c4.1-7.4,7.9-15,12-22.4c5.5-9.9,11.1-19.8,16.9-29.5c1-1.7,3.1-3.2,5-3.9 c8.1-2.7,16.3-4.8,24.4-7.6c7-2.4,13.8-4.6,21.4-4.6c29.6,0.2,59.2,0.1,88.8,0c2.1,0,4.1-0.7,6.2-1.1 C686.1,264.6,686.7,264.6,687.3,264.6z"></path> <path style="fill:#FFFFFF;" d="M20.1,574.5c0.7-4.5,1.3-9,2-13.4c1.6-10.4,3.2-20.7,4.8-31.1c3.3-21.6,6.5-43.1,9.9-64.7 c2.2-13.7,4.6-27.4,6.9-41.1c0.5-3.1,0.8-6.3,2-9.1c0.6-1.5,3-3.1,4.6-3.2c6.6-0.3,13.2-0.1,19.8,0c1.2,0,2.6,0.3,3.6-0.1 c4.2-2,6.4,0.4,8.5,3.5c1.7,2.4,2.1,4.2-1.2,5.6c-0.7,0.3-1.2,1.9-1.3,2.9c-1.4,9.1-2.7,18.2-4.1,27.3c-2.5,16.1-5,32.3-7.7,48.4 c-1.6,9.6-3.7,19.1-5.3,28.7c-1.1,6.5-2,13-2.9,19.5c-1.3,8.9-2.6,17.8-3.7,26.7c-0.5,4.1-3.3,5-6.4,5.1c-6.8,0.2-13.7,0.6-20.5,0 c-3.1-0.3-6-2.7-9-4.2C20.1,575.1,20.1,574.8,20.1,574.5z"></path> <path style="fill:#FFFFFF;" d="M369.6,587.4c1.1,5.6,1.7,10.1,2.7,14.4c1.9,7.7,9.8,14.1,18.4,14.3c11,0.2,22,0.1,33.1,0 c0.9,0,1.9,0,2.7-0.4c3.1-1.5,6.2-1.2,9.7-1c13.4,1,26.9,1.4,40.3,1.2c7.7-0.1,15.1-8,16.6-15c1.9-9.3,2.6-18.8,4-28.2 c0.8-5.2,1.7-10.4,3-15.5c0.3-1.4,2.2-3.5,3.2-3.4c1.4,0.1,3.1,1.8,3.8,3.2c7.6,14.8,15.2,29.6,22.4,44.6 c4.9,10.3,12.9,14.8,24,14.7c10.2-0.1,20.5,0.1,30.7-0.2c4.2-0.1,8.3-1.4,12.5-2.2c0.6-0.1,1.3-0.4,1.7-0.2 c9.3,4.6,19.3,2.1,28.9,2.5c5.4,0.3,10.9-0.7,16.4-1.1c4.4-0.4,5,3.6,6.4,6.1c6.8,11.7,13.3,23.5,19.8,35.3 c8.2,14.9,16.3,29.7,24.3,44.7c0.8,1.6,0.3,4.2-0.4,6.1c-0.7,2.1-2,4.2-3.6,5.7c-1.3,1.3-3.3,2.5-5,2.5c-43.4,0.1-86.8-0.1-130.2,0 c-5.4,0-7.8-2.3-10-6.7c-3.9-7.7-8.4-15.1-12.6-22.6c-5.4-9.7-10.7-19.4-16-29.1c-4.7-8.4-9.4-16.8-14.2-25.2 c-1.5-2.6-3.6-2.2-5.3,0.9c-4.1,7.4-8,14.9-12.1,22.3c-6.5,11.7-13,23.2-19.5,34.9c-4.2,7.5-8,15.3-12.5,22.6c-1,1.6-4,2.6-6.1,2.6 c-21.3,0.2-42.6,0.1-64,0.1c-22.5,0-45.1,0-67.6,0.1c-6.1,0-12.4-9.3-9.6-14.6c6.2-11.7,12.7-23.1,19.1-34.7 c4.2-7.7,8.4-15.4,12.7-23c5.9-10.2,12-20.3,17.8-30.6c3.6-6.4,6.9-13.1,10.4-19.6C366.6,591.1,368,589.6,369.6,587.4z"></path> <path style="fill:#FFFFFF;" d="M193.1,521.5c1.2-7.8,2.5-15.6,3.6-23.4c2.6-17.8,5.3-35.6,7.9-53.4c1.2-8.1,2.3-16.3,3.3-24.4 c0.5-3.8,2.3-5.9,6.2-5.8c2.9,0,5.8,0,8.7,0c6.9,0,13.7,0,21,0c0-0.1,0.5,0.7,0.3,1.3c-3.9,13.9-5.8,28.2-6.9,42.6 c-0.6,7.2-2.8,14.3-3.9,21.5c-2.1,13.2-4,26.5-6.1,39.7c-1.4,8.7-3,17.4-4.5,26.2c-1.6,9.6-3,19.3-4.7,28.8 c-0.2,1.3-2.1,3.3-3.2,3.3c-12.2,0.2-24.5,0.1-35.8,0.1c-17.9-34.5-35.4-68.2-52.9-102c-0.5,0-1,0.1-1.4,0.1 c-0.8,4.3-1.6,8.6-2.4,13c-1.8,10.2-3.7,20.3-5.4,30.5c-1.4,8.7-2.4,17.5-3.9,26.2c-1.7,10.1-3.6,20.1-5.6,30.1 c-0.2,0.8-1.6,2-2.5,2c-10.2,0.1-20.5,0.1-30.6,0.1c1.8-11.2,3.6-21.9,5.2-32.7c2.1-14.5,4-28.9,6-43.4c1.9-13.1,4-26.2,5.8-39.3 c1.9-13.6,3.5-27.2,5.1-40.8c0.6-5.1,3.6-7.6,8.7-7.5c10.6,0.3,21.3,0.2,31.9,0.4c0.9,0,2.2,1,2.6,1.9c4.4,8.7,8.7,17.6,13,26.3 c4.2,8.6,8.6,17.1,12.8,25.7c4.3,8.8,8.6,17.6,12.9,26.4c2.3,4.7,4.8,9.4,6.9,14.2c1.2,2.7,1.8,5.7,2.9,8.5c0.7,1.6,1.9,3.1,2.9,4.6 C191.8,522.1,192.4,521.8,193.1,521.5z"></path> <path style="fill:#FFFFFF;" d="M491.1,474c-1.1,3.5-2.7,6.9-3.3,10.5c-2.3,14.2-4.3,28.5-6.4,42.7c-1.9,13.2-3.8,26.4-5.8,39.6 c-0.5,3.1-1.2,6.2-2.1,9.3c-0.2,0.8-1.4,1.9-2.1,1.9c-9.8,0.1-19.5,0.1-29.8,0.1c2-11.9,3.9-23,5.6-34.2c1.6-10.2,3.1-20.4,4.6-30.6 c1.3-9.2,2.6-18.3,3.9-27.5c1.5-10.2,2.8-20.4,4.4-30.6c1.5-9.6,3.3-19.1,4.9-28.7c0.3-1.9,0.7-3.9,0.6-5.9 c-0.2-3.7,1.8-5.1,4.9-5.1c11.9-0.1,23.9,0,35.9,0c17.5,36.2,34.8,72.1,52.7,109.3c1.2-4.1,2.5-7.2,3.1-10.5 c2-11.8,3.8-23.7,5.5-35.5c2.3-15.8,4.3-31.6,6.6-47.3c0.6-4.4,1.4-8.7,2.6-13c0.3-1.2,2.4-2.7,3.7-2.8c5.7-0.3,11.3-0.2,17-0.2 c4.1,0,8.2,0,12.4,0c-0.7,3.8-1.5,8-2.1,12.1c-3,18.3-5.9,36.5-8.9,54.8c-1.6,9.6-3.7,19-5.2,28.6c-1.5,9.8-2.5,19.6-4,29.4 c-1.5,9.7-3.2,19.4-4.9,29.1c-1.6,8.7-1.6,8.7-10.9,8.7c-8.1,0-16.3,0-24.4,0c-2.6,0-4-0.8-5.4-3.6c-7.5-15.1-15.7-29.9-23.5-44.9 c-4.1-7.9-7.6-16.1-11.6-24c-4.3-8.5-8.8-16.9-13.1-25.4c-1-2-1.8-4.2-2.8-6.3C492.5,474,491.8,474,491.1,474z"></path> <path style="fill:#FFFFFF;" d="M405.6,416.5c-1.2,9.1-2.3,17.8-3.6,26.5c-1.1,7.3-2.4,8.2-9.9,8.3c-31.2,0.3-62.5,0.6-93.7,0.9 c-6.1,0.1-9.3,3.7-9.4,11.3c-0.1,4.5,0.5,9.1,0.8,14.6c28.1,1.7,56.1,0.1,85,1.1c-1.4,7.5-2.8,14.6-4,21.6c-0.5,3-0.4,6-0.8,9 c-0.5,3.7-2.3,5.2-6.4,5.1c-13.9-0.1-27.8,0.5-41.7,0.6c-9.4,0.1-18.9-0.3-28.3-0.3c-3.5,0-7.1,0-10.5,0.7c-1.3,0.3-2.9,2.6-3.2,4.1 c-2.3,14.4-4.3,28.8-6.4,43.2c-0.6,3.9-1.5,7.7-1.8,11.7c-0.2,3-1.8,3.5-4.2,3.5c-7.4,0-14.7,0-22.1,0c-2.7,0-5.4,0-8.7,0 c0.4-2.4,1-5,1.4-7.6c1.7-11.9,3.2-23.8,5-35.6c1.4-9.4,3.3-18.8,4.8-28.2c1.6-9.7,2.9-19.5,4.4-29.2c2.2-14.3,3.8-28.8,7-43 c2.8-12.5,12-21.2,26.2-20.2c6.6,0.5,13.2,0.1,19.8,0.2c33,0.6,66,1.2,99,1.8C404.6,416.4,405.2,416.5,405.6,416.5z"></path> <path style="fill:#FFFFFF;" d="M979.9,415.6c-2.5,17-4.9,32.9-7.3,48.7c-1.6,10.8-3,21.5-4.9,32.3c-1.3,7.7-8,16.2-18.6,15.6 c-9-0.5-18.1-0.2-27.1-0.1c-8.4,0.1-13,3.9-14.2,12.2c-1.2,8.6-2.1,17.2-3.3,25.8c-1.1,7.5-2.4,15-3.6,22.5c-0.6,4-2.4,5.9-7,5.7 c-7.3-0.4-14.7-0.1-22.1-0.1c-1.5,0-2.9,0-4.5,0c3-18.3,5.9-35.9,8.7-53.6c1-6-3.8-11.7-9.9-11.8c-8.7-0.1-17.5,0.2-26.2-0.1 c-4.1-0.1-8.2-0.8-12-2c-1.5-0.5-3.3-3.4-3.2-5.1c0.6-8.5,1.7-16.9,2.8-25.3c1.3-9.9,2.9-19.8,4.4-29.6c1.2-7.5,2.5-15,3.7-22.4 c0.4-2.7,0.3-5.5,1.1-8.1c0.5-1.7,2.2-4.3,3.5-4.4c9.9-0.4,19.9-0.2,30-0.2c-1,6.7-1.8,13-2.8,19.2c-1.6,9.7-3.8,19.3-4.8,29.1 c-0.4,4.1,1.2,8.5,2.7,12.5c0.4,1.3,3.2,2.4,4.9,2.4c20.1,0.2,40.2,0.2,60.3,0c5.3,0,9.5-6,10.3-12.6c1.1-9.3,2.8-18.6,4.2-27.9 c1-6.4,1.9-12.9,3.1-19.3c0.2-1.2,1.5-3.2,2.4-3.2C960,415.5,969.7,415.6,979.9,415.6z"></path> <path style="fill:#FFFFFF;" d="M712.5,578.1c1.5-10.3,2.8-19.6,4.3-28.9c1.4-8.4,3-16.8,4.3-25.2c1.7-11,3.2-22,4.8-33 c1.3-8.8,2.5-17.7,4.2-26.5c1.1-5.7-3.1-12.4-8.8-12.5c-9.9-0.2-19.8,0-29.8-0.1c-5-0.1-9.9-0.5-15.4-0.8c1-5.4,2-10.4,2.9-15.5 c0.9-5.4,2.1-10.7,2.6-16.1c0.3-3,1.6-4,4.3-4c0.6,0,1.2,0,1.8,0c44,0,88,0.1,132,0.1c1.9,0,3.8-0.5,6-0.8c-0.5,3.9-1,7.5-1.6,11.1 c-1.2,7.2-2.4,14.3-3.6,21.5c-0.6,3.6-3.3,4.6-6.4,4.6c-11,0-22.1,0-33.1,0c-0.5,0-0.9-0.1-1.4-0.1c-13.7-0.2-15.5,1.1-17.7,14.5 c-2.5,15.3-4.4,30.7-6.9,46c-2.1,13.3-4.6,26.6-6.8,39.8c-0.6,3.6-0.8,7.3-1.3,10.9c-0.6,4.3-1.3,8.7-2.3,13c-0.2,0.9-1.6,2-2.4,2.1 C732.5,578.2,722.5,578.1,712.5,578.1z"></path> <path style="fill:#FFFFFF;" d="M603.9,579c1.5-9.6,2.9-17.7,4.1-25.8c1.7-10.8,3.3-21.7,4.8-32.5c1.6-11.6,2.9-23.3,4.6-34.9 c2.2-14.9,4.6-29.8,6.9-44.7c1.1-7.5,2.1-15.1,3.2-22.6c0.5-3.7,3.5-4.7,6.3-4.7c6.9-0.1,13.8,0.4,20.7,0.4c2.4,0,4.8-0.8,7.2-0.9 c1-0.1,2.6,0.1,3,0.8c0.5,0.8,0.2,2.3-0.2,3.3c-0.5,1.5-1.9,2.8-2.1,4.3c-1.9,13.2-3.6,26.5-5.6,39.7c-1.5,10.1-3.2,20.2-4.8,30.3 c-1.5,9.3-2.7,18.7-4.3,28c-1.5,9.1-3.3,18.2-4.9,27.4c-1.5,8.8-3.2,17.7-4.2,26.6c-0.4,4-2.3,5.4-5.8,5.4 C623.3,579.1,613.7,579,603.9,579z"></path> <path style="fill:#FFFFFF;" d="M412.6,416.5c11.9,0,23.2,0,33.9,0c-1.6,9.6-3.3,19.2-4.8,28.9c-1.7,10.5-3.3,21.1-4.9,31.6 c-1.4,9.3-2.6,18.7-4.3,28c-1.1,6.2-2.7,12.4-4.1,18.5c-0.2,0.7-0.4,1.5-0.5,2.2c-1,7.1-2,14.1-2.9,21.2c-1,8.4-1.9,16.8-2.9,25.2 c-0.7,6.2-1.4,6.8-7.8,6.7c-9.3,0-18.6,0-27.8,0C397.1,525.7,403.4,470.9,412.6,416.5z"></path> </svg> 