<?xml version="1.0" encoding="UTF-8"?> <svg xmlns="http://www.w3.org/2000/svg" xmlns:xlink="http://www.w3.org/1999/xlink" version="1.1" id="Layer_1" x="0px" y="0px" viewBox="0 0 1000 1000" style="enable-background:new 0 0 1000 1000;" xml:space="preserve"> <g> <path style="fill:#FFFFFF;" d="M371.9,413.7v-73.9h155.9v174.1c-15.7,18.5-38,34.4-66.8,47.7c-28.8,13.3-57.7,20-86.8,20 c-35.4,0-66.6-8.7-93.6-26.1c-27-17.4-48.4-43.4-64.2-78.1c-15.8-34.7-23.7-75.5-23.7-122.4c0-48.1,8-89.2,24-123.4 c16-34.2,36.8-59.7,62.3-76.6c25.5-16.9,56.1-25.3,91.7-25.3c42.7,0,77,10.9,102.7,32.6c25.7,21.8,42.3,53.7,49.6,95.8l-71.5,16.4 c-5.4-22.5-15.2-39.6-29.5-51.6C407.7,211,390.6,205,370.8,205c-30.8,0-55.7,12-74.8,35.9c-19.1,24-28.6,60.5-28.6,109.6 c0,52.7,10.3,92.7,31,120.1c17.7,23.7,41.6,35.5,71.8,35.5c14.1,0,28.8-3.3,44-10c15.2-6.6,28.8-15.7,40.7-27.2v-55.3H371.9z"></path> <path style="fill:#FFFFFF;" d="M578.2,411.3c0-31.1,6.2-59.3,18.5-84.8c12.3-25.5,28.4-44.6,48.3-57.3 c19.9-12.7,42.2-19.1,67.1-19.1c41.7,0,74.5,16.4,98.4,49.1c23.8,32.8,35.8,71,35.8,114.8c0,32.7-6.2,62.1-18.6,88.4 c-12.4,26.3-28.7,46-48.9,59.3c-20.2,13.2-42.3,19.9-66.3,19.9c-38.6,0-70.6-14.7-96-44.2C591,507.9,578.2,465.9,578.2,411.3z M648.6,415.8c0,32.1,6.3,56.4,18.8,72.8c12.5,16.4,27.7,24.7,45.4,24.7c17.3,0,32.2-8.3,44.5-24.8s18.5-41,18.5-73.3 c0-31.5-6.3-55.5-18.8-72.1c-12.5-16.5-27.6-24.8-45.1-24.8c-17.3,0-32.2,8.3-44.7,24.8C654.8,359.7,648.6,383.9,648.6,415.8z"></path> </g> <g> <path style="fill:#FFFFFF;" d="M280.9,800.7v-32.7h70.2V845c-7.1,8.2-17.1,15.2-30.1,21.1c-13,5.9-26,8.8-39,8.8 c-15.9,0-30-3.8-42.1-11.5c-12.2-7.7-21.8-19.2-28.9-34.6c-7.1-15.4-10.7-33.4-10.7-54.2c0-21.3,3.6-39.5,10.8-54.6 c7.2-15.1,16.5-26.4,28-33.9c11.5-7.5,25.2-11.2,41.3-11.2c19.2,0,34.6,4.8,46.2,14.5c11.6,9.6,19,23.8,22.3,42.4l-32.2,7.3 c-2.4-9.9-6.8-17.6-13.3-22.8c-6.4-5.3-14.1-7.9-23.1-7.9c-13.9,0-25.1,5.3-33.7,15.9c-8.6,10.6-12.9,26.8-12.9,48.5 c0,23.3,4.6,41.1,14,53.2c8,10.5,18.7,15.7,32.3,15.7c6.3,0,12.9-1.5,19.8-4.4c6.8-2.9,12.9-7,18.3-12v-24.5H280.9z"></path> <path style="fill:#FFFFFF;" d="M373.8,799.6c0-13.8,2.8-26.3,8.3-37.6c5.5-11.3,12.8-19.7,21.7-25.4c8.9-5.6,19-8.5,30.2-8.5 c18.8,0,33.5,7.3,44.3,21.8c10.7,14.5,16.1,31.5,16.1,50.8c0,14.5-2.8,27.5-8.4,39.1c-5.6,11.6-12.9,20.4-22,26.2 c-9.1,5.9-19,8.8-29.9,8.8c-17.4,0-31.8-6.5-43.2-19.6C379.5,842.4,373.8,823.8,373.8,799.6z M405.4,801.6c0,14.2,2.8,25,8.5,32.2 c5.6,7.3,12.5,10.9,20.4,10.9c7.8,0,14.5-3.7,20-11c5.6-7.3,8.3-18.1,8.3-32.4c0-13.9-2.8-24.6-8.5-31.9c-5.6-7.3-12.4-11-20.3-11 c-7.8,0-14.5,3.7-20.1,11C408.2,776.7,405.4,787.5,405.4,801.6z"></path> <path style="fill:#FFFFFF;" d="M541.7,774.1l-28-6.1c3.4-14.2,9-24.4,16.8-30.6c7.8-6.2,19.1-9.3,33.7-9.3c13.1,0,23,1.8,29.9,5.4 c6.9,3.6,11.8,8.5,14.8,14.7c3,6.2,4.4,17.5,4.4,33.9l-0.3,43.3c0,12.2,0.5,21.2,1.5,27.2c1,5.9,2.8,12.3,5.5,19h-30.6l-4-15.3 c-5.3,6.2-10.9,10.8-17,13.9c-6,3.1-12.5,4.7-19.3,4.7c-11.4,0-20.7-3.8-27.9-11.3c-7.2-7.5-10.9-17.6-10.9-30.1 c0-7.9,1.5-14.8,4.4-20.8c3-5.9,7.1-10.6,12.5-14.1c5.4-3.5,14-6.7,25.8-9.4c14.3-3.3,24.3-6.3,29.9-9.1c0-7.8-0.6-12.9-1.7-15.3 c-1.1-2.4-3.2-4.4-6.2-6c-3-1.5-7.2-2.3-12.7-2.3c-5.5,0-9.9,1.2-13.1,3.7C546.3,762.7,543.7,767.3,541.7,774.1z M583.1,804.4 c-3.9,1.6-10.1,3.4-18.4,5.6c-9.6,2.5-15.8,5.2-18.8,8.2c-3,3-4.4,6.9-4.4,11.7c0,5.4,1.6,9.9,4.9,13.6c3.3,3.7,7.4,5.5,12.3,5.5 c4.4,0,8.7-1.5,13-4.4c4.3-3,7.3-6.5,8.9-10.5c1.7-4.1,2.5-11.4,2.5-22.1V804.4z"></path> <path style="fill:#FFFFFF;" d="M644,871.7V678.2h31v193.5H644z"></path> </g> </svg> 