<?xml version="1.0" encoding="UTF-8"?> <svg xmlns="http://www.w3.org/2000/svg" xmlns:xlink="http://www.w3.org/1999/xlink" version="1.1" id="Layer_1" x="0px" y="0px" viewBox="0 0 1000 1000" style="enable-background:new 0 0 1000 1000;" xml:space="preserve"> <path style="fill:#FFFFFF;" d="M714.3,802.8c-0.2,0-0.5,0-0.7,0c0.4-1.2,0.5-3,1.4-3.7c3.7-2.7,7.7-4.9,11.4-7.5 c9-6.3,18-12.6,26.8-19.2c10-7.5,19.8-15.3,29.6-22.9c2.1-1.7,4.2-3.5,6.7-5.5c-1.6-0.5-2.4-0.7-3.3-0.9 c-33.1-7.2-66.1-14.4-99.2-21.6c-2.4-0.5-4.7-0.9-6-3.6c-0.3-0.7-1.8-1-2.8-1.2c-2.5-0.4-5.2-0.3-7.6-0.9c-4-0.9-7.9-2.6-12-3.4 c-6.3-1.2-12.7-1.7-19.1-2.8c-6.7-1.1-13.3-2.8-20-3.9c-7.7-1.2-15.4-2-23.2-2.8c-2.6-0.3-5.2,0-7.7-0.5c-5.9-1.2-11.7-3.2-17.7-4 c-9.7-1.2-19.5-1.8-29.3-2.3c-16.3-0.9-32.5-1.7-48.8-2.2c-20.1-0.5-40.1-0.7-60.2-0.8c-10.5,0-21,0.4-31.4,0.7 c-0.7,0-1.4,0.4-2.1,0.6c-2.2,0.5-4.4,1.1-6.6,1.3c-2.1,0.1-4.2-0.5-6.2-0.4c-11.3,0.8-22.7,1.7-34,2.6c-8.5,0.7-17,1.4-25.6,2 c-4.1,0.3-8.3,0.1-12.4,0.5c-6.7,0.6-13.4,1.6-20.2,2.1c-4.2,0.3-8.5,0.1-12.7,0.2c-5.7,0.1-11.4,1.2-17.2,0.9 c-3.3-0.2-6.6,0.9-9.9,1.2c-11.6,1.2-23.2,2.5-34.8,3.6c-15.8,1.4-31.6,3-47.4,3.8c-15.1,0.8-30.2,1-45.3,1 c-6.1,0-12.3-0.7-18.2-2.3c-7.4-2-14.3-5.8-21.7-7.9c-16.4-4.6-27.6-16-37.2-28.9c-9-12.1-6.7-28.6,4.4-38.1 c11.1-9.4,27.1-8.8,38,1.6c2.6,2.5,4.8,5.4,7.5,7.7c1.8,1.5,4.1,2.7,6.3,3.3c4.6,1.3,9.4,2.1,14.1,3.1c3.9,0.8,7.9,2.1,11.9,2.2 c19.2,0.2,38.4,0.5,57.6,0c10.5-0.3,20.9-2.3,31.4-3.4c19-2,38.1-3.8,57.2-5.7c0.7-0.1,1.5,0,2.2-0.1c10.8-0.4,21.6-0.8,32.4-1.2 c0.5,0,0.9-0.3,1.4-0.3c5.7-0.8,11.5-2,17.2-2.3c8.2-0.4,16.5-0.2,23.7-3.9c-0.9,0-2.2-0.1-3.6-0.2c-15.7-0.9-31.5-1.6-47.2-2.8 c-15-1.2-25.9-13.6-25.8-28.4c0.1-5.9-0.1-11.8-0.2-17.6c-0.2-9.7-0.5-19.5-0.7-29.2c-0.2-6.8-0.4-13.7-0.7-20.5 c-0.5-11.7-1-23.3-1.5-35c-0.1-3-0.2-5.9-0.3-8.9c-0.4-13.9-3.5-27.8-0.6-41.3c-9.5-3-18.9-6-28-8.9c0.2,0.3,0.6,0.9,1,1.5 c8.2,12,6.9,27.1-3.7,37c-3.1,2.9-6.8,5.3-10.4,7.7c-8.8,6.1-18.1,11.5-26.5,18.2c-13.6,10.8-26.5,22.4-39.8,33.6 c-2.4,2-1.9,3,0.6,4.5c10.5,6.3,21,12.7,31.3,19.2c13.5,8.4,26.8,17.2,40.3,25.5c8.9,5.5,11.9,12.4,9.5,22.1c-2,8.3-7,13.8-14.2,18 c-10.2,5.9-20.5,5.7-30.8,0.5c-3.9-2-7.1-5.1-10.9-7.4c-13-8.2-26-16.4-39.1-24.5c-6.4-4-12.9-8-19.4-11.9c-1.2-0.7-2.7-0.9-4-1.3 c-0.3,1.6-0.5,3.3-0.8,4.9c0,0.1,0.1,0.2,0.1,0.4c0.4,10.2,0.9,20.3,1.2,30.5c0,1.7-0.7,3.6-1.5,5.2c-3.4,6.3-8.5,10.9-14.9,14.1 c-3.1,1.6-6,1.5-9.1,0c-8.3-4-14.3-10.3-19.9-17.6c-7.6-10.1-12.5-21.1-13.8-33.5c-1.3-13.2-1.9-26.5-2.8-39.7 c-0.3-4.1-0.7-8.3-1.4-12.4c-0.9-5.4-2.4-10.8-3-16.2c-1.1-11.4-1.5-22.8-2.8-34.1c-0.8-7,1.9-12.5,6.3-17.2 c4.5-4.8,9.9-8.9,16.7-9.9c0-0.5,0-0.6-0.1-0.7c-2.1-1.9-4.1-3.9-6.2-5.7c-12.4-10.8-17.5-24.7-17.6-40.8 c-0.1-15.6,10.5-27.8,25.2-29.3c14.9-1.5,27.8,8.5,30.8,23.9c1.3,6.7,4,9.2,11.4,9.9c1.3-8.1,0.8-16.1-0.6-24.2 c-1.7-9.9-7-15.8-16.8-18.9c-17.3-5.5-34.2-12.1-49.6-21.9c-16.6-10.6-28-25-29.7-45.3c-0.7-7.6,0-15.5,1.2-23.2 c2.5-17,10-31.2,24.4-41.5c16.4-11.7,34.2-16.3,54.1-12.5c21.1,4,39.3,12.7,52.7,30c7.7,10,12.3,21.1,11.6,33.9 c-0.7,14.3-11.2,25.4-24.6,26.7c-14.5,1.5-26.8-6.9-30.5-21.2c-1-3.9-2.6-7.6-6.3-9c-5.3-2.1-10.9-3.7-16.5-4.8 c-3.5-0.7-7.5,2.3-8.6,5.2c-2.9,8-1.8,11.3,5.6,15.4c1.1,0.6,2.1,1.3,3.3,1.7c11.6,4.7,23.2,9.6,34.9,14c23.2,8.6,39.5,24,46.8,47.8 c2.8,9.4,4.5,19.2,5.5,29c1.7,17.2-0.6,34-7.5,49.9c-6.2,14.3-17.1,23-32.5,25.5c-5.6,0.9-11.3,0.6-16.9,1c-1.3,0.1-2.6,0.7-4,1.1 c-0.3-0.5-1-1.3-2-2.8c0.9,9.9,1.6,18.5,2.4,27.7c2.2-1.4,4.2-2.5,6-3.9c8-6.4,16.4-12.3,23.8-19.4c14.8-14.3,31.6-25.9,48.8-37 c9.6-6.2,19.3-10.4,31.6-6.1c-0.9-1.2-1.2-1.7-1.6-2.1c-11.9-10.5-18.2-24.2-20.9-39.4c-2.8-16.3-5-32.6-7-49 c-3.5-28-6.6-56.1-9.9-84.1c-1.3-10.9,1.3-20.5,10.1-27.5c8.3-6.7,17.9-8.2,27.8-4.4c10.8,4.1,16.3,12.7,18.1,23.8 c0.9,5.6,1.3,11.3,1.9,16.9c3.1,26.6,6.1,53.2,9.4,79.7c1.4,11.4,3.4,22.7,5.2,34c1,6.4,4.6,10.4,11.2,11.6 c5.2,0.9,10.4,2.1,15.6,2.9c3.5,0.5,7.7,0.5,9.5-2.7c3.4-5.8,7.2-11.9,8.2-18.3c1.2-7.9,0.5-16.3-0.8-24.3 c-2.7-15.9-3.1-31.9-3.8-47.9c-0.7-14.8-2.1-29.5-3.6-44.2c-0.8-8.3-0.5-16.3,4.4-23.4c6.3-9.2,17.6-14,28.4-11.7 c12.4,2.7,19.9,10.6,22.5,22.8c3.6,16.7,4.5,33.7,5,50.7c0.4,11.9,0.2,24,1.9,35.8c2,13.6,2.7,27.2,3.1,40.9c0.2,9.1-1.2,18-5,26.3 c-4.1,8.9-8.4,17.7-12.7,26.7c0.7-0.1,1.7-0.2,2.7-0.3c4.4-0.5,8.7-0.9,13.1-1.3c1.8-0.2,3.7,0.1,5.6-0.2c5.6-0.7,11.1-1.5,16.6-2.2 c0.9-0.1,1.8-0.3,2-0.3c-1.4-5.3-3.2-10.2-3.8-15.2c-1.2-9.5-2-19.1-2.5-28.7c-0.8-15.1-1.3-30.3-1.9-45.5 c-1.1-26.4-2.3-52.7-3.2-79.1c-0.4-11.4,4.3-20.6,14.5-25.9c4.7-2.4,10.3-3.7,15.5-4c13.3-0.8,26.6-0.5,39.9-1c15-0.7,30-0.4,45,0.9 c22.3,2,39.8,12.1,53.1,29.7c9.6,12.7,10.7,27.6,9.8,42.7c-1.6,28.2-21.2,50.8-49.2,54.8c-14.3,2-29,1.1-43.5,1.4 c-8,0.1-15.9,0-24.8,0c0.7,10.1,1.3,19.5,2.2,28.9c1.2,13.2,3.7,26.5-2.4,39.2c1.2,1,2.3,2.1,3.5,2.8c11.2,6.1,14.2,22.1,8.1,31.8 c-5.1,8.1-11.9,13.6-21.3,15c-8.1,1.3-16.4,1.5-24.6,2.1c-8.1,0.6-16.2,1-24.3,1.6c-13.7,1.1-27.3,2.3-41,3.5 c-1.9,0.2-3.8,0.6-5.7,0.9c0,5.6-0.4,10.8,0.1,15.8c0.5,5.1,0.3,8.5,8.1,6.9c0.7-0.1,1.5-0.1,2.2-0.2c11-0.7,22-1.3,33.1-2 c4.3-0.3,8.6-0.4,12.9-0.8c8.3-0.8,16.5-0.7,24.3,2.6c2.4,1,4.6,2.7,7.5,4.5c-1.8,0.4-2.4,0.5-3.7,0.8c1.3,0.4,2.3,0.5,2.5,0.9 c1.6,3.8,3.5,7.5,4.5,11.5c1.5,5.8-1.2,10.7-4,15.7c-4.8,8.4-12.1,13.3-21.3,14.4c-12.9,1.5-25.9,1.6-38.9,2.5 c-7.6,0.5-15.1,1.3-22.7,2.2c-0.9,0.1-2.2,1.4-2.3,2.1c-0.2,5.8-0.2,11.6,0.2,17.4c0.1,1.2,2.3,3.1,3.6,3.2 c6.8,0.3,13.4-0.7,20.3-0.2c8.9,0.7,18-1.1,27.1-1.6c10.5-0.5,21.1-0.5,31.7-1.2c8.8-0.5,17.4-1.6,25,4.8c3.9,3.3,7.5,6.6,8.9,11.5 c1.3,4.6,1.9,9.3,2.9,13.9c1.5,6.9,0.7,13.5-2.6,19.7c-0.5,1-1.1,2-1.5,2.8c8.7,0,17,0.1,25.3,0c10.9-0.2,21.8-0.6,32.7-0.9 c0.3,0,0.5-0.3,1.3-0.8c-1-0.5-1.6-1-2.3-1.2c-3.4-0.9-7-1.3-10.2-2.7c-8.1-3.6-13.1-8.9-13.7-18.9c-0.5-7.7,0-15.5,0-23.3 c0-45.4-0.1-90.8,0.1-136.2c0-4,0.8-8.4,2.7-11.9c5.1-9.8,13-16.1,24.7-16.6c5.1-0.2,10.2-0.8,15.3-0.6c3.7,0.1,8.5-0.1,10.9,2 c5.3,4.6,10,10.3,14,16.1c6.6,9.8,12.5,20,18.7,30c9,14.3,20,27,31.7,39.1c0.4,0.4,0.8,0.7,1.4,1c1-25.2,1.9-50.1,2.8-75.1 c-0.6-0.1-1.3-0.3-2-0.4c-12.5-1.6-22-7.4-27.1-19.4c-0.3-0.7-0.7-1.3-1.1-1.9c-3.8-5.6-5.5-11.8-5.6-18.5c-0.4-35-0.7-70-1.2-105 c-0.1-4.5-0.6-9.1-1.5-13.5c-2.6-13,0.6-23.7,11.5-31.7c1.3-0.9,2.5-2,3.5-3.2c5.8-6.8,13.2-10.4,22-10.3 c12.1,0.2,24.1,0.6,36.2,1.7c15.1,1.3,30,4.4,45.2,3.9c9.5-0.3,19-0.1,28.4,0.8c11.5,1.1,20.6,9.6,23.5,20.7 c4.7,18.2-8.4,34.8-28.5,35.1c-23.4,0.4-46.8,0.6-70-3.6c-4.3-0.8-8.7-1-13.3-1.5c0,5.8,0,11,0,16.9c5.7,0,11.1,0,16.5,0 c14.9,0,29.8-0.4,44.7,0.3c15.1,0.7,26.2,12.3,26.7,26.6c0.5,15.2-9.6,27.6-25.1,29.1c-11.5,1.1-23.1,0.7-34.7,0.9 c-8.9,0.1-17.9,0-26.9,0c0,5.7,0,11.4,0,17.4c3.2,0,6,0.1,8.8,0c16-0.5,32-1.4,48-1.6c11.8-0.1,23.7-0.3,35.4,1.1 c18.5,2.3,29.1,21.1,22.4,38.1c-4.5,11.4-15.1,17.9-28.9,17.8c-10.7-0.1-21.4-0.2-32.2-0.3c-3.3,0-6.6,0.3-10,0.5 c-0.3,4.7-0.5,9.1-0.8,13.5c-0.1,2.1-0.4,4.1-3,3.9c0,9.7,0,19.4,0,29.2c0,1.5,0.1,3,0.2,4.4c0.1,3.6,0.9,7.4,0.3,10.9 c-1.3,8.2-1.4,16.6-2.6,24.9c-1.8,12.1-1.1,24.6-1.2,36.9c-0.1,7.3,0.5,14.5,0.5,21.8c0,4.5,0.6,9.5-1.1,13.5 c-1.4,3.4-1.3,6.5-1.9,9.8c-0.8,4.2-1.5,8.7-3.6,12.2c-6.3,10.3-15,16.7-27.9,15.9c-10.5-0.6-18.6-5.1-24.5-13.5 c-8.9-12.8-17.4-25.8-26.2-38.6c-8.8-12.7-17.7-25.3-26.6-37.9c-2.3-3.3-5-6.3-8.1-10.1c-0.3,1.7-0.5,2.3-0.5,3 c-0.2,12.4-0.5,24.9-0.7,37.3c-0.1,9.4,0,18.7-0.1,28.1c-0.2,8.9-1.7,17.3-9,23.5c-1,0.9-1.4,2.4-1.9,3.3c-2.2,1.2-4.2,2.3-6.1,3.3 c0,0.4,0,0.7,0,1.1c1.1,0.2,2.2,0.7,3.2,0.6c3.9-0.2,7.9-1,11.8-0.8c4.6,0.3,9.5-1.8,13.9,2c1.3,1.1,4.3,0.3,6.5,0.3 c6.1-0.2,12.3,0.9,18.1-2.3c1.6-0.9,4.2-0.7,6.2-0.4c4.7,0.7,9.4,2.3,14.1,2.6c6.8,0.5,13.7,0.1,20.6,0.4c7,0.3,13.9,1,20.9,1.3 c12.9,0.6,25.7,1.1,38.6,1.6c6.2,0.2,12.4,0.5,18.5,0.6c8.6,0.1,17.2,1,25.7,2.3c7.3,1.1,14.7,2.1,22,3.3c9,1.5,18,3.2,27,4.6 c14.7,2.4,29.4,4.7,44.1,7c5.2,0.8,10.3,1.8,15.5,2.6c2.2,0.3,3.3-0.7,2.9-3c-1.3-8.6-2.6-17.1-4-25.7c-0.2-1.4-0.8-2.7-1.2-4 c-0.4,0-0.8,0-1.3,0c-0.6,2.7-2.5,5.1-0.9,8.3c0.7,1.3,1.8,3.6-0.7,3.7c-3.1,0.2-6.5,0.8-9.4-1.9c-1.9-1.7-4.2-2.2-6.3,0.2 c-0.4,0.5-1.3,0.6-1.9,0.8c-4.6,1.4-9.2,0.8-13.9,0.2c-11.2-1.3-21.7-4.3-32.1-8.4c-18.6-7.4-33.4-19.8-46.5-34.5 c-15.7-17.6-22.3-38.8-23.4-61.9c-0.8-17,2.2-33.4,9.1-48.9c6.1-13.7,15.4-25.4,26.3-35.6c11.3-10.6,23.9-19.4,38-25.6 c9-4,18.6-6.8,28.1-9c7.5-1.7,15.5-2.2,23.2-2.3c8.3-0.1,16.6,1,25,1.2c9,0.2,17.3,2.8,25.5,6.2c11.2,4.7,21.5,10.6,31.1,18.2 c8.5,6.7,16,14.1,21.1,23.4c2.2,3.9,6,7.7,4.6,13.1c-0.1,0.3,0.1,0.8,0.4,1c2.9,1.9,0.3,6.8,4.4,8.2c0.1,0-0.1,1.1-0.2,1.7 c-0.5,2.3-0.4,4.4,2,4.4c0.3,3.1,0.3,5.8,0.8,8.5c0.4,1.9,1.9,3.7,1.9,5.5c0,9,0,18-0.6,27c-0.4,5.9-1.6,11.7-2.5,17.5 c-0.1,0.5-0.3,0.9-0.5,1.4c-1.3,2.9-3,5.8-4,8.8c-2.9,9.3-7,18-12.5,26c-6.4,9.2-13.2,18-22.1,25.3c-9.2,7.6-18.9,14.4-29.5,19.7 c-4,2-8.1,3.6-12.9,5.8c4.8,4.9,9,9.1,13.2,13.3c9.2,8.9,18.5,17.7,27.6,26.8c3.3,3.3,5.9,7.3,9.2,10.7c3.1,3.3,7,5.8,9.9,9.2 c5.1,5.8,9.9,12,14.6,18.1c8.5,10.9,16.6,22.1,25.2,32.9c5,6.2,10.6,11.8,15.9,17.7c0,0.7,0,1.5,0,2.2c-4.2,0.9-8.3,1.8-12.5,2.7 c-6.6,1.3-13.2,2.8-19.8,3.9c-11.1,1.7-22.3,3.1-33.3,4.8c-12.4,1.9-24.7,4.2-37,6.1c-17.7,2.7-35.5,4.8-53.2,7.8 c-15.6,2.6-31,6-46.5,9.2c-9.2,1.9-18.4,4-27.5,6.2C730.7,798.8,722.5,800.8,714.3,802.8z M819.5,458.7c-7.3,1.4-14.7,2.3-21.8,4.3 c-8.2,2.3-15.4,6.8-21.9,12.4c-6.2,5.4-11.2,11.7-14.7,19.3c-2.3,4.9-3.7,9.9-4.6,15.3c-1.7,10.9-0.4,21.2,4.6,31 c1.9,3.8,4.8,7.2,7.4,10.6c8.5,11,19.9,17.1,33.4,19.5c4.1,0.7,8.3,0.6,12.4,1.1c7.9,0.9,15.6-0.2,22.9-3 c8.6-3.4,16.1-8.8,22.6-15.5c10.5-10.9,15.9-24.1,16.3-39.1c0.3-14.1-6.2-25.8-14.8-36.1C850.6,465.7,836.4,459.4,819.5,458.7z M437.9,282.6c0,4.4,0.1,8.4,0,12.3c-0.1,2.8,1,3.5,3.7,3.5c12.6,0,25.1,0.2,37.7,0.2c5.9,0,11.8-0.3,17.7-0.4 c3.1-0.1,4.6-1.6,4.5-4.9c-0.1-5.5-2.7-8.9-8.2-9.8C474.9,280.2,456.5,282,437.9,282.6z"></path> <path style="fill:#FFFFFF;" d="M910.4,353.7c4.1,4.4,8.4,8.6,12,13.2c6.5,8.1,10.4,17.2,8.2,27.8c-2.4,11.4-9.4,18.9-20.8,21.7 c-11.3,2.8-21-0.7-28.5-9.6c-10.4-12.4-21.6-23.9-35.1-33c-3.4-2.3-6.3-5.5-9.5-8.2c-0.8-0.7-1.8-1.6-2.7-1.6 c-7.6-0.1-15.2-0.1-23.1-0.1c-0.2,3.9-0.3,7.3-0.7,10.7c-1.2,11.4-6.5,20.2-17.3,24.7c-10,4.2-19.6,2.9-28.2-3.8 c-6.8-5.3-10.8-12.5-10.7-21c0.2-14.3,1.3-28.6,1.7-42.8c0.4-15.4,0.2-30.8,0.7-46.2c0.2-6.2,0.4-12.7,2.3-18.5 c4-12.5,13.4-19.5,26.3-20.5c32.2-2.3,64.5-3.4,96.4,3.5c5.6,1.2,11.2,3,16.4,5.4c21.9,9.7,30.8,27.8,32.2,50.7 c1.1,18.6-4.4,34.5-19,46.7C910.8,353.1,910.6,353.5,910.4,353.7z M813.8,301.8c-0.4,5.4-0.4,5.3,4.4,5.5 c16.6,0.5,33.2,1.2,49.8,1.7c1.7,0.1,3.5,0,5.2,0c0.1-0.5,0.3-1,0.4-1.5c-1.3-0.7-2.5-1.8-3.9-2c-10.7-1.3-21.5-2.8-32.2-3.6 C829.7,301.4,821.9,301.8,813.8,301.8z"></path> </svg> 