<?xml version="1.0" encoding="UTF-8"?> <svg xmlns="http://www.w3.org/2000/svg" xmlns:xlink="http://www.w3.org/1999/xlink" version="1.1" id="Layer_1" x="0px" y="0px" viewBox="0 0 1000 1000" style="enable-background:new 0 0 1000 1000;" xml:space="preserve"> <path style="fill:#FFFFFF;" d="M840.9,583.9c-7.8-1.8-14.5-5.8-20.5-10.8c-3.6-2.9-6.8-6.3-10.1-9.7c-1.9-2-1.1-2.9,0.8-4.6 c2.2-2,4.4-1,6.6-1.4c1.8-0.3,3.6-1,5.4-0.9c1.3,0,3,0.6,3.8,1.5c6,6.3,11.9,12.7,17.7,19.3c2.7,3,2.3,4.7-1.1,6.7 C842.7,583.9,841.8,583.9,840.9,583.9z"></path> <path style="fill:#FFFFFF;" d="M115.8,525.7c0.8-1.9,1.3-3.4,1.9-4.9c2.6-6.4,5.3-12.8,7.8-19.3c0.8-1.9,1.9-2.6,4-2.8 c6.8-0.6,13.5-1.5,20.5-2.3c-4.9-10.7-9.7-21.3-14.7-32.3c-2.3,5.3-4.5,9.9-6.4,14.6c-5.9,14.1-11.7,28.3-17.5,42.5 c-2.4,6-2.3,6-8.8,7.1c-4.2,0.7-8.3,1.4-12.5,2c-0.7,0.1-1.5-0.1-2.2-0.2c0.1-0.7,0.2-1.5,0.4-2.1c4.2-10.9,8.3-21.7,12.6-32.5 c4.6-11.4,9.4-22.8,14-34.2c3.2-7.9,6.2-15.9,9.6-23.8c1-2.2,2.5-4.4,4.2-6.2c4-4.3,10.8-4.2,14.7,0.2c1.7,1.9,3,4.2,4.1,6.5 c2.6,5.6,4.9,11.4,7.4,17c7.2,15.9,14.4,31.8,21.7,47.7c1.7,3.6,3.4,7.3,5.2,10.8c0.9,1.8,0.3,2.5-1.5,2.8 c-14.8,2.1-29.5,4.2-44.3,6.3c-6,0.9-12.1,2-18.1,3C117.5,525.8,116.9,525.7,115.8,525.7z"></path> <path style="fill:#FFFFFF;" d="M193.3,514.6c2.7-5.5,5-10.3,7.4-15.2c0.4-0.8,1-1.5,1.1-2.3c1.4-6.3,6.1-6.9,11.4-7.2 c7.1-0.4,14.2-1.3,21.3-1.9c3.4-0.3,6.9-0.4,10.3-0.6c1.8-0.1,3.6-0.2,5.4-0.6c2.5-0.5,4.1-3.2,3.7-6c-0.3-2.6-2.1-4-5.1-3.8 c-11,0.7-21.9,1.4-32.9,2.2c-12.6,0.9-19.3-7.6-20.3-19c-0.5-5.3-0.5-10.4,1.1-15.5c3-9.5,11.3-15.7,21.3-15.9 c15.9-0.3,31.9-0.4,47.8-0.5c0.9,0,1.7-0.1,2.6,0c0.8,0,1.6,0.1,2.4,0.2c-0.1,1,0.1,2.1-0.4,2.9c-2.5,4.5-5.2,8.9-7.8,13.3 c-0.4,0.7-1,1.4-1.3,2.2c-1.2,3.5-3.8,4.2-7.2,4.2c-11.8,0.2-23.5,0.6-35.3,1c-4.2,0.1-6.4,3.2-4.8,7c0.4,1,2.1,2.2,3.2,2.2 c7.3-0.1,14.7-0.7,22-0.8c6.4-0.1,12.8-0.3,19,0.4c6.6,0.8,10.6,5.2,12.2,11.6c1.9,7.8,1.6,15.4-2,22.7c-3.5,7.1-9.5,11-17,12.2 c-7.5,1.2-15.2,1.8-22.7,2.7c-7.7,0.9-15.3,2-23,2.9C202,513.7,197.9,514.1,193.3,514.6z"></path> <path style="fill:#FFFFFF;" d="M755.1,447c0,9.8-0.1,19.5,0,29.3c0.1,4.3,0.9,8.6,4.9,11c2.7,1.6,6,2.6,9.1,3.2 c4.2,0.7,8.5,1,12.8,1.1c7.5,0.1,11.8-4.3,11.7-11.8c-0.1-5.2-0.3-10.4-0.5-15.5c-0.3-10.8-0.4-21.7-0.7-32.5 c-0.1-2.4,0.7-2.8,3-2.6c4.8,0.4,9.7,0.3,14.5,0.3c2.8,0,3.2,0.2,3.1,3.2c-0.1,6.7-0.2,13.3-0.4,20c-0.3,10.3-0.8,20.6-0.8,31 c0,6.2-1.1,12-3.9,17.5c-4.3,8.4-11.5,12.4-20.7,13c-11.1,0.7-21.7-1.2-31.6-6.2c-11.3-5.7-17.7-15-18.3-27.7 c-0.7-16.3-1-32.6-1.6-48.9c-0.1-2.2,0.6-2.8,2.8-2.7c5.1,0.2,10.2,0.1,15.3,0.1c1.9,0,2.2,1.2,2.2,2.8c0,5.3,0,10.5,0,15.8 C755.8,447,755.5,447,755.1,447z"></path> <path style="fill:#FFFFFF;" d="M379.8,480.1c0,5.3-0.1,10.3,0,15.3c0.1,2.1-0.5,2.9-2.7,3c-4.4,0-8.8,0.3-13.2,0.5 c-0.7,0-1.3-0.1-2.3-0.1c0-12,0-23.9,0-36.2c2.3-0.2,4.6-0.4,6.9-0.4c14.7-0.4,29.4-0.7,44.2-1.1c3.3-0.1,6.7-2.4,7.5-5 c0.8-2.6-0.1-6.5-2.5-7.5c-2.4-1-5.3-1-7.9-1.3c-1.1-0.1-2.2,0.3-3.3,0.4c-14.3,0.2-28.6,0.5-42.9,0.6c-0.8,0-1.6-0.4-2.4-0.6 c0.3-0.8,0.4-1.6,0.8-2.3c3.3-5.5,6.6-10.9,10-16.3c0.5-0.8,1.6-1.6,2.5-1.6c12.4-0.1,24.8-0.2,37.2-0.1c7.1,0.1,13.9,1.6,19.8,5.9 c4.7,3.5,7.8,8.2,8.4,14c0.9,9.2-0.8,17.8-8.7,23.9c-1.6,1.2-3.5,2-5.3,3c5.7,6.8,11.5,13.8,17.3,20.7c-0.2,0.2-0.3,0.4-0.5,0.7 c-3.5,0.2-7,0.5-10.5,0.6c-3.9,0.2-7.8,0.5-11.7,0.3c-1.1,0-2.4-1.2-3.2-2.2c-3.5-4.5-6.7-9.2-10.1-13.6c-0.6-0.8-1.9-1.5-2.9-1.5 C396.4,479.4,388.6,479.7,379.8,480.1z"></path> <path style="fill:#FFFFFF;" d="M662.8,501.3c3.4-6,6.4-11.1,9.3-16.3c1.2-2.1,2.4-2.8,5.1-2.5c6.5,0.8,13,0.8,20,1.2 c-4.9-9.4-9.7-18.5-14.7-28.1c-0.8,1.3-1.3,2.2-1.8,3.1c-3.3,5.4-6.7,10.7-9.9,16.2c-3.9,6.8-7.7,13.6-11.1,20.5 c-2.1,4.3-4.5,6.3-9.6,5.1c-4.1-0.9-8.4-0.5-12.7-0.7c-0.8,0-1.6-0.4-2.4-0.6c0.3-0.8,0.4-1.7,0.8-2.5c4.2-7.2,8.5-14.3,12.6-21.5 c7.7-13.8,15.2-27.7,23-41.6c5.3-9.4,16.9-9.6,22.2-0.4c3.2,5.6,5.7,11.5,8.5,17.3c3.5,7.1,7.1,14.1,10.6,21.1 c5.4,10.7,10.7,21.4,16,32.1c0.4,0.9,0.8,1.8,1.4,3.3C707.5,505.2,685.3,503.2,662.8,501.3z"></path> <path style="fill:#FFFFFF;" d="M499.4,496.5c-12-0.5-21.1-0.8-29.4-4.9c-10.3-5.1-15-13.7-15.9-24.9c-0.5-6.2-0.4-12.5,1.2-18.4 c2-7,6.1-12.6,12.6-16.4c5.8-3.4,12.3-4.9,18.9-5.6c10.1-1.1,20.1-0.6,30,2.4c9.8,3,16.6,9.2,19.5,18.9c1.7,5.5,2,11.3,1.5,17.2 c-0.4,4.7-0.7,9.3-2.8,13.6c-3.7,7.8-10,12.9-18.3,15C510.1,495.2,503.2,495.8,499.4,496.5z M495,478.2c4.3-0.3,7.8-0.2,11.1-0.8 c2.9-0.5,5.8-1.4,8.3-2.9c6.7-3.9,5.6-17.3,2.9-22.6c-2.5-4.8-7.2-5.5-11.8-6c-8.1-0.9-16.2-1-24.1,0.9c-2.4,0.6-5,2.3-6.3,4.3 c-3.4,5.4-3.5,11.4-1.9,17.5c1.4,4.9,4.9,7.4,9.5,8.2C487.1,477.7,491.5,477.9,495,478.2z"></path> <path style="fill:#FFFFFF;" d="M606.1,467.3c-0.3-13-0.6-25.4-0.9-37.9c0-1.6,0.4-2.2,2-2.2c4.8,0.1,9.7,0.1,14.5,0.1 c1.6,0,2.4,0.8,2.4,2.4c-0.3,7.8-0.7,15.7-0.8,23.5c-0.1,6.2,0.1,12.4,0.2,18.6c0.1,7.1,0.8,14.3-1.4,21.3 c-2.1,6.6-9.9,8.7-14.7,3.7c-6.8-7.1-13.3-14.5-19.9-21.8c-5.1-5.5-10.2-11-15.6-16.8c-0.1,1-0.2,1.5-0.2,2c0,11.1-0.1,22.3,0,33.4 c0,2.2-0.7,2.8-2.9,2.6c-3.8-0.3-7.6-0.2-11.4-0.3c-1.9,0-2.4-0.7-2.4-2.7c0-6.3-0.3-12.6-0.4-18.9c-0.1-7.1,0-14.1,0-21.2 c-0.1-5-0.5-9.9-0.4-14.9c0-2.2,0.7-4.5,1.6-6.5c2.7-6.1,10.7-7.9,15.4-3.2c5.5,5.6,10.5,11.7,15.7,17.5c3,3.4,6.1,6.7,9.2,10.1 c2.9,3.2,5.7,6.4,8.6,9.6C604.9,466.4,605.3,466.7,606.1,467.3z"></path> <path style="fill:#FFFFFF;" d="M851.8,456.3c-8.7-0.4-16.6-0.7-24.5-1.1c-0.9,0-1.8-0.6-2.8-0.9c0.3-0.9,0.5-1.9,0.9-2.7 c3.2-6.6,6.5-13.2,9.5-19.9c0.7-1.6,1.4-1.9,3-1.9c19.7,0.4,39.3,0.7,59,1.1c0.9,0,1.7,0,2.6-0.1c2.6-0.4,3.5,0.5,2.6,3 c-0.8,2.3-2.1,4.5-3.1,6.8c-2.5,5.3-5,10.6-7.4,15.9c-0.7,1.6-1.7,2.2-3.6,2c-4.2-0.4-8.5-0.5-12.7-0.6c-0.2,0-0.3,0-0.5,0 c-1.5,0-2.9-0.1-4.4-0.1c0,1.5,0.1,3,0,4.5c-0.1,4.4-0.5,8.8-0.4,13.2c0.1,9.2,0.4,18.4,0.4,27.7c0,7.3-0.4,14.6-0.7,22.3 c-4.1-0.6-8-1.3-12-1.9c-0.2,0-0.3-0.2-0.5-0.2c-5.5-1.2-5.5-1.2-5.6-7c-0.1-8.4-0.4-16.8-0.4-25.1c0-5,0.3-10,0.4-15 C851.9,469.7,851.8,463.2,851.8,456.3z"></path> <path style="fill:#FFFFFF;" d="M99.9,452.9c-16.5-1.6-32-5.2-46.9-11c-7-2.7-14.1-5.4-21-8.4c-8.3-3.6-13.5-10.4-17.6-18.2 c-1.7-3.2-3.2-6.5-4.6-9.8c-0.4-1-0.6-2.2-0.7-3.2c-0.1-2.9,1.4-3.9,4.1-3.1c11.6,3.7,23.3,7.4,34.9,11c16.7,5.1,33.4,10.1,50,15.1 c5.2,1.6,10.3,3.2,15.5,4.9c2.2,0.7,2.9,3.6,1,4.7c-2.8,1.5-2.7,4.5-4.1,6.6c-2.1,3.1-3.5,6.7-5.8,9.7 C103.7,452.3,101.3,452.4,99.9,452.9z"></path> <path style="fill:#FFFFFF;" d="M321.7,427.3c10.3,0,20.6,0,30.9,0c2.2,0,2.9,1.1,1.8,2.9c-3.6,5.9-7.3,11.8-11.1,17.6 c-0.5,0.7-1.9,1-2.9,1.1c-5,0.1-10.1,0.2-15.1,0c-2.2-0.1-2.8,0.8-2.8,2.8c0,6.1-0.3,12.3-0.4,18.4c0,2.1,0.4,4.3,0.4,6.4 c-0.1,7.6-0.4,15.2-0.5,22.8c0,1.6-0.7,2.4-2.2,2.5c-4.6,0.3-9.1,0.6-13.7,1.1c-2,0.2-2.3-0.7-2.3-2.4c0-11.1,0.1-22.3,0-33.4 c0-5.6-0.1-11.1-0.3-16.7c0-0.5-1.2-1.3-1.8-1.3c-7.5,0.2-15,0.6-22.5,0.9c-2.2,0.1-2.6-0.9-1.7-2.6c3.4-6.3,6.9-12.5,10.5-18.7 c0.3-0.6,1.6-0.9,2.4-0.9c10.5-0.1,21,0,31.4,0C321.7,427.7,321.7,427.5,321.7,427.3z"></path> <path style="fill:#FFFFFF;" d="M929.7,434c-1.8-2.5-7.1,0.3-6.7-5.3c-2,0.2-3.9,0.3-5.8,0.5c-0.9-4.4,0.8-5.2,3.9-6.1 c7.5-2.3,15.1-4.4,22.6-6.8c11.3-3.5,22.6-7,33.9-10.6c3.6-1.1,5.7,0.5,4.4,3.9c-4.6,12.3-9.9,24.2-22.9,30 c-7.3,3.3-14.9,6.1-22.3,8.9c-1.4,0.5-3,0.4-5.4,0.7c1-2,1.6-3.4,2.4-4.7c1-1.5,2.2-2.8,3.5-4.4c-1.5,0.3-2.7,0.5-3.9,0.7 c-0.1-0.9-0.2-1.9-0.3-3C929.3,435.5,929.3,435.5,929.7,434z"></path> <path style="fill:#FFFFFF;" d="M88,465.3c-1.2,0.4-2.1,0.7-3.3,1.2c0.9,0.5,1.5,0.8,2.3,1.2c-1,0.8-1.8,1.6-2.8,2.4 c4.2,3.6,2.4,9,4.7,13.6c-10.1,3.2-20,0.3-29.7,1c0-0.3-0.1-0.6-0.1-0.8c0.5-0.4,1-0.8,1-0.8c-2.9-0.1-6.4,0.5-9.5-0.4 c-8.3-2.5-15.9-6.4-21.7-13.1c-1.6-1.8-3.4-3.5-4.8-5.5c-0.7-1-1.3-3-0.8-3.8c0.6-1,2.5-1.7,3.8-1.7c4.6,0.1,9.3,0.7,13.9,0.8 c8.7,0.2,17.4,0.1,26.1,0.1c5,0,10,0.1,15-0.2c2.6-0.1,4.1,0.5,4.7,3.1C87,463.3,87.5,464.2,88,465.3z"></path> <path style="fill:#FFFFFF;" d="M917.3,489.6c0.4-0.7,0.7-1.5,1.2-2.1c2.7-2.8,3.4-6.4,3.7-10c0.2-2.1-0.6-4.3-0.8-6.5 c-0.2-3,0.5-3.9,3.5-4.1c13.3-0.7,26.6-1.4,39.9-2c1,0,2.7,0.6,3,1.4c0.4,0.9,0.2,2.6-0.5,3.5c-6.2,8.8-14.4,15.2-24.8,18.2 c-7.9,2.3-16.1,3.1-24.3,2.1C918.1,490.1,917.8,489.9,917.3,489.6z"></path> <path style="fill:#FFFFFF;" d="M161,555.2c3.4,0.3,6.8,0.3,10.1,0.9c1.4,0.2,3.2,1.4,3.7,2.7c0.4,1-0.6,2.9-1.6,4 c-6.2,7.1-13.5,12.8-22,16.9c-2.7,1.3-5.8,2-8.9,2.5c-1.3,0.2-3.3-0.6-4-1.6c-0.6-0.9-0.1-3.1,0.7-4.1c3.9-4.7,8.1-9.2,12.2-13.7 c1.9-2.1,3.8-4.3,5.8-6.2c1-0.9,2.4-1.4,3.6-2C160.8,554.7,160.9,554.9,161,555.2z"></path> <path style="fill:#FFFFFF;" d="M902.2,508.9c2.3,0.4,4.4,0.6,6.3,1c8.5,1.6,17.1,3.3,25.6,5c0.6,0.1,1.2,0.7,1.8,1.1 c-0.4,0.7-0.7,1.6-1.4,2c-6.5,4.3-13.3,7.9-21.2,8.8c-2,0.2-4.2,0.2-6.1,0.6c-2.6,0.6-2.8-1-2.9-2.7c-0.3-3.2-0.2-6.4-0.6-9.5 C903.6,513.3,902.9,511.5,902.2,508.9z"></path> <path style="fill:#FFFFFF;" d="M101.5,559.4c-5.5-0.2-10-0.8-13.8-4c-1.8-1.5-1.8-3.5,0.2-4.6c4.6-2.6,9.2-5.1,13.8-7.6 c1.2-0.6,2.6-1,3.9-1.2c1.7-0.3,3.4-0.1,3.2,2.4c0,0.3,0,0.8,0.2,1c3.7,2.3,6.7,5.8,11.4,6.4c0.7,0.1,1.3,0.8,1.9,1.2 c-0.5,0.6-0.8,1.7-1.4,1.8c-5.3,1.5-10.5,2.8-15.8,4.1C103.7,559.3,102.2,559.3,101.5,559.4z"></path> <path style="fill:#FFFFFF;" d="M882.2,560.9c-5.7-0.6-12.3-1.3-18.5-4.2c-0.8-0.4-1.3-1.3-2-2c0.8-0.5,1.5-1,2.3-1.4 c2.8-1.1,5.9-1.7,8-4.3c1.2-1.5,3.9-1.7,3.4-4.5c0-0.2,1.4-1,2.1-0.9c1.7,0.2,3.4,0.5,4.9,1.3c4.6,2.4,9.1,4.9,13.6,7.4 c2,1.1,2.1,3,0.3,4.6C892.6,560.1,888,560.8,882.2,560.9z"></path> <path style="fill:#FFFFFF;" d="M70.6,506.2c3.2-0.1,4.6,1.3,5.1,4.2c0.2,1.4,1,2.8,1.5,4.2c0.4,1.2,1.3,2.7,0.8,3.5 c-0.5,1-2.3,2-3.3,1.8c-3.2-0.6-6.3-1.4-9.3-2.8c-3.2-1.4-6.1-3.5-9.1-5.4c-0.6-0.4-1.2-1.3-1.2-2.1c0-0.4,1-1.2,1.6-1.3 C61.3,507.6,66,506.9,70.6,506.2z"></path> </svg> 