<?xml version="1.0" encoding="UTF-8"?> <svg xmlns="http://www.w3.org/2000/svg" xmlns:xlink="http://www.w3.org/1999/xlink" version="1.1" id="Layer_1" x="0px" y="0px" viewBox="0 0 1000 1000" style="enable-background:new 0 0 1000 1000;" xml:space="preserve"> <g> <path style="fill:#FFFFFF;" d="M218.5,144h172.4c38.9,0,68.5,3,88.9,8.9c27.4,8.1,50.9,22.4,70.4,43c19.5,20.6,34.4,45.8,44.6,75.7 c10.2,29.8,15.3,66.6,15.3,110.4c0,38.4-4.8,71.6-14.3,99.4c-11.7,34-28.4,61.5-50,82.5c-16.4,15.9-38.4,28.4-66.3,37.3 c-20.8,6.6-48.6,9.9-83.5,9.9H218.5V144z M312.8,223v309.4h70.4c26.3,0,45.3-1.5,57-4.5c15.3-3.8,28-10.3,38.1-19.4 c10.1-9.1,18.3-24.2,24.7-45.1c6.4-20.9,9.6-49.4,9.6-85.5c0-36.1-3.2-63.8-9.6-83.2c-6.4-19.3-15.3-34.4-26.8-45.2 s-26-18.2-43.7-22c-13.2-3-39-4.5-77.4-4.5H312.8z"></path> <path style="fill:#FFFFFF;" d="M689.4,226.8V144H779v82.8H689.4z M689.4,611.1V272.7H779v338.4H689.4z"></path> </g> <g> <path style="fill:#FFFFFF;" d="M229.8,708.7h72.6c16.4,0,28.8,1.2,37.4,3.7c11.5,3.3,21.4,9.3,29.6,17.8c8.2,8.5,14.5,19,18.8,31.3 c4.3,12.4,6.4,27.6,6.4,45.7c0,15.9-2,29.7-6,41.2c-4.9,14.1-11.9,25.5-21.1,34.2c-6.9,6.6-16.2,11.7-27.9,15.4 c-8.8,2.7-20.5,4.1-35.1,4.1h-74.7V708.7z M269.5,741.4v128.2h29.6c11.1,0,19.1-0.6,24-1.8c6.4-1.6,11.8-4.3,16-8.1 c4.2-3.8,7.7-10,10.4-18.7c2.7-8.7,4-20.5,4-35.4c0-15-1.3-26.4-4-34.5c-2.7-8-6.4-14.3-11.3-18.7c-4.8-4.5-11-7.5-18.4-9.1 c-5.5-1.2-16.4-1.8-32.6-1.8H269.5z"></path> <path style="fill:#FFFFFF;" d="M428.1,743v-34.3h37.7V743H428.1z M428.1,902.2V762h37.7v140.2H428.1z"></path> <path style="fill:#FFFFFF;" d="M628.7,803.5l-37.2,6.6c-1.3-7.3-4.1-12.8-8.5-16.5c-4.4-3.7-10.2-5.5-17.2-5.5 c-9.4,0-16.9,3.2-22.5,9.6c-5.6,6.4-8.4,17-8.4,32c0,16.6,2.8,28.4,8.5,35.2c5.7,6.9,13.3,10.3,22.9,10.3c7.2,0,13-2,17.6-6 c4.6-4,7.8-10.9,9.7-20.7l37,6.2c-3.8,16.7-11.2,29.3-22.1,37.9c-10.9,8.5-25.5,12.8-43.9,12.8c-20.8,0-37.5-6.5-49.8-19.4 c-12.4-12.9-18.6-30.8-18.6-53.7c0-23.1,6.2-41.2,18.6-54.1c12.4-12.9,29.2-19.3,50.4-19.3c17.3,0,31.1,3.7,41.4,11 C616.8,777.2,624.2,788.4,628.7,803.5z"></path> <path style="fill:#FFFFFF;" d="M739.7,857.6l37.6,6.2c-4.8,13.6-12.5,23.9-22.9,31c-10.4,7.1-23.5,10.6-39.1,10.6 c-24.8,0-43.1-8-55-23.9c-9.4-12.8-14.1-28.9-14.1-48.3c0-23.2,6.2-41.4,18.5-54.6c12.3-13.2,27.9-19.7,46.8-19.7 c21.2,0,37.9,6.9,50.2,20.7c12.3,13.8,18.1,34.9,17.6,63.3h-94.4c0.3,11,3.3,19.6,9.1,25.7c5.8,6.1,13.1,9.2,21.7,9.2 c5.9,0,10.9-1.6,14.9-4.8C734.6,869.7,737.7,864.6,739.7,857.6z M741.9,820.1c-0.3-10.7-3.1-18.9-8.5-24.5 c-5.4-5.6-11.9-8.4-19.6-8.4c-8.2,0-15,2.9-20.4,8.8c-5.4,5.9-8,13.9-7.9,24H741.9z"></path> </g> </svg> 