<?xml version="1.0" encoding="UTF-8"?> <svg xmlns="http://www.w3.org/2000/svg" xmlns:xlink="http://www.w3.org/1999/xlink" version="1.1" id="Layer_1" x="0px" y="0px" viewBox="0 0 1000 1000" style="enable-background:new 0 0 1000 1000;" xml:space="preserve"> <path style="fill:#FFFFFF;" d="M42.5,373.7c1.6,0.4,3.1,1.3,4.7,1.3c30,0.1,60,0.1,90,0.1c7.1,24.9,14,48.8,21,73.5 c1-1,2.3-1.8,2.3-2.5c0-18.2,8.4-34.4,12.6-51.6c4.4-17.9,4.8-18,23.2-17.8c22.6,0.2,45.2,0.8,67.8,1.2c1.3,0,2.7-0.4,4.6-0.7 c0,13.2,0,26.2,0,39.7c-3.5,0.2-7,0.4-10.9,0.6c0,27.7,0,55,0,82.4c0,5.3,0,10.6,0,15.9c0,9,1.6,10.4,10.1,9.1c0,12.9,0,25.8,0,40 c-25.8-1.9-51.1-3.8-76.3-5.7c0-13.4,0-25.4,0-37.8c3.2,0,6,0,9.1,0c0-26.8,0-53.2,0-80.6c-4.3,14.5-8.3,28.1-12.3,41.7 c-6.8,23.3-13.6,46.6-20.4,69.9c-1,3.3-2.3,5.4-6.4,4.7c-6.8-1.2-13.6-2.5-20.5-2.6c-5.1-0.1-6.5-2.7-7.7-6.6 c-10.2-34.6-20.5-69.2-30.7-103.8c-0.4-1.3-1.1-2.5-2.1-4.7c0,25.3,0,49.5,0,74.2c3.4,0,6.3,0,9.4,0c0,12.3,0,24.7,0,37.3 c-22.8-2.2-45.2-4.5-67.7-6.7c0-12,0-24.1,0-36.1c3.6,0.3,7.3,0.7,10.4,1c0-33,0-65.3,0-97.3c-3.9-0.7-7.2-1.3-10.4-1.9 C42.5,397.7,42.5,385.7,42.5,373.7z"></path> <path style="fill:#FFFFFF;" d="M499.4,702.7c-0.7-8.2-1.5-16.5-2.3-25.1c3-0.4,5-0.7,7.5-1.1c0-20.2,0-40.5,0-61.4 c-2-0.3-4-0.6-6.4-1c0-7.9,0-15.6,0-24.1c16.9,0,33.9-0.2,50.8,0.2c1.8,0,3.8,3.1,5.1,5.2c10.7,16.2,21.3,32.6,32.7,50.2 c0-10.9,0-20.5,0-30.7c-6.3,0.9-7.1-2.9-6.8-8.1c0.4-5.2,0.1-10.5,0.1-16.3c15.9,0,31.4,0,47.4,0c0,7.6,0,15.4,0,23.7 c-2,0.3-4,0.5-6.7,0.9c0,28.6,0,57.1,0,86.3c-13.4,0-26.1,0.2-38.7-0.2c-1.7,0-3.7-2.5-4.9-4.3c-12.6-19-25.1-38-38.2-58 c0,13.3,0,25.4,0,38c2.1,0.1,4.2,0.2,6.5,0.3c0,8,0,15.6,0,24.3c-12.4,0-24.5-0.1-36.7,0.1c-2.7,0-5.4,0.8-8.1,1.3 C500.3,702.7,499.8,702.7,499.4,702.7z"></path> <path style="fill:#FFFFFF;" d="M420,461.4c0,21.5,0,43,0,64.4c0,6.4,5,4.9,9.6,5.3c0,11.9,0.2,23.8-0.2,35.6 c-0.1,1.5-3.5,4.1-5.3,4.1c-7.3,0-14.5-1-21.8-1.4c-5.7-0.3-11.5-0.7-17.3-0.5c-6.9,0.2-13.8,0.9-21.9,1.5c0-13.8,0-26.8,0-40.5 c2.9,0,6.4,0,10.1,0c0-37.3,0-74,0-111.2c-3.2-0.2-6.2-0.4-9.6-0.6c0-13.2,0-26,0-39.6c2.1-0.2,4.1-0.5,6.2-0.5 c20.7,0,41.4,0.1,62.1,0c4.2,0,6.5,1.2,8.7,5.2c13.9,26.5,28.2,52.8,42.3,79.2c2.7,5,4.8,10.4,7.8,17.2c0-20.8,0-40.4,0-60.5 c-3.6,0-6.6,0-9.9,0c0-13.7,0-26.9,0-41c22.4,0,44.7,0,67.3,0c0,12.6,0,26.2,0,40.3c-3,0.4-6,0.9-9.5,1.4c0,50.1,0,100,0,151.1 c-6.6,0-12.6,0.1-18.7,0c-11.3-0.2-22.6-0.1-33.9-1c-3.1-0.2-7.3-2.6-8.7-5.2c-10.4-18.6-20.1-37.5-30.1-56.3 c-8.5-15.9-17.1-31.6-25.7-47.5C421.1,461.1,420.5,461.3,420,461.4z"></path> <path style="fill:#FFFFFF;" d="M697.4,458.4c0,22.8-0.1,43.7,0.1,64.5c0,5.7,2.6,6.5,9.9,3.6c0,13.3,0,26.4,0,40.6 c-6.6,0.5-13.2,1.2-19.7,1.4c-13.9,0.6-27.8,0.9-41.6,1.5c-5.8,0.3-7.9-1.1-7.3-7.6c0.9-10.7,0.2-21.5,0.2-32.5 c4.6-0.2,8.2-0.4,10.9-0.5c0-37,0-73.7,0-110.6c-3.7-0.2-6.5-0.3-9.8-0.5c0-13.2,0-26.3,0-40.2c10.9,0,21.7,0,32.4,0 c13,0,26-0.1,39,0.1c1.5,0,3.7,0.7,4.3,1.8c9.5,17.2,18.6,34.6,28.1,51.8c5.7,10.2,11.9,20.2,17.7,30.4c1.4,2.5,1.8,5.6,3.2,8.2 c0.6,1.2,2.4,1.8,3.8,2.7c0-19.1,0-37.2,0-55.7c-3.7,0-6.5,0-9.8,0c0-13,0-25.6,0-39.6c21.8,0,43.8,0,65.8,0c0,11.6,0,24.5,0,37.7 c-3.4,0.2-6.2,0.3-10,0.5c0,2.6,0,5.2,0,7.7c0.1,44,0.2,88,0,131.9c0,2-2.3,5.5-3.8,5.6c-16.2,1.4-32.4,2.3-48.6,3 c-2.3,0.1-5.8-1.4-6.8-3.3c-12.2-21.5-23.9-43.3-36-64.9C712.6,483.9,705.5,472.1,697.4,458.4z"></path> <path style="fill:#FFFFFF;" d="M972.6,437.2c-17.5,1-33.9,1.9-50.3,2.9c-0.8-6.5-1.3-12.4-2.3-18.2c-1.3-7.4-7.1-9.1-13.4-9.1 c-7.5,0-13.1,4.4-13.9,10.8c-0.9,7.6-1.2,15.3-1.1,23c0.1,17.7,0.2,35.5,1.3,53.2c0.3,4.9,2.8,11.6,6.5,14 c5.4,3.5,13.5,2.3,17.8-2.8c3.4-4,4.1-10.4,6.4-17c-5.7-0.3-9.1-0.5-13.1-0.7c0-10.2,0-20.5,0-31.4c23.5-1.5,47.1-2.9,71.8-4.4 c0,9.7,0.5,19.1-0.4,28.3c-0.2,1.9-5.6,3.4-9.5,5.5c0,12.8,0,27.1,0,41.4c-10.7,4.5-21,9.1-31.5,13.2c-4.6,1.8-9.8,2.3-14.4,4.2 c-10.4,4.2-21.2,2.8-31.9,2.9c-6.1,0.1-12.6,1.3-18-0.6c-7.6-2.7-14.8-7.2-21.5-11.8c-22.5-15.5-25.7-39.6-27.3-64.1 c-1.1-17.4-0.1-34.9,4.9-51.7c8-26.8,33-46,61.7-49.8c26.3-3.4,51,1.2,75.5,9.5c1.3,0.4,2.7,2.7,2.7,4.2 C972.6,404.4,972.6,420.2,972.6,437.2z"></path> <path style="fill:#FFFFFF;" d="M373.9,615.1c0,20.4,0,40.5,0,61.4c6.6-0.6,7.5,3.3,7.1,8.8c-0.4,5-0.1,10-0.1,15.6 c-18.2,0-36.1,0-55,0c0-6.7-0.4-13.6,0.3-20.4c0.2-1.7,3.6-3.1,6.6-5.4c0-12.5,0-26.6,0-40.8c-0.3-0.1-0.5-0.2-0.8-0.3 c-7.5,22.3-14.9,44.7-22.5,67.3c-7.2,0-14.3,0-21.9,0c-7.6-21.5-15.1-43-22.7-64.5c-0.3,0-0.7,0.1-1,0.2c0,13.2,0,26.5,0,40.3 c5.3-1.3,7.2,1.1,6.8,6.5c-0.4,5.7-0.1,11.4-0.1,17.5c-15.9,0-31.5,0-47.7,0c0-7.9,0-15.5,0-23.7c2-0.1,4-0.3,6.2-0.4 c0-20.5,0-41.1,0-61.8c-2.2-0.3-4-0.6-6.1-0.9c0-7.9,0-15.4,0-24.1c3.8,0,7.3,0,10.8,0c16.4,0,32.8,0,49.1,0c5.1,0,7.3,1.6,8.7,7.4 c2.7,11.4,7.4,22.4,11.6,34.6c4.4-13.4,8.2-25.6,12.5-37.6c0.7-1.8,3.5-4.1,5.4-4.1c19.5-0.3,39-0.2,59.1-0.2c0,8,0,15.8,0,24.2 C378.7,614.5,376.4,614.8,373.9,615.1z"></path> <path style="fill:#FFFFFF;" d="M210.3,353c0-7.6,0-14.6,0-22c2.2-0.4,4.4-0.9,6.8-1.3c0-19.7,0-39.1,0-59.2 c-6.6,0.3-7.5-3.6-7.1-9.1c0.4-5,0.1-10,0.1-15.6c16.6,0,32.7,0,48.7,0c15.8,0,15.8,0.1,20.8,14.8c2.8,8.2,5.5,16.4,8.6,25.7 c4-12.1,8-23.1,11.4-34.3c1.4-4.6,3.3-6.5,8.4-6.4c16.8,0.4,33.7,0.2,50.5,0.1c3.8,0,5.6,0.8,5.2,5.3c-0.5,5.9-0.1,11.9-0.1,18.4 c-2.4,0.3-4.5,0.6-6.9,0.9c0,19.6,0,39.3,0,59.4c1.9,0.3,3.9,0.7,6.4,1.1c0,7.3,0,14.6,0,22.4c-17.5,0-35,0-52.8,0 c0-7.3,0-14.4,0-22.1c1.8-0.4,4-0.9,6.4-1.5c0-13.5,0-26.9,0-42.5c-4.6,13.5-8.5,25-12.4,36.6c-2.8,8.3-5.8,16.5-8.2,24.9 c-1.1,4.2-3.3,5.1-7.1,5.1c-15.4,0.3-15.6,0.5-20.8-13.9c-6.2-17-12-34.2-18.4-52.7c0,15.1,0,28.8,0,42.7c2,0.3,4.1,0.5,6.4,0.8 c0,7.5,0,14.8,0,22.4C240.7,353,225.5,353,210.3,353z"></path> <path style="fill:#FFFFFF;" d="M632.2,571.1c-25.1,0-49.5,0-74,0c-4.1,0-5.3-2.2-5.3-6c0.1-11,0-22,0-33.5c4.8-0.4,8-0.7,11.5-1 c0-35.8-0.1-71.3,0-106.8c0-7.9-5.9-3.9-10.1-5.6c0-11.6-0.2-23.8,0.3-36c0.1-1.4,4.4-3.7,6.8-3.8c20.9-0.4,41.9-0.4,62.8-0.4 c2.4,0,4.8,0,7.6,0c0,12.8,0,26.3,0,40.1c-3.4,0.2-6.7,0.4-10.1,0.6c0,37.3,0,74.3,0,111.8c3.9-0.5,7.2-0.8,10.5-1.2 C632.2,542.5,632.2,555.7,632.2,571.1z"></path> <path style="fill:#FFFFFF;" d="M355,527.6c0,12.9,0,25.8,0,39.4c-6.4,0.5-13.3,1.7-20.1,1.3c-10.4-0.5-20.6-2.5-31-3.1 c-8.6-0.5-17.3-0.1-26.5-0.1c0-12.8,0-25.8,0-39.1c3.2,0.2,6.5,0.4,9.5,0.5c0-36.3,0-72.4,0-109c-3.4-0.3-6.4-0.5-9.8-0.8 c0-13,0-25.9,0-39.4c25.6,0,51.4,0,77.5,0c0,13.4,0,27,0,40.9c-3,0.1-5.8,0.3-9.3,0.5c-0.1,2.1-0.3,4.1-0.3,6.2 c-0.1,31.3-0.2,62.5-0.2,93.8C344.7,528.3,344.7,528.3,355,527.6z"></path> <path style="fill:#FFFFFF;" d="M523,309c0,7,0,13.7,0,20.9c2.8,0.3,5.6,0.5,9,0.9c0,7.3,0,14.5,0,22.2c-17.8,0-36,0-54.7,0 c0-7.2,0-14.2,0-21.8c1.8-0.5,3.8-1,5.9-1.5c0-19.7,0-39.4,0-59.3c-2-0.5-4-1-5.9-1.5c0-7.5,0-14.6,0-22.5c6,0,11.5,0,17,0 c17.3,0,34.7,0,52,0.2c15.2,0.2,25.9,7.3,29.5,19.3c4.8,15.8,0.9,28-11.1,36.6c3.5,3.5,8.5,6.5,10.4,10.8c2.1,4.7,1.4,10.7,1.9,16.8 c1.3,0.2,3.4,0.4,5.7,0.7c0,7.3,0,14.6,0,22.4c-14.7,0-29,0-44.5,0c0-10.2,0-20.4,0-30.6C538.4,310.6,536,308.4,523,309z M523.4,291 c5.3,0.5,11.3,1.9,13.5-3.8c1.6-4.2,1.9-10.6-0.4-14.1c-2-3-8.2-3.2-13.1-4.9C523.4,277,523.4,283.8,523.4,291z"></path> <path style="fill:#FFFFFF;" d="M413.1,590.2c16.6,0,32.7,0.2,48.8-0.1c5.8-0.1,5.8,4.5,6.7,7.6c4.7,16.4,9,32.9,13.4,49.3 c2.1,7.7,3.8,15.6,6.2,23.2c0.9,2.8-0.2,8.5,6.3,7c0.3-0.1,1.6,2.2,1.7,3.5c0.2,6.8,0.1,13.5,0.1,20.3c-19.4,0-38.1,0-57.2,0 c0-7.9,0-15.4,0-23.5c2.7,0,5.1,0,8.3,0c-0.7-3.6-1.3-7-1.9-10.2c-18-2.1-18-2.1-20.9,10.2c2.6-0.1,5.1-0.3,7.8-0.4 c0.2,1.1,0.5,2,0.5,3c0,6.7,0,13.4,0,20.8c-16.2,0-32.2,0-49.5,0c0-6.8,0-13.9,0-21c0-0.9,0.7-2.5,1-2.5c8.9,0.3,6.5-7.6,7.7-11.8 C399.5,640.6,406.1,615.4,413.1,590.2z M436.5,623.8c-0.4,0-0.7-0.1-1.1-0.1c-1.7,8.8-3.4,17.7-5.2,26.7c4,0,7.5,0,11.7,0 C440,641.2,438.2,632.5,436.5,623.8z"></path> <path style="fill:#FFFFFF;" d="M717.9,590.2c17,0,32.9-0.2,48.7,0.2c2,0,5.1,2.6,5.6,4.5c7.1,25.3,13.7,50.7,20.8,76 c0.7,2.4-0.2,8.1,6,6.5c0.4-0.1,2.2,2.8,2.3,4.4c0.3,6.2,0.1,12.4,0.1,19.2c-19.2,0-38.1,0-57.8,0c0-6.7-0.5-13.4,0.3-19.9 c0.2-1.9,4.3-3.4,6.6-5c0.5,0.5,1.1,1,1.6,1.5c-0.6-3.4-1.2-6.8-1.8-10.7c-2.7,0-5.3,0-7.9,0c-10.5,0-10.5,0-12.9,10.5 c2.6,0,5.1,0,8,0c0,7.8,0,15.6,0,23.7c-16,0-31.8,0-48.3,0c0-7.7,0-15.4,0-23.2c0.5,0.3,1,0.6,1.6,0.9c1.7-2.7,4.2-5.3,5.1-8.2 C703.3,643.8,710.5,617.1,717.9,590.2z M746.6,650.4c-1.8-9.3-3.5-18-5.2-26.6c-0.4,0-0.7-0.1-1.1-0.1c-1.8,8.8-3.5,17.6-5.4,26.8 C738.8,650.4,742.4,650.4,746.6,650.4z"></path> <path style="fill:#FFFFFF;" d="M717.6,320.6c10.8,0,20.9,0,29.7,0c2.3,2.7,4,6.3,5.9,6.5c3.9,0.3,7.9-1.2,11.9-2 c-2.8-2.8-5.1-6.5-8.5-8.1c-6.7-3.4-14.2-5.2-20.9-8.5c-14.4-6.9-21.9-21.3-19.5-36.4c2.1-13.2,13-24,27.8-26.7 c17.9-3.2,35.6-2,52.8,4.2c5.1,1.8,8.4,4.3,7.3,10.4c-0.4,2.1-0.2,4.3-0.2,6.5c-0.1,12-0.1,12-12.4,12c-3.6,0-7.3,0.4-10.8-0.1 c-2.4-0.4-4.5-2.2-6.7-3.4c-2.2-1.2-4.5-3.5-6.5-3.3c-2.7,0.2-5.2,2.5-7.7,3.9c1.7,1.8,3,4.4,5.1,5.3c6.8,2.8,13.9,4.9,20.7,7.5 c18.7,7.3,26.6,22.2,21.8,41.5c-3.8,15.3-15.4,22.4-29.6,25c-18.1,3.3-36.1,0.9-53.7-4c-4.9-1.4-6.9-3.8-6.5-9.1 C718,334.9,717.6,328.1,717.6,320.6z"></path> <path style="fill:#FFFFFF;" d="M475.4,330.7c-1.3,7-2.4,13.2-3.7,20.3c-14.7,0-29.4,0-44.1,0c-5.7,0-8.2-2.9-7.9-8.5 c0.2-3.8,0-7.6,0-11.8c2.8-0.2,5.1-0.4,7.5-0.6c0.2-11.1-0.3-10.7-19.9-9.2c-0.5,2.9-1.1,5.8-1.7,9.1c2.5,0.2,4.9,0.4,7.8,0.6 c0,7.2,0,14.4,0,22.3c-15.4,0-31,0-47.1,0c0-7.2,0-14.3,0-21.4c0.4,0.2,0.9,0.5,1.3,0.7c1.8-2.7,4.5-5.1,5.4-8.1 c7.3-25.7,14.3-51.5,21.5-77.5c16,0,31.8-0.2,47.6,0.2c1.8,0,4.4,3.1,5,5.3c6.5,22.6,12.5,45.4,19,68 C467.5,324.6,466.4,331.4,475.4,330.7z M417.2,279.3c-0.4,0-0.8,0-1.1,0.1c-1.6,8.1-3.3,16.2-5,24.5c4,0,7.6,0,11.4,0 C420.7,295.3,418.9,287.3,417.2,279.3z"></path> <path style="fill:#FFFFFF;" d="M661.2,331c0,7.6,0,14.5,0,22c-17.6,0-35,0-52.9,0c0-7.1,0-14.4,0-22.3c1.9-0.3,3.9-0.6,7.1-1.1 c-0.5-5.1,0.4-10.9-1.8-15.1c-7.4-14.3-15.8-28.2-24.2-42.1c-1.2-2-4.3-2.8-7.2-4.5c0-6.5,0-13.8,0-21.5c18.2,0,36,0,54.5,0 c0,7.3,2.6,15.7-0.5,20.3c-6.7,9.8,3,14.8,2.7,22.3c0.6,0.1,1.2,0.1,1.8,0.2c2.3-6.1,4.6-12.3,6.9-18.4c-4-2.4-4.9-10.4-2.8-25 c12.7,0,25.6-0.1,38.5,0.2c1.4,0,3.5,2.7,3.8,4.4c0.6,4,0.2,8.1,0.2,12.2c0,3.6,0.8,7.5-5.1,7.3c-1,0-2.4,1.9-3.2,3.2 c-7.7,13.6-15.7,27.2-22.8,41.1c-2.1,4.2-1.8,9.6-2.7,14.9C656.4,329.9,658.6,330.4,661.2,331z"></path> <path style="fill:#FFFFFF;" d="M686,590.4c0,6.4-0.3,12.2,0.1,17.9c0.3,5-1.4,7.2-6.9,6.3c0,20.6,0,41,0,61.9c2,0.3,4,0.5,6.4,0.8 c0,7.8,0,15.4,0,23.6c-17.8,0-35.7,0-54.2,0c0-7.3,0-14.8,0-23c6.5,0.8,6.8-3.3,6.8-8.7c-0.3-17.8-0.1-35.5-0.1-53.7 c-2.4-0.5-4.6-1-7-1.5c0-7.9,0-15.5,0-23.6C649.3,590.4,667.2,590.4,686,590.4z"></path> <path style="fill:#FFFFFF;" d="M709.9,278.3c-6,0-11.1,0-16.7,0c-0.7-10.8-1.4-21.1-2.1-31.9c7.4,0,14,0,21,0 C711.4,257.2,710.7,267.3,709.9,278.3z"></path> </svg> 