<?xml version="1.0" encoding="UTF-8"?> <svg xmlns="http://www.w3.org/2000/svg" xmlns:xlink="http://www.w3.org/1999/xlink" version="1.1" id="Layer_1" x="0px" y="0px" viewBox="0 0 1000 1000" style="enable-background:new 0 0 1000 1000;" xml:space="preserve"> <path style="fill:#FFFFFF;" d="M290,622.4c-15.2-5.8-28.7-13.3-36.6-28.6c-10.5-20.6-7.4-43.5,9.1-62c12.9-14.5,37.4-20.1,56.7-12.9 c22,8.2,35.3,26.9,35.3,49.7c0,23.6-12.8,42.2-35.2,50.8c-2,0.8-3.9,2-5.9,3C305.6,622.4,297.8,622.4,290,622.4z M301.7,588.1 c-7.4-0.1-15.1,5.7-15.4,11.4c-0.4,8.4,4.5,12.8,14.3,13c10.4,0.2,14.7-3.2,15.1-11.9C315.9,594.2,309.2,588.1,301.7,588.1z M318.7,527.8c-6.9,1.9-12.7,10-12.3,16.6c0.3,5.7,8.9,13.6,14.2,13.1c7.3-0.7,15.7-8.1,13.2-13.6 C330.7,537.6,323.9,533.1,318.7,527.8z M295.8,542.8c0-5.9-7.3-15.1-11-13c-6.2,3.4-13.1,8-16,13.8c-2.8,5.8,6.2,13.9,13.5,14 C288.3,557.7,295.8,549.4,295.8,542.8z M332.7,592.3c6,0,12.4-7.2,11-17.4c-0.5-3.9-6.4-9-10.7-10c-7.3-1.8-16.5,8-15.2,15.9 C318.9,587.1,322.7,592.7,332.7,592.3z M270.9,592.3c6.6,0.2,13.6-6,13.6-11.9c0-8-7.9-17.2-14.9-15.5c-4.3,1.1-9.8,6.1-10.7,10.2 C257,584.1,263.7,592.1,270.9,592.3z"></path> <path style="fill:#FFFFFF;" d="M407.5,622.4c-15.2-5.8-28.7-13.3-36.6-28.6c-10.5-20.6-7.4-43.5,9.1-62 c12.9-14.5,37.4-20.1,56.7-12.9c22,8.2,35.3,26.9,35.3,49.7c0,23.6-12.8,42.2-35.2,50.8c-2,0.8-3.9,2-5.9,3 C423.1,622.4,415.3,622.4,407.5,622.4z M418.8,588.1c-7.2,0-15,6.1-15,11.7c0,8.6,4.6,12.6,14.6,12.6c10.3,0.1,14.7-3.6,14.8-12.3 C433.3,594,426.2,588.1,418.8,588.1z M433.9,525.2c-4.4,7.9-8.5,12.7-9.7,18.1c-1.4,6,7.9,14.7,13.6,14.3 c7.2-0.5,15.7-7.8,13.3-13.5C448.4,537.8,441.5,533.2,433.9,525.2z M413.3,543.1c0-5.9-7.1-15.4-10.7-13.4 c-6.3,3.5-14.2,8.5-16.1,14.5c-2.2,7.1,4.8,12.5,12.9,13.3C405.5,558.1,413.2,549.8,413.3,543.1z M448.9,592.3 c7.2-0.1,14.4-9,12.4-17.9c-0.9-3.9-6.9-8.6-11.2-9.4c-7.5-1.3-14.8,7.4-14.9,15.5C435,586.1,442.3,592.4,448.9,592.3z M388.7,592.3 c6.7,0.1,13.4-6.2,13.2-12.2c-0.3-8.3-6.8-16.3-14.2-14.9c-4.4,0.8-10.5,6.1-11.2,10.2C374.7,584.7,381.3,592.2,388.7,592.3z"></path> <path style="fill:#FFFFFF;" d="M687.5,622.4c-15.2-5.8-28.7-13.3-36.6-28.6c-10.5-20.6-7.4-43.5,9.1-62 c12.9-14.5,37.4-20.1,56.7-12.9c22,8.2,35.3,26.9,35.3,49.7c0,23.6-12.8,42.2-35.2,50.8c-2,0.8-3.9,2-5.9,3 C703.1,622.4,695.3,622.4,687.5,622.4z M698.8,612.5c10.3-0.1,14.7-4,14.4-12.7c-0.2-6.2-7.2-11.7-14.8-11.7 c-7.3,0.1-14.9,6.4-14.6,12.2C684.2,608.9,688.6,612.5,698.8,612.5z M703.8,543.3c0.1,5.5,8,14.2,13.1,14.4 c7,0.2,16.9-8.1,14.1-13.6c-3.1-6.1-10.1-12.4-16.5-13.9C709.5,529,702.7,535,703.8,543.3z M693.2,542.4c1.4-8-6.3-13.5-10.8-12.3 c-6.4,1.7-14.1,8.1-16,14.1c-2.1,7,4.9,12.5,13,13.2C685.6,558,693.2,549.8,693.2,542.4z M729.3,592.3c6.8,0,13.3-7.4,11.9-17.5 c-0.6-3.9-6.4-8.9-10.7-10c-7.4-1.8-16.6,8.1-15.1,16C716.5,587.2,720.1,592.9,729.3,592.3z M668.2,592.3 c6.8,0.2,13.7-5.6,13.8-11.7c0.1-8-7.4-17.2-14.7-15.6c-4.3,0.9-10,5.8-10.9,9.9C654.3,583.6,661.1,592,668.2,592.3z"></path> <path style="fill:#FFFFFF;" d="M960.2,364.1c-12.1,17.9-22,35.5-34.8,50.6c-16.9,20-21.7,42.5-20.7,67.4c0.1,2.5-0.3,5-0.5,8 c-13.4,0-26.3,0-38.1,0c0-14.7,0.1-29.1-0.1-43.5c0-3.4-0.2-7.3-1.8-10.2c-10.7-19.8-21.9-39.5-33.9-61c-0.7,7-1.2,11.9-1.8,17.3 c-13.1,0-25.7,0-39.3,0c-1.5,33-2.9,65.5-4.4,98.5c-13.7,0-26.9,0-41.1,0c1.8-32.6,3.6-65,5.4-98.1c-13.4,0-25.9,0-39,0 c0-9.8,0-18.9,0-28.7c4.2-0.2,7.3-0.5,10.5-0.5c46.9,0,93.9,0.1,140.8-0.1c5.3,0,8.1,1.5,10.3,6.6c5.2,12.1,11.2,23.9,17.5,37.2 c6.6-10.8,13.7-20.4,18.5-30.9c5-10.9,12.3-14.2,23.7-12.9C940.5,364.9,949.5,364.1,960.2,364.1z"></path> <path style="fill:#FFFFFF;" d="M390.5,440.4c1.1-25.3,2.3-50.6,3.4-76.4c12.5,0,24.1,0,36.8,0c-0.7,14.3-1.3,28.4-2,42.4 c-1.3,25.5-2.8,51-3.7,76.6c-0.2,6.3-1.8,8.6-8.4,8.3c-11-0.5-22.1-0.6-33.2-0.1c-5.3,0.2-7.9-1.3-10.6-6 c-13.2-23.4-27-46.6-42.9-69.5c0,24.7,0,49.5,0,75c-14.2,0-26.7,0-38.8,0c1.8-36.2,3.5-72.1,5.5-107.9c1.1-19.2,1.5-17.5,21.3-19.7 c21.2-2.3,33.1,4.6,41.3,24.4c7.7,18.6,19.4,35.4,29.4,53.1C389.2,440.6,389.9,440.5,390.5,440.4z"></path> <path style="fill:#FFFFFF;" d="M592.9,491.4c-12.6,0-25,0.3-37.3-0.3c-2.4-0.1-5.8-3.3-6.9-5.9c-4-9.5-4.5-22.9-11.4-27.9 c-6.9-5-20-1.1-30.2-2.4c-11.6-1.5-18.5,2.8-21.2,13.8c-4.6,18.5-15.6,26.5-35,22.7c-6.2-1.2-12.8-0.2-20.4-0.2 c8.9-16.6,17.1-32.2,25.4-47.7c12.8-24,25.9-47.8,38.4-71.9c2.9-5.5,5.8-8.4,12.6-7.9c11,0.7,22.2-0.2,33.2,0.5 c3,0.2,7.5,2.7,8.5,5.3c15.2,39.5,29.9,79.1,44.6,118.8C593.4,488.8,593.1,489.5,592.9,491.4z M504.5,427.1c9.4,0,17.6,0,26.9,0 c-3.7-11.2-7.1-21.5-11.1-33.4C514.6,405.9,509.6,416.2,504.5,427.1z"></path> <path style="fill:#FFFFFF;" d="M165.3,490.6c2.2-42.7,4.3-84,6.5-126.2c34.1,0,68.7,0,104.4,0c-0.8,9.5-1.6,18.3-2.4,28.1 c-20.7,0-41,0-61.6,0c-0.7,6.7-1.3,12.4-2,19.5c17.6,0,35.2,0,52.7,0c0,10.3,0,19.2,0,29.3c-13.9,0-26.8,0-39.7,0 c-15.7,0-15.7,0.1-15.4,16c0,1.5,0.2,3.1,0.3,5.2c20.9,0,41.3,0,62,0c0,9.5,0,18.4,0,28C234.7,490.6,200,490.6,165.3,490.6z"></path> <path style="fill:#FFFFFF;" d="M87.6,418.7c6.7-1,12.3-1.1,17.4-2.7c7.2-2.3,9.7-8.2,8.8-15.4c-0.9-7.3-6.3-9.3-12.6-9.6 c-5.1-0.2-10.3,0-16.4,0c-0.8,21.1-1.7,40.7-2.2,60.3c-0.3,10.4-0.5,20.8,0,31.1c0.3,7-1.5,10-9.2,9.6c-9.7-0.6-19.4-0.1-30-0.1 c2-42.7,3.9-84.6,5.9-127.3c25,0,50.3-1.1,75.5,0.4c15.2,0.9,25.7,12.9,28.1,27c3.2,18.3-4.2,36.2-18.7,44.8 c-11.1,6.6-23.3,8-35.8,6.5c-2.2-0.3-5.1-2.8-5.8-4.8C90.4,431.9,89.1,425.2,87.6,418.7z"></path> <path style="fill:#FFFFFF;" d="M132.1,519.9c10.9,0,21.2,0,31.4,0c0,11.8,0,23,0,35c11.6,0,23.4,0,36.4,0c0-11.6,0-22.8,0-34.8 c11.3,0,21.5,0,33,0c-1.1,32.1-2.2,64.5-3.3,97.4c-10.9,0-21.5,0-33.5,0c0.5-9.9,0.6-19.8,1.5-29.6c0.8-8.3-2.5-11-10.5-10.4 c-8.1,0.6-16.3,0.1-25.5,0.1c-0.7,13.1-1.5,25.9-2.2,38.9c-11.1,0-21.1,0-32.4,0C128.7,584.5,130.4,552.6,132.1,519.9z"></path> <path style="fill:#FFFFFF;" d="M646.2,462.7c20.2,0,39,0,58.3,0c-0.7,9.7-1.3,18.6-1.9,28.3c-33.5,0-66.5,0-99.9,0 c2.6-42.2,5.1-84.2,7.7-126.8c13.4,0,26.9,0,41.3,0C649.9,396.8,648.1,429,646.2,462.7z"></path> <path style="fill:#FFFFFF;" d="M763,519.6c9.9,0,19.6,0,28.9,0c0,20.6-0.5,40.9,0.4,61.1c0.2,4.4,4.1,11.2,7.9,12.5 c5,1.7,12.7,0.8,16.9-2.2c3.9-2.8,6.1-9.7,6.8-15.1c2.3-18.5,3.5-37.1,5.2-56.2c10.3,0,20.3,0,30.3,0c0,9.8,0.2,19.3-0.1,28.9 c-0.3,9.7-1.5,19.4-1.5,29.1c-0.2,24.9-7.7,36.3-31.9,39.7c-14.8,2.1-30.7,1.1-45.3-2c-17.7-3.7-23.9-13.9-22.9-32 C758.9,562.5,761.1,541.6,763,519.6z"></path> <path style="fill:#FFFFFF;" d="M113.5,544.6c-12.2-1.9-23.6-8.7-36.3,2.5c6.3,5.7,12,11,17.8,16.2c2.4,2.1,5.2,3.9,7.6,6.1 c8.8,8.2,15,17.5,9.6,30c-5.2,12.2-15.2,18.5-28.2,19.2c-12.5,0.7-25.2,0.2-38.8,0.2c-1-10.8-1.8-18.9-2.6-27.5 c8.9,2.1,16.3,4.8,23.9,5.2c4.5,0.3,9.2-3.1,13.8-4.8c-2.1-3.7-3.6-8-6.5-11c-6.3-6.5-13.8-11.9-20.1-18.4 c-11.6-12-8.9-30.4,5.6-38.9c15.9-9.4,32.8-5.9,49.5-3.3c1.2,0.2,2.6,2.7,2.8,4.3C112.5,530.5,112.9,536.9,113.5,544.6z"></path> <path style="fill:#FFFFFF;" d="M587.1,520.1c0,7.4,0,14.1,0,21.6c-10,0-19.6,0-31.4,0c0,24.8,0,49.8,0,75.3c-12.8,0-23.3,0-34.7,0 c1.6-25.4,3.1-50.4,4.6-75.1c-10.9,0-19.9,0-29.5,0c0-7,0-14,0-21.8C526.2,520.1,556.3,520.1,587.1,520.1z"></path> <path style="fill:#FFFFFF;" d="M959.2,520.1c0,7.2,0,14,0,22.2c-9.9-0.5-19.5-1-31.3-1.6c0,25.5,0,50.4,0,75.9 c-12.9,0-23.4,0-34.4,0c1.5-25.3,2.9-50.2,4.3-74.8c-10.8,0-19.8,0-29.5,0c0-6.9,0-13.9,0-21.7C898.2,520.1,928.3,520.1,959.2,520.1 z"></path> <path style="fill:#FFFFFF;" d="M624.3,569.8c0,6,0,12.1,0,18.8c-13,0-25.5,0-38.3,0c0-6.2,0-12.2,0-18.8 C598.9,569.8,611.4,569.8,624.3,569.8z"></path> </svg> 