<?xml version="1.0" encoding="UTF-8"?> <svg xmlns="http://www.w3.org/2000/svg" xmlns:xlink="http://www.w3.org/1999/xlink" version="1.1" id="Layer_1" x="0px" y="0px" viewBox="0 0 1000 1000" style="enable-background:new 0 0 1000 1000;" xml:space="preserve"> <path style="fill:#FFFFFF;" d="M260.3,327.9c1.5,0,2.9,0,4.4,0c31.9,0,63.8,0,95.7,0c4.4,0,8.7,0,13.1,0c2.7,0.7,5.3,2.1,8,2.1 c48,0.1,96,0.1,144,0.1c27.9,0,55.8,0,83.6-0.1c3.4,0,6.8-1.3,10.3-2c1.5,0,2.9,0,4.4,0c3.8,0.5,7.7,1,11.5,1.5 c13.5,1.9,27,3.8,40.5,5.7c3.8,0.5,7.8,1.6,11.6,1.1c12-1.8,23.9-6,35.9-6.2c46.7-0.6,93.4-0.4,140.1,0.2 c18.7,0.2,37.8-0.2,55.9,3.5c28.1,5.7,39.5,20.8,43.3,46c1.3,8.3,2.4,19-1.6,25.3c-13.8,21.6,1.3,38.4,6.6,56.9c0,4.3,0,8.6,0,13 c-7,9.8-11.4,22.9-30.1,19.7c4.8,7.5,8.1,12.2,11,17.3c5.2,9.2,13.8,16.5,13.1,28.8c-0.6,10.2-0.9,21.1,2,30.8 c3.8,12.6-8.5,19.3-8.4,30c0,0.6-1.6,1.6-2.5,1.8c-10.1,2.8-13,11.9-17.8,19.5c-1.9,2.9-5,5.7-8.1,7.1c-4.9,2.1-10.7,2.1-15.5,4.4 c-19.3,9.4-40.4,12.4-61.1,12.9c-53.1,1.3-106.3,0.4-159.5,0.3c-18.1,0-36.3-0.9-54.3,0.2c-17.8,1.1-35.5-1.4-53.4-1.1 c-67.6,1.3-135.3-0.8-203-1.3c-10.7-0.1-21.5,2-32.3,2c-28.1,0-56.3-1.1-84.4-1c-57.5,0.1-115,0.8-172.5,1.1 c-14.8,0.1-25.8-10.8-25.9-25.3c0-2.9,1.1-7.6,2.9-8.3c14.2-5.5,16.2-20.3,17.6-30.4c2.4-17.5-1.7-35.9-3.2-54 c-0.1-1.1-1.4-2.3-2.3-3.1c-11.4-10.3-19.9-21.5-15.3-38.2c0.5-1.8-0.4-4.4-1.6-6c-7.8-10.9-2.1-21.5,0.5-32.2 c1.7-7,3-14.1,4.6-21.7c-4.1-0.5-5.9-1.1-7.6-0.9c-19.5,2.3-35.2-11.4-35.2-30.6c0-10.4,0.1-20.9-0.2-31.3 c-0.7-25.7,7.2-34.6,36.9-35.5c50.3-1.4,100.7,0.1,151.1,0.1C228.6,329.9,244.4,328.6,260.3,327.9z M635.1,482.9 c21.8,30.1,13.9,63.7,13.5,96.6c-2.1-1.3-3-2.9-3.7-4.5c-12.6-29-25-58.1-37.8-87c-1.3-2.8-5.1-6.5-7.8-6.5 c-32.9-0.4-65.7-0.3-99.3-0.3c0.9,2.2,1.1,4.1,2.2,5.3c18.2,19.8,18.6,44,17,68.6c-0.3,5-0.6,10.2,0.1,15.1 c2.8,20.3-2.7,37.4-18.2,51.2c-0.8,0.7-0.9,2.2-1.2,3c28.6,0,56.5,0,87.5,0c-27.2-27.3-16.2-58.7-16.6-88.5c2.7,2.2,3.9,4.6,5.1,7.1 c11.7,24.6,23.5,49.2,34.9,74c3.1,6.7,7.8,8.4,14.6,8.3c22.5-0.2,45-0.4,67.4,0.1c7.8,0.2,8.8-3.2,8.7-9.7 c-0.7-29.9-1.4-59.7-1.3-89.6c0-6.3,3-13,5.9-18.9c3.8-7.8,9-14.9,14.9-24.6C691.3,482.9,664.3,482.9,635.1,482.9z M729.3,484.2 c20.7,33.5,20.6,33.5,20.6,71.2c0,4-0.5,8,0.1,11.9c3.7,21.6-1.5,40.4-17.4,56c-0.3,0.3,0.2,1.3,0.4,2.6c30.6,0,61.4,0.3,92.1-0.1 c23.9-0.3,48-0.5,70.7-9.3c31.8-12.4,42.8-43.9,33.5-73.6c-9.1-29.1-32.6-42.8-61-48.4c-16.2-3.2-33-4.1-49.5-5.2 C789.7,487.3,760.6,486,729.3,484.2z M487.6,625.2c-1.4-3.3-2-4.9-2.8-6.5c-15.4-31.6-30.7-63.3-46.4-94.8 c-3.2-6.5-3.7-11.6,0.1-17.9c4.4-7.5,7.7-15.7,12.4-25.5c-47.7,1.4-93,2.8-140.3,4.2c4.8,8.7,7.5,15,11.5,20.5 c5.5,7.7,5.2,14.5,0.6,22.6c-17.1,30.7-33.7,61.7-50.4,92.6c-0.7,1.4-0.5,3.2-0.7,4.4c30.7,0,60.9,0,93.7,0 c-6.4-8.4-12.2-14.4-16-21.4c-2.2-4-2.9-10.2-1.3-14.3c1.2-3,7.1-5.5,11-5.8c11.5-0.8,23.2-0.9,34.8-0.3c3.9,0.2,8.9,2.4,11.1,5.4 c3.2,4.4,5.1,9.8-0.2,15.4c-6,6.2-10.8,13.6-16.9,21.5C421.7,625.2,453.8,625.2,487.6,625.2z M258.4,574.3 c-26.1,9.3-48.2,30.9-78.8,22.4c0-13.6,0.9-26.9-0.2-40.1c-2.1-24,2.8-45.5,19.6-63.5c0.3-0.3-0.1-1.3-0.2-2.5 c-33.7,2.4-67.4,4.8-101,7.2c-0.8,0.8-1.6,1.5-2.3,2.3c23.6,16.4,21.2,39.8,21.2,63.3c0,23.9-2.2,46-26,61.5c58,0,112.5,0,167.8,0 C258.4,607.7,258.4,591.5,258.4,574.3z M931.4,469c0.9-0.9,1.8-1.7,2.8-2.6c-11.2-16-5.2-38-21.2-52.2c14.9-9.5,17.9-15.9,15.4-33.7 c-1.9-13.1-11.1-19.8-22.9-20.6c-27.9-2-55.9-2.5-83.8-3.6c-0.6,0.8-1.3,1.6-1.9,2.4c13.2,14.7,13.4,32.1,12.4,49.8 c-1,17.5,2.3,36.1-16.8,49.6c21.7,1.9,40.5,3.5,58.6,5.1c-2.3-13.2-4.3-25.1-6.4-36.9c13.2-3.8,19.3-0.3,20.5,10.8 c0.8,7.1,1.2,14.4,2.8,21.3c0.6,2.6,3.8,6.2,6.3,6.6C908.5,467,920,467.8,931.4,469z M262.4,420.9c-2.3,11.5-4.3,21.7-6.5,32.8 c17.4-1,35.8-2,54.1-3c-4.4-7-11.2-12.8-11.3-18.8c-0.5-23.3-6.6-47.7,8.9-69c0.5-0.7,0.2-2,0.3-3.8c-18.8,0-37.3,0-55.4,0 c3.1,12.5,6.1,24.6,9.2,37.5c-11.7,0-20.5,0-31.8,0c3.4-13.3,6.5-25.2,9.6-37.3c-19,0-37.5,0-56.7,0c17,32.6,16.3,65.1,4.6,99.1 c18.2-1.3,36.3-2.6,52.5-3.8c-3.3-11.3-6.4-21.7-9.9-33.7C242.1,420.9,250.6,420.9,262.4,420.9z M485.4,399.5c1-0.3,1.9-0.7,2.9-1 c3,7.1,6.2,14.1,9,21.3c10.3,26.5,10.8,26.9,38.7,26.9c0.7,0,1.4,0,2.2,0c24.1,0,23.9,0,24.1-23.7c0.2-21.2-4.1-43.2,10.6-62 c0.2-0.3-0.4-1.3-0.6-2c-15.4,0-30.8,0-48.5,0c11.1,20.1,9,40.3,8.1,60.5c-0.9,0.2-1.8,0.3-2.8,0.5c-8-20.6-16-41.1-23.6-60.6 c-20.9,0-40.4,0-60.6,0c16,29.3,15.7,57.9,4.6,86.3c13.3,0,28.5,0,46.2,0C479.2,431.1,487.3,414.6,485.4,399.5z M580.3,448.3 c19.3,0,39.7,0.2,60.2-0.1c9.7-0.1,20,0.8,29-2c8.3-2.6,17.8-8,22.3-15c15.6-24.5-1.5-63.3-29.7-70c-6.6-1.6-13.6-1.8-20.4-1.9 c-20.8-0.2-41.6-0.1-63.1-0.1C592.8,388.3,594.4,417,580.3,448.3z M372.7,359.4c-21,0-39.4,0-60.8,0c17.1,18.2,13.4,38.5,13.6,58 c0,1.8,0,3.6,0.2,5.4c1.1,14.1,7.8,22.8,21.8,23.7c18.3,1.2,36.8,1.6,55-0.4c19.7-2.2,24.7-10,24.9-30c0.1-18.9-2.6-38.3,9.8-55 c0.3-0.4-0.2-1.3-0.4-2c-18.6,0-37.2,0-58.6,0c15.2,19.8,9.9,41.1,11.1,61.6c0.5,9.6-3,13.7-13,13.6c-10.1-0.1-13.6-5-13.4-14 C363.2,399.9,358.8,379,372.7,359.4z M810.4,399.3c0-14.3,0-27.4,0-39.9c-35.1,0-68.8,0-103.3,0c17.2,31.2,16.8,61.3,0.9,91.8 c30.3,2.1,61.3,4.4,92.3,6.1c2.8,0.2,8-2.8,8.3-4.9c1.5-9.6,1.6-19.4,2.3-30.8c-18.7,9.7-34.4,22.8-54.7,13.1c0-4.9,0-9.4,0-12.2 c6.7-8,21.3,7.3,22.9-11.5c1.7-20.4-14.9-10.3-23.1-15.3c0.3-3.6,0.7-7.4,1-10.9C778.3,377,793.3,390.7,810.4,399.3z M90.7,466.7 c21.3-1.9,41.2-3.6,63.6-5.5c-26.8-23.7-13.6-52.3-17.9-78.5c18.2-3.3,27,12.1,41.3,15.4c0-13.6,0-26.7,0-39c-40.6,0-79.9,0-118.5,0 c0,14.1,0,26.7,0,39.2c14.3-4.1,23.1-18.1,39.2-16.2c0.9,19.1,1.8,37.7,2.6,56.3c0.1,1.4,0.4,3-0.1,4.3 C97.8,450.3,94.5,457.7,90.7,466.7z M209.2,552.8c3,12.1,4.6,12.8,18,4.8c2.1-1.2,3.7-3.1,5.6-4.7c9.7-7.9,20.6-8.5,32.2-5.4 c7.1,1.9,12.2,0,15.5-6.9c1.5-3.1,4.9-5.5,5.7-8.6c1.6-6,4.2-13,2.6-18.5c-3.1-10.7-8.8-20.6-14-32c-12.5,0-26.8,0-41.9,0 c0.4,14.9,0.4,28.8-14.3,36.5c-0.5,0.3-0.6,1.5-0.7,2.3c-1.2,8.2-2.1,16.5-3.6,24.6C214,547.1,211.9,548.9,209.2,552.8z M486.3,544.8c1.6-0.8,3.1-1.5,4.7-2.3c-2.6-9.2-5.9-18.3-7.6-27.7c-1.2-6.6-6.2-8.1-9.3-6c-2.7,1.9-3.7,8.5-2.8,12.4 c1.3,5.2,4.9,10,8,14.7C481.3,539.1,483.9,541.8,486.3,544.8z M574.2,431.5c0.8,0,1.7-0.1,2.5-0.1c0-15.8,0-31.5,0-47.3 c-0.8,0-1.7,0-2.5,0C574.2,399.9,574.2,415.7,574.2,431.5z M791.4,401.5c0,7.1,0,11.9,0,17.9c5.7-2.9,10.4-5.3,16.1-8.2 C801.9,407.9,797.3,405.1,791.4,401.5z"></path> <path style="fill:#FFFFFF;" d="M360.4,327.9c-31.9,0-63.8,0-95.7,0C296.5,327.9,328.5,327.9,360.4,327.9z"></path> <path style="fill:#FFFFFF;" d="M813.3,518.3c13.8,2.4,25.6,2.8,36.1,6.5c16.4,5.9,21.9,19.5,18.2,45.6 c-2.4,16.7-13.8,25.9-32.3,27.5c-21.9,1.9-22,1.9-22-20.4C813.2,558.7,813.3,539.8,813.3,518.3z"></path> <path style="fill:#FFFFFF;" d="M379.1,522.4c4.1,9.7,8.3,19.4,13.2,30.9c-10.1,0.9-18.8,1.8-30.6,2.9c5.1-12.3,9.6-23.1,14.1-34 C376.8,522.3,378,522.4,379.1,522.4z"></path> <path style="fill:#FFFFFF;" d="M870.1,401.9c1.3-8-5.5-16.8,5.5-20.2c7.6-2.3,16.1,2.9,15.6,9.2 C890.1,404.7,877.9,397.4,870.1,401.9z"></path> <path style="fill:#FFFFFF;" d="M627.2,384.3c11.3-1.9,23-2.5,27.2,7.4c3.8,9.1,3.5,20.9,1.9,31c-1.2,7.8-16.4,13.3-24.7,10.6 c-1.8-0.6-4.2-3.3-4.2-5C627,413.7,627.2,399.1,627.2,384.3z"></path> </svg> 