<?xml version="1.0" encoding="UTF-8"?> <svg xmlns="http://www.w3.org/2000/svg" xmlns:xlink="http://www.w3.org/1999/xlink" version="1.1" id="Layer_1" x="0px" y="0px" viewBox="0 0 1000 1000" style="enable-background:new 0 0 1000 1000;" xml:space="preserve"> <g> <path style="fill:#FFFFFF;" d="M738.5,362.7c-14.9,10.5-28.6,20.6-43,29.6c-3.8,2.4-11.6,2.9-14.5,0.6c-2.8-2.3-3.4-9.8-2.2-14.3 C683.7,360.8,717.2,345.1,738.5,362.7z"></path> <path style="fill:#FFFFFF;" d="M553.9,392.9c12.4-21.5,48.9-21.2,62.5-6.1c2.9,3.2,3.7,9.8,2.8,14.4c-0.4,2.2-7.4,5-10.7,4.3 C590.5,402,572.6,397.4,553.9,392.9z"></path> <path style="fill:#FFFFFF;" d="M967,541.9c-4.1-28.1-6.2-56.4-10.1-84.5c-4.8-34.5-11.7-41.3-42.9-44.8 c-11.5-1.3-27.5,13.8-25.5,31.4c1.8,15.5,4,30.9,6.3,47.7c-8.1-15.4-15.3-29.8-23.1-43.8c-19.3-34.7-46.1-24.1-62.9-1.7 c-2.4,3.2-3.9,7.1-6.2,11.4c-24.1-43-40.8-55.2-81-57.7c-31.2-1.9-52,18-62.5,48.3c-15-16.4-30.9-27.8-52.2-29.8 c-16.5-1.6-32.5,1.1-44.7,12c-14.4,12.8-26,28.5-31.4,47.4c-6.6,23.4-12.3,46.9-8.2,71.6c1.7,9.9-2.5,15.7-14.7,18.4 c-2.5-20.6-4.4-40-7.4-59.3c-3.5-22.8-7.2-45.6-12.7-67.9c-1.6-6.6-8.5-14.4-14.9-16.8c-12.1-4.6-25-0.5-35.8,5.9 c-16.2,9.5-14,27-13.2,41.8c1.3,23.5,4.6,46.9,8.6,70.1c3.8,21.8,7.1,44.2,14.9,64.8c11.8,31.1,26.6,37,54.7,33.9 c26.2-2.9,50.1-10.5,58-40.9c1.2,0.5,2.5,0.9,3.8,1.4c-0.8,9.7-1.7,19.3-2.6,29.7c16.1,10.6,32.5,17.4,45.8,17.1 c36-0.9,67.8-21.5,74.3-67.1c1.4-9.9,4.3-19.6,6.6-29.4c0.8,0.3,1.5,0.6,2.3,0.8c1.4,13.3,2.8,26.6,4.6,44.7 c33.1,41.8,98.2,33.2,126.9-11.7c-0.2,3.9-0.6,8.1-2.6,11.1c-9.7,14.7-5.4,27.7,3.9,40.4c9.5,13,37.5,18.8,47-3 c5.3-12.2,8.3-24.6,4.8-38.3c-2.8-11.1-3.5-22.7-5.5-37.4c4.4,5.2,7.7,7.9,9.4,11.3c7,14.3,13,29.1,20.4,43.2 c4.6,8.7,9.5,18.8,17.1,24.2c16.7,11.6,40.9-0.1,45.7-20.2C967.7,591.6,970.6,567.2,967,541.9z M614.9,563.4 c-0.9,4.4-4.8,8.1-7.4,12.2c-4.1-3.3-10.3-5.8-11.9-10c-8.1-22.2-6.8-44.5,3.4-66c1.3-2.7,5.8-5.6,8.4-5.3c2.6,0.3,6.1,4.3,6.7,7.2 c2.2,10.1,3.3,20.4,4.6,29.5C617.4,542.8,616.9,553.3,614.9,563.4z M755.1,549c-4.8,0-11.2-1-14-4.2c-0.7-0.9-1.5-1.8-2.1-2.6 c-10.1-12.9-12.8-23.6-13.9-44.7c0-5.4-0.5-11,0.3-16.2c0.4-2.5,3.1-5.9,5.3-6.5c2-0.5,6.2,1.7,7.1,3.7c6.7,15,13,30.2,18.9,45.5 c1.7,4.3,2.5,9.4,2.3,14C758.8,541.8,756.5,548.9,755.1,549z M826.9,575.2c0-18.1,0-38.2,0-58.2 C833.8,563.5,833.8,563.5,826.9,575.2z"></path> <path style="fill:#FFFFFF;" d="M404.5,551c-6.5-0.9-13.2-0.1-20.8-0.1c6.5-33.7,13.4-66,18.6-98.5c1.9-11.8,1.3-24.5-0.8-36.3 c-2.7-15-15.7-20.5-28.8-19.7c-9.8,0.6-22.6-0.3-28.3,11.7c-4.6,9.6-9.4,19.3-12.2,29.5c-4.3,16-7,32.5-10.4,48.8 c-0.7,0.1-1.4,0.1-2.1,0.2c-0.8-4.6-2-9.3-2.4-14c-3.6-46.5-43.1-72.6-86.4-59.9c-26.9,7.9-45,32.3-45.6,59.5 c-0.1,3.2-0.2,6.6-1.4,9.5c-5.1,12.5-10.7,24.8-16.8,38.7c-6.2-3.8-10.2-6.3-15.6-9.7c6.2-4.1,11.6-6.1,14.5-9.9 c6.3-8.3,14.4-17,16.2-26.7c5.5-28.1-18-62.5-46.4-67.8c-26.2-4.9-52.9-8.7-78.9,3.6c-7.4,3.5-10.5,6.6-10.9,14.6 c-1.1,21.7-3.2,43.3-4.7,64.9c-2.3,34.2-4.3,68.4-6.6,105.1c25,7.8,48.5,15.1,72.9,22.7c-17.6,2.9-33.1-1.6-48.6-6.8 c-3.8-1.3-8.4-0.2-12.7-0.2c0,1.4,0,2.8-0.1,4.3c22.1,20.4,50.5,19.8,75.9,14.4c35.5-7.5,59-31.6,64.9-69.7 c-0.7,23.8-5.4,45.9-23.4,63.1c7.3,16.4,14.5,20.1,36.1,17.7c23.6-2.6,21.2-23.2,26.2-39.1c8.4,0,16.6,0,25.3,0 c0,4.5-0.3,7,0.1,9.3c2.4,15.5,8.1,28.7,23.7,35.4c11.6,5,20.9-0.5,28.1-7.8c5.4-5.5,9.6-13.6,11.1-21.2c4.8-23.7,8-47.7,11.7-70.7 c1,8.1,2.9,17.2,3.2,26.3c0.2,9.2-1.4,18.4-1.6,27.6c0,2.3,2.1,5.1,4,6.8c11.7,10.4,24.8,16.1,41.1,16.8 c26.6,1.1,48.3-13.5,54.1-39.2C430.8,567.2,421.8,553.3,404.5,551z M90.3,574.1c0-10.6-1.2-20.5,0.5-30c0.8-4.3,6.6-9.5,11.1-10.5 c2.5-0.6,9.2,5.9,9.9,9.9C114.2,556.5,103.6,571.4,90.3,574.1z M99.7,493.2c-0.8-10-1.7-19.2-2.1-28.4c-0.2-3.9-0.3-10.8,1.2-11.3 c4.7-1.5,10.8-2,15.1-0.1c3.6,1.6,7.2,7,7.7,11C122.9,473.9,109.1,490.7,99.7,493.2z M248.7,537.3c-0.4,2.9-5.3,5.1-8.1,7.7 c-2.1-2.9-6.2-6-5.9-8.6c2.7-20.9,6.1-41.7,9.9-62.5c0.4-2.1,4.2-3.6,6.4-5.5c1.6,0.7,3.2,1.4,4.8,2.1 C253.5,492.8,251.5,515.1,248.7,537.3z"></path> </g> </svg> 