<?xml version="1.0" encoding="UTF-8"?> <svg xmlns="http://www.w3.org/2000/svg" xmlns:xlink="http://www.w3.org/1999/xlink" version="1.1" id="Layer_1" x="0px" y="0px" viewBox="0 0 1000 1000" style="enable-background:new 0 0 1000 1000;" xml:space="preserve"> <path style="fill:#FFFFFF;" d="M35.1,566.1c1.7-6.3,3-12.7,5.1-18.9c8.3-23.8,32.4-43.2,65.7-41.9c0.4,8.8,2.2,16.6-9.1,22.1 c-12.1,6-12.8,22.3-2,30.2c8.7,6.4,18.4,12.2,28.4,16.3c17.2,7,31.4,15.9,44.5,30.4c10.5,11.6,16.5,23,16.2,36.3 c-0.3,13.9-3,29.7-10.3,41c-7.4,11.2-21.1,19-33.4,25.9c-8.3,4.6-19,5-29.4,7.4c-2.3-11-5.1-18.4,8.3-22.4 c14.7-4.4,19.5-22.3,9.7-31.1c-6.1-5.5-13.3-10-20.7-13.8c-12.9-6.7-27-11.4-39.3-19c-17.9-11-28.2-28.3-33.5-48.4 C35.1,575.5,35.1,570.8,35.1,566.1z"></path> <path style="fill:#FFFFFF;" d="M35.1,646.6c3.2-3.8,6.4-7.5,9.6-11.3c3.3,4.2,7.5,7.9,9.8,12.6c7.9,16,15.4,32.1,30.6,42.8 c2.2,1.5,4.5,4.6,6.4,4.3c9.7-1.3,8.7,6,7.1,10.2c-1.2,3.4-7.1,7.6-10.2,7.2c-7.9-1.1-15.6-4.2-23.1-7.3c-8.7-3.5-16.1-5.4-17.6,8.6 c-1.1,0.1-2.2,0.1-3.2,0.2c-2.3-3.9-5.3-7.6-6.9-11.8c-1.5-4-1.8-8.6-2.5-12.9C35.1,675.1,35.1,660.8,35.1,646.6z"></path> <path style="fill:#FFFFFF;" d="M644.7,659.2c1.7-7.1,3-12.9,4.6-19.7c9.2,1.5,17.4,3.5,25.7,3.7c2.3,0.1,7.1-5.7,6.6-7.9 c-7.1-30.3-15-60.5-22.6-90.7c-1.8-7.2-3.9-14.5-4-21.8c-0.1-8.8,1.2-17.2,14.2-16.3c14.7,1,29.6-0.5,44.3,0.6 c3.4,0.2,8.4,5.7,9.3,9.5c12.1,48.8,22.9,97.9,35.7,146.5c3,11.5,4.9,24.6,15.7,33.6c5.2,4.3,0.4,10.9-8.4,11.5 c-12.9,0.8-25.7,1.5-38.6,1.5c-11.7,0-23.4-0.4-35-1.5c-4-0.4-9.7-2.6-10.9-5.5c-1.1-2.7,2-8.3,4.8-11c8.6-8.4,3.3-17.1,1.8-26 c-1.5-9.2-8.5-6.4-13.9-6.5C665.1,659,656,659.2,644.7,659.2z"></path> <path style="fill:#FFFFFF;" d="M868.5,708.3c-24,0-46.1-0.1-68.2,0c-6.6,0-14.1,0-14.3-8.1c-0.1-4.3,5.2-8.8,8.1-13.2 c0.9,0.4,1.8,0.8,2.7,1.2c-0.6-2.5-2-5.1-1.6-7.3c6.5-35.7,4.1-71.8,4.4-107.7c0.1-14.7-1.6-29.4-3-44.1c-0.2-1.9-3.7-3.3-5.1-5.4 c-2.2-3.2-6-7.2-5.4-10c0.7-3.2,5.6-7.4,8.8-7.6c18.1-0.9,36.2-0.7,54.3-0.9c1.5,0,3.1,0.9,4.6,0.9c14.4,0,16.6,3.4,14.9,17.8 c-1.6,13.8-2.2,27.7-2.3,41.5c-0.2,25.1,2.2,50.4-0.1,75.3c-1.8,19,2,37.2,2.2,55.7C868.5,700.1,868.5,703.5,868.5,708.3z"></path> <path style="fill:#FFFFFF;" d="M604.7,267.1c16.1,3.7,33-6.1,47,6.8c3.5-6.8,28.8-8.9,32.5-1.1c1.3,2.6-1.2,10-3.7,11 c-8.4,3.3-9.4,8.9-9.2,16.7c0.5,33,1,66.1,0.4,99.1c-0.1,5.3-5.4,10.5-9.1,17.3c1.1,1,4.7,4.3,9.2,8.2c-2.4,0.8-4.1,1.3-6.1,1.9 c6.9,5,9.5,10.3,1.8,15c6.7,7.4,13.1,14.3,19.6,21.4c-15.8,11.5-93.3,8.7-100.9-2.6c3.6-1.2,10-2.2,10.1-3.5 c0.4-9.5,10.7-13.5,9.7-25.3c-2.6-30.6-1.1-61.5-1.2-92.3C604.6,316.1,604.7,292.4,604.7,267.1z"></path> <path style="fill:#FFFFFF;" d="M790.9,283.8c-1.6,10.7-3.1,21-4.9,33.6c0.9,4.2,3.9,11.9,3.8,19.6c-0.1,22.3-1.9,44.6-2,67 c-0.1,15.4,1.4,30.8,2.1,46.2c0.2,5.8,0,11.6,0,18.8c-10.2,0-19.5,0-28.9,0c-14.4,0-28.8,0.5-43.1-0.5c-3.8-0.3-7.2-5.5-10.8-8.4 c3-2.3,6.1-4.4,8.8-6.9c2.5-2.2,5.3-4.6,6.6-7.5c2.3-5.1,4-10.7,4.8-16.2c0.3-2.3-3-4.9-3.3-7.5c-1-8.8-2.1-17.7-2-26.6 c0.2-19.5,1.4-39.1,1.7-58.6c0.2-11.4-0.4-22.8-1.2-34.2c-0.5-7.6,0.8-16.4-10.1-19.5c-2.4-0.7-5.2-6.7-4.5-9.2 c0.8-2.7,5.6-6.1,8.7-6c7.4,0.1,14.8,2.5,22.2,2.8c4.2,0.2,8.4-2.8,12.7-3c12.4-0.4,24.8-0.2,39.3,2.5c-3.1,2.7-6.1,5.4-10.2,9.1 C783.4,280.5,786.6,281.9,790.9,283.8z"></path> <path style="fill:#FFFFFF;" d="M412.6,643.3c-0.7-1.5-2.6-3.8-2.6-6.2c-0.2-19.7,0.3-39.3-0.1-59c-0.3-15-1.3-30-2.6-45 c-0.2-2.8-3-5.6-5.1-8c-3-3.6-6.4-6.9-9.7-10.3c0.3-1.5,0.7-2.9,1-4.4c9-1.2,17.9-3.2,26.9-3.5c19-0.5,38-0.7,56.9,0.2 c4.6,0.2,9,4.9,13.5,7.6c-2.8,3.6-5.7,7.2-8.5,10.9c-2,2.7-5.4,5.6-5.4,8.5c-0.3,45.7-0.8,91.4,0.3,137.1c0.2,8,7.9,15.6,11.4,23.7 c2,4.7,2.6,10,3.8,15c-3.2,0.7-6.5,2.1-9.7,1.9c-6.7-0.4-13.3-1.7-19.5-4.7c-2.7,0.9-5.9,3.3-8,2.6c-18.2-6.7-36.6-14.7-42.5-35.1 C410.1,665.2,412.5,654.3,412.6,643.3z"></path> <path style="fill:#FFFFFF;" d="M108.4,466.4c-4.1,5.6-17.3,7.6-23.7,0.2c-1.6-1.8,0.7-10.5,3.1-11.5c8.3-3.4,9.4-8.9,9.1-16.6 c-0.5-11.4-0.6-22.9,0-34.3c0.4-8.2,2.3-16.3,3.8-26.2c-6.2-5.5-6.8-27.7-1-32.7c0-6.4,0-11,0-15.5c-1-6.3-2.7-12.8-3-19.4 c-0.5-10.2,3.6-21.9-11.8-25.5c-1.7-0.4-3.4-5-3.3-7.7c0-1.3,4.2-2.3,6.1-3.9c13.3-11.2,30.8-6.9,42.8-3.6 c12.3,3.4,22.8-5.3,34.8,2.3c-0.6,5.3-1.9,11.9-2,18.6c-0.2,16.2,0.6,32.5,0.1,48.7c-0.2,5.1-3.2,10.1-4.8,15.1 c-0.5,1.4-1.7,3.4-1.2,4.3c9.3,14.9,5,31.3,5.7,47.2c0.8,16.8,1.4,33.7,1.8,50.5c0.1,4.6-0.6,9.2-1,15.4 C145.7,469.1,127.5,475.5,108.4,466.4z"></path> <path style="fill:#FFFFFF;" d="M353.3,694.7c4.4,0.5,10.9,1.3,17.3,1.9c3.3,0.3,6.6,0,9.9,0c-1.2,3.4-1.4,7.7-3.6,9.9 c-11.6,11.6-26.6,17.9-41.7,11.5c-12.8-5.4-24.5-8.3-40.7-3.4c1.8-9.7,3.1-16.8,4.8-26.3c-2.5-1.7-7.3-4.8-11.8-8.2 c-2.3-1.8-4.1-4.2-6.1-6.3c3-2.7,5.7-5.8,9-8c1-0.7,3.6,1.1,5.5,1.4c13.3,1.7,14.4,0.8,14.3-13c-0.4-36.8-0.9-73.6-1.4-110.4 c-0.1-7.7-2.4-13.3-9.6-18.5c-4.5-3.3-4.8-12.4-7.5-20.3c29.3-2.7,48.9,9.7,65.1,28.3c19.1,22.1,23.4,49.2,23,77.2 c0,3.2-3.9,6.3-4.7,7.4c0.9,7.7,3.9,15.1,1.9,20.6C370.4,657,362,674.7,353.3,694.7z"></path> <path style="fill:#FFFFFF;" d="M822.4,302c0,0-3-0.7-3.3-1.9c-1.6-7.5-5.8-10.3-13.5-11.9c-11-2.3-4-12.3-6.5-20.3 c17.6-0.5,33.9-1.1,49.7,6.3c3.1,1.5,7.1,0.9,10.6,1.6c2.2,0.4,5,0.8,6.2,2.3c6.8,8.3,14.3,16.4,19.5,25.7c6.6,11.7,2.2,24.9-4,34.3 c-6.3,9.5-18,15.4-27.3,22.8c-0.3,0.2-0.6,0.5-2.3,2.2c3.1,2.6,5.9,5.2,8.9,7.5c6.9,5.2,14.4,9.6,20.6,15.4 c5.4,5.1,9.2,11.6,3.1,17.2c2.1,2.6,4.7,4.3,5.1,6.5c7,39.4-32.7,62.5-57.8,58.4c-10.7-1.7-20,5.2-30.3-0.3 c-2.8-8-2.7-14.7,8.7-17.4c9.4-2.2,10.7-11.1,11.1-18.7c0.7-13.2,0.5-26.6-0.2-39.8c-0.4-8.3-4.9-14.2-13.2-17.9 c-3.3-1.5-6.2-6.8-6.7-10.7c-0.3-2.4,4-6.6,7-7.8c10.1-4,12.7-11.8,13.1-21.4C821.2,323.4,821.8,312.7,822.4,302z"></path> <path style="fill:#FFFFFF;" d="M190.5,373.8c-6.7,0-10.5,0-14.7,0c0-5.4,0-10.2,0-15.1c15.3-3.5,21.5-12.4,19.8-28.6 c-0.1-1.1-1.9-2-2.2-3.2c-1.1-3.7-3.8-8.4-2.5-11.2c5.4-11.6,3.5-22.4-7.8-26.7c-11.7-4.5-12.5-11-7.6-20.8c9.5,0,18.9,0,28.4,0 c8.3,0,22.5,7,24.1,11.1c11.3-4,16.8,4.4,22.7,10.6c8.6,9,8.8,12.6,2.8,20.6c8.5,7.8,7,26.7-3.6,36.6c-5.3,5-11.6,9.2-18,12.7 c-6.6,3.7-5.7,8.2-1.8,12.2c2.7,2.8,7.2,4,10.8,6c13.9,7.7,20.7,18.2,21,35.4c0.4,17.4-1.6,32.5-16.1,42.6 c-10.4,7.2-20.9,15-36,11.6c-7.8-1.7-16.8,2.4-25.3,3.6c-2.6,0.4-5.3-0.4-8.5-0.7c-0.8-9-4.1-17.7,9.8-19.5c4.3-0.6,7.9-6,11-8.6 c-0.8-7.4-1.6-14.6-2.4-21.8c0.8-0.2,1.5-0.4,2.3-0.7c1.3,2.3,2.6,4.7,3.8,7c0.9-0.2,1.9-0.5,2.8-0.7c-3-8.4-6.7-16.6-8.7-25.2 C192.3,392.2,191.8,383,190.5,373.8z"></path> <path style="fill:#FFFFFF;" d="M579.9,345.3c4-12.2,7.5-23,11-33.8c0.9,0,1.8-0.1,2.8-0.1c0.5,8.3,3.1,17,1.3,24.8 c-6.8,29.6-14.9,58.8-22.6,88.2c-3.4,12.8-6.7,25.6-10.7,38.1c-1,3.3-4.6,5.7-7,8.6c-2.1-2.4-5.1-4.5-6.2-7.3 c-4.5-11.9-8.9-23.8-12.5-36c-1.8-6.1-1.9-12.8-3-19.2c-0.3-1.6-1.1-3.2-1.9-4.6c-2.5-4.1-5.9-7.9-7.5-12.3 c-10.2-29.4-20-58.9-29.9-88.5c-2.8-8.3-5.8-15.6-16.3-17.4c-3.1-0.5-7.6-6.9-7.2-10c0.4-3.1,6.1-7.8,9.7-7.9 c22.2-0.7,44.4-0.5,66.7-0.2c1.9,0,4.8,1.9,5.4,3.5c7.1,21.2,13.7,42.5,20.8,63.6C574,338.4,577.1,341.2,579.9,345.3z"></path> <path style="fill:#FFFFFF;" d="M282.7,713.7c-30.4-4.3-55.3-17.4-69.7-46.5c-15.2-30.9-18-63.6-8.8-96c8.9-31.6,28.9-55.3,62-65.1 c5.1-1.5,10.7-1.5,17.4-2.4c-0.1,9.4,8.4,19.4-8,23.5c-3,0.7-5,11-5.1,16.9c-0.5,19.8,0.3,39.6,0.1,59.4 c-0.2,19.9-2.5,39.9-0.9,59.6c0.9,11.1-2.8,25.5,12.2,32.9c3.3,1.6,3.3,9.9,4.8,15.1C285.4,712,284.1,712.8,282.7,713.7z"></path> <path style="fill:#FFFFFF;" d="M371,264.6c20.5-0.8,37.1,6.2,50.9,18.5c15.2,13.6,28.2,29,29,51.5c0.2,6.4,7,13.2,5.8,18.9 c-3.4,17.6,1.4,35.1-4.5,53.3c-6.1,18.8-14.6,34.2-28.4,47.2C410,467,393.2,473.5,374,473.9c0-5.6,0-10.6,0-16.5 c9.2-4.7,14.3-10.6,13.2-24.6c-2.1-25.9,0.6-52.1,0.7-78.2c0-12.3-1.4-24.5-2-36.8c-0.2-4.1,0.5-8.3,0.2-12.4 c-0.6-9,0.8-18.4-10.8-23.4C372.1,280.6,372.5,271.3,371,264.6z"></path> <path style="fill:#FFFFFF;" d="M362.9,473.2c-40.7-6.9-70.5-25.7-66.2-37c-5.5-9.8-10.1-17.2-13.8-25c-2-4.2-2.5-9.1-3.2-13.8 c-3.2-21.4-6.9-43.4,2.8-63.4c3.7-7.6,0.9-16.1,6.5-22.2c6.5-7.1,13.4-13.7,19.8-20.9c2.4-2.7,3.2-7.1,5.8-9.4 c12.1-10.7,26.3-16.8,42.7-16.1c6.4,0.3,8.4,13.2,1.2,17.5c-15.2,9.2-9.9,22.9-10.1,35.2c-0.5,28.6-0.1,57.3-0.1,85.9 c0,14.1-0.1,28.1,0.3,42.2c0.1,2.8,1.7,7.7,3.4,8C362.2,456.4,360.1,465.3,362.9,473.2z"></path> <path style="fill:#FFFFFF;" d="M878.8,707.8c-1.9-10.5-1.8-18.7,10.2-22c3.1-0.9,6.8-6.4,7-10c1.1-19.5,1.8-39.1,1.5-58.7 c-0.3-20.3-2-40.5-3-60.7c-0.2-3.1-0.3-6.3,0.1-9.5c1.9-14.5-0.2-17.7-14.2-21c-2.2-0.5-4.2-1.4-6-2c1.6-5.4,3.1-10.1,4.7-15.3 c23.9-7,51.5,9.6,64.7,28.1c19.6,27.4,26.1,58.1,17.5,91.2c-3.2,12.3-5.8,24.9-10.7,36.5c-2.6,6.2-9.7,10.4-14.7,15.6 c-5.1,5.5-9.3,12-15.1,16.5C908.9,705.8,894.9,709.7,878.8,707.8z"></path> <path style="fill:#FFFFFF;" d="M516,514.2c12.9-12.4,58.8-9.5,65.5,3.6c-2.1,1.8-4.4,3.9-6.9,5.8c-15,11.2-19.9,27.7-15.4,46.3 c1.9,7.9,1.2,16.5,0.7,24.8c-1.4,25.7-1.3,51.8-5.6,77c-4.2,24.5-23.8,35.6-45.4,41.1c-1.4-7-2.6-13.3-3.8-19.6 c22.7-6.5,37.9-19.8,35.9-46c-1-12.6-2.3-25.2-2.2-37.9c0-14,1.9-28.1,2-42.1c0.1-10.1-0.8-20.3-2.8-30.2c-0.9-4.4-5.3-8.3-8.8-11.8 C525.4,521.5,520.9,518.4,516,514.2z"></path> <path style="fill:#FFFFFF;" d="M651.5,545.5c1.3,14.8,7.4,28.4,1.9,44.8c-9,27.2-15,55.4-21.8,83.3c-1.9,7.6,1.6,12.9,8.8,17 c4,2.3,6.3,7.7,9.3,11.7c-4.6,2-9.2,5.4-14,5.7c-11.4,0.8-22.9,0.8-34.4,0c-4.4-0.3-8.6-3.5-13-5.4c2.8-4.3,4.7-10.9,8.6-12.5 c11.8-4.9,14.7-14.3,17.6-25.1c9.2-34.4,19.2-68.6,28.9-102.9c1.6-5.6,3.1-11.1,4.6-16.7C649.3,545.3,650.4,545.4,651.5,545.5z"></path> <path style="fill:#FFFFFF;" d="M491.3,453.1c1.3-37.1,2.6-72.2,3.9-107.4c8.3,20.4,18,39,13.7,63c-2.7,15.4-1.5,35.6,18.2,45.5 c2.8,1.4,6.5,7.1,5.7,8.7c-1.8,3.3-6.1,7.2-9.6,7.5c-13.9,0.9-28,1-41.9,0c-3.3-0.2-9.2-8-8.7-8.8 C476.4,455.8,479.8,447.7,491.3,453.1z"></path> <path style="fill:#FFFFFF;" d="M177.4,541.4c0,8.7,0.8,17.4-0.4,25.9c-0.5,3.6-4.6,7.4-8.1,9.3c-1.2,0.7-7-3.6-8-6.5 c-7.3-21.9-19.2-39.4-41.2-49.3c-2.7-1.2-2.4-8.9-3.4-13.6c3-0.2,6.2-1.3,9-0.6c8.1,2,15.9,5.6,24,6.9c3.8,0.6,8.3-2.5,12.5-4.1 c3.4-1.3,8.7-5,9.6-4.1c2.9,3,5.5,7.4,6,11.5C178.2,525,177.5,533.2,177.4,541.4C177.5,541.4,177.5,541.4,177.4,541.4z"></path> </svg> 