<?xml version="1.0" encoding="UTF-8"?> <svg xmlns="http://www.w3.org/2000/svg" xmlns:xlink="http://www.w3.org/1999/xlink" version="1.1" id="Layer_1" x="0px" y="0px" viewBox="0 0 1000 1000" style="enable-background:new 0 0 1000 1000;" xml:space="preserve"> <path style="fill:#FFFFFF;" d="M65.7,500.8c9.4-0.9,18.7-2.4,28.1-2.7c16.6-0.5,33.2-0.9,49.7-0.3c17.2,0.6,34.5,1.2,51.3,4.2 c13.2,2.4,20.6,13,20.2,23.2c-0.6,13.5-7,20.9-21.8,25.4c-2.3,0.7-4.4,2.5-8.7,5c6.4,3.6,10.9,6.2,15.5,8.6 c12.9,6.7,21.2,19.6,20.1,31.6c-1.4,14.9-11.1,24.1-24.4,26.7c-16.6,3.2-33.9,3.4-51,4.2c-18.5,0.9-37,1.3-55.5,1 c-7.9-0.1-15.7-2.6-23.5-3.9c0-4.7,0-9.5,0-14.2C71.4,608,77,605,82.8,605c6.8-0.1,13.1-1.3,13.4-8.2c0.8-22.6,0.9-45.2-0.1-67.7 c-0.1-3.1-7-6.8-11.4-8.6c-6-2.6-12.6-3.7-19-5.4C65.7,510.2,65.7,505.5,65.7,500.8z M146.7,564.7c-5.2,3.2-13.5,5.5-16,10.6 c-4.4,8.8,2.9,28.3,9.5,28.8c10.3,0.8,21.2,0.5,31.2-2c4.5-1.1,10.2-8.7,10.2-13.4c0-5.4-4.4-12.8-9.1-15.8 C165.7,568.7,157.1,567.8,146.7,564.7z M147.6,551c4.6-0.6,9.3-0.9,13.8-2c8.8-2.1,15.4-7.5,15-16.8c-0.4-9-8.1-11.6-16-12.5 c-4.3-0.5-8.5-1.3-12.8-1.1c-13.8,0.7-15.6,4-16,19.8C131.2,551,138.3,551.5,147.6,551z"></path> <path style="fill:#FFFFFF;" d="M665.2,630.9c-12.2-4-24.9-6.8-36.5-12.1c-14.3-6.5-21.8-19.7-22.7-34.7c-1-16.9-2-34.8,2.2-50.9 c6.9-26.9,29.6-36.9,55.4-39.5c21.2-2.1,41.1,3.9,57.6,16.5c7.5,5.8,14.1,16.1,15.8,25.4c4.5,23.6,6.3,48.2-7,69.8 c-8.5,13.8-23.7,19.5-39.2,23.1c-3,0.7-5.9,1.6-8.9,2.4C676.3,630.9,670.7,630.9,665.2,630.9z M637.3,562.2 c2.3,9.3,3.7,18.9,7.1,27.8c4.9,13.1,16.3,15.5,29,15.2c11.5-0.3,20.1-3.6,25.4-15c8-17,6.9-33.8,1.9-51 c-4.8-16.8-23.7-25.6-40-18.8C641.9,528.2,639.2,544.3,637.3,562.2z"></path> <path style="fill:#FFFFFF;" d="M431.6,464.9c-9.6,2.6-17.1,5.6-24.8,6.5c-8.8,1-17.7,0.5-26.6,0.2c-16.3-0.5-22.1-11.5-18.2-27.1 c2.1-8.5,0.6-20.3-4.2-27.4c-6.4-9.4-19.7-8.7-29.5-5.1c-10.5,3.9-5.6,15.3-4.8,23.1c0.3,3.1,7.1,6.6,11.6,7.9 c5.9,1.8,12.4,1.6,18.5,2.3c5.3,18.4-1,27.9-18.7,28c-20.9,0.2-41.9,0.2-62.8-0.1c-15.2-0.2-21.2-7.7-18-21.1 c2.1-8.9,8.8-9.7,15.9-9.4c14.5,0.7,16.9-1,17-14.9c0.2-17.9-0.4-35.8,0.2-53.7c0.4-11.4-3.1-15.8-15.1-13.5 c-7.6,1.5-15.5,0.1-15.9-10.3c-0.4-10.9,5-15.3,15.9-15.2c25.6,0.3,51.2-0.4,76.8,0.2c16.5,0.4,33.2,1.6,46.2,14 c13.8,13.1,9.9,32.9-7.9,40.6c-5.8,2.5-11.6,4.8-20.3,8.3c6.3,2.7,9.3,4.2,12.5,5.2c17.4,5.8,19.4,7.8,19.3,25.8 c0,10.3,4,14.1,14.2,13.7c11.9-0.5,23.8-0.3,35.7,0.7c10.6,0.8,16-3.1,16.1-13.5c0.2-18.5,0.5-37-0.1-55.5 c-0.3-9.1-2.6-17.1-15.7-14c-7.9,1.8-15.9-1.5-17.3-10.2c-1.5-9.5,4.9-14.4,14.2-14.2c17,0.4,34,1.7,51,1.8 c23.7,0.2,47.3-0.6,71-0.6c13.8,0,15.9,2.9,14.3,16.2c-0.8,6.8-0.9,13.8-0.4,20.6c0.7,10.7-2.8,15.1-13.8,16 c-10.3,0.8-14.4-3.4-14.4-14.8c0-16.9-0.1-17-16.8-17c-8.7,0-17.4-0.5-26.1,0c-9.5,0.5-12.8,7.6-12.1,21.7c0.4,8,4.6,11.1,11.4,9.2 c3.8-1.1,7.3-4.7,10.1-7.9c2.1-2.4,2.3-6.5,4.5-9c1.7-2,5.4-4.1,7.4-3.5c2.1,0.6,4.6,4.4,4.6,6.9c0.4,14.7,0.6,29.5-0.3,44.2 c-0.2,2.8-5.8,5.2-8.8,7.8c-2.1-2.9-6.5-6.3-6-8.7c2-9.8-4.7-11.9-11.2-12.6c-8-0.9-12.2,3.4-12.1,12c0.3,25.7,3.4,28.7,29.9,27.2 c3.1-0.2,6.3,0.3,9.2-0.4c15.3-3.6,19.9,0.4,18.6-21c-0.6-10.6,5.6-15.2,15.1-15.6c10-0.4,12.2,6.6,12.6,14.9 c0.5,9.8,1,19.6,1.8,29.4c0.9,12-1.6,15.2-13.6,14.9c-24.5-0.6-49-1.9-73.6-2.1c-16.5-0.1-33.1,1.8-49.6,2 C442.4,467.8,436.1,465.7,431.6,464.9z M322.6,378.3c-1.3,8.1,0.2,15.9,12.6,15.9c17.2,0.1,30-8.4,29.9-19.8 c-0.1-8.8-9.1-14.7-22.9-14.9C326.9,359.3,322.6,363.1,322.6,378.3z"></path> <path style="fill:#FFFFFF;" d="M756.8,499.2c9-0.4,18.5-1,27.9-1.2c12.3-0.3,24.7,0.8,36.8-0.7c13.3-1.6,19.1-0.6,26.9,17.9 c10.1,24,20.7,47.9,31.2,71.7c1.4,3.2,4,5.9,6,8.9c1-0.3,2.1-0.7,3.1-1c0-22.2,0.5-44.4-0.6-66.6c-0.2-3-8.3-7.9-12.8-8 c-7.3-0.2-13.3-0.4-13.4-8.8c-0.1-7.6,3.3-13.7,12.7-13.6c19.8,0.1,39.6-0.1,59.4,0c8.8,0.1,13.3,5.1,12.5,13.6 c-0.7,8.3-7.1,9.3-14,8.8c-12.7-0.9-15.6,1.3-15.4,13.7c0.3,25.8,1,51.6,1.9,77.4c0.4,12.2-2.4,15.4-14.9,15.1 c-5.5-0.1-11.1-0.1-16.6-0.1c-19.4,0-22.7-3.1-30.2-20.8c-11-25.9-23.2-51.3-34.9-76.9c-1.3,0-2.6,0.1-3.9,0.1c-1,2.7-2.9,5.5-3,8.2 c-0.3,17.3-0.5,34.7,0,52c0.2,9.7,2.7,17.9,16,15.7c7.5-1.3,13.4,1.5,13.8,10.4c0.4,9.9-6.5,13.3-14.4,13.4 c-8.6,0.2-17.2-2.3-25.8-2.3c-9.4-0.1-18.8,1.4-28.3,1.9c-3.9,0.2-9.1,0.8-11.4-1.2c-3.8-3.5-7.4-9-7.6-13.7 c-0.1-2.8,7-8.6,10.3-8.2c15.1,1.8,19.9-4.6,19.3-18.7c-0.8-18.7-0.4-37.5-0.6-56.3c-0.1-8.4-5.2-10.8-12.6-10.2 C757.8,521.3,754.5,518,756.8,499.2z"></path> <path style="fill:#FFFFFF;" d="M534.9,558.6c9.4,5.3,17,8,22.3,13.1c3.5,3.4,4.8,10,5.1,15.4c0.5,9.2,8.1,18.6,17.3,19.4 c17.8,1.5,18,1.7,11.2,21.2c-14.3,0-29.5,0.3-44.6-0.1c-9.9-0.3-15.7-7.8-16.1-19.4c-0.2-5.5,0.1-11-0.1-16.5 c-0.7-17-22.9-28.7-36.2-17.6c-4.5,3.8-4.3,14.8-3.6,22.3c0.3,3.2,7,7.7,11.2,8.3c7.7,0.9,15.8-0.2,16.4,10.5 c0.5,8.5-7.4,13.7-18.4,13.6c-21.2-0.3-42.4-0.5-63.6,0c-9.7,0.2-15.5-2.7-15.3-12.8c0.2-9.3,6.8-11.2,14.8-11.2 c17,0,17.8,0,18.5-17.5c0.8-19.1,0.2-38.2-0.3-57.4c-0.2-9-6.1-9.7-14-9.6c-5.9,0.1-12.8-2.5-17.5-6.2c-1.9-1.5-0.1-9.5,2.1-13.6 c1.3-2.4,6.4-4,9.8-4.1c31.6-0.2,63.1-0.2,94.7,0.3c6.8,0.1,14.4-1.4,19.4,7.3c2.1,3.7,12.1,2.4,15,6.1 c10.5,13.3,8.4,35.8-12.5,42.8C545.8,554.4,541,556.3,534.9,558.6z M507.4,519.8c-14.8-0.2-18.6,4.4-17.6,25 c0.2,3.6,6.8,9.6,10.9,9.9c17,1.6,31-7.7,31.2-19C532.1,526,522.9,520,507.4,519.8z"></path> <path style="fill:#FFFFFF;" d="M634.2,402.2c0-9.4,0.4-18.9-0.1-28.3c-0.5-8.1-3.2-14.8-13.7-12.8c-0.8,0.1-1.6,0.1-2.4,0.1 c-8.2,0.1-17.1-2.6-15.9-11c0.8-5.5,9.9-13.8,15.4-13.9c28.1-0.8,56.3,0.4,84.5,1.2c28,0.8,52.7,25,54.2,56.2 c1.3,28.3-4.7,52.1-30.9,66.7c-8.5,4.7-18.9,8.1-28.6,8.4c-26.7,0.9-53.5,0.3-80.1-1c-4.9-0.2-10.6-5.6-13.7-10.1 c-1.5-2.2,1.2-9.4,4.1-11.7c3.1-2.5,8.8-2.8,13.2-2.4c9.9,0.9,13.9-3.8,14-12.9C634.3,421.1,634.2,411.6,634.2,402.2z M666.9,406 c0.8,6.8,2.8,16.1,2.7,25.4c-0.1,11.9,6.8,13.9,16.1,13.1c27.5-2.2,43.5-29.3,35-55.9c-7.3-22.7-20.3-29.2-37.1-29.4 c-4.5-0.1-12.3,5.3-13.2,9.4C667.8,379.9,668,391.8,666.9,406z"></path> <path style="fill:#FFFFFF;" d="M381.8,627.4c-10.4-1.2-20.8-2.7-31.3-3.3c-2.7-0.2-7.1,4.3-8.2,3.4c-4-3.1-8.6-7.1-9.6-11.6 c-0.6-2.8,4.2-7.6,7.7-10.2c3.1-2.3,10.2-2,11-4.4c1.2-3.6-0.5-9.2-2.8-12.7c-6.8-10.4-41.6-9.3-48.5,1.2 c-6.9,10.4-5.2,13.8,6.9,15.9c3.2,0.6,8.2,3.6,8.5,5.9c0.5,4.1-1.2,9.2-3.6,12.7c-1,1.5-6.4-0.3-9.7,0c-5.3,0.4-10.6,1.6-15.9,2 c-12.5,0.9-25,1.8-37.6,2.2c-8.4,0.2-14.5-2.9-15.3-12.5c-0.8-10.6,5.8-11.7,13.7-10.8c8.5,1,13.4-3.1,16.3-10.6 c9.4-24.4,19.7-48.4,27.9-73.1c6.8-20.4,15.3-26.4,33.5-25.8c31,1,30.5,0.4,39,30.3c6.3,22.1,14.1,43.9,21.8,65.6 c2.9,8.3,6.6,16,18.8,13.3c2.8-0.6,9.6,5.5,10.2,9.2c1.1,6.9-2.1,13.1-11.3,12.8c-7.1-0.3-14.2-0.1-21.3-0.1 C381.9,626.9,381.8,627.2,381.8,627.4z M338.3,568.1c6.6-18.9-6.2-34.2-10.6-51.5c-7.6,13.9-13.6,27.8-18.1,42.2 c-0.6,1.9,6,7.6,10.1,8.9C324.5,569.3,330.4,568.1,338.3,568.1z"></path> </svg> 