<?xml version="1.0" encoding="UTF-8"?> <svg xmlns="http://www.w3.org/2000/svg" xmlns:xlink="http://www.w3.org/1999/xlink" version="1.1" id="Layer_1" x="0px" y="0px" viewBox="0 0 1000 1000" style="enable-background:new 0 0 1000 1000;" xml:space="preserve"> <path style="fill:#FFFFFF;" d="M873.5,95.1c5.5,8.6,4.1,11.6-5.7,12.7c-4.3,0.5-8.6,1.8-12.8,1.4c-3.4-0.3-6.5-2.8-9.7-4.3 c2.6-2.3,5-5.3,8-6.8c3.5-1.7,7.6-2.1,11.5-3C867.6,95.1,870.5,95.1,873.5,95.1z"></path> <path style="fill:#FFFFFF;" d="M533.3,898.7c-7.8-3.8-9.5-12.5-10.5-20.9c-2.6-23,2.8-45.1,9.3-66.8 c16.5-54.8,40.3-106.3,68.1-156.2c0.7-1.2,1.3-2.4,2.2-4.2c-12.3,6.1-16.9,12.2-19.8,24.2c-7.6,30.8-24.2,55.1-51.8,71.3 c-4.4,2.6-9.7,4.5-14.7,4.8c-11.3,0.8-18.6-8.6-16.8-22.8c2.1,2.7,3.6,4,4.3,5.7c4.2,9.7,9.4,12,18.3,6.6c4.9-3,9.3-7.1,13.1-11.3 c11.4-12.5,19.9-26.9,24-44.2c-6,4.2-11.7,8.9-18,12.6c-16.9,10.1-33.9,20.2-51.3,29.5c-5.1,2.7-11.7,3.6-17.6,3.9 c-6,0.4-9.8-3-9.2-9.7c26.5,0.1,47.3-14.2,69-26.2c6.6-3.7,12.7-8.3,19-12.4c17-11.2,19.4-24.4,7.4-42.1 c-11.3,12.4-22.5,25.1-34.1,37.2c-5,5.2-9.6,12.9-19,8c-6.8-3.6-8.9-12.6-6-23.5c0.2-0.8,0.5-1.6,1.5-4.5 c-9.3,8.4-16.9,15.7-25.1,22.3c-5.1,4.2-9.1,12.3-17.3,9.1c-8.8-3.5-8.8-12.1-8.6-21.4c-2.4,1.9-4,3.2-5.7,4.5 c-23.6,17.8-46.9,36.3-71.1,53.3c-12.3,8.6-29.3,4.8-35.2-8.6c-3.6-8.2-3.7-20.7,0-28.9c14.3-31.2,39.3-52.8,69.3-69 c0-0.2,0-0.9-0.3-1.1c-21.6-15.8-26-32.4-14.8-56.9c8.4-18.4,22-32.9,37.4-45.5c33-26.9,68.7-49.1,111-58c7.6-1.6,15.7-1.8,23.4-1.3 c13.7,1,19.8,8.7,16.3,21.8c-2.6,9.6-7,19.2-12.4,27.6c-17.1,26.5-38.6,48.8-66.7,64c-12.1,6.6-24.9,11.5-39.2,8.8 c-7.4-1.4-13.2-5.3-15.2-12.7c-2-7.5,2-13.2,7.3-18.4c7.3,12,10.1,13.5,23,7.4c33.5-15.9,63.5-36.6,86.7-66.1 c2.5-3.2,4.5-6.8,6.2-10.5c3.9-8.3,1.1-12.7-8-11.2c-10.2,1.8-20.7,4.1-30.1,8.4c-42.4,19.6-81.8,43.5-109.6,82.4 c-6.3,8.8-10.5,19.4-13.9,29.8c-4.1,12.6,1.4,25.6,15.5,28.2c2.2,0.4,4.7,1.3,6.3,2.8c2.6,2.4,4.6,5.4,6.8,8.2 c-2.9,1.8-5.8,3.7-8.8,5.3c-7.5,4.2-16.6,6.9-22.4,12.8c-15.8,15.8-30.5,32.7-44.9,49.7c-3.7,4.4-5.4,10.9-7,16.7 c-1.7,6,1.5,9.6,7.6,7.2c8.3-3.2,16.9-6.7,24.2-11.6c32.3-21.6,62.7-45.4,87.1-76.1c9.5-11.9,20.8-22.1,35.6-27.3 c11.4-4,16.8-2.1,23.8,8.5c3.6-6.8,8.3-6.5,13.4-2.1c5.1,4.5,7.4,8.7,2.2,15.6c-11.9,15.7-22.9,32.2-34.2,48.3 c0.6,0.7,1.3,1.3,1.9,2c2.2-1.8,4.9-3.2,6.7-5.4c14.2-16.9,28.7-33.5,42.1-51c8.7-11.4,18.4-20.8,31.7-26.4c6.1-2.6,11.4-2.5,16,2.3 c4.9,5.2,10.2,10.5,8.1,18.7c-30.4,2.4-49.6,25-37.5,43.5c34.7-22.6,50.9-59.4,72.5-94.3c-17.6,3.7-33.5,7.5-49.7,10.3 c-12.6,2.2-25.3,3.3-38,4.6c-2.8,0.3-5.8-0.4-8.6-1c-8.1-1.6-15.9-4.7-16.8-14c-0.9-9.6,5.5-15.7,13.9-22.5 c1.3,18.9,14.3,19.3,26.7,19.3c27.3,0.2,53.6-7,79.7-14c2.2-0.6,4.7-2.7,5.7-4.8c12.7-23.9,25.4-47.7,37.4-71.9 c3.5-7.1,4.9-15.4,7.4-23.4c7.9,0,14.6,7.4,13.2,17.3c-0.8,6.2-3,12.4-5.8,18.1c-8.9,18.5-18.4,36.8-28.1,56.1 c14.9-4.1,28.9-8.8,43.3-11.8c32.1-6.8,64.3-13.4,96.7-18.6c10.6-1.7,22.3-0.6,32.8,2.1c6.9,1.7,12.7,8.3,18.5,13.2 c1.7,1.4,2.5,4.7,2.5,7.1c0,8.7-12.9,23.9-22.1,26.5c1.6-14.4-0.2-19.3-15.4-21.2c-18.3-2.3-37.4-3.6-55.4-0.7 c-36.1,5.7-71.8,14.3-107.6,22c-2.7,0.6-5.7,3-7.2,5.5c-26.7,44.7-54.5,88.7-79.3,134.5C571.7,746.4,548.9,799.3,537,856 C534.1,869.6,534.5,883.9,533.3,898.7z M527.4,620.2c-17.4-5.8-55.1,30.8-56.4,55.5C491.8,657.9,511.1,641,527.4,620.2z"></path> <path style="fill:#FFFFFF;" d="M543.8,333.3c1-13,1.8-23.9,2.8-34.8c0.5-5.2,1-10.5,2.6-15.3c7.1-21.5,30.1-20.2,46.1-11.9 c13.1,6.7,15.8,17.8,14.8,32.8c-2.4,35.4-2.4,70.9-3,106.3c-0.3,18.3-9.7,29.5-27.2,31.3c-9,0.9-16.7-2.2-22.8-8.7 c-16.3-17.4-32.4-34.9-48.6-52.4c-3-3.3-6-6.6-9.6-10.5c0,17.5-0.2,33.3,0.1,49.1c0.2,12.7-2.8,23.6-15.8,28.1 c-12.8,4.5-24.4,3.2-35.4-6.9c-8.8-8.1-12.1-16.9-12.1-28.3c-0.2-38.1-0.7-76.2-1.3-114.4c-0.2-11.3,0.8-22.1,13.1-26.8 c13-5,26.6-6.3,37.7,4.1c18.2,17.2,35.6,35.1,53.4,52.8C539.9,329.1,541.1,330.4,543.8,333.3z M455.6,315.3c0,0-0.1,0-0.1,0 c0-8.7,0.4-17.4-0.3-26.1c-0.2-2.4-3.4-4.5-5.3-6.8c-1.6,1.7-4.6,3.4-4.6,5.1c-0.3,17.1-0.4,34.2,0.1,51.3c0.1,2.1,3.7,4.1,5.7,6.1 c1.5-2.3,4.1-4.6,4.3-7C456,330.4,455.6,322.8,455.6,315.3z"></path> <path style="fill:#FFFFFF;" d="M860.9,270.8c25.1,1,47,1.5,64.5,16.4c23.5,20.1,33.5,46,29.5,76.9c-0.9,6.9-2.3,13.7-4.3,20.4 c-10.7,35.5-37,52.3-71.8,57.3c-11.9,1.7-24.5,1.1-36.5-0.7c-35.9-5.6-70.3-52-64.6-93c5.7-41,28.1-68.1,65-75.5 C849.8,271.1,857.2,271.2,860.9,270.8z M891.3,346.6c0.1-15.2-1.9-18.8-16.2-22.1c-4.3-1-9.9,1.6-14.3,3.8 c-15.8,7.7-23,30-15.2,45.7c4,8.1,10.4,11.1,19,9C882.8,378.6,891.2,367.1,891.3,346.6z M830.5,284.3c-8.2,7.4-16.7,14.6-24.4,22.6 c-1.5,1.6-0.3,5.8-0.3,8.8c2.7-0.8,5.9-0.8,8-2.4c5.5-4.3,9.8-10.1,15.7-13.6C836.3,295.4,837.9,291.7,830.5,284.3z M806.9,325.4 c-3.4-2.7-7-5.8-7.2-5.6c-3,3-6.1,6.2-7.9,10c-0.5,1.1,2.9,4.1,4.5,6.2C799.4,332.8,802.6,329.7,806.9,325.4z"></path> <path style="fill:#FFFFFF;" d="M670.7,307.3c17.2-12.4,33.4-24.1,49.6-35.8c16.4-11.8,50-1.5,50.9,23.8c0.4,11.2-3.8,19.3-12.9,25.8 c-12.5,9-24.7,18.4-36.6,28.2c-2.9,2.4-4.4,6.5-6.5,9.7c5.4,2,9.6,2.6,12.7,4.8c13.6,9.9,27,20.2,40.3,30.5 c15.9,12.4,17,31,2.8,43.4c-11,9.6-24.8,8.2-36.9-1.8c-12.3-10.1-25.8-18.8-38.8-28.2c-3-2.2-6-4.4-10-7.4c0,7.3-0.6,13.6,0.1,19.6 c2,16.1-9.7,29.8-26,30.1c-20.1,0.3-37.2-16.6-37.5-36.9c-0.6-39.6-1.2-79.1-1.8-118.7c-0.2-10,1.3-19.7,11.7-24.2 c11.7-5.1,24.8-4.5,33.7,3.6c5.1,4.7,4.7,15.7,6.2,23.9C672.2,300.5,671.1,303.5,670.7,307.3z M641,299.7c0,0-0.1,0-0.1,0 c0-4.6,0.5-9.4-0.2-13.9c-0.3-1.9-3-4.2-5.1-4.8c-1.2-0.4-4.7,2.2-4.7,3.6c-0.4,9.3-0.5,18.6,0.2,27.8c0.1,1.6,4.1,3,6.3,4.5 c1.2-2,3.2-3.8,3.6-5.9C641.4,307.3,641,303.5,641,299.7z"></path> <path style="fill:#FFFFFF;" d="M135.6,403.8c0,5.7,0.1,12,0,18.4c-0.3,13.4-6.7,22.4-18.1,25.9c-14.1,4.3-28.3-0.4-36.4-9.7 c-8.1-9.3-10.3-19.5-10.2-31.3c0.2-36.1-0.2-72.2-0.1-108.3c0-16.1,5.5-22.4,21.2-25.9c20.6-4.5,41.1-2.8,61.5,1.2 c4,0.8,8,1.2,11.9,2.4c28.6,8.3,43.1,28.1,43.9,59.7c0.8,29.6-13.2,50.6-40.9,59.9C158.1,399.4,147.1,401.1,135.6,403.8z M87.7,323.9C87.7,323.9,87.7,323.9,87.7,323.9c0-5.2,0.6-10.5-0.2-15.6c-0.4-2.4-3.5-4.4-5.3-6.6c-1.8,2-5.1,3.8-5.2,5.9 c-0.5,10.4-0.5,20.9,0.1,31.3c0.1,2.1,3.8,4,5.8,6.1c1.6-2.1,4.3-4,4.7-6.3C88.2,333.8,87.7,328.8,87.7,323.9z M121.9,343.7 c8.7-2.4,15.9-3.8,22.5-6.5c1-0.4,1-8.6-0.6-9.4c-6-3.2-12.8-5-20.6-7.7C122.7,328.7,122.4,334.6,121.9,343.7z M82.4,286.8 c-2.1,3.2-4.5,5.2-4.3,7c0.2,1.8,2.9,3.4,4.5,5.1c1.8-1.9,4.4-3.5,5.1-5.8C88,291.9,85,289.7,82.4,286.8z"></path> <path style="fill:#FFFFFF;" d="M282.6,338.7c0,15.1,0.2,30.3-0.1,45.4c-0.1,5.7,1.4,7.7,7.4,7.2c12.1-1.1,24.3-1.8,36.5-1.8 c9.9,0,17.9,4.2,22.3,13.9c8.5,18.8-3.9,41.5-24.2,42.9c-24.1,1.7-48.3,2.7-72.4,3.4c-18.4,0.5-33.8-15.9-33.1-34.2 c1.4-38.7,3.8-77.4,3.8-116.1c0-30.1,18-34.9,40.8-30.1c14.8,3.1,20.9,11.5,21,26.5c0,0.9,0,1.7,0,2.6c0,13.4,0,26.8,0,40.2 C283.8,338.7,283.2,338.7,282.6,338.7z M232.7,304.4c-0.3,0-0.5,0-0.8,0c0,4.1-0.4,8.2,0.2,12.1c0.3,2,2.5,5.2,4,5.2 c2,0.1,5.6-2.2,5.8-3.7c1.1-8.9,1.7-17.9,1.6-26.8c0-1.9-3.5-3.8-5.4-5.6c-1.8,1.9-4.7,3.6-5.1,5.8 C232.1,295.6,232.7,300.1,232.7,304.4z"></path> <path style="fill:#FFFFFF;" d="M359.5,354.8c0-20.1-0.1-40.1,0-60.2c0.1-13.4,6.5-22.4,19.4-23.9c22.2-2.6,43.2,4.9,43.4,33.9 c0.1,36,2,72,3.2,108.1c0.1,2,0.2,4.1,0.2,6.1c0.2,16.1-4.6,24.7-16,28.9c-12.6,4.6-27.9-0.2-37-10.1c-7-7.6-9.6-16.1-9.9-26.1 c-0.5-18.9-1.6-37.8-2.4-56.7C360.1,354.8,359.8,354.8,359.5,354.8z M380.4,307.8c-0.1,0-0.1,0-0.2,0c0-4.9,0.6-9.9-0.3-14.7 c-0.4-2.1-3.5-3.8-5.4-5.6c-1.7,1.9-4.8,3.8-4.9,5.8c-0.4,9.2-0.1,18.5,0.5,27.8c0.1,1.7,3.4,4.8,4.5,4.6c2.2-0.5,5.1-2.8,5.5-4.8 C381,316.6,380.4,312.1,380.4,307.8z M382.2,334.9c-3.6-2.1-5.8-4.4-8-4.5c-1.4,0-4.3,3.8-3.9,5.1c0.6,2,3.4,4.4,5.4,4.6 C377.3,340.3,379.3,337.4,382.2,334.9z"></path> <path style="fill:#FFFFFF;" d="M361.8,141.9c25.2,0,51.2,21.3,61,49.8c5.8,16.9,3.2,32.5-6.2,47.4c-4.5,7.1-10.2,10.9-18.8,12.2 c-28.4,4.3-49.3-7.4-59-34.2c-7.1-19.7-9.1-39.6-0.8-59.5C343.6,144.4,347.6,141.8,361.8,141.9z"></path> <path style="fill:#FFFFFF;" d="M655.9,654.3c-3,5.5-6.6,11.9-10.8,19.7c12,2.3,20.4-1.7,28.1-6.7c28.9-18.4,51.8-43,72-70.1 c-7.2-13.7-2-33.1,11.1-40.7c2-1.2,5.5,0,8.3,0.1c-0.9,2.4-1.2,5.9-3,7.2c-6.8,5-10.9,10.9-8.1,20.4c2.4-4.7,4.5-9.6,7.2-14.1 c0.9-1.6,3.2-2.4,4.8-3.6c0.7,2,2.5,4.4,2,6c-2.1,5.7-5,11-7.8,16.9c1.6,1,3.5,2.2,5.5,3.3c16.7,8.7,19,23,5.8,37 c-14,14.8-28.1,29.5-41.8,44.6c-3.6,4-6.4,9.1-8.3,14.2c-2.8,7.3-0.7,10,7.1,8.8c15.9-2.4,30-9.2,42.6-18.9 c14.6-11.3,28.1-24,35.8-41.1c3.8-8.5,4.5-18.4,5.5-28.2c4.1-3.3,8.3,0.3,9.4,4.4c1.7,6.1,3.7,14.2,1.1,19 c-18.8,34.4-45.1,60.6-84.4,70.6c-8.9,2.3-19.2,4.7-26.1-3.7c-7.4-9-5.3-20.1,0.4-28.7c9.6-14.5,20.6-28.1,31.7-41.4 c6.1-7.3,13.6-13.4,21.2-20.7c-5.4-2.5-9.7-4.5-14.3-6.6c-11.4,12.7-22.6,25.6-34.3,38c-15.2,16.2-31.5,31.2-51.9,40.7 c-8.3,3.8-16.6,7.6-25-0.3c-7.4-7-9.7-15-4.4-26.3c12.7-27.4,32.8-47.7,60.7-59.8c5.1-2.2,11.7-4.6,15,1.3 c2.9,5.1,5.7,13.1,3.7,17.5c-8.9,19.4-23.4,33.8-44,41.1C666.8,655.4,662.1,654.3,655.9,654.3z M665.1,641.3c0.5,0.6,1,1.2,1.6,1.9 c14.9-2.9,36.8-21.8,39.7-36.6C691.4,619.1,678.3,630.2,665.1,641.3z"></path> <path style="fill:#FFFFFF;" d="M762.5,158.8c-1.6-1.1-4.2-1.8-4.6-3.2c-0.7-2.2-0.9-5.7,0.3-7.1c4.9-5.2,10.3-10.1,16-14.5 c1.5-1.2,5-0.7,7.1,0.2c1.3,0.6,2.7,4.2,2.1,5.1c-5.4,7.7-11.2,15.1-16.9,22.6C765.1,160.8,763.8,159.8,762.5,158.8z"></path> <path style="fill:#FFFFFF;" d="M700,217c-2.6,2.9-3.9,5.5-5.6,5.8c-2.1,0.4-5.5-0.3-6.8-1.8c-4.5-5.2-8.6-10.9-12.1-16.7 c-1-1.7-0.5-5.2,0.7-7c0.9-1.3,5.2-2.2,5.9-1.4C688.2,202.4,693.8,209.5,700,217z"></path> <path style="fill:#FFFFFF;" d="M526,247.4c3.1-7.6,5.5-14.5,8.9-20.8c0.9-1.7,5.3-3.2,7-2.4c1.8,0.8,3.7,4.8,3.2,6.8 c-1.8,6.7-4.2,13.3-7.3,19.4c-0.9,1.8-5,3.4-7,2.9C528.7,252.8,527.5,249.5,526,247.4z"></path> <path style="fill:#FFFFFF;" d="M497.7,205.6c6.6,7.6,12.9,14.5,18.6,21.8c0.6,0.7-1.4,4.9-2.8,5.4c-2,0.7-5.3,0.2-7-1.2 c-4.9-4-9.6-8.5-13.8-13.3c-1.4-1.6-2.1-4.8-1.6-6.9C491.5,209.7,494.2,208.5,497.7,205.6z"></path> <path style="fill:#FFFFFF;" d="M565.8,182.9c5.1,0.2,7.5,5.2,4.5,9.6c-3.8,5.4-7.9,10.7-12.5,15.5c-1.4,1.5-5,2.4-6.8,1.6 c-1.7-0.7-3.8-5-3.1-6c4.9-7,10.3-13.6,15.7-20.2C564.1,182.9,565.3,183,565.8,182.9z"></path> <path style="fill:#FFFFFF;" d="M751.3,173.8c-6.8,9.9-11.2,17.7-17,24.3c-2.7,3.1-9.7-1.4-8-5.2c3.6-7.8,8.5-15,13.7-21.8 C740.8,170.1,746,172.5,751.3,173.8z"></path> <path style="fill:#FFFFFF;" d="M821,105.4c2.4,2.1,5.5,3.5,5.7,5.3c0.3,2.3-0.9,6.1-2.7,7.1c-5.9,3.5-12.3,6.4-18.7,8.8 c-1.9,0.7-5.5-0.4-6.7-2c-1.1-1.5-1.1-6,0.1-6.8C805.7,113.4,813.1,109.7,821,105.4z"></path> <path style="fill:#FFFFFF;" d="M609,161.8c2,1.9,5.5,3.9,5.6,5.9c0.1,2.1-2.7,5.5-5,6.5c-5.5,2.3-11.5,4-17.4,4.9 c-2.4,0.4-5.2-1.9-7.8-3c1.2-2.6,1.6-6.8,3.6-7.6C594.3,165.8,601.1,164.2,609,161.8z"></path> <path style="fill:#FFFFFF;" d="M664.3,181.8c-2.8,1.6-5.9,4.8-7.8,4.2c-7.3-2.6-14.3-6.1-21-9.9c-1.4-0.8-2-4.8-1.4-6.8 c0.5-1.5,4.1-3.5,5.3-3c7.4,3,14.6,6.6,21.8,10.2C662.2,177,662.6,178.9,664.3,181.8z"></path> <path style="fill:#FFFFFF;" d="M708.6,241.1c2-7.7,3.4-14.5,5.8-21c0.7-1.9,4.3-2.8,6.6-4.1c1.4,2.5,4.2,5.2,3.9,7.5 c-0.7,6.2-2.2,12.5-4.4,18.4c-0.8,2.2-4.4,4.4-6.8,4.5C712,246.6,710.2,242.9,708.6,241.1z"></path> <path style="fill:#FFFFFF;" d="M449.5,189.1c7.9,1.8,14.3,2.7,20.2,4.9c2.2,0.8,3.2,4.6,4.8,7c-2.6,1.3-5.3,3.9-7.7,3.7 c-6-0.5-12.2-1.7-17.9-3.7c-2.3-0.8-5.1-4.5-4.9-6.6C444.2,192.2,447.9,190.4,449.5,189.1z"></path> </svg> 