<?xml version="1.0" encoding="UTF-8"?> <svg xmlns="http://www.w3.org/2000/svg" xmlns:xlink="http://www.w3.org/1999/xlink" version="1.1" id="Layer_1" x="0px" y="0px" viewBox="0 0 1000 1000" style="enable-background:new 0 0 1000 1000;" xml:space="preserve"> <path style="fill:#FFFFFF;" d="M34.3,442.5c9-14,17.8-28.2,27.2-41.9c3.7-5.4,7.6-11.7,16-3.9c2.1,1.9,8.8-1.3,13.5-1.7 c8.4-0.7,16.9-1,26-1.5c-10.5,49.4-20.7,97.2-31,145.8c28,9.9,50,35.6,84.2,25.4c3.1,11.5-1.5,20.8-9,26.3c-5,3.7-15.2,4.6-21.2,2.1 c-10.9-4.4-21-11.4-30.4-18.6c-16.8-12.8-33.6-24.9-56.9-24.8c9-39.8,18.1-78.7,26.7-117.7c1-4.5-0.8-9.6-1.4-15.7 c-20.5,12.1-24.6,22.8-20.5,49.1c-13,2.4-19.6-4.2-23.3-15.3C34.3,447.6,34.3,445.1,34.3,442.5z"></path> <path style="fill:#FFFFFF;" d="M173.1,533.9c-7.1,3.5-15.2,9.5-24.3,11.6c-15.7,3.6-28.2-6.7-26.2-22.5c3.4-26.8,9.2-53.3,14.1-80.2 c11.4,0,21.1,0,31.4,0c-5.7,27.2-11.3,53.6-16.9,79.8c15.4,6.3,19.9-2.9,22.5-11.8c4.2-14.6,6.8-29.6,10.1-44.4 c6.1-26.7,6.1-26.7,35.5-23c-4.3,19.9-8.5,39.6-12.7,59.4c-0.7,3.3-2.2,6.7-1.9,9.9c0.4,4.1,2.4,8,3.7,11.9c5-2,11-2.9,14.9-6.3 c12.5-11,16.2-26.6,21.1-41.9c7.6-24,31-39.4,52.9-36.6c13.2,1.7,20.2,9.4,19.4,21c-0.8,11.1-6.6,14.7-18.7,11.2 c0.2-2.4,1-5,0.6-7.4c-0.8-4.2-2.3-8.2-3.5-12.2c-3.7,2.5-9.6,4.1-10.9,7.5c-6.3,16.4-13,33-16.4,50.1c-2.9,15,10.7,23.2,27,16 c11.5-5.1,23-12.2,31.6-21.1c5.4-5.6,6-16.2,7.9-24.7c4.6-20.8,9.1-41.6,12.6-62.6c1.6-9.4,4.4-14.8,15.1-14.4 c5.8,0.2,11.8-1.4,19.6-2.5c-2.6,12.4-5,23.4-7.3,34.4c-2.3,10.8-4.4,21.6-6.9,33.7c20-7.9,30.5-33.1,58.1-25.7 c-12.5,8.7-23.7,16.6-33.6,23.5c7,5.6,16.6,9.7,19.5,16.5c3.2,7.6,0.1,17.8,0.4,26.8c0.2,4.8,1.9,9.6,2.9,14.4 c4.9-1.8,10.8-2.4,14.4-5.6c7.4-6.7,13.5-14.8,20.2-22.3c-6.2-5.2-11.6-9.7-18.5-15.6c22-4.5,23.1-21.5,26.5-37.8 c10,0,19.7,0,30.5,0c-5,23.3-10.1,45.9-14.5,68.7c-0.7,3.8,1.7,8.2,2.6,12.3c4.5-1.6,11.6-2.2,12.9-5.1c4.8-11.5,8.3-23.6,11.3-35.8 c3.2-13.2,5.3-26.6,8-40.5c10.3,0,20.1,0,31.3,0c-6.7,30.6-13.3,60.6-19.8,90.6c1.3,0.9,2.6,1.7,4,2.6c8.5-9.5,17-18.9,25.6-28.4 c1,1,2,2.1,3.1,3.1c-1,15.4-11.5,25.4-24.1,30.9c-10.7,4.7-13,11.8-14.7,21.1c-2.5,13.7-9.3,24.4-22.4,30.7 c-13.2,6.4-28.7,3.4-35.5-7.1c-6.4-9.9-1.7-23.7,11.6-32.6c4.9-3.3,10.8-5.2,15.9-8.2c2.1-1.2,3.4-3.8,4.4-6.2 c-23.7,12.6-45.5,8.8-46-19.5c-5.6,6.5-10.6,14.4-17.5,19.9c-13.9,11.3-37,7.6-42.1-6.9c-2.5-7-0.5-15.7-0.3-23.6 c0.1-2,1.6-4,1.9-6.1c0.9-6.9,1.7-15.9-6.9-16.3c-5.1-0.2-13.7,6.3-15.4,11.5c-4.7,14.8-6.6,30.4-9.7,46.2c-10.6,0-20.7,0-31.8,0 c1.7-9.1,3.3-17.8,5.6-30.1c-15.7,16-29.1,29.2-49.5,31c-23.8,2.1-35.5-6.3-40.2-30.4c-9,17.3-19.6,32.8-41.2,30.5 C186.8,544.9,180,537.9,173.1,533.9z M483.4,559.4c-1.2-0.8-2.4-1.6-3.5-2.4c-4.5,3.4-9.7,6.3-13.3,10.5c-1.6,1.9-0.2,6.3-0.1,9.6 c3.6-0.7,8.9-0.2,10.5-2.3C480.1,570.4,481.4,564.6,483.4,559.4z"></path> <path style="fill:#FFFFFF;" d="M791.2,472.4c18.9-0.1,21.9-3.1,28.6-29.9c4.7-0.2,9.7-0.6,14.8-0.7c4.7-0.1,9.3,0,15.7,0 c-2.5,12.6-4.5,23.7-7,34.7c-2.8,12.7-6.6,25.1-8.9,37.9c-0.6,3.2,2.9,10,4.6,10c4.9,0.1,11.3-1,14.6-4.2 c10.9-10.7,17.7-23.8,19.2-39.4c0.7-7.2,2.3-14.3,3.9-21.3c4.2-18.3,16.8-23.4,34.6-14.4c1.6,0.8,4.4,0.7,6.1-0.2 c10.9-5.4,21.7-6.3,31.6,1.4c10.6,8.3,7.6,20.2,5.8,30.9c-1.8,11.2-5.7,22.1-7.6,33.3c-0.7,4.3,1.6,9,2.5,13.5 c5.2-1.9,10.9-3,15.5-5.8c4.1-2.4,7-6.7,12-8.8c-0.9,14.7-7.5,25.7-19.2,33c-10.7,6.6-22.1,6.8-32.8-0.5s-9.6-18.3-7.8-28.9 c2.3-12.9,5.9-25.5,7.8-38.4c0.6-4.2-2.5-9-3.9-13.5c-4.5,2.6-10.4,4.2-13,8c-3.7,5.4-5.4,12.3-7.1,18.7c-2.7,10.2-5,20.6-6.9,31 c-5.3,28.4-5.2,28.5-35.4,25.5c0.7-5.3,1.4-10.5,2.5-18.2c-9.8,14.2-22,17.6-36.8,16.6s-22.4-9-20.1-23.7c2.1-13.2,4.4-26.4,6.7-40 c-14.7,1.8-23.9,5.4-26.1,21.9c-1.7,12.7-9.8,24.9-16.7,36.2c-2.4,3.9-10.1,4.8-15.5,6.7c-22.3,7.9-41.6-1-46.7-20.5 c-9.8,6.4-19.4,14.1-30.1,19.2c-6.8,3.2-15.4,2.4-23.1,3.9c-3.6,0.7-7.3,2.2-10.4,4.2c-6.9,4.3-13.5,3.4-17.6-2.7 c-28.5-42.4-23.6-103.3,10.6-139.1c14.8-15.5,33-21.1,54-17.8c16.8,2.6,27.2,16.4,24.4,31.9c-2.7,15-13.2,18.8-26.5,9.2 c2.2-3.9,5.9-7.7,6.2-11.7c0.4-5.8-1.9-11.8-3-17.8c-6.3,1.2-13,1.4-18.7,4c-3.9,1.8-6.9,6.4-9.3,10.4 c-15.2,24.6-21.4,52.1-22.3,80.3c-0.8,25,15,35.1,38.9,27.8c15.9-4.9,25.3-13.5,29.3-31.3c3.2-14.5,12.2-28.6,21.3-40.9 c9-12.1,24.1-15.7,38.5-12.3c7.2,1.7,13.9,8.8,18.8,15C790.2,459.8,789.9,466.7,791.2,472.4z M732.6,507.9 c4.5,7.1,6.9,15.3,11.9,17.4c3.5,1.4,13-4.4,15.4-9.2c5.8-11.2,15.4-22.6,5.3-36.8c-1.7-2.4,1.1-7.7,1.6-11.8c0.5-4,0.7-8,1-12.1 c-4.5,1.1-11.7,0.9-13.1,3.7C746.8,474.8,740.1,491.1,732.6,507.9z"></path> <path style="fill:#FFFFFF;" d="M821.7,404.6c6.9-4.2,11.5-16.3,22.5-7.9c7,5.4,18.7,10.7,12.3,22.3c-3.1,5.7-11.3,12.2-17.1,12.2 C822.7,431.2,824.6,416.1,821.7,404.6z"></path> </svg> 