<?xml version="1.0" encoding="UTF-8"?> <svg xmlns="http://www.w3.org/2000/svg" xmlns:xlink="http://www.w3.org/1999/xlink" version="1.1" id="Layer_1" x="0px" y="0px" viewBox="0 0 1000 1000" style="enable-background:new 0 0 1000 1000;" xml:space="preserve"> <path style="fill:#FFFFFF;" d="M534.3,869.2c-10-4.4-20.8-7.6-29.9-13.5c-20.3-13-31.5-33.5-40.6-55c-15.2-36-19-73.7-15.4-112.4 c2.8-29.9,9.7-58.6,25-84.6c6.3-10.6,13.7-20.9,22.2-29.8c20.8-21.8,47.4-25.5,74.8-12.3c25.4,12.2,41.3,32.9,53,57.6 c16.4,34.6,20.9,71.2,17.6,109.2c-2.7,31.1-10.1,60.6-25.5,87.8c-11.3,20-25,38-46.9,47.7c-5.1,2.3-10.6,3.6-16,5.3 C546.6,869.2,540.5,869.2,534.3,869.2z M576.4,713.2c0-15-3-26.5-9.3-35c-10.8-14.5-30.6-19.4-43.5-1.1 c-7.5,10.5-10.3,22.1-9.5,35.3c0.7,12,2.6,23.1,9,33.4c9.1,14.4,27.7,16.5,38.4,5.3C572.7,739.5,573.7,724.6,576.4,713.2z"></path> <path style="fill:#FFFFFF;" d="M621.7,574.5c-28.8-41.5-67.3-73.8-101.6-109.9c-13.8-14.5-26-15-39.1,0.1 c-14.6,16.7-27.9,34.7-41.3,52.5c-9,12-17.2,24.7-25.6,36.7c-9.4-5.5-18-11.6-27.4-15.8c-30.9-13.5-59.6-6.4-86.4,11.3 c-9.8,6.4-18.6,14.5-29,22.8c-7.4-8.6-16.2-17.2-23.2-27c-13-18.3-25.3-37.2-37.4-56.1c-2.9-4.5,1.8-7.4,4.8-10.2 c4.9-4.6,9.9-9.1,15-13.5c4-3.4,8.3-6.5,12.3-9.9c3-2.6,5.7-5.6,8.6-8.1c1.4-1.2,3.3-2,5-2.9c0.5-0.3,1.6-0.2,1.7-0.5 c1.3-6.7,8.1-8.3,11.8-12.9c3.8-4.8,9.3-8.1,13.8-12.3c4.5-4.3,8.4-9.1,12.8-13.4c6.4-6.2,13.5-11.7,19.6-18.2 c10.8-11.7,15.8-26.1,11.1-41.2c-3-9.5-9.2-18.9-16.3-26c-28.9-28.8-58.9-56.5-88-85c-5.1-5-8.5-11.7-12.5-17.8 c-3.9-6-1-12.2,1.6-17.2c4.1-8.1,9.6-15.6,15.2-22.9c8.8-11.6,17.6-23.1,27.3-34c8.4-9.5,17.8-18.2,27-27.1 c5-4.8,10.1-9.6,15.7-13.7c8.5-6.2,17.5-11.7,26.1-17.6c1.6-1.1,2.6-3.1,3.8-4.6c3.7,1.4,7.2,3.3,11,4c7.7,1.4,12.7,6.7,18.5,11 c2.6,1.9,5.8,3.1,10.1,5.4c0.1,5.2,5.5,8.9,11.4,12.1c0.7,0.4,1.4,1.1,2,1.6c15.4,14.5,30.8,28.9,46.2,43.4 c12.3,11.6,23.7,24.2,36.9,34.6c14.7,11.6,30.8,16.1,49,4.2c15-9.8,28.3-22.3,42.4-33.6c5.7-4.6,11.5-9.1,17.1-13.9 c4.3-3.7,8.3-7.9,12.6-11.6c5.1-4.4,10.4-8.5,15.7-12.6c8.8-6.8,18-13.2,26.5-20.4c3.4-2.9,8-5.2,10.1-7.7c4.7-5.7,10.2-6,15.8-6.1 c4.2-0.1,8.5,2.2,13.4,3.6c1.6,1.9,3.6,4.9,6.2,7.5c13.4,13.5,27.3,26.6,40.3,40.4c10.8,11.5,20.7,23.8,30.9,35.8 c2.8,3.2,5.2,6.8,7.7,10.2c7.4,9.7,9,23.2-0.9,32.6c-18.6,17.7-37.8,34.8-56.3,52.7c-15.1,14.6-29.2,30.2-44.1,45.1 c-9,9-12.9,20.1-13.7,32.1c-0.6,9.7,0.1,19.8,2.1,29.3c0.9,4.6,5.9,8.5,9.3,12.5c19.5,22.9,39.1,45.8,58.7,68.6 c7,8.1,14.4,15.8,21.2,23.9c15.5,18.5,13.5,35.8-5.9,50.9c-14.2,11.1-30.2,16.8-48.6,15.7C651.6,549.9,634.3,557.1,621.7,574.5z"></path> <path style="fill:#FFFFFF;" d="M767.9,673.6c8.7-16.2,16.2-30.9,24.3-45.3c3.8-6.8,8.7-13.1,12.9-19.7c7.6-11.9,19.1-11.4,30.4-8.6 c11.9,2.9,23.5,7.4,35.1,11.6c7.2,2.6,10.9,7.3,11,15.8c0.2,18.3,1.7,36.7,2.4,55c0.6,17.3,1.4,34.5,1,51.8 c-0.6,22.5-2.3,44.9-3.7,67.4c-0.7,10.3-9.9,12-17.1,14.7c-8.9,3.4-18.3,5.6-27.5,8.2c-13.4,3.7-17,1.2-18.3-12.9 c-1.6-17.8-3-35.6-4.5-53.5c-0.2-1.9-0.6-3.7-1.2-7.4c-3.8,5.1-6.6,8.8-9.3,12.6c-9.3,12.7-18.3,25.6-27.8,38.1 c-7.3,9.6-10.7,10-18.5,1c-9.8-11.4-18.8-23.5-28.1-35.3c-1.7-2.1-3.4-4.1-6.1-7.4c-1.2,14.8-2,27.7-3.4,40.7 c-1.5,14.7-3.2,29.5-5.5,44.1c-0.4,2.7-4,6-6.8,6.9c-14.9,5.1-30.5,5.2-46,4.2c-4.6-0.3-7-3.3-7.3-7.8c-1.4-22-3.6-43.9-4-65.9 c-0.9-42.2-1-84.5-1.1-126.7c0-18.6,0.6-37.1,1.2-55.7c0.2-6.3,1.4-12.5,1.8-18.8c0.4-7,4.7-9.6,10.8-11c14.2-3.3,27.6,0.3,41.1,3.7 c16.3,4.1,23.6,16.6,30.1,30.2c10.1,21.2,20.1,42.3,30.2,63.5C765.1,668.7,766.2,670.5,767.9,673.6z"></path> <path style="fill:#FFFFFF;" d="M443.7,704.1c-0.9,39.9-5.8,76.1-24,108.8c-6.8,12.2-15.7,23.8-25.6,33.6 c-21.5,21.2-49.6,20.2-74.4,6.6c-26.2-14.3-42.5-37.4-53.5-64.1c-26.7-64.6-21.1-126.8,17.2-185.4c6.7-10.2,15.8-19.4,25.3-27.2 c24.1-19.9,56.3-20.4,82.1-2.6c17,11.7,27.9,28.1,36.1,46.5c8.9,20.1,14.1,41.3,15.5,63.3C442.7,691.5,443.4,699.3,443.7,704.1z M313.2,709.4c2.1,9,3.4,18.3,6.6,26.9c5.5,14.5,16.8,21.7,29.8,20.8c10.5-0.7,20.5-10.4,24.2-24.1c1.7-6.2,2.1-12.7,3.1-19.1 c1.8-11.7,0.1-23-6.7-32.6c-13-18.6-34-20.6-47.1,0.3C317.9,690,314.6,699,313.2,709.4z"></path> <path style="fill:#FFFFFF;" d="M91.6,704.5c1-27.3,1.8-47,2.4-66.6c0.2-8.7,3.6-15.5,10.6-20.7c13.1-9.7,27.7-16.3,43.4-20.4 c13.6-3.6,27-5.9,41.3-3.1c18.5,3.6,28.9,15.1,34.8,31.7c7.4,20.7,7.8,41.5-0.4,62c-1.4,3.6-0.5,5.5,1.9,7.9 c14.7,14.8,19.9,33.4,20.8,53.6c0.8,19.1-2.1,37.5-10.4,54.7c-9.9,20.7-25.6,36.6-55.8,29.3c-20.9-5.1-41.6-10.9-62.4-16.5 c-2.7-0.7-5.2-2.1-7.9-3c-10.8-3.6-12.3-13.1-13-22.1C94.6,759.9,93,728.5,91.6,704.5z M167.9,778.7c10.5-0.9,19.2-5.2,22.4-15.8 c3.5-11.4,0-22.7-3.8-33.4c-3.2-9.2-10.3-15.1-20-18c-4.8-1.4-16.1,3.1-17.6,8.1c-3.7,12.3-5.5,24.7-3.9,37.6 C146.8,772,154.4,779.7,167.9,778.7z M142.3,643.4c0.9,4.7,1.9,10,2.8,15.4c0.9,5.5,2,11.1,2.3,16.6c0.6,10.8,14.1,13.4,22.9,7.8 c14.7-9.3,13.4-25.1,14.9-38.4c1.5-13.2-9.3-21.1-22.9-21.5C150.8,623,142.4,631.1,142.3,643.4z"></path> </svg> 