<?xml version="1.0" encoding="UTF-8"?> <svg xmlns="http://www.w3.org/2000/svg" xmlns:xlink="http://www.w3.org/1999/xlink" version="1.1" id="Layer_1" x="0px" y="0px" viewBox="0 0 1000 1000" style="enable-background:new 0 0 1000 1000;" xml:space="preserve"> <path style="fill:#FFFFFF;" d="M487.4,514.1c5.6,24.1,11.2,48.2,17,72.3c1.4,6,1.9,9.6-6.4,11c-17.1,3-34,7.8-50.9,11.8 c-4.8,1.1-5.8-2.2-6.6-5.8c-4.8-20.9-9.6-41.8-14.4-62.6c-9.4-40.5-18.8-80.9-28.2-121.4c-1.1-4.6-0.5-6.8,5.1-8 c17.1-3.5,33.9-8.3,50.9-12.1c4-0.9,7.9-1.2,12,3.2c18.8,19.9,38.5,39,57.8,58.4c2.2,2.2,3.7,5,7.1,7.2c-0.1-2.6,0.2-5.3-0.4-7.8 c-5.3-23-10.9-46-16.1-69.1c-0.4-1.9,1-5.9,2.2-6.2c19.8-4.6,39.6-8.8,60.5-13.4c15.2,65.6,30.3,131.1,45.6,196.9 c-21.8,5-43.1,9.9-64.9,15c-22.6-23.2-45.5-46.8-68.4-70.3C488.5,513.5,488,513.8,487.4,514.1z"></path> <path style="fill:#FFFFFF;" d="M679.2,432.3c3.4-29.2,6.8-58,10.2-86.9c25.4-5.8,50.7-11.6,77.8-17.7c-2.5,13.1-4.5,24.2-6.7,35.2 c-3.8,19.3-7.1,38.7-11.8,57.8c-2.6,10.6,5,15.7,9.4,22.4c10.8,16.1,22.4,31.7,33.7,47.4c7.9,10.9,15.9,21.7,24.5,33.4 c-17.6,4.2-34.4,8.2-51.3,12.1c-8.1,1.9-16.2,3.9-24.5,5.3c-2,0.3-5.4-0.7-6.3-2.2c-11.8-19.2-23.2-38.7-34.9-58.1 c-4.4-7.3-9.2-14.3-15.1-21.1c6.8,29.7,13.6,59.5,20.6,89.6c-21.6,5.1-43,10.2-64.4,15c-4.1,0.9-6.9,0-8.2-5.6 c-11.9-52.9-24.2-105.6-36.5-158.4c-2-8.4-4.2-16.7-6.1-25.2c-0.9-3.9-0.5-7.3,4.6-8.4c19.9-4.4,39.8-8.6,59.5-13.5 c5.1-1.3,6.3-0.1,7.3,4.7c5.2,24.2,10.9,48.2,16.5,72.3C677.4,431.1,678.1,431.4,679.2,432.3z"></path> <path style="fill:#FFFFFF;" d="M970.9,412.3c0.9,25.1-7.9,47.3-23.5,65.6c-17,19.9-39.4,31.3-66.4,33.7c-21,1.9-40.5-2.7-57.8-13 c-11.8-7-22.4-17.6-30.7-28.6c-12.7-16.8-19.2-36.6-20.5-58c-1.6-25.6,4.5-48.6,19.6-69.7c17.8-24.8,43-36.8,71.9-39.5 c20.4-1.9,40.9,3.3,58.4,15.2C955.3,340.6,970,373,970.9,412.3z M898.9,412.9c1.8-18.1-10.1-34.2-27.2-35.6 c-13.8-1.1-26.2,8-27.4,26.3c-1.5,22.7,11,33.7,27,36.6C882.7,442.4,900.4,430.1,898.9,412.9z"></path> <path style="fill:#FFFFFF;" d="M135.5,680.4c-21.3,5-42.1,10-62.9,14.9c-6,1.4-7.7-0.7-9-7.1c-5.3-25.7-11.8-51.2-17.8-76.7 c-8.3-35.2-16.6-70.3-24.8-105.5c-1.1-4.5-0.1-7.2,6.1-8.4c24-4.7,47.8-11,71.8-15.7c22.5-4.4,44.9-3,64.5,10 c12.4,8.2,20.3,20.7,24.4,35.2c5.9,20.7,7,41.3-4.9,60.4c-10.1,16.3-25.6,26-43.5,32.3c-1.2,0.4-2.5,0.9-3.7,1.3 c-12.3,4.4-12.2,4.4-8.9,17.5c3,11.6,5.8,23.2,8.5,34.9C135.9,675.6,135.5,677.8,135.5,680.4z M112.3,573.8 c12.1-3.2,17.6-9.6,16.5-19c-1-8.8-8.4-14.8-17.6-15.2c-6.3-0.3-6.5,2.8-5.4,7.3C107.9,555.8,110.1,564.6,112.3,573.8z"></path> <path style="fill:#FFFFFF;" d="M349.9,631.2c-28.8,6.6-57.5,13.1-86.1,19.8c-10.4,2.4-20.7,5.2-31.2,7.5c-4.3,1-7.6,1.2-9.1-5.2 c-10.3-46-21.1-91.9-31.7-137.9c-3.5-15.2-7.4-30.4-10.8-45.6c-1-4.4-0.7-7.6,5.6-8.9c19.6-4,39.1-8.9,58.6-13.6 c4.1-1,6.3-0.1,7.3,4.5c7.4,33.3,15.1,66.6,22.8,99.8c1.6,6.8,3.2,13.7,5.2,21.7c17.5-3.9,34.9-7.8,53.3-11.9 C339.1,584.7,344.4,607.7,349.9,631.2z"></path> <path style="fill:#FFFFFF;" d="M358.9,629.1c-6.6-28.5-12.8-55.6-19.2-82.8c-8.2-35.3-16.6-70.5-24.8-105.8 c-1.2-5.1-1.6-9.1,6.2-10.6c19.4-3.7,38.6-8.8,57.8-13.2c5.3-1.2,6.5,2.2,7.5,6.5c8.4,37.2,16.9,74.4,25.5,111.6 c5.5,23.9,11.3,47.8,16.6,71.8c0.5,2.2-1.4,6.9-2.9,7.2C403.6,619.1,381.5,624,358.9,629.1z"></path> </svg> 