<?xml version="1.0" encoding="UTF-8"?> <svg xmlns="http://www.w3.org/2000/svg" xmlns:xlink="http://www.w3.org/1999/xlink" version="1.1" id="Layer_1" x="0px" y="0px" viewBox="0 0 1000 1000" style="enable-background:new 0 0 1000 1000;" xml:space="preserve"> <path style="fill:#FFFFFF;" d="M307.2,829c-19.4-43.5-38.9-87.1-58.4-130.8c-22.6,20.2-45.1,39.6-69.5,56.7 c-0.8-0.4-1.5-0.8-2.3-1.1c-0.1-2.4-1.2-5.2-0.3-7.1c4.9-11,10.2-21.9,15.5-32.7c5-10.2,10.4-20.2,15.5-30.4 c0.4-0.7-0.2-1.9-0.4-3.2c-14.9,5.9-29.4,12-44.1,17.4c-20.8,7.7-41.9,14.8-62.8,22.4C86.6,725.2,72.9,730.8,59,736 c-8,3-16,6.3-24.3,8.4c-2.4,0.6-5.6-2.3-8.5-3.5c0-0.5,0-1,0-1.5c24.2-16.4,48.3-32.8,72.5-49.1c15.1-10.2,30.1-20.4,45.4-30.4 c4.4-2.9,9.5-4.9,14-7.7c3.9-2.3,5.9-5.3,0.3-7.9c-8.5-3.9-17.2-7.3-25.6-11.4c-18.7-9.1-37.3-18.5-56-27.7 c-11.6-5.7-23.3-11-34.7-16.9c-2.2-1.2-3.5-4.2-5.2-6.4c2.3-0.9,4.7-2.7,6.9-2.5c23.2,2.2,46.3,4.6,69.4,7.2 c16.5,1.9,32.9,4.1,49.4,6.6c3.4,0.5,7.1,2.1,9.9,4.2c17.2,12.8,34.6,25.4,51.1,39c16.4,13.6,36.6,20,54.3,30.9 c4.5,2.8,8.4,7.9,10.4,12.8c2.6,6.3,3.4,13.4,4.4,20.3c4.8,31.6,9.2,63.3,14.4,94.8c1.6,9.6,5.3,18.9,8.2,28.6 c-1.9,1.5-4.2,3.3-6.5,5.1C308.2,829,307.7,829,307.2,829z"></path> <path style="fill:#FFFFFF;" d="M242.8,260.5c36.6,0.8,68,12.7,96.4,33.5c4.2,3,6.2,6.5,3.4,11.3c-5.5,9.7-11.3,19.2-16.6,29 c-2.6,4.9-5.3,4.9-9.5,2.2c-24.4-16.5-51.2-26-80.8-27.2c-11.4-0.5-21.9,1.2-28.6,11.9c-5.6,9.1-4.4,17,5,22 c12.5,6.6,25.5,12.2,38.3,18.2c26.4,12.5,53.7,23.2,77.1,41.2c32.5,25,37.5,72.6,15.7,103.8c-10.7,15.3-25.5,25.7-43.2,31.4 c-39.8,12.8-78.4,7.4-116.4-8c-19.9-8-36.7-20.4-52.8-34.1c-3.5-3-4.7-5.8-1.7-10.6c12.3-19.8,23.9-39.9,35.8-59.9 c6.2-10.3,5.7-9.9,12.4-0.5c13.9,19.7,28.3,39.1,50.7,50.2c14.5,7.2,28.9,9.6,43.9,0.4c21.7-13.3,13.6-36.1-2.1-44.1 c-16.6-8.4-34-15.2-50.8-23.3c-19.2-9.3-39.3-17.4-56.6-29.4c-30.8-21.5-28.4-72.6,3.9-95.7C189.8,266.1,216.3,261.4,242.8,260.5z"></path> <path style="fill:#FFFFFF;" d="M830.6,515.2c1,9.1,1.9,16.9,2.8,24.7c0.3,2.7,0.7,5.4,1.3,8.1c1.3,5.7-0.4,8.5-6.8,9.4 c-23.6,3.2-47.2,6.8-70.8,10.4c-5.1,0.8-6.4-1.9-6-5.9c2.2-27,4.5-54,6.7-81c2.9-34.9,5.6-69.9,8.5-104.8 c0.9-10.9,2.1-21.8,3.1-32.6c0.5-4.8,3.1-6.3,7.7-5.5c9.8,1.7,19.7,2.9,29.4,4.9c2.3,0.5,5.1,2.9,5.9,5.1c2.6,7.6,3,8.3,10.2,3.8 c22.5-14,47.2-16.7,72.6-12.9c41.7,6.2,79.4,42.7,78.7,91.5c-0.5,33.9-12.4,62.1-40.8,81.7c-22.1,15.3-47.1,17.6-72.9,12.2 C850.7,522.4,841.7,518.7,830.6,515.2z M823.2,446.2c1,0.5,2,1,3,1.5c5.2-8.4,10.3-16.8,15.8-25.8c6.8,5.7,12.9,11.5,19.6,16.2 c10.6,7.3,22.3,10,34.5,4.1c12.6-6.1,15.2-17.3,14.5-30.1c-0.6-13-7.3-21.8-18.7-27.2c-23.6-11.2-52.9,0.4-69.2,20.2 c-1.2,1.5-2.3,3.6-2.2,5.4C821.2,422.6,822.2,434.4,823.2,446.2z"></path> <path style="fill:#FFFFFF;" d="M645.4,406.6c-3.1-5.1-4.7-9.1-7.4-12c-8.7-9.1-19.9-13.1-32.1-13.6c-28-1.1-54.9,3.8-80.2,16.6 c-1.8,0.9-6.7-0.5-7.7-2.3c-4.4-8.3-8.4-16.9-11.5-25.7c-0.7-2.1,1.5-6.7,3.7-8.1c24.5-15.4,51.4-23,80.3-23.9 c23.6-0.7,46.7,0.8,69,9.4c26.2,10.1,45,28.4,55.1,54.1c14.9,37.8,13.1,76.9,6.2,116.1c-0.9,5.3-3.4,7.3-9,7.5 c-24.6,0.7-49.2,2-73.8,3.2c-3.7,0.2-6.6,0.3-8.5-3.9c-0.7-1.4-4.5-2.5-6.6-2c-22.8,4.8-45.8,6.9-68.8,2.1 c-19.5-4.1-37.1-12.1-48.6-29.3c-14.6-21.9-11.1-53,12.2-72.3c18.1-14.9,39.8-21,62.7-23.1c20-1.8,39.8-0.1,58.9,6.6 C640.3,406.3,641.6,406.2,645.4,406.6z M641.6,473.8c0.9-0.2,1.8-0.4,2.7-0.6c0.6-7.7,1.5-15.4,1.5-23.1c0-1.7-2.7-3.8-4.6-4.9 c-2.5-1.5-5.4-2.5-8.3-3.4c-17.7-5.4-35.4-8.1-53.4-1.2c-8.4,3.2-14.1,12-12.5,19.7c1.7,8,9.1,12.9,18.8,11.9 c12.8-1.3,23.7-6.7,33.2-15.4c10.4-9.5,10.8-9.4,15.8,3.8c0.6,1.6,0.6,3.5,1.4,5C637.9,468.4,639.8,471.1,641.6,473.8z"></path> <path style="fill:#FFFFFF;" d="M597.3,677.8c-11.3,0-21.5,0.5-31.6-0.3c-3.3-0.3-8.5-3.7-9.2-6.5c-1.9-8.7-7.4-17.1-4-26.5 c0.9-2.4,3.3-5.6,5.5-6.1c8.8-1.7,17.7-2.8,26.6-3.6c12.8-1,19.9-7.5,20.9-20.5c1.1-15.1,6.2-28.9,13.4-41.9c1-1.8,4.7-3.2,6.9-2.9 c9.3,1.3,18.6,2.9,27.8,5.2c2.2,0.5,5.2,4,5.2,6.2c0.1,6.2-0.9,12.5-1.9,18.7c-1.1,7.5-2.6,15-4,22.7c0.1,0,0.4,0.6,0.8,0.6 c17.9-1.4,35.9-2.7,53.8-4.3c3.9-0.3,6,0.3,8.2,4.2c6.4,11.4,10.8,23.2,11.2,36.4c0,1.8,1.2,3.6,2,5.4c3.7,8,0.6,13.2-8.3,13.2 c-20.7,0.1-41.3-0.1-62-0.1c-3.2,0-6.3,0.3-11.2,0.5c5,11.1,1.6,22.4,8.5,33c9.6,14.8,18.3,12.1,29.4,5.8c4-2.3,6-8,9.4-11.8 c2.4-2.7,5.3-5.2,8.5-6.7c0.7-0.3,4,3.9,5.5,6.4c7.4,12.5,14.5,25.2,21.8,37.8c2.9,4.9,6.1,9.7,9.1,14.5c3.1,4.9,2.9,8.3-2.7,12.2 c-12.9,9.1-25.5,18.7-40.7,23.4c-12.6,3.9-25.8,6.8-39.2,4.6c-13-2.1-25.2-6-35.5-15.2c-10.4-9.3-16.1-20.9-19.7-33.9 c-5.8-21.4-4.7-43.3-4.5-65.1C597.3,681.5,597.3,679.8,597.3,677.8z"></path> <path style="fill:#FFFFFF;" d="M595.7,230.6c1.7,3.3,4.3,6,3.8,7.7c-0.7,2.1-4,3.4-6.1,5.1c-4,3.3-8,6.4-11.7,10 c-7,6.7-18.8,9.1-26.8,4.1c-3-1.9-6.7-6.6-6.1-9.2c1-4.3,4.8-8.1,8-11.6c2.3-2.5,5.4-4.2,8.6-6.6c-1.8-1.2-2.5-1.5-3-2 c-3.7-3.6-10-5.6-8-12.8c1.6-5.5,9.5-10.8,15.9-12c11.8-2.2,23.3-5.7,35.1-7.4c10.5-1.5,21.3-1.2,32-1.7c12.4-0.5,24.8-1.4,37.2-1.4 c9.4,0,18.8,1.5,28.2,1.4c16-0.2,32-2.4,47.9-1.7c20.9,1,41.6,3.9,62.4,6.1c1.5,0.2,3,0.4,4.4,0.5c20.1,1.2,33.8,11.2,43,29.1 c5,9.9-0.3,17.3-4.6,24c-9.2,14.3-22.5,24.6-40.3,22.7c-24.6-2.7-44.7,7.8-64.8,19c-6.3,3.5-11.5,9.1-17.4,13.4 c-7.3,5.4-14.5,11-22.2,15.7c-5.8,3.5-14.6,0.3-20-5.9c-5.3-6-3.5-11.4,0-17.7c8.4-15.2,23.2-23.3,35.6-34.2 c4.3-3.8,7.5-8.8,11.2-13.3c-4.8-3.2-9.1-7.5-14.4-9.3c-9.4-3.2-19.2-5.3-29-7c-8.7-1.5-17.7-1.6-26.5-2.4c-1.9-0.2-3.7-1-5.6-1.4 c-5.2-1.1-11.3-4.2-15.4-2.6c-10.9,4.3-20.8-1.3-31-1C608.6,228.3,601.2,229.9,595.7,230.6z"></path> <path style="fill:#FFFFFF;" d="M487.6,782.4c-2.9,2.2-5.6,6.1-8.7,6.4c-26.4,2.5-52.9,4.4-79.3,6.5c-1.5,0.1-3,0.2-4.4,0.6 c-7.5,1.7-11-1.1-10.2-8.4c2.7-24.8,5.6-49.5,8.1-74.4c2-19.5,3.2-39,5.2-58.5c2.1-21.2,4.7-42.4,7-63.6c1.4-13.1,2.2-26.2,3.9-39.2 c1.4-11,2-11,13.2-9.6c9.9,1.2,19.7,2.4,29.6,3.2c5.5,0.5,8.4,2.2,8.9,8.4c1.3,16.5,3,33,5,49.5c2.3,18.4,5.3,36.6,7.6,55 c1.2,9.3,1,18.9,2,28.2c3.4,30.9,7.2,61.8,10.8,92.7c0.1,0.5,0.1,1,0.1,1.5C486.7,781.3,487.1,781.8,487.6,782.4z"></path> <path style="fill:#FFFFFF;" d="M464.8,523.8c0,4.7-0.7,7.8-6.3,8.4c-23.9,2.9-47.8,6.1-71.7,9.4c-11.9,1.6-12,1.8-11.1-9.9 c3.5-46.3,6.9-92.7,10.6-139c3.3-41.4,7.2-82.7,10.6-124c0.6-7.5,3.3-10.1,10.8-8.6c8.3,1.6,16.7,2.9,25.1,3.7 c5.8,0.6,8.2,3.4,8.7,8.9c1.5,16.8,3.2,33.6,4.7,50.4c3.2,34.4,6.4,68.8,9.6,103.1C458.7,458.8,461.8,491.4,464.8,523.8z"></path> </svg> 