<?xml version="1.0" encoding="UTF-8"?> <svg xmlns="http://www.w3.org/2000/svg" xmlns:xlink="http://www.w3.org/1999/xlink" version="1.1" id="Layer_1" x="0px" y="0px" viewBox="0 0 1000 1000" style="enable-background:new 0 0 1000 1000;" xml:space="preserve"> <path style="fill:#FFFFFF;" d="M561.4,323.9c-0.2,1.2,0,3.2-0.6,3.4c-7.6,3.1-11.4,9.7-15.3,16.2c-8.2,13.4-9.4,28.3-8.1,43.4 c0.3,2.9,3.3,5.5,5.2,8.3c-10.1,0-20.7,0-31.4,0c-0.1-0.4-0.1-0.7-0.1-0.7c7.1-3.2,5.2-9.6,5.7-15.4c1.2-15.9-3.6-29.8-13.2-42.3 c-3.9-5.1-9.1-8.4-15.4-10c1.9-2.9,7.3-3.6,17-1c5.6,1.5,11.4,4.1,16,7.6c4.7,3.6,8.1,8.8,12.5,13.8c5.6-11.4,13-21.2,26.9-23.3 C560.8,323.9,561.1,323.9,561.4,323.9z"></path> <path style="fill:#FFFFFF;" d="M125.8,473.5c5.6-8.2,10.9-15.9,16.2-23.7c12.1-17.8,24.2-35.6,36.3-53.4c0.8-1.2,2.3-2,3.5-2.9 c0.6,1.3,1.5,2.6,1.8,4.1c5.5,27.9,10.8,55.9,16.6,83.8c3.2,15.3,6.5,30.7,10.9,45.7c3.2,10.9,9.4,20.6,20.3,25.6 c4.5,2.1,9.8,2.4,14.7,3.6c1.4,0.3,2.8,0.9,4.2,1.4c-1.2,1.1-2.2,2.6-3.5,3.1c-28,9.6-56.3-0.6-72.1-25.7c-8-12.7-12.1-26.6-15.1-41 c-1.9-9-3.8-17.9-5.8-26.8c-0.1-0.6-0.6-1.2-1.2-2.3c-1,0.9-1.8,1.4-2.3,2.1c-9.6,13.9-19.4,27.7-28.5,41.9 c-3.2,5-4.8,11.1-7.1,16.7c-0.6,1.4-0.9,2.8-1.4,4.3c-1.2-1-2.9-1.8-3.7-3.1c-7-11.6-13.8-23.2-20.7-34.9 c-6.4-10.8-12.7-21.6-19-32.3c-0.5-0.9-1.3-1.6-2.6-3.2c-0.9,5.3-1.6,9.5-2.3,13.8c-2.2,14.5-4.3,29.1-6.4,43.6 c-0.7,4.7,1.6,7.4,6.6,8.5c1.1,0.2,2,1.2,3,1.8c-1,0.6-2,1.6-3,1.6c-11.8,0.1-23.6,0.1-35.5,0c-1,0-2-1.1-3-1.7 c0.8-0.6,1.6-1.6,2.5-1.8c10.6-1.7,12.9-4.3,14.6-15c3.3-20.8,6.6-41.6,10.3-62.4c1.4-7.8,0.7-14.4-4.3-21.1 c-7.8-10.4-15-21.3-26.4-28.1c-3.9-2.4-8.9-3.2-13.4-4.7c-1.3-0.4-2.5-1-3.7-1.5c1-1,1.8-2.5,3.1-3c22.6-10.3,43.1-6.2,61.8,9.3 c10,8.3,17.4,18.7,24.2,29.6c9.2,15,18.5,29.9,27.8,44.9C123.9,471.2,124.7,472.1,125.8,473.5z"></path> <path style="fill:#FFFFFF;" d="M988.2,365.6c1.6,2.5,1.4,3.8-1.7,4.7c-7.5,2.1-10.9,6.2-11.1,14.3c-0.4,18.3-0.3,36.7-0.4,55 c-0.1,22.4,0,44.8,0,67.3c0,9.7,2.4,12.6,12.1,14.8c0.8,0.2,1.9,1.2,1.8,1.8c0,0.7-1,1.7-1.7,2c-0.9,0.4-2,0.2-3,0.2 c-19.4,0-38.8,0-58.2,0c-1,0-2.1,0.2-3-0.2c-0.8-0.3-1.4-1.3-2-1.9c0.7-0.6,1.3-1.6,2.1-1.8c9.6-2.5,12.4-5.9,12.4-15.7 c0-39.7,0-79.4,0.1-119.2c0-3-0.8-4.2-4.1-3.9c-5.4,0.6-10.8,0.5-16.1,1.2c-5,0.7-9.2,3-10.5,8.5c-1.3,5.8-1.3,11.5,4.1,15.4 c1.8,1.3,4.3,1.5,6.4,2.3c1.1,0.4,2.1,1.1,3.1,1.6c-0.9,0.9-1.6,2.1-2.7,2.6c-5.8,2.8-13.4,0.8-17.8-4.5c-5.8-7.1-6.4-15.2-3.2-23.5 c3.3-8.5,10.3-12.8,19-14.3c5.4-0.9,11-1.2,16.5-1.6c16.6-1.2,33.2-2.3,49.7-3.5C982.7,366.9,985.2,366.2,988.2,365.6z"></path> <path style="fill:#FFFFFF;" d="M889.8,365.6c1.6,2,2.3,3.6-1.1,4.7c-8,2.5-11.3,6.3-11.5,14.9c-0.4,11.6-0.3,23.3-0.3,34.9 c0,29.1-0.1,58.2,0.1,87.3c0,3.3,0.9,7.2,2.8,9.7c1.8,2.3,5.5,3,8.4,4.5c1,0.5,1.9,1.3,2.8,1.9c-0.9,0.7-1.8,1.6-2.8,2.1 c-0.7,0.3-1.7,0.1-2.6,0.1c-19.1,0-38.2,0-57.3,0c-1,0-2.2,0.2-3-0.1c-0.9-0.4-1.6-1.3-2.4-2c0.8-0.6,1.6-1.6,2.6-1.8 c7.9-1.5,11.6-5.2,11.8-13.6c0.3-13.2,0.2-26.5,0.2-39.7c0-26.8-0.1-53.5,0.1-80.3c0-4.4-1.3-5.7-5.5-5c-6.3,1-12.8,1-18.9,2.6 c-5.7,1.5-7.8,7.3-6.6,14.9c0.9,5.5,4.5,8.9,10.2,9.7c1.3,0.2,2.6,1.1,3.9,1.8c-1.2,0.9-2.2,2.3-3.6,2.8 c-10.4,3.6-20.7-4.5-21.7-16.8c-1.1-13.3,7.5-24,21.2-25.9c6.3-0.9,12.8-1.1,19.2-1.6c16.3-1.2,32.6-2.4,48.8-3.6 C886,366.7,887.8,366,889.8,365.6z"></path> <path style="fill:#FFFFFF;" d="M330.2,524.4c1.3-0.4,2.5-0.9,3.8-1.2c4.2-1,7.1-4,7.1-8.3c0.1-25.2,0-50.3,0-76.8 c-3.9,1.2-7.3,2-10.5,3.3c-7.2,2.8-12.4,8-16.1,14.7c-0.5,0.9-0.8,2.1-1.5,2.6c-1.3,0.7-2.8,0.9-4.3,1.3c-0.3-1.3-1.2-2.7-0.9-3.8 c3-11.9,10.2-20.5,22-23.9c8-2.3,16.6-3.4,24.9-3.5c16.1-0.1,32.4,0,48.4,1.6c22.6,2.2,38.5,20.9,38.8,43.4 c0.1,9.3-0.2,18.4-4.5,26.8c-7,13.7-18.8,21.2-33.6,23.9c-7,1.3-14.2,1.6-21.3,1.7c-15.8,0.3-31.5,0.1-47.3,0.1 c-1.6,0-3.3-0.3-4.9-0.4C330.3,525.5,330.2,525,330.2,524.4z M373,478.1C373,478.1,373,478.1,373,478.1c0,11.9,0,23.8,0,35.8 c0,2.2-0.1,3.9,3,4.2c12.6,1.4,23.7-5.6,28-17.5c4.9-13.6,4.9-27.4,1.6-41.2c-3.5-14.9-14.1-22.9-28.2-22.2 c-3.4,0.2-4.5,1.3-4.5,4.7C373.1,454,373,466,373,478.1z"></path> <path style="fill:#FFFFFF;" d="M692.6,526c-11.3,0-22.7,0-34,0c-0.1-0.4-0.2-0.7-0.4-1.1c0.8-0.5,1.6-1.4,2.5-1.5 c5.9-0.6,9-4.5,11.3-9.2c8.7-18.5,17.3-37.1,25.8-55.7c0.6-1.3,1.2-3.4,0.6-4.5c-3.7-6.9-7.3-13.8-11.7-20.2 c-3-4.2-7.7-5.9-13.3-4.1c-1.2,0.4-2.8-0.5-4.2-0.8c1-1.3,1.6-3.1,2.9-3.7c19.3-9.1,39.1-6.4,51.4,13.5 c6.9,11.2,11.9,23.5,17.6,35.5c7.6,16,14.6,32.3,22.4,48.2c4.2,8.5,10,16,18.2,21.3c5.2,3.3,10.7,5.1,17,3.6 c1.4-0.3,3.1,0.5,4.7,0.8c-1.2,1.3-2.1,3.2-3.6,3.8c-16,6.6-31.9,6-47.2-2.2c-14.5-7.8-23.6-20.5-30.1-35.1 c-4.7-10.7-4.6-10.7-16-10.7c-0.7,0-1.5,0.1-2.2,0c-9.7-2.1-15.1,2-17.6,11.3c-1.2,4.6-1,6.4,3.5,8.1c1,0.4,1.9,1.1,2.8,1.7 C693,525.3,692.8,525.6,692.6,526z M714.5,495.1c-2.9-7.2-5.6-13.8-8.3-20.4c-0.4,0-0.8,0-1.2,0c-2.9,6.6-5.9,13.2-9.1,20.4 C702.4,495.1,708,495.1,714.5,495.1z"></path> <path style="fill:#FFFFFF;" d="M448,429.3c16.8,0,33.6,0,50.5,0c0.1,0.4,0.3,0.7,0.4,1.1c-1.2,0.5-2.3,1.3-3.5,1.6 c-3.8,0.9-5.9,3.2-5.9,7.1c0,18.6-0.2,37.3,0.4,55.9c0.5,15,13.9,26.4,27.8,24.5c9.7-1.3,18.6-9,20.2-18.6c1.2-7,1.6-14.1,1.8-21.2 c0.3-15.3-0.5-30.6,0.3-45.8c0.7-14.9,7.2-27.1,21.6-33.1c4.7-1.9,10.2-1.9,15.3-2.5c1-0.1,2.1,0.9,3.2,1.4c-0.9,0.8-1.7,2-2.7,2.2 c-7,1.8-12.6,5.6-16.2,11.7c-4.1,6.9-5.9,14.5-5.9,22.5c-0.1,17.5,0,34.9,0,52.4c0,11.2-2.4,21.7-11.3,29.6 c-5.8,5.1-12.6,7.9-20.1,8.9c-15.5,2.1-30.8,2.2-45.6-4.1c-13.4-5.7-20.9-16.7-21-31.3c-0.1-16.6,0-33.2,0-49.8 c0-7.4-0.5-8-7.8-10.3c-0.6-0.2-1.1-0.8-1.6-1.2C447.9,430.1,448,429.7,448,429.3z"></path> <path style="fill:#FFFFFF;" d="M615.9,426.9c9.5,0.5,18.9,1.1,28.4,1.5c2.3,0.1,3.1,1,2.8,3.3c-0.8,5.9-1.4,11.8-2.4,17.7 c-0.2,1.1-1.6,2.6-2.5,2.7c-0.9,0.1-2.7-1.3-2.8-2.3c-1.7-12.4-17.9-17.9-30.5-12.1c-3.5,1.6-6.3,4.4-6.7,8.6 c-0.4,4.1,2.8,6.3,5.8,8c10.5,6,21,11.8,31.6,17.8c15.5,8.7,21.9,20.9,19.2,37.1c-1.9,11.4-9,19.7-18.9,24.8 c-18.5,9.4-37.7,10.1-56.1-0.3c-15.4-8.7-20.2-27.5-12.5-43.4c0.9-2,1.8-4.1,3.3-5.6c1-0.9,3.1-0.8,4.6-1.1c0.1,1.3,0.7,2.8,0.1,3.8 c-11.4,21.3,5.3,41.2,26.8,43.9c10.5,1.3,21.4-5.5,23.8-14.5c1.8-6.8-1.6-12.2-6.4-16.1c-5.7-4.6-12.3-8.2-18.6-12.1 c-5.4-3.4-11.1-6.4-16.4-10c-11.7-8.1-13.9-20.3-10.3-32.9c3.6-12.6,14.4-18,27.6-18.8c3.3-0.2,6.7,0,10.1,0 C615.9,427,615.9,427,615.9,426.9z"></path> <path style="fill:#FFFFFF;" d="M222.6,429.1c1.5-0.1,3-0.3,4.5-0.3c12.5,0,25.1,0.3,37.6,0c6.4-0.1,12.8-1,19-2.1 c3.7-0.6,5.1-0.1,5,3.9c-0.2,7.1-0.1,14.3-0.1,21.4c0,4.4-0.1,4.4-4.9,3.7c-0.6-10.8-5.8-18.5-18.9-18c0,5,0,10,0,15 c0,5.8,0.1,11.6-0.1,17.5c-0.1,3,0.9,4.4,4,4.3c4.6-0.2,9.3,0,13.9-0.7c7.1-0.9,11-5,12.7-12c0.3-1.3,1.9-2.3,2.9-3.5 c0.8,1.3,2.2,2.5,2.2,3.8c0.2,10.8,0.2,21.5,0,32.3c0,1.2-1.3,2.4-1.9,3.7c-1.1-1-2.9-1.9-3.2-3.1c-1.8-7.7-7-12.2-14.7-12.3 c-3.9-0.1-7.9,0.1-11.8,0c-2.8-0.1-4,0.9-4,3.7c0,9.6-0.2,19.2-0.1,28.8c0,0.9,1.2,2.7,1.8,2.7c10.7-0.3,21.6,2.3,31.9-2.7 c7.9-3.8,12.4-10.3,15.6-18c0.4-0.9,0.6-2.3,1.3-2.7c1.1-0.7,2.6-1,3.9-0.9c0.4,0,1.1,1.9,1,2.8c-1.4,9.2-3,18.4-4.5,27.5 c-0.5,3-2.7,2.5-4.7,2.5c-20.9,0-41.7,0-62.6,0c-7.7,0-15.5,0.1-23.2,0c-1,0-2-0.5-4.2-1c1.7-1.1,2.4-2,3.3-2.1 c6.7-1.1,8.5-5.2,8.5-10.8c0.2-23.3,0.1-46.5,0-69.8c0-6.4-2.2-8.9-8.4-10.9c-0.8-0.3-1.6-1-2.3-1.4 C222.4,429.9,222.5,429.5,222.6,429.1z"></path> <path style="fill:#FFFFFF;" d="M531.2,409.9c-5.1,4.6-10.1,6.1-15.3,6.8c-19.7,2.6-34.8-5.2-44.9-23.3c-3.9-7-6.9-14.4-10.4-21.6 c-1.1-2.3-2.5-4.5-4.1-7.4c-0.8,1.4-1.3,1.9-1.3,2.5c-0.1,6.8-0.5,13.7,0.2,20.5c0.3,2.7,3.3,5.1,5.1,7.8c-10.2,0-21,0-31.9,0 c0-0.4-0.1-0.9,0-0.9c5.8-2.5,6-7.3,5.9-12.6c-0.2-13.1-0.2-26.2,0-39.3c0.1-5.1-0.6-9.3-7.6-10.5c1.6-0.8,2.2-1.4,2.9-1.4 c14.3,0.1,28.6,0.1,42.9,0.5c2.8,0.1,5.7,1.1,8.4,2.2c7.9,3.4,9.9,9.9,9.3,17.9c-0.5,6.7-4.4,11.9-11.1,14.2c-0.5,0.2-1,0.5-1.8,0.8 c7.7,10.1,15,20.2,23,29.7c6.2,7.4,14.8,11.1,24.4,12.5C526.5,408.6,528.3,409.1,531.2,409.9z M469,349.2c0.1-6.2-3.3-10.7-9.4-12.5 c-2.9-0.9-4.5-0.3-4.5,3.1c0.1,6.4,0.1,12.8,0,19.2c0,3,1.5,3.3,3.9,2.9C464.7,360.9,468.8,355.6,469,349.2z"></path> <path style="fill:#FFFFFF;" d="M626.1,356.7c-1.1-1-2.8-1.9-3.3-3.2c-5.3-13.2,2.2-24.4,15.5-24.9c18.1-0.7,30.2,9.6,34.1,19.6 c7.5,19.5,0.9,42.6-26.3,47.6c-11.4,2.1-22.9,1.8-33.9-3c-13.5-5.9-20.9-18.4-19.6-33.3c1.4-15.5,10.8-26.4,25.7-29.7 c1.2-0.3,2.5,0.2,3.7,0.3c-0.3,1.1-0.4,2.4-0.9,3.4c-8.2,15.3-9.1,31-1.9,46.9c2.9,6.3,8.1,10.6,15.4,10.4 c7.1-0.3,11.7-4.7,14.7-10.9c5.6-11.8,5-23.6,0.1-35.5c-0.4-1.1-1.2-2-1.8-3c-3.8-5.4-8.8-7.6-13.2-5.9c-5.2,2-8.6,8-7.9,14.2 c0.2,2,0.6,3.9,1,5.8C627,356,626.5,356.3,626.1,356.7z"></path> <path style="fill:#FFFFFF;" d="M379.7,396.8c-12.7,0-23.9-2.2-32.9-11c-9.6-9.5-11.1-21.2-7.8-33.5c3.4-12.7,12.5-19.9,25.2-22.6 c0.9-0.2,1.9,0.3,2.8,0.5c-0.2,1-0.2,2.2-0.7,3.1c-8.5,15.3-9.5,31-2.3,46.8c4.6,10.1,14.6,13.5,22.6,8.6c5.4-3.3,8.3-8.5,9.9-14.4 c2.6-9.6,2.4-19.1-1.7-28.2c-1.6-3.7-4.5-7.3-7.8-9.6c-7.7-5.2-15.7,3-15.7,12.1c0,1.4,0.6,2.9,0.6,4.3c0,1.1-0.4,2.2-0.7,3.3 c-1.1-0.6-2.7-0.9-3.2-1.8c-4.1-8.8-2.9-22,9.9-24.9c15.1-3.4,30.4,2.2,38.4,16.8c7.3,13.5,4.1,31.9-7.3,41.5 C400.5,395,390,396.9,379.7,396.8z"></path> <path style="fill:#FFFFFF;" d="M231.5,329c5.5,0.4,11,0.6,16.5,1.2c0.9,0.1,2.5,1.7,2.5,2.5c-0.2,3.9-0.8,7.8-1.5,11.7 c-0.1,0.7-1.3,1.2-2,1.8c-0.6-0.7-1.5-1.3-1.7-2.1c-1.7-7.8-11-11.1-18.3-7.8c-2,0.9-4.1,3.4-4.4,5.4c-0.3,1.6,1.6,4.3,3.2,5.4 c6.2,4.1,12.7,7.7,19.1,11.5c10.8,6.5,14.9,14.4,13.2,25.2c-1.6,9.8-10,18.2-20.9,20.4c-7.3,1.4-14.8,1.5-22-1.1 c-13.8-4.9-19.6-22.8-11.1-34.7c0.6-0.8,2-1,3.1-1.5c0.1,1.3,0.7,2.8,0.2,3.8c-5.7,12.1,2.4,25.2,15.9,27.8c5,0.9,9.3-0.5,12.9-3.8 c5.3-4.7,4.8-12-1.6-16.8c-5.4-4.1-11.5-7.4-17.2-11.1c-4.8-3.1-9.1-6.7-10.7-12.6c-3.7-13.3,4.5-24.6,18.3-24.9c2.2,0,4.4,0,6.6,0 C231.5,329,231.5,329,231.5,329z"></path> <path style="fill:#FFFFFF;" d="M682.5,330.7c1.5-0.1,3-0.3,4.5-0.3c12.2-0.1,24.5-0.3,36.7-0.4c0.3,0,0.6,0,0.9-0.1 c9.5-1.1,9.5-1.1,9.5,8.6c0,2.3,0.2,4.7-0.1,7c-0.1,1-1.1,2-1.7,3c-0.6-0.8-1.7-1.6-1.8-2.5c-0.8-4.5-3-8.2-7.6-9.1 c-3.6-0.7-7.5-0.5-11.3-0.4c-0.8,0-2,1.7-2.1,2.6c-0.2,6.1-0.2,12.2,0,18.3c0,1,1.8,2.7,2.9,2.7c6.4,0.2,12.8,0.3,19.2,0 c4.4-0.2,6.9-3.1,8.1-7.4c0.3-1,1.5-1.7,2.3-2.6c0.5,1,1.3,1.9,1.3,2.9c0.1,6.8,0.1,13.7,0,20.5c0,1-1.1,2-1.7,3 c-0.6-0.8-1.6-1.6-1.9-2.5c-1.9-5.8-4.1-7.5-10.1-7.6c-5.5,0-11.1,0-16.6,0c-2.5,0-3.7,0.9-3.7,3.6c0.1,5.5-0.6,11.1,0.3,16.6 c0.5,3,3.3,5.7,5,8.6c-10,0-20.8,0-32.6,0c1.4-1.2,2.3-1.6,2.8-2.4c1.4-2.2,3.8-4.4,3.9-6.6c0.3-15.6,0.2-31.1,0.2-46.7 c0-4.3-2.3-6.6-6.5-7.5C682.4,331.6,682.4,331.1,682.5,330.7z"></path> <path style="fill:#FFFFFF;" d="M265.9,355.3c-2.3-0.8-4.1-1-5.1-2c-3.9-4-4.8-9.1-3.1-14.2c1.6-4.9,5.6-7.7,10.8-8.4 c3.2-0.4,6.4-0.3,9.6-0.3c14-0.2,28-0.3,42-0.4c0.7,0,1.5-0.1,2.2-0.2c8.3-1.4,8.3-1.4,8.3,6.8c0,3.2,0.1,6.4-0.1,9.6 c0,0.8-1,1.5-1.5,2.3c-0.7-0.7-1.9-1.3-2.1-2.2c-2.3-8.3-5.7-10.7-14-10.4c-2.3,0.1-3.4,0.7-3.4,3.3c0.1,15.8-0.1,31.7,0.2,47.5 c0,2,2.2,4.1,3.5,5.9c0.6,0.8,1.7,1.2,2.4,2.5c-10.9,0-21.8,0-32.8,0c-0.4-0.4-0.8-0.7-1.2-1.1c8.9-1.5,7.2-7.7,7.2-13.1 c0.1-13.7-0.1-27.3,0.1-41c0-3.3-1-4.5-4.2-4.2c-2.9,0.2-5.8,0-8.7,0.1c-10.4,0.1-14.5,6-11.1,15.6 C265.1,352.4,265.3,353.2,265.9,355.3z"></path> </svg> 