<?xml version="1.0" encoding="UTF-8"?> <svg xmlns="http://www.w3.org/2000/svg" xmlns:xlink="http://www.w3.org/1999/xlink" version="1.1" id="Layer_1" x="0px" y="0px" viewBox="0 0 1000 1000" style="enable-background:new 0 0 1000 1000;" xml:space="preserve"> <g> <path style="fill:#FFFFFF;" d="M192.4,579.8V177.2h81.3V356l164.2-178.8h109.3L395.6,334l159.8,245.8H450.3L339.6,390.8l-65.9,67.3 v121.7H192.4z"></path> <path style="fill:#FFFFFF;" d="M765.8,487l76.9,12.9c-9.9,28.2-25.5,49.7-46.8,64.4c-21.3,14.7-48,22.1-80.1,22.1 c-50.7,0-88.2-16.6-112.6-49.7c-19.2-26.5-28.8-60-28.8-100.5c0-48.3,12.6-86.2,37.9-113.6c25.3-27.4,57.2-41.1,95.8-41.1 c43.4,0,77.6,14.3,102.7,43c25.1,28.7,37.1,72.5,36,131.7H653.5c0.5,22.9,6.8,40.7,18.7,53.4c11.9,12.7,26.7,19.1,44.5,19.1 c12.1,0,22.2-3.3,30.5-9.9S761.6,501.6,765.8,487z M770.2,409c-0.5-22.3-6.3-39.3-17.3-50.9c-11-11.6-24.4-17.4-40.1-17.4 c-16.8,0-30.8,6.1-41.7,18.4c-11,12.3-16.4,28.9-16.2,50H770.2z"></path> </g> <g> <path style="fill:#FFFFFF;" d="M222.5,841.3V674.5h34.2v74.1l69.1-74.1h46l-63.8,65l67.3,101.8h-44.3L284.5,763l-27.8,27.9v50.4 H222.5z"></path> <path style="fill:#FFFFFF;" d="M463.9,802.8l32.4,5.3c-4.2,11.7-10.7,20.6-19.7,26.7c-9,6.1-20.2,9.2-33.7,9.2 c-21.4,0-37.2-6.9-47.4-20.6c-8.1-11-12.1-24.9-12.1-41.6c0-20,5.3-35.7,16-47c10.6-11.3,24.1-17,40.4-17 c18.3,0,32.7,5.9,43.2,17.8c10.6,11.9,15.6,30.1,15.1,54.6h-81.4c0.2,9.5,2.9,16.9,7.9,22.1c5,5.3,11.3,7.9,18.7,7.9 c5.1,0,9.4-1.4,12.8-4.1C459.5,813.3,462.1,808.9,463.9,802.8z M465.8,770.5c-0.2-9.3-2.7-16.3-7.3-21.1 c-4.6-4.8-10.3-7.2-16.9-7.2c-7.1,0-13,2.5-17.6,7.6c-4.6,5.1-6.9,12-6.8,20.7H465.8z"></path> <path style="fill:#FFFFFF;" d="M636.2,841.3h-32.5v-61.7c0-13-0.7-21.5-2.1-25.3c-1.4-3.8-3.6-6.8-6.8-8.9 c-3.1-2.1-6.9-3.2-11.3-3.2c-5.6,0-10.7,1.5-15.1,4.5c-4.5,3-7.5,7.1-9.2,12.1s-2.5,14.3-2.5,27.8v54.7h-32.5V720.4h30.2v17.7 c10.7-13.7,24.2-20.5,40.5-20.5c7.2,0,13.7,1.3,19.7,3.8c5.9,2.5,10.4,5.8,13.5,9.7c3,3.9,5.2,8.4,6.4,13.4 c1.2,5,1.8,12.2,1.8,21.5V841.3z"></path> <path style="fill:#FFFFFF;" d="M661.6,779.1c0-10.6,2.7-20.9,8-30.8c5.3-9.9,12.9-17.5,22.6-22.8c9.8-5.2,20.6-7.9,32.7-7.9 c18.6,0,33.8,5.9,45.7,17.8c11.9,11.9,17.8,26.9,17.8,45c0,18.3-6,33.4-18,45.5c-12,12-27.1,18-45.3,18c-11.3,0-22-2.5-32.2-7.5 c-10.2-5-18-12.3-23.3-22C664.3,804.8,661.6,793,661.6,779.1z M695,780.8c0,12,2.9,21.2,8.7,27.5s12.9,9.6,21.4,9.6 c8.5,0,15.6-3.2,21.3-9.6c5.7-6.4,8.6-15.6,8.6-27.8c0-11.8-2.9-20.9-8.6-27.3c-5.7-6.4-12.9-9.6-21.3-9.6 c-8.5,0-15.6,3.2-21.4,9.6S695,768.9,695,780.8z"></path> </g> </svg> 