<?xml version="1.0" encoding="UTF-8"?> <svg xmlns="http://www.w3.org/2000/svg" xmlns:xlink="http://www.w3.org/1999/xlink" version="1.1" id="Layer_1" x="0px" y="0px" viewBox="0 0 1000 1000" style="enable-background:new 0 0 1000 1000;" xml:space="preserve"> <path style="fill:#FFFFFF;" d="M421.7,574c-8.4-4.1-18.3-6.7-24.9-12.7c-7.8-7.1-13.2-17.1-19-26.2c-3-4.7-1.3-9.1,4-12.1 c5.5-3.2,10.5-7.1,13.9-9.5c-3.9-14.5-9-27.5-10.6-40.9c-2.6-21.1-0.4-41.7,15.2-58.9c7.9-8.7,22.6-11.5,33.2-3 c1.4,1.1,2.8,2.3,4.9,4.1c0.3-2.9,0.5-5.3,0.7-7.6c15.3-3.3,22.2-1.9,24.3,5.5c3.9,0,7.9,0,13.1,0c2.5,16,5.8,31.9,7.2,47.9 c1.5,16.6,2.1,33.5,1.4,50.2c-0.7,17.3-4.9,33.8-17.1,47.4c-7.4,8.3-16.9,12.1-27.4,14.1c-2.2,0.4-4.3,1.2-6.4,1.8 C430.1,574,425.9,574,421.7,574z M423.2,457.3c0.9,7.7,1,14,2.7,19.8c1,3.4,4.7,6,7.1,8.9c2.5-2.2,6-4,7.4-6.8 c6.6-13.4,5.2-27-1.2-40.1c-1-2-4.4-4.7-5.6-4.2c-2.7,1-6.1,3.3-7,5.9C424.6,446.5,424.1,452.7,423.2,457.3z M405.2,520.5 c5.2,6.1,9.2,11.6,14,16.2c6.1,5.7,14.9,5.5,20-0.5c7.8-9.1,9-20.1,9-30.7c-6.3,4.2-11.8,9.5-18.4,11.8 C422.9,519.8,414.9,519.4,405.2,520.5z"></path> <path style="fill:#FFFFFF;" d="M971.3,362.6c-1.9,14-4,28-5.8,42c-2.2,16.8-4.2,33.7-6.5,50.5c-2.8,21-6.1,41.9-8.5,62.9 c-0.8,6.7-3.5,9.7-9.8,8.2c-2.6-0.6-4.7-3.3-7-5.2c-0.1,0.5-0.1,1.9-0.5,3.3c-0.4,1.4-1.5,3.9-1.9,3.8c-5.5-1.1-11.1-2.2-16.3-4.3 c-1.4-0.5-2.3-4.2-2.2-6.4c2.4-27.2,4.9-54.5,7.7-81.7c1.8-16.9,4.2-33.6,6.2-50.5c0.8-6.9,1.8-13.8,2.2-20.7 c0.3-5.2-0.2-9.7,7.5-9.8c7.4-0.1,7.1,4.3,7.6,9.2c1-4.5,2-8.9,3.2-14.4c8.5,3.5,16.3,6.7,24.1,9.9 C971.3,360.5,971.3,361.5,971.3,362.6z"></path> <path style="fill:#FFFFFF;" d="M747.6,463.1c1.4-6.1,2.6-12.9,4.5-19.6c3.7-12.4,8.3-24.4,18.7-33.1c11.6-9.8,30.2-7.4,40.6,4.7 c1.5,1.7,2.8,3.6,5.1,6.5c0.4-2.8,0.7-4.4,0.9-6c0.8-7.4,3.6-9.1,11-7.7c3.1,0.6,6.5-1.1,9.8-1c8.6,0.1,17.3,0.5,28.3,0.8 c1.2-5.3,3.6-12.6,4.4-20c0.8-8.2,0.5-16.6,0.1-24.8c-0.2-5.3,1.5-8.2,6.9-9.4c4.7-1,9.2-2.5,14.7-4.1c-0.5,7.6-0.8,13.9-1.2,20.2 c0.4,0.2,0.8,0.3,1.2,0.5c1.6-3.9,3.3-7.8,4.8-11.5c14.5,1.6,14.2,1.7,14.5,15.2c0.2,7.1,2.6,14.1,2.6,21.2 c0,10.6-1.2,21.1-1.8,31.7c-1.5,26.6-2.9,53.2-4.4,79.8c-0.3,5.2-0.4,10.4-1.2,15.5c-0.6,3.9-1.8,10.8-3.3,10.9 c-5.8,0.5-11.7-1.1-17.6-1.9c-2.2-0.3-4.3-1.2-6.4-1.1c-3.6,0-7.3,1.2-10.7,0.7c-1.9-0.3-5-2.9-5-4.5c-0.1-19.8,0.3-39.6,0.5-59.3 c0.1-10.8,0-21.7-0.8-32.6c-2.8,17.4-5.7,34.8-8.5,52.2c-1.2,7.1-2.2,14.3-3.5,21.3c-1.3,7.2-2.5,14.7-13,13.7 c-1-0.1-2.3,1.6-3.2,2.6c-3.9,4.1-22,7-26.4,3.9c-1.4-1-2.2-3.4-2.5-5.2c-0.4-2.8-0.1-5.6-0.1-10c-11.5,8.8-22.5,16.2-37.3,11.9 c-15.4-4.5-18-17.6-21.6-31.8c-3.8,6.4-6.5,11.5-9.6,16.1c-10.9,16-27.5,21.4-45.7,25.3c-25.1,5.5-49.8,0.7-74.6-0.4 c-6.9-0.3-7.7-4.8-7.4-10.2c0.3-5.7,0.2-11.4,1.1-17c0.4-2.7,2.2-5.8,4.2-7.7c4.7-4.4,6.3-8.7,5.6-15.5c-2.7-25.7-4.6-51.5-6.4-77.2 c-0.6-8.5-0.6-17.2,12-18.9c-4.2-3.8-7.4-6.7-11.8-10.7c3.2-2,6-3.8,8.8-5.6c-0.3-0.4-0.6-0.9-1-1.3c-2.2,0.2-5.1,1.4-6.3,0.5 c-2.7-2.1-4.8-5.2-6.3-8.3c-0.3-0.5,3-3.6,5.1-4.4c28.1-10.1,56.7-13.8,85.7-4.6c19.7,6.3,33.2,18.7,38.9,39.6 c3.3,12.1,4.4,22.4-3.9,32.8c-3.6,4.5-5.7,10.3-8.3,15.3C733.7,447.4,740.7,455.3,747.6,463.1z M699.9,391.1 c-18.3-12.2-37.9-6.6-57.4-3.3c-0.3,3-0.6,5.4-1,8.3c2.8,0.2,5.1,0.6,7.4,0.6c9.6,0.2,11.4,1.8,12,11c0.3,4.6,0.5,9.3,0.8,13.9 c0.5,7.7,1,15.3,1.5,23c0.9-0.1,1.8-0.1,2.7-0.2c-0.3-3.5-0.3-7.1-0.9-10.6c-1.4-9.5,0.5-11.7,9.8-12.1c4.1-0.2,8.3-0.6,12.3-1.6 c11.4-2.6,14.8-8.1,12.7-19.5C699.4,397.9,699.9,394.9,699.9,391.1z M664.2,466.6c0,9.3,0,17.6,0,27.3c8.1-1.3,16.3-2.2,24.3-4 c4.9-1.1,9.5-4.1,8.8-10.1c-0.7-6.3-3.5-11.5-10.8-12.1C679.5,467.1,672.5,467,664.2,466.6z M801.6,483.7c10.2-6.4,9.3-23.1,3-33.9 C796.6,458.1,795,474.9,801.6,483.7z M620.7,404.2c5.9-0.7,10-1.2,14-1.6c0.4-0.5,0.9-1,1.3-1.6c-2.5-1.8-4.7-4.1-7.5-5.1 c-2.1-0.8-5.9-0.7-7,0.6C620.2,398.1,620.9,401.4,620.7,404.2z"></path> <path style="fill:#FFFFFF;" d="M156.3,429.2c-3,6.4-5.7,13-9.1,19.2c-11.6,21-31.7,28.2-53.7,32.1c-2.8,0.5-5.6,0.9-8.4,1.4 c-4.6,0.8-6,1.9-5.7,7.9c0.6,14.1-1.2,28.3-2.7,42.3c-0.2,1.5-5,4.3-6.3,3.7c-6.8-3-12.1-1.7-18.9,1c-4.5,1.7-13-1.2-16.7-5 c-3.2-3.2-2.6-10.5-2.9-16c-0.2-3.1,1.5-6.3,1.7-9.5c1.8-24.7,3.6-49.4,5.2-74.2c0.4-6.3-0.1-12.8,1-19c0.4-2.6,3.4-5.7,6-6.9 c6.6-3.1,15.1-1,20.3-9c1.1-1.7,10.1,0.4,14.4,2.6c2.9,1.5,5.7,6.2,5.7,9.6c0.3,10.7-0.8,21.3-1.3,32c15.8,1.3,31.5-12.7,31.6-27.6 c0-4.5,1.6-9.3,0.3-13.3c-1-3.4-4.6-6.8-7.9-8.7c-12.5-7.1-26.3-5.7-39.6-3.6c-14.8,2.3-29.3,6.2-44.1,9.5 c-5.3-10.2-5.2-10.4,4.6-16.3c-1.6-5.3-4.3-10.1-3.9-14.6c0.3-2.7,5.1-6,8.5-7.1c24-7.7,48.3-12.8,73.6-7.1 c20.8,4.7,35.5,16.4,41.7,37.4c0.8,2.8,3.3,5.2,3.8,8c1.4,7,2.1,14.1,4.5,21.6c0.8-5,1.4-10.1,2.5-15c0.8-3.5,2.6-6.7,3.7-10.2 c0.9-2.7,1.8-5.4,2.1-8.2c0.8-7.7,1.4-15.5,1.8-23.2c0.3-5.5,2.1-8.4,8.4-8.5c7.1,0,5.4,4.6,5.6,8.5c0,0.8,0.2,1.5,0.4,3.2 c1.7-5.8,3.1-10.8,4.9-17.1c7.7,6.6,21.3,2.2,24,16.6c3.8-5.3,7.3-10.3,10.9-15.2c4-5.4,9.7-5.7,14.6-0.6c1.2-1,2.5-1.8,3.5-3 c1-1.2,1.7-2.7,3.2-5.2c5.5,5.9,10,10.2,13.7,15c1,1.3,0.4,4.9-0.7,6.6c-5.7,8.9-11.9,17.5-17.9,26.2c-4.2,6-16,6.2-17.3-0.5 c-1.6-7.9-9-6.2-11.7-11c-0.8,0.2-1.6,0.3-2.4,0.5c0.4,4.9,1,9.7,1.1,14.6c0.1,5.2,0.3,10.4-0.4,15.5c-2.8,22.5-5.7,45-8.8,67.4 c-1.9,14-3.9,28-6.3,41.9c-1.1,6.4-3.6,10.9-12.1,11.2c-8.3,0.3-16.2,3.2-24.5-1.8c-4.7-2.8-7.4-5.6-6.9-10.8 c1.6-18.5,3.4-37,5.3-55.5c1-10.7,2.2-21.3,3.3-31.9C157.5,429.3,156.9,429.2,156.3,429.2z M69.2,402.8c0.2,2.7,0.2,2.7,12,9.4 C82.7,405.9,76.4,401,69.2,402.8z"></path> <path style="fill:#FFFFFF;" d="M311.9,428c5-5.8,9.2-12.3,14.9-16.9c8.2-6.6,25.2-2,31,8.6c4.6,8.3,8,17.6,9.7,26.9 c3.2,17.8,5.3,35.9,6.8,53.9c0.5,6.2-1.3,12.8-3.1,18.9c-0.6,2-4,3.8-6.5,4.4c-6,1.4-12.3,3.1-18.3,2.6c-7.2-0.6-14.3-3.4-21.3-5.3 c-1.5-20.4,7.7-40.3-1.4-60.9c-7.2,8-8.7,17-9,26.5c-0.3,10.5-0.5,21.1-1.6,31.5c-0.2,2.2-4.2,5.5-6.6,5.7 c-10,0.8-20.1,0.9-30.1,0.6c-7.7-0.2-6.9-7.6-7-11.7c-0.3-16.5,0.4-33.1,1-49.7c0.5-12.9,1.2-25.8,2.1-38.7 c0.7-10.8,5.6-17.6,16.1-19.8c6.6-1.4,14.1-1.5,20.5,0.3c8.5,2.4,3.6,10.4,4.1,16.1C313.3,423.3,312.3,425.8,311.9,428z"></path> <path style="fill:#FFFFFF;" d="M604.9,462.7c0.8,27.5-10.8,46.7-34.8,57.6c-9,4.1-18.6,5.3-29.4,3.3c-43.3-7.9-59.1-65-32.7-97.1 c17.2-20.8,38-25.5,63.8-17.4c8.6,2.7,14.3,6,19,12.4C600,434.1,605.6,447.9,604.9,462.7z M554.8,445c-12.6-5.8-18.8-3.4-22.7,8.3 c-0.4,1.2-0.8,2.5-1.1,3.7c-3.4,15.4,10.6,31.4,24.9,28.6c8.9-1.7,17-12.2,17.7-22.9c0.7-10.5-4.8-19.6-14-23 C558.2,441.3,556.6,443,554.8,445z"></path> <path style="fill:#FFFFFF;" d="M210.8,411.1c5.5,0,10.4,0,15.8,0c2.2-11.5,11.5-7.9,18.6-8.2c5.8-0.3,13-1.9,15.5,6.5 c0.6,1.9,1.3,3.9,1.3,5.9c1.2,31,2.4,62.1,3.5,93.1c0.2,4.6,0.3,9.4-0.6,13.9c-0.4,2.3-2.8,5.6-4.7,6c-6.8,1.3-13.8,6.1-20.6-1.6 c-2.3-2.6-8.3-1.9-12.6-2.6c-10.5-1.7-12.9-3.8-13.4-14.5c-1.5-30.2-2.6-60.5-3.8-90.7C209.7,416.4,210.4,413.9,210.8,411.1z"></path> </svg> 