<?xml version="1.0" encoding="UTF-8"?> <svg xmlns="http://www.w3.org/2000/svg" xmlns:xlink="http://www.w3.org/1999/xlink" version="1.1" id="Layer_1" x="0px" y="0px" viewBox="0 0 1000 1000" style="enable-background:new 0 0 1000 1000;" xml:space="preserve"> <path style="fill:#FFFFFF;" d="M943.3,492.5c-4.1-4.6-6.1-6.8-8.1-9c-22-25.8-56-24.5-75.9,2.8c-25.3,34.7-26.2,98.5-1.8,133.4 c13.3,19.1,35.2,26.2,54,17c3.1-1.5,6.7-5.6,7-8.8c1-8.8,0.4-17.8,0.4-26.8c0-13.2,0-26.4,0-40.8c-11.4,0-22.2,0-33.6,0 c0-14.3,0-27.3,0-41.1c27.9-1.1,55.5-2.2,85.2-3.3c-1.7,13.1-3.8,23.8-4.3,34.6c-0.6,15.3-1.6,30.9,0.4,45.9 c2.6,20-6.2,34.1-18.7,47.6c-39.2,42.2-100.7,39-135.4-7.1c-6.2-8.2-13.1-15.8-19.7-23.6c-9-10.7-9.9-24-10.9-36.9 c-3.5-43.8,3.3-85.3,32.3-120.3c25.8-31.1,62.3-51.8,106-34.2c1.3,0.5,2.6,1,3.9,1.6c13.4,5.7,22.2,13.6,19.6,30.5 C941.9,465.4,943.3,477.6,943.3,492.5z"></path> <path style="fill:#FFFFFF;" d="M530.7,672.5c-16.5,0-33.6,0-52.3,0c0-29.4,0-58.4,0-88.1c-20.4,0-39.3,0-59.5,0 c0,28.6,0,57.7,0,87.6c-18.9,0-36.6,0-52.9,0c3.3-68.6,5.1-137.1-2.4-206.3c18.3,0,35.7,0,54.2,0c0,26.8,0,53,0,80 c20.3,0,39.5,0,59.9,0c0-26,0-52.2,0-79.3c18.6,0,35.9,0,55.2,0C525.6,534.7,526.5,603,530.7,672.5z"></path> <path style="fill:#FFFFFF;" d="M652.8,559.5c0,38.2,0,73.7,0,109.8c-10.7,0-20.5,0-29.6,0c0-34,0.4-68-0.1-101.9 c-0.6-33.6-2.1-67.2-3.3-101.5c15.3-1.4,29.4-3.1,40.9,14.1c15.1,22.7,34.3,42.6,51.2,64.2c7.1,9.1,12.7,19.5,19,29.3 c1.5-0.5,3.1-1.1,4.6-1.6c-1.3-35.9-2.7-71.7-4.1-108.6c10.9-0.8,22.5-1.7,35.3-2.7c0,70.8,0,140.5,0,210.1 c-18.6,4.6-21.5,2.1-32.2-12.5c-14.7-20.1-31.2-38.9-47.1-58.1C676.8,587,665.7,574.5,652.8,559.5z"></path> <path style="fill:#FFFFFF;" d="M28.1,413.7c25.8,1.7,50.3,3.3,74.9,4.9c12.8,0.8,25.7,2.2,38.5,2.3c7.6,0.1,9.7,3.1,10.1,10.1 c1.8,31.2,1.9,31.3-28.8,30.4c-10.7-0.3-21.4-1.1-32.9-1.7c0,19.1,0,38.2,0,58.2c12.2,0.6,24.5,1.2,37.4,1.8c0,13.7,0,26.4,0,40.1 c-12.2,0-24.5,0-38,0c0,37.9,0,74.8,0,112.4c-21.4,0-41.6,0-59.6,0c1-21.5,2.7-42.5,3-63.6c0.5-43.2,0.6-86.4,0-129.6 c-0.2-15.9-3.1-31.7-4.5-47.6C27.7,425.8,28.1,420.1,28.1,413.7z"></path> <path style="fill:#FFFFFF;" d="M261.3,512.8c2.3,3.1,4.2,7.1,7.3,9.8c12.8,10.9,26,21.5,39.1,32c7.8,6.2,16.5,11.4,23.6,18.3 c35,34,23.3,80.2-23.5,94.6c-28,8.6-60.6,0.4-76-18.2c-6.2-7.5-8.4-14.1-1.8-22.2c2.4-2.9,4-6.5,6.8-11.2c2.7,5.1,4.4,8.7,6.5,12.2 c10.9,18.5,32.7,26.3,52.7,19.1c9.9-3.5,13.3-12,6.5-19.8c-7.4-8.4-16.4-15.6-25.3-22.6c-14.3-11.1-29.8-20.6-43.5-32.4 c-11.4-9.8-17.3-23.4-16.1-38.9c1-12.6,0.4-25.9,4.5-37.5c9-24.9,30.5-33.9,55.2-34.4c16.8-0.4,33.5,3.4,47.5,13.8 c2.4,1.8,5,5.3,5.1,8.1c0.6,12.8,0.5,25.7,0.3,38.5c0,2.1-1.8,4.1-2.7,6.1c-1.9-1.3-4.7-2.1-5.6-3.9c-6-11.3-15-18.7-27.1-22.8 C281.3,497.1,270.8,500.4,261.3,512.8z"></path> <path style="fill:#FFFFFF;" d="M208.4,672.1c-17.8,0-35.2,0-51.4,0c3.9-71.1,4.9-141.7-1.9-212.5c18,0,35,0,53.3,0 C208.4,531,208.4,601.3,208.4,672.1z"></path> <path style="fill:#FFFFFF;" d="M546.7,672.3c6.2-68.8,7.2-136.8-2.5-205.8c18.5,0,35.8,0,54,0c0,68.2,0,136.7,0,205.8 C580.8,672.3,563.7,672.3,546.7,672.3z"></path> <path style="fill:#FFFFFF;" d="M366.2,317.4c17.8,0,35.5-1.8,52.6,0.4c28.2,3.6,43.3,33.1,29.9,57.9c-4.4,8.2-13.8,13.7-20.2,19.8 c8.8,12.7,17.9,26,27.9,40.4c-17.1,2.1-30.9,2.7-39.6-14.1c-4.3-8.3-11.6-15.1-19.4-25c0,14.6,0,26.6,0,39.6c-11.2,0-21,0-31.3,0 C366.2,396.9,366.2,357,366.2,317.4z M396.1,387.7c8-3.2,17.7-4.1,21.4-9.2c7.9-10.9,10.2-24.4,2.5-37c-5.1-8.4-13.6-10.3-23.9-8.5 C396.1,350.3,396.1,366.9,396.1,387.7z"></path> <path style="fill:#FFFFFF;" d="M210.5,435.3c-8.6,0-16.8,0-25.9,0c0-39.4,0-78.6,0-119.5c19,0.9,38.3,0.6,57.2,3.2 c15.9,2.1,26,13.4,27.6,26c1.8,14.6-5,28.3-19,33.7c-7.7,2.9-16.8,3.3-25.1,2.7c-11.1-0.7-14.5,3-13.7,13.8 c0.9,12.4,0.1,24.9,0,37.4C211.6,433.2,211.1,433.8,210.5,435.3z M214.2,330.9c0,13.2,0,26.5,0,39.8c19.3,0.8,28.1-5.7,27.9-20.3 C242,335.9,232.5,329.1,214.2,330.9z"></path> <path style="fill:#FFFFFF;" d="M334.2,364.6c0,4.1,0,7.2,0,11.3c-7.5,0-14.8,0-22.9,0c0,16.4,0,31.9,0,48.4c14.3,0,28.4,0,42.5,0 c2.9,9.3,1.2,13.2-8.9,12.9c-21-0.6-42.1-0.2-63.2-0.2c0-40.2,0-79.5,0-119.8c19.5,0,39.5-0.3,59.5,0.3c2.6,0.1,5,4.7,7.6,7.2 c-0.7,1.1-1.3,2.1-2,3.2c-11.6,0-23.3,0-35.6,0c0,12.7,0,24.2,0,36.7C319.1,364.6,326.4,364.6,334.2,364.6z"></path> <path style="fill:#FFFFFF;" d="M615.6,435.7c-24.3,0-48.2,0-71.8,0c0-39.5,0-78.5,0-118c20.7,0,42.1,0,64.3,0c0,3.2,0,6.4,0,10.8 c-11.5,0-22.8,0-34.8,0c0,12.3,0,23.5,0,35.8c7.6,0,14.9,0,23.1,0c0.3,4.4,0.5,7.7,0.7,12.1c-8.3,0-15.7,0-24.1,0 c0,16,0,31.2,0,47.7c13.9,0,28,0,42.5,0C615.6,428.6,615.6,431.9,615.6,435.7z"></path> <path style="fill:#FFFFFF;" d="M706.9,411.3c4,12.9-1.8,19.4-11.9,24.1c-20.5,9.6-44.6,3.1-60.2-16.4 c-23.4-29.4-14.1-78.5,18.5-97.3c11.9-6.9,24.6-6.6,37.4-3.2c9.7,2.6,14.6,8.3,10.5,19.4c-1.6-0.7-3.1-1.4-4.6-2.1 c-15.8-7.8-29.9-3.4-37.2,12.6c-8.6,18.9-9.6,38.4-1.3,57.8C667.3,427.7,686.4,429.9,706.9,411.3z"></path> <path style="fill:#FFFFFF;" d="M774.8,436.4c-8.1,0-17.3,0-27.6,0c0-35,0-69.8,0-105.8c-12,0-22.9,0-34.3,0c0-5,0-8.8,0-13.1 c31.5,0,62.5,0,94.4,0c0,3.9,0,7.9,0,13.2c-10.6,0-21.1,0-32.5,0C774.8,366.6,774.8,401.3,774.8,436.4z"></path> <path style="fill:#FFFFFF;" d="M498.3,436.1c-10.3,0-19.1,0-28.7,0c0-39.1,0-78.2,0-118.2c19.1,0,39,0,60.2,0 c0.2,2.7,0.4,6,0.6,10.2c-10.8,0-20.7,0-31.5,0c0,12.4,0,23.9,0,36.1c6.2,0,12.1,0,19.3,0c0.2,4.3,0.4,7.9,0.6,12.4 c-7.1,0-13.1,0-20.6,0C498.3,396.7,498.3,416.1,498.3,436.1z"></path> </svg> 