<?xml version="1.0" encoding="UTF-8"?> <svg xmlns="http://www.w3.org/2000/svg" xmlns:xlink="http://www.w3.org/1999/xlink" version="1.1" id="Layer_1" x="0px" y="0px" viewBox="0 0 1000 1000" style="enable-background:new 0 0 1000 1000;" xml:space="preserve"> <path style="fill:#FFFFFF;" d="M16.7,637c8.3-38.9,16.3-76.9,24.4-114.9c0.2-1,0.8-1.9,1.4-3.3c32.7,0,65.4,0,98.1,0 c32.5,0,65-0.1,97.5-0.1c20.1,0,40.2,0.1,60.2,0c88-0.3,176-0.8,263.9-1c36.1-0.1,72.3,1.1,108.4,0.9c89.1-0.3,178.2-0.9,267.2-1.6 c6.5-0.1,13-1.8,20.8-2.9c-8.4,41.5-16.7,82.1-25,122.9C628.2,637,322.8,637,16.7,637z M321.2,613.2c31.4-0.3,47.7-13.1,54.1-42.9 c2.3-10.6-6.6-27.4-16.8-29.5c-9.7-2-19.9-3.8-29.7-3.1c-17.1,1.2-33.1,7-42,23c-12.1,21.8-7.5,45.2,20.5,50.7 C311.8,612.4,316.5,612.7,321.2,613.2z M117.2,583.1c-1.5,15,9.7,24.4,20.4,27.7c5.7,1.7,11.7,2.6,17.7,3 c29.2,1.8,49.2-12.9,54.2-41.1c2.5-13.9,1.1-22.6-14-29.6c-11.6-5.4-23.7-6.1-35.8-4C135.2,543.2,117.2,557.3,117.2,583.1z M856.1,609.2c3.3-18.2,6.3-35.3,9.5-52.5c0.7-3.6,1.3-7.4,6.6-7c6.3,0.5,13.4-2.5,18.1,4c1,1.4,0.6,5.3-0.6,6.4 c-3.5,3.2-7.5,5.9-11.7,7.9c-2.3,1.1-5.5,0.4-8.8,0.6c2.7,13,5.2,25.4,8,37.7c0.3,1.3,2.4,2.9,3.8,3c7.2,0.3,14.4,0.1,23.5,0.1 c-3.5-8-6.1-14.2-8.9-20.4c-4.8-10.9-4.9-11,5.7-16c9.3-4.5,12.4-13,13.6-22.1c0.9-7.1-5.8-14.1-13.2-14.3 c-16.9-0.6-33.9-0.9-50.8-0.8c-1.9,0-5,3.3-5.4,5.5c-2.4,11.5-4.1,23.2-6.2,34.9c-2,11-4.3,21.9-6.5,33.1 C841,609.2,848.5,609.2,856.1,609.2z M544.8,611.1c5.1,0,10.3-0.2,15.5,0.1c4.3,0.2,6-1.6,6.8-5.6c3-14.9,6.7-29.6,9.2-44.6 c1.4-8.9,6.2-11,14-10.1c1.6,0.2,3.1,0.3,4.7,0.5c7.2,1.1,10,7.2,4.5,12c-4.6,4.1-11.3,5.7-18.5,9.1c2.5,11.3,5.4,24.8,8.3,38.5 c6.4,0,12.1,0,17.9,0c4.2,0,5.6-1.5,4.1-5.7c-2.2-6.2-4.1-12.5-5.9-18.9c-1.5-5.5-0.8-9.8,5.9-12.1c11.9-4.2,13.8-14.6,13.9-24.5 c0.1-5.5-3.5-10.9-9.9-11.2c-17.6-0.9-35.3-1.3-53-1.6c-1.6,0-4.3,2.3-4.6,4C553.3,564.2,549.1,587.4,544.8,611.1z M832.7,535.8 c-20,0-39.3-0.1-58.7,0.2c-1.9,0-5.2,2.7-5.6,4.6c-4.7,22.9-8.9,45.8-13.2,68.7c20.6,0,41.6,0,62.9,0c0.8-4.8,1.6-9,2.5-14.3 c-14.1,0.6-26.9,1.2-39.8,1.8c0.5-15.5,1.9-17,15.8-17c5.5,0,11,0.3,16.5-0.2c1.8-0.1,4.5-1.7,5.1-3.3c1.3-3.2,1.4-6.9,2.2-11.1 c-11.4,0-22.2,0-33.1,0c1.8-15.1,1.9-15.2,16.1-15.2c4.2,0,8.4,0,12.6,0C829.9,550,829.9,550,832.7,535.8z M468.3,551.6 c0.3-2.1,1.3-5,1.1-8c-0.1-2.1-1.6-5.8-2.8-5.9c-12.8-1.7-25.8-3.1-37.7,3.1c-13,6.8-15.7,20.7-5.2,30.8c3.5,3.4,7.7,6.3,10.6,10.2 c2.4,3.2,5.7,9,4.4,10.9c-2.1,3.2-7.4,5.5-11.6,5.9c-6,0.5-12.2-1.1-18.8-1.9c0,4.6,0,9.2,0,13.8c4.2,0.7,8.3,1.6,12.4,1.9 c11.2,0.7,22.5,1.2,32.6-5.4c9.9-6.5,12.5-21.4,4.7-29.1c-4.1-4.1-9.2-7.1-13.1-11.3c-2.2-2.4-4.9-6.6-4.1-9 c0.8-2.6,5.2-5.3,8.3-5.7C454.9,551,461.2,551.6,468.3,551.6z M52.8,597.8c0,3.6-0.4,7,0.2,10.3c0.3,1.6,2.2,4.1,3.4,4.2 c11.1,0.2,22.5,1.4,33.3-0.7c10.8-2.1,19.3-10,16.3-22.6c-1.6-6.6-8.1-12.1-12.4-18c-2.9-3.9-5.9-7.6-8.9-11.5 c4.7-2.1,9.2-5.1,14.2-6c4.5-0.9,9.5,0.5,13.8,0.9c0.6-5.2,1.2-9.9,1.7-14.6c-1.8-0.2-3.6-0.4-5.3-0.5c-12.9-0.5-26.1-2.8-37.8,5.3 c-10.5,7.2-12,18.7-3.2,27.7c3.6,3.7,7.7,7,10.9,11c2.3,3,5.8,8.5,4.7,10c-2.3,3.3-7.1,6.2-11.2,6.5C66.3,600.4,60,598.7,52.8,597.8 z M552.1,537.3c-19.8,0-39.4,0-59,0c-13.9,0-13.9,0-17.1,14.6c8.3,0,16.5,0,25.2,0c-4.3,20.3-8.3,39.5-12.4,59.2 c6.2,0,12,0.4,17.7-0.2c2-0.2,4.8-2.8,5.2-4.8c3.6-15.9,6.7-31.8,10-47.8c1-4.6,3.3-7.3,8.7-6.9c6.2,0.4,12.4,0.1,18.1,0.1 C549.9,546,551,541.4,552.1,537.3z M272.6,597.9c-11.8,0-23,0-35.2,0c4.6-20,9-39.2,13.5-58.8c-8,0-15.3,0-22.7,0 c-5.4,24.3-10.7,48.5-16.1,72.9c16.1,0,32,0,47.9,0C271.5,612,272.9,610.4,272.6,597.9z M758.3,535.9c-9.4,0-16.4-0.3-23.4,0.2 c-2.3,0.1-5.1,1.5-6.7,3.2c-8.4,8.9-16.2,18.3-24.7,27.1c-3.1,3.2-3.4,5.8-1.4,9.6c5.3,10.1,10.2,20.5,15.5,30.6 c0.8,1.6,2.7,3.6,4.1,3.6c8.3,0.3,16.5,0.2,25.4,0.2c-8-13.9-15.2-26.4-22.6-39.2C735.1,560.1,745.9,548.8,758.3,535.9z M703,536.6 c-7.1,0-13.4-0.3-19.6,0.2c-1.7,0.1-4.2,2.5-4.6,4.2c-1.8,7.5-2.8,15.2-4.3,22.7c-3.2,15.6-6.5,31.1-9.8,46.9c6.7,0,13,0.4,19.2-0.2 c2.2-0.2,5.7-2.4,6-4.1C694.4,583.5,698.6,560.5,703,536.6z M625.6,610.9c6.1,0,11.3-0.5,16.4,0.1c6.7,0.7,9.6-2,10.3-8.4 c1.3-11.5,2.5-23.1,4.5-34.6c1.8-10.5,4.7-20.9,7.1-31.1c-8.4,0-16.1,0-23.7,0c-2.4,12.5-4.8,24.3-7.1,36.2 C630.7,585.2,628.3,597.3,625.6,610.9z"></path> <path style="fill:#FFFFFF;" d="M293.9,507.6c4.3,0.4,8.7,0.8,13,1.2c-18.8,5-36.9,1.8-55.2-3c-15.2-4-19.9-17.4-28.4-27.5 c-2.9-3.5-10.6-6.9-15.3-6c-1.4,0.3-3.8-1-4.8-2.3c-10.9-14.6-20.5-30-21.2-48.7c-0.7-16.1,0.5-32.3,0.5-48.4c0-2.6-1.8-6.8-3.7-7.5 c-11.7-4.1-23.9-6.1-36.1-2.6c-12.7,3.6-14.8,12-5.5,21.2c5.6,5.5,11.5,10.6,17.4,15.7c24.8,21.2,16.2,47.6-6.7,64.8 c-19.1,14.4-41.6,17.4-64.8,16c-12.2-0.8-24.2-2.7-37.4-4.2c2.8-13.5,5.3-25.8,7.8-38.4c10.6,2.7,20.4,6.3,30.5,7.5 c8,0.9,16.8,0.1,24.6-2.1c9.4-2.6,10.9-9.9,4.3-17.4c-5.9-6.7-12.2-12.9-18.3-19.3c-8.7-9.2-17.8-18.5-14.8-32.6 c3-14.2,11.6-24.8,23.8-32.6c20.4-13,43-13.4,66-11.8c4.2,0.3,8.3,0.8,12.5,1.3c7.1,0.9,14.3,1.7,17.3,11.6 c19-22.7,41.3-37.5,70.6-40.5c-3.5,3.2-7,6.4-10.5,9.7c-5.4,5.1-4.8,8.5,1.1,12.6c7.9,5.6,15.7,9.5,25.8,5.2 c3.7-1.6,8.4-0.8,12.6-1.3c5.6-0.6,11.3-1.3,17.7-2.1c-1.9-7.5-3.9-15.3-5.8-23c28.5-1.2,62.4,30.2,82.8,77.2 c15.6-24.5,38-39.2,65.2-46.9c26.8-7.6,53.6-6.6,81.6-1.5c-1.8,11-3.4,21.7-5.6,32.3c-0.2,0.9-3.6,1.8-5.5,1.6 c-12.2-1.1-24.4-3.4-36.6-3.4c-26.5-0.1-50.7,18.3-57.8,42.6c-6.1,21,5.4,37.9,27.4,38c15.3,0.1,30.6-2.4,45.9-3.7 c2-0.2,4-0.5,7.3-0.9c-3.3,8.6-7,15.9-8.9,23.7c-2.8,11.9-10,16.1-21.6,15.9c-16.7-0.3-33.5,1.3-50.1,0 c-19.5-1.6-36.1-10.2-47.3-25.6c-9.7,11.8-19.4,23.6-29.9,36.3c-1.9-6.2-3.2-10.5-4.1-13.5c-14.3,3.5-27.8,6.8-41.3,10.2 c-1.3,0.3-2.6,1.4-3.5,2.4C304.1,494.2,299.2,500.7,293.9,507.6z M273.6,456.2c7.5,1.3,11.4-1.6,13.7-9c2.9-9.4,6.9-18.5,10.9-27.4 c2.4-5.3,0.9-8.6-3.4-12c-8.4-6.8-16.7-13.7-24.5-21.1c-4.2-4-8.5-4.4-12.9-1.9c-9.5,5.4-19,10.9-28,17.1c-2.3,1.6-4.2,6.2-3.6,9 c2.3,11.6,5.1,23.2,8.8,34.4c1,3.1,5.4,6.4,8.8,7.1C253.3,454.3,263.5,455,273.6,456.2z M371.3,430.1c14.3-7.8,21.6-20.5,19.1-34.2 c-0.8-4.6-1.9-9.2-3-13.7c-4.2-17.3-6.5-19.5-24.2-22c-5.4-0.8-8.5,1.3-9.5,7.2c-1.7,10.1-4.4,20.1-6.4,30.2 c-0.4,1.9,0.5,4.6,1.7,6.1C356.3,412.7,363.8,421.3,371.3,430.1z M197.1,356.9c-9.1,11.8-13.4,27.1-12.7,44.2 c4.7-5.4,10.8-10.8,12.2-17.2C198.5,374.9,197.1,365.1,197.1,356.9z M244,320.1c8.8,5.3,17.1,10.5,25.7,15.3c2,1.1,5,0.6,8.6,1 c-11.8-6.6-22.1-12.4-32.7-18.4C245.4,318.1,244.6,319.3,244,320.1z"></path> <path style="fill:#FFFFFF;" d="M957,474.2c-15.9,0-30.8,0.1-45.7-0.2c-1.6,0-4.1-2.8-4.5-4.6c-4.7-24.2-9.2-48.5-14.1-74.8 c2.5,0,5.6-0.5,8.4,0.1c10.3,2.3,29.6-7.7,33.1-17.5c2.6-7.3,0.1-13.9-7.6-15.1c-10.5-1.6-21.3-1.3-32-1.5c-1.1,0-3,2.1-3.3,3.5 c-6.1,25.1-12.1,50.2-17.9,75.3c-2.6,11.4-4.6,23-6.9,34.9c-15.6,0-30.9,0-46.5,0c4.9-19.5,10.1-38.5,14.4-57.7 c6-26.9,11.4-53.9,16.7-80.9c0.8-3.9,2-5.3,5.9-5.3c30.1,0.1,60.2-0.3,90.3,0.4c7.3,0.2,15,2.7,21.7,5.9 c14.2,6.8,17.1,22.3,12.1,37.3c-6.2,18.7-19.2,28.2-36.1,34.6c-6.2,2.3-6.2,6.6-4.5,11.9c5.3,16.1,10.4,32.2,15.5,48.3 C956.3,469.8,956.4,471.1,957,474.2z"></path> <path style="fill:#FFFFFF;" d="M832.9,330.9c-2.3,9.4-4.2,18.4-7,27c-0.6,1.9-4.5,3.8-6.9,3.8c-21.2,0.3-42.4,0.2-63.7,0.2 c-1.8,0-3.6,0.2-5.6,0.3c-1.9,7.2-3.8,14.2-6,22.1c21,0,42.2,0,64.9,0c-3.5,10.8-6.8,21-10.6,32.6c-3.1,0-7.5-0.1-11.9,0 c-15.2,0.3-30.4,0.7-45.6,0.9c-4.8,0.1-7.6,1.9-8.7,6.8c-1.4,6.4-3.4,12.7-5.6,20.8c26.6-0.8,51.9-1.6,78.5-2.4 c-2.5,10.6-4.7,20.2-7.2,31.2c-41.1,0-83.8,0-127.3,0c3.6-12.3,7.8-24.8,11-37.5c8.3-33.1,16.2-66.2,24.2-99.4c1-4,1.6-7.1,7.2-7 c39,0.2,78.1,0.1,117.1,0.1C830.5,330.3,831.3,330.6,832.9,330.9z"></path> <path style="fill:#FFFFFF;" d="M661.5,438.9c-4.3,11.7-8.4,23-13,35.7c-27,3.7-55.4,7.7-83.1-2.4c-31.9-11.7-43.8-39.1-32.3-73.1 c13.6-40.1,44-60.1,83.6-68.4c22.8-4.7,45.7-3.1,68.9,1.4c-1.7,11-3.2,21.5-4.9,32.9c-9.5-1.3-18.7-2.6-27.8-3.7 c-30.9-3.8-58.2,11.1-70.4,39.3c-2.3,5.3-0.9,12-1.8,18c-1.3,9.4,1.6,17.3,9.4,21.6c11.5,6.3,23.8,8,36.7,5.5 C638.4,443.4,650.1,441.2,661.5,438.9z"></path> <path style="fill:#FFFFFF;" d="M324.1,596.9c-7.5,0.7-13.8-2.4-17.4-10.3c-4.2-9-1.5-17.6,4.5-23.8c5-5.1,12.3-9.2,19.2-10.7 c13.2-2.8,22.1,6.5,21.1,20C350.5,585.9,338.7,597,324.1,596.9z"></path> <path style="fill:#FFFFFF;" d="M141,580.1c-1.9-14.8,13.2-27.9,28.4-27.9c12.6,0,20,9.5,17.7,22c-3.4,17.9-19.2,28.1-34.9,22.7 C143.8,594,141.1,590,141,580.1z"></path> </svg> 