<?xml version="1.0" encoding="UTF-8"?> <svg xmlns="http://www.w3.org/2000/svg" xmlns:xlink="http://www.w3.org/1999/xlink" version="1.1" id="Layer_1" x="0px" y="0px" viewBox="0 0 1000 1000" style="enable-background:new 0 0 1000 1000;" xml:space="preserve"> <g> <path style="fill:#FFFFFF;" d="M224.9,565.6V177.4h117.3l70.4,264.8l69.6-264.8h117.6v388.2H527V260l-77,305.5h-75.5L297.7,260 v305.5H224.9z"></path> <path style="fill:#FFFFFF;" d="M677.1,246.2v-68.8h74.4v68.8H677.1z M677.1,565.6V284.4h74.4v281.2H677.1z"></path> </g> <g> <path style="fill:#FFFFFF;" d="M232.2,820.6V684.8h41.7l25,92.7l24.8-92.7h41.8v135.8h-25.9V713.7l-27.4,106.9h-26.8l-27.3-106.9 v106.9H232.2z"></path> <path style="fill:#FFFFFF;" d="M393,708.9v-24.1h26.5v24.1H393z M393,820.6v-98.4h26.5v98.4H393z"></path> <path style="fill:#FFFFFF;" d="M537.6,820.6h-26.5v-50.2c0-10.6-0.6-17.5-1.7-20.6c-1.1-3.1-3-5.5-5.5-7.3 c-2.5-1.7-5.6-2.6-9.2-2.6c-4.6,0-8.7,1.2-12.3,3.7c-3.6,2.5-6.1,5.7-7.5,9.8c-1.4,4.1-2,11.6-2,22.6v44.6h-26.5v-98.4H471v14.5 c8.7-11.1,19.7-16.7,33-16.7c5.8,0,11.2,1,16,3.1c4.8,2.1,8.5,4.7,11,7.9c2.5,3.2,4.2,6.9,5.2,10.9c1,4.1,1.5,9.9,1.5,17.5V820.6z"></path> <path style="fill:#FFFFFF;" d="M622.3,789.3l26.4,4.4c-3.4,9.5-8.7,16.8-16.1,21.7c-7.3,5-16.5,7.5-27.5,7.5 c-17.4,0-30.3-5.6-38.6-16.8c-6.6-9-9.9-20.3-9.9-33.9c0-16.3,4.3-29.1,13-38.3c8.7-9.2,19.6-13.9,32.9-13.9 c14.9,0,26.6,4.8,35.2,14.5c8.6,9.7,12.7,24.5,12.3,44.4h-66.3c0.2,7.7,2.3,13.7,6.4,18c4.1,4.3,9.2,6.4,15.3,6.4 c4.1,0,7.6-1.1,10.5-3.3S620.9,794.2,622.3,789.3z M623.9,763c-0.2-7.5-2.2-13.3-5.9-17.2c-3.8-3.9-8.4-5.9-13.7-5.9 c-5.8,0-10.5,2.1-14.3,6.2c-3.8,4.1-5.6,9.8-5.6,16.9H623.9z"></path> <path style="fill:#FFFFFF;" d="M662.4,792.5l26.6-4c1.1,5.1,3.4,8.9,6.9,11.5c3.5,2.6,8.3,3.9,14.5,3.9c6.8,0,12-1.2,15.4-3.7 c2.3-1.7,3.5-4,3.5-6.9c0-2-0.6-3.6-1.9-4.9c-1.3-1.2-4.3-2.4-8.9-3.4c-21.3-4.6-34.9-8.9-40.6-12.7C670,767,666,759.7,666,750.2 c0-8.5,3.4-15.7,10.3-21.5c6.8-5.8,17.5-8.7,31.8-8.7c13.7,0,23.9,2.2,30.5,6.6c6.7,4.4,11.2,10.9,13.7,19.5l-25,4.5 c-1.1-3.8-3.1-6.8-6.1-8.8c-3-2-7.2-3.1-12.8-3.1c-7,0-12,1-15,2.9c-2,1.4-3,3.1-3,5.3c0,1.9,0.9,3.4,2.6,4.7 c2.4,1.7,10.6,4.2,24.7,7.3c14.1,3.2,23.9,7,29.5,11.6c5.5,4.6,8.3,11.1,8.3,19.4c0,9-3.8,16.8-11.5,23.3c-7.7,6.5-19,9.7-34,9.7 c-13.6,0-24.4-2.7-32.3-8.2C670,809.3,664.8,801.9,662.4,792.5z"></path> </g> </svg> 