<?xml version="1.0" encoding="UTF-8"?> <svg xmlns="http://www.w3.org/2000/svg" xmlns:xlink="http://www.w3.org/1999/xlink" version="1.1" id="Layer_1" x="0px" y="0px" viewBox="0 0 1000 1000" style="enable-background:new 0 0 1000 1000;" xml:space="preserve"> <path style="fill:#FFFFFF;" d="M930.9,472.5c-21.1,54.1-85.1,79.9-140.4,56.2c-3.8-1.6-8.5-5.9-9.2-9.6c-4-21.6-6.8-43.3-10.2-66 c60,14.9,60,14.9,79.9,6c-9.8-2.9-15.5-5.5-21.4-6.2c-49.3-6-74.2-28.1-75.6-67.7c-1.5-40.5,25.5-69.2,72.4-77.1 c2.6-0.4,5.1-2,7.6-3c8.4,0,16.9,0,25.3,0c8.1,1.8,16.5,2.7,24.1,5.8c5.6,2.3,13.4,6.8,14.4,11.6c4.4,20.8,6.6,42,9.6,62.8 c-23.8-2.4-45.4-4.6-67.1-6.8c-1.1,3.2-2.2,6.5-3.3,9.7c41.4,5.4,82.5,11.1,94,59.1C930.9,455.8,930.9,464.1,930.9,472.5z"></path> <path style="fill:#FFFFFF;" d="M55.9,429.5c4.8-2,6.1-2.7,7.4-3.1c45.4-12.3,88.1-15.9,112.1,40.9c4.4-7.6,6.7-10.1,7.3-12.8 c11.2-53.6,51.8-59.2,98.5-58.3c10.9,71.5,22,143.5,33.3,217.7c-27.8,4.3-53.7,8.2-81.4,12.5c-5.4-34.1-10.5-65.9-16.2-101.8 c-9.7,19.1-17.5,34.5-26.9,53.1c-11.5-14-22-26.7-32.6-39.5c-2.5,1.3-4.9,2.6-7.4,3.9c4.4,30.8,8.9,61.6,13.7,94.9 c-24.2,3.8-47.4,7.4-73.5,11.5C78.6,574.7,67.2,502.2,55.9,429.5z"></path> <path style="fill:#FFFFFF;" d="M416.6,598.4c-11.3-69.8-21.9-136.4-32.9-202.9c-2.2-13.3,4.1-20,15.9-22.2 c11.6-2.2,23.9-5.3,35.3-3.7c12,1.8,25.9,6,34.4,13.9c19.2,18,35.7,38.9,55.7,61.4c-4.5-30.3-8.6-57.6-12.9-86.6 c25.2-3.9,48.4-7.5,74.2-11.5c11.4,74,22.6,146.4,34,220.2c-22,3.6-41.8,8.3-61.8,9.4c-7.9,0.4-18.2-5.4-24-11.6 c-19-20.2-36.4-41.9-57.4-66.5c4.6,32.1,8.6,59.2,12.8,88.5C464.4,590.9,440.8,594.6,416.6,598.4z"></path> <path style="fill:#FFFFFF;" d="M692.5,416.8c15.5-1.6,30.9-3.1,48.4-4.9c2.7,17.7,5.2,33.9,8.1,52.6c-16.1,3.3-31.1,6.4-46.2,9.4 c0.3,2,0.5,4.1,0.8,6.1c19.8-2.6,39.7-5.2,62-8.1c3.7,23.6,7.3,46.5,11.3,72.1c-49,7.5-96.3,14.7-145.9,22.4 c-11.5-74.2-22.7-146-34.3-220.5c47.4-7.8,93.3-15.3,142-23.3c3.9,24,8.1,46.3,10.6,68.7c0.4,3.2-6.8,9.5-11.4,10.5 c-15.3,3.6-30.9,5.5-46.4,8C691.9,412.1,692.2,414.4,692.5,416.8z"></path> <path style="fill:#FFFFFF;" d="M407.6,599.8c-28.2,4.3-54.2,8.3-82.1,12.5c-7.9-50.7-15.5-99.2-23-147.8c-3-19.2-5.5-38.5-8.9-57.6 c-2.1-11.8,2.5-17,13.9-17.7c1.4-0.1,2.8-0.3,4.2-0.5c63.6-9.3,63.2-9.2,72,53.5C390.9,493.8,399.3,545.1,407.6,599.8z"></path> </svg> 