<?xml version="1.0" encoding="UTF-8"?> <svg xmlns="http://www.w3.org/2000/svg" xmlns:xlink="http://www.w3.org/1999/xlink" version="1.1" id="Layer_1" x="0px" y="0px" viewBox="0 0 1000 1000" style="enable-background:new 0 0 1000 1000;" xml:space="preserve"> <path style="fill:#FFFFFF;" d="M611.2,404.9c1,0.4,2.1,0.8,3.1,1c11.6,2.3,21,8,28,17.5c15.7,21.4,14.7,58.4-2,79.1 c-20.1,24.8-59,22.2-75.5-5.1c-13.7-22.7-10.9-57.5,6.1-77.3c6.6-7.7,15-12.3,25-14.3c1.1-0.2,2.1-0.7,3.2-1 C603.2,404.9,607.2,404.9,611.2,404.9z M637.5,468.3c-0.1-16.7-1.8-29.4-9-40.7c-12.3-19.3-39.6-18.2-50.3,1.9 c-4.5,8.5-6,17.7-6.2,27.3c-0.2,13.9,1.2,27.4,8.6,39.6c6,9.8,14.9,15,26.6,14.3c11.7-0.7,19.8-6.8,24.9-17.2 C636.6,484.4,637.5,474.6,637.5,468.3z"></path> <path style="fill:#FFFFFF;" d="M512.3,404.9c6.1,1.3,12.3,2.7,18.4,3.8c2.8,0.5,3.8,1.7,3.6,4.6c-0.4,7.4-0.3,14.9-0.7,22.3 c-0.1,1.3-2.1,2.5-3.2,3.8c-1.1-1-2.7-1.8-3.3-3.1c-0.8-1.7-0.8-3.9-1.3-5.8c-3.9-13.4-16.1-19.6-31.9-16.2 c-11.2,2.4-19.5,8.8-23.7,19.3c-7.7,19.5-7.4,39.2,1.8,58.1c7.8,16.1,23.8,22.4,41,17.5c4.9-1.4,7.8-3.6,7.2-9.3 c-0.5-5.2-0.1-10.6-0.1-15.8c-0.1-7.2-1.8-9.1-8.9-9.8c-2.1-0.2-4.3-0.4-6.8-0.7c0-2.1,0-3.9,0-6c1-0.1,1.9-0.3,2.9-0.3 c11.5,0,22.9,0,34.7,0c0.2,2.1,0.3,3.8,0.5,5.5c-8.2,2.9-8.6,3.3-8.8,12.2c-0.2,9.2,0,18.4,0,28.1c-13.5,4.7-27.6,8.3-42.5,5.6 c-23.7-4.3-40.6-23.6-41.7-48.3c-0.4-9,0-18.4,2.4-26.9c5.9-21.5,21-33.7,43.1-37.4c1.4-0.2,2.8-0.7,4.3-1 C503.6,404.9,507.9,404.9,512.3,404.9z"></path> <path style="fill:#FFFFFF;" d="M816,404.9c5.4,1.4,10.8,2.9,16.1,4.3c0,9.1,0,17.9,0,26.5c-5.6,2.7-6.5,2.3-7.3-2.7 c-1.8-11.1-6.5-17-15-18.7c-8.9-1.8-16.4,3.3-17.9,12.2c-1.7,10,1.7,17.3,10.5,22.6c6.1,3.6,12.7,6.6,18.6,10.6 c23.1,15.4,17.1,45.9-1.5,55.8c-9.9,5.3-20.2,4.8-30.6,2.2c-10-2.5-9.9-2.5-11.1-12.7c-0.8-6.5-2.1-13-3.2-19.9 c2-0.6,3.8-1.2,5.9-1.8c2,4.7,3.6,9.4,5.8,13.8c3,6.1,7.2,11.2,14.3,12.9c13.9,3.3,24.4-8.7,20.8-23.5c-1.6-6.5-5.8-11-11.5-14.3 c-5.9-3.4-12-6.4-17.7-10.2c-15.3-10.2-19.5-29-10-43.4c4.3-6.6,10.5-10.4,18-12.3c1.2-0.3,2.4-0.8,3.6-1.2 C808,404.9,812,404.9,816,404.9z"></path> <path style="fill:#FFFFFF;" d="M245.8,511.3c0.1,0.7,0.3,1.6,0.2,2.4c-0.1,1-0.3,1.9-0.5,3.1c-10.5,0-20.9,0-31.7,0 c-0.1-1.8-0.3-3.5-0.4-5.1c0.5-0.4,0.8-0.6,1.1-0.7c9.5-1.8,11-0.4,11.8-15.6c0.9-16.6,1.2-33.3,1.7-50c0.2-5.1,0.5-10.2,0.5-15.3 c-0.1-11.8-2.2-14.2-13.9-16.5c0-1.9,0-3.8,0-5.9c8,0,15.8-0.2,23.5,0.2c1.1,0,2.6,2.1,3.2,3.6c10.1,26.2,20.1,52.4,30.1,78.6 c0.5,1.2,1,2.4,1.7,4.2c0.8-1.9,1.5-3.1,2-4.5c9.5-26,19.1-52.1,28.5-78.1c1.1-3,2.5-4.1,5.7-4c6.8,0.2,13.6,0.1,21.1,0.1 c0.2,1.6,0.4,3.5,0.7,5.1c-0.6,0.4-0.8,0.8-1.1,0.8c-11.3,1.8-11.7,2.2-11.5,13.6c0.5,23.9,1.2,47.8,1.8,71.8 c0.2,9.5,0.8,10.2,10.4,11.5c0.8,0.1,1.6,0.3,2.6,0.5c0,1.9,0,3.6,0,6c-11.5,0-22.9,0.1-34.4-0.2c-1.1,0-2-3.2-3.2-5.1 c10.9-3.1,10.9-3.1,10.9-13.4c0-21,0-41.9,0-62.9c-0.7-0.1-1.4-0.2-2-0.3c-0.6,1.4-1.3,2.7-1.8,4.1c-9,24.6-18.1,49.3-26.8,74 c-1.5,4.3-3.7,5.8-8.2,5.3c-10.1-26.1-20.2-52.4-30.3-78.6c-0.6,0-1.2,0.1-1.8,0.1c0,7.9,0.1,15.9,0,23.8 c-0.2,10.6-0.7,21.1-0.9,31.7C234.5,507.8,234.6,507.8,245.8,511.3z"></path> <path style="fill:#FFFFFF;" d="M24.3,413.7c0.2-2.2,0.3-3.9,0.6-6.3c2.3,0,4.4,0,6.5,0c9.3-0.2,18.6-0.9,27.9-0.6 c8.9,0.3,18.1,0.5,26.6,2.8c18,4.8,28.7,17.3,32,35.5c2.3,12.9,1.7,25.7-3.2,38c-8.5,21.6-24.5,34-47.9,35.2 c-13.7,0.7-27.5-0.9-41.7-1.5c-0.1-1.6-0.3-3.4-0.4-4.9c0.6-0.4,0.8-0.7,1.1-0.7c10.7-1.7,11.2-2.3,11.2-13c0-24.3,0-48.5,0-72.8 c0-9.9,0-9.9-10.1-11.2C26.2,413.9,25.6,413.8,24.3,413.7z M50.8,460.8c0,0,0.1,0,0.1,0c0,13-0.1,26.1,0.1,39.1 c0.1,6.7,2.1,9,8.8,9.6c12.7,1.1,23.7-2.7,32-12.6c14.3-17,15.3-49.5,2.4-67.5C86,418.1,70,412.3,56.6,415.7c-4.1,1-6.1,2.8-6,7.5 C51,435.7,50.8,448.2,50.8,460.8z"></path> <path style="fill:#FFFFFF;" d="M666.6,413.6c0.3-2.3,0.5-4.1,0.8-7c11.4,0,22.6-0.2,33.9,0.1c8.1,0.2,16.4,0.3,24.2,2.1 c19.9,4.5,31.6,17.4,34.9,37.3c2.5,15.2,1,30-6.4,43.8c-9.2,17-23.5,27.1-42.9,28c-14.3,0.7-28.8-0.7-43.5-1.1 c-0.1-1.9-0.2-3.6-0.3-5.3c12.2-2.9,12.2-2.9,12.2-15.6c0-23.6,0-47.2,0-70.8c0-9.7-0.1-9.8-9.7-11.1 C668.7,413.9,667.9,413.8,666.6,413.6z M693.1,460.9c0.1,0,0.1,0,0.2,0c0,13.2-0.1,26.4,0.1,39.6c0.1,5.9,2.2,8.2,7.9,8.9 c13.1,1.5,24.4-2.3,32.9-12.5c14.1-16.9,15.3-49.1,2.6-67.1c-8.3-11.7-25-17.7-38.4-14c-3.6,1-5.5,2.7-5.4,6.9 C693.3,435.4,693.1,448.1,693.1,460.9z"></path> <path style="fill:#FFFFFF;" d="M134.3,407.7c4.8,0,9.2,0,13.7,0c15.8-0.1,31.6-0.1,47.4-0.4c4.4-0.1,5.4,1.5,4.9,5.5 c-0.6,6.2-0.8,12.5-0.9,18.8c-0.1,2.3-0.4,3.8-3.2,3.9c-2.5,0.1-3.8-0.7-3.7-3.3c0-0.5-0.1-1-0.2-1.5c-2.5-13-4.9-15.1-18.2-15.1 c-4.6,0-9.2,0-14.2,0c0,13.5,0,26.4,0,39c9.1,0,18,0,26.9,0c5.9,0,5.5-0.1,5.7,7.3c0.1,5.2-2.2,5.4-6.4,5c-8.6-0.8-17.2-1-26.6-1.5 c0,5.4,0,10.5,0,15.5c0,6.6-0.1,13.2,0.1,19.8c0.2,6.3,2.3,8.2,8.6,8.3c3.8,0.1,7.7,0,11.5,0c7.2-0.1,12.4-3.3,15.2-10 c1.6-3.8,3.2-7.6,4.8-11.5c2,0.5,3.7,0.9,5.7,1.4c-1.5,9.3-3,18.4-4.5,27.8c-22.4,0-45,0-68,0c-0.2-1.5-0.3-3.3-0.5-4.8 c0.4-0.4,0.6-0.8,0.9-0.9c12.4-2.3,12.4-2.3,12.4-15c0-24.3,0-48.6,0-72.9c0-6.7-0.9-8.1-7.4-8.7C133.8,414,132.8,412,134.3,407.7z"></path> <path style="fill:#FFFFFF;" d="M969.5,488.1c2,0.5,3.9,1.1,6.2,1.7c-1.5,9.2-2.9,18.2-4.5,27.7c-5.2,0-10.5,0-15.8,0 c-14.5,0-28.9,0.1-43.4-0.1c-1.7,0-4.2-0.9-4.7-2.1c-0.6-1.2,0.3-3.8,1.4-5c11-13,22.5-25.7,33.3-38.8c7.1-8.6,12.6-18.3,13-29.9 c0.2-5.8-1.1-11.2-4.8-15.7c-7.7-9.4-20.8-8.1-26.3,2.6c-1.3,2.5-2.1,5.2-2.8,7.9c-1.4,6.1-1.3,6.1-8.7,5c0-7.8,0-15.8,0.1-23.8 c0-0.8,0.8-1.8,1.5-2.4c11.7-8.6,24.4-12.1,38.4-6.7c15.7,6,22.5,23.1,16.8,41c-2.9,9.2-8.5,16.8-14.9,23.8 c-8.1,8.8-16.2,17.5-24.4,26.2c-0.9,0.9-1.6,1.9-2.3,2.7c10.6,0,21.2,0.2,31.7-0.2c1.9-0.1,4.2-2.5,5.5-4.4 C966.8,494.7,967.9,491.4,969.5,488.1z"></path> <path style="fill:#FFFFFF;" d="M381,510.9c1.5,5-0.3,6.4-5,6.3c-10.3-0.3-20.6-0.1-31.2-0.1c-0.3-1.9-0.6-3.6-0.8-5.1 c0.5-0.5,0.7-0.8,1-0.9c10.4-2.3,10.7-2.6,10.7-13.5c0-24.1,0-48.2,0-72.3c0-9.7-0.1-9.8-9.6-11.3c-0.6-0.1-1.3-0.2-2.2-0.4 c0.1-1.9,0.2-3.6,0.3-5.8c12.2,0,24.2,0,36.6,0c1,3.2,1.7,5.7-3.3,6.5c-6.4,1-7.9,3.2-7.9,10.4c-0.1,14.4,0,28.7,0,43.1 c0,10.7,0,21.5,0,32.2c0,8.7,0.6,9.4,9.4,10.6C379.4,510.6,380.1,510.7,381,510.9z"></path> </svg> 