<?xml version="1.0" encoding="UTF-8"?> <svg xmlns="http://www.w3.org/2000/svg" xmlns:xlink="http://www.w3.org/1999/xlink" version="1.1" id="Layer_1" x="0px" y="0px" viewBox="0 0 1000 1000" style="enable-background:new 0 0 1000 1000;" xml:space="preserve"> <path style="fill:#FFFFFF;" d="M229,822.6c-6.6-1.8-13.4-3.2-19.7-5.6c-32.2-12.4-46.6-36.8-45.8-70.5c0.8-34.6,15.9-61.9,43.5-82.6 c-8.8-10.2-4-23.1,11.7-28.7c7.8-2.7,16.2-3.7,25.9-5.8c-1.9-4.3-3-8.3-5.3-11.5c-16-22.6-26.2-46.5-19.1-75.4 c-1.8,4.4-4.1,8.7-5.3,13.3c-9.1,33.1-17.9,66.3-27.3,99.3c-1,3.5-5.2,7.7-8.7,8.5c-9.5,2.2-19.5,2.8-29.2,4.1 c-0.7-1.4-1.5-2.8-2.2-4.3c2.9-4.5,4.8-11.1,8.9-13.1c21.5-10.4,26.6-30.8,31.2-50.7c9.9-43,18-86.5,27.5-129.6 c3.3-14.9,8.4-29.4,12.6-44c0.7-2.4,0.9-5,1.9-10.9c-12.5,13.2-22.5,24.2-33,34.8c-12.5,12.6-26.3,22.8-44.4,26.3 c-20.4,3.9-35.6-3.3-48-19.2c-11-14.1-9.2-17.9-29.8-9.5c-4,1.6-11,0.8-14.4-1.8c-9.9-7.5-15.7-18.3-14.2-30.9 c0.7-5.6,5.9-10.7,10.2-17.9c-9.8,1.3-19,3.3-28.4,3.7c-6.2,0.2-17.5-0.9-17.9-3c-1.7-9.4,7.8-9.6,13.9-11c10.3-2.4,21-3.3,31.6-4.7 c8.4-1.1,14.3-2.4,11.8-14.1c-1.4-6.7,2.6-14.6,4.8-21.9c0.4-1.5,4.7-3.4,5.1-3c2.3,2.2,4.8,4.9,5.6,7.8c3.1,12.2,5,24.6,8.4,36.7 c5.3,18.7,16.6,33.8,29.4,48.1c18.7,20.8,43.9,21.9,63.5-3.1c11.2-14.3,19.2-31,28.7-46.6c6.7-11-0.6-19.6-6.4-26.7 c-2.8-3.4-11.7-3.6-17.4-2.7c-24,3.8-46.9,2.2-66.2-13.9c-8.9-7.4-16.2-17.2-22.6-26.9c-2.1-3.2-0.8-10.9,1.7-14.6 c8.5-12.3,8.3-23.3-0.9-34.9c-8.2-10.4-5.6-22.5-2.8-33.9c2-8.1,7.6-11.3,15.7-6.4c5.2,3.2,10.2,6.6,15.4,9.8 c5.5,3.3,11,6.6,16.6,9.7c12.1,6.7,22.5-4.4,34.2-3.6c12.1,0.8,22.3-1.6,29.9-13.7c7.4-11.7,17.7-21.7,27.5-31.8 c7.8-8,12.4-7.1,17.1,3c7.5,16,17,32,7.3,50.3c5.1,4.7,9.3,10,14.7,13.1c9.5,5.6,9.5,13.8,6.2,21.6c-5.8,13.8-13.2,27-21.4,43.3 c4.1,3.6,10.8,8.7,16.5,14.7c15.7,16.6,30.9,33.6,46.5,50.3c4,4.3,8.5,8.4,13,12.2c9.2,7.7,10.9,18.4,13.5,29.2 c1.6,6.8,6.6,12.7,9.8,19.1c7.6,15.4,15,30.8,22.8,46.9c23.3,1.7,37.3,16.8,43.5,45.8c1,4.8,3.1,9.7,2.8,14.5 c-0.9,15.3,3.7,30.9-17.6,40.3c-21.5,9.5-36.2,29-41.8,53.2c-1.9,8.2-6.4,11.1-14.7,10.2c-14.8-1.6-29.7-2.8-44.6-3.8 c-7-0.5-14.1-0.1-24.2-0.1c6.3,7.6,11.8,12.2,14.9,18.1c11.6,22.3,5.5,49.1-15.7,69.2c-12.6,12-26.4,22.5-45.3,19.6 c-4.8-0.7-10.2-3.3-13.3-6.9c-9.5-10.8-14.5-23.7-9.2-37.9c4.4-11.7,13.3-19.8,26.4-21c4.1-0.4,8.5,1.6,12.7,2.5 c-2.6,3.2-4.6,7.4-8,9.5c-13.9,8.8-15.7,13.3-12.1,27.1c2.1,8,7.6,10.3,14.2,10.9c12.9,1.2,33.5-17.2,39.8-35 c6-16.7,2.3-31.9-10.2-41.4c-15.6-12-43.6-13.4-62-2.5c-26.7,15.8-41.4,39.3-43.6,70.4c-2.2,30.8,30.8,63.5,60.8,60.3 c42.3-4.5,79-19,111.6-45.4c4.7-3.8,9.9-7,15.3-10.8c5.8,7.8,6,15-1.9,20c-17.4,10.9-35.2,21.2-53,31.4 c-21.5,12.2-44.8,19.1-69.4,21.8c-2.6,0.3-5,1.6-7.6,2.5C230.6,822.6,229.8,822.6,229,822.6z M250.5,449.8c-1.4,0.1-2.7,0.2-4.1,0.4 c-6.3,29.1-19.2,56.5-21.2,87.3c12-12.9,26.4-17.1,44.7-15.2C263,496.6,256.7,473.2,250.5,449.8z M234.3,276.9 c-16,1.8-31.9,3.8-47.9,5.3c-8.5,0.8-11.5,5.5-11.6,12.8c1,0.8,2.1,1.6,3.1,2.5c2.5-3.2,5-6.3,8.3-10.5 C204.2,299,219.1,287.5,234.3,276.9z M157.6,301.2c-7.3-3.8-12.3-6.5-17.4-8.9c-13.6-6.4-21.9-0.3-20.5,15.6c4,0,8,0,12.7,0 c-0.8-3.9-1.4-7-2-10.2c0.7-0.9,1.3-1.8,2-2.6c5,3,9.9,6.1,16.4,10C149.6,304.8,152.5,303.5,157.6,301.2z M245.9,295.6 c-1.3-0.5-2.7-1.1-4-1.6c-2.5,6.2-5,12.3-8.3,20.3C248.9,311.8,243.8,302,245.9,295.6z M214.1,317.8c16.1,2.3,18.7,0.1,16.5-13.2 C225.3,308.8,220.6,312.5,214.1,317.8z"></path> <path style="fill:#FFFFFF;" d="M978.7,505.6c-1.6,8.1-2.7,16.4-5,24.4c-8.5,29-25.4,51.6-55.5,59.2c-22.4,5.7-44.7,0.8-60.8-17.7 c-23.4-26.8-35.7-58.4-32.9-94.3c1.8-23.7,6.7-47,17.8-68.4c16-30.7,44.3-39.4,75.2-32.1c2,0.5,3.8,1.9,6.9,3.4 c-2.9,1.8-4.5,3.5-6.5,4.1c-30.9,9.5-44.6,32.5-49.5,62.5c-4.7,29.2-5.6,58.6,2.8,87.1c3.7,12.6,8.7,25.9,26.3,27.1 c19.9,1.4,24.5-0.8,32.4-18.9c9.9-22.6,9.7-46.6,9.4-70.5c-0.2-11.9-1-24.3-4.7-35.5c-3-9-10.4-16.7-16.2-24.6 c-2.1-2.9-5.4-5.1-8.2-7.7c8.3-6.1,22.4-5,32,0.3c21.1,11.7,29.8,30.8,34.4,53c0.3,1.7,1.5,3.2,2.2,4.8 C978.7,476.5,978.7,491.1,978.7,505.6z"></path> <path style="fill:#FFFFFF;" d="M382.2,709.3c0.5-20,2.1-39.3,11.1-57.8c14.9-30.7,41-43.7,72.9-46.9c24-2.4,48-0.1,69.4,12.1 c15.3,8.7,29.2,19.5,31.3,39.5c0.6,5.9,3.8,11.4,5.1,17.3c1.5,7-2,11.1-9.2,11.1c-10.3,0.1-20.7,0.1-31-0.5 c-8.8-0.5-11.3-7-13.1-14.6c-4.8-21.2-16.5-38.1-41.1-35.4c-10.7,1.2-19.8,5.3-22.9,15.7c-4.2,14-8.3,28.6-9,43 c-1,20-0.7,40.6,2.8,60.2c4,22.7,15.3,31.9,32.4,32.8c19.5,1,34.5-13.1,38-35.8c2.4-15.5,4.1-16.9,19.7-16.9 c7.3,0,14.6-0.4,21.8-0.1c8.1,0.3,12.5,3.9,11.8,13c-2,28.4-25.2,55.8-55.6,64.6c-26.1,7.6-52.1,6.7-77.7-2.1 c-31.2-10.7-47.7-34-53.2-65.6C383.6,732,383.2,720.6,382.2,709.3z"></path> <path style="fill:#FFFFFF;" d="M710.4,769.8c-21.2,0-42.7-0.3-64.1,0.3c-2.7,0.1-6.5,4-7.8,7c-2.6,6.2-3.4,13.1-5.6,19.5 c-3.6,10.7-23.7,18-32.4,10.7c-3.1-2.6-3.7-10.5-2.7-15.4c2.2-10.7,6-21,9.3-31.5c14.2-45.6,28.7-91,42.5-136.7 c3-9.9,7.7-13.9,17.9-13c9.1,0.8,18.4,0.4,27.6,0.5c12.7,0.1,25.3,11.7,26.6,24.3c0.4,4.4,0.5,9.1,2.1,13.2 c16.9,45.1,34,90.1,51.1,135.1c1.2,3.2,2.6,6.4,3.6,9.6c3.4,11.7,0.7,15-11.7,14.9c-9.6,0-19.2,0.2-28.7,0.2 c-8.7,0-15.2-2-17.6-12.1C718.3,787.5,714,779.1,710.4,769.8z M675.4,663.2c-0.9,0-1.7,0.1-2.6,0.1c-7.7,23.3-15.5,46.5-22.6,70 c-0.6,1.8,4.1,7.4,6.4,7.6c14.4,0.7,28.8,0.4,44.9,0.4C692.2,713.4,683.8,688.3,675.4,663.2z"></path> <path style="fill:#FFFFFF;" d="M705.5,580.7c-12.4,0-25.2,0-37.9,0c1-9.2,2.8-18.9,2.9-28.5c0.4-33.9-0.3-67.8,0.3-101.7 c0.3-19.2-1.6-37.5-8.9-55.7c-5.3-13-16-17.6-25.7-24.6c4.9-6.9,21.5-12.1,31.3-8.3c12.2,4.8,22.5,12.5,28.6,24.3 c17.4,34.3,34.4,68.8,51.8,103c1.9,3.7,5.3,6.6,9.3,9.3c4.2-38.2,9.7-75.9-2.3-114.9c15.8,0,29.7,0,43.4,0 c-7.3,65.9-2.2,131.2-0.2,196.3c-13.5,1.2-26.1,2.3-38.7,3.4c-4.1-42.6-22.4-79.1-43.8-114.5c-1.7-2.9-5-4.8-7.6-7.1 c-1.7,3.5-4.9,7-4.8,10.4c0.9,35.1,2.3,70.1,3.5,105.2C706.5,578.2,706,579,705.5,580.7z"></path> <path style="fill:#FFFFFF;" d="M826.6,638.9c-15,0-29.1-0.4-43.2,0.1c-11.7,0.5-13-6.8-13.2-15.5c-0.2-8.5,3.6-12.3,12.5-12.3 c47.9,0.2,95.8,0,143.7,0.2c7.6,0,15.7,0.6,15.2,12.1c-0.6,15.9-1.1,16.8-14.8,17c-13,0.1-25.9,0-40.6,0c0,28.2,0.1,55.2,0,82.3 c-0.1,24.5-0.7,49-0.8,73.5c0,10.2-5.5,13-14.6,12.7c-9.6-0.3-19.2,0.1-28.7-0.1c-10.9-0.2-14.9-4.5-14.9-15.5 c0-46.7,0.1-93.4,0.1-140.1C827.3,648.8,826.9,644.3,826.6,638.9z"></path> <path style="fill:#FFFFFF;" d="M615.2,487.3c-12.3,0-23.9-0.4-35.4,0.3c-2.8,0.2-7.5,4.2-7.6,6.6c-0.6,18.9-0.3,37.9-0.3,59 c20-1.9,36.9-3.8,53.9-5c3-0.2,7.1,1.8,9,4.2c2.7,3.4-4.6,22.4-8.1,25.1c-16.6,12.9-35.6,8.1-54,7.8c-7.9-0.1-16-1.1-23.7,0.2 c-9.6,1.6-12.1-1.5-11.8-10.7c1.1-31.7,2.2-63.5,2.1-95.2c-0.1-16.7-2.4-33.4-4.4-50c-1.9-16-8.3-29.7-25.6-39.7 c5.6-1.7,8.8-3.6,11.9-3.6c22.4,0.3,44.9,1.2,67.3,1.6c8.8,0.2,17.6,0.4,26.3-0.4c8.4-0.7,12.1,1.8,10.6,10.6 c-2.9,16.2-9.7,21.7-28.7,22.4c-6.5,0.2-13-0.1-19.5-0.2c-9.5-0.1-13.2,4.4-11.3,13.4c0.3,1.5,1,2.9,1.2,4.3 c3.1,24.4,3.1,24.4,26.6,24C614.7,461.8,617.7,465.5,615.2,487.3z"></path> <path style="fill:#FFFFFF;" d="M535.5,360.8c0-16-0.5-30.4,0.2-44.7c0.4-8-1.4-14.2-8.5-18.2c-3.4-1.9-8.8-5.4-10.4-4.3 c-3.5,2.4-6.7,7.3-7.2,11.6c-1.5,13.3-1.2,26.7-2.6,40c-0.5,5.2-2.9,13.8-5.8,14.4c-8.9,1.8-18.5,1.1-27.6-0.2 c-2-0.3-4.3-7.1-4.3-11c-0.1-18.3,0.6-36.6,0.9-54.9c0.3-18.7,6.7-25.6,24.8-21.5c11,2.5,20-0.2,30-1.8c6.8-1.1,15.8-1.3,20.9,2.3 c10.1,7.1,18,5.2,28,0.5c31.6-15.1,60.4,12.8,57.7,37.7c-0.5,4.2-0.8,8.6,0.1,12.6c3.9,17.7-7,27.7-19.2,36.7 c-2.1,1.6-6.8,2.2-8.8,0.9c-2.9-1.9-5.8-5.7-6.1-9c-0.8-10.3-1.3-20.7,0-30.9c1.2-9.6-3.5-16.5-8-23.4c-1.6-2.5-7.1-4.9-9.5-3.9 c-3.6,1.5-8,5.6-8.5,9.1c-1.6,11.3-1.7,22.8-2.3,34.2c-0.2,4.2,0.2,8.4,0,12.6c-0.4,7.4-3.1,12.2-11.9,11.4 C550.1,360.3,542.9,360.8,535.5,360.8z"></path> <path style="fill:#FFFFFF;" d="M379.6,241.3c13.6-4,21.1,4.5,26,17.8c1.1,3,4.8,5.1,7.3,7.6c2.3-2.4,5-4.6,7-7.3 c6.8-9.6,13.2-19.1,27.4-18.2c9.2,0.6,10.8,4.9,7.1,11.8c-5.3,10-11.1,19.9-17.5,29.3c-6.2,9.1-9.9,17.3-2.5,27.9 c7.2,10.3,13.4,21.3,19,32.5c2.3,4.7,3.4,11.1,2.2,16c-0.5,2-8.6,2.4-13.4,2.9c-4.9,0.4-10.5,1.3-14.7-0.4 c-5.4-2.2-10.1-6.6-14.3-10.8c-2.7-2.7-3.9-6.9-6.3-9.9c-6.5-8.3-11.3-5.7-14.7,2.8c-5.3,13.1-13.9,20.4-29,17.6 c-6.8-1.3-9.9-3.4-5.7-10.4c6.8-11.1,13.3-22.4,20.2-33.4c5.6-8.8,8.2-16.9,1-26.8c-6.8-9.5-11.7-20.4-17.6-30.5 c-8.6-15-6.8-18.4,10.4-18.5C373.6,241.3,375.5,241.3,379.6,241.3z"></path> <path style="fill:#FFFFFF;" d="M503.7,584.4c-13.9-6.6-31.5,3.1-43.6-10.9c-6.9-7.9-14.7-15.6-19.2-24.8 c-8.1-16.9-15.1-34.5-20.3-52.5c-2.5-8.7-3.8-19,7.8-26.2c8.4-5.2,14.3-14.6,20.7-22.5c1.8-2.2,1.6-6.1,2.1-9.2 c0.2-1.4-0.6-3.7,0.1-4.2c16.8-11.9,13.2-27.8,8.9-43.9c-0.2-0.6,0.3-1.5,0.6-2.8c12.2-1.1,24.6-2.9,37-2.8c2.4,0,7.1,7.7,6.6,11.3 c-4.3,31.2-15.3,59.6-40.7,80c-8.5,6.8-10.3,13.3-7.3,23.6c7.7,26.3,20.2,49.6,39.3,69.5c3.6,3.7,6.3,8.3,9.4,12.5 C504.7,582.4,504.2,583.4,503.7,584.4z"></path> <path style="fill:#FFFFFF;" d="M789.2,350.3c-3.9-11.6-9.4-15-18.7-18.5c-12.8-4.7-26.4-12-32.3-26.7c-3.3-8.2,3.8-27.1,13.3-30.6 c20.8-7.7,42.1-10.5,63.1,0.7c7,3.7,11.2,9.6,8.9,16.4c-1.3,3.9-8.3,6.1-13,8.4c-3.2,1.5-7,1.6-13.5,3c7.8,4.5,12.8,7.5,17.9,10.3 c10.1,5.6,14.5,15.8,12.3,28.9c-1.9,11.2-10,19.9-21.6,20.5c-16.8,0.8-33.7,0.3-50.5,0c-2.9,0-6.7-0.9-8.5-2.8 c-3.5-3.7-7.7-8.3-8.2-12.9c-0.3-2.7,5.6-7.5,9.6-8.8c5.2-1.7,11.5-0.2,16.9-1.5c8.9-2.1,7.9,6.3,11.8,9.4 C779.4,348.4,783.8,348.7,789.2,350.3z"></path> <path style="fill:#FFFFFF;" d="M674.8,339.4c-9.9,0.7-19.4,1.6-28.9,2.1c-5.9,0.3-7.8-2.7-7-8.8c2.8-20.7,13.7-30.6,35-31.5 c3.4-0.1,6.7-0.4,10-0.7c0.4-1.2,0.8-2.4,1.2-3.6c-4.3-1.5-8.5-3.8-12.9-4.4c-4.8-0.6-10,0.9-14.8,0.3c-4.1-0.5-11.4-3.2-11.3-4.1 c0.7-5.6,1.5-13.4,5.3-16c16.7-11.5,52.6-6.5,67.6,7.2c9,8.2,9.8,18.8,10.4,29.4c0.7,13.3,0.4,26.8-0.1,40.1 c-0.2,4-2.2,10.7-4.4,11.3c-5.4,1.2-12.1,0.8-17.3-1.3c-11.1-4.5-14.8-14.7-17.5-25.6c-0.8-3.3-4.6-5.8-7.1-8.7 c-2.3,3.5-4.8,7-7,10.6C675.4,336.9,675.1,338.4,674.8,339.4z"></path> <path style="fill:#FFFFFF;" d="M406.4,424.3c-1,20.9-1.8,41.7-3.3,62.6c-0.2,3.2-4.5,9-5.5,8.7c-5.2-1.5-13.3-3.5-14.4-7.2 c-6.3-20.8-12.7-41.7-7.5-64.4c1.8-7.8-2.1-17.5-5.1-25.7c-3.7-9.8-1.6-14.1,9.2-14.3c26.8-0.6,26.8-0.6,26.5,26.6 c-0.1,4.6,0,9.2,0,13.7C406.3,424.3,406.3,424.3,406.4,424.3z"></path> </svg> 