<?xml version="1.0" encoding="UTF-8"?> <svg xmlns="http://www.w3.org/2000/svg" xmlns:xlink="http://www.w3.org/1999/xlink" version="1.1" id="Layer_1" x="0px" y="0px" viewBox="0 0 1000 1000" style="enable-background:new 0 0 1000 1000;" xml:space="preserve"> <path style="fill:#FFFFFF;" d="M17.7,383.1c11.4-2.3,8.1-11.9,8.2-18.6c0.5-26.2-0.6-52.5,0.1-78.7c0.4-14.4,3.8-28.6,4.7-43 c0.8-12.8,0.2-25.7,0.2-39.9c17.8-1.2,37.9-2.5,61-4.1c-6.2,7.6-10.4,12.8-14,17.2c28.1,31.1,41.3,70.1,63.9,105.4 c11.2-19.6,21.9-39,33.4-58.1c4.8-8,10.3-15.9,16.7-22.7c13.2-14.1,13.5-13.8,16.1-35c15.2,0,30.4,0,43.2,0 c-0.6,9.2-2.3,18.2-1.5,27c1.7,19.4,5.8,38.6,7,58.1c1.4,24.5,1.1,49.1,1.2,73.7c0.1,19-3.2,21.8-22.3,22.3 c-9.2,0.2-18.4,1.9-25.2,2.6c1.5-8.8,4.3-18.7,4.6-28.8c0.6-19.6-0.9-39.3-0.4-58.9c0.5-18.3,2.5-36.5,3.8-53.9 c-25.8,42.3-52.7,86.4-80,131.1c-24.8-44.4-48.9-87.6-73-130.8c-1,0.5-2,0.9-3,1.4c0,2.4-0.8,5.2,0.1,7c10.9,21.5,6.2,44.5,6.3,67 c0.2,22.1,0,44.3,0,63.6c-13.6,0.8-28.8,1.7-44.1,2.5c-2.3,0.1-4.6-0.8-6.9-1.2C17.7,386.5,17.7,384.8,17.7,383.1z"></path> <path style="fill:#FFFFFF;" d="M485.9,788.5c-6.8-2.9-13.5-8.2-20.3-8.3c-48.7-0.5-97.4,0-146,0.4c-4.5,0-9.1,0.8-11.2,1 c0-42.4-0.5-85,0.2-127.6c0.4-19.2,3.4-38.4,5.3-59.1c29.2,0,61.5-1.1,93.7,0.7c10,0.6,19.6,9.1,29.4,13.9c-0.2,1.2-0.4,2.5-0.6,3.7 c-29.5,0-59.1,0-87.9,0c1.2,19.1,2.3,36,3.5,54.5c28.9,0,58.6,0,88.9,0c0,11.3,0,22.7,0,32.3c-8-1.7-16.2-4.9-24.5-5.1 c-23.1-0.7-46.2-0.2-67-0.2c0.9,19.6,1.8,38,2.8,58c45.1-2.9,91.6,4.8,139.6-5.6c-1.1,14.5-2.2,28-3.2,41.5 C487.6,788.5,486.7,788.5,485.9,788.5z"></path> <path style="fill:#FFFFFF;" d="M271.2,788.5c-1.9-7.5-6.1-8.9-14.1-8.8c-36.1,0.6-72.2-0.2-108.3-0.4c-19.6-0.1-39.3,0-59.9,0 c13.3-23.6,7.3-50,8.9-75.5c1.5-24.2,3.8-48.4,5.4-72.7c1-15.1,1.7-30.4-13.9-40.9c0.7-1,1.4-1.9,2.1-2.9c18.1,1.1,36.2,2.3,57,3.6 c-17.7,20.3-8.4,41.1-7.6,61.1c1.5,34.8,3.2,69.5,4.9,105.4c20.5-1.4,44.4-3.5,68.3-4.3c12.1-0.4,24.2,2.1,36.3,2.8 c4.7,0.3,9.7-0.3,14.3-1.5c3.3-0.9,6.1-3.4,9.9-5.7c0.7,14.5,1.4,27.2,2,39.8C274.6,788.5,272.9,788.5,271.2,788.5z"></path> <path style="fill:#FFFFFF;" d="M911.5,605.7c-7.3,21.3-21.4,42.4-30.1,45.5c-8.2-25.6-32.4-40.6-66.2-40c-9.3,0.2-19.1,1.5-27.7,4.6 c-17.4,6.3-23,16-19.6,30.2c2,8.3,18.1,17.9,29.8,18.7c20.2,1.4,41,0.9,60.5,5.7c43.8,10.9,55.9,46.7,44.3,83.7 c-1.2,3.7-1.6,12.5-9.1,5.1c-15.9,10.7-32,22-52.4,23.7c-29.1,2.5-57.1-2.6-85-10.7c-12.6-3.7-26.3-3.8-41.8-5.8 c-1.6-20.2,21.4-32,23.4-55.1c3.5,4.2,5.8,5.9,6.9,8.2c6,12.4,16,20.9,29,22.9c23.2,3.6,46.6,6.1,70.1,6.8 c9.9,0.3,17.5-7.6,19.3-18.7c3.9-24.3-0.5-28.5-25.7-30.1c-25.8-1.6-52-3.2-77-9.1c-12.2-2.9-27.8-7-32.7-24.3 c-9.1-32.4,14.7-69.6,47.2-77.9c25.1-6.4,49.1-5,73.4,0.3c13.6,3,26.5,8.6,39.9,12.4C895.4,603.8,903.2,604.3,911.5,605.7z"></path> <path style="fill:#FFFFFF;" d="M671.6,681.4c-2.7,0.6-5.4,1.2-9.1,2c1.8,1.2,3.1,2.8,4.1,2.6c16.6-3.5,23.6,7.8,26.8,20.1 c3.3,12.5,3.8,26,3.9,39.1c0.2,15.4-15.2,15.9-24.2,21.7c-38.5,24.6-78.8,17-119.6,5.9c-15.2-4.1-31.5-4.4-48.1-6.6 c7.4-14.8,16.2-32.5,25.4-51.2c27.5,37.9,66.8,35.5,105,34c15.2-0.6,25.3-16.6,22.7-34.6c-1.9-12.4-13.5-13.8-24.3-14.1 c-5.2-0.2-10.3-0.1-15.5-0.8c-21.9-2.7-44-4.7-65.6-8.8c-9.6-1.8-18.5-7.7-27.4-12.3c-1.8-1-2.7-4.3-3.5-6.6 c-11.8-34.7,10.3-73.3,44.3-82.4c33-8.8,63.2-3.5,94,7.2c13.5,4.7,27.8,7.2,43.5,11.1c-8.6,14.7-17.4,29.9-27.4,47.1 c-17.3-42.3-77.4-58.3-110.4-32.7c-8.3,6.4-10.2,24.6-1.9,31.1c6.4,5.1,14.6,9.7,22.5,11c16.8,2.7,34.1,2.5,51,4.9 c11.4,1.6,22.5,5.7,33.8,8.6C671.6,678.9,671.6,680.1,671.6,681.4z"></path> <path style="fill:#FFFFFF;" d="M963.8,227c-45.4,0-90.3,0-132.9,0c0,16.3,0,33.6,0,53c32.3-2.3,62.5,4.5,92.1-5 c0.3,0.6,0.8,1,0.7,1.3c-0.9,9.6,1.6,22.9-3.7,27.6c-5.3,4.7-18.3,0.9-27.9,0.8c-20.6,0-41.2,0-60.5,0c0,18.8,0,37.2,0,55.2 c26.4,5.7,123.3,2.2,138.8-5.2c0,14.7,0,28.6,0,39.5c-12.2-1.3-24.8-3.7-37.5-3.8c-41.4-0.4-82.7,0-124.1,0.3 c-8.3,0.1-16.7,1.6-24.4,2.3c14-41,3.4-84.7,6.8-127.7c0.8-9.7,2.1-19.4,4-28.9c2.8-13.7-0.2-24.2-11.8-33.7 c61.3-3,121.8,3.3,183.2-4.5C965.7,208.1,964.7,218.4,963.8,227z"></path> <path style="fill:#FFFFFF;" d="M745.7,273.2c-23.6,11.8-37.6,36.3-63.5,31.3c21.4,26.9,42.4,53.4,63.3,79.9c1.2,1.5,1.1,3.9,1.4,5.3 c-14.7,0-28.9,0.2-43.2-0.1c-2.6-0.1-6.3-1.3-7.5-3.3c-11-18.5-21.9-37.1-32.2-56c-3.8-7-6-14.9-10.1-25.3c-17.7,0-39.4,0-58.3,0 c0.5,18.2,0.8,35.3,1.4,52.5c0.3,10.8,0.9,21.7,1.3,32.5c-11.2-0.7-25.1-1.6-40-2.6c0-24.1-0.5-48.9,0.2-73.7 c0.4-13.4,5.7-27.2,3.8-40.1c-3.3-22.3,11.3-45.4-4.2-66.2c1.6-1.2,2.2-2.1,2.8-2.1c45.4-0.3,90.7,0.3,136.1-1.1 c25-0.7,35.7,13.2,44,35.4C745,250.5,744.4,263.1,745.7,273.2z M601.5,287.7c18.6,0,37.5-0.6,56.4,0.2c22.8,0.9,42.2-3.3,49.4-28.3 c5.5-19.3,3.7-33.7-19.9-36.8c-12.1-1.6-24.5-0.3-36.8-0.3c-20.2,0-40.3,0-59.2,0C594.8,244.4,598,265.3,601.5,287.7z"></path> <path style="fill:#FFFFFF;" d="M397.9,393.3c-13.5-3.8-25.7-5.8-36.7-10.5c-28.2-12.1-52.2-31.4-62.7-59.9c-6-16.4-4-37.6-0.1-55.4 c8-36.8,32.7-58.1,70.4-65.5c23.7-4.6,47-7.7,70.9-2.8c41.6,8.6,64.5,35.9,74.5,75.3c2.3,9.1,9.1,20.1-4.2,27.6 c-1.1,0.6-1.1,4.1-0.9,6.1c1.7,13.3-4.7,23.9-10.4,35c-4.1,7.9-8.4,10.1-17.2,5.7c-15.1-7.6-18.5-13.6-8.1-27 c8-10.3,8.7-21.1,7.4-32c-3.7-30.5-17.7-55.4-49.3-63.5c-32.4-8.3-65-5.6-86.4,23.6c-8.7,11.8-11.6,30.4-11,45.7 c0.6,16.4,8.5,32.5,13.4,48.6c0.6,1.9,1.9,4.1,3.5,4.9c10.7,5.4,21.5,10.7,32.5,15.4C395.1,369.5,397.5,378.6,397.9,393.3z"></path> <path style="fill:#FFFFFF;" d="M536.9,401.8c12.9,0,21.4-0.3,30,0.1c8.4,0.4,12.5,3.8,12.4,13.6c-0.4,31.4-0.1,31.1-29.8,43.8 c-43.4,18.5-86.8,37.1-129.8,56.4c-10.6,4.8-12.6,2.2-12.6-8.1c0-33.4-0.2-33.5,30.2-45.5c25.6-10,51.3-19.8,76.9-29.8 c3.8-1.5,7.4-3.5,13.5-6.4c-5.4-2.8-8.2-4.6-11.2-5.7c-32.5-12.3-65.1-24.7-97.8-36.6c-8.5-3.1-12.9-6.7-11.6-16.7 c1.1-8.4-0.2-17.1-0.2-25.7c0-7.4,2.1-9.7,10.3-6c38.6,17.2,77.5,33.5,116.3,50.2C539.5,388,546.9,390.3,536.9,401.8z"></path> <path style="fill:#FFFFFF;" d="M535.4,591.9c-7.7,11.6-15,22.5-23.1,34.6c-30.4-13.2-61.1-26.3-91.5-40c-2.7-1.2-5.1-5.8-5.5-9 c-4-29.4-2.3-31.8,25.4-43.7c46.6-20.1,93-40.5,139.5-60.8c1.5-0.7,3.2-0.9,6.5-1.8c0,14.5,0.6,28-0.4,41.5 c-0.2,3.1-5.1,7.2-8.7,8.6c-33.1,12.8-66.4,25.2-99.7,37.7c-2.7,1-5.3,2.5-11.9,5.5C491.3,574.5,513.5,583.3,535.4,591.9z"></path> <path style="fill:#FFFFFF;" d="M587.2,623c0,11,0,21.9,0,33.8c-10.5-1.2-20.9-2.8-23.7-13.7C560.7,632.5,570.4,624.9,587.2,623z"></path> </svg> 