<?xml version="1.0" encoding="UTF-8"?> <svg xmlns="http://www.w3.org/2000/svg" xmlns:xlink="http://www.w3.org/1999/xlink" version="1.1" id="Layer_1" x="0px" y="0px" viewBox="0 0 1000 1000" style="enable-background:new 0 0 1000 1000;" xml:space="preserve"> <path style="fill:#FFFFFF;" d="M645.1,382.5c-2,4-3.8,8-6,11.9c-7.8,14.2-15.7,28.4-23.8,42.9c19,11.3,37.8,22.4,57.9,34.4 c-45.8,12.7-90.3,25.1-135.2,37.6c-0.4-2.1-0.8-4.1-1-5.2c-6.5,2.4-13,5.4-19.9,7c-6.2,1.4-10.1-1.4-11.9-8.4 c-6.3-24.2-13.3-48.1-19.9-72.2c-0.4-1.5,1.1-3.4,1.3-5.2c0.2-2.5,0.5-5.2,0-7.7c-1.1-5.8,1.9-11.8,7.1-13.4c5.5-1.7,12,1.2,13.4,7 c1.8,7.2,6.4,7.5,11.9,6c28.3-7.7,56.5-15.4,84.8-23.3c13.3-3.7,26.6-7.7,39.9-11.5C644.2,382.5,644.7,382.5,645.1,382.5z"></path> <path style="fill:#FFFFFF;" d="M98.9,532.1c2.8-11.1,5.6-22.3,8.6-33.4c0.7-2.6,1.7-5,2.6-7.5c6.6-18.6,13.4-37.2,19.8-56 c1.5-4.4,3.8-6,8.3-5.9c10.1,0.2,20.1,0.1,30.7,0.1c0,47.9,0,95.2,0,142.9c-9.1,0-18.2,0-28.6,0c1-32.4,2-64.5,2.9-96.5 c-0.2-0.1-0.4-0.2-0.6-0.3c-2.4,6.4-4.8,12.8-7.1,19.2c-8.8,24.1-17.6,48.1-26.2,72.3c-1.5,4.2-3.3,6-8.1,5.9 c-13.8-0.3-13.6-0.1-18.3-13.3c-9.4-26.5-19-52.9-28.5-79.3c-0.5-1.4-1.3-2.6-1.7-3.5c0,31.6,0,63.4,0,95.5c-8.6,0-17,0-26.3,0 c-0.2-2.2-0.5-4.5-0.5-6.9c0-41.6-0.1-83.2,0-124.8c0-11.3,0.1-11.3,11-11.3c7.2,0,14.4-0.3,21.5,0.2c1.9,0.1,4.7,2.3,5.4,4.2 c11.1,32.6,22,65.3,32.9,98C97.5,532,98.2,532.1,98.9,532.1z"></path> <path style="fill:#FFFFFF;" d="M278.4,485.5c0,24.7,0,49.5,0,74.2c0,13,0,13-13.3,13c-4.7,0-9.4,0-14.6,0c0-47.8,0-95,0-143.1 c8.7,0,17.6-0.2,26.5,0.2c1.5,0.1,3.2,2.1,4.2,3.6c14.7,23.8,29.3,47.6,43.6,71.5c1.4,2.3,5.9,4.8,1.3,8.9c-0.7,0.6,3.2,6.2,6.3,9.2 c0-31,0-62.1,0-93.4c9.8,0,18.6,0,27.8,0c0,47.6,0,94.9,0,143.1c-8.5,0-17,0.3-25.4-0.2c-1.7-0.1-3.7-2.8-4.9-4.7 c-16.9-27.5-33.7-55-50.5-82.6C279.2,485.3,278.8,485.4,278.4,485.5z"></path> <path style="fill:#FFFFFF;" d="M879.8,429.1c16.7,0,32.6-0.8,48.5,0.2c28.5,1.8,50.2,21.5,54.3,49.7c2.6,17.9,3.9,36-2.4,53.6 c-8.6,24-25.8,37.4-50.8,39.6c-16.2,1.4-32.6,0.3-49.4,0.3C879.8,524.8,879.8,477.6,879.8,429.1z M908.5,541.4 c6.2,0,12-0.4,17.7,0.1c11.2,1,16.8-5.8,22.3-13.9c7.8-11.6,7.7-24.3,6.2-37.1c-1.6-13.8-7.3-25.8-22.1-29.6 c-7.6-1.9-15.8-1.5-24.1-2.1C908.5,486.8,908.5,513.5,908.5,541.4z"></path> <path style="fill:#FFFFFF;" d="M415.3,541.8c20.4,0,40.5,0,61.1,0c0,10.2,0,20.1,0,31.2c-5,0-9.9,0-14.7,0 c-22.9,0-45.8-0.2-68.7,0.1c-5.9,0.1-8.1-1.1-8.1-7.6c0.3-42.5,0.2-84.9,0-127.4c0-5.7,1.4-8.6,7.9-8.5c27.6,0.3,55.1,0.1,83.2,0.1 c0,9.8,0,19.3,0,29.3c-20,0-39.9,0-60.3,0c0,8.3,0,16,0,24.7c16.9,0,33.9,0,51.6,0c0,10.4,0,19.8,0,30.1c-17.3,0-34.5,0-52.1,0 C415.3,523.5,415.3,532.5,415.3,541.8z"></path> <path style="fill:#FFFFFF;" d="M696.5,542.2c21.1,0,41.7,0,62.9,0c0,9.1,0.2,18-0.2,26.8c-0.1,1.3-2.7,3.5-4.2,3.5 c-28.7,0.2-57.4,0.2-86.5,0.2c-0.1-2.4-0.3-4.3-0.3-6.3c0-27,0.1-54.1-0.1-81.1c0-4.7,1.2-7.4,5.8-8.9c4.2-1.3,8.1-3.5,13.1-5.7 c-5.4-3.3-10.3-5.7-14.4-8.9c-2.1-1.6-4.1-4.6-4.2-7.1c-0.5-8.2-0.2-16.4-0.2-25.1c30.7,0,60.6,0,90.8,0c0,9.8,0,19.2,0,29.2 c-21,0-41.3,0-62.2,0c0,8.3,0,16,0,25c17.5,0,35.2,0,53.4,0c0,9.5,0.3,17.7-0.2,25.9c-0.1,1.4-3.4,3.7-5.2,3.7 c-13.5,0.3-26.9,0.2-40.4,0.2c-2.4,0-4.8,0-7.6,0C696.5,523.3,696.5,532.4,696.5,542.2z"></path> <path style="fill:#FFFFFF;" d="M776.3,572.2c0-47.3,0-94.8,0-142.6c9.1,0,18,0,27.8,0c0,3.2,0,6.3,0,9.3 c-0.4,32.1-0.7,64.2-1.3,96.3c-0.1,5.7,2.1,6.7,7.1,6.7c17.7-0.2,35.3-0.1,53.5-0.1c0,10.7,0,20.6,0,30.4 C834.2,572.2,805.4,572.2,776.3,572.2z"></path> <path style="fill:#FFFFFF;" d="M196.2,429.4c9.3,0,18,0,27.3,0c0,47.8,0,95.1,0,142.9c-9.4,0-18,0-27.3,0 C196.2,524.6,196.2,477.1,196.2,429.4z"></path> <path style="fill:#FFFFFF;" d="M543.4,601.6c-5.8-0.2-10.7-3.8-12.7-10.5c-6-20.1-11.7-40.3-17-60.6c-0.6-2.2,1.9-7.1,4-7.8 c6.3-2.3,13-3.6,19.7-4.4c1.6-0.2,4.7,2.6,5.3,4.6c6,20.3,11.9,40.6,17.2,61C562.3,593,554.3,601.8,543.4,601.6z"></path> <path style="fill:#FFFFFF;" d="M641,484.9c0,29.7,0,58.2,0,87.3c-8.8,0-17.6,0-27.3,0c0-5-0.1-9.8,0-14.7 c0.4-19.8,0.7-39.7,1.5-59.5c0.1-2.1,2.4-5.1,4.4-5.9C626.1,489.4,633,487.5,641,484.9z"></path> <path style="fill:#FFFFFF;" d="M624.9,437c1.7-11.3,9.6-6.8,15.8-7.6c0,5.4,0,10.4,0,16.5C635.3,442.8,630.2,439.9,624.9,437z"></path> </svg> 