<?xml version="1.0" encoding="UTF-8"?> <svg xmlns="http://www.w3.org/2000/svg" xmlns:xlink="http://www.w3.org/1999/xlink" version="1.1" id="Layer_1" x="0px" y="0px" viewBox="0 0 1000 1000" style="enable-background:new 0 0 1000 1000;" xml:space="preserve"> <path style="fill:#FFFFFF;" d="M253.3,630c-3.4-1.3-4.5-3.8-4.8-7.5c-1.3-14-3.2-28-4.6-42c-0.9-9.7-1.2-19.4-2-29.1 c-0.4-4.6-1.6-9.1-2.1-13.7c-0.9-7.9,2.8-13,10.5-14c9.9-1.3,19.8-4.1,29.9-2.7c7.1,0.9,13.9,2.7,20.6,5.5 c8.5,3.6,13.5,10.7,17.9,17.9c2.5,4,3.1,9.4,3.9,14.3c1.3,8.2,1.6,16.3-1,24.4c-4.7,14.8-15.3,23.2-29.7,27.2 c-8.1,2.2-8.7,2.4-9.3,11c-0.1,1.6-1.3,4-2.6,4.4c-4.2,1.4-8.6,2-12.9,2.9c-2.4,0.5-4.9,0.9-7.3,1.4C257.6,630,255.4,630,253.3,630z M295.4,581c-0.9-1.3-2.3-4.2-4.4-6.4c-1.1-1.2-3.8-1.9-5.2-1.4c-1.4,0.5-2.8,2.9-3,4.5c-0.4,4.7-0.2,9.4-0.1,14.2 c0,2.8,1.6,3.6,4,2.9C290.4,593.6,295.4,586.7,295.4,581z"></path> <path style="fill:#FFFFFF;" d="M34.2,555.6c-0.5-5.2-0.5-10.5-1.5-15.7c-3.9-19.4-1.4-39-2.5-58.5c-0.4-7.6,4.5-10.6,11.7-7.9 c1.8,0.7,3.8,1.1,5.7,1.5c6.4,1.6,12.8,3.3,19.3,4.8c6.1,1.3,12.4,2.3,18.5,3.5c1.3,0.3,2.5,0.9,3.8,1.1c1.8,0.3,3.6,0.3,5.5,0.3 c1.1,0,2.2-0.8,3.3-0.6c4.2,0.7,8.6,1,12.3,2.8c2.1,1,3.9,4.4,4.1,6.9c0.7,7,1,14,0.7,21c-0.3,6.7-0.7,13.6-2.6,19.9 c-0.8,2.5-1.8,5.4-2.8,8c-0.3,0.8-1.6,1.5-2.5,1.6c-2.3,0.2-4.6,0.2-6.9-0.2c-4.5-0.9-8.8-2.3-13.3-3.1c-2.7-0.5-5.9-1.1-7.5,2.3 c-1.5,3.3,0.3,7.1,3.4,8.9c5.4,3.1,11.3,3.3,17.2,3.4c9.1,0.1,9.8,3,7.6,11.8c-0.3,1.2-1,2.2-1.4,3.4c-1.7,5.4-4.2,6.8-9.7,5.6 c-4.1-0.9-8.2-1.7-12.4-2.3c-2.1-0.3-4.6-0.4-5.2,2.5c-0.7,2.9-2.4,6.5,1.4,8.3c3.6,1.7,7.5,2.7,11.4,3.8c4,1.1,8.2,1.8,12.2,2.8 c2.6,0.7,3.5,2.6,3.3,5.3c-0.3,4.5-0.4,8.9-0.5,13.4c-0.1,5.1-3,7.9-8.2,6.9c-12.7-2.5-25.4-5.2-38.1-7.9c-4.4-1-8.6-2.5-12.9-3.7 c-6.2-1.8-9.5-5.7-9.8-12.3c-0.2-4.9-0.6-9.7-1.3-14.5c-1-7.7-2.3-15.3-3.5-23C33.5,555.7,33.9,555.6,34.2,555.6z"></path> <path style="fill:#FFFFFF;" d="M258.9,397.4c-0.5-1-1.1-2-1.8-3.5c-3.8,5.4-8,1.2-11.9,0.9c-2.7-0.2-5.3-2-8-2.6 c-2.2-0.5-5.1-2-6.2,1.4c-0.9,2.7-0.8,5.7,2.6,7.1c1.2,0.5,2.4,1.2,3.7,1.5c5.1,1.1,10.2,2,15.3,3.2c3.8,0.9,5.7,4.9,4.4,9.1 c-0.6,1.9-1.1,3.9-1.3,5.8c-0.5,4.8-4.4,8.3-9.2,7.7c-3.6-0.4-7.2-1.3-10.7-2.2c-4.3-1-5.8-0.2-5.8,4c0,8.5,0.2,17.1,0.6,25.6 c0.2,4.4-2.2,7.1-6.6,6.2c-4.8-1-9.5-2.3-14.1-3.8c-5.8-1.9-11.4-4.2-17.2-6.2c-4.8-1.7-6.5-3.7-6.9-8.8 c-1.4-16.1-2.8-32.3-4.2-48.4c-0.5-5.4-0.5-10.8-1.4-16.1c-0.9-5.5-2.7-10.8-4.1-16.3c-0.1-0.5-0.5-1-0.5-1.5 c-0.2-6.2-0.5-12.4-0.6-18.6c-0.1-4.1,0-8.3-0.1-12.4c0-1-0.3-2.1-0.8-3.1c-2-3.7-0.3-7.4,3.3-9.4c6.2-3.5,11.7-0.3,17.1,1.2 c9.3,2.6,18.4,6.1,27.7,9.1c5.1,1.6,10.4,3.1,15.6,4.3c6.6,1.4,13.3,2.6,20,3.5c6.5,0.8,9.2,6,6.5,12c-1,2.2-0.9,5-1,7.6 c-0.4,7.6,0.8,15.6-1.3,22.6C259.7,384.1,260.3,390.7,258.9,397.4z"></path> <path style="fill:#FFFFFF;" d="M466.3,348.1c1.9-0.8,3.9-1.5,5.6-2.5c4-2.4,11.4-1.7,13,1.5c0.2,0.5,0.7,1,0.7,1.4 c-0.1,12.2-0.3,24.5-0.5,36.7c0,2.3-0.6,4.6-0.7,6.8c0,1,0.6,2.7,1.2,2.8c0.9,0.2,2.4-0.3,3.1-1c0.8-0.9,1.5-2.4,1.5-3.7 c0.3-10.5,0.5-21,0.5-31.5c0-3-1-6-1.4-9c-0.6-5.2,2.4-8.8,6.8-10.3c5.8-2,11.9-3.2,17.9-4.4c3.3-0.7,6.7-0.8,10.1-1.2 c4-0.5,6.8,2.6,6.8,6.5c0.1,9.3,0.7,18.6,0.7,27.9c0,7.8-0.5,15.6-0.9,23.4c-0.5,8.8-0.9,17.7-1.6,26.5c-0.4,5-1,10-2.1,14.8 c-0.4,1.9-2.3,4.3-4,4.8c-7.6,2.3-15.4,4.2-23.2,6c-3.8,0.8-6.1-1.2-6.8-5.2c-0.6-3.5-0.9-7-1.6-10.5c-0.2-1-0.7-2.4-1.4-2.6 c-1-0.2-2.4,0.2-3.2,0.9c-3.3,2.4-5.3,5.4-4.9,10c0.8,9.1-3.1,11.3-11.6,12.7c-5.4,0.9-10.8,2.4-16.2,3.6c-1.6,0.3-3.2,0.5-4.8,0.6 c-2.9,0.2-4-1.8-4-4.1c-0.4-11.1-0.3-22.2-0.8-33.2c-0.5-10.8-1.7-21.5-2.3-32.3c-0.3-5.1,0.1-10.3,0.1-15.5c0-2.2,0.2-4.4,0-6.5 c-0.7-6.7-0.8-6.8,5.3-9.2c2.9-1.1,6.2-1.5,9.2-2.4c3-0.9,6-2,9-3.1C465.9,347.4,466.1,347.8,466.3,348.1z"></path> <path style="fill:#FFFFFF;" d="M702.7,409.8c-0.3-0.8-0.7-1.6-1.3-3.2c-1.8,4.7-5.3,3.8-8.5,3.8c-4.7,0-9.3,0-14,0 c0-0.6-0.1-1.1-0.1-1.7c2.7-0.2,5.4-0.4,8-0.6c0-0.3,0-0.6-0.1-0.8c-3.5,0.2-7,0.4-11.7,0.7c-6.4-5.2-9.3-15.3-16.8-21.5 c-0.4,0.2-0.9,0.4-1.3,0.6c-0.1,1.4-0.4,2.8-0.4,4.2c0.2,5.5,0.5,11,0.7,16.5c0.1,3.4-1.9,5.3-5,5.9c-3.7,0.7-7.5,1.1-11.2,1.4 c-3.7,0.2-6.2-2.2-6.4-5.9c-0.2-4.1,0.1-8.2-0.2-12.2c-0.5-6-1.7-12-1.9-18c-0.3-6.7,0.1-13.5,0.4-20.2c0.3-7.7,0.9-15.4,1.2-23.1 c0.2-5.5,0.1-11,0.2-16.5c0.1-3.5,1.2-5.8,5.4-6.2c4.4-0.4,8.8-1.6,13.1-2.2c6.1-0.9,12.1,2.8,16,9.2c2.7,4.5,5.7,8.9,8.8,13.1 c0.6,0.8,2,1,3,1.5c0.3-1,0.8-2.1,0.8-3.1c-0.1-5.6-0.5-11.1-0.6-16.6c0-3.3,3.4-6.5,6.8-6.6c3.7-0.1,7.3-0.1,11,0 c4.1,0.1,6.7,2.7,6.8,6.9c0.4,12.7,0.7,25.4,1.1,38.2c0.2,7.4,0.9,14.7,0.9,22.1c0,4.4-1,8.8-1.3,13.1c-0.3,5.3-0.2,10.6-0.5,15.8 c-0.1,1.9-1,3.8-1.6,5.7C703.6,410,703.2,409.9,702.7,409.8z"></path> <path style="fill:#FFFFFF;" d="M942.9,507.5c0.3-3.8,0.5-6.7,0.7-9.6c0.1-3.4-0.1-6.8,0.2-10.2c0.4-4.5,2.7-5.5,6.9-3.9 c2.3,0.8,4.7,1.2,7.1,1.6c8,1.3,10.4,4.2,10.7,12.2c0.3,7.3,1.4,14.6,1.3,21.9c-0.1,12.6-1.1,25.2-1.3,37.9 c-0.1,7.7,0.9,15.5,1.1,23.2c0.2,5.9-4.5,8.7-10.1,7c-4.6-1.4-9.3-2.5-14-3.2c-6.5-1-12.4-6-13.8-12.1c-0.6-2.7-1.5-5.4-2.7-7.8 c-1.6-3.1-3.6-5.9-5.7-8.8c-0.8-1.1-2.1-1.7-3.8-3.1c-0.2,1.7-0.4,2.6-0.3,3.5c0.4,5.5,0.9,11,1.4,16.5c0.3,3.8-2.1,6.4-5.8,6 c-3.8-0.4-7.6-0.8-11.2-1.9c-3.7-1.1-6.3-3.4-6.2-7.9c0.2-6.8,0.1-13.7,0-20.5c-0.1-9.5,0.4-19.1-0.8-28.4 c-1.7-13.5,0.6-26.9,0-40.4c-0.2-4.4,2.8-6.1,7.1-5.2c4.2,0.9,8.4,1.8,12.6,2.4c9,1.4,12.7,8.4,16.6,15.2c2.6,4.6,5.1,9.3,7.7,13.9 C940.7,506.3,941.3,506.5,942.9,507.5z"></path> <path style="fill:#FFFFFF;" d="M825.8,462.1c9.9,0,17.8,4.6,25,10.8c9.9,8.5,14.4,20,16.1,32.3c1.2,8.2,0.7,16.9-0.7,25.2 c-1.2,7.1-3.9,14.3-7.5,20.5c-5.1,8.7-12.4,15.5-22.9,18c-15.6,3.8-35.7-6.4-42.2-23.6c-1.3-3.5-2.1-7.2-3.8-10.5 c-4.6-9-4.2-18.9-3.5-28.3c0.6-8.5,2.8-17.2,8.3-24.5c1.7-2.3,3.2-4.6,4.6-7C805.3,464.6,814.8,461.9,825.8,462.1z M829.8,540.8 c1.3-3,2.7-5.1,3-7.3c0.4-4,0.2-8.1,0.1-12.1c0-5.3-1.5-6.8-6.7-7.2c-3.4,4.7-3.3,4.7-2.6,10.4c0.2,1.7,0,3.5-0.3,5.1 c-0.9,5,0.6,7.7,5.1,9.2C828.7,539.1,828.9,539.7,829.8,540.8z"></path> <path style="fill:#FFFFFF;" d="M788.8,364.1c-0.6,0.2-1.8,1.1-3,1.1c-4.1-0.1-5.7,2.1-7.7,5.5c-4.1,6.8-2.2,13.2-0.2,19.6 c1,3,3.7,5.3,5.7,8c0.5-0.1,1-0.2,1.4-0.3c0.4-1.4,1.3-2.8,1.2-4.2c-0.2-4-0.6-8-1.2-12c-0.5-3.5,0.4-5,4.2-5c9.4,0,17.4,3.9,25,8.8 c1,0.7,1.6,2.8,1.6,4.2c-0.1,4.3-0.5,8.6-0.9,12.9c-0.6,6.7-1.1,13.5-2.2,20.1c-0.2,1.4-2.8,3.1-4.5,3.4c-7.8,1.4-15.2-1.2-22.6-3.3 c-11.7-3.3-22.6-8.1-31.8-16.4c-8.3-7.4-12.9-17.1-17.8-26.8c-3.7-7.3-3.7-14.9-2.6-22.2c1.5-10.2,4.6-20,10.8-28.8 c6.8-9.6,16.2-13.1,26.9-13.6c9.2-0.5,18.2,2.3,26.6,6.2c6.3,2.9,6.5,9.1,7.3,14.8c0.9,6.2,2.1,12.3,2.4,18.5 c0.2,4.7-0.7,9.5-1.5,14.3c-0.1,0.6-2.7,1.6-3.2,1.2C798.8,366.8,794.1,364.9,788.8,364.1z"></path> <path style="fill:#FFFFFF;" d="M476.7,499.3c8.5-0.6,16.6,1.8,23.5,5.9c5.3,3.1,10,8.1,12.4,14.4c1.1,2.8,2.6,5.3,3.8,8 c0.7,1.6,1.4,3.4,1.3,5c-0.6,8.4-1.1,16.9-2.4,25.3c-2.1,13.3-8.2,24.6-18.5,33.3c-11.9,10-25.5,15.2-41.2,14.1 c-7.4-0.5-8.8-2.3-9-9.5c-0.3-9.8-0.6-19.5-1.1-29.2c-0.5-8.7-1.4-17.5-1.7-26.2c-0.1-3.9,0.8-7.9,1.2-11.9c0.1-0.7,0.3-1.6-0.1-2 c-5.2-5.9-0.1-12.1-0.1-18.1c0-2.1,4.9-5.3,8-6C460.6,500.7,468.7,500.2,476.7,499.3z M476.1,567.1 C476.2,567.1,476.2,567.1,476.1,567.1c0.1,3.5,0,7,0.1,10.6c0.1,2.6,1.2,4.4,4.2,3.1c8-3.5,11.6-18.9,5.7-25.1 c-1.6-1.7-4.8-3.1-7-2.9c-3,0.3-3.1,3.5-3,6.2C476.2,561.7,476.1,564.4,476.1,567.1z"></path> <path style="fill:#FFFFFF;" d="M133,524.5c0.8-1.3,1.7-2.7,2.8-4.3c9.2,0,18.6-0.2,28,0.1c3,0.1,5.9,1.9,9.2,3 c1,6.3-0.7,13.5,3,19.7c0.6,0.1,1.3,0.1,1.9,0.2c2-6.7,4-13.3,6.4-21.1c4.4,0.7,9.2,1.6,14,2.1c4.1,0.4,8.2,0.3,12.3,0.6 c6,0.5,8.8,6,5.8,11.2c-3.9,6.8-7.6,13.6-11.5,20.4c-3.3,5.7-6.9,11.2-9.8,17.1c-1,2.1-0.9,5.3,0,7.5c3.5,8.5,7.6,16.7,11.2,25.1 c1.8,4.2,3.3,8.6,4.4,13c1.2,4.8-0.3,6.3-5.3,6.8c-5.3,0.6-10.6,2-15.9,2.2c-6.1,0.2-10.7-2.4-11.2-9.5c-0.1-2-1.2-4-2.1-6 c-0.3-0.6-1.5-1.4-2-1.3c-0.7,0.2-1.4,1.2-1.6,2c-1,3.4-1.6,6.9-2.7,10.3c-0.4,1-2.2,2.1-3.3,2.1c-3,0.1-6-0.1-8.9-0.8 c-4.6-1.1-9.1-2.6-13.6-4c-3.8-1.2-5.2-3.4-3.7-7c5-11.9,10.2-23.7,15.6-35.5c1.3-2.9,1.5-5-0.1-7.9c-4.7-8.5-8.9-17.2-13.4-25.8 c-2.4-4.6-5.1-9-7.4-13.6C133.9,529.2,133.7,527,133,524.5z"></path> <path style="fill:#FFFFFF;" d="M363.6,515.4c8.7-1,17.4-2.1,26.1-2.9c2.8-0.3,5.8,0.5,8.6,0.2c3.3-0.4,6.5-1.4,9.6-2.3 c6.4-1.9,9.5,0.8,8.6,7.4c-0.3,1.9,0.1,3.8-0.1,5.7c-0.5,4.8-1,9.6-1.7,14.3c-0.7,4.1-1.9,8-2.7,12.1c-1.1,5.6-3,7.2-9.1,7.6 c-3.1,0.2-6.2,0.4-9.3,0.8c-3.6,0.4-5.6,3.2-4.7,6.6c0.9,3.6,3.3,3.5,6.3,2.8c4.1-0.9,8.2-1.7,12.4-1.8c1.3-0.1,3.6,1.7,3.9,3.1 c1.6,6.2-2.9,12.5-9.3,13.8c-2.9,0.6-5.9,1-8.8,1.6c-3.7,0.7-5.7,3.4-4.9,6.6c1,3.8,4,3.6,6.9,3.2c3.6-0.5,7.2-1.2,10.8-1.7 c3.2-0.5,4.9,0.6,4.7,4.2c-0.2,3.8-0.2,7.6-0.3,11.4c-0.1,2.7-1.3,4.7-4.1,5.2c-5.8,1.1-11.7,2.4-17.5,3.2c-8.4,1.2-16.9,2.4-25.4,3 c-5.3,0.4-7.1-1.6-7.5-6.8c-0.9-13.1-1.9-26.2-2.7-39.4c-0.2-3.5,0.4-7.1,0-10.5c-1.2-11.3-2.9-22.6-4.1-33.9 c-0.5-5,2.9-9.7,9.6-10.6c1.7-0.2,3.2-1.2,4.8-1.9C363.5,516.1,363.5,515.8,363.6,515.4z"></path> <path style="fill:#FFFFFF;" d="M669.6,522.7c2.1,1.7,3.3,2.9,0.8,5c-1.2,1-1.7,3.5-1.5,5.2c1.1,11-1.5,21.8-1.5,32.8 c0,7-2.4,10.4-10.4,10.7c-4.5,0.2-8.9,1-13.4,1.5c-3.3,0.4-5-0.8-5.1-4.5c-0.3-9.6-0.8-19.2-1.4-28.8c-0.4-5.8-1-11.6-1.8-17.3 c-0.1-1-1.9-2.3-3.1-2.4c-3.2-0.3-6.5-0.1-9.8-0.1c-5.3,0-7.5-2-7.3-7.1c0.6-12,1.1-24.1,2.1-36.1c0.1-1.7,2.7-4.3,4.6-4.7 c7-1.3,14.1-1.9,21.2-2.8c9.8-1.3,19.5-2.8,29.3-3.9c4.2-0.5,8.4-0.5,12.6-0.1c2.9,0.2,4.3,2.4,4.3,5.4c0.1,12.9,0.4,25.7,0.3,38.6 c0,1.1-1.5,2.6-2.6,3.2c-4,2.2-8.6,2.1-13.1,2.7C672.5,520.2,671.3,521.6,669.6,522.7z"></path> <path style="fill:#FFFFFF;" d="M414,382.7c0.4,2.7,0.6,5.3,1.1,8c0.8,5-0.9,7.1-8,10.3c-7.9,3.5-8.8,7-3.6,13.6 c14,17.6,6.4,40.1-11.8,48.9c-6.3,3-13.6,4.3-20.6,5.9c-4.1,0.9-6.4-2.7-7.7-10.9c-0.7-4.3,1.1-7.2,4.6-8.1c2.2-0.5,4.6-0.9,6.7-1.8 c5.8-2.4,6.3-7.7,2.2-11.2c-2.7-2.3-5-5-7.8-7c-14.1-10.3-16.9-29.4-11.9-44.9c2-6.2,6.3-10.3,10-14.8c4.5-5.5,11.6-8,18.5-9.8 c6.7-1.8,13.6-3.1,20.5-4.1c2.5-0.4,4.9,0.9,5.4,4c0.8,5.1,1.8,10.3,2.5,15.4c0.3,2.1,0,4.3,0,6.5C414.1,382.7,414,382.7,414,382.7z "></path> <path style="fill:#FFFFFF;" d="M327.5,448.5c0,5.7,0,11.4,0,17.1c0,5.2-3.3,8.9-8.5,8.7c-7.6-0.3-15.1-0.8-22.7-1.5 c-4.7-0.5-6.9-3.1-7.2-7.8c-0.6-9.9-1.2-19.7-1.7-29.6c-0.6-13.5-0.9-27-1.5-40.5c-0.3-6.2-1-12.4-1.4-18.6 c-0.2-3.7,3.2-7.9,6.9-7.9c10.9-0.1,21.7,0,32.6,0.2c3.4,0.1,6.9,4.3,6.8,7.8c-0.5,11.9-1.1,23.8-1.7,35.6 c-0.6,12.1-1.2,24.3-1.8,36.4C327.4,448.5,327.4,448.5,327.5,448.5z"></path> <path style="fill:#FFFFFF;" d="M562.4,375.1c-0.6-5.7-1.5-11.4-1.8-17.2c-0.2-5.4,0.2-10.8,0.5-16.2c0.1-2.7,0.8-5.4,0.4-8 c-0.6-4.2,1.4-6.6,5-7.7c5.2-1.7,10.6-3.1,16-4.4c4.6-1.1,9.3-1.7,13.9-2.6c4.2-0.8,7.6,1.7,7.7,6.1c0.3,11.6,0.9,23.2,0.5,34.8 c-0.5,15.9-1.8,31.7-2.8,47.6c-0.1,2.4-0.1,4.9-0.1,7.3c0,4.6-2.2,7.1-6.9,7.9c-7.1,1.3-14.1,2.7-21.1,4c-5.8,1.1-8.7,0.8-8.9-6.7 c-0.3-10.3-2-20.6-2.9-30.9c-0.4-4.6-0.1-9.2-0.1-13.8C562.1,375.2,562.3,375.2,562.4,375.1z"></path> <path style="fill:#FFFFFF;" d="M716.3,531c-0.4-7.5-1-13.4-1-19.3c0.1-11.6,0.5-23.2,0.7-34.9c0.1-5.6,2-8.7,7.4-9.1 c9.8-0.8,19.7-1,29.6-1c4.7,0,5.7,1.7,5.6,6.5c-0.2,13.1-0.6,26.1-0.8,39.2c0,3.2,0.7,6.4,0.6,9.6c-0.7,13.9-1.5,27.8-2.3,41.6 c-0.2,3.7-3.9,5.7-9.3,5.7c-7.3,0-14.6,0.3-21.8,0.6c-3.2,0.2-5.2-1.8-5.5-4.2C718.2,553.7,717.2,541.6,716.3,531z"></path> <path style="fill:#FFFFFF;" d="M590.5,512.9c-1.1,9.3-2.3,18.5-3.2,27.8c-0.6,6.2-0.8,12.4-0.9,18.7c-0.2,6.5-0.3,13-0.3,19.5 c0,5.3-1.3,7.5-6.3,8.3c-8,1.2-16,1.9-24,2.8c-4,0.4-5.4-1.3-5.6-5.4c-1-18.2-2.6-36.4-3.5-54.6c-0.6-11.8-0.4-23.6-0.2-35.5 c0-1.6,2-3.8,3.6-4.5c3.2-1.4,6.7-2.1,10.2-2.6c7.8-1.1,15.7-2,23.6-2.9c3.5-0.4,4.9,1.6,4.9,4.9c0,7.8,0,15.7,0,23.5 C589.3,512.9,589.9,512.9,590.5,512.9z"></path> </svg> 