<?xml version="1.0" encoding="UTF-8"?> <svg xmlns="http://www.w3.org/2000/svg" xmlns:xlink="http://www.w3.org/1999/xlink" version="1.1" id="Layer_1" x="0px" y="0px" viewBox="0 0 1000 1000" style="enable-background:new 0 0 1000 1000;" xml:space="preserve"> <path style="fill:#FFFFFF;" d="M552.6,359.6c25.1-3.9,46.9-8.1,69-10.3c5-0.5,11.8,4.5,15.8,8.8c20.5,22.4,40.3,45.3,63.3,66.7 c-3.7-22.9-6.7-45.9-11.4-68.6c-2.6-12.6-0.4-19.1,13.7-20.4c19.7-1.9,39.2-5,60.7-7.9c11.6,75.9,23,150,34.6,226.2 c-24.7,3.9-47.7,8.1-70.9,10.7c-4.3,0.5-10.2-5.2-13.9-9.3c-20.6-23.2-40.7-46.9-64.1-74c5.1,33.7,9.5,62.3,14.3,93.3 c-25.3,3.8-49.4,7.4-75.7,11.4C576.2,510.3,564.6,436.2,552.6,359.6z"></path> <path style="fill:#FFFFFF;" d="M242.1,501.8c0-63.8,50.1-114.3,112.8-113.7c63.9,0.6,114.3,53,114.6,119.1 c0.2,64.4-50.4,116.3-113,115.9C292,622.6,242,569.6,242.1,501.8z M385.7,507.8c-0.3-17.3-14.2-33-29.4-33.2 c-16.1-0.2-30.2,14.7-30.1,32c0.1,17.4,15.5,33.5,31.6,33C373.5,539,386,524.9,385.7,507.8z"></path> <path style="fill:#FFFFFF;" d="M797.9,459.3c27.8,8.1,51.5,22.1,83.4,9.5c-7.9-4.1-11.1-6.6-14.5-7.3c-10-2-20.4-2.5-30.3-4.8 c-33.5-7.9-52.2-29.3-55.4-62.4c-3.1-32.2,14.5-63.1,44.3-75.3c30.1-12.4,61.4-11.7,92.4-3.7c4.5,1.2,10.1,7.1,11,11.7 c4.2,20.9,7,42.1,10.5,65c-25-2.3-48.1-15.6-71.3-4.5c-0.3,2.2-0.6,4.3-0.8,6.5c10,1.5,20.1,3,30.1,4.5 c49.2,7.4,74.4,44.3,61.9,90.2c-6.5,23.8-22.5,39-45.3,47.6c-29.8,11.2-60.3,10.1-91,3.8c-9.4-1.9-14.2-6.3-15.3-16.5 C805.4,503,801.6,482.6,797.9,459.3z"></path> <path style="fill:#FFFFFF;" d="M243.5,548.8c3.5,22,7.7,45.3,10.4,68.9c0.5,4.2-4.3,10.8-8.5,13.5c-40.2,26-100,24.1-138.4-3.8 c-37.7-27.4-55.7-81.9-42.6-128.7c13.3-47.2,52.2-78.2,104.5-83.2c0.6-0.1,1.2-0.1,1.8-0.2c47.6-4.1,51.5-1.2,58.8,44.8 c2.2,14,4.1,28,5.9,40.1c-19.7,0-37.7-1.8-55.2,0.4c-24.2,3.1-37.1,19.3-34.3,38.2c2.9,19.2,19.5,31.3,43.7,27.2 C207.5,563.2,224.6,555.1,243.5,548.8z"></path> <path style="fill:#FFFFFF;" d="M541.1,360.9c11.6,76.1,23,150.2,34.8,227.2c-28.3,4.3-55.2,8.3-83.9,12.7 c-12-76.3-23.6-150.9-35.5-226.8C485.1,369.5,511.7,365.4,541.1,360.9z"></path> </svg> 