<?xml version="1.0" encoding="UTF-8"?> <svg xmlns="http://www.w3.org/2000/svg" xmlns:xlink="http://www.w3.org/1999/xlink" version="1.1" id="Layer_1" x="0px" y="0px" viewBox="0 0 1000 1000" style="enable-background:new 0 0 1000 1000;" xml:space="preserve"> <path style="fill:#FFFFFF;" d="M318.7,426.2c26.4-9.5,52-9.2,77.6-0.1c1.8-9.6-1.1-14.8-11.3-17.7c-7.3-2.1-15-3-22.6-4.5 c-0.3-0.7-0.6-1.4-0.9-2.2c4.6-1.8,9.1-4.7,13.8-5c10.2-0.8,20.6-0.3,30.9-0.2c9.5,0,12.4,2.8,12.5,12.3c0.2,28.1,0.3,56.2,0.4,84.3 c0.1,20.7,0,41.4,0,62.1c0,9.6-2.7,12.3-12.3,12.3c-32.2,0-64.4,0-96.6,0c-11.6,0-14.2-2.5-14.3-13.8c-0.1-48.3-0.1-96.6,0-144.8 c0-10.3,2.5-12.5,12.8-12.5c15.9,0.1,31.7,0,47.7,0c-1.1,7.3-6,7.8-11.2,9.1c-7.8,1.9-15.7,4.2-22.9,7.7 C318,415.4,315.9,420.3,318.7,426.2z M357.4,486c5.8-4.1,11.4-8.7,17.6-12.1c17.1-9.4,19.2-25.1,18.5-42c-0.1-1.5-2.7-3.6-4.5-4.2 c-20.9-6.7-41.9-6.8-62.7,0c-1.8,0.6-4,2.6-4.4,4.3c-3.6,17.3,3.2,32.1,18.5,41.9C346.1,477.6,351.6,481.8,357.4,486z"></path> <path style="fill:#FFFFFF;" d="M155.3,481.4c0-23.8,0-47.5,0-71.3c0-10.8,2.8-13.5,13.7-13.5c32.2,0,64.4,0,96.6,0 c9.2,0,12.6,3.1,12.6,12.3c0.1,48.8,0.1,97.6,0,146.4c0,8.7-3.5,12.1-12.2,12.1c-32.7,0-65.4,0-98.1,0c-9.3,0-12.5-3.1-12.5-12.5 C155.3,530.4,155.3,505.9,155.3,481.4C155.3,481.4,155.3,481.4,155.3,481.4z M217,531c5-3.7,9.8-8.5,15.6-11.4 c18.2-9.2,20.3-25.6,20.4-43c0-1.5-1.7-3.9-3.2-4.4c-21.9-7.5-43.8-7.3-65.8-0.2c-1.6,0.5-3.7,2.7-3.8,4.2 c-0.1,15,0.1,29.9,14.9,39.5C202.7,520.5,209.8,525.9,217,531z M257.5,471.5c-0.8-4.4-0.4-8.3-2.1-10.9c-8-12.2-22.3-9.1-35.8-13.2 c4.4-2.7,7.8-4.3,10.5-6.7c2.7-2.3,4.7-5.4,6.9-8.2c-0.9-0.9-1.8-1.8-2.6-2.6c-6.3,4.5-13.6,8.1-18.7,13.7 c-3.7,4.1-7.4,5.2-12.3,6.2c-7.2,1.5-14.6,3.1-21.1,6.3c-5.6,2.7-7.2,8.4-4.5,14.9C204.4,460.3,230.2,460.7,257.5,471.5z"></path> <path style="fill:#FFFFFF;" d="M39.8,567.4c-4.2,0-7.7,0-11.3,0c-10.8,0-13.3-2.4-13.3-12.9c0-10.5,0-21,0-31.5c0-37.3,0-74.7,0-112 c0-12.8,1.7-14.4,14.7-14.4c3,0,6.1,0,10.3,0c-3.6,27.3,20.6,33.5,35.5,47.3c8.6-6.3,17.6-12.6,26.2-19.3 c8.7-6.8,10.4-16.6,10.4-27.9c6.1,0,12-0.7,17.7,0.2c6.3,1,7.4,6.2,7.4,11.8c-0.1,21.5,0,43,0,64.4c0,26.3,0,52.7,0,79 c0,13.5-1.9,15.3-15.8,15.3c-2.8,0-5.6,0-9.1,0c1.4-5-3.1-9.9,3.1-14c1.2-0.8-0.3-9-2.8-11.3c-3.9-3.6-9.6-5.6-14.8-7.2 c-5.5-1.7-11.4-2-19.3-3.3c4.9-3.1,8.3-4.8,11.1-7.2c2.7-2.3,4.7-5.4,7-8.1c-0.8-0.9-1.6-1.8-2.4-2.7c-6.8,4.8-13.6,9.7-20.5,14.5 c-2.7,1.9-5.5,4-8.6,4.9c-6.9,2-14.2,2.6-20.8,5.2c-7.8,3.1-9.7,8.8-7.1,16.5c23.4-9.9,47-9.9,70.7-1.3c-22.8-3.9-45.3-5.3-67.8,3.9 c-0.1,1.1-0.3,2.6-0.4,4.1C39.7,562.9,39.8,564.4,39.8,567.4z"></path> <path style="fill:#FFFFFF;" d="M655.7,396.6c28.2,0,49.2,21.2,49,49.3c-0.2,28.2-21.8,49.5-50.1,49.3c-27.9-0.1-49.5-21.5-49.5-49.1 C605,417.7,626.6,396.6,655.7,396.6z M682.4,445.8c-0.1-16.4-12.1-29.1-27.4-29.2c-15.7-0.1-27.7,12.9-27.5,29.7 c0.2,16,12.7,29,27.8,28.9C670.7,475,682.5,462.2,682.4,445.8z"></path> <path style="fill:#FFFFFF;" d="M821.2,398.4c6.9,0,13.3,0,20.8,0c0,12.4,0,24.7,0,37c0.7,0.2,1.3,0.5,2,0.7 c7.5-8.2,16-15.7,22.3-24.8c9.3-13.4,21.5-15.7,37.5-12.1c-12.4,13.3-24.5,26.2-36.8,39.5c12.9,17.9,25.7,35.7,39.6,55 c-9.1,0-16.2,0.4-23.2-0.2c-2.2-0.2-4.7-2.8-6.2-4.9c-8.3-11.3-16.4-22.8-25-34.7c-5.1,5.7-11.1,9.6-10.1,18.2 c0.8,6.8,0.2,13.7,0.2,21.1c-7.3,0-13.9,0-21,0C821.2,461.8,821.2,430.5,821.2,398.4z"></path> <path style="fill:#FFFFFF;" d="M806.5,493.7c-6.2,0-12.1,0.5-17.9-0.3c-2.2-0.3-4.7-3.3-5.7-5.7c-6.7-15.4-6.5-15.5-23.2-15.5 c-1.3,0-2.6,0-3.9,0c-17.1,0-17.3-0.1-23.7,15.6c-1.8,4.5-4.2,6.4-9.1,6c-4.6-0.4-9.2-0.1-15.4-0.1c4-9.6,7.4-18,10.9-26.3 c9.1-21.7,18.3-43.3,27.1-65c1.7-4.1,4-5.9,8-5.1c5.3,1,12.4-3.6,15.6,4.3c12.3,29.4,24.5,58.9,36.7,88.4 C806.5,490.9,806.3,491.9,806.5,493.7z M757.4,424.2c-4.2,10.6-7.7,19.4-11.4,28.7c7.9,0,14.9,0,22.7,0 C765,443.4,761.6,434.6,757.4,424.2z"></path> <path style="fill:#FFFFFF;" d="M920.8,465.6c9.2,3.6,17.2,7,25.3,9.7c2.7,0.9,6.5,0.7,9-0.6c3-1.6,6.3-4.5,7.2-7.5 c0.5-1.8-2.8-6-5.3-7.1c-6.7-3-14-4.9-21-7.3c-18-6.1-24.3-14.6-22.5-30.7c1.6-14.2,11.9-23.6,28.6-25.2c12.4-1.2,24,1.9,34.6,8.5 c3.6,2.2,4.7,4.5,1.8,7.9c-1,1.2-1.9,2.5-2.5,3.9c-3,6.7-6.5,8.1-13.6,4c-5.4-3.2-12.5-4.5-18.9-4.7c-2.8-0.1-7.2,4.2-8,7.2 c-0.6,2.1,3.2,6.8,6.1,8.1c7.7,3.3,16.2,5,24.1,8c16.3,6.3,22.3,20.3,16.4,36.7c-3.5,9.5-10.9,14.9-20.3,17.1 c-17.3,4-33.1-0.1-47.5-10.1c-4-2.7-4.1-5.2-1-8.6C916.1,471.6,918.7,468.2,920.8,465.6z"></path> <path style="fill:#FFFFFF;" d="M481.5,477.8c4.8-4.3,9.4-8.4,14.4-13c1.7,1.5,3.5,3.9,5.8,4.9c5.6,2.3,11.3,5,17.1,5.6 c6.1,0.6,10.9-3.1,11.5-9.9c0.6-6.4-3.2-10.2-9-11.5c-5.5-1.2-11.1-1.4-16.7-2.1c-4-7.8-4.4-14.6,3.5-20.7 c4.6-3.6,8.2-8.4,13.5-13.9c-12.1,0-22.9,0-34.4,0c0-6.7,0-12.4,0-18.6c20.5,0,41,0,62.1,0c1.5,8.3,2.5,16.1-5.6,22.5 c-5.4,4.3-9.6,9.9-14.6,15.1c0.4,0.3,1,1,1.9,1.3c14.9,5.3,20.2,11.8,20.6,25.2c0.4,14.1-5.8,24-18.8,29.6 C516.2,499.7,492.6,493.3,481.5,477.8z"></path> <path style="fill:#FFFFFF;" d="M685.4,565.9c-7.5,2.2-9.4-0.3-9.2-6.5c0.4-10.6,0.1-21.3,0.1-31.7c13.9-4.7,13.3,8.9,19.7,13.6 c6.9-3.5,5.7-18.3,19.7-13.7c0,11.7,0.1,23.6-0.2,35.5c0,1.2-2.9,3.4-4.5,3.3c-1.4,0-3.8-2.4-4-3.8c-0.5-6-0.2-12-1.8-18.5 c-2.8,4.1-5.6,8.1-9.1,13.3c-3.5-5-6.6-9.3-10.8-15.2C685.4,551.3,685.4,558.5,685.4,565.9z"></path> <path style="fill:#FFFFFF;" d="M875.3,527.4c3.6,0,5.9,0,9,0c0,12,0.1,23.7-0.1,35.4c0,1.2-2.1,3.5-2.9,3.4 c-2.3-0.4-5.1-1.3-6.5-2.9c-5.2-6.2-10-12.8-16-20.7c0,8.5,0,15.5,0,23.3c-3.3,0.2-5.9,0.3-9,0.4c0-13.4,0-26,0-39.4 c15.1-0.3,15.2,15.9,25.5,21.4C875.3,541.5,875.3,534.8,875.3,527.4z"></path> <path style="fill:#FFFFFF;" d="M517,531.1c-2.2,5.1-4.4,8.1-10.4,4.7c-4.6-2.6-10.6-1.6-12.7,3.3c-1.8,4.1-2.3,10.3-0.4,14.1 c1.4,2.9,7.4,4,11.6,4.9c1.5,0.3,3.6-2.5,7.2-5.2c-5.1-0.9-7.5-1.4-9.9-1.8c-1.3-8.7,0.8-9.6,15.5-7.1c3.5,14.3,1.2,19.9-9.5,22.7 c-11.1,2.9-22.6-2.6-25.7-12.4c-3.7-11.5,1.7-23.7,12.1-27.2C502.7,524.4,510.2,525.6,517,531.1z"></path> <path style="fill:#FFFFFF;" d="M981.9,543.5c0.2,2.5,0.3,4,0.4,5.5c0.3,13-1.8,16-12.2,18.1c-11.1,2.2-20.7-2.8-24.3-12.6 c-3.4-9.2-0.2-19.9,7.6-25.2c8.1-5.5,18.2-4.8,26.5,2.1c-1.7,4.7-3.5,8-9.7,4.6c-4.7-2.6-10.4-1.8-12.9,3.1c-1.9,3.8-2.7,9.7-1,13.3 c1.5,3.1,7,4.7,11.1,5.8c1.6,0.4,4-2.2,6.1-3.4c-0.2-0.7-0.4-1.3-0.7-2c-2.3-0.5-4.7-1-7.5-1.7c0-2.3,0-4.7,0-7.5 C970.7,543.5,976,543.5,981.9,543.5z"></path> <path style="fill:#FFFFFF;" d="M617.6,565.7c-5.4,1.7-9.5,2.1-11.1-3.6c-1.5-5.3-5.7-4.7-9.3-4.1c-3.3,0.5-8.1,1.5-9.3,3.9 c-2.7,4.9-5.6,6-11.5,3.8c5.3-12.5,10.3-24.9,15.9-37.1c1.7-3.8,8.3-3.5,10,0.4C607.6,541,612.4,553.2,617.6,565.7z M601.5,549.5 c-1.6-3.8-2.7-6.5-4.5-10.9c-1.9,4.7-3.1,7.6-4.5,10.9C595.9,549.5,598.1,549.5,601.5,549.5z"></path> <path style="fill:#FFFFFF;" d="M778.5,527c2.7,0,5.1,0,8.1,0c0,13.1,0,25.9,0,39.4c-2.5,0.2-5,0.3-8.1,0.5 C778.5,553.4,778.5,540.4,778.5,527z"></path> <path style="fill:#FFFFFF;" d="M103.5,396.9c2,10.7-1.2,16.6-10.4,20.4C97,409.5,100.3,403.2,103.5,396.9z"></path> <path style="fill:#FFFFFF;" d="M363.1,470.2c4-5.4,7.2-11.5,12.1-15.8c3.9-3.4,5.3-6.8,5.7-11.5c0.2-1.5,2.7-2.9,4.2-4.3 c0.9,1.8,2.9,3.8,2.7,5.5c-1.7,11-5.8,20.9-16.4,26.5c-2,1.1-4.7,1-7.1,1.5C363.9,471.4,363.5,470.8,363.1,470.2z"></path> <path style="fill:#FFFFFF;" d="M245.4,485.1c0,8.6-2.9,15.8-11.6,20c3.2-6.8,6.5-13.7,9.7-20.5C244.2,484.7,244.8,484.9,245.4,485.1 z"></path> </svg> 