<?xml version="1.0" encoding="UTF-8"?> <svg xmlns="http://www.w3.org/2000/svg" xmlns:xlink="http://www.w3.org/1999/xlink" version="1.1" id="Layer_1" x="0px" y="0px" viewBox="0 0 1000 1000" style="enable-background:new 0 0 1000 1000;" xml:space="preserve"> <path style="fill:#FFFFFF;" d="M488.6,393.4c6,5.2,12.4,10,18.1,15.5c13.1,12.6,25.6,25.7,38.8,38.1c5.7,5.3,5.4,15.7,0.1,20.8 c-16.8,16.3-33.3,32.8-50,49.1c-6,5.9-14.6,6.1-20.4,0.5c-16.8-16.3-33.3-32.9-50.1-49.2c-5.7-5.5-5.7-16.4,0.2-22.1 c16.4-15.9,32.6-32.1,49.1-47.9c2.4-2.3,6-3.3,9.1-4.9C485.2,393.4,486.9,393.4,488.6,393.4z M496.1,491.4c0.1-5.6-4.8-10.8-10.4-11 c-5.3-0.2-10.4,4.7-10.7,10.2c-0.2,5.1,5,10.6,10.2,10.8C490.8,501.5,496.1,496.6,496.1,491.4z M508.7,457.6 c0.1,5.9,4.8,10.3,10.9,10.3c5.2,0,10-4.9,10.1-10.3c0.1-4.7-5.9-11-10.7-10.6C513.3,447.6,508.5,451.8,508.7,457.6z M461.8,457.5 c0.1-6.2-4.2-10.6-10.3-10.7c-5.7-0.1-10.3,4.5-10.4,10.2c0,5,5.3,10.5,10.1,10.5C457.3,467.5,461.8,463.2,461.8,457.5z M485.9,467.9c5.6-0.1,10.3-4.7,10.2-10c-0.1-5.5-5.6-11.1-10.7-10.9c-5,0.2-10.3,5.5-10.3,10.3C475.2,463.1,480.2,468,485.9,467.9z M474.8,423.6c0,5.9,4.6,10.7,10.4,10.8c5.4,0,10.2-4.8,10.4-10.5c0.1-4.7-5.4-10.3-10.2-10.4C479.6,413.5,474.9,418,474.8,423.6z"></path> <path style="fill:#FFFFFF;" d="M872.6,504.5c-19.6,0-39.2,0-58.8,0c-5,0-5.3-0.6-4.4-5.2c3.9-19.6,7.6-39.2,11.4-58.8 c1.9-9.9,3.9-19.9,5.9-29.8c0.5-2.7,2.2-3.1,4.6-3c16.4,0.1,32.8,0,49.2,0c23.3,0,46.5,0,69.8,0c4.4,0,4.9,0.6,4.1,4.8 c-4.3,21.9-8.7,43.8-13,65.7c-1.4,7.1-2.7,14.2-3.8,21.3c-0.6,3.6-2,5.2-6,5.1C911.8,504.3,892.2,504.5,872.6,504.5z M840.6,422.6 c0.1,1.2,0,1.9,0.2,2.5c2.5,8.5,4.8,17.1,7.5,25.5c1,3.2,0.6,5.6-1.5,8.4c-6.8,8.8-13.2,17.9-19.7,26.9c-0.7,0.9-1.1,2-1.9,3.5 c5.4,0,10-0.1,14.6,0.1c2.7,0.1,4.3-0.8,5.8-3.1c2.8-4.4,5.9-8.6,9.4-13.7c1.6,5.4,2.8,9.7,4.3,14c0.4,1.1,1.9,2.6,2.9,2.6 c4.6,0.3,9.2,0.1,14.2,0.1c-0.3-1.6-0.3-2.9-0.7-4c-2.6-8.3-5.1-16.7-7.8-25c-1-3-0.6-5.4,1.4-8.1c5.6-7.4,10.9-15.1,16.3-22.7 c0.6-0.9,1-1.9,1.5-2.9c1.6,1.7,2.1,2.6,2.2,3.4c2.1,10.2,4.2,20.4,6,30.6c0.5,2.8,0.5,5.8,0,8.6c-1.1,6.5-2.7,12.9-4.1,19.5 c1,0.3,1.5,0.6,2,0.6c13.7,1.1,14.1,0.7,16.6-12.9c0.9-4.7,1.8-9.8,4.1-13.8c7.2-12.2,15.1-24,22.7-36c0.7-1.1,1.3-2.3,2.3-4.2 c-5.2,0-9.6-0.2-14,0.1c-1.1,0.1-2.4,1.3-3.1,2.4c-2.5,3.8-4.8,7.8-7.3,11.6c-1.8,2.7-3.6,5.4-6.2,9.2c-1.4-7.4-2.7-13.4-3.8-19.5 c-0.5-2.8-1.6-4-4.7-3.9c-6.6,0.3-13.2,0.5-19.7,0c-5.5-0.4-8.9,1.2-11.4,6.1c-1.8,3.6-4.5,6.7-7.4,11c-1.5-5.5-2.5-9.8-3.8-14.1 c-0.3-1.1-1.5-2.7-2.3-2.8C850.5,422.5,845.7,422.6,840.6,422.6z"></path> <path style="fill:#FFFFFF;" d="M77.1,469.3c4.6,6.7,9.3,13.6,14.5,21.2c-7.7,0-14.4,0.1-21-0.1c-1,0-2.2-1.6-2.9-2.7 c-3-4.2-5.8-8.5-8.8-12.7c-1.7-2.4-8.5-4.1-11-2.5c-0.7,0.5-1.1,1.8-1.1,2.8c-0.1,3.9-0.1,7.8,0,11.7c0.1,2.7-1.1,3.9-3.7,3.9 c-4.6,0-9.3,0.2-13.9-0.2c-1.2-0.1-3.1-2.1-3.1-3.2c-0.2-21.3-0.2-42.6,0-63.9c0-1.1,1.6-3.1,2.5-3c13.5,0.2,27.2-0.1,40.6,1.4 c10.7,1.2,18.4,8,20.4,18.8c2.1,11.3-0.8,21.3-11.8,27.4C77.6,468.2,77.5,468.5,77.1,469.3z M46.9,436.7c0,6.2-0.1,11.9,0.1,17.7 c0,0.8,1.5,2.1,2.3,2.1c4.3,0,8.7,0.1,12.9-0.7c5.1-0.9,8-5.2,7.5-10c-0.5-5.4-3.9-8.8-9.5-9.1C56,436.6,51.8,436.7,46.9,436.7z"></path> <path style="fill:#FFFFFF;" d="M566.8,420.9c12.7,0,24.9-0.6,37,0.2c6.5,0.4,13.3,2.2,19,5.2c13.9,7.5,18,20.4,16.1,35.1 c-1.8,13.3-9.7,22.3-22.6,26.3c-5.1,1.6-10.6,2.3-16,2.5c-10.1,0.4-20.1,0.1-30.2,0.1c-2.8,0-3.6-0.6-3.5-3.9 c0.4-16.8,0.2-33.7,0.2-50.5C566.8,431.2,566.8,426.3,566.8,420.9z M586.6,455.6c0,5.3,0.1,10.6,0,15.9c0,2,0.2,3.2,2.6,3.1 c4.8-0.1,9.5,0.2,14.3-0.2c8.2-0.7,14.8-7.7,15.5-16.1c0.9-10.3-3.6-18.5-12.4-20.5c-5.2-1.2-10.8-1-16.2-1.4 c-3.2-0.3-4.1,1.2-3.9,4.2C586.8,445.6,586.6,450.6,586.6,455.6z"></path> <path style="fill:#FFFFFF;" d="M290.1,490.4c-7.4,0-14.3,0.1-21.3-0.1c-1.2,0-2.7-1.3-3.6-2.4c-4.2-5-8.2-10.1-12.5-15.3 c-3.8,2.2-6,4.7-5.8,9.3c0.3,8.5,0.1,8.5-8.6,8.5c-2.7,0-5.3-0.1-8,0c-2.6,0.2-3.4-1-3.4-3.5c0.1-22.3,0.1-44.6,0-66.9 c0-2.6,1-3.4,3.5-3.3c4.3,0.1,8.7,0.2,13,0c2.8-0.1,3.7,0.9,3.6,3.6c-0.1,10.4-0.1,20.9-0.1,31.3c0,0.5,0.1,1,0.3,2.5 c2.7-2.5,5.3-4.3,7-6.6c7.2-9.8,16.6-13.6,28.6-11.6c1.7,0.3,3.4,0.3,6.3,0.5c-6.8,7-12.6,13.3-18.8,19.3c-2.9,2.8-3.6,4.6-0.6,8.1 c6.9,7.9,13.3,16.4,19.8,24.7C289.9,488.8,289.9,489.3,290.1,490.4z"></path> <path style="fill:#FFFFFF;" d="M158.1,463.5c1.4,15.9-13.8,28.5-31.6,28c-14-0.5-25.1-7.9-28.7-20.2c-4.7-16.2,4.4-31.3,21.3-35.1 c7-1.6,14.1-1.4,21,1.3C152.3,442.1,158.1,450.4,158.1,463.5z M138.8,463.4c0.7-7.8-4.5-12.7-11.4-13.1c-6.3-0.3-11.3,5.8-11.3,13 c0,7.3,4.9,12.8,11.5,12.8C134.2,476.2,138.7,471.1,138.8,463.4z"></path> <path style="fill:#FFFFFF;" d="M311.1,469c3.1,7.3,11.8,10,19.9,6.3c1-0.5,2.1-0.9,2.9-1.6c1.9-1.6,3.4-1.2,4.9,0.6 c1.2,1.5,2.6,2.9,4,4.3c3.9,4.1,3.9,4.8-0.7,7.8c-14.2,9.3-38.7,5.8-47.5-9.1c-9.7-16.5,0.6-38.4,19.6-41.3 c10.4-1.6,19.7-0.3,27.7,6.8c6.5,5.9,9.1,13.4,8.7,22c-0.1,2.8-1.3,3.5-4.3,3.4c-10.8-0.4-21.5-0.3-32.3-0.3 C313.1,467.9,312.1,468.6,311.1,469z M311.2,457.6c7.1,0,13.8,0,20.6,0c-1.5-5.8-6-9.3-11.2-8.8C315,449.4,311.5,452.6,311.2,457.6z "></path> <path style="fill:#FFFFFF;" d="M756.3,468.7c6,8.6,14.7,10.6,22.7,5.6c3-1.9,4.7-1.5,6.6,1c1,1.3,2.3,2.4,3.5,3.6 c3.6,3.8,3.6,4.2-0.6,7.2c-13.6,9.6-37.1,6.3-46.5-7.1c-10.6-15.2-4-39.1,18.8-43.1c16.6-2.8,29.5,5.4,32.9,15.2 c1.6,4.5,1.8,9.4,2.4,14.2c0.4,2.9-2.1,2.4-3.8,2.4c-10.2,0-20.4,0-30.7,0.1C760.2,467.8,758.6,468.4,756.3,468.7z M767,458.2 C767,458.2,767,458.2,767,458.2c2.6,0.1,5.3-0.1,7.9,0.1c2.9,0.2,3.5-1,2.5-3.5c-1.4-3.1-6.6-6.4-10.2-6.1c-4.4,0.4-8,2.3-10.1,6.4 c-0.9,1.8-0.7,3.3,1.9,3.2C761.8,458.1,764.4,458.2,767,458.2z"></path> <path style="fill:#FFFFFF;" d="M164,463.6c-1.6-14.8,11.1-27.6,28.3-28.4c10.7-0.5,20.2,1.9,26.7,11.4c1.8,2.6,1.8,4.2-1.4,5.4 c-1.8,0.7-3.5,1.7-5.1,2.7c-3.9,2.5-7,3.3-10.5-1.3c-2.7-3.7-8.5-3.7-12.9-1.3c-4.2,2.3-6.6,7.9-5.7,13.3c0.8,4.9,3.3,8.4,8.3,10 c5.1,1.6,9.1-0.2,12.2-4.1c1.7-2.1,3.1-2.3,5.3-1.1c2.8,1.6,5.7,2.9,8.6,4.3c2.5,1.2,3.1,2.6,1.4,5.2c-5.9,9-15,12-24.9,11.8 c-9.5-0.2-18.4-3.2-24.7-11C165.4,475.5,163.2,469.8,164,463.6z"></path> <path style="fill:#FFFFFF;" d="M734,476.4c-4.7,11.2-17.9,17.2-31.9,14.7c-14.1-2.5-24.4-13.1-25.1-25.3 c-0.9-15.1,7.9-25.9,21.5-29.3c14.9-3.8,30.1,0.7,35.7,13.8c-4.5,2.2-9,4.6-13.6,6.7c-0.6,0.3-2.2-0.8-2.9-1.5 c-4.6-4.9-8.5-6-14.1-3.7c-4.4,1.8-7.6,7.1-7.3,12.1c0.4,6.1,4,10.7,9.3,12c4.7,1.2,8.7-0.3,11.5-4c2-2.7,3.7-2.5,6.3-1 C726.8,472.8,730.5,474.6,734,476.4z"></path> <path style="fill:#FFFFFF;" d="M380.8,437.8c3.4,0,6.2,0.1,8.9,0c2.1-0.1,3.1,0.7,3,2.9c-0.1,3.1-0.1,6.1,0,9.2 c0.1,2.2-0.9,2.8-3,2.9c-8.9,0.5-8.9,0.5-8.9,9.6c0,2.4,0,4.7,0,7.1c0.1,5.5,2.8,7.9,8,6.4c3-0.8,4.1,0.2,4.9,2.7 c3.5,10.6,5.3,11.8-7.8,13c-14.4,1.3-24.7-4.8-25-21.7c-0.1-5.5,0-11.1,0-16.5c-8.3-1.7-8.2-1.7-7.6-12.2c0.3-5.4,4.6-2.4,7.7-4 c0-2.9,0.1-6.3,0-9.7c-0.1-2.6,1.1-3.6,3.4-3.6c4.5,0,9-0.2,13.4,0.2c1.1,0.1,2.8,2,3,3.3C381.1,430.5,380.8,433.9,380.8,437.8z"></path> <path style="fill:#FFFFFF;" d="M667.8,490.4c-5.6,0-10.9,0.1-16.2-0.1c-0.8,0-2.3-1.4-2.3-2.1c-0.1-16.9-0.1-33.9-0.1-51.1 c6.3,0,12.3,0,18.6,0C667.8,454.7,667.8,472.3,667.8,490.4z"></path> <path style="fill:#FFFFFF;" d="M658.4,430.2c-7,0-11.6-3.9-11.6-9.8c0-5.9,5-10,11.8-10.3c5.7-0.3,12.2,4.5,11.6,10.3 C669.8,426.6,665.9,430.2,658.4,430.2z"></path> <path style="fill:#FFFFFF;" d="M401.6,489.4c-4.8,5.2-8.1,11.5-9,19.1c-0.8,6.5-1.6,12.9-2.7,19.4c-1.1,6.4-3,12.5-6.2,18.1 c-2.1,3.8-4.8,7.2-8.1,10c-0.5,0.4-0.9,0.9-1.4,1.4c-0.4,0.5-0.2,0.9,0.4,1c0.2,0.1,0.4,0.1,0.6,0.1c6.1,1,12.2,2,18.4,1.4 c4.1-0.4,8.2-1.3,12.2-2.5c6.4-1.9,12.7-4.1,18.5-7.6c3-1.8,5.8-4,8.3-6.5c0.1-0.1,0.2-0.2,0.3-0.3c0.6-0.3,1.3-0.9,1.8-0.8 c0.9,0.2,0.6,1.2,0.6,2c-0.2,4.7-2.1,8.8-5.1,12.4c-0.8,1-1.6,2-2.4,3c-0.5,0.6-1,1.3-0.5,2.1c0.5,0.8,1.4,0.7,2.1,0.6 c4.8-0.8,9.5-2.1,14-3.8c2.4-0.9,4.7-2,7-3c4.8-2.2,7.8-5.9,9.7-10.7c2.3-5.9,2.8-12,2.3-18.2c-0.8-8.2-3.3-15.8-8.2-22.4 c-0.8-1.1-2-2.1-3.1-3c-0.4-0.3-1.2-0.3-1.7-0.1c-0.2,0.1-0.2,1-0.2,1.5c0.2,3.1,0.6,6.2,0.5,9.2c-0.2,6.1-3.1,10.6-8.5,13.6 c-3.6,2-7.5,2.9-11.4,3.8c-6.3,1.4-12.7,2-19.1,1.8c-0.3,0-0.5,0-0.8-0.1c-2.2-0.3-3-1.8-1.7-3.6c3.3-5,5.1-10.5,5.8-16.4 c0.4-3.5,0.9-7,2.5-10.2c3.7-7.7,11.9-12,20.3-10.6c0.5,0.1,1,0.2,1.6,0.1c0.4,0,0.7-0.2,1.1-0.4c-0.2-0.4-0.3-0.8-0.5-1.1 c-1.1-0.9-2.2-1.7-3.4-2.4c-4.8-3-10-4.8-15.7-4.9C412.6,481.6,406.8,484.3,401.6,489.4z"></path> </svg> 