<?xml version="1.0" encoding="UTF-8"?> <svg xmlns="http://www.w3.org/2000/svg" xmlns:xlink="http://www.w3.org/1999/xlink" version="1.1" id="Layer_1" x="0px" y="0px" viewBox="0 0 1000 1000" style="enable-background:new 0 0 1000 1000;" xml:space="preserve"> <path style="fill:#FFFFFF;" d="M960.6,489.8c-17.5,61.1-81.3,90.3-141.8,64.8c-3.7-1.5-8-5.8-8.6-9.3c-3.8-21.6-6.7-43.5-10-65.9 c64.2,14.3,64.2,14.3,77.2,6.7c-3.9-2.5-6.6-5.2-9.7-6c-6.8-1.5-13.9-1.7-20.9-2.9c-40.7-6.7-61.2-27.9-63.1-65.1 c-1.9-37.9,18.4-67.8,56.9-74.8c23.5-4.3,48.6-0.9,73-0.2c9.4,0.3,13.8,6,14.8,15.9c2,19.5,5.4,38.8,8.4,59.6 c-24.7-3.7-46.8-13.9-71-1.4c45.1,7.5,88.6,16,94.8,71.6C960.6,485.2,960.6,487.5,960.6,489.8z"></path> <path style="fill:#FFFFFF;" d="M39.4,459.4c44.6-4,86.9-18.2,131.3-12.6c21.2,2.7,38,12.6,45.3,33.6c7.6,21.8,3.8,41.4-14.7,56.9 c10.5,7.5,20.7,14.9,32.6,23.4c-8-34.4-5.5-66.8,12.5-96.4c18.6-30.6,47.3-45.6,82.2-50.7c46.8-6.9,98.4,26.7,115.5,75.8 c18.7,53.8-3.2,113.5-51.2,139.1c-52.5,28-106.7,12.1-151-45.9c-0.6,3.9-1.3,6.3-1.3,8.7c-0.1,35.9-12.3,57.1-47.3,67 c-38.1,10.8-77.7,16.1-119,24.3C62.5,606.9,51.2,534.7,39.4,459.4z M369.2,531c0.7-17.7-12.2-32.9-28.5-33.5 c-15.9-0.6-28.8,12.9-29.2,30.4c-0.3,17,13.7,32.6,29.6,32.8C355.6,561,368.5,547.3,369.2,531z M141,576.2c2,11.4,3.7,21.2,5.5,31 c2.2,0.7,4.4,1.4,6.6,2.1c3.7-6.5,10.4-12.9,10.5-19.5C163.7,578.7,155,574.5,141,576.2z M136.5,509.6c-1.8,1.2-3.5,2.5-5.3,3.7 c1.3,7.4,2.7,14.8,4,22.3c1.8,0.5,3.6,0.9,5.4,1.4c2.7-5.3,7.9-10.9,7.5-16C147.8,516.9,140.7,513.4,136.5,509.6z"></path> <path style="fill:#FFFFFF;" d="M412.7,403.3c28.1-4.4,54.4-8.9,80.8-12.3c3.7-0.5,9.3,3.6,12,7.1c6.3,8.2,11.4,17.4,19.3,29.6 c3-12.3,5.9-21.4,7.3-30.6c1.5-9.7,6.4-13.6,16-14.8c21.9-2.7,43.8-6.3,69.2-10c-10.2,30.3-17.6,57.8-28.8,83.8 c-9.2,21.3-7.6,36.9,8.5,54.6c20.5,22.7,37.6,48.4,56.2,72.8c1.5-0.6,3.1-1.2,4.6-1.8c-10.8-69.2-21.6-138.4-32.8-210.6 c47.2-7.3,93.7-14.5,141.9-21.9c3.9,26.3,7.4,50.2,10.8,73.5c-19,10.5-42.1,1.9-57.9,15.7c0.4,1.7,0.8,3.3,1.2,5 c15.3-1.8,30.6-3.6,47.3-5.5c2.3,15.3,5.3,29.6,6.1,43.9c0.2,3.6-6.3,9.8-10.8,11c-11.4,3-23.4,3.9-34.9,8.6c21.3,9.2,42-4,64.9-0.6 c3.4,21.7,6.8,44,10.7,68.8c-31.6,5-62.1,9.9-92.5,14.5c-43.4,6.6-86.9,12.6-130.2,19.7c-10.2,1.7-16.4-0.1-21.6-9.3 c-6.6-11.4-14.7-21.9-24.2-35.7c-4.7,16.7-7.9,30.2-12.5,43.1c-1.7,4.7-6.3,11-10.4,11.8c-24,4.5-48.4,7.6-75.4,11.5 c12.8-37.3,23.4-72.3,37.1-106.1c6.6-16.3,2.1-27-7.5-39.1c-17.4-22-33.9-44.6-50.7-67C415.1,411,414.8,408.6,412.7,403.3z"></path> </svg> 