<?xml version="1.0" encoding="UTF-8"?> <svg xmlns="http://www.w3.org/2000/svg" xmlns:xlink="http://www.w3.org/1999/xlink" version="1.1" id="Layer_1" x="0px" y="0px" viewBox="0 0 1000 1000" style="enable-background:new 0 0 1000 1000;" xml:space="preserve"> <path style="fill:#FFFFFF;" d="M965.5,367.6c-30.3,37.3-60.6,74.6-91,111.9c-5.3,6.5-10.8,12.9-16.8,20c12.6,14.6,25.2,29,37.6,43.6 c2,2.3,4.7,6.5,3.9,8c-1.4,2.7-5.4,5.5-8.4,5.6c-10.2,0.5-21.3,2.2-30.5-0.9c-7.9-2.7-14-11.2-20.2-17.7c-7.1-7.5-7.7-7.9-14,0 c-15.5,19.2-30.9,38.5-46.2,57.8c-6,7.6-13.3,11.9-23.3,11.6c-7.6-0.2-15.2,0.7-22.7,0.4c-3.5-0.2-7-2.1-10.5-3.2 c1.4-3.4,2.1-7.4,4.3-10.1c14.6-18,29.5-35.7,44.3-53.5c9.8-11.8,19.6-23.6,29.7-35.1c4.2-4.8,4.2-8.4-0.1-13.1 c-10.2-11.1-20.2-22.3-29.8-33.9c-2.2-2.7-4.3-7.1-3.6-10c0.5-2.2,5.4-4.6,8.6-4.8c19-1.5,37.9-2,49,18.1c3.9,7,7.7,5.6,12.2,0 c19.1-23.6,38.3-47.1,57.7-70.5c5.9-7.1,11.4-13.5,23.4-12.2c7.7,0.8,16.5-5.2,24.4-8.9c5.9-2.8,11.2-6.8,16.8-10.3 C967.3,358.7,965.3,363.9,965.5,367.6z"></path> <path style="fill:#FFFFFF;" d="M123.5,552c-12-1.2-23.8-1.8-35.4-3.7c-6.4-1.1-8.6,1.5-8.7,6.7c-0.1,6.3,1.5,12.8,0.5,18.9 c-0.9,5.5-3,13.4-6.8,15.1c-5.8,2.6-13.9,1.7-20.5,0.1c-2.8-0.7-5.9-6.9-6-10.6c-0.4-40.9-0.4-81.8-0.2-122.7 c0.1-13.1,13.1-19.6,24.6-13.5c3.6,1.9,9.5,2.7,13.1,1.1c28.8-12,66,6.6,73.2,34.7c2.8,11.2,0.8,23.6,0.3,35.5 c-0.1,1.8-3.7,4.6-6,4.9c-21.1,3-23.6,5.3-26.3,25.8C125.2,545.8,124.7,547.3,123.5,552z M79.3,496.8C79.4,509,91,519.4,104.1,519 c11.7-0.3,24.2-11.3,24.4-21.4c0.3-12.8-12.6-25.6-25.5-25.5C90.4,472.3,79.2,483.9,79.3,496.8z"></path> <path style="fill:#FFFFFF;" d="M504.3,437.4c0,11.4,0.5,22.9-0.2,34.3c-0.4,6.6,1.7,8.8,8.1,8.1c5.1-0.6,10.4-0.1,15.3-1.3 c9.6-2.4,15.4-10.3,16.2-20.3c0.9-11.2,8.7-19,18.3-18.2c9.7,0.7,17.6,10.8,14.9,21.7c-2.4,9.7-6.6,19.1-11.3,28 c-2.5,4.7-2.5,7.5-0.3,12.2c4.6,9.6,8.8,19.5,11.6,29.7c2.7,9.7-3.7,18.2-13.4,19.9c-9.5,1.7-17.5-4.1-19.5-14.1 c-3.9-20-10.9-25.5-30.4-26.2c-7.9-0.3-9.5,3.7-9.7,9.6c-0.1,4.5,0.9,9,0.9,13.5c0,9.9-6.2,16.6-15.9,17.4 c-8.9,0.7-16.2-4.9-18.1-14.1c-0.3-1.5-0.4-3-0.4-4.5c0-22.6,0.4-45.1,0.1-67.7c-0.1-7,2.2-11.1,8.9-13.6 c8.6-3.1,12.9-10.1,12.8-18.9c-0.1-8.8-4.3-15.6-12.9-18.8c-6.1-2.2-9.7-5.5-8.6-12.5c1.2-7.9,2.1-15.9,11.5-18.5 c7.4-2,14.3-0.8,18.5,5.9c2.4,3.8,3.9,8.9,4.1,13.4c0.6,11.7,0.2,23.5,0.2,35.2C504.9,437.4,504.6,437.4,504.3,437.4z"></path> <path style="fill:#FFFFFF;" d="M629.6,447c17.5,23.5,28.7,23.5,49.1,0.3c24.8,9.7,37,35.9,29.5,65.9c-6.3,25.2-31.4,40.3-59.6,38.1 c-31.2-2.5-50-21.9-52.9-50.8C593.2,476.4,609.5,451.7,629.6,447z M653,473.6c-13.5,0-23.8,10.1-24.5,22.5 c-0.8,13.5,13.6,22.9,24.1,23.1c12.5,0.3,25.5-11,25.4-22.1C677.8,484.6,666.2,473.6,653,473.6z"></path> <path style="fill:#FFFFFF;" d="M332.4,481.2c34.4,2.9,45.9-9.8,35.2-35.1c31.3-18.6,78.6,8.3,78.9,46.4c0.1,14.2,0.5,28.3,0.2,42.4 c-0.2,11.4-6.3,17-16.9,16.6c-10.3-0.4-15.3-5.5-15.5-17c-0.2-11.4,0.4-22.9,0-34.3c-0.6-19.8-16.7-31.7-33.5-25.2 c-9.2,3.6-14.3,11.6-14.3,22.9c0,11.7,0.5,23.5,0.3,35.2c-0.2,7.5-2.4,14.2-10.7,17.1c-7.4,2.7-13.8,1-19.1-4.4 c-2.2-2.2-4.4-5.6-4.4-8.5C332.2,519.1,332.4,500.6,332.4,481.2z"></path> <path style="fill:#FFFFFF;" d="M215.1,459.2c-14.8,1.5-24.1,9.2-24.6,19.9c-0.6,15.8,7.1,25,23.8,28.2c0.1,11.1,1.3,12.2,12.5,11.3 c4.2-0.3,8.5-0.9,12.7-0.8c10.1,0.3,16.8,7.3,16.9,17.5c0.1,9.1-6,15.9-15.9,16.2c-15.1,0.5-30.3,0.5-45.4,0.2 c-8.4-0.2-12.1-5-12.1-13.5c-0.1-25.6-0.4-51.1-0.9-76.7c-0.3-12.5,5.3-20.8,15.2-21.6C208.1,439.2,213.7,445.2,215.1,459.2z"></path> <path style="fill:#FFFFFF;" d="M308.9,497.2c0,13.2,0.1,26.5,0,39.7c-0.1,8.4-5.7,13.9-14.8,14.9c-8.7,1-15.8-3.5-17.9-11.4 c-0.4-1.4-0.9-2.9-0.9-4.4c0-27-0.3-54.1,0.2-81.1c0.2-9.1,7.3-14.7,16.1-14.9c10-0.2,17.2,6.5,17.3,16.6 C309,470.1,308.9,483.6,308.9,497.2z"></path> <path style="fill:#FFFFFF;" d="M292.8,383.3c11-0.1,19.5,7.6,19.7,17.9c0.2,9.5-6.3,17.4-14.5,17.4c-17.7,0-24.7-4.7-25.1-17.4 C272.7,391.5,281.7,383.4,292.8,383.3z"></path> </svg> 