<?xml version="1.0" encoding="UTF-8"?> <svg xmlns="http://www.w3.org/2000/svg" xmlns:xlink="http://www.w3.org/1999/xlink" version="1.1" id="Layer_1" x="0px" y="0px" viewBox="0 0 1000 1000" style="enable-background:new 0 0 1000 1000;" xml:space="preserve"> <g> <path style="fill:#FFFFFF;" d="M241.2,576.9V141.3h141.1c53.5,0,88.3,2.2,104.6,6.5c25,6.5,45.9,20.8,62.7,42.6 c16.8,21.9,25.3,50.2,25.3,84.8c0,26.7-4.9,49.2-14.6,67.5c-9.7,18.2-22,32.5-37,42.9c-15,10.4-30.2,17.3-45.6,20.7 c-21,4.2-51.4,6.2-91.2,6.2h-57.3v164.3H241.2z M329.2,215v123.6h48.1c34.7,0,57.8-2.3,69.5-6.8c11.7-4.6,20.8-11.7,27.5-21.4 c6.6-9.7,10-21,10-33.9c0-15.8-4.7-28.9-14-39.2C461,227,449.2,220.6,435,218c-10.5-2-31.6-3-63.3-3H329.2z"></path> <path style="fill:#FFFFFF;" d="M646.5,576.9V141.3H730v435.6H646.5z"></path> </g> <g> <path style="fill:#FFFFFF;" d="M163.9,859.8V679.4h59.4c22.5,0,37.2,0.9,44,2.7c10.5,2.7,19.3,8.6,26.4,17.7 c7.1,9.1,10.6,20.8,10.6,35.1c0,11.1-2,20.4-6.1,27.9c-4.1,7.6-9.3,13.5-15.6,17.8c-6.3,4.3-12.7,7.2-19.2,8.6 c-8.8,1.7-21.6,2.6-38.4,2.6H201v68.1H163.9z M201,709.9v51.2h20.3c14.6,0,24.4-0.9,29.3-2.8c4.9-1.9,8.8-4.8,11.6-8.9 c2.8-4,4.2-8.7,4.2-14c0-6.6-2-12-5.9-16.2c-3.9-4.3-8.9-6.9-14.9-8c-4.4-0.8-13.3-1.2-26.6-1.2H201z"></path> <path style="fill:#FFFFFF;" d="M334.6,859.8V679.4h35.2v180.5H334.6z"></path> <path style="fill:#FFFFFF;" d="M405.8,711.4v-32h35.2v32H405.8z M405.8,859.8V729.1h35.2v130.7H405.8z"></path> <path style="fill:#FFFFFF;" d="M597.8,859.8h-35.2v-66.7c0-14.1-0.8-23.2-2.3-27.4c-1.5-4.1-3.9-7.4-7.3-9.7 c-3.4-2.3-7.4-3.4-12.2-3.4c-6.1,0-11.6,1.6-16.4,4.9c-4.8,3.3-8.2,7.6-9.9,13c-1.8,5.4-2.7,15.4-2.7,30v59.2h-35.2V729.1h32.7 v19.2c11.6-14.8,26.2-22.2,43.8-22.2c7.8,0,14.8,1.4,21.3,4.1c6.4,2.8,11.3,6.3,14.6,10.5c3.3,4.3,5.6,9.1,6.9,14.5 c1.3,5.4,1.9,13.2,1.9,23.3V859.8z"></path> <path style="fill:#FFFFFF;" d="M632.2,859.8V679.4h35.2v95.8l41.2-46h43.3l-45.4,47.8l48.7,83h-37.9l-33.4-58.7L667.4,818v41.9 H632.2z"></path> <path style="fill:#FFFFFF;" d="M767.8,792.6c0-11.5,2.9-22.6,8.6-33.4c5.8-10.8,13.9-19,24.5-24.6c10.6-5.7,22.3-8.5,35.3-8.5 c20.1,0,36.6,6.4,49.4,19.3c12.8,12.8,19.3,29.1,19.3,48.7c0,19.8-6.5,36.2-19.5,49.2c-13,13-29.3,19.5-49,19.5 c-12.2,0-23.8-2.7-34.8-8.1c-11.1-5.4-19.5-13.4-25.2-23.8C770.7,820.4,767.8,807.7,767.8,792.6z M803.9,794.5 c0,13,3.1,22.9,9.4,29.8s14,10.3,23.1,10.3s16.9-3.4,23.1-10.3c6.2-6.9,9.3-16.9,9.3-30c0-12.8-3.1-22.6-9.3-29.5 c-6.2-6.9-13.9-10.3-23.1-10.3s-16.9,3.4-23.1,10.3S803.9,781.5,803.9,794.5z"></path> </g> </svg> 