<?xml version="1.0" encoding="UTF-8"?> <svg xmlns="http://www.w3.org/2000/svg" xmlns:xlink="http://www.w3.org/1999/xlink" version="1.1" id="Layer_1" x="0px" y="0px" viewBox="0 0 1000 1000" style="enable-background:new 0 0 1000 1000;" xml:space="preserve"> <path style="fill:#FFFFFF;" d="M559.6,657.6c5.5-10.4,10.8-21,16.7-31.3c6-10.3,12.6-20.3,18.4-29.7c34.5,0,68.8,0.2,103.2-0.1 c19.3-0.2,27.7-7.3,29.9-26.3c1.3-12-0.6-24.3,0.7-36.2c1.2-11.3,5.2-22.3,7.2-33.6c3.3-18.6,6.4-37.3,9-56.1 c2.2-16.1-9.7-26.6-30.1-27.1c-8.3-0.2-16.5-0.3-24.8,0.1c-8.1,0.4-16.2,1.4-25.7,2.3c0-26.7,0-52.9,0-80.1c43,0,87,0,133.1,0 c0,26.5,0,53.2,0,79.8c1,0.2,2,0.4,3,0.6c15.6-23.5,31.5-46.8,46.6-70.6c5.2-8.1,10.8-11.5,20.8-11.3c30.4,0.7,60.8,0.3,91.3,0.3 c3.6,0,7.2,0.3,12.8,0.6c-6.8,10-12.5,18.6-18.3,27c-23.1,33.3-46.5,66.3-69,100c-4.2,6.3-7,15.2-6.4,22.6 c3.5,43.6,8.3,87,12.2,130.5c1.1,12.7,0.6,25.6,0.8,38.4c-42.1,0-84.1,0-126.2,0c-0.8-2.4-2.2-4.8-2.3-7.3 c-1.6-28.7-3-57.4-4.4-86.1c-0.2-5,0-10,0-17.2c-21.9,38.3-42.5,74.4-63.2,110.5C649.7,657.6,604.6,657.6,559.6,657.6z"></path> <path style="fill:#FFFFFF;" d="M285.3,437.5c25.7-20.8,49.1-21.2,68.6-3.6c13.8-4.4,26-9.9,38.9-11.9c13.4-2,25.8,3.1,35.6,13.8 c21.3-17.3,43.5-19,66.8-5.3c17.3-10.2,95.7-8.6,113.6,2.2c15.3-11.3,39-12.1,52.8-3.4c9.6-2,16.9-4.3,24.4-4.8 c11.2-0.7,22.5-0.6,33.8-0.1c13.9,0.7,19.1,7.9,16.5,21.5c-1.1,5.5-1,11.3-2.8,16.5c-2.1,6.2-5.7,12-9.5,19.6 c8.6,15,1.7,43.9-15.6,48.9c12.1,4,15.6,11.9,13.1,22.7c-2.1,9-3.1,18.6-7.1,26.7c-1.7,3.5-9.5,5.5-14.5,5.7 c-22.5,0.6-45-0.5-67.5,0.5c-22.3,0.9-44.4-3.6-67-0.8c-22.2,2.8-45,0.9-67.5,0.4c-6.8-0.1-13.5-2.8-20.4-3.6 c-2.6-0.3-5.5,0.9-8.1,1.9c-20.7,8.4-40,8.1-55.3-6.8c-13.9,4.4-26.5,10.5-39.7,12c-13.6,1.6-26.1-4.6-35.5-16 c-17.9,15.7-37.9,22.2-59.1,11C258,573.3,258,552,261.1,530.5c-9.8-0.6-14.2,3.1-14.9,12.4c-0.7,9.6-2.9,19.2-4.4,28.8 c-1.5,9.5-6.8,14.6-16.7,14.6c-41.3-0.1-82.5-0.1-123.8-0.1c-12.4,0-24.8,0.4-37.1,0.1c-12.6-0.3-18-6.4-16.1-18.7 c6.6-42.8,13.6-85.6,20.4-128.3c1.5-9.6,7.5-14.7,17-14.5c25.7,0.3,51.5,1.2,77.2,1.5c5.9,0.1,11.9-1.5,17.8-1.6 c23.5-0.2,47.1-0.4,70.6,0C263.7,424.8,276,426.9,285.3,437.5z M169.4,505c1.9,0.4,3.7,0.9,5.6,1.3c-3.4,21.6-6.8,43.2-10.2,65 c8.8,0,15.5,0,22.6,0c7-43.7,13.9-86.8,20.8-130c-31.8-5-32.2-4.7-40.8,22c-3.1,9.6-6.1,19.2-9.1,28.8c-0.8-0.2-1.6-0.4-2.3-0.5 c0-17,0-33.9,0-51.8c-8.9,0-17.1,0.3-25.3-0.1c-6.2-0.3-8.3,2.1-9.1,8.2c-3.4,25.1-7.3,50.1-11.3,75c-2.6,16-5.6,31.9-8.5,48.2 c8.7,0,15.6,0,22.7,0c3.8-22.4,7.4-44.2,11.1-66c1.8,0.2,3.5,0.5,5.3,0.7c-1.2,21.8-2.3,43.7-3.5,65.6c6.2,0,10.6,0,15.5,0 C158.4,549.1,163.9,527.1,169.4,505z M592.2,497.9c11-7.5,16.5-23.5,12.9-41c-1.9-9.1-6.9-14.9-16.4-15.6 c-10.4-0.8-20.9-0.7-31.4-1.6c-7.2-0.6-9.6,2.4-10.6,9.3c-4,28.4-8.5,56.8-13,85.1c-1.9,12.3-4.2,24.5-6.5,37.3 c16.5,0,31.1,0.2,45.7-0.1c10.3-0.2,17.2-5.7,19.4-15.6c2.6-11.6,5.1-23.4,5.7-35.2C598.3,513.7,594.6,506.6,592.2,497.9z M349.6,474.2c0.1-30.4-15.9-42.2-37.5-35.3c-13.6,4.4-22.6,14.1-25.1,27.7c-4.9,27.1-9.1,54.3-12,81.6c-1.8,17,8.5,26.4,25.6,26.8 c15.3,0.3,30.3-8.8,33.9-24.3C341.1,522.9,345.7,494.6,349.6,474.2z M418.4,477.7c0.5-11.8,6.4-24.1-4.4-33.8 c-10.7-9.5-23.9-9.4-35.8-3.1c-6.4,3.4-12.6,9.9-15.8,16.4c-11.6,23.9-7.7,39.1,12.4,56.9c0.6,0.5,1.1,1.1,1.7,1.5 c11.9,7.8,11.8,19.1,7.9,30.7c-1.1,3.1-5.4,5.2-8.3,7.7c-1.6-3.3-4.3-6.5-4.5-9.8c-0.3-5.7,1-11.4,1.6-17.1 c-23.5-2.3-24.3-1.4-25.3,20.9c-0.5,10.2,1.4,18.5,11.1,23.7c18.4,9.8,43.4-0.8,48.8-21c6.6-25,7.1-48.1-18.4-64.4 c-9.4-6-7.4-15.6-4.2-24.3c0.7-2,4.5-2.9,6.8-4.3c1.2,2.4,3.2,4.8,3.3,7.3c0.1,4-1.1,8-1.8,12.7 C401.8,477.7,409.5,477.7,418.4,477.7z M422.2,526.8c-1.1,7.4-3.5,14.6-2.7,21.4c0.9,7.3,2.8,16.2,7.7,20.8 c14,13.1,44.2,5.3,50.1-13c3.7-11.5,4.7-24.1,5.4-36.2c0.9-14.8-9.8-23.3-20.1-31.8c-8.5-7-11.1-17.6-6.1-25.8 c1.3-2.1,4.5-3.1,6.8-4.6c1.1,2.4,3.1,4.9,3.2,7.3c0.1,4.2-1,8.4-1.6,12.8c8.9,0,16.6,0,25,0c0.4-7.7,2.2-15.1,0.8-21.7 c-1.2-5.5-5.1-12-9.7-14.9c-15.6-9.6-37.9-2.5-46.4,13.7c-12.5,23.9-9,41.7,11.5,58.9c1.4,1.2,2.8,2.5,4.1,3.8 c8.1,7.9,10.4,20.8,4.8,30.6c-1.5,2.6-5.5,3.8-8.3,5.7c-1.3-2.7-3.6-5.5-3.7-8.2c-0.1-6.1,1-12.3,1.7-18.9 C436.8,526.8,429.8,526.8,422.2,526.8z M226.4,571.4c0.6-2,1.1-3,1.3-4.1c1.8-12.6,4.3-25.1,5.2-37.7c0.6-9,2.8-13,13.1-13 c15.4-0.1,23.6-7.2,26.3-21.1c2.2-11.3,3.7-22.9,4.4-34.4c0.8-12-4.3-18.2-16.6-19.8c-9.6-1.3-19.5-0.7-29.2-1.5 c-6.9-0.5-9.9,1.8-10.9,9c-4.2,29.6-8.9,59-13.6,88.5c-1.8,11.2-3.9,22.4-6.1,34.2C210.2,571.4,218,571.4,226.4,571.4z M697.7,491 c-1.9-21.9-0.1-24.3,20.9-27.7c0.8-7.3,1.5-14.8,2.4-23.5c-11.4,0-21.5,0.7-31.4-0.2c-9.7-0.9-13.2,2.8-14.3,11.9 c-3,22.9-6.6,45.7-10.2,68.5c-2.7,16.9-5.6,33.7-8.6,51.3c16.2,0,31.4,0,47.2,0c1-8.1,1.9-15.6,2.9-23.7c-7.1-0.4-13-0.7-20.2-1.1 c1.4-9.5,2.3-17.9,4.1-26.2c0.4-2,3.5-4.6,5.7-5c14.1-2.5,17.4-6.9,15.5-23C707,491.9,702.2,491.4,697.7,491z M623.7,440.3 c-6.9,44-13.6,87.3-20.5,131c14.9,0,28.6,0,43.2,0c1.2-7.9,2.3-15.4,3.6-23.4c-5.8-0.6-10.4-1.1-16.7-1.8 c5.6-35.4,11-70.1,16.6-105.7C640.3,440.3,632.9,440.3,623.7,440.3z M88.6,571.4c6.8-43.7,13.7-87.1,20.6-131.2 c-10.2,0-17.6,0-26.2,0c-6.7,43.8-13.4,87.3-20.1,131.2C72.2,571.4,80,571.4,88.6,571.4z M508.6,440.2c-7,43.6-13.9,87.2-20.9,130.9 c9.5,0,17.6,0,26,0c7.1-43.8,14-87,21.1-130.9C525.4,440.2,518.4,440.2,508.6,440.2z"></path> <path style="fill:#FFFFFF;" d="M556.7,552.3c1.6-13.5,2.9-25.2,4.6-36.8c0.2-1.5,3-3.9,4.4-3.8c2.6,0.3,6,1.5,7.4,3.5 c3.5,5-3.5,31.7-8.8,35C562.9,551.1,560.9,551.2,556.7,552.3z"></path> <path style="fill:#FFFFFF;" d="M567.1,491.1c1.1-9.3,1.9-18.1,3.3-26.8c0.3-1.6,2.6-4,4.1-4.1c1.8-0.1,4.3,1.4,5.5,3 c3.7,5-2,25.6-7.7,28.3C571.2,491.9,569.5,491.3,567.1,491.1z"></path> <path style="fill:#FFFFFF;" d="M299.7,546.7c4.8-28.6,9.2-55.7,14.1-82.8c0.4-2.3,4.3-3.9,6.6-5.9c0.9,2.5,2.9,5.2,2.6,7.6 c-3.8,26.1-7.9,52.1-12,78.1c-0.2,1.1-0.2,2.4-0.9,3.2c-2,2.3-4.3,4.4-6.4,6.6C302.3,551.1,300.8,548.5,299.7,546.7z"></path> <path style="fill:#FFFFFF;" d="M239.8,496c1.5-11.2,2.7-21,4.3-30.8c0.3-1.7,2.2-3.8,3.8-4.5c1.1-0.4,3.6,0.9,4.7,2.2 C257.4,468.9,249.1,493.1,239.8,496z"></path> </svg> 