<?xml version="1.0" encoding="UTF-8"?> <svg xmlns="http://www.w3.org/2000/svg" xmlns:xlink="http://www.w3.org/1999/xlink" version="1.1" id="Layer_1" x="0px" y="0px" viewBox="0 0 1000 1000" style="enable-background:new 0 0 1000 1000;" xml:space="preserve"> <path style="fill:#FFFFFF;" d="M540.5,247.7c2.7,1.5,5.4,3,8.5,4.7c-9.7,9.6-6.9,22.5-8.2,34c-3.6,31-5.7,62.2-8.4,93.3 c-0.6,7.3-2.2,14.6-1.9,21.8c0.1,3.6,2.5,9,5.3,10.2c3.6,1.5,9.3,0.9,13-1c10.1-5.1,19.5-11.4,31.4-18.6c0,5,0.2,8,0,10.9 c-0.7,7.6,4.5,13.6,12.2,13.7c12.4,0.3,25.9-12,27-24.4c1-11.3-7.1-18.3-17.5-13.9c-10.7,4.5-21,10.1-31.2,15.8 c-6.5,3.6-10.2,2.6-15.2-3.5c-18.1-22.3-8.9-55.3,13.9-72.3c14.3-10.7,29.3-19.5,48.1-17.9c10.3,0.9,20.2,3.2,27.2,11.9 c4.5,5.6,4.5,10-2.1,14.3c-11.1,7.3-21.9,15.2-34.3,23.9c1.1-7.5,2.5-13,2.5-18.5c0-2.3-2.7-6.2-4.7-6.5c-11.2-2-23.3,9-23.5,20.5 c-0.2,10.1,6,14.9,15.2,10.7c12.1-5.5,23.8-12,35.3-18.6c6.7-3.9,9.6-1.8,13.9,4.1c12.1,16.3,10.4,34,6.4,51.7 c-3.2,14.4-14.7,23.8-25.6,32.2c-20.4,15.7-44,21-69.4,14.8c-5.7-1.4-10.8-4.8-16.1-7.2c-7.5,5.3-14.8,14-23.2,15.3 c-7.7,1.2-16.6-5.8-26.8-9.9c-5.5,4.3-13.8,9.9-20.9,16.6c-9.1,8.6-18.1,6.6-27.3,1.5c-24.7-13.9-33.4-37.7-24.2-66.3 c6.8-21,21-36.9,36.5-51.9c0.6-0.6,1.4-1.1,2-1.8c11.3-12.2,23.8-19.1,41.5-7.1c0.5-12,1.1-22.1,1.4-32.2c0-1.9-0.9-3.9-1.8-5.7 c-5.5-11.7-5.6-11.8,5.6-19.7c7.9-5.6,15.7-11.3,24.1-16.1c4.1-2.4,5.3-4.7,4.2-8.9C535.8,247.7,538.1,247.7,540.5,247.7z M450.5,394.1c1.2,2.9,3.1,9,6.2,14.4c4,6.9,9.5,11.6,18.7,9.1c10.5-2.9,16.6-8.8,17.5-17.9c0.7-7.8,1.6-15.6,2.4-23.4 c1-9.7-10.7-19.3-20.3-16.7C464,362.7,450.7,379.6,450.5,394.1z"></path> <path style="fill:#FFFFFF;" d="M20.6,513.2c1.1-6.7,2.7-13.4,3.3-20.2c2.5-26.9,4.8-53.8,7.2-80.8c0.8-8.5-0.8-15.9-6.9-22.6 c-3.8-4.2-3.2-9,2.1-12.6c11.9-7.9,23.7-16.1,35.8-23.7c3.3-2.1,7.8-2.5,10.8-3.4c-1.1,28.1-5.5,54.7-5.7,82.5 c21.7-4.5,40.9-8.5,60.2-12.5c0.8-8.4,1.7-16.5,2.3-24.6c0.7-9.4,0.4-18.4-7.2-26c-3.6-3.6-2.4-8.8,2.4-12 c11.6-7.8,23.1-15.9,35.1-23.2c3.6-2.2,8.6-2.2,14-3.4c-1.4,16.4-2.6,31.4-3.9,46.5c-2.2,24.2-4.5,48.3-6.7,72.5 c-0.8,9.3-1.4,18.6-2.3,27.9c-0.7,7.5,0.6,13.3,7.9,17.8c7.7,4.7,7.4,11.3,0.4,17.1c-3.2,2.6-6.2,5.4-9.7,7.6 c-6.2,3.9-10.9,12.1-20.5,6.2c-17.4-10.7-21.3-17.4-19.4-31.4c2.1-16.1,3.2-32.4,4.7-48.6c0.1-1.4-0.1-2.8-0.2-5.3 c-18.6,3.7-36.8,7.1-54.8,11c-1.6,0.4-3.5,3.7-3.7,5.8c-1.6,14.2-3.5,28.5-3.7,42.8c-0.1,4.5,3.9,10.2,7.6,13.5 c7.7,6.9,8.3,10.7,0.6,17.7c-0.4,0.4-0.9,0.8-1.3,1.2c-22.5,19.6-29.4,19-48.4-4.1C20.6,523.8,20.6,518.5,20.6,513.2z"></path> <path style="fill:#FFFFFF;" d="M461.2,545.7c5,17.9-2.1,33-14,46.1c-5.2,5.7-2.7,9.4,1.8,12c6.8,3.9,14.1,9.1,22.1,1.4 c1.1-1.1,4.1-0.3,6.2-0.3c-0.3,2,0,4.7-1.2,5.9c-7.9,8.2-15.9,16.4-24.5,23.9c-2.3,2-7.2,2.5-10.3,1.7c-6.4-1.8-12.9-4.2-18.4-7.7 c-7.3-4.6-12.6-2.8-17.7,2.8c-9.2,10.3-20.3,16.8-33.6,20.8c-25.8,7.9-53.5-9.8-53.2-34.8c0.2-13.6,10.5-20,19.4-27.4 c5.4-4.5,11.4-8.2,16.6-12.9c1.5-1.4,2.5-5.6,1.5-7.2c-4.6-7.3-10.4-15.2-6.6-23.5c4.2-9.3,10.3-18.4,17.7-25.5 c8-7.7,17.8-13.8,27.7-19.2c15-8.2,33.7-0.3,39.3,15.9c2.7,7.9,0.6,15.3-5.8,20.7c-9.5,8-19.5,15.5-30.1,23.8 c10.5,9,21.2,18.2,32,27.5c8.1-11.9,4.9-19.4-12-30.2c1.6-1.3,3-2.5,4.4-3.7c14.5-12.6,30.1-24.2,43.3-38.1 c23.1-24.1,50.2-38.3,83.3-43.4c31.6-4.9,62.9-12,97.1-18.7c-7.4,14.4-13.2,28.2-21.4,40.4c-3.2,4.7-11.6,6.7-18.1,8.2 c-7,1.7-14.5,1.1-21.7,2.4c-2.3,0.4-5.5,3.6-5.7,5.8c-3.7,33.2-7.2,66.4-10.3,99.6c-0.9,9.8-1.3,19.3,8.8,26.2 c5.5,3.7,4.4,9.9-0.6,14.3c-5.7,5-12,9.4-17.7,14.3c-5.1,4.3-10.3,4-15.2,0.3c-5.4-4-10.7-8.2-15.3-13c-2.2-2.3-4-6.2-3.8-9.2 c2.1-25.2,4.9-50.4,7.3-75.5c1.6-16.3,3-32.6,4.4-48.9c0.2-1.9-0.3-3.9-0.5-6.1C508.5,517.9,483,525.9,461.2,545.7z M363.9,583.2 c-8.5,9.9-8.2,22.6,0.2,31c13.7,13.6,29.6,15.3,42.7,4C392.6,606.6,378.5,595.2,363.9,583.2z M386.2,521.9 c-7.3-0.3-11.1,3.7-9.1,10.2c2.1,7,6,13.7,10.1,19.9c3.1,4.7,8.2,3.2,11.3-0.4c4.7-5.5,5.2-12.4,2.1-18.8 C397.7,527.2,393.9,521.7,386.2,521.9z"></path> <path style="fill:#FFFFFF;" d="M221.4,457.9c19.9,12.5,36.4-2.1,54.4-3.1c-6.2-26.3,4.7-47.3,21.5-65.1 c15.4-16.3,33.1-30.6,50.1-45.3c2.4-2.1,7.2-3.6,10.1-2.7c14.8,4.4,29.4,9.3,43.9,14.7c12.4,4.7,14,9.7,4.9,19 c-8.3,8.4-5.1,18.7-7.1,28.1c-1.6,7.6-0.9,15.8-3,23.3c-2,7.4,0.4,11.6,5.9,15.6c7.9,5.7,7.9,8.4,0.8,15c-3.6,3.4-7.6,6.5-11.2,9.9 c-14,13.2-24.9,11.7-35-5c-0.5-0.7-1-1.4-2.2-3.2c-8.5,8.1-16.8,15.4-24.4,23.3c-4.4,4.6-16.7,6.9-25.5,3.3 c-13.1-5.3-21.7-15.3-27.8-28.4c-5.7,9.6-11.7,18.6-16.4,28.3c-12.2,25-27.8,24.5-53,15.9c-17.2-5.9-26-19.5-26.8-38.4 c-1.1-26.5,6.8-48.6,27.4-66.1c8.6-7.3,15.4-16.6,23.7-24.3c2.5-2.3,8-4.1,10.6-2.9c10.6,4.8,21,10.3,30.6,16.8 c7.8,5.2,7.2,9.4,0.5,16.3c-15.4,15.9-30.7,31.8-46,47.7C225.6,452.5,224.1,454.6,221.4,457.9z M316.3,416.5 c-0.4,16.6,7.6,26.2,17.8,26.4c12.7,0.3,20.9-7.9,21.4-20.9c0.3-7.8,1.1-15.6,2-23.4c0.5-4.2,3.4-9-3.2-10.7 c-7.3-1.9-14.9-9.6-22.3-1.7C323,396,316.9,407.5,316.3,416.5z M234.2,415.9c-10.3-5-18.3,3.3-18.2,17.7 C221.8,427.9,227.7,422.2,234.2,415.9z"></path> <path style="fill:#FFFFFF;" d="M666.7,626.6c-6.1,5.2-13.4,11.4-20.7,17.7c-12.2,10.6-24.3,11-37.4,1.3c-20.1-15-26.4-37.1-16-61.8 c4.3-10.3,10.4-20.7,18.1-28.6c15.5-15.9,32.8-30.1,49.2-45.1c4.1-3.7,8.1-4.4,13.6-2.5c13.2,4.5,26.8,8,40,12.5 c13.6,4.7,15.6,11.2,6.1,21.7c-4.7,5.2-6.6,10.6-7.1,17.2c-0.5,8.2-0.1,16.6-2.1,24.4c-2.9,11.2-3.2,20.1,8.5,26.5 c4.4,2.4,4.1,7,0.4,10.4c-7.7,7.2-15.4,14.5-23.6,21c-1.9,1.5-6.8,1.4-9,0C680,637.1,673.8,631.9,666.7,626.6z M672.2,558.9 c-0.9-1.2-2.6-5.3-5.4-6.3c-6.1-2.3-13.4-8.5-19.3-2.2c-11.2,11.7-19.8,25.2-17.1,42.7c1.1,7.4,10.2,14.7,18.4,14.8 c9.2,0.1,19.2-6.5,20.1-13.7C670,583.5,670.9,572.7,672.2,558.9z"></path> <path style="fill:#FFFFFF;" d="M952.4,475.1c-4,13.6-7.9,24.5-20.6,30.7c0.7-7.7,1.3-14.6,1.9-21.1c-16.3-6-29.6,8.7-29,20 c0.4,8.2,6.3,13.6,13.9,10.2c12.7-5.6,24.9-12.3,36.8-19.5c5.6-3.4,8.5-2.9,13.3,1.6c15.2,14.2,13.3,50.7,0.2,68.6 c-24.9,34.1-50.4,36.9-86.1,33.1c-8.1-0.8-15.7-4.6-19.9-12.8c-2.6-5-2-9.4,2.3-12.4c11.4-7.9,23.1-15.4,36.3-24 c0.3,4.8,0.6,7.2,0.5,9.7c-0.5,10.7,7.5,17.2,17.8,14.3c11.6-3.3,19.4-10.7,22.1-22.5c2.5-10.8-5.8-19.3-16-15.5 c-10.8,4-21.2,9.7-31.3,15.3c-7.5,4.2-11.9,3.3-17.3-4c-13.8-18.7-10.2-42.9,3.3-58.9c13.4-15.8,29.8-26.8,50.8-30.3 c14.5-2.4,30.9,3.2,35.4,13.1c1.2,2.5,1.5,5.6,1.6,8.4c0,0.4-3.7,1.8-5.2,1.3C959.5,479,956.2,477,952.4,475.1z"></path> <path style="fill:#FFFFFF;" d="M861.1,415.4c-3.1,29.6-6,56.6-8.6,83.5c-2.1,22-3.7,44.1-5.4,66.1c-0.5,6.2,1.3,10.9,7,14.7 c9.6,6.5,9.4,11.7,0.3,19.3c-3.8,3.2-7.6,6.4-11.6,9.4c-10.7,8.3-11,6.8-22.8,0.3c-19.4-10.6-13.9-27.4-12.9-43.1 c1.2-17.4,3.1-34.8,4.7-52.2c1.2-13,2.3-26,3.6-39c0.7-7.1-1.1-13.1-6.1-18.3c-3.9-4-4.4-8.6,0.4-12c12.4-8.7,24.9-17.2,37.7-25.2 C850.8,417,855.4,416.9,861.1,415.4z"></path> <path style="fill:#FFFFFF;" d="M798.9,594c1.7,7.4,0.7,12.8-6.1,16.9c-7.5,4.5-14.4,10.1-21.4,15.4c-4.6,3.5-8.9,3.7-13.6,0.2 c-3.7-2.8-8.6-4.5-11.4-8c-3.2-3.9-6.8-9.4-6.6-14c0.8-18,2.7-36.1,4.8-54c1.4-12.2,0.6-14.8-10-20.1c-7.1-3.6-7.8-7-2.4-12.6 c5.5-5.7,11.3-11.1,16.7-16.8c5.1-5.3,10-6.4,17-2.3c21.3,12.4,20.4,16.9,18.8,39.4c-1,15.1-2.6,30.2-3.1,45.4 c-0.4,10.3,1.5,11.4,12,10.6C795.3,593.9,796.8,594,798.9,594z"></path> <path style="fill:#FFFFFF;" d="M794.9,429c8.6,17,1.2,34.8-15.4,44c-7.2,4-14,8.7-21.3,12.7c-2.9,1.5-6.5,1.7-9.7,2.5 c-0.6-2.9-1.3-5.9-1.7-8.8c-1.3-10.5,3.9-17.8,11.6-24.1c9-7.4,17.9-15.1,27.1-22.3C787.9,431.1,791.3,430.4,794.9,429z"></path> </svg> 