<?xml version="1.0" encoding="UTF-8"?> <svg xmlns="http://www.w3.org/2000/svg" xmlns:xlink="http://www.w3.org/1999/xlink" version="1.1" id="Layer_1" x="0px" y="0px" viewBox="0 0 1000 1000" style="enable-background:new 0 0 1000 1000;" xml:space="preserve"> <path style="fill:#FFFFFF;" d="M527.3,738.3c-15.7-1.4-31.4-3-47.2-4.3c-84.3-6.8-166.3-23.7-244.4-57.2c-3.7-1.6-10-0.8-13.6,1.4 c-27.2,16.1-56.5,25.2-87.9,26.5c-17.2,0.7-34.5-1.6-49.8-11.4c-17.6-11.4-18.5-29-1.9-42.4c15.9-12.8,34.8-18.2,54.4-18.7 c18.7-0.5,37.4,1.9,56.1,3.6c5.8,0.5,8.9,0.1,11.8-5.9c12.8-26.6,10.4-54,7.9-82.2c-3.4-37.8-9.8-76.3,8-112.7 c13.9-28.4,33.7-49.3,67.1-52.9c5.5-0.6,11.2-0.1,18.1-0.1c-8,12.4-15.4,22-20.7,32.7c-11.8,23.8-9,49.4-7.9,74.9 c1.7,41.8,7.8,84.1-7.9,124.7c-5,12.9-11.5,25.3-17.7,38.9c17.1,10,36.5,16,56.6,18.5c31,3.8,62.2,5.5,93.1,9.3 c62.7,7.7,125.6,4.2,188.3,1.7c68.3-2.8,135.6-12.7,199.4-39.4c20.2-8.5,40-18.1,59.9-27.2c3.2-1.5,6.5-3,11.7-5.3 c-3.6,20.6-11.9,36.6-23.7,50.7c-25.8,30.8-61.2,44.7-98.5,54.6c-45.3,12-91.5,18.8-138.5,20.4c-3.6,0.1-7.2,1.4-10.7,2.1 C568.8,738.3,548.1,738.3,527.3,738.3z M186.5,660.6c-0.1-1.5-0.1-3-0.2-4.5c-20.1-0.7-40.3-2.5-60.3-1.3c-7,0.4-18.2,7.8-19.1,13.3 c-1.2,7.8,8.1,13.4,17.2,14.9C149.3,687.3,169.9,679.4,186.5,660.6z"></path> <path style="fill:#FFFFFF;" d="M929.3,483.2c-4.5,14.9-8.4,29.9-13.6,44.5c-6.5,18.4-18.7,33.3-35.8,45 c40.3-86.3,27.5-160.3-44.8-224.8c1.4-6.2,9.6-2.7,13.1-1.2c13.5,5.9,27.3,12,39.2,20.7c26.1,19.1,37.9,46.3,39.9,78.1 c0.1,1.5,1.4,3,2.1,4.5C929.3,461.1,929.3,472.2,929.3,483.2z"></path> <path style="fill:#FFFFFF;" d="M663.5,567.2c-12.1,11.1-22,20.8-32.5,29.8c-22.8,19.5-48,32.9-79.5,28.2 c-26.4-3.9-41.2-16.4-43.8-44c-13.2,14.1-26.2,28.3-39.7,42.1c-11.7,12-25.5,18.2-42.8,13.1c-12.2-3.6-17.3-12.2-15.1-24.8 c1.5-8.8,1.6-17.9,0-27.6c-4.5,5.5-8.7,11.3-13.6,16.5c-14,14.6-27.6,29.5-42.5,43.1c-10.2,9.3-32.1,8-42.3-1.2 c-2.1-1.9-3.8-5.6-3.8-8.5c0.7-52.8,18.5-101.5,36.1-150.2c5.9-16.4,31.3-23.5,49.5-14.7c-11.5,46.7-22.9,93.3-34.4,140 c1.4,0.8,2.7,1.6,4.1,2.4c3.7-3,8.2-5.5,10.9-9.2c17.1-23.5,34.5-46.9,50.2-71.3c6.2-9.6,8.2-21.9,11.9-33 c8.1-23.8,22.2-33.1,45.8-30.2c7.5,0.9,11.1,3.4,8.7,12.2c-9.3,35.1-18,70.3-26.8,105.6c-1,4.1-1,8.5-1.5,12.8 c0.9,0.7,1.9,1.3,2.8,2c5-4.7,10.3-9.1,14.9-14.3c18.5-20.9,29.5-45.8,40.5-71.2c16.2-37.3,43.8-64.7,83.9-75.9 c14-3.9,30.1-4.2,44.7-2c28.9,4.2,30,31.8,19,50.2c-10,16.8-26.4,25.8-45.7,29.3c-2.9,0.5-6.1,0.9-8.8,0.1 c-4.4-1.3-8.4-3.7-12.6-5.7c2.8-2.9,5.3-6,8.4-8.6c10.8-9,21-18.6,22.4-33.4c0.5-5.8-2.3-12-4.5-17.7c-0.4-1.1-5.6-1.7-7.5-0.7 c-6,3.4-12.6,6.8-16.9,11.9c-26.2,30.8-42.3,66.2-42.2,107.2c0,8.9,5.4,18.5,10.2,26.6c4.8,8,13.6,5.9,21,3.3 c23.8-8.3,40-26.6,57.8-43.2c27.6-25.7,29.6-61.3,39.3-94c5-16.9,9.2-34.1,15.3-50.5c7.6-20.5,32.5-27.3,51.3-15.2 c-5.5,24.2-11,48.4-17.1,75.2c10.2-12,18.1-22.7,27.4-32.1c11.3-11.4,25.2-19.7,41.7-20.2c35.8-1,44.8,13.9,37.9,45.3 c-7.8,35-31.3,58.3-62.6,74.3c-1.6,0.8-3.4,1.5-5,2.4c-0.6,0.3-1,1-1.7,1.7c3.6,6.6,7,13.5,10.9,20c7.6,12.9,20.7,13.9,30.4,2.4 c5.2-6.1,9.9-12.6,16.3-18c1,17-5,31.1-17.4,41.6c-20,17.1-47.2,17.7-68.3,2.6c-9.6-6.8-18.6-34.8-14.2-45.2c1-2.3,3.9-4,6.2-5.6 c18.3-12.2,36.6-24.6,47.6-44.3c6.9-12.3,13.3-25,8.4-40.4c-3.5-11-7.5-13.7-16.3-6c-7.4,6.5-14.4,14.1-19.2,22.6 c-13.7,23.9-27.1,48.1-38.7,73.1c-5.8,12.4-6.7,27-10.9,40.3C705,606,692.2,614,671.9,612c-12.8-1.3-15-4.7-12.4-17.3 C661.2,586.4,662,577.9,663.5,567.2z"></path> <path style="fill:#FFFFFF;" d="M410,313.9c4.3,30.6,40.3,62.9,78.6,69.8c41.1,7.4,79.6,1,116.9-16.3c2.8,13.7-6.6,28.3-22.5,35.4 c-47.5,21.5-95.3,22.4-141.6-2.1c-28.4-15-45.6-39.6-49.9-72.3c-0.5-3.4-3.8-6.4-5.8-9.6c-2.4,3-6,5.7-6.9,9.2 c-6.5,25.1-12.1,50.5-18.7,75.6c-1.4,5.4-6.4,14.7-8.1,14.4c-8.5-1.7-18.2-4.2-24.2-9.9c-8.4-8-6.3-19.7-3-30.2 c12.8-41.9,25.8-83.8,38.7-125.7c2.5-8.2,4.8-16.6,7.3-25.2c-44.6,10.4-86.8,49.3-76.9,78.6c-12.1,0.8-23-2-32.1-9.2 c-10-7.8-9.9-18.8-1.4-29c17.6-21.2,41.4-32.4,66.5-40.7c37.8-12.6,76.7-21,116.9-17.9c13.2,1,26.9,5,39,10.6 c20.3,9.5,24.3,34.7,9.5,52.6c-17.7,21.4-42.6,30.7-68.1,38.5C419.7,311.6,415.1,312.6,410,313.9z M375.3,224.1 c22,5.2,25.7,11.9,20.7,30.7c-4.6,17.3-8.5,34.8-12.8,52.3c29.5,3.4,67.5-20,76.5-46.4c5.9-17.4-0.8-33.5-18.2-39.5 C420.2,213.8,399,219.2,375.3,224.1z"></path> <path style="fill:#FFFFFF;" d="M666.3,207.5c-10.7,42.5-21.2,84.3-31.7,126.1c1.3,0.6,2.6,1.3,3.9,1.9 c10.8-14.3,21.6-28.5,32.5-42.8c1.1,0.1,2.2,0.3,3.3,0.4c-0.3,5,1.3,11.6-1.2,14.9c-11.4,14.6-23.4,28.9-36.5,42.1 c-4.3,4.3-12.7,6.6-19,6.1c-5.3-0.5-10.1-6.4-15.2-9.9c0.4-1.2,0.8-2.3,1.2-3.5c-4.4,3.8-8.8,7.6-13.3,11.2 c-7.3,5.8-15.1,9-24.4,4.5c-9.8-4.7-6.5-13.3-6.1-21c-14.7,2.5-26.5,8.5-36.5,19.6c-10.8,11.9-26.1,12.8-40.9,10.3 c-9.6-1.6-17.4-16-16.8-29.7c1.1-24.8,13.3-43.7,32.2-59.1c12.5-10.1,26.7-11.8,41.8-10.3c9.4,1,16.8,9.2,16.3,20.5 c-0.5,13.3-3.2,26.6-5.3,43.2c6.1-9.4,13.1-16.5,15.8-24.9c8.8-27.7,15.9-55.9,23.8-83.9c3.4-12,10.5-14.9,29.4-10.7 c-10.7,42.7-21.4,85.4-32.8,131.1c12.7-11.3,21.2-21.6,25-35c8.2-28.1,15.9-56.4,24-84.6C640.5,207.3,645,204.7,666.3,207.5z M529.8,276.7c-3.1,0.4-5.2,0.2-6.6,1c-17.4,9.8-34.5,51.1-29.4,70.9c0.7,2.5,3,6.6,4.4,6.5c3.3-0.2,7.9-1.5,9.6-4 C522.7,329.1,532.7,305.5,529.8,276.7z"></path> <path style="fill:#FFFFFF;" d="M767.1,230.9c-0.6,9.3-7.2,8.1-12.8,8.3c-5.4,0.2-10.3-1-12.1,7.3c-5.8,26.6-12.9,52.9-19.3,79.4 c-0.3,1.3,0.1,2.8,0.2,4.3c1,0.5,2,1,3.1,1.5c3.9-7.8,9.4-15.1,11.3-23.3c6.6-28.3,20.4-50.5,49.2-60c8-2.6,17.9-3.6,25.9-1.4 c5.7,1.5,12.6,8.9,13.9,14.8c7.8,34.9-20.4,73.8-47.3,82.7c-13.2,4.4-30.4-1.6-39.4-13.2c-6.3,4.6-13.5,8.4-18.7,14.1 c-6.3,7-13.2,5.7-20,3.4c-7.8-2.6-8.3-9.9-6.9-16.7c4.9-22.6,10.2-45.2,15.4-67.7c1.2-5.3,2.9-10.6,4.2-15.9 c0.3-1.4,0.8-3.3,0.1-4.3c-1.8-2.8-4.1-5.3-6.1-8c3.5-1.5,8.4-2.1,10.1-4.8c3.5-5.4,5.3-12,7.9-18c6.4-15.2,6.6-15.3,26.4-13.1 c-1.3,9.5-2.7,19-4.1,29.4C754,230.2,760.3,230.5,767.1,230.9z M764.8,316.7c0,1.1-0.3,2.3,0,3.3c1.3,4.5,2.8,9,4.3,13.6 c4.3-2.7,9.7-4.4,12.6-8.2c14.2-18,16.9-40.2,20.6-61.8c0.4-2.6-1.8-6.3-3.9-8.3c-0.8-0.7-5.4,1.3-7.3,3.1 C774.7,274.3,767.3,294.4,764.8,316.7z"></path> <path style="fill:#FFFFFF;" d="M167.8,601.7c-4.7-3.1-9.8-5.5-13.9-9.3c-30-27.3-48.2-61.4-45.6-101.9 c3.6-57.9,26.8-106.5,80.3-136.1c2.8-1.6,5.8-3.8,8.8-3.9c2.5-0.1,5.1,2.5,7.6,4c-1.5,1.5-3.1,3-4.6,4.5 c-12.4,13.3-26.2,25.6-36.8,40.3c-17.8,24.7-27.5,53.1-28.4,83.7c-0.9,32.9,7.4,63.8,23.1,92.7c4.2,7.8,8.3,15.6,12.4,23.5 C169.8,600,168.8,600.8,167.8,601.7z"></path> </svg> 