<?xml version="1.0" encoding="UTF-8"?> <svg xmlns="http://www.w3.org/2000/svg" xmlns:xlink="http://www.w3.org/1999/xlink" version="1.1" id="Layer_1" x="0px" y="0px" viewBox="0 0 1000 1000" style="enable-background:new 0 0 1000 1000;" xml:space="preserve"> <path style="fill:#FFFFFF;" d="M736.8,850.2c-28.9-16.4-60.2-30.7-67.1-68c-4.3-23.5-6.2-47.3-10.6-70.8c-3.4-18.6-9-36.8-14.3-58.3 c-13.4,30.1-21.7,77.2-6.8,145.4c-30.2,13.3-53.2-1.2-75.6-17.6c36-73.1,43.6-148.8,34.7-226.7c-2.9-0.8-5.8-1.6-8.7-2.4 c-7,19.9-16,39.3-20.5,59.7c-7.9,36.3-12.4,73.3-19.6,109.8c-6.4,32.4-36.9,50.6-69.5,42.9c-73-17.2-80.2-28.7-70.3-111.4 c3.1-26.2,8.3-52.3,8.4-78.5c0.1-24.9-5.2-49.8-8.8-79.8c30.7,4.8,61.5,9.6,92.4,14.4c-59.5,51.3-43.4,116.6-47.3,175.8 c-0.6,9.2,11.2,22.6,20.8,28.3c12.8,7.5,25.6,4.6,30.8-13.8c14.5-50.8,29.1-101.3,11.7-154.5c-2.3-7.2-2.1-15.2-3.8-29.9 c38.1,9.1,71.6,17.8,105.4,25.1c38.9,8.4,42.1,41.5,50.6,70.4c11.1,37.9,20.6,76.3,32.6,114.4c8.3-44.5,9.3-88.9,0.4-133.6 c-1.6-8.2,1.4-17.3,2.3-26c8.2,1,17.2,0.1,24.5,3.2c20.5,8.7,40.3,19.1,56.8,27c-13.6,47-27.6,91.2-39,136 c-9.3,36.8-20.3,75,13.5,107.2c2.1,2,0.8,7.6,1.1,11.6C752.9,850.2,744.9,850.2,736.8,850.2z"></path> <path style="fill:#FFFFFF;" d="M136.9,384.4c28.9-31.2,34.4-71.4,43.6-110.2c8.3-35.1,11.8-70.1-0.5-105 c-4.6-13.1,2.1-17.4,13.5-18.4c26.3-2.2,52.5-4.3,78.8-6.2c19.1-1.4,33.6,18.6,33.9,46.4c0.3,29-12.4,55.3-35.7,74 c21.9,40.2,3.9,97-38.6,117.8c-29.8,14.6-61.1,23.6-95,16.1C136.9,394,136.9,389.2,136.9,384.4z M220.9,233.5 c29.2,2.8,43.7-10.4,41.3-37.8c-0.5-6.2-7.6-17.2-10.4-16.9c-7.8,1.1-18.9,5.3-21.5,11.3C224.9,203,224,217.8,220.9,233.5z M206.5,344.9c26.8,0.1,38.2-26.6,28.8-67.8C207.5,284.1,205.1,289.6,206.5,344.9z"></path> <path style="fill:#FFFFFF;" d="M259.3,632.8c0,17.7-1.2,35.6,0.3,53.2c1.5,17.1,5.9,33.9,9.4,52.9c-31.1,0-58.8,0-86.3,0 c11.4-34,24.5-66.3,32.9-99.8c7.1-28.4,12.1-58.2,11.6-87.3c-0.4-21.4-11.1-42.7-18.1-67.1c35.7-8.5,77.6-17.1,118.8-5.2 c36.7,10.6,49.9,50.5,33,85.4c-4.1,8.5-7.1,19.1-14,24.5c-26,20.5-23.6,45.7-16.4,73c5.5,20.7,9.8,41.8,14.8,62.6 c6,24.5,25.6,25.5,46,24.7c-10.5,22-37.2,32.2-94.2,35.8c21.7-51,2.6-97.4-14.8-143.9c-1.8-4.8-8.3-7.9-12.6-11.7 C266.3,630.9,262.8,631.9,259.3,632.8z M267.8,588.9c38-7.5,52.9-37.9,35.4-66c-3-4.8-10.7-9-16.4-9.2c-3.7-0.1-10.2,7.1-11,11.8 C272.4,545.6,270.6,566,267.8,588.9z"></path> <path style="fill:#FFFFFF;" d="M743,398.8c-3.4-9.5-8.1-18.9-9.2-28.7c-0.2-2,12.5-5.6,19.3-8.4c1.5,11.2,2.9,22.4,4.4,33.6 C752.7,396.5,747.9,397.7,743,398.8z"></path> <path style="fill:#FFFFFF;" d="M850.7,277.7c-9.4,2.1-21.6,1.1-27.7,6.7c-16.6,15.3-30.4,33.4-57.2,25c-2.2-0.7-5.3,1.2-9.9,2.5 c-2.3-11.6-4.1-21.3-6.2-32.1c5.4,0.3,7.7,0.5,10,0.5c7.7,0,15.4,0,23.2,0c-0.6-9.1,1.9-23.5-2.4-26c-7.2-4-20.5-3.3-28.1,0.9 c-7.4,4.1-13.9,14.6-15.6,23.2c-5.9,30.3-22.7,55-38.8,80.1c-8.2-4.2-14.3-7.4-20.3-10.4c32.6-34.5,34-67.6,2.9-88.1 c-22.2-14.6-47.6-24.5-75.7-38.5c12.7,77.7-40.7,116.7-76.9,164.6c-3.7-1.1-7.4-2.1-11.1-3.2c9.4-56.3,18.9-112.5,28.6-170.4 c-21.3-5.7-39.7-10.5-65.4-17.3c6.7,13.5,11.5,20.3,13.5,27.8c1.7,6.8,3.4,17.1-0.2,21.2c-32.9,37.2-66.9,73.4-100.6,109.9 c-1-0.8-1.9-1.5-2.9-2.3c3.9-9.1,7.8-18.2,12.4-28.8c-34.1-13.2-37.8,34.4-70.4,29.7c4.8-19.4,9.5-38.4,12.9-52.4 c13.8,3.8,24.5,10,33.8,8.5c19.3-3,36.8-30.3,36.1-52c-0.8-23.2-10.7-39-43.8-38c8.9-12.2,12.9-23.7,19.8-25.7 c16.3-4.8,15.7,10.1,18.9,20.6c2.3,7.8,7.2,14.8,14.3,28.8c8.5-18,14.7-29.4,19.4-41.4c10.1-26.1,5.7-38.7-22.3-43.5 c-30.8-5.3-62.7-4.1-94.3-5.7c7,90-19.2,165-66.3,232.8c63.9,0,124.8,0,185.5,0c2.9-49.9,9.4-56.3,52.5-47.9 C483,355.7,469.2,372.9,454,392c40.5,9.4,77.5,17.9,115.3,26.7c10.3-23.9,20-46.3,29.7-68.7c4.3,1.7,8.7,3.4,13,5 c-9.9,30.3-19.7,60.6-30.5,93.8c28.1,0,59.6,0,89,0c11.3,24.6-4.5,52.6,22.3,70.2c4-10.5,7.3-19.4,11.9-31.4 c7,12.7,12.2,22.1,19.7,35.8c13.2-27.5,7.1-46.5-5.4-65.2c-3-4.5-2.9-11-4.3-16.6c3.2-0.6,6.3-1.2,9.5-1.8 c1.9,7.9,3.9,15.8,6.1,24.7c24-15.6,10.1,15.6,22.6,18.7c2.5-5.5,5-11.3,7.7-17.2c25.8,15.6,48.9,13.6,56.4-7.7 c14.3-40.4,19.3-82,6.1-124.5c-3.3-10.8-1.6-23.1-2.2-34.7c15.7,0.1,24.5-2.2,31.9-6.7C854.5,291.4,851.6,282.8,850.7,277.7z M507.2,303.6h-25.6l25.6-36.4V303.6z M649.2,272.9c4,9.7,9.5,16.2,8.2,20.8c-4.6,15.6-14.2,27.1-38.6,26.6 C629.6,303.4,637.6,291,649.2,272.9z M632.7,404c4.1-15.4,8.3-31.3,12.5-47.2c2.2,0.5,4.4,1,6.6,1.4c3.5,12.6,7.1,25.1,10.4,37 C652.5,398.1,643.8,400.6,632.7,404z M697.7,358.9C696.9,359.6,695.4,359.6,697.7,358.9L697.7,358.9z M722,373.5 c1.1-17.3,11.3-23.6,25.8-26c15.8-2.6,28.3,4.4,31.3,19.4c3.7,18.2,3.5,37.2,5,57.3C741.5,426.2,719.9,405.8,722,373.5z"></path> </svg> 