<?xml version="1.0" encoding="UTF-8"?> <svg xmlns="http://www.w3.org/2000/svg" xmlns:xlink="http://www.w3.org/1999/xlink" version="1.1" id="Layer_1" x="0px" y="0px" viewBox="0 0 1000 1000" style="enable-background:new 0 0 1000 1000;" xml:space="preserve"> <path style="fill:#FFFFFF;" d="M582,519.7c-3.1,15.5-6.4,30.9-9.4,46.4c-4.7,23.7-9.3,47.5-13.7,71.3c-0.8,4.2-2.1,6-6.9,6 c-51.9-0.2-103.7-0.1-155.6,0c-2.2,0-4.5,0-7.5,0c1.4-7.5,2.5-14,3.8-20.5c6.6-34.2,13.4-68.4,19.8-102.7c0.9-4.7,3.2-5.1,7.1-5.1 c54.2,0.1,108.3,0,162.5,0C582,516.6,582,518.2,582,519.7z M497.9,623.6c4.1,0,7.3,0,10.6,0c12.3-0.1,10.2,1.2,12.6-10.3 c2.6-12.5,4.9-24.9,13.2-35.5c5.8-7.3,10.2-15.6,15.3-23.5c3.8-6,7.6-12.1,12.3-19.5c-6.1,0-10.8,0.2-15.5-0.1 c-3.9-0.2-6.7,0.7-8.4,4.5c-0.9,1.9-2.2,3.6-3.3,5.3c-4.3,6.6-8.6,13.2-12.8,19.8c-2.9-8.1-4.5-15.9-5.8-23.7 c-0.7-4.2-2.4-6.1-7.1-5.9c-9.8,0.4-19.6,0.2-29.4,0c-3.9-0.1-6.4,1.2-8.5,4.5c-3.5,5.8-7.5,11.4-12.1,18.3 c-1.9-7.1-3.3-12.7-5.1-18.3c-0.5-1.6-1.9-4.1-3-4.2c-6.6-0.4-13.2-0.2-20.5-0.2c3.9,13.5,7.3,25.8,11.1,38c1.1,3.7,0.7,6.4-1.5,9.5 c-8.6,11.5-16.9,23.1-25.3,34.7c-1.3,1.7-2.3,3.6-4,6.5c7.6,0,13.9,0.4,20.2-0.2c2.4-0.2,5.3-1.9,6.9-3.8c4.3-5.5,8-11.4,12.8-18.5 c1.9,6.9,3.2,12.3,5,17.6c0.6,1.8,2.5,4.4,3.9,4.6c6.2,0.5,12.5,0.2,19.5,0.2c-0.6-2.9-1-4.9-1.5-6.8c-3.2-10.8-6.5-21.5-9.9-32.2 c-1.2-3.6-0.7-6.5,1.7-9.5c3.8-4.8,7.1-9.9,10.7-14.9c4.5-6.3,9.1-12.5,14-19.3c0.9,1.4,1.4,2,1.6,2.6c3.2,15.1,6.4,30.2,9.3,45.3 c0.4,2.3-0.2,4.9-0.6,7.3C502.1,604.8,500.1,613.5,497.9,623.6z"></path> <path style="fill:#FFFFFF;" d="M508.9,412.8c-9.5-10.7-12.6-22.1-7.7-35c3.4-8.8,10.3-14.2,18.7-17.5c11.2-4.4,22.9-4.9,34.5-1.6 c22.7,6.5,25.1,30.3,11.8,44.5c-4.9,5.2-11.1,9.2-16.4,13.5c5.9,6,12,12.4,18.9,19.4c1.7-4.6,3.2-9.2,5.1-13.6 c0.7-1.7,2.3-4.2,3.7-4.3c7.2-0.4,14.4-0.2,23.4-0.2c-3.6,9.3-6.2,17.6-10,25.3c-5,10-5.3,9.8,2.5,17.6c7.2,7.2,14.3,14.6,22,22.6 c-2.1,0.3-3.8,0.8-5.5,0.8c-6.1,0.1-12.3-0.6-18.4,0c-8.2,0.9-14.6-1.5-19.4-8.2c-3.1-4.3-5.8-4.2-10.8-1.4 c-21.4,11.9-43.9,14.2-66,2.3c-18.8-10.1-20-30.6-7.7-46.5c4.4-5.7,11.2-9.7,16.9-14.4C505.8,415,507.3,414,508.9,412.8z M551.7,455.1c-7-6.8-13.3-12.8-19.5-18.9c-9.1-9-10.7-9-19.6,0.7c-0.4,0.4-0.8,0.8-1.2,1.2c-6.2,7.8-4,17.8,5.3,21.6 C528.7,464.5,539.9,461.9,551.7,455.1z M539.9,376.4c-7-0.2-13.2,3.3-14.9,8c-1.5,4.2,2.1,13.3,6.6,16c1.1,0.6,3.2,0.8,4.1,0.2 c3.8-2.5,8-4.9,10.8-8.3c2-2.4,3.1-6.7,2.4-9.7C548,378.3,544,376.1,539.9,376.4z"></path> <path style="fill:#FFFFFF;" d="M290.8,423.3c0-12.4,0-24.8,0-37.1c0-2.5-0.4-5.4,3.4-5.2c17.8,0.6,35.8,0,53.3,2.2 c18.7,2.4,31.1,18.3,32.2,37.1c1.2,20.7-8.8,37-27.4,42.6c-7.4,2.3-15.4,3-23.1,3.4c-10.5,0.5-21.1-0.2-31.7,0.3 c-5.9,0.3-7.1-2-7-7.3C290.9,447.3,290.7,435.3,290.8,423.3C290.7,423.3,290.7,423.3,290.8,423.3z M316,401.6c0,10.1,0,20.2,0,30.2 c0,16.8,0.5,17.3,17.6,14.8c12.5-1.8,20.3-9.5,20.9-20.6c0.8-12.7-5.3-22.2-16.8-24.3C331,400.6,323.8,401.6,316,401.6z"></path> <path style="fill:#FFFFFF;" d="M96.2,381.5c0,27.6,0.1,54.1-0.2,80.6c0,1.5-2.3,4.1-3.6,4.1c-6.5,0.4-13,0.2-20.6,0.2 c0-8.3,0-16.2,0-24.1c0-8.7,0-8.7-8.7-8.7c-5.8,0-11.5,0.3-17.3-0.1c-4.9-0.3-6.9,1.1-6.5,6.3c0.5,6.6,0.2,13.3,0.1,20 c0,2-0.3,4.1-0.6,6.4c-8.1,0-15.7,0-23.9,0c0-28.2,0-56.2,0-85.1c7.2,0,14.5-0.2,21.7,0.2c1,0.1,2.6,2.9,2.7,4.5 c0.3,6.7,0.2,13.3,0.2,20c0,2.1,0,4.1,0,6.9c10.3,0,20.1,0.1,29.8-0.2c0.9,0,2.5-2.6,2.5-4c0.3-6.9,0.1-13.7,0.1-20.6 c0-2,0-4.1,0-6.4C80.3,381.5,88.1,381.5,96.2,381.5z"></path> <path style="fill:#FFFFFF;" d="M450.8,404.4c-10.3-1.6-19.5-3-28.6-4.3c-1.3-0.2-3-0.3-3.9,0.4c-1.9,1.4-4.5,3.2-4.7,5 c-0.1,1.5,2.5,4.2,4.4,4.8c8.2,2.5,16.6,4.3,24.9,6.7c6.4,1.8,11.9,5.3,15.5,11.1c5.7,9.2,3.7,24.5-5.3,31.1 c-6,4.4-13.3,8.2-20.5,9.2c-14.3,2.1-28.6,0.6-42.1-5.7c-4.6-2.1-6.1-4.6-3.5-9.2c2.3-4.2,3.1-10.2,6.5-12.3c2.4-1.5,8,2.3,12.3,3.5 c7.9,2.3,15.9,5.2,24.1,2c1.9-0.7,3.2-2.7,4.8-4.1c-1.5-1.6-2.8-4.1-4.7-4.8c-7.8-2.5-15.8-4.6-23.7-6.7 c-10.3-2.7-18.4-10.2-19.3-18.2c-1.6-13.9,2.6-23.5,13.4-29c18.1-9.1,36.3-6.9,54.3,0.4c1.3,0.5,2.7,3.9,2.3,5.3 C455.1,395,452.6,400.2,450.8,404.4z"></path> <path style="fill:#FFFFFF;" d="M175.5,432.1c-12.9,0-24.9,0-37.5,0c0,5,0,9.6,0,15c10.4,0,20.7-0.1,31,0c15.4,0.2,12.4-2.2,13,13 c0.2,4.6-1.2,6.4-6.1,6.3c-18.8-0.3-37.6-0.2-56.5,0c-4.5,0-6.4-1-6.4-6c0.2-24.6,0.2-49.2,0-73.8c0-4.5,1.4-5.9,5.9-5.8 c18.4,0.2,36.9,0.2,55.3,0c5-0.1,6.1,1.7,6.1,6.3c-0.2,12.6,0,12.6-12.8,12.6c-8.3,0-16.5,0.1-24.8-0.1c-3.8-0.1-5.5,0.9-5.4,5.1 c0.1,8.9-0.2,8.9,9,8.9c8.1,0,16.1,0.2,24.2-0.1c3.9-0.1,5.1,1.3,4.9,5C175.4,422.9,175.5,427,175.5,432.1z"></path> <path style="fill:#FFFFFF;" d="M780.2,466.3c-8.3,0-15.7,0.2-23.2-0.2c-1.4-0.1-3.3-2.3-4-4c-5.3-11.9-5.2-12-18.3-12 c-5.9,0-11.9,0.1-17.8-0.1c-3.4-0.1-5.1,1.2-6.3,4.4c-4.7,12-4.8,11.9-17.8,11.9c-3.6,0-7.2,0-11.8,0c0.6-2.1,0.9-3.7,1.5-5.1 c11-24.9,22.2-49.7,33-74.7c1.9-4.3,4.4-5.2,8.9-5.9c14.1-2.2,21,3.3,25.9,16.5c8.2,21.9,18.8,42.9,28.3,64.3 C779.2,462.6,779.4,463.9,780.2,466.3z M740.4,431.3c-3.4-8.3-6.5-15.9-10.3-25.2c-3.7,9.2-6.7,16.8-10.1,25.2 C727.4,431.3,733.5,431.3,740.4,431.3z"></path> <path style="fill:#FFFFFF;" d="M284.4,466.4c-8.3,0-15.5,0.3-22.8-0.2c-1.6-0.1-4-2.5-4.4-4.2c-2-10.7-8.7-13.3-18.6-11.9 c-5.3,0.7-10.8,0.5-16.1,0c-4.7-0.4-6.8,1.6-8.4,5.6c-4.3,10.7-4.4,10.7-16.3,10.7c-4,0-7.9,0-12.8,0c1-2.9,1.5-4.9,2.3-6.7 c11-24.7,22.1-49.3,32.9-74.1c1.6-3.6,3.7-4.3,7.3-4.8c13.1-1.8,21.5,1.4,26.6,15.4c8.1,22.1,18.8,43.3,28.4,64.9 C283.3,462.3,283.6,463.8,284.4,466.4z M224.2,431.2c6.9,0,13.2,0,20.5,0c-3.3-8.2-6.4-15.7-9.4-23.2c-0.5,0-1,0-1.5,0 C230.8,415.5,227.7,422.9,224.2,431.2z"></path> <path style="fill:#FFFFFF;" d="M904.7,440.3c10.5,5.8,21,9.2,32.5,8c1.3-0.1,3,0.1,3.9-0.6c2-1.5,4.6-3.4,5-5.5 c0.3-1.4-2.3-4.5-4.2-5.1c-7.8-2.6-15.9-4.3-23.8-6.6c-16.9-5-24.2-17.3-18.8-32c4.4-12,14.6-17,26.3-18.7 c12.6-1.8,25.3-0.7,37.3,4.2c3.7,1.5,5.2,3.4,3.1,7.3c-2.1,4-2.8,10.1-6,11.9c-2.8,1.5-8.1-2.3-12.5-2.9c-5.8-0.8-11.8-1.4-17.6-0.8 c-2.5,0.3-4.6,3.7-6.9,5.7c2,2,3.6,5,6,5.8c6.9,2.4,14,3.7,21,5.7c14.7,4.1,21.7,12,21.3,23.9c-0.4,12.3-9.1,22.5-22.5,25.6 c-15.8,3.6-31.2,2.1-46.2-4c-4.8-1.9-6.8-4.4-3.9-9.4C901,449,902.6,444.8,904.7,440.3z"></path> <path style="fill:#FFFFFF;" d="M682.1,382.1c0,4.8-0.1,9.5,0,14.2c0.1,3.6-1.6,4.7-4.9,4.6c-6.7-0.1-13.3,0-20.5,0 c-0.1,2.4-0.3,4.2-0.3,6.1c0,17.7-0.1,35.4,0,53.1c0,4.5-1.2,6.8-6.2,6.3c-6-0.5-14,1.5-17.6-1.7c-3.1-2.7-1.2-11-1.3-16.9 c-0.1-13.7-0.2-27.4,0.1-41.1c0.1-5-1.7-6.2-6.3-5.9c-5.3,0.3-10.7,0-16.1,0c-6,0-4.5-4.7-4-7.4c0.8-4.2-3.9-11.8,3.6-12.1 c23.4-0.8,46.8-0.3,70.2-0.2C679.9,381.1,680.8,381.7,682.1,382.1z"></path> <path style="fill:#FFFFFF;" d="M827.8,423.6c0-12.6,0.1-25.1-0.1-37.7c-0.1-3.9,1.1-5.5,5.2-5.3c5,0.3,10,0.3,15,0 c4-0.2,5.3,1.2,5.3,5.2c-0.2,18.1,0.1,36.2-0.2,54.3c-0.1,5.3,1.5,6.9,6.8,6.6c9.8-0.4,19.6,0,29.4-0.2c3.7-0.1,5,1.1,5,4.9 c0.2,15.3,0.3,15.3-14.8,15.3c-15.4,0-30.7-0.1-46.1,0.1c-4.4,0.1-5.7-1.4-5.6-5.5C827.9,448.8,827.8,436.2,827.8,423.6z"></path> <path style="fill:#FFFFFF;" d="M786.5,423.6c0-12.4,0.1-24.8-0.1-37.1c-0.1-4.1,1.1-5.9,5.5-5.7c5,0.3,10,0.2,15,0 c3.4-0.1,4.8,1.1,4.8,4.6c-0.1,25.5-0.1,51,0,76.6c0,3.1-1.1,4.5-4.4,4.4c-5-0.1-10-0.3-15,0c-4.5,0.3-6.1-1.2-6-5.8 C786.6,448.3,786.4,436,786.5,423.6C786.5,423.6,786.5,423.6,786.5,423.6z"></path> </svg> 