<?xml version="1.0" encoding="UTF-8"?> <svg xmlns="http://www.w3.org/2000/svg" xmlns:xlink="http://www.w3.org/1999/xlink" version="1.1" id="Layer_1" x="0px" y="0px" viewBox="0 0 1000 1000" style="enable-background:new 0 0 1000 1000;" xml:space="preserve"> <path style="fill:#FFFFFF;" d="M900.5,203.5c4.7,5.2,1.4,11.3,1.9,16.9c0.2,2.3-0.8,4.7-0.8,7c0,30,0,60.1,0,90.1 c0,1.2-0.2,2.5-0.3,4.2c-269.4,0-538.6,0-808.2,0c0-4.4,0-8.6,0-12.7c-0.2-32.8-0.5-65.6-0.6-98.4c0-2.4,1.3-4.7,2-7.1 C363.1,203.5,631.8,203.5,900.5,203.5z M290.1,236.6c15,22.2,30.2,44.5,45.1,67c2.6,3.9,5.4,3.9,9.4,2.9c4.2-1,3.7-3.9,3.7-6.8 c0-24.1,0-48.3,0-72.4c0-4.2,0-8.3,0-12.4c-10.3-0.6-10.5-0.5-10.5,9c0.1,19.3,0.1,38.7,0.2,58c0,0.9-0.3,1.8-0.5,2.9 c-14.4-21.3-28.6-42.2-42.7-63c-5.7-8.4-8.6-9.2-17.3-5.9c0.7,4.7,1.9,9,1.9,13.4c0.1,24.1,0,48.3,0,72.4c0,1.4,0.2,2.9,0.3,4.2 c9.4,0.9,10.5-0.1,10.5-8.8c0-6.8,0-13.6,0-20.5C290.1,263.2,290.1,249.6,290.1,236.6z M588.3,303.7c12.5,3.4,24.7,4.5,36.7,2.1 c23.3-4.6,36-20.5,37.1-45.4c1-21-9-36.9-27.5-43.1c-14.4-4.8-29.1-3.3-43.8-1.2c-1,0.1-2.4,2.5-2.5,3.8c-0.3,5.7-0.1,11.4-0.1,17.1 C588.3,259.1,588.3,281.2,588.3,303.7z M752.2,255.8c1.3-1.2,2.2-2,3.1-2.9c6.6-6.6,8.4-14.4,6-23.3c-2.4-8.9-9.1-13.8-17.5-14.6 c-9.9-1-20-0.1-30.2-0.1c0,29.9,0,58.3,0.2,86.6c0,1.2,2.3,3.4,3.6,3.5c8.6,0.6,17.3,1.8,25.8,0.9c13.1-1.3,22.7-10.8,24.3-22.1 C769.4,270.5,765.3,262.7,752.2,255.8z M512.9,304.9c-8.9-13.9-17.5-27.5-26.3-41.3c2-1.4,4.3-2.9,6.4-4.6c8.4-7,10.3-16.2,8.3-26.5 c-1.9-10.1-8.6-16.2-18.4-17.2c-9.6-0.9-19.4,0.1-29.1,0.6c-0.8,0-2.2,2.6-2.2,3.9c-0.3,27.3-0.3,54.5-0.4,81.8 c0,1.4,0.1,2.8,0.2,4.2c12,1.4,12.8,0.8,12.8-10.4c0-9.2,0-18.3,0-27.4c8.6-0.9,11.5,0.2,15.5,6.7c5.2,8.4,9.8,17.3,15.2,25.6 C499.4,307.1,504.9,308.2,512.9,304.9z M857.5,295.9c0-11.1,0-21.4,0-32.2c7.6,0,14.7,0.1,21.9,0c6.3-0.1,8.4-2.7,8.3-9.9 c-10,0-20.1,0-30.1,0c0-10.1,0-19.5,0-29.3c8,0,15.5,0.1,23,0c6.5-0.1,8.5-2.5,8.3-9.8c-14.9,1-29.9-1.8-44.7,2.1 c0,28,0,55.3,0,82.5c0,4.1,2,6.1,6,6.2c10.7,0.3,21.3,0.7,32,0.8c7.1,0,9.3-2.2,11.1-10.3C881.4,295.9,869.5,295.9,857.5,295.9z M436,293.2c-3.4,1-6.6,2-10,2.8c-22.8,5.4-41.1-5.6-45.5-27.4c-0.7-3.7-0.6-7.7-0.5-11.5c0.7-25.9,22.4-40.7,46.8-31.9 c4,1.5,8.4,4.2,10.5-1.8c2.1-6.2-4-6.6-7.5-7.9c-26.5-9.5-62.1,4.2-63.7,43.3c-1.5,35.4,28.8,58.2,61.6,46.4 C433.9,302.9,436.1,299.9,436,293.2z M570.3,214.8c-11.8,0-23.2-0.4-34.6,0.1c-10.2,0.4-10.2,0.8-9.9,11.3c0,1.1,0,2.2,0,3.3 c0,22.5,0,44.9,0.1,67.4c0,7.3,0.4,8.2,7.5,8.6c10.7,0.6,21.4,0.7,32,0.6c5.6,0,8.5-3.5,9-10.3c-11.9,0-23.8,0-35.6,0 c0-11,0-21.3,0-32.1c7.5,0,14.6,0.1,21.8,0c6.7-0.1,8.6-2.3,8.6-9.7c-10,0-20.1,0-30.4,0c0-10.1,0-19.5,0-29.5 c7.9,0,15.4,0.1,22.9,0C568.4,224.3,570.2,222.3,570.3,214.8z M784.3,215.9c0,28.1,0,55.7,0,83.3c0,3.7,1.5,6,5.5,6.1 c10.9,0.3,21.7,0.8,32.6,0.8c5.8,0,8.6-3.3,9.1-9.7c-9.2,0-18.4-0.1-27.5,0c-4.9,0.1-7-1.5-6.9-7c0.3-22.1,0.1-44.2,0.1-66.3 c0-9-1.1-9.9-9.9-8.2C786.3,215.1,785.5,215.5,784.3,215.9z M256.6,305c0-18.8,0-37,0-55.2c0-10.3-0.2-20.6-0.1-30.9 c0-5-3.1-4.6-6.3-4.2c-3.1,0.3-6.6-0.5-6.5,5c0.3,26,0.2,51.9,0.3,77.9c0,9.7,0.8,10.3,10.5,8.1C255.2,305.4,255.9,305.2,256.6,305z M678.8,215.5c0,9.8,0,18.8,0,27.8c0,19.3,0.1,38.7-0.1,58c0,3.8,1.3,5.7,5.1,4.9c3.1-0.7,8,1.4,7.9-4.8 c-0.2-26.3-0.3-52.6-0.5-78.9c0-1.7,0.3-3.5-0.3-4.9c-0.5-1.2-2-2.9-3-2.9C684.9,214.5,681.6,215.2,678.8,215.5z M168,280.3 c1.2-7.9,2.7-15.8,3.5-23.8c0.9-9.1-5.8-14.1-14.6-11.3c-2,0.6-3.9,1.4-6.2,2.3c0.9-7.2,1.7-13.8,2.5-20.4c-6.2-0.8-9.2,0.5-9.1,6.4 c0,3.4-1,6.9-1.5,10.4c-1.9,12.4-3.9,24.9-5.8,37.3c7.9,0.7,8.6,0.1,9.6-7.1c0.7-5.5,1.5-10.9,2.5-16.3c0.6-3.6,5.3-6.4,9.3-5.8 c4.4,0.7,4.9,3.9,4.4,7.5c-0.7,4.9-1.4,9.8-2.3,14.7C158.9,282.2,159.6,282.8,168,280.3z M207.4,272.7c-16.8,2.5-20.6,0.8-20.1-9.5 c2.7,0,5.4,0.1,8.1,0c2.8-0.1,5.6,0,8.2-0.5c7.4-1.4,10-6.1,7.4-13.3c-1.9-5.4-6.7-8.2-13.2-7.7c-14.2,1.1-24.9,19.2-19.2,32.3 c2.5,5.8,8,8.4,16.7,7.9C201.2,281.6,205.7,279.5,207.4,272.7z M130.5,272.3c-2.6,0.8-3.6,1.2-4.7,1.5c-7.1,1.9-10.1-0.4-9.5-7.9 c0.4-4.9,1.2-9.9,2.1-14.7c1.5-8.4,1.6-8.4,10-8.8c4.3-0.2,7.4-1.4,7.9-7c-5.2,0-10,0-14.9,0c0.3-2.7,0.5-4.7,0.8-6.8 c-0.4-0.3-0.9-0.7-1.3-1c-5,4-10,8.1-14.9,12.1c0.8,0.3,1.5,0.5,2.3,0.8c0.5,3.1,1.5,6.2,1.3,9.3c-0.6,6.8-2,13.4-2.8,20.2 c-0.6,5,0.9,9.1,6.1,11.1c5.1,1.9,13.3,0.3,15.9-3.4C129.5,276.4,129.7,274.8,130.5,272.3z M100.6,293.9c0,0.8-0.1,1.5-0.1,2.3 c37.4,0.9,74.7,1.1,112.1-0.1c0-0.7,0-1.4,0-2.2C175.2,293.9,137.9,293.9,100.6,293.9z"></path> <path style="fill:#FFFFFF;" d="M973.5,612.8c-4.7,4.9-10.8,4.6-16.8,4.4c-0.8,0-1.9-0.4-2.4-1c-5.8-6.5-12.5-12.4-17-19.6 c-16.1-26.3-31.6-53-47-79.8c-13.2-23-26-46.3-39-69.4c-0.9-1.6-1.8-3.2-3.9-4.6c0.4,4.5,0.6,8.9,1.1,13.4 c1.4,11.5,2.9,23.1,4.3,34.6c1.4,11.4,2.9,22.8,4.2,34.2s2.3,22.9,3.6,34.3c0.9,8.2,1.7,16.4,2.9,24.6c1.3,8-2.7,13.1-10.8,12.4 c-4.3-0.4-9-0.7-12.7-2.6c-2.3-1.2-4.1-5.2-4.4-8.1c-3.3-29-6.2-58.1-9.4-87.1c-2.2-20.1-4.8-40.1-7.2-60.2 c-1.6-13.5-2.8-27-4.8-40.5c-0.7-4.7-2.5-9.5-4.9-13.6c-4.2-7.2-4.2-9.6,3.3-16.2c0.5,1,1.1,2.1,1.1,2.1c2.7-1.3,4.9-2.9,7.2-3.4 c4.2-0.9,8.6-1.6,13-1.6c5.1,0,7.5,4,9.5,8c2,4.1,3.3,8.7,5.6,12.6c3.4,5.8,6.8,11.7,11.2,16.7c18,20.8,28.5,46.2,41.9,69.8 c10.3,18.2,20.2,36.6,30.3,54.8c0.6,1.2,1.5,2.2,3.4,2.9c-0.7-6.4-1.2-12.8-2.1-19.2c-2.1-15.7-4-31.5-6.4-47.2 c-1.4-8.8-3.8-17.5-5.2-26.3c-1-6.3-1.1-12.7-1.7-19.1c-0.6-6-1.2-12-2.2-18c-0.8-4.8-1.9-9.7-3.4-14.4c-2.5-8.1,4.5-12.3,7.3-18.2 c0.1-0.1,2.2,0.7,3.2,1c5-0.9,10.2-1.7,15.9-2.7c1.2,7.9,2.6,15.6,3.6,23.3c3,24,5.9,48,8.9,72c2.2,18,4.3,36.1,6.7,54.1 c2.5,18.8,5.5,37.5,8.2,56.2c1.5,10.7,2.6,21.4,4,32.1c0.1,0.8,0.7,1.6,1.1,2.4C973.5,608.3,973.5,610.6,973.5,612.8z"></path> <path style="fill:#FFFFFF;" d="M793.4,754.4c-195.8,0-391.5,0-587.6,0c-0.2-1.3-0.5-2.7-0.6-4.1c-0.3-31.5-0.6-63-0.9-94.5 c0-2.4,0.1-4.8,0.2-7.2c0.6-8,0.6-8,8.9-8c190.6,0,381.2,0,571.8,0c8.7,0,8.9,0,8.9,8.8c0,34.4-0.1,68.7-0.2,103.1 C794,752.8,793.8,753.2,793.4,754.4z M235,669c1.2,2.8,1.8,4.1,2.3,5.4c7,21.1,14,42.1,21,63.2c1.6,4.8,3.7,5.9,8,3.3 c1.7-1,3.1-3.1,3.8-5c7.6-20.9,15-41.8,22.4-62.7c0.4-1.1,0.9-2.1,2.1-4.5c3.3,23.4,6.3,45.3,9.4,67.1c1.1,7.6,2.2,8.4,9.7,6.8 c1.4-0.3,2.7-0.8,3.9-1.1c-4.5-28.2-8.8-56-13.3-83.8c-1.7-10.5-1.9-10.4-12.4-7.8c-0.2,0-0.3,0.2,0.4-0.3 c-9,23.6-17.6,46.4-26.8,70.5c-1.3-3.3-2.1-5.2-2.7-7c-6.7-18.9-13.4-37.7-20.2-56.6c-3.3-9-5.6-9.8-14.5-5.8 c-0.2,2.8-0.1,5.6-0.6,8.2c-4.6,25.9-9.2,51.8-13.9,77.7c-0.6,3.1-1.3,6,3.2,6.4c3.7,0.4,6.8,0.8,7.5-4.5 c1.8-13.7,4.2-27.3,6.4-40.9C231.9,688.5,233.3,679.5,235,669z M637.9,742.7c9.2,0.7,10.2-0.1,10.2-8.9c0-17.1-0.1-34.3-0.1-51.4 c0-4.1,0-8.2,0-13.4c1.2,1.6,1.7,2.2,2.2,2.9c15.1,22.9,30.2,45.8,45.1,68.8c2.5,3.9,5.2,3.6,8.9,2.7c4-1,3.9-3.6,3.9-6.7 c0-22.5,0-45,0-67.5c0-6.8,0-13.6,0-20.3c-9.4-1-10.3-0.3-10.3,8.9c0,20.1,0.1,40.2,0.1,60.3c0,1.3-0.1,2.6-0.2,4.2 c-15.2-22.6-30.1-44.7-45.1-66.7c-5.7-8.3-7.8-8.9-16.5-5.6c0.6,5.5,1.6,10.6,1.7,15.7C638,691.2,637.9,716.8,637.9,742.7z M577.9,741.5c0-30.8,0-61.7,0-92.5c-11.7-1.5-12.8-0.6-12.8,10.4c0,9.7,0,19.4,0,29.4c-15.1,0-29.6,0-44.6,0c0-10.1,0-19.8,0-29.5 c0-12.1-0.6-12.5-12.8-9.1c0,30.8,0,61.7,0,92.5c11.3,1.6,12.9,0.3,12.8-10c0-11.2,0-22.4,0-33.9c15.2,0,29.7,0,44.6,0 c0,11.3,0,22.4,0,33.4C565.1,744.8,565.1,744.8,577.9,741.5z M364.7,649.6c-0.7,3.7-0.8,6.6-1.8,9.1c-9.6,23.5-19.3,46.8-28.9,70.3 c-1.6,4-3.2,8-4.8,12c10.3,3.5,10.5,3.4,14.4-5.9c2.5-5.9,5.1-11.8,7.3-17.8c1.1-3.2,2.8-4.1,6.1-4c8.7,0.2,17.3,0.2,26,0 c3.1-0.1,4.6,0.9,5.7,3.8c2.2,6,4.7,11.9,7.1,17.9c3.7,9.3,6.8,10.4,16.3,5.7c-11.7-29.5-23.4-58.9-35.1-88.4 c-1.2-3.1-3.1-4.4-6.3-3.7C368.3,649.1,366.2,649.4,364.7,649.6z M491.6,730.2c-5.6,1.2-10.6,2.8-15.7,3.2 c-5.1,0.5-10.4,0.6-15.4-0.5c-19.5-4.2-30.6-23.1-27-44.8c2.9-17.4,12.2-28,27.3-30.8c8.6-1.6,16.9-0.3,24.8,3.3 c3.5,1.6,5.7-0.2,6.5-2.9c0.4-1.7-0.7-4.4-2.1-5.8c-1.4-1.5-3.9-2-5.9-2.7c-33.2-11.1-64.6,11.5-64.8,46.6 c-0.2,35.5,28.6,56.9,62.5,46.4C487.6,740.4,491.2,736.9,491.6,730.2z M777.7,649.2c-12.5,0-25-0.3-37.5,0.1 c-8.5,0.3-8.5,0.8-8.2,9.4c0,1.3,0,2.6,0,3.9c0,24,0.1,47.9,0,71.9c0,5.3,1.8,7.8,7.3,7.8c10.7,0,21.4,0.6,32.1,0.6 c6.8,0,9.1-2.4,10.7-10.2c-12.4,0-24.6,0-37.1,0c0-11.5,0-22.3,0-33.7c7.6,0,15,0,22.3,0c6.8,0,8.7-2,9.4-9.8c-10.5,0-20.9,0-31.5,0 c0-10.5,0-20.5,0-30.8c8.2,0,16,0.1,23.7,0C775.7,658.2,777,656.7,777.7,649.2z M601,650.1c-0.1,0.4-0.3,1-0.3,1.5 c0.1,27.1,0.3,54.1,0.4,81.2c0,11.6,0.4,12,11.9,9.1c0.3-0.1,0.5-0.5,0.8-0.6c0-13.7,0-27.3,0-40.9c0-13.6,0-27.3,0-40.9 c0-12.5,0-12.5-12.3-9.8C601.3,649.7,601.2,649.9,601,650.1z"></path> <path style="fill:#FFFFFF;" d="M139.3,472.4c6.1,6.9,12.8,12.7,17.5,19.9c8.4,12.9,7.6,27.3,3.3,41.5c-2.1,7-4.1,14.5-8.1,20.3 c-7.8,11.2-16.6,21.7-25.7,31.9c-12.2,13.6-28.2,21.5-45.8,25.8c-8.6,2.1-17.4,3.5-26.2,4.2c-8.6,0.7-17.3,0.1-26,0.2 c-4.2,0-6.5-1.8-5.6-6c3.4-17.6,7.1-35.2,10.4-52.8c5.1-27,9.9-54.1,14.9-81.1c4.3-23.3,8.8-46.6,13.1-69.9c1.4-8,2.6-16,3.2-24 c0.4-4.9,3.5-6.6,7.1-7c15.1-1.5,30.2-2.8,45.4-3.4c5.3-0.2,11,1.2,15.9,3.3c24.3,10.7,38.4,26.9,32.6,56.2c-3,15.3-11.4,28-23,38.4 C140.9,470.9,139.6,472.1,139.3,472.4z M124.5,524.7c-0.2-6.8-0.3-13.2-5.6-18.8c-10.4-11.1-23.5-9.9-36.7-9.1 c-0.9,0.1-2.1,1.9-2.4,3.1c-1.8,7.6-3.6,15.2-5.1,22.9c-3.4,18.4-6.4,36.8-9.8,55.1c-0.7,3.8,0.7,5.6,4.2,4.8 c8.3-1.9,16.7-3.8,24.8-6.6c5.2-1.8,11.5-3.7,14.5-7.7C118.1,555.7,124.1,541.1,124.5,524.7z M77.8,471.4c5.8-0.5,10.8-0.7,15.7-1.4 c8.1-1.2,16.7-0.1,22.9-7.9c11.8-15,16.8-32,15.5-50.8c-0.3-5-7.1-12.6-13.6-12.1c-3.1,0.2-7.1,0.8-9.1-0.8 c-5.3-4.2-11.1-0.7-16.5-2c-0.9-0.2-3.4,2.2-3.7,3.7c-1.4,7.1-2.2,14.4-3.4,21.5c-1.8,11.7-3.7,23.3-5.6,35 C79.3,461.4,78.6,466.2,77.8,471.4z"></path> <path style="fill:#FFFFFF;" d="M658,476c0-9.2-0.4-18.4,0.1-27.5c0.7-11.8,3.7-22.9,8.3-34c2.8-6.9,5.8-13.1,10.4-18.8 c12.7-15.5,28.6-24.2,49-24.2c18-0.1,34.7,4,49.3,14.8c16.1,11.9,26.5,27.8,33.4,46.3c6.5,17.5,9.7,35.6,10.3,54.3 c0.8,22.8-2.2,44.5-12.9,64.8c-8.5,16.1-21.6,26.2-40,28.9c-24,3.5-45.9-2.6-64.5-17.3C673.5,541.3,658.5,512.1,658,476z M789,496.2 c-0.5-0.1-1.1-0.2-1.6-0.4c-0.7-20.4-3.1-40.6-11.5-59.5c-11.6-26-28.2-40.5-58.7-39.1c-8.7,0.4-16.3,4-21.8,11.6 c-10.6,14.5-12,31.3-12.7,48.2c-0.4,7.8,1,15.6,2.1,23.4c2.6,18.5,7.8,36.2,18.9,51.5c4.1,5.6,8.9,11.6,14.9,14.9 c6.3,3.5,14.2,4.6,21.6,6c16.6,3,34.5-3.1,40.6-20.3C784.8,520.8,786.3,508.3,789,496.2z"></path> <path style="fill:#FFFFFF;" d="M569.6,564.2c-32.9,1-59-18.4-72.3-47.5c-7.8-17.1-10.9-35.1-10.8-53.7c0.1-16.6,3.4-32.9,9.5-48.5 c2.7-6.8,4.3-13.8,8.7-20.2c10-14.5,23.1-23.4,40.2-27.2c38.1-8.5,71.9,9.3,88.8,46.2c6.4,14,10,28.7,11.2,44.1 c1.7,23.2-1.6,45.4-11.2,66.4C622.1,549.2,599.4,564.8,569.6,564.2z M570.9,538.5c13.6-0.8,21.8-3.9,29.2-11.1 c15.8-15.4,16.7-36.1,18.9-56c0.6-5.3-1.2-10.8-2-16.3c-2.6-17.8-7.4-34.7-19.8-48.7c-21.1-23.9-66.8-22.6-79.7,15.6 c-2.2,6.6-3.3,13.7-4.6,20.6c-3.8,21-0.8,41.2,6.5,61.1C528.5,528.5,550.6,538.6,570.9,538.5z"></path> <path style="fill:#FFFFFF;" d="M226.4,372.9c3-0.6,6.8-1.7,10.8-2.3c7.6-1.3,12.9,1.5,14.9,9.4c4.6,17.5,8.5,35.3,12.8,52.9 c3.2,13.1,6.9,26.1,10.1,39.2c4.3,17.8,8.2,35.8,12.5,53.6c2.8,11.8,5.8,23.5,8.9,35.1c1.1,4.2-2.3,11.8-6.5,13.3 c-4.4,1.6-9,2.9-13.5,4.2c-5.4,1.5-7.9-1.9-9-6.2c-3.6-13.7-6.9-27.4-10.2-41.1c-1.2-5.1-2.4-10.2-3.7-15.6c-10.1,1-20.1,2-30,3 c-8,0.8-16,1.8-24,2.4c-4.6,0.4-7.3,2-9.1,6.7c-7.2,18.6-14.8,37-22.4,55.4c-4.5,10.8-12.5,14.7-22.4,11.3c-4-1.3-5.5-3.2-3.7-7.7 c22.5-54.2,44.7-108.5,67.1-162.7c5.1-12.3,10.8-24.4,15.6-36.8C226.2,383.1,225.8,378.3,226.4,372.9z M249.7,489.6 c-4.7-23.4-9.4-46.5-14.1-69.5c-0.5,0-1,0-1.5,0.1c-5.4,12-10.9,23.9-16,35.9s-9.7,24.3-14.9,37.6 C219.3,492.2,234.3,490.9,249.7,489.6z"></path> <path style="fill:#FFFFFF;" d="M312,371.6c6.1-0.6,12-1.6,17.9-1.8c4.2-0.2,8.6,5,8.7,10.7c0.2,7.3-0.2,14.7-0.8,22 c-3.5,43.1-7.1,86.2-10.6,129.3c-0.2,2.3,0,4.7,0,8.7c21.3-1.2,42.1-2.4,62.9-3.6c1.6,10.2-7.1,29-19.6,29.5 c-20.7,0.8-41.4,2.2-62.1,3.2c-6.3,0.3-10.9-4.6-10.4-11c1.3-17,3-33.9,4.4-50.8c0.9-10.4,1.5-20.8,2.3-31.2 c1.4-17.7,3.1-35.4,4.3-53.1c1-14.7,1.6-29.4,2.4-44C311.6,377,311.8,374.6,312,371.6z"></path> <path style="fill:#FFFFFF;" d="M426.5,533.5c22.4,0,43.9,0,67.2,0c-2.3,7.2-3.7,14-6.5,20c-3.9,8.4-12.6,8-20,8.2 c-17.5,0.5-35,0.2-52.4,0.1c-9.5-0.1-12.9-3.7-12.6-12.9c0.8-21.7,1.4-43.4,2.3-65.1c0.6-16.9,1.5-33.8,2.2-50.7 c0.7-18.9,1.3-37.9,1.9-56.8c0-1.6-0.2-3.3-0.4-4.9c-0.7-5.1,1.2-7.4,6.5-7.7c3.1-0.2,6.2-0.8,9.3-0.9c5.5-0.2,8.1,1.9,8.2,7.2 c0.2,9.2-0.1,18.5-0.3,27.8c-0.1,4-0.5,8.1-0.7,12.1c-0.8,25.4-1.5,50.8-2.4,76.1C428.1,501.8,427.2,517.3,426.5,533.5z"></path> <path style="fill:#FFFFFF;" d="M601.3,295.9c-0.1-1.2-0.3-2.4-0.3-3.7c0-21.2,0.1-42.4-0.1-63.6c0-3.8,1.2-5.5,5-5.2 c1.1,0.1,2.2,0,3.3-0.1c32.9-0.5,50.1,28,34.8,57.5C636.6,295,618.2,301.6,601.3,295.9z"></path> <path style="fill:#FFFFFF;" d="M727.3,261.8c5.7,0.9,12.2,1.1,18.1,2.9c6.6,2,9.5,8.6,8.8,16.6c-0.7,8.3-5.7,14.1-13.6,16 c-11.7,2.9-14.6,0.7-14.6-11.1c0-7.3,0.1-14.7,0.2-22C726.2,264,726.5,263.6,727.3,261.8z"></path> <path style="fill:#FFFFFF;" d="M726.4,253.6c0-10,0-19.9,0-30.1c4.2,0,8-0.5,11.7,0.1c6,0.9,10.1,4.5,11.2,10.6 c1.3,6.9,0,13.2-5.4,18.1c-1.1,1-3,1.2-4.6,1.2C735.2,253.7,731,253.6,726.4,253.6z"></path> <path style="fill:#FFFFFF;" d="M464.1,260.1c0-12.6-0.1-23.2,0.1-33.9c0-1,1.3-2.6,2.3-3c8.1-2.4,17.6,1.6,20.8,8.5 c4.1,8.8,1.8,20.8-5.9,24.6C476.5,258.8,470.5,258.8,464.1,260.1z"></path> <path style="fill:#FFFFFF;" d="M202.7,256.5c-4.7,0-9.2,0-13.7,0c0.9-5.6,4.7-9.2,9.2-8.4C202.7,248.9,203.7,251.8,202.7,256.5z"></path> <path style="fill:#FFFFFF;" d="M370.8,668.4c4.3,11.4,8.6,22.9,13.2,34.9c-9.6,0-18.4,0-28.1,0c4.7-12.1,9.1-23.6,13.6-35.2 C369.9,668.2,370.4,668.3,370.8,668.4z"></path> </svg> 