<?xml version="1.0" encoding="UTF-8"?> <svg xmlns="http://www.w3.org/2000/svg" xmlns:xlink="http://www.w3.org/1999/xlink" version="1.1" id="Layer_1" x="0px" y="0px" viewBox="0 0 1000 1000" style="enable-background:new 0 0 1000 1000;" xml:space="preserve"> <g> <path style="fill:#FFFFFF;" d="M266.9,544c2.7-22.5,5.7-48.3,7.4-62.5c-3.6-1.7-7.2-2.9-11.1-4.1c-1.7-0.8-1.5-3.2,0.2-3.6 l38.5-8.5c4.9-1.1,9.1,2.8,8.4,7.7l-3.9,33.9l53.5-11.8l5.1-43.5l36.6-8.1l-13.3,111.1c-0.4,3.3-2.3,5.4-5.3,6l-31.5,7l5.1-44.3 l-63.5,14c-1.8,0.4-2,2.4-0.5,3.1l9.3,5.3c-3.8,23.4-0.2,32.9-8.7,34.8l-31.5,7C261.4,585.9,264.1,566.8,266.9,544z"></path> <path style="fill:#FFFFFF;" d="M427.6,447.6c-3.6-1.7-7-3-10.9-4.1c-2-0.7-1.7-3.1,0.1-3.5l48.1-10.6l-13,111 c-0.4,3.3-2.3,5.4-5.3,6l-31.3,6.9C417.1,533.8,424.9,473.9,427.6,447.6z"></path> <path style="fill:#FFFFFF;" d="M477.9,539.8c0.6-6.5,2.7-22.6,3.7-28.5c0.1-1.9,1-2.9,1.9-4.1l70-69.7l-68.1,15.1 c0.6-2.8,0.8-5.5,0.9-7.9c0.2-4.4,0.8-8.7,1-9.9l-10.8-4.3c-1.7-0.8-1.5-2.8,0.3-3.2l128.4-28.4c-0.7,5.3-2.9,20.3-3.7,26.2 c-0.5,1.6-1.2,2.9-2,3.9l-73.1,73.4l76.2-16.8l-2.6,23.1c-0.5,3.1-2.6,5.4-5.5,6.1L477.9,539.8L477.9,539.8z"></path> <path style="fill:#FFFFFF;" d="M631.6,402.5l-10.8-4.3c-1.7-0.8-1.3-2.9,0.4-3.3l47.7-10.6c-4.7,40.8-7.4,62.2-8.9,76.6l-1.2,1.4 c-0.9,1.4-2.7,3.4-5.6,7.9c-0.9,1.4,0.2,3.1,1.8,2.8l65.9-14.6c-0.7,5-2.2,16.5-2.9,23.2c-0.4,3.3-2.3,5.4-5.3,6l-93.6,20.7 C625.9,448.5,628.8,427.3,631.6,402.5z"></path> <path style="fill:#FFFFFF;" d="M747.8,376.8c-3.6-1.7-7-3-10.9-4.1c-2-0.7-1.7-3.1,0.1-3.5l48.1-10.6l-13,111 c-0.4,3.3-2.3,5.4-5.3,6l-31.3,6.9C737.3,463.1,745.1,403.1,747.8,376.8z"></path> </g> <g> <path style="fill:#FFFFFF;" d="M259.7,690c2.4-18.4,7.6-60.8,9.3-76l-7.6-3.1c-1.1-0.6-0.9-2.1,0.3-2.4l28.4-6.3 c3-0.7,5.7,1.7,5.2,4.7l-1.8,16.1l24.9-26c0.8-0.8,1.7-1.3,2.5-1.5l29.3-6.5l-35.8,37.1l24.8,39.6c1.9,2.8,0.2,6.8-3.1,7.5l-22.7,5 c-3.6-5.8-12.4-20.7-14.8-25.2l0.5-8.1c0-1-1.3-1.6-2.1-1l-6.7,6.3l-3.4,30.4c-0.3,2.4-1.9,3.9-4,4.4L259.7,690L259.7,690z"></path> <path style="fill:#FFFFFF;" d="M365.2,592.8l-7.6-3.1c-1.1-0.6-1.1-2,0.2-2.3l97-21.4c-1.2,10.8-7.3,64.9-8.5,79.4 c-0.3,2.4-1.6,3.8-3.8,4.3l-22.9,5.1l2.7-20.2l-37.5,8.3l-1.9,16.5c-0.3,2.4-1.6,3.8-3.8,4.3l-22.7,5 C357.9,654,363.6,608.8,365.2,592.8z M386.7,625.9l37.2-8.2l2.7-23.3c0.3-2-0.7-2.6-2.9-2.1l-39.6,8.8c-1.3,0.3-1.3,1.7-0.3,2.4 l5.3,3L386.7,625.9z"></path> <path style="fill:#FFFFFF;" d="M463.9,644.9c0.4-4.7,2-16.2,2.7-20.5c0-1.3,0.7-2.1,1.4-2.9l50-49.9l-48.9,10.8 c0.4-2,0.6-4,0.7-5.7c0.3-3.2,0.5-6.2,0.7-7.1l-7.6-3.1c-1.1-0.6-1.1-2,0.2-2.3l92-20.3c-0.5,3.7-2.1,14.6-2.7,18.7 c-0.4,1-0.9,2.1-1.4,2.7l-52.4,52.5l54.6-12.1l-1.9,16.5c-0.3,2.4-1.9,3.9-4,4.4L463.9,644.9L463.9,644.9z"></path> <path style="fill:#FFFFFF;" d="M571.3,547.2l-7.6-3.1c-1.1-0.6-1.1-2,0.2-2.3l97-21.4c-1.2,10.8-7.3,64.9-8.5,79.4 c-0.3,2.4-1.6,3.8-3.8,4.3l-22.9,5.1l2.7-20.2l-37.2,8.2l-1.9,16.5c-0.3,2.4-1.6,3.8-3.8,4.3l-22.5,5 C563.9,608.5,569.7,563.3,571.3,547.2z M592.8,580.4l37.2-8.2l2.7-23.3c0.3-2-0.7-2.6-2.9-2.1l-39.6,8.8c-1.3,0.3-1.3,1.7-0.3,2.4 l5.3,3L592.8,580.4z"></path> <path style="fill:#FFFFFF;" d="M672.2,598.8c1.1-11.2,6.7-56.5,8.9-75.9l-7.6-3.1c-1.4-0.5-1.1-2,0.2-2.3l34.3-7.6l35.2,44.7 l-1.4-16.7l4.2-36.3l26-5.7l-9.3,79.6c-0.3,2.4-1.6,3.8-3.8,4.3l-21.2,4.7c-3.4-4.5-11.8-14.4-19.4-23.6 c-4.5-5.5-9.1-10.9-14.2-17.1c-0.3,1-5.8,48.1-5.4,45.8c-0.3,2.4-1.6,3.8-3.8,4.3L672.2,598.8L672.2,598.8L672.2,598.8z"></path> </g> <path style="fill:#FFFFFF;" d="M486.4,414c-0.1-25.7-0.1-50.6-0.2-75.8c-5.2,0-10.3-0.1-15.3,0c-7.8,0.3-15.5,0.3-23.2,1.2 c-12.7,1.5-25.3,3.4-37.9,5.6c-14.4,2.5-28.2,7-41.7,12.4c-13.4,5.4-26.2,12-38.1,20.2c-6,4.2-11.9,8.6-17.6,13.3 c-10.4,8.7-19.5,18.7-27.8,29.4c-3.6,4.7-6.6,9.8-9.9,14.7c-1.4,2.1-2.9,4.3-4.6,6.8c0.8-3.7,1.4-7,2.3-10.2c1.4-5,2.8-10,4.4-14.9 c1.8-5.5,3.5-11.1,5.6-16.5c2.5-6.6,5.2-13.2,8.2-19.7c2-4.4,4.4-8.5,6.7-12.8c2-3.7,3.8-7.5,6.1-10.9c4.7-7,9.6-13.8,14.6-20.6 c5.7-7.8,12.4-14.7,19.7-20.9c6.7-5.7,13.5-11.6,20.9-16.4c8-5.3,16.6-9.9,25.3-14.1c11.3-5.5,23.2-9.4,35.5-12.2 c7.7-1.7,15.4-3.2,23.2-4.4c13.9-2,27.9-2.6,42-2.3c0.5,0,1.1-0.2,1.7-0.3c-0.1-25-0.1-50-0.2-75.7c44.2,37.5,87.9,74.5,131.8,111.7 C574,339,530.6,376.2,486.4,414z"></path> <path style="fill:#FFFFFF;" d="M499.9,83.8c223.9,0.2,406.3,182.7,405.7,406c-0.6,224-182.5,405.8-405.8,405.5 c-224-0.3-406.3-182.8-405.7-406C94.7,265.3,276.5,83.6,499.9,83.8z M225.3,238.8c-59.7,66.8-92,144.4-97.1,234 c17.1,0,33.6,0,50.2,0c0,11.5,0,22.4,0,33.7c-16.8,0-33.2,0-50.1,0c5.1,89.5,37.4,167,97.1,233.9c12.1-12.1,23.7-23.7,34.9-35 c8,8,15.8,15.8,24,24.1c-11.4,11.3-23,22.9-34.7,34.5C389,893.9,611,893.9,750.4,763.7c-11.7-11.7-23.5-23.3-35-34.8 c8.1-8.1,15.9-15.9,24.3-24.3c11.5,11.7,23.1,23.5,34.8,35.4c32.7-36,57.4-76.4,74.2-121.7c13.3-35.9,20.8-73.1,22.6-112 c-16.9,0-33.4,0-50,0c0-11.5,0-22.4,0-33.6c8.6,0,16.8,0,25,0c8.2,0,16.4,0,25.1,0c-5.1-89.6-37.4-167.1-97.1-234 c-12.1,12.1-23.7,23.8-34.9,35c-7.9-8-15.7-15.8-23.8-23.9c5.5-5.5,11.4-11.3,17.2-17.1c5.8-5.8,11.6-11.6,17.7-17.7 c-66.9-59.6-144.4-92-233.9-97c0,17.1,0,33.6,0,50.2c-11.4,0-22.3,0-33.8,0c0-16.7,0-33.3,0-50.2c-89.5,5.2-167,37.5-234.1,97.4 c12.1,12,23.9,23.6,35.4,35c-7.9,8-15.7,15.7-23.7,23.7C248.9,262.5,237.3,250.8,225.3,238.8z"></path> <path style="fill:#FFFFFF;" d="M398.6,726.5c11.2,0,22.1,0,33.3,0c0,11.1,0,22,0,33.3c-11,0-22,0-33.3,0 C398.6,748.8,398.6,737.9,398.6,726.5z"></path> <path style="fill:#FFFFFF;" d="M567.7,759.9c0-11.2,0-22.2,0-33.3c11.1,0,22.1,0,33.3,0c0,11,0,22,0,33.3 C590,759.9,579,759.9,567.7,759.9z"></path> <path style="fill:#FFFFFF;" d="M483.2,759.9c0-11.2,0-22.1,0-33.3c11,0,21.9,0,33.2,0c0,11,0,22,0,33.3 C505.3,759.9,494.4,759.9,483.2,759.9z"></path> </svg> 