<?xml version="1.0" encoding="UTF-8"?> <svg xmlns="http://www.w3.org/2000/svg" xmlns:xlink="http://www.w3.org/1999/xlink" version="1.1" id="Layer_1" x="0px" y="0px" viewBox="0 0 1000 1000" style="enable-background:new 0 0 1000 1000;" xml:space="preserve"> <path style="fill:#FFFFFF;" d="M839.6,534.4c5-26.2,10-52.5,15.1-78.7c2.7-13.8,2.8-13.8,17-13.8c33.3,0,66.6,0,99.8,0 c2.2,0,4.4,0,7.8,0c-5.9,31.3-11.7,61.9-17.5,92.5C921.2,534.4,880.4,534.4,839.6,534.4z M916,459.2c4.2,21,11.5,40,2,60.5 c4.3,0,6.8-0.2,9.1,0c4.6,0.5,6.6-1,7.4-6c1.5-9.2,3.5-18.2,9.3-26.2c7-9.6,12.9-20,19.4-30.2c-12.7-2.3-13.6-1.8-19.6,7.9 c-2.6,4.3-5.4,8.5-9,13.9c-1.5-7.2-2.7-12.6-3.6-18.1c-0.6-3.3-2-4.8-5.6-4.7c-6,0.2-12.1,0.3-18.1,0c-4.3-0.2-7.2,1-9.3,4.9 c-2.1,3.8-4.8,7.2-7.9,11.8c-4.8-17.8-6.7-19.3-19.6-15.5c2.3,8.2,4.3,16.4,7,24.5c1.3,4,0.6,6.7-1.8,9.8 c-6.6,8.7-12.8,17.6-19.3,26.5c14.9,5.6,21.3-3.8,27.5-15.7c2.1,6.5,2.2,12.8,5.4,15.4c3.1,2.5,9.3,1.3,15.3,1.8 c-3.1-10.2-5.8-18.8-8.3-27.6c-0.5-1.8-1.1-4.3-0.2-5.6C902.3,477.9,908.7,469.3,916,459.2z"></path> <path style="fill:#FFFFFF;" d="M17.6,474.3c1.1-2.5,2.2-5,3.2-7.6c8.3-22.8,30.8-35.8,55.7-32.2c22.4,3.3,40.7,23.8,41.5,46.5 c0.9,24.8-14.9,45.9-38.4,51.4c-2.1,0.5-4.2,1.3-6.3,1.9c-3.6,0-7.3,0-10.9,0c-1.7-0.6-3.4-1.2-5.1-1.7 c-19.1-4.6-31.5-16.4-37.7-34.8c-0.6-1.9-1.4-3.7-2-5.6C17.6,486.3,17.6,480.3,17.6,474.3z M68.7,456.2c-0.1-5.3-4.4-9.4-9.7-9.3 c-4.9,0.1-9.1,4.3-9.2,9.2c-0.1,5.1,4.4,9.7,9.5,9.7C64.3,465.9,68.8,461.4,68.7,456.2z"></path> <path style="fill:#FFFFFF;" d="M455.5,492.1c3.2-9.4,6.6-18.8,9.5-28.4c1.1-3.8,3-4.9,6.9-4.9c11.9,0,11.8-0.1,15.4,11.2 c2.5,7.8,5,15.5,8,24.8c3.5-10.7,6.5-20.1,9.8-29.4c0.8-2.3,2.3-5.8,3.9-6c4.7-0.7,9.6-0.1,14.3,0.3c0.3,0,0.9,2.8,0.6,4 c-5.7,17.9-11.5,35.7-17.4,53.6c-0.2,0.6-0.3,1.6-0.6,1.6c-5.8,0.7-11.7,1.5-17.6,1.5c-1.5,0-3.6-2.8-4.3-4.7 c-2.8-7.9-5.2-15.9-7.7-23.9c-0.3-1.1-0.9-2.1-1.8-4.2c-3.4,10-6.5,18.9-9.3,28c-1.2,3.9-3.3,5.2-7.4,5.2c-14,0-14.1,0.2-18.5-13 c-4.8-14.4-9.3-28.9-14.1-43.2c-1.6-4.6,0-5.6,4.3-5.8c13.4-0.3,13.4-0.4,17.6,12.4c2.3,7.1,4.7,14.2,7,21.3 C454.7,492.3,455.1,492.2,455.5,492.1z"></path> <path style="fill:#FFFFFF;" d="M170.2,492.1c6-10,11.4-19,16.7-27.9c2.8-4.7,12.6-7.7,17.2-4.9c1.2,0.7,2,3,2,4.5 c0.1,17.2,0.1,34.4,0.1,51.6c0,3.3-1.1,5.2-4.9,5.2c-15.4-0.2-12.6,1.5-12.9-12.1c-0.1-4.9,0-9.8-1.1-15c-3.3,5.4-6.7,10.7-9.9,16.1 c-4.5,7.3-10.4,7.3-15.1,0c-2.9-4.5-5.7-9.2-8.6-13.7c-0.2-0.3-0.6-0.5-2-1.8c0,7.2-0.3,13.4,0.1,19.6c0.3,5.1-1.2,7.1-6.7,6.9 c-13-0.4-11.1,1-11.1-10.8c-0.1-15,0.1-30-0.1-45c-0.1-4.8,1.7-6,6.3-6.3c6.8-0.4,11.1,1.5,14.4,7.9 C158.9,475,164.5,482.9,170.2,492.1z"></path> <path style="fill:#FFFFFF;" d="M286.4,487c0-7.6,0.1-15.1-0.1-22.7c-0.1-3.7,0.8-5.5,5-5.4c16.4,0.4,13-1.9,13.2,12.8 c0.2,15.8,0.1,31.6,0.1,47.3c-9.1,3.4-15,1.9-20.8-5c-6.1-7.3-12.3-14.6-18.4-21.9c-0.5,0.2-1,0.3-1.5,0.5c0,6.9-0.3,13.8,0.1,20.7 c0.3,5.3-1.1,7.5-6.9,7.2c-13.3-0.6-11.3,1.4-11.4-11.7c-0.1-14.4,0.1-28.8-0.1-43.2c-0.1-4.8,1.2-6.6,6.4-6.8 c6.5-0.3,10.9,1.5,14.8,6.9c5.6,7.7,12.2,14.7,18.3,22.1C285.4,487.4,285.9,487.2,286.4,487z"></path> <path style="fill:#FFFFFF;" d="M787,519.2c-1.2,0.8-1.4,1-1.6,1c-17.1,2.1-17.1,2.1-17.1-14.6c0-13.6,0.1-27.2-0.1-40.8 c-0.1-4.3,1.3-6.2,5.9-6c10,0.5,20.1,0.4,30.1,1.1c9.5,0.7,16.8,5.8,19,15c2.4,9.7,1,19.2-8.5,25.5c-0.3,0.2-0.5,0.6-1.1,1.2 c3.6,5.6,7.3,11.4,12,18.7c-7.6,0-13.1,0.2-18.6-0.2c-1.4-0.1-2.9-2-3.9-3.3c-2.4-3.2-4.2-6.9-7-9.7c-1.5-1.6-4.5-2.3-6.8-2.3 c-0.8,0-2.1,3.3-2.3,5.2C786.7,513.1,787,516.3,787,519.2z M787.4,490c6.4-0.5,12.9,1.8,16.6-4.3c1.2-2,1.1-6.3-0.3-8.1 c-4.1-5.5-10.3-3.4-16.4-3.4C787.4,479.5,787.4,484.4,787.4,490z"></path> <path style="fill:#FFFFFF;" d="M364.5,520.8c-8.1,0-16.1,0-24.1,0c-7.1,0-14.1-0.1-21.2,0.1c-3.3,0.1-4.7-1.2-4.7-4.6 c0.1-17.6-0.1-35.2,0.1-52.8c0-1.6,2.1-4.4,3.2-4.5c15-0.3,30.1-0.2,45.5-0.2c0,5.2,0,9.7,0,15.1c-9.8,0-19.5,0-29.2,0 c-1.6,5.8-0.4,8.3,5.4,7.9c5.2-0.4,10.5,0.1,15.7-0.1c3.9-0.2,5.6,1.2,5.3,5.1c-0.2,1.8-0.2,3.6,0,5.4c0.3,3.5-1.4,4.5-4.7,4.4 c-7.2-0.1-14.5,0-21.5,0c-1.9,8.7-1.6,9.2,6.6,9.2c7.6,0,15.3,0,23.5,0C364.5,510.7,364.5,515.3,364.5,520.8z"></path> <path style="fill:#FFFFFF;" d="M114.6,456.4c-6-5.7-10.9-11.4-16.8-15.6c-5.8-4-12.7-6.4-20-10c3.9-4.6,7.6-9.6,12.1-13.7 c1.6-1.4,5.6-0.9,8.1-0.1c2.3,0.7,4.1,3.1,6.3,4.9c0.9-0.6,1.8-1.1,2.5-1.8c6.3-6.9,14.2-6.9,22.8-5.8c6.1,0.7,12.4-0.1,15.6-0.2 c4.6-9,7.8-15.4,11.6-22.9c1.6,2.7,2.2,3.9,3.1,5.3c3.1-2.7,6.1-5.3,10-8.8c0,4.1,0,6.6,0,9.7c1.9-0.8,3.5-1.5,5.6-2.4 c0.2,1.7,0.4,3,0.7,5c7-0.7,14.1-1.4,21.2-2.1c0.4,0.5,0.8,0.9,1.1,1.4c-5.5,4.2-11,8.3-17.6,13.3c3.9,1.5,7.2,2.7,12.3,4.7 c-5.2,1.9-9.3,3.4-13.8,5c1.2,2,2.1,3.6,3,5.1c-5.3,1.2-10,3.1-14.7,3.2c-2.8,0.1-5.8-2.4-8.5-4c-4.2-2.6-7.7-3.4-13.1-1.8 c-6.6,2-14.3,0.9-21.4,0.5c-4.4-0.3-7.9,0.2-10.6,4.6c2.7,2.4,5.4,4.7,8.1,7.1c3.3,2.9,3.8,6,1,9.5 C120.2,449.9,117.2,453.3,114.6,456.4z"></path> <path style="fill:#FFFFFF;" d="M589.4,459.1c15.7,0,31.4,0,47.6,0c0,4.7,0,9.4,0,14.8c-9.6,0-19.4,0-29.4,0c0,2.8,0,4.9,0,7.7 c6.9,0,13.7,0.4,20.5-0.1c6.2-0.5,6.9,2.5,6.8,7.5c-0.1,4.6,0.1,8.2-6.5,7.7c-6.8-0.6-13.6-0.1-20.8-0.1c0,3.2,0,5.7,0,9 c10,0,20.2,0,29.9,0c0.6,1.1,1,1.4,1,1.7c0.5,16.8,1.6,13.2-12.8,13.5c-10.7,0.2-21.4,0-32,0.1c-2.9,0-5.2-0.3-5.1-4 c0.1-18.4,0-36.8,0.1-55.2C588.6,460.9,589,460.1,589.4,459.1z"></path> <path style="fill:#FFFFFF;" d="M729.4,474.1c0,2.9,0,4.8,0,7.6c7.1,0,14.1,0.3,21.1-0.1c6.8-0.3,5.3,4.3,5.5,8.1 c0.2,3.8,0.4,7.2-5.3,6.8c-6.8-0.4-13.7-0.1-21-0.1c0,3.2,0,5.9,0,9.3c8.3,0,16.8,0.3,25.2-0.1c5.7-0.3,6.3,2.4,5.9,6.8 c-0.3,3.9,1.5,8.7-5.7,8.5c-13.1-0.4-26.2-0.1-39.3-0.1c-3.1,0-5.6-0.1-5.6-4.3c0.1-18.4,0.1-36.8,0.2-55.2c0-0.6,0.4-1.1,0.8-2.4 c10.4,0,21,0,31.7,0c3,0,6.1,0.3,9.1-0.1c6.3-0.9,7.7,1.8,7.8,7.7c0.1,6.1-1.8,8.1-7.9,7.7C744.6,473.7,737.3,474.1,729.4,474.1z"></path> <path style="fill:#FFFFFF;" d="M550.2,474c0,2.8,0,4.8,0,7.7c6.6,0,13,0.3,19.4-0.1c5-0.3,7.1,1.3,6.5,6.4c-0.3,2.5-0.1,5.1-0.1,8.4 c-4.9,0-9.1,0-13.3,0c-4,0-8,0-12.5,0c0,3.2,0,5.9,0,9.3c8.4,0,16.8,0.3,25.2-0.1c5.2-0.2,6.3,2.1,5.9,6.5c-0.4,3.9,1.6,8.8-5.6,8.7 c-13.1-0.3-26.2-0.2-39.3,0c-4.2,0.1-5.6-1.3-5.6-5.5c0.2-16.8,0.2-33.6,0-50.4c0-4.3,1.2-6.1,5.8-6c12.7,0.2,25.4,0.3,38.1,0 c6.7-0.2,5.4,4.2,5.6,8.1c0.2,4.1,0.2,7.6-5.7,7.3C566.6,473.8,558.6,474,550.2,474z"></path> <path style="fill:#FFFFFF;" d="M393.9,522.4c-7.1-1.8-14.3-3.4-21.4-5.3c-3.4-0.9-4.2-3.3-2.3-6.5c0.9-1.5,1.6-3.2,2.2-4.9 c1.3-3.6,3.2-4.1,6.9-2.9c5.8,1.9,12,3.1,18.1,3.8c2,0.2,4.3-2.1,6.4-3.3c-1.8-1.5-3.5-3.6-5.6-4.4c-4.1-1.5-8.6-2.1-12.8-3.4 c-11.2-3.2-15.5-8.2-15.4-17.7c0-9.2,5.6-16.1,15.7-18.7c9.8-2.5,19.5-1.7,29.1,1.4c4.2,1.4,6.1,3.7,3.6,8.1 c-0.7,1.2-1.2,2.5-1.6,3.9c-1.1,4-3.1,4.6-7.2,3.2c-4.8-1.6-10.1-2.2-15.3-2.4c-1.8-0.1-3.7,2.2-5.6,3.5c1.5,1.4,2.8,3.4,4.5,4 c4.3,1.5,8.9,2.2,13.4,3.5c12,3.5,16.9,9.4,15.9,19.2c-1,9.7-9.3,16.9-20.5,17.7c-2.6,0.2-5.2,0-7.9,0 C394.1,521.5,394,522,393.9,522.4z"></path> <path style="fill:#FFFFFF;" d="M665.3,504.3c0,5.5,0,10.2,0,15.3c-6.2,0-11.7,0-18.1,0c0-4.2,0-8.3,0-12.4c0-14.2,0.1-28.4-0.1-42.6 c-0.1-4.1,1.2-5.8,5.5-5.6c10,0.4,20.2-0.2,30.1,1c15.2,1.9,22.8,14.2,18.9,28.7c-2.4,8.8-11.2,15.1-22,15.5 C675.2,504.5,670.7,504.3,665.3,504.3z M665.5,490.2c6.3-1.1,13.2,2.3,17.2-4c1.4-2.1,1.2-6.9-0.4-8.8c-4.3-5.2-10.7-3.7-16.8-3.7 C665.5,479.2,665.5,484.2,665.5,490.2z"></path> <path style="fill:#FFFFFF;" d="M216.2,489.7c0-8.4,0.1-16.8-0.1-25.2c-0.1-4.1,1.3-5.7,5.6-5.7c15.8,0.3,13.4-1.5,13.5,12.8 c0.1,14.2-0.2,28.4,0.1,42.6c0.1,4.8-1.7,6.1-6.3,6.1c-12.8-0.1-12.8,0.1-12.8-12.6C216.2,501.7,216.2,495.7,216.2,489.7z"></path> </svg> 