<?xml version="1.0" encoding="UTF-8"?> <svg xmlns="http://www.w3.org/2000/svg" xmlns:xlink="http://www.w3.org/1999/xlink" version="1.1" id="Layer_1" x="0px" y="0px" viewBox="0 0 1000 1000" style="enable-background:new 0 0 1000 1000;" xml:space="preserve"> <path style="fill:#FFFFFF;" d="M10.2,374.3c18,0.1,36,0.2,54,0.3c15.8,0,31.6,0,47.4-0.1c2.9,0,4.3,0.6,3.6,4.1 c-0.6,3.6-0.2,7.4-0.2,11.2c0,18.8,0.1,37.6-0.1,56.4c0,3.9,1.3,5.1,5,5.1c15-0.2,29.9-0.2,44.9-0.1c2.9,0,3.8-0.9,3.8-3.8 c-0.1-22.8,0-45.7-0.1-68.5c0-3.5,1-4.6,4.4-4.5c32.2,0.1,64.3,0.2,96.5,0.1c2.7,0,4.4,0.1,4.4,3.7c-0.2,29.7-0.1,59.3-0.2,89 c0,13.1-0.4,26.2-0.4,39.3c-0.1,38.8-0.1,77.6,0,116.4c0,3.3-0.9,4.3-4.2,4.3c-32-0.1-64.1-0.1-96.1,0c-3.2,0-3.9-1.2-3.9-4.2 c0.1-26.7,0-53.4-0.1-80.1c0-9.2-0.1-9.2-9.1-9.2c-13.3,0-26.6,0.1-39.9-0.1c-3.9-0.1-5,1.3-5,5c0.1,27.8-0.1,55.6,0,83.4 c0,4-1,5.2-5,5.2c-30.5-0.1-61-0.1-91.5-0.1c-2.8,0-5.5,0.2-8.3,0.3C10.2,543.2,10.2,458.7,10.2,374.3z"></path> <path style="fill:#FFFFFF;" d="M837.4,631.7c-2.4-0.6-4.7-1.5-7.1-1.7c-18.9-1.7-37.3-6.1-54.2-14.5c-31.5-15.7-55-39.1-67.1-72.8 c-7.1-19.6-8.8-39.6-5.8-60.2c4.9-33.1,21.4-59.5,47.1-80.2c13.6-10.9,29.1-18.7,46-24c19.1-6,38.6-8.2,58.5-7.1 c15.5,0.9,30.5,4.2,45.1,9.7c18.9,7,35.6,17.5,49.8,31.7c15,15,25.8,32.6,31.9,53.1c4.4,15,7.3,30.2,5.3,45.5c-1.5,12-4.7,24-9,35.3 c-11.7,30.7-33.7,52.5-62.7,67.4c-12,6.2-24.7,10.6-38,12.8c-8.5,1.4-17.1,2.8-25.6,4.2c-0.3,0.1-0.5,0.5-0.8,0.8 C846.3,631.7,841.8,631.7,837.4,631.7z M845.4,576.6c3.5-3.7,6.7-7.2,10-10.5c21.3-21.7,42.6-43.4,63.8-65.1 c3.3-3.4,3.2-4.2-0.2-7.3c-3.5-3.2-6.8-6.4-10.2-9.7c-20-19.3-40.1-38.5-60-57.8c-2.2-2.2-4-2.7-6.6-0.2 c-24.1,23.2-48.3,46.3-72.5,69.4c-1.5,1.5-1.7,2.3,0,4c13.5,13.5,26.9,27.1,40.2,40.7C821.6,552.1,833.3,564.2,845.4,576.6z"></path> <path style="fill:#FFFFFF;" d="M698.2,537.9c0,15.6,0.1,30.7,0,45.7c-0.1,12.9-0.6,25.7-0.2,38.6c0.1,4.7-1.6,5.1-5.4,5.1 c-44.4-0.1-88.7-0.1-133.1-0.1c-13.6,0-27.2-0.1-40.8,0.1c-3.2,0-4.3-0.7-4.3-4.1c0.1-50.5,0-101,0-151.5c0-30.3,0-60.6,0-90.9 c0-1.1-0.6-2.4-0.1-3.2c0.6-1.2,1.8-2.9,2.8-2.9c18.5-0.1,37.1,0.1,55.6,0.1c13.7,0,27.4,0,41.1-0.1c5.4-0.1,5.5-0.1,5.5,5 c0,46.6,0,93.2,0,139.9c0,4.4-0.1,8.8-0.3,13.3c-0.2,3.8,1.1,5.3,5.3,5.2c23-0.2,46-0.1,69.1-0.1 C694.7,537.9,696.2,537.9,698.2,537.9z"></path> <path style="fill:#FFFFFF;" d="M290.6,374.6c7.3,0,14.1,0,21,0c14.1,0,28.2,0,42.3,0c12.7,0,25.5,0.1,38.2,0c2.6,0,3.2,1.1,3.2,3.6 c-0.1,40.7-0.1,81.3-0.2,122c-0.1,40.9-0.4,81.9-0.5,122.8c0,3.1-1,4.1-4,4.1c-32.2-0.1-64.3-0.1-96.5,0c-3,0-3.4-1.4-3.4-3.8 c0-7.7-0.1-15.5-0.1-23.2c0-73.6,0-147.2,0-220.8C290.6,377.9,290.6,376.5,290.6,374.6z"></path> <path style="fill:#FFFFFF;" d="M502.1,539.2c-31.3,0-62,0-93.1,0c0-26,0-51.8,0-77.9c1.3-0.1,2.7-0.3,4-0.3 c28.3,0,56.6,0.1,84.8-0.1c3.5,0,4.4,0.9,4.4,4.4c-0.2,23-0.1,45.9-0.1,68.9C502.1,535.8,502.1,537.4,502.1,539.2z"></path> <path style="fill:#FFFFFF;" d="M894.2,498.8c-0.7,1-1.2,1.8-1.9,2.5c-8.8,8.9-17.6,17.7-26.3,26.6c-5.8,6-11.5,12-17.3,18 c-2,2.1-4,3.6-6.8,0.7c-14.5-15-29-30-43.8-44.8c-2.6-2.6-2.2-4.3,0.1-6.5c8.7-8.3,17.4-16.6,26.2-25c6.1-5.9,12.3-11.6,18.4-17.6 c1.7-1.7,3-1.8,4.7-0.1c7.6,7.5,15.3,15,23.1,22.4c7.2,6.9,14.4,13.7,21.5,20.5C892.9,496.5,893.4,497.7,894.2,498.8z"></path> </svg> 