<?xml version="1.0" encoding="UTF-8"?> <svg xmlns="http://www.w3.org/2000/svg" xmlns:xlink="http://www.w3.org/1999/xlink" version="1.1" id="Layer_1" x="0px" y="0px" viewBox="0 0 1000 1000" style="enable-background:new 0 0 1000 1000;" xml:space="preserve"> <path style="fill:#FFFFFF;" d="M55.6,569.8c1.8-3.2,5.8-7.1,5-9.4c-4.9-15.1,5.3-23.5,13.3-32.9c7.3-8.6,16.1-16.6,22.1-25.3 c7.6-11.1,16.4-6.9,24.9-8.3c3-0.5,6.4,1.4,6.1,6c-0.3,5.2-0.1,10.4-0.1,15c-8,2.8-15.5,6-23.4,8.1c-2.3,0.6-5.4-1.5-9.1-2.7 c-0.5,1.1-1.8,3.9-3.3,7c2.2,0.8,4.1,1.5,6,2c1.3,0.3,3.6,0.7,3.8,0.3c4.5-9.4,14-6.3,21.2-8.2c6.1-1.6,9.6-5.4,8.4-12 c-0.5-3.2-1-8,0.8-9.7c4.6-4.2,15.7-4.3,19.3-1.5c4.7-6.3,16.5-6.4,20.9,0.3c12.7,19.6,28.7,36.3,46.2,51.7c3.4,3,5.8,6.9,9.9,11.9 c-26.6,0-51.2,0-75.5,0c0,16.7,0.4,32.6-0.3,48.5c-0.2,4.1-2.9,9-6,11.8c-15.4,13.7-31.1,26.9-47.1,39.9c-9.2,7.4-19.1,13.9-30.4,22 c-1-4.4-2.1-7.2-2.3-10c-1.1-21.2-2-42.4-3.2-63.6c-0.2-3.3-2-6.5-2.4-9.8c-0.3-2.7,1.2-5.7,0.5-8.2c-1.2-3.9-3.6-7.5-5.4-11.2 C55.6,577.7,55.6,573.7,55.6,569.8z M101.1,536.3c17.2,2.2,12.4,15.9,15.1,25.7c1.3-2,1.1-4.3,2.2-5.5c4.8-4.9,2.9-8.4-1.1-12.8 c-3.1-3.4-4.8-8.1-7.4-12.7C107.4,532.6,104.6,534.2,101.1,536.3z"></path> <path style="fill:#FFFFFF;" d="M473.3,666.4c8.1,8.8,16.2,17.7,24.4,26.6c-13.3,16.8-27,34.5-41.2,51.8 c-8.5,10.5-8.8,10.4-23.3,10.5c-32.4,0.1-64.8-0.3-97.3,0.2c-11.2,0.2-15.6-8.2-21.1-14.9c-1.3-1.5,2-6.8,2.9-9.4 c-1.2-4.6-3-9.2-3.6-13.8c-1-8.3-0.2-16.9-2-24.9c-1.3-5.5-5.7-10.2-8.9-15.2c-6-9.3-12.3-18.4-18.1-27.7c-1-1.7-0.7-4.3-0.6-6.5 c1.1-36.7,2.2-73.4,3.2-108.7c11-9.9,21.8-18.7,31.5-28.6c6.5-6.7,13.3-9.1,22.7-9c31.7,0.1,63.3-0.9,95-1c3.3,0,7.4,2,9.9,4.4 c12.7,12,24.9,24.4,37.3,36.6c4.6,4.5,2.7,22.3-2.6,25.6c-3.2,2-5.9,4.7-8,6.5c5.3,3.4,10.8,5.5,14.2,9.5c2.5,2.9,2.8,8.1,3.2,12.4 c1.7,18.3,3.1,36.7,4.7,55.1c0.4,4.4,1.1,8.8,1.8,14.6c-26.1-10-51.3-19.7-75.8-29.1c6.8,3.8,14.4,7.9,21.9,12.3 c7.5,4.5,14.8,9.2,22.3,13.9C468.2,660.3,470.8,663.4,473.3,666.4z M331.5,507.5c1.4,3.4,2.5,5.6,3.2,7.9c4.3,16,10.8,30.8,21.1,44 c3,3.8,5.6,9.1,5.8,13.8c0.5,11.1-0.7,22.2-0.8,33.3c-0.3,21.7-0.3,43.3-0.8,65c-0.1,6.1-1.3,12.1-2.1,18.9c1.2,0.2,3.3,1,5.3,0.9 c7.9-0.3,15.8-1.3,23.6-1.1c6.4,0.2,12.5-0.2,18.8-1.1c3.2-0.4,6.7,1.2,10.8,2.1c0.3-0.7,1.9-2.7,1.7-4.6c-0.7-8.4-2.3-16.6-2.7-25 c-1.6-31.6-2.9-63.3-4.3-95.3c-16.1-0.9-31.6-1.7-47.1-2.6C356,543.4,350.9,521.9,331.5,507.5z M322.9,555.1 c0.3,0.7,0.6,1.5,0.9,2.2c2.5-1.9,6.3-3.4,7.2-5.9c0.8-2.1-1-6.5-3-8c-4-3-8.1-5-11.1-9.8c-1.9-3.1-7.4-5-11.1,0.5 c-0.7,1.1-2.9,1.2-4,2.2c-2.4,2.2-6.8,5.3-6.4,6.9c1.2,4,4,9.4,7.3,10.4C309,555.5,316.1,554.8,322.9,555.1z M428,557.9 c-2.1,2.4-4.9,4.3-5.4,6.5c-1.8,10.3,5.7,20.2,15.9,21.6c1.4,0.2,3.8-0.7,4.2-1.7c1-2.6,2.5-6.1,1.5-8.1c-2.3-4.8-5.7-9.1-9.1-13.3 C433.7,561.1,431.3,560.1,428,557.9z M437.6,739.2c0.6-0.7,1.3-1.3,1.9-2c-11.7-15.6-19.2-35.2-41.8-42.6 C411.6,710.1,424.6,724.6,437.6,739.2z"></path> <path style="fill:#FFFFFF;" d="M536.3,533.9c6.7,8.2,6.7,8.2,9.5,6.8c-1.2-1-2.4-1.9-3.6-2.9c1.1-1.3,2.2-2.6,3.4-3.8 c1.2-1.1,3.2-1.7,4-3.1c2-3.2,5.5-7.1,4.8-9.9c-0.7-3.1-5.4-5.2-9.4-8.7c2.6-4.5,6-10.4,9.6-16.6c4.6,0,9.3,0.4,14-0.1 c7-0.8,10.1,1.7,11.3,8.8c2.2,13.4,5.4,26.6,9.8,39.9c0.3-1.7,0.9-3.4,1-5.1c0.5-12.6,1-25.2,1.3-37.8c0.1-5,1.6-6.6,7.3-6.6 c18.1,0,36.2-0.5,54.2-1.9c11.2-0.9,20.9,0,28.5,9.4c2.1,2.6,5,4.7,8.3,7.9c-12,7.1-23.4,13.9-34.8,20.6c0.3,0.8,0.6,1.6,0.9,2.4 c11.7-3.3,23.7-5.9,35-10.1c7.9-3,13.1-1.7,18.9,4.1c6.5,6.6,14.6,11.6,21.4,17.9c1.9,1.7,2.4,5.7,2.3,8.6 c-1.1,28.6-2.5,57.2-3.8,86.5c-1.1,0.3-2.3,0.3-3.3,0.8c-6.2,3-7.5,9.4-2.7,14c3.3,3.1,5.4,5.8,4.9,11.2c-1,10.1,2.3,21.2-1.1,30.1 c-3.2,8.5-12.7,14.4-19.2,21.8c-8.2,9.4-16,19.3-24.4,28.6c-1.6,1.8-5.2,2.2-7.9,2.7c-4.1,0.7-8.3,0.5-12.3,1.3 c-7.4,1.4-12.8-3.4-12.9-10.6c-0.3-17.6,4.8-35.3-0.6-53c-0.3-0.9,2.9-3.9,4.8-4.2c5.5-0.9,11.1-0.9,16.6-1.3 c0.3-0.8,0.6-1.5,0.9-2.3c-3.5-2.8-6.6-7.3-10.4-7.9c-3.9-0.7-8.5,2.4-13.6,4.2c0-36.7,0-72.6,0-109.1c-17.5-1.5-34.8-3-52.6-4.5 c0,2.5,0,4.6,0,6.6c-11.3,1.3-21.3,0.9-31.1-6c-7.4-5.2-17.1-6.9-25.3-11.1C531.3,546.9,531,544,536.3,533.9z M674.1,615.2 c-0.2-6.1-12-15.6-17.7-14.2c-1.1,0.3-2.2,1.8-2.6,2.9c-1.1,4,5.2,15.3,9.3,16.9C667,622.4,674.2,618.8,674.1,615.2z M626.9,531.6 c0-8-4.8-12.8-10.2-13c-7-0.3-8.9,7-8.2,9.6c0.9,3.7,6,7.6,10.1,8.6C621.2,537.5,625,533,626.9,531.6z M679.8,595.6 c-1,0.2-2,0.4-3.1,0.6c-0.7,2.6-2.7,5.7-1.9,7.7c1.1,2.8,4.1,5.2,6.7,7.1c0.4,0.3,5.1-3.6,4.8-4.3 C684.6,602.7,682.1,599.2,679.8,595.6z"></path> <path style="fill:#FFFFFF;" d="M230,678.7c-11.9-2.6-23.6-5.2-36.6-8.1c0-17.6,0-36.9,0-56c13.1,12.1,26.7,24.6,40.3,37.1 c0.7-0.4,1.3-0.8,2-1.3c-8.3-10.4-16.4-20.8-10.7-36.8c15,0,31.2,0,48,0c-2.4,46.4-5,94.6-7.5,143.7c-42.5,0.9-84.2,1.7-126.5,2.6 c0-6.6,0-12.8,0-19.1c-0.5,0-1,0-1.6,0c0,6.1,0,12.2,0,19.3c-6.9,0-13.3,1.6-18.5-0.4c-6.5-2.5-12.6-7.2-17.6-12.2 c-9.9-9.9-18.7-20.8-28.3-30.9c-7-7.4-6.6-16.5-6.8-25.4c0-1.4,1.8-3.4,3.2-4.1c21.6-11,43.3-21.8,64.5-32.4 c2.6,1.9,4.3,3.1,7.5,5.5c-10.2,2.3-20.5,4.4-22.7,14.5c-2.1,9.8,4.5,17.5,12.2,24.8c-2.5,2.2-5.4,3.7-6.5,6 c-1.3,2.7-2.3,8.3-1.3,8.9c7.1,4.2,2.8,7.1-1.4,10.4c9.2-0.6,10.5-2.8,7.6-10.1c-0.8-2.1-0.9-6.3,0.4-7.2c7.2-5.5,6.3-12.1,3.1-19.2 c9.6-0.7,18.5-1.3,28-2c-2.6,6.8-5,13.1-7.4,19.5c0.8,0.4,1.6,0.7,2.3,1.1c3-5.1,5.9-10.3,9.2-15.2c1.2-1.8,3.2-4.4,5-4.5 c8.8-0.5,17.5-0.2,26.3-0.2c-1.5,2.3-3.2,4.8-5,7.6c1.6,0.6,2.3,0.9,2.3,0.9c6.5-13.7,18.9-9.3,29.7-9.7 C227.5,685.5,231.7,685.9,230,678.7z"></path> <path style="fill:#FFFFFF;" d="M516.5,652.9c-1.1-1.2-3.3-2.3-3.3-3.5c0-9.1-0.4-18.3,0.9-27.2c1.5-10.7,4.4-21.2,7.3-31.7 c0.6-2.2,3.9-5.5,5.4-5.3c8.1,1.4,9-5,10.2-9.5c1.8-6.6-4-5.7-8-6.2c-0.4,0-0.8-0.5-2.1-1.2c1.1-4.1,2.3-8.5,3.8-14.5 c2.7,3.4,5.5,5.7,6.7,8.6c3,7.2,8,9.3,15.3,7.8c6.8-1.4,12.1,1.1,17.2,6c7.3,6.9,15.7,12.8,23.3,19.4c1.8,1.5,3.3,4.4,3.3,6.7 c0,27.7-0.3,55.3-0.6,83c0,1.5-0.7,3.1-1.4,5.9c12.4-1.5,24.5-3,37.3-4.5c2.3,2.6,4.5,7.3,11,5.1c1.2-0.4,5.6,3.2,5.6,5.1 c0.3,11.2,0.2,22.4-0.5,33.6c-0.5,8.1-5.9,16.4,1.9,24.9c-44.7,0-89.3,0-134.9,0c0-20.1,0-39.4,0-60.5c10.1,4,20,8,29.8,11.9 c-7.1-5.4-15.8-9.5-7.3-20.6c0.5,0.1,2,0.4,3.2,0.7c-5.5-7.9-11-15.7-16.5-23.6C521.5,659.9,519,656.4,516.5,652.9z M565.4,719.8 c5.8,3.9,11.6,7.9,17.4,11.8c0.5-0.7,1-1.4,1.5-2.2c-5.3-3.8-7.8-11-16-11c-6.4-4.3-12.9-8.6-20.3-10.5c-0.3,0.7-0.7,1.5-1,2.2 C553.1,713.3,559.3,716.5,565.4,719.8z M527.2,630.2c-3.7,6.9-1.8,14.2,4.8,16.8c1.5,0.6,5.1-0.4,5.6-1.6 C540.3,638.6,534.9,631,527.2,630.2z M636.1,704.2c-2.9-1-5.7-2-8.6-3c-0.4,1.3-1.5,3-1,3.9C628.6,709.3,631.8,709.4,636.1,704.2z"></path> <path style="fill:#FFFFFF;" d="M747.2,606.8c0.5-7.7,1.1-16,1.8-24.8c7-1.1,13.7-2.1,21.8-3.4c-5.2-3.2-8.9-6.4-13.2-7.8 c-6.3-2-8.2-5.1-7.5-11.8c2-19.1,3.3-38.4,5-58.8c7.5,2.4,14.9,5.4,22.5,6.7c4.1,0.7,9.8-0.5,12.9-3.1c4.5-3.7,8.9-5.5,14.6-5.8 c13.6-0.7,27.1-2.1,40.7-2.7c5.9-0.3,10.8,0.8,11.2,9.1c0.1,2.6,6.7,5.1,10.6,7.2c0.9,0.5,2.7-0.8,4.1-1.3 c9.8-3.3,15.9-2.6,20.8,6.2c2.8,4.9,2.5,13,0.6,18.6c-2.1,6.2-7.4,11.4-11.7,16.6c-4.8,5.8-10.7,8.9-18.8,8.2 c-7.3-0.7-14.8-0.1-22-0.1c-1.4,8.4-2.8,16.2-4.2,24.7c23.4,10.4,46.9,20.9,71.3,31.7c-11.6,10.5-22.6,20.6-33.8,30.5 c-6.3,5.5-13,10.5-19.5,15.7c-3.8,3-6.8,2.2-9.5-1.6c-1.1-1.5-2.7-2.8-4.3-3.8c-27.8-15.5-55.7-31-83.6-46.4 C753.9,609.2,750.7,608.2,747.2,606.8z M775.8,522c-0.4-0.7-0.8-1.3-1.3-2c-1.9,1.4-5.6,3.6-5.4,4.2c1,2.6,2.7,5.7,5,6.9 c6.2,3.4,12.3,6.6,17.1,12.1c1.8,2.1,5.2,3.2,8,3.9c1,0.2,3.9-2.4,3.7-3.4c-0.4-2.9-1.8-5.8-3.1-8.5c-1.1-2.3-3.6-4.3-3.9-6.7 c-1.2-8.4-7.7-12.3-15.5-8.8C779,520.5,777.4,521.2,775.8,522z M815.7,626c2.3-3.2,4.6-5.6,4.3-6.2c-1.9-3-4.6-5.5-6.9-8.2 c-1.3,1.5-4,3.7-3.6,4.5C810.6,619.2,812.9,621.9,815.7,626z M817.6,531.2c0.1-1.6,0.2-3.1,0.4-4.7c-3.2-1.1-6.4-2.3-9.6-3.4 c0,3,0,6.1,0,9.1C811.5,531.9,814.5,531.6,817.6,531.2z"></path> <path style="fill:#FFFFFF;" d="M441.9,381.8c-7.9-0.5-15.1-0.9-22.9-1.4c1.1-2.6,2.2-5,3.2-7.4c-5.5,3.9-10.6,7.4-17.1,12 c-1.7-10.2-3-17.8-4.4-25.9c-8.1,0-15.9,0-24.2,0c-1.3,7.7-2.5,15.3-3.6,21.8c-9.1,0-18.1-1.4-26.5,0.3c-12.9,2.6-25.5-1.3-38.2-0.1 c-8.3,0.8-17,1.4-22.3-10.1c-1.1,4.8-1.7,7-2.3,9.6c-9.7,0.6-19.5,1.2-29.4,1.9c0-41.5,0-84.5,0-126c13.9,0,27,0.1,40.1,0 c12.9-0.1,25.8-0.4,40.2-0.6c-0.3,6.7-0.7,15.2-1.1,22.7c-14.1,0.7-28,1.4-42,2c-0.6,8.2-1.2,16.5-1.8,25.1 c13.1-0.8,27.1,1.2,41.5-1.3c0,6.9,0,15.9,0,24.5c-13,0-26.5,0-41,0c0,9.2,0,18.7,0,28.8c14.1-0.7,29.4,1.4,45.6-1.4 c0.3,1.7,0.7,4.9,1.5,10.3c4.7-16.5,8.9-31.2,13.2-46.2c1.9,0.8,3.3,1.4,4.9,2.1c0.1-0.9,0.3-1.6,0.1-1.8c-4.1-2.9-3.9-6.3-2.7-10.9 c4.7-17.9,9-36,13.4-53.7c15.2,0.3,29.7,1.6,44.5-0.9C420.9,296.6,431.4,339.1,441.9,381.8z M398.1,337.4 c-3.4-15.6-6.7-30.2-10.3-46.5c-3.1,16.7-6,31.5-8.8,46.5C384.9,337.4,391.4,337.4,398.1,337.4z"></path> <path style="fill:#FFFFFF;" d="M777.8,753.9c-7.8,1.9-15.5,3.8-23.3,5.4c-1.2,0.2-3.4-0.9-4.1-2.1c-4.5-7.7-0.6-24,7.1-28.3 c2.3-1.3,6,0.1,9.7,0.2c7.6-9.1,7.6-9.7-0.2-18.6c3.6-5,7.1-10,10.6-15.1c-0.4-0.3-0.8-0.7-1.3-1c-2.1,2.6-4.3,5.2-6.4,7.8 c-0.7-0.4-1.3-0.8-2-1.2c0.9-4.5,1.9-8.9,3.1-14.7c2.8,1.1,5.3,2.2,7.7,3.2c3.4-5.8,5.9-1.1,7.7,0.3c4-0.8,7.2-2.2,10.4-2.1 c14.8,0.6,29.6,1.6,44.7,2.5c-0.5-6.2-1-11.9-1.4-16.8c11.2-3.2,22-8.5,30.4-16.9c7.5-7.4,10.3-9.2,20.1-5.5 c5.8,2.3,11.7,4.3,17.5,6.4c2.1-2.3,4.5-5,6.9-7.6c-12.4,7.7-20.6-1.5-30.7-6.2c9.9-8,19-15.6,28.3-22.7c1.3-1,4-0.5,6-0.1 c3,0.6,5.9,1.6,10.2,2.8c-1.7,12.5-6.1,26-4.6,38.9c2.6,23.3-16.9,21.4-28.5,27.4c-9.6,4.9-21.5,5.4-32.1,8.8 c-11.1,3.5-22.3,7.3-32.7,12.4c-12.1,6-23.1,2.4-35.1-0.9c0.7,2.8,1.5,6,2.2,8.5c5.6-0.9,10.7-1.6,17.8-2.7 c-2.1,6.5-3.7,11.2-5.2,15.9c0.3,0.1,0.6,0.2,0.9,0.3c2.3-4.1,4.6-8.2,6.9-12.3c0.3,0.5,0.5,1,0.8,1.5c6.7-3.5,13.4-7,20.1-10.5 c1.5-0.8,3.2-2.9,4.3-2.6c14.1,4.2,23.6-7.8,36.2-9.8c12.3-2,24.2-7.2,36.1-11.3c2.1-0.7,3.7-3.2,7.5-6.6c0,13.2,0.6,24.4-0.2,35.5 c-0.6,9.7-2.7,19.3-4.1,29c-0.6,4-2.9,5.5-7,5.8c-29.3,2.6-58.5,5.6-87.7,8.4c-11.8,1.1-23.6,2.1-35.4,3.3 C781.4,763.5,778.9,758.9,777.8,753.9z"></path> <path style="fill:#FFFFFF;" d="M150.3,255c4.3,0.6,7.1,1.4,9.9,1.4c16.3,0.1,32.7,0.2,49,0c12.1-0.2,21.5,6.3,28.9,14 c11.6,12.1,0.9,41.4-15.4,45.2c-2.2,0.5-4.1,2.6-6,3.9c6.4,3.3,12.7,5.6,17.7,9.4c3,2.3,5.4,6.9,5.8,10.8c1.3,12,1.6,24.1,2.1,36.2 c0.2,3.7-1.8,4.9-5.4,4.9c-9.3-0.2-18.6-0.1-29.3-0.1c-3.5-7.6-2.2-17.3-2.6-27c-0.3-7.6-2.8-15.2-3.5-22.8c-0.3-3.7,1.2-7.6,2-12.5 c-6,3.5-6.7,14.9-17.2,9.4c0,19,0,36.5,0,53.6c-12.3,0-23.8,0-35.8,0c0-21.9,0-44.5,0-67.1c0-1,0.3-2,0.3-2.9 c0.7-12,5.3-16.1,18.3-17.2c-2.4-0.7-4.7-1.7-7.2-2c-6.8-0.7-11.5-5.6-11.5-12.4C150.3,271.5,150.3,263.2,150.3,255z M185.9,275.8 c0,11.8,0,23.3,0,35.3c6.4,0.4,14.8,1.6,18-5.2c3.7-7.7,4.5-17.2-0.6-25.4C199.5,274.3,193.1,275.1,185.9,275.8z"></path> <path style="fill:#FFFFFF;" d="M720,263.4c10.3,6.6,15.2,16.9,12.3,30.5c-2.3,11-8.9,18.1-19.6,21.6c-2,0.7-3.5,3.1-5.2,4.7 c5.7,2.4,10.7,3.8,15,6.4c7.5,4.6,10.3,11.6,10,20.5c-0.3,8.9,0.5,17.7,0.8,26.6c0.2,5-2.6,6.2-7,6.2c-8.6-0.1-17.3,0-27.3,0 c-0.7-5.3-1.8-11.5-2.4-17.8c-0.5-5.4-0.4-10.9-0.5-16.3c-0.3-15.1-3.8-17.8-19.3-14.7c0,16.4,0,32.9,0,48.7c-10.8,0-21.1,0-31.8,0 c-0.4-1.6-1-2.7-1-3.8c-0.1-3.7,0-7.5,0-11.2c3.9,0.3,7.9,0.4,11.8,0.8c2.1,0.2,4.1,0.8,6.2,1.3c0.2-0.6,0.5-1.3,0.7-1.9 c-6.3-3.2-12.6-6.4-20-10.1c0-32.2,0-66,0-99.5c4.1,0.4,7.8,0.9,11.6,1c18,0.5,36,0.8,54,1.6c2.3,0.1,4.5,2.6,6.7,4 c-1.5,1.9-2.9,3.9-4.6,5.6c-2.2,2.2-4.6,4.2-7,6.2c0.6,0.6,1.1,1.3,1.7,1.9C709.9,271.9,714.7,267.8,720,263.4z M676.9,311 c0.4,0.1,1.6,0.3,2.8,0.3c6.5,0.1,14.9,0.6,16.6-6.4c1.9-7.6,1.1-16.6-0.9-24.3c-1.7-6.3-9.3-6.1-14.7-4.8c-1.8,0.4-3.4,5.6-3.6,8.6 C676.6,293,676.9,301.5,676.9,311z"></path> <path style="fill:#FFFFFF;" d="M631.4,255.4c-2,5-3.6,9-5.1,12.7c0.7,0.9,2.8,2.5,2.9,4.1c0.8,23,2,46,1.5,68.9 c-0.2,9-2.7,18.8-7.3,26.4c-3.3,5.5-11.4,10.5-17.9,11.3c-13.5,1.7-27.9,2.7-40.9-0.2c-18.6-4.2-23.2-14.7-24.1-33.5 c-1-22.1,0-44.4,0.1-66.6c0-7.6,0-15.1,0-22.2c11.8,0,22.3,0,33.8,0c0,14,0,27.3,0,40.6c0,13.6-0.2,27.2,0,40.8 c0.1,7.1,0.7,14.2,1.2,21.3c0.3,4.1,6.7,8.2,11.4,6.8c4.3-1.3,8.4-1.8,7.7-9.6c-1.4-15.9,0.1-32,0.2-48c0-7.2-0.7-14.3,0.6-21.7 c0.6,1.4,1.2,2.8,1.6,3.9c2.3-1.1,5-2.4,8.8-4.3c-3.1-0.9-6.3-1.9-10.5-3.1c0-8.9,0-18.6,0-27.7 C606.9,255.4,618.1,255.4,631.4,255.4z"></path> <path style="fill:#FFFFFF;" d="M912.5,341.1c3-0.9,5.9-1.8,8.9-2.7c4.3,9.1,0.8,24.9-7,31.4c-16.2,13.4-50,16.3-68.1,6 c-12-6.8-14.7-17.7-14.2-29.7c11,0,21.9,0,33.4,0c0.4,4,0.4,7.9,1.3,11.6c0.5,2.3,2.2,5.9,3.7,6.1c4.6,0.6,9.4,0,14-0.8 c0.7-0.1,0.8-4,1.1-6.2c0-0.2-0.3-0.5-0.2-0.7c6.8-20-9.6-22.1-21.4-27.2c-12.6-5.4-24-11.7-28.8-25.6c-8.4-24.3,7.9-44.4,29.9-48.4 c14.4-2.7,28.5-2.4,41.1,6.2c10.1,6.8,14.6,16.6,13.1,28.7c-10.8,0-21.2,0-31.8,0c-0.8-3.6-1.1-7.9-2.7-11.6 c-2.4-5.8-9.8-6.7-14-2.1c-4.5,4.8-3.1,20.5,2.6,23.7c7,3.9,14.6,6.9,21.9,10.3c11.4,5.3,22.6,10.9,27.2,24.8 c-3.6,1.6-7,3.2-10.4,4.8C912.2,340.1,912.4,340.6,912.5,341.1z"></path> <path style="fill:#FFFFFF;" d="M826.9,357.6c-0.3,7.3-0.7,15.4-1,22.9c-26.9,0-53.1,0-79.8,0c0-41.2,0-83.1,0-124.1 c7.9,0,15.3-0.2,22.6,0.1c6.7,0.2,13.4,0.9,19.7,2.4c2.6-0.8,5.1-2.2,7.7-2.3c9.5-0.3,18.9-0.1,28.4-0.1c0,6.8,0,15.3,0,22.2 c-13.6,0-26.8-0.2-39.9,0.3c-1.3,0-3.3,3.8-3.5,5.9c-0.5,6.6-0.2,13.3-0.2,20.6c12,0,26.2,0,40.6,0c0,7.1,0,15,0,22.2 c-12.1,0-23.6,0.1-35.1-0.1c-4.3-0.1-5.7,1.7-5.6,5.7c0.2,5.4,0.2,10.9,0,16.3c-0.1,2.3-0.7,4.7-1.3,8 C794.6,357.6,810.2,357.6,826.9,357.6z"></path> <path style="fill:#FFFFFF;" d="M474.5,345.5c0.7,3.5,2,7.4,1.9,11.3c-0.2,7.3,4.3,8.2,9.9,8.2c5.8-0.1,8.6-2.3,9-8.9 c0.8-16.1-1.5-19.8-16.4-26c-10.7-4.4-22-8-29.6-17.5c-1.4-1.7-3.1-3.4-3.7-5.4c-5.3-18.7-3-38.1,16.4-48.6 c19.8-10.7,48.5-5.2,62.3,11.7c-5.3,11.7-11.6,22.2-27.4,18.9c-0.9-3.5-1.5-8.2-3.5-12.2c-1.1-2.3-4.4-4.3-7-4.8 c-3.8-0.6-6.9,1-7.9,5.7c-3.2,16.1-2.2,20.1,11.6,26.4c11.8,5.3,24.3,9.2,34,18.9c6.1,6.1,8,12.8,8.4,20.4 c0.9,18.3-7.4,29.7-23.9,35.1c-15.4,5.1-31.2,4.9-46.7,0.3c-6.7-2-12.3-5.7-14.2-10.3c4.7-6.9,8.1-12.4,12.1-17.5 c1.4-1.8,3.8-3.3,6-4.1C468.5,346.2,471.6,346,474.5,345.5z"></path> <path style="fill:#FFFFFF;" d="M121.1,381.1c-13,0-24.1,0-35.6,0c0-9.9,0-20.2,0-30.8c2.8,0.5,5.3,0.9,8.4,1.3 c-0.5-1.1-0.6-2.1-1-2.2c-10-3.4-8.2-11.7-8.1-19.4c0.1-14.3,0.1-28.6,0-42.9c0-2.1-0.3-4.3-0.6-7.2c-8.2,0.4-15.7,0.7-23.7,1 c0-8.5,0-17.5,0-26.5c8.5,2.8,77.9,2.7,85.6-0.3c0,9,0,17.8,0,26.5c-8.5,0-16.6,0-25,0C121.1,314.3,121.1,347.8,121.1,381.1z"></path> <path style="fill:#FFFFFF;" d="M198.7,491.9c20,0,39.8,0,59.8,0c0,22.6,0,47,0,73.3c-11.7-6.8-22.4-12.7-32.6-19.2 c-5.1-3.3-9-8.6-14.1-12c-9.9-6.4-13.2-15.1-12-26.4C200.3,503,199.2,498.3,198.7,491.9z"></path> <path style="fill:#FFFFFF;" d="M556.6,403.9c7,0,13.1,0,20.4,0c-3.8,14.8,4.1,30.5-5.3,44.9c1.1-0.5,2.2-1,3.9-1.8 c0,8.1,0,15.6,0,22.8c-5.7,0-11.3,0-18,0c0-7-0.3-15,0.1-22.9c0.2-3.9-0.9-5.4-4.9-5.4c-3.5,0.1-6.5,0.1-6.4,4.9 c0.1,7.9,0,15.8,0,23.5c-6.3,0-12.1,0-18.5,0c0-21.3,0-43.6,0-65.5c6.5,0,12,0,18.3,0c0,5.2,0,10.9,0,16.5c0,9.5,0.1,9.5,10.4,9.1 C556.6,421.5,556.6,412.9,556.6,403.9z"></path> <path style="fill:#FFFFFF;" d="M404.8,417.7c-1.8,0.3-3.5,0.6-5.5,0.9c0.6,1,0.9,1.8,1.1,1.7c5.1-1.3,6.6,1.9,6.6,5.8 c0,8.1,0,16.2-0.9,24.2c-0.9,8.5-8.9,16.7-16.8,18.4c-11.1,2.4-21.1,0.3-28.8-8.5c-1.5-1.7-1.4-4.8-2.2-7.5 c4.2-0.3,7.4-0.5,10.6-0.8c0-0.7,0-1.4,0.1-2.1c-3.6-0.3-7.2-0.6-12.3-1c0.7-10.6,0.4-21.2,2.2-31.5c2-11.4,9.6-16.4,22-16.7 C393.8,400.4,401.1,405.5,404.8,417.7z M379.2,464.1c3.7,0.8,6.7,0.8,6.8-5c0.1-13.6,0.8-27.3,0.7-40.9c0-2.2-3.2-4.4-4.8-6.7 c-1.7,2.2-3.6,4.3-5,6.6c-0.6,0.9-0.2,2.4-0.3,3.6C375,436,374.4,450.1,379.2,464.1z"></path> <path style="fill:#FFFFFF;" d="M626,468.8c-5.1,0-10-0.6-14.7,0.1c-9.3,1.4-16.8-2.3-24-7c-1.6-1-2.7-4-2.8-6.1 c-0.5-16-0.8-32-0.7-48.1c0-1.8,3.4-5,5.4-5.1c12.1-0.5,24.1-0.2,36.7-0.2c0,5.3,0,9.6,0,13.5c-7.2-0.3-14.2-0.6-22-1 c-0.2,4.5-0.4,8.5-0.7,13c7.1,0.9,14,1.8,21.3,2.8c0,4.3,0,8.4,0,13.4c-6.3,0-12.6,0-18.6,0c-1.3,5.6-2.4,10.5-3.7,15.9 c7.3,0,15.3,0,23.8,0C626,462.9,626,466,626,468.8z"></path> <path style="fill:#FFFFFF;" d="M794,419.7c19.4,3.2,39.2,1.1,59.8,1.4c0,9.4,0,20,0,30.1c-20.1,0-39.5,0-59.8,0 C794,440.7,794,429.7,794,419.7z"></path> <path style="fill:#FFFFFF;" d="M453.1,431.1c1,9.5,1,9.5-8.4,9.3c-2.7-0.1-5.4,0-8.2,0c-1.5,0-2.9,0.1-4.8,0.2c0,9.8,0,19.4,0,29 c-6.2,0-11.9,0-17.8,0c0-21.5,0-43.8,0-66.7c13.6,0,27.1,0,41,0c0,4.5,0,8.6,0,12.3c-7.8,0-15.6,0-23.9,0c0.5,5.3,0.9,10.8,1.5,16.7 C440,431.7,446.6,431.4,453.1,431.1z"></path> <path style="fill:#FFFFFF;" d="M201.9,450.2c-16.2,0-31.3,0-47.7,0c1.8-5,3.1-8.5,5.1-13.9c-7.4,3.8-13.3,6.9-19.6,10.2 c0-8.1,0-16.8,0-25.7c20.7,0,41.3,0,62.2,0C201.9,430.5,201.9,440.7,201.9,450.2z"></path> <path style="fill:#FFFFFF;" d="M732.5,432.3c1.3-0.3,2.8-0.7,4.6-1.1c-1.9-1.7-4.2-2.9-4.8-4.6c-0.6-1.8,0.3-4.2,0.5-5.2 c10.3,0,19.8,0,29.4,0c9.3,0,18.7,0,28.6,0c0,9.6,0,19.9,0,28.6c-5.1,0-10,0.3-14.9-0.1c-3.4-0.2-6.8-1.4-10.1-2.1 c0.8-2.8,1.6-5.6,2.4-8.3c0.3-1.1,0.7-2.1,1.1-3.2c-0.6-0.3-1.2-0.5-1.7-0.8c-1.6,3.8-2.9,7.8-5,11.5c-0.8,1.4-3,2.8-4.7,2.8 c-5.2,0.3-10.4-0.3-15.6-0.2c-2.8,0.1-5.6,0.8-8.5,1.3C733.3,445.1,732.9,438.7,732.5,432.3z"></path> <path style="fill:#FFFFFF;" d="M858.1,431.8c2,0.3,3.8,0.7,5.6,1c0.2-0.5,0.3-1.1,0.5-1.6c-2.2-0.6-4.4-1.3-6.7-1.9 c0-3.1,0-6.7,0-8.8c18.9,1.6,37.3,0.6,56.9,0.8c2.1,8.7,4.7,19.4,7.1,29.4c-8.3,0-16.8,0-25.3,0c-4.5,0-7.9-1.4-11.4-5 c-5.2-5.4-12-9.3-18.9-13c5.4,4.7,8.4,9.7,5.7,16.8c-4.3,0.7-8.6,1.3-13.4,2C858.1,445.4,858.1,439.1,858.1,431.8z"></path> <path style="fill:#FFFFFF;" d="M664.7,420.5c21.4,0,42.5,0,64.2,0c0,10.9,0,21.1,0,29.4c-9.4,0-18.3-0.2-27.2,0.1 c-7.7,0.2-15.1,0.2-20.7-6.6c-2-2.4-4.9-4.2-7.6-5.7C666.1,433.9,662.8,428.5,664.7,420.5z"></path> <path style="fill:#FFFFFF;" d="M492.5,414.8c-5.6,0.7-9.4,1.1-13.7,1.6c-0.3-3.6-0.7-7.7-1-11.1c8,0,15.5,0,23,0 c7.4,0,14.7,0,22.6,0c0,2.9,0,7,0,11.2c-3.8-0.2-7.8-0.5-12.9-0.8c0,9.5,0,18.3,0,27.1c0,5.7-0.4,11.4,0.1,17c0.7,7-2.6,9-8.9,8.9 c-6.2-0.1-9.3-2.6-9.2-9C492.6,445.1,492.5,430.4,492.5,414.8z"></path> <path style="fill:#FFFFFF;" d="M268.4,420c17.7,0,34.6,0,51.9,0c0,2,0,5.1,0,7.6c-5.2,2.4-10,4.6-14.8,6.8c0.1,0.4,0.3,0.8,0.4,1.2 c4.6-0.9,9.3-1.8,13.9-2.7c0.4,1.5,0.7,1.9,0.7,2.3c-0.6,14.6-0.6,14.6-15.1,14.6c-9.2,0-18.3,0-27.5,0.2c-3.1,0.1-6.2,0.7-9.5,1.1 C268.4,441.3,268.4,431,268.4,420z"></path> <path style="fill:#FFFFFF;" d="M284.9,667.6c11.1,8.5,23.3,15.8,23.9,32.7c0.4,12.3,2.8,24.6,0.1,39.4c-4.3-4-7.2-6.8-10.1-9.4 c-5.2-4.7-10.5-9.4-15.7-14.1c-0.6-0.6-1-1.7-1-2.6c-0.1-15,0-30.1,0-45.1C282.9,668.2,283.9,667.9,284.9,667.6z"></path> <path style="fill:#FFFFFF;" d="M205.8,450.2c0-9.3,0-19.6,0-28.9c19.4-0.2,38.4,1.3,57.8-1.1c1.9,5.5-0.5,8.9-6.7,12 c-6.6,3.4-12.1,9-18.3,13.2c-3.2,2.1-7,4.3-10.7,4.7C220.8,450.7,213.5,450.2,205.8,450.2z"></path> <path style="fill:#FFFFFF;" d="M135.8,420.8c0,9.2,0,19.2,0,29.2c-40.7,1.5-37.3-7.8-46.7-29.2C104.9,420.8,120.1,420.8,135.8,420.8 z"></path> <path style="fill:#FFFFFF;" d="M84.4,422c3.5,9.7,6.5,18.1,10,27.8c-12.2,0-22.2,0-33.1,0c2.8-9.3,5.6-18.6,8.4-27.8 C74.7,422,79.8,422,84.4,422z"></path> <path style="fill:#FFFFFF;" d="M533.4,511.5c-4.6,10.8-8.3,19.5-11.8,27.7c-9.7-1-12.1-6.5-11.8-14.3c0.3-9.5,0.1-19,0.9-28.9 C517.6,501.5,518,514,533.4,511.5z"></path> <path style="fill:#FFFFFF;" d="M516.5,652.9c2.5,3.5,5,7,7.5,10.5c-1.3,1.8-2.7,3.7-3.6,5c3.4,3.3,7.9,7.6,12.3,12.1 c3.2,3.4,2.6,6-1.9,7.7c-5.1,1.9-10,4-17.3,7c0-13.9-0.1-26.4,0.1-38.8C513.6,655.3,515.5,654.1,516.5,652.9z"></path> <path style="fill:#FFFFFF;" d="M473.3,666.4c-2.5-3-5.1-6-7.6-9c0.2-2.8,0.7-5.5,4.6-4c8.6,3.4,17.2,6.5,25.5,10.5 c1.5,0.7,2.4,6.7,1.6,7.2c-3.1,2-7.1,3.9-10.7,3.7c-2.5-0.2-4.7-4-7.3-5.8C477.5,667.8,475.3,667.2,473.3,666.4z"></path> <path style="fill:#FFFFFF;" d="M196.3,518c-8.4-8.3-16.1-15.9-24.5-24.3c8.3,0,16,0,24.5,0C196.3,501.4,196.3,509.3,196.3,518z"></path> <path style="fill:#FFFFFF;" d="M443.2,364.8c-0.7-6.6-1.2-12.5-1.8-18.3c5.5,0.4,10,0.7,14.8,1C457.1,356.6,451.3,360.7,443.2,364.8 z"></path> <path style="fill:#FFFFFF;" d="M263.4,451.6c-4.3-0.6-8.3-1.2-12.6-1.9c0-3.3,0-6.6,0-10.5c4-1.2,8-2.3,12.6-3.7 C263.4,441.6,263.4,446.5,263.4,451.6z"></path> <path style="fill:#FFFFFF;" d="M746.2,716.1c-0.4-5.2-0.9-10-1.3-15.4c5.1,0.7,9.3,1.3,13.5,1.9 C756.7,715.3,754.7,717.7,746.2,716.1z"></path> <path style="fill:#FFFFFF;" d="M664.2,436.6c6.7,3.4,13,4.9,10.5,13.3c-3,0.7-6,1.4-9.8,2.3C664.6,447.4,664.4,442.6,664.2,436.6z"></path> <path style="fill:#FFFFFF;" d="M216.2,628c-4.6-5-7.8-8.4-12-13c6,0,10.5,0,16.6,0C219.5,618.7,218.2,622.4,216.2,628z"></path> <path style="fill:#FFFFFF;" d="M742.8,682.2c5.4,2,9.9,3.6,14.4,5.3c-0.2,0.6-0.3,1.3-0.5,1.9c-4.5,0-9,0-13.9,0 C742.8,687.4,742.8,685.3,742.8,682.2z"></path> <path style="fill:#FFFFFF;" d="M247.4,561.8c-6.2,0-10.3,0-14.4,0C234.9,555.2,235,555.2,247.4,561.8z"></path> </svg> 