<?xml version="1.0" encoding="UTF-8"?> <svg xmlns="http://www.w3.org/2000/svg" xmlns:xlink="http://www.w3.org/1999/xlink" version="1.1" id="Layer_1" x="0px" y="0px" viewBox="0 0 1000 1000" style="enable-background:new 0 0 1000 1000;" xml:space="preserve"> <path style="fill:#FFFFFF;" d="M603.6,899.7c-16.4-1.8-32.7-3.6-49.1-5.4c-19.7-2.1-39.5-2.4-56.1-16.5 c-11.8-10.1-22.2-20.6-26.5-35.8c-17.2,7.9-34.5,10.3-52.8,7.3c-13.1-2.2-26.5-2.4-39.8-3.9c-20.1-2.2-36.2-11.7-43.2-31 c-10.3-28.4-19.4-57.4-27.8-86.5c-7.2-25.2,5-43.7,23.7-59.1c9.9-8.1,19.1-17,29.5-24.2c7.3-5,16-8.1,24.2-11.6 c5.2-2.3,10.7-5.6,16.1-5.7c17.6-0.1,35.3,0.5,52.9,2.1c10.5,0.9,20.8,4.4,31.2,6.1c2.4,0.4,5.7-1.4,7.8-3.1 c11.2-8.8,21.2-19.5,33.3-26.6c25.9-15.3,54.6-17.8,83.9-13.2c8.8,1.4,14.9,1.8,20.7-7.7c5.6-9.1,15.4-15.7,23.8-22.8 c10.1-8.5,20-17.8,31.4-24.3c17.2-9.8,36-14.8,56.5-11.2c13.4,2.4,27.1,3,40.7,3.7c21.4,1.1,39.8,16.3,45.7,36.3 c7.6,26,16.8,51.5,24,77.5c5.9,21.3,1,41.1-15.5,56.4c-13.2,12.3-27.4,23.5-41.2,35.1c-12.2,10.2-27.1,13.5-40.8,15.2 c-0.8,15.4,0,30.3-2.7,44.5c-3.4,17-13.7,30.6-27.7,41.5c-14.4,11.2-27.8,23.8-41.8,35.7c-13.1,11.2-27.4,20.1-44.6,23.6 c-6.7,1.4-13.4,2.5-20.1,3.7C614.1,899.7,608.9,899.7,603.6,899.7z M624.9,863.4c-0.4-1.8-0.9-5.5-2-9.1 c-11-34-21.8-68.1-33.5-101.8c-2.7-7.8-7.9-15.2-13.3-21.6c-13.8-16.3-33.1-19.6-53.2-20.7c-14.7-0.8-29.5-1.8-44.1-4 c-18.6-2.8-28.7,7.3-23.2,25c10.5,33.8,21.1,67.5,32,101.1c8.3,25.6,26.1,40.7,52.7,44.4c21.6,3,43.3,4.9,65,6.6 C617.6,884.3,625,877,624.9,863.4z M602.9,732.9c1,4.3,2.2,10.4,4.1,16.4c10.5,34,21.3,67.8,31.5,101.9c5.7,19.2,18.6,20.6,33.2,8 c14.7-12.7,29.7-25.1,44.4-37.7c16.7-14.4,28-32.6,22.3-54.6c-10-38.4-22.4-76.2-34.9-113.8c-6.4-19.3-18-20.8-33.3-6.8 c-13.5,12.3-27,24.7-41.5,35.8C612.2,694.5,605,710.9,602.9,732.9z M546,695.5c26.1-1.1,48.6-7.8,67.3-24.8 c5.1-4.6,10.8-8.7,15.9-13.2c12.2-10.7,24.3-21.5,36.3-32.3c5-4.5,4.1-7.9-2.2-9.9c-2.2-0.7-4.5-1-6.8-1.3 c-14.9-1.6-30-2.6-44.8-4.7c-30.2-4.2-59.2-1.6-84.1,17.1c-19.9,15-38.4,32-57.3,48.3c-2.5,2.1-3.9,5.5-5.8,8.3 c3.5,1.7,6.8,4.4,10.4,4.8C499,690.7,523.2,693.1,546,695.5z M426.7,833.2c12.3,0.3,16-4.6,12.6-15.8c-7.6-24.7-14.5-49.7-23.6-73.8 c-3.1-8.2-10.5-16.5-18.2-20.9c-19.7-11.2-42.7-7.8-64.3-10c-6.7-0.7-10.1,6.2-7.9,13.3c8.2,25.9,16.5,51.9,25.1,77.6 c4.5,13.4,15.2,21.4,28.2,24C394.6,830.8,411.2,831.5,426.7,833.2z M838.7,657.6c-0.2-2.2,0-5.2-0.9-7.9 c-8.1-25.8-16.2-51.5-24.6-77.2c-3.4-10.4-8.9-11.7-17.2-4.7c-10.8,9.1-21.6,18.2-32.5,27.2c-14.2,11.7-20.8,31.7-13.5,47.2 c4.4,9.2,6.1,19.7,9.3,29.5c4.8,14.7,9.4,29.6,14.9,44.1c2.7,7.2,8.2,8.7,13.5,4.3c13.5-11.3,26.9-22.7,39.8-34.6 C835.3,678.4,838.7,668.9,838.7,657.6z M332.5,691.9c0.4,0.8,0.8,1.6,1.2,2.5c9.9,1.2,19.9,2.3,29.8,3.7c23.7,3.4,47.1,3.5,67-12 c14.9-11.7,28.6-24.9,42.7-37.3c-8-4.8-63.9-7.8-77.9-3.1C369.2,654.4,352.9,675.9,332.5,691.9z M788.3,550.5 c-0.3-1.1-0.6-2.1-1-3.2c-14.7-1.2-29.5-1.3-43.9-3.8c-13.5-2.3-26.6-1.3-37.8,5.1c-13.8,7.8-26.3,18.3-39,28 c-6.2,4.7-11.8,10.3-17.7,15.5c0.3,0.9,0.6,1.8,0.9,2.7c23.9,0.3,47.4,8.8,71.7,2.7C750.1,590.3,766,566.1,788.3,550.5z"></path> <path style="fill:#FFFFFF;" d="M634.7,511.8c-23.5-74.2-46.7-147.3-70.2-221.2c-15,4.7-29.5,9.2-44.9,14.1 c-2.4-7.2-4.7-14.3-7.4-22.4c16.5-5.2,32.4-10.3,48.3-15.2c19.1-5.9,38.1-12.3,57.4-17.5c17.8-4.8,25.9,0.2,31.6,17.9 c12.4,38.6,24.6,77.3,36.8,116c8.4,26.5,16.9,53,24.8,79.7c3.9,13.2,0.3,21.7-12.6,26.7C677.7,498,656.4,504.5,634.7,511.8z M596.8,281.5c20.7,65.4,41.5,131,62.5,197.1c3.9-1.1,7.2-2.2,10.5-3c7.6-1.7,8.8-6.2,6.6-13c-18.5-57.6-36.7-115.3-55.2-173 c-5.2-16.2-6.8-16.6-22.6-9.5C598.1,280.3,597.7,280.8,596.8,281.5z"></path> <path style="fill:#FFFFFF;" d="M235.5,639.4c-16-2-24.6-8.3-29.8-24.4c-13.6-42.5-27-85.1-40.4-127.6c-6.1-19.3-12.5-38.6-18.3-58 c-5.2-17.1-0.7-29.3,15.4-37c10.6-5.1,22.2-9.3,33.8-10.8c20.3-2.7,27.7,3.3,34.2,21.7c12.8,36.3,23.8,73.3,35.4,110 c7.9,24.8,15.7,49.7,23.4,74.6c5.9,19.1,1.2,31.2-16.8,39.3C260.6,632.4,247.8,635.4,235.5,639.4z M258.2,601.5 c-0.2-0.8-0.6-2.5-1.1-4.2c-19.3-60.7-38.7-121.4-57.7-182.2c-2.5-8.1-6.2-9.7-13.9-7c-8,2.7-8.1,7.1-5.9,14 c11.1,34.5,21.9,69,32.8,103.6c8.4,26.5,16.9,53,25.2,79.5c1.5,4.6,3.6,8.7,9.1,6.6C251.4,609.9,258.7,610.7,258.2,601.5z"></path> <path style="fill:#FFFFFF;" d="M111.8,549c12.3,38.8,24.4,77.1,36.9,116.5c-10.5,3.3-20.6,6.4-31.3,9.7c-8.7-27-17.2-53-25.4-79.1 C75.5,543.2,59,490.4,42.7,437.6c-0.6-1.9,1.1-6.4,2.6-6.9c18.5-5.9,37-11.8,55.7-16.7c15.4-4,23,0.4,28.1,15.6 c7.7,22.8,14.9,45.7,22,68.7c3.2,10.2,1.4,16.9-6.5,26.8c18.4,1.5,21.9,15.9,26.2,29.4c9.2,29,18.3,58,27.5,87 c0.7,2.2,1.2,4.4,2,7.4c-10.2,3.3-20,6.6-31,10.2c-1.5-4.3-3-8.2-4.2-12.2c-9.6-30.1-19.2-60.1-28.8-90.2 c-4.5-14.2-4.8-14.4-18.8-9.7C115.8,547.4,114.2,548.1,111.8,549z M104.6,526.1c4.8-1.6,9.2-2.3,12.7-4.4c2.1-1.3,4.3-5.4,3.7-7.4 c-6.9-22.9-14.3-45.7-21.7-68.5c-1.5-4.6-4.3-6.6-9.3-4.7c-3.4,1.2-7.1,1.8-11.6,2.9C87.3,471.6,95.9,498.6,104.6,526.1z"></path> <path style="fill:#FFFFFF;" d="M773.1,264.1c-3.4-10.7-6.5-20-9.3-29.5c-2.3-7.7-7.1-7.7-13.5-5.4c-6.2,2.2-9,4.6-6.6,12 c19.7,61.2,39,122.6,58.2,183.9c2.3,7.5,6,9.4,13.6,6.7c7.5-2.7,9.4-6.5,6.7-13.8c-3.2-8.7-5.8-17.6-9.1-27.5 c10.4-3.4,20.4-6.6,32.9-10.6c3.5,15,8.4,29.3,9.6,43.8c0.5,6.3-5.1,15.1-10.6,19.5c-12.4,10-27.9,14.2-43.8,15.2 c-15.7,1-24.5-5.1-29.6-20.2c-8.3-24.4-15.9-49-23.7-73.6c-11.8-37-23.6-74-35.2-111.1c-6.8-21.8-0.5-35.5,21.1-43.3 c10.5-3.8,21.7-6.2,32.8-7.7c12.8-1.7,22,5,26.7,16.7c4.4,10.9,7.7,22.3,11.8,34.5C794.1,257.4,784,260.6,773.1,264.1z"></path> <path style="fill:#FFFFFF;" d="M905.4,269.2c-1.9,9.9-3,17.4-5.1,24.7c-0.5,1.6-4.2,2.6-6.6,3.4c-7.9,2.6-15.9,5.1-24.4,7.8 c10.4,33,20.5,65.1,30.7,97.5c15.8-5,30.4-9.6,46.3-14.6c2.3,7.2,4.5,14.4,7.1,22.3c-26.1,8.3-51.4,16.3-77.9,24.7 c-25.7-81.5-51.3-162.4-77.2-244.4c26.3-8.1,51.7-15.8,78.3-24c2.5,7.7,4.9,14.9,7.6,23c-15.6,5-30.4,9.7-46.7,14.9 c8.1,25.7,16.1,51.2,24.4,77.8C875.9,278.1,889.3,274.1,905.4,269.2z"></path> <path style="fill:#FFFFFF;" d="M399.2,585.9c-11.8-37.4-23.1-73.3-34.5-109.2c-13.4-42.3-26.7-84.5-40.3-126.7 c-1.8-5.7-1.5-8.4,4.9-9.9c8.1-1.9,15.9-4.9,24.6-7.6c23.5,73.9,46.6,147,70,220.6c15.3-4.7,29.8-9.2,45-13.9 c2.5,7.6,4.7,14.4,7.3,22.3C450.7,569.6,425.4,577.6,399.2,585.9z"></path> <path style="fill:#FFFFFF;" d="M236.2,369.6c7.7,1.5,13,2.6,18.3,3.6c0.3-0.9,0.6-1.7,1-2.6c-2.2-1.2-4.4-2.4-7.8-4.2 c6.9-2.3,13.3-4.4,20.3-6.8c23.5,74,46.7,147.1,70,220.8c14.9-4.7,29.4-9.2,45.1-14.1c2.4,7.4,4.6,14.4,7.1,22.4 c-25.8,8.2-51,16.2-76.9,24.4C287.4,531.5,261.9,450.7,236.2,369.6z"></path> <path style="fill:#FFFFFF;" d="M407.2,244.7c-2.6-0.2-5.7,0.4-8-0.6c-20.6-9-30.9-28.6-32.4-51.1c-1.5-22.5,7.1-38.8,24.6-50.2 c23.9-15.6,49.7-14.1,71.7,4.3c19.8,16.5,25.4,46.7,13.7,70c-12.1,24.1-39.1,37.3-64.9,31.4C409.9,248,408.4,245.7,407.2,244.7z M410.7,184.2c-4.5,4,9.6,9.3,0,15.7c-0.9,0.6,5.9,10.1,6.3,15.6c0.7,11.8,0.9,14.4,6.4,14.5c0-11.4,0-22.8,0-34.5 c13.2,5.1,14.3,17.2,19.1,26.9c1.4,2.8,4.7,4.5,7.2,6.7c-0.9-5.3-4.8-8.9-4.6-12.2c0.7-10.9-4.3-18.4-11.4-25.8 c-3.9-4.1-5.4-10.4-8-15.7c0.8-0.4,1.5-0.8,2.3-1.2c2.5,1.1,5,2.1,9.3,4c-2.1-6.4-3.7-11.1-4.5-13.5c-4.7-3.5-7.9-6.4-11.7-8.4 c-4.1-2.2-8.8-3.6-13.2-5.3c-0.3,3.5-0.5,7-0.9,11.9c-6.2,3.1-5,10.6-4.1,17.5C403.2,181.8,407.5,182.7,410.7,184.2z"></path> <path style="fill:#FFFFFF;" d="M656,236.8c10.9-3.5,20.8-6.6,31.8-10.1c25.7,81.1,51.3,161.8,77.2,243.3 c-10.5,3.4-20.3,6.6-31.8,10.3C707.5,399.1,681.8,318.2,656,236.8z"></path> <path style="fill:#FFFFFF;" d="M528,470.9c-5.5,1.6-9.6,2.8-14.7,4.4c-5.7-17.7-11.2-35-16.9-52.6c-2.6,0.6-4.9,1.2-7.3,1.8 c-0.2,1.2-0.6,2.1-0.4,2.8c4,13,8.1,26,12.2,38.9c4.3,13.5,4.3,13.4-11,15.8c-7.1-22.2-14.3-44.4-21.4-66.7c-3.1-9.6-5.9-19.4-9-29 c-4.3-13.6-4.3-13.6,10.9-16c4.7,14.3,9.4,28.8,14.2,43.8c2.8-0.8,5.1-1.5,8.2-2.4c-4.6-14.8-9.2-29.3-14-44.8 c4.8-1.5,9.3-3,14.7-4.7C505,398.4,516.3,434.1,528,470.9z"></path> <path style="fill:#FFFFFF;" d="M518.4,366.1c3.6,11.5,7.1,22.5,10.6,33.4c19.8-4.4,19.8-4.4,22,5.2c-5.6,1.9-11.3,3.8-18.2,6.2 c4.3,13.9,8.7,27.8,13.2,42.5c4.6-1.5,8.4-2.7,12.2-3.8c9.5-3,9.8-2.8,11,8.3c-11.1,3.5-22.3,7.1-34.5,10.9 c-11.6-36.5-22.9-72.2-34.5-108.7c10.8-3.5,20.8-7.2,31.1-10c7.9-2.2,5.2,5.3,7.9,8.9C531.7,361.5,525.2,363.8,518.4,366.1z"></path> <path style="fill:#FFFFFF;" d="M417.9,397.3c-1.1-3.6-2-6.6-3.2-10.3c12-3.9,23.5-7.6,36-11.6c1.1,3.5,2.1,6.6,3.2,10.1 c-3.4,1.5-6.2,2.7-10.1,4.5c10.1,32.2,20.3,64.3,30.8,97.5c-4.6,1.5-9.1,3-14.6,4.9c-10.4-32.7-20.7-64.9-31.1-97.7 C425.3,395.6,422.1,396.4,417.9,397.3z"></path> <path style="fill:#FFFFFF;" d="M576.9,848.2c0.1-9.7,5.7-16.6,13.3-16.3c8,0.3,16.6,11.1,16.5,20.7c-0.1,7.8-6.2,15.3-12.7,15.5 C585.8,868.3,576.8,857.9,576.9,848.2z"></path> <path style="fill:#FFFFFF;" d="M500.9,741.1c-0.2,8.8-5.4,14.9-12.6,14.9c-9,0-16.6-9.7-16.4-21.1c0.2-9.6,5.1-15.1,13.4-14.6 C494.3,720.8,501.2,729.8,500.9,741.1z"></path> <path style="fill:#FFFFFF;" d="M666.9,672.8c0.1-9.9,5.1-15.7,13.5-15.9c9.8-0.2,17.5,9.7,17.3,22c-0.2,9.8-5.1,15.6-13.4,15.6 C674.2,694.5,666.8,685.2,666.9,672.8z"></path> <path style="fill:#FFFFFF;" d="M687.1,755.2c0,9-6,16.1-13.6,16c-9.5-0.1-17.2-9.7-17.2-21.4c0-10.1,4.8-16.1,13-16.2 C679.3,733.4,687.1,742.8,687.1,755.2z"></path> <path style="fill:#FFFFFF;" d="M645.7,826.6c-0.1-10.7,4.5-16.6,13.1-17c9.1-0.4,17.5,9.8,17.4,21c-0.1,9.4-5.6,15.9-13.4,16 C653.2,846.8,645.8,838.1,645.7,826.6z"></path> <path style="fill:#FFFFFF;" d="M564.3,666.7c-10.3,0-16.2-5.2-16.1-14.1c0.1-9.3,9.5-16.9,20.8-16.8c10.3,0.1,16.6,5.3,16.5,13.7 C585.4,659.3,576.2,666.7,564.3,666.7z"></path> <path style="fill:#FFFFFF;" d="M358.6,741.6c-1.8,1.4-5,5.4-8.8,6.2c-5.5,1.2-11.4-6.4-10.9-13.1c0.4-5.4,2.9-9.6,9-9.8 C353.4,724.7,358.9,731.7,358.6,741.6z"></path> <path style="fill:#FFFFFF;" d="M360.2,799.6c1.8-1.5,4.8-5.7,8.5-6.7c5.6-1.5,11.1,5.5,10.9,12.7c-0.1,5.5-2.2,9.7-8.2,10.2 C365.9,816.3,360.2,809.4,360.2,799.6z"></path> <path style="fill:#FFFFFF;" d="M426.5,813.7c-1.8,1.5-4.8,5.6-8.7,6.6c-5.3,1.3-10.9-6.3-10.8-13.1c0.2-5.5,2.3-9.6,8.5-9.7 C421.7,797.3,426.7,803.5,426.5,813.7z"></path> <path style="fill:#FFFFFF;" d="M405.7,745c-2.4,2-5.5,6.2-9.3,7.1c-5.6,1.3-10.6-6.1-10.4-13.4c0.1-5.8,2.5-9.8,8.8-9.3 C402.4,730.1,404.2,736.1,405.7,745z"></path> <path style="fill:#FFFFFF;" d="M392.4,777.3c-1.6,1.4-4.4,5.8-8.1,6.8c-5.7,1.6-10.9-5.1-10.9-12.6c0-5.4,1.7-9.8,8-10.3 C387.3,760.7,392.3,766.6,392.4,777.3z"></path> <path style="fill:#FFFFFF;" d="M795.7,630.9c0.2,3.6,0.4,6.7,0.6,9.6c2.4,0.8,6.4,1.4,6.5,2.4c0.3,3.2,0.2,7.5-1.6,9.7 c-1.9,2.1-6.2,3.2-9.3,2.9c-6.3-0.7-9.9-8.7-9.1-17.3C783.6,630.3,788.6,629.9,795.7,630.9z"></path> <path style="fill:#FFFFFF;" d="M774.3,626.2c-0.3,4.3-1.3,9.3-8.4,9.7c-6.5,0.3-11.4-5.5-11.6-13.5c-0.2-6.2,2.1-10.2,8.8-10.4 C769.3,611.7,774.1,617.5,774.3,626.2z"></path> <path style="fill:#FFFFFF;" d="M811.9,656.4c1.6-1.4,4.4-5.9,8.2-7.1c5.3-1.6,11.7,7.1,11.1,13.9c-0.5,5.4-2.7,9.6-9.1,9.2 C816.2,672.2,811.6,666.4,811.9,656.4z"></path> <path style="fill:#FFFFFF;" d="M795.8,696.5c-1.7,1.6-4.6,6-8.3,7c-5.5,1.5-10.9-5.6-10.9-12.8c0-5.4,1.5-9.8,8-10.2 C790.4,680.2,795.7,686.4,795.8,696.5z"></path> <path style="fill:#FFFFFF;" d="M790,589.5c1.7-1.5,4.5-5.9,8.3-7c5.3-1.6,10.9,5,11.1,11.7c0.2,5.9-2.6,11-8.7,10.8 C793.6,605,790.6,599.4,790,589.5z"></path> <path style="fill:#FFFFFF;" d="M730.5,568.1c-0.2,9.1-6.5,14.1-14.7,13.6c-6-0.4-9.9-3.1-9.6-9.8c0.3-6.5,6.2-11.2,14.1-10.9 C726.2,561.3,730.4,563.4,730.5,568.1z"></path> </svg> 