<?xml version="1.0" encoding="UTF-8"?> <svg xmlns="http://www.w3.org/2000/svg" xmlns:xlink="http://www.w3.org/1999/xlink" version="1.1" id="Layer_1" x="0px" y="0px" viewBox="0 0 1000 1000" style="enable-background:new 0 0 1000 1000;" xml:space="preserve"> <path style="fill:#FFFFFF;" d="M11.3,576.8c0.7-2.5,1.5-5,2-7.5c1.6-7.9,3.2-15.9,4.6-23.9c1.3-7.6,2.4-15.3,3.7-22.9 c0.6-3.7,1.7-7.3,2.3-11c2.6-15.4,5.2-30.7,7.8-46.1c1.2-7.3,2.5-14.7,3.8-22c1.6-8.7,3.7-17.4,5-26.2c1.3-8.7,2.9-17.3,7-25.2 c2.3-4.4,5.8-8.2,8.3-12.6c5-8.7,11.9-14.8,20.9-19.6c7-3.7,13.8-7.5,21.6-8.9c17-3.1,33.9-3.6,51.1-0.7c11,1.9,22.3,2.4,33.4,2.7 c12.6,0.3,24.7,2.9,36.6,6.5c6.5,1.9,13.3,3.3,19.5,6c12.4,5.4,22.7,13.7,29.7,25.6c3.3,5.7,6.6,11.4,9.7,17.3 c1.2,2.4,1.7,5.1,2.5,7.7c0.7,2.3,2.1,3.1,4.4,2.4c12.8-3.6,25.4-2.4,37.8,2.1c4.3,1.5,8.8,2.3,13.1,3.7c2.4,0.8,5,1.8,6.9,3.5 c2.5,2.1,4.5,2.1,7.4,1c9.5-3.9,19.4-5.5,29.7-4.7c1.7,0.1,3.4,1,5.1,1.6c6.9,2.4,13.2-1.2,19.7-1.8c3.2-0.3,6.6-0.9,9.6-0.1 c7.6,1.9,15.2,4.1,22.5,6.8c6.2,2.3,12,5.5,18.7,8.6c2.7-1.8,6.3-4.5,10.2-6.6c6.7-3.7,13.8-6.7,21.8-6.8c3.4,0,6.8-0.8,10.1-1.6 c9.3-2.2,17.9,0.9,26.6,3.6c2.4,0.8,3.7,0.1,3.4-2.4c-0.7-6.6,2-12,5.5-17.1c2.9-4.2,5.4-8.9,9.2-12.2c6.3-5.4,13.3-9,22.3-9.7 c9.1-0.7,16.9,1.7,24,6.2c4.6,2.9,8.2,7.4,11.8,11.6c1.8,2.1,3.6,2.6,6,2c0.9-0.2,1.8-0.5,2.6-0.7c7.2-2,13.7,0.3,20.4,2.9 c11.7,4.7,17.6,14.2,22.2,25c0.3,0.8,0.4,1.8,0.5,2.7c0.4,6.3,4.6,9.7,10.5,7.8c5.6-1.8,10.6-0.6,15.9,1.2c4.2,1.4,8,2.8,10.8,6.3 c0.4,0.6,3,0.4,3.5-0.3c5.2-6.1,12.8-6.7,19.6-7.1c6.4-0.4,13.4,1.6,18.5,6.4c3.5,3.3,7.7,6.2,9,11.3c0.2,0.7,1.4,1.2,3,2.5 c1.5-7.1,3.2-13.1,4-19.3c1.6-12.9,6.1-24.4,16.6-32.6c2.8-2.2,6.6-4.1,10.1-4.4c8.1-0.6,12.7-5.7,16.2-11.7c4.7-8.2,8.5-17,13-25.3 c4.6-8.6,10.4-16.5,17.7-23.1c5.4-4.9,10.8-9.8,16.8-14c8.3-5.8,16.1-12.3,24.9-17.3c4.1-2.3,8.5-4,12.9-5.8 c0.9-0.4,2.1,0.3,3.2,0.4c0.9,0.1,1.9,0.2,2.7-0.2c9.1-4.1,18.8-5.8,28.6-4.4c6.1,0.8,12.3,2.2,17.8,4.8c3.5,1.6,6.2,5.6,8.3,9.1 c3.5,6,6.7,12.7,4,19.6c-2.1,5.5,0.7,11.7-3.5,16.7c-0.8,0.9,0,2.9-0.3,4.3c-0.5,2.1-1.3,4.2-1.9,6.3c-0.3,0.9-0.5,1.8-0.8,2.8 c-0.3,1.3-0.3,3.6-1,3.8c-1.8,0.5-4.4,1-5.7,0c-2.4-1.8-3.8-1.8-5.3,0.6c-0.2,0.3-0.3,0.7-0.6,0.9c-1.4,1-3.9,1.8-4,2.9 c-0.5,4-1,8.3,2.5,11.6c3.7,3.5,4.2,5.5,0.2,8.5c-2.8,2.1-3,5.4-5.4,7.6c-6.2,5.8-11.7,12.3-18.3,17.5c-2.4,1.9-4.8,4.3-7.7,5.9 c-1.3,0.7-2.3,3.4-2.2,5c0.3,3.8,1.5,7.6,1.9,11.4c0.3,2.6,1.6,3.1,3.6,2.6c5-1.2,9.7-0.9,14.3,1.7c1.9,1.1,3,0.4,3.5-1.9 c1.3-6,2.6-12.1,4.5-18c3.1-9.6,9.4-16.1,20-16.6c6.9-0.4,14.8,3.5,19.6,11.3c3.5,5.7,5.7,11.9,6.1,18.6c0.3,4.4,2.8,6.3,6.8,7.1 c7.4,1.6,11.4,7.2,13.7,13.5c2.4,6.7,3.9,13.9,4.5,21c0.5,5.9-0.8,11.9-1.3,17.9c-0.1,0.8-0.4,1.5-0.4,2.3 c-0.2,6.4-3.2,11.7-6.1,17.1c-0.6,1.1-1.3,3-0.8,3.9c4.3,8.1,4.8,17,4.9,25.6c0.1,9,0,18.1-4.2,26.9c-2.5,5.1-4.8,10.2-8.8,13.8 c-3.1,2.7-7.8,4.6-12.1,5c-5.8,0.6-11.5-1-16.1-5.2c-4.9,4-10.4,7.2-16.7,6.9c-4-0.2-7.8-2.6-11.8-3.7c-1.5-0.4-3.4-0.3-4.8,0.2 c-6.8,2.6-13.3,7.1-21,5.8c-6.1-1-12.5-2-17.8-5.7c-0.7-0.5-2.8-0.2-3.3,0.5c-4.2,5.2-10.8,5.3-16.3,7.7c-0.8,0.3-2,0.3-2.7-0.1 c-6.7-4-12.4,0-18.4,2c-1.2,0.4-2.6,0.8-3.8,0.7c-10.6-1-19.2-5.3-24.2-15.3c-0.7-1.4-1.4-2.7-1.8-3.4c-3.6,4.5-7.2,9.3-11.1,13.8 c-1.2,1.4-3.1,2.3-4.8,3.2c-9.5,5.1-19.5,5.3-29.2,1.2c-5.9-2.5-9.8-7.8-12.8-13.6c-5-9.5-5.5-20-5.8-30.3 c-0.2-7.6,1.4-15.2,1.8-23.6c-0.7,1-1.7,1.9-2.2,3c-2.8,7.2-5.3,14.5-8.1,21.8c-3.4,8.9-7,17.8-10.6,26.6 c-3.5,8.6-7.2,17.2-10.8,25.8c-5.1,12.2-13,22.2-24.2,28.9c-5.6,3.4-12.7,4.2-19.1,6.2c-0.8,0.2-1.5,0.6-2.3,0.8c-1.6,0-3.1,0-4.7,0 c-1-0.4-2-0.9-3-1.1c-4.4-1-9.4-1-13.1-3.2c-9.7-5.8-15.7-14.5-17.5-26c-0.2-1.4-2.1-3.4-3.4-3.6c-6.4-1-13-1-19.2-2.5 c-4.5-1.1-8.8-3.7-12.6-6.5c-2.9-2.1-4.8-2.7-7,0.2c-6.3,8.1-15.9,10-24.9,11.2c-6.7,0.9-13.9-2-20.9-3.2c-1.6-0.3-3.4-0.8-4.7-0.2 c-5.3,2.2-10.6,1.9-16.1,0.8c-1.3-0.3-2.8-0.2-4.1,0.2c-6,1.7-11.9,3.7-18,5.2c-4.1,1-8.5,2.2-12.6,1.7c-8.2-0.9-16.4-2.9-24.6-4.2 c-2.3-0.4-4.8-0.1-7,0.5c-9.8,2.9-19.3,7.2-30,5c-7-1.5-14.2-1.6-19.6-7.3c-1.9-2-4.2-1.1-5.9,0.6c-3.7,3.7-7.8,6.4-13.2,7.6 c-8.6,1.9-16.9,5.6-25.9,3.2c-6.3-1.7-13.4-0.7-18.8-5.6c-0.6-0.6-2.1-0.7-2.9-0.4c-7,2.3-13.9,5-20.9,7.2 c-7.6,2.4-15.3,5.3-23.5,4.6c-10.2-0.8-20.6-1.2-30.5-3.7c-16.3-4.2-30.8-12.3-40.4-26.9c-6-9.1-11.8-18.3-13-29.6 c-0.2-1.8-0.6-3.7-1.5-5.2c-0.6-1-2.5-2.1-3.5-1.8c-10.3,3.3-21,4.2-31.7,4.1c-2,0-3,0.6-3.4,2.8c-1.1,6.1-2.5,12.1-3.7,18.2 c-1.6,8.4-6.6,15.1-10.8,22.2c-7.8,13-18.7,22-33.4,25.9c-8.1,2.2-16.4,4.5-24.7,5.3c-6.7,0.6-13.7-0.8-20.5-1.5 c-4-0.4-8.3-0.2-11.9-1.6c-11-4.4-21.5-9.7-28.1-20.3c-1.1-1.8-2.3-3.4-3.5-5.1c-3.8-5.4-7.3-10.8-7.6-17.8 c-0.2-5.3-1.8-10.6-2.9-15.9c-0.2-0.9-1.1-1.6-1.6-2.4C11.3,580.4,11.3,578.6,11.3,576.8z M597.4,420.6c-0.4-0.8-0.8-1.3-0.9-1.9 c-3.2-13.5-12.5-20.9-25.1-25c-0.8-0.3-1.9-0.4-2.7-0.1c-3.6,1.3-7.2,2.5-10.7,4.1c-7.7,3.6-12.7,9.8-15,17.8 c-1.7,5.9-2,12.1-3.1,18.2c-0.5,2.7-1.4,5.3-2.2,8.3c-31.6-18.9-58.6-10.8-83,12.3c-4.3-3.8-8.1-7.6-12.2-10.9 c-6.4-5.1-14.6-6.2-21.9-9.2c-8.3-3.3-16.2-2.1-23.8,0.3c-5.2,1.6-9.3,0.9-14.1-0.4c-4.6-1.2-9.7-2.2-14.2-1.4 c-6.7,1.2-13.6,3.3-18.5,8.8c-1.8,2-3.5,2.1-5.6,0c-6.3-6.6-14.3-10.5-22.9-13.1c-4.2-1.3-8.5-2.4-12.8-2.9 c-6.1-0.8-12.2-1.5-18.4,0.9c-6.4,2.4-13.2,3.8-19.9,5.3c-0.8,0.2-2.7-1-2.9-1.9c-1.3-5.2-1.9-10.6-3.4-15.8 c-3-10.7-8.3-20.3-15.9-28.3c-7.5-7.9-16.7-13.2-27.6-16c-8.8-2.3-17.1-5.8-26.5-6.3c-23-1.3-45.9-3.4-68.8-5 c-3.1-0.2-6.3,1.2-9.4,1.3c-6.9,0.2-13.6,1.5-19.6,4.6c-9,4.7-17.7,10-22.7,19.3c-3.2,6-6.9,11.9-9.1,18.2 c-2.5,7.2-3.8,14.8-5.2,22.3c-1.3,7.1-2,14.3-3.1,21.4c-1.3,8.2-2.9,16.4-4.4,24.7c-1.2,6.7-2.4,13.4-3.6,20.1 c-0.4,2.3-0.8,4.5-1.2,6.8c-1.1,6.7-2,13.5-3.2,20.2c-1.4,7.3-3.1,14.6-4.7,21.9c-0.1,0.3,0,0.5-0.1,0.8c-1.1,7.5-2.3,14.9-3.3,22.4 c-0.3,2.1-0.2,4.4,0.2,6.5c0.8,4.2,2.1,8.2,2.8,12.4c1.1,7.1,5.4,12.5,9.5,17.8c7.8,10.2,19.8,12.2,31.5,14.1 c9.1,1.5,18.1-1.1,26.6-3.7c14.6-4.6,23.3-16,29.3-29.2c2.8-6.2,3.8-13.2,5.1-20c1.1-6,1.6-12.2,2.2-18.4c0.3-2.5,1.3-3.6,3.9-3.6 c12,0,24,0.3,35.9-0.2c6.4-0.2,12.7-1.7,19.1-2.7c0.4-0.1,0.7-0.3,1.1-0.4c3-0.7,5.9-1.6,8.9-2c0.7-0.1,2.2,1.1,2.3,1.9 c1.1,5.5,2.5,11.1,2.8,16.6c0.7,11.4,5.7,21,12.2,29.7c8.1,10.7,19.1,17.4,32.4,20.4c3.5,0.8,7,1.5,10.4,2.5 c8.9,2.6,17.7,1,26.5-0.8c3.9-0.8,7.6-3,11.5-3.9c7-1.5,12.9-5,18.6-9c1.8-1.3,3.1-1.5,4.7,0c5.6,5.4,12,8.4,19.8,10.3 c7.4,1.8,13.4-0.6,19.3-2.8c8.8-3.3,14.7-10.2,18.4-18.9c0.3-0.8,1.5-1.7,2.2-1.6c0.6,0,1.4,1.2,1.8,2c2.1,4.6,4.5,8.7,8.5,12.2 c5.6,5.1,13,4.6,19.3,7.4c0.4,0.2,1.1,0.1,1.5,0c3.6-1.2,7.4-2.1,10.8-3.9c4.4-2.2,8.5-5.1,13.1-7.9c6.4,6.9,16.1,7.6,25,9.3 c8.3,1.6,16.9-0.6,24.8-4.1c2-0.9,4.1-1.5,6.3-1.9c2.7-0.4,5.6-1.3,8-0.5c5.1,1.6,9.8,1.9,14.7-0.3c3.8-1.7,7.1-2.3,11.4,0.6 c4.8,3.3,11,4.6,17.1,3.1c1.5-0.4,2.8-1.4,4.3-1.7c7.4-1.7,11.9-6.9,15.6-12.9c1.8-2.9,3.1-6,4.9-9.5c2.1,3.6,3.3,6.7,5.3,9.1 c4.7,5.8,10.5,9.6,18.2,11.6c7.8,2,14.8,2.8,22.2-0.5c1.1-0.5,2.6-0.3,3.2-0.3c0.8,5.6,1.1,10.7,2.2,15.7c2.1,9.5,7.5,16.3,17,19.5 c10.2,3.5,19.5,0,28-5c10.2-6,15.9-15.9,20.4-26.6c2.7-6.4,5.2-12.9,7.9-19.3c4.4-10.7,8.9-21.4,13.3-32.2c4-9.8,7.8-19.7,11.7-29.5 c2.6-6.7,6.1-13.1,6.5-20.5c0.2-3.6,1.7-7.3,1.2-10.7c-0.9-6-2.5-11.9-4.5-17.6c-2.1-6.4-11.5-12.7-18.1-12.8 c-9.8-0.2-18,5.9-21.2,15.6c-0.4,1.2-1.8,2.2-3.3,4c-1-7.1-3.5-12.1-8.2-15.4c-3.6-2.5-7.9-5-12.1-5.5c-3.8-0.4-8,1.6-11.7,3.2 c-2.4,1-3.6,1.1-5.2-1c-1.6-2.1-3.4-4.4-5.7-5.8c-3.7-2.2-4.4-5.4-5-9.3c-1.8-11.8-8.7-21.6-21-24 C611.8,410.4,603.8,413.3,597.4,420.6z M793.9,536.7c0.6-0.1,1.1-0.3,1.7-0.4c0.6,1.4,1.3,2.7,1.7,4.1c2.7,11,4.9,22.2,10.1,32.5 c4.1,8,14.7,14.6,25.2,7.7c1-0.6,1.8-1.6,2.9-2c1.1-0.3,2.6-0.4,3.7,0c4.2,1.3,7.6,4.1,12.8,1.8c5.9-2.6,10.1-6.5,12.9-12.3 c1.2,0.9,2.3,1.6,3.2,2.5c11.4,11.8,26.9,11.6,38.9,1.2c2.7-2.4,3.9-2.1,6.2,0.3c7.8,8.3,14.1,6.5,19.8,1.9c3-2.4,4.9-6.1,7.5-9.4 c0.9,1.6,1.9,3.1,2.7,4.7c2.3,4.6,6.8,6.9,11.3,7.3c4.2,0.5,8-2.2,10.9-5.7c7-8.4,8.2-18.4,7.7-28.8c-0.1-3.2-0.5-6.5-1.4-9.5 c-1.7-5.7-3.9-11.2-5.6-16.9c-0.4-1.3-0.1-3.3,0.8-4.2c7.3-8.5,10.4-18.4,10.4-29.3c-0.1-9.3-1-18.6-9.3-24.8 c-2.9-2.2-6.2-4.4-10.5-2.2c-3.2,1.7-4,0.8-3.9-2.8c0.3-9.9-0.3-19.7-7.1-27.5c-6.1-7-13.1-8.2-20.8-0.9c-6,5.7-7.1,13.6-8.3,21.2 c-0.8,5.2-0.7,10.6-1,16.6c-1.6-1.1-2.8-1.8-3.9-2.5c-9.8-6.8-17.8-7.7-28.6-2.3c-0.9,0.4-1.8,0.6-2.8,0.9c-0.2-0.9-0.5-1.9-0.5-2.8 c0.2-9.4,0.5-18.7-4.3-27.3c-3.3-5.9-8-10.8-14.9-11.3c-6.4-0.5-11.8,2.6-15.3,8.3c-0.4,0.6-1.3,1.4-1.9,1.3 c-0.7-0.1-1.4-0.9-1.9-1.5c-1.9-2.4-3.3-5.5-5.7-7.1c-3.2-2.2-7.3-4.8-10.7-4.5c-4.9,0.5-10.3,1.8-13.7,6.4c-2.2,3-4.6,5.9-7,8.8 c-0.8,1-2,1.7-3.1,2.6c-1.4-2.6-2.3-4.7-3.6-6.7c-1.3-2-2.8-4-4.5-5.7c-6.1-6-16.2-7.6-22.8-3.3c-6.5,4.2-10.9,10.2-12.6,17.7 c-1.9,8.5-3,17.3-4.1,26c-1.9,15.3-3.4,30.7-5.2,46.1c-1.7,14.7-3.8,29.3-5.2,44c-0.9,8.7,0.5,17.3,4.6,25.3 c6.2,12.2,23.2,14.7,33.1,5.1c7.8-7.6,9.6-17.4,11.1-27.4C793.5,546.7,793.5,541.7,793.9,536.7z M884.3,325 c-1.6,0.5-2.8,0.8-3.9,1.3c-2.7,1.3-6.1,1.6-7.2,5.1c-1.9,6.7,0.4,11.5,6.7,14.5c4.1,1.9,10.6-1.6,10.2-6.1 C889.5,334.4,887.7,329.2,884.3,325z M934.7,334.3c-1.1-5.9-4-9.1-7.6-11.7c-2.5-1.8-6.4-0.7-9.4,2.6c-1.9,2.1-1,3.9,1.1,5.3 c0.2,0.2,0.3,0.7,0.3,1.1c-0.5,3.8,1.6,5.5,4.7,7.4c2.4,1.5,4.5,2.4,6.6,0.7C932.3,338,933.6,335.7,934.7,334.3z M831.9,367.7 c-1.9,0.9-3.2,1.8-4.6,2c-3.9,0.7-6.5,3.2-6.3,7.7c0.1,1.5,2.8,2.9,4.3,4.3c0.3,0.3,1,0.2,1.5,0.4c3.8,1.7,6.8-0.4,8.7-3 c1.1-1.5,0.7-4.6,0.1-6.7C834.9,370.5,833,369.1,831.9,367.7z M868.6,389.3c-1-1.1-2.5-4.2-4.8-5.1c-2.9-1.1-7.9,4-7.9,7.2 c0,3.6,3.3,6.9,6.8,6.9C866,398.3,868.7,395.1,868.6,389.3z M894.9,410c-2.1-2.4-3.7-5.5-6.3-7.1c-1.9-1.2-8.7,5.8-7.5,7.9 c1.2,2.3,4.3,4.1,7,5.1C890.2,416.8,894.2,412.9,894.9,410z"></path> <path style="fill:#FFFFFF;" d="M742.1,459.6c-5.4-9.6-4.9-19.6-5-29.6c-0.1-10.4,0.1-20.9-0.1-31.3c-0.1-2.1-1.2-4.4-2.4-6.3 c-5.9-9.2-11.8-18.3-17.9-27.3c-5.6-8.3-5.3-15.5,1.5-23.9c7.5-9.3,17-14.4,29.2-14.2c2.6,0,5.1-0.5,8.2-0.8 c-3.3-4-6.9-6.7-11.9-6.6c-4.4,0.1-8.7,0.5-13.9,0.8c0.8-0.9,1.1-1.6,1.7-1.9c0.8-0.4,1.7-0.7,2.6-0.7c5.9-0.1,11.8-0.4,17.8-0.2 c4.1,0.2,6,3.1,7.3,6.8c1.5,4.3,3.7,8.4,5.6,12.6c2.4,5.5,4.7,11,7.1,16.4c1,2.3,2.7,3,5.4,3.2c8.9,0.8,11.3-6.4,15.2-11.6 c3-4,5.1-8.8,8.4-12.6c5.3-5.9,10.6-12.2,17-16.6c6.4-4.5,12.9-9.4,21.1-10.8c2.6-0.5,4.9-2.4,7.4-3.7c0.6-0.3,1.1-0.7,1.7-0.8 c5.9-1.1,11.8-2.1,17.7-3.1c4.7-0.8,9.3-1.5,14-2c0.9-0.1,2,0.7,2.9,1.1c-0.8,0.6-1.5,1.4-2.4,1.8c-6.1,2.8-12.4,5.4-18.4,8.5 c-5.5,2.8-10.9,5.9-16.2,9.3c-4.1,2.6-7.9,5.6-11.6,8.7c-6.9,5.7-13.8,11.5-20.3,17.6c-6.8,6.3-11.9,13.7-15.6,22.4 c-3.6,8.4-7.5,16.8-12.3,24.5c-3.9,6.2-9.2,11.6-14.4,16.9c-2.9,2.9-7.1,4.4-10.5,6.9c-4.9,3.6-7.8,8.8-9.8,14.4 c-2.4,6.8-4.9,13.6-7,20.6C743.1,451.8,742.8,455.8,742.1,459.6z"></path> <path style="fill:#FFFFFF;" d="M152.2,506.5c-10.2,0-20.3,0.1-30.5-0.1c-2.6,0-3.8,0.8-4.2,3.3c-2.3,13.8-4.6,27.5-7,41.3 c-1.5,8.3-2.2,16.9-8.9,23.4c-5.7,5.6-18.6,7.6-25.5,3.6c-5.1-3-8.2-10.7-7-17.3c4.1-22.9,8.2-45.7,12.2-68.7 c4.1-23.7,7.6-47.5,12.1-71.1c3.4-17.6,12.5-28.6,32.4-29.8c9.3-0.6,18.7,0.4,28,0.8c8.2,0.4,16.4,0.6,24.5,1.5 c10.7,1.1,21.5,2,31.9,4.2c13.3,2.9,22.6,11.2,27.4,24.3c3.2,8.7,3.7,17.5,2.5,26.7c-2.1,15.1-7.3,29-17.3,40.6 c-7.7,9-17.8,14.4-29.5,15.6c-13.7,1.4-27.5,1.7-41.2,2.4C152.3,507,152.3,506.8,152.2,506.5z M125.9,469.3c21.2,0,41.1-0.1,61,0.1 c3.7,0,6.1-1.9,8.8-3.9c4.1-3.2,5-8.1,6.1-12.3c1.3-4.9,1.9-10.4-0.7-15.5c-3.2-6.3-9.4-6.8-15-7.1c-13.7-0.8-27.5-0.9-41.3-1.2 c-2.8-0.1-5.7,0.3-8.5,0.6c-2.9,0.3-4.2,2.2-4.6,4.8c-1,6.9-1.8,13.7-2.7,20.6c-0.1,0.8-0.3,1.5-0.5,2.3 C127.7,461,127,464.4,125.9,469.3z"></path> <path style="fill:#FFFFFF;" d="M268.1,524.8c-1.2,8.3,0.1,15.3,6.6,20.3c5.8,4.4,12.5,4.7,19.3,3.2c2.9-0.6,5.6-2.3,8.4-3.2 c5.2-1.8,7.6-6.5,11-10.2c4.2-4.6,9.4-6.6,14.9-4.5c2.9,1.1,5.9,4.8,6.8,7.9c2.4,8.4-2.9,14.6-8.1,20c-4.6,4.7-10.1,8.9-15.9,11.9 c-6.4,3.3-13.4,5.6-20.8,6.9c-6.7,1.2-13.1-0.3-19-1.7c-9.1-2.1-17.3-7-23.1-15.2c-7.5-10.6-7.7-22.4-7.6-34.6 c0.1-9.6,2.5-18.8,5.7-27.4c5.3-14.4,14.5-26.5,27.2-35.4c5.6-3.9,11.8-7.4,19-8.1c3.7-0.4,7.3-2,10.9-2c5.5,0,10.6,2.4,15.9,4.1 c6.5,2.1,11.3,6,14.9,11.2c2.6,3.8,3.9,8.4,6.5,12.3c3,4.6,1.8,9.7,2.5,14.5c0.5,3.5,1.1,6.9,1.6,10.4c0.8,6-1.7,11.3-4.9,16 c-1.4,2.1-5.2,3.5-8,3.6c-16.5,0.3-33.1,0.2-49.6,0.2C277.8,524.8,273.1,524.8,268.1,524.8z M319.1,498.8c1.1-6.9-0.1-12.5-5.4-16.8 c-6.4-5.2-13.4-5.7-20.9-3.1c-7.8,2.7-12.9,8.3-16.9,15.2c-0.8,1.4-0.9,3.1-1.3,4.7c1.5,0.2,2.9,0.7,4.4,0.7 c4.5-0.1,9.1-0.5,13.6-0.6C301.3,498.7,310,498.8,319.1,498.8z"></path> <path style="fill:#FFFFFF;" d="M509.7,559.2c-2.1,1.5-4,2.8-5.8,4.3c-10.2,7.8-22,8.6-33.9,7c-6.2-0.9-11.1-5.1-15.3-10.1 c-7-8.3-5.7-18.1-4.4-27.3c0.8-5.4,4.8-10.5,7.6-15.6c3.4-6.2,9.2-10.1,15-13.6c4.1-2.5,8.8-4.1,13.4-5.6c5.9-1.9,12.1-3.3,18-5.2 c3.5-1.1,6.9-2.7,10.5-4.2c-2.4-3.7-5.1-5.2-9.3-5.7c-10-1.1-15.9,5-22,10.8c-3.7,3.5-9.8,5.5-13,3.7c-4.5-2.6-7.6-9.2-6-14.2 c1.8-5.5,4.8-10.4,9.2-14.3c6.1-5.4,13.3-8.7,20.7-11.7c1-0.4,2.3-0.4,3.5-0.4c4.7,0,9.4-0.3,14.1,0c9.8,0.8,18,5.2,22.2,14.2 c3.4,7.2,4.4,15.3,1.5,23.3c-0.7,2-0.7,4.3-1,6.5c-0.9,7.4-1,15-3.1,22.1c-1.4,4.9-2,9.5-1.9,14.4c0.1,2.3,1.6,4.5,1.7,6.8 c0.3,4.6,1.4,9.8-0.3,13.6c-2.3,5-6.6,9.4-13.7,8.3C513.2,565.7,511.2,562.9,509.7,559.2z M512.8,514.5 c-10.5,4.4-20.1,8.2-29.5,12.5c-3.7,1.7-7.5,3.8-8.5,8.2c-0.5,2.5-0.8,5.4,0.1,7.6c1.1,2.8,4,4.7,7.3,3.6c5.4-1.8,10.8-3.8,16-6.1 C508.7,535.5,511.3,526,512.8,514.5z"></path> <path style="fill:#FFFFFF;" d="M413.4,553.2c0.8-7.1,1.7-15.7,2.8-24.3c0.6-4.8,1.5-9.5,2.1-14.2c0.8-6.2,1.3-12.5,2.1-18.7 c0.6-4.7-5.1-9.2-8.8-9.8c-5.2-0.9-10.2,0.5-14.5,2.9c-4.3,2.4-8.1,5.9-11.4,9.6c-2,2.2-3.3,5.5-3.8,8.5c-2,12.8-3.5,25.8-5.3,38.6 c-0.7,5-1.1,10-2.5,14.8c-2.6,8.9-8.8,16.2-20,12.7c-2.8-0.9-6.6-5.4-6.4-8.3c0.4-5.9,1.2-11.8,1.9-17.7c0-0.4,0.1-0.8,0.1-1.2 c1-9.1,1.8-18.3,3.1-27.4c1-7.2,2.8-14.3,3.9-21.5c1.2-8.1,2.2-16.2,3.1-24.3c1-9.1,10.5-15.9,19.2-13c2,0.7,3.4,3.2,5.3,4.6 c1,0.8,2.7,1.8,3.6,1.4c4.1-1.7,7.8-4.5,12-5.7c3.6-1.1,7.7-0.8,11.6-0.9c11.2-0.3,20.2,4.5,27.2,12.8c4.2,5,7.1,11.2,6.7,17.9 c-0.5,9.1-1.8,18.2-2.7,27.3c0,0.1-0.1,0.2-0.2,0.4c-0.9,7.2-1.8,14.5-2.7,21.7c-0.9,6.9-1.1,13.9-2.8,20.5 c-1.7,6.6-6.4,11.3-13.4,12.8c-3.5,0.8-10.1-4.1-10.3-7.8C413.2,561.5,413.4,558.1,413.4,553.2z"></path> <path style="fill:#FFFFFF;" d="M599.9,486.4c-5.8,0.6-11.1,1.8-15.3-2.8c-3.9-4.3-1.7-16.2,3.1-19.5c3.2-2.2,6.5-1.9,9.9-1.9 c2.2,0,4.4,0,6.9,0c0.3-4.3,0.2-8.3,0.9-12.2c0.9-4.8,1.7-9.6,6.4-13.1c3.3-2.4,6.8-2.2,9.4-1c2.4,1.2,5.1,4.6,5.3,7.2 c0.3,5.5-1,11.2-1.7,16.8c-0.1,1.1-0.2,2.3-0.3,3.7c3.9,0.2,7.5,0.6,11.1,0.6c5.5,0,11.1,10,6.7,15.3c-1.7,2-2.6,4.6-4.3,6.4 c-2.4,2.5-5.6,2.9-9,2.5c-2.2-0.2-4.4,0-7.6,0c-0.7,6-1.3,11.8-1.9,17.6c-0.9,8-1.7,16-2.8,24c-0.4,3.2-1.6,6.3-1.8,9.6 c-0.3,3.1,2.2,3.5,4.6,3.3c4.1-0.3,5.5-3.5,7.4-6.4c1.5-2.3,2.8-4.9,4.6-6.8c3.3-3.6,7.6-3.5,10.8,0.1c3.8,4.4,4.9,8.6,1.8,14.6 c-4,7.8-8.1,15-15.2,20.4c-5.4,4-16.5,4.7-22.6,2.3c-4.4-1.8-7.9-4.2-9.8-8.3c-3.2-6.6-5.2-13.4-2-20.9c1.1-2.6,0.6-5.9,1-8.8 c0.6-4,1.3-7.9,1.9-11.9c0.1-0.8,0.1-1.6,0.2-2.3c0.9-8.1,1.8-16.2,2.6-24.3C600.3,489.2,600,487.9,599.9,486.4z"></path> <path style="fill:#FFFFFF;" d="M685.3,530.5c0.9-1,1.7-1.4,1.9-2c1-3.4,1.8-7,3-10.4c1-2.9,2.5-5.6,3.6-8.4c1.2-2.9,2.2-6,3.3-8.9 c3.2-8.1,6.4-16.2,9.8-24.3c1.4-3.3,4.1-5.4,7.8-4.7c3.6,0.7,6.9,3.1,7,6.7c0.2,4.5-0.7,9.1-1.9,13.5c-1.5,5.3-3.8,10.4-5.8,15.5 c-1.1,2.6-2.6,5-3.8,7.6c-1.2,2.7-2.1,5.6-3.2,8.4c-2.6,7.1-5.1,14.2-7.8,21.2c-2.2,5.7-4.6,11.4-7.1,17.1 c-3.9,8.9-7.7,17.8-12.1,26.4c-3.1,5.9-8,10.9-14.1,13.2c-4.4,1.7-10,0.8-15,0.3c-1.6-0.2-3.6-2.9-4.1-4.8c-1.3-5.7-1.4-11.5,3-16.4 c2.2-2.5,4.9-3.1,8-2.7c4.5,0.5,8.5-1.9,10.2-6c1.3-3.1,3.3-5.9,4.2-9.1c0.6-2.1,0.2-4.6-0.1-6.8c-0.3-2.4-1.1-4.7-1.6-7 c-1.4-6.3-2.8-12.5-4.2-18.8c-0.1-0.3-0.2-0.5-0.2-0.7c-0.9-5.8-1.6-11.6-2.8-17.3c-1.2-6-3.1-11.8-4.1-17.8 c-0.9-5.4-2.2-10.8,1-16.3c2-3.5,3.6-6.3,7.9-6.4c4.2-0.1,6.5,1.3,7.6,5.5c1.1,4.2,1.8,8.5,2.7,12.7c1.2,5.3,2.5,10.5,3.7,15.8 c0.3,1.4,0.3,2.8,0.5,4.2c0.6,3.4,1.5,6.7,1.9,10.1C685,523.2,685.1,526.5,685.3,530.5z"></path> <path style="fill:#FFFFFF;" d="M577.7,432.8c-1.4,10.3-3,21.2-4.4,32.1c-1.1,8.3-2.2,16.7-3.3,25.1c-1.4,10-2.9,20-4.2,30 c-1.2,9.3-2.2,18.6-3.5,27.8c-0.5,4-1,8.1-2.5,11.7c-1.1,2.6-3.6,5-6,6.7c-2.6,1.9-6.6,0.3-7.9-3.2c-0.9-2.4-1.4-5.3-1.1-7.9 c1.9-16.2,4-32.4,6.2-48.6c2.3-16.7,4.7-33.4,7.1-50c1.1-7.9,2-15.9,3.2-23.9c0.5-3.3,1.1-6.5,4.3-8.7c5.6-3.9,10.8-1.9,11.8,4.8 C577.5,429.8,577.5,431,577.7,432.8z"></path> <path style="fill:#FFFFFF;" d="M786.6,482.3c7-9.7,13.6-18.6,20.1-27.6c4.3-5.9,8.3-11.9,12.7-17.6c4.6-5.8,10.4-4.5,13.7,1.8 c4.2,8.2,0.2,14.2-4,20.3c-4.1,5.9-8.5,11.7-12.5,17.6c-0.6,0.8-0.3,2.5,0,3.6c0.5,2.2,1.2,4.4,1.9,6.6c1.3,4,2.7,8,4,12 c0.9,2.9,1.7,5.9,2.4,8.8c1,4.1,1.9,8.2,2.9,12.2c1.1,4.2,2.6,8.2,3.6,12.4c1.3,5.3,3.1,10.6,3.4,16c0.3,5.2-2.4,9.8-7,12.9 c-4.3,2.9-9.8,0.7-11.4-4.4c-2.3-7.6-4.9-15.1-7-22.7c-2-7.2-3.5-14.6-5.3-21.9c-0.9-3.6-1.8-7.1-2.9-10.7c-0.1-0.4-2.2-0.7-2.5-0.3 c-5.4,7.1-10.8,14.2-16.1,21.4c-0.5,0.7-1,1.6-1,2.4c-0.9,8.3-1.8,16.6-2.4,25c-0.6,7.2-6.3,13.6-12.5,13.5 c-4.7-0.1-8.7-3.9-8.5-8.6c0.3-6.5,1.3-12.9,1.9-19.4c1-10.1,1.8-20.3,2.9-30.4c1.7-15.4,3.5-30.7,5.4-46.1c0.5-4.5,1.1-8.9,2-13.3 c1.1-5,3.7-9.2,8.3-11.8c2.6-1.5,7.6,1.4,10.2,5c3.2,4.6,2.1,9.4,1.6,14.2c-0.3,3.3-1.1,6.6-1.6,9.9 C788.3,469,787.5,475.2,786.6,482.3z"></path> <path style="fill:#FFFFFF;" d="M940.2,524.7c-6.9,5.8-7.4,13.6-7.7,21.3c-0.2,4.3-1.3,7.9-4.9,10.3c-1.4,1-3.9,2.1-5,1.5 c-1.8-1-4-3.3-4-5.1c0.1-7.3,1-14.6,1.6-21.9c0.2-2.5,0.3-4.9,0.6-7.4c0.8-8.7,1.7-17.4,2.5-26.2c0.9-10.5,1.7-21,2.7-31.5 c0.6-6.2,0.9-12.4,2.3-18.4c0.8-3.3,3.1-6.4,5.5-8.9c2-2.1,7,0.6,8,4c0.4,1.2,0.8,2.6,0.7,3.8c-0.7,7.9-1.7,15.9-2.4,23.8 c-1,10.6-1.9,21.3-2.9,31.9c4.7-6.8,9.3-13.6,14.1-20.3c1.9-2.6,3.7-5.6,6.2-7.4c3.6-2.7,7.9-0.2,8.8,4.2c1.4,6.8-1.8,11.8-5.7,16.8 c-2.8,3.5-5.6,7.1-7.9,11c-0.9,1.5-1.1,3.9-0.6,5.5c1.9,5.8,4.4,11.4,6.4,17.1c1.2,3.5,1.9,7.2,2.9,10.9c0.3,1,0.7,1.9,1.1,2.8 c0.3,0.7,0.9,1.3,1,2c0.5,2.7-4,11.1-6.5,12.4c-3.3,1.7-5.7-0.4-6.7-2.6c-2.2-5-3.6-10.3-5.3-15.5 C943.4,534.2,941.8,529.5,940.2,524.7z"></path> <path style="fill:#FFFFFF;" d="M915.8,529.2c0.4,7.7-3.7,13.8-7.9,19.6c-2.2,3.1-5.5,5.5-8.5,8c-6.2,5.2-13.9,5.1-21,1 c-5.2-2.9-7.3-7.5-9.4-12.5c-3.7-8.7-5.4-17.5-3.7-26.9c0.7-3.8,0.8-7.7,1.8-11.4c1-3.7,2.6-7.2,4.1-10.7c1.6-3.8,2.9-8,5.4-11.2 c5.7-7.4,11.8-15,22.6-13.4c4.7,0.7,9,2.9,12.1,7.5c2.7,4,4.7,8.1,5.6,12.6c0.8,4.4-0.5,9.1-3.9,12c-1.7,1.5-5.3,2-7.6,1.4 c-1.8-0.5-3.6-3.2-4.3-5.3c-0.8-2.7-1.7-6-4.3-5.9c-2.6,0.1-5.5,2.3-7.6,4.3c-3.4,3.2-4.4,7.6-5.6,12.2c-1.7,6.2-2.1,12.2-1.3,18.2 c0.4,2.8,1.7,6.2,3.7,8c3.9,3.4,10.6,0.7,12.4-4.5c1-3.1,1.7-6.5,3.5-9.1c1.6-2.4,3.8-5.6,7.6-4.6c4,1,6.4,4.8,6.4,9.1 C915.8,528.2,915.8,528.7,915.8,529.2z"></path> <path style="fill:#FFFFFF;" d="M861.3,487.6c-0.8,7.5-1.8,16.1-2.7,24.7c-0.9,8.1-1.7,16.2-2.7,24.3c-0.6,5.4-1.2,10.8-2.4,16.1 c-0.4,2-2.2,4.3-4,5.1c-3.6,1.6-6.3-1.1-6-6c0.5-8.1,1.5-16.3,2.3-24.4c1.1-10.8,2.2-21.6,3.4-32.4c0.5-4.2,1.1-8.5,2.1-12.6 c0.7-2.8,2.5-5.6,5.8-5.2c3.2,0.4,4.1,3.1,4.1,6.1C861.3,484.4,861.3,485.4,861.3,487.6z"></path> <path style="fill:#FFFFFF;" d="M867.9,448.6c-1.5,3.3-2.6,6.9-4.7,9.8c-2.9,3.9-6.6,3.2-9-1.1c-2.4-4.2-1.2-13.3,2.1-16.7 c3.9-4,8.4-2.8,9.9,2.7c0.4,1.6,0.7,3.3,1,4.9C867.4,448.3,867.6,448.5,867.9,448.6z"></path> </svg> 