<?xml version="1.0" encoding="UTF-8"?> <svg xmlns="http://www.w3.org/2000/svg" xmlns:xlink="http://www.w3.org/1999/xlink" version="1.1" id="Layer_1" x="0px" y="0px" viewBox="0 0 1000 1000" style="enable-background:new 0 0 1000 1000;" xml:space="preserve"> <path style="fill:#FFFFFF;" d="M362.5,645.1c-3.4-2.2-3.1-4.7-1.2-7.8c7.7-11.9,15.1-23.9,23-35.7c7.5-11.3,15.9-22.1,22.9-33.7 c2.8-4.6,5.8-4.8,10-4.8c8.7,0.1,17.4,0.1,26.1,0c4.4,0,5.3-1.4,5-5.7c-0.3-4.4-0.2-8.8,0.2-13.2c0.3-3.2-0.8-5.1-3.3-7.1 c-4.5-3.6-9.5-4.4-15.5-3.7c2.2-3.7,3.7-6.6,5.5-9.3c3.5-5.1,7.5-10,10.5-15.4c2-3.6,4.3-4.4,8.2-3.3c0,4.5,0,9,0,13.9 c22.9,0,45.5,0,68,0c0.2,3.9,0.6,7.4,0.4,10.9c-0.1,1.1-1.8,2.9-2.8,2.9c-20.1,0.1-40.2,0-60.3-0.1c-0.7,0-1.5,0-2.1-0.4 c-3.6-2.3-5.9-1.8-6.2,2.7c-0.4,7.3,0.3,14.6,0.6,21.9c0,0.4,0.6,0.8,1.5,1.9c0-7.6,0-14.3,0-21.5c1.6-0.1,2.8-0.2,4-0.2 c20.5-0.1,41-0.1,61.5-0.1c5.1,0,5.6-0.5,5.4-5.7c-0.1-5.2-0.6-10.4-0.7-15.7c-0.1-2.9-1.7-3.1-3.9-3.1c-15.8,0.1-31.6,0.1-47.4,0.1 c-6.6,0-7.7-0.7-7.5-7.1c0.1-4.1-1.5-4.8-5-4.5c-5.1,0.3-5.9-1-5.9-6.2c0.1-16.1,0.1-32.1-0.1-48.2c0-3.1,0.9-3.6,3.6-3.6 c5.3,0.1,10.5,0.1,15.8,0c2.7-0.1,3.8,0.9,3.7,3.8c-0.2,12.9-0.2,25.9-0.2,38.8c0,2.9,0.9,3.5,4.1,3.5c12.9-0.1,25.8,0.4,38.7,0.9 c3.8,0.1,5.3-0.8,5.2-5c-0.3-12.9-0.1-25.9,0-38.8c0-1.1,1.1-3,1.8-3c6.9-0.2,13.8-0.1,21.2-0.1c0,9,0,17.4,0,25.7 c0.1,20.1,0.3,40.3,0.4,60.4c0,4.9-0.1,9.9,0.2,14.8c0.1,2.6-1,3.7-3.4,3.7c-1.7,0-3.4-0.3-5.1-0.2c-2.3,0.2-3.6,1.1-2.9,3.9 c0.6,2.4,0.5,5,0.8,7.8c-27.1,0-53.7,0-80.3,0c-0.1,0.5-0.3,1-0.4,1.5c2.1,0.7,4.3,1.8,6.4,1.9c6.4,0.3,12.7,0.1,19.8,0.1 c-1,2.3-1.5,4-2.4,5.5c-14.7,24.4-29.5,48.7-44.3,73c-0.8,1.3-2.3,2.3-3.4,3.5c-2.6,0-5.1,0-7.7,0c-4.8-0.3-9.6-0.8-14.3-0.8 c-9.2,0.1-18.4,0.5-27.6,0.8C376.2,645.1,369.3,645.1,362.5,645.1z"></path> <path style="fill:#FFFFFF;" d="M973.8,465c-10,0.3-20,0.7-30.1,0.7c-3.9,0-5.1,1-5.1,5c0,27.2-0.4,54.5-0.6,81.7 c0,1.4,0.6,3,0.2,4.2c-0.5,1.3-1.9,3.1-2.9,3.1c-7.8,0.3-15.6,0.1-24.4,0.1c0.9-3.4,1.8-6.1,2.2-8.8c0.7-4.3,1.5-8.7,1.5-13 c0.2-22.5,0-44.9,0.2-67.4c0-3.8-1.1-4.9-4.9-4.8c-9,0.2-17.9,0-26.9,0.1c-3.2,0-4.3-1.1-4.1-4.3c0.4-5.1,0.6-10.2,0.5-15.3 c-0.1-3.1,1.4-3.5,3.9-3.5c26.4,0.1,52.7,0.2,79.1,0.3c3.8,0,7.6,0.4,11.4,0.6C973.8,450.8,973.8,457.9,973.8,465z"></path> <path style="fill:#FFFFFF;" d="M550.3,461.4c-0.8-6.5-1.7-12.3-2.2-18.2c-0.2-3-1.4-3.9-4.2-3.8c-5.9,0.1-11.9-0.1-17.8-0.2 c-3.3-0.1-4.6,1.4-4.6,4.5c0.1,7.8,0,15.6,0.1,23.4c0.1,5.5,0.3,11,0.3,16.5c0,0.8-1.2,2.2-1.8,2.3c-12.5,0.1-25,0.1-37.9,0.1 c0-9.3-0.3-18.1,0.1-26.8c0.3-6.5-1-12.3-5.1-17.4c-0.9-1.1-2.5-2.3-3.9-2.3c-6.2-0.3-12.5-0.1-18.8-0.1c-2.9,0-4.3,1-4,4 c0.3,2.5,0.5,5.1,0.5,7.6c0,2.1-0.3,4.1-0.5,6.2c-0.4,0-0.8,0-1.2,0c-0.2-0.6-0.7-1.2-0.7-1.8c0.6-5.9-3.9-9.5-6.8-13.6 c-1-1.4-3.8-1.6-5.7-2.5c-1.9-0.9-4.3-1.5-5.4-3c-11.6-16.7-22.9-33.6-34.2-50.5c-8.1-12.1-15.9-24.2-23.8-36.4 c-0.8-1.3-1-3-1.5-4.6c1.5-0.3,2.9-0.9,4.4-0.9c21.2-0.1,42.4-0.1,63.6-0.2c3.1,0,5,0.9,6.6,3.5c7.9,12.7,15.9,25.2,23.8,37.8 c8,12.6,15.9,25.3,23.9,38c2.1,3.2,8.6,3.1,10.8-0.3c4.4-7,8.6-14.1,13-21c9.2-14.5,18.5-29,27.8-43.4c2.9-4.5,5.9-8.8,9.1-13.1 c0.6-0.8,2.2-1.3,3.3-1.3c20.1,0,40.1,0,60.2,0c1.3,0,2.6,0,3.8,0.1c1.6,0.2,3.2,0.6,4.8,0.8c-0.6,1.8-0.8,3.8-1.8,5.3 c-15.4,23.2-30.9,46.4-46.4,69.5c-3.6,5.4-7.4,10.7-10.9,16.2c-1.5,2.4-3.2,3.8-6.2,3.4c-2.8-0.4-4.2,1.1-3.7,3.8 C558.9,450.6,554.5,455.6,550.3,461.4z"></path> <path style="fill:#FFFFFF;" d="M582,559.8c-7.1,0-14.2,0-21.5,0c-0.2-1.2-0.5-2.1-0.5-3c0-37,0-73.9-0.1-110.9c0-2.3,0.8-3,3-2.9 c5.6,0.1,11.1,0,16.7,0c2.4,0,3.2,0.7,3.2,3.6c-0.2,13.5,0,27,0.3,40.5c0,1,2,2.7,3.1,2.8c13.2,0.2,26.5,0.1,39.8,0.1 c3.3,0,4.4-1.5,4.4-4.8c-0.2-12.5,0-25-0.1-37.5c0-3.5,1.1-4.8,4.7-4.7c5,0.2,10,0.1,15,0c2.5-0.1,3.6,0.6,3.6,3.3 c0,37.1,0,74.2,0,111.3c0,0.5-0.2,1.1-0.4,1.9c-7.7,0-15.3,0-23.4,0c0-4.4-0.1-8.8,0-13.1c0.2-9.9,0.4-19.9,0.6-29.8 c0.1-2.8-1.1-3.7-3.8-3.7c-12.4,0.1-24.8,0.1-37.2,0.1c-3.6,0-6.2-0.7-5.6,5.2c0.9,8.9,0.1,18.1-0.8,27.1c-0.8,8.2,2.1,14.5,6.5,21 c12.6,18.5,24.7,37.3,37,56c3.2,4.8,6.6,9.5,9.7,14.4c1.2,2,1.7,4.5,2.9,7.7c-4.5,0-7.7,0-11,0c-20.1,0-40.2-0.2-60.3,0 c-3.4,0-5.2-1.2-6.8-3.9c-9.3-15.6-18.8-31.2-28.2-46.8c-5.4-8.9-10.6-17.9-15.9-26.9c-0.5-0.9-0.9-1.9-1.7-3.6c6.3,0,11.9,0,17.6,0 c5.1,0,6.7-1.4,5.8-6.4c-0.8-4.1,0.7-5,4.4-4.8c6.5,0.3,6.8-0.7,6.6-7.1c-0.3-12.1-0.1-24.2-0.1-36.2c0-0.5,0.3-1,0.5-1.9 c4.7,5.5,8.2,10.7,7.7,18.3c-0.6,9.5-0.2,19-0.1,28.6c0,1.4,0.3,2.8,0.6,4.2c0.9,3.9,2.8,6,7.4,5.4c4.5-0.6,9.1,0,13.7-0.2 c1.2-0.1,2.3-1.4,3.5-2.1C582.4,560.6,582.2,560.2,582,559.8z"></path> <path style="fill:#FFFFFF;" d="M796.7,559.5c-9.6,0-17.8,0-25,0c0.1-7.8,0.4-15.3,0.4-22.8c0-28.4,0-56.9-0.1-85.3 c0-2.2-0.1-4.4,0.3-6.6c0.1-0.8,1.5-1.8,2.4-1.8c6.3-0.2,12.5-0.2,18.8,0c0.8,0,1.6,1.7,2.3,2.7c0.2,0.3-0.1,0.8-0.1,1.2 c-0.3,7.9-0.2,8.1,7.4,7.8c3.9-0.1,4.8,0.9,4.3,4.8c-0.7,4.7-0.2,9.6-0.2,14.5c0,2.8,1.3,4.6,4.3,4.6c1.6,0,3.1-0.1,4.7-0.2 c2.3-0.1,3.7,0.5,3.1,3.2c-0.2,1-0.2,2-0.3,3c-0.4,3.8,1,5.6,5,5.3c2.5-0.2,5.1,0,8.4,0c-0.2,2.5-0.3,4.9-0.5,7.2 c-0.3,2.6,0.4,4.1,3.4,4c9.8-0.1,8.4,0.9,8.4-7.9c-0.1-15.1,0.5-30.1-0.1-45.2c-0.2-5.2,1.8-5.2,5.4-5.1c5.8,0.1,11.6,0,17.7,0 c1.1,11.3,2.1,22.3,0.4,33.2c-0.2,1-0.1,2-0.1,3c0,25.6,0,51.2,0.1,76.8c0,3.2-0.9,4.1-4.1,3.9c-8-0.3-15.9-0.1-25-0.1 c1.1-1.9,1.8-3,2.4-4.3c0.9-1.9,1.7-3.8,2.5-5.8c-1.7-0.6-3.5-1.4-5.3-1.9c-1.2-0.3-2.7,0.3-3.8-0.2s-2-1.8-2.5-2.9 c-0.3-0.6,0.3-1.6,0.4-2.5c0.6-5.1,0.1-5.7-5-5.8c-1.1,0-2.3,0.1-3.4,0.1c-2.6-0.1-3.8-1.2-3.6-4c0.3-5.2,0.2-10.5,0.3-15.8 c0.1-2.9-1.1-4.2-4.1-4c-0.4,0-0.9,0-1.3,0c-6.7,0-6.8,0-6.6-6.8c0.1-3.5-0.8-5.2-4.5-4.5c-1,0.2-2,0-3-0.2c-3-0.6-3.9,0.4-3.9,3.6 C796.8,523,796.7,541.1,796.7,559.5z"></path> <path style="fill:#FFFFFF;" d="M335.3,559.3c-7.6,0-15.6,0-24.1,0c0-7.7,0.1-15.5,0-23.3c0-3.2-0.3-6.4-0.9-9.5 c-0.1-0.8-1.8-1.8-2.8-1.8c-12.1,0-24.2-0.1-36.3,0.3c-7.1,0.2-7.2,0.6-7.1,8c0.1,5.9,0.3,11.9,0.9,17.8c0.2,2.4,1.7,4.6,2.9,7.7 c-0.9,0.3-2.4,1.1-4,1.1c-4.6,0.2-9.1-0.1-13.7,0.1c-2.8,0.1-5.5,0.7-8.3,1.3c-2,0.4-3.3,0.4-3.3-2.2c0.3-15.7,0.5-31.4,0.7-47 c0.3-17.8,0.6-35.5,0.7-53.3c0-3.1,1.2-4.1,4-3.8c0.8,0.1,1.7,0,2.6,0c5.6,0,5.8-0.3,5.5-5.8c-0.3-5.2,0-5.4,5.2-5.4 c20.5-0.1,41-0.3,61.5-0.4c1.2,0,2.4,0.4,2.4,0.4c1.2,4,1.2,8.4,3.3,10c2.3,1.7,6.5,0.8,9.7,1.1c0,31.8,0,63.3,0,94.7 C334.4,552.5,334.9,555.5,335.3,559.3z M287.7,501.6c0,0.1,0,0.2,0,0.3c6.4,0,12.8-0.1,19.2,0.1c3.4,0.1,4.6-1.1,4.5-4.5 c-0.3-9.3-0.3-18.7-0.4-28c0-2.5-1.3-3.4-3.8-3.4c-13.1,0.1-26.1,0.1-39.2,0.1c-2.9,0-4.2,0.7-4.1,4.2c0.3,8.9,0.1,17.9-0.2,26.8 c-0.1,3.1,0.7,4.5,3.9,4.5C274.3,501.6,281,501.6,287.7,501.6z"></path> <path style="fill:#FFFFFF;" d="M228.2,559.7c-3.4,0-7.6-0.1-11.8,0c-2.3,0-4.5,0.2-6.8,0.5c-3.9,0.6-5.1-0.6-5-4.5 c0.2-6.2,0-12.4,0-19c-2.3,0-3.8,0-5.3,0c-6.2,0-7.7-1.6-7-8c0.3-3.2-1-4.1-3.9-4c-8,0.3-15.9,0.5-23.9,0.8 c-7.2,0.2-7.2,0.2-7.2,7.5c0,8.8,0,17.5,0,26.3c-8.2,0.5-16.9,1.1-24.8,1.6c0.2-5.8,0.5-11.5,0.7-17.3c0.3-9.9,1-19.8,0.9-29.7 c0-18.1-0.4-36.3-0.8-54.4c-0.1-3.9,0.9-5.4,5-5c6.7,0.6,8-0.7,7.7-7.4c-0.1-2.6,0.5-3.5,3.2-3.5c21.2,0.1,42.4,0,63.7-0.1 c1,0,1.9,0.2,3.4,0.4c0,2.3,0.1,4.6,0,6.8c-0.1,2.7,1,3.8,3.8,3.6c8.2-0.4,8.2-0.3,8.2,7.8c0,15.5-0.2,31,0,46.5 c0,3.9-1.1,5.6-5.1,5.1c-1.1-0.1-2.3,0-3.4-0.1c-2.7-0.2-3.5,1.2-3.5,3.6c0,5.5,0.1,11.1,0,16.6c0,2.6,1.3,3,3.5,3 c8.4,0.3,8.4,0.3,8.4,8.6C228.2,550,228.2,554.6,228.2,559.7z M157.4,502.1c14.9,0,29.4,0,43.9,0c2.5,0,3.9-1.2,3.9-3.9 c-0.3-9.8-0.4-19.5-0.8-29.3c0-0.9-2-2.4-3-2.4c-13.5-0.1-27-0.1-40.5,0.1c-1.1,0-3.2,1.7-3.2,2.7 C157.3,480.2,157.4,491.1,157.4,502.1z"></path> <path style="fill:#FFFFFF;" d="M665.5,559.6c0.2-12.3,0.4-24,0.5-35.7c0.1-24.7,0-49.4,0-74.2c0-1,0.1-2-0.2-3 c-0.8-3,0.8-3.9,3.3-3.9c5.6,0,11.1,0.1,16.7,0c3.6-0.1,3.2,2.3,3.2,4.6c0,27.7,0,55.4,0,83.2c0,6.8,0.1,6.9,6.9,6.9 c9.4,0,18.8,0.1,28.2,0c3.6,0,7.3-0.5,10.9-1c0.7-0.1,1.5-1.2,1.7-2c0.3-1.1,0.1-2.3,0.1-3.4c0-26.9,0-53.7,0-80.6 c0-1.3,0.3-2.7-0.2-3.8c-1.3-3,0.7-3.8,2.7-3.8c6-0.2,12-0.1,17.9-0.1c2.7,0,2.6,2,2.6,3.9c-0.1,11.4-0.2,22.7-0.2,34.1 c0,22,0.1,44,0.1,66.1c0,3.1,0,6.3,0.1,9.4c0.1,2.3-0.6,3.4-3.2,3.3C726.3,559.5,695.9,559.6,665.5,559.6 C665.4,559.7,665,559.5,665.5,559.6z"></path> <path style="fill:#FFFFFF;" d="M441.7,537.6c0,7.8,0,14.7,0,22.2c-0.9,0-2.6,0-4.2,0c-27.9,0-55.8,0-83.7,0c-1.4,0-2.9-0.1-4.2,0.3 c-4.6,1.1-4.2,1.1-4.1-3.8c0.2-9.4,0-18.7-0.1-28.1c0-1.3,0-2.5,0-3.4c3.1,0.3,6.1,0.7,9,0.9c3.1,0.2,4.3-1.5,4.1-4.4 c-0.1-1.3-0.1-2.6-0.2-3.8c-0.1-2.6,0.8-4.1,3.7-3.7c0.6,0.1,1.1,0,1.7,0c6.5,0,6.5,0,6.5-6.5c0-5.5,0-5.5,5.8-5.3 c6.6,0.2,6.9-0.1,6.4-6.5c-0.4-4.8,0.2-5.5,5.1-5.4c5,0.1,9.9,0.5,14.9,0.2c1.3-0.1,2.7-1.8,3.6-3.1c0.5-0.6,0.1-1.9,0.1-2.9 c-0.1-5.4-0.1-5.4,5.5-5.4c6,0,6,0,5.6-5.8c-0.1-1.1-0.1-2.3,0-3.4c0.2-2.6-1.2-3.6-3.6-3.6c-16.8,0.1-33.6,0.2-50.3,0.3 c-4.5,0-9.1,0.3-13.6,0.4c-2.6,0.1-3.3-1.2-3.2-3.7c0.3-5.2,0.8-10.5,0.2-15.6c-0.3-3.3,0.7-4.1,3.5-4.1c26,0,52.1-0.1,78.1-0.1 c3,0,6-0.4,8.9,0c1.3,0.2,3.3,1.9,3.3,2.9c0.4,9.6,0.4,19.3,0.5,29c0,2.7-1.5,3.5-3.8,3.2c-0.8-0.1-1.7-0.3-2.5-0.3 c-5-0.3-5.6,0.2-5.6,5.3c0,1.1-0.1,2.3,0,3.4c0.2,2.4-0.9,3.4-3.2,3.2c-0.3,0-0.6,0-0.9,0c-7.8,0.1-7.9,0.1-7.4,8 c0.2,2.6-0.8,4.1-3.6,4c-0.7,0-1.4,0-2.1,0c-7.1-0.1-7.3-0.1-6.4,7.1c0.5,3.7-0.8,4.8-4.5,4.5c-5.2-0.4-10.5-0.3-15.8-0.4 c-2.3,0-3.5,1-3.3,3.3c0,0.3,0,0.6,0,0.9c-0.1,7.6-0.1,7.7-7.4,7.6c-3.3,0-4.7,1.3-4.5,4.6c0.1,0.8,0,1.7,0,2.6 c0,5.1,0.6,5.7,5.6,5.7c20.1,0,40.2,0,60.2,0C437.6,537.6,439.1,537.6,441.7,537.6z"></path> <path style="fill:#FFFFFF;" d="M40.2,443.9c27.4,0,54.3,0,82,0c0,10.7,0.1,21.1-0.1,31.6c0,0.9-1.7,2.4-2.6,2.5 c-5.8,0.2-11.7,0-17.5-0.1c-3.5-0.1-3.6-2.5-3.6-5.1c-0.1-6.6-0.1-6.5-6.8-6.5c-12.1,0-24.2,0-36.3,0c-2.6,0-3.9,0.6-3.9,3.6 c0.1,20.7,0.1,41.5,0,62.2c0,3.4,0.7,4.8,4.5,4.8c12.8,0.1,25.5,0.4,38.3,0.9c4.1,0.1,5.3-1.6,4.9-5.4c-0.2-2.1,0-4.2,0-6.7 c7.2,0,13.9,0.1,20.5,0c2.7,0,2.9,1.6,2.8,3.6c-0.1,6.5,0,13.1,0,19.6c0,3.3,0,6.7,0,10.6c-0.7,0.1-2.1,0.3-3.4,0.3 c-22.5,0-45,0-67.5,0c-2.8,0-5.7,0.1-8.5,0.3c-2.9,0.3-3.4-1.3-3.3-3.6c0-1.1,0.3-2.3,0.3-3.4c-0.2-3.4-0.7-5.8-5.5-4.7 c-5.3,1.2-6,0-6-5.4c0-28,0.1-56,0-84c0-3.1,0.8-4.2,3.9-3.5c1.1,0.2,2.3,0.1,3.4,0.1c3.1,0.1,4.9-1.1,4.6-4.5 C40,448.8,40.2,446.6,40.2,443.9z"></path> </svg> 