<?xml version="1.0" encoding="UTF-8"?> <svg xmlns="http://www.w3.org/2000/svg" xmlns:xlink="http://www.w3.org/1999/xlink" version="1.1" id="Layer_1" x="0px" y="0px" viewBox="0 0 1000 1000" style="enable-background:new 0 0 1000 1000;" xml:space="preserve"> <path style="fill:#FFFFFF;" d="M300.8,391.9c-18.5,0-17.9,2.6-13.8-17.1c2.5-11.7,5.1-23.2,16.7-29.6c5.6-3.1,11.5-5.8,17.5-8.1 c5.8-2.2,11.8-3.7,17.7-5.5c5.2,0,10.4,0,15.5,0c2.9,1.7,5.7,3.5,8.7,5.1c2.8,1.6,5.7,3,8.6,4.5c-0.3,0.7-0.7,1.5-1,2.2 c-3.3-0.9-6.6-1.8-10-2.7c18.1,4.7,12.6,21.8,17.9,33c1,2.1,2.3,4.1,3.4,6.1c4,7.5-1.8,12-5.2,17.2c-8.7,2.3-17.4,4.5-26.1,6.8 c-7.9-6.3-15.8-12.5-23.8-18.8c-2.4-4.6-4.9-9.2-7.3-13.8c0.9,0.4,1.8,0.8,2.6,1.2c-3.3,3.8-6.7,7.6-10,11.4 c-1.6,1.8-3.1,3.7-4.6,5.6C305.5,390.2,303.2,391,300.8,391.9z"></path> <path style="fill:#FFFFFF;" d="M231.6,581.5c8-10.2,15.9-19.3,22.6-29.1c10-14.7,12.6-31,4.7-47.2c-7.5-15.3-11.2-16.2-32.5-14.1 c-0.2,3.2-0.7,6.5-0.7,9.9c0.1,26.1,0.1,52.2,0.5,78.2c0.1,5.2-0.9,8.2-6.9,8.1c-12.1-0.2-24.2,0-37.5,0c0-52.8,0-104.1,0-157.4 c-14.2,11.8-28.8,3.4-43,4.9c-0.2,3.2-0.4,6-0.5,8.8c-0.2,31.2-0.2,62.3-0.7,93.5c-0.1,7.5,2.1,13,7.6,18c9.5,8.6,9.5,12.9-0.1,21.6 c-6,5.4-12.8,10.3-19.9,14.2c-2.4,1.3-7.7,0.1-10.3-1.7c-6-4.4-11.4-9.7-16.6-14.9c-5.1-5-7.3-11-7.2-18.5 c0.2-39.3,0-78.5-0.2-117.8c0-3.7-0.4-7.4-0.5-8.7c-27.6-6.2-50.6,1.8-69.6,22.2c-4.5-15.5,5.2-40.4,18.8-49.9 c13.6-9.5,28.2-15.8,45.4-15.4c18.1,0.5,36.3,0.1,54.4,0.1c17.8,0,35.6,0,53.8,0c0.4,3.1,0.8,5.6,1.3,9.5 c6.6-4.4,12.2-9.2,18.8-12.1c4.2-1.9,9.8-1.8,14.4-0.9c1.3,0.3,2.3,6.4,2.1,9.8c-0.9,19.3-2.1,38.6-3.2,57.9 c-0.1,1.3,0.4,2.6,0.7,5.1c2.3-1.6,3.9-2.6,5.2-3.8c11.6-10.4,21.6-10.3,35.2-3c36.6,19.7,43.4,62.3,28.7,93.8 c-9.3,19.8-23.8,34.7-40.4,48c-5.1,4.1-10.5,4.1-15.5-0.8C237.6,587,234.7,584.4,231.6,581.5z"></path> <path style="fill:#FFFFFF;" d="M434.9,465.6c6.9-4.9,13.2-9.5,19.5-13.9c18.7-12.7,42-6.7,52,13.9c7.8-5.3,16-9.9,23.2-15.8 c12.4-10.3,28.5-4,38.2,3.7c10.8,8.6,14.5,20,14.6,33c0.2,30.6,0,61.3,0.2,91.9c0.1,6-1.8,8.1-7.9,7.9c-11.4-0.4-22.8-0.1-33.7-0.1 c0-25.3,0.2-51.1-0.1-77c-0.1-7.4,1.3-16.9-7.4-20.2c-5.7-2.2-13.1-1.6-19.3-0.3c-6.8,1.5-6.6,8.3-6.5,14 c0.5,23.8,0.8,47.5,2.1,71.3c0.5,8.5-4.4,10-10.2,10.3c-10,0.6-20,0.2-31.3,0.2c0-2.9,0-5.6,0-8.3c0-24.6,0-49.3,0-73.9 c0-6-0.9-11.3-7.3-14c-8-3.3-15.1-0.1-22.1,2.9c-1.1,0.5-1.2,4.1-1.2,6.3c-0.1,25.5-0.2,51-0.2,76.5c0,3.7,0,7.4,0,12.3 c-12.7,0-25,0.3-37.2-0.3c-1.6-0.1-4.2-4.8-4.2-7.3c-0.3-27.2-0.2-54.4-0.2-81.7c0-13.9-0.2-14.1-14-15.1c-5.4-0.4-6.7-1.9-5.9-8.1 c1.5-10.8,9.8-15.1,16.6-20.5C410.6,439.1,423.1,442.9,434.9,465.6z"></path> <path style="fill:#FFFFFF;" d="M627.2,382.6c7.2,27.7-3.2,54.6,5.9,81.9c5.1-4,9.6-6.9,13.4-10.6c11.1-10.6,22.6-9.2,34.4-1.4 c39.9,26.5,43.3,81.3,4.3,109.8c-11.3,8.2-22.7,16.2-34.2,24.3c-5.9,4.1-10.9,4-16.9-1.1c-11.2-9.7-23.4-18.4-34.8-27.9 c-2.4-2-4.4-6-4.5-9.2c-0.9-32.3-1.8-64.6-1.7-96.9c0-12.1-1.8-23-8.3-33.2c-4-6.2-3.1-11,3.9-14.7 C601.8,396.7,614.6,389.5,627.2,382.6z M658.5,545.1c4.6-3.2,10.1-5.6,13.6-9.6c7.8-8.9,6.8-19.2,1.8-29.2 c-5-9.9-13.5-15.2-24.3-16.3c-6.7-0.7-13.3,1.9-13.2,9.8c0.1,10,0.9,20.3,3,30.1C641.7,540.1,646.6,543,658.5,545.1z"></path> <path style="fill:#FFFFFF;" d="M926.5,490.5c0-3.5,0.4-5.6-0.1-7.4c-0.9-3.5-2.1-9.6-3.7-9.7c-4.6-0.4-10.8,0.1-13.7,2.9 c-2.6,2.5-3.7,9.4-2.1,13c2.7,6.1,7.2,11.8,16.2,7.9c9.3-4.1,19-7,28.4-10.9c4.8-2,8.4-2.1,12.3,1.9c24.3,25.2,21.1,79.5-18.2,95.4 c-22.3,9-55.8,3.9-71.4-12.5c-2.7-2.8-4.5-6.5-6.7-9.8c-3.5-5.5-1.9-10.1,3.4-12.8c9.3-4.8,18.9-9.3,28.7-13 c1.8-0.7,6.1,2.4,7.7,4.8c2.4,3.6,2.5,8.9,5.1,12.1c4.8,5.9,15,6.4,21,2c5.7-4.2,7.6-15,3.4-21.7c-3.8-6.1-8.2-10.3-16.9-7.1 c-9.6,3.6-19.8,5.8-29.9,7.8c-2.9,0.6-7.6-0.5-9.3-2.6c-30.1-36.6-12.3-78.6,30.6-87.4c20.1-4.1,36.8,3,51.5,16.2 c5.5,4.9,4.5,10.2-0.2,13.9C952.3,481.3,940.8,487.4,926.5,490.5z"></path> <path style="fill:#FFFFFF;" d="M717.4,495.5c0-17.8,0.7-35.6-0.3-53.3c-0.5-8.1-3.5-16.4-7.2-23.7c-4.6-8.9-4.2-13.7,4.4-18.2 c10.8-5.7,21.3-12,32.3-17.4c10.9-5.4,14.4-3.1,14.4,8.9c0,26.4,0.1,52.7-0.2,79.1c-0.1,6.7-1.9,13.4-2.1,20.1 c-0.1,5.2,1.5,10.5,1.7,15.8c0.3,8.6,0.6,17.2,0.1,25.8c-0.5,8.1,2.2,14,8.1,19.6c11.3,10.6,10.7,14.7-2,24 c-19.4,14.2-19.7,13.7-37.1-2.4c-8.9-8.2-13.1-16.8-12.3-29.1C718.2,528.2,717.4,511.9,717.4,495.5z"></path> <path style="fill:#FFFFFF;" d="M816.6,531c15.4,17.1,33.7,8.4,52.1,6.6c-4.1,11.2-7.6,20.9-11.3,30.5c-1.1,2.9-2.8,5.6-4.5,8.2 c-9.8,14.5-12.7,12.5-28.8,8.1c-10.8-2.9-20.7-6.7-29.4-14.2c-11.9-10.3-18.5-23-20-38.3c-0.9-8.8-1.8-17.9-0.2-26.5 c1.6-8.9,4.7-18.4,9.9-25.7c7.9-10.8,18-20,27.5-29.5c9.4-9.4,14.2-9.4,25-1.3c7.2,5.5,14.9,10.6,21.6,16.7c9.3,8.6,9,14.9,0.1,23.8 c-12,11.9-24.2,23.7-36.2,35.6C820.6,526.7,819.1,528.4,816.6,531z M806.1,505.5c0.5,0,1-0.1,1.5-0.1c4.3-4.3,8.6-8.6,13.1-13.1 c-2-1.2-4.5-2.8-7.8-4.8C810.5,493.9,808.3,499.7,806.1,505.5z"></path> <path style="fill:#FFFFFF;" d="M318.2,525.9c0-10.6-0.1-21.2,0-31.8c0.1-6.2-1.9-10.3-8.5-11.8c-2.9-0.7-6.7-2.1-7.9-4.4 c-1.7-3.2-3.4-9.3-1.7-11c6.5-7.1,14.1-13.4,21.9-19.1c2.7-2,8.5-3.1,11-1.6c16.3,9.8,30.6,20.9,29.3,43.1 c-0.9,15.7-0.3,31.4-0.3,47.1c0.1,13.2,1.6,14.8,14.2,17.9c2.6,0.6,6.6,3.1,6.6,4.7c-0.1,2.8-2,6.6-4.4,8 c-10.7,6.4-21.7,12.3-32.7,18.1c-1.5,0.8-4.5,0.6-5.9-0.4c-12.6-9.3-24.9-18.6-21.7-37.4C319.2,540.4,318.2,533.1,318.2,525.9z"></path> <path style="fill:#FFFFFF;" d="M300.8,391.9c2.3-0.9,4.7-1.7,7-2.6c6.2-2.7,11.7-7.9,19.3-4.3c7.9,6.3,15.8,12.5,23.8,18.8 c1.7,1,3.5,2.9,5.1,2.7c3.9-0.6,7.8-1.7,11.4-3.3c3.4-1.6,6.4-4.1,9.6-6.1c3.4-5.2,9.2-9.8,5.2-17.2c-2.4-10.6-4.8-21.2-7.2-31.9 c5.1,0.9,16.8,11.1,17.1,15.5c0.8,10,1.8,20,1.8,30c-0.1,17.6-15.1,37.3-31.9,43.1c-2.9,1-6,1.8-8.7,3.1 c-11.2,5.3-20.4,0.4-29.6-5.4c-3.2-2-7-3.4-10.7-4.3c-13.7-3.2-24.5-18.1-23-33.5c4,2.7,7.5,5.1,13.6,9.2 C302.3,399.5,301.6,395.7,300.8,391.9z"></path> </svg> 