<?xml version="1.0" encoding="UTF-8"?> <svg xmlns="http://www.w3.org/2000/svg" xmlns:xlink="http://www.w3.org/1999/xlink" version="1.1" id="Layer_1" x="0px" y="0px" viewBox="0 0 1000 1000" style="enable-background:new 0 0 1000 1000;" xml:space="preserve"> <path style="fill:#FFFFFF;" d="M699.3,672c0.3-0.8,0.7-1.4,0.7-1.9c0-5.9,0.3-11.9-0.1-17.8c-0.3-4.5,0.9-8.1,4.9-10.2 c2.2-1.2,4.9-1.7,7.4-2.3c9.4-2.3,18.9-4.5,28.3-6.6c2.4-0.5,5-0.9,7.4-0.7c6.2,0.5,8.5,6.6,8.1,11.6c-0.2,3-0.7,5.9-0.9,8.8 c-0.3,3.5-0.3,6.9-0.5,10.4c-0.5,7.1-1,14.3-1.4,21.4c-0.1,0.8,0,1.7,0,2.6c-0.2,7-0.3,14.1-0.5,21.1c-0.2,6.7-0.4,13.4-0.5,20.2 c-0.1,8.9,0,17.8,0,25.3c0.3-2.9,0.6-7.2,1-11.6c0.7-8.1,1.3-16.2,1.9-24.3c0.2-2.9,0.4-5.8,0.5-8.7c0.2-5.6,0.3-11.2,0.5-16.7 c0.3-9.3,0.7-18.6,1-28c0.2-8.8,0.2-17.5,0.6-26.3c0.2-4.1,1-8.3,5.4-10.1c2.5-1,5.1-1.6,7.8-2.2c13.3-3.1,26.6-6.2,40-9.3 c11-2.6,22-5.1,33-7.7c4.7-1.1,9.4-2.4,14.1-3.4c3.4-0.7,9.4,1.9,10,6.3c0.5,3.7,0.6,7.4,0.9,10.8c1.6-2.6,3.2-5.5,5.1-8.3 c4.5-6.6,10.6-11.3,17.2-15.4c8.5-5.3,18-7.7,27.6-9.6c5.5-1.1,11.2-1.7,16.8-2.5c3.3-0.4,6.5-0.6,9.8-1c4.4-0.5,9.6,2.8,10.5,7.2 c0.7,3.2,1,6.5,1.3,9.7c0.6,6.6,1.2,13.3,1.4,20c0.2,7.1-3.9,10.2-10,10.8c-3.2,0.3-6.5-0.6-9.8-1c-4.3-0.5-15.4,0.1-18.9,4 c3.7,2.2,7.3,4.5,10.9,6.6c6.6,3.9,13.1,8,18.5,13.6c5.1,5.2,8.3,11.3,9.2,18.5c1.6,12.2-2.1,23-8.6,33.1 c-4.9,7.6-11.8,13-19.4,17.6c-8.7,5.2-18.2,7.7-28,9.7c-9,1.8-18.1,2.6-27.2,3c-4.8,0.2-8.8-0.6-11.9-4.2c-1,2.3-1.7,4.8-3.1,6.8 c-0.9,1.3-2.6,2.5-4.1,2.9c-14,3.3-28.1,6.3-42.1,9.5c-8.9,2-17.8,4.3-26.7,6.4c-8.1,1.9-16.2,3.9-24.4,5.7c-4.3,1-9.7-2.1-10.6-6.6 c-0.1-0.8-0.4-1.5-0.6-1.9c-0.6,2.5-0.8,5.5-1.9,8.1c-1.6,3.8-5.3,4.8-9.1,5.7c-11.3,2.5-22.6,5.2-33.9,7.8c-4.2,1-7.6-0.6-10.4-3.8 c-0.5,1.3-0.8,2.6-1.4,3.8c-1.8,3.5-5.3,4.1-8.6,4.9c-8.1,1.9-16.3,3.6-24.4,5.5c-3.7,0.9-7.4,2.1-11.1,2.8c-3.2,0.6-8.9-1-10.4-5.9 c-2-6.8-4.1-13.7-6.3-20.5c-0.7-2.3-1.7-4.5-2.9-6.7c0,0.3-0.1,0.6-0.1,0.8c-0.2,9.3-0.3,18.6-0.5,28c-0.1,3.6-0.9,7.2-4.2,9.2 c-2.2,1.3-5,1.8-7.6,2.5c-10.1,2.5-20.2,5.1-30.4,7.1c-5,1-8.7-0.2-11.9-6.4c0,4-0.9,7.6-4.4,9.6c-2.2,1.2-4.9,1.7-7.4,2.3 c-16.7,3.9-33.4,7.8-50.2,11.7c-12.3,2.9-24.6,5.9-36.9,8.7c-5.1,1.2-11.9-2.1-11.9-9.9c0-3.5,0.6-7,0.9-10.5c0.1-0.6,0-1.3,0-1.7 c-2.2,3.9-4.1,8.1-6.6,12c-4.9,7.6-11.8,13.1-19.5,17.7c-9.2,5.5-19.3,8.2-29.7,10c-7.7,1.3-15.6,1.6-23.4,2.6 c-3.2,0.4-6.2,0.5-9.2-0.5c-2.7-0.9-5.4-3.5-5.7-6.3c-0.6-5.1-1-10.2-1.5-15.3s-1.3-10.2-1.4-15.3c-0.1-6.8,3.1-9.9,9.4-10.6 c2.7-0.3,5.6,0.9,8.4,1.3c7.9,1.3,15.8,1.3,23.4-1.7c0.9-0.3,1.6-1,2.6-1.6c-6.8-4.6-13.4-9.3-20.1-13.8c-6.1-4.1-11.7-8.6-15-15.2 c-1.9-3.8-3.3-8.1-3.7-12.2c-1-10.9,1.6-21.1,7.6-30.4c8.7-13.5,21.5-21.1,36.6-25.1c6.6-1.8,13.3-3.4,20-4.3 c6.8-0.9,13.7-2,20.7-0.7c2.7,0.5,5.7,3.1,6.2,5.9c0.6,3.5,1.1,7.1,1.5,10.7c0.6,6.1,1.2,12.2,1.4,18.3c0.2,6.2-1.7,10.6-8.6,11.9 c-1.7,0.3-3.5-0.3-5.2-0.3c-6,0-12.1-0.2-18.1,0.1c-2.2,0.1-4.4,1.7-7.1,2.9c3.6,2.3,6.6,4.3,9.8,6.2c7.2,4.1,14.3,8.2,20,14.4 c4,4.4,7.7,9,8.5,15.2c0,0.3,0.4,0.5,0.6,0.9c0.3-3.2,0.6-6.2,0.7-9.3c0.2-6,0.3-12,0.5-18c0.3-9,0.6-17.9,1-26.9 c0.2-4.1,0.4-8.2,0.5-12.4c0.1-5.2-0.1-10.5,0.1-15.7c0.1-4.4,1.5-8.5,5.9-10.4c2.7-1.2,5.8-1.6,8.7-2.3c7.4-1.7,14.9-3.2,22.4-5 c13.9-3.2,27.7-6.5,41.6-9.7c6.5-1.5,13-3.2,19.4-4.8c4.6-1.2,9-0.2,12.2,4.8c0.2-0.5,0.5-0.9,0.6-1.3c0.7-4.8,3.8-7.3,8.3-8.4 c15.1-3.6,30.1-7.3,45.2-10.9c8.2-1.9,16.5-3.7,24.7-5.2c7.8-1.4,15.6-0.3,22.8,2.7C691,657.9,696.3,663.6,699.3,672z M586.2,797.9 c3.4-0.9,6.5-1.7,9.6-2.5c8-1.8,16-3.6,23.9-5.5c0.7-0.2,1.5-1.2,1.6-1.9c0.3-3.6,0.5-7.2,0.5-10.9c0.2-7.9,0.3-15.7,0.5-23.6 c0.1-5.1,0.3-10.2,0.5-15.3c0.3-8.6,0.7-17.1,1-25.7c0.2-5.1,0.4-10.2,0.5-15.3c0-1.5,0.6-2.2,2.2-2.6c6.9-1.5,13.8-3.2,20.7-4.8 c4-0.9,8.6,1.8,9.9,5.7c1.9,5.6-1.5,13.4-5.5,17c-4.3,3.8-9.5,6.2-15.1,7.3c-2.7,0.6-5.4,0.8-8.3,1.3c0.4,1,0.6,1.8,0.9,2.5 c4.5,12.1,9.2,24.2,13.5,36.4c2.5,6.9,4.5,13.9,6.6,20.9c0.4,1.4,1,1.8,2.2,1.5c12-2.8,23.9-5.7,36.1-8.6 c-7.2-15.6-14.4-31.1-21.7-46.8c0.8-0.6,1.4-1.2,2.1-1.7c6-4.1,11.9-8.5,16.1-14.6c6.9-10,9.7-20.9,7.2-32.9 c-1.4-6.7-5.1-11.7-11.5-14.7c-6.7-3.1-13.7-2.9-20.6-1.6c-9.9,1.7-19.7,4.2-29.6,6.6c-6.7,1.6-13.4,3.5-20.1,5.1 c-5.9,1.5-11.9,2.8-17.6,4.1c-0.2,3.1-0.6,6.1-0.7,9.1c-0.2,11.2-0.3,22.4-0.5,33.6c-0.1,5.2-0.3,10.3-0.5,15.5 c-0.3,8.5-0.6,17-1,25.4c-0.3,5.7-0.6,11.4-1,17.1c-0.1,2.2-0.4,4.5-0.6,6.7C587.1,789.2,586.7,793.4,586.2,797.9z M480.8,703.5 c0,7.7,0.1,15.3,0,23c-0.1,5.7-0.3,11.3-0.5,17c-0.3,6.8-0.7,13.5-1,20.3c-0.3,7.7-0.7,15.5-1,23.2c-0.2,3.9-0.3,7.7-0.5,11.6 c-0.1,2.2-0.3,4.3-0.5,6.5c-0.6,6.1-1.1,12.1-1.7,18.4c30.9-7.2,61.5-14.3,91.8-21.4c0.6-9.2,1.1-18.1,1.7-26.9 c-18.7,4.8-37.2,9.6-55.6,14.3c0-5.8,0-10.9,0-16.1c0-1,0.5-2.1,0.4-3.1c-0.1-1.6,0.6-2.1,2-2.5c3.3-0.8,6.6-1.9,9.9-2.7 c11.1-2.6,22.3-5.2,33.4-7.9c0.8-0.2,2-1.3,2-2.1c0.4-4,0.4-8.1,0.6-12.1c0.2-3.5,0.3-7.1,0.5-10.6c0-0.9,0.2-1.8,0.3-2.7 c-15.8,3.8-31.1,7.6-46.2,11.2c0-6.5,0-12.6,0.1-18.7c0-0.5,1-1.4,1.7-1.5c13.1-3.2,26.1-6.3,39.2-9.3c4.9-1.1,9.8-2,14.6-3 c0.4-9,0.8-17.7,1.2-26.5C542.4,689.1,511.9,696.3,480.8,703.5z M761.5,756.9c7.5-1.7,14.7-3.4,21.9-5.1c10-2.4,19.9-4.8,29.9-7.1 c12.1-2.8,24.2-5.5,36.3-8.3c4.1-0.9,4-1,4.2-5.2c0.2-4.9,0.7-9.8,0.9-14.7c0.1-2.8,0-5.6,0-8c-18.3,4.7-36.8,9.5-55.1,14.2 c0-6.1-0.1-11.9,0-17.7c0-2.2,0.9-3.8,3.6-4.3c4.9-0.9,9.7-2.5,14.6-3.6c9.6-2.3,19.3-4.6,29.2-6.9c0.5-8.9,1-17.9,1.5-27 c-15.9,3.8-31.4,7.5-46.8,11.2c0.3-6.9,0.6-13.3,0.9-19.8c1.3-0.4,2.6-0.8,3.9-1.1c10-2.4,20.1-4.9,30.1-7.3 c6.4-1.5,12.9-2.8,19.4-3.9c1.7-0.3,2.2-0.8,2.1-2.4c0-2.6,0-5.2,0.2-7.8c0.3-5.5,0.6-11.1,0.9-16.6c-0.7-0.1-1-0.2-1.3-0.1 c-30.1,7.1-60.3,14.2-90.3,21.3c-0.4,12-0.9,23.9-1.3,35.9c-0.2,4.7-0.3,9.4-0.5,14.1c-0.5,10.6-1,21.3-1.5,31.9 c-0.3,6.2-0.6,12.4-1,18.6c-0.1,2.2-0.4,4.3-0.6,6.5C762.3,747.9,761.9,752.3,761.5,756.9z M459.5,738.2c-0.7-9.3-1.4-18.7-2.2-28.4 c-2.4,0.3-4.4,0.5-6.4,0.7c-6.6,0.8-13.2,1.4-19.7,2.5c-11.5,2-22.4,5.6-31.5,13.4c-10.8,9.2-16.6,20.4-15.1,34.9 c0.7,7.4,4.6,12.7,10.1,16.8c8.2,6.3,17,11.8,25.5,17.8c4.7,3.4,5.4,9,1.4,13.2c-3.8,3.9-8.9,5.4-14.1,6.5 c-6.2,1.2-12.5,1.2-18.8,0.4c-3.1-0.4-6.1-0.9-9.2-1.3c0.9,9.7,1.7,19.3,2.6,29.4c4.8-0.4,9.6-0.9,14.4-1.2c8-0.5,15.9-1.8,23.6-3.9 c9.8-2.7,18.8-7.1,26.3-14.1c6.5-6.1,10.9-13.6,12.9-22.3c1.2-5.2,1.4-10.5-0.5-15.7c-2.7-7.5-8.7-12.2-15-16.4s-12.9-7.9-19.2-12.1 c-5.8-3.8-5.6-11,0-15.1c5.8-4.1,12.3-5.6,19.2-5.8C449,737.3,454.2,737.9,459.5,738.2z M869,700.2c0.5,4.3,1,8.4,1.3,12.4 c0.4,5.1,0.6,10.1,1.1,15.2c0.1,0.6,1.1,1.6,1.7,1.7c1.8,0.1,3.7-0.2,5.5-0.4c5.2-0.5,10.4-0.9,15.6-1.5c10.9-1.2,21.3-4,30.9-9.3 c6.1-3.4,11.4-7.9,15.8-13.4c4.6-5.9,7.6-12.4,8.5-19.7c0.7-5.8,0.5-11.7-3.2-16.9c-4.4-6.2-10.2-10.8-16.7-14.6 c-5.5-3.2-10.9-6.6-16.1-10.3c-1.9-1.3-3.4-3.3-3.5-6c-0.3-5.2,3.1-7.7,6.8-9.9c8.1-4.6,16.9-4.9,25.9-3.9c2.2,0.3,4.5,0.3,6.6,0.5 c-0.8-9.6-1.5-18.8-2.3-28.4c-3.3,0.2-6.5,0.3-9.7,0.7c-4.5,0.5-9.1,0.9-13.6,1.8c-4.8,0.9-9.6,2.2-14.3,3.6 c-15,4.4-26.7,13-32.8,27.8c-2.8,6.7-3.7,13.7-1.7,20.9c1.8,6.7,6.3,11.3,11.6,15.1c7.6,5.4,15.4,10.5,23.1,15.7 c4.4,2.9,5.6,7.8,2.8,12.1c-1.1,1.7-3,3.2-4.8,4.2c-10.1,5.5-20.9,5.5-31.9,3.9C873.4,701.1,871.2,700.6,869,700.2z M704.6,770.2 c1.3-0.3,2-0.5,2.7-0.7c10.9-2.6,21.8-5.3,32.7-7.7c1.8-0.4,1.9-1.2,1.9-2.6c0.1-8.5,0.3-17,0.5-25.5c0.1-7,0.3-14.1,0.5-21.1 c0.1-4.2,0.3-8.4,0.5-12.6c0.3-7.7,0.7-15.5,1-23.2c0.2-4.4,0.3-8.9,0.5-13.3c0.2-3,0.6-5.9,0.8-8.9c0.3-4.4,0.4-8.7,0.7-13.2 c-1.2,0.3-2,0.6-2.9,0.8c-10.9,2.5-21.7,4.9-32.6,7.4c-1.4,0.3-1.8,0.9-1.8,2.3c-0.1,12.9-0.3,25.8-0.5,38.7 c-0.1,3.5-0.3,6.9-0.5,10.4c-0.5,10.4-1,20.8-1.5,31.2c-0.2,4.4-0.3,8.9-0.5,13.3c-0.1,2.9-0.4,5.8-0.6,8.7 C705.4,759.4,705,764.6,704.6,770.2z M848.8,653.2c0.1,0.1,0.2,0.3,0.4,0.3c0.5,0.2,1,0.3,1.6,0.4c3.8,0.9,6.3,3.1,6.8,6.9 c0.4,2.6,0.2,5.4,0.1,8.1c-0.3,6.9-0.5,13.7-1,20.5c-0.3,4.6-2.4,8.9-8,9.9c-1.9,0.4-3.7,0.9-5.6,1.3c-10.8,2.6-21.6,5.2-32.4,7.8 c-0.6,0.1-1,0.9-1.5,1.4c0.2,0.2,0.3,0.4,0.5,0.6c0.4-0.2,0.7-0.4,1.1-0.4c10.7-2.8,21.3-5.7,32.1-8.2c5.4-1.3,10.6-4.8,16.6-1.9 c0.3-1.2,0.5-2,0.7-2.9c0.9-3.7,5.6-7.2,10.5-6.2c8.3,1.7,16.6,2.5,25,1.1c2.8-0.5,5.4-1.4,7.6-3.3c-8.4-5.9-16.6-11.5-24.7-17.2 c-4.3-3.1-7.9-7.1-10.1-12c-1.6-3.5-2.6-7.2-3.9-10.7C859.8,652.1,854.1,651.7,848.8,653.2z M562.5,720c0.8,0.3,1.4,0.6,2,0.7 c4.3,1,6.5,3.2,7,7.5c0.3,2.6,0.1,5.2,0,7.8c-0.3,6.7-0.5,13.4-1,20.1c-0.3,4.9-2.3,8.5-7,9.7c-6.7,1.8-13.5,3-20.2,4.6 c-6.3,1.5-12.5,3.1-18.7,4.7c-0.6,0.2-1,1-1.5,1.6c9.9-2,19.2-4.4,28.4-6.8c5.1-1.4,10.2-2.9,15.4-4.3c3.4-0.9,7.8,0.7,9.7,3.7 c0.9,1.5,1.5,3.2,2.1,4.7c0.4-4.5,0.9-9.1,1.1-13.8c0.4-10.2,0.7-20.4,1-30.7c0-0.5,0-1,0-1.5c0-5.9,0-11.8,0-17.2 c-0.5,2.6-2.3,5.2-5.3,6.1C571.4,718.5,567.1,719.1,562.5,720z M694.8,767.1c0.3-1.9,0.6-3.3,0.7-4.7c0.5-7.5,1.1-14.9,1.5-22.4 c0.4-8.1,0.7-16.3,1-24.4c0-0.6,0-1.1,0-1.7c0.2-3.1,0.4-6.1,0.6-9.2c-4.5,9.8-10.5,18.1-19.3,24.2c-1.2,0.8-1.7,1.8-0.9,3.3 c0.7,1.2,1.2,2.6,1.8,3.9C685.1,746.3,689.9,756.5,694.8,767.1z M633.6,710.7c4.8-0.3,13.8-4.3,14.4-11.4c-4.6,1-9.1,1.9-13.6,3 c-0.4,0.1-0.8,1.3-0.8,2C633.5,706.4,633.6,708.5,633.6,710.7z M839.2,655.8c-0.1-0.2-0.2-0.5-0.2-0.7c-9,2.1-17.9,4.2-26.9,6.4 c0.1,0.3,0.2,0.6,0.2,0.9C821.2,660.3,830.2,658,839.2,655.8z M552.6,722.7c0-0.2-0.1-0.5-0.1-0.7c-8.9,2.1-17.8,4.2-26.6,6.3 c0.1,0.3,0.1,0.6,0.2,0.9C534.9,727.1,543.7,724.9,552.6,722.7z"></path> <path style="fill:#FFFFFF;" d="M597,644.6c9.8-2.3,19.5-4.6,29.1-6.8c13.2-3.1,26.5-6.2,39.7-9.2c9.4-2.2,18.8-4.2,28.1-6.4 c0.6-0.2,1.5-1.2,1.5-1.9c0.6-6.9,1-13.8,1.5-20.7c0.2-2.6,0.4-5.1,0.7-7.8c-19.2,4.6-38.1,9.1-57.5,13.7c0.2-4.8,0.4-9.2,0.7-13.5 c0-0.4,0-0.8,0-1.2c0.2-5.3,0.3-10.5,0.5-15.8c0.3-6.4,0.6-12.9,1-19.3c0.3-6.2,0.6-12.4,1-18.6c0.5-8.2,1-16.4,1.5-24.6 c0.1-0.8,0.5-1.6,0.6-2.2c2.6,0.3,4.9,0.6,7.3,0.7c1.7,0.1,1.9,0.9,1.8,2.2c-0.5,6.5-1,13-1.4,19.5c-0.2,3-0.4,6-0.5,8.9 c-0.2,5.2-0.3,10.3-0.5,15.5c-0.3,7.3-0.6,14.7-1,22c-0.3,4.7-0.7,9.4-1,14.5c7-1.7,13.6-3.2,20.2-4.9c8.5-2.1,16.9-4.5,25.4-6.4 c4.4-1,8.9,1.2,10.5,5.8c0.9,2.5,0.8,5.4,0.8,8.2c0,2.6-0.5,5.3-0.7,7.9c-0.4,5.6-0.6,11.3-1,16.9c-0.4,5.6-3.4,8.8-8.7,10 c-10.8,2.5-21.7,5.1-32.5,7.6c-15.3,3.6-30.6,7.2-46,10.8c-6.3,1.5-12.5,3.5-18.8,4.2c-3.5,0.4-6.6,1.8-9.9,2.5 c-14,3.3-28,6.7-42.1,9.7c-4,0.8-8.9-1.9-10.4-7c-1.3-4.5-2.5-9-4-13.5c-1.4-4.4-3-8.7-4.6-13.1c-9.5,2.3-18.8,4.8-28.2,6.6 c-3.7,0.7-5.5,2.3-6.7,5.6c-4,10.6-8.4,20.9-12.4,31.5c-1.5,3.9-3.9,6.2-7.9,7.1c-13.6,3.2-27.2,6.4-40.9,9.6 c-1.6,0.4-3.4,0.3-5,0.7c-2.3,0.5-4.5,1.4-6.8,1.9c-13.2,3.1-26.5,6.2-39.7,9.2c-2.9,0.7-5.6,2-8.9,1.2c-3.1-0.8-5.2-2.6-6.8-5.1 c-6.4-10.4-12.8-20.7-19.2-31.1c-2.8-4.5-5.5-8.9-8.6-13.8c-0.2,2.2-0.4,3.9-0.5,5.6c-0.2,8.9-0.3,17.8-0.5,26.7 c-0.1,5.9-0.2,11.8-0.5,17.7c-0.3,6.4-3,10.5-9.8,11.7c-8.6,1.5-17.1,3.9-25.6,5.9c-3.1,0.7-6.2,1.6-9.3,2.3c-3.2,0.7-7.3-1-9.1-3.7 c-2-3.1-2.6-6.3-2-10c0.7-4,0.9-8.1,1.1-12.2c0.5-10.3,1-20.6,1.5-31c0.3-6.1,0.7-12.2,1-18.4c0.3-7.1,0.7-14.1,1-21.2 c0.3-7.8,0.7-15.7,1-23.5c0.2-7.9,0.1-15.7,0.6-23.6c0.4-5.6,1.9-9,9.1-10.3c6.7-1.3,13.3-3,20-4.5c9-2.1,18.1-4.4,27.1-6.5 c3.2-0.7,7.7,2.2,10,6.2c8.9,15.1,17.9,30.1,26.8,45.2c0.1,0.1,0.2,0.2,0.5,0.4c0.2-3,0.4-6,0.5-8.9c0.2-7,0.3-13.9,0.5-20.9 c0.2-7.2,0.2-14.4,0.5-21.6c0.2-4.2,1.2-8.4,5.5-10.5c2.4-1.1,5.2-1.4,7.8-2c10-2.3,20-4.6,30-7c6.8-1.6,11.7,2.4,12.3,8.5 c0.2,2.5,0.2,5.1,0,7.6c-0.2,2.8-0.7,5.6-0.9,8.4c-0.4,6-0.7,12.1-1,18.1c-0.3,6.9-0.6,13.7-1,20.6c-0.3,6.3-0.7,12.6-1,18.8 c-0.3,6.9-0.6,13.7-1,20.6c-0.1,2.7-0.4,5.5-0.3,8.3c2.2-4.7,4.5-9.3,6.6-14c2.4-5.4,4.7-10.8,7.1-16.2c5.5-12.4,11-24.7,16.6-37.1 c4-8.9,8.1-17.7,12-26.6c3.5-7.9,7.1-15.8,10.1-23.9c2.1-5.6,5.7-8.6,11.5-9.6c6.9-1.3,13.7-2.8,20.5-4.5c8.4-2,16.7-4.1,25-6.1 c3.8-0.9,8.8,2.3,10.4,6.7c4.1,11.4,8.1,22.9,12.3,34.3c4.3,11.6,8.8,23.2,13.2,34.8c3.7,9.7,7.4,19.4,11.1,29.2 c0.3,0.8,0.7,1.6,1.2,2.9c0.3-2.3,0.6-4.2,0.8-6c0.4-6,0.7-12.1,1-18.1c0.5-8.5,1-17.1,1.5-25.6c0.2-3.4,0.4-6.8,0.5-10.2 c0.3-10.2,0.7-20.4,1-30.6c0.2-6.9,0.3-13.8,0.5-20.6c0.1-3.9,1.1-7.5,4.7-9.6c0.9-0.5,2.1-1.1,3.1-0.8c5.9,1.4,11.7,3,17.5,4.6 c0.1,0,0.2,0.3,0.4,0.6c-4.8,1-9.4,2.1-14.1,3c-1.3,0.3-1.9,0.8-1.9,2.2c-0.1,8.8-0.2,17.5-0.5,26.3c-0.3,9.5-0.6,19-1,28.4 c-0.2,5.9-0.6,11.8-1,17.6c-0.5,8-0.9,15.9-1.5,23.9c-0.4,6.5-0.9,13-1.5,19.5C598.4,632.7,597.7,638.6,597,644.6z M427.7,550.7 c-11.9,2.7-23.6,5.3-35.2,8.1c-0.6,0.1-1.4,1.2-1.5,1.9c-0.3,4.4-0.4,8.9-0.5,13.3c-0.2,5.6-0.3,11.2-0.5,16.7 c-0.1,4.4-0.3,8.9-0.5,13.3c-0.2,6.5-0.3,13-0.5,19.4c-0.1,4.7-0.3,9.4-0.5,14.1c-0.1,2.6-0.5,5.2-0.7,8.1c-0.4-0.6-0.5-0.8-0.7-1.1 c-3.5-6.2-6.9-12.4-10.5-18.5c-5.8-9.8-11.7-19.5-17.5-29.3c-4.9-8.2-9.7-16.5-14.5-24.7c-0.8-1.4-1.7-1.8-3.5-1.3 c-10.7,2.7-21.5,5-32.3,7.5c-4.3,1-8.6,2.1-12.6,3.1c-0.4,11.1-0.8,22-1.3,32.8c-0.1,3.4-0.3,6.8-0.5,10.2c-0.3,6.6-0.7,13.2-1,19.8 s-0.7,13.2-1,19.8c-0.4,8.4-0.7,16.8-1,25.2c-0.1,3.4-0.3,6.8-0.5,10.2c-0.2,2.3-0.7,4.6-0.9,6.9c-0.3,3.3-0.4,6.6-0.6,9.9 c1-0.1,1.8,0,2.5-0.2c10.7-2.6,21.5-5.2,32.2-7.7c1.6-0.4,2-0.9,2-2.3c0.1-4.1,0.3-8.2,0.4-12.4c0.2-7.3,0.3-14.6,0.5-21.9 c0.1-4,0.3-8.1,0.5-12.1c0.3-9.1,0.6-18.3,1-27.4c0.1-2.8,0.3-5.7,0.5-8.9c2.4,4.2,4.5,8,6.8,11.7c7.5,12.1,15,24.2,22.5,36.4 c4.8,7.8,9.7,15.5,14.4,23.4c0.9,1.5,1.8,1.9,3.2,1.6c4.9-1.2,9.7-2.5,14.6-3.6c9.5-2.2,19.1-4.4,28.6-6.6c0.7-0.2,1.5-1.1,1.6-1.8 c0.3-5.1,0.4-10.2,0.6-15.3c0.1-3.6,0.3-7.3,0.5-10.9c0.5-10.1,1-20.1,1.5-30.2c0.3-6,0.7-12,1-18c0.4-7.3,0.7-14.7,1-22 c0.2-4.4,0.3-8.9,0.5-13.3c0.1-2.4,0.3-4.8,0.6-7.2C426.7,561.9,427.2,556.3,427.7,550.7z M427.8,683.8c13.4-3,26.9-6,40.4-9 c1.3-0.3,3.2-1,3.7-2c2.4-5.4,4.3-11.1,6.6-16.6c3-7.4,6.1-14.9,9.3-22.2c0.4-0.9,1.6-1.7,2.5-1.9c4.9-1.3,9.9-2.4,14.8-3.6 c9.1-2.2,18.2-4.4,27.3-6.6c1.2-0.3,2.1-0.2,2.7,1.5c3.4,10.4,7.1,20.7,10.5,31.2c0.6,1.9,1.1,2,2.8,1.6c10.8-2.6,21.7-5,32.5-7.5 c2.6-0.6,5.1-1.3,7.5-1.9c-7.9-20.6-15.9-40.9-23.5-61.3c-7.7-20.3-15-40.8-22.6-61.3c-0.6,0.1-1.3,0.1-1.9,0.2 c-13.9,3.2-27.7,6.3-41.6,9.7c-1.7,0.4-4.2-0.1-5.2,2.3c-1.4,3.2-2.7,6.4-4.1,9.7c-4.6,10.7-9.1,21.4-13.8,32 c-3.2,7.4-6.7,14.6-10,22c-5.3,11.8-10.5,23.7-15.8,35.6c-5.8,12.9-11.7,25.7-17.5,38.5C430.9,677.2,429.3,680.6,427.8,683.8z"></path> <path style="fill:#FFFFFF;" d="M488.6,324.3c0-3.3-0.2-6.7,0-10c0.3-4.9,0.8-9.8,1.5-14.6c0.9-6,2-12.1,3.4-18 c1.1-4.5,2.7-8.9,4.3-13.3c2.3-6.3,4.4-12.6,7.2-18.6c3-6.4,6.6-12.6,10.3-18.6c3.9-6.3,8-12.5,12.5-18.3c3.5-4.5,7.7-8.5,11.8-12.4 c5.8-5.6,11.6-11.3,17.9-16.3c6-4.7,12.6-8.6,19-12.8c8.6-5.8,18.2-9.4,27.7-13.3c4.1-1.7,8.4-2.8,12.7-3.9 c6.3-1.7,12.7-3.3,19.1-4.7c4.2-0.9,8.5-1.3,12.8-1.7c4.7-0.4,9.4-0.5,14.1-0.5c6.2,0,12.5,0,18.7,0.5c5.4,0.5,10.8,1.4,16.1,2.5 c8.4,1.9,16.8,4,25.2,6.3c3.1,0.9,6,2.5,9,3.8c5.4,2.4,11,4.6,16.2,7.4c5.5,2.9,11,6.1,16,9.8c7.2,5.3,14.1,10.9,20.8,16.9 c9.1,8.1,17.2,17.3,24.1,27.4c2.4,3.4,5,6.7,7,10.2c3.9,6.9,7.8,13.7,10.7,21.1c3.5,8.9,7,17.7,9,27.1c1.4,6.8,2.7,13.7,3.7,20.7 c0.9,6.7,1.2,13.4,2,20.1c1,8.4-0.3,16.7-1,25c-0.5,5.4-1.9,10.7-2.8,16c-1.8,11.2-5.4,21.8-9.7,32.1c-3.7,8.8-8.1,17.5-13.7,25.4 c-4.2,5.9-7.7,12.3-12.3,17.9c-4.9,6-10.6,11.3-15.9,17c-5.7,6.1-12.3,11.1-19.1,15.8c-4.5,3.1-9,6.3-13.7,9c-5.9,3.3-12,6.1-18,9.1 c-11.5,5.8-24,8.6-36.4,11.7c-4.1,1.1-8.5,1.4-12.8,1.9c-6.9,0.7-13.9,1.5-20.8,1.9c-4.3,0.2-8.7-0.1-13.1-0.5 c-4.5-0.4-9-1.1-13.5-1.8c-5.4-0.9-10.9-1.7-16.2-3c-6.8-1.7-13.5-3.7-20.1-5.8c-2.8-0.9-5.3-2.3-8-3.6c-3.3-1.6-6.6-3.1-9.8-4.9 c-5-2.8-9.8-5.9-14.8-8.8c-8.7-5.1-16.2-11.5-23.6-18.2c-7.9-7.1-15-14.9-21.4-23.4c-3.6-4.8-7.6-9.3-10.7-14.4 c-2.9-4.6-5.2-9.7-7.5-14.7c-2.9-6.4-5.7-12.9-8-19.6c-2.6-7.7-4.8-15.6-6.7-23.6c-1.3-5.7-1.9-11.7-2.6-17.5 c-0.7-6.6-1-13.2-1.5-19.8C488.3,324.3,488.5,324.3,488.6,324.3z M775.6,423.5c2,1.8,4.4,1.8,6.8,1.5c0.8-1,1.7-2,2.5-3 c1-0.9,2-1.8,2.9-2.8c1-1,1.8-2.1,2.7-3.2c0.1,0.1,0.2,0.1,0.3,0.2c-1.2,2.3-2.4,4.5-3.9,7.3c1.1-0.5,1.4-0.6,1.8-0.8 c-0.3,1.1-0.6,2.1-0.9,3c0.2,0.1,0.4,0.2,0.6,0.2c1.1-1.9,2.3-3.7,3.4-5.6c2.6-4.4,5-8.9,7.7-13.2c2.3-3.6,5-7,7.6-10.5 c3.5-4.8,7.4-9.3,10.4-14.3c3.6-6.1,6.8-12.5,9.5-19c1.5-3.6,1.4-7.7,2.1-11.6c-0.2-0.1-0.5-0.1-0.7-0.2 c-3.4,14.9-11.3,27.4-21.5,38.5c-0.1-1.1,0.1-2,0.4-2.9c0.8-2.4,1.8-4.8,2.5-7.3c0.5-1.6,0.3-3.7,1.2-5c2.7-4.2,5.9-7.9,8.5-12.1 c3.1-5.1,5.8-10.5,8.7-15.8c0.1,0.6,0.3,1.2,0.6,2.5c0.5-1.2,1-1.8,1-2.4c0.5-7.1,1.3-14.3,1.4-21.4c0.1-6-0.6-12.1-0.9-18.1 c-0.4-9.3-2.9-18-6.2-26.6c-0.7-1.9-1.2-3.8-1.8-5.7c0.1,0,0.2-0.1,0.4-0.1c0.2,0.3,0.4,0.5,0.7,0.9c0-0.6,0.1-1.1,0-1.4 c-1.5-4.7-3.2-9.4-4.6-14.2c-2-6.5-5-12.5-8.6-18.3c-0.9-1.5-1.2-3.3-2.3-4.7c-5.8-7.9-11.6-15.8-17.7-23.5 c-6.3-7.9-13.8-14.7-21.6-21c-5.9-4.7-12.4-8.7-18.8-12.6c-5.4-3.3-10.9-6.3-16.7-8.8c-5.8-2.6-12-4.5-18-6.6 c-2.3-0.8-4.5-1.5-6.8-2.3c-0.1,0.2-0.1,0.4-0.2,0.6c14.8,5.7,26.9,15.4,38.7,25.6c-5.2-2.5-10.2-5.6-15.3-8.2 c-5.2-2.7-10.5-4.9-16.2-7.6c2.9,0.9,5.4,1.6,7.9,2.4c-0.2-0.7-0.5-1-0.9-1.2c-4.5-1.7-9-3.4-13.6-5c-1.4-0.5-2.9-0.7-4.4-1 c-4.5-0.8-8.9-1.7-13.4-2.4c-2.9-0.5-5.8-1.3-8.7-1.4c-7.1-0.2-13.6,2.4-20,5.1c-0.4,0.2-1-0.2-1.4-0.3c11-3.5,21.7-7.9,33.2-9.6 c-2.2-0.5-4.4-0.8-6.4-0.5c-9.7,1.8-19.2,4.3-28.5,7.5c-0.9,0.3-2.1-0.1-3.1-0.2c0-0.2,0-0.4,0-0.7c9.7-2.2,18.8-6.7,29-7.1 c-5.2-2.3-10.7-1.6-16.1-1.7c-5.6-0.1-11.2-0.3-16.8,0.1c-5.4,0.4-10.8,1.3-16.1,2.4c-5.3,1-10.5,2.3-15.7,3.8 c-5.3,1.5-10.5,3.1-15.6,5.1c-5,1.9-9.9,4.2-14.8,6.7c-4.8,2.5-9.4,5.3-14.2,8s-8.2,7.1-13.1,9.8c-5.3,2.9-11.2,9.1-11.7,11.1 c1.8-0.9,3.6-1.7,5.3-2.5c-3.3,5.4-10.1,6.2-13.7,11c3.1-1.7,6.2-3.5,9.3-5.2c0.2,0.2,0.3,0.5,0.5,0.7c-5.1,6.4-13,9.8-17.6,16.7 c4.2-3.4,7.9-7.4,12.9-9.8c-0.4,1.2-0.8,2.5-1.7,3.1c-5.3,3.7-10.3,7.7-14.2,12.9c-4.4,5.9-8.8,11.8-12.6,18 c-5.3,8.9-8.7,18.6-11.5,28.5c-0.3,1.1-1.6,3,1,3.5c-0.2,0.3-0.3,0.4-0.4,0.5c-3.4,2.3-7.1,4.3-5.8,9.5c0.9-0.3,1.9-0.7,3.2-1.2 c3.2,7.2,1,14.9,3.1,22.1c-0.2,0.1-0.4,0.1-0.6,0.2c-1.5-3.8-3-7.5-3.9-9.5c0,3.7-0.1,9.3,0,14.8c0.1,6.4,1.5,12.5,4,18.4 c2.1,5,4.5,9.9,9.3,13.1c1.7,1.1,2.1,2.8,1.8,4.7c-0.2,1.3-0.5,2.6-0.8,4.2c-4.2-3.3-7.5-7.1-10.3-11.5c1.9,4.9,4.9,9,8.9,12.3 c2.2,1.9,3.1,6,1.5,8.7c-2-0.5-4-1.3-6-1.6c-4.7-0.7-8.6,0.7-7.2,6.7c1.8-4.2,3.7-5.2,8.1-4.3c6.3,1.3,6.5,1.6,6.5,8.3 c-1.8-0.4-3.6-0.9-5.3-1.1c-3.9-0.4-7.4,1.1-6.3,5.9c1,4.3,2.4,8.5,4.2,12.5c2.2,5.1,5,9.9,7.5,14.8c1.5,2.9,2.9,5.8,4.7,8.5 c6.7,9.9,13.9,19.5,22.7,27.7c5.5,5.1,11,10.3,17,14.9c5.3,4.1,11.3,7.5,16.9,11.2c9,6,19,9.9,29,13.7c5.2,2,10.8,3.3,16.2,4.6 c5.9,1.3,11.9,2.4,17.8,3.3c8.4,1.2,16.9,2.1,25.5,1.1c8.2-1,16.5-1.3,24.6-2.6c7.5-1.2,15-3,22.2-5.5c11.9-4,23.4-9.2,34.2-15.8 c3.3-2,6.6-4.3,9.5-6.8c1.7-1.4,2.9-3.4,2.9-6.1c-1.8,0.2-3.3,0.4-4.9,0.5c0-0.1,0-0.2,0-0.2c1.8-0.6,3.6-1.3,5.4-1.9 c-0.1-0.2-0.2-0.5-0.2-0.7c-4.3,1.5-8.7,3-13,4.5c7.6-3,15-6.1,19.3-13.7c-2.4,0.6-3.2-0.9-3.7-3.3c-19.7,4.6-39.1,10.4-58.3,16.9 c-0.7-1.3-1.4-2.5-2.3-4c18.8-6.1,37.4-12.1,55.9-18c-19.1,4.1-37.6,11.1-56.8,17c-0.9-1.2-1.9-2.7-2.9-4.1 c20.9-10.7,31.6-24.7,33.6-30.7c-4.9,7.7-10.5,14-17.5,19c-4.8,3.4-9.9,6.4-14.9,9.5c-0.7,0.4-2.2,0.6-2.6,0.2 c-1.1-1.1-1.8-2.6-2.7-3.9c14.6-6.8,25.5-16.8,32.4-30.9c-0.5-0.4-0.9-0.9-1.9-1.8c1.4,0,2.2,0,3.1,0c3.4-7.6,6.1-15.4,5.8-23.9 c0-0.8,0.3-2.1,0.8-2.3c1.7-0.6,3.5-0.9,5.3-1.3c1.2,9.9-1,19-3.3,28.2c1.8-4,3.6-8,4.5-12.2c1-5,1.1-10.2,1.6-15.3 c0.1-0.7,0.5-1.7,1-1.9c1.4-0.6,2.9-0.9,4.4-1c0.6-0.1,1.6,0.5,1.8,1.1c1.9,5.7,3.5,11.5,5.5,17.2c1.3,3.5,3.2,6.7,4.8,10 c2.9,4.1,5.8,8.3,8.9,12.3C772.9,422.7,774.5,423,775.6,423.5L775.6,423.5z M765,459.9c2.2-1.9,4.3-3.7,6.4-5.6 c0.3-0.3,0.2-1.1,0.3-1.6c0.2-1.4,0.1-3.1,0.8-4.2c3.8-6,7.8-11.8,11.6-17.7c0.1-0.1-0.1-0.5-0.3-1.2 C777.2,439.8,768.5,448.1,765,459.9z"></path> <path style="fill:#FFFFFF;" d="M219.9,641c4.3-1,8.6-1.8,12.9-2.9c9.3-2.3,18.6-4.8,27.9-7.1c4-1,8.9,1.8,10.2,5.6 c1.1,3.1,1.1,6.2,0.5,9.5c-0.5,2.8-0.5,5.8-0.6,8.7c-0.2,4.5-0.3,9-0.5,13.6c-0.3,6.9-2.4,10.4-9.5,12c-12.6,2.8-25.1,5.8-37.6,8.8 c-2.2,0.5-4.3,1.1-6.4,1.7c0,1.4,0,2.7,0,4.3c7.9-2,15.6-4,23.2-6c9.6-2.6,19.2-5.2,28.8-7.8c3.4-0.9,9.6,3,9.7,6.5 c0.3,5.8-0.1,11.7-0.2,17.5c-0.1,4.5-0.3,9-0.7,13.5c-0.2,2.5-0.8,5-1.8,7.3c-1.7,4-5.8,4.4-9.4,5.2c-8.2,1.9-16.5,3.6-24.7,5.5 c-13.2,3-26.5,6.1-39.7,9.3c-11.3,2.7-22.6,5.4-33.8,8.2c-7.3,1.8-13.5-2.8-13-10.1c0.6-7.3,1.3-14.7,1.9-22 c0.2-2.6,0.4-5.1,0.5-7.7c0.4-6.8,0.7-13.6,1.1-20.4c0.4-6.5,0.8-13,1-19.6c-12,30.3-35.5,43.8-66.8,46.3c-0.2,3.4-0.6,7-0.7,10.6 c-0.1,10.2,0.1,20.5-0.1,30.7c-0.1,4.1-0.8,8.4-4.8,10.5c-2.4,1.3-5.4,1.7-8.2,2.3c-10.8,2.6-21.6,5.3-32.5,7.6 c-5.6,1.2-11.3-2.2-11.4-8.9c-0.1-6.9,0.8-13.8,1.3-20.7c0.2-2.6,0.4-5.1,0.5-7.7c0.2-5.4,0.3-10.8,0.5-16.3 c0.3-7.2,0.7-14.4,1-21.5c0.4-8.8,0.7-17.6,1-26.4c0.2-5.7,0.3-11.3,0.5-17c0.2-7.1,0.3-14.3,0.5-21.4c0-1.6-0.2-3.3,0-4.9 c0.9-5.5,3.9-7.6,9-8.8c14-3.3,27.9-6.8,41.9-10.1c9.9-2.3,19.8-4.7,29.8-6.4c11.9-2.1,22.6,1.2,31.2,9.8c4,4,6.7,9,8.6,14.7 c0.1-0.9,0.4-1.9,0.4-2.8c0-7.4-0.2-14.8,0.1-22.2c0.2-5.1,1.3-9.4,8.5-10.9c1.7-0.4,3.4-0.9,5.1-1.3c14.8-3.4,29.6-6.8,44.4-10.3 c11-2.6,22-5.1,33-7.7c6.8-1.6,13.6-3.2,20.4-4.8c3.5-0.8,9.1,2.6,10.1,6.1c1.5,5,0.4,10,0.1,15c0,0.4-0.1,0.8-0.1,1.2 c-0.2,5.2-0.2,10.4-0.5,15.5c-0.3,6-2.7,9.8-9.3,11c-11.1,2-22.1,4.6-33.1,7c-6.1,1.3-12,3-18.1,4.3 C219.8,637.5,219.2,638.4,219.9,641z M206.5,707.3c0.2-3.5,0.3-6.3,0.4-9.2c0.2-4.4,0.3-8.7,0.5-13.1c0-0.6,0.7-1.5,1.2-1.7 c3.7-1.1,7.3-2.1,11-3c13.1-3.1,26.1-6.2,39.2-9.3c0.7-0.2,1.6-0.9,1.6-1.5c0.5-4.6,0.8-9.3,1-14c0.3-5,0.5-10.1,0.7-15.3 c-17.3,4.2-34.7,8.4-51.9,12.6c0-6.7-0.1-12.8,0-19c0-2.7,1.3-4.4,4.3-4.4c1.2,0,2.4-0.7,3.7-1c10.1-2.4,20.2-4.9,30.4-7.2 c8-1.8,16-3.4,24-5.1c0.5-9.9,1.1-19.7,1.6-29.6c-1.1,0.1-1.7,0.1-2.4,0.2c-6,1.4-12,2.9-18.1,4.4c-11.4,2.7-22.9,5.5-34.3,8.2 c-15.5,3.6-31,7.2-46.5,10.7c-1.6,0.4-1.9,1-1.9,2.4c-0.1,5.7-0.3,11.5-0.5,17.2c-0.2,6.2-0.3,12.5-0.5,18.7 c-0.1,4.1-0.3,8.2-0.5,12.3c-0.3,7.5-0.6,15-1,22.5c-0.3,5.8-0.6,11.6-1,17.4c-0.6,9.2-1.3,18.5-1.9,27.7c-0.4,5.6-0.8,11.3-1.2,17 c0.4,0,0.7,0.1,1,0.1c9.3-2.1,18.6-4.3,27.9-6.5c10-2.4,19.9-4.8,29.9-7.2c14.2-3.3,28.3-6.6,42.5-9.7c1.8-0.4,1.9-1.2,2-2.6 c0.2-4.3,0.6-8.5,0.9-12.7c0.3-5.1,0.5-10.2,0.8-15.4C248.7,696.5,227.7,701.8,206.5,707.3z M94.6,711.2c3.6-0.5,7.3-0.9,10.9-1.7 c13.9-3.1,26-9.6,35.2-20.8c8.3-10.1,12.3-21.9,13-34.8c0.3-5.5-0.7-11-2.6-16.2c-4.2-11.4-14.6-17.3-25.5-16.4 c-6.6,0.5-13.2,2.1-19.7,3.6c-17.9,4.3-35.8,9-53.7,13.2c-2.3,0.5-2.4,1.4-2.4,3.2c-0.1,11.8-0.3,23.5-0.5,35.3 c-0.1,5.3-0.3,10.7-0.5,16c-0.3,7.3-0.6,14.5-1,21.8c-0.3,6.5-0.6,13.1-1,19.6c-0.3,6.3-0.6,12.6-1,18.9c-0.4,6.6-0.8,13.3-1.3,20.4 c12.7-2.9,25.2-5.8,37.9-8.8c0-0.5,0-0.9,0-1.3c0.2-10.5,0.3-21.1,0.5-31.6c0.1-7.3,0.3-14.6,0.5-21.9c0.1-3.9,0.3-7.7,0.5-11.6 c0.3-8.6,0.7-17.1,1-25.7c0.1-4.4,0-8.9,0-13.5c6.4-1.6,12.3-3.1,18.3-4.5c7.8-1.8,11.9,2,11.9,9.3c0,8.7-5.5,16.5-14.5,19.4 c-4,1.3-8.1,2-12.2,2.9C90.4,694.2,92.4,702.5,94.6,711.2z M94.1,675.3c7.6-1.9,11.8-6.3,11-11.9c-3.2,0.8-6.5,1.6-9.7,2.4 c-0.3,0.1-0.7,0.6-0.7,0.9C94.5,669.5,94.3,672.4,94.1,675.3z"></path> <path style="fill:#FFFFFF;" d="M855.1,584.5c13.7-3.2,27-6.4,40.5-9.6c0.2-2.6,0.5-5.5,0.6-8.3c0.4-12,0.8-23.9,0.9-35.9 c0.1-6.5,3.1-11.8,6.1-17.1c3-5.5,6.1-10.8,9.1-16.3c6-10.6,12-21.3,17.9-31.9c4.2-7.4,8.3-14.9,12.4-22.4c2.5-4.6,5.1-9.2,8-14.3 c-3.3,0.8-6.1,1.5-8.9,2.2c-11.1,2.6-22.3,5.2-33.4,7.8c-0.8,0.2-1.7,0.8-2.1,1.5c-6.8,13.4-13.5,26.9-20.2,40.3 c-1.8,3.7-3.5,7.5-5.2,11.1c-5.4-10.7-10.7-21.3-16-31.9c-1.4-2.8-2.5-5.7-3.8-8.5c-0.5-1.1-1-1.5-2.4-1.2 c-13.8,3.3-27.7,6.4-41.6,9.6c-10.8,2.5-21.6,5.2-32.4,7.7c-0.1,0-0.3-0.1-0.5-0.1c4-4,7.8-8.2,12.2-11.7c1.9-1.5,5.1-1.6,7.7-2.2 c17.8-4.2,35.6-8.4,53.4-12.6c5.7-1.3,10.1,1.6,12.3,6.4c3.4,7.5,6.9,14.9,10.6,22.7c0.6-0.9,1-1.4,1.2-1.9 c4.1-8.1,8.1-16.1,12.2-24.2c1-2,2.2-3.9,2.9-6c2-5.4,5.9-7.8,11.3-8.9c9.7-2,19.3-4.2,28.9-6.4c3.8-0.9,7.5-2.1,11.3-2.8 c6.1-1.1,13.2,4,10.9,11.5c-1.4,4.4-3.8,8.6-6,12.7c-3.5,6.5-7.3,12.9-10.9,19.4c-4.9,8.6-9.8,17.2-14.6,25.8 c-3.7,6.6-7.3,13.3-10.9,19.9c-3,5.5-6,11.1-9,16.6c-0.4,0.7-0.7,1.5-0.7,2.3c-0.2,5.3-0.4,10.7-0.5,16c-0.2,6.6-0.3,13.1-0.5,19.7 c-0.2,4.6-0.3,9.2-1,13.7c-0.6,3.8-3.1,6.1-7.1,7c-13.4,3-26.8,6.3-40.2,9.4c-5.4,1.3-11.1-1.8-11.6-7.6c-0.4-4.7,0.2-9.5,0.5-14.3 c0.2-2.9,0.6-5.7,0.8-8.6c0.4-6.5,0.7-13.1,1-19.6c0.1-2,0.2-4,0.5-6c0.5-3.6-0.9-6.5-2.7-9.5c-5.8-9.5-11.6-19-17.3-28.7 c-1.2-2-1.8-2.6-4.5-1.8c-5.3,1.7-10.8,2.4-16.3,3.6c-5,1-10,1.9-15,3c-1.4,0.3-2.5,0.8-2.5,2.8c-0.3,9.7-0.9,19.5-1.4,29.2 c-0.4,7.4-0.7,14.8-1,22.3c-0.3,6.5-0.5,12.9-0.7,19.4c-0.2,7.1-0.1,14.2-0.3,21.3c-0.1,2.5-0.3,5-1,7.3c-0.8,2.5-2.6,4.4-5.3,5.1 c-14.4,3.4-28.8,6.8-43.2,10.2c-3.7,0.9-9-2.7-10-6.5c-0.9-3.1-0.7-6.2-0.1-9.4c0.4-2,0.4-4,0.6-6c0.4-5.7,0.7-11.4,1-17.1 c0.5-8.9,1-17.7,1.5-26.6c0.4-7.5,0.7-15,1-22.5c0.2-4.8,0.5-9.7,0.7-14.8c-7.5,2-14.6,3.9-21.8,5.6c-3.3,0.8-6.3,2.4-10,1.4 c-3.6-1-5.9-3.1-6.7-6.6c-0.6-2.6-0.6-5.4-0.7-8.1c0-1.5,0.7-2.4,2.5-2.5c2.3-0.2,4.5-0.9,7-1.4c0,2.8,0.2,5.5-0.1,8.1 c-0.1,1.5-0.1,1.7,1.4,1.3c11.8-3.1,23.7-6.2,35.5-9.2c0.7-0.2,1.4-0.3,1.8-0.3c0,5.5,0,11.1,0,16.6c0,0.7,0,1.3,0,2 c-0.2,7.5-0.3,15.1-0.5,22.6c-0.2,6.8-0.6,13.6-1,20.4c-0.4,7.9-0.9,15.9-1.5,23.8c-0.5,6.5-1.2,12.9-1.9,19.8 c13.8-3.2,27.3-6.4,41-9.6c0-1,0-1.9,0-2.9c0.2-10.9,0.2-21.9,0.5-32.8c0.2-8.3,0.6-16.6,1-24.9c0.3-6.4,0.6-12.9,1-19.3 c0.4-6.8,0.9-13.6,1.5-20.5c0.1-1.3,0.2-2.6,0.5-3.8c0.2-0.6,1-1.2,1.6-1.4c10.5-2.2,21.1-4.3,31.6-6.4c1.9-0.4,3.7-0.8,6-1.3 c0-6.4,0-12.8,0-19.3c0.2-0.1,0.5-0.1,0.7-0.2c1.2,2,2.4,3.9,3.6,5.9c4.9,8,9.8,16,14.7,24.1c5.9,9.7,11.7,19.4,17.5,29.1 c1.8,3.1,0.7,6.5,0.8,9.7c0,1-0.3,2.1-0.4,3.1c-0.5,8.9-0.9,17.7-1.5,26.6C856.2,573.5,855.6,578.9,855.1,584.5z"></path> <path style="fill:#FFFFFF;" d="M763.9,408.8c-1.3-3.8-2.7-7.6-4-11.4c-1.9-5.6-3.6-11.3-5.6-17.2c1.8-0.7,3.4-1.5,5-1.9 c0.4-0.1,1.3,0.5,1.5,1c2.3,6,4.3,12.1,7,18c2.4,5.4,4.7,11.1,9.2,15.2c2.7,2.4,5.9,4.1,9.1,6.2c-0.3,0.7-0.8,2-1.3,3.3 c-0.8,1-1.7,2-2.5,3c-2.3-0.5-4.6-1-6.8-1.5l0.1,0.1c-0.1-0.4,0-0.8-0.2-1.1c-2-2.1-4.3-3.9-6.2-6.2 C767.3,414,765.7,411.3,763.9,408.8z"></path> <path style="fill:#FFFFFF;" d="M516.3,560.1c3.9,11.6,7.6,22.7,11.3,34c-9.2,2.2-18.3,4.4-27.9,6.7 C505.3,587.1,510.7,573.8,516.3,560.1z"></path> <path style="fill:#FFFFFF;" d="M676,300.5c-0.5,2.5-1,4.6-1.4,6.5c-32.1-5.8-57.5,5-78.1,29.4c-1.4-1.7-2.8-3.4-4.4-5.3 c1.7-3.8,4.1-8.3,5.8-12.9c3.3-9.5,6.6-19.1,9.2-28.8c1.5-5.7,1.6-11.7,2.1-17.6c0.3-3.7,0.5-7.4,0.5-11.1c0-2.9-0.7-5.9-0.8-8.8 c0-0.9,0.6-2.1,1.3-2.6c1.3-0.8,2.9-1.2,4.4-1.8c6.2,12.8,14.9,23.3,25.9,32.2C651.3,288.2,663.2,295,676,300.5z"></path> <path style="fill:#FFFFFF;" d="M745.1,368.8c-1.6-9.9-5.1-19.1-10.6-27.4c-6.2-9.5-14.1-17.4-24.2-23c-6.3-3.5-12.7-6.6-19.7-8.1 c-0.4-0.1-1-0.3-1-0.5c0.2-1.9,0.4-3.9,1-5.7c0.2-0.5,1.8-0.7,2.8-0.7c5.4-0.1,10.7,0.3,16.1-0.1c5.1-0.4,10.1-1.4,15.1-2.3 c6-1.1,12-2.5,17.4-5.5c4-2.2,8.3-4.1,12.1-6.7c3.5-2.4,6.6-5.5,9.9-8.3c5.3,5,4.4,3.6,1.8,9.6c-4,9-7.1,18.4-9.1,28.1 c-1.5,6.9-2.6,14-3.4,21c-0.8,6.8-1,13.6-1.5,20.4c-0.2,2.1-0.2,4.2-0.5,6.2c-0.1,0.5-0.7,1.2-1.3,1.4 C748.4,367.9,746.7,368.3,745.1,368.8z"></path> <path style="fill:#FFFFFF;" d="M591.7,428.1c-0.6-0.7-1.2-1.4-1.8-2.1c-6.2-6.1-12.2-12.3-18.7-18.1c-7.3-6.5-14.9-12.7-22.6-18.7 c-5.6-4.4-11.8-8.2-17.6-12.4c-0.8-0.6-1.2-2.1-1.4-3.2c-0.3-1.4-0.2-2.8-0.4-4.7c1.1,0.1,2.3,0.3,3.5,0.4 c10.8,0.5,20.4-2.9,29.5-8.4c8-4.8,15-10.7,21.5-17.2c1.4-1.4,2.3-1.4,3.5,0.1c1,1.1,2.3,2,3.5,3c-7.7,12.5-10.6,25.8-9,40.3 c1.5,14.3,7.1,26.8,15.4,38.6C595.4,426.4,593.7,427.2,591.7,428.1z"></path> <path style="fill:#FFFFFF;" d="M601,438.8c1.3-0.8,2.5-1.6,3.8-2.2c0.5-0.2,1.4,0,1.9,0.4c5.5,3.9,10.7,8.5,16.6,11.8 c5.5,3.1,11.7,5,17.7,7c7.6,2.4,15.5,3.3,23.5,3s15.8-1.7,23.6-4.4c0.7,1,1.6,2,2,3.2c0.2,0.6-0.4,1.9-1,2.2 c-10.6,5-21.3,9.8-31.8,14.9c-6.5,3.2-12.8,6.8-19.1,10.3c-2,1.1-7.6,1.1-9.3-0.3c-0.3-0.2-0.5-0.6-0.5-1 c-0.2-6.5-3.3-11.8-6.9-16.8c-6.1-8.8-12.6-17.2-19-25.8C601.9,440.2,601.5,439.5,601,438.8z"></path> <path style="fill:#FFFFFF;" d="M636.1,180.5c-8.2,5.4-15,12.1-19.2,21c-2.1,4.5-3.4,9.4-4.2,14.3c-0.7,4.5-0.1,9.1-0.1,13.8 c-1.7,0.7-3.6,1.4-5.8,2.2c-1-2.1-1.6-4.3-2.9-6c-3-4.3-6-8.7-9.6-12.4c-4.3-4.5-9.9-7.4-16.2-7.9c-4.8-0.4-9.6,0-14.2,0.1 c0.8-2.4,1.4-3.3,6.7-5.5c9-3.8,18.1-7.4,27.2-10.9c8.1-3.1,16.2-6.2,24.4-9c6.9-2.4,13.9-4.3,21-6.3c1.1-0.3,2.6,0.3,3.8,1.1 c-2.7,1.4-5.3,2.7-8,4.1c0.5-0.5,0.9-1.3,1.5-1.6c1.7-0.9,3.4-1.6,5.2-2.5c-0.5-0.3-0.9-0.7-1.3-0.7c-3.4,0.7-6.1,2.4-8.2,5.1 C635.9,179.5,636.1,180.1,636.1,180.5z"></path> <path style="fill:#FFFFFF;" d="M815.1,260c-4.7-4.3-9.8-6.7-15.9-6.4c-4.4,0.2-8.5,1.7-11.9,4.3c-3.4,2.6-6.5,5.5-9.9,8.4 c-0.8-1-2.1-2.3-3.1-3.8c-0.3-0.4-0.4-1.2-0.2-1.7c1.9-5.1,2.9-10.3,3.2-15.9c0.4-8.3-1.3-16-4.4-23.7c-3.6-8.9-9.3-16.3-15.9-24.1 c1.2,0.2,2.1,0.1,2.6,0.4c2.6,2.1,5.2,4.3,7.6,6.6c5.4,5.1,10.8,10.2,15.9,15.5c4.2,4.3,8.1,9,12.1,13.5c4.9,5.6,10,11,14.7,16.8 C812.1,253,815.3,255.5,815.1,260z"></path> <path style="fill:#FFFFFF;" d="M673.8,311c-0.4,2.2-0.8,4.1-1.1,5.8c-28.1-3.9-51,4.5-69,26.9c-0.7-0.8-1.3-1.8-2.1-2.6 c-2.6-2.7-2.7-2.7-0.3-5.5c6.3-7.5,13.8-13.6,22.3-18.4c8-4.5,16.7-6.8,25.9-7.8C657.6,308.4,665.5,309,673.8,311z"></path> <path style="fill:#FFFFFF;" d="M604.2,422.8c0.1,0-0.2,0.1-0.5,0.2c-1.7,0.5-3.7,1.8-4.9,1.3c-1.4-0.6-2.2-2.8-3.3-4.3 c-5.6-8.1-9.5-17-11.5-26.5c-2.6-12.3-1.1-24.3,4.2-35.8c1.2-2.5,2.6-4.9,3.9-7.4c0.2-0.3,0.6-0.9,0.7-0.9c1.5,0.8,3.1,1.6,4.4,2.6 c0.5,0.3,0.8,1.6,0.5,2.1c-4.7,7.6-6.7,15.9-7.2,24.7c-0.5,10.2,1.1,20,5.5,29.2C598.4,413,601.4,417.8,604.2,422.8z"></path> <path style="fill:#FFFFFF;" d="M735.8,372.2c-0.9-8.8-4-16.7-8.8-23.9c-7.2-10.9-16.6-19.4-28.8-24.5c-3.1-1.3-6.3-2.5-9.4-3.8 c-0.6-0.3-1.4-1.3-1.4-1.9c0.1-1.4,0.6-2.8,1.1-4.5c2,0.6,4,1,5.9,1.7c7.3,2.5,14.4,5.5,20.7,10.2c8.1,6.2,15,13.3,19.8,22.6 c3.3,6.5,5.6,13.3,7.4,20.3c0.3,1.2,0.2,1.7-1,2.1C739.4,370.9,737.7,371.6,735.8,372.2z"></path> <path style="fill:#FFFFFF;" d="M618.4,246.2c2-0.7,3.8-1.4,5-1.9c3.5,5.2,6.7,10.4,10.5,15.1c7.9,10,18.3,17.1,29.3,23.4 c4.2,2.4,8.5,4.7,12.7,7.1c1.6,0.9,2.8,1.9,1.7,4c-0.5,0.9-0.5,2-0.8,3.3c-4.3-2.1-8.8-3.8-12.8-6.2c-6.7-4.1-13.1-8.5-19.5-12.9 c-6.6-4.5-12.3-10.1-16.9-16.5c-3.2-4.4-5.8-9.3-8.7-14C618.7,247.2,618.6,246.8,618.4,246.2z"></path> <path style="fill:#FFFFFF;" d="M691.3,299.5c0.3-1.8,0.7-3.7,1-5.6c4-0.2,8-0.5,12-0.7c9.4-0.4,18.8-1.6,27.8-4.5 c8.9-2.9,17-7.3,23.5-14.3c0.4-0.4,0.8-0.8,1.1-1c1.5,1.4,2.9,2.7,4.4,4.1c-4.2,4.8-8.9,8.6-14.3,11.8c-8.8,5.2-18.5,7.6-28.5,9.1 c-7.5,1.1-15.2,1.2-22.9,1.6C694.2,300.1,692.8,299.7,691.3,299.5z"></path> <path style="fill:#FFFFFF;" d="M583.6,340.4c-9.2,9.4-19.1,17.3-30.3,23.3c-3.7,2-8.2,2.8-12.5,3.6c-2.8,0.5-5.7,0.1-8.6,0.1 c-2,0-3.2-0.6-3.1-3c0.1-1.3-0.4-2.5-0.4-3.8c0-0.4,1-1.1,1.5-1.1c6.6,0.4,13.1-0.3,19.3-3c9-4,16.7-9.9,24.1-16.3 c0.4-0.4,0.9-0.6,1.4-0.9c1.2-1,2.9-3,3.6-2.8C580.5,337.2,581.9,339,583.6,340.4z"></path> <path style="fill:#FFFFFF;" d="M599.8,253.5c1.4-0.6,2.9-1.2,4.9-2c0.4,2.3,1,4.3,1,6.4c0.1,6,0.6,12.1-0.1,18 c-0.8,7.3-2.3,14.5-4,21.6c-2.5,10.1-6.5,19.8-11,29.2c-0.4,0.9-0.8,1.7-1.4,2.9c-1.3-1.6-2.6-3.2-3.9-4.8 C596.1,302.6,601.7,279,599.8,253.5z"></path> <path style="fill:#FFFFFF;" d="M606.9,435.5c2.3-1.6,3.8-2.6,5.1-3.6c21.2,19.1,45.4,24.1,72.7,16.8c-0.1-0.1,0.1,0,0.2,0.1 c2.6,4.3,3.2,4.1-2.2,5.7c-8.8,2.5-17.7,3.3-26.7,2.7c-12.8-0.8-24.7-4.7-35.4-11.8C616,442.3,611.7,439,606.9,435.5z"></path> <path style="fill:#FFFFFF;" d="M770.8,287.5c1.1,1.4,2,2.3,2.6,3.4c0.3,0.6,0.5,1.7,0.2,2.3c-5.1,11.7-8.6,23.9-10.7,36.5 c-1.1,7.1-2.1,14.2-2.9,21.3c-0.5,4.2-0.5,8.4-0.8,12.8c-1.4,0.5-3.1,1.1-5.1,1.9C754.7,338.6,758.5,312.7,770.8,287.5z"></path> <path style="fill:#FFFFFF;" d="M589.8,428.4c-3.5,2.7-4.2,2.4-6.9-0.5c-3.8-4.1-8-7.8-12.1-11.6c-2.8-2.5-5.8-4.8-8.6-7.3 c-9.2-8.3-18.7-16-29.3-22.4c-2.8-1.7-2.3-4.6-2.4-7.9C553.7,391.7,571.6,410,589.8,428.4z"></path> <path style="fill:#FFFFFF;" d="M693.7,463.8c-8.3,4-16.5,7.9-24.6,11.9c-7.6,3.8-15,8-22.7,11.6c-1.6,0.8-4,0-6-0.1 c-0.5,0-0.9-0.3-2.1-0.7c2.4-1.5,4.3-3,6.4-4.1c9.1-4.5,18.3-8.9,27.5-13.4c4.8-2.3,9.6-4.7,14.3-7.1c0.7-0.3,1.5-0.6,2.2-0.9 C692.2,459.8,692.2,459.8,693.7,463.8z"></path> <path style="fill:#FFFFFF;" d="M597.5,235.5c-2.7-7.9-7.7-14.1-14.7-18.6c-7.1-4.6-14.8-5.9-23.1-3.8c1.3-3.9,2.2-4.3,6-4.8 c4.4-0.6,8.8-0.6,13.1,0.5c5.4,1.4,9.7,4.2,13.6,8.2c4.7,4.8,7.7,10.4,10.5,16.4C601.1,234.1,599.4,234.7,597.5,235.5z"></path> <path style="fill:#FFFFFF;" d="M594.9,441.8c1.4-0.7,2.7-1.5,4.3-2.4c9.8,14.1,22.9,26,26.9,43.5c-0.2,0.3-0.4,0.5-0.7,0.8 c-2.1-0.5-4.2-1.1-6-1.5C615,466.5,604.7,454.5,594.9,441.8z"></path> <path style="fill:#FFFFFF;" d="M817.5,268c-12.9-9.2-24.1-5.4-33.4,6.1c-1.1-1.2-2.2-2.4-3.1-3.6c-0.3-0.4-0.4-1.3-0.1-1.7 c4.3-5.4,9.4-10.1,16.3-11.5c7-1.4,13.5,0.8,18.7,5.9C816.9,264.3,817,266.4,817.5,268z"></path> <path style="fill:#FFFFFF;" d="M634.9,185.1c-0.3,0.3-0.5,0.7-0.9,0.9c-3.6,2.8-5.1,6.5-5,10.9c0,0.4-0.5,0.8-0.7,1.2 c-4.4,6.9-6.7,14.4-6.5,22.6c0,0.2,0,0.5,0,0.7c0,1.8,0.8,4.1,0,5.3c-0.9,1.2-3.3,1.2-5,1.8C612.9,208.9,623,193.1,634.9,185.1z"></path> <path style="fill:#FFFFFF;" d="M770.6,258.8c-3.2-1.9-3.9-4.1-2.6-7.7c3.5-10.5,2.1-21-2.2-31c-2.2-5.1-5.3-9.8-7.9-14.6 c-0.4-0.7-0.6-1.4-0.8-2.2C774.2,218.6,777.8,243.7,770.6,258.8z"></path> <path style="fill:#FFFFFF;" d="M526.2,400.2c1.3-0.9,2.2-1.4,2.9-1.9c1.4,1.6,2.6,3.2,4,4.6c6.6,6.3,12.9,13,19.9,18.8 c6.8,5.7,14,10.8,21.5,15.6c4,2.5,8.7,1.3,12.8-0.7c7.2-3.5,14.3-7,21.4-10.5c0.1-0.1,0.3,0,0.5,0c-1.4,2-5.5,4.7-8.9,6.3 c-5.4,2.5-10.8,5-16.1,7.8c-2.8,1.5-3.4,4-2.1,7c1.9,4.3,4,8.5,6,12.7c0.2,0.3,0.3,0.7,0,1.2c-1.2-1.9-2.3-3.9-3.5-5.8 c-2.4-4.1-4.4-8.3-7.2-12.1c-2-2.7-4.9-4.8-7.5-6.9c-5.3-4.2-10.7-8.2-16-12.5c-4.6-3.7-9.2-7.5-13.6-11.5c-3.2-2.9-6.1-6.2-9.2-9.3 c-0.9-0.8-2.1-1.3-3.2-1.9C527.6,400.8,527.1,400.6,526.2,400.2z"></path> <path style="fill:#FFFFFF;" d="M641.3,171.9c-25.1,7.3-49.3,17.1-73.3,27.4c1.9-3.4,2.1-3.5,8.7-6.1c10.9-4.3,21.8-8.9,32.8-12.9 c9.6-3.5,19.4-6.4,29.2-9.5c0.7-0.2,1.6,0.1,2.4,0.2C641.2,171.3,641.3,171.6,641.3,171.9z"></path> <path style="fill:#FFFFFF;" d="M692.3,478.3c2.9-2,5.8-4,8.7-6c1.8-1.2,2.9-4.1,2.1-5.6c-0.1,0.3-0.3,0.6-0.4,0.8 c-0.1,0-0.1,0-0.2,0c-0.1-0.2-0.3-0.4-0.4-0.6c-1.6-7.3-7.2-12.5-10.3-19c0.2-0.1,0.4-0.2,0.7-0.4c0.8,1.3,1.6,2.7,2.5,4 c3.3,4.8,6.5,9.6,10.1,14.2c1,1.2,3.2,2,4.9,2.1c3,0.2,6.1,0,9.1-0.5c4.9-0.8,9.7-2.1,14.8-2.7c-2.6,0.9-5.2,2.1-7.9,2.7 c-4.2,1-8.6,1.4-12.8,2.5c-4,1.1-8,2.7-11.8,4.3c-3,1.3-5.9,2.9-8.8,4.4C692.4,478.5,692.3,478.4,692.3,478.3z"></path> <path style="fill:#FFFFFF;" d="M812.7,251c-15.8-19.2-32.8-37.1-50.8-54.5c0.7,0.3,1.5,0.4,2,0.9c2.8,2.5,5.5,5,8.1,7.6 c5.6,5.5,11.4,10.9,16.7,16.8c7.3,8,14.2,16.4,21.3,24.6c0.7,0.8,1.4,1.6,1.9,2.5C812.3,249.4,812.4,250.2,812.7,251z"></path> <path style="fill:#FFFFFF;" d="M620.3,420.4c-3.2,1.5-6,2.9-8.9,4.4c0.1-0.3,0.1-0.8,0.4-1c5.1-4.6,4.3-10.5,3.8-16.5 c-0.3-3.5-0.1-6.9,0-10.4C617.4,404.7,616.3,413.2,620.3,420.4z"></path> <path style="fill:#FFFFFF;" d="M715.4,392.1c2-3.5,3.9-7.1,5.9-10.5c0.3-0.4,0.9-0.8,1.4-1c6.4-1.8,12.8-3.6,19.2-5.3 c0.4-0.1,0.8,0,1.1,0c-5.1,2-10.7,3.3-15.3,6.1C723,384.2,719.4,388.5,715.4,392.1z"></path> <path style="fill:#FFFFFF;" d="M781.3,373.1c-1-0.8-2-1.4-2.9-2.3c-3.8-4-8.3-3.3-12.9-1.9c-4.9,1.5-9.8,2.9-15,3.9 c0.5-0.2,1.1-0.3,1.6-0.5c1.7-0.8,3.2-1.8,5-2.3c4.2-1.4,8.5-2.6,12.7-3.9c0.1,0,0.2,0,0.2,0c3.6-2.6,5.5-0.3,7.4,2.5 c1.1,1.6,2.9,2.8,4.3,4.2C781.6,372.7,781.4,372.9,781.3,373.1z"></path> <path style="fill:#FFFFFF;" d="M793.9,410.3c0.8-3.6,1.8-6.6,2-9.5c0.1-2.1-0.7-4.3-1.4-6.3c-1.1-2.9-2.6-5.7-3.9-8.5 c0.2-0.1,0.4-0.2,0.6-0.3c0.8,1.3,1.6,2.6,2.5,3.8c1.6,2.3,3.2,4.5,5,6.7c1.2,1.5,1.8,2.6,0.3,4.6c-1.7,2.1-2.6,4.8-3.9,7.2 C794.8,408.4,794.5,409.1,793.9,410.3z"></path> <path style="fill:#FFFFFF;" d="M695.7,422.7c-1.7,2.9-3.7,5.8-5,8.9c-1.1,2.7-1.4,5.7-2.1,9c-0.9-1.2-1.9-2.4-2.7-3.7 c-0.9-1.3-0.7-1.1-2.3-0.4c-0.8,0.3-2.2-0.5-3.9-1c1.4-0.4,2.3-0.6,3.1-0.8c4.1-1.3,7-3.9,9.2-7.6 C692.9,425.4,694.5,424.2,695.7,422.7L695.7,422.7z"></path> <path style="fill:#FFFFFF;" d="M543.4,232.5c1.2-2.1,2.4-4.2,3.8-6.8c2.7,6.6,9,7.6,13.5,11c0.9,0.7,2,1.3,2.7,2.4 c-2.3-1.3-4.7-2.5-7-3.8c-2.1-1.2-4.1-2.5-6.2-3.5c-2.3-1-4.5-1.1-6.2,1.4C543.8,233,543.6,232.7,543.4,232.5z"></path> <path style="fill:#FFFFFF;" d="M750.7,188.4c-8.8-6.4-17.5-12.8-25.6-18.7C727.7,169.9,746.9,183.1,750.7,188.4z"></path> <path style="fill:#FFFFFF;" d="M582.4,247.8c-6.2,0.7-10.2-3.9-15-6.6C572.4,243.4,577.4,245.6,582.4,247.8z"></path> <path style="fill:#FFFFFF;" d="M705.6,407.6c-0.9-1.4,2.6-8.1,5.9-10C709.5,401,707.5,404.3,705.6,407.6z"></path> <path style="fill:#FFFFFF;" d="M595.6,476.3c4.5-1.9,6.5,1.5,9.4,2.4c-0.1,0.2-0.2,0.5-0.2,0.7C601.9,478.4,599,477.4,595.6,476.3z"></path> <path style="fill:#FFFFFF;" d="M695.7,422.8c0.4-1,0.7-2,1.3-2.9c2.1-3.2,4.2-6.3,6.4-9.5c0.2,0.2,0.5,0.3,0.7,0.5 C701.3,414.8,698.5,418.7,695.7,422.8C695.7,422.7,695.7,422.8,695.7,422.8z"></path> <path style="fill:#FFFFFF;" d="M672.2,168.3c4.2-0.2,8.3-0.4,12.5-0.6c0,0.2,0,0.3,0,0.5c-4.2,0.2-8.3,0.4-12.5,0.7 C672.2,168.6,672.2,168.4,672.2,168.3z"></path> <path style="fill:#FFFFFF;" d="M697.1,169c3.6,0.6,7.1,1.1,10.7,1.7c0,0.2,0,0.3-0.1,0.5c-3.6-0.6-7.1-1.1-10.7-1.7 C697.1,169.4,697.1,169.2,697.1,169z"></path> </svg> 