<?xml version="1.0" encoding="UTF-8"?> <svg xmlns="http://www.w3.org/2000/svg" xmlns:xlink="http://www.w3.org/1999/xlink" version="1.1" id="Layer_1" x="0px" y="0px" viewBox="0 0 1000 1000" style="enable-background:new 0 0 1000 1000;" xml:space="preserve"> <path style="fill:#FFFFFF;" d="M983.5,521c-8.2,25.7-18.7,33.1-46.7,33.1c-141.3,0-282.6-0.1-423.9,0.2c-6.7,0-14,1.9-20.1,4.9 C469.2,570.7,446,583,422.7,595c-3,1.5-6.1,2.9-9.2,4.3c-0.6-0.6-1.1-1.2-1.7-1.8c30.9-45,61.8-89.9,93.6-136.2 c5.5,7.8,10.5,14.9,15.4,21.9c6.3,8.9,10.8,21.1,19.4,25.6c8.6,4.6,21.3,1.5,32.2,1.7c9.5,0.1,18.9,0.4,28.4-0.2 c2.6-0.2,6.7-2.8,7.3-5.1c12.3-48.1,24.2-96.3,36.1-144.4c0.2-0.8-0.1-1.7-0.3-4c-9.2,0-18.5-0.4-27.8,0.3c-1.8,0.1-4.3,4-4.9,6.6 c-11.4,45-22.5,90-33.8,135c-0.6,2.2-1.4,4.4-2.5,8.1c-2.9-4-5.1-6.9-7.2-10c-13-18.9-25.9-38-39.1-56.8c-3.1-4.4-3.5-7.7-0.2-12.5 c25.3-36.2,50.2-72.8,75.6-109c2.1-2.9,7.1-5.4,10.7-5.4c109.4-0.3,218.7-0.4,328.1-0.4c21.8,0,33.1,9.3,40.7,32.8 C983.5,404.1,983.5,462.5,983.5,521z M693.3,510.5c9.9,0,18.1-0.3,26.4,0.1c4.9,0.2,6.7-1.8,7.8-6.2c5.9-24.9,12-49.7,18-74.5 c2.9-11.7,5.6-23.4,8.9-35c2.4-8.2,12.1-12.4,20.9-9.5c8.4,2.8,5.6,9.4,4.2,14.8c-6.1,24.8-12.5,49.5-18.6,74.3 c-2.9,11.5-5.5,23.2-8.5,35.9c9.7,0,18-0.2,26.2,0.1c4.9,0.2,6.6-1.8,7.6-6.3c3-13.2,6.5-26.2,9.8-39.3 c6.7-27.1,13.5-54.1,19.9-81.3c3.1-13.1-3.3-25.1-15.8-26c-18.2-1.3-38.4-7.1-50,10.8c-7.5-4.2-13.9-10.6-20.8-11.1 c-18.7-1.5-37.7-0.5-57.1-0.5c-12.7,51-25.2,101.7-38.1,153.6c8.5,0,16.1-0.6,23.6,0.2c7.2,0.7,9.9-2.7,11.4-8.9 c8.4-34.8,17.1-69.6,25.2-104.5c2.1-9.1,5.3-13.6,15.6-12.5c10.8,1.2,13.3,3.2,11.1,13.7c-1.7,8-4,16-5.9,23.9 C707.7,451.5,700.6,480.5,693.3,510.5z M904.4,363.7c-26.7-16-58.3-5.4-65.6,28.6c-6.3,29.6-14.5,58.7-21.6,88.1 c-4.4,18.2,4.3,29.6,23,29.9c18.6,0.3,37.2-0.3,55.9-0.1c4.8,0,6.4-1.8,7.5-6.4c8-33.7,16.4-67.3,24.7-101 c3.7-15,7.4-30.1,11.5-46.6C927,358.7,914.1,351.1,904.4,363.7z"></path> <path style="fill:#FFFFFF;" d="M295.1,753c-0.8-0.3-1.6-0.8-2.5-0.8c-23.8-2.6-26.5-5.3-26.7-28.7c-0.2-29.8-0.3-59.6-0.4-89.4 c0-13.7,8.1-21.7,22.3-21.7c52.6-0.1,105.2-0.1,157.9-0.1c5.3,0,10.5,0,16.5,0c-2.3,8.1-1.4,16.6-13,18.9c-8,1.5-12.4,11.8-10.5,19 c1.7,6.3,10.6,12.9,16.8,12.4c7.3-0.6,16.7-9.3,15.9-16.6c-0.6-5.2-4.3-10-6.9-15.6c8-18.8,8-18.3,29.3-18.2 c24.5,0.1,49-0.8,73.5-0.9c2.5,0,6,1.6,7.4,3.6c6.1,8.9,11.5,18.2,17.7,28.2c1.2-1,3.6-1.9,4.4-3.6c9.5-20.7,25.1-26.1,47.9-26.8 c20.4-0.6,40.8,1.4,61.1,0.1c14.8-1,22.1,7.1,22.1,22.1c0.1,30.7-0.5,61.4,0.3,92.1c0.3,13.1-4.9,21.1-16.2,26.3 C573,753,434.1,753,295.1,753z M691.2,680.7c2.1-21.8-15.5-44.5-43.6-43.7c-24.8,0.7-45,23.7-45.3,42.8 c-0.5,28.6,14.6,46.2,40.2,46.3C670.7,726.2,691.2,707,691.2,680.7z M301.9,682.7C301.9,682.7,301.9,682.7,301.9,682.7 c-0.1,11.8,0.3,23.6-0.2,35.4c-0.2,5.6,1.1,8.4,7.1,8c6.5-0.4,14.3,1.7,16.1-7.8c0.9-4.8-1-12,1.6-14.3c3.1-2.7,9.8-1.4,15-1.8 c0.6,0,1.2-0.1,1.8-0.2c17.8-1.6,33.5-17.8,33.2-34.3c-0.4-19.4-12.6-30.8-34-31.4c-9.4-0.3-18.9-0.1-28.4,0 c-9.8,0-12.1,2.2-12.2,11.8C301.8,659.7,301.9,671.2,301.9,682.7z M488.4,698.6c0.7-0.2,1.4-0.3,2.1-0.5 c6.9,8.5,13.2,17.6,20.9,25.4c2.5,2.6,8.7,3.3,12.4,2.3c2.6-0.7,5.4-5.9,5.5-9.2c0.6-16.2,0.4-32.4,0.5-48.6c0-5.2,0.7-9.9-7.4-9.5 c-7.3,0.3-11.2,2.3-11.1,10.1c0.1,6.8,0,13.7,0,20.5c-8.7-8.5-15.5-17.3-22-26.3c-3.9-5.5-9.6-5.3-14.1-3.3 c-2.8,1.2-5.3,6.3-5.4,9.7c-0.6,17.1-0.4,34.2-0.2,51.3c0,2,1,5,2.4,5.8c7.6,4.1,16.4-1.6,16.4-10.6 C488.5,710,488.4,704.3,488.4,698.6z M557.4,652.3c-16.1-3.6-19.5-1.2-19.7,13.9c-0.2,16.8,0.4,33.6-0.2,50.4 c-0.3,8.6,3,10.8,10.8,9.9c6.8-0.8,9.8-3.7,9.3-10.9c-0.3-5.4-2.6-12.3,6-14.7c4.8,6.3,9.7,12.5,14.2,19c4.5,6.6,10.6,8,17.8,6.2 c3.3-0.8,6.6-2.1,10.7-3.4c-10-13.6-19.5-26.6-29.3-39.9c8.9-10.3,17.5-20.2,27.2-31.5c-9.5-0.4-17-2.1-22.8,6 c-4.4,6.2-10,11.6-15.2,17.3c-2.4,2.6-4.9,5.1-9,9.3C557.4,671.5,557.4,661.8,557.4,652.3z M402.8,679.5 C402.8,679.5,402.8,679.5,402.8,679.5c0-7.1-0.3-14.1,0-21.2c0.2-5.7-0.2-9.8-7.7-9.7c-6.8,0.1-13,0.9-13.2,9.2 c-0.4,20.9-0.4,41.8-0.2,62.7c0,2,2.3,5.7,3.5,5.7c15.3,0.3,30.7,0.7,45.9-0.2c6.1-0.4,7.1-6.9,5.6-11.9c-0.7-2.2-4.5-4.4-7.2-4.7 c-6.1-0.7-12.4-0.7-18.5-0.1c-6.9,0.6-8.8-2.3-8.4-8.6C403.1,693.7,402.8,686.6,402.8,679.5z M445.6,725.9 c14.8,1.5,16.4,0.2,16.4-12.9c0-12.1-0.2-24.1,0.1-36.2c0.1-4.8-0.6-8.3-6.4-8c-4.8,0.3-10,0.7-10,7.2 C445.5,692.5,445.6,708.9,445.6,725.9z"></path> <path style="fill:#FFFFFF;" d="M597.3,269.4c-30.9,45-61.9,90.1-93.7,136.5c-6.8-9.9-14.2-18.3-19.1-28.1 c-8.7-17.4-21.2-24.5-40.7-21.4c-10.7,1.7-21.9,0.8-32.8,0.1c-6.9-0.4-9.4,2.5-10.8,8.4C389.6,408,378.9,451,368.3,494 c-1.3,5.1-2.5,10.2-4,16.3c9.9,0,19,0.4,28.1-0.3c2-0.1,4.8-3.7,5.5-6.1c8.4-32.1,16.4-64.3,24.5-96.5c3.8-15.1,7.5-30.1,11.7-47 c2.6,3.3,4.5,5.4,6.1,7.7c13.5,19.7,26.8,39.5,40.6,59c3.3,4.6,3.2,7.8-0.1,12.4c-25.1,36.1-49.9,72.3-74.7,108.6 c-3,4.4-6.3,5.9-11.6,5.9c-112.9-0.2-225.9-0.2-338.8-0.4c-22.9,0-38.7-15.3-38.8-38.1c-0.3-54.9-0.2-109.8,0-164.7 c0.1-21,13.9-36.6,34.4-37.9c17.3-1.1,34.8-0.2,53.1-0.2c-0.7,4-1.4,7.6-1.8,11.2c-0.9,6.5,1.2,10.1,8.6,9.7c8-0.4,16-0.1,23.9-0.1 c65.6,0,131.3,0,196.9,0c16.3,0,16.3,0,21-15.3c0.5-1.7,1-3.3,1.7-5.5c10.7,0,21.3,0,32,0c37.5,0,75.1,0.1,112.6-0.2 c4.8,0,10-1.3,14.3-3.4c24.8-12.4,49.4-25.3,74-37.9c2.6-1.3,5.2-2.4,7.9-3.6C596.1,268.3,596.7,268.8,597.3,269.4z M294.2,510.4 c2.4,0,4.7,0,7.1,0c28.5,0,39.6-7.9,47-35.1c7.9-29.1,15.3-58.4,22.5-87.7c4.8-19.7-4.3-30.6-24.8-30.8c-9.4-0.1-18.9-0.1-28.3,0 c-19.7,0.3-33.3,10.8-38.4,30.1c-8.2,31.2-16.3,62.4-24.1,93.6c-4.5,18,4.4,29.3,23.2,29.9C283.5,510.5,288.8,510.4,294.2,510.4z M97.1,464.9c-9.2,0-18.6-0.2-27.9,0.2c-1.5,0-3.8,1.9-4.1,3.4c-1.6,6.2-3.4,12.6-3.7,18.9c-0.7,14.3,6.3,22,20.8,22.8 c8.8,0.5,17.7,0.3,26.6,0.2c23.7,0,35.3-9.2,43.3-31.3c6.7-18.7,5.1-34-11.1-47.2c-8.2-6.6-15.1-15-21.5-23.4 c-2.6-3.4-3.9-9.1-3.4-13.5c0.9-7.7,9.8-11.9,18-9.6c8.2,2.3,5.2,8.5,4.5,13.8c-0.3,2.2-0.5,4.3-0.8,7.4c9.4,0,17.9,0.2,26.4-0.1 c1.9-0.1,5.1-1.7,5.4-3.1c1.9-9.7,3.7-19.5,4.6-29.3c0.6-7.4-4.2-13.1-10.8-14.5c-18.8-4.1-38.4-6.3-56.3,2.2 c-7.5,3.5-13.6,12-17.9,19.6c-4,7.2-4.8,16.1-6.7,24.4c-2,8.7,0.7,15.9,7.1,22.4c10.1,10.3,19.6,21.2,29.5,31.8 c5.4,5.8,4.6,11.8,0.7,17.7c-3.1,4.7-14.3,6.8-19.5,3.9c-6.5-3.6-3.8-8.9-2.5-14C97.8,466.9,97.4,466.3,97.1,464.9z M232.5,357.1 c-3.1-0.2-5.2-0.4-7.2-0.4c-26.3,0.2-24.3-3.1-30.6,22.8c-8.6,35-17.4,69.9-25.7,105c-3.2,13.4,4.8,24.4,18.5,25.4 c12.6,0.9,25.4,0.5,38.1,0.4c1.8,0,4.7-1.8,5.1-3.3c2.3-7.8,3.9-15.8,6.1-24.9c-8,0-15,0.1-22,0c-9.3-0.2-12.2-3.3-10.2-12 c4.6-19.7,9.5-39.3,14.8-58.8c0.6-2.1,4.2-4.7,6.6-4.8c7.9-0.6,15.9,0,23.9-0.4c2.4-0.1,6.2-1.8,6.8-3.6c2.6-7.9,4.2-16.1,6.5-25.4 c-12.2,0-23.3,0-35.2,0C229.5,369.9,230.8,364,232.5,357.1z"></path> <path style="fill:#FFFFFF;" d="M246.8,312.7c4.1-16.8,8-32.9,12-49.1c-6.2-3.6-9.1-1.5-10.5,4.4c-2.6,11.4-5.3,22.9-8.2,34.3 c-3.1,12.4-3.8,12.7-17.8,10c4.9-19.9,9.7-39.8,14.8-59.7c0.4-1.6,2.5-4.1,3.7-4c9.3,0.5,18.5,1.6,27.7,2.5c1.7,0.1,3.4-0.1,5.1-0.3 c6-0.7,12.1-2.2,18.1-1.9c6.1,0.3,8.8,5.1,7.5,10.8c-3.8,16.9-7.6,33.8-12.7,50.3c-0.9,2.8-8.9,3.3-15.7,5.5 c4.7-19.2,8.6-35.3,12.6-51.6c-7.5-4.5-9.4,0.8-10.7,5.6c-2.9,10.8-5.2,21.7-7.9,32.6C261.7,314.3,261.6,314.2,246.8,312.7z"></path> <path style="fill:#FFFFFF;" d="M140.7,312.3c-4.1,12.8-4.1,12.8-18.4,10.7c6.2-24.7,12.3-49.4,18.5-74.5c9.5,0,18.3-0.4,27.1,0.1 c7.8,0.4,11.1,5.1,9.4,12.7c-3.1,13.4-6.3,26.8-10,40.1C164.5,311.8,156.4,314.9,140.7,312.3z M161.6,263.7 c-8.7-2.6-8.7-2.6-10.5,4.1c-2.1,8.2-4.4,16.4-6.1,24.7c-0.5,2.3,1.1,5,1.7,7.6c2.3-1.7,6-3,6.7-5.2 C156.6,284.6,159,274.1,161.6,263.7z"></path> <path style="fill:#FFFFFF;" d="M229.3,248.5c-5.6,22.3-10.8,43.4-16.2,65c-9.5,0-18.6,0.3-27.7-0.1c-7.4-0.4-10.5-5.3-9-12.2 c3-13.5,6.4-26.9,10-40.2c2-7.7,7.5-12,15.4-12.4C210.4,248.2,219,248.5,229.3,248.5z M210.1,263.6c-1.1-0.9-2.2-1.8-3.2-2.7 c-2.4,2.4-6,4.3-6.9,7.2c-2.9,8.6-4.9,17.4-6.9,26.3c-0.4,1.7,1.3,3.8,2.1,5.7c2.2-0.9,6-1.3,6.4-2.7 C204.7,286.2,207.3,274.9,210.1,263.6z"></path> <path style="fill:#FFFFFF;" d="M341.4,285.9c-9.4,7.3-24.7-5.8-27.7,14.4c8.5-2.7,15.9-5.1,24-7.7c0.1,14.3-5.6,20.4-17.7,20.9 c-22.8,0.9-24.8-1.7-19.1-23.9c2.3-8.8,4-17.7,6.6-26.4c3.9-13.4,24.9-21,36.2-12.7c2.5,1.8,3.9,7.3,3.4,10.7 C345.8,270.1,343.1,278.8,341.4,285.9z M331.6,263.3c-9.4-1.5-11.2,0.6-10.6,11.5C331.7,277.8,329.8,269.3,331.6,263.3z"></path> <path style="fill:#FFFFFF;" d="M613.2,611.7c-6.4,6.8-11.6,12.4-17.1,17.8c-1.2,1.1-4.8,1.8-5.3,1.2c-4.3-5.9-8.2-12.1-12.7-19 C590.8,611.7,601.5,611.7,613.2,611.7z"></path> <path style="fill:#FFFFFF;" d="M866.9,481.7c-15.5-0.1-17.2-2.6-13.7-16.4c5.6-22.1,10.8-44.4,16.3-66.6 c2.8-11.1,7.8-14.7,18.9-13.9c7.8,0.5,10.5,3.8,8.6,11.6c-5.6,23.3-11.5,46.6-17.2,69.9c-0.4,1.7-1.2,3.4-1.3,5.1 C878.1,479.9,874.2,483.8,866.9,481.7z"></path> <path style="fill:#FFFFFF;" d="M624.5,680.1c-0.1-11.8,4.6-20.3,12.7-23c9.6-3.2,21.1,1.3,28.1,11c3.2,4.4,3.7,28.1,0.7,32 c-5.1,6.7-17.3,8.9-26.8,5C630.3,701.4,624.5,691.7,624.5,680.1z"></path> <path style="fill:#FFFFFF;" d="M325.2,657.6c6.3,0,11.9-0.4,17.3,0.1c6.7,0.7,10.6,8.4,9.8,18.1c-0.6,6.5-5.7,6.7-10.3,7 c-18,1.3-18,1.2-17.4-16.6C324.7,663.6,324.9,661,325.2,657.6z"></path> <path style="fill:#FFFFFF;" d="M300.9,482.4c-10-0.1-12.8-3.6-10.5-13.1c6.1-24.2,12.1-48.4,18.3-72.5c2.7-10.3,13.2-15.6,22.6-10.8 c2.6,1.3,5.2,6.9,4.5,9.8c-6,25.7-12.6,51.3-19.3,76.8C314.6,480.5,308.4,482.7,300.9,482.4z"></path> </svg> 