<?xml version="1.0" encoding="UTF-8"?> <svg xmlns="http://www.w3.org/2000/svg" xmlns:xlink="http://www.w3.org/1999/xlink" version="1.1" id="Layer_1" x="0px" y="0px" viewBox="0 0 1000 1000" style="enable-background:new 0 0 1000 1000;" xml:space="preserve"> <path style="fill:#FFFFFF;" d="M972.3,338c-7.1,6.8-14.1,13.7-21.5,20.3c-8,7.2-16.2,14-24.3,21c-18.9,16.5-37.7,33-56.5,49.5 c-14,12.2-28.1,24.4-42.2,36.6c-2.8,2.4-3.5,4.9-1.3,8.2c13.3,20.4,26.5,40.8,39.7,61.3c13.8,21.5,27.5,42.9,40.8,64.6 c2,3.3,2.2,8.2,1.9,12.3c-0.1,1.8-3.4,3.5-5.3,5.2c-45.4,0-90.9,0-136.3,0c-7.4-6-10.4-14.9-15-22.7c-10.8-18.2-21.2-36.6-31.7-54.9 c-2-3.5-4-3.4-6.5-0.6c-1.4,1.6-3.1,3-4.6,4.5c-15.1,13.5-30.1,27.1-45.2,40.6C652,595,639.5,606,627.1,617c-45.8,0-91.5,0-137.3,0 c-6.9-4.9-7.6-11-1.4-17.6c3.4-3.6,7.2-6.8,10.9-10c12.8-10.9,25.6-21.8,38.5-32.6c5.6-4.7,11.4-9.3,17-14c0.8-0.7,0.8-2.3,1.2-3.4 c-1-0.3-2-0.9-3-0.8c-6.7,0.4-13.1-0.1-18.6-4.9c-0.8-0.7-3.4-0.1-4.8,0.6c-8.8,4.1-18,6.9-27.7,6.1c-9.2-0.7-18.4-2.4-25.3-9.6 c-3.5-3.6-6.1-3.7-10.7-0.4c-14.8,10.6-31.5,12.5-49,7.3c-2-0.6-4.4-0.2-6.5,0c-1.6,0.1-3.2,0.9-4.8,0.8c-9.4-0.5-18.7-0.8-28-1.8 c-2.5-0.3-4.7-2.6-7.7-4.4c-5.9,7.4-14.7,6.3-23.3,6.3c-24.2,0-48.4,0-72.6,0c-11.2,0-17.7-8.1-15-18.5c1.2-4.6,2.8-9.2,4.1-13.7 c0.2-0.8,0.5-1.6,0.7-2.4c1.1-5-0.4-5.4-5.3-5.3c-6.7,0.2-7.9,4.3-9.3,9.1c-1.7,6.2-3.5,12.3-5.3,18.5c-2.2,7.6-8.1,12.2-16,12.3 c-4.6,0-9.3,0-13.9,0c-10.6,0-12-0.6-19.4-8.7c-5.5,9.8-14.8,8.9-23.9,8.7c-8.8-0.2-18.6,2.2-23.9-8.1c-3.7,2.3-7.1,5.6-11.1,6.6 c-10.8,2.7-22.4,3.7-32.4-1.2c-5.2-2.6-7.6-3.6-12,0.4c-2,1.8-5.9,2.1-9,2.2c-6.3,0.3-12.6,0.3-18.9,0c-10.3-0.4-16.1-9.5-13.1-19.2 c5.9-19.3,11.4-38.8,17.1-58.1c4.3-14.7,8.8-29.3,12.9-44c1.6-5.8,5.4-9.9,10.8-10.2c9.6-0.6,19.4,0,29,1c2.8,0.3,5.3,3.5,8.6,5.7 c6.3-9.1,16.5-7.5,26.2-7.5c9.3,0,18.6,0,27.9,0c7,0,12.5,2.2,15.6,9c1.2,2.7,3.3,2.6,4.8,0c4.1-7.2,10.7-9.1,18.4-9.1 c16.9,0.1,33.8-0.2,50.7,0.2c6,0.1,12,1.8,18,2.5c1.9,0.2,3.9,0,5.9-0.4c3.4-0.6,6.7-2.1,10.1-2.1c33.7-0.2,67.3-0.2,101,0 c8.5,0,16.6,1.9,23.7,7.3c1,0.8,3.8,0.6,5-0.3c10-6.7,21.1-9.6,32.9-8.8c10.1,0.7,20.1,2.6,26.8,11.6c1.7,2.2,3.4,2.1,5.9,0.3 c10.4-7.6,22-12.1,35-12c8.4,0,16.5,2,23.4,7c2.6,1.9,4.1,1.6,6.4-0.5c1.7-1.6,4.2-3.2,6.4-3.3c9-0.5,18.2-1.4,27-0.3 c3.9,0.5,7.4,5.1,11.6,8.3c3.1-1.6,3.8-3.1,1.3-7.3c-7.5-12.4-15.3-24.6-23-36.9c-5.9-9.5-12.5-18.6-17.7-28.5 c-2-3.8-2.3-9.4-1.1-13.5c1.1-4.1,6.3-4,10.4-4c40.3,0,80.6,0.1,120.9-0.1c6.6,0,10.9,1.9,14.1,8.3c10.3,20.8,21.2,41.2,31.9,61.8 c0.4,0.7,0.8,1.4,1.1,2.2c1.9,4.4,3,4.9,6.6,1.6c5.4-4.9,10.4-10.1,15.6-15.2c8.4-8.2,16.8-16.3,25.2-24.5 c9.9-9.7,19.8-19.4,29.6-29.2c3.4-3.4,7-4.9,11.9-4.9c40.5,0.1,80.9,0.1,121.4,0c5.2,0,9.8,1.2,12.9,5.7 C972.3,333.4,972.3,335.7,972.3,338z M371.5,511.8c0.7,0.1,1.3,0.3,2,0.4c0,3.7-0.2,7.5,0.1,11.2c0.3,4.4,1.9,8.8,6.8,9.1 c9.6,0.6,19.4,0.8,28.9-0.1c3.5-0.3,6.5-0.4,9.8,0.4c3.7,0.9,7.4,1.9,11.1,2.2c13.3,1,25.6-1.7,36-10.7c2-1.7,3.9-5,5.8-4.9 c1.8,0,3.7,3.3,5.4,5.3c9.5,11.1,24.8,12.6,40.5,8.9c6.4-1.5,12.3-5.3,18.7-8.1c0.6,6,5.2,7.9,10.7,8.1c6.2,0.2,12.5,0.1,18.7-0.3 c5.1-0.3,7.7-3.7,9-8.5c1.6-6,3.6-11.9,5.4-17.8c0.4,0,0.9,0,1.3,0.1c1.1,5.4,2,10.8,3.3,16.1c0.7,3.1,0.2,5.1-2.4,7.3 c-30.1,25.5-60,51.2-89.9,76.9c-0.9,0.8-1.4,2.2-2,3.4c1.3,0.5,2.5,1.6,3.8,1.6c42.3,0.1,84.6,0.1,126.8-0.1c2.4,0,5.3-1.1,7.1-2.7 c9.2-7.8,18.2-15.8,27.1-23.9c20.2-18.3,40.3-36.7,60.4-55.1c3.2-2.9,4.6-2.3,6.6,1.3c6.4,11.7,13.1,23.3,19.8,34.8 c7.7,13.3,15.8,26.3,23.1,39.8c2.4,4.6,5,6,9.9,6c40.8-0.2,81.6-0.1,122.4-0.1c1.5,0,3.1,0.3,4.5-0.2c2.3-0.7,3.2-2,1.4-4.4 c-3.3-4.4-6.6-9-9.6-13.6c-12.2-19-24.3-38-36.4-57c-12.4-19.4-25-38.8-37.4-58.2c-2.2-3.4-4.1-6.9-5.9-9.9c2.8-1.8,5.1-3,7.1-4.5 c2.7-2.1,5.2-4.5,7.9-6.8c19-16.4,38-32.7,56.9-49.2c15.8-13.8,31.5-27.7,47.3-41.5c10.1-8.8,20.2-17.5,30.2-26.4 c1.3-1.2,2.4-3.3,2.3-4.9c-0.1-0.9-2.7-1.7-4.3-2.4c-0.9-0.4-2-0.3-2.9-0.3c-17.8-0.1-35.6-0.3-53.4-0.4 c-21.3-0.1-42.5-0.1-63.8,0.1c-2.3,0-5.1,0.9-6.7,2.5c-15,14.2-29.8,28.6-44.6,42.9c-12.3,12-24.6,24-36.9,36 c-2.2,2.1-3.9,1.9-5.4-1c-13.2-25.5-26.5-51.1-39.9-76.5c-0.9-1.7-3.7-3.2-5.8-3.5c-4.2-0.5-8.6-0.2-12.9-0.2c-14.2,0-28.4,0-42.5,0 c-10.7,0-21.4-0.1-32.2-0.1c-10.7,0-21.4-0.2-32.1,0.1c-7,0.2-8.4,3.9-4.6,9.8c5.1,7.7,10,15.5,15,23.3 c8.8,13.8,17.4,27.6,26.3,41.3c1.7,2.7,2.4,4.6-0.1,7.4c-1.7,1.8-2.5,4.6-3.3,7c-1.9,5.8-3.6,11.7-5.7,18.9 c-1.1-4.1-1.9-6.6-2.4-9.1c-0.5-2.8-0.5-5.6-1-8.4c-1.5-9-4.9-11.8-14-11.9c-3.3,0-6.6,0-9.9,0c-12.4,0.2-14.5,2.1-16,11.2 c0,0.3-0.4,0.5-1.1,1.3c-8.2-12.2-20.3-14.9-33.8-14c-13.8,0.9-24.6,7.7-34.9,17.5c-5.7-13.9-16.6-17.5-30.1-17.7 c-13.1-0.1-24.1,4.5-33.7,12.4c-3.4-2.6-6-5.8-9.4-7c-5.5-1.9-11.5-3.4-17.3-3.5c-13.7-0.3-27.5,0.5-41.2,0.5 c-17.4,0-34.8-0.4-52.2-0.6c-6.7-0.1-13.9-1.4-17.5,4.5c-6.4-1.7-11.7-4.2-17.1-4.4c-19.6-0.5-39.1-0.2-58.7-0.2 c-5.3,0-9.4,2-12.3,6.9c-2.7,4.5-6.1,8.5-9.3,12.7c-1.5-2.9-1.8-5.2-2.1-7.4c-1.2-8.8-4.9-12.1-13.7-12.2c-12.4,0-24.9,0-37.3,0 c-8,0-11.4,3.1-13.3,10.6c-1.9,7.5-4.5,14.8-6.5,22.3c-1.1,4.4-3.5,4.5-7.9,3.1c2.1-7.6,4-15.2,6.2-22.7c2-6.7-0.6-12.2-7.7-12.8 c-7.7-0.6-15.6-0.4-23.2,0.6c-2.6,0.3-5.7,3.4-7,6c-2.2,4.5-3.2,9.6-4.6,14.5c-5.2,17.7-10.3,35.4-15.5,53 c-3.3,11.2-6.9,22.3-10,33.6c-2.6,9.3,1.8,14.6,11.6,14.5c4.8-0.1,9.5,0.3,14.2-0.2c6.5-0.7,10.1,0,12.2-8 c2.6-9.8,5.9-19.5,8.7-29.3c1.5-5.3,2.6-6,8.3-4.6c0,0.9,0.1,1.9-0.2,2.8c-2.6,9-5.3,18.1-8,27.1c-1.8,5.9,0.4,10.8,6.5,11.3 c8.4,0.7,17,0.6,25.4-0.1c2.4-0.2,5.7-3.2,6.6-5.6c3-8,5.1-16.3,7.4-24.5c3.3-11.4,6.4-22.8,9.7-34.1c0.4-1.4,1.4-2.6,2.5-4.6 c1.1,5.9,2,10.9,2.8,15.9c0.2,1.2-0.3,2.6-0.7,3.8c-3.9,13.1-8,26.1-11.8,39.3c-1.2,4.2,2,9.5,6.5,9.8c8,0.6,16,0.5,24,0.6 c5.2,0,7.9-2.9,9.3-7.9c2.7-9.8,6.3-19.4,8.5-29.4c2.2-10.3,8.2-17.9,15.2-25.3c0.1,2-0.1,3.8-0.7,5.6c-4.5,15.3-9.2,30.6-13.5,45.9 c-1.7,5.9,1.4,10.4,7.4,10.9c7.2,0.6,14.4,0.9,21.6,0.6c4.4-0.2,8.1-2.3,9.5-7.3c2-7.3,4.2-14.5,6.6-21.7c1.2-3.6,2.4-9.3,4.8-10 c6.9-2,14.4-2,22-2.9c-0.1,1.1,0.1,2.4-0.3,3.6c-2.6,8.7-5.5,17.3-7.8,26c-0.6,2.1-0.1,4.8,0.8,6.9c2.1,5.3,7.1,5.3,11.7,5.4 c12,0.1,24,0,36,0c14.6,0,29.2,0,43.8,0c6.3,0,9.7-2.9,11.3-9C368.7,520.3,370.2,516.1,371.5,511.8z"></path> <path style="fill:#FFFFFF;" d="M296.7,426.8c5.1-12.2,2.6-9.9,16-10c32-0.1,64-0.3,95.9,0c12.9,0.1,17.2,2.8,21.5,15.6 c1.5-1.3,2.9-2.3,3.9-3.6c10.7-13.5,30.6-17,45.2-12.3c8.6,2.8,13,9.6,12.7,18.5c0,1.1,0,2.3,0,4.9c2.2-2,3.6-3.1,4.7-4.4 c9.1-11.1,20-19.1,34.8-20.7c14.3-1.5,25.1,3.2,30.5,13.7c1.7,3.3,2.5,7.1,4.3,12.1c2.2-7,4.4-12.7,5.8-18.5c1-4.1,3.1-5.4,7-5.3 c5,0.1,9.9-0.1,14.9-0.1c3.5,0,5.8,0.9,6.5,5.1c1.8,11.6,4.1,23.1,6.2,34.6c0.3,1.6,0.7,3.2,1.4,6.2c1.5-2.3,2.7-3.4,3-4.7 c3.4-12,6.8-24.1,10.1-36.1c0.9-3.3,2.8-5.2,6.3-5c6.9,0.3,13.9,0.8,20.8,0.8c7.4,0,14.8-0.6,22.3-0.7c7.2-0.1,7.9,1,6,7.7 c-1.5,5.2-3,10.4-3.9,15.9c4.5-4.7,8.6-9.9,13.5-14.1c12.2-10.6,26.2-14.3,42-9.5c9.1,2.8,13,10,14.3,18.5 c2.6,16.8,1.2,18.4-16.7,22.9c-1.4,0.4-2.9,0.6-4.4,0.9c-3.7,0.6-6.3-0.1-6-4.7c0.2-3.7-0.5-7.9-4.2-8.6c-2.9-0.5-7.5,0.7-9.2,2.9 c-4.5,5.7-8.8,12-11.5,18.7c-2.9,7.3-4,15.3-5.5,23c-0.7,3.6-0.2,7.8,3.8,8.6c2.9,0.6,7.3-0.5,9.3-2.5c3.9-3.8,7.1-8.6,9.8-13.5 c1.9-3.4,3.9-4.3,7.1-2.7c4.5,2.1,8.9,4.4,13.3,6.7c2.7,1.4,4.1,3.5,2.7,6.5c-6.5,13.6-14.7,26.1-28.8,32.8 c-10.7,5.2-22.2,5.2-33.2,0.7c-6.5-2.6-9.9-8.5-11.6-15.2c-0.8-3.3-1.5-6.6-3.5-10.1c-1.9,6.1-3.9,12.1-5.6,18.2 c-2.1,7.8-2,8-9.9,7.8c-6.7-0.2-13.5-1-20.2-1c-6.7,0-13.5,0.4-20.2,1.1c-5.3,0.5-7.3-1.8-8-6.8c-1.7-10.9-3.8-21.8-5.8-32.7 c-0.2-1.4-0.7-2.7-1.5-5.5c-1.4,2.9-2.5,4.5-3,6.3c-3.4,11.4-6.5,22.9-10.1,34.2c-0.6,1.9-3.5,4-5.5,4.2c-5.7,0.6-11.6,0.1-17.4,0.2 c-4,0.1-5-2-4.1-5.4c1-3.7,2.1-7.3,3.2-10.9c0.4-1.3,0.7-2.6,1.3-5c-5.9,5.5-10.5,10.4-15.8,14.5c-12,9.2-25.4,11-39.8,6.7 c-7.1-2.1-11.2-7.2-13.8-13.8c-0.8-2.1-1.7-4.2-2.8-6.9c-8,9.8-15.8,18.9-28.3,21.4c-12,2.4-23.7,3-34.4-5.4c-2,4.6-5.7,5.1-9.8,4.9 c-5.3-0.2-10.6,0-15.9-0.1c-6.1,0-7-0.9-7.5-7.2c-0.8-10-1.5-20.1-2.4-30.1c-0.1-1.3-0.5-2.7-2.1-4.3c-0.9,1.4-2.1,2.7-2.6,4.3 c-3.2,10.7-6.3,21.5-9.2,32.3c-0.9,3.5-2.8,5-6.3,5c-27.4,0-54.7,0-82.1-0.1c-5.2,0-6.2-1.8-4.7-6.9c4-13.2,8-26.5,12-39.7 c0.2-0.7,0-1.6,0-2.9c-1.3,0.6-2.3,0.7-2.9,1.3c-7.3,7.3-16.5,9.3-26.4,9.1c-8.1-0.2-8,0-10.2,8c-2.4,8.7-5.2,17.4-7.7,26.1 c-1.1,3.8-3.2,5.4-7.2,5.2c-5.5-0.3-10.9,0-16.4-0.1c-5.3-0.1-6.5-1.4-5.2-6.7c1.6-6.2,3.6-12.3,5.4-18.5c3.7-12.5,7.4-25,11.1-37.4 c2-6.6,4.1-13.1,5.3-20.3c-1.3,1-2.8,1.9-3.8,3.2c-8.2,10.7-17.1,21.1-24.3,32.6c-4.1,6.5-5.4,14.8-7.8,22.3 c-2.3,7.2-4.3,14.6-6.7,21.7c-0.4,1.3-2.4,3-3.7,3c-6.9,0.3-13.9,0.2-20.9,0.1c-4,0-4.1-2.7-3.3-5.5c2.5-9.1,4.2-18.5,7.9-27 c4.9-11.5,3-22.5,1-33.9c-0.8-4.9-1.4-9.8-2.3-14.6c-0.3-1.6-1.3-3-2.5-5.8c-3.1,10.3-5.8,19-8.4,27.8c-4.3,14.5-8.5,29.1-12.8,43.6 c-1.1,3.6-2.4,7.2-3.2,10.9c-0.7,3.3-2.4,4.8-5.8,4.7c-6.1-0.1-12.3,0.1-18.4-0.1c-4.9-0.1-5.8-1.8-4.3-6.6 c3.3-10.7,6.4-21.4,9.6-32.2c0.8-2.6,0.1-4.3-3-4.1c-0.2,0-0.3,0-0.5,0c-14.3-0.5-14.5-0.3-19.3,17.6c-2,7.3-4.5,14.5-6.5,21.8 c-0.8,2.9-2.5,3.5-5.1,3.5c-6,0-11.9,0.1-17.9,0c-4.9-0.1-6.1-1.7-4.7-6.7c2.5-8.9,5.2-17.7,7.8-26.6c5.1-17.6,10.3-35.1,15.4-52.7 c2-6.9,4.3-13.8,6.3-20.8c0.9-3.3,3.1-4.5,6.2-4.4c5.8,0,11.6,0,17.4,0.1c4.6,0.1,5.8,1.8,4.5,6.2c-2.4,8.2-5,16.4-7.3,24.7 c-1.4,5.1-0.8,5.9,4.4,6c13.6,0.3,13.4,0.3,16.5-12.9c1.5-6.6,3.8-13,5.6-19.5c1-3.4,3.1-4.6,6.6-4.6c13.1,0.1,26.2,0,39.3-0.1 c4.2,0,6.4,1.7,6.7,6c0.5,6.1,1.3,12.1,2.2,18.2c0.2,1.2,1.2,2.4,1.8,3.5c0.9-0.8,2.1-1.4,2.8-2.4c5.2-7.2,10.2-14.7,15.7-21.6 c1.5-1.9,4.6-3.4,7-3.4c19.4-0.3,38.8-0.2,58.2-0.2c6.8,0,12.7,1.9,16.4,8.2c0.3,0.5,0.9,1,1.4,1.4 C295.7,426.5,296,426.5,296.7,426.8z M161.4,423.3c0.7,0,1.4,0.1,2.1,0.1c1,3,2.4,5.9,3.1,9c2.3,11.1,4.6,22.3,6.5,33.5 c1,5.6,2.5,11.7,1.4,17c-2.2,10.4-6.3,20.4-9.2,30.7c-2.9,10-3.6,9.1,7,9.1c1.2,0,2.3-0.1,3.5,0c2.6,0.3,4.3-0.5,5.1-3.3 c2-7.3,4.2-14.5,6.5-21.7c2.2-6.8,3.5-14.4,7.4-20.1c10.2-14.9,21.7-29,32.7-43.4c2.7-3.5,5.6-6.9,8.5-10.3 c4.5,3.8,2.2,7.3,1.3,10.3c-7.3,24.9-14.7,49.6-22.1,74.5c-1.3,4.4-2.3,8.8-3.6,14c4.2,0,7.7-0.4,11.1,0.1c5.3,0.7,7-2.4,8.1-6.5 c1.9-6.6,3.4-13.4,5.6-19.9c4.2-12.5,4.4-12.3,17.8-12.8c13.3-0.5,23.4-6.7,28.8-19.1c4-9.2,8.4-18.2,8.2-28.8 c-0.2-10.9-6.6-13.3-13.6-13.4c-18.2-0.2-36.4,0-54.7-0.1c-4,0-6.4,1.6-8.6,4.7c-5.9,8.6-11.9,17.1-18.1,25.4 c-1.3,1.7-3.8,2.6-5.7,3.8c-0.9-2-2.3-3.9-2.6-5.9c-1.2-7.8-2-15.7-2.9-23.6c-0.3-3.1-1.4-4.6-5-4.5c-10.6,0.3-21.2,0.4-31.8,0.1 c-4.2-0.1-6,1.7-7,5.3c-2.4,8.4-5.1,16.7-7.1,25.2c-1.2,5-4.1,7-8.7,7.1c-5.8,0.1-11.6-0.1-17.4-0.5c-3.9-0.2-5.6-2.4-4.6-6.4 c0.4-1.4,0.7-2.9,1.2-4.3c2.3-7.7,4.8-15.4,6.9-23.2c0.2-0.9-1.4-3.3-2.3-3.4c-3.6-0.3-7.3-0.2-10.9,0.3c-1.4,0.2-3.1,1.8-3.6,3.2 c-2.5,7.5-4.7,15.1-6.9,22.7c-5,16.8-10,33.5-14.9,50.3c-2.3,7.7-4.4,15.4-6.8,24.1c4.5,0,8.1-0.4,11.6,0.1c4.8,0.6,6.5-2.1,7.6-5.9 c2.6-9.4,5-18.8,7.6-28.2c2.5-8.8,2.8-8.9,11.9-9c4.8,0,9.6,0.1,14.4-0.2c5.8-0.4,7.1,1.6,5.2,7.3c-3.9,11.5-7.3,23.1-11.2,35.9 c5.6,0,10-0.1,14.4,0c2.6,0.1,3.6-0.8,4.3-3.4c4.8-17.5,9.8-34.9,14.9-52.3c3.5-12.2,7.2-24.3,11-36.4 C158.7,428,160.2,425.7,161.4,423.3z M466.8,421.1c-22.3-2.2-37.6,17.4-38.8,35.3c-0.6,8.9,2,16.3,10.7,20.4c5,2.4,10,4.9,15.2,6.9 c3.8,1.4,4.5,4.4,4.3,7.5c-0.2,2.9-1.1,5.9-2.5,8.5c-3.6,7-10.7,10.9-17.1,9c-7.1-2-8.7-7.8-8.7-14.4c0-0.9-1.1-2.6-1.5-2.6 c-4.7,0.4-9.5,1-14.2,1.8c-0.6,0.1-1.2,2-1.2,3c0.3,6.2,0.1,12.6,1.4,18.6c0.6,2.8,3.9,6.2,6.7,7.2c11.4,4.2,22.7,3.6,33.2-3 c9.4-5.8,16.1-13.9,19.3-24.7c0.5-1.7,3-2.8,4.5-4.2c0.8,1.8,2,3.5,2.3,5.4c0.9,5,1,10.2,2.1,15.1c0.9,4.2,2.8,7.7,7.1,10.1 c9.9,5.5,19.9,4.9,29.5,0.6c15.3-6.9,25-19,30-34.9c1.1-3.6,2.4-7.2,3.7-10.7c4-10.7,7-21.7,6.7-33.2c-0.2-10.3-5-19.3-13-20.7 c-7.4-1.3-15.8-1.4-22.9,0.6c-16.2,4.7-25.6,17.4-32.2,32.2c-2.9,6.6-4.7,13.7-7.4,20.4c-0.8,1.9-2.7,3.4-4,5.1c-1-1.7-2.6-3.2-3-5 c-1.5-6.5-5.2-11-11.1-13.7c-4.2-2-8.5-3.6-12.8-5.4c-4.1-1.8-8.1-4.1-8-9.1c0.1-5.3,4-8.7,8.2-11c6.7-3.7,13.4-0.2,15.5,7.5 c0.3,1.3,1.5,3.3,2.3,3.3c4.4,0.2,9.1,0.5,13.2-0.8c1.3-0.4,1.2-5.4,1.8-8.3c0.1-0.6,0.1-1.3,0.2-2c0.4-7.9-4.3-13.8-12.2-14.8 C471.8,420.9,469.3,421.1,466.8,421.1z M548.5,522.7c5.1,0,8.9,0.3,12.6-0.1c1.4-0.2,3.6-1.6,4-2.9c3.3-11.2,6.2-22.5,9.3-33.8 c1.6-5.7,3-11.5,5-17.1c0.6-1.5,2.9-2.8,4.7-3.4c0.5-0.2,2.4,2.3,2.9,3.8c1,3.4,1.6,7,2.2,10.6c1.7,10.6,3.3,21.2,5.2,31.7 c0.7,3.8,1,9.2,3.4,10.7c2.9,1.9,8,0.5,12.1,0.5c0.2,0,0.4,0.1,0.5,0c1.3-1,3.2-1.8,3.7-3.1c1.7-5,3-10.1,4.4-15.2 c2.7-9.9,5-19.8,8-29.6c4.9-16.3,10.1-32.5,15.2-48.7c0.9-3,0.2-4.4-3.2-4.1c-2.5,0.2-5,0.4-7.4,0.2c-3.3-0.3-4.8,1.4-5.6,4.3 c-4.1,14.6-8.1,29.2-12.2,43.8c-0.6,2.2-1.2,4.6-2.4,6.5c-0.7,1.2-2.6,2.1-4,2.1c-0.7,0-2-2-2.2-3.2c-2.4-13.5-4.9-27-6.9-40.5 c-1.9-13.2-1.6-13.2-14.9-12.9c-0.7,0-1.5-0.2-2,0.1c-1.4,1-3,1.9-3.8,3.3c-1.1,1.8-1.5,4-2.1,6c-6.8,23.1-13.6,46.2-20.3,69.4 C552.3,508.1,550.6,515.1,548.5,522.7z M339.5,522.7c5.4,0,10.4,0.1,15.3-0.1c1-0.1,2.5-1.4,2.8-2.5c3.4-11.2,6.5-22.5,9.8-33.7 c2-7,4.8-8.4,11-4.5c2.2,1.4,4.1,4.9,4.4,7.6c1,9.8,1.1,19.7,1.9,29.5c0.1,1.3,2.1,3.3,3.4,3.5c3.6,0.5,7.3,0.2,10.9,0.2 c6.9,0,6.9-0.1,5.2-6.8c-0.2-0.8-0.2-1.6-0.2-2.5c-0.2-5.9-0.1-11.9-0.7-17.8c-0.5-5-1.5-10-5.8-13.7c-3.2-2.7-2.3-6,1.8-6.8 c6.2-1.3,10.5-5.2,14.3-9.8c6.5-7.9,9.4-17.6,10.4-27.3c1.1-10.8-3-14.8-11.4-15.1c-13.6-0.5-27.1-0.6-40.7-0.4 c-1.5,0-3.7,2.6-4.4,4.5c-2.1,5.9-3.5,12-5.3,18c-5.9,19.8-11.8,39.5-17.7,59.3C342.7,510.2,341.3,516.2,339.5,522.7z M274.9,522.4 c2.6,0.2,4,0.3,5.5,0.3c14.9,0,29.8-0.1,44.7,0.1c4.9,0.1,8.1-0.8,7.8-6.7c-0.1-2,1.2-4.1,1.9-6.1c1.9-5.5,1.6-5.9-4.1-5.9 c-8.3,0-16.6,0.1-24.8-0.1c-6.4-0.1-7.8-1.8-6.2-8c1.2-4.8,3.5-9.2,4.8-14c1-3.7,3.2-4.7,6.5-4.7c6.5,0,12.9,0,19.4,0 c10.2,0,10.2,0,12.7-9.7c0.2-0.6,0.4-1.3,0.7-1.9c1.9-3.7,0.8-4.4-3.2-4.3c-8.2,0.2-16.5,0-24.8-0.3c-4.7-0.1-5.3-3.1-4.1-6.9 c1-3.1,2.6-6.1,3.5-9.3c1.2-4.5,4.1-5.3,8.2-5.2c8.8,0.2,17.6-0.1,26.4,0.1c3.6,0.1,6-0.3,6.1-4.9c0.1-2.5,1.4-5.1,2.2-7.6 c1.5-5,1.2-5.3-4-5.3c-14.7,0.1-29.5,0.3-44.2,0c-4.1-0.1-5.8,1.8-6.8,4.9c-1.2,3.4-2,7-3.1,10.5c-4.6,15.9-9,31.7-13.7,47.6 C282.6,497.3,278.8,509.4,274.9,522.4z M716.7,420.9c-14.7-0.7-25.2,6.3-33.9,16.4c-9.6,11.2-14.5,24.6-17.9,38.7 c-2.5,10.3-4.9,20.4-2.8,31.2c2.3,11.8,8.5,17.4,20.5,17.8c20.2,0.6,34.1-14.1,41.1-30.1c0.4-1,0-3-0.8-3.8 c-4.1-4.3-10.1-3.6-13.5,1.1c-1.9,2.7-4.1,5.2-6.2,7.7c-0.8,1-1.9,1.9-3,2.6c-4.8,2.9-9.9,4.5-15,1.4c-5.5-3.3-7.4-9.3-6.4-15.1 c1.5-8.5,3.9-17,7-25.1c3.5-9.2,8-18.1,17.9-22.5c5.6-2.5,15.8-0.6,16.3,7.8c0.3,4.2,2.2,5.5,6.3,3.4c2.3-1.2,5.3-1.2,7.5-2.5 c1.7-1,3.7-3.1,3.9-4.9C739.1,429.5,731.4,420.9,716.7,420.9z M624.6,522.7c5.3,0,9.6,0.4,13.8-0.2c1.8-0.3,4-2.3,4.8-4 c1.4-3.1,1.9-6.6,2.7-9.9c3.1-11.9,5.8-24,9.3-35.8c4.6-15.6,9.8-31,14.8-46.5c0.7-2.2,1-4.2-2-4.3c-4-0.1-7.9,0.1-11.9,0.6 c-1.2,0.1-2.7,1.5-3.1,2.7c-2.5,7.8-4.7,15.8-7.1,23.7c-5.1,17.4-10.2,34.8-15.3,52.2C628.8,508,626.8,514.9,624.6,522.7z M422,464.9c-5.5,4.8-10.3,9-15,13.3c-3,2.7-0.4,5.2,0.3,7.7c0.7,2.7,2.4,2.1,4.6,1.6c4.4-0.9,8.9-1.1,13.3-1.4 c10.6-0.6,10.6-0.6,10.6,9.8c0,0.7,0,1.3,0.1,2c0.6,4,2.8,5.8,6.9,5.2c4-0.6,8.7-5.2,9.3-9.3c0.7-4.9-2.9-6.5-6.5-7.9 C435.2,481.8,425.3,477.2,422,464.9z M322.7,498.1C322.7,498.1,322.7,498.1,322.7,498.1c4.3,0.1,8.6,0.3,12.9,0 c1.9-0.1,4.9-0.8,5.4-2c1.5-3.9,2-8.2,2.8-12.4c0-0.1-2.2-0.8-3.5-0.8c-6.6-0.1-13.3,0-19.9,0c-11.3,0-11.3,0-14.2,11 c0,0.2-0.1,0.3-0.2,0.5c-1.1,2.7,0.3,3.7,2.7,3.7C313.4,498.1,318.1,498.1,322.7,498.1z M356.2,444.8c-11.8,0-22.2-0.3-32.5,0.1 c-4.8,0.2-4.7,5.1-5.1,8.4c-0.5,3.8,3,2.6,5,2.6c9.5,0.1,19,0.1,29.3,0.1C353.8,453.1,354.9,449.5,356.2,444.8z M465,453.7 c1,0.8,1.8,1.6,2.7,2.2c2.2,1.5,4.6,2.6,6.6,4.3c6.5,5.2,6.5,5.2,9.8-2.7c0.2-0.5,0.5-0.9,0.6-1.4c0.9-3,0.1-4.3-3.4-3.9 C476.2,453,470.9,453.3,465,453.7z M463.8,453.8c0-3.5,0.6-6.4-0.2-9c-0.5-1.8-3.3-4.4-4.3-4.1c-2.7,0.8-5.2,2.8-7.3,4.8 c-0.4,0.4,1.1,3.9,2.4,4.7C457.1,451.8,460.4,452.6,463.8,453.8z"></path> <path style="fill:#FFFFFF;" d="M690.5,496.8c-3.6-17.1,8.4-44.9,19.8-47.4c0.1,2,0.3,3.8,0.4,5.7c0.3,5.2,4.5,9.6,9.4,8.4 c8-1.9,15.8-4.7,23.5-7.5c1.4-0.5,3.3-2.6,3.3-3.8c-0.3-4.6,2.4-6.6,5.5-9.6c17.4-16.9,34.3-34.4,51.5-51.5 c12.6-12.6,25.3-25,38.1-37.3c1.5-1.4,4.2-2,6.4-2c16.2-0.3,32.4-0.3,48.6-0.6c6-0.1,11.9-0.6,18.4,0.3c-5.2,4.6-10.3,9.2-15.5,13.8 c-22.8,20.1-45.5,40.2-68.3,60.3c-13,11.5-26,22.9-39,34.3c-5.6,5-6,7.1-1.9,13.5c10.2,15.9,20.6,31.7,30.9,47.6 c5,7.7,9.7,15.6,14.8,23.2c9.2,13.8,18.5,27.4,27.8,41.1c1.2,1.7,2.3,3.5,3.9,6.1c-2,0.3-3.1,0.7-4.3,0.7c-25.5,0-51.1-0.1-76.6,0.1 c-4,0-5.6-2.1-7.2-4.9c-15.8-27.4-31.5-54.9-47.2-82.4c-0.6-1.1-0.8-2.7-0.5-3.9c0.4-1.7,1.4-3.3,2.2-5c2.7-5.5,1.8-9.4-3.6-12.5 c-5-2.9-10.2-5.5-15.4-7.9c-4.4-2-8.4,0-11.6,5.5c-1.6,2.7-2.7,5.8-4.7,8.1C696.9,491.9,694,493.9,690.5,496.8z"></path> <path style="fill:#FFFFFF;" d="M724,410c-15.3-1.2-28.5,2.2-40.5,11.3c-1.7-7.9-6.6-9.4-13.5-9.2c-16.2,0.5-16.4,0.3-25.6-12.8 c-7.8-11.2-15-22.8-22.7-34.1c-3.2-4.6-7.1-8.8-11.4-13.9c2.5-0.6,3.9-1.2,5.2-1.2c12.4,0.5,24.7,1.5,37.1,1.6 c11.7,0.1,23.4-0.5,35.2-1c3.7-0.2,5.8,0.6,7.7,4.2c8.8,17.2,18.1,34.2,27.2,51.2C723.1,407.1,723.3,408.1,724,410z"></path> <path style="fill:#FFFFFF;" d="M542.2,590.5c10.6-9.3,21.2-18.6,31.9-27.9c8.8-7.6,18-14.8,26.5-22.8c6.3-5.9,12.9-8.4,21.6-7.4 c6.7,0.8,13.5,0.1,20.3,0.1c4.1,0,6.8-1.7,8.3-5.6c0.8-2.1,1.9-4.1,3.6-7.6c5.1,8.7,12.7,12.5,22.5,14.5 c-6.8,6.2-12.7,11.3-18.4,16.6c-7.2,6.7-14.2,13.6-21.5,20.3c-6.9,6.4-13.8,12.7-21,18.7c-1.8,1.5-4.7,2.5-7.1,2.6 c-20.5,0.2-41.1,0.1-61.6,0.1c-1.6,0-3.2-0.2-4.7-0.3C542.4,591.4,542.3,590.9,542.2,590.5z"></path> <path style="fill:#FFFFFF;" d="M253.9,468.5c-8.4-0.1-10.2-2.5-7.6-10.4c1.7-5.3,3.5-10.6,5.9-15.7c0.9-1.8,3.4-3.1,5.5-4 c1.4-0.6,3.3-0.2,4.9-0.1c8.2,0.4,11.9,5.1,10.2,13.1C270.7,461.8,263.1,468.6,253.9,468.5z M253.5,460.2 c7.7,0.7,14.5-6.7,12.6-12.7c-0.4-1.3-2.4-2.7-3.9-2.9c-1.5-0.2-4.1,0.6-4.6,1.7C255.9,450.7,254.9,455.3,253.5,460.2z"></path> <path style="fill:#FFFFFF;" d="M497.9,484.9c0.3-6.8,3.8-15.5,8.1-23.8c2.5-4.9,5.2-9.9,8.7-14.2c5.8-7.2,15.4-8.8,21.6-4.5 c4.9,3.5,6.4,8.5,5.7,13.9c-1.8,14.4-5.5,28.3-14.5,39.9c-2.7,3.5-6.8,6.6-10.9,8.1C505.5,508.5,497.8,501.3,497.9,484.9z M535.6,456c0.1-4,0-7.9-4.3-9.8c-4.2-1.8-7.8,0-10.8,2.9c-1.9,1.8-3.8,3.7-5.2,5.9c-6.1,10-9.5,21-10.8,32.5 c-0.4,4.1-1.1,9.1,4,11.2c4.8,1.9,8.6-0.8,12-3.8c0.9-0.8,1.8-1.6,2.4-2.5C530,481.3,534,469.1,535.6,456z"></path> <path style="fill:#FFFFFF;" d="M384.4,466c-1.6-0.1-3.3-0.2-4.9-0.5c-3.8-0.7-5.5-3-4.3-6.7c1.9-5.9,4-11.8,6.2-17.7 c0.4-1.1,1.9-2.5,2.7-2.4c5.8,0.4,11.8,0.8,17.4,2.2c1.4,0.3,2.8,4.3,2.8,6.6C404,458,395.1,466.2,384.4,466z M381.5,458.7 c9,1.3,14.1-1.2,16.2-8c0.6-1.8,0-5.3-1.3-6.2c-3.8-2.6-9.9-1.7-11,1.2C383.9,449.9,382.9,454.2,381.5,458.7z"></path> </svg> 