<svg class="S" xmlns="http://www.w3.org/2000/svg" xml:space="preserve" id="design" x="0" y="0" enable-background="new 0 0 126 126" version="1.1" viewBox="0 0 126 126"><style>.st1{fill:#ffc98f}.st4{opacity:.2;fill:#878787}.st5{fill:red}</style><path fill="#cf2400" d="M102.4 32.2c17 21.8 13.1 53.2-8.6 70.2-21.8 17-53.2 13.1-70.2-8.7-17-21.7-13.1-53.1 8.6-70.1 21.8-17 53.2-13.1 70.2 8.6z"/><path d="M110.5 60.3zm-9.9 14c-.1.1-.2.1-.2.1s.1 0 .2-.1zm3-29.8c1.3-3.5 1-3.9.8-4.2.3-3-.1-3.6-.3-3.9-.2-.8-.5-2.4-1.4-3.5l-.9-1.2-.2-.2c-.1-.1-.1-.2-.2-.3l-.2-.2c.7.8 1.3 1.9 1.3 1.9.2.3.4.7.5.8.4 1.2.5 1.2.7 2.7.1.6.3.9.4 1 0 .9 0 .9-.2 3 0 .7.1.9.1 1l.1.1c-.1.3-.2.8-.3 1.1-.3.7-.6 1.4-.8 2.1-.2.5-.1.8-.1 1 0 0 0 .1.1.1-.6 1.2-1.4 2.2-2 3.4-.3.5-.3.8-.3 1 0 0 0 .1.1.1-.9 1.2-2 2.3-2.9 3.5-.4.5-.5.8-.5.9v.2c-1.2 1.2-2.6 2.3-3.8 3.5-.5.5-.6.8-.6.9 0 .2 0 .3.2.3H93c-1.5 1.2-3.1 2.3-4.7 3.5-.7.6-.8.9-.8 1 0 .1 0 .1.1.1-1.7 1.1-3.6 2.1-5.3 3.2-.6.4-.8.7-.9.9v.2c-1.9 1-3.8 1.8-5.7 2.8-.8.4-.9.7-1 .8v.2c-2 .8-4 1.5-5.9 2.4-.8.4-1 .6-1 .7v.2c-2 .7-4 1.2-6 1.9-.8.3-1 .5-1 .6-.1.1-.1.2 0 .2-2 .5-4 .9-6 1.4-.7.2-.9.4-1 .5-.1.1-.1.1 0 .2-2 .3-4 .5-5.9.8-.7.1-.9.3-1 .4-.1.1-.1.2 0 .2-1.9.1-3.8.1-5.7.2-.7.1-.9.2-1 .3-.1.1-.1.1 0 .2-1.8-.1-3.6-.3-5.3-.4-.6 0-.9.1-.9.2v.2c-1.6-.3-3.3-.7-4.9-1-.2 0-.6-.1-.8 0-.1.1-.1.1-.1.2-1.2-.4-2.8-1-4-1.5-.5 0-.8.1-.8.2h-.1c-1.8-1-2.8-1.6-4.2-2.8l-.2-.2c-.4-.3-.4-.1-.4 0s0 .1.1.2c0-.1 0-.1-.1-.2-1.2-1.3-1.2-1.3-2.3-2.8-.2-.3-.3-.3-.3-.3v.2-.1c-.6-1.1-.9-1.8-1.4-3.2l-.1-.3-.3-1.8v.3c0 .1 0 .3.1.4v-.1.3s.4 2.6.7 2.7v-.1c1 2.6 1.6 3.3 1.7 3.4.1.1.2.1.2 0 .7.8 1.6 1.9 2.4 2.6.3.3.7.4.7.2 1 .7 2.3 1.6 3.3 2.2.5.3.9.3.9.1V81c5.2 2.2 6.4 2.1 6.4 1.7 3.2.7 4.6.9 4.9.9.5 0 1.1-.1 1.1-.3 3.8.3 5.3.3 5.3.3.6 0 1.2-.2 1.2-.5 6.6-.2 6.9-.5 6.8-.9 6.5-.8 7.1-1.1 7.1-1.6 4.1-.9 5.5-1.3 5.9-1.4.7-.2 1.3-.6 1.2-.8 4.1-1.2 5.5-1.7 5.9-1.9.7-.3 1.2-.7 1.2-.9 6.7-2.6 7-2.9 6.9-3.4 6.5-3.1 6.7-3.5 6.5-4 6.3-3.8 6.2-4 6-4.5 5.4-4 5.3-4.2 5.1-4.6 2.7-2.4 3.5-3.3 3.6-3.4.3-.4.6-1 .5-1.2 3.4-3.9 3.2-4.2 3-4.6 1.4-4.7 1.2-5 .9-5.4z" class="st1"/><path d="M107.9 50.9c1.3-3.5 1-3.9.8-4.2.3-3-.1-3.6-.3-3.9-.2-.8-.6-2.4-1.5-3.5l-.9-1.2-.2-.2c-.1-.1-.1-.2-.2-.3l-.2-.2c.7.8 1.3 1.9 1.3 1.9.2.3.4.7.6.8.4 1.2.5 1.2.7 2.7.1.6.3.9.4 1 0 .9 0 .9-.2 3-.1.7.1.9.1 1l.1.1c-.1.3-.2.8-.3 1.1-.3.7-.6 1.4-.8 2.1-.2.5-.1.8-.1 1 0 0 0 .1.1.1-.6 1.2-1.4 2.2-2.1 3.4-.3.5-.3.8-.3 1 0 0 0 .1.1.1-1 1.2-2 2.3-3 3.5-.4.5-.5.8-.5.9v.2c-1.3 1.2-2.6 2.3-3.9 3.5-.5.5-.6.8-.7.9 0 .2 0 .3.2.3h-.2c-1.6 1.2-3.2 2.3-4.8 3.5-.7.6-.8.9-.9 1 0 .1 0 .1.1.1-1.8 1.1-3.7 2.1-5.5 3.2-.6.4-.9.7-.9.9v.2c-1.9 1-3.9 1.8-5.8 2.8-.8.4-1 .7-1 .8v.2c-2 .8-4.1 1.5-6.1 2.4-.8.4-1 .6-1 .7v.2c-2.1.7-4.2 1.2-6.2 1.9-.8.3-1 .5-1.1.6-.1.1-.1.2 0 .2-2.1.5-4.2.9-6.2 1.4-.7.2-1 .4-1.1.5-.1.1-.1.1 0 .2-2 .3-4.1.5-6.1.8-.7.1-1 .3-1.1.4-.1.1-.1.2 0 .2-2 .1-3.9.1-5.9.2-.7.1-1 .2-1 .3-.1.1-.1.1 0 .2-1.8-.1-3.7-.3-5.5-.4-.7 0-.9.1-.9.2v.2c-1.7-.3-3.4-.7-5.1-1-.2 0-.6-.1-.8 0-.1.1-.1.1-.1.2-1.3-.4-2.9-1-4.1-1.5-.5 0-.8.1-.8.2h-.1c-1.8-1-2.8-1.6-4.4-2.8l-.2-.2c-.4-.3-.5-.1-.4 0 0 .1 0 .1.1.2 0-.1 0-.1-.1-.2-1.3-1.3-1.3-1.3-2.4-2.8-.2-.3-.3-.3-.3-.3v.2-.1c-.6-1.1-.9-1.8-1.4-3.2l-.1-.3-.3-1.8v.3c0 .1 0 .3.1.4v-.1.3s.5 2.6.7 2.7V79c1.1 2.6 1.6 3.3 1.8 3.4.1.1.2.1.2 0 .7.8 1.6 1.9 2.4 2.6.3.3.7.4.7.2 1 .7 2.3 1.6 3.4 2.2.5.3.9.3.9.1v-.1c5.4 2.2 6.6 2.1 6.6 1.7 3.3.7 4.8.9 5 .9.5 0 1.1-.1 1.1-.3 3.9.3 5.5.3 5.5.3.6 0 1.2-.2 1.2-.5 6.8-.2 7.1-.5 7.1-.9 6.7-.8 7.4-1.1 7.3-1.6 4.3-.9 5.7-1.3 6.1-1.4.7-.2 1.3-.6 1.3-.8 4.3-1.2 5.7-1.7 6.1-1.9.7-.3 1.3-.7 1.2-.9 6.9-2.6 7.2-2.9 7.1-3.4 6.7-3.1 6.9-3.5 6.7-4 6.5-3.8 6.4-4 6.2-4.5 5.6-4 5.5-4.2 5.3-4.6 2.8-2.4 3.6-3.3 3.7-3.4.3-.4.6-1 .5-1.2 3.5-3.9 3.3-4.2 3.1-4.6 1.6-4.7 1.4-5 1.2-5.4z" class="st1"/><path d="M106.1 47.5c1.3-3.5 1-3.9.8-4.2.3-3-.1-3.6-.3-3.9-.2-.8-.5-2.4-1.4-3.5l-.9-1.2-.2-.2c-.1-.1-.1-.2-.2-.3l-.2-.2c.7.8 1.3 1.9 1.3 1.9.2.3.4.7.5.8.4 1.2.5 1.2.7 2.7.1.6.3.9.4 1 0 .9 0 .9-.2 3-.1.7.1.9.1 1l.1.1c-.1.3-.2.8-.3 1.1-.3.7-.6 1.4-.8 2.1-.2.5-.1.8-.1 1 0 0 0 .1.1.1-.6 1.2-1.4 2.2-2.1 3.4-.3.5-.3.8-.3 1 0 0 0 .1.1.1-1 1.2-2 2.3-3 3.5-.4.5-.5.8-.5.9v.2c-1.3 1.2-2.6 2.3-3.9 3.5-.6.3-.8.6-.8.8 0 .2 0 .3.2.3H95c-1.6 1.2-3.2 2.3-4.7 3.5-.7.6-.8.9-.8 1 0 .1 0 .1.1.1-1.8 1.1-3.6 2.1-5.4 3.2-.6.4-.9.7-.9.9v.2c-1.9 1-3.9 1.8-5.8 2.8-.8.4-1 .7-1 .8v.2c-2 .8-4 1.5-6 2.4-.8.4-1 .6-1 .7v.2c-2 .7-4.1 1.2-6.1 1.9-.8.3-1 .5-1.1.6-.1.1-.1.2 0 .2-2 .5-4.1.9-6.2 1.4-.7.2-1 .4-1.1.5-.1.1-.1.1 0 .2-2 .3-4.1.5-6.1.8-.7.1-1 .3-1 .4-.1.1-.1.2 0 .2-1.9.1-3.9.1-5.8.2-.7.1-.9.2-1 .3-.1.1-.1.1 0 .2-1.8-.1-3.6-.3-5.5-.4-.7 0-.9.1-.9.2v.2c-1.7-.3-3.4-.7-5-1-.2 0-.6-.1-.8 0-.1.1-.1.1-.1.2-1.2-.4-2.9-1-4.1-1.5-.5 0-.8.1-.8.2h-.1c-1.8-1-2.8-1.6-4.3-2.8l-.2-.2c-.4-.3-.4-.1-.4 0s0 .1.1.2c0-.1 0-.1-.1-.2-1.3-1.3-1.3-1.3-2.4-2.8-.5-.5-.6-.5-.6-.4v.2-.1c-.6-1.1-.9-1.8-1.4-3.2l-.1-.3-.4-1.9v.3c0 .1 0 .3.1.4v-.1.3s.4 2.6.7 2.7v-.1c1.1 2.6 1.6 3.3 1.8 3.4.1.1.2.1.2 0 .7.8 1.6 1.9 2.4 2.6.3.3.7.4.7.2 1 .7 2.3 1.6 3.3 2.2.5.3.9.3.9.1v-.1c5.3 2.2 6.5 2.1 6.5 1.7 3.3.7 4.7.9 5 .9.5 0 1.1-.1 1.1-.3 3.9.3 5.4.3 5.4.3.6 0 1.2-.2 1.2-.5 6.7-.2 7-.5 7-.9 6.7-.8 7.3-1.1 7.2-1.6 4.2-.9 5.6-1.3 6-1.4.7-.2 1.3-.6 1.3-.8 4.2-1.2 5.6-1.7 6-1.9.7-.3 1.3-.7 1.2-.9 6.8-2.6 7.1-2.9 7-3.4 6.6-3.1 6.8-3.5 6.7-4 6.4-3.8 6.3-4 6.2-4.5 5.5-4 5.4-4.2 5.2-4.6 2.7-2.4 3.6-3.3 3.7-3.4.3-.4.6-1 .5-1.2 3.4-3.9 3.3-4.2 3.1-4.6 2.1-4.4 1.9-4.8 1.7-5.1z" class="st1"/><path d="M110.9 59.1c.9-2.9.9-3.8.8-4.3 0-.8 0-2-.2-3.2.3 1.9 0 3.7 0 3.8-.1 0 0-.4 0-.5.1-.9.1-2.2 0-3.2v-.5l-.1-.4-.1-.3-.1-.3.2 1.1c0-.1-.1-.4-.1-.5l-.2-1-.1-.3c.2 1 .2 1 .3 1.1.1.8.2 1.1.2 1.1v-.1c.1 1.3.1 1.5-.1 3 0 .2-.1.8 0 1.1-.3 1.2-.3 1.3-1 3.3-.3.9-.1 1-.1 1-.4.8-.4.9-2 3.6-.4.8-.4 1.1-.4 1.1-.9 1.2-1.9 2.4-2.9 3.6-.5.6-.6.9-.6 1.1v.1c-1.2 1.2-2.5 2.4-3.8 3.6-.6.6-.7.9-.7 1.1v.1c-1.5 1.2-3.1 2.4-4.7 3.6-.8.7-.9 1-.9 1.1-1.8 1.2-3.6 2.3-5.4 3.4-.9.6-1 .9-1 1v.1c-1.9 1-3.9 1.9-5.8 2.9-1 .6-1.1.8-1.1.9v.1c-2 .9-4.1 1.6-6.1 2.5-.8.4-1 .6-1.1.7-.1.1-.1.1 0 .2-2.1.7-4.1 1.3-6.2 2-.8.3-1 .5-1.1.6-.1.1-.1.1 0 .2-2.1.5-4.2.9-6.2 1.5-.8.2-1 .4-1.1.5-.1.1 0 .1 0 .2-2 .3-4.1.6-6.1.9-.8.2-1 .3-1 .4v.2c-2 .2-3.9.2-5.9.3-.7.1-.9.2-1 .3-.1.1 0 .1 0 .2-1.9 0-3.7-.2-5.6-.3-.7 0-.8.1-.9.1-.1.1 0 .2.2.3-.1 0-.1-.1-.2-.1-1.2-.2-1.2-.2-5.1-.9-.2 0-.6-.1-.7 0-.1 0-.1.1 0 .2-1.3-.4-3-1-4.2-1.5-.5-.1-.6.1-.5.2-.1 0-.2-.1-.2-.1-1.4-.7-2.8-1.4-4.5-2.8l-.2-.2c-.2-.1-.2-.2-.3-.2.1.3.7.7 1 1l.5.4c1 .7 2.4 1.6 3.5 2.1.5.3.8.3.8.2 5.7 2.2 6.6 1.9 6.5 1.7 4.2.8 6.3 1 6.1.6 3.5.2 5 .2 5.4.2.7 0 1.3-.2 1.2-.4 4-.2 5.6-.4 5.8-.4.6-.1 1.3-.3 1.2-.5 1.1-.2 4.4-.6 6-1 .6-.1 1.3-.4 1.3-.7 3-.7 5-1.2 6.1-1.5.6-.2 1.3-.6 1.3-.8 3-.9 5-1.6 6-2 .6-.2 1.3-.7 1.2-.9 7.1-2.9 7.1-3.1 7.1-3.5 6.8-3.4 6.7-3.6 6.7-4.1 6.3-3.8 6.2-4.1 6.2-4.5 5.3-4 5.3-4.3 5.2-4.7 4.3-4 4.2-4.3 4.2-4.7 3.2-3.9 3.1-4.3 3.1-4.7 1.7-4.6 1.6-5.1 1.5-5.5z" class="st1"/><path d="M111.5 61.3c.9-2.9.9-3.8.8-4.3 0-.8 0-2-.2-3.2.3 1.9 0 3.7 0 3.8-.1 0 0-.4 0-.5.1-.9.1-2.2 0-3.2v-.5l-.1-.4-.1-.3-.1-.3.2 1.1c0-.1-.1-.4-.1-.5l-.2-1-.1-.3c.2 1 .2 1 .2 1.1.1.8.2 1.1.2 1.1v-.1c.1 1.3.1 1.5-.1 3 0 .2-.1.8 0 1.1-.3 1.2-.3 1.3-1 3.3-.3.9-.1 1-.1 1-.4.8-.4.9-2 3.6-.4.8-.4 1.1-.4 1.1-.9 1.2-1.9 2.4-2.8 3.6-.5.6-.6.9-.6 1.1v.1c-1.2 1.2-2.5 2.4-3.7 3.6-.6.6-.7.9-.7 1.1v.1c-1.5 1.2-3.1 2.4-4.6 3.6-.8.7-.9 1-.9 1.1-1.7 1.2-3.6 2.3-5.3 3.4-.9.6-1 .9-1 1v.1c-1.9 1-3.8 1.9-5.7 2.9-1 .6-1.1.8-1.1.9v.1c-2 .9-4 1.6-6 2.5-.8.4-1 .6-1 .7v.2c-2 .7-4.1 1.3-6.1 2-.8.3-1 .5-1.1.6-.1.1-.1.1 0 .2-2 .5-4.1.9-6.1 1.5-.8.2-1 .4-1.1.5-.1.1 0 .1 0 .2l-6 .9c-.8.2-1 .3-1 .4v.2c-1.9.2-3.9.2-5.8.3-.7.1-.9.2-1 .3-.1.1 0 .1 0 .2-1.8 0-3.7-.2-5.5-.3-.7 0-.8.1-.9.1-.1.1 0 .2.2.3-.1 0-.1-.1-.2-.1-1.2-.2-1.2-.2-5.1-.9-.2 0-.6-.1-.7 0-.1 0-.1.1 0 .2-1.3-.4-2.9-1-4.2-1.5-.5-.1-.5.1-.5.2-.1 0-.2-.1-.2-.1-1.4-.7-2.8-1.4-4.5-2.8l-.2-.2c-.2-.1-.2-.2-.3-.2.1.3.7.7 1 1l.5.4c1 .7 2.4 1.6 3.4 2.1.5.3.8.3.8.2 5.6 2.2 6.5 1.9 6.4 1.7 4.2.8 6.2 1 6.1.6 3.4.2 5 .2 5.4.2.7 0 1.2-.2 1.2-.4 4-.2 5.5-.4 5.7-.4.6-.1 1.2-.3 1.2-.5 1.1-.2 4.3-.6 5.9-1 .6-.1 1.3-.4 1.2-.7 3-.7 5-1.2 6-1.5.6-.2 1.3-.6 1.2-.8 3-.9 5-1.6 5.9-2 .6-.2 1.3-.7 1.2-.9 7-2.9 7-3.1 7-3.5 6.7-3.4 6.7-3.6 6.6-4.1 6.2-3.8 6.1-4.1 6.1-4.5 5.3-4 5.2-4.3 5.2-4.7 4.2-4 4.2-4.3 4.1-4.7 3.2-3.9 3.1-4.3 3-4.7 1.9-4.6 1.7-5.1 1.7-5.5z" class="st1"/><path d="M111.9 63.4s0-.1 0 0c.9-2.9.9-3.8.8-4.3 0-.8 0-2-.2-3.2.3 1.9 0 3.7 0 3.8-.1 0 0-.4 0-.5.1-.9.1-2.2 0-3.2v-.5l-.1-.4-.1-.3-.1-.3.2 1.1c0-.1-.1-.4-.1-.5l-.2-1-.1-.3c.2 1 .2 1 .2 1.1.1.8.2 1.1.2 1.1v-.1c.1 1.3.1 1.5-.1 3 0 .2-.1.8 0 1.1-.3 1.2-.3 1.3-1 3.3-.3.9-.1 1-.1 1-.4.8-.4.9-1.9 3.6-.4.8-.4 1.1-.4 1.1-.9 1.2-1.9 2.4-2.8 3.6-.5.6-.5.9-.6 1.1v.1c-1.2 1.2-2.5 2.4-3.7 3.6-.6.6-.7.9-.7 1.1v.1c-1.5 1.2-3.1 2.4-4.6 3.6-.8.7-.9 1-.9 1.1-1.7 1.2-3.5 2.3-5.2 3.4-.9.6-1 .9-1 1v.1c-1.9 1-3.8 1.9-5.6 2.9-1 .6-1.1.8-1.1.9v.1c-1.9.9-4 1.6-5.9 2.5-.8.4-1 .6-1 .7.2.1.2.1.2.2-2 .7-4 1.3-6 2-.8.3-1 .5-1 .6-.1.1-.1.1 0 .2-2 .5-4 .9-6.1 1.5-.8.2-1 .4-1 .5-.1.1 0 .1 0 .2l-6 .9c-.8.2-1 .3-1 .4v.2c-1.9.2-3.8.2-5.8.3-.6.1-.9.2-.9.3-.1.1 0 .1 0 .2-1.8 0-3.6-.2-5.4-.3-.6 0-.8.1-.9.1-.1.1 0 .2.2.3-.1 0-.1-.1-.2-.1-1.2-.2-1.2-.2-5-.9-.2 0-.6-.1-.7 0-.1 0-.1.1 0 .2-1.3-.4-2.9-1-4.1-1.5-.5-.1-.5.1-.5.2-.1 0-.2-.1-.2-.1-1.3-.7-2.7-1.4-4.4-2.8l-.2-.2c-.2-.1-.2-.2-.3-.2.1.3.7.7 1 1l.4.4c1 .7 2.3 1.6 3.4 2.1.5.3.8.3.8.2 5.5 2.2 6.4 1.9 6.3 1.7 4.1.8 6.1 1 6 .6 3.4.2 4.9.2 5.3.2.7 0 1.2-.2 1.2-.4 3.9-.2 5.5-.4 5.6-.4.6-.1 1.2-.3 1.2-.5 1.1-.2 4.3-.6 5.8-1 .6-.1 1.3-.4 1.2-.7 2.9-.7 4.9-1.2 5.9-1.5.6-.2 1.3-.6 1.2-.8 2.9-.9 4.9-1.6 5.9-2 .6-.2 1.2-.7 1.2-.9 6.9-2.9 6.9-3.1 6.9-3.5 6.6-3.4 6.6-3.6 6.5-4.1 6.1-3.8 6.1-4.1 6-4.5 5.2-4 5.2-4.3 5.1-4.7 4.2-4 4.1-4.3 4-4.7 3.1-3.9 3-4.3 3-4.7 1.7-4.6 1.6-5.1 1.5-5.5z" class="st1"/><path d="M109.1 44.4c3.6 8.2-1.9 19.9-15.9 30.7C73.3 90.5 43.9 98 27.5 91.9l-.3-.6c16.4 6.1 45.8-1.5 65.7-16.8 14-10.9 19.6-22.7 15.8-30.9l.4.8M27 91.8c-4.6-1.8-7.7-4.6-9.1-8l-.4-.8c1.4 3.5 4.5 6.3 9.2 8.2l.3.6"/><defs><filter id="Adobe_OpacityMaskFilter" width="79.8" height="51.9" x="23.3" y="17.9" filterUnits="userSpaceOnUse"><feFlood flood-color="#fff" flood-opacity="1" result="back"/><feBlend in="SourceGraphic" in2="back"/></filter></defs><mask id="SVGID_1_" width="79.8" height="51.9" x="23.3" y="17.9" maskUnits="userSpaceOnUse"><g filter="url(#Adobe_OpacityMaskFilter)"/></mask><linearGradient id="SVGID_2_" x1="63.266" x2="63.266" y1="-5.749" y2="74.953" gradientUnits="userSpaceOnUse"><stop offset="0" stop-color="#fff" stop-opacity=".4"/><stop offset="1" stop-color="#fff" stop-opacity="0"/></linearGradient><path fill="url(#SVGID_2_)" d="M63.3 17.9c-22 0-39.9 15.7-39.9 35 0 2.9 1.7 5.6 4.5 7.3 10.1 6 22.3 9.5 35.4 9.5 13.1 0 25.3-3.5 35.4-9.5 2.8-1.6 4.5-4.4 4.5-7.3 0-19.3-17.9-35-39.9-35z" mask="url(#SVGID_1_)"/><path d="M112.2 62.6c0 2.2-.1 4.4-.4 6.6 0 .3-.1.7-.1 1-1.1 7.1-3.7 13.7-7.4 19.5-.2.3-.4.7-.6 1-4.4 6.4-10.2 11.7-17 15.4-.5.3-1 .5-1.5.8-6.8 3.5-14.5 5.4-22.6 5.4h-2c-1.7-.1-3.4-.2-5-.5-9.5-1.4-18.2-5.4-25.1-11.4-.5-.4-1-.9-1.5-1.4-2.1-2-4.1-4.1-5.9-6.5-.3-.4-.5-.7-.8-1.1-2.6-3.6-4.7-7.6-6.3-11.9 3.2 1.2 6.5 2 10 2.5 1.7.3 3.3.4 5 .5h2c8.1 0 15.8-2 22.6-5.4.5-.3 1-.5 1.5-.8 6.8-3.8 12.6-9.1 17-15.4.2-.3.4-.6.6-1 3.8-5.8 6.4-12.4 7.4-19.5.1-.3.1-.7.2-1 .3-2.2.4-4.4.4-6.6 0-6-1.1-11.7-3-17.1 18.9 7.2 32.5 25.4 32.5 46.9z" class="st4"/><path d="M112.2 62.6c0 2.2-.1 4.4-.4 6.6 0 .3-.1.7-.1 1-1.1 7.1-3.7 13.7-7.4 19.5-.2.3-.4.7-.6 1-4.4 6.4-10.2 11.7-17 15.4-.5.3-1 .5-1.5.8-6.8 3.5-14.5 5.4-22.6 5.4h-2c-1.7-.1-3.4-.2-5-.5-9.5-1.4-18.2-5.4-25.1-11.4-.5-.4-1-.9-1.5-1.4-2.1-2-4.1-4.1-5.9-6.5 6.6 5 14.4 8.4 22.9 9.6 1.6.2 3.3.4 5 .5h2c8.1 0 15.8-2 22.6-5.4.5-.3 1-.5 1.5-.8C83.9 92.6 89.7 87.3 94 81c.2-.3.4-.6.6-1 3.8-5.8 6.4-12.4 7.4-19.5.1-.3.1-.7.1-1 .3-2.2.4-4.4.4-6.6 0-11.3-3.8-21.7-10.1-30 12.1 9.2 19.8 23.5 19.8 39.7z" class="st4"/><path d="M27 63.6 0 79.2v31.2L27 126l27-15.6V79.2z" class="st5"/><path fill="#fcdd00" d="M27 122.4 3.1 108.6V81L27 67.2 50.9 81v27.6z"/><path d="m39 101.8-12 6.9-12-6.9V87.9L27 81l12 6.9-5.2 3-6-3.5-7.6 4.4v6.9l6 3.5 15-8.6 3.8-2.2v-7L27 74 9 84.4v20.8l18 10.4 18-10.4v-6.9z" class="st5"/><path d="M27 67.2v55.2l23.9-13.8V81z" opacity=".16"/></svg>