<?xml version="1.0" encoding="UTF-8"?> <svg xmlns="http://www.w3.org/2000/svg" xmlns:xlink="http://www.w3.org/1999/xlink" version="1.1" id="Layer_1" x="0px" y="0px" viewBox="0 0 100 100" style="enable-background:new 0 0 100 100;" xml:space="preserve"> <path style="fill:#FFFFFF;" d="M97,52.8c-0.1,0.2-0.1,0.5-0.4,0.6c0.1,0.8,0,1-0.5,1.3c0,0.1,0,0.2,0,0.3c0,0.2-0.1,0.4-0.2,0.5 c-0.2,0.2-0.4,0.3-0.7,0.1c0-0.1,0-0.1,0.1-0.2c0.2-0.5,0.3-1,0.2-1.5c-0.2-1-0.8-1.6-1.8-1.8c-0.7-0.1-1.3,0-1.8,0.5 c-0.1,0.1-0.2,0.2-0.2,0.4c-0.2,0.8-0.5,1.7-0.7,2.6c0,0.2,0,0.3,0.1,0.4c0.1,0.1,0.3,0.2,0.4,0.2c0.3,0.1,0.6,0.1,0.9,0.2 c0.4,0,0.6-0.1,0.8-0.5c0.1-0.2,0.2-0.5,0.2-0.7c0.4,0.1,0.5,0.4,0.4,0.7c0,0.1-0.1,0.1-0.1,0.2c-0.1,0.1-0.1,0.2,0,0.3 c0.2,0.5,0,1-0.4,1.3c-0.1,0.1-0.1,0.1-0.1,0.3c0,0.1,0,0.3-0.1,0.4c-0.1,0.3-0.4,0.5-0.7,0.4c0-0.1,0-0.1,0.1-0.2 c0.1-0.2,0.2-0.5,0.2-0.8c0-0.3-0.1-0.6-0.4-0.7c-0.4-0.3-0.8-0.4-1.3-0.4c-0.2,0-0.3,0.1-0.3,0.3c-0.3,1.1-0.6,2.3-0.9,3.4 c0,0.1,0,0.3,0,0.4c0.1,0.2,0.2,0.5,0.4,0.6c0.7,0.5,1.5,0.8,2.3,0.6c0.3-0.1,0.6-0.2,0.8-0.5c0.7-0.7,1.1-1.4,1.3-2.4 c0.1-0.1,0.3,0,0.3,0.1c0.1,0.1,0.1,0.2,0.1,0.4c0,0.1-0.1,0.2-0.1,0.3c0,0.1-0.1,0.3,0,0.4c0.1,0.2,0,0.4-0.1,0.5c0,0,0,0,0,0.1 c0.5,0.7,0.3,1-0.3,1.3c0,0.3,0,0.5-0.1,0.8c0,0.1-0.1,0.3-0.2,0.4c-0.2,0.2-0.4,0.2-0.7,0.1c0-0.1,0-0.1,0-0.2 c0.1-0.3-0.1-0.5-0.4-0.6c-0.2,0-0.5-0.1-0.7-0.1c-1.1,0.1-2.2-0.2-3.1-0.8c-0.1-0.1-0.2-0.1-0.4-0.1c-0.4,0.1-0.8,0-1.2-0.3 c-0.1-0.1-0.1-0.1-0.2-0.2c-0.8,0.2-1.4,0-1.5-0.5c0.1,0,0.2,0,0.2,0.1c0.3,0.1,0.6,0,0.9-0.2c0.2-0.1,0.3-0.3,0.3-0.5 c0.3-1.1,0.5-2.2,0.9-3.3c0.1-0.5,0.1-0.8-0.3-1.2c0,0,0,0,0-0.1c0,0,0,0,0,0c0,0,0.1-0.1,0.2-0.1c0.4-0.2,0.6-0.4,0.7-0.8 c0.2-1,0.5-1.9,0.7-2.9c0.1-0.4-0.1-0.7-0.4-0.9c-0.2-0.1-0.5-0.2-0.7-0.3c0-0.1,0.1-0.1,0.2-0.2c0.5-0.1,0.9,0,1.2,0.3 c0.1,0.1,0.1,0.1,0.2,0.2c0.3-0.1,0.6-0.1,0.9-0.1c0.3,0.1,0.5,0.2,0.7,0.4c0.1,0.1,0.2,0.2,0.4,0.2c0.8,0,1.5,0.1,2.2,0.4 c0.3,0.1,0.7,0.3,1,0.5c0.1,0,0.1,0.1,0.2,0.1c0.5,0.3,0.7,0.2,0.9-0.3c0.3,0,0.5,0.1,0.6,0.4C97,52.6,97,52.7,97,52.8z"></path> <path style="fill:#FFFFFF;" d="M42.7,70.2c-0.1,0-0.1-0.1-0.2-0.1c-0.3-0.1-0.4-0.3-0.3-0.6c0.1-0.3,0.3-0.6,0.5-0.8 c0.4-0.4,0.9-0.6,1.4-0.7c0.1,0,0.2-0.1,0.3-0.2c1.1-2.5,2.1-5,2.8-7.5c0.3-1,0.5-2.1,0.8-3.2c0.1-0.2,0.1-0.5,0.2-0.7 c0.1-0.2,0.2-0.3,0.3-0.5c0.4-0.3,0.9-0.1,1,0.4c0,0.3,0,0.6,0,0.9c-0.2,1-0.5,2-0.8,3c-0.8,2.4-1.9,4.8-3,7.1 c-0.1,0.2-0.1,0.3-0.2,0.5c0.3,0,0.5-0.1,0.7-0.1c0.6-0.1,1.2-0.1,1.9-0.2c1,0,2,0.1,2.9,0.5c0.2,0.1,0.4,0.2,0.6,0.3 c0.1,0.1,0.2,0.2,0.3,0.3c0.1,0.1,0.1,0.2,0.1,0.3c-0.1,0.1-0.2,0.1-0.3,0c-0.5-0.1-1-0.2-1.4-0.3c-1.5-0.3-2.9-0.3-4.4,0 c-0.5,0.1-0.8,0.2-1.1,0.6c-0.4,0.4-0.8,0.7-1.4,0.9c0,0-0.1,0-0.1,0.1C43,70.2,42.8,70.2,42.7,70.2z M44.2,68.4 c-0.4,0.1-0.7,0.2-1,0.4c-0.2,0.1-0.4,0.3-0.5,0.5c-0.1,0.1-0.1,0.2,0,0.3c0.1,0.1,0.2,0.1,0.3,0C43.5,69.4,43.9,69,44.2,68.4z"></path> <path style="fill:#FFFFFF;" d="M19.3,39.2c0,0.3,0,0.6,0,0.9c0,0.7,0,1.5-0.1,2.2c0,0.4,0,0.7,0,1.1c0,0.5-0.3,0.9-0.8,1.1 c-0.5,0.2-0.9,0.4-1.4,0.3c-0.4-0.1-0.7-0.4-0.7-0.7c0-0.8,0-1.6,0-2.4c0-0.2,0-0.5,0-0.7c0-0.8,0-1.7,0-2.5c0-0.9,0.1-1.9,0.1-2.8 c0-0.1,0-0.2,0-0.3c-0.1,0-0.2,0-0.3,0c-0.8,0.2-1.4,0.5-2,1.1c-0.1,0.2-0.2,0.4-0.3,0.5c0,0.1-0.1,0.2,0,0.3c0,0.2,0.1,0.2,0.2,0.2 c0.1,0,0.2-0.1,0.3-0.1c0.1-0.1,0.2-0.2,0.3-0.3c0.2-0.2,0.5-0.2,0.7-0.1c0.3,0.1,0.4,0.3,0.4,0.6c0,0.5-0.1,0.9-0.4,1.2 c-0.5,0.5-1.2,0.7-1.9,0.7c-0.6-0.1-1-0.5-1-1.1c-0.1-0.9,0.2-1.6,0.8-2.3c0.5-0.6,1.2-0.9,1.8-1.3c1.2-0.6,2.5-0.9,3.8-1.2 c0.8-0.2,1.7-0.4,2.6-0.3c0.5,0,1,0.1,1.5,0.3c0.7,0.3,1.1,0.9,1.1,1.7c0,1.3-0.6,2.3-1.6,3c-0.1,0-0.2,0.1-0.2,0.1c0,0,0,0,0,0.1 c0.1,0.1,0.3,0.3,0.4,0.4c0.7,0.9,1.3,1.9,1.8,2.9c0.3,0.5,0.6,1,0.9,1.5c0.4,0.6,0.9,1.1,1.5,1.5c0.7,0.4,1.4,0.5,2.2,0.3 c0.3-0.1,0.6-0.1,0.8-0.1c0.1,0,0.2,0.1,0.2,0.2c0,0.1-0.1,0.3-0.1,0.3c-0.3,0.3-0.6,0.5-1,0.7c-1.8,0.8-4.1,0.7-5.7-0.9 c-0.6-0.6-1-1.3-1.4-2c-0.6-1-1.2-2.1-1.8-3.1C19.8,39.8,19.6,39.5,19.3,39.2C19.3,39.2,19.3,39.2,19.3,39.2z M19.3,38.5 c0.1,0,0.3,0,0.4-0.1c0.3,0,0.5-0.1,0.7-0.3c0.2-0.2,0.4-0.4,0.5-0.7c0.3-0.6,0.4-1.2,0.4-1.9c0-0.3-0.1-0.5-0.2-0.8 c-0.2-0.4-0.5-0.6-0.9-0.5c-0.5,0.1-0.7,0.4-0.7,0.8c0,0.6,0,1.2-0.1,1.7C19.4,37.4,19.3,38,19.3,38.5z"></path> <path style="fill:#FFFFFF;" d="M51.3,31C51.3,31,51.3,31,51.3,31c0.8-0.3,1.5-0.2,2.2,0.1c0.2,0.1,0.3,0.1,0.4,0 c0.7-0.2,1.4-0.3,2.2-0.5c0.3-0.1,0.5-0.2,0.6-0.5c0.4,0.1,0.7,0.1,1.1,0.2c0.8,0.2,1.7,0.3,2.5,0.7c0.3,0.1,0.6,0.3,0.9,0.5 c1.1,0.7,1.6,1.7,1.5,3c0,0.6-0.2,1.3-0.5,1.8c-0.4,0.7-0.8,1.5-1.3,2.1c-0.7,0.8-1.4,1.4-2.3,1.9c-0.8,0.5-1.7,0.8-2.7,0.9 c-1,0.2-1.9,0.1-2.9-0.1c-0.2-0.1-0.5-0.2-0.7-0.3c-0.4-0.3-0.6-0.7-0.4-1.2c0.2-0.9,0.4-1.8,0.7-2.7c0.4-1.6,0.9-3.2,1.3-4.9 c0.1-0.4,0.1-0.4-0.3-0.7c-0.5-0.3-1-0.4-1.6-0.4C51.8,31.1,51.6,31.1,51.3,31C51.3,31.1,51.3,31,51.3,31z M59.9,33.4 c0-0.1,0-0.3,0-0.4c-0.1-1.2-1.2-1.8-2.1-1.8c-0.5,0-0.9,0.3-1.1,0.8c-0.2,0.6-0.4,1.1-0.5,1.7c-0.3,1.3-0.8,2.5-1,3.9 c-0.1,0.3-0.2,0.7-0.3,1c-0.1,0.3-0.2,0.6-0.2,0.8c-0.1,0.4,0,0.6,0.4,0.7c0.1,0,0.2,0,0.3,0c1,0,1.8-0.4,2.4-1.2 c0.5-0.6,0.8-1.3,1.2-1.9c0.2-0.4,0.4-0.9,0.5-1.4C59.7,35,59.9,34.3,59.9,33.4z"></path> <path style="fill:#FFFFFF;" d="M38.2,34.2c0-0.3,0.1-0.5,0.1-0.8c0.1-0.5,0.2-0.9,0.2-1.4c0.1-0.4,0.3-0.6,0.6-0.7 c0.5-0.3,1.1-0.3,1.7-0.2c0.1,0,0.3,0.1,0.4,0.1c0.2,0.1,0.3,0.3,0.3,0.6c-0.1,0.7-0.2,1.5-0.3,2.2c-0.2,1.2-0.4,2.4-0.6,3.6 c-0.1,0.8-0.2,1.6-0.1,2.5c0,0.3,0.1,0.7,0.3,0.9c0.2,0.2,0.1,0.4-0.1,0.4c-0.2,0.1-0.3,0.1-0.5,0.1c-0.6,0-1.2-0.1-1.7-0.5 c0,0,0,0-0.1-0.1c0,0,0,0-0.1,0c-0.5,0.4-1.1,0.6-1.7,0.8c-0.6,0.1-1.2,0.2-1.8,0c-0.4-0.1-0.7-0.3-1.1-0.5c-0.8-0.6-1-1.5-1-2.4 c0-0.7,0.1-1.4,0.5-2c0.8-1.6,2.1-2.6,3.9-2.7c0.3,0,0.5,0.1,0.8,0.1C38.1,34.1,38.1,34.1,38.2,34.2z M36,40.6 c0.2,0.1,0.4,0,0.6-0.1c0.2-0.1,0.3-0.3,0.4-0.4c0.2-0.3,0.3-0.6,0.4-0.9c0.3-0.8,0.4-1.6,0.5-2.4c0-0.4,0-0.7-0.1-1.1 c-0.5-0.1-0.8,0.1-1,0.5c-0.2,0.3-0.3,0.6-0.4,1c-0.3,0.8-0.4,1.6-0.4,2.5C35.9,39.9,36,40.2,36,40.6z"></path> <path style="fill:#FFFFFF;" d="M14.8,60.6c-0.1,0.3-0.3,0.6-0.7,0.6c-0.2,0-0.4-0.1-0.5,0c-0.1,0-0.3,0.2-0.4,0.3 c-0.2,0.1-0.4,0.1-0.6,0c0,0-0.1,0-0.1,0c-0.3,0.3-0.7,0.3-1,0c-0.2-0.2-0.4-0.5-0.4-0.8c-0.1-0.3-0.2-0.7-0.3-1 c-0.1-0.4-0.3-0.9-0.5-1.2C10,58,9.6,57.7,9.1,57.6c-0.1,0-0.3,0-0.4,0c-0.5,0-0.9,0.2-1.4,0.4c0.2,0.5,0.3,1,0.4,1.5 c0.2,0.6,0.4,1.3,0.6,1.9C8.4,62,8.9,62.2,9.5,62c0,0,0.1,0,0.1,0c0,0.2-0.1,0.4-0.2,0.5c-0.2,0.1-0.5,0.2-0.8,0.1 c-0.1,0-0.2,0-0.3-0.1C7.9,63,7.3,63.2,6.7,63c-0.2,0.4-0.6,0.4-1,0.4c-0.2,0-0.3,0-0.5,0c0.1,0,0.1-0.1,0.2-0.1 c0.2-0.1,0.4-0.2,0.6-0.4c0.2-0.3,0.3-0.5,0.2-0.8c-0.3-1-0.7-2.1-1-3.2c-0.1-0.5-0.4-0.8-0.9-1c0,0,0,0-0.1-0.1 c0-0.1,0.1-0.1,0.1-0.2c0.2-0.3,0.3-0.7,0.2-1.1c-0.2-0.8-0.5-1.6-0.7-2.3c0-0.1-0.1-0.3-0.1-0.4c-0.1-0.5-0.7-0.8-1.2-0.7 c-0.1,0-0.3,0.1-0.5,0.1c0-0.2,0.1-0.3,0.2-0.3c0.3-0.3,0.8-0.4,1.2-0.3c0.2,0,0.2,0,0.4-0.1C4.1,52.2,4.5,52,5,52.1 c0.2,0,0.3,0,0.4-0.1c0.8-0.6,1.7-0.8,2.7-1c0.6-0.1,1.1,0,1.7,0.1c0.7,0.2,1.2,0.7,1.6,1.3c0.2,0.3,0.4,0.7,0.7,0.8 c-0.1,0.3-0.2,0.5-0.2,0.8c0,0.2,0,0.3,0,0.5c0,0.8-0.4,1.4-1,1.8c-0.2,0.1-0.4,0.3-0.7,0.4c0,0,0,0,0,0.1c0.2,0,0.3,0,0.5,0 c0.7,0,1.2,0.2,1.7,0.7c0.2,0.3,0.4,0.6,0.5,1c0.1,0.3,0.1,0.5,0.2,0.8c0.1,0.2,0.2,0.5,0.3,0.7c0.2,0.4,0.8,0.7,1.4,0.5 C14.7,60.6,14.8,60.6,14.8,60.6z M9.7,55.5c0-0.1-0.1-0.3-0.1-0.6c-0.2-0.7-0.4-1.3-0.5-2c0-0.2-0.1-0.3-0.2-0.5 c-0.2-0.4-0.6-0.7-1.1-0.7c-0.5,0-0.9,0.1-1.3,0.4c-0.5,0.3-0.7,0.8-0.5,1.4c0.3,1,0.6,2,0.9,2.9c0.1,0.5,0.5,0.7,0.9,0.6 c0.4-0.1,0.8-0.2,1.2-0.3C9.4,56.6,9.7,56.2,9.7,55.5z"></path> <path style="fill:#FFFFFF;" d="M15.4,54.8c0.3-0.5,0.3-1,0.3-1.5c-0.1-0.8,0-1.6,0.3-2.3c0.6-1.5,1.7-2.3,3.3-2.6 c0.8-0.1,1.6-0.1,2.3,0.1c1,0.4,1.7,1,2.2,1.9c0.2,0.4,0.4,0.9,0.5,1.3c0.2,0.4,0.3,0.8,0.8,1.1c0,0.1-0.1,0.1-0.1,0.2 c-0.2,0.4-0.3,0.8-0.2,1.2c0,0.9,0,1.7-0.3,2.6c-0.5,1.6-1.6,2.5-3.2,2.8c-1.5,0.3-2.8-0.2-3.8-1.4c-0.6-0.6-1-1.3-1.2-2.1 c0-0.1-0.1-0.2-0.1-0.4C16,55.4,15.8,55.1,15.4,54.8z M19,54c0,0,0,0.1-0.1,0.1c-0.3,0.4-0.3,0.8-0.2,1.2c0.2,0.8,0.3,1.6,0.5,2.4 c0,0.1,0.1,0.2,0.1,0.4c0.3,0.6,0.7,1,1.4,1c0.7,0,1.3-0.2,1.7-0.8c0.3-0.4,0.3-0.8,0.2-1.3c-0.1-0.8-0.3-1.6-0.5-2.4 c-0.1-0.3-0.2-0.6-0.5-0.9c-0.1-0.1-0.2-0.1-0.3-0.2c0.1-0.1,0.1-0.2,0.1-0.2c0.2-0.3,0.3-0.6,0.2-1c-0.1-0.6-0.2-1.3-0.4-1.9 c-0.1-0.5-0.3-1-0.8-1.2c-0.7-0.4-1.4-0.3-2.1,0.1c-0.6,0.4-0.8,1-0.7,1.7c0.1,0.7,0.3,1.4,0.4,2.1c0.1,0.4,0.3,0.7,0.6,0.9 C18.9,54,19,54,19,54z"></path> <path style="fill:#FFFFFF;" d="M59.7,54.5c0.4,0.4,0.7,0.7,0,1.4c0.2,0.2,0.2,0.5,0.1,0.8c0,0.4-0.3,0.6-0.6,0.7c-0.1,0-0.1,0-0.2,0 c0-0.1,0-0.2,0-0.2c0-0.3-0.2-0.5-0.5-0.5c-0.2,0-0.4,0-0.6,0.1c-1.1,0.4-2.3,0.3-3.4-0.1c-0.5,0.3-1.1,0.4-1.6,0 c-0.3,0.2-0.7,0.3-1.1,0.2c-0.2-0.1-0.3-0.1-0.5-0.4c0.1,0,0.2,0,0.3,0c0.3,0,0.6-0.1,0.8-0.4c0.1-0.1,0.2-0.3,0.2-0.5 c0-1.2,0-2.3,0.1-3.5c0-0.4-0.1-0.7-0.5-1c-0.1,0-0.1-0.1-0.2-0.1c0.1-0.1,0.1-0.1,0.2-0.1c0.3-0.2,0.5-0.6,0.5-0.9 c0-1,0-1.9,0.1-2.9c0-0.4-0.2-0.8-0.6-0.9c-0.2-0.1-0.5-0.1-0.7-0.1c0-0.1,0.1-0.2,0.2-0.2c0.4-0.2,0.8-0.2,1.2,0 c0.1,0,0.2,0.1,0.2,0.1c0.1,0,0.1-0.1,0.2-0.1c0.5-0.2,0.9-0.2,1.4,0.1c0.2,0.1,0.3,0.1,0.4,0.1c1-0.3,2-0.2,3,0.1 c0.2,0.1,0.3,0.1,0.5,0.2c0.5,0.2,0.7,0.1,0.8-0.5c0.4-0.1,0.7,0.1,0.7,0.4c0,0.2,0,0.5-0.1,0.7c0,0-0.1,0.1-0.1,0.1 c0.3,0.7,0.2,1-0.2,1.4c0,0.1,0.1,0.3,0.1,0.4c0,0.2,0,0.3-0.1,0.5c-0.1,0.3-0.3,0.4-0.7,0.2c0.1-0.4,0.1-0.8,0-1.3 c-0.3-1.5-1.9-2.2-3.2-1.5c-0.2,0.1-0.4,0.3-0.6,0.5c-0.1,0.2-0.2,0.4-0.2,0.6c0,0.9,0,1.7-0.1,2.6c0,0.2,0.1,0.3,0.2,0.3 c0.2,0.1,0.4,0.1,0.5,0.2c0.3,0,0.5,0,0.8-0.1c0.4-0.1,0.6-0.3,0.7-0.7c0-0.2,0-0.4,0.1-0.6c0.5-0.1,0.6,0.3,0.5,0.9 c0.1,0.3,0.2,0.5,0.2,0.8c0,0.3,0,0.5-0.2,0.7c-0.1,0.1-0.1,0.2-0.1,0.4c0.1,0.2,0,0.5-0.1,0.7C57.3,52.9,57.2,53,57,53 c0-0.3,0-0.5,0-0.7c0-0.5-0.3-0.8-0.8-0.9c-0.4-0.1-0.8-0.1-1.2,0.1c-0.1,0.1-0.2,0.1-0.2,0.3c0,1.1-0.1,2.3-0.1,3.4 c0,0.3,0.1,0.5,0.2,0.7c0.2,0.3,0.5,0.4,0.8,0.5c0.5,0.1,1.1,0.2,1.6,0c0.5-0.1,0.8-0.4,1.1-0.8c0.5-0.8,0.7-1.6,0.7-2.5 c0,0,0-0.1,0-0.1c0.3-0.1,0.5,0,0.5,0.3c0,0.1,0,0.1,0,0.2c-0.1,0.2,0,0.4,0.1,0.7c0,0.1,0,0.2,0,0.3C59.8,54.3,59.7,54.4,59.7,54.5 z"></path> <path style="fill:#FFFFFF;" d="M76.2,48.9c-0.2-0.3-0.3-0.7-0.2-1.1c0.1-0.4,0.5-0.5,0.9-0.4c0,0,0,0.1,0,0.1 c-0.1,0.4,0.1,0.6,0.5,0.6c0.4,0,0.7-0.1,1.1-0.1c0.6,0,1.2,0.1,1.7,0.5c0.2,0,0.4-0.1,0.6-0.1c0.4,0,0.7,0.1,1,0.3 c0.1,0.1,0.2,0.1,0.3,0.1c0.3-0.1,0.6-0.1,0.9,0c0.5,0.1,1,0.3,1.5,0.6c0.1,0.1,0.2,0.1,0.3,0.1c0.3,0.1,0.5,0,0.7-0.3 c0,0,0-0.1,0-0.1c0.4,0,0.6,0.2,0.7,0.6c0,0.4-0.1,0.7-0.4,1c0,0-0.1,0.1-0.1,0.1c0.2,0.5,0.1,1-0.4,1.4c0.1,0.6,0,1.1-0.5,1.5 c-0.2,0.1-0.4,0.2-0.6,0.1c0.3-0.4,0.4-0.8,0.5-1.3c0.1-0.8,0-1.6-0.5-2.2c-0.4-0.5-0.9-0.8-1.6-0.8c-0.1,0-0.2,0-0.3,0 c-0.1,0.6-0.2,1.1-0.4,1.7c-0.1,0.6-0.2,1.2-0.4,1.8c-0.1,0.4,0,0.7,0.3,1c0,0,0.1,0.1,0.1,0.2c0,0-0.1,0.1-0.1,0.1 c-0.5,0.2-0.7,0.5-0.8,1c-0.2,1.1-0.4,2.2-0.7,3.3c0,0.2,0,0.4,0.1,0.6c0.2,0.3,0.5,0.5,0.8,0.6c0.1,0,0.1,0,0.2,0 c-0.1,0.2-0.2,0.2-0.4,0.2c-0.4,0.1-0.7,0-1-0.3c-0.1-0.1-0.3-0.2-0.5-0.1c-0.4,0.1-0.8,0-1.2-0.2c-0.1,0-0.1-0.1-0.2-0.1 c-0.1,0-0.2,0-0.2,0.1c-0.4,0.1-0.7,0.1-1-0.1c-0.1-0.1-0.3-0.2-0.3-0.4c0.1,0,0.2,0,0.2,0c0.4,0.1,0.8,0,1.1-0.3 c0.1-0.1,0.2-0.2,0.2-0.4c0.2-1.2,0.4-2.3,0.7-3.5c0.1-0.3,0-0.6-0.2-0.8c-0.1-0.1-0.1-0.2-0.2-0.3c0.1,0,0.1-0.1,0.2-0.1 c0.4-0.2,0.6-0.5,0.7-0.9c0.2-1.1,0.4-2.3,0.6-3.4c0,0,0-0.1,0-0.1c-0.6-0.4-1.2-0.4-1.8-0.2c-0.7,0.3-1.2,0.8-1.4,1.5 c-0.2,0.6-0.4,1.2-0.2,1.9c-0.2,0-0.4-0.1-0.5-0.3c-0.3-0.5-0.3-0.9,0-1.4c0-0.1,0.1-0.2,0.1-0.2c-0.1-0.2-0.2-0.5-0.2-0.7 C75.9,49.3,76,49.1,76.2,48.9z"></path> <path style="fill:#FFFFFF;" d="M69.6,57.7c-0.3,0.4-0.9,0.4-1.6-0.1c-0.2,0.1-0.5,0.2-0.8,0.2c-0.3,0-0.5-0.2-0.8-0.4 c-0.4,0.2-0.9,0.3-1.3,0c-0.1-0.1-0.3-0.1-0.3-0.3c0.2,0,0.5,0,0.7-0.1c0.5-0.1,0.7-0.4,0.8-0.9c0.1-1.1,0.2-2.2,0.4-3.3 c0-0.3-0.1-0.6-0.3-0.9c-0.1-0.1-0.1-0.1-0.2-0.2c0,0,0.1-0.1,0.1-0.1c0.4-0.2,0.6-0.6,0.7-1.1c0.1-1,0.2-2,0.3-3c0-0.2,0-0.3,0-0.5 c-0.5-0.3-1-0.3-1.6-0.1c-0.7,0.3-1.2,0.8-1.5,1.5c-0.3,0.7-0.4,1.3-0.2,2.1c0,0,0,0,0,0.1c-0.2,0-0.4-0.1-0.5-0.3 c-0.3-0.4-0.3-0.9-0.1-1.3c0-0.1,0.1-0.2,0.1-0.3c-0.3-0.5-0.3-1,0.1-1.4c-0.2-0.3-0.3-0.5-0.3-0.9c0-0.5,0.3-0.7,0.8-0.7 c0,0.1,0,0.1,0,0.2c0,0.3,0.2,0.5,0.6,0.5c0.3,0,0.5-0.1,0.8-0.1c0.4-0.1,0.9-0.1,1.3,0c0.2,0.1,0.4,0.2,0.6,0.3 c0.1,0,0.2,0.1,0.3,0c0.5-0.2,1.1-0.2,1.5,0.2c0,0,0.1,0,0.1,0c0.7-0.3,1.3-0.1,2,0.1c0.2,0.1,0.5,0.2,0.7,0.3 c0.1,0,0.2,0.1,0.3,0.1c0.2,0,0.4-0.1,0.5-0.3c0-0.1,0.1-0.2,0.1-0.3c0.3,0,0.5,0.2,0.6,0.4c0.2,0.5,0,0.9-0.4,1.2 c0.3,0.5,0.2,1-0.3,1.4c0.1,0.3,0.1,0.6,0,1c-0.1,0.2-0.2,0.4-0.4,0.6c-0.2,0.1-0.3,0.2-0.5,0.1c0.1-0.3,0.2-0.6,0.3-1 c0.1-0.6,0.1-1.2-0.2-1.8c-0.3-0.7-0.8-1.2-1.6-1.4c-0.3-0.1-0.6-0.1-0.9,0.1c-0.1,0.4-0.1,0.9-0.2,1.3c-0.1,0.7-0.2,1.4-0.3,2.2 c-0.1,0.4,0,0.8,0.4,1.1c0,0,0.1,0.1,0.1,0.1c-0.1,0-0.1,0.1-0.2,0.1c-0.3,0.2-0.5,0.5-0.6,0.9c-0.1,0.9-0.2,1.9-0.4,2.8 c0,0.2,0,0.4-0.1,0.6c-0.1,0.5,0.1,0.8,0.5,1C69.1,57.5,69.4,57.6,69.6,57.7z"></path> <path style="fill:#FFFFFF;" d="M74.7,43.1c-0.7,0-1.4-0.1-2-0.5c-1-0.6-1.5-1.6-1.3-2.7c0.3-2.2,2.1-3.9,4.3-4.1 c0.9-0.1,1.7,0,2.5,0.4c0.7,0.3,1.2,0.8,1.5,1.6c0.2,0.5,0.1,1,0,1.6c-0.3,1-0.9,1.9-1.7,2.5c-0.8,0.6-1.6,1-2.6,1.1 c0,0-0.1,0-0.1,0C75,43.1,74.8,43.1,74.7,43.1z M73.9,41.2c0,0.7,0.4,1,0.9,0.8c0.1,0,0.1-0.1,0.2-0.1c0.2-0.2,0.3-0.3,0.5-0.5 c0.7-0.9,1.1-1.9,1.5-3c0.1-0.2,0.1-0.5,0.1-0.7c0-0.6-0.3-0.8-0.8-0.7c-0.1,0-0.3,0.1-0.4,0.2c-0.3,0.3-0.6,0.6-0.8,1 c-0.3,0.6-0.6,1.3-0.9,1.9C74,40.5,74,40.9,73.9,41.2z"></path> <path style="fill:#FFFFFF;" d="M49.4,30.6c0.1-0.1,0.2-0.2,0.2-0.3c0.2,0.2,0.2,0.6,0.4,0.8c0-0.1,0-0.2-0.1-0.3 c-0.6-1.7-1.3-3.4-1.9-5.2c0,0,0-0.1-0.1-0.1c-0.1-0.2,0-0.3,0.2-0.4c0.5-0.1,1-0.2,1.5-0.3c1.3-0.3,2.7-0.6,4-0.9c0,0,0.1,0,0.2,0 c0.7,1.9,1.4,3.8,2.1,5.8c-1,0.3-2,0.5-2.9,0.7c-1,0.2-1.9,0.5-2.9,0.7c0.3,0.2,0.5,0,0.8,0c-0.1,0.1-0.1,0.3-0.2,0.4 c-0.2,0.3-0.4,0.7-0.6,1c-0.1,0.2-0.2,0.2-0.4,0.2c-0.4,0-0.8,0-1.1,0c-0.1,0-0.3-0.1-0.5-0.1c0.1-0.1,0.1-0.2,0.1-0.3 c0.3-0.5,0.6-1,0.9-1.6C49.3,30.8,49.3,30.7,49.4,30.6C49.4,30.6,49.4,30.6,49.4,30.6z M55,28.8c-0.5-1.2-0.9-2.4-1.4-3.6 c-0.1,0.1-0.2,0.1-0.3,0.1c0.5,1.2,0.9,2.4,1.3,3.5C54.8,28.8,54.9,28.8,55,28.8z M53.1,24.8c-1.3,0.3-2.5,0.5-3.8,0.8 c0.1,0.1,0.1,0.2,0.2,0.2c1.2-0.2,2.4-0.5,3.6-0.7C53.1,25,53.1,24.9,53.1,24.8z M50.3,29.6c0.2-0.1,0.2-0.1,0.2-0.3 c-0.4-1-0.7-2-1.1-2.9c-0.1-0.2-0.1-0.2-0.3-0.1C49.5,27.3,49.9,28.5,50.3,29.6z M54.6,29.3c-0.1-0.2-0.1-0.2-0.3-0.2 c-0.3,0.1-0.6,0.1-0.9,0.2c-0.7,0.1-1.5,0.3-2.2,0.4c-0.1,0-0.1,0-0.2,0.1c0,0.1,0,0.2,0,0.3C52.2,29.8,53.4,29.5,54.6,29.3z"></path> <path style="fill:#FFFFFF;" d="M31.6,52c-0.1,0.1-0.2,0.2-0.3,0.4c-0.2,0.2-0.2,0.5-0.2,0.8c0.1,0.7,0.2,1.5,0.3,2.2 c0.3,1.6,2.1,2.4,3.5,1.4c0.7-0.5,1-1.2,0.9-2.1c-0.1-0.7-0.2-1.3-0.2-2c0-0.5-0.2-0.8-0.6-1c0,0-0.1,0-0.1-0.1c0,0,0,0,0,0 c0.5-0.4,0.5-0.8,0.5-1.4c-0.1-0.9-0.2-1.8-0.3-2.6c0-0.5-0.4-0.9-1-0.9c-0.1,0-0.3,0-0.4,0c-0.1,0-0.1,0-0.2,0 c0-0.2,0.1-0.3,0.2-0.4c0.2-0.1,0.5-0.1,0.8,0c0.1,0,0.2,0.1,0.2,0.1c0.4-0.3,0.7-0.4,1.2-0.1c0.1-0.1,0.1-0.1,0.2-0.1 c0.2-0.1,0.4-0.2,0.6-0.2c0.2,0,0.3,0.1,0.4,0.4c-0.2,0-0.3,0-0.5,0c-0.4,0-0.7,0.2-0.9,0.6c0,0.1-0.1,0.2-0.1,0.3 c0.1,1,0.2,2.1,0.3,3.1c0,0.4,0.2,0.8,0.6,0.9c0.1,0,0.1,0.1,0.2,0.1c-0.1,0.1-0.1,0.1-0.2,0.2c-0.3,0.2-0.4,0.5-0.4,0.8 c0.1,0.8,0.1,1.6,0.2,2.4c0,0.1,0.1,0.3,0.1,0.4c0.1,0.1,0.2,0.2,0.2,0.3c-1,1.3-2.2,2.2-3.8,2.2c-0.6,0-1.3,0-1.9-0.2 c-1.1-0.4-1.7-1.1-1.8-2.2c-0.1-0.6-0.2-1.3-0.3-1.9c-0.1-0.4-0.3-0.7-0.6-0.9c0,0-0.1-0.1-0.1-0.1c0,0,0-0.1,0-0.1 c0.4-0.3,0.5-0.7,0.4-1.2c-0.1-0.9-0.3-1.8-0.4-2.7c-0.1-0.5-0.5-0.9-1-0.9c-0.2,0-0.3,0-0.5,0c0-0.2,0.2-0.4,0.4-0.5 c0.2,0,0.5,0,0.7-0.1c0.1,0,0.1,0,0.2,0c0.2,0.1,0.3,0.1,0.5-0.1c0.4-0.3,0.8-0.3,1.3-0.1c0.2,0.1,0.3,0.1,0.4-0.1 c0.4-0.3,0.8-0.3,1.2-0.1c0.1,0,0.1,0.1,0.2,0.1c-0.1,0.1-0.2,0.1-0.3,0.1c-0.3,0.1-0.6,0.2-0.8,0.5c-0.1,0.2-0.2,0.3-0.1,0.6 c0.1,0.9,0.2,1.8,0.3,2.7c0,0.1,0,0.2,0,0.3c0,0.4,0.2,0.6,0.5,0.8C31.4,51.9,31.5,51.9,31.6,52z"></path> <path style="fill:#FFFFFF;" d="M40,46.2c0.3-0.5,0.9-0.6,1.7-0.2c0.3-0.2,0.5-0.3,0.9-0.3c0.3,0,0.6,0.1,0.9,0.2 c0.8-0.4,1.5-0.4,1.8,0.1c-0.1,0-0.2,0-0.3,0c-0.3,0-0.6,0.1-0.8,0.3c-0.2,0.2-0.4,0.4-0.3,0.8c0.1,0.9,0.1,1.7,0.1,2.6 c0,0.1,0,0.2,0,0.3c0,0.4,0.2,0.7,0.5,1c0,0,0.1,0.1,0.1,0.1c-0.1,0.1-0.1,0.1-0.2,0.2c-0.2,0.2-0.4,0.5-0.4,0.8 c0,0.8,0,1.5,0.1,2.3c0,0.3,0,0.6,0,0.9c0,0.1,0.1,0.3,0.1,0.4c0.4,0.6,1,0.8,1.7,0.7c1-0.2,1.6-0.7,1.9-1.6c0.2-0.7,0.3-1.3,0.2-2 c0,0,0-0.1,0-0.1c0.2-0.1,0.3,0,0.4,0.1c0.2,0.2,0.3,0.4,0.3,0.6c0,0.2,0,0.5,0,0.7c0.4,0.5,0.4,0.9,0.1,1.4 c-0.1,0.2-0.3,0.4-0.4,0.6c-0.1,0.1-0.2,0.3-0.3,0.4c-0.3-0.3-0.6-0.2-0.9,0c-0.3,0.2-0.7,0.3-1.1,0.4c-0.7,0.1-1.4,0.1-2.1-0.1 c-0.7,0.4-0.9,0.4-1.6,0.1c-0.3,0.3-0.7,0.4-1.1,0.3c-0.2,0-0.4-0.1-0.5-0.3c0.1,0,0.2,0,0.2,0c0.4,0,0.7-0.2,0.9-0.5 c0.1-0.2,0.1-0.3,0.1-0.5c-0.1-1.1-0.1-2.1-0.2-3.2c0-0.6-0.1-1.1-0.7-1.3c0.1-0.1,0.1-0.1,0.2-0.2c0.3-0.3,0.4-0.6,0.4-0.9 c0-1-0.1-1.9-0.1-2.9c0-0.6-0.6-1-1.2-1C40.2,46.2,40.1,46.2,40,46.2z"></path> <path style="fill:#FFFFFF;" d="M28.3,39.4c0.1,0.6,0.3,1,0.7,1.4c0.3,0.2,0.6,0.3,0.9,0.3c0.6,0,1-0.2,1.5-0.5 c0.1-0.1,0.2-0.2,0.3-0.2c0.2-0.1,0.3,0,0.4,0.1c0.1,0.1,0.1,0.3,0,0.4c-1.1,1.2-2.5,1.9-4.2,1.8c-1.4-0.1-2.4-1.2-2.5-2.4 c-0.1-1.3,0.3-2.5,1.2-3.5c0.9-1,1.9-1.6,3.2-1.9c0.5-0.1,1-0.1,1.5,0c0.1,0,0.2,0.1,0.3,0.1c1,0.3,1.1,1.3,0.5,2 c-0.2,0.3-0.5,0.5-0.8,0.6c-0.9,0.5-1.8,1.1-2.6,1.6C28.6,39.2,28.5,39.3,28.3,39.4z M28.4,38.2c0.6-0.2,1-0.6,1.5-0.9 c0.1-0.1,0.1-0.2,0.2-0.3c0.1-0.3,0.1-0.5,0-0.7c-0.1-0.3-0.3-0.4-0.6-0.2c-0.3,0.1-0.5,0.3-0.6,0.6c-0.1,0.4-0.3,0.7-0.4,1.1 C28.4,37.9,28.4,38,28.4,38.2z"></path> <path style="fill:#FFFFFF;" d="M67.5,34.8c0.6,0,1.2,0.1,1.8,0.4c1,0.5,1.4,1.3,1.3,2.3c0,0.3-0.1,0.7-0.3,1c-0.6,1.7-1.8,2.6-3.5,3 c-0.8,0.2-1.6,0.1-2.4-0.2c-0.9-0.4-1.5-1.2-1.4-2.2c0-0.6,0.2-1.2,0.5-1.7c0.8-1.5,2-2.4,3.7-2.5C67.2,34.8,67.4,34.8,67.5,34.8z M65,40C65,40,65.1,40,65,40c0,0.1,0,0.1,0,0.2c0,0.7,0.5,1,1.2,0.8c0.2-0.1,0.3-0.2,0.4-0.3c0.2-0.1,0.3-0.3,0.4-0.5 c0.3-0.5,0.6-1.1,0.8-1.6c0.2-0.4,0.3-0.8,0.5-1.2c0.1-0.3,0.2-0.6,0.2-0.9c0-0.7-0.3-1.1-1-1.1c-0.3,0-0.5,0.1-0.7,0.3 c-0.3,0.2-0.5,0.5-0.7,0.9c-0.5,0.9-0.8,1.9-1,3C65.1,39.6,65.1,39.8,65,40z"></path> <path style="fill:#FFFFFF;" d="M84.5,38.5c0.4-0.1,0.7-0.3,1-0.4c0.4-0.1,0.7-0.2,1.1-0.1c0.2,0,0.5,0.1,0.7,0.3 c0.3,0.2,0.3,0.5,0.2,0.9c-0.2,0.4-0.4,0.7-0.8,1c-0.2,0.2-0.5,0.1-0.6-0.2c-0.1-0.3-0.3-0.4-0.5-0.4c-0.6,0-1.1,0.1-1.6,0.3 c-0.1,0-0.1,0.1-0.2,0.2c-0.3,0.5-0.6,1.1-0.8,1.6c-0.4,0.7-0.7,1.4-1.1,2.1c-0.2,0.3-0.4,0.5-0.8,0.6c-0.5,0.1-1,0-1.5-0.2 c-0.2-0.1-0.3-0.2-0.4-0.3c-0.2-0.2-0.1-0.5,0-0.7c0.2-0.4,0.3-0.7,0.5-1c0.6-1.2,1.2-2.4,1.7-3.5c0.1-0.1,0.1-0.3,0.2-0.5 c-0.1,0-0.2-0.1-0.3-0.1c-0.2-0.1-0.3-0.2-0.3-0.4c0-0.2,0.1-0.3,0.3-0.3c0.7-0.2,1.5-0.2,2.2,0c0.1,0,0.2,0.1,0.3,0.1 C84.4,37.6,84.6,38,84.5,38.5z"></path> <path style="fill:#FFFFFF;" d="M46.9,34.2c0.7,0.4,1.4,0.8,2.1,1.2c0,0.1,0,0.1,0,0.1c-0.1,0.2-0.3,0.2-0.4,0.4 c-0.1,0.2-0.3,0.2-0.5,0.3c0,0.1-0.1,0.2-0.2,0.3c0.5,0,0.5,0,0.8,0.2c-0.1,0.2-0.2,0.3-0.3,0.5c-0.1,0.2-0.1,0.3,0.1,0.5 c0.1,0.1,0.3,0.2,0.5,0.3c0.1-0.2,0.2-0.4,0.4-0.6c0.4,0.2,0.8,0.4,1.1,0.6c0.2,0.1,0.2,0.3,0.1,0.4c-0.1,0.2-0.2,0.4-0.3,0.6 c-0.2-0.1-0.4-0.2-0.5-0.3c-0.1,0-0.2-0.1-0.3-0.1c-0.1,0-0.2,0.1-0.3,0.2c0,0.1,0,0.3,0.1,0.3c0.1,0.1,0.2,0.1,0.3,0.2 c0.1,0.1,0.2,0.1,0.3,0.2c-0.1,0.2-0.2,0.3-0.3,0.5c-0.2-0.1-0.4-0.2-0.6-0.3c-0.1,0-0.2-0.1-0.3,0c-0.2,0.1-0.2,0.4,0,0.6 c0.2,0.1,0.4,0.2,0.6,0.3c-0.1,0.2-0.2,0.4-0.3,0.6c-0.1,0.2-0.2,0.2-0.4,0.1c-0.2-0.1-0.3-0.2-0.5-0.3c-0.2-0.1-0.4-0.2-0.7-0.4 c0.1-0.2,0.2-0.3,0.3-0.5c0.1-0.3,0.1-0.4-0.2-0.5c-0.1,0-0.1-0.1-0.2-0.1c-0.2-0.1-0.4-0.1-0.5,0.2c-0.1,0.1-0.2,0.3-0.3,0.5 c-0.2-0.1-0.3-0.2-0.4-0.3c-0.1,0.1-0.1,0.2-0.2,0.3c-0.1,0.2-0.2,0.2-0.4,0.2c-0.4-0.1-0.8-0.3-1.1-0.6c0.1-0.1,0.1-0.2,0.1-0.3 c0.7-1.3,1.4-2.6,2.1-3.9c0.1-0.1,0.1-0.2,0-0.4c-0.1-0.2,0-0.4,0-0.6c0-0.1,0.1-0.2,0-0.3C46.9,34.4,46.9,34.3,46.9,34.2z"></path> <path style="fill:#FFFFFF;" d="M57.6,64.3c0,0.2,0,0.4,0,0.6c0,0.3,0.2,0.5,0.6,0.5c0.4,0,0.7-0.2,1-0.4c0.2-0.1,0.3-0.2,0.5-0.3 c0,0,0,0,0,0c0.3,0.6,0.3,0.6-0.3,1c-0.6,0.5-1.3,0.7-2.1,0.6c-0.8-0.1-1.2-0.8-1.2-1.6c0.1-0.8,0.4-1.5,0.9-2.1 c0.5-0.6,1.2-1.1,2-1.3c0.4-0.1,0.8-0.1,1.2,0c0.4,0.1,0.5,0.3,0.6,0.7c0.1,0.6-0.2,0.9-0.6,1.3c-0.3,0.3-0.6,0.4-1,0.6 c-0.4,0.2-0.9,0.3-1.3,0.3C57.8,64.3,57.7,64.3,57.6,64.3z M58,63.6c0.1,0,0.2,0,0.3-0.1c0.6-0.2,1.1-0.5,1.3-1.2c0-0.1,0-0.2,0-0.3 c-0.1-0.1-0.2-0.2-0.3-0.1c-0.1,0-0.3,0.1-0.4,0.2c-0.2,0.1-0.3,0.3-0.4,0.5C58.3,62.8,58.1,63.2,58,63.6z"></path> <path style="fill:#FFFFFF;" d="M52.1,66.4c0-0.1,0-0.2,0-0.2c0-1.5,0.1-3,0.1-4.5c0-0.2,0.1-0.3,0.2-0.3c0.2,0,0.4-0.1,0.6-0.1 c0.4,0,0.6,0.2,0.6,0.7c0,0.3-0.1,0.7-0.1,1c-0.1,0.6-0.1,1.3-0.2,1.9c0,0,0.1,0,0.1,0c0.5-0.6,1-1.2,1.3-1.9 c0.1-0.3,0.2-0.5,0.2-0.8c0-0.1,0-0.2,0-0.3c0-0.4,0.3-0.7,0.8-0.7c0.4,0,0.6,0.2,0.7,0.6c0,0.3-0.1,0.7-0.2,1 c-0.3,0.6-0.7,1.1-1.1,1.6c-0.6,0.7-1.2,1.3-1.9,2c-0.1,0.1-0.2,0.2-0.4,0.2C52.6,66.4,52.4,66.4,52.1,66.4z"></path> <path style="fill:#FFFFFF;" d="M40.2,60.7c1-0.5,2-0.5,2.9,0.1c0.9,0.5,1.3,1.4,1.4,2.4c0,0-0.1,0.1-0.1,0.1 c-0.8,0.1-1.5,0.1-2.3-0.2c-0.6-0.2-1.1-0.6-1.4-1.1C40.6,61.5,40.4,61.1,40.2,60.7z"></path> <path style="fill:#FFFFFF;" d="M44.5,63.7c-0.1,1.1-0.6,1.9-1.5,2.5c-0.9,0.5-1.9,0.5-2.8,0c0.3-0.6,0.5-1.2,1-1.7 c0.2-0.2,0.3-0.3,0.5-0.4c0.1-0.1,0.3-0.2,0.4-0.1c0.1,0,0.2,0,0.2-0.1c0.6-0.2,1.2-0.3,1.8-0.2C44.3,63.7,44.4,63.7,44.5,63.7z"></path> <path style="fill:#FFFFFF;" d="M49.9,65.5c0.2-0.1,0.3-0.2,0.5-0.3c0,0,0,0,0,0c0.1,0.5,0.2,0.4-0.2,0.7c-0.3,0.2-0.7,0.4-1.1,0.4 c-0.1,0-0.2,0-0.3,0c-0.3-0.1-0.5-0.3-0.4-0.6c0-0.1,0.1-0.2,0.1-0.4c0.4-1.2,0.9-2.4,1.3-3.6c0.1-0.3,0.3-0.5,0.5-0.6 c0.2-0.1,0.5,0,0.7,0.1c0.2,0.2,0.2,0.4,0.1,0.7c-0.2,0.6-0.5,1.3-0.7,1.9c-0.2,0.4-0.3,0.9-0.5,1.3C49.9,65.3,49.9,65.4,49.9,65.5 C49.8,65.5,49.9,65.5,49.9,65.5z"></path> <path style="fill:#FFFFFF;" d="M49.4,30.6C49.3,30.6,49.3,30.6,49.4,30.6c-0.2,0.3-0.4,0.4-0.6,0.4c-0.3,0.1-0.7,0.2-1,0.4 c-0.2,0.1-0.3,0.2-0.5,0.4c-0.2,0.2-0.2,0.4,0,0.6c0.1,0.1,0.2,0.2,0.1,0.4c0.2,0.1,0.3,0.2,0.5,0.3c0.4,0.2,0.8,0.2,1.2,0.2 c0.5,0,1-0.1,1.5-0.2c0.2,0,0.4,0,0.5,0c0.1,0,0.2,0,0.3,0.1c0,0.1,0.1,0.3,0,0.4c-0.1,0.1-0.2,0.2-0.4,0.3 c-0.3,0.1-0.6,0.2-0.9,0.2c-0.8,0.1-1.7,0-2.5-0.3c-0.4-0.1-0.7-0.3-0.9-0.7c0-0.1-0.1-0.1-0.1-0.2c0-0.1,0-0.2-0.1-0.2 c0,0,0-0.1,0-0.1c0-0.5,0.2-0.8,0.5-1.1c0.3-0.3,0.7-0.5,1.1-0.6c0.4-0.1,0.9-0.3,1.3-0.4C49.4,30.5,49.4,30.5,49.4,30.6 C49.4,30.6,49.4,30.6,49.4,30.6z"></path> <path style="fill:#FFFFFF;" d="M50.4,60.1c0-0.4,0.4-0.8,0.7-0.8c0.3-0.1,0.5,0.2,0.5,0.4c0,0.4-0.2,0.8-0.6,0.9 C50.7,60.7,50.4,60.5,50.4,60.1z"></path> </svg> 