<?xml version="1.0" encoding="UTF-8"?> <svg xmlns="http://www.w3.org/2000/svg" xmlns:xlink="http://www.w3.org/1999/xlink" version="1.1" id="Layer_1" x="0px" y="0px" viewBox="0 0 1000 1000" style="enable-background:new 0 0 1000 1000;" xml:space="preserve"> <path style="fill:#FFFFFF;" d="M387.7,841.9c-6.6-1.3-13.2-2.6-19.8-3.8c-4.4-0.8-6.4-3.1-6.1-7.9c0.4-7,0.1-14.1,0.1-20.7 c11.3,1.5,22,3.9,32.7,4.2c22.2,0.6,30.8-10.2,27.2-31.2c-9.4,3.1-18.9,8-28.7,9.1c-25,2.8-42.5-12.4-47.8-39.8 c-3.3-16.8-2.3-33.5,2.2-50c6.2-22.9,22.6-34.6,45-38.7c19.3-3.5,38.5-1.3,56.9,5.3c2.6,0.9,5.5,5.2,5.5,8 c0.4,38.1,0.6,76.2,0.1,114.3c-0.3,29.4-14.9,45.3-43.9,49.6c-1.3,0.2-2.6,1-3.8,1.6C400.7,841.9,394.2,841.9,387.7,841.9z M422.4,721.4c0-6.8,0.3-13.6-0.2-20.4c-0.1-2.2-1.6-5.3-3.3-6.2c-14.6-7.9-34.3-0.6-38.1,15.5c-2.6,11.2-2.9,23.3-1.8,34.8 c1.3,13.9,10.1,20,23.1,18.7c11.6-1.1,20-10.5,20.3-22.9C422.5,734.4,422.4,727.9,422.4,721.4z"></path> <path style="fill:#FFFFFF;" d="M981.6,760.4c-9.9,23.9-21.8,31.8-48.3,31.9c-3.6,0-7.2-0.1-10.6-0.7c-33.1-6.3-26.7-2.5-25.9-33.7 c11.2,2.7,22.6,5.6,34.1,8c2.8,0.6,6.6,0.8,8.7-0.6c3.4-2.2,7.3-5.6,8.1-9.1c0.6-2.9-2.2-8.3-5-9.8c-8.3-4.5-17.3-7.5-26-11.3 c-17.6-7.6-26-20.8-24.6-38.9c1.4-18.2,11.9-29.8,29.9-33.3c15.4-3,30.1-0.4,44.6,4.3c2.2,0.7,4.8,4.2,5,6.7 c0.7,6.7,0.2,13.5,0.2,21.2c-8.4-2.3-15.9-4.6-23.6-6.3c-12.2-2.6-21.3,0.5-23.3,7.3c-1.8,6,3.1,10.8,16.3,15.6 c4.2,1.5,8.3,3.2,12.6,4.4c14.9,4.2,22.3,15.4,27.8,28.5C981.6,749.7,981.6,755.1,981.6,760.4z"></path> <path style="fill:#FFFFFF;" d="M703.3,343.9c0.1,114-88.5,202.4-202.8,202.3c-112.7-0.1-202.6-89.1-202.8-200.8 c-0.2-112.8,90.2-202.8,203.5-202.6C614,143,703.2,231.7,703.3,343.9z M590.2,343.9c-0.7-48.7-41.6-88.7-90.3-88.1 c-49,0.6-88.8,41-88.6,89.7c0.3,48.6,41.1,88.3,90.2,87.8C550.8,432.8,590.9,392.3,590.2,343.9z"></path> <path style="fill:#FFFFFF;" d="M616.3,791.8c-11.1,0-21.3,0-32.4,0c0-8.9,0-17.4,0-25.8c0-29.8,0.1-59.7-0.1-89.5 c0-4.8,0.9-7.5,6.3-8.5c7.8-1.5,15.4-4,23.8-6.3c0,5.7,0,10.6,0,18.2c10.6-11.7,22.1-17.7,35.8-18.3c14.5-0.6,26.1,4.9,32.9,19.8 c8.3-11.6,18.9-18.4,32.6-19.5c22.5-1.7,36.7,6,40.6,28.5c1.3,7.8,1.8,15.8,1.9,23.8c0.2,25.7,0.1,51.3,0.1,77.5 c-11,0-21.2,0-32.9,0c0-16.1,0-32.3,0-48.4c0-10.6,0.3-21.3-0.2-31.9c-0.7-15.7-5.3-20.9-17.2-20.5c-12.1,0.4-20.1,9.1-20.1,22.3 c-0.1,26,0,51.9,0,78.4c-11,0-21.5,0-33,0c0-18.4,0.1-36.7,0-55c-0.1-9.1,0-18.3-0.8-27.4c-1.2-14.6-5.5-19-17.2-18.4 c-10.8,0.5-20,9.8-20.1,20.9c-0.2,23.3-0.1,46.7-0.1,70C616.3,785,616.3,788.2,616.3,791.8z"></path> <path style="fill:#FFFFFF;" d="M54,613c0,20.7,0,40,0,60.9c12.7-9.9,25.8-13.8,40.6-11.4c14.6,2.4,25.3,10,30.9,23.6 c10.1,25,9.7,50.4-0.7,74.9c-9.1,21.5-28.7,29.8-50.4,30.3c-15.7,0.4-31.5-3.6-47.3-5.7c-5.3-0.7-6.8-4-6.8-9.3 c0.2-49.3,0.2-98.5,0-147.8c0-5.1,1.5-7.4,6.5-8.5C35.6,618.2,44.1,615.7,54,613z M99.3,725.2c-0.9-5.5-1.3-11.4-2.8-17.1 c-3-11.6-11.1-16.5-23.5-15c-10.2,1.2-18.7,9.9-19,20.2c-0.3,14.1-0.4,28.3,0.2,42.4c0.1,2.5,3.1,6.2,5.6,7 c19.3,6.2,33.5-2.3,37.3-22.2C98,735.6,98.5,730.6,99.3,725.2z"></path> <path style="fill:#FFFFFF;" d="M805.3,735.1c0.3,18.1,13.2,30.3,32.5,30c12-0.2,23.9-3,36.4-4.7c0,2.6,0,5.8,0,9 c0,18.4,0.1,19-18.2,20.8c-12.6,1.2-25.7,2.3-38,0.1c-23-4.1-38.2-18.4-43.6-41.3c-4.5-19-4.2-38.1,3.7-56.4 c13.3-30.6,62.1-41.9,87.4-19.8c5.5,4.8,10.8,12,12.2,18.8c2.8,13.9,2.9,28.4,4.1,43.5C855.1,735.1,830.6,735.1,805.3,735.1z M850.6,714.5c1.2-9.6-0.7-17.7-8.4-23.2c-7.9-5.6-16.5-4.7-24.3,0c-8.5,5.1-11.5,13.4-11.6,23.2 C821.4,714.5,835.8,714.5,850.6,714.5z"></path> <path style="fill:#FFFFFF;" d="M564.2,792.1c-10.2,0-19,0-28.3,0c-0.8-2.4-1.5-4.8-2.2-6.8c-8.2,2.3-15.7,5.1-23.5,6.4 c-18,3-34.5-5.6-40.4-20.3c-6.9-16.9-2.1-36.8,13.5-46.3c9.8-6,21.7-8.9,32.8-12.4c5-1.6,10.5-1.4,15.6-2.1 c2.9-13.8-2.2-21.5-15.8-21.1c-13.4,0.4-26.8,3.3-41.1,5.2c0-6.3-0.3-13.9,0.2-21.4c0.1-1.9,2.4-4.7,4.3-5.3 c17.7-5.3,35.7-8.7,54.3-5.5c19.6,3.3,30.2,14.4,30.5,34.2C564.5,728.3,564.2,759.8,564.2,792.1z M532.9,735.5 c-9.2,1.4-18.3,1.9-26.9,4.4c-3.5,1-8.3,6.6-8,9.8c0.4,4.3,4.2,9.5,8.1,11.9c6.5,4,13.7,2.3,19.9-2.2 C533.6,754,535.9,746.7,532.9,735.5z"></path> <path style="fill:#FFFFFF;" d="M253.7,735.2c-25.7,0-50.5,0-75.3,0c-0.6,14.8,7.6,26.7,22.9,28.3c14.6,1.5,29.7-0.9,45.7-1.6 c0,5.3,0.2,13.1-0.2,20.9c-0.1,1.5-2,3.8-3.4,4.1c-25.5,6.2-50.9,10.4-74.5-5.8c-4.3-3-8.2-6.8-11.5-10.9 c-17.8-21.9-17.2-68.2,0.9-89.8c18.1-21.6,60.6-25.2,81.7-6.6c9.5,8.3,12.9,19.7,13.6,31.7C254.2,714.9,253.7,724.4,253.7,735.2z M223.2,714.7c1.2-10.2-0.5-18.6-9-24c-8.1-5.2-16.7-3.9-24.3,1c-7.9,5.2-10.9,13.1-10.6,22.9C194.1,714.7,208.2,714.7,223.2,714.7z "></path> <path style="fill:#FFFFFF;" d="M917.8,533.5c-14.5-0.3-32.1-10.5-41.7-31.8c-40.2-89.1-80.4-178.3-119.8-267.8 c-13.6-30.9-0.9-61.9,27.9-74.1c29-12.3,59.7-0.2,73.7,30.6c39.8,87.8,79.3,175.7,118.1,263.9C993.5,494.2,968.3,533.4,917.8,533.5z "></path> <path style="fill:#FFFFFF;" d="M250.7,473.9c-0.2,30.7-17.4,52.6-41.2,58.4c-27.1,6.6-52.6-5-64.8-31.5 c-27.3-59.5-53.8-119.3-80.5-179c-12.4-27.6-24.9-55.1-37-82.9c-14.8-34-4.6-65.5,25-78.7c30.2-13.4,60.9-0.4,76,33 c39.1,86.6,77.9,173.3,116.5,260.1C248.2,461.5,249.7,470.6,250.7,473.9z"></path> <path style="fill:#FFFFFF;" d="M324.5,789.5c-7.8,1-14.9,2.6-21.9,2.5c-21.8-0.1-34.2-12.6-34.3-34.3c-0.1-39.9,0.2-79.8,0-119.7 c0-5.7,1.4-8.5,7.4-9.6c8.1-1.5,16-4.1,25.3-6.6c0,13.6,0,26.3,0,40.1c8.5,0,15.8,0,23.5,0c0,9.6,0,18,0,27.6c-7.4,0-14.7,0-22.2,0 c0,21.6-0.5,42.2,0.3,62.7c0.3,7.1,6.4,10.2,13.6,9.5c2.6-0.2,5.2-0.8,8.3-1.3C324.5,770,324.5,779.1,324.5,789.5z"></path> </svg> 