<?xml version="1.0" encoding="UTF-8"?> <svg xmlns="http://www.w3.org/2000/svg" xmlns:xlink="http://www.w3.org/1999/xlink" version="1.1" id="Layer_1" x="0px" y="0px" viewBox="0 0 1000 1000" style="enable-background:new 0 0 1000 1000;" xml:space="preserve"> <g> <path style="fill:#FFFFFF;" d="M489.5,119.5c26,4,52.3,6.8,77.9,12.4c41.1,9,79.7,25,113.5,50.1c26,19.4,50.8,40.5,74.7,62.4 c11.1,10.2,18.8,24,28,36.2c-1.9,1.9-3.8,3.8-5.6,5.8c-46.4-58.3-103.5-100.2-175.2-120.6c-72.5-20.7-144.2-20.8-216.5,1.8 c-71.6,22.4-130.4,62.3-175.1,123c-1.5-0.8-3-1.6-4.6-2.4c3-11.6,5.4-23.4,9-34.7c7.6-23.7,25.9-39.4,43.1-56 c48.3-46.7,109.6-63,173.1-74.2c11-1.9,22.3-2.5,33.5-3.8C473.4,119.5,481.4,119.5,489.5,119.5z"></path> <path style="fill:#FFFFFF;" d="M68.3,389.2c26.4,0.2,53.3-2.8,78.9,1.7c21.1,3.7,25.9,24.7,25.8,44.7l0.3-0.5 c-11.6,32.6-39.2,37-68.9,37.1c0,9.6,0.1,17.8,0,26c-0.2,20.9-1,21.9-21.5,21.6c-4.9-0.1-9.7-1.1-14.6-1.8 C68.3,475.1,68.3,432.2,68.3,389.2z M102.4,442c11.7,2.1,23.5,4.7,31.1-6.6c2.6-3.7,2-14.7-0.1-15.6c-8.9-3.8-18.9-5.1-28.8-7.5 C103.8,424.9,103.1,433.1,102.4,442z"></path> <path style="fill:#FFFFFF;" d="M925.7,434.2c-10.7,34-37.5,38.6-69.8,35.8c0,12-1,22.9,0.2,33.4c1.8,15.3-4.9,19.6-18.7,17.8 c-3.9-0.5-7.9-0.1-12.9-0.1c0-45.3,0-89.9,0-136.3c17.4,0,34.3-0.3,51.2,0.1c24.1,0.6,41.4,11.4,50,34.4 C925.7,424.2,925.7,429.2,925.7,434.2z M855.2,414.5c0,6.2,0.3,11.6-0.1,17c-0.4,6.8-1.2,15,8.6,13c9.2-1.8,24.3,3.4,24.4-14.5 C888.1,415.7,880,411.6,855.2,414.5z"></path> <path style="fill:#FFFFFF;" d="M769,689.7c12.4-16.3,24.8-32.6,38.8-51.2c-11.9-1.4-21-2.5-33.4-4c28.6-30.4,55.1-58.8,81.9-86.9 c7.7-8.1,16.3-15.3,26.8-25c7,51.7,13.6,100.5,20.2,149.3c-1.1,1-2.2,2-3.4,3c-7.4-6.6-14.8-13.2-22.9-20.4 C788.6,808.1,655.4,881.9,479,860.3c-133.9-16.4-236.5-86.5-294-213.2c34.9,55.3,78,102.1,136.2,133.6 c59,31.9,121.8,48.2,188.8,45.7c66.6-2.5,129.4-17.8,177.9-61c-4.9-9.1-10.7-16.6-12.3-24.9c-0.5-2.9,11.6-12.1,14.4-10.8 c7.4,3.4,12.8,11,21.7,19.6c16.5-17.2,35.9-37.5,55.3-57.7C767.8,691,768.4,690.4,769,689.7z"></path> <path style="fill:#FFFFFF;" d="M467.5,399c-11.2,38-22.6,73.2-31.8,109c-3.8,14.9-13.2,12.4-23.5,13.3c-11.1,1-14.6-3.8-16.6-13.8 c-3.4-16.7-8.4-33-15.5-49.5c-4.3,16.7-9.6,33.3-12.8,50.2c-3.4,17.6-16.4,11.6-26.9,13c-10.9,1.5-12.5-4.7-14.8-13.5 c-9.1-35-19.4-69.6-29.1-103.9c3-1.6,3.8-2.4,4.6-2.4c29.8-1.2,37.7,7.7,40.9,45.8c0.6,7.3,0.9,14.7,1.3,22 c1.2,0.2,2.5,0.5,3.7,0.7c2.8-9.7,5.6-19.4,8.3-29.2c0.9-3.3,1.5-6.8,2.4-10.1c9.8-38.6-0.4-30.8,44.1-31.5 c4.5,23.4,9.2,47,13.8,70.7c0.7,0.1,1.3,0.2,2,0.3c2.9-14.5,5.7-29,8.7-43.5c4.8-23,4.9-23,27.8-25.7 C458.2,400.2,462.6,399.6,467.5,399z"></path> <path style="fill:#FFFFFF;" d="M688.1,385.9c13.9,0,23.8,0,35.9,0c0,26.5,0.5,52.6-0.2,78.8c-0.3,12.1,4.6,20.5,14.9,25.2 c15.5,7.1,30.9-5.8,29.7-23.3c-1.4-20.6-1.5-41.3-2.4-61.9c-0.6-14.9,5.3-22.4,21.2-19.7c4.4,0.8,8.9,0.8,14.4,1.3 c0,31.8,2,63.2-0.6,94.2c-2.2,25.4-34.1,44-61.4,39.8c-38.1-5.9-49.5-18.3-51.3-58.4C687.2,437,688.1,412.2,688.1,385.9z"></path> <path style="fill:#FFFFFF;" d="M173,435.6c16.7-32.6,72.2-49.6,99.8-29.2c19,14,33.2,34.5,28.6,57.9c-5.1,26.3-23.4,46.1-50.7,53.5 c-45.8,12.3-83.1-21.3-78.2-69.4c0.4-4.4,0.6-8.8,0.8-13.2C173.2,435.2,173,435.6,173,435.6z M263.7,461.2c1.3-0.5,2.5-1.1,3.8-1.6 c-5-9.7-8.2-21-15.4-28.6c-10.6-11.2-38.4-5.7-41.3,7.1c-2.6,11.6-3.6,23.8-4.1,35.7c-0.2,4.1,2.4,9.1,5.3,12.3 c9.9,10.9,22.8,14.6,35.9,7.9C260.3,487.5,266.2,476,263.7,461.2z"></path> <path style="fill:#FFFFFF;" d="M627.4,473.6c8.9,15.1,17.4,29.4,25.9,44c-22.1,8.2-31.7,5.1-42.5-13.3 c-5.6-9.5-10.8-19.1-16.2-28.7c-1.4,0.3-2.8,0.7-4.2,1c0,13.9,0,27.9,0,44.4c-8.9,0-15.9,1.1-22.3-0.4c-3.6-0.8-8.7-5.8-8.8-9 c-0.6-37.3-0.4-74.6-0.4-114.2c22.6,1.5,44.1,1.3,64.9,4.8c15.2,2.6,25.2,14.1,27.3,30.2c1.9,14.9-3.2,27.3-16,35.9 C632.6,469.8,630.3,471.5,627.4,473.6z M589.9,453.8c10.8-3.8,20.2-6.6,28.9-10.9c1.2-0.6-0.1-11.6-2.5-12.7 c-8-3.4-17-4.5-26.4-6.6C589.9,435,589.9,442.7,589.9,453.8z"></path> <path style="fill:#FFFFFF;" d="M505.4,425.4c0,7.3,0,13.5,0,21.2c12.6,0,24.4,0,37.3,0c0.4,7.2,0.6,13,1,21.5 c-13.1,0.8-25.6,1.6-38.1,2.4c-9,21.7-4.4,28.9,18.5,28.8c3.5,0,7.5-1.2,10.4,0.2c4.5,2.1,10.4,5.2,11.6,9.2 c2.4,7.6-2.5,11.4-10.7,11.4c-18.8-0.2-37.5-0.1-57.4-0.1c0-39,0-78.1,0-119.3c22.5,0,45,0,69,0c0,8.5,0,16,0,24.6 C532.5,425.4,519.2,425.4,505.4,425.4z"></path> <path style="fill:#FFFFFF;" d="M366.5,569.5c21,0.3,35.1,14.1,34.6,33.8c-0.4,16.9-16.9,31.1-35.9,30.8 c-16.9-0.3-29.2-13.3-29.2-31.1C336,579.7,345.6,569.2,366.5,569.5z M350.4,602.2c-0.3,13.5,7,22.4,19.1,20.8 c11.8-1.5,17.8-10.3,18.7-21.9c0.9-11-8.4-20.7-19.1-20.8C356.8,580.2,350.8,587.2,350.4,602.2z"></path> <path style="fill:#FFFFFF;" d="M283.1,570.2c15.3,0.7,32.4-5.1,40.5,10c3.7,6.8-2.5,18.9-4.2,28.6c-1.2-0.4-2.3-0.8-3.5-1.2 c4,7.9,8,15.8,12.6,24.7c-23.1,7-18.9-19-29.6-21c-3.9,8.7-7.5,16.6-11,24.4c-1.6-0.5-3.2-1-4.7-1.5 C283.1,613.4,283.1,592.6,283.1,570.2z M289.8,593.9c2,2.5,4,4.9,6,7.4c5.9-3.3,11.8-6.6,17.7-9.8c-3.5-3.8-7-7.6-10.5-11.4 C298.6,584.7,294.2,589.3,289.8,593.9z"></path> <path style="fill:#FFFFFF;" d="M461.9,595.2c-0.7,7.4-0.4,15.1-2.2,22.2c-3,11.8-12.5,16.6-23.9,16.4c-10.3-0.2-20.7-2.4-22-15.4 c-1.5-14.3-2.2-28.6-2.6-43c-0.1-1.8,3.7-3.6,5.7-5.4c2.3,2.6,6.3,5,6.5,7.8c0.7,9.9,0.5,20-0.1,29.9c-0.6,9.4,3.6,14.3,12.5,15 c9.5,0.7,13.6-4.9,13.7-13.8c0-10-0.6-20,0-29.9c0.2-3.1,3.2-6.1,4.9-9.1c2.4,3,6.1,5.6,6.8,9c1.1,5.2,0.3,10.9,0.3,16.4 C461.5,595.1,461.7,595.2,461.9,595.2z"></path> <path style="fill:#FFFFFF;" d="M530.7,624c7.2,0.5,14.8,0.9,22.3,1.4c0.2,2,0.3,4,0.5,6.1c-9.8,0.8-19.8,2.7-29.4,1.7 c-2.5-0.2-5.7-9.2-5.9-14.3c-0.8-15.4-0.3-30.8-0.3-47.7c12.2,0,24.1,0,35.9,0c0.4,1.6,0.7,3.2,1.1,4.8c-4.2,1.2-8.2,3-12.5,3.5 c-5.9,0.7-13.7-3.6-14.3,7.5c-0.5,9.6,5.2,10.1,12.5,10.1c3.8,0,7.5,2.4,13.5,4.4C544.5,609.6,520.8,599.5,530.7,624z"></path> <path style="fill:#FFFFFF;" d="M674.1,569c10.1,0,19.1-0.3,28,0.2c2.3,0.1,4.5,2.4,6.8,3.6c-2.3,1.7-4.5,3.7-7,5.1 c-5.4,3-13.5,4.4-15.8,8.9c-3.1,6,0.1,12.4,9.5,12.4c3.4,0,6.9,3,10.3,4.6c-3.7,1.4-7.3,3-11.1,4c-2.3,0.6-5,0.1-7.3,0.1 c-5.1,14-5.1,14,20.9,22c-11.1,0-22.2,0-34.3,0C674.1,611.1,674.1,591,674.1,569z"></path> <path style="fill:#FFFFFF;" d="M629.9,581.7c-4.8-1.7-9.6-3.4-14.4-5.1c0.2-1.5,0.4-3.1,0.5-4.6c14.8,0,29.6,0,44.4,0 c0.6,1.2,1.2,2.3,1.7,3.5c-5.2,2.3-10.5,4.6-17,7.4c-5.1,15.3,5.5,34.9-5.7,50.6c-1.9-0.1-3.8-0.1-5.7-0.2 C632.5,616.4,631.2,599.5,629.9,581.7z"></path> <path style="fill:#FFFFFF;" d="M579.7,580.9c-6.5-1.5-11.5-2.7-16.5-3.9c0.1-1.5,0.1-2.9,0.2-4.4c15,0,30,0,45.1,0 c0.5,1.2,0.9,2.4,1.4,3.6c-5.4,1.7-10.8,3.5-17.3,5.6c0,15,0,31.3,0,47.5c-1.3,1-2.7,2-4,3c-2.9-3.5-8.1-6.9-8.4-10.6 C579.1,608.4,579.7,595,579.7,580.9z"></path> <path style="fill:#FFFFFF;" d="M487.5,622.8c7.8,1.5,14.3,2.8,20.8,4c-0.1,2.2-0.2,4.4-0.3,6.6c-9.7,0.2-19.4,0.9-29,0.3 c-1.5-0.1-3.9-5.4-4-8.3c-0.4-15.9-0.7-31.8,0-47.6c0.1-2.9,4.6-5.7,7.1-8.5c1.8,3.3,5,6.5,5.1,9.8 C487.9,593.4,487.5,607.7,487.5,622.8z"></path> <path style="fill:#FFFFFF;" d="M520.8,805c-6.3,4-12.9,11.3-18.9,10.9c-5.3-0.4-13.8-9.5-13.8-14.7c0-5.2,8.6-14.3,13.9-14.5 c6-0.3,12.5,7.1,18.7,11.2C520.8,800.2,520.8,802.6,520.8,805z"></path> <path style="fill:#FFFFFF;" d="M769,689.7c-0.6,0.7-1.2,1.3-1.8,1.9c-2.9,0.2-6-0.1-8.7,0.8c-11.1,3.7-17.9-3.7-17.9-11.6 c0.1-6.1,7.4-15.6,13.4-17.4c8.7-2.5,16,3.9,16,14.6C770,681.9,769.4,685.8,769,689.7z"></path> <path style="fill:#FFFFFF;" d="M336.5,744.6c-10.1,7.2-16.3,15.1-21.6,14.6c-5.8-0.6-10.8-9-16.2-14c5.3-5.5,10-14.1,16.2-15.4 C319.7,728.9,326.3,737.3,336.5,744.6z"></path> <path style="fill:#FFFFFF;" d="M426.4,787.1c-10.2,7-16.4,14.6-21.8,14.1c-5.6-0.5-13.6-8.2-14.9-14c-2.2-9.4,5.4-16.7,15-15.2 C410.9,773,416.2,779.7,426.4,787.1z"></path> <path style="fill:#FFFFFF;" d="M603.9,768.3c4.2,5.7,10.7,10.9,12,17.2c2.1,10-5.8,17.2-14.9,15.7c-5.7-0.9-13.6-9.1-14.2-14.8 c-0.6-5.5,6.7-11.9,10.6-17.9C599.6,768.5,601.7,768.4,603.9,768.3z"></path> <path style="fill:#FFFFFF;" d="M785,326.5c6.7,9,14.2,15,13.2,18.9c-1.5,6.2-7.7,14.2-13.5,15.8c-8.1,2.3-16.7-3.7-14.8-13.3 C771.2,341.4,778,336,785,326.5z"></path> <path style="fill:#FFFFFF;" d="M729,252.9c3.9,5.9,11.7,12.5,10.8,17.5c-1,5.6-9.5,12.8-15.4,13.5c-4.1,0.5-13-8.8-13.1-14 c-0.2-5.6,7.2-11.5,11.3-17.3C724.7,252.8,726.9,252.8,729,252.9z"></path> <path style="fill:#FFFFFF;" d="M271.1,249.1c6.4,9.7,13.3,15.5,12.7,20.5c-0.6,5.3-8.1,9.8-12.7,14.6c-5.1-4.9-13.1-9.3-14.3-15 C256,264.8,263.9,258.7,271.1,249.1z"></path> <path style="fill:#FFFFFF;" d="M350.9,192.6c6.9,8.6,15.1,14.4,14.4,18.9c-0.8,5.8-8.8,10.5-13.7,15.7c-4.8-4.8-13-9.2-13.5-14.4 C337.6,207.7,344.7,201.7,350.9,192.6z"></path> <path style="fill:#FFFFFF;" d="M661.3,212.7c-9.5,6.9-15.2,14.3-19.9,13.7c-5.2-0.6-13.4-8.5-13.4-13.1c0.1-5,7.7-12.9,13-13.8 C645.6,198.8,651.6,206,661.3,212.7z"></path> <path style="fill:#FFFFFF;" d="M213.5,326.7c6,9.6,12.4,15.4,12.2,20.9c-0.2,4.6-9.1,12.9-12.7,12.2c-5.6-1.1-13.6-8.2-13.9-13.2 C198.8,341.5,206.4,335.9,213.5,326.7z"></path> <path style="fill:#FFFFFF;" d="M213.7,591.4c-9.8,6.4-15.7,13.4-20.9,12.9c-5-0.5-13.1-8.9-12.8-13.4c0.3-5,8.3-12.9,13.4-13.4 C198.5,577.1,204.2,584.5,213.7,591.4z"></path> <path style="fill:#FFFFFF;" d="M446.1,201.6c-6.7-9.4-14.1-15.2-13.4-20c0.7-5.3,8.7-13.3,13.6-13.4c4.9,0,13.3,7.9,13.9,13 C460.7,186.2,453.2,192,446.1,201.6z"></path> <path style="fill:#FFFFFF;" d="M564.7,184c-8.9,4.9-15.2,11.2-19.4,10.1c-5.3-1.4-9-9-13.3-13.9c5.1-4.3,10.3-12.2,15.1-11.8 C552.2,168.6,556.9,176.6,564.7,184z"></path> <path style="fill:#FFFFFF;" d="M241.6,658.6c6.5,9.5,12.7,14.7,12.4,19.4c-0.3,4.7-8,13.1-11.1,12.6c-5.6-1-13.4-7-14.3-11.9 C227.9,674.2,235,668.2,241.6,658.6z"></path> </g> </svg> 