<?xml version="1.0" encoding="utf-8"?>
<!-- Generator: Adobe Illustrator 24.1.2, SVG Export Plug-In . SVG Version: 6.00 Build 0)  -->
<svg version="1.1" id="Layer_1" xmlns="http://www.w3.org/2000/svg" xmlns:xlink="http://www.w3.org/1999/xlink" x="0px" y="0px"
	 viewBox="0 0 257 48.5" style="enable-background:new 0 0 257 48.5;" xml:space="preserve">
<style type="text/css">
	.st0{fill:#FFFFFF;}
</style>
<g>
	<g>
		<g>
			<path class="st0" d="M53.4,34.9v5.7c0,0.5-0.2,0.7-0.6,0.7h-2.3c-0.5,0-0.6-0.2-0.6-0.7V23.9c0-0.5,0.2-0.7,0.6-0.7H56
				c4.8,0,6.5,2.1,6.5,4.4v3c0,2.2-1.6,4.4-6.5,4.4L53.4,34.9L53.4,34.9z M53.4,26.2v5.7H56c1.8,0,2.9-0.7,2.9-2v-1.8
				c0-1.3-1.1-2-2.9-2L53.4,26.2L53.4,26.2z"/>
			<path class="st0" d="M64.3,27.3c0-2.2,1.7-4.4,6.5-4.4s6.5,2.1,6.5,4.4v9.9c0,2.2-1.7,4.4-6.5,4.4s-6.5-2.1-6.5-4.4V27.3z
				 M73.7,28c0-1.3-1.1-2-2.9-2s-2.9,0.7-2.9,2v8.6c0,1.3,1.1,2,2.9,2s2.9-0.7,2.9-2V28z"/>
			<path class="st0" d="M83.7,34.9v5.7c0,0.5-0.2,0.7-0.6,0.7h-2.3c-0.5,0-0.6-0.2-0.6-0.7V23.9c0-0.5,0.2-0.7,0.6-0.7h5.6
				c4.8,0,6.5,2.1,6.5,4.4v3c0,2.2-1.6,4.4-6.5,4.4L83.7,34.9L83.7,34.9z M83.7,26.2v5.7h2.6c1.8,0,2.9-0.7,2.9-2v-1.8
				c0-1.3-1.1-2-2.9-2L83.7,26.2L83.7,26.2z"/>
			<path class="st0" d="M98.4,36.6c0,1.3,1.1,2,2.9,2s2.9-0.7,2.9-2V23.9c0-0.5,0.2-0.7,0.6-0.7h2.3c0.5,0,0.6,0.2,0.6,0.7v13.3
				c0,2.2-1.7,4.4-6.5,4.4s-6.5-2.1-6.5-4.4V23.9c0-0.5,0.2-0.7,0.7-0.7h2.3c0.5,0,0.6,0.2,0.6,0.7L98.4,36.6L98.4,36.6z
				 M100.7,21.1c0,0.5-0.2,0.7-0.6,0.7h-1.3c-0.5,0-0.6-0.2-0.6-0.7v-2.5c0-0.5,0.2-0.7,0.6-0.7h1.3c0.5,0,0.6,0.2,0.6,0.7V21.1z
				 M104.4,21.1c0,0.5-0.2,0.7-0.6,0.7h-1.3c-0.5,0-0.6-0.2-0.6-0.7v-2.5c0-0.5,0.2-0.7,0.6-0.7h1.3c0.5,0,0.6,0.2,0.6,0.7V21.1z"/>
			<path class="st0" d="M114.3,38.4h6c0.5,0,0.7,0.2,0.7,0.6v1.7c0,0.5-0.2,0.7-0.7,0.7h-9c-0.4,0-0.6-0.2-0.6-0.7V23.9
				c0-0.5,0.2-0.7,0.6-0.7h2.3c0.5,0,0.6,0.2,0.6,0.7L114.3,38.4L114.3,38.4z"/>
			<path class="st0" d="M123.4,41.4c-0.5,0-0.6-0.2-0.6-0.7V23.9c0-0.5,0.2-0.7,0.6-0.7h9.1c0.5,0,0.7,0.2,0.7,0.6v1.7
				c0,0.5-0.2,0.7-0.7,0.7h-6.2v4.3h5.7c0.5,0,0.7,0.2,0.7,0.6v1.6c0,0.5-0.2,0.6-0.7,0.6h-5.7v5h6.4c0.5,0,0.7,0.2,0.7,0.6v1.7
				c0,0.5-0.2,0.7-0.7,0.7h-9.3V41.4z"/>
			<path class="st0" d="M139.3,34.4v6.2c0,0.5-0.2,0.7-0.6,0.7h-2.3c-0.5,0-0.6-0.2-0.6-0.7V23.9c0-0.5,0.2-0.7,0.6-0.7h5.6
				c4.8,0,6.5,2.1,6.5,4.4v2.5c0,1.6-0.8,3.1-2.9,3.8l2.9,6.7c0.2,0.4-0.1,0.7-0.6,0.7h-2.3c-0.4,0-0.5-0.3-0.7-0.7l-2.6-6.2H142
				C142,34.4,139.3,34.4,139.3,34.4z M139.3,26.2v5.3h2.6c1.8,0,2.9-0.7,2.9-2v-1.3c0-1.3-1.1-2-2.9-2H139.3z"/>
			<path class="st0" d="M164.1,27.8c0-1.3-0.9-1.9-2.6-1.9c-1.7,0-2.6,0.6-2.6,1.9v0.4c0,0.9,0.7,1.3,1.1,1.4l4.6,1.7
				c1.8,0.6,3.2,1.9,3.2,3.8v2.1c0,2.2-1.6,4.4-6.4,4.4c-4.8,0-6.4-2.1-6.4-4.4v-1.7c0-0.5,0.2-0.7,0.6-0.7h2.2
				c0.5,0,0.6,0.2,0.6,0.7v1.2c0,1.3,1,1.9,2.8,1.9s2.8-0.6,2.8-1.9v-0.9c0-1.1-1.1-1.5-2.3-2l-4.1-1.5c-1.3-0.5-2.4-1.8-2.4-3.4
				v-1.6c0-2.2,1.4-4.4,6.1-4.4s6.2,2.1,6.2,4.4v1.1c0,0.5-0.2,0.7-0.7,0.7h-2.2c-0.5,0-0.6-0.2-0.6-0.7L164.1,27.8L164.1,27.8z"/>
			<path class="st0" d="M173.8,38.4h6c0.5,0,0.7,0.2,0.7,0.6v1.7c0,0.5-0.2,0.7-0.7,0.7h-9c-0.4,0-0.6-0.2-0.6-0.7V23.9
				c0-0.5,0.2-0.7,0.6-0.7h2.3c0.5,0,0.6,0.2,0.6,0.7L173.8,38.4L173.8,38.4z"/>
			<path class="st0" d="M181.7,27.3c0-2.2,1.7-4.4,6.5-4.4s6.5,2.1,6.5,4.4v9.9c0,2.2-1.7,4.4-6.5,4.4s-6.5-2.1-6.5-4.4V27.3z
				 M191.1,28c0-1.3-1.1-2-2.9-2s-2.9,0.7-2.9,2v8.6c0,1.3,1.1,2,2.9,2s2.9-0.7,2.9-2V28z"/>
			<path class="st0" d="M207.7,23.2c0.5,0,0.7,0.2,0.7,0.6v1.7c0,0.5-0.2,0.7-0.7,0.7h-3.8v14.5c0,0.5-0.2,0.7-0.6,0.7H201
				c-0.5,0-0.7-0.2-0.7-0.7V26.2h-3.8c-0.5,0-0.7-0.2-0.7-0.7v-1.7c0-0.5,0.2-0.6,0.7-0.6C196.5,23.2,207.7,23.2,207.7,23.2z"/>
			<path class="st0" d="M213.5,38.4h6c0.5,0,0.7,0.2,0.7,0.6v1.7c0,0.5-0.2,0.7-0.7,0.7h-9c-0.4,0-0.6-0.2-0.6-0.7V23.9
				c0-0.5,0.2-0.7,0.6-0.7h2.3c0.5,0,0.6,0.2,0.6,0.7L213.5,38.4L213.5,38.4z"/>
			<path class="st0" d="M228.7,23.2c0.5,0,0.7,0.2,0.9,0.7l5,16.8c0.1,0.4,0,0.7-0.5,0.7h-2.4c-0.5,0-0.6-0.2-0.8-0.7l-0.9-3.3h-5
				l-0.9,3.3c-0.1,0.4-0.3,0.7-0.8,0.7H221c-0.5,0-0.6-0.2-0.5-0.7l5-16.8c0.1-0.5,0.3-0.7,0.8-0.7H228.7z M228.2,31.6
				c-0.3-1.1-0.7-4.5-0.8-4.9c-0.1,0.3-0.5,3.7-0.8,4.8l-0.9,3h3.4L228.2,31.6z"/>
			<path class="st0" d="M239.7,34.4v6.2c0,0.5-0.2,0.7-0.6,0.7h-2.3c-0.5,0-0.6-0.2-0.6-0.7V23.9c0-0.5,0.2-0.7,0.6-0.7h5.6
				c4.8,0,6.5,2.1,6.5,4.4v2.5c0,1.6-0.8,3.1-2.9,3.8l2.9,6.7c0.2,0.4-0.1,0.7-0.6,0.7H246c-0.4,0-0.5-0.3-0.7-0.7l-2.6-6.2h-0.2
				C242.5,34.4,239.7,34.4,239.7,34.4z M239.7,26.2v5.3h2.6c1.8,0,2.9-0.7,2.9-2v-1.3c0-1.3-1.1-2-2.9-2H239.7z"/>
		</g>
	</g>
	<g>
		<path class="st0" d="M26.3,11.7c-1.1,0-2,0.9-2,2s0.9,2,2,2s2-0.9,2-2S27.4,11.7,26.3,11.7L26.3,11.7z M26.3,14.4
			c-0.4,0-0.7-0.3-0.7-0.7s0.3-0.7,0.7-0.7s0.7,0.3,0.7,0.7C27,14.1,26.7,14.4,26.3,14.4L26.3,14.4z"/>
		<path class="st0" d="M20.3,15.1c0,0.4-0.3,0.7-0.7,0.7s-0.7-0.3-0.7-0.7s0.3-0.7,0.7-0.7S20.3,14.7,20.3,15.1L20.3,15.1z"/>
		<path class="st0" d="M33.7,15.1c0,0.4-0.3,0.7-0.7,0.7s-0.7-0.3-0.7-0.7s0.3-0.7,0.7-0.7C33.4,14.4,33.7,14.7,33.7,15.1L33.7,15.1
			z"/>
		<path class="st0" d="M49.3,13c0-1.5-1.2-2.7-2.7-2.7s-2.7,1.2-2.7,2.7c0,1.3,0.9,2.3,2,2.6v12.2h-2v-7.4c0-1.9-1.5-3.4-3.4-3.4
			h-3.9l3-11.9L31.2,12l-4.9-8.4L21.4,12L13,5.2l3,11.9h-3.9c-1.9,0-3.4,1.5-3.4,3.4v19.7c-0.8,0.3-1.3,1-1.3,1.9v3.4h37.8V42
			c0-0.9-0.6-1.6-1.3-1.9V36h1.3c1.1,0,2-0.9,2-2V15.6C48.4,15.3,49.3,14.3,49.3,13L49.3,13z M15.3,8.8l6.4,5.3l4.5-7.8l4.5,7.8
			l6.5-5.3l-2.1,8.3H17.4L15.3,8.8z M12.2,18.4h28.3c1.1,0,2,0.9,2,2V40h-7.1L34,38.7H18.6L17.3,40h-7.1V20.5
			C10.1,19.3,11.1,18.4,12.2,18.4L12.2,18.4z M43.9,44.1H8.8v-2c0-0.4,0.3-0.7,0.7-0.7h8.4l1.3-1.3h14.3l1.3,1.3h8.4
			c0.4,0,0.7,0.3,0.7,0.7C43.9,42.1,43.9,44.1,43.9,44.1z M45.2,34.6h-1.3v-5.4h2v4.7C45.9,34.3,45.6,34.6,45.2,34.6L45.2,34.6z
			 M46.6,14.4c-0.7,0-1.3-0.6-1.3-1.3s0.6-1.3,1.3-1.3s1.3,0.6,1.3,1.3C47.9,13.8,47.3,14.4,46.6,14.4L46.6,14.4z"/>
		<path class="st0" d="M20.9,37.3h18.9c0.7,0,1.3-0.6,1.3-1.3V21.1c0-0.7-0.6-1.3-1.3-1.3H11.5v17.5C11.5,37.3,20.9,37.3,20.9,37.3z
			 M12.8,36V23.8h8.1V36H12.8z M22.3,36v-1.3h8.1V36H22.3z M31.7,36V23.8h8.1v12.1L31.7,36L31.7,36z M39.8,21.1v1.3h-8.1v-1.3H39.8z
			 M30.4,21.1v12.1h-8.1V21.1H30.4z M20.9,21.1v1.3h-8.1v-1.3H20.9z"/>
		<path class="st0" d="M14.2,27.9h3.9l-3.2,5.7l1.2,0.7l3.5-6.2v-1.5h-5.4C14.2,26.6,14.2,27.9,14.2,27.9z"/>
		<path class="st0" d="M33.1,26.5v1.3H37l-3.2,5.7l1.2,0.7l3.5-6.2v-1.5H33.1z"/>
		<path class="st0" d="M24.4,30.9l1.2,0.7l3.5-6.2v-1.5h-5.4v1.3h3.9L24.4,30.9z"/>
		<rect x="25.7" y="41.4" class="st0" width="1.3" height="1.3"/>
		<rect x="20.9" y="41.4" class="st0" width="1.3" height="1.3"/>
		<rect x="30.4" y="41.4" class="st0" width="1.3" height="1.3"/>
	</g>
</g>
</svg>
