<?xml version="1.0" encoding="utf-8"?>
<!-- Generator: Adobe Illustrator 22.0.0, SVG Export Plug-In . SVG Version: 6.00 Build 0)  -->
<svg version="1.1" id="Layer_1" xmlns="http://www.w3.org/2000/svg" xmlns:xlink="http://www.w3.org/1999/xlink" x="0px" y="0px"
	 viewBox="0 0 1056.6 202" style="enable-background:new 0 0 1056.6 202;" xml:space="preserve">
<path style="fill:#FFFFFF;" d="M237.6,78.8v37c0,0,2.4,26.8,25.9,26.8s44.3,0,44.3,0v-20.9h-43.4c0,0-7.1-2.6-7.1-7.9s0-31.5,0-31.5
	s1.8-6.9,6.9-6.9s44,0,44,0s6.5,1.6,6.5,8.4s-6.2,7.3-6.2,7.3h-40.9v22.3h40.6c0,0,26.5-2.1,26.5-31.2S306.2,54,306.2,54h-45.3
	C260.8,54.1,237.6,58.8,237.6,78.8z"/>
<path style="fill:#FFFFFF;" d="M432.2,117.9v-37c0,0-2.4-26.8-25.9-26.8s-44.3,0-44.3,0V75h43.4c0,0,7.1,2.6,7.1,7.9s0,31.5,0,31.5
	s-1.8,6.9-6.9,6.9s-44,0-44,0s-6.5-1.6-6.5-8.4s6.2-7.3,6.2-7.3h40.9V83.2h-40.6c0,0-26.5,2.1-26.5,31.2s28.5,28.2,28.5,28.2H409
	C409,142.6,432.2,137.9,432.2,117.9z"/>
<path style="fill:#FFFFFF;" d="M636.7,117.9v-37c0,0-2.4-26.8-25.9-26.8s-44.3,0-44.3,0V75H610c0,0,7.1,2.6,7.1,7.9s0,31.5,0,31.5
	s-1.8,6.9-6.9,6.9s-44,0-44,0s-6.5-1.6-6.5-8.4s6.2-7.3,6.2-7.3h40.9V83.2h-40.6c0,0-26.5,2.1-26.5,31.2s28.5,28.2,28.5,28.2h45.3
	C613.5,142.6,636.7,137.9,636.7,117.9z"/>
<path style="fill:#FFFFFF;" d="M464.1,54.1h47.8c0,0,20.2,1.9,20.2,19.3s0,85.4,0,85.4s-7.8,15.5-16.8,15.5c-9.1,0-46.6,0-46.6,0
	v-22H512V87c0,0,4-7.1-6.4-7.1s-37.5,0-37.5,0s-7.1,1.3-7.1,11.7s0,22.7,0,22.7s-2.6,5.8,6.5,5.8s36.2,0.6,36.2,0.6v21.9h-43.1
	c0,0-17.1-5.7-17.1-18.7s0-48.5,0-48.5S446.6,54.1,464.1,54.1z"/>
<path style="fill:#FFFFFF;" d="M941,54.1h47.8c0,0,20.2,1.9,20.2,19.3s0,85.4,0,85.4s-7.8,15.5-16.8,15.5c-9.1,0-46.6,0-46.6,0v-22
	h43.3V87c0,0,4-7.1-6.4-7.1s-37.5,0-37.5,0s-7.1,1.3-7.1,11.7s0,22.7,0,22.7s-2.6,5.8,6.5,5.8s36.2,0.6,36.2,0.6v21.9h-43.1
	c0,0-17.1-5.7-17.1-18.7s0-48.5,0-48.5S923.6,54.1,941,54.1z"/>
<path style="fill:#FFFFFF;" d="M816.2,63.7v78.9H835V79.9h40.1c0,0,11,0.6,11,12.9v49.7h20.1V81.2c0,0-3.2-27.1-28.5-27.1
	c-17.5,0-53.7,0-53.7,0S816.2,52.1,816.2,63.7z"/>
<path style="fill:#FFFFFF;" d="M738,54.1c-17.5,0-28.7,0-28.7,0s-3.6-0.9-5.9,2.2c-3.1-1.3-6.8-2.2-11.2-2.2c-17.5,0-37.7,0-37.7,0
	s-7.8-2-7.8,9.6v78.9h18.8V79.9h24.1c0,0,11,0.6,11,12.9v49.7h1h18.8h0.3V81.2c0,0-0.1-0.5-0.2-1.3h15c0,0,11,0.6,11,12.9v49.7h20.1
	V81.2C766.4,81.2,763.2,54.1,738,54.1z"/>
<rect x="779.3" y="19.7" style="fill:#FFFFFF;" width="20.7" height="24.6"/>
<rect x="779.3" y="53.9" style="fill:#FFFFFF;" width="20.7" height="88.6"/>
<path style="fill:#E1C07A;" d="M33.7,50.6v41.7c0,0,2.6,30.1,29.1,30.1s39.7,0,39.7,0V98.8H63.8c0,0-7.9-3-7.9-8.9s0-35.4,0-35.4
	s2-7.8,7.8-7.8s49.5,0,49.5,0s7.3,1.8,7.3,9.4s-7,8.3-7,8.3h-46v25.1h45.6c0,0,29.8-2.3,29.8-35.1s-32.1-31.7-32.1-31.7H59.8
	C59.8,22.8,33.7,28.1,33.7,50.6z"/>
<path style="fill:#AAAEB1;" d="M193.3,77.5h-47.1c-4.2,8.8-16.8,21.5-36.9,23.7c-0.6,2.6-0.9,5.5-0.9,8.7
	c0,33.5,30.4,35.8,30.4,35.8h46.7v-25.7h-47c0,0-7.1-0.7-7.1-8.4s7.4-9.6,7.4-9.6s44.6,0,50.5,0c5.9,0,8,8,8,8s0,30.1,0,36.2
	c0,6.1-8.1,9.1-8.1,9.1h-58.9v24c0,0,32.9,0,59.9,0s29.7-30.7,29.7-30.7v-42.6C220,82.9,193.3,77.5,193.3,77.5z"/>
</svg>
