<?xml version="1.0" encoding="utf-8"?>
<!-- Generator: Adobe Illustrator 26.1.0, SVG Export Plug-In . SVG Version: 6.00 Build 0)  -->
<svg version="1.1" id="Layer_1" xmlns="http://www.w3.org/2000/svg" xmlns:xlink="http://www.w3.org/1999/xlink" x="0px" y="0px"
	 viewBox="0 0 1056.6 202" style="enable-background:new 0 0 1056.6 202;" xml:space="preserve">
<g id="Livello_1_1_">
</g>
<g id="Layer_1_00000121280000816817959920000000882230360127541942_">
</g>
<path style="fill:#FFFFFF;" d="M214.1,93h-16.8c-1.6-13.6-7.2-26.4-15.2-36.8l12-12c3.2-3.2,3.2-8,0-11.2c-3.2-3.2-8-3.2-11.2,0
	l-12,12c-10.4-8-23.2-13.6-36.8-15.2V13c0-4.8-3.2-8-8-8c-4.8,0-8,3.2-8,8v16.8c-13.6,1.6-26.4,6.4-36.8,15.2l-12-12
	c-3.2-3.2-8-3.2-11.2,0c-3.2,3.2-3.2,8,0,11.2l12,12c-8,10.4-13.6,23.2-15.2,36.8H38c-4.8,0-8,3.2-8,8s3.2,8,8,8h16.8
	c1.6,13.6,7.2,26.4,15.2,36.8l-12,12c-3.2,3.2-3.2,8,0,11.2c3.2,3.2,8,3.2,11.2,0l12-12c10.4,8,23.2,13.6,36.8,15.2V189
	c0,4.8,3.2,8,8,8c4.8,0,8-3.2,8-8v-16.8c13.6-1.6,26.4-7.2,36.8-15.2l12,12c3.2,3.2,8,3.2,11.2,0c3.2-3.2,3.2-8,0-11.2l-12-12
	c8-10.4,13.6-23.2,15.2-36.8h16.8c4.8,0,8-3.2,8-8S218.9,93,214.1,93z M181.3,93h-24.8c-0.8-3.2-1.6-5.6-3.2-8l17.6-17.6
	C176.5,74.6,180.5,83.4,181.3,93z M149.3,105c0,1.6-0.8,2.4-0.8,4c0,0.8-0.8,1.6-0.8,2.4c-2.4,4.8-6.4,8.8-11.2,11.2
	c-0.8,0-1.6,0.8-2.4,0.8c-1.6,0.8-2.4,0.8-4,0.8c-0.8,0.8-2.4,0.8-4,0.8c-1.6,0-3.2,0-4-0.8c-1.6,0-2.4-0.8-4-0.8
	c-0.8,0-1.6-0.8-2.4-0.8l0,0c-4.8-2.4-8.8-6.4-11.2-11.2c0-0.8-0.8-1.6-0.8-2.4c-0.8-1.6-0.8-2.4-0.8-4c-0.8-0.8-0.8-2.4-0.8-4
	s0-3.2,0.8-4c0-1.6,0.8-2.4,0.8-4c0-0.8,0.8-1.6,0.8-2.4c2.4-4.8,6.4-8.8,11.2-11.2c0.8,0,1.6-0.8,2.4-0.8c1.6-0.8,2.4-0.8,4-0.8
	c0.8-0.8,2.4-0.8,4-0.8c1.6,0,3.2,0,4,0.8c1.6,0,2.4,0.8,4,0.8c0.8,0,1.6,0.8,2.4,0.8c4.8,2.4,8.8,6.4,11.2,11.2
	c0,0.8,0.8,1.6,0.8,2.4c0.8,1.6,0.8,2.4,0.8,4c0,1.6,0.8,2.4,0.8,4S150.1,104.2,149.3,105z M159.7,56.2l-17.6,17.6
	c-2.4-1.6-5.6-2.4-8-3.2V45.8C143.7,46.6,152.5,50.6,159.7,56.2z M118.1,45.8v24.8c-3.2,0.8-5.6,1.6-8,3.2L92.5,56.2
	C99.7,50.6,108.5,46.6,118.1,45.8z M81.3,67.4L98.9,85c-1.6,2.4-2.4,5.6-3.2,8H70.9C71.7,83.4,75.7,74.6,81.3,67.4z M70.9,109h24.8
	c0.8,3.2,1.6,5.6,3.2,8l-17.6,17.6C75.7,127.4,71.7,118.6,70.9,109z M92.5,145.8l17.6-17.6c2.4,1.6,5.6,2.4,8,3.2v24.8
	C108.5,155.4,99.7,151.4,92.5,145.8z M134.1,156.2v-24.8c3.2-0.8,5.6-1.6,8-3.2l17.6,17.6C152.5,151.4,143.7,155.4,134.1,156.2z
	 M170.9,134.6L153.3,117c1.6-2.4,2.4-5.6,3.2-8h24.8C180.5,118.6,176.5,127.4,170.9,134.6z"/>
<g>
	<path style="fill:#FFFFFF;" d="M265.2,68.9H284c15.6,0,20.3,2.7,20.3,11.1c0,3.8-0.9,8.6-2.1,15c-4.3,20.3-5.3,24.6-26.8,24.6
		h-20.9L265.2,68.9z M276.1,107.3c6.2,0,6.3-0.5,8.9-13c1.1-5.2,1.8-8.2,1.8-10.2c0-2.8-1.5-2.9-5.2-2.9h-1.8l-5.5,26.1H276.1z"/>
	<path style="fill:#FFFFFF;" d="M305.2,110.8c0-2.7,0.3-6,1.1-9.9c2.8-13.9,4.3-19.4,21.1-19.4c13.3,0,16.7,2.1,16.7,8.1
		c0,2.9-1.1,7.7-1.9,11.3l-0.7,2.9h-20.5c-0.1,0.7-0.5,2.4-0.5,3c0,2.4,0.6,2.4,8.2,2.4c2.5,0,7.2-0.2,11.5-0.5l-2.1,10.1
		c-2.9,0.9-8.8,1.5-13.9,1.5C309.4,120.2,305.2,117.4,305.2,110.8z M328.7,97.5l0.2-1.2c0.3-1.7,0.5-2.6,0.5-3.4
		c0-1.5-0.7-1.5-2.7-1.5c-3.2,0-3.2,0.1-4.4,6.1H328.7z"/>
	<path style="fill:#FFFFFF;" d="M352.3,82h15.2l-0.6,4.2h0.7c3.1-4,7.3-4.8,10.2-4.8c7.1,0,9.1,2.6,9.1,7.7c0,2.1-0.6,5.7-1.3,9.2
		l-4.6,21.3h-15.7l4-18.9c0.5-2.4,1-4.6,1-5.5c0-1.4-0.5-1.5-1.8-1.5c-2.8,0-3,0.4-4.3,6.1l-4.3,19.8h-15.7L352.3,82z"/>
	<path style="fill:#FFFFFF;" d="M395.6,82h16.1l-8,37.6h-16L395.6,82z M399.2,64.8h16.1L412.9,76h-16.1L399.2,64.8z"/>
	<path style="fill:#FFFFFF;" d="M411.4,109.1L428.8,93h-13.1l2.4-11h33.4l-2.2,10.5l-17.5,16.1h14.1l-2.4,11h-34.3L411.4,109.1z"/>
	<path style="fill:#FFFFFF;" d="M451.4,110.4c0-2.7,0.4-6,1.2-9.5c2.3-11.4,4.1-19.4,19.9-19.4c4.9,0,9.3,0.4,13.4,1.3l-2.2,10.2
		c-1.7-0.2-4.9-0.4-7.6-0.4c-5.3,0-5.8,1.1-7.4,8.3c-0.6,2.6-0.9,4.3-0.9,5.6c0,2.3,1.2,2.7,4.7,2.7c2.3,0,5.7-0.2,8.2-0.5
		l-2.1,10.2c-4,0.9-7.9,1.4-11.6,1.4C454.5,120.2,451.4,116.4,451.4,110.4z"/>
	<path style="fill:#FFFFFF;" d="M492,82h16.1l-8,37.6h-16L492,82z M495.6,64.8h16.1L509.3,76h-16.1L495.6,64.8z"/>
	<path style="fill:#FFFFFF;" d="M518.2,64.8h16.1l-11.6,54.7h-16L518.2,64.8z"/>
	<path style="fill:#FFFFFF;" d="M537.1,82h16.1l-8,37.6h-16L537.1,82z M540.7,64.8h16.1L554.4,76h-16.1L540.7,64.8z"/>
	<path style="fill:#FFFFFF;" d="M563.3,64.8H579l-6.6,30.9h0.7L583.7,82h16.8l-15.2,18.4l7.7,19.1h-16.9l-5-13.6h-0.7l-2.9,13.6
		h-15.7L563.3,64.8z"/>
	<path style="fill:#FFFFFF;" d="M619.2,108.8c0-3.8,1.2-8.8,2.4-15.3c3.9-20.5,5.4-25.2,26.5-25.2c15.7,0,20.4,2.9,20.4,11.4
		c0,3.8-0.9,8.8-2.4,15.2c-4.7,20.6-5.5,25.2-26.4,25.2C623.9,120.2,619.2,117.2,619.2,108.8z M649.1,94.2c1.2-5.6,1.8-9,1.8-10.9
		c0-2.7-1.3-2.7-4.2-2.7c-5.2,0-5.2,0.3-8,13.6c-1.3,5.8-2,9.1-2,11c0,2.5,1.3,2.6,4.2,2.6C646,107.9,646.2,107.6,649.1,94.2z"/>
	<path style="fill:#FFFFFF;" d="M667.9,133.6l2.1-9.9h9.7c8.1,0,8.3,0,9.5-5.7c0.3-1.3,0.5-2.6,0.8-3.8h-0.7c-3.2,4-6.9,4.8-9.6,4.8
		c-7.3,0-9.5-2.8-9.5-8c0-1.9,0.3-4.1,0.9-6.7l4.8-22.3h15.8l-4,18.6c-0.5,2.4-0.8,3.9-0.8,4.8c0,1.3,0.6,1.3,2.1,1.3
		c2.6,0,2.7-0.1,4.1-6.1l4-18.6h15.8l-7.1,33.5c-2.7,12.5-3.7,19.2-24.2,19.2C676.5,134.7,670.9,134.3,667.9,133.6z"/>
	<path style="fill:#FFFFFF;" d="M713.3,112.2c0-2.1,0.7-5.7,1.4-9.2l4.5-21h15.7l-4,18.9c-0.5,2.4-1,4.6-1,5.5
		c0,1.4,0.5,1.5,1.8,1.5c2.8,0,3-0.4,4.3-6.1l4.3-19.8h15.7l-8,37.6h-15.2l0.6-4.2h-0.7c-3.1,4-7.3,4.8-10.2,4.8
		C715.3,120.2,713.3,117.5,713.3,112.2z"/>
	<path style="fill:#FFFFFF;" d="M762.6,82h15.2l-0.6,4.2h0.7c3.1-4,7.3-4.8,10.2-4.8c7.1,0,9.1,2.6,9.1,7.7c0,2.1-0.6,5.7-1.3,9.2
		l-4.6,21.3h-15.7l4-18.9c0.5-2.4,1-4.6,1-5.5c0-1.4-0.5-1.5-1.8-1.5c-2.8,0-3,0.4-4.3,6.1l-4.3,19.8h-15.7L762.6,82z"/>
	<path style="fill:#FFFFFF;" d="M809.5,64.8h16.1L814,119.6h-16L809.5,64.8z"/>
	<path style="fill:#FFFFFF;" d="M822.1,111.2c0-2.7,0.3-6,1.2-10.3c3.1-15.3,7.1-19.4,14.6-19.4c4.1,0,7.8,0.5,9.7,4.3h0.7l1.2-3.8
		h15.3l-8,37.6h-15.2l0.7-4.2h-0.8c-2.7,4-6.1,4.8-9.4,4.8C825.3,120.2,822.1,118.2,822.1,111.2z M843.8,106.2
		c0.7-2.1,2.3-9.1,2.3-11c0-1.5-0.5-1.6-2.4-1.6c-3,0-3.1,0.1-4.6,7.2c-0.7,2.9-1,4.6-1,5.7c0,1.4,0.7,1.5,2.6,1.5
		C842.7,108,843.2,107.9,843.8,106.2z"/>
	<path style="fill:#FFFFFF;" d="M871.4,82h15.2l-1,6.3h0.7c3.2-5.6,6-6.8,12.7-6.8l-2.9,13.7c-9.9,0-12.2,1.8-14.3,11.9l-2.7,12.6
		h-15.7L871.4,82z"/>
	<path style="fill:#FFFFFF;" d="M903.7,82h16.1l-8,37.6h-16L903.7,82z"/>
</g>
</svg>
