<?xml version="1.0" encoding="utf-8"?>
<!-- Generator: Adobe Illustrator 25.3.1, SVG Export Plug-In . SVG Version: 6.00 Build 0)  -->
<svg version="1.1" id="Layer_1" xmlns="http://www.w3.org/2000/svg" xmlns:xlink="http://www.w3.org/1999/xlink" x="0px" y="0px"
	 viewBox="0 0 358.8 60.6" style="enable-background:new 0 0 358.8 60.6;" xml:space="preserve">
<path style="fill:#FFFFFF;" d="M273.6,56c-8.1,0-16.2-0.1-24.3,0.1c-3.4,0.1-5.3-2.4-5.2-5.3c0.1-4.6,0.1-9.2,0-13.7
	c-0.1-3.5,2.2-5.4,5.4-5.5c2.9-0.1,5.8,0,8.7,0c4.1,0,8.2,0,12.2,0c1.1,0,2.1,0.2,3.2,0.3c0,2.1,0,4.1,0,6.2
	c-6.3,0.1-12.6,0.1-19,0.2c-1.8,0-2.2,0.2-2.3,2c-0.1,2.5-0.1,5,0,7.6c0,1.4,0.6,1.9,2.1,1.9c3,0,6,0,9,0c0.9,0,1.8,0,1.8-1.2
	c0-1.1-0.9-1.1-1.8-1.1c-2.2,0-4.5,0-6.7,0c-1.3,0-2.1-0.4-2.1-1.8c0-1,0.1-2-0.1-2.9c-0.2-1.4,0.6-1.9,1.8-1.9
	c5.8,0,11.5,0.1,17.3,0.1C273.6,45.9,273.6,50.9,273.6,56z"/>
<path style="fill:#FFFFFF;" d="M273.6,25.1c-0.4,0.2-0.9,0.4-1.1,0.7c-1.3,1.4-2.8,2.2-4.8,2.1c-5.9-0.1-11.7-0.1-17.6,0
	c-3.6,0.1-6.4-2.3-6.4-6c0-3.8-0.1-7.7,0-11.5c0-1.5,0.2-3.1,0.5-4.6c0.3-1.8,1.8-2.9,3.5-2.9c7.2,0,14.3,0,21.5,0
	c1.4,0,2.6,0.1,3.4,1.4c0.2,0.3,0.7,0.3,1.1,0.5C273.6,11.7,273.6,18.4,273.6,25.1z M258.9,20.6C258.9,20.6,258.9,20.6,258.9,20.6
	c1.5,0,2.9-0.1,4.4,0c1.4,0.1,1.9-0.5,1.9-1.7c0-2.6,0-5.1,0-7.7c0-0.8-0.3-1.4-1.2-1.4c-3.4,0-6.8,0-10.2,0.1
	c-0.4,0-1.1,0.7-1.2,1.1c-0.1,2.8,0,5.6,0,8.4c0,0.9,0.7,1.3,1.6,1.3C255.8,20.6,257.3,20.6,258.9,20.6z"/>
<path style="fill:#FF4D00;" d="M4.9,3c0.9,0,1.5,0,2.2,0c22.3,0,44.6,0,67,0c3.5,0,5.1,1.6,5.1,5.2c0,15.4,0,30.7,0,46.1
	c0,1.3-0.6,1.7-1.8,1.7c-4.3,0-8.5,0-12.8,0c-18.2,0-36.5-0.1-54.7,0.1c-2.1,0-3.4-1-4.7-2.2c-0.3-0.3-0.2-1.1-0.2-1.7
	c0-8.6,0-17.1,0-25.7c0-7.2,0-14.5,0-21.7C4.9,4.3,4.9,3.8,4.9,3z M41.9,39.3C41.9,39.3,41.9,39.3,41.9,39.3c7.9,0,15.8,0,23.8,0
	c1.1,0,2-0.2,2.8-1c1.3-1.3,1.9-2.7,1.9-4.5c0-5.9,0.1-11.9,0-17.8c-0.1-3.8-1.9-5.7-5.9-5.8c-7.6-0.1-15.2,0-22.8,0
	c-7.5,0-15,0-22.5,0c-3.5,0-5.8,2.3-5.8,5.7c0,6,0,12,0,17.9c0,3.5,1.9,5.4,5.4,5.4C26.5,39.3,34.2,39.3,41.9,39.3z M41.9,49.2
	c8.3,0,16.7,0,25,0c0.7,0,1.6,0,2.2-0.3c0.5-0.2,1-0.9,1.1-1.5c0.1-0.4-0.4-1.1-0.8-1.2c-0.9-0.3-1.9-0.6-2.8-0.6
	c-16.5,0-33.1,0-49.6,0c-0.8,0-1.7,0.2-2.4,0.5c-0.5,0.2-1,1-0.9,1.5c0,0.5,0.6,1.2,1.1,1.4c0.7,0.3,1.6,0.2,2.4,0.2
	C25.3,49.2,33.6,49.2,41.9,49.2z"/>
<path style="fill:#FFFFFF;" d="M145.7,3c4,0,8,0,12,0c2,0,2.3,0.3,2.2,2.3c0,0.8,0,1.6,0,2.4c-0.1,1.6-0.9,2.2-2.5,2.2
	c-5.6,0-11.2-0.1-16.7-0.1c-0.5,0-1-0.1-1.4,0.1c-0.4,0.1-0.6,0.5-0.9,0.8c0.3,0.3,0.6,0.7,1,0.8c0.5,0.1,1,0.1,1.5,0.1
	c4.1,0,8.3,0,12.4,0c2.8,0,2.9,0,2.9,2.9c0,0.7,0,1.4,0,2.1c0.1,1.3-0.4,1.9-1.8,1.9c-4.4,0-8.7,0-13.1,0c-0.6,0-1.2-0.1-1.8,0.1
	c-0.4,0.1-0.7,0.6-1.1,0.8c0.3,0.4,0.6,1,1,1.1c0.5,0.2,1.2,0.1,1.8,0.1c5.4,0,10.9,0,16.3-0.1c1.7,0,2.5,0.7,2.4,2.5
	c0,1,0,2.1-0.1,3.1c-0.1,1.2-0.9,1.9-2.1,1.9c-7.7,0-15.4,0-23.1,0c-2.6,0-5.1-2.6-5.1-5.2c0-5.1,0-10.2,0-15.3c0-2.6,2-4.4,4.6-4.4
	C138,3,141.8,3,145.7,3z"/>
<path style="fill:#FFFFFF;" d="M107.7,56c-3.7,0-7.4,0-11.1,0c-2.4,0-4.6-1.9-4.7-4.3c-0.1-5.1-0.2-10.3,0-15.4
	c0.1-3,2.1-4.7,5.7-4.7c5.8-0.1,11.5,0,17.3,0c1.5,0,2.9,0,4.4,0c1.3-0.1,1.9,0.6,2,1.8c0,1.1,0,2.1,0,3.2c0,1.1-0.6,1.7-1.8,1.7
	c-5.8,0-11.6,0-17.4-0.1c-1.3,0-1.9,0.4-1.9,1.7c0,2.7,0,5.3,0,8c0,1.2,0.6,1.7,1.9,1.7c3-0.1,6.1,0,9.1,0c0.9,0,1.7-0.1,1.8-1.2
	c0-1.1-0.9-1.1-1.7-1.1c-2.2,0-4.3,0-6.5,0c-1.6,0-2-0.3-2.1-1.9c-0.1-1.1,0-2.2-0.1-3.4c0-1,0.5-1.4,1.4-1.4c5.3,0,10.7,0,16,0
	c0.9,0,1.3,0.5,1.3,1.5c0,4.1,0,8.2,0,12.3c0,1.2-0.6,1.5-1.7,1.5C115.7,56,111.7,56,107.7,56z"/>
<path style="fill:#FFFFFF;" d="M219.1,3c3.8,0,7.7,0,11.5,0c2.6,0,4.8,1.9,4.9,4.5c0.1,2.2,0.1,4.5,0,6.7c-0.1,2.4-2.1,4.7-4.5,5.3
	c-1.5,0.4-1.7,0.8-0.6,2.1c1.2,1.3,2.4,2.6,3.5,4c0.4,0.5,0.6,1.2,0.5,1.7c-0.1,0.3-1,0.5-1.6,0.6c-1.3,0.1-2.6-0.1-3.9,0
	c-1.9,0.3-3.1-0.7-4.2-2c-1.4-1.8-2.8-3.6-4.3-5.3c-0.4-0.5-1.2-0.9-1.9-0.9c-4.6-0.3-4.6-0.2-4.6,4.2c0,4,0,4-4,3.9
	c-0.9,0-1.9,0-2.8,0c-1.7-0.1-2-0.4-2.1-2.1c0-0.7,0-1.4,0-2.1c0-6.4,0-12.7-0.1-19.1c0-1.2,0.5-1.7,1.7-1.7C210.9,3,215,3,219.1,3z
	 M220.3,9.8C220.3,9.8,220.3,9.8,220.3,9.8c-1.5,0-3,0-4.5,0c-0.9,0-1.8,0.2-1.8,1.3c0,1.1,0.9,1.4,1.8,1.4c3,0,6,0,9,0
	c0.9,0,1.6-0.4,1.6-1.4c0-1-0.7-1.4-1.6-1.4C223.3,9.8,221.8,9.8,220.3,9.8z"/>
<path style="fill:#FFFFFF;" d="M105.8,3c3.9,0,7.9,0,11.8,0c1.8,0,3.2,0.8,3.7,2.6c1.1,3.8,1.2,7.6-0.3,11.4
	c-0.6,1.6-2.2,2.2-3.8,2.7c-1.4,0.4-1.5,0.7-0.5,1.7c1.2,1.4,2.5,2.7,3.6,4.1c0.4,0.5,0.5,1.3,0.7,2c-0.6,0.2-1.2,0.5-1.8,0.5
	c-1.3,0.1-2.6-0.1-3.9,0c-1.7,0.2-2.8-0.6-3.7-1.7c-1.5-1.8-2.9-3.7-4.5-5.4c-0.5-0.6-1.3-1-2.1-1.1c-1-0.2-2.1,0-3.2-0.1
	c-1.1,0-1.6,0.5-1.6,1.6c0,1.5,0.1,3.1,0,4.6c0,1.8-0.4,2-2.1,2c-1.4,0-2.7,0-4.1,0c-2,0-2.3-0.3-2.3-2.3c0-5.4,0-10.7,0-16.1
	c0-1.6,0-3.3,0-4.9c0-1.2,0.4-1.7,1.6-1.7C97.5,3,101.6,3,105.8,3z M106.5,12.5C106.5,12.6,106.5,12.6,106.5,12.5c1.5,0,3.1,0,4.6,0
	c1,0,1.7-0.3,1.7-1.4c0.1-1.1-0.6-1.4-1.6-1.4c-3.1,0-6.3,0-9.4,0c-0.9,0-1.6,0.3-1.6,1.3c0,1.1,0.6,1.5,1.6,1.5
	C103.4,12.5,105,12.5,106.5,12.5z"/>
<path style="fill:#FFFFFF;" d="M160.2,45.2c0-2.9,0-5.8,0-8.7c0-2.4,1.1-3.9,3.4-4.5c1.2-0.3,2.6-0.5,3.9-0.4
	c0.8,0.1,1.8,0.9,2.3,1.6c2,3.1,3.9,6.2,5.8,9.4c0.6,1,1.2,0.7,1.7-0.1c1.3-2,2.6-4.1,3.9-6.1c0.7-1.1,1.4-2.2,2.1-3.3
	c1.3-2.2,3.5-1.7,5.4-1.4c2,0.3,3.6,1.4,3.9,3.6c0.1,0.7,0.2,1.5,0.2,2.2c0,5.6,0,11.1,0,16.7c0,1-0.4,1.6-1.4,1.6
	c-1.8,0-3.6,0-5.3,0c-1.1,0-1.7-0.5-1.6-1.8c0.1-2.4,0.1-4.8,0-7.1c0-0.5-0.5-1-0.7-1.5c-0.4,0.3-0.9,0.6-1.1,1
	c-1.8,2.7-3.5,5.5-5.2,8.3c-0.8,1.2-1.2,1.1-1.9-0.1c-1.5-2.5-3-4.9-4.6-7.4c-0.3-0.4-0.5-0.9-0.8-1.3c-0.3-0.4-0.7-0.6-1-0.9
	c-0.2,0.4-0.6,0.8-0.6,1.3c0,2.5,0,5,0,7.4c0,1.8-0.2,2.1-1.9,2.1c-1.6,0-3.2,0-4.8,0c-1.2,0-1.7-0.5-1.6-1.7
	C160.2,51.3,160.2,48.2,160.2,45.2C160.2,45.2,160.2,45.2,160.2,45.2z"/>
<path style="fill:#FFFFFF;" d="M140.8,31.6c2.9,0,5.7,0,8.6,0c4.2,0,6.1,2,6.2,6.1c0,5.6,0,11.2,0.1,16.8c0,1-0.5,1.4-1.4,1.4
	c-1.9,0.1-3.8,0.1-5.8,0c-0.9,0-1.3-0.6-1.3-1.5c0-1.4,0.1-2.8,0-4.2c0-1.6-0.5-2.1-2.1-2.1c-3,0-5.9,0-8.9,0
	c-1.6,0-2.1,0.5-2.1,2.1c0,1.3,0,2.6,0.1,3.9c0.1,1.3-0.4,1.9-1.7,1.9c-1.6,0-3.3,0-4.9,0c-1.2,0-1.7-0.5-1.7-1.8
	c0.1-5.3,0-10.6,0-16c0-0.7,0-1.4,0.1-2.1c0.5-2.9,2.3-4.4,5.4-4.5C134.6,31.6,137.7,31.6,140.8,31.6
	C140.8,31.6,140.8,31.6,140.8,31.6z M140.7,41.5c1.5,0,3.1,0,4.6,0c1.1,0,2-0.4,1.9-1.7c0-1.3-0.9-1.5-1.9-1.5c-3,0-6.1,0-9.1,0
	c-1,0-1.9,0.3-1.9,1.5c0,1.3,0.8,1.7,1.9,1.7C137.7,41.5,139.2,41.5,140.7,41.5z"/>
<path style="fill:#FFFFFF;" d="M231.1,46c0.1-0.9,0.2-1.3,0.2-1.7c0-3.5-0.1-7-0.1-10.5c0-1.6,0.6-2.2,2.2-2.2c1.3,0,2.6,0,3.9,0
	c1.5,0,2.1,0.6,2.1,2c0,5.9,0,11.9,0,17.8c0,2.8-2.1,4.4-4.9,4.7c-3.3,0.4-5.5-0.8-7.4-3.6c-2.1-3.1-4.6-5.9-6.9-8.8
	c-0.2-0.3-0.5-0.6-0.8-0.7c-0.3-0.2-0.8-0.3-1-0.2c-0.2,0.1-0.3,0.6-0.3,1c0,3.5,0,7,0.1,10.5c0,1.1-0.4,1.7-1.5,1.7
	c-1.7,0-3.5,0-5.2,0c-1.1,0-1.5-0.6-1.5-1.7c0-5.6,0-11.1,0-16.7c0-4.1,1.8-5.8,5.9-6c2.2-0.1,3.7,0.4,5,2.3c2.5,3.4,5.2,6.7,7.9,10
	C229.4,44.6,230.2,45.1,231.1,46z"/>
<path style="fill:#FFFFFF;" d="M182.3,3c4.4,0,8.7,0,13.1,0c2.3,0,2.4,0.2,2.3,2.4c0,0.7,0,1.4,0,2.1c-0.1,1.7-0.7,2.3-2.4,2.3
	c-2.2,0-4.4,0-6.6,0c-1.6,0-1.8,0.3-1.8,1.9c0,4.6,0,9.2,0,13.9c0,2.1-0.3,2.4-2.4,2.4c-1.3,0-2.6,0-3.9,0c-1.9,0-2.3-0.3-2.3-2.2
	c0-4.6,0-9.1,0-13.7c0-1.8-0.2-2.2-2-2.2c-2.3,0-4.6-0.1-6.9,0c-1.4,0-2-0.6-2-1.9c0-1.1,0-2.1,0-3.2c-0.1-1.2,0.5-1.7,1.7-1.7
	C173.4,3,177.8,3,182.3,3z"/>
<path style="fill:#FFFFFF;" d="M205.5,43.9c0,3.5,0,6.9,0,10.4c0,1.1-0.4,1.7-1.5,1.7c-1.7,0-3.5,0-5.2,0c-1.2,0-1.7-0.6-1.7-1.8
	c0.1-6.6,0-13.3,0-19.9c0-2.2,0.4-2.7,2.6-2.7c1.1,0,2.2,0,3.4,0c1.9,0,2.4,0.5,2.4,2.4C205.4,37.3,205.4,40.6,205.5,43.9
	C205.5,43.9,205.5,43.9,205.5,43.9z"/>
<path style="fill:#FF4D00;" d="M17.6,24.7c0-2.9,0-5.8,0-8.7c0-1.3,0.4-1.9,1.8-1.9c3.3,0.1,6.6,0,9.8,0c1.9,0,2.2,0.3,2.2,2.2
	c0,5.7,0,11.3,0,17c0,1.3-0.5,1.8-1.7,1.8c-3.6,0-7.1,0-10.7,0c-1.1,0-1.4-0.7-1.4-1.7C17.6,30.6,17.6,27.7,17.6,24.7
	C17.6,24.7,17.6,24.7,17.6,24.7z M23.9,21.1c-0.2,0-0.6-0.1-1,0c-0.4,0.2-0.8,0.6-1.2,0.9c0.4,0.3,0.7,0.6,1.2,0.8
	c0.5,0.3,1.5,0.4,1.5,0.6c0,0.6-0.3,1.3-0.5,1.9c-0.2,0.5-0.7,1-0.9,1.6c-0.1,0.3,0.2,0.8,0.3,1.2c0.4-0.2,1.1-0.2,1.3-0.5
	c0.6-0.9,1.2-2,1.7-3C27.4,21.8,27.1,21.2,23.9,21.1z"/>
<path style="fill:#FF4D00;" d="M34.5,24.6c0-2.8,0-5.7,0-8.5c0-1.3,0.5-1.9,1.8-1.8c3.5,0,7,0,10.5,0c1.1,0,1.5,0.5,1.5,1.5
	c0,6,0,12,0,17.9c0,1-0.4,1.6-1.5,1.6c-3.6,0-7.2,0-10.8,0c-1.2,0-1.6-0.6-1.6-1.8C34.5,30.5,34.5,27.5,34.5,24.6
	C34.5,24.6,34.5,24.6,34.5,24.6z M41.4,21.1C41.4,21.1,41.4,21.1,41.4,21.1c-0.6,0-1.2-0.1-1.8,0c-0.3,0.1-0.8,0.5-0.8,0.8
	c0,0.3,0.4,0.6,0.7,0.8c0.3,0.1,0.6,0.1,1,0.1c1,0.1,1.5,0.4,1,1.5c-0.4,0.7-0.9,1.4-1.2,2.2c-0.2,0.5-0.1,1.2-0.1,1.7
	c0.5-0.2,1.1-0.3,1.3-0.7c0.7-0.9,1.1-2,1.7-2.9c0.6-0.8,1.4-1.7,0.7-2.6c-0.4-0.6-1.6-0.6-2.4-0.9C41.6,21.1,41.5,21.1,41.4,21.1z"
	/>
<path style="fill:#FF4D00;" d="M65.8,24.7c0,2.9,0,5.8,0,8.7c0,1.1-0.5,1.7-1.5,1.8c-3.6,0.1-7.1,0-10.7,0c-1,0-1.5-0.6-1.5-1.7
	c0-5.8,0-11.7,0-17.5c0-1.2,0.5-1.8,1.7-1.8c3.3,0,6.7,0,10,0c1.5,0,1.9,0.4,1.9,2C65.7,19,65.7,21.9,65.8,24.7
	C65.8,24.7,65.8,24.7,65.8,24.7z M58.9,20.8c0,0.1-0.1,0.2-0.1,0.3c-0.1,0-0.3,0-0.4,0c-0.6,0.3-1.2,0.6-1.8,0.9
	c0.6,0.3,1.1,0.6,1.7,0.9c0.4,0.2,1,0.3,1,0.5c0.1,0.5,0,1.1-0.3,1.6c-0.4,0.7-0.9,1.4-1.3,2.1c-0.4,0.8-0.1,1.3,0.7,1.1
	c0.5-0.1,0.9-0.6,1.3-1.1c0.4-0.5,0.8-1.2,1-1.8c0.3-1.1,0.9-2.2,0.7-3.2C61.2,21.4,59.7,21.2,58.9,20.8z"/>
</svg>
