<?xml version="1.0" encoding="utf-8"?>
<!-- Generator: Adobe Illustrator 26.1.0, SVG Export Plug-In . SVG Version: 6.00 Build 0)  -->
<svg version="1.1" id="Layer_1" xmlns="http://www.w3.org/2000/svg" xmlns:xlink="http://www.w3.org/1999/xlink" x="0px" y="0px"
	 viewBox="0 0 358.8 60.6" style="enable-background:new 0 0 358.8 60.6;" xml:space="preserve">
<g id="Camada_1_00000153676491534327629820000016681880041455088012_">
	<path style="fill:#FFFFFF;" d="M72.1,17.9c3.1,0,5.5,0.7,7.1,2.2c1.7,1.5,2.5,3.7,2.5,6.6v11.4h-5.4v-2.5c-1.1,1.9-3.1,2.8-6.1,2.8
		c-1.5,0-2.9-0.3-4-0.8s-2-1.2-2.6-2.1c-0.6-0.9-0.9-2-0.9-3.1c0-1.9,0.7-3.3,2.1-4.4c1.4-1.1,3.6-1.6,6.5-1.6h4.6
		c0-1.3-0.4-2.2-1.2-2.9c-0.8-0.7-1.9-1-3.5-1c-1.1,0-2.1,0.2-3.2,0.5c-1,0.3-1.9,0.8-2.6,1.3l-2.1-4c1.1-0.8,2.4-1.4,3.9-1.8
		C68.9,18.1,70.5,17.9,72.1,17.9z M71.7,34.5c1,0,1.9-0.2,2.6-0.7c0.8-0.5,1.3-1.2,1.6-2v-2h-4c-2.4,0-3.6,0.8-3.6,2.3
		c0,0.7,0.3,1.3,0.9,1.8C69.9,34.3,70.7,34.5,71.7,34.5z"/>
	<path style="fill:#FFFFFF;" d="M87,10.6h5.8v27.5H87V10.6z"/>
	<path style="fill:#FFFFFF;" d="M117.7,28.2c0,0.1,0,0.6-0.1,1.6h-15.1c0.3,1.2,0.9,2.2,1.9,2.9s2.3,1.1,3.8,1.1c1,0,2-0.1,2.8-0.4
		s1.6-0.8,2.3-1.5l3.1,3.3c-1.9,2.1-4.6,3.2-8.2,3.2c-2.3,0-4.2-0.4-6-1.3c-1.7-0.9-3.1-2.1-4-3.7c-0.9-1.6-1.4-3.3-1.4-5.3
		s0.5-3.7,1.4-5.3c0.9-1.6,2.2-2.8,3.8-3.7c1.6-0.9,3.5-1.3,5.5-1.3s3.7,0.4,5.3,1.3c1.6,0.8,2.8,2,3.7,3.6
		C117.3,24.3,117.7,26.2,117.7,28.2z M107.4,22.3c-1.3,0-2.4,0.4-3.3,1.1s-1.4,1.7-1.6,3h9.8c-0.2-1.3-0.7-2.3-1.6-3
		C109.7,22.6,108.7,22.3,107.4,22.3z"/>
	<path style="fill:#FFFFFF;" d="M134.5,37.2c-0.6,0.4-1.3,0.7-2.1,1c-0.8,0.2-1.7,0.3-2.6,0.3c-2.4,0-4.2-0.6-5.5-1.8
		s-1.9-3-1.9-5.3v-8.2h-3.1v-4.4h3.1v-5h5.8v4.9h5v4.4h-5v8.1c0,0.8,0.2,1.5,0.6,2c0.4,0.4,1.1,0.7,1.9,0.7c0.9,0,1.7-0.2,2.3-0.7
		L134.5,37.2z"/>
	<path style="fill:#FFFFFF;" d="M145.8,17.9c3.1,0,5.5,0.7,7.1,2.2c1.7,1.5,2.5,3.7,2.5,6.6v11.4H150v-2.5c-1.1,1.9-3.1,2.8-6.1,2.8
		c-1.5,0-2.9-0.3-4-0.8s-2-1.2-2.6-2.1c-0.6-0.9-0.9-2-0.9-3.1c0-1.9,0.7-3.3,2.1-4.4c1.4-1.1,3.6-1.6,6.5-1.6h4.6
		c0-1.3-0.4-2.2-1.2-2.9c-0.8-0.7-1.9-1-3.5-1c-1.1,0-2.1,0.2-3.2,0.5c-1,0.3-1.9,0.8-2.6,1.3l-2.1-4c1.1-0.8,2.4-1.4,3.9-1.8
		C142.6,18.1,144.2,17.9,145.8,17.9z M145.3,34.5c1,0,1.9-0.2,2.6-0.7c0.8-0.5,1.3-1.2,1.6-2v-2h-4c-2.4,0-3.6,0.8-3.6,2.3
		c0,0.7,0.3,1.3,0.9,1.8C143.5,34.3,144.3,34.5,145.3,34.5z"/>
	<path style="fill:#069BE8;" d="M48.1,9c9.6-1.6,17,7.5,13,16.3l-7.9,18.2c-3.7,8.2-14.6,9.1-20.2,1.9l-10.8-14
		c-5.6-7.3-1.6-17.8,7.3-19.3L48.1,9z"/>
	<path style="fill:#FFFFFF;" d="M65.2,44.5v6.2h-0.6v-5l-2.5,4.2h-0.3l-2.5-4.2v5h-0.6v-6.2h0.5l2.7,4.6l2.7-4.6H65.2z"/>
	<path style="fill:#FFFFFF;" d="M68.8,46c0.6,0,1.1,0.1,1.4,0.5c0.3,0.3,0.5,0.8,0.5,1.4v2.9h-0.6v-0.7c-0.1,0.2-0.4,0.4-0.6,0.6
		c-0.3,0.1-0.6,0.2-1,0.2c-0.5,0-0.9-0.1-1.2-0.4c-0.3-0.2-0.5-0.6-0.5-1s0.1-0.7,0.4-1c0.3-0.2,0.8-0.4,1.4-0.4h1.5v-0.3
		c0-0.4-0.1-0.7-0.3-0.9c-0.2-0.2-0.6-0.3-1-0.3c-0.3,0-0.6,0.1-0.9,0.1c-0.3,0.1-0.5,0.2-0.7,0.4l-0.3-0.5c0.2-0.2,0.5-0.4,0.9-0.5
		C68.1,46.1,68.4,46,68.8,46z M68.6,50.3c0.4,0,0.7-0.1,0.9-0.2c0.3-0.2,0.4-0.4,0.6-0.7v-0.8h-1.5c-0.8,0-1.2,0.3-1.2,0.8
		c0,0.3,0.1,0.5,0.3,0.7C67.9,50.2,68.2,50.3,68.6,50.3z"/>
	<path style="fill:#FFFFFF;" d="M74.2,48.4l-1.1,1v1.3h-0.6v-6.5h0.6v4.5l2.8-2.6h0.8l-2,1.9l2.2,2.8h-0.8L74.2,48.4z"/>
	<path style="fill:#FFFFFF;" d="M77.7,46.1h0.6v4.7h-0.6V46.1z M78,45.1c-0.1,0-0.2,0-0.3-0.1s-0.1-0.2-0.1-0.3s0-0.2,0.1-0.3
		s0.2-0.1,0.3-0.1s0.2,0,0.3,0.1s0.1,0.2,0.1,0.3s0,0.2-0.1,0.3C78.3,45,78.2,45.1,78,45.1z"/>
	<path style="fill:#FFFFFF;" d="M82.5,46c0.6,0,1.1,0.2,1.4,0.5c0.4,0.3,0.5,0.8,0.5,1.5v2.7h-0.6V48c0-0.5-0.1-0.9-0.4-1.1
		c-0.2-0.3-0.6-0.4-1-0.4c-0.5,0-0.9,0.1-1.2,0.4c-0.3,0.3-0.4,0.7-0.4,1.2v2.5h-0.6v-4.7h0.6v0.9c0.2-0.3,0.4-0.5,0.7-0.7
		C81.7,46.1,82.1,46,82.5,46z"/>
	<path style="fill:#FFFFFF;" d="M90.5,46.1v4.1c0,0.8-0.2,1.4-0.6,1.8c-0.4,0.4-1,0.6-1.8,0.6c-0.4,0-0.9-0.1-1.2-0.2
		c-0.4-0.1-0.7-0.3-0.9-0.5l0.3-0.5c0.2,0.2,0.5,0.4,0.8,0.5s0.7,0.2,1,0.2c0.6,0,1-0.1,1.3-0.4c0.3-0.3,0.4-0.7,0.4-1.3v-0.6
		c-0.2,0.3-0.5,0.5-0.8,0.7c-0.3,0.1-0.7,0.2-1.1,0.2s-0.8-0.1-1.2-0.3c-0.4-0.2-0.6-0.5-0.9-0.8c-0.2-0.4-0.3-0.7-0.3-1.2
		s0.1-0.8,0.3-1.2c0.2-0.3,0.5-0.6,0.9-0.8s0.8-0.3,1.2-0.3c0.4,0,0.8,0.1,1.1,0.2s0.6,0.4,0.8,0.7v-0.9H90.5L90.5,46.1z M88.1,50
		c0.3,0,0.7-0.1,0.9-0.2s0.5-0.4,0.6-0.6c0.1-0.3,0.2-0.6,0.2-0.9s-0.1-0.6-0.2-0.9c-0.1-0.3-0.4-0.5-0.6-0.6
		c-0.3-0.1-0.6-0.2-0.9-0.2s-0.7,0.1-0.9,0.2c-0.3,0.1-0.5,0.3-0.6,0.6s-0.2,0.6-0.2,0.9c0,0.3,0.1,0.6,0.2,0.9
		c0.1,0.3,0.4,0.5,0.6,0.6C87.5,50,87.8,50,88.1,50z"/>
	<path style="fill:#FFFFFF;" d="M98.7,47.6c0.4,0.1,0.7,0.3,0.9,0.5c0.2,0.3,0.3,0.6,0.3,1c0,0.5-0.2,0.9-0.6,1.2s-1,0.4-1.7,0.4
		h-2.9v-6.2h2.8c0.7,0,1.2,0.1,1.6,0.4c0.4,0.3,0.6,0.7,0.6,1.2c0,0.3-0.1,0.6-0.3,0.9C99.3,47.3,99,47.4,98.7,47.6z M95.5,45.1v2.3
		h2c0.5,0,0.9-0.1,1.2-0.3c0.3-0.2,0.4-0.5,0.4-0.8s-0.1-0.7-0.4-0.8c-0.3-0.2-0.7-0.3-1.2-0.3L95.5,45.1L95.5,45.1z M97.6,50.2
		c0.6,0,1-0.1,1.3-0.3s0.4-0.5,0.4-0.9c0-0.8-0.6-1.2-1.7-1.2h-2.1v2.4H97.6L97.6,50.2z"/>
	<path style="fill:#FFFFFF;" d="M105.5,48.6h-3.9c0,0.5,0.2,0.9,0.6,1.2c0.3,0.3,0.8,0.4,1.3,0.4c0.3,0,0.6-0.1,0.8-0.1
		c0.2-0.1,0.5-0.3,0.6-0.5l0.4,0.4c-0.2,0.2-0.5,0.4-0.8,0.6c-0.3,0.1-0.7,0.2-1,0.2c-0.5,0-0.9-0.1-1.3-0.3s-0.7-0.5-0.9-0.9
		c-0.2-0.4-0.3-0.8-0.3-1.2s0.1-0.9,0.3-1.2c0.2-0.4,0.5-0.7,0.8-0.8c0.4-0.2,0.7-0.3,1.2-0.3s0.8,0.1,1.2,0.3
		c0.3,0.2,0.6,0.5,0.8,0.8c0.2,0.4,0.3,0.8,0.3,1.2L105.5,48.6z M103.2,46.6c-0.4,0-0.8,0.1-1.1,0.4c-0.3,0.3-0.5,0.7-0.5,1.1h3.3
		c0-0.5-0.2-0.8-0.5-1.1S103.7,46.6,103.2,46.6z"/>
	<path style="fill:#FFFFFF;" d="M109.3,50.5c-0.1,0.1-0.3,0.2-0.4,0.2c-0.2,0.1-0.4,0.1-0.5,0.1c-0.4,0-0.8-0.1-1-0.4
		c-0.2-0.2-0.4-0.6-0.4-1v-2.8h-0.8v-0.5h0.8v-1h0.5v1h1.4v0.5h-1.4v2.8c0,0.3,0.1,0.5,0.2,0.6s0.3,0.2,0.6,0.2c0.1,0,0.3,0,0.4-0.1
		c0.1,0,0.2-0.1,0.3-0.2L109.3,50.5z"/>
	<path style="fill:#FFFFFF;" d="M112.8,50.5c-0.1,0.1-0.3,0.2-0.4,0.2c-0.2,0.1-0.4,0.1-0.5,0.1c-0.4,0-0.8-0.1-1-0.4
		c-0.2-0.2-0.4-0.6-0.4-1v-2.8h-0.8v-0.5h0.8v-1h0.6v1h1.4v0.5h-1.4v2.8c0,0.3,0.1,0.5,0.2,0.6s0.3,0.2,0.6,0.2c0.1,0,0.3,0,0.4-0.1
		c0.1,0,0.2-0.1,0.3-0.2L112.8,50.5z"/>
	<path style="fill:#FFFFFF;" d="M117.9,48.6H114c0,0.5,0.2,0.9,0.6,1.2c0.3,0.3,0.8,0.4,1.3,0.4c0.3,0,0.6-0.1,0.8-0.1
		c0.2-0.1,0.5-0.3,0.6-0.5l0.4,0.4c-0.2,0.2-0.5,0.4-0.8,0.6s-0.7,0.2-1,0.2c-0.5,0-0.9-0.1-1.3-0.3s-0.7-0.5-0.9-0.9
		c-0.2-0.4-0.3-0.8-0.3-1.2s0.1-0.9,0.3-1.2c0.2-0.4,0.5-0.7,0.8-0.8c0.4-0.2,0.7-0.3,1.2-0.3s0.8,0.1,1.2,0.3
		c0.3,0.2,0.6,0.5,0.8,0.8c0.2,0.4,0.3,0.8,0.3,1.2L117.9,48.6z M115.6,46.6c-0.4,0-0.8,0.1-1.1,0.4s-0.5,0.7-0.5,1.1h3.3
		c0-0.5-0.2-0.8-0.5-1.1C116.4,46.7,116,46.6,115.6,46.6z"/>
	<path style="fill:#FFFFFF;" d="M119.8,47c0.1-0.3,0.4-0.6,0.7-0.7s0.7-0.2,1.1-0.2v0.6h-0.1c-0.5,0-0.9,0.1-1.2,0.4
		c-0.3,0.3-0.4,0.7-0.4,1.3v2.4h-0.6v-4.7h0.6L119.8,47L119.8,47z"/>
	<path style="fill:#FFFFFF;" d="M129.6,47.7h0.6v2.4c-0.3,0.3-0.6,0.4-1,0.6c-0.4,0.1-0.8,0.2-1.3,0.2c-0.6,0-1.2-0.1-1.7-0.4
		c-0.5-0.3-0.9-0.7-1.2-1.1c-0.3-0.5-0.4-1-0.4-1.6s0.1-1.1,0.4-1.6s0.7-0.9,1.2-1.1c0.5-0.3,1.1-0.4,1.7-0.4c0.5,0,0.9,0.1,1.3,0.2
		c0.4,0.1,0.7,0.4,1,0.7l-0.4,0.4c-0.5-0.5-1.1-0.7-1.9-0.7c-0.5,0-1,0.1-1.4,0.3s-0.7,0.5-1,0.9c-0.2,0.4-0.4,0.8-0.4,1.3
		s0.1,0.9,0.4,1.3c0.2,0.4,0.6,0.7,1,0.9s0.9,0.3,1.4,0.3c0.6,0,1.2-0.2,1.6-0.5L129.6,47.7C129.5,47.7,129.6,47.7,129.6,47.7z"/>
	<path style="fill:#FFFFFF;" d="M133.8,46c0.6,0,1.1,0.1,1.4,0.5c0.3,0.3,0.5,0.8,0.5,1.4v2.9h-0.6v-0.7c-0.1,0.2-0.4,0.4-0.6,0.6
		c-0.3,0.1-0.6,0.2-1,0.2c-0.5,0-0.9-0.1-1.2-0.4c-0.3-0.2-0.5-0.6-0.5-1s0.1-0.7,0.4-1c0.3-0.2,0.8-0.4,1.4-0.4h1.5v-0.3
		c0-0.4-0.1-0.7-0.3-0.9s-0.6-0.3-1-0.3c-0.3,0-0.6,0.1-0.9,0.1s-0.5,0.2-0.7,0.4l-0.3-0.5c0.2-0.2,0.5-0.4,0.9-0.5
		C132.9,46.1,133.3,46,133.8,46z M133.4,50.3c0.4,0,0.7-0.1,0.9-0.2c0.3-0.2,0.4-0.4,0.6-0.7v-0.8h-1.5c-0.8,0-1.2,0.3-1.2,0.8
		c0,0.3,0.1,0.5,0.3,0.7C132.8,50.2,133.1,50.3,133.4,50.3z"/>
	<path style="fill:#FFFFFF;" d="M143.1,46c0.6,0,1.1,0.2,1.4,0.5c0.3,0.3,0.5,0.8,0.5,1.5v2.7h-0.6V48c0-0.5-0.1-0.9-0.4-1.1
		c-0.2-0.3-0.6-0.4-1-0.4c-0.5,0-0.9,0.1-1.2,0.4c-0.3,0.3-0.4,0.7-0.4,1.2v2.5h-0.6v-2.7c0-0.5-0.1-0.9-0.4-1.1
		c-0.2-0.3-0.6-0.4-1-0.4c-0.5,0-0.9,0.1-1.2,0.4c-0.3,0.3-0.4,0.7-0.4,1.2v2.5h-0.6v-4.7h0.6v0.9c0.2-0.3,0.4-0.5,0.7-0.7
		c0.3-0.1,0.6-0.2,1-0.2s0.7,0.1,1,0.2c0.3,0.2,0.5,0.4,0.7,0.7c0.2-0.3,0.4-0.5,0.7-0.7C142.4,46.1,142.8,46,143.1,46z"/>
	<path style="fill:#FFFFFF;" d="M150.9,48.6H147c0,0.5,0.2,0.9,0.6,1.2c0.3,0.3,0.8,0.4,1.3,0.4c0.3,0,0.6-0.1,0.8-0.1
		c0.2-0.1,0.5-0.3,0.6-0.5l0.4,0.4c-0.2,0.2-0.5,0.4-0.8,0.6s-0.7,0.2-1,0.2c-0.5,0-0.9-0.1-1.3-0.3c-0.4-0.2-0.7-0.5-0.9-0.9
		s-0.3-0.8-0.3-1.2s0.1-0.9,0.3-1.2s0.5-0.7,0.8-0.8c0.4-0.2,0.7-0.3,1.2-0.3c0.4,0,0.8,0.1,1.2,0.3c0.3,0.2,0.6,0.5,0.8,0.8
		c0.2,0.4,0.3,0.8,0.3,1.2L150.9,48.6z M148.6,46.6c-0.4,0-0.8,0.1-1.1,0.4s-0.5,0.7-0.5,1.1h3.3c0-0.5-0.2-0.8-0.5-1.1
		C149.4,46.7,149.1,46.6,148.6,46.6z"/>
	<path style="fill:#FFFFFF;" d="M153.4,50.8c-0.4,0-0.7-0.1-1.1-0.2c-0.3-0.1-0.6-0.3-0.8-0.4l0.3-0.5c0.2,0.1,0.4,0.3,0.7,0.4
		s0.6,0.1,0.9,0.1c0.4,0,0.7-0.1,0.9-0.2c0.2-0.1,0.3-0.3,0.3-0.6c0-0.2-0.1-0.3-0.2-0.4c-0.1-0.1-0.3-0.2-0.4-0.2
		c-0.2-0.1-0.4-0.1-0.7-0.1c-0.4-0.1-0.7-0.1-0.9-0.2c-0.2-0.1-0.4-0.2-0.6-0.4c-0.2-0.2-0.2-0.4-0.2-0.7c0-0.4,0.2-0.7,0.5-1
		s0.8-0.4,1.4-0.4c0.3,0,0.6,0,0.9,0.1c0.3,0.1,0.6,0.2,0.7,0.3l-0.3,0.5c-0.4-0.3-0.9-0.4-1.4-0.4c-0.4,0-0.7,0.1-0.9,0.2
		c-0.2,0.1-0.3,0.3-0.3,0.6c0,0.2,0.1,0.3,0.2,0.4c0.1,0.1,0.3,0.2,0.4,0.2c0.2,0.1,0.4,0.1,0.7,0.1c0.4,0.1,0.7,0.1,0.9,0.2
		c0.2,0.1,0.4,0.2,0.6,0.4c0.2,0.2,0.2,0.4,0.2,0.7c0,0.4-0.2,0.7-0.5,1C154.5,50.7,154,50.8,153.4,50.8z"/>
	<path style="fill:#FFFFFF;" d="M43.4,38.4c-2.1,0-3.9-0.4-5.6-1.3c-1.7-0.9-3-2.2-3.9-3.7C33,31.8,32.5,30,32.5,28s0.5-3.8,1.4-5.4
		c1-1.6,2.3-2.8,3.9-3.7c1.7-0.9,3.6-1.4,5.6-1.4c1.7,0,3.3,0.3,4.7,0.9s2.6,1.5,3.6,2.7l-3,2.8c-1.4-1.6-3.1-2.4-5.1-2.4
		c-1.2,0-2.4,0.3-3.4,0.8s-1.7,1.3-2.3,2.3c-0.5,1-0.8,2.1-0.8,3.4s0.4,2.2,0.9,3.2c0.6,1,1.3,1.8,2.3,2.3s2.1,0.8,3.4,0.8
		c2,0,3.7-0.8,5.1-2.4l3,2.8c-1,1.2-2.2,2.1-3.6,2.7C46.7,38.1,45.1,38.4,43.4,38.4z"/>
</g>
</svg>
