<?xml version="1.0" encoding="utf-8"?>
<!-- Generator: Adobe Illustrator 26.1.0, SVG Export Plug-In . SVG Version: 6.00 Build 0)  -->
<svg version="1.1" id="Layer_1" xmlns="http://www.w3.org/2000/svg" xmlns:xlink="http://www.w3.org/1999/xlink" x="0px" y="0px"
	 viewBox="0 0 1056.6 202" style="enable-background:new 0 0 1056.6 202;" xml:space="preserve">
<path style="fill:#FFFFFF;" d="M754.5,148.2c-1.7,0.2-2.6-0.6-3.7-1.9c-4-5.1-8.2-10-12.4-15.1c-4.9-6-9.8-12-14.8-18
	c-5.3-6.4-10.6-12.7-15.9-19.1c-1.8-2.2-3.3-4.7-5.1-6.9c-0.6-0.8-1.5-1.6-2.5-1.9c-1.8-0.7-2.9,0.1-2.5,2c1.6,8,0.3,16.1,0.7,24.2
	c0.2,3.1,0.2,6.1,0.3,9.2c0.1,2.9-0.6,4.1-3.4,4.2c-5.7,0.2-11.5,0.2-17.2,0.2c-1.7,0-2.6-1.7-2.6-3.8c0.1-3.6,0.2-7.3,0.2-10.9
	c0-25.3,0-50.7,0-76c0-3-0.3-6-0.3-9c0-0.9,0.7-1.7,1.1-2.6c0.9,0.4,2,0.5,2.6,1.2c3.6,4.4,7.1,9,10.7,13.4c2.7,3.4,5.6,6.6,8.4,9.9
	c4.1,4.9,8.2,9.9,12.3,14.9c5.2,6.2,10.3,12.4,15.5,18.7c0.6,0.7,0.9,1.7,1.5,2.4c0.7,0.9,1.4,1.9,2.3,2.4c0.7,0.4,2,0.5,2.6,0.1
	c0.5-0.3,0.8-1.6,0.6-2.4c-1.2-4.3-0.7-8.6-0.7-12.9c-0.1-6.3-0.2-12.6-0.3-18.9c-0.1-4.4,1.1-5.6,5.5-5.5c5.7,0.1,11.4,0.3,17,0.4
	C754.5,80.2,754.5,114.2,754.5,148.2z"/>
<path style="fill:#FFFFFF;" d="M627.9,11.4c-0.2,1.3,0.3,2.1,1.4,2.9c5.2,3.8,7.3,9.5,5.4,15.6c-1.1,3.6-4.1,5.8-7.2,7.7
	c-3.9,2.4-9.2,1.6-13-0.8c-2.8-1.8-4.3-4.2-5.6-7c-1.1-2.3-1.5-4.8-0.5-7.2c0.7-1.9,1.5-3.8,2.5-5.6c0.6-1,1.7-1.7,2.7-2.3
	c1.3-0.8,2-1.7,1.6-3.3C619.5,11.4,623.7,11.4,627.9,11.4z"/>
<path style="fill:#FFFFFF;" d="M34.2,119c-0.1-1.4-0.2-2.5,1.6-2.8c0.5-0.1,1-1,1.2-1.6c1-2.1,2-4.2,2.9-6.4c1.6-3.9,3-7.8,4.7-11.6
	c1.7-3.8,3.6-7.5,5.4-11.3c0.1-0.2,0.3-0.4,0.4-0.6c1.5-3.9,2.9-7.8,4.4-11.7c0-0.1,0-0.1,0-0.2c1.7-3.7,3.5-7.4,5.2-11.2
	c0.4-0.9,0.8-1.7,1.2-2.6c0.8-1.7,1.6-3.4,2.4-5.1c1.7-3.9,3.3-7.8,4.9-11.7c0.9-2.1,1.5-4.4,2.6-6.3c1.3-2.1,3.1-1.7,3.9,0.5
	c1.3,3.5,2.5,7.2,4,10.6c1.6,3.7,3.6,7.3,5.4,10.9c0.1,0.1,0.2,0.2,0.2,0.3c1.5,3.9,2.9,7.7,4.4,11.6c0.1,0.2,0.1,0.5,0.2,0.7
	c1.8,3.7,3.6,7.4,5.4,11.1c0.2,0.4,0.5,0.7,0.7,1.2c1.3,3.2,2.5,6.5,3.8,9.7c0.4,0.8,1.2,2,1.9,2c0.7,0.1,1.7-1,2.1-1.8
	c1.1-2.4,1.9-5,2.9-7.4c0.6-1.5,1.3-2.9,2-4.3c0.3-0.6,0.6-1.1,0.9-1.7c1.1-2.5,2.3-4.9,3.4-7.4c1.5-3.5,2.7-7.1,4.3-10.5
	c1.6-3.8,3.5-7.4,5.2-11.2c0.1-0.1,0.2-0.2,0.2-0.3c1.5-4,3-8,4.5-12.1c0.2-0.6,0.3-1.2,0.6-1.8c0.9-1.9,2.7-2.2,3.8-0.4
	c1.2,1.9,1.9,4.1,2.8,6.2c0.5,1.1,0.9,2.2,1.3,3.3c0.7,1.7,1.4,3.4,2.1,5c0,0.1,0,0.1,0.1,0.2c1.8,3.9,3.5,7.8,5.3,11.7
	c0.1,0.3,0.3,0.5,0.5,0.8c1.5,3.8,3,7.7,4.6,11.4c1.7,3.8,3.7,7.5,5.4,11.3c1.6,3.5,3.1,7.1,4.6,10.6c0.5,1.3,1,2.6,1.5,3.9
	c0.7,1.8,1.3,3.7,2.2,5.5c1.8,3.8,3.6,7.5,5.6,11.2c1.1,2,0.9,3.7-1.1,4.6c-4.7,2.1-9.4,4.2-14.1,6.4c-2.7,1.2-3.7,1.1-5.3-1.4
	c-1.1-1.6-1.7-3.5-2.5-5.3c0-0.1,0-0.1,0-0.2c-1.8-4-3.6-8.1-5.4-12.1c-0.1-0.1-0.2-0.2-0.2-0.3c-1.6-3.8-3.1-7.6-4.7-11.4
	c-0.7-1.6-1.1-3.4-2.1-4.9c-0.6-0.9-1.9-1.7-2.9-1.7c-1.5,0-1.8,1.5-2,2.8c-0.2,1.2-0.6,2.4-1.1,3.6c-0.7,1.9-1.6,3.8-2.4,5.7
	c-0.5,1.2-1,2.3-1.6,3.4c-0.1,0.2-0.3,0.4-0.4,0.6c-1.6,3.8-3.2,7.7-4.8,11.5c-1.7,3.9-3.6,7.7-5.3,11.5c0,0.1-0.1,0.1-0.1,0.2
	c-1.6,3.6-3.2,7.2-4.7,10.8c-1.2,2.8-2.2,5.7-3.4,8.5c-0.2,0.6-1.2,1.2-1.7,1.1c-0.6,0-1.3-0.8-1.6-1.4c-1.4-3.3-2.7-6.7-4.1-10
	c-1.6-3.6-3.5-7-5-10.6c-1.7-3.8-3.1-7.8-4.7-11.6c-0.6-1.5-1.4-2.9-2.1-4.3c-0.1-0.2-0.3-0.3-0.3-0.5c-1.5-3.7-3-7.5-4.6-11.2
	c-0.4-0.9-0.8-1.8-1.2-2.8c-0.7-1.6-1.2-3.3-1.9-4.9c-0.5-1-1.1-2.4-1.8-2.5c-0.8-0.2-2,0.7-2.8,1.5c-0.6,0.6-0.8,1.7-1.2,2.6
	c-1.7,4.4-3.4,8.9-5.1,13.3c-0.3,0.9-1,1.6-1.4,2.5c-1.8,4-3.4,8-5.2,12c-0.7,1.6-1.5,3.2-2.6,4.6c-1.4,1.9-2.5,2-4.7,0.9
	c-4-1.9-8-3.8-12.1-5.7c-0.7-0.3-1.6-0.7-2.4-0.8C34.5,121.4,33.8,120.6,34.2,119z"/>
<path style="fill:#FFFFFF;" d="M576.4,48.1c-0.7,1.4-1.2,2.4-1.7,3.4c-0.7,1.6-1.5,3.2-2.2,4.8c0,0.1,0,0.1,0,0.2
	c-1.7,3.7-3.4,7.4-5.1,11c-0.4,1-0.9,1.9-1.3,2.9c-0.8,1.6-1.5,3.2-2.3,4.8c0,0.1-0.1,0.1-0.1,0.2c-1.6,3.7-3.1,7.5-4.7,11.2
	c-1.8,4.2-3.6,8.3-5.5,12.5c-0.1,0.1-0.2,0.2-0.2,0.3c-1.5,3.5-3,7-4.5,10.5c-0.6,1.4-1.3,2.9-1.8,4.4c-1.7,4.6-4.7,8.7-5.7,13.7
	c-0.2,1.1-0.9,2.3-1.6,3.2c-1.6,2.1-4.3,1.6-4.5-0.9c-0.3-4-2.9-7-4-10.6c-1.2-3.9-3.4-7.4-5.2-11.1c-0.1-0.1-0.1-0.2-0.2-0.3
	c-1.6-3.9-3.2-7.7-4.8-11.6c-0.4-1-0.9-2-1.3-3c-0.7-1.8-1.4-3.5-2.2-5.3c-0.7-1.6-1.7-3.1-2.4-4.7c-1-2.5-1.9-5-2.9-7.4
	c-0.6-1.4-1.1-3.4-3-3.2c-1.9,0.2-1.8,2.2-2.3,3.6c-0.6,1.4-1.5,2.7-2,4.1c-1.5,3.8-2.8,7.7-4.4,11.5c-1.6,3.7-3.5,7.3-5.2,10.9
	c0,0.1-0.1,0.1-0.1,0.2c-1.6,3.9-3.2,7.8-4.8,11.8c0,0.1,0,0.3-0.1,0.4c-1.5,3.3-3,6.5-4.5,9.8c-0.8,1.8-1.4,3.8-2.3,5.6
	c-0.4,0.8-1.1,1.9-1.7,1.9c-0.7,0-1.7-0.9-2-1.6c-1.2-2.5-2.1-5-3.2-7.6c-0.1-0.2-0.1-0.4-0.2-0.5c-1.8-3.7-3.7-7.3-5.4-11.1
	c-1.7-3.9-3.2-7.8-4.7-11.8c0-0.1,0-0.1,0-0.2c-1.8-3.8-3.5-7.6-5.3-11.4c-0.1-0.1-0.2-0.2-0.2-0.3c-1.6-3.7-3.1-7.3-4.7-11
	c-0.5-1.1-0.9-2.2-1.4-3.3c-0.7-1.6-1.4-3.2-2.1-4.9c0-0.1,0-0.1,0-0.2c-1.7-3.8-3.4-7.6-5.1-11.4c-1.2-2.7-2.6-5.4-3.8-8.1
	c-0.7-1.6,0-2.7,1.5-3.4c3.3-1.5,6.6-2.9,9.9-4.5c1.2-0.5,2.2-1.2,3.3-1.9c2.9-1.8,5.8-0.9,7,2.2c1.6,4.1,3,8.2,4.7,12.2
	c1.6,3.8,3.6,7.5,5.4,11.3c0.4,0.8,0.6,1.7,1,2.5c1,2.4,1.8,4.9,3,7.2c0.4,0.8,1.6,1.8,2.3,1.8c0.7-0.1,1.5-1.3,1.9-2.2
	c0.9-1.7,1.5-3.6,2.2-5.4c0.7-1.9,1.4-3.8,2.1-5.7c0.8-1.9,1.6-3.8,2.5-5.7c0.8-1.6,1.9-3.2,2.6-4.9c1.6-3.8,3-7.7,4.5-11.5
	c0.2-0.5,0.5-0.9,0.8-1.3c0.8-1.8,1.6-3.6,2.3-5.4c0.1-0.3,0.1-0.6,0.3-0.9c1.7-3.6,3.4-7.2,5-10.9c0.6-1.3,0.9-2.8,1.6-4.1
	c0.4-0.8,1.1-1.7,1.8-1.9c0.5-0.1,1.6,0.8,1.9,1.5c1.2,2.6,2.2,5.3,3.3,7.9c0,0.1,0.1,0.2,0.1,0.4c1.7,3.7,3.4,7.3,5.2,11
	c0.3,0.6,0.5,1.2,0.8,1.7c1.1,2.6,2.3,5.2,3.4,7.8c1.5,3.5,2.8,7,4.3,10.5c1.7,3.9,3.6,7.7,5.3,11.5c0.5,1.2,1,2.5,1.2,3.8
	c0.2,1.5,0.3,3.1,2.2,3.4c1.9,0.3,3-1,3.7-2.5c0.5-1.1,0.7-2.3,1.1-3.5c0.5-1.4,1-2.8,1.6-4.2c0.6-1.5,1.3-3,1.9-4.5
	c1.8-3.8,3.5-7.6,5.3-11.3c0.5-1.1,0.9-2.2,1.4-3.3c1-2.2,1.9-4.5,3-6.6c1.1-2.1,2.5-2.5,4.7-1.4c4,1.9,7.9,3.9,11.8,5.8
	c0.7,0.4,1.7,0.4,2.3,0.8C574.8,46.4,575.6,47.3,576.4,48.1z"/>
<path style="fill:#FFFFFF;" d="M297.8,123.2c-0.3,2.1-1.6,3.1-3.1,4c-3.7,2.2-7.4,4.4-11,6.8c-4.2,2.8-6.4,2.2-8.9-2.4
	c-1-1.9-2.3-3.8-3.9-5.3c-0.9-0.8-2.5-1.2-3.8-1.3c-15.8-0.1-31.7,0-47.5,0c-3.2,0-5.9,0.9-7.1,4.2c-0.8,2.3-2.7,4.2-4.2,6.1
	c-0.3,0.4-1.4,0.6-2.1,0.5c-1-0.2-2.1-0.6-3-1.2c-2.5-1.6-4.9-3.3-7.4-5c-1.1-0.7-2.3-1.2-3.3-1.8c-1.1-0.7-2.2-1.3-3.1-2.2
	c-1.4-1.4-1.1-2.9,0.1-4.4c2.1-2.8,4.1-5.8,6-8.7c1.9-2.9,3.6-5.8,5.4-8.7c1.5-2.4,3-4.8,4.5-7.2c2.1-3.3,4.2-6.5,6.2-9.8
	c1.3-2.2,2.5-4.4,3.8-6.6c2-3.3,4.1-6.5,6.1-9.8c1.7-2.7,3.2-5.5,4.8-8.2c0.2-0.4,0.4-0.8,0.7-1.2c2.1-3.4,4.3-6.9,6.4-10.3
	c1.8-2.9,3.7-5.7,5.5-8.6c0.5-0.8,1.1-1.7,1.2-2.6c0.2-2.7,2.7-3.6,5.1-1.6c0.4,0.4,0.8,0.8,1,1.4c1.8,4.3,4.2,8.2,6.8,12.1
	c2.9,4.2,5.2,8.8,7.9,13.2c1.7,2.8,3.6,5.4,5.3,8.1c1.7,2.8,3.2,5.6,4.8,8.4c0.3,0.5,0.6,1,0.9,1.5c2,3.1,3.9,6.2,5.9,9.3
	c1.7,2.7,3.5,5.3,5.2,8c0.5,0.7,0.9,1.4,1.4,2.1c2.2,3.6,4.3,7.1,6.5,10.7c1.2,1.9,2.3,3.9,3.6,5.8c0.8,1.2,1.7,2.2,2.5,3.3
	C297.2,122.1,297.5,122.7,297.8,123.2z M244.3,102c0,0.1,0,0.2,0,0.3c3.1,0,6.3,0,9.4,0c1.9,0,2.9-1.3,2.2-3
	c-0.2-0.6-0.7-1.2-1.1-1.7c-1.4-1.9-3.1-3.6-4.3-5.6c-1.7-2.9-2.9-6-4.4-9c-0.8-1.5-2.1-2.4-3.9-2.2c-1.6,0.2-2,1.5-2.3,2.9
	c-0.2,0.9-0.7,1.7-1.2,2.5c-0.6,1-1.4,1.8-2,2.8c-1.7,3.2-3.5,6.3-6.1,8.9c-0.6,0.6-0.8,2.2-0.5,3.1c0.3,0.7,1.6,1.5,2.5,1.5
	C236.5,102.5,240.4,102.2,244.3,102z"/>
<path style="fill:#FFFFFF;" d="M336.3,38.2c1.1,0.8,2.1,1.2,2.8,1.9c2.9,3,5.6,6.2,8.5,9.3c5,5.1,10,10.2,15,15.3
	c0.6,0.6,0.9,1.4,1.4,2c1.6,2,4.2,2,5.8,0.3c4.3-4.6,8.6-9.2,13-13.8c4.1-4.3,8.2-8.5,12.2-12.9c1.6-1.7,4.6-2.3,6.5,0.2
	c2.5,3.3,5.8,6,8.8,9c0.8,0.8,1.5,1.5,2.1,2.4c1,1.5,0.8,2.8-0.6,4.1c-8.4,8.2-16.8,16.4-25.2,24.7c-0.6,0.6-1.3,1.2-1.9,1.9
	c-1.4,1.6-1.2,3,0.3,4.5c4.2,4.1,8.4,8.3,12.7,12.5c4.1,4.1,8.2,8.2,12.5,12.1c3.9,3.6,3.9,4.6,0.1,8.4c-3.3,3.2-6.4,6.5-9.6,9.9
	c-1.4,1.4-3,1.7-4.6,0.3c-1.2-1.1-1.9-2.5-3-3.7c-3.1-3.1-6.3-6.1-9.4-9.3c-4.4-4.5-8.8-9-13.1-13.7c-2.3-2.4-4-2.6-6.4-0.2
	c-6.8,6.9-13.6,13.8-20.4,20.7c-1.7,1.7-3.3,3.6-4.8,5.4c-1.5,1.8-3.6,2.1-5.3,0.4c-3.8-3.9-7.6-7.9-11.4-11.9
	c-1.5-1.6-1.4-3.1,0.4-4.9c2.9-3,5.9-5.9,8.8-8.8c5.8-5.7,11.6-11.4,17.3-17.1c1.7-1.7,1.7-3.1-0.2-4.9c-8.5-8.6-17-17.2-25.5-25.7
	c-2.5-2.5-2.3-4.5,0.4-6.9c3.3-3,6.2-6.4,9.4-9.5C333.9,39.6,335.1,39.1,336.3,38.2z"/>
<path style="fill:#FFFFFF;" d="M633.3,85.6c0,10.7,0,21.4,0,32.1c0,0.8,0,1.7,0.1,2.5c0.2,3.4-0.8,4.7-4.3,4.8
	c-5.3,0.1-10.6,0.1-15.9,0c-1.9,0-3.1-1.4-3.1-3.4c0-24,0.1-48.1,0.1-72.1c0-2.6,1.1-3.7,3.8-3.6c4.7,0,9.3,0,14,0.1
	c0.9,0,1.8,0.1,2.7,0.3c1.8,0.4,2.7,1.5,2.7,3.4c-0.1,4.2-0.1,8.4-0.1,12.6C633.2,70,633.2,77.8,633.3,85.6
	C633.2,85.6,633.2,85.6,633.3,85.6z"/>
<path style="fill:#FFFFFF;" d="M346.2,171.6c0.1-3.1,0.2-6.1,0.4-9.2c0.1-2.3,1.2-3.3,3.5-3.5c4.4-0.4,5.9,0.8,6.6,5.2
	c0.3,1.6,0.4,3.3,0.7,4.9c0.2,1.5,1.3,1.8,2.7,1.9c1.3,0,2.7,0,3-1.7c0.3-1.4,0.4-2.8,0.5-4.2c0.3-4.3,3-6.7,7-6.2
	c1.7,0.2,3,1.1,3,2.9c0.1,6.5,0,13,0,19.5c0,1.4-0.7,1.9-2,1.7c-1.3-0.2-3.2,0.7-3.2-1.7c0-1.9,0.2-3.8,0.2-5.7
	c0-1.6-0.2-3.3-0.3-4.9c-1.5,1.3-3,2.5-4.5,3.8c-0.3,0.2-0.2,0.8-0.3,1.3c-0.1,1.3-0.3,2.5-0.4,3.8c-0.3,3.4-0.3,3.4-3.7,3.4
	c-1.7,0-2.4-0.5-2.4-2.2c0-1.6-0.3-3.2-0.5-4.8c-0.1-0.9-0.1-2.1-0.7-2.5c-1.1-0.9-2.5-1.4-3.8-2.1c-0.1,1.1-0.4,2.2-0.4,3.3
	c0,2.3,0.2,4.5,0.3,6.8c0,1.1-0.6,1.4-1.6,1.4c-4.4,0-3.9,0.5-4.1-3.8C346.2,176.7,346.3,174.1,346.2,171.6
	C346.3,171.6,346.2,171.6,346.2,171.6z"/>
<path style="fill:#FFFFFF;" d="M525.2,172c-0.1,2.3-0.3,6-0.4,9.6c0,1.1-0.6,1.4-1.6,1.4c-0.7,0-1.4,0-2.1,0c-1.7,0-2.8,0-3.7-2.1
	c-1.1-2.5-2.3-5-3.3-7.6c-0.8-2-2.6-3.5-4.1-5.1c-0.1-0.1-1.5,0.6-1.5,0.9c-0.1,1.8-0.1,3.7,0.2,5.5c0.5,2.4,0.8,4.7,0.1,7.2
	c-0.5,1.9-1.9,1.1-2.9,1.3c-1.1,0.2-1.9-0.2-1.9-1.5c0-5.5-0.1-11.1-0.2-16.6c0-0.6,0.1-1.1,0.1-1.7c-0.1-1.7,0.1-3.2,1.9-4
	c1.7-0.7,4.6-0.4,5.7,1.1c1.3,1.8,2.6,3.7,3.1,5.8c0.7,2.8,3.1,4,4.7,5.9c0,0,1.4-0.7,1.4-1c0-1.7-0.2-3.4-0.3-5.1
	c-0.1-1.2-0.5-2.4-0.5-3.6c0-1.9,1.2-3.2,2.9-3.2c1.6,0,2.5,1.1,2.6,3.1C525.2,164.9,525.2,167.8,525.2,172z"/>
<path style="fill:#FFFFFF;" d="M599.7,183c-0.1,0-0.3,0-0.4,0c-2.5-0.1-5.3,0.6-7.3-0.5c-2-1-3.1-3.7-4.4-5.7c-0.6-0.9-0.9-2-1-3
	c-0.2-1.8-0.4-3.8,0-5.5c0.4-1.8,1.5-3.4,2.6-5c3.6-5.1,7.7-5.9,13.8-4.7c2.6,0.5,4.2,2.4,5.7,4.3c0.9,1.2,0.4,2.4-1.1,2.8
	c-1.7,0.5-3.1,0-4.3-1.3c-2.1-2.1-4.4-2.5-7-1.4c-0.6,0.3-1.1,0.6-1.5,1.1c-3.1,3.7-3,9.7,0.2,13.2c1.9,2,4.4,2.4,7.1,2
	c1.5-0.2,2.1-1.8,1.2-3.2c-0.7-1.1-2-1.8-2.7-2.9c-0.6-0.7-1.3-2-1-2.6c0.4-0.8,1.7-1.5,2.6-1.5c5.2,0.4,9.2,3.7,7.3,9.6
	c-0.3,1-0.6,2.1-1.1,3c-0.2,0.4-0.9,0.9-1.4,0.9C604.4,183,602,182.9,599.7,183C599.7,182.9,599.7,183,599.7,183z"/>
<path style="fill:#FFFFFF;" d="M193.3,183c-2.2,0-4.5,0-6.7,0c-0.9,0-1.6-0.2-1.7-1.3c-0.1-0.4-0.4-0.8-0.7-1.1
	c-4.5-4.9-5.7-10.7-2.4-16.4c2.3-4,6.2-6.3,11.2-6c3.2,0.2,6.2,1,8.3,3.7c0.6,0.8,1,2.1,0.7,3c-0.1,0.5-1.7,1.1-2.5,0.9
	c-1.3-0.2-2.7-0.8-3.7-1.7c-2.9-2.6-5.1-2.2-7.7,0.8c-1.9,2.3-3,4.5-2.5,7.4c0.2,1.1,0.7,2.1,1.3,3c0.7,1,1.7,1.8,2.5,2.6
	c1.4,1.4,3.1,1.8,4.9,1.4c2-0.5,2.6-1.9,1.3-3.6c-0.6-0.8-1.6-1.4-2-2.3c-0.5-0.9-0.9-2.1-0.7-3.1c0.1-0.5,1.7-0.7,2.6-0.8
	c0.6-0.1,1.3,0.2,1.9,0.2c3.1,0,4.5,0.8,4.8,4.8c0.2,2.4-0.3,4.9-0.7,7.4c-0.1,0.4-1,0.9-1.5,0.9C197.9,183,195.6,183,193.3,183
	C193.3,183,193.3,183,193.3,183z"/>
<path style="fill:#FFFFFF;" d="M283.1,182.9c-1.5,0.2-2.4,0-2.7-1.7c-0.1-0.8-1-1.8-1.8-2c-2.9-1-5.9-1.4-8.7,0.4
	c-0.7,0.4-1.3,1.1-1.6,1.8c-0.7,1.4-2.8,2.2-4.1,1.5c-0.3-0.2-0.6-0.8-0.5-1.1c0.4-1.9,0.3-4.2,1.4-5.6c1.5-2,2.1-4,2.1-6.3
	c0.1-2,0.8-3.7,2-5.2c0.7-0.9,1.1-2,1.5-3.1c0.5-1.5,1.4-2.6,3.1-2.7c1.9-0.2,3.4,0.2,4.4,2c1.5,3,3.2,5.8,3.8,9.3
	c0.5,2.8,2,5.5,3,8.2c0.3,0.7,0.3,1.5,0.4,2.2C285.4,182.2,285.1,183.4,283.1,182.9z M274.4,173c2.1,0,3.1-0.7,3.1-2.4
	c0-1.7-1.1-2.9-2.6-2.9c-2.1,0-3.7,1.4-3.7,3.1C271.3,172.2,272.4,173,274.4,173z"/>
<path style="fill:#FFFFFF;" d="M435.4,170.8c0-2.8,0-5.6,0-8.4c0-2.4,1-3.5,3.1-3.5c2.4,0,3.7,1.2,3.7,3.6c0,5.3,0,10.6,0,15.9
	c0,0.2,0,0.4,0,0.6c-0.2,3.9-1.5,4.9-5.4,4c-0.4-0.1-1-0.9-1-1.4c-0.1-3.6,0-7.1,0-10.7C435.7,170.8,435.6,170.8,435.4,170.8z"/>
</svg>
