<?xml version="1.0" encoding="utf-8"?>
<!-- Generator: Adobe Illustrator 22.0.0, SVG Export Plug-In . SVG Version: 6.00 Build 0)  -->
<svg version="1.1" id="Layer_1" xmlns="http://www.w3.org/2000/svg" xmlns:xlink="http://www.w3.org/1999/xlink" x="0px" y="0px"
	 viewBox="0 0 1056.6 202" style="enable-background:new 0 0 1056.6 202;" xml:space="preserve">
<style type="text/css">
	.st0{fill:#FFFFFF;}
</style>
<g>
	<path class="st0" d="M226.5,51.3H52.4c-10.5,0-19,8.7-19,19.2v79.8c0,10.5,8.5,19.1,19,19.1h174.1c10.4,0,18.9-8.6,18.9-19.1V70.5
		C245.4,60,236.9,51.3,226.5,51.3z M238.7,150.3c0,6.7-5.5,12.3-12.2,12.3H52.4c-6.7,0-12.3-5.6-12.3-12.3V70.5
		c0-6.8,5.5-12.3,12.3-12.3h174.1c6.6,0,12.2,5.5,12.2,12.3V150.3z"/>
	<path class="st0" d="M259.9,2.6c-6.7,0-12.3,5.5-12.3,12.3s5.5,12.3,12.3,12.3c6.7,0,12.2-5.5,12.2-12.3
		C272,8.1,266.6,2.6,259.9,2.6z"/>
	<path class="st0" d="M263.4,29.6c-1.1,0.3-2.3,0.4-3.5,0.4c-1.3,0-2.5-0.1-3.6-0.4v59.1c2.7,1,5.1,2.5,7.1,4.4V29.6z"/>
	<path class="st0" d="M248.2,90v40.6c11.2,0,20.1-9,20.1-20.3C268.3,99.2,259.3,90,248.2,90z"/>
	<path class="st0" d="M135.2,105.6c-4.4,4.2-10.3,6.6-16.4,6.6c-0.3,0-0.6,0-0.9,0c0.5,4.7,2.5,9.2,6,12.8l15.4-15.4L135.2,105.6z"
		/>
	<path class="st0" d="M134.5,104.8l-10.6-10.6c-4.5,4.7-6.5,10.8-6.1,16.9C124,111.3,130,109.1,134.5,104.8z"/>
	<path class="st0" d="M144,114.3l-4-4l-15.4,15.4c3.6,3.5,8.1,5.5,12.8,6C137.2,125.2,139.5,119,144,114.3z"/>
	<path class="st0" d="M136,104.8l4,4l15.4-15.4c-3.6-3.5-8.1-5.5-12.8-6C142.8,93.9,140.5,100.1,136,104.8z"/>
	<path class="st0" d="M141.5,87.3c-0.5,0-1-0.1-1.5-0.1c-5.5,0-11.1,2.1-15.4,6.1l10.6,10.6C139.5,99.5,141.8,93.5,141.5,87.3z"/>
	<path class="st0" d="M138.5,131.8c6,0.4,12.2-1.6,16.9-6.1l-10.6-10.6C140.5,119.6,138.2,125.6,138.5,131.8z"/>
	<path class="st0" d="M145.5,114.3l10.6,10.6c4.5-4.7,6.5-10.8,6.1-16.9C156,107.8,150,110,145.5,114.3z"/>
	<path class="st0" d="M156.6,67.3c-11.5,0-23,0-34.5,0c-5.8,0-10.5,4.8-10.5,10.7c0,21.5,0,43.1,0,64.7c0,5.9,4.7,10.6,10.5,10.6
		c11.5,0,23,0,34.5,0c5.8,0,10.5-4.7,10.5-10.6c0-21.6,0-43.2,0-64.7C167.2,72.2,162.4,67.3,156.6,67.3z M157.1,126.7
		c-4.6,4.6-10.6,7.1-17.1,7.1s-12.5-2.5-17.1-7.1c-9.4-9.4-9.4-24.8,0-34.2c4.6-4.6,10.6-7.1,17.1-7.1s12.5,2.5,17.1,7.1
		C166.5,101.9,166.5,117.2,157.1,126.7z"/>
	<path class="st0" d="M140.8,109.6l4,4c4.7-4.5,10.9-6.8,17.4-6.6c-0.5-4.7-2.5-9.2-6-12.8L140.8,109.6z"/>
	<path class="st0" d="M63.1,115.4l5-1.7v-0.1l2.9-9.2l-3-5l-6.5-0.9l-4.1,12.9L63.1,115.4L63.1,115.4z"/>
	<path class="st0" d="M71.4,130.5l-9.3-6.6C64.6,126.8,67.8,129.1,71.4,130.5z"/>
	<path class="st0" d="M72.3,90.9L72.3,90.9h12.3l-0.5-2.8c0-0.1,0-0.2,0.1-0.3l0.1-0.1c-1.7-0.4-3.4-0.6-5.1-0.6
		c-3.1,0-6,0.6-8.7,1.8l1.7,1.6C72.3,90.7,72.3,90.8,72.3,90.9z"/>
	<path class="st0" d="M68.6,114.1l-5.5,1.8l-2,6.5l10.9,7.8l4.8-3.9l0,0l-0.7-6.8L68.6,114.1z"/>
	<path class="st0" d="M81.1,104L81.1,104l4.9-6c-0.1,0-0.1-0.1-0.1-0.2l-1.1-6.3H72L68.4,99l3.1,5.1L81.1,104z"/>
	<path class="st0" d="M60,98.3c-2,3.3-3.1,7.2-3.1,11.3c0,0.5,0,1,0.1,1.5l4-12.7L60,98.3z"/>
	<path class="st0" d="M95.8,99.4C95.8,99.4,95.7,99.4,95.8,99.4l-1.1-0.1l3.3,9.9l0.5-0.4c0.1-0.1,0.2-0.1,0.3,0l2.7,1.7
		c0-0.3,0-0.5,0-0.8c0-4.9-1.6-9.4-4.2-13.1L96,99.2C96,99.3,95.9,99.4,95.8,99.4z"/>
	<polygon class="st0" points="91.2,115.8 84,113.9 76.7,119.4 77.4,126.5 83.4,130.5 93.9,122.7 	"/>
	<path class="st0" d="M96.1,67.3H61.7c-5.8,0-10.6,4.8-10.6,10.7v64.7c0,5.9,4.8,10.6,10.6,10.6h34.4c5.8,0,10.6-4.7,10.6-10.6V78
		C106.7,72.2,101.9,67.3,96.1,67.3z M79.2,133.8c-13.3,0-24.2-10.9-24.2-24.2s10.9-24.2,24.2-24.2s24.2,10.9,24.2,24.2
		C103.4,122.9,92.6,133.8,79.2,133.8z"/>
	<path class="st0" d="M86.6,98.1l-5.1,6.5l3,8.9v0.1l6.5,1.7c0-0.1,0-0.2,0.1-0.3l6.5-5.5l-3.5-10.3L86.6,98.1z"/>
	<path class="st0" d="M94.8,124.4c-0.1,0-0.2-0.1-0.2-0.2l-0.4-1.1l-10.3,7.6l0.7,0.5c4.5-1.1,8.4-3.6,11.4-6.9L94.8,124.4
		L94.8,124.4z"/>
	<path class="st0" d="M212.3,116c-0.9,3.4-3.4,5.8-7.1,6.9c-1.3,0.4-2.7,0.6-4.1,0.6c-3.8,0-7.6-1.4-10.2-3.8
		c-0.2-0.1-0.3-0.3-0.5-0.5c-3-3-4.5-7.2-4.1-11.5c0.4-3.8,2.2-8.5,6.3-10.2c6.9-2.8,10.3-6.2,10.1-9.8c-0.8-0.1-1.6-0.1-2.4-0.1
		c-5.6,0-11.2,2.1-15.4,6.4c-4.1,4.1-6.4,9.6-6.4,15.5c0,5.8,2.3,11.3,6.4,15.5c4.1,4.1,9.6,6.4,15.4,6.4c5.8,0,11.3-2.3,15.4-6.4
		c4.9-4.9,7-11.5,6.3-17.9C217.4,106.3,214,109.5,212.3,116z"/>
	<path class="st0" d="M203.7,88c0.1,3-2,7-10.8,10.6c-3.7,1.5-5.4,5.8-5.7,9.3c-0.4,4,1,7.9,3.8,10.7c0.1,0.1,0.3,0.3,0.4,0.4
		c3.4,3.1,8.8,4.3,13.4,3c3.3-1,5.6-3.2,6.4-6.2c1.8-6.9,5.6-10.4,10.5-9.7c-0.4-2.3-1.1-4.5-2.1-6.6l0,0c-0.1-0.1-0.1-0.3-0.2-0.4
		c-1-1.8-2.2-3.5-3.7-5C212.3,90.7,208.1,88.7,203.7,88z"/>
	<path class="st0" d="M217.1,67.3h-34.4c-5.8,0-10.6,4.8-10.6,10.7v64.7c0,5.9,4.8,10.6,10.6,10.6h34.4c5.9,0,10.6-4.7,10.6-10.6V78
		C227.7,72.2,223,67.3,217.1,67.3z M217,126.3c-4.5,4.5-10.4,6.9-16.8,6.9c-6.3,0-12.3-2.5-16.8-6.9c-4.5-4.5-6.9-10.4-6.9-16.8
		s2.5-12.3,6.9-16.8c9.2-9.2,24.3-9.2,33.5,0C226.2,102,226.2,117.1,217,126.3z"/>
</g>
<path class="st0" d="M298.8,131.5c-0.3-0.4-0.4-1.2,0.2-1.7l10.2-9.8c0.5-0.5,1.2-0.5,1.5-0.1c3.2,3.5,8.9,6.5,15.3,6.5
	c6.6,0,10.7-3.4,10.7-7.8c0-2.6-1.6-4.3-7.2-5.2l-3.4-0.5c-12.1-1.7-18.6-7.6-18.6-17.2c0-14.8,11.2-24.7,27.9-24.7
	c9.1,0,17.2,3.1,22.4,7.6c0.5,0.4,0.5,0.9-0.1,1.5l-8.8,10.1c-0.5,0.5-1.1,0.6-1.5,0.3c-4-3.1-8.4-4.8-13.6-4.8
	c-5.1,0-8.8,3.1-8.8,7c0,2.6,1.7,4.4,7.4,5.2l3.3,0.5c12.1,1.8,18.6,7.4,18.6,17c0,16.1-12.3,25.8-30.3,25.8
	C313.5,141.2,303,136.6,298.8,131.5z"/>
<path class="st0" d="M359.8,140c-0.5,0-0.9-0.4-0.8-1l11.7-65.8c0.1-0.6,0.5-1,1-1h26.2c14,0,20.7,6.9,20.7,17.7
	c0,17.2-12.1,27-28.5,27h-9.7c-0.4,0-0.7,0.2-0.7,0.6l-3.9,21.4c-0.1,0.6-0.5,1-1,1h-15V140z M401.5,92.7c0-3.9-2.5-6.2-7.1-6.2
	h-8.7c-0.3,0-0.6,0.2-0.6,0.6l-2.7,14.9c0,0.4,0.1,0.6,0.4,0.6h8.8C397.4,102.6,401.5,98.9,401.5,92.7z"/>
<path class="st0" d="M420.4,119.8c0-6.6,3-25.5,6.7-33C432.5,75.7,442,71,453.9,71c13.6,0,22.5,7.3,22.5,21.3c0,6.6-3,25.5-6.7,33
	c-5.5,11.1-15,15.8-26.8,15.8C429.4,141.2,420.4,133.9,420.4,119.8z M454.5,119.6c1.9-3.9,4.9-20.6,4.9-25.7c0-4.8-2.6-7.9-7.5-7.9
	c-4.5,0-7.7,2.5-9.6,6.5c-1.9,3.9-4.9,20.6-4.9,25.7c0,4.8,2.6,7.9,7.5,7.9C449.4,126.1,452.6,123.6,454.5,119.6z"/>
<path class="st0" d="M514.5,140c-0.8,0-1.1-0.3-1.3-1l-5.9-23.4h-7.7c-0.4,0-0.6,0.2-0.7,0.6l-4.1,22.8c-0.1,0.6-0.5,1-1.1,1h-15
	c-0.5,0-0.9-0.4-0.8-1l11.7-65.8c0.1-0.6,0.5-1,1-1h26.6c13.3,0,20.3,7.2,20.3,17.4c0,11.2-5.9,19.2-14.8,23.2l7.3,25.9
	c0.1,0.6-0.2,1.2-0.8,1.2h-14.7V140z M520.4,92.2c0-3.6-2.5-5.7-6.7-5.7h-9c-0.4,0-0.6,0.2-0.7,0.6l-2.5,13.9
	c-0.1,0.4,0.1,0.6,0.5,0.6h9C516.2,101.5,520.4,98.2,520.4,92.2z"/>
<path class="st0" d="M559.3,131.5c-0.3-0.4-0.4-1.2,0.2-1.7l10.2-9.8c0.5-0.5,1.2-0.5,1.5-0.1c3.2,3.5,8.9,6.5,15.3,6.5
	c6.6,0,10.7-3.4,10.7-7.8c0-2.6-1.6-4.3-7.2-5.2l-3.4-0.5c-12.1-1.7-18.6-7.6-18.6-17.2C568,81,579.2,71,595.9,71
	c9.1,0,17.2,3.1,22.4,7.6c0.5,0.4,0.5,0.9-0.1,1.5l-8.8,10.1c-0.5,0.5-1.1,0.6-1.5,0.3c-4-3.1-8.4-4.8-13.6-4.8
	c-5.1,0-8.8,3.1-8.8,7c0,2.6,1.7,4.4,7.4,5.2l3.3,0.5c12.1,1.8,18.6,7.4,18.6,17c0,16.1-12.3,25.8-30.3,25.8
	C574.1,141.2,563.5,136.6,559.3,131.5z"/>
<path class="st0" d="M631.2,73.2c0.1-0.6,0.5-1,1.1-1h14.9c0.6,0,0.9,0.4,0.8,1l-9,51.1c-0.1,0.4,0.1,0.6,0.4,0.6h25.7
	c0.6,0,0.9,0.4,0.8,1l-2.3,13.1c-0.1,0.6-0.5,1-1.1,1h-42.2c-0.6,0-1-0.4-0.9-1L631.2,73.2z"/>
<path class="st0" d="M670.9,119.8c0-6.6,3-25.5,6.7-33C683,75.7,692.5,71,704.4,71c13.6,0,22.5,7.3,22.5,21.3c0,6.6-3,25.5-6.7,33
	c-5.5,11.1-15,15.8-26.8,15.8C679.9,141.2,670.9,133.9,670.9,119.8z M705,119.6c1.9-3.9,4.9-20.6,4.9-25.7c0-4.8-2.6-7.9-7.5-7.9
	c-4.5,0-7.7,2.5-9.6,6.5c-1.9,3.9-4.9,20.6-4.9,25.7c0,4.8,2.6,7.9,7.5,7.9C699.9,126.1,703.1,123.6,705,119.6z"/>
<path class="st0" d="M742.3,140c-0.5,0-0.9-0.4-0.8-1l9.1-51.1c0.1-0.4-0.1-0.6-0.5-0.6h-16c-0.6,0-1-0.4-0.9-1l2.4-13.1
	c0.1-0.6,0.5-1,1.1-1h50.2c0.6,0,1,0.4,0.9,1l-2.3,13.1c-0.1,0.6-0.6,1-1.2,1h-16.1c-0.4,0-0.6,0.2-0.7,0.6l-9.1,51.1
	c-0.1,0.6-0.5,1-1.1,1H742.3z"/>
<path class="st0" d="M794.3,73.2c0.1-0.6,0.5-1,1.1-1h14.9c0.6,0,0.9,0.4,0.8,1l-9,51.1c-0.1,0.4,0.1,0.6,0.4,0.6h25.7
	c0.6,0,0.9,0.4,0.8,1l-2.3,13.1c-0.1,0.6-0.5,1-1.1,1h-42.2c-0.6,0-1-0.4-0.9-1L794.3,73.2z"/>
<path class="st0" d="M830.1,139l34.3-65.8c0.3-0.6,0.7-1,1.4-1h15.6c0.7,0,1.1,0.4,1.1,1l10.6,65.8c0.1,0.6-0.2,1-0.7,1H877
	c-0.7,0-1.1-0.4-1.2-1l-1.2-10.8h-21.1l-5.1,10.8c-0.3,0.6-0.7,1-1.4,1h-16.4C830,140,829.8,139.6,830.1,139z M873,114l-2.4-21.9
	h-0.2L860.1,114H873z"/>
<path class="st0" d="M936.2,140c-0.8,0-1.1-0.3-1.3-1l-5.9-23.4h-7.7c-0.4,0-0.6,0.2-0.7,0.6l-4.1,22.8c-0.1,0.6-0.5,1-1.1,1h-15
	c-0.5,0-0.9-0.4-0.8-1l11.7-65.8c0.1-0.6,0.5-1,1-1H939c13.3,0,20.3,7.2,20.3,17.4c0,11.2-5.9,19.2-14.8,23.2l7.3,25.9
	c0.1,0.6-0.2,1.2-0.8,1.2h-14.8V140z M942.1,92.2c0-3.6-2.5-5.7-6.7-5.7h-9c-0.4,0-0.6,0.2-0.7,0.6l-2.5,13.9
	c-0.1,0.4,0.1,0.6,0.5,0.6h9C937.9,101.5,942.1,98.2,942.1,92.2z"/>
</svg>
