<?xml version="1.0" encoding="utf-8"?>
<!-- Generator: Adobe Illustrator 26.1.0, SVG Export Plug-In . SVG Version: 6.00 Build 0)  -->
<svg version="1.1" id="Layer_1" xmlns="http://www.w3.org/2000/svg" xmlns:xlink="http://www.w3.org/1999/xlink" x="0px" y="0px"
	 viewBox="0 0 1056.6 202" style="enable-background:new 0 0 1056.6 202;" xml:space="preserve">
<g id="Livello_1_1_">
</g>
<g id="Layer_1_00000121280000816817959920000000882230360127541942_">
</g>
<path style="fill:#007A95;" d="M145.8,189.8c-9.4-7-18.7-13.9-28.6-21.3c9.9-7.1,19.3-13.9,29.3-21.2c0,14.8,0,28.6,0,42.4
	C146.3,189.8,146.1,189.8,145.8,189.8z"/>
<path style="fill:#00E4F9;" d="M151.1,189.8c-0.3-3.6-0.7-7.2-0.8-10.8c-0.1-9.4,0-18.8,0-29.1c5.7,8.7,11.1,16.8,16.3,24.8
	c-5,5.2-9.9,10.2-14.8,15.2C151.6,189.8,151.4,189.8,151.1,189.8z"/>
<path style="fill:#00AFC6;" d="M113.8,164.5c-2.5-13.2-5.1-26.5-7.7-40.2c9.5-0.8,18.5-1.5,28.4-2.3c-6.8,14.6-13.3,28.6-19.8,42.5
	C114.4,164.6,114.1,164.5,113.8,164.5z"/>
<path style="fill:#00A2BD;" d="M183,140.2c-13.2-7.7-26.4-15.3-40.3-23.4c6.1-5.3,11.8-10.3,17.9-15.6c7.9,12.9,15.6,25.4,23.3,37.9
	C183.6,139.5,183.3,139.8,183,140.2z"/>
<path style="fill:#00E4F9;" d="M130.5,71.1c-7,1.9-13.8,3.8-21.2,5.8c0.7-13.8,1.4-27,2-40.8C121.9,45.8,127.6,57.4,130.5,71.1z"/>
<path style="fill:#005C64;" d="M166.8,170.6c-5.6-8.5-10.7-16.4-16.5-25.3c12.2,0,23.6,0,35.5,0
	C179.6,153.5,173.4,161.8,166.8,170.6z"/>
<path style="fill:#00E4F9;" d="M71.1,111.9c10.1-11.9,19.6-23.1,29.1-34.3c0.3,0.2,0.6,0.3,0.9,0.5c-1,6-1.9,12-2.9,18.1
	c-0.8,4.6-1.7,9.1-2.3,13.7c-0.3,2.3-1,3.3-3.6,3.1C85.5,112.4,78.8,112.2,71.1,111.9z"/>
<path style="fill:#00A3BE;" d="M131.1,92.7c-9.2,8.2-17.7,15.9-26.3,23.6c-0.3-0.1-0.6-0.2-0.9-0.4c1.8-11.8,3.5-23.6,5.4-36.1
	C116.8,84.2,123.6,88.3,131.1,92.7z"/>
<path style="fill:#00AFC6;" d="M103.5,72.6c-7-5.4-13.3-10.2-20-15.4c7.5-8.4,14.7-16.6,21.9-24.7c0.3,0.1,0.6,0.1,0.9,0.2
	C105.5,45.8,104.5,58.8,103.5,72.6z"/>
<path style="fill:#007A95;" d="M143.3,119.8c13,7.3,26,14.5,40,22.3c-2,0.4-2.8,0.6-3.5,0.6c-9.2,0.4-18.4,0.8-27.6,1
	c-1,0-2.7-0.6-3-1.4c-2.4-7.2-4.5-14.6-6.7-21.9C142.8,120.3,143,120,143.3,119.8z"/>
<path style="fill:#00E4F9;" d="M165.1,102.6c8.8,3.9,17.7,7.8,26.4,11.9c0.8,0.4,1.5,2,1.3,2.9c-1.5,7.6-3.2,15.1-5.1,23.9
	c-8.2-13.3-15.8-25.7-23.4-38C164.6,103.1,164.8,102.9,165.1,102.6z"/>
<path style="fill:#00E4F9;" d="M138.9,120.9c1.9,7.1,3.9,14.2,5.8,21.4c0.2,0.8-0.3,2.1-0.9,2.6c-8.1,6.4-16.3,12.6-24.5,18.9
	c-0.2,0.2-0.7,0.1-1.6,0.1c6.8-14.6,13.4-28.8,20-43.1C138.1,120.8,138.5,120.9,138.9,120.9z"/>
<path style="fill:#007995;" d="M190.1,140.1c2-7.4,3.9-14.8,5.9-22.2c0.2-0.6,1.3-1.4,1.9-1.4c9.5,0.2,19.1,0.5,28.6,0.7
	c0.1,0.4,0.3,0.7,0.4,1.1c-12,7.5-24,14.9-36.1,22.4C190.6,140.6,190.3,140.3,190.1,140.1z"/>
<path style="fill:#007995;" d="M138.2,93.1c11.6-1.7,22.7-3.4,33.8-5.1c0.2,0.3,0.3,0.6,0.5,0.9c-10.3,8.4-20.7,16.8-31.7,25.8
	C139.9,107.1,139,100.3,138.2,93.1z"/>
<path style="fill:#003F4E;" d="M115.1,33.8c3.3,1,6.7,2,10,3c8.4,2.7,16.7,5.5,25.1,8.1c2.5,0.8,3.5,1.9,3.4,4.5
	c0,2.5,0.5,5,0.8,8.1c-2-0.6-3.4-1-4.9-1.4c-5.1-1.5-10-3.6-15.2-4.4c-10.4-1.7-13.2-11.3-19.8-16.9
	C114.7,34.5,114.9,34.2,115.1,33.8z"/>
<path style="fill:#00E4F9;" d="M159.2,46.9c6.9,0.3,13.2,0.6,19.8,1c1.5,7.5,2.9,14.8,4.5,23c-1.8-0.7-3.1-1.1-4.2-1.7
	c-5.8-2.7-11.7-5.3-17.5-8.2c-1.1-0.6-2.4-2-2.5-3.1C159,54.5,159.2,51,159.2,46.9z"/>
<path style="fill:#005564;" d="M102.7,131c2.3,12.3,4.6,24.7,7.1,37.9c-7.4-3.3-14.1-6.4-21.3-9.6c4.5-9.6,8.9-19,13.3-28.3
	C102,131,102.3,131,102.7,131z"/>
<path style="fill:#007995;" d="M75.3,118.3c7.6,0.4,14.6,0.7,22.4,1.1c-5,10.7-9.9,20.9-14.7,31.2c-0.3,0-0.6-0.1-0.9-0.1
	C79.9,140,77.7,129.5,75.3,118.3z"/>
<path style="fill:#00E4F9;" d="M73.5,60.2c-4.5-8.6-8.6-16.5-13-24.8c8.6-2.1,16.8-4.1,26.2-6.4C82.1,39.7,78,49.6,73.5,60.2z"/>
<path style="fill:#003F4E;" d="M138.6,116.9c-9.7,0.6-18.9,1.1-28.1,1.7c-0.2-0.3-0.4-0.7-0.6-1c8.7-7.8,17.3-15.6,26.7-23.9
	C137.4,101.9,138,109.2,138.6,116.9z"/>
<path style="fill:#007995;" d="M73.2,93.7c-2.9-8.8-5.9-17.8-9.2-27.9c9.6,3.7,18.3,7,26.9,10.3C85,82,79.2,87.8,73.2,93.7z"/>
<path style="fill:#00AFC6;" d="M196.4,114.8c3.2-6.8,5.9-12.4,8.9-18.8c7.8,6.3,15.2,12.4,23.1,18.8
	C217.5,114.8,207.5,114.8,196.4,114.8z"/>
<path style="fill:#003F4E;" d="M203.5,94.7c-3.2,5.8-6.2,11.3-9.5,17.5c-5.2-8.9-10.1-17.2-15.1-25.6
	C189.2,83.6,195.7,90.2,203.5,94.7z"/>
<path style="fill:#00829E;" d="M194.5,139.8c11.9-7.1,23.8-14.3,36.3-21.8c-0.5,4.1-0.3,7.6-1.5,10.5c-1.8,4.3-3.9,8.3-10,8.8
	c-8.2,0.6-16.4,2.4-24.6,3.7C194.7,140.5,194.6,140.2,194.5,139.8z"/>
<path style="fill:#007995;" d="M122,20.9c10.4,1.8,20.7,3.6,31.4,5.4c0.3,5.2,0.6,10.3,0.9,16.5c-11.4-7.3-22.1-14.1-32.7-20.9
	C121.8,21.5,121.9,21.2,122,20.9z"/>
<path style="fill:#0E5462;" d="M186.2,73.5c-1.5-7.7-3-15.3-4.6-23.7c8,8.6,15.3,16.6,22,23.7C199.2,73.5,192.9,73.5,186.2,73.5z"/>
<path style="fill:#005C64;" d="M192.7,143.5c10.1-1.7,20.2-3.3,30.7-5c0,5.1,0,9.9,0,15.4c-10.3-3.2-20.5-6.4-30.7-9.6
	C192.7,144,192.7,143.7,192.7,143.5z"/>
<path style="fill:#00819E;" d="M176.5,87.6c5,8.1,9.6,15.7,14.2,23.2c-0.2,0.3-0.4,0.5-0.7,0.8c-8.8-4-17.7-7.9-27.3-12.2
	C167.5,95.3,171.8,91.6,176.5,87.6z"/>
<path style="fill:#00AFC6;" d="M92.5,22.9c5.3-1.5,10.6-3.1,15.9-4.5c0.8-0.2,2,0.2,2.8,0.7c7.7,4.8,15.4,9.6,23,14.5
	c0.4,0.2,0.6,0.7,1.7,1.9c-15.2-4.1-29.3-7.9-43.5-11.7C92.4,23.6,92.5,23.3,92.5,22.9z"/>
<path style="fill:#00E4F9;" d="M232.1,97.6c-8-1.3-16.1-2.6-24.1-4.1c-0.7-0.1-1.7-1.5-1.7-2.2c0.4-4.7,1.1-9.4,1.7-15
	c8.5,7.1,16.4,13.8,24.4,20.4C232.4,97,232.2,97.3,232.1,97.6z"/>
<path style="fill:#00AFC6;" d="M142.1,71.4c4.9-3.2,9.9-6.3,14.9-9.4c0.5-0.3,1.3-0.3,1.8-0.1c7.1,3.1,14.1,6.3,20.9,10.2
	c-12.4,0-24.7,0-37.1,0C142.4,71.9,142.2,71.6,142.1,71.4z"/>
<path style="fill:#007995;" d="M162.6,76.1c-7.9,4.7-15.8,9.4-24.2,14.4c0-6.2,0-11.4,0-17.1c8.2,0.6,16.1,1.1,24,1.7
	C162.4,75.4,162.5,75.8,162.6,76.1z"/>
<path style="fill:#00A2BD;" d="M187.6,145.6c1.6,4.7,2.8,8.1,3.9,11.5c1,3.2-1.4,4.8-3.5,5.9c-5.9,3.3-12,6.2-18.1,9.3
	c-0.3-0.2-0.6-0.5-0.9-0.7C175,163.2,181,154.8,187.6,145.6z"/>
<path style="fill:#00AFC6;" d="M134,72.6c-1.8-6.4-3.4-12.2-5.3-18.9c8.3,2.5,15.9,4.8,24.6,7.4C146.4,65.2,140.5,68.7,134,72.6z"/>
<path style="fill:#007A95;" d="M112.4,168.6c8,6.4,15.1,12,22.2,17.7c-0.2,0.3-0.3,0.6-0.5,0.9c-6.4,0.4-12.9,0.7-19.8,1.1
	C113.8,182,113.2,175.9,112.4,168.6z"/>
<path style="fill:#00AFC6;" d="M235.7,100.9c-1.5,4.7-2.8,8.8-4.3,13.6c-7.4-6.2-14.3-12-21.3-17.8c0.2-0.3,0.3-0.6,0.5-1
	C218.7,97.5,226.9,99.1,235.7,100.9z"/>
<path style="fill:#00ADC5;" d="M39.8,132.5c8.6-4.4,16.5-8.5,24.4-12.5c0.2,0.2,0.5,0.5,0.7,0.7c-4.6,6.8-9.2,13.5-14,20.6
	C47.2,138.4,43.8,135.7,39.8,132.5z"/>
<path style="fill:#0080A3;" d="M22.9,131.8c0.3-4.9,0.6-9.9,1.1-14.8c0-0.5,0.9-1.3,1.5-1.4c5.9-0.6,11.9-1,17.8-1.5
	c0.1,0.3,0.3,0.6,0.4,0.9c-6.6,5.7-13.3,11.5-19.9,17.2C23.5,132.1,23.2,131.9,22.9,131.8z"/>
<path style="fill:#005C64;" d="M174.3,85.3c-9.9,1.6-19.7,3.2-29.6,4.9c-0.1-0.3-0.2-0.6-0.4-0.9c4.9-2.9,9.8-5.9,14.7-8.8
	c6.9-4.1,6.9-4.1,12.9,1.4c0.9,0.8,2.1,1.3,3.2,2C174.9,84.3,174.6,84.8,174.3,85.3z"/>
<path style="fill:#005C64;" d="M189.7,145.7c10.2,3.1,19.4,5.9,28.6,8.7c0,0.3,0,0.6-0.1,1c-7.7,0.7-15.5,1.5-23.2,2.1
	c-0.5,0-1.5-0.8-1.7-1.5C192.1,152.9,191.1,149.8,189.7,145.7z"/>
<path style="fill:#005C64;" d="M116.5,79.8c5.8-1.5,11.6-3,17.7-4.6c0,5.1,0,9.7,0,15.2c-6.2-3.4-12-6.5-17.9-9.7
	C116.3,80.4,116.4,80.1,116.5,79.8z"/>
<path style="fill:#0E5462;" d="M188.9,75.5c6.4,0,11.9,0,17.6,0c-0.9,5.3-1.8,10.4-2.9,16.4C198.4,86.1,193.9,81,188.9,75.5z"/>
<path style="fill:#00AFC6;" d="M158.1,31.5c7.2,4.9,13.6,9.3,20.1,13.8c0,0.3-0.1,0.5-0.1,0.8c-1.1,0-2.2,0.1-3.3,0
	c-4.4-0.4-8.8-0.6-13.1-1.3c-1-0.1-2.4-1.3-2.6-2.2C158.5,39.3,158.4,35.9,158.1,31.5z"/>
<path style="fill:#00E4F9;" d="M34.6,80.1c0.5-4.3,1-8.1,1.7-12.9c6,5.4,11.3,10.1,16.6,14.9c-0.2,0.3-0.3,0.6-0.5,0.9
	C46.6,82.1,40.9,81.2,34.6,80.1z"/>
<path style="fill:#00AEC6;" d="M77.7,171.2c5.6,0,10.3,0,16.1,0c-4.5,5.3-8.4,9.9-12.9,15.2C79.7,180.9,78.8,176.2,77.7,171.2z"/>
<path style="fill:#00AEC5;" d="M42.9,58.7c-0.4-4.9-0.8-9.2-1.2-14.6c6.4,4.4,11.9,8.1,17.4,11.9c0,0.3-0.1,0.6-0.1,0.9
	C53.8,57.5,48.6,58.1,42.9,58.7z"/>
<path style="fill:#00566A;" d="M53.2,35.6c-4.7,1.1-9.3,2.1-14.3,3.3c-1.4-4.5-2.8-8.6-4.1-12.8c0.2-0.2,0.4-0.5,0.6-0.7
	c5.9,3.1,11.9,6.2,17.8,9.3C53.2,35,53.2,35.3,53.2,35.6z"/>
<path style="fill:#005A66;" d="M60.6,135.7c4.6,2.3,8.5,4.3,13.5,6.9c-6.6,2.4-12.2,4.4-18.9,6.8C57.2,144.4,58.8,140.3,60.6,135.7z
	"/>
<path style="fill:#003F4E;" d="M45.7,166.2c2.2-2.9,4.5-5.8,7-9c2.8,2.1,5.3,4.1,8.6,6.6C55.7,165,51,166,46.2,167
	C46,166.7,45.9,166.5,45.7,166.2z"/>
<path style="fill:#00A2B9;" d="M45.6,103.4c1.8-1.5,3.5-3.2,5.4-4.5c0.8-0.5,2.4-0.6,3.1-0.2c2.4,1.5,4.7,3.3,7.8,5.5
	c-5.8,0-10.6,0-15.5,0C46.1,104,45.9,103.7,45.6,103.4z"/>
<path style="fill:#007F9E;" d="M76.7,20.2c-5.9-0.6-10.8-1.1-15.8-1.6C64.6,11.6,68.3,11.8,76.7,20.2z"/>
<g>
	<path style="fill:#FFFFFF;" d="M268.3,139.2V74.3h-12.4V64.2h35.6v10.1H279v64.9H268.3z"/>
	<path style="fill:#FFFFFF;" d="M293.9,139.2v-75h10.7v75H293.9z"/>
	<path style="fill:#FFFFFF;" d="M311.8,81.9c0-3,0.5-5.7,1.6-8c1.1-2.3,2.5-4.2,4.2-5.8c1.7-1.5,3.6-2.6,5.7-3.4
		c2.1-0.8,4.3-1.2,6.5-1.2c2.2,0,4.3,0.4,6.5,1.2c2.1,0.8,4.1,1.9,5.8,3.4c1.7,1.5,3.1,3.5,4.1,5.8c1.1,2.3,1.6,5,1.6,8v3.8H337
		v-3.8c0-2.6-0.7-4.5-2.2-5.7c-1.4-1.2-3.1-1.8-5.1-1.8c-2,0-3.7,0.6-5.1,1.8c-1.4,1.2-2.2,3.1-2.2,5.7v39.6c0,2.6,0.7,4.5,2.2,5.7
		c1.4,1.2,3.1,1.8,5.1,1.8c2,0,3.7-0.6,5.1-1.8c1.4-1.2,2.2-3.1,2.2-5.7v-14.1h-8.5v-9.5h19.3v23.6c0,3.2-0.5,5.9-1.6,8.1
		c-1.1,2.2-2.4,4.1-4.1,5.6c-1.8,1.5-3.7,2.7-5.8,3.5c-2.1,0.8-4.3,1.2-6.5,1.2c-2.2,0-4.3-0.4-6.5-1.2c-2.1-0.8-4.1-1.9-5.7-3.5
		c-1.8-1.5-3.2-3.3-4.2-5.6c-1.1-2.2-1.6-5-1.6-8.1V81.9z"/>
	<path style="fill:#FFFFFF;" d="M354.6,139.2v-75h32v10.1h-21.3v22h18.5v10.1h-18.5v22h21.3v10.7H354.6z"/>
	<path style="fill:#FFFFFF;" d="M391,139.2v-75h17.3c12.6,0,19,7.3,19,22c0,4.4-0.7,8.2-2.1,11.3c-1.4,3.1-3.8,5.6-7.2,7.5
		l11.6,34.2h-11.4l-10-32h-6.4v32H391z M401.7,74.3v23.4h6.1c1.9,0,3.4-0.3,4.5-0.8c1.1-0.5,2-1.3,2.6-2.3c0.6-1,0.9-2.2,1.2-3.6
		c0.2-1.4,0.3-3.1,0.3-5s-0.1-3.6-0.3-5c-0.2-1.4-0.6-2.7-1.3-3.7c-1.3-2-3.9-2.9-7.6-2.9H401.7z"/>
	<path style="fill:#FFFFFF;" d="M449.5,81.9c0-3,0.5-5.7,1.6-8c1.1-2.3,2.5-4.2,4.2-5.8c1.7-1.5,3.6-2.6,5.7-3.4
		c2.1-0.8,4.3-1.2,6.5-1.2c2.2,0,4.3,0.4,6.5,1.2c2.1,0.8,4.1,1.9,5.8,3.4c1.7,1.5,3.1,3.5,4.1,5.8c1.1,2.3,1.6,5,1.6,8v3.8h-10.7
		v-3.8c0-2.6-0.7-4.5-2.2-5.7c-1.4-1.2-3.1-1.8-5.1-1.8c-2,0-3.7,0.6-5.1,1.8c-1.4,1.2-2.2,3.1-2.2,5.7v39.6c0,2.6,0.7,4.5,2.2,5.7
		c1.4,1.2,3.1,1.8,5.1,1.8c2,0,3.7-0.6,5.1-1.8c1.4-1.2,2.2-3.1,2.2-5.7v-14.1h-8.5v-9.5h19.3v23.6c0,3.2-0.5,5.9-1.6,8.1
		c-1.1,2.2-2.4,4.1-4.1,5.6c-1.8,1.5-3.7,2.7-5.8,3.5c-2.1,0.8-4.3,1.2-6.5,1.2c-2.2,0-4.3-0.4-6.5-1.2c-2.1-0.8-4.1-1.9-5.7-3.5
		c-1.8-1.5-3.2-3.3-4.2-5.6c-1.1-2.2-1.6-5-1.6-8.1V81.9z"/>
	<path style="fill:#FFFFFF;" d="M487.6,139.2l16.7-75h9l16.7,75h-10.7l-3.2-16.1h-14.6l-3.2,16.1H487.6z M514.1,113l-5.3-27.2h-0.2
		l-5.3,27.2H514.1z"/>
	<path style="fill:#FFFFFF;" d="M532.6,139.2v-75H543l13.8,39.7h0.2l13.7-39.7h10.4v75h-10.7V93.6h-0.2l-10.6,32.2h-5.4l-10.5-32.2
		h-0.2v45.6H532.6z"/>
	<path style="fill:#FFFFFF;" d="M588.6,139.2v-75h32v10.1h-21.3v22h18.5v10.1h-18.5v22h21.3v10.7H588.6z"/>
	<path style="fill:#FFFFFF;" d="M659.7,85.8h-10.7v-2.4c0-2.5-0.6-4.6-1.7-6.4c-1.2-1.8-3.1-2.7-5.8-2.7c-1.5,0-2.7,0.3-3.6,0.8
		c-0.9,0.6-1.7,1.3-2.2,2.1c-0.6,0.9-0.9,1.9-1.2,3.1c-0.2,1.2-0.3,2.4-0.3,3.6c0,1.5,0.1,2.7,0.2,3.7c0.1,1,0.4,1.9,0.8,2.6
		c0.4,0.8,1,1.4,1.8,2c0.8,0.6,1.9,1.1,3.3,1.7l8.2,3.3c2.4,0.9,4.3,2,5.8,3.2c1.5,1.2,2.6,2.7,3.5,4.3c0.8,1.7,1.3,3.6,1.6,5.7
		c0.3,2.1,0.4,4.6,0.4,7.3c0,3.2-0.3,6.1-0.9,8.8c-0.6,2.7-1.7,5-3.1,6.9c-1.5,2-3.4,3.5-5.8,4.6c-2.4,1.1-5.3,1.7-8.7,1.7
		c-2.6,0-5-0.5-7.3-1.4c-2.2-0.9-4.2-2.2-5.8-3.8c-1.6-1.6-2.9-3.5-3.8-5.6c-0.9-2.1-1.4-4.5-1.4-7v-4h10.7v3.4c0,2,0.6,3.7,1.7,5.3
		c1.2,1.6,3.1,2.4,5.8,2.4c1.8,0,3.2-0.3,4.3-0.8c1-0.5,1.8-1.3,2.4-2.3c0.6-1,0.9-2.2,1-3.5s0.2-2.9,0.2-4.6c0-2-0.1-3.6-0.2-4.8
		c-0.1-1.3-0.4-2.3-0.8-3.1c-0.5-0.8-1.1-1.4-1.9-1.9c-0.8-0.5-1.9-1-3.2-1.6l-7.7-3.2c-4.6-1.9-7.7-4.4-9.3-7.5
		c-1.6-3.1-2.4-7-2.4-11.7c0-2.8,0.4-5.5,1.2-8c0.8-2.5,1.9-4.7,3.5-6.5c1.5-1.8,3.4-3.3,5.6-4.4c2.3-1.1,5-1.6,8.2-1.6
		c2.7,0,5.1,0.5,7.3,1.5c2.2,1,4.1,2.3,5.7,3.9c3.2,3.4,4.8,7.2,4.8,11.6V85.8z"/>
</g>
</svg>
