<?xml version="1.0" encoding="utf-8"?>
<!-- Generator: Adobe Illustrator 24.1.2, SVG Export Plug-In . SVG Version: 6.00 Build 0)  -->
<svg version="1.1" id="Layer_1" xmlns="http://www.w3.org/2000/svg" xmlns:xlink="http://www.w3.org/1999/xlink" x="0px" y="0px"
	 viewBox="0 0 1048.6 197" style="enable-background:new 0 0 1048.6 197;" xml:space="preserve">
<style type="text/css">
	.st0{fill:#FFFFFF;}
</style>
<g>
	<path class="st0" d="M392.9,70.5c-0.1,35.3-28.3,63.7-63.7,63.9c-35.2,0.1-63.8-28.4-63.8-63.7c-0.1-35.1,28.3-63.6,63.1-63.9
		C362.6,6.5,392.6,33.8,392.9,70.5z M326.8,120c0.1-1,0.2-1.7,0.2-2.4c0-15.2,0-30.4,0-45.7c0-1.7-0.6-2.6-2.1-3.5
		c-13.2-7.6-26.4-15.2-39.5-22.8c-0.6-0.4-1.3-0.6-2.1-1c-0.1,1-0.2,1.7-0.2,2.4c0,15.2,0,30.4,0,45.7c0,1.7,0.6,2.6,2.1,3.5
		c13.1,7.5,26.2,15.1,39.3,22.7C325.2,119.2,325.9,119.5,326.8,120z M285.4,40.6c14.8,8.5,29.3,16.9,43.6,25.2
		c11.4-5.8,42.1-23.7,43.4-25.4c-0.5-0.2-1-0.5-1.5-0.7c-13.2-5.6-26.5-11.1-39.7-16.7c-1.5-0.6-2.7-0.6-4.2,0
		c-13,5.5-26,10.9-39,16.4C287.2,39.7,286.5,40.1,285.4,40.6z M331.3,119.9c0.7-0.3,1.1-0.4,1.4-0.6c13.6-7.8,27.2-15.7,40.8-23.5
		c1.4-0.8,1.6-1.8,1.6-3.2c0-15.2,0-30.4,0-45.7c0-0.7-0.2-1.3-0.3-2.3c-14.7,8.4-29.1,16.6-43.4,24.8
		C331.3,86.4,331.3,103,331.3,119.9z"/>
	<path class="st0" d="M1009.6,98.2c0-6.8,0-13.3,0-20.3c-11.5,0-22.9,0-34.4,0c0-6.6,0-12.8,0-18.9c2.1-0.6,51-0.6,53.8-0.1
		c0,19.4,0,38.9,0,58.5c-0.8,0.1-1.5,0.2-2.2,0.2c-17.7,0-35.5,0.1-53.2,0c-24.6-0.2-46.6-18.8-51.4-43.1
		c-5.7-29.4,12.1-56.9,41.3-63.5c3.8-0.9,7.7-1.3,11.6-1.3c17.3-0.1,34.6-0.1,51.8-0.1c0.6,0,1.1,0.1,1.6,0.1
		c0.7,1.9,0.9,15.7,0.2,19.4c-1,0-2.1,0-3.2,0c-16.8,0-33.6,0-50.4,0c-16,0.1-29.6,10.8-33.6,26.3c-4.9,19.2,7.9,38.9,27.4,42.3
		c1.9,0.3,3.9,0.5,5.8,0.5c11,0.1,21.9,0,32.9,0C1008.2,98.3,1008.8,98.3,1009.6,98.2z"/>
	<path class="st0" d="M511.6,9.8c0,6.5,0,12.8,0,19.3c-1.3,0-2.4,0-3.5,0c-16.5,0-33.1,0-49.6,0c-17.7,0-31.8,11.7-34.9,29.1
		c-3.2,17.8,9.4,36.1,27.3,39.4c2.2,0.4,4.4,0.6,6.6,0.6c10.8,0.1,21.6,0,32.3,0c0.7,0,1.4-0.1,2.3-0.2c0-6.7,0-13.2,0-20.2
		c-5.8-0.2-11.5-0.1-17.2-0.1c-5.6,0-11.3,0-17.1,0c0-6.5,0-12.7,0-18.9c2.1-0.6,50.9-0.7,53.8-0.1c0,19.4,0,38.9,0,58.6
		c-0.8,0.1-1.5,0.2-2.2,0.2c-17.7,0-35.5,0.1-53.2,0c-24.1-0.2-45.9-18.1-51.2-42c-6.3-28.4,10.6-56.4,38.7-64.1
		c4.6-1.3,9.3-1.9,14-1.9c17.3-0.1,34.6,0,51.8,0C510.2,9.7,510.7,9.8,511.6,9.8z"/>
	<path class="st0" d="M640.3,9.9c18.1,13.9,35.8,27.6,53.8,41.4c17.8-13.7,35.7-27.5,53.9-41.5c0,36.3,0,72,0,107.8
		c-6.5,0-12.7,0-19.2,0c0-22.6,0-45,0-67.8c-2.6,1-4.2,2.8-6.1,4.1c-2,1.4-3.8,2.9-5.8,4.4c-1.9,1.5-3.8,2.9-5.7,4.4
		c-1.8,1.4-3.7,2.8-5.5,4.3c-1.9,1.5-3.8,3-5.7,4.4c-1.9,1.5-3.8,2.9-5.8,4.4c-11.4-8.8-22.6-17.4-33.8-26c-0.3,0.1-0.3,0.1-0.4,0.2
		c-0.1,0-0.1,0.1-0.2,0.2c0,0.3-0.1,0.6-0.1,0.8c0,22-0.1,44-0.1,66c0,0.1-0.1,0.2-0.2,0.4c-6.2,0-12.4,0-18.7,0
		C640,115.6,639.7,17.3,640.3,9.9z"/>
	<path class="st0" d="M817.4,49.7c0,23,0,45.4,0,67.9c-6.5,0-12.8,0-19.2,0c0-35.6,0-71.2,0-107.3c29.5,22.7,58.6,45.2,88.3,68
		c0-23.1,0-45.6,0-68.3c6.6,0,12.8,0,19.1,0c0.6,2,0.7,104.1,0.1,107.7C876.3,95,847.1,72.6,817.4,49.7z"/>
	<path class="st0" d="M609.1,117.6c-11-21.5-22-43-33.2-65c-2.2,4.3-4.1,8.1-6.1,11.9c-8.6,16.9-17.2,33.7-25.8,50.6
		c-1,2-2.1,2.8-4.4,2.8c-5.2-0.2-10.4-0.1-15.6-0.1c-0.9,0-1.8,0-3.2,0c18.4-36.1,36.6-71.8,54.8-107.5
		c1.5,1.5,53.8,103.9,54.9,107.4C623.4,117.6,616.3,117.6,609.1,117.6z"/>
	<path class="st0" d="M10.6,19.1c6.1,0,11.6,0.3,17-0.1c3.7-0.3,5.5,1.1,7.1,4.4c9.6,19.2,19.4,38.2,29.1,57.3c0.5,1,1,2,1.8,3.4
		c4.1-7.3,7.5-14.5,11.2-21.6c3.8-7.2,7.4-14.6,11.1-21.8s7.3-14.3,11-21.5c7.2,0,14.2,0,21.3,0c-0.4,2.2-52.7,105-54.7,107.6
		C47.2,91,29.1,55.3,10.6,19.1z"/>
	<path class="st0" d="M213.4,126.8c-18.3-35.9-36.5-71.6-54.9-107.7c2.2,0,3.7,0,5.3,0c4.6,0,9.3,0.1,13.9,0
		c1.9-0.1,2.9,0.6,3.8,2.3c9.7,19.3,19.6,38.5,29.4,57.8c0.8,1.5,1.6,3,2.7,5.1c11.2-22,22.2-43.5,33.2-65c7.2,0,14.2,0,21.3,0
		C267.7,21.3,215.8,123.5,213.4,126.8z"/>
	<path class="st0" d="M763.5,10c6.3,0,12.6,0,19.1,0c0,35.9,0,71.7,0,107.6c-6.4,0-12.6,0-19.1,0C763.5,81.7,763.5,45.9,763.5,10z"
		/>
	<path class="st0" d="M149.1,126.9c-6.4,0-12.6,0-18.7,0c-0.6-2-0.9-102.3-0.3-107.4c2-0.5,14.2-0.7,18.8-0.3
		C149.5,21.2,149.7,121.9,149.1,126.9z"/>
	<path class="st0" d="M667,148.7c4.2,0.1,8.2,0.1,12.1,0.5c3,0.3,5.3,2.2,5.7,5.3c0.4,2.6,0.4,5.4,0,8c-0.3,1.7-1.6,3.2-2.6,5
		c3.1,1.9,3.8,5.3,3.6,9.1c-0.1,1.2,0,2.4-0.1,3.6c-0.4,4.5-2.9,7.1-7.3,7.8c-0.8,0.1-1.7,0.1-2.5,0.1c-3,0-5.9,0-9,0
		C667,175,667,162.1,667,148.7z M673.2,182.1c1.1,0,1.9,0.1,2.8,0.1c2.5-0.1,3.4-0.8,3.6-3.2c0.1-1.7,0.1-3.3-0.1-5
		c-0.3-2.5-1.2-3.3-3.8-3.6c-0.8-0.1-1.6,0.1-2.5,0.1C673.2,174.5,673.2,178.1,673.2,182.1z M673.3,164.4c5.1,1.1,5.8-1.5,5.8-4.7
		c0-0.1,0-0.2,0-0.3c0-4.4-1.2-5.3-5.8-4.5C673.3,158.1,673.3,161.3,673.3,164.4z"/>
	<path class="st0" d="M445.3,149c3.1,0,6.1,0,9.2,0c2.1,13,4.1,25.8,6.2,38.9c-2.2,0-4.1,0-6.3,0c-0.4-2.2-0.8-4.4-1.2-6.8
		c-2.3,0-4.5,0-7.1,0c-0.4,2.1-0.8,4.4-1.2,6.8c-1.8,0-3.6,0-5.7,0C441.1,174.8,443.2,162,445.3,149z M449.9,158.3
		c-0.2,0-0.4,0-0.6,0c-0.8,5.6-1.6,11.2-2.5,16.9c2,0,3.7,0,5.6,0C451.5,169.4,450.7,163.9,449.9,158.3z"/>
	<path class="st0" d="M348.5,178.5c0.7-4.9,1.5-9.9,2.2-14.8c0.7-4.8,1.4-9.7,2.1-14.7c1.9,0,3.7,0,5.4,0c0.3,2-4.9,36.3-5.9,38.9
		c-2.9,0-5.8,0-9,0c-2-13-4-25.8-6-38.9c2.2,0,4.1,0,6.4,0c1.4,9.8,2.9,19.7,4.4,29.5C348.2,178.5,348.3,178.5,348.5,178.5z"/>
	<path class="st0" d="M621.3,159.5c-2.1,0-3.9,0-5.9,0c-0.1-0.9-0.1-1.8-0.3-2.7c-0.3-1.7-1.2-2.6-2.7-2.6c-1.6-0.1-2.7,0.9-3,2.7
		c-0.3,2.1,0.2,4.1,1.6,5.7c1.1,1.3,2.3,2.4,3.5,3.6c1.6,1.7,3.3,3.3,4.7,5.1c2.5,3.4,2.6,7.3,1.6,11.2c-0.8,3.2-2.9,5.2-6.2,5.7
		c-1.7,0.2-3.5,0.2-5.2,0c-3.3-0.5-5.3-2.6-6-5.8c-0.4-1.9-0.5-3.8-0.7-6c2.2,0,4.1,0,6.2,0c0,1.2-0.1,2.3,0,3.4
		c0.2,2,1.2,2.9,3.1,2.9c1.8,0,2.8-1,3-3c0.2-1.9-0.3-3.7-1.6-5.2c-1.1-1.3-2.3-2.4-3.4-3.6c-1.3-1.3-2.7-2.6-3.9-4
		c-3.1-3.6-3.7-7.8-2.6-12.3c0.8-3.4,3.4-5.6,6.9-6c0.9-0.1,1.9-0.1,2.8-0.1c4.4,0.2,7.3,2.8,7.9,7.1
		C621.3,156.8,621.2,158,621.3,159.5z"/>
	<path class="st0" d="M723,149c0,1.9,0,3.5,0,5.6c-3.5,0-6.8,0-10.3,0c0,3.7,0,7,0,10.6c2.7,0,5.3,0,8.1,0c0,2,0,3.6,0,5.6
		c-2.6,0-5.2,0-8.2,0c-0.1,3.9-0.1,7.5,0,11.4c3.5,0,6.8,0,10.3,0c0,2,0,3.7,0,5.8c-2.8,0-5.5,0-8.2,0s-5.4,0-8,0
		c-0.7-2-0.9-35.2-0.2-39.1C711.7,149,717.2,149,723,149z"/>
	<path class="st0" d="M742.1,176.3c2.4,0,4.1,0,6.1,0c0.1,1.2,0.1,2.3,0.2,3.3c0.3,2.2,1.3,3.1,3.2,3s2.7-1.1,2.9-3.4
		c0.1-1.8-0.4-3.5-1.6-4.9c-1.1-1.3-2.4-2.5-3.6-3.8c-1.3-1.4-2.8-2.7-4-4.2c-2.8-3.5-3.2-7.6-2.1-11.9c0.9-3.6,3.5-5.6,7.2-5.9
		c1-0.1,2-0.1,3.1,0c3.5,0.4,5.9,2.2,6.9,5.6c0.5,1.6,0.5,3.4,0.7,5.3c-2.2,0-4,0-5.8,0c-0.2-1.2-0.3-2.3-0.6-3.3
		c-0.3-1.4-1.3-2-2.7-2s-2.3,0.7-2.7,2c-0.6,2.1-0.2,4.1,1,5.8c1.1,1.5,2.5,2.8,3.7,4.1c1.4,1.5,3,2.8,4.2,4.4
		c2.9,3.6,3.4,7.7,2.2,12.1c-0.8,3-2.8,5.1-6,5.5c-1.8,0.3-3.7,0.3-5.5,0c-3-0.4-5.1-2.4-5.8-5.3
		C742.5,180.8,742.5,178.7,742.1,176.3z"/>
	<path class="st0" d="M394.8,182.2c0,2.2,0,3.8,0,5.7c-5.5,0-10.9,0-16.3,0c-0.5-2-0.7-33.4-0.3-38.5c2-0.6,13.8-0.7,16.5-0.1
		c0,1.7,0,3.4,0,5.4c-3.5,0-6.8,0-10.4,0c0,1.9,0,3.5,0,5.2s0,3.3,0,5.4c2.8,0,5.4,0,8.2,0c0,2.1,0,3.8,0,5.8c-2.6,0-5.2,0-8.1,0
		c-0.1,3.8-0.1,7.4,0,11.3C387.9,182.2,391.2,182.2,394.8,182.2z"/>
	<path class="st0" d="M489,188c-2.4,0-4.2,0-6.5,0c-0.1-5.6,0-11.1,0-16.7c0-5.5,0-10.9,0-16.6c-2.1,0-4.1,0-6.1,0c0-2,0-3.7,0-5.7
		c6.2-0.3,12.3-0.1,18.7-0.1c0,2,0,3.7,0,5.7c-1.9,0-3.8,0-6.1,0C489,165.7,489,176.7,489,188z"/>
	<path class="st0" d="M578.2,188c-2.4,0-4.2,0-6.3,0c0-11,0-22,0-33.2c-2.2,0-4.2,0-6.3,0c0-2.1,0-3.8,0-5.7c6.2,0,12.4,0,18.8,0
		c0,1.8,0,3.5,0,5.5c-2,0-3.9,0-6.1,0C578.2,165.8,578.2,176.8,578.2,188z"/>
	<path class="st0" d="M785.7,154.6c-2.4,0-4.3,0-6.4,0c0-1.9,0-3.7,0-5.6c6.2,0,12.5,0,18.9,0c0,1.9,0,3.6,0,5.5c-2.1,0-4,0-6.3,0
		c0,11.2,0,22.2,0,33.3c-2.1,0-4,0-6.2,0C785.7,176.9,785.7,166,785.7,154.6z"/>
	<path class="st0" d="M282.4,149.1c0,11.1,0,21.9,0,33.1c3.3,0,6.4,0,9.7,0c0,2,0,3.7,0,5.7c-5.2,0-10.5,0-15.9,0
		c0-12.9,0-25.7,0-38.7C278.1,148.6,280.1,148.7,282.4,149.1z"/>
	<path class="st0" d="M546.1,187.9c-2.1,0-4,0-6.1,0c0-12.9,0-25.8,0-38.9c2,0,3.9,0,6.1,0C546.1,162,546.1,174.9,546.1,187.9z"/>
	<path class="st0" d="M317.7,188c-2.1,0-3.9,0-5.6,0c-0.6-2-0.8-35.5-0.2-39c1.9,0,3.8,0,5.8,0C317.7,162,317.7,174.9,317.7,188z"/>
	<path class="st0" d="M298.4,91.8c-0.4,0.7-0.7,2.1-1.6,2.8c-1.2,0.9-2.7,0.4-3.8-0.5c-3.1-2.4-4.8-5.6-4.7-9.6
		c0.1-2.8,2.2-4,4.6-2.5C296.3,84.1,297.8,87.5,298.4,91.8z"/>
	<path class="st0" d="M319.7,78.1c0,2-0.1,3.3-1.5,4c-1.3,0.7-2.6,0.2-3.6-0.6c-3.1-2.3-4.7-5.4-4.9-9.2c-0.1-1.3,0.3-2.6,1.7-3.3
		c1.2-0.6,2.4-0.2,3.4,0.6C317.9,71.8,319.5,74.9,319.7,78.1z"/>
	<path class="st0" d="M309,85c0,1.4-0.2,2.7-1.5,3.4c-1.4,0.8-2.7,0.2-3.8-0.7c-2.9-2.2-4.4-5.2-4.7-8.8c-0.1-1.4,0.2-2.8,1.6-3.6
		c1.5-0.8,2.7-0.1,3.8,0.8C307.2,78.4,308.7,81.4,309,85z"/>
	<path class="st0" d="M329.1,35.8c2.5-0.1,4.9,0.3,7.1,1.7c2.9,1.8,3,4.4,0,6c-4.6,2.5-9.5,2.5-14.1,0.1c-3.2-1.7-3.1-4.3,0-6.1
		C324.2,36.1,326.5,35.7,329.1,35.8z"/>
	<path class="st0" d="M337.9,75.7c0.2-2.9,1.4-5.7,4.1-7.7c2.8-2,5.4-0.8,5.6,2.6c0.2,3.3-1.1,6.1-3.6,8.4c-1.2,1.1-2.6,1.9-4.3,1.1
		C338.2,79.3,338,77.7,337.9,75.7z"/>
	<path class="st0" d="M348.6,83.7c0.3-2.8,1.5-5.6,4-7.6c1.1-0.9,2.4-1.5,3.8-0.8c1.6,0.7,2,2.2,2,3.7c0,3.2-1.3,5.9-3.6,8.1
		c-1.2,1.1-2.7,1.8-4.3,1C348.9,87.3,348.6,85.6,348.6,83.7z"/>
	<path class="st0" d="M368.6,87.7c-0.1,3.1-1.3,5.7-3.7,7.8c-1.3,1.1-2.7,1.7-4.4,0.9c-1.5-0.8-1.8-2.4-1.8-3.8
		c0.1-3.1,1.3-5.8,3.7-7.8c1.3-1.1,2.7-1.7,4.4-0.9C368.4,84.7,368.6,86.2,368.6,87.7z"/>
	<path class="st0" d="M347.5,99.7c-0.2,2.5-1.5,5.2-4.1,7.1c-2.7,1.9-5.2,0.7-5.5-2.6c-0.2-3.2,0.9-5.8,3.1-8.1
		c1.3-1.3,2.8-2.4,4.7-1.5C347.5,95.5,347.6,97.2,347.5,99.7z"/>
	<path class="st0" d="M368.7,60.9c-0.2,2.9-1.5,5.5-3.9,7.5c-1.1,0.9-2.5,1.4-3.9,0.8c-1.5-0.6-1.8-2-1.9-3.4c-0.1-3.2,1-5.8,3.3-8
		c1.2-1.2,2.7-2.1,4.5-1.3C368.7,57.2,368.7,58.9,368.7,60.9z"/>
</g>
</svg>
