<svg version="1.1" id="Capa_1" xmlns="http://www.w3.org/2000/svg" xmlns:xlink="http://www.w3.org/1999/xlink" x="0px" y="0px" viewBox="0 0 205 62.1" style="enable-background:new 0 0 205 62.1;" xml:space="preserve">
<style type="text/css">
	.st0{fill:#FFFFFF;}
	.st1{fill:rgb(112, 200, 47);}
</style>
<g>
	<path class="st0" d="M0,60.6V1.5L29.6,31L58.7,1.4v59.2c0,2-3,2-3,0V8.7L29.6,35.2L3,8.6v52C3,62.6,0,62.6,0,60.6 M66.4,49.1
		c5.1,6.1,12.9,10,21.5,10c15,0,27.3-11.8,28-26.6h-28c-2,0-2-3,0-3h31V31c0,17.1-13.9,31-31,31c-8.3,0-15.9-3.3-21.4-8.6L66.4,49.1
		z M66.4,8.6C72,3.3,79.6,0,87.9,0c11.5,0,21.6,6.3,26.9,15.6c1,1.7-1.6,3.2-2.6,1.5C107.4,8.6,98.3,3,87.9,3
		c-8.6,0-16.3,3.9-21.5,10V8.6z M143.7,1.5l0.1,0.2l29.1,58.2c0.9,1.8-1.8,3.1-2.7,1.3l-26.5-53l-26.5,53c-0.9,1.8-3.5,0.4-2.7-1.3
		l29.1-58.2V1.5z"/>
	<path class="st1" d="M173.4,1.5c-1.9,0-3.3,1.1-3.3,2.8s1.4,2.8,3.3,2.8h28.3c1.9,0,3.3-1.1,3.3-2.8s-1.4-2.8-3.3-2.8H173.4z"/>
	<path class="st1" d="M173.4,12.7c-1.9,0-3.3,1.1-3.3,2.8s1.4,2.8,3.3,2.8h28.3c1.9,0,3.3-1.1,3.3-2.8s-1.4-2.8-3.3-2.8H173.4z"/>
	<path class="st1" d="M173.4,23.9c-1.9,0-3.3,1.1-3.3,2.8s1.4,2.8,3.3,2.8h28.3c1.9,0,3.3-1.1,3.3-2.8s-1.4-2.8-3.3-2.8H173.4z"/>
</g>
</svg>
