<?xml version="1.0" encoding="utf-8"?>
<!-- Generator: Adobe Illustrator 26.3.1, SVG Export Plug-In . SVG Version: 6.00 Build 0)  -->
<svg version="1.1" id="Layer_1" xmlns="http://www.w3.org/2000/svg" xmlns:xlink="http://www.w3.org/1999/xlink" x="0px" y="0px"
	 viewBox="0 0 2906.2 500" style="enable-background:new 0 0 2906.2 500;" xml:space="preserve">
<g>
	<path style="fill:#FFFFFF;" d="M267.8,433.9c-4.5,0-8.4-0.6-12.9-2.6l-174-67c-18-7.1-27.7-27.7-20.6-45.8l67-174
		c3.2-9,10.3-16.1,18.7-20c9-3.9,18.7-3.9,27.1-0.6l174,67c9,3.2,16.1,10.3,20,18.7c3.9,9,3.9,18.7,0.6,27.1l-67,174
		C296.3,424.8,282.7,433.9,267.8,433.9z M160.8,132.8c-3.2,0-6.4,0.6-9.7,1.9c-5.8,2.6-10.3,7.7-12.9,13.5l-67,174
		c-4.5,12.2,1.3,26.4,14.2,31.6l174,67c12.2,4.5,26.4-1.3,31.6-14.2l67-174c2.6-5.8,1.9-12.9-0.6-18.7s-7.7-10.3-13.5-12.9l-174-67
		C166.6,133.5,164,132.8,160.8,132.8z"/>
	<path style="fill:#FFFFFF;" d="M183.3,171.5c-10.3-3.9-22.6,1.3-26.4,11.6c-3.9,10.3,1.3,22.6,11.6,26.4
		c10.3,3.8,22.6-1.3,26.4-11.6C198.8,187,193.7,175.4,183.3,171.5z"/>
	<path style="fill:#FFFFFF;" d="M135,297.2c-10.3-3.9-22.6,1.3-26.4,11.6s1.3,22.6,11.6,26.4c10.3,3.8,22.6-1.3,26.4-11.6
		C150.5,313.3,145.3,301.1,135,297.2z"/>
	<path style="fill:#FFFFFF;" d="M222,258.5c-10.3-3.9-22.6,1.3-26.4,11.6c-3.9,10.3,1.3,22.6,11.6,26.4c10.3,3.9,22.6-1.3,26.4-11.6
		C237.5,274.7,232.3,262.4,222,258.5z"/>
	<path style="fill:#FFFFFF;" d="M309.1,219.9c-10.3-3.9-22.6,1.3-26.4,11.6c-3.9,10.3,1.3,22.6,11.6,26.4
		c10.3,3.9,22.6-1.3,26.4-11.6C324.6,235.3,319.5,223.7,309.1,219.9z"/>
	
		<ellipse transform="matrix(0.1602 -0.9871 0.9871 0.1602 -147.6973 556.4178)" style="fill:#FFFFFF;" cx="253.1" cy="365" rx="20.6" ry="20.6"/>
	<path style="fill:#FFFFFF;" d="M371.7,301.1c-2.6,0-5.2-1.9-5.8-5.2c0-3.2,1.9-5.8,5.2-6.4l64.5-5.8c6.4-0.6,12.2-3.2,16.1-8.4
		c3.9-4.5,5.8-11,5.2-17.4L440.6,77.3c-1.2-12.9-12.8-22.6-25.7-21.3L234.3,72.1c-6.4,0.6-12.2,3.2-16.1,8.4
		c-3.9,4.5-5.8,11-5.2,17.4l1.3,14.2c0,3.2-1.9,5.8-5.2,5.8c-3.3,0-5.8-1.9-6.4-5.2l-1.3-14.2c-0.6-9,1.9-18,7.7-25.1
		c5.8-7.1,14.2-11.6,23.9-12.2l180.5-16.1c19.3-1.9,36.1,12.2,38,31.6l16.1,180.5c0.6,9-1.9,18-7.7,25.1
		c-5.8,7.1-14.2,11.6-23.9,12.2L371.7,301.1C371.7,300.4,371.7,301.1,371.7,301.1z"/>
	<path style="fill:#FFFFFF;" d="M327.2,92.9c-11,1.3-18.7,11-18,21.3c1.3,11,11,18.7,21.3,18c11-1.3,18.7-11,18-21.3
		C347.8,100,338.2,92.2,327.2,92.9z"/>
	<path style="fill:#FFFFFF;" d="M398.7,152.2c-11,1.3-18.7,11-18,21.3c1.3,11,11,18.7,21.3,18c11-1.3,18.7-11,18-21.3
		C419.4,159.3,409.7,151.5,398.7,152.2z"/>
</g>
<g>
	<path style="fill:#FFFFFF;" d="M683.4,104.5c8.3,0,11.9,2.8,11.9,11.1v31c0,4-1.2,6.3-2.4,8.7l-92.1,165.5h89.7
		c8.3,0,11.9,2.8,11.9,11.1v31c0,8.3-3.6,11.5-11.9,11.5H534.1c-8.3,0-11.9-3.2-11.9-11.5v-31c0-3.6,0.8-6,2-7.9l92.5-165.9h-75.8
		c-8.3,0-11.9-3.2-11.9-11.5v-31c0-8.3,3.6-11.1,11.9-11.1H683.4z"/>
	<path style="fill:#FFFFFF;" d="M846.9,116.4l71.8,246.1c2.4,7.5-0.4,11.9-8.7,11.9h-44.1c-8.3,0-11.9-4.4-13.9-11.9l-10.3-38.1
		h-65.9l-10.3,38.1c-2,7.5-5.6,11.9-13.9,11.9h-40.1c-8.3,0-11.1-4.4-8.7-11.9l71.8-246.1c2.4-7.9,6.4-11.9,14.7-11.9h42.9
		C840.5,104.5,844.5,108.5,846.9,116.4z M821.8,251.4c-6.3-24.2-11.9-79.4-12.3-83c-0.8,5.6-7.1,59.9-13.5,83l-6,21.4h37.3
		L821.8,251.4z"/>
	<path style="fill:#FFFFFF;" d="M1093.7,264.8l38.9,97.6c2.8,7.1-2.4,11.9-11.1,11.9h-42.9c-7.5,0-9.1-6.3-11.5-11.9l-34.9-87.7
		h-29.8v87.7c0,8.3-2.8,11.9-11.1,11.9h-42.9c-8.3,0-11.5-3.6-11.5-11.9V116.4c0-8.3,3.2-11.9,11.5-11.9h85.7
		c74.6,0,100.8,33.7,100.8,67.9v34.5C1135,229.5,1123.5,252.1,1093.7,264.8z M1002.4,158.1v63.1h31.8c19.4,0,36.1-7.5,36.1-25.8
		v-11.5c0-18.3-16.7-25.8-36.1-25.8H1002.4z"/>
	<path style="fill:#FFFFFF;" d="M1224.3,169.2c0-34.1,26.6-67.9,101.2-67.9s101.6,33.7,101.6,67.9v140.5c0,34.1-27,67.9-101.6,67.9
		s-101.2-33.7-101.2-67.9V169.2z M1361.6,180.7c0-18.3-16.7-25.8-36.1-25.8s-35.7,7.5-35.7,25.8v117.5c0,18.3,16.3,25.8,35.7,25.8
		s36.1-7.5,36.1-25.8V180.7z"/>
	<path style="fill:#FFFFFF;" d="M1534.2,195.4c3.2,9.1,6.4,22.2,6.8,23.8c0.4-1.6,4.4-15.9,7.9-23.8l33.3-79
		c2.8-6.7,5.6-11.9,13.9-11.9h42.1c8.3,0,12.3,4.4,8.7,11.9l-73,158v88.1c0,8.3-2.8,11.9-11.1,11.9h-42.9c-8.3,0-11.5-3.6-11.5-11.9
		v-80.2L1435,116.4c-3.2-7.1,0-11.9,8.3-11.9h48.4c8.3,0,11.9,4.8,14.3,11.9L1534.2,195.4z"/>
	<path style="fill:#FFFFFF;" d="M1729.1,298.2c0,18.3,16.3,25.8,35.7,25.8s36.1-7.5,36.1-25.8V116.4c0-8.3,3.2-11.9,11.5-11.9h42.9
		c8.3,0,11.1,3.6,11.1,11.9v193.3c0,34.1-27,67.9-101.6,67.9s-101.2-33.7-101.2-67.9V116.4c0-8.3,3.2-11.9,11.5-11.9h42.9
		c8.3,0,11.1,3.6,11.1,11.9V298.2z"/>
	<path style="fill:#FFFFFF;" d="M2104.9,362.5c0,8.3-2.8,11.9-11.1,11.9h-38.9c-6,0-8.3-1.6-10.7-5.6l-63.5-105.6
		c-6.7-10.7-12.7-24.6-17.1-35.7v134.9c0,8.3-2.8,11.9-11.1,11.9h-38.9c-8.3,0-11.5-3.6-11.5-11.9V116.4c0-8.3,3.2-11.9,11.5-11.9
		h38.9c5.2,0,8.3,1.6,9.9,4.8l67.1,112.3c4.8,8.3,9.9,20.2,13.9,29.8V116.4c0-8.3,3.2-11.9,11.5-11.9h38.9c8.3,0,11.1,3.6,11.1,11.9
		V362.5z"/>
	<path style="fill:#FFFFFF;" d="M2208.1,320.8h77.8c8.3,0,11.9,2.8,11.9,11.1v31c0,8.3-3.6,11.5-11.9,11.5h-133.4
		c-7.1,0-9.9-4-9.9-11.9V116.4c0-8.3,3.2-11.9,11.5-11.9h42.9c8.3,0,11.1,3.6,11.1,11.9V320.8z"/>
	<path style="fill:#FFFFFF;" d="M2444.2,116.4l71.8,246.1c2.4,7.5-0.4,11.9-8.7,11.9h-44.1c-8.3,0-11.9-4.4-13.9-11.9l-10.3-38.1
		h-65.9l-10.3,38.1c-2,7.5-5.6,11.9-13.9,11.9h-40.1c-8.3,0-11.1-4.4-8.7-11.9l71.8-246.1c2.4-7.9,6.4-11.9,14.7-11.9h42.9
		C2437.9,104.5,2441.9,108.5,2444.2,116.4z M2419.2,251.4c-6.3-24.2-11.9-79.4-12.3-83c-0.8,5.6-7.1,59.9-13.5,83l-6,21.4h37.3
		L2419.2,251.4z"/>
	<path style="fill:#FFFFFF;" d="M2691.1,264.8l38.9,97.6c2.8,7.1-2.4,11.9-11.1,11.9H2676c-7.5,0-9.1-6.3-11.5-11.9l-34.9-87.7
		h-29.8v87.7c0,8.3-2.8,11.9-11.1,11.9h-42.9c-8.3,0-11.5-3.6-11.5-11.9V116.4c0-8.3,3.2-11.9,11.5-11.9h85.7
		c74.6,0,100.8,33.7,100.8,67.9v34.5C2732.4,229.5,2720.9,252.1,2691.1,264.8z M2599.8,158.1v63.1h31.8c19.4,0,36.1-7.5,36.1-25.8
		v-11.5c0-18.3-16.7-25.8-36.1-25.8H2599.8z"/>
	<path style="fill:#FFFFFF;" d="M2829.6,362.5c0,8.3-2.8,11.9-11.1,11.9h-42.9c-8.3,0-11.5-3.6-11.5-11.9V116.4
		c0-8.3,3.2-11.9,11.5-11.9h42.9c8.3,0,11.1,3.6,11.1,11.9V362.5z"/>
</g>
</svg>
