<?xml version="1.0" encoding="UTF-8"?> <svg xmlns="http://www.w3.org/2000/svg" xmlns:xlink="http://www.w3.org/1999/xlink" version="1.1" id="Layer_1" x="0px" y="0px" viewBox="0 0 1000 1000" style="enable-background:new 0 0 1000 1000;" xml:space="preserve"> <path style="fill:#FFFFFF;" d="M508.7,642.7c-14.7,0.1-26.8-11.8-26.9-26.4c-0.1-14.8,12-27,26.8-27c14.6,0,26.7,12.1,26.7,26.7 C535.4,630.6,523.4,642.7,508.7,642.7z"></path> <path style="fill:#FFFFFF;" d="M732.8,642.7c-14.7,0-26.7-12-26.7-26.6c0-14.6,12-26.7,26.6-26.8c14.7-0.1,26.9,12.1,26.9,26.9 C759.5,630.9,747.5,642.8,732.8,642.7z"></path> <path style="fill:#FFFFFF;" d="M647.3,615.9c0.1,14.8-11.7,26.7-26.4,26.8c-14.8,0.1-26.7-11.6-26.9-26.3 c-0.2-14.9,11.8-27,26.6-27.1C635.3,589.2,647.3,601.2,647.3,615.9z"></path> <path style="fill:#FFFFFF;" d="M856.6,505.1c-0.1-29.9-11.8-54.7-35-73.7c-17.6-14.4-38.1-21-60.8-20.9c-53,0-105.9,0-158.9,0 c-1.6,0-3.2,0-5,0c0-1.9,0-3.2,0-4.6c0-55.2,0-110.4,0-165.7c0-4.5-0.1-9.1-0.6-13.6c-5.8-47.8-45.2-82.8-93.5-82.9 c-100.5-0.1-201-0.1-301.5,0.1c-8.1,0-16.4,1-24.2,3c-42,10.8-70.1,47.8-70.1,92c-0.1,66.3-0.1,132.6,0.1,198.9 c0,6.6,0.7,13.3,1.9,19.8c7.5,39.3,40.7,69.9,80.5,74.4c6,0.7,12,0.7,18.3,1.1c0,1.4,0,2.7,0,4.1c0,17.9-0.1,35.7,0,53.6 c0.1,12.6,4.9,23.3,14.2,31.7c17.4,15.7,42.7,14.9,59.9-2.1c27.1-26.8,54.1-53.7,81.1-80.6c0.9-0.9,1.9-1.8,3.5-3.2 c0,2.3,0,3.7,0,5.1c0,54-0.1,107.9,0.1,161.9c0,6.6,0.5,13.4,1.7,19.9c8.9,45,47,76.2,92.8,76.3c42.6,0.1,85.3,0,127.9-0.1 c3.3,0,5.6,1,7.9,3.3c10.6,10.8,21.3,21.4,32,32c18.3,18.2,36.3,36.6,55,54.4c12.3,11.6,27.3,14.2,43.1,8.6 c15.7-5.6,25.6-17.1,27.8-33.6c1.4-10.4,0.7-21.1,0.8-31.6c0.1-10.8,0-21.6,0-32c9.8-1.2,19.2-1.4,28.1-3.5 c43.2-10.1,72.5-47,72.7-91.9C856.9,638.4,856.8,571.7,856.6,505.1z M490.1,357.4c-3.6-3.6-7.9-5.3-13.1-5.3 c-15.2,0-28.3-5.4-39.1-16.2c-10.8-10.8-16.2-23.8-16.2-39.1v-18.4c0-15.2,5.4-28.3,16.2-39.1c10.8-10.8,23.8-16.2,39.1-16.2 c15.2,0,28.3,5.4,39.1,16.2c10.8,10.8,16.2,23.8,16.2,39.1h-36.9c0-5.2-1.8-9.5-5.3-13.1c-3.6-3.6-7.9-5.3-13.1-5.3 c-9.3,0-15.1,4.3-17.3,12.9c-0.7,2.7-1.1,10.7-1.1,24c0,5.2,1.8,9.5,5.3,13.1c3.6,3.6,7.9,5.3,13.1,5.3c15.2,0,28.3,5.4,39.1,16.2 c10.8,10.8,16.2,23.8,16.2,39.1v18.4c0,15.2-5.4,28.3-16.2,39.1c-10.8,10.8-23.8,16.2-39.1,16.2c-15.2,0-28.3-5.4-39.1-16.2 c-10.8-10.8-16.2-23.8-16.2-39.1h36.9c0,5.2,1.8,9.5,5.3,13.1c3.6,3.6,7.9,5.3,13.1,5.3c9.3,0,15.1-4.3,17.3-12.9 c0.7-2.9,1.1-10.9,1.1-24C495.4,365.3,493.6,361,490.1,357.4z M216.9,309.8c3.6,3.6,7.9,5.3,13.1,5.3c15.2,0,28.3,5.4,39.1,16.2 c10.8,10.8,16.2,23.8,16.2,39.1v18.4c0,15.2-5.4,28.3-16.2,39.1c-10.8,10.8-23.8,16.2-39.1,16.2c-15.2,0-28.3-5.4-39.1-16.2 c-10.8-10.8-16.2-23.8-16.2-39.1h36.9c0,5.2,1.8,9.5,5.3,13.1c3.6,3.6,7.9,5.3,13.1,5.3c9.3,0,15.1-4.3,17.3-12.9 c0.7-2.9,1.1-10.9,1.1-24c0-5.2-1.8-9.5-5.3-13.1c-3.6-3.6-7.9-5.3-13.1-5.3c-15.2,0-28.3-5.4-39.1-16.2 c-10.8-10.8-16.2-23.8-16.2-39.1v-18.4c0-15.2,5.4-28.3,16.2-39.1c10.8-10.8,23.8-16.2,39.1-16.2c15.2,0,28.3,5.4,39.1,16.2 c10.8,10.8,16.2,23.8,16.2,39.1h-36.9c0-5.2-1.8-9.5-5.3-13.1c-3.6-3.6-7.9-5.3-13.1-5.3c-9.3,0-15.1,4.3-17.3,12.9 c-0.7,2.7-1.1,10.7-1.1,24C211.5,301.9,213.3,306.3,216.9,309.8z M392.6,428c-10.8,10.8-23.8,16.2-39.1,16.2 c-15.2,0-28.3-5.4-39.1-16.2c-10.8-10.8-16.2-23.8-16.2-39.1H335c0,5.2,1.8,9.5,5.3,13.1c3.6,3.6,7.9,5.3,13.1,5.3 c9.3,0,15.1-4.3,17.3-12.9c0.7-2.9,1.1-10.9,1.1-24c0-5.2-1.8-9.5-5.3-13.1c-3.6-3.6-7.9-5.3-13.1-5.3c-15.2,0-28.3-5.4-39.1-16.2 c-10.8-10.8-16.2-23.8-16.2-39.1v-18.4c0-15.2,5.4-28.3,16.2-39.1c10.8-10.8,23.8-16.2,39.1-16.2c15.2,0,28.3,5.4,39.1,16.2 c10.8,10.8,16.2,23.8,16.2,39.1h-36.9c0-5.2-1.8-9.5-5.3-13.1c-3.6-3.6-7.9-5.3-13.1-5.3c-9.3,0-15.1,4.3-17.3,12.9 c-0.7,2.7-1.1,10.7-1.1,24c0,5.2,1.8,9.5,5.3,13.1c3.6,3.6,7.9,5.3,13.1,5.3c15.2,0,28.3,5.4,39.1,16.2 c10.8,10.8,16.2,23.8,16.2,39.1v18.4C408.8,404.2,403.4,417.2,392.6,428z M820.4,693.5c0,8.5,0.1,17.3-1.7,25.5 c-5.8,26.1-28.8,44-55.7,44.4c-8,0.1-16.1,0-24.1,0c-11.9,0.1-19.2,7.6-19.2,19.4c0,24.1,0,48.3,0,72.4c0,3.7-0.6,6.9-4.3,8.4 c-3.7,1.5-6.4-0.4-9-2.9c-30.1-30-60.3-59.9-90.3-90c-5-5-10.6-7.4-17.8-7.4c-45.4,0.2-90.8,0.1-136.2,0.1 c-29.5,0-52.7-19-58.2-47.5c-0.7-3.7-1-7.5-1-11.2c-0.1-56,0-111.9,0-167.9c0-1.2,0.1-2.4,0.2-4.1c1.6,0,2.9,0,4.3,0 c31.6,0,63.1,0,94.7,0c46.7-0.1,84.4-31.1,93.4-76.9c0.6-2.8,0.9-5.7,1.4-9.1c1.6,0,3.1,0,4.7,0c53.2,0,106.4,0,159.6,0 c34.2,0,59.3,25.1,59.4,59.3C820.5,568.5,820.5,631,820.4,693.5z"></path> </svg> 