<?xml version="1.0" encoding="UTF-8"?> <!-- Generator: Adobe Illustrator 19.2.0, SVG Export Plug-In . SVG Version: 6.00 Build 0) --> <svg xmlns="http://www.w3.org/2000/svg" xmlns:xlink="http://www.w3.org/1999/xlink" version="1.1" id="Layer_1" x="0px" y="0px" viewBox="0 0 500 500" style="enable-background:new 0 0 500 500;" xml:space="preserve"> <g id="XMLID_357_"> <path id="XMLID_422_" style="fill:#FFFFFF;" d="M87.2,65.5v50.7c0,43.2,26,81.6,65.4,98c2,25.3,13.7,48.9,33,65.8 c10.5,9.3,17.5,21.7,20,35.1h88.8c2.5-13.4,9.5-25.8,20-35.1c19.2-16.9,31-40.5,33-65.8c39.4-16.3,65.4-54.8,65.4-98V65.5 C403,65.5,93.6,65.5,87.2,65.5L87.2,65.5z M108.9,116.3v-29h43.4V190C125.9,175.3,108.9,147.4,108.9,116.3z M277.2,189l6.4,37.5 L250,208.7l-33.7,17.7l6.4-37.5l-27.2-26.5l37.6-5.5l16.8-34.1l16.8,34.1l37.6,5.5L277.2,189z M391.1,116.3 c0,31.1-16.9,59.1-43.4,73.7V87.2h43.4V116.3z"></path> <path id="XMLID_456_" style="fill:#FFFFFF;" d="M174,336.8h152v32.6H174V336.8z"></path> <path id="XMLID_457_" style="fill:#FFFFFF;" d="M347.7,391.1H152.3v21.7h-21.7v21.7h238.7v-21.7h-21.7v-21.7H347.7z"></path> </g> </svg> 