<?xml version="1.0" encoding="UTF-8"?> <!-- Generator: Adobe Illustrator 25.0.1, SVG Export Plug-In . SVG Version: 6.00 Build 0) --> <svg xmlns="http://www.w3.org/2000/svg" xmlns:xlink="http://www.w3.org/1999/xlink" version="1.1" id="Layer_1" x="0px" y="0px" viewBox="0 0 500 500" style="enable-background:new 0 0 500 500;" xml:space="preserve"> <g> <path style="fill:#FFFFFF;" d="M351.1,438.3c2.5,1.5,8.5,0.6,14.1-2.3c3-1.5,5.4-3.3,6.9-5c1.6-1.8,2.2-3.8,1.1-4.9 c-1.4-1.6-4.8-1.4-10.7-0.2c-0.2,0.1-0.3-0.1-0.2-0.2c5.3-6.3,5.6-8.7,4.2-10.4c-2.4-2.9-9.4-3.9-20.6,2.1 c-9,4.9-11.8,10.9-7.7,13.9c3,2.3,7.4,2.3,14.9,1c0.2,0,0.3,0,0.3,0.1C350,436.2,349.7,437.5,351.1,438.3z M368.6,430.6 c1.1,1-0.1,2.7-3.1,4.3c-3.7,1.9-7.5,2.3-9.5,1c-1.1-0.7-1.5-1.8-0.1-3.9c0-0.1,0.2-0.2,0.4-0.3 C363.9,430.1,367.1,429.2,368.6,430.6z M343.1,426.6c-2.4-2-0.9-4.6,2.9-6.6c5.6-2.9,11.8-2.5,14.2,0c1.5,1.6,1.4,3.5-0.3,6.3 c0,0.1-0.4,0.3-0.6,0.4C349.7,428.9,345.6,428.7,343.1,426.6z"></path> <path style="fill:#FFFFFF;" d="M404.1,402.1c0-0.3-1-0.1-1.3,0.3c-1.6,3.7-3.4,6.3-5.6,8.3c-4,3.7-6.6,3.5-7.7,1.4 c-1.1-2.2-0.5-6.2,1-11.3c2.2-7,4-11.9,6.5-19c-0.2-0.4-0.5-1.1-0.9-1.3c-0.8,0.9-2.1,2.2-3.4,3.6c-5.3,5.1-13.1,11.4-18.2,15.5 c-2.6,2-3.3,2.8-3.4,3.2c-0.6,2.5,0.4,8.5,0.9,10.2c0.3,0.1,2.1-0.6,2.4-1c0.3-4.6,1.5-6.8,2.9-7.8c3.7-3,10.7-8.8,12.9-10.5 c0.3-0.3,0.4,0,0.4,0.3c-1.4,3.8-2.7,6.9-4.6,11.6c-2.7,6.6-3.9,10.7-2.6,12.8c1.8,2.9,7,1.4,11.8-2.8 C399.5,411.8,402.8,406.4,404.1,402.1z"></path> <path style="fill:#FFFFFF;" d="M254.1,384.8c3.3,0.5,7.7,3.4,12.6,7.5c6.4,5.5,10.6,9.4,16.5,14.7c0.5,0.1,1.5,0.1,1.9,0 c-0.4-1-1-2.6-1.5-4.2c-2-6.5-4.1-15.9-5.6-22.3c-0.7-3.2-1.2-4.3-1.7-4.7c-2.5-2-10-4.9-12.4-5.6c-0.3,0.2-0.5,2.1-0.2,2.7 c5.2,3.1,7,5.4,7.4,7.2c1.2,4.7,3.3,13.4,3.8,16c0.1,0.4-0.3,0.3-0.5,0.1c-3.4-3.1-5.9-5.8-10.2-10c-6-6.1-10.2-9.8-13.8-10.1 c-4.9-0.5-6.5,4.5-4.6,10.9c1.7,5.6,6.1,11.3,10.2,14.8c0.3,0.1,0.8-0.7,0.5-1.1c-3.3-3.3-5.1-6.2-6-9 C248.8,386.1,250.9,384.3,254.1,384.8z"></path> <path style="fill:#FFFFFF;" d="M247.2,362.3c2.9-0.1,4.8-3.1,6.8-9.1c0-0.2,0.2-0.2,0.3,0c4.7,9.1,7.3,10.9,10.2,10.8 c4.8-0.1,10-5.6,9.2-20c-0.7-12-6.4-19.1-12.5-17.4c-4.5,1.2-7,5.4-9.8,13.4c-0.1,0.2-0.2,0.2-0.3,0.2c-2.7-6.1-4.3-7.5-6.2-6.9 c-3.5,1.1-6,7.3-5.7,14.5c0.2,3.8,1.1,7.3,2.4,9.9C243,360.4,245.1,362.3,247.2,362.3z M255,349.7c3-10.3,5.4-14.1,9.3-15 c3.8-0.8,6.1,2.5,6.3,7.5c0.4,7.2-3.6,12.6-8,13c-2.8,0.2-5-1.2-7.5-4.8C255,350.3,255,349.9,255,349.7z M240.6,348.9 c-0.3-4.8,1.7-8.4,4.6-9.2c1.6-0.4,3.3,0.1,5.2,3c0.1,0,0.1,0.4,0.1,0.5c-2.4,8-3.4,11.5-6,11.7 C242.5,355.2,240.8,352.8,240.6,348.9z"></path> <path style="fill:#FFFFFF;" d="M381.1,296.6c-9.1-0.7-11.6,0.7-12.6,3.6c-1.7,4.9,0.7,13.6,12.1,20.8c8.8,5.6,16.1,3.4,17.4-3.2 c1-5-1-9.6-5.8-16.6c-0.1-0.2-0.1-0.3,0-0.4c5.4,0.6,6.9-0.3,7.1-2.6c0.4-4.3-3.3-10.3-9-14.2c-3.1-2.1-6.1-3.3-8.6-3.6 c-2.7-0.2-5,0.8-5.7,3.1c-0.9,3.1,1,7,5.1,12.8C381.3,296.4,381.3,296.7,381.1,296.6z M383,285.2c0.5-2.2,2.9-2.5,6-0.4 c3.8,2.6,5.9,6.7,5.5,10.1c-0.2,1.9-1.2,3.3-4,3.6c-0.1,0.1-0.3-0.1-0.5-0.2C384.8,291.2,382.4,288.1,383,285.2z M382.9,299 c0.1,0,0.5,0.2,0.6,0.3c6.7,8.9,8.5,13.3,7.5,17.5c-1,4.1-4.2,4.7-7.9,2.2c-5.5-3.6-8.1-10.7-6.7-15.3 C377.2,300.8,379.2,299.4,382.9,299z"></path> <path style="fill:#FFFFFF;" d="M334.3,288c4.6-1.2,8.4-1.8,14.2-3.2c8.1-1.8,13-3.7,14.5-7.2c2.1-4.8-2.2-10.2-9-12.8 c-6.2-2.4-13.5-1.9-18.7-0.1c-0.3,0.2,0.5,1.4,1,1.5c4.7-1,8.2-0.8,11.5,0.4c6,2.1,7.1,5.7,5.4,8.8c-1.7,3.1-6.1,5.6-12.1,7.7 c-8.2,2.7-14.2,4-22.6,6.1c-0.3,0.5-0.9,1.4-0.8,2c1.3,0.4,3.3,0.9,5.4,1.6c7.9,2.6,18.5,7.3,25.3,10.2c3.3,1.5,4.5,1.7,5,1.5 c2.8-1.2,8.3-6.8,9.8-8.7c-0.1-0.5-1.7-1.9-2.3-2c-4.7,3.2-7.6,3.4-9.4,2.5c-5-2.1-14.6-6.1-17.5-7.5 C333.8,288.5,334.1,288.1,334.3,288z"></path> <path style="fill:#FFFFFF;" d="M386.7,271.5c5.2,4.3,9.6,9.2,13,14.4c5.9,9.1,9.1,19.9,8,29.7c-1.2,11.4-7.7,20-17,24.5 c-11,5.3-25.8,4.7-41.9-3.5c-17.8-9-30.6-21.6-35.8-35c-4.4-11.5-3.2-23.1,4.2-32.1c6.2-7.5,16.2-11.9,27-12.6 c6.1-0.4,12.8,0.4,19.5,2.4c-10.5-3.9-21.7-6-33.5-6c-52.1,0-94.5,41.1-96.6,92.7c2-10.6,7-19.1,13.3-24.4c7.8-6.4,18.1-8.3,28.3-4 c12.3,5.1,21.6,17.8,27.4,34.4c6,17,7.5,33.8,1.7,46.6c-4.9,10.8-13.9,16.5-23.9,17.1c-8.5,0.4-18.2-3.1-26.7-10.6 c-3.9-3.4-7.3-7.6-10.2-12.4c15.8,31.9,48.7,53.9,86.7,53.9c17.4,0,33.7-4.6,47.8-12.6c-9.1,4.9-18.9,7.9-27.3,7.9 c-9.8,0-17.4-3.5-21.3-8.8c-4.8-6.6-4.7-16,1.9-26.5c7.8-12.4,21.6-23,36.2-30.1c13.3-6.5,25.4-8.2,34.1-3.5 c7,3.7,10.2,11.3,9.4,19.8c-0.7,7.3-4.5,15.9-11.1,23.8c-1,1.2-2.1,2.4-3.2,3.6c18.6-17.6,30.1-42.5,30.1-70.1 C426.8,317.7,411,289.1,386.7,271.5z"></path> <path style="fill:#FFFFFF;" d="M210.3,132c-2.9,0.7-21.8,7.6-29,11.5c-0.3,0.3-1.3,1.4-1.3,1.7c2.8,0.1,5.7,0.2,8.6,0.4 c3.8,0.3,7.6,0.7,11.5,1.2c0.2,0,0.3,0.2,0.3,0.3c-1.5,3.4-3,7.1-4.6,11c2.4,0,7.8,0.5,11,1.1c1.2-3.8,2.2-7.3,3.2-10.5 c0.1-0.2,0.3-0.2,0.4-0.2c2.8,0.5,5.7,1.2,8.4,1.9c0.3-1,1.1-2.3,1.8-3.1c-2.3-0.5-5.5-1.2-9.4-1.9c-0.2,0-0.3-0.2-0.3-0.3 c1-3,3.7-10.8,4.3-12.5C214.4,132.4,211.3,132,210.3,132z M201.7,143.7c0,0.1-0.3,0.2-0.5,0.2c-2.1-0.3-4.2-0.5-6.3-0.7 c-2.7-0.3-5.6-0.5-7-0.6c-0.2,0-0.1-0.2,0-0.3c3.2-1.8,15.6-7,17.9-7.7c0.1,0,0.3,0,0.3,0.1C204.8,137.2,203.3,140.3,201.7,143.7z"></path> <path style="fill:#FFFFFF;" d="M172.3,136.4c3.6-4.2,4.7-4.8,5.7-5.6c0.1-0.1-0.5-0.1-0.7,0c-2.9,0.7-8.1,1.8-11.8,2.7 c-0.3,0.1-1.1,0.7-1,0.8c1-0.2,2.2-0.4,2.9-0.4c1-0.1,1,0.2,0.6,0.6c-0.6,0.6-2.9,3-5.6,6.2c-2.9,3.4-5.3,6.8-6.9,9 c-1.2,1.6-2.2,2.8-4.3,3.4c-1.2,0.3-2.3,0.5-3.8,0.9c-0.4,0.2-1.2,1.5-1.1,1.7c1.9-0.3,5.1-0.8,9.4-1.2c4.4-0.3,8.1-0.2,10.8-0.2 c0.4-0.2,1.4-1.6,1.3-1.8c-1.6-0.1-2.7-0.2-4.2-0.4c-1.6-0.3-1.3-1.3-0.2-3.2C164.9,146,170.3,138.7,172.3,136.4z"></path> <path style="fill:#FFFFFF;" d="M107,198.9c-0.1,1.6-0.3,4-0.3,6.8c0,0.1-0.1,0.4-0.2,0.4c-2.1,2-7,8.3-7.9,10c0,0.7,0,3,0,3.7 c0.6,1,6.9,7.8,10.6,10.5c0.2,0,1.2-0.3,1.4-0.5c-0.4-2.8-0.8-5.5-1-8.2c-0.3-3.4-0.6-6.7-0.7-9.9c0-0.1,0.1-0.4,0.2-0.5 c2.4-1.9,5.2-4,8.2-6c-0.3-1.7-0.7-5.5-0.7-7.8c-2.8,2.1-5.3,4.2-7.5,6.2c-0.1,0.1-0.2,0-0.2-0.1c0.1-2.1,0.2-4.3,0.4-6.2 C108.5,197.9,107.6,198.5,107,198.9z M107.3,225.5c-1.6-0.9-6.3-5-6.9-5.8c0-0.1,0-0.2,0-0.3c1.6-2,3.7-4,6.2-6.1 c0.1-0.1,0.2,0.1,0.2,0.2c0.1,1.8,0.1,3.6,0.3,5.4c0.2,2.4,0.4,5,0.5,6.3C107.5,225.4,107.4,225.5,107.3,225.5z"></path> <path style="fill:#FFFFFF;" d="M102.6,252.2c6.1-2.8,12.5-5.1,19.1-6.8c-1.1-4.4-1.8-8.1-2.4-10.7c-0.3-0.2-1.4,0.1-1.6,0.4 c0.3,1.9,0.5,3.3,0.7,5.3c0.2,2.2-0.6,3-2.1,3.8c-2.3,1.2-8.2,3.7-10,4.5c-3,1.4-3.6,1.6-4.2,1.8c-0.1,0,0.1,0.7,0.1,0.9 C102.4,251.6,102.5,251.9,102.6,252.2z"></path> <path style="fill:#FFFFFF;" d="M222.3,259.3c-2.3,2.3-4.6,4.5-6.9,6.7c1.6,1.3,3.2,2.6,4.7,4c0.2-0.1,0.3-0.3,0.5-0.4 c0.2-0.1,0.5,0,0.6,0.2c0.1,0.4,0.2,0.9,0.3,1.4c1.7,1.6,3.3,3.2,4.9,4.8c-0.5-5.3-1.1-10.5-1.6-14 C224.4,261.4,222.8,259.5,222.3,259.3z"></path> <path style="fill:#FFFFFF;" d="M232.5,237.7c4.3,4,15.3,15.8,19,19.9c5.8,6.4,7.6,8.5,8.8,10.2c0.9-0.7,1.8-1.5,2.7-2.2 c1.8-3.9,4.6-9.3,7.1-13.5c0-0.4-0.7-1.9-1.2-1.9c-0.9,1.3-2.3,3-3.1,3.8c-1.1,1.3-2.1,1-2.9,0.1c-1.2-1.2-5.1-5.8-9.9-11.5 c-4.9-6-9.8-11.6-12.8-15.1c-2.2-2.6-3.5-4.7-2-7.7c0.9-1.7,1.9-3.1,3.2-5.2c0-0.6-1.8-2.5-2.3-2.5c-2,2.5-5,6.7-9.6,12.2 c-4.7,5.5-9,9.9-12,13.2c0,0.7,1.8,2.8,2.2,2.9c2-1.8,3.4-3.1,5.6-4.7C227.8,233.9,229.7,235.1,232.5,237.7z"></path> <path style="fill:#FFFFFF;" d="M97,239.7c-1.1-9.2-0.8-18.6,0.7-26.7c1.6-8.6,4.7-16.7,9-21.9c5-6.2,11-7.7,16-5.1 c6.3,3.3,11.1,12.5,13.4,27.1c1.6,10.1,1.9,20.3,1,29.6c3.6-0.4,7.2-0.5,10.8-0.5c6.5,0,12.8,0.6,19,1.7c0.8-2.9,1.9-5.7,3.2-8.4 c7.8-16.7,23.4-30.2,42.7-34.9c17.3-4.1,33.7-0.3,45.7,8.6c10.6,7.9,18,20.3,19.6,34.8c0.4,3.8,0.3,7.7-0.1,11.6 c2-1.1,4.1-2.2,6.2-3.2c11.4-36,1.1-76.8-29.4-102.8c-11.4-9.8-24.5-16.4-38.1-20c4,1.6,7.5,3.8,10,6.3c5.9,6,6.3,13.4,2.1,20.1 c-5.2,8.1-16.9,14.8-33.7,19.1c-17.4,4.4-33,4.9-43.8,1c-9-3.3-14.1-9.5-13.1-17.6c0.8-6.5,5.8-13.5,12.9-18.8 c6.5-4.9,15.4-9,25.2-11.4c2.5-0.6,5-1.1,7.4-1.5c-24.4,2.1-48,13.5-65.2,33.6c-20.6,24.1-27.2,55.4-20.7,84.1 C97.5,242.9,97.2,241.3,97,239.7z"></path> <path style="fill:#FFFFFF;" d="M334.6,192.2c-0.5,2.3-1.1,4-4,4.8c-1.7,0.5-3.2,0.8-5.5,1.3c-0.4,0.4-0.7,2.2-0.4,2.5 c2.9-0.4,7.6-1.3,14-1.9c6.3-0.6,11.5-0.5,15.3-0.6c0.4-0.3,0.7-2.2,0.5-2.5c-2.2-0.1-3.8-0.2-6.1-0.5c-2.4-0.3-2.8-1.8-2.7-4.4 c0-3.9,1.1-14.4,1.5-17.8c0.7-6.1,1-7.3,1.4-8.7c0-0.1-0.8-0.2-1-0.1c-3.3,0.9-9.4,2.5-14.3,3.5c-0.3,0.2-0.8,1.1-0.5,1.3 c1.3-0.2,3.2-0.4,4.1-0.4c1.4-0.1,1.8,0.4,1.7,1.1c-0.1,1-0.8,4.7-1.6,9.4C336,184.2,335.2,189.1,334.6,192.2z"></path> <path style="fill:#FFFFFF;" d="M388.8,178c3.2-1.1,6.2-2.3,5.3-5.1c-1.1-3.3-6.2-6.6-12.7-7.5c-6.2-0.8-11.1,1.4-13.6,2.9 c0,0.2,0.9,1.3,1.5,1.2c2.8-1.3,5.6-1.9,8.9-1.6c5.2,0.6,8.4,3.1,9.1,5.7c0.7,2.7-1.9,4.1-9.4,4.4c-0.4,0.1-1.4,2.2-1.2,2.5 c1.5,0,2,0.1,3,0.2c8,0.8,13.8,5.5,14.8,10.9c1.2,6.3-3.5,8.3-8.6,7.8c-3.5-0.4-6-1-8.7-2.4c-2.7-1.4-5.4-3.5-7.3-6.4 c-0.4,0-2.4,0.7-2.6,1c0.3,1.6,1.2,4.1,2.2,5.6c1,1.6,1.9,2.4,3.4,3c2.3,1,5.4,1.8,9.4,2.1c5.7,0.5,10.6-0.3,14.5-2.1 c4.7-2.1,7.1-5.9,6-10.6c-1.4-5.5-7.4-9.3-13.9-11.6C388.7,178.1,388.7,178,388.8,178z"></path> <path style="fill:#FFFFFF;" d="M450.6,273.6c-0.4,1.2-1.1,2.7-1.5,3.6c-0.5,1.2-1,1.3-1.5,0.9c-0.6-0.5-2.8-2.6-5.6-5.3 c-3-3-6.1-5.7-8.1-7.6c-1.4-1.4-2.4-2.7-1.7-5.4c0.4-1.6,0.9-3,1.5-5.1c-0.1-0.5-1.3-1.6-1.6-1.4c-1,2.6-2.4,6.8-4.8,12.3 c-2.4,5.4-4.8,9.6-6.4,12.7c0,0.5,1.3,1.5,1.6,1.5c1.1-1.8,1.9-3,3.1-4.8c1.3-1.8,2.5-1.5,4.4-0.3c2.7,1.7,9.6,7.1,11.7,8.8 c3.8,3.1,4.4,3.9,5,4.8c0.1,0.1,0.5-0.5,0.5-0.8c0.8-3,2.5-8.7,3.9-13.1C451.2,274.2,450.8,273.4,450.6,273.6z"></path> <path style="fill:#FFFFFF;" d="M434.1,303.1c-0.4,2.8-1.3,5.4-3.1,7.9c-0.1,0.1-0.1,0.2-0.2,0.3c0.3,0.8,0.6,1.7,0.9,2.5 c3-4.4,3.8-8.9,3.9-11.3C435.5,302.3,434.4,302.7,434.1,303.1z"></path> <path style="fill:#FFFFFF;" d="M457.5,253.1c0-47.3-34-86.7-79-95.1c5.9,1.5,11.3,3.7,16.1,6.4c9.2,5.3,16.6,13.3,19.6,22.1 c3.6,10.4,1.1,20.6-5.8,28.3c-8.3,9.1-22.7,14.2-41.5,13.8c-19.8-0.5-35.9-5.9-45.4-15.4c-8.1-8-11.3-18.4-8-29 c2.8-8.8,10.1-16.6,19.4-21.6c5-2.6,10.7-4.6,16.9-5.7c-22.2,2.5-42.1,12.5-57.2,27.5c4.6,12,7.2,25.1,7.2,38.7 c0,7.6-0.8,14.9-2.3,22c1.4,0.1,2.8,0.3,4.1,0.6c9-2.5,18.6-3.8,28.4-3.8c25.7,0,49.4,9.1,67.9,24.1c2.1-3.1,4.3-6.1,6.6-8.9 c9.5-11.4,20.2-17.7,30.5-16.7c8.3,0.9,14.8,6.8,17.9,15.3c1.9,5.3,2.7,11.9,2,19C456.7,267.9,457.5,260.6,457.5,253.1z"></path> <path style="fill:#FFFFFF;" d="M373.9,112.2c0.5-1.3,0.7-4.2-0.3-8.4c-0.8-3.3-2.1-6.9-4-9.8c-2.9-4.6-6.7-7.6-10.7-9 c-5.6-2-10.2-1.2-11.7,2.7c-0.8,2.1-0.8,4.9,0.1,9c0.6,2.7,2.1,6.7,4.6,10.2c4.3,6.4,9.7,9.2,15.1,9.5 C371.2,116.6,373.2,114.5,373.9,112.2z M351.9,102.2c-0.7-0.8-1.5-2.2-1.9-3.8c-1.2-5.5,3.2-8.2,12.5-5.3c4,1.2,6.9,3.5,8.4,5.8 c0.5,0.8,1,2,1.3,3.2c1.1,4.4-1.1,6.4-7.7,5.4C357.7,106.4,354,104.5,351.9,102.2z"></path> <path style="fill:#FFFFFF;" d="M377.2,134.2c0-0.6-0.2-1.1-0.4-1.7c-1-1.8-4.9-5.4-7-6.5c-0.3-0.1-1,0.1-1.2,0.2 c-0.5,2.1-1.6,9.5-3.2,14.2c-0.8,2.3-1.6,4-2.4,5.2c1.9,0,3.9,0.1,5.8,0.3c1.4-4.2,2.8-11.5,3.3-14.7c0-0.2,0.2-0.5,0.4-0.4 c0.6,0.4,1.4,1.1,2,1.7c0.1,0,0.2,0.4,0.2,0.8c0,1.1-0.1,4.6-0.2,8.3c0,1.1,0.1,2.1,0.4,2.8c0.5,1.3,1.4,2.1,1.8,2.2 c0,0,0.1,0,0.1,0c0.1-0.1,0.4-0.9,0.4-1c-0.2-0.9-0.3-1.5-0.2-3.5C377,139,377.2,135.4,377.2,134.2z"></path> <path style="fill:#FFFFFF;" d="M358.1,124.3c-0.8-0.7-2.8-1.9-3.5-1.9c-0.6,0-1.4,0.6-1.8,1.4c-1.3,2.2-2.5,6.3-2.3,12.8 c0.1,3.2,0.6,6.5,1.4,9.4c0.8-0.1,1.7-0.1,2.5-0.2c-0.5-1.2-0.8-2.8-0.8-4.7c0-7.1,2.4-12.4,5-15.5 C358.4,125.3,358.2,124.5,358.1,124.3z"></path> <path style="fill:#FFFFFF;" d="M263.6,48.4c1-0.4,4.5-1.6,8.1-3c1-0.4,1.8-0.9,2.1-1.5c0.5-1.2,0.1-2.7-0.2-3 c-0.2-0.1-1.2-0.1-1.3,0c-0.6,0.6-1,0.9-2.9,1.5c-3.1,1.1-6.7,2.3-7.9,2.8c-0.6,0.3-0.9,0.6-1.2,1.1c-0.6,1.8,0.2,7.6,1.2,10.3 c0.1,0.4,1.1,1.1,1.5,1.2c2.6-0.3,11-1.9,16.8-1.9c6.8,0,10,1.3,12.7,3.9c3.2,3,2.6,6.4-1.8,8.4c-6.2,2.8-13.4,2.1-18.7,0.7 c-0.3,0.1-0.9,0.7-0.9,0.9c0,1.2,0.5,3.7,1.1,4.4c0.6,0.7,1.9,1.2,3,1.4c3.3,0.5,8.3,0.2,14-2.5c8.5-4.1,13.6-12.7,6.4-18.9 c-3.5-3-7.7-4.1-13.7-4c-5,0-13.7,1.3-17.5,1.9c-0.2,0-0.8-0.1-0.8-0.3c-0.2-0.8-0.5-2-0.5-2.9C263,48.8,263.3,48.5,263.6,48.4z"></path> <path style="fill:#FFFFFF;" d="M223.1,70.3c-2.8,5.4-2.5,11.2-0.2,16.2c3.2,7.2,8.6,11.6,15,11.3c3.4-0.2,7.1-1.7,11.4-4.7 c2.7-1.9,6.3-5.3,8.2-9.5c3.5-7.2,1.6-14.2-3.5-20.1c-4.2-4.8-8.9-6.1-12.5-5.9c-2.2,0-6,0.9-10.3,3.8 C227.9,63.7,224.8,66.8,223.1,70.3z M246.1,69.8c5.7,7.7,6.8,12.6,5.8,15.9c-0.4,1.1-1.3,2.6-3,3.7c-5.8,4-12.8,0.6-18.9-10.9 c-2.7-5-3.2-9.3-2-12c0.5-0.9,1.3-2,2.6-2.9C235,60.6,240.4,62.1,246.1,69.8z"></path> <path style="fill:#FFFFFF;" d="M275.7,155.3c8.7,2.3,16.6,5.5,23.3,9.8c11.1-7.8,23.7-13.5,37.2-16.7c-5.9-13.5-8.2-29.7-7.3-44 C329.8,91,334.1,81,342,77c6.2-3.1,13.9-1.5,20.4,3.8c5.6,4.6,10.9,12.2,14.4,21.6c-2.7-8.4-6.6-16.6-11.8-24.3 C339.5,40,291.7,26,250.6,41.5c6.7-2.2,13.5-3.3,20-3.4c10.7-0.1,21.3,2.8,29.1,8.5c9,6.6,13.1,16.1,12.4,25.6 c-0.9,11.3-8.4,22.8-23,31.4c-16.6,9.8-34.9,14.1-49.6,11.8c-12.7-1.9-22.3-8.7-26.3-19.4c-3.2-8.8-1.7-19.3,3.5-28.4 c3.6-6.2,9.1-12.3,16-17.2c-0.6,0.4-1.2,0.8-1.9,1.2c-22.8,15.3-37,38.6-41.3,63.7c0.8,0,1.7,0,2.5,0 C225.8,115.4,255.9,131,275.7,155.3z"></path> <path style="fill:#FFFFFF;" d="M381.5,130.6c-0.1,5.9-0.8,11.5-2.2,16.6c0.3,0.1,0.6,0.1,1,0.2 C381.1,141.8,381.5,136.2,381.5,130.6z"></path> <path style="fill:#FFFFFF;" d="M132.2,401.6c-6.5-1.3-11.6-2.9-15.2-3.8c-0.4,0.2-0.8,2.1-0.6,2.4c2.1,0.8,3.6,1.3,5.9,2.3 c2.4,1.1,2.6,2.7,2.5,5.5c-0.2,4.1-1.6,15-2.1,18.5c-0.8,6.4-1,7.6-1.3,9c0,0.1,0.8,0.5,1,0.4c3.3,0,9.6,0.3,14.8,0.8 c0.3-0.1,0.8-1,0.5-1.3c-1.4-0.2-3.4-0.6-4.4-0.9c-1.5-0.3-1.9-1-1.8-1.8c0.1-1.1,0.7-4.9,1.7-9.7c1.2-5.1,2.2-10.1,3-13.2 c0.6-2.3,1.4-3.9,4.6-3.9c1.9,0,3.6,0.2,6.2,0.3c0.5-0.3,1-2.1,0.6-2.5C144.2,403.4,139,403,132.2,401.6z"></path> <path style="fill:#FFFFFF;" d="M156.1,434.3c-1.5,3.2,1.6,5.8,8,5.5c5.7-0.2,12.1-3.2,15.3-5.1c0.2-0.2,0.2-1.1-0.3-1 c-3.3,1.7-6.5,2.8-9.4,3c-4.8,0.3-6.2-1.8-4.9-4.3c1.4-2.7,5.2-4.5,12.6-5.9c0.4-0.2,2.6-2.4,2.6-2.6c-1.3,0.2-1.8,0.2-2.6,0.2 c-7.2,0.3-10.5-3.5-8.3-8.9c2.4-6.2,8.4-8.8,12.9-8.7c2.9,0,4.8,0.3,6.3,1.4c1.5,1,2.6,2.9,2.6,5.4c0.3,0,2.1-0.8,2.4-1.2 c0.5-1.5,1-3.7,1-5.1c0-1.5-0.3-2.1-1.2-2.6c-1.3-0.8-3.4-1.3-6.4-1.3c-4.8,0-10,1.3-15,3.5c-6.6,2.7-11.9,6.8-13.6,11.5 c-1.9,5.4,2.7,8.5,8.4,9.8c0.1,0,0,0.1-0.2,0.2C161.9,429.9,157.4,431.6,156.1,434.3z"></path> <path style="fill:#FFFFFF;" d="M221.1,339.1c0.4,1.3,0.8,2.9,1.3,4.9c0.1-1.7,0.2-3.3,0.4-5c-0.1-0.2-0.1-0.4-0.2-0.7 C222.3,338.2,221.2,338.7,221.1,339.1z"></path> <path style="fill:#FFFFFF;" d="M231.6,306.1c-2.2-4.4-5.5-8.1-7.5-10c-0.2-0.1-0.5,0.5-0.2,0.9c2.1,2.2,3.8,4.4,5,6.9 c1.2,2.4,1.5,4.1,1.4,5.2C230.7,308.1,231.2,307.1,231.6,306.1z"></path> <path style="fill:#FFFFFF;" d="M226.9,311.4c0.6,0.7,1.1,1.5,1.7,2.1c0.4-1.1,0.8-2.3,1.3-3.4c-0.2,0.2-0.4,0.3-0.7,0.4 c-1.6,0.3-3.7-2.1-7.4-8.1c-0.3-0.3-2.2-1.2-2.3-1.1c0.7,1.1,0.9,1.5,1.2,2.3c3.1,6.4,2.5,11.2-1,12c-4,1-7.7-3.1-9.7-7.4 c-1.3-2.8-2-4.8-2.2-6.8c-0.2-2,0.2-4,1.5-5.3c-0.2-0.3-1.5-1.7-1.8-1.8c-1,0.2-2.4,0.8-3.1,1.6c-0.8,0.7-1,1.4-0.8,2.5 c0.3,1.7,1.1,4,2.5,7.1c2.2,4.6,5.1,8.8,8.3,12.3c3.9,4.4,7.8,6.8,10.7,5.8c0.2-0.1,0.3-0.1,0.4-0.2c0.6-2.4,1.3-4.8,2.1-7.1 c-0.1-1.5-0.5-3.2-0.9-4.8C226.8,311.3,226.8,311.3,226.9,311.4z"></path> <path style="fill:#FFFFFF;" d="M131.2,294.3c0,0.4,1.7,1.5,2.3,1.5c2.2-2,5.3-5.1,9.7-8.7c4-3.3,7.3-5.5,9.5-7.2 c-0.1-0.3-1.7-1.4-2-1.5c-1.5,0.9-2.5,1.5-4.2,2.3c-1.9,0.9-3.7,0.3-6.3-1c-4-2-14.8-7.3-18.6-8.9c-6.9-2.9-8.3-3.3-9.8-4 c-0.1,0-0.9,0.3-1,0.4c-1.6,1.9-5.1,5.8-8.6,9c-0.1,0.2,0.7,0.9,1.2,0.7c1.1-0.9,2.6-2,3.5-2.6c1.2-0.8,2.3-0.8,3.1-0.6 c1.2,0.4,5.4,2.1,10.3,4.6c5,2.7,9.9,5.4,12.7,7.3c2.1,1.4,3.4,2.6,1.8,4.5C133.7,291.6,132.7,292.6,131.2,294.3z"></path> <path style="fill:#FFFFFF;" d="M92.7,290.8c-3.1-2.1-8.7-0.3-13.4,5.2c-4.3,5.1-5.7,11.8-6,15.5c0.2,0.3,1.4,0.4,1.7-0.1 c0.7-3.7,1.9-7,4.1-9.7c3.6-4.4,7.4-5.1,9.7-3.2c2.4,1.9,1.7,5.8-2.6,13.2c-0.1,0.5,0.7,3.3,1.1,3.4c0.9-1.4,1.3-1.8,1.9-2.6 c5.5-6.9,12.8-8.4,17.5-4.6c5.5,4.3,3.8,10.7,0,15.2c-2.5,3-4.4,4.8-7.1,6.1c-2.6,1.3-5.7,1.8-8.9,0.9c-0.3,0.4-0.9,2.6-0.7,3.1 c1.4,1.1,3.7,2.5,5.4,3c1.8,0.5,2.8,0.4,4.2-0.4c2.1-1.2,4.5-3.3,7.1-6.6c4-4.9,6.7-10.5,8.1-15.9c1.7-6.6,0.7-12.4-3.7-15.4 c-5-3.5-12-0.8-18,3.6c-0.1,0.1-0.2,0-0.1-0.2C94.2,296.8,95.3,292.7,92.7,290.8z"></path> <path style="fill:#FFFFFF;" d="M209.1,362.5c-8.9-10.7-14.8-26.5-17.7-42c-2.6-14.2-1.5-25.9,4.5-32.6c4.7-5.2,11.9-5.9,19-2.5 c5,2.4,10.2,6.9,14.8,13.1c-5-7.9-11.2-15.2-18.7-21.6c-34.3-29.5-83.3-30.7-118.7-5.8c6.3-4.1,13.1-7.1,19.8-8.8 c10.7-2.7,22.2-2.4,31.7,1.5c10.8,4.5,17.8,13,20,22.7c2.6,11.6-1.2,25.1-12.7,37.4c-13.3,14.1-30.8,23.1-46.6,24.7 c-13.6,1.4-25.5-3-32.8-12.7c-6.1-8.1-7.7-19.1-5.2-29.8c2.1-8.7,7-17.7,14.4-25.4c-2.1,2.1-4.2,4.2-6.2,6.5 c-34.8,40.5-30.2,101.5,10.3,136.3c14.6,12.6,31.9,20,49.7,22.5c-4.6-0.8-8.9-2.1-12.9-3.9c-10.5-4.8-17.9-12.5-21.2-20.7 c-3.9-9.7-2.5-20.7,5.2-29.9c9.2-11,25-16.9,43.3-18.4c18-1.5,33.8,1.9,44,11.3c8.5,7.9,11.2,18.5,8.7,28.5 c-2.1,8.6-8.3,17.4-17.9,23.9c-8.3,5.6-19.2,9-30.2,10c25.2-1.5,49.9-12.8,67.7-33.5c4.5-5.3,8.4-10.9,11.6-16.7 c-3.6-7.5-6.4-15.6-8.2-23.9C219.6,372,214.2,368.7,209.1,362.5z"></path> </g> </svg> 