<?xml version="1.0" encoding="UTF-8"?> <!-- Generator: Adobe Illustrator 24.3.0, SVG Export Plug-In . SVG Version: 6.00 Build 0) --> <svg xmlns="http://www.w3.org/2000/svg" xmlns:xlink="http://www.w3.org/1999/xlink" version="1.1" id="Layer_1" x="0px" y="0px" viewBox="0 0 500 500" style="enable-background:new 0 0 500 500;" xml:space="preserve"> <g> <path style="fill:#FFFFFF;" d="M436.2,210.1c6.6-6.6,3.1-17.5-6.2-19l-111.6-16.3c-3.5-0.4-6.6-2.7-8.6-6.2L260.2,67.4 c-3.9-8.2-15.9-8.2-19.8,0l-49.8,101.1c-1.6,3.1-4.7,5.4-8.6,6.2L70.9,191c-8.9,1.2-12.8,12.4-6.2,19l80.8,78.5 c2.7,2.7,3.9,6.2,3.1,9.7l-19,111.2c-1.6,8.9,7.8,15.9,15.9,11.7l99.9-52.5c3.1-1.6,7-1.6,10.5,0l99.5,52.5 c8.2,4.3,17.5-2.7,15.9-11.7l-19-111.2c-0.8-3.5,0.4-7.4,3.1-9.7L436.2,210.1z M138.5,245.1c0-12.4,0-25.3,0-37.7 c5.8,0,12,0,17.9,0c1.2,3.5,1.9,3.9,5.4,2.3c3.5-1.6,7.4-2.3,11.7-1.9c0,8.6,0,17.5,0,26c-7.8,0.4-12.8,4.7-17.1,10.5 c-0.4,0.4-0.8,0.8-1.6,0.8C149.8,245.1,144.3,245.1,138.5,245.1z M194.1,309.2c-8.6,0-17.5,0-26,0c-3.9,0-8.2,0-12,0 c-1.6,0-2.3-0.4-2.3-1.9c-1.9-9.3,0-18.3,4.3-26.4c4.7-8.6,11.7-15.9,19-22.2c5.1-4.3,10.5-8.6,15.5-12.4c0.8-0.8,1.9-0.8,3.1-1.2 c2.7,0,5.8,0,8.6,0c1.9,0,2.7-0.8,3.9-2.3c3.9-6.6,9.3-11.3,17.1-12.8c2.3-0.4,5.1,0,8.6,0.4c-2.7,3.1-4.7,5.8-6.6,8.2 c-8.2,10.9-14.4,22.5-16.7,36.1c0,0.8-0.4,1.6-0.8,1.9c-7.4,9.7-12.8,19.8-14.8,31.9C194.5,308.4,194.1,308.8,194.1,309.2z M200.7,330.2c-3.5-12.8-1.9-25.3,3.9-37.3c5.8-12,14.4-21.8,24.1-30.3c11.3-9.7,23.3-18.7,35-28c0.8-0.8,1.6-1.2,2.7-1.9 c-3.5-0.4-6.6-0.4-9.7-1.2c-7-1.6-14-3.9-21-5.8c-12.4-3.9-22.2,1.6-31.1,12.8c-0.4,0.8-1.6,1.6-1.9,1.6c-7.4,0-15.2,0-22.5,0 c-0.4,0-0.4,0-0.8,0c0-17.9,0-35.4,0-53.3c8.6,0,17.1,0,25.7,0c0.8,4.7,2.3,5.4,6.6,3.5c8.6-4.3,17.5-3.9,26.4-1.6 s17.9,5.1,26.4,7.4c10.1,2.7,20.2,3.5,30.7,1.6c7-1.2,10.9-3.1,17.5-8.6c4.7,5.4,9.3,10.5,14,15.5c-5.8,6.2-11.7,11.7-17.1,17.9 c-13.2,15.2-23.3,31.9-28,51.7c-4.7,19-3.9,37.3,4.3,55.6v0.4C257.4,330.2,229.1,330.2,200.7,330.2z M337.9,259.8 c-6.2,15.9-7,31.9-0.4,48.2c0,0.4,0,0.4,0,0.8c0,0,0,0,0,0.4c-4.7,0-9.7,0-14.4,0c-12,0-24.1,0-36.1,0c-1.9,0-2.7-0.4-2.7-2.3 c-1.2-10.9-0.4-21.8,2.3-32.3c0.4-1.2,0.8-2.3,1.6-3.1c7-8.9,15.9-15.9,24.9-22.9c3.1-2.3,6.2-4.7,9.3-7c0.4-0.4,0.8-0.8,1.2-0.8 c-5.8-1.6-12-2.7-18.3-4.3c0.8-1.2,1.2-1.9,1.6-2.3c5.1-5.8,10.1-11.7,15.2-17.5c1.6-1.6,3.1-1.9,5.1-1.6 c5.8,1.2,11.3,1.6,17.1,0.4c4.7-0.8,8.9-2.7,12.4-5.8c3.5,3.5,7,7.4,10.5,10.9v0.4C354.6,231.5,344.1,244.3,337.9,259.8z"></path> <path style="fill:#FFFFFF;" d="M213.9,197.6c-0.4,0.4-0.8,1.6-0.8,2.3c0.8,0.4,1.6,0.8,2.3,0.8c3.5-0.8,6.6-1.6,10.1-2.3 c0.8,0,1.2-0.8,2.3-1.6c-1.2-0.8-1.9-1.6-2.3-1.6C221.3,194.5,217.4,195.7,213.9,197.6z"></path> <path style="fill:#FFFFFF;" d="M229.8,318.5c-6.6,0-13.2,0-20.2,0c-1.2,0-2.3,0-2.3,1.6s1.2,1.6,2.3,1.6c3.5,0,6.6,0,10.1,0 c3.5,0,6.6,0,10.1,0c1.2,0,2.7,0,2.7-1.9C232.2,318.5,231,318.5,229.8,318.5z"></path> </g> </svg> 