<?xml version="1.0" encoding="UTF-8"?> <!-- Generator: Adobe Illustrator 24.1.2, SVG Export Plug-In . SVG Version: 6.00 Build 0) --> <svg xmlns="http://www.w3.org/2000/svg" xmlns:xlink="http://www.w3.org/1999/xlink" version="1.1" id="Layer_1" x="0px" y="0px" viewBox="0 0 100 100" style="enable-background:new 0 0 100 100;" xml:space="preserve"> <path style="fill:#FFFFFF;" d="M94.6,66.5c-1.4-2.7-4.4-4.4-7.4-4.4c-1.3-2.8-4.1-4.8-7.3-4.9V34c5.7,0.2,3.6-8.6,4-12 c0-2.5-2.3-4.2-4.7-4C80.7,4,66.2,0.7,57.7,10c-2.7-1.2-7.1-1.2-9.8,0c-2.3-3.9-15.2-8.4-16.4-2.6c2.9,2.1,8.2-2.8,14.4,4.4 c-1.3,1.6-1.1,4.3-1.1,6.3H29.1c0.1-1.3,0.2-5.1,0.7-6.3c0.6-1.6-1.9-2.5-2.5-0.9c-0.7,1.6-0.6,5.5-0.8,7.2c-2.4-0.3-4.7,1.4-4.7,4 c0.4,3.4-1.8,12.1,4,12v23.5c-2.5,0.7-4.6,1.8-6.1,2.8c0.7-5.5-8.9-3-11.7-3.6c-1.7,0-3.1,1.4-3.1,3.1v14.4c0,1.7,2.7,1.7,2.6,0 c0,0,0-14.4,0-14.4c-0.4-1,8.8-0.2,9.1-0.4c0.2,0,0.4,0.2,0.4,0.4v29.9c0.4,1-8.8,0.2-9.1,0.4c-1,0.5-0.2-9.5-0.4-9.7 c0-1.7-2.7-1.7-2.6,0c0,0,0,9.3,0,9.3c-0.2,5,9,2.5,11.7,3.1c3.1,0,3.3-3.5,3.1-5.8C43.7,97.3,48,98.9,71,84.9 c1.5-0.8,0.2-3.2-1.3-2.3c-23.2,14.2-26.1,11.6-50.1,1.6V63.7c10.6-10,28.2-0.8,36.8,4.6c3.2,1.5,4.5,7,1.1,8.9 c-0.5,1.2-18.4-9.2-19.2-9.3c-1.5-0.8-2.8,1.6-1.2,2.3c0,0,17.5,9.2,17.5,9.2c3.1,3.2,26.8-13.1,29.9-13.9c3.2-2.5,10.9,1.9,6.9,5.4 c0,0-16.3,8.8-16.3,8.8c-1.5,0.8-0.2,3.2,1.3,2.3c0,0,16.3-8.8,16.3-8.8C95,71.8,95.9,68.9,94.6,66.5L94.6,66.5z M81.3,22 c-0.4,1.2,1.2,9.6-1.3,9.3c0,0-7.1,0-7.1,0c-1.7,0-1.7,2.7,0,2.6c0,0,4.4,0,4.4,0v23.5c-0.3-0.3-15.7,8.4-16.5,8.7V34 c1.2-0.4,7.4,1.1,7.3-1.3c0.2-2.4-6.1-0.9-7.3-1.3V20.7C61.7,21.3,82.3,19.3,81.3,22L81.3,22z M47.5,20.7h10.7v10.6H47.5V20.7z M70.8,7.6c5.2,0.6,5.8,6.3,5.8,10.5H60.8c0-2,0.2-4.7-1.1-6.3C62.4,8.5,66.6,6.9,70.8,7.6z M54.8,11.9c3.4-0.1,3.6,3.7,3.3,6.2 H47.5C46.9,11.9,49.5,11.6,54.8,11.9z M24.4,30c0.4-1.2-1.1-9.6,1.3-9.3c0,0,19.2,0,19.2,0v10.6C44,30.8,23.4,32.7,24.4,30L24.4,30z M31.4,56.7c-1.1,0-2.1,0.1-3.1,0.2V34h16.5v25.2C40.8,57.1,38.2,56.8,31.4,56.7L31.4,56.7z M47.5,60.5V34h10.7v32.2 C57.1,65.6,52.3,63,47.5,60.5L47.5,60.5z M62,74.7c0.3-1.9-0.1-3.9-1-5.6l15.8-8.6c2.6-1.5,6.1-0.5,7.6,2c-0.4,0.1-0.8,0.3-1.2,0.5 L62,74.7z M62,74.7"></path> <path style="fill:#FFFFFF;" d="M11.8,27.3l3,0.1c0,0,0,0,0,0c0.7,0,1.3-0.6,1.3-1.3c0-0.7-0.6-1.3-1.3-1.4l-3-0.1 c-0.7,0-1.3,0.6-1.4,1.3C10.5,26.7,11,27.3,11.8,27.3L11.8,27.3z M11.8,27.3"></path> <path style="fill:#FFFFFF;" d="M13.1,20.4l2.6,1.6c0.2,0.1,0.5,0.2,0.7,0.2c0.4,0,0.9-0.2,1.1-0.6c0.4-0.6,0.2-1.4-0.4-1.8l-2.6-1.6 c-0.6-0.4-1.4-0.2-1.8,0.4C12.2,19.2,12.4,20,13.1,20.4L13.1,20.4z M13.1,20.4"></path> <path style="fill:#FFFFFF;" d="M15.4,30.2l-2.6,1.4c-0.6,0.4-0.9,1.2-0.5,1.8c0.2,0.4,0.7,0.7,1.2,0.7c0.2,0,0.4-0.1,0.6-0.2 l2.6-1.4c0.6-0.4,0.9-1.2,0.5-1.8C16.9,30.1,16.1,29.8,15.4,30.2L15.4,30.2z M15.4,30.2"></path> <path style="fill:#FFFFFF;" d="M89.5,26.1c0,0.7,0.6,1.3,1.3,1.3c0,0,0,0,0,0l3-0.1c0.7,0,1.3-0.6,1.3-1.4c0-0.7-0.6-1.3-1.4-1.3 l-3,0.1C90.1,24.7,89.5,25.3,89.5,26.1L89.5,26.1z M89.5,26.1"></path> <path style="fill:#FFFFFF;" d="M89.3,22.1c0.2,0,0.5-0.1,0.7-0.2l2.6-1.6c0.6-0.4,0.8-1.2,0.4-1.8c-0.4-0.6-1.2-0.8-1.8-0.4 l-2.6,1.6c-0.6,0.4-0.8,1.2-0.4,1.8C88.5,21.9,88.9,22.1,89.3,22.1L89.3,22.1z M89.3,22.1"></path> <path style="fill:#FFFFFF;" d="M90.2,30.2c-0.6-0.4-1.4-0.1-1.8,0.5c-0.4,0.6-0.1,1.4,0.5,1.8l2.6,1.4c0.2,0.1,0.4,0.2,0.6,0.2 c0.5,0,0.9-0.2,1.2-0.7c0.4-0.6,0.1-1.4-0.5-1.8L90.2,30.2z M90.2,30.2"></path> </svg> 