<?xml version="1.0" encoding="UTF-8"?> <!-- Generator: Adobe Illustrator 24.1.2, SVG Export Plug-In . SVG Version: 6.00 Build 0) --> <svg xmlns="http://www.w3.org/2000/svg" xmlns:xlink="http://www.w3.org/1999/xlink" version="1.1" id="Layer_1" x="0px" y="0px" viewBox="0 0 100 100" style="enable-background:new 0 0 100 100;" xml:space="preserve"> <g> <g> <path style="fill:#FFFFFF;" d="M63,51c0.4-0.1,1-0.4,1.5-0.6c4.4-1.7,8.3-4.1,11.6-7.4c2.7-2.7,4.5-5.9,5.2-9.6 c0.8-4.1-0.1-7.7-3.1-10.7c-2.7-2.8-6.1-4.6-9.8-5.6c-3.3-0.8-6.6-1.2-10-1.1c-9,0.2-17.3,2.7-24.8,7.7c-1.2,0.8-2.4,1.7-3.6,2.5 c-0.8-0.6-0.8-1.9-2.2-2.1c-1.5,0.6-3.1,1.3-4.8,2c-0.1,2.5-0.2,4.9,0.3,7.1c-1.1,1.8-2.1,3.6-3.2,5.4c-1.6,0-3.1,0.6-4.4,1.5 c0,1,0,1.9,0,3.1c0.8,0.1,1.5,0.2,2.2,0.2c0.7,0,1.5,0,1.8,0c1.4,1.9,2.5,3.4,3.6,5c-0.5,2.3-0.2,4.6-0.2,6.9 c1.3,1.3,3.8,1.6,6.1,0.8c0.7-1.4,1.5-2.8,2.3-4.1c3.5,0.5,6.8,1,10.2,1.6c1.5,1.2,1.3,2.9,1.4,4.6c-0.6,0.1-1.1,0.2-1.7,0.3 c0,8.5,0,16.9,0,25.4c1.1,0,2.1,0,3.2,0c0-1.9,0-3.7,0-5.4c0-1.8-0.1-3.6,0.1-5.5c1.5,0,2.7,0,4,0c2.1-0.1,3.5-1.5,3.5-3.6 c0-1.7,0-3.4,0-5.1c0-1.7,0.3-3.5-1.2-5.2c1.2-0.1,2-0.2,3-0.2c0,8.4,0,16.7,0,25.1c3.6,0,6.9,0,10.4,0c0-1,0-2,0-3.1 c-2.4,0-4.7,0-7,0c0-2.9,0-5.6,0-8.5c1.7,0,3.2,0,4.8,0c0-1.1,0-2.1,0-3.2c-1.7,0-3.3,0-4.9,0c0-2.6,0-5,0-7.5 c2.2-0.4,4.5,0.1,6.6-0.3c0-1.1,0-1.9,0-3c-2,0-4,0-5.9,0c0-0.1,0-0.2,0-0.2c1.2-0.5,2.5-0.9,3.7-1.4C62.2,54.8,61.4,52.8,63,51z M48.8,69.3c-1.5,0.6-2.8,0.5-4.2,0.3c0-2.7,0-5.3,0-7.9c1.3-0.3,2.6-0.4,4.1,0.2C49.2,64.3,48.9,66.7,48.8,69.3z M44,57.9 c-0.1-0.6-0.3-1.2-0.4-1.7c-0.1-0.5-0.1-1-0.1-1.6c-0.5-0.6-1-1.3-1.3-1.7c-3.8-0.6-7.4-1.2-11.3-1.8c-0.7,1.3-1.6,2.9-2.5,4.5 c-1.4,0-2.7,0-4.1,0c-1-2-0.3-4-0.5-6c0.7-0.3,1.2-0.5,1.9-0.8c-1.1-0.9-2.3-1.7-3.2-2.7c-0.8-1-1.3-2.2-2.1-3.5c-1.1,0-2.5,0-4,0 c-0.1-0.7-0.1-1.2-0.1-1.7c1.4-1,2.9-1.3,4.2-1.3c1.5-2.4,2.9-4.7,4.3-7.1c-0.2-0.1-0.5-0.3-1-0.6c0-1.6,0-3.3,0-5.1 c1.3-0.5,2.6-1.1,4.1-1.7c0.5,0.9,1.1,1.7,1.7,2.7c0.6-0.4,1.1-0.8,1.6-1.2c11-8.4,23.2-11.3,36.7-8.6c3.6,0.7,6.8,2.6,9.5,5.2 c2.9,3,3.8,6.5,2.9,10.5c-0.7,3.2-2.3,5.9-4.6,8.3c-3.1,3.3-6.8,5.7-11,7.4c-0.9,0.4-1.8,0.7-2.6,1C60.8,52.1,61,54,61,56.1 C55.6,58.4,49.9,58.6,44,57.9z"></path> <path style="fill:#FFFFFF;" d="M92,58.4c0,4.5,0,8.9,0,13.3c-0.1,0-0.2,0-0.3,0c-1.3-4.4-2.6-8.9-3.8-13.3c-1.2,0-2.3,0-3.4,0 c0,8.5,0,16.9,0,25.4c1.1,0,2.1,0,3.2,0c0-1.6,0-3,0-4.5c0-1.5,0-3,0-4.4c0-1.4-0.2-2.8,0.2-4.6c1.4,4.8,2.6,9.2,3.9,13.6 c1.2,0,2.2,0,3.3,0c0-8.6,0-17,0-25.5C94.1,58.4,93.1,58.4,92,58.4z"></path> <path style="fill:#FFFFFF;" d="M35.6,58.3c-1.9,0-3.9,0-5.8,0c-0.4,0-0.7,0.1-1.1,0.2c-0.3,4.3-0.2,24,0.1,25.3c1,0,2,0,3.1,0 c0-3.6,0-7.1,0-10.9c1.4,0,2.6,0,3.8,0c2.4,0,3.8-1.4,3.8-3.8c0-2.3,0-4.6,0-6.8C39.4,59.7,38.2,58.4,35.6,58.3z M36.2,69.2 c-1.4,0.9-2.7,0.5-4.2,0.4c0-2.7,0-5.3,0-8c1.4,0,2.6,0,4,0C36.5,64.2,36.2,66.7,36.2,69.2z"></path> <path style="fill:#FFFFFF;" d="M19.8,80.7c0-2.9,0-5.6,0-8.5c1.7,0,3.2,0,4.8,0c0-1.1,0-2,0-3c-1.6-0.1-3.2-0.1-4.9-0.2 c0-2.6,0-5,0-7.6c2.2,0,4.4-0.1,6.5-0.1c0-1.1,0-2,0-2.9c-3.3,0-6.4,0-9.7,0c-0.4,3.4-0.2,24.1,0.1,25.4c2.2,0.3,9,0.2,10.1-0.1 c0-0.9,0-1.8,0-2.8C24.5,80.7,22.2,81,19.8,80.7z"></path> <path style="fill:#FFFFFF;" d="M8.9,79.3c1.8-5.5,3.5-11,5.3-16.4c0.5-1.4,0.5-2.9,0.3-4.4c-3.1,0-6.2,0-9.2,0c0,1.1,0,2,0,3.1 c2,0,3.8,0,5.9,0c-0.2,0.7-0.4,1.3-0.5,1.8C8.8,68.8,7,74.2,5.2,79.7c-0.5,1.4-0.4,2.8-0.2,4.1c2.5,0.3,8.4,0.2,9.6-0.1 c0-0.9,0-1.8,0-2.9c-2.1,0-4.1,0-6.3,0C8.6,80.1,8.7,79.7,8.9,79.3z"></path> <path style="fill:#FFFFFF;" d="M69.8,58.4c-1.1,0-2.1,0-3.2,0c-0.1,8.5-0.1,17,0,25.4c3.5,0,6.8,0,10.1,0c0-1.1,0-2,0-3.1 c-2.3,0-4.4,0-6.8,0C69.8,73.1,69.8,65.8,69.8,58.4z"></path> <path style="fill:#FFFFFF;" d="M78.8,83.8c1,0,2,0,2.9,0c0-8.6,0-17,0-25.4c-1.1,0-2,0-3,0C78.4,60.5,78.4,82.6,78.8,83.8z"></path> <path style="fill:#FFFFFF;" d="M39.9,25.5c1.1-1,2-1.9,2.9-2.7c-0.4,0.7-0.8,1.4-1.2,2.3c1.6-0.3,3.1-0.6,4.6-0.9 c0.6-0.7,1.1-1.4,1.6-2c0.4-0.4,1-0.8,1.4-1.1c-0.5,0.9-1.1,1.8-1.6,2.6c4.9,0,9.6,0,14.3,0c1-1,1.9-1.9,2.8-2.8 c0.1,0.1,0.1,0.1,0.2,0.2c-0.6,0.9-1.3,1.8-1.9,2.6c3.7,1,7.2,2,10.8,3c0-0.2,0-0.3,0-0.5c-0.4-2.1-1.7-3.6-3.5-4.6 c-3.1-1.9-6.4-3.1-10-3.2c-2.2-0.1-4.3,0.1-6.5,0.3c-8.5,1-16.1,4-22.6,9.6c-0.7,0.6-1.3,1.2-1.9,1.8c1.5-0.8,3-1.7,4.6-2.3 C36,26.9,38.1,26.2,39.9,25.5z"></path> <path style="fill:#FFFFFF;" d="M60.2,33.9c0-2.3,0-4.3,0-6.4c-4.9-0.2-9.6,0.3-14.5,1.2c-0.8,3-0.8,5.9,0.1,8.9 C50.7,36.4,55.5,35.1,60.2,33.9z"></path> <path style="fill:#FFFFFF;" d="M37.9,30.6c-1.2,0.4-2.3,0.8-3.3,1.2c-3,1.2-6,2.6-8.5,4.7c-1.1,1-2.1,2.1-2.7,3.5 c-0.2,0.6-0.3,1.3-0.4,2.2c5.3-0.9,10.2-1.8,14.9-2.8C37.9,36.3,37.9,33.5,37.9,30.6z"></path> <path style="fill:#FFFFFF;" d="M39.4,30.1c-0.7,3.1-0.8,5.9,0.1,8.8c1.7-0.4,3.3-0.7,5-1.1c-0.7-3-0.7-5.9-0.2-8.9 C42.5,29.4,41,29.7,39.4,30.1z"></path> <path style="fill:#FFFFFF;" d="M61.7,33.4c3.7-1.2,7.4-2.4,11.1-3.6c0-0.2,0-0.4,0-0.6c-3.6-1.3-7.4-1.7-11.2-1.8 C60.9,30,60.9,31.6,61.7,33.4z"></path> <path style="fill:#FFFFFF;" d="M47.6,42.1c1.4,2.2,3.1,4.1,5.4,5.2c-0.3-0.4-0.7-0.9-1-1.3c-0.7-0.8-1.4-1.5-2.3-2.5 c4.8-1.1,9.2-2,13.5-4c-0.5-0.8-0.9-1.3-1.3-1.8C57,39.2,52.4,40.7,47.6,42.1z"></path> <path style="fill:#FFFFFF;" d="M63,37.3c1.2,1.6,2,3.1,3.8,3.8c-0.5-0.7-1.1-1.5-1.7-2.2c1.2-0.6,2.3-1.2,3.4-1.8 c1.1-0.6,2.1-1.2,3.2-1.9c0,0.1,0.1,0.1,0.1,0.2c-0.8,1.1-1.5,2.2-2.3,3.3c2.1-0.8,3.6-2.3,5.3-3.6c0-0.8,0-1.6,0-2.3 c-0.3-0.2-0.6-0.4-0.8-0.5C70.4,34,66.7,35.6,63,37.3z"></path> <path style="fill:#FFFFFF;" d="M61.4,36.5c-0.3-0.6-0.5-1.1-0.8-1.6c-4.9,1.3-9.7,2.5-14.6,3.8c0.3,0.7,0.6,1.3,0.9,2.1 C51.9,39.7,56.6,38.4,61.4,36.5z"></path> <path style="fill:#FFFFFF;" d="M46.8,25.4c-0.2,0.6-0.5,1.2-0.7,1.8c5-0.4,9.9-0.8,14.9-1.2c0.1-0.2,0.3-0.6,0.5-1.1 C57.2,24.3,49.7,24.6,46.8,25.4z"></path> <path style="fill:#FFFFFF;" d="M38.4,29.2c0.2-0.7,0.5-1.3,0.7-2c-0.2,0-0.4-0.1-0.6,0C33,29,28.1,31.7,24.3,36.1 c-0.2,0.2-0.3,0.6-0.4,0.9c3-3,6.7-4.9,10.6-6.4C35.7,30.1,37,29.7,38.4,29.2z"></path> <path style="fill:#FFFFFF;" d="M38.5,40.4c-4.8,0.9-9.5,1.8-14.2,2.7c-0.1,0-0.2,0.2-0.6,0.5c5.3,0,10.3-0.4,15.4-1.2 C38.9,41.6,38.7,41.1,38.5,40.4z"></path> <path style="fill:#FFFFFF;" d="M25.2,44.9c0.6,0.5,1.1,0.9,1.7,1.3c1.1,0.1,2.2,0.2,3.3,0.3c0-0.1,0-0.1,0-0.2 c-0.5-0.3-1-0.5-1.7-0.9c4.2-0.2,8.1-0.4,12.2-0.6c-0.4-0.6-0.6-0.9-0.8-1.2C34.8,44.1,30.1,44.5,25.2,44.9z"></path> <path style="fill:#FFFFFF;" d="M73.3,31.4c-0.1-0.1-0.1-0.3-0.2-0.4c-3.7,1.2-7.5,2.4-11.4,3.7c0.2,0.5,0.4,1,0.7,1.5 C66.2,34.7,69.8,33.2,73.3,31.4z"></path> <path style="fill:#FFFFFF;" d="M47.2,49c-0.3-0.3-0.6-0.7-0.9-1c-1-1-2-2.1-3.3-3.4c1.6-0.3,2.7-0.5,4.1-0.8 c-0.4-0.7-0.7-1.1-1-1.6c-1.7,0.3-3.2,0.7-4.8,1C42.7,45.9,44.6,47.8,47.2,49z"></path> <path style="fill:#FFFFFF;" d="M74.2,30.7c0.4,0.9,1.1,1.5,2.3,1.1c0.8-0.8,0.8-1.8,0.4-2.9c-0.4-0.9-1-1.7-2.3-1.4 C73.5,28.6,73.7,29.6,74.2,30.7z"></path> <path style="fill:#FFFFFF;" d="M44.7,39c-1.7,0.4-3.2,0.7-5,1.1c0.4,0.8,0.7,1.4,1,2c1.7-0.5,3.4-0.4,4.9-1.2 C45.2,40.3,45,39.7,44.7,39z"></path> <path style="fill:#FFFFFF;" d="M45.6,25.4c-1.9,0.4-3.4,0.8-5,1.2c-0.3,0.8-0.6,1.5-0.9,2.3c1.8-0.4,3.4-0.8,4.9-1.2 C44.9,27,45.2,26.3,45.6,25.4z"></path> <path style="fill:#FFFFFF;" d="M71.4,27.1c-2.3-0.6-4.6-1.2-6.9-1.8c-0.6-0.2-1.3-0.2-2-0.2c-0.2,0.4-0.3,0.7-0.5,1.2 c1.3,0.1,2.5,0.1,3.7,0.3c2.3,0.4,4.6,0.8,6.9,1.2C72.2,27.6,71.8,27.3,71.4,27.1z"></path> <path style="fill:#FFFFFF;" d="M55.9,52.7c1.3,0,2.6,0,3.9,0c0.2-0.5,0.5-1.1,0.7-1.7C56.8,51.6,56.4,51.7,55.9,52.7z"></path> <path style="fill:#FFFFFF;" d="M46,57c4.4-0.5,8.9-0.9,13.3-1.4C54.8,55.4,50.3,55.8,46,57z"></path> <path style="fill:#FFFFFF;" d="M48.2,53.3c-0.8-0.6-0.8-0.6-4.7-0.4c0.6,0.6,1,1.1,1.4,1.6c1.1-0.3,2.1-0.6,3.1-0.9 C48.1,53.5,48.1,53.4,48.2,53.3z"></path> <path style="fill:#FFFFFF;" d="M77.3,27.6c0.3-0.3,0.6-0.5,0.9-0.7c-0.8-1.5-1.7-2.7-3-3.7c0.4,1.2,0.8,2.4,1.4,3.8 C76.6,27,76.9,27.3,77.3,27.6z"></path> <path style="fill:#FFFFFF;" d="M49.4,53.4c1.8-0.2,3.5-0.4,5.3-0.7c0,0,0-0.2,0.1-0.5c-1.9,0.2-3.8,0.3-5.9,0.5 C49.2,53.1,49.3,53.4,49.4,53.4z"></path> <path style="fill:#FFFFFF;" d="M17.5,41.4c1.5-0.1,2.9-0.3,4.3-0.4c0-0.1,0-0.2,0-0.4C20.3,40.5,18.9,40.3,17.5,41.4z"></path> <path style="fill:#FFFFFF;" d="M25.4,54.3c0,0.1,0,0.1,0,0.2c0.8,0,1.5,0,2.5,0c0.4-0.8,0.8-1.7,1.2-2.5c-0.6,0.6-1.2,1.2-1.9,1.9 C26.7,54,26,54.1,25.4,54.3z"></path> <path style="fill:#FFFFFF;" d="M78.1,31c-0.1,0.5-0.3,1-0.5,1.4c0.1,0,0.2,0.1,0.3,0.1c0.4-0.4,0.8-0.9,1.2-1.3c0-0.5,0-1,0-1.5 C78.1,29.8,78.2,30.4,78.1,31z"></path> <path style="fill:#FFFFFF;" d="M28.6,28.3c0.1-0.1,0.1-0.1,0.2-0.2c-0.4-0.5-0.8-1.1-1.2-1.7c-0.6,0.2-1,0.4-1.8,0.7 c0.8,0.1,1.3,0.2,1.6,0.2C27.8,27.7,28.2,28,28.6,28.3z"></path> <path style="fill:#FFFFFF;" d="M77.9,28.6c0.1,0,0.1,0.1,0.2,0.1c0.2-0.2,0.4-0.3,0.7-0.5c0-0.1-0.1-0.1-0.1-0.2 c-0.1,0-0.3,0-0.4,0.1C78.1,28.3,78,28.5,77.9,28.6z"></path> <path style="fill:#FFFFFF;" d="M76.2,33.8c0.1,0,0.2,0,0.2,0c0-0.2,0.1-0.5,0.1-0.7c-0.1,0-0.3,0-0.4,0 C76.2,33.4,76.2,33.6,76.2,33.8z"></path> <path style="fill:#FFFFFF;" d="M67.3,41.6L67.3,41.6C67.3,41.6,67.3,41.6,67.3,41.6C67.3,41.6,67.3,41.6,67.3,41.6z"></path> <path style="fill:#FFFFFF;" d="M67.3,41.6C67.3,41.7,67.3,41.6,67.3,41.6L67.3,41.6z"></path> <path style="fill:#FFFFFF;" d="M53.2,47.4C53.2,47.4,53.2,47.4,53.2,47.4c-0.1-0.1-0.2-0.1-0.2-0.1c0,0,0.1,0.1,0.1,0.1 C53.1,47.4,53.2,47.4,53.2,47.4z"></path> <path style="fill:#FFFFFF;" d="M53.3,47.4C53.3,47.4,53.2,47.4,53.3,47.4C53.2,47.4,53.2,47.4,53.3,47.4 C53.2,47.4,53.3,47.4,53.3,47.4z"></path> <path style="fill:#FFFFFF;" d="M53.2,47.4C53.2,47.4,53.2,47.4,53.2,47.4C53.3,47.5,53.3,47.5,53.2,47.4z"></path> <path style="fill:#FFFFFF;" d="M29.2,51.8c0,0,0,0.1-0.1,0.1C29.2,51.9,29.2,51.9,29.2,51.8c0.1-0.2,0.2-0.5,0.3-0.7l0,0 C29.4,51.3,29.3,51.6,29.2,51.8z"></path> <path style="fill:#FFFFFF;" d="M47.4,49.1L47.4,49.1C47.3,49,47.2,49,47.2,49c0,0,0,0,0.1,0.1L47.4,49.1z"></path> <path style="fill:#FFFFFF;" d="M67.1,41.6c0,0,0.1,0,0.1,0C67.2,41.6,67.2,41.6,67.1,41.6c-0.1-0.2-0.2-0.3-0.3-0.4c0,0,0,0-0.1,0 c0,0,0,0,0,0.1C66.9,41.3,67,41.5,67.1,41.6z"></path> <path style="fill:#FFFFFF;" d="M69.5,38.8L69.5,38.8c0.1-0.1,0.1-0.1,0.1-0.1C69.6,38.7,69.6,38.7,69.5,38.8L69.5,38.8z"></path> <path style="fill:#FFFFFF;" d="M29.2,30.2c0,0,0.1-0.1,0.1-0.1C29.3,30.1,29.3,30.2,29.2,30.2c-0.2,0.1-0.3,0.2-0.4,0.4l-0.1,0.1 l0.1,0C29,30.5,29.1,30.4,29.2,30.2z"></path> <path style="fill:#FFFFFF;" d="M72.8,27.9C72.8,27.9,72.7,27.9,72.8,27.9c-0.1-0.1-0.2-0.1-0.2-0.1c0,0,0.1,0,0.1,0.1 C72.7,27.9,72.8,27.9,72.8,27.9z"></path> <path style="fill:#FFFFFF;" d="M39.2,27.1L39.2,27.1c-0.1,0.1-0.1,0.1-0.1,0.1c0,0,0,0,0.1,0L39.2,27.1z"></path> <path style="fill:#FFFFFF;" d="M75.2,23.1C75.1,23.1,75.1,23.1,75.2,23.1L75,23L75.2,23.1C75.1,23.1,75.1,23.1,75.2,23.1z"></path> <path style="fill:#FFFFFF;" d="M23.8,37.1c0,0,0-0.1,0.1-0.1C23.8,37,23.8,37,23.8,37.1c-0.2,0.1-0.3,0.2-0.4,0.3c0,0,0,0.1,0,0.1 c0,0,0-0.1,0-0.1C23.5,37.3,23.6,37.2,23.8,37.1z"></path> </g> <path style="fill:#FFFFFF;" d="M43.2,22.3c-0.1,0.1-0.2,0.2-0.3,0.4c0,0,0,0,0,0C43,22.6,43.1,22.5,43.2,22.3 C43.2,22.4,43.2,22.3,43.2,22.3z"></path> <path style="fill:#FFFFFF;" d="M43.2,22.4C43.2,22.4,43.2,22.3,43.2,22.4L43.2,22.4z"></path> <path style="fill:#FFFFFF;" d="M49.7,20.7c-0.1,0.1-0.2,0.2-0.3,0.3c0,0,0,0,0,0C49.5,20.9,49.6,20.8,49.7,20.7L49.7,20.7z"></path> <polygon style="fill:#FFFFFF;" points="49.8,20.7 49.8,20.6 49.7,20.7 "></polygon> </g> </svg> 