<?xml version="1.0" encoding="UTF-8"?> <!-- Generator: Adobe Illustrator 25.0.1, SVG Export Plug-In . SVG Version: 6.00 Build 0) --> <svg xmlns="http://www.w3.org/2000/svg" xmlns:xlink="http://www.w3.org/1999/xlink" version="1.1" x="0px" y="0px" viewBox="0 0 1000 1000" style="enable-background:new 0 0 1000 1000;" xml:space="preserve"> <g id="Layer_1"> <path style="fill:#FFFFFF;" d="M66.9,468.9l112.2,3.2c3.8-44.6,16.6-87.2,37.7-125.9l-95.3-59.1C90.8,341.5,71.5,403.2,66.9,468.9 L66.9,468.9z"></path> <path style="fill:#FFFFFF;" d="M141.2,255.3l95.4,59.1c10.6-15,22.5-29.2,35.8-42.4c18.4-18.4,38.5-34.2,60.1-47.4l-52.7-99 C224.5,158.1,177.2,202.6,141.2,255.3L141.2,255.3z"></path> <path style="fill:#FFFFFF;" d="M481.4,178.2V66c-60.2,2.5-117.2,17.3-168.7,42l52.7,99C401.6,190.3,440.8,180.5,481.4,178.2 L481.4,178.2z"></path> <path style="fill:#FFFFFF;" d="M518.8,178.2c44.7,2.5,87.7,14.2,126.9,34.1l56.4-97c-55.2-29-117.3-46.5-183.3-49.3V178.2 L518.8,178.2z"></path> <path style="fill:#FFFFFF;" d="M727.9,272.1c16.2,16.2,30.4,33.7,42.6,52.4L868,269c-34.1-54.2-79.8-100.3-133.6-134.8l-56.4,97 C695.8,243,712.5,256.6,727.9,272.1L727.9,272.1z"></path> <path style="fill:#FFFFFF;" d="M886.5,301.5L789,357c19.5,39.3,30.7,82.4,32.9,127.2l112.2,1C932,419.2,915,356.9,886.5,301.5 L886.5,301.5z"></path> <path style="fill:#FFFFFF;" d="M228.8,729.6c16.4,0,29.7,13.3,29.7,29.7c0,16.4-13.3,29.7-29.7,29.7c-16.4,0-29.7-13.3-29.7-29.7 C199.1,742.9,212.4,729.6,228.8,729.6L228.8,729.6z M259,861.1l58.2-95.9c-15.9-11-30.9-23.5-44.9-37.5 c-17.6-17.6-32.9-36.9-45.8-57.5l-98.5,53.6C161,778.6,205.8,825.6,259,861.1L259,861.1z"></path> <path style="fill:#FFFFFF;" d="M863.6,737.6l-96.5-57.3c-11.4,16.8-24.5,32.7-39.2,47.4c-16.9,16.9-35.3,31.7-55,44.2l54.6,98 C782,836.4,828.5,791.1,863.6,737.6L863.6,737.6z"></path> <path style="fill:#FFFFFF;" d="M208.5,637.3c-18.7-39.6-29.1-82.9-30.4-127.8l-112.2-3.2c1,66.2,16.7,128.8,44.1,184.6L208.5,637.3 L208.5,637.3z"></path> <path style="fill:#FFFFFF;" d="M694.8,888.2l-54.6-98c-39.4,19.1-82.5,29.9-127.3,31.6L512.2,934 C577.7,932.2,639.6,915.9,694.8,888.2L694.8,888.2z"></path> <path style="fill:#FFFFFF;" d="M821.6,521.6c-3,44.7-15,87.6-35.3,126.5l96.4,57.3c29.6-54.9,47.7-116.9,51.1-182.8L821.6,521.6 L821.6,521.6z"></path> <path style="fill:#FFFFFF;" d="M474.7,933.4l0.8-112.3c-44.7-3.3-87.5-15.8-126.4-36.5l-58.2,95.9 C346,910.9,408.4,929.6,474.7,933.4L474.7,933.4z"></path> <path style="fill:#FFFFFF;" d="M500.1,215.1c-157,0-284.8,127.7-284.8,284.8c0,157,127.7,284.8,284.8,284.8 c157,0,284.8-127.7,284.8-284.8C784.9,342.9,657.1,215.1,500.1,215.1z M454.5,674C357,674,278,595,278,497.5 c0-97.5,79.1-176.6,176.6-176.6c62.9,0,118,32.9,149.3,82.3c-25.9-28.8-63.4-47-105.2-47c-78,0-141.2,63.2-141.2,141.2 c0,78,63.2,141.2,141.2,141.2c41.7,0,79.2-18.1,105.1-46.9C572.4,641.3,517.3,674,454.5,674z M700.3,529.2l-37.1,50.8v-63 l-59.4-19.5l59.4-19.5v-63l37.1,50.8l60.6-19.9l-37.6,51.7l37.6,51.7L700.3,529.2z"></path> </g> <g id="Labels"> </g> </svg> 