<?xml version="1.0" encoding="UTF-8"?> <!-- Generator: Adobe Illustrator 25.0.1, SVG Export Plug-In . SVG Version: 6.00 Build 0) --> <svg xmlns="http://www.w3.org/2000/svg" xmlns:xlink="http://www.w3.org/1999/xlink" version="1.1" id="Layer_1" x="0px" y="0px" viewBox="0 0 200 200" style="enable-background:new 0 0 200 200;" xml:space="preserve"> <g> <path style="fill:#FFFFFF;" d="M177.5,102.5H22.5c-10.3,0-18.7,8.4-18.7,18.7v16c0,10.3,8.4,18.7,18.7,18.7h154.9 c10.3,0,18.7-8.4,18.7-18.7v-16C196.1,110.9,187.8,102.5,177.5,102.5z M190.4,113.7c1-0.6,2.3-0.2,2.9,1.1c0.2,0.6,0.2,1.1,0,1.7 c-0.2,0.6-0.8,1-1.3,1c-0.6,0.2-1.1,0-1.5-0.2c-0.4-0.2-0.8-0.6-1-1C189.1,115.4,189.5,114.3,190.4,113.7z M184.9,108.2 c0.6-1,1.9-1.3,3-0.6c0.6,0.4,0.8,1,0.8,1.5c0,0.6-0.2,1.1-0.6,1.5s-1,0.6-1.5,0.6c-0.6,0-1-0.2-1.3-0.4 C184.5,110.3,184.3,109.2,184.9,108.2z M178,104.8c0.4-0.4,1-0.6,1.7-0.4c1.3,0.2,2.1,1.3,1.7,2.5c-0.4,1.1-1.3,1.7-2.3,1.7 c-1-0.2-1.7-1-1.7-2.1C177.3,105.5,177.5,105.2,178,104.8z M171.4,104c1.1,0,2.1,1,2.1,2.1c0,1.1-1,2.1-2.1,2.1 c-1.1,0-2.1-1-2.1-2.1C169.5,105,170.2,104,171.4,104z M163.6,104c1.1,0,2.1,1,2.1,2.1c0,1.1-1,2.1-2.1,2.1c-1.1,0-2.1-1-2.1-2.1 C161.5,105,162.4,104,163.6,104z M155.6,104c1.1,0,2.1,1,2.1,2.1c0,1.1-1,2.1-2.1,2.1c-1.1,0-2.1-1-2.1-2.1 C153.5,105,154.4,104,155.6,104z M147.6,104c1.1,0,2.1,1,2.1,2.1c0,1.1-1,2.1-2.1,2.1c-1.1,0-2.1-1-2.1-2.1 C145.7,105,146.6,104,147.6,104z M139.8,104c1.1,0,2.1,1,2.1,2.1c0,1.1-1,2.1-2.1,2.1c-1.1,0-2.1-1-2.1-2.1 C137.7,105,138.6,104,139.8,104z M131.8,104c1.1,0,2.1,1,2.1,2.1c0,1.1-1,2.1-2.1,2.1c-1.1,0-2.1-1-2.1-2.1 C129.7,105,130.6,104,131.8,104z M124,104c1.1,0,2.1,1,2.1,2.1c0,1.1-1,2.1-2.1,2.1s-2.1-1-2.1-2.1C121.9,105,122.8,104,124,104z M116,104c1.1,0,2.1,1,2.1,2.1c0,1.1-1,2.1-2.1,2.1s-2.1-1-2.1-2.1C113.9,105,114.8,104,116,104z M108,104c1.1,0,2.1,1,2.1,2.1 c0,1.1-1,2.1-2.1,2.1s-2.1-1-2.1-2.1C105.9,105,106.9,104,108,104z M100.2,104c1.1,0,2.1,1,2.1,2.1c0,1.1-1,2.1-2.1,2.1 s-2.1-1-2.1-2.1C98.1,105,99,104,100.2,104z M92.2,104c1.1,0,2.1,1,2.1,2.1c0,1.1-1,2.1-2.1,2.1s-2.1-1-2.1-2.1 C90.1,105,91.1,104,92.2,104z M84.2,104c1.1,0,2.1,1,2.1,2.1c0,1.1-1,2.1-2.1,2.1s-2.1-1-2.1-2.1C82.3,105,83.1,104,84.2,104z M76.4,104c1.1,0,2.1,1,2.1,2.1c0,1.1-1,2.1-2.1,2.1s-2.1-1-2.1-2.1C74.3,105,75.3,104,76.4,104z M68.4,104c1.1,0,2.1,1,2.1,2.1 c0,1.1-1,2.1-2.1,2.1s-2.1-1-2.1-2.1C66.3,105,67.3,104,68.4,104z M60.6,104c1.1,0,2.1,1,2.1,2.1c0,1.1-1,2.1-2.1,2.1 c-1.1,0-2.1-1-2.1-2.1C58.5,105,59.5,104,60.6,104z M52.6,104c1.1,0,2.1,1,2.1,2.1c0,1.1-1,2.1-2.1,2.1c-1.1,0-2.1-1-2.1-2.1 C50.5,105,51.5,104,52.6,104z M44.6,104c1.1,0,2.1,1,2.1,2.1c0,1.1-1,2.1-2.1,2.1s-2.1-1-2.1-2.1C42.5,105,43.5,104,44.6,104z M36.8,104c1.1,0,2.1,1,2.1,2.1c0,1.1-1,2.1-2.1,2.1s-2.1-1-2.1-2.1C34.7,105,35.7,104,36.8,104z M28.8,104c1.1,0,2.1,1,2.1,2.1 c0,1.1-1,2.1-2.1,2.1s-2.1-1-2.1-2.1C26.7,105,27.7,104,28.8,104z M19.1,105.2c0.4-0.4,1-0.8,1.5-0.8c0.6,0,1.3,0.2,1.7,0.6 c0.4,0.4,0.6,1,0.6,1.5c0,0.6-0.2,1.1-0.6,1.5c-0.4,0.4-0.8,0.6-1.3,0.8c-0.6,0-1-0.2-1.3-0.4c-0.4-0.2-0.8-0.8-1-1.3 C18.7,106.1,18.7,105.5,19.1,105.2z M12.4,107.6c0.2-0.2,0.6-0.4,0.8-0.4c0.4,0,0.6,0,1,0c0.6,0.2,1,0.4,1.3,1 c0.2,0.6,0.4,1.1,0.2,1.5c0,0.2-0.2,0.4-0.2,0.8c-0.2,0.2-0.2,0.4-0.4,0.6c-0.4,0.2-1,0.4-1.3,0.4c-0.6,0-1-0.2-1.5-0.6 c-0.4-0.4-0.6-1-0.6-1.5C11.5,108.6,11.9,107.8,12.4,107.6z M6.9,114.5c0.2-0.6,0.8-1,1.3-1.1s1.1-0.2,1.5,0.2 c0.6,0.4,0.8,0.8,1,1.1c0.2,0.6,0.2,1,0,1.3s-0.6,0.8-1,1c-0.4,0.2-1,0.4-1.5,0.2c-0.6-0.2-1-0.6-1.3-1 C6.7,115.8,6.7,115.3,6.9,114.5z M7.7,121.2c1.1,0,2.1,1,2.1,2.1c0,1.1-1,2.1-2.1,2.1s-2.1-1-2.1-2.1 C5.6,121.9,6.5,121.2,7.7,121.2z M7.7,129c1.1,0,2.1,1,2.1,2.1c0,1.1-1,2.1-2.1,2.1s-2.1-1-2.1-2.1C5.6,129.9,6.5,129,7.7,129z M6.5,140.8c-0.4-0.4-0.8-1-1-1.5c0-0.6,0.2-1.3,0.6-1.7c0.4-0.4,1-0.6,1.5-0.6s1.1,0.2,1.5,0.6c0.4,0.4,0.6,0.8,0.8,1.3 c0,0.6-0.2,1-0.4,1.3c-0.2,0.4-0.8,0.8-1.3,1C7.7,141.1,7.1,141.1,6.5,140.8z M12.6,146.3c0,0.6-0.2,1-0.6,1.5 c-0.4,0.4-1,0.6-1.5,0.6c-0.6,0-1.1-0.4-1.5-1c-0.2-0.2-0.4-0.6-0.4-0.8c0-0.4,0-0.6,0-1c0.2-0.6,0.4-1,1-1.3 c0.6-0.2,1.1-0.4,1.5-0.2c0.2,0,0.4,0.2,0.8,0.2c0.2,0.2,0.4,0.2,0.6,0.4C12.6,145.3,12.8,145.9,12.6,146.3z M18.9,151.6 c-0.2,0.6-0.6,1-1,1.3c-0.6,0.2-1.1,0.2-1.7,0c-0.6-0.2-1-0.8-1.1-1.3c-0.2-0.6-0.2-1.1,0.2-1.5c0.4-0.6,0.8-0.8,1.1-1 c0.6-0.2,1-0.2,1.3,0s0.8,0.6,1,1C18.9,150.7,18.9,151,18.9,151.6z M24.6,154.3c-1.1,0-2.1-1-2.1-2.1c0-1.1,1-2.1,2.1-2.1 s2.1,1,2.1,2.1C26.7,153.3,25.8,154.3,24.6,154.3z M32.6,154.3c-1.1,0-2.1-1-2.1-2.1c0-1.1,1-2.1,2.1-2.1c1.1,0,2.1,1,2.1,2.1 C34.7,153.3,33.8,154.3,32.6,154.3z M40.6,154.3c-1.1,0-2.1-1-2.1-2.1c0-1.1,1-2.1,2.1-2.1c1.1,0,2.1,1,2.1,2.1 C42.5,153.3,41.8,154.3,40.6,154.3z M48.4,154.3c-1.1,0-2.1-1-2.1-2.1c0-1.1,1-2.1,2.1-2.1s2.1,1,2.1,2.1 C50.5,153.3,49.6,154.3,48.4,154.3z M56.4,154.3c-1.1,0-2.1-1-2.1-2.1c0-1.1,1-2.1,2.1-2.1s2.1,1,2.1,2.1 C58.5,153.3,57.6,154.3,56.4,154.3z M64.2,154.3c-1.1,0-2.1-1-2.1-2.1c0-1.1,1-2.1,2.1-2.1s2.1,1,2.1,2.1 C66.3,153.3,65.4,154.3,64.2,154.3z M72.2,154.3c-1.1,0-2.1-1-2.1-2.1c0-1.1,1-2.1,2.1-2.1s2.1,1,2.1,2.1 C74.3,153.3,73.4,154.3,72.2,154.3z M80.2,154.3c-1.1,0-2.1-1-2.1-2.1c0-1.1,1-2.1,2.1-2.1s2.1,1,2.1,2.1 C82.3,153.3,81.3,154.3,80.2,154.3z M88,154.3c-1.1,0-2.1-1-2.1-2.1c0-1.1,1-2.1,2.1-2.1c1.1,0,2.1,1,2.1,2.1 C90.1,153.3,89.1,154.3,88,154.3z M96,154.3c-1.1,0-2.1-1-2.1-2.1c0-1.1,1-2.1,2.1-2.1s2.1,1,2.1,2.1 C98.1,153.3,97.1,154.3,96,154.3z M104,154.3c-1.1,0-2.1-1-2.1-2.1c0-1.1,1-2.1,2.1-2.1s2.1,1,2.1,2.1 C105.9,153.3,105.1,154.3,104,154.3z M111.8,154.3c-1.1,0-2.1-1-2.1-2.1c0-1.1,1-2.1,2.1-2.1s2.1,1,2.1,2.1 C113.9,153.3,112.9,154.3,111.8,154.3z M119.8,154.3c-1.1,0-2.1-1-2.1-2.1c0-1.1,1-2.1,2.1-2.1s2.1,1,2.1,2.1 C121.9,153.3,120.9,154.3,119.8,154.3z M127.8,154.3c-1.1,0-2.1-1-2.1-2.1c0-1.1,1-2.1,2.1-2.1s2.1,1,2.1,2.1 C129.7,153.3,128.9,154.3,127.8,154.3z M135.6,154.3c-1.1,0-2.1-1-2.1-2.1c0-1.1,1-2.1,2.1-2.1c1.1,0,2.1,1,2.1,2.1 C137.7,153.3,136.7,154.3,135.6,154.3z M143.6,154.3c-1.1,0-2.1-1-2.1-2.1c0-1.1,1-2.1,2.1-2.1c1.1,0,2.1,1,2.1,2.1 C145.7,153.3,144.7,154.3,143.6,154.3z M151.4,154.3c-1.1,0-2.1-1-2.1-2.1c0-1.1,1-2.1,2.1-2.1c1.1,0,2.1,1,2.1,2.1 C153.5,153.3,152.5,154.3,151.4,154.3z M159.4,154.3c-1.1,0-2.1-1-2.1-2.1c0-1.1,1-2.1,2.1-2.1s2.1,1,2.1,2.1 C161.5,153.3,160.5,154.3,159.4,154.3z M167.4,154.3c-1.1,0-2.1-1-2.1-2.1c0-1.1,1-2.1,2.1-2.1c1.1,0,2.1,1,2.1,2.1 C169.5,153.3,168.5,154.3,167.4,154.3z M175.2,154.3c-1.1,0-2.1-1-2.1-2.1c0-1.1,1-2.1,2.1-2.1c1.1,0,2.1,1,2.1,2.1 C177.3,153.3,176.3,154.3,175.2,154.3z M183.8,152.9c-1.1,0.6-2.5-0.2-2.7-1.3c-0.2-1.1,0.4-2.1,1.1-2.5c1-0.4,2.1,0,2.7,1 C185.5,151.2,185.1,152.6,183.8,152.9z M177.5,149.3H22.5c-6.7,0-12.2-5.5-12.2-12.2v-16c0-6.7,5.5-12.2,12.2-12.2h154.9 c6.7,0,12.2,5.5,12.2,12.2v16C189.7,143.8,184.1,149.3,177.5,149.3z M191,147.6c-0.4,0.6-1,0.8-1.5,0.8s-1.1-0.2-1.5-0.6 c-0.4-0.4-0.6-1-0.6-1.5c0-0.6,0.2-1,0.4-1.3c0.6-0.8,1.7-1,2.9-0.4C191.4,145.1,191.8,146.7,191,147.6z M194.4,139.4 c-0.2,1.3-1.3,2.1-2.5,1.7c-1.1-0.4-1.7-1.3-1.7-2.3c0.2-0.6,0.4-1,0.8-1.1c0.4-0.4,1-0.6,1.5-0.6s1.1,0.2,1.3,0.6 C194.2,138.1,194.4,138.9,194.4,139.4z M192.5,133.3c-1.1,0-2.1-1-2.1-2.1c0-1.1,1-2.1,2.1-2.1c1.1,0,2.1,1,2.1,2.1 C194.6,132.4,193.7,133.3,192.5,133.3z M192.5,125.3c-1.1,0-2.1-1-2.1-2.1c0-1.1,1-2.1,2.1-2.1c1.1,0,2.1,1,2.1,2.1 C194.6,124.4,193.7,125.3,192.5,125.3z"></path> <g> <path style="fill:#FFFFFF;" d="M67.3,121.2c0,0.6-0.8,6.9-1.5,9.3l-0.6,2.5h4.2l-0.6-2.5C68,127.8,67.4,121.5,67.3,121.2z"></path> <path style="fill:#FFFFFF;" d="M159.8,119.6c-2.3,0-4,0.8-4,2.9v13.3c0,2.1,1.9,2.9,4,2.9c2.3,0,4-0.8,4-2.9v-13.3 C164,120.4,162.1,119.6,159.8,119.6z"></path> <path style="fill:#FFFFFF;" d="M177.5,109.9H22.5c-6.1,0-11,4.9-11,11v16c0,6.1,4.9,11,11,11h154.9c6.1,0,11-4.9,11-11v-16 C188.5,115.1,183.6,109.9,177.5,109.9z M53.2,123.2c0,1-0.4,1.3-1.3,1.3h-4.6c-1,0-1.3-0.4-1.3-1.3v-0.8c0-2.1-1.5-2.9-3.8-2.9 s-3.8,0.8-3.8,2.9v13.3c0,2.1,1.5,2.9,3.8,2.9s3.8-0.8,3.8-2.9v-1.5c0-1,0.4-1.3,1.3-1.3h4.6c1,0,1.3,0.4,1.3,1.3v2.7 c0,3.8-2.7,7.6-11,7.6s-11-3.8-11-7.6v-15.8c0-3.8,2.7-7.6,11-7.6s11,3.8,11,7.6V123.2z M78.7,144.4h-4.9c-1,0-1.3-0.6-1.5-1.3 l-1.3-4.4h-7.4l-1.1,4.4c-0.2,0.8-0.6,1.3-1.5,1.3h-4.6c-1,0-1.3-0.6-1-1.3l8.2-27.8c0.2-1,0.8-1.3,1.7-1.3h4.8 c1,0,1.3,0.4,1.7,1.3l8.2,27.8C80,143.8,79.6,144.4,78.7,144.4z M103.6,137c0,3.8-2.7,7.6-11.2,7.6c-8.4,0-11.2-3.8-11.2-7.6v-3 c0-1,0.4-1.3,1.3-1.3h4.6c1,0,1.3,0.4,1.3,1.3v2.1c0,2.1,1.7,2.9,4,2.9s4-0.8,4-2.9v-1c0-1.5-2.1-2.3-3.8-3l-6.5-2.3 c-2.3-0.8-4.2-3.4-4.2-5.9v-2.7c0-3.8,2.3-7.6,10.7-7.6s10.9,3.8,10.9,7.6v1.7c0,1-0.4,1.3-1.3,1.3h-4.6c-1,0-1.3-0.4-1.3-1.3 v-0.8c0-2.1-1.5-2.9-3.4-2.9c-1.9,0-3.6,0.8-3.6,2.9v0.4c0,1.1,1,1.7,1.5,1.9l7.6,2.5c3.2,1.1,5.5,3.4,5.5,6.9v3.2H103.6z M115.2,143c0,1-0.4,1.3-1.3,1.3h-4.8c-1,0-1.3-0.4-1.3-1.3v-27.8c0-1,0.4-1.3,1.3-1.3h4.8c1,0,1.3,0.4,1.3,1.3V143z M143.6,143 c0,1-0.4,1.3-1.3,1.3h-4.4c-0.8,0-1-0.2-1.1-0.6l-7.2-12c-0.8-1.1-1.5-2.9-1.9-4V143c0,1-0.4,1.3-1.3,1.3h-4.4 c-1,0-1.3-0.4-1.3-1.3v-27.8c0-1,0.4-1.3,1.3-1.3h4.4c0.6,0,1,0.2,1.1,0.6l7.6,12.8c0.6,1,1.1,2.3,1.5,3.4v-15.2 c0-1,0.4-1.3,1.3-1.3h4.4c1,0,1.3,0.4,1.3,1.3V143z M171.4,137c0,3.8-3,7.6-11.4,7.6s-11.4-3.8-11.4-7.6v-15.8 c0-3.8,3-7.6,11.4-7.6s11.4,3.8,11.4,7.6V137z"></path> </g> </g> <g> <path style="fill:#FFFFFF;" d="M147.6,40.3c-2.4-0.4-4.7,1.2-5.2,3.6c-0.3,1.8,0.5,3.6,2,4.5l-5.6,31.6l-1.3-0.5v18.9V54 c0-18.4-19.9-33.4-44.5-33.4c-24.6,0-44.5,14.9-44.5,33.4v44.5v5.1h89V92.9l5.6-2.2v-8.9l-1.1-0.5l5.7-32.3 c1.7-0.4,3.1-1.7,3.5-3.6C151.7,43,150,40.7,147.6,40.3z M56.6,46.6C61.7,35.9,76.4,28,93.2,28c16.8,0,31.5,8,36.5,18.7H56.6z M126.5,49.8c0,1.2-1,2.1-2.2,2.1c-1.2,0-2.2-0.9-2.2-2.1c0-1.2,1-2.1,2.2-2.1C125.5,47.7,126.5,48.7,126.5,49.8z M117.6,49.8 c0,1.2-1,2.1-2.2,2.1c-1.2,0-2.2-0.9-2.2-2.1c0-1.2,1-2.1,2.2-2.1C116.6,47.7,117.6,48.7,117.6,49.8z M108.7,49.8 c0,1.2-1,2.1-2.2,2.1c-1.2,0-2.2-0.9-2.2-2.1c0-1.2,1-2.1,2.2-2.1C107.7,47.7,108.7,48.7,108.7,49.8z M99.8,49.8 c0,1.2-1,2.1-2.2,2.1c-1.2,0-2.2-0.9-2.2-2.1c0-1.2,1-2.1,2.2-2.1C98.8,47.7,99.8,48.7,99.8,49.8z M91,49.8c0,1.2-1,2.1-2.2,2.1 c-1.2,0-2.2-0.9-2.2-2.1c0-1.2,1-2.1,2.2-2.1C90,47.7,91,48.7,91,49.8z M82.1,49.8c0,1.2-1,2.1-2.2,2.1c-1.2,0-2.2-0.9-2.2-2.1 c0-1.2,1-2.1,2.2-2.1C81.1,47.7,82.1,48.7,82.1,49.8z M73.2,49.8c0,1.2-1,2.1-2.2,2.1c-1.2,0-2.2-0.9-2.2-2.1c0-1.2,1-2.1,2.2-2.1 C72.2,47.7,73.2,48.7,73.2,49.8z M64.3,49.8c0,1.2-1,2.1-2.2,2.1c-1.2,0-2.2-0.9-2.2-2.1c0-1.2,1-2.1,2.2-2.1 C63.3,47.7,64.3,48.7,64.3,49.8z M133.7,47.7c1.2,0,2.1,0.9,2.1,2.1c0,1.2-0.9,2.1-2.1,2.1c-1.2,0-2.1-0.9-2.1-2.1 C131.6,48.7,132.6,47.7,133.7,47.7z M128.8,39.7c0.9-0.8,2.2-0.5,3,0.5c0.8,1,0.4,2.4-0.6,3c-1,0.6-2.2,0.2-2.8-0.6 C127.7,41.8,127.9,40.5,128.8,39.7z M122.8,33.9c0.7-0.9,2-1.1,3-0.3c1,0.8,1,2.2,0.2,3c-0.8,0.8-2.1,0.8-2.9,0.2 C122.2,36.2,122.1,34.9,122.8,33.9z M115.6,29.6c0.5-1,1.8-1.5,2.9-0.9c1.1,0.6,1.4,1.9,0.8,2.9c-0.6,1-1.9,1.4-2.8,0.8 C115.5,31.9,115.1,30.7,115.6,29.6z M107.7,26.7c0.3-1.1,1.5-1.7,2.6-1.4c1.2,0.3,1.8,1.6,1.3,2.7c-0.4,1.1-1.6,1.6-2.6,1.3 C108,29,107.4,27.8,107.7,26.7z M99.5,25.1c0.1-1.1,1.2-2,2.4-1.8c1.2,0.2,2,1.3,1.8,2.4c-0.2,1.1-1.3,1.9-2.4,1.7 C100.2,27.3,99.3,26.3,99.5,25.1z M93.2,22.7c1.2,0,2.2,1,2.1,2.2c-0.1,1.2-1,2.1-2.1,2c-1.1,0-2-0.9-2.1-2 C91,23.7,92,22.7,93.2,22.7z M84.5,23.3c1.2-0.2,2.3,0.7,2.4,1.8c0.1,1.2-0.7,2.1-1.8,2.3c-1.1,0.2-2.2-0.6-2.4-1.7 C82.5,24.6,83.3,23.5,84.5,23.3z M76,25.3c1.2-0.4,2.3,0.3,2.6,1.4c0.3,1.1-0.3,2.3-1.4,2.6c-1.1,0.3-2.2-0.2-2.6-1.3 C74.2,26.9,74.8,25.7,76,25.3z M67.9,28.7c1.1-0.6,2.4-0.1,2.9,0.9c0.5,1.1,0.1,2.3-0.9,2.8c-1,0.5-2.2,0.2-2.8-0.8 C66.5,30.6,66.8,29.3,67.9,28.7z M60.6,33.6c1-0.8,2.3-0.7,3,0.3c0.7,0.9,0.6,2.2-0.3,2.9c-0.9,0.7-2.1,0.7-2.9-0.2 C59.6,35.9,59.6,34.4,60.6,33.6z M54.6,40.3c0.7-1,2-1.3,3-0.5c0.9,0.7,1.1,2,0.5,2.9c-0.6,0.8-1.8,1.2-2.8,0.6 C54.2,42.7,53.8,41.3,54.6,40.3z M52.6,47.7c1.2,0,2.1,0.9,2.1,2.1c0,1.2-0.9,2.1-2.1,2.1c-1.2,0-2.1-0.9-2.1-2.1 C50.5,48.7,51.5,47.7,52.6,47.7z M56.5,92.9V59.5h22.2v33.4H56.5z M82.1,92.9V59.5h22.2v33.4H82.1z M107.6,92.9V59.5h22.2v33.4 H107.6z"></path> <path style="fill:#FFFFFF;" d="M91.2,66.7l0.3-1.4h-3.3L86,74.1h3.1l0.7-1.6c0.3-0.7,0.3-0.8,2.5-0.8h2.6c-1,2-1.8,3.4-4.1,7 c-2.2,3.7-2.7,4.6-2.7,5.8c0,1.5,1,2.6,2.6,2.6c2.1,0,2.9-1.7,3.5-3.2c2.3-6.7,2.6-7.5,6.1-14.7l0.1-0.2v-2.3h-8.5 C91.6,66.7,91.3,66.7,91.2,66.7z"></path> <path style="fill:#FFFFFF;" d="M65.6,66.7l0.3-1.4h-3.3l-2.3,8.8h3.1l0.7-1.6c0.3-0.7,0.3-0.8,2.5-0.8h2.6c-1,2-1.8,3.4-4.1,7 c-2.2,3.7-2.7,4.6-2.7,5.8c0,1.5,1,2.6,2.6,2.6c2.1,0,2.9-1.7,3.5-3.2c2.3-6.7,2.6-7.5,6.1-14.7l0.1-0.2v-2.3h-8.5 C66,66.7,65.8,66.7,65.6,66.7z"></path> <path style="fill:#FFFFFF;" d="M116.8,66.7c0,0,0.3-1.4,0.3-1.4h-3.3l-2.3,8.8h3.1l0.7-1.6c0.3-0.7,0.3-0.8,2.5-0.8h2.6 c-1,2-1.8,3.4-4.1,7c-2.2,3.7-2.7,4.6-2.7,5.8c0,1.5,1,2.6,2.6,2.6c2.1,0,2.9-1.7,3.5-3.2c2.3-6.7,2.6-7.5,6.1-14.7L126,69v-2.3 h-8.5C117.1,66.7,116.9,66.7,116.8,66.7z"></path> <path style="fill:#FFFFFF;" d="M106.4,37.5c-1.3,0-2.1,1-2.1,2.6c0,1.3,0.7,2.7,2.1,2.7c1.3,0,2.2-1,2.2-2.7 C108.6,38.9,107.8,37.5,106.4,37.5z"></path> <path style="fill:#FFFFFF;" d="M93.2,28.6c-15.6,0-30.1,7.1-35.6,17.5h71.1C123.3,35.7,108.8,28.6,93.2,28.6z M117.2,37.7h-2.3v6.7 H113v-6.7h-2.3V36h6.5V37.7z M106.4,44.5c-2.3,0-4-1.8-4-4.3c0-2.6,1.6-4.3,4-4.3c2.3,0,4,1.8,4,4.3 C110.4,42.7,108.7,44.5,106.4,44.5z M86.9,43.9c-0.7,0.4-1.4,0.6-2.3,0.6c-2.2,0-3.7-1.7-3.7-4.3c0-2.6,1.6-4.3,3.9-4.3 c0.7,0,1.4,0.1,2,0.4l0.3,0.2L86.4,38l-0.4-0.2c-0.3-0.2-0.7-0.3-1.4-0.3c-1.3,0-2,1-2,2.6c0,1.6,0.8,2.6,2,2.6 c0.6,0,1.1-0.2,1.5-0.4l0.4-0.2l0.6,1.6L86.9,43.9z M90.3,44.4h-1.8V36h1.8v2.9l2.8-3.1l1.3,1.2l-3,3.1l3.4,3.3l-1.3,1.3l-3.3-3.2 V44.4z M97.6,41.5v2.8h-1.8V36l0.3,0c0.7-0.1,1.4-0.1,2.1-0.1c2,0,3.4,1.1,3.4,2.7c0,1.8-1.4,2.9-3.6,2.9 C97.9,41.5,97.7,41.5,97.6,41.5z M78.9,44.6L78,42.3h-3l-0.9,2.3l-1.6-0.7l3.2-7.9h1.7l3.2,7.9L78.9,44.6z M69.1,44.5 c-0.7,0-1.5-0.3-1.9-0.7L67,43.5l0.9-1.5l0.3,0.4c0.2,0.3,0.6,0.4,0.9,0.4c0.2,0,0.7,0,0.7-1.2V36h1.8v5.5 C71.6,43.4,70.7,44.5,69.1,44.5z"></path> <polygon style="fill:#FFFFFF;" points="75.6,40.7 77.3,40.7 76.5,38.5 "></polygon> <path style="fill:#FFFFFF;" d="M98.3,37.5c-0.2,0-0.5,0-0.7,0v2.3c0.2,0,0.4,0,0.6,0c0.5,0,1.6-0.1,1.6-1.2 C99.8,37.7,98.8,37.5,98.3,37.5z"></path> </g> </svg> 