<?xml version="1.0" encoding="UTF-8"?> <!-- Generator: Adobe Illustrator 25.0.1, SVG Export Plug-In . SVG Version: 6.00 Build 0) --> <svg xmlns="http://www.w3.org/2000/svg" xmlns:xlink="http://www.w3.org/1999/xlink" version="1.1" id="Layer_1" x="0px" y="0px" viewBox="0 0 500 500" style="enable-background:new 0 0 500 500;" xml:space="preserve"> <g> <path style="fill:#FFFFFF;" d="M20.92,313.32c122.8-12.22,244.71-24.35,366.62-36.48c-0.01-0.13-0.03-0.26-0.04-0.38 c-119.48,0-238.95,0-358.95,0C26.06,288.52,23.6,300.4,20.92,313.32z M228.96,224.56c-32.88,0-64.84,0-97.16,0 c-2.63,12.59-5.22,24.99-7.89,37.72c32.81,0,65.02,0,97.49,0C223.91,249.73,226.37,237.43,228.96,224.56z M231.49,211.47 c2.56-12.6,5.09-25.02,7.69-37.76c-32.62,0-64.66,0-96.91,0c-2.6,12.64-5.14,25.02-7.77,37.76 C167.14,211.47,198.97,211.47,231.49,211.47z"></path> <path style="fill:#FFFFFF;" d="M341.86,122.91c1.33,30.93,2.66,61.86,3.98,92.8c0.62,14.52,1.22,29.04,1.81,43.56 c0.04,0.92-0.11,1.84-0.19,3.04c-16.05,0-31.91,0-48.13,0c0-6.27,0-12.44,0-18.92c-6.29,0-12.21,0-18.58,0 c-2.53,6.13-5.16,12.49-7.85,18.99c-15.67,0-31.27,0-47.68,0c21.02-46.8,41.84-93.13,62.65-139.46 C305.86,122.91,323.86,122.91,341.86,122.91z M304.38,179.74c-0.34-0.1-0.67-0.19-1.01-0.29c-3.22,8.2-6.43,16.41-9.75,24.88 c3.53,0,6.43,0,9.61,0C303.63,195.91,304.01,187.83,304.38,179.74z"></path> <path style="fill:#FFFFFF;" d="M459.66,122.91c1.04,0.27,2.08,0.59,3.13,0.79c15.03,2.73,22.83,11.58,22.22,26.72 c-0.55,13.73-3.31,27.29-8.63,39.94c-7.17,17.07-21.58,24.06-39.4,24.75c-8.69,0.34-17.4,0.06-26.34,0.06 c-3.32,15.89-6.57,31.5-9.86,47.22c-15.9,0-31.39,0-47.42,0c1.94-9.64,3.78-19.02,5.72-28.38c5.35-25.88,10.76-51.76,16.11-77.64 c2.3-11.14,4.51-22.3,6.75-33.45C407.85,122.91,433.75,122.91,459.66,122.91z M417.84,179.08c8.23,1.84,12.62-0.64,14.35-7.76 c0.92-3.8,1.83-7.62,2.37-11.48c0.3-2.16-0.19-4.42-0.37-7.34c-3.79-0.39-7.02-0.72-10.65-1.1 C421.56,161.04,419.7,170.07,417.84,179.08z"></path> <path style="fill:#FFFFFF;" d="M108.71,122.91c-1.14,6.52-2.13,13.07-3.46,19.56c-5.55,27.07-11.21,54.12-16.98,81.87 c12.41,0,24.43,0,37.02,0c-2.7,13.03-5.25,25.32-7.86,37.91c-28.53,0-56.92,0-85.81,0c0.98-5.17,1.85-10.18,2.89-15.15 c7.43-35.56,14.9-71.1,22.35-106.66c1.22-5.84,2.39-11.69,3.58-17.53C76.53,122.91,92.62,122.91,108.71,122.91z"></path> <path style="fill:#FFFFFF;" d="M249.42,122.91c-2.54,12.59-5.07,25.19-7.66,38.04c-32.15,0-64.06,0-96.79,0 c2.66-12.78,5.29-25.41,7.92-38.04C185.06,122.91,217.24,122.91,249.42,122.91z"></path> <path style="fill:#FFFFFF;" d="M20.92,313.32c2.68-12.92,5.14-24.8,7.63-36.86c120,0,239.48,0,358.95,0 c0.01,0.13,0.03,0.26,0.04,0.38C265.63,288.98,143.72,301.1,20.92,313.32z"></path> <path style="fill:#FFFFFF;" d="M228.96,224.56c-2.58,12.87-5.05,25.17-7.56,37.72c-32.47,0-64.67,0-97.49,0 c2.66-12.73,5.25-25.13,7.89-37.72C164.11,224.56,196.08,224.56,228.96,224.56z"></path> <path style="fill:#FFFFFF;" d="M231.49,211.47c-32.53,0-64.36,0-96.99,0c2.62-12.75,5.17-25.12,7.77-37.76c32.25,0,64.29,0,96.91,0 C236.59,186.46,234.06,198.87,231.49,211.47z"></path> </g> </svg> 