<?xml version="1.0" encoding="UTF-8"?> <!-- Generator: Adobe Illustrator 25.0.1, SVG Export Plug-In . SVG Version: 6.00 Build 0) --> <svg xmlns="http://www.w3.org/2000/svg" xmlns:xlink="http://www.w3.org/1999/xlink" version="1.1" id="Layer_1" x="0px" y="0px" viewBox="0 0 200 200" style="enable-background:new 0 0 200 200;" xml:space="preserve"> <g> <path style="fill:#FFFFFF;" d="M170.1,97.9H24.5c-9.7,0-17.6,7.9-17.6,17.6v15.1c0,9.7,7.9,17.6,17.6,17.6h145.7 c9.7,0,17.6-7.9,17.6-17.6v-15.1C187.7,105.8,179.8,97.9,170.1,97.9z M182.3,108.5c0.9-0.6,2.2-0.1,2.6,1c0.2,0.6,0.2,1.2,0,1.6 c-0.2,0.5-0.7,0.8-1.2,0.9c-0.5,0.1-1,0-1.5-0.2c-0.4-0.2-0.8-0.5-0.9-1C181,110.1,181.4,109,182.3,108.5z M177.1,103.3 c0.5-0.9,1.8-1.2,2.8-0.4c0.5,0.3,0.7,0.9,0.8,1.4c0.1,0.5-0.1,1-0.5,1.4c-0.4,0.4-0.9,0.6-1.3,0.6c-0.5,0-0.9-0.1-1.3-0.4 C176.8,105.3,176.6,104.2,177.1,103.3z M170.6,100.1c0.4-0.3,1-0.6,1.6-0.4c1.2,0.1,2,1.3,1.7,2.3c-0.3,1-1.3,1.6-2.1,1.5 c-0.9-0.1-1.7-1-1.7-2C170,100.9,170.2,100.4,170.6,100.1z M164.4,99.5c1.1,0,1.9,0.9,1.9,1.9c0,1.1-0.9,1.9-1.9,1.9 c-1.1,0-1.9-0.9-1.9-1.9C162.5,100.3,163.4,99.5,164.4,99.5z M157,99.5c1.1,0,1.9,0.9,1.9,1.9c0,1.1-0.9,1.9-1.9,1.9 c-1.1,0-1.9-0.9-1.9-1.9C155,100.3,155.9,99.5,157,99.5z M149.5,99.5c1.1,0,1.9,0.9,1.9,1.9c0,1.1-0.9,1.9-1.9,1.9 c-1.1,0-1.9-0.9-1.9-1.9C147.6,100.3,148.5,99.5,149.5,99.5z M142.1,99.5c1.1,0,1.9,0.9,1.9,1.9c0,1.1-0.9,1.9-1.9,1.9 c-1.1,0-1.9-0.9-1.9-1.9C140.1,100.3,141,99.5,142.1,99.5z M134.6,99.5c1.1,0,1.9,0.9,1.9,1.9c0,1.1-0.9,1.9-1.9,1.9 c-1.1,0-1.9-0.9-1.9-1.9C132.7,100.3,133.6,99.5,134.6,99.5z M127.2,99.5c1.1,0,1.9,0.9,1.9,1.9c0,1.1-0.9,1.9-1.9,1.9 c-1.1,0-1.9-0.9-1.9-1.9C125.2,100.3,126.1,99.5,127.2,99.5z M119.7,99.5c1.1,0,1.9,0.9,1.9,1.9c0,1.1-0.9,1.9-1.9,1.9 c-1.1,0-1.9-0.9-1.9-1.9C117.8,100.3,118.6,99.5,119.7,99.5z M112.3,99.5c1.1,0,1.9,0.9,1.9,1.9c0,1.1-0.9,1.9-1.9,1.9 c-1.1,0-1.9-0.9-1.9-1.9C110.3,100.3,111.2,99.5,112.3,99.5z M104.8,99.5c1.1,0,1.9,0.9,1.9,1.9c0,1.1-0.9,1.9-1.9,1.9 c-1.1,0-1.9-0.9-1.9-1.9C102.9,100.3,103.7,99.5,104.8,99.5z M97.4,99.5c1.1,0,1.9,0.9,1.9,1.9c0,1.1-0.9,1.9-1.9,1.9 c-1.1,0-1.9-0.9-1.9-1.9C95.4,100.3,96.3,99.5,97.4,99.5z M89.9,99.5c1.1,0,1.9,0.9,1.9,1.9c0,1.1-0.9,1.9-1.9,1.9 c-1.1,0-1.9-0.9-1.9-1.9C88,100.3,88.8,99.5,89.9,99.5z M82.5,99.5c1.1,0,1.9,0.9,1.9,1.9c0,1.1-0.9,1.9-1.9,1.9 c-1.1,0-1.9-0.9-1.9-1.9C80.5,100.3,81.4,99.5,82.5,99.5z M75,99.5c1.1,0,1.9,0.9,1.9,1.9c0,1.1-0.9,1.9-1.9,1.9 c-1.1,0-1.9-0.9-1.9-1.9C73.1,100.3,73.9,99.5,75,99.5z M67.5,99.5c1.1,0,1.9,0.9,1.9,1.9c0,1.1-0.9,1.9-1.9,1.9 c-1.1,0-1.9-0.9-1.9-1.9C65.6,100.3,66.5,99.5,67.5,99.5z M60.1,99.5c1.1,0,1.9,0.9,1.9,1.9c0,1.1-0.9,1.9-1.9,1.9 c-1.1,0-1.9-0.9-1.9-1.9C58.2,100.3,59,99.5,60.1,99.5z M52.6,99.5c1.1,0,1.9,0.9,1.9,1.9c0,1.1-0.9,1.9-1.9,1.9 c-1.1,0-1.9-0.9-1.9-1.9C50.7,100.3,51.6,99.5,52.6,99.5z M45.2,99.5c1.1,0,1.9,0.9,1.9,1.9c0,1.1-0.9,1.9-1.9,1.9 c-1.1,0-1.9-0.9-1.9-1.9C43.2,100.3,44.1,99.5,45.2,99.5z M37.7,99.5c1.1,0,1.9,0.9,1.9,1.9c0,1.1-0.9,1.9-1.9,1.9 c-1.1,0-1.9-0.9-1.9-1.9C35.8,100.3,36.7,99.5,37.7,99.5z M30.3,99.5c1.1,0,1.9,0.9,1.9,1.9c0,1.1-0.9,1.9-1.9,1.9 c-1.1,0-1.9-0.9-1.9-1.9C28.3,100.3,29.2,99.5,30.3,99.5z M21.2,100.4c0.3-0.4,0.8-0.7,1.4-0.8c0.6-0.1,1.2,0.1,1.6,0.5 c0.4,0.3,0.6,0.8,0.6,1.4c0,0.5-0.2,1-0.5,1.4c-0.3,0.4-0.7,0.6-1.2,0.6c-0.5,0.1-0.9-0.1-1.3-0.4c-0.4-0.3-0.7-0.7-0.8-1.2 C20.8,101.4,20.9,100.8,21.2,100.4z M14.8,102.7c0.2-0.2,0.5-0.3,0.8-0.4c0.3-0.1,0.6-0.1,0.8,0c0.5,0.1,0.9,0.4,1.2,0.9 c0.3,0.5,0.3,1,0.2,1.5c0,0.2-0.1,0.4-0.2,0.6c-0.1,0.2-0.3,0.4-0.4,0.5c-0.4,0.3-0.8,0.4-1.3,0.3c-0.5,0-1-0.2-1.3-0.6 c-0.4-0.4-0.6-0.9-0.5-1.4C14.1,103.6,14.3,103.1,14.8,102.7z M9.7,109.3c0.3-0.6,0.7-1,1.2-1.1c0.5-0.2,1-0.1,1.5,0.2 c0.5,0.3,0.8,0.7,0.9,1.1c0.2,0.5,0.2,0.9,0,1.3c-0.2,0.4-0.5,0.7-0.9,0.9c-0.4,0.2-0.9,0.3-1.4,0.1c-0.5-0.1-0.9-0.5-1.2-1 C9.5,110.5,9.5,109.9,9.7,109.3z M10.4,115.4c1.1,0,1.9,0.9,1.9,1.9c0,1.1-0.9,1.9-1.9,1.9c-1.1,0-1.9-0.9-1.9-1.9 C8.4,116.3,9.3,115.4,10.4,115.4z M10.4,122.9c1.1,0,1.9,0.9,1.9,1.9c0,1.1-0.9,1.9-1.9,1.9c-1.1,0-1.9-0.9-1.9-1.9 C8.4,123.8,9.3,122.9,10.4,122.9z M9.4,133.9c-0.4-0.3-0.7-0.8-0.8-1.4c-0.1-0.6,0.1-1.2,0.5-1.6c0.3-0.4,0.8-0.6,1.4-0.6 c0.5,0,1,0.2,1.4,0.5c0.4,0.3,0.6,0.7,0.6,1.2c0.1,0.5-0.1,0.9-0.4,1.3c-0.3,0.4-0.7,0.7-1.2,0.8C10.3,134.3,9.8,134.2,9.4,133.9z M15.1,139.2c0,0.5-0.2,1-0.6,1.3c-0.4,0.4-0.9,0.6-1.4,0.5c-0.5,0-1.1-0.3-1.4-0.8c-0.2-0.2-0.3-0.5-0.4-0.8 c-0.1-0.3-0.1-0.6,0-0.8c0.1-0.5,0.4-0.9,0.9-1.2c0.5-0.3,1-0.3,1.5-0.2c0.2,0,0.4,0.1,0.6,0.2c0.2,0.1,0.4,0.2,0.5,0.4 C15.1,138.3,15.2,138.7,15.1,139.2z M20.9,144.2c-0.1,0.5-0.5,0.9-0.9,1.2c-0.5,0.2-1.1,0.2-1.6,0c-0.6-0.2-1-0.7-1.1-1.2 c-0.2-0.5-0.1-1,0.2-1.5c0.3-0.5,0.7-0.8,1.1-0.9c0.5-0.2,0.9-0.2,1.3,0c0.4,0.2,0.7,0.5,0.9,0.9C21,143.2,21.1,143.7,20.9,144.2z M26.4,146.6c-1.1,0-1.9-0.9-1.9-1.9c0-1.1,0.9-1.9,1.9-1.9c1.1,0,1.9,0.9,1.9,1.9C28.3,145.7,27.5,146.6,26.4,146.6z M33.9,146.6 c-1.1,0-1.9-0.9-1.9-1.9c0-1.1,0.9-1.9,1.9-1.9c1.1,0,1.9,0.9,1.9,1.9C35.8,145.7,34.9,146.6,33.9,146.6z M41.3,146.6 c-1.1,0-1.9-0.9-1.9-1.9c0-1.1,0.9-1.9,1.9-1.9c1.1,0,1.9,0.9,1.9,1.9C43.2,145.7,42.4,146.6,41.3,146.6z M48.8,146.6 c-1.1,0-1.9-0.9-1.9-1.9c0-1.1,0.9-1.9,1.9-1.9c1.1,0,1.9,0.9,1.9,1.9C50.7,145.7,49.8,146.6,48.8,146.6z M56.2,146.6 c-1.1,0-1.9-0.9-1.9-1.9c0-1.1,0.9-1.9,1.9-1.9c1.1,0,1.9,0.9,1.9,1.9C58.2,145.7,57.3,146.6,56.2,146.6z M63.7,146.6 c-1.1,0-1.9-0.9-1.9-1.9c0-1.1,0.9-1.9,1.9-1.9c1.1,0,1.9,0.9,1.9,1.9C65.6,145.7,64.7,146.6,63.7,146.6z M71.1,146.6 c-1.1,0-1.9-0.9-1.9-1.9c0-1.1,0.9-1.9,1.9-1.9c1.1,0,1.9,0.9,1.9,1.9C73.1,145.7,72.2,146.6,71.1,146.6z M78.6,146.6 c-1.1,0-1.9-0.9-1.9-1.9c0-1.1,0.9-1.9,1.9-1.9c1.1,0,1.9,0.9,1.9,1.9C80.5,145.7,79.6,146.6,78.6,146.6z M86,146.6 c-1.1,0-1.9-0.9-1.9-1.9c0-1.1,0.9-1.9,1.9-1.9c1.1,0,1.9,0.9,1.9,1.9C88,145.7,87.1,146.6,86,146.6z M93.5,146.6 c-1.1,0-1.9-0.9-1.9-1.9c0-1.1,0.9-1.9,1.9-1.9c1.1,0,1.9,0.9,1.9,1.9C95.4,145.7,94.6,146.6,93.5,146.6z M100.9,146.6 c-1.1,0-1.9-0.9-1.9-1.9c0-1.1,0.9-1.9,1.9-1.9c1.1,0,1.9,0.9,1.9,1.9C102.9,145.7,102,146.6,100.9,146.6z M108.4,146.6 c-1.1,0-1.9-0.9-1.9-1.9c0-1.1,0.9-1.9,1.9-1.9c1.1,0,1.9,0.9,1.9,1.9C110.3,145.7,109.5,146.6,108.4,146.6z M115.8,146.6 c-1.1,0-1.9-0.9-1.9-1.9c0-1.1,0.9-1.9,1.9-1.9c1.1,0,1.9,0.9,1.9,1.9C117.8,145.7,116.9,146.6,115.8,146.6z M123.3,146.6 c-1.1,0-1.9-0.9-1.9-1.9c0-1.1,0.9-1.9,1.9-1.9c1.1,0,1.9,0.9,1.9,1.9C125.2,145.7,124.4,146.6,123.3,146.6z M130.7,146.6 c-1.1,0-1.9-0.9-1.9-1.9c0-1.1,0.9-1.9,1.9-1.9c1.1,0,1.9,0.9,1.9,1.9C132.7,145.7,131.8,146.6,130.7,146.6z M138.2,146.6 c-1.1,0-1.9-0.9-1.9-1.9c0-1.1,0.9-1.9,1.9-1.9c1.1,0,1.9,0.9,1.9,1.9C140.1,145.7,139.3,146.6,138.2,146.6z M145.7,146.6 c-1.1,0-1.9-0.9-1.9-1.9c0-1.1,0.9-1.9,1.9-1.9c1.1,0,1.9,0.9,1.9,1.9C147.6,145.7,146.7,146.6,145.7,146.6z M153.1,146.6 c-1.1,0-1.9-0.9-1.9-1.9c0-1.1,0.9-1.9,1.9-1.9c1.1,0,1.9,0.9,1.9,1.9C155,145.7,154.2,146.6,153.1,146.6z M160.6,146.6 c-1.1,0-1.9-0.9-1.9-1.9c0-1.1,0.9-1.9,1.9-1.9c1.1,0,1.9,0.9,1.9,1.9C162.5,145.7,161.6,146.6,160.6,146.6z M168,146.6 c-1.1,0-1.9-0.9-1.9-1.9c0-1.1,0.9-1.9,1.9-1.9c1.1,0,1.9,0.9,1.9,1.9C170,145.7,169.1,146.6,168,146.6z M176.1,145.5 c-1.2,0.5-2.3-0.2-2.6-1.2c-0.2-1,0.3-2,1.1-2.4c0.8-0.3,1.9,0,2.5,0.9C177.6,143.7,177.2,145,176.1,145.5z M170.1,142H24.5 c-6.3,0-11.4-5.1-11.4-11.4v-15.1c0-6.3,5.1-11.4,11.4-11.4h145.7c6.3,0,11.4,5.1,11.4,11.4v15.1C181.5,136.9,176.4,142,170.1,142z M182.7,140.4c-0.3,0.5-0.9,0.7-1.4,0.8c-0.5,0.1-1-0.1-1.4-0.5c-0.4-0.4-0.5-0.9-0.6-1.3c-0.1-0.5,0.1-0.9,0.4-1.3 c0.6-0.7,1.7-0.9,2.6-0.4C183.2,138.1,183.5,139.4,182.7,140.4z M186,132.7c-0.1,1.2-1.3,2-2.3,1.7c-1-0.3-1.6-1.3-1.5-2.2 c0.1-0.5,0.3-0.9,0.7-1.2c0.4-0.3,0.9-0.5,1.4-0.5c0.5,0,1,0.2,1.3,0.6C185.8,131.5,186.1,132.1,186,132.7z M184.2,126.9 c-1.1,0-1.9-0.9-1.9-1.9s0.9-1.9,1.9-1.9c1.1,0,1.9,0.9,1.9,1.9S185.3,126.9,184.2,126.9z M184.2,119.5c-1.1,0-1.9-0.9-1.9-1.9 c0-1.1,0.9-1.9,1.9-1.9c1.1,0,1.9,0.9,1.9,1.9C186.1,118.6,185.3,119.5,184.2,119.5z"></path> <g> <path style="fill:#FFFFFF;" d="M113.1,119.3c-0.1,0.4-0.5,4-0.9,5.5l-0.4,1.4h2.5l-0.4-1.4C113.5,123.2,113.1,119.5,113.1,119.3z"></path> <path style="fill:#FFFFFF;" d="M42,119.3c-0.1,0.4-0.5,4-0.9,5.5l-0.4,1.4h2.5l-0.4-1.4C42.4,123.2,42,119.5,42,119.3z"></path> <path style="fill:#FFFFFF;" d="M167.3,118.4c-1.3,0-2.4,0.5-2.4,1.7v7.8c0,1.2,1.1,1.7,2.4,1.7c1.3,0,2.4-0.5,2.4-1.7v-7.8 C169.7,118.9,168.6,118.4,167.3,118.4z"></path> <path style="fill:#FFFFFF;" d="M170.1,105H24.5c-5.8,0-10.5,4.7-10.5,10.5v15.1c0,5.8,4.7,10.5,10.5,10.5h145.7 c5.8,0,10.5-4.7,10.5-10.5v-15.1C180.6,109.7,175.9,105,170.1,105z M33.7,120.5c0,0.6-0.2,0.8-0.7,0.8h-2.7 c-0.6,0-0.8-0.2-0.8-0.8v-0.4c0-1.2-0.9-1.7-2.2-1.7c-1.3,0-2.2,0.5-2.2,1.7v7.8c0,1.2,0.9,1.7,2.2,1.7c1.3,0,2.2-0.5,2.2-1.7V127 c0-0.6,0.2-0.8,0.8-0.8H33c0.6,0,0.7,0.2,0.7,0.8v1.6c0,2.3-1.5,4.5-6.5,4.5s-6.5-2.2-6.5-4.5v-9.3c0-2.3,1.5-4.5,6.5-4.5 s6.5,2.2,6.5,4.5V120.5z M48.6,132.9h-2.9c-0.6,0-0.8-0.3-0.9-0.8l-0.7-2.5h-4.4l-0.7,2.5c-0.1,0.5-0.4,0.8-0.9,0.8h-2.7 c-0.6,0-0.7-0.3-0.6-0.8l4.8-16.3c0.2-0.5,0.4-0.8,1-0.8h2.8c0.6,0,0.8,0.3,1,0.8l4.8,16.3C49.4,132.6,49.2,132.9,48.6,132.9z M64.5,132.1c0,0.6-0.2,0.8-0.7,0.8h-2.6c-0.4,0-0.6-0.1-0.7-0.4l-4.2-7c-0.4-0.7-0.8-1.6-1.1-2.4v8.9c0,0.6-0.2,0.8-0.7,0.8h-2.6 c-0.6,0-0.8-0.2-0.8-0.8v-16.3c0-0.6,0.2-0.8,0.8-0.8h2.6c0.3,0,0.6,0.1,0.7,0.3l4.4,7.4c0.3,0.6,0.7,1.3,0.9,2v-8.9 c0-0.6,0.2-0.8,0.8-0.8h2.6c0.6,0,0.7,0.2,0.7,0.8V132.1z M77.9,132.1c0,0.6-0.2,0.8-0.8,0.8h-8.8c-0.5,0-0.7-0.3-0.7-0.8v-16.3 c0-0.6,0.2-0.8,0.8-0.8h2.8c0.6,0,0.7,0.2,0.7,0.8v13.5h5.1c0.6,0,0.8,0.2,0.8,0.7V132.1z M84.3,132.1c0,0.6-0.2,0.8-0.7,0.8h-2.8 c-0.6,0-0.8-0.2-0.8-0.8v-16.3c0-0.6,0.2-0.8,0.8-0.8h2.8c0.6,0,0.7,0.2,0.7,0.8V132.1z M104.8,120.5c0,0.6-0.2,0.8-0.7,0.8h-2.7 c-0.6,0-0.8-0.2-0.8-0.8v-0.4c0-1.2-0.9-1.7-2.2-1.7c-1.3,0-2.2,0.5-2.2,1.7v7.8c0,1.2,0.9,1.7,2.2,1.7c1.3,0,2.2-0.5,2.2-1.7V127 c0-0.6,0.2-0.8,0.8-0.8h2.7c0.6,0,0.7,0.2,0.7,0.8v1.6c0,2.3-1.5,4.5-6.5,4.5c-4.9,0-6.5-2.2-6.5-4.5v-9.3c0-2.3,1.5-4.5,6.5-4.5 c4.9,0,6.5,2.2,6.5,4.5V120.5z M119.7,132.9h-2.9c-0.6,0-0.8-0.3-0.9-0.8l-0.7-2.5h-4.4l-0.7,2.5c-0.1,0.5-0.4,0.8-0.9,0.8h-2.7 c-0.6,0-0.7-0.3-0.6-0.8l4.8-16.3c0.2-0.5,0.4-0.8,1-0.8h2.8c0.6,0,0.8,0.3,1,0.8l4.8,16.3C120.5,132.6,120.3,132.9,119.7,132.9z M134.4,128.6c0,2.3-1.6,4.5-6.5,4.5c-4.9,0-6.6-2.2-6.6-4.5v-1.8c0-0.6,0.2-0.8,0.8-0.8h2.7c0.6,0,0.7,0.2,0.7,0.8v1.2 c0,1.2,1,1.7,2.3,1.7c1.3,0,2.3-0.4,2.3-1.7v-0.5c0-0.9-1.3-1.4-2.3-1.8l-3.8-1.4c-1.3-0.5-2.4-2-2.4-3.5v-1.5 c0-2.3,1.4-4.5,6.2-4.5c4.9,0,6.3,2.2,6.3,4.5v1c0,0.6-0.2,0.8-0.8,0.8h-2.7c-0.6,0-0.7-0.2-0.7-0.8v-0.4c0-1.2-0.8-1.7-2-1.7 c-1.2,0-2.1,0.4-2.1,1.7v0.3c0,0.7,0.6,1,0.8,1.1l4.4,1.5c1.9,0.7,3.3,2,3.3,4V128.6z M141.2,132.1c0,0.6-0.2,0.8-0.7,0.8h-2.8 c-0.6,0-0.8-0.2-0.8-0.8v-16.3c0-0.6,0.2-0.8,0.8-0.8h2.8c0.6,0,0.7,0.2,0.7,0.8V132.1z M157.8,132.1c0,0.6-0.2,0.8-0.7,0.8h-2.6 c-0.4,0-0.6-0.1-0.7-0.4l-4.2-7c-0.4-0.7-0.8-1.6-1.1-2.4v8.9c0,0.6-0.2,0.8-0.7,0.8h-2.6c-0.6,0-0.8-0.2-0.8-0.8v-16.3 c0-0.6,0.2-0.8,0.8-0.8h2.6c0.3,0,0.6,0.1,0.7,0.3l4.4,7.4c0.3,0.6,0.7,1.3,0.9,2v-8.9c0-0.6,0.2-0.8,0.8-0.8h2.6 c0.6,0,0.7,0.2,0.7,0.8V132.1z M174.1,128.6c0,2.3-1.8,4.5-6.7,4.5c-4.9,0-6.7-2.2-6.7-4.5v-9.3c0-2.3,1.8-4.5,6.7-4.5 c4.9,0,6.7,2.2,6.7,4.5V128.6z"></path> </g> <path style="fill:#FFFFFF;" d="M93.8,80.2c-0.8,4.1,1.9,8,6,8.8c1.6,0.3,3.2,0.1,4.6-0.6c-0.5,2-1.7,3.6-3.2,4.8l3.2,0.6l3.2,0.6 c-1-1.6-1.5-3.6-1.3-5.6c1.1,1.1,2.5,1.9,4.1,2.2c0.5,0.1,0.9,0.1,1.4,0.1c1,0,2-0.2,2.9-0.6c2.2-1,4-3,4.5-5.6 c0.9-4.7-1.9-7.3-7.4-15.3c-0.6-0.9-1.1-1.7-1.4-2.4c-0.6-1.3-0.7-2-0.7-2s-0.5,1-2.3,2.4c-0.4,0.3-0.8,0.6-1.2,0.9 C98.2,74.1,94.7,75.5,93.8,80.2z"></path> <path style="fill:#FFFFFF;" d="M93.8,62.7c0.4,0.1,0.9,0,1.2-0.2c-0.1,0.5-0.4,1-0.9,1.3l0.9,0.2l0.9,0.2c-0.3-0.4-0.4-1-0.3-1.5 c0.3,0.3,0.7,0.5,1.1,0.6c1.1,0.2,2.2-0.5,2.4-1.6c0.2-1.3-0.5-2-2-4.1c-0.5-0.8-0.6-1.2-0.6-1.2s-0.2,0.4-1,0.9 c-2.2,1.5-3.1,1.9-3.4,3.1C92,61.5,92.7,62.5,93.8,62.7z"></path> <path style="fill:#FFFFFF;" d="M95,54.3c0.1,0,0.1,0,0.2,0c0,0,0.1-0.1,0.1-0.2l0.6-1.2l2.3,0.4l0.2,1.3c0,0.1,0,0.2,0,0.2 c0,0,0.1,0.1,0.1,0.1l0.6,0.1c0.1,0,0.2,0,0.2,0c0.1,0,0.1-0.1,0-0.2l-0.8-6.2c0-0.1,0-0.2-0.1-0.2c0-0.1-0.1-0.1-0.2-0.1l-0.7-0.1 c-0.1,0-0.2,0-0.2,0c0,0-0.1,0.1-0.2,0.2l-3,5.5c-0.1,0.1-0.1,0.2-0.1,0.2c0,0,0,0.1,0.1,0.1L95,54.3z M97.7,49.5l0.3,3.1l-1.8-0.3 L97.7,49.5z"></path> <path style="fill:#FFFFFF;" d="M81.5,97.9L90.8,48c0.4-2,2.3-3.4,4.4-3l8.1,1.5c0,0,3.4,0.6,3.4,0.6l14.5,2.7l3,0.6l6.4,1.2 c1,0.2,1.8,0.7,2.4,1.6c0.6,0.8,0.8,1.8,0.6,2.8l-7.8,41.9h2.5l7.7-41.5c0.3-1.6,0-3.3-1-4.7c-0.9-1.4-2.4-2.3-4-2.6l-7.1-1.3 l-3.4-0.6c-0.9-1.5-2.5-2.6-4.3-2.6h-9.5l-1.1-0.2l-9.9-1.8c-2.2-0.4-4.4,0.4-5.8,2h-9.6c-2.2,0-4,1.4-4.7,3.4 c-0.2,0.5-0.3,1.1-0.3,1.6v48.3H81.5z"></path> <path style="fill:#FFFFFF;" d="M66.3,97.9h5.9V49.6c0-0.4,0-0.7,0.1-1l-9.7,1.8c-2,0.4-3.6,1.9-4,3.8c-0.1,0.3-0.1,0.6-0.1,1 c0,0.3,0,0.7,0.1,1L66.3,97.9z"></path> </g> </svg> 