<?xml version="1.0" encoding="utf-8"?>
<!-- Generator: Adobe Illustrator 26.1.0, SVG Export Plug-In . SVG Version: 6.00 Build 0)  -->
<svg version="1.1" id="Layer_1" xmlns="http://www.w3.org/2000/svg" xmlns:xlink="http://www.w3.org/1999/xlink" x="0px" y="0px"
	 viewBox="0 0 358.8 60.6" style="enable-background:new 0 0 358.8 60.6;" xml:space="preserve">
<path style="fill:#FFFFFF;" d="M32.2,3.2c14.3,0,26.2,11.7,26.3,26C58.6,43.8,47,55.6,32.5,55.7C17.9,55.7,6.1,44.1,6.1,29.6
	C6,15.1,17.7,3.3,32.2,3.2z"/>
<path style="fill:#FFFFFF;" d="M166.3,56.4c-6,0-12-0.1-17.9,0c-1.7,0-2.2-0.4-2.2-2.1c0.1-6,0.1-12.1,0-18.1c0-1.7,0.6-2.1,2.2-2.1
	c4.8,0.1,9.6,0.1,14.4,0c1.5,0,2.1,0.3,2.1,1.9c0,4.3,0.1,4.3-4.2,4.3c-2.2,0-4.4,0-6.6,0c-0.9,0-1.6,0.1-1.6,1.3
	c0,1.4,0.9,1.1,1.7,1.1c1.2,0,2.4,0,3.5,0c1.6,0.1,3.5-0.8,3.5,2.3c0,3.2-2,2.4-3.7,2.5c-1.2,0-2.4,0-3.5,0c-1,0-1.6,0.2-1.6,1.4
	c0,1.1,0.6,1.2,1.5,1.2c9.2,0,18.4,0,27.5,0c0.9,0,2-0.1,2-1.3c0-1.4-1.2-1.2-2.1-1.2c-2.9,0-5.7,0.1-8.6,0c-3.6-0.1-5-1.5-5.2-5.1
	c-0.1-1.3-0.1-2.5,0.1-3.8c0.5-3,2.2-4.6,5.3-4.6c5-0.1,9.9,0,14.9-0.1c1.7,0,2,0.6,1.9,2.1c-0.1,5.1,0.6,4.1-4,4.2
	c-3,0.1-6.1,0-9.1,0c-1.1,0-2.8-0.3-2.8,1.2c0,1.9,1.8,1.3,2.9,1.3c2.6,0.1,5.2,0,7.8,0c3.5,0.1,4.9,1.4,5.1,4.9
	c0.1,1.3,0,2.7-0.3,4c-0.6,3.2-2.1,4.4-5.4,4.5C178.3,56.5,172.3,56.4,166.3,56.4C166.3,56.4,166.3,56.4,166.3,56.4z"/>
<path style="fill:#FFFFFF;" d="M136.1,47.2c-2.2,1.5-2.4,4.4-5.7,4.4c-3.3,0-3.5-2.9-5.7-4.6c0,2.6-0.1,5.1,0,7.5
	c0,1.4-0.4,1.9-1.8,1.9c-5.7,0.2-5.7,0.3-5.7-5.3c0-5,0-10.1,0-15.1c0-1.4,0.4-1.8,1.8-1.9c3.1-0.2,5.5,0.3,7,3.4
	c0.8,1.7,2.3,3.1,3.4,4.7c0.7,1,1.3,1.1,2.1,0c1.6-2.3,3.3-4.5,4.9-6.7c0.8-1.1,5.7-1.9,6.7-1.1c0.6,0.4,0.4,1.1,0.4,1.6
	c0,6.2,0,12.4,0,18.6c0,1.4-0.4,1.8-1.9,1.9c-5.6,0.2-5.6,0.2-5.6-5.4C136.1,49.9,136.1,48.8,136.1,47.2z"/>
<path style="fill:#FFFFFF;" d="M113.1,13.4c0,2.6,0.1,5.2,0,7.8c-0.2,4.5-2.4,6.8-6.8,7c-3.5,0.1-7.1,0.1-10.6,0
	c-4.3-0.2-6.5-2.4-6.7-6.6c-0.2-5.4,0-10.9-0.1-16.3c0-1.2,0.4-1.9,1.7-1.8c0.2,0,0.3,0,0.5,0C97,3.2,97,3.2,97,8.9
	c0,3.4,0.1,6.7,0,10.1c0,1.5,0.5,2.1,2,2.1c7.7-0.2,6.2,1,6.3-6.1c0.1-3.2,0-6.4,0-9.6c0-1.4,0.4-2.1,2-2.1c7.2,0.2,5.7-0.9,5.8,5.5
	C113.2,10.3,113.2,11.9,113.1,13.4C113.1,13.4,113.1,13.4,113.1,13.4z"/>
<path style="fill:#FFFFFF;" d="M81.6,34.3c1.9,0,3.9,0.1,5.8,0c1.4-0.1,2,0.5,1.9,1.9c-0.1,0.8-0.1,1.5,0,2.3c0.1,1.5-0.6,1.9-2,1.8
	c-3.4-0.1-6.7,0-10.1,0c-3.4,0.1-5.5,2.1-5.5,5.2c0,3.1,1.8,4.9,5.3,5.1c1.7,0.1,3.4,0.2,5-0.1c0.8-0.2,1.4-0.4,1.3-1.4
	c0-1.1-0.9-0.9-1.4-0.8c-2.5,0.3-2.6-1-2.7-3c0-2.3,1.3-2.1,2.8-2.1c1.9,0,3.9,0.1,5.8,0c1.4-0.1,2,0.6,1.9,1.9c0,1,0,2,0,3
	c0.1,5.2-2.2,7.9-7.6,8.3c-3,0.2-6.1,0.2-9.1-0.1c-2.8-0.2-5.1-1.6-6.5-4.2c-4-7.2-0.8-17.6,9.9-17.9C78.2,34.3,79.9,34.3,81.6,34.3
	C81.6,34.3,81.6,34.3,81.6,34.3z"/>
<path style="fill:#FFFFFF;" d="M76.1,3.2c2.8,0,5.5,0,8.3,0c1.4,0,2.3,0.4,2,2c-0.1,0.4,0,0.8,0,1.3c0,4.5,0,4.5-4.5,4.5
	c-1.6,0-2.2,0.4-2.2,2.1c0.1,4.4,0,8.7,0.1,13.1c0,1.5-0.4,2.1-2,2.1c-7-0.2-5.5,0.9-5.7-5.4c-0.1-3.2-0.1-6.4,0-9.6
	c0-1.7-0.4-2.4-2.3-2.4c-4.4,0-4.3-0.1-4.5-4.6C65.4,3.9,66,3,68.5,3.2C71,3.4,73.6,3.2,76.1,3.2z"/>
<path style="fill:#FE003A;" d="M42.4,49.5c-1,0.1-1.7-0.6-2.3-1.2c-2-2-4.1-4-6-6.1c-1.3-1.4-2.1-1.7-3.5-0.1c-1.9,2.1-4,4.1-6,6.1
	c-1.9,1.8-3.1,1.9-4.9,0.1c-2.2-2.1-4.3-4.3-6.4-6.4c-1.7-1.6-1.6-3.2,0-4.8c2.2-2.2,4.4-4.4,6.6-6.6c1-1,1-1.6,0-2.6
	c-2.3-2.1-4.4-4.4-6.6-6.6c-1.6-1.6-1.7-3.1,0-4.7c2.2-2.1,4.3-4.3,6.4-6.4c1.9-1.8,3-1.8,4.9,0.1c2.1,2.1,4.2,4.1,6.2,6.2
	c1.1,1.2,1.8,1.3,3,0.1c2-2.2,4.3-4.3,6.4-6.4c1.6-1.6,3.1-1.7,4.8,0c2.1,2.2,4.3,4.3,6.4,6.4c1.9,1.9,1.9,3,0,4.9
	c-2.1,2.2-4.2,4.3-6.4,6.4c-1.1,1-1.2,1.7,0,2.8c2.3,2.1,4.4,4.4,6.6,6.5c1.6,1.5,1.6,3,0,4.6c-2.3,2.2-4.5,4.5-6.8,6.8
	C44,49.1,43.3,49.5,42.4,49.5z"/>
<path style="fill:#FFFFFF;" d="M139.5,26.1c-1-1.8-2-3.7-3.1-5.4c-0.6-1-0.7-1.6,0.4-2.5c3-2.6,3.6-5.9,2.4-9.6
	c-1.2-3.4-3.9-5.2-8-5.3c-4.4-0.1-8.8,0.1-13.1-0.1c-1.8,0-2.3,0.7-2.3,2.4c0.1,3.4,0,6.7,0,10.1c0,3.3,0.1,6.6,0,9.8
	c-0.1,1.9,0.5,2.7,2.5,2.6c6-0.2,5.2,0.8,5.3-5.2c0-1-0.6-2.6,1.2-2.8c1.4-0.2,2.8-0.1,3.6,1.5c0.9,1.8,2,3.5,3.1,5.2
	c0.4,0.8,0.9,1.3,2,1.3c1.7-0.1,3.4,0,5,0C139.9,28.2,140.3,27.5,139.5,26.1z M128.9,14.5c-0.7,0-1.3,0-2,0c-3.7,0-3.7,0-3.4-3.7
	c0.1-1.2,0.4-1.9,1.8-1.8c1.3,0.1,2.5,0,3.8,0c1.7,0,3,0.8,3,2.6C132.1,13.6,130.8,14.4,128.9,14.5z"/>
<path style="fill:#FFFFFF;" d="M162.4,17c-1.1-1.4-0.8-2.3-0.1-3.6c2.5-5.3-0.5-10.1-6.4-10.1c-3.6,0-7.2,0.1-10.8,0
	c-2.2-0.1-3.2,0.5-3.1,2.9c0.2,3.2,0,6.4,0,9.5c0,3.4,0.1,6.7,0,10c-0.1,1.8,0.6,2.6,2.5,2.5c3.9-0.1,7.9-0.1,11.8,0
	c2.7,0,5-0.7,6.3-3.2C164.1,22.3,164.2,19.4,162.4,17z M152.7,23c-0.1,0-0.2,0-0.3,0c-1.6-0.2-3.9,1-3.5-2.4
	c0.3-2.5,0.1-2.5,3.5-2.5c0.1,0,0.2,0,0.3,0c1.9,0,4.1-0.2,4.1,2.4C156.9,23.2,154.6,23,152.7,23z M154.2,13.7c-0.7,0-1.3,0-2.4,0
	c-1.5,0.2-3.2,0.4-2.9-2.6c0.2-1.8,0.6-2.4,2.3-2.2c1,0.1,2,0,3,0c1.6,0,2.7,0.8,2.7,2.3C156.9,12.9,155.8,13.7,154.2,13.7z"/>
<path style="fill:#FFFFFF;" d="M177.5,3.2c-6.8-0.1-12.6,5.6-12.6,12.4c0,6.9,5.5,12.5,12.4,12.6c6.9,0.1,12.5-5.5,12.6-12.4
	C190,9,184.5,3.3,177.5,3.2z M182.1,20.5c-1,0.9-1.8,1.9-2.9,0.2c-1.1-1.7-2.2-1.5-3.4,0c-0.3,0.4-0.7,1-2.1,0.9
	c-0.4-0.5-1.2-1.4-1.9-2.3c-0.7-1,0.3-1.6,0.9-2c1.4-1.1,1.4-2.1,0-3c-1.7-1.2-0.9-2,0.2-3.1c1.1-1.2,2.1-1.7,3.2-0.1
	c1,1.5,2,1.4,3-0.1c1.2-1.6,2.1-0.9,3.2,0.2c1.1,1.1,1.6,1.9,0.1,3c-1.5,1.1-1.7,2.1,0,3.2C184,18.5,183.1,19.4,182.1,20.5z"/>
<path style="fill:#FFFFFF;" d="M114.2,54.2c-2.1-5.4-4-10.8-6.1-16.2c-1.8-4.7-0.5-3.7-5.3-3.8c-4.1,0-4.1,0-5.5,3.8
	c-1.6,4.3-3.2,8.6-4.8,12.9c-2.1,5.7-2,5.7,4.1,5.5c0.7,0,1.7,0.4,1.9-0.6c0.5-2.5,2.4-2.1,4.1-2.1c1.6,0,3.6-0.6,4.1,2
	c0.1,0.8,1,0.7,1.7,0.7c1.4,0,2.9-0.1,4.3,0C114.8,56.7,114.9,55.9,114.2,54.2z M104.5,48.4c-1.1,0.6-2.3,0.3-3.4,0.2
	c-0.6-0.1-0.7-0.7-0.5-1.2c0.6-2,1.3-4.1,2.1-6.5c0.8,2.4,1.4,4.3,2,6.2C104.8,47.6,105.1,48.1,104.5,48.4z"/>
</svg>
