<?xml version="1.0" encoding="utf-8"?>
<!-- Generator: Adobe Illustrator 24.1.2, SVG Export Plug-In . SVG Version: 6.00 Build 0)  -->
<svg version="1.1" id="Layer_1" xmlns="http://www.w3.org/2000/svg" xmlns:xlink="http://www.w3.org/1999/xlink" x="0px" y="0px"
	 viewBox="0 0 257 76.3" style="enable-background:new 0 0 257 76.3;" xml:space="preserve">
<style type="text/css">
	.st0{fill:url(#SVGID_1_);}
	.st1{fill:url(#SVGID_2_);}
	.st2{fill:url(#SVGID_3_);}
	.st3{fill:url(#SVGID_4_);}
	.st4{fill:url(#SVGID_5_);}
	.st5{fill:url(#SVGID_6_);}
	.st6{fill:#E32228;}
	.st7{fill:#CCCCCC;}
	.st8{fill:url(#SVGID_7_);}
	.st9{fill:url(#SVGID_8_);}
	.st10{fill:url(#SVGID_9_);}
	.st11{fill:url(#SVGID_10_);}
	.st12{fill:url(#SVGID_11_);}
	.st13{fill:url(#SVGID_12_);}
	.st14{fill:url(#SVGID_13_);}
	.st15{fill:#CA2128;}
	.st16{fill:#FFFFFF;}
	.st17{fill:#B12225;}
</style>
<g>
	<linearGradient id="SVGID_1_" gradientUnits="userSpaceOnUse" x1="-18.3439" y1="-0.1914" x2="79.2848" y2="62.8636">
		<stop  offset="0.2085" style="stop-color:#EFA26F"/>
		<stop  offset="0.4736" style="stop-color:#D22328"/>
		<stop  offset="1" style="stop-color:#7C1417"/>
	</linearGradient>
	<path class="st0" d="M35.6,1.7c0,0,25.9,6.7,30.8,8c4.8,1.3,6.5,2.6,6.3,8.6c-0.2,5.9-0.5,24.5-0.8,29.6c-0.3,5.2-0.6,8.2-3,10.1
		c-2.5,2-13.8,11.1-17.2,13.9c-3.5,2.8-7.6,3.8-13.6,1.6c-6-2.2-25.6-9-29.4-10.6c-3.8-1.6-5.1-5.2-5.4-10.1C3,48,1.9,25.5,1.6,21.2
		s1.6-8.4,8.8-11.6c7.2-3.2,10-4.5,15.4-6.8C31.1,0.5,35.6,1.7,35.6,1.7z"/>
	<linearGradient id="SVGID_2_" gradientUnits="userSpaceOnUse" x1="2.6358" y1="13.0909" x2="106.7852" y2="13.0909">
		<stop  offset="0" style="stop-color:#EFA26F"/>
		<stop  offset="0.5586" style="stop-color:#D22328"/>
		<stop  offset="1" style="stop-color:#7C1417"/>
	</linearGradient>
	<path class="st1" d="M66.3,9.7c3.8,1.1,4,2.5,0.2,4.4l-16,8.3c-3.4,1.8-8.4,3.3-12.2,2.2L6.5,15c-3.8-1.1-1-3.2,4.2-5.4l14-6.2
		c5.4-2.6,7.5-2.6,10.9-1.7L66.3,9.7z"/>
	<linearGradient id="SVGID_3_" gradientUnits="userSpaceOnUse" x1="2.2448" y1="24.6051" x2="64.186" y2="83.0714">
		<stop  offset="0" style="stop-color:#EFA26F"/>
		<stop  offset="0.5586" style="stop-color:#D22328"/>
		<stop  offset="1" style="stop-color:#7C1417"/>
	</linearGradient>
	<path class="st2" d="M44.7,68.5c0,3.8-3,6-6.8,5L8.5,62.9c-3.8-1-5.3-5.2-5.3-9L1.5,21.3c0-3.8,1.5-5.6,5.3-4.6l31.1,9.7
		c3.8,1,6.7,4.3,6.7,8.1L44.7,68.5z"/>
	<linearGradient id="SVGID_4_" gradientUnits="userSpaceOnUse" x1="-13.7845" y1="-2.5902" x2="83.4019" y2="57.5267">
		<stop  offset="0.4721" style="stop-color:#D22328"/>
		<stop  offset="0.7683" style="stop-color:#7C1417"/>
	</linearGradient>
	<path class="st3" d="M71.9,47.8c0,3.9-0.2,7.4-3,10.1L51.7,71.8c-3.9,2.1-5.2-0.5-5.2-4.4l0.6-33c0-3.9,1-7.7,5-9.7l17.8-9.8
		c3-2.1,3-0.6,3,3.4L71.9,47.8z"/>
	<linearGradient id="SVGID_5_" gradientUnits="userSpaceOnUse" x1="19.2" y1="9.8861" x2="19.2" y2="14.6503">
		<stop  offset="0" style="stop-color:#9E9E9F"/>
		<stop  offset="0.1099" style="stop-color:#B7B6B6"/>
		<stop  offset="0.2356" style="stop-color:#CFCDCD"/>
		<stop  offset="0.3733" style="stop-color:#E1E0E0"/>
		<stop  offset="0.5273" style="stop-color:#F1EFEF"/>
		<stop  offset="0.7107" style="stop-color:#FAFBFC"/>
		<stop  offset="1" style="stop-color:#FFFFFF"/>
	</linearGradient>
	<path class="st4" d="M12.8,12c0,1.5,2.9,2.8,6.4,2.8s6.4-1.3,6.4-2.8s-2.9-2.8-6.4-2.8C15.6,9.2,12.8,10.4,12.8,12z"/>
	<linearGradient id="SVGID_6_" gradientUnits="userSpaceOnUse" x1="19.2" y1="4439.2944" x2="19.2" y2="4442.1494">
		<stop  offset="0" style="stop-color:#9E9E9F"/>
		<stop  offset="0.1099" style="stop-color:#B7B6B6"/>
		<stop  offset="0.2356" style="stop-color:#CFCDCD"/>
		<stop  offset="0.3733" style="stop-color:#E1E0E0"/>
		<stop  offset="0.5273" style="stop-color:#F1EFEF"/>
		<stop  offset="0.7107" style="stop-color:#FAFBFC"/>
		<stop  offset="1" style="stop-color:#FFFFFF"/>
	</linearGradient>
	<path class="st5" d="M12.8,12c0,1.5,2.9,2.8,6.4,2.8s6.4-1.3,6.4-2.8s-2.9-2.8-6.4-2.8C15.6,9.2,12.8,10.4,12.8,12z"/>
	<path class="st6" d="M19.2,9.6c3.4,0,6.2,1.1,6.4,2.6c0-0.1,0.1-0.2,0.1-0.2c0-1.5-2.9-2.8-6.4-2.8s-6.4,1.3-6.4,2.8
		c0,0.1,0,0.2,0.1,0.2C13.1,10.8,15.8,9.6,19.2,9.6z"/>
	<path class="st7" d="M19.2,10.6c3,0,5.4,0.9,6.2,2.1c0.1-0.2,0.2-0.3,0.2-0.6c-0.2-1.4-3-2.6-6.4-2.6s-6.2,1.1-6.4,2.6
		c0,0.2,0.1,0.3,0.2,0.6C13.7,11.6,16.2,10.6,19.2,10.6z"/>
	<linearGradient id="SVGID_7_" gradientUnits="userSpaceOnUse" x1="37.1" y1="9.8861" x2="37.1" y2="14.6503">
		<stop  offset="0" style="stop-color:#9E9E9F"/>
		<stop  offset="0.1099" style="stop-color:#B7B6B6"/>
		<stop  offset="0.2356" style="stop-color:#CFCDCD"/>
		<stop  offset="0.3733" style="stop-color:#E1E0E0"/>
		<stop  offset="0.5273" style="stop-color:#F1EFEF"/>
		<stop  offset="0.7107" style="stop-color:#FAFBFC"/>
		<stop  offset="1" style="stop-color:#FFFFFF"/>
	</linearGradient>
	<path class="st8" d="M30.7,12c0,1.5,2.9,2.8,6.4,2.8s6.4-1.3,6.4-2.8s-2.9-2.8-6.4-2.8C33.6,9.2,30.7,10.4,30.7,12z"/>
	<linearGradient id="SVGID_8_" gradientUnits="userSpaceOnUse" x1="37.1" y1="4439.2944" x2="37.1" y2="4442.1494">
		<stop  offset="0" style="stop-color:#9E9E9F"/>
		<stop  offset="0.1099" style="stop-color:#B7B6B6"/>
		<stop  offset="0.2356" style="stop-color:#CFCDCD"/>
		<stop  offset="0.3733" style="stop-color:#E1E0E0"/>
		<stop  offset="0.5273" style="stop-color:#F1EFEF"/>
		<stop  offset="0.7107" style="stop-color:#FAFBFC"/>
		<stop  offset="1" style="stop-color:#FFFFFF"/>
	</linearGradient>
	<path class="st9" d="M30.7,12c0,1.5,2.9,2.8,6.4,2.8s6.4-1.3,6.4-2.8s-2.9-2.8-6.4-2.8C33.6,9.2,30.7,10.4,30.7,12z"/>
	<path class="st6" d="M37.1,9.6c3.4,0,6.2,1.1,6.4,2.6c0-0.1,0.1-0.2,0.1-0.2c0-1.5-2.9-2.8-6.4-2.8s-6.4,1.3-6.4,2.8
		c0,0.1,0,0.2,0.1,0.2C31,10.8,33.7,9.6,37.1,9.6z"/>
	<path class="st7" d="M37.1,10.6c3,0,5.4,0.9,6.2,2.1c0.1-0.2,0.2-0.3,0.2-0.6c-0.2-1.4-3-2.6-6.4-2.6s-6.2,1.1-6.4,2.6
		c0,0.2,0.1,0.3,0.2,0.6C31.7,11.6,34.1,10.6,37.1,10.6z"/>
	<linearGradient id="SVGID_9_" gradientUnits="userSpaceOnUse" x1="55" y1="9.9445" x2="55" y2="14.5775">
		<stop  offset="0" style="stop-color:#9E9E9F"/>
		<stop  offset="0.1099" style="stop-color:#B7B6B6"/>
		<stop  offset="0.2356" style="stop-color:#CFCDCD"/>
		<stop  offset="0.3733" style="stop-color:#E1E0E0"/>
		<stop  offset="0.5273" style="stop-color:#F1EFEF"/>
		<stop  offset="0.7107" style="stop-color:#FAFBFC"/>
		<stop  offset="1" style="stop-color:#FFFFFF"/>
	</linearGradient>
	<path class="st10" d="M48.8,12c0,1.5,2.8,2.7,6.2,2.7s6.2-1.2,6.2-2.7S58.4,9.3,55,9.3C51.6,9.2,48.8,10.5,48.8,12z"/>
	<linearGradient id="SVGID_10_" gradientUnits="userSpaceOnUse" x1="55" y1="4317.4521" x2="55" y2="4320.2329">
		<stop  offset="0" style="stop-color:#9E9E9F"/>
		<stop  offset="0.1099" style="stop-color:#B7B6B6"/>
		<stop  offset="0.2356" style="stop-color:#CFCDCD"/>
		<stop  offset="0.3733" style="stop-color:#E1E0E0"/>
		<stop  offset="0.5273" style="stop-color:#F1EFEF"/>
		<stop  offset="0.7107" style="stop-color:#FAFBFC"/>
		<stop  offset="1" style="stop-color:#FFFFFF"/>
	</linearGradient>
	<path class="st11" d="M48.8,12c0,1.5,2.8,2.7,6.2,2.7s6.2-1.2,6.2-2.7S58.4,9.3,55,9.3C51.6,9.2,48.8,10.5,48.8,12z"/>
	<path class="st6" d="M55,9.6c3.3,0,6,1.1,6.2,2.6c0-0.1,0.1-0.2,0.1-0.2c0-1.5-2.8-2.7-6.2-2.7s-6.2,1.2-6.2,2.7
		c0,0.1,0,0.2,0.1,0.2C49,10.8,51.8,9.6,55,9.6z"/>
	<path class="st7" d="M55,10.7c2.9,0,5.3,0.9,6,2c0.1-0.2,0.2-0.3,0.2-0.5C61,10.8,58.3,9.6,55,9.6s-6,1.1-6.2,2.6
		c0,0.2,0.1,0.3,0.2,0.5C49.8,11.6,52.2,10.7,55,10.7z"/>
	<linearGradient id="SVGID_11_" gradientUnits="userSpaceOnUse" x1="20.7995" y1="40.2251" x2="25.3315" y2="43.2972">
		<stop  offset="0" style="stop-color:#9E9E9F"/>
		<stop  offset="0.1099" style="stop-color:#B7B6B6"/>
		<stop  offset="0.2356" style="stop-color:#CFCDCD"/>
		<stop  offset="0.3733" style="stop-color:#E1E0E0"/>
		<stop  offset="0.5273" style="stop-color:#F1EFEF"/>
		<stop  offset="0.7107" style="stop-color:#FAFBFC"/>
		<stop  offset="1" style="stop-color:#FFFFFF"/>
	</linearGradient>
	<path class="st12" d="M31.1,51.7c-0.6-1.2-1.5-3-2-3.9c-0.5-1-0.6-2.2-0.1-2.9c0.4-0.6,1.4-1.8,2.3-2.9l5.5-6.6
		c0.9-1,0.5-2.2-0.7-2.6l-6.5-2.1c-1.3-0.4-2.3-0.6-2.8,0.1c-0.7,1-1.1,1.7-1.9,2.8l-0.8,1.1c-0.8,1-2,2.8-2.8,3.9l-1.5,2.1
		c-0.8,1-1,2.9-0.3,4.1l8.2,16.9c0.6,1.4,1.4,2.3,3.3,3l6,2.2c1.3,0.4,1.8-0.2,1.2-1.4L31.1,51.7z"/>
	<linearGradient id="SVGID_12_" gradientUnits="userSpaceOnUse" x1="7.5834" y1="41.7962" x2="14.9147" y2="41.7962">
		<stop  offset="0" style="stop-color:#9E9E9F"/>
		<stop  offset="0.1099" style="stop-color:#B7B6B6"/>
		<stop  offset="0.2356" style="stop-color:#CFCDCD"/>
		<stop  offset="0.3733" style="stop-color:#E1E0E0"/>
		<stop  offset="0.5273" style="stop-color:#F1EFEF"/>
		<stop  offset="0.7107" style="stop-color:#FAFBFC"/>
		<stop  offset="1" style="stop-color:#FFFFFF"/>
	</linearGradient>
	<path class="st13" d="M18.9,57.8l-0.8-12.9l-0.6-16.1c-0.2-1.6-2.2-2.7-2.2-2.7c-1.8-0.6-3.9-1.4-5.8-1.9c-2.2-0.4-2.2,1.4-2.2,1.4
		C7.6,32,8.5,48.5,8.7,54.5v0.2c0,0.3,0.3,1.8,1.9,2.6c1.7,0.6,4.2,1.4,5.8,2C16.6,59.4,18.9,59.8,18.9,57.8z"/>
	<path class="st6" d="M19.7,41.6l1.5-2.1c0.8-1,2.1-2.8,2.8-3.9l0.8-1.1c0.8-1,1.2-1.8,1.9-2.8c0.5-0.7,1.5-0.5,2.8-0.1l6.5,2.1
		c0.6,0.2,1,0.6,1.1,1c0.2-0.8-0.2-1.5-1.1-1.8l-6.5-2.1c-1.3-0.4-2.3-0.6-2.8,0.1c-0.7,1-1.1,1.7-1.9,2.8L24,34.8
		c-0.8,1-2,2.8-2.8,3.9l-1.5,2.1c-0.6,0.7-0.8,1.8-0.7,2.7C19.1,42.9,19.3,42.2,19.7,41.6z"/>
	<path class="st6" d="M9.6,55.6v-0.2c-0.3-6-1.2-22.5-1.5-28.9c0,0-0.1-1.8,2.2-1.4c1.8,0.6,4,1.4,5.8,1.9c0,0,0.3,0.2,0.6,0.5
		c-0.6-0.8-1.4-1.3-1.4-1.3c-1.8-0.6-3.9-1.4-5.8-1.9c-2.2-0.4-2.2,1.4-2.2,1.4c0.3,6.4,1.2,22.9,1.4,28.9v0.2
		c0,0.3,0.2,1.4,1.4,2.2C9.7,56.5,9.6,55.8,9.6,55.6z"/>
	<linearGradient id="SVGID_13_" gradientUnits="userSpaceOnUse" x1="67.4591" y1="43.2551" x2="48.3595" y2="47.6478">
		<stop  offset="3.143220e-02" style="stop-color:#9E9E9F"/>
		<stop  offset="9.898690e-02" style="stop-color:#B7B6B6"/>
		<stop  offset="0.1762" style="stop-color:#CFCDCD"/>
		<stop  offset="0.2608" style="stop-color:#E1E0E0"/>
		<stop  offset="0.3555" style="stop-color:#F1EFEF"/>
		<stop  offset="0.4682" style="stop-color:#FAFBFC"/>
		<stop  offset="0.646" style="stop-color:#FFFFFF"/>
	</linearGradient>
	<path class="st14" d="M67.9,50c0-0.1,0-0.2-0.1-0.2l-3.1-16.4c0-0.2-0.1-0.4-0.1-0.6c-0.1-0.5-0.2-1-0.2-1.5
		c-0.1-0.6-0.2-1.3-0.3-1.8c-0.1-0.6-0.2-1.1-0.3-1.7c-0.1-0.4-0.2-0.8-0.2-1.2c0-0.2,0-0.3-0.2-0.5c-0.3-0.4-1-0.6-1.4-0.5
		c-0.2,0-0.3,0.1-0.4,0.1c-0.1,0-0.2,0.2-0.3,0.2c-0.4,0.2-0.8,0.5-1.2,0.6c-0.2,0.1-0.3,0.2-0.5,0.2c-1.4,0.9-1.8,2.5-1.8,2.5
		c-0.2,1-0.4,2.1-0.5,2.6l-0.6,3l-5.4,27.7l-0.4,1.8v0.1c-0.1,0.3-0.2,1.2,0.3,1.4c0.4,0.1,0.6-0.2,1-0.4c0.3-0.2,0.6-0.5,0.9-0.6
		c0.2-0.2,0.7-0.6,1.6-1.2c0.8-0.6,1-1.6,1-1.6c0.6-3.5,1.1-6.9,1.7-9.8l5.2-3.8c0.5,2.7,0.9,5.1,1.2,7.3c0,0,0.1,0.6,0.9,0.2
		c0.6-0.5,1.4-1.1,2.2-1.7c0.7-0.6,1.2-0.9,1.5-1.8C68.3,51.7,68.1,50.6,67.9,50z M61,42.3l-1.9,1.4c-0.3,0.2-0.6,0.1-0.5-0.3
		l0.5-2.6c0.1-0.4,0.2-1.1,0.2-1.5l0.9-5c0.1-0.4,0.2-0.4,0.2,0l1,6.8C61.6,41.5,61.4,42.1,61,42.3z"/>
	<path class="st15" d="M67.9,50c0-0.1,0-0.2-0.1-0.2l-3.1-16.4c0-0.2-0.1-0.4-0.1-0.6c-0.1-0.5-0.2-1-0.2-1.5
		c-0.1-0.6-0.2-1.3-0.3-1.8c-0.1-0.6-0.2-1.1-0.3-1.7c-0.1-0.4-0.2-0.8-0.2-1.2c0-0.2,0-0.3-0.2-0.5c-0.3-0.4-1-0.6-1.4-0.5
		c-0.2,0-0.3,0.1-0.4,0.1c-0.1,0-0.2,0.2-0.3,0.2c-0.4,0.2-0.8,0.5-1.2,0.6c-0.2,0.1-0.3,0.2-0.5,0.2c-1.4,0.9-1.8,2.5-1.8,2.5
		c0,0.1,0,0.1,0,0.2c0.2-0.6,0.7-1.4,1.7-2c0.2-0.1,0.3-0.2,0.5-0.2c0.4-0.2,0.8-0.5,1.2-0.6c0.1,0,0.2-0.1,0.3-0.2
		c0.2-0.1,0.2-0.1,0.4-0.1c0.5-0.1,1.1,0.1,1.4,0.5c0.2,0.2,0.2,0.3,0.2,0.5c0.1,0.4,0.2,0.8,0.2,1.2c0.1,0.6,0.2,1.1,0.3,1.7
		s0.2,1.3,0.3,1.8c0.1,0.5,0.2,1,0.2,1.5c0,0.2,0.1,0.4,0.1,0.6l3.1,16.3c0,0.1,0,0.2,0.1,0.2c0.1,0.6,0.3,1.5,0.2,2.2
		c0.1-0.2,0.2-0.2,0.2-0.4C68.3,51.7,68.1,50.6,67.9,50z"/>
	<g>
		<path class="st16" d="M98.4,48.9h-4.8c-0.4,0-0.6-0.1-0.8-0.4l-8.3-12.1v11.9c0,0.4-0.3,0.7-0.7,0.7h-3.6c-0.4,0-0.7-0.3-0.7-0.7
			V23.1c0-0.4,0.3-0.7,0.7-0.7h3.6c0.4,0,0.7,0.3,0.7,0.7v11.3l8.8-11.8c0.2-0.2,0.4-0.3,0.8-0.3h4.1c0.5,0,0.7,0.2,0.7,0.4
			s-0.1,0.4-0.2,0.6l-9.2,11.9l9.2,13c0.1,0.2,0.2,0.3,0.2,0.4C98.9,48.8,98.7,48.9,98.4,48.9z"/>
		<path class="st17" d="M121.7,48.9h-3.8c-0.3,0-0.6-0.3-0.7-0.6l-1.6-6.8h-8.3l-1.6,6.8c-0.1,0.3-0.3,0.6-0.7,0.6h-3.8
			c-0.3,0-0.6-0.2-0.6-0.6c0,0,0-0.1,0-0.2l5.8-22.4c0.8-3.4,3.5-3.7,5-3.7s4.1,0.3,5,3.7l5.8,22.4c0,0.1,0,0.1,0,0.2
			C122.3,48.7,122,48.9,121.7,48.9z M112,26.8c-0.1-0.4-0.2-0.6-0.6-0.6s-0.5,0.1-0.6,0.6l-2.6,10.6h6.3L112,26.8z"/>
		<path class="st16" d="M151.4,48.6c-1.8,0.4-4.1,0.6-7.8,0.6c-3.9,0-9.6-2.6-9.6-10.9v-5.1c0-8.5,5.4-11,9.7-11
			c3.5,0,6.6,0.4,7.7,0.6c0.5,0.1,0.7,0.3,0.7,0.7v2.4c0,0.5-0.1,0.7-0.7,0.7h-0.1c-1.6-0.1-4.1-0.3-7.6-0.3c-2.4,0-4.7,1.6-4.7,6.7
			v5.1c0,5.1,2.5,6.7,4.6,6.7c1.3,0,2.5,0,3.6-0.1v-9.1c0-0.4,0.3-0.7,0.7-0.7h3.6c0.4,0,0.7,0.3,0.7,0.7v12.2
			C152,48.2,151.8,48.5,151.4,48.6z"/>
		<path class="st16" d="M171.4,48.9h-3.1c-0.4,0-0.7-0.3-0.7-0.7v-0.6c-1.6,1-3.4,1.5-5,1.5c-3,0-6.2-1.1-6.2-5.9v-0.1
			c0-4.1,2.6-6.2,8.7-6.2h2.3v-1.5c0-2.4-1-2.9-3.2-2.9c-2.3,0-4.7,0.1-5.8,0.3c-0.1,0-0.1,0-0.2,0c-0.3,0-0.6-0.1-0.6-0.6V30
			c0-0.4,0.2-0.6,0.7-0.7c1.4-0.3,3.5-0.6,5.9-0.6c5.1,0,7.9,2.2,7.9,6.8v12.9C172.1,48.6,171.8,48.9,171.4,48.9z M167.4,40h-2.3
			c-3.3,0-4,1-4,3.1v0.1c0,1.7,0.8,2.2,2.6,2.2c1.3,0,2.7-0.4,3.7-1V40L167.4,40z"/>
		<path class="st16" d="M201.8,48.9h-3.3c-0.4,0-0.7-0.3-0.7-0.7V36c0-2.8-0.6-3.5-2.6-3.5c-0.7,0-2,0.2-3.4,0.9
			c0.1,0.8,0.1,1.6,0.1,2.6v12.2c0,0.4-0.3,0.7-0.7,0.7H188c-0.4,0-0.7-0.3-0.7-0.7V36c0-2.8-0.5-3.5-2.5-3.5
			c-0.7,0-1.8,0.4-3.3,1.2v14.4c0,0.4-0.3,0.7-0.7,0.7h-3.3c-0.4,0-0.7-0.3-0.7-0.7V29.5c0-0.4,0.3-0.7,0.7-0.7h3.1
			c0.4,0,0.7,0.3,0.7,0.7v0.7c1.5-0.9,3-1.7,5.1-1.7c2,0,3.4,0.6,4.2,1.6c1.8-1,3.5-1.6,5.9-1.6c4.9,0,5.9,3.4,5.9,7.6v12.2
			C202.5,48.6,202.1,48.9,201.8,48.9z"/>
		<path class="st16" d="M211.3,26h-3.5c-0.4,0-0.7-0.3-0.7-0.7v-3.1c0-0.4,0.3-0.7,0.7-0.7h3.5c0.4,0,0.7,0.3,0.7,0.7v3.2
			C212,25.7,211.7,26,211.3,26z M211.2,48.9H208c-0.4,0-0.7-0.3-0.7-0.7V29.5c0-0.4,0.3-0.7,0.7-0.7h3.3c0.4,0,0.7,0.3,0.7,0.7v18.7
			C211.9,48.6,211.6,48.9,211.2,48.9z"/>
		<path class="st16" d="M232.6,48.9h-3.3c-0.4,0-0.7-0.3-0.7-0.7V36.6c0-3.1-0.3-4-3.1-4c-1.2,0-2.6,0.5-4.1,1.3v14.4
			c0,0.4-0.3,0.7-0.7,0.7h-3.3c-0.4,0-0.7-0.3-0.7-0.7V29.6c0-0.4,0.3-0.7,0.7-0.7h3.1c0.4,0,0.7,0.3,0.7,0.7v0.7
			c2-1.3,3.5-1.7,5.8-1.7c5.1,0,6.2,3.5,6.2,8v11.7C233.4,48.6,232.9,48.9,232.6,48.9z"/>
		<path class="st16" d="M255,32.1l-1.2,0.5c0.6,0.8,0.9,1.6,0.9,2.9v0.2c0,4.5-3.1,6.5-8.5,6.5c-1.9,0-3.2-0.3-3.9-0.6
			c-0.4,0.3-0.6,0.6-0.6,0.9c0,0.7,0.4,1,1.2,1.2l4.2,1c4.9,1.1,8,1.9,8,5.7v0.2c0,3.7-2.7,5.6-8.8,5.6c-5.8,0-8.9-2.1-8.9-5.9V50
			c0-1.4,0.7-2.9,1.8-4c-1-0.7-1.6-2-1.6-3.3c0-1.1,0.5-2.2,1.4-2.9c-1.1-1.1-1.4-2.4-1.4-4.2v-0.2c0-3.6,2.4-6.5,8.5-6.5h8.4
			c0.5,0,0.9,0.4,0.9,0.9v1.6C255.6,31.8,255.4,31.9,255,32.1z M250.5,50.4c0-0.8-0.5-1.2-4.2-2.1l-3.2-0.7
			c-0.5,0.7-0.9,1.2-0.9,2.6v0.2c0,1.4,0.9,2.4,4.3,2.4c3.5,0,4.1-0.7,4.1-2v-0.4H250.5z M250,35.4c0-1.7-0.7-3.1-3.8-3.1
			s-3.9,1.3-3.9,3.1v0.3c0,1.3,0.5,2.9,3.9,2.9c3,0,3.8-1,3.8-2.9V35.4z"/>
	</g>
</g>
</svg>
