<?xml version="1.0" encoding="utf-8"?>
<!-- Generator: Adobe Illustrator 24.1.2, SVG Export Plug-In . SVG Version: 6.00 Build 0)  -->
<svg version="1.1" id="Layer_1" xmlns="http://www.w3.org/2000/svg" xmlns:xlink="http://www.w3.org/1999/xlink" x="0px" y="0px"
	 viewBox="0 0 248.3 80.9" style="enable-background:new 0 0 248.3 80.9;" xml:space="preserve">
<style type="text/css">
	.st0{fill:#FFFFFF;}
</style>
<g>
	<g>
		<path class="st0" d="M19.6,70.4c0,2.9-0.8,4.6-2.1,5.9c-0.8,1.2-2.5,1.2-4.2,1.2c-2.1,0-3.8-0.8-5.1-2.5c-1.2-1.7-1.7-3.4-1.7-5.1
			c0-2.1,0.4-4.2,1.7-5.9c0.8-0.8,1.2-1.2,2.1-1.7c0.8-0.4,1.7-0.8,2.9-0.8s2.1,0.4,3.4,0.4c0.8,0.4,1.7,0.8,2.1,1.2
			c0.4,0.4,0.4,0.4,0.4,0.8c0,0.4,0,0.4-0.4,0.8s-0.4,0.4-0.8,0.4s-0.4,0-0.8-0.4c-0.8-0.4-1.2-0.8-1.7-1.2
			c-0.8-0.4-1.2-0.4-2.1-0.4c-1.7,0-2.9,0.8-3.8,2.1c-0.9,1.3-1.2,2.5-1.2,4.2c0,2.1,0.8,3.8,1.7,5.1c0.8,0.8,1.7,1.2,2.9,1.2
			c0.8,0,1.7-0.4,2.1-0.4c1.7-0.8,2.5-2.1,2.5-4.2v-0.7H15c-0.4,0-0.8-0.4-0.8-0.8c0-0.8,0.4-0.8,0.8-0.8h3.4
			C19.2,68.8,19.6,69.6,19.6,70.4L19.6,70.4z"/>
		<path class="st0" d="M242.2,70.4c0,2.9-0.8,4.6-2.1,5.9c-0.8,0.8-2.1,1.2-4.2,1.2c-2.1,0-3.8-0.8-5.1-2.5s-1.7-3.4-1.7-5.1
			c0-2.1,0.4-4.2,1.7-5.9c0.8-0.8,1.2-1.2,2.1-1.7c0.8-0.4,1.7-0.8,2.9-0.8s2.1,0.4,3.4,0.4c0.8,0.4,1.7,0.8,2.1,1.2
			c0.4,0.4,0.4,0.4,0.4,0.8c0,0.4,0,0.4-0.4,0.8s-0.4,0.4-0.8,0.4s-0.4,0-0.8-0.4c-0.8-0.4-1.2-0.8-1.7-1.2
			c-0.8-0.4-1.2-0.4-2.1-0.4c-1.7,0-2.9,0.8-3.8,2.1c-0.8,1.2-1.2,2.5-1.2,4.2c0,2.1,0.8,3.8,1.7,5.1c0.8,0.8,1.7,1.2,2.9,1.2
			c0.8,0,1.7-0.4,2.1-0.4c1.7-0.8,2.5-2.1,2.5-4.2v-0.7h-2.9c-0.4,0-0.8-0.4-0.8-0.8c0-0.8,0.4-0.8,0.8-0.8h3.4
			c0.8,0,1.2,0.4,1.2,1.2L242.2,70.4L242.2,70.4z"/>
		<path class="st0" d="M114.1,76.7c0,0.8-0.4,1.2-0.8,1.2s-0.8-0.4-0.8-0.8l-1.7-12.6L107,77.1c-0.4,0.4-0.8,0.4-1.2,0.4
			s-0.8-0.4-0.8-0.8l-3.8-12.6l-1.7,12.6c0,0.8-0.4,0.8-1.2,0.8c-0.4,0-0.8-0.4-0.8-1.2c0-0.4,0-0.4,0-0.4l2.1-13
			c0-0.4,0.4-0.8,0.4-0.8l0.8-0.4c0.4,0,0.8,0,0.8,0.4c0.4,0.4,0.4,0.4,0.4,0.8l3.4,11.4l0,0l3.4-11.4c0-0.4,0.4-0.4,0.4-0.8
			c0.4-0.4,0.4-0.4,0.8-0.4s0.8,0,0.8,0.4c0.4,0.4,0.4,0.4,0.4,0.8L114.1,76.7z"/>
		<path class="st0" d="M149.4,76.7c0,0.8-0.4,1.2-0.8,1.2c-0.8,0-0.8-0.4-0.8-0.8V63.3c0-0.8,0.4-0.8,0.8-0.8c0.4,0,0.8,0.4,0.8,0.8
			V76.7z"/>
		<path class="st0" d="M195.6,76.7c0,0.8-0.4,0.8-0.8,0.8c-0.4,0-0.8-0.4-1.2-0.8l-8.4-11.8v11.4c0,0.8-0.4,0.8-0.8,0.8
			c-0.4,0-0.8,0-0.8-0.4V63c0-0.8,0.4-0.8,0.8-0.8c0.4,0,0.8,0.4,1.2,0.8l8,11.8l0,0V63.4c0-0.4,0-0.4,0.4-0.8s0.4-0.4,0.8-0.4
			c0.8,0,0.8,0.4,0.8,0.8V76.7L195.6,76.7z"/>
		<path class="st0" d="M65,77.2c0,0.4-0.4,0.8-0.8,0.8s-0.4,0-0.8-0.4c-0.4,0-0.4,0-0.4-0.4l-0.8-2.9h-7.1l-1.2,2.9
			c-0.4,0.4-0.4,0.8-0.8,0.8c-0.4,0-0.8-0.4-0.8-0.8v-0.4v-0.4L57.4,63c0.4-0.4,0.4-0.8,0.4-0.8s0.4-0.4,0.8-0.4
			c0.4,0,0.4,0,0.8,0.4s0.4,0.4,0.4,0.8l4.8,13.4C65,76.7,65,77.2,65,77.2 M61.6,72.5l-2.9-8.4l0,0l-3.4,8.4H61.6z"/>
	</g>
	<g>
		<g>
			<circle class="st0" cx="204" cy="10.4" r="6.3"/>
			<path class="st0" d="M242.6,10.4c0,3.4-2.9,6.3-6.3,6.3c-3.4,0-6.3-2.9-6.3-6.3s2.9-6.3,6.3-6.3C239.6,4.1,242.6,7,242.6,10.4z"
				/>
			<circle class="st0" cx="204" cy="40.6" r="6.3"/>
			<path class="st0" d="M242.6,40.6c0,3.4-2.9,6.3-6.3,6.3c-3.4,0-6.3-2.9-6.3-6.3s2.9-6.3,6.3-6.3
				C239.6,34.3,242.6,37.3,242.6,40.6z"/>
			<path class="st0" d="M226.6,25.5c0,3.4-2.9,6.3-6.3,6.3c-3.4,0-6.3-2.9-6.3-6.3s2.9-6.3,6.3-6.3
				C223.7,19.2,226.6,22.2,226.6,25.5z"/>
		</g>
		<g>
			<path class="st0" d="M187.6,45.2L170.4,4.9l0,0c-0.4-0.4-0.4-0.8-0.8-0.8l0,0h-3.4h-0.4h-3.4l0,0c-0.4,0-0.8,0.4-0.8,0.8l0,0
				l-17.2,40.3v0.4c0,0.4,0.4,0.8,0.8,0.8h7.5c0.4,0,0.8-0.4,0.8-0.8l0,0l3.8-9.2h18.1l3.8,9.2l0,0c0.4,0.4,0.4,0.8,0.8,0.8h7.5
				c0.4,0,0.8-0.4,0.8-0.8C188,45.7,188,45.2,187.6,45.2z M159.5,28.9l6.3-16.4l6.3,16.4H159.5z"/>
			<path class="st0" d="M65.8,17.1C66.2,15.4,67,15,67,15s0.8-1.7,2.9-2.5s3.8-0.8,3.8-0.8h15.1c0.4,0,0.8-0.4,0.8-0.8V5.4
				c0-0.4-0.4-0.8-0.8-0.8H72.1l0,0c-9.2,0-16.8,8.4-16.8,18.1v2.5v0.4V26v0.4v2.5C55.3,39,62.8,47,72.1,47l0,0h16.8
				c0.4,0,0.8-0.4,0.8-0.8v-5.8c0-0.4-0.4-0.8-0.8-0.8H73.8c0,0-2.1,0-3.8-0.8c-2.1-0.8-2.9-2.5-2.9-2.5s-0.8-0.8-1.2-2.1
				c-0.4-1.7-0.4-3.8-0.4-3.8v-0.8h23.9c0.4,0,0.8-0.4,0.8-0.8v-5.9c0-0.4-0.4-0.8-0.8-0.8h-24v-0.7C65.4,20.9,65.8,18.8,65.8,17.1z
				"/>
			<path class="st0" d="M118.3,46.1h13.8c0.4,0,0.8-0.4,0.8-0.8v-5.5c0-0.4-0.4-0.8-0.8-0.8h-12.5c0,0-1.7,0-3.4-0.8
				c-1.7-0.8-2.5-2.5-2.5-2.5s-0.8-0.8-0.8-2.5c0-1.2,0-3.4,0-3.4v-4.4V4.9l0,0c0-0.4-0.4-0.8-0.8-0.8H105c-0.4,0-0.8,0.4-0.8,0.8
				c0,0,0,0,0,0.4v20.1l0,0v2.9l0,0v4.2v0.4C104.4,40.2,110.7,46.1,118.3,46.1"/>
			<path class="st0" d="M43.6,45.2L43.6,45.2l-9.7-16.4l0,0l0,0c5.1-1.2,8.4-4.6,8.4-12.2C42.7,6.5,35.6,4.4,27.2,4h-2.1h-18
				C6.7,4,6.3,4.4,6.3,4.8l0,0v40.3l0,0c0,0.4,0.4,0.8,0.8,0.8h7.1c0.4,0,0.8-0.4,0.8-0.8V29.7h10.1l9.2,16l0,0
				c0.4,0.4,0.8,0.8,1.2,0.8H43l0,0l0,0c0.4,0,0.8-0.4,0.8-0.8C43.6,45.7,43.6,45.2,43.6,45.2z M27.6,22.2l-2.1,0.4H15V11.7h10.5
				h2.1c4.6,0,6.3,2.1,6.3,5.1C33.5,20.1,32.2,22.2,27.6,22.2z"/>
		</g>
	</g>
</g>
</svg>
