<?xml version="1.0" encoding="utf-8"?>
<!-- Generator: Adobe Illustrator 26.1.0, SVG Export Plug-In . SVG Version: 6.00 Build 0)  -->
<svg version="1.1" id="Layer_1" xmlns="http://www.w3.org/2000/svg" xmlns:xlink="http://www.w3.org/1999/xlink" x="0px" y="0px"
	 viewBox="0 0 1056.6 202" style="enable-background:new 0 0 1056.6 202;" xml:space="preserve">
<g id="Livello_1_1_">
</g>
<g id="Layer_1_00000121280000816817959920000000882230360127541942_">
</g>
<g>
	<path style="fill:#FFFFFF;" d="M264.3,71.7h18.5c15.4,0,20,2.6,20,11c0,3.7-0.9,8.5-2,14.8c-4.2,20-5.2,24.3-26.5,24.3h-20.6
		L264.3,71.7z M275,109.6c6.1,0,6.2-0.5,8.8-12.8c1.1-5.1,1.7-8.1,1.7-10c0-2.8-1.5-2.9-5.1-2.9h-1.7l-5.5,25.7H275z"/>
	<path style="fill:#FFFFFF;" d="M303.3,113.6c0-2.6,0.6-6.1,1.5-10.4c3.4-15.6,4.4-19.1,21-19.1c13.4,0,17.4,2.1,17.4,8.8
		c0,2.6-0.5,6.1-1.5,10.3c-3.5,15.6-4.6,19.1-21.1,19.1C307.3,122.3,303.3,120.2,303.3,113.6z M316.2,70.8h12l-2,9h-12L316.2,70.8z
		 M326.5,103.2c0.7-3.3,1-5.3,1-6.5c0-1.5-0.8-1.7-2.5-1.7c-3.1,0-3.1,0.4-4.7,8.2c-0.7,3.5-1.1,5.5-1.1,6.6c0,1.5,0.7,1.6,2.5,1.6
		C324.7,111.4,324.8,111,326.5,103.2z M332.5,70.8h11.9l-2,9h-11.9L332.5,70.8z"/>
	<path style="fill:#FFFFFF;" d="M348.8,84.6H364l-0.6,24h0.8l9.3-24h15.7l-17.4,37.1h-21.4L348.8,84.6z"/>
	<path style="fill:#FFFFFF;" d="M386.6,114.4c0-2,0.7-5.6,1.4-9.1l4.4-20.7h15.5l-3.9,18.6c-0.5,2.3-0.9,4.6-0.9,5.5
		c0,1.4,0.5,1.5,1.7,1.5c2.8,0,3-0.4,4.2-6l4.2-19.6h15.5l-7.8,37.1h-15l0.6-4.1h-0.7c-3.1,3.9-7.2,4.7-10,4.7
		C388.6,122.3,386.6,119.7,386.6,114.4z M399.3,70.8h12l-2,9h-12L399.3,70.8z M415.6,70.8h11.9l-2,9h-11.9L415.6,70.8z"/>
	<path style="fill:#FFFFFF;" d="M446.2,96.4c0,0.7,0.4,0.7,2.8,1l7.2,1.1c3.5,0.5,6.2,1.5,6.2,6.4c0,1.3-0.2,3.1-0.7,4.9
		c-2,9.8-6.3,11.9-13.4,12.4l-5,13.2h-13.7v-0.4l8.4-12.9c-3.6-0.1-7.4-0.5-10-0.9l2-9.9c3.6,0.3,7.8,0.5,10,0.5
		c3.6,0,5.6,0,6.6-0.4c0.8-0.3,1-0.8,1-1.7c0-0.5-0.6-0.7-3.3-1.1l-8.4-1.2c-3.4-0.5-4.6-2.5-4.6-5.7c0-1.7,0.4-3.9,0.9-6.3
		c2.3-10.5,8.1-11.4,18.7-11.4c5.2,0,11.2,0.4,14.2,1l-2,9.9c-4.1-0.3-8.1-0.5-9.7-0.5c-3.6,0-5.5,0.1-6.3,0.5
		C446.3,95.2,446.2,95.7,446.2,96.4z"/>
	<path style="fill:#FFFFFF;" d="M486.6,111.1c0-3.7,1.2-8.6,2.4-15.1c3.9-20.2,5.3-24.9,26.2-24.9c15.5,0,20.1,2.9,20.1,11.3
		c0,3.8-0.9,8.6-2.3,15c-4.7,20.3-5.4,24.9-26,24.9C491.4,122.3,486.6,119.4,486.6,111.1z M516.1,96.7c1.2-5.5,1.8-8.9,1.8-10.8
		c0-2.6-1.2-2.7-4.1-2.7c-5.1,0-5.2,0.3-7.9,13.4c-1.2,5.7-2,9-2,10.9c0,2.5,1.2,2.5,4.1,2.5C513.2,110.1,513.3,109.9,516.1,96.7z"
		/>
	<path style="fill:#FFFFFF;" d="M534.8,135.6l2-9.8h9.6c8,0,8.2,0,9.4-5.6c0.3-1.2,0.5-2.5,0.8-3.8h-0.7c-3.1,3.9-6.8,4.7-9.5,4.7
		c-7.2,0-9.4-2.8-9.4-7.8c0-1.9,0.3-4.1,0.9-6.6l4.7-22h15.6l-3.9,18.4c-0.5,2.4-0.8,3.9-0.8,4.7c0,1.3,0.6,1.3,2,1.3
		c2.5,0,2.7-0.1,4-6l3.9-18.4h15.6l-7,33.1c-2.6,12.4-3.6,19-23.8,19C543.2,136.7,537.7,136.2,534.8,135.6z"/>
	<path style="fill:#FFFFFF;" d="M579.5,114.4c0-2,0.7-5.6,1.4-9.1l4.4-20.7h15.5l-3.9,18.6c-0.5,2.3-0.9,4.6-0.9,5.5
		c0,1.4,0.5,1.5,1.7,1.5c2.8,0,3-0.4,4.2-6l4.2-19.6h15.5l-7.8,37.1h-15l0.6-4.1h-0.7c-3.1,3.9-7.2,4.7-10,4.7
		C581.5,122.3,579.5,119.7,579.5,114.4z"/>
	<path style="fill:#FFFFFF;" d="M628.1,84.6h15l-0.6,4.1h0.7c3.1-3.9,7.2-4.7,10-4.7c7,0,9,2.5,9,7.6c0,2-0.6,5.6-1.3,9.1l-4.5,21
		h-15.5l3.9-18.6c0.5-2.3,0.9-4.6,0.9-5.5c0-1.4-0.5-1.5-1.7-1.5c-2.8,0-3,0.4-4.2,6l-4.2,19.6h-15.5L628.1,84.6z"/>
	<path style="fill:#FFFFFF;" d="M674.4,67.7h15.8l-11.4,54h-15.8L674.4,67.7z"/>
	<path style="fill:#FFFFFF;" d="M686.9,113.5c0-2.6,0.3-6,1.2-10.2c3.1-15.1,7-19.2,14.4-19.2c4,0,7.7,0.5,9.6,4.2h0.7l1.2-3.7H729
		l-7.8,37.1h-15l0.7-4.1H706c-2.6,3.9-6,4.7-9.3,4.7C690.1,122.3,686.9,120.3,686.9,113.5z M708.3,108.5c0.7-2,2.3-9,2.3-10.8
		c0-1.5-0.5-1.6-2.4-1.6c-3,0-3.1,0.1-4.6,7.1c-0.7,2.9-0.9,4.6-0.9,5.7c0,1.4,0.7,1.5,2.5,1.5C707.2,110.3,707.7,110.1,708.3,108.5
		z"/>
	<path style="fill:#FFFFFF;" d="M735.6,84.6h15l-1,6.2h0.7c3.2-5.5,5.9-6.8,12.6-6.8L760,97.6c-9.7,0-12,1.8-14.1,11.7l-2.7,12.4
		h-15.5L735.6,84.6z"/>
	<path style="fill:#FFFFFF;" d="M767.4,84.6h15.8l-7.8,37.1h-15.8L767.4,84.6z"/>
</g>
<g>
	<path style="fill:#FFFFFF;" d="M104.2,91.1H88.3v2.7c0,2.8-1.9,5.2-4.5,5.9c1,1.3,2.6,2.2,4.4,2.2h14h2c3,0,5.4-2.4,5.4-5.4
		C109.6,93.6,107.2,91.1,104.2,91.1z"/>
	<path style="fill:#FFFFFF;" d="M82.5,103.5c-1.2-1-2.1-2.2-2.7-3.7c-4-0.5-7.4-2.8-9.4-6.1c-1.2,5.3-3.4,10.9-7.1,14.7
		c-2.9,2.9-6.5,4.4-10.6,4.4c-1,0-1.8-0.8-1.8-1.8c0-1,0.8-1.8,1.8-1.8c3.2,0,5.8-1.1,8.1-3.4c4-4,5.9-10.8,6.7-15.8
		c0.9-5.3,1-9.7,1-10.2v-0.1c0-1,0.8-1.8,1.8-1.8l0,0c1,0,1.8,0.8,1.8,1.8c0,0,0,0.1,0,0.2v6.8c0,5.2,4.3,9.5,9.5,9.5h0.6
		c1.4,0,2.6-1.2,2.6-2.6V75.2c0-4.8-3.9-8.6-8.6-8.6H60c-2.2,0-4.2,1-5.5,2.7L44.2,82.8c-0.3,0.4-0.9,0.7-1.4,0.7H20.1v40.1h23.2
		c0.6,0,1.1,0.3,1.5,0.8c2.7,4,7.2,6.4,12,6.4h23.8c-0.9-1.3-1.4-2.8-1.4-4.5v-1.9c0-2.5,1.2-4.8,3-6.3c-1.8-1.5-3-3.7-3-6.3V110
		C79.2,107.4,80.5,105,82.5,103.5z"/>
	<path style="fill:#FFFFFF;" d="M106.6,76.7H88.3v10.8h15.9h2.4c3,0,5.4-2.4,5.4-5.4C112.1,79.1,109.6,76.7,106.6,76.7z"/>
	<path style="fill:#FFFFFF;" d="M102.9,126.3v-1.9c0-2.5-2-4.5-4.5-4.5H87.2c-2.5,0-4.5,2-4.5,4.5v1.9c0,2.5,2,4.5,4.5,4.5h11.2
		C100.8,130.8,102.9,128.8,102.9,126.3z"/>
	<path style="fill:#FFFFFF;" d="M87.2,116.4h11.2h3.8c2.5,0,4.5-2,4.5-4.5V110c0-2.5-2-4.5-4.5-4.5h-14h-0.9c-2.5,0-4.5,2-4.5,4.5
		v1.9C82.7,114.3,84.7,116.4,87.2,116.4z"/>
	<path style="fill:#FFFFFF;" d="M137.8,102h2h14c1.8,0,3.4-0.8,4.4-2.2c-2.6-0.7-4.5-3.1-4.5-5.9v-2.7h-15.9c-3,0-5.4,2.4-5.4,5.4
		C132.4,99.5,134.9,102,137.8,102z"/>
	<path style="fill:#FFFFFF;" d="M137.8,87.6h15.9V76.7h-18.4c-3,0-5.4,2.4-5.4,5.4c0,3,2.4,5.4,5.4,5.4L137.8,87.6L137.8,87.6z"/>
	<path style="fill:#FFFFFF;" d="M154.8,119.9h-11.2c-2.5,0-4.5,2-4.5,4.5v1.9c0,2.5,2,4.5,4.5,4.5h11.2c2.5,0,4.5-2,4.5-4.5v-1.9
		C159.3,121.9,157.3,119.9,154.8,119.9z"/>
	<path style="fill:#FFFFFF;" d="M199.3,83.5c-0.6,0-1.1-0.3-1.4-0.7l-10.3-13.5c-1.3-1.7-3.4-2.7-5.5-2.7H166
		c-4.8,0-8.6,3.9-8.6,8.6v18.6c0,1.4,1.2,2.6,2.6,2.6h0.6c5.2,0,9.5-4.3,9.5-9.5v-6.8c0-0.1,0-0.1,0-0.2c0-1,0.8-1.8,1.8-1.8l0,0
		c1,0,1.8,0.8,1.8,1.8V80c0,0.5,0,5,1,10.2c0.9,5,2.8,11.8,6.7,15.8c2.3,2.3,4.9,3.4,8.1,3.4c1,0,1.8,0.8,1.8,1.8
		c0,1-0.8,1.8-1.8,1.8c-4.1,0-7.7-1.5-10.6-4.4c-3.7-3.8-5.9-9.4-7.1-14.7c-2,3.3-5.4,5.6-9.4,6.1c-0.6,1.4-1.5,2.7-2.7,3.7
		c2,1.5,3.3,3.8,3.3,6.5v1.9c0,2.5-1.2,4.8-3,6.3c1.8,1.5,3,3.7,3,6.3v1.9c0,1.7-0.5,3.2-1.4,4.5h23.8c4.8,0,9.3-2.4,12-6.4
		c0.3-0.5,0.9-0.8,1.5-0.8H222V83.5H199.3z"/>
	<path style="fill:#FFFFFF;" d="M154.8,105.5h-0.9h-14c-2.5,0-4.5,2-4.5,4.5v1.9c0,2.5,2,4.5,4.5,4.5h3.8h11.2c2.5,0,4.5-2,4.5-4.5
		V110C159.3,107.5,157.3,105.5,154.8,105.5z"/>
	<path style="fill:#FFFFFF;" d="M121,27c-1,0-1.8,0.8-1.8,1.8v26.5c0,1,0.8,1.8,1.8,1.8c1,0,1.8-0.8,1.8-1.8V28.8
		C122.8,27.8,122,27,121,27z"/>
	<path style="fill:#FFFFFF;" d="M106.1,60.8c0.3,0.5,0.9,0.8,1.5,0.8c0.3,0,0.7-0.1,1-0.3c0.8-0.5,1.1-1.6,0.5-2.5L94.9,36.5
		c-0.5-0.8-1.6-1.1-2.5-0.5c-0.8,0.5-1.1,1.6-0.5,2.5L106.1,60.8z"/>
	<path style="fill:#FFFFFF;" d="M121,148.8c-1,0-1.8,0.8-1.8,1.8v26.5c0,1,0.8,1.8,1.8,1.8c1,0,1.8-0.8,1.8-1.8v-26.5
		C122.8,149.5,122,148.8,121,148.8z"/>
	<path style="fill:#FFFFFF;" d="M108.6,144.5c-0.8-0.5-1.9-0.3-2.5,0.5l-14.3,22.3c-0.5,0.8-0.3,1.9,0.5,2.5c0.3,0.2,0.6,0.3,1,0.3
		c0.6,0,1.2-0.3,1.5-0.8l14.3-22.3C109.6,146.1,109.4,145,108.6,144.5z"/>
	<path style="fill:#FFFFFF;" d="M133.5,61.3c0.3,0.2,0.6,0.3,1,0.3c0.6,0,1.2-0.3,1.5-0.8l14.3-22.3c0.5-0.8,0.3-1.9-0.5-2.5
		c-0.8-0.5-1.9-0.3-2.5,0.5L133,58.9C132.4,59.7,132.7,60.8,133.5,61.3z"/>
	<path style="fill:#FFFFFF;" d="M135.9,145c-0.5-0.8-1.6-1.1-2.5-0.5c-0.8,0.5-1.1,1.6-0.5,2.5l14.3,22.3c0.3,0.5,0.9,0.8,1.5,0.8
		c0.3,0,0.7-0.1,1-0.3c0.8-0.5,1.1-1.6,0.5-2.5L135.9,145z"/>
</g>
</svg>
