<?xml version="1.0" encoding="utf-8"?>
<!-- Generator: Adobe Illustrator 24.1.2, SVG Export Plug-In . SVG Version: 6.00 Build 0)  -->
<svg version="1.1" id="Layer_1" xmlns="http://www.w3.org/2000/svg" xmlns:xlink="http://www.w3.org/1999/xlink" x="0px" y="0px"
	 viewBox="0 0 108.7 33.3" style="enable-background:new 0 0 108.7 33.3;" xml:space="preserve">
<style type="text/css">
	.st0{fill:#FFFFFF;}
</style>
<g>
	<path class="st0" d="M3.9,16.2c0,1.1,0.6,1.7,1.9,1.7c1.3,0,1.7-0.6,1.7-1.7V5.7c0-0.3,0.1-0.6,0.6-0.6h1.9c0.3,0,0.6,0.2,0.6,0.6
		v11.1c0,1.8-1,3.7-4.8,3.7s-4.8-1.7-4.8-3.7v-1.4c0-0.3,0.1-0.6,0.6-0.6h1.8C3.8,14.8,4,15,4,15.4v0.8H3.9z"/>
	<path class="st0" d="M18.4,5.1c0.3,0,0.6,0.2,0.7,0.6l4.1,13.9c0.1,0.3,0,0.6-0.3,0.6h-1.9c-0.3,0-0.6-0.2-0.7-0.6l-0.8-2.7h-4.1
		l-0.8,2.7c-0.1,0.3-0.2,0.6-0.7,0.6H12c-0.3,0-0.6-0.2-0.5-0.6l4.1-13.9c0.1-0.3,0.3-0.6,0.7-0.6C16.4,5.1,18.4,5.1,18.4,5.1z
		 M18.1,12.1c-0.3-0.9-0.6-3.8-0.7-4c0,0.3-0.5,3.1-0.7,4l-0.8,2.5h2.9L18.1,12.1z"/>
	<path class="st0" d="M34.6,16.7c0,1.8-1.1,3.7-5.1,3.7s-5.1-1.7-5.1-3.7V8.6c0-1.8,1.1-3.7,5.1-3.7s5.1,1.7,5.1,3.7v1
		c0,0.3-0.1,0.6-0.5,0.6h-1.9c-0.3,0-0.6-0.1-0.6-0.6V9.1c0-1.1-0.8-1.7-2.3-1.7C27.8,7.4,27,8,27,9.1v7.1c0,1.1,0.8,1.7,2.3,1.7
		c1.5,0,2.3-0.6,2.3-1.7v-0.8c0-0.3,0.1-0.6,0.6-0.6H34c0.3,0,0.5,0.1,0.5,0.6v1.3H34.6z"/>
	<path class="st0" d="M47.5,19.6c0.2,0.2,0.1,0.6-0.3,0.6h-2.4c-0.3,0-0.6-0.3-0.8-0.6l-4.1-5.8h-0.3v5.8c0,0.3-0.1,0.6-0.6,0.6H37
		c-0.3,0-0.6-0.2-0.6-0.6V5.7c0-0.3,0.1-0.6,0.6-0.6h1.9c0.3,0,0.6,0.2,0.6,0.6v5.9h0.3l3.9-5.9c0.2-0.3,0.5-0.6,0.9-0.6h2.1
		c0.3,0,0.5,0.2,0.2,0.6l-4.6,6.9L47.5,19.6z"/>
	<path class="st0" d="M51.8,14.8v4.7c0,0.3-0.1,0.6-0.6,0.6h-1.9c-0.3,0-0.6-0.2-0.6-0.6V5.7c0-0.3,0.1-0.6,0.6-0.6H54
		c4,0,5.4,1.7,5.4,3.7v2.5c0,1.8-1.4,3.7-5.4,3.7h-2.2V14.8z M51.8,7.6v4.8H54c1.5,0,2.4-0.6,2.4-1.6V9.2c0-1.1-0.9-1.7-2.4-1.7
		h-2.2V7.6z"/>
	<path class="st0" d="M60.8,8.6c0-1.8,1.4-3.7,5.4-3.7s5.4,1.7,5.4,3.7v8.2c0,1.8-1.4,3.7-5.4,3.7s-5.4-1.7-5.4-3.7V8.6z M68.6,9.1
		c0-1.1-0.9-1.7-2.4-1.7S63.8,8,63.8,9.1v7.1c0,1.1,0.9,1.7,2.4,1.7c1.5,0,2.4-0.6,2.4-1.7V9.1z"/>
	<path class="st0" d="M82.3,5.1c0.3,0,0.6,0.1,0.6,0.6v1.4c0,0.3-0.2,0.6-0.6,0.6h-3.1v11.9c0,0.3-0.1,0.6-0.6,0.6h-1.9
		c-0.3,0-0.6-0.2-0.6-0.6V7.6h-3.1c-0.3,0-0.6-0.1-0.6-0.6V5.7c0-0.3,0.1-0.6,0.6-0.6H82.3z"/>
</g>
<g>
	<path class="st0" d="M47.3,24.2c0-0.6-0.3-0.9-1.4-0.9c-1,0-1.4,0.3-1.4,0.9v0.2c0,0.6,0.3,0.7,0.6,0.8l2.1,0.8
		c0.7,0.2,1.3,0.7,1.3,1.6v0.9c0,0.9-0.7,1.7-2.5,1.7c-1.8,0-2.5-0.8-2.5-1.7v-0.7c0-0.1,0.1-0.2,0.2-0.2h0.7c0.1,0,0.2,0.1,0.2,0.2
		v0.5c0,0.6,0.5,0.9,1.5,0.9c1,0,1.5-0.3,1.5-0.9v-0.6c0-0.6-0.5-0.8-0.9-0.9l-1.9-0.7c-0.5-0.2-1-0.7-1-1.4v-0.7
		c0-0.9,0.6-1.7,2.4-1.7c1.8,0,2.5,0.8,2.5,1.7v0.5c0,0.1,0,0.2-0.2,0.2h-0.7c-0.1,0-0.2-0.1-0.2-0.2v-0.3H47.3z"/>
	<path class="st0" d="M50.9,29.2h3c0.1,0,0.2,0,0.2,0.2V30c0,0.1-0.1,0.2-0.2,0.2h-3.9c-0.1,0-0.2-0.1-0.2-0.2v-7.3
		c0-0.1,0.1-0.2,0.2-0.2h0.7c0.1,0,0.2,0.1,0.2,0.2C50.9,22.7,50.9,29.2,50.9,29.2z"/>
	<path class="st0" d="M54.7,24.1c0-0.9,0.7-1.7,2.6-1.7s2.6,0.8,2.6,1.7v4.5c0,0.9-0.7,1.7-2.6,1.7s-2.6-0.8-2.6-1.7V24.1z
		 M58.7,24.2c0-0.6-0.5-1-1.5-1c-1,0-1.5,0.3-1.5,1v4.1c0,0.6,0.5,1,1.5,1s1.5-0.3,1.5-1V24.2z"/>
	<path class="st0" d="M65.5,22.4c0.1,0,0.2,0.1,0.2,0.2v0.5c0,0.1-0.1,0.2-0.2,0.2h-1.8v6.6c0,0.1-0.1,0.2-0.2,0.2h-0.7
		c-0.1,0-0.2-0.1-0.2-0.2v-6.6h-1.8c-0.1,0-0.2-0.1-0.2-0.2v-0.5c0-0.1,0.1-0.2,0.2-0.2C60.7,22.4,65.5,22.4,65.5,22.4z"/>
	<path class="st0" d="M67.7,29.2h3c0.1,0,0.2,0,0.2,0.2V30c0,0.1-0.1,0.2-0.2,0.2h-3.9c-0.1,0-0.2-0.1-0.2-0.2v-7.3
		c0-0.1,0.1-0.2,0.2-0.2h0.7c0.1,0,0.2,0.1,0.2,0.2C67.7,22.7,67.7,29.2,67.7,29.2z"/>
	<path class="st0" d="M74.3,22.4c0.1,0,0.2,0.1,0.2,0.2l2.2,7.3c0,0.1,0,0.2-0.1,0.2h-0.7c-0.1,0-0.2-0.1-0.2-0.2l-0.5-1.7h-2.4
		l-0.6,1.7c0,0.1-0.1,0.2-0.2,0.2h-0.7c-0.1,0-0.2-0.1-0.1-0.2l2.2-7.3c0-0.1,0.1-0.2,0.2-0.2H74.3z M74.3,25.2
		c-0.1-0.5-0.3-1.5-0.3-1.7c0,0.1-0.2,1.1-0.3,1.6l-0.7,2.1h1.9L74.3,25.2z"/>
	<path class="st0" d="M78.9,27.1v2.9c0,0.1,0,0.2-0.2,0.2H78c-0.1,0-0.2-0.1-0.2-0.2v-7.3c0-0.1,0.1-0.2,0.2-0.2h2.3
		c1.9,0,2.6,0.8,2.6,1.7v1.1c0,0.7-0.3,1.4-1.4,1.6l1.4,3c0.1,0.1,0,0.2-0.2,0.2H82c-0.1,0-0.2-0.1-0.2-0.2L80.5,27h-0.2h-1.4V27.1z
		 M78.9,23.3V26h1.4c1,0,1.5-0.3,1.5-1v-0.8c0-0.6-0.5-1-1.5-1h-1.4V23.3z"/>
</g>
<g>
	<path class="st0" d="M107.4,10.9c-0.2-0.3-0.5-0.5-0.8-0.6l-1.8-0.4l0.8-0.2c0.7-0.2,1.1-0.9,0.9-1.6c-0.2-0.7-0.9-1.1-1.6-0.9
		L101,8.2c-0.1-0.2-0.2-0.3-0.4-0.5c0.8-1.5,2-4,2-5.1c0-0.3-0.3-0.5-0.5-0.4c-1.6,0.3-3,0.5-4.5,0.4c-1.5,0-3.3-0.2-4.5-0.4
		c-0.4-0.1-0.6,0.3-0.5,0.6c0.3,0.5,0.5,1,0.5,1.5c-1.4,0-2.9-0.1-4.1-0.7c-0.3-0.2-0.7,0.1-0.6,0.5c0.4,2.1,1.1,3.4,1.8,4.4h0
		c-0.7,0-1.3,0.6-1.3,1.3c0,0.7,0.5,1.2,1.2,1.3c-0.5,0.8-1.2,1.6-1.9,2.4c-1.5,1.7-3.2,3.6-3.8,6.7c-0.3,1.5-0.3,2.9,0,4.1
		c0.3,1.2,0.8,2.2,1.6,3.1c1,1.2,2.4,2.2,4.1,2.8c1.6,0.6,3.3,0.9,5.2,0.9s3.6-0.3,5.2-0.9c1.7-0.6,3.1-1.6,4.1-2.8
		c0.8-0.9,1.3-2,1.6-3.1c0.3-1.3,0.3-2.6,0-4.1c-0.6-3.1-2.3-5-3.8-6.7c-0.5-0.6-1-1.1-1.4-1.7l5.1,1.2c0.5,0.1,1.1-0.1,1.4-0.6
		C107.7,11.9,107.7,11.4,107.4,10.9z M105.1,7.9c0.3-0.1,0.5,0.1,0.6,0.3c0.1,0.3-0.1,0.5-0.3,0.6l-2.3,0.6c0,0,0,0-0.1,0l-1.9-0.4
		v0L105.1,7.9z M99.8,8.4c0.3,0,0.5,0.2,0.5,0.5v1.8c0,0.3-0.2,0.5-0.5,0.5c-0.3,0-0.5-0.2-0.5-0.5V8.8C99.3,8.6,99.5,8.4,99.8,8.4z
		 M93.7,3.2c1.1,0.2,2.6,0.3,3.8,0.3c1.3,0,2.6-0.1,4-0.4c-0.3,1.1-1.1,2.9-1.9,4.4c-0.5,0-1,0.4-1.2,0.9h-1.2
		c0-0.1-0.1-0.1-0.1-0.2c-0.4-0.8-1.1-2.4-1.1-3.8c0-0.3-0.3-0.5-0.5-0.4c-0.5,0.1-1,0.2-1.6,0.2C93.9,3.9,93.8,3.5,93.7,3.2z
		 M92.7,8.4h-1.3c0,0,0,0,0,0c-0.7-0.9-1.4-1.9-1.9-3.7c1.1,0.4,2.4,0.5,3.8,0.5l0.8-0.1c0.4,0,0.8-0.1,1.2-0.2
		c0.1,1.3,0.7,2.7,1.1,3.5h-2.8H92.7z M105.3,20.3c0.5,2.6,0,4.8-1.4,6.6c-1.8,2.1-5,3.4-8.6,3.4c-3.6,0-6.9-1.3-8.6-3.4
		c-1.4-1.7-1.9-3.9-1.4-6.6c0.5-2.9,2.2-4.7,3.6-6.3c0.9-1,1.7-1.9,2.2-2.9h1c0.2,0,0.4-0.2,0.4-0.4s-0.2-0.4-0.4-0.4h-1.8
		c-0.3,0-0.5-0.2-0.5-0.5s0.2-0.5,0.5-0.5h8.2v1h-4.4c-0.2,0-0.4,0.2-0.4,0.4s0.2,0.4,0.4,0.4h4.4c0.2,0.5,0.7,0.9,1.3,0.9
		c0.1,0,0.1,0,0.2,0c0.5,0.7,1.1,1.3,1.7,2C103.1,15.6,104.7,17.4,105.3,20.3z M106.8,11.7c-0.1,0.3-0.3,0.4-0.6,0.4l-5.1-1.2
		c0-0.1,0-0.2,0-0.3V9.9l5.3,1.2C106.7,11.2,106.8,11.5,106.8,11.7z"/>
	<path class="st0" d="M96.3,14.8v-0.7c0-0.6-0.5-1.1-1.1-1.1c-0.6,0-1.1,0.5-1.1,1.1v0.8c-1.6,0.4-2.7,1.8-2.7,3.4
		c0,1.9,1.6,3.5,3.5,3.5h0.7c0.7,0,1.3,0.6,1.3,1.3c0,0.7-0.6,1.3-1.3,1.3h-1c-0.5,0-0.9-0.4-0.9-0.9c0-0.6-0.5-1.1-1.1-1.1
		c-0.6,0-1.1,0.5-1.1,1.1c0,1.6,1.2,2.9,2.7,3.1v0.7c0,0.6,0.5,1.1,1.1,1.1c0.6,0,1.1-0.5,1.1-1.1v-0.8c1.6-0.4,2.7-1.8,2.7-3.4
		c0-1.9-1.6-3.5-3.5-3.5h-0.7c-0.7,0-1.3-0.6-1.3-1.3c0-0.7,0.6-1.3,1.3-1.3h1c0.5,0,0.9,0.4,0.9,0.9v0.7c0,0.6,0.5,1.1,1.1,1.1
		c0.6,0,1.1-0.5,1.1-1.1v-0.7C99.1,16.3,97.9,15,96.3,14.8z M98.2,18.6c0,0.1-0.1,0.3-0.3,0.3s-0.3-0.1-0.3-0.3v-0.7
		c0-1-0.8-1.8-1.8-1.8h-1c-1.2,0-2.1,1-2.1,2.1s1,2.1,2.1,2.1h0.7c1.5,0,2.6,1.2,2.6,2.6c0,1.3-1,2.5-2.4,2.6
		c-0.2,0-0.4,0.2-0.4,0.4v1.2c0,0.1-0.1,0.3-0.3,0.3S95,27.4,95,27.3v-1.1c0-0.2-0.2-0.4-0.4-0.4c-1.3,0-2.3-1-2.3-2.3
		c0-0.1,0.1-0.3,0.3-0.3s0.3,0.1,0.3,0.3c0,1,0.8,1.8,1.8,1.8h1c1.2,0,2.1-1,2.1-2.1c0-1.2-1-2.1-2.1-2.1h-0.7
		c-1.5,0-2.6-1.2-2.6-2.6c0-1.3,1-2.5,2.4-2.6c0.2,0,0.4-0.2,0.4-0.4v-1.2c0-0.1,0.1-0.3,0.3-0.3s0.3,0.1,0.3,0.3v1.1
		c0,0.2,0.2,0.4,0.4,0.4c1.3,0,2.3,1,2.3,2.3V18.6z"/>
</g>
</svg>
