<?xml version="1.0" encoding="utf-8"?>
<!-- Generator: Adobe Illustrator 26.1.0, SVG Export Plug-In . SVG Version: 6.00 Build 0)  -->
<svg version="1.1" id="Layer_1" xmlns="http://www.w3.org/2000/svg" xmlns:xlink="http://www.w3.org/1999/xlink" x="0px" y="0px"
	 viewBox="0 0 1056.6 202" style="enable-background:new 0 0 1056.6 202;" xml:space="preserve">
<g id="Livello_1_1_">
</g>
<g id="Layer_1_00000121280000816817959920000000882230360127541942_">
</g>
<g>
	<path style="fill:#FFFFFF;" d="M253.6,109.3c9.4,0,9.8-0.4,11.5-8.2l6.5-30.3h17l-6.1,29.1c-4.2,20.1-4.7,20.9-31.3,20.9
		L253.6,109.3z"/>
	<path style="fill:#FFFFFF;" d="M285.9,112.6c0-2.6,0.6-6.1,1.5-10.4c3.4-15.6,4.4-19.1,21-19.1c13.4,0,17.4,2.1,17.4,8.8
		c0,2.6-0.5,6.1-1.5,10.3c-3.5,15.6-4.6,19.1-21.1,19.1C289.9,121.3,285.9,119.2,285.9,112.6z M309,102.2c0.7-3.3,1-5.3,1-6.5
		c0-1.5-0.8-1.7-2.5-1.7c-3.1,0-3.1,0.4-4.7,8.2c-0.7,3.5-1.1,5.5-1.1,6.6c0,1.5,0.7,1.6,2.5,1.6C307.3,110.4,307.3,110.1,309,102.2
		z"/>
	<path style="fill:#FFFFFF;" d="M337.5,66.8h15.6l-6.5,30.5h0.7l10.4-13.5h16.6l-15,18.2l7.6,18.9h-16.6l-4.9-13.4h-0.7l-2.8,13.4
		h-15.5L337.5,66.8z"/>
	<path style="fill:#FFFFFF;" d="M369.6,112.1c0-2.7,0.3-5.9,1.1-9.8c2.8-13.7,4.2-19.2,20.9-19.2c13.1,0,16.5,2.1,16.5,8
		c0,2.8-1.1,7.6-1.9,11.2l-0.7,2.8h-20.2c-0.1,0.7-0.5,2.4-0.5,3c0,2.3,0.6,2.3,8.1,2.3c2.5,0,7.1-0.2,11.3-0.5l-2.1,10
		c-2.9,0.9-8.6,1.5-13.7,1.5C373.8,121.3,369.6,118.6,369.6,112.1z M392.9,99l0.2-1.2c0.3-1.7,0.5-2.5,0.5-3.3
		c0-1.5-0.7-1.5-2.6-1.5c-3.1,0-3.1,0.1-4.4,6H392.9z"/>
	<path style="fill:#FFFFFF;" d="M416.1,83.7h15l-1,6.2h0.7c3.2-5.5,5.9-6.8,12.6-6.8l-2.9,13.5c-9.7,0-12,1.8-14.1,11.7l-2.7,12.4
		h-15.5L416.1,83.7z"/>
	<path style="fill:#FFFFFF;" d="M461.9,110.2c0-3.7,1.2-8.6,2.4-15.1c3.9-20.2,5.3-24.9,26.2-24.9c15.5,0,20.1,2.9,20.1,11.3
		c0,3.8-0.9,8.6-2.3,15c-4.7,20.3-5.4,24.9-26,24.9C466.7,121.3,461.9,118.4,461.9,110.2z M491.4,95.8c1.2-5.5,1.8-8.9,1.8-10.8
		c0-2.6-1.2-2.7-4.1-2.7c-5.1,0-5.2,0.3-7.9,13.4c-1.2,5.7-2,9-2,10.9c0,2.5,1.2,2.5,4.1,2.5C488.5,109.2,488.6,108.9,491.4,95.8z"
		/>
	<path style="fill:#FFFFFF;" d="M510,134.7l2-9.8h9.6c8,0,8.2,0,9.4-5.6c0.3-1.2,0.5-2.5,0.8-3.8h-0.7c-3.1,3.9-6.8,4.7-9.5,4.7
		c-7.2,0-9.4-2.8-9.4-7.8c0-1.9,0.3-4.1,0.9-6.6l4.7-22h15.6l-3.9,18.4c-0.5,2.4-0.8,3.9-0.8,4.7c0,1.3,0.6,1.3,2,1.3
		c2.5,0,2.7-0.1,4-6l3.9-18.4h15.6l-7,33.1c-2.6,12.4-3.6,19-23.8,19C518.5,135.7,513,135.3,510,134.7z"/>
	<path style="fill:#FFFFFF;" d="M554.8,113.5c0-2,0.7-5.6,1.4-9.1l4.4-20.7h15.5l-3.9,18.6c-0.5,2.3-0.9,4.6-0.9,5.5
		c0,1.4,0.5,1.5,1.7,1.5c2.8,0,3-0.4,4.2-6l4.2-19.6h15.5l-7.8,37.1h-15l0.6-4.1h-0.7c-3.1,3.9-7.2,4.7-10,4.7
		C556.8,121.3,554.8,118.7,554.8,113.5z"/>
	<path style="fill:#FFFFFF;" d="M603.4,83.7h15l-0.6,4.1h0.7c3.1-3.9,7.2-4.7,10-4.7c7,0,9,2.5,9,7.6c0,2-0.6,5.6-1.3,9.1l-4.5,21
		h-15.5l3.9-18.6c0.5-2.3,0.9-4.6,0.9-5.5c0-1.4-0.5-1.5-1.7-1.5c-2.8,0-3,0.4-4.2,6l-4.2,19.6h-15.5L603.4,83.7z"/>
	<path style="fill:#FFFFFF;" d="M649.7,66.8h15.8l-11.4,54h-15.8L649.7,66.8z"/>
	<path style="fill:#FFFFFF;" d="M662.2,112.6c0-2.6,0.3-6,1.2-10.2c3.1-15.1,7-19.2,14.4-19.2c4,0,7.7,0.5,9.6,4.2h0.7l1.2-3.7h15.1
		l-7.8,37.1h-15l0.7-4.1h-0.8c-2.6,3.9-6,4.7-9.3,4.7C665.4,121.3,662.2,119.4,662.2,112.6z M683.6,107.5c0.7-2,2.3-9,2.3-10.8
		c0-1.5-0.5-1.6-2.4-1.6c-3,0-3.1,0.1-4.6,7.1c-0.7,2.9-0.9,4.6-0.9,5.7c0,1.4,0.7,1.5,2.5,1.5C682.5,109.4,683,109.2,683.6,107.5z"
		/>
	<path style="fill:#FFFFFF;" d="M710.9,83.7h15l-1,6.2h0.7c3.2-5.5,5.9-6.8,12.6-6.8l-2.9,13.5c-9.7,0-12,1.8-14.1,11.7l-2.7,12.4
		H703L710.9,83.7z"/>
	<path style="fill:#FFFFFF;" d="M742.7,83.7h15.8l-7.8,37.1h-15.8L742.7,83.7z"/>
</g>
<path style="fill:#FFFFFF;" d="M206,81c-3.3,0-6.2,1.6-8.1,4.1c-24.6-26.5-60.6,14.1-60.6,14.1c-8.8-37.6-31.7-48.7-44.4-51.9
	c0.9-1.5,1.5-3.3,1.5-5.3c0-5.5-4.5-10-10-10s-10,4.5-10,10s4.5,10,10,10c1.8,0,3.5-0.5,5-1.4c16,18.7-5.3,52.8-5.3,52.8
	c-26.5-14.1-44.8-3.5-53.3,4c-1.4-3.7-5.1-6.4-9.3-6.4c-5.5,0-10,4.5-10,10c0,5.5,4.5,10,10,10c4.2,0,7.9-2.6,9.3-6.4
	c38.4,12.3,40.6,49.9,40.6,49.9c36.9,19.3,87.1,0,87.1,0c8.1-67.8,27.2-74.6,37.5-73.7c0,0.1,0,0.1,0,0.2c0,5.5,4.5,10,10,10
	s10-4.5,10-10C216,85.5,211.5,81,206,81z"/>
</svg>
