<?xml version="1.0" encoding="UTF-8"?> <svg xmlns="http://www.w3.org/2000/svg" xmlns:xlink="http://www.w3.org/1999/xlink" version="1.1" id="Layer_1" x="0px" y="0px" viewBox="0 0 1000 1000" style="enable-background:new 0 0 1000 1000;" xml:space="preserve"> <path style="fill:#FFFFFF;" d="M923.4,258.5c-0.3,0-0.5,0-0.8,0.1h-825c-0.3-0.1-0.5-0.1-0.8-0.1C80.3,258.5,67,386.6,67,544.6 s13.3,286.1,29.7,286.1h826.6c16.4,0,29.7-128.1,29.7-286.1C953.1,386.6,939.8,258.5,923.4,258.5z M852.1,437.9v216.7H660.5V437.9 H852.1z M606.6,437.9v216.7H415V437.9H606.6z M169.5,437.9h191.6v216.7H169.5V437.9z"></path> <path style="fill:#FFFFFF;" d="M581.7,235.8l-18.4-89.5c-3.1-15.2-17.6-26.2-34.5-26.2h-17.8h-17.1c-16.9,0-31.3,11-34.5,26.2 l-18.4,89.5h22.6H581.7z"></path> <g> <path style="fill-rule:evenodd;clip-rule:evenodd;fill:#FFFFFF;" d="M265.8,633.2c22.4-33.6,39.1-47.1,65.7-75.1 c10.3-10.8,18.9-24.5,18.9-39.9c0-23.4-19.2-42.5-42.7-42.5c-20.5,0-37.8,14.6-41.7,33.9c-4-19.3-21.3-33.9-41.8-33.9 c-23.5,0-42.7,19.1-42.7,42.5c0,14.5,8.6,30.7,17.8,39.9C227.1,585.6,243.9,602.4,265.8,633.2z"></path> </g> <g> <path style="fill-rule:evenodd;clip-rule:evenodd;fill:#FFFFFF;" d="M510.9,633.2c22.4-33.6,39.1-47.1,65.7-75.1 c10.3-10.8,18.9-24.5,18.9-39.9c0-23.4-19.2-42.5-42.7-42.5c-20.5,0-37.8,14.6-41.7,33.9c-4-19.3-21.3-33.9-41.8-33.9 c-23.5,0-42.7,19.1-42.7,42.5c0,14.5,8.6,30.7,17.8,39.9C472.3,585.6,489.1,602.4,510.9,633.2z"></path> </g> <g> <path style="fill-rule:evenodd;clip-rule:evenodd;fill:#FFFFFF;" d="M756.5,633.2c22.4-33.6,39.1-47.1,65.7-75.1 c10.3-10.8,18.9-24.5,18.9-39.9c0-23.4-19.2-42.5-42.7-42.5c-20.5,0-37.8,14.6-41.7,33.9c-4-19.3-21.3-33.9-41.8-33.9 c-23.5,0-42.7,19.1-42.7,42.5c0,14.5,8.6,30.7,17.8,39.9C717.9,585.6,734.7,602.4,756.5,633.2z"></path> </g> </svg> 