<?xml version="1.0" encoding="UTF-8"?> <svg xmlns="http://www.w3.org/2000/svg" xmlns:xlink="http://www.w3.org/1999/xlink" version="1.1" id="Layer_1" x="0px" y="0px" viewBox="0 0 1000 1000" style="enable-background:new 0 0 1000 1000;" xml:space="preserve"> <path style="fill:#FFFFFF;" d="M986.4,527.3c0,7.7,0,15.4,0,23.1c-0.7,5.5-1.2,11-2,16.4c-6.5,43.7-24,82.5-55,114.2 c-53.9,55.1-119.6,76-194.9,59.8c-68.1-14.7-117.2-55.3-145.2-119.2c-23.9-54.5-45.8-109.8-68.6-164.8c-2.3-5.6-4.7-11.2-7.4-17.6 c-0.9,2-1.4,3-1.8,4.1c-23.1,55.8-46.4,111.6-69.3,167.5c-9,22-20,42.7-35.5,60.8c-37.1,43.3-83.9,68.1-140.8,73.6 c-34.1,3.3-67.3-1.3-98.4-15.3C92.1,696,49.8,637.6,41,555.4c-3.3-31,1.4-61.2,12.8-90.2c11.4-29,23.9-57.7,35.5-86.7 c13-32.4,46.3-53.1,80.8-49.5c2.9,0.3,4.3-0.6,5.4-3.3c5.3-13.1,10.4-26.3,16.5-39.1c12.2-25.8,43-38.7,70.2-30 c16.3,5.2,28,15.6,35.8,30.6c34-7.6,52.8,0.2,73.3,30.3c21.5-6.8,41.1-2.6,58.9,11.8c0.7-1.6,1.4-3,2-4.3 c4.8-11.5,9.4-23.1,14.4-34.5c2.5-5.6,4.8-11,4.4-17.5c-0.3-4.2,0.8-8.6,2-12.7c6.8-24.1,27.6-41.5,51.5-43.2 c25.4-1.8,49.3,12.2,59.6,35.5c6.9,15.6,13.1,31.5,19.7,47.3c4,9.7,8.1,19.4,12.3,29.4c1.1-0.8,1.7-1.2,2.3-1.7 c15.7-12.4,33.3-16.2,52.6-11.3c3.6,0.9,5,0.2,6.8-2.8c10.7-17.7,26.4-27.8,47.1-29c7.8-0.4,15.8,1.1,24.1,1.7 c-0.1,0.1,0.3-0.5,0.7-1.2c12.8-21.9,32-32.8,57.2-30.8c23.4,1.9,40.1,14.6,49.6,36.2c5.1,11.7,9.9,23.5,14.7,35.4 c1.1,2.6,2.4,3.2,5.1,3.2c6.4-0.2,13.1-0.7,19.3,0.4c29.5,5.3,50.3,21.9,61.9,49.7c9.5,22.9,18.9,45.8,28.5,68.6 c7.6,18,14.4,36.3,17.5,55.8C984.5,511.5,985.4,519.4,986.4,527.3z M727,490.5c-0.7,1.4-1.2,2.3-1.8,3.2 c-10,17.1-24.7,27.7-44.3,29.8c-28.8,3.1-51.8-11.2-63-38.1c-21.3-51.4-42.6-102.8-63.9-154.2c-8.4-20.3-16.7-40.7-25.2-61 c-5.6-13.3-20.5-17.9-31.2-9.8c-7.5,5.7-9.5,15.2-5.3,25.4c13.8,33.4,27.6,66.8,41.4,100.1c29.9,72.2,59.6,144.4,89.7,216.5 c31.6,75.8,111.7,117.8,190.8,100.6c94.6-20.6,152.3-116.7,126.1-210c-14.1-34.8-27.5-69.8-42.4-104.2 c-7.7-17.8-30.2-25.7-47.6-18.6c-37,15.1-73.9,30.4-110.8,45.8c-11.4,4.7-15.9,15.6-11.3,26.4c4.4,10.4,15.3,14.6,26.7,10 c7.3-2.9,14.5-6,21.7-9c22.7-9.4,45.4-18.9,68.1-28.3c8.8-3.6,18.1-1.1,23.6,6c5.2,6.8,5.8,16.9,0.1,23.6c-3,3.6-7.5,6.2-11.8,8.3 c-36.2,17.8-55.1,47-57.5,87c-0.9,14.2,2.6,27.8,7.5,41c4,10.6-1.1,21.5-11.2,25.4c-10.2,3.9-21-0.9-25.3-11.4 c-10.7-26.1-13.2-53-7.3-80.6c1.8-8.5,4.6-16.7,7.1-25.6C756.1,494.6,741.8,495.4,727,490.5z M257.2,489.3 c2.9,13.5,6.7,26.6,8.3,40.1c2.8,23.2-0.8,45.8-10.2,67.3c-3.7,8.5-13.2,12.9-21.8,10.7c-12.8-3.2-18.5-15-13.5-28.2 c11.9-31.4,8.8-61.4-8.8-89.7c-10.6-17.1-25.5-29.4-44.2-37.2c-11.9-4.9-16.6-16.9-11.2-27.6c4.9-9.8,15.8-13.5,26.8-8.9 c29.1,12.1,58.2,24.2,87.3,36.4c5,2.1,10,3.1,15.3,1.7c7.9-2.1,13.6-9,14.3-16.9c0.8-9.3-3.4-16.8-11.9-20.4 c-12.3-5.2-24.8-10-37.1-15.1c-23.9-9.9-47.9-19.3-71.5-29.8c-19.4-8.7-44.6,0.1-53.5,22.7c-10.6,26.7-21.9,53.2-32.9,79.8 C79.3,506,75.8,539.1,83,573c19.5,91.7,107.1,146.7,192.7,131.1c58.2-10.6,101.1-42.9,124.8-97.1c31.3-71.7,60.3-144.5,90.2-216.8 c0.7-1.7,0.5-4.2-0.2-6c-4.7-11.9-9.7-23.6-14.6-35.4c-1.7-4.1-3.4-8.1-5.4-12.8c-0.8,1.8-1.3,2.9-1.8,4 c-11.7,28.1-23.3,56.2-35,84.3c-9.2,22.2-17.8,44.6-27.9,66.4c-15.3,33.2-57.9,43.6-87.5,22.2c-8.1-5.9-14.2-13.5-18.9-22.3 C284.8,495.4,270.6,494.7,257.2,489.3z M671.8,484.7c15.3,0,25.3-13.6,20.3-26c-12.7-31.4-25.8-62.8-38.9-94 c-3.5-8.4-12.5-12.4-21.9-10.5c-8.5,1.7-15.6,9.7-15,18.5c0.4,5.3,2.4,10.7,4.5,15.7c11.3,27.7,22.8,55.4,34.2,83.1 C658.3,479.9,664.6,484.3,671.8,484.7z M410.9,373.8c-0.4-9-6.9-17.5-15.4-19.5c-9.1-2.2-18.9,2.1-22.4,10.5 c-13.1,31.2-25.9,62.4-38.7,93.7c-1.1,2.6-1.5,5.8-1.1,8.5c1.3,9.7,8.4,16.5,17.5,17.6c8.8,1,17-4,20.7-13 c12.5-30.1,24.8-60.2,37.2-90.4C409.7,378.9,410.2,376.3,410.9,373.8z M320.2,389.2c5.3-13.1,11.3-27.1,16.6-41.3 c3.2-8.6-2.4-18.8-11.3-22.7c-9-3.9-20.4-0.8-24.5,7.7c-6,12.8-11.1,26.1-16.5,38.8C296.6,377.6,308.1,383.3,320.2,389.2z M741.8,371.7c-5.1-12.2-10.1-24.5-15.4-36.8c-4-9.2-14.3-13.6-23.8-10.4c-9.7,3.3-16.3,13.6-13,23c5,14.4,11.3,28.4,16.7,41.7 C718.2,383.3,729.8,377.6,741.8,371.7z M815.1,342.1c-1.1-2.7-2-4.9-2.8-7c-4.3-10.2-8.3-20.5-12.9-30.6c-4.3-9.5-14.8-13.5-24.4-10 c-9.4,3.4-15.6,13.7-12.4,22.9c4.7,13.4,10.6,26.4,16.1,39.8C791,352.1,802.9,347.2,815.1,342.1z M211.2,342.1 c12.4,5.1,24.3,10,36.5,15.1c5.1-12.4,10.2-24.4,15.1-36.4c4.2-10.2-0.1-21.2-9.8-25.6c-9.9-4.5-21.5-0.5-26.1,9.6 C221.4,316.8,216.6,329.3,211.2,342.1z"></path> </svg> 