<?xml version="1.0" encoding="utf-8"?>
<!-- Generator: Adobe Illustrator 24.1.2, SVG Export Plug-In . SVG Version: 6.00 Build 0)  -->
<svg version="1.1" id="Layer_1" xmlns="http://www.w3.org/2000/svg" xmlns:xlink="http://www.w3.org/1999/xlink" x="0px" y="0px"
	 viewBox="0 0 141.7 33.3" style="enable-background:new 0 0 141.7 33.3;" xml:space="preserve">
<style type="text/css">
	.st0{fill:#FFFFFF;}
</style>
<g>
	<g>
		<g>
			<path class="st0" d="M3.3,21.9V9.7L2,9.5c0,0-0.3,0,0-1.1l1.1-4.8c0-0.2,0.2-0.2,0.3-0.2l6-0.5c0.1,0,0.2,0,0.2,0.1l3,3.3
				c0.2,0.2,0.3,0.2,0.5,0L15.8,3c0.1-0.1,0.2-0.1,0.2-0.1l5.6,0.5c0.2,0,0.3,0.2,0.3,0.3v17.9c0,0.2-0.2,0.3-0.3,0.3l-5.4,0.5
				c0,0-0.5-0.1-0.5-0.8v-7.7c0-0.3-0.4-0.4-0.5-0.2l-2,2.4c-0.2,0.2-0.3,0.2-0.5,0l-2.5-2.4c-0.2-0.2-0.5-0.1-0.5,0.2l0.1,8.1
				c0,0-0.2,1-0.9,0.8l-5.7-0.5L3.3,21.9z"/>
			<path class="st0" d="M23.5,3.9c0.8-0.1,3.7-0.2,7.2-0.4c0.1,0,0.2-0.1,0.2-0.2c0.2-0.2,0.4-0.5,0.8-0.5l5.2,0.5
				c0.2,0,0.3,0.2,0.3,0.4l-1.3,5.7c0,0.2-0.2,0.2-0.3,0.2h-6.1v1.2h6.7c0.2,0,0.4,0.2,0.3,0.4l-1,4.2c0,0.2-0.2,0.2-0.3,0.2h-5.7
				v1.3H36c0.2,0,0.3,0.2,0.3,0.4L35,22.9c0,0.2-0.2,0.2-0.3,0.2c-1.5,0.1-9.7,0.4-11.3-0.1c-0.2,0-0.2-0.2-0.2-0.3V10.3h-1.1l1-6.1
				C23.3,4.1,23.4,3.9,23.5,3.9z"/>
			<path class="st0" d="M50.1,3.5c0,0-4.4-2.5-9.7,2l0,0c-0.2,0.2-5.6,5-1.9,13.3l0,0c0.2,0.3,3.7,5.8,11.3,4.5l0,0
				c0.2,0,8-1.6,7.4-12.3c0-0.2-0.2-0.3-0.3-0.3l-8.7,0.1c-0.2,0-0.2,0.1-0.3,0.2l-1.1,4.4C46.6,15.8,46.8,16,47,16h2.5
				c0,0-1.1,2-4.1,0.3c0,0-2.8-1.5-0.8-5.4l0,0c0.1-0.1,1-1.8,5.6-0.6l0.8-0.1l3.7-3.8c0.2-0.2,0.1-0.3,0-0.5
				c-0.7-0.5-2.5-2.1-3.8-2.5C50.9,3.5,50.2,3.2,50.1,3.5z"/>
			<path class="st0" d="M70.1,2.8c-4.8,0-9,0.2-10,0.3c-0.2,0-0.2,0.1-0.2,0.2l-2.2,5.9L59,9.4l-3.3,12.7c-0.1,0.2,0.1,0.4,0.3,0.4
				l6.4,0.5c0.2,0,0.3-0.1,0.3-0.2l0.8-2.1c0.1-0.2,0.2-0.2,0.3-0.2h3.9c0.2,0,0.2,0.1,0.3,0.2l0.5,2.1c0.1,0.2,0.2,0.2,0.3,0.2
				l6.5-0.7c0.2,0,0.3-0.2,0.2-0.4L70.4,3.1C70.3,3,70.2,2.8,70.1,2.8z M64.9,14.6c-0.2,0-0.4-0.2-0.3-0.4l1-3.6l1.1,3.5
				c0.1,0.2-0.1,0.4-0.3,0.4L64.9,14.6L64.9,14.6z"/>
		</g>
		<g>
			<path class="st0" d="M109,2.6c-5,0-9.3,0.2-10.1,0.3c-0.1,0-0.2,0.1-0.2,0.2l-2.2,6l1.3,0.2l-3.4,12.9c0,0.2,0.1,0.2,0.2,0.2
				l6.6,0.5c0.1,0,0.2-0.1,0.2-0.2l0.8-2.3c0-0.1,0.1-0.2,0.2-0.2h4.1c0.1,0,0.2,0.1,0.2,0.2l0.6,2.2c0,0.1,0.1,0.2,0.2,0.2l6.7-0.7
				c0.2,0,0.2-0.2,0.2-0.2l-5.1-19.1C109.2,2.6,109.1,2.6,109,2.6z M103.6,14.3c-0.2,0-0.2-0.2-0.2-0.2l1.1-3.7l1.1,3.7
				c0.1,0.2-0.1,0.2-0.2,0.2H103.6z"/>
			<path class="st0" d="M73.2,3.4c0.8-0.2,3.7-0.8,5.8-0.5l0,0c0.1,0,1.1,0.2,1.1,3.8l0,0L80.4,9l1.7-6.2c0-0.1,0.1-0.2,0.2-0.2
				l5.2-0.2c0.1,0,0.2,0.1,0.2,0.2l1.9,6.6l0.7-5.4c0,0,0.1-1.1,1.2-1l5.4,0.6c0.1,0,0.2,0.2,0.2,0.2l-3.8,18.1
				c0,0.1-0.1,0.2-0.2,0.2l-6,0.5c-0.1,0-0.2-0.1-0.2-0.2L85.3,16c-0.1-0.2-0.3-0.2-0.4,0l-1.5,6.1c0,0.1-0.1,0.2-0.2,0.2L76.8,22
				c-0.1,0-0.2-0.1-0.2-0.2L73,3.6C73,3.5,73.1,3.5,73.2,3.4z"/>
			<path class="st0" d="M109.6,3.1c0.8-0.2,3.4-0.7,6.7-0.5c0.1,0,0.2,0.1,0.2,0.1l1.5,3c0.1,0.2,0.3,0.2,0.4,0l1.5-3
				c0-0.1,0.1-0.1,0.2-0.1c0.7,0,4.4,0.1,6.8,0.5c0.2,0,0.2,0.2,0.2,0.3l-5.3,9.7v0.1v8.7c0,0.1-0.1,0.2-0.2,0.2
				c-0.8,0.1-4.7,0.5-6.6,0c-0.1,0-0.2-0.1-0.2-0.2l-0.1-8.7v-0.1l-5.1-9.8C109.3,3.2,109.4,3.1,109.6,3.1z"/>
			<path class="st0" d="M139.2,4.2c0.1,0,0.2,0.2,0.2,0.2l-1.8,6.2c0,0-0.4,0.5-1.8-0.6c0,0-3.3-1.8-3.8-0.4c0,0,5.1,0.8,6.6,4.2
				c0,0,2.8,4.8-2.3,8.7c-4.7,3.6-10.7-0.6-11.6-1.2c-0.1-0.1-0.1-0.2-0.1-0.2l1.5-5.3c0,0,0.5-0.6,1.5-0.1c0,0,3.1,2,4.8,1.2
				s-2.2-1.4-2.2-1.4s-4-0.5-5.1-4.4s1.7-7.6,4.6-7.9c0,0,2-0.3,3.6-0.2c0.1,0,0.2-0.1,0.2-0.2c0-0.2,0.2-0.5,0.8-0.4L139.2,4.2z"/>
		</g>
	</g>
	<g>
		<path class="st0" d="M53.7,29.7c0.3,0.2,0.9,0.3,1.4,0.3c0.6,0,0.8-0.2,0.8-0.5c0-0.3-0.3-0.5-0.9-0.8c-1-0.4-1.6-1-1.6-1.8
			c0-1.1,0.8-1.9,2.4-1.9c0.6,0,1.1,0.1,1.5,0.3L57,26.5c-0.2-0.1-0.6-0.3-1.2-0.3c-0.5,0-0.8,0.2-0.8,0.5c0,0.3,0.3,0.4,1,0.8
			c1,0.4,1.5,1,1.5,1.8c0,1.1-0.8,2-2.5,2c-0.7,0-1.3-0.2-1.7-0.3L53.7,29.7z"/>
		<path class="st0" d="M58.4,25h1.6v4.9h2.1v1.3h-3.7V25z"/>
		<path class="st0" d="M67.8,28.1c0,2.1-1.1,3.3-2.8,3.3c-1.8,0-2.7-1.5-2.7-3.2c0-1.7,1-3.2,2.8-3.2C67,24.9,67.8,26.5,67.8,28.1z
			 M63.9,28.1c0,1.3,0.4,1.9,1.1,1.9c0.7,0,1.1-0.8,1.1-1.9c0-1.1-0.4-1.9-1.1-1.9C64.4,26.2,63.9,26.9,63.9,28.1z"/>
		<path class="st0" d="M69.5,26.4H68V25h4.5v1.4H71v4.8h-1.6V26.4z"/>
		<path class="st0" d="M73.2,25h1.6v4.9h2.1v1.3h-3.7V25z"/>
		<path class="st0" d="M79.2,29.9l-0.3,1.4h-1.6L79,25H81l1.6,6.2H81l-0.3-1.4H79.2z M80.5,28.7l-0.2-1.1c-0.1-0.3-0.2-0.9-0.3-1.3
			h0c-0.1,0.4-0.2,0.9-0.3,1.3l-0.2,1.1H80.5z"/>
		<path class="st0" d="M83.4,25.1c0.5-0.1,1.1-0.1,1.8-0.1c0.9,0,1.5,0.1,2,0.5c0.4,0.3,0.6,0.8,0.6,1.3c0,0.7-0.5,1.3-1,1.5v0
			c0.4,0.2,0.6,0.6,0.8,1.1c0.2,0.6,0.4,1.5,0.5,1.8h-1.6c-0.1-0.2-0.2-0.7-0.4-1.4c-0.1-0.7-0.4-0.9-0.8-0.9H85v2.3h-1.6V25.1z
			 M85,27.7h0.4c0.6,0,0.9-0.3,0.9-0.8c0-0.5-0.3-0.7-0.8-0.8c-0.2,0-0.4,0-0.5,0V27.7z"/>
	</g>
</g>
</svg>
