<?xml version="1.0" encoding="utf-8"?>
<!-- Generator: Adobe Illustrator 25.3.1, SVG Export Plug-In . SVG Version: 6.00 Build 0)  -->
<svg version="1.1" id="Layer_1" xmlns="http://www.w3.org/2000/svg" xmlns:xlink="http://www.w3.org/1999/xlink" x="0px" y="0px"
	 viewBox="0 0 358.8 60.6" style="enable-background:new 0 0 358.8 60.6;" xml:space="preserve">
<path style="fill:#FF0012;" d="M17.5,2c1.2,0.1,2.2,0.7,3.2,1.3C36.5,11.1,52.3,19,68,26.9c2.5,1.3,3.2,4.3,1.3,6.4
	c-0.4,0.4-0.9,0.8-1.4,1c-11,5.5-22.1,11.1-33.2,16.6c-2.4,1.2-5,0.2-5.8-2.2c-0.1-0.4-0.2-0.8-0.2-1.2c0-5.7,0-11.4,0-17
	c0-1.7,0.9-2.9,2.5-3.6c1.4-0.6,3.2-0.3,4.3,0.8c0.9,0.9,1.3,1.9,1.3,3.1c0,3.1,0,6.3,0,9.4c0,0.1,0,0.3,0,0.5
	c6.8-3.4,13.4-6.7,20.2-10.1c-11.9-6-23.8-11.9-35.7-17.8c0,0.3,0,0.5,0,0.7c0,13.8,0,27.7,0,41.5c0,1.9-1.1,3.5-2.9,4
	c-3,0.9-5.3-1.4-5.3-3.8c0-16.3,0-32.7,0-49c0-2.1,1.6-3.8,3.7-4c0.1,0,0.2,0,0.2-0.1C17.3,2,17.4,2,17.5,2z"/>
<path style="fill:#FFFFFF;" d="M222.2,43.1c-2.9,0-5.8,0-8.7,0c-1.7,0-2.7-1-2.7-2.5c0-1.6,1.1-2.6,2.8-2.6c3.8,0,7.6,0,11.4,0
	c1.9,0,3.8,0,5.7,0c0.7,0,1.1-0.4,1.1-1.1c0-0.9,0-1.9,0-2.8c0-0.7-0.4-1-1-1.1c-0.2,0-0.3,0-0.5,0c-4.8,0-9.6,0-14.4,0
	c-3.2,0-5.9-2.7-5.9-5.9c0-1.1,0-2.3,0-3.4c0-3,2.6-5.8,5.6-5.8c3.8-0.1,7.6,0,11.4-0.1c2.1,0,4.2,0,6.3,0c1.4,0,2.4,0.7,2.7,1.9
	c0.4,1.6-0.8,3.1-2.4,3.1c-5.7,0-11.3,0-17,0c-0.2,0-0.4,0-0.6,0c-0.5,0.1-0.8,0.4-0.8,1c0,1,0,2,0,3.1c0,0.6,0.4,0.9,1.1,0.9
	c4.8,0,9.6,0,14.4,0c2.5,0,4.4,1.1,5.6,3.2c0.5,0.8,0.7,1.7,0.7,2.6c0,1.4,0.1,2.9-0.1,4.3c-0.4,2.9-3,5-5.8,5
	C228,43.1,225.1,43.1,222.2,43.1z"/>
<path style="fill:#FFFFFF;" d="M256.9,43.1c-2.5,0-5,0-7.5,0c-2.8,0-5.4-2.1-5.8-4.9c-0.1-0.3-0.1-0.7-0.1-1c0-4.5,0-8.9,0-13.4
	c0-3,2.6-5.7,5.6-5.8c5.1-0.1,10.1-0.1,15.2,0c3,0,5.3,1.9,6,4.7c0.1,0.5,0.2,1,0.2,1.4c0,4.3,0,8.6,0,12.9c0,3.2-2.3,5.8-5.4,6.1
	c-0.6,0.1-1.2,0-1.8,0C261.1,43.1,259,43.1,256.9,43.1z M256.9,38.1c2.4,0,4.8,0,7.2,0c0.8,0,1.2-0.4,1.2-1.2c0-4.2,0-8.5,0-12.7
	c0-0.3-0.1-0.6-0.3-0.8c-0.3-0.4-0.7-0.4-1.1-0.4c-4.7,0-9.3,0-14,0c-0.1,0-0.3,0-0.4,0c-0.7,0.1-1,0.4-1,1.1c0,4.3,0,8.6,0,12.8
	c0,0.7,0.4,1.1,1.1,1.1C252.1,38.1,254.5,38.1,256.9,38.1z"/>
<path style="fill:#FFFFFF;" d="M299.2,34.8c0-0.9,0-1.6,0-2.4c0-4,0-7.9,0-11.9c0-1.4,1.1-2.5,2.5-2.5c1.4,0,2.4,0.9,2.6,2.2
	c0,0.2,0,0.3,0,0.5c0,6.6,0,13.3,0,19.9c0,1.2-0.5,2-1.5,2.4c-1.1,0.4-2,0.2-2.9-0.6c-2.3-2.1-4.6-4.3-6.9-6.4
	c-1.6-1.4-3.1-2.9-4.7-4.3c-1.8-1.7-3.7-3.4-5.5-5.1c-0.1-0.1-0.2-0.1-0.4-0.2c0,0.2,0,0.4,0,0.5c0,4.6,0,9.1,0,13.7
	c0,1.1-0.5,2-1.5,2.4c-1,0.4-1.9,0.3-2.7-0.4c-0.5-0.5-0.8-1.1-0.8-1.8c0-6.8,0-13.5,0-20.3c0-1.1,0.6-1.9,1.6-2.3
	c1-0.4,1.9-0.2,2.7,0.5c1.9,1.7,3.8,3.5,5.7,5.2c2.6,2.4,5.1,4.7,7.7,7.1c1.3,1.2,2.7,2.5,4,3.7C299,34.7,299.1,34.7,299.2,34.8z"/>
<path style="fill:#FFFFFF;" d="M93.9,34.8c0,0.2,0,0.4,0,0.6c0,1.7,0,3.4,0,5.1c0,1.3-0.6,2.2-1.8,2.6c-1.7,0.5-3.3-0.7-3.3-2.4
	c0-6.6,0-13.2,0-19.8c0-1.7,1.1-2.9,3-2.9c4.8,0,9.5,0,14.3,0c0.8,0,1.6,0,2.3,0c2.9,0.1,5.5,2.7,5.6,5.6c0,1.9,0,3.7,0,5.6
	c-0.1,2.9-2.8,5.6-5.7,5.6c-4.6,0-9.2,0-13.8,0C94.4,34.8,94.2,34.8,93.9,34.8z M93.9,29.7c0.2,0,0.4,0,0.5,0c4.4,0,8.8,0,13.3,0
	c0.9,0,1.3-0.6,1.3-1.3c0-1.3,0-2.7,0-4c0-1.1-0.4-1.4-1.4-1.4c-4.4,0-8.8,0-13.2,0c-0.1,0-0.3,0-0.5,0
	C93.9,25.3,93.9,27.4,93.9,29.7z"/>
<path style="fill:#FFFFFF;" d="M163.3,25.6c-1.7,2.9-3.4,5.8-5,8.6c-1.5,2.6-3,5.1-4.5,7.7c-0.6,1-1.6,1.5-2.7,1.3c-1-0.2-1.8-1-2-2
	c-0.1-0.6,0-1.2,0.3-1.8c1.9-3.3,3.8-6.6,5.8-9.9c1.9-3.3,3.9-6.6,5.8-9.9c0.5-0.8,1-1.4,2-1.6c1.1-0.2,2.1,0.3,2.6,1.3
	c1.5,2.6,3,5.2,4.5,7.8c2.4,4.1,4.7,8.1,7.1,12.2c0.8,1.3,0.4,2.9-0.9,3.6c-1.1,0.6-2.7,0.4-3.5-1c-3-5.3-6.1-10.5-9.2-15.8
	C163.5,25.9,163.4,25.8,163.3,25.6z"/>
<path style="fill:#FFFFFF;" d="M190.5,30.1c0.7-0.8,1.3-1.5,2-2.3c1.7-2,3.4-3.9,5.1-5.9c0.9-1.1,1.9-2.2,2.8-3.2
	c0.9-1,2.5-1,3.4-0.2c1.1,1,1.2,2.5,0.3,3.6c-2.2,2.6-4.5,5.1-6.7,7.7c-1.4,1.6-2.8,3.2-4.2,4.8c-0.1,0.2-0.2,0.4-0.2,0.6
	c0,1.7,0,3.4,0,5.2c0,1.4-0.7,2.3-1.8,2.6c-1.6,0.5-3.2-0.7-3.2-2.4c0-1.8,0-3.6,0-5.4c0-0.2-0.1-0.5-0.2-0.6
	c-3.6-4.2-7.3-8.3-10.9-12.4c-0.9-1.1-0.8-2.6,0.2-3.6c0.9-0.9,2.5-0.8,3.4,0.1c1.5,1.7,3,3.4,4.5,5.1
	C186.8,25.9,188.6,27.9,190.5,30.1z"/>
<path style="fill:#FFFFFF;" d="M125.7,38.1c0.2,0,0.4,0,0.6,0c4.7,0,9.5,0,14.2,0c0.8,0,1.5,0.2,2.1,0.8c0.7,0.7,0.9,1.8,0.5,2.8
	c-0.4,0.9-1.3,1.5-2.3,1.5c-5.9,0-11.8,0-17.8,0c-1.4,0-2.5-1.1-2.5-2.5c0-6.7,0-13.5,0-20.2c0-1.4,1-2.5,2.5-2.5
	c1.5,0,2.5,1.1,2.6,2.3c0,0.2,0,0.5,0,0.7c0,5.5,0,11,0,16.5C125.7,37.7,125.7,37.8,125.7,38.1z"/>
</svg>
