<?xml version="1.0" encoding="utf-8"?>
<!-- Generator: Adobe Illustrator 26.1.0, SVG Export Plug-In . SVG Version: 6.00 Build 0)  -->
<svg version="1.1" id="Layer_1" xmlns="http://www.w3.org/2000/svg" xmlns:xlink="http://www.w3.org/1999/xlink" x="0px" y="0px"
	 viewBox="0 0 1056.6 202" style="enable-background:new 0 0 1056.6 202;" xml:space="preserve">
<path style="fill:#FFFFFF;" d="M857.9,171.1c-4.5-1.2-9.2-1.8-13.4-3.6c-9.5-4-14.1-13-11.6-21.4c-13.4-4.3-13.6-19-0.2-26.6
	c-5.8-9.5-6.5-19,0.5-28.3c6.4-8.4,17.9-11.2,27.3-6.3c3.5,1.8,6.5,2.6,10.4,1.4c3-0.9,6.3-0.6,9.5-0.9c0,1.9,0,3.8,0,5.6
	c-3.6,0-7.3,0-11.3,0c0.5,1.5,0.6,2,0.8,2.5c5.8,10.5,4.9,20.1-2.7,27.8c-7.5,7.6-17.7,9-27.8,3.4c-4.7-2.6-7,0.3-9,3.4
	c-2.5,3.8-1.1,8.8,2.9,10.4c2,0.8,4.4,0.9,6.6,1c7.9,0.2,15.8-0.2,23.6,0.3c8.8,0.6,14.1,5.8,14.7,13.4c0.6,8-3.4,13.5-11.8,16
	c-2.4,0.7-4.9,1.2-7.4,1.8C858.7,171.1,858.3,171.1,857.9,171.1z M851.1,121.7c9.1-0.1,16.5-7.5,16.3-16.4
	c-0.2-9-7.6-16.3-16.6-16.2c-8.9,0.1-16.4,7.7-16.3,16.6C834.5,114.6,841.9,121.8,851.1,121.7z M837.9,146.3
	c-1.6,11.6,13.1,20.9,26.6,16.9c4.4-1.3,7.3-3.9,7.1-8.8c-0.2-5-3.6-7.7-8-8C855,146,846.4,146.3,837.9,146.3z"/>
<path style="fill:#FFFFFF;" d="M126,104.5c1-5,2-9.9,3-14.7c3.1-15.3,6.3-30.6,11.3-45.5c0.9-2.7,2.1-5.3,3.5-7.8
	c1.2-2.3,3-3.2,4.9-2.7c2.2,0.5,3.2,2.2,3.3,4.3c0.2,5.7,0.6,11.4,0.4,17c-0.3,10-1.4,20-3.7,29.8c-1.4,5.9-3.4,11.7-6.9,16.7
	c-2.6,3.8-6.1,6.3-10.8,6.9c-1.5,0.2-1.5,1.1-1.7,2.1c-2.9,13.5-6.1,27-11,39.9c-2.3,6-4.9,12-8.2,17.5c-3.5,6-9,9.6-16.2,9.9
	c-6.3,0.3-11.2-2.6-15.5-6.8c-6.5-6.2-11-13.8-15.2-21.7c-7.8-14.5-13.1-29.9-17.9-45.5C40.8,88.9,36.5,73.6,34,58
	c-1.1-7-2-14-1.4-21c0.4-5.4,3.3-9.2,8.1-11.4c4.9-2.3,9.7-2,14.1,1.3c1.7,1.3,3.3,2.8,4.6,4.4c9.8,12.3,19.3,24.8,29.2,37
	c9.1,11.3,18.6,22.2,29.4,32C120.1,102.2,122.6,103.9,126,104.5z M125,109c-3.1-1.6-6.1-2.6-8.5-4.5c-5.7-4.5-11.4-9.1-16.7-14.2
	C87.4,78.2,76.4,64.7,65.7,51c-4.5-5.7-9.1-11.4-13.7-17.1c-1.3-1.6-2.8-2.5-4.9-1.9c-2.1,0.7-2.7,2.3-2.9,4.4
	c-0.6,6.8,0.2,13.4,1.1,20.1c2,14.1,5.4,27.9,9.2,41.6c4.5,16.3,9.2,32.6,16.6,47.9c4.1,8.6,8.5,17,15,24.1c4.4,4.8,11.1,5,15.7,0.4
	c1.6-1.6,2.8-3.5,4-5.5c6.2-10.7,10.1-22.3,13.5-34.1C121.3,123.5,123.2,116.1,125,109z M130.6,104.5c3.7-0.9,6.8-2.5,8.8-5.6
	c1.7-2.6,3.1-5.5,4.2-8.4c3.6-9.3,4.9-19.2,5.4-29.1c0.4-7.4,0.1-14.8,0-22.3c0-0.7-0.8-1.5-1.2-2.2c-0.6,0.6-1.5,1-1.8,1.7
	c-1,2.5-2.1,5-2.8,7.6c-3.1,12.8-6.1,25.6-8.9,38.5C132.9,91.2,131.9,97.8,130.6,104.5z"/>
<path style="fill:#FFFFFF;" d="M218.9,128c7.5-21.4,14.6-41.2,21-61.1c2-6.1,4.7-8.7,11-7.6c1.4,0.3,2.9,0.2,5.2,0.3
	c-2.4,7-4.7,13.7-7,20.3c-6.4,18.6-12.9,37.2-19.2,55.8c-1,2.8-2.2,4.1-5.5,4.1c-15.4,0.2-15.4,0.3-20.3-14.1
	c-7.5-21.8-15.1-43.5-22.9-66.3c4.3,0,8.1-0.3,11.9,0.2c1.2,0.2,2.5,2.4,3,4c6.8,19.2,13.5,38.5,20.2,57.8
	C217,123.2,217.7,124.8,218.9,128z"/>
<path style="fill:#FFFFFF;" d="M296.7,57.7c3.8,0,7.1,0,11.1,0c0,11.3,0,22.4,0,33.9c16.9-8.5,29.2-7.2,37.8,3.6
	c8.5,10.6,8.4,26.6-0.3,36.9c-9,10.6-21.4,11.8-37.1,3.4c-0.2,1.9-0.4,3.7-0.6,5.8c-3.6,0-7.1,0-10.9,0
	C296.7,113.5,296.7,85.9,296.7,57.7z M306.5,113.2c-0.1,9.5,7.1,17,16.3,17.1c9.2,0.1,16.8-7.3,17-16.6c0.2-9.3-7.1-16.9-16.5-17
	C313.8,96.6,306.5,103.7,306.5,113.2z"/>
<path style="fill:#FFFFFF;" d="M437.6,108.6c0.4-6-1.6-9.7-5.9-11.6c-6.9-3-12.8-0.4-18.3,4.5c-2.6-2.3-5.1-4.4-7.6-6.6
	c6.3-8.9,17.9-12.4,28.7-9.1c9.8,3,15.2,10.9,15.3,22.4c0,10.9,0,21.8,0,33.1c-3.8,0-7.2,0-11.1,0c-0.2-1.9-0.4-3.9-0.7-6.7
	c-1.5,1.2-2.7,2.2-3.9,3.1c-7.3,5.8-18.2,6.7-25.9,2.1c-6.3-3.7-8.8-9.5-8.2-16.7c0.6-6.7,4.6-10.8,10.6-12.5
	c4.6-1.4,9.6-1.6,14.4-2C429.1,108.3,433.2,108.6,437.6,108.6z M437.6,118.6c-6.5,0-12.8-0.5-19,0.3c-2.2,0.3-5,3.2-5.8,5.5
	c-0.5,1.6,1.4,5.1,3.2,6.2c4.6,2.9,9.8,2.2,14.4-0.4C434.6,127.8,438,124.3,437.6,118.6z"/>
<path style="fill:#FFFFFF;" d="M548,104.1c-9.9,0-19.4,0-29.2,0c-0.1-2.2-0.2-3.9-0.3-5.9c12.3,0,24.4,0,36.4,0
	c2.8,18.7-8.1,36.7-25.4,42.3c-20.4,6.7-41.6-1.5-51.2-19.6c-9.4-17.8-4.8-40.5,10.7-52.3c15.5-11.9,39.1-11.3,52.8,1.5
	c-1.2,1.3-2.3,2.6-3.9,4.3c-9.4-7-20-10.3-31.2-6.7c-6.3,2-12.9,5.6-17.5,10.3c-11,11.2-11.8,29.1-3.4,42.2
	c8.5,13.1,25,19,40.6,14.3C540.1,130.4,548.2,119.3,548,104.1z"/>
<path style="fill:#FFFFFF;" d="M677.5,141.3c-2.6,0-4.4,0-6.9,0c0-8,0-15.9,0-23.7c0-3.6,0-7.2-0.4-10.7c-1.3-10.2-8-16.6-16.7-16.4
	c-8.7,0.2-16,7.6-16.5,17.6c-0.4,9-0.2,18-0.2,27c0,1.9,0,3.7,0,6c-2.3,0-4.2,0-6.4,0c0-18.5,0-36.8,0-55.4c2,0,3.8,0,6.1,0
	c0.2,2.4,0.4,4.9,0.6,8.3c5.3-6.5,11.2-10.5,19.5-10c8.5,0.4,13.5,5.7,17.9,12.3c4.9-7.4,10.9-12.2,19.9-12.3
	c11.9,0,21.6,7.3,22.5,19.2c1,12.5,0.2,25.1,0.2,38c-2,0-3.9,0-6.6,0c0-11.3,0.1-22.5,0-33.7c-0.1-9.2-5.9-15.8-14.2-16.8
	c-9.7-1.1-18.2,6.2-18.6,16.7C677.2,118.5,677.5,129.6,677.5,141.3z"/>
<path style="fill:#FFFFFF;" d="M607.4,141.3c-0.2-3.3-0.4-6.2-0.7-9.2c-0.5-0.4-0.9-0.7-1.4-1.1c-1,1.5-1.7,3.2-3,4.5
	c-7.3,7.4-19.7,9.2-28.6,4.2c-5.8-3.3-8.4-8.3-8-15c0.4-6.5,4.3-10.5,10.1-12c4.8-1.3,10-1.5,15-1.8c5-0.3,10-0.1,15.4-0.1
	c1-7.5-1.1-13.3-7-17c-8.1-5-15.8-2.5-23.2,3c-1.3-1.2-2.7-2.5-4.2-3.9c8.1-7.6,17.2-9.5,27.2-6.3c8.9,2.9,14.2,10.9,14.4,21.3
	c0.2,11,0,22.1,0,33.4C611.3,141.3,609.7,141.3,607.4,141.3z M606.6,117.1c-9,0-17.6-0.6-26.1,0.3c-2.8,0.3-6.7,4.3-7.3,7.1
	c-0.5,2.8,1.7,7.5,4.2,9.3c6.2,4.5,13.2,3.5,19.6-0.2C603.3,130.1,606.5,124.6,606.6,117.1z"/>
<path style="fill:#FFFFFF;" d="M812.9,141.4c-1.9,0-3.6,0-5.9,0c-0.1-2.2-0.3-4.4-0.3-6.5c0-7.9,0.1-15.8-0.1-23.7
	c-0.3-11.8-7.9-20.1-18.8-20.6c-10.6-0.5-20,7.2-21.2,18.5c-0.9,8-0.4,16.1-0.6,24.2c0,2.6,0,5.2,0,8.1c-2.4,0-4.2,0-6.4,0
	c0-18.4,0-36.7,0-55.4c1.9,0,3.8,0,6.1,0c0.2,3.1,0.4,6.2,0.7,10.4c1.5-1.8,2.3-2.7,3.1-3.6c7.3-7.6,16-10.2,26.1-7.1
	c10,3.1,16,10.4,16.9,20.4C813.6,117.5,812.9,129.2,812.9,141.4z"/>
<path style="fill:#FFFFFF;" d="M376.9,141.3c-3.9,0-7.5,0-11.5,0c0-18.6,0-36.9,0-55.5c3.2,0,6.3,0,9.9,0c0.2,1.8,0.4,3.8,0.6,6.5
	c6.1-4.5,12.2-7.9,20.1-6.5c0,3.2,0,6.3,0,9.4c-0.3,0.3-0.6,0.7-0.9,0.7c-14.2,2.1-17.5,5.9-17.6,20.1c0,7.9,0,15.7-0.1,23.6
	C377.4,140,377.2,140.4,376.9,141.3z"/>
<path style="fill:#FFFFFF;" d="M277.2,139.5c-3.9,0-7.6,0-11.6,0c0-18.4,0-36.7,0-55.4c3.7,0,7.4,0,11.6,0
	C277.2,102.4,277.2,120.8,277.2,139.5z"/>
<path style="fill:#FFFFFF;" d="M734.4,85.7c2.2,0,4,0,6.1,0c0,18.5,0,36.8,0,55.5c-2,0-3.9,0-6.1,0
	C734.4,122.8,734.4,104.5,734.4,85.7z"/>
<path style="fill:#FFFFFF;" d="M271.7,58.2c3.8,0.3,5.9,2.4,5.8,6.5c-0.1,4.1-2.5,6.2-6.4,6c-3.9-0.1-6.2-2.6-6.1-6.5
	C265.2,60.3,267.5,58.2,271.7,58.2z"/>
<path style="fill:#FFFFFF;" d="M743.7,64.6c-2.1,1.4-4.3,4-6.2,3.7c-1.9-0.3-4.4-3.1-4.8-5.2c-0.2-1.3,2.9-4.4,4.7-4.5
	c2-0.1,4.2,2.3,6.2,3.6C743.7,63,743.7,63.8,743.7,64.6z"/>
</svg>
