<?xml version="1.0" encoding="utf-8"?>
<!-- Generator: Adobe Illustrator 24.1.2, SVG Export Plug-In . SVG Version: 6.00 Build 0)  -->
<svg version="1.1" id="Layer_1" xmlns="http://www.w3.org/2000/svg" xmlns:xlink="http://www.w3.org/1999/xlink" x="0px" y="0px"
	 viewBox="0 0 1056.6 399" style="enable-background:new 0 0 1056.6 399;" xml:space="preserve">
<style type="text/css">
	.st0{fill:#FFFFFF;}
</style>
<g>
	<path class="st0" d="M1035.3,312.3c-5,8.6-12.5,11-22.3,11c-66.2-0.3-132.4-0.1-198.7-0.2c-18,0-22.6-4.5-22.6-22.2
		c-0.1-65.9-0.1-131.9,0-197.8c0-18.2,4.9-22.9,23.4-22.9c65.4,0,130.8,0.1,196.1-0.2c10-0.1,18.1,2.1,24.1,10.4
		C1035.3,164.3,1035.3,238.3,1035.3,312.3z M930.8,276.8c0-36.4,0-71.5,0-107.1c-11.8,0-22.8,0-34.3,0c0,36.1,0,71.4,0,107.1
		C908.2,276.8,919,276.8,930.8,276.8z M896.7,121.9c0,9.5,0,18.2,0,27.1c11.9,0,22.6,0,33.7,0c0-9.5,0-18.3,0-27.1
		C918.6,121.9,907.8,121.9,896.7,121.9z"/>
	<path class="st0" d="M1035.3,55c-5.3,1.9-10.7,5.5-16,5.5c-70.4,0.4-140.9,0.3-211.3,0.3c-7,0-14.4-0.3-15.7-9
		c-1.6-11,5.8-13.7,14.9-13.7c26.2-0.1,52.3,0,78.5,0c43.5,0,86.9-0.3,130.3,0.3c6.5,0.1,12.9,4.2,19.3,6.5
		C1035.3,48.3,1035.3,51.7,1035.3,55z"/>
	<path class="st0" d="M1035.3,17.2c-4.5,0.7-9,2-13.5,2c-72.3,0.1-144.6,0.1-216.9,0.1c-6.7,0-14.4,1.3-12.8-9.7
		c78.5,0,157,0.1,235.5-0.2C1034,9.4,1036.5,10.9,1035.3,17.2z"/>
	<path class="st0" d="M22.1,271.3c0-32.8,0-65.5,0-98.3c0-18,4.6-22.9,22-23c66.7-0.1,133.3-0.1,200,0c16.8,0,21.5,5.1,21.5,22.2
		c0.1,66.4,0.1,132.8,0,199.1c0,16.6-5.2,21.7-22,21.7c-66.2,0-132.5,0-198.7,0c-18,0-22.8-5-22.8-23.5
		C22.1,336.8,22.1,304,22.1,271.3z M170.9,247.1c-7.8-0.5-14.8-0.9-21.5-1.4c-2.3-24.8-1-26.4,25.8-30.5c0.6-6.6,1.1-13.5,1.7-20.5
		c-15.5-4.8-29.4-3.9-42.6,3.4c-18.8,10.5-17.3,29.8-18.4,47.4c-6.1,0.7-11,1.2-15.8,1.7c0,7.3,0,13.7,0,20.2
		c5.9,0.8,10.7,1.4,16.7,2.1c0,24.4,0,48.1,0,71.9c11.2,0,21,0,32,0c0-24.6,0-48.4,0-72.4c8-0.6,14.9-1.1,22-1.6
		C170.9,260.3,170.9,254.5,170.9,247.1z"/>
	<path class="st0" d="M657.9,393c-33.8,0-67.5,0.1-101.3,0c-16,0-21.5-5.2-21.6-21c-0.2-66.8-0.2-133.6,0-200.4
		c0-16.7,5.1-21.6,22.3-21.6c66.2-0.1,132.5-0.1,198.7,0c17.6,0,22.9,5.3,23,22.3c0.1,66.4,0.1,132.8,0,199.1
		c0,16.2-5.8,21.6-22.4,21.6C723.7,393.1,690.8,393,657.9,393z M610.5,247.5c17.6,0,34.5,0,53.5,0c-17.4,23.1-32.9,44.5-49.3,65.2
		c-6.7,8.4-8.2,16.7-5.5,26.6c32.3,0,64.1,0,95.9,0c0-8,0-15.3,0-24.1c-18.7,0-36.5,0-57.1,0c17.6-23.4,33-44.7,49.3-65.3
		c6.7-8.5,8.2-16.8,5.1-26.6c-30.8,0-61,0-91.8,0C610.5,231.1,610.5,238,610.5,247.5z"/>
	<path class="st0" d="M400.1,393c-33.3,0-66.6,0.1-100,0c-15.7,0-21.6-5.6-21.6-21.1c-0.1-66.8-0.1-133.6,0-200.4
		c0-15.9,5.4-21.5,21.1-21.6c67.1-0.2,134.1-0.1,201.2,0c16.2,0,21.5,5.1,21.5,21.1c0.2,66.8,0.2,133.6,0,200.4
		c0,16.6-5.4,21.5-22.3,21.6C466.7,393.1,433.4,393,400.1,393z M413.6,271.2c-7.6,0-14.9-0.8-21.9,0.2c-9.9,1.4-20.2,2.8-29.3,6.5
		c-13.3,5.5-19.6,18.8-18.1,33c1.6,15.5,10.1,25.5,25,29.7c18.3,5.3,32.9-0.8,44.5-15.4c7.4,16.8,9.1,17.4,35.3,13.8
		c-1.1-11.6-2.7-23.2-3.2-34.9c-0.6-14.3,0.1-28.6-0.2-42.9c-0.4-20.7-9.8-35-29.8-37.9c-14.8-2.1-31-0.2-45.5,3.9
		c-12.3,3.4-20.6,14-20.3,29.8c12.8-1.5,27.1,6.4,35.4-10.1c0.8-1.7,4.3-2.4,6.7-2.9C408.1,241.3,415.4,249.7,413.6,271.2z"/>
	<path class="st0" d="M413.9,289.6c1.3,18.8-4.2,27.1-19,29.2c-8.5,1.2-16.6-0.1-18.2-10.5c-1.5-9.7,3.1-16.8,12.9-18.4
		C397.2,288.6,405.2,289.6,413.9,289.6z"/>
</g>
</svg>
