<?xml version="1.0" encoding="utf-8"?>
<!-- Generator: Adobe Illustrator 24.1.2, SVG Export Plug-In . SVG Version: 6.00 Build 0)  -->
<svg version="1.1" id="Layer_1" xmlns="http://www.w3.org/2000/svg" xmlns:xlink="http://www.w3.org/1999/xlink" x="0px" y="0px"
	 viewBox="0 0 257 55.3" style="enable-background:new 0 0 257 55.3;" xml:space="preserve">
<style type="text/css">
	.st0{fill:#FFFFFF;}
</style>
<path class="st0" d="M43.2,3.9V34c0,12.5-6.4,18.7-19.2,18.7c-3.4,0-6.7-0.4-9.7-1.3c-3.1-0.8-5.6-2.2-7.6-3.8l3.7-6.2
	c1.5,1.3,3.5,2.4,5.8,3.1c2.4,0.8,4.8,1.1,7.2,1.1c3.9,0,6.8-0.9,8.6-2.7c1.8-1.7,2.8-4.5,2.8-8.1v-1.7c-1.4,1.5-3.2,2.8-5.2,3.5
	c-2,0.8-4.3,1.2-6.8,1.2c-3.4,0-6.5-0.7-9.1-2.2c-2.8-1.4-4.9-3.5-6.5-6c-1.4-2.7-2.3-5.6-2.3-9s0.8-6.4,2.4-8.9
	c1.5-2.6,3.7-4.6,6.5-6s5.7-2.2,9.1-2.2c2.6,0,4.9,0.4,7,1.2c2.2,0.8,3.9,2.2,5.3,3.9V3.9C35.2,3.9,43.2,3.9,43.2,3.9z M31.9,27.9
	c2-1.8,3.1-4.3,3.1-7.4c0-3-1-5.4-3.1-7.3c-2-1.8-4.6-2.8-7.8-2.8s-5.8,0.9-7.8,2.8c-1.9,1.8-3.1,4.3-3.1,7.3s1,5.4,3.1,7.4
	c2,1.8,4.6,2.9,7.8,2.9C27.3,30.7,29.9,29.8,31.9,27.9z"/>
<path class="st0" d="M74.3,7.2c2.8,2.5,4.2,6.2,4.2,11.4v20.8h-7.9v-4.3c-1,1.5-2.5,2.8-4.4,3.6c-1.8,0.8-4.2,1.2-6.9,1.2
	c-2.7,0-5-0.4-7-1.3s-3.6-2.2-4.6-3.8c-1.1-1.6-1.6-3.5-1.6-5.5c0-3.2,1.2-5.7,3.6-7.7s6.1-2.9,11.2-2.9h9.2v-0.5
	c0-2.5-0.7-4.4-2.3-5.7c-1.4-1.3-3.7-1.9-6.7-1.9c-1.9,0-4,0.3-5.8,0.9c-1.9,0.6-3.6,1.5-4.9,2.6l-3.3-6c1.8-1.4,4.1-2.5,6.8-3.3
	c2.7-0.7,5.4-1.1,8.3-1.1C67.5,3.5,71.5,4.7,74.3,7.2z M66.7,32.3c1.6-0.9,2.8-2.4,3.4-4.1v-4.1h-8.6c-4.8,0-7.2,1.5-7.2,4.7
	c0,1.5,0.6,2.7,1.8,3.6c1.2,0.9,2.9,1.3,5,1.3C63.2,33.8,65,33.3,66.7,32.3z"/>
<path class="st0" d="M136.4,7.3c2.7,2.6,3.9,6.5,3.9,11.7v20.4H132V20.1c0-3.1-0.7-5.4-2-7c-1.3-1.5-3.4-2.4-5.9-2.4
	c-2.8,0-5,0.9-6.8,2.8c-1.6,1.8-2.6,4.5-2.6,7.9v18h-8.3V20.1c0-3.1-0.7-5.4-2-7s-3.4-2.4-5.9-2.4c-2.9,0-5.1,0.9-6.8,2.8
	c-1.6,1.8-2.5,4.4-2.5,7.9v18h-8.3V3.9h7.9v4.5c1.3-1.6,3-2.8,5-3.7c1.9-0.8,4.2-1.2,6.7-1.2c2.7,0,5,0.5,7.1,1.5
	c2,1,3.7,2.5,4.9,4.4c1.4-1.8,3.4-3.3,5.6-4.4c2.3-1,4.8-1.5,7.7-1.5C130.3,3.5,133.8,4.8,136.4,7.3z"/>
<path class="st0" d="M179.2,24.3h-27.9c0.5,2.7,1.7,4.7,3.8,6.2s4.6,2.3,7.7,2.3c3.9,0,7.1-1.3,9.6-3.9l4.4,5.1
	c-1.6,1.9-3.6,3.4-6,4.3c-2.5,1-5.2,1.4-8.2,1.4c-3.9,0-7.4-0.8-10.3-2.4s-5.2-3.7-6.9-6.5c-1.6-2.8-2.5-5.9-2.5-9.4
	c0-3.5,0.8-6.6,2.4-9.3c1.5-2.8,3.8-4.9,6.6-6.5c2.8-1.5,5.9-2.4,9.4-2.4s6.6,0.7,9.3,2.3c2.8,1.5,4.8,3.7,6.4,6.5
	c1.5,2.8,2.3,5.9,2.3,9.6C179.4,22.4,179.3,23.2,179.2,24.3z M154.7,12.5c-1.8,1.5-3,3.7-3.4,6.2h20.2c-0.3-2.6-1.4-4.6-3.3-6.2
	s-4.1-2.4-6.8-2.4C158.7,10.1,156.4,10.9,154.7,12.5z"/>
<path class="st0" d="M217.2,3.9l-15.3,35.6h-8.6L178.1,3.9h8.6l11.1,26.3l11.4-26.3C209.2,3.9,217.2,3.9,217.2,3.9z"/>
<path class="st0" d="M255,3.9l-16.6,38.4c-1.5,3.9-3.5,6.6-5.6,8.2c-2.3,1.5-4.9,2.4-8.1,2.4c-1.7,0-3.5-0.3-5.2-0.8
	c-1.7-0.6-3.2-1.3-4.3-2.4l3.3-6.1c0.8,0.7,1.7,1.3,2.9,1.8c1.1,0.4,2.2,0.6,3.3,0.6c1.4,0,2.7-0.4,3.6-1.1c0.9-0.7,1.8-2,2.7-3.8
	l0.6-1.4L215.9,4h8.6l11.2,26.2L247,4h8V3.9z"/>
</svg>
