<?xml version="1.0" encoding="utf-8"?>
<!-- Generator: Adobe Illustrator 24.1.2, SVG Export Plug-In . SVG Version: 6.00 Build 0)  -->
<svg version="1.1" id="Layer_1" xmlns="http://www.w3.org/2000/svg" xmlns:xlink="http://www.w3.org/1999/xlink" x="0px" y="0px"
	 viewBox="0 0 1056.6 367" style="enable-background:new 0 0 1056.6 367;" xml:space="preserve">
<style type="text/css">
	.st0{fill-rule:evenodd;clip-rule:evenodd;fill:#FFFFFF;}
	.st1{fill-rule:evenodd;clip-rule:evenodd;fill:#E84E1C;}
</style>
<g>
	<path class="st0" d="M410.8,199.5c-17.3-5.2-33.3-10.1-33.3-25.8c0-13.3,12.1-19.6,25.8-19.6c12.4,0,26.2,5.5,34.4,16.1l18.7-20.1
		c-13.1-15.9-32.5-23.9-51.7-23.9c-29.3,0-56.3,18.1-56.3,50.8c0,32.1,25.8,41.4,48.5,48.2c18.3,5.7,35.1,9.8,35.1,24.6
		c0,11.7-10.6,19.6-25.8,19.6c-14.6,0-30.9-7.2-41.4-20.9l-20.1,21c15.7,19.2,38.4,27.9,59.4,27.9c30.2,0,57.4-18.1,57.4-51.1
		C461.3,213.8,434.1,206.3,410.8,199.5 M599,259.8l-26.3-79.1h-28.2l-26.6,79.1l-26.3-79.1h-30.3l43.6,116.8h26l27.5-77.8l27.5,77.8
		h26.3l43.6-116.8h-31.6L599,259.8z"/>
	<path class="st0" d="M671.4,297.5h31.2V180.6h-31.2V297.5z M690.9,118.5c-11,0-19.5,8.4-19.5,19.6c0,11,8.5,19.3,19.5,19.3
		s19.5-8.4,19.5-19.3C710.3,126.9,701.7,118.5,690.9,118.5 M791.8,172.9c-16.5,0-30.8,7.6-38.2,20.4v-17.5h-27.7v121.8h28.4v-65.4
		c0-22.6,14.6-33.3,28.7-33.3c12.9,0,23.3,8.6,23.3,25.4v73.4h28.5v-78.2C834.9,188.8,815.8,172.9,791.8,172.9 M917.2,271.7
		c-11,0-19.6-6.4-19.6-19.7v-50.8h41.6l-15-25.7h-26.7v-49.3h-29.1v49.4h-33.8l15,25.7h18.8v55.1c0,27.1,19.3,41.3,41.8,41.3
		c11,0,22.9-3.6,33.4-11l-7.6-21.2C930.1,269.5,923.3,271.7,917.2,271.7 M1018.4,271.7c-11,0-19.6-6.4-19.6-19.7v-50.8h41.6
		l-15-25.7h-26.7v-49.3h-29.1v49.4h-33.6l15,25.7h18.8v55.1c0,27.1,19.3,41.3,41.8,41.3c11,0,22.9-3.6,33.4-11l-7.6-21.2
		C1031.3,269.5,1024.5,271.7,1018.4,271.7"/>
	<path class="st1" d="M277.3,10.8H142.1L75,126l0.4,0.7l33,56.5l0,0l0,0l0,0l33.8,57.9l0,0l-5.2-7.5l0,0l-31.5-45.4l-3.5-5l0,0H41.7
		L7.1,242.6l67.5,115.9h135.1l67.5-115.9l0,0l0.8-1.4H278l-33.8-57.9l0,0l0,0l-33.8-57.9l0,0l40.2,57.9l0,0h60.3h0.7l0,0l0,0
		l33-56.6L277.3,10.8z"/>
</g>
</svg>
