<?xml version="1.0" encoding="utf-8"?>
<!-- Generator: Adobe Illustrator 25.3.1, SVG Export Plug-In . SVG Version: 6.00 Build 0)  -->
<svg version="1.1" id="Layer_1" xmlns="http://www.w3.org/2000/svg" xmlns:xlink="http://www.w3.org/1999/xlink" x="0px" y="0px"
	 viewBox="0 0 358.8 60.6" style="enable-background:new 0 0 358.8 60.6;" xml:space="preserve">
<path id="XMLID_2_" style="fill:#E29803;" d="M37.65,16.04c-0.71,0-1.4,0.07-2.1,0.17C35.13,11.62,31.3,8,26.59,8
	c-0.56,0-1.01,0.45-1.01,1.01v4.02c0,0.56,0.45,1.01,1.01,1.01c1.52,0,2.77,1.13,2.97,2.59c-1.3-0.38-2.62-0.58-3.98-0.58
	c-8.87,0-16.09,8.12-16.09,18.1s7.22,18.1,16.09,18.1h12.07c8.87,0,16.09-8.12,16.09-18.1S46.52,16.04,37.65,16.04z M17.67,31.61
	c-0.18-0.32-0.17-0.71,0.03-1.02l5.03-8.04c0.37-0.59,1.34-0.59,1.71,0l5.03,8.04c0.2,0.31,0.21,0.7,0.03,1.02
	c-0.18,0.32-0.52,0.52-0.88,0.52H18.55C18.18,32.13,17.85,31.93,17.67,31.61z M37.38,44.53l-0.11-0.74
	c-0.04-0.26-0.18-0.5-0.39-0.66c-0.21-0.16-0.48-0.23-0.75-0.19l-3.98,0.58c-0.55,0.08-0.93,0.59-0.85,1.14l0.23,1.55
	c-0.88-0.01-1.75-0.12-2.59-0.34l0.51-0.95c0.26-0.49,0.08-1.1-0.41-1.36l-3.54-1.91c-0.23-0.13-0.51-0.15-0.76-0.08
	c-0.26,0.08-0.47,0.25-0.6,0.49l-0.38,0.7c-1.13-1.28-1.85-2.8-2.09-4.41h19.92C41.22,40.84,39.69,43.08,37.38,44.53z M44.73,32.13
	c-0.01,0-0.03,0-0.04,0H34.64c-0.37,0-0.7-0.2-0.88-0.52c-0.18-0.32-0.17-0.71,0.03-1.02l5.03-8.04c0.37-0.59,1.34-0.59,1.71,0
	l4.9,7.84c0.2,0.18,0.32,0.45,0.32,0.74C45.74,31.68,45.29,32.13,44.73,32.13z"/>
<g>
	<path style="fill:#FFFFFF;" d="M84.8,36.84c0,0.14-0.06,0.23-0.17,0.26s-0.19,0.07-0.23,0.11c-0.3,0.28-0.6,0.54-0.89,0.77
		c-0.29,0.23-0.57,0.48-0.83,0.74c-0.14,0.14-0.2,0.32-0.17,0.54c0.03,0.22,0.02,0.41-0.02,0.57c-0.04,0.26-0.07,0.54-0.08,0.83
		c-0.01,0.29-0.04,0.58-0.08,0.86c-0.04,0.12-0.12,0.2-0.23,0.23c-0.11,0.03-0.19,0.04-0.23,0.04c-0.18,0-0.31-0.05-0.39-0.15
		c-0.08-0.1-0.14-0.22-0.17-0.36c-0.03-0.14-0.05-0.29-0.06-0.44c-0.01-0.15-0.03-0.28-0.04-0.38c-0.04-0.2-0.17-0.38-0.38-0.54
		c-0.21-0.16-0.39-0.24-0.53-0.24c-0.18,0-0.33,0.07-0.45,0.2s-0.22,0.29-0.3,0.47c-0.08,0.18-0.14,0.37-0.17,0.56
		c-0.03,0.19-0.04,0.34-0.04,0.44l0.3,3.17c0,0.1,0,0.21,0,0.33c0,0.12-0.02,0.24-0.06,0.35c-0.04,0.11-0.1,0.21-0.18,0.29
		c-0.08,0.08-0.2,0.12-0.36,0.12c-0.2,0-0.35-0.04-0.45-0.12s-0.17-0.18-0.21-0.3c-0.04-0.12-0.06-0.25-0.06-0.38
		c0-0.13,0-0.24,0-0.32l0.21-2.68c0-0.14-0.01-0.3-0.03-0.47c-0.02-0.17-0.07-0.33-0.15-0.48c-0.08-0.15-0.19-0.28-0.32-0.38
		c-0.13-0.1-0.3-0.15-0.5-0.15c-0.06,0-0.11,0.01-0.15,0.03c-0.04,0.02-0.08,0.04-0.12,0.06c-0.22,0.04-0.4,0.14-0.54,0.29
		c-0.14,0.15-0.25,0.32-0.33,0.5s-0.14,0.37-0.18,0.56c-0.04,0.19-0.08,0.36-0.12,0.5c-0.02,0.08-0.05,0.17-0.09,0.27
		c-0.04,0.1-0.1,0.19-0.18,0.27c-0.04,0.02-0.12,0.07-0.23,0.15s-0.22,0.1-0.32,0.06c-0.14-0.16-0.22-0.34-0.23-0.54
		c-0.01-0.2-0.03-0.4-0.04-0.59c-0.02-0.19-0.07-0.38-0.15-0.56c-0.08-0.18-0.27-0.32-0.57-0.42l-0.15-0.15
		c-0.08-0.38-0.29-0.57-0.63-0.57c-0.24,0-0.43,0.01-0.57,0.03c-0.14,0.02-0.28,0.04-0.41,0.06c-0.13,0.02-0.23,0.05-0.29,0.09
		c-0.04,0.12-0.06,0.28-0.06,0.47s0,0.32,0,0.38c0,0.34,0.02,0.61,0.05,0.81c0.03,0.2,0.06,0.37,0.11,0.5
		c0.04,0.13,0.08,0.26,0.11,0.38c0.03,0.12,0.04,0.28,0.04,0.48c0,0.18-0.04,0.34-0.12,0.48c-0.08,0.14-0.2,0.21-0.36,0.21
		c-0.18,0-0.3-0.08-0.35-0.24c-0.05-0.16-0.08-0.34-0.08-0.54c0-0.2,0.03-0.47,0.09-0.81c0.02-0.28,0.05-0.56,0.09-0.84
		c0.04-0.28,0.01-0.56-0.09-0.84c-0.16-0.42-0.46-0.79-0.89-1.12c-0.43-0.32-0.82-0.64-1.16-0.96c-0.22-0.2-0.45-0.42-0.69-0.65
		c-0.24-0.23-0.47-0.48-0.69-0.74c-0.08-0.08-0.18-0.21-0.29-0.38c-0.11-0.17-0.23-0.36-0.35-0.56s-0.23-0.41-0.33-0.63
		c-0.1-0.22-0.18-0.42-0.24-0.6C67,35,66.93,34.84,66.83,34.65c-0.1-0.19-0.17-0.36-0.21-0.5c-0.08-0.2-0.18-0.45-0.3-0.75
		c-0.12-0.3-0.23-0.63-0.33-0.99c-0.1-0.36-0.19-0.73-0.26-1.1c-0.07-0.37-0.1-0.72-0.08-1.04l0.45-2.86l-0.03-0.03
		c0-0.04,0-0.07,0.02-0.09c0.01-0.02,0.02-0.05,0.02-0.09c-0.22-0.4-0.45-0.78-0.68-1.15c-0.23-0.36-0.55-0.7-0.95-1.02l1.9,0.42
		c0.02-0.02,0.03-0.04,0.03-0.06v-0.06c-0.24-0.28-0.5-0.56-0.78-0.84c-0.28-0.28-0.53-0.52-0.75-0.72
		c-0.16-0.16-0.33-0.31-0.51-0.45s-0.37-0.29-0.57-0.45l0.87,0.21h0.03L64.75,23l2.62,0.78h0.24v-0.06
		c-0.08-0.2-0.17-0.39-0.27-0.56c-0.1-0.17-0.17-0.36-0.21-0.56c-0.06-0.22-0.11-0.46-0.15-0.72c-0.04-0.26-0.08-0.53-0.12-0.81
		v-0.18c0.1,0.1,0.26,0.2,0.47,0.3s0.4,0.2,0.56,0.3c0.2,0.12,0.39,0.26,0.56,0.41c0.17,0.15,0.37,0.31,0.59,0.47l0.15-0.12
		c-0.06-0.06-0.13-0.16-0.2-0.29c-0.07-0.13-0.09-0.24-0.05-0.32c0.08,0.04,0.18,0.07,0.3,0.08c0.12,0.01,0.21,0.02,0.27,0.02
		c0.08,0,0.16,0,0.23,0s0.15-0.05,0.23-0.15c-0.1-0.2-0.23-0.4-0.38-0.6c-0.15-0.2-0.36-0.44-0.62-0.72c0.02,0,0.06-0.01,0.11-0.03
		c0.05-0.02,0.11-0.03,0.17-0.03c0.26,0,0.48,0.05,0.66,0.15c0.18,0.1,0.38,0.17,0.6,0.21c0.04-0.02,0.06-0.02,0.04-0.02
		c-0.01,0.01-0.02-0.01-0.02-0.08c0-0.06-0.03-0.19-0.09-0.39c-0.06-0.2-0.11-0.36-0.15-0.48c0.18-0.02,0.42-0.02,0.72,0
		c0.3,0.02,0.56,0.05,0.78,0.09c0.16,0.04,0.36,0.09,0.6,0.15c0.24,0.06,0.39,0.09,0.45,0.09c0.02,0,0.12-0.02,0.29-0.06
		c0.17-0.04,0.37-0.09,0.6-0.15c0.23-0.06,0.47-0.12,0.71-0.18c0.24-0.06,0.44-0.11,0.6-0.15c0.16-0.04,0.37-0.07,0.62-0.08
		c0.25-0.01,0.41-0.02,0.47-0.02c1.02,0,2.03,0.09,3.03,0.26c0.99,0.17,1.91,0.49,2.76,0.95c0.06,0.04,0.18,0.14,0.35,0.29
		c0.17,0.15,0.34,0.26,0.5,0.32c0.12,0.04,0.28,0.12,0.48,0.23c0.2,0.11,0.4,0.24,0.59,0.38c0.19,0.14,0.35,0.29,0.48,0.45
		c0.13,0.16,0.2,0.33,0.2,0.51c0,0.04-0.09,0.18-0.27,0.41c-0.18,0.23-0.38,0.48-0.6,0.74c-0.22,0.26-0.43,0.51-0.62,0.74
		c-0.19,0.23-0.31,0.38-0.35,0.44c-0.12,0.2-0.29,0.41-0.51,0.63c-0.22,0.22-0.42,0.33-0.6,0.33c-0.12,0-0.21-0.05-0.26-0.15
		c-0.05-0.1-0.12-0.17-0.2-0.21c-0.08-0.04-0.17-0.08-0.27-0.12c-0.1-0.04-0.2-0.1-0.3-0.18c-0.04-0.02-0.16-0.1-0.36-0.24
		c-0.2-0.14-0.43-0.29-0.68-0.44c-0.25-0.15-0.5-0.29-0.74-0.42c-0.24-0.13-0.41-0.2-0.51-0.2c-0.08,0-0.15,0.04-0.21,0.11
		c-0.06,0.07-0.13,0.14-0.2,0.21c-0.07,0.07-0.15,0.14-0.23,0.21c-0.08,0.07-0.17,0.11-0.27,0.11c-0.18,0-0.34-0.11-0.47-0.32
		s-0.25-0.37-0.35-0.47h-0.15c-0.08,0.18-0.17,0.37-0.27,0.57c-0.1,0.2-0.2,0.41-0.3,0.63c-0.18,0.02-0.39-0.02-0.63-0.14
		s-0.49-0.24-0.75-0.38c-0.06,0.08-0.09,0.2-0.09,0.35s-0.01,0.3-0.02,0.44c-0.01,0.14-0.05,0.26-0.11,0.36
		c-0.06,0.1-0.19,0.15-0.39,0.15l-1.18-0.09c-0.02,0.12,0,0.29,0.08,0.5c0.07,0.21,0.11,0.41,0.11,0.59
		c-0.12,0.16-0.3,0.24-0.54,0.23c-0.24-0.01-0.47,0.01-0.69,0.05c0.06,0.14,0.13,0.3,0.21,0.47s0.12,0.3,0.12,0.38
		c0,0.14-0.04,0.24-0.11,0.29c-0.07,0.05-0.16,0.08-0.27,0.09c-0.11,0.01-0.22,0.02-0.33,0.03c-0.11,0.01-0.21,0.04-0.29,0.11
		c0.1,0.14,0.23,0.31,0.39,0.51c0.16,0.2,0.24,0.33,0.24,0.39c0,0.14-0.04,0.25-0.11,0.33c-0.07,0.08-0.16,0.15-0.26,0.2
		c-0.1,0.05-0.2,0.09-0.29,0.12c-0.09,0.03-0.16,0.07-0.2,0.11c-0.02,0.08-0.04,0.18-0.05,0.3s-0.02,0.21-0.02,0.27
		c0,0.36,0.05,0.76,0.15,1.19s0.26,0.85,0.47,1.25c0.21,0.4,0.49,0.78,0.83,1.13c0.34,0.35,0.76,0.62,1.27,0.8
		c0.12,0.04,0.26,0.1,0.42,0.17c0.16,0.07,0.3,0.14,0.42,0.2c0.56,0.26,1.03,0.42,1.42,0.48c0.38,0.06,0.71,0.09,1,0.09
		c0.84,0,1.54-0.11,2.08-0.33c0.54-0.22,0.99-0.46,1.34-0.71c0.35-0.25,0.63-0.49,0.84-0.71s0.41-0.33,0.59-0.33
		c0.22,0,0.52,0.13,0.89,0.39c0.37,0.26,0.74,0.56,1.1,0.9c0.36,0.34,0.67,0.67,0.93,1C84.67,36.53,84.8,36.74,84.8,36.84z"/>
	<path style="fill:#FFFFFF;" d="M107.14,40.7c-0.1,0.04-0.2,0.14-0.29,0.29s-0.21,0.26-0.35,0.32c-0.24,0.14-0.47,0.23-0.68,0.27
		c-0.21,0.04-0.43,0.08-0.65,0.12c-0.02,0.02-0.04,0.08-0.08,0.18s-0.06,0.21-0.08,0.32c-0.02,0.11-0.04,0.22-0.06,0.32
		s-0.03,0.16-0.03,0.18l0.33,3.14c0,0.06-0.01,0.15-0.03,0.26c-0.02,0.11-0.05,0.23-0.09,0.35c-0.04,0.12-0.1,0.22-0.18,0.3
		c-0.08,0.08-0.19,0.12-0.33,0.12c-0.16,0-0.29-0.04-0.39-0.14c-0.1-0.09-0.17-0.2-0.21-0.32c-0.04-0.12-0.07-0.24-0.08-0.36
		c-0.01-0.12-0.02-0.2-0.02-0.24l0.27-2.77c0-0.12-0.04-0.32-0.11-0.59c-0.07-0.27-0.25-0.49-0.53-0.65c-0.1,0.06-0.2,0.12-0.3,0.18
		c-0.1,0.06-0.19,0.09-0.27,0.09c-0.16,0-0.29-0.06-0.39-0.17s-0.19-0.24-0.26-0.39c-0.07-0.15-0.13-0.3-0.17-0.45
		c-0.04-0.15-0.08-0.27-0.12-0.35c-0.14-0.22-0.29-0.54-0.45-0.95c-0.16-0.41-0.3-0.83-0.42-1.25c-0.04-0.14-0.1-0.29-0.18-0.45
		c-0.08-0.16-0.15-0.32-0.21-0.48c-0.1-0.22-0.2-0.44-0.29-0.66c-0.09-0.22-0.21-0.44-0.35-0.66l-8.32-0.12
		c-0.04,0.04-0.08,0.1-0.12,0.18c-0.18,0.44-0.35,0.88-0.51,1.33c-0.16,0.44-0.35,0.89-0.57,1.36c-0.04,0.1-0.11,0.21-0.21,0.33
		c-0.1,0.12-0.19,0.23-0.27,0.33c-0.1,0.16-0.18,0.34-0.23,0.53c-0.05,0.19-0.12,0.37-0.2,0.53c0,0.04-0.03,0.08-0.09,0.14
		c-0.06,0.05-0.11,0.09-0.15,0.14c-0.1,0.24-0.21,0.51-0.33,0.8c-0.12,0.29-0.18,0.53-0.18,0.71l0.3,2.74c0,0.1-0.03,0.27-0.09,0.51
		c-0.06,0.24-0.2,0.36-0.42,0.36c-0.12,0-0.22-0.04-0.29-0.12c-0.07-0.08-0.13-0.18-0.17-0.29c-0.04-0.11-0.07-0.22-0.08-0.32
		c-0.01-0.1-0.02-0.17-0.02-0.21l0.21-2.38c0-0.2-0.06-0.45-0.18-0.74c-0.12-0.29-0.32-0.44-0.6-0.44c-0.22,0-0.4,0.07-0.54,0.2
		c-0.14,0.13-0.25,0.29-0.32,0.47c-0.07,0.18-0.13,0.37-0.17,0.56c-0.04,0.19-0.07,0.35-0.09,0.47c-0.02,0.06-0.06,0.16-0.12,0.3
		c-0.06,0.14-0.17,0.23-0.33,0.27c-0.22-0.12-0.33-0.31-0.32-0.56c0.01-0.25,0-0.48-0.04-0.68c-0.08-0.24-0.18-0.39-0.29-0.44
		c-0.11-0.05-0.21-0.11-0.29-0.17c-0.12-0.08-0.27-0.22-0.44-0.41c-0.17-0.19-0.26-0.39-0.26-0.59c0-0.06,0.04-0.22,0.14-0.47
		c0.09-0.25,0.19-0.49,0.29-0.71c0.22-0.5,0.44-1,0.66-1.49c0.22-0.49,0.44-0.99,0.66-1.49c0.22-0.46,0.47-0.99,0.74-1.58
		c0.27-0.59,0.55-1.19,0.83-1.79c0.18-0.4,0.38-0.84,0.6-1.33c0.22-0.48,0.44-0.96,0.66-1.45c0.12-0.26,0.27-0.59,0.45-0.99
		c0.18-0.4,0.34-0.74,0.48-1.02c0.28-0.62,0.58-1.31,0.9-2.05c0.32-0.74,0.65-1.49,0.98-2.23c0.33-0.74,0.66-1.47,0.98-2.17
		c0.32-0.7,0.63-1.33,0.93-1.87c0.08-0.14,0.19-0.25,0.33-0.33c0.14-0.08,0.29-0.13,0.45-0.15c0.16-0.02,0.33-0.03,0.5-0.03
		c0.17,0,0.32,0,0.44,0c0.46,0,0.94,0.02,1.43,0.05c0.49,0.03,0.94,0.18,1.34,0.44c0.22,0.14,0.4,0.32,0.54,0.54
		c0.14,0.22,0.26,0.45,0.36,0.69c0.1,0.24,0.19,0.48,0.26,0.72c0.07,0.24,0.16,0.45,0.26,0.63c0.34,0.7,0.66,1.43,0.95,2.19
		c0.29,0.75,0.58,1.48,0.86,2.19c0.9,2.21,1.83,4.43,2.77,6.66C105.22,36.21,106.17,38.45,107.14,40.7z M98.94,32.74
		c-0.28-0.66-0.57-1.33-0.86-2.01c-0.29-0.67-0.58-1.34-0.86-2c-0.1-0.06-0.18-0.14-0.24-0.24c-0.06-0.1-0.11-0.22-0.15-0.35
		c-0.04-0.13-0.08-0.27-0.12-0.41c-0.04-0.14-0.09-0.28-0.15-0.42c-0.04-0.06-0.1-0.11-0.18-0.14c-0.08-0.03-0.15-0.05-0.21-0.05
		c-0.08,0-0.16,0.01-0.23,0.03c-0.07,0.02-0.13,0.03-0.17,0.03c-0.4,0.86-0.85,1.75-1.36,2.65c-0.5,0.9-0.92,1.78-1.27,2.62
		c1.02,0.22,2,0.32,2.92,0.29S97.95,32.72,98.94,32.74z"/>
	<path style="fill:#FFFFFF;" d="M127.52,30.18l-0.09,0.78c-0.06,0.34-0.12,0.7-0.18,1.09c-0.06,0.38-0.14,0.73-0.24,1.05
		c-0.04,0.12-0.11,0.29-0.2,0.5c-0.09,0.21-0.18,0.41-0.26,0.59c-0.14,0.32-0.29,0.66-0.45,1.02c-0.16,0.36-0.35,0.72-0.57,1.09
		c-0.22,0.36-0.47,0.71-0.75,1.05c-0.28,0.34-0.6,0.64-0.96,0.9c-0.16,0.12-0.36,0.25-0.59,0.39c-0.23,0.14-0.47,0.29-0.71,0.45
		c-0.1,0.08-0.19,0.21-0.27,0.39c-0.08,0.18-0.13,0.35-0.15,0.51c-0.04,0.04-0.07,0.07-0.08,0.08C122,40.09,122,40.13,122,40.21
		v0.39c0,0.06,0.01,0.12,0.03,0.18c0.02,0.06,0.02,0.11,0,0.15c-0.02,0.02-0.05,0.05-0.09,0.09c-0.04,0.04-0.06,0.09-0.06,0.15v0.69
		c-0.08,0.08-0.2,0.12-0.36,0.12c-0.18,0-0.31-0.09-0.39-0.26c-0.08-0.17-0.12-0.28-0.12-0.32V41c0-0.24-0.1-0.47-0.3-0.69
		c-0.2-0.22-0.41-0.33-0.63-0.33c-0.22,0-0.4,0.07-0.53,0.21c-0.13,0.14-0.23,0.31-0.3,0.5c-0.07,0.19-0.12,0.37-0.14,0.54
		s-0.03,0.29-0.03,0.35l0.33,3.13c0,0.06-0.01,0.15-0.02,0.26c-0.01,0.11-0.04,0.22-0.08,0.33s-0.1,0.21-0.18,0.3
		c-0.08,0.09-0.19,0.14-0.33,0.14c-0.16,0-0.29-0.05-0.39-0.15c-0.1-0.1-0.17-0.21-0.21-0.33c-0.04-0.12-0.07-0.24-0.08-0.35
		c-0.01-0.11-0.02-0.19-0.02-0.23l0.27-2.86c0-0.12-0.03-0.26-0.08-0.41c-0.05-0.15-0.12-0.29-0.21-0.42s-0.2-0.24-0.33-0.32
		c-0.13-0.08-0.27-0.11-0.41-0.09c-0.18,0.02-0.38,0.08-0.59,0.18c-0.21,0.1-0.37,0.23-0.47,0.39c-0.1,0.16-0.18,0.36-0.23,0.59
		c-0.05,0.23-0.11,0.45-0.17,0.66s-0.13,0.39-0.21,0.53c-0.08,0.14-0.21,0.21-0.39,0.21c-0.14,0-0.23-0.04-0.27-0.12
		c-0.04-0.08-0.08-0.21-0.12-0.39l-0.06-0.75c0-0.2-0.09-0.37-0.27-0.51c-0.18-0.14-0.32-0.24-0.42-0.3
		c-0.04-0.04-0.08-0.11-0.12-0.2c-0.04-0.09-0.08-0.18-0.12-0.26c-0.1-0.14-0.19-0.21-0.27-0.21c-0.08,0-0.16,0-0.24,0l-0.93,0.06
		c-0.1,0-0.22,0.07-0.36,0.21v1.36l0.33,1.54c-0.04,0.42-0.2,0.63-0.48,0.63c-0.1,0-0.19-0.04-0.27-0.12
		c-0.08-0.08-0.12-0.14-0.12-0.18v-0.87l0.12-0.57l0.06-0.87c-0.04-0.16-0.07-0.35-0.09-0.56c-0.02-0.21-0.13-0.42-0.34-0.62
		l-2.14,0.12c-0.06,0.3-0.08,0.65-0.06,1.05c0.02,0.4,0.06,0.83,0.11,1.28c0.05,0.45,0.1,0.91,0.15,1.37
		c0.05,0.46,0.08,0.91,0.08,1.36c0,0.1-0.02,0.25-0.05,0.45c-0.03,0.2-0.16,0.3-0.38,0.3c-0.1,0-0.22-0.06-0.36-0.18
		c-0.14-0.12-0.21-0.26-0.21-0.42V41c0-0.16-0.09-0.32-0.26-0.47c-0.17-0.15-0.34-0.27-0.5-0.35v-1.96
		c0.06-0.06,0.11-0.13,0.15-0.21c0.04-0.08,0.06-0.2,0.06-0.36c-0.02-0.48-0.06-0.96-0.11-1.45c-0.05-0.48-0.08-0.97-0.08-1.48
		c-0.02-1.55-0.03-3.22-0.02-5.03c0.01-1.81-0.02-3.84-0.08-6.09l0.21-1.27V19.2c1.5,0,2.67,0,3.51-0.02
		c0.84-0.01,1.47-0.02,1.91-0.04c0.43-0.02,0.72-0.03,0.87-0.03c0.15,0,0.29-0.01,0.41-0.03c0.12-0.02,0.3-0.03,0.53-0.03
		s0.64-0.01,1.22-0.03l3.04,0.45c0.3,0.1,0.62,0.2,0.96,0.3c0.34,0.1,0.64,0.2,0.9,0.3c0.5,0.22,1.04,0.52,1.63,0.89
		c0.58,0.37,1.14,0.8,1.66,1.28c0.52,0.48,0.98,1,1.37,1.55c0.39,0.55,0.67,1.11,0.83,1.67c0.08,0.24,0.17,0.48,0.26,0.71
		s0.16,0.49,0.2,0.77c0.02,0.2,0.05,0.41,0.11,0.62c0.05,0.21,0.11,0.46,0.17,0.74L127.52,30.18z M122.27,29.33l-0.09-1.02
		c-0.04-0.38-0.17-0.78-0.38-1.19c-0.21-0.41-0.45-0.79-0.71-1.13c-0.04-0.04-0.09-0.1-0.14-0.18c-0.05-0.08-0.1-0.14-0.14-0.18
		c-0.2-0.18-0.42-0.38-0.66-0.59c-0.24-0.21-0.49-0.41-0.74-0.59c-0.25-0.18-0.5-0.34-0.75-0.47c-0.25-0.13-0.48-0.21-0.68-0.23
		l-2.08-0.33c-0.86,0-1.48,0-1.85,0.01c-0.37,0.01-0.63,0.03-0.77,0.05c-0.14,0.02-0.23,0.04-0.26,0.05s-0.13,0.03-0.29,0.04
		c0,0.64-0.01,1.25-0.03,1.82c-0.02,0.57-0.04,1.22-0.05,1.94c-0.01,0.72-0.02,1.59-0.02,2.61c0,1.02,0.01,2.3,0.03,3.84
		c0,0.04,0,0.18,0,0.41c0,0.23,0,0.48,0.02,0.74c0.01,0.26,0.02,0.5,0.03,0.72c0.01,0.22,0.02,0.34,0.04,0.36l3.14,0.03
		c0.24-0.05,0.51-0.1,0.81-0.15s0.68-0.08,1.15-0.09l0.84-0.12c0.1-0.04,0.21-0.08,0.33-0.12s0.21-0.08,0.27-0.12
		c0.22-0.16,0.47-0.35,0.75-0.56c0.28-0.21,0.55-0.44,0.81-0.69c0.26-0.25,0.49-0.52,0.68-0.81c0.19-0.29,0.31-0.61,0.35-0.95
		L122.27,29.33z"/>
	<path style="fill:#FFFFFF;" d="M137.01,30.24c0,0.06,0,0.24,0,0.54s-0.01,0.55-0.03,0.75c-0.02,0.1-0.05,0.22-0.09,0.36
		c-0.04,0.14-0.06,0.24-0.06,0.3v2.23c0,0.04-0.01,0.13-0.03,0.26c-0.02,0.13-0.04,0.29-0.06,0.47s-0.05,0.37-0.09,0.57
		c-0.04,0.2-0.07,0.37-0.09,0.51c-0.12,0.6-0.26,1.22-0.41,1.84c-0.15,0.62-0.32,1.24-0.5,1.84c-0.02,0.08-0.07,0.17-0.15,0.26
		c-0.08,0.09-0.12,0.19-0.12,0.29c-0.04,0.16-0.06,0.35-0.05,0.56s-0.07,0.43-0.23,0.65c-0.04,0.06-0.11,0.11-0.21,0.14
		c-0.1,0.03-0.19,0.04-0.27,0.04c-0.12-0.08-0.19-0.18-0.2-0.3c-0.01-0.12-0.01-0.25,0-0.39c0.01-0.14,0-0.27-0.03-0.39
		c-0.03-0.12-0.13-0.22-0.29-0.3c-0.22,0.16-0.34,0.35-0.36,0.56s-0.07,0.41-0.15,0.59c-0.1,0.24-0.15,0.51-0.14,0.8
		c0.01,0.29,0.03,0.55,0.08,0.77c0.04,0.16,0.06,0.33,0.05,0.5c-0.01,0.17-0.03,0.35-0.05,0.53c-0.02,0.1-0.08,0.2-0.17,0.3
		c-0.09,0.1-0.2,0.15-0.32,0.15c-0.16,0-0.3-0.09-0.41-0.26c-0.11-0.17-0.18-0.33-0.2-0.47c0-0.14,0.02-0.34,0.08-0.59
		c0.05-0.25,0.08-0.48,0.08-0.68c0-0.02-0.01-0.1-0.02-0.24c-0.01-0.14-0.03-0.29-0.06-0.45c-0.03-0.16-0.07-0.3-0.12-0.42
		c-0.05-0.12-0.13-0.18-0.23-0.18c-0.06,0-0.11,0.01-0.14,0.03c-0.03,0.02-0.08,0.03-0.14,0.03c-0.16,0-0.31-0.09-0.45-0.27
		c-0.16-0.26-0.25-0.55-0.26-0.87c-0.01-0.32-0.06-0.61-0.14-0.88c-0.06-0.18-0.16-0.41-0.3-0.69c-0.14-0.28-0.24-0.56-0.3-0.84
		c-0.12-0.54-0.21-1.09-0.27-1.66c-0.06-0.56-0.14-1.12-0.24-1.66c-0.02-0.1-0.05-0.24-0.08-0.41c-0.03-0.17-0.06-0.35-0.09-0.53
		c-0.03-0.18-0.06-0.35-0.09-0.5c-0.03-0.15-0.04-0.25-0.04-0.29v-4.58c0-0.26,0.04-0.66,0.12-1.21c0.08-0.54,0.2-1.07,0.36-1.6
		c0.04-0.08,0.13-0.15,0.26-0.2c0.13-0.05,0.22-0.11,0.26-0.17c0.06-0.1,0.1-0.23,0.11-0.39c0.01-0.16,0.03-0.31,0.08-0.45
		l0.03-2.59l0.27-1.15c-0.02-0.04-0.03-0.08-0.03-0.11s-0.02-0.06-0.06-0.08c-0.08,0.04-0.17,0.11-0.27,0.21
		c-0.1,0.1-0.2,0.15-0.3,0.15c-0.1,0-0.17-0.04-0.21-0.12c-0.04-0.08-0.06-0.15-0.06-0.21c0-0.1,0.06-0.23,0.17-0.39
		s0.24-0.32,0.39-0.48c0.15-0.16,0.3-0.3,0.45-0.42s0.28-0.19,0.38-0.21c0.12-0.04,0.3-0.05,0.54-0.03s0.4,0.03,0.48,0.03
		c0.06,0,0.21-0.01,0.45-0.03s0.44-0.01,0.6,0.03c0.36,0.14,0.66,0.38,0.9,0.72c0.24,0.34,0.46,0.68,0.66,1.02
		c0.04,0.06,0.07,0.19,0.09,0.39c0.02,0.2,0.04,0.35,0.06,0.45c0,0.06,0.02,0.12,0.05,0.17c0.03,0.05,0.05,0.11,0.08,0.17
		c0.04,0.18,0.07,0.4,0.09,0.66c0.02,0.26,0.03,0.42,0.03,0.48v2.02c0.12,0.1,0.24,0.23,0.36,0.39c0.1,0.14,0.2,0.32,0.3,0.53
		c0.1,0.21,0.19,0.47,0.27,0.77c0.14,0.62,0.24,1.1,0.3,1.42c0.06,0.32,0.1,0.59,0.12,0.8c0.02,0.21,0.03,0.41,0.03,0.59
		C137.01,29.6,137.01,29.87,137.01,30.24z M134.51,22.73c0-0.04,0-0.11,0-0.21c0-0.1-0.08-0.15-0.24-0.15
		c-0.04,0-0.1,0.01-0.17,0.03c-0.07,0.02-0.14,0.03-0.2,0.03c-0.12,0-0.24-0.03-0.36-0.11c-0.12-0.07-0.18-0.19-0.18-0.35
		c0-0.18,0.08-0.33,0.24-0.45c0.04-0.02,0.11-0.03,0.2-0.05c0.09-0.01,0.18-0.02,0.27-0.04c0.09-0.02,0.17-0.05,0.24-0.09
		c0.07-0.04,0.11-0.1,0.11-0.18c0-0.1-0.1-0.21-0.3-0.33c-0.2-0.12-0.35-0.2-0.45-0.24c-0.04-0.02-0.1-0.03-0.18-0.03
		c-0.08,0-0.15,0-0.21,0c-0.18,0-0.36,0.02-0.54,0.06c-0.18,0.04-0.37,0.17-0.57,0.39v0.3c0.22,0.04,0.41,0.11,0.56,0.21
		c0.15,0.1,0.23,0.25,0.23,0.45c0,0.1-0.05,0.2-0.15,0.3c-0.1,0.1-0.21,0.15-0.33,0.15c-0.06,0-0.14-0.03-0.23-0.09
		c-0.09-0.06-0.17-0.09-0.23-0.09c-0.06,0-0.1,0.01-0.11,0.03c-0.01,0.02-0.04,0.03-0.08,0.03c-0.02,0.06-0.04,0.11-0.05,0.15
		c-0.01,0.04-0.02,0.09-0.02,0.15c0,0.06,0.02,0.2,0.06,0.42c0.04,0.22,0.06,0.4,0.06,0.54c0.14,0.14,0.31,0.35,0.51,0.63
		c0.2,0.28,0.43,0.42,0.69,0.42h0.21c0.08,0,0.17-0.05,0.26-0.14s0.16-0.17,0.2-0.23c0.08-0.06,0.17-0.13,0.27-0.21
		c0.1-0.08,0.17-0.15,0.21-0.21c0.1-0.18,0.17-0.4,0.21-0.65C134.49,22.95,134.51,22.79,134.51,22.73z M133.82,23.94
		c-0.16,0-0.35-0.03-0.57-0.09c-0.22-0.06-0.46-0.03-0.72,0.09c0-0.02-0.01-0.05-0.03-0.09c-0.02-0.04-0.03-0.11-0.03-0.21
		c0.08-0.04,0.19-0.08,0.32-0.11c0.13-0.03,0.23-0.05,0.29-0.05c0.06,0,0.17,0.02,0.33,0.05c0.16,0.03,0.3,0.07,0.42,0.11V23.94z
		 M133.46,23.15c-0.04-0.04-0.09-0.04-0.14,0c-0.05,0.04-0.12,0.06-0.2,0.06c-0.08-0.08-0.12-0.17-0.12-0.27
		c0.08,0.08,0.15,0.12,0.21,0.12C133.27,23.06,133.35,23.09,133.46,23.15z"/>
	<path style="fill:#FFFFFF;" d="M154.47,36.75l-0.24,1.24v0.45l0.18,0.93v1.05c0,0.06-0.04,0.12-0.11,0.17
		c-0.07,0.05-0.15,0.09-0.23,0.12c-0.08,0.03-0.16,0.06-0.24,0.08c-0.08,0.02-0.13,0.04-0.15,0.06c-0.06,0.02-0.14,0.08-0.23,0.17
		c-0.09,0.09-0.18,0.14-0.26,0.14h-1.12c-0.08,0-0.22-0.03-0.41-0.09c-0.19-0.06-0.33-0.09-0.41-0.09c-0.06,0-0.16,0.02-0.29,0.06
		c-0.13,0.04-0.23,0.06-0.29,0.06H150l-0.21,0.57v1.18c0,0.06,0.02,0.08,0.06,0.06c0.04-0.02,0.06,0.01,0.06,0.09v1.54
		c0,0.06,0.07,0.14,0.21,0.24v0.42c-0.12,0.12-0.26,0.18-0.42,0.18c-0.1,0-0.18-0.03-0.24-0.08c-0.06-0.05-0.12-0.11-0.17-0.18
		s-0.11-0.16-0.17-0.26c-0.06-0.1-0.13-0.19-0.21-0.27v-0.63l0.21-0.6l-0.15-0.87l0.06-1.36c-0.12-0.06-0.21-0.09-0.27-0.09
		c-0.06,0-0.22,0.1-0.48,0.29c-0.26,0.19-0.47,0.34-0.63,0.44c-0.06,0.04-0.1,0.11-0.12,0.21c-0.02,0.1-0.07,0.19-0.15,0.27h-0.18
		l-1.18-0.27c-0.26,0.02-0.43,0.1-0.51,0.23c-0.08,0.13-0.11,0.25-0.09,0.35l-0.06,0.84c-0.14,0.1-0.27,0.08-0.39-0.06l-0.06-1.15
		c-0.06-0.4-0.15-0.69-0.27-0.87s-0.32-0.27-0.6-0.27c-0.24,0-0.42,0.05-0.53,0.14c-0.11,0.09-0.2,0.2-0.26,0.32
		c-0.06,0.12-0.12,0.25-0.18,0.38c-0.06,0.13-0.16,0.24-0.3,0.32c-0.04,0.02-0.1,0.03-0.17,0.03c-0.07,0-0.13,0.02-0.17,0.06
		c-0.16,0.16-0.28,0.41-0.35,0.75c-0.07,0.34-0.12,0.6-0.14,0.78l-0.12,1.39l0.24,1.24c0.02,0.06,0,0.2-0.06,0.42
		c-0.06,0.22-0.17,0.33-0.33,0.33c-0.22,0-0.37-0.11-0.44-0.33s-0.11-0.38-0.11-0.48l0.15-2.08c0.04-0.1,0.06-0.22,0.06-0.35
		s-0.01-0.25-0.03-0.35c-0.02-0.04-0.04-0.07-0.06-0.09c-0.02-0.02-0.03-0.07-0.03-0.15v-1.02c0-0.18-0.09-0.35-0.26-0.5
		c-0.17-0.15-0.36-0.28-0.57-0.39c-0.21-0.11-0.41-0.2-0.6-0.27c-0.19-0.07-0.31-0.12-0.35-0.14c-0.04-0.02-0.07-0.05-0.09-0.11
		c-0.02-0.05-0.05-0.1-0.09-0.14c-0.04-0.04-0.1-0.07-0.18-0.09c-0.08-0.02-0.17-0.08-0.27-0.18V21.98l0.18-1.09v-0.87
		c0-0.06,0.06-0.13,0.18-0.2s0.2-0.11,0.24-0.11l4.1,0.06c0.08,0.04,0.17,0.08,0.26,0.11c0.09,0.03,0.16,0.09,0.2,0.17v7.87
		c0,0.08,0.02,0.19,0.06,0.33c0.04,0.14,0.04,0.28,0,0.42l-0.21,1.54l0.09,4.1l0.12,1.12c0.04,0.18,0.15,0.43,0.33,0.75
		c0.6,0,1.14,0.01,1.6,0.02s1.01,0.02,1.66,0.02c0.64,0,1.45-0.01,2.43-0.02c0.97-0.01,2.27-0.04,3.87-0.08
		c0.24-0.02,0.39,0.07,0.44,0.26C154.41,36.56,154.45,36.69,154.47,36.75z"/>
	<path style="fill:#FFFFFF;" d="M178.07,40.7c-0.1,0.04-0.2,0.14-0.29,0.29s-0.21,0.26-0.35,0.32c-0.24,0.14-0.47,0.23-0.68,0.27
		c-0.21,0.04-0.43,0.08-0.65,0.12c-0.02,0.02-0.04,0.08-0.08,0.18s-0.06,0.21-0.08,0.32c-0.02,0.11-0.04,0.22-0.06,0.32
		s-0.03,0.16-0.03,0.18l0.33,3.14c0,0.06-0.01,0.15-0.03,0.26c-0.02,0.11-0.05,0.23-0.09,0.35c-0.04,0.12-0.1,0.22-0.18,0.3
		c-0.08,0.08-0.19,0.12-0.33,0.12c-0.16,0-0.29-0.04-0.39-0.14c-0.1-0.09-0.17-0.2-0.21-0.32c-0.04-0.12-0.07-0.24-0.08-0.36
		c-0.01-0.12-0.02-0.2-0.02-0.24l0.27-2.77c0-0.12-0.04-0.32-0.11-0.59c-0.07-0.27-0.25-0.49-0.53-0.65c-0.1,0.06-0.2,0.12-0.3,0.18
		c-0.1,0.06-0.19,0.09-0.27,0.09c-0.16,0-0.29-0.06-0.39-0.17s-0.19-0.24-0.26-0.39c-0.07-0.15-0.13-0.3-0.17-0.45
		c-0.04-0.15-0.08-0.27-0.12-0.35c-0.14-0.22-0.29-0.54-0.45-0.95c-0.16-0.41-0.3-0.83-0.42-1.25c-0.04-0.14-0.1-0.29-0.18-0.45
		c-0.08-0.16-0.15-0.32-0.21-0.48c-0.1-0.22-0.2-0.44-0.29-0.66c-0.09-0.22-0.21-0.44-0.35-0.66l-8.32-0.12
		c-0.04,0.04-0.08,0.1-0.12,0.18c-0.18,0.44-0.35,0.88-0.51,1.33c-0.16,0.44-0.35,0.89-0.57,1.36c-0.04,0.1-0.11,0.21-0.21,0.33
		c-0.1,0.12-0.19,0.23-0.27,0.33c-0.1,0.16-0.18,0.34-0.23,0.53c-0.05,0.19-0.12,0.37-0.2,0.53c0,0.04-0.03,0.08-0.09,0.14
		c-0.06,0.05-0.11,0.09-0.15,0.14c-0.1,0.24-0.21,0.51-0.33,0.8c-0.12,0.29-0.18,0.53-0.18,0.71l0.3,2.74c0,0.1-0.03,0.27-0.09,0.51
		c-0.06,0.24-0.2,0.36-0.42,0.36c-0.12,0-0.22-0.04-0.29-0.12c-0.07-0.08-0.13-0.18-0.17-0.29c-0.04-0.11-0.07-0.22-0.08-0.32
		c-0.01-0.1-0.02-0.17-0.02-0.21l0.21-2.38c0-0.2-0.06-0.45-0.18-0.74c-0.12-0.29-0.32-0.44-0.6-0.44c-0.22,0-0.4,0.07-0.54,0.2
		c-0.14,0.13-0.25,0.29-0.32,0.47c-0.07,0.18-0.13,0.37-0.17,0.56c-0.04,0.19-0.07,0.35-0.09,0.47c-0.02,0.06-0.06,0.16-0.12,0.3
		c-0.06,0.14-0.17,0.23-0.33,0.27c-0.22-0.12-0.33-0.31-0.32-0.56c0.01-0.25,0-0.48-0.04-0.68c-0.08-0.24-0.18-0.39-0.29-0.44
		c-0.11-0.05-0.21-0.11-0.29-0.17c-0.12-0.08-0.27-0.22-0.44-0.41c-0.17-0.19-0.26-0.39-0.26-0.59c0-0.06,0.04-0.22,0.14-0.47
		c0.09-0.25,0.19-0.49,0.29-0.71c0.22-0.5,0.44-1,0.66-1.49c0.22-0.49,0.44-0.99,0.66-1.49c0.22-0.46,0.47-0.99,0.74-1.58
		c0.27-0.59,0.55-1.19,0.83-1.79c0.18-0.4,0.38-0.84,0.6-1.33c0.22-0.48,0.44-0.96,0.66-1.45c0.12-0.26,0.27-0.59,0.45-0.99
		c0.18-0.4,0.34-0.74,0.48-1.02c0.28-0.62,0.58-1.31,0.9-2.05c0.32-0.74,0.65-1.49,0.98-2.23c0.33-0.74,0.66-1.47,0.98-2.17
		c0.32-0.7,0.63-1.33,0.93-1.87c0.08-0.14,0.19-0.25,0.33-0.33c0.14-0.08,0.29-0.13,0.45-0.15c0.16-0.02,0.33-0.03,0.5-0.03
		c0.17,0,0.32,0,0.44,0c0.46,0,0.94,0.02,1.43,0.05c0.49,0.03,0.94,0.18,1.34,0.44c0.22,0.14,0.4,0.32,0.54,0.54
		c0.14,0.22,0.26,0.45,0.36,0.69c0.1,0.24,0.19,0.48,0.26,0.72c0.07,0.24,0.16,0.45,0.26,0.63c0.34,0.7,0.66,1.43,0.95,2.19
		c0.29,0.75,0.58,1.48,0.86,2.19c0.9,2.21,1.83,4.43,2.77,6.66C176.15,36.21,177.11,38.45,178.07,40.7z M169.87,32.74
		c-0.28-0.66-0.57-1.33-0.86-2.01c-0.29-0.67-0.58-1.34-0.86-2c-0.1-0.06-0.18-0.14-0.24-0.24c-0.06-0.1-0.11-0.22-0.15-0.35
		c-0.04-0.13-0.08-0.27-0.12-0.41c-0.04-0.14-0.09-0.28-0.15-0.42c-0.04-0.06-0.1-0.11-0.18-0.14c-0.08-0.03-0.15-0.05-0.21-0.05
		c-0.08,0-0.16,0.01-0.23,0.03c-0.07,0.02-0.13,0.03-0.17,0.03c-0.4,0.86-0.85,1.75-1.36,2.65c-0.5,0.9-0.92,1.78-1.27,2.62
		c1.02,0.22,2,0.32,2.92,0.29S168.89,32.72,169.87,32.74z"/>
	<path style="fill:#FFFFFF;" d="M197.54,40.82c0,0.18-0.08,0.32-0.24,0.41s-0.34,0.15-0.53,0.18s-0.37,0.05-0.54,0.05
		s-0.27,0.01-0.29,0.03c-0.36,0.12-0.69,0.2-0.98,0.24s-0.52,0.2-0.68,0.48c-0.06,0.1-0.1,0.26-0.12,0.48s-0.03,0.37-0.03,0.45
		l0.33,3.14c0,0.14-0.04,0.35-0.11,0.62c-0.07,0.27-0.25,0.41-0.53,0.41c-0.16,0-0.29-0.04-0.39-0.14c-0.1-0.09-0.17-0.2-0.21-0.32
		c-0.04-0.12-0.06-0.24-0.07-0.36c-0.01-0.12-0.02-0.2-0.02-0.24l0.27-2.83c0-0.34-0.09-0.63-0.27-0.86
		c-0.18-0.23-0.41-0.39-0.69-0.47c-0.26-0.38-0.54-0.78-0.84-1.19c-0.3-0.41-0.58-0.8-0.84-1.16c-0.08-0.12-0.17-0.29-0.27-0.5
		c-0.1-0.21-0.2-0.4-0.3-0.56c-0.22-0.34-0.5-0.73-0.85-1.18s-0.64-0.84-0.9-1.21c-0.14-0.2-0.28-0.47-0.41-0.81
		c-0.13-0.34-0.33-0.65-0.59-0.93h-3.44v5.88c0,0.06,0.01,0.23,0.02,0.51s-0.03,0.53-0.11,0.75c-0.02,0.08-0.08,0.16-0.18,0.23
		c-0.1,0.07-0.17,0.15-0.21,0.23c-0.1,0.18-0.18,0.33-0.22,0.44c-0.05,0.11-0.09,0.21-0.11,0.29c-0.02,0.08-0.03,0.16-0.02,0.24
		s0.02,0.19,0.02,0.33l0.21,2.8c0,0.28-0.04,0.55-0.11,0.8c-0.07,0.25-0.29,0.38-0.64,0.38c-0.18,0-0.31-0.05-0.39-0.14
		c-0.08-0.09-0.14-0.2-0.18-0.32c-0.04-0.12-0.06-0.25-0.06-0.38c0-0.13,0-0.24,0-0.32l0.33-3.32c0-0.12-0.02-0.28-0.06-0.47
		c-0.04-0.19-0.1-0.38-0.18-0.56c-0.08-0.18-0.19-0.34-0.31-0.48c-0.13-0.14-0.29-0.21-0.46-0.21c-0.16,0-0.35,0.08-0.57,0.26
		c-0.22,0.17-0.35,0.35-0.39,0.53c-0.02,0.2-0.04,0.41-0.08,0.63c-0.03,0.22-0.08,0.42-0.16,0.6c-0.04,0.06-0.1,0.11-0.18,0.14
		s-0.16,0.04-0.24,0.04c-0.1,0-0.2-0.01-0.3-0.04c-0.1-0.03-0.16-0.12-0.18-0.26c-0.04-0.22-0.06-0.49-0.07-0.81
		c-0.01-0.32-0.04-0.62-0.08-0.9c-0.04-0.22-0.09-0.47-0.15-0.75c-0.06-0.28-0.09-0.46-0.09-0.54l0.09-18.12
		c0.04-0.22,0.06-0.44,0.06-0.65c0-0.21,0-0.44,0-0.68c-0.04-0.04-0.06-0.12-0.06-0.24c0-0.44,0.11-0.68,0.33-0.71
		c0.22-0.03,0.56-0.05,1.02-0.05c0.08-0.28,0.15-0.62,0.2-1.01c0.05-0.39,0.03-0.74-0.05-1.04c0.22,0.28,0.43,0.56,0.63,0.84
		c0.2,0.28,0.39,0.56,0.57,0.84c0.03-0.12,0.05-0.33,0.05-0.62c0-0.29,0-0.48,0-0.56c0-0.26,0-0.6,0-1.02s-0.07-0.95-0.21-1.6
		l2.29,3.47c0.02-0.12,0.08-0.32,0.19-0.59c0.11-0.27,0.24-0.56,0.38-0.86c0.14-0.3,0.29-0.59,0.44-0.87
		c0.15-0.28,0.29-0.49,0.41-0.63c0.06,0,0.1,0.06,0.12,0.18s0.03,0.26,0.03,0.41c0,0.15,0.01,0.29,0.03,0.41s0.06,0.17,0.12,0.15
		c0.06,0.18,0.12,0.38,0.18,0.59c0.06,0.21,0.09,0.41,0.09,0.59c0,0.1-0.01,0.23-0.02,0.38s0.05,0.28,0.2,0.38
		c0.04-0.14,0.08-0.28,0.12-0.41c0.04-0.13,0.08-0.27,0.12-0.41l0.84,0.93c0.1-0.28,0.18-0.59,0.24-0.93
		c0.06-0.34,0.07-0.65,0.03-0.93c0.18,0.08,0.36,0.27,0.54,0.56c0.18,0.29,0.3,0.55,0.36,0.77c0.16-0.1,0.29-0.24,0.38-0.42
		c0.09-0.18,0.15-0.36,0.2-0.54c0.16,0.16,0.36,0.37,0.59,0.62s0.43,0.53,0.59,0.83c0.06,0.14,0.12,0.21,0.2,0.21s0.12,0,0.17,0
		c0.14,0,0.25-0.01,0.33-0.03v0.39c0.14,0.06,0.28,0.12,0.41,0.17c0.13,0.05,0.27,0.1,0.41,0.14c0.16,0.04,0.33,0.07,0.51,0.08
		c0.18,0.01,0.38,0.06,0.6,0.14c0.16,0.04,0.42,0.15,0.77,0.32c0.35,0.17,0.69,0.39,1.01,0.65c0.1,0.08,0.27,0.18,0.5,0.29
		c0.23,0.11,0.43,0.25,0.59,0.41c0.1,0.08,0.22,0.2,0.35,0.36c0.13,0.16,0.27,0.34,0.41,0.53c0.14,0.19,0.28,0.39,0.41,0.6
		c0.13,0.21,0.24,0.41,0.32,0.59c0.14,0.3,0.25,0.56,0.33,0.78s0.14,0.42,0.17,0.59c0.03,0.17,0.04,0.33,0.04,0.48
		c0,0.15,0,0.33,0,0.53c0,0.5-0.04,1.02-0.12,1.57c-0.08,0.54-0.23,1.08-0.45,1.61c-0.22,0.53-0.52,1.05-0.9,1.54
		c-0.38,0.49-0.88,0.95-1.48,1.37c-0.12,0.08-0.27,0.2-0.44,0.35c-0.17,0.15-0.34,0.28-0.5,0.38c-0.16,0.1-0.34,0.19-0.53,0.27
		s-0.37,0.17-0.53,0.27c0.14,0.24,0.29,0.48,0.45,0.72c0.16,0.24,0.31,0.45,0.45,0.63c0.48,0.7,1,1.48,1.57,2.32
		c0.56,0.84,1.12,1.66,1.69,2.44c0.14,0.2,0.32,0.38,0.54,0.53C197.43,40.53,197.54,40.68,197.54,40.82z M192.03,26.32
		c0-0.08,0-0.17,0-0.27s-0.01-0.19-0.03-0.27c-0.08-0.34-0.29-0.67-0.62-0.99c-0.33-0.32-0.64-0.5-0.92-0.54
		c-0.14-0.02-0.31-0.03-0.51-0.04c-0.2-0.01-0.4-0.02-0.6-0.03c-0.2-0.01-0.38-0.02-0.54-0.02c-0.16,0-0.25,0-0.27,0h-4.52v1.69
		l0.24,1.6v2.74h4.58c0.24,0,0.52-0.06,0.83-0.17c0.31-0.11,0.61-0.27,0.89-0.47c0.28-0.2,0.53-0.44,0.75-0.72
		c0.22-0.28,0.35-0.59,0.39-0.93c0.04-0.12,0.09-0.24,0.15-0.35c0.06-0.11,0.09-0.22,0.09-0.32c0.02-0.12,0.04-0.29,0.06-0.51
		C192.02,26.49,192.03,26.36,192.03,26.32z"/>
	<path style="fill:#FFFFFF;" d="M225.91,35.33c0,0.74-0.2,1.49-0.59,2.25c-0.39,0.75-1.02,1.44-1.88,2.06
		c-0.1,0.06-0.21,0.19-0.32,0.39s-0.19,0.38-0.23,0.54c-0.04,0.32-0.12,0.64-0.23,0.96s-0.19,0.62-0.23,0.9
		c-0.04,0.16-0.04,0.33-0.01,0.5c0.03,0.17,0.06,0.35,0.09,0.53c0.03,0.18,0.05,0.36,0.06,0.54c0.01,0.18-0.01,0.36-0.08,0.54
		c-0.02,0.06-0.08,0.15-0.18,0.26c-0.1,0.11-0.21,0.17-0.33,0.17c-0.08,0-0.19-0.05-0.32-0.15s-0.22-0.21-0.26-0.33
		c-0.1-0.28-0.12-0.46-0.06-0.54c0.06-0.08,0.09-0.18,0.09-0.3v-1.12c0-0.06-0.04-0.21-0.11-0.44c-0.07-0.23-0.16-0.35-0.26-0.35
		c-0.06,0-0.13,0.02-0.21,0.05c-0.08,0.03-0.15,0.04-0.21,0.04c-0.16,0-0.3-0.1-0.41-0.3s-0.2-0.35-0.26-0.45l-0.06,0.06
		c-0.02,0.16-0.04,0.35-0.06,0.57c-0.02,0.22-0.04,0.43-0.06,0.63c-0.02,0.2-0.04,0.38-0.05,0.53c-0.01,0.15-0.01,0.24-0.01,0.26
		c0,0.04,0.01,0.19,0.03,0.44c0.02,0.25,0.04,0.53,0.08,0.83c0.03,0.3,0.05,0.58,0.08,0.83c0.02,0.25,0.03,0.4,0.03,0.44
		c0,0.14-0.03,0.3-0.08,0.47c-0.05,0.17-0.19,0.26-0.41,0.26c-0.18,0-0.3-0.1-0.35-0.3c-0.05-0.2-0.07-0.32-0.04-0.36l0.27-1.69
		l-0.18-1.63c0-0.08-0.03-0.23-0.08-0.44s-0.12-0.41-0.2-0.59c-0.06,0.26-0.12,0.43-0.17,0.5c-0.05,0.07-0.16,0.11-0.32,0.11
		c-0.04,0-0.11-0.01-0.2-0.04s-0.16-0.09-0.2-0.17c-0.1-0.3-0.15-0.54-0.13-0.72c0.01-0.18-0.07-0.38-0.23-0.6h-1
		c-0.12,0.1-0.19,0.24-0.21,0.42c-0.02,0.18-0.03,0.37-0.03,0.56s-0.01,0.37-0.04,0.54c-0.03,0.17-0.11,0.3-0.23,0.38
		c0.02,0.18,0.04,0.39,0.08,0.62c0.03,0.23,0.06,0.46,0.09,0.68c0.03,0.22,0.06,0.42,0.08,0.59c0.02,0.17,0.03,0.27,0.03,0.29
		c0,0.14-0.03,0.34-0.09,0.59c-0.06,0.25-0.22,0.38-0.48,0.38c-0.18,0-0.31-0.05-0.39-0.15c-0.08-0.1-0.14-0.21-0.17-0.33
		c-0.03-0.12-0.05-0.24-0.05-0.36c0-0.12,0-0.2,0-0.24c0-0.02,0.01-0.16,0.03-0.42c0.02-0.26,0.04-0.54,0.06-0.83
		c0.02-0.29,0.04-0.56,0.06-0.81c0.02-0.25,0.03-0.4,0.03-0.44c0-0.02-0.01-0.09-0.02-0.2s-0.03-0.23-0.06-0.35
		c-0.03-0.12-0.08-0.23-0.13-0.32c-0.06-0.09-0.13-0.14-0.21-0.14c-0.06,0-0.18,0.04-0.36,0.11s-0.3,0.11-0.36,0.11
		c-0.18,0-0.29-0.07-0.32-0.2c-0.03-0.13-0.07-0.28-0.11-0.44c-0.04-0.02-0.05-0.03-0.04-0.03s-0.03,0-0.11,0
		c-0.06,0-0.15,0.01-0.26,0.03c-0.11,0.02-0.23,0.04-0.35,0.08c-0.12,0.03-0.23,0.07-0.32,0.11c-0.09,0.04-0.15,0.07-0.17,0.09
		c0.04,0.04,0.06,0.11,0.06,0.2c0,0.09,0,0.18,0,0.26c0,0.06-0.01,0.14-0.02,0.24c-0.01,0.1-0.04,0.19-0.08,0.27
		c-0.08,0.12-0.19,0.18-0.33,0.18c-0.12-0.1-0.19-0.21-0.2-0.33c-0.01-0.12-0.05-0.27-0.11-0.45c-0.06,0.04-0.11,0.09-0.14,0.17
		c-0.03,0.07-0.06,0.12-0.08,0.17c-0.04,0.14-0.08,0.31-0.12,0.51s-0.08,0.38-0.12,0.54c-0.02,0.06-0.06,0.14-0.11,0.23
		c-0.05,0.09-0.09,0.17-0.11,0.26c-0.02,0.08-0.03,0.17-0.02,0.27c0.01,0.1,0.02,0.2,0.02,0.3c0,0.04-0.02,0.08-0.06,0.11
		c-0.04,0.03-0.06,0.08-0.06,0.14v1.72c0,0.06-0.03,0.12-0.08,0.2c-0.05,0.07-0.1,0.12-0.14,0.17h-0.15c-0.06,0-0.11-0.03-0.15-0.08
		s-0.09-0.1-0.15-0.14c0-0.08,0-0.18-0.01-0.29c-0.01-0.11,0-0.2,0.04-0.26c0.02-0.08,0.06-0.18,0.14-0.29
		c0.07-0.11,0.11-0.2,0.11-0.26s-0.02-0.22-0.05-0.47c-0.03-0.25-0.07-0.49-0.11-0.71c-0.02-0.18-0.03-0.38-0.03-0.59
		s-0.01-0.42-0.03-0.62c-0.02-0.2-0.06-0.39-0.11-0.56c-0.05-0.17-0.14-0.29-0.26-0.35c-0.04-0.04-0.12-0.08-0.23-0.12
		c-0.11-0.04-0.19-0.1-0.23-0.18c-0.02-0.04-0.04-0.1-0.06-0.17c-0.02-0.07-0.05-0.14-0.09-0.2c-0.14-0.04-0.28-0.07-0.42-0.09
		c-0.14-0.02-0.29-0.05-0.45-0.09v-1.3c0-0.06-0.01-0.09-0.03-0.09c-0.02,0-0.04-0.02-0.06-0.06c0-0.28-0.01-0.61-0.03-0.98
		c-0.02-0.37-0.04-0.73-0.04-1.07c-0.01-0.34-0.02-0.64-0.03-0.89c-0.01-0.25-0.01-0.4-0.01-0.44c0-0.02,0-0.1,0.01-0.24
		c0.01-0.14,0.02-0.3,0.03-0.48c0.01-0.18,0.02-0.37,0.04-0.56c0.02-0.19,0.04-0.37,0.06-0.53l0.06-11.55
		c-0.04-0.16-0.06-0.34-0.05-0.54c0.01-0.2,0-0.39-0.04-0.57c0-0.02-0.02-0.04-0.06-0.08s-0.06-0.08-0.06-0.14
		c0-0.34,0.05-0.58,0.17-0.71c0.11-0.13,0.34-0.2,0.68-0.2c0.04,0,0.12,0.01,0.24,0.03c0.12,0.02,0.21,0.03,0.27,0.03
		c0.06,0,0.1,0,0.12,0c0.02,0,0.05-0.03,0.09-0.09c0.04-0.12,0.08-0.27,0.14-0.45c0.05-0.18,0.09-0.36,0.14-0.54
		c0.04-0.18,0.06-0.35,0.06-0.5s-0.02-0.26-0.06-0.32l1.21,1.69c0.02,0,0.03-0.01,0.03-0.03c0-0.02,0.01-0.04,0.03-0.06
		c0.02-0.12,0.04-0.27,0.06-0.45c0.02-0.18,0.04-0.35,0.06-0.51c0.02-0.16,0.03-0.3,0.04-0.42c0.01-0.12,0.01-0.2,0.01-0.24v-1.06
		c0-0.06-0.02-0.15-0.06-0.26c-0.04-0.11-0.05-0.21-0.03-0.29v-0.27c0.1,0.12,0.21,0.26,0.33,0.42c0.12,0.16,0.23,0.32,0.33,0.48
		c0.22,0.34,0.45,0.75,0.69,1.22s0.5,0.91,0.78,1.31c0.1-0.2,0.23-0.45,0.38-0.75c0.15-0.3,0.37-0.57,0.65-0.81
		c0.1,0,0.24,0.01,0.42,0.02c0.18,0.01,0.37,0,0.57-0.02l0.3,1.84c0.1-0.1,0.17-0.22,0.21-0.35c0.04-0.13,0.09-0.26,0.15-0.38
		c0.14,0.12,0.28,0.26,0.42,0.42c0.14,0.16,0.26,0.31,0.36,0.45c0.04,0,0.07-0.01,0.09-0.03c0.1-0.18,0.2-0.45,0.29-0.8
		c0.09-0.35,0.13-0.64,0.11-0.86c0.28,0.08,0.48,0.28,0.6,0.59c0.12,0.31,0.23,0.56,0.33,0.74c0.1-0.04,0.23-0.17,0.39-0.39
		c0.16-0.22,0.25-0.38,0.27-0.48c0.18,0.16,0.39,0.38,0.62,0.66c0.23,0.28,0.41,0.53,0.53,0.75c0.18-0.04,0.4-0.02,0.65,0.08
		c0.25,0.09,0.48,0.25,0.68,0.47c0.04,0.06,0.08,0.15,0.11,0.26c0.03,0.11,0.08,0.22,0.14,0.32c0.1,0.14,0.24,0.26,0.41,0.36
		c0.17,0.1,0.34,0.22,0.5,0.36c0.22,0.18,0.44,0.39,0.65,0.63c0.21,0.24,0.38,0.48,0.5,0.72c0.24,0.46,0.38,0.85,0.42,1.16
		c0.04,0.31,0.06,0.72,0.06,1.22c0,0.34-0.02,0.64-0.05,0.9c-0.03,0.26-0.11,0.53-0.23,0.8c-0.12,0.27-0.3,0.57-0.54,0.89
		c-0.24,0.32-0.58,0.72-1.02,1.21c0.86,0.5,1.53,1.14,2,1.9c0.47,0.76,0.79,1.51,0.95,2.23c0.02,0.1,0.04,0.23,0.04,0.38
		c0.01,0.15,0.02,0.3,0.03,0.45c0.01,0.15,0.02,0.29,0.03,0.42C225.91,35.23,225.91,35.31,225.91,35.33z M221.21,34.21
		c0-0.08-0.02-0.23-0.06-0.44c-0.04-0.21-0.11-0.42-0.21-0.63s-0.23-0.4-0.38-0.56s-0.34-0.24-0.56-0.24l-6.93,0.03v2.98
		c0,0.1,0.01,0.22,0.03,0.35c0.02,0.13,0.04,0.26,0.06,0.39c0.02,0.13,0.02,0.25,0.01,0.36c-0.01,0.11-0.06,0.18-0.14,0.2h3.2
		c0.08,0,0.21-0.01,0.38-0.04s0.31-0.04,0.41-0.04c0.12,0,0.28,0.01,0.47,0.03c0.19,0.02,0.31,0.03,0.35,0.03
		c0.4,0,0.9-0.07,1.49-0.2c0.59-0.13,1.06-0.4,1.4-0.8c0.08-0.1,0.14-0.21,0.18-0.32c0.04-0.11,0.08-0.21,0.12-0.32
		c0.02-0.04,0.03-0.08,0.02-0.13c-0.01-0.05,0-0.09,0.01-0.11c0.04-0.08,0.08-0.18,0.11-0.3C221.19,34.34,221.21,34.26,221.21,34.21
		z M219.88,26.44c0-0.06-0.02-0.16-0.06-0.3c-0.04-0.14-0.1-0.29-0.17-0.45c-0.07-0.16-0.16-0.31-0.26-0.44
		c-0.1-0.13-0.2-0.23-0.3-0.29c-0.3-0.16-0.66-0.25-1.07-0.27s-0.78-0.02-1.1,0h-3.71c-0.04,0.4-0.05,0.63-0.03,0.69
		c0.02,0.06,0.03,0.12,0.03,0.18v2.02l0.09,0.93c0.14,0.02,0.29,0.05,0.45,0.09c0.16,0.04,0.27,0.06,0.33,0.06h3.53
		c0.04,0,0.13-0.01,0.26-0.03c0.13-0.02,0.28-0.05,0.44-0.09c0.16-0.04,0.31-0.09,0.44-0.14c0.13-0.05,0.22-0.1,0.26-0.14
		c0.22-0.2,0.42-0.5,0.6-0.89C219.79,27,219.88,26.68,219.88,26.44z"/>
	<path style="fill:#FFFFFF;" d="M247.71,40.7c-0.1,0.04-0.2,0.14-0.29,0.29c-0.09,0.15-0.21,0.26-0.35,0.32
		c-0.24,0.14-0.47,0.23-0.68,0.27s-0.43,0.08-0.65,0.12c-0.02,0.02-0.04,0.08-0.08,0.18s-0.06,0.21-0.08,0.32
		c-0.02,0.11-0.04,0.22-0.06,0.32c-0.02,0.1-0.03,0.16-0.03,0.18l0.33,3.14c0,0.06-0.01,0.15-0.03,0.26
		c-0.02,0.11-0.05,0.23-0.09,0.35c-0.04,0.12-0.1,0.22-0.18,0.3c-0.08,0.08-0.19,0.12-0.33,0.12c-0.16,0-0.29-0.04-0.39-0.14
		c-0.1-0.09-0.17-0.2-0.21-0.32c-0.04-0.12-0.07-0.24-0.08-0.36c-0.01-0.12-0.02-0.2-0.02-0.24l0.27-2.77
		c0-0.12-0.04-0.32-0.11-0.59s-0.25-0.49-0.53-0.65c-0.1,0.06-0.2,0.12-0.3,0.18c-0.1,0.06-0.19,0.09-0.27,0.09
		c-0.16,0-0.29-0.06-0.39-0.17s-0.19-0.24-0.26-0.39c-0.07-0.15-0.13-0.3-0.17-0.45s-0.08-0.27-0.12-0.35
		c-0.14-0.22-0.29-0.54-0.45-0.95c-0.16-0.41-0.3-0.83-0.42-1.25c-0.04-0.14-0.1-0.29-0.18-0.45c-0.08-0.16-0.15-0.32-0.21-0.48
		c-0.1-0.22-0.2-0.44-0.29-0.66c-0.09-0.22-0.21-0.44-0.35-0.66l-8.32-0.12c-0.04,0.04-0.08,0.1-0.12,0.18
		c-0.18,0.44-0.35,0.88-0.51,1.33c-0.16,0.44-0.35,0.89-0.57,1.36c-0.04,0.1-0.11,0.21-0.21,0.33c-0.1,0.12-0.19,0.23-0.27,0.33
		c-0.1,0.16-0.18,0.34-0.23,0.53c-0.05,0.19-0.12,0.37-0.2,0.53c0,0.04-0.03,0.08-0.09,0.14c-0.06,0.05-0.11,0.09-0.15,0.14
		c-0.1,0.24-0.21,0.51-0.33,0.8c-0.12,0.29-0.18,0.53-0.18,0.71l0.3,2.74c0,0.1-0.03,0.27-0.09,0.51c-0.06,0.24-0.2,0.36-0.42,0.36
		c-0.12,0-0.22-0.04-0.29-0.12s-0.13-0.18-0.17-0.29c-0.04-0.11-0.07-0.22-0.08-0.32c-0.01-0.1-0.01-0.17-0.01-0.21l0.21-2.38
		c0-0.2-0.06-0.45-0.18-0.74c-0.12-0.29-0.32-0.44-0.6-0.44c-0.22,0-0.4,0.07-0.54,0.2c-0.14,0.13-0.25,0.29-0.32,0.47
		s-0.13,0.37-0.17,0.56s-0.07,0.35-0.09,0.47c-0.02,0.06-0.06,0.16-0.12,0.3c-0.06,0.14-0.17,0.23-0.33,0.27
		c-0.22-0.12-0.33-0.31-0.32-0.56c0.01-0.25-0.01-0.48-0.05-0.68c-0.08-0.24-0.18-0.39-0.29-0.44c-0.11-0.05-0.21-0.11-0.29-0.17
		c-0.12-0.08-0.27-0.22-0.44-0.41c-0.17-0.19-0.26-0.39-0.26-0.59c0-0.06,0.04-0.22,0.14-0.47c0.09-0.25,0.19-0.49,0.29-0.71
		c0.22-0.5,0.44-1,0.66-1.49c0.22-0.49,0.44-0.99,0.66-1.49c0.22-0.46,0.47-0.99,0.74-1.58c0.27-0.59,0.55-1.19,0.83-1.79
		c0.18-0.4,0.38-0.84,0.6-1.33c0.22-0.48,0.44-0.96,0.66-1.45c0.12-0.26,0.27-0.59,0.45-0.99c0.18-0.4,0.34-0.74,0.48-1.02
		c0.28-0.62,0.58-1.31,0.9-2.05s0.65-1.49,0.98-2.23c0.33-0.74,0.66-1.47,0.98-2.17c0.32-0.7,0.63-1.33,0.93-1.87
		c0.08-0.14,0.19-0.25,0.33-0.33c0.14-0.08,0.29-0.13,0.45-0.15c0.16-0.02,0.33-0.03,0.5-0.03s0.32,0,0.44,0
		c0.46,0,0.94,0.02,1.43,0.05s0.94,0.18,1.34,0.44c0.22,0.14,0.4,0.32,0.54,0.54c0.14,0.22,0.26,0.45,0.36,0.69
		c0.1,0.24,0.19,0.48,0.26,0.72c0.07,0.24,0.16,0.45,0.26,0.63c0.34,0.7,0.66,1.43,0.95,2.19c0.29,0.75,0.58,1.48,0.86,2.19
		c0.9,2.21,1.83,4.43,2.77,6.66C245.79,36.21,246.74,38.45,247.71,40.7z M239.51,32.74c-0.28-0.66-0.57-1.33-0.86-2.01
		c-0.29-0.67-0.58-1.34-0.86-2c-0.1-0.06-0.18-0.14-0.24-0.24c-0.06-0.1-0.11-0.22-0.15-0.35s-0.08-0.27-0.12-0.41
		c-0.04-0.14-0.09-0.28-0.15-0.42c-0.04-0.06-0.1-0.11-0.18-0.14s-0.15-0.05-0.21-0.05c-0.08,0-0.16,0.01-0.23,0.03
		c-0.07,0.02-0.13,0.03-0.17,0.03c-0.4,0.86-0.85,1.75-1.36,2.65c-0.5,0.9-0.92,1.78-1.27,2.62c1.03,0.22,2,0.32,2.92,0.29
		C237.57,32.72,238.52,32.72,239.51,32.74z"/>
	<path style="fill:#FFFFFF;" d="M264.04,20.32c-0.22,0.4-0.42,0.82-0.6,1.25c-0.18,0.43-0.39,0.84-0.63,1.22
		c-0.36,0.56-0.75,1.1-1.18,1.61c-0.42,0.51-0.8,1.04-1.15,1.58c-0.12,0.18-0.27,0.49-0.44,0.92c-0.17,0.43-0.35,0.8-0.53,1.1
		c-0.24,0.38-0.55,0.83-0.92,1.34c-0.37,0.51-0.73,1-1.08,1.46c-0.35,0.46-0.66,0.86-0.92,1.19c-0.26,0.33-0.39,0.51-0.39,0.53v2.98
		l0.09,0.63v3.25l-0.48,2.89c0.02,0.26,0.05,0.56,0.09,0.9s0.07,0.67,0.09,0.98c0.02,0.31,0.04,0.58,0.06,0.81
		c0.02,0.23,0.03,0.37,0.03,0.41c0,0.06,0,0.15,0,0.26s-0.02,0.23-0.05,0.35c-0.03,0.12-0.09,0.22-0.17,0.3
		c-0.08,0.08-0.19,0.12-0.33,0.12c-0.08,0-0.19-0.06-0.33-0.18c-0.14-0.12-0.21-0.23-0.21-0.33v-1.15l0.15-1.6v-1.02
		c0-0.16-0.1-0.35-0.3-0.56c-0.2-0.21-0.38-0.32-0.54-0.32c-0.2,0-0.38,0.06-0.53,0.17s-0.27,0.25-0.36,0.42
		c-0.09,0.17-0.16,0.35-0.21,0.54c-0.05,0.19-0.09,0.36-0.11,0.5c-0.02,0.16-0.07,0.34-0.13,0.53c-0.07,0.19-0.19,0.34-0.35,0.44
		h-0.3c-0.08-0.2-0.13-0.39-0.15-0.57c-0.02-0.18-0.05-0.36-0.08-0.54s-0.09-0.35-0.18-0.51c-0.09-0.16-0.25-0.31-0.47-0.45
		c-0.14-0.1-0.24-0.28-0.3-0.53c-0.06-0.25-0.09-0.42-0.09-0.5v-4.01l0.21-1.57v-0.54c-0.32,0.06-0.64,0.28-0.96,0.66
		c0-0.04,0-0.09,0-0.14c0-0.05-0.02-0.11-0.06-0.17v0.03l0.06,0.06l0.21-1.66c0-0.52-0.12-1.04-0.35-1.55
		c-0.23-0.51-0.53-0.97-0.89-1.37c-0.36-0.4-0.76-0.72-1.19-0.96c-0.43-0.24-0.85-0.36-1.25-0.36c-0.06,0-0.2,0.01-0.42,0.03
		c-0.22,0.02-0.41,0.06-0.57,0.12c0-0.12,0.02-0.26,0.06-0.42c0.14,0,0.3-0.05,0.47-0.14s0.35-0.21,0.53-0.35
		c0.18-0.14,0.35-0.28,0.51-0.42s0.31-0.24,0.45-0.3c-0.14-0.22-0.3-0.45-0.48-0.68c-0.18-0.23-0.34-0.46-0.48-0.68
		c-0.12-0.2-0.24-0.42-0.35-0.65s-0.23-0.45-0.35-0.65c-0.1-0.16-0.25-0.37-0.44-0.62c-0.19-0.25-0.36-0.49-0.5-0.71
		c-0.16-0.26-0.3-0.53-0.41-0.81c-0.11-0.28-0.25-0.55-0.41-0.81c-0.1-0.16-0.23-0.33-0.39-0.51c-0.16-0.18-0.31-0.38-0.45-0.6
		c-0.08-0.12-0.15-0.27-0.21-0.44c-0.06-0.17-0.1-0.33-0.12-0.47c0.02-0.02,0.06-0.05,0.12-0.09c0.06-0.04,0.11-0.06,0.15-0.06
		c0.2-0.02,0.45-0.03,0.74-0.03s0.47,0,0.53,0l3.68,0.06c0.1,0.04,0.19,0.06,0.26,0.06s0.16,0.05,0.26,0.15
		c0.28-0.34,0.48-0.74,0.59-1.19s0.15-0.84,0.11-1.16c0.04,0.06,0.11,0.12,0.21,0.17s0.18,0.13,0.24,0.23
		c0.52,0.74,1.11,1.27,1.75,1.57c0.64,0.3,1.27,0.45,1.87,0.45c0.3,0,0.62-0.03,0.95-0.09s0.65-0.16,0.96-0.3
		c0.31-0.14,0.59-0.33,0.84-0.56c0.25-0.23,0.44-0.52,0.56-0.86c0.06,0.06,0.12,0.12,0.18,0.18c0.06,0.06,0.11,0.12,0.15,0.18
		c-0.1,0.2-0.19,0.46-0.27,0.78c-0.08,0.32-0.12,0.6-0.12,0.84c0,0.32,0.06,0.64,0.18,0.96c0.12,0.32,0.23,0.62,0.33,0.9l1.36-2.26
		h3.14c0.02,0,0.12,0.01,0.29,0.03s0.36,0.04,0.57,0.08c0.21,0.03,0.42,0.06,0.63,0.09C263.73,20.24,263.9,20.28,264.04,20.32z
		 M245.96,29.15V29h-0.09v0.15H245.96z M248.58,28.46l-0.36-0.72l-0.78,0.87l0.3-0.03c0.1-0.02,0.17-0.02,0.21-0.02
		c0.04,0.01,0.09,0.02,0.15,0.02c0.08,0,0.17-0.02,0.26-0.06C248.44,28.48,248.52,28.46,248.58,28.46z M251.2,33.25
		c0-0.02-0.01-0.09-0.02-0.21s-0.02-0.26-0.03-0.41c-0.01-0.15-0.03-0.31-0.06-0.47s-0.08-0.29-0.14-0.39
		c-0.22-0.48-0.52-0.94-0.89-1.36s-0.72-0.85-1.04-1.3c-0.04-0.04-0.09-0.09-0.15-0.15c-0.06-0.06-0.12-0.1-0.18-0.12l-0.93,0.18
		c0.42,0.12,0.83,0.33,1.22,0.63c0.39,0.3,0.73,0.65,1.01,1.04c0.28,0.39,0.5,0.79,0.66,1.21c0.16,0.41,0.23,0.79,0.21,1.13
		c-0.02,0.16-0.03,0.33-0.03,0.5c0,0.17,0,0.33,0,0.47c0.06-0.12,0.11-0.21,0.15-0.26c0.04-0.05,0.08-0.09,0.11-0.12
		s0.05-0.07,0.08-0.12C251.19,33.46,251.2,33.37,251.2,33.25z M250.21,21.07l-0.33-1.87c-0.06,0.16-0.12,0.34-0.2,0.53
		c-0.07,0.19-0.16,0.37-0.26,0.53c-0.02,0.04-0.05,0.1-0.11,0.18c-0.05,0.08-0.08,0.15-0.08,0.21c0,0.06,0.1,0.21,0.29,0.45
		c0.19,0.24,0.36,0.44,0.5,0.6c0.04-0.1,0.08-0.21,0.11-0.32C250.16,21.28,250.19,21.17,250.21,21.07z M256.03,20.14
		c-0.44,0.2-0.85,0.34-1.22,0.42c-0.37,0.08-0.75,0.12-1.13,0.12c-0.58,0-1.14-0.11-1.67-0.32c-0.53-0.21-1.1-0.64-1.7-1.28
		c0.1,0.4,0.19,0.81,0.26,1.22s0.19,0.73,0.35,0.95c0.24,0.36,0.58,0.64,1.03,0.83c0.44,0.19,0.86,0.29,1.27,0.29
		c0.64,0,1.17-0.16,1.58-0.48C255.19,21.56,255.6,20.98,256.03,20.14z M250.51,22.31c-0.04-0.04-0.06-0.11-0.05-0.21
		c0.01-0.1,0-0.17-0.04-0.21c-0.04,0.04-0.07,0.06-0.08,0.06c-0.01,0-0.02,0.03-0.02,0.09c0,0.06,0.03,0.11,0.08,0.15
		C250.45,22.23,250.49,22.27,250.51,22.31z M254.58,22.49c-0.1,0.04-0.22,0.08-0.36,0.11c-0.14,0.03-0.29,0.06-0.44,0.09
		s-0.28,0.05-0.39,0.06c-0.11,0.01-0.18,0.02-0.2,0.02c-0.08,0-0.19,0-0.33-0.02c-0.14-0.01-0.26-0.02-0.36-0.04
		c-0.08-0.02-0.17-0.05-0.27-0.08c-0.1-0.03-0.19-0.06-0.27-0.11c-0.1-0.04-0.22-0.11-0.35-0.2s-0.26-0.18-0.38-0.26
		c-0.12-0.08-0.22-0.14-0.3-0.18c-0.08-0.04-0.12-0.05-0.12-0.03c0,0.22,0.03,0.46,0.08,0.72c0.05,0.26,0.15,0.51,0.29,0.74
		c0.14,0.23,0.32,0.42,0.54,0.57c0.22,0.15,0.5,0.23,0.84,0.23c0.24,0,0.49-0.05,0.75-0.14c0.26-0.09,0.47-0.26,0.63-0.5
		c0.1-0.04,0.15-0.07,0.15-0.09c0.1-0.14,0.19-0.29,0.27-0.45C254.45,22.78,254.52,22.63,254.58,22.49z M251.32,34.12l-0.06,0.15
		l-0.06-0.03l0.06-0.15L251.32,34.12z M253.43,24.51c0-0.04-0.01-0.07-0.03-0.09c-0.02-0.02-0.03-0.04-0.03-0.06
		c-0.1,0.04-0.23,0.07-0.38,0.08c-0.15,0.01-0.26,0.02-0.32,0.02c-0.1,0-0.19,0-0.26,0.01c-0.07,0.01-0.15,0.01-0.23-0.01
		s-0.18-0.05-0.29-0.09c-0.11-0.04-0.27-0.11-0.47-0.21l0.93,1.63c0.06-0.04,0.13-0.08,0.21-0.12c0.08-0.04,0.14-0.06,0.18-0.06
		c0.12-0.18,0.24-0.37,0.35-0.57C253.23,24.82,253.33,24.65,253.43,24.51z M255.09,26.14c-0.1,0-0.22-0.05-0.36-0.14
		s-0.28-0.21-0.42-0.35c-0.14-0.14-0.27-0.3-0.39-0.47c-0.12-0.17-0.19-0.33-0.21-0.47c-0.06,0.06-0.13,0.15-0.21,0.27
		c-0.08,0.12-0.17,0.25-0.26,0.38c-0.09,0.13-0.17,0.26-0.23,0.39c-0.06,0.13-0.09,0.24-0.09,0.32c0,0.22,0.15,0.43,0.45,0.63
		L255.09,26.14z M254.82,26.59h-0.18c-0.12,0.06-0.24,0.1-0.36,0.12c-0.12,0.02-0.23,0.05-0.33,0.09c-0.04,0.1-0.11,0.22-0.21,0.35
		c-0.1,0.13-0.17,0.25-0.21,0.35c0.08,0.1,0.16,0.19,0.23,0.27c0.07,0.08,0.12,0.15,0.17,0.21L254.82,26.59z M255.63,24.33
		c-0.12-0.16-0.2-0.29-0.24-0.39c-0.1-0.24-0.19-0.5-0.26-0.77c-0.07-0.27-0.09-0.5-0.04-0.68c-0.28,0.4-0.51,0.75-0.69,1.05
		c-0.18,0.3-0.27,0.59-0.27,0.87c0,0.64,0.39,1.1,1.18,1.36c0.06-0.16,0.16-0.37,0.3-0.62c0.14-0.25,0.21-0.41,0.21-0.47
		C255.82,24.61,255.75,24.49,255.63,24.33z M257.29,22.64c-0.28-0.52-0.47-0.98-0.56-1.39c-0.09-0.4-0.13-0.79-0.11-1.18
		c-0.28,0.38-0.54,0.8-0.78,1.25s-0.36,0.88-0.36,1.28c0,0.28,0.06,0.6,0.18,0.95c0.12,0.35,0.27,0.58,0.45,0.68L257.29,22.64z"/>
	<path style="fill:#FFFFFF;" d="M284,40.82c0,0.18-0.08,0.32-0.24,0.41c-0.16,0.09-0.34,0.15-0.53,0.18
		c-0.19,0.03-0.37,0.05-0.54,0.05c-0.17,0-0.27,0.01-0.29,0.03c-0.36,0.12-0.69,0.2-0.98,0.24s-0.52,0.2-0.68,0.48
		c-0.06,0.1-0.1,0.26-0.12,0.48c-0.02,0.22-0.03,0.37-0.03,0.45l0.33,3.14c0,0.14-0.04,0.35-0.11,0.62
		c-0.07,0.27-0.25,0.41-0.53,0.41c-0.16,0-0.29-0.04-0.39-0.14c-0.1-0.09-0.17-0.2-0.21-0.32c-0.04-0.12-0.07-0.24-0.08-0.36
		c-0.01-0.12-0.01-0.2-0.01-0.24l0.27-2.83c0-0.34-0.09-0.63-0.27-0.86c-0.18-0.23-0.41-0.39-0.69-0.47
		c-0.26-0.38-0.54-0.78-0.84-1.19c-0.3-0.41-0.58-0.8-0.84-1.16c-0.08-0.12-0.17-0.29-0.27-0.5s-0.2-0.4-0.3-0.56
		c-0.22-0.34-0.5-0.73-0.84-1.18s-0.64-0.84-0.9-1.21c-0.14-0.2-0.28-0.47-0.41-0.81c-0.13-0.34-0.33-0.65-0.59-0.93h-3.44v5.88
		c0,0.06,0,0.23,0.02,0.51c0.01,0.28-0.03,0.53-0.11,0.75c-0.02,0.08-0.08,0.16-0.18,0.23s-0.17,0.15-0.21,0.23
		c-0.1,0.18-0.18,0.33-0.23,0.44c-0.05,0.11-0.09,0.21-0.11,0.29c-0.02,0.08-0.03,0.16-0.02,0.24c0.01,0.08,0.02,0.19,0.02,0.33
		l0.21,2.8c0,0.28-0.04,0.55-0.11,0.8c-0.07,0.25-0.29,0.38-0.64,0.38c-0.18,0-0.31-0.05-0.39-0.14c-0.08-0.09-0.14-0.2-0.18-0.32
		c-0.04-0.12-0.06-0.25-0.06-0.38c0-0.13,0-0.24,0-0.32l0.33-3.32c0-0.12-0.02-0.28-0.06-0.47c-0.04-0.19-0.1-0.38-0.18-0.56
		c-0.08-0.18-0.18-0.34-0.31-0.48c-0.13-0.14-0.28-0.21-0.46-0.21c-0.16,0-0.35,0.08-0.57,0.26s-0.35,0.35-0.39,0.53
		c-0.02,0.2-0.04,0.41-0.08,0.63c-0.03,0.22-0.08,0.42-0.16,0.6c-0.04,0.06-0.1,0.11-0.18,0.14s-0.16,0.04-0.24,0.04
		c-0.1,0-0.2-0.01-0.3-0.04s-0.16-0.12-0.18-0.26c-0.04-0.22-0.07-0.49-0.08-0.81c-0.01-0.32-0.03-0.62-0.07-0.9
		c-0.04-0.22-0.09-0.47-0.15-0.75c-0.06-0.28-0.09-0.46-0.09-0.54l0.09-18.12c0.04-0.22,0.06-0.44,0.06-0.65c0-0.21,0-0.44,0-0.68
		c-0.04-0.04-0.06-0.12-0.06-0.24c0-0.44,0.11-0.68,0.33-0.71c0.22-0.03,0.56-0.05,1.02-0.05c0.08-0.28,0.14-0.62,0.19-1.01
		c0.05-0.39,0.04-0.74-0.04-1.04c0.22,0.28,0.43,0.56,0.63,0.84c0.2,0.28,0.39,0.56,0.57,0.84c0.03-0.12,0.05-0.33,0.05-0.62
		c0-0.29,0-0.48,0-0.56c0-0.26,0-0.6,0-1.02s-0.07-0.95-0.21-1.6l2.29,3.47c0.02-0.12,0.08-0.32,0.19-0.59
		c0.11-0.27,0.24-0.56,0.38-0.86c0.14-0.3,0.29-0.59,0.44-0.87c0.15-0.28,0.29-0.49,0.41-0.63c0.06,0,0.1,0.06,0.12,0.18
		c0.02,0.12,0.03,0.26,0.03,0.41c0,0.15,0.01,0.29,0.03,0.41c0.02,0.12,0.06,0.17,0.12,0.15c0.06,0.18,0.12,0.38,0.18,0.59
		c0.06,0.21,0.09,0.41,0.09,0.59c0,0.1-0.01,0.23-0.02,0.38s0.06,0.28,0.2,0.38c0.04-0.14,0.08-0.28,0.12-0.41
		c0.04-0.13,0.08-0.27,0.12-0.41l0.84,0.93c0.1-0.28,0.18-0.59,0.24-0.93c0.06-0.34,0.07-0.65,0.03-0.93
		c0.18,0.08,0.36,0.27,0.54,0.56c0.18,0.29,0.3,0.55,0.36,0.77c0.16-0.1,0.29-0.24,0.38-0.42c0.09-0.18,0.16-0.36,0.2-0.54
		c0.16,0.16,0.36,0.37,0.59,0.62c0.23,0.25,0.43,0.53,0.59,0.83c0.06,0.14,0.12,0.21,0.2,0.21s0.12,0,0.17,0
		c0.14,0,0.25-0.01,0.33-0.03v0.39c0.14,0.06,0.28,0.12,0.41,0.17c0.13,0.05,0.27,0.1,0.41,0.14c0.16,0.04,0.33,0.07,0.51,0.08
		c0.18,0.01,0.38,0.06,0.6,0.14c0.16,0.04,0.42,0.15,0.77,0.32c0.35,0.17,0.69,0.39,1.01,0.65c0.1,0.08,0.27,0.18,0.5,0.29
		c0.23,0.11,0.43,0.25,0.59,0.41c0.1,0.08,0.22,0.2,0.35,0.36c0.13,0.16,0.27,0.34,0.41,0.53c0.14,0.19,0.28,0.39,0.41,0.6
		c0.13,0.21,0.24,0.41,0.32,0.59c0.14,0.3,0.25,0.56,0.33,0.78c0.08,0.22,0.14,0.42,0.17,0.59s0.04,0.33,0.04,0.48
		c0,0.15,0,0.33,0,0.53c0,0.5-0.04,1.02-0.12,1.57c-0.08,0.54-0.23,1.08-0.45,1.61c-0.22,0.53-0.52,1.05-0.9,1.54
		c-0.38,0.49-0.87,0.95-1.48,1.37c-0.12,0.08-0.27,0.2-0.44,0.35c-0.17,0.15-0.34,0.28-0.5,0.38c-0.16,0.1-0.34,0.19-0.53,0.27
		c-0.19,0.08-0.37,0.17-0.53,0.27c0.14,0.24,0.29,0.48,0.45,0.72c0.16,0.24,0.31,0.45,0.45,0.63c0.48,0.7,1,1.48,1.57,2.32
		c0.56,0.84,1.12,1.66,1.69,2.44c0.14,0.2,0.32,0.38,0.54,0.53C283.89,40.53,284,40.68,284,40.82z M278.49,26.32
		c0-0.08,0-0.17,0-0.27s-0.01-0.19-0.03-0.27c-0.08-0.34-0.29-0.67-0.62-0.99c-0.33-0.32-0.64-0.5-0.92-0.54
		c-0.14-0.02-0.31-0.03-0.51-0.04c-0.2-0.01-0.4-0.02-0.6-0.03c-0.2-0.01-0.38-0.02-0.54-0.02c-0.16,0-0.25,0-0.27,0h-4.52v1.69
		l0.24,1.6v2.74h4.58c0.24,0,0.52-0.06,0.83-0.17c0.31-0.11,0.61-0.27,0.89-0.47c0.28-0.2,0.53-0.44,0.75-0.72
		c0.22-0.28,0.35-0.59,0.39-0.93c0.04-0.12,0.09-0.24,0.15-0.35c0.06-0.11,0.09-0.22,0.09-0.32c0.02-0.12,0.04-0.29,0.06-0.51
		C278.47,26.49,278.49,26.36,278.49,26.32z"/>
	<path style="fill:#FFFFFF;" d="M307.49,40.7c-0.1,0.04-0.2,0.14-0.29,0.29c-0.09,0.15-0.21,0.26-0.35,0.32
		c-0.24,0.14-0.47,0.23-0.68,0.27s-0.43,0.08-0.65,0.12c-0.02,0.02-0.04,0.08-0.08,0.18s-0.06,0.21-0.08,0.32
		c-0.02,0.11-0.04,0.22-0.06,0.32c-0.02,0.1-0.03,0.16-0.03,0.18l0.33,3.14c0,0.06-0.01,0.15-0.03,0.26
		c-0.02,0.11-0.05,0.23-0.09,0.35c-0.04,0.12-0.1,0.22-0.18,0.3c-0.08,0.08-0.19,0.12-0.33,0.12c-0.16,0-0.29-0.04-0.39-0.14
		c-0.1-0.09-0.17-0.2-0.21-0.32c-0.04-0.12-0.07-0.24-0.08-0.36c-0.01-0.12-0.02-0.2-0.02-0.24l0.27-2.77
		c0-0.12-0.04-0.32-0.11-0.59s-0.25-0.49-0.53-0.65c-0.1,0.06-0.2,0.12-0.3,0.18c-0.1,0.06-0.19,0.09-0.27,0.09
		c-0.16,0-0.29-0.06-0.39-0.17s-0.19-0.24-0.26-0.39c-0.07-0.15-0.13-0.3-0.17-0.45s-0.08-0.27-0.12-0.35
		c-0.14-0.22-0.29-0.54-0.45-0.95c-0.16-0.41-0.3-0.83-0.42-1.25c-0.04-0.14-0.1-0.29-0.18-0.45c-0.08-0.16-0.15-0.32-0.21-0.48
		c-0.1-0.22-0.2-0.44-0.29-0.66c-0.09-0.22-0.21-0.44-0.35-0.66l-8.32-0.12c-0.04,0.04-0.08,0.1-0.12,0.18
		c-0.18,0.44-0.35,0.88-0.51,1.33c-0.16,0.44-0.35,0.89-0.57,1.36c-0.04,0.1-0.11,0.21-0.21,0.33c-0.1,0.12-0.19,0.23-0.27,0.33
		c-0.1,0.16-0.18,0.34-0.23,0.53c-0.05,0.19-0.12,0.37-0.2,0.53c0,0.04-0.03,0.08-0.09,0.14c-0.06,0.05-0.11,0.09-0.15,0.14
		c-0.1,0.24-0.21,0.51-0.33,0.8c-0.12,0.29-0.18,0.53-0.18,0.71l0.3,2.74c0,0.1-0.03,0.27-0.09,0.51c-0.06,0.24-0.2,0.36-0.42,0.36
		c-0.12,0-0.22-0.04-0.29-0.12s-0.13-0.18-0.17-0.29c-0.04-0.11-0.07-0.22-0.08-0.32c-0.01-0.1-0.01-0.17-0.01-0.21l0.21-2.38
		c0-0.2-0.06-0.45-0.18-0.74c-0.12-0.29-0.32-0.44-0.6-0.44c-0.22,0-0.4,0.07-0.54,0.2c-0.14,0.13-0.25,0.29-0.32,0.47
		s-0.13,0.37-0.17,0.56s-0.07,0.35-0.09,0.47c-0.02,0.06-0.06,0.16-0.12,0.3c-0.06,0.14-0.17,0.23-0.33,0.27
		c-0.22-0.12-0.33-0.31-0.32-0.56c0.01-0.25-0.01-0.48-0.05-0.68c-0.08-0.24-0.18-0.39-0.29-0.44c-0.11-0.05-0.21-0.11-0.29-0.17
		c-0.12-0.08-0.27-0.22-0.44-0.41c-0.17-0.19-0.26-0.39-0.26-0.59c0-0.06,0.04-0.22,0.14-0.47c0.09-0.25,0.19-0.49,0.29-0.71
		c0.22-0.5,0.44-1,0.66-1.49c0.22-0.49,0.44-0.99,0.66-1.49c0.22-0.46,0.47-0.99,0.74-1.58c0.27-0.59,0.55-1.19,0.83-1.79
		c0.18-0.4,0.38-0.84,0.6-1.33c0.22-0.48,0.44-0.96,0.66-1.45c0.12-0.26,0.27-0.59,0.45-0.99c0.18-0.4,0.34-0.74,0.48-1.02
		c0.28-0.62,0.58-1.31,0.9-2.05s0.65-1.49,0.98-2.23c0.33-0.74,0.66-1.47,0.98-2.17c0.32-0.7,0.63-1.33,0.93-1.87
		c0.08-0.14,0.19-0.25,0.33-0.33c0.14-0.08,0.29-0.13,0.45-0.15c0.16-0.02,0.33-0.03,0.5-0.03s0.32,0,0.44,0
		c0.46,0,0.94,0.02,1.43,0.05s0.94,0.18,1.34,0.44c0.22,0.14,0.4,0.32,0.54,0.54c0.14,0.22,0.26,0.45,0.36,0.69
		c0.1,0.24,0.19,0.48,0.26,0.72c0.07,0.24,0.16,0.45,0.26,0.63c0.34,0.7,0.66,1.43,0.95,2.19c0.29,0.75,0.58,1.48,0.86,2.19
		c0.9,2.21,1.83,4.43,2.77,6.66C305.57,36.21,306.52,38.45,307.49,40.7z M299.29,32.74c-0.28-0.66-0.57-1.33-0.86-2.01
		c-0.29-0.67-0.58-1.34-0.86-2c-0.1-0.06-0.18-0.14-0.24-0.24c-0.06-0.1-0.11-0.22-0.15-0.35s-0.08-0.27-0.12-0.41
		c-0.04-0.14-0.09-0.28-0.15-0.42c-0.04-0.06-0.1-0.11-0.18-0.14s-0.15-0.05-0.21-0.05c-0.08,0-0.16,0.01-0.23,0.03
		c-0.07,0.02-0.13,0.03-0.17,0.03c-0.4,0.86-0.85,1.75-1.36,2.65c-0.5,0.9-0.92,1.78-1.27,2.62c1.03,0.22,2,0.32,2.92,0.29
		C297.35,32.72,298.3,32.72,299.29,32.74z"/>
	<path style="fill:#FFFFFF;" d="M330.7,41.09c0,0.1-0.01,0.18-0.04,0.23c-0.03,0.05-0.08,0.09-0.14,0.14
		c-0.06,0.04-0.13,0.1-0.21,0.18c-0.08,0.08-0.17,0.19-0.27,0.33c-0.06,0.1-0.1,0.26-0.11,0.47s-0.01,0.36-0.01,0.44l0.24,2.83
		c0,0.28-0.04,0.54-0.12,0.78s-0.29,0.36-0.63,0.36c-0.18,0-0.32-0.04-0.41-0.14c-0.09-0.09-0.15-0.2-0.18-0.32
		c-0.03-0.12-0.04-0.25-0.04-0.38s0-0.23,0-0.29l0.33-3.32c0-0.1-0.02-0.25-0.06-0.44c-0.04-0.19-0.1-0.39-0.18-0.59
		c-0.08-0.2-0.19-0.37-0.32-0.51s-0.29-0.21-0.47-0.21c-0.16,0-0.35,0.08-0.57,0.26s-0.35,0.36-0.39,0.56
		c-0.04,0.18-0.07,0.38-0.09,0.6c-0.02,0.22-0.07,0.42-0.15,0.6c-0.04,0.06-0.11,0.11-0.2,0.14c-0.09,0.03-0.17,0.04-0.23,0.04
		c-0.1,0-0.2-0.01-0.29-0.04c-0.09-0.03-0.16-0.12-0.2-0.26c-0.02-0.1-0.04-0.26-0.06-0.47c-0.02-0.21-0.04-0.44-0.08-0.68
		s-0.07-0.49-0.12-0.75c-0.05-0.26-0.12-0.49-0.2-0.69c-0.04-0.1-0.04-0.23,0.01-0.39s0.08-0.27,0.08-0.33v-5.91
		c0-0.06-0.01-0.14-0.04-0.24s-0.04-0.19-0.04-0.27V28c-0.42,0.52-0.87,1.15-1.34,1.88c-0.47,0.73-0.97,1.46-1.49,2.19
		c-0.16,0.24-0.34,0.53-0.53,0.86c-0.19,0.33-0.39,0.68-0.6,1.04c-0.21,0.36-0.42,0.73-0.63,1.1s-0.43,0.72-0.65,1.04
		c-0.06,0.1-0.15,0.16-0.27,0.17c-0.12,0.01-0.25,0.07-0.39,0.17c-0.06-0.04-0.16-0.06-0.29-0.06s-0.24-0.04-0.32-0.12
		c-0.2-0.18-0.4-0.42-0.59-0.71c-0.19-0.29-0.37-0.6-0.54-0.94c-0.17-0.33-0.34-0.66-0.51-0.99c-0.17-0.33-0.34-0.65-0.5-0.95
		c-0.28-0.48-0.52-0.88-0.72-1.18c-0.2-0.3-0.38-0.56-0.54-0.78c-0.16-0.22-0.32-0.44-0.48-0.65c-0.16-0.21-0.34-0.47-0.54-0.77
		c-0.16-0.24-0.29-0.49-0.38-0.75c-0.09-0.26-0.23-0.5-0.41-0.72v3.2c0,0.08,0.02,0.26,0.06,0.53s0.06,0.52,0.06,0.74l0.03,6.96
		c-0.04,0.24-0.08,0.53-0.12,0.86c-0.04,0.33-0.08,0.65-0.11,0.95c-0.03,0.3-0.06,0.56-0.08,0.78c-0.02,0.22-0.03,0.35-0.03,0.39
		v2.5c0,0.06,0.01,0.1,0.03,0.12c0.02,0.02,0.04,0.05,0.06,0.09c0.04,0.12,0.04,0.32,0.02,0.59c-0.03,0.27-0.09,0.49-0.17,0.65
		c-0.04,0.08-0.13,0.12-0.27,0.12c-0.12,0-0.22-0.04-0.3-0.12s-0.15-0.17-0.21-0.27s-0.11-0.21-0.14-0.32s-0.04-0.19-0.04-0.23
		l0.33-2.26c-0.06-0.18-0.12-0.38-0.18-0.59c-0.06-0.21-0.2-0.37-0.42-0.47c-0.18,0.12-0.3,0.27-0.35,0.45
		c-0.05,0.18-0.08,0.37-0.09,0.56c-0.01,0.19-0.03,0.38-0.04,0.56c-0.02,0.18-0.09,0.33-0.21,0.45c-0.06,0.02-0.14,0.02-0.23,0
		c-0.09-0.02-0.17-0.06-0.23-0.12c-0.22-0.2-0.36-0.48-0.42-0.83s-0.14-0.66-0.24-0.92c-0.14-0.36-0.37-0.61-0.69-0.74
		s-0.59-0.2-0.81-0.2c0-0.06-0.03-0.13-0.09-0.21s-0.09-0.15-0.09-0.21V24.27l0.15-1.54v-1.87c0-0.06-0.02-0.13-0.05-0.21
		c-0.03-0.08-0.06-0.17-0.08-0.26c-0.02-0.09-0.01-0.18,0.02-0.27c0.03-0.09,0.09-0.17,0.2-0.23c0.16-0.04,0.35-0.07,0.56-0.09
		s0.35-0.03,0.41-0.03c0.08,0,0.18,0.01,0.3,0.03c0.12,0.02,0.22,0.03,0.3,0.03v0.75h0.66v0.45h-0.66v0.42h0.66v0.54h-0.66v0.33
		h0.66v0.48h-0.66v0.39l0.09,0.09l0.09-0.03c0.04,0,0.1,0,0.18-0.02c0.08-0.01,0.18-0.02,0.3-0.02v0.51h-0.66v0.42h0.66v0.48h-0.66
		v0.39h0.66v0.48h-0.66v0.39h0.66v0.48h-0.66v0.42h0.66c0,0.06,0,0.14,0,0.24s0.02,0.17,0.06,0.21h0.84l0.06-0.03v-0.33
		c-0.1-0.1-0.23-0.14-0.39-0.11s-0.27,0.04-0.33,0.02v-0.42h0.72v-0.36l-0.09-0.09l-0.06,0.06l-0.57-0.06v-0.48
		c0.22,0.06,0.46,0.06,0.72,0v-0.39h-0.72v-0.45h0.66l0.06-0.03v-0.33c-0.1-0.1-0.23-0.14-0.39-0.11s-0.27,0.04-0.33,0.02v-0.42
		c0.16-0.06,0.37-0.06,0.63,0l0.09-0.09V23.3h-0.72v-0.48c0.22,0.06,0.46,0.06,0.72,0V22.4h-0.72v-0.45
		c0.06-0.04,0.18-0.04,0.36-0.02c0.18,0.03,0.3,0,0.36-0.11v-0.27c-0.1-0.1-0.23-0.14-0.39-0.11c-0.16,0.03-0.27,0.04-0.33,0.02
		v-0.42h0.72v-0.36l-0.09-0.09l-0.06,0.06l-0.57-0.06v-0.42c0.02-0.02,0.08-0.02,0.17-0.02c0.09,0.01,0.18,0.02,0.27,0.02
		s0.17-0.02,0.23-0.05c0.06-0.03,0.08-0.11,0.06-0.23h1.78c0.32,0.28,0.67,0.69,1.04,1.24c0.37,0.54,0.65,1.02,0.83,1.42
		c0.04,0.1,0.12,0.2,0.24,0.3c0.12,0.1,0.21,0.22,0.27,0.36c0.1,0.22,0.2,0.47,0.3,0.75c0.1,0.28,0.23,0.56,0.39,0.84
		c0.36,0.62,0.78,1.25,1.25,1.88c0.47,0.63,0.91,1.23,1.31,1.79c0.3-0.22,0.51-0.5,0.63-0.83c0.12-0.33,0.26-0.64,0.42-0.92
		c0.08-0.14,0.17-0.31,0.27-0.51c0.1-0.2,0.21-0.4,0.33-0.6c0.2-0.28,0.45-0.62,0.74-1.01c0.29-0.39,0.57-0.77,0.83-1.13
		c0.4-0.58,0.79-1.18,1.16-1.78c0.37-0.6,0.79-1.22,1.25-1.84h5c0.04,0.16,0.08,0.36,0.14,0.6c0.05,0.24,0.08,0.46,0.08,0.66
		c0,2.67,0,4.96,0,6.86c0,1.9,0,3.49-0.01,4.76c-0.01,1.28-0.02,2.29-0.03,3.04c-0.01,0.75-0.02,1.33-0.03,1.72
		c-0.01,0.39-0.01,0.65-0.01,0.77c0,0.12,0,0.19,0,0.21c0,0.06-0.01,0.25-0.03,0.57c-0.02,0.32-0.01,0.58,0.03,0.78
		c0.04,0.2,0.09,0.44,0.17,0.72S330.7,41.03,330.7,41.09z M312.46,30.6c0-0.08-0.02-0.26-0.06-0.53c-0.04-0.27-0.07-0.51-0.09-0.71
		c-0.02-0.14-0.04-0.27-0.06-0.38c-0.02-0.11-0.05-0.2-0.09-0.26c-0.1-0.14-0.22-0.22-0.35-0.23c-0.13-0.01-0.26-0.01-0.38-0.01
		c-0.16,0-0.31,0.01-0.45,0.03c-0.14,0.02-0.25,0.11-0.33,0.27c-0.06,0.1-0.11,0.25-0.14,0.45c-0.03,0.2-0.06,0.4-0.09,0.6
		c-0.03,0.2-0.05,0.39-0.06,0.56c-0.01,0.17-0.01,0.27-0.01,0.29c0,0.16,0.08,0.3,0.24,0.41c0.16,0.11,0.25,0.19,0.27,0.23h1.15
		c0.04-0.08,0.09-0.13,0.14-0.17c0.05-0.03,0.1-0.06,0.15-0.09c0.05-0.03,0.09-0.08,0.12-0.14
		C312.44,30.87,312.46,30.76,312.46,30.6z M312.25,27.79c0-0.18-0.12-0.28-0.35-0.3c-0.23-0.02-0.4-0.03-0.5-0.03
		c-0.12,0-0.28,0-0.48,0s-0.3,0.11-0.3,0.33c0,0.08,0.03,0.16,0.09,0.23s0.11,0.12,0.15,0.14h1.15
		C312.17,28.04,312.25,27.91,312.25,27.79z M311.92,29.45c0,0.36-0.16,0.54-0.48,0.54c-0.22,0-0.36-0.07-0.41-0.2
		c-0.05-0.13-0.08-0.25-0.08-0.35c0-0.1,0.04-0.21,0.11-0.33s0.19-0.18,0.35-0.18c0.16,0,0.29,0.06,0.38,0.18
		C311.87,29.24,311.92,29.35,311.92,29.45z"/>
	<path style="fill:#FFFFFF;" d="M339.86,30.24c0,0.06,0,0.24,0,0.54s-0.01,0.55-0.03,0.75c-0.02,0.1-0.05,0.22-0.09,0.36
		c-0.04,0.14-0.06,0.24-0.06,0.3v2.23c0,0.04-0.01,0.13-0.03,0.26c-0.02,0.13-0.04,0.29-0.06,0.47c-0.02,0.18-0.05,0.37-0.09,0.57
		s-0.07,0.37-0.09,0.51c-0.12,0.6-0.26,1.22-0.41,1.84c-0.15,0.62-0.32,1.24-0.5,1.84c-0.02,0.08-0.07,0.17-0.15,0.26
		c-0.08,0.09-0.12,0.19-0.12,0.29c-0.04,0.16-0.06,0.35-0.04,0.56c0.01,0.21-0.07,0.43-0.23,0.65c-0.04,0.06-0.11,0.11-0.21,0.14
		c-0.1,0.03-0.19,0.04-0.27,0.04c-0.12-0.08-0.19-0.18-0.2-0.3c-0.01-0.12-0.01-0.25,0-0.39c0.01-0.14,0-0.27-0.03-0.39
		c-0.03-0.12-0.13-0.22-0.29-0.3c-0.22,0.16-0.34,0.35-0.36,0.56c-0.02,0.21-0.07,0.41-0.15,0.59c-0.1,0.24-0.15,0.51-0.14,0.8
		c0.01,0.29,0.03,0.55,0.08,0.77c0.04,0.16,0.05,0.33,0.04,0.5s-0.03,0.35-0.04,0.53c-0.02,0.1-0.08,0.2-0.17,0.3
		c-0.09,0.1-0.2,0.15-0.32,0.15c-0.16,0-0.3-0.09-0.41-0.26s-0.18-0.33-0.2-0.47c0-0.14,0.02-0.34,0.08-0.59
		c0.05-0.25,0.08-0.48,0.08-0.68c0-0.02,0-0.1-0.01-0.24c-0.01-0.14-0.03-0.29-0.06-0.45s-0.07-0.3-0.12-0.42
		c-0.05-0.12-0.12-0.18-0.23-0.18c-0.06,0-0.11,0.01-0.14,0.03c-0.03,0.02-0.08,0.03-0.14,0.03c-0.16,0-0.31-0.09-0.45-0.27
		c-0.16-0.26-0.25-0.55-0.26-0.87c-0.01-0.32-0.06-0.61-0.14-0.88c-0.06-0.18-0.16-0.41-0.3-0.69c-0.14-0.28-0.24-0.56-0.3-0.84
		c-0.12-0.54-0.21-1.09-0.27-1.66c-0.06-0.56-0.14-1.12-0.24-1.66c-0.02-0.1-0.05-0.24-0.08-0.41s-0.06-0.35-0.09-0.53
		c-0.03-0.18-0.06-0.35-0.09-0.5c-0.03-0.15-0.04-0.25-0.04-0.29v-4.58c0-0.26,0.04-0.66,0.12-1.21s0.2-1.07,0.36-1.6
		c0.04-0.08,0.12-0.15,0.26-0.2s0.22-0.11,0.26-0.17c0.06-0.1,0.1-0.23,0.11-0.39c0.01-0.16,0.03-0.31,0.08-0.45l0.03-2.59
		l0.27-1.15c-0.02-0.04-0.03-0.08-0.03-0.11s-0.02-0.06-0.06-0.08c-0.08,0.04-0.17,0.11-0.27,0.21s-0.2,0.15-0.3,0.15
		s-0.17-0.04-0.21-0.12c-0.04-0.08-0.06-0.15-0.06-0.21c0-0.1,0.06-0.23,0.17-0.39s0.24-0.32,0.39-0.48c0.15-0.16,0.3-0.3,0.45-0.42
		c0.15-0.12,0.28-0.19,0.38-0.21c0.12-0.04,0.3-0.05,0.54-0.03s0.4,0.03,0.48,0.03c0.06,0,0.21-0.01,0.45-0.03s0.44-0.01,0.6,0.03
		c0.36,0.14,0.66,0.38,0.91,0.72c0.24,0.34,0.46,0.68,0.66,1.02c0.04,0.06,0.07,0.19,0.09,0.39c0.02,0.2,0.04,0.35,0.06,0.45
		c0,0.06,0.01,0.12,0.04,0.17c0.03,0.05,0.06,0.11,0.08,0.17c0.04,0.18,0.07,0.4,0.09,0.66c0.02,0.26,0.03,0.42,0.03,0.48v2.02
		c0.12,0.1,0.24,0.23,0.36,0.39c0.1,0.14,0.2,0.32,0.3,0.53c0.1,0.21,0.19,0.47,0.27,0.77c0.14,0.62,0.24,1.1,0.3,1.42
		c0.06,0.32,0.1,0.59,0.12,0.8c0.02,0.21,0.03,0.41,0.03,0.59C339.86,29.6,339.86,29.87,339.86,30.24z M337.36,22.73
		c0-0.04,0-0.11,0-0.21c0-0.1-0.08-0.15-0.24-0.15c-0.04,0-0.1,0.01-0.17,0.03c-0.07,0.02-0.14,0.03-0.2,0.03
		c-0.12,0-0.24-0.03-0.36-0.11c-0.12-0.07-0.18-0.19-0.18-0.35c0-0.18,0.08-0.33,0.24-0.45c0.04-0.02,0.11-0.03,0.2-0.05
		c0.09-0.01,0.18-0.02,0.27-0.04c0.09-0.02,0.17-0.05,0.24-0.09c0.07-0.04,0.11-0.1,0.11-0.18c0-0.1-0.1-0.21-0.3-0.33
		c-0.2-0.12-0.35-0.2-0.45-0.24c-0.04-0.02-0.1-0.03-0.18-0.03s-0.15,0-0.21,0c-0.18,0-0.36,0.02-0.54,0.06
		c-0.18,0.04-0.37,0.17-0.57,0.39v0.3c0.22,0.04,0.41,0.11,0.56,0.21c0.15,0.1,0.23,0.25,0.23,0.45c0,0.1-0.05,0.2-0.15,0.3
		c-0.1,0.1-0.21,0.15-0.33,0.15c-0.06,0-0.14-0.03-0.23-0.09c-0.09-0.06-0.17-0.09-0.23-0.09c-0.06,0-0.1,0.01-0.11,0.03
		c-0.01,0.02-0.04,0.03-0.08,0.03c-0.02,0.06-0.04,0.11-0.04,0.15c-0.01,0.04-0.01,0.09-0.01,0.15c0,0.06,0.02,0.2,0.06,0.42
		s0.06,0.4,0.06,0.54c0.14,0.14,0.31,0.35,0.51,0.63c0.2,0.28,0.43,0.42,0.69,0.42h0.21c0.08,0,0.17-0.05,0.26-0.14
		c0.09-0.09,0.16-0.17,0.2-0.23c0.08-0.06,0.17-0.13,0.27-0.21c0.1-0.08,0.17-0.15,0.21-0.21c0.1-0.18,0.17-0.4,0.21-0.65
		C337.34,22.95,337.36,22.79,337.36,22.73z M336.67,23.94c-0.16,0-0.35-0.03-0.57-0.09c-0.22-0.06-0.46-0.03-0.72,0.09
		c0-0.02-0.01-0.05-0.03-0.09c-0.02-0.04-0.03-0.11-0.03-0.21c0.08-0.04,0.19-0.08,0.32-0.11c0.13-0.03,0.23-0.05,0.29-0.05
		s0.17,0.02,0.33,0.05c0.16,0.03,0.3,0.07,0.42,0.11V23.94z M336.3,23.15c-0.04-0.04-0.08-0.04-0.14,0
		c-0.05,0.04-0.12,0.06-0.2,0.06c-0.08-0.08-0.12-0.17-0.12-0.27c0.08,0.08,0.15,0.12,0.21,0.12
		C336.12,23.06,336.2,23.09,336.3,23.15z"/>
</g>
</svg>
