<?xml version="1.0" encoding="utf-8"?>
<!-- Generator: Adobe Illustrator 24.1.2, SVG Export Plug-In . SVG Version: 6.00 Build 0)  -->
<svg version="1.1" id="Layer_1" xmlns="http://www.w3.org/2000/svg" xmlns:xlink="http://www.w3.org/1999/xlink" x="0px" y="0px"
	 viewBox="0 0 464.3 282.3" style="enable-background:new 0 0 464.3 282.3;" xml:space="preserve">
<style type="text/css">
	.st0{fill:#FFFFFF;}
	.st1{fill:#464445;}
	.st2{fill:#DE1C31;}
</style>
<g>
	<path class="st0" d="M439,67h-16.8c8.1-12.3,25-38.2,25.8-39.9c-7-27.5-38.6-22.9-42.1-19.3L368.4,67H45.8
		c-7.6,0-16.5,4.8-18.2,12.2l-21,123.3c-2.4,10.3,5.5,21.1,16,21.1h227.2l107.3,58.7l29.8-39.7c0,0-13.7-21-29.9-7l-19.2-12h83.7
		c8.1,0,15.1-6,16.2-14.1l17.5-123.8C456.6,75.8,449,67,439,67z"/>
	<g>
		<g>
			<path class="st1" d="M36.1,212.9h-1.9c0-0.4,0.2-1.6,0.3-2.1c-1,1.9-2.3,2.4-3.7,2.4c-3.3,0-4.1-2.5-3.2-6.8l2.5-12.1
				c0.9-4.5,2.4-6.5,5.8-6.5c4.3,0,4.6,3.5,4.1,6.2l-0.1,0.5h-2.3l0.1-0.6c0.4-2.4,0.3-4.2-2-4.2c-1.6,0-2.5,1-3.3,4.5l-2.5,12.2
				c-0.6,3-0.4,4.7,1.6,4.7c2.4,0,3.2-2.4,4.1-6.5l0.7-3.1h-3l0.4-2h5.2L36.1,212.9z"/>
			<path class="st1" d="M60.3,204.6l-3,8.3h-2.4c1.9-5.1,7-19.1,9.2-24.7h3.4l-1.2,24.7H64l0.4-8.3H60.3z M64.6,202.5
				c0.3-5.1,0.5-10,0.8-12.2h-0.1c-0.4,1.8-2.4,7.4-4.2,12.2H64.6z"/>
			<path class="st1" d="M98.8,202.3c1-4.6,2.1-9.3,2.7-11.9l0,0c-1.5,4.1-5.8,15-8.7,22.4h-2.3c0.3-6.3,0.8-18.2,1.1-22.4h-0.1
				c-0.5,2.9-1.6,8.4-2.5,12.6l-2,9.9h-2.2l5.2-24.7h3.5c-0.3,7.9-0.6,17.2-0.9,20.3l0,0c1-3,5.2-13.4,8-20.3h3.5l-5.2,24.7h-2.3
				L98.8,202.3z"/>
			<path class="st1" d="M126.4,188.2l-5.2,24.7h-2.3l5.2-24.7H126.4z"/>
			<path class="st1" d="M141.1,212.9l5.2-24.7h2.9c0.3,6.1,0.9,18.9,0.9,20.3h0.1c0.6-3.5,1.3-7.1,2.1-11.1l1.9-9.3h2.2l-5.2,24.7
				h-2.7c-0.3-5.4-0.9-18.8-0.9-20.8l0,0c-0.5,3.2-1.2,7.1-2.2,11.6l-1.9,9.3H141.1z"/>
			<path class="st1" d="M180.7,212.9h-1.9c0-0.4,0.2-1.6,0.3-2.1c-1,1.9-2.3,2.4-3.7,2.4c-3.3,0-4.1-2.5-3.2-6.8l2.5-12.1
				c0.9-4.5,2.4-6.5,5.8-6.5c4.3,0,4.6,3.5,4.1,6.2l-0.1,0.5h-2.3l0.1-0.6c0.4-2.4,0.3-4.2-2-4.2c-1.6,0-2.5,1-3.3,4.5l-2.5,12.2
				c-0.6,3-0.4,4.7,1.6,4.7c2.4,0,3.2-2.4,4.1-6.5l0.7-3.1h-3l0.4-2h5.1L180.7,212.9z"/>
		</g>
		<path class="st2" d="M126.6,176L140,91.3h17.9c11.3,0,19.7,2.6,25,7.9c5.3,5.3,8,13.4,8,24.4c0,8.5-1.4,16.7-4,24.6
			s-6.1,14-10.2,18.2c-3.5,3.5-7.3,5.9-11.7,7.3s-11.3,2.2-20.7,2.2L126.6,176L126.6,176z M153.7,155.2c0.2,0,0.3,0.1,0.5,0.1
			s0.4,0,0.8,0c1.4,0,2.7-0.3,4-1s2.3-1.6,3.2-2.7c1.4-1.9,2.7-5.7,4.1-11.3c1.3-5.7,1.9-11.4,1.9-17c0-3.6-0.6-6.3-1.8-8.1
			c-1.2-1.7-3-2.7-5.7-2.9L153.7,155.2z"/>
		<path class="st1" d="M191,176l13.4-84.7h19.9c12.6,0,21.2,1.6,25.9,4.9c4.7,3.3,7.1,8.9,7.1,16.8c0,6.9-1.5,12.6-4.5,17
			s-7.3,7.4-12.9,8.8l10.5,37.1h-25.1l-5.3-34.2l-5.3,34.2L191,176L191,176z M222.1,129.1h1.3c3.6,0,6.3-1.1,8.3-3.4
			c1.9-2.3,2.9-5.5,2.9-9.8c0-2.4-0.6-4.2-1.9-5.4c-1.2-1.2-3.1-1.8-5.7-1.8c-0.2,0-0.4,0-0.8,0.1c-0.4,0-0.7,0.1-0.9,0.1
			L222.1,129.1z"/>
		<path class="st1" d="M301.8,176l13.4-84.7h23.7l-5.6,35.4L352,91.3h24.1l-23.5,39.1l10.7,45.6h-25.7l-6-38.5l-6.1,38.5L301.8,176
			L301.8,176z"/>
		<path class="st1" d="M365.8,176l13.4-84.7h41.9l-3.2,20.5h-18.2l-1.8,10.8h16.5l-3,19.8h-16.5L393,154h18.3l-3.5,21.9h-42V176z"/>
		<g>
			<path class="st2" d="M132.8,111.9l3.2-20.5H94.1l-0.3,1.9c0.1,0.1,0.2,0.1,0.3,0.2c5.7,4,8.6,10.6,8.6,19.7c0,7.6-1.7,14-5.1,19
				c-2.9,4.2-6.7,7.3-11.5,9.1v0.2l9.6,34.6h26.8l3.5-21.9h-18.3l1.9-11.6h16.5l3-19.8h-16.5l1.8-10.8L132.8,111.9L132.8,111.9z"/>
		</g>
		<path class="st2" d="M32.8,176l13.4-84.7h19.9c12.6,0,21.2,1.6,25.9,4.9s7.1,8.9,7.1,16.8c0,6.9-1.5,12.6-4.5,17
			c-3,4.5-7.3,7.4-12.9,8.8l10.5,37.1H67.1l-5.3-34.2l-5.4,34.2H32.8V176z M63.9,129.1h1.3c3.6,0,6.3-1.1,8.3-3.4
			c1.9-2.3,2.9-5.5,2.9-9.8c0-2.4-0.6-4.2-1.9-5.4c-1.2-1.2-3.1-1.8-5.7-1.8c-0.2,0-0.4,0-0.8,0.1c-0.4,0-0.7,0.1-0.9,0.1
			L63.9,129.1z"/>
		<g>
			<path class="st1" d="M301.8,176l-6-84.7h-27.9l-7.6,20.1c0,0.6,0.1,1.1,0.1,1.6c0,7.5-1.7,13.8-5.1,18.8
				c-1.3,1.9-2.9,3.6-4.6,5.1l-4.7,12.6l7.5,26.5h6.8l3.7-12.5h13.9l-0.1,12.5L301.8,176L301.8,176z M269.1,146.5l9.7-31.4
				l-0.3,31.4H269.1z"/>
		</g>
		<path class="st2" d="M307.9,185.1c0,0,14.3,0,13.8,0c-0.4,0-17.8,26.4-17.8,26.4l-6.4-5l-3.1-0.8L307.9,185.1z"/>
		<path class="st2" d="M296.2,208.6c0.3,0.1,50.8,38.8,50.8,38.8l6.1,16.4l-105.7-54.7l-6.7-17.2L296.2,208.6z"/>
		<path class="st2" d="M242.5,191.1l16,4.5c0,0-1.2-5.3-7-6.5C245.9,187.8,242.5,191.1,242.5,191.1z"/>
		<path class="st2" d="M349.2,248.3c0,0,0.1,0.3,0.3,0.6c1.1,3,5.7,16,5.7,16l9.9-13.8c0,0-1.4-4.1-7.9-4.8
			C350.5,245.4,349.2,248.3,349.2,248.3z"/>
		<g>
			<path class="st2" d="M409.1,25c9.8,0,18.2,5.7,21.6,13.6l5.1-7.3c0,0-5.2-19.6-25.1-14l-5.4,8.1C406.5,25,407.8,25,409.1,25z"/>
			<path class="st2" d="M382.5,64.9c9.5,0,17.6,5.2,21.3,12.7l25.5-37.1c-2.7-7.8-10.7-13.5-20.2-13.5c-1.9,0-3.8,0.3-5.6,0.8
				l-25,37.4C379.9,65,381.2,64.9,382.5,64.9z"/>
			<path class="st2" d="M382.5,67c-2,0-3.9,0.3-5.7,0.8l-10.2,15.3H400l2.3-3.4C399.5,72.3,391.7,67,382.5,67z"/>
		</g>
	</g>
</g>
</svg>
