<?xml version="1.0" encoding="utf-8"?>
<!-- Generator: Adobe Illustrator 24.3.0, SVG Export Plug-In . SVG Version: 6.00 Build 0)  -->
<svg version="1.1" id="Layer_1" xmlns="http://www.w3.org/2000/svg" xmlns:xlink="http://www.w3.org/1999/xlink" x="0px" y="0px"
	 viewBox="0 0 247.5 51.7" style="enable-background:new 0 0 247.5 51.7;" xml:space="preserve">
<g>
	<path style="fill:#FFFFFF;" d="M95.9,17.5h7.1l8.8,21.1h-7.7l-1.1-2.7h-7.3l-1,2.9h-7.5L95.9,17.5z M101.2,31l-1.8-5.3L97.6,31
		H101.2z"/>
	<path style="fill:#FFFFFF;" d="M209.7,17.5h7.1l8.9,21.3H218l-1.1-2.9h-7.4l-1.1,2.9h-7.5L209.7,17.5z M215.1,31l-1.8-5.3l-1.8,5.3
		H215.1z"/>
	<path style="fill:#FFFFFF;" d="M232.4,23.6h-6.2v-6h19.6v6h-6.2v15.2h-7.1L232.4,23.6z"/>
	<path style="fill:#FFFFFF;" d="M115.7,17.5h7.3l4.7,7.5l4.7-7.5h7.3v21.3h-6.9V28.4l-4.8,7.5h-0.2l-5-7.5v10.4h-6.9V17.5H115.7z"/>
	<path style="fill:#FFFFFF;" d="M172.9,17.5h7.3l4.7,7.5l4.7-7.5h7.4v21.3h-7.2V28.4l-4.8,7.5l-5-7.5v10.4h-6.9
		C172.9,38.8,172.9,17.5,172.9,17.5z"/>
	<path style="fill:#FFFFFF;" d="M156.4,16.8c-6.2,0-11.5,5.3-11.5,11.5s5.3,11.5,11.5,11.5s11.5-5.3,11.5-11.5
		C167.6,21.8,162.6,16.8,156.4,16.8z M156.4,32.6c-2.4,0-4.7-2.1-4.7-4.7s2.1-4.7,4.7-4.7c2.4,0,4.7,2.1,4.7,4.7
		C161,30.5,158.7,32.6,156.4,32.6z"/>
	<path style="fill:#FFFFFF;" d="M85,25.5H73.7v5h4.4C77.2,32,75.7,33,73.7,33c-2.7,0-5-2.3-5-5s2.3-5,5-5c0.9,0,1.5,0.2,2.1,0.4
		l2.9-5.6c-1.5-0.9-3.3-1.2-5-1.2c-6.2,0-11.5,5.3-11.5,11.5s5.2,11.3,11.5,11.3c6.2,0,11.5-5.3,11.5-11.5
		C85.2,27.4,85.2,26.3,85,25.5z"/>
</g>
<path style="fill:#A6CE3D;" d="M25.7,26.1v7.7c-4.4,0-8.1-3.6-8.1-8.1s3.6-8.1,8.1-8.1c4.4,0,8,3.6,8.1,7.7v-23
	c-2.5-0.9-5.3-1.5-8.1-1.5C12.1,0.8,0.8,11.9,0.8,25.7s11,24.9,24.9,24.9c13.6,0,24.6-10.9,24.9-24.4C50.3,26.1,25.7,26.1,25.7,26.1
	z"/>
</svg>
