<?xml version="1.0" encoding="utf-8"?>
<!-- Generator: Adobe Illustrator 24.1.2, SVG Export Plug-In . SVG Version: 6.00 Build 0)  -->
<svg version="1.1" id="Layer_1" xmlns="http://www.w3.org/2000/svg" xmlns:xlink="http://www.w3.org/1999/xlink" x="0px" y="0px"
	 viewBox="0 0 1023 357" style="enable-background:new 0 0 1023 357;" xml:space="preserve">
<style type="text/css">
	.st0{fill:#FFFFFF;}
</style>
<g>
	<path class="st0" d="M495.4,57c22.7,55.2,44.4,108.1,68.1,165.7c9.1-21.5,16.6-39,23.9-56.7c14.4-35,28.7-70.1,43-105.1
		c11.6-28.5,33-42.7,63.7-43.5c32.2-0.9,55.9,12.5,68.4,42.4c22.1,52.9,43.5,106.1,67,163.5c14.7-35.6,28-67.6,41.2-99.6
		c12.6-30.8,25.6-61.5,37.4-92.5c4.1-10.7,9.2-15.5,21.3-15.1c26,0.9,52.1,0.3,81.7,0.3c-10.5,25.9-19.7,48.7-28.9,71.4
		c-28.8,70.7-57.8,141.3-86.4,212.1c-12.3,30.5-35.2,44.6-67.3,44.1c-31.2-0.5-53.3-14.9-65.2-44.4c-19-47.2-38.5-94.3-57.8-141.4
		c-2.4-5.8-5.2-11.5-9.1-20.4c-22.2,54.5-43.1,105.6-64.1,156.7c-14.1,34.3-34.9,49.5-67.6,49.7c-33.5,0.2-55.3-15.3-69.6-50
		c-18.1-44.1-35.9-88.3-53.9-132.3c-2.4-5.9-5.4-11.5-10.2-21.5c-6.4,14.8-11.3,25.9-15.9,37.1c-17.2,42.1-33.5,84.6-51.6,126.4
		c-11.7,27.1-34.5,39.2-63.7,39.6c-15,0.2-29.9,0-48.4,0c10.8-27.4,20.2-52.1,30.2-76.6c19.7-48.2,40.2-96,59.5-144.4
		c4.8-11.9,10.9-13,20.8-7.5C430.1,152.6,474.4,134.3,495.4,57z"/>
	<path class="st0" d="M213.7,16.3c-32.7,81-63.9,158-96.3,238.3c44.2,0,85,0,131.6,0c-13,31.1-24.1,58.4-36.2,85.2
		c-1.3,2.9-9,4.2-13.8,4.2c-38.6,0.3-77.3,1.1-115.9-0.1c-50.6-1.5-80.4-46.6-61.8-93.5C50.6,176.5,81,103,111.6,29.5
		c2.2-5.4,9-12.5,14-12.7C153.5,15.7,181.6,16.3,213.7,16.3z"/>
	<path class="st0" d="M415.2,100.6c-27.8-0.5-44.3-16.7-43.7-43c0.5-24.9,18.1-40.2,45.4-39.6c25.2,0.6,45.1,19.6,44.1,42.3
		C460.1,83.1,439.7,101,415.2,100.6z"/>
</g>
</svg>
