<?xml version="1.0" encoding="utf-8"?>
<!-- Generator: Adobe Illustrator 26.1.0, SVG Export Plug-In . SVG Version: 6.00 Build 0)  -->
<svg version="1.1" id="Layer_1" xmlns="http://www.w3.org/2000/svg" xmlns:xlink="http://www.w3.org/1999/xlink" x="0px" y="0px"
	 viewBox="0 0 1056.6 202" style="enable-background:new 0 0 1056.6 202;" xml:space="preserve">
<g id="Livello_1_1_">
</g>
<g id="Layer_1_00000121280000816817959920000000882230360127541942_">
</g>
<g>
	<path style="fill:#FFFFFF;" d="M256.2,109.7c0-3.6,0.6-8.1,2-13.8c5.2-21.7,7.6-25.6,26.9-25.6c4.7,0,10.3,0.6,13.5,1.4L296.2,83
		c-5.8-0.4-8-0.6-9.4-0.6c-9.4,0-9,1.2-11.6,13.4c-0.9,4.6-1.7,7.6-1.7,9.6c0,3.4,2,3.9,7.5,3.9c2.9,0,7-0.2,10-0.6l-2.5,11.6
		c-3.4,0.7-9.3,1.2-14,1.2C262.1,121.5,256.2,118.5,256.2,109.7z"/>
	<path style="fill:#FFFFFF;" d="M295.5,113.6c0-2,0.7-5.6,1.4-9.1l4.4-20.7h15.5l-3.9,18.6c-0.5,2.3-0.9,4.6-0.9,5.5
		c0,1.4,0.5,1.5,1.7,1.5c2.8,0,3-0.4,4.2-6l4.2-19.6h15.5l-7.8,37.1h-15l0.6-4.1h-0.7c-3.1,3.9-7.2,4.7-10,4.7
		C297.5,121.5,295.5,118.8,295.5,113.6z M308.1,70h12l-2,9h-12L308.1,70z M324.4,70h11.9l-2,9h-11.9L324.4,70z"/>
	<path style="fill:#FFFFFF;" d="M337.9,111.8c0-2.7,0.4-5.9,1.2-9.4c2.3-11.3,4.1-19.2,19.6-19.2c4.9,0,9.2,0.4,13.2,1.3l-2.2,10
		c-1.7-0.2-4.9-0.4-7.5-0.4c-5.2,0-5.7,1.1-7.3,8.2c-0.6,2.5-0.9,4.3-0.9,5.5c0,2.3,1.2,2.7,4.7,2.7c2.3,0,5.6-0.2,8.1-0.5l-2.1,10
		c-3.9,0.9-7.8,1.4-11.5,1.4C341,121.5,337.9,117.8,337.9,111.8z"/>
	<path style="fill:#FFFFFF;" d="M371.8,112.2c0-2.7,0.3-5.9,1.1-9.8c2.8-13.7,4.2-19.2,20.9-19.2c13.1,0,16.5,2.1,16.5,8
		c0,2.8-1.1,7.6-1.9,11.2l-0.7,2.8h-20.2c-0.1,0.7-0.5,2.4-0.5,3c0,2.3,0.6,2.3,8.1,2.3c2.5,0,7.1-0.2,11.3-0.5l-2.1,10
		c-2.9,0.9-8.6,1.5-13.7,1.5C376,121.5,371.8,118.7,371.8,112.2z M395.1,99.1l0.2-1.2c0.3-1.7,0.5-2.5,0.5-3.3
		c0-1.5-0.7-1.5-2.6-1.5c-3.1,0-3.1,0.1-4.4,6H395.1z"/>
	<path style="fill:#FFFFFF;" d="M432.3,109.7c0-3.6,0.6-8.1,2-13.8c5.2-21.7,7.6-25.6,26.9-25.6c4.7,0,10.3,0.6,13.5,1.4L472.3,83
		c-5.8-0.4-8-0.6-9.4-0.6c-9.4,0-9,1.2-11.6,13.4c-0.9,4.6-1.7,7.6-1.7,9.6c0,3.4,2,3.9,7.5,3.9c2.9,0,7-0.2,10-0.6l-2.5,11.6
		c-3.4,0.7-9.3,1.2-14,1.2C438.2,121.5,432.3,118.5,432.3,109.7z"/>
	<path style="fill:#FFFFFF;" d="M477.5,83.8h15.8l-7.8,37.1h-15.8L477.5,83.8z M481,66.9h15.8l-2.3,11h-15.8L481,66.9z"/>
	<path style="fill:#FFFFFF;" d="M499.7,83.8h15l-0.6,4.1h0.7c3.1-3.9,7.2-4.7,10-4.7c7,0,9,2.5,9,7.6c0,2-0.6,5.6-1.3,9.1l-4.5,21
		h-15.5l3.9-18.6c0.5-2.3,0.9-4.6,0.9-5.5c0-1.4-0.5-1.5-1.7-1.5c-2.8,0-3,0.4-4.2,6l-4.2,19.5h-15.5L499.7,83.8z"/>
	<path style="fill:#FFFFFF;" d="M556.4,110.3c0-3.7,1.2-8.6,2.4-15.1c3.9-20.2,5.3-24.9,26.2-24.9c15.5,0,20.1,2.9,20.1,11.3
		c0,3.8-0.9,8.6-2.3,15c-4.7,20.3-5.4,24.9-26,24.9C561.1,121.5,556.4,118.5,556.4,110.3z M585.9,95.9c1.2-5.5,1.8-8.9,1.8-10.8
		c0-2.6-1.2-2.7-4.1-2.7c-5.1,0-5.2,0.3-7.9,13.4c-1.2,5.7-2,9-2,10.9c0,2.5,1.2,2.5,4.1,2.5C582.9,109.3,583.1,109,585.9,95.9z"/>
	<path style="fill:#FFFFFF;" d="M604.5,134.8l2-9.8h9.6c8,0,8.2,0,9.4-5.6c0.3-1.2,0.5-2.5,0.8-3.8h-0.7c-3.1,3.9-6.8,4.7-9.5,4.7
		c-7.2,0-9.4-2.8-9.4-7.8c0-1.9,0.3-4.1,0.9-6.6l4.7-22h15.6l-3.9,18.4c-0.5,2.4-0.8,3.9-0.8,4.7c0,1.3,0.6,1.3,2,1.3
		c2.5,0,2.7-0.1,4-6l3.9-18.4h15.6l-7,33.1c-2.6,12.4-3.6,19-23.8,19C613,135.8,607.4,135.4,604.5,134.8z"/>
	<path style="fill:#FFFFFF;" d="M649.3,113.6c0-2,0.7-5.6,1.4-9.1l4.4-20.7h15.5l-3.9,18.6c-0.5,2.3-0.9,4.6-0.9,5.5
		c0,1.4,0.5,1.5,1.7,1.5c2.8,0,3-0.4,4.2-6l4.2-19.6h15.5l-7.8,37.1h-15l0.6-4.1h-0.7c-3.1,3.9-7.2,4.7-10,4.7
		C651.3,121.5,649.3,118.8,649.3,113.6z"/>
	<path style="fill:#FFFFFF;" d="M697.9,83.8h15l-0.6,4.1h0.7c3.1-3.9,7.2-4.7,10-4.7c7,0,9,2.5,9,7.6c0,2-0.6,5.6-1.3,9.1l-4.5,21
		h-15.5l3.9-18.6c0.5-2.3,0.9-4.6,0.9-5.5c0-1.4-0.5-1.5-1.7-1.5c-2.8,0-3,0.4-4.2,6l-4.2,19.5h-15.5L697.9,83.8z"/>
	<path style="fill:#FFFFFF;" d="M744.2,66.9h15.8l-11.4,54h-15.8L744.2,66.9z"/>
	<path style="fill:#FFFFFF;" d="M756.6,112.7c0-2.6,0.3-6,1.2-10.2c3.1-15.1,7-19.2,14.4-19.2c4,0,7.7,0.5,9.6,4.2h0.7l1.2-3.7h15.1
		l-7.8,37.1h-15l0.7-4.1h-0.8c-2.6,3.9-6,4.7-9.3,4.7C759.8,121.5,756.6,119.5,756.6,112.7z M778.1,107.6c0.7-2,2.3-9,2.3-10.8
		c0-1.5-0.5-1.6-2.4-1.6c-3,0-3.1,0.1-4.6,7.1c-0.7,2.9-0.9,4.6-0.9,5.7c0,1.4,0.7,1.5,2.5,1.5C777,109.5,777.5,109.3,778.1,107.6z"
		/>
	<path style="fill:#FFFFFF;" d="M805.3,83.8h15l-1,6.2h0.7c3.2-5.5,5.9-6.8,12.6-6.8l-2.9,13.5c-9.7,0-12,1.8-14.1,11.7l-2.7,12.4
		h-15.5L805.3,83.8z"/>
	<path style="fill:#FFFFFF;" d="M837.2,83.8H853l-7.8,37.1h-15.8L837.2,83.8z"/>
</g>
<path style="fill:#FFFFFF;" d="M132.5,182.9c-0.7,0.6-1.2,1.1-1.9,1.6c-1.7,1.2-3.6,1.7-5.6,2c-3,0.5-6.1,0.5-9.2,0.5
	c-3,0-6,0-9-0.1c-2-0.1-4.1-0.3-6-1.2c-2.5-1.1-3.8-3.1-3.9-5.8c-0.3-3.6,1.4-6.3,4.3-8.2c1.8-1.2,3.8-1.9,5.8-2.4
	c0.5-0.1,0.6-0.3,0.6-0.8c0-2.2,0-4.5,0-6.7c0-0.5-0.1-0.7-0.6-0.8c-2.1-0.6-4.2-1.4-6-2.5c-0.7-0.5-1.4-1-2-1.5
	c-2.2-2.1-2.5-4.8-1.9-7.7c0.7-3,2.3-5.6,4.3-7.9c0.4-0.5,0.5-0.9,0.1-1.5c-1.3-2.4-1.7-5.1-1.6-7.8c0-0.3,0-0.7,0-1.1
	c-6.4,2.1-12.8,4.1-19.4,5.2c0,4.5,0,9,0,13.6c0.2,0,0.4,0,0.6,0c2.6,0,5.3,0,7.9,0c1.4,0,2.1,0.7,2.1,2.1c0,2.8,0.1,5.7-0.1,8.5
	c-0.4,5.3-1.3,10.6-3.4,15.5c-1.2,2.8-2.8,5.3-5,7.4c-1.8,1.7-3.9,2.9-6.2,3.7c-0.5,0.2-1,0.1-1.5,0c-4-1.3-6.9-3.9-9.2-7.3
	c-2.2-3.4-3.4-7.2-4.3-11.1c-1.1-5.1-1.4-10.3-1.3-15.6c0-0.5,0-1.1,0.1-1.6c0.1-1,0.8-1.6,1.8-1.6c2.7,0,5.4,0,8.1,0
	c0.6,0,0.7-0.2,0.7-0.7c0-3.7,0-7.3,0-11c0-0.4-0.1-0.7-0.5-0.8c-2.8-1.1-4.1-3-4.1-5.9c0-2.3,0.1-4.6,0.8-6.9
	c0.6-1.9,1.7-3.5,3.5-4.5c0.4-0.2,0.4-0.5,0.4-0.8c0-10,0-20,0-30.1c0-3.6,0-7.1,0-10.7c0-1.6,0.5-3,1.7-4.2
	c2.6-2.5,6.9-1.2,7.8,2.4c0.2,0.6,0.2,1.3,0.2,2c0,12.4,0,24.9,0,37.3c0,0.2,0,0.5,0,0.9c0.8-0.5,1.5-1,2.2-1.5
	c2.8-2.1,5.2-4.7,7.5-7.4c4-4.7,7.5-9.6,10.9-14.7c0.3-0.4,0.4-0.9,0.4-1.4c0.1-4.5,0.7-8.8,2.4-13c0.4-0.9,0.9-1.7,1.3-2.6
	c0.1-0.2,0.1-0.4,0.1-0.6c-1.6-2.9-0.7-7.4,3.2-9.5c0.7-0.4,0.8-0.7,0.9-1.4c0.6-10.1,2.4-19.9,6.5-29.2c2.9-6.7,6.8-12.8,12.2-17.8
	c1-0.9,2.1-1.8,3.2-2.6c1-0.7,1.6-0.7,2.6,0c3.8,2.7,6.8,6.1,9.5,9.9c3.4,4.9,6,10.2,7.9,15.8c1.8,5.3,3,10.6,3.7,16.1
	c0.3,2.8,0.6,5.6,0.8,8.5c0,0.4,0.2,0.5,0.5,0.7c2.2,1.2,3.7,2.9,4.1,5.5c0.2,1.4,0.1,2.8-0.5,4c-0.1,0.2-0.1,0.5,0,0.7
	c1.6,2.7,2.4,5.6,3,8.6c0.5,2.7,0.7,5.5,0.7,8.2c0,0.5,0.2,0.8,0.6,1.1c6.3,4.5,10.7,10.4,12.5,18c0.8,3.4,0.9,6.9,0.5,10.3
	c-0.3,3.1-1,6-2.4,8.8c-1.6,3.1-3.8,5.6-6.9,7.2c-1.1,0.6-2.3,1-3.6,1c-0.7,0-0.8,0.7-1,1.1c-0.1,0.1,0.1,0.5,0.3,0.7
	c1.9,2.4,3.6,4.9,4.3,7.9c0.3,1.3,0.5,2.7,0.2,4.1c-0.4,2.2-1.7,3.8-3.5,5.1c-2,1.3-4.2,2.2-6.5,2.8c-0.5,0.1-0.6,0.3-0.6,0.9
	c0,2.2,0,4.4,0,6.6c0,0.5,0.1,0.7,0.7,0.9c2.4,0.6,4.7,1.4,6.6,3c3,2.4,4.1,5.4,3.2,9.1c-0.5,2.2-1.9,3.6-4,4.4
	c-1.7,0.7-3.5,1-5.4,1.1c-4.8,0.1-9.6,0.1-14.4,0c-1.7,0-3.3-0.3-5-0.6C136.5,185.9,134.2,184.9,132.5,182.9z M117.1,115
	c0,0,0.1-0.1,0.1-0.1c-0.1-1.2-0.3-2.3-0.4-3.5c-0.1-2.2,0.1-4.3,0.5-6.5c0.2-0.9,1.1-1.5,2-1.4c0.9,0.2,1.6,1.1,1.5,2
	c-0.1,0.8-0.3,1.6-0.3,2.4c-0.3,2.9-0.1,5.7,0.9,8.5c0.7,1.9,1.6,3.8,3.4,5c2.3,1.7,4.8,3.1,7.2,4.7c0.3,0.2,0.6,0.2,0.9,0
	c1.9-1.2,3.9-2.4,5.8-3.6c1.3-0.8,2.4-1.8,3.2-3c2.2-3.3,2.8-6.9,2.5-10.7c-0.1-1.1-0.3-2.2-0.4-3.3c-0.1-1,0.6-1.8,1.5-2
	c0.9-0.1,1.8,0.5,2,1.5c0.4,2.4,0.6,4.9,0.4,7.4c-0.1,0.8-0.2,1.6-0.3,2.4c0.7-0.6,1.4-1.2,2-1.9c1.4-1.4,2.6-2.9,3.5-4.8
	c1-2.4,1.9-4.7,2.1-7.3c0.2-3.1-0.6-5.9-2.6-8.2c-0.3-0.3-0.4-0.9-0.4-1.3c0-0.7,0.5-1.2,1.2-1.4c0.7-0.2,1.4-0.1,1.9,0.5
	c1.7,1.8,2.7,4,3.2,6.5c0.1,0.6,0.2,1.3,0.3,1.9c0.6-1.4,1-2.7,1-4.2c0-2.1-0.1-4.2-0.2-6.2c-0.1-2.4-0.6-4.7-1.4-6.9
	c-0.4-1-0.8-2-1.2-3c-1,0.3-1.8,0.6-2.6,0.8c-0.3,0.1-0.5,0.3-0.6,0.6c-0.5,1.6-1,3.2-1.7,4.7c-2.1,4.7-5.3,8.7-9.7,11.5
	c-1.1,0.7-2.4,1-3.7,0.7c-1.3-0.3-2.5-0.8-3.8-1.3c-1.5-0.6-3-0.7-4.6,0c-0.9,0.4-1.8,0.7-2.7,1.1c-1.8,0.7-3.6,0.5-5.3-0.6
	c-2.3-1.5-4.2-3.4-5.9-5.5c-2.4-3.1-4.2-6.6-5.3-10.4c-0.1-0.2-0.2-0.5-0.4-0.5c-0.9-0.3-1.8-0.6-2.8-0.9c-0.4,1.1-1,2.3-1.4,3.5
	c-1.1,3.5-1.5,7.2-1.5,10.8c0,1.9,0.2,3.7,0.8,5.5c0.1,0.2,0.1,0.4,0.3,0.7c0.1-0.7,0.2-1.3,0.3-1.8c0.5-2.5,1.5-4.7,3.2-6.6
	c0.7-0.8,1.8-0.9,2.6-0.2c0.7,0.7,0.8,1.8,0.1,2.6c-1.7,2-2.4,4.3-2.5,6.8c-0.1,2.4,0.5,4.7,1.4,7c0.5,1.2,0.9,2.4,1.6,3.4
	C114,111.7,115.6,113.3,117.1,115z M140.6,140.1c5-0.7,10-1.8,14.6-4.5c1.5-0.9,2.9-2,4-3.4c1.4-1.8,2.2-3.7,2.3-6
	c0.1-2.9-0.1-5.7-0.5-8.6c-0.4-2.8-1.1-5.5-2.3-8c-0.2-0.4-0.5-0.9-0.7-1.3c-0.1,0.1-0.2,0.2-0.2,0.3c-4.8,6.9-10.8,12.6-17.7,17.3
	c-2.1,1.4-4.3,2.6-6.5,3.9c-0.7,0.5-1.5,0.4-2.2,0c-3.4-1.8-6.7-3.9-9.7-6.3c-4.7-3.7-9-7.8-12.7-12.5c-0.7-0.8-1.3-1.7-1.9-2.6
	c-0.1,0.2-0.3,0.4-0.4,0.6c-0.5,1.1-1.1,2.2-1.4,3.4c-1.5,4.7-1.9,9.6-1.7,14.5c0.1,1.9,0.9,3.6,2,5.1c1.6,2.2,3.9,3.7,6.3,4.8
	c2.8,1.3,5.8,2.2,8.8,2.8c1.3,0.3,2.6,0.5,3.9,0.7c0.1-0.3,0.1-0.6,0.2-0.8c0.5-2,2.6-3.6,4.4-3.6c2.1,0.1,4.2,0.1,6.3,0
	c1.6-0.1,2.9,0.5,3.8,1.7C139.8,138.3,140.1,139.2,140.6,140.1z M151,55.5c0-0.2,0-0.3,0-0.3c-0.5-2.5-0.9-5.1-1.6-7.6
	c-1.9-7.7-4.9-15-9.6-21.4c-2-2.8-4.3-5.3-7-7.4c-0.3-0.2-0.4-0.2-0.6,0c-2,1.6-3.7,3.3-5.3,5.3c-3.4,4-5.9,8.5-8,13.3
	c-2.1,5-3.5,10.1-4.5,15.4c-0.2,0.9-0.3,1.9-0.5,2.8c0.1,0,0.2,0,0.3,0c3.9-0.9,7.9-1.6,11.9-2.2c3.5-0.5,7-0.6,10.5-0.3
	c4.1,0.4,8.1,1.1,12.1,2C149.5,55.2,150.2,55.3,151,55.5z M132.4,64.1c-3.1,0.1-6.2,0.5-9.3,1.3c-3.7,0.9-7.4,2-11.1,3.1
	c-1.1,0.3-2.2,0.8-3,1.7c-1.5,1.7-1.1,4.2,1,5.1c0.7,0.3,1.5,0.5,2.2,0.6c1.3,0.1,1.8,0.5,2.1,1.8c0.6,2.7,1.6,5.3,3,7.7
	c1.8,3.1,4.1,5.7,7.2,7.6c0.5,0.3,1,0.5,1.5,0.3c0.8-0.3,1.7-0.6,2.5-0.9c2.7-1.2,5.4-1.3,8.1,0c0.7,0.3,1.4,0.6,2.2,0.8
	c0.7,0.3,1.4,0.2,2-0.3c1.3-1,2.6-2,3.7-3.2c3.2-3.4,5.1-7.5,6.2-12c0.3-1.1,0.8-1.6,2-1.7c0.9-0.1,1.8-0.4,2.6-0.7
	c1.3-0.6,1.8-1.8,1.5-3.3c-0.3-1.6-1.5-2.6-2.9-3.1c-4-1.4-8-2.5-12.1-3.4C138.6,64.6,135.6,64.1,132.4,64.1z M104.2,143.5
	c-1.7,2.1-3.1,4.3-3.7,7c-0.4,2,0.1,3.6,1.9,4.7c1.2,0.7,2.4,1.3,3.6,1.8c3.6,1.4,7.4,2.1,11.2,2.6c5.4,0.7,10.7,1,16.2,0.9
	c4.6,0,9.2-0.3,13.7-0.9c3.2-0.4,6.3-1,9.4-1.9c2.1-0.6,4.1-1.4,6-2.6c1.6-1.1,2.1-2.6,1.8-4.5c-0.3-1.6-1-3.1-1.9-4.5
	c-0.5-0.9-1.2-1.7-1.8-2.5c-0.1,0.1-0.2,0.1-0.2,0.1c-2.5,2.4-5.5,4-8.7,5.2c-3.7,1.4-7.6,2.1-11.5,2.7c-0.2,0-0.5,0.2-0.6,0.4
	c-1.1,1.9-2.6,2.9-4.8,2.9c-1.6,0-3.3,0-5,0c-2.2,0-3.8-1-4.9-2.9c-0.1-0.2-0.3-0.3-0.5-0.4c-1.5-0.3-3-0.5-4.5-0.8
	C114.3,149.5,108.7,147.7,104.2,143.5z M63.6,153.2c0,0.2,0,0.3,0,0.5c-0.1,4.5,0.2,8.9,1.1,13.3c0.7,3.6,1.8,7,3.6,10.1
	c1.6,2.7,3.7,4.8,6.6,6.1c0.5,0.2,0.8,0.2,1.3,0c2-0.8,3.7-2.1,5.1-3.8c2.1-2.5,3.3-5.4,4.3-8.4c0.9-3,1.5-6.1,1.7-9.2
	c0.2-2.6,0.2-5.3,0.3-8c0-0.2,0-0.3,0-0.5c-2.4,0-4.7,0-7.1,0c0,0.3,0,0.5,0,0.7c0,3,0,6.1,0,9.1c0,1.3-0.3,2.5-1.1,3.6
	c-1.8,2.3-5,2.6-7.1,0.5c-1.1-1.1-1.5-2.5-1.5-4.1c0-3.1,0-6.1,0-9.2c0-0.2,0-0.4,0-0.6C68.3,153.2,66,153.2,63.6,153.2z M102,98.2
	c-0.1,0.1-0.2,0.2-0.3,0.4c-1.3,1.8-2.6,3.6-3.9,5.4c-3.3,4.4-6.7,8.6-10.9,12.3c-1.8,1.6-3.8,3.1-6.1,4.1c-0.4,0.2-0.5,0.3-0.5,0.7
	c0,3.6,0,7.2,0,10.8c0,0.2,0,0.3,0,0.6c1-0.2,1.9-0.4,2.9-0.5c5.4-1.1,10.7-2.8,15.9-4.6c0.5-0.2,0.7-0.4,0.7-0.9
	c-0.1-4,0.1-7.9,0.9-11.8c0.7-3.3,1.8-6.5,3.9-9.3c0.1-0.1,0.1-0.4,0-0.6c-0.5-1-1-1.9-1.4-2.9C102.9,100.6,102.5,99.4,102,98.2z
	 M113.7,183.5c0-0.1,0-0.2,0-0.3c2.6,0,5.1,0,7.6,0c1.9,0,3.8-0.3,5.7-0.9c2-0.7,3.3-2,3.6-4.1c0.2-1.1,0.1-2-0.8-2.7
	c-0.7-0.6-1.5-1.3-2.3-1.8c-2-1.2-4.3-1.7-6.6-1.9c-3.9-0.4-7.7-0.2-11.6,0.5c-2.4,0.5-4.6,1.2-6.6,2.6c-1.2,0.9-2.1,2.1-2.2,3.6
	c-0.2,2.5,0.7,3.5,2.6,4.1c0.7,0.2,1.4,0.4,2,0.4C107.9,183.3,110.8,183.4,113.7,183.5z M151.2,183.4L151.2,183.4
	c2.2,0,4.5,0.1,6.7,0c1.3-0.1,2.7-0.3,4-0.6c1.6-0.4,2.4-1.4,2.5-2.8c0.2-2.2-0.6-3.8-2.4-5c-1.5-1.1-3.3-1.7-5.1-2.2
	c-4-1-8-1.3-12.1-0.9c-2.3,0.2-4.5,0.6-6.6,1.5c-1.5,0.7-2.9,1.5-3.8,3c-0.2,0.3-0.3,0.6-0.3,0.9c0.1,2.8,1.1,4.4,3.7,5.2
	c0.3,0.1,0.6,0.2,0.9,0.3c2.2,0.6,4.5,0.7,6.8,0.7C147.5,183.4,149.4,183.4,151.2,183.4z M164.9,135.5
	C164.9,135.5,165,135.5,164.9,135.5c0.4-0.1,0.7-0.2,0.9-0.3c2.3-1.1,4-2.8,5.2-5c1.3-2.3,2-4.8,2.3-7.4c0.4-3.3,0.4-6.5-0.3-9.8
	c-1.3-5.7-4.3-10.3-8.6-14.1c-0.5-0.4-1-0.8-1.5-1.2c-0.1,0.1-0.1,0.1-0.1,0.1c-0.6,2.5-1.6,4.8-2.8,7c-0.1,0.1,0,0.4,0.1,0.6
	c1.4,1.8,2.4,3.9,3,6.1c1.5,4.9,2,10,1.8,15.2c0,1-0.1,2-0.1,3c0,0.9,0.1,1.9,0.1,2.8C165,133.5,164.9,134.5,164.9,135.5z
	 M112.9,64.4c0.3-0.1,0.4-0.1,0.6-0.2c3.9-1.2,7.9-2.2,11.9-3c4.9-0.9,9.9-0.9,14.8,0.1c3.6,0.8,7.2,1.8,10.8,2.7
	c0.3,0.1,0.6,0.2,1,0.3c0-0.2,0-0.3,0-0.4c-0.1-1.4-0.3-2.8-0.4-4.1c0-0.4-0.1-0.5-0.5-0.7c-4.5-1.1-9-1.9-13.6-2.5
	c-3.6-0.4-7.1-0.4-10.7,0.1c-4.1,0.5-8.2,1.3-12.3,2.2c-1.2,0.3-1.2,0.3-1.3,1.5c0,0.1,0,0.1,0,0.2C113.1,61.9,113,63.1,112.9,64.4z
	 M76.9,121.6c0,0,0-0.2,0-0.4c0-1.1,0-2.2,0-3.3c0-8,0-15.9,0-23.9c0-5.2,0-10.4,0-15.6c0-0.5-0.1-1-0.3-1.4c-0.5-0.9-1.5-0.9-2,0
	c-0.2,0.3-0.3,0.8-0.3,1.2c0,13.5,0,27,0,40.5c0,0.1,0,0.2,0,0.3c0.1,0.2,0.1,0.4,0.2,0.5C75.3,120.2,76.1,120.9,76.9,121.6z
	 M111.2,162c0,2.2,0,4.3,0,6.4c0.2,0,0.4,0,0.5,0c3.5-0.4,6.9-0.5,10.4,0c2.9,0.4,5.7,1.2,8.2,2.9c0.1,0.1,0.2,0.1,0.3,0.1
	c0-2.5,0-5,0-7.5C124.1,163.8,117.6,163.3,111.2,162z M134.3,171.5c1.8-1.3,3.7-2,5.8-2.6c3.9-1,7.9-1,11.9-0.7
	c0.6,0.1,1.2,0.1,1.8,0.2c0-2.2,0-4.3,0-6.4c-6.4,1.3-12.9,1.8-19.4,1.9C134.3,166.5,134.3,168.9,134.3,171.5z M128.1,145
	c0,1.4,0,2.9,0,4.4c0,1,0.7,1.8,1.7,1.8c1.8,0,3.6,0,5.3,0c0.9,0,1.6-0.6,1.6-1.5c0.1-1.1,0.1-2.2,0.1-3.3c0-1.8,0-3.7,0-5.5
	c0-1.1-0.4-1.5-1.5-1.5c-2,0-3.9,0-5.9,0c-1,0-1.4,0.4-1.4,1.4C128.1,142.2,128.1,143.6,128.1,145z M103.8,135.5
	c0.1,1,0.7,2.5,1.5,3.7c1.6,2.3,3.8,3.9,6.3,5.1c2.9,1.4,5.9,2.3,9,2.9c1.3,0.3,2.6,0.5,3.9,0.7c0-0.1,0.1-0.2,0.1-0.3
	c0-1.2,0-2.3,0-3.5c0-0.3-0.2-0.3-0.4-0.4c-2.8-0.6-5.6-1-8.4-1.7c-3.6-1-7.1-2.5-10.1-4.8C105,136.6,104.4,136,103.8,135.5z
	 M161.2,135.6c-0.1,0-0.1,0-0.1-0.1c-0.1,0-0.1,0.1-0.2,0.1c-2.3,2.3-5.1,3.9-8.1,5.1c-3.8,1.5-7.8,2.4-11.9,2.9
	c-0.4,0.1-0.5,0.2-0.5,0.5c0,0.7,0,1.5,0,2.2c0,0.5,0,0.9,0,1.5c1.7-0.3,3.4-0.6,4.9-0.9c3.4-0.7,6.7-1.8,9.7-3.6
	c2.4-1.4,4.3-3.2,5.5-5.8C160.7,136.9,160.9,136.2,161.2,135.6z M76.9,134.4c-0.8,1-1.6,1.8-2.3,2.7c-0.1,0.2-0.3,0.4-0.3,0.6
	c0,8.6,0,17.1,0,25.6c0,0.4,0.1,0.8,0.3,1.1c0.5,0.8,1.4,0.8,1.8,0c0.3-0.4,0.4-1,0.4-1.5c0-4.2,0-8.4,0-12.7c0-4.9,0-9.8,0-14.7
	C76.9,135.2,76.9,134.9,76.9,134.4z M69.6,130.5c0.1,0,0.1,0,0.1,0c0,0.2,0,0.4,0,0.5c0,1.7,0.5,2.3,2,2.9c0.5,0.2,0.9,0.1,1.2-0.4
	c0.2-0.3,0.4-0.5,0.6-0.8c0.9-1.3,1.6-2.7,1.7-4.3c0.2-2.3-0.8-4.1-2.4-5.6c-0.1-0.1-0.4-0.1-0.5-0.1c-1.2,0.5-1.9,1.5-2.1,2.8
	C70,127.2,69.8,128.9,69.6,130.5z"/>
<path style="fill:#FFFFFF;" d="M132.5,88.6c-2.7-0.2-5.1-1.2-7-3.2c-0.7-0.7-0.6-1.8,0.1-2.5c0.7-0.7,1.8-0.7,2.5,0
	c1.2,1.1,2.6,1.9,4.2,2c0.5,0.1,1.1-0.1,1.7-0.2c1.2-0.3,2.1-0.9,3-1.7c0.8-0.8,1.9-0.8,2.6-0.1c0.7,0.8,0.7,1.8-0.2,2.6
	C137.5,87.4,135.2,88.4,132.5,88.6z"/>
<path style="fill:#FFFFFF;" d="M123.8,69c1.6,0,3,0.5,4.1,1.6c0.8,0.8,0.9,1.8,0.2,2.6c-0.7,0.7-1.8,0.7-2.6,0
	c-1.1-1-2.3-0.9-3.5,0.1c-0.7,0.6-1.5,0.7-2.2,0.2c-0.7-0.5-1-1.4-0.6-2.1c0.2-0.4,0.5-0.8,0.9-1.1C121.1,69.4,122.4,69,123.8,69z"
	/>
<path style="fill:#FFFFFF;" d="M146.2,72c-0.1,0.8-0.5,1.4-1.2,1.7c-0.7,0.3-1.4,0.2-1.9-0.3c-0.9-0.8-1.8-1-2.9-0.5
	c-0.3,0.1-0.5,0.3-0.7,0.5c-0.8,0.7-1.8,0.6-2.5-0.1c-0.7-0.7-0.6-1.7,0.1-2.5c2.2-2.3,6.3-2.3,8.5,0.1
	C145.9,71.1,146,71.6,146.2,72z"/>
</svg>
