<?xml version="1.0" encoding="UTF-8"?> <svg xmlns="http://www.w3.org/2000/svg" xmlns:xlink="http://www.w3.org/1999/xlink" version="1.1" id="Layer_1" x="0px" y="0px" viewBox="0 0 100 100" style="enable-background:new 0 0 100 100;" xml:space="preserve"> <path style="fill:#FFFFFF;" d="M3.4,48.2c0.1-0.1,0.2-0.2,0.2-0.4c0.1-0.3,0.2-0.6,0.2-0.9c0-0.8,0.1-1.6,0.1-2.4 c0-2.1,0.7-3.9,2.1-5.5c1-1.1,2.3-1.8,3.7-2.3c1.4-0.4,2.8-0.5,4.3-0.4c1.1,0.1,2.2,0.3,3.2,0.7c0.7,0.3,1.3,0.8,1.8,1.4 c0.4,0.6,0.5,1.2,0.3,1.9c-0.1,0.4-0.3,0.6-0.6,0.9c-0.1,0.1-0.2,0.1-0.2,0.1c-0.2,0-0.3,0.1-0.5,0.1c-0.4,0.2-0.9,0.2-1.3,0.2 c0-0.1,0-0.2,0-0.3c-0.1,0-0.1,0-0.2-0.1c0-0.6-0.4-0.8-0.8-1.1c-0.6-0.3-1.3-0.5-1.9-0.6c-0.9-0.2-1.8-0.1-2.6,0.2 c-1.4,0.5-2.3,1.6-2.8,3c-0.3,1-0.5,2-0.5,3c0,0.6,0.2,1.1,0.7,1.5c0,0,0,0,0,0c0.4,0.3,0.4,0.3,0.2,0.7c-0.3,0.5-0.3,1.1-0.1,1.6 c0.1,0.5,0.3,1,0.6,1.4c0.5,0.8,1.3,1.3,2.2,1.6c0.8,0.2,1.6,0.2,2.4,0.1c0.8-0.2,1.5-0.4,2.3-0.8c0.1,0,0.2-0.1,0.3-0.2 c0.2-0.1,0.3-0.3,0.3-0.6c-0.2-0.8-0.3-1.6-0.5-2.3c-0.2-0.8-0.7-1.4-1.5-1.8c-0.1,0-0.2-0.1-0.3-0.1c-0.1-0.1-0.2-0.2-0.2-0.4 c0-0.2,0.1-0.2,0.3-0.3c0.4-0.1,0.8-0.1,1.1-0.2c1.1-0.2,2.2-0.6,3.3-1c0.1-0.1,0.3-0.1,0.4-0.2c0.1-0.1,0.3-0.1,0.4,0 c0.1,0.1,0.1,0.2,0.1,0.4c-0.2,1.1-0.3,2.2-0.2,3.3c0,0.7,0.1,1.5,0.2,2.2c0,0.1,0,0.1,0,0.2c-0.1,0-0.2,0-0.3,0.1 c0.1,0.8,0.3,1.5,0.6,2.3c0.3,0.7,0.6,1.4,1.1,2.1c-1.2,0.2-2.4,0.4-3.7,0.6c0-0.2,0-0.3,0-0.4c0-0.7-0.4-1-1.1-0.9 c-1,0.2-2.1,0.5-3.1,0.7c-0.9,0.2-1.8,0.2-2.7,0.1c-0.7,0-1.5-0.2-2.1-0.4c-1.4-0.5-2.5-1.5-3.2-2.8C5.2,52,5,51.5,4.8,51.1 c-0.1,0-0.2,0-0.3,0c-0.1-0.3-0.2-0.7-0.3-1c-0.1-0.5-0.2-0.9-0.5-1.3c-0.1-0.1-0.2-0.1-0.2-0.2C3.4,48.4,3.4,48.3,3.4,48.2z M19.4,45.3c-0.3,0.1-0.5,0.2-0.8,0.3c0,0,0,0,0,0c0.2,0,0.5,0,0.7,0C19.4,45.5,19.4,45.4,19.4,45.3z"></path> <path style="fill:#FFFFFF;" d="M49.7,26.1c0.1,0,0.2,0.1,0.3,0.1c0.8,0.2,1.3,0.7,1.4,1.5c0.1,0.8-0.1,1.5-0.8,2c0,0,0,0-0.1,0.1 c0.1,0.4,0.1,0.9,0.2,1.3c0.1,0.8,0.3,1.5,0.4,2.3c0,0.3,0,0.5,0,0.8c-0.4,0.1-0.7,0.1-1.1,0.1c-0.5,0-1,0-1.5,0c-0.2,0-0.4,0-0.6,0 c-0.3,0-0.4-0.1-0.4-0.4c0-0.3,0-0.6,0.1-0.8c0-0.3,0.1-0.5,0.1-0.8c0.1-0.4,0.2-0.9,0.3-1.3c0.1-0.4,0.1-0.7,0.2-1.1 c-0.2-0.2-0.4-0.5-0.6-0.7c-0.8-1.2-0.2-2.7,1.2-3.1c0,0,0.1,0,0.1-0.1C49.2,26.1,49.4,26.1,49.7,26.1z"></path> <path style="fill:#FFFFFF;" d="M42.5,74.9c0,0-0.1,0-0.1-0.1c-0.4-0.1-0.5-0.3-0.4-0.7c0.1-0.3,0.3-0.5,0.5-0.7 c0.3-0.2,0.7-0.4,1-0.5c0.2,0,0.3-0.1,0.3-0.3c0.7-1.6,1.3-3.2,1.9-4.8c0.5-1.4,0.9-2.7,1.1-4.1c0-0.2,0.1-0.4,0.2-0.7 c0-0.1,0.1-0.1,0.1-0.2c0.2-0.3,0.4-0.4,0.6-0.3c0.2,0.1,0.4,0.2,0.4,0.5c0,0.4,0,0.7-0.1,1.1c-0.2,1-0.6,2-0.9,3 c-0.6,1.8-1.4,3.5-2.2,5.2c0,0,0,0.1-0.1,0.2c0.3,0,0.7-0.1,1-0.1c1.1-0.1,2.2-0.2,3.2,0.2c0.4,0.1,0.8,0.3,1.1,0.6 c0.1,0.1,0.3,0.2,0.2,0.5c-0.1,0.1-0.3,0-0.4,0c-0.6-0.1-1.2-0.3-1.7-0.4c-1.2-0.2-2.4-0.1-3.5,0.2c-0.1,0-0.2,0.1-0.3,0.2 c-0.1,0.1-0.2,0.2-0.4,0.4c-0.4,0.4-0.8,0.6-1.3,0.7C42.7,74.9,42.6,74.9,42.5,74.9z M43.5,73.5c-0.3,0-0.6,0.2-0.8,0.4 c-0.1,0.1-0.1,0.1-0.2,0.2c0,0,0,0.1,0,0.2c0,0,0.1,0,0.2,0C43,74.2,43.3,73.9,43.5,73.5z"></path> <path style="fill:#FFFFFF;" d="M48.6,43.6c0-0.8,0-1.6,0-2.4c0-0.4-0.1-0.9-0.4-1.2c-0.1-0.1-0.1-0.1-0.1-0.2 c-0.2-0.3-0.1-0.6,0.3-0.6c0.7,0,1.5,0,2.2,0c0.5,0,1,0,1.5,0c0.1,0,0.2,0,0.3,0c0.2,0,0.4,0.3,0.3,0.5c-0.3,0.6-0.3,1.2-0.3,1.8 c0,1.5,0,2.9,0,4.4c0,0.2,0,0.4,0,0.5c0,0.2,0.1,0.4,0.3,0.5c0.2,0.2,0.2,0.3,0,0.5c-0.2,0.2-0.3,0.5-0.3,0.8c0,1,0,2,0,3 c0,0.2,0,0.5,0,0.7c0,0.1,0.1,0.3,0.2,0.4c0.2,0.3,0,0.5-0.3,0.5c-0.2,0-0.3,0-0.5,0c-0.9,0-1.7,0-2.6,0c0,0-0.1,0-0.1,0 c-0.3,0-0.5-0.2-0.3-0.5c0.2-0.4,0.2-0.7,0.2-1.1c0-0.3-0.1-0.5-0.3-0.7c-0.4-0.3-0.7-0.7-1.1-1c-1.2-1-2.4-1.9-3.6-2.9 c-0.2-0.2-0.4-0.3-0.5-0.5c-0.1-0.1-0.2-0.2-0.3-0.1c-0.2,0-0.2,0.2-0.2,0.3c0,0.8,0,1.7,0,2.5c0,0.6,0,1.3,0,1.9 c0,0.3,0,0.6,0.1,0.9c0,0.3,0.1,0.5,0.3,0.7c0.2,0.4,0.1,0.6-0.3,0.6c-1.2,0-2.3,0.1-3.5,0.1c-0.1,0-0.2,0-0.3,0 c-0.2,0-0.4-0.3-0.2-0.4c0.3-0.5,0.3-1,0.3-1.5c0-0.5,0-1,0-1.6c0-0.5,0-1,0-1.5c0-0.2-0.1-0.3-0.2-0.5c-0.2-0.3-0.2-0.4,0-0.7 c0.2-0.2,0.2-0.5,0.2-0.8c0-1.3,0-2.5,0-3.8c0-0.5-0.1-1-0.1-1.6c0-0.3-0.2-0.5-0.4-0.7c-0.1-0.1-0.2-0.2-0.4-0.3 C38,39.8,38,39.7,38,39.5c0.1-0.1,0.2-0.2,0.3-0.2c0.4,0,0.7,0,1.1,0c1,0,2-0.1,3-0.1c0.1,0,0.2,0,0.3,0c0.3,0,0.4,0.2,0.3,0.5 c0,0,0,0.1,0,0.1c-0.4,0.7-0.2,1.3,0.2,1.8c0.3,0.4,0.7,0.8,1,1.2c1.1,1.1,2.3,2.2,3.4,3.2c0.1,0.1,0.2,0.2,0.2,0.3 c0.1,0.1,0.1,0.1,0.2,0.2c0.1,0.1,0.2,0,0.3-0.1c0-0.1,0-0.3,0-0.4C48.5,45.1,48.5,44.4,48.6,43.6C48.5,43.6,48.6,43.6,48.6,43.6z"></path> <path style="fill:#FFFFFF;" d="M80.6,46.1c0,0.4-0.1,0.8-0.1,1.2c0,0.3,0,0.6,0.1,0.8c0,0.1,0.1,0.2,0.2,0.4c0.2,0.2,0.2,0.3,0,0.6 c-0.2,0.2-0.3,0.4-0.3,0.6c-0.2,0.9-0.4,1.7-0.8,2.6c-0.2,0.5-0.6,0.9-1.1,1.2c-0.7,0.5-1.5,0.8-2.4,0.9c-0.5,0-0.9,0.1-1.4,0.1 c-1.1,0-2.3-0.2-3.3-0.5c-0.6-0.2-1.2-0.4-1.7-0.8c-0.6-0.4-1-0.8-1.4-1.3c-0.1-0.2-0.2-0.4-0.3-0.6c-0.4-0.8-0.5-1.7-0.5-2.6 c0-0.2-0.1-0.5-0.2-0.6c-0.2-0.3-0.2-0.4,0-0.6c0.2-0.2,0.3-0.5,0.3-0.8c0-0.7,0-1.4,0.1-2.1c0-0.6,0.2-1.2,0.4-1.7 c0.5-1.3,1.5-2.1,2.7-2.6c0.4-0.2,0.9-0.2,1.3-0.3c1.5-0.3,2.9-0.2,4.4,0.2c0.5,0.1,1,0.3,1.5,0.5c0.9,0.5,1.7,1.1,2.1,2.1 c0.2,0.4,0.3,0.9,0.4,1.3C80.6,44.7,80.7,45.4,80.6,46.1z M71.2,47.7C71.2,47.7,71.2,47.7,71.2,47.7c0,0.4,0,0.7,0,1.1 c0,0.7,0.2,1.3,0.4,1.9c0.2,0.4,0.5,0.7,0.9,0.9c0.8,0.4,1.7,0.6,2.6,0.3c0.7-0.2,1.2-0.6,1.4-1.3c0.3-0.9,0.4-1.9,0.4-2.8 c0.1-1.2,0.1-2.4-0.1-3.6c-0.1-0.8-0.5-1.3-1.2-1.6c-0.9-0.4-1.8-0.5-2.7-0.2c-0.7,0.2-1.2,0.6-1.4,1.3c-0.1,0.6-0.3,1.1-0.3,1.7 C71.3,46.2,71.2,47,71.2,47.7z"></path> <path style="fill:#FFFFFF;" d="M29.2,54c-0.9,0-1.7-0.1-2.4-0.3c-1-0.2-1.8-0.8-2.5-1.5c-0.2-0.2-0.4-0.6-0.5-0.9 c-0.3-0.7-0.5-1.4-0.5-2.2c0-0.3-0.1-0.5-0.3-0.7c-0.2-0.2-0.2-0.3,0-0.6c0.2-0.3,0.3-0.6,0.2-0.9c0-0.5,0-1.1,0-1.6 c-0.1-1,0.1-1.9,0.5-2.8c0.3-0.7,0.7-1.3,1.3-1.8c0.6-0.5,1.2-0.9,2-1.1c0.7-0.2,1.3-0.4,2-0.4c1-0.1,2,0,3,0.2 c0.8,0.2,1.5,0.4,2.2,0.8c0.8,0.5,1.3,1.1,1.6,2c0.3,0.9,0.4,1.8,0.5,2.7c0,0.5,0,0.9,0.1,1.4c0,0.2,0.1,0.4,0.3,0.6 c0.2,0.2,0.2,0.3,0,0.6c-0.2,0.2-0.2,0.4-0.3,0.7c-0.1,0.8-0.3,1.5-0.5,2.3c-0.2,0.7-0.7,1.2-1.2,1.6c-0.6,0.6-1.4,0.9-2.2,1.1 c-0.7,0.2-1.4,0.4-2.1,0.5C29.8,54,29.5,54,29.2,54z M26.8,46.5c0,0.5,0,1.2,0.1,1.8c0,0.7,0.1,1.4,0.4,2c0.2,0.5,0.6,0.9,1.2,1 c0.1,0,0.2,0,0.3,0.1c0.9,0.2,1.8,0.1,2.6-0.4c0.5-0.3,0.8-0.7,0.9-1.3c0.2-0.8,0.2-1.6,0.2-2.4c0-1.3,0-2.6-0.3-3.8 c-0.2-0.7-0.6-1.2-1.3-1.4c-0.5-0.2-1.1-0.2-1.6-0.2c-0.5,0-1,0.2-1.4,0.5c-0.5,0.3-0.7,0.7-0.9,1.2C26.8,44.5,26.8,45.4,26.8,46.5z "></path> <path style="fill:#FFFFFF;" d="M61.7,42.2C61.6,42,61.4,42,61.3,42c-1.2,0-2.5-0.1-3.7-0.1c-0.3,0-0.7,0-1,0.1c-0.4,0-0.7,0.2-1,0.4 c0,0,0,0-0.1,0c-0.3,0.2-0.6,0-0.6-0.3c0-0.3,0-0.6,0-1c0-0.5,0-1-0.1-1.4c0-0.4,0.1-0.6,0.5-0.5c0.5,0,0.9,0.1,1.4,0.1 c1.2,0.1,2.4,0.2,3.6,0.3c1.3,0.1,2.5,0.1,3.8,0.1c0.9,0,1.8-0.1,2.7-0.1c0.2,0,0.3,0,0.4,0.2c0.1,0.1,0.1,0.3-0.1,0.4 c-0.8,0.8-1.4,1.7-2,2.6c-0.8,1.1-1.5,2.2-2.3,3.3c-0.2,0.3-0.3,0.6-0.2,1c0,0.2,0,0.3-0.2,0.4c-0.5,0.3-0.9,0.7-1.3,1.3 c-0.3,0.4-0.6,0.9-0.9,1.3c-0.1,0.1-0.1,0.2-0.2,0.4c0.1,0.1,0.2,0.1,0.3,0.2c0.8,0.2,1.5,0.5,2.3,0.7c0.6,0.2,1.3,0.3,2,0.2 c0.4,0,0.8-0.2,1.1-0.6c0.2-0.2,0.4-0.3,0.6,0c0.1,0.2,0.3,0.4,0.3,0.7c0.2,1-0.1,1.9-1.2,2.2C64.7,54,64,54,63.3,53.9 c-1.1-0.1-2.1-0.4-3.2-0.7c-1.3-0.4-2.5-0.6-3.8-0.7c-0.5,0-0.9,0-1.4,0c-0.2,0-0.4,0-0.4-0.2c-0.1-0.1,0-0.3,0.1-0.4 c0.5-0.4,0.9-0.9,1.3-1.5c0.5-0.8,1.1-1.6,1.6-2.4c0.1-0.1,0.2-0.3,0.2-0.4c0.1-0.2,0.1-0.3,0.1-0.5c-0.1-0.2,0-0.3,0.2-0.5 c0.5-0.3,0.9-0.8,1.3-1.3c0.7-1,1.5-2,2.2-2.9C61.5,42.4,61.6,42.3,61.7,42.2z"></path> <path style="fill:#FFFFFF;" d="M90.1,56.5c-1.6,0-3-0.3-4.3-1c-0.8-0.5-1.6-1.1-2-1.9c-0.4-0.8-0.5-1.6-0.1-2.4 c0.5-1,1.8-1.3,2.6-1.1c0.3,0.1,0.4,0.3,0.2,0.5c-0.3,0.5-0.2,1,0.1,1.4c0.4,0.7,1.1,1.1,1.8,1.4c0.6,0.2,1.2,0.2,1.9,0 c0.5-0.2,0.8-0.5,0.9-1c0.1-0.4,0.1-0.8-0.1-1.2c-0.2-0.4-0.5-0.6-0.9-0.6c-0.2,0-0.4-0.1-0.5-0.3c-0.1-0.2-0.2-0.4-0.3-0.5 c-0.3-0.3-0.6-0.5-0.9-0.7c-0.6-0.4-1.2-0.8-1.8-1.3c-0.7-0.5-1.2-1.2-1.4-2c-0.3-0.9-0.2-1.8,0.3-2.7c0.7-1.1,1.7-1.7,3-1.9 c1.2-0.2,2.4,0,3.5,0.4c0.8,0.3,1.6,0.7,2.4,1.2c0.3,0.2,0.3,0.5,0.1,0.7c-0.5,0.5-0.9,1.1-1.3,1.7c-0.1,0.1-0.1,0.2-0.2,0.3 c-0.1,0.1-0.2,0.2-0.4,0.2c-0.2,0-0.3-0.1-0.3-0.3c-0.1-0.2-0.1-0.3-0.2-0.5c-0.1-0.3-0.3-0.5-0.6-0.7c-0.5-0.3-1.1-0.6-1.7-0.7 c-0.7,0-1.2,0.3-1.5,0.9c-0.3,0.6-0.2,1.3,0.3,1.8c0.8,0.8,1.8,1.4,2.8,1.9c0.2,0.1,0.5,0.2,0.8,0.3c0.2,0,0.3,0.1,0.3,0.3 c0.1,0.5,0.5,0.9,0.8,1.3c1.3,1.6,1.2,3.7,0.1,5.1c-0.7,0.9-1.6,1.3-2.6,1.5C90.7,56.5,90.3,56.5,90.1,56.5z"></path> <path style="fill:#FFFFFF;" d="M63.3,64.4c0-0.1,0-0.2,0-0.3c0.1-0.3,0.2-0.7,0.2-1c0.1-0.9,0.1-1.9,0.2-2.9c0-0.2,0.1-0.5,0.1-0.7 c0-0.3,0-0.5,0-0.8c0-0.1,0-0.2,0-0.4c0.2,0,0.3,0,0.4,0c0.4,0,0.8,0.1,1.2,0.1c0.2,0,0.2,0.1,0.3,0.2c0.2,0.8,0.4,1.6,0.6,2.3 c0,0,0,0.1,0.1,0.1c0.4-0.8,0.7-1.7,1.2-2.4c0.6,0.1,1.2,0.1,1.7,0.2c0,0,0,0.1,0,0.1c-0.2,0.4-0.2,0.9-0.2,1.4 c-0.1,1.1-0.3,2.3-0.4,3.4c0,0.2,0,0.5,0,0.8c0,0.2,0,0.3-0.3,0.3c-0.4,0-0.7-0.1-1.1-0.1c-0.2,0-0.3-0.1-0.2-0.3 c0.2-0.5,0.2-1.1,0.3-1.6c0.1-0.6,0.1-1.2,0.2-1.8c-0.1,0.1-0.1,0.1-0.1,0.2c-0.4,0.9-0.9,1.8-1.3,2.8c-0.1,0.1-0.1,0.3-0.2,0.3 c-0.2,0-0.2-0.2-0.2-0.3C65.5,63,65.3,62,65,61c0-0.1,0-0.1-0.1-0.2c0,0.5-0.1,1.1-0.1,1.6c0,0.3,0,0.6-0.1,0.9c0,0.3,0,0.6,0,0.9 c0,0.2,0,0.3-0.2,0.3C64.1,64.4,63.8,64.4,63.3,64.4z"></path> <path style="fill:#FFFFFF;" d="M52.3,63.8c-0.5,0-1,0-1.6,0c0-0.1,0-0.2,0-0.4c0-0.2,0.1-0.4,0.1-0.6c0-1.2,0-2.4,0.1-3.6 c0-0.4,0-0.9-0.1-1.3c0,0,0-0.1,0-0.1c0,0,0.1,0,0.1,0c0.9,0,1.9,0,2.8,0c0.2,0,0.3,0.1,0.5,0.2c0.2,0.2,0.4,0.4,0.5,0.7 c0.1,0.2,0.2,0.3,0.2,0.5c0,0.4,0,0.8,0,1.2c0,0.1,0,0.3-0.1,0.4c-0.2,0.2-0.3,0.3-0.5,0.5c-0.1,0.1-0.1,0.2-0.1,0.3 c0.2,0.6,0.3,1.3,0.6,1.9c0.1,0.1,0.1,0.2,0.1,0.4c-0.2,0-0.3,0-0.4,0c-0.3,0-0.6,0-0.9,0c-0.3,0-0.3,0-0.3-0.3 c-0.1-0.5-0.2-0.9-0.4-1.4c-0.1-0.4-0.2-0.4-0.6-0.4c-0.2,0-0.2,0.1-0.2,0.2c0,0.5-0.1,1,0.1,1.5C52.3,63.6,52.3,63.7,52.3,63.8z M52.6,59.1C52.6,59.1,52.6,59.1,52.6,59.1C52.6,59.1,52.6,59.1,52.6,59.1c-0.4,0-0.4,0-0.5,0.3c0,0.2,0,0.3,0,0.5 c0,0.6,0.1,0.6,0.7,0.6c0.4,0,0.6-0.3,0.6-0.6c0-0.4-0.2-0.6-0.6-0.7C52.8,59.1,52.7,59.1,52.6,59.1z"></path> <path style="fill:#FFFFFF;" d="M27.7,64.9c-0.5,0.1-0.9,0.1-1.3,0.2c0-0.1-0.1-0.1-0.1-0.2c-0.2-0.5-0.4-0.9-0.6-1.4 c-0.1-0.3-0.6-0.4-0.9-0.2c-0.1,0.1-0.1,0.2-0.1,0.3c0.1,0.5,0.1,1.1,0.3,1.5c0,0,0,0,0,0.1c-0.4,0.1-0.8,0.1-1.3,0.2 c0-0.1,0-0.2,0-0.2c0.1-0.4,0-0.7-0.1-1c-0.2-0.6-0.2-1.2-0.4-1.8c-0.1-0.6-0.2-1.2-0.3-1.8c0-0.2-0.1-0.4-0.2-0.6 c-0.1-0.3-0.1-0.3,0.2-0.4c0.6-0.1,1.1-0.2,1.7-0.2c0.4,0,0.7-0.1,1.1-0.1c0.1,0,0.2,0,0.3,0.1c0.3,0.2,0.5,0.4,0.8,0.7 c0.1,0.1,0.1,0.2,0.2,0.3c0.1,0.4,0.1,0.8,0.2,1.2c0,0.2,0,0.4-0.1,0.5c-0.1,0.2-0.2,0.3-0.3,0.5c-0.1,0.1-0.1,0.2,0,0.3 c0.1,0.2,0.2,0.5,0.3,0.7c0.1,0.2,0.2,0.3,0.1,0.6c0,0.1,0.1,0.2,0.2,0.3C27.5,64.6,27.6,64.8,27.7,64.9z M25.1,60.6 c-0.1,0-0.3,0-0.4,0.1c-0.1,0-0.2,0.1-0.2,0.3c0,0.3,0.1,0.6,0.1,0.8c0,0.2,0.1,0.2,0.3,0.2c0.1,0,0.2,0,0.3,0 c0.4-0.1,0.6-0.4,0.6-0.7C25.8,61,25.5,60.6,25.1,60.6z"></path> <path style="fill:#FFFFFF;" d="M72.1,59.2c0.6,0.1,1.3,0.2,1.9,0.3c0.2,0,0.3,0.1,0.2,0.3c-0.1,0.2-0.1,0.5-0.1,0.7 c0.1,1,0.1,2.1,0.2,3.1c0.1,0.6,0,1.2,0.2,1.8c0.1,0.2,0,0.3-0.2,0.2c-0.4,0-0.8-0.1-1.2-0.2c-0.2,0-0.2-0.1-0.2-0.3 c0.1-0.3,0.1-0.5,0.1-0.8c0-0.1-0.1-0.2-0.2-0.2c-0.3,0-0.7-0.1-1-0.1c-0.1,0-0.2,0.1-0.2,0.2c-0.1,0.2-0.2,0.5-0.2,0.8 c0,0.3,0,0.3-0.3,0.3c-0.3,0-0.7-0.1-1-0.1c-0.2,0-0.3-0.1-0.2-0.3c0.5-0.9,0.7-1.8,1-2.8c0.3-0.7,0.5-1.4,0.7-2.1 c0-0.1,0.1-0.3,0.1-0.5C71.9,59.2,71.9,59.2,72.1,59.2z M72.9,60.6C72.9,60.6,72.9,60.5,72.9,60.6c-0.1,0.1-0.1,0.2-0.1,0.3 c-0.2,0.5-0.4,1.1-0.5,1.6c-0.1,0.2,0,0.3,0.2,0.3c0.1,0,0.2,0,0.3,0c0.2,0,0.3,0,0.3-0.3C73,61.9,72.9,61.2,72.9,60.6z"></path> <path style="fill:#FFFFFF;" d="M34.5,58.4c0.1,0,0.2,0,0.3-0.1c0.6,0,1.2-0.1,1.8-0.1c0.3,0,0.3,0,0.3,0.3c0,0.1,0,0.2,0,0.3 c0.4,1.5,0.9,3,1.3,4.5c0,0.1,0.1,0.3,0.2,0.4c0,0.1,0.1,0.2,0.1,0.4c-0.6,0.1-1.1,0.1-1.6,0.1c0-0.1,0-0.3,0-0.4 c0-0.2,0-0.4-0.1-0.6c-0.1-0.2-0.1-0.3-0.3-0.2c-0.3,0-0.6,0-0.9,0.1c-0.2,0-0.3,0.1-0.3,0.3c0,0.2,0,0.5,0,0.7c0,0.1,0,0.2,0,0.3 c-0.1,0-0.2,0.1-0.2,0.1c-0.3,0-0.7,0.1-1,0.1c-0.3,0-0.3,0-0.2-0.3c0.1-0.6,0.2-1.3,0.3-1.9c0.1-1,0.3-1.9,0.4-2.9 c0-0.2,0.1-0.5,0-0.7C34.5,58.5,34.5,58.5,34.5,58.4z M35.8,59.3c-0.1,0-0.2,0-0.2,0.1c0,0.2,0,0.4,0,0.6c0,0.5-0.1,0.9-0.2,1.4 c0,0.3,0,0.3,0.3,0.3c0.1,0,0.2,0,0.3,0c0.3,0,0.4-0.1,0.3-0.4c-0.1-0.5-0.3-1-0.4-1.5C35.9,59.7,35.8,59.5,35.8,59.3z"></path> <path style="fill:#FFFFFF;" d="M76.8,59.9c0.4,0,0.8,0,1.2,0.1c0.6,0.1,1.2,0.2,1.8,0.3c0.2,0,0.3,0.1,0.4,0.3 c0.2,0.3,0.4,0.6,0.5,0.8c0.1,0.1,0.1,0.2,0.1,0.4c-0.1,0.4-0.2,0.9-0.2,1.3c0,0.2-0.1,0.3-0.2,0.4c-0.3,0.2-0.6,0.5-0.9,0.7 c-0.1,0.1-0.3,0.1-0.4,0.1c-0.3-0.1-0.6-0.1-1-0.2c-0.4-0.1-0.4,0-0.5,0.3c-0.1,0.5-0.2,0.9-0.1,1.4c0,0,0,0.1,0,0.1c0,0,0,0,0,0.1 c0,0-0.1,0-0.1,0c-0.4-0.1-0.8-0.1-1.3-0.2c-0.2,0-0.2-0.1-0.1-0.2c0.3-0.7,0.3-1.4,0.4-2.2c0.2-0.9,0.3-1.8,0.4-2.7 C76.9,60.5,76.8,60.2,76.8,59.9z M78.4,61.4c-0.2,0-0.2,0-0.3,0.2c0,0.3-0.1,0.6-0.1,0.9c0,0.1,0,0.2,0.2,0.3c0.2,0,0.3,0.1,0.5,0.1 c0.3,0,0.5-0.2,0.6-0.5c0.1-0.2,0-0.5-0.2-0.7C78.9,61.4,78.6,61.5,78.4,61.4z"></path> <path style="fill:#FFFFFF;" d="M44.6,57.9c0.3-0.1,1.3-0.1,1.7,0c0,0.1,0,0.2-0.1,0.3c0,0.2-0.1,0.4-0.1,0.5c0,0.9,0,1.8,0.1,2.8 c0,0.2,0,0.4,0.1,0.6c0.1,0.3,0.3,0.4,0.6,0.4c0.3,0,0.4-0.1,0.5-0.4c0.1-0.3,0.1-0.6,0.1-0.8c0-0.6,0-1.1,0-1.7 c0-0.2,0-0.4,0.1-0.7c0-0.3,0-0.6,0-1c0.4,0,0.8,0,1.2,0c0,0,0,0,0,0c-0.1,0.3,0,0.5,0,0.8c0,0.9,0,1.8,0,2.7c0,0.3,0,0.7,0,1 c0,0.2,0,0.2-0.2,0.4c-0.1-0.1-0.2-0.2-0.3-0.3c-0.3-0.2-0.7-0.2-1,0.1c-0.2,0.2-0.3,0.4-0.4,0.6c-0.1,0.1-0.1,0.3-0.2,0.5 c-0.3,0-0.6,0-0.9,0c-0.1,0-0.2-0.1-0.2-0.1c-0.2-0.2-0.5-0.5-0.7-0.8c-0.1-0.1-0.1-0.2-0.1-0.3c0-0.6,0-1.2,0-1.7 c0-0.7,0-1.4-0.1-2.1c0-0.2-0.1-0.4-0.1-0.6C44.6,58.1,44.6,58,44.6,57.9z"></path> <path style="fill:#FFFFFF;" d="M28.8,58.9c0.2,0,0.3-0.1,0.4-0.1c0.8-0.1,1.6-0.2,2.4-0.2c0.3,0,0.3,0,0.4,0.2 c0.1,0.3,0.2,0.5,0.3,0.8c0,0.1,0.1,0.2,0.1,0.3c-0.1,0-0.2,0-0.3,0c-0.3-0.1-0.5-0.1-0.8,0c-0.2,0-0.4,0-0.7,0.1 c-0.2,0-0.2,0.1-0.2,0.3c0,0.1,0,0.1,0,0.2c0,0.4,0.1,0.5,0.5,0.4c0.2,0,0.3-0.1,0.4-0.2c0.2-0.1,0.2,0,0.3,0.2 c0,0.4,0.1,0.9,0.1,1.4c-0.1,0-0.2,0-0.3,0c-0.2,0-0.4,0-0.6,0c-0.1,0-0.2,0.1-0.2,0.2c0,0.2,0,0.4,0.1,0.6c0,0.2,0.1,0.2,0.3,0.2 c0.3,0,0.7,0,1-0.1c0.1,0,0.3-0.1,0.4-0.1c0.1,0,0.2-0.1,0.3-0.1c0,0.1,0,0.2,0,0.3c-0.1,0.4-0.1,0.8-0.2,1.2c0,0.1-0.1,0.2-0.3,0.2 c-0.9,0.1-1.8,0.2-2.7,0.3c-0.2,0-0.3,0-0.2-0.2c0.1-0.5,0-1.1-0.1-1.6c-0.1-1.1-0.2-2.3-0.4-3.4c0-0.2-0.1-0.3-0.1-0.5 C28.9,59.1,28.8,59,28.8,58.9z"></path> <path style="fill:#FFFFFF;" d="M56.8,57.9c0.1,0,0.3,0,0.4,0c0.8,0,1.6,0.1,2.4,0.1c0.3,0,0.3,0,0.4,0.3c0.1,0.3,0.1,0.6,0.2,0.9 c0,0.2,0,0.3-0.2,0.2c-0.5-0.2-1-0.1-1.5-0.2c-0.1,0-0.2,0.1-0.2,0.2c0,0.1,0,0.3,0,0.4c0,0.2,0.1,0.2,0.2,0.2c0.2,0,0.4,0,0.6-0.1 c0.2,0,0.3,0,0.3,0.2c0,0.3,0,0.7-0.1,1c0,0.3-0.1,0.3-0.4,0.2c-0.2-0.1-0.4-0.1-0.6-0.1c-0.2,0-0.2,0.1-0.3,0.2c0,0.2,0,0.4,0,0.6 c0,0.2,0.1,0.3,0.3,0.3c0.3,0,0.6,0,0.9,0c0.2,0,0.4,0,0.5-0.1c0.1,0,0.2,0,0.4-0.1c0,0.1,0,0.2-0.1,0.3c-0.1,0.3-0.2,0.7-0.4,1 c-0.1,0.2-0.1,0.2-0.3,0.2C58.6,64,57.8,64,57,64c-0.1,0-0.3,0-0.4-0.1c0-0.1,0-0.2,0-0.2c0.2-0.5,0.1-1,0.2-1.5 c0-0.7,0.1-1.4,0.1-2.1c0-0.5,0.1-1,0.1-1.5c0-0.1-0.1-0.2-0.1-0.4C56.8,58.2,56.8,58.1,56.8,57.9z"></path> <path style="fill:#FFFFFF;" d="M41.4,57.9c0.3,0,0.5,0,0.8,0c0.2,0,0.3,0,0.3,0.2c0.1,0.3,0.2,0.6,0.3,1c0.1,0.2,0,0.3-0.2,0.2 c-0.4-0.2-0.9-0.1-1.3,0c-0.2,0-0.3,0.1-0.4,0.3c-0.1,0.3,0,0.5,0.3,0.6c0.3,0.1,0.6,0.1,0.9,0.2c0.1,0,0.2,0.1,0.3,0.2 c0.2,0.2,0.3,0.3,0.5,0.5c0.1,0.1,0.1,0.2,0.1,0.3c0,0.4,0,0.9,0,1.3c0,0.1,0,0.2-0.1,0.3c-0.2,0.3-0.4,0.5-0.6,0.8 c-0.1,0.1-0.2,0.2-0.3,0.2c-0.6,0-1.1,0-1.7,0.1c-0.3,0-0.3,0-0.4-0.3c-0.1-0.3-0.2-0.7-0.3-1c0-0.1,0-0.2,0-0.2c0,0,0.2,0,0.2,0 c0.4,0.2,0.9,0.1,1.3,0.1c0.3,0,0.4-0.2,0.5-0.5c0-0.3-0.1-0.5-0.4-0.5c-0.2,0-0.4-0.1-0.6-0.1c-0.5,0-0.8-0.4-1.1-0.8 c-0.1-0.1-0.1-0.3-0.1-0.4c0-0.3,0-0.6,0-0.9c0-0.1,0-0.2,0.1-0.3c0.2-0.3,0.4-0.6,0.7-0.8c0.1-0.1,0.2-0.2,0.3-0.2 C40.8,58,41.1,57.9,41.4,57.9C41.4,57.9,41.4,57.9,41.4,57.9z"></path> <path style="fill:#FFFFFF;" d="M21.6,61.4c-0.1,0-0.2,0-0.3,0c-0.2-0.1-0.5-0.1-0.7,0c-0.3,0.1-0.3,0.1-0.3,0.4 c0.1,0.4,0.1,0.8,0.2,1.2c0.1,0.6,0.2,1.2,0.3,1.9c0,0.3,0.2,0.6,0.3,0.9c0.1,0.3,0.1,0.3-0.2,0.4c-0.4,0.1-0.7,0.1-1.1,0.2 c-0.1,0-0.2,0-0.4,0c0-0.1,0-0.3,0-0.4c0.1-0.4,0-0.7,0-1.1c-0.2-0.9-0.3-1.9-0.5-2.8c-0.1-0.3-0.1-0.3-0.4-0.3 c-0.2,0-0.4,0.1-0.6,0.2c-0.1,0-0.2,0.1-0.3,0.1c0-0.1-0.1-0.2-0.1-0.3c0-0.4,0.1-0.7,0.1-1.1c0-0.2,0.1-0.2,0.3-0.2 c0.5-0.1,1.1-0.2,1.6-0.3c0.4-0.1,0.9-0.1,1.3-0.1c0.1,0,0.2,0,0.3,0.1c0.2,0.3,0.3,0.7,0.5,1C21.6,61.2,21.6,61.3,21.6,61.4z"></path> <path style="fill:#FFFFFF;" d="M84.8,41.4c0.1,1-0.4,1.8-1,2.4c-0.2,0.2-0.4,0.4-0.7,0.6c-0.2,0.2-0.4,0.2-0.6,0 c-0.2-0.2-0.2-0.3,0-0.6c0.2-0.2,0.3-0.4,0.5-0.7c0.1-0.1,0.1-0.2,0.1-0.3c0.1-0.2,0-0.3-0.2-0.3c-0.2,0-0.3,0-0.5-0.1 c-0.7-0.2-1.2-0.8-1.2-1.6c0-0.4,0.2-0.7,0.5-1c0.7-0.6,2-0.6,2.6,0.2c0.2,0.3,0.4,0.6,0.4,1C84.8,41.1,84.8,41.2,84.8,41.4z"></path> <path style="fill:#FFFFFF;" d="M55.1,69.9c0,0.2,0,0.3,0,0.5c0,0.3,0.2,0.4,0.5,0.4c0.4,0,0.7-0.2,0.9-0.4c0.1-0.1,0.2-0.2,0.3-0.2 c0,0,0.1,0.1,0.1,0.1c0.2,0.5,0.3,0.4-0.2,0.7c-0.6,0.4-1.2,0.6-1.9,0.5c-0.5-0.1-0.9-0.5-0.9-1.1c0-0.4,0.1-0.8,0.3-1.2 c0.3-0.5,0.5-0.9,0.9-1.3c0.5-0.4,1-0.7,1.7-0.7c0.1,0,0.1,0,0.2,0c0.9,0,1.1,0.6,0.7,1.3c-0.1,0.2-0.2,0.3-0.4,0.4 c-0.5,0.5-1.1,0.7-1.8,0.8C55.3,69.9,55.3,69.9,55.1,69.9C55.2,69.9,55.2,69.9,55.1,69.9z M55.3,69.3c0.6-0.1,1.1-0.3,1.4-0.8 c0.1-0.1,0.1-0.3,0.1-0.5c0-0.2-0.1-0.3-0.3-0.2c-0.2,0-0.3,0.1-0.4,0.2C55.7,68.4,55.5,68.8,55.3,69.3z"></path> <path style="fill:#FFFFFF;" d="M50.4,71.6c-0.1-1.4,0.1-2.7,0.1-4.1c0.2-0.1,0.4-0.2,0.6-0.2c0.3,0,0.4,0.2,0.4,0.5 c0,0.4-0.1,0.9-0.1,1.3c0,0.4,0,0.8,0,1.2c0,0,0.1-0.1,0.1-0.1c0.3-0.4,0.6-0.8,0.9-1.2c0.2-0.3,0.3-0.7,0.3-1.1 c0-0.4,0.3-0.6,0.6-0.6c0.2,0,0.4,0.1,0.4,0.4c0,0.2,0,0.5-0.1,0.7c-0.1,0.2-0.2,0.3-0.3,0.5c-0.4,0.8-1.1,1.5-1.7,2.1 c-0.1,0.1-0.2,0.2-0.3,0.3C51.1,71.7,51.1,71.7,50.4,71.6z"></path> <path style="fill:#FFFFFF;" d="M44,68.9c-0.7,0-1.4,0-2.1-0.2c-0.4-0.1-0.7-0.4-1-0.7c-0.3-0.4-0.4-0.8-0.6-1.2 c0.7-0.4,1.4-0.4,2.1-0.1C43.4,67,43.9,67.7,44,68.9z"></path> <path style="fill:#FFFFFF;" d="M40.4,71.4c0.3-0.7,0.6-1.4,1.2-1.8c0.3-0.2,0.6-0.2,0.9-0.2c0.5-0.1,1-0.1,1.4,0 C43.9,71.4,41.8,72.2,40.4,71.4z"></path> <path style="fill:#FFFFFF;" d="M48.5,70.9c0.2-0.1,0.3-0.2,0.4-0.2c0,0.1,0.1,0.3,0.1,0.4c-0.4,0.4-0.9,0.7-1.5,0.6 c-0.3-0.1-0.5-0.3-0.4-0.6c0.2-0.5,0.4-1.1,0.6-1.6c0.2-0.4,0.3-0.8,0.5-1.2c0.1-0.2,0.1-0.4,0.2-0.6c0.1-0.2,0.2-0.3,0.4-0.4 c0.2-0.1,0.4-0.1,0.5,0.1c0.1,0.1,0.2,0.3,0.1,0.5c-0.1,0.3-0.2,0.7-0.3,1C48.9,69.5,48.7,70.2,48.5,70.9z"></path> <path style="fill:#FFFFFF;" d="M49.6,65.6c0.2,0,0.3,0.1,0.3,0.3c0.1,0.3-0.1,0.6-0.4,0.8c-0.3,0.1-0.5,0-0.5-0.4 C49,65.9,49.3,65.6,49.6,65.6z"></path> </svg> 