<?xml version="1.0" encoding="UTF-8"?> <svg xmlns="http://www.w3.org/2000/svg" xmlns:xlink="http://www.w3.org/1999/xlink" version="1.1" id="Layer_1" x="0px" y="0px" viewBox="0 0 800 800" style="enable-background:new 0 0 800 800;" xml:space="preserve"> <path style="fill:#FFFFFF;" d="M679.5,729.9h-0.4c0-1.9,0-4.1,0.4-6c0-0.4,0.4-1.1-0.4-1.5h0.4V729.9z"></path> <path style="fill:#FFFFFF;" d="M282.1,741.1c0-0.7,0-1.5,0-2.2V619c0-1.1,0-1.1,1.1-1.1h1.1c8.9,0,17.5,0,26.4,0 c3.7,0,7.1,0.4,10.4,1.5c3,0.7,6,1.9,8.6,3.7c5.6,3.3,8.9,9.3,8.9,16c0,2.2,0,4.5,0,6.7c0,11.2,0,22.3,0,33.1c0,1.9-0.4,4.1-0.7,6 c-1.1,4.8-4.5,8.6-8.6,11.2l-3,1.9c0,0.4,0,1.1,0.4,1.5c5.2,11.2,9.3,22.7,11.9,34.6c0.4,1.9,1.1,4.1,1.5,6c0.4,1.1,0,1.5-1.1,1.5 h-17.9c-1.5,0-1.5,0-1.5-1.5c-1.1-4.8-2.6-9.7-4.1-14.5c-2.6-8.2-6-16-10-23.4c-0.4-0.7-0.7-1.5-0.7-2.2c0-2.6,0-5.6,0-8.2 c0-0.7,0.4-1.5,1.1-1.5c2.2-0.7,4.5-1.9,6.7-3.3c1.9-1.1,3.3-2.2,4.8-3.3c1.1-0.7,1.9-2.2,1.5-3.7c0-9.3,0-18.6,0-27.9 c0-4.1,0-7.8,0-11.9c0-1.1,0-1.5-1.1-1.9c-1.9-0.7-3.7-1.1-5.6-1.1c-3.3,0-6.7,0-10,0c-0.7,0-0.7,0.4-0.7,0.7s0,1.5,0,2.2v100.8 c0,0.7-0.4,0.7-0.7,0.7H284C283.2,741.1,282.9,741.1,282.1,741.1z"></path> <path style="fill:#FFFFFF;" d="M209.9,679.3V638c0-1.5,0-3,0.4-4.8c0.7-4.5,3.3-8.6,7.1-11.5c3-2.2,6-3.7,9.7-4.5 c8.2-2.2,16.4-1.9,24.2,0.7c3,0.7,5.6,2.2,7.8,4.1c4.5,3.3,7.1,8.6,7.1,14.1c0,0.7,0,1.5,0,1.9v82.6c0,2.2,0,4.1-0.7,6 c-1.1,3.7-3,7.1-6.3,9.7c-3.3,2.6-7.1,4.5-10.8,5.2c-8.2,2.2-16.7,1.9-24.9-1.1c-2.2-0.7-4.5-1.9-6.3-3.3c-4.8-3.3-7.8-8.9-7.8-14.9 c0-4.8,0-9.7,0-14.5L209.9,679.3z M247.2,679.3v-31.3c0-3.3,0-6.7,0-10c0-1.5,0-1.9-1.5-2.2c-4.5-1.5-9.3-1.5-13.8,0 c-2.2,0.7-2.2,0.4-2.2,3v81.1c0,0.7,0,1.1,0,1.9c0,1.1,0,1.5,1.1,1.9c4.5,1.5,9.3,1.9,14.1,0.4c2.6-0.7,2.2-0.7,2.2-3 C246.8,706.5,246.8,693.1,247.2,679.3L247.2,679.3z"></path> <path style="fill:#FFFFFF;" d="M506.1,679.3c0,13.4,0,27.2,0,40.6c0,3-0.7,2.6,2.6,3.3c4.5,1.1,8.9,1.1,13-0.4 c1.5-0.4,1.5-0.4,1.5-2.2c0-10.4,0-20.8,0-31.3c0-1.1-0.4-1.9-1.1-2.6c-2.6-2.6-5.6-4.8-8.9-6.7l-1.5-0.7c-0.7-0.4-0.7-0.7-0.7-1.5 v-8.6c0-0.7,0.4-1.1,1.1-1.1h30.1c0.4,0,0.7,0.4,0.7,0.7l0,0c0,0.7,0,1.1,0,1.9v49.5c0,1.9,0,3.3-0.4,5.2c-1.1,4.5-3.7,8.6-7.4,11.2 c-3,2.2-6.3,3.7-9.7,4.5c-7.8,1.9-16,1.9-23.4-0.7c-2.6-0.7-5.2-2.2-7.4-3.7c-4.8-3.3-7.8-8.6-7.8-14.5c0-0.7,0-1.5,0-2.2v-81.5 c0-1.9,0-3.7,0.4-5.6c0.7-4.1,3-7.8,6.3-10.4c3-2.6,6.7-4.1,10.4-5.2c8.6-2.2,17.5-1.9,25.7,1.1c2.6,1.1,5.2,2.6,7.4,4.5 c3.7,3,6,7.4,6.3,12.7c0,0.4,0,0.7,0,1.1c0,5.2,0,10,0,15.3c0,1.5,0,1.5-1.5,1.5c-2.2,0.4-4.1,1.1-6.3,1.1 c-3.3,0.4-7.1,0.7-10.4,1.1c-1.5,0-1.5,0-1.5-1.5c0-5.2,0-10.4,0-15.3c0-3,0.4-2.6-2.6-3.3c-4.5-1.1-9.3-1.1-13.8,0.4 c-0.7,0-1.1,0.7-1.1,1.5c0,0.4,0,1.1,0,1.9V679.3z"></path> <path style="fill:#FFFFFF;" d="M231.2,532V491c0-1.9,0-3.7,0.4-5.6c0.7-4.5,3.3-8.6,7.1-11.2c3-2.2,6.7-3.7,10.4-4.8 c7.8-1.9,16.4-1.5,24.2,1.1c1.9,0.7,4.1,1.9,5.6,3c5.2,3.3,8.6,8.9,8.6,15.3c0,5.2,0,10.4,0,15.3c0,1.1,0,1.1-1.1,1.5 c-1.5,0.4-3,0.7-4.5,1.1c-4.1,0.7-8.2,1.1-11.9,1.5h-0.7c-0.7,0-1.1-0.4-1.1-1.1v-11.2c0-1.9,0-4.1,0-6c0-0.7-0.4-1.5-1.1-1.5 c-4.8-1.5-10.4-1.5-15.3,0c-0.7,0-1.1,0.7-1.1,1.5c0,0.4,0,1.1,0,1.5c0,26.8,0,54,0,81.1c0,3-0.7,3,3,3.7c4.5,1.1,8.9,1.1,13.4-0.4 c0.7,0,1.1-0.7,1.1-1.5c0-0.4,0-0.7,0-1.1c0-10,0-20.1,0-30.1c0-1.5-0.4-3-1.5-4.1c-2.6-3-6-4.8-9.7-6.3c-0.7-0.4-1.5-1.1-1.1-1.9 c0-2.6,0-5.6,0-8.2c0-0.7,0.4-1.1,1.1-1.1h29.8c0.7,0,1.1,0.4,1.1,1.1s0,1.1,0,1.9c0,16.4,0,32.7,0,49.1c0,1.9,0,3.7-0.4,5.6 c-0.7,4.1-3.3,7.8-6.7,10.4c-3.7,2.6-7.8,4.5-11.9,5.2c-7.1,1.5-14.1,1.1-21.2-0.7c-3-0.7-6-2.2-8.6-4.1c-4.5-3.3-7.4-8.6-7.4-14.1 c0-1.1,0-2.2,0-3.3L231.2,532z"></path> <path style="fill:#FFFFFF;" d="M414.2,671.1v-50.6c0-0.7,0-1.5,0-2.2c0-0.4,0.4-0.7,0.7-0.7c0,0,0,0,0.4,0h17.5 c0.7,0,1.1,0.4,1.1,1.1c0,0.7,0,1.5,0,2.2v99.7c0,1.9-0.4,1.9,1.9,2.6c4.8,1.5,9.7,1.5,14.5,0c1.1-0.4,1.1-0.4,1.1-1.9 c0-1.5,0-1.5,0-1.9v-98.6c0-3.7-0.4-3.3,3-3.3h15.3c0.4,0,0.7,0.4,1.1,0.7l0,0c0,0.4,0,0.4,0,0.7c0,0.4,0,0.7,0,1.1 c0,33.5,0,67,0,100.5c0,1.9,0,3.7-0.7,5.6c-1.1,4.5-3.7,8.2-7.4,10.8c-3,1.9-6,3.3-9.3,4.1c-7.8,1.9-16,1.9-23.8-0.7 c-3.7-1.1-7.4-3.3-10-6c-3-3-4.8-7.1-5.2-11.5c0-1.1,0-1.9,0-3L414.2,671.1z"></path> <path style="fill:#FFFFFF;" d="M553.8,741.1c0-1.9,0.4-3.3,0.7-5.2c1.1-8.6,2.6-17.1,3.7-26c1.5-9.3,3-18.6,4.1-28.3 c1.5-10.4,3-20.8,4.5-31.3c1.5-9.3,3-18.6,4.1-28.3c0-1.1,0.4-2.6,0.4-3.7c0-0.7,0.4-1.1,1.1-1.1l0,0c1.5,0,2.6-0.4,4.1-0.4 c7.4-0.4,15.3-0.4,22.7,0.4c1.5,0,1.5,0,1.5,1.5l1.9,13c0.7,5.2,1.5,10.8,2.2,16s1.5,10.4,2.2,15.3l2.6,19 c0.7,5.2,1.5,10.4,2.2,15.6c0.7,5.2,1.5,10.4,2.2,15.3c0.7,4.8,1.5,10.4,2.2,15.3c0.4,3.3,0.7,6.3,1.5,9.7c0.4,0.7,0.4,1.9,0,2.6 c-1.9,0.4-16.4,0.4-19,0c-0.4-0.7-0.4-1.1-0.4-1.9c-0.4-4.1-1.1-8.2-1.5-12.3c0-1.1-0.7-2.2-1.9-3c-4.1-2.6-8.2-4.8-13-6.3 c-0.7,0-1.5-0.4-2.2-0.7c-0.7-0.7,0-1.5,0-2.2c0.4-2.2,0.7-4.5,1.1-6.7c0-1.1,0.4-1.5,1.5-1.5h8.6h2.2c-0.4-1.5-0.4-3-0.4-4.1 c-1.1-8.2-2.2-16.4-3.3-24.6l-3.3-24.9c0-0.4,0-0.4-0.4-0.7l-0.4-0.4c0,0-0.4,0-0.4,0.4s-0.4,0.7-0.4,0.7c-0.7,6.3-1.9,12.7-2.6,19 s-1.9,13-3,19.7l-2.6,19.7c-1.1,7.8-2.2,15.3-3.3,23.1l-0.7,6c0,1.1-0.4,1.1-1.1,1.1h-17.1C554.1,741.5,553.8,741.1,553.8,741.1z"></path> <path style="fill:#FFFFFF;" d="M363.3,593.4c-6.3,0.4-13,0.4-19.3,0c-0.4-1.9-0.7-4.1-1.1-6c-0.4-3-0.7-5.6-1.1-8.6 c0-1.1-0.7-2.2-1.5-3c-3.7-2.6-7.8-4.8-12.3-6l-2.6-0.7c-0.4,0-0.4-0.4-0.4-0.7l0,0c0.4-3,0.7-6,1.5-8.9c0-0.7,0.4-1.1,1.5-1.1h8.6 c0.7,0,1.9,0,2.6-0.4c0-1.5-0.4-3.3-0.4-4.8c-0.7-6.7-1.9-13.4-3-20.5c-1.1-7.1-1.9-13-2.6-19.7c-0.4-2.6-0.7-5.6-1.1-8.2 c0-0.4,0-0.7-0.4-1.1l-0.4-0.4c0,0-0.4,0-0.4,0.4s-0.4,0.7-0.4,1.1c-0.7,6.3-1.9,12.7-2.6,19l-3,19.7l-2.6,19.7l-3,19.7 c-0.4,3-0.7,5.6-1.1,8.6c0,0.4,0,0.7,0,1.1s-0.4,0.7-0.7,0.7h-18.2c-0.4,0-0.4,0-0.7-0.4c0-1.5,0.4-3.3,0.4-4.8 c1.1-7.4,2.2-14.9,3.3-22.3l3.3-21.6c1.1-7.1,2.2-14.5,3.3-21.6c1.1-7.1,2.2-14.5,3.3-21.6l3.7-24.6c0.4-1.9,0.7-3.7,0.7-5.6 c0-1.1,0.4-1.1,1.5-1.5h1.1c8.2-0.7,16.4-0.7,24.6,0c0.4,0,1.1,0,1.5,0.4c0.4,0,0.7,0.4,0.7,0.7c0.4,1.9,0.4,3.7,0.7,5.2 c1.5,9.7,2.6,19.7,4.1,29.4c1.1,8.6,2.6,17.1,3.7,26c1.1,8.9,2.6,17.5,3.7,26c1.5,8.6,2.6,17.1,3.7,26c0.4,2.6,0.7,4.8,1.1,7.4 C362.9,591.9,362.9,592.6,363.3,593.4z"></path> <path style="fill:#FFFFFF;" d="M138.5,679.3v-58.8c0-3.3-0.4-3,3-3c8.6,0,16.7,0,25.3,0c4.8,0,9.3,0.7,13.8,2.2 c2.6,0.7,5.2,2.2,7.4,4.1c4.5,3.3,7.1,8.9,7.1,14.5v46.1c0,3-0.4,5.6-1.5,8.2c-1.5,3.3-4.1,6.3-7.4,8.2c-3.7,2.2-7.4,3.7-11.5,4.5 c-4.1,0.7-7.8,0.7-11.9,0.4c-0.7,0-1.1,0-1.1-1.1v-8.6c0-0.7,0.4-1.1,0.7-1.1c2.2-0.7,4.5-1.9,6.7-3.3c1.9-1.1,3.7-2.6,5.2-4.1 c0.7-0.7,1.1-1.9,1.1-3c0-1.9,0-3.7,0-5.6c0-13,0-26,0-38.7c0-3,0.4-2.6-2.6-3.3c-1.5-0.4-3.3-0.7-4.8-0.7H159c-1.1,0-1.1,0-1.1,1.1 v100.8c0,3.3,0.4,3-3,3h-16c-0.4,0-0.7-0.4-0.7-0.7c0-0.7,0-1.5,0-2.2L138.5,679.3z"></path> <path style="fill:#FFFFFF;" d="M365.9,688.6v-49.1c0-0.7,0-1.5,0-2.2c0-0.4-0.4-0.7-0.7-0.7l0,0h-17.9c-0.4,0-0.7-0.4-0.7-0.7v-16.4 c0-0.4,0-0.4,0-0.7c0-0.4,0.4-0.7,0.7-0.7l0,0h55.8c1.1,0,1.5,0,1.5,1.1v14.9c0,0.4,0,1.1,0,1.9c0,0.4-0.4,0.7-0.7,0.7l0,0h-16.4 c-0.7,0-1.1,0-1.9,0l-0.4,0.4c0,0.4,0,0.4,0,0.7v100.5c0,3.3,0.4,3-3,3h-15.6c-0.4,0-0.7-0.4-0.7-0.7l0,0c0-0.7,0-1.5,0-2.2V688.6z"></path> <path style="fill:#FFFFFF;" d="M679.2,722.5c0.7,0.4,0.4,1.1,0.4,1.5c-0.4,1.9-0.4,4.1-0.4,6c0,3.3-0.4,6.3-1.1,9.7v0.7 c0,0.4-0.4,0.7-0.7,0.7h-45c-2.2,0-2.2,0-2.2-2.2v-43.5c0-24.9,0-49.5,0-74.4c0-3.7-0.4-3.3,3.3-3.3h15.3c0.4,0,0.7,0.4,0.7,0.7l0,0 c0,0.7,0,1.5,0,2.2c0,32.7,0,65.9,0,98.6c0,1.1-0.4,2.2,0.4,3c0.7,0.7,1.9,0.4,3,0.4L679.2,722.5z"></path> <path style="fill:#FFFFFF;" d="M138.5,532v-60.3c0-0.7,0-1.1,1.1-1.1H156c1.9,0,1.9,0,1.9,1.9v102c0,0.7,0,1.1,1.1,1.1h27.5 c0.7,0,1.1,0.4,1.1,1.1c0,2.2-0.4,4.8-0.4,7.1c-0.4,2.2-0.4,4.8-0.7,7.4c0,0.7-0.4,1.5-0.4,1.9s-0.4,1.1-0.7,1.1c0,0,0,0-0.4,0 c-0.7,0-1.1,0-1.9,0h-43.9c-0.7,0-0.7-0.4-0.7-1.1V532z"></path> <path style="fill:#FFFFFF;" d="M195.8,532v-58.8c0-3.3-0.4-3,2.6-3h14.1c0.7,0,1.5,0,1.9,0c0.4,0,0.7,0.4,0.7,0.7c0,0.7,0,1.1,0,1.9 v119.1c0,1.9,0,1.9-1.9,1.9h-16.7c-0.7,0-0.7-0.4-0.7-1.1V532L195.8,532z"></path> <path style="fill:#FFFFFF;" d="M267.2,66.1l-1.9-0.7c0,0-0.4-0.4,0.4-0.4h2.6v0.4h-0.7C267.6,65.3,267.2,65.7,267.2,66.1z"></path> <path style="fill:#FFFFFF;" d="M267.2,66.1c0-0.4,0-0.4,0.4-0.4h0.7c16.7,2.6,32.7,6.7,48.7,11.9c43.5,13.8,84.1,36.1,119.1,65.5 c25.7,21.6,48,46.9,66.2,74.8l0.7,1.1c0.4,0.4,0.4,0.7-0.4,1.1c-0.7,0.4-1.1,0.7-1.9,1.1l-39.1,22l-2.6,1.5c0.4,0.7,1.1,1.5,1.5,2.2 c14.5,20.8,27.5,42.4,39.1,64.7c19,37.2,33.5,76.3,43.5,116.8c3.3,13.4,6,26.8,8.2,40.6c1.5,9.3,3,18.6,4.1,28.3 c1.1,10.8,2.2,21.2,2.6,32c0.7,11.9,0.7,23.8,0.7,35.7c0,8.9-0.4,17.9-1.1,26.8c-0.7,8.9-1.5,16.7-3,25.3c0,0.4,0,1.1-0.4,1.1 c-0.4-4.5-1.1-8.6-1.5-13c-1.1-7.4-2.2-14.9-3.7-22.7c-2.2-11.9-4.8-24.2-7.8-36.1c-8.9-37.2-20.8-74.1-35.4-109.8 c-20.8-51-47.3-99.7-78.9-144.8c-14.5-20.5-29.8-39.8-46.5-58.4l-1.5-1.9c0.7-0.7,1.5-1.1,2.2-1.5l42.4-23.4 c0.7-0.4,1.5-0.7,2.2-1.5l-1.5-2.2c-12.7-16.7-26.4-33.1-41.3-48c-30.1-30.9-64-57.7-100.8-80.4c-4.5-2.6-8.9-5.2-13.4-7.8 C268.4,66.4,268,66.1,267.2,66.1z"></path> <path style="fill:#FFFFFF;" d="M337.9,258.8c0.7,0,1.5,0.7,1.9,1.5c10.4,9.7,20.5,19.7,29.8,30.5c19,21.2,36.1,44.3,50.6,68.8 c1.5,2.6,3,4.8,4.1,7.4c0.4,0.7,0.4,1.5,0,1.9c-1.9,2.6-4.1,5.2-6,7.8c-0.7,0.7-0.7,0.7-2.2,0.4l-20.1-6.7l-35.7-12.3l-0.7-0.4 c-1.1-0.4-1.9-1.1-1.9-1.9c-1.1-6-2.6-11.9-3.7-17.9l-7.4-38.3c-3-13.4-5.6-26.8-8.6-40.2C337.9,259.2,337.9,259.2,337.9,258.8z"></path> </svg> 