<?xml version="1.0" encoding="UTF-8"?> <svg xmlns="http://www.w3.org/2000/svg" xmlns:xlink="http://www.w3.org/1999/xlink" version="1.1" id="Layer_1" x="0px" y="0px" viewBox="0 0 512 512" style="enable-background:new 0 0 512 512;" xml:space="preserve"> <g> <g> <path style="fill:#FFFFFF;" d="M141.9,210.1l6.6-32.2h10.6l-4.9,23.9h10.4l-1.7,8.2H141.9z"></path> <path style="fill:#FFFFFF;" d="M165.5,210.1l6.6-32.2h10.6l-6.7,32.2H165.5z"></path> <path style="fill:#FFFFFF;" d="M194.5,210.5c-2.9,0-5.3-0.3-7.1-0.8c-1.8-0.6-3.1-1.5-4-2.7c-0.8-1.3-1.3-3-1.3-5.2 c0-1.1,0.1-2.3,0.3-3.7c0.2-1.4,0.5-2.9,0.8-4.5c0.5-2.5,1.1-4.7,1.7-6.5s1.3-3.3,2.1-4.6c0.8-1.2,1.8-2.2,3-2.9 c1.2-0.7,2.6-1.2,4.3-1.5c1.7-0.3,3.8-0.5,6.1-0.5c1.1,0,2.4,0,3.8,0.1c1.4,0.1,2.8,0.2,4.1,0.4c1.4,0.2,2.6,0.4,3.7,0.6l-1.5,7.3 c-0.9-0.1-1.9-0.2-2.9-0.3c-1-0.1-2-0.1-2.9-0.2c-0.9-0.1-1.6-0.1-2.2-0.1c-1.4,0-2.6,0-3.5,0.1c-0.9,0.1-1.7,0.2-2.2,0.5 c-0.6,0.3-1,0.7-1.4,1.3s-0.7,1.5-1,2.5c-0.3,1.1-0.6,2.5-0.9,4.2c-0.3,1.4-0.5,2.6-0.7,3.6c-0.2,1-0.2,1.8-0.2,2.5 c0,0.7,0.1,1.3,0.4,1.7c0.2,0.4,0.6,0.7,1.1,0.8c0.5,0.1,1.2,0.2,2,0.2c0.1,0,0.3,0,0.5,0c0.2,0,0.5,0,0.7,0s0.5,0,0.7,0l1-5h-3 l1.5-7.1h12.2l-3.9,18.7c-1.1,0.2-2.4,0.4-3.7,0.5c-1.4,0.1-2.7,0.3-4.1,0.4C196.9,210.4,195.6,210.5,194.5,210.5z"></path> <path style="fill:#FFFFFF;" d="M210,210.1l6.6-32.2h10.6l-2.4,11.7h5.8l2.4-11.7h10.6l-6.7,32.2h-10.6l2.4-11.7H223l-2.4,11.7H210 z"></path> <path style="fill:#FFFFFF;" d="M247,210.1l4.9-23.9h-7.6l1.7-8.2h25.9l-1.7,8.2h-7.7l-4.9,23.9H247z"></path> <path style="fill:#FFFFFF;" d="M267.6,210.1l6.6-32.2h11.1l3.5,12.4h0.3l2.6-12.4h9.9l-6.7,32.2h-10l-4.1-15h-0.3l-3.1,15H267.6z"></path> <path style="fill:#FFFFFF;" d="M299.4,210.1l6.6-32.2h10.6l-6.7,32.2H299.4z"></path> <path style="fill:#FFFFFF;" d="M314.4,210.1l6.6-32.2h11.1l3.5,12.4h0.3l2.6-12.4h9.9l-6.7,32.2h-10l-4.1-15h-0.3l-3.1,15H314.4z"></path> <path style="fill:#FFFFFF;" d="M360.1,210.5c-2.9,0-5.3-0.3-7.1-0.8c-1.8-0.6-3.1-1.5-4-2.7c-0.8-1.3-1.3-3-1.3-5.2 c0-1.1,0.1-2.3,0.3-3.7c0.2-1.4,0.5-2.9,0.8-4.5c0.5-2.5,1.1-4.7,1.7-6.5s1.3-3.3,2.1-4.6c0.8-1.2,1.8-2.2,3-2.9 c1.2-0.7,2.6-1.2,4.3-1.5c1.7-0.3,3.8-0.5,6.1-0.5c1.1,0,2.4,0,3.8,0.1c1.4,0.1,2.8,0.2,4.1,0.4c1.4,0.2,2.6,0.4,3.7,0.6l-1.5,7.3 c-0.9-0.1-1.9-0.2-2.9-0.3c-1-0.1-2-0.1-2.9-0.2c-0.9-0.1-1.6-0.1-2.2-0.1c-1.4,0-2.6,0-3.5,0.1c-0.9,0.1-1.7,0.2-2.2,0.5 c-0.6,0.3-1,0.7-1.4,1.3c-0.4,0.6-0.7,1.5-1,2.5c-0.3,1.1-0.6,2.5-0.9,4.2c-0.3,1.4-0.5,2.6-0.7,3.6c-0.2,1-0.2,1.8-0.2,2.5 c0,0.7,0.1,1.3,0.4,1.7c0.2,0.4,0.6,0.7,1.1,0.8c0.5,0.1,1.2,0.2,2,0.2c0.1,0,0.3,0,0.5,0c0.2,0,0.5,0,0.7,0c0.3,0,0.5,0,0.7,0 l1-5h-3l1.5-7.1h12.2l-3.9,18.7c-1.1,0.2-2.4,0.4-3.7,0.5c-1.4,0.1-2.7,0.3-4.1,0.4C362.5,210.4,361.3,210.5,360.1,210.5z"></path> </g> </g> <g> <g> <path style="fill:#FFFFFF;" d="M211.4,280.5c-4.8,0-8.8-0.5-11.8-1.4c-3-0.9-5.2-2.5-6.6-4.6c-1.4-2.1-2.1-5-2.1-8.6 c0-1.8,0.2-3.9,0.5-6.1c0.3-2.3,0.8-4.8,1.3-7.5c0.9-4.2,1.8-7.8,2.8-10.8c1-3,2.2-5.6,3.6-7.6c1.4-2.1,3.1-3.7,5-4.9 c2-1.2,4.4-2.1,7.2-2.6c2.8-0.5,6.3-0.8,10.2-0.8c1.9,0,4,0.1,6.3,0.2c2.3,0.2,4.6,0.4,6.9,0.7c2.3,0.3,4.4,0.6,6.2,1l-2.5,12.2 c-1.5-0.2-3.1-0.4-4.8-0.5c-1.7-0.1-3.3-0.2-4.8-0.4c-1.5-0.1-2.7-0.2-3.6-0.2c-2.4,0-4.3,0.1-5.9,0.2c-1.5,0.1-2.8,0.4-3.7,0.9 c-1,0.5-1.7,1.2-2.3,2.2c-0.6,1-1.1,2.4-1.6,4.2c-0.5,1.8-1,4.1-1.5,6.9c-0.5,2.4-0.9,4.4-1.2,6c-0.3,1.6-0.4,3-0.4,4.2 c0,1.2,0.2,2.1,0.6,2.8c0.4,0.7,1,1.1,1.9,1.4c0.8,0.2,1.9,0.4,3.3,0.4c0.2,0,0.5,0,0.9,0c0.4,0,0.8,0,1.2,0s0.9,0,1.2,0l1.7-8.3 h-5l2.4-11.8h20.4l-6.4,31.2c-1.9,0.3-3.9,0.6-6.2,0.8c-2.3,0.2-4.5,0.4-6.8,0.6C215.3,280.4,213.2,280.5,211.4,280.5z"></path> <path style="fill:#FFFFFF;" d="M261,280.5c-5.4,0-9.6-0.4-12.7-1.2c-3.1-0.8-5.3-2-6.5-3.8c-1.3-1.7-1.9-4.1-1.9-7.1 c0-2,0.3-4.3,0.8-7c0.5-2.7,1.1-5.8,1.7-9.2c0.8-4.3,1.6-8,2.3-11.1c0.7-3.1,1.6-5.6,2.8-7.6c1.1-2,2.6-3.6,4.3-4.8 c1.8-1.2,4.1-2,7-2.5c2.9-0.5,6.5-0.7,10.8-0.7c5.4,0,9.6,0.4,12.6,1.2s5.2,2,6.4,3.8c1.3,1.7,1.9,4.1,1.9,7.1c0,2-0.2,4.4-0.6,7 c-0.4,2.6-1,5.7-1.8,9.1c-1,4.4-1.8,8.1-2.6,11.2c-0.8,3.1-1.7,5.6-2.8,7.6s-2.5,3.6-4.2,4.7c-1.7,1.1-4,1.9-6.8,2.4 C268.8,280.2,265.3,280.5,261,280.5z M262.1,267.4c1.1,0,1.9-0.1,2.6-0.2c0.7-0.1,1.3-0.4,1.8-0.9c0.5-0.5,0.9-1.2,1.3-2.2 c0.4-1,0.8-2.4,1.2-4.2c0.4-1.8,0.9-4.1,1.5-6.9c0.6-3,1.1-5.4,1.4-7.2c0.3-1.9,0.5-3.3,0.5-4.3c0-0.9-0.2-1.6-0.5-2 c-0.3-0.4-0.8-0.7-1.4-0.7c-0.6-0.1-1.4-0.1-2.5-0.1c-1.1,0-1.9,0.1-2.6,0.2c-0.7,0.1-1.3,0.4-1.7,0.9c-0.5,0.5-0.9,1.2-1.3,2.2 c-0.4,1-0.8,2.4-1.2,4.2c-0.4,1.8-0.9,4.1-1.4,6.9c-0.4,2-0.8,3.8-1.1,5.3c-0.3,1.5-0.6,2.8-0.7,3.8c-0.2,1-0.2,1.9-0.2,2.6 c0,0.9,0.2,1.5,0.5,1.9c0.3,0.4,0.8,0.6,1.4,0.7C260.3,267.4,261.1,267.4,262.1,267.4z"></path> <path style="fill:#FFFFFF;" d="M289.7,279.8l11-53.6h17.7l-8.2,39.9h17.4l-2.9,13.7H289.7z"></path> </g> </g> <g> <path style="fill:#FFFFFF;" d="M156.4,335.1l2.2-10.4l-5.4-21.8h10.6l1.8,12h0.3l6.8-12h10.8l-14.3,21.8l-2.2,10.4H156.4z"></path> <path style="fill:#FFFFFF;" d="M173.4,335.1l15.3-32.2h14.7l2,32.2h-10.2l-0.1-4.8h-9l-2.1,4.8H173.4z M189.3,322.8h5.5l-0.3-11.1 h-0.4L189.3,322.8z"></path> <path style="fill:#FFFFFF;" d="M221.4,335.4c-2.9,0-5.3-0.3-7.1-0.8c-1.8-0.6-3.1-1.5-4-2.7c-0.8-1.3-1.3-3-1.3-5.2 c0-1.1,0.1-2.3,0.3-3.7c0.2-1.4,0.5-2.9,0.8-4.5c0.5-2.5,1.1-4.7,1.7-6.5s1.3-3.3,2.1-4.6c0.8-1.2,1.8-2.2,3-2.9 c1.2-0.7,2.6-1.2,4.3-1.5c1.7-0.3,3.8-0.5,6.1-0.5c1.1,0,2.4,0,3.8,0.1s2.8,0.2,4.1,0.4c1.4,0.2,2.6,0.4,3.7,0.6l-1.5,7.3 c-0.9-0.1-1.9-0.2-2.9-0.3c-1-0.1-2-0.1-2.9-0.2s-1.6-0.1-2.2-0.1c-1.4,0-2.6,0-3.5,0.1c-0.9,0.1-1.7,0.2-2.2,0.5s-1,0.7-1.4,1.3 c-0.4,0.6-0.7,1.5-1,2.5c-0.3,1.1-0.6,2.5-0.9,4.2c-0.3,1.4-0.5,2.6-0.7,3.6c-0.2,1-0.2,1.8-0.2,2.5c0,0.7,0.1,1.3,0.4,1.7 c0.2,0.4,0.6,0.7,1.1,0.8c0.5,0.1,1.2,0.2,2,0.2c0.1,0,0.3,0,0.5,0s0.5,0,0.7,0s0.5,0,0.7,0l1-5h-3l1.5-7.1h12.2l-3.9,18.7 c-1.1,0.2-2.4,0.4-3.7,0.5c-1.4,0.1-2.7,0.3-4.1,0.4C223.7,335.4,222.5,335.4,221.4,335.4z M227.9,300.5c-1.6,0-2.9-0.2-3.8-0.5 c-0.9-0.4-1.6-0.9-2-1.5c-0.4-0.7-0.6-1.4-0.6-2.3c0-0.4,0-0.9,0.1-1.3c0.1-0.4,0.2-0.9,0.3-1.4h5c0,0.2-0.1,0.4-0.1,0.6 c0,0.2-0.1,0.4-0.1,0.5c0,0.3,0.1,0.6,0.4,0.8c0.3,0.2,0.8,0.3,1.5,0.3c0.8,0,1.4-0.1,1.7-0.3c0.4-0.2,0.6-0.5,0.7-0.8 c0.1-0.3,0.2-0.7,0.3-1.1h5c-0.2,1-0.4,2-0.8,2.9c-0.3,0.9-0.8,1.6-1.5,2.3c-0.6,0.6-1.4,1.1-2.5,1.5 C230.8,300.4,229.5,300.5,227.9,300.5z"></path> <path style="fill:#FFFFFF;" d="M236.9,335.1l6.6-32.2H258l0.4,15.1h0.4l6.6-15.1h14.5l-6.7,32.2h-10.1l3.8-18.1h-0.5l-7.9,18.1h-7 L251,317h-0.5l-3.8,18.1H236.9z"></path> <path style="fill:#FFFFFF;" d="M291,335.4c-3,0-5.3-0.2-7-0.7c-1.6-0.5-2.8-1.2-3.4-2.2c-0.7-1-1-2.4-1-4.1c0-1,0.1-2.2,0.3-3.6 c0.2-1.4,0.4-2.9,0.8-4.6l3.6-17.4h10.6l-3.9,19.2c-0.2,1.1-0.4,1.9-0.5,2.6c-0.1,0.7-0.2,1.2-0.2,1.6c0,0.4,0.1,0.7,0.2,0.8 c0.1,0.2,0.3,0.3,0.6,0.4s0.7,0.1,1.1,0.1c0.6,0,1.1,0,1.4-0.1s0.6-0.3,0.8-0.7c0.2-0.3,0.4-0.9,0.6-1.6c0.2-0.7,0.4-1.7,0.7-3 l3.9-19.2h10.6l-3.6,17.4c-0.5,2.5-1,4.6-1.4,6.4c-0.4,1.7-1,3.2-1.6,4.3c-0.6,1.2-1.4,2-2.4,2.7s-2.3,1.1-4,1.4 C295.6,335.3,293.6,335.4,291,335.4z"></path> <path style="fill:#FFFFFF;" d="M308.3,335.1l6.6-32.2h15.5c2.3,0,4.1,0.2,5.4,0.7c1.3,0.5,2.2,1.1,2.7,2.1c0.5,0.9,0.8,2.1,0.8,3.5 c0,0.5,0,1-0.1,1.5c0,0.5-0.1,1.1-0.2,1.7c-0.1,0.6-0.2,1.2-0.4,1.8c-0.2,1-0.4,2-0.7,2.9c-0.2,0.9-0.5,1.7-0.9,2.5 c-0.4,0.7-0.8,1.4-1.5,2c-0.6,0.6-1.4,1.1-2.4,1.5l1.8,12h-10.7l-0.9-10.7c-0.1,0-0.2,0-0.4,0s-0.3,0-0.4,0h-1.5l-2.2,10.7H308.3z M322.6,317.1h1.9c0.6,0,1.2,0,1.6-0.1c0.4,0,0.7-0.2,1-0.4c0.2-0.2,0.4-0.5,0.6-1c0.2-0.5,0.3-1.1,0.5-1.8 c0.1-0.5,0.2-0.9,0.2-1.2s0.1-0.6,0.1-0.9c0-0.3-0.1-0.6-0.2-0.8c-0.2-0.2-0.4-0.3-0.8-0.4s-0.9-0.1-1.6-0.1h-1.9L322.6,317.1z"></path> <path style="fill:#FFFFFF;" d="M351.3,335.4c-3,0-5.3-0.2-7-0.7c-1.6-0.5-2.8-1.2-3.4-2.2c-0.7-1-1-2.4-1-4.1c0-1,0.1-2.2,0.3-3.6 c0.2-1.4,0.4-2.9,0.8-4.6l3.6-17.4h10.6l-3.9,19.2c-0.2,1.1-0.4,1.9-0.5,2.6c-0.1,0.7-0.2,1.2-0.2,1.6c0,0.4,0.1,0.7,0.2,0.8 c0.1,0.2,0.3,0.3,0.6,0.4s0.7,0.1,1.1,0.1c0.6,0,1.1,0,1.4-0.1s0.6-0.3,0.8-0.7c0.2-0.3,0.4-0.9,0.6-1.6c0.2-0.7,0.4-1.7,0.7-3 l3.9-19.2h10.6l-3.6,17.4c-0.5,2.5-1,4.6-1.4,6.4c-0.4,1.7-1,3.2-1.6,4.3c-0.6,1.2-1.4,2-2.4,2.7s-2.3,1.1-4,1.4 C355.9,335.3,353.8,335.4,351.3,335.4z"></path> </g> <path style="fill:#FFFFFF;" d="M396.1,170.4c0.7-2.4,2.9-4.1,5.5-4.1H447c3.1,0,5.7,2.5,5.7,5.7c0,0.6-0.1,1.2-0.3,1.8l-20.2,60.7 h43.3c3.1,0,5.7,2.5,5.7,5.7c0,1.3-0.4,2.5-1.2,3.5L400.3,346c-1.9,2.5-5.5,2.9-8,1c-1.9-1.5-2.7-3.9-2-6.2l20.5-66.5h-37.8 c-3.1,0-5.7-2.5-5.7-5.7c0-0.5,0.1-1.1,0.2-1.6C367.7,267,396.1,170.4,396.1,170.4z"></path> <path style="fill:#FFFFFF;" d="M153.2,267c0.2,0.5,0.2,1.1,0.2,1.6c0,3.1-2.5,5.7-5.7,5.7H110l20.5,66.5c0.7,2.3-0.1,4.7-2,6.2 c-2.5,1.9-6.1,1.5-8-1L41,243.7c-0.8-1-1.2-2.2-1.2-3.5c0-3.1,2.5-5.7,5.7-5.7h43.3l-20.2-60.7c-0.2-0.6-0.3-1.2-0.3-1.8 c0-3.1,2.5-5.7,5.7-5.7h45.5c2.5,0,4.7,1.7,5.5,4.1C124.8,170.4,153.2,267,153.2,267z"></path> </svg> 