<?xml version="1.0" encoding="UTF-8"?> <svg xmlns="http://www.w3.org/2000/svg" xmlns:xlink="http://www.w3.org/1999/xlink" version="1.1" id="Layer_1" x="0px" y="0px" viewBox="0 0 1000 1000" style="enable-background:new 0 0 1000 1000;" xml:space="preserve"> <path style="fill:#FFFFFF;" d="M871.9,279.3c-2.3,24.5-5.2,49-6.9,73.6c-3.2,46.9-5.6,93.8-8.4,140.7c-0.1,1.2-0.5,2.3-1,5 c-9.5-0.5-19.1-0.4-28.5-1.8c-3-0.4-7.2-4.1-8-7.1c-5.5-19.1-9.9-38.6-15.5-57.7c-1.8-6.1-5.8-11.5-11.4-17.4 c-1.6,26.9-3.3,53.8-5,81.7c-14-0.9-26.7-1.8-39.1-2.6c1.7-35.4,3.4-69.7,5-104c1.6-35.6,3.1-71.2,4.7-106.8 c0.2-4.8,0.1-9.8,1.2-14.5c0.6-2.5,3.6-6.2,5.6-6.3c10.5-0.1,21,0.2,31.3,1.9c3,0.5,6.3,5.9,7.3,9.6c5.2,19.8,9.7,39.8,14.5,59.8 c1.1,4.6,2.4,9.2,6.5,13.7c1.7-26.3,3.3-52.7,5.1-80.8c14.7,1.1,28.7,2.1,42.6,3.1C871.9,272.8,871.9,276,871.9,279.3z"></path> <path style="fill:#FFFFFF;" d="M526.5,731.5c-13.5-0.8-26-1-38.3-2.6c-2.3-0.3-5.6-6.2-5.5-9.5c0.2-22.3,1.2-44.5,1.9-66.8 c0.1-4.4,0-8.8-2.3-13.8c-3,10-7.2,19.8-8.8,30c-1.7,10.4-8.8,7.3-14.5,7.8c-6.3,0.5-12,0.5-13.6-8.1c-1.8-9.3-4.8-18.4-7.3-27.7 c-1.3,0-2.6,0.1-4,0.1c0,27.7,0,55.5,0,83.4c-16.7,0-30.2,0-45.1,0c3.7-77.1,7.3-153.1,11-231.3c14.2,1.3,28.2,2,41.9,4.2 c2.8,0.4,5.6,6.3,6.7,10.1c4.7,16.7,8.7,33.5,13.2,50.3c0.8,3,2.4,5.8,4.1,9.9c8-20.8,15.8-40.1,22.9-59.8 c2.7-7.5,6.2-10.7,14.8-9.8c10.7,1.2,21.7,0.3,33.1,0.3C533.2,576.6,529.9,652.9,526.5,731.5z"></path> <path style="fill:#FFFFFF;" d="M600.1,504.4c11,0,21.2-1.1,31,0.5c4.7,0.8,11,6,12.3,10.4c5.4,18.5,9.1,37.6,13.5,56.4 c1.1,4.5,2.5,8.9,6.4,13.4c0.6-2.3,1.6-4.6,1.8-7c1.2-19.4,2.4-38.8,3.1-58.3c0.3-8.5,2.4-12,12.1-11.5c32.3,1.8,31.4,1.3,29,33.8 c-4.3,58.2-7.4,116.5-11.1,174.7c-0.5,7.2-1.4,14.4-2.2,23.3c-10.3-0.6-20.1-0.2-29.4-2c-3.4-0.7-7.2-5.9-8.4-9.9 c-7-21.8-13.3-43.9-20-65.8c-0.9-2.9-2.5-5.6-5.7-8c-1.7,27.3-3.3,54.5-5.1,83.1c-13.9-0.8-26.5-1.5-39-2.3 C592.2,657.6,596.1,581.4,600.1,504.4z"></path> <path style="fill:#FFFFFF;" d="M338.5,635.4c-22.4-2.9-22.3-2.9-23.4,17.2c-1.2,22.2-2.7,44.4-4,66.3c-14.2,0-27.7,0-42.6,0 c3.1-54.1,6-106.5,9-158.9c0.6-10,0.4-20.2,1.8-30.1c3.8-28.4,27.6-45.5,56.1-42.8c34.5,3.3,48,22.8,47.9,55.7 c-0.2,59.1-4.7,118.2-7.5,177.3c-0.1,1.2-0.7,2.3-1.1,3.7c-11.6,0-23.2,0.3-34.8-0.1c-9.2-0.4-6.4-7.3-6.1-12.7 C335.4,686.1,336.9,661.1,338.5,635.4z M316.4,589.7c22.7,4.3,23.1,4,24.3-15.1c0.1-2,0.6-4,0.6-6c0.2-7.6,1.6-15.6-0.2-22.7 c-1-3.9-7.4-8.1-11.8-8.7c-2.8-0.4-8.7,5.4-9.2,9.1C318.1,560.5,317.6,575,316.4,589.7z"></path> <path style="fill:#FFFFFF;" d="M231.4,468.4c-13.4-0.9-26.2-1.8-38.4-2.6c0-29.5,0-58.1,0-88.2c-5-0.4-11.2-1-19.3-1.7 c-1.9,29.6-3.8,58.1-5.7,87.9c-13.9-1-27.4-2-39.5-2.8c0-20-0.7-39.4,0.2-58.7c2-42.3,4.4-84.7,7.3-126.9 c2.1-29.9,24.4-46.9,56.5-45.3c36.4,1.9,50,26.9,49,64.8c-1.3,54.7-5.6,109.3-8.6,163.9C232.6,461.9,231.9,465.1,231.4,468.4z M173.9,332.6c6.2,0.7,11.4,1.9,16.5,1.7c2.5-0.1,6.9-2.7,7-4.3c0.9-13.9,1.9-28,0.9-41.8c-0.2-3.2-7.7-7.9-12.1-8.1 c-3.2-0.1-9.2,5.6-9.7,9.2C174.8,303.2,174.7,317.3,173.9,332.6z"></path> <path style="fill:#FFFFFF;" d="M504.9,481.9c-13.5-1.2-25.9-2.2-39.4-3.4c4.3-77.7,8.6-154.5,12.9-232.8c24.1,1.8,46.8,2.5,69.2,5.5 c17.4,2.4,30.5,18.3,30.5,37.4c0,19.3-1.6,38.8-5.3,57.7c-1.9,9.5-10.1,17.8-16,27.6c23.7,33.1,7.6,71.3,10.6,108.1 c-14.5,0-27.2,0-39.7,0c0-19.2,0.6-37.3-0.2-55.4c-0.4-9.4-2.9-18.9-5.5-28c-0.7-2.6-5.2-4.2-10.4-7.9 C509.3,423,507.2,451.8,504.9,481.9z M518.2,293.9c-1.1,14.4-2.2,28.9-3.3,43.3c17.8,2,18.8,1.2,20.3-13.4c0.2-2.3,0.6-4.7,1.4-6.8 C541.8,303.8,533.8,293,518.2,293.9z"></path> <path style="fill:#FFFFFF;" d="M633.4,443.1c2.6-49.7,4.5-94.2,7.5-138.6c2-29.5,25.4-49.5,53.8-47.9c31.1,1.8,53.2,22.4,52.1,50.7 c-1.7,46.6-4.4,93.2-7.5,139.8c-1.3,19.2-11,34-29.4,41.1c-19.9,7.7-38.7,4.8-56.4-7.3C638,470.3,633.4,455.2,633.4,443.1z M705.1,401.6c-0.9-6.1-2.5-11.3-2.3-16.4c0.8-24.7,2.6-49.4,2.7-74.1c0-4.3-5.8-11.7-9.5-12.1c-4-0.4-9.8,4.9-12.9,9.1 c-2.3,3.1-1.7,8.5-2,12.9c-1.4,17.8-2.9,35.5-3.8,53.3c-1,21.8-1.3,43.7-1.9,65.6c-0.2,7.9,5,10.6,11.7,11.1 c6.9,0.6,10.3-2.8,10.7-9.8c0.6-10.1,1.3-20.2,2.8-30.2C701.2,407.1,704.1,403.6,705.1,401.6z"></path> <path style="fill:#FFFFFF;" d="M263.7,563c-15.6,0-28.3,0-42.7,0c0.4-8.7,1.4-16.7,0.8-24.5c-0.3-4.2-3.5-8.3-5.4-12.4 c-4.8,2.7-10.2,4.7-14.2,8.2c-1.8,1.6-1.4,6.1-1.6,9.3c-1.7,36.8-3.3,73.7-4.8,110.5c-0.2,3.6-1.4,8.7,0.5,10.6 c3.8,3.9,9,7,14.2,8.5c1.6,0.5,6.8-5.1,7.2-8.4c1.8-12.3,2.2-24.8,3.3-38c-13.8-0.1-13.5-8.2-12.7-17.4c2.1-25,1.9-25,28-23 c26.9,2.1,27.1,2.1,25.3,28.8c-1.3,19.4-3.3,38.8-4.4,58.2c-1.9,33.2-32.4,45.3-55.7,42.3c-31.4-4.1-50.9-30.9-48.6-63 c2.8-38.8,5.1-77.6,7.1-116.4c1.1-20.7,7.7-38.4,26.9-48.4c20.4-10.7,40.8-7.3,59.6,4.5c12.8,8,16.1,21.7,17.1,35.7 C264.3,539.6,263.7,551.3,263.7,563z"></path> <path style="fill:#FFFFFF;" d="M782.1,657.4c-4.5-1.5-7.9-2.6-11.9-3.9c0-10.3-0.4-20.8,0.3-31.2c0.2-2.6,4.1-6.9,6.4-6.9 c13.8,0,27.6,0.8,41.3,1.9c1.9,0.1,5.1,3.6,4.9,5.3c-1.7,30.1-2.4,60.3-6.5,90.1c-3,21.8-30.6,35.9-54.1,33.2 c-35.1-4.1-49.3-35.8-47.7-64.9c2.1-37.6,4.9-75.2,6.1-112.8c1.3-41.1,28.8-63.5,68.6-54.5c21.2,4.8,33.2,18.8,35.2,42.6 c1,11.9,0.2,23.9,0.2,36.7c-14.2,0-25.4,0-36.6,0c-1.6,0-3.1-0.5-6.5-1c0.6-8.5,2-16.8,1.5-25c-0.2-3.8-3.7-7.5-5.7-11.3 c-4.8,2.6-10.5,4.4-14.1,8.1c-2.3,2.3-1.7,7.7-1.9,11.7c-1.7,36.8-3.3,73.7-4.8,110.5c-0.1,2.8-1,6.9,0.5,8.2 c4.1,3.7,9,7.3,14.2,8.8c1.5,0.5,6.9-5.8,7.4-9.4C780.8,681.6,781.1,669.5,782.1,657.4z"></path> <path style="fill:#FFFFFF;" d="M289.9,381.1c-1.6,29.5-3.1,58.1-4.7,86.6c-12.8,0-26.2,0-37.2,0c0-29.8-0.9-58.1,0.2-86.3 c1.5-37.2,4.6-74.2,7-111.4c0.6-8.5,1.4-17,1.6-25.5c0.1-6.5,2.7-9.9,9.5-9.4c19.8,1.6,39.7,2.2,59.3,5.1 c16.6,2.4,30.6,17.9,30.7,34.4c0.1,22.2-0.4,44.7-3.8,66.6c-4.6,29.4-19.3,40-49.1,39.9C299.7,381.1,296,381.1,289.9,381.1z M292.3,337c10.3,2.6,19,4.1,20.1-7.8c1.4-14.9,1.9-29.9,1.5-44.8c-0.1-2.8-6-7-9.7-7.5c-2.4-0.3-7.9,4.4-8.2,7.3 C294.2,301.4,293.5,318.8,292.3,337z"></path> <path style="fill:#FFFFFF;" d="M373.4,241.4c30.5,1.6,60,3.2,90.1,4.8c-0.8,15.2-1.5,29.9-2.3,44.6c-16.3,0-31.2,0-47.5,0 c0,14.3,0,28.9,0,44.8c10.6,1,22.2,2,34.5,3.2c-0.8,13.9-1.5,26.6-2.2,39.6c-12.3,0-23.5,0-36.8,0c0,16.9,0,33.9,0,51.8 c14.2,0.9,29,1.8,45.6,2.9c-0.9,15-1.8,29.3-2.7,44.9c-30.5-1.6-60.5-3.1-92.6-4.8C364.2,396.1,368.8,319.1,373.4,241.4z"></path> <path style="fill:#FFFFFF;" d="M591.1,254.8c2.1-0.9,2.9-1.5,3.6-1.5c42.7,0.2,35.7-3.2,34,34c-1.4,29.2-2.4,58.3-3.7,87.5 c-1.6,33.6-3.6,67.2-5,100.8c-0.4,9-4.4,12.2-13,11.5c-8.4-0.7-16.9-1.1-26.8-1.7C583.8,408.1,587.5,331.1,591.1,254.8z"></path> <path style="fill:#FFFFFF;" d="M538.5,732.8c3.7-78.2,7.3-154.3,10.9-230.9c12.9,0,25.2,0,39.5,0c-3.6,77.9-7.2,154.6-10.9,232.8 C563.7,734.1,551.7,733.5,538.5,732.8z"></path> </svg> 