<?xml version="1.0" encoding="UTF-8"?> <svg xmlns="http://www.w3.org/2000/svg" xmlns:xlink="http://www.w3.org/1999/xlink" version="1.1" id="Layer_1" x="0px" y="0px" viewBox="0 0 800 800" style="enable-background:new 0 0 800 800;" xml:space="preserve"> <path style="fill:#FFFFFF;" d="M142.9,533.9c8.8,0,17.6,0,26.5,0c0,32.9,0,65.6,0,98.5c15.6,0,31,0,46.5,0c0,8.3,0,16.3,0,24.6 c-0.4,0-0.9,0.1-1.3,0.1c-18.4,0-36.8,0-55.2,0c-0.5,0-1.1-0.1-1.4-0.5c-3.7-4.5-7.4-9-11-13.7c-2.5-3.3-3.8-7.1-3.9-11.2 c0-0.2-0.1-0.3-0.2-0.5C142.9,598.8,142.9,566.3,142.9,533.9z"></path> <path style="fill:#FFFFFF;" d="M375.4,278.3c1.2-1.5,2.4-3,3.5-4.6c9.6-13.6,19.1-27.2,28.6-40.7c12-17.2,24.1-34.3,36.1-51.5 c11.3-16.1,22.6-32.1,33.9-48.2c7.2-10.3,14.5-20.6,21.7-31c0.6-0.9,1.3-1.2,2.4-1.2c34.4,0,68.9,0,103.3,0c0.5,0,0.9,0,1.7,0 c-68.8,98-137.5,195.8-206.4,293.8c30.9,0,61.6,0,92.3,0c0,0.1,0.1,0.2,0.1,0.4c-47.9,24.4-95.8,48.8-143.8,73.2 c-2.2-2.8-4.4-5.6-6.5-8.3c-8.2-10.5-16.5-21-24.7-31.6c-5.7-7.3-10.1-15.3-12-24.6c-2.1-10.4-0.3-20.2,4.1-29.7 c3.2-6.9,7.7-12.9,12-19.1c9.6-13.7,19.3-27.5,28.9-41.2c7.9-11.2,15.8-22.4,23.7-33.7c0.4-0.6,0.7-1.2,1.1-1.8 C375.4,278.5,375.4,278.3,375.4,278.3z"></path> <path style="fill:#FFFFFF;" d="M375.4,278.3c0,0,0,0.1,0,0.1c-5.6,2.8-11.1,5.6-16.7,8.4c-20.6,10.5-41.1,21-61.7,31.4 c-15.2,7.8-30.5,15.5-45.7,23.3c-1,0.5-1.4,0.3-2-0.5c-7.2-9.2-14.4-18.4-21.6-27.6c-4.4-5.6-8.7-11.4-11.8-17.9 c-4.2-8.9-5-18.3-3.1-27.9c1.7-8.9,6-16.5,11.1-23.9c8.9-12.7,17.7-25.5,26.5-38.3c11.6-16.7,23.1-33.4,34.7-50.1 c9.2-13.4,18.5-26.7,27.7-40.1c3.1-4.6,6.3-9.1,9.5-13.6c0.3-0.4,1.1-0.7,1.6-0.7c5.5-0.1,11,0,16.5,0c25.8,0,51.5,0,77.3,0 c0.5,0,1,0,1.8,0c-41.5,59.1-82.8,117.9-124.3,177c1.1,0,1.9,0.1,2.7,0.1c25.4,0,50.8,0,76.1,0C374.5,278.1,374.9,278.3,375.4,278.3 z"></path> <path style="fill:#FFFFFF;" d="M564.3,569.1c-9.1,0-17.8,0-26.6,0c0-1.6,0-3.2,0-4.8c0-4.6-2.2-7-6.7-7.1c-8.8-0.1-17.6-0.1-26.5,0 c-4.2,0.1-6.4,2.5-6.4,6.7c0,21.1,0,42.1,0,63.2c0,4,2.1,6.4,6.1,6.6c5.3,0.2,10.6,0.1,15.9,0.1c3.3,0,6.6,0,9.9,0 c0.7,0,1.5,0,2.2-0.1c3.1-0.4,5.2-2.2,5.4-5.3c0.2-5.6,0.1-11.3,0.1-17.1c-6,0-12,0-18.1,0c0-8.3,0-16.4,0-24.7c0.5,0,1,0,1.5,0 c8.9,0,17.7,0,26.6,0c0.9,0,1.4,0.2,2,0.9c3.6,4.6,7.4,9.2,11,13.8c2.4,3.1,3.4,6.7,3.5,10.5c0.2,6.8,0.2,13.6-1.6,20.3 c-3.7,13.9-12.7,22.2-26.7,25c-4.2,0.8-8.5,1.1-12.8,1.2c-5.8,0.1-11.7,0.1-17.5-0.3c-9.3-0.7-17.7-3.8-24.2-10.9 c-4.9-5.3-7.4-11.6-8.7-18.6c-1.2-6.3-0.8-12.7-0.9-19c0-12.7,0-25.3,0-38c0-6.7,1.1-13.1,3.9-19.2c3.8-8.5,10.3-14,19-17.1 c5.2-1.8,10.6-2.7,16-2.6c6.5,0,13-0.1,19.5,0.3c7.7,0.5,14.9,2.6,21.2,7.3c6.7,4.9,10.5,11.7,12,19.7 C563.7,562.8,563.9,565.9,564.3,569.1z"></path> <path style="fill:#FFFFFF;" d="M327.4,657.1c-5.4,0-10.6,0-15.9,0c-2.2,0-4.3,0-6.5,0c-0.8,0-1.1-0.2-1.3-1 c-2.9-11.9-5.9-23.7-8.9-35.6c-0.1-0.2-0.1-0.4-0.2-0.8c-1.7,0.8-3.3,1.6-4.9,2.5c-10.6,5.4-21.2,10.8-31.8,16.2 c-0.8,0.4-1.2,1-1.5,1.9c-1.3,5.3-2.7,10.6-4,15.9c-0.1,0.3-0.2,0.6-0.3,0.9c-7.8,0-15.5,0-23.2,0c0-4.1-0.1-8.2,0-12.3 c0.1-4.7,1.7-9,2.9-13.5c3.2-11.6,6.4-23.1,9.5-34.6c3.6-13.1,7.2-26.2,10.9-39.2c2-7.2,3.9-14.3,5.9-21.5c0.6-2,0.5-2,2.6-2 c9,0,18.1,0,27.1,0c7.2,0,10.3,2.4,12.2,9.3c4.6,16.7,9.3,33.5,13.9,50.2c4.2,15.3,8.5,30.5,12.5,45.8c0.7,2.7,0.8,5.6,0.9,8.4 C327.5,650.7,327.4,653.8,327.4,657.1z M293.3,614.7c-0.1-0.4-0.1-0.8-0.2-1.2c-4.4-17.9-8.9-35.9-13.3-53.9c-0.3-1.3-1.1-1-2-1.1 c-1-0.1-1.3,0.3-1.5,1.2c-3.5,14.3-7,28.5-10.5,42.8c-1,4-2,8.1-3,12.2C273.1,614.7,283.1,614.7,293.3,614.7z"></path> <path style="fill:#FFFFFF;" d="M670.5,657.1c-0.6,0-1.1,0-1.6,0c-6.8,0-13.6,0-20.4,0c-1.1,0-1.6-0.3-1.8-1.4 c-2.8-11.5-5.7-23-8.5-34.5c-0.1-0.4-0.2-0.8-0.4-1.5c-1.3,0.7-2.6,1.3-3.9,2c-10.9,5.6-21.7,11.1-32.6,16.7 c-0.9,0.5-1.4,1.1-1.6,2.1c-1.3,5.3-2.7,10.5-4,15.8c-0.1,0.3-0.2,0.6-0.3,0.9c-7.8,0-15.5,0-23.3,0c0-3.3-0.1-6.5,0-9.7 c0.2-3,0.5-6,1-8.9c0.7-3.4,1.8-6.7,2.7-10c2.5-8.9,5-17.9,7.4-26.8c3.2-11.5,6.4-22.9,9.5-34.4c2.7-9.7,5.3-19.4,8-29 c0.1-0.4,0.3-0.8,0.4-1.3c0.9-2.9,0.9-2.9,4-2.9c8.9,0,17.7,0,26.6,0c6.3,0,9.6,2.5,11.3,8.6c4.2,15.2,8.4,30.3,12.6,45.5 c4.4,15.9,8.8,31.9,13.3,47.8c1.2,4.3,1.8,8.7,1.7,13.1C670.5,651.5,670.5,654.2,670.5,657.1z M636.4,614.7c-0.1-0.6-0.2-1-0.3-1.5 c-1.5-6.3-3.1-12.5-4.6-18.8c-2.9-11.6-5.7-23.2-8.5-34.8c-0.3-1.3-1.1-1-2-1.1c-0.8-0.1-1.2,0.1-1.5,1.1 c-3.8,15.8-7.7,31.5-11.6,47.3c-0.6,2.6-1.3,5.2-1.9,7.8C616.2,614.7,626.3,614.7,636.4,614.7z"></path> <path style="fill:#FFFFFF;" d="M365.7,632.5c15.7,0,31.1,0,46.6,0c0,8.2,0,16.3,0,24.6c-0.6,0-1.2,0-1.8,0c-18.2,0-36.5,0-54.7,0 c-0.6,0-1.4-0.3-1.7-0.7c-3.4-4.2-6.8-8.4-10.2-12.6c-3.1-4-4.6-8.5-4.6-13.6c0-31.6,0-63.3,0-94.9c0-0.4,0-0.8,0-1.3 c8.8,0,17.5,0,26.4,0C365.7,566.7,365.7,599.5,365.7,632.5z"></path> <path style="fill:#FFFFFF;" d="M427.3,657c0-41,0-82,0-123c8.7,0,17.4,0,26.2,0c0,41,0,81.9,0,123C444.9,657,436.1,657,427.3,657z"></path> </svg> 