<?xml version="1.0" encoding="UTF-8"?> <svg xmlns="http://www.w3.org/2000/svg" xmlns:xlink="http://www.w3.org/1999/xlink" version="1.1" id="Layer_1" x="0px" y="0px" viewBox="0 0 1000 1000" style="enable-background:new 0 0 1000 1000;" xml:space="preserve"> <path style="fill:#FFFFFF;" d="M746,928.4c-4.8-1.3-9.7-2.2-14.3-4.1c-12.3-5.1-19.7-14.3-21.5-28.6c8.2,0,16-0.1,23.9,0.1 c0.8,0,1.7,1.4,2.2,2.3c4.2,6.7,12.2,9.5,21.1,7.3c6.9-1.7,11-7,11.5-15.1c0.2-4.1,0-8.2,0-12.3c-0.6,0-1-0.1-1.1,0.1 C754.1,895.2,720,893,710,863.5c-4.4-12.9-4.1-25.9,1.3-38.5c10-23.3,38.1-28.9,56.4-11.3c0.2,0.2,0.5,0.3,1.3,0.6c0-3.1,0-6,0-9.3 c8.7,0,16.9,0,25.9,0c0,1.6,0,3.4,0,5.2c0,25.6,0,51.3,0,76.9c0,22.6-13,38-32.7,40.6c-0.4,0.1-0.8,0.5-1.1,0.8 C756,928.4,751,928.4,746,928.4z M769.2,846.1c0-8.5-3.4-15.1-9.7-18.4c-5.9-3.1-11.9-2.9-17.6,0.6c-11.6,7.4-11.7,27.6-0.2,35.1 c5.6,3.6,11.6,4,17.5,0.9C766.4,860.5,769.1,853.9,769.2,846.1z"></path> <path style="fill:#FFFFFF;" d="M105,617.8c6.3,0,12.6,0,19.4,0c0-11.4,0-22.3,0-33.5c6.8,0,13,0,19.7,0c0,11.1,0,22.1,0,33.5 c11.2,0,22,0,33,0c0,6.4,0,12.3,0,18.8c-11,0-21.7,0-33,0c0,3.7,0,6.8,0,9.9c0,13.8,0,27.6,0,41.4c0.1,14.1,6.6,20,20.5,17.7 c6.1-1,11.9-3.7,18.3-5.7c0,5.4,0.1,10.9-0.1,16.5c0,1-1.2,2.4-2.1,2.8c-11.7,5.5-23.8,7.6-36.3,3.6c-12.7-4-20-13.2-20.4-26.6 c-0.5-17.5-0.4-34.9-0.6-52.4c0-2.2,0-4.3,0-7.2c-6.4,0-12.4,0-18.5,0C105,630.4,105,624.1,105,617.8z"></path> <path style="fill:#FFFFFF;" d="M879,723.6c-6.6,0-13.2,0-20.2,0c0-47.5,0-94.4,0-141.8c6.9,0,13.6,0,20.2,0 C879,629.1,879,676.4,879,723.6z"></path> <path style="fill:#FFFFFF;" d="M693.1,103.3c-30.3,34.8-59.9,68.7-89.8,102.9c10,10.9,19.7,21.7,29.6,32.1 c12.4,13.1,24.2,26.7,30.5,44c14.2,38.9,9.1,75.3-17,107.5c-38.9,47.9-78.8,95.1-118.2,142.6c-3.4,4.1-6.6,8.3-10.3,13.1 c-4.7-5.6-9.1-10.8-13.5-16.1c-38.4-46.2-76.8-92.4-115.2-138.7c-32.4-39.1-33.7-94.7-2.5-134.6c9.4-12.1,23.4-18,37.9-21.7 c26-6.7,47.5,1.8,65.6,20.5c3.9,4.1,7.3,8.6,11.3,13.4c-16.8,19.5-33.4,38.8-50.2,58.3c22.1,26.6,44.1,53.1,66.4,79.9 c24-28.8,47.8-57.3,71.7-85.9c-15.2-18.1-30.2-36.1-45.3-54.1c-15.2-18.1-30.3-36.3-45.5-54.4c-4.1-4.9-4.2-7.4,0-12.2 c24.7-27.9,49.4-55.8,74.2-83.6c7.9-8.8,17.8-13,29.7-12.9c28.3,0.1,56.7,0,85,0C688.8,103.3,690.4,103.3,693.1,103.3z"></path> <path style="fill:#FFFFFF;" d="M290.9,103.3c2.8,0,4.4,0,6,0c28.5,0,57,0,85.5,0c10.9,0,20.4,3.6,27.7,11.6 c25.4,28.2,50.5,56.6,75.6,85.1c1.5,1.7,2.4,5.6,1.5,7.5c-0.9,1.9-4.4,3.6-6.7,3.6c-32.2,0.2-64.3,0.2-96.5,0.1 c-1.6,0-3.8-0.7-4.7-1.8C350,174.5,320.9,139.4,290.9,103.3z"></path> <path style="fill:#FFFFFF;" d="M593.2,629.7c0-16.2,0-31.5,0-47.2c6.6,0,13,0,19.7,0c0,46.8,0,93.6,0,140.8c-5.9,0-11.7,0-18,0 c0-4.6,0-8.9,0-13.9c-23.1,26.4-62.1,17.7-77.8,0.6c-19.9-21.7-20-56.9-0.4-78.3C533.8,612.9,570,606.5,593.2,629.7z M558.2,707.7 c20.1,0,36.6-16.7,36.6-37.1c0-21.1-16-37.7-36.4-37.7c-20.1,0-36.5,17-36.4,37.8C522.2,691,538.5,707.7,558.2,707.7z"></path> <path style="fill:#FFFFFF;" d="M396.2,926.6c-9.2,0-17.5,0-26,0c0-40.7,0-81,0-121.8c8.4,0,16.6,0,25.5,0c0,2.9,0,5.9,0,10.3 c7.7-8.7,16.3-12.2,26.5-11.8c14.4,0.6,24.7,7.6,30.7,20.4c6.4,13.6,6.5,27.7,1.2,41.7c-9.8,25.9-41.5,30.3-58,12.1 C396.2,894.2,396.2,910.1,396.2,926.6z M431.5,845.7c0-9.9-4.7-16.9-12.7-19.3c-9.8-2.9-19.3,2.4-22.3,12.3 c-3.5,11.8,1.7,23.7,11.9,26.7C420.6,869.2,431.6,859.9,431.5,845.7z"></path> <path style="fill:#FFFFFF;" d="M375.7,696.6c-8.7,22.6-39.3,35.1-64.1,26.7c-27.8-9.4-43.5-40.7-34.9-69.5 c8.5-28.3,36.7-44.6,64.8-37.5c27.8,7,45.8,35.1,39.9,63c-28.6,0-57.4,0-86.2,0c2.4,17.6,23.5,35.8,47.6,25.5c2.3-1,4.8-2,6.4-3.7 c4.2-4.7,9.3-4.9,14.9-4.5C367.8,696.9,371.5,696.6,375.7,696.6z M361.8,663.5c0.7-15.3-16.1-30.5-33.4-30.6 c-17.2,0-34,15.2-33.3,30.6C317.3,663.5,339.6,663.5,361.8,663.5z"></path> <path style="fill:#FFFFFF;" d="M785.3,614.8c32.2,0,57.3,24.3,57.2,55.4c0,30.9-25.8,56.1-57.1,55.9c-31.6-0.2-57.4-25.7-57.2-56.6 C728.3,639.3,753.9,614.8,785.3,614.8z M785.2,707.7c20.7,0.1,37.3-16.6,37.3-37.4c0-20.4-16.8-37.4-37-37.3 c-20.1,0.1-37.1,17.1-37.3,37.3C748.1,690.5,765,707.6,785.2,707.7z"></path> <path style="fill:#FFFFFF;" d="M266.7,812.8c-9.3,0-18.1,0-26.9,0c-3.9-8.7-6.8-10.8-14.1-10.4c-4.3,0.2-7.4,2.1-8.6,6.3 c-1.2,4.3,0,8.2,4,10.3c3.9,2.1,8.1,3.7,12.3,5.4c5.4,2.1,11,3.8,16.3,6.2c10.6,4.6,18,11.8,18.4,24.3c0.4,13.6-5.6,23.7-17.7,29.2 c-15.5,7.1-31.2,6.1-46.1-2.1c-9.7-5.4-14.6-14.1-14.9-26c8.6,0,16.8-0.1,25.1,0.1c0.9,0,2.1,1.7,2.6,2.9c2.9,8,11.6,11.4,19.2,7.5 c6-3.1,7.2-10.8,1.9-14.9c-3.6-2.7-8.1-4.4-12.4-6.1c-5.9-2.3-12-3.9-17.8-6.4c-11.6-4.9-18.4-13.4-18.3-26.5 c0.1-13.1,6.3-22.3,18.3-27.2c14.2-5.8,28.7-5.6,42.6,1.2C260.7,791.8,266,800.6,266.7,812.8z"></path> <path style="fill:#FFFFFF;" d="M415.5,723.3c-7.1,0-13.2,0-19.7,0c0-35.2,0-70.2,0-105.5c6.1,0,11.9,0,18.2,0c0,3.2,0,6.2,0,10.3 c1.4-1.1,2-1.5,2.5-2c18.5-18.3,52.9-14.3,66.7,7.8c4.3,7,6.2,14.7,6.3,22.8c0.2,21.1,0.1,42.3,0,63.4c0,1-0.3,1.9-0.4,3.1 c-6.4,0-12.7,0-19.6,0c0-2.2,0-4.1,0-6.1c-0.1-19.6,0.4-39.3-0.6-58.9c-1.3-24.4-20.8-28.6-35.8-23.4c-11.5,3.9-16.3,13.6-16.9,24.8 c-0.8,15.1-0.5,30.3-0.6,45.4C415.5,711,415.5,717,415.5,723.3z"></path> <path style="fill:#FFFFFF;" d="M546.4,852.3c-19,0-37.8,0-56.5,0c0.1,7.6,3.7,12.7,10,14.7c6.6,2.1,12.6,0.3,17-5.1 c0.8-1,2.3-2.2,3.4-2.2c8.1-0.2,16.3-0.1,24.4-0.1c-1.9,18.2-23.1,31.4-45.6,28.6c-23.9-2.9-38.3-23.6-34.8-50 c3.2-23.9,23.8-38.5,49-34.6C536.5,807.3,550.4,827.3,546.4,852.3z M520.6,837.4c-0.6-8.5-7-13.9-15.5-13.6 c-8.3,0.3-14.7,6.1-14.8,13.6C500.4,837.4,510.5,837.4,520.6,837.4z"></path> <path style="fill:#FFFFFF;" d="M729.1,617.6c-5.6,13.6-11,26.7-16.4,39.7c-13.3,32.2-26.8,64.4-40,96.7c-1.5,3.7-3.4,5-7.3,4.7 c-5-0.4-10-0.1-15.6-0.1c4.6-11.3,9-22.2,13.6-33c1.4-3.2,1.3-5.8,0-8.9c-12.8-31-25.4-62.1-38-93.2c-0.7-1.7-1.3-3.4-2.2-5.9 c7,0,13.4-0.2,19.8,0.2c1.1,0.1,2.5,2.2,3.1,3.7c9.4,24.3,18.6,48.7,27.9,73.1c0.4,1.1,0.9,2.1,1.7,4.2c1-2.2,1.7-3.7,2.3-5.3 c9.3-23.8,18.6-47.7,27.7-71.6c1.3-3.3,2.8-4.6,6.4-4.4C717.6,617.8,723,617.6,729.1,617.6z"></path> <path style="fill:#FFFFFF;" d="M334,804.7c8.8,0,16.8,0,25.1,0c0,27.5,0,54.8,0,82.5c-8.3,0-16.5,0-25,0c0-3.1,0-6,0-8.1 c-6.1,2.9-12,6.9-18.4,8.4C296,892,278.8,880,277.4,860c-1.3-18.2-0.3-36.5-0.3-55.1c8.1,0,16.2,0,25,0c0,1.7,0,3.5,0,5.2 c0,13.1-0.1,26.3,0,39.4c0.1,12.3,7.7,18.9,19.2,17c7.7-1.2,12.4-7.2,12.6-16.7c0.2-13.1,0.1-26.3,0.1-39.4 C334,808.6,334,806.8,334,804.7z"></path> <path style="fill:#FFFFFF;" d="M635,867.6c11.2,0,21.8,0,32.8,0c0,6.6,0,12.8,0,19.5c-19,0-38.3,0-57.9,0c0-34.4,0-68.8,0-103.7 c8.3,0,16.5,0,25.1,0C635,811.4,635,839.1,635,867.6z"></path> <path style="fill:#FFFFFF;" d="M220.2,722.6c-7.1,0-13.5,0-20.3,0c0-34.9,0-69.5,0-104.4c6.7,0,13.2,0,20.1,0c0,3.9,0,7.6,0,11.4 c0.3,0.3,0.7,0.6,1,0.9c6.4-9.9,15.3-14.7,26.7-14.7c11.1,0,20.1,4.7,28.5,11.8c-3.7,6.1-7.1,11.9-10.7,17.8 c-3.4-2.4-6.2-4.6-9.3-6.5c-9.9-5.8-19.8-4-27.3,4.8c-6.1,7.2-8.7,15.6-8.7,24.9C220.2,686.4,220.2,704.2,220.2,722.6z"></path> <path style="fill:#FFFFFF;" d="M577.5,887.3c-8.8,0-16.7,0-25.1,0c0-27.4,0-54.7,0-82.4c8,0,16.3,0,25.2,0c0,3.6,0,7.3,0,12.4 c7.3-8.6,15-13.6,25.5-13.6c0,8.9,0,17.6,0,26.6c-4.4,0.4-8.9,0.4-13.2,1.2c-7.6,1.3-11.6,5.4-11.9,13.1 c-0.5,11.9-0.4,23.9-0.5,35.9C577.5,882.6,577.5,884.7,577.5,887.3z"></path> <path style="fill:#FFFFFF;" d="M699.7,887.3c-8.5,0-16.6,0-25.1,0c0-27.5,0-54.8,0-82.4c8.3,0,16.5,0,25.1,0 C699.7,832.2,699.7,859.5,699.7,887.3z"></path> <path style="fill:#FFFFFF;" d="M534.2,113.8c-24,4.4-37.6,18.4-41.6,41.7c-3.9-23.7-17.8-37.3-42.1-41.8c11.7-1.3,21-5.6,28.6-13.3 c7.7-7.6,12.1-17,13.3-28.9C496.9,95.5,510.1,109.5,534.2,113.8z"></path> <path style="fill:#FFFFFF;" d="M687.3,768.6c9,0,14.9,5.4,14.9,13.7c0,8.3-5.9,13.7-14.9,13.7c-8.9,0.1-15.2-5.5-15.2-13.5 C671.9,774.2,678.1,768.6,687.3,768.6z"></path> <path style="fill:#FFFFFF;" d="M292.8,784.3c0.1-6.5,4.6-10.8,11.1-10.7c6.4,0.1,11,5,10.8,11.2c-0.2,6.2-5.1,10.8-11.4,10.7 C297,795.4,292.7,790.9,292.8,784.3z"></path> <path style="fill:#FFFFFF;" d="M344.3,784.6c0,6.3-4.7,11-11.1,11c-6.3,0-11.2-4.9-11.1-11c0.1-6.2,4.9-10.9,11.2-10.9 C339.9,773.6,344.4,778.1,344.3,784.6z"></path> </svg> 