<?xml version="1.0" encoding="utf-8"?>
<!-- Generator: Adobe Illustrator 22.0.0, SVG Export Plug-In . SVG Version: 6.00 Build 0)  -->
<svg version="1.1" id="Layer_1" xmlns="http://www.w3.org/2000/svg" xmlns:xlink="http://www.w3.org/1999/xlink" x="0px" y="0px"
	 viewBox="0 0 1056.6 202" style="enable-background:new 0 0 1056.6 202;" xml:space="preserve">
<path style="fill:#FFFFFF;" d="M150.9,87.8c0.6-0.9,1.2-1.6,1.7-2.4c8.6-13.3,17.1-26.6,25.7-39.9c5.9-9.2,16.7-13.7,27.4-11.4
	c10.8,2.4,18.9,11.1,20.3,22.1c0.7,5.5-0.2,10.7-2.9,15.6c-0.6,1.1-1.3,2.2-2,3.3c-15.8,24.5-31.5,49-47.3,73.5
	c-2.1,3.3-4.4,6.3-7.6,8.7c-11.5,8.5-27.7,6.1-36.2-5.3c-0.9-1.2-1.7-2.5-2.5-3.8c-8-12.5-16-25-24-37.5c-0.6-0.9-1.2-1.7-1.8-2.7
	c-1.1,0.7-1.6,1.7-2.1,2.6c-7.6,11.7-15.1,23.5-22.7,35.3c-1.1,1.7-2.1,3.5-3.3,5.1c-6.4,8.8-15.3,12.6-25.9,10.7
	c-10.7-1.9-17.6-8.5-20.5-19c-2-7.2-0.7-14.1,3.2-20.4c2.5-4,5.1-8,7.7-11.9c13.5-21,27-42,40.5-62.9c1.7-2.7,3.6-5.3,6.1-7.5
	c11.1-9.7,28.1-8.2,37.4,3.4c1,1.3,1.9,2.6,2.8,4c8.1,12.6,16.1,25.2,24.2,37.8C149.2,85.9,149.7,87,150.9,87.8z"/>
<path style="fill:#FFFFFF;" d="M813.2,153c1.9-1.7,13.9-8.7,16.5-9.6c0.4,0.6,0.9,1.2,1.3,1.8c2.1,2.9,4.9,4.8,8.4,5.5
	c3.5,0.7,7,0.8,10.5-0.2c5-1.3,7.9-4.6,8.9-9.6c0.5-2.7,0.4-5.5,0.2-8.2c-0.8-0.4-1.1,0.2-1.5,0.5c-5.7,5.5-12.6,7.1-20.2,6.5
	c-17.2-1.5-28.7-15.6-29.3-31.5c-0.4-11.2,3.5-20.7,12.2-27.9c7.7-6.3,16.7-8.1,26.4-6.2c3.9,0.8,7.3,2.6,10.2,5.2
	c0.5,0.5,1.1,1,1.8,1.6c0.9-1.9,0-3.8,0.7-5.5c0.4-0.1,0.8-0.3,1.2-0.3c5.5,0,11,0,16.5,0c0.3,0,0.6,0.2,1,0.4
	c0.1,0.8,0.2,1.7,0.2,2.5c0,20,0,40,0,60c0,2.5-0.3,5-0.9,7.3c-2.1,9.1-7.5,15.5-15.9,19.5c-3.6,1.7-7.5,2.8-11.4,3.2
	c-6.9,0.8-13.7,0.5-20.4-1.8c-6.5-2.2-11.9-6-15.7-11.8C813.7,154.1,813.4,153.5,813.2,153z M859.2,106.4c0-7.6-4.8-13.4-12.3-14.7
	c-1.8-0.3-3.6-0.3-5.5-0.2c-8.1,0.6-13.6,6.6-13.7,14.7c-0.1,7.4,4.3,13.2,11.4,14.8c2.2,0.5,4.5,0.6,6.7,0.3
	C854,120.5,859.3,114.6,859.2,106.4z"/>
<path style="fill:#FFFFFF;" d="M491.2,132.1c-0.7,0.5-1,0.6-1.2,0.9c-5.6,5.5-12.5,7.2-20.2,6.6c-15.2-1.1-26.6-12.7-29-26.8
	c-2-12,1-22.5,9.8-30.9c8-7.6,17.6-9.9,28.4-7.8c3.9,0.8,7.3,2.6,10.2,5.3c0.5,0.5,0.9,1.3,2,1.2c0.1-1.6,0.2-3.3,0.3-5.1
	c2.1-0.8,4.3-0.3,6.4-0.4c2-0.1,4.1-0.1,6.1,0c2.1,0.1,4.3-0.4,6.6,0.5c0,1,0,1.9,0,2.9c0,19.2,0,38.5,0,57.7
	c0,3.5-0.3,6.9-1.2,10.2c-1.9,7.2-6.1,12.7-12.4,16.7c-5,3.1-10.6,4.7-16.5,5.2c-6.3,0.6-12.5,0.1-18.5-1.9
	c-6.4-2.1-11.7-5.8-15.6-11.4c-0.5-0.7-0.8-1.5-1.2-2.2c2.1-1.7,12.8-8,16.4-9.7c0.4,0.5,0.9,1,1.3,1.6c2.7,3.9,6.5,5.8,11.2,6.2
	c2.7,0.2,5.4,0.2,8-0.5c4.5-1.3,7.5-4.1,8.7-8.7C491.6,138.8,491.5,135.7,491.2,132.1z M476,91.4c-1,0-1.6,0.1-2.2,0.1
	c-7.9,0.6-13.4,6.1-13.9,13.9c-0.4,7.1,3.1,12.8,9.6,15.2c2.9,1,5.9,1.2,8.9,0.8c7.5-1,12.6-6.6,12.9-14.1c0.3-8-4.4-14.1-12.1-15.5
	C478.1,91.5,476.9,91.5,476,91.4z"/>
<path style="fill:#FFFFFF;" d="M599.8,140.2c-0.1-0.8-0.2-1.7-0.2-2.5c-0.3-25.2-0.1-59.6,0.3-62.2c2.4-0.5,16.1-0.6,19,0
	c0.2,1.4,0.3,2.8,0.5,4.5c0.6-0.4,1-0.6,1.2-0.9c2.9-3,6.5-4.6,10.5-5.3c3.3-0.6,6.6-0.7,10-0.1c4.3,0.7,7.9,2.7,10.8,5.9
	c0.5,0.6,1,1.1,1.6,1.8c0.4-0.3,0.9-0.6,1.2-1c3.2-3.7,7.4-5.8,12.2-6.7c4.4-0.7,8.8-0.7,13.1,0.5c7.6,2.2,12.6,7.1,15.4,14.4
	c1.3,3.3,1.9,6.8,1.9,10.4c0,13,0,26,0,39c0,0.6-0.1,1.3-0.2,2c-0.5,0.1-0.8,0.4-1.2,0.4c-5.7,0-11.4,0-17.1,0
	c-0.2,0-0.4-0.1-0.7-0.2c-0.9-1-0.5-2.2-0.5-3.4c0-11.2,0-22.4,0-33.6c0-1.3,0-2.6-0.2-3.9c-0.6-4.6-3.4-7.5-7.5-8
	c-5.1-0.6-8.9,1.4-10.7,5.8c-0.9,2.2-1.1,4.6-1.1,7c0,10.8,0,21.5,0,32.3c0,1.2,0,2.3-0.1,3.6c-2.3,0.7-4.4,0.3-6.5,0.4
	c-2,0.1-4.1,0-6.1,0c-2.1,0-4.3,0-6.4-0.1c-0.7-1.3-0.5-2.5-0.5-3.6c0-10.9,0-21.7,0-32.6c0-1,0.1-2,0-2.9c-0.3-1.7-0.5-3.4-1.1-5
	c-1.1-2.8-3.4-4.4-6.4-4.8c-6.1-0.9-10.6,2.3-11.6,8.4c-0.3,1.7-0.4,3.4-0.4,5.1c0,10.5,0,21.1,0,31.6c0,1.2,0.2,2.4-0.3,3.5
	c-0.3,0.1-0.6,0.3-0.9,0.3c-5.7,0-11.4,0-17.1,0C600.6,140.5,600.3,140.4,599.8,140.2z"/>
<path style="fill:#FFFFFF;" d="M568.7,80.2c0.1-1.5,0.3-3.1,0.4-4.7c2.2-0.6,4.3-0.3,6.4-0.3c2.1-0.1,4.3,0,6.4,0
	c2.1,0,4.3-0.1,6.3,0.1c0.4,2.7,0.5,61.1,0.1,64.9c-0.4,0.1-0.9,0.4-1.4,0.4c-5.6,0-11.2,0-16.8,0c-0.3,0-0.6-0.1-0.9-0.2
	c-0.9-1.5,0-3.2-0.7-4.9c-0.4,0.2-0.8,0.3-1,0.5c-5.7,5.2-12.6,6.8-20,6.3c-9.4-0.7-16.7-5.1-22.3-12.6c-9.6-12.9-9.3-32,0.7-44.5
	c7.9-9.9,18.3-13.5,30.7-11c3.9,0.8,7.3,2.5,10.3,5.1C567.4,79.6,567.7,80.3,568.7,80.2z M569,108.2c-0.1-1.2-0.2-2.5-0.4-3.8
	c-0.1-0.9-0.4-1.9-0.7-2.8c-2-5.3-5.8-8.4-11.3-9.4c-1.8-0.3-3.6-0.3-5.4-0.1c-6.6,0.6-11.6,5.3-12.8,11.7c-0.4,2.1-0.5,4.2-0.2,6.4
	c1,7.5,5.9,12.5,13.4,13.4c6.7,0.7,14.5-2.1,16.8-11.2C568.7,111.1,568.8,109.7,569,108.2z"/>
<path style="fill:#FFFFFF;" d="M391.9,115.7c-5.2,0.1-10.3,0-15.3,0c-5.1,0-10.1,0-15.2,0c-5,0-10,0-14.8,0c-0.6,0.9-0.2,1.3,0,1.8
	c1.5,2.9,3.8,5,6.9,6c5.8,1.9,11.6,2,17.1-1.2c1.1-0.6,2.1-1.5,3.3-2.3c1.7,0.7,3.3,1.8,5,2.7c1.8,1,3.5,2,5.3,3.1
	c1.7,1,3.3,1.9,5.2,3c-0.4,0.7-0.6,1.3-1,1.7c-4.9,6.1-11.4,9.7-19.1,11.2c-7.2,1.3-14.4,1.1-21.4-1.2c-13-4.4-20.6-13.5-22.7-27.1
	c-0.9-5.7-0.5-11.4,1.4-16.9c4-11.9,12.2-19.3,24.4-22.1c6.6-1.6,13.3-1.4,19.7,0.9c11.3,4.1,18.2,12.2,21.1,23.8
	c1.2,5,1.2,10,0.6,15.1C392.3,114.4,392.1,114.8,391.9,115.7z M345.5,100.9c1.5,0.1,2.4,0.1,3.3,0.1c7.3,0,14.6,0,21.9,0
	c0.8,0,1.7,0.3,2.4-0.8c-1.6-4.8-4.8-7.9-9.8-9.1c-3.2-0.7-6.4-0.6-9.5,0.5C349.5,93.2,346.8,96.2,345.5,100.9z"/>
<path style="fill:#FFFFFF;" d="M317.9,140.6c-6.6,0-12.8,0-18.9,0c-1-1.3-0.6-2.5-0.7-3.6c0-10.3,0-20.6,0-31c0-1.4,0-2.8-0.1-4.2
	c-0.1-1.1-0.3-2.1-0.6-3.2c-1.2-3.7-3.7-6-7.5-6.9c-2.3-0.6-4.7-0.5-7,0.1c-3.7,1-6.1,3.4-7.3,7c-0.7,2.1-0.8,4.2-0.8,6.4
	c0,10.4,0,20.9,0,31.3c0,1.2,0,2.3-0.1,3.6c-2.3,0.6-4.4,0.3-6.5,0.3c-2,0.1-4.1,0-6.1,0c-2.1,0-4.3,0-6.5,0
	c-0.2-0.8-0.4-1.3-0.5-1.9c-0.1-1.6,0-3.2,0-4.8c0-18.3,0-36.6,0-54.8c0-1.2-0.2-2.3,0.2-3.3c0.4-0.2,0.5-0.4,0.7-0.4
	c5.6,0,11.2-0.1,16.8-0.1c0.5,0,1.1,0.1,1.6,0.2c0.8,1.5,0.1,3.2,0.6,4.9c0.5-0.3,0.8-0.5,1.1-0.7c3-3,6.6-4.7,10.7-5.5
	c4.7-0.9,9.4-1,14,0.4c7.5,2.3,12.5,7.4,15.1,14.7c1.3,3.5,1.8,7.1,1.8,10.8c0,12.5,0,24.9,0,37.4
	C318.1,138.3,318,139.2,317.9,140.6z"/>
<path style="fill:#FFFFFF;" d="M757.9,75.4c0.1,1.8,0.2,3.2,0.4,5.1c0.8-0.7,1.3-1,1.7-1.4c2.2-2.1,4.9-3.5,7.8-4.4
	c4.7-1.5,9.5-1.7,14.3-0.8c8.2,1.7,13.8,6.6,17,14.3c1.6,3.8,2.1,7.9,2.1,12c0,11.2,0,22.4,0,33.5c0,1.5,0,3,0,4.5
	c0,0.6-0.1,1.3-0.2,2c-2.2,0.6-4.3,0.2-6.4,0.3c-2,0.1-4.1,0-6.1,0c-2.1,0-4.3,0.1-6.4-0.1c-0.6-1.3-0.4-2.5-0.4-3.6
	c0-10.7,0-21.5,0-32.2c0-1.6-0.1-3.2-0.4-4.8c-1-4.7-4.4-7.7-9.1-8.2c-0.5-0.1-1.1-0.1-1.6-0.1c-6.9-0.1-11.1,3.6-12,10.4
	c-0.2,1.6-0.3,3.2-0.3,4.8c0,10,0,20,0,30c0,1.2,0.2,2.4-0.3,3.6c-2.1,0.6-4.2,0.2-6.4,0.3c-2,0.1-4.1,0-6.1,0c-2.1,0-4.3,0.2-6-0.1
	c-0.4-0.3-0.5-0.4-0.5-0.5c-0.1-0.1-0.1-0.2-0.1-0.3c0-20.4-0.1-40.8-0.1-61.3c0-0.8,0-1.5,0.1-2.3c0-0.2,0.1-0.4,0.2-0.6
	c0.3-0.1,0.6-0.3,0.9-0.3c5.4,0,10.7-0.1,16.1-0.1C756.3,75.1,757,75.3,757.9,75.4z"/>
<path style="fill:#FFFFFF;" d="M423.4,56.9c0.3,6.1-0.1,11.9,0.2,17.8c0.8,0.1,1.4,0.3,2,0.3c2.6,0,5.2,0,7.7,0
	c1.1,0,2.1,0.1,3.3,0.1c0.6,1.6,0.3,3.1,0.3,4.5c0.1,1.6,0,3.2,0,4.8c0,1.5,0,3,0,4.5c0,1.5,0.2,3-0.2,4.6c-2.2,0.5-4.3,0.2-6.4,0.3
	c-2.1,0.1-4.3-0.2-6.5,0.3c-0.1,0.7-0.3,1.3-0.3,1.9c0,6.7,0,13.3,0,20c0,0.1,0,0.2,0,0.3c-0.1,3.1,1,5.6,5.6,6.1
	c1.6,0.2,3.2,0.1,4.8,0.2c0.8,0,1.7,0,2.7,0c0.7,3,0.3,5.9,0.3,8.7c0,2.9,0.2,5.8-0.1,8.8c-0.7,0.1-1.3,0.3-1.9,0.4
	c-4.3,0.4-8.6,0.5-12.9,0c-2.6-0.3-5.1-0.9-7.5-1.9c-4.2-1.7-7.1-4.7-8.8-9c-1-2.5-1.5-5.1-1.7-7.8c-0.1-1.8-0.2-3.7-0.2-5.5
	c0-6.3,0-12.7,0-19c0-1,0.2-2.2-0.5-3.2c-3.1-0.6-6.3,0.1-9.6-0.4c-0.1-0.6-0.4-1-0.4-1.5c0-5.2,0-10.3,0-15.5
	c0-0.4,0.1-0.8,0.2-1.4c3.3-0.9,6.7,0.2,10.1-0.7c0.5-3.9-0.1-7.9,0.3-12C410.4,60.7,416.8,58.9,423.4,56.9z"/>
<path style="fill:#FFFFFF;" d="M727.4,140.1c-2.8,0.5-15.4,0.6-19.2,0.2c-0.1-0.5-0.3-1.1-0.4-1.7c-0.1-0.7,0-1.5,0-2.3
	c0-19,0-38.1,0-57.1c0-1.3-0.3-2.6,0.4-3.9c0.5-0.1,1-0.2,1.5-0.2c5.5,0,11,0,16.5,0.1c0.3,0,0.6,0.2,1,0.3c0.1,0.5,0.2,1,0.2,1.5
	C727.4,98.1,727.4,119,727.4,140.1z"/>
<path style="fill:#FFFFFF;" d="M729.3,57.7c0,6.4-5.2,11.7-11.6,11.8c-6.5,0.1-11.9-5.3-12-11.9c0-6.4,5.3-11.7,11.7-11.8
	C724,45.8,729.3,51.1,729.3,57.7z"/>
</svg>
