<?xml version="1.0" encoding="utf-8"?>
<!-- Generator: Adobe Illustrator 26.1.0, SVG Export Plug-In . SVG Version: 6.00 Build 0)  -->
<svg version="1.1" id="Layer_1" xmlns="http://www.w3.org/2000/svg" xmlns:xlink="http://www.w3.org/1999/xlink" x="0px" y="0px"
	 viewBox="0 0 1056.6 202" style="enable-background:new 0 0 1056.6 202;" xml:space="preserve">
<path style="fill:#FFFFFF;" d="M70.3,104.2c-4.4-7.2-9.1-14.3-13.1-21.7c-1-1.9-0.6-5.3,0.5-7.3c5.1-9.4,10.6-18.5,16.6-28.9
	c-11.1,0-21.1-0.4-31,0.1c-5.6,0.3-8.7-1.8-11.2-6.5c-3.3-6-7.2-11.8-10.9-17.6c-0.9-4.6,2.6-2.9,4.5-3c31.3-0.1,62.5-0.1,93.8-0.1
	c-4.2,8.5-8.4,17-12.6,25.6c9.4,0,18.4,0,28,0c-4.9-9-9.4-17.3-13.8-25.6c33.3,0,66.5,0,99.8,0c-9.9,17.3-19.6,34.7-29.7,52
	c-22,37.7-44,75.4-66.1,113.1c-1.2,2.1-2.7,4-4.5,6.7c-4.8-8.3-9.5-15.6-13.4-23.3c-0.9-1.8-0.2-5.2,0.9-7.3
	c5-9.1,10.4-18,16.4-28.4c-11.8,0-22.2-0.2-32.6,0.1c-4.3,0.1-6.9-1.1-8.9-5C78.9,119.3,74.5,111.8,70.3,104.2
	c8.7,0.4,17.5,0.1,26.2,1.3c9.8,1.3,15.2-2.5,19-11.1c3.1-7,7.5-13.5,12.1-21.6c-11.7,0-21.5,0.3-31.2-0.1c-5.1-0.2-7.7,1.8-10,5.9
	C81.3,87.2,75.7,95.6,70.3,104.2z M155.8,80.1c-5.1,8.8-9.5,16.3-14.3,24.7c10.4,0,18.9,0,28.6,0C165.2,96.2,160.9,88.8,155.8,80.1z
	"/>
<path style="fill:#FFFFFF;" d="M390.5,129.4c-2.7-5.5-4.5-9.2-6.3-12.9c-1.7-3.6-3.3-7.2-5.8-12.5c-1.2,6.8-2.2,11.7-3,16.6
	c-1,5.9-1,5.9-8.6,5c2.5-13.8,4.9-27.5,7.3-41.2c0.8-0.2,1.7-0.4,2.5-0.6c4.5,9.3,9,18.7,13.9,28.7c4.9-10.1,9.5-19.3,14-28.6
	c0.8,0.1,1.5,0.2,2.3,0.2c2.5,13.7,5.1,27.4,7.6,41.1c-7.2,1.8-7.2,1.8-11.9-20.5C398.4,113,394.8,120.3,390.5,129.4z"/>
<path style="fill:#FFFFFF;" d="M253.7,105.4c0.7,1.5,1.1,2,1,2.4c-1.3,5.9,4.5,13.8-5.1,17.3c-10.8,3.9-22.1,1.1-27.9-6.9
	c-6.2-8.5-5.5-19.9,1.6-27.5c7.7-8.2,18.2-9.1,29.1-2.2c-0.9,1.8-1.8,3.7-2.9,5.9c-1.9-0.7-3.5-1.1-5-1.8c-6-2.5-10.8-0.6-14.8,4
	c-4.1,4.7-4.4,10-1.5,15.3c3,5.4,7.8,7.6,13.9,6.6c1.6-0.3,3-1.9,4.5-2.9c-1-1-2.2-2-3.1-3.1c-1-1.4-2.4-2.9-2.4-4.4
	c0-0.8,2.3-2.3,3.6-2.5C247.6,105.2,250.6,105.4,253.7,105.4z"/>
<path style="fill:#FFFFFF;" d="M621.7,88.9c-1.3,2-2.4,3.6-3.6,5.5c-2.3-0.9-4.3-1.9-6.4-2.4c-6.2-1.5-10.9,1.1-14.2,6.1
	c-3.3,5.1-2.9,10.6,0.7,15.4c3.5,4.7,8.5,6.1,14.1,4.7c1.2-0.3,2.7-1.5,3-2.5c0.2-0.8-1.2-2.1-2-3.1c-1.1-1.5-2.4-2.9-3.6-4.4
	c1.7-0.9,3.4-2.3,5.3-2.7c2.4-0.5,5-0.1,8.6-0.1c0,5.4,0.2,10.3-0.1,15.2c-0.1,1.2-1.3,2.7-2.4,3.4c-8,5.4-22.6,3.2-29.2-4.3
	c-7.3-8.2-7.3-20.6,0-28.8C599.7,82.4,611.1,81.4,621.7,88.9z"/>
<path style="fill:#FFFFFF;" d="M512.7,126.5c0-14.7,0-28.3,0-40.4c8.1,7.2,16.8,14.9,26.8,23.8c0-9.1,0-16.7,0-24.6
	c3.1,0,5.2,0,7.7,0c0,14,0,27.8,0,43.9c-9.5-10.1-17.6-18.7-26.7-28.4c0,8.9,0,16.7,0,25C517.6,126.1,515.5,126.3,512.7,126.5z"/>
<path style="fill:#FFFFFF;" d="M290.5,125.2c6.4-13.6,12.8-27.3,20.3-43.3c7.3,15.6,13.7,29.3,20.2,43c-6.6,2.3-6.6,2.3-9.7-2.4
	c-3.5-5.4-17.4-5-21.4,0.1c-1.8,2.2-5.1,3.2-7.8,4.8C291.6,126.6,291.1,125.9,290.5,125.2z M310.7,99.4c-2.2,4.9-3.8,8.4-5.5,12.2
	c4,0,7.2,0,11.1,0C314.5,107.6,313,104.3,310.7,99.4z"/>
<path style="fill:#FFFFFF;" d="M465.3,126.1c-2.6,0-4.5,0-7,0c0-13.6,0-27,0-40.9c2.2-0.1,4.3-0.2,7-0.4
	C465.3,98.7,465.3,112.1,465.3,126.1z"/>
</svg>
