<?xml version="1.0" encoding="utf-8"?>
<!-- Generator: Adobe Illustrator 24.1.2, SVG Export Plug-In . SVG Version: 6.00 Build 0)  -->
<svg version="1.1" id="Layer_1" xmlns="http://www.w3.org/2000/svg" xmlns:xlink="http://www.w3.org/1999/xlink" x="0px" y="0px"
	 viewBox="0 0 227.9 47" style="enable-background:new 0 0 227.9 47;" xml:space="preserve">
<style type="text/css">
	.st0{fill:#FFFFFF;}
</style>
<g>
	<g>
		<g>
			<path class="st0" d="M57.5,12.6c0.5,0,0.8,0.2,0.8,0.8v2c0,0.6-0.3,0.8-0.8,0.8H53v17c0,0.6-0.2,0.8-0.8,0.8h-2.7
				c-0.6,0-0.8-0.3-0.8-0.8v-17h-4.5c-0.6,0-0.8-0.2-0.8-0.8v-2c0-0.6,0.2-0.8,0.8-0.8H57.5z"/>
			<path class="st0" d="M64.2,28.3c0,1.6,1.3,2.4,3.4,2.4s3.4-0.8,3.4-2.4V13.4c0-0.6,0.2-0.8,0.8-0.8h2.7c0.6,0,0.7,0.3,0.7,0.8
				v15.7c0,2.6-1.9,5.1-7.6,5.1S60,31.7,60,29.1V13.4c0-0.6,0.2-0.8,0.8-0.8h2.7c0.5,0,0.8,0.3,0.8,0.8v14.9H64.2z M66.9,10.2
				c0,0.6-0.2,0.8-0.8,0.8h-1.5c-0.5,0-0.8-0.2-0.8-0.8v-3c0-0.6,0.2-0.8,0.8-0.8h1.5c0.6,0,0.8,0.3,0.8,0.8V10.2z M71.2,10.2
				c0,0.6-0.2,0.8-0.7,0.8H69c-0.6,0-0.8-0.2-0.8-0.8v-3c0-0.6,0.2-0.8,0.8-0.8h1.5c0.5,0,0.7,0.3,0.7,0.8V10.2z"/>
			<path class="st0" d="M97.6,33.1c0,0.5-0.2,0.8-0.8,0.8h-2.6c-0.6,0-0.8-0.3-0.8-0.8V21.2c0,0.1-0.6,2-0.9,2.9l-2.4,5.8
				c-0.2,0.5-0.5,0.8-1,0.8H87c-0.5,0-0.8-0.3-1-0.8l-2.7-6.3c-0.3-0.7-0.7-2.1-0.7-2.3v11.9c0,0.5-0.2,0.8-0.8,0.8h-2.5
				c-0.6,0-0.8-0.3-0.8-0.8V13.4c0-0.5,0.2-0.8,0.8-0.8h2.5c0.4,0,0.6,0.2,0.7,0.4l4.8,11c0.4,0.8,0.8,2.2,0.8,2.2s0.4-1.2,0.8-2.2
				l4.6-11c0.1-0.3,0.3-0.4,0.7-0.4h2.6c0.6,0,0.8,0.3,0.8,0.8C97.6,13.4,97.6,33.1,97.6,33.1z"/>
			<path class="st0" d="M106.2,17.4c0-2.6,1.9-5.1,7.6-5.1s7.6,2.5,7.6,5.1V29c0,2.6-1.9,5.1-7.6,5.1s-7.6-2.5-7.6-5.1V17.4z
				 M117.2,18.2c0-1.6-1.3-2.4-3.4-2.4s-3.4,0.8-3.4,2.4v10.1c0,1.6,1.3,2.4,3.4,2.4s3.4-0.8,3.4-2.4V18.2z"/>
			<path class="st0" d="M130,20.5c0.2,0.5,0.5,1.5,0.5,1.7c0-0.1,0.3-1.2,0.6-1.7l3.3-7.2c0.2-0.4,0.4-0.8,0.9-0.8h2.7
				c0.5,0,0.8,0.3,0.6,0.8l-5.9,12.4v7.4c0,0.5-0.2,0.8-0.8,0.8h-2.7c-0.6,0-0.8-0.3-0.8-0.8v-6.9l-6-12.9c-0.2-0.5,0-0.8,0.5-0.8
				h3.1c0.5,0,0.8,0.3,0.9,0.8L130,20.5z"/>
			<path class="st0" d="M144.6,28.3c0,1.6,1.3,2.4,3.4,2.4s3.4-0.8,3.4-2.4V13.4c0-0.6,0.2-0.8,0.8-0.8h2.7c0.6,0,0.7,0.3,0.7,0.8
				v15.7c0,2.6-1.9,5.1-7.6,5.1c-5.7,0-7.6-2.5-7.6-5.1V13.4c0-0.6,0.2-0.8,0.8-0.8h2.7c0.5,0,0.8,0.3,0.8,0.8L144.6,28.3
				L144.6,28.3z"/>
			<path class="st0" d="M174.3,33.1c0,0.5-0.2,0.8-0.8,0.8H171c-0.4,0-0.6-0.1-0.7-0.4l-6.1-10.4c-0.8-1.4-1.2-2.4-1.3-2.5v12.5
				c0,0.5-0.2,0.8-0.8,0.8h-2.5c-0.6,0-0.8-0.3-0.8-0.8V13.4c0-0.5,0.2-0.8,0.8-0.8h2.5c0.3,0,0.5,0.1,0.7,0.3l6.3,10.8
				c0.5,0.9,1.1,2.2,1.1,2.2V13.4c0-0.5,0.2-0.8,0.8-0.8h2.5c0.6,0,0.8,0.3,0.8,0.8V33.1z"/>
			<path class="st0" d="M182.1,30.4h7c0.5,0,0.8,0.2,0.8,0.8v2c0,0.6-0.3,0.8-0.8,0.8h-10.6c-0.5,0-0.7-0.3-0.7-0.8V13.4
				c0-0.6,0.2-0.8,0.8-0.8h2.7c0.6,0,0.8,0.3,0.8,0.8V30.4z"/>
			<path class="st0" d="M199.9,12.6c0.6,0,0.8,0.3,1,0.8l5.8,19.8c0.2,0.5,0,0.8-0.6,0.8h-2.8c-0.5,0-0.8-0.3-0.9-0.8l-1.1-3.8h-5.8
				l-1.1,3.8c-0.2,0.5-0.4,0.8-0.9,0.8H191c-0.6,0-0.8-0.3-0.6-0.8l5.9-19.8c0.2-0.5,0.4-0.8,1-0.8
				C197.3,12.6,199.9,12.6,199.9,12.6z M199.3,22.5c-0.4-1.3-0.9-5.3-0.9-5.7c-0.1,0.4-0.6,4.4-1,5.7l-1.1,3.5h4L199.3,22.5z"/>
			<path class="st0" d="M212.8,25.8v7.3c0,0.6-0.2,0.8-0.8,0.8h-2.7c-0.6,0-0.8-0.3-0.8-0.8V13.4c0-0.6,0.2-0.8,0.8-0.8h6.6
				c5.7,0,7.6,2.5,7.6,5.1v3c0,1.9-0.9,3.6-3.5,4.5l3.4,7.9c0.2,0.5-0.2,0.8-0.7,0.8H220c-0.4,0-0.6-0.3-0.8-0.8l-3.1-7.3h-0.2
				H212.8z M212.8,16.1v6.2h3.1c2.1,0,3.4-0.8,3.4-2.4v-1.5c0-1.6-1.3-2.4-3.4-2.4h-3.1V16.1z"/>
		</g>
	</g>
	<g>
		<g>
			<path class="st0" d="M20.5,19.5c0.3-0.1,0.5-0.5,0.4-0.8l-2.2-5.5c-0.1-0.2-0.3-0.4-0.6-0.4c-0.3,0-0.5,0.2-0.6,0.4l-2.2,5.5
				c-0.1,0.3,0,0.7,0.4,0.8c0.3,0.1,0.7,0,0.8-0.4l0.3-0.9h2.5l0.3,0.9C19.9,19.5,20.2,19.6,20.5,19.5L20.5,19.5z M17.4,17l0.8-1.9
				L19,17H17.4z"/>
			<path class="st0" d="M22.6,12.8c-0.3,0-0.6,0.3-0.6,0.6v5.5c0,0.3,0.3,0.6,0.6,0.6H25c0.3,0,0.6-0.3,0.6-0.6
				c0-0.3-0.3-0.6-0.6-0.6h-1.8v-4.9C23.3,13.1,23,12.8,22.6,12.8L22.6,12.8z"/>
			<path class="st0" d="M29.8,19.6c0.3,0,0.6-0.3,0.6-0.6c0-0.3-0.3-0.6-0.6-0.6H28v-4.9c0-0.3-0.3-0.6-0.6-0.6
				c-0.3,0-0.6,0.3-0.6,0.6V19c0,0.3,0.3,0.6,0.6,0.6H29.8z"/>
			<path class="st0" d="M19.2,21.3c-0.3,0-0.6,0.3-0.6,0.6V28c0,0.3,0.3,0.6,0.6,0.6c0.3,0,0.6-0.3,0.6-0.6v-6.1
				C19.9,21.6,19.6,21.3,19.2,21.3L19.2,21.3z"/>
			<path class="st0" d="M22,28.1c0,0.3,0.3,0.6,0.6,0.6c0.3,0,0.6-0.3,0.6-0.6v-4l2.7,4.3c0.1,0.2,0.3,0.3,0.5,0.3
				c0.1,0,0.1,0,0.2,0c0.3-0.1,0.5-0.3,0.5-0.6V22c0-0.3-0.3-0.6-0.6-0.6c-0.3,0-0.6,0.3-0.6,0.6v4l-2.7-4.3
				c-0.1-0.2-0.4-0.3-0.7-0.3C22.2,21.5,22,21.7,22,22V28.1z"/>
			<path class="st0" d="M34.4,19.4c0,0.3,0.3,0.6,0.7,0.6c0.3,0,0.6-0.3,0.6-0.7C35,12.8,29.5,7.9,22.9,7.9
				C15.8,7.9,10,13.7,10,20.7c0,7.1,5.8,12.9,12.9,12.9c6.5,0,12-4.8,12.8-11.3c0-0.3-0.2-0.7-0.5-0.7s-0.7,0.2-0.7,0.5
				c-0.7,5.8-5.7,10.2-11.5,10.2c-6.4,0-11.6-5.2-11.6-11.6S16.6,9.1,23,9.1C28.8,9.1,33.8,13.6,34.4,19.4L34.4,19.4z"/>
			<path class="st0" d="M22.9,3.1L22.9,3.1c-9.8,0-17.6,7.8-17.7,17.6c0,8,5.3,14.7,12.4,16.9c0.4,0.1,0.8,0.5,1,0.9l3,6.4
				c0.2,0.5,0.7,0.8,1.3,0.8c0.6,0,1.1-0.3,1.3-0.8l3-6.4c0.2-0.4,0.6-0.8,1-0.9c2.6-0.8,5-2.3,7-4.2c0.2-0.2,0.3-0.6,0-0.9
				c-0.2-0.2-0.6-0.3-0.9,0c-1.8,1.8-4.1,3.1-6.5,3.9C27,36.7,26.4,37.2,26,38l-3,6.4c0,0.1-0.1,0.1-0.2,0.1s-0.1,0-0.2-0.1l-3-6.4
				c-0.3-0.7-1-1.3-1.8-1.6c-6.9-2.2-11.5-8.5-11.5-15.7c0-9,7.4-16.3,16.4-16.3c9.1,0,16.4,7.4,16.4,16.4c0,3.5-1.1,6.8-3.1,9.7
				c-0.2,0.3-0.1,0.7,0.1,0.9c0.3,0.2,0.7,0.1,0.9-0.1c2.2-3,3.4-6.6,3.4-10.4C40.6,11,32.6,3.1,22.9,3.1L22.9,3.1z"/>
		</g>
	</g>
</g>
</svg>
