<?xml version="1.0" encoding="utf-8"?>
<!-- Generator: Adobe Illustrator 24.1.2, SVG Export Plug-In . SVG Version: 6.00 Build 0)  -->
<svg version="1.1" id="Layer_1" xmlns="http://www.w3.org/2000/svg" xmlns:xlink="http://www.w3.org/1999/xlink" x="0px" y="0px"
	 viewBox="0 0 1056.6 232" style="enable-background:new 0 0 1056.6 232;" xml:space="preserve">
<style type="text/css">
	.st0{fill:#EFB42B;}
</style>
<g>
	<path class="st0" d="M257.1,197.1c0-17,0-33.2,0-50c5.1,0,9.8,0,15.3,0c0-11.4,0-22.2,0-33.7c20.2,0,39.8,0,60,0
		c0,10.9,0,21.7,0,33.1c6.5,0,12.4,0,19,0c0-29.5,0-59.1,0-89.2c-5.8,0-11.7,0-18.5,0c0,11.8,0,23.8,0,36.1c-20.2,0-39.6,0-59.8,0
		c0-11.9,0-23.9,0-36.5c-5.5,0-10.3,0-15.6,0c0-17,0-33.4,0-50.1c50.1,0,100.2,0,151.5,0c-11.9,27.1-23.7,54.1-35.3,80.6
		c9.6,2.7,19,4.6,27.9,7.8c41,14.9,52.2,49.9,39.6,87c-16.4,48.3-86.4,59.3-115.6,21.4c-4-5.2-8.4-6.8-14.7-6.6
		C293.1,197.4,275.5,197.1,257.1,197.1z"/>
	<path class="st0" d="M404.4,60.8c3.7-9.3,7-18.3,11-27c0.7-1.5,4.1-2.6,6.2-2.6c18.2-0.2,36.2-0.3,54.4-0.2c4.7,0,7.7-0.9,9.8-5.6
		c3-6.5,5.4-15,10.7-18.2c5.4-3.2,14-0.9,21.2-0.9c25.3,0,50.6,0,76.5,0c0,16.9,0,33.5,0,51.1c-2.3,0-4.8,0-7.2,0
		c-18.6,0.1-37.1-0.2-55.7,0.4c-16.8,0.6-33.4,13.9-37.6,29.4c-8.7,31.5,12.7,59.6,43.4,58.7c16.2-0.5,32.5,0.1,48.8,0.2
		c3,0,5.9,0.3,9.3,0.5c0,16.8,0,33.2,0,50c-46,0-91.8,0-138.4,0c11.6-15.6,15.9-33,17.1-51.5c3-44.1-22.4-76.3-66.1-83.2
		C406.9,61.7,406,61.3,404.4,60.8z"/>
	<path class="st0" d="M725.2,145.7c5.5-22.4,10.9-44.4,16.3-66.3c1.1-4.5,1.9-9.1,3.9-13.3c3.2-6.8,9.8-7.3,14.4-1.4
		c2.2,2.9,3.9,6.3,5.5,9.6c8.3,16,16.4,32.1,25.1,49c1.3-2,2.3-3.4,3.2-4.8c8-15.4,15.9-30.8,23.9-46.3c0.8-1.6,1.3-3.8,2.7-4.8
		c3-2.4,6.9-6.6,9.5-6c3.3,0.8,7,5.2,8.2,8.8c3.5,11,5.7,22.3,8.5,33.6c3.3,13.7,6.6,27.3,10.3,42.4c-3.8,0-7.1-0.3-10.4,0.1
		c-5,0.6-6.8-1.5-7.8-6.3c-3.3-16.7-6.8-33.5-10.6-51.4c-1.5,2.3-2.7,3.6-3.4,5.1c-7.4,14.2-14.8,28.4-22.2,42.4
		c-2.6,4.8-4.1,10.9-11.1,11c-7.1,0.2-8.7-5.9-11.2-10.7c-7.2-13.7-14.4-27.4-21.6-41.2c-1-1.9-2.2-3.8-4-6.9
		c-3.6,17-7.5,32.6-9.9,48.6c-1.2,8.3-4.7,10.6-12.1,9.5C730,145.8,728,145.9,725.2,145.7z"/>
	<path class="st0" d="M243,61.6c0,4.7,0,9.1,0,14.4c-11.9,0-23.7,0-35.5,0c-4,0-7.9,0-11.8,0c-16.9,0.1-28.6,11-29.1,27.1
		c-0.5,15.7,10.5,27.3,27.2,28.1c13,0.6,26,0.1,40.3,0.1c0-5.4,0.3-10.6-0.2-15.8c-0.1-1.1-3.3-2.7-5.1-2.8
		c-11.5-0.2-23.1-0.1-34.9-0.1c0-4.7,0-8.5,0-12.9c18.2,0,36.1,0,54.6,0c0,15,0,29.9,0,45.2c-0.6,0.2-1.4,0.7-2.3,0.7
		c-18.8,0-37.6,0.3-56.4-0.2c-17.3-0.5-32.3-13.6-36.8-30.9c-4.9-19,2-38.7,17.5-47.3c5.3-3,11.6-5.2,17.6-5.5
		C206.3,61.2,224.3,61.6,243,61.6z"/>
	<path class="st0" d="M953.1,145.9c0-5.1,0-9.2,0-14.3c2.7,0,5.1,0,7.5,0c17.6,0,35.3,0.1,52.9,0c3.9,0,8.4,0.1,11.5-1.7
		c3.4-2,7.8-6.2,7.7-9.4c-0.1-3.6-4-7.9-7.4-10.3c-2.7-1.9-7.1-1.7-10.7-1.8c-12.8-0.2-25.5,0-38.4-0.2c-15.1-0.2-25-9.5-24.9-23.2
		c0-13.6,10.2-23,25.1-23c20-0.1,40,0,59.9,0c1.5,0,3.2,0.2,5.1,0.3c0,4.7,0,9,0,14.3c-3.3,0-6.4,0-9.6,0c-16.9,0-33.9,0-50.9,0
		c-2.8,0-6-0.2-8.1,1.2c-2.3,1.6-4.8,4.9-4.8,7.3c0,2.4,2.7,5.6,5,7.1c2,1.3,5.3,1.2,8.1,1.2c13,0.2,26-0.1,39,0.3
		c16.6,0.5,26.3,10.4,26.3,26c0,15.4-10,25.5-26.6,25.8C997.8,146.2,975.8,145.9,953.1,145.9z"/>
	<path class="st0" d="M15,61.3c4.8,0,9.1,0,14.4,0c0,11.2,0,22.4,0,34c20.6,0,40.2,0,60.8,0c0-11.1,0-22.3,0-33.9
		c5.3,0,9.6,0,14.5,0c0,27.9,0,55.7,0,84.2c-4.4,0-8.9,0-14.1,0c0-11.3,0-22.5,0-34.3c-20.6,0-40.4,0-60.9,0c0,11.4,0,22.6,0,34.3
		c-5.3,0-9.8,0-14.7,0C15,117.6,15,89.9,15,61.3z"/>
	<path class="st0" d="M715.9,145.3c-1.1,0.3-1.3,0.4-1.5,0.5c-11.8,2.3-20.7-0.7-24.9-13.1c-3-8.8-9.3-11.3-18.3-10.4
		c-8.9,0.8-18,0.2-29.6,0.2c5.2-5.7,8.3-11.9,13.2-13.9c5.3-2.1,12.1-0.5,19.7-0.5c-5.1-8.5-9.6-15.8-14.6-24.2
		c-8.7,14.2-16.8,27.4-25,40.8c-1.9,3.2-4.4,6.1-5.7,9.5c-4.5,11.9-13.4,13.7-24.8,10.9c0.7-1.5,1.3-3.2,2.2-4.7
		c13.7-22.9,27.2-45.7,41-68.6c8.3-13.7,17.2-13.7,25.4,0c13.7,23.1,27.3,46.2,40.9,69.4C714.4,142.3,714.9,143.6,715.9,145.3z"/>
	<path class="st0" d="M883.2,76.5c0,18.9,0,36.4,0,55c19.2,0,38.3,0,57.6,0c0,5.2,0,9.5,0,14.2c-24.3,0-48.2,0-72.5,0
		c0-27.4,0-55,0-83c23.9,0,48.1,0,72.5,0c0,4.5,0,8.8,0,13.9C921.7,76.5,902.8,76.5,883.2,76.5z"/>
	<path class="st0" d="M595.2,77.5c0,5.1,0,10.4,0,16.4c-19.7,0-39.3,0-59.5,0c0,6.6,0,12.4,0,19.3c15.2,0,30.4,0,45.9,0
		c0,5.2,0,9.4,0,13.1c-16.5,0-32.8,1.4-48.8-0.4c-16.2-1.9-24.2-15.6-20.6-30.9c2.1-9.5,9.3-16.7,20.2-17.1
		C552.9,76.8,573.6,77.5,595.2,77.5z"/>
	<path class="st0" d="M136.7,145.5c-5,0-9.5,0-14.4,0c0-28.1,0-55.7,0-84.1c4.7,0,9.3,0,14.4,0C136.7,89.4,136.7,117,136.7,145.5z"
		/>
	<path class="st0" d="M937,110.6c-16.1,0-31.6,0-47.7,0c0-4.6,0-9.1,0-14.1c15.7,0,31.6,0,47.7,0C937,101.2,937,105.6,937,110.6z"/>
</g>
</svg>
