<?xml version="1.0" encoding="utf-8"?>
<!-- Generator: Adobe Illustrator 26.1.0, SVG Export Plug-In . SVG Version: 6.00 Build 0)  -->
<svg version="1.1" id="Layer_1" xmlns="http://www.w3.org/2000/svg" xmlns:xlink="http://www.w3.org/1999/xlink" x="0px" y="0px"
	 viewBox="0 0 358.8 60.6" style="enable-background:new 0 0 358.8 60.6;" xml:space="preserve">
<g>
	<path style="fill-rule:evenodd;clip-rule:evenodd;fill:#FFFFFF;" d="M167.3,17.6c0.2,0.1,0.4,0.2,0.6,0.2c0.3,0,0.6-0.1,0.8-0.3
		l7.8-7c0.2-0.2,0.3-0.4,0.4-0.7c0.1-0.3,0.1-0.5,0-0.8c-0.1-0.3-0.2-0.5-0.4-0.6c-0.2-0.2-0.5-0.3-0.7-0.3l-5-0.5l3.1-4.2
		c0.2-0.2,0.2-0.5,0.2-0.8c0-0.3-0.2-0.5-0.3-0.7c-0.3-0.3-0.6-0.4-0.9-0.4c-0.3,0-0.6,0.1-0.8,0.3l-7.8,7c-0.2,0.2-0.3,0.4-0.4,0.7
		c-0.1,0.3-0.1,0.5,0,0.8c0.1,0.3,0.2,0.5,0.4,0.6c0.2,0.2,0.5,0.3,0.7,0.3l5,0.5l-3.1,4.2c-0.1,0.2-0.2,0.4-0.2,0.6
		c0,0.2,0,0.4,0.1,0.6C166.8,17.3,167.1,17.5,167.3,17.6z"/>
	<g>
		<path style="fill:#FFFFFF;" d="M143.5,17.8H12.3c-3.7,0-6.7,2.9-6.7,6.5v27.7c0,3.6,3,6.5,6.7,6.5h131.2c3.7,0,6.7-2.9,6.7-6.5
			V24.3C150.2,20.7,147.2,17.8,143.5,17.8"/>
		<path style="fill:#010101;" d="M24.9,26c1.5,0,2.8,0.2,3.9,0.6c1.1,0.5,1.9,1,2.6,1.8c0.7,0.7,1.2,1.6,1.5,2.5
			c0.3,0.9,0.5,1.9,0.5,2.9c0,1-0.2,1.9-0.5,2.9c-0.3,1-0.8,1.8-1.5,2.5c-0.7,0.7-1.5,1.3-2.6,1.8c-1.1,0.5-2.3,0.6-3.9,0.6h-5.6
			v8.7h-5.3V26H24.9z M23.4,37.4c0.6,0,1.2-0.1,1.8-0.1c0.6-0.1,1.1-0.3,1.5-0.5c0.4-0.3,0.8-0.6,1-1.1s0.4-1.1,0.4-1.9
			s-0.1-1.4-0.4-1.9c-0.3-0.5-0.6-0.8-1-1.1c-0.4-0.3-0.9-0.4-1.5-0.5c-0.6-0.1-1.2-0.1-1.8-0.1h-4.1v7.3L23.4,37.4L23.4,37.4z"/>
		<path style="fill:#010101;" d="M36.4,33.2c0.5-1.6,1.3-2.9,2.3-4c1-1.2,2.3-2.1,3.8-2.7c1.5-0.6,3.1-1,5-1c1.9,0,3.6,0.3,5,1
			c1.5,0.6,2.7,1.6,3.7,2.7c1,1.2,1.8,2.5,2.3,4c0.5,1.6,0.8,3.2,0.8,5.1c0,1.8-0.3,3.4-0.8,4.9c-0.5,1.5-1.3,2.9-2.3,4
			c-1,1.1-2.3,2-3.7,2.7c-1.5,0.6-3.1,1-5,1c-1.9,0-3.5-0.3-5-1c-1.5-0.6-2.7-1.5-3.8-2.7c-1-1.1-1.8-2.5-2.3-4
			c-0.5-1.5-0.8-3.2-0.8-4.9C35.6,36.4,35.8,34.7,36.4,33.2 M41.2,41.2c0.3,1,0.6,1.8,1.1,2.6s1.2,1.4,2,1.9c0.8,0.5,1.9,0.7,3,0.7
			c1.2,0,2.2-0.2,3-0.7c0.8-0.5,1.5-1.1,2-1.9s0.9-1.6,1.1-2.6c0.3-1,0.4-1.9,0.4-3c0-1.1-0.1-2.1-0.4-3.1c-0.3-1-0.6-1.9-1.1-2.7
			c-0.5-0.8-1.2-1.4-2-1.9c-0.8-0.5-1.9-0.7-3-0.7c-1.2,0-2.2,0.2-3,0.7c-0.8,0.5-1.5,1.1-2,1.9s-0.9,1.7-1.1,2.7
			c-0.3,1-0.4,2-0.4,3.1C40.9,39.2,41,40.2,41.2,41.2"/>
		<path style="fill:#010101;" d="M73.9,26c1.5,0,2.8,0.2,3.9,0.6c1.1,0.5,1.9,1,2.6,1.8c0.7,0.7,1.2,1.6,1.5,2.5s0.5,1.9,0.5,2.9
			c0,1-0.2,1.9-0.5,2.9c-0.3,1-0.8,1.8-1.5,2.5c-0.7,0.7-1.5,1.3-2.6,1.8c-1.1,0.5-2.3,0.6-3.9,0.6h-5.6v8.7H63V26H73.9z M72.5,37.4
			c0.6,0,1.2-0.1,1.8-0.1c0.6-0.1,1.1-0.3,1.5-0.5c0.4-0.3,0.8-0.6,1-1.1c0.3-0.5,0.4-1.1,0.4-1.9s-0.1-1.4-0.4-1.9
			c-0.3-0.5-0.6-0.8-1-1.1c-0.4-0.3-0.9-0.4-1.5-0.5c-0.6-0.1-1.2-0.1-1.8-0.1h-4.1v7.3L72.5,37.4L72.5,37.4z"/>
		<polygon style="fill:#010101;" points="117.4,26 117.4,36 126.8,26 133.5,26 124,35.5 134.4,50.2 127.7,50.2 120.4,39.3 
			117.4,42.4 117.4,50.2 112,50.2 112,26 		"/>
		<path style="fill:#FAA51C;" d="M101,26c-0.5,0.6-1,1-1.6,1.4c-0.7,0.4-1.7,0.6-2.8,0.6c-1.1,0-2-0.2-2.8-0.6
			c-0.6-0.4-1.2-0.8-1.6-1.4h-6.4c0.5,1.3,1.2,2.4,2.1,3.4c1,1.1,2.3,2,3.8,2.7c1.5,0.6,3.1,1,5,1c1.9,0,3.5-0.3,5-1
			c1.5-0.6,2.7-1.5,3.7-2.7c0.9-1,1.6-2.1,2.1-3.4H101z"/>
		<path style="fill:#F2654C;" d="M90.8,50.4c-0.2-0.8-0.3-1.6-0.3-2.4c0-1,0.1-2,0.3-2.9c0.2-0.9,0.6-1.8,1.1-2.5
			c0.5-0.7,1.1-1.3,1.9-1.7c0.7-0.4,1.7-0.6,2.8-0.6s2,0.2,2.8,0.6c0.8,0.4,1.4,1,1.9,1.7c0.5,0.7,0.8,1.5,1.1,2.5
			c0.2,0.9,0.3,1.9,0.3,2.9c0,0.8-0.1,1.6-0.3,2.4h5.9c0.1-0.8,0.2-1.6,0.2-2.4c0-1.8-0.3-3.5-0.8-5c-0.5-1.5-1.3-2.9-2.3-4
			c-1-1.2-2.3-2.1-3.7-2.7c-1.5-0.6-3.1-1-5-1c-1.8,0-3.5,0.3-5,1c-1.5,0.6-2.7,1.6-3.8,2.7c-1,1.2-1.8,2.5-2.3,4
			c-0.5,1.5-0.8,3.2-0.8,5c0,0.8,0.1,1.6,0.2,2.4H90.8z"/>
		<path style="fill:#FFFFFF;" d="M157.5,19.3c-2.5,0-4.6,2.1-4.6,4.6c0,1.9,1.1,3.5,2.7,4.2V38h-2.8c-0.2,0-0.4,0.2-0.4,0.4v2.9
			c0,0.2,0.2,0.4,0.4,0.4h4.6c1,0,1.8-0.8,1.8-1.8V28.2c1.7-0.7,2.8-2.3,2.8-4.3C162.1,21.4,160.1,19.3,157.5,19.3 M157.5,25.7
			c-1,0-1.8-0.8-1.8-1.8c0-1,0.8-1.8,1.8-1.8c1,0,1.8,0.8,1.8,1.8C159.3,24.9,158.5,25.7,157.5,25.7"/>
		<path style="fill:#010101;" d="M142,47.3c0.1,0.3,0.2,0.5,0.2,0.8c0,0.3-0.1,0.6-0.2,0.9c-0.1,0.3-0.3,0.5-0.5,0.6
			c-0.2,0.2-0.5,0.3-0.7,0.4c-0.3,0.1-0.5,0.1-0.8,0.1c-0.3,0-0.6-0.1-0.9-0.1s-0.5-0.2-0.8-0.4c-0.2-0.2-0.4-0.4-0.5-0.6
			c-0.1-0.3-0.2-0.6-0.2-0.9c0-0.3,0-0.5,0.1-0.7c0.1-0.2,0.1-0.4,0.3-0.6c0.1-0.2,0.3-0.3,0.5-0.4s0.4-0.2,0.6-0.2v0.6
			c-0.2,0-0.3,0.1-0.4,0.2c-0.1,0.1-0.2,0.2-0.3,0.3c-0.1,0.1-0.1,0.3-0.2,0.4c-0.1,0.1-0.1,0.3-0.1,0.5c0,0.3,0.1,0.5,0.2,0.7
			c0.1,0.2,0.3,0.3,0.4,0.5c0.2,0.1,0.4,0.2,0.6,0.3s0.5,0.1,0.7,0.1s0.5,0,0.6-0.1c0.2-0.1,0.4-0.2,0.6-0.3
			c0.2-0.1,0.3-0.3,0.4-0.5c0.1-0.2,0.1-0.4,0.1-0.6s-0.1-0.4-0.1-0.6c-0.1-0.2-0.2-0.3-0.3-0.5c-0.1-0.1-0.3-0.2-0.5-0.3
			s-0.4-0.1-0.6-0.1V48h-0.5V46h2.3v0.4l-0.5,0.2C141.7,46.8,141.9,47.1,142,47.3"/>
		<path style="fill:#010101;" d="M137.6,43.4l4.4-1.7v0.6l-1.3,0.5v1.9l1.3,0.5v0.6l-4.4-1.7V43.4z M140.2,43l-2.1,0.7v0l2.1,0.7V43
			z"/>
		<polygon style="fill:#010101;" points="137.6,40.5 141.3,39 137.6,37.6 137.6,36.8 142.1,36.8 142.1,37.4 138.4,37.4 138.4,37.4 
			142.1,38.8 142.1,39.3 138.4,40.7 138.4,40.7 142.1,40.7 142.1,41.3 137.6,41.3 		"/>
		<rect x="137.6" y="35.2" style="fill:#010101;" width="4.4" height="0.6"/>
		<polygon style="fill:#010101;" points="137.6,33.6 141.2,31.3 141.2,31.3 137.6,31.3 137.6,30.7 142.1,30.7 142.1,31.4 
			138.5,33.7 138.5,33.7 142.1,33.7 142.1,34.3 137.6,34.3 		"/>
		<path style="fill:#010101;" d="M142,27.1c0.1,0.3,0.2,0.5,0.2,0.8c0,0.3-0.1,0.6-0.2,0.9c-0.1,0.3-0.3,0.5-0.5,0.6
			s-0.5,0.3-0.7,0.4c-0.3,0.1-0.5,0.1-0.8,0.1c-0.3,0-0.6-0.1-0.9-0.1c-0.3-0.1-0.5-0.2-0.8-0.4c-0.2-0.2-0.4-0.4-0.5-0.6
			c-0.1-0.3-0.2-0.6-0.2-0.9c0-0.3,0-0.5,0.1-0.7c0.1-0.2,0.1-0.4,0.3-0.6c0.1-0.2,0.3-0.3,0.5-0.4c0.2-0.1,0.4-0.2,0.6-0.2v0.6
			c-0.2,0-0.3,0.1-0.4,0.2c-0.1,0.1-0.2,0.2-0.3,0.3c-0.1,0.1-0.1,0.3-0.2,0.4c-0.1,0.1-0.1,0.3-0.1,0.5c0,0.3,0.1,0.5,0.2,0.7
			c0.1,0.2,0.3,0.3,0.4,0.5c0.2,0.1,0.4,0.2,0.6,0.3c0.2,0.1,0.5,0.1,0.7,0.1s0.5,0,0.6-0.1c0.2-0.1,0.4-0.2,0.6-0.3
			c0.2-0.1,0.3-0.3,0.4-0.5c0.1-0.2,0.1-0.4,0.1-0.6s-0.1-0.4-0.1-0.6c-0.1-0.2-0.2-0.3-0.3-0.5c-0.1-0.1-0.3-0.2-0.5-0.3
			c-0.2-0.1-0.4-0.1-0.6-0.1v1.4h-0.5v-1.9h2.3v0.4l-0.5,0.2C141.7,26.7,141.9,26.9,142,27.1"/>
	</g>
</g>
</svg>
