<?xml version="1.0" encoding="utf-8"?>
<!-- Generator: Adobe Illustrator 26.1.0, SVG Export Plug-In . SVG Version: 6.00 Build 0)  -->
<svg version="1.1" id="Layer_1" xmlns="http://www.w3.org/2000/svg" xmlns:xlink="http://www.w3.org/1999/xlink" x="0px" y="0px"
	 viewBox="0 0 1056.6 202" style="enable-background:new 0 0 1056.6 202;" xml:space="preserve">
<g id="Livello_1_1_">
</g>
<g>
	<path style="fill:#FFFFFF;" d="M234.6,72h17l-0.1,32.1h0.8L266,72h17.3l-23.8,50H237L234.6,72z"/>
	<path style="fill:#FFFFFF;" d="M275.5,113.8c0-2.6,0.3-6,1.2-10.2c3.1-15.1,7-19.2,14.4-19.2c4,0,7.7,0.5,9.6,4.2h0.7l1.2-3.7h15.1
		l-7.8,37.1h-15l0.7-4.1h-0.8c-2.6,3.9-6,4.7-9.3,4.7C278.7,122.6,275.5,120.7,275.5,113.8z M296.9,108.8c0.7-2,2.3-9,2.3-10.8
		c0-1.5-0.5-1.6-2.4-1.6c-3,0-3.1,0.1-4.6,7.1c-0.7,2.9-0.9,4.6-0.9,5.7c0,1.4,0.7,1.5,2.5,1.5C295.8,110.6,296.4,110.5,296.9,108.8
		z"/>
	<path style="fill:#FFFFFF;" d="M324.2,85h15l-0.6,4.1h0.7c3.1-3.9,7.2-4.7,10-4.7c5.8,0,8.3,1.6,9.1,4.7h0.7
		c3.2-3.9,7.6-4.7,10.6-4.7c6.8,0,8.7,2.5,8.7,7.6c0,2-0.6,5.6-1.3,9.1l-4.6,21h-15.5l4-18.6c0.5-2.3,0.9-4.6,0.9-5.5
		c0-1.4-0.4-1.5-1.5-1.5c-2.8,0-3,0.4-4.2,6l-4.2,19.6h-15.5l4-18.6c0.5-2.3,0.9-4.6,0.9-5.5c0-1.4-0.4-1.5-1.5-1.5
		c-2.8,0-3,0.4-4.2,6l-4.2,19.6h-15.5L324.2,85z"/>
	<path style="fill:#FFFFFF;" d="M387.3,85h15l-0.7,4.1h0.8c2.6-3.9,6-4.7,9.3-4.7c6.6,0,9.8,2,9.8,8.8c0,2.6-0.3,6-1.2,10.2
		c-3.1,15.1-7,19.2-14.4,19.2c-4,0-7.7-0.5-9.6-4.2h-0.7l-3.8,18.2h-15.6L387.3,85z M404.9,103.5c0.7-2.9,0.9-4.6,0.9-5.7
		c0-1.4-0.7-1.5-2.5-1.5c-2,0-2.5,0.1-3.1,1.8c-0.7,2-2.3,9.2-2.3,10.8c0,1.5,0.5,1.6,2.4,1.6C403.3,110.6,403.4,110.5,404.9,103.5z
		"/>
	<path style="fill:#FFFFFF;" d="M429.5,85h15.8l-7.8,37.1h-15.8L429.5,85z M433.1,68.1h15.8l-2.3,11h-15.8L433.1,68.1z"/>
	<path style="fill:#FFFFFF;" d="M451.7,85h15l-1,6.2h0.7c3.2-5.5,5.9-6.8,12.6-6.8l-2.9,13.5c-9.7,0-12,1.8-14.1,11.7l-2.7,12.4
		h-15.5L451.7,85z"/>
	<path style="fill:#FFFFFF;" d="M497.5,111.4c0-3.7,1.2-8.6,2.4-15.1c3.9-20.2,5.3-24.9,26.2-24.9c15.5,0,20.1,2.9,20.1,11.3
		c0,3.8-0.9,8.6-2.3,15c-4.7,20.3-5.4,24.9-26,24.9C502.2,122.6,497.5,119.7,497.5,111.4z M527,97.1c1.2-5.5,1.8-8.9,1.8-10.8
		c0-2.6-1.2-2.7-4.1-2.7c-5.1,0-5.2,0.3-7.9,13.4c-1.2,5.7-2,9-2,10.9c0,2.5,1.2,2.5,4.1,2.5C524.1,110.5,524.2,110.2,527,97.1z"/>
	<path style="fill:#FFFFFF;" d="M545.6,135.9l2-9.8h9.6c8,0,8.2,0,9.4-5.6c0.3-1.2,0.5-2.5,0.8-3.8h-0.7c-3.1,3.9-6.8,4.7-9.5,4.7
		c-7.2,0-9.4-2.8-9.4-7.8c0-1.9,0.3-4.1,0.9-6.6l4.7-22H569l-3.9,18.4c-0.5,2.4-0.8,3.9-0.8,4.7c0,1.3,0.6,1.3,2,1.3
		c2.5,0,2.7-0.1,4-6l3.9-18.4h15.6l-7,33.1c-2.6,12.4-3.6,19-23.8,19C554.1,137,548.5,136.6,545.6,135.9z"/>
	<path style="fill:#FFFFFF;" d="M590.4,114.8c0-2,0.7-5.6,1.4-9.1l4.4-20.7h15.5l-3.9,18.6c-0.5,2.3-0.9,4.6-0.9,5.5
		c0,1.4,0.5,1.5,1.7,1.5c2.8,0,3-0.4,4.2-6L617,85h15.5l-7.8,37.1h-15l0.6-4.1h-0.7c-3.1,3.9-7.2,4.7-10,4.7
		C592.4,122.6,590.4,120,590.4,114.8z"/>
	<path style="fill:#FFFFFF;" d="M639,85h15l-0.6,4.1h0.7c3.1-3.9,7.2-4.7,10-4.7c7,0,9,2.5,9,7.6c0,2-0.6,5.6-1.3,9.1l-4.5,21H652
		l3.9-18.6c0.5-2.3,0.9-4.6,0.9-5.5c0-1.4-0.5-1.5-1.7-1.5c-2.8,0-3,0.4-4.2,6l-4.2,19.6h-15.5L639,85z"/>
	<path style="fill:#FFFFFF;" d="M685.3,68.1h15.8l-11.4,54H674L685.3,68.1z"/>
	<path style="fill:#FFFFFF;" d="M697.8,113.8c0-2.6,0.3-6,1.2-10.2c3.1-15.1,7-19.2,14.4-19.2c4,0,7.7,0.5,9.6,4.2h0.7l1.2-3.7h15.1
		l-7.8,37.1h-15l0.7-4.1h-0.8c-2.6,3.9-6,4.7-9.3,4.7C701,122.6,697.8,120.7,697.8,113.8z M719.2,108.8c0.7-2,2.3-9,2.3-10.8
		c0-1.5-0.5-1.6-2.4-1.6c-3,0-3.1,0.1-4.6,7.1c-0.7,2.9-0.9,4.6-0.9,5.7c0,1.4,0.7,1.5,2.5,1.5C718.1,110.6,718.6,110.5,719.2,108.8
		z"/>
	<path style="fill:#FFFFFF;" d="M746.5,85h15l-1,6.2h0.7c3.2-5.5,5.9-6.8,12.6-6.8l-2.9,13.5c-9.7,0-12,1.8-14.1,11.7l-2.7,12.4
		h-15.5L746.5,85z"/>
	<path style="fill:#FFFFFF;" d="M778.3,85h15.8l-7.8,37.1h-15.8L778.3,85z"/>
</g>
<g>
	<path style="fill-rule:evenodd;clip-rule:evenodd;fill:#FFFFFF;" d="M93.1,121c0.2,0.4,0.2,0.6,0.4,0.7c1.3,1.3,2.7,2.7,4,4
		c0.2,0.2,0.5,0.5,0.6,0.7c0.3,1.4,0.5,2.8,0.8,4.3c0.2,1.2,0.4,2.5,0.7,3.9c1.8-1.5,3.5-2.8,5.2-4.2c0.6-0.5,1-0.5,1.7-0.3
		c4.9,1.3,9.8,1.3,14.6,0.1c1.1-0.3,1.7-0.1,2.5,0.6c1.5,1.3,3.1,2.5,4.7,3.8c0.1-0.3,0.2-0.4,0.2-0.6c0.4-2.2,0.8-4.5,1.1-6.8
		c0.1-0.7,0.3-1.2,0.9-1.6c1.6-1.2,3-2.6,4-4.3C120.6,129.5,106.9,129.5,93.1,121z"/>
	<path style="fill-rule:evenodd;clip-rule:evenodd;fill:#FFFFFF;" d="M96.7,101.3c1.3-0.3,1.7-1.1,1.7-2.3c0.1-1.7,0.4-3.4,0.6-5.3
		c1.9,1.4,3.5,2.6,5.2,3.8c0.3,0.2,0.8,0.5,1.1,0.4c2-0.7,3.9-1.4,6-2.2C104.2,91.5,99,85.8,94.5,79c-2.8,7.9-2.6,15.6-1.2,23.5
		C94.5,102,95.6,101.5,96.7,101.3z"/>
	<path style="fill-rule:evenodd;clip-rule:evenodd;fill:#FFFFFF;" d="M123.8,97c1.4-1.2,2.9-2.2,4.6-3.5c0.2,2.1,0.4,4,0.7,5.9
		c0.1,0.5,0.2,1.2,0.6,1.3c1.4,0.6,2.8,1.1,4.4,1.7c1.4-7.9,1.7-15.6-1.2-23.4c-4.4,6.8-9.7,12.5-16.7,16.5c1.8,0.7,3.4,1.2,4.9,1.9
		C122.1,98,122.9,97.7,123.8,97z"/>
	<path style="fill-rule:evenodd;clip-rule:evenodd;fill:#FFFFFF;" d="M116.9,111.6c-1.1-1.9-2.1-3.6-3.2-5.6c-1.2,2-2.2,3.7-3.2,5.6
		C112.7,111.6,114.7,111.6,116.9,111.6z"/>
	<path style="fill-rule:evenodd;clip-rule:evenodd;fill:#FFFFFF;" d="M200.7,87.8C187,112.2,165.9,121,165.9,121
		c-6.3,0-11.7-2-15.2-3.6c0.1-0.1,0.3-0.2,0.4-0.3c2.1-1.1,3.8-2.7,5.3-4.5c4.6-5.6,7.4-12,8.6-19.1c0.5-2.8,0.9-5.6,0.5-8.4
		c-0.7-4.6-4.1-6.9-8-5.8c-1.1,0.3-1.3-0.1-1.2-1.1c1-8.5,0.4-16.9-2.1-25.1c-3-9.7-9.3-16.2-18.9-19.5c-6.8-2.3-13.9-2.9-21-3.1
		c-1.4,0.1-2.8,0.1-4.3,0.2c-6.3,0.2-12.5,1.3-18.4,3.8c-8.1,3.4-14,9.1-17.4,17.2c-3.6,8.5-4.3,17.4-3.5,26.6
		c0.1,1.4,0.2,1.4-1.2,1.1c-3.9-0.9-6.8,1-7.7,4.8c-0.2,1-0.3,1.9-0.3,2.9c0.3,8,2.4,15.4,6.7,22.1c2,3.1,4.2,5.9,7.4,7.8
		c0.3,0.2,0.5,0.4,0.7,0.6c-3.5,1.6-9,3.5-14.9,3.5c0,0-21-8.7-34.8-33.2c0,0-9.8,47.5,5.4,62.7c12.8,12.8,63.6,16.9,79.3,17.9
		l0,0.3c0,0,0.8,0,2.3-0.1c1.5,0.1,2.3,0.1,2.3,0.1l0-0.3c15.6-1,66.5-5.1,79.3-17.9C210.5,135.3,200.7,87.8,200.7,87.8z M69.4,89.6
		c-0.1-0.4-0.3-1,0.2-1.2c0.5-0.3,0.8,0.3,1.1,0.6c1.4,1.4,2.9,2.5,5.1,2.1c0.9-0.2,1.3,0.8,2,1.3c0.5,0.3,0.8,1.3,1.4,0.9
		c0.6-0.3,0.2-1.1,0.2-1.7c-0.2-7.8-0.5-15.6,0.9-23.3c0.5-2.8,1.4-5.5,2.8-8.1c3.5-6.3,10.1-6.6,14.5-4.8c3.5,1.5,6.1,4,8.4,7
		c3.1,4.1,5.2,8.7,7,13.6c0.2,0.5,0.3,1,0.7,1.5c0.5-0.4,0.6-1,0.8-1.5c1.7-4.8,3.9-9.5,6.9-13.6c2.6-3.6,5.8-6.6,10.3-7.8
		c5.4-1.5,10.1,0.6,12.5,5.7c1.8,3.7,2.4,7.7,2.9,11.7c0.8,6.6,0.8,13.3,0.9,19.9c0,0.5-0.2,1.1,0.3,1.3c0.6,0.3,1-0.3,1.3-0.7
		c0.9-1,1.8-1.7,3.4-1.6c1.5,0.1,2.5-1.1,3.6-2.1c0.4-0.3,0.7-1,1.3-0.7c0.4,0.2,0.2,0.9,0.1,1.4c-0.8,6.6-2.8,12.7-7.1,17.8
		c-1.4,1.7-2.9,3-5.1,3.6c-1.6,0.4-2.4,1.8-2.6,3.4c-1.9,14.9-10.7,24.3-23.7,30.6c-3.7,1.8-7.5,1.8-11.3,0.1
		c-10.5-4.8-18.2-12.3-22.2-23.3c-0.9-2.3-1.3-4.6-1.5-7c-0.2-2.3-1.4-3.7-3.6-4.2c-1.6-0.4-2.6-1.5-3.6-2.7
		C72.5,102.6,70.3,96.4,69.4,89.6z"/>
</g>
</svg>
