<?xml version="1.0" encoding="utf-8"?>
<!-- Generator: Adobe Illustrator 24.1.2, SVG Export Plug-In . SVG Version: 6.00 Build 0)  -->
<svg version="1.1" id="Layer_1" xmlns="http://www.w3.org/2000/svg" xmlns:xlink="http://www.w3.org/1999/xlink" x="0px" y="0px"
	 viewBox="0 0 611.2 202" style="enable-background:new 0 0 611.2 202;" xml:space="preserve">
<style type="text/css">
	.st0{fill:#FFFFFF;}
</style>
<g>
	<path class="st0" d="M111.7,56.7l12.6,7.1c0,0,8.3,9.8,23.6,2.1c12.3-8.9,7.7-14.7,7.7-14.7L98,16.6c0,0-5.8-3.4-10.7-3.4
		s-10.1,3.1-10.1,3.1L16.8,50c0,0-9.8,3.4-9.8,16.6s0,28.8,0,28.8s-3.1,8.9,9.2,15.9c12.3,7.1,58.9,28.8,58.9,28.8
		s14.1,5.2,21.5-8.3c6.4-14.7-4-20.2-4-20.2l-33.7-15c0,0-16.2-8.9-7.1-29.4C61,46.7,88,50,88,50S101.3,50.8,111.7,56.7z"/>
	<path class="st0" d="M56.4,145.3l-12.6-7.1c0,0-8.3-9.8-23.6-2.1c-12.3,8.9-7.7,14.7-7.7,14.7l57.6,34.6c0,0,5.8,3.4,10.7,3.4
		s10.1-3.1,10.1-3.1l60.4-33.7c0,0,9.8-3.4,9.8-16.6s0-28.8,0-28.8s3.1-8.9-9.2-15.9C139.8,83.7,93.2,62,93.2,62s-14.1-5.2-21.5,8.3
		c-6.4,14.7,4,20.2,4,20.2l33.7,15c0,0,16.2,8.9,7.1,29.4s-36.2,17.2-36.2,17.2S66.9,151.2,56.4,145.3z"/>
	<path class="st0" d="M604.6,52.3c-3.8,0-7.6,0-11.6,0c0,12.3,0,24.3,0,36.5c-4.1,0-7.9,0-12.1,0c0-12.1,0-24.2,0-36.5
		c-4,0-7.7,0-11.6,0c0-3.7,0-7.2,0-11.1c11.9,0,23.6,0,35.3,0C604.6,44.9,604.6,48.6,604.6,52.3z"/>
	<path class="st0" d="M294.4,41.5c0,15.9,0,31.6,0,47.5c-4.1,0-8,0-12.2,0c0-7.1,0-14,0-21.2c-2.9,2.8-5.6,5.2-8.1,7.8
		c-2.9,2.9-2.8,2.9-5.7,0c-2.5-2.5-5.3-4.8-7.9-7.1c0,6.5,0,13.3,0,20.5c-4.2,0-8.2,0-12.4,0c0-15.7,0-31.5,0-47.4
		c2.5-0.7,4.5-0.2,6.3,2c5.4,6.2,11.1,12.1,16.8,18.4c5.6-6.1,11.1-12,16.4-18C289.5,41.7,291.5,40.6,294.4,41.5z"/>
	<path class="st0" d="M503.6,40.5c14.3,0,24.4,10.1,24.5,24.6s-10,24.8-24.3,24.9c-14.8,0-24.7-9.8-24.8-24.6
		C479,50.8,489.1,40.5,503.6,40.5z M515.5,65.1c0-7.6-5-12.8-11.9-12.8c-7,0-11.9,5.2-11.9,12.8c0,7.7,5,13.1,12.1,13
		C510.6,78.1,515.5,72.6,515.5,65.1z"/>
	<path class="st0" d="M392.9,89c-4,0-8,0.1-12-0.1c-0.7,0-1.6-0.9-2.1-1.7c-1.7-2.9-3.2-5.8-4.8-8.7c-2.7-5-2.7-5-8.9-4.1
		c0,4.7,0,9.4,0,14.4c-4.2,0-8.2,0-12.3,0c0-15.8,0-31.5,0-47.8c8.7,0.3,17.3,0.1,25.7,1.1c6.1,0.7,9.9,5.2,11.6,11.2
		c1.8,6.4,0.4,12.2-4.2,17.1c-0.6,0.6-1.3,1.2-2.1,1.9c3.2,5.3,6.5,10.6,9.7,15.9C393.3,88.4,393.1,88.7,392.9,89z M365.1,64
		c2.7,0,5,0,7.3,0c0.5,0,1,0,1.5,0c3.1-0.4,4.9-2.7,4.7-6.3c-0.1-3.3-1.8-5.2-5-5.3c-2.8-0.1-5.6,0-8.5,0
		C365.1,56.2,365.1,59.9,365.1,64z"/>
	<path class="st0" d="M434.9,74.4c3.7,0,7.1,0,10.5,0c0.5,0,1.2,0.5,1.6,1c2.8,4,8.5,5.1,12.6,2.5c2.8-1.8,2.7-5.4-0.4-6.8
		c-1.6-0.7-3.6-0.9-5.4-1.2c-3.2-0.6-6.4-0.9-9.5-1.8c-4.8-1.5-8.1-4.8-8.8-10c-0.8-5.6,0.9-10.5,5.5-14c7-5.3,19-5.1,25.9,0.3
		c3.5,2.8,5.2,6.5,5.3,11.2c-3.7,0-7.4,0-11.2,0c-2.9-4.1-5.8-5.2-10.1-3.9c-2,0.6-3.3,1.7-3.3,3.9c0,2.3,1.5,3.4,3.4,3.7
		c3.5,0.7,7.2,1,10.7,1.7c8,1.7,11.5,5.4,12.1,12.6c0.6,6.5-3,12-9.9,14.7c-7.2,2.8-14.4,2.6-21.3-0.9
		C437.8,84.9,435.1,80.7,434.9,74.4z"/>
	<path class="st0" d="M238.5,55.8c-3.8,0-7.4,0-11.1,0c-2.5-4.2-6.2-5.7-10.5-3.8c-1.3,0.6-2.7,2.5-2.7,3.8c-0.1,1.1,1.5,3,2.8,3.4
		c2.7,0.9,5.6,0.9,8.4,1.4c1.9,0.3,3.8,0.7,5.7,1.3c11.6,3.5,11.3,17.8,4.5,23.4c-7.6,6.3-22.1,6.5-29.6,0.2
		c-3.2-2.7-4.8-6.3-4.7-11c3.5,0,7,0,10.4,0c0.5,0,1.2,0.6,1.5,1.1c2.7,4,9,5.1,12.9,2.1c2.4-1.8,2.3-5.2-0.5-6.5
		c-1.6-0.8-3.6-0.9-5.4-1.3c-3.2-0.6-6.4-0.9-9.5-1.8c-4.9-1.5-8.3-4.8-9-10.1c-0.7-5.6,0.9-10.5,5.6-14c7-5.2,19-5,25.9,0.4
		C236.8,47.2,238.5,50.9,238.5,55.8z"/>
	<path class="st0" d="M298.5,89.1c0.5-1.5,0.8-2.6,1.2-3.5c6.7-14.2,13.4-28.4,20-42.7c0.9-2,2.2-2.1,3.9-2.1s3,0.1,3.9,2.1
		c6.5,14.2,13.2,28.3,19.8,42.5c0.5,1,0.6,2.1,1.1,3.6c-4.4,0-8.3,0.1-12.1-0.1c-0.8,0-1.8-1.4-2.1-2.4c-0.9-2.8-2.6-3.7-5.5-3.4
		c-3.6,0.3-7.2,0.2-10.8,0c-2.4-0.1-3.9,0.5-4.5,3s-2.2,3.3-4.7,3.1C305.4,88.9,302.2,89.1,298.5,89.1z M328.5,72.7
		c-1.7-3.9-3.2-7.4-4.9-11.4c-1.7,4.1-3.2,7.6-4.8,11.4C322.2,72.7,325,72.7,328.5,72.7z"/>
	<path class="st0" d="M563.4,62.7c0,3.8,0,7.2,0,11c-5,0-10,0-15.1,0c0,5.2,0,10.1,0,15.2c-4.2,0-8.2,0-12.3,0c0-15.8,0-31.5,0-47.4
		c9.8,0,19.5,0,29.4,0c0,3.5,0,6.9,0,10.7c-5.6,0-11.1,0-16.9,0c0,3.6,0,7,0,10.6C553.4,62.7,558.2,62.7,563.4,62.7z"/>
	<path class="st0" d="M395.7,41.5c11.8,0,23.3,0,35,0c0,3.6,0,7.1,0,10.8c-3.7,0-7.4,0-11.5,0c0,12.4,0,24.4,0,36.7
		c-4.1,0-7.9,0-11.9,0c0-12.1,0-24.1,0-36.5c-4,0-7.7,0-11.6,0C395.7,48.6,395.7,45.2,395.7,41.5z"/>
	<path class="st0" d="M348.4,115.7c0,16.6,0,32.3,0,48.3c-1.9,0-3.6,0-5.6,0c0-11,0-22,0-33c-0.2-0.1-0.4-0.2-0.7-0.3
		c-5.1,6.9-10.1,13.8-15.6,21.3c-5.4-7.4-10.4-14.3-15.5-21.3c-0.2,0.1-0.4,0.1-0.6,0.2c0,11,0,21.9,0,33.1c-2,0-3.7,0-5.6,0
		c0-15.8,0-31.5,0-48.2c1.4,1,2.7,1.5,3.4,2.4c5.6,7.5,11.2,15.1,16.8,22.6c0.5,0.6,0.9,1.2,1.6,2.1c1.8-2.5,3.6-4.8,5.3-7.1
		c4.4-5.9,8.7-11.8,13.1-17.7C345.7,117.3,346.9,116.7,348.4,115.7z"/>
	<path class="st0" d="M243.3,144c-3,0-5.7,0-8.4,0c-2.7,0-5.4,0-8.3,0c0-1.6,0-3,0-4.6c7.2,0,14.5,0,21.8,0
		c2.4,10.6-5.1,22-16.3,24.7c-11.6,2.9-23.1-2.3-27.8-12.6c-5.1-11.1-1.8-24.9,7.4-31.4c8-5.6,20-5.8,27.9-0.4
		c3.6,2.4,6,5.7,7.2,10.1c-3.1,0.6-5.3,0.5-7.1-2.7c-3.2-5.6-12.3-7.6-19.9-5.2c-7.7,2.5-12.3,9.9-12.1,19.1c0.2,9,5.1,15.8,13,17.8
		C231,161.3,242.4,157,243.3,144z"/>
	<path class="st0" d="M477.7,143.9c-5.6,0-11.1,0-16.7,0c0-1.6,0-2.9,0-4.5c7.2,0,14.5,0,21.7,0c2.2,10.8-5.1,22-16.4,24.8
		c-11.5,2.8-22.9-2.3-27.6-12.4c-5.2-11.1-2-24.9,7.2-31.5c7.6-5.5,19.2-5.9,27.2-1c4,2.4,6.7,5.9,8.1,10.6c-3,0.6-5.1,0.7-7.1-2.5
		c-3.9-6.4-10.6-6.9-17.2-5.9c-9,1.3-14.7,8.8-14.9,18.7c-0.2,13.8,10.9,22.4,24.2,18.7C473.1,156.8,477.1,151.7,477.7,143.9z"/>
	<path class="st0" d="M388.6,115.5c1.5,1.1,2.5,1.7,3.3,2.6c9,10.4,18,20.9,27,31.3c0.6,0.7,1.3,1.5,2.2,2.5c0-12,0-23.6,0-35.4
		c1.7,0,3.4,0,5.3,0c0,15.8,0,31.6,0,48.3c-1.4-1-2.5-1.6-3.3-2.5c-9.2-10.6-18.3-21.2-27.5-31.7c-0.4-0.5-0.9-1-1.7-1.9
		c0,11.9,0,23.4,0,35.2c-1.9,0-3.6,0-5.4,0C388.6,148.1,388.6,132.4,388.6,115.5z"/>
	<path class="st0" d="M250.9,163.8c0.3-0.9,0.6-1.7,0.9-2.4c6.8-14.4,13.6-28.8,20.4-43.1c0.4-0.8,1.3-1.8,2.1-1.9
		c0.7,0,1.9,0.9,2.2,1.6c6.9,14.6,13.7,29.1,20.5,43.7c0.3,0.6,0.4,1.2,0.6,1.9c-5.1,1.1-6.1,1.1-7.4-3.4c-2.1-6.7-6-9.1-12.8-8.1
		c-4.1,0.6-8.4,0.2-12.6,0.1c-1.8-0.1-2.7,0.6-3.3,2.2c-0.8,1.9-1.7,3.7-2.6,5.6C256.6,164.7,256.6,164.7,250.9,163.8z M264.4,147.3
		c6.7,0,13.1,0,19.8,0c-3.3-7.3-6.4-14.3-9.9-22L264.4,147.3z"/>
	<path class="st0" d="M365.4,121c-2.5,0-4.8,0-7.3,0c0-1.5,0-2.9,0-4.4c6.9,0,13.8,0,20.9,0c0,1.5,0,2.8,0,4.3c-2.4,0-4.7,0-7.3,0
		c0,13,0,25.7,0,38.7c2.6,0,5.1,0,7.8,0c0,1.5,0,2.7,0,4.3c-7.2,0-14.5,0-21.9,0c0-1.3,0-2.6,0-4.2c2.6,0,5.1,0,7.8,0
		C365.4,146.7,365.4,134.1,365.4,121z"/>
</g>
</svg>
