<?xml version="1.0" encoding="utf-8"?>
<!-- Generator: Adobe Illustrator 26.1.0, SVG Export Plug-In . SVG Version: 6.00 Build 0)  -->
<svg version="1.1" id="Layer_1" xmlns="http://www.w3.org/2000/svg" xmlns:xlink="http://www.w3.org/1999/xlink" x="0px" y="0px"
	 viewBox="0 0 1056.6 202" style="enable-background:new 0 0 1056.6 202;" xml:space="preserve">
<path style="fill:#D60006;" d="M750.9,56.4c3,0,5,2.9,3.8,5.6l-36.5,80.4c-12.5,27.6-24.1,37.5-48.1,37.5h-6.9c-2.3,0-4.1-1.8-4.1-4
	v-18.7c0-2.2,1.8-4,4.1-4h4.7c12.3,0,16-3.1,20.3-14.3l-35.8-77c-1.2-2.6,0.8-5.6,3.8-5.6h25.6c1.7,0,3.2,1,3.8,2.5l18.7,47l17.4-47
	c0.6-1.6,2.1-2.6,3.9-2.6H750.9z"/>
<path style="fill:#D60006;" d="M646.7,60.3v82.1c0,2.2-1.8,4-4.1,4h-17.9c-1.7,0-3.2-1-3.8-2.5l-1.7-3.9c-7.6,6-17.3,9.4-28.1,9.4
	c-28.5,0-48.8-20.1-48.8-48.1c0-27.9,20.3-47.7,48.8-47.7c11,0,20.8,3.5,28.4,9.7l2.2-4.6c0.7-1.4,2.1-2.3,3.7-2.3h17.1
	C644.8,56.3,646.7,58.1,646.7,60.3z M616.2,101.4c0-11.7-8.8-20.5-20.8-20.5c-12.1,0-20.8,8.8-20.8,20.5c0,11.8,8.8,20.5,20.8,20.5
	S616.2,113.1,616.2,101.4z"/>
<path style="fill:#D60006;" d="M506.1,37.7l18-13.1c0.7-0.5,1.6-0.8,2.5-0.8h5.8c2.3,0,4.1,1.8,4.1,4v114.6c0,2.2-1.8,4-4.1,4h-23.8
	c-2.3,0-4.1-1.8-4.1-4V40.9C504.4,39.7,505,38.5,506.1,37.7z"/>
<path style="fill:#D60006;" d="M426.5,151.9v24c0,2.2-1.8,4-4.1,4h-5.8c-0.9,0-1.8-0.3-2.5-0.8c-4.7-3.4-12.9-9.4-18-13.1
	c-1-0.7-1.6-1.9-1.6-3.2v-32.1l10.9,9.1C411.3,145.3,418.5,149.4,426.5,151.9z"/>
<path style="fill:#D60006;" d="M388.9,27.8V72L378,62.9c-5.9-5.4-13.1-9.5-21.2-12v-10c0-1.3,0.6-2.4,1.7-3.2
	c4.8-3.5,13.3-9.7,18-13.1c0.7-0.5,1.6-0.8,2.5-0.8h5.8C387.1,23.9,388.9,25.6,388.9,27.8z"/>
<path style="fill:#D60006;" d="M446.7,53.4c-22.1,0-39.7,10.6-47.6,27.2l27.6,23.2c-0.1-0.8-0.1-1.6-0.1-2.4
	c0-11.9,8.4-20.1,20.1-20.1c6.2,0,11.5,2.3,15,6.3c0.3,0.4,0.7,0.8,1,1.2c0.1,0.1,0.1,0.2,0.2,0.3c0.1,0.1,0.2,0.3,0.3,0.4
	c0.1,0.1,0.2,0.3,0.3,0.4c0.1,0.1,0.1,0.2,0.2,0.3c0.1,0.2,0.2,0.3,0.3,0.5c0.1,0.1,0.1,0.2,0.2,0.3c0.1,0.2,0.2,0.3,0.3,0.5
	c0,0.1,0.1,0.2,0.1,0.3c0.1,0.2,0.2,0.4,0.3,0.6c0,0.1,0.1,0.2,0.1,0.3c0.1,0.2,0.2,0.4,0.3,0.6c0,0.1,0.1,0.2,0.1,0.2
	c0.1,0.2,0.2,0.5,0.3,0.7c0,0.1,0,0.1,0.1,0.2c0.1,0.3,0.2,0.5,0.2,0.8c0,0.1,0,0.1,0.1,0.2c0.1,0.3,0.1,0.5,0.2,0.8
	c0,0,0,0.1,0,0.1c0.1,0.3,0.1,0.6,0.2,0.9c0,0,0,0,0,0.1c0.3,1.4,0.4,2.8,0.4,4.2c0,11.9-8.4,20.1-20.1,20.1
	c-6.2,0-10.4-2.5-15.1-6.3L374.2,67c-9.3-8.5-22.3-13.5-37.5-13.5c-30.3,0-52.2,20.1-52.2,48c0,12.1,4.2,22.8,11.3,31
	c0,0,0.1,0.1,0.1,0.1c0.1,0.1,0.3,0.3,0.4,0.4c0.1,0.1,0.3,0.3,0.4,0.5c0,0,0,0,0.1,0.1c9.3,10,23.3,16,39.9,16
	c22,0,39.6-10.7,47.6-27.2L356.7,99c0.1,0.8,0.1,1.6,0.1,2.4c0,11.9-8.4,20.1-20.1,20.1c-6.2,0-11.5-2.3-15.1-6.3
	c-0.4-0.4-0.7-0.8-1.1-1.3c0,0,0-0.1-0.1-0.1c-0.1-0.2-0.3-0.3-0.4-0.5c-0.1-0.1-0.1-0.2-0.2-0.2c-0.1-0.2-0.2-0.3-0.3-0.5
	c-0.1-0.1-0.1-0.2-0.2-0.3c-0.1-0.1-0.2-0.3-0.3-0.5c-0.1-0.1-0.1-0.2-0.2-0.4c-0.1-0.1-0.2-0.3-0.2-0.5c-0.1-0.1-0.1-0.3-0.2-0.4
	c-0.1-0.2-0.1-0.3-0.2-0.5c-0.1-0.1-0.1-0.3-0.2-0.4c-0.1-0.2-0.1-0.3-0.2-0.5c0-0.1-0.1-0.3-0.1-0.4c-0.1-0.2-0.1-0.3-0.2-0.5
	c0-0.1-0.1-0.3-0.1-0.4c-0.1-0.2-0.1-0.4-0.2-0.6c0-0.1-0.1-0.2-0.1-0.4c-0.1-0.2-0.1-0.4-0.1-0.6c0-0.1,0-0.2-0.1-0.3
	c0-0.2-0.1-0.4-0.1-0.7c0-0.1,0-0.2,0-0.3c0-0.3-0.1-0.5-0.1-0.8c0,0,0-0.1,0-0.1c-0.1-1-0.2-1.9-0.2-2.9c0-11.9,8.4-20.1,20.1-20.1
	c6.2,0,10.8,2.8,15,6.3l57.4,48.2c8.4,7.8,20,12.6,33.5,13.4v0c0.2,0,0.4,0,0.7,0c0.3,0,0.5,0,0.8,0c0.3,0,0.6,0,0.9,0
	c0.3,0,0.6,0,0.9,0c0.2,0,0.5,0,0.7,0c30.2,0,52.2-20.2,52.2-48C498.8,73.5,476.9,53.4,446.7,53.4z"/>
<path style="fill:#D60006;" d="M247.8,37.7l18-13.1c0.7-0.5,1.6-0.8,2.5-0.8h5.8c2.3,0,4.1,1.8,4.1,4v114.6c0,2.2-1.8,4-4.1,4h-23.8
	c-2.3,0-4.1-1.8-4.1-4V40.9C246.2,39.7,246.8,38.5,247.8,37.7z"/>
<path style="fill:#D60006;" d="M135.7,101.4c0-27.9,21.8-48,52.2-48c30.2,0,52.2,20.1,52.2,48c0,27.8-21.9,48-52.2,48
	C157.6,149.3,135.7,129.2,135.7,101.4z M187.9,121.5c11.7,0,20.1-8.2,20.1-20.1c0-11.8-8.4-20.1-20.1-20.1
	c-11.7,0-20.1,8.2-20.1,20.1C167.8,113.3,176.2,121.5,187.9,121.5z"/>
<path style="fill:#D60006;" d="M80.6,53.6c28.7,0,48.9,19.9,48.9,47.9c0,28-20.2,47.9-48.9,47.9c-10.9,0-20.5-3.5-28.1-9.6l-1.9,4.3
	c-0.7,1.4-2.1,2.4-3.8,2.4H29.9c-2.3,0-4.1-1.8-4.1-4V40.9c0-1.3,0.6-2.4,1.6-3.2l18-13.1c0.7-0.5,1.6-0.8,2.5-0.8h5.5
	c2.3,0,4.1,1.8,4.1,4v31.9C64.1,55.8,72,53.6,80.6,53.6z M97.2,101.5c0-11.8-8.8-20.5-20.8-20.5s-20.8,8.8-20.8,20.5
	c0,11.7,8.8,20.4,20.8,20.4C88.3,121.9,97.2,113.1,97.2,101.5z"/>
</svg>
