<?xml version="1.0" encoding="utf-8"?>
<!-- Generator: Adobe Illustrator 25.4.1, SVG Export Plug-In . SVG Version: 6.00 Build 0)  -->
<svg version="1.0" id="Layer_1" xmlns="http://www.w3.org/2000/svg" xmlns:xlink="http://www.w3.org/1999/xlink" x="0px" y="0px"
	 viewBox="0 0 407.6 100" style="enable-background:new 0 0 407.6 100;" xml:space="preserve">
<style type="text/css">
	.st0{fill:#FFFFFF;}
</style>
<g>
	<g>
		<path class="st0" d="M337.5,71.4c0-2.5-0.2-4.9,0-7.4c0.2-2.3-0.9-3.4-3.4-3.8c-3-0.5-5.9-1.2-9.1-1.9c0-7.9-0.8-15.8,0.4-23.5
			c0.4-2.6,5.7-4.6,8.8-6.8c0.2-0.1,0.6,0,0.9-0.1c8.4-0.7,7.9-0.5,11.1,6.4c3.4,7.4,1.3,14.6,0.5,21.9c-0.1,0.9-1.7,2.3-2.8,2.5
			c-5,0.9-6,3.6-5.4,7.5c0.3,1.7,0,3.4,0,5.1C338.2,71.4,337.9,71.4,337.5,71.4z M341.7,35.7c-5.7,7.9-5.6,9.3,1.8,15.4
			C344.4,45.7,345.7,40.6,341.7,35.7z M342,53.1c-1.9-2.4-3.9-4.9-6.3-7.9c-1.9,3.4-3.4,6.2-4.8,8.8C335.2,56.7,338.8,57,342,53.1z
			 M335.7,42.4c2.1-3.6,3.8-6.5,5.6-9.5c-0.3-0.4-0.6-0.8-0.8-1.2c-3.5,0.8-7,1.6-11.2,2.6C331.7,37.5,333.5,39.6,335.7,42.4z
			 M329.8,38.4c0,4.8,0,8.8,0,13.3C335.5,44.2,335.5,44.2,329.8,38.4z"/>
		<path class="st0" d="M370.9,59.5c-2.6,0.9-4-0.1-5.1-2.6c-2.7-6.3-5.6-12.4-9.1-18.5c0,6.8,0,13.7,0,20.8c-1.7,0.3-3.2,0.7-4.8,1
			c0-10.1,0-19.9,0-29.6c3.8-1.8,6.1-1.4,7.6,2.1c1.8,4.1,4.3,8.1,7.3,11.9c-0.5-5.4-0.9-10.9-1.4-16.5c1.9,0,3.3,0,5.5,0
			C370.9,38.7,370.9,48.9,370.9,59.5z"/>
		<path class="st0" d="M270.7,46.2c1-1,1.9-1.9,2.7-2.8c4.7,1.5,1.1,3.5,0.4,6c1.4,0.7,3,1.4,4.5,2.4c1.2,0.8,2.1,1.8,3.2,2.7
			c-0.4,0.5-0.8,1-1.2,1.5c-2.9-1-5.8-2.1-9.1-3.3c-1.2,1.7-2.7,3.9-4.2,6c-1.9,2.5-5.8,3.2-8.6,1.3c-3.9-2.7-7.5-5.7-11.7-8.8
			c4.5-3.1,8.7-6,13.6-9.3c-6.4-3.3-5.6-7.9-3.4-13.1c3.3,0.4,6.7,0.8,10.2,1.2c0,3.1,0.8,6.2-0.2,8.8
			C265.1,42.9,268.1,44.1,270.7,46.2z M253.6,52.4c3.1,1.8,5.9,3.4,8.9,5.1c2.1-2.8,4-5.3,6.1-8c-2-1.8-3.8-3.4-5.5-5
			C259.8,47.2,256.9,49.6,253.6,52.4z M259.8,32.4c-0.9,4.5-0.6,5,4,6.9C263.9,36.4,266.2,32.8,259.8,32.4z"/>
		<path class="st0" d="M303.5,45.9c-1.7-4.8-3.4-9.3-5.2-14.2c4.6-1.9,9-3.8,13.5-5.6c0.7-0.3,2,0.2,2.7,0.7c2,1.4,3.7,3,5.8,4.8
			c-1.5,1.2-2.8,2.3-4.1,3.3c-2.7-1.4-3.9-5.7-8.4-3.5c-1.2,0.6-2.7,1.9-2.9,3c-0.3,2.3,0.1,4.7,0.3,7.6c3.2-0.4,6-0.5,8.7-1.1
			c2.7-0.6,3.5,0.4,4.6,2.4c2.6,4.7,2.8,8.9-0.2,13.8c-2.1,3.3-2.2,7.5-3,10.5c-0.3-1.3-0.8-3.5-1.4-6.2c-6.9,0.3-13.8,0.2-14.7-8.3
			c1.4-1.6,2.9-1.7,4.7,0.7c2.2,3,7.5,4.3,9.9,2.9c2.7-1.6,3.3-7.4,0.9-10c-0.8-0.8-2.4-1.3-3.7-1.3
			C308.5,45.2,306.2,45.6,303.5,45.9z"/>
		<path class="st0" d="M219.5,49.8c2.1,2.5,4.3,5,6.4,7.4c-5.5,5.1-1.2,11.3-3.9,16.7c0-3.6,0.6-7.4-0.2-10.9c-0.9-4-2.8-8-4.9-11.7
			c-0.6-1-3.6-1-5.9-1.5c0,3.9,0,7,0,10.3c-1.7,0.2-3.1,0.4-4.8,0.6c0-10.3,0-20.3,0-31.2c4.7,0,9,0,13.3,0c0.5,0,1.3,0.4,1.4,0.7
			c2,5.4,5.3,10.6,2.3,16.5C222.8,47.9,221.1,48.6,219.5,49.8z M211.2,32.3c0,5.4,0,9.5,0,13.7c3.5,0.6,7.1,1.7,9.3-1.2
			c2.8-3.7,0-7.3-2.2-10.2C217.3,33.2,214,33.1,211.2,32.3z"/>
		<path class="st0" d="M376.6,44.9c0.3-4.3,0.6-8.2,1-12.2c0.1-0.7,1.1-1.5,1.9-1.8c1-0.5,2.3-0.6,3.5-0.9c8-1.9,8-1.9,13.1,4.6
			c-0.8,0.8-1.6,1.7-2.8,2.9c-3.2-5.1-7.4-4.1-12-1.8c0,0.6,0.1,1.2,0,1.9c-0.5,3.9,1.3,5.6,5.9,5c3.1-0.4,5.8,0,7.1,3.3
			c1.3,3.4,5.2,6.5,0.4,10.1c-0.3,0.2-0.6,0.6-0.8,0.9c-6,6.9-12.4,6.6-17.8-0.7c-0.5-0.7-1-1.3-1.7-2.3c0.9-0.9,1.8-1.8,2-2.1
			c3.4,2,6.2,4,9.5,5.2c2.5,1,6.2-1.8,6.9-4.6c0.5-2-2.5-5.9-4.9-6.2C384.3,45.7,380.8,45.3,376.6,44.9z"/>
		<path class="st0" d="M131.7,49.7c-3.1,0.2-6.4,0.3-9.5,0.5c-2.9,3.3,1.7,9.3-5.6,11c0-10.5,0-20.5,0-30.6c4.6,0,8.8-0.1,12.9,0.1
			c0.8,0,1.9,1.1,2.2,2C134.4,38.2,135,43.9,131.7,49.7z M127.4,33.9c-1.7,0.9-4.7,1.5-5,2.6c-0.8,3.4-0.6,7.1-0.9,10.6
			C131.8,47.2,133.2,44.2,127.4,33.9z"/>
		<path class="st0" d="M153.5,67.5c-0.6-2.4-1.2-4.8-1.8-7.2c-3.4,0-6.5,0-10.1,0c0-9.5,0-18.8,0-28.7c4.4-0.6,9-1.2,14.4-1.9
			c-0.4,2-0.7,3.4-0.9,4.3c-3.3,2.4-9.9-1.5-10,5.3c3.2,0.2,6,0.3,8.7,0.5c0.1,0.5,0.3,0.9,0.4,1.4c-2.7,0.7-5.3,1.3-8.4,2.1
			c-0.1,1.1-0.1,2.5-0.2,4.2c1.6,0.1,2.9,0.2,4.2,0.3c0.3,0.3,0.5,0.6,0.8,0.9c-1,0.7-1.9,1.4-2.9,2c-0.4,0.3-1.1,0.3-1.6,0.4
			c0,1.9,0,3.6,0,5.8c3.6,0,7,0,10.3,0C155.3,60.5,154.5,63.9,153.5,67.5z"/>
		<path class="st0" d="M196.1,48.1c-1.8,0.2-3.5,0.4-5.6,0.7c0,2.8,0,5.3,0,8.3c3.3-0.6,6.5-1.1,10.1-1.7c0,1.6,0,2.9,0,4.7
			c-4.6,0.2-9.2,0.5-14.5,0.7c0-10,0-19.8,0-29.8c4.4-0.4,9-0.7,14-1.1c0.2,1.3,0.3,2.4,0.5,3.9c-3.4,0.2-6.5,0.3-9.9,0.4
			c0,3.7,0,7.2,0,10.3c2.2,0.8,4.1,1.5,6.1,2.3C196.6,47.2,196.4,47.6,196.1,48.1z"/>
		<path class="st0" d="M175,60.1c-1.3,0.1-2.6,0.2-4.7,0.3c0-8.5,0-16.7,0-25.4c-3.1-0.2-5.6-0.4-9.7-0.7c1.6-1.6,2.5-3.3,3.5-3.4
			c5.8-0.5,11.7-0.6,17.5-0.8c1.9,6-3.7,4.1-6.6,5.3C175,43.4,175,51.5,175,60.1z"/>
	</g>
	<g>
		<path class="st0" d="M58.2,22.7c-5.9,0.5-9.3,3.6-12.4,7.3c-0.7,0.9-2.4,1.4-3.6,1.3c-5.8-0.4-10.5,2.9-15.6,4.7
			c-0.6,0.2-1,1.2-1.3,1.9c-0.2,0.4,0,1-0.1,1.5c-1.5,8.2-0.9,15.7,7.2,21.2c-0.4,0.2-0.7,0.4-1.1,0.6c-3.7-1-7.4-1.9-11.1-3
			c-0.8-0.2-1.6-0.8-2-1.5c-2.5-4-5-8-7.4-12c-0.4-0.6-0.3-1.7-0.1-2.5c1.3-5.8,2.5-11.6,4.1-17.3c0.4-1.5,1.6-2.9,2.8-3.9
			c1.3-1.1,3.1-1.7,4.4-2.8c7.3-5.9,15.4-7.5,24.4-4.8c1.9,0.6,3.8,1.5,5.3,2.8C53.9,17.8,55.6,20,58.2,22.7z"/>
		<path class="st0" d="M87.8,61.3c0.9-2.2,1.2-3.6,1.9-4.7c3.7-6.2,3.6-12.5,0.7-19c-1.6-3.6-7.8-7.1-11.7-6.1c-0.8,0.2-2,0.4-2.6,0
			c-5-3.2-10-6.5-15.1-9.9c3.2-3.6,6.7-7.3,13.1-8.5c7.2-1.3,12.9-0.2,19.3,3.5c6.1,3.5,9.7,7.6,10,14.5c0,0.9,0.2,1.7,0.6,2.5
			c2.9,6.8-0.1,12.8-2.7,18.8c-0.4,0.8-1.2,1.6-2,2.1C95.6,56.6,92.1,58.7,87.8,61.3z"/>
		<path class="st0" d="M59.6,41.8c0.1,0.7,0.2,1.4,0.4,2.1c0.9,4.2,2.3,8.1,7,9.6c2.1,0.7,2.8,2,2.5,4.2c-0.4,4-0.6,8.1-0.9,12.5
			c-2.1-0.4-3.9-0.7-5.6-1.2c-1.9-0.6-2.5-4.3-1.1-6.7c0.5-1,1.2-1.9,1.8-2.8c0.6-0.9,1.2-1.9,2.1-3.2c-4.7,0-9.1,0-14,0
			c2.5,3.6,6.8,6.9,4.7,11.5c-0.9,2-4.7,2.6-7.7,4c-0.5-5.8-0.9-10.9-1.4-16.3c7.6-1.6,10.9-6.6,10.9-14.3
			C58.7,41.4,59.1,41.6,59.6,41.8z"/>
		<path class="st0" d="M49.5,75.4c3-1.3,5.7-2.7,8.5-3.6c1-0.3,2.4,0.1,3.5,0.5c5.8,2.3,11.5,4.7,17.4,7.2c1.2-2.5,2.3-4.8,3.5-7.3
			c2.9,1.6,5.5,3.2,8.4,4.8c-0.8,1.8-1.3,3.4-2.1,5c-1.6,3.1-4.4,4-7.7,2.7c-3.7-1.5-7.4-2.9-11-4.5c-3.5-1.5-6.6-2.4-10.6-0.8
			C55.7,80.7,52.5,78,49.5,75.4z"/>
		<path class="st0" d="M44.8,35.9c4.5,0.3,8.5,3.6,8.3,7c-0.3,4.4-4.6,8.3-9.2,8.3c-2.8,0-6.7-4.9-6.5-8.1
			C37.7,38.3,40.4,35.7,44.8,35.9z"/>
		<path class="st0" d="M49.1,82.3c6.8,6.4,13.5,2.4,20.3-0.2c0.3,3.7,0.6,6.9,0.9,10C60.9,95.5,52.6,92.6,49.1,82.3z"/>
		<path class="st0" d="M50.6,32c6.4-5.8,14.3-5.4,17.3,1.1C61.8,38.5,55.9,39.5,50.6,32z"/>
		<path class="st0" d="M79.9,53.4c1.6,3,3.1,5.9,5.1,9.7c-4.2-0.4-7.5-0.8-10.6-1.1C73.4,57.2,75.5,54.8,79.9,53.4z"/>
		<path class="st0" d="M42.5,55.8c-0.5,6.6-0.5,6.6-8.9,7c0.6-1.5,1.1-3,1.7-4.4c0.5-1.3,1.2-2.7,1.8-4.2
			C38.9,54.8,40.6,55.3,42.5,55.8z"/>
		<path class="st0" d="M88.1,6.5c0.7,1.7,1.3,3,1.9,4.2c-2.6-0.8-5.1-1.6-7.9-2.5C84,7.7,85.9,7.2,88.1,6.5z"/>
		<path class="st0" d="M71.4,35.9c-4.4-0.3-7.1,2.4-7.4,7.2c-0.2,3.2,3.7,8.1,6.5,8.1c4.5,0.1,8.8-3.8,9.2-8.3
			C79.9,39.6,75.9,36.2,71.4,35.9z M75.8,47.1L75.8,47.1l-0.2,0l-0.4,0l-0.2,0l-0.6,0h-0.2l-0.6,0l-0.1,0L73.4,47l-0.1-0.1l-0.2-0.3
			L73,46.5l-0.2-0.4l-0.1-0.2l-0.8-1.3h-0.1l-0.4,0.7l-0.1,0.2L71,46l-0.1,0.2l-0.3,0.3l-0.1,0.2l-0.3,0.5l-0.1,0h-0.2L68.7,47
			l-0.2,0l-0.5,0l-0.2,0L67.8,47l0-0.1l0.1-0.1l1.1-1.6l0.1-0.2l0.3-0.5l0.1-0.1l0.3-0.5l0.1-0.1l0.3-0.5l0.1-0.1l0-0.1L70.4,43
			L70,42.6l-0.1-0.1l-0.3-0.5l-0.1-0.1l-0.3-0.5l-0.1-0.1l-0.4-0.6l-0.3-0.5l-0.1-0.1L68,39.5l0-0.1l0,0v-0.1l0.1-0.1h0.3l0.2,0
			l1.4,0l0.2,0l0.2,0l0.1,0.1l0.1,0.2l0,0.1l0.1,0.2l0.3,0.5l0.1,0.2l0.3,0.5l0.1,0.2l0.3,0.5l0.1,0.1l0.1-0.1l0.3-0.5l0.1-0.2
			l0.2-0.5l0.1-0.2l0.3-0.4l0.1-0.2l0.2-0.3l0.1-0.1l0.1-0.1l0.1-0.1l0.2,0l0.2,0l0.4,0l0.2,0l0.5,0h0.5l0.2,0l0.1,0.1l-0.1,0.1
			l-0.1,0.2l-0.1,0.2L75,40.3l-0.4,0.6l-0.1,0.1l-0.3,0.6l-0.1,0.1l-0.4,0.6l-0.1,0.1L73.3,43l-0.1,0.1l0,0.1l0.3,0.3l0.1,0.1
			l0.5,0.7l0.4,0.6l0.1,0.1l0.4,0.6l0.1,0.1l0.5,0.7l0.1,0.1l0.1,0.1l0.1,0.2V47.1z"/>
	</g>
</g>
</svg>
