<?xml version="1.0" encoding="utf-8"?>
<!-- Generator: Adobe Illustrator 24.1.2, SVG Export Plug-In . SVG Version: 6.00 Build 0)  -->
<svg version="1.1" id="Layer_1" xmlns="http://www.w3.org/2000/svg" xmlns:xlink="http://www.w3.org/1999/xlink" x="0px" y="0px"
	 viewBox="0 0 131.5 145.1" style="enable-background:new 0 0 131.5 145.1;" xml:space="preserve">
<style type="text/css">
	.st0{fill:#041169;}
	.st1{fill:#032172;}
	.st2{fill:#033D84;}
	.st3{fill:#41087C;}
	.st4{fill:#034A8C;}
	.st5{fill:#035291;}
	.st6{fill:#CE0022;}
	.st7{fill:#6D048B;}
	.st8{fill:#02639C;}
	.st9{fill:#E50026;}
	.st10{fill:#0275A7;}
	.st11{fill:#99009A;}
	.st12{fill:#FE0F27;}
	.st13{fill:#0288B3;}
	.st14{fill:#FE3820;}
	.st15{fill:#02A3C4;}
	.st16{fill:#FE5C18;}
	.st17{fill:#FE7A12;}
	.st18{fill:#FE970D;}
	.st19{fill:#01CFE1;}
	.st20{fill:#FAAC0B;}
	.st21{fill:#B2D03D;}
	.st22{fill:#CCD328;}
	.st23{fill:#E8D611;}
	.st24{fill:#FED700;}
	.st25{fill:#01E6EF;}
	.st26{fill:#4EE8A9;}
	.st27{fill:#80CCA3;}
	.st28{fill:#01FBFC;}
	.st29{fill:#78CCB5;}
</style>
<g>
	<path class="st0" d="M44,122.2l-8.3-8.3l6.9-6.9c3.8-3.9,7.3-6.9,7.8-6.9c0.5,0,0.7,0.2,0.5,0.5c-0.2,0.3,0.1,1.1,0.6,1.6
		c1.1,1.1,1.1,1.4,0.9,14.7l-0.1,13.7L44,122.2z"/>
	<path class="st0" d="M57.6,66.8l7.6-7.6l6.7,6.7c9,9,9.7,8.5-8.4,8.5H49.8C50,74.4,57.6,66.8,57.6,66.8z"/>
</g>
<g>
	<path class="st1" d="M36.3,114.5c-0.7-0.8-0.4-1.2,6-7.6c4.5-4.5,7.1-6.7,7.8-6.7c1.9,0,0.7,1.6-6.2,8.5
		C37.4,115.1,37,115.4,36.3,114.5z"/>
	<path class="st1" d="M51.2,103c0-0.9,0.1-1.1,0.5-0.5c0.4,0.4,0.4,0.7,0,1.2S51.2,103.9,51.2,103z"/>
	<path class="st1" d="M56.5,81.4c-9-9-9.6-8.5,8.5-8.3l13.6,0.1l-7.5,7.6c-4.1,4.1-7.6,7.5-7.6,7.5C63.4,88.2,60.2,85.1,56.5,81.4
		L56.5,81.4z"/>
</g>
<g>
	<path class="st2" d="M29,107.3l-7.6-7.6h14h13.9V87.3c0-11.8,0-12.4,0.9-13.2c1.1-0.9,1.1-0.8,7.9,6l6.8,6.8l-13.9,14
		c-7.6,7.7-14,14-14.2,14S33.2,111.5,29,107.3z"/>
</g>
<g>
	<path class="st3" d="M51.7,130c-0.4-0.4-0.5-4.3-0.5-14.4v-13.9l7.6,7.6l7.6,7.6l-6.7,6.7c-3.8,3.8-6.9,6.8-7,6.8
		C52.4,130.4,52.1,130.3,51.7,130L51.7,130z"/>
</g>
<g>
	<path class="st4" d="M42,95c-4.2-4.2-6.1-6.4-6.1-7.1c0-0.7,0.2-1.1,0.5-0.7c0.3,0.2,3.5-2.5,7.4-6.5l6.8-6.8v13.7v13.7h-1.4
		C48.3,101.1,46.9,99.8,42,95z"/>
</g>
<g>
	<path class="st5" d="M22.1,100.4c-0.5-0.6,0.3-1.7,6.3-7.7l6.9-6.9l7.8,7.7l7.8,7.7h-14C24.6,101.1,22.7,101,22.1,100.4L22.1,100.4
		z"/>
</g>
<g>
	<path class="st6" d="M86.5,108c-9-9-9.6-8.5,8.5-8.3l13.5,0.1l-7.6,7.6c-4.1,4.1-7.6,7.5-7.6,7.5C93.3,114.9,90.3,111.8,86.5,108
		L86.5,108z"/>
</g>
<g>
	<path class="st7" d="M52,130.2c-0.7-0.8-0.4-1.3,6.1-7.7l6.9-6.9l6.9,6.9c9.1,9.1,9.6,8.6-6.9,8.6C53.8,131,52.8,130.9,52,130.2z"
		/>
</g>
<g>
	<path class="st8" d="M22,100.2c-0.7-0.8-0.8-2.4-0.8-14.5c0-13.5,0-13.7,1.1-13.7c0.5,0,0.8,0.2,0.6,0.5c-0.2,0.3,2.6,3.6,6.7,7.6
		l7.1,7.1l-6.9,6.9C23,100.9,22.8,101.1,22,100.2L22,100.2z"/>
</g>
<g>
	<path class="st9" d="M81,100c0.5-0.5,3.9-4,7.6-7.6l6.6-6.6l6.8,6.7c9.1,9.1,9.7,8.5-8.3,8.5H80.2L81,100z"/>
</g>
<g>
	<path class="st10" d="M14.7,93l-7.6-7.6l6.9-6.9c5.7-5.7,7.1-6.9,8.3-6.9c1.1,0,1.3,0.1,0.8,0.6c-0.3,0.4-0.5,5.3-0.6,14.5
		l-0.2,13.9L14.7,93z"/>
</g>
<g>
	<path class="st11" d="M58.1,136.3l-6.6-6.6h13.6c7.5,0,13.5,0.1,13.3,0.2c-1.4,1.5-13,13.1-13.2,13.1C64.8,143,61.8,140,58.1,136.3
		z"/>
</g>
<g>
	<path class="st12" d="M100.6,94c-3.6-3.6-6.5-6.6-6.5-6.8c0-0.3,14.2-14.7,14.6-14.7c0.1,0,0.2,6.1,0.2,13.5
		c0,12.9-0.1,14.6-1.5,14.6C107.2,100.6,104.1,97.6,100.6,94z"/>
</g>
<g>
	<path class="st13" d="M7.3,85.3c-0.6-0.9-1.8-2.8-2.5-4.2c-1.3-2.4-1.4-3-1.4-8.1c0-4.9,0.1-5.8,1.3-8.1c0.6-1.5,2.2-3.7,3.5-5
		l2.2-2.4l6.9,6.9l6.9,6.9l-7.8,7.8l-7.8,7.8C8.5,86.9,7.3,85.3,7.3,85.3z"/>
</g>
<g>
	<path class="st14" d="M107.4,86.4l0.1-14.4h1.1c1.6,0,14.5,13,13.8,13.9c-0.6,0.8-12,12.2-13.7,13.7l-1.3,1.2L107.4,86.4z"/>
</g>
<g>
	<path class="st15" d="M15.6,65.7L8.8,59l7.6-7.6l7.6-7.6v13.8c0,13.2-0.1,14.9-1.5,14.9C22.5,72.5,19.3,69.5,15.6,65.7z"/>
</g>
<g>
	<path class="st16" d="M114.1,79.4c-4-4-7.3-7.5-7.3-7.6c0-0.1,4.6-0.3,10.2-0.3h10.2v2.1c0,3.8-2.5,10-5,12.2
		C121.4,86.7,121.2,86.6,114.1,79.4L114.1,79.4z"/>
</g>
<g>
	<path class="st17" d="M107.2,72.1c-0.7-0.8-0.4-1.3,6.1-7.7l6.9-6.9l1.9,2.1c2.5,2.7,4.6,7.4,5,10.6l0.3,2.7h-9.8
		C109,72.9,107.9,72.9,107.2,72.1L107.2,72.1z"/>
</g>
<g>
	<path class="st18" d="M107,72c-0.4-0.4-0.5-4.3-0.5-14.4V43.7l7.6,7.6l7.6,7.6l-6.7,6.7c-3.8,3.8-6.9,6.8-7,6.8
		C107.7,72.5,107.3,72.3,107,72L107,72z"/>
</g>
<g>
	<path class="st19" d="M22.6,58.8c0-18.3-0.5-17.8,8.6-8.5l6.9,6.9l-7.8,7.7l-7.8,7.7C22.6,72.7,22.6,58.8,22.6,58.8z"/>
</g>
<g>
	<path class="st20" d="M106.8,71.7c-0.7-0.8-0.8-2.2-0.8-14.7V43.3l0.9,0.9c0.9,0.9,0.9,1.5,0.8,14.7
		C107.6,72,107.5,72.5,106.8,71.7z"/>
</g>
<g>
	<path class="st21" d="M72.1,37l-8.3-8.3l6.9-6.9l6.9-6.9l1.6,1.6l1.5,1.6l-0.1,13.7l-0.1,13.7L72.1,37z"/>
</g>
<g>
	<path class="st22" d="M80.1,45c-0.7-0.8-0.8-2.4-0.8-14.7V16.6l7.7,7.8l7.8,7.7L87.8,39C81.1,45.6,80.8,45.8,80.1,45z"/>
	<path class="st22" d="M77.9,16.3c0-0.9,0.1-1.1,0.5-0.5c0.4,0.4,0.4,0.7,0,1.2C78,17.3,77.9,17.2,77.9,16.3z"/>
</g>
<g>
	<path class="st23" d="M87.1,52l-7.6-7.6l6.9-6.9l6.9-6.9l7,7c6,6,7,7.3,7,8.5c0,1.2-0.9,2.4-6,7.6c-3.3,3.4-6.1,6.1-6.3,6.1
		C94.9,59.7,91.3,56.2,87.1,52z"/>
</g>
<g>
	<path class="st24" d="M100.5,65.3l-6.7-6.8l6.8-6.9l6.8-6.9v13.7c0,7.6,0,13.7-0.1,13.7C107.2,72,104,68.9,100.5,65.3L100.5,65.3z"
		/>
</g>
<g>
	<path class="st25" d="M29.7,51.8c-6.7-6.7-6.8-6.8-6-7.9C24.6,43,25.1,43,36.9,43c16.4,0,16-0.5,6.7,8.7l-7,7L29.7,51.8z"/>
</g>
<g>
	<path class="st26" d="M52.1,17c-0.5-0.6,0.3-1.7,6.3-7.6l6.8-6.8l6.8,6.8c6,6,6.8,7,6.3,7.6c-0.5,0.6-2.4,0.7-13.1,0.7
		S52.7,17.7,52.1,17L52.1,17z"/>
</g>
<g>
	<path class="st27" d="M60.7,25.6l-4.5-4.5l3.6-1.1c2-0.5,4.1-1.2,4.7-1.5c5.3-1.8,8.1-2.4,11.1-2.3l3.2,0.1l-6.7,6.8L65.3,30
		L60.7,25.6z"/>
</g>
<g>
	<path class="st28" d="M30.2,37.6l6.7-6.8l6.7,6.8l6.8,6.7H36.9H23.3L30.2,37.6z"/>
</g>
<g>
	<path class="st29" d="M54.5,19.4l-3-3h12.6c7.1,0,12.4,0.2,12.2,0.4c-0.3,0.2-2.4,1.1-4.7,1.7c-2.3,0.7-4.8,1.5-5.5,1.7
		c-1.4,0.5-7.9,2.4-8.1,2.4C57.7,22.5,56.2,21.1,54.5,19.4z"/>
</g>
</svg>
