<?xml version="1.0" encoding="utf-8"?>
<!-- Generator: Adobe Illustrator 24.1.2, SVG Export Plug-In . SVG Version: 6.00 Build 0)  -->
<svg version="1.1" id="Layer_1" xmlns="http://www.w3.org/2000/svg" xmlns:xlink="http://www.w3.org/1999/xlink" x="0px" y="0px"
	 viewBox="0 0 257 69.5" style="enable-background:new 0 0 257 69.5;" xml:space="preserve">
<style type="text/css">
	.st0{fill:#FF8500;}
</style>
<path id="Fill-1_1_" class="st0" d="M140.8,6.1c-0.7-0.5-1.2-0.7-2.1-0.7c-1.2,0-2.3,0.5-3,1.6l-19.9,29.4c-1.2,1.8-0.7,4.1,1,5.3
	c0.7,0.5,1.2,0.7,2.1,0.7c1.2,0,2.3-0.5,3-1.6l19.9-29.5C142.8,9.6,142.2,7.3,140.8,6.1"/>
<path id="Fill-3" class="st0" d="M249.2,54L228.1,8c-0.5-1.2-2.1-2.3-3.3-2.3c-0.5,0-1,0-1.6,0.2c-1.8,1-2.5,3.3-1.8,5.1l21.1,46.1
	c0.5,1.2,2.1,2.3,3.3,2.3c0.5,0,1,0,1.6-0.2C249.2,58.1,249.9,55.8,249.2,54"/>
<path id="Fill-5" class="st0" d="M202.9,24.5c0-0.2,0-0.5,0-0.5v-4.6c0-0.2,0-0.2,0-0.5l0,0c0-7.4-5.6-13.2-12.7-13.2l0,0l0,0H181
	c-2.1,0-3.5,1.8-3.5,3.8s1.6,3.8,3.5,3.8h9.2l0,0l0,0c3,0,5.3,2.5,5.3,5.6c0,0.2,0,0.2,0,0.5l0,0v4.1v0.2c0,3-2.3,5.6-5.3,5.6l0,0
	l0,0H181c-2.1,0-3.5,1.8-3.5,3.8s1.6,3.8,3.5,3.8h9.2l0,0l0,0C197,37.3,202.6,31.7,202.9,24.5"/>
<path id="Fill-6_1_" class="st0" d="M158.4,5.7c-7.2,0-12.7,5.8-12.7,13.2c0,2.1,1.6,3.8,3.5,3.8c2.1,0,3.5-1.8,3.5-3.8
	c0-3,2.3-5.6,5.3-5.6c3,0,5.3,2.5,5.3,5.6c0,2.1,1.6,3.8,3.5,3.8c2.1,0,3.5-1.8,3.5-3.8C171.1,11.6,165.4,5.7,158.4,5.7"/>
<path id="Fill-7" class="st0" d="M167.5,42.4c-2.1,0-3.5,1.8-3.5,3.8c0,3-2.3,5.6-5.3,5.6s-5.3-2.5-5.3-5.6c0-2.1-1.6-3.8-3.5-3.8
	c-2.1,0-3.5,1.8-3.5,3.8c0,7.4,5.6,13.2,12.7,13.2c7.1,0,12.7-5.8,12.7-13.2C171.1,44.2,169.5,42.4,167.5,42.4"/>
<path id="Fill-9" class="st0" d="M19.1,5.6c-7.2,0-12.7,5.8-12.7,13.2c0,2.1,1.6,3.8,3.5,3.8c2.1,0,3.5-1.8,3.5-3.8
	c0-3,2.3-5.6,5.3-5.6s5.3,2.5,5.3,5.6c0,2.1,1.6,3.8,3.5,3.8c2.1,0,3.5-1.8,3.5-3.8C31.8,11.4,26,5.6,19.1,5.6"/>
<path id="Fill-10_1_" class="st0" d="M28,42.2c-2.1,0-3.5,1.8-3.5,3.8c0,3-2.3,5.6-5.3,5.6s-5.3-2.5-5.3-5.6c0-2.1-1.6-3.8-3.5-3.8
	c-2.1,0-3.5,1.8-3.5,3.8c0,7.4,5.6,13.2,12.7,13.2c1,0,2.1-0.2,3-0.2l2.8,5.3c0.7,1.2,1.8,2.1,3,2.1l0,0c0.5,0,1.2-0.2,1.8-0.5
	c1.8-1,2.5-3.3,1.6-5.3l-3-5.6c2.1-2.3,3.3-5.6,3.3-9.2C31.8,44,30,42.2,28,42.2"/>
<path id="Fill-12_1_" class="st0" d="M106.4,42.2c-2.1,0-3.5,1.8-3.5,3.8c0,3-2.3,5.6-5.3,5.6s-5.3-2.5-5.3-5.6
	c0-2.1-1.6-3.8-3.5-3.8c-2.1,0-3.5,1.8-3.5,3.8c0,7.4,5.6,13.2,12.7,13.2s12.7-5.8,12.7-13.2C110.2,44,108.4,42.2,106.4,42.2"/>
<path id="Fill-13" class="st0" d="M60.1,42.2c-2.1,0-3.5,1.8-3.5,3.8c0,3-2.3,5.6-5.3,5.6S45.8,49,45.8,46c0-2.1-1.6-3.8-3.5-3.8
	c-2.1,0-3.5,1.8-3.5,3.8c0,7.4,5.6,13.2,12.7,13.2S64.1,53.4,64.1,46C63.6,44,62.2,42.2,60.1,42.2"/>
<path id="Fill-14" class="st0" d="M97.5,5.6c-7.2,0-12.7,5.8-12.7,13.2c0,2.1,1.6,3.8,3.5,3.8c2.1,0,3.5-1.8,3.5-3.8
	c0-3,2.3-5.6,5.3-5.6s5.3,2.5,5.3,5.6c0,2.1,1.6,3.8,3.5,3.8c2.1,0,3.5-1.8,3.5-3.8C110.2,11.4,104.4,5.6,97.5,5.6"/>
<path id="Fill-15" class="st0" d="M149.4,25c-0.2,0-0.5,0-0.7,0l13.2,19.7c0.7-2.5,2.8-4.4,5.6-4.4c0.2,0,0.2,0,0.5,0L155,21
	C154.2,23.3,151.9,25,149.4,25"/>
<path id="Fill-16" class="st0" d="M122.4,22.6V9.1c0-2.1-1.6-3.8-3.5-3.8c-2.1,0-3.5,1.8-3.5,3.8v24.4L122.4,22.6"/>
<path id="Fill-17" class="st0" d="M88.4,39.9c1.2,0,2.8,0.5,3.5,1.2V23.4c-1,0.7-2.3,1.2-3.5,1.2c-1.2,0-2.8-0.5-3.5-1.2v17.8
	C85.8,40.4,87,39.9,88.4,39.9"/>
<path id="Fill-18" class="st0" d="M249.7,50V9.5c0-2.1-1.6-3.8-3.5-3.8c-2.1,0-3.5,1.8-3.5,3.8v24.2L249.7,50"/>
<path id="Fill-19" class="st0" d="M180.9,27.3h3.5V15.6h-3.5c-1.2,0-2.5-0.5-3.5-1.2v14.6C178.1,27.8,179.7,27.3,180.9,27.3"/>
<path id="Fill-20" class="st0" d="M211.5,5.7c-2.1,0-3.5,1.8-3.5,3.8v46.1c0,2.1,1.6,3.8,3.5,3.8c2.1,0,3.5-1.8,3.5-3.8V9.5
	C215.1,7.4,213.5,5.7,211.5,5.7"/>
<path id="Fill-21" class="st0" d="M118.6,44.8c-1.2,0-2.3-0.2-3.3-1l-0.2-0.2v12.3c0,2.1,1.6,3.8,3.5,3.8c2.1,0,3.5-1.8,3.5-3.8
	V43.4C121.4,44.3,120.1,44.8,118.6,44.8"/>
<path id="Fill-22" class="st0" d="M74.3,5.6c-2.1,0-3.5,1.8-3.5,3.8v46.1c0,2.1,1.6,3.8,3.5,3.8c2.1,0,3.5-1.8,3.5-3.8V9.4
	C77.9,7.1,76.1,5.6,74.3,5.6"/>
<path id="Fill-23" class="st0" d="M131.3,30.5l-4.9,7.2l8.9,19.3c0.5,1.2,2.1,2.3,3.3,2.3c0.5,0,1,0,1.6-0.2c1.8-1,2.5-3.3,1.8-5.1
	L131.3,30.5"/>
<path id="Fill-24" class="st0" d="M220.9,15.3v40.3c0,2.1,1.6,3.8,3.5,3.8c2.1,0,3.5-1.8,3.5-3.8V31.4L220.9,15.3"/>
<path id="Fill-25" class="st0" d="M180.9,39.3c-1.2,0-2.5-0.5-3.5-1.2v17.6c0,2.1,1.6,3.8,3.5,3.8c2.1,0,3.5-1.8,3.5-3.8V39.3H180.9
	"/>
<path id="Fill-26" class="st0" d="M42,39.9c1.2,0,2.8,0.5,3.5,1.2v-32C45.5,7,44,5.3,42,5.3c-2.1,0-3.5,1.8-3.5,3.8v32.3
	C39.2,40.4,40.4,39.9,42,39.9"/>
<g id="Group-30" transform="translate(0.000000, 0.265734)">
	<path id="Fill-27" class="st0" d="M60.1,39.6c1.2,0,2.8,0.5,3.5,1.2V8.7c0-2.1-1.6-3.8-3.5-3.8c-2.1,0-3.5,1.8-3.5,3.8v32.1
		C57.3,40.3,58.5,39.6,60.1,39.6"/>
	<path id="Fill-29" class="st0" d="M9.9,39.6c1.2,0,2.8,0.5,3.5,1.2V23.1c-1,0.7-2.3,1.2-3.5,1.2s-2.8-0.5-3.5-1.2v17.8
		C7.3,40.3,8.6,39.6,9.9,39.6"/>
</g>
<path id="Fill-31" class="st0" d="M28,24.9c-1.6,0-2.8-0.5-3.5-1.2v17.8c1-0.7,2.3-1.2,3.5-1.2s2.8,0.5,3.5,1.2V23.7
	C30.7,24.4,29.5,24.9,28,24.9"/>
</svg>
