<?xml version="1.0" encoding="utf-8"?>
<!-- Generator: Adobe Illustrator 24.1.2, SVG Export Plug-In . SVG Version: 6.00 Build 0)  -->
<svg version="1.1" id="Layer_1" xmlns="http://www.w3.org/2000/svg" xmlns:xlink="http://www.w3.org/1999/xlink" x="0px" y="0px"
	 viewBox="0 0 257 64.9" style="enable-background:new 0 0 257 64.9;" xml:space="preserve">
<style type="text/css">
	.st0{fill:#FFFFFF;}
	.st1{fill:#F26C3D;}
</style>
<path id="path0" class="st0" d="M240.1,25.5c-2.9,0.2-6.1,1.2-7.3,2.4c-2,1.9-2.5,4-2.5,11.2c0,4.7,0,5,0.5,6.9c0.8,3,3,4.7,7.2,5.3
	c2.5,0.3,8.2,0.2,10.2-0.3c1.2-0.3,1.7-0.5,2.7-1.1c2.1-1.2,3.3-5.3,3.3-12.3c0-4.5-0.2-5.8-1.4-8.1
	C251.5,26.4,246.8,25.1,240.1,25.5 M50.2,38.4v12.9h3.5h3.5v-5v-5.1h4.3h4.4v5v5h3.5h3.5V38.4V25.5h-3.5h-3.5v4.9v4.9h-4.3h-4.3
	v-4.9v-4.9h-3.5h-3.5v12.9 M83.1,26c-0.1,0.2-0.2,0.7-0.3,1c-0.1,0.2-0.2,0.8-0.3,1.1c-0.1,0.3-0.2,0.9-0.3,1.1s-0.3,1.2-0.7,2.1
	c-0.2,0.9-0.6,1.8-0.6,2c-0.1,0.3-1.5,4.6-1.9,6.4c-0.1,0.3-0.2,0.8-0.2,0.9c-0.1,0.2-0.2,0.7-0.3,1.1c-0.1,0.5-0.3,1-0.3,1.1
	c-0.1,0.5-0.5,1.5-0.6,2c-0.2,0.8-0.5,1.6-1.1,3.6c-0.3,1.1-0.7,2.3-0.7,2.4s0.5,0.2,3.6,0.1h3.6l0.2-1c0.1-0.6,0.3-1.2,0.3-1.5
	c0.1-0.2,0.2-0.8,0.3-1.1l0.2-0.7h4.5H93l0.2,0.7c0.2,0.9,0.9,2.9,1,3.4l0.1,0.3H98h3.6l-0.1-0.3c0-0.2-0.1-0.6-0.2-0.8
	c-0.1-0.2-0.2-0.9-0.5-1.4c-0.1-0.5-0.3-1.2-0.5-1.6c-0.1-0.3-0.3-1-0.5-1.4c-0.1-0.3-0.2-0.8-0.3-1c-0.1-0.2-0.1-0.5-0.1-0.6
	s-0.1-0.6-0.3-1.1c-0.2-0.9-0.6-1.8-1.4-4.4c-0.2-0.7-0.5-1.4-0.5-1.6c-0.1-0.2-0.1-0.6-0.2-0.7c-0.1-0.3-0.5-1.5-0.6-2
	c-0.1-0.2-0.2-0.6-0.2-0.9c-0.1-0.3-0.2-0.8-0.3-0.9c-0.1-0.3-0.8-2.4-0.9-3c-0.2-0.8-0.5-1.7-0.8-2.7c-0.2-0.6-0.3-1.1-0.3-1.2
	c0-0.1-0.6-0.2-5.3-0.2h-5.3L83.1,26 M103.9,25.6c0,0.1,0,5.9,0,12.9v12.8h8.4c7.8,0,8.5,0,9.3-0.2c3.4-0.8,4.4-2.5,4.4-6.9
	c0-3.8-1.2-5.8-4-5.8c-0.3,0-0.2,0,0.3-0.2c2.5-0.8,3.2-2,3.2-5.9c0-4.2-1.4-5.9-5.4-6.5C119,25.5,104.1,25.4,103.9,25.6
	 M134.4,25.6c-0.2,0.6-0.7,2.5-0.9,3.2c-0.1,0.2-0.2,0.8-0.3,1.1s-0.2,0.8-0.3,1c0,0.1-0.2,0.6-0.3,1c-0.1,0.3-0.2,0.9-0.3,1.1
	c-0.1,0.2-0.2,0.8-0.3,1.1c-0.1,0.3-0.3,1-0.5,1.4c-0.1,0.3-0.5,1.4-0.7,2.3c-0.2,0.8-0.5,1.7-0.6,1.9c-0.1,0.2-0.2,0.7-0.3,1.1
	c-0.1,0.3-0.2,0.9-0.3,1.1c-0.1,0.2-0.2,0.8-0.3,1.1c-0.1,0.3-0.2,0.8-0.3,1c0,0.1-0.2,0.6-0.3,1c-0.1,0.3-0.2,0.9-0.3,1.1
	c-0.1,0.2-0.2,0.8-0.3,1.1c-0.1,0.3-0.2,0.9-0.3,1.1c-0.1,0.2-0.2,0.8-0.3,1.2c-0.1,0.5-0.2,0.9-0.3,1c-0.1,0.2,0.1,0.2,3.6,0.2h3.7
	l0.5-1.6c0.2-0.9,0.6-1.8,0.6-2.3l0.2-0.7h4.5h4.5l0.1,0.3c0.1,0.2,0.2,0.6,0.3,0.9c0.3,1,0.3,1.2,0.6,1.9c0.1,0.3,0.2,0.8,0.2,1
	l0.1,0.3h3.6c2,0,3.6,0,3.6-0.1c0,0-0.1-0.5-0.2-0.9c-0.1-0.5-0.3-1-0.3-1.2c-0.1-0.3-0.3-1-0.6-1.7c-0.3-1.1-0.6-1.9-0.8-2.7
	c0-0.2-0.5-1.4-0.8-2.7c-0.7-2.4-0.8-2.6-1.1-3.6c-0.1-0.3-0.3-1.1-0.6-1.8c-0.2-0.7-0.5-1.5-0.6-1.8c-0.1-0.3-0.2-0.8-0.2-0.9
	c-0.1-0.2-0.5-1.4-0.8-2.5c-0.3-1.1-0.9-2.9-1.2-4l-0.6-1.9h-5.3C135.6,25.5,134.4,25.5,134.4,25.6 M154.5,38.4v12.9h3.5h3.5
	l-0.1-1.5c0-0.8-0.1-4.5-0.1-8.1c0-3.6-0.1-7.5-0.1-8.4c0-1.8,0.1-2,0.5-0.9c0.1,0.2,0.2,0.7,0.3,1s0.3,0.8,0.3,0.9
	c0,0.1,0.2,0.6,0.3,0.9s0.3,0.9,0.5,1.2c0.1,0.3,0.2,0.8,0.3,0.9c0.1,0.2,1.1,2.9,1.8,5.1c0.3,0.8,0.6,1.5,0.8,2
	c0.1,0.1,0.1,0.5,0.2,0.6c0,0.1,0.2,0.6,0.3,0.9c0.1,0.3,0.3,0.9,0.5,1.2c0.1,0.3,0.2,0.8,0.3,0.9c0.2,0.6,0.5,1.2,0.8,2l0.3,0.9
	h5.9h5.9V38.4V25.5h-3.5h-3.6l0.1,1.6c0.1,2.3,0.2,17.8,0.1,17.7c0,0-0.2-0.3-0.3-0.7c-0.3-0.9-0.8-2.3-0.9-2.6
	c0-0.1-0.2-0.6-0.3-0.9s-0.3-0.8-0.3-0.9c0-0.1-0.2-0.6-0.3-0.9c-0.1-0.3-0.6-1.4-0.8-2.3c-0.3-0.9-0.7-1.7-0.7-1.8
	c0-0.1-0.1-0.2-0.1-0.3c0-0.1,0-0.3-0.1-0.3s-0.1-0.2-0.2-0.5c-0.1-0.2-0.2-0.8-0.5-1.4c-0.2-0.6-0.5-1.1-0.5-1.2
	c0-0.1-0.2-0.6-0.3-0.9c-0.1-0.3-0.3-0.8-0.3-0.9c0-0.1-0.2-0.6-0.3-0.9s-0.3-0.9-0.5-1.2c-0.1-0.3-0.2-0.8-0.3-1l-0.1-0.3h-5.9
	h-5.9v12.6 M183.4,38.4v12.9h9.5h9.5v-2.8v-2.8h-6h-6v-2.4v-2.4h5.4h5.4v-2.5v-2.5h-5.4h-5.4v-2.3v-2.3h5.9h5.9v-2.9v-2.9h-9.4h-9.4
	L183.4,38.4 M205.5,38.4v12.9h3.6h3.6v-3.4v-3.4h2.7c4.6,0,5,0.2,5,4.5v2.3h3.6h3.6v-2.9c-0.1-3.6-0.2-4.2-1.1-5.3
	c-0.7-0.8-1.7-1.4-2.9-1.5c-0.6-0.1-0.8-0.3-0.2-0.3c1,0,3.2-1.2,3.6-2.1c1.1-2.1,1-7.8-0.1-10.3c-1.4-2.8-3.2-3.3-14-3.3h-7.3
	L205.5,38.4 M140.3,32.6c0.1,0.2,0.2,0.7,0.3,1s0.3,1,0.5,1.7c0.5,1.6,0.9,3.2,1.2,4.4c0.1,0.3,0.2,0.8,0.3,1.2
	c0.1,0.3,0.2,0.8,0.2,0.8c0,0.1-1.4,0.1-3,0.1c-1.7,0-3.2,0-3.2,0s0.1-0.3,0.2-0.8c0.1-0.5,0.3-1.1,0.5-1.5c0.1-0.5,0.2-1,0.3-1.2
	c0.1-0.2,0.3-1.2,0.7-2.3c0.6-2,0.8-2.8,1-3.5c0.1-0.2,0.1-0.6,0.1-0.6c0-0.1,0.1-0.3,0.1-0.5l0.1-0.3l0.1,0.6
	C140.1,32,140.3,32.4,140.3,32.6 M89,32.8c0.1,0.3,0.2,0.8,0.3,1c0.2,1,1.5,5.1,1.7,5.8s0.6,2,0.6,2.1c0,0.1-0.7,0.1-3,0.1
	c-2.8,0-3,0-2.9-0.2c0-0.1,0.1-0.5,0.2-0.9c0.3-1.4,0.5-1.7,0.8-2.6c0.1-0.5,0.3-1.4,0.6-1.9c0.1-0.6,0.3-1.4,0.5-1.7s0.2-0.9,0.3-1
	c0.7-2.5,0.7-2.5,0.9-1.8C88.8,32.1,88.9,32.5,89,32.8 M117.8,31.6c0.7,0.3,0.9,0.9,0.9,2c0,1.9-0.3,2-4.6,2.1h-3.2v-2.3v-2.3h3.2
	C117,31.4,117.5,31.4,117.8,31.6 M244.9,31.6c1.8,0.6,2.3,1.6,2.3,6.2c0,6.7-0.7,7.6-5.4,7.6c-3.8,0-4.4-1.1-4.2-7.8
	c0.1-5,0.5-5.8,2.9-6.1c0.6-0.1,1-0.1,1.1-0.2C241.9,31.4,244.3,31.5,244.9,31.6 M219.5,32c0.9,0.5,1.2,2.3,1,4.3
	c-0.2,2.1-0.6,2.3-5,2.3h-2.9V35v-3.4h3.2C218.8,31.7,219,31.7,219.5,32 M118.4,41c0.6,0.3,0.7,0.8,0.7,2c0,2.3-0.6,2.5-5.4,2.5
	h-2.6v-2.4v-2.4h3.5C117.7,40.8,118.1,40.9,118.4,41"/>
<path id="path4" class="st1" d="M19.7,4.4c-0.9,0.9-0.2,2.3,0.9,2.3c1,0,1.5-0.7,1.4-1.6C21.8,4.1,20.5,3.7,19.7,4.4 M25.2,5.7
	c-0.7,0.3-0.8,0.6-0.7,3.3c0,2.6,0,2.7,0.9,2.9c0.6,0.2,1.4-0.1,1.6-0.6c0.2-0.6,0.2-4.7,0-5.2C26.7,5.4,25.9,5.3,25.2,5.7 M20,9
	c-0.6,0.3-0.7,0.7-0.7,3.2v2.4l0.3,0.3c0.7,0.7,1.8,0.5,2.1-0.3c0.2-0.5,0.2-4.4,0-4.9C21.6,9,20.7,8.7,20,9 M30.3,13.7
	c-1.4,0.5-0.8,2.6,0.7,2.6c1.6,0,1.8-2.5,0.2-2.6C30.9,13.7,30.5,13.7,30.3,13.7 M24.9,14.2l-0.3,0.3l-0.1,2.9
	c-0.1,3.3-0.1,3.4-0.7,3.7c-1.1,0.7-1.8-0.1-1.8-2.1c0-1.6-0.2-1.9-1.4-1.9c-1.2,0-1.4,0.3-1.4,3.3v2.4l-0.3,0.3
	c-0.6,0.6-1.2,0.6-1.7,0l-0.3-0.3v-2.9c0-2.5,0-3-0.2-3.4c-0.5-0.9-1.6-1.1-2.4-0.3c-0.2,0.2-0.2,0.5-0.3,4.9c0.2,5,0.2,5-0.5,5.3
	c-1,0.5-1.6-0.2-1.6-2c0-2.1-0.7-2.9-2-2.4c-0.8,0.3-0.8,0.6-0.8,4.4c0,3.7,0,3.7-0.8,4c-1,0.3-1.5-0.3-1.5-2.3v-1.5l-0.6-0.3
	c-0.6-0.6-1.4-0.6-1.9,0L4,26.5V39c0,10.7,0,12.4,0.1,12.4c0.1,0,0.2,0,0.2,0.1s0.8,0.6,2.5,1.5c0.2,0.1,0.6,0.3,0.8,0.5
	c0.2,0.1,1,0.6,1.9,1.1c5.2,2.9,5.1,2.9,5.9,3.4c0.2,0.1,0.6,0.3,0.8,0.5c0.6,0.3,4.3,2.5,4.9,2.8c0.3,0.1,0.7,0.5,1,0.6
	c0.2,0.1,0.5,0.2,0.6,0.2s0.2,0.1,0.2,0.2c0.2,0.2,0.7,0.2,1.2-0.1c0.2-0.1,0.6-0.3,0.7-0.5c0.1-0.1,0.5-0.2,0.8-0.5
	c0.3-0.2,0.7-0.5,0.8-0.5c0.1-0.1,0.3-0.2,0.6-0.3c0.2-0.1,0.6-0.3,0.8-0.5c0.2-0.1,0.7-0.3,0.9-0.6c0.2-0.1,0.6-0.3,0.7-0.3
	s0.2-0.1,0.2-0.2s0.1-0.1,0.1-0.1c0.1,0,0.5-0.1,0.7-0.3c0.3-0.2,0.9-0.6,1.2-0.7c1-0.6,1.2-0.7,1.6-0.9c0.2-0.1,0.6-0.3,0.8-0.5
	c0.2-0.1,0.6-0.3,0.8-0.5c0.1-0.1,0.5-0.2,0.7-0.3c0.2-0.1,0.5-0.2,0.6-0.3c0.1,0,0.3-0.2,0.6-0.3c0.2-0.1,0.7-0.3,0.9-0.6
	c0.3-0.1,1.5-0.8,2.5-1.5c1.1-0.7,2.1-1.2,2.3-1.2l0.2-0.1V39V26.4l-0.3-0.3c-0.9-1-2.4-0.3-2.4,1.1c0,1.4-0.9,1.9-1.9,1.4l-0.5-0.2
	l-0.1-2.1c-0.1-2.3-0.1-2.6-0.7-2.9c-1-0.6-2,0-2.1,1.4c-0.1,1.2-1.7,1.5-2.3,0.3c-0.1-0.3-0.2-0.9-0.2-3.4v-2.9l0-0.6
	c-0.6-0.6-1.6-0.5-2.1,0.3c-0.2,0.3-0.2,0.6-0.2,1.8v1.5L29.2,22c-0.6,0.6-1.1,0.5-1.6,0l-0.5-0.6v-3.3c0-3.5,0-3.6-0.7-4.1
	C26,13.8,25.5,13.9,24.9,14.2 M20.1,35.5V38h3h3v-2.5V33h2.9h3v7.1v7.1h-2.9h-2.9V45v-2.3h-3h-3V45v2.3h-2.9h-2.9v-7.1V33h2.9h2.9
	v2.5"/>
</svg>
