<?xml version="1.0" encoding="utf-8"?>
<!-- Generator: Adobe Illustrator 26.1.0, SVG Export Plug-In . SVG Version: 6.00 Build 0)  -->
<svg version="1.1" id="Layer_1" xmlns="http://www.w3.org/2000/svg" xmlns:xlink="http://www.w3.org/1999/xlink" x="0px" y="0px"
	 viewBox="0 0 1056.6 202" style="enable-background:new 0 0 1056.6 202;" xml:space="preserve">
<g id="Livello_1_1_">
</g>
<g id="Layer_1_00000121280000816817959920000000882230360127541942_">
</g>
<path style="fill:#FFFFFF;" d="M355.4,17.8c0.4,53.9,0.8,107.8,1.2,161.6c0,3,0.2,5.4-4.2,5.3c-22.5-0.5-45-0.7-67.4-1
	c-0.5,0-1.1-0.3-2.3-0.5c0-9.6,0-19.5,0-29.3c-0.1-41.8-0.1-83.5-0.2-125.3c0-3.6,0.6-7.4,0.8-11C307.3,17.8,331.3,17.8,355.4,17.8z
	 M315.9,139.9c0-32.9,0-65.1,0-97.9c-7.8,0-14.9,0-22.1,0c0,40.1,0,79.9,0,119.4c16.6,0,32.8,0,49,0c0.3-5.7,0.3-10.7,0.9-15.7
	c0.5-4.4-0.7-6.1-5.3-5.9C331.2,140.2,324.1,139.9,315.9,139.9z"/>
<path style="fill:#FFFFFF;" d="M48.1,17.8c11,0.4,22,0.8,33,1.2c7.4,0.2,14.9,0.3,22.3,0.4c4.4,0.1,7,1.5,6.6,6.6
	c-0.6,9.6-1.1,19.3-1.1,29.1c0,16.4,0.6,32.7,0.6,49.1c0.1,13.9-0.5,27.9-0.5,41.9c0,10.7,0.6,21.4,0.8,32.1
	c0.2,7.4,0.1,7.6-7.4,7.4c-7.4-0.3-14.7-1.6-22.1-1.5c-10.6,0.2-21.1,1.4-31.7,1.9c-6.4,0.3-12.7-0.1-19.1-0.2
	c-3.7,0-5.3-1.6-5.3-5.5c0.4-53.1,0.7-106.2,1-159.3c0-0.5,0.3-1,0.4-1.6c2.1-0.5,4.3-0.9,6.4-1.4C37.5,17.8,42.8,17.8,48.1,17.8z
	 M57,163.4c0-14.7,0-29.2,0-43.6c0.7-0.2,1.2-0.4,1.9-0.6c0.9,1.5,2.1,2.9,2.6,4.4c3.4,11.2,6.6,22.5,10.2,33.7
	c0.6,1.9,2.9,4.4,4.5,4.6c7.4,0.5,14.9,0.2,22,0.2c0-5.6,0-10.6,0-15.6c0.3-0.1,0.7-0.1,1-0.1c1.1,5,2.3,10,3.5,15.4
	c0-15,0-29.1,0-43.3c-0.4,0.1-0.7,0.1-1.1,0.1c-0.7,3.3-1.3,6.6-2,9.8c-0.4-0.1-0.8-0.2-1.2-0.3c-0.6-1.4-1.2-2.8-2.1-5
	c-1.7,5.2-3.1,9.4-4.8,14.9c-3.5-10.1-6.4-18.9-9.1-26.7c3.1-4.1,6.3-7.2,8.1-10.9c4.8-10.2,5.8-21.2,4.6-32.2
	C93.9,57.8,83.5,44,68.3,43c-9.3-0.7-18.8-0.3-28.1-0.1c-4.2,0.1-6.4,1.8-6.3,6.8c0.7,26,1,52,1.3,77.9c0.1,10.2,0.1,20.5,0,30.6
	c-0.1,3.7,1.1,5.5,5.1,5.3C45.6,163.2,50.8,163.4,57,163.4z"/>
<path style="fill:#FFFFFF;" d="M652.5,45.8c-7.7,21.1-15.4,42.2-22.9,63.4c-0.7,2-0.5,4.4-0.5,6.6c-0.1,15.1,0,30.2,0,45.8
	c-6.8,0-14.5,0-22.9,0c-0.5-12.1-1-24.5-1.6-36.9c-0.4-7.7,0.1-15.8-2.1-22.9C597,83.8,590,66,583.8,48.1c-0.7-1.8-0.7-3.9-1.2-6.7
	c7.6,0,14.5-0.2,21.3,0.2c1.2,0.1,2.8,2.1,3.4,3.6c3.9,9.8,7.6,19.7,11.6,30.2c3.1-11.5,6.1-22.4,9.2-34c8.1,1.3,16.6-2,24.5,2.3
	C652.5,44.3,652.5,45.1,652.5,45.8z"/>
<path style="fill:#FFFFFF;" d="M272.9,184.6c-8.4,0-16,0-23.5,0c-13.4,0-26.8,0.1-40.1,0.1c-8.7,0-9.1-0.1-9.1-8.6
	c0-24.6,0.4-49.1,0.6-73.6c0.2-22.2,0.5-44.4,0.5-66.6c0-3.9-0.5-7.8-0.8-11.7c-0.2-3.2,1-4.8,4.6-4.8c20.8,0.3,41.6,0.6,62.5,0.7
	c4.6,0,5.5,2,5.5,6.1c-0.1,44.6-0.1,89.3,0,133.9C272.9,167.7,272.9,175.4,272.9,184.6z M215.7,161c15,0,29.9,0,44.8,0
	c0-7.2,0-14.1,0-21.4c-7.6,0-14.8,0-22.5,0c0-8.9-0.1-17.2,0.2-25.5c0.1-1.1,2.5-3,4-3.1c6.3-0.3,12.5-0.1,19-0.1c0-7.2,0-14,0-21.6
	c-7.8,0-15.1,0-22.3,0c0-9.1,0-17.3,0-26.3c7.9,0,15.4,0,23.1,0c0-7.2,0-13.9,0-20.8c-15.5,0-30.6,0-46.3,0
	C215.7,82,215.7,121.5,215.7,161z"/>
<path style="fill:#FFFFFF;" d="M190.7,184.7c-11.7,0-23.3,0-34.8,0c-10.5,0-21-0.1-31.5,0c-4.2,0.1-5.4-1.6-5.5-5.6
	c-0.4-10.7-1.6-21.4-1.8-32.2c-0.2-7.9,0.8-16,1-23.9c0.4-23.8,0.7-47.7,0.8-71.5c0.1-8.9,0.1-17.9-0.1-26.8c0-2.9,0.3-5.3,4-5.2
	c21.7,0.3,43.5,0.6,65.1,0.8c0.7,0,1.4,0.3,2.7,0.5C190.7,75.1,190.7,129.2,190.7,184.7z M133.6,161c15.5,0,30.4,0,45.4,0
	c0-7.2,0-14,0-21.4c-7.8,0-15.1,0-22.9,0c0-8,0.3-15.4-0.1-22.9c-0.2-4.8,1.8-6.1,6.3-5.9c5.7,0.3,11.4,0.1,17.1,0.1
	c0-7.7,0-14.3,0-21.5c-7.6,0-14.8,0-22,0c0-9,0-17.5,0-26.4c7.9,0,15.4,0,23.1,0c0-7.2,0-13.7,0-20.8c-13.2,0-26.1-0.1-39,0.1
	c-7.6,0.1-7.6,0.4-7.6,8.1c-0.1,26.3-0.2,52.6-0.3,78.9C133.6,139.8,133.6,150.2,133.6,161z"/>
<path style="fill:#FFFFFF;" d="M375.5,40.4c15.4,0.7,30.1,0.3,44.4,2.3c15.4,2.1,22.1,10.9,24.6,26.3c1.8,11.7,2.1,23-2.3,34.1
	c-4.8,11.7-13.7,17.7-26.2,18.9c-4.1,0.4-8.2,0.8-13,1.2c0,12.8,0,25.5,0,38.6c-8.5,0-16.4,0.1-24.2-0.1c-0.9,0-2.2-1.6-2.6-2.7
	c-0.5-1.3-0.1-2.9-0.1-4.4c-0.2-35.3-0.3-70.7-0.5-106C375.5,46.5,375.5,44.3,375.5,40.4z M401.5,66.4c0,10.2-0.2,19.4,0.1,28.6
	c0.1,3.4,2.7,2.3,4.5,1.1c5.7-3.6,11.2-7.4,16.9-11.1c3.6-2.3,3-4.1-0.2-6.2c-5.5-3.5-10.9-7.2-16.4-10.7
	C405.3,67.5,403.8,67.2,401.5,66.4z"/>
<path style="fill:#FFFFFF;" d="M592.5,161.9c-7.2,0-13.4,0.2-19.5-0.1c-1.2-0.1-2.9-2-3.4-3.5c-1.6-4.6-2.5-9.4-4.2-13.9
	c-0.5-1.5-2.5-3.4-4-3.5c-5.9-0.4-11.9-0.2-18.6-0.2c-0.8,6.4-1.6,13-2.4,20.3c-7.1,0-14.3,0-21.9,0c6.1-39.5,12.1-78.8,18.2-118.6
	c9.8,0,19.5,0,29.8,0C575.4,81.9,583.8,121.4,592.5,161.9z M552.8,81.6c-0.5,0.1-1.1,0.1-1.6,0.1c-1.6,12.8-3.3,25.5-5,38.8
	c4.9,0,8.7,0,13.7,0C557.4,107.2,555.1,94.4,552.8,81.6z"/>
<path style="fill:#FFFFFF;" d="M457.3,42c7.5,0,14.5,0,22.1,0c0,32.8,0,65,0,97.9c7.9,0,15.2,0.2,22.4-0.1c4.1-0.1,5.8,1,5.5,5.3
	c-0.4,5.2-0.1,10.4-0.1,16.3c-17.1,0-33.5,0-50,0C457.3,121.7,457.3,81.9,457.3,42z"/>
<path style="fill:#FFFFFF;" d="M57,67.5c7.8,5.1,14.3,9.4,22,14.5c-7.8,5.1-14.3,9.5-22,14.6C57,86.4,57,77.7,57,67.5z"/>
</svg>
