<?xml version="1.0" encoding="UTF-8"?> <!-- Generator: Adobe Illustrator 25.3.1, SVG Export Plug-In . SVG Version: 6.00 Build 0) --> <svg xmlns="http://www.w3.org/2000/svg" xmlns:xlink="http://www.w3.org/1999/xlink" version="1.1" id="Layer_1" x="0px" y="0px" viewBox="0 0 1000 1000" style="enable-background:new 0 0 1000 1000;" xml:space="preserve"> <path style="fill:#FFFFFF;" d="M850.1,513.2h-67c0,0,0,0,0,0h-41.7c-3.2-3-6.9-5.5-11.1-8.1c-2.7-1.7-5.5-3.3-8.6-4.9 c-1.6-11.3-8.5-25.4-29.4-36.9c-11.5-6.4-27.2-11.9-46.5-16.4c-15.8-3.7-33.8-6.6-53.2-8.8V105.2h-0.5c0-14.9-10.1-28-28.5-36.9 c-14.9-7.2-34.4-11.2-54.9-11.2s-40,4-54.9,11.2c-18.4,8.9-28.5,22-28.5,36.9h-0.7v333.4c-17.8,2.1-34.3,4.9-49,8.3 c-19.3,4.5-35,10-46.5,16.4c-20.8,11.5-27.7,25.6-29.4,36.9c-3,1.6-5.9,3.2-8.6,4.9c-4.2,2.6-7.9,5.1-11.1,8.1h-0.5c0,0,0,0,0,0 H167.5c-37.4,0-67.8,30.4-67.8,67.7v296.7c0,37.4,30.4,67.6,67.8,67.6h682.7c37.4,0,67.6-30.2,67.6-67.6V581 C917.7,543.6,887.5,513.2,850.1,513.2z M850.1,543.2c20.8,0,37.6,16.9,37.6,37.7v121.9c0,20.8-16.7,37.3-37.6,37.3H167.5 c-20.8,0-37.8-16.5-37.8-37.3V581c0-20.8,16.9-37.7,37.8-37.7h93.5c-0.8,4-1.1,7-1.1,10.1c0,1.7,0.1,3.5,0.3,5.4 c-3.5,1.9-6.7,3.9-9.7,5.9c-18.6,12.6-28.1,27.1-28.1,43c0,4.8,0.9,9.4,2.6,13.9c-19.5,4.8-34.3,9.4-45.6,14.2 c-8.6,3.7-35,15-35,38.4c0,12.1,7.1,29.2,40.9,41.6c21.7,7.9,50.2,12.3,80.2,12.3c55.4,0,95.4-8.8,146.1-32.2 c31.7,3.5,65,5.2,99.2,5.2c74.4,0,144.5-8.4,197.5-23.6c26.6-7.6,47.8-16.7,62.9-27c18.6-12.6,28.1-27.1,28.1-43s-9.4-30.3-28.1-43 c-3-2-6.2-4-9.7-5.9c0.2-1.9,0.3-3.7,0.3-5.4c0-3.1-0.3-6.1-1.1-10.1L850.1,543.2L850.1,543.2z M508.8,87.1 c35.1,0,53.4,13.4,53.4,18.1s-18.4,18.1-53.4,18.1s-53.4-13.4-53.4-18.1S473.7,87.1,508.8,87.1z M454.7,142.5 c14.8,7,33.9,10.8,54,10.8v341.6c-39.8,0-51.3-15.7-54-20.7V142.5z M424.7,468.8v10.5l0.6,2c0.6,2.1,4.2,13.2,16.9,23.8 c15.8,13.2,38.2,19.8,66.6,19.8c29.1,0,51.7-6.7,67.2-20c12.7-10.8,15.8-22.2,16.4-24.3l0.4-1.7v-10.6c59,7,99.5,21.3,99.5,37.7 c0,23.4-81.2,42.3-181.4,42.3S329.4,529.4,329.4,506C329.4,490,367.9,476,424.7,468.8z M307.4,530.4c4.5,6.3,11.4,12.7,21.8,18.4 c11.5,6.4,27.2,11.9,46.5,16.4c36.4,8.5,84.4,13.2,135.1,13.2s98.6-4.7,135.1-13.2c19.3-4.5,35-10,46.5-16.4 c10.4-5.7,17.3-12.1,21.8-18.4c11.3,7,17.6,14.8,17.6,22.9c0,32.3-98.9,58.5-221,58.5s-221-26.2-221-58.5 C289.8,545.1,296.1,537.4,307.4,530.4z M291.3,601.5c13.7,8.6,32.4,16,55.6,22.2c44.2,11.7,102.4,18.1,163.9,18.1 s119.8-6.4,163.9-18.1c23.2-6.1,41.9-13.6,55.6-22.2c8-5,14-10.2,18.5-15.4c15.3,9,20.4,17,20.4,21.6c0,7.9-14.6,25.4-69.2,41.1 c-50.3,14.5-117.5,22.4-189.2,22.4c-34.6,0-68.2-1.9-100-5.5c-2.8-0.3-5.6,0.1-8.1,1.3c-48.1,22.7-85.2,31.2-137.1,31.2 c-25.5,0-49.6-3.5-67.8-9.8c-17.9-6.2-22.9-12.7-23.3-14.1c0.3-0.7,3.2-5.6,20.1-12.3c3.3-1.3,6.9-2.6,10.9-3.9 c4.6,13.4,33.6,23.7,68.9,23.7c38.4,0,69.5-12.3,69.5-27.4v-13c0-15.1-31.1-27.4-69.5-27.4c-6.5,0-12.8,0.4-18.8,1 c-1.7-2.3-3-4.9-3-7.4c0-4.6,5.1-12.6,20.4-21.6C277.3,591.3,283.3,596.5,291.3,601.5z M850.1,915.2h-8.3c8.6-9,13.9-20.8,13.9-34.2 v-87c-2,0.1-3.8,0.2-5.8,0.2H167.5c-0.2,0-0.8,0-0.8,0V881c0,13.4,5.4,25.2,14.1,34.2h-13.3c-20.8,0-37.8-16.8-37.8-37.6V758.8 c11,7.2,23.8,11.4,37.8,11.4h682.7c14,0,26.6-4.2,37.6-11.4v118.8C887.7,898.4,871,915.2,850.1,915.2z"></path> </svg> 