<?xml version="1.0" encoding="UTF-8"?> <!-- Generator: Adobe Illustrator 25.3.1, SVG Export Plug-In . SVG Version: 6.00 Build 0) --> <svg xmlns="http://www.w3.org/2000/svg" xmlns:xlink="http://www.w3.org/1999/xlink" version="1.1" id="Layer_1" x="0px" y="0px" viewBox="0 0 1000 1000" style="enable-background:new 0 0 1000 1000;" xml:space="preserve"> <path style="fill:#FFFFFF;" d="M737.2,499.2c-185-92.5-368.5-184.2-553.3-276.6c0,4.1,0,7.2,0,10.3c0,213.9,0,427.9,0,641.8 c0,30.8-17,55.1-45.1,62.9c-42.9,11.9-78.5-19.7-80-55.5c-0.3-6-0.5-12.1-0.5-18.1c0-245.5,0-491-0.1-736.6 c0-17.6,3.5-33.8,15.3-47.5c19.6-22.5,50.2-28,78.3-13.9c86.2,43,172.4,86.1,258.5,129.2C574.7,277.4,739,359.8,903.6,441.6 c36.9,18.3,45.9,60.6,27.9,90.4c-6.4,10.6-15.4,18.3-26.6,23.9c-137.5,68.7-275,137.4-412.5,206.2c-34.1,17.1-68.2,34.2-102.4,51.2 c-43.6,21.7-92.3-8.3-92.3-57c0-85.2,0-170.5,0-255.7c0-33.7,24.8-61.4,57.3-64.1c33.8-2.7,63.1,20.7,68.1,54.7 c0.3,2.3,0.2,4.7,0.2,7.1c0,49.8,0,99.5,0,149.3c0,2.3,0,4.7,0,8.4C528.2,603.6,632,551.8,737.2,499.2z"></path> </svg> 