<?xml version="1.0" encoding="UTF-8"?> <!-- Generator: Adobe Illustrator 25.3.1, SVG Export Plug-In . SVG Version: 6.00 Build 0) --> <svg xmlns="http://www.w3.org/2000/svg" xmlns:xlink="http://www.w3.org/1999/xlink" version="1.1" id="Layer_1" x="0px" y="0px" viewBox="0 0 1000 1000" style="enable-background:new 0 0 1000 1000;" xml:space="preserve"> <path style="fill:#FFFFFF;" d="M256.6,408.9h76v36h-76V408.9z M279.2,364.8v13.4h-58c-4.8,0-8.7,3.9-8.7,8.7v22.1h13.4v102.7h-13.4 v30.8h8.7c9.4,0,18.4-3.7,25.1-10.4c6.6-6.6,10.4-15.7,10.4-25.1v-31.3h76V507c0,9.4,3.7,18.4,10.4,25.1 c6.6,6.6,15.7,10.4,25.1,10.4h8.7v-30.8h-13.4V408.9h13.4v-22.1c0-2.3-0.9-4.5-2.6-6.2h0c-1.6-1.6-3.9-2.6-6.2-2.6h-58v-13.4H279.2z "></path> <path style="fill:#FFFFFF;" d="M82.6,475.8h63.3c7.4,0,13.4,4.8,13.4,12.1v24.1H82.6V475.8z M82.6,408.9h76.7v23.7 c0,7.4-6,13.4-13.4,13.4H82.6V408.9z M46.8,378.1c-2,0-3.9,0.8-5.3,2.2c-1.4,1.4-2.2,3.3-2.2,5.3v23.3h13.6V446H39.3v28.6h13.6v37.5 H39.3V535c0,2,0.8,3.9,2.2,5.3c1.4,1.4,3.3,2.2,5.3,2.2h108.6c19.1,0,34.6-15.5,34.6-34.6v-28.3c0-13-17.6-17.3-24.4-18.7 c0-0.2,0-0.3,0-0.4v-0.1v0c0-0.1,0-0.2,0-0.5c6.8-1,24.4-4.9,24.4-18.9v-28.5c0-19-15.4-34.4-34.4-34.4H46.8z"></path> <path style="fill:#FFFFFF;" d="M852.6,408.9h76v102.6l-76,0.1V408.9z M875.2,364.8v13.4h-44.7c-2.3,0-4.5,0.9-6.2,2.6 c-1.6,1.6-2.6,3.9-2.6,6.2v146.9c0,2.3,0.9,4.5,2.6,6.2c1.6,1.6,3.9,2.6,6.2,2.6h120.2c2.3,0,4.5-0.9,6.2-2.5 c1.6-1.6,2.6-3.9,2.6-6.2V386.8c0-1.2-0.2-2.3-0.7-3.4c-1.4-3.2-4.5-5.3-8.1-5.3H906v-13.4H875.2z"></path> <path style="fill:#FFFFFF;" d="M691.4,475.8h63.3c7.4,0,13.4,4.8,13.4,12.1v24.1h-76.7V475.8z M691.4,408.9h76.7v23.7 c0,7.4-6,13.4-13.4,13.4h-63.3V408.9z M655.7,378.1c-2,0-3.9,0.8-5.3,2.2c-1.4,1.4-2.2,3.3-2.2,5.3v23.3h13.6V446h-13.6v28.6h13.6 v37.5h-13.6V535c0,2,0.8,3.9,2.2,5.3c1.4,1.4,3.3,2.2,5.3,2.2h108.6c19.1,0,34.6-15.5,34.6-34.6v-28.3c0-13-17.6-17.3-24.4-18.7 c0-0.2,0-0.3,0-0.4v-0.1v0c0-0.1,0-0.2,0-0.5c6.8-1,24.4-4.9,24.4-18.9v-28.5c0-19-15.4-34.4-34.4-34.4H655.7z"></path> <path style="fill:#FFFFFF;" d="M564.8,435.6v-48.8c0-2.3-0.9-4.5-2.6-6.2h0c-1.6-1.6-3.8-2.6-6.2-2.6c0,0,0,0,0,0H409.2 c-2.3,0-4.5,0.9-6.2,2.6c-1.6,1.6-2.6,3.9-2.6,6.2v22.1h13.3l-0.1,98c0,9.4,3.7,18.4,10.4,25.1c6.7,6.6,15.7,10.4,25.1,10.3l9.2,0.1 c-4.4,24.2-13.7,46.8-22.9,69.5c-4.7,11.7-9.8,23-23.1,27.4c-0.7,0.2-2,0.4-2.1,0.8c-1.1,4-2.7,8.1-2.5,12.1 c0.1,1.2,5.7,3.4,8.3,2.8c4.8-1.2,9.2-4.1,13.7-6.3c4.9-2.4,9.5-6.3,14.6-7.1c8.1-1.3,16.5-1.3,24.7-0.6c9.3,0.8,18.5,2.9,27.8,4.4 c0.5-0.6,1-1.2,1.5-1.9c-2.3-2.5-4.2-6-7.1-7.4c-11.4-5.6-23.4-8.4-36.3-6.2c-4.7,0.8-9.5,0.8-15.2,1.2c1.6-3.7,2.9-6.1,3.9-8.7 c9.8-25.6,19.9-51,29.2-76.8c0.4-1,0.7-2,1.1-3h82.2c4.8,0,8.7-3.9,8.7-8.7v-48.8H534v26.7l-71.3,0l-4.9,0 c-7.2,0-13.1-5.9-13.1-13.1l0.1-89.6H534v26.7H564.8z"></path> <path style="fill:#FFFFFF;" d="M549.3,622.2c-12.5-1.6-19.1-10.4-15.8-22.8c4-14.8,18.5-26.7,32.8-25.6c3.4,0.3,8.8,2,9.6,4.3 c1.2,3.6,0.8,10-1.6,12c-5.9,5-13.3,8.2-20.1,12.1c-1.8,1-4.2,1.6-5.2,3.2c-0.7,1,0.2,4.6,0.9,4.7c2.3,0.5,4.8,0.3,7.2-0.3 c1.6-0.4,3-2.1,4.6-2.6c1.8-0.5,3.8-0.2,5.7-0.2c-0.4,2.4,0.1,6.2-1.2,7C560.8,617.3,555,619.6,549.3,622.2z M565,584.1 c-8.1-0.3-10.5,2.6-11.2,11.3C558.2,590.9,561.6,587.5,565,584.1z"></path> <path style="fill:#FFFFFF;" d="M496.6,621.5c0.7-15.1,1.4-28.1,1.7-41.2c0.1-5.8,3.1-6.9,7.9-6.6c5.2,0.3,6.5,3.3,6.2,7.8 c-0.5,6.8-0.9,13.6-1.4,20.4c0.9,0.3,1.9,0.6,2.8,1c3.1-7.5,6.8-14.8,9.2-22.4c1.5-4.8,2.9-8.6,8.5-7.6c5.8,1,5.8,6.4,4.2,9.8 c-3.1,6.9-7.2,13.5-11.8,19.6c-4.3,5.7-9.3,11.2-14.9,15.6C506,620.1,501.1,620.2,496.6,621.5z"></path> <path style="fill:#FFFFFF;" d="M429.9,596.2c-0.2,18.7-17.8,31.2-35.4,25.3c-4.7-1.6-5.5-3.7-3.3-8.6 C398.7,596.1,406.1,593.6,429.9,596.2z"></path> <path style="fill:#FFFFFF;" d="M429.7,591.7c-15.8,5.3-32-1.8-38.3-16.6c-2.5-5.7-0.4-8.5,4.8-9.3 C414.1,563.1,429.8,571.3,429.7,591.7z"></path> <path style="fill:#FFFFFF;" d="M479.3,608.7c5.9,3.4,6.1,6.1,0.4,9.4c-2.2,1.3-4.7,2.3-7.1,2.7c-9.4,1.2-12-1.9-8.9-10.7 c3.7-10.6,7.7-21.1,11.9-31.4c1.7-4.1,4.9-8.1,10.2-5.8c5.5,2.4,3.8,6.9,2.2,11.3C484.9,592.3,482.1,600.5,479.3,608.7z"></path> <path style="fill:#FFFFFF;" d="M498,562.3c-5.4,3.1-8.4,5.3-11.7,6.4c-0.6,0.2-4.4-5.1-3.8-6.2c1.6-2.8,4.6-5.3,7.6-6.6 C491.1,555.4,493.8,558.8,498,562.3z"></path> </svg> 