<?xml version="1.0" encoding="UTF-8"?> <!-- Generator: Adobe Illustrator 26.0.2, SVG Export Plug-In . SVG Version: 6.00 Build 0) --> <svg xmlns="http://www.w3.org/2000/svg" xmlns:xlink="http://www.w3.org/1999/xlink" version="1.1" id="Layer_1" x="0px" y="0px" viewBox="0 0 94.9 66.8" style="enable-background:new 0 0 94.9 66.8;" xml:space="preserve"> <g id="katman_1"> <path style="fill:#FFCE00;" d="M90.3,0.2L63.5,7.4c-2,0.5-3.2,2.5-2.7,4.5c0.2,0.6,0.5,1.2,1,1.7l5.6,5.6L51.5,35H25.9 c-1.6,0-3.1,0.6-4.2,1.7l-20,20c-2.3,2.3-2.3,6.1,0,8.4c1.1,1.1,2.6,1.7,4.2,1.7c1.6,0,3.1-0.6,4.2-1.7L28.3,47h25.6 c1.6,0,3.1-0.6,4.2-1.7l17.6-17.6l5.6,5.6c1.4,1.4,3.8,1.4,5.2,0c0.5-0.5,0.8-1.1,1-1.7l7.2-26.9c0.6-1.8-0.4-3.9-2.2-4.5 C91.8-0.1,91-0.1,90.3,0.2z"></path> </g> </svg> 