<?xml version="1.0" encoding="UTF-8"?> <!-- Generator: Adobe Illustrator 25.3.1, SVG Export Plug-In . SVG Version: 6.00 Build 0) --> <svg xmlns="http://www.w3.org/2000/svg" xmlns:xlink="http://www.w3.org/1999/xlink" version="1.1" id="Layer_1" x="0px" y="0px" viewBox="0 0 1000 1000" style="enable-background:new 0 0 1000 1000;" xml:space="preserve"> <path style="fill:#FFFFFF;" d="M77,552.9c0,13.8-0.2,26.9,0.1,40c0.2,7.8-2.4,10.8-10.7,9.7c-19.2-2.4-19.3-2.1-19.3-21.7 c0-11-0.6-22,0.1-32.9c0.8-12.1,2.1-24.3,4.6-36.1c0.8-3.9,5.6-8.5,9.6-10.1c22.6-8.9,45.2-5.8,67.1,3.1c11,4.5,17.5,16,16.6,25.9 c-1,9.9-11.9,24-21.8,25.7c-9.1,1.5-9.6,5.2-6,12.2c3.3,6.4,4.8,15.1,10,19c5.7,4.3,14.6,4.3,23.1,6.5c0.7,7.5-9.8,16-21.4,13 c-8.3-2.1-16.9-5-24.2-9.5c-11-6.8-13.8-19.2-17.8-30.8C85.3,562.1,88.9,552.8,77,552.9z M82.1,541c9.7,14.2,14.3,16,23.8,10.8 c12.2-6.7,16.8-19.6,11.5-32.5c-6.2-15.1-20.7-19.9-39.8-13.3c-1.3,9.7-2.6,19.4-4.1,30.1c7.1-1.1,11.4-1.8,15.7-2.4 c0.4,0.9,0.8,1.7,1.2,2.6C87.8,537.7,85.1,539.3,82.1,541z"></path> <path style="fill:#FFFFFF;" d="M444.5,600.9c0-22.7,0-44.5,0-66.4c0.1-27.6,0.6-28.4,27.5-33.9c18.2-3.7,36-1.8,52.9,5.8 c17.2,7.7,19.2,32.2,3.5,43.2c-5.9,4.1-12.9,6.5-19.4,9.7c14.8,43.9,21,39.1,36.5,34.5c-1.1,7.8-8.6,14.6-17.3,13.1 c-9.1-1.6-18.4-4.7-26.5-9.1c-13.6-7.3-17-21.1-19.1-35.3c-0.5-3.4-3.3-6.4-5.1-9.6c-1.7,3.3-4.5,6.6-4.7,10 c-0.6,10.6-0.6,21.3-0.2,31.9c0.2,6.1-1.9,8.7-7.8,8.2C457.7,602.3,450.7,601.5,444.5,600.9z M485.4,533.1 c-1.4,5.1-4.3,11.6-3.1,12.5c4.4,3.2,10.1,5.9,15.5,6.2c3.5,0.2,7.5-3.9,10.8-6.7c6.9-5.8,9.1-17.5,3.2-28.2 c-3.1-5.7-10.2-12.4-15.9-12.8c-21.4-1.3-24.9,3.2-23.5,24.3c0.2,2.3,0.5,4.7,0.7,7C477.7,534.5,481.8,533.8,485.4,533.1z"></path> <path style="fill:#FFFFFF;" d="M296.7,581.2c0,6.6,0,13.1,0,20.1c-7.7,0-15.7,0-23.5,0c4.9-34.6,3.2-68.6-1.3-100.2 c14.3-0.8,29-2.2,43.8-2.2c14.1,0,28.2,1.3,39.3,12.1c10.2,9.9,7.7,25.3-5.1,31.8c-1.2,0.6-2.3,4.6-1.5,5.7c1.9,2.9,4.6,5.8,7.6,7.3 c13.5,6.6,13.4,17.7,10.2,29.6c-2.7,10.3-11.5,13.6-20.8,15.5c-3.8,0.8-7.7,1.2-11.5,2.1c-8,1.8-13.6,0.5-18.2-7.8 c-3.6-6.5-10.5-11.2-15.9-16.6C298.8,579.5,297.7,580.3,296.7,581.2z M300.1,550c0,6,0.5,10.6-0.1,15.1 c-1.5,11.3,5.1,16.3,14.5,17.7c7.2,1,14.9,0.8,21.9-0.9c10.7-2.6,15.1-11.2,12.3-21.9c-0.6-2.1-3.4-4.7-5.4-5 C329.3,553.1,315.2,551.7,300.1,550z M300.7,539.1c11.3,0,22,0,32.8,0c-1.5-33.2-1.5-33.2-32.8-27.3 C300.7,521,300.7,530.1,300.7,539.1z"></path> <path style="fill:#FFFFFF;" d="M811.5,365.1c0,35,0,68.4,0,104.3c-7.5-0.8-15.6-1.3-23.6-2.7c-1.3-0.2-2.5-4.6-2.6-7.1 c-0.3-11-0.5-22-0.2-32.9c0.3-9.8-4.1-14.8-13.7-14.1c-16.7,1.3-18.9,0.4-20.4,17.7c-1,12.6-4.8,24.3-15.4,33.1 c-8.8,7.3-17.9,7.4-27.7,3.6c-4.2-1.6-4.1-15,1.4-16.6c18.4-5.4,10.5-21.1,13.6-32c2.4-8.6,2.9-15.9,11.7-22 c9.2-6.4,15.5-17.1,22.6-27c-9.1,1.9-20.7-5.4-26.1,8.9c-0.5,1.3-4.6,1.3-7.1,1.9c-0.1-2.2-1.1-4.9-0.2-6.6 c5.2-9.6,14.5-8.4,23.3-8.4C767.9,365.1,788.6,365.1,811.5,365.1z M785.4,406.1c0.5-11.2,1.4-20.7,1-30.2c-0.1-2-4.3-5.5-6.8-5.6 c-11.3-0.5-27.8,13-28.9,24.1c-0.4,3.7,2.7,10.9,4.8,11.1C765.5,406.7,775.8,406.1,785.4,406.1z"></path> <path style="fill:#FFFFFF;" d="M250.1,499.1c-6.4,15.6-19.3,28-17.6,47.1c4.7-0.5,8.7-0.9,14.5-1.6c0.2,3.1,2.1,8.1,0.4,10.1 c-2.8,3.2-9.7,7.1-11.7,5.9c-5.2-3.3-8.6-9.4-14.1-15.9c-6.9,0-16.7,0-26.2,0c0,15.9,0,31.2,0,46.1c16.8,4.6,21.2,3.1,30.3-9.7 c5.8-8.2,18.9-12.2,26.3-8.8c-1.6,10.1-3.1,20-4.8,30.6c-26.2,0-53.7,0-81.3,0c0-22.3-0.4-44.5,0.2-66.7c0.3-9.7,2.2-19.5,4.5-28.9 c0.6-2.5,5.4-5.5,8.5-5.7c16.9-1.3,33.9-1.8,50.8-2.4C236.6,498.9,243.2,499.1,250.1,499.1z M196.5,531.1 c27.6,3.4,38.3-4.2,33.2-21.4c-11.4,0-22.5,0-33.2,0C196.5,517.4,196.5,524,196.5,531.1z"></path> <path style="fill:#FFFFFF;" d="M836.6,467.6c0-31,0-61.7,0-91.9c4.8-1.6,9-3.3,13.5-4.3c2.9-0.6,7.5-1.4,8.9,0.1 c7,7.9,13.8,3.2,21.3,1.5c16-3.8,32.5-9.2,45.9,7c14.9,18,12.8,41.8,0.8,58.8c-4.3,6.1-8.3,12.3-13.4,19.9c6,0,10.2,0,15.2,0 c-1.3,7.2-3.9,11.8-12.1,10.8c-2.8-0.3-5.8,0.5-8.5-0.1c-4.3-1-8.4-2.7-12.6-4.1c1.5-3.7,2.4-7.9,4.7-11.1 c15-20.9,14.1-47.6-0.9-69.1c-6.2-9-13-8.6-22.4-3.6c-12,6.4-13.3,15.7-13,27.4c0.5,17.6-0.6,35.3-0.4,53c0.1,5.9-2,7.9-7.2,7.5 C849.1,468.8,842.2,468.1,836.6,467.6z"></path> <path style="fill:#FFFFFF;" d="M450.1,430.8c0,10.9,0,23.8,0,37.2c-10,0-20.4,0-31.2,0c7.6-33.9,5-66.5,2-97.6 c15.2-2.8,30.3-7.5,45.6-8c15.2-0.5,29.9,4.7,42.1,14.8c0.8,0.7,1.8,1.6,1.9,2.5c1,8.7,4.2,18,2,25.9c-2.8,10.1-11.2,16.4-23,17.8 C476.4,425.1,463.4,428.3,450.1,430.8z M458,400c-1.3,5.2-3.8,11.2-2.9,11.8c4.5,2.9,10.8,6.9,15,5.6c5.2-1.6,10-7.4,13.2-12.5 c5-8.2,1.2-28.2-5.5-29.5c-10.7-2.1-21.9-7.2-32.7,1c0,7.3,0,14.7,0,22.1c0,1,0.5,2,0.7,3.1C450.4,401,454.8,400.4,458,400z"></path> <path style="fill:#FFFFFF;" d="M266.4,468.5c-25.4-3.2-50.6,3.9-74.5-7.2c-10.1-4.7-17-12-18.9-22.6c-1.8-10-2.3-20.4-1.9-30.6 c0.6-14.1,12.3-27.9,25.9-31.6c10.9-3,21.9-5.4,32.9-8c1-0.2,2.2-0.6,3.1-0.3c9.7,2.7,19.3,5.5,31.7,9.1 c-10.7,6.2-19.5,11.3-28.6,16.6c-0.4-7.5-15.5-17.5-23.2-16.1c-14.6,2.7-19.1,7.1-18.3,22.5c0.9,16.4,2.2,33.1,6.1,49 c2.9,12.2,24.9,19,35.8,12.8c2-1.2,4-4.3,4.1-6.6c0.4-13.7,0.2-27.5,0.2-42.1c12-10.2,16.5-10.8,25.6-4.1 C266.4,429.4,266.4,448.3,266.4,468.5z"></path> <path style="fill:#FFFFFF;" d="M365.9,367.6c9.2-7,21.4-8.7,28.9-2.3c7.1,6.1,3,14.6-1.2,19.4c-9.9,11.3-21.6,21-32.3,31.7 c-2.4,2.4-5,5.9-5,8.9c0.1,14,1,28.1,1.6,43.1c-9.3-0.5-17.5-0.9-26.3-1.4c0.7-4.6,1.4-9,2-13.5c2.5-17.7-1.5-32.9-13.8-46.7 c-9.5-10.7-16.8-23.3-25-35c9.1-7.3,25.2-7.8,31.3-0.7c9,10.5,17.4,21.5,25.4,32.8c4.4,6.3,7.8,8.6,13.7,1.9 C377,392.7,377.9,382.9,365.9,367.6z"></path> <path style="fill:#FFFFFF;" d="M140.6,367.7c-4.8,11.4-9.6,23.4-15.2,35.2c-0.9,2-4.9,3.4-7.5,3.6c-8.8,0.4-17.7,0.2-27.6,0.2 c-0.3,4.2-0.9,7.9-0.8,11.5c0.2,9.2,0,18.4,1.1,27.4c0.7,5.4,2.2,12.9,5.9,15.2c7.5,4.7,21.9,0.3,25.7-5.6 c7.9-12.3,7.9-12.3,21.6-14c-0.9,8.4-1.8,17.3-2.7,26.1c-24.2,0-49.5,0-73,0c0-29.6,0.3-58.1-0.2-86.7c-0.2-10,3.9-13.2,13.2-13 C101.1,367.9,121,367.7,140.6,367.7z M133.8,371.7c-9.7,0-17.7,0-25.7,0c-19.9-0.1-19.9-0.2-17.7,19.5c0.7,5.9,2,12.4,9.2,11.9 c7.9-0.6,17.7-1.1,23-5.9C128.1,392.2,129.4,382.3,133.8,371.7z"></path> <path style="fill:#FFFFFF;" d="M687.5,365.2c0,31,0,60.8,0,90.6c0,13.8,0,13.7-13.4,12.8c-6.6-0.4-13.3-0.1-18.6-0.1 c0-4.3-0.1-8.3,0-12.3c0.6-17.9,1.4-35.9,1.7-53.8c0.1-6.6-1.7-13.2-1.6-19.8c0.1-12.1,3.1-14.8,15.1-15.6 C675.6,366.6,680.5,365.9,687.5,365.2z"></path> <path style="fill:#FFFFFF;" d="M421.6,499.4c0,32.8,0,64.8-0.1,96.7c0,1.8-1.1,5.3-1.6,5.3c-8.7,0-17.6,0.7-25.9-1.3 c-2.5-0.6-4.4-8.8-4.5-13.6c-0.5-17.7-0.6-35.3,0-53c0.3-8.7,2.2-17.4,4.2-25.9c0.6-2.4,3.7-5.5,6.1-6 C406.2,500.3,412.8,500.2,421.6,499.4z"></path> <path style="fill:#FFFFFF;" d="M871.8,601.5c0-29.7,0.1-57.3,0-84.8c-0.1-13,0.8-14.1,14.1-15.6c5.5-0.6,11-1.6,16-2.4 c0,15.9,0.2,31,0,46c-0.2,17.4-0.7,34.8-1.5,52.1c-0.1,2.1-3.1,5.8-4.8,5.8C887.3,602.8,879.1,601.9,871.8,601.5z"></path> <path style="fill:#FFFFFF;" d="M565.7,364.6c10.3,0.6,20.6,1.1,30.6,1.7c0,32.7,0,66.8,0,102c-9.5,0-19.4,0-27.9,0 c0-12.8-0.1-25.1,0-37.3c0.2-16.1,0.8-32.1,0.8-48.1c0-3.2-2.1-6.3-2.8-9.6C565.9,370.5,565.9,367.5,565.7,364.6L565.7,364.6z"></path> <path style="fill:#FFFFFF;" d="M954.1,499.7c0,34.1,0,67.2,0,101.8c-10.1,0-20,0-29.3,0c5.6-28.3,2.1-57.2,2.3-85.8 c0.1-10.5,3-15.2,13.8-14.4C944.9,501.7,949,500.4,954.1,499.7z"></path> <path style="fill:#FFFFFF;" d="M598.7,602.5c0-33.4,0-66.4,0-100.9c7.7-0.7,18.2-1.6,29-2.6c0,34.3,0,68.7,0,103.5 C619.1,602.5,608.9,602.5,598.7,602.5z"></path> <path style="fill:#FFFFFF;" d="M759,601.4c0-28.1-0.4-54.2,0.3-80.3c0.1-6.3,2.4-13.3,5.8-18.5c1.9-2.9,8.5-4.5,12.4-3.7 c2.8,0.6,6.6,6,6.6,9.4c0.5,31.1,0.3,62.2,0.3,95.3C774.7,602.7,766.3,602,759,601.4z"></path> <path style="fill:#FFFFFF;" d="M713.3,538.5c-0.8,1.9-2.2,3.8-2.2,5.7c-0.2,18.9-0.1,37.8-0.1,57c-7.5,0-16.5,0-24.8,0 c0-33.1,0-65.8,0-99.1c9.4-0.8,17.6-1.6,26.9-2.4c0,13.2,0,26.1,0,39C713.2,538.7,713.3,538.5,713.3,538.5z"></path> <path style="fill:#FFFFFF;" d="M664.9,523.9c-12.4,3.9-24.4-1.8-27.6-13.1c-1.5-5.4-0.8-9,5.7-9.5c2.8-0.2,5.7-0.4,8.3-1.2 c7.4-2.3,10.3,0.3,10.4,8C661.8,513.1,663.7,518.1,664.9,523.9z"></path> <path style="fill:#FFFFFF;" d="M628.3,365.8c1.7,9.3,3.1,17,4.6,24.7c-17.3,2.4-27.3-5.8-27.5-23C612.8,367,620.4,366.4,628.3,365.8 z"></path> <path style="fill:#FFFFFF;" d="M713.2,538.7c1-0.2,2.4-0.1,3-0.8c13.1-14.2,24.3-4.1,36.2,3c-4.4,5.2-8.7,10.3-13.1,15.5 c-8.6-6-17.2-11.9-25.8-17.9C713.3,538.5,713.2,538.7,713.2,538.7z"></path> <path style="fill:#FFFFFF;" d="M562.2,524.3c5.6-13.7,10-28,28.4-25.8C585.6,523.7,582.8,526.3,562.2,524.3z"></path> <path style="fill:#FFFFFF;" d="M565.7,364.6c-2.6,2.9-6.7,5.5-7.5,8.8c-4.2,17.1-6.6,19.1-25.1,17.4 C538.4,369.6,545.6,363.8,565.7,364.6C565.7,364.6,565.7,364.6,565.7,364.6z"></path> </svg> 