<?xml version="1.0" encoding="UTF-8"?> <!-- Generator: Adobe Illustrator 25.3.1, SVG Export Plug-In . SVG Version: 6.00 Build 0) --> <svg xmlns="http://www.w3.org/2000/svg" xmlns:xlink="http://www.w3.org/1999/xlink" version="1.1" id="Layer_1" x="0px" y="0px" viewBox="0 0 1000 1000" style="enable-background:new 0 0 1000 1000;" xml:space="preserve"> <path style="fill:#FFFFFF;" d="M32.1,526.8c0.9-4.2,1.8-8.4,2.5-12.6c0.6-3.5,2-5.3,6.1-5.2c9.7,0.3,19.4,0.1,29.2,0.1 c-0.5,6.4-1.8,12.3-1.2,18c0.4,3.6,2.9,9,5.5,9.7c4.2,1.2,10.2,0.5,13.8-1.9c9.7-6.5,10.1-22,1.3-29.6c-6.1-5.3-12.4-10.3-19.1-14.8 c-28.2-18.8-24.4-45.9-13.1-66.9c10.3-19.3,28.1-26.4,49.4-25.9c4.3,0.1,8.8,0,12.9,0.9c13.4,3.1,10.4,0.5,24.2,16.8 c1.1-4.7,2.1-9,3.4-14.5c22.3,0.7,44.8,0.6,67.2,2.4c14.8,1.2,24.3,10.5,28.2,26c2.6-6.3,5.8-12.4,7.7-19c2.1-7.3,6-9.4,13.4-8.9 c11.5,0.7,23.1,0.2,35.6,0.2c0.9,26.8,1.8,53.3,2.6,79.8c0.3,0.1,0.7,0.2,1,0.2c1.3-6.1,2.3-12.3,3.8-18.4 c2.3-8.9,4.7-17.9,7.4-26.7c7.7-25.3,32.2-41,62.8-38.7c6.3,0.5,12.8,1.6,18.7,3.8c12.4,4.6,18.5,14.5,21.7,27.3 c1.7-8.8,3.4-17.7,5.2-26.9c29.1,0,58.1,0,88.3,0c-1.8,9.6-3.4,19.1-5.6,28.3c-0.3,1.2-3.5,2.3-5.4,2.3c-13,0.2-26.1,0.4-39.1,0 c-5.4-0.2-7.1,1.8-7.7,6.9c-0.9,7.7-2.6,15.3-4.1,23.6c16,0,31,0,46.7,0c-2.1,11.2-4.1,21.6-6.1,32.3c-13.6,0-26.6,0.2-39.6-0.1 c-5-0.1-7.7,0.5-8.3,6.7c-0.9,9.5-3.3,18.9-5.2,29.1c17.3,0,33.6,0,50.6,0c-2.1,11.2-4.1,21.7-6.1,32.3c-29.4,0-58.3,0-88,0 c1.5-8.5,3-16.7,4.4-24.9c-10.2,15.9-24.1,26.1-42.9,28.3c-17.7,2.1-35.3,2.1-49.9-12.7c-0.2,3.4-0.4,6.1-0.6,9.2 c-12.2,0-24.3,0-36.8,0c0-9.9,0-19.7,0-30.5c-9.5,0-18.7-0.2-27.9,0.2c-1.3,0-2.9,2.6-3.5,4.2c-2.7,7.3-4.9,14.9-7.8,22.2 c-0.7,1.8-3.1,4.1-4.8,4.1c-11.1,0.4-22.3,0.2-34.5,0.2c9.7-24.1,19.1-47.6,29.2-72.9c-15.6,10.1-31.3,11.3-47.3,10.8 c-4-0.1-4.8,1.9-5.4,5c-2.9,16.6-6.1,33.2-8.9,49.8c-0.9,5.2-2.4,7.8-8.5,7.4c-10.1-0.6-20.2-0.2-30.8-0.2c0.7-4.8,1.4-9,2.2-14.2 c-1.7,1.2-2.7,1.7-3.6,2.5c-17.3,16.6-38.1,18.5-60,13.2c-13.2-3.2-20.5-12.4-22.2-25.9c-0.1-1-0.7-1.9-1-2.8 C32.1,533.4,32.1,530.1,32.1,526.8z M378.8,458.6c0-7.5,0.4-14.1-0.1-20.6c-0.5-6.5-4.2-9.3-10.8-9.6c-8.8-0.3-14.4,3.5-17.8,14.1 c-3,9.2-5.2,18.7-6.8,28.2c-3.1,17.6-6.2,35.3-8,53.1c-1.2,12.3,9.9,18.4,20.3,11.6c3.4-2.2,6.1-6.3,7.6-10.1 c2.3-5.9,3.9-12.2,4.9-18.5c0.7-4.9,2.9-6,7.4-5.8c8.1,0.3,16.1,0.2,24.2-0.1c1.7-0.1,4.5-1.7,4.8-3c2.7-12.8,5-25.8,7.5-39.3 C400.4,458.6,389.6,458.6,378.8,458.6z M110,449.3c0.2-4.8,1.2-8.6,0.4-12.1c-1-3.8-2.9-9.2-5.8-10.3c-3.4-1.3-9.2-0.1-12.4,2.2 c-9.5,6.9-9,19.1,0.5,26.9c12.4,10.2,27.4,17.4,37.7,32.1c2.5-13.7,4.8-25.9,7.2-38.9C128.1,449.3,119.3,449.3,110,449.3z M171.7,472c10.7-0.1,20.5-0.1,26-9.7c2.8-5,4.6-11,5.4-16.8c1.2-8.4-4.3-13.4-14.1-14.3c-10-0.9-10-0.9-11.6,10.2 c-0.1,1-0.5,2-0.7,3C175,453.4,173.4,462.4,171.7,472z M268.5,503.3c0.7-22.7,1.4-44.7,2-66.6c-0.5-0.1-0.9-0.1-1.4-0.2 c-7.5,22.1-15.1,44.2-22.8,66.8C254.1,503.3,260.8,503.3,268.5,503.3z"></path> <path style="fill:#FFFFFF;" d="M748.4,688.3c2.3-15.1,4.3-28.2,6.2-41.3c0.5-3.4,0.1-5.5-4.7-6.6c-28-6.3-46.5-23-53.9-51.2 c-0.4-1.4-0.8-2.7-1.3-4.1c-1.1-3.3-1.9-5.2-6.8-4.2c-11,2.2-22.4,2.9-33.6,4c-6.2,0.6-9.6-2.9-8.9-9.4c1.8-16.9,8.9-31.8,16.8-46.6 c4.5-8.3,10.8-10,19.2-9.8c12.4,0.2,24.8-0.1,37.1-0.6c2-0.1,4.5-1.5,5.7-3.1c11.3-15.7,22.2-31.6,33.4-47.4 c9.5-13.4,19-26.8,28.9-40c6.2-8.3,12-17.4,19.8-24.1c9.4-8,20.1-15.1,31.3-20.4c20.3-9.7,42.2-15.3,64.5-18.2 c18.5-2.4,37.3-4.8,56.1-1.9c11.7,1.8,16,7.2,17.5,19.8c3.1,26.5-0.1,52.2-6.9,77.9c-5.4,20.4-13,39.9-25.3,56.8 c-7.4,10.1-17,19-26.9,26.8c-13.7,10.8-28.6,20.1-43,30c-14.2,9.7-28.6,19.3-42.9,28.9c-2.9,1.9-5.8,3.9-8.6,5.9 c-4.6,3.2-6.4,6.5-5.9,13.1c1.1,13.4-0.2,27.1-1,40.6c-0.1,2.4-2.6,5.3-4.8,6.7c-13.4,8.7-27.8,15.6-43.5,18.7 C761.1,689.8,754.8,688.5,748.4,688.3z M815.2,473.7c0.5,24.3,19.9,51.1,49.9,50.4c27.7-0.6,47.3-20,48.1-48.2 c0.8-25.7-23.5-48.3-49.5-49.5C838.7,425.3,815.5,447.6,815.2,473.7z"></path> <path style="fill:#FFFFFF;" d="M534.4,538.7c9.2,0,17.4,0.2,25.6-0.2c1.6-0.1,3.6-2.4,4.6-4.2c4.8-8.6,9.4-17.3,15.4-25.7 c1.1,7.6,2.7,15.3,3.2,22.9c0.4,6,2.8,7.6,8.4,7.2c6.5-0.5,13.2-0.1,20.6-0.1c-0.3-2.3-0.4-4-0.8-5.7c-3.6-15.2-7.4-30.4-10.9-45.7 c-0.5-2-0.6-4.7,0.4-6.4c10-17.3,20.3-34.5,30.5-51.7c0.4-0.6,1.1-1,2.5-2.1c1.1,4.9,2,9,2.9,13.1c3.4,15.7,7.9,31.3,9.9,47.2 c1.1,8.6-1.8,17.8-3.2,26.7c-1.2,7.9-2.9,15.7-4.5,24.5c4.5,0,8.5,0,13.5,0c-3.1,8.3-5.7,15.6-8.9,22.7c-0.7,1.4-4,2.3-6.1,2.4 c-33.3,0.1-66.6,0-99.9-0.1c-9.1,0-18.1,0-28.4,0c10-54.4,19.9-108.2,29.9-162.4c64.2,0,128.3,0,193,0c-2.2,12-4.3,23.7-6.4,35.4 c-4.4,24.3-8.7,48.6-13.3,72.9c-0.4,2-2.2,5.1-3.6,5.2c-12.7,1.2-25.5,1.8-39,2.6c3-12.7,3.4-25,10.4-35.9 c10.3-16.2,19.5-33,29.1-49.6c0.9-1.5,1.6-3.2,2.9-5.9c-9.3,0-17.7-0.2-26.1,0.2c-1.5,0.1-3.4,2.7-4.3,4.5 c-4.9,9.5-9.5,19.1-15.5,28.5c-1.2-9.2-2.7-18.4-3.5-27.7c-0.4-4.3-1.8-5.6-6.1-5.5c-15.7,0.2-31.4,0.2-47.1,0 c-4-0.1-5.9,1.5-7.4,4.9c-4.2,8.9-8.7,17.6-14.4,26.3c-1.1-8.9-2.1-17.8-3.6-26.7c-0.3-1.7-2.7-4.2-4.2-4.3 c-7.4-0.5-14.8-0.2-23.4-0.2c1.6,8.3,3,15.8,4.5,23.3c2,9.9,4.3,19.7,5.9,29.7c0.5,2.7,0,6.1-1.4,8.5c-9.2,15.4-18.8,30.6-28.2,45.8 C536.6,534.5,535.9,536.1,534.4,538.7z"></path> <path style="fill:#FFFFFF;" d="M900.4,474c1.6,19-14.3,36.6-34.6,38.3c-21.5,1.7-39.6-13.7-41.7-33c-2.7-24.8,14.1-42.4,36.9-43.5 C880.1,434.8,899.5,447.2,900.4,474z"></path> </svg> 