<?xml version="1.0" encoding="UTF-8"?> <!-- Generator: Adobe Illustrator 25.0.1, SVG Export Plug-In . SVG Version: 6.00 Build 0) --> <svg xmlns="http://www.w3.org/2000/svg" xmlns:xlink="http://www.w3.org/1999/xlink" version="1.1" id="katman_1" x="0px" y="0px" viewBox="0 0 1000 1000" style="enable-background:new 0 0 1000 1000;" xml:space="preserve"> <style type="text/css"> .st0{fill:#FCFCFC;} .st1{fill:#FFFFFF;} </style> <path class="st0" d="M760,212.1c-53-49-260-49-260-49c-216.6-7.3-287,55.3-298.3,67.1c-1.1,1.2-2.3,2.3-3.5,3.5 c-39.1,39.1-3.2,266.4-3.2,266.4c21.6,236.3,58.8,290.4,68.6,300.8c1.7,1.8,3.3,3.6,4.9,5.4c36.4,42.1,212.5,48.8,212.5,48.8 c105.6,1.7,168-14.9,202.5-29.9c26-11.3,46.1-33,55.8-59.6c42-116,63.7-405.5,63.7-405.5C808,290.1,813,261.1,760,212.1z M759.8,327 c-1.8,9.6-6.7,23.1-7.8,26.2c-0.2,0.6-0.5,1.2-0.9,1.7c-1.4,2-5.6,6.3-15.4,7.8c-13,2-30.9,8.8-33.1,37c0,0.4-0.1,0.9-0.2,1.3 l-48,191.3c-0.1,0.3-0.2,0.5-0.2,0.8c-0.6,1.9-2.7,12.4,19.2,20.5l33.8,11.1c3.1,1,5.6,3.4,6.8,6.4c1.3,3.6,1.9,9.3-0.4,18.2 c-5,19.8-9,18.8-24.1,18.8c-14,0-127.4,0.8-143.8,1c-2,0-3.9-0.3-5.8-1c-3.5-1.3-8.6-4.3-12.3-10.9l-87.9-153.8 c-0.8-1.3-1.8-2.4-3.2-3.1c-0.9-0.4-2-0.8-3.4-0.8c-4,0-6,5-7,9.9c-0.9,4.6-12.9,72.2-14.8,82.9c-0.1,0.8-0.3,1.5-0.5,2.3 c-0.7,3-2.4,13.3,5.3,19.9c9,7.9,31.2,13.9,31.2,13.9s9,1,7,12.9c-1.1,6.6-2.2,12.3-3,16c-1.3,6.5-7,11.4-13.7,11.7 c-0.4,0-0.9,0-1.4,0c-11,0-151.2-0.8-176.9-1c-4.1,0-8-1.6-10.7-4.7c-1.6-1.9-2.8-4.3-2.4-7.3c1-7.8-1.9-25.2,17.1-26.7 c0.6,0,1.3,0,1.9,0c4,0.3,20.2,0.7,27.3-8c8-9.9,11.1-18.8,15.1-35.7L341.8,418c0,0,8-32.7-33.2-46.6l-39.2-11.9c0,0-8-2-6-12.9 c1.5-8.2,4.7-18,6.2-22.5c1.2-3.4,3.5-6.3,6.8-7.9c2.1-1,4.8-1.7,8.1-1.4H449c0.2,0,0.4,0,0.6,0c2.3-0.2,18.4-0.7,29.6,15.5 c0.2,0.3,0.3,0.5,0.5,0.8l82.8,154.5c3.5,6.6,13.5,5.2,15-2.1l19.5-92.9c0.1-0.3,0.1-0.5,0.2-0.8c0.8-2.7,6-21.6-17.3-29.1 c-0.6-0.2-1.2-0.3-1.8-0.4c-4-0.3-20-2.3-18.2-11.8l5-22.8c0,0,2-10.9,13.1-10.9h171.4c1.9,0,3.8,0.3,5.5,1.2 C757.7,317.6,760.9,320.6,759.8,327z"></path> <g> <path class="st1" d="M486.8,922.8c-18,0-35.9-0.6-53.6-1.7c-47.5-3.1-90.8-10.3-125.3-20.9c-39.9-12.3-68.4-28.9-84.8-49.6 c-4.4-5-52.1-62.2-69.2-188.6c-0.9-6.9-2.1-14.1-3.7-23.5c-9.9-55-41.5-241.6-33.9-330.7c0.7-7.9,1-15.7,1.2-22.4 c0.8-34.1,15.6-146.8,171.8-163.8c8.2-1.3,134.7-20.6,205.8-21.7c6.9-0.1,30-0.1,37.4,0.1c55.4,1.3,240.2,11,294.7,83.1 c1.1,1.4,2.2,2.8,3.3,4.2c1.1,1.5,2.3,2.9,3.4,4.4c6,7.6,17.1,24.5,25.2,53.7c9.8,35.3,12.4,77.4,7.6,125.2 c-1.1,11.9-27.8,293.2-44.4,349c-2.4,7.9-4.2,16.8-6.2,26.3c-10.2,48.8-24.1,115.7-131.9,151C633.9,913.5,560.5,922.8,486.8,922.8z M509.8,121.9c-6.1,0-11.8,0-14.5,0.1c-70.4,1.1-201.7,21.3-203,21.5l-0.5,0.1c-59.5,6.5-102.5,28.4-127.9,65.1 c-20.4,29.6-24.1,61.2-24.5,77.4c-0.2,7-0.5,15.3-1.2,23.7c-1.9,21.8-4.9,109.8,33.7,325c1.7,9.7,2.9,17.2,3.9,24.3 c8.7,64,25.6,108.8,38.3,135.1c13.7,28.4,25.6,42,25.7,42.1l0.4,0.5c26.2,33.3,97.1,56,194.4,62.3c87.5,5.7,182.7-3.4,242.5-23 c95.7-31.4,107.2-86.2,117.2-134.6c2.1-9.9,4-19.3,6.6-28.1c16-53.8,43.3-342,43.6-344.9c10.5-105.1-19-151.5-28.3-163.2l-0.1-0.2 c-1.1-1.4-2.2-2.8-3.3-4.3c-1.1-1.5-2.3-3-3.4-4.4c-19.9-26.3-66.8-47.1-135.7-60.1c-59.9-11.3-119.2-13.7-141.9-14.3l-0.1,0 C527.7,122,518.3,121.9,509.8,121.9z"></path> </g> </svg> 