<?xml version="1.0" encoding="UTF-8"?> <!-- Generator: Adobe Illustrator 22.0.0, SVG Export Plug-In . SVG Version: 6.00 Build 0) --> <svg xmlns="http://www.w3.org/2000/svg" xmlns:xlink="http://www.w3.org/1999/xlink" version="1.1" id="Layer_1" x="0px" y="0px" viewBox="0 0 100 100" style="enable-background:new 0 0 100 100;" xml:space="preserve"> <g> <path style="fill:#FFFFFF;" d="M60.7,47.1c1.1-1.4,2.1-2.8,3.1-4.2h16.7l6.5-8.4H69.6c3.8-6.1,5.4-10.2,4.3-11.1 c-0.2-0.2-0.7-0.2-1.2-0.1c-1.3,0.4-2.9,1.5-4,2.4c-1.1,0.8-2.4,1.9-3.9,3.2c-3.2,2.8-3,2.7-0.2,0.3c1.6-1.3,2.9-2.3,3.8-2.7 c0.3-0.1,0.5-0.2,0.8-0.3c0.3-0.1,0.6-0.1,0.7,0.1c0.8,0.6-0.7,3.7-3.7,8.3c-3.5,5.3-9.1,12.6-15.7,20.4l-0.5,0.6 c-3.6,4.2-7.1,8.2-10.4,11.5h20.9V55.2h18.4l6.1-7.9H60.7L60.7,47.1L60.7,47.1z"></path> <path style="fill:#FFFFFF;" d="M50.7,48.1c0.4-0.6,0.7-1.2,1-2c0.3-0.7,0.4-1.6,0.4-2.6c0-1.5-0.3-2.8-0.9-3.9 c-0.6-1.1-1.5-2.1-2.6-2.8c-1.1-0.8-2.5-1.3-4-1.7c-1.6-0.4-3.3-0.6-5.3-0.6l-21.8,0L11,43l28.8,0c0.7,0,1.4,0.2,1.9,0.5 c0.6,0.3,0.9,0.8,0.9,1.6c0,0.8-0.3,1.4-0.8,1.7c-0.6,0.3-1.2,0.5-2,0.5h-7.9v0H11v19.8h20.9v0h1.9c-0.6,0.6-1.2,1.2-1.9,2v0 c-2.7,2.7-6.2,6.1-9,7.6c-0.3,0.1-0.5,0.3-0.7,0.3c-0.5,0.2-0.9,0.2-1.1,0.1c-1.2-1,3.7-7.4,3.7-7.4c-3.6,3.9-7.5,10.3-5.9,11.6 c0.3,0.3,0.8,0.2,1.6-0.1c0.7-0.3,1.5-0.7,2.4-1.4c0.4-0.3,0.8-0.5,1.2-0.8c2.1-1.6,4.7-3.8,7.8-6.5v0c1.8-1.6,3.7-3.5,5.7-5.5 c3.7-3.7,7.8-8,11.7-12.6c0.6-0.7,1.1-1.3,1.6-2c-0.2-0.2-0.3-0.3-0.5-0.5c-0.6-0.6-1.2-1-1.9-1.3c-0.3-0.1-0.6-0.3-1-0.4 c0.6-0.2,1.1-0.5,1.6-0.8C49.8,49.1,50.3,48.6,50.7,48.1z M42,58.1c-0.5,0.4-1.3,0.6-2.4,0.6h-7.7v0H21.1v-4.5h10.8v0h7.7 c1.1,0,1.9,0.2,2.4,0.6c0.5,0.4,0.7,0.9,0.7,1.6C42.7,57.2,42.5,57.8,42,58.1z"></path> </g> </svg> 