<?xml version="1.0" encoding="UTF-8"?> <!-- Generator: Adobe Illustrator 24.1.2, SVG Export Plug-In . SVG Version: 6.00 Build 0) --> <svg xmlns="http://www.w3.org/2000/svg" xmlns:xlink="http://www.w3.org/1999/xlink" version="1.1" id="Layer_1" x="0px" y="0px" viewBox="0 0 100 100" style="enable-background:new 0 0 100 100;" xml:space="preserve"> <g> <path style="fill:#FFFFFF;" d="M93.8,56.3V27.8c2.2-0.8,3.5-3,3.1-5.2c-0.4-2.3-2.3-3.9-4.6-3.9c-2.3,0-4.2,1.6-4.6,3.9 c-0.4,2.3,0.9,4.5,3.1,5.2v22.3c-1.3-1-3-1.6-4.7-1.6h-1.6V32.8C84.4,16.4,71.1,3.1,54.7,3h-9.4c-16.4,0-29.7,13.3-29.8,29.8v29.4 L3.2,85.3c0,0,0,0.1,0,0.1c0,0,0,0.1,0,0.1C3.1,85.7,3,85.8,3,86c0,0,0,0,0,0v6.3C3,94.9,5.1,97,7.7,97h84.6c2.6,0,4.7-2.1,4.7-4.7 V86c0,0,0,0,0,0c0-0.2,0-0.3-0.1-0.5c0,0,0-0.1,0-0.1c0,0,0-0.1,0-0.1L85.5,64.1H86C90.3,64.1,93.8,60.6,93.8,56.3L93.8,56.3z M92.3,21.8c0.9,0,1.6,0.7,1.6,1.6c0,0.9-0.7,1.6-1.6,1.6c-0.9,0-1.6-0.7-1.6-1.6C90.7,22.5,91.4,21.8,92.3,21.8L92.3,21.8z M18.7,32.8c0-14.7,11.9-26.6,26.6-26.6h9.4c14.7,0,26.6,11.9,26.6,26.6v15.7H65.7V21.5c0-2.4-2-4.4-4.4-4.4H38.7 c-2.4,0-4.4,2-4.4,4.4v26.9H18.7V32.8z M62.5,21.5v26.9H37.5V21.5c0-0.7,0.6-1.3,1.3-1.3h22.5C62,20.3,62.5,20.8,62.5,21.5 L62.5,21.5z M18.7,51.6h62.6V61H18.7V51.6z M93.8,92.3c0,0.9-0.7,1.6-1.6,1.6H7.7c-0.9,0-1.6-0.7-1.6-1.6v-4.7h87.7V92.3z M92.8,84.5H7.2l10.9-20.4h63.9L92.8,84.5z M84.5,61v-9.4H86c2.6,0,4.7,2.1,4.7,4.7c0,2.6-2.1,4.7-4.7,4.7H84.5z M84.5,61"></path> <path style="fill:#FFFFFF;" d="M26.5,70.4h-6.3c-2.6,0-4.7,2.1-4.7,4.7c0,2.6,2.1,4.7,4.7,4.7h6.3c2.6,0,4.7-2.1,4.7-4.7 C31.2,72.5,29.1,70.4,26.5,70.4L26.5,70.4z M26.5,76.6h-6.3c-0.9,0-1.6-0.7-1.6-1.6c0-0.9,0.7-1.6,1.6-1.6h6.3 c0.9,0,1.6,0.7,1.6,1.6C28.1,75.9,27.4,76.6,26.5,76.6L26.5,76.6z M26.5,76.6"></path> <path style="fill:#FFFFFF;" d="M46.9,70.4h-6.3c-2.6,0-4.7,2.1-4.7,4.7c0,2.6,2.1,4.7,4.7,4.7h6.3c2.6,0,4.7-2.1,4.7-4.7 C51.6,72.5,49.5,70.4,46.9,70.4L46.9,70.4z M46.9,76.6h-6.3c-0.9,0-1.6-0.7-1.6-1.6c0-0.9,0.7-1.6,1.6-1.6h6.3 c0.9,0,1.6,0.7,1.6,1.6C48.4,75.9,47.7,76.6,46.9,76.6L46.9,76.6z M46.9,76.6"></path> <path style="fill:#FFFFFF;" d="M67.2,70.4H61c-2.6,0-4.7,2.1-4.7,4.7c0,2.6,2.1,4.7,4.7,4.7h6.3c2.6,0,4.7-2.1,4.7-4.7 C71.9,72.5,69.8,70.4,67.2,70.4L67.2,70.4z M67.2,76.6H61c-0.9,0-1.6-0.7-1.6-1.6c0-0.9,0.7-1.6,1.6-1.6h6.3c0.9,0,1.6,0.7,1.6,1.6 C68.8,75.9,68.1,76.6,67.2,76.6L67.2,76.6z M67.2,76.6"></path> <path style="fill:#FFFFFF;" d="M75.1,75.1c0,2.6,2.1,4.7,4.7,4.7c2.6,0,4.7-2.1,4.7-4.7c0-2.6-2.1-4.7-4.7-4.7 C77.2,70.4,75.1,72.5,75.1,75.1L75.1,75.1z M81.3,75.1c0,0.9-0.7,1.6-1.6,1.6c-0.9,0-1.6-0.7-1.6-1.6c0-0.9,0.7-1.6,1.6-1.6 C80.6,73.5,81.3,74.2,81.3,75.1L81.3,75.1z M81.3,75.1"></path> <path style="fill:#FFFFFF;" d="M26.5,56.3c0,0.9-0.7,1.6-1.6,1.6c-0.9,0-1.6-0.7-1.6-1.6c0-0.9,0.7-1.6,1.6-1.6 C25.8,54.7,26.5,55.4,26.5,56.3L26.5,56.3z M26.5,56.3"></path> <path style="fill:#FFFFFF;" d="M32.8,56.3c0,0.9-0.7,1.6-1.6,1.6c-0.9,0-1.6-0.7-1.6-1.6c0-0.9,0.7-1.6,1.6-1.6 C32.1,54.7,32.8,55.4,32.8,56.3L32.8,56.3z M32.8,56.3"></path> <path style="fill:#FFFFFF;" d="M39,56.3c0,0.9-0.7,1.6-1.6,1.6c-0.9,0-1.6-0.7-1.6-1.6c0-0.9,0.7-1.6,1.6-1.6 C38.3,54.7,39,55.4,39,56.3L39,56.3z M39,56.3"></path> <path style="fill:#FFFFFF;" d="M45.3,56.3c0,0.9-0.7,1.6-1.6,1.6c-0.9,0-1.6-0.7-1.6-1.6c0-0.9,0.7-1.6,1.6-1.6 C44.6,54.7,45.3,55.4,45.3,56.3L45.3,56.3z M45.3,56.3"></path> <path style="fill:#FFFFFF;" d="M51.6,56.3c0,0.9-0.7,1.6-1.6,1.6c-0.9,0-1.6-0.7-1.6-1.6c0-0.9,0.7-1.6,1.6-1.6 C50.9,54.7,51.6,55.4,51.6,56.3L51.6,56.3z M51.6,56.3"></path> <path style="fill:#FFFFFF;" d="M57.8,56.3c0,0.9-0.7,1.6-1.6,1.6c-0.9,0-1.6-0.7-1.6-1.6c0-0.9,0.7-1.6,1.6-1.6 C57.1,54.7,57.8,55.4,57.8,56.3L57.8,56.3z M57.8,56.3"></path> <path style="fill:#FFFFFF;" d="M64.1,56.3c0,0.9-0.7,1.6-1.6,1.6c-0.9,0-1.6-0.7-1.6-1.6c0-0.9,0.7-1.6,1.6-1.6 C63.4,54.7,64.1,55.4,64.1,56.3L64.1,56.3z M64.1,56.3"></path> <path style="fill:#FFFFFF;" d="M70.4,56.3c0,0.9-0.7,1.6-1.6,1.6c-0.9,0-1.6-0.7-1.6-1.6c0-0.9,0.7-1.6,1.6-1.6 C69.7,54.7,70.4,55.4,70.4,56.3L70.4,56.3z M70.4,56.3"></path> <path style="fill:#FFFFFF;" d="M76.6,56.3c0,0.9-0.7,1.6-1.6,1.6c-0.9,0-1.6-0.7-1.6-1.6c0-0.9,0.7-1.6,1.6-1.6 C75.9,54.7,76.6,55.4,76.6,56.3L76.6,56.3z M76.6,56.3"></path> <path style="fill:#FFFFFF;" d="M73.5,45.3c1.9,0,3.5-1.1,4.3-2.8c0.8-1.7,0.4-3.7-0.8-5c1.6-1.8,1.6-4.5,0-6.3 c1.7-1.9,1.6-4.8-0.2-6.5c-1.8-1.8-4.7-1.8-6.5,0c-1.8,1.8-1.9,4.7-0.2,6.5c-1.6,1.8-1.6,4.5,0,6.3c-1.3,1.4-1.6,3.4-0.8,5 C69.9,44.2,71.6,45.3,73.5,45.3L73.5,45.3z M73.5,26.5c0.9,0,1.6,0.7,1.6,1.6c0,0.9-0.7,1.6-1.6,1.6c-0.9,0-1.6-0.7-1.6-1.6 C71.9,27.2,72.6,26.5,73.5,26.5L73.5,26.5z M73.5,32.8c0.9,0,1.6,0.7,1.6,1.6c0,0.9-0.7,1.6-1.6,1.6c-0.9,0-1.6-0.7-1.6-1.6 C71.9,33.5,72.6,32.8,73.5,32.8L73.5,32.8z M73.5,39.1c0.9,0,1.6,0.7,1.6,1.6c0,0.9-0.7,1.6-1.6,1.6c-0.9,0-1.6-0.7-1.6-1.6 C71.9,39.8,72.6,39.1,73.5,39.1L73.5,39.1z M73.5,39.1"></path> <path style="fill:#FFFFFF;" d="M26.5,23.4c-1.9,0-3.5,1.1-4.3,2.8c-0.8,1.7-0.4,3.7,0.8,5.1c-1.6,1.8-1.6,4.5,0,6.3 c-1.7,1.9-1.6,4.8,0.2,6.5c1.8,1.8,4.7,1.8,6.5,0c1.8-1.8,1.9-4.7,0.2-6.5c1.6-1.8,1.6-4.5,0-6.3c1.3-1.4,1.6-3.4,0.8-5.1 C30.1,24.5,28.4,23.4,26.5,23.4L26.5,23.4z M26.5,42.2c-0.9,0-1.6-0.7-1.6-1.6c0-0.9,0.7-1.6,1.6-1.6c0.9,0,1.6,0.7,1.6,1.6 C28.1,41.5,27.4,42.2,26.5,42.2L26.5,42.2z M26.5,35.9c-0.9,0-1.6-0.7-1.6-1.6c0-0.9,0.7-1.6,1.6-1.6c0.9,0,1.6,0.7,1.6,1.6 C28.1,35.2,27.4,35.9,26.5,35.9L26.5,35.9z M26.5,29.7c-0.9,0-1.6-0.7-1.6-1.6c0-0.9,0.7-1.6,1.6-1.6c0.9,0,1.6,0.7,1.6,1.6 C28.1,29,27.4,29.7,26.5,29.7L26.5,29.7z M26.5,29.7"></path> <path style="fill:#FFFFFF;" d="M53.1,31.2c-1.1,0-2.2,0.4-3.1,1c-0.3,0.2-0.6,0.3-0.9,0.4c-0.2-0.5-0.3-1-0.1-1.6 c0.5-1.8,2.2-3.1,4.1-3c0.4,0,0.8-0.2,1.1-0.5c0.3-0.3,0.5-0.7,0.4-1.1c0-0.9-0.7-1.6-1.6-1.6c-3.3,0-6.3,2.2-7.1,5.4 c-0.2,0.9-0.2,1.8,0,2.7c-2.2,0.3-3.8,2.2-3.8,4.4c0,3.2,3.8,6.3,7.8,6.3c3.9,0,7.8-2.2,7.8-6.3C57.8,33.3,56.2,31.2,53.1,31.2 L53.1,31.2z M50,40.6c-2.4,0-4.7-1.8-4.7-3.1c0-0.4,0-1.6,3.1-1.6c1.1,0,2.2-0.4,3.2-1c0.4-0.3,1-0.5,1.5-0.6 c1.1,0,1.6,0.5,1.6,3.1C54.7,40,51.6,40.6,50,40.6L50,40.6z M50,40.6"></path> </g> </svg> 