<?xml version="1.0" encoding="UTF-8"?> <!-- Generator: Adobe Illustrator 25.0.1, SVG Export Plug-In . SVG Version: 6.00 Build 0) --> <svg xmlns="http://www.w3.org/2000/svg" xmlns:xlink="http://www.w3.org/1999/xlink" version="1.1" id="Layer_1" x="0px" y="0px" viewBox="0 0 222.5 150" style="enable-background:new 0 0 222.5 150;" xml:space="preserve"> <path style="fill:#FFFFFF;" d="M95.4,61.3c0,0.8,0.1,1.6,0.1,2.4c0,22.8,0,45.5,0,68.3c0,3.1-0.2,3.3-3.1,2.5c-3.5-1-6.9-2.2-9-5.5 c-0.9-1.5-1.7-3.2-2.1-4.9c-0.5-2.3-0.8-4.7-0.8-7c-0.1-17.6,0-35.3,0-52.9c0-1,0.2-1.9,0.4-2.9C85.7,61.3,90.5,61.3,95.4,61.3z"></path> <path style="fill:#FFFFFF;" d="M38.9,132.6c-0.1,1-0.1,1.7-0.1,2.3c0,3,0,6.1,0,9.1c0,1.8-0.2,2-1.9,2c-3.8,0-7.6,0-11.4,0 c-1.6,0-1.7-0.2-1.7-1.7c0-0.4,0-0.7,0-1.1c0-18.9,0-37.8,0-56.6c0-2.6,0-2.6,2.5-3.2c7.2-1.7,14.6-2.6,22-2.1 c12,0.9,20.8,8.1,22.9,20.6c1,6.2,0.6,12.3-1.5,18.3c-3.1,8.9-10.5,14.2-19.9,14.3C46.1,134.6,42.7,134,38.9,132.6z M56.2,108.4 c0.2-2.4-0.1-5-1.1-7.4c-1.3-2.9-3.1-5.4-6.3-6.4c-2.8-0.8-5.6-0.6-8.5-0.4c-1.1,0.1-1.6,0.7-1.6,1.8c0,7.5,0,15,0,22.4 c0,1.2,0.5,1.8,1.5,2.3c2.2,0.9,4.5,1.2,6.9,1.1c3.5-0.1,6-1.7,7.6-4.8C56.1,114.3,56.3,111.5,56.2,108.4z"></path> <path style="fill:#FFFFFF;" d="M133.9,99.5c-0.2-2.9-2-5-4.9-5.4c-3-0.4-6.1-0.5-9.1-0.3c-2.5,0.2-5,0.9-7.5,1.4 c-1.4,0.3-1.6,0.2-1.8-1.3c-0.5-2.9-0.9-5.7-1.3-8.6c-0.3-1.7-0.1-2,1.5-2.3c2.7-0.6,5.5-1.1,8.2-1.5c5-0.7,10-0.9,15,0.2 c3.2,0.7,6.2,1.8,8.8,3.9c2,1.7,3.5,3.7,4.4,6.1c1,2.7,1.5,5.6,1.6,8.5c0.1,10,0.2,19.9,0.3,29.9c0,2.3-0.1,2.4-2.2,2.9 c-7.4,1.5-14.9,2.4-22.5,2c-3.9-0.2-7.7-0.9-11.2-2.6c-5.6-2.7-8.3-7.4-8.8-13.5c-0.3-3.4,0-6.8,1.7-9.9c1.9-3.6,5-6,8.7-7.4 c3.2-1.2,6.5-1.9,10-2c2.4,0,4.8,0,7.2,0C132.5,99.5,133.1,99.5,133.9,99.5z M134.4,116.4C134.4,116.4,134.4,116.4,134.4,116.4 c0-1.5,0-3.1,0-4.6c0-0.6-0.1-1.3-0.9-1.4c-3.4-0.1-6.8-0.5-10.1,1c-2.4,1.1-3.3,2.7-3.1,5.7c0.1,2.4,1.2,3.8,3.6,4.6 c3.1,1.1,6.2,0.8,9.4,0.7c0.8,0,1-0.5,1-1.2C134.4,119.6,134.4,118,134.4,116.4z"></path> <path style="fill:#FFFFFF;" d="M75.2,56.3c0.4,2.3,0.8,4.3,1.2,6.4c0.2,1.2,0.4,2.4,0.6,3.7c0.3,1.6,0.2,1.9-1.3,2.3 c-3.2,0.8-6.4,1.7-9.6,2.1c-2.9,0.4-5.8,0.5-8.7,0.4c-4.8-0.1-9.5-1.2-13.7-3.7c-5.4-3.2-8.9-7.8-10.4-13.9 c-1.5-5.9-1.7-11.9,0-17.8c2.7-9.4,8.6-15.6,18.3-17.8c5.5-1.3,10.9-0.7,16,1.7c6.6,3,10.3,8.4,11.8,15.5c0.8,3.8,0.9,7.7,0.8,11.6 c-0.1,2.2-0.4,2.5-2.7,2.5c-9.2,0-18.5,0-27.7,0c-2.6,0-2.8,0.5-1.7,2.8c1.6,3.6,4.7,5.2,8.3,6c4.7,1,9.4,0.5,14-0.5 C71.8,57.2,73.3,56.8,75.2,56.3z M56.6,39.2C56.6,39.2,56.6,39.2,56.6,39.2c0.2,0,0.5,0,0.7,0c2.4,0,4.7,0,7.1,0 c0.8,0,1.6,0,1.5-1.1c-0.4-3.6-2.4-6.9-5.9-8c-5.8-1.9-11.2,1.4-12.4,7.5c-0.3,1.3,0,1.6,1.4,1.7C51.5,39.2,54.1,39.2,56.6,39.2z"></path> <path style="fill:#FFFFFF;" d="M136.2,44.2c0-5.6,1.2-10.9,4.2-15.6c4.1-6.4,10.1-10,17.7-11c2.9-0.4,5.8-0.3,8.7,0.3 c9,1.9,15.3,7.3,18.2,16.1c2.6,8.2,2.4,16.4-1.4,24.2c-3.3,7-9,11-16.6,12.5c-5.9,1.1-11.7,0.6-17.2-2.1c-5.6-2.8-9.3-7.3-11.5-13.1 c-0.6-1.5-1.1-3.1-1.3-4.6C136.5,48.7,136.4,46.5,136.2,44.2z M171.4,43.9c0.2-2.8-0.3-5.6-1.5-8.3c-1.5-3.5-4.3-5.5-8.1-5.6 c-3.5-0.1-6.7,1.2-8.3,4.5c-0.9,1.8-1.6,3.8-1.9,5.7c-0.6,4.2-0.6,8.5,1.3,12.5c1.8,4,4.7,5.8,9.1,5.7c4.1-0.1,6.6-2.4,8.1-6 C171.1,49.8,171.5,47,171.4,43.9z"></path> <path style="fill:#FFFFFF;" d="M165.7,146.1c0.4-0.9,0.6-1.4,0.8-1.9c1.9-3.9,3.8-7.8,5.8-11.6c0.5-1,0.3-1.8-0.2-2.8 c-3.4-7.6-7.1-15.2-10.1-22.9c-2.9-7.3-5.1-14.8-7.7-22.3c-0.2-0.6-0.2-1.2-0.4-2c0.7-0.1,1.2-0.2,1.8-0.2c4,0,7.9,0,11.9,0 c1.9,0,1.8,0.1,2.4,1.9c2.9,9.1,5.8,18.3,8.8,27.4c0.2,0.7,0.6,1.4,1,2.5c0.4-0.8,0.7-1.2,0.8-1.6c3.3-9.1,6.3-18.4,8.7-27.8 c0.6-2.3,0.6-2.3,2.8-2.3c3.6,0,7.2,0,10.8,0c0.7,0,1.3,0.1,2.2,0.2c-0.1,0.8-0.2,1.4-0.4,1.9c-3.4,11.3-7,22.5-11.6,33.3 c-3.6,8.5-7.6,16.8-11.4,25.2c-0.2,0.3-0.3,0.7-0.5,1c-0.7,1.5-1.7,2.2-3.5,2.1c-3.3-0.2-6.6,0-9.9,0 C167.5,146.1,166.8,146.1,165.7,146.1z"></path> <path style="fill:#FFFFFF;" d="M109.1,51.2c0.5-1.3,1.1-2.6,1.5-3.9c2.8-8.9,5.6-17.8,8.4-26.8c0.3-0.9,0.5-1.8,1.8-1.7 c4.2,0,8.4,0,12.7,0c0.3,0,0.6,0.1,1.1,0.3c-0.6,2-1.1,4-1.7,5.9c-3.1,9.8-6.5,19.5-10.6,29c-2,4.7-4.3,9.3-6.4,14 c-0.6,1.3-1.4,1.9-2.9,1.8c-2.8-0.1-5.6-0.1-8.4,0c-1.5,0-2.3-0.5-2.9-1.8c-3.1-7.3-6.6-14.4-9.4-21.8c-3.2-8.3-5.9-16.8-8.8-25.3 c-0.2-0.6-0.3-1.2-0.4-2c0.8,0,1.5-0.1,2.2-0.1c3.6,0,7.2,0,10.8,0c2.4,0,2.3,0,3.1,2.3c2.8,9,5.6,18.1,8.5,27.1c0.3,1,0.8,2,1.2,3 C108.8,51.2,108.9,51.2,109.1,51.2z"></path> </svg> 