<?xml version="1.0" encoding="UTF-8"?> <!-- Generator: Adobe Illustrator 24.1.2, SVG Export Plug-In . SVG Version: 6.00 Build 0) --> <svg xmlns="http://www.w3.org/2000/svg" xmlns:xlink="http://www.w3.org/1999/xlink" version="1.1" id="Layer_1" x="0px" y="0px" viewBox="0 0 100 100" style="enable-background:new 0 0 100 100;" xml:space="preserve"> <style type="text/css"> .st0{fill:#FFFFFF;} </style> <g> <path class="st0" d="M53.7,35.4l0.1-0.6l0.6,0.2c0.1,0,5.9,1.6,8.8-1c2.8-2.5,3.8-8.4,0.2-14.3C59.9,13.9,51.6,8.1,50,7 c-1.6,1.1-9.9,7-13.4,12.6c-3.6,5.9-2.6,11.8,0.2,14.3c2.9,2.6,8.8,1,8.8,1l0.6-0.2l0.1,0.6c0,0.1,0.3,3.5-2.2,6.2 c-2,2.2-5.3,3.3-9.6,3.3v2c4.9,0,8.7-1.3,11.1-4c3-3.3,2.7-7.2,2.7-7.7l-0.3-2.9L45.3,33c-1.3,0.3-5.2,1-7-0.6 c-2.2-2-2.9-6.8,0.1-11.8c2.7-4.5,8.9-9.2,11.7-11.2c2.8,2,8.9,6.7,11.7,11.2c3.1,5,2.4,9.8,0.1,11.8c-1.7,1.6-5.7,1-7,0.6L52,32.2 l-0.3,3c0,0.4-0.3,4.4,2.7,7.7c2.4,2.6,6.2,4,11.1,4v-2c-4.4,0-7.6-1.1-9.6-3.3C53.4,38.8,53.7,35.5,53.7,35.4z"></path> <path class="st0" d="M65.1,36.1c3.8-3.4,5.3-10.7,0.8-18.1C61.8,11.2,51.8,4.5,51.4,4.3L50,3.3l-1.4,0.9 C48.2,4.5,38.2,11.2,34.1,18c-4.5,7.4-3,14.7,0.8,18.1c2.3,2,5.4,2.4,7.9,2.3c-0.2,0.4-0.5,0.8-0.8,1.2c-1.4,1.6-3.9,2.3-7.3,2.3v2 c4,0,7-1,8.9-3c1.6-1.7,1.9-3.8,1.9-4.8c-1.7,0.3-6.4,1-9.1-1.4c-3.2-2.9-4.4-9.1-0.4-15.6c3.9-6.4,13.5-12.8,13.9-13.1l0.3-0.2 l0.3,0.2c0.4,0.3,10,6.7,13.9,13.1c3.9,6.5,2.8,12.7-0.4,15.6c-2.7,2.4-7.4,1.8-9.1,1.4c0,1,0.3,3.1,1.9,4.8c1.8,2,4.8,3,8.9,3v-2 c-3.4,0-5.9-0.8-7.3-2.3c-0.3-0.4-0.6-0.8-0.8-1.2C59.7,38.5,62.8,38.2,65.1,36.1z"></path> </g> <g> <path class="st0" d="M24.8,58.5c-1.5-1.1-2.5-1.9-3-2.3c-0.2-0.2-0.5-0.6-0.9-0.9c-0.3-0.4-0.5-0.9-0.5-1.6c0-0.8,0.2-1.5,0.7-2 s1.2-0.7,2-0.7c1.8,0,2.9,1.1,3.2,3.3h0.7V51c0-0.1,0-0.2-0.1-0.3c-0.3-0.4-1.5-0.6-3.5-0.6c-1.5,0-2.8,0.4-3.8,1.1 c-1.2,0.8-1.8,1.9-1.8,3.4c0,0.9,0.2,1.6,0.7,2.2c0.4,0.6,1.3,1.3,2.5,2.2c1.9,1.3,3.1,2.3,3.7,3.1c0.6,0.7,0.9,1.5,0.9,2.4 c0,1-0.3,1.7-1,2.4c-0.6,0.6-1.5,0.9-2.5,0.9c-1.4,0-2.5-0.6-3.3-1.7c-0.3-0.5-0.5-1.2-0.7-2.3h-0.6v3.6c0,0.3,0.1,0.4,0.3,0.5 c0.3,0.2,1,0.3,1.8,0.5c0.9,0.1,1.7,0.2,2.4,0.2c1.9,0,3.4-0.4,4.5-1.4c1.2-0.9,1.7-2.1,1.7-3.6c0-0.9-0.3-1.8-0.8-2.5 C27.1,60.4,26.1,59.6,24.8,58.5z"></path> <path class="st0" d="M38,55.2c-1.8,0-3.3,0.7-4.4,2.1v-2.1c-1.1,0.6-2.6,1-4.3,1.1v0.6h0.6c0.5,0,0.9,0.1,1.1,0.2 c0.2,0.1,0.3,0.5,0.3,1v13.3c0,1.1-0.1,1.8-0.3,2c-0.2,0.2-0.8,0.4-1.8,0.5v0.7h7V74c-1.3-0.1-2-0.3-2.3-0.5 c-0.2-0.2-0.3-0.9-0.3-2V68c1,0.4,1.9,0.6,2.9,0.6c1.9,0,3.5-0.7,4.8-2.1c1.3-1.4,1.9-3.1,1.9-5.3c0-1.8-0.5-3.3-1.4-4.4 C40.9,55.8,39.6,55.2,38,55.2z M39.6,66.2c-0.7,1-1.8,1.6-3.1,1.6c-1,0-2-0.4-2.9-1.2V62c0-1.4,0.1-2.4,0.2-3 c0.4-1.7,1.4-2.6,3-2.6c1.2,0,2.1,0.5,2.8,1.4s1,2.2,1,3.9C40.7,63.7,40.4,65.1,39.6,66.2z"></path> <path class="st0" d="M54.9,66.9c-0.3,0-0.6-0.1-0.7-0.4C54.1,66.2,54,65.7,54,65v-5.7c0-1.4-0.3-2.5-1-3.1c-0.7-0.6-1.8-1-3.3-1 c-1.2,0-2.3,0.2-3.2,0.7c-0.4,0.1-0.6,0.4-0.7,0.7l-0.4,1.4c0,0.1,0,0.2,0.2,0.2l0.8,0.2c0.1,0,0.1,0,0.2,0c0.1,0,0.3-0.2,0.5-0.6 c0.7-1.2,1.5-1.9,2.4-1.9c1.4,0,2.2,1.2,2.2,3.7L49,60.8c-1.1,0.4-1.9,0.8-2.5,1.1c-1.3,0.8-1.9,1.8-1.9,3.2c0,1,0.3,1.8,0.9,2.5 c0.6,0.6,1.4,1,2.4,1c0.5,0,1.2-0.2,1.8-0.7l2-1.3c0,0.7,0.2,1.4,0.6,2l3.6-1.2l-0.2-0.7C55.4,66.8,55.2,66.9,54.9,66.9z M51.8,62.7c0,2.8-0.9,4.2-2.8,4.2c-0.6,0-1.1-0.2-1.5-0.6c-0.4-0.4-0.6-0.9-0.6-1.6c0-1.4,0.9-2.5,2.6-3.2 c0.6-0.2,1.3-0.5,2.3-0.9L51.8,62.7L51.8,62.7z"></path> <path class="st0" d="M69.7,66.9c-0.6,0-0.9-0.6-0.9-1.9V49.5c-1.4,0.5-2.8,0.8-4.3,0.8v0.7h0.7c0.5,0,0.8,0.1,1,0.2 c0.2,0.1,0.3,0.6,0.3,1.2v3.2c-0.9-0.3-1.8-0.4-2.8-0.4c-2,0-3.7,0.6-5,1.9c-1.3,1.3-1.9,2.9-1.9,4.9c0,1.9,0.5,3.4,1.6,4.7 c1.1,1.3,2.4,1.9,4,1.9c0.6,0,1.4-0.3,2.2-0.8l1.7-1v0.2c0,0.6,0.2,1.2,0.6,1.6l3.7-1.2l-0.2-0.7C70.2,66.8,69.9,66.9,69.7,66.9z M66.5,63.9c0,1-0.1,1.7-0.4,2c-0.3,0.3-0.7,0.6-1.2,0.9c-0.5,0.2-1,0.4-1.5,0.4c-1.3,0-2.3-0.7-3.1-2.1c-0.6-1.1-0.9-2.4-0.9-3.8 c0-1.4,0.3-2.6,1-3.5c0.7-1.1,1.8-1.6,3.1-1.6c1.3,0,2.3,0.5,3.1,1.6V63.9z"></path> <path class="st0" d="M82.1,58.5c-0.7-2.2-2.2-3.2-4.5-3.2c-1.7,0-3.1,0.6-4.2,1.8c-1.1,1.3-1.7,2.8-1.7,4.7c0,1.9,0.6,3.6,1.7,5 c1.1,1.3,2.7,1.9,5,1.9H79l3.3-1.6L82,66.3c-1.2,0.6-2.1,0.9-3,0.9c-0.9,0-1.7-0.2-2.4-0.6c-1.6-0.9-2.5-2.7-2.5-5.3h8.2 C82.4,60.1,82.3,59.2,82.1,58.5z M78.5,60.3h-4.4c0.1-0.8,0.2-1.4,0.3-1.7c0.5-1.6,1.5-2.5,3-2.5c0.8,0,1.5,0.3,2,0.8 c0.5,0.5,0.8,1.2,0.8,2C80.1,59.8,79.6,60.3,78.5,60.3z"></path> </g> <path class="st0" d="M59.2,74.6c0.4,0,0.8-0.1,1.1-0.4c0.3-0.3,0.4-0.6,0.4-1.1s-0.1-0.8-0.4-1.1c-0.3-0.3-0.6-0.4-1-0.4 c-0.4,0-0.8,0.1-1.1,0.4c-0.3,0.3-0.4,0.6-0.4,1c0,0.4,0.1,0.8,0.4,1.1C58.5,74.5,58.8,74.6,59.2,74.6z"></path> <g> <path class="st0" d="M20.6,76.6l-0.3-0.3c-1.1,0.2-2.3,0.4-3.6,0.4c-0.2,0-0.4,0-0.7,0c-0.7-0.2-1.5-0.3-2.2-0.3 c-1.5,0-2.8,0.4-3.7,1.2c-1,0.8-1.4,1.8-1.4,3.1c0,1.8,1,3.2,2.9,4.1l-2.4,2c0,0,0,0.1,0,0.2c0,0.1,0,0.2,0,0.2 c0,0.8,0.5,1.3,1.6,1.5L8,90.1c-0.2,0.1-0.3,0.4-0.3,0.9c0,1,0.3,1.9,0.8,2.6c0.5,0.6,1.2,1.1,2.1,1.5c0.9,0.4,1.9,0.6,3,0.6 c1.6,0,3-0.4,4.1-1.2c1.4-1,2-2.2,2-3.6s-0.7-2.4-2-3.1c-0.6-0.3-1.6-0.5-2.8-0.7c-1.3-0.2-2.2-0.4-2.7-0.6 c-0.3-0.1-0.5-0.3-0.5-0.6c0-0.3,0.2-0.6,0.7-1c0.5,0,0.8,0,1,0c1.4,0,2.6-0.4,3.6-1.3c1-0.8,1.4-1.9,1.4-3.1c0-1.2-0.4-2.1-1.1-3 h2.6L20.6,76.6z M11.9,88.8l2.5,0.4c0.6,0.1,1.1,0.2,1.6,0.3c1.2,0.4,1.8,1.1,1.8,2.3c0,0.9-0.4,1.6-1.1,2.2 c-0.7,0.6-1.7,0.8-2.8,0.8c-1.2,0-2.1-0.3-2.9-0.9c-0.8-0.6-1.1-1.4-1.1-2.3c0-0.6,0.1-1.1,0.4-1.5C10.5,89.8,11.1,89.3,11.9,88.8z M13.8,84.3c-0.8,0-1.4-0.4-1.9-1.2c-0.5-0.8-0.8-1.7-0.8-2.9c0-1,0.2-1.8,0.7-2.4c0.4-0.6,1.1-0.9,1.8-0.9c0.7,0,1.3,0.3,1.7,1 c0.4,0.7,0.6,1.7,0.6,2.9C16,83.2,15.2,84.3,13.8,84.3z"></path> <path class="st0" d="M30.9,87.9c-0.3,0-0.6-0.1-0.7-0.4C30.1,87.2,30,86.7,30,86v-5.7c0-1.4-0.3-2.5-1-3.1c-0.7-0.6-1.8-1-3.3-1 c-1.2,0-2.3,0.2-3.3,0.7c-0.3,0.1-0.6,0.4-0.7,0.7l-0.4,1.4c0,0.1,0,0.2,0.2,0.2l0.8,0.2c0.1,0,0.1,0,0.2,0c0.1,0,0.3-0.2,0.5-0.6 c0.7-1.2,1.5-1.9,2.4-1.9c1.5,0,2.2,1.2,2.2,3.7l-2.8,1.1c-1.1,0.4-1.9,0.8-2.5,1.1c-1.3,0.8-1.9,1.8-1.9,3.2c0,1,0.3,1.8,0.9,2.5 c0.6,0.6,1.4,1,2.4,1c0.5,0,1.2-0.2,1.9-0.7l2-1.3c0,0.7,0.2,1.4,0.6,2l3.6-1.2l-0.1-0.7C31.4,87.9,31.1,87.9,30.9,87.9z M27.7,83.8c0,2.8-0.9,4.2-2.8,4.2c-0.6,0-1.1-0.2-1.5-0.6c-0.4-0.4-0.6-0.9-0.6-1.6c0-1.4,0.9-2.5,2.6-3.2 c0.6-0.2,1.3-0.5,2.3-0.9L27.7,83.8L27.7,83.8z"></path> <path class="st0" d="M53.2,86.2v-5.3c0-0.9,0-1.6-0.1-2.1c-0.4-1.6-1.5-2.5-3.5-2.5c-1.7,0-3.3,0.7-4.6,2.2 c-0.4-0.8-0.8-1.4-1.3-1.7c-0.5-0.3-1.2-0.5-2-0.5c-1.9,0-3.4,0.7-4.7,2.2v-2.2c-1.1,0.6-2.6,1-4.3,1.1V78h0.6 c0.6,0,0.9,0.1,1.2,0.2c0.2,0.1,0.3,0.5,0.3,1v6.9c0,1.1-0.1,1.8-0.3,2c-0.2,0.2-0.8,0.4-1.8,0.5v0.7h6.4v-0.7 c-1-0.1-1.6-0.3-1.8-0.5c-0.2-0.2-0.3-0.9-0.3-2v-3c0-2.2,0.3-3.7,0.9-4.5c0.6-0.7,1.4-1,2.4-1c0.9,0,1.6,0.3,1.9,0.8 c0.3,0.6,0.5,1.6,0.5,3v4.7c0,1.1-0.1,1.8-0.3,2c-0.2,0.2-0.8,0.4-1.8,0.5v0.7h6.4v-0.7c-1-0.1-1.6-0.3-1.8-0.5 c-0.2-0.2-0.3-0.9-0.3-2v-3c0-1.1,0-1.9,0.1-2.3c0.1-0.9,0.4-1.6,0.8-2.1c0.6-0.7,1.4-1.1,2.4-1.1c0.9,0,1.6,0.3,1.9,0.9 c0.4,0.6,0.6,1.6,0.6,3v4.7c0,1.1-0.1,1.8-0.3,2c-0.2,0.2-0.8,0.4-1.8,0.5v0.7h6.4v-0.7c-1-0.1-1.6-0.2-1.8-0.5 C53.3,88,53.2,87.3,53.2,86.2z"></path> <path class="st0" d="M60.4,86v-9.8c-1.1,0.6-2.6,1-4.3,1.1v0.6h0.6c0.6,0,0.9,0.1,1.2,0.2c0.2,0.1,0.3,0.5,0.3,1V86 c0,1.1-0.1,1.8-0.3,2c-0.2,0.2-0.8,0.4-1.8,0.5v0.7h6.4v-0.7c-1-0.1-1.6-0.3-1.8-0.5C60.4,87.8,60.4,87.1,60.4,86z"></path> <path class="st0" d="M76.5,86v-5.4c0-1.1-0.1-1.9-0.2-2.3c-0.5-1.5-1.7-2.2-3.5-2.2c-2,0-3.7,0.7-5.1,2.2v-2.2 c-1.1,0.6-2.6,1-4.3,1.1v0.6h0.6c0.5,0,0.9,0.1,1.1,0.2c0.2,0.1,0.3,0.5,0.3,1V86c0,1.1-0.1,1.7-0.3,2c-0.2,0.2-0.8,0.4-1.7,0.5 v0.7h6.4v-0.7c-1-0.1-1.6-0.3-1.8-0.5c-0.2-0.2-0.3-0.9-0.3-2v-3.1c0-1.1,0.1-2,0.2-2.6c0.4-1.8,1.6-2.7,3.5-2.7 c1.1,0,1.8,0.3,2.2,0.8c0.4,0.6,0.6,1.6,0.6,2.9V86c0,1.1-0.1,1.7-0.2,1.9c-0.2,0.3-0.8,0.5-1.8,0.6v0.7h6.4v-0.7 c-1-0.1-1.6-0.3-1.8-0.5C76.6,87.8,76.5,87.2,76.5,86z"></path> <path class="st0" d="M92.3,76.5L92,76.2c-1.1,0.2-2.3,0.4-3.6,0.4c-0.2,0-0.5,0-0.7,0c-0.7-0.2-1.5-0.3-2.2-0.3 c-1.5,0-2.7,0.4-3.7,1.2c-1,0.8-1.4,1.8-1.4,3.1c0,1.8,1,3.2,2.9,4.1l-2.4,2c0,0,0,0.1,0,0.2c0,0.1,0,0.2,0,0.2 c0,0.8,0.6,1.3,1.6,1.5L79.7,90c-0.2,0.1-0.3,0.4-0.3,0.9c0,1,0.3,1.9,0.8,2.6c0.5,0.6,1.2,1.1,2.1,1.5c0.9,0.4,1.9,0.6,3,0.6 c1.6,0,3-0.4,4.1-1.2c1.3-1,2-2.2,2-3.6c0-1.4-0.7-2.4-2-3.1c-0.6-0.3-1.6-0.5-2.8-0.7c-1.3-0.2-2.2-0.4-2.7-0.6 c-0.3-0.1-0.5-0.3-0.5-0.6c0-0.3,0.2-0.6,0.7-1c0.5,0,0.8,0,1,0c1.4,0,2.6-0.4,3.6-1.3c1-0.8,1.4-1.9,1.4-3.1c0-1.2-0.4-2.1-1.1-3 h2.6L92.3,76.5z M83.6,88.7l2.5,0.4c0.6,0.1,1.1,0.2,1.6,0.3c1.2,0.4,1.8,1.1,1.8,2.3c0,0.9-0.4,1.6-1.1,2.2 c-0.7,0.6-1.7,0.8-2.8,0.8c-1.2,0-2.1-0.3-2.9-0.9c-0.8-0.6-1.1-1.4-1.1-2.3c0-0.6,0.1-1.1,0.4-1.5C82.2,89.7,82.8,89.2,83.6,88.7z M85.5,84.2c-0.8,0-1.4-0.4-1.9-1.2c-0.5-0.8-0.8-1.7-0.8-2.9c0-1,0.2-1.8,0.7-2.4c0.4-0.6,1.1-0.9,1.8-0.9c0.7,0,1.3,0.3,1.7,1 c0.4,0.7,0.6,1.7,0.6,2.9C87.7,83,86.9,84.2,85.5,84.2z"></path> </g> </svg> 