<?xml version="1.0" encoding="UTF-8"?> <!-- Generator: Adobe Illustrator 24.1.2, SVG Export Plug-In . SVG Version: 6.00 Build 0) --> <svg xmlns="http://www.w3.org/2000/svg" xmlns:xlink="http://www.w3.org/1999/xlink" version="1.1" id="Layer_1" x="0px" y="0px" viewBox="0 0 100 100" style="enable-background:new 0 0 100 100;" xml:space="preserve"> <g> <path style="fill:#FFFFFF;" d="M48.873,41.672c2.131,5.189,4.173,10.159,6.395,15.568c0.852-2.018,1.563-3.666,2.246-5.326 c1.354-3.289,2.694-6.583,4.037-9.876c1.093-2.677,3.104-4.008,5.986-4.089c3.03-0.085,5.252,1.172,6.429,3.987 c2.079,4.973,4.092,9.973,6.298,15.364c1.385-3.35,2.633-6.351,3.867-9.358c1.187-2.892,2.401-5.775,3.516-8.695 c0.382-1.002,0.869-1.457,2.001-1.419c2.447,0.083,4.898,0.025,7.682,0.025c-0.986,2.433-1.848,4.573-2.719,6.71 c-2.708,6.642-5.435,13.277-8.121,19.928c-1.157,2.864-3.312,4.187-6.322,4.141c-2.928-0.045-5.011-1.396-6.128-4.174 c-1.784-4.438-3.614-8.858-5.43-13.284c-0.225-0.549-0.484-1.084-0.857-1.917c-2.09,5.117-4.046,9.927-6.019,14.73 c-1.324,3.223-3.284,4.65-6.35,4.666c-3.152,0.017-5.2-1.436-6.54-4.695c-1.702-4.141-3.373-8.293-5.068-12.437 c-0.226-0.552-0.51-1.079-0.96-2.022c-0.598,1.392-1.063,2.431-1.493,3.485c-1.614,3.959-3.149,7.951-4.846,11.874 c-1.1,2.542-3.246,3.683-5.988,3.723c-1.407,0.021-2.814,0.004-4.55,0.004c1.016-2.579,1.9-4.9,2.842-7.198 c1.855-4.526,3.774-9.025,5.594-13.565c0.447-1.115,1.026-1.222,1.956-0.708C42.743,50.657,46.904,48.936,48.873,41.672z"></path> <path style="fill:#FFFFFF;" d="M22.401,37.848c-3.076,7.61-6.002,14.849-9.052,22.395c4.154,0,7.992,0,12.363,0 c-1.224,2.923-2.262,5.488-3.404,8.006c-0.125,0.276-0.85,0.392-1.297,0.395c-3.63,0.029-7.264,0.101-10.891-0.009 c-4.755-0.145-7.56-4.378-5.806-8.79c2.761-6.945,5.62-13.852,8.492-20.752c0.211-0.508,0.848-1.17,1.311-1.19 C16.747,37.789,19.386,37.848,22.401,37.848z"></path> <path style="fill:#FFFFFF;" d="M41.341,45.768c-2.61-0.046-4.163-1.574-4.11-4.045c0.05-2.339,1.698-3.774,4.268-3.717 c2.367,0.053,4.235,1.842,4.146,3.973C45.557,44.126,43.646,45.808,41.341,45.768z"></path> </g> </svg> 